<svg width="25" height="25" viewBox="0 0 25 25" fill="none" xmlns="http://www.w3.org/2000/svg">
<path fill-rule="evenodd" clip-rule="evenodd" d="M8.81582 12.0535C8.81582 14.1868 10.5622 15.9226 12.7183 15.9226C14.8646 15.9226 16.6109 14.1868 16.6109 12.0535C16.6109 9.91044 14.8646 8.17468 12.7183 8.17468C10.5622 8.17468 8.81582 9.91044 8.81582 12.0535ZM18.4548 6.09953C20.1622 7.41832 21.6158 9.34801 22.6597 11.7626C22.7378 11.9468 22.7378 12.1601 22.6597 12.3347C20.5719 17.1638 16.8548 20.0535 12.7183 20.0535H12.7085C8.58168 20.0535 4.8646 17.1638 2.7768 12.3347C2.69875 12.1601 2.69875 11.9468 2.7768 11.7626C4.8646 6.93347 8.58168 4.05347 12.7085 4.05347H12.7183C14.7866 4.05347 16.7475 4.77104 18.4548 6.09953ZM12.7194 14.4659C14.056 14.4659 15.1487 13.3798 15.1487 12.0513C15.1487 10.7132 14.056 9.62709 12.7194 9.62709C12.6024 9.62709 12.4853 9.63679 12.378 9.65618C12.3389 10.7228 11.4609 11.5762 10.378 11.5762H10.3292C10.2999 11.7313 10.2804 11.8865 10.2804 12.0513C10.2804 13.3798 11.3731 14.4659 12.7194 14.4659Z" fill="white"/>
</svg>
