<svg width="12" height="12" viewBox="0 0 12 12" fill="none" xmlns="http://www.w3.org/2000/svg">
<path fill-rule="evenodd" clip-rule="evenodd" d="M0.864806 0.874735C1.03341 0.706011 1.26206 0.611227 1.50047 0.611227C1.73887 0.611227 1.96752 0.706011 2.13613 0.874735L5.99594 4.73844L9.85576 0.874735C9.9387 0.788776 10.0379 0.720212 10.1476 0.673044C10.2573 0.625876 10.3753 0.601048 10.4947 0.60001C10.614 0.598971 10.7324 0.621742 10.8429 0.666995C10.9534 0.712248 11.0538 0.779076 11.1382 0.863579C11.2226 0.948083 11.2894 1.04857 11.3346 1.15918C11.3798 1.26978 11.4026 1.38829 11.4015 1.5078C11.4005 1.6273 11.3757 1.7454 11.3286 1.8552C11.2814 1.965 11.213 2.06431 11.1271 2.14733L7.26726 6.01103L11.1271 9.87473C11.2909 10.0445 11.3815 10.2718 11.3794 10.5078C11.3774 10.7438 11.2828 10.9695 11.1161 11.1364C10.9494 11.3032 10.7239 11.3979 10.4882 11.3999C10.2524 11.402 10.0253 11.3113 9.85576 11.1473L5.99594 7.28363L2.13613 11.1473C1.96655 11.3113 1.73944 11.402 1.5037 11.3999C1.26796 11.3979 1.04246 11.3032 0.875758 11.1364C0.709058 10.9695 0.614501 10.7438 0.612452 10.5078C0.610404 10.2718 0.701028 10.0445 0.864806 9.87473L4.72462 6.01103L0.864806 2.14733C0.696251 1.97856 0.601562 1.74968 0.601562 1.51104C0.601562 1.27239 0.696251 1.04351 0.864806 0.874735Z" fill="white"/>
</svg>
