<svg width="519" height="519" viewBox="0 0 519 519" fill="none" xmlns="http://www.w3.org/2000/svg">
<path d="M285.038 130.198L286.082 135.071L289.017 131.044L360.558 32.8779L335.477 151.729L334.447 156.605L338.767 154.12L444.049 93.5391L372.796 191.914L369.873 195.949L374.83 195.436L495.651 182.915L390.545 243.804L386.233 246.302L390.971 247.849L506.439 285.553L385.654 298.427L380.699 298.954L384.397 302.294L474.548 383.704L358.97 346.337L354.228 344.805L356.248 349.359L405.492 460.399L315.104 379.253L311.396 375.924L311.389 380.906L311.211 502.375L261.644 391.48L259.61 386.931L257.576 391.48L208.008 502.375L207.831 380.906L207.824 375.924L204.116 379.253L113.729 460.398L162.972 349.359L164.992 344.805L160.251 346.337L44.6709 383.704L134.822 302.294L138.521 298.954L133.565 298.427L12.7803 285.553L128.25 247.849L132.986 246.302L128.675 243.804L23.5674 182.915L144.391 195.436L149.347 195.949L146.424 191.914L75.1689 93.5381L180.453 154.12L184.772 156.605L183.744 151.729L158.662 32.8779L230.204 131.044L233.139 135.071L234.182 130.198L259.609 11.4209L285.038 130.198Z" fill="#AF3C2D" stroke="black" stroke-width="4.45477"/>
</svg>
