<svg width="58" height="58" viewBox="0 0 58 58" fill="none" xmlns="http://www.w3.org/2000/svg">
<path d="M57.983 0H0.0169922C0.00760766 0 0 0.00760766 0 0.0169922V57.983C0 57.9924 0.00760766 58 0.0169922 58H57.983C57.9924 58 58 57.9924 58 57.983V0.0169922C58 0.00760766 57.9924 0 57.983 0Z" fill="white"/>
<path d="M27.4141 13.3672H13.3672V27.4141H27.4141V13.3672Z" fill="#9CCD2A"/>
<path d="M44.6328 13.3672H30.5859V27.4141H44.6328V13.3672Z" fill="#932279"/>
<path d="M44.6328 30.5859H30.5859V44.6328H44.6328V30.5859Z" fill="#EFA724"/>
<path d="M27.4141 30.5859H13.3672V44.6328H27.4141V30.5859Z" fill="#262577"/>
<path d="M13.3672 30.5859H27.4141V44.6328H13.3672V30.5859ZM30.5859 30.5859H44.6328V44.6328H30.5859V30.5859ZM30.5859 13.3672H44.6328V27.4141H30.5859V13.3672ZM13.3672 13.3672H27.4141V27.4141H13.3672V13.3672ZM41.1211 38.9688L31.2656 29L41.1211 19.0312L51.0898 29L41.1211 38.9688ZM29 26.7344L19.0312 16.8789L29 6.91016L38.9688 16.8789L29 26.7344ZM16.8789 38.9688L6.91016 29L16.8789 19.0312L26.7344 29L16.8789 38.9688ZM29 51.0898L19.0312 41.1211L29 31.2656L38.9688 41.1211L29 51.0898Z" stroke="white" stroke-width="1.01953"/>
</svg>
