<svg width="58" height="58" viewBox="0 0 58 58" fill="none" xmlns="http://www.w3.org/2000/svg">
<path d="M57.983 0H0.0169922C0.00760766 0 0 0.00760766 0 0.0169922V57.983C0 57.9924 0.00760766 58 0.0169922 58H57.983C57.9924 58 58 57.9924 58 57.983V0.0169922C58 0.00760766 57.9924 0 57.983 0Z" fill="#D70751"/>
<path d="M43.9531 25.4883C43.9984 26.7344 43.6133 27.4141 43.2734 28.5469C42.1406 28.8867 42.3672 30.1328 42.2539 30.4727C41.5742 30.8125 38.2891 34.3242 39.4219 32.3985C38.2891 33.1914 38.5156 33.5313 36.7031 34.0977L36.6578 33.9844C32.2398 36.0235 26.0094 31.9453 26.0094 26.2813C25.9641 26.6211 25.8961 26.5078 25.7828 26.6211C25.6695 20.2774 33.0328 16.6524 37.3375 20.5039C34.5055 17.2188 28.5016 16.9922 26.4625 20.957C25.3297 21.6367 25.1031 23.9024 24.65 24.2422C24.0836 34.211 33.1461 40.668 41.6422 33.0781C42.5484 32.3985 43.4547 31.2656 43.7945 31.1524C43.4547 31.7981 43.8625 31.3789 43.568 31.9453C44.2476 30.8125 43.6812 28.4336 44.9273 30.1102C45.018 27.9578 47.4195 23.5399 46.1734 27.5047C46.5133 26.1453 46.2867 23.4266 46.8531 25.9188C46.5133 24.5594 47.193 23.5399 47.4195 22.7469C46.7398 21.0477 45.3805 17.8758 46.9664 20.1414C43.6812 13.3446 47.0797 16.1766 48.3258 20.7078C48.2125 19.4833 47.7707 18.3063 47.4195 17.1961C47.6461 17.3094 46.9664 14.7039 47.7594 16.5164C46.7398 12.7781 43.4547 9.49299 40.3961 7.68049C42.4351 9.71955 34.5055 5.98127 32.5797 5.30159C33.9391 6.09456 25.6695 6.09456 30.2574 5.39221C28.6715 5.27893 26.6324 5.84534 28.5582 4.82581C27.3348 4.89377 25.7262 5.50549 26.1793 4.93909C23.8004 6.18518 16.5504 11.0563 18.5895 8.4508C15.984 10.8297 14.398 12.5289 13.0387 15.7008C4.08946 28.275 12.8121 47.193 26.9723 52.5172C28.2184 52.9703 30.2574 52.9703 31.9566 52.9703C30.0309 52.4039 29.691 52.7438 27.7652 52.0641C26.4059 51.4977 26.066 50.7047 25.0465 49.7984C24.9672 50.7047 22.3277 49.7418 23.234 48.6656C22.6676 48.6203 21.648 47.6461 21.3082 47.0797C20.2887 47.3063 19.3824 45.4938 19.3824 44.8141C19.2691 45.1539 15.191 41.0758 17.5699 42.2086C17.0035 41.6422 16.2105 41.5289 16.8902 40.8492C16.3238 39.2633 14.8512 38.5836 16.5504 39.15C14.0582 37.4508 12.5855 34.732 13.7184 34.6188C13.152 33.9391 13.152 33.3727 13.2652 32.4664C11.3395 28.275 13.3785 23.0641 14.8512 19.5524C12.4723 19.7789 19.1559 13.8883 20.9684 13.8883C20.7418 12.9821 22.2144 11.8492 24.0269 11.2828C23.9137 11.1696 30.3707 8.33752 27.6519 10.3766C35.2418 7.8844 43.6246 14.4547 44.0777 21.2516C44.5308 21.3649 44.0211 26.3492 43.9644 26.6891" fill="white"/>
</svg>
