<svg width="58" height="58" viewBox="0 0 58 58" fill="none" xmlns="http://www.w3.org/2000/svg">
<path d="M38.5995 12.5882C40.4548 14.4425 35.3114 22.5941 34.4418 23.4641C33.5724 24.3323 31.3639 23.5334 29.5095 21.6785C27.6541 19.8242 26.8549 17.6152 27.7245 16.7456C28.5935 15.8758 36.7445 10.7328 38.5995 12.5881V12.5882ZM12.5825 14.5502C9.75 12.9432 5.71954 11.1554 4.43749 12.4377C3.13841 13.7362 4.99157 17.8573 6.61562 20.6949C8.06212 18.1819 10.1131 16.0698 12.5825 14.5502Z" fill="#ED2A3A"/>
<path d="M35.77 22.8245C36.0308 23.709 35.984 24.4397 35.5609 24.862C34.573 25.8503 31.9041 24.7982 29.4982 22.5086C29.3278 22.3563 29.1617 22.1993 29 22.0377C28.1301 21.1675 27.4532 20.2412 27.0203 19.3881C26.1776 17.8764 25.9668 16.5413 26.6037 15.9043C26.9508 15.5576 27.5061 15.4631 28.1835 15.5849C28.6252 15.3055 29.1467 14.9943 29.7185 14.6755C27.3933 13.4627 24.7497 12.7777 21.9454 12.7777C12.644 12.7777 5.10352 20.317 5.10352 29.6191C5.10352 38.9197 12.6441 46.4599 21.9454 46.4599C31.2469 46.4599 38.7869 38.9197 38.7869 29.6191C38.7869 26.6153 37.9985 23.7986 36.6213 21.3566C36.3237 21.8998 36.0343 22.3974 35.77 22.8245Z" fill="#ED2A3A"/>
</svg>
