<svg width="541" height="532" viewBox="0 0 541 532" fill="none" xmlns="http://www.w3.org/2000/svg">
<path d="M266.137 531.631C412.833 531.631 531.753 412.801 531.753 266.218C531.753 119.634 412.833 0.804688 266.137 0.804688C119.441 0.804688 0.519989 119.634 0.519989 266.218C0.519989 412.801 119.441 531.631 266.137 531.631Z" fill="url(#paint0_radial_22_1039)"/>
<path d="M86.5654 107.077C94.6875 103.658 115.958 67.2022 125.579 49.4009C158.18 4.00876 182.229 33.38 192.918 38.7212C203.608 44.061 202.538 56.8783 199.866 63.2856C197.194 69.6942 172.075 69.6942 164.058 83.0452C156.042 96.3962 176.885 87.3176 182.229 98.5324C187.574 109.747 185.437 110.815 192.918 107.077C200.4 103.339 201.47 83.0452 206.814 75.5692C212.158 68.0917 229.794 76.6366 229.794 83.0452C229.794 89.4539 243.156 96.3962 245.294 107.077C247.431 117.757 238.88 125.233 223.916 135.914C208.951 146.595 206.814 144.993 192.918 152.469C179.023 159.946 184.902 169.025 176.885 175.967C168.869 182.909 152.836 175.432 153.37 193.055C153.904 210.679 149.629 219.224 144.819 214.416C140.009 209.61 144.819 198.93 135.199 193.055C125.579 187.182 110.08 185.046 92.9775 206.94C75.8761 228.836 94.5813 248.06 99.9252 240.051C105.271 232.04 115.424 229.37 121.304 230.437C127.182 231.506 118.632 242.721 115.424 244.322C112.218 245.924 107.408 253.935 121.304 258.742C135.199 263.548 130.389 266.751 128.786 275.83C127.205 284.779 139.127 288.54 149.195 291.714L149.629 291.851C159.784 295.056 153.37 286.511 168.334 281.171C183.299 275.83 184.902 286.511 206.814 288.647C228.726 290.783 239.95 301.998 263.999 319.086C288.049 336.176 302.479 345.255 326.528 352.197C350.578 359.139 336.683 376.761 330.269 387.443C323.856 398.124 328.132 421.621 312.632 429.097C297.135 436.574 285.376 441.914 274.688 458.468C263.999 475.023 236.208 479.296 229.794 490.51C223.381 501.725 230.329 516.143 214.831 514.007C199.332 511.871 197.194 493.714 197.194 467.547C197.194 441.38 191.315 415.212 164.058 396.521C136.803 377.83 140.543 342.583 144.819 334.04C149.094 325.495 158.714 310.008 157.646 301.998C156.576 293.987 133.061 303.066 125.579 286.511C118.096 269.956 102.063 265.684 99.9252 258.742C97.7873 251.799 78.5481 248.06 72.6701 240.051C66.7906 232.04 60.9111 222.961 66.2565 214.416C71.6004 205.873 64.6527 182.374 60.9111 185.046C57.171 187.716 59.3088 212.28 56.6354 206.94C53.9635 201.6 57.171 163.683 56.6354 152.469C56.1013 141.254 76.4102 111.348 86.5654 107.077Z" fill="#20D3A8"/>
<path d="M218.037 41.925C210.02 40.8561 205.745 51.0035 205.745 55.8096C208.951 63.8208 218.037 53.1397 220.709 61.1495C223.381 69.1606 218.037 70.228 227.123 73.4331C236.208 76.6367 242.622 66.4907 237.276 61.1495C231.932 55.8096 226.053 42.9924 218.037 41.925Z" fill="#20D3A8"/>
<path d="M257.585 45.6632C256.303 37.5458 240.306 34.0926 232.466 33.3796C218.037 21.0973 262.395 25.3698 276.29 24.8354C290.186 24.3014 300.341 41.9244 302.479 51.5367C304.617 61.149 290.186 61.149 284.308 69.6938C278.428 78.2387 285.911 80.3749 284.308 86.2484C282.704 92.1234 265.068 82.5111 257.585 73.4326C250.103 64.354 259.189 55.8091 257.585 45.6632Z" fill="#20D3A8"/>
<path d="M499.153 342.051C495.305 349.313 487.217 389.224 483.654 408.271C493.451 408.271 517.002 388.832 532.821 311.078C548.642 233.322 516.968 161.904 499.153 135.915C495.411 131.643 478.524 133.459 472.964 138.585C466.017 144.994 470.292 152.47 462.276 152.47C454.259 152.47 453.725 136.984 447.846 135.915C441.968 134.848 437.692 142.324 423.262 152.47C408.832 162.617 413.107 173.297 408.297 181.308C403.488 189.318 393.868 257.674 423.262 274.763C452.655 291.852 456.397 280.103 472.964 274.763C489.533 269.422 493.273 284.376 492.739 293.988C492.205 303.6 503.962 332.972 499.153 342.051Z" fill="#20D3A8"/>
<path d="M405.091 119.359C403.808 113.806 396.718 110.992 393.332 110.281C389.058 108.842 391.73 102.805 395.47 101.736C399.212 100.668 397.608 96.396 395.47 89.9873C393.334 83.5787 399.212 80.9088 403.488 79.3063C407.763 77.7052 406.16 72.3639 405.091 69.694C404.022 67.0241 391.73 62.7516 391.73 56.8781C391.73 52.1782 387.454 49.2227 385.317 48.3333C386.386 51.359 387.882 57.3042 385.317 56.8781C382.111 56.343 366.611 42.9934 364.474 44.5945C362.336 46.197 375.163 53.1394 383.179 58.4792C391.196 63.8205 397.608 71.2965 396.54 74.5001C395.47 77.7052 388.523 68.6266 385.317 67.0241C382.111 65.4216 382.645 68.6266 380.507 71.2965C378.369 73.9664 367.68 65.9567 366.611 62.7516C365.542 59.548 358.06 48.867 353.25 44.5945C348.44 40.3221 338.821 32.846 350.578 31.7786C362.336 30.7098 360.732 32.846 362.87 37.6522C364.58 41.4971 368.927 37.4743 370.887 34.9823C376.231 31.2435 388.63 30.9236 414.711 44.5945C440.792 58.2655 474.568 97.4634 485.791 117.223C481.338 119.537 471.896 123.738 469.758 122.029C467.086 119.893 457.467 110.281 456.397 113.484C455.329 116.689 463.345 127.904 461.207 127.369C459.069 126.835 452.655 116.156 449.449 113.484C446.243 110.814 428.072 98.5322 428.606 103.872C429.14 109.212 444.105 114.019 451.053 117.223C458.001 120.427 453.725 134.846 449.449 134.846C445.174 134.846 447.312 129.505 444.105 123.098C440.898 116.689 427.003 116.156 422.727 119.359C418.451 122.563 420.589 134.311 422.727 143.39C424.865 152.468 412.039 153.537 405.091 154.071C398.144 154.605 393.332 137.516 393.332 129.505C393.332 121.495 406.694 126.302 405.091 119.359Z" fill="#20D3A8"/>
<path d="M361.802 82.5115C357.954 80.8028 359.13 77.1717 360.198 75.5691C362.336 73.4329 366.611 77.7054 369.283 80.909C371.955 84.114 380.507 86.2502 386.92 89.9875C393.334 93.7263 387.989 101.736 383.179 101.736C378.369 101.736 377.835 92.6574 377.835 89.9875C377.835 87.3176 366.611 84.6477 361.802 82.5115Z" fill="#20D3A8"/>
<path d="M368.215 87.3184C366.077 86.0373 363.761 89.6325 362.87 91.5908C363.939 95.8633 363.736 89.9883 365.542 94.7945C367.349 99.6006 369.283 101.737 371.955 100.669C374.627 99.6006 374.093 95.8633 371.955 93.7271C369.817 91.5908 370.887 88.9209 368.215 87.3184Z" fill="#20D3A8"/>
<path d="M203.009 105.907C203.009 123.375 184.388 144.459 184.388 144.459C184.388 144.459 165.768 126.032 165.768 105.907C165.768 95.6319 174.104 87.3008 184.388 87.3008C194.673 87.3008 203.009 95.6319 203.009 105.907Z" fill="#009393"/>
<path d="M184.388 120.337C191.734 120.337 197.689 114.386 197.689 107.046C197.689 99.7062 191.734 93.7559 184.388 93.7559C177.043 93.7559 171.088 99.7062 171.088 107.046C171.088 114.386 177.043 120.337 184.388 120.337Z" fill="#2FCF6E"/>
<path d="M185.006 101.016H183.652V98.5273H185.006V101.016ZM184.829 114.525H183.475V112.247H184.829V114.525ZM185.645 109.472C185.645 109.164 185.589 108.907 185.477 108.699C185.37 108.487 185.197 108.299 184.956 108.135C184.714 107.967 184.388 107.808 183.979 107.658C183.246 107.371 182.599 107.068 182.045 106.749C181.49 106.424 181.057 106.023 180.749 105.547C180.44 105.071 180.286 104.463 180.286 103.722C180.286 103.022 180.452 102.417 180.783 101.907C181.113 101.391 181.576 100.994 182.172 100.714C182.766 100.433 183.452 100.293 184.232 100.293C185.029 100.293 185.724 100.45 186.318 100.764C186.912 101.078 187.373 101.532 187.698 102.125C188.03 102.714 188.195 103.425 188.195 104.26H185.662C185.662 103.605 185.527 103.12 185.258 102.807C184.989 102.487 184.635 102.328 184.199 102.328C183.879 102.328 183.617 102.389 183.416 102.513C183.214 102.636 183.066 102.804 182.97 103.016C182.875 103.23 182.828 103.468 182.828 103.731C182.828 104.001 182.878 104.236 182.978 104.437C183.079 104.633 183.253 104.815 183.5 104.983C183.747 105.151 184.087 105.323 184.518 105.497C185.241 105.788 185.879 106.1 186.427 106.429C186.983 106.761 187.415 107.164 187.724 107.64C188.037 108.117 188.195 108.722 188.195 109.455C188.195 110.184 188.024 110.807 187.681 111.322C187.339 111.832 186.865 112.221 186.259 112.491C185.653 112.753 184.947 112.885 184.14 112.885C183.617 112.885 183.102 112.818 182.592 112.683C182.081 112.544 181.616 112.317 181.195 112.003C180.78 111.689 180.446 111.274 180.195 110.759C179.948 110.237 179.824 109.596 179.824 108.834H182.364C182.364 109.22 182.414 109.546 182.516 109.81C182.617 110.066 182.752 110.274 182.92 110.431C183.088 110.583 183.276 110.692 183.484 110.759C183.696 110.821 183.915 110.851 184.14 110.851C184.476 110.851 184.756 110.792 184.981 110.675C185.205 110.557 185.37 110.395 185.477 110.187C185.589 109.975 185.645 109.736 185.645 109.472Z" fill="#FEFEFE"/>
<path d="M477.455 106.737C477.455 133.991 448.403 166.889 448.403 166.889C448.403 166.889 419.349 138.138 419.349 106.737C419.349 90.7027 432.357 77.7061 448.403 77.7061C464.447 77.7061 477.455 90.7027 477.455 106.737Z" fill="#9A9EE6"/>
<path d="M448.401 129.25C459.863 129.25 469.154 119.966 469.154 108.513C469.154 97.0606 459.863 87.7764 448.401 87.7764C436.94 87.7764 427.648 97.0606 427.648 108.513C427.648 119.966 436.94 129.25 448.401 129.25Z" fill="#6B71D6"/>
<mask id="mask0_22_1039" style="mask-type:luminance" maskUnits="userSpaceOnUse" x="427" y="87" width="43" height="43">
<path d="M448.401 129.25C459.863 129.25 469.154 119.966 469.154 108.513C469.154 97.0606 459.863 87.7764 448.401 87.7764C436.94 87.7764 427.648 97.0606 427.648 108.513C427.648 119.966 436.94 129.25 448.401 129.25Z" fill="white"/>
</mask>
<g mask="url(#mask0_22_1039)">
<path fill-rule="evenodd" clip-rule="evenodd" d="M448.698 95.0921C448.638 95.2384 446.818 98.3244 444.652 101.953C442.487 105.58 440.698 108.595 440.675 108.653C440.647 108.729 441.824 109.467 444.8 111.244L448.964 113.728L453.128 111.242C456.118 109.456 457.279 108.726 457.25 108.65C457.099 108.254 449.004 94.8281 448.915 94.8281C448.856 94.8281 448.759 94.9472 448.698 95.0921ZM440.685 110.44C440.846 110.717 448.93 122.202 448.964 122.2C449.02 122.199 457.284 110.406 457.253 110.373C457.223 110.343 449.497 114.938 449.175 115.177L448.977 115.324L444.977 112.939C442.777 111.628 440.896 110.502 440.797 110.437C440.632 110.331 440.622 110.331 440.685 110.44Z" fill="#FEFEFE"/>
</g>
<path d="M181.695 142.322C242.622 121.495 394.936 134.311 446.777 165.286" stroke="#FEFEFE" stroke-width="2.46403" stroke-dasharray="6.16 6.16"/>
<path d="M181.695 142.324C255.447 133.245 440.364 197.329 510.91 284.91" stroke="#FEFEFE" stroke-width="2.46403" stroke-dasharray="6.16 6.16"/>
<path d="M181.695 142.323C225.519 163.15 233.536 251.265 202.538 334.574" stroke="#FEFEFE" stroke-width="2.46403" stroke-dasharray="6.16 6.16"/>
<path d="M540.52 226.36C540.52 253.614 511.466 286.511 511.466 286.511C511.466 286.511 482.412 257.761 482.412 226.36C482.412 210.326 495.42 197.328 511.466 197.328C527.512 197.328 540.52 210.326 540.52 226.36Z" fill="#48A3EC"/>
<path d="M511.466 248.875C522.927 248.875 532.219 239.591 532.219 228.138C532.219 216.686 522.927 207.401 511.466 207.401C500.004 207.401 490.713 216.686 490.713 228.138C490.713 239.591 500.004 248.875 511.466 248.875Z" fill="#2775CA"/>
<path d="M507.315 242.409C507.315 242.898 506.927 243.174 506.477 243.027C500.214 241.01 495.694 235.118 495.694 228.137C495.694 221.17 500.214 215.264 506.477 213.245C506.945 213.099 507.315 213.376 507.315 213.864V215.084C507.315 215.41 507.074 215.785 506.767 215.898C501.812 217.737 498.277 222.538 498.277 228.137C498.277 233.751 501.812 238.535 506.767 240.359C507.074 240.472 507.315 240.847 507.315 241.172V242.409Z" fill="#FEFEFE"/>
<path d="M512.858 238.272C512.858 238.629 512.567 238.92 512.21 238.92H510.91C510.553 238.92 510.26 238.629 510.26 238.272V236.23C507.418 235.841 506.037 234.27 505.664 232.1C505.599 231.727 505.892 231.403 506.265 231.403H507.743C508.052 231.403 508.311 231.629 508.376 231.922C508.653 233.202 509.4 234.189 511.674 234.189C513.347 234.189 514.548 233.25 514.548 231.856C514.548 230.463 513.849 229.929 511.381 229.523C507.743 229.038 506.021 227.936 506.021 225.1C506.021 222.914 507.694 221.196 510.26 220.841V218.831C510.26 218.475 510.553 218.184 510.91 218.184H512.21C512.567 218.184 512.858 218.475 512.858 218.831V220.888C514.955 221.261 516.286 222.445 516.725 224.42C516.805 224.793 516.514 225.133 516.123 225.133H514.759C514.467 225.133 514.224 224.939 514.142 224.664C513.769 223.416 512.876 222.865 511.316 222.865C509.595 222.865 508.702 223.691 508.702 224.858C508.702 226.089 509.204 226.704 511.852 227.077C515.426 227.563 517.276 228.583 517.276 231.614C517.276 233.915 515.555 235.777 512.876 236.199V238.272H512.858Z" fill="#FEFEFE"/>
<path d="M516.455 243.027C515.987 243.174 515.617 242.897 515.617 242.409V241.187C515.617 240.828 515.826 240.487 516.165 240.372C521.104 238.547 524.655 233.741 524.655 228.137C524.655 222.516 521.12 217.726 516.165 215.901C515.858 215.787 515.617 215.412 515.617 215.086V213.865C515.617 213.376 516.004 213.099 516.455 213.245C522.718 215.232 527.238 221.147 527.238 228.12C527.238 235.109 522.718 241.007 516.455 243.027Z" fill="#FEFEFE"/>
<path d="M232.682 276.559C232.682 303.814 203.629 336.71 203.629 336.71C203.629 336.71 174.575 307.96 174.575 276.559C174.575 260.525 187.583 247.527 203.629 247.527C219.675 247.527 232.682 260.525 232.682 276.559Z" fill="#FFBD6C"/>
<path d="M203.629 299.074C215.091 299.074 224.382 289.789 224.382 278.337C224.382 266.884 215.091 257.6 203.629 257.6C192.168 257.6 182.876 266.884 182.876 278.337C182.876 289.789 192.168 299.074 203.629 299.074Z" fill="#F7931A"/>
<mask id="mask1_22_1039" style="mask-type:luminance" maskUnits="userSpaceOnUse" x="182" y="257" width="43" height="43">
<path d="M203.629 299.074C215.091 299.074 224.382 289.789 224.382 278.337C224.382 266.884 215.091 257.6 203.629 257.6C192.168 257.6 182.876 266.884 182.876 278.337C182.876 289.789 192.168 299.074 203.629 299.074Z" fill="white"/>
</mask>
<g mask="url(#mask1_22_1039)">
<path fill-rule="evenodd" clip-rule="evenodd" d="M208.558 275.963C207.998 278.235 204.315 277.136 203.115 276.857L204.129 272.824C205.302 273.105 209.144 273.59 208.558 275.963ZM207.971 282.472C207.358 284.973 202.928 283.671 201.514 283.339L202.608 278.898C204.048 279.23 208.611 279.842 207.971 282.472ZM212.719 275.963C213.066 273.512 211.118 272.237 208.45 271.369L209.277 268.051L207.17 267.566L206.37 270.808C205.81 270.68 205.25 270.553 204.689 270.451L205.49 267.209L203.355 266.724L202.528 270.042C202.074 269.94 201.62 269.863 201.167 269.761L198.259 269.098L197.725 271.241C197.725 271.241 199.3 271.573 199.246 271.599C200.1 271.802 200.259 272.339 200.233 272.748L199.3 276.524C199.353 276.55 199.434 276.55 199.513 276.601C199.434 276.575 199.379 276.575 199.3 276.55L198.018 281.834C197.912 282.089 197.645 282.446 197.059 282.318C197.085 282.344 195.511 281.961 195.511 281.961L194.498 284.284L197.246 284.897C197.752 285.024 198.259 285.126 198.739 285.252L197.912 288.597L200.02 289.081L200.847 285.763C201.434 285.917 201.994 286.044 202.528 286.172L201.701 289.465L203.809 289.949L204.636 286.607C208.238 287.219 210.931 286.938 212.025 283.799C212.907 281.297 211.946 279.868 210.025 278.924C211.44 278.617 212.453 277.75 212.719 275.963Z" fill="#FEFEFE"/>
</g>
<defs>
<radialGradient id="paint0_radial_22_1039" cx="0" cy="0" r="1" gradientUnits="userSpaceOnUse" gradientTransform="translate(266.137 266.218) rotate(90) scale(265.413 265.617)">
<stop offset="0.9999" stop-color="white" stop-opacity="0.08"/>
<stop offset="1" stop-color="#1A3B8B"/>
</radialGradient>
</defs>
</svg>
