<svg width="152" height="43" viewBox="0 0 152 43" fill="none" xmlns="http://www.w3.org/2000/svg">
<g clip-path="url(#clip0)">
<path d="M109.197 18.2128H106.248V35.4484H109.197V18.2128Z" fill="white"/>
<path d="M95.9718 30.6508C95.6144 31.5393 95.0782 32.1612 94.5421 32.5166L89.9847 18.2128H86.9465L92.4868 35.6261H93.6485C95.7931 35.6261 97.759 34.2046 98.7419 31.717C99.0994 30.8285 104.014 18.2128 104.014 18.2128H100.887C100.797 18.2128 96.776 28.7851 95.9718 30.6508Z" fill="white"/>
<path d="M20.8206 18.0351C18.4973 18.0351 16.6208 18.7458 15.191 20.0785C13.6719 21.5888 12.8677 23.8987 12.8677 26.8306C12.8677 29.8512 13.6719 32.0723 15.191 33.5826C16.5314 34.9153 18.4973 35.626 20.8206 35.626C23.144 35.626 25.1099 34.9153 26.4503 33.5826C27.9694 32.0723 28.7736 29.7624 28.7736 26.8306C28.7736 23.8099 27.9694 21.5888 26.4503 20.0785C25.1099 18.7458 23.2333 18.0351 20.8206 18.0351ZM24.395 31.5392C23.5908 32.3388 22.3397 32.783 20.8206 32.783C19.3015 32.783 18.0505 32.3388 17.2463 31.5392C16.2633 30.562 15.8165 29.0516 15.8165 26.8306C15.8165 24.6983 16.2633 23.0991 17.2463 22.1219C18.0505 21.3223 19.3015 20.8781 20.8206 20.8781C22.3397 20.8781 23.5908 21.3223 24.395 22.1219C25.378 23.0991 25.8248 24.6095 25.8248 26.8306C25.9141 28.9628 25.378 30.562 24.395 31.5392Z" fill="white"/>
<path d="M116.882 13.593H113.933V18.2128H111.967V21.1446H113.933V31.4504C113.933 33.8492 115.81 35.7149 118.222 35.7149H120.367V32.8719H118.222C117.418 32.8719 116.793 32.25 116.793 31.4504V21.1446H120.367V18.2128H116.793V13.593H116.882Z" fill="white"/>
<path d="M63.3555 19.9008C63.3555 19.9008 62.9087 19.5455 62.8194 19.5455C62.6406 19.3678 62.4619 19.2789 62.1938 19.1901C61.747 18.9236 61.3896 18.7459 60.9428 18.5682C58.9769 17.8574 56.8323 17.8574 54.9558 18.657C54.1515 19.0124 53.3473 19.4566 52.7218 20.0785C51.2027 21.5889 50.3984 23.8988 50.3984 26.8306C50.3984 28.3409 50.5772 29.7624 51.0239 30.9174C51.3814 31.9835 52.0069 32.8719 52.7218 33.5827C54.0622 34.9153 56.0281 35.626 58.3514 35.626C60.496 35.626 62.1938 35.2707 63.3555 35.0041C63.2662 36.781 62.8194 38.1136 61.9258 38.9132C61.1215 39.7128 59.8705 40.0682 58.3514 40.0682C56.2961 40.0682 54.8664 39.8017 53.9728 39.4463C53.6154 39.3574 51.8282 38.5579 51.8282 38.5579L50.3984 40.9566L51.1133 41.4008C51.1133 41.4008 53.6154 42.9112 58.262 42.9112C60.5854 42.9112 62.5513 42.2004 63.8917 40.8678C65.5001 39.3574 66.215 37.0475 66.215 34.1157V18.124H63.2662V19.9008H63.3555ZM63.3555 31.8946C62.4619 32.25 60.7641 32.7831 58.3514 32.7831C56.8323 32.7831 55.5813 32.3389 54.777 31.5393C53.7941 30.562 53.3473 29.0517 53.3473 26.8306C53.3473 24.6984 53.8834 23.0992 54.777 22.1219C55.5813 21.3223 56.8323 20.8781 58.3514 20.8781C59.8705 20.8781 61.1215 21.3223 61.9258 22.1219C62.9087 23.0992 63.3555 24.6095 63.3555 26.7417V31.8946Z" fill="white"/>
<path d="M44.1433 19.1901C43.6072 18.8347 43.071 18.657 42.5349 18.4793C41.5519 18.1239 40.4796 18.0351 39.4967 18.0351C38.5137 18.0351 37.5308 18.3016 36.6372 18.657C35.9223 18.9235 35.2074 19.3677 34.5819 19.9008V18.2128H31.6331V35.4483H34.5819V26.8305C34.5819 24.6983 35.1181 23.0991 36.101 22.2107C36.9052 21.4111 38.1563 20.9669 39.6754 20.9669C41.1945 20.9669 42.4455 21.3223 43.2497 22.1219C44.2327 23.0991 44.7688 24.6983 44.7688 26.8305V35.4483H47.6283V26.8305C47.6283 23.8099 46.9135 21.5888 45.305 20.0785C44.8582 19.7231 44.5008 19.4566 44.1433 19.1901Z" fill="white"/>
<path d="M147.532 3.1095C147.89 4.97521 148.783 10.0393 143.332 13.8595C143.868 9.5062 138.775 6.75207 132.877 3.02066C131.537 2.30992 130.464 1.33264 129.75 0C129.75 0 129.392 0.444215 129.303 0.533058C129.124 0.710744 129.035 0.88843 128.945 1.06612C128.677 1.42149 128.499 1.8657 128.32 2.30992C127.962 3.19835 127.784 4.17562 127.784 5.15289C127.784 6.21901 128.141 7.19628 128.677 8.08471C129.392 9.23967 130.464 10.1281 131.537 10.8388C133.235 11.905 135.022 12.5269 136.898 13.0599C137.881 13.3264 138.775 13.593 139.668 14.126C140.473 14.5702 141.098 15.1921 141.724 15.9029C141.992 16.2583 142.26 16.6136 142.439 16.969C143.69 15.8141 145.387 14.8368 148.158 13.7707C154.681 11.1942 151.821 4.53099 147.532 3.1095Z" fill="white"/>
<path d="M136.898 20.0785C135.469 18.7458 133.592 18.0351 131.269 18.0351C128.23 18.0351 125.728 18.8347 124.477 19.2789L125.639 21.9442C126.89 21.5 128.945 20.9669 131.269 20.9669C132.788 20.9669 134.039 21.4111 134.843 22.2107C135.379 22.7438 135.737 23.4545 136.005 24.4318C134.843 24.2541 133.235 24.0764 131.269 24.0764C129.839 24.0764 128.409 24.2541 127.069 24.6983C126.711 24.876 126.265 25.0537 125.907 25.2314C124.12 26.2975 123.137 28.252 123.316 30.2954C123.405 31.8058 123.941 33.2272 125.192 34.2045C126.265 35.0041 127.605 35.4483 128.945 35.5372C130.554 35.7149 132.162 35.7148 133.681 35.1818C134.486 34.9153 135.29 34.5599 136.005 34.0268C136.094 33.938 136.273 33.8491 136.362 33.7603V35.4483H139.311V26.8306C139.311 26.2975 139.311 25.8533 139.222 25.3202C138.864 23.0991 138.149 21.3223 136.898 20.0785ZM136.273 30.4731C136.273 31.095 135.915 31.7169 135.29 31.8946C133.949 32.5165 132.698 32.783 130.911 32.783C129.481 32.783 128.23 32.5165 127.337 31.9834C126.622 31.4504 126.175 30.7396 126.175 29.7624C126.175 28.7851 126.622 28.0744 127.337 27.6301C128.23 27.0971 129.392 26.8306 130.554 26.8306C132.788 26.8306 134.039 26.9194 136.273 27.1859V30.4731Z" fill="white"/>
<path d="M77.0277 18.0351C74.7043 18.0351 72.7384 18.7458 71.398 20.0785C69.8789 21.5888 69.0747 23.8987 69.0747 26.8306C69.0747 29.7624 69.8789 32.0723 71.398 33.5826C72.1129 34.2934 73.0065 34.7376 73.9001 35.0929C74.8831 35.4483 76.0447 35.5372 77.117 35.626C78.2787 35.626 79.4404 35.5372 80.6021 35.3595C81.6744 35.1818 82.7467 34.9153 83.7296 34.471C83.9977 34.3822 84.2658 34.2045 84.5339 34.0268L83.7296 31.5392H83.6403C81.585 32.3388 79.2617 32.6053 77.0277 32.6053C76.7596 32.6053 76.4915 32.6053 76.3128 32.6053C75.4192 32.5165 74.5256 32.25 73.8107 31.7169C72.9172 31.095 72.5597 30.1177 72.2023 29.1405C72.1129 28.8739 72.0236 28.5186 72.0236 28.0744H84.9807V26.7417C84.9807 23.721 84.1764 21.5 82.6573 19.9896C81.3169 18.7458 79.4404 18.0351 77.0277 18.0351ZM72.2916 24.5206C72.381 24.2541 72.4704 23.9876 72.5597 23.721C72.6491 23.4545 72.8278 23.0991 73.0065 22.8326C73.1852 22.5661 73.364 22.2996 73.5427 22.1219C74.3469 21.3223 75.5979 20.8781 77.117 20.8781C78.6362 20.8781 79.8872 21.3223 80.6914 22.1219C81.4063 22.8326 81.8531 23.8987 82.0318 25.3202H72.1129C72.1129 25.0537 72.2023 24.7872 72.2916 24.5206Z" fill="white"/>
<path d="M7.2381 31.4504V3.2872H0V6.13018H4.3786V31.4504C4.3786 33.7603 6.3445 35.7149 8.66784 35.7149H10.8125V32.8719H8.66784C7.95297 32.8719 7.2381 32.25 7.2381 31.4504Z" fill="white"/>
</g>
<defs>
<clipPath id="clip0">
<rect width="152" height="43" fill="white"/>
</clipPath>
</defs>
</svg>
