<svg width="274" height="59" viewBox="0 0 274 59" fill="none" xmlns="http://www.w3.org/2000/svg">
<path d="M25.4679 44.4956L23.126 38.2018H9.95297L7.61108 44.4956H0L13.0267 11.2703H19.7596L33.2254 44.4956H25.4679ZM16.5395 20.0523L12.2949 31.908H20.9305L16.5395 20.0523Z" fill="white"/>
<path d="M94.1145 41.5683C91.4799 44.0565 88.2598 45.2275 84.3079 45.2275C80.3559 45.2275 77.1359 44.0565 74.5013 41.5683C71.8666 39.08 70.5493 36.0063 70.5493 32.0544V11.2703H77.7213V31.6153C77.7213 33.6644 78.3068 35.2745 79.4777 36.4454C80.6487 37.6163 82.2587 38.3483 84.1615 38.3483C86.0643 38.3483 87.6743 37.7627 88.8453 36.4454C90.0162 35.2745 90.6017 33.5181 90.6017 31.6153V11.2703H97.7737V32.0544C97.92 35.8599 96.7491 39.08 94.1145 41.5683Z" fill="white"/>
<path d="M123.973 44.4956L121.631 38.2018H108.458L106.116 44.4956H98.5054L111.532 11.2703H118.265L131.731 44.4956H123.973ZM115.045 20.0523L110.8 31.908H119.436L115.045 20.0523Z" fill="white"/>
<path d="M168.323 11.417H172.714L162.322 44.6424H158.516L149.441 21.0772L140.513 44.6424H136.854L126.169 11.417H130.56L138.903 37.7631L148.563 12.0025H150.32L160.273 37.7631L168.323 11.417Z" fill="white"/>
<path d="M197.157 11.417H201.255V44.6424H197.157V29.5666H179.885V44.6424H175.787V11.417H179.885V25.6147H197.157V11.417Z" fill="white"/>
<path d="M212.087 40.5438H227.309V44.4956H207.988V11.2703H226.723V15.2221H212.087V25.4678H225.552V29.2735H212.087V40.5438Z" fill="white"/>
<path d="M235.651 40.5438H250.874V44.4956H231.553V11.2703H250.288V15.2221H235.651V25.4678H249.117V29.2735H235.651V40.5438Z" fill="white"/>
<path d="M259.363 40.6905H274V44.6424H255.119V11.417H259.217V40.6905H259.363Z" fill="white"/>
<path d="M51.2289 38.0558C50.497 38.2022 49.7651 38.2021 49.1797 38.2021C43.4713 38.2021 38.7876 33.5184 38.7876 27.8101C38.7876 20.6381 45.9596 12.7342 49.1797 9.51413C52.3998 12.7342 59.4254 20.4917 59.4254 27.8101C59.4254 28.6883 59.279 29.5665 58.9863 30.4447V30.591L64.1092 36.7385L64.2556 36.4457C65.7192 33.8111 66.5974 30.7374 66.5974 27.8101C66.5974 13.1733 49.326 0.146576 49.1797 0.146576L49.0333 0.000244141L48.887 0.146576C48.7406 0.292943 31.4692 13.6124 31.4692 27.8101C31.4692 37.4703 39.3731 45.3742 49.0333 45.3742C51.3752 45.3742 53.5707 44.935 55.7662 44.0568L56.059 43.9105L51.2289 38.0558Z" fill="white"/>
<path d="M55.181 28.981H45.8135L60.0111 45.5205H69.3787L55.181 28.981Z" fill="white"/>
<path d="M29.1271 52.3989H29.5662V58.5464H29.1271V55.619H25.4679V58.5464H25.0288V52.3989H25.4679V55.1799H29.1271V52.3989Z" fill="white"/>
<path d="M43.0322 57.8145C42.4467 58.4 41.7149 58.6927 40.6903 58.6927C39.8121 58.6927 38.9339 58.4 38.3484 57.8145C37.763 57.2291 37.4702 56.4972 37.4702 55.619C37.4702 54.7408 37.763 54.0089 38.3484 53.2771C38.9339 52.6916 39.6657 52.3989 40.6903 52.3989C41.5685 52.3989 42.4467 52.6916 43.0322 53.2771C43.6177 53.8626 43.9104 54.5945 43.9104 55.619C43.9104 56.4972 43.6177 57.2291 43.0322 57.8145ZM40.8367 58.2536C41.4222 58.2536 41.8613 58.1072 42.3004 57.9609C42.7395 57.6681 43.0322 57.3754 43.3249 56.9363C43.6177 56.4972 43.6177 56.0581 43.6177 55.4726C43.6177 54.8871 43.4713 54.448 43.3249 54.0089C43.0322 53.5698 42.7395 53.2772 42.3004 52.9844C41.8613 52.6917 41.4222 52.6917 40.8367 52.6917C40.1049 52.6917 39.373 52.9844 38.9339 53.4235C38.4948 53.8626 38.2021 54.5944 38.2021 55.3263C38.2021 56.0581 38.4948 56.7899 38.9339 57.229C39.373 57.6681 39.9585 58.2536 40.8367 58.2536Z" fill="white"/>
<path d="M54.1559 58.6927C53.7168 58.6927 53.2776 58.5463 52.9849 58.4C52.6922 58.2536 52.3994 57.9609 52.1067 57.5218C51.9603 57.2291 51.814 56.79 51.814 56.3509V52.3989H52.253V56.2044C52.253 56.7899 52.3994 57.229 52.8385 57.6681C53.2776 58.1072 53.7168 58.2536 54.1559 58.2536C54.4486 58.2536 54.8877 58.1072 55.1804 57.9609C55.4731 57.8145 55.7659 57.5218 55.9122 57.229C56.0586 56.9363 56.205 56.6435 56.205 56.2044V52.3989H56.6441V56.3509C56.6441 57.0827 56.3513 57.6682 55.9122 58.1073C55.4731 58.5464 54.8877 58.6927 54.1559 58.6927Z" fill="white"/>
<path d="M66.5974 58.6928C65.8655 58.6928 65.4264 58.5465 64.9873 58.1074C64.5482 57.8147 64.4019 57.2292 64.4019 56.6437H64.8409C64.8409 57.0828 64.9873 57.5218 65.28 57.6682C65.5728 57.8146 66.0119 58.1074 66.5974 58.1074C67.0365 58.1074 67.4756 57.961 67.7683 57.8146C68.061 57.5219 68.2074 57.2291 68.2074 56.79C68.2074 56.6437 68.2074 56.6437 68.2074 56.4973C68.2074 56.3509 68.2074 56.3509 68.061 56.2045C67.9147 56.0582 67.9147 56.0582 67.9147 56.0582C67.9147 56.0582 67.7683 55.9119 67.6219 55.9119C67.4755 55.9119 67.4756 55.7655 67.3292 55.7655C67.3292 55.7655 67.1828 55.7655 67.0365 55.6191C66.8901 55.6191 66.7437 55.6191 66.7437 55.4727C66.5973 55.4727 66.5974 55.4727 66.451 55.4727C66.3046 55.4727 66.1582 55.4727 66.0119 55.3264C65.8655 55.3264 65.7191 55.3264 65.5728 55.18C65.4264 55.0337 65.2801 55.0336 65.1337 55.0336C64.9873 55.0336 64.9873 54.8873 64.8409 54.8873C64.6946 54.7409 64.6946 54.7409 64.5482 54.5945C64.4018 54.4482 64.4019 54.4481 64.4019 54.3018C64.4019 54.1554 64.4019 54.0091 64.4019 53.8627C64.4019 53.4236 64.5482 52.9845 64.9873 52.6918C65.4264 52.399 65.8655 52.2527 66.451 52.2527C67.0365 52.2527 67.4756 52.399 67.9147 52.6918C68.3538 52.9845 68.5001 53.4236 68.5001 54.009H68.061C68.061 53.5699 67.9146 53.2773 67.6219 52.9845C67.3292 52.6918 67.0365 52.6918 66.451 52.6918C66.1583 52.6918 65.8655 52.6917 65.5728 52.8381C65.28 52.9845 65.1337 53.1308 64.9873 53.2772C64.8409 53.4236 64.8409 53.7163 64.8409 53.8627C64.8409 54.0091 64.8409 54.1554 64.8409 54.1554C64.8409 54.1554 64.9873 54.3018 64.9873 54.4482C64.9873 54.4482 65.1337 54.5945 65.28 54.5945C65.4264 54.5945 65.4264 54.7409 65.5728 54.7409C65.5728 54.7409 65.7192 54.8873 65.8655 54.8873C66.0119 54.8873 66.1582 55.0336 66.1582 55.0336C66.1582 55.0336 66.3046 55.0337 66.5974 55.18C66.7437 55.18 66.8901 55.3264 67.0365 55.3264C67.1828 55.3264 67.3292 55.3263 67.4755 55.4727C67.6219 55.4727 67.7683 55.6191 67.9147 55.6191C68.061 55.6191 68.061 55.7655 68.2074 55.7655C68.3537 55.9118 68.3538 55.9118 68.5001 56.0582C68.6465 56.2046 68.6465 56.351 68.6465 56.351C68.6465 56.4973 68.6465 56.6437 68.6465 56.79C68.6465 57.3755 68.5001 57.8147 68.061 58.1074C67.6219 58.4001 67.1828 58.6928 66.5974 58.6928Z" fill="white"/>
<path d="M77.1359 58.1073H80.2096V58.5464H76.6968V52.3989H80.0632V52.838H77.1359V55.1799H79.7705V55.619H77.1359V58.1073Z" fill="white"/>
<path d="M92.065 52.3989H92.504V58.5464H92.065V55.619H88.2594V58.5464H87.8203V52.3989H88.2594V55.1799H91.9186V52.3989H92.065Z" fill="white"/>
<path d="M105.824 57.8145C105.238 58.4 104.506 58.6927 103.482 58.6927C102.604 58.6927 101.725 58.4 101.14 57.8145C100.554 57.2291 100.262 56.4972 100.262 55.619C100.262 54.7408 100.554 54.0089 101.14 53.2771C101.725 52.6916 102.457 52.3989 103.482 52.3989C104.36 52.3989 105.238 52.6916 105.824 53.2771C106.409 53.8626 106.702 54.5945 106.702 55.619C106.848 56.4972 106.409 57.2291 105.824 57.8145ZM103.628 58.2536C104.214 58.2536 104.653 58.1072 105.092 57.9609C105.531 57.6681 105.824 57.3754 106.116 56.9363C106.409 56.4972 106.409 56.0581 106.409 55.4726C106.409 54.8871 106.263 54.448 106.116 54.0089C105.824 53.5698 105.531 53.2772 105.092 52.9844C104.653 52.6917 104.214 52.6917 103.628 52.6917C102.896 52.6917 102.164 52.9844 101.725 53.4235C101.286 53.8626 100.994 54.5944 100.994 55.3263C100.994 56.0581 101.286 56.7899 101.725 57.229C102.164 57.6681 102.75 58.2536 103.628 58.2536Z" fill="white"/>
<path d="M115.191 58.2535H118.118V58.6926H114.752V52.5452H115.191V58.2535Z" fill="white"/>
<path d="M127.632 52.3989C128.218 52.3989 128.803 52.5453 129.242 52.838C129.682 53.1307 130.121 53.4235 130.413 54.0089C130.706 54.5944 130.852 55.0336 130.852 55.619C130.852 56.4972 130.56 57.2291 129.974 57.8145C129.389 58.4 128.657 58.6927 127.779 58.6927H125.876V52.5453H127.632V52.3989ZM127.632 58.2536C128.072 58.2536 128.364 58.2537 128.657 58.1073C128.95 57.9609 129.242 57.8145 129.535 57.5218C129.828 57.2291 129.974 56.9364 130.121 56.6436C130.267 56.3509 130.267 55.9118 130.267 55.619C130.267 54.8872 129.974 54.1554 129.535 53.7163C129.096 53.2772 128.364 52.9844 127.632 52.9844H126.169V58.2536H127.632Z" fill="white"/>
<path d="M149.441 58.6928C148.563 58.6928 147.831 58.4001 147.246 57.8146C146.66 57.2292 146.368 56.4973 146.368 55.4727C146.368 54.8872 146.514 54.3018 146.807 53.8627C147.099 53.4236 147.392 52.9845 147.978 52.6918C148.417 52.399 149.002 52.2527 149.588 52.2527C150.32 52.2527 150.905 52.399 151.344 52.8381C151.93 53.1308 152.222 53.7163 152.369 54.3018H151.93C151.783 53.8627 151.491 53.4236 151.051 53.1309C150.612 52.8381 150.173 52.6918 149.588 52.6918C149.002 52.6918 148.563 52.8382 148.27 52.9845C147.978 53.1309 147.539 53.5699 147.246 54.009C146.953 54.4481 146.953 54.8872 146.953 55.4727C146.953 56.0582 147.099 56.4973 147.246 56.9364C147.539 57.3755 147.831 57.6682 148.27 57.961C148.71 58.2537 149.149 58.2537 149.734 58.2537C150.32 58.2537 150.905 58.1074 151.198 57.8146C151.637 57.5219 151.93 57.0828 152.076 56.4973H152.515C152.369 56.9364 152.222 57.3755 151.93 57.6682C151.637 57.9609 151.344 58.2537 150.905 58.4C150.466 58.5464 150.027 58.6928 149.441 58.6928Z" fill="white"/>
<path d="M164.371 52.3989H164.81V58.5464H164.371V55.619H160.712V58.5464H160.272V52.3989H160.712V55.1799H164.371V52.3989Z" fill="white"/>
<path d="M173.592 58.1073H176.666V58.5464H173.153V52.3989H176.519V52.838H173.592V55.1799H176.227V55.619H173.592V58.1073Z" fill="white"/>
<path d="M191.595 58.5464H191.156L190.278 53.1308L187.936 58.2536H187.79L185.448 53.1308L184.569 58.5464H184.13L185.155 52.3989H185.594L187.79 57.5218L189.985 52.3989H190.424L191.595 58.5464Z" fill="white"/>
<path d="M199.499 58.5464V52.3989H199.938V58.5464H199.499Z" fill="white"/>
<path d="M211.062 58.6928C210.184 58.6928 209.452 58.4001 208.867 57.8146C208.281 57.2292 207.988 56.4973 207.988 55.4727C207.988 54.8872 208.135 54.3018 208.427 53.8627C208.72 53.4236 209.013 52.9845 209.598 52.6918C210.037 52.399 210.623 52.2527 211.208 52.2527C211.94 52.2527 212.526 52.399 212.965 52.8381C213.55 53.1308 213.843 53.7163 213.989 54.3018H213.55C213.404 53.8627 213.111 53.4236 212.672 53.1309C212.233 52.8381 211.794 52.6918 211.208 52.6918C210.623 52.6918 210.184 52.8382 209.891 52.9845C209.598 53.1309 209.159 53.5699 208.867 54.009C208.574 54.4481 208.574 54.8872 208.574 55.4727C208.574 56.0582 208.72 56.4973 208.867 56.9364C209.159 57.3755 209.452 57.6682 209.891 57.961C210.33 58.2537 210.769 58.2537 211.355 58.2537C211.94 58.2537 212.526 58.1074 212.818 57.8146C213.257 57.5219 213.55 57.0828 213.697 56.4973H214.136C213.989 56.9364 213.843 57.3755 213.55 57.6682C213.257 57.9609 212.965 58.2537 212.526 58.4C211.94 58.5464 211.501 58.6928 211.062 58.6928Z" fill="white"/>
<path d="M226.138 58.5464L225.406 56.79H222.186L221.454 58.5464H221.015L223.65 52.3989H224.089L226.723 58.5464H226.138ZM223.796 53.1308L222.332 56.6436H225.26L223.796 53.1308Z" fill="white"/>
<path d="M234.627 58.2535H237.554V58.6926H234.188V52.5452H234.627V58.2535Z" fill="white"/>
<path d="M246.922 58.6928C246.19 58.6928 245.751 58.5465 245.312 58.1074C244.873 57.8147 244.727 57.2292 244.727 56.6437H245.166C245.166 57.0828 245.312 57.5218 245.605 57.6682C245.897 57.8146 246.337 58.1074 246.922 58.1074C247.361 58.1074 247.8 57.961 248.093 57.8146C248.386 57.5219 248.532 57.2291 248.532 56.79C248.532 56.6437 248.532 56.6437 248.532 56.4973C248.532 56.3509 248.532 56.3509 248.386 56.2045C248.239 56.0582 248.239 56.0582 248.239 56.0582C248.239 56.0582 248.093 55.9119 247.947 55.9119C247.8 55.9119 247.8 55.7655 247.654 55.7655C247.654 55.7655 247.508 55.7655 247.361 55.6191C247.215 55.6191 247.068 55.6191 247.068 55.4727C246.922 55.4727 246.922 55.4727 246.776 55.4727C246.629 55.4727 246.483 55.4727 246.337 55.3264C246.19 55.3264 246.044 55.3264 245.897 55.18C245.751 55.0337 245.605 55.0336 245.458 55.0336C245.312 55.0336 245.312 54.8873 245.166 54.8873C245.019 54.7409 245.019 54.7409 244.873 54.5945C244.727 54.4482 244.727 54.4481 244.727 54.3018C244.727 54.1554 244.727 54.0091 244.727 53.8627C244.727 53.4236 244.873 52.9845 245.312 52.6918C245.751 52.399 246.19 52.2527 246.776 52.2527C247.361 52.2527 247.8 52.399 248.239 52.6918C248.678 52.9845 248.825 53.4236 248.825 54.009H248.386C248.386 53.5699 248.239 53.2773 247.947 52.9845C247.654 52.6918 247.361 52.6918 246.776 52.6918C246.483 52.6918 246.19 52.6917 245.897 52.8381C245.605 52.9845 245.458 53.1308 245.312 53.2772C245.166 53.4236 245.166 53.7163 245.166 53.8627C245.166 54.0091 245.166 54.1554 245.166 54.1554C245.166 54.1554 245.312 54.3018 245.312 54.4482C245.312 54.4482 245.458 54.5945 245.605 54.5945C245.751 54.5945 245.751 54.7409 245.897 54.7409C245.897 54.7409 246.044 54.8873 246.19 54.8873C246.337 54.8873 246.483 55.0336 246.483 55.0336C246.483 55.0336 246.629 55.0337 246.922 55.18C247.068 55.18 247.215 55.3264 247.361 55.3264C247.508 55.3264 247.654 55.3263 247.8 55.4727C247.947 55.4727 248.093 55.6191 248.239 55.6191C248.386 55.6191 248.386 55.7655 248.532 55.7655C248.678 55.9118 248.678 55.9118 248.825 56.0582C248.971 56.2046 248.971 56.351 248.971 56.351C248.971 56.4973 248.971 56.6437 248.971 56.79C248.971 57.3755 248.825 57.8147 248.386 58.1074C247.947 58.4001 247.508 58.6928 246.922 58.6928Z" fill="white"/>
</svg>
