<svg width="161" height="36" viewBox="0 0 161 36" fill="none" xmlns="http://www.w3.org/2000/svg">
<path d="M14.9647 26.9013L13.5887 23.2032H5.84828L4.47221 26.9013H0L7.65437 7.37842H11.6106L19.523 26.9013H14.9647ZM9.71847 12.5387L7.22435 19.505H12.2986L9.71847 12.5387Z" fill="#43ACDF"/>
<path d="M55.2998 25.1813C53.7517 26.6433 51.8596 27.3314 49.5375 27.3314C47.2154 27.3314 45.3233 26.6433 43.7753 25.1813C42.2272 23.7192 41.4531 21.9131 41.4531 19.591V7.37842H45.6673V19.333C45.6673 20.537 46.0114 21.4831 46.6994 22.1711C47.3874 22.8591 48.3335 23.2892 49.4515 23.2892C50.5696 23.2892 51.5156 22.9451 52.2037 22.1711C52.8917 21.4831 53.2357 20.451 53.2357 19.333V7.37842H57.4499V19.591C57.5359 21.8271 56.8479 23.7192 55.2998 25.1813Z" fill="#43ACDF"/>
<path d="M72.8456 26.9013L71.4695 23.2032H63.7291L62.3531 26.9013H57.8809L65.5353 7.37842H69.4914L77.4038 26.9013H72.8456ZM67.5993 12.5387L65.1052 19.505H70.1795L67.5993 12.5387Z" fill="#43ACDF"/>
<path d="M98.9059 7.46448H101.486L95.3797 26.9875H93.1436L87.8114 13.1407L82.5651 26.9875H80.415L74.1367 7.46448H76.7168L81.619 22.9452L87.2954 7.80852H88.3274L94.1757 22.9452L98.9059 7.46448Z" fill="#43ACDF"/>
<path d="M115.848 7.46448H118.256V26.9875H115.848V18.129H105.699V26.9875H103.291V7.46448H105.699V15.8069H115.848V7.46448Z" fill="#43ACDF"/>
<path d="M124.621 24.5793H133.565V26.9013H122.213V7.37842H133.221V9.70049H124.621V15.7208H132.533V17.9569H124.621V24.5793Z" fill="#43ACDF"/>
<path d="M138.467 24.5793H147.411V26.9013H136.059V7.37842H147.067V9.70049H138.467V15.7208H146.379V17.9569H138.467V24.5793Z" fill="#43ACDF"/>
<path d="M152.398 24.6653H160.999V26.9875H149.904V7.46448H152.312V24.6653H152.398Z" fill="#43ACDF"/>
<path d="M30.1008 23.1172C29.6708 23.2032 29.2407 23.2032 28.8967 23.2032C25.5426 23.2032 22.7904 20.4511 22.7904 17.0969C22.7904 12.8827 27.0046 8.23847 28.8967 6.34638C30.7888 8.23847 34.917 12.7967 34.917 17.0969C34.917 17.6129 34.831 18.129 34.659 18.645V18.731L37.6692 22.3432L37.7552 22.1711C38.6152 20.6231 39.1313 18.817 39.1313 17.0969C39.1313 8.49649 28.9827 0.842087 28.8967 0.842087L28.8107 0.756104L28.7247 0.842087C28.6387 0.928091 18.4902 8.7545 18.4902 17.0969C18.4902 22.7732 23.1345 27.4174 28.8107 27.4174C30.1868 27.4174 31.4769 27.1594 32.7669 26.6434L32.9389 26.5574L30.1008 23.1172Z" fill="#43ACDF"/>
<path d="M32.4242 17.7849H26.9199L35.2623 27.5034H40.7666L32.4242 17.7849Z" fill="#43ACDF"/>
<path d="M17.1132 31.5455H17.3712V35.1577H17.1132V33.4376H14.9631V35.1577H14.7051V31.5455H14.9631V33.1796H17.1132V31.5455Z" fill="#43ACDF"/>
<path d="M25.2838 34.7277C24.9398 35.0717 24.5098 35.2437 23.9077 35.2437C23.3917 35.2437 22.8757 35.0717 22.5317 34.7277C22.1876 34.3837 22.0156 33.9537 22.0156 33.4376C22.0156 32.9216 22.1876 32.4916 22.5317 32.0615C22.8757 31.7175 23.3057 31.5455 23.9077 31.5455C24.4238 31.5455 24.9398 31.7175 25.2838 32.0615C25.6278 32.4056 25.7998 32.8356 25.7998 33.4376C25.7998 33.9537 25.6278 34.3837 25.2838 34.7277ZM23.9937 34.9857C24.3378 34.9857 24.5958 34.8997 24.8538 34.8137C25.1118 34.6417 25.2838 34.4697 25.4558 34.2116C25.6278 33.9536 25.6278 33.6956 25.6278 33.3516C25.6278 33.0076 25.5418 32.7496 25.4558 32.4916C25.2838 32.2335 25.1118 32.0616 24.8538 31.8896C24.5958 31.7176 24.3378 31.7176 23.9937 31.7176C23.5637 31.7176 23.1337 31.8896 22.8757 32.1476C22.6177 32.4056 22.4456 32.8356 22.4456 33.2656C22.4456 33.6956 22.6177 34.1256 22.8757 34.3837C23.1337 34.6417 23.4777 34.9857 23.9937 34.9857Z" fill="#43ACDF"/>
<path d="M31.8194 35.2437C31.5614 35.2437 31.3034 35.1577 31.1314 35.0717C30.9594 34.9857 30.7874 34.8137 30.6154 34.5557C30.5293 34.3837 30.4434 34.1257 30.4434 33.8677V31.5455H30.7014V33.7816C30.7014 34.1256 30.7874 34.3837 31.0454 34.6417C31.3034 34.8997 31.5614 34.9857 31.8194 34.9857C31.9914 34.9857 32.2494 34.8997 32.4214 34.8137C32.5935 34.7277 32.7655 34.5557 32.8515 34.3837C32.9375 34.2117 33.0235 34.0396 33.0235 33.7816V31.5455H33.2815V33.8677C33.2815 34.2977 33.1095 34.6417 32.8515 34.8997C32.5935 35.1577 32.2495 35.2437 31.8194 35.2437Z" fill="#43ACDF"/>
<path d="M39.1299 35.2438C38.6999 35.2438 38.4419 35.1578 38.1839 34.8998C37.9258 34.7278 37.8398 34.3837 37.8398 34.0397H38.0978C38.0978 34.2977 38.1838 34.5557 38.3558 34.6417C38.5279 34.7277 38.7859 34.8998 39.1299 34.8998C39.3879 34.8998 39.6459 34.8138 39.8179 34.7277C39.9899 34.5557 40.0759 34.3837 40.0759 34.1257C40.0759 34.0397 40.0759 34.0397 40.0759 33.9537C40.0759 33.8677 40.076 33.8677 39.99 33.7817C39.9039 33.6957 39.9039 33.6957 39.9039 33.6957C39.9039 33.6957 39.8179 33.6097 39.7319 33.6097C39.6459 33.6097 39.6459 33.5237 39.5599 33.5237C39.5599 33.5237 39.4739 33.5237 39.3879 33.4377C39.3019 33.4377 39.2159 33.4377 39.2159 33.3516C39.1299 33.3516 39.1299 33.3516 39.0439 33.3516C38.9579 33.3516 38.8719 33.3517 38.7859 33.2657C38.6999 33.2657 38.6139 33.2657 38.5279 33.1797C38.4419 33.0937 38.3559 33.0936 38.2699 33.0936C38.1839 33.0936 38.1839 33.0077 38.0978 33.0077C38.0118 32.9217 38.0118 32.9216 37.9258 32.8356C37.8398 32.7496 37.8398 32.7496 37.8398 32.6636C37.8398 32.5776 37.8398 32.4916 37.8398 32.4056C37.8398 32.1476 37.9258 31.8896 38.1839 31.7176C38.4419 31.5456 38.6999 31.4596 39.0439 31.4596C39.3879 31.4596 39.6459 31.5456 39.9039 31.7176C40.162 31.8896 40.248 32.1476 40.248 32.4916H39.99C39.99 32.2336 39.9039 32.0616 39.7319 31.8896C39.5599 31.7176 39.3879 31.7176 39.0439 31.7176C38.8719 31.7176 38.6999 31.7176 38.5279 31.8036C38.3559 31.8896 38.2699 31.9756 38.1839 32.0616C38.0979 32.1476 38.0978 32.3196 38.0978 32.4056C38.0978 32.4916 38.0978 32.5776 38.0978 32.5776C38.0978 32.5776 38.1839 32.6637 38.1839 32.7497C38.1839 32.7497 38.2698 32.8356 38.3558 32.8356C38.4419 32.8356 38.4419 32.9216 38.5279 32.9216C38.5279 32.9216 38.6139 33.0077 38.6999 33.0077C38.7859 33.0077 38.8719 33.0936 38.8719 33.0936C38.8719 33.0936 38.9579 33.0937 39.1299 33.1797C39.2159 33.1797 39.3019 33.2657 39.3879 33.2657C39.4739 33.2657 39.5599 33.2656 39.6459 33.3516C39.7319 33.3516 39.8179 33.4377 39.9039 33.4377C39.9899 33.4377 39.9899 33.5237 40.0759 33.5237C40.1619 33.6097 40.1619 33.6097 40.248 33.6957C40.334 33.7817 40.334 33.8677 40.334 33.8677C40.334 33.9537 40.334 34.0397 40.334 34.1257C40.334 34.4697 40.248 34.7278 39.99 34.8998C39.7319 35.0718 39.4739 35.2438 39.1299 35.2438Z" fill="#43ACDF"/>
<path d="M45.3225 34.8997H47.1286V35.1577H45.0645V31.5455H47.0425V31.8035H45.3225V33.1796H46.8705V33.4376H45.3225V34.8997Z" fill="#43ACDF"/>
<path d="M54.0957 31.5455H54.3537V35.1577H54.0957V33.4376H51.8596V35.1577H51.6016V31.5455H51.8596V33.1796H54.0097V31.5455H54.0957Z" fill="#43ACDF"/>
<path d="M62.1803 34.7277C61.8362 35.0717 61.4062 35.2437 60.8042 35.2437C60.2882 35.2437 59.7721 35.0717 59.4281 34.7277C59.0841 34.3837 58.9121 33.9537 58.9121 33.4376C58.9121 32.9216 59.0841 32.4916 59.4281 32.0615C59.7721 31.7175 60.2022 31.5455 60.8042 31.5455C61.3202 31.5455 61.8362 31.7175 62.1803 32.0615C62.5243 32.4056 62.6963 32.8356 62.6963 33.4376C62.7823 33.9537 62.5243 34.3837 62.1803 34.7277ZM60.8902 34.9857C61.2342 34.9857 61.4922 34.8997 61.7502 34.8137C62.0083 34.6417 62.1803 34.4697 62.3523 34.2116C62.5243 33.9536 62.5243 33.6956 62.5243 33.3516C62.5243 33.0076 62.4383 32.7496 62.3523 32.4916C62.1803 32.2335 62.0083 32.0616 61.7502 31.8896C61.4922 31.7176 61.2342 31.7176 60.8902 31.7176C60.4602 31.7176 60.0302 31.8896 59.7722 32.1476C59.5141 32.4056 59.3421 32.8356 59.3421 33.2656C59.3421 33.6956 59.5141 34.1256 59.7722 34.3837C60.0302 34.6417 60.3742 34.9857 60.8902 34.9857Z" fill="#43ACDF"/>
<path d="M67.6838 34.9858H69.4039V35.2438H67.4258V31.6316H67.6838V34.9858Z" fill="#43ACDF"/>
<path d="M74.995 31.5455C75.339 31.5455 75.683 31.6315 75.941 31.8035C76.199 31.9755 76.457 32.1475 76.629 32.4916C76.801 32.8356 76.887 33.0936 76.887 33.4376C76.887 33.9537 76.715 34.3837 76.371 34.7277C76.027 35.0717 75.597 35.2437 75.0809 35.2437H73.9629V31.6315H74.995V31.5455ZM74.995 34.9857C75.253 34.9857 75.4249 34.9857 75.5969 34.8997C75.7689 34.8137 75.941 34.7277 76.113 34.5557C76.285 34.3837 76.371 34.2117 76.457 34.0397C76.543 33.8677 76.543 33.6096 76.543 33.4376C76.543 33.0076 76.371 32.5776 76.113 32.3196C75.855 32.0616 75.425 31.8896 74.995 31.8896H74.1349V34.9857H74.995Z" fill="#43ACDF"/>
<path d="M87.808 35.2438C87.292 35.2438 86.862 35.0718 86.518 34.7277C86.1739 34.3837 86.002 33.9537 86.002 33.3516C86.002 33.0076 86.0879 32.6636 86.26 32.4056C86.432 32.1476 86.604 31.8896 86.948 31.7176C87.206 31.5456 87.55 31.4596 87.8941 31.4596C88.3241 31.4596 88.6681 31.5456 88.9261 31.8036C89.2701 31.9756 89.4421 32.3196 89.5281 32.6636H89.2701C89.1841 32.4056 89.0121 32.1476 88.7541 31.9756C88.4961 31.8036 88.2381 31.7176 87.8941 31.7176C87.55 31.7176 87.292 31.8036 87.12 31.8896C86.948 31.9756 86.69 32.2336 86.518 32.4916C86.3459 32.7496 86.3459 33.0076 86.3459 33.3516C86.3459 33.6957 86.432 33.9537 86.518 34.2117C86.69 34.4697 86.862 34.6417 87.12 34.8137C87.378 34.9857 87.636 34.9857 87.98 34.9857C88.3241 34.9857 88.6681 34.8998 88.8401 34.7277C89.0981 34.5557 89.2701 34.2977 89.3561 33.9537H89.6141C89.5281 34.2117 89.4421 34.4697 89.2701 34.6417C89.0981 34.8137 88.9261 34.9857 88.6681 35.0717C88.4101 35.1577 88.152 35.2438 87.808 35.2438Z" fill="#43ACDF"/>
<path d="M96.58 31.5455H96.838V35.1577H96.58V33.4376H94.4299V35.1577H94.1719V31.5455H94.4299V33.1796H96.58V31.5455Z" fill="#43ACDF"/>
<path d="M102 34.8997H103.806V35.1577H101.742V31.5455H103.72V31.8035H102V33.1796H103.548V33.4376H102V34.8997Z" fill="#43ACDF"/>
<path d="M112.578 35.1577H112.32L111.804 31.9756L110.427 34.9857H110.342L108.965 31.9756L108.449 35.1577H108.191L108.793 31.5455H109.051L110.342 34.5557L111.632 31.5455H111.89L112.578 35.1577Z" fill="#43ACDF"/>
<path d="M117.223 35.1577V31.5455H117.481V35.1577H117.223Z" fill="#43ACDF"/>
<path d="M124.017 35.2438C123.501 35.2438 123.071 35.0718 122.727 34.7277C122.383 34.3837 122.211 33.9537 122.211 33.3516C122.211 33.0076 122.297 32.6636 122.469 32.4056C122.641 32.1476 122.813 31.8896 123.157 31.7176C123.415 31.5456 123.759 31.4596 124.103 31.4596C124.533 31.4596 124.877 31.5456 125.135 31.8036C125.479 31.9756 125.651 32.3196 125.737 32.6636H125.479C125.393 32.4056 125.221 32.1476 124.963 31.9756C124.705 31.8036 124.447 31.7176 124.103 31.7176C123.759 31.7176 123.501 31.8036 123.329 31.8896C123.157 31.9756 122.899 32.2336 122.727 32.4916C122.555 32.7496 122.555 33.0076 122.555 33.3516C122.555 33.6957 122.641 33.9537 122.727 34.2117C122.899 34.4697 123.071 34.6417 123.329 34.8137C123.587 34.9857 123.845 34.9857 124.189 34.9857C124.533 34.9857 124.877 34.8998 125.049 34.7277C125.307 34.5557 125.479 34.2977 125.565 33.9537H125.823C125.737 34.2117 125.651 34.4697 125.479 34.6417C125.307 34.8137 125.135 34.9857 124.877 35.0717C124.533 35.1577 124.275 35.2438 124.017 35.2438Z" fill="#43ACDF"/>
<path d="M132.875 35.1577L132.445 34.1257H130.553L130.123 35.1577H129.865L131.413 31.5455H131.671L133.219 35.1577H132.875ZM131.499 31.9756L130.639 34.0397H132.359L131.499 31.9756Z" fill="#43ACDF"/>
<path d="M137.863 34.9858H139.584V35.2438H137.605V31.6316H137.863V34.9858Z" fill="#43ACDF"/>
<path d="M145.087 35.2438C144.657 35.2438 144.399 35.1578 144.141 34.8998C143.883 34.7278 143.797 34.3837 143.797 34.0397H144.055C144.055 34.2977 144.141 34.5557 144.313 34.6417C144.485 34.7277 144.743 34.8998 145.087 34.8998C145.345 34.8998 145.603 34.8138 145.775 34.7277C145.947 34.5557 146.033 34.3837 146.033 34.1257C146.033 34.0397 146.033 34.0397 146.033 33.9537C146.033 33.8677 146.033 33.8677 145.947 33.7817C145.861 33.6957 145.861 33.6957 145.861 33.6957C145.861 33.6957 145.775 33.6097 145.689 33.6097C145.603 33.6097 145.603 33.5237 145.517 33.5237C145.517 33.5237 145.431 33.5237 145.345 33.4377C145.259 33.4377 145.173 33.4377 145.173 33.3516C145.087 33.3516 145.087 33.3516 145.001 33.3516C144.915 33.3516 144.829 33.3517 144.743 33.2657C144.657 33.2657 144.571 33.2657 144.485 33.1797C144.399 33.0937 144.313 33.0936 144.227 33.0936C144.141 33.0936 144.141 33.0077 144.055 33.0077C143.969 32.9217 143.969 32.9216 143.883 32.8356C143.797 32.7496 143.797 32.7496 143.797 32.6636C143.797 32.5776 143.797 32.4916 143.797 32.4056C143.797 32.1476 143.883 31.8896 144.141 31.7176C144.399 31.5456 144.657 31.4596 145.001 31.4596C145.345 31.4596 145.603 31.5456 145.861 31.7176C146.119 31.8896 146.205 32.1476 146.205 32.4916H145.947C145.947 32.2336 145.861 32.0616 145.689 31.8896C145.517 31.7176 145.345 31.7176 145.001 31.7176C144.829 31.7176 144.657 31.7176 144.485 31.8036C144.313 31.8896 144.227 31.9756 144.141 32.0616C144.055 32.1476 144.055 32.3196 144.055 32.4056C144.055 32.4916 144.055 32.5776 144.055 32.5776C144.055 32.5776 144.141 32.6637 144.141 32.7497C144.141 32.7497 144.227 32.8356 144.313 32.8356C144.399 32.8356 144.399 32.9216 144.485 32.9216C144.485 32.9216 144.571 33.0077 144.657 33.0077C144.743 33.0077 144.829 33.0936 144.829 33.0936C144.829 33.0936 144.915 33.0937 145.087 33.1797C145.173 33.1797 145.259 33.2657 145.345 33.2657C145.431 33.2657 145.517 33.2656 145.603 33.3516C145.689 33.3516 145.775 33.4377 145.861 33.4377C145.947 33.4377 145.947 33.5237 146.033 33.5237C146.119 33.6097 146.119 33.6097 146.205 33.6957C146.291 33.7817 146.291 33.8677 146.291 33.8677C146.291 33.9537 146.291 34.0397 146.291 34.1257C146.291 34.4697 146.205 34.7278 145.947 34.8998C145.689 35.0718 145.431 35.2438 145.087 35.2438Z" fill="#43ACDF"/>
</svg>
