<svg width="48" height="31" viewBox="0 0 48 31" fill="none" xmlns="http://www.w3.org/2000/svg">
<path d="M48 0H0V31H48V0Z" fill="#D80027"/>
<path d="M22.4528 12.3672L24.0507 14.5692L26.6385 13.7301L25.0381 15.9302L26.6359 18.132L24.0489 17.2897L22.4486 19.4899L22.4502 16.7693L19.8633 15.927L22.4511 15.0879L22.4528 12.3672Z" fill="#F0F0F0"/>
<path d="M18.0939 21.4342C15.0542 21.4342 12.59 18.9699 12.59 15.9303C12.59 12.8906 15.0542 10.4264 18.0939 10.4264C19.0417 10.4264 19.9334 10.666 20.712 11.0879C19.4906 9.89344 17.8202 9.15625 15.9771 9.15625C12.2359 9.15625 9.20312 12.1891 9.20312 15.9302C9.20312 19.6712 12.236 22.7041 15.9771 22.7041C17.8202 22.7041 19.4906 21.9669 20.712 20.7724C19.9335 21.1945 19.0417 21.4342 18.0939 21.4342Z" fill="#F0F0F0"/>
</svg>
