<svg width="100" height="94" fill="none" xmlns="http://www.w3.org/2000/svg"><path d="M64.546 37.775l-1.554 14.458a4.85 4.85 0 01-4.821 4.33H41.829a4.85 4.85 0 01-4.82-4.33l-1.555-14.458h29.092z" fill="#998DC4"/><g opacity=".726" fill="#fff"><mask id="a"><path fill-rule="evenodd" clip-rule="evenodd" d="M12.083 24.062c0-.92.747-1.666 1.667-1.666h11.667a1.667 1.667 0 010 3.333H13.75c-.92 0-1.667-.746-1.667-1.667zm1.667 12.084h5.417a1.667 1.667 0 000-3.334H13.75a1.667 1.667 0 000 3.334zm32.15-7.894a1.667 1.667 0 00-1.919 1.37l-1.082 6.486h-9.774a1.667 1.667 0 000 3.333h9.218l-.452 2.706a1.667 1.667 0 103.288.548l.543-3.254h8.556l.543 3.254a1.667 1.667 0 103.287-.548l-.451-2.706h5.033l-1.356 12.613a3.176 3.176 0 01-3.164 2.842H41.83a3.177 3.177 0 01-3.164-2.842l-.545-5.064a1.667 1.667 0 10-3.314.356l.544 5.065a6.504 6.504 0 006.478 5.818h16.34a6.504 6.504 0 006.478-5.818l1.395-12.97h.833a1.667 1.667 0 000-3.333h-9.774l-1.082-6.486a1.667 1.667 0 00-3.288.548l.99 5.938h-7.443l.991-5.938a1.667 1.667 0 00-1.37-1.918zM93.332.104H6.667A6.674 6.674 0 000 6.771v5.139c0 .92.746 1.666 1.667 1.666h86.25a1.667 1.667 0 000-3.333H3.333V6.771a3.337 3.337 0 013.334-3.334h86.666a3.337 3.337 0 013.334 3.334v62.708a3.337 3.337 0 01-3.334 3.333H69.375a1.667 1.667 0 000 3.334h23.958A6.674 6.674 0 00100 69.479V6.771A6.674 6.674 0 0093.333.104zm-33.75 74.375c0-.92-.746-1.667-1.666-1.667H6.667a3.337 3.337 0 01-3.334-3.333V23.021a1.667 1.667 0 00-3.333 0v46.458a6.674 6.674 0 006.667 6.667h51.25c.92 0 1.666-.747 1.666-1.667zM73.83 89.971c-3.581-1.114-7.137-1.88-10.492-2.398l-2.012-7.14a1.666 1.666 0 10-3.208.903l1.623 5.76a89.175 89.175 0 00-19.35-.015l1.563-5.76a1.667 1.667 0 10-3.217-.873l-1.927 7.103c-4.382.673-7.966 1.589-10.637 2.42a1.667 1.667 0 10.99 3.183c13.655-4.248 31.471-4.42 45.676 0a1.667 1.667 0 10.99-3.183z"/></mask><path d="M43.981 29.622l.986.164-.986-.165zm-1.082 6.486v1h.847l.14-.835-.987-.165zm-.556 3.333l.986.165.195-1.165h-1.181v1zm-.452 2.706l.987.165-.986-.165zm1.37 1.918l-.165.986.165-.986zm1.918-1.37l-.986-.164.986.164zm.543-3.254v-1h-.847l-.14.836.987.164zm8.556 0l.986-.164-.14-.836h-.846v1zm.543 3.254l.986-.164-.986.164zm1.918 1.37l.164.986-.164-.986zm1.37-1.918l-.987.164.986-.164zm-.452-2.706v-1h-1.18l.194 1.165.986-.165zm5.033 0l.994.107.12-1.107H62.69v1zm-1.356 12.613l-.995-.107.995.107zm-22.668 0l-.995.107.995-.107zm-.545-5.064l.994-.106-.994.106zm-1.835-1.479l.107.995-.107-.995zm-1.48 1.836l-.993.107.994-.107zm.545 5.064l-.994.107.994-.107zm29.296 0l.995.107-.995-.107zm1.395-12.97v-1h-.898l-.096.894.994.106zm-8.941-3.333l-.986.165.139.835h.847v-1zm-1.082-6.486l-.986.164.986-.164zm-1.918-1.37l-.164-.986.164.986zm-1.37 1.918l.987-.164-.987.164zm.99 5.938v1h1.182l-.195-1.164-.986.164zm-7.443 0l-.986-.164-.194 1.164h1.18v-1zm.991-5.938l.986.165-.986-.165zM93.333.104v-1 1zm-90 10.139h-1v1h1v-1zm60.004 77.33l-.963.271.174.619.636.098.153-.988zm-2.012-7.14l-.962.27.962-.27zM59.27 79.28l.272.963-.272-.963zm-1.152 2.056l-.962.271.962-.27zm1.623 5.76l-.11.995 1.475.163-.403-1.428-.962.27zm-19.35-.015l-.965-.262-.384 1.416 1.458-.16-.109-.994zm1.563-5.76l.965.262-.965-.262zm-1.172-2.045l-.261.965.261-.965zm-2.044 1.172l.965.262-.965-.262zm-1.928 7.103l.151.988.643-.099.17-.627-.965-.262zm-10.637 2.42l-.297-.955.297.955zm-1.097 2.087l-.954.296.954-.296zm2.087 1.096l-.297-.955.297.955zm45.676 0l.297-.955-.297.955zm2.087-1.096l.955.297-.955-.297zM13.083 24.062c0-.368.299-.666.667-.666v-2a2.667 2.667 0 00-2.667 2.666h2zm.667-.666h11.667v-2H13.75v2zm11.667 0c.368 0 .666.298.666.666h2a2.667 2.667 0 00-2.666-2.666v2zm.666.666a.667.667 0 01-.666.667v2a2.667 2.667 0 002.666-2.667h-2zm-.666.667H13.75v2h11.667v-2zm-11.667 0a.667.667 0 01-.667-.667h-2a2.667 2.667 0 002.667 2.667v-2zm0 12.417h5.417v-2H13.75v2zm5.417 0a2.667 2.667 0 002.666-2.667h-2a.667.667 0 01-.666.667v2zm2.666-2.667a2.667 2.667 0 00-2.666-2.667v2c.368 0 .666.299.666.667h2zm-2.666-2.667H13.75v2h5.417v-2zm-5.417 0a2.667 2.667 0 00-2.667 2.667h2c0-.368.299-.667.667-.667v-2zm-2.667 2.667a2.667 2.667 0 002.667 2.667v-2a.667.667 0 01-.667-.667h-2zm34.98-7.214a2.667 2.667 0 00-3.068 2.192l1.972.329a.667.667 0 01.767-.548l.33-1.973zm-3.068 2.192l-1.082 6.486 1.972.33 1.082-6.487-1.972-.329zm-.096 5.651h-9.774v2h9.774v-2zm-9.774 0a2.667 2.667 0 00-2.667 2.667h2c0-.368.299-.667.667-.667v-2zm-2.667 2.667a2.667 2.667 0 002.667 2.666v-2a.667.667 0 01-.667-.666h-2zm2.667 2.666h9.218v-2h-9.218v2zm8.232-1.164l-.452 2.705 1.973.33.451-2.706-1.972-.33zm-.452 2.705a2.667 2.667 0 002.191 3.07l.33-1.973a.667.667 0 01-.548-.767l-1.973-.33zm2.192 3.07a2.666 2.666 0 003.069-2.192l-1.973-.33a.667.667 0 01-.767.549l-.33 1.972zm3.069-2.192l.543-3.254-1.973-.33-.543 3.255 1.973.329zm-.444-2.419h8.556v-2h-8.556v2zm7.57-.835l.542 3.254 1.973-.33-.543-3.253-1.973.329zm.542 3.254a2.666 2.666 0 003.07 2.191l-.33-1.972a.666.666 0 01-.767-.548l-1.973.329zm3.07 2.191a2.667 2.667 0 002.19-3.07l-1.972.33a.667.667 0 01-.548.768l.33 1.972zm2.19-3.069l-.45-2.705-1.974.329.452 2.705 1.973-.329zm-1.437-1.54h5.033v-2h-5.033v2zm4.039-1.108l-1.357 12.613 1.989.214 1.356-12.613-1.988-.214zm-1.357 12.613a2.176 2.176 0 01-2.17 1.949v2a4.177 4.177 0 004.159-3.735l-1.989-.214zm-2.17 1.949H41.83v2h16.34v-2zm-16.34 0a2.176 2.176 0 01-2.17-1.949l-1.988.214a4.176 4.176 0 004.158 3.735v-2zm-2.17-1.949l-.544-5.063-1.988.213.544 5.064 1.989-.214zm-.544-5.064a2.664 2.664 0 00-2.936-2.366l.214 1.989a.664.664 0 01.734.591l1.988-.214zm-2.936-2.366a2.667 2.667 0 00-2.366 2.937l1.988-.214a.667.667 0 01.592-.734l-.214-1.989zm-2.366 2.937l.544 5.064 1.989-.214-.545-5.064-1.988.214zm.544 5.064a7.504 7.504 0 007.472 6.711v-2a5.504 5.504 0 01-5.483-4.925l-1.989.214zm7.472 6.711h16.34v-2H41.83v2zm16.34 0a7.504 7.504 0 007.473-6.711l-1.989-.214a5.504 5.504 0 01-5.483 4.925v2zm7.473-6.711l1.394-12.97-1.988-.213-1.395 12.969 1.989.214zm.4-12.077h.833v-2h-.833v2zm.833 0a2.667 2.667 0 002.667-2.666h-2a.667.667 0 01-.667.666v2zm2.667-2.666a2.667 2.667 0 00-2.667-2.667v2c.368 0 .667.299.667.667h2zm-2.667-2.667h-9.774v2h9.774v-2zm-8.788.836l-1.082-6.487-1.972.33 1.082 6.486 1.972-.33zm-1.082-6.487a2.667 2.667 0 00-3.068-2.192l.328 1.973a.667.667 0 01.768.548l1.972-.329zm-3.069-2.191a2.667 2.667 0 00-2.191 3.069l1.973-.33a.667.667 0 01.547-.767l-.329-1.972zm-2.191 3.069l.99 5.938 1.973-.33-.99-5.937-1.973.329zm1.977 4.773h-7.444v2h7.444v-2zm-6.457 1.165l.99-5.938-1.972-.33-.991 5.939 1.973.329zm.99-5.938a2.667 2.667 0 00-2.191-3.07l-.33 1.973c.364.06.61.404.549.768l1.972.329zM93.333-.896H6.667v2h86.666v-2zm-86.666 0C2.438-.896-1 2.542-1 6.771h2a5.674 5.674 0 015.667-5.667v-2zM-1 6.771v5.139h2V6.77h-2zm0 5.139a2.667 2.667 0 002.667 2.666v-2A.667.667 0 011 11.91h-2zm2.667 2.666h86.25v-2H1.667v2zm86.25 0a2.667 2.667 0 002.666-2.666h-2a.667.667 0 01-.666.666v2zm2.666-2.666a2.667 2.667 0 00-2.666-2.667v2c.368 0 .666.298.666.667h2zm-2.666-2.667H3.333v2h84.584v-2zm-83.584 1V6.771h-2v3.472h2zm0-3.472a2.337 2.337 0 012.334-2.334v-2a4.337 4.337 0 00-4.334 4.334h2zm2.334-2.334h86.666v-2H6.667v2zm86.666 0a2.337 2.337 0 012.334 2.334h2a4.337 4.337 0 00-4.334-4.334v2zm2.334 2.334v62.708h2V6.771h-2zm0 62.708a2.337 2.337 0 01-2.334 2.333v2a4.337 4.337 0 004.334-4.333h-2zm-2.334 2.333H69.375v2h23.958v-2zm-23.958 0a2.667 2.667 0 00-2.667 2.667h2c0-.368.299-.667.667-.667v-2zm-2.667 2.667a2.667 2.667 0 002.667 2.667v-2a.667.667 0 01-.667-.667h-2zm2.667 2.667h23.958v-2H69.375v2zm23.958 0c4.229 0 7.667-3.439 7.667-7.667h-2a5.674 5.674 0 01-5.667 5.667v2zM101 69.479V6.771h-2v62.708h2zm0-62.708c0-4.229-3.438-7.667-7.667-7.667v2A5.674 5.674 0 0199 6.771h2zM60.583 74.479a2.667 2.667 0 00-2.666-2.667v2c.368 0 .666.299.666.667h2zm-2.666-2.667H6.667v2h51.25v-2zm-51.25 0a2.337 2.337 0 01-2.334-2.333h-2a4.337 4.337 0 004.334 4.333v-2zM4.333 69.48V23.021h-2v46.458h2zm0-46.458a2.667 2.667 0 00-2.666-2.667v2c.368 0 .666.299.666.667h2zm-2.666-2.667A2.667 2.667 0 00-1 23.021h2c0-.369.299-.667.667-.667v-2zM-1 23.021v46.458h2V23.021h-2zm0 46.458c0 4.228 3.438 7.667 7.667 7.667v-2A5.674 5.674 0 011 69.479h-2zm7.667 7.667h51.25v-2H6.667v2zm51.25 0a2.667 2.667 0 002.666-2.667h-2a.667.667 0 01-.666.667v2zm16.209 11.87c-3.636-1.131-7.241-1.906-10.637-2.431l-.305 1.976c3.314.513 6.821 1.268 10.347 2.365l.595-1.91zm-9.827-1.714l-2.011-7.14-1.925.542 2.011 7.14 1.925-.542zm-2.011-7.14a2.666 2.666 0 00-3.29-1.844l.543 1.925c.354-.1.722.106.822.46l1.925-.541zm-3.29-1.844a2.667 2.667 0 00-1.843 3.29l1.925-.543a.667.667 0 01.46-.822l-.542-1.925zm-1.843 3.29l1.622 5.76 1.925-.542-1.622-5.76-1.925.541zm2.695 4.495a90.174 90.174 0 00-19.569-.016l.218 1.988a88.17 88.17 0 0119.131.016l.22-1.988zm-18.495 1.24l1.563-5.76-1.93-.524-1.563 5.76 1.93.524zm1.563-5.76a2.667 2.667 0 00-1.875-3.272l-.523 1.93a.667.667 0 01.468.818l1.93.524zm-1.874-3.272a2.666 2.666 0 00-3.273 1.875l1.93.524a.666.666 0 01.819-.469l.523-1.93zm-3.273 1.875l-1.928 7.103 1.93.524 1.928-7.103-1.93-.524zm-1.114 6.376c-4.435.682-8.068 1.61-10.782 2.454l.594 1.91c2.628-.818 6.163-1.722 10.491-2.387l-.303-1.977zm-10.782 2.454a2.667 2.667 0 00-1.755 3.338l1.91-.593a.667.667 0 01.439-.835l-.595-1.91zm-1.755 3.338a2.667 2.667 0 003.34 1.755l-.595-1.91a.666.666 0 01-.835-.438l-1.91.594zm3.34 1.755c13.464-4.19 31.073-4.358 45.081 0l.594-1.91c-14.401-4.48-32.425-4.307-46.27 0l.594 1.91zm45.081 0a2.667 2.667 0 003.339-1.754l-1.91-.595a.667.667 0 01-.835.439l-.594 1.91zm3.339-1.755a2.667 2.667 0 00-1.754-3.338l-.595 1.91c.352.11.548.483.439.835l1.91.593z" mask="url(#a)"/></g></svg>