<svg width="100" height="100" fill="none" xmlns="http://www.w3.org/2000/svg"><path d="M79.498 64.9c-5.428 15.273 5.592 22.114-.54 30.304-3.458 4.621-11.025 4.302-13.7-2.148-3.074-7.418 5.594-14.283.66-28.156-10.855-3.737-18.835-16.22-18.835-31.046 0-17.777 11.473-32.187 25.626-32.187 14.152 0 25.624 14.41 25.624 32.187 0 14.825-7.979 27.309-18.835 31.046z" fill="#998DC4"/><g opacity=".726" fill="#fff"><mask id="a"><path fill-rule="evenodd" clip-rule="evenodd" d="M73.053 20.345L62.22 31.18a1.667 1.667 0 11-2.357-2.357l10.834-10.834a1.667 1.667 0 012.356 2.357zM31.25 0H8.333C3.738 0 0 3.738 0 8.333v75.73a1.667 1.667 0 003.333 0V8.332c0-2.757 2.243-5 5-5H31.25c2.757 0 5 2.243 5 5V10H18.333a6.674 6.674 0 00-6.666 6.667V20c0 .92.746 1.667 1.666 1.667h24.584a1.667 1.667 0 000-3.334H15v-1.666a3.337 3.337 0 013.333-3.334h19.584c.92 0 1.666-.746 1.666-1.666V8.333C39.583 3.738 35.845 0 31.25 0zm6.667 30a1.667 1.667 0 000-3.333H13.333c-.92 0-1.666.746-1.666 1.666v20.209a6.674 6.674 0 006.666 6.666H36.25v2.82c0 2.269-1.47 4.427-4.297 4.951l-15.05 2.82a6.707 6.707 0 00-5.403 5.867L9.186 94.034a2.927 2.927 0 01-2.919 2.633 2.937 2.937 0 01-2.934-2.934 1.667 1.667 0 00-3.333 0A6.275 6.275 0 006.267 100a6.252 6.252 0 006.234-5.623l2.314-22.368a3.354 3.354 0 012.702-2.933l15.024-2.816a8.287 8.287 0 007.042-8.233v-4.485c0-.92-.746-1.667-1.666-1.667H18.333A3.337 3.337 0 0115 48.542v-1.875h22.917a1.667 1.667 0 000-3.334H15v-5h22.917a1.667 1.667 0 000-3.333H15v-5h22.917zM72.708 0C57.343 0 45.417 15.48 45.417 33.854c0 9.466 3.22 18.562 8.835 24.955a1.667 1.667 0 002.504-2.2c-5.088-5.793-8.006-14.087-8.006-22.755 0-16.829 10.748-30.52 23.958-30.52 13.211 0 23.959 13.691 23.959 30.52 0 20.066-14.987 34.647-30.138 29.493-1.36-.534-2.694.82-2.16 2.166 4.73 13.392-4.084 19.9-.65 28.182 3.192 7.699 12.375 8.117 16.574 2.507 5.432-7.258-.635-13.43-.652-22.664a1.667 1.667 0 00-3.333.006c.018 9.774 5.512 15.055 1.316 20.66-2.688 3.592-8.649 3.465-10.825-1.786-2.498-6.024 4.606-12.776 1.576-25.134C85.375 70.64 100 54.251 100 33.854 100 15.471 88.067 0 72.708 0zm14.616 33.991a1.667 1.667 0 10-2.357-2.357l-.65.651c-1.054 1.054-.293 2.845 1.178 2.845.835 0 1.202-.512 1.83-1.139zM70.625 50a1.66 1.66 0 001.178-.488l9.792-9.792a1.667 1.667 0 00-2.357-2.357l-9.791 9.792C68.392 48.208 69.153 50 70.624 50zm3.926-22.533l-3.021 3.021a1.667 1.667 0 002.357 2.357l3.02-3.02a1.667 1.667 0 00-2.356-2.358z"/></mask><path d="M73.053 20.345l.708.707-.707-.707zM62.22 31.18l.707.707-.707-.707zm-2.357 0l-.707.707.707-.707zm10.834-13.19l-.707-.708.707.707zm2.356 0l-.706.707.707-.708zM36.25 10v1h1v-1h-1zM15 18.333h-1v1h1v-1zm21.25 36.875h1v-1h-1v1zm-4.297 7.771l-.182-.983h-.002l.184.983zm-15.05 2.82l.184.983-.184-.983zM11.5 71.666l-.995-.103.995.103zM9.186 94.034l.995.103-.995-.103zm3.316.343l.994.103-.995-.103zm2.313-22.368l-.995-.103.995.103zm2.702-2.933l.184.983-.184-.983zm15.024-2.816l-.154-.988-.015.002-.015.003.184.983zM15 46.667v-1h-1v1h1zm0-3.334h-1v1h1v-1zm0-5v-1h-1v1h1zM15 35h-1v1h1v-1zm0-5v-1h-1v1h1zm39.252 28.809l.751-.66-.751.66zm2.352.152l.66.752-.66-.752zm.152-2.352l-.751.66.751-.66zm9.773 6.738l-.365.93.021.01.022.007.322-.947zm-2.16 2.166l.943-.333-.006-.017-.007-.018-.93.368zm-.65 28.182l.924-.383-.923.383zm16.574 2.507l.8.6-.8-.6zm-.652-22.664l1-.002-1 .002zm-3.333.006l1-.002-1 .002zm1.316 20.66l.8.6h.001l-.8-.6zM66.8 92.418l-.924.383.924-.383zm1.576-25.134l.194-.98L67.031 66l.373 1.522.971-.238zm18.95-35.65l.706-.707-.707.707zm-2.358 0l-.707-.707.707.707zm-.65.651l.706.707-.707-.707zm1.178 2.845v1-1zM71.803 49.512l-.707-.707.707.707zm9.792-9.792l.707.707-.707-.707zm0-2.357l.707-.707-.707.707zm-2.357 0l-.707-.707.707.707zm-9.791 9.792l.706.707-.707-.707zm5.104-19.688l-.707-.707.707.707zm-3.021 5.378l-.707.707.707-.707zm2.357 0l.707.707-.707-.707zm3.02-5.378l.708-.707-.707.707zm-4.56-7.829L61.512 30.471l1.414 1.415L73.76 21.052l-1.415-1.414zM61.512 30.471a.667.667 0 01-.943 0l-1.414 1.415a2.667 2.667 0 003.771 0l-1.414-1.415zm-.943 0a.667.667 0 010-.942l-1.414-1.414a2.667 2.667 0 000 3.77l1.414-1.414zm0-.942l10.834-10.834-1.415-1.414-10.833 10.834 1.414 1.414zm10.833-10.833a.669.669 0 01.944 0l1.413-1.415a2.667 2.667 0 00-3.77 0l1.413 1.415zm.944 0c.26.26.26.682 0 .942l1.414 1.414a2.667 2.667 0 000-3.77l-1.414 1.414zM31.25-1H8.333v2H31.25v-2zM8.333-1C3.186-1-1 3.186-1 8.333h2C1 4.291 4.29 1 8.333 1v-2zM-1 8.333v75.73h2V8.332h-2zm0 75.73a2.667 2.667 0 002.667 2.666v-2A.667.667 0 011 84.063h-2zm2.667 2.666a2.667 2.667 0 002.666-2.666h-2a.667.667 0 01-.666.666v2zm2.666-2.666V8.332h-2v75.73h2zm0-75.73c0-2.204 1.796-4 4-4v-2c-3.309 0-6 2.691-6 6h2zm4-4H31.25v-2H8.333v2zm22.917 0c2.205 0 4 1.796 4 4h2c0-3.309-2.69-6-6-6v2zm4 4V10h2V8.333h-2zm1 .667H18.333v2H36.25V9zM18.333 9c-4.228 0-7.666 3.438-7.666 7.667h2A5.674 5.674 0 0118.333 11V9zm-7.666 7.667V20h2v-3.333h-2zm0 3.333a2.667 2.667 0 002.666 2.667v-2a.667.667 0 01-.666-.667h-2zm2.666 2.667h24.584v-2H13.333v2zm24.584 0A2.667 2.667 0 0040.583 20h-2a.667.667 0 01-.666.667v2zM40.583 20a2.667 2.667 0 00-2.666-2.667v2c.368 0 .666.299.666.667h2zm-2.666-2.667H15v2h22.917v-2zm-21.917 1v-1.666h-2v1.666h2zm0-1.666a2.337 2.337 0 012.333-2.334v-2A4.337 4.337 0 0014 16.667h2zm2.333-2.334h19.584v-2H18.333v2zm19.584 0a2.667 2.667 0 002.666-2.666h-2a.667.667 0 01-.666.666v2zm2.666-2.666V8.333h-2v3.334h2zm0-3.334C40.583 3.186 36.397-1 31.25-1v2c4.043 0 7.333 3.29 7.333 7.333h2zM37.917 31a2.667 2.667 0 002.666-2.667h-2a.667.667 0 01-.666.667v2zm2.666-2.667a2.667 2.667 0 00-2.666-2.666v2c.368 0 .666.298.666.666h2zm-2.666-2.666H13.333v2h24.584v-2zm-24.584 0a2.667 2.667 0 00-2.666 2.666h2c0-.368.298-.666.666-.666v-2zm-2.666 2.666v20.209h2V28.333h-2zm0 20.209c0 4.228 3.438 7.666 7.666 7.666v-2a5.674 5.674 0 01-5.666-5.666h-2zm7.666 7.666H36.25v-2H18.333v2zm16.917-1v2.82h2v-2.82h-2zm0 2.82c0 1.808-1.147 3.535-3.48 3.968l.365 1.966c3.322-.616 5.115-3.205 5.115-5.935h-2zm-3.481 3.968l-15.05 2.82.368 1.966 15.05-2.82-.368-1.966zm-15.05 2.82c-3.315.622-5.867 3.392-6.214 6.747l1.99.206a5.707 5.707 0 014.592-4.987l-.368-1.965zm-6.214 6.747L8.19 93.931l1.99.206 2.313-22.368-1.99-.206zM8.19 93.931a1.927 1.927 0 01-1.924 1.736v2a3.927 3.927 0 003.914-3.53l-1.99-.206zm-1.924 1.736a1.937 1.937 0 01-1.934-1.934h-2a3.937 3.937 0 003.934 3.934v-2zm-1.934-1.934a2.667 2.667 0 00-2.666-2.667v2c.368 0 .666.299.666.667h2zm-2.666-2.667A2.667 2.667 0 00-1 93.733h2c0-.368.299-.667.667-.667v-2zM-1 93.733A7.274 7.274 0 006.267 101v-2A5.274 5.274 0 011 93.733h-2zM6.267 101a7.252 7.252 0 007.23-6.52l-1.99-.205A5.252 5.252 0 016.267 99v2zm7.23-6.52l2.313-22.368-1.99-.206-2.313 22.369 1.99.205zm2.313-22.368a2.354 2.354 0 011.89-2.052l-.368-1.966a4.354 4.354 0 00-3.512 3.813l1.989.206zm1.89-2.052l15.024-2.816-.368-1.966-15.024 2.816.368 1.965zm14.995-2.811a9.287 9.287 0 007.887-9.22h-2c0 3.642-2.6 6.68-6.197 7.244l.31 1.976zm7.887-9.22v-4.486h-2v4.485h2zm0-4.486a2.667 2.667 0 00-2.666-2.667v2c.368 0 .666.298.666.667h2zm-2.666-2.667H18.333v2h19.584v-2zm-19.584 0A2.337 2.337 0 0116 48.542h-2a4.337 4.337 0 004.333 4.333v-2zM16 48.542v-1.875h-2v1.875h2zm-1-.875h22.917v-2H15v2zm22.917 0A2.667 2.667 0 0040.583 45h-2a.667.667 0 01-.666.667v2zM40.583 45a2.667 2.667 0 00-2.666-2.667v2c.368 0 .666.299.666.667h2zm-2.666-2.667H15v2h22.917v-2zm-21.917 1v-5h-2v5h2zm-1-4h22.917v-2H15v2zm22.917 0a2.667 2.667 0 002.666-2.666h-2a.667.667 0 01-.666.666v2zm2.666-2.666A2.667 2.667 0 0037.917 34v2c.368 0 .666.298.666.667h2zM37.917 34H15v2h22.917v-2zM16 35v-5h-2v5h2zm-1-4h22.917v-2H15v2zM72.708-1c-16.12 0-28.291 16.153-28.291 34.854h2C46.417 15.806 58.097 1 72.708 1v-2zM44.417 33.854c0 9.68 3.29 19.018 9.084 25.615l1.502-1.32c-5.436-6.19-8.586-15.042-8.586-24.295h-2zM53.5 59.468a2.667 2.667 0 003.764.244l-1.32-1.502a.667.667 0 01-.94-.061l-1.504 1.32zm3.764.244a2.667 2.667 0 00.244-3.763l-1.503 1.32a.667.667 0 01-.061.94l1.32 1.503zm.244-3.763C52.6 50.361 49.75 42.311 49.75 33.854h-2c0 8.879 2.987 17.416 8.255 23.415l1.503-1.32zM49.75 33.854c0-16.516 10.512-29.52 22.958-29.52v-2c-13.975 0-24.958 14.378-24.958 31.52h2zm22.958-29.52c12.447 0 22.959 13.004 22.959 29.52h2c0-17.142-10.984-31.52-24.959-31.52v2zm22.959 29.52c0 9.79-3.657 18.186-9.086 23.489-5.419 5.292-12.57 7.493-19.73 5.057l-.644 1.894c7.991 2.718 15.909.206 21.771-5.52 5.852-5.716 9.689-14.645 9.689-24.92h-2zM66.895 62.416c-2.182-.857-4.31 1.314-3.455 3.466l1.859-.737a.67.67 0 01.865-.867l.73-1.862zm-3.469 3.43c2.266 6.415 1.301 11.154.14 15.411-1.147 4.204-2.648 8.293-.77 12.821l1.847-.766c-1.556-3.754-.367-7.06.852-11.529 1.204-4.415 2.281-9.626-.183-16.603l-1.886.667zm-.63 28.232c3.5 8.444 13.653 8.928 18.298 2.723l-1.601-1.198c-3.754 5.014-11.967 4.663-14.85-2.291l-1.847.766zm18.298 2.723c1.46-1.951 2.17-3.865 2.385-5.793.213-1.908-.064-3.777-.495-5.624-.88-3.781-2.335-7.383-2.343-11.848l-2 .004c.009 4.768 1.597 8.87 2.396 12.297.409 1.757.631 3.37.454 4.949-.174 1.56-.743 3.14-1.998 4.817l1.6 1.198zm-.453-23.265a2.667 2.667 0 00-2.667-2.662v2c.368 0 .666.298.667.666l2-.004zm-2.667-2.662a2.667 2.667 0 00-2.666 2.672l2-.004a.667.667 0 01.666-.668v-2zm-2.666 2.672c.01 5.053 1.444 8.996 2.271 12.145.835 3.179 1.053 5.498-.755 7.914l1.601 1.199c2.387-3.19 1.957-6.313 1.089-9.62-.876-3.336-2.197-6.921-2.206-11.642l-2 .004zm1.516 20.06c-2.243 2.995-7.233 2.936-9.102-1.57l-1.847.765c2.485 5.995 9.415 6.19 12.55 2.003l-1.601-1.199zm-9.102-1.57c-.528-1.275-.568-2.621-.317-4.19.256-1.604.79-3.31 1.346-5.357 1.102-4.046 2.17-9.02.596-15.443l-1.943.476c1.455 5.935.487 10.517-.582 14.442-.528 1.939-1.113 3.822-1.392 5.566-.284 1.777-.276 3.533.445 5.271l1.847-.766zm.46-23.77c8.895 1.755 17.137-1.673 23.113-8.11C97.262 53.73 101 44.285 101 33.855h-2c0 9.967-3.575 18.914-9.17 24.942-5.587 6.018-13.157 9.107-21.261 7.507l-.387 1.963zM101 33.854C101 15.144 88.82-1 72.708-1v2C87.313 1 99 15.797 99 33.854h2zm-12.969.844a2.667 2.667 0 000-3.77l-1.414 1.413c.26.26.26.683 0 .943l1.414 1.414zm0-3.771a2.667 2.667 0 00-3.77 0l1.413 1.414c.26-.26.683-.26.943 0l1.414-1.414zm-3.77 0l-.652.651 1.414 1.414.651-.65-1.414-1.415zm-.652.651c-1.692 1.692-.464 4.552 1.886 4.552v-2c-.593 0-.887-.723-.472-1.138l-1.414-1.414zm1.886 4.552c1.35 0 2.053-.949 2.536-1.432l-1.414-1.414c-.084.085-.164.166-.235.24-.074.076-.137.142-.2.204a2.866 2.866 0 01-.296.269.567.567 0 01-.391.133v2zM70.625 51a2.66 2.66 0 001.886-.781l-1.415-1.414a.661.661 0 01-.471.195v2zm1.886-.781l9.791-9.792-1.414-1.414-9.792 9.792 1.415 1.414zm9.791-9.792a2.666 2.666 0 000-3.77l-1.414 1.413c.26.26.26.683 0 .943l1.414 1.414zm0-3.77a2.667 2.667 0 00-3.77 0l1.413 1.414c.26-.26.683-.26.943 0l1.414-1.415zm-3.771 0l-9.792 9.79 1.415 1.415 9.791-9.792-1.414-1.414zm-9.792 9.79C67.047 48.14 68.275 51 70.625 51v-2c-.592 0-.886-.723-.472-1.138l-1.414-1.414zm5.105-19.687l-3.021 3.021 1.414 1.414 3.02-3.02-1.413-1.415zm-3.021 3.021a2.666 2.666 0 000 3.771l1.414-1.414a.667.667 0 010-.943l-1.414-1.414zm0 3.771a2.667 2.667 0 003.77 0l-1.413-1.414a.667.667 0 01-.943 0l-1.414 1.414zm3.771 0l3.02-3.02-1.413-1.415-3.021 3.02 1.414 1.415zm3.02-3.02a2.666 2.666 0 000-3.772l-1.413 1.414c.26.26.26.683 0 .943l1.414 1.414zm0-3.772a2.667 2.667 0 00-3.77 0l1.414 1.414c.26-.26.682-.26.943 0l1.414-1.414z" mask="url(#a)"/></g></svg>