<svg width="36" height="37" viewBox="0 0 36 37" fill="none" xmlns="http://www.w3.org/2000/svg">
<g clip-path="url(#clip0_21:46)">
<path d="M26.0506 11.2491L23.8085 12.9467C24.0408 13.2624 24.7475 14.2232 24.7475 14.8364C24.7475 16.1974 23.6598 17.3047 22.3228 17.3047C20.9857 17.3047 19.898 16.1974 19.898 14.8364C19.898 14.3731 20.0374 13.8107 20.301 13.2103C22.1749 8.94144 21.142 4.04705 17.7305 1.03128C17.6557 0.965188 17.1112 0.5 17.1112 0.5H15.2302L15.1218 1.78827C14.8928 4.50697 12.6513 7.41249 10.2781 10.4886C7.33345 14.3054 4.28864 18.2521 4.28864 22.7891C4.28864 30.3493 10.4394 36.5 17.9996 36.5C25.5598 36.5 31.7105 30.3493 31.7105 22.7891C31.7105 18.8433 28.9145 14.9247 26.0506 11.2491ZM17.9996 33.6172C16.5263 33.6172 15.3277 32.4196 15.3277 30.9474C15.3277 30.0476 16.2285 28.8184 17.0231 27.7339C17.4243 27.1864 17.8161 26.6516 18.1382 26.1152C19.5168 27.5425 20.6714 29.4692 20.6714 30.9474C20.6714 32.4196 19.4728 33.6172 17.9996 33.6172ZM23.3145 32.3006C23.4249 31.8676 23.4839 31.4143 23.4839 30.9474C23.4839 27.8786 20.8588 24.3689 18.3889 22.6247L18.0242 22.3672H16.1011V23.7734C16.1011 24.2338 15.3228 25.2959 14.7546 26.0715C13.7049 27.5039 12.5152 29.1275 12.5152 30.9474C12.5152 31.4142 12.5743 31.8675 12.6847 32.3006C9.35592 30.4332 7.10114 26.8698 7.10114 22.7891C7.10114 19.2109 9.84824 15.6502 12.5049 12.2065C14.4397 9.6987 16.2958 7.29268 17.2627 4.78709C18.5862 6.9113 18.8006 9.6312 17.7256 12.0796C17.3008 13.0473 17.0854 13.9748 17.0854 14.8363C17.0855 17.7482 19.4349 20.1172 22.3228 20.1172C24.3195 20.1172 26.0587 18.9849 26.942 17.3235C28.0991 19.2062 28.898 21.0637 28.898 22.7891C28.898 26.8698 26.6432 30.4332 23.3145 32.3006Z" fill="#4CA970"/>
</g>
<defs>
<clipPath id="clip0_21:46">
<rect width="36" height="36" fill="white" transform="translate(0 0.5)"/>
</clipPath>
</defs>
</svg>
