<svg width="95" height="95" viewBox="0 0 95 95" fill="none" xmlns="http://www.w3.org/2000/svg">
<rect width="95" height="95" rx="5" fill="#F4F4F4"/>
<mask id="mask0" mask-type="alpha" maskUnits="userSpaceOnUse" x="0" y="0" width="95" height="95">
<rect width="95" height="95" rx="5" fill="#F4F4F4"/>
</mask>
<g mask="url(#mask0)">
<rect x="80.3789" y="51.7515" width="84.4133" height="84.4133" rx="5" transform="rotate(135 80.3789 51.7515)" fill="white" fill-opacity="0.4"/>
<rect x="145.379" y="-13.292" width="84.4133" height="84.4133" rx="5" transform="rotate(135 145.379 -13.292)" fill="white" fill-opacity="0.4"/>
</g>
<g clip-path="url(#clip0)">
<path d="M74.3811 71.6358H20.6189C19.1725 71.6358 18 70.4633 18 69.0169V48.8074C18 47.361 19.1725 46.1885 20.6189 46.1885H74.3811C75.8275 46.1885 77 47.361 77 48.8074V69.0169C77 70.4633 75.8275 71.6358 74.3811 71.6358Z" fill="url(#paint0_linear)"/>
<path d="M71.7619 68.4805H23.2377C22.0509 68.4805 21.0889 67.5185 21.0889 66.3317V51.4921C21.0889 50.3053 22.0509 49.3433 23.2377 49.3433H71.7618C72.9486 49.3433 73.9106 50.3053 73.9106 51.4921V66.3315C73.9108 67.5185 72.9487 68.4805 71.7619 68.4805Z" fill="url(#paint1_linear)"/>
<path d="M36.5656 53.2625L54.9389 71.6358H74.3793C75.8257 71.6358 76.9982 70.4633 76.9982 69.0169V63.7218L59.4649 46.1885H35.5312V51.195C35.5312 52.0406 35.9377 52.7913 36.5656 53.2625Z" fill="url(#paint2_linear)"/>
<path d="M46.0557 68.4816H30.2223L25.0544 63.3138C24.6899 63.0902 24.3972 62.7409 24.3972 62.2867C24.3972 61.9581 24.5229 61.6806 24.6996 61.4776L25.5183 60.3122L23.5399 58.2786C23.0939 58.0894 22.8799 57.6297 22.8799 57.0525C22.8799 56.3953 23.4612 55.6608 24.2702 55.6608C24.3461 55.6608 24.4731 55.6608 24.6499 55.7367L27.3049 56.5969L27.1779 54.0178C27.2041 53.1825 27.8365 52.8042 28.5433 52.8042C29.0749 52.8042 29.5498 53.0168 29.7638 53.4766L32.202 55.8264L32.4644 55.7366C32.59 55.6869 32.717 55.6607 32.8427 55.6607C33.2982 55.6607 33.6683 55.9438 33.8975 56.3235L38.0547 60.4807L46.0557 68.4816Z" fill="url(#paint3_linear)"/>
<path d="M58.7109 68.4807H42.8775L37.7097 63.3129C37.3452 63.0892 37.0525 62.7399 37.0525 62.2857C37.0525 61.9571 37.1781 61.6796 37.3549 61.4766L38.0549 60.4797L38.1736 60.3113L36.1951 58.2776C35.7492 58.0885 35.5352 57.6287 35.5352 57.0516C35.5352 56.3944 36.1164 55.6599 36.9255 55.6599C37.0014 55.6599 37.1284 55.6599 37.3052 55.7358L39.9602 56.5959L39.8331 54.0168C39.8594 53.1815 40.4917 52.8032 41.1986 52.8032C41.7302 52.8032 42.2037 53.0159 42.4191 53.4756L44.8573 55.8254L45.1183 55.7356C45.2453 55.6859 45.3723 55.6597 45.4979 55.6597C45.9535 55.6597 46.3236 55.9428 46.5528 56.3225L58.7109 68.4807Z" fill="url(#paint4_linear)"/>
<path d="M71.3642 68.4812H55.5322L50.3644 63.3133C49.9999 63.0897 49.7058 62.7403 49.7058 62.2862C49.7058 61.9576 49.8328 61.6801 50.0096 61.4771L50.7096 60.4802L50.8283 60.3117L48.8485 58.2781C48.4039 58.089 48.1885 57.6292 48.1885 57.0521C48.1885 56.3948 48.7711 55.6604 49.5802 55.6604C49.6561 55.6604 49.7817 55.6604 49.9599 55.7362L52.6149 56.5964L52.4878 54.0173C52.5141 53.182 53.1451 52.8037 53.8533 52.8037C54.3849 52.8037 54.8584 53.0163 55.0738 53.4761L57.512 55.8259L57.7728 55.7361C57.8999 55.6864 58.0255 55.6602 58.1525 55.6602C58.6081 55.6602 58.9768 55.9433 59.2074 56.323L63.3645 60.4802L71.3642 68.4812Z" fill="url(#paint5_linear)"/>
<path d="M73.9114 58.372V66.3315C73.9114 67.5189 72.9491 68.4812 71.7631 68.4812H68.1859L63.0181 63.3133C62.6549 63.0897 62.3609 62.7403 62.3609 62.2862C62.3609 61.9576 62.4879 61.6801 62.6646 61.4771L63.3647 60.4802L63.4835 60.3117L61.5036 58.2781C61.059 58.089 60.8438 57.6292 60.8438 57.0521C60.8438 56.3948 61.4263 55.6604 62.2355 55.6604C62.3113 55.6604 62.437 55.6604 62.6137 55.7362L65.2701 56.5964L65.1431 54.0173C65.168 53.182 65.8003 52.8037 66.5086 52.8037C67.0401 52.8037 67.5136 53.0163 67.729 53.4761L70.1659 55.8259L70.4282 55.7361C70.5553 55.6864 70.6809 55.6602 70.8079 55.6602C71.2635 55.6602 71.6322 55.9433 71.8627 56.323L73.9114 58.372Z" fill="url(#paint6_linear)"/>
<path d="M32.4885 61.5024C32.6149 61.654 32.6907 61.9576 32.6907 62.2357C32.6907 63.0449 31.8815 63.6013 31.1482 63.6013C30.87 63.6013 30.4655 63.5507 30.1873 63.1208L28.5435 60.5919L26.8745 63.1461C26.6469 63.5254 26.3435 63.6013 25.9894 63.6013C25.3824 63.6013 24.3962 63.1208 24.3962 62.2863C24.3962 61.9576 24.5227 61.6794 24.6997 61.477L26.3687 59.0999L23.7388 58.3412C23.1571 58.2148 22.8789 57.709 22.8789 57.0516C22.8789 56.3941 23.4606 55.6607 24.2698 55.6607C24.3457 55.6607 24.5704 55.6691 24.7472 55.745L27.3044 56.5963L27.1778 54.017C27.2031 53.1826 27.8354 52.8032 28.5434 52.8032C29.2515 52.8032 29.8584 53.1826 29.8837 54.017L29.7825 56.647L32.463 55.7366C32.5895 55.686 32.7159 55.6607 32.8424 55.6607C33.6264 55.6607 34.1574 56.4952 34.1574 57.2286C34.1574 57.7344 33.9045 58.2148 33.2976 58.3412L30.7182 58.9481L32.4885 61.5024Z" fill="url(#paint7_linear)"/>
<path d="M45.1447 61.5024C45.2712 61.654 45.347 61.9576 45.347 62.2357C45.347 63.0449 44.5377 63.6013 43.8044 63.6013C43.5263 63.6013 43.1217 63.5507 42.8435 63.1208L41.1997 60.5919L39.5307 63.1461C39.3032 63.5254 38.9997 63.6013 38.6456 63.6013C38.0386 63.6013 37.0525 63.1208 37.0525 62.2863C37.0525 61.9576 37.1789 61.6794 37.3559 61.477L39.0249 59.0999L36.3951 58.3412C35.8134 58.2148 35.5352 57.709 35.5352 57.0516C35.5352 56.3941 36.1168 55.6607 36.9261 55.6607C37.0019 55.6607 37.1284 55.6607 37.3054 55.7366L39.9607 56.5963L39.8342 54.017C39.8595 53.1826 40.4917 52.8032 41.1997 52.8032C41.9078 52.8032 42.5147 53.1826 42.5401 54.017L42.4388 56.647L45.1194 55.7366C45.2459 55.686 45.3723 55.6607 45.4987 55.6607C46.2828 55.6607 46.8138 56.4952 46.8138 57.2286C46.8138 57.7344 46.5609 58.2148 45.954 58.3412L43.3745 58.9481L45.1447 61.5024Z" fill="url(#paint8_linear)"/>
<path d="M57.7971 61.5024C57.9235 61.654 57.9993 61.9576 57.9993 62.2357C57.9993 63.0449 57.1901 63.6013 56.4568 63.6013C56.1786 63.6013 55.7741 63.5507 55.4959 63.1208L53.8521 60.5919L52.1831 63.1461C51.9555 63.5254 51.6521 63.6013 51.298 63.6013C50.691 63.6013 49.7048 63.1208 49.7048 62.2863C49.7048 61.9576 49.8313 61.6794 50.0083 61.477L51.6773 59.0999L49.0474 58.3412C48.4657 58.2148 48.1875 57.709 48.1875 57.0516C48.1875 56.3941 48.7692 55.6607 49.5784 55.6607C49.6543 55.6607 49.7807 55.6607 49.9577 55.7366L52.6131 56.5963L52.4865 54.017C52.5119 53.1826 53.1441 52.8032 53.8521 52.8032C54.5602 52.8032 55.1671 53.1826 55.1924 54.017L55.0912 56.647L57.7718 55.7366C57.8982 55.686 58.0247 55.6607 58.1511 55.6607C58.9351 55.6607 59.4661 56.4952 59.4661 57.2286C59.4661 57.7344 59.2132 58.2148 58.6063 58.3412L56.0269 58.9481L57.7971 61.5024Z" fill="url(#paint9_linear)"/>
<path d="M70.4534 61.5024C70.5798 61.654 70.6556 61.9576 70.6556 62.2357C70.6556 63.0449 69.8464 63.6013 69.113 63.6013C68.8349 63.6013 68.4303 63.5507 68.1521 63.1208L66.5083 60.5919L64.8393 63.1461C64.6118 63.5254 64.3083 63.6013 63.9542 63.6013C63.3472 63.6013 62.3611 63.1208 62.3611 62.2863C62.3611 61.9576 62.4875 61.6794 62.6645 61.477L64.3335 59.0999L61.7036 58.3412C61.122 58.2148 60.8438 57.709 60.8438 57.0516C60.8438 56.3941 61.4254 55.6607 62.2346 55.6607C62.3105 55.6607 62.437 55.6607 62.614 55.7366L65.2693 56.5963L65.1428 54.017C65.1681 53.1826 65.8003 52.8032 66.5083 52.8032C67.2164 52.8032 67.8233 53.1826 67.8487 54.017L67.7475 56.647L70.428 55.7366C70.5545 55.686 70.6809 55.6607 70.8074 55.6607C71.5914 55.6607 72.1224 56.4952 72.1224 57.2286C72.1224 57.7344 71.8695 58.2148 71.2626 58.3412L68.6831 58.9481L70.4534 61.5024Z" fill="url(#paint10_linear)"/>
<path d="M57.2914 35.1032H53.5958V33.5407C53.5958 29.9672 50.6885 27.0599 47.1149 27.0599C43.5414 27.0599 40.6341 29.9672 40.6341 33.5407V35.1032H36.9385V33.5407C36.9385 27.9295 41.5036 23.3643 47.1149 23.3643C52.7262 23.3643 57.2914 27.9294 57.2914 33.5407V35.1032Z" fill="url(#paint11_linear)"/>
<path d="M47.1147 25.3647C42.4598 25.3647 38.6729 29.1517 38.6729 33.8066V35.1026H40.6338V33.5402C40.6338 29.9666 43.5412 27.0593 47.1147 27.0593C50.6882 27.0593 53.5956 29.9666 53.5956 33.5402V35.1026H55.5566V33.8066C55.5566 29.1517 51.7695 25.3647 47.1147 25.3647Z" fill="url(#paint12_linear)"/>
<path d="M56.8814 53.7777H38.1145C36.6878 53.7777 35.5312 52.621 35.5312 51.1944V36.8343C35.5312 35.4075 36.6879 34.251 38.1145 34.251H56.8815C58.3083 34.251 59.4648 35.4076 59.4648 36.8343V51.1944C59.4648 52.621 58.3081 53.7777 56.8814 53.7777Z" fill="url(#paint13_linear)"/>
<path d="M52.0855 42.1736C52.0855 39.6399 50.0315 37.5859 47.4978 37.5859C44.9642 37.5859 42.9102 39.6399 42.9102 42.1736C42.9102 43.9673 43.9402 45.5195 45.4404 46.2739V48.385C45.4404 49.5213 46.3615 50.4424 47.4978 50.4424C48.6341 50.4424 49.5552 49.5213 49.5552 48.385V46.2739C51.0555 45.5195 52.0855 43.9673 52.0855 42.1736Z" fill="url(#paint14_linear)"/>
<path d="M47.4965 49.2494C47.0197 49.2494 46.6317 48.8615 46.6317 48.3847V45.5382L45.9749 45.2079C44.8194 44.627 44.1016 43.4642 44.1016 42.1732C44.1016 40.3012 45.6246 38.7783 47.4965 38.7783C49.3684 38.7783 50.8914 40.3013 50.8914 42.1732C50.8914 43.4641 50.1736 44.627 49.0181 45.2079L48.3612 45.5382V48.3847C48.3612 48.8615 47.9732 49.2494 47.4965 49.2494Z" fill="url(#paint15_linear)"/>
<path d="M35.5312 47.2847V51.1944C35.5312 52.6212 36.6879 53.7777 38.1145 53.7777H56.8815C58.3083 53.7777 59.4648 52.6211 59.4648 51.1944V47.2847H35.5312Z" fill="url(#paint16_linear)"/>
<path d="M18 63.6016V69.0171C18 70.4635 19.1725 71.636 20.6189 71.636H74.3811C75.8275 71.636 77 70.4635 77 69.0171V63.6016H18Z" fill="url(#paint17_linear)"/>
</g>
<defs>
<linearGradient id="paint0_linear" x1="54.5839" y1="64.8211" x2="34.4076" y2="44.5583" gradientUnits="userSpaceOnUse">
<stop stop-color="#2E56FC"/>
<stop offset="1" stop-color="#476BFF"/>
</linearGradient>
<linearGradient id="paint1_linear" x1="36.2456" y1="47.6577" x2="58.7718" y2="70.1839" gradientUnits="userSpaceOnUse">
<stop stop-color="#EDF5FF"/>
<stop offset="1" stop-color="#D5E8FE"/>
</linearGradient>
<linearGradient id="paint2_linear" x1="59.1667" y1="63.8527" x2="47.9066" y2="40.1756" gradientUnits="userSpaceOnUse">
<stop stop-color="#B5DBFF" stop-opacity="0"/>
<stop offset="0.1734" stop-color="#8FC5E9" stop-opacity="0.173"/>
<stop offset="0.4541" stop-color="#56A4C8" stop-opacity="0.454"/>
<stop offset="0.6955" stop-color="#2D8DB1" stop-opacity="0.696"/>
<stop offset="0.8853" stop-color="#147EA2" stop-opacity="0.885"/>
<stop offset="1" stop-color="#0B799D"/>
</linearGradient>
<linearGradient id="paint3_linear" x1="34.4234" y1="63.6423" x2="4.73841" y2="45.1075" gradientUnits="userSpaceOnUse">
<stop stop-color="#B5DBFF" stop-opacity="0"/>
<stop offset="0.1734" stop-color="#8FC5E9" stop-opacity="0.173"/>
<stop offset="0.4541" stop-color="#56A4C8" stop-opacity="0.454"/>
<stop offset="0.6955" stop-color="#2D8DB1" stop-opacity="0.696"/>
<stop offset="0.8853" stop-color="#147EA2" stop-opacity="0.885"/>
<stop offset="1" stop-color="#0B799D"/>
</linearGradient>
<linearGradient id="paint4_linear" x1="46.2916" y1="63.1501" x2="16.6066" y2="44.6153" gradientUnits="userSpaceOnUse">
<stop stop-color="#B5DBFF" stop-opacity="0"/>
<stop offset="0.1734" stop-color="#8FC5E9" stop-opacity="0.173"/>
<stop offset="0.4541" stop-color="#56A4C8" stop-opacity="0.454"/>
<stop offset="0.6955" stop-color="#2D8DB1" stop-opacity="0.696"/>
<stop offset="0.8853" stop-color="#147EA2" stop-opacity="0.885"/>
<stop offset="1" stop-color="#0B799D"/>
</linearGradient>
<linearGradient id="paint5_linear" x1="59.3982" y1="63.4328" x2="29.7136" y2="44.8983" gradientUnits="userSpaceOnUse">
<stop stop-color="#B5DBFF" stop-opacity="0"/>
<stop offset="0.1734" stop-color="#8FC5E9" stop-opacity="0.173"/>
<stop offset="0.4541" stop-color="#56A4C8" stop-opacity="0.454"/>
<stop offset="0.6955" stop-color="#2D8DB1" stop-opacity="0.696"/>
<stop offset="0.8853" stop-color="#147EA2" stop-opacity="0.885"/>
<stop offset="1" stop-color="#0B799D"/>
</linearGradient>
<linearGradient id="paint6_linear" x1="69.1152" y1="61.5988" x2="50.1856" y2="49.7795" gradientUnits="userSpaceOnUse">
<stop stop-color="#B5DBFF" stop-opacity="0"/>
<stop offset="0.1734" stop-color="#8FC5E9" stop-opacity="0.173"/>
<stop offset="0.4541" stop-color="#56A4C8" stop-opacity="0.454"/>
<stop offset="0.6955" stop-color="#2D8DB1" stop-opacity="0.696"/>
<stop offset="0.8853" stop-color="#147EA2" stop-opacity="0.885"/>
<stop offset="1" stop-color="#0B799D"/>
</linearGradient>
<linearGradient id="paint7_linear" x1="28.5181" y1="55.1739" x2="28.5181" y2="66.8968" gradientUnits="userSpaceOnUse">
<stop stop-color="#B9DD39"/>
<stop offset="1" stop-color="#0B799D"/>
</linearGradient>
<linearGradient id="paint8_linear" x1="41.1744" y1="55.1739" x2="41.1744" y2="66.8968" gradientUnits="userSpaceOnUse">
<stop stop-color="#B9DD39"/>
<stop offset="1" stop-color="#0B799D"/>
</linearGradient>
<linearGradient id="paint9_linear" x1="53.8267" y1="55.1739" x2="53.8267" y2="66.8968" gradientUnits="userSpaceOnUse">
<stop stop-color="#B9DD39"/>
<stop offset="1" stop-color="#0B799D"/>
</linearGradient>
<linearGradient id="paint10_linear" x1="66.483" y1="55.1739" x2="66.483" y2="66.8968" gradientUnits="userSpaceOnUse">
<stop stop-color="#B9DD39"/>
<stop offset="1" stop-color="#0B799D"/>
</linearGradient>
<linearGradient id="paint11_linear" x1="41.2759" y1="26.3787" x2="50.7977" y2="35.9006" gradientUnits="userSpaceOnUse">
<stop stop-color="#EDF5FF"/>
<stop offset="1" stop-color="#B5DBFF"/>
</linearGradient>
<linearGradient id="paint12_linear" x1="47.1147" y1="33.2269" x2="47.1147" y2="10.3959" gradientUnits="userSpaceOnUse">
<stop stop-color="#B5DBFF" stop-opacity="0"/>
<stop offset="0.2428" stop-color="#93CEF6" stop-opacity="0.243"/>
<stop offset="0.5763" stop-color="#6ABFEC" stop-opacity="0.576"/>
<stop offset="0.8403" stop-color="#51B5E5" stop-opacity="0.84"/>
<stop offset="1" stop-color="#48B2E3"/>
</linearGradient>
<linearGradient id="paint13_linear" x1="41.1713" y1="37.6877" x2="51.7784" y2="48.2947" gradientUnits="userSpaceOnUse">
<stop stop-color="#FFDA2D"/>
<stop offset="1" stop-color="#FDBF00"/>
</linearGradient>
<linearGradient id="paint14_linear" x1="52.1346" y1="48.1269" x2="41.5541" y2="37.5464" gradientUnits="userSpaceOnUse">
<stop stop-color="#FFDA2D"/>
<stop offset="1" stop-color="#FDBF00"/>
</linearGradient>
<linearGradient id="paint15_linear" x1="40.1113" y1="46.5335" x2="12.756" y2="47.1935" gradientUnits="userSpaceOnUse">
<stop stop-color="#454545"/>
<stop offset="0.445" stop-color="#5F4843"/>
<stop offset="0.510417" stop-color="#5D4642"/>
<stop offset="1" stop-color="#503837"/>
</linearGradient>
<linearGradient id="paint16_linear" x1="47.4981" y1="50.7007" x2="47.4981" y2="53.8953" gradientUnits="userSpaceOnUse">
<stop stop-color="#FF9100" stop-opacity="0"/>
<stop offset="1" stop-color="#FF9100"/>
</linearGradient>
<linearGradient id="paint17_linear" x1="47.5" y1="67.3002" x2="47.5" y2="72.3082" gradientUnits="userSpaceOnUse">
<stop stop-color="#B5DBFF" stop-opacity="0"/>
<stop offset="0.1734" stop-color="#2A58D0" stop-opacity="0.173"/>
<stop offset="0.4541" stop-color="#272ECD" stop-opacity="0.454"/>
<stop offset="0.6955" stop-color="#1548CB" stop-opacity="0.696"/>
<stop offset="0.8853" stop-color="#0630DB"/>
<stop offset="1" stop-color="#1B46F8"/>
</linearGradient>
<clipPath id="clip0">
<rect width="59" height="59" fill="white" transform="translate(18 18)"/>
</clipPath>
</defs>
</svg>
