<svg width="95" height="95" viewBox="0 0 95 95" fill="none" xmlns="http://www.w3.org/2000/svg">
<rect width="95" height="95" rx="5" fill="#F4F4F4"/>
<mask id="mask0" mask-type="alpha" maskUnits="userSpaceOnUse" x="0" y="0" width="95" height="95">
<rect width="95" height="95" rx="5" fill="#F4F4F4"/>
</mask>
<g mask="url(#mask0)">
<rect x="80.3789" y="51.7515" width="84.4133" height="84.4133" rx="5" transform="rotate(135 80.3789 51.7515)" fill="white" fill-opacity="0.4"/>
<rect x="145.379" y="-13.292" width="84.4133" height="84.4133" rx="5" transform="rotate(135 145.379 -13.292)" fill="white" fill-opacity="0.4"/>
</g>
<path d="M48.0003 73.9998C58.7506 73.9998 67.4654 72.1258 67.4654 69.8141C67.4654 67.5024 58.7506 65.6284 48.0003 65.6284C37.25 65.6284 28.5352 67.5024 28.5352 69.8141C28.5352 72.1258 37.25 73.9998 48.0003 73.9998Z" fill="url(#paint0_linear)"/>
<path d="M67.4649 69.8141C67.4649 67.5025 58.7501 65.6284 47.9998 65.6284C46.2114 65.6284 44.48 65.6805 42.835 65.7777L46.4785 71.138C46.5802 71.2875 46.6989 71.4156 46.8291 71.5235L49.2959 73.9903C59.4417 73.8469 67.4649 72.0322 67.4649 69.8141Z" fill="url(#paint1_linear)"/>
<path d="M69.3331 43.3345C69.3331 31.5518 59.7814 22 47.9987 22C36.2673 22 26.7828 31.3848 26.6652 43.1157C26.5764 51.9756 31.8892 59.6041 39.5118 62.9126C40.7873 63.4662 41.8784 64.3725 42.6602 65.5225L46.4774 71.1382C47.2073 72.2119 48.7898 72.2119 49.5198 71.1382L53.3369 65.5226C54.1162 64.3761 55.2015 63.4689 56.4735 62.9178C64.0396 59.6391 69.3331 52.1056 69.3331 43.3345Z" fill="url(#paint2_linear)"/>
<path d="M48.0018 70.8798C47.8782 70.8798 47.5683 70.8466 47.3598 70.5399L43.5427 64.9241C42.645 63.6035 41.3986 62.5705 39.9384 61.9368C32.441 58.6825 27.6495 51.2987 27.7315 43.1256C27.7855 37.7344 29.9151 32.6872 33.7278 28.9137C37.5401 25.1407 42.6099 23.0625 48.0018 23.0625H48.0019C59.1796 23.0625 68.2733 32.1563 68.2733 43.3339C68.2733 51.4212 63.4769 58.7251 56.0541 61.9417C54.6021 62.5709 53.3597 63.6022 52.461 64.9243L48.6439 70.54C48.4354 70.8466 48.1254 70.8798 48.0018 70.8798Z" fill="url(#paint3_linear)"/>
<path d="M47.9996 56.7452C55.4061 56.7452 61.4103 50.7411 61.4103 43.3345C61.4103 35.928 55.4061 29.9238 47.9996 29.9238C40.593 29.9238 34.5889 35.928 34.5889 43.3345C34.5889 50.7411 40.593 56.7452 47.9996 56.7452Z" fill="url(#paint4_linear)"/>
<path d="M68.6669 48.6461L55.9257 35.9049C53.9436 33.7912 51.1262 32.4702 47.9999 32.4702C41.9998 32.4702 37.1357 37.3343 37.1357 43.3343C37.1357 46.4607 38.4567 49.278 40.5704 51.2602L53.9982 64.688C54.6882 63.9334 55.5299 63.327 56.4748 62.9176C62.4588 60.3245 67.0206 55.0695 68.6669 48.6461Z" fill="url(#paint5_linear)"/>
<path d="M47.9999 54.1985C54 54.1985 58.864 49.3344 58.864 43.3344C58.864 37.3343 54 32.4702 47.9999 32.4702C41.9998 32.4702 37.1357 37.3343 37.1357 43.3344C37.1357 49.3344 41.9998 54.1985 47.9999 54.1985Z" fill="url(#paint6_linear)"/>
<defs>
<linearGradient id="paint0_linear" x1="52.6745" y1="71.758" x2="47.3874" y2="61.1078" gradientUnits="userSpaceOnUse">
<stop stop-color="#2E56FC"/>
<stop offset="1" stop-color="#476BFF"/>
</linearGradient>
<linearGradient id="paint1_linear" x1="58.1072" y1="71.7511" x2="51.6693" y2="63.5371" gradientUnits="userSpaceOnUse">
<stop stop-color="#2E56FC"/>
<stop offset="1" stop-color="#476BFF"/>
</linearGradient>
<linearGradient id="paint2_linear" x1="35.1223" y1="30.4574" x2="77.6908" y2="73.026" gradientUnits="userSpaceOnUse">
<stop stop-color="#FF7044"/>
<stop offset="1" stop-color="#F92814"/>
</linearGradient>
<linearGradient id="paint3_linear" x1="43.4266" y1="38.7706" x2="28.4676" y2="23.8115" gradientUnits="userSpaceOnUse">
<stop stop-color="#FF7044" stop-opacity="0"/>
<stop offset="1" stop-color="#FFA425"/>
</linearGradient>
<linearGradient id="paint4_linear" x1="56.0861" y1="51.421" x2="29.3389" y2="24.6739" gradientUnits="userSpaceOnUse">
<stop stop-color="#FF7044"/>
<stop offset="1" stop-color="#F92814"/>
</linearGradient>
<linearGradient id="paint5_linear" x1="61.9518" y1="57.2862" x2="50.0971" y2="45.4316" gradientUnits="userSpaceOnUse">
<stop stop-color="#F92814" stop-opacity="0"/>
<stop offset="1" stop-color="#C1272D"/>
</linearGradient>
<linearGradient id="paint6_linear" x1="45.3403" y1="39.2786" x2="51.7602" y2="49.0688" gradientUnits="userSpaceOnUse">
<stop stop-color="#F9F7FC"/>
<stop offset="1" stop-color="#F0DDFC"/>
</linearGradient>
</defs>
</svg>
