<?xml version="1.0" encoding="utf-8"?>
<!-- Generator: Adobe Illustrator 22.1.0, SVG Export Plug-In . SVG Version: 6.00 Build 0)  -->
<svg version="1.1" id="Слой_1" xmlns="http://www.w3.org/2000/svg" xmlns:xlink="http://www.w3.org/1999/xlink" x="0px" y="0px"
	 viewBox="0 0 150 133.4" style="enable-background:new 0 0 150 133.4;" xml:space="preserve">
<style type="text/css">
	.st0{fill:#36A2DA;}
	.st1{fill:#EC8B00;}
</style>
<path class="st0" d="M7.8,15.2C11.1,6.7,19.7,0.2,28.9,0c9.7-0.2,18.3,6,25.6,12.3c7.4,6.3,14.8,13.4,24.3,15.5
	c11.4,2.6,23.2-2.5,34.8-1.9c16,0.9,30.2,13.3,34.7,28.6c4.5,15.3-0.2,32.5-10.5,44.7c-10.3,12.2-25.7,19.6-41.5,21.8
	c-17.7,2.5-36.8-1.5-50.3-13.2c-7.4-6.4-12.7-15.3-15-24.8c-1.8-7.6-0.3-15.8-2.5-23.2c-2.4-7.9-9.9-10.7-15-16.5
	C6.8,35.9,4.1,24.8,7.8,15.2z"/>
<path class="st1" d="M16,29.3c-4.3,4-7.8,9.1-10,14.4c-3.2,7.5-4.5,15.5-5.4,23.6c-3,26,5.1,56,33.2,64c18.8,5.4,39.2-0.1,56.5-8.1
	c25.3-11.7,61-48.1,31.2-75.1c-16-14.5-41.9-9-60.8-17c-8.9-3.7-17.2-10.5-27.3-9.7C26.6,21.9,20.7,24.9,16,29.3z"/>
</svg>
