<?xml version="1.0" encoding="utf-8"?>
<!-- Generator: Adobe Illustrator 22.1.0, SVG Export Plug-In . SVG Version: 6.00 Build 0)  -->
<svg version="1.1" id="Слой_1" xmlns="http://www.w3.org/2000/svg" xmlns:xlink="http://www.w3.org/1999/xlink" x="0px" y="0px"
	 viewBox="0 0 143.8 149" style="enable-background:new 0 0 143.8 149;" xml:space="preserve">
<style type="text/css">
	.st0{fill:#36A2DA;}
	.st1{fill:#EC8B00;}
</style>
<path class="st0" d="M6.5,109.9c-6.3-6.7-8.4-17.2-4.5-25.6c4-8.8,13.4-13.9,22.3-17.7c8.9-3.9,18.5-7.5,24.5-15.1
	c7.2-9.1,7.8-22,13.4-32.2C69.9,5.3,87.2-2.1,103,0.5c15.7,2.6,29.2,14.3,35.7,28.9c6.5,14.6,6.5,31.6,1.6,46.9
	c-5.5,17-17.3,32.5-33.7,39.6c-9,3.9-19.3,4.8-28.9,2.7c-7.6-1.7-14.4-6.6-22-7.8c-8.1-1.2-14,4.3-21.4,6.4
	C24.6,119.8,13.4,117.4,6.5,109.9z"/>
<path class="st1" d="M112.1,30.3c-4.2-4.1-9.4-7.3-14.8-9.3c-7.6-2.8-15.7-3.7-23.8-4.3C47.3,15.1,17.7,24.6,11,53
	c-4.5,19.1,2,39.2,10.8,56c12.9,24.7,51,58.6,76.5,27.5c13.8-16.7,7-42.3,14-61.6c3.3-9.1,9.7-17.7,8.4-27.8
	C119.9,40.5,116.6,34.9,112.1,30.3z"/>
</svg>
