<?xml version="1.0" encoding="utf-8"?>
<!-- Generator: Adobe Illustrator 22.1.0, SVG Export Plug-In . SVG Version: 6.00 Build 0)  -->
<svg version="1.1" id="Слой_1" xmlns="http://www.w3.org/2000/svg" xmlns:xlink="http://www.w3.org/1999/xlink" x="0px" y="0px"
	 viewBox="0 0 124 207" style="enable-background:new 0 0 124 207;" xml:space="preserve">
<style type="text/css">
	.st0{opacity:0.1;fill:#2E5175;enable-background:new    ;}
	.st1{fill:#4F8CA5;}
	.st2{fill:#7DADBB;}
	.st3{fill:#2E5175;}
	.st4{fill:#EDEAE8;}
	.st5{fill:#B3BDC3;}
</style>
<g id="Group">
	<path id="Vector" class="st0" d="M113.8,200.5c0,3.5-22.6,6.4-50.4,6.4c-27.8,0-50.4-2.8-50.4-6.4c0-3.5,22.6-6.4,50.4-6.4
		C91.3,194,113.8,196.9,113.8,200.5z"/>
	<g id="Group_2">
		<g id="Group_3">
			<path id="Vector_2_1_" class="st1" d="M67.6,147.4"/>
			<path id="Vector_3_1_" class="st2" d="M67.7,147.4c0.3,0,0.6,0,0.9-0.1"/>
			<path id="Vector_4_1_" class="st3" d="M66.7,144c0.1,0.7,1.1,0.4,1.1-0.3"/>
		</g>
		<g id="Group_4">
			<path id="Vector_9_1_" class="st1" d="M76.4,144.3"/>
			<path id="Vector_10_1_" class="st2" d="M76.4,144.3c0.3,0.1,0.4,0.3,0.7,0.3"/>
			<path id="Vector_11_1_" class="st3" d="M77.1,141.4c-0.1,0.6,0.6,0.9,0.9,0.3"/>
		</g>
		<g id="Group_5">
			<path id="Vector_16_1_" class="st1" d="M48,143.2"/>
			<path id="Vector_17_1_" class="st2" d="M48.2,143.1c0.1-0.1,0.4-0.1,0.6-0.3"/>
			<path id="Vector_18_1_" class="st3" d="M46.5,140.9c0.3,0.4,1,0.1,0.7-0.3"/>
		</g>
		<g id="Group_6">
			<path id="Vector_23" class="st4" d="M107,171.4v-36.2H19.8v4.7l60.7,60.7C95.4,199.2,107,186.7,107,171.4z"/>
			<path id="Vector_24" class="st5" d="M19.8,139.9v31.5c0,16.3,13.2,29.4,29.4,29.4h28.5c1,0,1.8,0,2.8-0.1L19.8,139.9z"/>
		</g>
	</g>
</g>
</svg>
