<?xml version="1.0" encoding="utf-8"?>
<!-- Generator: Adobe Illustrator 22.1.0, SVG Export Plug-In . SVG Version: 6.00 Build 0)  -->
<svg version="1.1" id="Layer_1" xmlns="http://www.w3.org/2000/svg" xmlns:xlink="http://www.w3.org/1999/xlink" x="0px" y="0px"
	 viewBox="0 0 766.6 769.2" style="enable-background:new 0 0 766.6 769.2;" xml:space="preserve">
<style type="text/css">
	.st0{fill:#8BD6EA;}
	.st1{fill:#DDB266;}
	.st2{fill:#FFD894;}
	.st3{fill:#AA472D;}
	.st4{fill:#6DD3E2;}
	.st5{fill:#FFE9C5;}
	.st6{opacity:0.2;}
	.st7{opacity:0.2;fill:#4D5A85;enable-background:new    ;}
	.st8{fill:none;stroke:#AB5306;stroke-width:3;stroke-miterlimit:10;}
	.st9{fill:#FFBA7B;}
	.st10{fill:#E28A32;}
	.st11{fill:#A4F4FF;}
	.st12{fill:#FFBB22;}
	.st13{fill:#C26109;}
	.st14{fill:#EDE1CD;}
	.st15{fill:#D2C0A5;}
	.st16{fill:none;stroke:#A68B67;stroke-width:3;stroke-linecap:round;stroke-linejoin:round;stroke-miterlimit:10;}
	.st17{fill:#B39A7B;}
	.st18{fill:#2C5E8A;}
	.st19{fill:none;stroke:#61ADDB;stroke-miterlimit:10;}
	.st20{fill:#72888A;}
	.st21{fill:#94DEE2;}
	.st22{fill:#587173;}
	.st23{fill:#5582A3;}
	.st24{fill:#3A6C8A;}
	.st25{fill:#71E5FF;}
	.st26{fill:#23556E;}
	.st27{fill:#DB472A;}
	.st28{fill:none;stroke:#E28A32;stroke-width:2;stroke-linecap:round;stroke-miterlimit:10;}
	.st29{fill:#D03E21;}
	.st30{fill:none;stroke:#FFC876;stroke-width:2;stroke-miterlimit:10;}
	.st31{fill:#82E4F4;}
	.st32{fill:#C5FCFF;}
	.st33{fill:#3F7380;}
	.st34{fill:#44C2CF;}
	.st35{fill:#54C3CF;}
	.st36{fill:none;stroke:#FFFFFF;stroke-miterlimit:10;}
	.st37{fill:#2AAAB0;}
	.st38{fill:none;stroke:#54C3CF;stroke-miterlimit:10;}
	.st39{fill:#245778;}
	.st40{fill:#2C6B8F;}
	.st41{fill:#3789B3;}
	.st42{fill:#4C90C2;}
	.st43{fill:#0E314A;}
	.st44{fill:#0E3B5C;}
	.st45{fill:#171F23;}
	.st46{fill:#283640;}
	.st47{fill:#FFFFFF;}
	.st48{fill:#66D1F2;}
	.st49{fill:#47A4CA;}
	.st50{fill:#454F78;}
	.st51{fill:#A34745;}
	.st52{fill:#E48868;}
	.st53{fill:#ECE0D3;}
	.st54{fill:#639BDA;}
	.st55{fill:#E8A12B;}
</style>
<g>
	<path class="st0" d="M695,373.8h-33.2v44.7H695V373.8z"/>
	<path class="st0" d="M512.5,219.1h-33.7v199.8h33.7V219.1z"/>
	<path class="st1" d="M645.8,224c0,1.1,0.9,2.1,2.1,2.1c1.1,0,2.1-0.9,2.1-2.1v-13.3c0-1.1-0.9-2.1-2.1-2.1c-1.1,0-2.1,0.9-2.1,2.1
		V224z"/>
	<path class="st1" d="M589.7,224c0,1.1,0.9,2.1,2.1,2.1c1.1,0,2.1-0.9,2.1-2.1v-13.3c0-1.1-0.9-2.1-2.1-2.1c-1.1,0-2.1,0.9-2.1,2.1
		V224z"/>
	<path class="st1" d="M600.4,180c0,1.1,0.9,2.1,2.1,2.1s2.1-0.9,2.1-2.1v-13.3c0-1.1-0.9-2.1-2.1-2.1s-2.1,0.9-2.1,2.1V180z"/>
	<path class="st1" d="M635.1,180c0,1.1,0.9,2.1,2.1,2.1c1.1,0,2.1-0.9,2.1-2.1v-13.3c0-1.1-0.9-2.1-2.1-2.1c-1.1,0-2.1,0.9-2.1,2.1
		V180z"/>
	<path class="st2" d="M649.9,216.2h-60.2v202.7h60.2V216.2z"/>
	<path class="st2" d="M639.2,170.2h-38.8v46h38.8V170.2z"/>
	<path class="st3" d="M606.6,170.2l13.2-40.5l13.1,40.5H606.6z"/>
	<path class="st4" d="M609.5,175.1c-1.8,0-3.2,1.5-3.2,3.2v6.6h6.4v-6.6C612.7,176.5,611.3,175.1,609.5,175.1z"/>
	<path class="st4" d="M619.8,175.1c-1.8,0-3.2,1.5-3.2,3.2v6.6h6.4v-6.6C623,176.5,621.6,175.1,619.8,175.1z"/>
	<path class="st4" d="M630,175.1c-1.8,0-3.2,1.5-3.2,3.2v6.6h6.4v-6.6C633.2,176.5,631.7,175.1,630,175.1z"/>
	<path class="st4" d="M609.5,189c-1.8,0-3.2,1.5-3.2,3.2v6.6h6.4v-6.6C612.7,190.4,611.3,189,609.5,189z"/>
	<path class="st4" d="M619.8,189c-1.8,0-3.2,1.5-3.2,3.2v6.6h6.4v-6.6C623,190.4,621.6,189,619.8,189z"/>
	<path class="st4" d="M630,189c-1.8,0-3.2,1.5-3.2,3.2v6.6h6.4v-6.6C633.2,190.4,631.7,189,630,189z"/>
	<path class="st4" d="M609.5,202.3c-1.8,0-3.2,1.5-3.2,3.2v6.6h6.4v-6.6C612.7,203.6,611.3,202.3,609.5,202.3z"/>
	<path class="st4" d="M619.8,202.3c-1.8,0-3.2,1.5-3.2,3.2v6.6h6.4v-6.6C623,203.6,621.6,202.3,619.8,202.3z"/>
	<path class="st4" d="M630,202.3c-1.8,0-3.2,1.5-3.2,3.2v6.6h6.4v-6.6C633.2,203.6,631.7,202.3,630,202.3z"/>
	<path class="st4" d="M600.8,223.9c-2.1,0-3.8,1.8-3.8,3.8v7.9h7.7v-7.9C604.6,225.6,603,223.9,600.8,223.9z"/>
	<path class="st4" d="M613.1,223.9c-2.1,0-3.8,1.8-3.8,3.8v7.9h7.7v-7.9C617,225.6,615.2,223.9,613.1,223.9z"/>
	<path class="st4" d="M625.4,223.9c-2.1,0-3.8,1.8-3.8,3.8v7.9h7.7v-7.9C629.2,225.6,627.5,223.9,625.4,223.9z"/>
	<path class="st4" d="M600.8,240.7c-2.1,0-3.8,1.8-3.8,3.8v7.9h7.7v-7.9C604.6,242.5,603,240.7,600.8,240.7z"/>
	<path class="st4" d="M613.1,240.7c-2.1,0-3.8,1.8-3.8,3.8v7.9h7.7v-7.9C617,242.5,615.2,240.7,613.1,240.7z"/>
	<path class="st4" d="M625.4,240.7c-2.1,0-3.8,1.8-3.8,3.8v7.9h7.7v-7.9C629.2,242.5,627.5,240.7,625.4,240.7z"/>
	<path class="st4" d="M600.8,256.6c-2.1,0-3.8,1.8-3.8,3.8v7.9h7.7v-7.9C604.6,258.4,603,256.6,600.8,256.6z"/>
	<path class="st4" d="M613.1,256.6c-2.1,0-3.8,1.8-3.8,3.8v7.9h7.7v-7.9C617,258.4,615.2,256.6,613.1,256.6z"/>
	<path class="st4" d="M625.4,256.6c-2.1,0-3.8,1.8-3.8,3.8v7.9h7.7v-7.9C629.2,258.4,627.5,256.6,625.4,256.6z"/>
	<path class="st4" d="M637.7,223.9c-2.1,0-3.8,1.8-3.8,3.8v7.9h7.7v-7.9C641.5,225.6,639.7,223.9,637.7,223.9z"/>
	<path class="st4" d="M637.7,240.7c-2.1,0-3.8,1.8-3.8,3.8v7.9h7.7v-7.9C641.5,242.5,639.7,240.7,637.7,240.7z"/>
	<path class="st4" d="M637.7,256.6c-2.1,0-3.8,1.8-3.8,3.8v7.9h7.7v-7.9C641.5,258.4,639.7,256.6,637.7,256.6z"/>
	<path class="st4" d="M600.8,274.5c-2.1,0-3.8,1.8-3.8,3.8v7.9h7.7v-7.9C604.6,276.2,603,274.5,600.8,274.5z"/>
	<path class="st4" d="M613.1,274.5c-2.1,0-3.8,1.8-3.8,3.8v7.9h7.7v-7.9C617,276.2,615.2,274.5,613.1,274.5z"/>
	<path class="st4" d="M625.4,274.5c-2.1,0-3.8,1.8-3.8,3.8v7.9h7.7v-7.9C629.2,276.2,627.5,274.5,625.4,274.5z"/>
	<path class="st4" d="M600.8,291.3c-2.1,0-3.8,1.8-3.8,3.8v7.9h7.7v-7.9C604.6,292.9,603,291.3,600.8,291.3z"/>
	<path class="st4" d="M613.1,291.3c-2.1,0-3.8,1.8-3.8,3.8v7.9h7.7v-7.9C617,292.9,615.2,291.3,613.1,291.3z"/>
	<path class="st4" d="M625.4,291.3c-2.1,0-3.8,1.8-3.8,3.8v7.9h7.7v-7.9C629.2,292.9,627.5,291.3,625.4,291.3z"/>
	<path class="st4" d="M600.8,307.2c-2.1,0-3.8,1.8-3.8,3.8v7.9h7.7V311C604.6,308.8,603,307.2,600.8,307.2z"/>
	<path class="st4" d="M613.1,307.2c-2.1,0-3.8,1.8-3.8,3.8v7.9h7.7V311C617,308.8,615.2,307.2,613.1,307.2z"/>
	<path class="st4" d="M625.4,307.2c-2.1,0-3.8,1.8-3.8,3.8v7.9h7.7V311C629.2,308.8,627.5,307.2,625.4,307.2z"/>
	<path class="st4" d="M637.7,274.5c-2.1,0-3.8,1.8-3.8,3.8v7.9h7.7v-7.9C641.5,276.2,639.7,274.5,637.7,274.5z"/>
	<path class="st4" d="M637.7,291.3c-2.1,0-3.8,1.8-3.8,3.8v7.9h7.7v-7.9C641.5,292.9,639.7,291.3,637.7,291.3z"/>
	<path class="st4" d="M637.7,307.2c-2.1,0-3.8,1.8-3.8,3.8v7.9h7.7V311C641.5,308.8,639.7,307.2,637.7,307.2z"/>
	<path class="st4" d="M600.8,325c-2.1,0-3.8,1.8-3.8,3.8v7.9h7.7v-7.8C604.6,326.7,603,325,600.8,325z"/>
	<path class="st4" d="M613.1,325c-2.1,0-3.8,1.8-3.8,3.8v7.9h7.7v-7.8C617,326.7,615.2,325,613.1,325z"/>
	<path class="st4" d="M625.4,325c-2.1,0-3.8,1.8-3.8,3.8v7.9h7.7v-7.8C629.2,326.7,627.5,325,625.4,325z"/>
	<path class="st4" d="M600.8,341.9c-2.1,0-3.8,1.8-3.8,3.8v7.9h7.7v-7.9C604.6,343.5,603,341.9,600.8,341.9z"/>
	<path class="st4" d="M613.1,341.9c-2.1,0-3.8,1.8-3.8,3.8v7.9h7.7v-7.9C617,343.5,615.2,341.9,613.1,341.9z"/>
	<path class="st4" d="M625.4,341.9c-2.1,0-3.8,1.8-3.8,3.8v7.9h7.7v-7.9C629.2,343.5,627.5,341.9,625.4,341.9z"/>
	<path class="st4" d="M600.8,357.7c-2.1,0-3.8,1.8-3.8,3.8v7.9h7.7v-7.9C604.6,359.4,603,357.7,600.8,357.7z"/>
	<path class="st4" d="M613.1,357.7c-2.1,0-3.8,1.8-3.8,3.8v7.9h7.7v-7.9C617,359.4,615.2,357.7,613.1,357.7z"/>
	<path class="st4" d="M625.4,357.7c-2.1,0-3.8,1.8-3.8,3.8v7.9h7.7v-7.9C629.2,359.4,627.5,357.7,625.4,357.7z"/>
	<path class="st4" d="M637.7,325c-2.1,0-3.8,1.8-3.8,3.8v7.9h7.7v-7.8C641.5,326.7,639.7,325,637.7,325z"/>
	<path class="st4" d="M637.7,341.9c-2.1,0-3.8,1.8-3.8,3.8v7.9h7.7v-7.9C641.5,343.5,639.7,341.9,637.7,341.9z"/>
	<path class="st4" d="M637.7,357.7c-2.1,0-3.8,1.8-3.8,3.8v7.9h7.7v-7.9C641.5,359.4,639.7,357.7,637.7,357.7z"/>
	<path class="st1" d="M651.6,216.2h-63.7v2.9h63.7V216.2z"/>
	<path class="st1" d="M641.5,170.2h-42.9v2.3h42.9V170.2z"/>
	<path class="st5" d="M649.9,373.8h-60.2v45.1h60.2V373.8z"/>
	<path class="st1" d="M626.8,400.6h-14v17.9h14V400.6z"/>
	<g class="st6">
		<path class="st7" d="M649.9,216.2v-5.5c0-1.1-0.9-2.1-2.1-2.1c-1.1,0-2.1,0.9-2.1,2.1v5.5h-6.5v-36.1v-7.6h2.3v-2.3h-2.3v-3.4
			c0-1.1-0.9-2.1-2.1-2.1c-1.1,0-2.1,0.9-2.1,2.1v3.4h-2.1l-13.2-40.5v289.2h30.1v-45.2V224v-4.9h1.8v-2.9H649.9L649.9,216.2z"/>
	</g>
	<path class="st8" d="M524,243.2l-2.3,11.9"/>
	<path class="st8" d="M529.9,243.2l2.6,11.9"/>
	<path class="st9" d="M533.4,226.8h-12.8v18h12.8V226.8z"/>
	<path class="st10" d="M556.7,292.6v-38.4H510v38.4h-26.3v126.6H583V292.6H556.7z"/>
	<path class="st11" d="M522.8,259h-9.3v9.7h9.3V259z"/>
	<path class="st11" d="M538,259h-9.3v9.7h9.3V259z"/>
	<path class="st11" d="M553.3,259H544v9.7h9.3V259z"/>
	<path class="st11" d="M522.8,273.1h-9.3v9.7h9.3V273.1z"/>
	<path class="st11" d="M538,273.1h-9.3v9.7h9.3V273.1z"/>
	<path class="st11" d="M553.3,273.1H544v9.7h9.3V273.1z"/>
	<path class="st11" d="M522.8,287.3h-9.3v9.7h9.3V287.3z"/>
	<path class="st11" d="M538,287.3h-9.3v9.7h9.3V287.3z"/>
	<path class="st11" d="M553.3,287.3H544v9.7h9.3V287.3z"/>
	<path class="st11" d="M547.2,309.7h-9.3v9.7h9.3V309.7z"/>
	<path class="st11" d="M562.4,309.7h-9.3v9.7h9.3V309.7z"/>
	<path class="st11" d="M577.6,309.7h-9.3v9.7h9.3V309.7z"/>
	<path class="st11" d="M498.5,309.7h-9.4v9.7h9.3v-9.7H498.5z"/>
	<path class="st11" d="M513.7,309.7h-9.3v9.7h9.3V309.7z"/>
	<path class="st11" d="M528.9,309.7h-9.3v9.7h9.3V309.7z"/>
	<path class="st11" d="M547.2,323.4h-9.3v9.7h9.3V323.4z"/>
	<path class="st11" d="M562.4,323.4h-9.3v9.7h9.3V323.4z"/>
	<path class="st11" d="M577.6,323.4h-9.3v9.7h9.3V323.4z"/>
	<path class="st11" d="M498.5,323.4h-9.4v9.7h9.3v-9.7H498.5z"/>
	<path class="st11" d="M513.7,323.4h-9.3v9.7h9.3V323.4z"/>
	<path class="st11" d="M528.9,323.4h-9.3v9.7h9.3V323.4z"/>
	<path class="st11" d="M547.2,337h-9.3v9.7h9.3V337z"/>
	<path class="st11" d="M562.4,337h-9.3v9.7h9.3V337z"/>
	<path class="st11" d="M577.6,337h-9.3v9.7h9.3V337z"/>
	<path class="st11" d="M498.5,337h-9.4v9.7h9.3V337H498.5z"/>
	<path class="st11" d="M513.7,337h-9.3v9.7h9.3V337z"/>
	<path class="st11" d="M528.9,337h-9.3v9.7h9.3V337z"/>
	<path class="st11" d="M547.2,350.7h-9.3v9.7h9.3V350.7z"/>
	<path class="st11" d="M562.4,350.7h-9.3v9.7h9.3V350.7z"/>
	<path class="st11" d="M577.6,350.7h-9.3v9.7h9.3V350.7z"/>
	<path class="st11" d="M498.5,350.7h-9.4v9.7h9.3v-9.7H498.5z"/>
	<path class="st11" d="M513.7,350.7h-9.3v9.7h9.3V350.7z"/>
	<path class="st11" d="M528.9,350.7h-9.3v9.7h9.3V350.7z"/>
	<path class="st11" d="M547.2,364.4h-9.3v9.7h9.3V364.4z"/>
	<path class="st11" d="M562.4,364.4h-9.3v9.7h9.3V364.4z"/>
	<path class="st11" d="M577.6,364.4h-9.3v9.7h9.3V364.4z"/>
	<path class="st11" d="M498.5,364.4h-9.4v9.7h9.3v-9.7H498.5z"/>
	<path class="st11" d="M513.7,364.4h-9.3v9.7h9.3V364.4z"/>
	<path class="st11" d="M528.9,364.4h-9.3v9.7h9.3V364.4z"/>
	<path class="st11" d="M547.2,378h-9.3v9.7h9.3V378z"/>
	<path class="st11" d="M562.4,378h-9.3v9.7h9.3V378z"/>
	<path class="st11" d="M577.6,378h-9.3v9.7h9.3V378z"/>
	<path class="st11" d="M498.5,378h-9.4v9.7h9.3V378H498.5z"/>
	<path class="st11" d="M513.7,378h-9.3v9.7h9.3V378z"/>
	<path class="st11" d="M528.9,378h-9.3v9.7h9.3V378z"/>
	<path class="st12" d="M584.6,299.6H482.5v4.7h102.1V299.6z"/>
	<path class="st12" d="M584.6,391.5H482.5v3.1h102.1V391.5z"/>
	<path class="st13" d="M544.3,404h-21.8v15.3h21.8V404z"/>
	<path class="st7" d="M584.6,304.4v-4.8H583v-7h-26.3v-38.4h-23.2l-0.2,165.1H583v-24.5h1.6v-3.2H583v-87.2H584.6z"/>
	<path class="st14" d="M447.7,78.9h-6.2l1-78.9h4.2L447.7,78.9z"/>
	<path class="st14" d="M470.5,77.8h-71.7v340.7h71.7L470.5,77.8L470.5,77.8z"/>
	<path class="st15" d="M470.5,77.8h-71.7v28.6h71.7L470.5,77.8L470.5,77.8z"/>
	<path class="st16" d="M406.1,112.6h13.8"/>
	<path class="st16" d="M427.7,112.6h13.7"/>
	<path class="st16" d="M449.2,112.6H463"/>
	<path class="st16" d="M406.1,124.6h13.8"/>
	<path class="st16" d="M427.7,124.6h13.7"/>
	<path class="st16" d="M449.2,124.6H463"/>
	<path class="st16" d="M406.1,136.5h13.8"/>
	<path class="st16" d="M427.7,136.5h13.7"/>
	<path class="st16" d="M449.2,136.5H463"/>
	<path class="st16" d="M406.1,148.5h13.8"/>
	<path class="st16" d="M427.7,148.5h13.7"/>
	<path class="st16" d="M449.2,148.5H463"/>
	<path class="st16" d="M406.1,160.4h13.8"/>
	<path class="st16" d="M427.7,160.4h13.7"/>
	<path class="st16" d="M449.2,160.4H463"/>
	<path class="st16" d="M406.1,172.3h13.8"/>
	<path class="st16" d="M427.7,172.3h13.7"/>
	<path class="st16" d="M449.2,172.3H463"/>
	<path class="st16" d="M406.1,228.1h13.8"/>
	<path class="st16" d="M427.7,228.1h13.7"/>
	<path class="st16" d="M449.2,228.1H463"/>
	<path class="st16" d="M406.1,240.1h13.8"/>
	<path class="st16" d="M427.7,240.1h13.7"/>
	<path class="st16" d="M449.2,240.1H463"/>
	<path class="st16" d="M406.1,253.1h13.8"/>
	<path class="st16" d="M427.7,253.1h13.7"/>
	<path class="st16" d="M449.2,253.1H463"/>
	<path class="st16" d="M406.1,266h13.8"/>
	<path class="st16" d="M427.7,266h13.7"/>
	<path class="st16" d="M449.2,266H463"/>
	<path class="st16" d="M406.1,279h13.8"/>
	<path class="st16" d="M427.7,279h13.7"/>
	<path class="st16" d="M449.2,279H463"/>
	<path class="st16" d="M406.1,292h13.8"/>
	<path class="st16" d="M427.7,292h13.7"/>
	<path class="st16" d="M449.2,292H463"/>
	<path class="st16" d="M406.1,305h13.8"/>
	<path class="st16" d="M427.7,305h13.7"/>
	<path class="st16" d="M449.2,305H463"/>
	<path class="st16" d="M406.1,318h13.8"/>
	<path class="st16" d="M427.7,318h13.7"/>
	<path class="st16" d="M449.2,318H463"/>
	<path class="st16" d="M406.1,331h13.8"/>
	<path class="st16" d="M427.7,331h13.7"/>
	<path class="st16" d="M449.2,331H463"/>
	<path class="st16" d="M406.1,344h13.8"/>
	<path class="st16" d="M427.7,344h13.7"/>
	<path class="st16" d="M449.2,344H463"/>
	<path class="st16" d="M406.1,356.9h13.8"/>
	<path class="st16" d="M427.7,356.9h13.7"/>
	<path class="st16" d="M449.2,356.9H463"/>
	<path class="st16" d="M406.1,369.9h13.8"/>
	<path class="st16" d="M427.7,369.9h13.7"/>
	<path class="st16" d="M449.2,369.9H463"/>
	<path class="st16" d="M406.1,382.9h13.8"/>
	<path class="st16" d="M427.7,382.9h13.7"/>
	<path class="st16" d="M449.2,382.9H463"/>
	<path class="st16" d="M406.1,395.9h13.8"/>
	<path class="st16" d="M427.7,395.9h13.7"/>
	<path class="st16" d="M449.2,395.9H463"/>
	<path class="st15" d="M470.5,179.6h-71.7v5.2h71.7L470.5,179.6L470.5,179.6z"/>
	<path class="st15" d="M470.5,215.7h-71.7v5.2h71.7L470.5,215.7L470.5,215.7z"/>
	<path class="st17" d="M441.5,408.7h-13.8v9.9h13.8V408.7z"/>
	<path class="st7" d="M470.5,77.8h-35.9v340.7h35.9V77.8z"/>
	<path class="st0" d="M125.6,291.6h-40v126.8h40V291.6z"/>
	<path class="st0" d="M301.5,188.3h-17.7v21.1h17.7V188.3z"/>
	<path class="st0" d="M305.7,206.3h-26.3V404h26.3V206.3z"/>
	<path class="st18" d="M367.8,241.9h-73.5v176.4h73.5V241.9z"/>
	<path class="st19" d="M294.2,254.8h73.4"/>
	<path class="st19" d="M294.2,267.6h73.4"/>
	<path class="st19" d="M294.2,280.4h73.4"/>
	<path class="st19" d="M294.2,293.3h73.4"/>
	<path class="st19" d="M294.2,306h73.4"/>
	<path class="st19" d="M294.2,318.8h73.4"/>
	<path class="st19" d="M294.2,331.7h73.4"/>
	<path class="st19" d="M294.2,344.5h73.4"/>
	<path class="st19" d="M294.2,357.2h73.4"/>
	<path class="st19" d="M294.2,370.1h73.4"/>
	<path class="st19" d="M294.2,382.9h73.4"/>
	<path class="st19" d="M294.2,395.7h73.4"/>
	<path class="st19" d="M316.3,242.2v153.4"/>
	<path class="st19" d="M330.3,242.2v153.4"/>
	<path class="st19" d="M344.3,242.2v153.4"/>
	<path class="st19" d="M358.3,242.2v153.4"/>
	<path class="st19" d="M303.5,242.2v153.4"/>
	<path class="st7" d="M367.7,241.9h-42.6v176.4h42.6V241.9z"/>
	<path class="st20" d="M270,206.3h-77.2v212.1H270V206.3z"/>
	<path class="st20" d="M262.3,173.4h-61.6v34h61.6V173.4z"/>
	<path class="st20" d="M254.5,152h-46v22.5h46V152z"/>
	<path class="st20" d="M245.4,136h-28v16.6h28V136z"/>
	<path class="st21" d="M215.4,213.3h-16.3v11.4h16.3V213.3z"/>
	<path class="st21" d="M239.1,213.3h-16.3v11.4h16.3V213.3z"/>
	<path class="st21" d="M246.5,213.2v11.4h16.3v-11.4H246.5z"/>
	<path class="st21" d="M219.8,180h-13.4v9.3h13.4V180z"/>
	<path class="st21" d="M239.2,180h-13.4v9.3h13.4V180z"/>
	<path class="st21" d="M258.6,180h-13.4v9.3h13.4V180z"/>
	<path class="st21" d="M222.3,153.9h-10v7h10V153.9z"/>
	<path class="st21" d="M236.8,153.9h-10v7h10V153.9z"/>
	<path class="st21" d="M251.3,153.9h-10v7h10V153.9z"/>
	<path class="st21" d="M222.3,164h-10v7h10V164z"/>
	<path class="st21" d="M236.8,164h-10v7h10V164z"/>
	<path class="st21" d="M251.3,164h-10v7h10V164z"/>
	<path class="st21" d="M219.8,193.1h-13.4v9.3h13.4V193.1z"/>
	<path class="st21" d="M239.2,193.1h-13.4v9.3h13.4V193.1z"/>
	<path class="st21" d="M258.6,193.1h-13.4v9.3h13.4V193.1z"/>
	<path class="st21" d="M215.4,232.5h-16.3v11.4h16.3V232.5z"/>
	<path class="st21" d="M239.1,232.5h-16.3v11.4h16.3V232.5z"/>
	<path class="st21" d="M262.8,232.5h-16.3v11.4h16.3V232.5z"/>
	<path class="st21" d="M215.4,251.7h-16.3v11.4h16.3V251.7z"/>
	<path class="st21" d="M239.1,251.7h-16.3v11.4h16.3V251.7z"/>
	<path class="st21" d="M262.8,251.7h-16.3v11.4h16.3V251.7z"/>
	<path class="st21" d="M215.4,270.9h-16.3v11.4h16.3V270.9z"/>
	<path class="st21" d="M239.1,270.9h-16.3v11.4h16.3V270.9z"/>
	<path class="st21" d="M262.8,270.9h-16.3v11.4h16.3V270.9z"/>
	<path class="st21" d="M215.4,290.1h-16.3v11.4h16.3V290.1z"/>
	<path class="st21" d="M239.1,290.1h-16.3v11.4h16.3V290.1z"/>
	<path class="st21" d="M262.8,290.1h-16.3v11.4h16.3V290.1z"/>
	<path class="st21" d="M215.4,309.4h-16.3v11.4h16.3V309.4z"/>
	<path class="st21" d="M239.1,309.4h-16.3v11.4h16.3V309.4z"/>
	<path class="st21" d="M262.8,309.4h-16.3v11.4h16.3V309.4z"/>
	<path class="st21" d="M215.4,328.6h-16.3V340h16.3V328.6z"/>
	<path class="st21" d="M239.1,328.6h-16.3V340h16.3V328.6z"/>
	<path class="st21" d="M262.8,328.6h-16.3V340h16.3V328.6z"/>
	<path class="st21" d="M215.4,347.8h-16.3v11.4h16.3V347.8z"/>
	<path class="st21" d="M239.1,347.8h-16.3v11.4h16.3V347.8z"/>
	<path class="st21" d="M262.8,347.8h-16.3v11.4h16.3V347.8z"/>
	<path class="st21" d="M215.4,367h-16.3v11.4h16.3V367z"/>
	<path class="st21" d="M239.1,367h-16.3v11.4h16.3V367z"/>
	<path class="st21" d="M262.8,367h-16.3v11.4h16.3V367z"/>
	<path class="st21" d="M215.4,386.2h-16.3v11.4h16.3V386.2z"/>
	<path class="st21" d="M239.1,386.2h-16.3v11.4h16.3V386.2z"/>
	<path class="st21" d="M262.8,386.2h-16.3v11.4h16.3V386.2z"/>
	<path class="st22" d="M247,404.7h-31.2v13.7H247V404.7z"/>
	<g class="st6">
		<path class="st7" d="M262.3,206.3v-32.9h-7.8V152h-9v-16h-13v137.1v145.3h37.6V206.3H262.3z"/>
	</g>
	<path class="st23" d="M94.8,337.5H60.2v15.3h34.6V337.5z"/>
	<path class="st24" d="M88.1,339.6H67v13.2h21.1V339.6z"/>
	<path class="st23" d="M107.7,351.7H47.4v67.2h60.2v-67.2H107.7z"/>
	<path class="st24" d="M105.7,353.3H49.3v47h56.4V353.3z"/>
	<path class="st25" d="M103.1,359.7c0,1.6-1.2,2.8-2.8,2.8H54.6c-1.6,0-2.8-1.2-2.8-2.8c0-1.6,1.2-2.8,2.8-2.8h45.7
		C101.9,356.9,103.1,358.2,103.1,359.7z"/>
	<path class="st25" d="M103.1,367.8c0,1.6-1.2,2.8-2.8,2.8H54.6c-1.6,0-2.8-1.2-2.8-2.8c0-1.6,1.2-2.8,2.8-2.8h45.7
		C101.9,365,103.1,366.3,103.1,367.8z"/>
	<path class="st25" d="M103.1,375.9c0,1.6-1.2,2.8-2.8,2.8H54.6c-1.6,0-2.8-1.2-2.8-2.8c0-1.6,1.2-2.8,2.8-2.8h45.7
		C101.9,373.2,103.1,374.5,103.1,375.9z"/>
	<path class="st25" d="M103.1,384.2c0,1.6-1.2,2.8-2.8,2.8H54.6c-1.6,0-2.8-1.2-2.8-2.8c0-1.6,1.2-2.8,2.8-2.8h45.7
		C101.9,381.3,103.1,382.6,103.1,384.2z"/>
	<path class="st25" d="M103.1,392.3c0,1.6-1.2,2.8-2.8,2.8H54.6c-1.6,0-2.8-1.2-2.8-2.8c0-1.6,1.2-2.8,2.8-2.8h45.7
		C101.9,389.4,103.1,390.7,103.1,392.3z"/>
	<path class="st26" d="M85.6,404H69.5v14.9h16.1V404z"/>
	<path class="st7" d="M77.6,337.5v81.4h30.1v-67.2H94.8v-14.2L77.6,337.5L77.6,337.5z"/>
	<path class="st27" d="M136.4,244c0-1.1-0.9-2.1-2.1-2.1h-6.8c-1.1,0-2.1,0.9-2.1,2.1s0.9,2.1,2.1,2.1h6.8
		C135.4,246.1,136.4,245.2,136.4,244z"/>
	<path class="st27" d="M132.1,171.2h-2.2v71.9h2.2V171.2z"/>
	<path class="st10" d="M217.6,244H112.7v174.8h104.9V244z"/>
	<path class="st10" d="M217.6,244H112.7v156.1h104.9V244z"/>
	<path class="st25" d="M131.7,254.8c0,0.7-0.6,1.2-1.2,1.2h-9.7c-0.7,0-1.2-0.6-1.2-1.2V250c0-0.7,0.6-1.2,1.2-1.2h9.7
		c0.7,0,1.2,0.6,1.2,1.2V254.8z"/>
	<path class="st25" d="M147.6,254.8c0,0.7-0.6,1.2-1.2,1.2h-9.7c-0.7,0-1.2-0.6-1.2-1.2V250c0-0.7,0.6-1.2,1.2-1.2h9.7
		c0.7,0,1.2,0.6,1.2,1.2V254.8z"/>
	<path class="st25" d="M163.6,254.8c0,0.7-0.6,1.2-1.2,1.2h-9.7c-0.7,0-1.2-0.6-1.2-1.2V250c0-0.7,0.6-1.2,1.2-1.2h9.7
		c0.7,0,1.2,0.6,1.2,1.2V254.8z"/>
	<path class="st25" d="M179.6,254.8c0,0.7-0.6,1.2-1.2,1.2h-9.7c-0.7,0-1.2-0.6-1.2-1.2V250c0-0.7,0.6-1.2,1.2-1.2h9.7
		c0.7,0,1.2,0.6,1.2,1.2V254.8z"/>
	<path class="st25" d="M195.6,254.8c0,0.7-0.6,1.2-1.2,1.2h-9.7c-0.7,0-1.2-0.6-1.2-1.2V250c0-0.7,0.6-1.2,1.2-1.2h9.7
		c0.7,0,1.2,0.6,1.2,1.2V254.8z"/>
	<path class="st25" d="M211.5,254.8c0,0.7-0.6,1.2-1.2,1.2h-9.7c-0.7,0-1.2-0.6-1.2-1.2V250c0-0.7,0.6-1.2,1.2-1.2h9.7
		c0.7,0,1.2,0.6,1.2,1.2V254.8z"/>
	<path class="st25" d="M131.7,362.1c0,0.7-0.6,1.2-1.2,1.2h-9.7c-0.7,0-1.2-0.6-1.2-1.2v-4.8c0-0.7,0.6-1.2,1.2-1.2h9.7
		c0.7,0,1.2,0.6,1.2,1.2V362.1z"/>
	<path class="st25" d="M147.6,362.1c0,0.7-0.6,1.2-1.2,1.2h-9.7c-0.7,0-1.2-0.6-1.2-1.2v-4.8c0-0.7,0.6-1.2,1.2-1.2h9.7
		c0.7,0,1.2,0.6,1.2,1.2V362.1z"/>
	<path class="st25" d="M163.6,362.1c0,0.7-0.6,1.2-1.2,1.2h-9.7c-0.7,0-1.2-0.6-1.2-1.2v-4.8c0-0.7,0.6-1.2,1.2-1.2h9.7
		c0.7,0,1.2,0.6,1.2,1.2V362.1z"/>
	<path class="st25" d="M179.6,362.1c0,0.7-0.6,1.2-1.2,1.2h-9.7c-0.7,0-1.2-0.6-1.2-1.2v-4.8c0-0.7,0.6-1.2,1.2-1.2h9.7
		c0.7,0,1.2,0.6,1.2,1.2V362.1z"/>
	<path class="st25" d="M195.6,362.1c0,0.7-0.6,1.2-1.2,1.2h-9.7c-0.7,0-1.2-0.6-1.2-1.2v-4.8c0-0.7,0.6-1.2,1.2-1.2h9.7
		c0.7,0,1.2,0.6,1.2,1.2V362.1z"/>
	<path class="st25" d="M211.5,362.1c0,0.7-0.6,1.2-1.2,1.2h-9.7c-0.7,0-1.2-0.6-1.2-1.2v-4.8c0-0.7,0.6-1.2,1.2-1.2h9.7
		c0.7,0,1.2,0.6,1.2,1.2V362.1z"/>
	<path class="st25" d="M131.7,373c0,0.7-0.6,1.2-1.2,1.2h-9.7c-0.7,0-1.2-0.6-1.2-1.2v-4.8c0-0.7,0.6-1.2,1.2-1.2h9.7
		c0.7,0,1.2,0.6,1.2,1.2V373z"/>
	<path class="st25" d="M147.6,373c0,0.7-0.6,1.2-1.2,1.2h-9.7c-0.7,0-1.2-0.6-1.2-1.2v-4.8c0-0.7,0.6-1.2,1.2-1.2h9.7
		c0.7,0,1.2,0.6,1.2,1.2V373z"/>
	<path class="st25" d="M163.6,373c0,0.7-0.6,1.2-1.2,1.2h-9.7c-0.7,0-1.2-0.6-1.2-1.2v-4.8c0-0.7,0.6-1.2,1.2-1.2h9.7
		c0.7,0,1.2,0.6,1.2,1.2V373z"/>
	<path class="st25" d="M179.6,373c0,0.7-0.6,1.2-1.2,1.2h-9.7c-0.7,0-1.2-0.6-1.2-1.2v-4.8c0-0.7,0.6-1.2,1.2-1.2h9.7
		c0.7,0,1.2,0.6,1.2,1.2V373z"/>
	<path class="st25" d="M195.6,373c0,0.7-0.6,1.2-1.2,1.2h-9.7c-0.7,0-1.2-0.6-1.2-1.2v-4.8c0-0.7,0.6-1.2,1.2-1.2h9.7
		c0.7,0,1.2,0.6,1.2,1.2V373z"/>
	<path class="st25" d="M211.5,373c0,0.7-0.6,1.2-1.2,1.2h-9.7c-0.7,0-1.2-0.6-1.2-1.2v-4.8c0-0.7,0.6-1.2,1.2-1.2h9.7
		c0.7,0,1.2,0.6,1.2,1.2V373z"/>
	<path class="st25" d="M131.7,383.9c0,0.7-0.6,1.2-1.2,1.2h-9.7c-0.7,0-1.2-0.6-1.2-1.2v-4.8c0-0.7,0.6-1.2,1.2-1.2h9.7
		c0.7,0,1.2,0.6,1.2,1.2V383.9z"/>
	<path class="st25" d="M147.6,383.9c0,0.7-0.6,1.2-1.2,1.2h-9.7c-0.7,0-1.2-0.6-1.2-1.2v-4.8c0-0.7,0.6-1.2,1.2-1.2h9.7
		c0.7,0,1.2,0.6,1.2,1.2V383.9z"/>
	<path class="st25" d="M163.6,383.9c0,0.7-0.6,1.2-1.2,1.2h-9.7c-0.7,0-1.2-0.6-1.2-1.2v-4.8c0-0.7,0.6-1.2,1.2-1.2h9.7
		c0.7,0,1.2,0.6,1.2,1.2V383.9z"/>
	<path class="st25" d="M179.6,383.9c0,0.7-0.6,1.2-1.2,1.2h-9.7c-0.7,0-1.2-0.6-1.2-1.2v-4.8c0-0.7,0.6-1.2,1.2-1.2h9.7
		c0.7,0,1.2,0.6,1.2,1.2V383.9z"/>
	<path class="st25" d="M195.6,383.9c0,0.7-0.6,1.2-1.2,1.2h-9.7c-0.7,0-1.2-0.6-1.2-1.2v-4.8c0-0.7,0.6-1.2,1.2-1.2h9.7
		c0.7,0,1.2,0.6,1.2,1.2V383.9z"/>
	<path class="st25" d="M211.5,383.9c0,0.7-0.6,1.2-1.2,1.2h-9.7c-0.7,0-1.2-0.6-1.2-1.2v-4.8c0-0.7,0.6-1.2,1.2-1.2h9.7
		c0.7,0,1.2,0.6,1.2,1.2V383.9z"/>
	<path class="st25" d="M131.7,394.9c0,0.7-0.6,1.2-1.2,1.2h-9.7c-0.7,0-1.2-0.6-1.2-1.2v-4.8c0-0.7,0.6-1.2,1.2-1.2h9.7
		c0.7,0,1.2,0.6,1.2,1.2V394.9z"/>
	<path class="st25" d="M147.6,394.9c0,0.7-0.6,1.2-1.2,1.2h-9.7c-0.7,0-1.2-0.6-1.2-1.2v-4.8c0-0.7,0.6-1.2,1.2-1.2h9.7
		c0.7,0,1.2,0.6,1.2,1.2V394.9z"/>
	<path class="st25" d="M163.6,394.9c0,0.7-0.6,1.2-1.2,1.2h-9.7c-0.7,0-1.2-0.6-1.2-1.2v-4.8c0-0.7,0.6-1.2,1.2-1.2h9.7
		c0.7,0,1.2,0.6,1.2,1.2V394.9z"/>
	<path class="st25" d="M179.6,394.9c0,0.7-0.6,1.2-1.2,1.2h-9.7c-0.7,0-1.2-0.6-1.2-1.2v-4.8c0-0.7,0.6-1.2,1.2-1.2h9.7
		c0.7,0,1.2,0.6,1.2,1.2V394.9z"/>
	<path class="st25" d="M195.6,394.9c0,0.7-0.6,1.2-1.2,1.2h-9.7c-0.7,0-1.2-0.6-1.2-1.2v-4.8c0-0.7,0.6-1.2,1.2-1.2h9.7
		c0.7,0,1.2,0.6,1.2,1.2V394.9z"/>
	<path class="st25" d="M211.5,394.9c0,0.7-0.6,1.2-1.2,1.2h-9.7c-0.7,0-1.2-0.6-1.2-1.2v-4.8c0-0.7,0.6-1.2,1.2-1.2h9.7
		c0.7,0,1.2,0.6,1.2,1.2V394.9z"/>
	<path class="st25" d="M131.7,347.7c0,0.7-0.6,1.2-1.2,1.2h-9.7c-0.7,0-1.2-0.6-1.2-1.2v-84.6c0-0.7,0.6-1.2,1.2-1.2h9.7
		c0.7,0,1.2,0.6,1.2,1.2V347.7z"/>
	<path class="st28" d="M119.4,268.8h12.3"/>
	<path class="st28" d="M119.4,278h12.3"/>
	<path class="st28" d="M119.4,287.1h12.3"/>
	<path class="st28" d="M119.4,296.4h12.3"/>
	<path class="st28" d="M119.4,305.5h12.3"/>
	<path class="st28" d="M119.4,314.7h12.3"/>
	<path class="st28" d="M119.4,323.9h12.3"/>
	<path class="st28" d="M119.4,333h12.3"/>
	<path class="st28" d="M119.4,342.2h12.3"/>
	<path class="st25" d="M147.6,347.7c0,0.7-0.6,1.2-1.2,1.2h-9.7c-0.7,0-1.2-0.6-1.2-1.2v-84.6c0-0.7,0.6-1.2,1.2-1.2h9.7
		c0.7,0,1.2,0.6,1.2,1.2V347.7z"/>
	<path class="st28" d="M135.4,268.8h12.2"/>
	<path class="st28" d="M135.4,278h12.2"/>
	<path class="st28" d="M135.4,287.1h12.2"/>
	<path class="st28" d="M135.4,296.4h12.2"/>
	<path class="st28" d="M135.4,305.5h12.2"/>
	<path class="st28" d="M135.4,314.7h12.2"/>
	<path class="st28" d="M135.4,323.9h12.2"/>
	<path class="st28" d="M135.4,333h12.2"/>
	<path class="st28" d="M135.4,342.2h12.2"/>
	<path class="st25" d="M163.6,347.7c0,0.7-0.6,1.2-1.2,1.2h-9.7c-0.7,0-1.2-0.6-1.2-1.2v-84.6c0-0.7,0.6-1.2,1.2-1.2h9.7
		c0.7,0,1.2,0.6,1.2,1.2V347.7z"/>
	<path class="st28" d="M151.4,268.8h12.2"/>
	<path class="st28" d="M151.4,278h12.2"/>
	<path class="st28" d="M151.4,287.1h12.2"/>
	<path class="st28" d="M151.4,296.4h12.2"/>
	<path class="st28" d="M151.4,305.5h12.2"/>
	<path class="st28" d="M151.4,314.7h12.2"/>
	<path class="st28" d="M151.4,323.9h12.2"/>
	<path class="st28" d="M151.4,333h12.2"/>
	<path class="st28" d="M151.4,342.2h12.2"/>
	<path class="st25" d="M179.6,347.7c0,0.7-0.6,1.2-1.2,1.2h-9.7c-0.7,0-1.2-0.6-1.2-1.2v-84.6c0-0.7,0.6-1.2,1.2-1.2h9.7
		c0.7,0,1.2,0.6,1.2,1.2V347.7z"/>
	<path class="st28" d="M167.3,268.8h12.3"/>
	<path class="st28" d="M167.3,278h12.3"/>
	<path class="st28" d="M167.3,287.1h12.3"/>
	<path class="st28" d="M167.3,296.4h12.3"/>
	<path class="st28" d="M167.3,305.5h12.3"/>
	<path class="st28" d="M167.3,314.7h12.3"/>
	<path class="st28" d="M167.3,323.9h12.3"/>
	<path class="st28" d="M167.3,333h12.3"/>
	<path class="st28" d="M167.3,342.2h12.3"/>
	<path class="st25" d="M195.6,347.7c0,0.7-0.6,1.2-1.2,1.2h-9.7c-0.7,0-1.2-0.6-1.2-1.2v-84.6c0-0.7,0.6-1.2,1.2-1.2h9.7
		c0.7,0,1.2,0.6,1.2,1.2V347.7z"/>
	<path class="st28" d="M183.3,268.8h12.3"/>
	<path class="st28" d="M183.3,278h12.3"/>
	<path class="st28" d="M183.3,287.1h12.3"/>
	<path class="st28" d="M183.3,296.4h12.3"/>
	<path class="st28" d="M183.3,305.5h12.3"/>
	<path class="st28" d="M183.3,314.7h12.3"/>
	<path class="st28" d="M183.3,323.9h12.3"/>
	<path class="st28" d="M183.3,333h12.3"/>
	<path class="st28" d="M183.3,342.2h12.3"/>
	<path class="st25" d="M211.5,347.7c0,0.7-0.6,1.2-1.2,1.2h-9.7c-0.7,0-1.2-0.6-1.2-1.2v-84.6c0-0.7,0.6-1.2,1.2-1.2h9.7
		c0.7,0,1.2,0.6,1.2,1.2V347.7z"/>
	<path class="st28" d="M199.3,268.8h12.2"/>
	<path class="st28" d="M199.3,278h12.2"/>
	<path class="st28" d="M199.3,287.1h12.2"/>
	<path class="st28" d="M199.3,296.4h12.2"/>
	<path class="st28" d="M199.3,305.5h12.2"/>
	<path class="st28" d="M199.3,314.7h12.2"/>
	<path class="st28" d="M199.3,323.9h12.2"/>
	<path class="st28" d="M199.3,333h12.2"/>
	<path class="st28" d="M199.3,342.2h12.2"/>
	<path class="st29" d="M154.2,418.9v-11.4H176v11.4"/>
	<path class="st30" d="M112.7,352.3h104.9"/>
	<path class="st30" d="M112.7,258.6h104.9"/>
	<path class="st7" d="M217.6,243.9h-52.5v175h52.5V243.9z"/>
	<path class="st31" d="M309.5,287.1H243v131.7h66.5V287.1z"/>
	<path class="st32" d="M305.7,296h-58.2v7.5h58.2V296z"/>
	<path class="st32" d="M305.7,305.7h-58.2v7.5h58.2V305.7z"/>
	<path class="st32" d="M305.7,315.4h-58.2v7.5h58.2V315.4z"/>
	<path class="st32" d="M305.7,325h-58.2v7.5h58.2V325z"/>
	<path class="st32" d="M305.7,334.8h-58.2v7.5h58.2V334.8z"/>
	<path class="st32" d="M305.7,344.5h-58.2v7.5h58.2V344.5z"/>
	<path class="st32" d="M305.7,354.1h-58.2v7.5h58.2V354.1z"/>
	<path class="st32" d="M305.7,363.9h-58.2v7.5h58.2V363.9z"/>
	<path class="st32" d="M305.7,373.6h-58.2v7.5h58.2V373.6z"/>
	<path class="st32" d="M305.7,383.2h-58.2v7.5h58.2V383.2z"/>
	<path class="st32" d="M260.2,407.3c0,1.5-1.1,2.7-2.7,2.7h-5.3c-1.5,0-2.7-1.1-2.7-2.7V402c0-1.5,1.1-2.7,2.7-2.7h5.3
		c1.5,0,2.7,1.1,2.7,2.7V407.3z"/>
	<path class="st32" d="M303.1,407.3c0,1.5-1.1,2.7-2.7,2.7h-5.3c-1.5,0-2.7-1.1-2.7-2.7V402c0-1.5,1.1-2.7,2.7-2.7h5.3
		c1.5,0,2.7,1.1,2.7,2.7V407.3z"/>
	<path class="st33" d="M285.5,402.8h-18.4v16.1h18.4V402.8z"/>
	<path class="st34" d="M309.5,393.8H243v2.1h66.5V393.8z"/>
	<path class="st34" d="M313.3,287h-74.1v4.6h74.1V287z"/>
	<path class="st7" d="M276.6,287.1v132.1h32.9V291.6h3.8V287L276.6,287.1z"/>
	<path class="st35" d="M408.9,207.3c0,1.9-1.6,3.4-3.4,3.4h-35.6c-1.9,0-3.4-1.6-3.4-3.4v-33.7c0-1.9,1.6-3.4,3.4-3.4h35.6
		c1.9,0,3.4,1.6,3.4,3.4V207.3z"/>
	<path class="st31" d="M425.3,418.9H350V190.5h25v-2.8h25.2v2.8h25L425.3,418.9L425.3,418.9z"/>
	<path class="st35" d="M425.3,392.6H350v26.3h75.3V392.6z"/>
	<path class="st36" d="M375.1,196.7h25.2"/>
	<path class="st36" d="M375.1,206.3h25.2"/>
	<path class="st36" d="M375.1,216h25.2"/>
	<path class="st36" d="M375.1,225.7h25.2"/>
	<path class="st36" d="M375.1,235.4h25.2"/>
	<path class="st36" d="M375.1,245.1h25.2"/>
	<path class="st36" d="M375.1,254.8h25.2"/>
	<path class="st36" d="M375.1,264.5h25.2"/>
	<path class="st36" d="M375.1,274.1h25.2"/>
	<path class="st36" d="M375.1,283.9h25.2"/>
	<path class="st36" d="M375.1,293.6h25.2"/>
	<path class="st36" d="M375.1,303.2h25.2"/>
	<path class="st36" d="M375.1,313h25.2"/>
	<path class="st36" d="M375.1,322.7h25.2"/>
	<path class="st36" d="M375.1,332.3h25.2"/>
	<path class="st36" d="M375.1,342.1h25.2"/>
	<path class="st36" d="M375.1,351.7h25.2"/>
	<path class="st36" d="M375.1,361.4h25.2"/>
	<path class="st36" d="M375.1,371.2h25.2"/>
	<path class="st36" d="M375.1,380.8h25.2"/>
	<path class="st36" d="M400.3,199.8h25.3"/>
	<path class="st36" d="M400.3,209.4h25.3"/>
	<path class="st36" d="M400.3,219.1h25.3"/>
	<path class="st36" d="M400.3,228.9h25.3"/>
	<path class="st36" d="M400.3,238.5h25.3"/>
	<path class="st36" d="M400.3,248.2h25.3"/>
	<path class="st36" d="M400.3,257.9h25.3"/>
	<path class="st36" d="M400.3,267.6h25.3"/>
	<path class="st36" d="M400.3,277.3h25.3"/>
	<path class="st36" d="M400.3,287h25.3"/>
	<path class="st36" d="M400.3,296.7h25.3"/>
	<path class="st36" d="M400.3,306.3h25.3"/>
	<path class="st36" d="M400.3,316.1h25.3"/>
	<path class="st36" d="M400.3,325.8h25.3"/>
	<path class="st36" d="M400.3,335.4h25.3"/>
	<path class="st36" d="M400.3,345.2h25.3"/>
	<path class="st36" d="M400.3,354.9h25.3"/>
	<path class="st36" d="M400.3,364.5h25.3"/>
	<path class="st36" d="M400.3,374.3h25.3"/>
	<path class="st36" d="M400.3,383.9h25.3"/>
	<path class="st36" d="M350,199.8h24.9"/>
	<path class="st36" d="M350,209.4h24.9"/>
	<path class="st36" d="M350,219.1h24.9"/>
	<path class="st36" d="M350,228.9h24.9"/>
	<path class="st36" d="M350,238.5h24.9"/>
	<path class="st36" d="M350,248.2h24.9"/>
	<path class="st36" d="M350,257.9h24.9"/>
	<path class="st36" d="M350,267.6h24.9"/>
	<path class="st36" d="M350,277.3h24.9"/>
	<path class="st36" d="M350,287h24.9"/>
	<path class="st36" d="M350,296.7h24.9"/>
	<path class="st36" d="M350,306.3h24.9"/>
	<path class="st36" d="M350,316.1h24.9"/>
	<path class="st36" d="M350,325.8h24.9"/>
	<path class="st36" d="M374.9,335.4"/>
	<path class="st36" d="M350,345.2h24.9"/>
	<path class="st36" d="M350,354.9h24.9"/>
	<path class="st36" d="M350,364.5h24.9"/>
	<path class="st36" d="M350,374.3h24.9"/>
	<path class="st36" d="M350,383.9h24.9"/>
	<path class="st37" d="M410.4,403.2h-45.5v15.7h45.5V403.2z"/>
	<path class="st38" d="M375.1,184.8v207.7"/>
	<path class="st38" d="M400.3,184.8v207.7"/>
	<path class="st7" d="M386.4,170.2v248.7h39V190.5H409c0,0,0-14.5,0-16.6c0-2.4-1.5-3.7-3.1-3.7
		C404.1,170.2,386.4,170.2,386.4,170.2z"/>
	<path class="st39" d="M514.5,297.8h-51.7v11h51.7V297.8z"/>
	<path class="st39" d="M525.9,306.3h-74.8v112.5h74.8V306.3z"/>
	<path class="st40" d="M525.9,395.7h-74.8v23.2h74.8V395.7z"/>
	<path class="st25" d="M523.3,316.6c0,2.2-1.8,3.9-3.9,3.9h-61.5c-2.2,0-3.9-1.8-3.9-3.9c0-2.2,1.8-3.9,3.9-3.9h61.5
		C521.4,312.6,523.3,314.5,523.3,316.6z"/>
	<path class="st25" d="M523.3,328.1c0,2.2-1.8,3.9-3.9,3.9h-61.5c-2.2,0-3.9-1.8-3.9-3.9c0-2.2,1.8-3.9,3.9-3.9h61.5
		C521.4,324,523.3,325.9,523.3,328.1z"/>
	<path class="st25" d="M523.3,339.5c0,2.2-1.8,3.9-3.9,3.9h-61.5c-2.2,0-3.9-1.8-3.9-3.9c0-2.2,1.8-3.9,3.9-3.9h61.5
		C521.4,335.4,523.3,337.3,523.3,339.5z"/>
	<path class="st25" d="M523.3,350.9c0,2.2-1.8,3.9-3.9,3.9h-61.5c-2.2,0-3.9-1.8-3.9-3.9c0-2.2,1.8-3.9,3.9-3.9h61.5
		C521.4,346.9,523.3,348.7,523.3,350.9z"/>
	<path class="st25" d="M523.3,362.3c0,2.2-1.8,3.9-3.9,3.9h-61.5c-2.2,0-3.9-1.8-3.9-3.9c0-2.2,1.8-3.9,3.9-3.9h61.5
		C521.4,358.3,523.3,360.2,523.3,362.3z"/>
	<path class="st25" d="M523.3,373.8c0,2.2-1.8,3.9-3.9,3.9h-61.5c-2.2,0-3.9-1.8-3.9-3.9c0-2.2,1.8-3.9,3.9-3.9h61.5
		C521.4,369.7,523.3,371.6,523.3,373.8z"/>
	<path class="st25" d="M523.3,385.2c0,2.2-1.8,3.9-3.9,3.9h-61.5c-2.2,0-3.9-1.8-3.9-3.9c0-2.2,1.8-3.9,3.9-3.9h61.5
		C521.4,381.1,523.3,383,523.3,385.2z"/>
	<path class="st40" d="M506.6,301.8h-36v94.9h36V301.8z"/>
	<path class="st39" d="M505.5,302.8v92.9h-34v-92.9H505.5z M507.6,300.7h-2.1h-34h-2.1v2.1v92.9v2.1h2.1h34h2.1v-2.1v-92.9V300.7z"
		/>
	<path class="st25" d="M505.5,309.5h-34v8h34V309.5z"/>
	<path class="st25" d="M505.5,320.9h-34v8h34V320.9z"/>
	<path class="st25" d="M505.5,332.3h-34v8h34V332.3z"/>
	<path class="st25" d="M505.5,343.7h-34v8h34V343.7z"/>
	<path class="st25" d="M505.5,355.2h-34v8h34V355.2z"/>
	<path class="st25" d="M505.5,366.6h-34v8h34V366.6z"/>
	<path class="st25" d="M505.5,378h-34v8h34V378z"/>
	<path class="st41" d="M509.3,395.7h-41.5v23.2h41.5V395.7z"/>
	<path class="st39" d="M496.3,406.3h-15.4v12.6h15.4V406.3z"/>
	<path class="st7" d="M488.5,297.2v121.7h37.4V306.3h-11.7l0.2-8.5L488.5,297.2z"/>
	<path class="st42" d="M647.9,344.6c10.9,0,19.7-6.1,19.7-13.6s-8.8-13.6-19.7-13.6s-19.7,6.1-19.7,13.6S637,344.6,647.9,344.6z"/>
	<path class="st18" d="M667.7,362.1h-94.5v57.2h94.5V362.1z"/>
	<path class="st18" d="M667.7,331h-39.5v88.4h39.5V331z"/>
	<path class="st25" d="M639.8,336.8h-6.7v6.8h6.8L639.8,336.8L639.8,336.8z"/>
	<path class="st25" d="M651.3,336.8h-6.8v6.8h6.8V336.8z"/>
	<path class="st25" d="M662.7,336.8h-6.8v6.8h6.8V336.8z"/>
	<path class="st25" d="M639.8,347.5h-6.7v6.8h6.8L639.8,347.5L639.8,347.5z"/>
	<path class="st25" d="M651.3,347.5h-6.8v6.8h6.8V347.5z"/>
	<path class="st25" d="M662.7,347.5h-6.8v6.8h6.8V347.5z"/>
	<path class="st25" d="M639.8,357.9h-6.7v6.8h6.8L639.8,357.9L639.8,357.9z"/>
	<path class="st25" d="M651.3,357.9h-6.8v6.8h6.8V357.9z"/>
	<path class="st25" d="M662.7,357.9h-6.8v6.8h6.8V357.9z"/>
	<path class="st25" d="M639.8,368.3h-6.7v6.8h6.8L639.8,368.3L639.8,368.3z"/>
	<path class="st25" d="M651.3,368.3h-6.8v6.8h6.8V368.3z"/>
	<path class="st25" d="M625.3,369.5h-48.6v4.3h48.6V369.5z"/>
	<path class="st25" d="M625.3,379.8h-48.6v4.3h48.6V379.8z"/>
	<path class="st25" d="M625.3,390.2h-48.6v4.3h48.6V390.2z"/>
	<path class="st25" d="M625.3,400.6h-48.6v4.3h48.6V400.6z"/>
	<path class="st25" d="M662.7,368.3h-6.8v6.8h6.8V368.3z"/>
	<path class="st25" d="M639.8,378.5h-6.7v6.8h6.8L639.8,378.5L639.8,378.5z"/>
	<path class="st25" d="M651.3,378.5h-6.8v6.8h6.8V378.5z"/>
	<path class="st25" d="M662.7,378.5h-6.8v6.8h6.8V378.5z"/>
	<path class="st25" d="M639.8,388.9h-6.7v6.8h6.8L639.8,388.9L639.8,388.9z"/>
	<path class="st25" d="M651.3,388.9h-6.8v6.8h6.8V388.9z"/>
	<path class="st25" d="M662.7,388.9h-6.8v6.8h6.8V388.9z"/>
	<path class="st25" d="M639.8,399.2h-6.7v6.8h6.8L639.8,399.2L639.8,399.2z"/>
	<path class="st25" d="M651.3,399.2h-6.8v6.8h6.8V399.2z"/>
	<path class="st25" d="M662.7,399.2h-6.8v6.8h6.8V399.2z"/>
	<path class="st43" d="M606.4,409.7h-13.3v9.7h13.3V409.7z"/>
	<path class="st43" d="M651.3,409.7h-6.8v9.7h6.8V409.7z"/>
	<path class="st44" d="M669.8,331.1c0,1-0.8,1.9-1.9,1.9h-40.8c-1,0-1.9-0.8-1.9-1.9c0-1,0.8-1.9,1.9-1.9h40.8
		C668.9,329.2,669.8,330,669.8,331.1z"/>
	<g class="st6">
		<path class="st7" d="M667.9,329.2h-0.4c-1.2-6.6-9.6-11.8-19.5-11.8c-0.1,0-0.2,0-0.4,0v102h20.2v-86.5h0.3c1,0,1.9-0.8,1.9-1.9
			C669.9,329.9,668.9,329.2,667.9,329.2z"/>
	</g>
	<path class="st45" d="M720.9,353c0,0.9-0.7,1.7-1.7,1.7h-21.7c-0.9,0-1.7-0.7-1.7-1.7s0.7-1.7,1.7-1.7h21.7
		C720.1,351.3,720.9,352.1,720.9,353z"/>
	<path class="st46" d="M725,353.6h-33.2v64.8H725V353.6z"/>
	<path class="st25" d="M700.1,362.4c0,0.4-0.4,0.8-0.8,0.8h-2.6c-0.4,0-0.8-0.4-0.8-0.8v-2.6c0-0.4,0.4-0.8,0.8-0.8h2.6
		c0.4,0,0.8,0.4,0.8,0.8V362.4z"/>
	<path class="st25" d="M707,362.4c0,0.4-0.4,0.8-0.8,0.8h-2.6c-0.4,0-0.8-0.4-0.8-0.8v-2.6c0-0.4,0.4-0.8,0.8-0.8h2.6
		c0.4,0,0.8,0.4,0.8,0.8V362.4z"/>
	<path class="st25" d="M714,362.4c0,0.4-0.4,0.8-0.8,0.8h-2.6c-0.4,0-0.8-0.4-0.8-0.8v-2.6c0-0.4,0.4-0.8,0.8-0.8h2.6
		c0.4,0,0.8,0.4,0.8,0.8V362.4z"/>
	<path class="st25" d="M721,362.4c0,0.4-0.4,0.8-0.8,0.8h-2.6c-0.4,0-0.8-0.4-0.8-0.8v-2.6c0-0.4,0.4-0.8,0.8-0.8h2.6
		c0.4,0,0.8,0.4,0.8,0.8V362.4z"/>
	<path class="st25" d="M700.1,369.5c0,0.4-0.4,0.8-0.8,0.8h-2.6c-0.4,0-0.8-0.4-0.8-0.8v-2.6c0-0.4,0.4-0.8,0.8-0.8h2.6
		c0.4,0,0.8,0.4,0.8,0.8V369.5z"/>
	<path class="st25" d="M707,369.5c0,0.4-0.4,0.8-0.8,0.8h-2.6c-0.4,0-0.8-0.4-0.8-0.8v-2.6c0-0.4,0.4-0.8,0.8-0.8h2.6
		c0.4,0,0.8,0.4,0.8,0.8V369.5z"/>
	<path class="st25" d="M714,369.5c0,0.4-0.4,0.8-0.8,0.8h-2.6c-0.4,0-0.8-0.4-0.8-0.8v-2.6c0-0.4,0.4-0.8,0.8-0.8h2.6
		c0.4,0,0.8,0.4,0.8,0.8V369.5z"/>
	<path class="st25" d="M721,369.5c0,0.4-0.4,0.8-0.8,0.8h-2.6c-0.4,0-0.8-0.4-0.8-0.8v-2.6c0-0.4,0.4-0.8,0.8-0.8h2.6
		c0.4,0,0.8,0.4,0.8,0.8V369.5z"/>
	<path class="st25" d="M700.1,376.6c0,0.4-0.4,0.8-0.8,0.8h-2.6c-0.4,0-0.8-0.4-0.8-0.8V374c0-0.4,0.4-0.8,0.8-0.8h2.6
		c0.4,0,0.8,0.4,0.8,0.8V376.6z"/>
	<path class="st25" d="M707,376.6c0,0.4-0.4,0.8-0.8,0.8h-2.6c-0.4,0-0.8-0.4-0.8-0.8V374c0-0.4,0.4-0.8,0.8-0.8h2.6
		c0.4,0,0.8,0.4,0.8,0.8V376.6z"/>
	<path class="st25" d="M714,376.6c0,0.4-0.4,0.8-0.8,0.8h-2.6c-0.4,0-0.8-0.4-0.8-0.8V374c0-0.4,0.4-0.8,0.8-0.8h2.6
		c0.4,0,0.8,0.4,0.8,0.8V376.6z"/>
	<path class="st25" d="M721,376.6c0,0.4-0.4,0.8-0.8,0.8h-2.6c-0.4,0-0.8-0.4-0.8-0.8V374c0-0.4,0.4-0.8,0.8-0.8h2.6
		c0.4,0,0.8,0.4,0.8,0.8V376.6z"/>
	<path class="st25" d="M700.1,383.6c0,0.4-0.4,0.8-0.8,0.8h-2.6c-0.4,0-0.8-0.4-0.8-0.8V381c0-0.4,0.4-0.8,0.8-0.8h2.6
		c0.4,0,0.8,0.4,0.8,0.8V383.6z"/>
	<path class="st25" d="M707,383.6c0,0.4-0.4,0.8-0.8,0.8h-2.6c-0.4,0-0.8-0.4-0.8-0.8V381c0-0.4,0.4-0.8,0.8-0.8h2.6
		c0.4,0,0.8,0.4,0.8,0.8V383.6z"/>
	<path class="st25" d="M714,383.6c0,0.4-0.4,0.8-0.8,0.8h-2.6c-0.4,0-0.8-0.4-0.8-0.8V381c0-0.4,0.4-0.8,0.8-0.8h2.6
		c0.4,0,0.8,0.4,0.8,0.8V383.6z"/>
	<path class="st25" d="M721,383.6c0,0.4-0.4,0.8-0.8,0.8h-2.6c-0.4,0-0.8-0.4-0.8-0.8V381c0-0.4,0.4-0.8,0.8-0.8h2.6
		c0.4,0,0.8,0.4,0.8,0.8V383.6z"/>
	<path class="st25" d="M700.1,390.8c0,0.4-0.4,0.8-0.8,0.8h-2.6c-0.4,0-0.8-0.4-0.8-0.8v-2.6c0-0.4,0.4-0.8,0.8-0.8h2.6
		c0.4,0,0.8,0.4,0.8,0.8V390.8z"/>
	<path class="st25" d="M707,390.8c0,0.4-0.4,0.8-0.8,0.8h-2.6c-0.4,0-0.8-0.4-0.8-0.8v-2.6c0-0.4,0.4-0.8,0.8-0.8h2.6
		c0.4,0,0.8,0.4,0.8,0.8V390.8z"/>
	<path class="st25" d="M714,390.8c0,0.4-0.4,0.8-0.8,0.8h-2.6c-0.4,0-0.8-0.4-0.8-0.8v-2.6c0-0.4,0.4-0.8,0.8-0.8h2.6
		c0.4,0,0.8,0.4,0.8,0.8V390.8z"/>
	<path class="st25" d="M721,390.8c0,0.4-0.4,0.8-0.8,0.8h-2.6c-0.4,0-0.8-0.4-0.8-0.8v-2.6c0-0.4,0.4-0.8,0.8-0.8h2.6
		c0.4,0,0.8,0.4,0.8,0.8V390.8z"/>
	<path class="st25" d="M700.1,397.9c0,0.4-0.4,0.8-0.8,0.8h-2.6c-0.4,0-0.8-0.4-0.8-0.8v-2.6c0-0.4,0.4-0.8,0.8-0.8h2.6
		c0.4,0,0.8,0.4,0.8,0.8V397.9z"/>
	<path class="st25" d="M707,397.9c0,0.4-0.4,0.8-0.8,0.8h-2.6c-0.4,0-0.8-0.4-0.8-0.8v-2.6c0-0.4,0.4-0.8,0.8-0.8h2.6
		c0.4,0,0.8,0.4,0.8,0.8V397.9z"/>
	<path class="st25" d="M714,397.9c0,0.4-0.4,0.8-0.8,0.8h-2.6c-0.4,0-0.8-0.4-0.8-0.8v-2.6c0-0.4,0.4-0.8,0.8-0.8h2.6
		c0.4,0,0.8,0.4,0.8,0.8V397.9z"/>
	<path class="st25" d="M721,397.9c0,0.4-0.4,0.8-0.8,0.8h-2.6c-0.4,0-0.8-0.4-0.8-0.8v-2.6c0-0.4,0.4-0.8,0.8-0.8h2.6
		c0.4,0,0.8,0.4,0.8,0.8V397.9z"/>
	<path class="st25" d="M700.1,404.9c0,0.4-0.4,0.8-0.8,0.8h-2.6c-0.4,0-0.8-0.4-0.8-0.8v-2.6c0-0.4,0.4-0.8,0.8-0.8h2.6
		c0.4,0,0.8,0.4,0.8,0.8V404.9z"/>
	<path class="st25" d="M707,404.9c0,0.4-0.4,0.8-0.8,0.8h-2.6c-0.4,0-0.8-0.4-0.8-0.8v-2.6c0-0.4,0.4-0.8,0.8-0.8h2.6
		c0.4,0,0.8,0.4,0.8,0.8V404.9z"/>
	<path class="st25" d="M714,404.9c0,0.4-0.4,0.8-0.8,0.8h-2.6c-0.4,0-0.8-0.4-0.8-0.8v-2.6c0-0.4,0.4-0.8,0.8-0.8h2.6
		c0.4,0,0.8,0.4,0.8,0.8V404.9z"/>
	<path class="st25" d="M721,404.9c0,0.4-0.4,0.8-0.8,0.8h-2.6c-0.4,0-0.8-0.4-0.8-0.8v-2.6c0-0.4,0.4-0.8,0.8-0.8h2.6
		c0.4,0,0.8,0.4,0.8,0.8V404.9z"/>
	<path class="st45" d="M713.9,411.7h-11.1v6.8h11.1V411.7z"/>
	<path class="st47" d="M262.3,53.4c0-36.4,51.1-36.4,51.1,0c31-12.7,39.7,29.6-22.9,29.6C228,83,231.4,40.8,262.3,53.4z"/>
	<path class="st47" d="M551.2,87.7c0-36.4,51.1-36.4,51.1,0c32,0,39.7,29.6-22.9,29.6C517,117.3,513.8,87.7,551.2,87.7z"/>
	<path class="st48" d="M743.4,422.6c0-2.5-2-4.5-4.5-4.5H33.8c-2.5,0-4.5,2-4.5,4.5s2,4.5,4.5,4.5h705.1
		C741.3,427.1,743.4,425.1,743.4,422.6z"/>
	<path class="st40" d="M13.1,447.6h740.4c7.2,0,13.1-5.8,13.1-13.1H0C0,441.8,5.8,447.6,13.1,447.6z"/>
	<path class="st49" d="M753.5,421.5H13.1c-7.2,0-13.1,5.8-13.1,13.1h766.6C766.6,427.4,760.8,421.5,753.5,421.5z"/>
</g>
<path class="st50" d="M314.8,477.4"/>
<path class="st50" d="M325,490.3"/>
<path class="st51" d="M333.7,261.7c0.1,0.1,0.3,0.2,0.5,0.2s0.3-0.1,0.5-0.2c0.3-0.3,0.3-0.8,0.1-1.1"/>
<path class="st51" d="M318.2,236.1c-0.2-0.4-0.7-0.6-1-0.3c-0.4,0.2-0.6,0.7-0.3,1"/>
<path class="st52" d="M211.5,343.9c-1-2.3-0.4-9.5,0.5-8.9c0.9,0.7,1.7,4.7,1.7,4.7l0.3,2c0,0,1.4-0.5,1.5,0s0.6,3,0.6,3l0.3,4.8
	L211.5,343.9z"/>
<path class="st53" d="M222.9,353.1l-5.5-20.5l-4.6-16.3l-5.9,2.2l10.9,35.1L222.9,353.1z"/>
<path class="st54" d="M351,323.6"/>
<path class="st54" d="M299.4,359.5c-0.1,0.2,0.2,0.6,0.6,0.6c0.5,0,0.9-0.4,0.8-0.8"/>
<path class="st54" d="M310,335c-0.8,0.7-1.7,1.3-2.7,2c-1.1,0.7-2.2,1.4-3.2,2.4"/>
<path class="st54" d="M324.2,315"/>
<path class="st54" d="M305,340.4c0.9-0.8,2-1.5,3.1-2.2c0.9-0.6,2-1.3,2.9-2"/>
<path class="st55" d="M493.3,416.7c-0.1,0.4,0.3,0.8,0.7,0.9c0,0,0.1,0,0.1,0c0.3,0,0.7-0.3,0.8-0.7"/>
<path class="st55" d="M531.9,385.3C531.9,385.3,532,385.3,531.9,385.3c0.5-0.1,0.9-0.4,0.8-0.9l-4.2-42.5c-0.4-4.1-0.9-8.3,0.1-12.3
	c1-4.3,3.6-7.7,6.9-9.1c0.4-0.2,0.6-0.6,0.4-1c-0.2-0.4-0.6-0.6-1-0.4c-3.8,1.5-6.7,5.3-7.8,10.2c-0.9,4.2-0.5,8.7-0.1,12.8
	l4.2,42.5C531.1,385,531.5,385.3,531.9,385.3z"/>
</svg>
