<svg width="51" height="46" viewBox="0 0 51 46" fill="none" xmlns="http://www.w3.org/2000/svg">
<path fill-rule="evenodd" clip-rule="evenodd" d="M40.2053 25.6626H25.5054V45.1756H40.2166C45.5846 45.1756 49.9674 40.7815 49.9674 35.4248C49.9674 30.068 45.5733 25.6626 40.2053 25.6626Z" fill="#4A4D9C"/>
<path fill-rule="evenodd" clip-rule="evenodd" d="M19.0167 18.3234C22.9465 14.3936 22.9465 8.02898 19.0167 4.09919C15.0869 0.169409 8.72227 0.169409 4.79248 4.09919L19.0167 18.3234Z" fill="#4A4D9C"/>
<path fill-rule="evenodd" clip-rule="evenodd" d="M19.0163 18.3238L4.79207 4.09961C0.86228 8.02939 0.86228 14.3941 4.79207 18.3238C8.72185 22.2536 15.0865 22.2536 19.0163 18.3238Z" fill="#4A4D9C"/>
<path fill-rule="evenodd" clip-rule="evenodd" d="M29.0615 13.1029C30.1034 16.9987 34.1125 19.3203 38.0196 18.2784C41.9154 17.2365 44.2371 13.2274 43.1952 9.32031L29.0615 13.1029Z" fill="#4A4D9C"/>
<path fill-rule="evenodd" clip-rule="evenodd" d="M29.0614 13.1028L43.1951 9.3202C42.1532 5.42439 38.1441 3.10276 34.237 4.14466C30.3298 5.19789 28.0195 9.20695 29.0614 13.1028Z" fill="#4A4D9C"/>
<path fill-rule="evenodd" clip-rule="evenodd" d="M25.5055 45.1756V25.6626H10.7943C5.42624 25.6626 1.04346 30.0567 1.04346 35.4134C1.04346 40.7815 5.43757 45.1643 10.7943 45.1643H25.5055V45.1756Z" fill="#4A4D9C"/>
<path d="M40.2056 45.7194H10.7945C5.12061 45.7194 0.5 41.0988 0.5 35.4249C0.5 29.7511 5.10929 25.1191 10.7945 25.1191H40.2056C45.8794 25.1191 50.5 29.7398 50.5 35.4136C50.5 41.0874 45.8907 45.7194 40.2056 45.7194ZM10.7945 26.2063C5.72084 26.2063 1.5872 30.34 1.5872 35.4136C1.5872 40.4872 5.72084 44.6208 10.7945 44.6208H40.2056C45.2905 44.6208 49.4128 40.4872 49.4128 35.4136C49.4128 30.34 45.2792 26.2063 40.2056 26.2063H10.7945Z" fill="#4A4D9C"/>
<path d="M25.5055 45.7194C25.2111 45.7194 24.9619 45.4815 24.9619 45.1758V25.6627C24.9619 25.3683 25.1997 25.1191 25.5055 25.1191C25.8113 25.1191 26.0491 25.357 26.0491 25.6627V45.1758C26.0491 45.4815 25.8 45.7194 25.5055 45.7194Z" fill="white"/>
<path d="M11.1119 42.1067C7.49919 42.1067 4.55469 39.1621 4.55469 35.5495C4.55469 35.255 4.80384 35.0059 5.09829 35.0059C5.40406 35.0059 5.64189 35.2437 5.64189 35.5495C5.64189 38.5619 8.09942 41.0194 11.1119 41.0194C11.4177 41.0194 11.6555 41.2573 11.6555 41.5631C11.6555 41.8688 11.4063 42.1067 11.1119 42.1067Z" fill="white"/>
<path d="M11.9045 21.8119C9.18652 21.8119 6.47984 20.7813 4.40736 18.7088C0.27372 14.5752 0.27372 7.84812 4.40736 3.71448C8.54099 -0.419151 15.2681 -0.419151 19.4017 3.71448C23.5353 7.84812 23.5353 14.5752 19.4017 18.7088C17.3405 20.7813 14.6225 21.8119 11.9045 21.8119ZM11.9045 1.69863C9.46964 1.69863 7.03476 2.62728 5.17746 4.48459C1.46285 8.19919 1.46285 14.2354 5.17746 17.9387C8.89207 21.642 14.9283 21.6533 18.6316 17.9387C22.3349 14.2241 22.3462 8.18787 18.6316 4.48459C16.7743 2.62728 14.3394 1.69863 11.9045 1.69863Z" fill="#4A4D9C"/>
<path d="M19.0168 18.8675C18.8809 18.8675 18.7336 18.8109 18.6317 18.7089L4.40748 4.48471C4.1923 4.26953 4.1923 3.92978 4.40748 3.7146C4.62265 3.49943 4.9624 3.49943 5.17758 3.7146L19.4018 17.9388C19.617 18.154 19.617 18.4938 19.4018 18.7089C19.2999 18.8109 19.1527 18.8675 19.0168 18.8675Z" fill="white"/>
<path d="M36.1175 19.0709C34.7585 19.0709 33.4108 18.7198 32.199 18.0177C30.3757 16.9645 29.0847 15.277 28.5411 13.2499C27.9974 11.2227 28.2806 9.10489 29.3225 7.28156C30.3757 5.45823 32.0631 4.16718 34.0903 3.62358C38.2806 2.5024 42.5954 4.99391 43.7166 9.18417C44.8378 13.3744 42.3463 17.6893 38.156 18.8104C37.4878 18.9803 36.797 19.0709 36.1175 19.0709ZM36.1288 4.43898C35.5512 4.43898 34.9623 4.51825 34.3734 4.66548C32.6294 5.12981 31.1685 6.25098 30.2625 7.82516C29.3565 9.38802 29.1186 11.2113 29.583 12.9667C30.0473 14.7108 31.1685 16.1717 32.7426 17.0777C34.3055 17.9837 36.1288 18.2215 37.8842 17.7572C41.4856 16.7946 43.6373 13.0687 42.6747 9.46729C41.8593 6.44351 39.1186 4.43898 36.1288 4.43898Z" fill="#4A4D9C"/>
<path d="M29.0619 13.6464C28.8241 13.6464 28.5976 13.4879 28.5409 13.2387C28.4617 12.9443 28.6315 12.6498 28.926 12.5706L43.0596 8.78801C43.3541 8.70873 43.6485 8.87861 43.7278 9.17306C43.8071 9.46751 43.6372 9.76196 43.3427 9.84123L29.2091 13.6351C29.1525 13.6464 29.1072 13.6464 29.0619 13.6464Z" fill="white"/>
</svg>
