<svg width="61" height="60" viewBox="0 0 61 60" fill="none" xmlns="http://www.w3.org/2000/svg">
<path fill-rule="evenodd" clip-rule="evenodd" d="M19.675 5H41.35C49.825 5 55.5 10.95 55.5 19.8V40.2275C55.5 49.05 49.825 55 41.35 55H19.675C11.2 55 5.5 49.05 5.5 40.2275V19.8C5.5 10.95 11.2 5 19.675 5ZM29.0749 37.4753L40.9499 25.6003C41.7999 24.7503 41.7999 23.3753 40.9499 22.5003C40.0999 21.6503 38.6999 21.6503 37.8499 22.5003L27.5249 32.8253L23.1499 28.4503C22.2999 27.6003 20.8999 27.6003 20.0499 28.4503C19.1999 29.3003 19.1999 30.6753 20.0499 31.5503L25.9999 37.4753C26.4249 37.9003 26.9749 38.1003 27.5249 38.1003C28.0999 38.1003 28.6499 37.9003 29.0749 37.4753Z" fill="#4A4D9C"/>
</svg>
