<svg width="61" height="60" viewBox="0 0 61 60" fill="none" xmlns="http://www.w3.org/2000/svg">
<path fill-rule="evenodd" clip-rule="evenodd" d="M5.5 26.6748C5.5 14.7041 15.1009 5 26.9441 5C32.6314 5 38.0858 7.28359 42.1074 11.3484C46.1289 15.4132 48.3882 20.9263 48.3882 26.6748C48.3882 38.6455 38.7873 48.3496 26.9441 48.3496C15.1009 48.3496 5.5 38.6455 5.5 26.6748ZM48.0334 44.1357L54.42 49.291H54.5309C55.823 50.597 55.823 52.7145 54.5309 54.0205C53.2388 55.3265 51.1439 55.3265 49.8518 54.0205L44.5518 47.9462C44.0507 47.4415 43.7691 46.7559 43.7691 46.0409C43.7691 45.326 44.0507 44.6404 44.5518 44.1357C45.5181 43.1759 47.0671 43.1759 48.0334 44.1357Z" fill="#4A4D9C"/>
</svg>
