<svg width="24" height="24" viewBox="0 0 24 24" fill="none" xmlns="http://www.w3.org/2000/svg">
<path d="M12.0002 13.29L5.76634 19.5238C5.60256 19.6876 5.39292 19.7744 5.13742 19.7842C4.88111 19.7949 4.66083 19.7081 4.47657 19.5238C4.29232 19.3396 4.2002 19.1246 4.2002 18.8789C4.2002 18.6333 4.29232 18.4183 4.47657 18.2341L10.7104 12.0002L4.47657 5.76634C4.31279 5.60256 4.22599 5.39251 4.21616 5.1362C4.20552 4.8807 4.29232 4.66083 4.47657 4.47657C4.66083 4.29232 4.87579 4.2002 5.12146 4.2002C5.36712 4.2002 5.58209 4.29232 5.76634 4.47657L12.0002 10.7104L18.2341 4.47657C18.3978 4.31279 18.6079 4.22558 18.8642 4.21494C19.1197 4.20511 19.3396 4.29232 19.5238 4.47657C19.7081 4.66083 19.8002 4.87579 19.8002 5.12146C19.8002 5.36712 19.7081 5.58209 19.5238 5.76634L13.29 12.0002L19.5238 18.2341C19.6876 18.3978 19.7744 18.6075 19.7842 18.863C19.7949 19.1193 19.7081 19.3396 19.5238 19.5238C19.3396 19.7081 19.1246 19.8002 18.8789 19.8002C18.6333 19.8002 18.4183 19.7081 18.2341 19.5238L12.0002 13.29Z" fill="black"/>
</svg>
