<svg width="1720" height="247" viewBox="0 0 1720 247" fill="none" xmlns="http://www.w3.org/2000/svg">
<path d="M1033.4 246H1001L904.1 137.4V246H877.1V31.8H904.1V135.6L998.6 31.8H1029.2L936.2 135.9L1033.4 246ZM1196.95 246L1171.15 179.7H1086.25L1060.75 246H1033.45L1117.15 30.9H1141.45L1224.85 246H1196.95ZM1139.05 90.9C1138.45 89.3 1137.45 86.4 1136.05 82.2C1134.65 78 1133.25 73.7 1131.85 69.3C1130.65 64.7 1129.65 61.2 1128.85 58.8C1127.45 65 1125.85 71.1 1124.05 77.1C1122.25 82.9 1120.75 87.5 1119.55 90.9L1095.25 155.7H1163.05L1139.05 90.9ZM1348.65 246L1278.15 58.2H1276.95C1277.55 64.4 1278.05 72.8 1278.45 83.4C1278.85 93.8 1279.05 104.7 1279.05 116.1V246H1254.15V31.8H1294.05L1360.05 207.3H1361.25L1428.45 31.8H1468.05V246H1441.35V114.3C1441.35 103.9 1441.55 93.6 1441.95 83.4C1442.55 73.2 1443.05 64.9 1443.45 58.5H1442.25L1370.85 246H1348.65ZM1660.72 246L1634.92 179.7H1550.02L1524.52 246H1497.22L1580.92 30.9H1605.22L1688.62 246H1660.72ZM1602.82 90.9C1602.22 89.3 1601.22 86.4 1599.82 82.2C1598.42 78 1597.02 73.7 1595.62 69.3C1594.42 64.7 1593.42 61.2 1592.62 58.8C1591.22 65 1589.62 71.1 1587.82 77.1C1586.02 82.9 1584.52 87.5 1583.32 90.9L1559.02 155.7H1626.82L1602.82 90.9Z" fill="white"/>
<path d="M39.775 47.024H46.831V79.952C46.831 81.8 46.803 83.872 46.747 86.168C46.691 88.464 46.607 90.564 46.495 92.468C46.439 94.372 46.355 95.772 46.243 96.668H46.579L79.591 47.024H87.991V107H80.935V74.408C80.935 72.336 80.963 70.124 81.019 67.772C81.131 65.42 81.243 63.264 81.355 61.304C81.467 59.344 81.551 57.944 81.607 57.104H81.271L48.175 107H39.775V47.024ZM150.032 107H142.472V79.028H111.728V107H104.168V47.024H111.728V72.392H142.472V47.024H150.032V107ZM183.565 47.024C191.069 47.024 196.725 48.144 200.533 50.384C204.397 52.568 206.329 56.404 206.329 61.892C206.329 65.42 205.349 68.36 203.389 70.712C201.429 73.008 198.601 74.492 194.905 75.164V75.584C197.425 75.976 199.693 76.704 201.709 77.768C203.781 78.832 205.405 80.344 206.581 82.304C207.757 84.264 208.345 86.812 208.345 89.948C208.345 95.38 206.469 99.58 202.717 102.548C199.021 105.516 193.953 107 187.513 107H166.429V47.024H183.565ZM185.077 72.56C190.229 72.56 193.757 71.748 195.661 70.124C197.565 68.444 198.517 65.98 198.517 62.732C198.517 59.428 197.341 57.076 194.989 55.676C192.693 54.22 188.997 53.492 183.901 53.492H173.989V72.56H185.077ZM173.989 78.86V100.616H186.085C191.405 100.616 195.101 99.58 197.173 97.508C199.245 95.436 200.281 92.72 200.281 89.36C200.281 86.224 199.189 83.704 197.005 81.8C194.877 79.84 191.041 78.86 185.497 78.86H173.989ZM254.578 107H221.062V47.024H254.578V53.66H228.622V72.392H253.066V78.944H228.622V100.364H254.578V107ZM293.442 52.82C287.002 52.82 281.934 54.976 278.238 59.288C274.542 63.6 272.694 69.508 272.694 77.012C272.694 84.46 274.402 90.368 277.818 94.736C281.29 99.048 286.47 101.204 293.358 101.204C295.99 101.204 298.482 100.98 300.834 100.532C303.186 100.084 305.482 99.524 307.722 98.852V105.404C305.482 106.244 303.158 106.86 300.75 107.252C298.398 107.644 295.57 107.84 292.266 107.84C286.162 107.84 281.066 106.58 276.978 104.06C272.89 101.54 269.81 97.956 267.738 93.308C265.722 88.66 264.714 83.2 264.714 76.928C264.714 70.88 265.806 65.56 267.99 60.968C270.23 56.32 273.506 52.708 277.818 50.132C282.13 47.5 287.366 46.184 293.526 46.184C299.854 46.184 305.37 47.36 310.074 49.712L307.05 56.096C305.202 55.256 303.13 54.5 300.834 53.828C298.594 53.156 296.13 52.82 293.442 52.82ZM339.796 107H332.236V53.66H313.504V47.024H358.444V53.66H339.796V107ZM367.572 47.024H374.628V79.952C374.628 81.8 374.6 83.872 374.544 86.168C374.488 88.464 374.404 90.564 374.292 92.468C374.236 94.372 374.152 95.772 374.04 96.668H374.376L407.388 47.024H415.788V107H408.732V74.408C408.732 72.336 408.76 70.124 408.816 67.772C408.928 65.42 409.04 63.264 409.152 61.304C409.264 59.344 409.348 57.944 409.404 57.104H409.068L375.972 107H367.572V47.024ZM484.296 100.364V122.792H477.072V107H431.964V47.024H439.524V100.28H469.512V47.024H476.988V100.364H484.296ZM494.31 47.024H501.366V79.952C501.366 81.8 501.338 83.872 501.282 86.168C501.226 88.464 501.142 90.564 501.03 92.468C500.974 94.372 500.89 95.772 500.778 96.668H501.114L534.126 47.024H542.526V107H535.47V74.408C535.47 72.336 535.498 70.124 535.554 67.772C535.666 65.42 535.778 63.264 535.89 61.304C536.002 59.344 536.086 57.944 536.142 57.104H535.806L502.71 107H494.31V47.024ZM611.035 76.928C611.035 83.144 609.971 88.576 607.843 93.224C605.771 97.816 602.691 101.4 598.603 103.976C594.515 106.552 589.447 107.84 583.399 107.84C577.183 107.84 572.003 106.552 567.859 103.976C563.771 101.4 560.719 97.788 558.703 93.14C556.687 88.492 555.679 83.06 555.679 76.844C555.679 70.684 556.687 65.308 558.703 60.716C560.719 56.124 563.771 52.54 567.859 49.964C572.003 47.388 577.211 46.1 583.483 46.1C589.475 46.1 594.515 47.388 598.603 49.964C602.691 52.484 605.771 56.068 607.843 60.716C609.971 65.308 611.035 70.712 611.035 76.928ZM563.659 76.928C563.659 84.488 565.255 90.452 568.447 94.82C571.639 99.132 576.623 101.288 583.399 101.288C590.231 101.288 595.215 99.132 598.351 94.82C601.487 90.452 603.055 84.488 603.055 76.928C603.055 69.368 601.487 63.46 598.351 59.204C595.215 54.892 590.259 52.736 583.483 52.736C576.707 52.736 571.695 54.892 568.447 59.204C565.255 63.46 563.659 69.368 563.659 76.928ZM670.192 107H662.632V79.028H631.888V107H624.328V47.024H631.888V72.392H662.632V47.024H670.192V107ZM732.453 107H724.893V79.028H694.149V107H686.589V47.024H694.149V72.392H724.893V47.024H732.453V107ZM786.483 107L779.259 88.436H755.487L748.347 107H740.703L764.139 46.772H770.943L794.295 107H786.483ZM770.271 63.572C770.103 63.124 769.823 62.312 769.431 61.136C769.039 59.96 768.647 58.756 768.255 57.524C767.919 56.236 767.639 55.256 767.415 54.584C767.023 56.32 766.575 58.028 766.071 59.708C765.567 61.332 765.147 62.62 764.811 63.572L758.007 81.716H776.991L770.271 63.572ZM820.56 82.136L805.02 107H796.2L813 80.792C810.872 80.064 808.856 79.056 806.952 77.768C805.104 76.48 803.592 74.716 802.416 72.476C801.24 70.236 800.652 67.352 800.652 63.824C800.652 58.392 802.528 54.248 806.28 51.392C810.032 48.48 815.632 47.024 823.08 47.024H839.88V107H832.32V82.136H820.56ZM823.248 53.492C818.488 53.492 814.82 54.332 812.244 56.012C809.724 57.636 808.464 60.352 808.464 64.16C808.464 67.856 809.696 70.712 812.16 72.728C814.624 74.744 818.432 75.752 823.584 75.752H832.32V53.492H823.248ZM410.678 237H401.606L374.474 206.592V237H366.914V177.024H374.474V206.088L400.934 177.024H409.502L383.462 206.172L410.678 237ZM471.171 206.928C471.171 213.144 470.107 218.576 467.979 223.224C465.907 227.816 462.827 231.4 458.739 233.976C454.651 236.552 449.583 237.84 443.535 237.84C437.319 237.84 432.139 236.552 427.995 233.976C423.907 231.4 420.855 227.788 418.839 223.14C416.823 218.492 415.815 213.06 415.815 206.844C415.815 200.684 416.823 195.308 418.839 190.716C420.855 186.124 423.907 182.54 427.995 179.964C432.139 177.388 437.347 176.1 443.619 176.1C449.611 176.1 454.651 177.388 458.739 179.964C462.827 182.484 465.907 186.068 467.979 190.716C470.107 195.308 471.171 200.712 471.171 206.928ZM423.795 206.928C423.795 214.488 425.391 220.452 428.583 224.82C431.775 229.132 436.759 231.288 443.535 231.288C450.367 231.288 455.351 229.132 458.487 224.82C461.623 220.452 463.191 214.488 463.191 206.928C463.191 199.368 461.623 193.46 458.487 189.204C455.351 184.892 450.395 182.736 443.619 182.736C436.843 182.736 431.831 184.892 428.583 189.204C425.391 193.46 423.795 199.368 423.795 206.928ZM510.924 237L491.184 184.416H490.848C491.016 186.152 491.156 188.504 491.268 191.472C491.38 194.384 491.436 197.436 491.436 200.628V237H484.464V177.024H495.636L514.116 226.164H514.452L533.268 177.024H544.356V237H536.88V200.124C536.88 197.212 536.936 194.328 537.048 191.472C537.216 188.616 537.356 186.292 537.468 184.5H537.132L517.14 237H510.924ZM560.671 237V177.024H605.695V237H598.219V183.66H568.231V237H560.671ZM659.745 237L652.521 218.436H628.749L621.609 237H613.965L637.401 176.772H644.205L667.557 237H659.745ZM643.533 193.572C643.365 193.124 643.085 192.312 642.693 191.136C642.301 189.96 641.909 188.756 641.517 187.524C641.181 186.236 640.901 185.256 640.677 184.584C640.285 186.32 639.837 188.028 639.333 189.708C638.829 191.332 638.409 192.62 638.073 193.572L631.269 211.716H650.253L643.533 193.572ZM721.625 237H714.065V209.028H683.321V237H675.761V177.024H683.321V202.392H714.065V177.024H721.625V237ZM738.107 177.024H745.163V209.952C745.163 211.8 745.135 213.872 745.079 216.168C745.023 218.464 744.939 220.564 744.827 222.468C744.771 224.372 744.687 225.772 744.575 226.668H744.911L777.923 177.024H786.323V237H779.267V204.408C779.267 202.336 779.295 200.124 779.351 197.772C779.463 195.42 779.575 193.264 779.687 191.304C779.799 189.344 779.883 187.944 779.939 187.104H779.603L746.507 237H738.107V177.024ZM820.56 212.136L805.02 237H796.2L813 210.792C810.872 210.064 808.856 209.056 806.952 207.768C805.104 206.48 803.592 204.716 802.416 202.476C801.24 200.236 800.652 197.352 800.652 193.824C800.652 188.392 802.528 184.248 806.28 181.392C810.032 178.48 815.632 177.024 823.08 177.024H839.88V237H832.32V212.136H820.56ZM823.248 183.492C818.488 183.492 814.82 184.332 812.244 186.012C809.724 187.636 808.464 190.352 808.464 194.16C808.464 197.856 809.696 200.712 812.16 202.728C814.624 204.744 818.432 205.752 823.584 205.752H832.32V183.492H823.248Z" fill="white"/>
</svg>
