<svg xmlns="http://www.w3.org/2000/svg" width="351" height="59.9" viewBox="0 0 351 59.9">
  <g id="al13Logo-wht-1" opacity="0.43">
    <path id="Контур_257" data-name="Контур 257" d="M43.368,7.923l-2.3-.731-3.654-.94-3.654-.626L30,5.209,26.351,5H25.1l-3.758.1-3.758.313-3.654.626-2.4.522-2.4.626L5.575,8.341,3.8,9.072l.1,5.116v1.879L4.322,21.6l.626,5.638.626,3.028.835,2.923.626,1.984,1.148,2.819L9.542,40.81l2.192,3.445,1.253,1.67L15.7,49.058l2.192,2.088L19.46,52.4,22.8,54.9l2.3,1.253,2.3-1.357,3.341-2.4L32.3,51.146l2.192-2.192,2.714-3.028,1.775-2.506,1.67-2.714,1.357-2.714.835-1.879.626-1.984.94-2.923.626-3.028.1-.94.731-5.638.418-5.638.1-5.638V9.072Z" transform="translate(-1.098 -1.078)" fill="rgba(0,0,0,0)" style="mix-blend-mode: luminosity;isolation: isolate"/>
    <path id="Контур_258" data-name="Контур 258" d="M63,8.5,47.5,54.2H58.9l2.9-9.7H76.4l3,9.7H90.9L74.6,8.5Zm1.2,27.6,4.7-17.6,5,17.6Z" transform="translate(-0.2)" fill="#636363" style="mix-blend-mode: luminosity;isolation: isolate"/>
    <path id="Контур_259" data-name="Контур 259" d="M102.9,8.5H92.6V54.2h31.8V45.6H102.9Z" transform="translate(-0.2)" fill="#636363" style="mix-blend-mode: luminosity;isolation: isolate"/>
    <path id="Контур_260" data-name="Контур 260" d="M131.2,10a2.3,2.3,0,0,1-.3.9,6.479,6.479,0,0,1-1.9,3,7.079,7.079,0,0,1-2.8,1.6,11.377,11.377,0,0,1-3.3.7c-1.1.1-2.3.1-3.4.1l-.1,6.9h10.7V54.1h9.4V8.7h-8.2A4.153,4.153,0,0,1,131.2,10Z" transform="translate(-0.2)" fill="#636363" style="mix-blend-mode: luminosity;isolation: isolate"/>
    <path id="Контур_261" data-name="Контур 261" d="M173.5,33.4a10.456,10.456,0,0,0-1.7-1.9,6.569,6.569,0,0,0-1.6-1.1,4.671,4.671,0,0,0-1-.5,8.4,8.4,0,0,0-1.4-.4,13.694,13.694,0,0,0,1.4-.8,6.07,6.07,0,0,0,1-.7,8.827,8.827,0,0,0,2.4-3.4,11.623,11.623,0,0,0,.8-4.2,10.912,10.912,0,0,0-2.3-7A12.071,12.071,0,0,0,165,9.3c-.6-.2-1.3-.3-2.2-.5a15.838,15.838,0,0,0-3.4-.3c-.6,0-1.6.1-3,.2a14.548,14.548,0,0,0-4.2,1.1,13.613,13.613,0,0,0-4.1,2.8,11.277,11.277,0,0,0-2.9,5.3,11.933,11.933,0,0,0-.5,2.6c-.1.9-.1,1.7-.2,2.6l8.6.5V22.2a6.356,6.356,0,0,1,.3-1.5,6.049,6.049,0,0,1,.8-2.1,7.509,7.509,0,0,1,1.7-1.9,5.686,5.686,0,0,1,3.1-.8,6.282,6.282,0,0,1,4,1.4,4.717,4.717,0,0,1,1.6,3.9,4.671,4.671,0,0,1-.3,1.7,8.914,8.914,0,0,1-.5,1,4.257,4.257,0,0,1-1.8,1.7,9.509,9.509,0,0,1-5.2.7c-.4,0-.7-.1-.9-.1v7.6a14.931,14.931,0,0,1,1.7-.2c.4,0,.8-.1,1.2-.1a7.885,7.885,0,0,1,2.8.4,6.737,6.737,0,0,1,1.9,1,4.894,4.894,0,0,1,1.2,1.3,9.143,9.143,0,0,1,.7,1.4,3.529,3.529,0,0,1,.3,1.4v.9a7.511,7.511,0,0,1-.5,2.6,9.8,9.8,0,0,1-1.3,2.2,8.008,8.008,0,0,1-2.1,1.5,7.191,7.191,0,0,1-5,.1,5.849,5.849,0,0,1-2.4-1.4,7.341,7.341,0,0,1-1.7-2.7,9.855,9.855,0,0,1-.4-4.4l-8.7.4a21.868,21.868,0,0,0,.6,5.8,15,15,0,0,0,1.5,3.6,9.507,9.507,0,0,0,1.5,2.1,12.94,12.94,0,0,1,1.2,1.2,14.36,14.36,0,0,0,3.1,1.9,13.133,13.133,0,0,0,3.2,1,14.709,14.709,0,0,0,2.7.4c.8,0,1.4.1,1.7.1a19.19,19.19,0,0,0,7.4-1.5,14.575,14.575,0,0,0,5.9-4.5,6.224,6.224,0,0,0,.8-1.2,15.041,15.041,0,0,0,.9-1.8,15,15,0,0,0,1-5.3,12.5,12.5,0,0,0-.5-3.6A5.4,5.4,0,0,0,173.5,33.4Z" transform="translate(-0.2)" fill="#636363" style="mix-blend-mode: luminosity;isolation: isolate"/>
    <path id="Контур_262" data-name="Контур 262" d="M48.1,14.2l.1-7.7L45.4,5.3,41.8,4l-2.4-.7-2.5-.6L33.1,2l-2.5-.3L28,1.5l-3.8-.1-2.5.1-2.5.2L16.7,2,14,2.3,10.3,3,6.6,4,3,5.3.2,6.5v5.9l.2,5.4.5,5.4.6,4.6L2,29.9l.8,3,1,3,1.7,3.8,1,1.8,1.7,2.7,1.9,2.5,1.4,1.6,2.2,2.3L15.3,52l2.5,2,2.6,1.8,2.7,1.6,1.3.6,1.3-.7,2.7-1.6L31,53.9l1.6-1.3L35,50.5l2.2-2.3,1.3-1.6,1.9-2.5,1.1-1.7,1.6-2.8,1.3-2.8,1.1-3,1.1-4.1.4-2,.6-4.6.4-3.6Zm-3.6,1.3-.4,5.4-.6,5.3-.2,1-.6,2.9-.8,2.8-.7,1.8-.8,1.8-1.3,2.6-1.6,2.5L35.8,44l-2.6,3-2.1,2-1.5,1.3-3.2,2.3L24.2,54,22,52.8l-3.2-2.3-1.5-1.3-2.1-2-2.6-3-1.2-1.6L9.3,39.3,8,36.6,6.9,33.9,6.3,32l-.8-2.8L5,26.3,4.4,21,4,15.6l-.1-1.8L3.8,8.9l1.7-.6L8.9,7.2l2.3-.6L13.5,6,17,5.4l3.6-.3L24.2,5h1.2l3.6.2,3.5.4,3.5.6,3.5.9,2.3.7,2.9,1v1.3Z" transform="translate(-0.2)" fill="#636363" style="mix-blend-mode: luminosity;isolation: isolate"/>
    <path id="Контур_263" data-name="Контур 263" d="M194.6,24.8h0l.1,2.1h2.6V11.6h-2.6v2.2h-.1a6.033,6.033,0,0,0-2.3-1.9,5.918,5.918,0,0,0-2.9-.7,6.172,6.172,0,0,0-3.1.7,5.782,5.782,0,0,0-2.3,1.8,9.339,9.339,0,0,0-1.5,2.6,10.588,10.588,0,0,0-.5,3.1,10.588,10.588,0,0,0,.5,3.1,6.811,6.811,0,0,0,1.5,2.6,8.362,8.362,0,0,0,2.3,1.8,7.349,7.349,0,0,0,3,.7h0A7.554,7.554,0,0,0,194.6,24.8Zm-8.7-1.6a8.477,8.477,0,0,1-1-1.9,7.8,7.8,0,0,1-.3-2.2A5.223,5.223,0,0,1,185,17a6.368,6.368,0,0,1,1-1.8,4.813,4.813,0,0,1,1.6-1.2,4.648,4.648,0,0,1,2.1-.5,7.8,7.8,0,0,1,2.2.4,4.813,4.813,0,0,1,1.6,1.2,5.244,5.244,0,0,1,1,1.8,7.8,7.8,0,0,1,.4,2.2,7.8,7.8,0,0,1-.3,2.2,4,4,0,0,1-1,1.8,4.969,4.969,0,0,1-6,1.3A3.114,3.114,0,0,1,185.9,23.2Z" transform="translate(-0.2)" fill="#636363" style="mix-blend-mode: luminosity;isolation: isolate"/>
    <path id="Контур_264" data-name="Контур 264" d="M204.5,19.3a10.283,10.283,0,0,1,.1-1.7,5.847,5.847,0,0,1,.4-1.9,3.766,3.766,0,0,1,.9-1.5,2.352,2.352,0,0,1,1.7-.6,1.884,1.884,0,0,1,.8.2,3.039,3.039,0,0,1,.7.5l1.2-2.4a5.359,5.359,0,0,0-1.1-.5,5.019,5.019,0,0,0-1.2-.2,3.173,3.173,0,0,0-2,.6,10.28,10.28,0,0,0-1.4,1.5h-.1V11.6h-2.6V27h2.6V19.3Z" transform="translate(-0.2)" fill="#636363" style="mix-blend-mode: luminosity;isolation: isolate"/>
    <path id="Контур_265" data-name="Контур 265" d="M222.1,27a10.076,10.076,0,0,0,2.3-1.2V22.3h-.1a6.28,6.28,0,0,1-2.1,1.9,5.2,5.2,0,0,1-2.9.7,4.193,4.193,0,0,1-2.2-.5,5.229,5.229,0,0,1-1.7-1.2,5.444,5.444,0,0,1-1.1-1.8,5.381,5.381,0,0,1-.4-2.2,5.382,5.382,0,0,1,.4-2.2,5.444,5.444,0,0,1,1.1-1.8,5.229,5.229,0,0,1,1.7-1.2,5.45,5.45,0,0,1,2.2-.5,4.953,4.953,0,0,1,2.7.7,9.277,9.277,0,0,1,2.1,1.9h.1V12.6a6.963,6.963,0,0,0-2.3-1.1,6.9,6.9,0,0,0-2.5-.4,8.662,8.662,0,0,0-3.2.6,7.821,7.821,0,0,0-2.6,1.7,10,10,0,0,0-1.8,2.6,8.756,8.756,0,0,0-.7,3.2,8.291,8.291,0,0,0,.6,3.2,7.582,7.582,0,0,0,4.3,4.3,8.662,8.662,0,0,0,3.2.6h0A8.049,8.049,0,0,0,222.1,27Z" transform="translate(-0.2)" fill="#636363" style="mix-blend-mode: luminosity;isolation: isolate"/>
    <path id="Контур_266" data-name="Контур 266" d="M231.1,19.7a14.768,14.768,0,0,1,.1-2.1,6.529,6.529,0,0,1,.5-2,3.122,3.122,0,0,1,3.2-2.1,3.007,3.007,0,0,1,1.8.4,3.178,3.178,0,0,1,1,1,5.415,5.415,0,0,1,.4,1.5,10.868,10.868,0,0,1,.1,1.8V27h2.6V17.9a22.754,22.754,0,0,0-.2-2.6,4.851,4.851,0,0,0-.8-2.1,3.638,3.638,0,0,0-1.6-1.4,5.038,5.038,0,0,0-2.6-.5,4.871,4.871,0,0,0-2.5.6,7.509,7.509,0,0,0-1.9,1.7l-.1-.1V0h-2.6V27h2.6V19.7Z" transform="translate(-0.2)" fill="#636363" style="mix-blend-mode: luminosity;isolation: isolate"/>
    <path id="Контур_267" data-name="Контур 267" d="M247.5,7.7a2.106,2.106,0,0,0,1.3-.5,1.708,1.708,0,0,0,0-2.6,1.708,1.708,0,0,0-2.6,0,1.76,1.76,0,0,0-.6,1.3,1.612,1.612,0,0,0,.6,1.3A1.9,1.9,0,0,0,247.5,7.7Z" transform="translate(-0.2)" fill="#636363" style="mix-blend-mode: luminosity;isolation: isolate"/>
    <path id="Контур_337" data-name="Контур 337" d="M0,0H2.6V15.3H0Z" transform="translate(246 11.6)" fill="#636363" style="mix-blend-mode: luminosity;isolation: isolate"/>
    <path id="Контур_268" data-name="Контур 268" d="M257,14h2.7V11.6H257V6.1h-2.6v5.5h-1.6V14h1.6V27.4H257Z" transform="translate(-0.2)" fill="#636363" style="mix-blend-mode: luminosity;isolation: isolate"/>
    <path id="Контур_269" data-name="Контур 269" d="M275.2,23.1,273,21.8a7.1,7.1,0,0,1-1.9,2.3,4.277,4.277,0,0,1-2.8.9,4.477,4.477,0,0,1-2-.4,5.715,5.715,0,0,1-1.6-1.1,5.373,5.373,0,0,1-1-1.6,4.477,4.477,0,0,1-.4-2h12a9.262,9.262,0,0,0-.3-3.3,7.388,7.388,0,0,0-1.4-2.8,7.1,7.1,0,0,0-2.3-1.9,6.711,6.711,0,0,0-3.3-.7,6.565,6.565,0,0,0-3.2.7,5.781,5.781,0,0,0-2.3,1.8,8.164,8.164,0,0,0-1.4,2.6,11.27,11.27,0,0,0-.5,3.2,10.588,10.588,0,0,0,.5,3.1,5.789,5.789,0,0,0,1.5,2.5,6.138,6.138,0,0,0,2.4,1.7,7.79,7.79,0,0,0,3.1.6h0a8.481,8.481,0,0,0,4.2-1.1A8.181,8.181,0,0,0,275.2,23.1Zm-11.2-7a4.487,4.487,0,0,1,1.1-1.3,4.194,4.194,0,0,1,1.4-.9,4.529,4.529,0,0,1,1.6-.3,4.146,4.146,0,0,1,1.6.3,4.194,4.194,0,0,1,1.4.9,6.42,6.42,0,0,1,1,1.3,3.022,3.022,0,0,1,.5,1.6h-9.2A7.581,7.581,0,0,1,264,16.1Z" transform="translate(-0.2)" fill="#636363" style="mix-blend-mode: luminosity;isolation: isolate"/>
    <path id="Контур_270" data-name="Контур 270" d="M288.2,24.3a5.073,5.073,0,0,1-2.8.7,4.193,4.193,0,0,1-2.2-.5,5.229,5.229,0,0,1-1.7-1.2,5.444,5.444,0,0,1-1.1-1.8,7.8,7.8,0,0,1-.4-2.2,5.382,5.382,0,0,1,.4-2.2,5.443,5.443,0,0,1,1.1-1.8,5.229,5.229,0,0,1,1.7-1.2,5.45,5.45,0,0,1,2.2-.5,4.953,4.953,0,0,1,2.7.7,9.277,9.277,0,0,1,2.1,1.9h.1V12.7a6.963,6.963,0,0,0-2.3-1.1,6.9,6.9,0,0,0-2.5-.4,8.662,8.662,0,0,0-3.2.6,7.821,7.821,0,0,0-2.6,1.7,10,10,0,0,0-1.8,2.6,8.756,8.756,0,0,0-.7,3.2,8.291,8.291,0,0,0,.6,3.2,7.582,7.582,0,0,0,4.3,4.3,8.662,8.662,0,0,0,3.2.6,6.566,6.566,0,0,0,2.5-.4,10.076,10.076,0,0,0,2.3-1.2V22.3H290A3.9,3.9,0,0,1,288.2,24.3Z" transform="translate(-0.2)" fill="#636363" style="mix-blend-mode: luminosity;isolation: isolate"/>
    <path id="Контур_271" data-name="Контур 271" d="M297.2,6.1h-2.6v5.5H293V14h1.6V27h2.6V14h2.7V11.6h-2.7Z" transform="translate(-0.2)" fill="#636363" style="mix-blend-mode: luminosity;isolation: isolate"/>
    <path id="Контур_272" data-name="Контур 272" d="M311.6,20.2a9.722,9.722,0,0,1-.1,1.8,5.416,5.416,0,0,1-.4,1.5,2.41,2.41,0,0,1-1,1,4.712,4.712,0,0,1-3.8,0,2.4,2.4,0,0,1-1-1,3.313,3.313,0,0,1-.4-1.5,10.868,10.868,0,0,1-.1-1.8V11.6h-2.6v8.8a12.022,12.022,0,0,0,.3,2.8,5.535,5.535,0,0,0,1,2.2,4.5,4.5,0,0,0,1.9,1.4,7.948,7.948,0,0,0,2.9.5,7.385,7.385,0,0,0,2.8-.5,4.5,4.5,0,0,0,1.9-1.4,4.965,4.965,0,0,0,1-2.2,12.65,12.65,0,0,0,.3-2.8V11.6h-2.6v8.6Z" transform="translate(-0.2)" fill="#636363" style="mix-blend-mode: luminosity;isolation: isolate"/>
    <path id="Контур_273" data-name="Контур 273" d="M324.9,11.2a3.173,3.173,0,0,0-2,.6,10.28,10.28,0,0,0-1.4,1.5h-.1V11.6h-2.6V27h2.6V19.3a10.283,10.283,0,0,1,.1-1.7,5.848,5.848,0,0,1,.4-1.9,3.766,3.766,0,0,1,.9-1.5,2.352,2.352,0,0,1,1.7-.6,1.884,1.884,0,0,1,.8.2,3.039,3.039,0,0,1,.7.5l1.2-2.4a5.359,5.359,0,0,0-1.1-.5A5.02,5.02,0,0,0,324.9,11.2Z" transform="translate(-0.2)" fill="#636363" style="mix-blend-mode: luminosity;isolation: isolate"/>
    <path id="Контур_274" data-name="Контур 274" d="M341.3,13.8h0a7.214,7.214,0,0,0-2.4-1.9,5.918,5.918,0,0,0-2.9-.7,6.172,6.172,0,0,0-3.1.7,5.781,5.781,0,0,0-2.3,1.8,9.339,9.339,0,0,0-1.5,2.6,10.588,10.588,0,0,0-.5,3.1,10.588,10.588,0,0,0,.5,3.1,6.811,6.811,0,0,0,1.5,2.6,8.362,8.362,0,0,0,2.3,1.8,7.349,7.349,0,0,0,3,.7,6.445,6.445,0,0,0,5.3-2.5h.1V27h2.6V11.6h-2.6Zm-.2,7.6a4,4,0,0,1-1,1.8,4.747,4.747,0,0,1-3.8,1.8,5.45,5.45,0,0,1-2.2-.5,6.529,6.529,0,0,1-1.6-1.3,8.476,8.476,0,0,1-1-1.9,7.8,7.8,0,0,1-.3-2.2,5.223,5.223,0,0,1,.4-2.1,6.369,6.369,0,0,1,1-1.8,4.813,4.813,0,0,1,1.6-1.2,4.648,4.648,0,0,1,2.1-.5,7.8,7.8,0,0,1,2.2.4,4.813,4.813,0,0,1,1.6,1.2,5.244,5.244,0,0,1,1,1.8,7.8,7.8,0,0,1,.4,2.2A15.722,15.722,0,0,1,341.1,21.4Z" transform="translate(-0.2)" fill="#636363" style="mix-blend-mode: luminosity;isolation: isolate"/>
    <path id="Контур_336" data-name="Контур 336" d="M0,0H2.6V26.9H0Z" transform="translate(348.4)" fill="#636363" style="mix-blend-mode: luminosity;isolation: isolate"/>
    <path id="Контур_275" data-name="Контур 275" d="M192.1,45a3.6,3.6,0,0,0-.8-1.2,10.627,10.627,0,0,0-1.1-.9c-.4-.2-.9-.5-1.3-.7a11.214,11.214,0,0,0-1.3-.5,11.732,11.732,0,0,1-1.1-.5,2.7,2.7,0,0,1-.8-.7,1.222,1.222,0,0,1-.3-.9,1.425,1.425,0,0,1,.6-1.2,1.94,1.94,0,0,1,2.6,0,2.836,2.836,0,0,1,.8,1.1l2.2-1.1a5.264,5.264,0,0,0-1.6-2,4.31,4.31,0,0,0-2.4-.8,5.663,5.663,0,0,0-1.8.3c-.1,0-.1.1-.2.1a5.67,5.67,0,0,0-1.3.8,3.587,3.587,0,0,0-1,1.4,4.711,4.711,0,0,0-.4,1.7h0a3.939,3.939,0,0,0,.5,2,5.347,5.347,0,0,0,1.3,1.3c.5.3,1.1.6,1.7.9.6.2,1.1.5,1.7.7a7.3,7.3,0,0,1,1.3.9,2.168,2.168,0,0,1,.5,1.4,2.06,2.06,0,0,1-.7,1.7,2.875,2.875,0,0,1-1.8.7,2.578,2.578,0,0,1-2-.7,9.336,9.336,0,0,1-1.2-1.8l-2.3,1a6.074,6.074,0,0,0,2,2.9,5.476,5.476,0,0,0,3.4,1,4.477,4.477,0,0,0,2-.4,4.355,4.355,0,0,0,1.6-1,4.569,4.569,0,0,0,1.1-1.6,4.477,4.477,0,0,0,.4-2A4.7,4.7,0,0,0,192.1,45Z" transform="translate(-0.2)" fill="#636363" style="mix-blend-mode: luminosity;isolation: isolate"/>
    <path id="Контур_276" data-name="Контур 276" d="M202,46.9l-5.4-11h-3l7,13.9-4.9,10.1h2.9l11.3-24H207Z" transform="translate(-0.2)" fill="#636363" style="mix-blend-mode: luminosity;isolation: isolate"/>
    <path id="Контур_277" data-name="Контур 277" d="M220.5,43.8a10.627,10.627,0,0,0-1.1-.9c-.4-.2-.9-.5-1.3-.7a11.214,11.214,0,0,0-1.3-.5,11.732,11.732,0,0,1-1.1-.5,2.7,2.7,0,0,1-.8-.7,1.222,1.222,0,0,1-.3-.9,1.425,1.425,0,0,1,.6-1.2,1.94,1.94,0,0,1,2.6,0,2.836,2.836,0,0,1,.8,1.1l2.2-1.1a5.264,5.264,0,0,0-1.6-2,4.31,4.31,0,0,0-2.4-.8,5.663,5.663,0,0,0-1.8.3,4.194,4.194,0,0,0-1.4.9,3.587,3.587,0,0,0-1,1.4,4.776,4.776,0,0,0-.4,1.8,3.939,3.939,0,0,0,.5,2,5.347,5.347,0,0,0,1.3,1.3c.5.3,1.1.6,1.7.9.6.2,1.1.5,1.7.7a14.629,14.629,0,0,1,1.3.9,2.168,2.168,0,0,1,.5,1.4,2.06,2.06,0,0,1-.7,1.7,2.875,2.875,0,0,1-1.8.7,2.578,2.578,0,0,1-2-.7,9.336,9.336,0,0,1-1.2-1.8l-2.3,1a6.074,6.074,0,0,0,2,2.9,5.476,5.476,0,0,0,3.4,1,4.477,4.477,0,0,0,2-.4,4.355,4.355,0,0,0,1.6-1,4.569,4.569,0,0,0,1.1-1.6,4.477,4.477,0,0,0,.4-2,4.31,4.31,0,0,0-.3-1.7A2.964,2.964,0,0,0,220.5,43.8Z" transform="translate(-0.2)" fill="#636363" style="mix-blend-mode: luminosity;isolation: isolate"/>
    <path id="Контур_278" data-name="Контур 278" d="M225.5,35.9h-1.6v2.4h1.6v13h2.6v-13h2.7V35.9h-2.7V30.4h-2.6Z" transform="translate(-0.2)" fill="#636363" style="mix-blend-mode: luminosity;isolation: isolate"/>
    <path id="Контур_279" data-name="Контур 279" d="M244.8,38.1a7.1,7.1,0,0,0-2.3-1.9,6.711,6.711,0,0,0-3.3-.7,7.943,7.943,0,0,0-3.2.6,5.782,5.782,0,0,0-2.3,1.8,8.164,8.164,0,0,0-1.4,2.6,11.27,11.27,0,0,0-.5,3.2,10.588,10.588,0,0,0,.5,3.1,7.123,7.123,0,0,0,3.9,4.2,7.79,7.79,0,0,0,3.1.6,8.481,8.481,0,0,0,4.2-1.1,7.546,7.546,0,0,0,2.9-3.2L244.2,46a7.1,7.1,0,0,1-1.9,2.3,4.277,4.277,0,0,1-2.8.9,4.477,4.477,0,0,1-2-.4,5.715,5.715,0,0,1-1.6-1.1,5.372,5.372,0,0,1-1-1.6,4.477,4.477,0,0,1-.4-2h12a9.262,9.262,0,0,0-.3-3.3A8.67,8.67,0,0,0,244.8,38.1Zm-10.2,3.8a3.946,3.946,0,0,1,.6-1.5,4.488,4.488,0,0,1,1.1-1.3,4.194,4.194,0,0,1,1.4-.9,4.529,4.529,0,0,1,1.6-.3,4.146,4.146,0,0,1,1.6.3,4.194,4.194,0,0,1,1.4.9,6.42,6.42,0,0,1,1,1.3,2.976,2.976,0,0,1,.5,1.5Z" transform="translate(-0.2)" fill="#636363" style="mix-blend-mode: luminosity;isolation: isolate"/>
    <path id="Контур_280" data-name="Контур 280" d="M269.2,37.5a5.356,5.356,0,0,0-1.5-1.5,4.265,4.265,0,0,0-2.4-.6,6.6,6.6,0,0,0-2.7.6,4.361,4.361,0,0,0-1.9,1.9A5.194,5.194,0,0,0,259,36a5.528,5.528,0,0,0-2.5-.7,3.7,3.7,0,0,0-2.1.6,5.725,5.725,0,0,0-1.6,1.5h-.1V35.7h-2.6V51h2.6V43.1a10.868,10.868,0,0,1,.1-1.8,8.47,8.47,0,0,1,.4-1.7,3.249,3.249,0,0,1,1-1.3,3.453,3.453,0,0,1,1.8-.5,2.456,2.456,0,0,1,1.5.5,2.836,2.836,0,0,1,.8,1.1,8.33,8.33,0,0,1,.4,1.5,8.084,8.084,0,0,1,.1,1.5v8.7h2.6V43a10.868,10.868,0,0,1,.1-1.8,8.471,8.471,0,0,1,.4-1.7,4.125,4.125,0,0,1,1-1.3,2.969,2.969,0,0,1,1.8-.5,2.537,2.537,0,0,1,1.6.4,2.258,2.258,0,0,1,.8,1.1,3.194,3.194,0,0,1,.3,1.4c0,.5.1,1,.1,1.5V51h2.6V41.7a19.418,19.418,0,0,0-.2-2.4A8.273,8.273,0,0,0,269.2,37.5Z" transform="translate(-0.2)" fill="#636363" style="mix-blend-mode: luminosity;isolation: isolate"/>
    <path id="Контур_281" data-name="Контур 281" d="M283.3,43.8a10.627,10.627,0,0,0-1.1-.9c-.4-.2-.9-.5-1.3-.7a11.215,11.215,0,0,0-1.3-.5,11.734,11.734,0,0,1-1.1-.5,2.7,2.7,0,0,1-.8-.7,1.222,1.222,0,0,1-.3-.9,1.426,1.426,0,0,1,.6-1.2,1.94,1.94,0,0,1,2.6,0,2.836,2.836,0,0,1,.8,1.1l2.2-1.1a4.469,4.469,0,0,0-1.6-2,4.31,4.31,0,0,0-2.4-.8,5.662,5.662,0,0,0-1.8.3,4.194,4.194,0,0,0-1.4.9,3.588,3.588,0,0,0-1,1.4A4.776,4.776,0,0,0,275,40a3.939,3.939,0,0,0,.5,2,5.346,5.346,0,0,0,1.3,1.3c.5.3,1.1.6,1.7.9.6.2,1.1.5,1.7.7a7.3,7.3,0,0,1,1.3.9,2.168,2.168,0,0,1,.5,1.4,2.06,2.06,0,0,1-.7,1.7,2.875,2.875,0,0,1-1.8.7,2.578,2.578,0,0,1-2-.7,9.337,9.337,0,0,1-1.2-1.8l-2.3,1a6.074,6.074,0,0,0,2,2.9,5.476,5.476,0,0,0,3.4,1,4.477,4.477,0,0,0,2-.4,4.355,4.355,0,0,0,1.6-1,3.553,3.553,0,0,0,1.1-1.6,4.477,4.477,0,0,0,.4-2,4.31,4.31,0,0,0-.3-1.7A3.883,3.883,0,0,0,283.3,43.8Z" transform="translate(-0.2)" fill="#636363" style="mix-blend-mode: luminosity;isolation: isolate"/>
    <path id="Контур_282" data-name="Контур 282" d="M189.3,27.4Z" transform="translate(-0.2)" fill="#636363" style="mix-blend-mode: luminosity;isolation: isolate"/>
    <path id="Контур_283" data-name="Контур 283" d="M219.6,27.4Z" transform="translate(-0.2)" fill="#636363" style="mix-blend-mode: luminosity;isolation: isolate"/>
    <path id="Контур_284" data-name="Контур 284" d="M268.2,27.4Z" transform="translate(-0.2)" fill="#636363" style="mix-blend-mode: luminosity;isolation: isolate"/>
    <path id="Контур_335" data-name="Контур 335" d="M0,0H0V2.6H0Z" transform="translate(226.6 29.1)" fill="#636363" style="mix-blend-mode: luminosity;isolation: isolate"/>
    <g id="Сгруппировать_560" data-name="Сгруппировать 560" transform="translate(287.4 47)">
      <path id="Контур_285" data-name="Контур 285" d="M289.7,51.2a2.1,2.1,0,1,1,2.1-2.1A2.18,2.18,0,0,1,289.7,51.2Zm0-3.9a1.9,1.9,0,1,0,1.9,1.9A1.965,1.965,0,0,0,289.7,47.3Z" transform="translate(-287.6 -47)" fill="#636363" style="mix-blend-mode: luminosity;isolation: isolate"/>
      <g id="Сгруппировать_559" data-name="Сгруппировать 559" transform="translate(1.2 1)">
        <path id="Контур_286" data-name="Контур 286" d="M289.9,48c.2,0,.3,0,.4.1a.6.6,0,0,1,.3.6c0,.1,0,.3-.1.3-.1.1-.1.2-.2.2a.349.349,0,0,1,.2.1,1.007,1.007,0,0,1,.1.3v.5a.1.1,0,0,0,.1.1v.1h-.4v-.7c0-.2-.1-.3-.2-.3h-1v1h-.3V48Zm.3,1a.367.367,0,0,0,.1-.3c0-.2-.1-.3-.2-.3H289V49h1.2Z" transform="translate(-288.8 -48)" fill="#636363" style="mix-blend-mode: luminosity;isolation: isolate"/>
      </g>
    </g>
  </g>
</svg>
