<svg xmlns="http://www.w3.org/2000/svg" width="266.252" height="54.504" viewBox="0 0 266.252 54.504">
  <g id="james-hardie" opacity="0.43">
    <path id="Контур_255" data-name="Контур 255" d="M8.5,78.39H59.848v54.5H8.5Z" transform="translate(-8.504 -78.39)" fill="none" fill-rule="evenodd"/>
    <path id="Контур_256" data-name="Контур 256" d="M10.014,104.812c0-13.724,10.421-24.941,23.385-24.941s23.512,11.217,23.512,24.941c0,13.859-10.549,24.944-23.512,24.944s-23.385-11.085-23.385-24.944ZM42.04,122.894a20.281,20.281,0,0,0,10.421-18.083c0-9.9-6.736-18.211-15.506-19.926l-6.863,20.193s-1.651,6.6-8.643,5.145c-8.261-1.583-3.177-11.35-3.177-11.35h5.464s-1.017,2.639-1.4,4.092a1.175,1.175,0,1,0,2.288.527c.508-1.583,6.1-18.74,6.1-18.74-9.278,1.32-16.395,9.765-16.395,20.058A20.392,20.392,0,0,0,26.28,123.682l8.261-25.074h6.1l-3.05,9.5h3.3l3.306-9.5h5.972L42.04,122.894ZM32,125.137h1.4A9.173,9.173,0,0,0,35.3,125l3.686-10.688H35.432Zm50.709-20.72c0,5.94-2.542,8.182-7.625,8.182-5.21,0-7.5-3.036-7.5-7.655V103.23h5.592v1.188c0,1.585,0,3.168,1.779,3.168,1.653,0,1.526-2.113,1.526-3.036V90.826H82.71v13.591Zm18.555,4.224a6.206,6.206,0,0,0,.762,3.43H96.182a5.762,5.762,0,0,1-.255-1.45,5.931,5.931,0,0,1-4.83,1.847c-2.8,0-5.21-1.45-5.21-4.619,0-4.883,5.464-4.751,8.387-5.278.764-.132,1.526-.4,1.526-1.451,0-.924-.889-1.32-1.779-1.32-1.779,0-2.16.924-2.16,1.583H86.524c.255-4.356,4.195-5.146,7.752-5.146,7.117,0,6.99,3.036,6.99,6.07v6.334h0ZM95.8,105.209a10.351,10.351,0,0,1-2.16.661c-1.271.4-1.907.661-1.907,1.716a1.633,1.633,0,0,0,1.78,1.453,2.174,2.174,0,0,0,2.288-2.375Zm9.532-8.578h5.592v2.112a5.2,5.2,0,0,1,4.83-2.507,4.513,4.513,0,0,1,4.066,2.375,5.972,5.972,0,0,1,5.084-2.375c3.813,0,5.083,2.772,5.083,5.278V112.07h-5.719v-8.313c0-1.451-.126-2.771-1.779-2.771-1.524,0-1.906,1.188-1.906,2.771v8.313h-5.719v-8.313c0-1.451-.127-2.771-1.906-2.771-1.4,0-1.907,1.188-1.907,2.771v8.313h-5.717V96.631h0Zm32.281,9.106a2.932,2.932,0,0,0,2.924,3.033,2.534,2.534,0,0,0,2.286-1.186h5.337c-1.142,3.3-4.321,4.883-7.625,4.883-4.83,0-8.388-2.9-8.388-8.049a7.838,7.838,0,0,1,7.879-8.182c5.846,0,8.388,3.431,8.388,9.5h-10.8v0Zm5.464-3.036a2.6,2.6,0,0,0-2.541-2.639,2.754,2.754,0,0,0-2.924,2.639Zm16.013-1.583a1.4,1.4,0,0,0-.636-1.188,2.374,2.374,0,0,0-1.27-.4c-.891,0-1.782.132-1.782,1.188,0,.4.382.661.636.791,1.018.4,3.178.529,5.083,1.188,1.782.661,3.56,1.847,3.56,4.356,0,4.222-4.066,5.408-7.625,5.408s-7.37-1.45-7.5-5.408h5.464a1.624,1.624,0,0,0,.761,1.32,2.107,2.107,0,0,0,1.527.527c.633,0,1.906-.4,1.906-1.186,0-.926-.509-1.189-3.178-1.716-4.321-.792-6.1-2.112-6.1-4.884,0-3.827,4.066-4.883,7.116-4.883,3.178,0,6.989.924,7.116,4.883h-5.083v0Zm17.919-10.294h6.355v7.39h5.848v-7.39h6.352V112.07h-6.352v-8.444h-5.848v8.444h-6.355Zm37.238,17.816a6.194,6.194,0,0,0,.764,3.43h-5.846a2.829,2.829,0,0,1-.127-1.45h-.127c-1.145,1.45-2.924,1.847-4.83,1.847-2.8,0-5.21-1.45-5.21-4.619,0-4.883,5.464-4.751,8.388-5.278.761-.132,1.524-.4,1.524-1.451,0-.924-.891-1.32-1.779-1.32-1.782,0-2.16.924-2.16,1.583h-5.337c.251-4.356,4.193-5.146,7.752-5.146,7.116,0,6.989,3.036,6.989,6.07v6.334Zm-5.464-3.431a10.351,10.351,0,0,1-2.16.661c-1.273.4-1.906.661-1.906,1.716a1.721,1.721,0,0,0,1.779,1.453,2.175,2.175,0,0,0,2.288-2.375Zm9.025-8.578h5.337v2.507h.127a4.4,4.4,0,0,1,4.193-2.9,7.184,7.184,0,0,1,1.651.264v5.278a5.131,5.131,0,0,0-2.288-.4c-2.16,0-3.433,1.32-3.433,4.619v6.069h-5.589ZM246.4,112.07h-5.464v-1.713c-.764,1.053-1.654,2.11-4.451,2.11-4.193,0-6.225-4.356-6.225-8.182,0-3.563,1.4-8.049,6.352-8.049a4.885,4.885,0,0,1,4.069,2.112h.127V90.826H246.4V112.07Zm-7.879-11.48c-2.16,0-2.542,1.98-2.542,3.827s.382,3.827,2.542,3.827c2.033,0,2.415-1.98,2.415-3.827S240.554,100.59,238.522,100.59Zm11.055-3.959h5.592V112.07h-5.592Zm0-5.807h5.592v4.09h-5.592Zm13.6,14.913c.127,1.713,1.018,3.033,2.8,3.033a2.611,2.611,0,0,0,2.415-1.186h5.337c-1.142,3.3-4.321,4.883-7.625,4.883-4.83,0-8.388-2.9-8.388-8.049a7.838,7.838,0,0,1,7.879-8.182c5.846,0,8.388,3.431,8.388,9.5h-10.8v0Zm5.466-3.036a2.6,2.6,0,0,0-2.542-2.639,2.754,2.754,0,0,0-2.924,2.639h5.466Z" transform="translate(-7.726 -77.627)" fill="#636363" fill-rule="evenodd"/>
  </g>
</svg>
