<svg width="1654" height="749" viewBox="0 0 1654 749" fill="none" xmlns="http://www.w3.org/2000/svg">
<path d="M1.39746 -125.628C38.2973 -52.4336 79.1728 16.5866 123.305 80.8431C142.909 109.396 163.64 137.519 188.93 155.111C239.677 190.403 297.707 177.084 350.415 147.654C364.828 139.659 378.846 130.47 392.22 120.75C449.605 78.8743 503.47 26.9654 552.312 -33.2116C600.681 -92.8392 644.29 -162.813 701.23 -208.75C738.117 -238.511 780.342 -260.844 822.469 -267.053C858.926 -272.362 895.99 -264.513 926.978 -236.826C932.544 -231.866 937.833 -226.338 942.83 -220.275C973.624 -182.915 991.465 -127.451 1000.42 -70.5384C1003.27 -52.3463 1005.28 -33.9904 1006.72 -15.7C1010.48 32.0821 1010.92 80.5702 1011.16 127.446C1011.72 202.242 1015.14 274.515 1038.05 339.314C1057.73 394.993 1095.95 440.628 1140.68 448.682C1204.34 460.156 1261.18 406.598 1315.21 367.179C1319.47 364.071 1323.76 361.036 1328.09 358.074C1393.47 313.349 1465.38 286.539 1536.57 303.166C1612.46 320.864 1686.53 397.22 1705.77 508.003" stroke="#E9E9E9" stroke-miterlimit="10"/>
<path d="M10.6851 -151.786C46.8579 -79.8654 87.1778 -12.3228 130.816 50.2561C150.2 78.0592 170.69 105.364 195.509 122.653C245.299 157.331 302.087 145.864 353.92 118.811C368.11 111.467 381.931 102.969 395.146 93.9368C451.817 55.027 505.213 6.12764 553.85 -50.9925C602.009 -107.592 645.555 -174.655 701.754 -218.849C739.934 -248.875 783.15 -272.097 826.452 -279.189C863.856 -285.245 902.154 -277.948 934.177 -250.069C939.937 -245.069 945.418 -239.468 950.602 -233.296C982.538 -195.259 1000.79 -138.238 1010.3 -79.6944C1013.32 -61.011 1015.52 -42.1529 1017.18 -23.4004C1021.5 25.6009 1022.83 75.3627 1024.4 123.312C1026.91 199.971 1033.91 272.583 1058.99 337.516C1079.41 390.372 1116.29 434.518 1159.84 442.746C1221.83 454.472 1277.42 404.928 1330.14 369.363C1334.3 366.561 1338.49 363.828 1342.7 361.171C1406.43 321.042 1475.77 298.825 1543.73 317.89C1616.17 338.179 1686.1 414.128 1703.41 522.149" stroke="#E3E3E3" stroke-miterlimit="10"/>
<path d="M19.9753 -177.941C55.4211 -107.297 95.1856 -41.2248 138.329 19.6729C157.491 46.7263 177.743 73.2121 202.096 90.1997C250.928 124.266 306.478 114.647 357.429 89.9667C371.394 83.2743 385.019 75.4647 398.08 67.1238C454.034 31.1762 506.962 -14.7063 555.397 -68.7732C603.348 -122.345 646.85 -186.445 702.287 -228.947C741.772 -259.221 785.963 -283.349 830.446 -291.326C868.795 -298.124 908.331 -291.384 941.388 -263.315C947.343 -258.271 953.016 -252.601 958.384 -246.32C991.465 -207.607 1010.12 -149.028 1020.19 -88.8541C1023.39 -69.6758 1025.77 -50.319 1027.64 -31.1043C1032.54 19.1124 1034.8 70.1515 1037.65 119.175C1042.2 197.693 1052.59 270.622 1079.94 335.712C1100.98 385.783 1136.63 428.401 1179.01 436.804C1239.33 448.784 1293.67 403.251 1345.09 371.535C1349.14 369.035 1353.22 366.608 1357.33 364.253C1419.4 328.717 1486.17 311.096 1550.89 332.6C1619.88 355.479 1685.67 431.021 1701.07 536.276" stroke="#DEDEDE" stroke-miterlimit="10"/>
<path d="M29.2629 -204.099C63.9842 -134.734 103.188 -70.135 145.84 -10.915C164.779 15.3888 184.793 41.0521 208.678 57.7413C256.55 91.1924 310.86 83.4264 360.934 61.122C374.676 55.081 388.103 47.9592 401.006 40.3097C456.243 7.32807 508.705 -35.5447 556.938 -86.5584C604.679 -137.103 648.161 -198.197 702.814 -239.05C743.616 -269.55 788.774 -294.605 834.432 -303.467C873.725 -311.011 914.498 -304.824 948.59 -276.562C954.739 -271.478 960.604 -265.736 966.159 -259.346C1000.38 -219.955 1019.44 -159.818 1030.07 -98.0183C1033.44 -78.3486 1036.01 -58.4897 1038.1 -38.8128C1043.57 12.6194 1046.78 64.9359 1050.89 115.032C1057.5 195.41 1071.19 268.663 1100.89 333.906C1122.44 381.237 1156.97 422.283 1198.17 430.86C1256.83 443.091 1309.92 401.572 1360.03 373.711C1363.98 371.516 1367.95 369.388 1371.95 367.342C1432.37 336.402 1496.56 323.374 1558.05 347.316C1623.59 372.787 1685.24 447.921 1698.73 550.41" stroke="#D8D8D8" stroke-miterlimit="10"/>
<path d="M38.5508 -230.254C72.545 -162.165 111.193 -99.0369 153.351 -41.5019C172.068 -15.9478 191.844 8.89675 215.26 25.2875C262.174 58.1236 315.218 52.0644 364.441 32.2819C377.953 26.8523 391.191 20.4619 403.937 13.5002C458.457 -16.5155 510.451 -56.3751 558.482 -104.336C606.013 -151.852 649.492 -209.896 703.344 -249.145C745.469 -279.845 791.588 -305.854 838.423 -315.6C878.663 -323.886 920.673 -318.256 955.796 -289.801C962.14 -284.677 968.199 -278.866 973.936 -272.363C1009.3 -232.295 1028.76 -170.604 1039.95 -107.17C1043.5 -87.0058 1046.26 -66.6485 1048.57 -46.5057C1054.61 6.14192 1058.75 59.7357 1064.14 110.909C1072.8 193.147 1089.69 266.745 1121.84 332.116C1143.8 376.764 1177.32 416.18 1217.34 424.936C1274.33 437.422 1326.17 399.913 1374.97 375.902C1378.82 374.01 1382.68 372.186 1386.57 370.443C1445.33 344.099 1506.95 335.664 1565.21 362.044C1627.3 390.105 1684.81 464.836 1696.38 564.556" stroke="#D2D2D2" stroke-miterlimit="10"/>
<path d="M47.8384 -256.409C81.1056 -189.597 119.196 -127.943 160.862 -72.0854C179.358 -47.2809 198.896 -23.2589 221.842 -7.16655C267.796 25.0545 319.603 20.8368 367.946 3.44162C381.232 -1.34023 394.273 -7.03922 406.863 -13.3058C460.667 -40.3593 512.194 -77.2022 560.02 -122.109C607.344 -166.594 650.834 -221.553 703.869 -259.236C747.33 -290.114 794.396 -317.095 842.406 -327.729C883.591 -336.761 926.837 -331.688 962.995 -303.041C969.533 -297.877 975.785 -291.992 981.708 -285.38C1018.21 -244.636 1038.09 -181.387 1049.83 -116.323C1053.55 -95.6635 1056.49 -74.8111 1059.02 -54.2026C1065.64 -0.335812 1070.73 54.5317 1077.38 106.779C1088.09 190.876 1108.08 264.871 1142.78 330.321C1165.07 372.35 1197.66 410.073 1236.5 419.004C1291.82 431.741 1342.42 398.246 1389.91 378.089C1393.65 376.502 1397.41 374.985 1401.19 373.544C1458.29 351.796 1517.34 347.953 1572.36 376.771C1631 407.424 1684.38 481.747 1694.03 578.705" stroke="#CDCDCD" stroke-miterlimit="10"/>
<path d="M57.126 -282.567C89.6687 -217.029 127.201 -156.849 168.373 -102.672C186.647 -78.6176 205.946 -55.4143 228.423 -39.624C273.42 -8.01433 323.988 -10.3907 371.45 -25.4058C384.514 -29.5399 397.358 -34.5437 409.792 -40.1226C462.878 -64.2101 513.937 -98.0433 561.561 -139.894C608.675 -181.351 652.19 -233.183 704.396 -269.338C749.201 -300.366 797.207 -328.351 846.394 -339.869C888.527 -349.644 933.007 -345.127 970.201 -316.287C976.934 -311.08 983.377 -305.126 989.486 -298.404C1027.14 -256.98 1047.41 -192.177 1059.72 -125.483C1063.61 -104.332 1066.74 -82.9772 1069.48 -61.9065C1076.67 -6.82428 1082.71 49.3169 1090.63 102.641C1103.4 188.598 1126.38 263.066 1163.73 328.517C1186.26 367.994 1218 403.956 1255.66 413.061C1309.32 426.053 1358.67 396.569 1404.85 380.262C1408.49 378.977 1412.14 377.765 1415.81 376.626C1471.26 359.475 1527.74 360.225 1579.52 391.481C1634.71 424.725 1683.95 498.64 1691.69 592.832" stroke="#C7C7C7" stroke-miterlimit="10"/>
<path d="M66.4137 -308.722C98.2294 -244.461 135.206 -185.754 175.884 -133.256C193.935 -109.951 212.997 -87.5665 235.005 -72.0783C279.042 -41.0836 328.376 -41.6112 374.958 -54.2463C387.799 -57.729 400.445 -62.0451 412.72 -66.9325C465.09 -88.0541 515.684 -118.878 563.102 -157.671C610.007 -196.101 653.56 -244.774 704.924 -279.437C751.086 -310.588 800.015 -339.603 850.38 -352.006C893.458 -362.526 939.177 -358.563 977.403 -329.53C984.33 -324.283 990.965 -318.256 997.26 -311.422C1036.05 -269.32 1056.74 -202.96 1069.6 -134.639C1073.66 -112.993 1076.98 -91.1401 1079.94 -69.6072C1087.7 -13.3095 1094.69 44.1092 1103.87 98.5109C1118.7 186.324 1144.57 261.374 1184.67 326.722C1207.38 363.714 1238.34 397.85 1274.82 407.129C1326.81 420.372 1374.91 394.902 1419.78 382.445C1423.32 381.466 1426.87 380.553 1430.42 379.723C1484.21 367.164 1538.12 372.514 1586.67 406.205C1638.41 442.043 1683.51 515.547 1689.33 606.974" stroke="#C2C2C2" stroke-miterlimit="10"/>
<path d="M75.7012 -334.879C106.79 -271.896 143.208 -214.66 183.395 -163.842C201.223 -141.287 220.047 -119.725 241.587 -104.535C284.666 -74.1555 332.764 -72.8308 378.462 -83.0896C391.08 -85.9209 403.53 -89.5455 415.649 -93.7414C467.302 -111.901 517.429 -139.708 564.643 -175.451C611.338 -210.853 654.94 -256.332 705.451 -289.535C752.977 -320.774 802.826 -350.855 854.369 -364.142C898.39 -375.409 945.346 -371.999 984.606 -342.776C991.728 -337.488 998.556 -331.389 1005.03 -324.446C1044.97 -281.667 1066.06 -213.75 1079.48 -143.798C1083.72 -121.657 1087.22 -99.3057 1090.4 -77.307C1098.73 -19.7938 1106.74 38.8693 1117.12 94.3773C1134.13 184.002 1162.66 259.81 1205.62 324.921C1228.44 359.504 1258.68 391.736 1293.99 401.195C1344.31 414.688 1391.16 393.232 1434.72 384.629C1438.16 383.952 1441.6 383.344 1445.05 382.817C1497.18 374.854 1548.51 384.796 1593.83 420.93C1642.12 459.359 1683.08 532.455 1686.99 621.12" stroke="#BCBCBC" stroke-miterlimit="10"/>
<path d="M84.989 -361.035C115.353 -299.329 151.214 -243.566 190.906 -194.43C208.512 -172.625 227.1 -151.881 248.169 -136.994C290.288 -107.229 337.152 -104.052 381.97 -111.938C394.368 -114.118 406.615 -117.055 418.577 -120.559C469.514 -135.753 519.173 -160.55 566.187 -193.237C612.674 -225.611 656.332 -267.865 705.984 -299.638C754.887 -330.931 805.642 -362.112 858.36 -376.283C903.326 -388.292 951.521 -385.439 991.813 -356.023C999.129 -350.692 1006.15 -344.524 1012.81 -337.471C1053.89 -294.016 1075.39 -224.541 1089.37 -152.959C1093.78 -130.327 1097.47 -107.473 1100.87 -85.0119C1109.76 -26.2795 1118.72 33.6537 1130.37 90.2389C1149.43 181.716 1180.65 258.408 1226.57 323.119C1249.46 355.37 1279.02 385.622 1313.16 395.255C1361.82 409.003 1407.41 391.557 1449.67 386.805C1453 386.433 1456.33 386.131 1459.67 385.906C1510.15 382.54 1558.91 397.074 1601 435.646C1645.84 476.666 1682.66 549.358 1684.65 635.253" stroke="#B7B7B7" stroke-miterlimit="10"/>
<path d="M94.2766 -387.188C123.914 -326.76 159.216 -272.471 198.417 -225.013C215.802 -203.957 234.15 -184.036 254.75 -169.443C295.912 -140.294 341.542 -135.257 385.474 -140.774C397.649 -142.302 409.699 -144.548 421.506 -147.365C471.726 -159.596 520.918 -181.376 567.728 -211.01C614.005 -240.356 657.73 -279.357 706.511 -309.729C756.799 -341.044 808.453 -373.356 862.346 -388.411C908.259 -401.166 957.688 -398.87 999.016 -369.262C1006.53 -363.891 1013.74 -357.649 1020.59 -350.488C1062.81 -306.356 1084.71 -235.323 1099.25 -162.11C1103.84 -138.984 1107.71 -115.631 1111.33 -92.7079C1120.79 -32.7601 1130.7 28.4467 1143.61 86.1091C1164.73 179.439 1198.52 257.208 1247.52 321.322C1270.44 351.32 1299.37 379.512 1332.32 389.32C1379.31 403.32 1423.66 389.888 1464.6 388.989C1467.83 388.92 1471.06 388.923 1474.29 389C1523.11 390.23 1569.3 409.357 1608.16 450.367C1649.55 493.978 1682.23 566.263 1682.3 649.392" stroke="#B1B1B1" stroke-miterlimit="10"/>
<path d="M103.564 -413.347C132.474 -354.192 167.221 -301.377 205.928 -255.6C223.091 -235.294 241.2 -216.192 261.332 -201.901C301.534 -173.363 345.93 -166.466 388.979 -169.618C400.931 -170.491 412.784 -172.052 424.432 -174.178C473.937 -183.443 522.659 -202.214 569.267 -228.791C615.334 -255.105 659.13 -290.827 707.036 -319.828C758.722 -351.121 811.261 -384.608 866.332 -400.548C913.19 -414.045 963.855 -412.306 1006.22 -382.505C1013.92 -377.093 1021.33 -370.779 1028.36 -363.508C1071.73 -318.696 1094.04 -246.109 1109.13 -171.27C1113.89 -147.652 1117.95 -123.797 1121.79 -100.408C1131.82 -39.2452 1142.68 23.2355 1156.85 81.9788C1180.03 177.161 1216.3 256.232 1268.46 319.528C1291.39 347.35 1319.7 373.406 1351.48 383.388C1396.81 397.643 1439.91 388.221 1479.54 391.172C1482.66 391.409 1485.79 391.711 1488.91 392.097C1536.07 397.923 1579.69 421.643 1615.31 465.091C1653.25 511.294 1681.79 583.17 1679.95 663.538" stroke="#ABABAB" stroke-miterlimit="10"/>
<path d="M112.852 -439.501C141.038 -381.624 175.226 -330.283 213.439 -286.184C230.379 -266.631 248.25 -248.348 267.914 -234.355C307.159 -206.432 350.318 -197.669 392.486 -198.458C404.216 -198.677 415.869 -199.55 427.363 -200.988C476.152 -207.287 524.408 -223.045 570.81 -246.568C616.668 -269.855 660.544 -302.265 707.566 -329.923C760.657 -361.15 814.072 -395.857 870.32 -412.681C918.126 -426.925 970.027 -425.738 1013.42 -395.744C1021.32 -390.293 1028.92 -383.906 1036.14 -376.526C1080.64 -331.036 1103.36 -256.892 1119.01 -180.423C1123.94 -156.31 1128.19 -131.96 1132.24 -108.105C1142.85 -45.7266 1154.65 18.0277 1170.1 77.8481C1195.32 174.886 1233.97 255.519 1289.4 317.73C1312.33 343.455 1340.04 367.296 1370.64 377.452C1414.3 391.958 1456.15 386.547 1494.47 393.352C1497.5 393.89 1500.52 394.498 1503.52 395.186C1549.03 405.605 1590.08 433.921 1622.46 479.807C1656.95 528.601 1681.36 600.071 1677.6 677.672" stroke="#A6A6A6" stroke-miterlimit="10"/>
<path d="M122.14 -465.656C149.598 -409.056 183.229 -359.186 220.95 -316.768C237.667 -297.964 255.303 -280.5 274.495 -266.809C312.783 -239.501 354.705 -228.868 395.99 -227.303C407.498 -226.866 418.954 -227.055 430.289 -227.798C478.361 -231.135 526.149 -243.879 572.349 -264.346C617.999 -284.605 661.954 -313.682 708.09 -340.018C762.6 -371.137 816.88 -407.106 874.306 -424.814C923.056 -439.8 976.194 -439.171 1020.62 -408.987C1028.72 -403.492 1036.51 -397.037 1043.91 -389.547C1089.56 -343.381 1112.68 -267.683 1128.9 -189.579C1134 -164.971 1138.43 -140.123 1142.71 -115.806C1153.89 -52.2084 1166.63 12.8125 1183.34 73.7137C1210.63 172.604 1251.56 255.089 1310.36 315.932C1333.27 339.641 1360.39 361.185 1389.81 371.52C1431.8 386.281 1472.4 384.883 1509.42 395.539C1512.34 396.379 1515.25 397.293 1518.15 398.286C1562 413.301 1600.48 446.21 1629.63 494.535C1660.67 545.92 1680.93 616.981 1675.25 691.817" stroke="#A0A0A0" stroke-miterlimit="10"/>
<path d="M131.427 -491.814C158.159 -436.492 191.234 -388.095 228.462 -347.358C244.956 -329.304 262.353 -312.659 281.077 -299.27C318.405 -272.577 359.088 -259.971 399.495 -256.15C410.78 -255.029 422.038 -254.563 433.218 -254.614C480.573 -254.985 527.894 -264.716 573.893 -282.13C619.333 -299.361 663.372 -325.079 708.62 -350.12C764.559 -381.078 819.693 -418.362 878.294 -436.954C927.989 -452.686 982.366 -452.613 1027.83 -422.234C1036.12 -416.699 1044.1 -410.17 1051.69 -402.571C1098.48 -355.728 1122.01 -278.469 1138.78 -198.739C1144.06 -173.639 1148.67 -148.289 1153.17 -123.506C1164.92 -58.6929 1178.61 7.60148 1196.59 69.5799C1225.93 170.323 1269.07 254.98 1331.3 314.131C1354.21 335.904 1380.73 355.075 1408.97 365.582C1449.3 380.593 1488.65 383.206 1524.36 397.715C1527.17 398.862 1529.98 400.077 1532.77 401.373C1574.96 420.984 1610.86 458.485 1636.78 509.248C1664.38 563.228 1680.5 633.882 1672.9 705.952" stroke="#9B9B9B" stroke-miterlimit="10"/>
<path d="M140.718 -517.969C166.725 -463.924 199.239 -416.997 235.975 -377.942C252.249 -360.637 269.406 -344.814 287.662 -331.721C324.031 -305.639 363.476 -291.184 403.005 -284.987C414.064 -283.214 425.128 -282.057 436.149 -281.42C482.787 -278.829 529.64 -285.547 575.436 -299.907C620.666 -314.111 664.79 -336.448 709.15 -360.215C766.527 -390.959 822.507 -429.61 882.286 -449.087C932.927 -465.561 988.538 -466.046 1035.04 -435.473C1043.52 -429.898 1051.69 -423.296 1059.47 -415.585C1107.4 -368.065 1131.34 -289.252 1148.67 -207.891C1154.12 -182.297 1158.92 -156.448 1163.63 -131.203C1175.95 -65.1744 1190.59 2.39373 1209.84 65.453C1241.23 168.048 1286.52 255.22 1352.25 312.341C1375.17 332.254 1401.07 348.969 1428.14 359.653C1466.8 374.919 1504.9 381.543 1539.3 399.906C1542.01 401.354 1544.71 402.875 1547.39 404.477C1587.93 428.684 1621.26 470.782 1643.94 523.979C1668.09 580.55 1680.08 650.797 1670.56 720.101" stroke="#959595" stroke-miterlimit="10"/>
<path d="M150.005 -544.127C175.285 -491.36 207.244 -445.906 243.486 -408.529C259.537 -391.974 276.456 -376.97 294.243 -364.178C329.653 -338.712 367.859 -322.404 406.51 -313.834C417.346 -311.411 428.211 -309.566 439.078 -308.237C484.999 -302.68 531.386 -306.385 576.977 -317.692C621.998 -328.868 666.209 -347.802 709.678 -370.321C768.504 -400.792 825.318 -440.87 886.272 -461.231C937.858 -478.452 994.708 -479.489 1042.24 -448.723C1050.92 -443.108 1059.28 -436.434 1067.24 -428.613C1116.32 -380.413 1140.66 -300.046 1158.55 -217.055C1164.17 -190.965 1169.16 -164.618 1174.09 -138.911C1186.98 -71.6668 1202.56 -2.82488 1223.08 61.3116C1256.53 165.763 1303.91 255.81 1373.19 310.532C1396.15 328.666 1421.41 342.851 1447.3 353.707C1484.29 369.224 1521.15 379.861 1554.23 402.075C1556.85 403.829 1559.44 405.652 1562.01 407.555C1600.89 436.359 1631.65 483.05 1651.1 538.685C1671.79 597.847 1679.64 667.686 1668.21 734.224" stroke="#909090" stroke-miterlimit="10"/>
<path d="M159.293 -570.282C216.348 -450.63 310.379 -371.544 410.017 -342.675C509.655 -313.805 614.279 -332.456 710.207 -380.413C770.493 -410.552 828.129 -452.115 890.263 -473.36C952.394 -494.609 1022.29 -492.954 1075.02 -441.631C1141.01 -377.399 1163.02 -256.099 1184.55 -146.608C1219.96 33.4465 1276.59 224.91 1394.14 308.738C1452.7 350.493 1521.23 360.952 1576.63 410.656C1653.44 479.567 1691.77 624.62 1665.87 748.373" stroke="#8A8A8A" stroke-miterlimit="10"/>
</svg>
