<svg width="21" height="20" viewBox="0 0 21 20" fill="none" xmlns="http://www.w3.org/2000/svg">
<path fill-rule="evenodd" clip-rule="evenodd" d="M10.958 11.4416H12.3854C12.7237 11.4416 13.0042 11.1666 13.0042 10.825C13.0042 10.475 12.7237 10.2 12.3854 10.2H10.958V8.75829C10.958 8.41663 10.6857 8.14163 10.3474 8.14163C10.0092 8.14163 9.72863 8.41663 9.72863 8.75829V10.2H8.30949C7.9712 10.2 7.69067 10.475 7.69067 10.825C7.69067 11.1666 7.9712 11.4416 8.30949 11.4416H9.72863V12.8833C9.72863 13.225 10.0092 13.5 10.3474 13.5C10.6857 13.5 10.958 13.225 10.958 12.8833V11.4416ZM16.6151 7.5213C16.8091 7.51906 17.0203 7.51663 17.2121 7.51663C17.4184 7.51663 17.5834 7.68329 17.5834 7.89163V14.5916C17.5834 16.6583 15.925 18.3333 13.8705 18.3333H7.31114C5.16592 18.3333 3.41675 16.575 3.41675 14.4083V5.42496C3.41675 3.35829 5.08341 1.66663 7.13787 1.66663H11.5438C11.7583 1.66663 11.9233 1.84163 11.9233 2.04996V4.73329C11.9233 6.25829 13.1692 7.50829 14.6791 7.51663C15.0318 7.51663 15.3427 7.51926 15.6148 7.52157C15.8265 7.52336 16.0147 7.52496 16.1808 7.52496C16.2982 7.52496 16.4505 7.5232 16.6151 7.5213ZM16.8417 6.30513C16.1635 6.30763 15.364 6.30513 14.7889 6.29929C13.8764 6.29929 13.1248 5.54013 13.1248 4.61846V2.42179C13.1248 2.06263 13.5563 1.88429 13.803 2.14346C14.25 2.61295 14.8646 3.25851 15.4761 3.90092C16.0846 4.54015 16.6902 5.17626 17.1248 5.63263C17.3657 5.88513 17.1891 6.30429 16.8417 6.30513Z" fill="#3B4AD9"/>
</svg>
