<svg width="45" height="45" viewBox="0 0 45 45" fill="none" xmlns="http://www.w3.org/2000/svg">
<path fill-rule="evenodd" clip-rule="evenodd" d="M35.0753 16.4931C35.0753 18.848 35.6977 20.236 37.0673 21.8355C38.1053 23.0139 38.437 24.5265 38.437 26.1675C38.437 27.8067 37.8985 29.3628 36.8195 30.6261C35.407 32.1406 33.4149 33.1075 31.3818 33.2756C28.4357 33.5267 25.4876 33.7383 22.5004 33.7383C19.5114 33.7383 16.5652 33.6117 13.619 33.2756C11.5841 33.1075 9.59205 32.1406 8.18138 30.6261C7.10242 29.3628 6.56201 27.8067 6.56201 26.1675C6.56201 24.5265 6.89558 23.0139 7.93168 21.8355C9.3442 20.236 9.92561 18.848 9.92561 16.4931V15.6943C9.92561 12.5406 10.712 10.4785 12.3314 8.45974C14.739 5.51568 18.5983 3.75 22.4166 3.75H22.5843C26.4846 3.75 30.4687 5.60066 32.8354 8.67125C34.3709 10.6484 35.0753 12.6237 35.0753 15.6943V16.4931ZM17.0127 37.614C17.0127 36.6698 17.8792 36.2374 18.6805 36.0523C19.6179 35.854 25.3295 35.854 26.2668 36.0523C27.0681 36.2374 27.9346 36.6698 27.9346 37.614C27.888 38.5129 27.3607 39.3098 26.632 39.8159C25.6872 40.5524 24.5785 41.0189 23.4194 41.1869C22.7783 41.27 22.1485 41.2719 21.5298 41.1869C20.3688 41.0189 19.2601 40.5524 18.3171 39.8141C17.5866 39.3098 17.0593 38.5129 17.0127 37.614Z" fill="white"/>
</svg>
