<?xml version="1.0" encoding="utf-8"?>
<!-- Generator: Adobe Illustrator 22.1.0, SVG Export Plug-In . SVG Version: 6.00 Build 0)  -->
<svg version="1.1" id="Слой_1" xmlns="http://www.w3.org/2000/svg" xmlns:xlink="http://www.w3.org/1999/xlink" x="0px" y="0px"
	 viewBox="0 0 183.6 204.7" style="enable-background:new 0 0 183.6 204.7;" xml:space="preserve">
<style type="text/css">
	.st0{opacity:0.5;fill:#13247A;enable-background:new    ;}
	.st1{fill:url(#SVGID_1_);}
	.st2{fill:url(#SVGID_2_);}
	.st3{fill:#FFFFFF;}
	.st4{fill:#0F65B2;}
	.st5{fill:#0063AD;}
	.st6{opacity:0.4;fill:#FFFFFF;enable-background:new    ;}
	.st7{opacity:0.2;fill:#041860;enable-background:new    ;}
	.st8{fill:url(#SVGID_3_);}
	.st9{fill:#E8E8E8;}
	.st10{fill:url(#SVGID_4_);}
	.st11{fill:url(#SVGID_5_);}
	.st12{fill:url(#SVGID_6_);}
	.st13{fill:#DDE1ED;}
	.st14{fill:url(#SVGID_7_);}
	.st15{fill:url(#SVGID_8_);}
	.st16{fill:url(#SVGID_9_);}
	.st17{fill:url(#SVGID_10_);}
</style>
<path class="st0" d="M181.6,172.5l-53.9,31.1c-2.4,1.4-6,1.5-8.2,0.3L1.4,135.8c-2.1-1.2-1.8-3.3,0.6-4.7l53.9-31.1
	c2.4-1.4,6-1.5,8.2-0.3l118.2,68.1C184.3,169,184,171.1,181.6,172.5z"/>
<linearGradient id="SVGID_1_" gradientUnits="userSpaceOnUse" x1="12.5519" y1="101.0959" x2="168.1552" y2="18.9279" gradientTransform="matrix(1 0 0 -1 0 196.5653)">
	<stop  offset="0" style="stop-color:#3A9BD5"/>
	<stop  offset="0.3053" style="stop-color:#3A9BD5"/>
	<stop  offset="0.3555" style="stop-color:#3A9BD5"/>
	<stop  offset="0.5988" style="stop-color:#3999D4"/>
	<stop  offset="0.6883" style="stop-color:#3592CF"/>
	<stop  offset="0.7522" style="stop-color:#2F86C7"/>
	<stop  offset="0.8039" style="stop-color:#2676BC"/>
	<stop  offset="0.8102" style="stop-color:#2573BA"/>
</linearGradient>
<path class="st1" d="M183.6,149.6l-11.1-1.9L64.1,85.2c-2.1-1.2-5.7-1.1-8.2,0.3l-50.2,29l-5.7-1v5.7c0,0.8,0.5,1.5,1.4,2
	l118.2,68.1c2.1,1.2,5.7,1.1,8.2-0.3l53.9-31.1c1.3-0.8,2-1.8,2-2.7V149.6L183.6,149.6z"/>
<linearGradient id="SVGID_2_" gradientUnits="userSpaceOnUse" x1="22.3317" y1="35.5864" x2="160.6362" y2="94.0304" gradientTransform="matrix(1 0 0 -1 0 196.5653)">
	<stop  offset="0" style="stop-color:#59BDEF"/>
	<stop  offset="1" style="stop-color:#7BDAFF"/>
</linearGradient>
<path class="st2" d="M181.6,152.3l-53.9,31.1c-2.4,1.4-6,1.5-8.2,0.3L1.4,115.6c-2.1-1.2-1.8-3.3,0.6-4.7l53.9-31.1
	c2.4-1.4,6-1.5,8.2-0.3l118.2,68.1C184.3,148.8,184,150.9,181.6,152.3z"/>
<path class="st3" d="M181.6,151.5l-53.9,31.1c-2.4,1.4-6,1.5-8.2,0.3L1.4,114.9c-0.8-0.5-1.2-1.1-1.4-1.7c-0.2,0.9,0.3,1.8,1.4,2.4
	l118.2,68.1c2.1,1.2,5.7,1.1,8.2-0.3l53.9-31.1c1.5-0.9,2.2-2,2-3C183.4,150.1,182.8,150.9,181.6,151.5z"/>
<path class="st4" d="M181.7,147.3l-62.6,36.1L1.9,115.9l62.6-36.1L181.7,147.3z"/>
<path class="st5" d="M37,94l-8.3,4.8c-0.4,0.2-0.9,0.2-1.2,0l-0.1,0c-0.3-0.2-0.3-0.5,0.1-0.7l8.3-4.8c0.4-0.2,0.9-0.2,1.2,0l0.1,0
	C37.5,93.4,37.4,93.8,37,94z"/>
<path class="st6" d="M175.2,62.3l-84.8,48.9c-1.7,1-4.3,1.1-5.7,0.2L32.7,81.4c-1.5-0.9-1.3-2.3,0.4-3.3l84.8-48.9
	c1.7-1,4.3-1.1,5.7-0.2L175.6,59C177.1,59.8,176.9,61.3,175.2,62.3z"/>
<path class="st7" d="M166.3,63.3L92.1,106c-1.5,0.9-3.7,0.9-5,0.2L41.6,80.1c-1.3-0.8-1.1-2,0.4-2.9l74.2-42.8
	c1.5-0.9,3.7-0.9,5-0.2l45.4,26.2C168,61.1,167.8,62.4,166.3,63.3z"/>
<path class="st3" d="M87.1,112.3c-1,0-1.9-0.2-2.6-0.6L32.5,81.7c-0.8-0.4-1.1-1-1.1-1.7c0-0.8,0.6-1.6,1.5-2.1L117.8,29
	c1.8-1,4.5-1.1,6-0.2l51.9,29.9c0.8,0.4,1.1,1,1.1,1.7c0,0.8-0.6,1.6-1.5,2.1l-84.8,48.9C89.5,112,88.3,112.3,87.1,112.3z
	 M121.2,28.8c-1.1,0-2.2,0.3-3.1,0.8L33.3,78.4C32.5,78.8,32,79.4,32,80c0,0.5,0.3,0.9,0.8,1.2l51.9,29.9c1.4,0.8,3.9,0.7,5.4-0.2
	L175,62c0.8-0.5,1.2-1.1,1.2-1.6c0-0.5-0.3-0.9-0.8-1.2l-51.9-29.9C122.9,28.9,122.1,28.8,121.2,28.8z"/>
<path class="st3" d="M176.6,48l-0.9,0.8l0,0l-51.9-29.9c-1.5-0.9-4-0.8-5.7,0.2L33.1,67.9c-0.2,0.1-0.4,0.2-0.5,0.4l-0.9-0.6v2.1
	c0,0.6,0.3,1.1,1,1.5l51.9,29.9c1.5,0.9,4,0.8,5.7-0.2L175.2,52c0.9-0.5,1.4-1.2,1.4-1.9V48L176.6,48z"/>
<linearGradient id="SVGID_3_" gradientUnits="userSpaceOnUse" x1="156.124" y1="205.8325" x2="56.413" y2="77.1337" gradientTransform="matrix(1 0 0 -1 0 196.5653)">
	<stop  offset="0" style="stop-color:#59BDEF"/>
	<stop  offset="1" style="stop-color:#7BDAFF"/>
</linearGradient>
<path class="st8" d="M175.2,49.9L90.4,98.7c-1.7,1-4.3,1.1-5.7,0.2L32.7,69.1c-1.5-0.9-1.3-2.3,0.4-3.3l84.8-48.9
	c1.7-1,4.3-1.1,5.7-0.2l51.9,29.9C177.1,47.4,176.9,48.9,175.2,49.9z"/>
<path class="st3" d="M108.2,40.3l-7.3-4.2l1.8-1c0.3-0.2,0.7-0.3,1-0.5c0.3-0.1,0.6-0.2,1-0.2c0.3,0,0.7,0,1,0.1
	c0.3,0.1,0.7,0.2,1.1,0.4c0.9,0.5,1.1,1,0.5,1.5c0.5-0.2,1-0.3,1.5-0.2c0.5,0,1,0.2,1.5,0.5c0.7,0.4,1.1,0.8,1.1,1.2
	c0,0.4-0.3,0.8-1,1.2L108.2,40.3z M105.3,37l0.4-0.2c0.4-0.2,0.6-0.4,0.6-0.6c0-0.2-0.2-0.4-0.6-0.6c-0.2-0.1-0.4-0.2-0.6-0.3
	c-0.2,0-0.3,0-0.5,0c-0.2,0-0.3,0.1-0.5,0.2c-0.2,0.1-0.3,0.2-0.6,0.3l-0.2,0.1L105.3,37z M108.6,39l0.5-0.3
	c0.4-0.2,0.6-0.5,0.5-0.6c0-0.2-0.3-0.4-0.7-0.6c-0.5-0.3-0.8-0.4-1.2-0.4c-0.4,0-0.8,0.1-1.2,0.3l-0.4,0.2L108.6,39z"/>
<path class="st3" d="M112.8,37.6l-5.8-5l1.4-0.8l8.8,3.4l-1.2,0.7l-2-0.8l-1.2,0.7l1.4,1.1L112.8,37.6z M112,35.2l1-0.6l-3.5-1.4
	L112,35.2z"/>
<path class="st3" d="M117.9,34.7l-7.3-4.2l0.9-0.5l5.9,1.4l-4.1-2.4l1.1-0.6l7.3,4.2l-0.9,0.5l-6.2-1.5L119,34L117.9,34.7z"/>
<path class="st3" d="M122.8,31.9l-7.3-4.2l1.3-0.8l3.2,1.8l-1.7-2.6l1.3-0.7l1.9,2.7l5.6,1.4l-1.3,0.8L121,29l0.2,0.4l2.9,1.7
	L122.8,31.9z"/>
<path class="st3" d="M100.3,80.8l-16.3,9.3l-1.9-1.1l16.3-9.3L100.3,80.8z"/>
<path class="st3" d="M120.3,69.3l-16.2,9.4l-1.9-1.1l16.2-9.4L120.3,69.3z"/>
<path class="st3" d="M140.3,57.8l-16.3,9.4l-1.9-1.1l16.3-9.4L140.3,57.8z"/>
<path class="st3" d="M160.3,46.3L144,55.6l-1.9-1.1l16.3-9.3L160.3,46.3z"/>
<path class="st3" d="M173.4,111.2L147.3,96c-5.2-3-10-3.5-13.7-1.3c-3.7,2.1-5.7,6.6-5.7,12.5v1.9c0.2,0.1,0.4,0.3,0.6,0.4v-2.3
	c0-5.7,1.9-10,5.4-12c3.5-2,8.2-1.5,13.1,1.3l26.1,15.1c0.2,0.1,0.3,0,0.4-0.1C173.6,111.4,173.5,111.3,173.4,111.2z"/>
<path class="st3" d="M92,93.1V34.5c0-11.8-8.3-26.1-18.5-31.9c-5-2.9-9.7-3.3-13.3-1.3c-3.5,2-5.5,6.3-5.5,12.1v4.1
	c0.2,0.2,0.4,0.4,0.6,0.6v-4.7c0-5.5,1.8-9.6,5.2-11.6c3.4-2,7.9-1.5,12.7,1.3c10,5.8,18.2,19.9,18.2,31.5v58.7
	c0,9.7,5.7,21.2,13.5,28.2c0-0.3,0-0.5,0-0.8C97.5,113.7,92,102.6,92,93.1z"/>
<path class="st9" d="M105.1,121.1c0,0-6.6-6.7-9.2-12.3c-2.6-5.6-3.9-10.7-4-15.3c0-4.6-0.1-44.1-0.1-44.1s0.3-16.4-0.4-18.9
	c-0.7-2.6-2.3-16.4-15.9-26.3C62-5.8,55.2,4.9,55.3,10.5c0.1,5.6,0,9.2,0,9.2s7.4,6,10.2,14.5c2.8,8.6,3.1,7.1,3.1,15.6
	c0,8.5,0.1,51.7,0.1,51.7s-0.6,7.6,1.2,13.4c1.9,5.9,5.3,12.4,9.3,16.6c4,4.3,10,9.3,15.5,8.8c5.5-0.5,9.2-2.5,10.3-11.2
	L105.1,121.1L105.1,121.1z"/>
<path class="st9" d="M60.3,1.3L37.5,14.4l17.8,5.3L60.3,1.3z"/>
<linearGradient id="SVGID_4_" gradientUnits="userSpaceOnUse" x1="124.6341" y1="83.2489" x2="98.4931" y2="69.1509" gradientTransform="matrix(1 0 0 -1 0 196.5653)">
	<stop  offset="0" style="stop-color:#59BDEF"/>
	<stop  offset="1" style="stop-color:#7BDAFF"/>
</linearGradient>
<path class="st10" d="M127.9,109.1v2.6c-1.3-0.9-7.2-5-12.9-4.8c-6.4,0.2-8.5,6.1-8.5,6.1s-1.5,4.4-1.4,6.4c0,0.3,0,0.8,0,1.2
	c0,0-0.1-0.1-0.1-0.1c0,0.3,0,0.5,0,0.8c0,0,0.1,0.1,0.1,0.1c0,2,0.1,4.1,0.1,4.1s0,3.9-0.5,6.4c-1,4.6-4.9,7.2-5.2,7.6l23.4-13.4
	c0,0,0,0,0.1,0c0,0,0.1,0,0.1-0.1l0.1-0.1c3.4-2.1,5.2-6.3,5.2-11.9v-4.6C128.2,109.4,128.1,109.2,127.9,109.1z"/>
<path class="st9" d="M109.6,108.5l24-13.8c0,0,4.1-2.1,9-0.3c4.9,1.8,30.8,17.3,30.8,17.3L150.3,125c0,0-26.9-16.6-30-17.4
	C113.8,105.8,109.6,108.5,109.6,108.5z"/>
<linearGradient id="SVGID_5_" gradientUnits="userSpaceOnUse" x1="44.0942" y1="172.5513" x2="14.0438" y2="162.4304" gradientTransform="matrix(1 0 0 -1 0 196.5653)">
	<stop  offset="0" style="stop-color:#59BDEF"/>
	<stop  offset="1" style="stop-color:#7BDAFF"/>
</linearGradient>
<path class="st11" d="M54.8,19.2c-0.9-0.9-5.4-4.8-11.8-5.8c-7.3-1.1-10.3,7.4-10.3,7.4s-0.8,4.4-0.8,7c0,2.6,0.2,12.1,0.2,12.1
	l23.1-13.3c0.1,0,0.2-0.2,0.2-0.3v-6.7C55.2,19.5,55,19.4,54.8,19.2z"/>
<linearGradient id="SVGID_6_" gradientUnits="userSpaceOnUse" x1="31.6773" y1="119.6072" x2="150.4387" y2="119.6072" gradientTransform="matrix(1 0 0 -1 0 196.5653)">
	<stop  offset="0" style="stop-color:#59BDEF"/>
	<stop  offset="1" style="stop-color:#7BDAFF"/>
</linearGradient>
<path class="st12" d="M95,140.7c-2.5,0-5.4-0.9-8.3-2.5c-10.1-5.8-18.3-20-18.3-31.7V47.7c0-11.6-8.2-25.7-18.2-31.5
	c-4.8-2.7-9.3-3.2-12.7-1.3c-3.4,2-5.2,6.1-5.2,11.6v13.1c0,0.2-0.1,0.3-0.3,0.3c-0.2,0-0.3-0.1-0.3-0.3V26.6c0-5.8,2-10.1,5.5-12.1
	c3.5-2,8.3-1.6,13.3,1.3C60.6,21.7,68.9,36,68.9,47.7v58.7c0,11.5,8.1,25.5,18.1,31.2c4.8,2.7,9.2,3.2,12.6,1.3
	c3.4-1.9,5.2-6,5.2-11.5v-6.9c0-6,2-10.4,5.7-12.5c3.7-2.1,8.6-1.7,13.7,1.3l26.1,15.1c0.2,0.1,0.2,0.3,0.1,0.4
	c-0.1,0.2-0.3,0.2-0.4,0.1l-26.1-15.1c-5-2.9-9.7-3.4-13.1-1.3c-3.5,2-5.4,6.3-5.4,12v6.9c0,5.7-2,10-5.5,12
	C98.4,140.2,96.8,140.7,95,140.7z"/>
<path class="st13" d="M74.6,60.6v-2.1l2.4-1.4v2.1L74.6,60.6z"/>
<path class="st13" d="M81.4,52.8v-2.1l4.6-2.7v2.1L81.4,52.8z"/>
<path class="st13" d="M74.8,52.4v-2.1L86,43.9v2.1L74.8,52.4z"/>
<path class="st13" d="M78.7,58.2v-2.1l9.4-5.4v2.1L78.7,58.2z"/>
<path class="st13" d="M74.8,56.6v-2.1l4.6-2.7v2.1L74.8,56.6z"/>
<path class="st13" d="M77.5,80.8v2.1l-2.9,1.6v-2.1L77.5,80.8z"/>
<path class="st13" d="M82.7,77.8v2.1l-2.9,1.6v-2.1L82.7,77.8z"/>
<path class="st13" d="M85.8,72.1v2.1l-11,6.3v-2.1L85.8,72.1z"/>
<path class="st13" d="M80.3,65.6v-2.1l5.5-3.2v2.1L80.3,65.6z"/>
<path class="st13" d="M74.7,68.8v-2.1l2.9-1.6v2.1L74.7,68.8z"/>
<path class="st13" d="M74.7,72.7v-2.1l5.4-3.1v2.1L74.7,72.7z"/>
<path class="st13" d="M82.3,68.3v-2.1l3.5-2v2.1L82.3,68.3z"/>
<path class="st13" d="M80.3,89.7v-2.1l5.5-3.2v2.1L80.3,89.7z"/>
<path class="st13" d="M74.7,92.9v-2.1l2.9-1.6v2.1L74.7,92.9z"/>
<path class="st13" d="M74.7,96.8v-2.1l5.4-3.1v2.1L74.7,96.8z"/>
<path class="st13" d="M82.3,92.4v-2.1l3.5-2v2.1L82.3,92.4z"/>
<path class="st13" d="M139.8,111.8l-1.8-1.1l2.4-1.4l1.8,1.1L139.8,111.8z"/>
<path class="st13" d="M143.2,105.9l-1.8-1.1l4.6-2.6l1.8,1L143.2,105.9z"/>
<path class="st13" d="M133,107.6l-1.8-1.1l11.2-6.4l1.8,1L133,107.6z"/>
<path class="st13" d="M143.9,109.4l-1.8-1.1l9.4-5.4l1.8,1.1L143.9,109.4z"/>
<path class="st13" d="M136.7,109.7l-1.8-1.1l4.6-2.6l1.8,1L136.7,109.7z"/>
<path class="st3" d="M17.2,116.5l-1.1,0.6l-2.5-1.4l1.1-0.6L17.2,116.5z"/>
<path class="st3" d="M19.1,115.4L18,116l-2.5-1.4l1-0.6L19.1,115.4z"/>
<path class="st3" d="M21.1,114.3l-1.1,0.6l-2.5-1.4l1.1-0.6L21.1,114.3z"/>
<path class="st3" d="M23,113.2l-1.1,0.6l-2.5-1.4l1.1-0.6L23,113.2z"/>
<path class="st3" d="M159.5,148.9L141,138.3c-0.5-0.3-1-0.4-1.6-0.4h0c-0.1,0-0.2,0-0.3,0c0,0-0.1,0-0.2,0c-0.1,0-0.2,0-0.3,0
	c0,0-0.1,0-0.2,0c-0.1,0-0.2,0-0.3,0.1c0,0-0.1,0-0.1,0c-0.2,0-0.3,0.1-0.4,0.2l-13.8,8l-13.2,7.6l-1.3,0.1v1.2v0.2
	c0.1,0.3,0.3,0.6,0.8,0.9l18.5,10.7c0.5,0.3,1,0.4,1.6,0.4h0c0.1,0,0.2,0,0.3,0c0,0,0.1,0,0.2,0c0.1,0,0.2,0,0.3,0c0,0,0.1,0,0.2,0
	c0.1,0,0.2,0,0.3-0.1c0,0,0.1,0,0.1,0c0.2,0,0.3-0.1,0.4-0.2l27.6-16c0.5-0.3,0.6-0.6,0.6-0.9v0v-1.1L159.5,148.9z"/>
<linearGradient id="SVGID_7_" gradientUnits="userSpaceOnUse" x1="127.3789" y1="20.2085" x2="127.3279" y2="43.0925" gradientTransform="matrix(1 0 0 -1 0 196.5653)">
	<stop  offset="0.7677" style="stop-color:#59BDEF"/>
	<stop  offset="0.8452" style="stop-color:#55B8EB"/>
	<stop  offset="0.9318" style="stop-color:#49ABE1"/>
	<stop  offset="1" style="stop-color:#3A9BD5"/>
</linearGradient>
<path class="st14" d="M110,153l13.8-8l21.5,12.4l-13.2,8.3c-0.9,0.5-2.4,0.5-3.4-0.1L110.2,155C109.1,154.5,109.1,153.6,110,153z"/>
<linearGradient id="SVGID_8_" gradientUnits="userSpaceOnUse" x1="178.0482" y1="49.3854" x2="138.3722" y2="49.5064" gradientTransform="matrix(1 0 0 -1 0 196.5653)">
	<stop  offset="0.7677" style="stop-color:#59BDEF"/>
	<stop  offset="0.8452" style="stop-color:#55B8EB"/>
	<stop  offset="0.9318" style="stop-color:#49ABE1"/>
	<stop  offset="1" style="stop-color:#3A9BD5"/>
</linearGradient>
<path class="st15" d="M137.6,137.1l-13.8,8l21.3,12.3l14.5-7.6c0.9-0.5,0.8-1.4-0.2-2L141,137.2
	C140.1,136.6,138.5,136.6,137.6,137.1z"/>
<linearGradient id="SVGID_9_" gradientUnits="userSpaceOnUse" x1="156.52" y1="19.6676" x2="140.28" y2="47.7716" gradientTransform="matrix(1 0 0 -1 0 196.5653)">
	<stop  offset="0.7677" style="stop-color:#3A9BD5"/>
	<stop  offset="0.8386" style="stop-color:#3896D2"/>
	<stop  offset="0.9179" style="stop-color:#3189C9"/>
	<stop  offset="1" style="stop-color:#2573BA"/>
</linearGradient>
<path class="st16" d="M160.3,148.8c0.1,0.4-0.2,0.8-0.6,1.1l-27.6,16c-0.5,0.3-1.2,0.4-1.8,0.4l1.9-16.3L160.3,148.8z"/>
<linearGradient id="SVGID_10_" gradientUnits="userSpaceOnUse" x1="126.8373" y1="60.3755" x2="121.8683" y2="35.0075" gradientTransform="matrix(1 0 0 -1 0 196.5653)">
	<stop  offset="0" style="stop-color:#7BDAFF"/>
	<stop  offset="1" style="stop-color:#59BDEF"/>
</linearGradient>
<path class="st17" d="M109.4,154.1c-0.1-0.4,0.2-0.8,0.6-1.1l27.6-16c0.5-0.3,1.2-0.4,1.8-0.4l-1.8,16.3L109.4,154.1z"/>
<path class="st3" d="M130.4,159.2c0,0-0.1,0-0.2,0l-0.3,0c-0.5-0.1-1-0.2-1.4-0.5L110,148c-0.4-0.2-0.7-0.5-0.8-0.8h0l0-0.3v0
	c0,0,0-0.2,0-0.2c0,0,0-0.1,0-0.1c0-0.1,0-0.2,0.1-0.3c0,0,0-0.1,0-0.1c0-0.1,0.1-0.2,0.2-0.2c0,0,0-0.1,0.1-0.1
	c0.1-0.1,0.2-0.2,0.3-0.3l27.6-16c0.2-0.1,0.3-0.2,0.4-0.2l0.1,0c0.2,0,0.3-0.1,0.4-0.1h0.1c0.2,0,0.3,0,0.4,0h0.1
	c0.2,0,0.3,0,0.4,0l0.3,0c0.5,0.1,1,0.2,1.4,0.5l18.5,10.7c0.4,0.2,0.7,0.5,0.8,0.8h0l0,0.3v0c0,0,0,0.2,0,0.2c0,0,0,0.1,0,0.1
	c0,0.1-0.1,0.2-0.1,0.3c0,0,0,0.1,0,0.1c0,0.1-0.1,0.2-0.2,0.2l-0.1,0.1c-0.1,0.1-0.2,0.2-0.3,0.3l-27.6,16
	c-0.2,0.1-0.3,0.2-0.4,0.2l-0.1,0c-0.2,0-0.3,0.1-0.4,0.1h-0.1c-0.2,0-0.3,0-0.4,0h-0.1C130.6,159.2,130.5,159.2,130.4,159.2z
	 M131,158.5l0.2,0.3l-0.1-0.3c0.1,0,0.2,0,0.3-0.1l0.2,0.3l-0.1-0.3c0.1,0,0.2-0.1,0.3-0.2l27.6-16c0.1,0,0.2-0.1,0.3-0.2l0.3,0.2
	l-0.2-0.2c0,0,0.1-0.1,0.1-0.1c0-0.1,0.1-0.2,0.1-0.2c0-0.1,0-0.1,0-0.1v0c0-0.3-0.3-0.5-0.6-0.7l-18.5-10.7
	c-0.4-0.2-0.9-0.4-1.4-0.4h-0.1c-0.1,0-0.2,0-0.2,0h-0.2c-0.1,0-0.2,0-0.3,0l-0.2-0.3l0.1,0.3c-0.1,0-0.2,0-0.3,0.1l-0.2-0.3
	l0.1,0.3c-0.1,0-0.2,0.1-0.3,0.2l-27.6,16c-0.1,0-0.2,0.1-0.3,0.2c-0.1,0.1-0.1,0.2-0.2,0.2c0,0.1-0.1,0.2-0.1,0.2
	c0,0.1,0,0.1,0,0.2v0c0,0.3,0.3,0.5,0.6,0.7l18.5,10.7c0.4,0.2,0.9,0.4,1.4,0.4h0.1c0.1,0,0.2,0,0.2,0h0.2
	C130.8,158.5,131,158.5,131,158.5z"/>
<path class="st6" d="M160.1,142.2c0-0.1,0.1-0.1,0.2-0.2c0,0,0,0,0-0.1c0-0.1,0-0.1,0.1-0.2c0,0,0-0.1,0-0.1c0-0.1,0-0.1,0-0.2v0
	c-0.1-0.3-0.3-0.6-0.8-0.9L141,129.9c-0.5-0.3-1-0.4-1.6-0.4h0c-0.1,0-0.2,0-0.3,0c0,0-0.1,0-0.2,0c-0.1,0-0.2,0-0.3,0
	c0,0-0.1,0-0.2,0c-0.1,0-0.2,0-0.3,0.1c0,0-0.1,0-0.1,0c-0.2,0-0.3,0.1-0.4,0.2l-9.2,5.3l-4.6,2.7l-13.8,8c-0.1,0.1-0.2,0.2-0.3,0.2
	c0,0,0,0-0.1,0.1c0,0.1-0.1,0.1-0.2,0.2c0,0,0,0,0,0.1c0,0.1,0,0.1-0.1,0.2c0,0,0,0.1,0,0.1c0,0.1,0,0.1,0,0.2v0
	c0.1,0.3,0.3,0.6,0.8,0.9l18.5,10.7c0.5,0.3,1,0.4,1.6,0.4h0c0.1,0,0.2,0,0.3,0c0,0,0.1,0,0.2,0c0.1,0,0.2,0,0.3,0c0,0,0.1,0,0.2,0
	c0.1,0,0.2,0,0.3-0.1c0,0,0.1,0,0.1,0c0.2,0,0.3-0.1,0.4-0.2l27.6-16C159.8,142.5,159.9,142.4,160.1,142.2
	C160,142.3,160,142.3,160.1,142.2z"/>
</svg>
