<?xml version="1.0" encoding="utf-8"?>
<!-- Generator: Adobe Illustrator 22.1.0, SVG Export Plug-In . SVG Version: 6.00 Build 0)  -->
<svg version="1.1" id="Layer_1" xmlns="http://www.w3.org/2000/svg" xmlns:xlink="http://www.w3.org/1999/xlink" x="0px" y="0px"
	 viewBox="0 0 156 172.3" style="enable-background:new 0 0 156 172.3;" xml:space="preserve">
<style type="text/css">
	.st0{opacity:0.63;fill:#D1D3D4;enable-background:new    ;}
	.st1{fill:#CCCCCC;}
	.st2{fill:#FFFFFF;}
	.st3{fill:#9D9D9E;}
	.st4{fill:#B8D5FF;}
	.st5{fill:#D1D2D4;}
	.st6{fill:#1D5C8A;}
	.st7{fill:#171587;}
	.st8{fill:#FFE1BD;}
	.st9{fill:#08085E;}
	.st10{fill:#492107;}
	.st11{fill:#C46600;}
	.st12{fill:#DB7700;}
	.st13{fill:#E8C5A0;}
	.st14{fill:#B3C5CE;}
	.st15{fill:#E8F1F8;}
	.st16{opacity:0.24;fill:#474747;enable-background:new    ;}
	.st17{fill:#D4DEDF;}
	.st18{fill:#632F00;}
	.st19{fill:#8C4200;}
	.st20{fill:#282C3B;}
	.st21{fill:#246EA3;}
	.st22{fill:#B4BCC5;}
	.st23{fill:#FFCC99;}
	.st24{fill:#201D93;}
	.st25{fill:#2D24A3;}
	.st26{fill:#7B2B1A;}
	.st27{fill:#F8A31A;}
	.st28{fill:#F7971C;}
	.st29{fill:#E62728;}
	.st30{fill:#8C401F;}
	.st31{fill:#B75F28;}
	.st32{fill:#347237;}
	.st33{fill:#C92127;}
	.st34{fill:#944C22;}
	.st35{fill:#FCC10E;}
	.st36{fill:#FBBA5D;}
</style>
<g>
	<path class="st0" d="M75.1,169.4c9.4,0,16.9-1,16.9-2.2s-7.6-2.2-16.9-2.2c-9.4,0-16.9,1-16.9,2.2
		C58.2,168.4,65.8,169.4,75.1,169.4z"/>
	<path class="st1" d="M86.3,18.7h63.1c3.6,0,6.6,2.9,6.6,6.6v123.6c0,3.6-2.9,6.6-6.6,6.6H86.3c-3.6,0-6.6-2.9-6.6-6.6V25.2
		C79.8,21.6,82.7,18.7,86.3,18.7z"/>
	<path class="st2" d="M82.9,140.4h69.9V33.7H82.9V140.4z"/>
	<path class="st3" d="M106.9,26.8c0-0.5,0.4-1,1-1h20c0.5,0,1,0.4,1,1c0,0.5-0.4,1-1,1h-20C107.3,27.8,106.9,27.4,106.9,26.8z"/>
	<path class="st3" d="M122,148.2c0.5-2.3-1-4.5-3.3-5s-4.5,1-4.9,3.3c-0.5,2.3,1,4.5,3.3,4.9C119.3,151.9,121.5,150.5,122,148.2z"/>
	<path class="st4" d="M152.8,59.7H82.9v74.6h69.9V59.7z"/>
	<path class="st5" d="M135.3,43.3h-34.4V46h34.4V43.3z"/>
	<path class="st5" d="M120.7,48.1h-19.8V50h19.9L120.7,48.1L120.7,48.1z"/>
	<path class="st5" d="M95.9,50.1c2.1-2.1,2.1-5.6,0-7.7c-2.1-2.1-5.6-2.1-7.7,0s-2.1,5.6,0,7.7S93.8,52.2,95.9,50.1z"/>
	<path class="st5" d="M143.3,44.5c0,0.5-0.4,0.9-0.9,0.9s-0.9-0.4-0.9-0.9s0.4-0.9,0.9-0.9S143.3,44,143.3,44.5z M145.4,43.6
		c-0.5,0-0.9,0.4-0.9,0.9s0.4,0.9,0.9,0.9s0.9-0.4,0.9-0.9C146.2,44,145.8,43.6,145.4,43.6z M148.2,43.6c-0.5,0-0.9,0.4-0.9,0.9
		s0.4,0.9,0.9,0.9s0.9-0.4,0.9-0.9S148.7,43.6,148.2,43.6z"/>
	<path class="st0" d="M12.5,165.4c0,0,0.2,6.5,3.4,6.5c3.3,0,9.3-3.9,10.2-3.5s8.6,4.4,9.4,4.2c0.8-0.1,0.6-1.3,1.6-1.4
		c1-0.1,11.9,6,14,1.2c1.3-2.9-4.9-4-4.9-4s7.2-8.1,9-14.4C57.2,147.6,12.5,165.4,12.5,165.4z"/>
	<path class="st6" d="M35.2,167.6c0,0,7.7,0.3,13.5-4.9c4.6-4.2,8.1-11.1,9-14.1c1-3,1.4-9.1-0.1-10.1s-28,24.2-28,24.2L35.2,167.6z
		"/>
	<path class="st7" d="M0.8,151.2c0,0,3.2-3.6,11.8-3.6c6.7,0,28.8,6,28.8,6l-9.6,10.3L0.8,151.2z"/>
	<path class="st8" d="M41,165.8l-4.5-1.9l-1.5,2.9l2,1.7h3.4L41,165.8z"/>
	<path class="st9" d="M37.5,168.7c0,0,1.5,0.2,2.6-1.1s0.5-1.9,1.2-2s3.8,1.4,7,1c3.1-0.3,4.1-0.8,4.2,0.4c0.2,1.2-0.2,5.5-4,5.3
		C44.7,172.1,37.5,168.7,37.5,168.7z"/>
	<path class="st10" d="M37,168.5c0,0,1.5,0.2,2.6-1.1s0.5-1.9,1.2-2s3.8,1.4,7,1c3.1-0.3,4.1-0.8,4.2,0.4c0.2,1.2-0.2,5.5-4,5.3
		S37,168.5,37,168.5z"/>
	<path class="st6" d="M12.7,152.7c4.9,3,25.1,9.7,25.1,9.7s0.8,5.2-3.6,6.7c0,0-24.3-6.9-30.1-9.5s-4-7.3-3.2-8.5
		C1.6,150,6.6,149,12.7,152.7z"/>
	<path class="st11" d="M31,116.9c0.5,0.2,0.8,0.6,1.1,1.1s0.3,1.1,0.3,1.7c-0.3,1.5-0.6,3.9-1,6.4c-0.6,4-1.3,8.4-1.9,10.2
		c-0.1,0.4,1.7,2.5,0.9,3.5c0,0-0.2,8.1-0.3,8.2l-0.8,0.8c-0.3,0.2-1.5,0.7-2.1,0.4c-0.7-0.3-15.5,4.5-15.4,4.4
		c6.2-7.2,11.4-11.2,11.8-11.9c0.8-1.4,0.3-15.3,0.6-18c0.1-1.3,0.6-3.1,1.4-4.2c0.7-1.1,1.7-1.8,2.5-2.4
		C29.2,116,29.8,116.2,31,116.9z"/>
	<path class="st12" d="M46.5,138.6c-0.8,2-1,4.3-0.5,6.4c0.9,4.3-0.1,4.5-0.1,4.5s-5.1,3.6-10.1,4.1c-4.5,0.5-8.3,0.8-8.2-3l1.4,1.1
		c0-0.2,0-0.5,0-0.7c0.2-8.5-1.6-9-2.1-18.5c-0.5-9.8-2.8-11.1-0.7-13.9c3.2-4.1,11.6-6.2,18.3-4.6c5,1.2,6.7,2.5,6.6,6.2
		c0,1.2-0.2,2.7-0.5,4.6C49.8,129.5,47.8,135.1,46.5,138.6z"/>
	<path class="st8" d="M41.3,108.4c-1.9,1.3-3.1,2.3-5.6,2.3c-0.9,0-0.6-0.4-1.4-0.6c0.4,0.2-0.4,0.6-0.1,0.7
		c0.6,0.1,1.1,0.7,1.2,1.3l0.2,2.8l1.1,2.3l1.9-1.2l2.8-1.8l-0.3-4.4C41.1,109.8,40.6,109.2,41.3,108.4z"/>
	<path class="st13" d="M36.8,113.2l0.2,2.6l-0.4,1.5l-1.1-2.3l-0.2-2.8c0-0.7-0.5-1.2-1.2-1.3c-0.7-0.2-0.4-0.7-1.4-1.8
		c-0.1-0.1-0.1-0.1-0.2-0.2c0.1,0.1,0.3,1.1,2.6,1.3C36.9,110.4,36.7,111.5,36.8,113.2z"/>
	<path class="st2" d="M41.3,112.2c0,0,0.7,0.4,1.3,1.4c0,0-0.9,0.4-1.7,0.9c-0.7,0.4-4.3,2.9-4.3,2.9l-1-2.1
		C35.6,115.3,39.3,112.7,41.3,112.2z"/>
	<path class="st2" d="M35.6,115.3c0,0-1.2,0.4-1.6,1.3c0,0-0.6-1.2,0.2-3.4c0,0,0.7-0.6,1.2-0.9L35.6,115.3z"/>
	<path class="st14" d="M41,150.3l-23.9-0.2l14.2,5.3L41,150.3z"/>
	<path class="st15" d="M31.2,156l10.2-1l0.1-0.8l-10.4,1L31.2,156z"/>
	<path class="st8" d="M33.2,148.4l-1.9,1.1c0,0-1.9-1.3-3.8,0.1c-1.9,1.4,0.4,5.5,1.8,5.1s5.5-3.5,5.5-3.5L33.2,148.4z"/>
	<path class="st16" d="M6.5,155.7l-2.4,0.7l26.1,0.3l11.4-3.1l-24.3,0.3L6.5,155.7z"/>
	<path class="st11" d="M42.5,147.2c-3.6,1.1-7.4,6.9-7.4,6.9l-0.3-0.5c0,0-1.9-0.8-2.4-2.6c-0.2-0.7-0.2-2.7-0.2-2.7
		s9.1-4.5,11.9-7.6c1.4-1.5,1.5-2.7,2.8-3.4c0-0.1-0.1-0.2-0.1-0.3c-1.4-4-1.4-9.8-1.9-12.8c-0.3-1.4-0.2-2.9,0.1-4.2
		c0.2-0.9,0.6-1.8,1.2-2.6c0.9-1.2,2.1-2.2,3.6-1.8c0.6,0.1,1.1,0.4,1.5,0.9s0.7,1,0.8,1.7c0.6,4.2,2.4,15.9,2.3,18.5
		c0,0.5-0.1,0.9-0.2,1.3c0,0.1-0.1,0.3-0.1,0.4C52.7,142.1,46.2,146.1,42.5,147.2z"/>
	<path class="st17" d="M31.2,156l-24.8-2.3c-0.8-0.1-1.5-0.7-1.6-1.5l-2-17.3c-0.1-0.9,0.7-1.7,1.6-1.6l23.2,2.1
		c0.7,0.1,1.2,0.6,1.3,1.3L31.2,156z"/>
	<path class="st18" d="M29.9,101.2c-0.1,0,0,0.4-0.6,1c-0.5,0.6-0.6,1.9-0.6,1.9s-1.1-3-0.8-3.7s0.9-0.9,1.1-0.7
		C29.2,100,29.9,101.2,29.9,101.2z"/>
	<path class="st8" d="M42.3,106.1c0.1,0.8,0.1,1.6,0,2.1c0,0.1,0,0.1,0,0.2s0,0.1-0.1,0.2c-0.6,2.4-3.6,5.7-5.7,6
		c-0.3,0-0.6,0-0.8,0c-2.9-0.1-4.7-2.5-5.7-5.1c0-0.1-0.1-0.2-0.1-0.3c-0.9-2.4-1.2-4.8-1.2-5.7c0-0.2,0-0.3,0-0.3
		c-0.2-0.9,0-1.7,0.1-2c0-0.1,0-0.2,0-0.2s0,0,0.1,0c0.8-0.3,6.4-2,6.5-2s5.7,0.4,5.7,0.4S42,103.3,42.3,106.1z"/>
	<path class="st19" d="M43.1,106c0.1,0.8,0.1,1.6,0,2.1c0,0.1,0,0.1,0,0.2c-0.4,2.4-3.3,6.1-6.6,6.4c-0.3,0-0.5,0.1-0.7,0.1
		c-3.5,0.1-4.8-2.5-5.8-5.2c0-0.1-0.1-0.2-0.1-0.3c0,0,1.2,2,1.8,2c0.6,0.1-0.1-0.7,1.5-1.4c1.1-0.4,2.7-0.4,3.4-0.3
		s1.9,0.4,2.4,0.5c0.1,0,0.2,0,0.3,0c0.6-0.3,1.8-2.3,2-3.6C41.4,106.1,42.6,105.9,43.1,106z"/>
	<path class="st19" d="M26.3,98.3c0,0,0.2,4.3,7.2,2.6c7-1.7,6.5,5.3,6.5,5.3s1-2.3,1.3-1.4s0,3.2,0,3.2s1.9,0.2,2-0.7
		c0-0.6,0.1-8.6-1.3-10.6c-1.4-1.9-3-1.8-3-1.8s-1.8-1.5-5.9-0.3s-6.3-0.3-6.3-0.2C26.6,94.4,26,95.6,26.3,98.3z"/>
	<path class="st20" d="M39.9,104.6c-0.1-0.3-1.3-0.2-2.2-0.1s-3.3,0.4-3.8,0.7c-0.5,0.3-0.5,0.5-0.8,0.5s-0.3-0.2-0.8-0.3
		c-0.6-0.2-2,0-2.9,0.1s-1.8,0.3-1.8,0.6c0,0.3,0.1,0.8,0.3,0.9s0.2,0.1,0.8,1.2c0.4,0.6,1,1,2.1,0.8c1.5-0.3,1.6-1.5,1.8-2
		c0.1-0.5,0.2-0.6,0.5-0.6c0.2,0,0.4,0,0.6,0.5c0.3,0.5,0.4,1.6,1.9,1.6c2,0,2.9-0.5,3.2-1.4c0.4-1.3,0.3-1.3,0.5-1.4
		c0.1-0.1,0.5-0.2,0.5-0.4C39.9,105,39.9,104.8,39.9,104.6z M32.1,107.5c-0.1,0.6-0.5,1.2-1.5,1.4c-0.9,0.1-1.3-0.2-1.8-1.1
		c-0.4-0.7-0.4-1.3-0.2-1.5s0.7-0.2,1.8-0.3c1.1-0.1,1.5-0.1,1.7,0.2C32.2,106.3,32.2,106.8,32.1,107.5z M38.7,106.5
		c-0.2,0.9-0.7,1.4-2,1.5c-1.8,0.2-2.1-0.3-2.3-0.9s-0.3-1.1-0.3-1.3c0.1-0.4,0.4-0.4,1.6-0.6c1.1-0.2,2.6-0.4,2.8-0.3
		C38.7,105.2,38.9,105.7,38.7,106.5z"/>
	<path class="st8" d="M23.5,163l4.5-1.8l1.4,2.9l-2.1,1.6l-3.4-0.1L23.5,163z"/>
	<path class="st9" d="M26.9,165.9c0,0-1.5,0.1-2.6-1.2c-1.1-1.4-0.4-1.9-1.1-2s-3.9,1.2-7,0.8s-4-0.9-4.2,0.2
		c-0.2,1.2,0.1,5.5,3.8,5.4C19.6,169.2,26.9,165.9,26.9,165.9z"/>
	<path class="st10" d="M27.4,165.7c0,0-1.5,0.1-2.6-1.2c-1.1-1.4-0.4-1.9-1.1-2s-3.9,1.2-7,0.8s-4-0.9-4.2,0.2
		c-0.2,1.2,0.1,5.5,3.8,5.4C20,168.9,27.4,165.7,27.4,165.7z"/>
	<path class="st21" d="M26.5,159.7c0,0,11.5-9.3,16.3-14.3s7.8-9.8,13.4-7.9c5.6,1.9-1.4,12.3-6.6,16.4C44.5,158,31.9,167,31.9,167
		S25.1,164.6,26.5,159.7z"/>
	<path class="st22" d="M15.9,146.7c1.1,0,2-0.9,2-2s-0.9-2-2-2s-2,0.9-2,2S14.8,146.7,15.9,146.7z"/>
	<path class="st23" d="M76.3,159.4c0,0,0.5,2.2,0.5,4c-0.2,1.2,0,1.6,0,1.6l4.7-0.4c0,0-2.1-1-1.9-5.8
		C79.7,154,76.3,159.4,76.3,159.4z"/>
	<path class="st24" d="M76.7,163.8c0,0,2,0.8,4,0.2c2.4,1.1,4,1.5,6.2,1.8c2.1,0.3,1.8,2-1.9,1.8c-3.7-0.2-6.2-0.1-7,0
		s-2.1,0.2-2.2-0.4C75.8,166.6,76.1,163.6,76.7,163.8z"/>
	<path class="st23" d="M62,159.4c0,0,0.5,2.2,0.5,4c-0.2,1.2,0,1.6,0,1.6l4.7-0.4c0,0-2.1-1-1.9-5.8C65.3,154,62,159.4,62,159.4z"/>
	<path class="st25" d="M62.4,163.8c0,0,2,0.8,4,0.2c2.4,1.1,4,1.5,6.2,1.8s1.8,2-1.9,1.8c-3.7-0.2-6.2-0.1-7,0
		c-0.8,0.1-2.1,0.2-2.2-0.4C61.4,166.6,61.7,163.6,62.4,163.8z"/>
	<path class="st6" d="M78.1,92.2c0,0,3,31.5,3.2,35.6c0.2,4.1,0.2,5.5,0,8s1.4,23.5,1.4,23.5s-7,1.8-8.8,0.2c0,0,0.3-22.9-0.6-26.9
		s-4.4-23.7-4.4-23.7l4-20.3L78.1,92.2z"/>
	<path class="st26" d="M61.9,48.3c0,0,0.3-5.5,2.6-7c2.3-1.5,8.3-2,10.2,0.5c1.9,2.5,3.8,13.6-5.2,15l-4.7,21.7
		c0,0-12.2-1.3-13.2-7.8c-0.9-6.6,4.6-9.6,4.6-9.6s-2.7-5.5,0.1-9.4C59.1,47.9,61.9,48.3,61.9,48.3z"/>
	<path class="st23" d="M79.6,67.2c0,0,11.1,1.6,14.1,1.4c2.3,0.1,5.7-13.8,6.1-14.7c1.9-1.3,2.6-2.3,2.6-3.2c0-1-2.4-1.8-2.6-1.3
		c0.4-1.3,0.5-1.7,0.6-2.1c0.2-0.9-0.4-1.6-1.3,1.8c-0.9,3.4-0.8,2.8-1,4c-1.5,3.1-5.3,10.3-5.5,11.3c-4.9-0.1-13.3-2.2-13.3-2.2
		L79.6,67.2z"/>
	<path class="st21" d="M63,130.1c0.7-5.9-0.6-29.8-0.5-34.8c0.1-5.1,14.3-2.5,14.3-2.5s-4.5,29.6-5,33.9c-0.5,4.3-1.2,5.5-1.5,9.6
		s-2.2,23.4-2.2,23.4s-7.8,1.3-8.4-0.2C58.3,152,63,130.1,63,130.1z"/>
	<path class="st2" d="M73.8,59.5l6.4,1.7c0,0-0.7,5.4,0,7h-4.5c0,0-0.8,2.3-1.2,3.4c-0.4,1.1,3.3,19.1,3.9,22.5c0,0-9.5-1.8-17,1.6
		c0,0,0.7-7.1,3.2-12.1c2.5-5-7.5-16.6-7.5-16.6s3.1-9.4,8.4-9.9C69.9,56.5,69.9,58.4,73.8,59.5z"/>
	<path class="st23" d="M73.5,43.8c0,0,2,5.3,0.7,7.8c-1.2,2.5-4.3,2.1-4.3,2.1v5.7c0,0-0.3,0.3-0.8,0.3c-0.9,0.1-3.4-1.6-3.4-1.6V45
		L73.5,43.8z"/>
	<path class="st23" d="M55.5,66.6c0,0-9.5,10.8-9,12.1c0.5,1.3,11.1,7.2,12,8s3.8,4,3.9,3.6s1.8-1.4,2-2.5c0.1-1.1-0.8-2-0.8-2
		l-4-0.5c0,0-7.2-6-7.5-6.8s8.2-9.1,8.2-9.1L55.5,66.6z"/>
	<path class="st2" d="M54.6,66.1c0,0,5.5-7.8,8.9-7.5s3.2,5.3,0,8.7c-3.2,3.5-4.3,4.8-4.3,4.8S55.3,70.2,54.6,66.1z"/>
	<path class="st26" d="M73.7,43c0,0-1.3,6.1-4.2,7.7c-2.9,1.6-0.7,5.6-3.5,8.5c-1.5,1.6-4.4-0.2-4.4-0.2l2.8-15.2L73.7,43z"/>
	<path class="st27" d="M136.7,117.3H99.3c-2.9,0-5.2-2.4-5.2-5.2v-2.6c0-0.5,0.4-0.9,0.9-0.9h46c0.5,0,0.9,0.4,0.9,0.9v2.6
		C142,114.9,139.6,117.3,136.7,117.3z"/>
	<path class="st28" d="M142,112.9v-3.6c0-0.4-0.4-0.8-0.8-0.8h-2.5c-5.7,4.4-15.7,7.1-24.5,8.8h23.3C140,117.3,142,115.3,142,112.9z
		"/>
	<path class="st29" d="M139.5,98.4h-43c-0.7,0-1.2,0.5-1.2,1.2v1c0,0.7,0.5,1.2,1.2,1.2h43c0.7,0,1.2-0.5,1.2-1.2v-1
		C140.7,98.9,140.2,98.4,139.5,98.4z"/>
	<path class="st30" d="M133.6,108.5h4.2c1.5,0,2.8-1.3,2.8-2.8v-1c0-1-0.5-1.9-1.3-2.4C138.5,105.1,135.7,107.3,133.6,108.5z"/>
	<path class="st31" d="M139.9,98.5H96.7c-0.8-0.6-1.3-1.1-1.3-1.7v-4.6c0-0.6,0.5-1.1,1.1-1.1h43.2c0.6,0,1.1,0.5,1.1,1.1v4.6
		C140.7,97.4,140.2,97.9,139.9,98.5z"/>
	<path class="st32" d="M142.6,93.6l-1.9-3.9h-21.4h-2.6H95.3c0,0-1.9,3.8-1.9,3.9c-1,2,2.3,2.4,3.3,1.8c0.4-0.3,0.8-0.7,1.2-1
		c1.3-0.9,2.8-0.4,4,0.6c0,0,3.8,4,7.3,0.3c1.2-1.2,2.6-1.9,4.1-1.1c1.4,0.8,2.5,2.2,4,2.8c1,0.4,2.2,0.1,3.1-0.7
		c0.6-0.5,0.9-1.2,1.5-1.7c1.7-1.1,3.7-0.9,5,0.6c3.5,3.7,7.3-0.3,7.3-0.3c1.1-1,2.6-1.5,4-0.6c0.4,0.3,0.7,0.7,1.2,1
		C140.4,96,143.6,95.6,142.6,93.6z"/>
	<path class="st27" d="M94.5,90.4c0-8.8,10.2-18.8,23.1-18.8s23.9,9.9,23.9,18.8C141.5,90.4,94.5,90.4,94.5,90.4z"/>
	<path class="st28" d="M131.9,76.2c-2.8,7.4-9.3,11.8-14.8,14.2h24.4C141.4,84.7,136.7,78.8,131.9,76.2z"/>
	<path class="st2" d="M109.2,78.1c-0.5,0.6-1.1,0.8-1.3,0.6c-0.3-0.2-0.1-0.8,0.4-1.4s1.1-0.8,1.3-0.6
		C109.9,76.9,109.7,77.6,109.2,78.1z"/>
	<path class="st2" d="M126.2,78.2c-0.6,0.4-1.3,0.4-1.5,0.1s0.2-0.8,0.8-1.2c0.6-0.4,1.3-0.4,1.5-0.1
		C127.2,77.4,126.8,77.9,126.2,78.2z"/>
	<path class="st2" d="M117.8,78.1c0.2-0.7,0-1.3-0.3-1.4s-0.7,0.5-0.8,1.2c-0.2,0.7,0,1.3,0.3,1.4C117.3,79.3,117.7,78.8,117.8,78.1
		z"/>
	<path class="st2" d="M113.9,75.4c0.5,0.6,0.7,1.2,0.4,1.4s-0.8-0.1-1.3-0.6c-0.5-0.6-0.7-1.2-0.4-1.4
		C112.8,74.6,113.4,74.9,113.9,75.4z"/>
	<path class="st2" d="M122.1,75.6c0.7,0.3,1.1,0.7,1,1s-0.8,0.3-1.5,0.1s-1.1-0.7-1-1C120.8,75.4,121.5,75.3,122.1,75.6z"/>
	<path class="st33" d="M103.6,98.7l11.9,3.4h7.4C122.9,102.1,115.7,98.8,103.6,98.7z"/>
	<path class="st34" d="M138.8,108.5H97.4c-1.3,0-2.3-1-2.3-2.3v-2c0-1.3,1-2.3,2.3-2.3h41.4c1.3,0,2.3,1,2.3,2.3v2
		C141.1,107.4,140,108.5,138.8,108.5z"/>
	<path class="st30" d="M114.7,101.8c0,0,11.4,3.3,14.8,5.9l6.2-5.8L114.7,101.8z"/>
	<path class="st35" d="M129.3,105.8l7.1-7.4H102C101.9,98.5,117.6,99.6,129.3,105.8z"/>
	<path class="st36" d="M95.8,89c0,0,2.9-12.6,16.9-15.3C112.8,73.7,102.2,79.6,95.8,89z"/>
</g>
</svg>
