<svg width="56" height="62" fill="none" xmlns="http://www.w3.org/2000/svg"><path d="M28.417 29.276l1.036 1.79a7.262 7.262 0 003.615-6.266c0-3.989-3.245-7.233-7.233-7.233-3.988 0-7.233 3.244-7.233 7.233a7.223 7.223 0 003.233 6.027l1.144-1.72a5.162 5.162 0 01-2.31-4.307 5.173 5.173 0 015.166-5.167 5.173 5.173 0 015.167 5.167c0 1.838-.99 3.554-2.585 4.476z" fill="url(#paint0_linear)"/><path d="M12.398 24.8c0 4.51 2.245 8.695 6.005 11.194l1.144-1.72a11.356 11.356 0 01-5.082-9.474c0-6.267 5.1-11.366 11.367-11.366 6.267 0 11.366 5.1 11.366 11.366 0 3.816-1.9 7.358-5.081 9.473l1.143 1.721A13.415 13.415 0 0039.265 24.8c0-7.407-6.026-13.433-13.433-13.433S12.398 17.393 12.398 24.8z" fill="url(#paint1_linear)"/><path d="M50.632 25.833c0-.723-.032-1.45-.095-2.157l-2.059.183c.058.646.087 1.311.087 1.974 0 7.971-4.065 15.226-10.874 19.403l1.082 1.762C46.2 42.441 50.632 34.53 50.632 25.833z" fill="url(#paint2_linear)"/><path d="M25.833 3.1c4.595 0 9.02 1.367 12.798 3.952l1.167-1.705a24.61 24.61 0 00-13.965-4.314 24.73 24.73 0 00-8.626 1.54l.718 1.938A22.678 22.678 0 0125.833 3.1z" fill="url(#paint3_linear)"/><path d="M2.577 17.207a24.706 24.706 0 00-1.542 8.627c0 8.698 4.434 16.61 11.86 21.16l1.08-1.762C7.168 41.06 3.103 33.808 3.103 25.834c0-2.722.475-5.382 1.412-7.907l-1.937-.72z" fill="url(#paint4_linear)"/><path d="M31.001 41.333c0-2.5-1.775-4.584-4.133-5.062V27.9a3.09 3.09 0 002.067-2.91 3.1 3.1 0 10-6.2 0A3.09 3.09 0 0024.8 27.9v8.371a5.167 5.167 0 106.2 5.062z" fill="url(#paint5_linear)"/><path d="M16.535 50.633V62h18.6V50.633c0-2.282-1.666-4.133-3.72-4.133h-11.16c-2.054 0-3.72 1.85-3.72 4.133z" fill="url(#paint6_linear)"/><path d="M55.799 13.433a8.267 8.267 0 10-16.534 0 8.267 8.267 0 0016.534 0zm-8.267 7.233c-2.02 0-3.844-.83-5.156-2.165a4.127 4.127 0 014.123-4.035h1.033a3.1 3.1 0 110-6.2 3.1 3.1 0 010 6.2h1.034c2.25 0 4.07 1.8 4.123 4.035a7.207 7.207 0 01-5.157 2.165z" fill="url(#paint7_linear)"/><path d="M8.267 16.533A8.267 8.267 0 108.266 0a8.267 8.267 0 000 16.534zM7.233 9.3h1.034a3.1 3.1 0 110-6.2 3.1 3.1 0 010 6.2H9.3c2.25 0 4.07 1.799 4.123 4.035A7.207 7.207 0 018.267 15.5a7.21 7.21 0 01-5.157-2.165A4.127 4.127 0 017.233 9.3z" fill="url(#paint8_linear)"/><defs><linearGradient id="paint0_linear" x1="33.068" y1="24.316" x2="18.602" y2="24.316" gradientUnits="userSpaceOnUse"><stop stop-color="#4CBA85"/><stop offset="1" stop-color="#2569AC"/></linearGradient><linearGradient id="paint1_linear" x1="39.265" y1="23.681" x2="12.398" y2="23.681" gradientUnits="userSpaceOnUse"><stop stop-color="#4CBA85"/><stop offset="1" stop-color="#2569AC"/></linearGradient><linearGradient id="paint2_linear" x1="50.632" y1="35.337" x2="37.691" y2="35.337" gradientUnits="userSpaceOnUse"><stop stop-color="#4CBA85"/><stop offset="1" stop-color="#2569AC"/></linearGradient><linearGradient id="paint3_linear" x1="39.798" y1="4.043" x2="17.207" y2="4.043" gradientUnits="userSpaceOnUse"><stop stop-color="#4CBA85"/><stop offset="1" stop-color="#2569AC"/></linearGradient><linearGradient id="paint4_linear" x1="13.976" y1="32.101" x2="1.035" y2="32.101" gradientUnits="userSpaceOnUse"><stop stop-color="#4CBA85"/><stop offset="1" stop-color="#2569AC"/></linearGradient><linearGradient id="paint5_linear" x1="31.001" y1="34.195" x2="20.668" y2="34.195" gradientUnits="userSpaceOnUse"><stop stop-color="#4CBA85"/><stop offset="1" stop-color="#2569AC"/></linearGradient><linearGradient id="paint6_linear" x1="35.135" y1="54.25" x2="16.535" y2="54.25" gradientUnits="userSpaceOnUse"><stop stop-color="#4CBA85"/><stop offset="1" stop-color="#2569AC"/></linearGradient><linearGradient id="paint7_linear" x1="55.799" y1="13.433" x2="39.266" y2="13.433" gradientUnits="userSpaceOnUse"><stop stop-color="#4CBA85"/><stop offset="1" stop-color="#2569AC"/></linearGradient><linearGradient id="paint8_linear" x1="16.533" y1="8.267" x2="0" y2="8.267" gradientUnits="userSpaceOnUse"><stop stop-color="#4CBA85"/><stop offset="1" stop-color="#2569AC"/></linearGradient></defs></svg>