<svg width="71" height="50" fill="none" xmlns="http://www.w3.org/2000/svg"><path d="M28.084 36.192a1.759 1.759 0 01-.879-3.281l15.352-8.887-12.715-7.559v9.649a1.75 1.75 0 01-1.758 1.758 1.75 1.75 0 01-1.758-1.758V13.379c0-.625.332-1.21.899-1.523a1.754 1.754 0 011.777.02l17.95 10.683c.527.313.859.899.859 1.524s-.332 1.191-.88 1.504l-17.948 10.39a2.095 2.095 0 01-.899.215z" fill="url(#paint0_linear)"/><path d="M60.488 50H9.082a1.75 1.75 0 01-1.758-1.758 1.75 1.75 0 011.758-1.758h51.406c3.516 0 6.368-2.89 6.368-6.425V9.94c0-3.554-2.852-6.425-6.368-6.425H9.941c-3.476 0-6.425 2.949-6.425 6.425v29.336a1.75 1.75 0 01-1.758 1.758A1.75 1.75 0 010 39.277V9.941C0 4.453 4.453 0 9.941 0h50.547c5.45 0 9.883 4.453 9.883 9.941V40.06c-.02 5.487-4.433 9.94-9.883 9.94z" fill="url(#paint1_linear)"/><defs><linearGradient id="paint0_linear" x1="47.811" y1="23.908" x2="26.324" y2="23.908" gradientUnits="userSpaceOnUse"><stop stop-color="#4CBA85"/><stop offset="1" stop-color="#2569AC"/></linearGradient><linearGradient id="paint1_linear" x1="70.371" y1="25" x2="0" y2="25" gradientUnits="userSpaceOnUse"><stop stop-color="#4CBA85"/><stop offset="1" stop-color="#2569AC"/></linearGradient></defs></svg>