<svg width="64" height="56" fill="none" xmlns="http://www.w3.org/2000/svg"><path d="M32.782 9.8H57.9c2.16 0 3.9 1.74 3.9 3.9v36.4c0 2.16-1.74 3.9-3.9 3.9H33.2l-1.77-7.522" stroke="url(#paint0_linear)" stroke-width="3" stroke-miterlimit="4.1" stroke-linecap="round" stroke-linejoin="round"/><path d="M41 46.2H5.9c-2.16 0-3.9-1.74-3.9-3.9V5.9C2 3.74 3.74 2 5.9 2h24.7L41 46.2z" stroke="url(#paint1_linear)" stroke-width="3" stroke-miterlimit="4.1" stroke-linecap="round" stroke-linejoin="round"/><path d="M33.21 53.986l7.775-7.773" stroke="url(#paint2_linear)" stroke-width="3" stroke-linecap="round" stroke-linejoin="round"/><path d="M16.298 16.299H22.8a6.501 6.501 0 11-3.25-5.63" stroke="url(#paint3_linear)" stroke-width="3" stroke-miterlimit="4.1" stroke-linecap="round" stroke-linejoin="round"/><path d="M35.781 20.2h18.2" stroke="url(#paint4_linear)" stroke-width="3" stroke-linecap="round" stroke-linejoin="round"/><path d="M52.667 38.384A22.1 22.1 0 0141.043 20.3" stroke="url(#paint5_linear)" stroke-width="3" stroke-linecap="round" stroke-linejoin="round"/><path d="M48.755 20.287a22.1 22.1 0 01-9.724 16.952" stroke="url(#paint6_linear)" stroke-width="3" stroke-linecap="round" stroke-linejoin="round"/><path d="M44.898 15.018v5.2" stroke="url(#paint7_linear)" stroke-width="3" stroke-linecap="round" stroke-linejoin="round"/><defs><linearGradient id="paint0_linear" x1="61.8" y1="31.9" x2="31.43" y2="31.9" gradientUnits="userSpaceOnUse"><stop stop-color="#4CBA85"/><stop offset="1" stop-color="#2569AC"/></linearGradient><linearGradient id="paint1_linear" x1="41" y1="24.1" x2="2" y2="24.1" gradientUnits="userSpaceOnUse"><stop stop-color="#4CBA85"/><stop offset="1" stop-color="#2569AC"/></linearGradient><linearGradient id="paint2_linear" x1="40.985" y1="50.1" x2="33.211" y2="50.1" gradientUnits="userSpaceOnUse"><stop stop-color="#4CBA85"/><stop offset="1" stop-color="#2569AC"/></linearGradient><linearGradient id="paint3_linear" x1="22.8" y1="16.299" x2="9.797" y2="16.299" gradientUnits="userSpaceOnUse"><stop stop-color="#4CBA85"/><stop offset="1" stop-color="#2569AC"/></linearGradient><linearGradient id="paint4_linear" x1="53.981" y1="20.7" x2="35.781" y2="20.7" gradientUnits="userSpaceOnUse"><stop stop-color="#4CBA85"/><stop offset="1" stop-color="#2569AC"/></linearGradient><linearGradient id="paint5_linear" x1="52.667" y1="29.342" x2="41.043" y2="29.342" gradientUnits="userSpaceOnUse"><stop stop-color="#4CBA85"/><stop offset="1" stop-color="#2569AC"/></linearGradient><linearGradient id="paint6_linear" x1="48.755" y1="28.763" x2="39.031" y2="28.763" gradientUnits="userSpaceOnUse"><stop stop-color="#4CBA85"/><stop offset="1" stop-color="#2569AC"/></linearGradient><linearGradient id="paint7_linear" x1="45.898" y1="17.618" x2="44.898" y2="17.618" gradientUnits="userSpaceOnUse"><stop stop-color="#4CBA85"/><stop offset="1" stop-color="#2569AC"/></linearGradient></defs></svg>