<svg width="39" height="39" viewBox="0 0 39 39" fill="none" xmlns="http://www.w3.org/2000/svg">
<path d="M19.5217 0.400146L26.565 11.2235L38.5433 14.9153L30.9183 25.2959L31.2767 38.4001L19.5217 33.9924L7.76667 38.4001L8.125 25.2959L0.5 14.9153L12.4783 11.2235L19.5217 0.400146ZM19.5217 6.60394L14.5583 14.2327L6.11667 16.8322L11.4917 24.1458L11.2367 33.3797L19.5217 30.2743L27.805 33.3797L27.5517 24.1458L32.925 16.8322L24.485 14.2327L19.5217 6.60394ZM16.1883 20.531C16.1883 21.4595 16.5395 22.35 17.1646 23.0066C17.7898 23.6631 18.6376 24.032 19.5217 24.032C20.4057 24.032 21.2536 23.6631 21.8787 23.0066C22.5038 22.35 22.855 21.4595 22.855 20.531H26.1883C26.1883 22.388 25.486 24.169 24.2357 25.4822C22.9855 26.7953 21.2898 27.533 19.5217 27.533C17.7536 27.533 16.0579 26.7953 14.8076 25.4822C13.5574 24.169 12.855 22.388 12.855 20.531H16.1883Z" fill="#9D99B2"/>
</svg>
