<svg width="81" height="81" viewBox="0 0 81 81" fill="none" xmlns="http://www.w3.org/2000/svg">
<path d="M38.7412 0.617432C18.1989 0.617432 0.722656 19.0328 0.722656 40.5174C0.722656 62.0019 18.1989 80.4173 38.4346 80.4173H43.9534C59.5901 80.4173 74.0004 69.9819 80.1324 55.8635H73.6938C68.2608 65.8845 58.0203 73.2292 46.7129 74.1714V68.7512C46.7129 64.7366 48.4237 61.1456 51.5204 58.9972L51.6123 58.9388L52.4678 58.2544C54.01 58.6841 55.6717 58.9327 57.4439 58.9327C62.8094 58.9327 67.2245 56.8088 70.0851 53.5861C72.9457 50.3634 74.307 46.1893 74.307 42.052C74.307 37.9177 72.9457 33.7405 70.0851 30.5178C67.6752 27.8046 64.1554 25.8894 59.9059 25.3462C59.2651 22.768 58.1184 20.3004 56.288 18.2409C53.4274 15.0182 49.0124 12.8943 43.6468 12.8943C38.2813 12.8943 33.8663 15.0182 31.0057 18.2409C29.1753 20.3004 28.0286 22.765 27.3878 25.3462C23.1383 25.8894 19.6185 27.8046 17.2086 30.5178C14.348 33.7405 12.9867 37.9147 12.9867 42.052C12.9867 46.1862 14.348 50.3634 17.2086 53.5861C20.0692 56.8088 24.4843 58.9327 29.8498 58.9327C31.6219 58.9327 33.2837 58.681 34.8259 58.2575L35.6844 58.9388L35.7733 59.0002C38.87 61.1487 40.5808 64.7366 40.5808 68.7512V74.2788H38.7412C21.2649 74.2788 6.85468 58.9327 6.85468 40.5174C6.85468 22.102 21.2649 6.75588 38.4346 6.75588H43.9534C56.2175 6.75588 67.8683 14.4289 73.3872 25.1712H80.439C74.307 11.0528 59.8967 0.617432 44.26 0.617432H38.7412V0.617432ZM43.6468 19.0328C47.4794 19.0328 49.9628 20.3618 51.7013 22.3169C52.526 23.2468 53.1545 24.3548 53.6052 25.5549C49.9659 26.3038 46.9489 28.1023 44.8027 30.5178C44.3882 30.9927 44.0022 31.4918 43.6468 32.0125C43.2915 31.4918 42.9055 30.9927 42.491 30.5178C40.3447 28.1023 37.3278 26.3038 33.6884 25.5549C34.1391 24.3579 34.7677 23.2468 35.5924 22.3169C37.3309 20.3618 39.8143 19.0328 43.6468 19.0328ZM26.9371 31.6319C27.2897 35.1401 28.5743 38.5684 31.0057 41.3092C33.1519 43.7247 36.1688 45.5233 39.8082 46.2722C39.3575 47.4691 38.729 48.5802 37.9042 49.5102C36.1658 51.4653 33.6823 52.7943 29.8498 52.7943C26.0173 52.7943 23.5338 51.4653 21.7954 49.5102C20.0569 47.552 19.1187 44.8235 19.1187 42.052C19.1187 39.2805 20.0569 36.5519 21.7954 34.5937C23.0432 33.1911 24.6989 32.1322 26.9401 31.6319H26.9371ZM60.3566 31.6319C62.5948 32.1322 64.2505 33.1911 65.4983 34.5937C67.2367 36.5519 68.1749 39.2805 68.1749 42.052C68.1749 44.8235 67.2367 47.552 65.4983 49.5102C63.7599 51.4653 61.2764 52.7943 57.4439 52.7943C53.6114 52.7943 51.1279 51.4653 49.3895 49.5102C48.562 48.5567 47.9166 47.4592 47.4855 46.2722C51.1248 45.5233 54.1418 43.7247 56.288 41.3092C58.7194 38.5715 60.004 35.1401 60.3535 31.6319H60.3566ZM33.0844 31.7363C35.1479 32.2642 36.7207 33.2617 37.9042 34.5937C39.2287 36.0854 40.0811 38.0282 40.4122 40.0907C38.3488 39.5628 36.7759 38.5653 35.5924 37.2333C34.2679 35.7416 33.4156 33.7988 33.0844 31.7363V31.7363ZM54.2093 31.7363C53.8751 33.7988 53.0258 35.7416 51.7013 37.2302C50.5178 38.5653 48.9449 39.5628 46.8815 40.0907C47.2157 38.0282 48.065 36.0854 49.3895 34.5968C50.573 33.2617 52.1458 32.2642 54.2093 31.7363ZM43.6468 52.0883C44.0056 52.604 44.3827 53.1073 44.8027 53.583C45.327 54.1723 45.9188 54.7125 46.5442 55.2251C45.4037 56.373 44.4992 57.7112 43.6468 59.0739C42.7945 57.7112 41.89 56.373 40.7495 55.2251C41.3749 54.7125 41.9667 54.1723 42.491 53.583C42.9055 53.1082 43.2915 52.6091 43.6468 52.0883V52.0883Z" fill="#FF461E"/>
</svg>
