<svg width="39" height="39" viewBox="0 0 39 39" fill="none" xmlns="http://www.w3.org/2000/svg">
<path d="M18.6276 0.400146C8.84549 0.400146 0.523438 9.16938 0.523438 19.4001C0.523438 29.6309 8.84549 38.4001 18.4816 38.4001H21.1096C28.5556 38.4001 35.4177 33.4309 38.3377 26.7078H35.2717C32.6845 31.4798 27.8081 34.9772 22.4236 35.4259V32.8448C22.4236 30.9331 23.2383 29.2231 24.7129 28.2001L24.7567 28.1723L25.164 27.8464C25.8984 28.051 26.6897 28.1694 27.5336 28.1694C30.0886 28.1694 32.191 27.158 33.5532 25.6234C34.9154 24.0888 35.5637 22.1011 35.5637 20.1309C35.5637 18.1622 34.9154 16.1731 33.5532 14.6385C32.4057 13.3465 30.7296 12.4345 28.706 12.1758C28.4009 10.9481 27.8548 9.77299 26.9832 8.7923C25.621 7.25768 23.5186 6.2463 20.9636 6.2463C18.4085 6.2463 16.3061 7.25768 14.9439 8.7923C14.0723 9.77299 13.5263 10.9466 13.2211 12.1758C11.1976 12.4345 9.52147 13.3465 8.37391 14.6385C7.01172 16.1731 6.36347 18.1608 6.36347 20.1309C6.36347 22.0996 7.01172 24.0888 8.37391 25.6234C9.73609 27.158 11.8385 28.1694 14.3935 28.1694C15.2374 28.1694 16.0287 28.0495 16.7631 27.8478L17.1719 28.1723L17.2143 28.2015C18.6889 29.2246 19.5036 30.9331 19.5036 32.8448V35.4771H18.6276C10.3055 35.4771 3.44346 28.1694 3.44346 19.4001C3.44346 10.6309 10.3055 3.32322 18.4816 3.32322H21.1096C26.9496 3.32322 32.4976 6.97707 35.1257 12.0925H38.4837C35.5637 5.36938 28.7016 0.400146 21.2556 0.400146H18.6276ZM20.9636 9.16938C22.7886 9.16938 23.9712 9.80222 24.799 10.7332C25.1918 11.1761 25.4911 11.7037 25.7057 12.2751C23.9726 12.6318 22.536 13.4882 21.514 14.6385C21.3166 14.8646 21.1328 15.1022 20.9636 15.3502C20.7944 15.1022 20.6106 14.8646 20.4131 14.6385C19.3911 13.4882 17.9545 12.6318 16.2215 12.2751C16.4361 11.7051 16.7354 11.1761 17.1281 10.7332C17.9559 9.80222 19.1386 9.16938 20.9636 9.16938ZM13.0065 15.169C13.1744 16.8395 13.7862 18.4721 14.9439 19.7772C15.966 20.9275 17.4026 21.7839 19.1356 22.1405C18.921 22.7105 18.6217 23.2396 18.229 23.6825C17.4011 24.6135 16.2185 25.2463 14.3935 25.2463C12.5685 25.2463 11.3859 24.6135 10.5581 23.6825C9.73026 22.75 9.28349 21.4507 9.28349 20.1309C9.28349 18.8111 9.73026 17.5118 10.5581 16.5794C11.1523 15.9115 11.9407 15.4072 13.008 15.169H13.0065ZM28.9206 15.169C29.9864 15.4072 30.7748 15.9115 31.3691 16.5794C32.1969 17.5118 32.6436 18.8111 32.6436 20.1309C32.6436 21.4507 32.1969 22.75 31.3691 23.6825C30.5412 24.6135 29.3586 25.2463 27.5336 25.2463C25.7086 25.2463 24.526 24.6135 23.6982 23.6825C23.3041 23.2284 22.9968 22.7058 22.7915 22.1405C24.5245 21.7839 25.9612 20.9275 26.9832 19.7772C28.141 18.4735 28.7527 16.8395 28.9192 15.169H28.9206ZM15.9338 15.2187C16.9164 15.4701 17.6654 15.9451 18.229 16.5794C18.8597 17.2897 19.2656 18.2148 19.4233 19.197C18.4407 18.9456 17.6917 18.4706 17.1281 17.8363C16.4974 17.126 16.0915 16.2008 15.9338 15.2187ZM25.9933 15.2187C25.8342 16.2008 25.4297 17.126 24.799 17.8348C24.2354 18.4706 23.4865 18.9456 22.5039 19.197C22.663 18.2148 23.0674 17.2897 23.6982 16.5808C24.2617 15.9451 25.0107 15.4701 25.9933 15.2187ZM20.9636 24.9101C21.1344 25.1557 21.314 25.3954 21.514 25.6219C21.7637 25.9025 22.0454 26.1598 22.3433 26.4038C21.8001 26.9505 21.3694 27.5877 20.9636 28.2366C20.5577 27.5877 20.127 26.9505 19.5839 26.4038C19.8817 26.1598 20.1635 25.9025 20.4131 25.6219C20.6106 25.3958 20.7944 25.1581 20.9636 24.9101Z" fill="#9D99B2"/>
</svg>
