<svg width="32" height="32" viewBox="0 0 32 32" fill="none" xmlns="http://www.w3.org/2000/svg">
<path d="M14.6001 18.0998L12.0001 15.4998C11.8668 15.3665 11.7278 15.2998 11.5833 15.2998C11.4388 15.2998 11.2998 15.3665 11.1665 15.4998C11.0556 15.6107 11.0001 15.7441 11.0001 15.8998C11.0001 16.0555 11.0556 16.1889 11.1665 16.2998L13.9001 19.0334C14.1001 19.211 14.3278 19.2998 14.5833 19.2998C14.8388 19.2998 15.0665 19.211 15.2665 19.0334L20.8001 13.4998C20.911 13.3665 20.9665 13.2275 20.9665 13.083C20.9665 12.9385 20.911 12.8107 20.8001 12.6998C20.6892 12.5889 20.5558 12.5334 20.4001 12.5334C20.2444 12.5334 20.1222 12.5889 20.0337 12.6998L14.6001 18.0998ZM16.0001 27.8334H15.7337C15.6446 27.8334 15.578 27.811 15.5337 27.7662C12.978 26.8777 10.8612 25.2278 9.1833 22.8166C7.50544 20.4054 6.6665 17.711 6.6665 14.7334V8.9334C6.6665 8.5334 6.7889 8.16113 7.0337 7.8166C7.27797 7.47207 7.57797 7.23313 7.9337 7.0998L15.3001 4.3662C15.5444 4.27767 15.7777 4.2334 16.0001 4.2334C16.2225 4.2334 16.4558 4.27767 16.7001 4.3662L24.0665 7.0998C24.4222 7.23313 24.7222 7.47207 24.9665 7.8166C25.2113 8.16113 25.3337 8.5334 25.3337 8.9334V14.7334C25.3337 17.711 24.4948 20.4054 22.8169 22.8166C21.139 25.2278 19.0334 26.8777 16.5001 27.7662C16.4334 27.811 16.2668 27.8334 16.0001 27.8334ZM16.0001 26.7334C18.3777 25.9777 20.3388 24.4777 21.8833 22.2334C23.4278 19.9886 24.2001 17.4886 24.2001 14.7334V8.7662C24.2001 8.63287 24.1668 8.51633 24.1001 8.4166C24.0334 8.31633 23.9446 8.24407 23.8337 8.1998L16.4001 5.4334C16.2444 5.3886 16.111 5.3662 16.0001 5.3662C15.8892 5.3662 15.7558 5.3886 15.6001 5.4334L8.1665 8.1998C8.05557 8.24407 7.96677 8.31633 7.9001 8.4166C7.83344 8.51633 7.8001 8.63287 7.8001 8.7662V14.7334C7.8001 17.4886 8.57237 19.9886 10.1169 22.2334C11.6614 24.4777 13.6225 25.9777 16.0001 26.7334Z" fill="black"/>
</svg>
