<svg width="81" height="81" viewBox="0 0 81 81" fill="none" xmlns="http://www.w3.org/2000/svg">
<path d="M40.1251 0.267578L54.9161 22.9966L80.0705 30.7494L64.0581 52.5485L64.8106 80.0674L40.1251 70.8111L15.4397 80.0674L16.1922 52.5485L0.179688 30.7494L25.3341 22.9966L40.1251 0.267578ZM40.1251 13.2955L29.7021 29.3158L11.9747 34.7747L23.2621 50.1333L22.7266 69.5245L40.1251 63.0032L57.5201 69.5245L56.9881 50.1333L68.2721 34.7747L50.5481 29.3158L40.1251 13.2955V13.2955ZM33.1251 42.5422C33.1251 44.4921 33.8626 46.3622 35.1754 47.741C36.4881 49.1197 38.2686 49.8943 40.1251 49.8943C41.9816 49.8943 43.7621 49.1197 45.0748 47.741C46.3876 46.3622 47.1251 44.4921 47.1251 42.5422H54.1251C54.1251 46.442 52.6501 50.1821 50.0246 52.9397C47.3991 55.6973 43.8381 57.2465 40.1251 57.2465C36.4121 57.2465 32.8511 55.6973 30.2256 52.9397C27.6001 50.1821 26.1251 46.442 26.1251 42.5422H33.1251Z" fill="#FFC300"/>
</svg>
