<?xml version="1.0" encoding="UTF-8" standalone="no"?>
<!DOCTYPE svg PUBLIC "-//W3C//DTD SVG 1.1//EN" "http://www.w3.org/Graphics/SVG/1.1/DTD/svg11.dtd">
<svg xmlns="http://www.w3.org/2000/svg" version="1.1" viewBox="0 0 126 114">
<path fill="#101010" d="
  M 68.69 114.00
  L 67.44 114.00
  L 58.59 104.93
  A 1.00 1.00 0.0 0 1 58.60 103.52
  L 96.53 65.62
  Q 97.89 64.25 95.96 64.25
  L 1.50 64.25
  A 1.00 1.00 0.0 0 1 0.50 63.25
  L 0.50 50.50
  A 1.00 1.00 0.0 0 1 1.50 49.50
  L 95.72 49.52
  Q 97.65 49.52 96.28 48.16
  L 61.00 12.87
  A 1.00 1.00 0.0 0 1 61.00 11.45
  L 70.00 2.53
  A 1.00 1.00 0.0 0 1 71.41 2.53
  L 125.16 56.23
  A 1.01 1.01 0.0 0 1 125.16 57.65
  L 68.69 114.00
  Z"
/>
</svg>
