<svg width="20" height="20" viewBox="0 0 20 20" fill="none" xmlns="http://www.w3.org/2000/svg">
<path d="M17.417 7.292L10.562 14.146C10.4793 14.2293 10.3893 14.2917 10.292 14.333C10.1947 14.375 10.0973 14.396 9.99999 14.396C9.90266 14.396 9.80533 14.375 9.70799 14.333C9.61066 14.2917 9.52066 14.2293 9.43799 14.146L2.56199 7.271C2.38199 7.09033 2.29199 6.88533 2.29199 6.656C2.29199 6.42666 2.38899 6.222 2.58299 6.042C2.73566 5.86133 2.94066 5.778 3.19799 5.792C3.45466 5.80533 3.66633 5.89533 3.83299 6.062L9.99999 12.25L16.208 6.042C16.3613 5.88866 16.5627 5.812 16.812 5.812C17.0627 5.812 17.2643 5.88866 17.417 6.042C17.5837 6.20866 17.667 6.417 17.667 6.667C17.667 6.917 17.5837 7.12533 17.417 7.292Z" fill="black"/>
</svg>
