<svg width="10" height="10" viewBox="0 0 10 10" fill="none" xmlns="http://www.w3.org/2000/svg">
<path d="M7.92861 3.55599C7.93051 3.46941 7.90541 3.38438 7.85676 3.31273C7.80811 3.24108 7.73831 3.18638 7.65712 3.15621C7.57594 3.12605 7.48739 3.12193 7.40376 3.14443C7.32012 3.16692 7.24561 3.21492 7.19052 3.28174L5.00628 5.83138L2.82281 3.28174C2.78883 3.23552 2.7457 3.1968 2.69608 3.16803C2.64645 3.13926 2.5914 3.12104 2.5344 3.11452C2.47741 3.108 2.4197 3.11331 2.36485 3.13014C2.31001 3.14696 2.25921 3.17492 2.21568 3.21228C2.17214 3.24964 2.13683 3.29558 2.11187 3.34723C2.08691 3.39889 2.07289 3.45514 2.07068 3.51246C2.06847 3.56978 2.07809 3.62694 2.09899 3.68037C2.11989 3.73379 2.1516 3.78232 2.19213 3.82292L4.68971 6.74203C4.72883 6.78787 4.77739 6.82468 4.83211 6.84992C4.88684 6.87516 4.9464 6.88823 5.00666 6.88823C5.06693 6.88823 5.12649 6.87516 5.18121 6.84992C5.23594 6.82468 5.28454 6.78787 5.32366 6.74203L7.82365 3.82292C7.88915 3.74918 7.92639 3.6546 7.92871 3.55599L7.92861 3.55599Z" fill="#2E56FC"/>
</svg>
