<svg width="18" height="17" viewBox="0 0 18 17" fill="none" xmlns="http://www.w3.org/2000/svg">
<path d="M5.34375 7H12.625L10.0625 2.125C9.875 1.75 10.0312 1.28125 10.375 1.09375C10.75 0.90625 11.2188 1.0625 11.4062 1.40625L14.3125 7H17C17.5312 7 18 7.46875 18 8C18 8.5625 17.5312 9 17 9L15.375 15.5C15.125 16.375 14.3438 17 13.4375 17H4.53125C3.625 17 2.84375 16.375 2.59375 15.5L1 9C0.4375 9 0 8.5625 0 8C0 7.46875 0.4375 7 1 7H3.65625L6.5625 1.40625C6.75 1.0625 7.21875 0.90625 7.59375 1.09375C7.9375 1.28125 8.09375 1.75 7.90625 2.125L5.34375 7ZM5.96875 10.5C5.96875 10.25 5.75 10 5.46875 10C5.21875 10 4.96875 10.25 4.96875 10.5V13.5C4.96875 13.7812 5.21875 14 5.46875 14C5.75 14 5.96875 13.7812 5.96875 13.5V10.5ZM8.46875 10.5V13.5C8.46875 13.7812 8.71875 14 8.96875 14C9.25 14 9.5 13.7812 9.5 13.5V10.5C9.5 10.25 9.25 10 8.96875 10C8.71875 10 8.46875 10.25 8.46875 10.5ZM13 10.5C13 10.25 12.75 10 12.5 10C12.2188 10 12 10.25 12 10.5V13.5C12 13.7812 12.2188 14 12.5 14C12.75 14 13 13.7812 13 13.5V10.5Z" fill="#151B4E"/>
</svg>
