<svg width="24" height="23" viewBox="0 0 24 23" fill="none" xmlns="http://www.w3.org/2000/svg">
<path fill-rule="evenodd" clip-rule="evenodd" d="M14.4443 12.1297C14.0546 12.5356 13.388 12.5419 12.9931 12.12C12.5871 11.7302 12.5808 11.0637 13.0027 10.6687C13.3925 10.2628 14.059 10.2565 14.454 10.6784C14.8383 11.0788 14.8446 11.7453 14.4443 12.1297ZM10.7114 17.3402C8.48604 17.3361 6.69195 15.5396 6.69606 13.3142L14.7373 13.3249C14.7332 15.5502 12.9367 17.3443 10.7114 17.3402ZM7.00396 10.6717C7.39369 10.2658 8.06026 10.2595 8.45521 10.6814C8.86112 11.0711 8.86743 11.7377 8.44552 12.1326C8.0558 12.5385 7.38922 12.5448 6.99427 12.1229C6.58836 11.7332 6.59266 11.0882 7.00396 10.6717ZM15.8046 1.6033L15.9107 1.81902C16.452 2.86543 15.8847 4.10869 14.7538 4.42366L8.05623 4.42194C5.54059 4.42664 3.48446 6.4555 3.48917 8.97114L3.493 13.2283C3.49862 17.2168 6.72365 20.4527 10.7121 20.4471C11.4646 20.4521 12.2072 20.3281 12.9074 20.1177C15.827 19.1912 17.9415 16.4639 17.963 13.239L17.9613 5.44486C17.9395 3.87515 17.1214 2.42913 15.8046 1.6033Z" fill="#00A6B6"/>
</svg>
