<svg width="28" height="28" viewBox="0 0 28 28" fill="none" xmlns="http://www.w3.org/2000/svg">
<g clip-path="url(#clip0)">
<path d="M23.3081 3.63607C22.2122 3.05383 20.9578 2.7207 19.6213 2.7207C17.2666 2.7207 15.1509 3.75477 13.7545 5.37332C12.3486 3.75461 10.24 2.7207 7.87939 2.7207C6.54416 2.7207 5.28684 3.05286 4.19206 3.63607C1.84221 4.88135 0.25 7.28163 0.25 10.0537C0.25 10.8478 0.384117 11.602 0.627293 12.3156C1.93232 17.9697 10.2893 25.1018 13.7551 25.1018C17.1252 25.1018 25.5625 17.9697 26.8732 12.3156C27.1164 11.602 27.25 10.8478 27.25 10.0537C27.2511 7.28163 25.6575 4.88135 23.3081 3.63607ZM24.7945 11.671C24.7186 11.8819 24.5222 12.0135 24.3057 12.0135C24.2514 12.0135 24.1966 12.0135 24.1406 11.9945C23.869 11.9028 23.7283 11.6127 23.8189 11.3401C23.965 10.909 24.0402 10.4771 24.0402 10.0539C24.0402 8.51759 23.1658 7.10206 21.767 6.36787C21.0988 6.00648 20.3805 5.82514 19.6214 5.82514C19.3357 5.82514 19.1098 5.60381 19.1098 5.31196C19.1098 5.03104 19.3355 4.80088 19.6214 4.80088C20.544 4.80088 21.4301 5.02221 22.2479 5.45508C23.9869 6.37831 25.0662 8.13612 25.0662 10.0539C25.0659 10.5957 24.9771 11.1392 24.7945 11.671Z" fill="#F64056"/>
</g>
<defs>
<clipPath id="clip0">
<rect width="27" height="27" fill="white" transform="translate(0.25 0.411133)"/>
</clipPath>
</defs>
</svg>
