<svg width="32" height="38" viewBox="0 0 32 38" fill="none" xmlns="http://www.w3.org/2000/svg">
<path d="M15.7432 18.3413C18.1256 18.3413 20.1883 17.4869 21.8741 15.801C23.5594 14.1155 24.4142 12.053 24.4142 9.67039C24.4142 7.28856 23.5597 5.22588 21.8739 3.53976C20.188 1.85446 18.1253 1 15.7432 1C13.3606 1 11.2982 1.85446 9.61258 3.54003C7.927 5.22561 7.07227 7.28829 7.07227 9.67039C7.07227 12.053 7.927 14.1157 9.61258 15.8013C11.2987 17.4866 13.3614 18.3413 15.7432 18.3413ZM11.1045 5.0317C12.3979 3.73834 13.9151 3.10965 15.7432 3.10965C17.5711 3.10965 19.0886 3.73834 20.3822 5.0317C21.6756 6.32534 22.3045 7.84282 22.3045 9.67039C22.3045 11.4985 21.6756 13.0157 20.3822 14.3094C19.0886 15.603 17.5711 16.2317 15.7432 16.2317C13.9156 16.2317 12.3984 15.6027 11.1045 14.3094C9.81088 13.016 9.18192 11.4985 9.18192 9.67039C9.18192 7.84282 9.81088 6.32534 11.1045 5.0317Z" fill="#126E82" stroke="#126E82"/>
<path d="M30.9153 28.682C30.8667 27.9805 30.7684 27.2153 30.6236 26.4072C30.4775 25.5932 30.2894 24.8236 30.0641 24.1202C29.8312 23.3931 29.5151 22.6752 29.1237 21.9872C28.718 21.2731 28.2412 20.6512 27.7062 20.1396C27.1467 19.6042 26.4617 19.1739 25.6696 18.8599C24.8802 18.5476 24.0055 18.3894 23.0697 18.3894C22.7022 18.3894 22.3468 18.5402 21.6604 18.9871C21.238 19.2626 20.7439 19.5812 20.1924 19.9336C19.7208 20.234 19.0819 20.5156 18.2928 20.7704C17.523 21.0196 16.7413 21.1459 15.9695 21.1459C15.1983 21.1459 14.4166 21.0196 13.6462 20.7704C12.8579 20.5158 12.2188 20.2343 11.748 19.9338C11.2017 19.5847 10.7073 19.2661 10.2786 18.9868C9.59277 18.5399 9.23737 18.3892 8.86987 18.3892C7.93384 18.3892 7.05933 18.5476 6.27023 18.8602C5.47867 19.1736 4.7934 19.604 4.23337 20.1398C3.69833 20.6518 3.22153 21.2733 2.81613 21.9872C2.42529 22.6752 2.10889 23.3929 1.87598 24.1204C1.65103 24.8238 1.46289 25.5932 1.31677 26.4072C1.17175 27.2142 1.0737 27.9797 1.02509 28.6828C0.977295 29.3702 0.953125 30.0857 0.953125 30.8086C0.953125 32.6878 1.55051 34.2092 2.72852 35.3311C3.89197 36.4383 5.43115 36.9997 7.3035 36.9997H24.6377C26.5095 36.9997 28.0487 36.4383 29.2124 35.3311C30.3907 34.21 30.9881 32.6881 30.9881 30.8084C30.9878 30.083 30.9634 29.3675 30.9153 28.682ZM27.7578 33.8027C26.9891 34.5344 25.9684 34.89 24.6375 34.89H7.3035C5.97223 34.89 4.9516 34.5344 4.18311 33.8029C3.42917 33.0853 3.06277 32.1056 3.06277 30.8086C3.06277 30.1341 3.08502 29.468 3.12952 28.8286C3.17291 28.2013 3.26163 27.5122 3.39319 26.78C3.5231 26.0568 3.68845 25.3781 3.8851 24.7637C4.07379 24.1745 4.33115 23.5912 4.6503 23.0292C4.9549 22.4936 5.30536 22.0341 5.69208 21.6639C6.0538 21.3176 6.50974 21.0341 7.04697 20.8215C7.54382 20.6249 8.1022 20.5172 8.70837 20.501C8.78226 20.5403 8.91382 20.6153 9.12695 20.7542C9.56064 21.0369 10.0605 21.3593 10.6131 21.7122C11.2361 22.1094 12.0386 22.4681 12.9974 22.7776C13.9777 23.0946 14.9774 23.2555 15.9698 23.2555C16.9621 23.2555 17.9622 23.0946 18.9419 22.7779C19.9015 22.4678 20.7038 22.1094 21.3275 21.7117C21.8931 21.3502 22.3789 21.0371 22.8126 20.7542C23.0258 20.6155 23.1573 20.5403 23.2312 20.501C23.8376 20.5172 24.396 20.6249 24.8932 20.8215C25.4301 21.0341 25.886 21.3178 26.2478 21.6639C26.6345 22.0339 26.985 22.4934 27.2896 23.0295C27.609 23.5912 27.8666 24.1748 28.055 24.7634C28.252 25.3786 28.4176 26.0571 28.5472 26.7797C28.6785 27.5133 28.7675 28.2027 28.8109 28.8289V28.8294C28.8557 29.4664 28.8782 30.1321 28.8784 30.8086C28.8782 32.1058 28.5118 33.0853 27.7578 33.8027Z" fill="#126E82" stroke="#126E82"/>
</svg>
