<svg width="32" height="32" fill="none" xmlns="http://www.w3.org/2000/svg"><path d="M27.25 0H4.75a2.816 2.816 0 00-2.813 2.813v26.375A2.816 2.816 0 004.75 32h22.5a2.816 2.816 0 002.813-2.813V2.813A2.816 2.816 0 0027.25 0zm.938 29.188a.94.94 0 01-.938.937H4.75a.939.939 0 01-.938-.938V2.813a.94.94 0 01.938-.937h22.5c.517 0 .938.42.938.938v26.375z" fill="#fff"/><path d="M25.375 3.75H6.625a.938.938 0 00-.938.938v7.625c0 .517.42.937.938.937h18.75c.518 0 .938-.42.938-.938V4.689a.938.938 0 00-.938-.938zm-.938 7.625H7.563v-5.75h16.875v5.75zm-14.062 3.75h-3.75a.937.937 0 00-.938.938v3.75c0 .517.42.937.938.937h3.75c.518 0 .938-.42.938-.938v-3.75a.938.938 0 00-.938-.937zm-.938 3.75H7.563V17h1.875v1.875zm.938 3.75h-3.75a.937.937 0 00-.938.938v3.75c0 .517.42.937.938.937h3.75c.518 0 .938-.42.938-.938v-3.75a.938.938 0 00-.938-.937zm-.938 3.75H7.563V24.5h1.875v1.875zm8.438-11.25h-3.75a.937.937 0 00-.938.938v3.75c0 .517.42.937.938.937h3.75c.518 0 .938-.42.938-.938v-3.75a.938.938 0 00-.938-.937zm-.938 3.75h-1.875V17h1.876v1.875zm.938 3.75h-3.75a.937.937 0 00-.938.938v3.75c0 .517.42.937.938.937h3.75c.518 0 .938-.42.938-.938v-3.75a.938.938 0 00-.938-.937zm-.938 3.75h-1.875V24.5h1.876v1.875zm8.438-11.25h-3.75a.937.937 0 00-.938.938v11.25c0 .517.42.937.938.937h3.75c.518 0 .938-.42.938-.938v-11.25a.938.938 0 00-.938-.937zm-.938 11.25h-1.875V17h1.875v9.375z" fill="#fff"/></svg>