<svg width="27" height="26" viewBox="0 0 27 26" fill="none" xmlns="http://www.w3.org/2000/svg">
<rect x="0.00390625" width="26" height="26" fill="white"/>
<g clip-path="url(#clip0)">
<path d="M16.7148 8.85938H16.1992V8H15.3398V8.85938H9.66797V8H8.80859V8.85938H8.29297C7.58218 8.85938 7.00391 9.43765 7.00391 10.1484V17.7109C7.00391 18.4217 7.58218 19 8.29297 19H16.7148C17.4256 19 18.0039 18.4217 18.0039 17.7109V10.1484C18.0039 9.43765 17.4256 8.85938 16.7148 8.85938ZM17.1445 17.7109C17.1445 17.9479 16.9518 18.1406 16.7148 18.1406H8.29297C8.05604 18.1406 7.86328 17.9479 7.86328 17.7109V12.0391H17.1445V17.7109ZM17.1445 11.1797H7.86328V10.1484C7.86328 9.91151 8.05604 9.71875 8.29297 9.71875H8.80859V10.5781H9.66797V9.71875H15.3398V10.5781H16.1992V9.71875H16.7148C16.9518 9.71875 17.1445 9.91151 17.1445 10.1484V11.1797Z" fill="#2B2A29"/>
<path d="M9.49609 12.9414H8.63672V13.8008H9.49609V12.9414Z" fill="#2B2A29"/>
<path d="M11.2148 12.9414H10.3555V13.8008H11.2148V12.9414Z" fill="#2B2A29"/>
<path d="M12.9336 12.9414H12.0742V13.8008H12.9336V12.9414Z" fill="#2B2A29"/>
<path d="M14.6523 12.9414H13.793V13.8008H14.6523V12.9414Z" fill="#2B2A29"/>
<path d="M16.3711 12.9414H15.5117V13.8008H16.3711V12.9414Z" fill="#2B2A29"/>
<path d="M9.49609 14.6602H8.63672V15.5195H9.49609V14.6602Z" fill="#2B2A29"/>
<path d="M11.2148 14.6602H10.3555V15.5195H11.2148V14.6602Z" fill="#2B2A29"/>
<path d="M12.9336 14.6602H12.0742V15.5195H12.9336V14.6602Z" fill="#2B2A29"/>
<path d="M14.6523 14.6602H13.793V15.5195H14.6523V14.6602Z" fill="#2B2A29"/>
<path d="M9.49609 16.3789H8.63672V17.2383H9.49609V16.3789Z" fill="#2B2A29"/>
<path d="M11.2148 16.3789H10.3555V17.2383H11.2148V16.3789Z" fill="#2B2A29"/>
<path d="M12.9336 16.3789H12.0742V17.2383H12.9336V16.3789Z" fill="#2B2A29"/>
<path d="M14.6523 16.3789H13.793V17.2383H14.6523V16.3789Z" fill="#2B2A29"/>
<path d="M16.3711 14.6602H15.5117V15.5195H16.3711V14.6602Z" fill="#2B2A29"/>
</g>
<defs>
<clipPath id="clip0">
<rect width="11" height="11" fill="white" transform="translate(7.00391 8)"/>
</clipPath>
</defs>
</svg>
