<svg width="20" height="20" viewBox="0 0 20 20" fill="none" xmlns="http://www.w3.org/2000/svg">
<rect width="20" height="20" fill="white"/>
<path d="M6.81819 18C6.39554 18 6.03646 17.8551 5.74095 17.5653C5.44475 17.2748 5.29666 16.9223 5.29666 16.5077C5.29666 16.0932 5.44475 15.7411 5.74095 15.4512C6.03646 15.1607 6.39554 15.0155 6.81819 15.0155C7.24084 15.0155 7.59992 15.1607 7.89544 15.4512C8.19163 15.7411 8.33973 16.0932 8.33973 16.5077C8.33973 16.9223 8.19163 17.2748 7.89544 17.5653C7.59992 17.8551 7.24084 18 6.81819 18ZM14.9959 18C14.574 18 14.2149 17.8551 13.9187 17.5653C13.6225 17.2748 13.4744 16.9223 13.4744 16.5077C13.4744 16.0932 13.6225 15.7411 13.9187 15.4512C14.2149 15.1607 14.574 15.0155 14.9959 15.0155C15.4193 15.0155 15.7787 15.1607 16.0742 15.4512C16.3697 15.7411 16.5175 16.0932 16.5175 16.5077C16.5175 16.9223 16.3697 17.2748 16.0742 17.5653C15.7787 17.8551 15.4193 18 14.9959 18ZM5.93063 4.96363L8.00195 9.27526H13.8761L16.1584 5.19144C16.1868 5.1364 16.1868 5.08466 16.1584 5.03625C16.1307 4.98783 16.0884 4.96363 16.0316 4.96363H5.93063ZM6.79689 13.8963C6.23358 13.8963 5.80384 13.6512 5.50764 13.1611C5.21213 12.6703 5.20537 12.1832 5.48736 11.6997L6.6488 9.60654L3.60573 3.32612H2.65527C2.48621 3.32612 2.33474 3.26046 2.20084 3.12914C2.06695 2.99782 2 2.84263 2 2.66356C2 2.48382 2.06695 2.3283 2.20084 2.19698C2.33474 2.06566 2.49332 2 2.67658 2H3.96582C4.12068 2 4.26134 2.03814 4.38779 2.11441C4.51493 2.19001 4.61366 2.30376 4.68399 2.45564L5.27536 3.63751H17.0672C17.448 3.63751 17.7191 3.78607 17.8808 4.08319C18.0431 4.38032 18.0397 4.6738 17.8706 4.96363L15.1237 9.81347C14.9824 10.0622 14.792 10.2555 14.5527 10.3935C14.3133 10.5321 14.0526 10.6014 13.7706 10.6014H7.64185L6.734 12.2598C6.6914 12.3288 6.68768 12.3977 6.72284 12.4667C6.75801 12.5357 6.81785 12.5702 6.90238 12.5702H15.8632C16.0323 12.5702 16.1837 12.6391 16.3176 12.7771C16.4509 12.9157 16.5175 13.0679 16.5175 13.2337C16.5175 13.4135 16.4509 13.5687 16.3176 13.6993C16.1837 13.8306 16.0252 13.8963 15.8419 13.8963H6.79689Z" fill="black"/>
<rect x="9" y="6.25" width="4" height="1.5" rx="0.75" fill="black"/>
</svg>
