<svg width="30" height="30" viewBox="0 0 30 30" fill="none" xmlns="http://www.w3.org/2000/svg">
<g clip-path="url(#clip0)">
<path d="M25.0005 21.6179L23.7271 20.855C23.3389 20.6228 22.8948 20.5002 22.4424 20.5H20.5259C20.1336 20.4993 19.743 20.5498 19.3636 20.6499L13.5892 22.2C12.9578 22.3743 12.4507 22.8445 12.2295 23.4609L7.15045 20.7131C6.73858 20.4788 6.2564 20.3992 5.79107 20.4885C5.61554 20.5195 5.44537 20.5754 5.28546 20.6545C4.92437 20.8274 4.62481 21.1067 4.42657 21.4546C4.25323 21.7576 4.16217 22.1006 4.16217 22.4495C4.15679 23.1619 4.53424 23.822 5.15045 24.179L14.2535 29.6255C14.649 29.8704 15.1045 30 15.5696 30H22.6146C22.9293 30.0003 23.241 29.9407 23.5335 29.825L25.0005 29.2456V30H30.0005V20H25.0005V21.6179ZM23.1661 28.895C22.991 28.9641 22.8043 28.9998 22.616 29H15.5696C15.2879 28.9998 15.0118 28.9204 14.773 28.771L5.65753 23.3181C5.34771 23.1392 5.15802 22.8076 5.16046 22.45C5.16119 22.2747 5.20733 22.1023 5.29449 21.95C5.3941 21.7773 5.544 21.6389 5.72393 21.5535C5.80328 21.5149 5.88726 21.4876 5.97393 21.4724C6.03717 21.4607 6.10137 21.4546 6.16558 21.4546C6.33746 21.4541 6.5064 21.499 6.65557 21.5845L12.1631 24.5606C12.1695 24.5911 12.1695 24.6211 12.1775 24.6516C12.4144 25.5244 13.2061 26.1306 14.1107 26.1316C14.389 26.1062 14.6646 26.0569 14.9346 25.9846L20.1295 24.5945L19.8716 23.6284L14.6937 25.0125C14.4656 25.0649 14.1714 25.125 14.1107 25.1301C13.659 25.1309 13.263 24.8291 13.1441 24.3936C13.128 24.333 13.1185 24.271 13.115 24.2085C13.115 24.2085 13.1111 24.0874 13.115 24.0449C13.1531 23.6267 13.4461 23.2756 13.8506 23.1631L19.6226 21.6189C19.9173 21.54 20.221 21.5 20.5259 21.5H22.4424C22.7139 21.5 22.9803 21.5737 23.2129 21.7131L25.0005 22.7835V28.1699L23.1661 28.895ZM26.0005 21H29.0005V29H26.0005V21Z" fill="#555555"/>
<path d="M20.6221 3.99953L17.9399 1.31765C17.0979 0.470721 15.9521 -0.00388792 14.7581 -0.000469947H8.47192C8.08398 1.83341e-05 7.70142 0.0905945 7.354 0.263446L6.2334 0.823993C6.00879 0.93703 5.75928 0.990985 5.50806 0.980975L5 0.963153V-0.000469947H0V10.9995H5V9.49953H5.8501L6.15259 9.69948C6.99902 10.2615 7.98462 10.5789 9 10.616V16.9995H30V3.99953H20.6221ZM4 9.99953H1V0.99953H4V9.99953ZM6.70605 8.86745L6.1499 8.49953H5V1.96364L5.47144 1.98049C5.89014 1.99538 6.30566 1.90529 6.68042 1.71852L7.80005 1.15798C8.00854 1.05373 8.23877 0.99953 8.47192 0.99953H14.7581C15.6868 0.996845 16.5781 1.36599 17.2329 2.02443L19.208 3.99953H15.082L13.8684 2.78615L13.1616 3.49294L16.6936 7.02516C17.0859 7.41579 17.0872 8.05056 16.6965 8.44313C16.3057 8.83547 15.6709 8.83669 15.2786 8.44606L12.3286 5.49611L11.9785 5.79616C11.012 6.61696 9.59912 6.63796 8.6084 5.84597L8.3186 5.6111L7.68848 6.38796L7.98145 6.62551C8.28784 6.87038 8.63184 7.06423 9 7.19948V9.6155C8.18164 9.57912 7.38843 9.32057 6.70605 8.86745ZM13.8186 8.39943L14.573 9.15407C15.3562 9.92556 16.6135 9.92678 17.3979 9.15651C16.6641 10.293 16.9536 11.8054 18.0554 12.5904C19.1572 13.3753 20.6814 13.1548 21.5156 12.0901C22.3499 11.0252 22.1992 9.49245 21.1733 8.61061C20.1477 7.72878 18.6096 7.80959 17.6821 8.79396C18.0237 8.25759 18.0847 7.58913 17.8459 6.99953H24.5415C24.7566 8.25759 25.7419 9.24294 27 9.45803V11.541C25.7419 11.7561 24.7566 12.7415 24.5415 13.9995H14.4585C14.2434 12.7415 13.2581 11.7561 12 11.541V9.45803C12.7146 9.33766 13.3608 8.96144 13.8186 8.39943ZM18 10.4995C18 9.67116 18.6716 8.99953 19.5 8.99953C20.3284 8.99953 21 9.67116 21 10.4995C21 11.3279 20.3284 11.9995 19.5 11.9995C18.6716 11.9995 18 11.3279 18 10.4995ZM29 15.9995H10V7.40895C10.7927 7.46852 11.583 7.26638 12.25 6.834L13.103 7.68703C12.7278 8.1968 12.1331 8.49831 11.5 8.49953H11V12.4995H11.5C12.6045 12.4995 13.5 13.395 13.5 14.4995V14.9995H25.5V14.4995C25.5 13.395 26.3955 12.4995 27.5 12.4995H28V8.49953H27.5C26.3955 8.49953 25.5 7.60402 25.5 6.49953V5.99953H17.082L16.082 4.99953H29V15.9995Z" fill="#555555"/>
</g>
<defs>
<clipPath id="clip0">
<rect width="30" height="30" fill="white"/>
</clipPath>
</defs>
</svg>
