<svg width="24" height="24" viewBox="0 0 24 24" fill="none" xmlns="http://www.w3.org/2000/svg">
<path d="M13.4746 17.1254L8.97461 12.6254C8.89128 12.5421 8.82861 12.4461 8.78661 12.3374C8.74528 12.2294 8.72461 12.1171 8.72461 12.0004C8.72461 11.8837 8.74528 11.7711 8.78661 11.6624C8.82861 11.5544 8.89128 11.4587 8.97461 11.3754L13.4746 6.87539C13.6246 6.72539 13.7996 6.65039 13.9996 6.65039C14.1996 6.65039 14.3746 6.72539 14.5246 6.87539C14.6746 7.02539 14.7496 7.20039 14.7496 7.40039C14.7496 7.60039 14.6746 7.77539 14.5246 7.92539L10.4496 12.0004L14.5246 16.0754C14.6746 16.2254 14.7496 16.4004 14.7496 16.6004C14.7496 16.8004 14.6746 16.9754 14.5246 17.1254C14.3746 17.2754 14.1996 17.3504 13.9996 17.3504C13.7996 17.3504 13.6246 17.2754 13.4746 17.1254Z" fill="black"/>
</svg>
