<svg width="22" height="22" viewBox="0 0 22 22" fill="none" xmlns="http://www.w3.org/2000/svg">
<g clip-path="url(#clip0)">
<path d="M20.5379 3.70755C19.5936 2.76318 18.338 2.24313 17.0026 2.24313C15.6671 2.24313 14.4115 2.76318 13.4671 3.70755L5.58556 11.589C4.41593 12.7587 4.41593 14.6618 5.58563 15.8316C6.75533 17.0012 8.65854 17.0012 9.82817 15.8315L15.018 10.6416C15.4085 10.2511 15.4085 9.61797 15.018 9.22745C14.6276 8.83693 13.9944 8.83693 13.6039 9.22745L8.41401 14.4173C8.02416 14.8073 7.38971 14.8072 6.99979 14.4174C6.60987 14.0274 6.60987 13.393 6.99972 13.0031L14.8813 5.12178C15.4479 4.55519 16.2012 4.24313 17.0026 4.24313C17.8039 4.24313 18.5572 4.55519 19.1238 5.12178C20.2934 6.29147 20.2935 8.19462 19.1239 9.36431L10.5353 17.9527C8.58574 19.9021 5.41377 19.9021 3.46443 17.9527C2.52006 17.0084 1.99994 15.7529 1.99994 14.4174C1.99994 13.0819 2.52006 11.8262 3.46443 10.8819L12.0528 2.29333C12.4434 1.90281 12.4434 1.26969 12.0528 0.87917C11.6624 0.488715 11.0292 0.488648 10.6387 0.87917L2.05027 9.46771C0.728111 10.7898 0 12.5476 0 14.4174C0 16.2871 0.728111 18.0449 2.05027 19.3669C3.41503 20.7317 5.20711 21.414 6.99979 21.4138C8.79207 21.4137 10.5849 20.7314 11.9494 19.3669L20.538 10.7784C22.4874 8.82893 22.4873 5.65703 20.5379 3.70755Z" fill="#0048B1"/>
</g>
<defs>
<clipPath id="clip0">
<rect width="22" height="22" fill="white"/>
</clipPath>
</defs>
</svg>
