<svg width="25" height="25" viewBox="0 0 25 25" fill="none" xmlns="http://www.w3.org/2000/svg">
<rect x="2.45166" y="2.25879" width="20" height="20" rx="10" fill="white"/>
<path fill-rule="evenodd" clip-rule="evenodd" d="M8.12166 2.25879H16.7917C20.1817 2.25879 22.4517 4.63779 22.4517 8.17779V16.3478C22.4517 19.8788 20.1817 22.2588 16.7917 22.2588H8.12166C4.73166 22.2588 2.45166 19.8788 2.45166 16.3478V8.17779C2.45166 4.63779 4.73166 2.25879 8.12166 2.25879ZM16.0317 16.0688C16.2817 16.0688 16.5317 15.9388 16.6717 15.6988C16.8917 15.3478 16.7717 14.8878 16.4117 14.6688L12.8517 12.5488V7.92779C12.8517 7.51879 12.5217 7.17779 12.1017 7.17779C11.6917 7.17779 11.3517 7.51879 11.3517 7.92779V12.9788C11.3517 13.2388 11.4917 13.4888 11.7217 13.6188L15.6417 15.9588C15.7617 16.0388 15.9017 16.0688 16.0317 16.0688Z" fill="#292930"/>
</svg>
