<svg width="30" height="30" viewBox="0 0 30 30" fill="none" xmlns="http://www.w3.org/2000/svg">
<path fill-rule="evenodd" clip-rule="evenodd" d="M9.65359 7.92898C9.17734 7.45273 8.40518 7.45273 7.92894 7.92897C7.45269 8.40522 7.45269 9.17738 7.92894 9.65363L13.2754 15L7.92898 20.3464C7.45273 20.8227 7.45273 21.5948 7.92898 22.0711C8.40523 22.5473 9.17738 22.5473 9.65363 22.0711L15 16.7247L20.3464 22.0711C20.8227 22.5474 21.5948 22.5474 22.0711 22.0711C22.5473 21.5949 22.5473 20.8227 22.0711 20.3465L16.7247 15L22.0711 9.65358C22.5474 9.17733 22.5474 8.40518 22.0711 7.92893C21.5949 7.45268 20.8227 7.45268 20.3465 7.92893L15 13.2754L9.65359 7.92898Z" fill="white"/>
</svg>
