<svg width="22" height="22" viewBox="0 0 22 22" fill="none" xmlns="http://www.w3.org/2000/svg">
<path d="M20.7311 18.1921L3.80828 1.26921C3.10731 0.568247 1.97082 0.568247 1.26985 1.26921C0.568881 1.97018 0.568881 3.10668 1.26985 3.80764L18.1927 20.7305C18.8937 21.4315 20.0302 21.4315 20.7311 20.7305C21.4321 20.0295 21.4321 18.893 20.7311 18.1921Z" fill="#060606"/>
<path d="M3.80794 20.7306L20.7308 3.80779C21.4318 3.10682 21.4318 1.97033 20.7308 1.26936C20.0298 0.568392 18.8933 0.568393 18.1924 1.26936L1.26951 18.1922C0.568544 18.8932 0.568543 20.0297 1.26951 20.7306C1.97048 21.4316 3.10697 21.4316 3.80794 20.7306Z" fill="#060606"/>
</svg>
