<svg width="17" height="16" viewBox="0 0 17 16" fill="none" xmlns="http://www.w3.org/2000/svg">
<path d="M1.07524 15.4249C0.684715 15.0343 0.684715 14.4012 1.07524 14.0106L14.5103 0.575608C14.9008 0.185084 15.534 0.185084 15.9245 0.575608C16.315 0.966132 16.315 1.5993 15.9245 1.98982L2.48945 15.4249C2.09893 15.8154 1.46576 15.8154 1.07524 15.4249Z" fill="white"/>
<path d="M15.5562 15.5565C15.9467 15.1659 15.9467 14.5328 15.5562 14.1422L2.12117 0.707215C1.73064 0.316691 1.09748 0.316691 0.706956 0.707215C0.316431 1.09774 0.316431 1.7309 0.706956 2.12143L14.142 15.5565C14.5325 15.947 15.1657 15.947 15.5562 15.5565Z" fill="white"/>
</svg>
