<svg width="34" height="33" viewBox="0 0 34 33" fill="none" xmlns="http://www.w3.org/2000/svg">
<path d="M34 2.03785H30.1484V0H4.31641V5.25896H3.55273C1.59375 5.25896 0 6.83665 0 8.7759C0 10.7151 1.59375 12.2928 3.55273 12.2928H4.31641V18.7351H3.55273C1.59375 18.7351 0 20.3127 0 22.252C0 24.1912 1.59375 25.7689 3.55273 25.7689H4.31641V29.4974C4.31641 31.4288 5.90365 33 7.85466 33H30.1484V29.0558H34V2.03785ZM32.0078 4.00996V10.3865H30.1484V4.00996H32.0078ZM32.0078 12.3586V18.7351H30.1484V12.3586H32.0078ZM3.55273 10.3207C1.48205 10.2357 1.48338 7.31548 3.55273 7.23108H4.31641V10.3207H3.55273ZM6.30859 7.23108H9.03125V5.25896H6.30859V1.97211H28.1562V27.0837H6.30859V20.7072H9.03125V18.7351H6.30859V7.23108ZM3.55273 23.7968C1.48205 23.7118 1.48338 20.7916 3.55273 20.7072H4.31641V23.7968H3.55273ZM7.85466 31.0279C7.00214 31.0279 6.30859 30.3413 6.30859 29.4974V29.0558H28.1562V31.0279H7.85466ZM30.1484 27.0837V20.7072H32.0078V27.0837H30.1484Z" fill="black"/>
<path d="M22.6431 18.3261C22.6304 16.5086 21.6173 14.7783 20.0446 13.8467C22.27 11.4966 20.5522 7.54924 17.265 7.55976C13.9779 7.54924 12.2599 11.4973 14.4855 13.8467C12.9126 14.7785 11.8998 16.5083 11.8869 18.326L11.872 19.3266H22.658L22.6431 18.3261ZM15.472 11.3068C15.472 10.3281 16.2763 9.53187 17.265 9.53187C19.6436 9.62936 19.6429 12.9845 17.265 13.0817C16.2764 13.0817 15.472 12.2855 15.472 11.3068ZM14.0504 17.3546C15.1078 14.3025 19.4235 14.3045 20.4796 17.3546H14.0504Z" fill="black"/>
</svg>
