<svg width="24" height="24" viewBox="0 0 24 24" fill="none" xmlns="http://www.w3.org/2000/svg">
<path d="M9.27422 17.8008C8.75755 17.8008 8.32422 17.6258 7.97422 17.2758C7.62422 16.9258 7.44922 16.5008 7.44922 16.0008V4.62578C7.44922 4.10911 7.62422 3.67578 7.97422 3.32578C8.32422 2.97578 8.75755 2.80078 9.27422 2.80078H17.6242C18.1242 2.80078 18.5536 2.97978 18.9122 3.33778C19.2702 3.69645 19.4492 4.12578 19.4492 4.62578V16.0008C19.4492 16.5008 19.2702 16.9258 18.9122 17.2758C18.5536 17.6258 18.1242 17.8008 17.6242 17.8008H9.27422ZM9.27422 16.3008H17.6242C17.7242 16.3008 17.8036 16.2714 17.8622 16.2128C17.9202 16.1548 17.9492 16.0841 17.9492 16.0008V4.62578C17.9492 4.52578 17.9202 4.44645 17.8622 4.38778C17.8036 4.32978 17.7242 4.30078 17.6242 4.30078H9.27422C9.17422 4.30078 9.09522 4.32978 9.03722 4.38778C8.97855 4.44645 8.94922 4.52578 8.94922 4.62578V16.0008C8.94922 16.0841 8.97855 16.1548 9.03722 16.2128C9.09522 16.2714 9.17422 16.3008 9.27422 16.3008ZM5.74922 21.3008C5.24922 21.3008 4.82422 21.1258 4.47422 20.7758C4.12422 20.4258 3.94922 20.0008 3.94922 19.5008V7.55078C3.94922 7.35078 4.01989 7.17578 4.16122 7.02578C4.30322 6.87578 4.48255 6.80078 4.69922 6.80078C4.89922 6.80078 5.07422 6.87578 5.22422 7.02578C5.37422 7.17578 5.44922 7.35078 5.44922 7.55078V19.5008C5.44922 19.5841 5.47822 19.6548 5.53622 19.7128C5.59489 19.7714 5.66589 19.8008 5.74922 19.8008H14.6992C14.8992 19.8008 15.0742 19.8758 15.2242 20.0258C15.3742 20.1758 15.4492 20.3508 15.4492 20.5508C15.4492 20.7674 15.3742 20.9464 15.2242 21.0878C15.0742 21.2298 14.8992 21.3008 14.6992 21.3008H5.74922ZM8.94922 4.30078V16.3008V4.30078Z" fill="black"/>
</svg>
