<svg width="10" height="57" viewBox="0 0 10 57" fill="none" xmlns="http://www.w3.org/2000/svg">
<path d="M0.655163 10C0.293512 10 -1.69714e-06 9.70649 -1.6339e-06 9.34483L-3.42894e-07 1.96113C-1.53501e-07 0.877921 0.877921 1.53501e-07 1.96113 3.42894e-07L9.34483 1.6339e-06C9.70649 1.69714e-06 10 0.293516 10 0.655167C10 1.01682 9.70649 1.31033 9.34483 1.31033L2.10177 1.31033C1.66456 1.31033 1.31033 1.66456 1.31033 2.10177L1.31033 9.34483C1.31033 9.70692 1.01725 10 0.655163 10Z" fill="white"/>
<path d="M10 56.3448C10 56.7065 9.70649 57 9.34483 57L1.96113 57C0.877921 57 1.15125e-07 56.1221 2.57171e-07 55.0389L1.22543e-06 47.6552C1.27285e-06 47.2935 0.293515 47 0.655166 47C1.01682 47 1.31033 47.2935 1.31033 47.6552L1.31033 54.8982C1.31033 55.3354 1.66456 55.6897 2.10177 55.6897L9.34483 55.6897C9.70692 55.6897 10 55.9827 10 56.3448Z" fill="white"/>
</svg>
