<svg width="30" height="30" viewBox="0 0 30 30" fill="none" xmlns="http://www.w3.org/2000/svg">
<path d="M24.5523 20.0103H21.5459V21.0124H24.5523V20.0103Z" fill="#555555"/>
<path d="M20.5435 20.0103H17.5371V21.0124H20.5435V20.0103Z" fill="#555555"/>
<path d="M16.5347 20.0103H13.5283V21.0124H16.5347V20.0103Z" fill="#555555"/>
<path d="M29.5561 10.3917L19.6416 0.475666C19.36 0.19144 18.9764 0.0317267 18.5763 0.0322277H18.5718C18.1743 0.0324156 17.7937 0.192191 17.5151 0.475666L6.99781 10.9914H1.50318C0.672987 10.9914 0 11.6644 0 12.4946V26.5243C0 27.3545 0.672987 28.0275 1.50318 28.0275H8.92689L10.4221 29.5242C10.7036 29.8084 11.0872 29.9681 11.4873 29.9676H11.4913C11.8889 29.9675 12.2698 29.8077 12.5486 29.5242L14.0467 28.0275H25.5541C26.3843 28.0275 27.0573 27.3545 27.0573 26.5243V15.0169L29.5535 12.5207C29.8385 12.2418 29.9993 11.8601 30 11.4614C30.0015 11.0597 29.8415 10.6743 29.5561 10.3917ZM23.1821 5.43466L17.6253 10.9914H13.3703L21.0546 3.30716L23.1821 5.43466ZM18.2246 1.18216C18.4152 0.986936 18.7279 0.983178 18.9232 1.17383C18.9261 1.17659 18.9289 1.17934 18.9316 1.18216L20.3461 2.59866L11.9528 10.9914H8.41481L18.2246 1.18216ZM11.8391 28.8177C11.7474 28.9134 11.6208 28.9676 11.4883 28.968C11.354 28.9677 11.2255 28.9135 11.1316 28.8177L10.3444 28.0275H12.6297L11.8391 28.8177ZM26.0551 26.5243C26.0551 26.801 25.8308 27.0254 25.5541 27.0254H1.50318C1.22647 27.0254 1.00212 26.801 1.00212 26.5243V19.5095H26.0551V26.5243ZM26.0551 18.5073H1.00212V15.501H26.0551V18.5073ZM26.0551 14.4988H1.00212V12.4946C1.00212 12.2179 1.22647 11.9935 1.50318 11.9935H25.5541C25.8308 11.9935 26.0551 12.2179 26.0551 12.4946V14.4988ZM28.8476 11.8097L27.0573 13.5999V12.4946C27.0573 11.6644 26.3843 10.9914 25.5541 10.9914H19.0403L23.8886 6.14316L28.8455 11.1002C28.9418 11.1945 28.996 11.3236 28.9959 11.4584C28.9957 11.5907 28.9423 11.7173 28.8476 11.8097Z" fill="#555555"/>
<path d="M4.80554 26.0367C4.8787 25.9735 4.94722 25.9049 5.01048 25.8318C5.67307 26.6035 6.81154 26.7502 7.64806 26.1715C8.18795 25.794 8.51201 25.1788 8.5179 24.52C8.5179 23.4131 7.62056 22.5158 6.51366 22.5158C6.4142 22.5144 6.31486 22.5228 6.21703 22.5408L6.204 22.5443C6.19899 22.5443 6.19398 22.5443 6.18947 22.5443C5.73044 22.6206 5.31299 22.8562 5.01048 23.2097C4.28644 22.3725 3.0207 22.2807 2.18349 23.0048C1.34622 23.7288 1.25446 24.9946 1.97856 25.8318C2.70259 26.6691 3.96827 26.7608 4.80554 26.0367ZM6.38689 23.5284C6.42867 23.5205 6.47113 23.517 6.51366 23.5179C7.06714 23.5179 7.51578 23.9665 7.51578 24.52C7.51528 24.732 7.4462 24.9382 7.31886 25.1078C7.30082 25.1323 7.28679 25.1579 7.26625 25.1834C7.26274 25.1874 7.25773 25.1899 7.25373 25.1939C7.06445 25.4029 6.79563 25.5222 6.51366 25.5221C5.9603 25.5127 5.5193 25.0565 5.52876 24.5031C5.53715 24.0117 5.90055 23.5989 6.38689 23.5284ZM3.50729 23.5179C4.06078 23.5179 4.50942 23.9665 4.50942 24.52C4.50942 25.0735 4.06078 25.5221 3.50729 25.5221C2.95381 25.5221 2.50517 25.0735 2.50517 24.52C2.50517 23.9665 2.95381 23.5179 3.50729 23.5179Z" fill="#555555"/>
</svg>
