<svg width="16" height="16" viewBox="0 0 16 16" fill="none" xmlns="http://www.w3.org/2000/svg">
<path d="M12.8833 6.3125C12.8833 6.3125 12.5213 10.8025 12.3113 12.6938C12.2113 13.5972 11.6533 14.1265 10.7393 14.1432C8.99994 14.1745 7.25861 14.1765 5.51994 14.1398C4.64061 14.1218 4.09194 13.5858 3.99394 12.6985C3.78261 10.7905 3.42261 6.3125 3.42261 6.3125" stroke="#459EE2" stroke-linecap="round" stroke-linejoin="round"/>
<path d="M13.8053 4.15999H2.5" stroke="#459EE2" stroke-linecap="round" stroke-linejoin="round"/>
<path d="M11.6271 4.15998C11.1038 4.15998 10.6531 3.78998 10.5505 3.27732L10.3885 2.46665C10.2885 2.09265 9.9498 1.83398 9.5638 1.83398H6.7418C6.3558 1.83398 6.01713 2.09265 5.91713 2.46665L5.75513 3.27732C5.65247 3.78998 5.2018 4.15998 4.67847 4.15998" stroke="#459EE2" stroke-linecap="round" stroke-linejoin="round"/>
</svg>
