<svg width="23" height="17" fill="none" xmlns="http://www.w3.org/2000/svg"><path fill-rule="evenodd" clip-rule="evenodd" d="M22.848 8.415l-1.352-1.741h.002l-2.175-4.325a.725.725 0 00-.648-.4h-3.092v-.724c0-.4-.325-.725-.725-.725H2.778a.725.725 0 100 1.45h11.355v5.073c0 .4.325.725.725.725h5.637l1.055 1.36v3.737h-1.366a2.904 2.904 0 00-2.813-2.198c-1.357 0-2.5.937-2.814 2.199H10.28a2.904 2.904 0 00-2.814-2.199c-1.357 0-2.5.937-2.813 2.199H2.778a.725.725 0 100 1.45h1.886a2.904 2.904 0 002.801 2.15c1.34 0 2.47-.914 2.801-2.15h4.304a2.904 2.904 0 002.8 2.15c1.34 0 2.471-.914 2.802-2.15h2.103c.4 0 .725-.325.725-.726V8.86a.726.726 0 00-.152-.445zm-4.62-5.016l1.458 2.9h-4.103v-2.9h2.645zm.592 10.147v.024a1.451 1.451 0 01-1.45 1.426 1.45 1.45 0 111.451-1.45zm-11.355 1.45a1.451 1.451 0 010-2.9 1.451 1.451 0 010 2.9zM1.91 9.173h3.334a.725.725 0 110 1.45H1.909a.725.725 0 110-1.45zm5-2.85H.726a.725.725 0 100 1.449H6.91a.725.725 0 100-1.45zm-5-2.851h6.185a.725.725 0 110 1.45H1.909a.725.725 0 110-1.45z" fill="#F70"/></svg>