<svg width="24" height="24" viewBox="0 0 24 24" fill="none" xmlns="http://www.w3.org/2000/svg">
<path d="M9.75 11.75H13.75V12.875C13.75 13.0583 13.8373 13.1873 14.012 13.262C14.1873 13.3373 14.3417 13.3083 14.475 13.175L16.075 11.575C16.2417 11.4083 16.325 11.2167 16.325 11C16.325 10.7833 16.2417 10.5917 16.075 10.425L14.475 8.825C14.3417 8.69167 14.1873 8.65833 14.012 8.725C13.8373 8.79167 13.75 8.925 13.75 9.125V10.25H9.15C8.9 10.25 8.68733 10.3373 8.512 10.512C8.33733 10.6873 8.25 10.9 8.25 11.15V14C8.25 14.2167 8.321 14.3957 8.463 14.537C8.60433 14.679 8.78333 14.75 9 14.75C9.21667 14.75 9.396 14.679 9.538 14.537C9.67933 14.3957 9.75 14.2167 9.75 14V11.75ZM12 21.375C11.7833 21.375 11.5627 21.3293 11.338 21.238C11.1127 21.146 10.9083 21.0083 10.725 20.825L3.175 13.275C2.99167 13.0917 2.85433 12.8917 2.763 12.675C2.671 12.4583 2.625 12.2333 2.625 12C2.625 11.7833 2.671 11.5623 2.763 11.337C2.85433 11.1123 2.99167 10.9083 3.175 10.725L10.725 3.175C10.9083 2.99167 11.1083 2.854 11.325 2.762C11.5417 2.67067 11.7667 2.625 12 2.625C12.2167 2.625 12.4377 2.67067 12.663 2.762C12.8877 2.854 13.0917 2.99167 13.275 3.175L20.825 10.725C21.0083 10.9083 21.146 11.1083 21.238 11.325C21.3293 11.5417 21.375 11.7667 21.375 12C21.375 12.2167 21.3293 12.4373 21.238 12.662C21.146 12.8873 21.0083 13.0917 20.825 13.275L13.275 20.825C13.0917 21.0083 12.8917 21.146 12.675 21.238C12.4583 21.3293 12.2333 21.375 12 21.375ZM8 16L11.8 19.8C11.85 19.85 11.9167 19.875 12 19.875C12.0833 19.875 12.15 19.85 12.2 19.8L19.8 12.2C19.85 12.15 19.875 12.0833 19.875 12C19.875 11.9167 19.85 11.85 19.8 11.8L12.2 4.2C12.15 4.15 12.0833 4.125 12 4.125C11.9167 4.125 11.85 4.15 11.8 4.2L4.2 11.8C4.15 11.85 4.125 11.9167 4.125 12C4.125 12.0833 4.15 12.15 4.2 12.2L8 16Z" fill="black"/>
</svg>
