<svg width="29" height="29" viewBox="0 0 29 29" fill="none" xmlns="http://www.w3.org/2000/svg">
<g clip-path="url(#clip0)">
<path d="M18.2852 0.554123V7.56521H25.2962L18.2852 0.554123Z" fill="#3A6DEB"/>
<path d="M17.3371 9.45655C16.8151 9.45655 16.3915 9.03293 16.3915 8.51088V0H4.09802C3.57596 0 3.15234 0.423615 3.15234 0.945672V28.0544C3.15234 28.5764 3.57596 29.0001 4.09802 29.0001H24.9023C25.4244 29.0001 25.848 28.5764 25.848 28.0544V9.45655H17.3371ZM15.4459 23.3261H7.88059C7.35853 23.3261 6.93492 22.9025 6.93492 22.3804C6.93492 21.8584 7.35853 21.4347 7.88059 21.4347H15.4458C15.9679 21.4347 16.3915 21.8584 16.3915 22.3804C16.3915 22.9025 15.9679 23.3261 15.4459 23.3261ZM21.1198 19.5435H7.88059C7.35853 19.5435 6.93492 19.1198 6.93492 18.5978C6.93492 18.0757 7.35853 17.6521 7.88059 17.6521H21.1198C21.6418 17.6521 22.0654 18.0757 22.0654 18.5978C22.0654 19.1198 21.6418 19.5435 21.1198 19.5435ZM21.1198 15.7609H7.88059C7.35853 15.7609 6.93492 15.3373 6.93492 14.8152C6.93492 14.2931 7.35853 13.8695 7.88059 13.8695H21.1198C21.6418 13.8695 22.0654 14.2931 22.0654 14.8152C22.0654 15.3373 21.6418 15.7609 21.1198 15.7609Z" fill="#3A6DEB"/>
</g>
<defs>
<clipPath id="clip0">
<rect width="29" height="29" fill="white"/>
</clipPath>
</defs>
</svg>
