<svg width="24" height="25" viewBox="0 0 24 25" fill="none" xmlns="http://www.w3.org/2000/svg">
<path d="M10.575 14.65L8.225 12.3C8.09167 12.1667 7.921 12.1043 7.713 12.113C7.50433 12.121 7.33333 12.1917 7.2 12.325C7.05 12.475 6.975 12.65 6.975 12.85C6.975 13.05 7.05 13.225 7.2 13.375L9.95 16.125C10.1167 16.2917 10.325 16.375 10.575 16.375C10.825 16.375 11.0417 16.2917 11.225 16.125L16.8 10.525C16.9333 10.3917 16.996 10.2207 16.988 10.012C16.9793 9.804 16.9083 9.63333 16.775 9.5C16.625 9.35 16.45 9.275 16.25 9.275C16.05 9.275 15.875 9.35 15.725 9.5L10.575 14.65ZM12 22C10.6833 22 9.446 21.75 8.288 21.25C7.12933 20.75 6.125 20.075 5.275 19.225C4.425 18.375 3.75 17.3707 3.25 16.212C2.75 15.054 2.5 13.8167 2.5 12.5C2.5 11.1833 2.75 9.94567 3.25 8.787C3.75 7.629 4.425 6.625 5.275 5.775C6.125 4.925 7.12933 4.25 8.288 3.75C9.446 3.25 10.6833 3 12 3C13.3167 3 14.5543 3.25 15.713 3.75C16.871 4.25 17.875 4.925 18.725 5.775C19.575 6.625 20.25 7.629 20.75 8.787C21.25 9.94567 21.5 11.1833 21.5 12.5C21.5 13.8167 21.25 15.054 20.75 16.212C20.25 17.3707 19.575 18.375 18.725 19.225C17.875 20.075 16.871 20.75 15.713 21.25C14.5543 21.75 13.3167 22 12 22ZM12 20.5C14.2167 20.5 16.1043 19.721 17.663 18.163C19.221 16.6043 20 14.7167 20 12.5C20 10.2833 19.221 8.39567 17.663 6.837C16.1043 5.279 14.2167 4.5 12 4.5C9.78333 4.5 7.896 5.279 6.338 6.837C4.77933 8.39567 4 10.2833 4 12.5C4 14.7167 4.77933 16.6043 6.338 18.163C7.896 19.721 9.78333 20.5 12 20.5Z" fill="black"/>
</svg>
