<svg width="19" height="19" viewBox="0 0 19 19" fill="none" xmlns="http://www.w3.org/2000/svg">
<path d="M18.6803 12.743C18.4673 12.53 18.2083 12.4233 17.904 12.4233H12.6057L11.0529 13.9762C10.6113 14.4024 10.0937 14.6156 9.5 14.6156C8.90638 14.6156 8.38862 14.4027 7.94713 13.9762L6.40567 12.4233H1.09614C0.79171 12.4233 0.532912 12.5301 0.319707 12.743C0.106543 12.9561 0 13.215 0 13.5196V17.1733C0 17.4778 0.106543 17.7366 0.319707 17.9498C0.532872 18.1629 0.79167 18.2693 1.09614 18.2693H17.904C18.2084 18.2693 18.4674 18.1629 18.6803 17.9498C18.8935 17.7366 19 17.4778 19 17.1733V13.5196C19 13.215 18.8935 12.9561 18.6803 12.743ZM14.3986 16.591C14.2538 16.7356 14.0825 16.8079 13.8846 16.8079C13.6866 16.8079 13.5155 16.7356 13.3708 16.591C13.2262 16.4463 13.154 16.2751 13.154 16.0773C13.154 15.8794 13.2262 15.7079 13.3708 15.5635C13.5155 15.4187 13.6866 15.3463 13.8846 15.3463C14.0825 15.3463 14.2538 15.4187 14.3986 15.5635C14.5431 15.7079 14.6154 15.8794 14.6154 16.0773C14.6154 16.2751 14.5431 16.4463 14.3986 16.591ZM17.3215 16.591C17.177 16.7356 17.0056 16.8079 16.8077 16.8079C16.6098 16.8079 16.4386 16.7356 16.2939 16.591C16.1494 16.4463 16.0771 16.2751 16.0771 16.0773C16.0771 15.8794 16.1494 15.7079 16.2939 15.5635C16.4385 15.4187 16.6098 15.3463 16.8077 15.3463C17.0056 15.3463 17.1769 15.4187 17.3215 15.5635C17.4662 15.7079 17.5386 15.8794 17.5386 16.0773C17.5386 16.2751 17.4663 16.4463 17.3215 16.591Z" fill="white"/>
<path d="M8.98621 12.9371C9.12331 13.0816 9.29456 13.1539 9.50001 13.1539C9.70562 13.1539 9.87667 13.0816 10.0138 12.9371L15.1292 7.8216C15.3652 7.60088 15.4186 7.3344 15.2891 7.02229C15.1599 6.7255 14.9353 6.57709 14.6154 6.57693H11.6923V1.46151C11.6923 1.26363 11.6199 1.09233 11.4755 0.947718C11.3307 0.803061 11.1595 0.730713 10.9617 0.730713H8.03833C7.84052 0.730713 7.66923 0.803061 7.52453 0.947718C7.37996 1.09233 7.30761 1.26359 7.30761 1.46151V6.57696H4.38453C4.06466 6.57696 3.84022 6.72554 3.7108 7.02233C3.58146 7.33432 3.63469 7.60092 3.87073 7.82164L8.98621 12.9371Z" fill="white"/>
</svg>
