<svg width="8" height="8" viewBox="0 0 8 8" fill="none" xmlns="http://www.w3.org/2000/svg">
<path d="M1.98463 3.29964C1.92122 3.30133 1.85961 3.32106 1.80703 3.35654C1.75446 3.39203 1.71309 3.44178 1.6878 3.49995C1.66251 3.55812 1.65434 3.62231 1.66425 3.68496C1.67416 3.74761 1.70174 3.80614 1.74374 3.85367L3.74179 6.18896C3.77309 6.22563 3.81197 6.25508 3.85574 6.27527C3.89952 6.29547 3.94716 6.30592 3.99537 6.30592C4.04358 6.30592 4.09122 6.29547 4.135 6.27527C4.17878 6.25508 4.21766 6.22563 4.24895 6.18896L6.24895 3.85367C6.27922 3.82068 6.30253 3.78194 6.3175 3.73975C6.33246 3.69756 6.33878 3.65279 6.33607 3.60811C6.33336 3.56342 6.32168 3.51972 6.30172 3.47965C6.28177 3.43958 6.25395 3.40397 6.21992 3.37488C6.18589 3.3458 6.14635 3.32384 6.10366 3.31037C6.06097 3.29689 6.016 3.29217 5.97144 3.29645C5.92688 3.30073 5.88364 3.31393 5.8443 3.33528C5.80495 3.35664 5.77031 3.38568 5.74244 3.42071L3.99505 5.46042L2.2483 3.42071C2.21632 3.38197 2.17599 3.35098 2.13033 3.33002C2.08467 3.30905 2.03486 3.29865 1.98463 3.29964Z" fill="white"/>
</svg>
