<svg width="39" height="39" viewBox="0 0 39 39" fill="none" xmlns="http://www.w3.org/2000/svg">
<path d="M28.6122 38.7304H10.8863C8.13787 38.9012 5.43883 37.9484 3.40791 36.0921C1.55161 34.0593 0.598782 31.3603 0.769607 28.6139V10.8862C0.598782 8.1397 1.54971 5.44069 3.40601 3.40788C5.43883 1.5516 8.13787 0.598783 10.8863 0.769607H28.6122C31.3568 0.598783 34.054 1.5497 36.0849 3.40599C37.9393 5.44069 38.894 8.1378 38.7308 10.8862V28.6139C38.8997 31.3603 37.9488 34.0593 36.0925 36.0921C34.0597 37.9484 31.3606 38.9012 28.6122 38.7304" fill="#459EE2"/>
<path d="M29.3537 16.7054L16.9034 29.2175C16.2559 29.8478 15.4049 30.2 14.517 30.2H10.1695C9.92904 30.2 9.70704 30.1073 9.54054 29.9405C9.37405 29.7736 9.30005 29.5512 9.30005 29.3102L9.41105 24.9171C9.42955 24.0458 9.78104 23.2302 10.3915 22.6185L19.2159 13.7766C19.3639 13.6283 19.6229 13.6283 19.7709 13.7766L22.8659 16.8592C23.0694 17.0613 23.3653 17.1929 23.6798 17.1929C24.3643 17.1929 24.9008 16.6368 24.9008 15.9695C24.9008 15.6358 24.7713 15.3392 24.5678 15.1168C24.5123 15.0426 21.5653 12.1083 21.5653 12.1083C21.3803 11.9229 21.3803 11.6078 21.5653 11.4224L22.8048 10.1619C23.9518 9.01267 25.8018 9.01267 26.9487 10.1619L29.3537 12.5717C30.4822 13.7024 30.4822 15.5561 29.3537 16.7054" fill="white"/>
</svg>
