<svg width="27" height="26" viewBox="0 0 27 26" fill="none" xmlns="http://www.w3.org/2000/svg">
<rect x="0.00390625" width="26" height="26" fill="white"/>
<g clip-path="url(#clip0)">
<path d="M17.7148 8.72363H8.29297C7.58218 8.72363 7.00391 9.30191 7.00391 10.0127V16.2002C7.00391 16.911 7.58218 17.4893 8.29297 17.4893H11.3285C11.3655 17.4893 11.4007 17.507 11.4227 17.5369L12.5302 19.0384C12.6412 19.1889 12.8121 19.2756 12.9991 19.2765H13.0019C13.1878 19.2765 13.3584 19.1914 13.4701 19.0427L14.6028 17.536C14.6248 17.5067 14.6598 17.4892 14.6964 17.4892H17.7148C18.4256 17.4892 19.0039 16.911 19.0039 16.2002V10.0127C19.0039 9.30188 18.4256 8.72363 17.7148 8.72363ZM18.3008 16.2002C18.3008 16.2556 18.2929 16.3091 18.2785 16.3599L14.6667 13.1937L18.3008 10.1778V16.2002ZM17.7148 9.42676C17.822 9.42676 17.9225 9.45582 18.009 9.50628L13.3791 13.3485C13.1623 13.5285 12.8476 13.5285 12.6307 13.3485L7.99998 9.5056C8.08623 9.45556 8.18628 9.42676 8.29297 9.42676H17.7148ZM7.72932 16.3599C7.71491 16.3091 7.70703 16.2555 7.70703 16.2002V10.1762L11.3421 13.1929L7.72932 16.3599ZM14.0408 17.1135L13.0027 18.4944L11.9886 17.1195C11.8347 16.9107 11.5878 16.7861 11.3284 16.7861H8.30968L11.89 13.6476L12.1817 13.8896C12.4202 14.0875 12.7125 14.1865 13.0049 14.1865C13.2972 14.1865 13.5896 14.0875 13.8281 13.8896L14.1187 13.6484L17.6981 16.7861H14.6964C14.44 16.7861 14.1949 16.9085 14.0408 17.1135Z" fill="#2B2A29"/>
</g>
<defs>
<clipPath id="clip0">
<rect width="12" height="12" fill="white" transform="translate(7.00391 8)"/>
</clipPath>
</defs>
</svg>
