<svg width="21" height="17" viewBox="0 0 21 17" fill="none" xmlns="http://www.w3.org/2000/svg">
<path fill-rule="evenodd" clip-rule="evenodd" d="M7.07461 8.52246C7.07461 10.6558 8.82095 12.3916 10.9771 12.3916C13.1234 12.3916 14.8697 10.6558 14.8697 8.52246C14.8697 6.37943 13.1234 4.64367 10.9771 4.64367C8.82095 4.64367 7.07461 6.37943 7.07461 8.52246ZM16.7136 2.56852C18.421 3.88731 19.8746 5.81701 20.9185 8.23155C20.9966 8.41579 20.9966 8.62913 20.9185 8.80367C18.8307 13.6328 15.1136 16.5225 10.9771 16.5225H10.9673C6.84047 16.5225 3.12339 13.6328 1.03559 8.80367C0.957539 8.62913 0.957539 8.41579 1.03559 8.23155C3.12339 3.40246 6.84047 0.522461 10.9673 0.522461H10.9771C13.0453 0.522461 15.0063 1.24004 16.7136 2.56852ZM10.9782 10.9349C12.3148 10.9349 13.4075 9.84881 13.4075 8.52033C13.4075 7.18215 12.3148 6.09609 10.9782 6.09609C10.8611 6.09609 10.7441 6.10578 10.6368 6.12518C10.5977 7.19184 9.71968 8.04518 8.63676 8.04518H8.58798C8.55871 8.20033 8.5392 8.35548 8.5392 8.52033C8.5392 9.84881 9.63188 10.9349 10.9782 10.9349Z" fill="#999FAE"/>
</svg>
