<svg width="64" height="64" fill="none" xmlns="http://www.w3.org/2000/svg"><circle cx="32" cy="32" r="32" fill="#141515" fill-opacity=".8"/><g clip-path="url(#clip0)"><path fill-rule="evenodd" clip-rule="evenodd" d="M33 20.079a.941.941 0 01-.941-.942v-2.196a.941.941 0 111.882 0v2.197a.94.94 0 01-.941.94zm0 3.645c-6.72 0-12.878 4.136-15.787 7.68a.941.941 0 000 1.193c2.783 3.39 8.914 7.679 15.787 7.679 6.637 0 12.81-4.05 15.786-7.679a.941.941 0 000-1.194c-2.884-3.515-9.041-7.678-15.786-7.678zm0 14.67A6.4 6.4 0 0126.607 32 6.4 6.4 0 0133 25.607 6.4 6.4 0 0139.393 32 6.4 6.4 0 0133 38.394zm6.588-11.396c3.586 1.525 6.14 3.901 7.2 5.002-1.94 2.02-4.472 3.845-7.199 5a8.254 8.254 0 000-10.002zM26.41 27a8.254 8.254 0 00.002 10.002c-3.586-1.525-6.14-3.901-7.2-5.002 1.94-2.02 4.473-3.845 7.198-5zM33 35.2c1.764 0 3.2-1.435 3.2-3.2 0-1.764-1.436-3.2-3.2-3.2a3.204 3.204 0 00-3.2 3.2c0 1.765 1.435 3.2 3.2 3.2zm0-1.882A1.32 1.32 0 0131.682 32 1.32 1.32 0 0133 30.683 1.32 1.32 0 0134.318 32 1.32 1.32 0 0133 33.318zm-6.9-12.332a.941.941 0 101.635-.932l-1.252-2.196a.941.941 0 10-1.635.932l1.252 2.196zm13.8 0a.941.941 0 11-1.636-.933l1.253-2.195a.941.941 0 111.635.932l-1.253 2.196zm-5.96 23.877a.941.941 0 00-1.882 0v2.196a.941.941 0 101.882 0v-2.196zm4.675-2.2a.941.941 0 011.283.351l1.253 2.196a.941.941 0 01-1.635.933l-1.253-2.196a.941.941 0 01.352-1.284zm-11.232 0a.941.941 0 00-1.284.351l-1.252 2.196a.941.941 0 101.635.933l1.252-2.196a.941.941 0 00-.35-1.284z" fill="#fff"/></g><defs><clipPath id="clip0"><path fill="#fff" transform="matrix(-1 0 0 1 49 16)" d="M0 0h32v32H0z"/></clipPath></defs></svg>