<svg width="21" height="17" viewBox="0 0 21 17" fill="none" xmlns="http://www.w3.org/2000/svg">
<path fill-rule="evenodd" clip-rule="evenodd" d="M6.90039 8.31726C6.90039 10.4506 8.64673 12.1864 10.8028 12.1864C12.9492 12.1864 14.6955 10.4506 14.6955 8.31726C14.6955 6.17423 12.9492 4.43848 10.8028 4.43848C8.64673 4.43848 6.90039 6.17423 6.90039 8.31726ZM16.5393 2.36344C18.2466 3.68223 19.7003 5.61193 20.7442 8.02647C20.8222 8.21072 20.8222 8.42405 20.7442 8.59859C18.6564 13.4277 14.9393 16.3174 10.8027 16.3174H10.793C6.66615 16.3174 2.94908 13.4277 0.861271 8.59859C0.783222 8.42405 0.783222 8.21072 0.861271 8.02647C2.94908 3.19738 6.66615 0.317383 10.793 0.317383H10.8027C12.871 0.317383 14.832 1.03496 16.5393 2.36344ZM10.804 10.7294C12.1406 10.7294 13.2333 9.64335 13.2333 8.31487C13.2333 6.97669 12.1406 5.89062 10.804 5.89062C10.6869 5.89062 10.5699 5.90032 10.4626 5.91972C10.4235 6.98638 9.54548 7.83972 8.46255 7.83972H8.41377C8.3845 7.99487 8.36499 8.15002 8.36499 8.31487C8.36499 9.64335 9.45767 10.7294 10.804 10.7294Z" fill="white"/>
</svg>
