<svg width="24" height="24" viewBox="0 0 24 24" fill="none" xmlns="http://www.w3.org/2000/svg">
<g clip-path="url(#clip0)">
<path d="M23.8399 11.552C21.6586 8.89438 17.0404 5.79297 12 5.79297C6.94163 5.79297 2.32322 8.91546 0.160165 11.552C-0.0533882 11.8123 -0.0533882 12.1871 0.160165 12.4474C2.3932 15.1693 7.02224 18.2065 12 18.2065C17.1547 18.2065 21.7533 14.9897 23.8399 12.4475C24.0534 12.1871 24.0534 11.8123 23.8399 11.552ZM16.795 11.9997C16.795 14.6437 14.644 16.7947 12 16.7947C9.35593 16.7947 7.20497 14.6435 7.20497 11.9997C7.20497 9.35575 9.35598 7.20469 12 7.20469C14.6442 7.20473 16.795 9.35603 16.795 11.9997ZM1.65941 11.9999C2.45391 11.1741 4.36958 9.39208 7.05875 8.24831C5.37113 10.4658 5.37047 13.5317 7.05795 15.7501C5.0133 14.8835 3.11391 13.5143 1.65941 11.9999ZM16.9413 15.7511C18.6289 13.5335 18.6295 10.4677 16.9421 8.24935C18.9867 9.11593 20.8861 10.4851 22.3406 11.9995C21.5461 12.8253 19.6305 14.6073 16.9413 15.7511Z" fill="#126E82"/>
<path d="M9.59961 12.0001C9.59961 13.3235 10.6762 14.4001 11.9996 14.4001C13.3229 14.4001 14.3996 13.3235 14.3996 12.0001C14.3996 10.6767 13.3229 9.6001 11.9996 9.6001C10.6762 9.6001 9.59961 10.6767 9.59961 12.0001ZM12.9878 12.0001C12.9878 12.545 12.5445 12.9883 11.9996 12.9883C11.4547 12.9883 11.0114 12.545 11.0114 12.0001C11.0114 11.4552 11.4547 11.0119 11.9996 11.0119C12.5445 11.0119 12.9878 11.4552 12.9878 12.0001Z" fill="#126E82"/>
<path d="M11.9989 3.05882C12.3887 3.05882 12.7047 2.74278 12.7047 2.35294V0.705882C12.7047 0.316047 12.3887 0 11.9989 0C11.609 0 11.293 0.316047 11.293 0.705882V2.35294C11.293 2.74278 11.609 3.05882 11.9989 3.05882Z" fill="#126E82"/>
<path d="M16.2117 4.00288C16.5502 4.19591 16.9814 4.07822 17.1746 3.7394L18.114 2.09234C18.3071 1.7537 18.1893 1.32264 17.8506 1.12947C17.5118 0.936337 17.0809 1.05422 16.8877 1.39295L15.9483 3.04001C15.7552 3.3786 15.8731 3.8097 16.2117 4.00288Z" fill="#126E82"/>
<path d="M6.8252 3.73988C7.01833 4.07851 7.44938 4.19644 7.78807 4.00331C8.1267 3.81018 8.24463 3.37908 8.0515 3.04044L7.11211 1.39338C6.91898 1.05475 6.48783 0.936817 6.14924 1.12995C5.81061 1.32308 5.69268 1.75418 5.88581 2.09282L6.8252 3.73988Z" fill="#126E82"/>
<path d="M11.9989 20.9414C11.609 20.9414 11.293 21.2575 11.293 21.6473V23.2944C11.293 23.6842 11.609 24.0003 11.9989 24.0003C12.3887 24.0003 12.7047 23.6842 12.7047 23.2944V21.6473C12.7047 21.2575 12.3887 20.9414 11.9989 20.9414Z" fill="#126E82"/>
<path d="M7.78806 19.9976C7.44943 19.8045 7.01837 19.9224 6.82519 20.261L5.88581 21.9081C5.69268 22.2467 5.81061 22.6778 6.14924 22.871C6.48792 23.0641 6.91898 22.9461 7.11211 22.6075L8.0515 20.9605C8.24467 20.6218 8.1267 20.1907 7.78806 19.9976Z" fill="#126E82"/>
<path d="M17.1746 20.2606C16.9815 19.9219 16.5503 19.8041 16.2117 19.9971C15.8731 20.1902 15.7552 20.6213 15.9483 20.96L16.8877 22.607C17.0808 22.9457 17.5118 23.0636 17.8506 22.8705C18.1892 22.6774 18.3071 22.2463 18.114 21.9076L17.1746 20.2606Z" fill="#126E82"/>
</g>
<defs>
<clipPath id="clip0">
<rect width="24" height="24" fill="white"/>
</clipPath>
</defs>
</svg>
