<svg width="34" height="34" viewBox="0 0 34 34" fill="none" xmlns="http://www.w3.org/2000/svg">
<g clip-path="url(#clip0)">
<path d="M29.42 0H4.58352C2.05324 0 0.00195312 2.0512 0.00195312 4.58157V29.4183C0.00195312 31.9486 2.05316 33.9998 4.58352 33.9998H16.8328L16.8537 21.8501H13.6972C13.287 21.8501 12.954 21.5184 12.9524 21.1082L12.9373 17.1919C12.9357 16.7794 13.2697 16.4442 13.6821 16.4442H16.8329V12.66C16.8329 8.26853 19.5149 5.87732 23.4324 5.87732H26.6471C27.0584 5.87732 27.3919 6.21075 27.3919 6.62213V9.92442C27.3919 10.3356 27.0586 10.669 26.6475 10.6692L24.6747 10.6701C22.5442 10.6701 22.1317 11.6825 22.1317 13.1682V16.4443H26.8131C27.2591 16.4443 27.6052 16.8338 27.5527 17.2768L27.0885 21.1932C27.0441 21.5679 26.7263 21.8503 26.3489 21.8503H22.1526L22.1317 34H29.4202C31.9505 34 34.0017 31.9488 34.0017 29.4185V4.58157C34.0016 2.0512 31.9504 0 29.42 0Z" fill="#475993"/>
</g>
<defs>
<clipPath id="clip0">
<rect width="34" height="34" fill="white"/>
</clipPath>
</defs>
</svg>
