<svg width="31" height="30" viewBox="0 0 31 30" fill="none" xmlns="http://www.w3.org/2000/svg">
<path fill-rule="evenodd" clip-rule="evenodd" d="M5.72412 0C2.9627 0 0.724121 2.23858 0.724121 5V25C0.724121 27.7614 2.9627 30 5.72412 30H25.7241C28.4855 30 30.7241 27.7614 30.7241 25V5C30.7241 2.23858 28.4855 0 25.7241 0H5.72412ZM19.2405 15.7674C19.2255 15.865 19.1415 15.937 19.0428 15.9371L17.2263 15.9375C17.1158 15.9375 17.0263 16.027 17.0263 16.1375V22.3C17.0263 22.4105 16.9368 22.5 16.8263 22.5H14.2919C14.1815 22.5 14.0919 22.4105 14.0919 22.3V16.1375C14.0919 16.027 14.0024 15.9375 13.8919 15.9375H11.9074C11.7969 15.9375 11.7074 15.848 11.7074 15.7375V13.423C11.7074 13.3125 11.7969 13.223 11.9074 13.223H13.8919C14.0024 13.223 14.0919 13.1334 14.0919 13.023V11.1539C14.0919 8.80032 15.494 7.5 17.639 7.5C18.4229 7.5 19.2341 7.60669 19.5747 7.65727C19.6711 7.67159 19.7408 7.75457 19.7408 7.85205V9.79422C19.7408 9.90468 19.6513 9.99422 19.5408 9.99422H18.5568C17.3901 9.99422 17.0263 10.7184 17.0263 11.4609V13.0225C17.0263 13.133 17.1158 13.2225 17.2263 13.2225H19.3981C19.5207 13.2225 19.6144 13.3317 19.5958 13.4529L19.2405 15.7674Z" fill="#292930"/>
</svg>
