<svg width="50" height="51" viewBox="0 0 50 51" fill="none" xmlns="http://www.w3.org/2000/svg">
<rect y="0.498047" width="50" height="50" rx="25" fill="white"/>
<path d="M29.8743 26.956C30.0612 26.956 30.2202 26.8196 30.2485 26.6348L30.7435 23.4104C30.7787 23.181 30.6012 22.9742 30.3692 22.9742H27.3683C27.1591 22.9742 26.9896 22.8046 26.9896 22.5954V20.3902C26.9896 19.3011 27.5231 18.2387 29.2345 18.2387H30.5926C30.8018 18.2387 30.9714 18.0692 30.9714 17.86V15.1685C30.9714 14.9839 30.8389 14.8268 30.6562 14.8003C30.1213 14.7228 28.9865 14.5801 27.8882 14.5801C24.7418 14.5801 22.6853 16.4874 22.6853 19.9398V22.5961C22.6853 22.8053 22.5157 22.9748 22.3065 22.9748H19.5662C19.3571 22.9748 19.1875 23.1444 19.1875 23.3536V26.5779C19.1875 26.7871 19.3571 26.9567 19.5662 26.9567H22.3065C22.5157 26.9567 22.6853 27.1262 22.6853 27.3354V36.2042C22.6853 36.4133 22.8548 36.5829 23.064 36.5829H26.6108C26.82 36.5829 26.9896 36.4133 26.9896 36.2042V27.3353C26.9896 27.1262 27.1591 26.9566 27.3682 26.9566L29.8743 26.956Z" fill="#101010"/>
</svg>
