<svg width="103" height="103" viewBox="0 0 103 103" fill="none" xmlns="http://www.w3.org/2000/svg">
<path d="M56.337 97.427C56.325 97.446 56.313 97.464 56.301 97.482V100.259C56.313 100.259 56.326 97.427 56.337 97.427Z" fill="white"/>
<path d="M102.241 46.745C101.672 40.606 99.975 34.785 97.237 29.275C93.878 22.514 89.234 16.774 83.327 12.068C76.848 6.90402 69.535 3.50202 61.401 1.94202C59.101 1.50102 56.74 1.37202 54.407 1.09402C54.138 1.06102 53.872 0.993017 53.606 0.942017C52.361 0.942017 51.117 0.942017 49.873 0.942017C49.563 0.995017 49.254 1.08003 48.942 1.09503C42.605 1.39103 36.543 2.86004 30.791 5.51004C19.542 10.691 11.211 18.891 5.80003 30.023C3.51303 34.729 2.03104 39.7 1.38004 44.901C1.20204 46.321 1.11603 47.753 0.979034 49.178C0.953034 49.449 0.882031 49.716 0.832031 49.984C0.832031 51.228 0.832031 52.472 0.832031 53.716C0.928031 54.623 1.04103 55.529 1.11603 56.438C1.48503 60.897 2.44803 65.227 4.03603 69.403C8.78303 81.882 17.134 91.163 28.994 97.26C33.569 99.613 38.429 101.169 43.523 101.943C45.106 102.182 46.706 102.304 48.296 102.489C48.482 102.51 48.661 102.582 48.844 102.631C50.775 102.631 52.705 102.631 54.636 102.631C55.328 102.539 56.019 102.426 56.715 102.358C66.821 101.359 75.836 97.655 83.689 91.247C92.817 83.795 98.729 74.289 101.292 62.772C101.833 60.34 102.014 57.829 102.367 55.355C102.396 55.15 102.469 54.95 102.521 54.748C102.521 52.817 102.521 50.886 102.521 48.956C102.426 48.217 102.31 47.483 102.241 46.745ZM97.233 52.395C96.975 75.363 79.412 94.791 56.302 97.112V59.062H65.746C66.37 54.837 66.988 50.655 67.615 46.409H56.329C56.309 46.26 56.285 46.163 56.285 46.065C56.285 43.456 56.28 40.847 56.293 38.238C56.298 37.284 56.538 36.378 57.01 35.546C57.773 34.2 58.89 33.456 60.485 33.472C62.642 33.493 64.798 33.477 66.955 33.477H67.572V20.858C67.394 20.85 67.211 20.833 67.028 20.833C64.245 20.831 61.461 20.777 58.68 20.848C56.189 20.911 53.73 21.256 51.393 22.207C47.436 23.816 45.108 26.817 43.977 30.852C43.31 33.232 43.098 35.671 43.057 38.124C43.015 40.663 43.048 43.203 43.048 45.742V46.38H35.717V59.037H43.013V96.521C21.842 92.425 5.85804 73.537 6.17104 51.127C6.51304 26.548 26.779 6.19403 51.722 6.29803C76.365 6.17703 97.525 26.437 97.233 52.395Z" fill="white"/>
</svg>
