<svg width="24" height="24" viewBox="0 0 24 24" fill="none" xmlns="http://www.w3.org/2000/svg">
<path fill-rule="evenodd" clip-rule="evenodd" d="M9.69631 12.0775V20.6711C9.69631 20.7872 9.79308 20.9033 9.92857 20.9033H13.1221C13.2382 20.9033 13.3544 20.8065 13.3544 20.6711V11.9227H15.6576C15.7737 11.9227 15.8705 11.8259 15.8899 11.7098L16.0834 9.09686C16.1028 8.96137 15.9866 8.84524 15.8511 8.84524H13.335V6.98718C13.335 6.54202 13.6834 6.19363 14.1286 6.19363H15.9092C16.0253 6.19363 16.1415 6.09686 16.1415 5.96137V3.34847C16.1415 3.23234 16.0447 3.11621 15.9092 3.11621H12.8899C11.1286 3.11621 9.69631 4.54847 9.69631 6.30976V8.84524H8.10921C7.99308 8.84524 7.87695 8.94202 7.87695 9.0775V11.7098C7.87695 11.8259 7.97373 11.942 8.10921 11.942H9.69631V12.0775Z" fill="black"/>
</svg>
