<svg width="26" height="26" viewBox="0 0 26 26" fill="none" xmlns="http://www.w3.org/2000/svg">
<path d="M7.86842 0C3.5349 0 0 3.5349 0 7.86842V18.1316C0 22.4645 3.53477 26 7.86842 26H18.1316C22.4646 26 26 22.4646 26 18.1316V7.86842C26 3.53477 22.4645 0 18.1316 0H7.86842ZM7.86842 2.05263H18.1316C21.3551 2.05263 23.9474 4.64428 23.9474 7.86842V18.1316C23.9474 21.3549 21.3549 23.9474 18.1316 23.9474H7.86842C4.64428 23.9474 2.05263 21.3551 2.05263 18.1316V7.86842C2.05263 4.64415 4.64415 2.05263 7.86842 2.05263ZM19.8421 4.78947C19.0861 4.78947 18.4737 5.40184 18.4737 6.15789C18.4737 6.91395 19.0861 7.52632 19.8421 7.52632C20.5982 7.52632 21.2105 6.91395 21.2105 6.15789C21.2105 5.40184 20.5982 4.78947 19.8421 4.78947ZM13 6.15789C9.23354 6.15789 6.15789 9.23354 6.15789 13C6.15789 16.7665 9.23354 19.8421 13 19.8421C16.7665 19.8421 19.8421 16.7665 19.8421 13C19.8421 9.23354 16.7665 6.15789 13 6.15789ZM13 8.21053C15.6569 8.21053 17.7895 10.3431 17.7895 13C17.7895 15.6569 15.6569 17.7895 13 17.7895C10.3431 17.7895 8.21053 15.6569 8.21053 13C8.21053 10.3431 10.3431 8.21053 13 8.21053Z" fill="#1C1636"/>
</svg>
