<svg width="26" height="26" viewBox="0 0 26 26" fill="none" xmlns="http://www.w3.org/2000/svg">
<path fill-rule="evenodd" clip-rule="evenodd" d="M22.1118 3.77868C19.6769 1.34381 16.4417 0 12.9958 0C5.89339 0 0.109527 5.77965 0.109527 12.882C0.105314 15.1526 0.699288 17.3684 1.82826 19.3231L0 26L6.83279 24.2054C8.7116 25.2333 10.8347 25.7725 12.9916 25.7767H12.9958C20.0982 25.7767 25.8778 19.9971 25.882 12.8905C25.882 9.4488 24.5424 6.21354 22.1118 3.77868ZM12.9958 23.5988H12.9916C11.0706 23.5988 9.18341 23.0807 7.54051 22.1076L7.14874 21.8759L3.09203 22.9375L4.17466 18.9861L3.92191 18.5817C2.8477 16.8756 2.28321 14.9041 2.28321 12.882C2.28321 6.98023 7.08976 2.1779 13 2.1779C15.8603 2.1779 18.548 3.29423 20.57 5.31627C22.592 7.34251 23.7041 10.0301 23.7041 12.8905C23.7041 18.7965 18.8976 23.5988 12.9958 23.5988ZM18.8681 15.5781C18.548 15.418 16.964 14.6387 16.6692 14.5334C16.3743 14.4238 16.1594 14.3733 15.9446 14.6935C15.7297 15.0178 15.1147 15.7424 14.9251 15.9572C14.7398 16.1679 14.5502 16.1973 14.2301 16.0373C13.9057 15.8772 12.8694 15.536 11.6393 14.4365C10.6831 13.5855 10.0343 12.5282 9.849 12.208C9.65943 11.8837 9.82793 11.711 9.98801 11.5509C10.1355 11.4076 10.3124 11.176 10.4725 10.9864C10.6325 10.801 10.6873 10.6662 10.7968 10.4514C10.9021 10.2366 10.8474 10.047 10.7673 9.88691C10.6873 9.72683 10.0428 8.13869 9.77317 7.49417C9.51199 6.86649 9.2466 6.95496 9.04861 6.94232C8.86325 6.9339 8.64841 6.9339 8.43357 6.9339C8.21873 6.9339 7.86909 7.01393 7.57421 7.3383C7.27933 7.65846 6.44945 8.43778 6.44945 10.0217C6.44945 11.6056 7.60369 13.139 7.76377 13.3539C7.92385 13.5645 10.0343 16.8166 13.2654 18.211C14.0321 18.5437 14.6303 18.7417 15.0979 18.8892C15.8688 19.1335 16.5723 19.0998 17.1283 19.0198C17.7476 18.9271 19.0324 18.2404 19.302 17.4864C19.5674 16.7366 19.5674 16.092 19.4874 15.9572C19.4073 15.8224 19.1925 15.7424 18.8681 15.5781Z" fill="#1C1636"/>
</svg>
