<svg width="54" height="68" viewBox="0 0 54 68" fill="none" xmlns="http://www.w3.org/2000/svg">
<path d="M51.9981 56.933C52.6393 56.933 53.1589 56.4879 53.1589 55.9385V44.8566C53.1589 39.003 47.308 36.8751 47.059 36.7875C47.0395 36.7806 33.2511 32.2062 33.2314 32.1997V29.4312C35.4236 27.9699 36.9439 25.8048 37.3267 23.3348C40.0179 23.1704 41.9675 21.2989 41.9675 19.1207C41.9675 18.2564 41.6569 17.4154 41.0858 16.7143V9.13908C41.0858 8.45387 40.614 7.86266 39.9352 7.58702C39.9351 2.98412 35.8918 0.115723 31.5678 0.115723C30.4035 0.115723 22.3227 0.115723 21.3433 0.115723C17.0337 0.115723 12.9759 2.96834 12.9759 7.58688C12.2971 7.86253 11.8252 8.45361 11.8252 9.13895V16.8042C11.2472 17.4931 10.9436 18.2865 10.9436 19.1207C10.9436 20.3479 11.5651 21.5095 12.6488 22.3078C13.4766 22.9176 14.49 23.2676 15.5825 23.3344C15.8843 25.3021 16.908 27.1268 18.5439 28.5662C18.9675 28.9389 19.4261 29.2752 19.9121 29.5777V32.1997L6.12167 36.7798C6.1144 36.7823 6.10713 36.7847 6.09985 36.7874C5.85082 36.875 0 39.0029 0 44.8565C0 45.9657 0 64.3086 0 65.4697C0 66.8649 1.32515 68.0001 2.95381 68.0001C3.4384 68.0001 23.8481 68.0001 24.3305 68.0001C24.9718 68.0001 25.4913 67.555 25.4913 67.0057C25.4913 66.4564 24.9718 66.0113 24.3305 66.0113H15.9908V61.753C15.9908 60.2512 15.2006 58.8576 13.8223 57.9295L11.4788 56.351V51.532L18.2072 48.5081C18.2397 48.4935 18.2765 48.4857 18.3136 48.4857H22.8896C23.7337 49.4968 25.5074 50.3766 26.2686 50.4435C26.5797 50.4709 26.8973 50.4298 27.1882 50.3203C28.2473 49.9216 29.3431 49.2986 30.0216 48.4857H34.7737C34.8576 48.4857 34.9413 48.5033 35.0156 48.5369L41.6804 51.532V56.3509L39.3369 57.9292C37.9588 58.8573 37.1684 60.2511 37.1684 61.7529V66.0112H29.7475C29.1063 66.0112 28.5867 66.4563 28.5867 67.0056C28.5867 67.5549 29.1063 68 29.7475 68C30.2758 68 49.8283 68 50.2052 68C51.8339 68 53.1589 66.8647 53.1589 65.4696V60.5791C53.1589 60.0298 52.6393 59.5847 51.9981 59.5847C51.3569 59.5847 50.8373 60.0298 50.8373 60.5791V65.4696C50.8373 65.7682 50.5538 66.0111 50.2054 66.0111H44.0021C44.0021 64.9211 44.0021 53.8811 44.0021 51.9047H50.8375V55.9383C50.8371 56.4879 51.3569 56.933 51.9981 56.933ZM11.4788 58.8813C12.4446 59.5317 13.6689 60.1762 13.6689 61.7532V66.0115H11.4788V58.8813ZM39.6456 19.1493C39.6297 20.2175 38.7334 21.1384 37.4242 21.3235V19.7646L37.9479 19.1664C38.0033 19.1733 38.1231 19.1824 38.209 19.1824H39.2715C39.4016 19.1824 39.5477 19.1672 39.6456 19.1493ZM31.1888 2.10466C35.018 2.10466 37.6136 4.37151 37.6136 7.42062H31.1888V2.10466ZM24.0442 2.10466H28.8669V7.42062H24.0442V2.10466ZM21.7225 2.10466V7.42062H15.2975C15.2978 4.35361 17.9066 2.10466 21.7225 2.10466ZM13.2655 19.1493C13.4066 19.1746 13.5354 19.1824 13.6391 19.1824H14.7017C14.7867 19.1824 14.905 19.1736 14.9628 19.1665C15.1323 19.3601 15.0275 19.2404 15.4866 19.7646V21.3235C14.9905 21.2535 14.5377 21.0764 14.1625 20.8C13.6007 20.3861 13.2751 19.7858 13.2655 19.1493ZM14.1941 15.2404V17.1934H14.147V17.1471V9.40956C14.5193 9.40956 38.3751 9.40956 38.764 9.40956V17.0503V17.1934H38.7172V15.2182C38.7172 14.1454 37.6983 13.2725 36.4457 13.2725H16.491C15.2246 13.2728 14.1941 14.1554 14.1941 15.2404ZM16.5158 17.6252V15.2617H36.3956V17.6251C35.2463 18.9379 35.3778 18.7876 35.2274 18.9596H17.684C17.4347 18.6745 17.8668 19.1681 16.5158 17.6252ZM17.8086 22.1084V20.9482H35.1026C35.1026 22.0308 35.5104 25.6848 31.4189 28.1068C25.7052 31.3954 17.8086 28.0411 17.8086 22.1084ZM30.9099 30.6162V32.5288L26.5719 37.1161L22.2338 32.5288V30.678C24.919 31.6018 28.1198 31.6605 30.9099 30.6162ZM2.96232 66.0115C2.60898 66.0115 2.32142 65.7686 2.32142 65.47V51.9051H9.15705C9.15721 53.6648 9.15721 64.715 9.15721 66.0115H2.96232ZM26.4555 48.4201C25.6599 48.0912 24.5048 47.4247 24.5048 46.6669C24.5048 46.1373 24.5998 45.9286 24.7099 45.6869C24.9162 45.2337 25.0649 44.8025 24.9264 44.0001C25.3172 43.865 25.8561 43.7312 26.4555 43.7312C27.055 43.7312 27.5937 43.8652 27.9845 44C27.846 44.8023 27.9947 45.2336 28.2012 45.6869C28.3113 45.9285 28.4063 46.1372 28.4063 46.6669C28.4064 47.4233 27.2557 48.0886 26.4555 48.4201ZM41.6804 66.0115H39.4902V61.7532C39.4902 60.1709 40.7298 59.5215 41.6804 58.8813V66.0115ZM44.0021 49.9162V46.6626C44.0021 46.1133 43.4826 45.6682 42.8414 45.6682C42.2001 45.6682 41.6806 46.1133 41.6806 46.6626V49.2861L36.0947 46.7757C35.6889 46.5933 35.2323 46.4967 34.774 46.4967H30.7257C30.7012 45.7037 30.5081 45.2791 30.3646 44.9636C30.2426 44.6961 30.1815 44.5619 30.3875 43.8425C30.3875 43.8425 30.3875 43.8423 30.3875 43.8422C30.5347 43.3278 30.2767 42.8006 29.7455 42.53C29.2795 42.2931 28.0263 41.7419 26.456 41.7419C24.886 41.7419 23.6327 42.2931 23.1663 42.5301C22.6342 42.8007 22.3765 43.3284 22.5245 43.8423C22.7305 44.5615 22.6694 44.6959 22.5474 44.9635C22.4038 45.2788 22.2106 45.7033 22.1863 46.4965H18.3138C17.9023 46.4965 17.4923 46.5831 17.1284 46.7467L11.4791 49.2857V46.6622C11.4791 46.1129 10.9595 45.6678 10.3183 45.6678C9.67708 45.6678 9.15752 46.1129 9.15752 46.6622V49.9156H2.32142V44.8562C2.32142 40.4044 6.70671 38.7275 6.97539 38.6291L20.7035 34.0701L25.6698 39.3215C25.8351 39.4963 26.0629 39.6161 26.3141 39.6651C26.3978 39.6814 26.4842 39.6898 26.5718 39.6898C26.922 39.6898 27.2532 39.5545 27.4736 39.3214L32.4401 34.07L46.1818 38.6289C46.482 38.7393 50.8372 40.4199 50.8372 44.8565V49.9159H44.0021V49.9162Z" fill="#67718F" fill-opacity="0.3"/>
</svg>
