<svg width="37" height="38" viewBox="0 0 37 38" fill="none" xmlns="http://www.w3.org/2000/svg">
<path fill-rule="evenodd" clip-rule="evenodd" d="M18.2844 27.3222C14.6317 27.2713 11.7474 24.2891 11.7625 20.6614L24.9701 20.836C24.9627 22.1179 24.5553 23.3604 23.9124 24.3421C22.7194 26.1343 20.6303 27.3299 18.2844 27.3222ZM12.2986 18.6906C11.6668 18.0156 11.6671 16.9516 12.3421 16.3197C13.0171 15.6879 14.0811 15.6882 14.7129 16.3631C15.3447 17.0381 15.3445 18.1022 14.6695 18.734C13.9945 19.3659 12.9304 19.3656 12.2986 18.6906ZM22.1504 16.4257C22.8254 15.7938 23.8895 15.7941 24.5213 16.4691C25.1531 17.1441 25.1529 18.2081 24.4779 18.8399C23.8029 19.4718 22.7388 19.4715 22.107 18.7965C21.4752 18.1215 21.5004 17.0932 22.1504 16.4257ZM30.2154 20.7302L30.2915 16.0492C30.328 12.8321 28.3434 10.0715 25.5015 8.97467C25.0912 7.39994 23.2848 6.11051 20.9141 5.53507C20.8891 5.49936 20.9248 5.47437 20.8998 5.43866C20.9073 4.15682 19.9042 3.10325 18.5974 3.06009C17.3155 3.05264 16.2263 4.0807 16.2188 5.36254C16.2438 5.39826 16.2081 5.42322 16.2331 5.45893C13.8621 5.94752 12.0408 7.22179 11.5798 8.76774C10.0086 9.33508 8.7015 10.3559 7.80137 11.7304C7.06555 12.8835 6.63675 14.2474 6.59712 15.7113L6.52098 20.3924C6.42655 26.948 11.674 32.3194 18.2046 32.3781C24.7852 32.5083 30.1566 27.2608 30.2154 20.7302Z" fill="#F64056"/>
<path fill-rule="evenodd" clip-rule="evenodd" d="M10.5985 5.99673L13.9908 4.68716C12.8627 3.98704 11.9346 3.0406 11.2922 1.89428L9.88094 5.27529C9.30614 4.98594 8.5456 5.03931 8.04916 5.54621C7.55273 6.05312 7.42401 6.78148 7.72737 7.36714L4.33499 8.67671C5.46313 9.37682 6.39124 10.3233 7.03366 11.4696L8.44489 8.08856C9.01968 8.37792 9.78023 8.32456 10.2767 7.81765C10.7981 7.34646 10.8661 6.60737 10.5985 5.99673Z" fill="#F64056"/>
<path fill-rule="evenodd" clip-rule="evenodd" d="M26.5519 6.21842C26.2626 6.79321 26.316 7.55379 26.8229 8.05022C27.3298 8.54666 28.0581 8.67538 28.6438 8.37202L29.9534 11.7644C30.6535 10.6363 31.5999 9.70813 32.7462 9.0657L29.3652 7.6545C29.6546 7.07971 29.6012 6.31916 29.0943 5.82272C28.5874 5.32628 27.859 5.19756 27.2734 5.50092L25.9638 2.10853C25.2637 3.23666 24.3173 4.16479 23.1709 4.80722L26.5519 6.21842Z" fill="#F64056"/>
</svg>
