<svg width="23" height="23" viewBox="0 0 23 23" fill="none" xmlns="http://www.w3.org/2000/svg">
<path d="M22.5418 11.7621C22.5428 10.9784 22.4766 10.1961 22.3438 9.42383H11.499V13.8528H17.7104C17.5833 14.5601 17.3143 15.2344 16.9196 15.835C16.5248 16.4356 16.0126 16.9501 15.4137 17.3474V20.2223H19.1207C21.2913 18.221 22.5418 15.2615 22.5418 11.7621Z" fill="#4285F4"/>
<path d="M11.4992 22.9999C14.6025 22.9999 17.2155 21.9809 19.1209 20.224L15.4139 17.3491C14.3821 18.0487 13.0532 18.448 11.4992 18.448C8.49971 18.448 5.95382 16.4259 5.04344 13.7012H1.22461V16.6639C2.18174 18.5685 3.64939 20.1696 5.46372 21.2884C7.27804 22.4073 9.36763 22.9998 11.4992 22.9999Z" fill="#34A853"/>
<path d="M5.04333 13.7015C4.56205 12.2737 4.56205 10.7275 5.04333 9.29966V6.33691H1.2245C0.419333 7.93912 0 9.70742 0 11.5006C0 13.2937 0.419333 15.062 1.2245 16.6642L5.04333 13.7015Z" fill="#FBBC04"/>
<path d="M11.4992 4.55268C13.1391 4.52589 14.7238 5.14551 15.9106 6.27763L19.1928 2.99545C17.1115 1.04063 14.3543 -0.0325929 11.4992 0.000754482C9.36763 0.00085163 7.27804 0.593391 5.46372 1.71222C3.64939 2.83105 2.18174 4.43213 1.22461 6.33672L5.04344 9.29947C5.95382 6.5747 8.49971 4.55268 11.4992 4.55268Z" fill="#EA4335"/>
</svg>
