<svg width="20" height="20" viewBox="0 0 20 20" fill="none" xmlns="http://www.w3.org/2000/svg">
<path d="M3.37501 14.688C3.19434 14.688 3.03801 14.622 2.90601 14.49C2.77401 14.358 2.70801 14.2017 2.70801 14.021C2.70801 13.8543 2.77401 13.7013 2.90601 13.562C3.03801 13.4233 3.19434 13.354 3.37501 13.354H16.625C16.8057 13.354 16.962 13.4233 17.094 13.562C17.226 13.7013 17.292 13.8543 17.292 14.021C17.292 14.2017 17.226 14.358 17.094 14.49C16.962 14.622 16.8057 14.688 16.625 14.688H3.37501ZM3.37501 10.667C3.19434 10.667 3.03801 10.601 2.90601 10.469C2.77401 10.337 2.70801 10.1807 2.70801 10C2.70801 9.81935 2.77401 9.66301 2.90601 9.53101C3.03801 9.39901 3.19434 9.33301 3.37501 9.33301H16.625C16.8057 9.33301 16.962 9.39901 17.094 9.53101C17.226 9.66301 17.292 9.81935 17.292 10C17.292 10.1807 17.226 10.337 17.094 10.469C16.962 10.601 16.8057 10.667 16.625 10.667H3.37501ZM3.37501 6.64601C3.19434 6.64601 3.03801 6.57668 2.90601 6.43801C2.77401 6.29868 2.70801 6.14568 2.70801 5.97901C2.70801 5.79835 2.77401 5.64201 2.90601 5.51001C3.03801 5.37801 3.19434 5.31201 3.37501 5.31201H16.625C16.8057 5.31201 16.962 5.37801 17.094 5.51001C17.226 5.64201 17.292 5.79835 17.292 5.97901C17.292 6.14568 17.226 6.29868 17.094 6.43801C16.962 6.57668 16.8057 6.64601 16.625 6.64601H3.37501Z" fill="white"/>
</svg>
