<svg width="20" height="20" viewBox="0 0 20 20" fill="none" xmlns="http://www.w3.org/2000/svg">
<path d="M3.37501 14.6885C3.19434 14.6885 3.03801 14.6225 2.90601 14.4905C2.77401 14.3585 2.70801 14.2022 2.70801 14.0215C2.70801 13.8548 2.77401 13.7018 2.90601 13.5625C3.03801 13.4238 3.19434 13.3545 3.37501 13.3545H16.625C16.8057 13.3545 16.962 13.4238 17.094 13.5625C17.226 13.7018 17.292 13.8548 17.292 14.0215C17.292 14.2022 17.226 14.3585 17.094 14.4905C16.962 14.6225 16.8057 14.6885 16.625 14.6885H3.37501ZM3.37501 10.6675C3.19434 10.6675 3.03801 10.6015 2.90601 10.4695C2.77401 10.3375 2.70801 10.1812 2.70801 10.0005C2.70801 9.81983 2.77401 9.6635 2.90601 9.5315C3.03801 9.3995 3.19434 9.3335 3.37501 9.3335H16.625C16.8057 9.3335 16.962 9.3995 17.094 9.5315C17.226 9.6635 17.292 9.81983 17.292 10.0005C17.292 10.1812 17.226 10.3375 17.094 10.4695C16.962 10.6015 16.8057 10.6675 16.625 10.6675H3.37501ZM3.37501 6.6465C3.19434 6.6465 3.03801 6.57717 2.90601 6.4385C2.77401 6.29917 2.70801 6.14617 2.70801 5.9795C2.70801 5.79883 2.77401 5.6425 2.90601 5.5105C3.03801 5.3785 3.19434 5.3125 3.37501 5.3125H16.625C16.8057 5.3125 16.962 5.3785 17.094 5.5105C17.226 5.6425 17.292 5.79883 17.292 5.9795C17.292 6.14617 17.226 6.29917 17.094 6.4385C16.962 6.57717 16.8057 6.6465 16.625 6.6465H3.37501Z" fill="black"/>
</svg>
