<svg width="22" height="22" viewBox="0 0 22 22" fill="none" xmlns="http://www.w3.org/2000/svg">
<path d="M5.15625 8.72266H3.45817C3.74503 4.8125 7.01791 1.71875 11 1.71875C14.1511 1.71875 17.0024 3.70348 18.0952 6.65754C18.2599 7.10265 18.7542 7.33 19.1994 7.16538C19.6445 7.00068 19.8719 6.50637 19.7072 6.06121C19.0559 4.30053 17.8988 2.79387 16.3611 1.7041C14.788 0.589273 12.9342 0 11 0C8.52092 0 6.19016 0.965422 4.43717 2.71842C2.70703 4.44855 1.74475 6.74154 1.71991 9.18444C0.692871 9.77956 0 10.8901 0 12.1602V15.082C0 16.9775 1.54206 18.5195 3.4375 18.5195H5.15625C5.63088 18.5195 6.01562 18.1348 6.01562 17.6602V9.58203C6.01562 9.1074 5.63088 8.72266 5.15625 8.72266ZM4.29688 16.8008H3.4375C2.48978 16.8008 1.71875 16.0298 1.71875 15.082V12.1602C1.71875 11.2124 2.48978 10.4414 3.4375 10.4414H4.29688V16.8008Z" fill="black"/>
<path d="M18.5625 8.72266H16.8438C16.3691 8.72266 15.9844 9.1074 15.9844 9.58203V18.5625C15.9844 19.0364 15.5989 19.4219 15.125 19.4219H12.5039V19.4491C12.2108 18.9205 11.6473 18.5625 11 18.5625C10.0508 18.5625 9.28125 19.332 9.28125 20.2812C9.28125 21.2305 10.0508 22 11 22C11.6473 22 12.2108 21.642 12.5039 21.1134V21.1406H15.125C16.5466 21.1406 17.7031 19.9841 17.7031 18.5625V18.5195H18.5625C20.4579 18.5195 22 16.9775 22 15.082V12.1602C22 10.2647 20.4579 8.72266 18.5625 8.72266ZM20.2812 15.082C20.2812 16.0298 19.5102 16.8008 18.5625 16.8008H17.7031V10.4414H18.5625C19.5102 10.4414 20.2812 11.2124 20.2812 12.1602V15.082Z" fill="black"/>
</svg>
