<svg width="27" height="27" viewBox="0 0 27 27" fill="none" xmlns="http://www.w3.org/2000/svg">
<g clip-path="url(#clip0)">
<path fill-rule="evenodd" clip-rule="evenodd" d="M16.2728 3.0344C17.129 2.67966 18.0466 2.49707 18.9733 2.49707C19.9001 2.49707 20.8177 2.67966 21.6739 3.0344C22.5299 3.38909 23.3076 3.90891 23.9627 4.5642C24.618 5.21927 25.1381 5.99737 25.4928 6.85336C25.8476 7.7095 26.0302 8.62716 26.0302 9.55389C26.0302 10.4806 25.8476 11.3983 25.4928 12.2544C25.1381 13.1105 24.6182 13.8883 23.9629 14.5434C23.9628 14.5435 23.9629 14.5434 23.9629 14.5434L14.3683 24.138C13.9444 24.5619 13.2572 24.5619 12.8333 24.138L3.23875 14.5434C1.91545 13.2201 1.17203 11.4253 1.17203 9.55389C1.17203 7.68246 1.91545 5.88768 3.23875 4.56438C4.56206 3.24107 6.35684 2.49765 8.22827 2.49765C10.0997 2.49765 11.8945 3.24107 13.2178 4.56438L13.6008 4.94739L13.9836 4.56456C13.9837 4.5645 13.9836 4.56462 13.9836 4.56456C14.6387 3.90919 15.4167 3.38912 16.2728 3.0344ZM18.9733 4.66779C18.3318 4.66779 17.6965 4.7942 17.1037 5.03979C16.511 5.28539 15.9725 5.64535 15.5189 6.09913L14.3683 7.24979C13.9444 7.67365 13.2572 7.67365 12.8333 7.24979L11.6829 6.09931C10.7666 5.18309 9.52399 4.66837 8.22827 4.66837C6.93255 4.66837 5.6899 5.18309 4.77368 6.09931C3.85747 7.01552 3.34275 8.25817 3.34275 9.55389C3.34275 10.8496 3.85747 12.0923 4.77368 13.0085L13.6008 21.8356L22.4279 13.0085C22.8817 12.5549 23.2418 12.0162 23.4874 11.4235C23.733 10.8308 23.8594 10.1955 23.8594 9.55389C23.8594 8.91231 23.733 8.27701 23.4874 7.68429C23.2418 7.09157 22.8819 6.55305 22.4281 6.09949C21.9745 5.64571 21.4357 5.28539 20.8429 5.03979C20.2502 4.7942 19.6149 4.66779 18.9733 4.66779Z" fill="white"/>
</g>
<defs>
<clipPath id="clip0">
<rect width="26.0486" height="26.0486" fill="white" transform="translate(0.0866699 0.326416)"/>
</clipPath>
</defs>
</svg>
