<svg width="29" height="26" viewBox="0 0 29 26" fill="none" xmlns="http://www.w3.org/2000/svg">
<path fill-rule="evenodd" clip-rule="evenodd" d="M17.2953 0.854547C18.2741 0.44898 19.3233 0.240234 20.3827 0.240234C21.4422 0.240234 22.4914 0.44898 23.4702 0.854547C24.4488 1.26004 25.3379 1.85434 26.0868 2.60349C26.836 3.35241 27.4307 4.24198 27.8362 5.2206C28.2418 6.19939 28.4505 7.24851 28.4505 8.30801C28.4505 9.36751 28.2418 10.4166 27.8362 11.3954C27.4307 12.3741 26.8363 13.2634 26.0871 14.0123L15.118 24.9814C14.6334 25.466 13.8477 25.466 13.3631 24.9814L2.39405 14.0123C0.881175 12.4994 0.03125 10.4475 0.03125 8.30801C0.03125 6.16848 0.881175 4.11658 2.39405 2.6037C3.90693 1.09082 5.95883 0.240898 8.09836 0.240898C10.2379 0.240898 12.2898 1.09082 13.8027 2.6037L14.2406 3.04159L14.6782 2.60391C15.4272 1.85465 16.3166 1.26008 17.2953 0.854547Z" fill="#FF461E"/>
</svg>
