<svg width="15" height="15" viewBox="0 0 15 15" fill="none" xmlns="http://www.w3.org/2000/svg">
<g clip-path="url(#clip0)">
<path fill-rule="evenodd" clip-rule="evenodd" d="M6.96934 1.38875C7.17999 1.22491 7.47496 1.22491 7.68561 1.38875L12.9356 5.47208C13.0777 5.5826 13.1608 5.75252 13.1608 5.93254V12.3492C13.1608 12.8133 12.9764 13.2585 12.6482 13.5866C12.3201 13.9148 11.8749 14.0992 11.4108 14.0992H3.24414C2.78001 14.0992 2.33489 13.9148 2.0067 13.5866C1.67852 13.2584 1.49414 12.8133 1.49414 12.3492V5.93254C1.49414 5.75252 1.57725 5.5826 1.71934 5.47208L6.96934 1.38875ZM2.66081 6.21783V12.3492C2.66081 12.5039 2.72227 12.6523 2.83166 12.7617C2.94106 12.8711 3.08943 12.9325 3.24414 12.9325H11.4108C11.5655 12.9325 11.7139 12.8711 11.8233 12.7617C11.9327 12.6523 11.9941 12.5039 11.9941 12.3492V6.21783L7.32747 2.5882L2.66081 6.21783Z" fill="#9D99B2"/>
<path fill-rule="evenodd" clip-rule="evenodd" d="M4.99414 7.68254C4.99414 7.36037 5.25531 7.0992 5.57747 7.0992H9.07747C9.39964 7.0992 9.66081 7.36037 9.66081 7.68254V13.5159C9.66081 13.838 9.39964 14.0992 9.07747 14.0992C8.75531 14.0992 8.49414 13.838 8.49414 13.5159V8.26587H6.16081V13.5159C6.16081 13.838 5.89964 14.0992 5.57747 14.0992C5.25531 14.0992 4.99414 13.838 4.99414 13.5159V7.68254Z" fill="#9D99B2"/>
</g>
<defs>
<clipPath id="clip0">
<rect width="14" height="14" fill="white" transform="translate(0.328125 0.682617)"/>
</clipPath>
</defs>
</svg>
