<svg width="21" height="24" viewBox="0 0 21 24" fill="none" xmlns="http://www.w3.org/2000/svg">
<path d="M20.7314 9.38557L10.7841 0.21887C10.46 -0.0792083 9.96151 -0.0719426 9.64649 0.235277L0.251746 9.40193C0.0909251 9.55887 0 9.77473 0 9.99996V23.1667C0 23.6269 0.371067 24 0.828957 24H7.73684C8.19468 24 8.56579 23.6269 8.56579 23.1667V17.0556H12.4342V23.1667C12.4342 23.6269 12.8053 24 13.2632 24H20.171C20.6289 24 21 23.6272 21 23.1667V10C21 9.76639 20.9027 9.54364 20.7314 9.38557ZM19.3421 22.3334H14.0921V16.2223C14.0921 15.762 13.721 15.3889 13.2632 15.3889H7.73688C7.27904 15.3889 6.90793 15.762 6.90793 16.2223V22.3334H1.65791V10.3525L10.24 1.97889L19.3421 10.3667V22.3334H19.3421Z" fill="white"/>
</svg>
