<svg width="66" height="53" fill="none" xmlns="http://www.w3.org/2000/svg"><path d="M60.034.674H13.733a5.176 5.176 0 00-3.361 1.254A5.464 5.464 0 008.56 5.103a5.227 5.227 0 00-2.755 1.499A5.49 5.49 0 004.352 9.44a5.24 5.24 0 00-3.082 1.866 5.53 5.53 0 00-1.217 3.463v32.525a5.512 5.512 0 001.543 3.831 5.19 5.19 0 003.718 1.59h46.301a5.176 5.176 0 003.361-1.254 5.465 5.465 0 001.81-3.175 5.227 5.227 0 002.756-1.498 5.49 5.49 0 001.454-2.84 5.24 5.24 0 003.082-1.865 5.53 5.53 0 001.217-3.462V6.094a5.511 5.511 0 00-1.543-3.831 5.19 5.19 0 00-3.718-1.59zM2.157 14.768a3.304 3.304 0 01.926-2.298 3.114 3.114 0 012.231-.954h46.301c.837 0 1.64.344 2.231.954.592.61.925 1.436.926 2.298v1.085H2.157v-1.085zm52.615 32.526c0 .862-.334 1.689-.926 2.299a3.114 3.114 0 01-2.23.953H5.313c-.837 0-1.64-.343-2.231-.953a3.307 3.307 0 01-.926-2.299V18.021h52.615v29.273zm4.21-4.337a3.333 3.333 0 01-.581 1.877c-.377.55-.91.964-1.524 1.19V14.767a5.511 5.511 0 00-1.543-3.83 5.19 5.19 0 00-3.719-1.59H6.547a3.25 3.25 0 011.155-1.57 3.099 3.099 0 011.821-.599h46.301c.837.001 1.64.344 2.232.954.592.61.924 1.436.925 2.299v32.525zm4.209-4.337a3.33 3.33 0 01-.58 1.877c-.378.55-.91.965-1.525 1.19V10.432A5.511 5.511 0 0059.543 6.6a5.19 5.19 0 00-3.719-1.59H10.757a3.25 3.25 0 011.154-1.57 3.099 3.099 0 011.822-.598h46.3c.838.001 1.64.344 2.232.954.592.61.925 1.437.925 2.299V38.62z" fill="url(#paint0_linear)"/><path d="M5.314 14.768c.581 0 1.052-.485 1.052-1.084 0-.598-.47-1.084-1.052-1.084-.581 0-1.052.486-1.052 1.084 0 .6.47 1.085 1.052 1.085z" fill="url(#paint1_linear)"/><path d="M9.523 14.768c.581 0 1.052-.485 1.052-1.084 0-.598-.47-1.084-1.052-1.084-.581 0-1.052.486-1.052 1.084 0 .6.47 1.085 1.052 1.085z" fill="url(#paint2_linear)"/><path d="M13.732 14.768c.581 0 1.052-.485 1.052-1.084 0-.598-.47-1.084-1.052-1.084-.581 0-1.052.486-1.052 1.084 0 .6.47 1.085 1.052 1.085z" fill="url(#paint3_linear)"/><path fill-rule="evenodd" clip-rule="evenodd" d="M15.838 24.274a3 3 0 013-3h19.255a3 3 0 013 3v13.515a3 3 0 01-3 3H18.838a3 3 0 01-3-3V24.274zm10.01 8.788a1.028 1.028 0 001.065-.023l5.13-3.253c.153-.097.279-.233.367-.394a1.11 1.11 0 000-1.058 1.071 1.071 0 00-.367-.395l-5.13-3.252a1.03 1.03 0 00-1.065-.023c-.164.094-.3.231-.395.397a1.11 1.11 0 00-.144.55v6.504c0 .193.05.383.144.549.095.166.231.304.395.398zm7.57.455c.327.336.688.767 1.156.767h1.258c.279 0 .546.114.744.317a1.105 1.105 0 010 1.534 1.037 1.037 0 01-.745.317h-1.257c-.468 0-.83.431-1.155.767a1.037 1.037 0 01-.744.317c-.28 0-.547-.114-.744-.317-.326-.336-.688-.767-1.156-.767H21.1c-.279 0-.546-.114-.744-.317a1.1 1.1 0 01-.308-.767c0-.288.11-.563.308-.767.198-.203.465-.317.744-.317h9.676c.468 0 .83-.431 1.155-.767a1.04 1.04 0 01.745-.317c.279 0 .546.114.744.317z" fill="url(#paint4_linear)"/><path d="M16.89 44.041h23.15c.28 0 .547-.114.745-.317.197-.203.308-.48.308-.767 0-.287-.11-.563-.308-.766a1.037 1.037 0 00-.744-.318H16.89c-.28 0-.548.114-.745.318a1.101 1.101 0 00-.308.766c0 .288.11.563.308.767.197.203.465.317.744.317z" fill="url(#paint5_linear)"/><path d="M16.89 47.294h14.732c.28 0 .547-.114.744-.318a1.1 1.1 0 00.309-.766c0-.288-.111-.564-.309-.767a1.037 1.037 0 00-.744-.317H16.89c-.279 0-.547.114-.744.317-.197.203-.308.48-.308.767 0 .287.11.563.308.766.197.204.465.318.744.318z" fill="url(#paint6_linear)"/><path d="M35.831 45.126H34.78c-.28 0-.547.114-.744.317a1.1 1.1 0 00-.308.767c0 .287.11.563.308.766.197.204.465.318.744.318h1.052c.28 0 .547-.114.744-.318a1.1 1.1 0 00.308-.766c0-.288-.11-.564-.308-.767a1.037 1.037 0 00-.744-.317z" fill="url(#paint7_linear)"/><defs><linearGradient id="paint0_linear" x1="65.295" y1="26.695" x2=".053" y2="26.695" gradientUnits="userSpaceOnUse"><stop stop-color="#4CBA85"/><stop offset="1" stop-color="#2569AC"/></linearGradient><linearGradient id="paint1_linear" x1="6.366" y1="13.684" x2="4.262" y2="13.684" gradientUnits="userSpaceOnUse"><stop stop-color="#4CBA85"/><stop offset="1" stop-color="#2569AC"/></linearGradient><linearGradient id="paint2_linear" x1="10.575" y1="13.684" x2="8.471" y2="13.684" gradientUnits="userSpaceOnUse"><stop stop-color="#4CBA85"/><stop offset="1" stop-color="#2569AC"/></linearGradient><linearGradient id="paint3_linear" x1="14.784" y1="13.684" x2="12.68" y2="13.684" gradientUnits="userSpaceOnUse"><stop stop-color="#4CBA85"/><stop offset="1" stop-color="#2569AC"/></linearGradient><linearGradient id="paint4_linear" x1="41.093" y1="31.031" x2="15.838" y2="31.031" gradientUnits="userSpaceOnUse"><stop stop-color="#4CBA85"/><stop offset="1" stop-color="#2569AC"/></linearGradient><linearGradient id="paint5_linear" x1="41.093" y1="42.957" x2="15.838" y2="42.957" gradientUnits="userSpaceOnUse"><stop stop-color="#4CBA85"/><stop offset="1" stop-color="#2569AC"/></linearGradient><linearGradient id="paint6_linear" x1="32.675" y1="46.21" x2="15.838" y2="46.21" gradientUnits="userSpaceOnUse"><stop stop-color="#4CBA85"/><stop offset="1" stop-color="#2569AC"/></linearGradient><linearGradient id="paint7_linear" x1="36.883" y1="46.21" x2="33.727" y2="46.21" gradientUnits="userSpaceOnUse"><stop stop-color="#4CBA85"/><stop offset="1" stop-color="#2569AC"/></linearGradient></defs></svg>