<svg width="31" height="30" viewBox="0 0 31 30" fill="none" xmlns="http://www.w3.org/2000/svg">
<path fill-rule="evenodd" clip-rule="evenodd" d="M5.72412 0C2.9627 0 0.724121 2.23858 0.724121 5V25C0.724121 27.7614 2.9627 30 5.72412 30H25.7241C28.4855 30 30.7241 27.7614 30.7241 25V5C30.7241 2.23858 28.4855 0 25.7241 0H5.72412ZM24.5909 7.50058C25.6649 7.50058 26.5355 6.62994 26.5355 5.55595C26.5355 4.48196 25.6649 3.61133 24.5909 3.61133C23.5169 3.61133 22.6463 4.48196 22.6463 5.55595C22.6463 6.62994 23.5169 7.50058 24.5909 7.50058ZM15.7241 7.50018C13.735 7.50018 11.8273 8.29036 10.4208 9.69688C9.0143 11.1034 8.22412 13.0111 8.22412 15.0002C8.22412 16.9893 9.0143 18.897 10.4208 20.3035C11.8273 21.71 13.735 22.5002 15.7241 22.5002C17.7132 22.5002 19.6209 21.71 21.0274 20.3035C22.4339 18.897 23.2241 16.9893 23.2241 15.0002C23.2241 13.0111 22.4339 11.1034 21.0274 9.69688C19.6209 8.29036 17.7132 7.50018 15.7241 7.50018ZM15.7241 19.871C14.4319 19.871 13.1926 19.3576 12.2788 18.4439C11.3651 17.5301 10.8517 16.2908 10.8517 14.9986C10.8517 13.7063 11.3651 12.467 12.2788 11.5533C13.1926 10.6395 14.4319 10.1262 15.7241 10.1262C17.0164 10.1262 18.2557 10.6395 19.1694 11.5533C20.0832 12.467 20.5965 13.7063 20.5965 14.9986C20.5965 16.2908 20.0832 17.5301 19.1694 18.4439C18.2557 19.3576 17.0164 19.871 15.7241 19.871Z" fill="#292930"/>
</svg>
