<svg width="19" height="19" viewBox="0 0 19 19" fill="none" xmlns="http://www.w3.org/2000/svg">
<path d="M9.14286 0C11.627 0 11.9369 0.0091428 12.9115 0.0548571C13.8853 0.100571 14.5481 0.253257 15.1314 0.48C15.7349 0.712229 16.2432 1.02674 16.7515 1.53417C17.2165 1.99122 17.5762 2.54408 17.8057 3.15429C18.0315 3.73669 18.1851 4.40046 18.2309 5.37417C18.2738 6.3488 18.2857 6.65874 18.2857 9.14286C18.2857 11.627 18.2766 11.9369 18.2309 12.9115C18.1851 13.8853 18.0315 14.5481 17.8057 15.1314C17.5768 15.742 17.217 16.295 16.7515 16.7515C16.2944 17.2163 15.7415 17.576 15.1314 17.8057C14.549 18.0315 13.8853 18.1851 12.9115 18.2309C11.9369 18.2738 11.627 18.2857 9.14286 18.2857C6.65874 18.2857 6.3488 18.2766 5.37417 18.2309C4.40046 18.1851 3.7376 18.0315 3.15429 17.8057C2.54384 17.5767 1.99088 17.2169 1.53417 16.7515C1.06917 16.2946 0.709423 15.7417 0.48 15.1314C0.253257 14.549 0.100571 13.8853 0.0548571 12.9115C0.0118857 11.9369 0 11.627 0 9.14286C0 6.65874 0.0091428 6.3488 0.0548571 5.37417C0.100571 4.39954 0.253257 3.7376 0.48 3.15429C0.708787 2.54371 1.06862 1.99069 1.53417 1.53417C1.99101 1.06901 2.54393 0.709238 3.15429 0.48C3.7376 0.253257 4.39954 0.100571 5.37417 0.0548571C6.3488 0.0118857 6.65874 0 9.14286 0ZM9.14286 4.57143C7.93044 4.57143 6.76768 5.05306 5.91037 5.91037C5.05306 6.76768 4.57143 7.93044 4.57143 9.14286C4.57143 10.3553 5.05306 11.518 5.91037 12.3753C6.76768 13.2327 7.93044 13.7143 9.14286 13.7143C10.3553 13.7143 11.518 13.2327 12.3753 12.3753C13.2327 11.518 13.7143 10.3553 13.7143 9.14286C13.7143 7.93044 13.2327 6.76768 12.3753 5.91037C11.518 5.05306 10.3553 4.57143 9.14286 4.57143V4.57143ZM15.0857 4.34286C15.0857 4.03975 14.9653 3.74906 14.751 3.53473C14.5367 3.32041 14.246 3.2 13.9429 3.2C13.6398 3.2 13.3491 3.32041 13.1347 3.53473C12.9204 3.74906 12.8 4.03975 12.8 4.34286C12.8 4.64596 12.9204 4.93665 13.1347 5.15098C13.3491 5.36531 13.6398 5.48571 13.9429 5.48571C14.246 5.48571 14.5367 5.36531 14.751 5.15098C14.9653 4.93665 15.0857 4.64596 15.0857 4.34286ZM9.14286 6.4C9.87031 6.4 10.568 6.68898 11.0823 7.20336C11.5967 7.71775 11.8857 8.41541 11.8857 9.14286C11.8857 9.87031 11.5967 10.568 11.0823 11.0823C10.568 11.5967 9.87031 11.8857 9.14286 11.8857C8.41541 11.8857 7.71775 11.5967 7.20336 11.0823C6.68898 10.568 6.4 9.87031 6.4 9.14286C6.4 8.41541 6.68898 7.71775 7.20336 7.20336C7.71775 6.68898 8.41541 6.4 9.14286 6.4V6.4Z" fill="white"/>
</svg>
