<svg width="30" height="30" viewBox="0 0 30 30" fill="none" xmlns="http://www.w3.org/2000/svg">
<circle cx="15" cy="15" r="15" fill="#1C1636"/>
<path d="M11.8421 7C9.17532 7 7 9.17532 7 11.8421V18.1579C7 20.8243 9.17525 23 11.8421 23H18.1579C20.8244 23 23 20.8244 23 18.1579V11.8421C23 9.17525 20.8243 7 18.1579 7H11.8421ZM11.8421 8.26316H18.1579C20.1416 8.26316 21.7368 9.85802 21.7368 11.8421V18.1579C21.7368 20.1415 20.1415 21.7368 18.1579 21.7368H11.8421C9.85802 21.7368 8.26316 20.1416 8.26316 18.1579V11.8421C8.26316 9.85794 9.85794 8.26316 11.8421 8.26316ZM19.2105 9.94737C18.7453 9.94737 18.3684 10.3242 18.3684 10.7895C18.3684 11.2547 18.7453 11.6316 19.2105 11.6316C19.6758 11.6316 20.0526 11.2547 20.0526 10.7895C20.0526 10.3242 19.6758 9.94737 19.2105 9.94737ZM15 10.7895C12.6822 10.7895 10.7895 12.6822 10.7895 15C10.7895 17.3178 12.6822 19.2105 15 19.2105C17.3178 19.2105 19.2105 17.3178 19.2105 15C19.2105 12.6822 17.3178 10.7895 15 10.7895ZM15 12.0526C16.635 12.0526 17.9474 13.365 17.9474 15C17.9474 16.635 16.635 17.9474 15 17.9474C13.365 17.9474 12.0526 16.635 12.0526 15C12.0526 13.365 13.365 12.0526 15 12.0526Z" fill="white"/>
</svg>
