<svg width="102" height="103" viewBox="0 0 102 103" fill="none" xmlns="http://www.w3.org/2000/svg">
<path fill-rule="evenodd" clip-rule="evenodd" d="M53.921 102.533C51.99 102.533 50.059 102.533 48.128 102.533C47.946 102.485 47.766 102.413 47.58 102.392C45.989 102.207 44.389 102.085 42.807 101.845C37.713 101.074 32.853 99.515 28.279 97.163C16.419 91.065 8.06701 81.783 3.32101 69.306C1.73201 65.13 0.767994 60.799 0.399994 56.341C0.324994 55.432 0.212004 54.527 0.117004 53.619C0.117004 52.374 0.117004 51.131 0.117004 49.886C0.167004 49.617 0.237008 49.351 0.264008 49.08C0.401008 47.654 0.487001 46.223 0.664001 44.802C1.315 39.601 2.79799 34.63 5.08499 29.925C10.496 18.793 18.827 10.592 30.075 5.41104C35.828 2.76104 41.889 1.29303 48.227 0.996033C48.539 0.982033 48.847 0.896018 49.158 0.843018C50.402 0.843018 51.646 0.843018 52.89 0.843018C53.157 0.894018 53.422 0.963026 53.692 0.995026C56.025 1.27303 58.385 1.40202 60.686 1.84302C68.82 3.40302 76.131 6.80502 82.612 11.969C88.517 16.675 93.162 22.415 96.522 29.176C99.26 34.687 100.956 40.507 101.526 46.646C101.594 47.385 101.711 48.119 101.803 48.855C101.803 50.786 101.803 52.716 101.803 54.647C101.751 54.85 101.679 55.049 101.65 55.255C101.297 57.729 101.117 60.24 100.575 62.671C98.013 74.189 92.101 83.695 82.972 91.146C75.119 97.555 66.106 101.259 55.999 102.258C55.305 102.329 54.613 102.441 53.921 102.533ZM51.006 6.20203C26.063 6.09803 5.79699 26.453 5.45499 51.031C5.10399 76.185 25.285 96.903 50.288 97.244C75.96 97.594 96.24 76.991 96.517 52.299C96.81 26.339 75.65 6.08003 51.006 6.20203Z" fill="white"/>
<path fill-rule="evenodd" clip-rule="evenodd" d="M35.638 82.627C34.817 82.492 33.979 82.4199 33.177 82.2139C26.821 80.5749 22.857 76.5439 21.297 70.1789C21.067 69.2369 20.947 68.242 20.945 67.272C20.922 57.342 20.861 47.4119 20.963 37.4819C21.018 32.1659 23.41 27.939 27.746 24.863C30.433 22.959 33.468 22.083 36.758 22.084C46.43 22.085 56.102 22 65.772 22.114C72.407 22.193 77.195 25.423 80.092 31.377C81.093 33.433 81.48 35.66 81.478 37.954C81.47 47.64 81.498 57.325 81.463 67.009C81.448 71.113 79.993 74.69 77.176 77.687C74.579 80.448 71.368 82.0149 67.626 82.5239C67.343 82.5619 67.058 82.5929 66.773 82.6279C56.396 82.6269 46.017 82.627 35.638 82.627ZM26.121 52.401C26.119 52.401 26.118 52.401 26.118 52.401C26.117 56.869 26.105 61.3379 26.126 65.8049C26.131 66.8529 26.137 67.9199 26.329 68.9429C27.261 73.9119 31.614 77.4829 36.662 77.4899C41.518 77.4949 46.375 77.502 51.23 77.502C55.985 77.502 60.741 77.479 65.496 77.497C67.956 77.506 70.189 76.847 72.14 75.346C74.589 73.459 76.066 70.972 76.268 67.875C76.415 65.594 76.335 63.296 76.344 61.006C76.352 58.86 76.341 56.712 76.342 54.566C76.343 52.404 76.348 50.243 76.35 48.082C76.351 45.892 76.369 43.7009 76.343 41.5119C76.322 39.7279 76.401 37.925 76.169 36.165C75.51 31.155 70.964 27.273 65.928 27.273C56.214 27.273 46.5 27.28 36.787 27.272C34.993 27.271 33.29 27.629 31.731 28.509C28.192 30.505 26.218 33.5379 26.142 37.6149C26.05 42.5419 26.121 47.472 26.121 52.401Z" fill="white"/>
<path fill-rule="evenodd" clip-rule="evenodd" d="M51.229 67.441C42.914 67.437 36.153 60.683 36.161 52.39C36.169 44.086 42.936 37.3069 51.217 37.3099C59.54 37.3119 66.305 44.076 66.31 52.398C66.313 60.6869 59.539 67.444 51.229 67.441ZM61.693 52.4049C61.752 46.7539 57.126 42.0119 51.429 41.9119C45.563 41.8089 40.793 46.5479 40.762 52.3179C40.729 58.2649 45.663 62.9779 51.47 62.8529C57.039 62.7329 61.73 58.0909 61.693 52.4049Z" fill="white"/>
<path fill-rule="evenodd" clip-rule="evenodd" d="M64.49 35.557C64.511 33.673 66.041 32.147 67.906 32.146C69.882 32.146 71.44 33.696 71.42 35.641C71.399 37.584 69.822 39.136 67.908 39.097C65.952 39.057 64.467 37.519 64.49 35.557Z" fill="white"/>
</svg>
