<svg width="15" height="16" viewBox="0 0 15 16" fill="none" xmlns="http://www.w3.org/2000/svg">
<g clip-path="url(#clip0)">
<path d="M7.80657 5.14113C6.21499 5.14113 4.92028 6.43584 4.92028 8.02742C4.92028 9.619 6.21499 10.9137 7.80657 10.9137C9.39815 10.9137 10.6929 9.619 10.6929 8.02742C10.6929 6.43584 9.39815 5.14113 7.80657 5.14113ZM7.80657 5.14113C6.21499 5.14113 4.92028 6.43584 4.92028 8.02742C4.92028 9.619 6.21499 10.9137 7.80657 10.9137C9.39815 10.9137 10.6929 9.619 10.6929 8.02742C10.6929 6.43584 9.39815 5.14113 7.80657 5.14113ZM12.782 0.962891H2.83116C1.69314 0.962891 0.769531 1.8865 0.769531 3.02452V12.9753C0.769531 14.1134 1.69314 15.037 2.83116 15.037H12.782C13.92 15.037 14.8436 14.1134 14.8436 12.9753V3.02452C14.8436 1.8865 13.92 0.962891 12.782 0.962891ZM7.80657 11.7384C5.76146 11.7384 4.09563 10.0725 4.09563 8.02742C4.09563 5.98225 5.76146 4.31648 7.80657 4.31648C9.85168 4.31648 11.5175 5.98225 11.5175 8.02742C11.5175 10.0725 9.85168 11.7384 7.80657 11.7384ZM12.3422 4.31648C11.8886 4.31648 11.5175 3.94538 11.5175 3.49183C11.5175 3.03827 11.8886 2.66717 12.3422 2.66717C12.7957 2.66717 13.1668 3.03827 13.1668 3.49183C13.1668 3.94538 12.7957 4.31648 12.3422 4.31648ZM7.80657 5.14113C6.21499 5.14113 4.92028 6.43584 4.92028 8.02742C4.92028 9.619 6.21499 10.9137 7.80657 10.9137C9.39815 10.9137 10.6929 9.619 10.6929 8.02742C10.6929 6.43584 9.39815 5.14113 7.80657 5.14113ZM7.80657 5.14113C6.21499 5.14113 4.92028 6.43584 4.92028 8.02742C4.92028 9.619 6.21499 10.9137 7.80657 10.9137C9.39815 10.9137 10.6929 9.619 10.6929 8.02742C10.6929 6.43584 9.39815 5.14113 7.80657 5.14113ZM7.80657 5.14113C6.21499 5.14113 4.92028 6.43584 4.92028 8.02742C4.92028 9.619 6.21499 10.9137 7.80657 10.9137C9.39815 10.9137 10.6929 9.619 10.6929 8.02742C10.6929 6.43584 9.39815 5.14113 7.80657 5.14113Z" fill="white"/>
</g>
<defs>
<clipPath id="clip0">
<rect width="14.0741" height="14.0741" fill="white" transform="translate(0.769531 0.962891)"/>
</clipPath>
</defs>
</svg>
