<svg width="16" height="18" viewBox="0 0 16 18" fill="none" xmlns="http://www.w3.org/2000/svg">
<g clip-path="url(#clip0)">
<path d="M2.05368 0.743164H13.9465C15.0759 0.743164 16 1.63161 16 2.925V15.5613C16 16.8547 15.0759 17.7432 13.9465 17.7432H2.05368C0.923917 17.7432 0 16.8547 0 15.5613V2.925C0 1.63161 0.923917 0.743164 2.05368 0.743164ZM11.6554 2.63194C11.2592 2.63194 10.9354 2.97614 10.9354 3.39733V5.2292C10.9354 5.6502 11.2592 5.99458 11.6554 5.99458H13.4638C13.8601 5.99458 14.1842 5.6502 14.1842 5.2292V3.39733C14.1842 2.97614 13.8601 2.63194 13.4638 2.63194H11.6554ZM14.1918 7.9324H12.7835C12.9168 8.3946 12.9889 8.88421 12.9889 9.39074C12.9889 12.2184 10.7619 14.5106 8.01528 14.5106C5.26883 14.5106 3.04216 12.2184 3.04216 9.39074C3.04216 8.88386 3.11411 8.39443 3.24751 7.9324H1.77802V15.1134C1.77802 15.4851 2.06419 15.7893 2.41411 15.7893H13.556C13.9059 15.7893 14.1921 15.4852 14.1921 15.1134V7.9324H14.1918ZM8.01511 5.89806C6.24055 5.89806 4.80177 7.37909 4.80177 9.20625C4.80177 11.0334 6.24055 12.5144 8.01511 12.5144C9.78984 12.5144 11.2288 11.0334 11.2288 9.20625C11.2288 7.37909 9.79001 5.89806 8.01511 5.89806Z" fill="#D52F9C"/>
</g>
<defs>
<clipPath id="clip0">
<rect width="16" height="17" fill="white" transform="translate(0 0.743164)"/>
</clipPath>
</defs>
</svg>
