<svg width="21" height="21" viewBox="0 0 21 21" fill="none" xmlns="http://www.w3.org/2000/svg">
<path fill-rule="evenodd" clip-rule="evenodd" d="M5.81104 0.151367C3.04961 0.151367 0.811035 2.38994 0.811035 5.15137V15.1514C0.811035 17.9128 3.04961 20.1514 5.81104 20.1514H15.811C18.5725 20.1514 20.811 17.9128 20.811 15.1514V5.15137C20.811 2.38994 18.5725 0.151367 15.811 0.151367H5.81104ZM16.722 5.15175C17.438 5.15175 18.0185 4.57133 18.0185 3.85534C18.0185 3.13934 17.438 2.55892 16.722 2.55892C16.006 2.55892 15.4256 3.13934 15.4256 3.85534C15.4256 4.57133 16.006 5.15175 16.722 5.15175ZM10.811 5.15137C9.48495 5.15137 8.21318 5.67815 7.2755 6.61583C6.33782 7.55352 5.81104 8.82528 5.81104 10.1514C5.81104 11.4775 6.33782 12.7492 7.2755 13.6869C8.21318 14.6246 9.48495 15.1514 10.811 15.1514C12.1371 15.1514 13.4089 14.6246 14.3466 13.6869C15.2843 12.7492 15.811 11.4775 15.811 10.1514C15.811 8.82528 15.2843 7.55352 14.3466 6.61583C13.4089 5.67815 12.1371 5.15137 10.811 5.15137ZM10.811 13.3986C9.94954 13.3986 9.12333 13.0563 8.51416 12.4472C7.90499 11.838 7.56277 11.0118 7.56277 10.1503C7.56277 9.28879 7.90499 8.46258 8.51416 7.85341C9.12333 7.24424 9.94954 6.90202 10.811 6.90202C11.6725 6.90202 12.4987 7.24424 13.1079 7.85341C13.7171 8.46258 14.0593 9.28879 14.0593 10.1503C14.0593 11.0118 13.7171 11.838 13.1079 12.4472C12.4987 13.0563 11.6725 13.3986 10.811 13.3986Z" fill="white"/>
</svg>
