<svg width="31" height="30" viewBox="0 0 31 30" fill="none" xmlns="http://www.w3.org/2000/svg">
<rect x="0.794922" width="30" height="30" rx="5" fill="#2D64BC"/>
<path fill-rule="evenodd" clip-rule="evenodd" d="M12.9004 8.717C12.9004 9.71434 12.0933 10.5229 11.0977 10.5229C10.102 10.5229 9.29492 9.71434 9.29492 8.717C9.29492 7.71964 10.102 6.91113 11.0977 6.91113C12.0933 6.91113 12.9004 7.71964 12.9004 8.717ZM14.9035 21.911C14.7378 21.911 14.6035 21.7767 14.6035 21.611V12.1921C14.6035 12.0265 14.7378 11.8921 14.9035 11.8921H17.2845C17.4502 11.8921 17.5845 12.0265 17.5845 12.1921V13.236C17.5845 13.2505 17.5962 13.2622 17.6107 13.2622C17.6204 13.2622 17.6293 13.2569 17.6339 13.2484C18.0528 12.4659 19.0632 11.6445 20.5663 11.6445C23.7153 11.6445 24.2953 13.7186 24.2953 16.4175V21.6119C24.2953 21.7775 24.161 21.9119 23.9953 21.9119H21.4883C21.3226 21.9119 21.1883 21.7775 21.1883 21.6119V17.039C21.1883 15.8777 21.1686 14.383 19.5726 14.383C17.9544 14.383 17.7089 15.6491 17.7089 16.9565V21.611C17.7089 21.7767 17.5746 21.911 17.4089 21.911H14.9035ZM12.6533 12.1921C12.6533 12.0265 12.519 11.8921 12.3533 11.8921H9.84297C9.67728 11.8921 9.54297 12.0265 9.54297 12.1921V21.611C9.54297 21.7767 9.67728 21.911 9.84297 21.911H12.3533C12.519 21.911 12.6533 21.7767 12.6533 21.611V12.1921Z" fill="white"/>
</svg>
