<svg width="50" height="51" viewBox="0 0 50 51" fill="none" xmlns="http://www.w3.org/2000/svg">
<rect y="0.498047" width="50" height="50" rx="25" fill="white"/>
<path d="M18.0507 18.1163C19.5111 18.1163 20.6951 16.9303 20.6951 15.4673C20.6951 14.0043 19.5111 12.8184 18.0507 12.8184C16.5902 12.8184 15.4062 14.0043 15.4062 15.4673C15.4062 16.9303 16.5902 18.1163 18.0507 18.1163Z" fill="#101010"/>
<path d="M23.1898 20.123V34.8195H27.745V27.5517C27.745 25.634 28.1052 23.7768 30.4789 23.7768C32.8199 23.7768 32.8489 25.9694 32.8489 27.6728V34.8207H37.4066V26.7612C37.4066 22.8022 36.5557 19.7598 31.9364 19.7598C29.7187 19.7598 28.2321 20.9789 27.6242 22.1327H27.5625V20.123H23.1898ZM15.7666 20.123H20.3291V34.8195H15.7666V20.123Z" fill="#101010"/>
</svg>
