<svg width="18" height="18" viewBox="0 0 18 18" fill="none" xmlns="http://www.w3.org/2000/svg">
<g clip-path="url(#clip0)">
<path fill-rule="evenodd" clip-rule="evenodd" d="M8.61361 1.60539C7.11071 1.60539 5.66937 2.20241 4.60667 3.26512C3.54396 4.32782 2.94694 5.76916 2.94694 7.27205C2.94694 9.46651 4.37475 11.5959 5.94032 13.2484C6.70862 14.0594 7.47933 14.7233 8.05875 15.1847C8.2744 15.3565 8.46275 15.4995 8.61361 15.611C8.76446 15.4995 8.95282 15.3565 9.16846 15.1847C9.74788 14.7233 10.5186 14.0594 11.2869 13.2484C12.8525 11.5959 14.2803 9.46651 14.2803 7.27205C14.2803 5.76916 13.6833 4.32782 12.6205 3.26512C11.5578 2.20241 10.1165 1.60539 8.61361 1.60539ZM8.61361 16.4804C8.22069 17.0698 8.22052 17.0696 8.22031 17.0695L8.21829 17.0681L8.21357 17.065L8.19733 17.054C8.18354 17.0446 8.16387 17.0312 8.13871 17.0138C8.0884 16.9789 8.0161 16.9281 7.92496 16.8623C7.74274 16.7307 7.48478 16.5386 7.17627 16.293C6.56038 15.8025 5.73734 15.0941 4.91189 14.2227C3.28996 12.5107 1.53027 10.0359 1.53027 7.27205C1.53027 5.39344 2.27655 3.59176 3.60493 2.26338C4.93332 0.934998 6.73499 0.188721 8.61361 0.188721C10.4922 0.188721 12.2939 0.934998 13.6223 2.26338C14.9507 3.59176 15.6969 5.39344 15.6969 7.27205C15.6969 10.0359 13.9373 12.5107 12.3153 14.2227C11.4899 15.0941 10.6668 15.8025 10.0509 16.293C9.74244 16.5386 9.48447 16.7307 9.30226 16.8623C9.21111 16.9281 9.13882 16.9789 9.0885 17.0138C9.06334 17.0312 9.04367 17.0446 9.02988 17.054L9.01365 17.065L9.00893 17.0681L9.00743 17.0691C9.00723 17.0693 9.00652 17.0698 8.61361 16.4804ZM8.61361 16.4804L9.00652 17.0698C8.76859 17.2284 8.45824 17.2281 8.22031 17.0695L8.61361 16.4804Z" fill="#0A003C"/>
<path fill-rule="evenodd" clip-rule="evenodd" d="M8.61361 5.85539C7.8312 5.85539 7.19694 6.48965 7.19694 7.27205C7.19694 8.05446 7.8312 8.68872 8.61361 8.68872C9.39601 8.68872 10.0303 8.05446 10.0303 7.27205C10.0303 6.48965 9.39601 5.85539 8.61361 5.85539ZM5.78027 7.27205C5.78027 5.70725 7.0488 4.43872 8.61361 4.43872C10.1784 4.43872 11.4469 5.70725 11.4469 7.27205C11.4469 8.83686 10.1784 10.1054 8.61361 10.1054C7.0488 10.1054 5.78027 8.83686 5.78027 7.27205Z" fill="#0A003C"/>
</g>
<defs>
<clipPath id="clip0">
<rect width="17" height="17" fill="white" transform="translate(0.113281 0.188721)"/>
</clipPath>
</defs>
</svg>
