<svg width="33" height="40" viewBox="0 0 33 40" fill="none" xmlns="http://www.w3.org/2000/svg">
<path d="M31.5945 13.6435C31.4165 13.7549 27.1798 16.1062 27.1798 21.3196C27.3795 27.2652 32.5263 29.3503 32.6146 29.3503C32.5263 29.4617 31.8376 32.1907 29.7973 35.0514C28.1782 37.5156 26.381 40 23.6521 40C21.0562 40 20.1244 38.3577 17.1291 38.3577C13.9125 38.3577 13.0024 40 10.5396 40C7.81065 40 5.8804 37.3824 4.17297 34.9414C1.95477 31.7465 0.0693709 26.7327 0.00281031 21.9187C-0.0420457 19.3677 0.447029 16.8601 1.68853 14.7301C3.44081 11.7566 6.56915 9.7381 9.98545 9.67154C12.603 9.58327 14.9326 11.4687 16.5301 11.4687C18.061 11.4687 20.9231 9.67154 24.1614 9.67154C25.5592 9.67299 29.2866 10.0941 31.5945 13.6435ZM16.3087 9.16221C15.8428 6.83259 17.1291 4.50297 18.3272 3.01693C19.8581 1.21979 22.276 0 24.3611 0C24.4942 2.32962 23.6506 4.61438 22.1429 6.2784C20.79 8.07553 18.4603 9.42845 16.3087 9.16221Z" fill="#1C1636"/>
</svg>
