<svg width="36" height="36" viewBox="0 0 36 36" fill="none" xmlns="http://www.w3.org/2000/svg">
<path d="M29.562 6.43799C27.5358 4.41183 24.8419 3.2959 21.9764 3.2959C19.1109 3.2959 16.4167 4.41183 14.3906 6.43799C12.3644 8.46414 11.2484 11.1583 11.2484 14.0238C11.2484 16.8893 12.3644 19.5831 14.3906 21.6093C16.4167 23.6354 19.1109 24.7514 21.9764 24.7514C24.8419 24.7514 27.5358 23.6354 29.562 21.6093C31.5881 19.5831 32.7041 16.889 32.7041 14.0238C32.7043 11.1583 31.5884 8.46414 29.562 6.43799ZM19.1034 22.1539L19.1021 19.1827C19.1021 19.064 19.1696 18.9803 19.21 18.9407C19.2531 18.8987 19.3454 18.8278 19.48 18.8278C20.3103 18.8278 21.1491 18.8273 21.9882 18.8267C22.8267 18.8262 23.6653 18.8256 24.495 18.8256C24.6219 18.8256 24.7068 18.8915 24.7461 18.9308C24.7851 18.9698 24.8507 19.0544 24.8507 19.1808L24.8491 22.1539C23.9386 22.4747 22.9704 22.6423 21.9764 22.6423C20.9824 22.6423 20.0139 22.4747 19.1034 22.1539ZM28.0708 20.1179C27.7234 20.4653 27.3512 20.7793 26.9587 21.0586L26.9596 19.1819C26.9601 18.5243 26.7033 17.9055 26.2369 17.4391C25.7711 16.9733 25.1523 16.7165 24.495 16.7165C23.6647 16.7165 22.8259 16.7171 21.9868 16.7176C21.1483 16.7182 20.3098 16.7187 19.4797 16.7187C18.8255 16.7187 18.2056 16.9725 17.7345 17.4334C17.2561 17.9019 16.9927 18.5235 16.993 19.1838L16.9941 21.0583C16.6016 20.7793 16.2294 20.4653 15.882 20.1179C14.254 18.49 13.3576 16.3257 13.3576 14.0235C13.3576 11.7213 14.254 9.55701 15.882 7.92911C17.5099 6.30121 19.6742 5.40472 21.9764 5.40472C24.2786 5.40472 26.4429 6.30121 28.0708 7.92911C29.6987 9.55701 30.5952 11.7213 30.5952 14.0235C30.5952 16.3257 29.6985 18.4903 28.0708 20.1179Z" fill="black"/>
<path d="M31.8927 4.10751C29.2439 1.45871 25.7222 0 21.9764 0C18.2306 0 14.7089 1.45871 12.0601 4.10751C9.41123 6.75604 7.95251 10.2777 7.95251 14.0238C7.95251 16.0104 8.36286 17.9341 9.14372 19.6979L1.47932 27.362C0.525425 28.3162 0 29.5873 0 30.9413C0 32.2957 0.525425 33.5668 1.47932 34.5207C2.43322 35.4746 3.70434 36 5.05869 36C6.41277 36 7.6839 35.4746 8.63779 34.5207L16.308 26.8506C18.1081 27.6435 20.0422 28.041 21.9764 28.041C25.5676 28.041 29.1588 26.674 31.8927 23.94C34.5413 21.2912 36 17.7696 36 14.0238C36 10.2777 34.5413 6.75604 31.8927 4.10751ZM7.14639 33.0293C6.59102 33.5849 5.84944 33.8909 5.05869 33.8909C4.26767 33.8909 3.52636 33.5849 2.97073 33.0293C2.41509 32.4737 2.10912 31.7321 2.10912 30.9413C2.10912 30.1506 2.41509 29.409 2.97073 28.8534L10.1918 21.6324C10.7258 22.4558 11.3495 23.2295 12.0601 23.94C12.7761 24.6561 13.5515 25.2776 14.37 25.8061L7.14639 33.0293ZM30.4013 22.4486C25.7557 27.0942 18.1968 27.0942 13.5512 22.4486C11.3009 20.1984 10.0616 17.2062 10.0616 14.0238C10.0616 10.841 11.3009 7.84918 13.5512 5.59891C15.8018 3.34836 18.7939 2.1091 21.9764 2.1091C25.1589 2.1091 28.151 3.34836 30.4013 5.59891C32.6516 7.84918 33.8912 10.841 33.8912 14.0238C33.8912 17.2062 32.6516 20.1984 30.4013 22.4486Z" fill="black"/>
<path d="M21.9775 8.67645C19.9703 8.67645 18.3374 10.3093 18.3374 12.3162C18.3374 14.3232 19.9703 15.956 21.9775 15.956C23.9844 15.956 25.617 14.3232 25.617 12.3162C25.6173 10.3093 23.9844 8.67645 21.9775 8.67645ZM21.9775 13.8469C21.1332 13.8469 20.4465 13.1602 20.4465 12.3162C20.4465 11.4722 21.1332 10.7856 21.9775 10.7856C22.8212 10.7856 23.5079 11.4722 23.5079 12.3162C23.5082 13.1602 22.8215 13.8469 21.9775 13.8469Z" fill="black"/>
</svg>
