<svg width="65" height="14" viewBox="0 0 65 14" fill="none" xmlns="http://www.w3.org/2000/svg">
<path opacity="0.7" d="M0.706346 2.06137C0.672447 1.89919 0.77644 1.74024 0.938621 1.70634L3.58151 1.15393C3.74369 1.12003 3.90264 1.22402 3.93654 1.3862C3.97044 1.54838 3.86644 1.70734 3.70426 1.74124L1.35503 2.23227L1.84607 4.5815C1.87996 4.74368 1.77597 4.90263 1.61379 4.93653C1.45161 4.97043 1.29266 4.86644 1.25876 4.70426L0.706346 2.06137ZM64 2C64.1642 2.25105 64.1642 2.25105 64.1642 2.25106C64.1642 2.25106 64.1642 2.25107 64.1642 2.25107C64.1642 2.25109 64.1642 2.2511 64.1641 2.25112C64.1641 2.25115 64.164 2.2512 64.1639 2.25126C64.1637 2.25139 64.1635 2.25156 64.1631 2.25178C64.1624 2.25222 64.1615 2.25286 64.1602 2.2537C64.1576 2.25536 64.1539 2.25781 64.1489 2.26103C64.139 2.26746 64.1243 2.27697 64.105 2.28943C64.0663 2.31436 64.0089 2.35113 63.9336 2.39889C63.7829 2.49441 63.5605 2.63387 63.2722 2.81035L62.9589 2.29863C63.2444 2.12387 63.4642 1.98608 63.6123 1.89216C63.6864 1.84521 63.7425 1.80922 63.78 1.78506C63.7987 1.77298 63.8128 1.76386 63.8222 1.75781C63.8268 1.75478 63.8303 1.75252 63.8326 1.75104C63.8337 1.7503 63.8345 1.74976 63.8351 1.74941C63.8353 1.74923 63.8355 1.74911 63.8356 1.74903C63.8357 1.74899 63.8357 1.74897 63.8358 1.74896C63.8358 1.74895 63.8358 1.74895 63.8358 1.74895C63.8358 1.74895 63.8358 1.74895 63.8358 1.74895C63.8358 1.74895 63.8358 1.74895 64 2ZM61.4464 3.89099C60.9001 4.20449 60.2808 4.55179 59.5972 4.92275L59.311 4.3954C59.9901 4.02685 60.6053 3.68188 61.1477 3.37059L61.4464 3.89099ZM57.726 5.91073C57.126 6.21883 56.4929 6.53571 55.8305 6.85687L55.5687 6.31698C56.2268 5.99794 56.8558 5.68311 57.4519 5.37699L57.726 5.91073ZM53.9121 7.7592C53.2864 8.04442 52.6408 8.32972 51.9781 8.61205L51.743 8.06006C52.4008 7.77979 53.0418 7.49651 53.6632 7.21324L53.9121 7.7592ZM50.0178 9.41687C49.3696 9.67285 48.7085 9.92368 48.0367 10.1669L47.8324 9.6027C48.4986 9.36157 49.1543 9.11278 49.7975 8.8588L50.0178 9.41687ZM46.033 10.8574C45.3651 11.0757 44.689 11.2847 44.0068 11.4819L43.8401 10.9056C44.5154 10.7103 45.1848 10.5034 45.8466 10.2871L46.033 10.8574ZM41.9582 12.0328C41.2717 12.2031 40.581 12.3598 39.8878 12.5006L39.7684 11.9126C40.4527 11.7736 41.135 11.6188 41.8137 11.4505L41.9582 12.0328ZM37.7967 12.874C37.0935 12.9818 36.3897 13.0711 35.6873 13.1397L35.6291 12.5425C36.3199 12.4751 37.0128 12.3872 37.7058 12.281L37.7967 12.874ZM33.5639 13.2814C33.2083 13.2937 32.8536 13.3 32.5 13.3L32.5 12.7C32.8465 12.7 33.1943 12.6938 33.5431 12.6817L33.5639 13.2814ZM32.5 13.3C32.1464 13.3 31.7917 13.2937 31.4361 13.2814L31.4569 12.6817C31.8057 12.6938 32.1535 12.7 32.5 12.7L32.5 13.3ZM29.3127 13.1397C28.6103 13.0711 27.9065 12.9818 27.2033 12.874L27.2942 12.281C27.9872 12.3872 28.6801 12.4751 29.3709 12.5425L29.3127 13.1397ZM25.1122 12.5006C24.419 12.3598 23.7283 12.2031 23.0418 12.0328L23.1863 11.4505C23.865 11.6188 24.5473 11.7736 25.2316 11.9126L25.1122 12.5006ZM20.9932 11.4819C20.311 11.2847 19.6349 11.0757 18.967 10.8574L19.1534 10.2871C19.8152 10.5034 20.4846 10.7103 21.1599 10.9056L20.9932 11.4819ZM16.9633 10.1669C16.2915 9.92368 15.6304 9.67284 14.9822 9.41687L15.2025 8.8588C15.8457 9.11278 16.5014 9.36156 17.1676 9.60269L16.9633 10.1669ZM13.0219 8.61205C12.3592 8.32972 11.7136 8.04442 11.0879 7.7592L11.3368 7.21324C11.9582 7.4965 12.5992 7.77978 13.257 8.06006L13.0219 8.61205ZM9.16951 6.85687C8.50711 6.53571 7.87399 6.21882 7.27402 5.91072L7.54811 5.37699C8.14422 5.68311 8.77323 5.99793 9.43127 6.31698L9.16951 6.85687ZM5.40281 4.92275C4.71923 4.55179 4.09993 4.20449 3.55363 3.89099L3.85227 3.37059C4.39471 3.68187 5.00986 4.02685 5.68899 4.3954L5.40281 4.92275ZM1.72779 2.81035C1.4395 2.63386 1.21706 2.49441 1.06641 2.39889C0.991084 2.35113 0.933705 2.31435 0.895016 2.28942C0.875671 2.27696 0.860998 2.26746 0.851091 2.26102C0.846137 2.25781 0.842375 2.25536 0.839815 2.25369C0.838536 2.25286 0.837557 2.25222 0.83688 2.25177C0.836541 2.25155 0.836278 2.25138 0.836091 2.25126C0.835998 2.2512 0.835923 2.25115 0.835867 2.25111C0.835839 2.25109 0.835816 2.25108 0.835798 2.25107C0.835789 2.25106 0.835778 2.25105 0.835774 2.25105C0.835765 2.25105 0.835757 2.25104 1 1.99999C1.16424 1.74895 1.16424 1.74894 1.16423 1.74894C1.16423 1.74894 1.16423 1.74894 1.16423 1.74894C1.16423 1.74894 1.16424 1.74894 1.16425 1.74895C1.16427 1.74896 1.16431 1.74899 1.16436 1.74903C1.16448 1.7491 1.16467 1.74923 1.16494 1.7494C1.16547 1.74975 1.16631 1.7503 1.16744 1.75104C1.16971 1.75252 1.17319 1.75478 1.17785 1.7578C1.18717 1.76386 1.20125 1.77298 1.22 1.78506C1.25749 1.80921 1.31364 1.8452 1.3877 1.89216C1.53582 1.98608 1.75559 2.12386 2.04106 2.29862L1.72779 2.81035ZM0.412692 2.12275C0.344895 1.79839 0.552881 1.48048 0.877242 1.41269L6.16301 0.307863C6.48737 0.240065 6.80528 0.448051 6.87308 0.772412C6.94088 1.09677 6.73289 1.41468 6.40853 1.48248L1.71007 2.46454L2.69213 7.16301C2.75993 7.48737 2.55194 7.80527 2.22758 7.87307C1.90322 7.94087 1.58531 7.73288 1.51752 7.40852L0.412692 2.12275ZM64 2C64.3285 2.50209 64.3285 2.5021 64.3285 2.50211C64.3284 2.50212 64.3284 2.50213 64.3284 2.50214C64.3284 2.50215 64.3284 2.50218 64.3283 2.5022C64.3282 2.50225 64.3282 2.50231 64.328 2.50238C64.3278 2.50253 64.3275 2.50272 64.3271 2.50297C64.3264 2.50345 64.3253 2.50414 64.324 2.50502C64.3213 2.50678 64.3174 2.50933 64.3123 2.51264C64.3021 2.51926 64.2871 2.52896 64.2675 2.54161C64.2282 2.56693 64.1702 2.6041 64.0942 2.65226C63.9423 2.74858 63.7185 2.88887 63.4288 3.06622L62.8023 2.04276C63.0864 1.86887 63.3048 1.73192 63.4517 1.6388C63.5251 1.59224 63.5806 1.55665 63.6175 1.53288C63.636 1.52099 63.6497 1.51206 63.6588 1.5062C63.6633 1.50327 63.6666 1.5011 63.6687 1.49971C63.6698 1.49902 63.6706 1.49852 63.671 1.49822C63.6713 1.49807 63.6714 1.49797 63.6715 1.49792C63.6715 1.49789 63.6716 1.49788 63.6716 1.49787C63.6716 1.49787 63.6716 1.49788 63.6716 1.49788C63.6715 1.49788 63.6715 1.49789 63.6715 1.49789C63.6715 1.4979 63.6715 1.49791 64 2ZM61.5957 4.15119C61.0475 4.4658 60.4261 4.81426 59.7403 5.18643L59.1679 4.13172C59.8448 3.76438 60.4579 3.42057 60.9984 3.11039L61.5957 4.15119ZM57.863 6.1776C57.2611 6.48669 56.6259 6.8046 55.9614 7.12682L55.4379 6.04704C56.0937 5.72905 56.7207 5.41525 57.3148 5.11012L57.863 6.1776ZM54.0365 8.03218C53.4086 8.31838 52.7608 8.60469 52.0957 8.88805L51.6254 7.78407C52.2808 7.50482 52.9195 7.22255 53.5388 6.94026L54.0365 8.03218ZM50.128 9.6959C49.4772 9.95288 48.8134 10.2047 48.1388 10.449L47.7303 9.32061C48.3936 9.08051 49.0466 8.83275 49.6873 8.57977L50.128 9.6959ZM46.1262 11.1425C45.4552 11.3619 44.7758 11.5719 44.0901 11.7701L43.7568 10.6174C44.4286 10.4231 45.0947 10.2173 45.7533 10.0019L46.1262 11.1425ZM42.0304 12.324C41.34 12.4953 40.6451 12.6529 39.9476 12.7946L39.7087 11.6186C40.3885 11.4805 41.0667 11.3267 41.7415 11.1593L42.0304 12.324ZM37.8422 13.1706C37.1339 13.2791 36.4246 13.3691 35.7164 13.4382L35.5999 12.2439C36.285 12.1771 36.9724 12.0899 37.6604 11.9844L37.8422 13.1706ZM33.5743 13.5812C33.2154 13.5936 32.8572 13.6 32.5 13.6L32.5 12.4C32.8429 12.4 33.1872 12.3939 33.5327 12.3819L33.5743 13.5812ZM32.5 13.6C32.1428 13.6 31.7846 13.5936 31.4257 13.5812L31.4673 12.3819C31.8128 12.3939 32.1571 12.4 32.5 12.4L32.5 13.6ZM29.2836 13.4382C28.5753 13.3691 27.8661 13.2791 27.1578 13.1706L27.3396 11.9844C28.0276 12.0899 28.715 12.1771 29.4001 12.2439L29.2836 13.4382ZM25.0524 12.7946C24.3549 12.6529 23.66 12.4953 22.9696 12.324L23.2585 11.1593C23.9333 11.3267 24.6115 11.4805 25.2913 11.6186L25.0524 12.7946ZM20.9099 11.7701C20.2241 11.5719 19.5448 11.3619 18.8738 11.1425L19.2467 10.0019C19.9053 10.2173 20.5714 10.4231 21.2432 10.6174L20.9099 11.7701ZM16.8612 10.449C16.1866 10.2047 15.5228 9.95288 14.872 9.6959L15.3127 8.57977C15.9534 8.83275 16.6064 9.08051 17.2697 9.32061L16.8612 10.449ZM12.9043 8.88805C12.2392 8.60469 11.5914 8.31838 10.9635 8.03218L11.4612 6.94026C12.0805 7.22254 12.7192 7.50482 13.3746 7.78406L12.9043 8.88805ZM9.03863 7.12681C8.37405 6.8046 7.73887 6.48668 7.13698 6.17759L7.68516 5.11012C8.27933 5.41525 8.90629 5.72904 9.56215 6.04703L9.03863 7.12681ZM5.25972 5.18642C4.57392 4.81426 3.95254 4.46579 3.40431 4.15119L4.00158 3.11039C4.5421 3.42057 5.15517 3.76438 5.83208 4.13172L5.25972 5.18642ZM1.57116 3.06621C1.28146 2.88886 1.05768 2.74857 0.905766 2.65225C0.829808 2.60409 0.771813 2.56692 0.732525 2.54161C0.71288 2.52895 0.697912 2.51926 0.687713 2.51263C0.682613 2.50932 0.678706 2.50678 0.676002 2.50502C0.67465 2.50414 0.673599 2.50345 0.672851 2.50296C0.672476 2.50272 0.672178 2.50252 0.671955 2.50238C0.671844 2.5023 0.671751 2.50224 0.671677 2.50219C0.671641 2.50217 0.671609 2.50215 0.671581 2.50213C0.671568 2.50212 0.671551 2.50211 0.671544 2.50211C0.671528 2.5021 0.671514 2.50209 1 1.99999C1.32849 1.4979 1.32847 1.49789 1.32846 1.49789C1.32846 1.49789 1.32845 1.49788 1.32845 1.49788C1.32844 1.49787 1.32844 1.49787 1.32844 1.49787C1.32844 1.49787 1.32846 1.49788 1.3285 1.49791C1.32858 1.49796 1.32874 1.49807 1.32897 1.49822C1.32943 1.49852 1.33019 1.49902 1.33126 1.49971C1.33338 1.5011 1.33671 1.50326 1.34123 1.50619C1.35026 1.51206 1.36404 1.52099 1.38249 1.53287C1.41938 1.55664 1.47491 1.59224 1.54834 1.63879C1.6952 1.73191 1.91363 1.86886 2.19769 2.04276L1.57116 3.06621Z" fill="#F39C12"/>
</svg>
