<svg width="63" height="50" viewBox="0 0 63 50" fill="none" xmlns="http://www.w3.org/2000/svg">
<path d="M11.5839 48.8341V45.596C11.6028 45.3237 11.5637 45.0504 11.469 44.7944C11.3743 44.5385 11.2263 44.3057 11.0349 44.1116C10.8434 43.9176 10.6129 43.7667 10.3587 43.669C10.1045 43.5714 9.83252 43.5292 9.5608 43.5453C9.20519 43.5221 8.84986 43.5949 8.53188 43.7563C8.21389 43.9176 7.94488 44.1616 7.75289 44.4627C7.57791 44.1706 7.32764 43.9312 7.0284 43.7697C6.72917 43.6083 6.39206 43.5307 6.05259 43.5453C5.75667 43.5304 5.462 43.5932 5.19775 43.7277C4.9335 43.8621 4.70883 44.0634 4.54599 44.3116V43.6748H3.42676V48.8341H4.5567V45.9738C4.53227 45.7973 4.54712 45.6175 4.60017 45.4475C4.65322 45.2774 4.74317 45.1213 4.86354 44.9902C4.98392 44.8592 5.13174 44.7565 5.29638 44.6895C5.46103 44.6226 5.63842 44.5931 5.8158 44.603C6.55833 44.603 6.93504 45.0888 6.93504 45.963V48.8341H8.06498V45.9738C8.04238 45.7976 8.05851 45.6186 8.11224 45.4494C8.16597 45.2801 8.256 45.1247 8.37599 44.9941C8.49599 44.8635 8.64304 44.7607 8.80683 44.6932C8.97062 44.6256 9.14716 44.5949 9.32407 44.603C10.0881 44.603 10.454 45.0888 10.454 45.963V48.8341H11.5839ZM28.3071 43.6748H26.4777V42.1098H25.3478V43.6748H24.3039V44.7002H25.3478V47.0532C25.3478 48.2512 25.8105 48.9636 27.1341 48.9636C27.6286 48.9651 28.1135 48.8267 28.5331 48.5642L28.2103 47.6036C27.9102 47.7832 27.5695 47.8835 27.2202 47.8951C26.6606 47.8951 26.4777 47.5496 26.4777 47.0316V44.7002H28.3071V43.6748ZM37.8525 43.5453C37.5796 43.5372 37.3096 43.6031 37.071 43.7361C36.8324 43.8691 36.6339 44.0642 36.4966 44.3008V43.6748H35.3881V48.8341H36.5073V45.9414C36.5073 45.0888 36.8732 44.6138 37.6051 44.6138C37.8444 44.6105 38.0821 44.6546 38.3045 44.7434L38.6488 43.6856C38.3933 43.5939 38.124 43.5464 37.8525 43.5453ZM23.4215 44.0849C22.788 43.7071 22.0596 43.5198 21.323 43.5453C20.0209 43.5453 19.1815 44.1713 19.1815 45.1967C19.1815 46.0386 19.8056 46.5567 20.9571 46.7186L21.4844 46.7941C22.0978 46.8803 22.3884 47.0423 22.3884 47.3337C22.3884 47.7331 21.9794 47.9598 21.2154 47.9598C20.6008 47.9775 19.9981 47.7874 19.5043 47.4201L18.977 48.2944C19.6289 48.751 20.4098 48.9856 21.2046 48.9636C22.6897 48.9636 23.5505 48.262 23.5505 47.2798C23.5505 46.3731 22.8726 45.8982 21.7535 45.7363L21.2262 45.6607C20.7419 45.596 20.3545 45.499 20.3545 45.1536C20.3545 44.7758 20.7203 44.5491 21.3338 44.5491C21.897 44.5576 22.4489 44.7099 22.9372 44.9916L23.4215 44.0849ZM53.4027 43.5453C53.1298 43.5372 52.8598 43.6031 52.6212 43.7361C52.3826 43.8691 52.1841 44.0642 52.0468 44.3008V43.6748H50.9384V48.8341H52.0575V45.9414C52.0575 45.0888 52.4234 44.6138 53.1552 44.6138C53.3946 44.6105 53.6323 44.6545 53.8548 44.7434L54.1991 43.6856C53.9435 43.5939 53.6742 43.5464 53.4027 43.5453ZM38.9824 46.2543C38.9675 46.6178 39.0287 46.9804 39.1619 47.3187C39.2951 47.657 39.4975 47.9637 39.756 48.2189C40.0145 48.4741 40.3233 48.6722 40.6627 48.8004C41.0021 48.9287 41.3645 48.9843 41.7267 48.9636C42.3986 48.9975 43.0588 48.778 43.5775 48.3483L43.0395 47.4417C42.6526 47.7375 42.1808 47.9003 41.6943 47.9058C41.2749 47.8803 40.881 47.6952 40.5931 47.3883C40.3051 47.0814 40.1447 46.6758 40.1447 46.2544C40.1447 45.833 40.3051 45.4274 40.5931 45.1206C40.881 44.8137 41.2749 44.6286 41.6943 44.603C42.1808 44.6086 42.6526 44.7713 43.0395 45.0672L43.5775 44.1605C43.0588 43.7309 42.3986 43.5115 41.7267 43.5453C41.3646 43.5246 41.0022 43.5802 40.6628 43.7085C40.3234 43.8367 40.0145 44.0348 39.7561 44.29C39.4976 44.5451 39.2952 44.8517 39.162 45.19C39.0287 45.5283 38.9676 45.8909 38.9824 46.2543ZM49.464 46.2543V43.6748H48.3449V44.3008C48.1538 44.0539 47.9066 43.8565 47.6239 43.725C47.3412 43.5936 47.0312 43.532 46.7199 43.5453C46.0264 43.5794 45.3725 43.8797 44.8938 44.3841C44.415 44.8884 44.1479 45.5581 44.1479 46.2545C44.1479 46.9509 44.415 47.6206 44.8938 48.1249C45.3725 48.6292 46.0264 48.9295 46.7199 48.9636C47.0312 48.977 47.3412 48.9153 47.6239 48.7838C47.9066 48.6524 48.1538 48.4549 48.3449 48.208V48.8341H49.464V46.2543ZM45.2993 46.2543C45.3167 45.9499 45.4225 45.6572 45.6038 45.4124C45.785 45.1675 46.0337 44.9812 46.3192 44.8765C46.6048 44.7717 46.9147 44.753 47.2106 44.8228C47.5066 44.8925 47.7758 45.0476 47.9849 45.2689C48.194 45.4903 48.334 45.7682 48.3876 46.0684C48.4412 46.3685 48.406 46.6779 48.2864 46.9582C48.1667 47.2386 47.9679 47.4777 47.7145 47.646C47.461 47.8144 47.1639 47.9047 46.8598 47.9058C46.6467 47.9087 46.4353 47.8673 46.239 47.7842C46.0426 47.701 45.8656 47.578 45.7189 47.4229C45.5723 47.2677 45.4594 47.0838 45.3872 46.8827C45.3149 46.6816 45.285 46.4676 45.2993 46.2543ZM31.7939 43.5453C31.0959 43.5821 30.4393 43.8887 29.9619 44.4006C29.4844 44.9124 29.2231 45.5899 29.2328 46.2908C29.2426 46.9917 29.5226 47.6616 30.0141 48.16C30.5057 48.6583 31.1705 48.9463 31.8692 48.9636C32.637 48.9907 33.3878 48.7332 33.9784 48.2404L33.4296 47.4093C33.0046 47.7509 32.4783 47.9408 31.9337 47.949C31.5639 47.9802 31.1965 47.8658 30.9093 47.6301C30.6221 47.3944 30.4376 47.0558 30.3949 46.6861H34.2152C34.226 46.5459 34.2367 46.4055 34.2367 46.2543C34.226 44.6462 33.2359 43.5453 31.7939 43.5453ZM31.7723 44.5491C32.1103 44.5425 32.4372 44.6705 32.6813 44.9052C32.9254 45.1399 33.0668 45.4621 33.0744 45.8011H30.4056C30.4253 45.4547 30.5793 45.1298 30.8347 44.8958C31.09 44.6619 31.4266 44.5374 31.7723 44.5491ZM59.8488 46.2543V41.6025H58.7296V44.3008C58.5385 44.0539 58.2913 43.8565 58.0086 43.725C57.7259 43.5936 57.416 43.532 57.1047 43.5453C56.4111 43.5794 55.7573 43.8797 55.2785 44.384C54.7997 44.8884 54.5326 45.5581 54.5326 46.2545C54.5326 46.9509 54.7997 47.6206 55.2785 48.1249C55.7573 48.6293 56.4111 48.9296 57.1047 48.9636C57.416 48.977 57.7259 48.9153 58.0086 48.7838C58.2913 48.6524 58.5386 48.4549 58.7296 48.208V48.8341H59.8488V46.2543ZM61.7144 48.0864C61.7839 48.0859 61.8528 48.0996 61.9169 48.1267C61.9785 48.1524 62.0346 48.1897 62.0823 48.2366C62.1296 48.2834 62.1675 48.3388 62.1938 48.4C62.2207 48.4628 62.2346 48.5305 62.2346 48.5989C62.2346 48.6673 62.2207 48.735 62.1938 48.7978C62.1673 48.8587 62.1295 48.914 62.0823 48.9606C62.0345 49.0074 61.9784 49.0449 61.9169 49.0711C61.8529 49.0986 61.784 49.1125 61.7144 49.112C61.612 49.1131 61.5116 49.0838 61.4257 49.0279C61.3398 48.972 61.2722 48.892 61.2314 48.7978C61.2046 48.735 61.1907 48.6673 61.1907 48.5989C61.1907 48.5305 61.2046 48.4629 61.2314 48.4C61.2576 48.3389 61.2953 48.2834 61.3424 48.2366C61.39 48.1894 61.4464 48.152 61.5084 48.1267C61.5737 48.0995 61.6437 48.0858 61.7144 48.0864ZM61.7144 48.9989C61.7675 48.9993 61.82 48.9886 61.8687 48.9675C61.9154 48.9471 61.9579 48.9181 61.9939 48.882C62.0682 48.8067 62.1099 48.7051 62.1099 48.5992C62.1099 48.4932 62.0682 48.3916 61.9939 48.3163C61.9579 48.2803 61.9154 48.2515 61.8687 48.2316C61.8199 48.2108 61.7674 48.2003 61.7144 48.2008C61.6605 48.2004 61.607 48.2108 61.5572 48.2316C61.5097 48.2512 61.4665 48.28 61.43 48.3163C61.3557 48.3916 61.314 48.4932 61.314 48.5992C61.314 48.7051 61.3557 48.8067 61.43 48.882C61.4666 48.9184 61.5097 48.9474 61.5572 48.9675C61.6069 48.9886 61.6604 48.9993 61.7144 48.9989ZM61.7445 48.3591C61.7948 48.3558 61.8448 48.3703 61.8856 48.4C61.9018 48.4134 61.9148 48.4305 61.9233 48.4498C61.9319 48.4691 61.9359 48.4901 61.935 48.5112C61.9356 48.5293 61.9324 48.5473 61.9256 48.5641C61.9188 48.5808 61.9086 48.596 61.8956 48.6085C61.8644 48.6363 61.8249 48.6529 61.7834 48.6557L61.9388 48.8355H61.8173L61.6732 48.657H61.6268V48.8355H61.5253V48.3591H61.7445ZM61.6268 48.4484V48.5753H61.7433C61.7657 48.5765 61.788 48.571 61.8073 48.5595C61.8151 48.5543 61.8214 48.5471 61.8256 48.5386C61.8298 48.5301 61.8316 48.5207 61.831 48.5112C61.8315 48.502 61.8296 48.4927 61.8254 48.4844C61.8213 48.4761 61.815 48.4691 61.8073 48.464C61.7879 48.4527 61.7657 48.4473 61.7433 48.4484H61.6268ZM55.6842 46.2543C55.7015 45.9499 55.8074 45.6572 55.9886 45.4124C56.1699 45.1676 56.4186 44.9813 56.7041 44.8766C56.9896 44.7718 57.2995 44.7532 57.5954 44.8229C57.8914 44.8927 58.1605 45.0478 58.3697 45.2691C58.5788 45.4905 58.7187 45.7683 58.7723 46.0685C58.8258 46.3687 58.7906 46.678 58.671 46.9583C58.5514 47.2387 58.3526 47.4777 58.0991 47.6461C57.8456 47.8145 57.5485 47.9047 57.2445 47.9058C57.0314 47.9087 56.82 47.8673 56.6237 47.7841C56.4273 47.701 56.2503 47.578 56.1037 47.4228C55.9571 47.2677 55.8441 47.0838 55.7719 46.8826C55.6997 46.6815 55.6698 46.4676 55.6842 46.2543ZM17.8901 46.2543V43.6748H16.7709V44.3008C16.5799 44.0539 16.3327 43.8565 16.0499 43.725C15.7672 43.5936 15.4572 43.532 15.1459 43.5453C14.4524 43.5794 13.7986 43.8797 13.3198 44.3841C12.841 44.8884 12.574 45.5581 12.574 46.2545C12.574 46.9509 12.841 47.6206 13.3198 48.1249C13.7986 48.6292 14.4524 48.9295 15.1459 48.9636C15.4572 48.977 15.7672 48.9153 16.0499 48.7838C16.3327 48.6524 16.5799 48.4549 16.7709 48.208V48.8341H17.8901V46.2543ZM13.7255 46.2543C13.7429 45.9499 13.8487 45.6572 14.0299 45.4124C14.2112 45.1676 14.4599 44.9813 14.7454 44.8766C15.0309 44.7718 15.3408 44.7532 15.6368 44.8229C15.9327 44.8927 16.2019 45.0478 16.411 45.2691C16.6201 45.4905 16.7601 45.7684 16.8136 46.0685C16.8672 46.3687 16.8319 46.678 16.7123 46.9583C16.5927 47.2387 16.3939 47.4778 16.1404 47.6461C15.8869 47.8145 15.5899 47.9047 15.2858 47.9058C15.0727 47.9087 14.8613 47.8673 14.665 47.7841C14.4687 47.701 14.2916 47.578 14.145 47.4228C13.9984 47.2677 13.8855 47.0838 13.8133 46.8826C13.7411 46.6815 13.7112 46.4676 13.7255 46.2543Z" fill="black"/>
<path d="M39.9798 4.33496H23.0283V34.888H39.9798V4.33496Z" fill="#FF5F00"/>
<path d="M24.1187 19.6281C24.116 16.6856 24.7808 13.7811 26.0628 11.1344C27.3447 8.48775 29.2103 6.16826 31.5181 4.35159C28.6602 2.09849 25.2279 0.697327 21.6135 0.308239C17.9991 -0.0808491 14.3485 0.557843 11.079 2.15131C7.8094 3.74478 5.05277 6.22873 3.12418 9.31925C1.1956 12.4098 0.172852 15.9822 0.172852 19.6281C0.172852 23.2741 1.1956 26.8465 3.12418 29.937C5.05277 33.0275 7.8094 35.5115 11.079 37.1049C14.3485 38.6984 17.9991 39.3371 21.6135 38.948C25.2279 38.5589 28.6602 37.1578 31.5181 34.9047C29.2103 33.088 27.3448 30.7685 26.0628 28.1218C24.7808 25.4751 24.116 22.5706 24.1187 19.6281Z" fill="#EB001B"/>
<path d="M62.8472 19.6281C62.8473 23.274 61.8247 26.8464 59.8962 29.9369C57.9678 33.0275 55.2112 35.5114 51.9417 37.1049C48.6722 38.6984 45.0217 39.3371 41.4074 38.948C37.793 38.5589 34.3608 37.1578 31.5029 34.9047C33.8087 33.0862 35.6728 30.7663 36.9546 28.12C38.2363 25.4737 38.9023 22.5701 38.9023 19.6281C38.9023 16.6861 38.2363 13.7825 36.9546 11.1362C35.6728 8.48995 33.8087 6.17009 31.5029 4.35158C34.3608 2.09849 37.793 0.697319 41.4074 0.308236C45.0217 -0.0808479 48.6722 0.557856 51.9417 2.15134C55.2112 3.74482 57.9678 6.22879 59.8962 9.31931C61.8247 12.4098 62.8473 15.9822 62.8472 19.6281Z" fill="#F79E1B"/>
<path d="M61.0267 31.6546V31.0291H61.2781V30.9016H60.6377V31.0291H60.8893V31.6546H61.0267ZM62.27 31.6546V30.9004H62.0737L61.8479 31.4192L61.6221 30.9004H61.4256V31.6546H61.5643V31.0857L61.776 31.5762H61.9198L62.1315 31.0844V31.6546H62.27Z" fill="#F79E1B"/>
</svg>
