<svg width="60" height="39" viewBox="0 0 60 39" fill="none" xmlns="http://www.w3.org/2000/svg">
<mask id="mask0_363_9249" style="mask-type:alpha" maskUnits="userSpaceOnUse" x="0" y="0" width="60" height="39">
<path d="M0 0.5H60V38.5H0V0.5Z" fill="white"/>
</mask>
<g mask="url(#mask0_363_9249)">
<path fill-rule="evenodd" clip-rule="evenodd" d="M60 36.4743C60 37.0117 59.7893 37.527 59.4144 37.907C59.0394 38.287 58.5308 38.5005 58.0005 38.5005H1.99952C1.46922 38.5005 0.960629 38.287 0.585646 37.907C0.210663 37.527 5.73844e-08 37.0117 5.73844e-08 36.4743V2.52814C-0.000126907 1.99054 0.210435 1.47489 0.58539 1.09457C0.960346 0.71425 1.469 0.500386 1.99952 0.5H58.0005C58.5309 0.500257 59.0395 0.713947 59.4144 1.09409C59.7894 1.47423 60 1.9897 60 2.52717V36.4743Z" fill="#F9F9F9"/>
</g>
<path fill-rule="evenodd" clip-rule="evenodd" d="M37.2013 30.4079L37.7562 30.3933L38.3049 30.3531L38.8426 30.2838L39.376 30.1868L39.895 30.0657L40.4078 29.9188L40.9086 29.7457L41.3989 29.5509L41.8777 29.3303L42.3427 29.0913L42.7928 28.8257L43.2329 28.5426L43.6539 28.2372L44.0605 27.9134L44.4527 27.5712L44.8263 27.2072L45.1856 26.8281L45.5233 26.4301L45.8438 26.0181L46.1451 25.5915L46.4245 25.1465L46.6852 24.6899L46.921 24.2188L47.1392 23.7335L47.3315 23.2367L47.5018 22.7287L47.6481 22.21L47.7677 21.6841L47.8615 21.1436L47.9308 20.5987L47.971 20.0432L47.9854 19.48L47.971 18.9206L47.9308 18.3689L47.8615 17.8246L47.7672 17.2904L47.6481 16.7645L47.5018 16.2492L47.3315 15.7417L47.1392 15.2487L46.921 14.7669L46.6852 14.2952L46.4245 13.843L46.1447 13.398L45.8433 12.9709L45.5233 12.5628L45.1856 12.1653L44.8268 11.7862L44.4522 11.4256L44.06 11.0833L43.6539 10.7595L43.2329 10.4542L42.7928 10.1706L42.3432 9.9098L41.8777 9.67082L41.3994 9.4493L40.9086 9.25443L40.4078 9.08187L39.8954 8.93402L39.3764 8.81284L38.8431 8.71734L38.3054 8.64706L37.7567 8.60634L37.2018 8.5918L36.6493 8.60634L36.1011 8.64706L35.5644 8.71734L35.0334 8.81284L34.5144 8.93402L34.0031 9.08138L33.5056 9.25395L33.0148 9.44881L32.5388 9.67034L32.0782 9.90931L31.6285 10.1701L31.1923 10.4537L30.7713 10.7591L30.3647 11.0829L29.9758 11.4251L29.6013 11.7857L29.2458 12.1653L28.9081 12.5623L28.5886 12.9704L28.292 13.397L28.0117 13.8425L27.7534 14.2947L27.5142 14.7664L27.2994 15.2482L27.1066 15.7412L26.9402 16.2487L26.7948 16.764L26.6752 17.2899L26.5804 17.8241L26.512 18.3685L26.4714 18.9201L26.457 19.4795L26.4714 20.0427L26.512 20.5983L26.5804 21.1431L26.6752 21.6836L26.7948 22.21L26.9402 22.7282L27.1066 23.2362L27.2994 23.733L27.5147 24.2178L27.7539 24.6894L28.0122 25.1461L28.2915 25.591L28.5886 26.0176L28.9081 26.4296L29.2458 26.8271L29.6013 27.2067L29.9758 27.5702L30.3642 27.9129L30.7713 28.2372L31.1923 28.5421L31.628 28.8252L32.0782 29.0908L32.5388 29.3298L33.0148 29.5504L33.5051 29.7452L34.0031 29.9183L34.5149 30.0657L35.0334 30.1868L35.5644 30.2833L36.1011 30.3526L36.6493 30.3928L37.2013 30.4079Z" fill="#FBB231"/>
<path fill-rule="evenodd" clip-rule="evenodd" d="M22.8001 30.4084L23.3512 30.3938L23.8999 30.3536L24.4375 30.2843L24.9675 30.1873L25.487 30.0661L25.9989 29.9193L26.4964 29.7462L26.9862 29.5514L27.4622 29.3308L27.9233 29.0918L28.3734 28.8262L28.8087 28.5431L29.2306 28.2377L29.6372 27.9139L30.0252 27.5717L30.3997 27.2077L30.7556 26.8286L31.0934 26.4306L31.4124 26.0186L31.71 25.592L31.9903 25.147L32.2486 24.6904L32.4878 24.2192L32.7016 23.734L32.8944 23.2372L33.0608 22.7292L33.2062 22.2105L33.3263 21.6846L33.4205 21.1441L33.4899 20.5992L33.5291 20.0437L33.544 19.4805L33.5296 18.9211L33.4899 18.3694L33.4205 17.8251L33.3263 17.2909L33.2067 16.765L33.0608 16.2497L32.8944 15.7422L32.7016 15.2492L32.4873 14.7674L32.2481 14.2957L31.9903 13.8434L31.71 13.3985L31.4124 12.9714L31.0934 12.5633L30.7556 12.1658L30.3997 11.7867L30.0252 11.4261L29.6377 11.0838L29.2311 10.76L28.8087 10.4546L28.3734 10.1711L27.9238 9.91029L27.4622 9.67131L26.9862 9.44979L26.4964 9.25493L25.9989 9.08236L25.487 8.935L24.9675 8.81381L24.4375 8.71832L23.8999 8.64803L23.3512 8.60732L22.8001 8.59277L22.2438 8.60732L21.6961 8.64803L21.1584 8.71832L20.6246 8.81381L20.1051 8.935L19.5932 9.08236L19.0924 9.25493L18.6026 9.44979L18.1233 9.67131L17.6578 9.91029L17.2082 10.1711L16.7686 10.4546L16.3476 10.76L15.941 11.0838L15.5488 11.4261L15.1756 11.7867L14.8154 12.1663L14.4777 12.5633L14.1582 12.9714L13.8568 13.398L13.577 13.8434L13.3153 14.2957L13.0795 14.7674L12.8614 15.2492L12.6691 15.7422L12.4988 16.2497L12.3533 16.765L12.2338 17.2909L12.139 17.8251L12.0697 18.3694L12.03 18.9211L12.0156 19.4805L12.03 20.0437L12.0697 20.5992L12.139 21.1441L12.2338 21.6846L12.3533 22.211L12.4988 22.7292L12.6691 23.2372L12.8614 23.734L13.0795 24.2188L13.3153 24.6904L13.577 25.147L13.8563 25.592L14.1582 26.0186L14.4777 26.4306L14.8154 26.8281L15.1752 27.2077L15.5483 27.5712L15.9405 27.9139L16.3471 28.2382L16.7686 28.5431L17.2086 28.8262L17.6583 29.0918L18.1233 29.3308L18.6026 29.5514L19.0924 29.7462L19.5932 29.9193L20.1051 30.0666L20.6246 30.1878L21.1584 30.2843L21.6961 30.3536L22.2438 30.3938L22.8001 30.4084Z" fill="#EC1C2E"/>
<path fill-rule="evenodd" clip-rule="evenodd" d="M28.7404 12.7764H34.4596V12.1836H29.234L28.7404 12.7764ZM27.8837 14.0935H34.4596V13.5006H28.2281L27.8837 14.0935ZM27.2446 15.4071H34.4596V14.8143H27.4986L27.2446 15.4071ZM26.805 16.7241H34.4591V16.1318H26.9863L26.805 16.7241ZM27.0594 23.0902H34.4773V22.4973H26.8777L27.0594 23.0902ZM27.6072 24.4072H34.4773V23.8149H27.3355L27.6072 24.4072ZM28.3764 25.7208H34.4773V25.1285H28.0109L28.3764 25.7208ZM29.4378 27.0379H34.4778V26.4417H28.926L29.4378 27.0379ZM26.5476 18.0378H34.4596V17.4454H26.66L26.5476 18.0378ZM31.3689 21.7765H34.3864V21.1837H31.4785L31.3689 21.7765ZM31.6091 20.4624H34.3864V19.8667H31.7181L31.6091 20.4624ZM26.3477 19.8667H27.1322V20.4624H26.3845L26.3477 19.8667Z" fill="#FBB231"/>
<path fill-rule="evenodd" clip-rule="evenodd" d="M24.8835 19.1485L24.8333 19.1451L24.7821 19.1378L24.7342 19.1306L24.6883 19.1233L24.6443 19.116L24.5965 19.1083L24.5506 19.1015L24.4989 19.0937L24.4477 19.0869L24.3903 19.0821L24.3243 19.0787L24.2554 19.0753H24.1789L24.0961 19.0787L24.0014 19.0869L23.8962 19.0937L23.8239 19.1049L23.7546 19.116L23.6924 19.1378L23.6379 19.1596L23.5876 19.1858L23.5403 19.2149L23.5039 19.2522L23.4704 19.2852L23.4494 19.3254L23.4312 19.3661L23.424 19.4098V19.4544L23.4346 19.5023L23.4489 19.5499L23.4776 19.5978L23.5149 19.6458L23.5872 19.7151L23.6752 19.7709L23.7766 19.8184L23.8852 19.8586L24.0009 19.896L24.1205 19.9362L24.2411 19.9808L24.3568 20.0283L24.4664 20.0908L24.5678 20.1679L24.6587 20.26L24.7347 20.3744L24.7931 20.514L24.8299 20.6798L24.8438 20.8785L24.8294 21.1102L24.8041 21.2833L24.7601 21.4335L24.7017 21.5736L24.63 21.6948L24.5467 21.8024L24.4511 21.894L24.3496 21.975L24.2382 22.0453L24.121 22.1001L24.0014 22.1476L23.878 22.1844L23.7508 22.2135L23.6269 22.2368L23.5082 22.2474L23.3886 22.2547L23.2757 22.2581H23.1188L22.9739 22.2547H22.8462L22.7266 22.2513L22.618 22.2474L22.5199 22.2397L22.4334 22.2324L22.3497 22.2212L22.2731 22.214L22.2038 22.1994L22.1349 22.1878L22.0732 22.1699L22.011 22.1553L21.9536 22.1325L21.8952 22.1112L21.834 22.0889L21.9966 21.276L22.0301 21.2833L22.0689 21.2944L22.1205 21.3085L22.1827 21.324L22.2478 21.3385L22.32 21.3531L22.4004 21.371L22.4865 21.3856L22.5778 21.4001L22.6725 21.4156L22.7706 21.4263L22.8725 21.4374L22.9768 21.4408L23.083 21.4447H23.1872L23.293 21.4408L23.3982 21.4195L23.4819 21.3894L23.547 21.3497L23.5986 21.2978L23.6345 21.2464L23.6637 21.1868L23.6819 21.1286L23.6962 21.0734L23.7044 20.9663L23.6709 20.8742L23.6087 20.8005L23.5187 20.7384L23.4097 20.6837L23.282 20.6279L23.1408 20.576L22.9997 20.5179L22.8538 20.4515L22.7161 20.3739L22.5888 20.2789L22.4721 20.1645L22.3817 20.0239L22.3166 19.8586L22.2832 19.6609L22.2875 19.4253L22.3056 19.2813L22.3315 19.1451L22.3678 19.02L22.4109 18.9027L22.4688 18.7922L22.5343 18.6962L22.6108 18.6041L22.7017 18.5237L22.8074 18.4539L22.9227 18.3947L23.0533 18.3399L23.1992 18.2992L23.3628 18.2653L23.5403 18.2401L23.7364 18.2256L23.9507 18.2207H24.0846L24.2085 18.2256L24.3214 18.2294L24.4228 18.2328L24.5137 18.2401L24.5965 18.2474L24.6697 18.2546L24.7347 18.2624L24.7969 18.2697L24.8476 18.2803L24.894 18.2881L24.939 18.2954L24.9749 18.3021L25.0074 18.3065L25.0399 18.3138L25.0686 18.3177L24.8835 19.1485Z" fill="white"/>
<path d="M24.8835 19.1485L24.8333 19.1451L24.7821 19.1378L24.7342 19.1306L24.6883 19.1233L24.6443 19.116L24.5965 19.1083L24.5506 19.1015L24.4989 19.0937L24.4477 19.0869L24.3903 19.0821L24.3243 19.0787L24.2554 19.0753H24.1789L24.0961 19.0787L24.0014 19.0869L23.8962 19.0937L23.8239 19.1049L23.7546 19.116L23.6924 19.1378L23.6379 19.1596L23.5876 19.1858L23.5403 19.2149L23.5039 19.2522L23.4704 19.2852L23.4494 19.3254L23.4312 19.3661L23.424 19.4098V19.4544L23.4346 19.5023L23.4489 19.5499L23.4776 19.5978L23.5149 19.6458L23.5872 19.7151L23.6752 19.7709L23.7766 19.8184L23.8852 19.8586L24.0009 19.896L24.1205 19.9362L24.2411 19.9808L24.3568 20.0283L24.4664 20.0908L24.5678 20.1679L24.6587 20.26L24.7347 20.3744L24.7931 20.514L24.8299 20.6798L24.8438 20.8785L24.8294 21.1102L24.8041 21.2833L24.7601 21.4335L24.7017 21.5736L24.63 21.6948L24.5467 21.8024L24.4511 21.894L24.3496 21.975L24.2382 22.0453L24.121 22.1001L24.0014 22.1476L23.878 22.1844L23.7508 22.2135L23.6269 22.2368L23.5082 22.2474L23.3886 22.2547L23.2757 22.2581H23.1188L22.9739 22.2547H22.8462L22.7266 22.2513L22.618 22.2474L22.5199 22.2397L22.4334 22.2324L22.3497 22.2212L22.2731 22.214L22.2038 22.1994L22.1349 22.1878L22.0732 22.1699L22.011 22.1553L21.9536 22.1325L21.8952 22.1112L21.834 22.0889L21.9966 21.276L22.0301 21.2833L22.0689 21.2944L22.1205 21.3085L22.1827 21.324L22.2478 21.3385L22.32 21.3531L22.4004 21.371L22.4865 21.3856L22.5778 21.4001L22.6725 21.4156L22.7706 21.4263L22.8725 21.4374L22.9768 21.4408L23.083 21.4447H23.1872L23.293 21.4408L23.3982 21.4195L23.4819 21.3894L23.547 21.3497L23.5986 21.2978L23.6345 21.2464L23.6637 21.1868L23.6819 21.1286L23.6962 21.0734L23.7044 20.9663L23.6709 20.8742L23.6087 20.8005L23.5187 20.7384L23.4097 20.6837L23.282 20.6279L23.1408 20.576L22.9997 20.5179L22.8538 20.4515L22.7161 20.3739L22.5888 20.2789L22.4721 20.1645L22.3817 20.0239L22.3166 19.8586L22.2832 19.6609L22.2875 19.4253L22.3056 19.2813L22.3315 19.1451L22.3678 19.02L22.4109 18.9027L22.4688 18.7922L22.5343 18.6962L22.6108 18.6041L22.7017 18.5237L22.8074 18.4539L22.9227 18.3947L23.0533 18.3399L23.1992 18.2992L23.3628 18.2653L23.5403 18.2401L23.7364 18.2256L23.9507 18.2207H24.0846L24.2085 18.2256L24.3214 18.2294L24.4228 18.2328L24.5137 18.2401L24.5965 18.2474L24.6697 18.2546L24.7347 18.2624L24.7969 18.2697L24.8476 18.2803L24.894 18.2881L24.939 18.2954L24.9749 18.3021L25.0074 18.3065L25.0399 18.3138L25.0686 18.3177L24.8835 19.1485" stroke="white" stroke-width="0.216"/>
<path fill-rule="evenodd" clip-rule="evenodd" d="M25.7444 17.4087H26.7509L26.6016 18.2992H27.2082L27.0771 19.1305L26.4376 19.1121L26.0898 21.1649L26.086 21.2386L26.1037 21.3016L26.1405 21.3491L26.1883 21.3894L26.2529 21.4155L26.3256 21.4373L26.405 21.4519L26.4926 21.4596L26.572 21.4562L26.6447 21.4485L26.7107 21.4373L26.7686 21.4228L26.8164 21.4078L26.8485 21.3971L26.8705 21.3894L26.8772 21.386L26.7509 22.0704L26.7251 22.0888L26.6997 22.1034L26.6739 22.1179L26.649 22.1325L26.6232 22.1436L26.5945 22.1552L26.5615 22.1659L26.5289 22.1771L26.4926 22.1877L26.4557 22.1955L26.4127 22.2027L26.3696 22.2105L26.3223 22.2178L26.2673 22.225L26.2089 22.2323L26.1472 22.2396H25.8712L25.7258 22.2284L25.599 22.2139L25.4833 22.1921L25.3852 22.1659L25.301 22.132L25.2326 22.0966L25.1709 22.052L25.1235 22.0035L25.0872 21.9526L25.0613 21.8896L25.0436 21.8266L25.0326 21.7578L25.0293 21.6802V21.5997L25.0398 21.5149L25.0513 21.4228L25.7444 17.4087Z" fill="white"/>
<path d="M25.7444 17.4087H26.7509L26.6016 18.2992H27.2082L27.0771 19.1305L26.4376 19.1121L26.0898 21.1649L26.086 21.2386L26.1037 21.3016L26.1405 21.3491L26.1883 21.3894L26.2529 21.4155L26.3256 21.4373L26.405 21.4519L26.4926 21.4596L26.572 21.4562L26.6447 21.4485L26.7107 21.4373L26.7686 21.4228L26.8164 21.4078L26.8485 21.3971L26.8705 21.3894L26.8772 21.386L26.7509 22.0704L26.7251 22.0888L26.6997 22.1034L26.6739 22.1179L26.649 22.1325L26.6232 22.1436L26.5945 22.1552L26.5615 22.1659L26.5289 22.1771L26.4926 22.1877L26.4557 22.1955L26.4127 22.2027L26.3696 22.2105L26.3223 22.2178L26.2673 22.225L26.2089 22.2323L26.1472 22.2396H25.8712L25.7258 22.2284L25.599 22.2139L25.4833 22.1921L25.3852 22.1659L25.301 22.132L25.2326 22.0966L25.1709 22.052L25.1235 22.0035L25.0872 21.9526L25.0613 21.8896L25.0436 21.8266L25.0326 21.7578L25.0293 21.6802V21.5997L25.0398 21.5149L25.0513 21.4228L25.7449 17.4087" stroke="white" stroke-width="0.216"/>
<path d="M28.0097 20.5169L27.9987 20.579L27.9954 20.6454L28.0021 20.7152L28.0164 20.7854L28.0423 20.8553L28.0719 20.9221L28.1111 20.9915L28.1542 21.0545L28.2054 21.1175L28.2594 21.1728L28.3183 21.227L28.3833 21.2712L28.4489 21.3119L28.5216 21.3448L28.5933 21.3705L28.667 21.3856L28.7607 21.4001L28.8516 21.4112L28.9463 21.4219L29.0406 21.4297L29.1353 21.4331H29.2334L29.3276 21.4297L29.4257 21.4219L29.5237 21.4074L29.6218 21.3885L29.7237 21.3666L29.8213 21.3337L29.9236 21.2935L30.0284 21.2489L30.1303 21.1907L30.235 21.1277L30.0901 22.0332L30.0317 22.0622L29.9739 22.0923L29.9155 22.1136L29.8619 22.1364L29.8069 22.1543L29.7485 22.1737L29.6907 22.1868L29.6285 22.1985L29.5634 22.2096L29.4912 22.2174L29.4147 22.2241L29.3314 22.2314L29.2367 22.2363H29.1391L29.0262 22.2387H28.9062L28.7282 22.2358L28.5474 22.2174L28.3651 22.1912L28.1834 22.1466L28.0059 22.0923L27.8356 22.0215L27.6715 21.9299L27.5194 21.8233L27.3778 21.6982L27.2544 21.547L27.1492 21.3778L27.0616 21.1829L27.0004 20.9658L26.9607 20.719L26.9492 20.4466L26.9679 20.1451L26.9822 20.0273L27.0033 19.8916L27.0329 19.7481L27.0726 19.593L27.1276 19.4355L27.1927 19.2769L27.2759 19.115L27.3778 18.9609L27.4936 18.8131L27.6352 18.6734L27.7954 18.5484L27.9767 18.4384L28.1872 18.3463L28.4235 18.2798L28.6842 18.2362L28.9789 18.2207L29.1205 18.2246L29.2697 18.2391L29.418 18.2648L29.5677 18.3017L29.7127 18.3574L29.8543 18.4233L29.9853 18.5115L30.1049 18.6143L30.2135 18.7403L30.3044 18.8872L30.3761 19.0569L30.4278 19.2517L30.4565 19.4713L30.4608 19.7214L30.4355 20.0016L30.3805 20.3109L30.3623 20.5353H27.716L27.8825 19.8102H29.473L29.4802 19.7185L29.4754 19.6303L29.4687 19.5489L29.4544 19.4762L29.4295 19.4059L29.4041 19.3429L29.3673 19.2876L29.3314 19.2362L29.2884 19.1926L29.2405 19.1553L29.186 19.1223L29.1315 19.0932L29.0736 19.0714L29.0152 19.0569L28.953 19.0452L28.888 19.0375L28.8191 19.0414L28.754 19.0525L28.6919 19.0675L28.6306 19.0894L28.5684 19.1184L28.5149 19.1524L28.4594 19.1926L28.413 19.2362L28.3651 19.2876L28.3216 19.3429L28.2819 19.402L28.2484 19.465L28.2164 19.5309L28.191 19.6046L28.169 19.6783L28.1547 19.7559L28.0097 20.5169" stroke="white" stroke-width="0.216"/>
<path fill-rule="evenodd" clip-rule="evenodd" d="M36.6702 18.52L36.6233 18.4943L36.5765 18.472L36.5248 18.4463L36.4707 18.4201L36.4157 18.3988L36.355 18.3765L36.2928 18.3542L36.2282 18.3324L36.1589 18.3139L36.089 18.2994L36.0134 18.2844L35.9374 18.2732L35.8537 18.266L35.7704 18.2587H35.5016L35.4069 18.266L35.3088 18.2776L35.2074 18.2955L35.1055 18.3246L35.0051 18.3653L34.9027 18.4172L34.8003 18.4826L34.7027 18.5641L34.6076 18.6596L34.5171 18.7774L34.431 18.9131L34.3502 19.0755L34.2741 19.2592L34.2053 19.4662L34.1479 19.7013L34.1249 19.8331L34.111 19.9621L34.1034 20.091L34.1082 20.2165L34.1177 20.3411L34.1431 20.4589L34.1766 20.5694L34.2158 20.6799L34.2703 20.7793L34.3354 20.8743L34.4124 20.9592L34.4994 21.0367L34.5975 21.1031L34.7094 21.1579L34.8338 21.2059L34.9711 21.2388L35.0189 21.2495L35.0735 21.2607L35.139 21.2684L35.2112 21.2762L35.2906 21.2834H35.4648L35.5561 21.2762L35.6504 21.2645L35.7446 21.2466L35.8355 21.2204L35.9264 21.1913L36.0173 21.1506L36.1005 21.1031L36.177 21.0445L36.2493 20.9781L36.0866 21.9606L36.0641 21.9786L36.0426 22.0009L36.0139 22.027L35.9814 22.0479L35.9412 22.077L35.89 22.1036L35.8317 22.1293L35.7666 22.1511L35.6834 22.1773L35.5887 22.1957L35.4801 22.2103L35.3524 22.2248L35.2112 22.2326L35.0472 22.2364L34.863 22.2326L34.6587 22.2214L34.4918 22.203L34.3248 22.1662L34.1584 22.1114L33.991 22.0372L33.8312 21.9495L33.6786 21.838L33.5336 21.71L33.3997 21.5631L33.2787 21.3974L33.1782 21.2132L33.0907 21.0076L33.0256 20.7827L32.9826 20.5365L32.9668 20.2747L32.9744 19.9882L33.0137 19.6824L33.0433 19.5321L33.0754 19.3847L33.1122 19.2412L33.149 19.105L33.1878 18.9761L33.2356 18.8476L33.2835 18.726L33.3337 18.6121L33.3887 18.4981L33.4428 18.391L33.5049 18.2883L33.5695 18.1928L33.6351 18.1002L33.7078 18.0124L33.78 17.9315L33.8565 17.8539L33.9398 17.7802L34.0235 17.7104L34.111 17.6474L34.2019 17.5888L34.2995 17.5335L34.3976 17.4865L34.4994 17.4419L34.6047 17.4012L34.7176 17.3643L34.829 17.3353L34.9457 17.3091L35.0701 17.2878L35.1926 17.2684L35.3237 17.2538L35.4542 17.2475L35.593 17.2427L35.7092 17.2475L35.8211 17.2543L35.9302 17.2655L36.0388 17.28L36.1407 17.2945L36.2387 17.3168L36.333 17.3353L36.42 17.3571L36.5037 17.3789L36.5765 17.4012L36.6458 17.4235L36.7032 17.4453L36.7544 17.4637L36.7979 17.4783L36.8305 17.4928L36.8525 17.501L36.6702 18.52Z" fill="white"/>
<path d="M36.6702 18.52L36.6233 18.4943L36.5765 18.472L36.5248 18.4463L36.4707 18.4201L36.4157 18.3988L36.355 18.3765L36.2928 18.3542L36.2282 18.3324L36.1589 18.3139L36.089 18.2994L36.0134 18.2844L35.9374 18.2732L35.8537 18.266L35.7704 18.2587H35.5016L35.4069 18.266L35.3088 18.2776L35.2074 18.2955L35.1055 18.3246L35.0051 18.3653L34.9027 18.4172L34.8003 18.4826L34.7027 18.5641L34.6076 18.6596L34.5171 18.7774L34.431 18.9131L34.3502 19.0755L34.2741 19.2592L34.2053 19.4662L34.1479 19.7013L34.1249 19.8331L34.111 19.9621L34.1034 20.091L34.1082 20.2165L34.1177 20.3411L34.1431 20.4589L34.1766 20.5694L34.2158 20.6799L34.2703 20.7793L34.3354 20.8743L34.4124 20.9592L34.4994 21.0367L34.5975 21.1031L34.7094 21.1579L34.8338 21.2059L34.9711 21.2388L35.0189 21.2495L35.0735 21.2607L35.139 21.2684L35.2112 21.2762L35.2906 21.2834H35.4648L35.5561 21.2762L35.6504 21.2645L35.7446 21.2466L35.8355 21.2204L35.9264 21.1913L36.0173 21.1506L36.1005 21.1031L36.177 21.0445L36.2493 20.9781L36.0866 21.9606L36.0641 21.9786L36.0426 22.0009L36.0139 22.027L35.9814 22.0479L35.9412 22.077L35.89 22.1036L35.8317 22.1293L35.7666 22.1511L35.6834 22.1773L35.5887 22.1957L35.4801 22.2103L35.3524 22.2248L35.2112 22.2326L35.0472 22.2364L34.863 22.2326L34.6587 22.2214L34.4918 22.203L34.3248 22.1662L34.1584 22.1114L33.991 22.0372L33.8312 21.9495L33.6786 21.838L33.5336 21.71L33.3997 21.5631L33.2787 21.3974L33.1782 21.2132L33.0907 21.0076L33.0256 20.7827L32.9826 20.5365L32.9668 20.2747L32.9744 19.9882L33.0137 19.6824L33.0433 19.5321L33.0754 19.3847L33.1122 19.2412L33.149 19.105L33.1878 18.9761L33.2356 18.8476L33.2835 18.726L33.3337 18.6121L33.3887 18.4981L33.4428 18.391L33.5049 18.2883L33.5695 18.1928L33.6351 18.1002L33.7078 18.0124L33.78 17.9315L33.8565 17.8539L33.9398 17.7802L34.0235 17.7104L34.111 17.6474L34.2019 17.5888L34.2995 17.5335L34.3976 17.4865L34.4994 17.4419L34.6047 17.4012L34.7176 17.3643L34.829 17.3353L34.9457 17.3091L35.0701 17.2878L35.1926 17.2684L35.3237 17.2538L35.4542 17.2475L35.593 17.2427L35.7092 17.2475L35.8211 17.2543L35.9302 17.2655L36.0388 17.28L36.1407 17.2945L36.2387 17.3168L36.333 17.3353L36.42 17.3571L36.5037 17.3789L36.5765 17.4012L36.6458 17.4235L36.7032 17.4453L36.7544 17.4637L36.7979 17.4783L36.8305 17.4928L36.8525 17.501L36.6707 18.52" stroke="white" stroke-width="0.216"/>
<path fill-rule="evenodd" clip-rule="evenodd" d="M45.6107 22.2402H44.6047L44.6779 21.8321V21.7952L44.6195 21.8689L44.5573 21.9348L44.4961 21.993L44.4311 22.0458L44.3655 22.0933L44.3 22.1331L44.2349 22.1665L44.1656 22.2L44.0967 22.2257L44.0278 22.2441L43.9584 22.262L43.8857 22.2727L43.814 22.2843L43.7446 22.2916L43.6729 22.2955H43.5997L43.4107 22.2804L43.2366 22.2402L43.0768 22.1772L42.9309 22.0933L42.8003 21.9862L42.6841 21.8616L42.5822 21.7249L42.4952 21.5708L42.4234 21.4045L42.365 21.2324L42.3249 21.0521L42.2962 20.864L42.2852 20.6764L42.2885 20.4855L42.3062 20.2979L42.3397 20.1103L42.3937 19.8921L42.4593 19.6866L42.5358 19.499L42.6267 19.3226L42.7205 19.1568L42.8295 19.0094L42.9415 18.8776L43.062 18.7559L43.1892 18.6488L43.3232 18.5567L43.4619 18.4762L43.5997 18.4132L43.7446 18.3618L43.8896 18.3293L44.0345 18.307L44.1837 18.2998L44.2895 18.3027L44.3909 18.3143L44.4856 18.3327L44.5726 18.3589L44.6559 18.388L44.7291 18.421L44.8013 18.4617L44.8668 18.5024L44.9247 18.5455L44.9788 18.594L45.0266 18.642L45.0701 18.6895L45.106 18.7375L45.1395 18.7855L45.1682 18.8291L45.1897 18.8737L45.4447 17.4272H46.432L45.6107 22.2402Z" fill="white"/>
<path d="M45.6107 22.2402H44.6047L44.6779 21.8321V21.7952L44.6195 21.8689L44.5573 21.9348L44.4961 21.993L44.4311 22.0458L44.3655 22.0933L44.3 22.1331L44.2349 22.1665L44.1656 22.2L44.0967 22.2257L44.0278 22.2441L43.9584 22.262L43.8857 22.2727L43.814 22.2843L43.7446 22.2916L43.6729 22.2955H43.5997L43.4107 22.2804L43.2366 22.2402L43.0768 22.1772L42.9309 22.0933L42.8003 21.9862L42.6841 21.8616L42.5822 21.7249L42.4952 21.5708L42.4234 21.4045L42.365 21.2324L42.3249 21.0521L42.2962 20.864L42.2852 20.6764L42.2885 20.4855L42.3062 20.2979L42.3397 20.1103L42.3937 19.8921L42.4593 19.6866L42.5358 19.499L42.6267 19.3226L42.7205 19.1568L42.8295 19.0094L42.9415 18.8776L43.062 18.7559L43.1892 18.6488L43.3232 18.5567L43.4619 18.4762L43.5997 18.4132L43.7446 18.3618L43.8896 18.3293L44.0345 18.307L44.1837 18.2998L44.2895 18.3027L44.3909 18.3143L44.4856 18.3327L44.5727 18.3589L44.6559 18.388L44.7291 18.421L44.8013 18.4617L44.8668 18.5024L44.9247 18.5455L44.9788 18.594L45.0266 18.642L45.0701 18.6895L45.106 18.7375L45.1395 18.7855L45.1682 18.8291L45.1897 18.8737L45.4447 17.4272H46.432L45.6112 22.2397" stroke="white" stroke-width="0.216"/>
<path fill-rule="evenodd" clip-rule="evenodd" d="M43.9654 21.3494L44.0669 21.3421L44.1616 21.3198L44.2491 21.2942L44.3328 21.2539L44.4089 21.2103L44.4806 21.1541L44.5505 21.092L44.6122 21.0251L44.6662 20.9514L44.7174 20.8705L44.7643 20.7861L44.8045 20.6989L44.8408 20.6058L44.8695 20.5103L44.8949 20.411L44.9135 20.3116L44.9312 20.2088L44.9422 20.1022V20.0023L44.9394 19.8996L44.9279 19.8041L44.9135 19.712L44.8882 19.6233L44.859 19.5389L44.8227 19.4662L44.7791 19.3954L44.7322 19.3363L44.6772 19.2849L44.615 19.2413L44.5505 19.2112L44.4811 19.1933L44.4055 19.1855L44.3065 19.1933L44.2156 19.2078L44.1324 19.2374L44.0492 19.2738L43.9764 19.3222L43.9037 19.3809L43.8416 19.4439L43.7803 19.5132L43.7263 19.5937L43.6751 19.679L43.6272 19.7667L43.5875 19.8627L43.5517 19.9616L43.523 20.062L43.4938 20.1676L43.4723 20.2748L43.4531 20.4371L43.4613 20.6136L43.4861 20.7934L43.534 20.9665L43.6057 21.1177L43.7004 21.2389L43.82 21.3198L43.9654 21.3494Z" fill="#FBB231"/>
<path fill-rule="evenodd" clip-rule="evenodd" d="M21.6677 21.4231L21.5218 22.2399H20.6067L20.632 22.0891L20.6512 21.9529L20.6646 21.8502L20.6799 21.7949L20.6292 21.8531L20.5708 21.9127L20.5019 21.9679L20.4254 22.0188L20.3383 22.0707L20.2474 22.1143L20.1527 22.1589L20.0547 22.1958L19.9489 22.2287L19.8447 22.2549L19.7389 22.2772L19.6304 22.2917L19.5251 22.299L19.4199 22.3024L19.318 22.2917L19.2195 22.2772L19.0927 22.2433L18.9765 22.2069L18.875 22.1584L18.7842 22.1037L18.7047 22.0455L18.632 21.9786L18.5737 21.9083L18.5225 21.8356L18.4794 21.7581L18.4426 21.6766L18.4139 21.5961L18.3919 21.5152L18.3776 21.4309L18.3666 21.3455L18.3594 21.2646V21.1836L18.3699 21.0402L18.3919 20.9044L18.4287 20.7755L18.4756 20.6504L18.533 20.5326L18.5986 20.426L18.6751 20.3232L18.7626 20.2311L18.8535 20.1463L18.9549 20.0687L19.0602 19.9989L19.1687 19.9398L19.285 19.8894L19.4055 19.8482L19.5285 19.8152L19.6557 19.7929H19.6629L19.6811 19.789L19.7069 19.7857L19.7461 19.7823L19.7901 19.775L19.8408 19.7711L19.8949 19.7638L19.9571 19.7566L20.0188 19.7493L20.081 19.742L20.1465 19.7372L20.2039 19.7304L20.2623 19.727L20.3163 19.7222L20.3675 19.7197H20.4914L20.5785 19.7226L20.6579 19.727H20.7378L20.8028 19.7304L20.854 19.7343L20.8899 19.7377H20.9009L20.9085 19.712L20.9301 19.6461L20.9478 19.5685L20.9554 19.4987L20.9406 19.4182L20.9085 19.3436L20.8645 19.2781L20.8062 19.2224L20.7378 19.1754L20.6612 19.1414L20.5742 19.1196L20.4799 19.1124L20.3785 19.109L20.2685 19.1051H20.1566L20.0408 19.109L19.9207 19.1162L19.804 19.1269L19.6882 19.138L19.5758 19.1526L19.4658 19.1671L19.3606 19.186L19.2668 19.204L19.1802 19.2224L19.1003 19.2452L19.0343 19.267L18.9841 19.2927L18.9434 19.3145L19.2018 18.4274L19.2816 18.3949L19.361 18.3654L19.4486 18.3402L19.5356 18.3208L19.6237 18.3028L19.7174 18.2883L19.8117 18.2733L19.9097 18.266L20.0111 18.2587L20.1164 18.2549L20.2254 18.251H20.5742L20.7014 18.2549L20.8286 18.2587L20.9301 18.266L21.0396 18.2844L21.1515 18.3106L21.2678 18.3436L21.3802 18.3882L21.4892 18.4395L21.5978 18.5021L21.7007 18.5714L21.7901 18.6528L21.871 18.741L21.9437 18.8399L21.9973 18.9505L22.0341 19.0687L22.0556 19.1933V19.3329L22.0341 19.4803L21.6677 21.4231Z" fill="white"/>
<path d="M21.6677 21.4231L21.5218 22.2399H20.6067L20.632 22.0891L20.6512 21.9529L20.6646 21.8502L20.6799 21.7949L20.6292 21.8531L20.5708 21.9127L20.5019 21.9679L20.4254 22.0188L20.3383 22.0707L20.2474 22.1143L20.1527 22.1589L20.0547 22.1958L19.9489 22.2287L19.8447 22.2549L19.7389 22.2772L19.6304 22.2917L19.5251 22.299L19.4199 22.3024L19.318 22.2917L19.2195 22.2772L19.0927 22.2433L18.9765 22.2069L18.875 22.1584L18.7842 22.1037L18.7047 22.0455L18.632 21.9786L18.5737 21.9083L18.5225 21.8356L18.4794 21.7581L18.4426 21.6766L18.4139 21.5961L18.3919 21.5152L18.3776 21.4309L18.3666 21.3455L18.3594 21.2646V21.1836L18.3699 21.0402L18.3919 20.9044L18.4287 20.7755L18.4756 20.6504L18.533 20.5326L18.5986 20.426L18.6751 20.3232L18.7626 20.2311L18.8535 20.1463L18.9549 20.0687L19.0602 19.9989L19.1687 19.9398L19.285 19.8894L19.4055 19.8482L19.5285 19.8152L19.6557 19.7929H19.6629L19.6811 19.789L19.7069 19.7857L19.7461 19.7823L19.7901 19.775L19.8408 19.7711L19.8949 19.7638L19.9571 19.7566L20.0188 19.7493L20.081 19.742L20.1465 19.7372L20.2039 19.7304L20.2623 19.727L20.3163 19.7222L20.3675 19.7197H20.4914L20.5785 19.7226L20.6579 19.727H20.7378L20.8028 19.7304L20.854 19.7343L20.8899 19.7377H20.9009L20.9085 19.712L20.9301 19.6461L20.9478 19.5685L20.9554 19.4987L20.9406 19.4182L20.9085 19.3436L20.8645 19.2781L20.8062 19.2224L20.7378 19.1754L20.6612 19.1414L20.5742 19.1196L20.4799 19.1124L20.3785 19.109L20.2685 19.1051H20.1566L20.0408 19.109L19.9207 19.1162L19.804 19.1269L19.6882 19.138L19.5758 19.1526L19.4658 19.1671L19.3606 19.186L19.2668 19.204L19.1802 19.2224L19.1003 19.2452L19.0343 19.267L18.9841 19.2927L18.9434 19.3145L19.2018 18.4274L19.2816 18.3949L19.361 18.3654L19.4486 18.3402L19.5356 18.3208L19.6237 18.3028L19.7174 18.2883L19.8117 18.2733L19.9097 18.266L20.0111 18.2587L20.1164 18.2549L20.2254 18.251H20.5742L20.7014 18.2549L20.8286 18.2587L20.9301 18.266L21.0396 18.2844L21.1515 18.3106L21.2678 18.3436L21.3802 18.3882L21.4892 18.4395L21.5978 18.5021L21.7007 18.5714L21.7901 18.6528L21.871 18.741L21.9437 18.8399L21.9973 18.9505L22.0341 19.0687L22.0556 19.1933V19.3329L22.0341 19.4803L21.6677 21.4231" stroke="white" stroke-width="0.216"/>
<path fill-rule="evenodd" clip-rule="evenodd" d="M20.7918 20.4624L20.788 20.444L20.7731 20.426L20.7516 20.4144L20.7157 20.4076L20.6756 20.4004L20.6287 20.396H20.5191L20.4617 20.4008L20.3995 20.4076L20.3417 20.4144L20.2833 20.4222L20.2288 20.4299L20.1781 20.4406L20.1345 20.4517L20.0944 20.4624L20.0695 20.4697L20.0403 20.4813L20.0001 20.4959L19.9599 20.5138L19.9131 20.5361L19.8652 20.5623L19.815 20.5875L19.7672 20.617L19.7169 20.6539L19.6691 20.6907L19.6256 20.7348L19.5863 20.7794L19.5495 20.8264L19.5246 20.8788L19.5031 20.937L19.4916 20.9961L19.4883 21.1212L19.506 21.2205L19.5428 21.2942L19.5897 21.3495L19.6442 21.3863L19.7064 21.4081L19.7648 21.4193L19.8222 21.4227L19.9312 21.4193L20.0293 21.4081L20.124 21.3936L20.2077 21.3713L20.2795 21.3456L20.3488 21.3126L20.4105 21.2797L20.4651 21.239L20.5124 21.2021L20.555 21.1585L20.5918 21.1178L20.6205 21.0741L20.6459 21.0291L20.6689 20.9854L20.6866 20.9447L20.6961 20.904L20.7263 20.7978L20.7516 20.6757L20.7731 20.5584L20.7918 20.4624Z" fill="#EC1C2E"/>
<path fill-rule="evenodd" clip-rule="evenodd" d="M14.0254 22.2396H13.0391L13.8633 17.4087H15.5806L15.7442 20.2749L16.9314 17.4087H18.7253L17.8824 22.2396H16.8946L17.5189 18.6302H17.4796L16.0015 22.2396H14.8869L14.8793 22.0888L14.8539 21.6875L14.8214 21.1179L14.7846 20.4621L14.7482 19.8043L14.7157 19.2269L14.6903 18.8072L14.6827 18.6302H14.6286L14.0254 22.2396Z" fill="white"/>
<path d="M14.0254 22.2396H13.0391L13.8633 17.4087H15.5806L15.7442 20.2749L16.9314 17.4087H18.7253L17.8824 22.2396H16.8946L17.5189 18.6302H17.4796L16.0015 22.2396H14.8869L14.8793 22.0888L14.8539 21.6875L14.8214 21.1179L14.7846 20.4621L14.7482 19.8043L14.7157 19.2269L14.6903 18.8072L14.6827 18.6302H14.6286L14.0259 22.2396" stroke="white" stroke-width="0.216"/>
<path fill-rule="evenodd" clip-rule="evenodd" d="M39.688 21.4231L39.5388 22.2399H38.6266L38.6337 22.0891L38.6376 21.9568V21.8574L38.6443 21.8138L38.5979 21.8686L38.5429 21.9238L38.4778 21.9752L38.4051 22.0271L38.3295 22.0746L38.242 22.1182L38.1506 22.1628L38.0597 22.1996L37.9621 22.2287L37.8603 22.2578L37.7588 22.2772L37.6574 22.2917L37.5517 22.299L37.4503 22.3024L37.3522 22.2917L37.2537 22.2772L37.1231 22.2433L37.0073 22.2069L36.9055 22.1584L36.8098 22.1037L36.7309 22.0455L36.662 21.9786L36.6041 21.9083L36.5534 21.8356L36.5099 21.7581L36.4764 21.6766L36.4477 21.5961L36.43 21.5152L36.4147 21.4309L36.4046 21.3455L36.3965 21.2646V21.1836L36.4046 21.0402L36.4261 20.9044L36.4587 20.7755L36.506 20.6504L36.5601 20.5326L36.6294 20.426L36.7055 20.3232L36.7892 20.2311L36.8839 20.1463L36.9815 20.0687L37.0868 19.9989L37.1996 19.9398L37.3121 19.8894L37.4316 19.8482L37.5512 19.8152L37.6751 19.7929H37.6828L37.7 19.789L37.7258 19.7857L37.7622 19.7823L37.8095 19.775L37.8603 19.7711L37.9148 19.7638L37.9722 19.7566L38.0344 19.7493L38.1004 19.742L38.1621 19.7372L38.2233 19.7304L38.2817 19.727L38.3324 19.7222L38.3831 19.7197H38.5103L38.5979 19.7226L38.6811 19.727H38.761L38.8304 19.7304L38.8878 19.7343L38.9203 19.7377H38.9356L38.9428 19.712L38.9538 19.6461L38.9643 19.5685L38.971 19.4987L38.9566 19.4182L38.9279 19.3436L38.8811 19.2781L38.826 19.2224L38.761 19.1754L38.6845 19.1414L38.605 19.1196L38.5175 19.1124L38.4156 19.109L38.307 19.1051H38.1941L38.0779 19.109L37.9583 19.1162L37.8421 19.1269L37.7258 19.138L37.6134 19.1526L37.5044 19.1671L37.3991 19.186L37.3049 19.204L37.2178 19.2224L37.1375 19.2452L37.0729 19.267L37.0212 19.2927L36.9815 19.3145L37.236 18.4274L37.3154 18.3949L37.3996 18.3654L37.4828 18.3402L37.5689 18.3208L37.6608 18.3028L37.7517 18.2883L37.8454 18.2733L37.944 18.266L38.0454 18.2587L38.1506 18.2549L38.2558 18.251H38.5979L38.7208 18.2549L38.8442 18.2587L38.9461 18.266L39.0552 18.2844L39.1676 18.3106L39.2838 18.3436L39.3967 18.3882L39.5087 18.4395L39.6177 18.5021L39.7191 18.5714L39.81 18.6528L39.8937 18.741L39.9655 18.8399L40.021 18.9505L40.0607 19.0687L40.0865 19.1933V19.3329L40.0683 19.4803L39.688 21.4231Z" fill="white"/>
<path fill-rule="evenodd" clip-rule="evenodd" d="M39.5396 22.2653L39.5606 22.243L39.7099 21.4262L39.6663 21.4189L39.5176 22.2362L39.5396 22.2134V22.2653L39.5573 22.2614L39.5606 22.243L39.5396 22.2653Z" fill="white"/>
<path fill-rule="evenodd" clip-rule="evenodd" d="M38.6054 22.2407L38.6269 22.267H39.5387V22.2148H38.6264L38.6484 22.2407H38.6049L38.6016 22.267H38.6264L38.6054 22.2407Z" fill="white"/>
<path fill-rule="evenodd" clip-rule="evenodd" d="M38.6638 21.8269L38.6308 21.7979L38.6165 21.857L38.6122 21.9564V22.0887L38.6055 22.239H38.6495L38.6562 22.0887L38.6638 21.9564L38.66 21.857V21.8269L38.6275 21.7979L38.6638 21.8269Z" fill="white"/>
<path fill-rule="evenodd" clip-rule="evenodd" d="M37.252 22.2981L37.3534 22.3126L37.4519 22.3238L37.5528 22.3209L37.659 22.3131L37.7638 22.2986L37.8652 22.2792L37.9676 22.2511L38.0685 22.221L38.1594 22.1842L38.2536 22.1406L38.3416 22.0965L38.4172 22.0451L38.4938 21.9927L38.5583 21.9418L38.6172 21.8827L38.6645 21.8269L38.6282 21.7979L38.5808 21.8531L38.5301 21.905L38.4646 21.9564L38.3957 22.0077L38.3192 22.0514L38.2326 22.0965L38.145 22.1401L38.0542 22.1769L37.9599 22.206L37.8585 22.2365L37.7561 22.2545L37.659 22.2685L37.5528 22.2768L37.4519 22.2797L37.3534 22.2685L37.2596 22.254L37.252 22.2981Z" fill="white"/>
<path fill-rule="evenodd" clip-rule="evenodd" d="M36.373 21.1845L36.3764 21.2654L36.3836 21.3464L36.3951 21.4351L36.4094 21.5194L36.4276 21.6004L36.4568 21.6852L36.4893 21.7696L36.5371 21.8471L36.5869 21.9242L36.6457 21.994L36.7179 22.0638L36.8017 22.1229L36.8959 22.1821L37.0016 22.2296L37.1212 22.2664L37.2518 22.2999L37.2594 22.2558L37.1284 22.2218L37.016 22.1855L36.9174 22.138L36.8227 22.0861L36.7466 22.0279L36.6816 21.9644L36.6232 21.8946L36.5725 21.8248L36.5328 21.7473L36.5003 21.6697L36.4706 21.5936L36.4529 21.5122L36.4386 21.4273L36.4276 21.3464L36.4199 21.2654L36.4238 21.1845H36.373ZM37.6766 19.7715L37.5498 19.7933L37.4264 19.8272L37.3063 19.867L37.1901 19.9188L37.0772 19.9775L36.9691 20.0512L36.8701 20.1287L36.7763 20.217L36.6892 20.3091L36.6122 20.4118L36.54 20.5223L36.4855 20.644L36.4391 20.7686L36.4056 20.9009L36.384 21.0405L36.373 21.1845H36.4238L36.4276 21.0405L36.4496 20.9087L36.4821 20.7836L36.5295 20.6586L36.5835 20.5442L36.6486 20.4409L36.7251 20.3381L36.805 20.2465L36.8992 20.1651L36.9978 20.0875L37.0982 20.0221L37.2126 19.9625L37.3207 19.9116L37.4403 19.8713L37.557 19.8379L37.6766 19.8156V19.7715Z" fill="white"/>
<path fill-rule="evenodd" clip-rule="evenodd" d="M38.4234 19.6938H38.3837L38.3326 19.7016L38.2819 19.706L38.2245 19.709L38.1623 19.7158L38.1006 19.7202L38.035 19.7275L37.9728 19.7343L37.9154 19.7426L37.8604 19.7499L37.8102 19.7533L37.7628 19.7611L37.7265 19.7645L37.6978 19.7679L37.6834 19.7718H37.6758V19.8157H37.683L37.705 19.8122L37.7265 19.8088L37.7628 19.8054L37.8107 19.7976L37.8604 19.7937L37.9154 19.7864L37.9728 19.7786L38.035 19.7718L38.1006 19.7645L38.1627 19.7611L38.224 19.7533L38.2819 19.7499L38.3326 19.745H38.4234V19.6938Z" fill="white"/>
<path fill-rule="evenodd" clip-rule="evenodd" d="M38.9141 19.7348L38.9366 19.7158H38.9218L38.8893 19.7124L38.8314 19.7085L38.762 19.7016H38.5984L38.5109 19.6938H38.4238V19.7455H38.5984L38.6817 19.7528H38.8309L38.8883 19.7567L38.9213 19.7606H38.9357L38.9577 19.7421L38.9361 19.7606L38.9543 19.764L38.9577 19.7421L38.9141 19.7348Z" fill="white"/>
<path fill-rule="evenodd" clip-rule="evenodd" d="M38.9505 19.4985H38.9467L38.9433 19.5683L38.9318 19.6419L38.9208 19.7083L38.9141 19.7335L38.9572 19.7413L38.9648 19.7151L38.9754 19.6487L38.9859 19.5683L38.9974 19.4985H38.994H38.9505ZM38.5176 19.1339V19.1373L38.6018 19.1412L38.6778 19.1635L38.7501 19.1965L38.8122 19.2406L38.8625 19.292L38.9065 19.355L38.9361 19.4209L38.9505 19.4985H38.9935L38.9792 19.4141L38.9505 19.3327L38.8988 19.2629L38.8414 19.2032L38.7725 19.1523L38.6922 19.1189L38.6089 19.0976L38.5181 19.0864V19.0898L38.5176 19.1339Z" fill="white"/>
<path fill-rule="evenodd" clip-rule="evenodd" d="M36.9609 19.3108L36.9973 19.3326L37.0332 19.3142L37.0805 19.2885L37.1427 19.2662L37.2221 19.2449L37.3097 19.2265L37.4034 19.2076L37.5087 19.1891L37.6139 19.1751L37.7273 19.1596L37.843 19.1484L37.9597 19.1378L38.0789 19.1305H38.4166L38.5185 19.1339V19.0902L38.4166 19.0864L38.308 19.0786H38.1956L38.0789 19.0864L37.9593 19.0932L37.843 19.1048L37.7273 19.1159L37.6144 19.1305L37.502 19.145L37.3962 19.1634L37.3025 19.1819L37.2149 19.2003L37.1351 19.2221L37.0662 19.2449L37.0116 19.2701L36.9686 19.2958L37.0045 19.3181L36.9609 19.3108Z" fill="white"/>
<path fill-rule="evenodd" clip-rule="evenodd" d="M37.2303 18.4053L37.2145 18.4242L36.9609 19.3108L37.0045 19.318L37.259 18.431L37.2436 18.4499L37.2298 18.4053L37.2188 18.4092L37.2145 18.4242L37.2303 18.4053Z" fill="white"/>
<path fill-rule="evenodd" clip-rule="evenodd" d="M38.8459 18.2362L38.7225 18.2295L38.599 18.2256H38.2575L38.1523 18.2329L38.047 18.2367L37.9456 18.2445L37.8471 18.2508L37.749 18.2653L37.6591 18.2799L37.5682 18.2993L37.4802 18.3177L37.3941 18.3434L37.3104 18.3725L37.2305 18.4054L37.2448 18.45L37.3247 18.4171L37.4079 18.388L37.4878 18.3613L37.5754 18.3434L37.6662 18.324L37.7562 18.3094L37.8471 18.2949L37.9456 18.2881L38.047 18.2804L38.1523 18.277H38.599L38.7225 18.2804H38.8459V18.2362ZM40.0915 19.484L40.1097 19.3327V19.1931L40.0843 19.0642L40.0441 18.943L39.9867 18.8291L39.9126 18.7263L39.8265 18.6342L39.7356 18.5533L39.6304 18.483L39.5213 18.4171L39.4051 18.3652L39.2927 18.3211L39.1731 18.2881L39.0597 18.2624L38.9478 18.2445L38.8459 18.2367V18.2804L38.9478 18.2881L39.053 18.3065L39.1654 18.3322L39.2773 18.3652L39.3907 18.4088L39.4993 18.4612L39.6084 18.5193L39.7064 18.5896L39.7973 18.6706L39.8772 18.7554L39.9494 18.8504L40.0001 18.9585L40.0403 19.0719L40.0662 19.1931V19.3327L40.048 19.4767L40.0915 19.484ZM39.7103 21.4258L40.0915 19.484L40.048 19.4767L39.6667 21.419L39.7103 21.4258Z" fill="white"/>
<path fill-rule="evenodd" clip-rule="evenodd" d="M38.8089 20.4624L38.8017 20.4406L38.7873 20.4221L38.762 20.411L38.7256 20.4003L38.6859 20.396L38.6381 20.3921H38.5836L38.5295 20.396L38.4711 20.4037L38.4133 20.411L38.3554 20.4188L38.3004 20.426L38.2468 20.4372L38.199 20.444L38.1511 20.4551L38.1152 20.4624L38.0904 20.4663L38.0612 20.4774L38.0248 20.4886L37.9847 20.5031L37.9368 20.5244L37.8938 20.5472L37.8431 20.5734L37.7962 20.6059L37.7483 20.6398L37.7005 20.6795L37.6618 20.7198L37.6216 20.7682L37.5881 20.8191L37.5632 20.8744L37.5422 20.9335L37.5312 20.9966L37.5273 21.1211L37.5446 21.2205L37.5747 21.2942L37.6178 21.3494L37.6723 21.3863L37.7345 21.4081L37.7962 21.4192L37.8579 21.4226L37.967 21.4192L38.0674 21.4081L38.1626 21.3897L38.2468 21.364L38.3262 21.3349L38.3951 21.3015L38.4601 21.2641L38.5185 21.2205L38.5697 21.1798L38.6123 21.1323L38.6529 21.0887L38.6859 21.0402L38.7108 20.9966L38.7294 20.9515L38.7438 20.9079L38.7543 20.8671L38.7687 20.7644L38.7878 20.6577L38.8017 20.5545L38.8089 20.4624Z" fill="#FBB231"/>
<path fill-rule="evenodd" clip-rule="evenodd" d="M46.2891 21.7356L46.2977 21.6503L46.3254 21.5509L46.3766 21.4627L46.4388 21.3856L46.5153 21.3231L46.6024 21.2795L46.6966 21.2489L46.7976 21.2383L46.8999 21.2489L46.9942 21.279L47.0812 21.3231L47.1578 21.3861L47.2199 21.4627L47.2702 21.5509L47.2989 21.6503L47.3065 21.7356H47.1975L47.1941 21.6687L47.1716 21.5878L47.1358 21.5151L47.0884 21.452L47.031 21.4002L46.9616 21.3633L46.8817 21.3377L46.7976 21.3304L46.7148 21.3377L46.6349 21.3633L46.566 21.4002L46.5072 21.4516L46.4603 21.5146L46.4244 21.5878L46.4024 21.6687L46.3948 21.7356H46.2891Z" fill="white"/>
<path fill-rule="evenodd" clip-rule="evenodd" d="M46.6152 21.7362V21.5151H46.8147L46.8587 21.5185L46.8989 21.5258L46.9276 21.5369L46.9529 21.5515L46.9711 21.5738L46.9855 21.5961L46.9931 21.6213L46.9965 21.6475L46.9931 21.6804L46.9855 21.7061L46.9749 21.7284L46.9673 21.7362H46.8147L46.829 21.7318L46.8549 21.7284L46.8764 21.7211L46.8955 21.7139L46.9099 21.7027L46.9171 21.6911L46.9238 21.6736V21.6475L46.9199 21.6291L46.9128 21.6145L46.9032 21.6068L46.8912 21.5995L46.8731 21.5961L46.8549 21.5927H46.7061V21.7362H46.6152ZM46.288 21.7362L46.2852 21.7575L46.2966 21.8646L46.3244 21.9635L46.3756 22.0522L46.4378 22.1259L46.5143 22.188L46.6013 22.2364L46.6956 22.2655L46.7965 22.2767L46.8989 22.2655L46.9931 22.2364L47.0802 22.188L47.1567 22.1259L47.2189 22.0522L47.2691 21.9635L47.2978 21.8646L47.3084 21.758L47.3055 21.7362H47.1964L47.2002 21.7575L47.1931 21.8462L47.1706 21.9272L47.1347 21.9974L47.0874 22.059L47.03 22.1109L46.9606 22.1511L46.8807 22.1773L46.7965 22.1846L46.7138 22.1773L46.6339 22.1511L46.565 22.1109L46.5062 22.059L46.4593 21.9974L46.4234 21.9272L46.4014 21.8462L46.3937 21.7575V21.7362H46.288Z" fill="white"/>
<path fill-rule="evenodd" clip-rule="evenodd" d="M46.6152 21.7368V21.9608H46.7061V21.777H46.797L46.9051 21.9612H46.9788L46.8697 21.777H46.8951L46.9199 21.7693L46.942 21.762L46.9611 21.7475L46.9673 21.7368H46.8147L46.7965 21.7402H46.7061V21.7368H46.6152Z" fill="white"/>
<path d="M46.797 22.184L46.8807 22.1767L46.9606 22.1506L47.03 22.1108L47.0874 22.0585L47.1347 21.9969L47.1711 21.9266L47.1935 21.8457L47.2002 21.7574L47.1935 21.6692L47.1711 21.5878L47.1347 21.5146L47.0869 21.4516L47.0295 21.4002L46.9606 21.3638L46.8807 21.3377L46.797 21.3304L46.7138 21.3377L46.6344 21.3638L46.565 21.4002L46.5066 21.4516L46.4588 21.5146L46.4234 21.5873L46.4014 21.6692L46.3942 21.7574L46.4014 21.8457L46.4234 21.9266L46.4593 21.9969L46.5066 22.0585L46.565 22.1108L46.6344 22.1506L46.7138 22.1767L46.797 22.184M46.797 21.739L46.8295 21.7313L46.8554 21.7279L46.8769 21.7206L46.8955 21.7133L46.9099 21.7022L46.9171 21.6905L46.9242 21.6731V21.6469L46.9204 21.6285L46.9132 21.6135L46.9027 21.6067L46.8917 21.5989L46.8726 21.5955L46.8554 21.5921H46.7066V21.739H46.797M46.7061 21.9601H46.6152V21.5141H46.8152L46.8592 21.518L46.8989 21.5252L46.9276 21.5364L46.9534 21.5509L46.9716 21.5732L46.9859 21.5955L46.9931 21.6207L46.9969 21.6469L46.9931 21.6799L46.9859 21.7056L46.9754 21.7279L46.9606 21.7463L46.9424 21.7608L46.9204 21.7681L46.8955 21.7759H46.8697L46.9788 21.9601H46.9056L46.797 21.7759H46.7061V21.9601M46.2852 21.7574L46.2966 21.6503L46.3244 21.5509L46.3756 21.4627L46.4373 21.3852L46.5138 21.3236L46.6013 21.279L46.6961 21.2489L46.7965 21.2383L46.8989 21.2489L46.9931 21.279L47.0807 21.3236L47.1572 21.3856L47.2189 21.4627L47.2696 21.5509L47.2983 21.6503L47.3088 21.7569L47.2983 21.8636L47.2696 21.963L47.2189 22.0517L47.1567 22.1253L47.0802 22.1874L46.9931 22.2359L46.8989 22.265L46.797 22.2761L46.6961 22.265L46.6013 22.2359L46.5138 22.1874L46.4373 22.1253L46.3751 22.0517L46.3244 21.963L46.2966 21.8641L46.2856 21.7574" stroke="white" stroke-width="0.216"/>
<path fill-rule="evenodd" clip-rule="evenodd" d="M39.9609 22.2399H40.9846L41.3515 20.1459L41.3659 20.0659L41.3879 19.9845L41.4094 19.9035L41.4381 19.8226L41.4749 19.7421L41.518 19.6645L41.5653 19.5908L41.6237 19.521L41.6892 19.458L41.761 19.3994L41.8452 19.3436L41.9394 19.3L42.0446 19.2636L42.1609 19.2341L42.2877 19.2118L42.4292 19.204H42.5201L42.6837 18.2588L42.5818 18.2661L42.4838 18.2777L42.3929 18.2956L42.3058 18.3213L42.2259 18.3504L42.1494 18.3882L42.0772 18.428L42.0078 18.4716L41.9432 18.5239L41.8811 18.5753L41.8232 18.6345L41.7653 18.6926L41.7103 18.7556L41.6562 18.8254L41.6017 18.8914L41.5515 18.9655L41.66 18.2995H40.6392L39.9609 22.2399Z" fill="white"/>
<path d="M39.9609 22.2399H40.9846L41.3515 20.1459L41.3659 20.0659L41.3879 19.9845L41.4094 19.9035L41.4381 19.8226L41.4749 19.7421L41.518 19.6645L41.5653 19.5908L41.6237 19.521L41.6892 19.458L41.761 19.3994L41.8452 19.3436L41.9394 19.3L42.0446 19.2636L42.1609 19.2341L42.2877 19.2118L42.4292 19.204H42.5201L42.6837 18.2588L42.5818 18.2661L42.4838 18.2777L42.3929 18.2956L42.3058 18.3213L42.2259 18.3504L42.1494 18.3882L42.0772 18.428L42.0078 18.4716L41.9432 18.5239L41.8811 18.5753L41.8232 18.6345L41.7653 18.6926L41.7103 18.7556L41.6562 18.8254L41.6017 18.8914L41.5515 18.9655L41.66 18.2995H40.6392L39.9609 22.2399" stroke="white" stroke-width="0.216"/>
<path fill-rule="evenodd" clip-rule="evenodd" d="M30.3457 22.2399H31.3876L31.7363 20.1459L31.7506 20.0659L31.7688 19.9883L31.7865 19.9108L31.8119 19.8371L31.8406 19.7639L31.8779 19.6936L31.9209 19.6277L31.9716 19.5647L32.0295 19.5094L32.0955 19.4546L32.1759 19.4105L32.262 19.3703L32.3639 19.3364L32.4768 19.3073L32.6002 19.2889L32.7413 19.2782H32.7533L32.7676 19.2816L32.7853 19.2855H32.8035L32.8212 19.2889L32.8365 19.2927L32.8465 19.2966H32.8504L32.8542 19.2816L32.8652 19.2375L32.8795 19.1715L32.8977 19.0901L32.9231 18.9946L32.9484 18.8914L32.9819 18.7886L33.014 18.6854L33.0431 18.6156L33.08 18.5453L33.1159 18.476L33.1522 18.4129L33.1843 18.3586L33.2096 18.314L33.2278 18.2884L33.2354 18.2777H33.2326L33.2177 18.2728L33.1996 18.2699L33.1742 18.2661H33.1489L33.1197 18.2627L33.0943 18.2588H33.068L32.9561 18.2661L32.8542 18.2777L32.76 18.2956L32.6734 18.3179L32.5897 18.347L32.5131 18.3843L32.4438 18.4207L32.3787 18.4643L32.317 18.5128L32.2586 18.568L32.2041 18.6233L32.1496 18.6854L32.095 18.7484L32.0448 18.8187L31.9903 18.8914L31.9353 18.9655L32.0659 18.2995H31.0245L30.3457 22.2399Z" fill="white"/>
<path d="M30.3462 22.2399H31.388L31.7368 20.1459L31.7511 20.0659L31.7693 19.9883L31.787 19.9108L31.8123 19.8371L31.841 19.7639L31.8784 19.6936L31.9214 19.6277L31.9721 19.5647L32.03 19.5094L32.096 19.4546L32.1764 19.4105L32.2625 19.3703L32.3644 19.3364L32.4772 19.3073L32.6007 19.2889L32.7418 19.2782H32.7537L32.7681 19.2816L32.7858 19.2855H32.804L32.8217 19.2889L32.837 19.2927L32.847 19.2966H32.8508L32.8547 19.2816L32.8657 19.2375L32.88 19.1715L32.8982 19.0901L32.9236 18.9946L32.9489 18.8914L32.9824 18.7886L33.0144 18.6854L33.0436 18.6156L33.0805 18.5453L33.1163 18.476L33.1527 18.4129L33.1847 18.3586L33.2101 18.314L33.2283 18.2884L33.2359 18.2777H33.2331L33.2182 18.2728L33.2 18.2699L33.1747 18.2661H33.1493L33.1202 18.2627L33.0948 18.2588H33.0685L32.9566 18.2661L32.8547 18.2777L32.7604 18.2956L32.6739 18.3179L32.5901 18.347L32.5136 18.3843L32.4442 18.4207L32.3792 18.4643L32.3175 18.5128L32.2591 18.568L32.2046 18.6233L32.1501 18.6854L32.0955 18.7484L32.0453 18.8187L31.9908 18.8914L31.9358 18.9655L32.0663 18.2995H31.025L30.3457 22.2399" stroke="white" stroke-width="0.216"/>
<path fill-rule="evenodd" clip-rule="evenodd" d="M46.2969 26.1108V26.0962L46.3246 26.0003L46.3758 25.9159L46.4375 25.8427L46.514 25.7841L46.6016 25.7395L46.6958 25.7143L46.7972 25.7026L46.8991 25.7143L46.9934 25.7395L47.0809 25.7841L47.1574 25.8422L47.2191 25.9159L47.2698 26.0003L47.2986 26.0958V26.1113H47.1933L47.1713 26.0342L47.135 25.9639L47.0871 25.9009L47.0297 25.8495L46.9608 25.8088L46.8809 25.7841L46.7972 25.7763L46.714 25.7841L46.6346 25.8093L46.5652 25.8495L46.5064 25.9009L46.4595 25.9639L46.4236 26.0342L46.4016 26.1108H46.2969Z" fill="#FBB231"/>
<path fill-rule="evenodd" clip-rule="evenodd" d="M46.6152 26.1099V25.9814H46.8587L46.8989 25.9887L46.9276 25.9955L46.9529 26.01L46.9711 26.0294L46.9855 26.0517L46.9931 26.0774L46.9965 26.1099H46.9238V26.0915L46.9199 26.0731L46.9128 26.0585L46.9032 26.0517L46.8912 26.0435L46.8731 26.0396L46.8549 26.0372H46.7061V26.1099H46.6152ZM46.2852 26.1909L46.2962 26.1099H46.4014V26.1133L46.3937 26.1909H46.2852Z" fill="#FBB231"/>
<path fill-rule="evenodd" clip-rule="evenodd" d="M46.6152 26.1922V26.1108H46.7061V26.1849H46.797L46.8291 26.1781L46.8549 26.1742L46.8764 26.1664L46.8956 26.1591L46.9099 26.1484L46.9171 26.1367L46.9238 26.1191V26.1108H46.9965L46.9931 26.1367L46.9855 26.1591L46.975 26.1781L46.9606 26.1922H46.6152ZM47.2003 26.1922L47.1931 26.1143V26.1108H47.2983L47.3089 26.1922H47.2003Z" fill="#FBB231"/>
<path fill-rule="evenodd" clip-rule="evenodd" d="M46.2852 26.1924V26.2035L46.2962 26.3102L46.3249 26.4095L46.3751 26.4978L46.4373 26.5753L46.5138 26.6379L46.6013 26.6815L46.6956 26.7115L46.7965 26.7222L46.8989 26.7115L46.9926 26.6815L47.0802 26.6379L47.1567 26.5753L47.2189 26.4978L47.2691 26.4095L47.2978 26.3102L47.3084 26.2035V26.1924H47.2002V26.2035L47.1931 26.2922L47.1706 26.3732L47.1342 26.4425L47.0874 26.5046L47.03 26.5569L46.9606 26.5971L46.8807 26.6233L46.7965 26.6306L46.7138 26.6233L46.6339 26.5971L46.5645 26.5569L46.5062 26.5046L46.4593 26.4425L46.4234 26.3732L46.4014 26.2922L46.3937 26.2035V26.1924H46.2852Z" fill="#FBB231"/>
<path fill-rule="evenodd" clip-rule="evenodd" d="M46.6152 26.1924V26.4062H46.7061V26.222H46.797L46.9051 26.4062H46.9788L46.8697 26.222H46.8951L46.9199 26.2147L46.942 26.2074L46.9611 26.1924H46.6152Z" fill="#FBB231"/>
<path fill-rule="evenodd" clip-rule="evenodd" d="M29.4725 19.8102H28.1461L28.147 19.8072H28.1451L28.1547 19.7554L28.169 19.6783L28.1905 19.6046L28.2159 19.5309L28.2494 19.465L28.2819 19.402L28.3211 19.3429L28.3651 19.2876L28.413 19.2362L28.4589 19.1926L28.5144 19.1519L28.568 19.1184L28.6302 19.0894L28.6923 19.0675L28.7536 19.053L28.8186 19.0414L28.888 19.0375L28.9535 19.0452L29.0148 19.0564L29.0731 19.0714L29.131 19.0927L29.1855 19.1223L29.2401 19.1553L29.2879 19.1926L29.3309 19.2362L29.3673 19.2876L29.4037 19.3429L29.429 19.4059L29.4544 19.4762L29.4687 19.5489L29.4759 19.6303L29.4807 19.7185L29.4725 19.8106V19.8102ZM30.457 19.4713L30.4283 19.2517L30.3766 19.0564L30.3049 18.8872L30.213 18.7399L30.1044 18.6143L29.9849 18.5115L29.8543 18.4233L29.7122 18.3574L29.5673 18.3017L29.419 18.2648L29.2692 18.2391L29.1209 18.2246L28.9789 18.2207L28.6842 18.2357L28.4235 18.2798L28.1867 18.3458L27.9767 18.4384L27.7949 18.5484L27.6347 18.6734L27.4931 18.8131L27.3773 18.9609L27.2755 19.115L27.1922 19.2769L27.1272 19.4355L27.0722 19.593L27.0325 19.7481L27.0038 19.8911L26.9817 20.0273L26.9674 20.1451L26.9492 20.4466L26.9602 20.719L26.9999 20.9663L27.0612 21.1829L27.1492 21.3778L27.2544 21.5475L27.3773 21.6982L27.5189 21.8228L27.672 21.9299L27.8356 22.022L28.0059 22.0923L28.1834 22.1466L28.3651 22.1912L28.5469 22.2174L28.7287 22.2358L28.9057 22.2387H29.0258L29.1391 22.2358H29.2362L29.3309 22.2314L29.4147 22.2241L29.4912 22.2174L29.5629 22.2096L29.6285 22.1985L29.6907 22.1868L29.7481 22.1733L29.8069 22.1543L29.8614 22.1364L29.9155 22.1136L29.9739 22.0923L30.0313 22.0622L30.0901 22.0332L30.235 21.1277L30.1298 21.1907L30.0279 21.2489L29.9231 21.2935L29.8213 21.3337L29.7232 21.3666L29.6218 21.3885L29.5232 21.4079L29.4252 21.4224L29.3271 21.4297L29.2334 21.4331H29.1348L29.0406 21.4297L28.9463 21.4219L28.8516 21.4112L28.7607 21.3996L28.6665 21.3856L28.5938 21.371L28.5211 21.3448L28.4493 21.3119L28.3828 21.2712L28.3178 21.2275L28.2594 21.1728L28.2054 21.117L28.1542 21.054L28.1111 20.9919L28.0714 20.9221L28.0418 20.8553L28.0164 20.7854L28.0021 20.7152L27.9949 20.6454L27.9978 20.5833L28.0073 20.5353H30.3623L30.38 20.3109L30.435 20.0016L30.4603 19.7214L30.457 19.4713Z" fill="white"/>
</svg>
