<svg width="24" height="24" viewBox="0 0 24 24" fill="none" xmlns="http://www.w3.org/2000/svg">
<path d="M15.6733 21.3253L15.6739 21.3259C15.793 21.4442 15.9476 21.4992 16.125 21.4992C16.2901 21.4992 16.4367 21.4415 16.5593 21.3295L16.5596 21.3292C16.6882 21.2109 16.75 21.0551 16.75 20.8742L16.75 4.551L18.3078 6.10884C18.4169 6.23704 18.5648 6.29922 18.738 6.29922C18.9059 6.29922 19.0556 6.24895 19.18 6.14525L19.1804 6.14564L19.1884 6.13761C19.3137 6.01227 19.3728 5.8565 19.3628 5.67919L19.3628 5.67857C19.3526 5.51313 19.2979 5.36646 19.196 5.2442L19.1965 5.24383L19.1879 5.23537L16.7884 2.86083C16.7883 2.86075 16.7882 2.86067 16.7881 2.86059C16.6807 2.75323 16.5702 2.67352 16.4559 2.63179L16.4556 2.6317C16.3496 2.59331 16.2392 2.57422 16.125 2.57422C16.0108 2.57422 15.9006 2.59331 15.7951 2.63179L15.838 2.74922L15.7954 2.6317C15.6804 2.67338 15.5694 2.75309 15.4619 2.86059C15.4618 2.86067 15.4617 2.86075 15.4616 2.86083L13.0621 5.23537L13.0621 5.23537L13.0616 5.23583C12.9382 5.35926 12.875 5.51171 12.875 5.68622C12.875 5.85952 12.9372 6.00747 13.0656 6.11655C13.1884 6.2375 13.3399 6.29922 13.513 6.29922C13.6804 6.29922 13.827 6.24895 13.9384 6.13761L13.9384 6.13761L13.939 6.13699L15.5 4.55401L15.5 20.8742C15.5 21.0516 15.555 21.2062 15.6733 21.3253Z" fill="black" stroke="black" stroke-width="0.25"/>
<path fill-rule="evenodd" clip-rule="evenodd" d="M9.31005 14.4H4.7C4.3134 14.4 4 14.0866 4 13.7C4 13.3134 4.3134 13 4.7 13H9.79289C10.862 13 11.3974 14.2926 10.6414 15.0485L5.68995 20H10.3C10.6866 20 11 20.3134 11 20.7C11 21.0866 10.6866 21.4 10.3 21.4H5.20711C4.13803 21.4 3.60262 20.1074 4.35858 19.3515L9.31005 14.4Z" fill="black"/>
<path d="M6.27258 7.8L7.44438 4.46667H7.53452L8.70631 7.8H6.27258ZM4.6501 11C4.80033 11 4.93554 10.9594 5.05572 10.8782C5.17591 10.7964 5.25853 10.6889 5.3036 10.5556L5.86696 8.95556H9.157L9.72036 10.5778C9.76543 10.6963 9.84445 10.7964 9.95743 10.8782C10.0698 10.9594 10.1936 11 10.3288 11C10.5541 11 10.7344 10.9111 10.8696 10.7333C11.0048 10.5556 11.0349 10.363 10.9598 10.1556L8.45843 3.66667C8.38332 3.45926 8.25562 3.2963 8.07534 3.17778C7.89507 3.05926 7.69977 3 7.48945 3C7.27912 3 7.08383 3.05926 6.90355 3.17778C6.72327 3.2963 6.59558 3.45926 6.52046 3.66667L4.04167 10.1111C3.96655 10.3185 3.99299 10.5185 4.12099 10.7111C4.24838 10.9037 4.42476 11 4.6501 11Z" fill="black"/>
</svg>
