<svg width="40" height="40" viewBox="0 0 40 40" fill="none" xmlns="http://www.w3.org/2000/svg">
<path d="M19.9991 39.9993C18.7157 39.9993 17.8253 38.7924 17.0427 37.7263C16.5888 37.1107 16.0218 36.335 15.6514 36.2411C14.9341 36.2785 14.2354 36.4834 13.6115 36.8394C12.3646 37.382 11.0742 37.9437 10.0012 37.3194C8.9282 36.695 8.75603 35.2812 8.60995 33.9195C8.6049 33.2132 8.43893 32.5174 8.12476 31.8848C7.49079 31.5714 6.79373 31.4067 6.08656 31.4031C4.72316 31.2501 3.31453 31.0918 2.68496 30.0014C2.0554 28.911 2.60858 27.6398 3.1581 26.3947C3.51319 25.7677 3.71853 25.0673 3.75807 24.3479C3.65723 23.9722 2.88852 23.407 2.27118 22.9566C1.20688 22.1722 0 21.2819 0 20.0002C0 18.7185 1.20688 17.8281 2.27118 17.0437C2.88852 16.5881 3.66245 16.0229 3.75636 15.6525C3.71715 14.9349 3.51237 14.2361 3.1581 13.6108C2.60858 12.3587 2.05727 11.0701 2.67812 9.99706C3.29896 8.92404 4.71632 8.75016 6.08664 8.59715C6.79242 8.59242 7.48777 8.42645 8.11962 8.11196C8.4298 7.48206 8.59275 6.78981 8.59609 6.0877C8.7491 4.72602 8.90741 3.31567 9.98736 2.68782C11.0673 2.06004 12.356 2.60956 13.6046 3.15907C14.2301 3.51702 14.9315 3.72204 15.6514 3.75734C16.027 3.6565 16.594 2.88778 17.0427 2.27216C17.8253 1.20785 18.7157 0.000976562 19.9991 0.000976562C21.2825 0.000976562 22.1729 1.20793 22.9555 2.27395C23.4094 2.88957 23.9764 3.66522 24.3468 3.75913C25.0645 3.72351 25.7635 3.51849 26.3867 3.16087C27.6301 2.61999 28.9205 2.05132 29.9953 2.68089C31.07 3.31045 31.2422 4.71909 31.3865 6.08248C31.3918 6.78818 31.5577 7.48345 31.8717 8.11546C32.5062 8.42906 33.2039 8.59381 33.9117 8.59715C35.275 8.75016 36.6837 8.90847 37.3132 9.99886C37.9428 11.0892 37.3898 12.3605 36.8402 13.6056C36.4851 14.2326 36.2798 14.9331 36.2402 15.6525C36.3411 16.0281 37.1098 16.5933 37.7271 17.0437C38.7914 17.828 39.9983 18.7185 39.9983 20.0002C39.9983 21.2819 38.7914 22.1722 37.7271 22.9566C37.1098 23.4122 36.3358 23.9774 36.2419 24.3479C36.2811 25.0655 36.4859 25.7642 36.8402 26.3895C37.3828 27.6364 37.9427 28.925 37.3202 29.998C36.6976 31.0711 35.282 31.2449 33.9186 31.3893C33.2128 31.394 32.5174 31.56 31.8856 31.8745C31.5713 32.5082 31.406 33.2054 31.4021 33.9127C31.2491 35.2761 31.0908 36.6865 30.0108 37.3143C28.9309 37.9421 27.6475 37.3734 26.4023 36.8343C25.7734 36.4778 25.069 36.2752 24.3467 36.2431C23.9711 36.3439 23.4041 37.1126 22.9554 37.7282C22.1729 38.7924 21.2825 39.9993 19.9991 39.9993ZM15.4898 34.4847C15.694 34.4837 15.8974 34.5095 16.095 34.5613C17.0841 35.002 17.9045 35.7505 18.434 36.6951C18.8931 37.3176 19.5869 38.2602 19.9991 38.2602C20.4113 38.2602 21.0964 37.3194 21.5643 36.6951C22.0953 35.7487 22.9183 34.9995 23.9103 34.5596C25.0177 34.4398 26.1343 34.68 27.0944 35.2447C27.79 35.5438 28.8213 35.9977 29.1379 35.8151C29.4544 35.6325 29.5953 34.4812 29.6805 33.7282C29.6672 32.6263 30.0121 31.5497 30.663 30.6605C31.5531 30.0097 32.6299 29.6644 33.7324 29.6762C34.4889 29.591 35.6314 29.464 35.8193 29.1336C36.0071 28.8032 35.548 27.7789 35.2489 27.0885C34.6823 26.1297 34.4425 25.0129 34.5654 23.906C35.0041 22.9167 35.7507 22.0956 36.694 21.5652C37.3166 21.1061 38.2592 20.4122 38.2592 20.0001C38.2592 19.5879 37.3184 18.9028 36.694 18.4437C35.7471 17.9117 34.9979 17.0874 34.5585 16.0942C34.4365 14.9874 34.6762 13.8709 35.2419 12.9117C35.541 12.2162 35.9949 11.1727 35.8123 10.8683C35.6297 10.564 34.4784 10.4092 33.7255 10.3257C32.6229 10.339 31.5458 9.99429 30.6561 9.34321C30.0046 8.45343 29.6593 7.37642 29.6717 6.2738C29.5865 5.5156 29.4578 4.37304 29.1291 4.18694C28.8005 4.00083 27.7744 4.45823 27.0857 4.75732C26.1268 5.32526 25.0091 5.56582 23.9015 5.44248C22.9126 5.00049 22.0927 4.25085 21.5643 3.30515C21.1051 2.6826 20.4113 1.74 19.9991 1.74C19.5869 1.74 18.9018 2.68081 18.434 3.30515C17.9044 4.24979 17.0841 4.99821 16.095 5.43897C14.9874 5.56199 13.8698 5.32151 12.9108 4.75381C12.2152 4.45472 11.1839 3.99904 10.8674 4.18343C10.5508 4.36774 10.41 5.51731 10.3248 6.2703C10.3375 7.37299 9.99209 8.45009 9.34044 9.3397C8.45042 9.99062 7.37357 10.3359 6.27103 10.324C5.51454 10.4092 4.37198 10.5362 4.18417 10.8666C3.99635 11.197 4.45546 12.2214 4.75455 12.9117C5.3211 13.8706 5.56093 14.9874 5.438 16.0942C4.99804 17.0843 4.24946 17.9055 3.30418 18.435C2.68162 18.8941 1.73903 19.588 1.73903 20.0002C1.73903 20.4123 2.67983 21.0975 3.30418 21.5566C4.25109 22.0885 5.00033 22.9128 5.43971 23.906C5.56174 25.0128 5.32192 26.1294 4.75626 27.0885C4.45717 27.7841 4.00328 28.8275 4.18588 29.1319C4.36848 29.4362 5.51976 29.591 6.27274 29.6762C7.37528 29.6629 8.45238 30.0077 9.34215 30.6587C9.9938 31.5491 10.3391 32.6267 10.3265 33.7299C10.41 34.4864 10.5387 35.629 10.8674 35.8168C11.196 36.0046 12.2221 35.5455 12.9125 35.2464C13.7135 34.8264 14.5891 34.5675 15.4898 34.4847Z" fill="#F06021"/>
<path d="M14.7819 24.3477C14.5083 24.3477 14.2505 24.2188 14.0863 23.9998L10.4343 19.1305V23.4781C10.4343 23.9583 10.045 24.3477 9.56475 24.3477C9.08452 24.3477 8.69519 23.9583 8.69519 23.4781V16.5219C8.69519 16.0417 9.08452 15.6523 9.56475 15.6523C9.8384 15.6523 10.0962 15.7812 10.2603 16.0002L13.9124 20.8695V16.5219C13.9124 16.0417 14.3017 15.6523 14.7819 15.6523C15.2621 15.6523 15.6515 16.0417 15.6515 16.5219V23.4781C15.652 23.8528 15.4123 24.1858 15.0567 24.3041C14.9679 24.3327 14.8753 24.3473 14.7819 24.3477Z" fill="#F06021"/>
<path d="M21.7382 24.3477H18.2601C17.7798 24.3477 17.3905 23.9583 17.3905 23.4781V16.5219C17.3905 16.0417 17.7798 15.6523 18.2601 15.6523H21.7382C22.2184 15.6523 22.6078 16.0417 22.6078 16.5219C22.6078 17.0021 22.2184 17.3915 21.7382 17.3915H19.1296V22.6086H21.7382C22.2184 22.6086 22.6078 22.998 22.6078 23.4782C22.6077 23.9584 22.2184 24.3477 21.7382 24.3477Z" fill="#F06021"/>
<path d="M21.7382 20.87H18.2601C17.7798 20.87 17.3905 20.4806 17.3905 20.0004C17.3905 19.5202 17.7798 19.1309 18.2601 19.1309H21.7382C22.2184 19.1309 22.6078 19.5202 22.6078 20.0004C22.6077 20.4806 22.2184 20.87 21.7382 20.87Z" fill="#F06021"/>
<path d="M30.4336 24.3478C30.0595 24.3476 29.7275 24.108 29.6093 23.753L28.6945 21.0106L27.7798 23.7531C27.6272 24.2085 27.1344 24.4539 26.6791 24.3013C26.3981 24.2071 26.1843 23.9762 26.1121 23.6887L24.3731 16.7325C24.2461 16.2694 24.5186 15.791 24.9817 15.664C25.4448 15.537 25.9232 15.8095 26.0503 16.2726C26.0538 16.2856 26.057 16.2985 26.06 16.3117L27.0757 20.3706L27.8704 17.9864C28.0757 17.5311 28.6113 17.3285 29.0666 17.5339C29.2675 17.6246 29.4284 17.7855 29.519 17.9864L30.3137 20.3706L31.3294 16.3117C31.4348 15.8432 31.9001 15.5488 32.3686 15.6542C32.837 15.7596 33.1314 16.2249 33.026 16.6934C33.0231 16.7065 33.0198 16.7196 33.0162 16.7325L31.2772 23.6887C31.1839 24.0643 30.8535 24.333 30.4668 24.3478H30.4336Z" fill="#F06021"/>
</svg>
