<svg width="24" height="24" viewBox="0 0 24 24" fill="none" xmlns="http://www.w3.org/2000/svg">
<path d="M5.1499 19.0002H6.3999L15.6499 9.7502L14.4249 8.5002L5.1499 17.7752V19.0002ZM18.8499 8.6502L15.4749 5.3002L16.7999 4.0002C17.0832 3.71686 17.4376 3.5752 17.8629 3.5752C18.2876 3.5752 18.6416 3.71686 18.9249 4.0002L20.1499 5.2252C20.4332 5.5252 20.5832 5.8792 20.5999 6.2872C20.6166 6.69586 20.4749 7.04186 20.1749 7.3252L18.8499 8.6502ZM4.5499 20.5002C4.2999 20.5002 4.08757 20.4129 3.9129 20.2382C3.73757 20.0629 3.6499 19.8502 3.6499 19.6002V17.5002C3.6499 17.3835 3.6709 17.2712 3.7129 17.1632C3.75424 17.0545 3.8249 16.9502 3.9249 16.8502L14.3999 6.3752L17.7749 9.7502L7.2999 20.2252C7.1999 20.3252 7.0959 20.3962 6.9879 20.4382C6.87924 20.4795 6.76657 20.5002 6.6499 20.5002H4.5499ZM15.0249 9.1252L14.4249 8.5002L15.6499 9.7502L15.0249 9.1252Z" fill="black"/>
</svg>
