<svg width="18" height="18" viewBox="0 0 18 18" fill="none" xmlns="http://www.w3.org/2000/svg">
<path d="M9.83333 5.66667C10.4964 5.66667 11.1323 5.93006 11.6011 6.3989C12.0699 6.86774 12.3333 7.50363 12.3333 8.16667C12.3333 8.38768 12.4211 8.59964 12.5774 8.75592C12.7337 8.9122 12.9457 9 13.1667 9C13.3877 9 13.5996 8.9122 13.7559 8.75592C13.9122 8.59964 14 8.38768 14 8.16667C14 7.0616 13.561 6.00179 12.7796 5.22039C11.9982 4.43899 10.9384 4 9.83333 4C9.61232 4 9.40036 4.0878 9.24408 4.24408C9.0878 4.40036 9 4.61232 9 4.83333C9 5.05435 9.0878 5.26631 9.24408 5.42259C9.40036 5.57887 9.61232 5.66667 9.83333 5.66667Z" fill="url(#paint0_linear)"/>
<path d="M9.83335 2.33341C11.3804 2.33341 12.8642 2.948 13.9581 4.04196C15.0521 5.13592 15.6667 6.61965 15.6667 8.16675C15.6667 8.38776 15.7545 8.59972 15.9108 8.756C16.067 8.91228 16.279 9.00008 16.5 9.00008C16.721 9.00008 16.933 8.91228 17.0893 8.756C17.2456 8.59972 17.3334 8.38776 17.3334 8.16675C17.3334 6.17762 16.5432 4.26997 15.1367 2.86345C13.7301 1.45692 11.8225 0.666748 9.83335 0.666748C9.61234 0.666748 9.40038 0.754545 9.2441 0.910826C9.08782 1.06711 9.00002 1.27907 9.00002 1.50008C9.00002 1.7211 9.08782 1.93306 9.2441 2.08934C9.40038 2.24562 9.61234 2.33341 9.83335 2.33341ZM17.125 12.2584C17.0792 12.1246 17.0001 12.0047 16.8951 11.91C16.7901 11.8152 16.6628 11.7487 16.525 11.7167L11.525 10.5751C11.3893 10.5443 11.248 10.548 11.1141 10.5859C10.9802 10.6237 10.8579 10.6945 10.7584 10.7917C10.6417 10.9001 10.6334 10.9084 10.0917 11.9417C8.29435 11.1135 6.85418 9.66746 6.03335 7.86675C7.09169 7.33342 7.10002 7.33342 7.20835 7.20842C7.30561 7.10888 7.37639 6.98657 7.41424 6.85265C7.45209 6.71873 7.45579 6.57747 7.42502 6.44175L6.28335 1.50008C6.25139 1.36233 6.1849 1.23497 6.09014 1.13001C5.99538 1.02504 5.87547 0.945917 5.74169 0.900081C5.54708 0.830573 5.34611 0.780332 5.14169 0.750081C4.93106 0.701244 4.71613 0.673331 4.50002 0.666748C3.48336 0.666748 2.50833 1.07062 1.78944 1.78951C1.07055 2.50839 0.666687 3.48342 0.666687 4.50008C0.671097 7.90234 2.02459 11.164 4.43035 13.5697C6.83612 15.9755 10.0978 17.329 13.5 17.3334C14.0034 17.3334 14.5019 17.2343 14.967 17.0416C15.4321 16.849 15.8546 16.5666 16.2106 16.2107C16.5666 15.8547 16.8489 15.4321 17.0416 14.967C17.2342 14.502 17.3334 14.0035 17.3334 13.5001C17.3336 13.288 17.3169 13.0762 17.2834 12.8667C17.2483 12.6598 17.1954 12.4562 17.125 12.2584ZM13.5 15.6667C10.5391 15.6645 7.70011 14.4873 5.60643 12.3937C3.51275 10.3 2.33556 7.46099 2.33335 4.50008C2.33555 3.92612 2.56453 3.3763 2.97038 2.97044C3.37623 2.56459 3.92606 2.33561 4.50002 2.33341H4.77502L5.66669 6.20008L5.21669 6.43341C4.50002 6.80841 3.93335 7.10842 4.23335 7.75842C4.72187 9.1414 5.51233 10.3982 6.5473 11.4375C7.58227 12.4768 8.83575 13.2725 10.2167 13.7667C10.9167 14.0501 11.1917 13.5251 11.5667 12.8001L11.8084 12.3417L15.6667 13.2251V13.5001C15.6645 14.074 15.4355 14.6239 15.0297 15.0297C14.6238 15.4356 14.074 15.6646 13.5 15.6667Z" fill="url(#paint1_linear)"/>
<defs>
<linearGradient id="paint0_linear" x1="9" y1="4" x2="14.9782" y2="5.86579" gradientUnits="userSpaceOnUse">
<stop stop-color="#30CF96"/>
<stop offset="1" stop-color="#1FA07A"/>
</linearGradient>
<linearGradient id="paint1_linear" x1="0.666687" y1="0.666748" x2="20.594" y2="6.88606" gradientUnits="userSpaceOnUse">
<stop stop-color="#30CF96"/>
<stop offset="1" stop-color="#1FA07A"/>
</linearGradient>
</defs>
</svg>
