<svg width="30" height="28" viewBox="0 0 30 28" fill="none" xmlns="http://www.w3.org/2000/svg">
<g filter="url(#filter0_d)">
<path d="M26.1946 19.5683L21.7908 15.5643C21.5826 15.3751 21.3091 15.2742 21.0279 15.2829C20.7468 15.2916 20.48 15.4092 20.2839 15.6109L17.6915 18.277C17.0675 18.1578 15.813 17.7667 14.5216 16.4787C13.2303 15.1862 12.8392 13.9285 12.7233 13.3088L15.3872 10.7153C15.5892 10.5194 15.707 10.2526 15.7156 9.9713C15.7243 9.69005 15.6233 9.41646 15.4338 9.20841L11.4309 4.80574C11.2414 4.59705 10.9779 4.47046 10.6966 4.45286C10.4152 4.43526 10.138 4.52804 9.92397 4.71149L7.57314 6.72758C7.38584 6.91555 7.27405 7.16573 7.25897 7.43066C7.24272 7.70149 6.93289 14.117 11.9076 19.0938C16.2474 23.4326 21.6836 23.75 23.1807 23.75C23.3996 23.75 23.5339 23.7435 23.5696 23.7413C23.8345 23.7265 24.0846 23.6142 24.2716 23.4261L26.2866 21.0742C26.4708 20.8608 26.5643 20.5839 26.5471 20.3025C26.5299 20.0212 26.4034 19.7577 26.1946 19.5683Z" fill="url(#paint0_linear)"/>
</g>
<defs>
<filter id="filter0_d" x="-3" y="-3" width="34" height="34" filterUnits="userSpaceOnUse" color-interpolation-filters="sRGB">
<feFlood flood-opacity="0" result="BackgroundImageFix"/>
<feColorMatrix in="SourceAlpha" type="matrix" values="0 0 0 0 0 0 0 0 0 0 0 0 0 0 0 0 0 0 127 0"/>
<feOffset dx="-3"/>
<feGaussianBlur stdDeviation="2"/>
<feColorMatrix type="matrix" values="0 0 0 0 0 0 0 0 0 0 0 0 0 0 0 0 0 0 0.15 0"/>
<feBlend mode="normal" in2="BackgroundImageFix" result="effect1_dropShadow"/>
<feBlend mode="normal" in="SourceGraphic" in2="effect1_dropShadow" result="shape"/>
</filter>
<linearGradient id="paint0_linear" x1="7.25" y1="4.45074" x2="30.3247" y2="11.6523" gradientUnits="userSpaceOnUse">
<stop stop-color="#30CF96"/>
<stop offset="1" stop-color="#1FA07A"/>
</linearGradient>
</defs>
</svg>
