<svg width="25" height="25" viewBox="0 0 25 25" fill="none" xmlns="http://www.w3.org/2000/svg">
<path d="M11.4583 8.33333C10.6295 8.33333 9.83468 8.66257 9.24862 9.24862C8.66257 9.83468 8.33333 10.6295 8.33333 11.4583C8.33333 11.7346 8.22359 11.9996 8.02824 12.1949C7.83289 12.3903 7.56793 12.5 7.29167 12.5C7.0154 12.5 6.75045 12.3903 6.5551 12.1949C6.35975 11.9996 6.25 11.7346 6.25 11.4583C6.25 10.077 6.79873 8.75224 7.77549 7.77549C8.75224 6.79873 10.077 6.25 11.4583 6.25C11.7346 6.25 11.9996 6.35975 12.1949 6.5551C12.3903 6.75045 12.5 7.0154 12.5 7.29167C12.5 7.56793 12.3903 7.83289 12.1949 8.02824C11.9996 8.22359 11.7346 8.33333 11.4583 8.33333Z" fill="url(#paint0_linear)"/>
<path d="M11.4584 4.16668C9.52454 4.16668 7.66988 4.9349 6.30243 6.30236C4.93498 7.66981 4.16675 9.52447 4.16675 11.4583C4.16675 11.7346 4.057 11.9996 3.86165 12.1949C3.6663 12.3903 3.40135 12.5 3.12508 12.5C2.84881 12.5 2.58386 12.3903 2.38851 12.1949C2.19316 11.9996 2.08342 11.7346 2.08342 11.4583C2.08342 8.97194 3.07114 6.58737 4.82929 4.82922C6.58744 3.07106 8.97201 2.08334 11.4584 2.08334C11.7347 2.08334 11.9996 2.19309 12.195 2.38844C12.3903 2.58379 12.5001 2.84874 12.5001 3.12501C12.5001 3.40128 12.3903 3.66623 12.195 3.86158C11.9996 4.05693 11.7347 4.16668 11.4584 4.16668ZM2.34383 16.5729C2.40113 16.4057 2.50003 16.2558 2.63124 16.1374C2.76245 16.0189 2.92164 15.9358 3.09383 15.8958L9.34383 14.4688C9.51348 14.4303 9.69006 14.4349 9.85746 14.4822C10.0249 14.5295 10.1777 14.618 10.3022 14.7396C10.448 14.875 10.4584 14.8854 11.1355 16.1771C13.3822 15.1418 15.1824 13.3342 16.2084 11.0833C14.8855 10.4167 14.8751 10.4167 14.7397 10.2604C14.6181 10.136 14.5296 9.98312 14.4823 9.81572C14.435 9.64832 14.4304 9.47174 14.4688 9.30209L15.8959 3.12501C15.9359 2.95282 16.019 2.79363 16.1374 2.66242C16.2559 2.53121 16.4058 2.4323 16.573 2.37501C16.8163 2.28812 17.0675 2.22532 17.323 2.18751C17.5863 2.12646 17.8549 2.09157 18.1251 2.08334C19.3959 2.08334 20.6147 2.58818 21.5133 3.48679C22.4119 4.3854 22.9167 5.60418 22.9167 6.87501C22.9112 11.1278 21.2194 15.2049 18.2122 18.2121C15.205 21.2193 11.1279 22.9112 6.87508 22.9167C6.24583 22.9167 5.62274 22.7927 5.04139 22.5519C4.46004 22.3111 3.93181 21.9582 3.48686 21.5132C3.04192 21.0683 2.68896 20.5401 2.44816 19.9587C2.20736 19.3773 2.08342 18.7543 2.08342 18.125C2.08309 17.8599 2.10399 17.5951 2.14591 17.3333C2.18969 17.0746 2.25592 16.8202 2.34383 16.5729ZM6.87508 20.8333C10.5762 20.8306 14.125 19.3591 16.7421 16.742C19.3592 14.1249 20.8307 10.5761 20.8334 6.87501C20.8307 6.15756 20.5444 5.47028 20.0371 4.96296C19.5298 4.45564 18.8425 4.16942 18.1251 4.16668H17.7813L16.6667 9.00001L17.2292 9.29168C18.1251 9.76043 18.8334 10.1354 18.4584 10.9479C17.8478 12.6767 16.8597 14.2476 15.566 15.5468C14.2723 16.8459 12.7054 17.8405 10.9792 18.4583C10.1042 18.8125 9.7605 18.1563 9.29175 17.25L8.98967 16.6771L4.16675 17.7813V18.125C4.16949 18.8425 4.45572 19.5297 4.96303 20.0371C5.47035 20.5444 6.15763 20.8306 6.87508 20.8333Z" fill="url(#paint1_linear)"/>
<defs>
<linearGradient id="paint0_linear" x1="12.5" y1="6.25" x2="5.74224" y2="6.8582" gradientUnits="userSpaceOnUse">
<stop stop-color="#F39375"/>
<stop offset="1" stop-color="#EC614E"/>
</linearGradient>
<linearGradient id="paint1_linear" x1="22.9167" y1="2.08334" x2="0.390871" y2="4.11067" gradientUnits="userSpaceOnUse">
<stop stop-color="#F39375"/>
<stop offset="1" stop-color="#EC614E"/>
</linearGradient>
</defs>
</svg>
