<svg width="27" height="26" viewBox="0 0 27 26" fill="none" xmlns="http://www.w3.org/2000/svg">
<rect x="0.00390625" width="26" height="26" fill="white"/>
<g clip-path="url(#clip0)">
<path d="M18.267 15.4727C18.2472 15.4563 16.0013 13.849 15.3919 13.9544C15.099 14.0061 14.9314 14.2056 14.5958 14.6058C14.5418 14.6702 14.4117 14.8244 14.3112 14.9343C14.099 14.8651 13.8921 14.7809 13.692 14.6823C12.6591 14.1794 11.8245 13.3448 11.3217 12.3119C11.223 12.1118 11.1388 11.9049 11.0697 11.6927C11.1799 11.5919 11.3344 11.4618 11.4004 11.4062C11.7983 11.0725 11.9978 10.9049 12.0495 10.6116C12.1557 10.0045 10.5477 7.75675 10.5312 7.7365C10.4579 7.63265 10.3626 7.54635 10.2519 7.48383C10.1413 7.42132 10.0182 7.38414 9.89141 7.375C9.23966 7.375 7.37891 9.7885 7.37891 10.1954C7.37891 10.219 7.41303 12.6205 10.3744 15.6329C13.3834 18.5909 15.7849 18.625 15.8085 18.625C16.2154 18.625 18.6289 16.7642 18.6289 16.1125C18.6198 15.9857 18.5826 15.8625 18.52 15.7519C18.4574 15.6412 18.371 15.5459 18.267 15.4727ZM15.7673 17.8727C15.4395 17.8457 13.4243 17.5799 10.9047 15.1045C8.41653 12.5714 8.15741 10.5505 8.13153 10.2374C8.62307 9.46587 9.2167 8.76438 9.89628 8.152C9.91128 8.167 9.93116 8.1895 9.95666 8.21875C10.4778 8.93021 10.9268 9.69185 11.2969 10.4924C11.1766 10.6135 11.0493 10.7275 10.9159 10.834C10.709 10.9917 10.519 11.1704 10.3489 11.3672L10.2578 11.4948L10.2848 11.6489C10.3641 11.9926 10.4857 12.3253 10.6467 12.6392C11.2234 13.8235 12.1803 14.7803 13.3647 15.3569C13.6785 15.5181 14.0112 15.6398 14.355 15.7191L14.5092 15.7461L14.6367 15.655C14.8343 15.4842 15.0137 15.2934 15.1722 15.0858C15.2895 14.9455 15.4467 14.7584 15.5059 14.7055C16.3087 15.0752 17.0723 15.5247 17.7852 16.0472C17.8163 16.0735 17.838 16.0938 17.8527 16.1069C17.2404 16.7867 16.5389 17.3804 15.7673 17.872V17.8727Z" fill="#2B2A29"/>
</g>
<defs>
<clipPath id="clip0">
<rect width="12" height="12" fill="white" transform="translate(7.00391 7)"/>
</clipPath>
</defs>
</svg>
