<svg xmlns="http://www.w3.org/2000/svg" width="73.228" height="64.058" viewBox="0 0 73.228 64.058">
  <g id="Сгруппировать_209" data-name="Сгруппировать 209" transform="translate(-1811.772 -199.971)">
    <path id="Контур_1198" data-name="Контур 1198" d="M72.668,14.083,69.877,8.089a5.555,5.555,0,0,0-3.624-3.011A122.03,122.03,0,0,0,36.725,1a125.652,125.652,0,0,0-30.6,4.274A5.651,5.651,0,0,0,3.358,8.062L.553,14.088A5.468,5.468,0,0,0,0,16.467v3.981l0,.188a3.25,3.25,0,0,0,3.249,3.249l.151,0H14.921a3.478,3.478,0,0,0,3.4-3.478l-.009-.243V16.271a2.974,2.974,0,0,1,1.364-2.5,31.633,31.633,0,0,1,17.041-3.62A31.871,31.871,0,0,1,53.72,13.759a3.008,3.008,0,0,1,1.2,2.421v3.99A3.478,3.478,0,0,0,58.3,23.876H69.836l.142,0a3.249,3.249,0,0,0,3.249-3.249l0-.2V16.463a5.528,5.528,0,0,0-.563-2.411Z" transform="translate(1811.773 198.97)" fill="#fff"/>
    <path id="Контур_1199" data-name="Контур 1199" d="M51.334,20.1a21.644,21.644,0,0,1-4.58-13.362l0-.384V5H42.183V9.576h-18.3V5H19.3V6.51l0,.366a21.69,21.69,0,0,1-4.617,13.407L1,37.031V50.759H65.062V37.031Zm-18.3,21.507A13.728,13.728,0,1,1,46.759,27.879,13.728,13.728,0,0,1,33.031,41.607Z" transform="translate(1815.353 213.27)" fill="#fff"/>
    <path id="Контур_1200" data-name="Контур 1200" d="M24.3,16.99A9.152,9.152,0,1,1,15.15,8.045,9.152,9.152,0,0,1,24.3,16.99Z" transform="translate(1833.234 224.159)" fill="#fff"/>
  </g>
</svg>
