<svg width="16" height="16" viewBox="0 0 16 16" fill="none" xmlns="http://www.w3.org/2000/svg">
<path d="M2.55535 2.66671H5.54864L6.51345 5.07873L4.96353 6.11201C4.77807 6.23565 4.66666 6.44381 4.66666 6.66671C4.66836 6.72913 4.66667 6.66737 4.66667 6.66737L4.66667 6.66807L4.66667 6.66957L4.66669 6.67293L4.66679 6.68115C4.66689 6.6873 4.66705 6.69476 4.66734 6.7035C4.6679 6.72098 4.66892 6.74357 4.67075 6.77095C4.67439 6.82568 4.68127 6.89967 4.6942 6.99016C4.72004 7.17102 4.77018 7.41878 4.86754 7.71086C5.06303 8.29733 5.44715 9.05667 6.19526 9.80478C6.94337 10.5529 7.70271 10.937 8.28918 11.1325C8.58126 11.2299 8.82902 11.28 9.00988 11.3058C9.10037 11.3188 9.17436 11.3256 9.22909 11.3293C9.25646 11.3311 9.27906 11.3321 9.29654 11.3327C9.30528 11.333 9.31274 11.3332 9.31888 11.3333L9.32711 11.3333L9.33047 11.3334L9.33196 11.3334L9.33266 11.3334C9.33266 11.3334 9.40709 11.3293 9.33333 11.3334C9.58584 11.3334 9.81669 11.1907 9.92962 10.9648L10.3761 10.0719L13.3333 10.5648V13.4447C11.9259 13.6482 8.12494 13.8488 5.13807 10.862C2.1512 7.8751 2.35181 4.07411 2.55535 2.66671ZM6.0491 6.99076L7.25305 6.18813C7.77767 5.83838 7.98559 5.16896 7.75142 4.58354L6.78661 2.17152C6.58413 1.66531 6.09385 1.33337 5.54864 1.33337H2.52052C1.91484 1.33337 1.34472 1.75415 1.24529 2.41131C1.01909 3.90638 0.711188 8.32071 4.19526 11.8048C7.67933 15.2889 12.0937 14.981 13.5887 14.7547C14.2459 14.6553 14.6667 14.0852 14.6667 13.4795V10.5648C14.6667 9.91301 14.1954 9.35675 13.5525 9.2496L10.5953 8.75673C10.0179 8.6605 9.44528 8.95209 9.18351 9.47563L8.95252 9.93762C8.87991 9.91981 8.79886 9.89693 8.71082 9.86759C8.29729 9.72974 7.72329 9.4472 7.13807 8.86197C6.55284 8.27674 6.2703 7.70275 6.13245 7.28922C6.09521 7.17748 6.06839 7.07701 6.0491 6.99076Z" fill="white"/>
</svg>
