<svg width="111" height="111" viewBox="0 0 111 111" fill="none" xmlns="http://www.w3.org/2000/svg">
<path d="M52 14.5005L25.5 42.5005L28 48.5005H34.5L62 23.5005L52 14.5005Z" fill="white"/>
<path d="M2.01922 45.5877L7.05041 50.0483C8.06244 49.7709 9.12609 49.62 10.225 49.62H91.7121L57.4274 19.2244L50.1583 27.4237L45.2698 23.0896L52.5389 14.8903L39.4903 3.32199C38.3509 2.3117 36.9298 1.81494 35.5149 1.81494C33.8571 1.81494 32.2072 2.49616 31.0234 3.83116L23.472 12.3488L24.4191 13.1886C26.5941 15.1168 27.8882 17.7768 28.0626 20.6785C28.2371 23.5802 27.2712 26.3761 25.343 28.5511C23.4145 30.7263 20.7545 32.0202 17.8528 32.1946C17.6296 32.2081 17.4066 32.2146 17.1851 32.2146C14.5242 32.2146 11.9882 31.2549 9.98023 29.4745L9.03331 28.635L1.51026 37.1208C0.447271 38.3197 -0.0849871 39.8605 0.0110546 41.4597C0.107096 43.0588 0.820331 44.525 2.01922 45.5877ZM40.6881 28.2573L45.5766 32.5916L40.9941 37.7604L36.1055 33.4262L40.6881 28.2573ZM31.5082 38.6118L36.3967 42.9458L31.8141 48.1146L26.9256 43.7806L31.5082 38.6118Z" fill="#BB2539"/>
<path d="M105.843 56.1533H33.0617V66.3316H26.5282V56.1533H10.2246C7.19748 56.1533 4.73438 58.6162 4.73438 61.6436V72.204H6.81397C12.5845 72.204 17.2795 76.8987 17.2795 82.6695C17.2795 88.4401 12.5845 93.1348 6.81397 93.1348H4.73438V103.695C4.73438 106.723 7.19748 109.186 10.2246 109.186H26.528V99.0073H33.0614V109.186H105.843C108.686 109.186 111 106.872 111 104.029V61.3104C111 58.4668 108.686 56.1533 105.843 56.1533ZM33.0617 92.4688H26.5282V85.9395H33.0617V92.4688ZM33.0617 79.3889H26.5282V72.8596H33.0617V79.3889ZM92.1454 84.2454H80.5872L74.2381 96.0367L68.4856 92.9392L73.1668 84.2454H63.6902L59.4714 90.1516L54.1549 86.354L57.7424 81.3317L53.4641 77.0534L58.0839 72.4336L63.3623 77.7117H73.167L68.4858 69.0179L74.2383 65.9204L80.5875 77.7117H92.1456V84.2454H92.1454Z" fill="#BB2539"/>
</svg>
