<svg width="58" height="58" viewBox="0 0 58 58" fill="none" xmlns="http://www.w3.org/2000/svg">
<path d="M29 57.5C25.1 57.5 21.4125 56.75 17.9375 55.25C14.4625 53.75 11.4375 51.7125 8.8625 49.1375C6.2875 46.5625 4.25 43.5375 2.75 40.0625C1.25 36.5875 0.5 32.9 0.5 29C0.5 25.1 1.25 21.4125 2.75 17.9375C4.25 14.4625 6.2875 11.4375 8.8625 8.8625C11.4375 6.2875 14.4625 4.25 17.9375 2.75C21.4125 1.25 25.1 0.5 29 0.5C32.9 0.5 36.5875 1.25 40.0625 2.75C43.5375 4.25 46.5625 6.2875 49.1375 8.8625C51.7125 11.4375 53.75 14.4625 55.25 17.9375C56.75 21.4125 57.5 25.1 57.5 29C57.5 32.9 56.75 36.5875 55.25 40.0625C53.75 43.5375 51.7125 46.5625 49.1375 49.1375C46.5625 51.7125 43.5375 53.75 40.0625 55.25C36.5875 56.75 32.9 57.5 29 57.5ZM29 54.125C35.9 54.125 41.8125 51.6625 46.7375 46.7375C51.6625 41.8125 54.125 35.9 54.125 29C54.125 22.1 51.6625 16.1875 46.7375 11.2625C41.8125 6.3375 35.9 3.875 29 3.875C22.1 3.875 16.1875 6.3375 11.2625 11.2625C6.3375 16.1875 3.875 22.1 3.875 29C3.875 35.9 6.3375 41.8125 11.2625 46.7375C16.1875 51.6625 22.1 54.125 29 54.125Z" fill="white"/>
<path d="M22.25 35.9304V20.7804C22.25 19.8804 22.625 19.2179 23.375 18.7929C24.125 18.3679 24.85 18.4054 25.55 18.9054L37.55 26.5554C38.2 27.0054 38.525 27.6054 38.525 28.3554C38.525 29.1054 38.2 29.7054 37.55 30.1554L25.55 37.8054C24.85 38.3054 24.125 38.3429 23.375 37.9179C22.625 37.4929 22.25 36.8304 22.25 35.9304Z" stroke="white" stroke-width="2.1"/>
</svg>
