<svg width="24" height="24" viewBox="0 0 24 24" fill="none" xmlns="http://www.w3.org/2000/svg">
<path d="M16.565 2.74893L16.5643 2.74829C16.4452 2.63004 16.2907 2.575 16.1133 2.575C15.9482 2.575 15.8016 2.63269 15.679 2.7447L15.6787 2.74501C15.5501 2.86328 15.4883 3.01908 15.4883 3.2L15.4883 19.5232L13.9304 17.9654C13.8214 17.8372 13.6735 17.775 13.5003 17.775C13.3324 17.775 13.1827 17.8253 13.0583 17.929L13.0579 17.9286L13.0499 17.9366C12.9246 18.0619 12.8655 18.2177 12.8755 18.395L12.8755 18.3957C12.8857 18.5611 12.9404 18.7078 13.0423 18.83L13.0418 18.8304L13.0504 18.8388L15.4499 21.2134C15.45 21.2135 15.4501 21.2135 15.4501 21.2136C15.5575 21.321 15.6681 21.4007 15.7824 21.4424L15.7827 21.4425C15.8887 21.4809 15.9991 21.5 16.1133 21.5C16.2275 21.5 16.3377 21.4809 16.4431 21.4424L16.4003 21.325L16.4429 21.4425C16.5579 21.4008 16.6689 21.3211 16.7764 21.2136C16.7765 21.2135 16.7766 21.2135 16.7767 21.2134L19.1762 18.8389L19.1762 18.8389L19.1767 18.8384C19.3001 18.715 19.3633 18.5625 19.3633 18.388C19.3633 18.2147 19.301 18.0668 19.1727 17.9577C19.0498 17.8367 18.8984 17.775 18.7253 17.775C18.5579 17.775 18.4112 17.8253 18.2999 17.9366L18.2999 17.9366L18.2993 17.9372L16.7383 19.5202L16.7383 3.2C16.7383 3.02261 16.6832 2.86804 16.565 2.74893Z" fill="black" stroke="black" stroke-width="0.25"/>
<path d="M8.78475 20.7696C8.64075 20.9232 8.4625 21 8.25 21C8.0375 21 7.8595 20.9267 7.716 20.78C7.572 20.6333 7.5 20.4467 7.5 20.22V14.6H6.75C6.5375 14.6 6.3595 14.5235 6.216 14.3704C6.072 14.2168 6 14.0267 6 13.8C6 13.5733 6.06875 13.3832 6.20625 13.2296C6.34375 13.0765 6.51875 13 6.73125 13H8.25C8.4625 13 8.64075 13.0765 8.78475 13.2296C8.92825 13.3832 9 13.5733 9 13.8V20.2C9 20.4267 8.92825 20.6165 8.78475 20.7696Z" fill="black"/>
<path d="M6.66667 11H8.33333C8.79167 11 9.18417 10.8432 9.51083 10.5296C9.83694 10.2165 10 9.84 10 9.4V4.6C10 4.16 9.83694 3.78347 9.51083 3.4704C9.18417 3.1568 8.79167 3 8.33333 3H6.66667C6.20833 3 5.81611 3.1568 5.49 3.4704C5.16333 3.78347 5 4.16 5 4.6V6.2C5 6.64 5.16333 7.01653 5.49 7.3296C5.81611 7.6432 6.20833 7.8 6.66667 7.8H8.33333V9.4H6.64583C6.40972 9.4 6.21528 9.47653 6.0625 9.6296C5.90972 9.7832 5.83333 9.97333 5.83333 10.2C5.83333 10.4267 5.91333 10.6165 6.07333 10.7696C6.23278 10.9232 6.43056 11 6.66667 11ZM8.33333 6.2H6.66667V4.6H8.33333V6.2Z" fill="black"/>
</svg>
