<svg width="53" height="46" fill="none" xmlns="http://www.w3.org/2000/svg"><path d="M29.864 8.685h-7.127v3.563l-2.672 2.228-3.118-2.228-4.008 5.345 3.117 2.227v4.009l-2.672 1.781 3.563 5.345 3.118-1.781 2.672 1.781v3.563h7.127v-3.563l2.672-1.781 3.118 1.781 3.563-5.345-3.563-1.781V19.82l3.563-2.227-3.563-5.345-3.118 2.228-2.672-2.228V8.685z" stroke="#F70" stroke-width="1.5" stroke-linecap="round" stroke-linejoin="round"/><path fill-rule="evenodd" clip-rule="evenodd" d="M26.3 26.056a4.454 4.454 0 100-8.908 4.454 4.454 0 000 8.908zm0 1.336a5.79 5.79 0 100-11.58 5.79 5.79 0 000 11.58zm.446-26.056a20.638 20.638 0 00-14.24 5.671.668.668 0 01-.918-.97A21.974 21.974 0 0126.746 0a21.974 21.974 0 0115.157 6.037.668.668 0 01-.46 1.153h-7.126a.668.668 0 110-1.336h5.342a20.621 20.621 0 00-12.913-4.518zM43.93 32.024a20.637 20.637 0 002.209-15.166.668.668 0 111.3-.31 21.974 21.974 0 01-2.352 16.144 21.974 21.974 0 01-12.806 10.109.668.668 0 01-.77-.975l3.564-6.171a.668.668 0 111.157.668l-2.67 4.626a20.62 20.62 0 0010.368-8.925zm-35.09 0a20.637 20.637 0 0012.03 9.496.668.668 0 01-.38 1.28A21.973 21.973 0 017.683 32.693a21.974 21.974 0 01-2.35-16.145.668.668 0 011.228-.179l3.563 6.172a.668.668 0 11-1.157.668l-2.671-4.626A20.62 20.62 0 008.84 32.024z" fill="#F70"/></svg>