<svg width="20" height="20" viewBox="0 0 20 20" fill="none" xmlns="http://www.w3.org/2000/svg">
<path d="M17.105 7.43799L15.9877 15.8405C15.9877 17.033 15.0978 18.012 14.0076 18.012H4.48414C3.39388 18.012 2.50395 17.033 2.50395 15.8405L1.38672 7.43799" stroke="#FE5900" stroke-miterlimit="10"/>
<mask id="path-2-inside-1_0_890" fill="white">
<path d="M17.7216 4.23445V7.6607H0.770503V4.23445H17.7216ZM17.7216 3.45752H0.770503C0.346726 3.45752 0 3.80714 0 4.23445V7.6607C0 8.08801 0.346726 8.43762 0.770503 8.43762H17.7216C18.1453 8.43762 18.4921 8.08801 18.4921 7.6607V4.23445C18.4921 3.80714 18.1453 3.45752 17.7216 3.45752Z"/>
</mask>
<path d="M17.7216 4.23445V7.6607H0.770503V4.23445H17.7216ZM17.7216 3.45752H0.770503C0.346726 3.45752 0 3.80714 0 4.23445V7.6607C0 8.08801 0.346726 8.43762 0.770503 8.43762H17.7216C18.1453 8.43762 18.4921 8.08801 18.4921 7.6607V4.23445C18.4921 3.80714 18.1453 3.45752 17.7216 3.45752Z" fill="#FE5900"/>
<path d="M17.7216 4.23445H18.7216V3.23445H17.7216V4.23445ZM17.7216 7.6607V8.6607H18.7216V7.6607H17.7216ZM0.770503 7.6607H-0.229497V8.6607H0.770503V7.6607ZM0.770503 4.23445V3.23445H-0.229497V4.23445H0.770503ZM16.7216 4.23445V7.6607H18.7216V4.23445H16.7216ZM17.7216 6.6607H0.770503V8.6607H17.7216V6.6607ZM1.7705 7.6607V4.23445H-0.229497V7.6607H1.7705ZM0.770503 5.23445H17.7216V3.23445H0.770503V5.23445ZM17.7216 2.45752H0.770503V4.45752H17.7216V2.45752ZM0.770503 2.45752C-0.213371 2.45752 -1 3.2627 -1 4.23445H1C1 4.35158 0.906823 4.45752 0.770503 4.45752V2.45752ZM-1 4.23445V7.6607H1V4.23445H-1ZM-1 7.6607C-1 8.63245 -0.213371 9.43762 0.770503 9.43762V7.43762C0.906823 7.43762 1 7.54357 1 7.6607H-1ZM0.770503 9.43762H17.7216V7.43762H0.770503V9.43762ZM17.7216 9.43762C18.7054 9.43762 19.4921 8.63245 19.4921 7.6607H17.4921C17.4921 7.54357 17.5852 7.43762 17.7216 7.43762V9.43762ZM19.4921 7.6607V4.23445H17.4921V7.6607H19.4921ZM19.4921 4.23445C19.4921 3.2627 18.7054 2.45752 17.7216 2.45752V4.45752C17.5852 4.45752 17.4921 4.35158 17.4921 4.23445H19.4921Z" fill="#FE5900" mask="url(#path-2-inside-1_0_890)"/>
<path d="M2.38086 1.17139L4.8118 4.45779" stroke="#FE5900" stroke-miterlimit="10" stroke-linecap="round"/>
<path d="M16.1116 1.17139L13.6807 4.45779" stroke="#FE5900" stroke-miterlimit="10" stroke-linecap="round"/>
</svg>
