<svg width="26" height="26" viewBox="0 0 26 26" fill="none" xmlns="http://www.w3.org/2000/svg">
<g clip-path="url(#clip0)">
<path d="M21.7954 0H19.7514C19.5413 0 19.371 0.170299 19.371 0.380472C19.371 0.590645 19.5413 0.760944 19.7514 0.760944H21.7433V3.03201H4.25704V0.760944H17.998C18.2081 0.760944 18.3784 0.590645 18.3784 0.380472C18.3784 0.170299 18.2081 0 17.998 0H4.20494C3.81407 0 3.49609 0.318024 3.49609 0.708896V25.2911C3.49609 25.682 3.81407 26 4.20494 26H21.7954C22.1863 26 22.5042 25.682 22.5042 25.2911V0.708896C22.5042 0.318024 22.1862 0 21.7954 0V0ZM21.7433 25.2391H4.25704V3.79295H21.7433V25.2391Z" fill="white"/>
<path d="M6.12657 2.27706C6.3367 2.27706 6.50704 2.10671 6.50704 1.89659C6.50704 1.68646 6.3367 1.51611 6.12657 1.51611C5.91644 1.51611 5.74609 1.68646 5.74609 1.89659C5.74609 2.10671 5.91644 2.27706 6.12657 2.27706Z" fill="white"/>
<path d="M8.09043 2.27706C8.30056 2.27706 8.4709 2.10671 8.4709 1.89659C8.4709 1.68646 8.30056 1.51611 8.09043 1.51611C7.8803 1.51611 7.70996 1.68646 7.70996 1.89659C7.70996 2.10671 7.8803 2.27706 8.09043 2.27706Z" fill="white"/>
<path d="M10.0543 2.27706C10.2644 2.27706 10.4348 2.10671 10.4348 1.89659C10.4348 1.68646 10.2644 1.51611 10.0543 1.51611C9.84417 1.51611 9.67383 1.68646 9.67383 1.89659C9.67383 2.10671 9.84417 2.27706 10.0543 2.27706Z" fill="white"/>
<path d="M15.1246 5.82833H20.0824C20.2925 5.82833 20.4629 5.65803 20.4629 5.44786C20.4629 5.23768 20.2925 5.06738 20.0824 5.06738H15.1246C14.9145 5.06738 14.7441 5.23768 14.7441 5.44786C14.7441 5.65803 14.9145 5.82833 15.1246 5.82833Z" fill="white"/>
<path d="M20.082 6.94238H17.9977C17.7875 6.94238 17.6172 7.11268 17.6172 7.32285C17.6172 7.53303 17.7875 7.70333 17.9977 7.70333H20.082C20.2922 7.70333 20.4625 7.53303 20.4625 7.32285C20.4625 7.11268 20.2922 6.94238 20.082 6.94238Z" fill="white"/>
<path d="M15.1246 7.70333H16.2339C16.444 7.70333 16.6144 7.53303 16.6144 7.32285C16.6144 7.11268 16.444 6.94238 16.2339 6.94238H15.1246C14.9145 6.94238 14.7441 7.11268 14.7441 7.32285C14.7441 7.53303 14.9145 7.70333 15.1246 7.70333Z" fill="white"/>
<path d="M15.1246 9.57857H20.0824C20.2925 9.57857 20.4629 9.40827 20.4629 9.1981C20.4629 8.98793 20.2925 8.81763 20.0824 8.81763H15.1246C14.9145 8.81763 14.7441 8.98793 14.7441 9.1981C14.7441 9.40827 14.9145 9.57857 15.1246 9.57857Z" fill="white"/>
<path d="M20.0822 10.6926H18.776C18.5659 10.6926 18.3955 10.8629 18.3955 11.0731C18.3955 11.2833 18.5659 11.4536 18.776 11.4536H20.0822C20.2923 11.4536 20.4627 11.2833 20.4627 11.0731C20.4627 10.8629 20.2923 10.6926 20.0822 10.6926Z" fill="white"/>
<path d="M15.1246 11.4536H17.0006C17.2107 11.4536 17.381 11.2833 17.381 11.0731C17.381 10.8629 17.2107 10.6926 17.0006 10.6926H15.1246C14.9145 10.6926 14.7441 10.8629 14.7441 11.0731C14.7441 11.2833 14.9145 11.4536 15.1246 11.4536Z" fill="white"/>
<path d="M15.1246 13.3288H20.0824C20.2925 13.3288 20.4629 13.1585 20.4629 12.9483C20.4629 12.7382 20.2925 12.5679 20.0824 12.5679H15.1246C14.9145 12.5679 14.7441 12.7382 14.7441 12.9483C14.7441 13.1585 14.9145 13.3288 15.1246 13.3288Z" fill="white"/>
<path d="M6.12101 18.1045H19.8784C20.2004 18.1045 20.4624 17.8425 20.4624 17.5205V15.262C20.4624 14.9399 20.2004 14.678 19.8784 14.678H10.2505C10.0404 14.678 9.87003 14.8483 9.87003 15.0585C9.87003 15.2686 10.0404 15.4389 10.2505 15.4389H19.7014V17.3435H6.298V15.4389H8.50571C8.71583 15.4389 8.88618 15.2686 8.88618 15.0585C8.88618 14.8483 8.71583 14.678 8.50571 14.678H6.12106C5.79908 14.678 5.53711 14.9399 5.53711 15.262V17.5205C5.53706 17.8425 5.79903 18.1045 6.12101 18.1045Z" fill="white"/>
<path d="M20.082 19.4536H10.2506C10.0405 19.4536 9.87012 19.6239 9.87012 19.8341C9.87012 20.0443 10.0405 20.2146 10.2506 20.2146H20.082C20.2921 20.2146 20.4625 20.0443 20.4625 19.8341C20.4625 19.6239 20.2921 19.4536 20.082 19.4536Z" fill="white"/>
<path d="M5.91758 20.2146H8.45843C8.66855 20.2146 8.8389 20.0443 8.8389 19.8341C8.8389 19.6239 8.66855 19.4536 8.45843 19.4536H5.91758C5.70746 19.4536 5.53711 19.6239 5.53711 19.8341C5.53711 20.0443 5.70741 20.2146 5.91758 20.2146Z" fill="white"/>
<path d="M20.0821 21.3284H17.7789C17.5688 21.3284 17.3984 21.4987 17.3984 21.7088C17.3984 21.919 17.5688 22.0893 17.7789 22.0893H20.0821C20.2922 22.0893 20.4626 21.919 20.4626 21.7088C20.4626 21.4987 20.2922 21.3284 20.0821 21.3284Z" fill="white"/>
<path d="M5.91758 22.0893H15.988C16.1981 22.0893 16.3685 21.919 16.3685 21.7088C16.3685 21.4987 16.1981 21.3284 15.988 21.3284H5.91758C5.70746 21.3284 5.53711 21.4987 5.53711 21.7088C5.53711 21.919 5.70741 22.0893 5.91758 22.0893Z" fill="white"/>
<path d="M20.0828 23.2039H13.0006C12.7905 23.2039 12.6201 23.3742 12.6201 23.5843C12.6201 23.7945 12.7905 23.9648 13.0006 23.9648H20.0828C20.2929 23.9648 20.4633 23.7945 20.4633 23.5843C20.4633 23.3742 20.2929 23.2039 20.0828 23.2039Z" fill="white"/>
<path d="M5.91758 23.9648H11.2236C11.4337 23.9648 11.6041 23.7945 11.6041 23.5843C11.6041 23.3742 11.4337 23.2039 11.2236 23.2039H5.91758C5.70746 23.2039 5.53711 23.3742 5.53711 23.5843C5.53711 23.7945 5.70741 23.9648 5.91758 23.9648Z" fill="white"/>
<path d="M9.6631 13.3284C11.9382 13.3284 13.7891 11.4775 13.7891 9.20246C13.7891 6.92734 11.9382 5.07642 9.6631 5.07642C7.38803 5.07642 5.53711 6.92734 5.53711 9.20246C5.53711 11.4775 7.38798 13.3284 9.6631 13.3284ZM9.6631 12.5675C9.03045 12.5675 8.43823 12.3918 7.93215 12.0869C7.95006 11.9879 7.97167 11.8906 7.99683 11.7961C8.13923 11.264 8.45589 10.9255 8.81444 10.731C9.07124 10.8553 9.35918 10.9251 9.6631 10.9251C9.96682 10.9251 10.2545 10.8555 10.5111 10.7313C10.8698 10.9258 11.1869 11.264 11.3292 11.7965C11.3541 11.8891 11.3758 11.9863 11.3941 12.0868C10.888 12.3918 10.2957 12.5675 9.6631 12.5675ZM8.46994 8.97098C8.46994 8.31301 9.00519 7.77777 9.66315 7.77777C10.3211 7.77777 10.8564 8.31301 10.8564 8.97098C10.8564 9.62894 10.3211 10.1642 9.66315 10.1642C9.00519 10.1642 8.46994 9.62889 8.46994 8.97098ZM9.6631 5.83736C11.5186 5.83736 13.0281 7.34692 13.0281 9.20246C13.0281 10.1232 12.6561 10.9586 12.0547 11.5668C11.8977 11.0071 11.5792 10.5488 11.1532 10.2331C11.4423 9.89228 11.6172 9.45179 11.6172 8.97093C11.6172 7.89343 10.7406 7.01677 9.66305 7.01677C8.5855 7.01677 7.70889 7.89338 7.70889 8.97093C7.70889 9.45169 7.88371 9.89212 8.17266 10.2329C7.74689 10.5486 7.42841 11.007 7.27115 11.5666C6.6699 10.9584 6.29795 10.1231 6.29795 9.20246C6.29805 7.34692 7.80756 5.83736 9.6631 5.83736Z" fill="white"/>
</g>
<defs>
<clipPath id="clip0">
<rect width="26" height="26" fill="white"/>
</clipPath>
</defs>
</svg>
