<svg width="65" height="66" viewBox="0 0 65 66" fill="none" xmlns="http://www.w3.org/2000/svg">
<g clip-path="url(#clip0)">
<path d="M32.5056 59.3741C32.0327 59.3741 31.5693 59.2874 31.1284 59.1164C28.3642 58.044 23.0421 55.6374 18.453 51.5661C12.6108 46.383 9.64844 40.1879 9.64844 33.1528V15.6207C9.64844 14.2678 10.3755 13.0054 11.5458 12.3264C13.2807 11.3199 14.7296 9.8709 15.7361 8.13608C16.415 6.96583 17.6775 6.23877 19.0304 6.23877H45.9695C47.3225 6.23877 48.5848 6.96583 49.2638 8.13608C50.2703 9.8709 51.7192 11.3199 53.4541 12.3264C54.6245 13.0055 55.3516 14.2678 55.3516 15.6207V33.1528C55.3516 40.2042 52.3988 46.4019 46.575 51.5739C41.9852 55.6501 36.6479 58.051 33.8749 59.1194C33.4363 59.2884 32.9757 59.3741 32.5056 59.3741Z" fill="url(#paint0_linear)"/>
<path d="M59.1602 8.14307C56.0101 8.14307 53.4473 5.58026 53.4473 2.43018C53.4473 1.3785 52.5947 0.525879 51.543 0.525879H13.457C12.4054 0.525879 11.5527 1.3785 11.5527 2.43018C11.5527 5.58026 8.98993 8.14307 5.83984 8.14307C4.78816 8.14307 3.93555 8.99568 3.93555 10.0474V33.1528C3.93555 38.7332 5.43727 43.9224 8.39896 48.5764C10.7421 52.2584 13.9935 55.5992 18.0631 58.506C24.1876 62.8808 31.4568 65.5259 32.5 65.5259C33.489 65.5259 40.7238 62.9442 46.937 58.5061C51.0066 55.5993 54.258 52.2585 56.6012 48.5764C59.5627 43.9224 61.0645 38.7332 61.0645 33.1528V10.0474C61.0645 8.99568 60.2118 8.14307 59.1602 8.14307ZM53.4473 33.1528C53.4473 39.6365 50.7096 45.3551 45.3105 50.15C40.945 54.0267 35.8429 56.3204 33.1902 57.3425C32.7483 57.5127 32.2588 57.5123 31.8169 57.341C29.1721 56.3149 24.0833 54.0153 19.7168 50.1417C14.2995 45.3356 11.5527 39.6198 11.5527 33.1528V15.6207C11.5527 14.9418 11.9142 14.3143 12.5015 13.9736C14.5225 12.801 16.2108 11.1129 17.3833 9.09179C17.7239 8.5045 18.3516 8.14307 19.0304 8.14307H45.9695C46.6484 8.14307 47.2759 8.5045 47.6167 9.09179C48.7892 11.1129 50.4775 12.8011 52.4985 13.9736C53.0857 14.3144 53.4473 14.9419 53.4473 15.6207V33.1528ZM32.5 17.9185C25.1498 17.9185 19.1699 23.8983 19.1699 31.2485C19.1699 38.5987 25.1498 44.5786 32.5 44.5786C39.8502 44.5786 45.8301 38.5987 45.8301 31.2485C45.8301 23.8983 39.8502 17.9185 32.5 17.9185ZM38.0359 29.7387L32.323 35.4516C31.5795 36.1951 30.3737 36.1953 29.63 35.4516L26.7735 32.5951C26.0298 31.8514 26.0298 30.6458 26.7735 29.9021C27.5171 29.1584 28.7229 29.1584 29.4666 29.9021L30.9766 31.4119L35.343 27.0456C36.0866 26.3019 37.2924 26.3019 38.036 27.0456C38.7796 27.7892 38.7796 28.995 38.0359 29.7387Z" fill="url(#paint1_linear)"/>
</g>
<defs>
<linearGradient id="paint0_linear" x1="32.5" y1="59.3741" x2="32.5" y2="6.23877" gradientUnits="userSpaceOnUse">
<stop stop-color="#C3FFE8"/>
<stop offset="0.9973" stop-color="#F0FFF4"/>
</linearGradient>
<linearGradient id="paint1_linear" x1="32.5" y1="65.5259" x2="32.5" y2="0.525879" gradientUnits="userSpaceOnUse">
<stop stop-color="#00B59C"/>
<stop offset="1" stop-color="#9CFFAC"/>
</linearGradient>
<clipPath id="clip0">
<rect width="65" height="65" fill="white" transform="translate(0 0.525879)"/>
</clipPath>
</defs>
</svg>
