<svg width="44" height="44" viewBox="0 0 44 44" fill="none" xmlns="http://www.w3.org/2000/svg">
<path d="M31.1667 3.66699H12.8334C10.4022 3.66699 8.07063 4.63276 6.35154 6.35185C4.63246 8.07093 3.66669 10.4025 3.66669 12.8337V31.167C3.66669 33.5981 4.63246 35.9297 6.35154 37.6488C8.07063 39.3679 10.4022 40.3337 12.8334 40.3337H31.1667C33.5978 40.3337 35.9294 39.3679 37.6485 37.6488C39.3676 35.9297 40.3334 33.5981 40.3334 31.167V12.8337C40.3334 10.4025 39.3676 8.07093 37.6485 6.35185C35.9294 4.63276 33.5978 3.66699 31.1667 3.66699ZM36.6667 31.167C36.6667 32.6257 36.0872 34.0246 35.0558 35.0561C34.0243 36.0875 32.6254 36.667 31.1667 36.667H12.8334C11.3747 36.667 9.97572 36.0875 8.94427 35.0561C7.91282 34.0246 7.33335 32.6257 7.33335 31.167V12.8337C7.33335 11.375 7.91282 9.97602 8.94427 8.94457C9.97572 7.91312 11.3747 7.33366 12.8334 7.33366H31.1667C32.6254 7.33366 34.0243 7.91312 35.0558 8.94457C36.0872 9.97602 36.6667 11.375 36.6667 12.8337V31.167ZM14.6667 27.5003C14.3041 27.5003 13.9496 27.6078 13.6481 27.8093C13.3467 28.0107 13.1117 28.2971 12.9729 28.6321C12.8341 28.9671 12.7978 29.3357 12.8686 29.6913C12.9393 30.047 13.1139 30.3736 13.3703 30.63C13.6267 30.8864 13.9534 31.061 14.309 31.1318C14.6647 31.2025 15.0333 31.1662 15.3683 31.0274C15.7033 30.8887 15.9896 30.6537 16.191 30.3522C16.3925 30.0507 16.5 29.6963 16.5 29.3337C16.5 28.8474 16.3069 28.3811 15.963 28.0373C15.6192 27.6935 15.1529 27.5003 14.6667 27.5003ZM22 20.167C21.6374 20.167 21.283 20.2745 20.9815 20.476C20.68 20.6774 20.445 20.9637 20.3062 21.2987C20.1675 21.6337 20.1312 22.0024 20.2019 22.358C20.2727 22.7136 20.4473 23.0403 20.7037 23.2967C20.9601 23.5531 21.2867 23.7277 21.6424 23.7984C21.998 23.8692 22.3666 23.8329 22.7016 23.6941C23.0366 23.5553 23.3229 23.3204 23.5244 23.0189C23.7258 22.7174 23.8334 22.3629 23.8334 22.0003C23.8334 21.5141 23.6402 21.0478 23.2964 20.704C22.9526 20.3601 22.4863 20.167 22 20.167ZM14.6667 12.8337C14.3041 12.8337 13.9496 12.9412 13.6481 13.1426C13.3467 13.3441 13.1117 13.6304 12.9729 13.9654C12.8341 14.3004 12.7978 14.669 12.8686 15.0247C12.9393 15.3803 13.1139 15.707 13.3703 15.9634C13.6267 16.2198 13.9534 16.3944 14.309 16.4651C14.6647 16.5358 15.0333 16.4995 15.3683 16.3608C15.7033 16.222 15.9896 15.987 16.191 15.6855C16.3925 15.384 16.5 15.0296 16.5 14.667C16.5 14.1808 16.3069 13.7144 15.963 13.3706C15.6192 13.0268 15.1529 12.8337 14.6667 12.8337ZM29.3334 27.5003C28.9708 27.5003 28.6163 27.6078 28.3148 27.8093C28.0133 28.0107 27.7783 28.2971 27.6396 28.6321C27.5008 28.9671 27.4645 29.3357 27.5352 29.6913C27.606 30.047 27.7806 30.3736 28.037 30.63C28.2934 30.8864 28.6201 31.061 28.9757 31.1318C29.3313 31.2025 29.6999 31.1662 30.0349 31.0274C30.3699 30.8887 30.6563 30.6537 30.8577 30.3522C31.0592 30.0507 31.1667 29.6963 31.1667 29.3337C31.1667 28.8474 30.9735 28.3811 30.6297 28.0373C30.2859 27.6935 29.8196 27.5003 29.3334 27.5003ZM29.3334 12.8337C28.9708 12.8337 28.6163 12.9412 28.3148 13.1426C28.0133 13.3441 27.7783 13.6304 27.6396 13.9654C27.5008 14.3004 27.4645 14.669 27.5352 15.0247C27.606 15.3803 27.7806 15.707 28.037 15.9634C28.2934 16.2198 28.6201 16.3944 28.9757 16.4651C29.3313 16.5358 29.6999 16.4995 30.0349 16.3608C30.3699 16.222 30.6563 15.987 30.8577 15.6855C31.0592 15.384 31.1667 15.0296 31.1667 14.667C31.1667 14.1808 30.9735 13.7144 30.6297 13.3706C30.2859 13.0268 29.8196 12.8337 29.3334 12.8337Z" fill="#282B33"/>
</svg>
