<svg width="44" height="44" viewBox="0 0 44 44" fill="none" xmlns="http://www.w3.org/2000/svg">
<path d="M38.5 7.33366H33V5.50033C33 5.0141 32.8068 4.54778 32.463 4.20396C32.1192 3.86015 31.6529 3.66699 31.1666 3.66699H12.8333C12.3471 3.66699 11.8807 3.86015 11.5369 4.20396C11.1931 4.54778 11 5.0141 11 5.50033V7.33366H5.49996C5.01373 7.33366 4.54741 7.52681 4.2036 7.87063C3.85978 8.21445 3.66663 8.68076 3.66663 9.16699V14.667C3.66663 16.6119 4.43924 18.4772 5.81451 19.8524C7.18978 21.2277 9.05504 22.0003 11 22.0003H13.8233C15.4816 23.8504 17.7174 25.0846 20.1666 25.502V29.3337H18.3333C16.8746 29.3337 15.4757 29.9131 14.4442 30.9446C13.4128 31.976 12.8333 33.375 12.8333 34.8337V38.5003C12.8333 38.9866 13.0264 39.4529 13.3703 39.7967C13.7141 40.1405 14.1804 40.3337 14.6666 40.3337H29.3333C29.8195 40.3337 30.2858 40.1405 30.6297 39.7967C30.9735 39.4529 31.1666 38.9866 31.1666 38.5003V34.8337C31.1666 33.375 30.5872 31.976 29.5557 30.9446C28.5243 29.9131 27.1253 29.3337 25.6666 29.3337H23.8333V25.502C26.2825 25.0846 28.5183 23.8504 30.1766 22.0003H33C34.9449 22.0003 36.8101 21.2277 38.1854 19.8524C39.5607 18.4772 40.3333 16.6119 40.3333 14.667V9.16699C40.3333 8.68076 40.1401 8.21445 39.7963 7.87063C39.4525 7.52681 38.9862 7.33366 38.5 7.33366V7.33366ZM11 18.3337C10.0275 18.3337 9.09487 17.9474 8.40723 17.2597C7.7196 16.5721 7.33329 15.6395 7.33329 14.667V11.0003H11V14.667C11.004 15.9168 11.221 17.1568 11.6416 18.3337H11ZM25.6666 33.0003C26.1529 33.0003 26.6192 33.1935 26.963 33.5373C27.3068 33.8811 27.5 34.3474 27.5 34.8337V36.667H16.5V34.8337C16.5 34.3474 16.6931 33.8811 17.0369 33.5373C17.3807 33.1935 17.8471 33.0003 18.3333 33.0003H25.6666ZM29.3333 14.667C29.3333 16.6119 28.5607 18.4772 27.1854 19.8524C25.8101 21.2277 23.9449 22.0003 22 22.0003C20.055 22.0003 18.1898 21.2277 16.8145 19.8524C15.4392 18.4772 14.6666 16.6119 14.6666 14.667V7.33366H29.3333V14.667ZM36.6666 14.667C36.6666 15.6395 36.2803 16.5721 35.5927 17.2597C34.9051 17.9474 33.9724 18.3337 33 18.3337H32.3583C32.7789 17.1568 32.9959 15.9168 33 14.667V11.0003H36.6666V14.667Z" fill="#282B33"/>
</svg>
