<svg width="44" height="44" viewBox="0 0 44 44" fill="none" xmlns="http://www.w3.org/2000/svg">
<path d="M38.5 22.9163C38.4922 20.8868 37.8745 18.9066 36.727 17.2327C35.5794 15.5588 33.9551 14.2686 32.065 13.5296C32.065 10.8554 31.0026 8.29062 29.1117 6.39963C27.2207 4.50864 24.6559 3.44629 21.9817 3.44629C19.3074 3.44629 16.7427 4.50864 14.8517 6.39963C12.9607 8.29062 11.8983 10.8554 11.8983 13.5296C9.71136 14.3877 7.89265 15.9825 6.75621 18.0386C5.61978 20.0947 5.23695 22.4831 5.67383 24.7914C6.11071 27.0997 7.33988 29.183 9.14911 30.6817C10.9583 32.1803 13.234 33.0001 15.5833 32.9996H15.95C15.4869 34.5951 14.7144 36.0839 13.6767 37.3813C13.4689 37.6511 13.3404 37.9734 13.3056 38.3122C13.2707 38.6509 13.3309 38.9926 13.4794 39.2991C13.6279 39.6055 13.8587 39.8646 14.1462 40.0472C14.4336 40.2298 14.7662 40.3288 15.1067 40.333H28.8933C29.2403 40.3341 29.5804 40.2369 29.8742 40.0524C30.1681 39.868 30.4036 39.6039 30.5533 39.291C30.7031 38.9781 30.761 38.629 30.7202 38.2845C30.6795 37.94 30.5419 37.6141 30.3233 37.3446C29.2898 36.0582 28.5175 34.5822 28.05 32.9996H28.4167C31.0894 32.9948 33.6514 31.9309 35.5413 30.0409C37.4312 28.151 38.4951 25.5891 38.5 22.9163ZM18.4433 36.6663C19.1731 35.1861 19.6738 33.6036 19.9283 31.973C20.6685 31.631 21.3642 31.2 22 30.6896C22.6358 31.2 23.3315 31.631 24.0717 31.973C24.3262 33.6036 24.8269 35.1861 25.5567 36.6663H18.4433ZM23.43 26.9496L23.2833 26.803L23.1367 26.6563H23.0083L22.6783 26.4913L22.3483 26.3813H21.6517L21.3217 26.4913C21.209 26.5279 21.1036 26.5837 21.01 26.6563H20.8633L20.7167 26.803L20.57 26.9496C19.9252 27.7468 19.0988 28.3779 18.1599 28.79C17.2211 29.2021 16.1972 29.3832 15.1739 29.3182C14.1507 29.2531 13.1579 28.9438 12.2788 28.4162C11.3997 27.8886 10.6598 27.1579 10.1211 26.2855C9.58246 25.4131 9.26071 24.4243 9.18281 23.402C9.1049 22.3796 9.27312 21.3535 9.67338 20.4095C10.0736 19.4656 10.6943 18.6313 11.4833 17.9765C12.2723 17.3218 13.2068 16.8656 14.2083 16.6463C14.3099 16.6054 14.408 16.5563 14.5017 16.4996C14.6149 16.4584 14.7252 16.4094 14.8317 16.353C14.9261 16.2837 15.0122 16.2037 15.0883 16.1146C15.2722 15.9694 15.4066 15.7709 15.4733 15.5463C15.5316 15.4495 15.5749 15.3444 15.6017 15.2346C15.6195 15.113 15.6195 14.9895 15.6017 14.868C15.6105 14.7643 15.6105 14.66 15.6017 14.5563C15.5834 14.2816 15.5834 14.006 15.6017 13.7313C15.6017 12.0295 16.2777 10.3974 17.4811 9.19402C18.6844 7.99066 20.3165 7.31462 22.0183 7.31462C23.7201 7.31462 25.3522 7.99066 26.5556 9.19402C27.759 10.3974 28.435 12.0295 28.435 13.7313C28.4532 14.006 28.4532 14.2816 28.435 14.5563C28.4253 14.6538 28.4253 14.7521 28.435 14.8496C28.4167 14.9773 28.4167 15.1069 28.435 15.2346C28.4618 15.3444 28.5051 15.4495 28.5633 15.5463C28.63 15.7709 28.7645 15.9694 28.9483 16.1146C29.0244 16.2037 29.1105 16.2837 29.205 16.353C29.3115 16.4094 29.4217 16.4584 29.535 16.4996C29.6293 16.55 29.7273 16.5929 29.8283 16.628C30.8299 16.8473 31.7643 17.3034 32.5534 17.9582C33.3424 18.6129 33.963 19.4472 34.3633 20.3912C34.7635 21.3352 34.9317 22.3613 34.8538 23.3836C34.7759 24.406 34.4542 25.3948 33.9155 26.2672C33.3769 27.1396 32.637 27.8702 31.7579 28.3979C30.8787 28.9255 29.886 29.2348 28.8627 29.2998C27.8395 29.3649 26.8156 29.1838 25.8767 28.7717C24.9379 28.3596 24.1114 27.7285 23.4667 26.9313L23.43 26.9496Z" fill="#282B33"/>
</svg>
