<svg width="44" height="44" viewBox="0 0 44 44" fill="none" xmlns="http://www.w3.org/2000/svg">
<path d="M22.0001 27.2422C21.2893 27.2422 20.711 26.6639 20.711 25.9531C20.711 25.4339 21.02 24.9676 21.4981 24.765C22.0754 24.5206 22.7661 24.7292 23.3938 25.3373C23.9051 25.8326 24.7212 25.8197 25.2165 25.3085C25.712 24.7972 25.699 23.9811 25.1877 23.4858C24.6058 22.9219 23.9588 22.5234 23.2891 22.2985V20.7969C23.2891 20.085 22.712 19.5078 22.0001 19.5078C21.2882 19.5078 20.711 20.085 20.711 20.7969V22.3069C20.6379 22.3329 20.565 22.3604 20.4927 22.391C19.0592 22.9982 18.1329 24.3964 18.1329 25.9531C18.1329 28.0855 19.8677 29.8203 22.0001 29.8203C22.7109 29.8203 23.2891 30.3986 23.2891 31.1094C23.2891 31.6496 22.9484 32.1367 22.4413 32.3214C21.7791 32.5624 21.0084 32.2354 20.3267 31.4237C19.8688 30.8785 19.0558 30.8078 18.5106 31.2657C17.9654 31.7236 17.8947 32.5367 18.3525 33.0818C19.0494 33.9115 19.8606 34.4805 20.7111 34.7669V36.2656C20.7111 36.9775 21.2883 37.5547 22.0002 37.5547C22.7121 37.5547 23.2892 36.9775 23.2892 36.2656V34.7554C23.3007 34.7514 23.3122 34.7479 23.3237 34.7438C24.845 34.1896 25.8673 32.729 25.8673 31.1094C25.8673 28.977 24.1324 27.2422 22.0001 27.2422Z" fill="#282B33"/>
<path d="M33.9384 19.3582C32.4063 17.4733 30.6549 15.9717 28.7323 14.8918C29.0471 14.5192 29.2956 14.0824 29.456 13.5956C30.0856 11.6784 29.166 9.40105 26.8188 8.65915L30.1092 2.92153C30.5244 2.19742 30.1514 1.27514 29.3509 1.04242C26.9718 0.350711 24.4987 0 22 0C19.5013 0 17.0282 0.350711 14.6491 1.04242C13.8476 1.2754 13.4761 2.19828 13.8908 2.92153L17.1812 8.65923C14.8433 9.39735 13.9121 11.6713 14.5443 13.5966C14.7042 14.0821 14.9526 14.5187 15.2684 14.8914C13.3456 15.9713 11.594 17.4732 10.0617 19.3582C6.99884 23.1263 5.24219 27.8792 5.24219 32.3984C5.24219 41.7734 12.7228 44 22 44C31.2837 44 38.7578 41.7697 38.7578 32.3984C38.7578 27.8792 37.0012 23.1263 33.9384 19.3582ZM16.9723 3.11248C18.6169 2.75748 20.3017 2.57812 22 2.57812C23.6983 2.57812 25.3831 2.75748 27.0277 3.11248L24.1889 8.06266C22.7349 7.85967 21.2655 7.85976 19.8112 8.06274L16.9723 3.11248ZM17.8145 11.1629C20.033 10.4352 22.354 10.2973 24.6104 10.7484C24.6131 10.7489 24.6159 10.7494 24.6185 10.7499C25.1445 10.8555 25.6669 10.9928 26.1837 11.1623C26.8593 11.385 27.2284 12.1157 27.007 12.7901C26.846 13.2785 26.4211 13.6148 25.9212 13.6693C24.6359 13.2669 23.3249 13.0625 22 13.0625C20.6778 13.0625 19.3694 13.266 18.0866 13.6668C17.5789 13.6146 17.153 13.2758 16.9934 12.7913C16.7716 12.1157 17.1408 11.3849 17.8145 11.1629ZM22 41.4391C11.9285 41.4391 7.82031 38.8077 7.82031 32.3984C7.82031 28.519 9.40612 24.2522 12.0622 20.9844C14.8633 17.5384 18.3926 15.6406 22 15.6406C25.9708 15.6406 29.444 17.9164 31.9378 20.9844C34.5939 24.2522 36.1797 28.519 36.1797 32.3984C36.1797 38.8077 32.0715 41.4391 22 41.4391Z" fill="#282B33"/>
</svg>
