<svg width="30" height="30" viewBox="0 0 30 30" fill="none" xmlns="http://www.w3.org/2000/svg">
<path d="M13.4924 17.896C13.4924 17.104 13.6684 16.4513 14.0204 15.938C14.3871 15.41 14.9151 14.838 15.6044 14.222C16.1324 13.7527 16.5211 13.3493 16.7704 13.012C17.0344 12.66 17.1664 12.264 17.1664 11.824C17.1664 11.208 16.9171 10.7093 16.4184 10.328C15.9197 9.94667 15.2524 9.756 14.4164 9.756C12.8324 9.756 11.6371 10.3207 10.8304 11.45L8.6964 10.064C9.32707 9.19867 10.1411 8.53867 11.1384 8.084C12.1357 7.61467 13.3091 7.38 14.6584 7.38C16.3011 7.38 17.6064 7.73933 18.5744 8.458C19.5571 9.162 20.0484 10.1373 20.0484 11.384C20.0484 11.9853 19.9457 12.5133 19.7404 12.968C19.5497 13.4227 19.3151 13.8113 19.0364 14.134C18.7577 14.442 18.3911 14.8013 17.9364 15.212C17.3791 15.7107 16.9611 16.1507 16.6824 16.532C16.4184 16.9133 16.2864 17.368 16.2864 17.896H13.4924ZM14.9004 23.154C14.3871 23.154 13.9617 22.9927 13.6244 22.67C13.3017 22.3327 13.1404 21.922 13.1404 21.438C13.1404 20.954 13.3017 20.5507 13.6244 20.228C13.9617 19.9053 14.3871 19.744 14.9004 19.744C15.3991 19.744 15.8097 19.9053 16.1324 20.228C16.4697 20.5507 16.6384 20.954 16.6384 21.438C16.6384 21.922 16.4697 22.3327 16.1324 22.67C15.8097 22.9927 15.3991 23.154 14.9004 23.154Z" fill="#126E82"/>
<circle cx="15" cy="15" r="14" stroke="#126E82" stroke-width="2"/>
</svg>
