<svg width="60" height="61" viewBox="0 0 60 61" fill="none" xmlns="http://www.w3.org/2000/svg">
<circle cx="30" cy="30.8643" r="30" fill="#121212"/>
<path d="M36.4171 25.1673L36.1029 27.6022C35.3349 27.5498 34.7415 27.6895 34.3226 28.0211C33.9037 28.3527 33.6244 28.8153 33.4848 29.4087C33.3451 30.0022 33.3189 30.6742 33.4062 31.4247H36.4171V37.7345H30.6309V30.9011C30.6309 28.8415 31.1197 27.288 32.0971 26.2407C33.092 25.176 34.532 24.8182 36.4171 25.1673ZM28.3531 25.1673L28.0389 27.6022C27.2709 27.5498 26.6775 27.6895 26.2586 28.0211C25.8397 28.3527 25.5604 28.8153 25.4208 29.4087C25.2811 30.0022 25.2549 30.6742 25.3422 31.4247H28.3531V37.7345H22.5669V30.9011C22.5669 28.8415 23.0557 27.288 24.0331 26.2407C25.028 25.176 26.468 24.8182 28.3531 25.1673Z" fill="white"/>
</svg>
