<svg width="20" height="20" viewBox="0 0 20 20" fill="none" xmlns="http://www.w3.org/2000/svg">
<g clip-path="url(#clip0)">
<path d="M-0.0384524 5.61996C-0.0384524 5.21377 0.120239 4.81537 0.419922 4.51523L4.23843 0.688628C4.68155 0.244598 5.271 -6.42118e-07 5.89828 -6.14698e-07C6.52557 -5.87278e-07 7.11517 0.244598 7.55829 0.688629L11.3768 4.51523C11.8257 4.9649 11.9583 5.63492 11.7148 6.22208C11.4716 6.80847 10.9045 7.18735 10.2704 7.18735L6.67969 7.18735C6.67969 13.3907 11.7265 18.4375 17.9298 18.4375L19.1797 18.4375C19.6112 18.4375 19.9609 18.7872 19.9609 19.2188C19.9609 19.6503 19.6112 20 19.1797 20L17.9298 20C14.5074 20 11.2898 18.6673 8.86978 16.2473C6.44989 13.8272 5.11703 10.6097 5.11703 7.18735C5.11703 6.32568 5.81802 5.62469 6.67953 5.62469L10.2704 5.62469C10.2705 5.62469 10.2707 5.62469 10.2708 5.62469C10.2715 5.62347 10.2721 5.62195 10.2725 5.62057C10.2719 5.62012 10.2715 5.61951 10.2708 5.6189L6.45218 1.7923C6.30432 1.64413 6.10764 1.5625 5.89828 1.5625C5.68893 1.5625 5.49225 1.64413 5.34439 1.7923L1.52588 5.6189L1.5242 5.62057C1.52466 5.62195 1.52512 5.62347 1.52573 5.62469C1.52588 5.62469 1.52603 5.62469 1.52634 5.62469L2.38266 5.62469C2.81418 5.62469 3.16391 5.97458 3.16391 6.4061C3.16391 6.83746 2.81418 7.18735 2.38266 7.18735L1.52634 7.18735C0.892181 7.18735 0.325164 6.80847 0.0819394 6.22208C0.000915264 6.02692 -0.0384524 5.82245 -0.0384524 5.61996Z" fill="#DEDEDE"/>
</g>
<defs>
<clipPath id="clip0">
<rect width="20" height="20" fill="white" transform="translate(20) rotate(90)"/>
</clipPath>
</defs>
</svg>
