<svg width="34" height="34" viewBox="0 0 34 34" fill="none" xmlns="http://www.w3.org/2000/svg">
<path d="M19.3524 21.607C17.3982 22.9964 14.9933 23.6009 12.6144 23.3008C10.2355 23.0006 8.05612 21.8177 6.50825 19.9865C4.96039 18.1552 4.15699 15.8093 4.25728 13.4136C4.35756 11.0179 5.35421 8.74728 7.0497 7.05179C8.74519 5.3563 11.0158 4.35965 13.4115 4.25937C15.8072 4.15908 18.1531 4.96248 19.9844 6.51034C21.8156 8.05821 22.9985 10.2376 23.2987 12.6165C23.5988 14.9954 22.9943 17.4003 21.6049 19.3545L29.2825 27.03C29.4391 27.1759 29.5647 27.3519 29.6518 27.5474C29.7389 27.7429 29.7858 27.9539 29.7895 28.1679C29.7933 28.3819 29.754 28.5944 29.6738 28.7929C29.5936 28.9913 29.4743 29.1716 29.323 29.323C29.1717 29.4743 28.9914 29.5936 28.7929 29.6738C28.5945 29.7539 28.3819 29.7933 28.1679 29.7895C27.9539 29.7857 27.7429 29.7389 27.5474 29.6518C27.3519 29.5647 27.1759 29.4391 27.03 29.2825L19.3524 21.607ZM20.1875 13.8125C20.1875 12.1217 19.5159 10.5002 18.3203 9.3047C17.1248 8.10915 15.5033 7.4375 13.8125 7.4375C12.1218 7.4375 10.5003 8.10915 9.30473 9.3047C8.10919 10.5002 7.43754 12.1217 7.43754 13.8125C7.43754 15.5033 8.10919 17.1248 9.30473 18.3203C10.5003 19.5159 12.1218 20.1875 13.8125 20.1875C15.5033 20.1875 17.1248 19.5159 18.3203 18.3203C19.5159 17.1248 20.1875 15.5033 20.1875 13.8125Z" fill="white"/>
</svg>
