<svg width="28" height="28" viewBox="0 0 28 28" fill="none" xmlns="http://www.w3.org/2000/svg">
<path fill-rule="evenodd" clip-rule="evenodd" d="M12.7525 4.76336C8.38169 4.76336 4.83844 8.30662 4.83844 12.6774C4.83844 17.0483 8.38169 20.5915 12.7525 20.5915C17.1234 20.5915 20.6666 17.0483 20.6666 12.6774C20.6666 8.30662 17.1234 4.76336 12.7525 4.76336ZM2.57727 12.6774C2.57727 7.05781 7.13289 2.5022 12.7525 2.5022C18.3722 2.5022 22.9278 7.05781 22.9278 12.6774C22.9278 18.2971 18.3722 22.8527 12.7525 22.8527C7.13289 22.8527 2.57727 18.2971 2.57727 12.6774Z" fill="white"/>
<path fill-rule="evenodd" clip-rule="evenodd" d="M18.3409 18.2657C18.7824 17.8242 19.4982 17.8242 19.9398 18.2657L24.8578 23.1838C25.2993 23.6253 25.2993 24.3411 24.8578 24.7826C24.4163 25.2242 23.7004 25.2242 23.2589 24.7826L18.3409 19.8646C17.8994 19.4231 17.8994 18.7072 18.3409 18.2657Z" fill="white"/>
</svg>
