<svg width="20" height="21" viewBox="0 0 20 21" fill="none" xmlns="http://www.w3.org/2000/svg">
<path d="M9.99987 12.8967C9.90254 12.8967 9.80521 12.8796 9.70787 12.8456C9.61054 12.8115 9.52054 12.7466 9.43787 12.651L5.74987 9.04778C5.62454 8.91084 5.56554 8.7503 5.57287 8.56618C5.57954 8.38205 5.64554 8.2284 5.77087 8.10521C5.92354 7.96892 6.08321 7.90405 6.24987 7.91061C6.41654 7.91781 6.56921 7.98268 6.70787 8.10521L9.99987 11.3614L13.3119 8.12585C13.4372 7.98956 13.5832 7.92142 13.7499 7.92142C13.9165 7.92142 14.0762 7.98956 14.2289 8.12585C14.3682 8.26215 14.4379 8.41908 14.4379 8.59665C14.4379 8.77422 14.3682 8.9246 14.2289 9.04778L10.5619 12.651C10.4792 12.7466 10.3892 12.8115 10.2919 12.8456C10.1945 12.8796 10.0972 12.8967 9.99987 12.8967V12.8967Z" fill="black"/>
</svg>
