<svg width="30" height="30" viewBox="0 0 30 30" fill="none" xmlns="http://www.w3.org/2000/svg">
<path d="M12.435 14.5648C12.5744 14.7054 12.7403 14.817 12.9231 14.8931C13.1059 14.9693 13.302 15.0085 13.5 15.0085C13.698 15.0085 13.8941 14.9693 14.0769 14.8931C14.2597 14.817 14.4256 14.7054 14.565 14.5648L20.565 8.56488C20.7049 8.42502 20.8158 8.25899 20.8915 8.07626C20.9672 7.89353 21.0061 7.69768 21.0061 7.4999C21.0061 7.30211 20.9672 7.10626 20.8915 6.92353C20.8158 6.7408 20.7049 6.57477 20.565 6.43491C20.4251 6.29505 20.2591 6.18411 20.0764 6.10843C19.8936 6.03274 19.6978 5.99378 19.5 5.99378C19.3022 5.99378 19.1064 6.03274 18.9236 6.10843C18.7409 6.18411 18.5749 6.29505 18.435 6.43491L13.5 11.3848L11.565 9.43487C11.2825 9.15242 10.8995 8.99374 10.5 8.99374C10.1005 8.99374 9.71746 9.15242 9.435 9.43487C9.15254 9.71732 8.99386 10.1004 8.99386 10.4999C8.99386 10.8993 9.15254 11.2824 9.435 11.5648L12.435 14.5648ZM28.5 17.9997H27V2.99996H28.5C28.8978 2.99996 29.2794 2.84193 29.5607 2.56062C29.842 2.27932 30 1.8978 30 1.49998C30 1.10216 29.842 0.720634 29.5607 0.439334C29.2794 0.158033 28.8978 0 28.5 0H1.5C1.10218 0 0.720644 0.158033 0.43934 0.439334C0.158035 0.720634 0 1.10216 0 1.49998C0 1.8978 0.158035 2.27932 0.43934 2.56062C0.720644 2.84193 1.10218 2.99996 1.5 2.99996H3V17.9997H1.5C1.10218 17.9997 0.720644 18.1578 0.43934 18.4391C0.158035 18.7204 0 19.1019 0 19.4997C0 19.8975 0.158035 20.2791 0.43934 20.5604C0.720644 20.8417 1.10218 20.9997 1.5 20.9997H13.5V22.7247L6.675 27.2246C6.395 27.3979 6.17982 27.6586 6.06265 27.9663C5.94549 28.2741 5.93285 28.6118 6.02669 28.9275C6.12053 29.2431 6.31564 29.5191 6.5819 29.7129C6.84816 29.9066 7.17079 30.0074 7.5 29.9996C7.7949 30.003 8.08344 29.9138 8.325 29.7446L13.5 26.3246V28.4996C13.5 28.8974 13.658 29.2789 13.9393 29.5602C14.2206 29.8415 14.6022 29.9996 15 29.9996C15.3978 29.9996 15.7794 29.8415 16.0607 29.5602C16.342 29.2789 16.5 28.8974 16.5 28.4996V26.3246L21.675 29.7446C21.9166 29.9138 22.2051 30.003 22.5 29.9996C22.8205 29.9971 23.1317 29.8921 23.3882 29.6998C23.6446 29.5076 23.8327 29.2383 23.9249 28.9314C24.0172 28.6245 24.0087 28.2961 23.9007 27.9943C23.7928 27.6926 23.591 27.4334 23.325 27.2546L16.5 22.7547V20.9997H28.5C28.8978 20.9997 29.2794 20.8417 29.5607 20.5604C29.842 20.2791 30 19.8975 30 19.4997C30 19.1019 29.842 18.7204 29.5607 18.4391C29.2794 18.1578 28.8978 17.9997 28.5 17.9997ZM24 17.9997H6V2.99996H24V17.9997Z" fill="#282B33"/>
</svg>
