<svg width="30" height="27" viewBox="0 0 30 27" fill="none" xmlns="http://www.w3.org/2000/svg">
<path d="M27 15.27V12C27 8.8174 25.7357 5.76516 23.4853 3.51472C21.2348 1.26428 18.1826 0 15 0C11.8174 0 8.76516 1.26428 6.51472 3.51472C4.26428 5.76516 3 8.8174 3 12V15.27C2.12468 15.5795 1.3665 16.1521 0.829408 16.9094C0.292318 17.6667 0.00260927 18.5716 0 19.5V22.5C0 23.6935 0.474106 24.8381 1.31802 25.682C2.16193 26.5259 3.30653 27 4.5 27H9C9.39782 27 9.77935 26.842 10.0607 26.5607C10.342 26.2794 10.5 25.8978 10.5 25.5V16.5C10.5 16.1022 10.342 15.7206 10.0607 15.4393C9.77935 15.158 9.39782 15 9 15H6V12C6 9.61305 6.94821 7.32387 8.63604 5.63604C10.3239 3.94821 12.6131 3 15 3C17.3869 3 19.6761 3.94821 21.364 5.63604C23.0518 7.32387 24 9.61305 24 12V15H21C20.6022 15 20.2206 15.158 19.9393 15.4393C19.658 15.7206 19.5 16.1022 19.5 16.5V25.5C19.5 25.8978 19.658 26.2794 19.9393 26.5607C20.2206 26.842 20.6022 27 21 27H25.5C26.6935 27 27.8381 26.5259 28.682 25.682C29.5259 24.8381 30 23.6935 30 22.5V19.5C29.9974 18.5716 29.7077 17.6667 29.1706 16.9094C28.6335 16.1521 27.8753 15.5795 27 15.27ZM7.5 18V24H4.5C4.10218 24 3.72064 23.842 3.43934 23.5607C3.15804 23.2794 3 22.8978 3 22.5V19.5C3 19.1022 3.15804 18.7206 3.43934 18.4393C3.72064 18.158 4.10218 18 4.5 18H7.5ZM27 22.5C27 22.8978 26.842 23.2794 26.5607 23.5607C26.2794 23.842 25.8978 24 25.5 24H22.5V18H25.5C25.8978 18 26.2794 18.158 26.5607 18.4393C26.842 18.7206 27 19.1022 27 19.5V22.5Z" fill="#282B33"/>
</svg>
