<svg width="27" height="27" viewBox="0 0 27 27" fill="none" xmlns="http://www.w3.org/2000/svg">
<path fill-rule="evenodd" clip-rule="evenodd" d="M5.86164 1.93121C6.06662 1.65791 6.3883 1.49707 6.72993 1.49707H19.7543C20.0959 1.49707 20.4176 1.65791 20.6225 1.93121L23.8786 6.27266C24.0195 6.46053 24.0957 6.68903 24.0957 6.92387V22.1189C24.0957 22.9825 23.7526 23.8107 23.142 24.4213C22.5314 25.0319 21.7032 25.375 20.8396 25.375H5.64457C4.781 25.375 3.95281 25.0319 3.34217 24.4213C2.73154 23.8107 2.38849 22.9825 2.38849 22.1189V6.92387C2.38849 6.68903 2.46466 6.46053 2.60556 6.27266L5.86164 1.93121ZM7.27261 3.66779L4.55921 7.28566V22.1189C4.55921 22.4068 4.67356 22.6828 4.8771 22.8864C5.08065 23.0899 5.35671 23.2043 5.64457 23.2043H20.8396C21.1275 23.2043 21.4035 23.0899 21.6071 22.8864C21.8106 22.6828 21.925 22.4068 21.925 22.1189V7.28566L19.2116 3.66779H7.27261Z" fill="white"/>
<path fill-rule="evenodd" clip-rule="evenodd" d="M2.38849 6.92387C2.38849 6.32444 2.87442 5.83851 3.47385 5.83851H23.0103C23.6098 5.83851 24.0957 6.32444 24.0957 6.92387C24.0957 7.5233 23.6098 8.00923 23.0103 8.00923H3.47385C2.87442 8.00923 2.38849 7.5233 2.38849 6.92387Z" fill="white"/>
<path fill-rule="evenodd" clip-rule="evenodd" d="M8.90065 10.18C9.50008 10.18 9.98601 10.6659 9.98601 11.2653C9.98601 12.1289 10.3291 12.9571 10.9397 13.5677C11.5503 14.1783 12.3785 14.5214 13.2421 14.5214C14.1057 14.5214 14.9339 14.1783 15.5445 13.5677C16.1551 12.9571 16.4982 12.1289 16.4982 11.2653C16.4982 10.6659 16.9841 10.18 17.5835 10.18C18.183 10.18 18.6689 10.6659 18.6689 11.2653C18.6689 12.7046 18.0971 14.0849 17.0794 15.1026C16.0617 16.1204 14.6814 16.6921 13.2421 16.6921C11.8028 16.6921 10.4225 16.1204 9.40476 15.1026C8.38704 14.0849 7.81529 12.7046 7.81529 11.2653C7.81529 10.6659 8.30122 10.18 8.90065 10.18Z" fill="white"/>
</svg>
