<svg width="30" height="30" viewBox="0 0 30 30" fill="none" xmlns="http://www.w3.org/2000/svg">
<circle cx="15" cy="15" r="15" fill="#1C1636"/>
<path d="M15 6C10.0342 6 6 10.0342 6 15C6 16.5962 6.43775 18.0858 7.1678 19.3861L6.01452 23.5032C5.9961 23.5691 5.99526 23.6387 6.01211 23.7049C6.02895 23.7713 6.06288 23.832 6.11051 23.8811C6.15815 23.9302 6.21782 23.9659 6.28358 23.9848C6.34934 24.0037 6.4189 24.005 6.48531 23.9886L10.7782 22.9247C12.0396 23.5981 13.471 24 15 24C19.9658 24 24 19.9658 24 15C24 10.0342 19.9658 6 15 6ZM15 6.78261C19.5428 6.78261 23.2174 10.4571 23.2174 15C23.2174 19.5428 19.5428 23.2174 15 23.2174C13.5436 23.2174 12.1795 22.8377 10.9937 22.1742C10.907 22.1257 10.8051 22.112 10.7086 22.1359L6.94922 23.0676L7.95728 19.471C7.97171 19.4202 7.97569 19.3669 7.96899 19.3145C7.9623 19.2621 7.94505 19.2116 7.91831 19.166C7.19766 17.944 6.78261 16.5222 6.78261 15C6.78261 10.4571 10.4571 6.78261 15 6.78261ZM11.7297 10.3043C11.4789 10.3043 11.1206 10.3977 10.8263 10.7148C10.6496 10.9052 9.91304 11.6229 9.91304 12.8845C9.91304 14.1999 10.8253 15.3349 10.9356 15.4807H10.9364V15.4815C10.9259 15.4677 11.0764 15.6857 11.2773 15.9469C11.4781 16.2082 11.759 16.5514 12.1118 16.9229C12.8175 17.6659 13.8098 18.5246 15.0413 19.0499C15.6084 19.2913 16.0558 19.4371 16.3948 19.5436C17.023 19.7408 17.5952 19.7108 18.0249 19.6475C18.3467 19.6002 18.7005 19.4456 19.0506 19.2241C19.4007 19.0026 19.7438 18.7271 19.8951 18.3085C20.0035 18.0084 20.0586 17.7312 20.0785 17.5029C20.0885 17.3889 20.0898 17.2882 20.0823 17.195C20.0749 17.1018 20.0829 17.0303 19.996 16.8878C19.8138 16.5886 19.6075 16.5808 19.3922 16.4743C19.2726 16.4151 18.9321 16.2488 18.5905 16.086C18.2494 15.9235 17.9539 15.7795 17.772 15.7146C17.657 15.6732 17.5167 15.6137 17.3142 15.6366C17.1117 15.6596 16.9117 15.8057 16.7952 15.9783C16.6849 16.1418 16.2406 16.6663 16.1051 16.8204C16.1033 16.8194 16.1151 16.8248 16.0616 16.7983C15.894 16.7154 15.6892 16.6449 15.3859 16.485C15.0827 16.325 14.7035 16.0889 14.2885 15.723V15.7222C13.6707 15.1784 13.2381 14.4956 13.1016 14.2663C13.1108 14.2554 13.1005 14.2686 13.1199 14.2495L13.1207 14.2488C13.2602 14.1113 13.3838 13.9472 13.4883 13.8268C13.6364 13.6562 13.7018 13.5058 13.7726 13.3652C13.9137 13.0851 13.8351 12.7769 13.7535 12.6147V12.614C13.7592 12.6252 13.7093 12.5153 13.6557 12.3885C13.6018 12.2614 13.5333 12.0965 13.46 11.9208C13.3135 11.5692 13.1499 11.175 13.0527 10.944V10.9433C12.9381 10.6713 12.783 10.4753 12.5803 10.3808C12.3776 10.2862 12.1986 10.3131 12.1913 10.3128H12.1906C12.0459 10.3061 11.8872 10.3043 11.7297 10.3043ZM11.7297 11.087C11.8806 11.087 12.0293 11.0888 12.1539 11.0946C12.282 11.101 12.2741 11.1015 12.2494 11.09C12.2244 11.0783 12.2583 11.0745 12.3312 11.2475C12.4264 11.4736 12.5908 11.8693 12.7378 12.2219C12.8113 12.3982 12.88 12.5637 12.935 12.6934C12.9899 12.8232 13.0196 12.8957 13.0542 12.9648V12.9655L13.0549 12.9663C13.0888 13.0331 13.0858 12.9903 13.0741 13.0137C12.9915 13.1776 12.9803 13.2178 12.8967 13.314C12.7696 13.4606 12.6398 13.6239 12.5712 13.6915C12.5111 13.7506 12.4027 13.8425 12.335 14.0225C12.2672 14.2027 12.2989 14.4501 12.4076 14.6347C12.5524 14.8805 13.0295 15.6571 13.771 16.31C14.238 16.7216 14.6731 16.994 15.0207 17.1774C15.3682 17.3607 15.6512 17.4678 15.7146 17.4991C15.865 17.5736 16.0294 17.6314 16.2205 17.6084C16.4117 17.5855 16.5765 17.4695 16.6814 17.3509L16.6821 17.3502C16.8217 17.1918 17.2366 16.7181 17.4357 16.4261C17.4442 16.4291 17.4414 16.4268 17.5075 16.4506V16.4514H17.5083C17.5385 16.4621 17.9169 16.6314 18.2543 16.7922C18.5916 16.9529 18.934 17.12 19.0452 17.1751C19.2058 17.2545 19.2817 17.3063 19.3013 17.3065C19.3026 17.341 19.3039 17.3783 19.299 17.435C19.2853 17.5921 19.2432 17.8097 19.1592 18.0426C19.1179 18.1566 18.9033 18.3917 18.6325 18.563C18.3618 18.7344 18.0324 18.8553 17.9103 18.8733C17.5435 18.9274 17.1078 18.9471 16.6294 18.7968C16.2977 18.6927 15.8841 18.558 15.3485 18.3299C14.2623 17.8667 13.3392 17.0784 12.6797 16.3841C12.35 16.0369 12.0858 15.7137 11.8978 15.4692C11.7103 15.2252 11.6283 15.0982 11.56 15.0084L11.5593 15.0076C11.438 14.8473 10.6957 13.8147 10.6957 12.8845C10.6957 11.9001 11.1529 11.514 11.4003 11.2475C11.5302 11.1075 11.6722 11.087 11.7297 11.087Z" fill="white"/>
</svg>
