<svg width="48" height="48" viewBox="0 0 48 48" fill="none" xmlns="http://www.w3.org/2000/svg">
<path d="M24 9C21.5859 9 19.4648 10.1719 18.0234 11.9648L18.0117 11.9766L15.75 15H7.5C5.02734 15 3 17.0273 3 19.5V34.5C3 36.9727 5.02734 39 7.5 39H31.5C33.9727 39 36 36.9727 36 34.5V33.6211L41.3789 39H45V15H41.3789L36 20.3789V9H24ZM39 9V12H45V9H39ZM24 12H33V15H19.5L20.3672 13.8398C21.3398 12.6328 22.5117 12 24 12ZM7.5 18H31.5C32.3438 18 33 18.6562 33 19.5V34.5C33 35.3438 32.3438 36 31.5 36H7.5C6.65625 36 6 35.3438 6 34.5V19.5C6 18.6562 6.65625 18 7.5 18ZM42 18.6211V35.3789L36 29.3789V24.6211L42 18.6211ZM9 21V24H15V21H9Z" fill="#1C1636"/>
</svg>
