<svg width="30" height="30" viewBox="0 0 30 30" fill="none" xmlns="http://www.w3.org/2000/svg">
<circle cx="15" cy="15" r="15" fill="#1C1636"/>
<path d="M19.494 9.60101C19.3358 9.60824 19.1868 9.6534 19.0544 9.704H19.0525C18.9182 9.7564 18.28 10.0202 17.3107 10.4195C16.3414 10.8206 15.0832 11.341 13.8343 11.8578C11.3401 12.8895 8.88828 13.905 8.88828 13.905L8.91771 13.8942C8.91771 13.8942 8.74849 13.9484 8.57191 14.0676C8.48178 14.1254 8.38245 14.2049 8.29601 14.3296C8.20956 14.4542 8.13966 14.6458 8.16542 14.8428C8.20772 15.177 8.42844 15.3776 8.58662 15.4878C8.74665 15.5998 8.89931 15.6522 8.89931 15.6522H8.90299L11.2022 16.4129C11.3052 16.7382 11.903 18.6679 12.0464 19.1124C12.1311 19.378 12.2138 19.5442 12.3168 19.6707C12.3665 19.7357 12.4254 19.7899 12.4953 19.8333C12.5228 19.8496 12.5523 19.8622 12.5817 19.873C12.5909 19.8785 12.6001 19.8803 12.6111 19.8821L12.5872 19.8767C12.5946 19.8785 12.6001 19.8839 12.6056 19.8857C12.624 19.8911 12.6369 19.8929 12.6608 19.8966C13.025 20.0049 13.3174 19.7827 13.3174 19.7827L13.334 19.7701L14.6914 18.5559L16.9667 20.2705L17.0182 20.2923C17.4928 20.4964 17.9728 20.3826 18.2267 20.1821C18.4824 19.9797 18.5816 19.7213 18.5816 19.7213L18.5982 19.6797L20.3567 10.8315C20.4063 10.6129 20.4192 10.4087 20.364 10.2099C20.3088 10.0112 20.1672 9.82506 19.9962 9.72568C19.8232 9.6245 19.6521 9.59378 19.494 9.60101ZM19.4461 10.5496C19.4443 10.5785 19.4498 10.5749 19.437 10.6309V10.6363L17.6951 19.3924C17.6878 19.4051 17.6749 19.4322 17.64 19.4593C17.6032 19.4882 17.5737 19.5063 17.421 19.4466L14.6381 17.3507L12.9569 18.8558L13.3101 16.6406C13.3101 16.6406 17.6693 12.6492 17.857 12.4775C18.0446 12.3059 17.982 12.2698 17.982 12.2698C17.9949 12.0602 17.6988 12.2083 17.6988 12.2083L11.9655 15.6974L11.9637 15.6883L9.21568 14.7795V14.7777C9.21384 14.7777 9.21016 14.7759 9.20833 14.7759C9.21016 14.7759 9.22304 14.7705 9.22304 14.7705L9.23775 14.7633L9.25247 14.7578C9.25247 14.7578 11.7062 13.7424 14.2003 12.7106C15.4493 12.1939 16.7073 11.6735 17.6749 11.2724C18.6423 10.873 19.3579 10.5803 19.3983 10.5641C19.437 10.5496 19.4186 10.5496 19.4461 10.5496Z" fill="white"/>
<path d="M15 23.64C19.7717 23.64 23.64 19.7717 23.64 15C23.64 10.2283 19.7717 6.36 15 6.36C10.2282 6.36 6.35999 10.2283 6.35999 15C6.35999 19.7717 10.2282 23.64 15 23.64Z" stroke="white" stroke-width="0.72"/>
</svg>
