<svg width="104" height="104" viewBox="0 0 104 104" fill="none" xmlns="http://www.w3.org/2000/svg">
<path d="M90.3645 22.3015L68.6894 0.634766C68.2831 0.228516 67.7331 0 67.1574 0H30.3325C27.1383 0 24.3742 1.75541 22.8711 4.33327H58.4907C60.2258 4.33327 61.8591 5.01028 63.0864 6.23756L84.7615 27.9043C85.9887 29.1316 86.6657 30.7649 86.6657 32.5V94.1281C89.2438 92.625 90.9992 89.8609 90.9992 86.6667V23.8333C90.9992 23.2578 90.7707 22.7078 90.3645 22.3015Z" fill="#BB2539"/>
<rect x="21" y="33" width="52" height="61" fill="white"/>
<path d="M60.0234 9.30127C59.6172 8.89502 59.0671 8.6665 58.4915 8.6665H21.6667C16.8868 8.6665 13 12.5533 13 17.333V95.333C13 100.113 16.8868 104 21.6667 104H73.6667C78.4465 104 82.3335 100.113 82.3335 95.333V32.4998C82.3335 31.9243 82.105 31.374 81.6987 30.9678L60.0234 9.30127ZM43.3333 45.4998C43.3333 44.3021 44.3024 43.333 45.5 43.333H52C53.1976 43.333 54.1667 44.3021 54.1667 45.4998V54.1665C54.1667 55.3641 53.1976 56.3332 52 56.3332H45.5C44.3024 56.3332 43.3333 55.3641 43.3333 54.1665V45.4998ZM26 49.833C26 46.2487 28.9157 43.333 32.5 43.333H36.8333C38.0309 43.333 39 44.3021 39 45.4998V54.1665C39 55.3641 38.0309 56.3332 36.8333 56.3332H28.1665C26.9689 56.3332 25.9998 55.3641 25.9998 54.1665V49.833H26ZM39 88.833C39 90.0307 38.0309 90.9998 36.8333 90.9998H32.5C28.9157 90.9998 26 88.0841 26 84.4998V80.1665C26 78.9689 26.9691 77.9998 28.1667 77.9998H36.8335C38.0311 77.9998 39.0002 78.9689 39.0002 80.1665V88.833H39ZM56.3333 88.833C56.3333 90.0307 55.3642 90.9998 54.1665 90.9998H45.5C44.3024 90.9998 43.3333 90.0307 43.3333 88.833V80.1663C43.3333 78.9687 44.3024 77.9996 45.5 77.9996H54.1667C55.3644 77.9996 56.3335 78.9687 56.3335 80.1663V88.833H56.3333ZM69.3333 84.4998C69.3333 88.0841 66.4176 90.9998 62.8333 90.9998C61.6356 90.9998 60.6665 90.0307 60.6665 88.833V75.833C60.6665 74.6376 59.6954 73.6663 58.4998 73.6663H28.1667C26.9691 73.6663 26 72.6972 26 71.4996V62.8328C26 61.6352 26.9691 60.6661 28.1667 60.6661H67.1667C68.3644 60.6661 69.3335 61.6352 69.3335 62.8328V84.4998H69.3333ZM69.3333 54.1665C69.3333 55.3641 68.3642 56.3332 67.1665 56.3332H60.6665C59.4689 56.3332 58.4998 55.3641 58.4998 54.1665V45.4998C58.4998 44.3021 59.4689 43.333 60.6665 43.333H62.8333C66.4176 43.333 69.3333 46.2487 69.3333 49.833V54.1665Z" fill="#BB2539"/>
</svg>
