<svg width="95" height="95" viewBox="0 0 95 95" fill="none" xmlns="http://www.w3.org/2000/svg">
<path d="M79.8519 85.0838H80.5169V84.4188V49.1879C80.5169 47.8944 81.5655 46.8457 82.8591 46.8457C84.1527 46.8457 85.2012 47.8944 85.2012 49.1879V87.426C85.2012 88.7193 84.1523 89.7681 82.8591 89.7681H3.00714C1.71375 89.7681 0.665 88.7194 0.665 87.426V7.57355C0.665 6.28015 1.71375 5.23141 3.00714 5.23141H65.332C66.6256 5.23141 67.6741 6.28012 67.6741 7.57355C67.6741 8.86698 66.6256 9.91569 65.332 9.91569H6.01429H5.34929V10.5807V84.4188V85.0838H6.01429H79.8519Z" fill="#DEE4EB" stroke="white" stroke-width="1.33"/>
<path d="M93.6483 7.01496L93.6484 7.01501C94.5633 7.92977 94.5633 9.41252 93.6484 10.3273L93.6483 10.3273L42.5428 61.4333C42.5428 61.4333 42.5428 61.4333 42.5427 61.4334C42.0851 61.8907 41.4869 62.1193 40.8865 62.1193C40.2862 62.1193 39.6879 61.8907 39.2303 61.4333L24.9349 47.138C24.9349 47.1379 24.9349 47.1379 24.9349 47.1379C24.0203 46.2231 24.0204 44.7402 24.9349 43.8255C25.8497 42.911 27.3326 42.911 28.2473 43.8256L40.4163 55.9946L40.8866 56.4648L41.3568 55.9946L90.3358 7.01506C90.3359 7.01502 90.3359 7.01499 90.3359 7.01496C91.251 6.10034 92.7339 6.10052 93.6483 7.01496Z" fill="#3A6DEB" stroke="white" stroke-width="1.33"/>
</svg>
