<svg width="24" height="24" fill="none" xmlns="http://www.w3.org/2000/svg"><path d="M22.227 18.979L15.95 16.92v-2.166c.448-.662.75-1.442.857-2.286h1.133c.99 0 1.794-.805 1.794-1.795V8.752c0-.374-.115-.722-.312-1.01v-.32C19.422 3.329 16.092 0 12 0S4.578 3.33 4.578 7.422v.32a1.784 1.784 0 00-.312 1.01v1.922c0 .99.805 1.795 1.794 1.795h1.133a5.25 5.25 0 00.876 2.314v2.132l-6.296 2.064A2.57 2.57 0 000 21.425V24h24v-2.575a2.57 2.57 0 00-1.773-2.446zM9.475 16.157c.736.475 1.6.75 2.525.75.932 0 1.804-.28 2.543-.763v.97c-.533.46-1.61 1.22-2.543 1.22-.93 0-1.997-.758-2.525-1.217v-.96zm5.969-7.945a2.18 2.18 0 01-1.796-2.143h-1.406a2.18 2.18 0 01-2.177 2.177H8.556V7.57A3.447 3.447 0 0112 4.125a3.447 3.447 0 013.444 3.444v.643zm-6.888 1.49v-.05h1.509a3.58 3.58 0 002.88-1.453 3.584 3.584 0 002.499 1.433v2.157c0 .277-.03.546-.083.805h-2.554V14h1.957c-.628.91-1.633 1.5-2.764 1.5-1.899 0-3.444-1.665-3.444-3.71V9.7zm9.772.972a.389.389 0 01-.388.389h-1.09V8.364h1.09c.214 0 .388.174.388.388v1.922zM12 1.406a6.024 6.024 0 015.998 5.553l-.058-.001h-1.129A4.857 4.857 0 0012 2.718a4.857 4.857 0 00-4.812 4.24H6.06l-.058.001A6.024 6.024 0 0112 1.406zm-6.328 9.268V8.752c0-.214.174-.388.388-.388h1.09v2.698H6.06a.389.389 0 01-.388-.388zm16.922 11.92h-3.436V21.14h-1.406v1.453H6.248V21.14H4.842v1.453H1.406v-1.169c0-.506.324-.952.805-1.11l6.392-2.096c.607.518 1.968 1.522 3.397 1.522 1.426 0 2.796-1 3.408-1.518l6.381 2.092c.481.158.805.604.805 1.11v1.169z" fill="#5FCE18"/></svg>