<svg width="20" height="19" viewBox="0 0 20 19" fill="none" xmlns="http://www.w3.org/2000/svg">
<path d="M19.2724 18.9874H1.21784C0.834532 18.9874 0.523438 18.6763 0.523438 18.293V1.62727C0.523438 1.24396 0.834532 0.932861 1.21784 0.932861H19.2724C19.6557 0.932861 19.9668 1.24396 19.9668 1.62727V18.293C19.9668 18.6763 19.6557 18.9874 19.2724 18.9874ZM1.91225 17.5986H18.578V2.32167H1.91225V17.5986Z" fill="#0A003C"/>
<path d="M6.77253 18.9874C6.38922 18.9874 6.07812 18.6763 6.07812 18.293V1.62727C6.07812 1.24396 6.38922 0.932861 6.77253 0.932861C7.15584 0.932861 7.46694 1.24396 7.46694 1.62727V18.293C7.46694 18.6763 7.15584 18.9874 6.77253 18.9874Z" fill="#0A003C"/>
<path d="M19.2724 10.6544H1.21784C0.834532 10.6544 0.523438 10.3433 0.523438 9.96003C0.523438 9.57672 0.834532 9.26562 1.21784 9.26562H19.2724C19.6557 9.26562 19.9668 9.57672 19.9668 9.96003C19.9668 10.3433 19.6557 10.6544 19.2724 10.6544Z" fill="#0A003C"/>
</svg>
