<svg width="11" height="12" viewBox="0 0 11 12" fill="none" xmlns="http://www.w3.org/2000/svg">
<g clip-path="url(#clip0)">
<path d="M10.7008 9.02128L9.1657 7.48784C8.61745 6.94018 7.68544 7.15927 7.46614 7.8712C7.30167 8.36411 6.75342 8.63794 6.26 8.52839C5.16352 8.25456 3.68326 6.83065 3.40914 5.68057C3.24466 5.18766 3.57361 4.64 4.06703 4.47573C4.77975 4.25666 4.99904 3.32565 4.4508 2.77799L2.91572 1.24455C2.47712 0.861191 1.81923 0.861191 1.43546 1.24455L0.393794 2.2851C-0.64787 3.38041 0.503443 6.28299 3.08019 8.85698C5.65694 11.431 8.56263 12.6358 9.65912 11.5405L10.7008 10.5C11.0846 10.0618 11.0846 9.40464 10.7008 9.02128Z" fill="#1B2238"/>
</g>
<defs>
<clipPath id="clip0">
<rect width="11" height="10.9882" fill="white" transform="translate(0 0.957031)"/>
</clipPath>
</defs>
</svg>
