<svg width="24" height="21" viewBox="0 0 24 21" fill="none" xmlns="http://www.w3.org/2000/svg">
<path d="M1.756 8.86141C1.756 8.86141 12.1799 4.47104 15.7951 2.92508C17.181 2.30675 21.8807 0.327915 21.8807 0.327915C21.8807 0.327915 24.0499 -0.53775 23.8691 1.56467C23.8088 2.43042 23.3268 5.46037 22.8448 8.73775C22.1217 13.3755 21.3384 18.4461 21.3384 18.4461C21.3384 18.4461 21.2179 19.8684 20.1937 20.1157C19.1694 20.3631 17.4822 19.2501 17.181 19.0027C16.9399 18.8172 12.6619 16.0345 11.0953 14.6741C10.6735 14.3031 10.1915 13.5611 11.1555 12.6953C13.3247 10.6547 15.9156 8.11942 17.4822 6.51167C18.2053 5.76958 18.9283 4.03817 15.9156 6.14058C11.6376 9.17062 7.41985 12.0151 7.41985 12.0151C7.41985 12.0151 6.45577 12.6335 4.64818 12.0769C2.8405 11.5205 0.731619 10.7784 0.731619 10.7784C0.731619 10.7784 -0.714387 9.85083 1.756 8.86141Z" fill="white"/>
</svg>
