<svg width="29" height="30" viewBox="0 0 29 30" fill="none" xmlns="http://www.w3.org/2000/svg">
<g clip-path="url(#clip0)">
<path d="M14.5 29.2869C22.5081 29.2869 29 22.746 29 14.6774C29 6.60877 22.5081 0.0678711 14.5 0.0678711C6.49187 0.0678711 0 6.60877 0 14.6774C0 22.746 6.49187 29.2869 14.5 29.2869Z" fill="#039BE5"/>
<path d="M6.63491 14.3608L20.6153 8.92975C21.2642 8.69357 21.8309 9.08924 21.6207 10.0778L21.6219 10.0766L19.2415 21.3758C19.065 22.1769 18.5926 22.3717 17.9316 21.9943L14.3066 19.3025L12.5582 20.9996C12.3648 21.1944 12.2017 21.3588 11.8271 21.3588L12.0845 17.6419L18.8028 11.5266C19.0952 11.2673 18.7376 11.1212 18.3521 11.3793L10.0497 16.646L6.47058 15.5211C5.69362 15.2727 5.6767 14.7382 6.63491 14.3608Z" fill="white"/>
</g>
<defs>
<clipPath id="clip0">
<rect width="29" height="29.219" fill="white" transform="translate(0 0.0678711)"/>
</clipPath>
</defs>
</svg>
