<svg width="24" height="24" viewBox="0 0 24 24" fill="none" xmlns="http://www.w3.org/2000/svg">
<path fill-rule="evenodd" clip-rule="evenodd" d="M4 0C1.79086 0 0 1.79086 0 4V20C0 22.2091 1.79086 24 4 24H20C22.2091 24 24 22.2091 24 20V4C24 1.79086 22.2091 0 20 0H4ZM3.59158 10.8711L19.5387 5.15912C20.7305 4.7147 21.198 5.22578 20.9239 6.3857L18.2835 17.9986C18.0823 18.9409 17.5736 19.2727 16.6386 18.7586L12.613 15.9587L10.2625 18.0245C9.97385 18.2565 9.52125 18.2543 9.27406 17.7875L9.54093 14.7638L18.0367 7.61889C18.5125 7.22674 17.9596 7.13169 17.4194 7.48816L7.52761 13.1664L3.43647 11.9588C2.73279 11.6697 2.94984 11.1371 3.59158 10.8711Z" fill="#BEDEF5"/>
</svg>
