<svg xmlns="http://www.w3.org/2000/svg" width="29.319" height="29.319" viewBox="0 0 29.319 29.319">
  <g id="Сгруппировать_211" data-name="Сгруппировать 211" transform="translate(-10 -10)">
    <path id="Контур_1208" data-name="Контур 1208" d="M37.531,38.822,44.9,34.876l-5.528,5.312-.26,2.43,1.506-1.457,4.918,4,2.477-13.25L34.231,37.643Z" transform="translate(-15.351 -13.881)" fill="#fff"/>
    <path id="Контур_1209" data-name="Контур 1209" d="M36.876,10H12.443A2.451,2.451,0,0,0,10,12.443V36.876a2.451,2.451,0,0,0,2.443,2.443H36.876a2.451,2.451,0,0,0,2.443-2.443V12.443A2.451,2.451,0,0,0,36.876,10Zm-4.7,23.9a1.271,1.271,0,0,1-1.825.672L25.4,30.545,22.23,33.615a.532.532,0,0,1-.52.074s-.234-.024-.527-1-1.775-6.142-1.775-6.142L14.5,24.791s-.754-.284-.826-.9.852-.955.852-.955l19.527-8.127s1.606-.748,1.606.49Z" transform="translate(0 0)" fill="#fff"/>
  </g>
</svg>
