<svg width="30" height="30" viewBox="0 0 30 30" fill="none" xmlns="http://www.w3.org/2000/svg">
<circle cx="15" cy="15" r="15" fill="#2C3946"/>
<path d="M22.0714 10.3571C21.5536 10.5804 20.9911 10.7411 20.4107 10.8036C21.0089 10.4464 21.4643 9.88393 21.6786 9.21429C21.125 9.54464 20.5 9.78571 19.8482 9.91071C19.3214 9.34821 18.5714 9 17.7411 9C16.1429 9 14.8571 10.2946 14.8571 11.8839C14.8571 12.1071 14.8839 12.3304 14.9286 12.5446C12.5357 12.4196 10.4018 11.2768 8.98214 9.52679C8.73214 9.95536 8.58929 10.4464 8.58929 10.9821C8.58929 11.9821 9.09821 12.8661 9.875 13.3839C9.40179 13.3661 8.95536 13.2321 8.57143 13.0179C8.57143 13.0268 8.57143 13.0446 8.57143 13.0536C8.57143 14.4554 9.5625 15.6161 10.8839 15.8839C10.6429 15.9464 10.3839 15.9821 10.125 15.9821C9.9375 15.9821 9.75893 15.9643 9.58036 15.9375C9.94643 17.0804 11.0089 17.9107 12.2768 17.9375C11.2857 18.7143 10.0446 19.1696 8.69643 19.1696C8.45536 19.1696 8.23214 19.1607 8 19.1339C9.27679 19.9554 10.7946 20.4286 12.4286 20.4286C17.7321 20.4286 20.6339 16.0357 20.6339 12.2232C20.6339 12.0982 20.6339 11.9732 20.625 11.8482C21.1875 11.4375 21.6786 10.9286 22.0714 10.3571Z" fill="white"/>
</svg>
