<svg width="30" height="30" viewBox="0 0 30 30" fill="none" xmlns="http://www.w3.org/2000/svg">
<path d="M14.1005 14.8241C13.0698 14.6073 12.123 14.11 11.3696 13.3899C10.6162 12.6697 10.087 11.756 9.84305 10.7545C9.59914 9.75296 9.65053 8.70447 9.99128 7.73025C10.332 6.75603 10.9482 5.89588 11.7686 5.24927C12.589 4.60265 13.5801 4.19598 14.6272 4.07627C15.6744 3.95656 16.7349 4.12871 17.6861 4.5728C18.6372 5.0169 19.4402 5.71481 20.0022 6.58582C20.5642 7.45684 20.8623 8.4654 20.8619 9.49486C20.8619 11.2713 19.6206 13.3333 18.1721 14.1408L23.1402 15.1507C24.429 13.6557 25.0021 11.7953 25.0021 9.49418C25.0026 7.50833 24.3656 5.57228 23.1806 3.95833C21.9957 2.34439 20.3223 1.13375 18.3961 0.496709C18.3733 0.487907 18.3499 0.480602 18.3261 0.474846C17.306 0.166744 16.2451 0.00675194 15.1773 0C15.1396 0 15.1074 0 15.0675 0C12.1324 0.000181159 9.31754 1.1387 7.24204 3.16516C5.16655 5.19162 4.00037 7.94005 4 10.806C4 13.4262 5.34486 15.9575 6.58897 17.7749L15.1724 29.9979L24.4829 17.0685L14.1005 14.8241Z" fill="#F3C43C"/>
</svg>
