<svg width="45" height="45" fill="none" xmlns="http://www.w3.org/2000/svg"><path d="M22.5 0a22.557 22.557 0 00-12.306 3.68 22.528 22.528 0 00-8.296 9.797A22.505 22.505 0 005.931 37.75 22.543 22.543 0 0022.5 45a22.56 22.56 0 0016.569-7.251 22.516 22.516 0 004.033-24.272 22.529 22.529 0 00-8.296-9.797A22.557 22.557 0 0022.5 0zm0 40.542a18.043 18.043 0 01-12.511-5.068 13.517 13.517 0 014.98-6.09 13.534 13.534 0 0120.042 6.09A18.043 18.043 0 0122.5 40.542zm-4.509-22.523a4.502 4.502 0 012.784-4.162 4.512 4.512 0 016.147 3.283 4.501 4.501 0 01-1.917 4.624 4.511 4.511 0 01-7.014-3.745zm20.086 13.514a18.03 18.03 0 00-8.814-7.613 9.005 9.005 0 00-1.871-13.528 9.023 9.023 0 00-13.11 3.862 9.002 9.002 0 001.455 9.666 18.03 18.03 0 00-8.814 7.613 17.827 17.827 0 01-2.457-9.01c0-4.779 1.9-9.362 5.282-12.74a18.042 18.042 0 0125.504 0 18.01 18.01 0 015.282 12.74 17.827 17.827 0 01-2.457 9.01z" fill="#00589B"/></svg>