<svg width="19" height="19" fill="none" xmlns="http://www.w3.org/2000/svg"><path fill-rule="evenodd" clip-rule="evenodd" d="M9.5.75a5.025 5.025 0 00-5.02 5.02v.454c-.46.403-.753.996-.753 1.656 0 1.198.961 2.176 2.153 2.202.098.535.301 1.032.586 1.465v1.423l-3.044.58A3.292 3.292 0 00.75 16.782v1.469h17.5v-1.469a3.292 3.292 0 00-2.672-3.23l-3.044-.581v-1.423c.285-.433.488-.93.585-1.466a2.204 2.204 0 002.154-2.2 2.2 2.2 0 00-.753-1.657V5.77A5.025 5.025 0 009.5.75zM8.171 4.07c-.99 0-1.84.614-2.188 1.482A3.528 3.528 0 019.5 2.246a3.528 3.528 0 013.517 3.306 2.36 2.36 0 00-2.188-1.482h-.169l-.152.073a2.34 2.34 0 01-2.016 0L8.34 4.07h-.17zm-.86 2.357a.86.86 0 01.726-.85 3.83 3.83 0 002.926 0c.41.064.726.421.726.85v.748h1.382a.707.707 0 010 1.41H11.69v.766c0 1.329-1 2.378-2.189 2.378-1.19 0-2.19-1.05-2.19-2.378v-.765H5.93a.707.707 0 010-1.411h1.38v-.748zm.65 6.941v-.497a3.515 3.515 0 003.077 0v.497a1.875 1.875 0 01-1.538.785c-.621 0-1.182-.29-1.538-.785zM3.704 15.02l3.176-.606A3.36 3.36 0 009.5 15.65a3.36 3.36 0 002.621-1.236l3.176.606c.835.16 1.444.886 1.457 1.734H14.82v-.919h-1.496v.919h-7.65v-.919H4.18v.919H2.246a1.795 1.795 0 011.457-1.734z" fill="#F70"/></svg>