<svg width="70" height="70" viewBox="0 0 70 70" fill="none" xmlns="http://www.w3.org/2000/svg">
<path d="M35 70C54.33 70 70 54.33 70 35C70 15.67 54.33 0 35 0C15.67 0 0 15.67 0 35C0 54.33 15.67 70 35 70Z" fill="#6F3FAA"/>
<path d="M50.1836 19.2008C41.6643 17.1432 33.1299 14.7364 24.3933 17.7942C18.7367 19.9154 18.7367 26.0434 18.9724 31.2286C18.9724 32.6427 17.3227 34.5283 18.0296 36.1781C19.4437 40.8919 20.6222 45.6057 25.5717 47.9626C26.2788 48.434 25.5717 49.3767 26.0431 50.0838C25.8074 50.0838 25.336 50.3195 25.336 50.5552C25.336 51.6849 25.843 53.4129 25.5062 54.5269L40.5461 69.5604C56.0076 67.0981 68.0919 54.5121 69.7922 38.8095L50.1836 19.2008Z" fill="#512D84"/>
<path d="M53.5147 24.5994L53.5032 24.5532C52.568 20.7725 48.3519 16.7158 44.48 15.8718L44.4364 15.8628C38.1739 14.6681 31.824 14.6681 25.5628 15.8628L25.5178 15.8718C21.6473 16.7158 17.431 20.7728 16.4946 24.5532L16.4843 24.5994C15.3282 29.8791 15.3282 35.2335 16.4843 40.5132L16.4946 40.5594C17.3913 44.1786 21.2933 48.0491 25.0207 49.1135V53.3337C25.0207 54.8613 26.8821 55.6114 27.9406 54.5091L32.2165 50.0645C33.144 50.1163 34.0719 50.1453 34.9995 50.1453C38.1519 50.1453 41.3057 49.8471 44.4363 49.2499L44.4799 49.2409C48.3518 48.3969 52.5679 44.3399 53.503 40.5595L53.5145 40.5133C54.6706 35.2335 54.6706 29.8793 53.5147 24.5994ZM50.1307 39.7477C49.5063 42.2142 46.3052 45.2806 43.7617 45.8471C40.4319 46.4804 37.0756 46.751 33.7227 46.6581C33.656 46.6562 33.5919 46.6822 33.5455 46.73C33.0696 47.2184 30.4236 49.935 30.4236 49.935L27.1029 53.3431C26.8601 53.5963 26.4336 53.4239 26.4336 53.0746V46.0834C26.4336 45.9678 26.3511 45.8698 26.2376 45.8474C26.237 45.8471 26.2364 45.8471 26.2357 45.847C23.6922 45.2804 20.4922 42.2141 19.8667 39.7475C18.8261 34.9752 18.8261 30.1373 19.8667 25.365C20.4922 22.8985 23.6922 19.8321 26.2357 19.2656C32.0512 18.1595 37.9476 18.1595 43.7618 19.2656C46.3066 19.8321 49.5065 22.8985 50.1309 25.365C51.1725 30.1375 51.1725 34.9754 50.1307 39.7477Z" fill="white"/>
<path d="M40.5324 42.975C40.1414 42.8562 39.7688 42.7765 39.4225 42.6331C35.8363 41.1452 32.5359 39.2257 29.9217 36.2833C28.435 34.6102 27.2714 32.7211 26.2878 30.722C25.8213 29.774 25.4283 28.789 25.0276 27.8101C24.6622 26.9176 25.2004 25.9955 25.7669 25.3229C26.2986 24.6917 26.9829 24.2088 27.7239 23.8526C28.3022 23.5748 28.8726 23.735 29.2951 24.2252C30.2081 25.285 31.047 26.399 31.726 27.6275C32.1436 28.3832 32.0291 29.3069 31.272 29.8211C31.088 29.946 30.9204 30.0929 30.7491 30.234C30.5987 30.3577 30.4573 30.4826 30.3543 30.6501C30.166 30.9565 30.157 31.3181 30.2781 31.6513C31.2115 34.2163 32.7847 36.211 35.3666 37.2855C35.7798 37.4574 36.1946 37.6574 36.6707 37.602C37.4677 37.5089 37.7259 36.6344 38.2845 36.1777C38.8304 35.7313 39.5282 35.7254 40.1162 36.0976C40.7045 36.47 41.2747 36.8695 41.8415 37.2735C42.398 37.67 42.9518 38.0575 43.4649 38.5097C43.9585 38.9443 44.1284 39.5144 43.8505 40.1041C43.3419 41.1843 42.6015 42.0827 41.5339 42.6564C41.2324 42.818 40.8723 42.8703 40.5324 42.975C40.1414 42.8562 40.8723 42.8703 40.5324 42.975Z" fill="white"/>
<path d="M35.0094 22.6171C39.7001 22.7486 43.553 25.8616 44.3786 30.4991C44.5193 31.2893 44.5693 32.097 44.632 32.8992C44.6583 33.2364 44.4672 33.5569 44.1033 33.5614C43.7273 33.5659 43.5582 33.2512 43.5336 32.9142C43.4853 32.2467 43.4518 31.5761 43.3598 30.9144C42.8743 27.42 40.088 24.5291 36.6098 23.9088C36.0863 23.8154 35.551 23.791 35.0206 23.7353C34.6855 23.7002 34.2467 23.6799 34.1724 23.2632C34.1102 22.9139 34.405 22.6358 34.7376 22.6179C34.8277 22.6126 34.9186 22.6168 35.0094 22.6171C39.7004 22.7486 34.9186 22.6168 35.0094 22.6171Z" fill="white"/>
<path d="M42.1381 31.8587C42.1303 31.9173 42.1263 32.055 42.0918 32.1846C41.9674 32.6555 41.2532 32.7144 41.089 32.2393C41.0402 32.0983 41.033 31.9378 41.0327 31.7861C41.031 30.7927 40.8152 29.8001 40.3141 28.9356C39.7991 28.0471 39.0121 27.3005 38.0894 26.8483C37.5313 26.5752 36.928 26.4052 36.3163 26.3042C36.049 26.2599 35.7789 26.2332 35.5102 26.1958C35.1847 26.1505 35.0108 25.9431 35.0264 25.6224C35.0407 25.3219 35.2604 25.1054 35.588 25.1242C36.6644 25.1852 37.7043 25.4181 38.6614 25.9248C40.6075 26.9555 41.7193 28.5822 42.0439 30.7545C42.0585 30.8531 42.082 30.9504 42.0895 31.0492C42.1078 31.2928 42.1195 31.5368 42.1381 31.8587C42.1303 31.917 42.1195 31.5368 42.1381 31.8587Z" fill="white"/>
<path d="M39.2207 31.7448C38.8283 31.752 38.6183 31.5346 38.5777 31.175C38.5497 30.9243 38.5273 30.67 38.4674 30.4258C38.3495 29.9449 38.094 29.4995 37.6896 29.2049C37.4987 29.0658 37.2823 28.9645 37.0558 28.8989C36.768 28.8156 36.4688 28.8386 36.1819 28.7683C35.87 28.6919 35.6975 28.4393 35.7465 28.1468C35.7911 27.8805 36.0501 27.6727 36.3411 27.6939C38.1598 27.8251 39.4596 28.7653 39.6451 30.9063C39.6583 31.0574 39.6737 31.217 39.6402 31.3618C39.5825 31.6088 39.3993 31.7328 39.2207 31.7448C38.8282 31.7518 39.3993 31.7328 39.2207 31.7448Z" fill="white"/>
<path d="M53.5151 24.5985L53.5036 24.5523C52.9795 22.433 51.4239 20.2272 49.4762 18.5488L46.8431 20.8823C48.4088 22.1299 49.7503 23.8582 50.1315 25.364C51.1733 30.1364 51.1733 34.9742 50.1315 39.7468C49.5071 42.2133 46.3058 45.2797 43.7624 45.8462C40.4326 46.4795 37.0763 46.7501 33.7234 46.6572C33.6567 46.6553 33.5926 46.6813 33.5463 46.7292C33.0703 47.2175 30.4243 49.9341 30.4243 49.9341L27.1037 53.3422C26.8608 53.5954 26.4343 53.4233 26.4343 53.0737V46.0825C26.4343 45.967 26.3518 45.8689 26.2384 45.8465C26.2377 45.8465 26.2371 45.8462 26.2364 45.8462C24.7909 45.5243 23.134 44.3946 21.8576 43.027L19.2559 45.3324C20.8808 47.1001 22.9765 48.5291 25.021 49.1129V53.3331C25.021 54.8606 26.8824 55.6108 27.9409 54.5085L32.2168 50.0639C33.1443 50.1157 34.0719 50.1447 34.9998 50.1447C38.1522 50.1447 41.306 49.8465 44.4366 49.2493L44.4802 49.2404C48.3521 48.3964 52.5682 44.3397 53.5034 40.559L53.5148 40.5128C54.6711 35.2326 54.6711 29.8784 53.5151 24.5985Z" fill="#D1D1D1"/>
<path d="M40.5326 42.9745C40.8725 42.8698 40.1416 42.8557 40.5326 42.9745V42.9745Z" fill="white"/>
<path d="M43.4656 38.5086C42.9525 38.0568 42.3983 37.6689 41.8422 37.2724C41.2753 36.8684 40.7052 36.4689 40.1169 36.0965C39.5289 35.7243 38.8312 35.7302 38.2852 36.1766C37.7265 36.6334 37.4685 37.5078 36.6713 37.6009C36.1954 37.6563 35.7805 37.4562 35.3673 37.2844C33.7788 36.6235 32.5735 35.6129 31.6625 34.3369L29.7266 36.0527C29.7923 36.1289 29.8551 36.2071 29.9219 36.2823C32.5363 39.2246 35.8368 41.1441 39.4228 42.632C39.7688 42.7756 40.1417 42.8554 40.5327 42.974C40.1417 42.8552 40.8728 42.8694 40.5327 42.974C40.8728 42.8694 41.2327 42.8168 41.5344 42.6552C42.6023 42.0815 43.3424 41.183 43.851 40.1029C44.1291 39.5134 43.9591 38.9432 43.4656 38.5086Z" fill="#D1D1D1"/>
<path d="M35.0214 22.6187C35.0173 22.6187 35.0133 22.6183 35.0092 22.6183C35.0052 22.618 35.0103 22.6183 35.0214 22.6187Z" fill="white"/>
<path d="M35.0098 22.6172C35.0137 22.6172 35.0176 22.6176 35.0215 22.6176C35.2818 22.6269 39.5157 22.7435 35.0098 22.6172Z" fill="white"/>
<path d="M41.7375 25.4072L40.9121 26.1388C42.2092 27.4007 43.1036 29.0732 43.3592 30.9137C43.4511 31.5757 43.4849 32.246 43.5331 32.9135C43.5576 33.2508 43.7266 33.5654 44.1029 33.561C44.4669 33.5565 44.6579 33.2362 44.6315 32.8987C44.5688 32.0967 44.5189 31.2887 44.3782 30.4986C44.0169 28.4686 43.0753 26.7308 41.7375 25.4072Z" fill="#D1D1D1"/>
<path d="M42.0432 30.7533C41.8068 29.1704 41.1501 27.8786 40.0594 26.8945L39.2363 27.6239C39.6619 28.0017 40.0301 28.4453 40.3137 28.9346C40.8147 29.7991 41.0306 30.7917 41.0323 31.7851C41.0325 31.9369 41.0398 32.0974 41.0886 32.2386C41.2531 32.714 41.967 32.655 42.0914 32.1839C42.1259 32.054 42.1298 31.9163 42.1376 31.858C42.1298 31.9166 42.1188 31.5363 42.1376 31.858C42.1188 31.5363 42.1073 31.2921 42.0888 31.0482C42.0816 30.9491 42.0579 30.8517 42.0432 30.7533Z" fill="#D1D1D1"/>
<path d="M42.1392 31.8585C42.1206 31.5366 42.1314 31.9168 42.1392 31.8585V31.8585Z" fill="white"/>
<path d="M39.2201 31.7445C39.2263 31.7441 39.2321 31.7409 39.238 31.7402C39.2215 31.7402 39.196 31.7406 39.1699 31.7416C39.1869 31.742 39.2023 31.7446 39.2201 31.7445Z" fill="white"/>
<path d="M39.2209 31.7451C39.2033 31.7453 39.1877 31.7427 39.1708 31.7422C39.0859 31.7445 38.9982 31.749 39.2209 31.7451Z" fill="white"/>
<path d="M39.2386 31.7402C39.2325 31.7409 39.2266 31.7441 39.2207 31.7445C39.2666 31.7413 39.2627 31.7402 39.2386 31.7402Z" fill="white"/>
<path d="M38.3925 28.373L37.5547 29.1157C37.6009 29.1437 37.6462 29.173 37.69 29.2048C38.0945 29.4995 38.35 29.9449 38.4678 30.4257C38.5277 30.6699 38.5499 30.9239 38.5782 31.175C38.6169 31.5185 38.812 31.7298 39.171 31.7421C39.1971 31.7414 39.2228 31.7408 39.2391 31.7407C39.4119 31.7216 39.5851 31.6004 39.6405 31.3614C39.674 31.2169 39.6587 31.0571 39.6454 30.906C39.5412 29.7091 39.0887 28.8878 38.3925 28.373Z" fill="#D1D1D1"/>
</svg>
