<svg xmlns="http://www.w3.org/2000/svg" width="30.511" height="33.417" viewBox="0 0 30.511 33.417">
  <path id="surface1" d="M33.625,10.378a8.324,8.324,0,0,0-3.337-4.758,15.2,15.2,0,0,0-6.53-2.248,29.158,29.158,0,0,0-7.906-.185,18.439,18.439,0,0,0-5.635,1.464,9.111,9.111,0,0,0-5.548,6.873Q4.278,13.611,4.1,15.73a22.568,22.568,0,0,0,.693,8.2A8.763,8.763,0,0,0,8.511,29.22a8.4,8.4,0,0,0,1.62.7c.324.113.639.224.9.346.238.111.238.131.235.329-.02,1.722,0,5.1,0,5.1l.006.721h1.294l.211-.2c.138-.131,3.345-3.23,4.489-4.478l.156-.174c.2-.227.2-.227.4-.23,1.544-.031,3.121-.091,4.688-.176a18.443,18.443,0,0,0,6.169-1.149,7.721,7.721,0,0,0,4.112-3.734,16.185,16.185,0,0,0,1.575-5.823,27.747,27.747,0,0,0-.735-10.071ZM26.8,25.142a4.2,4.2,0,0,1-2.023,1.664,2.311,2.311,0,0,1-1.842-.054A22.931,22.931,0,0,1,11.281,16.382a31.525,31.525,0,0,1-1.348-3.144,3.394,3.394,0,0,1-.122-.71,3.132,3.132,0,0,1,2.668-2.957A1.413,1.413,0,0,1,13.806,10a11.627,11.627,0,0,1,2.477,3.425,1.171,1.171,0,0,1-.312,1.484c-.1.087-.2.167-.3.247a1.728,1.728,0,0,0-.644,2.576,8.354,8.354,0,0,0,4.582,4.226,1.237,1.237,0,0,0,1.459-.327.964.964,0,0,0,.159-.182c.806-1.345,1.978-1.211,3.058-.445.71.506,1.4,1.039,2.1,1.552C27.456,23.34,27.447,24.078,26.8,25.142ZM20.087,11.717a4.242,4.242,0,0,0-.712.06.726.726,0,0,1-.238-1.433,5.61,5.61,0,0,1,.95-.079,5.712,5.712,0,0,1,5.706,5.706,5.517,5.517,0,0,1-.08.952.726.726,0,0,1-1.433-.24,4.261,4.261,0,0,0-4.194-4.965Zm3.527,4.359a.726.726,0,0,1-1.453,0A2.184,2.184,0,0,0,19.981,13.9a.726.726,0,0,1,0-1.453A3.635,3.635,0,0,1,23.613,16.076Zm4.148,1.615a.727.727,0,0,1-1.418-.324,6.41,6.41,0,0,0-7.67-7.67.726.726,0,1,1-.321-1.416,7.784,7.784,0,0,1,1.745-.2,7.866,7.866,0,0,1,7.858,7.857,8,8,0,0,1-.193,1.749Z" transform="translate(-3.998 -2.999)" fill="#fff"/>
</svg>
