<svg width="48" height="26" viewBox="0 0 48 26" fill="none" xmlns="http://www.w3.org/2000/svg">
<path d="M45.264 0H2.73601C1.22495 0 0 1.33639 0 2.98492V23.0151C0 24.6636 1.22495 26 2.73601 26H45.264C46.775 26 48 24.6636 48 23.0151V2.98492C48 1.33639 46.775 0 45.264 0Z" fill="#2C3946"/>
<g clip-path="url(#clip0_2_336)">
<path d="M23.4468 10.8775C23.433 12.127 24.4883 12.8252 25.2857 13.2405C26.1038 13.6668 26.3788 13.9388 26.3754 14.321C26.3651 15.394 24.5089 15.394 22.9621 14.6223L22.5806 16.5259C24.5914 17.5145 28.5615 17.0956 28.5753 14.0159C28.5822 11.7264 25.6123 11.5978 25.6329 10.5725C25.657 9.50307 27.6644 9.77502 28.5959 10.2344L28.9637 8.39323C26.1279 7.28706 23.464 8.62843 23.4502 10.8775" fill="white"/>
<path d="M34.3019 8.16528H32.5077C32.1055 8.16528 31.7652 8.41518 31.614 8.80105L28.4619 16.8456H30.6652L31.1052 15.5483H33.8001L34.0545 16.8456H35.9966L34.3019 8.16528ZM31.7102 13.7696L32.817 10.5099L33.4529 13.7696H31.7102Z" fill="white"/>
<path d="M20.7727 8.16528L19.0369 16.8492H21.1371L22.8729 8.16528H20.7727Z" fill="white"/>
<path d="M17.6653 8.16528L15.4791 14.0746L14.5923 9.05095C14.4892 8.48868 14.0801 8.16528 13.623 8.16528H10.0516L10 8.41886C11.5468 8.779 12.3649 9.05463 12.5711 9.92192L14.2451 16.8492H16.4656L19.872 8.16528H17.6653" fill="white"/>
</g>
<defs>
<clipPath id="clip0_2_336">
<rect width="26" height="9" fill="white" transform="translate(10 8)"/>
</clipPath>
</defs>
</svg>
