<svg width="90" height="66" viewBox="0 0 90 66" fill="none" xmlns="http://www.w3.org/2000/svg">
<g clip-path="url(#clip0)">
<path d="M57.4412 5.70312V14.5188C57.4412 15.5712 56.5881 16.423 55.5369 16.423H1.9043C0.853125 16.423 0 15.5712 0 14.5188V13.3838C0 8.09023 4.2914 3.79883 9.58496 3.79883H55.5369C56.5881 3.79883 57.4412 4.65068 57.4412 5.70312Z" fill="#003B60"/>
<path d="M57.4412 5.70312V14.5188C57.4412 15.5712 56.5881 16.423 55.5369 16.423H31.1035V3.79883H55.5369C56.5881 3.79883 57.4412 4.65068 57.4412 5.70312Z" fill="#022E44"/>
<path d="M65 20.3584L63.9399 22.4315L65 24.167V50.8272L63.8422 52.7886L65 54.6357V60.3486C65 61.4011 64.1469 62.2529 63.0957 62.2529H9.65098C7.23379 62.2529 5.021 61.3605 3.32617 59.8853C2.75234 59.3876 3.12432 57.7448 3.12432 57.7448C3.12432 57.7448 1.21748 57.3195 0.983887 56.8422C0.35293 55.5612 0 54.1229 0 52.602V14.5186C0 13.4669 0.852617 12.6143 1.9043 12.6143H63.0957C64.1474 12.6143 65 13.4669 65 14.5186V20.3584Z" fill="#0D527C"/>
<path d="M65 20.3584L63.9399 22.4315L65 24.167V50.8272L63.8422 52.7886L65 54.6357V60.3486C65 61.4011 64.1469 62.2529 63.0957 62.2529H31.1035V12.6143H63.0957C64.1474 12.6143 65 13.4669 65 14.5186V20.3584Z" fill="#003B60"/>
<path d="M65 27.9756V47.0186H49.2642C46.0354 47.0186 43.418 44.4012 43.418 41.1724V33.8218C43.418 30.593 46.0354 27.9756 49.2642 27.9756H65Z" fill="#022E44"/>
<path d="M50.4004 39.4019C51.4521 39.4019 52.3047 38.5493 52.3047 37.4976C52.3047 36.4458 51.4521 35.5933 50.4004 35.5933C49.3487 35.5933 48.4961 36.4458 48.4961 37.4976C48.4961 38.5493 49.3487 39.4019 50.4004 39.4019Z" fill="#DFE7F4"/>
<path d="M65 50.8272V54.6358L50.1941 54.5974C48.9496 54.5943 47.7089 54.4601 46.4924 54.1972L34.4234 51.5889C33.395 51.3667 32.7425 50.3537 32.9647 49.3253C33.1868 48.297 34.1999 47.6445 35.2282 47.8666L47.0754 50.4269C48.3068 50.693 49.563 50.8272 50.8229 50.8272H65Z" fill="#C0CCDD"/>
<path d="M65 20.3584V24.167H44.2457L35.3158 30.4042C34.4449 31.0091 33.2633 30.7895 32.6637 29.9332C32.062 29.0712 32.2727 27.8842 33.1347 27.2812L42.555 20.7018C42.8751 20.4782 43.2561 20.3584 43.6466 20.3584H65Z" fill="#C0CCDD"/>
<path d="M36.7937 30.5066C37.1074 34.0645 34.1387 37.0292 30.582 36.7121C27.8544 36.4688 25.6579 34.2727 25.4141 31.5451C25.0959 27.9844 28.0686 25.013 31.6296 25.3333C34.3579 25.5787 36.5531 27.7779 36.7937 30.5066Z" fill="#FABE2C"/>
<path d="M36.7937 48.407C37.1074 51.9649 34.1387 54.9296 30.582 54.6125C27.8544 54.3692 25.6579 52.1731 25.4141 49.4455C25.0959 45.8848 28.0686 42.9134 31.6296 43.2337C34.3579 43.4791 36.5531 45.6783 36.7937 48.407Z" fill="#FABE2C"/>
<path d="M16.5039 29.8076V45.9666C16.5039 46.4718 16.3033 46.9568 15.9466 47.3135L3.32617 59.8857C2.35498 59.0427 1.55518 58.0081 0.983887 56.8426L12.6953 45.1782V29.7534C12.6953 28.6712 13.5993 27.7991 14.6929 27.8514C15.7167 27.9002 16.5039 28.7826 16.5039 29.8076Z" fill="#DFE7F4"/>
<path d="M36.8164 48.9229C36.8164 52.0738 34.2532 54.6357 31.1035 54.6357V43.21C34.2532 43.21 36.8164 45.7731 36.8164 48.9229Z" fill="#FF9100"/>
<path d="M31.1035 36.7354V25.3096C34.2532 25.3096 36.8164 27.8728 36.8164 31.0225C36.8164 34.1734 34.2532 36.7354 31.1035 36.7354Z" fill="#FF9100"/>
<path d="M20.2898 25.4289C20.6035 28.9867 17.6348 31.9515 14.0781 31.6343C11.3505 31.3911 9.15399 29.1949 8.91024 26.4673C8.59197 22.9067 11.5647 19.9352 15.1257 20.2556C17.854 20.5009 20.0492 22.7001 20.2898 25.4289Z" fill="#FABE2C"/>
</g>
<path fill-rule="evenodd" clip-rule="evenodd" d="M89.2538 35.7681C89.2538 43.3677 83.0293 49.5327 75.3492 49.5327C71.2377 49.5327 67.5449 47.7648 65.0001 44.9575L65.0001 26.5754C67.5449 23.768 71.2377 22 75.3492 22C83.0293 22 89.2538 28.1653 89.2538 35.7681V35.7681Z" fill="#FFEDB5"/>
<path fill-rule="evenodd" clip-rule="evenodd" d="M89.2538 35.7683C89.2538 43.3678 83.0293 49.5327 75.3492 49.5327C71.2377 49.5327 67.5449 47.7648 65.0001 44.9576L65.0001 42.1016C67.5449 44.9089 71.2377 46.6769 75.3492 46.6769C82.542 46.6769 88.459 41.2694 89.1786 34.3403C89.2276 34.8098 89.2538 35.2859 89.2538 35.7683V35.7683Z" fill="#FFE18C"/>
<path fill-rule="evenodd" clip-rule="evenodd" d="M89.2538 35.7681C89.2538 36.053 89.244 36.3413 89.2244 36.6228L87.324 36.6228C86.8464 36.6228 86.4572 36.2407 86.4572 35.7681C86.4572 35.2921 86.8464 34.91 87.324 34.91L89.2244 34.91C89.244 35.195 89.2538 35.4799 89.2538 35.7681V35.7681ZM85.7734 44.8765C85.3908 45.304 84.982 45.7087 84.5501 46.0876L83.2025 44.7535C82.8656 44.42 82.8656 43.8793 83.2025 43.5425C83.5426 43.2089 84.0889 43.2089 84.429 43.5425L85.7734 44.8765ZM76.2127 49.5036C75.9281 49.5231 75.6402 49.5327 75.3492 49.5327C75.0581 49.5327 74.7702 49.5231 74.4824 49.5068L74.4824 47.6225C74.4824 47.1497 74.8716 46.7643 75.3492 46.7643C75.8268 46.7643 76.2127 47.1497 76.2127 47.6225L76.2127 49.5036ZM66.1481 46.0876C65.7425 45.7314 65.3598 45.3558 65 44.9576L65 44.8022L66.2692 43.5427C66.606 43.2091 67.1556 43.2091 67.4925 43.5427C67.8293 43.8794 67.8293 44.4202 67.4925 44.7537L66.1481 46.0876ZM65 26.734L65 26.5753C65.3598 26.177 65.7425 25.8014 66.1481 25.4452L67.4925 26.7794C67.8293 27.1129 67.8293 27.6569 67.4925 27.9905C67.1556 28.3239 66.606 28.3239 66.2692 27.9905L65 26.734ZM74.4824 22.0291C74.7702 22.0097 75.0581 22 75.3492 22C75.6403 22 75.9282 22.0097 76.2127 22.0291L76.2127 23.9138C76.2127 24.3865 75.8267 24.7686 75.3492 24.7686C74.8716 24.7686 74.4824 24.3863 74.4824 23.9138L74.4824 22.0291ZM84.5502 25.4452C84.982 25.824 85.3908 26.2289 85.7735 26.6596L84.4293 27.9904C84.0891 28.3238 83.5429 28.3238 83.2027 27.9904C82.8659 27.6568 82.8659 27.1128 83.2027 26.7793L84.5502 25.4452Z" fill="#F2D068"/>
<path fill-rule="evenodd" clip-rule="evenodd" d="M74.484 42.0557C74.5767 42.0557 74.6654 42.0181 74.7297 41.9518L83.2507 33.1486C83.3793 33.0156 83.3773 32.8049 83.246 32.6745L79.8376 29.2886C79.7737 29.2251 79.687 29.1895 79.5966 29.1895L75.5065 29.1895C75.4161 29.1895 75.3294 29.2251 75.2655 29.2886L74.484 30.0649L73.7025 29.2886C73.6386 29.2251 73.5519 29.1895 73.4615 29.1895H69.3714C69.281 29.1895 69.1943 29.2251 69.1304 29.2886L65.722 32.6745C65.5908 32.8049 65.5887 33.0156 65.7173 33.1486L74.2383 41.9518C74.3026 42.0181 74.3913 42.0557 74.484 42.0557ZM74.8248 30.684L75.6477 29.8666L78.7737 29.8666L74.8248 33.7894V30.684ZM74.1432 33.7894V30.684L73.3203 29.8666H70.1943L71.6575 31.3201C71.6574 31.3201 71.6576 31.3202 71.6575 31.3201L74.1432 33.7894ZM71.4165 32.0384L74.243 34.8462C74.3761 34.9784 74.5919 34.9784 74.725 34.8462L77.5516 32.0384L78.4329 32.9139L74.484 36.8366L70.5351 32.9139L71.4165 32.0384ZM69.9119 33.2525L74.1432 37.4557V40.8765L66.7636 33.2525H69.9119ZM66.7859 32.5753L69.3714 30.0069L70.9344 31.5595L69.9119 32.5753H66.7859ZM74.8248 40.8765V37.4557L79.0561 33.2525H82.2044L74.8248 40.8765ZM82.1821 32.5753H79.0561L78.0336 31.5595L79.5966 30.0069L82.1821 32.5753Z" fill="#FBC848"/>
<defs>
<clipPath id="clip0">
<rect width="65" height="65" fill="white" transform="translate(0 0.525879)"/>
</clipPath>
</defs>
</svg>
