<svg width="20" height="21" viewBox="0 0 20 21" fill="none" xmlns="http://www.w3.org/2000/svg">
<path d="M9.9821 0.263672H9.97711C4.47461 0.263672 0 4.73952 0 10.2433C0 12.4263 0.703562 14.4497 1.89987 16.0926L0.656159 19.8L4.49207 18.5737C6.07009 19.6191 7.9525 20.2229 9.9821 20.2229C15.4846 20.2229 19.9592 15.7458 19.9592 10.2433C19.9592 4.74077 15.4846 0.263672 9.9821 0.263672Z" fill="#4CAF50"/>
<path d="M15.7892 14.3559C15.5484 15.0358 14.5929 15.5996 13.8307 15.7643C13.3092 15.8753 12.6281 15.9639 10.3353 15.0133C7.40256 13.7983 5.51392 10.8181 5.36672 10.6248C5.22576 10.4314 4.18164 9.04676 4.18164 7.61469C4.18164 6.18261 4.9089 5.48529 5.20206 5.1859C5.44281 4.94015 5.84075 4.82788 6.22247 4.82788C6.34597 4.82788 6.45699 4.83412 6.55679 4.83911C6.84994 4.85158 6.99714 4.86905 7.19049 5.33185C7.43125 5.91192 8.01755 7.34399 8.08741 7.49119C8.15851 7.63839 8.22962 7.83798 8.12982 8.03133C8.03626 8.23093 7.95393 8.31949 7.80673 8.48915C7.65953 8.6588 7.51982 8.78854 7.37262 8.97066C7.23789 9.12909 7.08571 9.29874 7.25536 9.59189C7.42501 9.87881 8.01131 10.8356 8.87455 11.604C9.98852 12.5958 10.8917 12.9126 11.2148 13.0473C11.4555 13.1471 11.7424 13.1234 11.9183 12.9363C12.1416 12.6956 12.4173 12.2964 12.698 11.9034C12.8976 11.6215 13.1496 11.5866 13.414 11.6864C13.6835 11.7799 15.1093 12.4847 15.4025 12.6307C15.6956 12.7779 15.889 12.8477 15.9601 12.9712C16.0299 13.0947 16.0299 13.6748 15.7892 14.3559Z" fill="white"/>
</svg>
