<svg width="30" height="30" viewBox="0 0 30 30" fill="none" xmlns="http://www.w3.org/2000/svg">
<g clip-path="url(#clip0)">
<path d="M14.6804 0.963379H14.6731C6.6782 0.963379 0.176758 7.46663 0.176758 15.4634C0.176758 18.6353 1.19901 21.5751 2.9372 23.9622L1.13013 29.3489L6.70357 27.5673C8.99638 29.0861 11.7314 29.9634 14.6804 29.9634C22.6753 29.9634 29.1768 23.4583 29.1768 15.4634C29.1768 7.46844 22.6753 0.963379 14.6804 0.963379Z" fill="#4CAF50"/>
<path d="M23.1178 21.4391C22.7679 22.4269 21.3796 23.2462 20.2721 23.4854C19.5145 23.6467 18.5249 23.7754 15.1935 22.3943C10.9323 20.6289 8.18819 16.2988 7.97432 16.0179C7.7695 15.737 6.25244 13.7251 6.25244 11.6443C6.25244 9.56359 7.30913 8.5504 7.73507 8.1154C8.08488 7.75834 8.66307 7.59521 9.21769 7.59521C9.39713 7.59521 9.55844 7.60428 9.70344 7.61153C10.1294 7.62965 10.3433 7.65503 10.6242 8.32747C10.974 9.17028 11.8259 11.251 11.9274 11.4649C12.0307 11.6788 12.134 11.9688 11.989 12.2497C11.8531 12.5397 11.7334 12.6684 11.5196 12.9149C11.3057 13.1614 11.1027 13.3499 10.8888 13.6145C10.6931 13.8447 10.4719 14.0912 10.7184 14.5172C10.9649 14.934 11.8168 16.3242 13.0711 17.4407C14.6896 18.8817 16.0019 19.342 16.4713 19.5378C16.8211 19.6828 17.238 19.6483 17.4936 19.3765C17.818 19.0267 18.2186 18.4467 18.6264 17.8757C18.9164 17.4661 19.2825 17.4153 19.6668 17.5603C20.0583 17.6963 22.1299 18.7203 22.5559 18.9324C22.9818 19.1463 23.2628 19.2478 23.3661 19.4272C23.4676 19.6067 23.4676 20.4495 23.1178 21.4391Z" fill="#FAFAFA"/>
</g>
<defs>
<clipPath id="clip0">
<rect width="29" height="29" fill="white" transform="translate(0.176758 0.963379)"/>
</clipPath>
</defs>
</svg>
