<svg width="27" height="27" viewBox="0 0 27 27" fill="none" xmlns="http://www.w3.org/2000/svg">
<path d="M14.0101 3C12.0435 2.99954 10.1126 3.52567 8.41839 4.52367C6.72414 5.52167 5.32835 6.9551 4.37618 8.67489C3.42402 10.3947 2.95024 12.338 3.00413 14.3028C3.05803 16.2676 3.63761 18.182 4.68262 19.8471L4.94439 20.2631L3.83254 24.3207L7.99784 23.2289L8.3997 23.4673C10.0956 24.4709 12.0304 25.0003 14.0013 25H14.0057C16.9223 24.9968 19.7183 23.8368 21.7798 21.7748C23.8412 19.7127 24.9994 16.9172 25 14.0022C25.0006 11.0873 23.8435 8.29129 21.7829 6.22838C19.7223 4.16547 16.9267 3.00433 14.0101 3H14.0101ZM20.4836 18.7227C20.24 19.1244 19.9159 19.4715 19.5315 19.742C19.1472 20.0125 18.711 20.2006 18.2504 20.2945C17.555 20.4134 16.8415 20.3686 16.1665 20.1636C15.526 19.9647 14.8964 19.7323 14.2804 19.4671C11.9954 18.3211 10.0477 16.6011 8.62853 14.4758C7.85477 13.4917 7.38526 12.3032 7.2776 11.0562C7.26841 10.5414 7.36664 10.0303 7.56601 9.55551C7.76538 9.08072 8.06153 8.65264 8.43559 8.29855C8.54615 8.17253 8.6816 8.07072 8.83343 7.99953C8.98525 7.92835 9.15017 7.88932 9.31782 7.8849C9.5383 7.8849 9.75913 7.88694 9.95185 7.89658C10.155 7.90666 10.4277 7.81943 10.6963 8.4641C10.972 9.12586 11.6337 10.7529 11.7163 10.9184C11.7688 11.005 11.7987 11.1033 11.8036 11.2044C11.8084 11.3056 11.7879 11.4063 11.744 11.4975C11.6606 11.6962 11.5492 11.8819 11.4131 12.049C11.2477 12.2421 11.0656 12.48 10.9169 12.6282C10.7512 12.7931 10.5787 12.9719 10.7717 13.3028C11.2686 14.1528 11.8889 14.9245 12.6123 15.5928C13.397 16.2901 14.2973 16.8453 15.2729 17.2335C15.6037 17.3991 15.7967 17.3714 15.9897 17.1508C16.1827 16.9302 16.8168 16.1856 17.0372 15.8547C17.2577 15.5238 17.4783 15.5789 17.7815 15.6893C18.0848 15.7997 19.7115 16.5993 20.0424 16.7647C20.3733 16.9302 20.5938 17.0129 20.6765 17.1508C20.7671 17.6824 20.7001 18.2289 20.4836 18.7228V18.7227Z" fill="#FEFFFF"/>
</svg>
