<svg width="21" height="21" viewBox="0 0 21 21" fill="none" xmlns="http://www.w3.org/2000/svg">
<path d="M0.666425 20.782C0.442828 20.8406 0.239693 20.635 0.301067 20.4121L1.54299 15.9023C1.56436 15.8247 1.55345 15.7419 1.51395 15.6717C0.680652 14.1921 0.244141 12.526 0.248802 10.8238C0.248802 5.35798 4.71871 0.914062 10.2058 0.914062C12.8706 0.914062 15.373 1.94543 17.2497 3.81806C19.1313 5.69068 20.1676 8.18117 20.1628 10.8285C20.1628 16.2943 15.6929 20.7382 10.201 20.7382H10.1963C8.56939 20.7382 6.96981 20.3397 5.53967 19.5869C5.47225 19.5514 5.39403 19.5417 5.32032 19.5611L0.666425 20.782ZM5.56612 17.771C5.64416 17.7506 5.72712 17.7626 5.79627 17.8041L5.98901 17.9198C7.2593 18.6707 8.71584 19.0652 10.201 19.07H10.2058C14.7665 19.07 18.4818 15.377 18.4818 10.8333C18.4818 8.6327 17.6222 6.5652 16.0606 5.00627C14.499 3.44733 12.4169 2.59182 10.2058 2.59182C5.64517 2.58707 1.92979 6.28003 1.92979 10.8238C1.92979 12.3779 2.36437 13.8941 3.19531 15.2059L3.32145 15.408C3.36585 15.4791 3.37845 15.5656 3.35621 15.6464L2.69328 18.0556C2.632 18.2782 2.8348 18.4837 3.05828 18.4254L5.56612 17.771Z" fill="#BEE75F"/>
<path d="M0.666425 20.782C0.442828 20.8406 0.239693 20.635 0.301067 20.4121L1.54299 15.9023C1.56436 15.8247 1.55345 15.7419 1.51395 15.6717C0.680652 14.1921 0.244141 12.526 0.248802 10.8238C0.248802 5.35798 4.71871 0.914062 10.2058 0.914062C12.8706 0.914062 15.373 1.94543 17.2497 3.81806C19.1313 5.69068 20.1676 8.18117 20.1628 10.8285C20.1628 16.2943 15.6929 20.7382 10.201 20.7382H10.1963C8.56939 20.7382 6.96981 20.3397 5.53967 19.5869C5.47225 19.5514 5.39403 19.5417 5.32032 19.5611L0.666425 20.782ZM5.56612 17.771C5.64416 17.7506 5.72712 17.7626 5.79627 17.8041L5.98901 17.9198C7.2593 18.6707 8.71584 19.0652 10.201 19.07H10.2058C14.7665 19.07 18.4818 15.377 18.4818 10.8333C18.4818 8.6327 17.6222 6.5652 16.0606 5.00627C14.499 3.44733 12.4169 2.59182 10.2058 2.59182C5.64517 2.58707 1.92979 6.28003 1.92979 10.8238C1.92979 12.3779 2.36437 13.8941 3.19531 15.2059L3.32145 15.408C3.36585 15.4791 3.37845 15.5656 3.35621 15.6464L2.69328 18.0556C2.632 18.2782 2.8348 18.4837 3.05828 18.4254L5.56612 17.771Z" fill="#BEE75F"/>
<path fill-rule="evenodd" clip-rule="evenodd" d="M7.71768 6.67958C7.53143 6.26608 7.33564 6.25658 7.15894 6.25182C7.01568 6.24707 6.84853 6.24707 6.68139 6.24707C6.51424 6.24707 6.24681 6.30886 6.01759 6.55601C5.78836 6.80315 5.14844 7.40201 5.14844 8.6235C5.14844 9.84023 6.04146 11.0189 6.16563 11.1853C6.28979 11.3516 7.8896 13.9324 10.4159 14.9258C12.5171 15.7528 12.9469 15.5864 13.4006 15.5436C13.8543 15.5009 14.8714 14.9448 15.0816 14.3649C15.2869 13.7851 15.2869 13.2908 15.2248 13.1862C15.1628 13.0817 14.9956 13.0199 14.7473 12.8963C14.499 12.7727 13.2764 12.1739 13.0472 12.0883C12.818 12.0075 12.6508 11.9648 12.4885 12.2119C12.3213 12.459 11.8438 13.0151 11.7005 13.1815C11.5572 13.3478 11.4092 13.3668 11.1608 13.2433C10.9125 13.1197 10.1102 12.8583 9.1599 12.0123C8.41969 11.3564 7.91825 10.5436 7.77499 10.2965C7.63172 10.0494 7.76066 9.91627 7.88482 9.7927C7.99466 9.68338 8.13315 9.50277 8.25732 9.36019C8.38148 9.2176 8.42446 9.11304 8.50565 8.94669C8.58683 8.78034 8.54863 8.63775 8.48654 8.51418C8.42446 8.39536 7.93736 7.16912 7.71768 6.67958Z" fill="#BEE75F"/>
</svg>
