<svg width="40" height="40" viewBox="0 0 40 40" fill="none" xmlns="http://www.w3.org/2000/svg">
<path d="M15.0975 3.58095L0.81145 5.72387C0.344771 5.79434 0 6.19436 0 6.6658V18.0947C0 18.6213 0.426678 19.0471 0.952406 19.0471H15.2385C15.7642 19.0471 16.1909 18.6213 16.1909 18.0947V4.52288C16.1909 4.24573 16.0699 3.98287 15.8595 3.80096C15.6499 3.62095 15.3709 3.54286 15.0975 3.58095ZM39.6696 0.229438C39.4601 0.0494328 39.182 -0.0286644 38.9067 0.00943184L18.9062 3.00951C18.4405 3.07999 18.0957 3.48 18.0957 3.95144V18.0947C18.0957 18.6213 18.5224 19.0471 19.0481 19.0471H39.0486C39.5744 19.0471 40.001 18.6213 40.001 18.0947V0.951361C40.001 0.674211 39.8801 0.411347 39.6696 0.229438ZM15.2385 20.9519H0.952406C0.426678 20.9519 0 21.3776 0 21.9043V33.3332C0 33.8046 0.344771 34.2046 0.81145 34.2751L15.0975 36.418C15.1452 36.4247 15.1918 36.4285 15.2385 36.4285C15.4652 36.4285 15.6861 36.3475 15.8595 36.198C16.0699 36.0161 16.1909 35.7532 16.1909 35.4761V21.9043C16.1909 21.3776 15.7642 20.9519 15.2385 20.9519ZM39.0486 20.9519H19.0481C18.5224 20.9519 18.0957 21.3776 18.0957 21.9043V36.0475C18.0957 36.519 18.4405 36.919 18.9072 36.9894L38.9077 39.9895C38.9544 39.9962 39.002 40 39.0486 40C39.2753 40 39.4963 39.919 39.6696 39.7695C39.8801 39.5876 40.001 39.3247 40.001 39.0476V21.9043C40.001 21.3776 39.5744 20.9519 39.0486 20.9519Z" fill="#1C1636"/>
</svg>
