<svg width="25" height="25" viewBox="0 0 25 25" fill="none" xmlns="http://www.w3.org/2000/svg">
<path fill-rule="evenodd" clip-rule="evenodd" d="M19.2716 6.15227C19.6621 6.54279 19.6621 7.17596 19.2716 7.56648L7.27156 19.5665C6.88104 19.957 6.24787 19.957 5.85735 19.5665C5.46682 19.176 5.46682 18.5428 5.85735 18.1523L17.8573 6.15227C18.2479 5.76174 18.881 5.76174 19.2716 6.15227Z" fill="#9D99B2"/>
<path fill-rule="evenodd" clip-rule="evenodd" d="M5.85735 6.15227C6.24787 5.76174 6.88104 5.76174 7.27156 6.15227L19.2716 18.1523C19.6621 18.5428 19.6621 19.176 19.2716 19.5665C18.881 19.957 18.2479 19.957 17.8573 19.5665L5.85735 7.56648C5.46682 7.17596 5.46682 6.54279 5.85735 6.15227Z" fill="#9D99B2"/>
</svg>
