<svg width="110" height="102" viewBox="0 0 110 102" fill="none" xmlns="http://www.w3.org/2000/svg">
<path fill-rule="evenodd" clip-rule="evenodd" d="M109.041 73.1221C109.041 77.2861 109.056 81.4511 109.035 85.6151C109.024 87.9491 108.723 90.2431 107.836 92.4281C106.558 95.5741 104.463 97.9901 101.445 99.5901C99.688 100.523 97.828 101.095 95.855 101.295C95.021 101.378 94.181 101.44 93.343 101.455C90.936 101.499 88.528 101.515 86.12 101.543C83.781 101.569 81.441 101.601 79.101 101.623C75.864 101.654 72.626 101.694 69.388 101.702C58.91 101.729 48.432 101.75 37.954 101.757C34.893 101.76 31.832 101.711 28.772 101.68C26.786 101.66 24.801 101.634 22.815 101.606C21.088 101.583 19.361 101.564 17.634 101.521C16.372 101.491 15.105 101.487 13.851 101.364C11.311 101.112 8.977 100.247 6.886 98.7731C4.693 97.2291 3.06 95.2071 1.899 92.8001C1.053 91.0441 0.461999 89.1991 0.299999 87.2531C0.158999 85.5651 0.118999 83.8691 0.0499992 82.1761C0.0249992 81.5651 0.0459993 80.9511 0.0429993 80.3391C0.0279993 76.3791 0 72.4211 0 68.4621C0 65.8921 0.0300008 63.3201 0.0610008 60.7501C0.0900008 58.3391 0.300999 55.9551 1.185 53.6751C2.373 50.6081 4.326 48.1891 7.182 46.5271C8.934 45.5061 10.818 44.8541 12.834 44.6281C13.921 44.5061 15.016 44.4071 16.109 44.3881C19.292 44.3331 22.475 44.3161 25.658 44.2981C31.604 44.2651 37.551 44.2241 43.496 44.2191C52.257 44.2111 61.019 44.2231 69.782 44.2421C74.598 44.2521 79.414 44.2931 84.23 44.3211C87.332 44.3401 90.433 44.3431 93.534 44.3851C96.063 44.4191 98.523 44.8351 100.823 45.9401C104.472 47.6921 106.905 50.5211 108.158 54.3621C108.718 56.0791 108.992 57.8421 108.987 59.6531C108.973 64.1421 108.982 68.6321 108.982 73.1221C109.001 73.1221 109.021 73.1221 109.041 73.1221ZM5.27 72.9191C5.27 76.4721 5.251 80.0241 5.281 83.5751C5.291 84.6961 5.389 85.8211 5.52 86.9341C5.72 88.6411 6.309 90.2261 7.229 91.6741C9.021 94.4931 11.618 96.0311 14.934 96.2121C17.349 96.3441 19.774 96.2941 22.195 96.3131C26.454 96.3451 30.712 96.3741 34.97 96.3951C40.997 96.4251 47.025 96.4701 53.052 96.4721C60.019 96.4761 66.986 96.4441 73.952 96.4191C77.408 96.4061 80.863 96.3851 84.319 96.3531C87.406 96.3251 90.494 96.2731 93.582 96.2361C95.118 96.2171 96.617 96.0051 98.052 95.4261C100.448 94.4611 102.105 92.7831 103.036 90.3631C103.659 88.7411 103.793 87.0511 103.828 85.3511C103.889 82.2901 103.906 79.2301 103.914 76.1691C103.921 73.6811 103.893 71.1911 103.869 68.7021C103.839 65.5331 103.833 62.3631 103.739 59.1961C103.708 58.1731 103.512 57.1331 103.244 56.1411C102.761 54.3511 101.767 52.8631 100.298 51.7051C98.426 50.2301 96.236 49.7131 93.923 49.6101C92.32 49.5391 90.714 49.5391 89.11 49.5221C85.941 49.4881 82.771 49.4411 79.602 49.4431C70.662 49.4491 61.722 49.4711 52.782 49.4971C46.632 49.5151 40.482 49.5581 34.333 49.5751C28.14 49.5931 21.948 49.5791 15.756 49.6161C14.723 49.6221 13.68 49.7571 12.662 49.9441C11.161 50.2201 9.793 50.8581 8.625 51.8501C6.491 53.6651 5.577 56.0811 5.363 58.7971C5.273 59.9471 5.278 61.1061 5.275 62.2611C5.264 65.8151 5.27 69.3681 5.27 72.9191Z" fill="white"/>
<path fill-rule="evenodd" clip-rule="evenodd" d="M79.157 10.676C79.157 20.225 79.157 29.7071 79.157 39.2111C77.431 39.2111 75.723 39.2111 73.966 39.2111C73.966 38.4131 73.966 37.6201 73.966 36.7991C73.369 37.3051 72.86 37.8441 72.255 38.2291C69.45 40.0111 66.339 39.4761 64.406 36.5571C63.856 35.7271 63.593 34.8031 63.593 33.8061C63.593 26.2661 63.596 18.7261 63.583 11.1861C63.583 10.7641 63.703 10.6611 64.11 10.6681C65.525 10.6921 66.941 10.6771 68.356 10.6771C68.49 10.6771 68.622 10.6771 68.804 10.6771C68.804 10.8761 68.804 11.034 68.804 11.193C68.804 17.835 68.797 24.4761 68.817 31.1181C68.819 31.6701 68.941 32.2451 69.124 32.7681C69.511 33.8721 71.059 34.195 71.817 33.929C72.775 33.592 73.546 33.0381 73.872 32.0281C73.957 31.7661 73.955 31.4701 73.956 31.1901C73.96 24.5351 73.959 17.8791 73.959 11.2241C73.959 10.6771 73.959 10.6771 74.52 10.6771C75.908 10.6771 77.296 10.6771 78.685 10.6771C78.831 10.6761 78.978 10.676 79.157 10.676Z" fill="white"/>
<path fill-rule="evenodd" clip-rule="evenodd" d="M58.432 25.1031C58.432 27.6061 58.454 30.1091 58.423 32.6121C58.407 33.8761 58.184 35.1211 57.431 36.1791C56.315 37.7461 54.849 38.7961 52.894 39.0751C51.136 39.3271 49.366 39.4171 47.664 38.8831C45.209 38.1121 43.567 36.4891 43.091 33.8841C42.931 33.0111 42.864 32.1111 42.859 31.2221C42.835 26.6101 42.834 21.9981 42.848 17.3871C42.851 16.3511 42.911 15.3071 43.359 14.3421C43.938 13.0941 44.981 12.3041 46.125 11.6341C47.219 10.9931 48.422 10.7341 49.678 10.7381C50.679 10.7421 51.686 10.7251 52.678 10.8271C55.243 11.0911 57.654 12.8491 58.176 15.7551C58.325 16.5881 58.407 17.4421 58.42 18.2881C58.454 20.5591 58.432 22.8311 58.432 25.1031ZM53.209 24.9711C53.208 24.9711 53.208 24.9711 53.206 24.9711C53.206 22.6441 53.219 20.3171 53.201 17.9901C53.194 17.0871 52.651 16.1621 51.709 16.0431C51.023 15.9561 50.309 15.9671 49.622 16.0531C48.85 16.1501 48.391 16.6931 48.228 17.4411C48.131 17.8861 48.069 18.3501 48.068 18.8061C48.056 22.9161 48.059 27.0271 48.064 31.1371C48.064 31.4741 48.107 31.8121 48.144 32.1491C48.251 33.1121 48.827 33.7541 49.79 33.9311C50.186 34.0031 50.598 34.0061 51.003 34.0061C52.313 34.0061 53.197 33.1441 53.205 31.8321C53.219 29.5441 53.209 27.2571 53.209 24.9711Z" fill="white"/>
<path fill-rule="evenodd" clip-rule="evenodd" d="M42.919 0.305989C41.706 3.93599 40.524 7.46799 39.345 11C37.979 15.091 36.614 19.183 35.257 23.277C35.178 23.514 35.152 23.778 35.152 24.03C35.146 28.915 35.148 33.799 35.148 38.684C35.148 38.845 35.148 39.007 35.148 39.201C33.406 39.201 31.689 39.201 29.932 39.201C29.932 39.034 29.932 38.875 29.932 38.715C29.932 34.171 29.916 29.626 29.945 25.082C29.951 24.146 29.79 23.276 29.494 22.395C27.059 15.135 24.644 7.86899 22.224 0.603993C22.2 0.530993 22.189 0.452997 22.163 0.332997C22.319 0.321997 22.447 0.305989 22.576 0.305989C24.032 0.304989 25.488 0.315986 26.943 0.296986C27.261 0.292986 27.385 0.409982 27.479 0.692982C29.105 5.59398 30.74 10.492 32.374 15.39C32.412 15.504 32.447 15.619 32.514 15.829C32.732 15.194 32.928 14.639 33.113 14.081C34.592 9.63198 36.073 5.18499 37.543 0.73299C37.647 0.41599 37.785 0.289002 38.139 0.295002C39.567 0.318002 40.996 0.304981 42.425 0.304981C42.568 0.305981 42.712 0.305989 42.919 0.305989Z" fill="white"/>
<path fill-rule="evenodd" clip-rule="evenodd" d="M61.044 88.537C61.044 89.429 61.044 90.228 61.044 91.058C59.308 91.058 57.589 91.058 55.847 91.058C55.847 78.976 55.847 66.898 55.847 54.786C57.565 54.786 59.282 54.786 61.035 54.786C61.035 58.184 61.035 61.579 61.035 64.828C61.42 64.498 61.85 64.101 62.31 63.74C63.386 62.894 64.605 62.365 65.983 62.373C68.046 62.387 69.547 63.372 70.51 65.187C71.123 66.34 71.418 67.573 71.418 68.878C71.416 74.09 71.402 79.302 71.425 84.513C71.433 86.316 70.797 87.817 69.592 89.129C69.009 89.764 68.405 90.353 67.628 90.737C66.437 91.326 65.227 91.141 64.044 90.741C62.919 90.36 62 89.654 61.253 88.727C61.213 88.679 61.159 88.641 61.044 88.537ZM61.045 76.755C61.045 79.259 61.063 81.763 61.033 84.267C61.025 84.917 61.318 85.338 61.855 85.514C62.457 85.711 63.107 85.827 63.741 85.848C65.064 85.893 66.188 84.743 66.19 83.411C66.194 78.893 66.199 74.376 66.183 69.858C66.18 69.055 65.971 68.284 65.547 67.586C64.973 66.64 63.885 66.236 62.857 66.591C61.808 66.952 61.046 68.016 61.046 69.121C61.045 71.667 61.045 74.211 61.045 76.755Z" fill="white"/>
<path fill-rule="evenodd" clip-rule="evenodd" d="M89.526 78.105C89.346 78.105 89.198 78.105 89.05 78.105C85.907 78.105 82.764 78.111 79.62 78.096C79.257 78.095 79.159 78.196 79.165 78.554C79.187 79.779 79.145 81.004 79.185 82.228C79.207 82.912 79.294 83.602 79.44 84.27C79.64 85.188 80.235 85.777 81.194 85.839C81.779 85.877 82.387 85.832 82.959 85.707C83.948 85.49 84.151 84.793 84.227 83.919C84.305 83.015 84.299 82.105 84.328 81.196C84.332 81.05 84.328 80.905 84.328 80.738C86.08 80.738 87.788 80.738 89.485 80.738C89.485 81.965 89.536 83.185 89.467 84.398C89.422 85.182 89.285 85.985 89.038 86.729C88.464 88.462 87.2 89.557 85.494 90.117C83.132 90.892 80.752 90.98 78.41 90.041C76.08 89.105 74.815 87.255 74.298 84.891C74.063 83.82 74.005 82.696 73.995 81.593C73.96 77.838 73.976 74.082 73.985 70.326C73.987 69.147 74.104 67.981 74.605 66.89C75.593 64.736 77.139 63.275 79.545 62.823C80.885 62.571 82.223 62.467 83.577 62.592C85.97 62.815 87.843 63.847 88.918 66.086C89.334 66.952 89.518 67.888 89.529 68.828C89.565 71.849 89.544 74.869 89.544 77.891C89.544 77.943 89.536 77.997 89.526 78.105ZM79.256 72.861C80.917 72.861 82.608 72.861 84.319 72.861C84.319 71.842 84.319 70.852 84.316 69.862C84.316 69.798 84.284 69.734 84.27 69.67C83.999 68.419 82.832 67.623 81.428 67.804C80.369 67.941 79.339 68.851 79.27 69.864C79.204 70.846 79.256 71.837 79.256 72.861Z" fill="white"/>
<path fill-rule="evenodd" clip-rule="evenodd" d="M50.66 62.5249C50.66 72.0669 50.66 81.5489 50.66 91.0609C48.933 91.0609 47.214 91.0609 45.457 91.0609C45.457 90.2549 45.457 89.4599 45.457 88.6599C44.911 89.1239 44.414 89.5989 43.865 90.0029C42.557 90.9649 41.053 91.2309 39.475 91.0739C38.662 90.9949 37.966 90.5669 37.363 90.0439C36.886 89.6299 36.461 89.1489 36.061 88.6589C35.372 87.8119 35.077 86.8219 35.078 85.7279C35.083 78.1609 35.084 70.5929 35.073 63.0259C35.073 62.6419 35.163 62.5089 35.567 62.5159C36.996 62.5389 38.425 62.5249 39.855 62.5249C39.988 62.5249 40.121 62.5249 40.305 62.5249C40.305 62.7199 40.305 62.8789 40.305 63.0369C40.305 69.7329 40.305 76.4299 40.305 83.1259C40.305 84.2259 41.236 85.6139 42.359 85.8219C43.478 86.0269 44.502 85.5389 44.964 84.4809C45.321 83.6659 45.471 82.8419 45.467 81.9429C45.439 75.6409 45.457 69.3389 45.443 63.0379C45.442 62.6199 45.556 62.5089 45.967 62.5159C47.382 62.5409 48.798 62.5259 50.213 62.5259C50.346 62.5249 50.48 62.5249 50.66 62.5249Z" fill="white"/>
<path fill-rule="evenodd" clip-rule="evenodd" d="M22.13 59.9749C20.369 59.9749 18.686 59.9749 16.976 59.9749C16.976 58.2309 16.976 56.5129 16.976 54.7739C22.155 54.7739 27.319 54.7739 32.514 54.7739C32.514 56.4959 32.514 58.213 32.514 59.963C30.798 59.963 29.089 59.963 27.339 59.963C27.339 70.34 27.339 80.6849 27.339 91.0599C25.591 91.0599 23.884 91.0599 22.131 91.0599C22.13 80.7189 22.13 70.3739 22.13 59.9749Z" fill="white"/>
</svg>
