<svg width="30" height="21" viewBox="0 0 30 21" fill="none" xmlns="http://www.w3.org/2000/svg">
<path d="M28.7171 3.27409C28.3907 2.04682 27.4249 1.07864 26.1963 0.746822C23.9747 0.151367 15.061 0.151367 15.061 0.151367C15.061 0.151367 6.15195 0.151367 3.92581 0.746822C2.70167 1.07409 1.73595 2.04228 1.40497 3.27409C0.811035 5.50137 0.811035 10.1514 0.811035 10.1514C0.811035 10.1514 0.811035 14.8014 1.40497 17.0286C1.73141 18.2559 2.69713 19.2241 3.92581 19.5559C6.15195 20.1514 15.061 20.1514 15.061 20.1514C15.061 20.1514 23.9747 20.1514 26.1963 19.5559C27.4204 19.2286 28.3861 18.2605 28.7171 17.0286C29.311 14.8014 29.311 10.1514 29.311 10.1514C29.311 10.1514 29.311 5.50137 28.7171 3.27409Z" fill="white"/>
<path d="M12.2138 14.4377L19.6176 10.1514L12.2138 5.865V14.4377Z" fill="black"/>
</svg>
