<svg width="25" height="25" fill="none" xmlns="http://www.w3.org/2000/svg"><path d="M19.204 10.858h-.25V6.613C18.954 3.518 16.06 1 12.5 1 8.941 1 6.046 3.518 6.046 6.613v4.245h-.25c-.99 0-1.796.7-1.796 1.561v8.49C4 22.613 5.595 24 7.555 24h9.89C19.405 24 21 22.613 21 20.909v-8.49c0-.86-.805-1.561-1.796-1.561zM7.594 6.613c0-2.353 2.2-4.267 4.906-4.267 2.706 0 4.907 1.914 4.907 4.267v4.245h-.759v-4.27c0-1.989-1.86-3.607-4.148-3.607-2.287 0-4.148 1.618-4.148 3.607v4.27h-.759V6.613zm7.507-.025v4.27H9.899v-4.27c0-1.247 1.167-2.261 2.601-2.261s2.601 1.014 2.601 2.261zm4.352 14.32c0 .963-.9 1.746-2.008 1.746h-9.89c-1.107 0-2.007-.783-2.007-1.745v-8.49c0-.119.111-.216.248-.216h13.408c.137 0 .249.097.249.216v8.49z" fill="#EAEAEA"/><path d="M12.5 14.751c-1.16 0-2.102.943-2.102 2.103 0 .902.571 1.672 1.37 1.97v1.215a.731.731 0 101.463 0v-1.215a2.106 2.106 0 001.371-1.97c0-1.16-.943-2.103-2.102-2.103zm0 2.742a.64.64 0 11.001-1.28.64.64 0 01-.001 1.28z" fill="#EAEAEA"/></svg>