<svg width="25" height="25" fill="none" xmlns="http://www.w3.org/2000/svg"><g clip-path="url(#clip0)" fill="#EAEAEA"><path d="M9.657 25c-.23 0-.465-.033-.698-.1a2.443 2.443 0 01-1.774-2.428.895.895 0 00-.418-.789.867.867 0 00-.863-.05 2.423 2.423 0 01-2.917-.594 2.456 2.456 0 01-.194-3.01.903.903 0 00.07-.894.88.88 0 00-.703-.52A2.44 2.44 0 01.027 14.52a2.448 2.448 0 011.456-2.626.89.89 0 00.533-.704.899.899 0 00-.316-.834 2.455 2.455 0 01-.658-2.94 2.43 2.43 0 012.632-1.399.87.87 0 00.816-.295.902.902 0 00.182-.88A2.451 2.451 0 015.7 2.01a2.422 2.422 0 012.966.257.868.868 0 00.845.197.885.885 0 00.617-.635A2.434 2.434 0 0112.5 0c1.126 0 2.08.735 2.373 1.828a.885.885 0 00.616.635c.302.089.61.017.845-.197a2.422 2.422 0 012.966-.257 2.452 2.452 0 011.028 2.833.902.902 0 00.182.879.87.87 0 00.816.295 2.43 2.43 0 012.632 1.4 2.455 2.455 0 01-.658 2.939.899.899 0 00-.316.834.89.89 0 00.533.704 2.448 2.448 0 011.456 2.626 2.44 2.44 0 01-2.133 2.097.88.88 0 00-.703.519.903.903 0 00.07.894c.63.945.552 2.155-.194 3.01a2.423 2.423 0 01-2.917.593.867.867 0 00-.863.051.895.895 0 00-.418.79 2.443 2.443 0 01-1.774 2.426 2.426 2.426 0 01-2.78-1.085.875.875 0 00-.761-.431.875.875 0 00-.761.431A2.426 2.426 0 019.657 25zm2.843-3.18c.863 0 1.647.442 2.097 1.183.33.544.855.44 1.007.396a.878.878 0 00.649-.894 2.458 2.458 0 011.138-2.138 2.43 2.43 0 012.39-.14c.564.275.95-.095 1.055-.216.223-.256.36-.683.072-1.114a2.467 2.467 0 01-.191-2.414 2.443 2.443 0 011.932-1.418c.5-.061.73-.438.778-.77.048-.335-.066-.766-.533-.97a2.454 2.454 0 01-1.457-1.913c-.124-.858.198-1.7.86-2.255.395-.33.384-.779.241-1.088-.067-.146-.335-.615-.955-.512a2.434 2.434 0 01-2.252-.81 2.465 2.465 0 01-.494-2.373.885.885 0 00-.377-1.048c-.134-.085-.607-.33-1.073.094a2.43 2.43 0 01-2.337.543 2.448 2.448 0 01-1.687-1.73.868.868 0 00-.863-.67c-.33 0-.73.176-.863.67a2.448 2.448 0 01-1.687 1.73 2.43 2.43 0 01-2.337-.543c-.466-.425-.939-.18-1.073-.094a.885.885 0 00-.377 1.048c.26.83.076 1.717-.494 2.373a2.434 2.434 0 01-2.252.81c-.62-.103-.888.366-.955.512-.143.31-.154.757.241 1.088.662.554.984 1.398.86 2.255a2.454 2.454 0 01-1.457 1.914c-.467.203-.581.634-.533.969.048.332.278.709.778.77a2.443 2.443 0 011.932 1.419 2.468 2.468 0 01-.19 2.413c-.288.431-.152.859.071 1.115.105.12.491.49 1.056.216a2.43 2.43 0 012.39.14 2.458 2.458 0 011.137 2.137c-.01.517.328.8.649.894.152.045.677.148 1.007-.396A2.437 2.437 0 0112.5 21.82z"/><path d="M8.594 17.188a.781.781 0 01-.552-1.334l7.812-7.812a.781.781 0 111.105 1.104L9.146 16.96a.779.779 0 01-.552.229zm1.562-7.031a1.564 1.564 0 01-1.562-1.563 1.563 1.563 0 013.125 0c0 .862-.701 1.563-1.563 1.563zm0-1.563v.001zm4.688 9.375a1.565 1.565 0 01-1.563-1.563 1.563 1.563 0 111.563 1.563zm0-1.563v.001z"/></g><defs><clipPath id="clip0"><path fill="#fff" d="M0 0h25v25H0z"/></clipPath></defs></svg>