<svg width="25" height="25" fill="none" xmlns="http://www.w3.org/2000/svg"><path d="M9.521 14.746c.404 0 .733.329.733.732a.732.732 0 101.465 0 2.2 2.2 0 00-1.465-2.07v-.86a.732.732 0 00-1.465 0v.86a2.2 2.2 0 00-1.465 2.07 2.2 2.2 0 002.197 2.198.733.733 0 11-.732.732.732.732 0 00-1.465 0A2.2 2.2 0 008.79 20.48v.858a.732.732 0 001.465 0v-.858a2.2 2.2 0 001.465-2.072 2.2 2.2 0 00-2.198-2.197.733.733 0 010-1.465z" fill="#EAEAEA"/><path d="M24.268 17.676h-5.713c-.804-2.748-2.463-4.4-3.937-5.867-1.442-1.434-2.613-2.601-2.853-4.485h.686a.732.732 0 000-1.465h-.665c.415-2.337 2.611-4.572 2.648-4.609C14.9.78 14.558 0 13.916 0c-1.32 0-2.032.474-2.604.855-.51.34-.914.61-1.79.61-.877 0-1.28-.27-1.792-.61C7.16.475 6.447 0 5.127 0c-.645 0-.982.787-.518 1.25.037.037 2.233 2.272 2.648 4.61h-.665a.732.732 0 000 1.464h.686c-.24 1.88-1.408 3.041-2.847 4.47-.994.987-2.121 2.107-2.975 3.596C.476 17.1 0 19.046 0 21.338l.001.144C.031 23.422 1.675 25 3.665 25h20.603a.732.732 0 00.732-.732v-5.86a.732.732 0 00-.732-.732zm-.733 2.93h-7.422V19.14h7.422v1.465zM9.521 2.93c1.034 0 1.695-.291 2.207-.6-.634.986-1.247 2.227-1.423 3.53H8.738c-.176-1.303-.789-2.544-1.423-3.53.512.309 1.173.6 2.206.6zM1.466 21.459l-.001-.121c0-4.534 2.033-6.553 3.999-8.505 1.494-1.484 3.033-3.014 3.288-5.509h1.54c.254 2.498 1.796 4.034 3.292 5.524 1.328 1.32 2.694 2.681 3.434 4.828H15.38a.732.732 0 00-.733.732v5.127H3.665c-1.195 0-2.181-.931-2.2-2.076zm22.07 2.076h-7.423V22.07h7.422v1.465z" fill="#EAEAEA"/></svg>