<svg width="68" height="68" viewBox="0 0 68 68" fill="none" xmlns="http://www.w3.org/2000/svg">
<rect opacity="0.15" width="68" height="68" rx="34" fill="#4CAF50"/>
<rect x="10" y="10" width="48" height="48" rx="24" fill="#4CAF50"/>
<path d="M44.3449 26.4124H37.5238V25.4882C37.5238 24.979 37.3215 24.4907 36.9614 24.1306C36.6013 23.7705 36.113 23.5682 35.6038 23.5682H32.3961C31.8869 23.5682 31.3985 23.7705 31.0384 24.1306C30.6784 24.4907 30.4761 24.979 30.4761 25.4882V26.4124H23.655C23.01 26.4124 22.3914 26.6686 21.9353 27.1247C21.4792 27.5808 21.223 28.1994 21.223 28.8444V35.3519C21.223 35.6713 21.2859 35.9875 21.4081 36.2826C21.5303 36.5777 21.7094 36.8458 21.9353 37.0716C22.1611 37.2974 22.4292 37.4766 22.7243 37.5988C23.0193 37.721 23.3356 37.7839 23.655 37.7839H31.733V37.5612C31.733 37.3915 31.8005 37.2287 31.9205 37.1086C32.0405 36.9886 32.2033 36.9212 32.373 36.9212H35.6268C35.7965 36.9212 35.9593 36.9886 36.0793 37.1086C36.1994 37.2287 36.2668 37.3915 36.2668 37.5612V37.7839H44.3449C44.6643 37.7839 44.9805 37.721 45.2756 37.5988C45.5706 37.4766 45.8387 37.2974 46.0646 37.0716C46.2904 36.8458 46.4695 36.5777 46.5918 36.2826C46.714 35.9875 46.7769 35.6713 46.7769 35.3519V28.8431C46.7765 28.1983 46.5202 27.5801 46.0641 27.1243C45.6081 26.6684 44.9897 26.4124 44.3449 26.4124ZM31.7561 26.4124V25.4882C31.7561 25.3185 31.8235 25.1557 31.9435 25.0357C32.0636 24.9157 32.2263 24.8482 32.3961 24.8482H35.6038C35.7735 24.8482 35.9363 24.9157 36.0563 25.0357C36.1763 25.1557 36.2438 25.3185 36.2438 25.4882V26.4124H31.7561ZM34.9868 38.1986V39.1343H33.013V38.1986H34.9868ZM44.3449 39.0614C44.9479 39.0572 45.5406 38.9042 46.0703 38.6159V42.3842C46.0703 42.6532 46.0173 42.9195 45.9144 43.168C45.8115 43.4164 45.6606 43.6422 45.4705 43.8324C45.2803 44.0226 45.0545 44.1734 44.8061 44.2763C44.5576 44.3793 44.2913 44.4322 44.0223 44.4322H23.9737C23.4305 44.4322 22.9096 44.2165 22.5255 43.8324C22.1415 43.4483 21.9257 42.9274 21.9257 42.3842V38.6159C22.4554 38.9042 23.0481 39.0572 23.6511 39.0614H31.7292V39.7743C31.7292 39.9441 31.7966 40.1068 31.9167 40.2269C32.0367 40.3469 32.1995 40.4143 32.3692 40.4143H35.623C35.7927 40.4143 35.9555 40.3469 36.0755 40.2269C36.1955 40.1068 36.263 39.9441 36.263 39.7743V39.0614H44.3449Z" fill="white"/>
</svg>
