<svg width="68" height="68" viewBox="0 0 68 68" fill="none" xmlns="http://www.w3.org/2000/svg">
<rect opacity="0.15" width="68" height="68" rx="34" fill="url(#paint0_linear)"/>
<rect x="10" y="10" width="48" height="48" rx="24" fill="url(#paint1_linear)"/>
<path d="M34.0042 19.9582C29.2164 19.9582 26.5701 21.8301 25.2782 23.7675C24.5064 24.9249 24.2179 26.0448 24.0936 26.8019H23.7198C22.6159 26.8019 21.7037 27.7212 21.7037 28.8248V29.9632C21.7037 31.0668 22.6159 31.9861 23.7198 31.9861H24.865C25.9688 31.9861 26.8811 31.0668 26.8811 29.9632V28.8248C26.8811 28.0671 26.4462 27.4051 25.8199 27.059C25.9135 26.4991 26.1345 25.6504 26.7371 24.7464C27.7294 23.2584 29.6553 21.7119 34.0042 21.7119C38.353 21.7119 40.2705 23.2584 41.2628 24.7464C41.8655 25.6503 42.0863 26.4987 42.1799 27.059C41.5539 27.4052 41.1204 28.0674 41.1204 28.8248V29.9632C41.1204 31.0668 42.031 31.9861 43.1348 31.9861H44.2817C45.3856 31.9861 46.2961 31.0668 46.2961 29.9632V28.8248C46.2961 27.7212 45.3856 26.8019 44.2817 26.8019H43.9064C43.7821 26.0448 43.4936 24.9249 42.7218 23.7675C41.4299 21.8301 38.7921 19.9582 34.0043 19.9582H34.0042ZM34.088 23.4486C30.796 23.4486 28.1204 26.1547 28.1204 29.4574C28.1204 32.76 30.796 35.4576 34.088 35.4576C36.1385 35.4576 37.9531 34.4105 39.0305 32.8227L35.2932 32.7696C35.1465 32.771 35.0008 32.7487 34.865 32.704C34.7292 32.6593 34.606 32.593 34.5026 32.5093C34.3992 32.4255 34.3178 32.3258 34.2633 32.2163C34.2087 32.1067 34.182 31.9895 34.1849 31.8715C34.1878 31.7535 34.2201 31.6371 34.28 31.5294C34.3398 31.4216 34.426 31.3247 34.5334 31.2442C34.6407 31.1637 34.7671 31.1015 34.905 31.0611C35.0429 31.0206 35.1895 31.0029 35.336 31.0089L39.5482 31.076C39.6434 31.0737 39.7386 31.0813 39.8314 31.0988C39.9808 30.5755 40.0664 30.0265 40.0664 29.4564C40.0664 26.1538 37.3804 23.4476 34.0885 23.4476L34.088 23.4486ZM34.088 36.824C33.2814 36.824 32.4768 36.9017 31.6896 37.0435L33.9989 39.6819L36.3304 37.0143C35.5929 36.8911 34.8419 36.824 34.0897 36.824H34.088ZM39.0648 37.8132C39.0333 37.8588 38.999 37.9023 38.962 37.9435L35.7271 41.6363L38.2438 44.1513C38.4855 44.3936 38.6212 44.7219 38.6212 45.0642C38.6212 45.4064 38.4855 45.7347 38.2438 45.977L36.1762 48.0428H42.4268C42.9011 48.0424 43.2902 47.6649 43.3045 47.1908C43.3045 47.1908 43.3485 45.6643 43.1263 43.9198C42.9042 42.1755 42.5498 40.1375 41.1205 39.0151C40.4996 38.5274 39.8034 38.1343 39.065 37.8133L39.0648 37.8132ZM28.9827 37.873C28.2967 38.1835 27.6484 38.5574 27.066 39.0148C25.6367 40.1372 25.2738 42.1752 25.0516 43.9196C24.8295 45.664 24.8735 47.1906 24.8735 47.1906C24.8886 47.6645 25.2767 48.0422 25.7512 48.0426H31.8252L29.7594 45.9768C29.5187 45.7346 29.3836 45.407 29.3836 45.0656C29.3836 44.7242 29.5187 44.3967 29.7594 44.1544L32.2743 41.6378L29.0411 37.9433C29.0208 37.9205 29.0013 37.897 28.9827 37.8728V37.873ZM33.9972 43.5647L32.4971 45.0665L33.9972 46.5665L35.4989 45.0665L33.9972 43.5647Z" fill="white"/>
<defs>
<linearGradient id="paint0_linear" x1="34" y1="0" x2="34" y2="68" gradientUnits="userSpaceOnUse">
<stop stop-color="#2196F3"/>
<stop offset="1" stop-color="#2494EE"/>
</linearGradient>
<linearGradient id="paint1_linear" x1="34" y1="10" x2="34" y2="58" gradientUnits="userSpaceOnUse">
<stop stop-color="#2196F3"/>
<stop offset="1" stop-color="#2494EE"/>
</linearGradient>
</defs>
</svg>
