<svg width="19" height="17" fill="none" xmlns="http://www.w3.org/2000/svg"><path d="M18.443 3.472H13.41V2.366A2.25 2.25 0 0011.163.118H7.837A2.25 2.25 0 005.59 2.366v1.106H.557A.557.557 0 000 4.029V14.14a2.745 2.745 0 002.741 2.741H16.26a2.745 2.745 0 002.74-2.74V4.029a.557.557 0 00-.557-.557zm-7.68 7.264c0 .696-.567 1.263-1.263 1.263a1.264 1.264 0 01-1.263-1.263V9.473h2.526v1.263zm.557-2.376H7.68a.557.557 0 00-.556.556v1.012C3.887 9.225 1.46 7.125 1.148 4.585h16.704c-.312 2.54-2.739 4.64-5.976 5.343V8.916a.557.557 0 00-.556-.556zM6.703 2.366c0-.626.509-1.135 1.134-1.135h3.326c.625 0 1.134.51 1.134 1.135v1.106H6.703V2.366zM17.887 14.14a1.63 1.63 0 01-1.628 1.628H2.74a1.63 1.63 0 01-1.628-1.628V7.456a7.814 7.814 0 001.73 1.76c1.212.91 2.693 1.542 4.305 1.854A2.38 2.38 0 009.5 13.112a2.38 2.38 0 002.352-2.042c1.612-.312 3.093-.944 4.306-1.853a7.814 7.814 0 001.729-1.761v6.685z" fill="#EAEAEA"/></svg>