<svg width="19" height="19" fill="none" xmlns="http://www.w3.org/2000/svg"><path d="M7.236 11.207c.307 0 .557.25.557.557a.557.557 0 001.113 0 1.67 1.67 0 00-1.113-1.574v-.653a.557.557 0 00-1.113 0v.652a1.673 1.673 0 00-1.114 1.575c0 .92.75 1.67 1.67 1.67a.557.557 0 11-.556.556.557.557 0 00-1.114 0c0 .726.466 1.345 1.114 1.574v.653a.557.557 0 001.113 0v-.653a1.673 1.673 0 001.113-1.574c0-.92-.749-1.67-1.67-1.67a.557.557 0 010-1.113z" fill="#EAEAEA"/><path d="M18.443 13.434h-4.34c-.612-2.089-1.873-3.344-2.994-4.459-1.095-1.09-1.985-1.977-2.168-3.409h.522a.557.557 0 000-1.113h-.506C9.272 2.677 10.942.978 10.97.95a.557.557 0 00-.394-.95C9.573 0 9.032.36 8.597.65c-.388.259-.694.463-1.36.463-.667 0-.974-.204-1.362-.463C5.441.36 4.9 0 3.896 0a.557.557 0 00-.393.95C3.53.978 5.2 2.677 5.515 4.453H5.01a.557.557 0 000 1.113h.521c-.182 1.429-1.07 2.312-2.163 3.397-.756.75-1.613 1.602-2.261 2.734C.362 12.997 0 14.475 0 16.216v.11C.025 17.8 1.274 19 2.786 19h15.658c.308 0 .557-.25.557-.557V13.99a.557.557 0 00-.557-.556zm-.556 2.226h-5.64v-1.113h5.64v1.113zM7.237 2.227c.785 0 1.287-.221 1.676-.456-.482.749-.947 1.692-1.081 2.682H6.64c-.134-.99-.6-1.933-1.082-2.682.39.235.892.456 1.677.456zM1.113 16.309v-.092c0-3.446 1.544-4.98 3.038-6.464 1.136-1.128 2.306-2.29 2.5-4.187h1.17c.193 1.899 1.365 3.066 2.502 4.198 1.009 1.004 2.047 2.038 2.61 3.67H11.69a.557.557 0 00-.557.556v3.897H2.785c-.908 0-1.657-.708-1.671-1.578zm16.773 1.578h-5.64v-1.114h5.64v1.114z" fill="#EAEAEA"/></svg>