<svg width="126" height="126" viewBox="0 0 126 126" fill="none" xmlns="http://www.w3.org/2000/svg">
<path d="M36.1962 7.25586L38.3297 13.8222H45.2339L39.6483 17.8803L41.7818 24.4466L36.1962 20.3884L30.6106 24.4466L32.7441 17.8803L27.1585 13.8222H34.0627L36.1962 7.25586Z" fill="#FFCE28"/>
<path d="M36.1962 98.9015L38.3297 105.468H45.2339L39.6483 109.526L41.7818 116.092L36.1962 112.034L30.6106 116.092L32.7441 109.526L27.1585 105.468H34.0627L36.1962 98.9015Z" fill="#FFCE28"/>
<path d="M16.2938 79.8959L18.4274 86.4622H25.3316L19.7459 90.5204L21.8795 97.0866L16.2938 93.0285L10.7082 97.0866L12.8417 90.5204L7.25612 86.4622H14.1603L16.2938 79.8959Z" fill="#FFCE28"/>
<path d="M108.274 79.8959L110.408 86.4622H117.312L111.726 90.5204L113.86 97.0866L108.274 93.0285L102.689 97.0866L104.822 90.5204L99.2366 86.4622H106.141L108.274 79.8959Z" fill="#FFCE28"/>
<path d="M9.50283 53.3588L11.6363 59.9251H18.5406L12.9549 63.9832L15.0884 70.5495L9.50283 66.4913L3.91721 70.5495L6.05072 63.9832L0.465101 59.9251H7.36931L9.50283 53.3588Z" fill="#FFCE28"/>
<path d="M115.499 53.3588L117.632 59.9251H124.537L118.951 63.9832L121.085 70.5495L115.499 66.4913L109.913 70.5495L112.047 63.9832L106.461 59.9251H113.365L115.499 53.3588Z" fill="#FFCE28"/>
<path d="M16.2938 26.8215L18.4274 33.3878H25.3316L19.7459 37.446L21.8795 44.0123L16.2938 39.9541L10.7082 44.0123L12.8417 37.446L7.25612 33.3878H14.1603L16.2938 26.8215Z" fill="#FFCE28"/>
<path d="M108.274 26.8215L110.408 33.3878H117.312L111.726 37.446L113.86 44.0123L108.274 39.9541L102.689 44.0123L104.822 37.446L99.2366 33.3878H106.141L108.274 26.8215Z" fill="#FFCE28"/>
<path d="M89.2685 7.25586L91.402 13.8222H98.3062L92.7206 17.8803L94.8541 24.4466L89.2685 20.3884L83.6828 24.4466L85.8163 17.8803L80.2307 13.8222H87.1349L89.2685 7.25586Z" fill="#FFCE28"/>
<path d="M89.2685 98.9015L91.402 105.468H98.3062L92.7206 109.526L94.8541 116.092L89.2685 112.034L83.6828 116.092L85.8163 109.526L80.2307 105.468H87.1349L89.2685 98.9015Z" fill="#FFCE28"/>
<path d="M62.7313 0.158691L64.8649 6.72498H71.7691L66.1834 10.7832L68.317 17.3495L62.7313 13.2913L57.1457 17.3495L59.2792 10.7832L53.6936 6.72498H60.5978L62.7313 0.158691Z" fill="#FFCE28"/>
<path d="M62.7313 106.153L64.8649 112.719H71.7691L66.1834 116.777L68.317 123.344L62.7313 119.286L57.1457 123.344L59.2792 116.777L53.6936 112.719H60.5978L62.7313 106.153Z" fill="#FFCE28"/>
</svg>
