<svg xmlns="http://www.w3.org/2000/svg" width="539.506" height="427.434" viewBox="0 0 539.506 427.434">
  <path id="Rectangle_139" data-name="Rectangle 139" d="M416.709,86.482C413.967-1.01,137.816-1.01,100.068,18.857.734,48.656,12.752,113.563,38.074,180.816S15.967,296.559,100.068,353.609s254.213-6.863,254.213-6.863,92.114-40.679,79.06-152.874M73.142-12.021c-.031.063,399.15,0,399.15,0-.332.779-.253,85.451,0,85.429V337.734c-.2-.182-.26,77.438,0,77.651H-67.213c.456-.1-.015-77.661,0-77.651V-12.021S73.173-12.084,73.142-12.021Z" transform="translate(67.213 12.049)" fill="#f7f7f7"/>
</svg>
