<svg width="1546" height="798" viewBox="0 0 1546 798" fill="none" xmlns="http://www.w3.org/2000/svg">
<path d="M42.2428 30.2307C42.2428 30.2307 1115.4 30.2307 1364.79 30.2307C1614.18 30.2307 1593.4 393.412 1364.79 393.412C1136.18 393.412 439.718 393.412 194.073 393.412C-51.5713 393.412 -49.87 769.552 194.073 769.552C438.019 769.552 1508.19 769.552 1508.19 769.552" stroke="#BAA85F" stroke-miterlimit="10"/>
<path d="M54.0728 56.7478C69.2558 56.7478 81.5641 44.4474 81.5641 29.274C81.5641 14.1006 69.2558 1.80005 54.0728 1.80005C38.8895 1.80005 26.5813 14.1006 26.5813 29.274C26.5813 44.4474 38.8895 56.7478 54.0728 56.7478Z" fill="url(#paint0_radial)"/>
<path d="M629.755 56.5126C644.938 56.5126 657.248 44.2107 657.248 29.0358C657.248 13.8608 644.938 1.55908 629.755 1.55908C614.573 1.55908 602.265 13.8608 602.265 29.0358C602.265 44.2107 614.573 56.5126 629.755 56.5126Z" fill="url(#paint1_radial)"/>
<path d="M1205.97 56.3435C1221.15 56.3435 1233.45 44.0431 1233.45 28.8695C1233.45 13.6962 1221.15 1.39575 1205.97 1.39575C1190.78 1.39575 1178.48 13.6962 1178.48 28.8695C1178.48 44.0431 1190.78 56.3435 1205.97 56.3435Z" fill="url(#paint2_radial)"/>
<path d="M185.258 797.824C200.441 797.824 212.749 785.522 212.749 770.35C212.749 755.177 200.441 742.876 185.258 742.876C170.075 742.876 157.766 755.177 157.766 770.35C157.766 785.522 170.075 797.824 185.258 797.824Z" fill="url(#paint3_radial)"/>
<path d="M760.942 797.589C776.124 797.589 788.434 785.286 788.434 770.111C788.434 754.936 776.124 742.635 760.942 742.635C745.757 742.635 733.447 754.936 733.447 770.111C733.447 785.286 745.757 797.589 760.942 797.589Z" fill="url(#paint4_radial)"/>
<path d="M175.694 419.079C190.877 419.079 203.185 406.778 203.185 391.605C203.185 376.432 190.877 364.131 175.694 364.131C160.511 364.131 148.203 376.432 148.203 391.605C148.203 406.778 160.511 419.079 175.694 419.079Z" fill="url(#paint5_radial)"/>
<path fill-rule="evenodd" clip-rule="evenodd" d="M1506.51 759.53V780.029L1521.54 769.784L1506.51 759.53Z" fill="#AEA364"/>
<path fill-rule="evenodd" clip-rule="evenodd" d="M1044.62 759.53V780.029L1059.65 769.784L1044.62 759.53Z" fill="#AEA364"/>
<path fill-rule="evenodd" clip-rule="evenodd" d="M480.255 759.53V780.029L495.283 769.784L480.255 759.53Z" fill="#AEA364"/>
<path fill-rule="evenodd" clip-rule="evenodd" d="M884.749 19.8218V40.3295L899.772 30.0755L884.749 19.8218Z" fill="#AEA364"/>
<path fill-rule="evenodd" clip-rule="evenodd" d="M320.375 19.8218V40.3295L335.4 30.0755L320.375 19.8218Z" fill="#AEA364"/>
<path fill-rule="evenodd" clip-rule="evenodd" d="M477.529 392.412L492.557 402.656V382.152L477.529 392.412Z" fill="#AEA364"/>
<path fill-rule="evenodd" clip-rule="evenodd" d="M1041.9 392.412L1056.92 402.656V382.152L1041.9 392.412Z" fill="#AEA364"/>
<path fill-rule="evenodd" clip-rule="evenodd" d="M0.613647 572.205L10.8589 587.244L21.1041 572.205H0.613647Z" fill="#AEA364"/>
<path d="M751.373 418.847C766.558 418.847 778.866 406.546 778.866 391.371C778.866 376.196 766.558 363.892 751.373 363.892C736.191 363.892 723.883 376.196 723.883 391.371C723.883 406.546 736.191 418.847 751.373 418.847Z" fill="url(#paint6_radial)"/>
<path d="M1337.15 797.419C1352.34 797.419 1364.65 785.118 1364.65 769.945C1364.65 754.772 1352.34 742.471 1337.15 742.471C1321.97 742.471 1309.66 754.772 1309.66 769.945C1309.66 785.118 1321.97 797.419 1337.15 797.419Z" fill="url(#paint7_radial)"/>
<defs>
<radialGradient id="paint0_radial" cx="0" cy="0" r="1" gradientUnits="userSpaceOnUse" gradientTransform="translate(54.0749 29.2742) scale(27.4747 27.4906)">
<stop stop-color="#BCAE6F"/>
<stop offset="1" stop-color="#AA9F61"/>
</radialGradient>
<radialGradient id="paint1_radial" cx="0" cy="0" r="1" gradientUnits="userSpaceOnUse" gradientTransform="translate(629.755 29.0364) scale(27.4754 27.4912)">
<stop stop-color="#BCAE6F"/>
<stop offset="1" stop-color="#AA9F61"/>
</radialGradient>
<radialGradient id="paint2_radial" cx="0" cy="0" r="1" gradientUnits="userSpaceOnUse" gradientTransform="translate(1205.97 28.87) scale(27.4734 27.4893)">
<stop stop-color="#BCAE6F"/>
<stop offset="1" stop-color="#AA9F61"/>
</radialGradient>
<radialGradient id="paint3_radial" cx="0" cy="0" r="1" gradientUnits="userSpaceOnUse" gradientTransform="translate(185.259 770.35) scale(27.4749 27.4906)">
<stop stop-color="#BCAE6F"/>
<stop offset="1" stop-color="#AA9F61"/>
</radialGradient>
<radialGradient id="paint4_radial" cx="0" cy="0" r="1" gradientUnits="userSpaceOnUse" gradientTransform="translate(760.94 770.111) scale(27.4775 27.4933)">
<stop stop-color="#BCAE6F"/>
<stop offset="1" stop-color="#AA9F61"/>
</radialGradient>
<radialGradient id="paint5_radial" cx="0" cy="0" r="1" gradientUnits="userSpaceOnUse" gradientTransform="translate(175.692 391.605) scale(27.4754 27.491)">
<stop stop-color="#BCAE6F"/>
<stop offset="1" stop-color="#AA9F61"/>
</radialGradient>
<radialGradient id="paint6_radial" cx="0" cy="0" r="1" gradientUnits="userSpaceOnUse" gradientTransform="translate(751.373 391.371) scale(27.4747 27.4906)">
<stop stop-color="#BCAE6F"/>
<stop offset="1" stop-color="#AA9F61"/>
</radialGradient>
<radialGradient id="paint7_radial" cx="0" cy="0" r="1" gradientUnits="userSpaceOnUse" gradientTransform="translate(1337.15 769.945) scale(27.4762 27.4921)">
<stop stop-color="#BCAE6F"/>
<stop offset="1" stop-color="#AA9F61"/>
</radialGradient>
</defs>
</svg>
