<svg width="30" height="38" viewBox="0 0 30 38" fill="none" xmlns="http://www.w3.org/2000/svg">
<path fill-rule="evenodd" clip-rule="evenodd" d="M5.62557 37.4593C4.41312 36.8343 3.05637 36.6834 1.77048 36.3032C0.421447 35.8999 -0.20733 35.1098 0.0606714 34.075C0.353154 32.9499 1.30534 32.4434 2.66725 32.9408C3.81656 33.361 4.12708 32.9602 4.35514 31.9137C4.74039 30.1455 5.24805 28.4005 5.75055 26.662C5.89357 26.1658 5.77762 25.9532 5.34598 25.6826C2.95973 24.1876 2.19954 21.9838 3.12595 19.3444C3.71349 17.6716 4.33453 16.0104 4.93753 14.3427C5.07411 13.9625 5.26222 13.594 5.73509 13.7615C6.20667 13.929 6.07911 14.3195 6.00052 14.7152C5.89873 15.2242 5.21326 15.7745 5.78921 16.2333C6.43731 16.7462 7.30702 17.0788 8.13165 16.6921C9.58246 16.0091 10.965 15.9936 12.4261 16.9563C12.7263 15.2912 12.9918 13.7743 13.2778 12.26C13.3512 11.8747 13.1992 11.7007 12.85 11.6092C11.2807 11.1968 9.70873 10.796 8.14968 10.345C7.6897 10.2122 7.53766 10.381 7.41654 10.7612C7.27868 11.193 7.11891 11.6182 6.95398 12.0396C6.8174 12.3863 6.59064 12.6416 6.17833 12.483C5.83044 12.349 5.77633 12.0462 5.88842 11.7278C6.11648 11.0873 6.31877 10.4339 6.61383 9.8243C6.88956 9.25982 7.40624 9.00852 8.0363 9.17477C9.82599 9.64388 11.6092 10.1297 13.3912 10.6246C14.2184 10.854 14.5444 11.4224 14.3988 12.2614C13.8151 15.6109 13.2353 18.9578 12.6387 22.3047C12.5034 23.056 12.1826 23.7455 11.7072 24.3499C11.492 24.6219 11.2394 24.8925 10.8555 24.6219C10.4999 24.3693 10.5553 24.0574 10.7859 23.7378C11.9146 22.1848 11.7149 20.2736 12.1813 18.5402C12.2973 18.1123 12.0666 17.9744 11.7252 17.794C10.7691 17.2837 9.85563 17.1136 8.81712 17.6291C7.81211 18.1291 6.74783 18.0492 5.77117 17.4835C5.21197 17.1587 4.99036 17.3223 4.81899 17.8855C4.58964 18.6446 4.2585 19.3689 4.0356 20.1293C3.17877 23.0496 5.57661 25.6825 8.57231 25.1283C8.71919 25.1013 8.85963 25.0305 9.00652 25.0047C9.3544 24.9493 9.60565 25.0858 9.6894 25.4338C9.76414 25.7431 9.58247 25.9557 9.31833 26.0511C9.00008 26.1658 8.64446 26.3308 8.33523 26.2818C7.0983 26.0924 6.76072 26.769 6.54426 27.8154C6.23374 29.331 5.84074 30.835 5.36143 32.3029C5.05091 33.2579 5.1643 33.745 6.24791 33.8804C6.92178 33.9628 7.55828 34.2271 7.91647 34.9101C8.4834 35.9914 7.79407 36.7066 7.21426 37.4606C6.68341 37.4593 6.15513 37.4593 5.62557 37.4593ZM6.11004 36.3136C6.52106 36.3806 6.87926 36.311 6.98105 35.8393C7.06866 35.4346 6.83416 35.1897 6.46952 35.0892C4.98778 34.6742 3.50347 34.2708 2.01786 33.8713C1.58623 33.7528 1.25509 33.9165 1.14428 34.3495C1.03991 34.7503 1.30404 35.0068 1.65451 35.1047C3.13496 35.521 4.62314 35.9102 6.11004 36.3136Z" fill="#AEA364"/>
<path fill-rule="evenodd" clip-rule="evenodd" d="M15.1577 0C15.753 0.710119 16.0751 1.61999 17.2875 1.74887C17.9975 1.82491 18.147 2.70389 17.5916 3.28642C17.1084 3.79291 16.9062 4.253 16.9976 4.97472C17.1252 5.97482 16.3998 6.46454 15.485 6.00573C14.9129 5.71833 14.498 5.71963 13.9259 6.00703C13.0098 6.46455 12.2857 5.97611 12.412 4.97472C12.5035 4.253 12.305 3.79291 11.8193 3.28642C11.2627 2.70389 11.4173 1.82362 12.1234 1.74887C13.3358 1.6187 13.6553 0.707542 14.2519 0C14.5521 0 14.8549 0 15.1577 0ZM14.6462 1.3442C14.4941 2.44869 13.5548 2.4474 12.6813 2.83274C13.7868 3.24386 13.5252 4.12671 13.6437 5.04174C14.3911 4.25172 15.0959 4.58936 16.0107 4.95022C15.5172 3.93852 16.0029 3.3225 16.7348 2.5415C15.552 2.70904 15.0984 2.14324 14.6462 1.3442Z" fill="#AEA364"/>
<path fill-rule="evenodd" clip-rule="evenodd" d="M21.6116 22.9981C24.2774 23.0252 26.1083 20.5546 25.3894 17.9358C25.2541 17.4461 24.6781 16.7179 25.4783 16.4821C26.3196 16.2346 26.3093 17.2064 26.4575 17.7103C27.1172 19.9218 26.2462 22.1914 24.231 23.377C23.5932 23.7521 23.543 24.0639 23.7285 24.7083C24.2658 26.5577 24.7387 28.4238 25.2013 30.2925C25.3468 30.8853 25.5826 31.1044 26.196 30.8699C26.6147 30.7088 27.0682 30.5774 27.5128 30.5529C28.4662 30.4949 29.1195 30.9665 29.3424 31.897C29.5563 32.7876 29.1942 33.557 28.3606 33.8289C26.6766 34.3792 24.959 34.838 23.2286 35.2144C22.2932 35.4193 21.6296 34.8651 21.3487 33.9565C21.0859 33.1085 21.5832 32.2424 22.4658 31.8623C23.0611 31.6071 24.03 31.821 24.204 31.1148C24.347 30.5309 23.9437 29.8105 23.7723 29.1545C23.3974 27.7305 22.9941 26.3128 22.6501 24.8823C22.5161 24.3294 22.3254 24.1013 21.6863 24.0897C19.0449 24.0407 17.1999 22.4375 16.7309 19.8471C16.1459 16.6149 15.5996 13.3762 15.0211 10.1401C14.8497 9.17993 15.2337 8.62188 16.1536 8.37702C17.7951 7.93755 19.4341 7.49294 21.0717 7.04573C22.0458 6.78025 22.6617 7.11405 22.9993 8.08063C23.7092 10.1091 24.4501 12.1312 25.1909 14.1494C25.343 14.5605 25.5247 14.9935 24.9822 15.1972C24.5171 15.3737 24.2929 15.0129 24.1975 14.6133C24.0764 14.1017 23.7749 14.0438 23.2866 14.0644C22.2764 14.1082 21.4557 14.4201 20.863 15.2771C20.1968 16.2372 19.2588 16.7772 18.0889 16.7849C17.4382 16.7901 17.3236 17.0453 17.4447 17.6123C17.6173 18.4243 17.7101 19.2555 17.9034 20.0623C18.3195 21.7931 19.8451 22.9801 21.6116 22.9981ZM17.8222 15.683C18.7641 15.7037 19.4753 15.3415 19.9881 14.603C20.68 13.6068 21.6309 13.0475 22.8408 12.9985C23.4013 12.974 23.57 12.8426 23.3459 12.2717C22.873 11.0783 22.4259 9.87459 22.0303 8.65284C21.8564 8.11542 21.5897 8.04839 21.1078 8.18371C19.6531 8.58967 18.1946 8.98531 16.7296 9.3539C16.1614 9.49566 16.057 9.76632 16.1704 10.3282C16.4848 11.8838 16.754 13.4509 16.9834 15.0193C17.0697 15.6018 17.2823 15.8416 17.8222 15.683ZM23.3317 34.1086C24.7232 33.7297 26.2823 33.316 27.8336 32.8752C28.1377 32.7876 28.3464 32.5234 28.2755 32.178C28.1957 31.7991 27.8993 31.5555 27.5321 31.6483C25.9679 32.0478 24.4153 32.4808 22.8627 32.9216C22.4748 33.0311 22.328 33.3495 22.4401 33.7193C22.5393 34.0441 22.8215 34.1614 23.3317 34.1086Z" fill="#AEA364"/>
<path fill-rule="evenodd" clip-rule="evenodd" d="M18.7731 6.56376C18.5115 6.59856 18.3479 6.45291 18.2229 6.24929C18.0773 6.01216 18.1611 5.78795 18.3376 5.63717C19.2292 4.88068 20.1311 4.13579 21.0434 3.40379C21.274 3.21822 21.5407 3.24527 21.7559 3.46951C21.8912 3.61127 21.9556 3.77879 21.8899 3.9837C21.8126 4.235 19.0398 6.54056 18.7731 6.56376Z" fill="#AEA364"/>
<path fill-rule="evenodd" clip-rule="evenodd" d="M6.77487 6.37566C7.66391 6.63986 8.64057 6.92467 9.61466 7.2198C9.93162 7.31646 10.1687 7.52523 10.063 7.88479C9.94837 8.27271 9.66362 8.38611 9.26033 8.26625C8.32232 7.9853 7.37272 7.73529 6.43342 7.45562C6.09198 7.3551 5.76858 7.16566 5.87294 6.74037C5.97344 6.32667 6.31617 6.27643 6.77487 6.37566Z" fill="#AEA364"/>
<path fill-rule="evenodd" clip-rule="evenodd" d="M9.25779 2.80957C9.35443 2.85339 9.53739 2.87657 9.61213 2.97967C10.2499 3.85733 10.8838 4.73884 11.4804 5.64485C11.6363 5.88069 11.5152 6.16038 11.2446 6.30859C10.9727 6.45422 10.7228 6.38846 10.5501 6.14875C9.95872 5.33038 9.35314 4.51976 8.81198 3.66917C8.57104 3.28898 8.72952 2.94489 9.25779 2.80957Z" fill="#AEA364"/>
</svg>
