<svg width="46" height="44" viewBox="0 0 46 44" fill="none" xmlns="http://www.w3.org/2000/svg">
<path fill-rule="evenodd" clip-rule="evenodd" d="M0 19.5583C0.944449 18.9809 1.8438 18.3043 2.84365 17.8455C5.02503 16.8441 7.26568 17.3531 9.19839 19.2283C7.6664 19.4023 6.17692 19.1961 4.47486 19.7181C6.07771 20.4372 7.58006 20.1743 9.06438 20.3173C7.37391 22.3291 4.82919 22.7312 2.34373 21.5468C1.53457 21.1615 0.997275 20.2916 0.00128776 20.271C-7.07839e-07 20.0325 0 19.7954 0 19.5583Z" fill="#AEA364"/>
<path fill-rule="evenodd" clip-rule="evenodd" d="M45.6337 20.271C44.8478 20.0519 44.5578 20.8097 44.0566 21.1164C41.3766 22.7635 38.8976 22.5934 36.4302 20.3573C37.3218 20.3161 38.0498 20.2891 38.7778 20.2478C39.498 20.2066 40.2685 20.4746 41.2452 19.7864C39.5483 19.1781 38.0292 19.3869 36.492 19.2709C38.4673 17.1226 41.1537 16.7913 43.7358 18.3108C44.3878 18.6948 45.0024 19.1408 45.6337 19.5583C45.6337 19.7954 45.6337 20.0326 45.6337 20.271Z" fill="#AEA364"/>
<path fill-rule="evenodd" clip-rule="evenodd" d="M11.7302 17.446C12.4286 16.9872 12.9143 17.602 13.4078 17.8533C17.1366 19.7555 20.0679 22.5805 22.5392 25.9184C22.8884 26.3913 23.2375 26.8656 23.6705 27.4533C26.7641 23.6579 28.5898 19.5286 28.3863 14.5669C29.1207 15.4007 29.1748 16.3583 29.247 17.3094C29.7585 24.1386 27.7072 30.4329 25.2025 36.628C24.803 37.6152 24.3405 38.5779 23.8869 39.5419C22.0676 43.4043 22.0637 43.4031 17.5425 43.0435C18.831 40.3268 19.769 37.5302 19.9365 34.5415C20.3011 28.0706 17.5928 22.94 12.9646 18.6484C12.5471 18.2618 11.9261 18.0543 11.7702 17.4112L11.7302 17.446Z" fill="#AEA364"/>
<path fill-rule="evenodd" clip-rule="evenodd" d="M23.0533 23.4336C21.3229 23.4336 19.6453 21.5107 19.6388 19.5157C19.6324 17.8468 20.7083 16.6469 22.172 16.6882C23.9256 16.7371 25.5168 18.66 25.4782 20.6808C25.4472 22.2814 24.4345 23.4323 23.0533 23.4336Z" fill="#AEA364"/>
<path fill-rule="evenodd" clip-rule="evenodd" d="M30.002 8.08182C30.7983 6.84976 31.5714 5.65251 31.9979 3.90623C30.4917 4.97333 30.0768 6.44896 29.1439 7.57792C28.3657 4.07119 30.1373 1.04775 33.4268 0.100505C33.8649 -0.0257942 34.1135 -0.13405 34.3661 0.439451C35.6597 3.37912 33.3521 7.53023 30.002 8.08182Z" fill="#AEA364"/>
<path fill-rule="evenodd" clip-rule="evenodd" d="M16.5684 7.73903C15.6124 6.37551 15.0467 5.06096 13.8046 3.84952C13.8214 5.63833 15.0647 6.67964 15.3456 8.12564C12.0291 6.89487 10.4559 4.02863 11.1697 0.840219C11.3707 -0.0619182 11.6812 -0.10441 12.4827 0.217781C15.727 1.52073 17.0889 3.85082 16.5684 7.73903Z" fill="#AEA364"/>
<path fill-rule="evenodd" clip-rule="evenodd" d="M15.3314 31.6843C14.7748 32.8326 14.2169 33.9809 13.5121 35.4333C15.2889 34.7529 15.4835 33.0801 16.4292 32.0864C17.5115 35.124 15.3662 38.8318 12.1515 39.5148C11.6683 39.6179 11.4506 39.5625 11.247 39.0445C10.1608 36.2762 12.2352 32.2307 15.1897 31.4665C15.2309 31.4562 15.3211 31.6276 15.3868 31.714L15.3314 31.6843Z" fill="#AEA364"/>
<path fill-rule="evenodd" clip-rule="evenodd" d="M30.2404 31.7165C31.5391 31.3453 32.1718 32.3983 32.9513 33.0504C33.6381 33.6226 34.0645 34.419 34.2758 35.3096C34.6199 36.7594 35.1636 38.7364 33.9679 39.4285C32.9796 39.9994 31.4142 38.5921 30.4143 37.5611C28.9351 36.0339 28.7019 34.1304 28.9802 31.8067C29.9015 33.1805 30.6939 34.3598 31.6164 35.7349C31.9398 33.9487 30.6321 32.9808 30.2971 31.6881L30.2404 31.7165Z" fill="#AEA364"/>
<path fill-rule="evenodd" clip-rule="evenodd" d="M32.1499 15.023C32.177 14.34 33.231 14.5281 33.1962 13.7626C32.512 13.2639 32.1229 14.3245 31.4993 14.117C32.3767 11.6645 34.1355 10.627 36.639 10.9892C37.3451 11.0923 37.5525 11.2895 37.3412 11.997C36.6776 14.2124 34.5001 15.5063 32.1499 15.023Z" fill="#AEA364"/>
<path fill-rule="evenodd" clip-rule="evenodd" d="M12.386 13.9431C12.7687 14.2666 13.1514 14.5913 13.5676 14.9444C11.238 15.5965 8.76931 14.1248 8.25907 11.8875C8.1109 11.2419 8.35185 11.1014 8.93552 10.9983C11.3115 10.5781 13.078 11.5834 14.284 14.2472C13.6552 13.9972 13.1527 13.7962 12.6502 13.5977C12.5123 13.6067 12.3732 13.6157 12.2353 13.6235C12.2855 13.7291 12.3358 13.8361 12.386 13.9431Z" fill="#AEA364"/>
<path fill-rule="evenodd" clip-rule="evenodd" d="M9.82713 28.6531C9.31432 28.5513 8.56958 28.7962 8.25777 28.2149C7.99364 27.7226 8.47424 27.2032 8.73451 26.7599C9.44832 25.5433 10.3515 24.5174 11.9183 24.5638C12.3783 24.5767 13.0109 24.1836 13.3099 24.935C13.9064 26.4428 13.8961 26.448 13.2068 27.2445C12.3203 28.2665 11.1581 28.59 9.82713 28.6531Z" fill="#AEA364"/>
<path fill-rule="evenodd" clip-rule="evenodd" d="M23.2736 9.47491C23.021 8.73388 23.4037 8.04309 22.8909 7.39613C22.0792 7.91421 22.7337 8.8138 22.3433 9.38859C20.6258 7.44642 20.6232 5.04545 22.2479 3.23345C22.8033 2.61613 23.0584 2.85582 23.4591 3.34039C25.0117 5.21554 24.9834 7.32784 23.2736 9.47491Z" fill="#AEA364"/>
<path fill-rule="evenodd" clip-rule="evenodd" d="M31.4244 25.7534C31.9952 25.3461 32.3006 26.3578 32.7709 25.7895C32.9371 25.1464 32.1009 25.1167 32.0261 24.609C34.978 24.4208 36.4095 25.2391 37.2638 27.4442C37.5769 28.251 37.3449 28.4585 36.5847 28.5951C34.451 28.974 32.9345 28.1685 31.4244 25.7534Z" fill="#AEA364"/>
<path fill-rule="evenodd" clip-rule="evenodd" d="M32.8971 19.6613C32.7039 20.432 32.1034 20.5648 31.5417 20.6485C30.9374 20.7387 30.288 20.6292 30.1411 19.9152C29.971 19.0866 30.6655 18.9654 31.2415 18.9113C31.9179 18.8481 32.4719 19.1548 32.8971 19.6613Z" fill="#AEA364"/>
<path fill-rule="evenodd" clip-rule="evenodd" d="M28.1105 11.7252C28.0048 12.3284 27.9147 13.0423 27.2163 13.2614C26.7718 13.4006 26.3878 12.8993 26.4393 12.5217C26.5283 11.8644 26.7125 11.1169 27.5513 10.9854C28.028 10.9094 28.0822 11.3218 28.1105 11.7252Z" fill="#AEA364"/>
<path fill-rule="evenodd" clip-rule="evenodd" d="M19.2884 12.3283C19.1608 12.7651 19.032 13.3657 18.4805 13.2523C17.7487 13.1028 17.6327 12.3644 17.5618 11.72C17.5232 11.3643 17.6276 10.9016 18.0759 11.0073C18.7137 11.1555 19.2381 11.5473 19.2884 12.3283Z" fill="#AEA364"/>
<path fill-rule="evenodd" clip-rule="evenodd" d="M11.7702 17.4138C11.6143 17.3777 11.4584 17.3416 11.3025 17.3068C11.3373 17.2501 11.3798 17.1393 11.4043 17.1432C11.5731 17.1715 11.8952 17.0568 11.7303 17.4473L11.7702 17.4138Z" fill="#AEA364"/>
<path fill-rule="evenodd" clip-rule="evenodd" d="M15.3856 31.714C15.3534 31.6328 15.3199 31.5503 15.2877 31.4678C15.3637 31.4678 15.4398 31.4665 15.5158 31.4652C15.4539 31.5387 15.3921 31.6121 15.3302 31.6856C15.3315 31.6843 15.3856 31.714 15.3856 31.714Z" fill="#AEA364"/>
<path fill-rule="evenodd" clip-rule="evenodd" d="M30.2971 31.6869C30.2379 31.6108 30.1799 31.5348 30.1206 31.4587C30.1966 31.4626 30.2726 31.4665 30.3487 31.4703C30.3139 31.5515 30.2778 31.6327 30.2417 31.7152C30.2404 31.7165 30.2971 31.6869 30.2971 31.6869Z" fill="#AEA364"/>
<path fill-rule="evenodd" clip-rule="evenodd" d="M12.3861 13.9431C12.3359 13.8362 12.2856 13.7292 12.2354 13.6222C12.3732 13.6145 12.5124 13.6055 12.6502 13.5964C12.5626 13.7124 12.4737 13.8272 12.3861 13.9431Z" fill="#AEA364"/>
</svg>
