<svg width="31" height="31" viewBox="0 0 31 31" fill="none" xmlns="http://www.w3.org/2000/svg">
<path fill-rule="evenodd" clip-rule="evenodd" d="M30.4221 6.46963C30.4221 12.9379 30.4221 19.4062 30.4221 25.8758C29.6129 27.1981 28.4262 27.6299 26.9071 27.5332C25.4395 27.4404 23.9604 27.5564 22.4876 27.4971C21.7249 27.4662 21.5277 27.7304 21.5741 28.4483C21.6115 29.0437 21.5509 29.6326 22.4142 29.4419C23.2697 29.2524 23.5867 29.6957 23.7143 30.4277C18.0463 30.4277 12.377 30.4277 6.70776 30.4277C6.83532 29.697 7.15357 29.2524 8.00783 29.4419C8.87239 29.6326 8.81055 29.0436 8.84792 28.4495C8.8943 27.7291 8.69844 27.4649 7.93438 27.4945C6.46294 27.5564 4.98379 27.4404 3.51494 27.5332C1.99583 27.6312 0.810447 27.1981 0 25.8758C0 20.3664 0 14.8544 0 9.34489C0.909659 8.06257 2.16977 7.78412 3.68115 7.82407C6.94355 7.91171 10.2111 7.84598 13.4774 7.85758C14.168 7.85887 14.8792 7.96844 14.7195 6.8833C14.6551 6.44641 15.0725 6.42834 15.3444 6.29689C16.1265 5.91671 16.7501 4.59446 16.3442 3.86244C15.9384 3.12656 16.4099 2.79795 16.8287 2.5054C17.3428 2.1497 17.4858 1.15215 18.5166 1.60451C19.7033 2.12646 20.8951 1.32614 21.0781 0C22.0367 0 22.994 0 23.9513 0C24.334 1.40218 25.4421 2.08392 26.6996 1.56455C27.4972 1.23333 27.7046 1.88033 28.0151 2.23088C28.3785 2.64328 29.2018 2.81728 28.8501 3.71684C28.3553 4.98757 29.0202 6.08686 30.4221 6.46963ZM29.4467 9.77917C29.091 10.4583 28.2445 11.0099 28.7831 11.8837C29.3526 12.8091 28.3888 13.0359 28.0139 13.4818C27.6789 13.8826 27.4006 14.5334 26.5785 14.0823C25.8518 13.6828 24.4088 14.268 24.1536 15.0644C23.8547 15.9897 23.1628 15.723 22.5933 15.6946C22.038 15.6676 21.3293 16.0683 21.0072 15.1121C20.707 14.2177 19.3669 13.7009 18.4908 14.1197C17.8556 14.4239 17.5644 14.0527 17.3235 13.6854C16.9666 13.1454 15.9667 12.9985 16.2837 12.0333C16.7836 10.5074 15.602 8.86547 13.9309 8.8513C10.1815 8.82294 6.43073 8.83196 2.68 8.8513C1.53197 8.85645 0.990812 9.38871 0.985658 10.5396C0.966331 14.6095 0.992112 18.6794 0.965054 22.7506C0.961188 23.3782 1.14674 23.56 1.77164 23.5587C10.7484 23.5406 19.7251 23.5419 28.6993 23.5561C29.2598 23.5561 29.4608 23.4156 29.4595 22.8215C29.4363 18.4732 29.4467 14.1262 29.4467 9.77917ZM15.2503 24.5291C10.8657 24.5291 6.47842 24.5214 2.09376 24.5459C1.72139 24.5471 1.12869 24.2391 0.993404 24.8706C0.867134 25.4635 1.1957 25.9609 1.69949 26.2857C2.11695 26.5537 2.60784 26.5331 3.09102 26.5331C11.1839 26.5305 19.278 26.5306 27.3709 26.5319C27.8116 26.5319 28.2574 26.5499 28.6517 26.3205C29.2199 25.9932 29.5742 25.4635 29.4209 24.8333C29.2753 24.2443 28.671 24.5472 28.2871 24.5446C23.9436 24.5214 19.5963 24.5291 15.2503 24.5291ZM22.5585 14.7164C22.9077 14.7538 23.168 14.6675 23.3767 14.2628C23.7787 13.4844 25.7436 12.724 26.5772 12.947C27.2807 13.1338 27.8515 12.5551 27.6673 11.8412C27.4482 10.9944 28.2484 9.05742 28.9957 8.62955C29.6361 8.26225 29.6476 7.46329 29.015 7.08955C28.2561 6.64106 27.3774 4.69373 27.6724 3.89469C27.8361 3.45007 27.6724 3.2387 27.416 2.96548C27.1364 2.66907 26.8929 2.61237 26.478 2.77733C25.7964 3.05183 23.6924 2.14837 23.3818 1.46017C23.1989 1.05678 22.9747 0.951112 22.5714 0.961422C22.1784 0.970443 21.9401 1.04008 21.761 1.46795C21.471 2.151 19.3373 3.04664 18.6506 2.77214C18.2305 2.6046 18.0025 2.68581 17.719 2.97579C17.4497 3.25287 17.317 3.47325 17.4781 3.89855C17.7474 4.60479 16.8841 6.64745 16.2308 7.03795C15.499 7.47742 15.4822 8.22878 16.1961 8.64505C16.9124 9.06519 17.6894 11.0421 17.4678 11.8811C17.3183 12.4417 17.8453 13.1403 18.3736 13.032C19.8862 12.7227 21.042 13.2112 21.8756 14.5038C22.0238 14.728 22.2802 14.7242 22.5585 14.7164ZM15.1524 29.4496C16.7037 29.4496 18.2602 29.3929 19.8076 29.4715C20.7353 29.5179 20.573 28.9689 20.609 28.4212C20.649 27.8142 20.564 27.4855 19.8063 27.4945C16.7424 27.537 13.6784 27.537 10.6144 27.4945C9.8555 27.4842 9.77303 27.818 9.81297 28.4225C9.84905 28.9728 9.69056 29.5205 10.617 29.4715C12.1271 29.3916 13.641 29.4496 15.1524 29.4496Z" fill="#AEA364"/>
<path fill-rule="evenodd" clip-rule="evenodd" d="M10.4225 15.7461C9.14688 15.7474 7.87129 15.7461 6.59443 15.7474C6.22593 15.7474 5.85872 15.777 5.84584 15.2371C5.83295 14.7178 6.15123 14.6765 6.54936 14.6765C9.22035 14.6817 11.8913 14.683 14.561 14.6765C14.9682 14.6752 15.2735 14.7435 15.2542 15.2512C15.2336 15.7989 14.8457 15.7448 14.4863 15.7461C13.1321 15.7474 11.7766 15.7461 10.4225 15.7461Z" fill="#AEA364"/>
<path fill-rule="evenodd" clip-rule="evenodd" d="M10.6427 16.6883C11.7972 16.6883 12.9504 16.6547 14.1023 16.7076C14.4888 16.7243 15.1743 16.3365 15.2116 17.1522C15.249 17.9835 14.5571 17.669 14.1602 17.6729C11.7353 17.6987 9.3078 17.6974 6.88417 17.6742C6.51309 17.6716 5.92169 17.9449 5.8869 17.2116C5.84954 16.4422 6.45641 16.7076 6.82621 16.6999C8.09794 16.6715 9.37096 16.687 10.6427 16.6883Z" fill="#AEA364"/>
<path fill-rule="evenodd" clip-rule="evenodd" d="M4.8987 16.6534C4.9206 17.0567 4.75568 17.2552 4.33307 17.1857C3.53293 17.0516 3.01496 16.5915 2.9441 15.7834C2.88612 15.1326 2.89899 14.5475 2.15426 14.2163C1.78447 14.0526 1.81024 13.4276 2.09241 13.3129C2.97243 12.9533 2.85647 12.2342 2.96985 11.5396C3.08324 10.8526 3.55224 10.4209 4.25832 10.3165C4.51859 10.2791 4.85617 10.2095 4.8871 10.6336C4.90642 10.8952 4.94637 11.1246 4.58818 11.305C3.94008 11.6285 3.35768 13.6157 3.69139 14.2666C3.94006 14.7576 3.87308 15.2744 3.95425 15.7783C4.04315 16.3351 4.9541 15.969 4.8987 16.6534Z" fill="#AEA364"/>
<path fill-rule="evenodd" clip-rule="evenodd" d="M19.1517 18.1059C19.1504 18.4371 19.0911 18.6124 18.8708 18.6949C18.2304 18.9397 18.184 19.472 18.1634 20.061C18.1351 20.8587 17.7331 21.4192 16.9059 21.5674C16.656 21.6113 16.3017 21.7195 16.2243 21.3213C16.1664 21.0249 16.0929 20.646 16.5825 20.6035C17.1301 20.5571 17.1056 20.1576 17.1971 19.7555C17.42 18.7567 17.6996 17.8082 17.2254 16.7656C17.0219 16.3184 17.1752 15.7642 16.4369 15.6753C16.0981 15.6366 16.1689 15.2346 16.2282 14.9704C16.2991 14.6533 16.5774 14.6946 16.8093 14.7255C17.4651 14.8093 17.9444 15.1676 18.0836 15.8119C18.2459 16.562 18.0887 17.437 19.0718 17.7811C19.1504 17.8056 19.1439 18.0685 19.1517 18.1059Z" fill="#AEA364"/>
<path fill-rule="evenodd" clip-rule="evenodd" d="M10.5821 11.7768C9.31297 11.7768 8.04125 11.7911 6.77211 11.7679C6.43067 11.7601 5.9153 11.9857 5.88696 11.3181C5.85861 10.675 6.33149 10.7896 6.7103 10.7896C9.28852 10.7832 11.8693 10.7845 14.4488 10.787C14.7915 10.7883 15.2 10.6904 15.2206 11.2523C15.2451 11.9135 14.7606 11.7678 14.3921 11.7717C13.123 11.7833 11.8525 11.7768 10.5821 11.7768Z" fill="#AEA364"/>
<path fill-rule="evenodd" clip-rule="evenodd" d="M10.5423 20.6034C11.8179 20.6034 13.0947 20.597 14.3729 20.6073C14.744 20.6086 15.2271 20.4643 15.2194 21.1216C15.2117 21.6938 14.7916 21.5894 14.4515 21.5919C11.8565 21.5958 9.2628 21.5971 6.66911 21.5893C6.34055 21.588 5.90891 21.7195 5.88572 21.1396C5.86253 20.4926 6.32894 20.606 6.71162 20.6034C7.98849 20.5996 9.2654 20.6022 10.5423 20.6034Z" fill="#AEA364"/>
<path fill-rule="evenodd" clip-rule="evenodd" d="M11.4492 13.7383C10.4558 13.7371 9.46245 13.7358 8.46905 13.7383C8.1276 13.7396 7.8364 13.719 7.84542 13.2472C7.85444 12.8013 8.10699 12.7369 8.46389 12.7369C10.5306 12.742 12.596 12.7459 14.6639 12.7356C15.0711 12.733 15.2386 12.9018 15.2283 13.3014C15.2167 13.6867 14.9797 13.7409 14.6691 13.7396C13.5946 13.7357 12.5212 13.7383 11.4492 13.7383Z" fill="#AEA364"/>
<path fill-rule="evenodd" clip-rule="evenodd" d="M9.70603 18.6523C10.6582 18.6523 11.6104 18.6575 12.5613 18.6497C12.944 18.6472 13.2777 18.6472 13.2429 19.1897C13.2145 19.6601 12.904 19.6395 12.5793 19.6395C10.5577 19.6382 8.53482 19.6356 6.51451 19.6407C6.16533 19.642 5.89348 19.6059 5.88317 19.1497C5.87158 18.6845 6.14212 18.6484 6.49516 18.6497C7.56588 18.6588 8.6366 18.6523 9.70603 18.6523Z" fill="#AEA364"/>
<path fill-rule="evenodd" clip-rule="evenodd" d="M6.34451 12.7201C6.8135 12.6904 6.92686 12.9302 6.91913 13.3117C6.91269 13.6944 6.6782 13.7627 6.37026 13.7679C6.04429 13.773 5.83943 13.666 5.83815 13.2974C5.83686 12.9185 5.95411 12.675 6.34451 12.7201Z" fill="#AEA364"/>
<path fill-rule="evenodd" clip-rule="evenodd" d="M15.2554 19.0891C15.2838 19.4783 15.1253 19.6794 14.7129 19.6704C14.3869 19.6613 14.1975 19.5544 14.1782 19.1961C14.1563 18.7953 14.3212 18.6148 14.7245 18.6226C15.0428 18.629 15.267 18.7192 15.2554 19.0891Z" fill="#AEA364"/>
<path fill-rule="evenodd" clip-rule="evenodd" d="M22.5959 12.7472C19.8463 12.7562 17.6636 10.5666 17.6778 7.81372C17.6933 5.14467 19.8888 2.94222 22.5508 2.92418C25.2295 2.90613 27.5242 5.20788 27.4997 7.88853C27.4727 10.5537 25.2694 12.7381 22.5959 12.7472ZM22.5778 11.76C24.7064 11.76 26.469 10.0292 26.5063 7.90529C26.545 5.7788 24.7038 3.91393 22.5675 3.91522C20.4493 3.91651 18.6879 5.66662 18.6635 7.79697C18.6364 9.9982 20.3771 11.7626 22.5778 11.76Z" fill="#AEA364"/>
<path fill-rule="evenodd" clip-rule="evenodd" d="M22.6269 5.88958C23.7105 5.91922 24.5763 6.85102 24.53 7.93616C24.4836 9.02129 23.5365 9.87957 22.4581 9.81384C21.4196 9.75198 20.5936 8.86275 20.6091 7.82658C20.6233 6.74015 21.5407 5.86123 22.6269 5.88958ZM22.5766 6.88966C21.9594 6.93993 21.6116 7.28916 21.6167 7.8807C21.6206 8.42069 21.9736 8.78545 22.5109 8.80865C23.0998 8.83314 23.5004 8.50582 23.5172 7.88463C23.5339 7.2686 23.1771 6.94766 22.5766 6.88966Z" fill="#AEA364"/>
</svg>
