<svg width="164" height="80" viewBox="0 0 164 80" fill="none" xmlns="http://www.w3.org/2000/svg">
<path d="M51.2935 51.793H61.4894V55.1002H56.6391V78.338H51.2935V51.793Z" fill="#333333"/>
<path d="M67.5341 68.3727L68.4503 55.1002H68.7572L69.6733 68.3727H67.5341ZM61.6143 78.338H66.8481L67.3435 71.2883H69.864L70.3615 78.338H75.5932L72.8053 51.793H64.4022L61.6143 78.338Z" fill="#333333"/>
<path d="M83.2492 69.0472V74.0516C83.2492 74.7261 83.7752 74.9219 84.0821 74.9219C84.5862 74.9219 84.9369 74.5085 84.9369 74.0516V67.8723C84.9369 67.0455 84.7834 66.1316 82.789 66.1316H80.6191V63.216H82.8766C84.3889 63.216 84.9369 62.8679 84.9369 61.236V55.9705C84.9369 55.5136 84.5862 55.1002 84.0821 55.1002C83.7752 55.1002 83.2492 55.2743 83.2492 55.9705V60.3004H77.9014V56.5363C77.9014 54.6868 78.1205 51.793 81.8684 51.793H86.2958C90.0436 51.793 90.2847 54.6868 90.2847 56.5363V60.7791C90.2847 63.6729 88.2464 64.4562 86.6464 64.391V64.6521C90.2409 64.565 90.2847 67.3066 90.2847 68.2422V73.5947C90.2847 75.4659 90.0436 78.338 86.2958 78.338H81.8684C78.1205 78.338 77.9014 75.4659 77.9014 73.5947V69.0472H83.2492Z" fill="#333333"/>
<path d="M93.7915 51.793H106.175V78.338H100.827V55.1002H99.1394V78.338H93.7915V51.793Z" fill="#333333"/>
<path d="M115.03 66.3927V55.1002H115.731C116.301 55.1002 116.717 55.5789 116.717 56.4275V65.0655C116.717 65.914 116.301 66.3927 115.731 66.3927H115.03ZM109.682 78.338H115.03V69.3083H118.098C121.824 69.3083 122.065 66.4362 122.065 64.565V56.5363C122.065 54.6868 121.824 51.793 118.098 51.793H109.682V78.338Z" fill="#333333"/>
<path d="M132.607 74.0516C132.607 74.5085 132.257 74.9219 131.753 74.9219C131.446 74.9219 130.92 74.7261 130.92 74.0516V55.9705C130.92 55.2743 131.446 55.1002 131.753 55.1002C132.257 55.1002 132.607 55.5136 132.607 55.9705V74.0516ZM125.572 73.5947C125.572 75.4659 125.813 78.338 129.539 78.338H133.988C137.714 78.338 137.955 75.4659 137.955 73.5947V56.5363C137.955 54.6868 137.714 51.793 133.988 51.793H129.539C125.813 51.793 125.572 54.6868 125.572 56.5363V73.5947Z" fill="#333333"/>
<path d="M155.358 51.793H162.327V78.338H156.979V61.6929H156.782L154.021 78.338H149.747L147.007 61.6929H146.81V78.338H141.462V51.793H148.41L151.895 70.4615L155.358 51.793Z" fill="#333333"/>
<path d="M44.3633 15.5003C42.726 8.38538 38.6231 2.59771 38.0576 1.66211C37.1634 2.98936 33.8911 8.10253 32.2276 13.7597C30.4106 20.0913 30.1432 25.7049 30.77 31.2097C31.3925 36.7363 33.7442 42.4152 33.7442 42.4152C34.9935 45.3743 36.8653 48.5728 38.0839 50.1393C39.8702 47.833 43.9753 40.9574 45.2553 31.993C45.9676 26.9886 45.9983 22.6152 44.3633 15.5003ZM38.0576 48.3552C37.2532 46.8539 36.0039 44.0035 35.8856 39.5649C35.8549 35.3003 37.5798 31.6231 38.0839 30.8616C38.5332 31.6231 40.0192 34.8216 40.1968 39.195C40.3173 43.4596 38.8883 46.8321 38.0576 48.3552ZM43.8877 27.5761C43.8263 30.2959 43.4997 33.168 43.0833 34.8869C43.2323 31.9278 42.8751 27.7719 42.1912 24.5082C41.5074 21.2662 39.5721 15.8267 38.0269 13.3245C36.6001 15.7179 34.8423 20.4177 33.9218 24.4864C32.9969 28.5552 32.9706 33.4943 32.9706 34.9739C32.7251 33.7337 32.1114 29.2732 32.2845 24.8128C32.4292 21.1357 33.2971 17.328 33.7727 15.5873C35.5875 9.77792 37.6412 6.05726 38.0269 5.46978C38.4127 6.05726 40.9989 10.6482 42.3403 15.4568C43.6751 20.2654 43.9446 24.8781 43.8877 27.5761Z" fill="#333333"/>
<path d="M40.8345 51.793H28.3876V60.0828C28.3985 60.0828 28.4073 60.0611 28.4182 60.0611C31.3508 57.1455 36.1069 57.1455 39.0416 60.0611C41.9742 62.9549 41.9742 67.6765 39.0416 70.592C39.0285 70.6138 39.0153 70.6138 39.0022 70.6356C38.9869 70.6356 38.9715 70.6573 38.9584 70.6791C36.0324 73.5512 32.21 74.9872 28.3876 74.9872C24.5476 74.9872 20.7077 73.5512 17.7795 70.6356C12.6157 65.5224 12.0043 57.5806 15.9406 51.793C16.471 51.0097 17.0825 50.2699 17.7795 49.5736C20.7077 46.658 24.5476 45.222 28.3876 45.222V25.2915C13.6327 25.2915 1.67236 37.1497 1.67236 51.793C1.67236 66.4362 13.6327 78.3162 28.3876 78.3162C36.0806 78.3162 43.0109 75.0742 47.8853 69.9175V51.793H40.8345Z" fill="#333333"/>
</svg>
