<svg width="308" height="80" viewBox="0 0 308 80" fill="none" xmlns="http://www.w3.org/2000/svg">
<path d="M64.0696 15.8672H11.8906V67.9649H64.0696V15.8672Z" fill="#333333"/>
<path d="M55.6458 21.0661C54.4465 21.0661 53.5343 21.8522 53.0804 22.8048L46.5107 33.6093C46.0568 34.6077 45.726 35.7291 45.726 36.4737C45.726 37.1394 45.8123 37.7219 46.058 38.2627L53.1609 55.2081H25.5643C24.5732 55.2081 23.7534 54.2179 23.7534 53.2985V24.0913C23.5452 20.1017 17.8017 20.1017 17.6768 24.2119L17.7975 55.2081C17.7975 58.5779 20.4053 61.2787 23.7534 61.2787H61.3804L52.2151 37.8507C51.9653 36.977 51.8403 36.1871 52.4566 35.147L58.5333 25.2974C58.6207 25.0894 58.7345 24.2162 58.7345 23.9707C58.6137 22.1818 57.2158 20.9829 55.6458 21.0661ZM40.7459 21.0761C39.2697 21.0865 37.7982 22.0965 37.7982 24.0913V44.9967C37.7982 48.0294 33.7035 47.784 33.7035 44.9967V24.0913C33.7035 20.1017 27.7978 20.1017 27.7978 24.0913V45.1575C27.7978 49.975 31.3878 53.1779 35.6854 53.1779C40.1038 53.1779 43.7038 49.975 43.7038 45.1575V24.0913C43.7038 22.0549 42.2222 21.0657 40.7459 21.0761Z" fill="white"/>
<path d="M83.7379 21.916V43.6029C83.7379 49.0236 83.184 52.0356 78.7698 52.0356C77.9411 52.0356 77.3873 52.0356 76.5586 51.736V61.0714C78.216 61.6747 79.3195 61.6747 80.7021 61.6747C93.1243 61.6747 93.6781 52.3393 93.6781 46.9144V31.2556H100.853V61.0714H110.793V21.916H83.7379Z" fill="#333333"/>
<path d="M114.104 21.916L127.634 50.2301L122.666 61.0714H133.431L149.442 21.916H138.678L132.881 38.4818L125.976 21.916H114.104Z" fill="#333333"/>
<path d="M152.478 61.0714H162.418V44.2062L172.633 61.0714H185.335L171.255 40.8905L185.055 21.916H173.187L162.418 38.4818V21.916H152.478V61.0714Z" fill="#333333"/>
<path d="M201.621 62.2778C214.872 62.2778 220.948 52.0355 220.948 41.4937C220.948 31.2555 214.872 21.0132 201.621 21.0132C188.645 21.0132 182.574 31.2555 182.574 41.4937C182.574 52.0355 188.645 62.2778 201.621 62.2778ZM201.621 52.9383C197.203 52.9383 192.789 49.0235 192.789 41.4937C192.789 33.9638 197.203 30.3486 201.621 30.3486C206.315 30.3486 210.733 33.9638 210.733 41.4937C210.733 49.0235 206.315 52.9383 201.621 52.9383Z" fill="#333333"/>
<path d="M225.916 21.9159V61.0713H235.581L249.382 37.5789V61.0713H259.047V21.9159H249.382L235.581 45.4083V21.9159H225.916ZM242.757 19.8067C246.9 19.8067 251.039 18.3007 252.972 13.7828L247.175 11.374C246.346 14.386 243.86 14.6897 242.757 14.6897C241.928 14.6897 239.167 14.386 238.617 11.374L232.82 13.7828C234.474 18.3007 238.892 19.8067 242.757 19.8067Z" fill="#333333"/>
<path d="M269.537 21.916V43.6029C269.537 49.0236 268.983 52.0356 264.569 52.0356C263.74 52.0356 263.187 52.0356 262.358 51.736V61.0714C264.015 61.6747 265.119 61.6747 266.501 61.6747C278.924 61.6747 279.477 52.3393 279.477 46.9144V31.2556H286.653V61.0714H296.593V21.916H269.537Z" fill="#333333"/>
</svg>
