<svg width="91" height="90" viewBox="0 0 91 90" fill="none" xmlns="http://www.w3.org/2000/svg">
<path fill-rule="evenodd" clip-rule="evenodd" d="M24.9073 66.1331L23.4033 53.9523C19.4215 51.1209 16.3539 48.7906 12.6672 46.1068C10.9265 33.276 14.1417 26.3153 18.8608 19.7085C24.7303 12.2463 34.1685 6.67188 45.4649 6.67188C56.7618 6.78954 66.2294 12.4821 71.8043 19.9443C77.0244 27.0231 79.8268 35.9304 77.7911 46.4607L67.6157 53.9523L66.1108 66.1331H49.9781C48.9751 66.9301 47.6188 67.6669 45.4649 67.7262C43.3414 67.6669 42.014 66.9301 40.9228 66.1331H24.9073Z" fill="#333333"/>
<path fill-rule="evenodd" clip-rule="evenodd" d="M45.4652 49.2327C44.6098 37.877 44.374 23.8668 43.6662 12.6297C42.4569 12.3346 40.7461 12.4233 39.3304 12.6591C37.9147 13.1017 36.8824 13.485 35.6731 14.1635C37.8853 24.9585 40.4515 38.7029 42.6343 49.4097C39.6554 38.998 35.6731 25.9614 32.7241 15.5791C31.3084 15.8742 29.9221 16.6703 28.9197 17.4963C27.8579 18.3223 27.2383 18.9418 26.2648 20.4164C30.5413 29.5599 35.6731 41.2103 39.9799 50.2945C34.9947 42.0358 28.9482 31.1525 23.934 22.9531C22.961 23.8085 22.2232 24.4281 21.2497 26.0795C20.4238 27.4069 20.011 28.9702 19.8341 30.4746C25.3203 37.1701 31.8678 45.1925 37.3834 51.8577C31.6324 46.3127 24.5531 39.175 18.861 33.6299C18.3007 34.7505 17.9468 35.6946 17.7698 37.5525C17.5635 39.3515 17.9174 41.5044 18.3007 42.8024L29.4202 51.0612L30.6001 60.2341L42.8407 60.3223C43.7255 61.3547 44.0201 61.8856 45.4656 61.9738C46.8514 61.8856 47.6484 61.0302 48.0024 60.3223H60.2126L61.4508 51.12L72.4825 42.9201C72.8948 41.5637 73.16 39.4691 73.0134 37.6701C72.8365 35.7236 72.4825 34.7501 72.0105 33.7177C66.289 39.2334 59.1802 46.3715 53.4881 51.9161C59.0327 45.3093 65.5218 37.2569 71.0664 30.503C70.7718 28.9991 70.4179 27.4648 69.5326 26.1379C68.5002 24.486 67.9101 23.8668 66.9664 22.982C61.9233 31.152 55.7881 42.1245 50.8034 50.3234C55.2283 41.2098 60.242 29.5594 64.5782 20.5345C63.6346 19.0889 62.9557 18.3517 62.012 17.585C60.8915 16.7296 59.5052 15.9335 58.1484 15.609C55.0513 25.9614 51.2469 39.1162 48.2382 49.4391C50.3318 38.7324 52.9572 25.106 55.0513 14.3409C53.99 13.5738 52.9577 13.1904 51.5705 12.7777C49.9783 12.4826 48.4151 12.4238 47.1759 12.6301C46.3504 23.9555 46.3201 37.9363 45.4652 49.2327Z" fill="white"/>
<path fill-rule="evenodd" clip-rule="evenodd" d="M11.6641 79.1109H17.3861C17.2978 80.3795 17.9174 80.6741 18.2125 80.881C18.5365 80.9986 20.9262 81.1163 22.1056 80.9099C22.5777 80.8217 23.0198 80.6447 23.0198 79.1991C23.0198 78.58 22.8723 77.9016 22.1644 77.7536C19.6571 77.5477 17.2091 77.8129 14.7023 77.5766C12.1949 77.0168 11.8121 76.3673 11.6641 74.3914C11.841 71.6482 12.8145 70.8522 15.6165 70.7635C18.5359 70.6752 21.4573 70.6752 24.3767 70.7635C27.3556 70.7635 28.2698 71.9144 28.2698 74.4212H23.0198C23.0198 73.1821 22.784 72.7105 22.1644 72.6512C20.8879 72.5629 19.6067 72.5629 18.3302 72.6512C17.8581 72.6512 17.239 72.8874 17.239 74.008C17.239 75.0693 17.5042 75.335 18.2125 75.4242C20.3654 75.5119 22.5482 75.5418 24.6718 75.6884C28.2109 75.8953 28.3291 77.4585 28.4467 79.11C28.5056 81.4702 27.6502 82.2952 27.0311 82.6795C26.4413 82.9447 23.5801 83.2697 23.0198 83.2697H17.3571C16.0885 83.2697 14.4959 83.1221 13.1096 82.7089C11.8116 82.3555 11.6641 80.6153 11.6641 79.1109ZM65.4336 83.3285H70.4473V70.8232H65.4336V83.3285ZM73.8095 83.3285H78.7648V70.8232H73.8095V83.3285ZM62.5135 76.7805C62.4222 76.3894 62.3037 76.0051 62.1587 75.6305C61.3033 74.2443 58.3543 74.2443 55.4935 74.185C53.3406 74.185 50.1259 74.2443 49.1818 75.158C48.798 75.5712 48.5916 76.1609 48.474 76.7805C48.3264 77.5183 48.3554 78.2845 48.3554 78.6388C48.3554 79.2874 48.4147 81.7942 49.624 82.4432C50.7446 83.181 54.1362 83.2697 55.4337 83.2697C56.82 83.2697 60.6548 83.1221 61.2155 82.4727C62.2175 82.1187 62.4538 80.8805 62.6601 79.9074H57.7347C57.7347 80.8805 56.9676 81.4707 55.4337 81.381C54.0475 81.4702 53.2514 81.1457 53.2514 79.406L62.6597 79.4349C62.6601 78.58 62.6905 77.6653 62.5135 76.7805ZM57.7347 77.6359H53.2514C53.2514 77.282 53.3107 76.9864 53.3989 76.7805C53.7225 75.9845 54.549 75.955 55.4333 75.8957C56.7901 75.8957 57.3803 76.2202 57.6166 76.7805C57.7347 77.0168 57.7641 77.3114 57.7347 77.6359ZM31.3962 83.3285H36.2922V78.0193C36.4104 77.2825 36.5873 76.6923 38.3863 76.6923C40.0966 76.6633 40.5687 77.1345 40.5687 78.0193V83.3285H45.4647V78.0193C45.4647 76.2791 45.4358 75.3354 44.3147 74.8349C43.3118 74.1854 41.8662 74.2742 40.5099 74.2742C39.0942 74.2742 37.5015 74.4511 36.2922 75.0413V70.8237H31.3962V83.3285Z" fill="#333333"/>
</svg>
