<svg width="25" height="25" fill="none" xmlns="http://www.w3.org/2000/svg"><path d="M5.545 13.417h10.623a.917.917 0 100-1.834H5.545l1.186-1.185A.917.917 0 005.434 9.1l-2.75 2.75a.907.907 0 00-.06.067l-.014.018a.856.856 0 00-.04.054l-.01.017a.93.93 0 00-.036.06c-.003.004-.004.009-.006.013a.903.903 0 00-.033.068l-.003.01a.91.91 0 00-.027.075l-.003.01a.895.895 0 00-.019.076l-.004.024-.01.065a.894.894 0 000 .183l.01.067.004.022a.907.907 0 00.02.078.917.917 0 00.03.085.873.873 0 00.036.077.922.922 0 00.042.073.95.95 0 00.05.071l.012.018.06.066 2.751 2.75a.914.914 0 001.297 0 .917.917 0 000-1.296l-1.186-1.185z" fill="#9296BD"/><path d="M15.086 5a7.494 7.494 0 00-6.229 3.321.917.917 0 001.522 1.023 5.663 5.663 0 014.707-2.51 5.673 5.673 0 015.666 5.666 5.665 5.665 0 01-10.365 3.167.917.917 0 00-1.52 1.027A7.497 7.497 0 0015.086 20c4.135 0 7.5-3.365 7.5-7.5 0-4.136-3.365-7.5-7.5-7.5z" fill="#9296BD"/></svg>