<svg width="25" height="25" fill="none" xmlns="http://www.w3.org/2000/svg"><g clip-path="url(#clip0)" fill="#9296BD"><path d="M20.524 3.766H.819a.819.819 0 00-.819.82v12.28c0 .453.367.82.819.82h19.705a.819.819 0 00.819-.82V4.587a.819.819 0 00-.819-.82zm-.819 12.282H1.638V5.404h18.067v10.644z"/><path d="M10.671 6.796a3.935 3.935 0 00-3.93 3.93 3.935 3.935 0 003.93 3.93 3.935 3.935 0 003.93-3.93 3.935 3.935 0 00-3.93-3.93zm0 6.223a2.295 2.295 0 01-2.292-2.293 2.295 2.295 0 012.292-2.293 2.295 2.295 0 012.293 2.293 2.295 2.295 0 01-2.293 2.293zM3.112 4.585A2.295 2.295 0 01.819 6.878v1.637a3.935 3.935 0 003.93-3.93H3.112zm15.119 0h-1.637a3.935 3.935 0 003.93 3.93V6.878a2.295 2.295 0 01-2.293-2.293zM.82 13.019v1.638a2.295 2.295 0 012.292 2.292h1.637a3.934 3.934 0 00-3.93-3.93zm15.774 3.93h1.637a2.295 2.295 0 012.293-2.292v-1.638a3.935 3.935 0 00-3.93 3.93z"/><path d="M24.181 7.314h-3.657v1.638h2.838v10.644H5.295v-2.73H3.657v3.549a.82.82 0 00.819.819h19.705a.819.819 0 00.82-.82V8.135a.819.819 0 00-.82-.82z"/><path d="M21.889 8.133H20.25a3.935 3.935 0 003.93 3.93v-1.637a2.295 2.295 0 01-2.293-2.293zM4.476 16.567v1.637a2.295 2.295 0 012.292 2.293h1.638a3.934 3.934 0 00-3.93-3.93zm15.775 3.93h1.637a2.295 2.295 0 012.293-2.293v-1.637a3.935 3.935 0 00-3.93 3.93z"/></g><defs><clipPath id="clip0"><path fill="#fff" d="M0 0h25v25H0z"/></clipPath></defs></svg>