<svg width="25" height="25" fill="none" xmlns="http://www.w3.org/2000/svg"><path d="M12.52 12.835a4.932 4.932 0 004.926-4.926 4.932 4.932 0 00-4.926-4.926 4.932 4.932 0 00-4.926 4.926 4.932 4.932 0 004.926 4.926zm0-8.24a3.317 3.317 0 013.313 3.314 3.317 3.317 0 01-3.313 3.313 3.317 3.317 0 01-3.313-3.313 3.317 3.317 0 013.313-3.313zm-7.771 9.86a3.105 3.105 0 003.102-3.102 3.105 3.105 0 00-3.102-3.101 3.105 3.105 0 00-3.102 3.101 3.105 3.105 0 003.102 3.102zm0-4.59c.82 0 1.489.667 1.489 1.488a1.49 1.49 0 01-1.49 1.489 1.49 1.49 0 01-1.488-1.489c0-.82.668-1.488 1.489-1.488zm15.502 4.59a3.105 3.105 0 003.102-3.102 3.105 3.105 0 00-3.102-3.101 3.105 3.105 0 00-3.102 3.101 3.105 3.105 0 003.102 3.102zm0-4.59a1.49 1.49 0 011.489 1.488 1.49 1.49 0 01-1.489 1.489 1.49 1.49 0 01-1.489-1.489c0-.82.668-1.488 1.49-1.488zM25 17.435v1.33a.807.807 0 01-1.613 0v-1.33a.353.353 0 00-.209-.322l-1.381-.617h-2.614a2.89 2.89 0 011.18 2.327v2.388a.806.806 0 01-1.613 0v-2.388c0-.502-.296-.958-.754-1.163l-2.605-1.163h-.228c-1.087 2.193-4.238 2.196-5.326 0h-.228L7.004 17.66a1.275 1.275 0 00-.754 1.163v2.388a.806.806 0 01-1.613 0v-2.388c0-.93.449-1.79 1.18-2.328H3.203l-1.381.617a.353.353 0 00-.21.322v1.33a.806.806 0 01-1.612 0v-1.33c0-.774.457-1.479 1.164-1.794 1.68-.75 1.64-.758 1.868-.758 3.695 0 3.525-.026 3.741.07l1.17.523 1.165-.52c.203-.09.253-.07 1.288-.07.37 0 .694.253.783.613.338 1.374 2.304 1.374 2.642 0a.807.807 0 01.783-.614h.959c.227 0 .237.03 1.494.59 1.27-.566 1.274-.591 1.499-.591 3.696 0 3.525-.027 3.741.07l1.539.687A1.968 1.968 0 0125 17.434z" fill="#9296BD"/></svg>