<svg width="25" height="25" fill="none" xmlns="http://www.w3.org/2000/svg"><path d="M12.549.781a3.666 3.666 0 00-3.662 3.662 3.666 3.666 0 003.662 3.662 3.666 3.666 0 003.662-3.662A3.666 3.666 0 0012.549.781zm0 5.86a2.2 2.2 0 01-2.197-2.198 2.2 2.2 0 012.197-2.197 2.2 2.2 0 012.197 2.197 2.2 2.2 0 01-2.197 2.198zm5.127 7.324a2.933 2.933 0 002.93-2.93 2.933 2.933 0 00-2.93-2.93 2.933 2.933 0 00-2.93 2.93 2.933 2.933 0 002.93 2.93zm0-4.395c.808 0 1.465.657 1.465 1.465s-.657 1.465-1.465 1.465a1.467 1.467 0 01-1.465-1.465c0-.808.657-1.465 1.465-1.465zm3.861 6.847l-3.714 1.942h-.273a2.2 2.2 0 00-2.072-2.93H12.77l-3.472-2.314a3.65 3.65 0 00-2.03-.615h-3a2.2 2.2 0 00-2.07-1.465H.731a.732.732 0 00-.732.732v10.254c0 .405.328.733.732.733h1.465c.834 0 1.56-.467 1.932-1.152l4.546 2.23a3.68 3.68 0 001.635.386h5.884a3.66 3.66 0 001.924-.546c6.347-3.912 5.952-3.664 6.003-3.702a2.196 2.196 0 00-2.584-3.553zM2.93 20.557a.733.733 0 01-.733.732h-.732v-8.79h.732c.404 0 .733.33.733.733v7.324zm20.334-1.775l-5.915 3.644a2.195 2.195 0 01-1.155.328h-5.883a2.207 2.207 0 01-.988-.235L4.395 20.1v-6.135h2.872c.435 0 .857.127 1.219.369l3.656 2.437c.12.08.262.123.406.123h2.93a.733.733 0 010 1.465h-5.86a.733.733 0 000 1.465h8.385a.732.732 0 00.34-.084c4.133-2.165 3.93-2.046 4.02-2.113a.733.733 0 01.9 1.155z" fill="#9296BD"/></svg>