<svg width="14" height="14" viewBox="0 0 14 14" fill="none" xmlns="http://www.w3.org/2000/svg">
<circle cx="7" cy="7" r="7" fill="#649CD1"/>
<path d="M9.83687 4.18717L5.86591 7.74939L4.21715 6.10021C4.15311 6.03668 4.07648 5.98572 3.99164 5.95024C3.9068 5.91475 3.81541 5.89543 3.72269 5.89339C3.62997 5.89135 3.53772 5.90662 3.45123 5.93834C3.36474 5.97005 3.2857 6.01758 3.21861 6.07822C3.15152 6.13886 3.0977 6.21142 3.06022 6.29176C3.02275 6.37209 3.00235 6.45863 3.00019 6.54643C2.99803 6.63423 3.01416 6.72158 3.04765 6.80347C3.08115 6.88537 3.13134 6.96022 3.19538 7.02375L5.33181 9.1347C5.3947 9.19723 5.47036 9.24702 5.55419 9.28104C5.63801 9.31505 5.72827 9.3326 5.81947 9.3326C5.90918 9.33676 5.99882 9.32327 6.08275 9.293C6.16668 9.26272 6.24308 9.21631 6.30713 9.15668L10.789 5.1327C10.9198 5.01229 10.9955 4.8481 10.9998 4.67542C11.0041 4.50273 10.9368 4.33532 10.8122 4.20916C10.7509 4.14518 10.6765 4.09367 10.5935 4.05774C10.5105 4.02182 10.4207 4.00224 10.3295 4.00018C10.2383 3.99812 10.1476 4.01364 10.0629 4.04578C9.97823 4.07793 9.90132 4.12603 9.83687 4.18717Z" fill="white"/>
</svg>
