<svg width="80" height="72" viewBox="0 0 80 72" fill="none" xmlns="http://www.w3.org/2000/svg">
<path d="M7.51979 5.97311L7.51918 5.97373C3.02344 10.5327 0.5 16.7053 0.5 23.1391C0.5 29.5729 3.02344 35.7454 7.51918 40.3044L7.51979 40.305L37.2548 70.3521L37.2549 70.3523C37.9823 71.0866 38.9696 71.5 40 71.5C41.0304 71.5 42.0177 71.0866 42.7451 70.3523L42.7453 70.3521L72.4802 40.305L72.4808 40.3044C76.9766 35.7454 79.5 29.5729 79.5 23.1391C79.5 16.7053 76.9766 10.5327 72.4808 5.97373L72.4802 5.97311C67.9297 1.37483 62.0299 -0.0728565 56.1259 0.69518C50.3741 1.44343 44.6038 4.2931 40 8.39458C35.3962 4.2931 29.6259 1.44343 23.8741 0.69518C17.9701 -0.0728565 12.0703 1.37483 7.51979 5.97311ZM39.6557 28.5577L46.2781 46.4028C46.3514 46.6003 46.5406 46.7307 46.7513 46.7288C46.962 46.727 47.1489 46.5932 47.2187 46.3944L51.563 34.0159L52.1695 35.4939C52.2465 35.6816 52.4292 35.8041 52.6321 35.8041H70.8104C70.3909 36.331 69.9456 36.8366 69.4762 37.319C69.4755 37.3197 69.4749 37.3204 69.4742 37.3211L40.0003 66.9583L10.5258 37.2718C10.5252 37.2712 10.5246 37.2706 10.524 37.27C10.0545 36.7874 9.60921 36.2818 9.18965 35.7548H25.3961L30.8759 52.4794C30.9432 52.6848 31.1349 52.8238 31.3511 52.8237C31.5673 52.8237 31.759 52.6847 31.8262 52.4793L39.6557 28.5577ZM46.716 35.1114L39.8989 17.0076C39.8242 16.8093 39.6325 16.6795 39.4206 16.6839C39.2087 16.6883 39.0226 16.8259 38.9562 17.0272L31.3022 40.23L28.5256 31.8126C28.458 31.6076 28.2665 31.4692 28.0507 31.4692H6.55274C4.89467 27.8109 4.36381 23.7299 5.03367 19.7581C5.72106 15.6823 7.63904 11.9219 10.5238 8.99198C11.8839 7.61227 13.5064 6.52567 15.293 5.79752C17.0797 5.06934 18.9937 4.71465 20.9196 4.75475V4.75482L20.9279 4.75485C21.9879 4.7592 23.0455 4.85527 24.0893 5.04202C29.5496 6.11223 34.5597 8.83498 38.4543 12.8499L38.4543 12.85L38.4603 12.856L39.6146 14.006C39.8097 14.2004 40.1253 14.2004 40.3204 14.006L41.4747 12.856L41.4747 12.8561L41.4807 12.8499C45.3763 8.83401 50.3878 6.11092 55.8496 5.04124L55.8496 5.04133L55.8589 5.03934C58.2765 4.5181 60.7839 4.60652 63.1598 5.29682C65.5342 5.9867 67.7046 7.25666 69.4793 8.9951C72.3623 11.9245 74.2792 15.6837 74.9663 19.7581C75.6362 23.7299 75.1053 27.8109 73.4473 31.4692H55.1486L51.8442 23.2402C51.7667 23.0472 51.5778 22.9223 51.3698 22.9267C51.1618 22.931 50.9783 23.0637 50.9089 23.2598L46.716 35.1114Z" fill="#649CD1" stroke="#649CD1" stroke-linejoin="round"/>
</svg>
