<svg xmlns="http://www.w3.org/2000/svg" width="296.645" height="39.989" viewBox="0 0 296.645 39.989">
  <g id="cdnlogo.com_the-guardian" transform="translate(-8.502 -84.533)">
    <path id="Контур_8339" data-name="Контур 8339" d="M104.855,110.753h5.129c-.581,2.822-3.327,4.225-6.022,4.225-7.079,0-8.505-6.914-8.505-10.478,0-2.615-.268-10.468,7.715-10.468a5.567,5.567,0,0,1,5.492,4.758h11.155c-1.691-8.968-7.774-14.256-17.387-14.256-8.505,0-18.6,5.337-18.6,19.966,0,14.607,9.925,19.978,18.023,19.978a13.137,13.137,0,0,0,10.721-4.816l.376,3.9h7.339V102.587H104.858v8.166h0Zm35.231-.289c0,4.434-2.377,5.337-4.171,5.337-3.072,0-3.44-2.228-3.44-5.438V95.849H122.019v19c0,6.348,4.488,9.385,9.4,9.385,4.174,0,6.971-1.438,8.936-4.206h.1v3.512h10.094V95.849H140.086v14.615ZM221.85,98.888h-.1a8.907,8.907,0,0,0-7.493-3.74c-9.194,0-11.683,7.9-11.683,14.416,0,6.934,3.759,14.681,11.521,14.681,4.537,0,6.713-1.975,8.028-3.735h.108v3.04h10.166V85.436H221.85Zm-4.216,17.674c-3.749,0-4.6-3.58-4.6-6.893,0-3.256.851-6.833,4.6-6.833s4.593,3.577,4.593,6.833C222.226,112.982,221.376,116.562,217.634,116.562Zm16.7-23.71h10.456V85.436H234.332Zm0,30.7h10.456v-27.7H234.332Zm40.219-17.559c0-7.96-3.6-10.843-13.464-10.843-9.187,0-13.863,2.832-14.112,9.077H256.7c.056-1.175.7-2.827,3.913-2.827,1.691,0,3.442.694,3.442,2.561,0,1.76-1.435,2.182-2.864,2.454-5.334,1.008-15.478.7-15.478,9.45,0,5.813,4.385,8.369,9.672,8.369,3.372,0,6.61-.743,8.826-3.3h.1a12.963,12.963,0,0,0,.366,2.6l11.143.014c-1.151-1.764-1.263-4.112-1.263-6.195V105.991h0Zm-10.5,7.676a4.066,4.066,0,0,1-4.4,4.321c-1.9,0-3.271-.9-3.271-2.446,0-1.865,1.214-2.561,3.538-3.1a23.271,23.271,0,0,0,4.13-1.335Zm-83.761-7.676c0-7.96-3.6-10.843-13.464-10.843-9.189,0-13.854,2.832-14.109,9.077h9.731c.046-1.175.682-2.827,3.906-2.827,1.695,0,3.428.694,3.428,2.561,0,1.76-1.418,2.182-2.851,2.454-5.33,1.008-15.48.7-15.48,9.45,0,5.813,4.385,8.369,9.668,8.369,3.386,0,6.613-.743,8.823-3.3h.108a12.717,12.717,0,0,0,.37,2.6l11.147.014c-1.17-1.764-1.276-4.112-1.276-6.195Zm-10.505,7.676a4.055,4.055,0,0,1-4.382,4.321c-1.906,0-3.28-.9-3.28-2.446,0-1.865,1.217-2.561,3.541-3.1a22.808,22.808,0,0,0,4.12-1.335ZM296.355,95.148c-4.174,0-7.565,1.443-9.518,4.218h-.1V95.849h-10.1v27.69H287.1V108.925c0-4.436,2.373-5.342,4.178-5.342,2.314,0,3.435,1.452,3.435,4.343v15.613h10.434v-19.7c0-6.35-3.877-8.688-8.792-8.688ZM192.938,99.633a5.967,5.967,0,0,0-.449.906V95.847H182.441v27.7h10.542V112.609c0-4.907,2.351-8.392,6.218-8.392a7.071,7.071,0,0,1,2.809.7V95.293a10.525,10.525,0,0,0-1.7-.132A7.546,7.546,0,0,0,192.938,99.633ZM39.7,89.711a11.347,11.347,0,0,1,.29,4.989l1.089.189,2.746-9.158H11.4L8.622,94.686l1.025.214a20.442,20.442,0,0,1,4.616-6,11.616,11.616,0,0,1,6.875-1.884h3.872s-8.5,30.5-8.488,30.486c-.763,2.717-1.507,3.494-3.015,4.129a14.734,14.734,0,0,1-4.682.685l-.322,1.23c2.846,0,6.108-.194,8.8-.194,4.307,0,6.25.194,9.459.194l.223-1.23c-.981-.04-3.364-.248-4.262-.388-1.548-.246-2.056-.922-2.056-1.816a13.692,13.692,0,0,1,.626-3.134l8.387-29.96h3.1C36.6,87.021,38.737,87.715,39.7,89.711Zm18.712,5.452c-4.713,0-10.566,7.484-13.149,11.969h-.1c.351-1.09,1.031-3.246,1.924-5.965S50.081,91.6,51.978,85.65l-.2-.282q-3.443.333-6.9.422l-.181.849A4.863,4.863,0,0,1,46,86.852c.631.223,1.048.623,1.048,1.166a5.916,5.916,0,0,1-.4,1.841c-.5,1.6-7.574,23.8-9.992,31.449a13.889,13.889,0,0,0-.635,2.193c0,.513.68.812,1.656.812,1.357,0,1.733-.29,1.983-.976.419-1.148,2.206-5.872,2.663-6.971C46.955,105.123,54.071,97.1,57.412,97.1c1.259,0,1.806,1.067,1.806,2.6,0,4.589-4.2,17.606-7.415,22.248-.422.6-.768.945-1.352.945-.668,0-.917-.489-1.185-1.474a2.016,2.016,0,0,0-2.037-1.588,1.922,1.922,0,0,0-2.01,2.061c0,1.365,1.182,2.633,3.418,2.633a7.136,7.136,0,0,0,4.988-2.215c4.76-4.316,9.412-13.461,9.412-22.834,0-2.9-1.943-4.311-4.62-4.311Zm23.409,4.375c0-2.738-1.42-4.356-5.077-4.356-6.433,0-15.064,11.059-15.064,20.5,0,6.085,2.225,8.8,6.051,8.8,5.31,0,10.207-5.45,11.918-9.83l-1.053-.454c-1.993,4.421-5.59,7.384-8.314,7.384-2.674,0-4.238-2.247-4.238-6.237a20.33,20.33,0,0,1,.935-5.168C75.558,108.95,81.825,104.794,81.825,99.538Zm-5.737-3c1.131,0,1.806.481,1.806,2.166,0,5.85-6.017,9.126-10.515,10.154C69.254,103.142,72.79,96.541,76.088,96.541Z" transform="translate(0 0)" fill="#fff" fill-rule="evenodd"/>
  </g>
</svg>
