<svg xmlns="http://www.w3.org/2000/svg" width="140.044" height="51.271" viewBox="0 0 140.044 51.271">
  <path id="Yahoo_Finance" data-name="Yahoo Finance" d="M69.2,46.929V62.357h7.6V50.133a3.987,3.987,0,0,1,.593-1.662A2.154,2.154,0,0,1,79.646,47.4a2.457,2.457,0,0,1,2.374,2.374V62.239h7.6V55.118c0-6.053,0-7.24-.119-7.833A7.545,7.545,0,0,0,87.242,42.3a6.793,6.793,0,0,0-3.917-1.9,10.307,10.307,0,0,0-2.73.119,6.2,6.2,0,0,0-3.442,1.9l-.593.475V31.5h-7.6V46.929Zm80.7-15.191c-.237.475-7.952,19.108-7.952,19.108h9.02l4.035-9.613c2.255-5.341,4.035-9.732,4.035-9.732h-9.02ZM52.587,40.52a10.252,10.252,0,0,0-4.273,1.543A10.9,10.9,0,0,0,43.567,49.9a13.328,13.328,0,0,0,.237,4.866,10.568,10.568,0,0,0,6.646,7.6,8.431,8.431,0,0,0,3.086.475,5.879,5.879,0,0,0,1.78-.119,6.9,6.9,0,0,0,3.56-1.9l.475-.475v1.9H66.71V40.876H59.352v1.9L59,42.419a6.456,6.456,0,0,0-3.56-1.9,5.842,5.842,0,0,0-1.662-.119A6.088,6.088,0,0,1,52.587,40.52Zm48.422,0a12.186,12.186,0,0,0-5.7,2.374A11.426,11.426,0,0,0,91.4,53.337,10.866,10.866,0,0,0,99.7,62.476a12.247,12.247,0,0,0,3.086.356,11.072,11.072,0,0,0,5.341-1.187,10.608,10.608,0,0,0,5.934-8.308,15.543,15.543,0,0,0,0-3.323,10.836,10.836,0,0,0-2.018-4.985,17.187,17.187,0,0,0-2.018-2.136,11.083,11.083,0,0,0-5.7-2.374A15.552,15.552,0,0,0,101.009,40.52Zm24.211,0a10.7,10.7,0,0,0-5.578,2.374,11.372,11.372,0,0,0-2.018,2.136,12.293,12.293,0,0,0-2.018,4.985,15.552,15.552,0,0,0,0,3.323,11.093,11.093,0,0,0,8.9,9.376,8.48,8.48,0,0,0,2.492.237,10.624,10.624,0,0,0,5.459-1.305,11.167,11.167,0,0,0,5.7-12.343,10.971,10.971,0,0,0-9.613-8.782A15.553,15.553,0,0,0,125.22,40.52ZM19,40.995s2.018,4.866,4.51,10.8,4.51,10.8,4.51,10.8-.712,1.78-1.662,3.916-1.662,3.8-1.662,3.916a37.73,37.73,0,0,0,4.035,0h4.035l6.053-14.6c3.323-8.07,6.053-14.6,6.053-14.717a29.556,29.556,0,0,0-4.035,0H36.8L34.31,47.285c-1.068,3.323-2.136,6.171-2.136,6.171s-1.068-2.848-2.492-6.171l-2.374-6.171H23.154C20.9,40.995,19,40.995,19,40.995ZM56.266,47.4a4.433,4.433,0,0,1,3.2,3.086,7.185,7.185,0,0,1,0,2.255,4.1,4.1,0,0,1-3.086,3.086,7.185,7.185,0,0,1-2.255,0,4.494,4.494,0,0,1-2.967-2.492,4.666,4.666,0,0,1,.356-4.154A4.527,4.527,0,0,1,56.266,47.4Zm47.354.119a4.04,4.04,0,0,1,3.323,3.2,6.453,6.453,0,0,1,0,2.136,4.328,4.328,0,0,1-2.967,3.086,7.186,7.186,0,0,1-2.255,0,4.682,4.682,0,0,1-2.73-2.255,3.415,3.415,0,0,1-.356-1.9,3.791,3.791,0,0,1,.356-1.662,4.763,4.763,0,0,1,1.543-1.9A3.423,3.423,0,0,1,103.62,47.522Zm24.092,0a3.941,3.941,0,0,1,3.086,2.492,3.791,3.791,0,0,1,.356,1.662,4.92,4.92,0,0,1-.356,1.9,4.355,4.355,0,0,1-2.73,2.255,7.185,7.185,0,0,1-2.255,0,4.133,4.133,0,0,1-2.967-3.086,7.185,7.185,0,0,1,0-2.255,4.175,4.175,0,0,1,4.035-3.2C127.119,47.4,127.475,47.4,127.712,47.522Zm16.141,5.222a5.043,5.043,0,0,0-4.391,4.035,7.186,7.186,0,0,0,0,2.255,5.005,5.005,0,0,0,3.8,3.679c.237,0,.712.119,1.068.119a4.831,4.831,0,0,0,3.56-1.424,4.571,4.571,0,0,0,1.424-3.56,4.686,4.686,0,0,0-2.255-4.154A4.247,4.247,0,0,0,143.853,52.744ZM81.308,64.375a2.422,2.422,0,0,0-1.424,3.56,2.7,2.7,0,0,0,1.068.949A2.342,2.342,0,0,0,82.02,69a2.634,2.634,0,0,0,1.068-.119A2.86,2.86,0,0,0,84.275,67.7a2.427,2.427,0,0,0-1.187-3.2,1.279,1.279,0,0,0-.949-.237A1.525,1.525,0,0,0,81.308,64.375Zm-6.409.119a4.794,4.794,0,0,0-3.916,3.8,3.659,3.659,0,0,0-.119,1.187v.831H69.2v3.56h1.662v8.545h4.51V73.869H78.46v-3.56H75.374v-.356c.119-.831.475-1.424,1.187-1.543a2.671,2.671,0,0,1,1.662.119.919.919,0,0,0,.356.119v-3.8l-.356-.119a4.348,4.348,0,0,0-1.9-.237A5.631,5.631,0,0,0,74.9,64.494Zm18.04,5.578A3.877,3.877,0,0,0,90.8,71.377l-.237.356V70.309h-4.51V82.414h4.51v-7a2.783,2.783,0,0,1,.593-1.187,1.634,1.634,0,0,1,2.136.237c.356.475.356.475.356,4.273V82.3h4.51V78.261c0-4.273,0-4.747-.237-5.578a3.441,3.441,0,0,0-1.068-1.78,2.939,2.939,0,0,0-1.662-.949A13.63,13.63,0,0,0,92.939,70.072Zm11.275-.119a5.885,5.885,0,0,0-2.374.949,6.526,6.526,0,0,0-2.492,4.154,10.51,10.51,0,0,0,0,2.73,6.89,6.89,0,0,0,1.187,2.848,5.179,5.179,0,0,0,3.2,2.018,5.807,5.807,0,0,0,2.492-.119,5.164,5.164,0,0,0,1.78-.949l.475-.475V82.3H113V70.19h-4.51v1.187l-.356-.119a4.127,4.127,0,0,0-2.374-1.187A6.768,6.768,0,0,0,104.213,69.953Zm17.209.119a3.647,3.647,0,0,0-2.136,1.305l-.237.237V70.19h-4.51V82.3h4.51V78.854c0-3.679,0-3.679.237-4.273a1.305,1.305,0,0,1,1.187-.712,1.657,1.657,0,0,1,1.068.356c.475.475.475.356.475,4.391v3.56h4.51V77.786c0-4.391,0-4.391-.119-4.866a11.207,11.207,0,0,1-.356-1.068,2.856,2.856,0,0,0-.712-.949,4.542,4.542,0,0,0-1.305-.949A9.648,9.648,0,0,0,121.422,70.072Zm11.75,0a6.1,6.1,0,0,0-4.51,2.967c-.237.475-.475,1.068-.712,1.662a6.306,6.306,0,0,0-.119,1.662,4.527,4.527,0,0,0,.356,2.255,6.18,6.18,0,0,0,4.629,4.035,4.929,4.929,0,0,0,1.543.119,5.2,5.2,0,0,0,2.492-.475l.475-.237V78.023l-.356.237a2.725,2.725,0,0,1-1.662.475,3.025,3.025,0,0,1-1.543-.237A2.329,2.329,0,0,1,132.7,77.43a2.04,2.04,0,0,1-.119-.949,2.313,2.313,0,0,1,.119-.949,2.532,2.532,0,0,1,2.374-1.543,4.082,4.082,0,0,1,2.374.593V70.546l-.356-.119A7.5,7.5,0,0,0,133.172,70.072Zm10.207,0a6.574,6.574,0,0,0-4.273,10.088,5.735,5.735,0,0,0,3.8,2.492,16.67,16.67,0,0,0,3.442,0,6.052,6.052,0,0,0,3.086-1.662,13.015,13.015,0,0,0,.949-1.187s-.831-.356-1.9-.712l-1.9-.712-.237.237a1.927,1.927,0,0,1-1.068.593,2.222,2.222,0,0,1-2.848-1.543V77.43h8.308V76.362a4.1,4.1,0,0,0-.119-1.424,6.326,6.326,0,0,0-1.662-3.323,5.472,5.472,0,0,0-3.086-1.543A8.757,8.757,0,0,0,143.378,70.072Zm-63.613,6.29v6.053h4.51V70.309h-4.51Zm65.394-2.967a2.974,2.974,0,0,1,.831.475,1.2,1.2,0,0,1,.475.831v.237h-2.018c-2.255,0-2.136,0-1.9-.475A2.265,2.265,0,0,1,145.159,73.395Zm-38.334.593a2.421,2.421,0,0,1,.119,4.629,3.921,3.921,0,0,1-1.662,0,2.241,2.241,0,0,1-1.543-1.543,2.02,2.02,0,0,1-.119-.831,1.279,1.279,0,0,1,.237-.949A2.571,2.571,0,0,1,106.824,73.988Z" transform="translate(-19 -31.5)" fill="#fff" fill-rule="evenodd"/>
</svg>
