<svg xmlns="http://www.w3.org/2000/svg" width="162.303" height="39.989" viewBox="0 0 162.303 39.989">
  <path id="forbes-wordmark" d="M169.734,29.57l-1.47.4c-1.413-4.8-3.78-6.874-7.122-6.874a3.778,3.778,0,0,0-4,4c0,2.348,1.948,3.6,7.18,5.728,4.83,1.776,6.835,3.952,6.835,7.752,0,5.785-4.544,9.413-12,9.413a30.191,30.191,0,0,1-9.948-1.718l-.286-8.038,1.413-.286c2.12,5.5,4.83,7.58,8.363,7.58a4.316,4.316,0,0,0,4.66-4.3c0-2.176-1.24-3.437-6.014-5.155-4.544-1.5-7.656-3.437-7.656-8.267,0-4.754,4.18-8.783,11.3-8.783a21.193,21.193,0,0,1,8.42,1.5Zm-30.76,2.52c.172-3.78-.592-9.24-3.7-9.24-3.2,0-4.945,5.1-5,9.47Zm-2.94-11.074c7.828,0,11.6,5.728,11.666,13.25H130.1c-.057,6.663,3.475,11.7,10.08,11.7a9.7,9.7,0,0,0,6.3-2.062l.82.916a14.047,14.047,0,0,1-11.3,5.155c-8.592,0-14.55-5.9-14.55-14.224-.02-7.523,4.87-14.74,14.587-14.74m-25.39,13.94c-.172-5.957-2.348-10.673-6.53-10.673a8.4,8.4,0,0,0-2.94.573l.344,22.893a7.283,7.283,0,0,0,2.12.286c4.067,0,7.007-5.747,7.007-13.08m8.726-.458c0,9.413-5.957,15.484-16.02,15.484a48.068,48.068,0,0,1-10.54-1.317c.286-3.78.286-27.2,0-31.6-.286-2.3-.936-3.38-2.7-3.6l-1.184-.115V12.3L101.341,10c-.057,1.947-.172,7.064-.172,13.08a14.4,14.4,0,0,1,6.893-1.718c6.473,0,11.3,5.5,11.3,13.136M87.729,29.38c-3.838-2.52-7.962-1.432-8.783,0A101.193,101.193,0,0,0,79,44.063c.172,2.3.82,3.265,2.6,3.437l2.348.23v1.5H66.4v-1.5l1.356-.23c1.7-.172,2.3-1.146,2.406-3.437a87.558,87.558,0,0,0,0-15.828c-.115-2.463-.706-3.38-2.406-3.6L66.4,24.463v-1.03l12.544-2.406-.172,6.415c2.94-6.644,8.783-7.446,11.952-5.67ZM46.563,35.528c0,7.007,1.9,12.735,5.7,12.735,4.124,0,5.308-5.613,5.308-12.735S55.747,22.85,51.87,22.85c-4.143,0-5.308,5.442-5.308,12.678m19.9-.115c0,8.038-5.308,14.568-14.778,14.568-9.317,0-14.014-6.205-14.014-14.34,0-7.98,5.308-14.625,14.778-14.625,9.317,0,14.014,6.243,14.014,14.4M42.076,21.6l-1.947.573c-1.642-5.632-4.544-8.84-9.547-8.84h-6.53a138.162,138.162,0,0,0-.363,15.77l4.353-.23c2.94,0,4.18-2.12,4.888-5.212h1.642v13.02H32.93c-.706-3.15-1.947-5.3-4.888-5.46l-4.353-.057a104.509,104.509,0,0,0,.363,11.017c.286,3.437,1.24,5,3.76,5.327l2.368.23v1.5H8.854v-1.5l1.776-.23c2.463-.344,3.475-1.9,3.76-5.327a183.634,183.634,0,0,0,0-24.267c-.286-3.55-1.3-4.983-3.76-5.27l-1.776-.286V10.81H42.02Z" transform="translate(-8.854 -10)" fill="#fff"/>
</svg>
