<svg width="23" height="18" viewBox="0 0 23 18" fill="none" xmlns="http://www.w3.org/2000/svg">
<rect width="23" height="18" rx="2" fill="white"/>
<mask id="mask0_66_2294" style="mask-type:alpha" maskUnits="userSpaceOnUse" x="0" y="0" width="23" height="18">
<rect width="23" height="18" rx="2" fill="white"/>
</mask>
<g mask="url(#mask0_66_2294)">
<rect width="23" height="18" fill="#0A17A7"/>
<path fill-rule="evenodd" clip-rule="evenodd" d="M5.48192 12L-2.27837 17.7351L-1.05347 19.7248L8.76191 12.4709V19.2H14.2381V12.471L24.0535 19.7248L25.2784 17.7351L17.518 12H23V6H17.5179L25.2783 0.264836L24.0534 -1.72485L14.2381 5.52895V-1.2H8.76191V5.52904L-1.05346 -1.72478L-2.27835 0.264912L5.48198 6H7.15256e-07V12H5.48192Z" fill="white"/>
<path d="M15.3344 5.69893L25.7381 -1.80005" stroke="#DB1F35" stroke-width="0.666667" stroke-linecap="round"/>
<path d="M16.4391 12.3278L25.7655 19.2153" stroke="#DB1F35" stroke-width="0.666667" stroke-linecap="round"/>
<path d="M6.57596 5.67939L-3.15224 -1.50391" stroke="#DB1F35" stroke-width="0.666667" stroke-linecap="round"/>
<path d="M7.63109 12.2443L-3.15224 20.0793" stroke="#DB1F35" stroke-width="0.666667" stroke-linecap="round"/>
<path fill-rule="evenodd" clip-rule="evenodd" d="M0 10.8H9.85714V18H13.1429V10.8H23V7.2H13.1429V0H9.85714V7.2H0V10.8Z" fill="#E6273E"/>
</g>
</svg>
