<svg id="round-rect" xmlns="http://www.w3.org/2000/svg" width="41.515" height="26.279" viewBox="0 0 41.515 26.279">
  <g id="payment_013-american-express-card">
    <path id="bg" d="M38.727,0H2.767A2.769,2.769,0,0,0,0,2.769V23.51a2.77,2.77,0,0,0,2.767,2.769h35.96a2.769,2.769,0,0,0,2.767-2.769V2.769A2.77,2.77,0,0,0,38.727,0Z" fill="#227fbb" fill-rule="evenodd"/>
    <path id="Shape" d="M3.743,20.225l-.8-1.947L2.15,20.225Zm17.6-.775a1.082,1.082,0,0,1-.577.1H19.347V18.466h1.437a1.2,1.2,0,0,1,.553.088.447.447,0,0,1,.245.432.5.5,0,0,1-.24.464Zm10.115.775-.808-1.947-.8,1.947ZM12.6,22.332h-1.2l0-3.825L9.709,22.332H8.684L6.987,18.5v3.828H4.613l-.448-1.089H1.734l-.453,1.089H.014L2.1,17.449H3.838l1.985,4.624V17.449h1.9l1.527,3.313,1.4-3.313H12.6v4.884h0Zm4.769,0h-3.9V17.449h3.9v1.017H14.639v.88h2.666v1H14.639v.975h2.732v1.01Zm5.5-3.568a1.375,1.375,0,0,1-.822,1.3,1.354,1.354,0,0,1,.577.411,1.4,1.4,0,0,1,.193.9v.959H21.639l0-.616a1.466,1.466,0,0,0-.184-.951,1.141,1.141,0,0,0-.851-.209H19.347v1.776H18.18V17.449h2.684a2.749,2.749,0,0,1,1.413.234,1.139,1.139,0,0,1,.591,1.081Zm1.868,3.568H23.545V17.449h1.191v4.884Zm13.816,0H36.9l-2.212-3.665v3.665H32.309l-.454-1.089H29.43l-.441,1.089H27.624a2.453,2.453,0,0,1-1.692-.54,2.458,2.458,0,0,1-.624-1.864,2.6,2.6,0,0,1,.629-1.91,2.369,2.369,0,0,1,1.773-.569h1.13V18.5H27.733a1.124,1.124,0,0,0-.9.289,1.613,1.613,0,0,0-.335,1.106,1.694,1.694,0,0,0,.321,1.147,1.125,1.125,0,0,0,.813.252h.524L29.8,17.449h1.749l1.976,4.619V17.449h1.777l2.052,3.4v-3.4h1.2v4.884ZM0,23.292H1.994l.45-1.085H3.451L3.9,23.292H7.823v-.829l.35.833H10.21l.35-.845v.842h9.751l0-1.781H20.5c.132,0,.171.017.171.235v1.546H25.71v-.415a4,4,0,0,0,1.872.415H29.7l.454-1.085h1.007l.444,1.085H35.7v-1.03l.619,1.03h3.276V16.48H36.35v.8l-.454-.8H32.569v.8l-.417-.8H27.657a4.036,4.036,0,0,0-1.948.4v-.4h-3.1v.4a1.922,1.922,0,0,0-1.318-.4H9.959L9.2,18.239,8.418,16.48H4.849v.8l-.392-.8H1.413L0,19.719v3.573Zm41.515,3.6H39.388a.808.808,0,0,0-.472.088.38.38,0,0,0-.17.351.369.369,0,0,0,.255.364,1.331,1.331,0,0,0,.45.055l.632.017a1.845,1.845,0,0,1,1.324.393.624.624,0,0,1,.108.121Zm0,3.22a1.818,1.818,0,0,1-1.584.625H37.678V29.686h2.245a.664.664,0,0,0,.472-.121.43.43,0,0,0,.138-.319.4.4,0,0,0-.142-.323.592.592,0,0,0-.411-.108c-1.1-.037-2.463.034-2.463-1.512,0-.709.45-1.454,1.675-1.454h2.325v-.972h-2.16a2.434,2.434,0,0,0-1.461.4v-.4H34.7a2.212,2.212,0,0,0-1.394.4v-.4H27.6v.4a3.036,3.036,0,0,0-1.574-.4H22.263v.4a2.662,2.662,0,0,0-1.645-.4H16.406l-.964,1.043-.9-1.043H8.248v6.816h6.173l.993-1.06.936,1.06,3.805,0v-1.6h.374a3.963,3.963,0,0,0,1.626-.24v1.84h3.139V29.916h.151c.193,0,.212.008.212.2v1.575h9.534a2.718,2.718,0,0,0,1.589-.436v.436H39.8a4.051,4.051,0,0,0,1.712-.314v-1.27ZM36.86,28.157a1.36,1.36,0,0,1,.349,1.035c0,1.051-.656,1.541-1.833,1.541H33.1V29.686h2.264a.686.686,0,0,0,.477-.121.434.434,0,0,0,.138-.319.419.419,0,0,0-.142-.323.614.614,0,0,0-.416-.108c-1.092-.037-2.458.034-2.458-1.512,0-.709.445-1.454,1.669-1.454h2.34v1.04H34.832a.789.789,0,0,0-.468.088.409.409,0,0,0,.08.715,1.342,1.342,0,0,0,.454.055l.628.017a1.883,1.883,0,0,1,1.333.393Zm-10.532-.3a1.117,1.117,0,0,1-.576.1H24.334v-1.1h1.437a1.15,1.15,0,0,1,.557.088.465.465,0,0,1,.242.439.527.527,0,0,1-.242.469Zm.7.608a1.269,1.269,0,0,1,.572.41,1.423,1.423,0,0,1,.193.892v.968H26.626v-.611c0-.294.028-.729-.189-.956a1.132,1.132,0,0,0-.856-.217H24.334v1.784H23.161V25.848h2.695a2.889,2.889,0,0,1,1.4.231,1.144,1.144,0,0,1,.6,1.085,1.368,1.368,0,0,1-.827,1.3Zm1.474-2.615h3.9v1.01H29.67v.888h2.666v1H29.67v.972l2.733,0v1.014h-3.9V25.848ZM20.633,28.1H19.124V26.859h1.522c.421,0,.714.172.714.6s-.279.645-.727.645Zm-2.671,2.186L16.17,28.3l1.792-1.927v3.916Zm-4.628-.574h-2.87v-.972h2.562v-1H10.464v-.888h2.926l1.277,1.424-1.333,1.433Zm9.279-2.258c0,1.357-1.012,1.637-2.032,1.637H19.124v1.638H16.856l-1.437-1.617-1.494,1.617H9.3V25.848H14l1.436,1.6,1.485-1.6h3.729c.926,0,1.967.256,1.967,1.609Z" transform="translate(0 -10.782)" fill="#fff" fill-rule="evenodd"/>
  </g>
</svg>
