<svg xmlns="http://www.w3.org/2000/svg" width="34.085" height="21.461" viewBox="0 0 34.085 21.461">
  <path id="Контур_92" data-name="Контур 92" d="M39.085,16.262v3.156H5V16.262A1.262,1.262,0,0,1,6.262,15h31.56A1.262,1.262,0,0,1,39.085,16.262ZM5,22.574V35.2a1.262,1.262,0,0,0,1.262,1.262h31.56A1.262,1.262,0,0,0,39.085,35.2V22.574Zm11.362,10.1H8.787a.631.631,0,0,1,0-1.262h7.574a.631.631,0,1,1,0,1.262Zm0-2.525H8.787a.631.631,0,0,1,0-1.262h7.574a.631.631,0,1,1,0,1.262Zm2.575,2.525h-.473a.631.631,0,0,1,0-1.262h.473a.631.631,0,1,1,0,1.262Zm15.73-1.458a.827.827,0,0,1-.827.827H29.181a.827.827,0,0,1-.827-.827v-.871a.827.827,0,0,1,.827-.827h4.652a.827.827,0,0,1,.833.827v.865Z" transform="translate(-5 -15)"/>
</svg>
