<svg xmlns="http://www.w3.org/2000/svg" width="41.685" height="39.998" viewBox="0 0 41.685 39.998">
  <path id="Контур_23" data-name="Контур 23" d="M44,40.663H35.039A20,20,0,1,0,24.007,44H44a1.666,1.666,0,0,0,0-3.333ZM34.006,19a5,5,0,1,1-5,5A5,5,0,0,1,34.006,19Zm-10-10a5,5,0,1,1-5,5A5,5,0,0,1,24.007,9ZM27.34,24a3.333,3.333,0,1,1-3.333-3.333A3.333,3.333,0,0,1,27.34,24ZM14.008,29a5,5,0,1,1,5-5A5,5,0,0,1,14.008,29Zm5,5a5,5,0,1,1,5,5A5,5,0,0,1,19.008,34Z" transform="translate(-3.986 -3.998)"/>
</svg>
