<svg xmlns="http://www.w3.org/2000/svg" xmlns:xlink="http://www.w3.org/1999/xlink" width="26" height="26" viewBox="0 0 26 26">
  <defs>
    <clipPath id="clip-path">
      <path id="path18" d="M0-47.5H26v26H0Z" transform="translate(0 47.5)" fill="#ff5d5d"/>
    </clipPath>
  </defs>
  <g id="g12" transform="translate(0 47.5)">
    <g id="g14" transform="translate(0 -47.5)" clip-path="url(#clip-path)">
      <g id="g20" transform="translate(2.716 2.737)">
        <path id="path22" d="M-10.9-8.489l6.762-6.762a2.052,2.052,0,0,0,0-2.9,2.052,2.052,0,0,0-2.9,0L-13.8-11.392l-6.762-6.762a2.052,2.052,0,0,0-2.9,0,2.053,2.053,0,0,0,0,2.9l6.762,6.761-6.778,6.778a2.053,2.053,0,0,0,0,2.9,2.046,2.046,0,0,0,1.451.6,2.047,2.047,0,0,0,1.452-.6L-13.8-5.586l6.762,6.761a2.047,2.047,0,0,0,1.451.6,2.049,2.049,0,0,0,1.451-.6,2.052,2.052,0,0,0,0-2.9Z" transform="translate(24.087 18.755)" fill="#ff5d5d"/>
      </g>
    </g>
  </g>
</svg>
