<svg id="Сгруппировать_66" data-name="Сгруппировать 66" xmlns="http://www.w3.org/2000/svg" width="25.525" height="25.525" viewBox="0 0 25.525 25.525">
  <path id="Контур_44" data-name="Контур 44" d="M8.6,4H7v7.977h6.381v-1.6H8.6Z" transform="translate(4.167 2.381)"/>
  <path id="Контур_45" data-name="Контур 45" d="M25.525,11.167V4.786L23.771,6.541A12.252,12.252,0,0,0,12.763,0a12.763,12.763,0,0,0,0,25.525,12.456,12.456,0,0,0,9.572-4.467l-2.393-2.074a9.336,9.336,0,0,1-7.179,3.35,9.572,9.572,0,0,1,0-19.144,9.995,9.995,0,0,1,8.774,5.584l-2.393,2.393Z"/>
</svg>
