<svg xmlns="http://www.w3.org/2000/svg" width="26.923" height="25" viewBox="0 0 26.923 25">
  <path id="path7" d="M3.588,2A2.593,2.593,0,0,0,1,4.588v6.366a2.591,2.591,0,0,0,2.588,2.584H6.769v1.923H4.846v1.923h5.769V15.462H8.692V13.538h3.181a2.593,2.593,0,0,0,2.588-2.588V4.588A2.593,2.593,0,0,0,11.874,2Zm13.462,9.615A2.593,2.593,0,0,0,14.462,14.2V20.57a2.591,2.591,0,0,0,2.588,2.584h3.181v1.923H18.308V27h5.769V25.077H22.154V23.154h3.181a2.593,2.593,0,0,0,2.588-2.588V14.2a2.593,2.593,0,0,0-2.588-2.588ZM6.769,19.308v3.816A3.879,3.879,0,0,0,10.645,27h5.739V25.077H10.645a1.955,1.955,0,0,1-1.953-1.953V19.308Z" transform="translate(-1 -2)"/>
</svg>
