<svg xmlns="http://www.w3.org/2000/svg" width="46.9" height="28.186" viewBox="0 0 46.9 28.186">
  <g id="Сгруппировать_270" data-name="Сгруппировать 270" transform="translate(-14.171 -46.884)">
    <path id="Path_52155" data-name="Path 52155" d="M84.812,71.417A13.831,13.831,0,0,0,94.2,75.07a14.093,14.093,0,1,0,0-28.186,13.829,13.829,0,0,0-9.387,3.654,14.1,14.1,0,0,0,0,20.879Z" transform="translate(-47.221 0)" fill="#e9b040" fill-rule="evenodd"/>
    <path id="Path_52156" data-name="Path 52156" d="M172.04,122.854a.434.434,0,0,1,.435-.435.439.439,0,0,1,.459.435.445.445,0,0,1-.459.46.44.44,0,0,1-.435-.46Zm.435.363a.372.372,0,0,0,.362-.363.351.351,0,0,0-.362-.339.346.346,0,0,0-.339.339A.37.37,0,0,0,172.475,123.218Zm-.048-.145h-.1v-.411h.169a.142.142,0,0,1,.1.024c.048.024.048.048.048.1s-.024.1-.072.1l.1.194h-.121l-.048-.171h-.072v-.073h.1c.024,0,.024-.024.024-.048s0-.024-.024-.048h-.1Z" transform="translate(-112.917 -54.027)" fill="#e9b040" fill-rule="evenodd"/>
    <path id="Path_52157" data-name="Path 52157" d="M42.115,59.684c-.048-.508-.145-.992-.242-1.5H33.308a14.753,14.753,0,0,1,.387-1.476h7.766q-.253-.764-.581-1.5H34.3q.363-.769.8-1.5h4.96a12.728,12.728,0,0,0-1.064-1.476h-2.83a13.913,13.913,0,0,1,1.427-1.5A14.054,14.054,0,1,0,28.18,75.264a13.892,13.892,0,0,0,9.411-3.653,13.412,13.412,0,0,0,1.4-1.476H36.164a16.681,16.681,0,0,1-1.065-1.5h4.96a11.253,11.253,0,0,0,.823-1.5H34.3a15.741,15.741,0,0,1-.605-1.476h7.766a15.078,15.078,0,0,0,.411-1.5,14.888,14.888,0,0,0,.242-1.5,14.7,14.7,0,0,0,.073-1.476c0-.507-.024-1.015-.073-1.5Z" transform="translate(0 -0.195)" fill="#cc2131" fill-rule="evenodd"/>
    <path id="Path_52158" data-name="Path 52158" d="M172.04,106.737a.439.439,0,0,1,.435-.459.466.466,0,1,1-.435.459Zm.435.339a.339.339,0,1,0-.339-.339A.339.339,0,0,0,172.475,107.075Zm-.048-.145h-.1v-.387h.266c.048.024.048.073.048.121a.13.13,0,0,1-.072.1l.1.169h-.121l-.048-.145h-.072v-.073h.048c.024,0,.048,0,.048-.024.024,0,.024-.024.024-.048a.023.023,0,0,0-.024-.024c0-.024-.024,0-.048,0h-.048Z" transform="translate(-112.917 -42.481)" fill="#fff" fill-rule="evenodd"/>
    <path id="Path_52159" data-name="Path 52159" d="M35.075,92.519a4.474,4.474,0,0,1-1.137.194c-.726,0-1.161-.46-1.161-1.281a4.349,4.349,0,0,1,.048-.534l.1-.556.073-.46.653-3.967H35.1l-.171.871h.92l-.218,1.452h-.919l-.387,2.371a1.113,1.113,0,0,0-.024.242c0,.315.145.435.508.435a2.646,2.646,0,0,0,.46-.048l-.193,1.281Zm4.694-.048a5.692,5.692,0,0,1-1.548.218A2.325,2.325,0,0,1,35.631,90.1c0-2.008,1.113-3.46,2.661-3.46a1.938,1.938,0,0,1,2.032,2.1,6.671,6.671,0,0,1-.169,1.428H37.13a.681.681,0,0,0-.024.194c0,.677.46,1.016,1.331,1.016a3.648,3.648,0,0,0,1.573-.362Zm-.9-3.46v-.29a.669.669,0,0,0-.726-.75c-.484,0-.823.363-.968,1.04h1.694Zm-15.411,3.58h-1.5l.871-5.492-1.96,5.492h-1.04l-.121-5.467-.919,5.467H17.317L18.5,85.454h2.2l.048,4.4,1.476-4.4h2.42ZM27.116,90a1.373,1.373,0,0,0-.29-.024c-.871,0-1.306.339-1.306.871a.548.548,0,0,0,.556.605c.726,0,1.016-.605,1.04-1.452Zm1.21,2.588H27.019l.024-.6a1.772,1.772,0,0,1-1.6.7,1.467,1.467,0,0,1-1.355-1.6,2.56,2.56,0,0,1,.121-.75c.242-.9,1.137-1.452,2.516-1.476.171,0,.435,0,.677.024a1.287,1.287,0,0,0,.048-.387c0-.387-.313-.508-1.016-.508a4.037,4.037,0,0,0-1.258.194l-.218.048-.1.024.218-1.306a5.678,5.678,0,0,1,1.765-.313c1.306,0,2.008.6,2.008,1.718a5.488,5.488,0,0,1-.073,1.137l-.338,2.079-.048.363-.024.29-.024.194-.024.169Zm18.75-5.758a2.909,2.909,0,0,1,1.355.387l.266-1.548a3.354,3.354,0,0,0-.387-.145l-.6-.171a4.3,4.3,0,0,0-2.347.218,4.547,4.547,0,0,0-.9.774l-.194-.048-1.548,1.089.073-.6H41.2l-.943,5.806h1.525l.556-3.121s.218-.436.315-.581a.883.883,0,0,1,.847-.363h.121a7.81,7.81,0,0,0-.073,1.113c0,1.887,1.064,3.073,2.71,3.073a4.889,4.889,0,0,0,1.331-.194l.267-1.645a2.733,2.733,0,0,1-1.281.387c-.895,0-1.428-.677-1.428-1.742,0-1.573.8-2.685,1.936-2.685Zm12.846-1.379-.338,2.032a1.566,1.566,0,0,0-1.379-.823A2.283,2.283,0,0,0,56.2,87.994V87.97l-.968-.581.1-.6H53.7l-.919,5.806h1.5l.508-3.12s.387-.436.484-.581a.945.945,0,0,1,.677-.363,5.233,5.233,0,0,0-.266,1.718c0,1.452.75,2.42,1.863,2.42a1.758,1.758,0,0,0,1.4-.653l-.072.581h1.427l1.161-7.137H59.921Zm-1.863,5.758c-.508,0-.774-.387-.774-1.137,0-1.137.484-1.96,1.185-1.96.532,0,.8.411.8,1.137,0,1.161-.484,1.96-1.21,1.96ZM51.067,90a1.373,1.373,0,0,0-.29-.024c-.872,0-1.307.339-1.307.871a.548.548,0,0,0,.557.605C50.752,91.454,51.043,90.849,51.067,90Zm1.21,2.588H50.946l.048-.6a1.772,1.772,0,0,1-1.6.7,1.472,1.472,0,0,1-1.4-1.6c0-1.379,1.04-2.226,2.685-2.226a6.276,6.276,0,0,1,.653.024,1.489,1.489,0,0,0,.073-.387c0-.387-.313-.508-1.04-.508a4.153,4.153,0,0,0-1.258.194l-.194.048-.1.024.218-1.306a5.682,5.682,0,0,1,1.765-.313c1.306,0,1.984.6,1.984,1.718a4.167,4.167,0,0,1-.072,1.137L52.4,91.576l-.048.363-.048.29-.024.194v.169h0ZM31.494,88.019a7.173,7.173,0,0,1,1.137.1l.218-1.355c-.436-.048-1.016-.121-1.355-.121-1.693,0-2.249.919-2.249,1.984a1.651,1.651,0,0,0,1.137,1.6c.6.29.7.339.7.605,0,.362-.313.581-.9.581a4.05,4.05,0,0,1-1.379-.242l-.171,1.33.024.024.29.048a3.809,3.809,0,0,0,.387.072c.363.024.677.048.871.048,1.694,0,2.4-.653,2.4-1.936a1.653,1.653,0,0,0-1.137-1.62c-.653-.291-.726-.339-.726-.605s.29-.508.75-.508Z" transform="translate(-2.25 -27.465)" fill="#1b3771" fill-rule="evenodd"/>
    <path id="Path_52160" data-name="Path 52160" d="M50.262,84.123,50,85.671a2.9,2.9,0,0,0-1.355-.387C47.5,85.284,46.7,86.4,46.7,87.97c0,1.089.532,1.742,1.428,1.742a2.971,2.971,0,0,0,1.281-.362l-.266,1.62a5.041,5.041,0,0,1-1.331.218c-1.645,0-2.661-1.186-2.661-3.1,0-2.54,1.4-4.331,3.411-4.331a2.976,2.976,0,0,1,.7.073l.605.145c.194.073.242.1.388.145Zm-4.887,1.065H45.23c-.508,0-.8.242-1.258.943l.145-.9H42.738L41.8,91.042H43.32c.556-3.556.7-4.161,1.427-4.161h.1a6.082,6.082,0,0,1,.581-1.669l-.049-.024ZM36.617,90.97a3.14,3.14,0,0,1-1.089.194,1.119,1.119,0,0,1-1.21-1.281,3.988,3.988,0,0,1,.048-.508l.1-.581.073-.459.653-3.968h1.5l-.171.871h.774L37.1,86.664h-.774l-.411,2.42a.909.909,0,0,0-.024.242c0,.29.145.411.508.411a1.007,1.007,0,0,0,.411-.048l-.193,1.281Zm-5.831-3.9A1.694,1.694,0,0,0,31.924,88.7c.629.29.726.387.726.629,0,.363-.266.532-.871.532a4.521,4.521,0,0,1-1.355-.218l-.218,1.33.073.024.266.048a1.589,1.589,0,0,0,.411.048,5.6,5.6,0,0,0,.823.048c1.6,0,2.347-.605,2.347-1.936a1.608,1.608,0,0,0-1.064-1.621c-.653-.289-.727-.362-.727-.628,0-.313.266-.46.75-.46a9.456,9.456,0,0,1,1.089.073l.218-1.331a8.763,8.763,0,0,0-1.331-.121c-1.694,0-2.3.895-2.274,1.959Zm31.065,3.968H60.424l.073-.557a1.812,1.812,0,0,1-1.4.629c-1.113,0-1.839-.943-1.839-2.395,0-1.936,1.137-3.581,2.468-3.581a1.739,1.739,0,0,1,1.452.8l.339-2.032h1.5l-1.161,7.137Zm-2.226-1.355c.7,0,1.186-.823,1.186-1.96,0-.75-.267-1.137-.8-1.137-.677,0-1.185.8-1.185,1.936q0,1.162.8,1.161ZM41.262,90.921a4.957,4.957,0,0,1-1.573.242,2.3,2.3,0,0,1-2.565-2.613c0-1.984,1.113-3.46,2.637-3.46a1.944,1.944,0,0,1,2.056,2.1,5.848,5.848,0,0,1-.194,1.452h-3a.475.475,0,0,0-.024.171c0,.677.46,1.016,1.331,1.016a3.328,3.328,0,0,0,1.573-.363l-.242,1.452Zm-.847-3.46v-.29a.669.669,0,0,0-.726-.75c-.484,0-.823.363-.968,1.04h1.694ZM25,91.042H23.5l.871-5.492-1.96,5.492h-1.04L21.254,85.6l-.919,5.444h-1.4l1.187-7.137H22.3l.072,4.427,1.452-4.427h2.371l-1.185,7.137Zm3.75-2.589c-.145,0-.218-.024-.339-.024-.847,0-1.281.313-1.281.895a.51.51,0,0,0,.532.581c.629,0,1.065-.581,1.089-1.452Zm1.113,2.589H28.609l.024-.605a1.886,1.886,0,0,1-1.6.7,1.405,1.405,0,0,1-1.379-1.573c0-1.427.968-2.249,2.661-2.249.171,0,.387.024.629.048A1.219,1.219,0,0,0,29,87c0-.387-.266-.532-.968-.532a4.992,4.992,0,0,0-1.258.145l-.218.073-.145.024.218-1.306a6.084,6.084,0,0,1,1.815-.29c1.306,0,2.008.581,2.008,1.693a7.319,7.319,0,0,1-.121,1.161l-.339,2.057-.048.362-.024.29-.024.218-.024.145Zm22.839-2.589c-.171,0-.242-.024-.339-.024-.871,0-1.307.313-1.307.895a.528.528,0,0,0,.557.581c.605,0,1.064-.581,1.089-1.452Zm1.113,2.589H52.561l.024-.605a1.884,1.884,0,0,1-1.6.7,1.405,1.405,0,0,1-1.379-1.573c0-1.427.968-2.249,2.661-2.249.171,0,.388.024.605.048A1.537,1.537,0,0,0,52.948,87c0-.387-.267-.532-.968-.532a5.191,5.191,0,0,0-1.281.145l-.194.073-.145.024.218-1.306a6.086,6.086,0,0,1,1.815-.29c1.306,0,1.984.581,1.984,1.693a5.2,5.2,0,0,1-.121,1.161l-.313,2.057-.048.362-.048.29-.024.218v.145h0Zm4.064-5.855h-.145c-.508,0-.8.242-1.258.943l.145-.9H55.246l-.919,5.806h1.5c.557-3.556.7-4.161,1.428-4.161h.1a6.082,6.082,0,0,1,.581-1.669l-.048-.024Z" transform="translate(-3.405 -26.376)" fill="#fff" fill-rule="evenodd"/>
  </g>
</svg>
