<svg xmlns="http://www.w3.org/2000/svg" width="39.71" height="41.558" viewBox="0 0 39.71 41.558">
  <path id="Контур_28" data-name="Контур 28" d="M41.129,6.417l-4.8-4.8a1.982,1.982,0,0,0-2.8,0l-9.08,9.08a1.983,1.983,0,0,0-.581,1.4v4.8a1.983,1.983,0,0,0,1.982,1.983h4.8a1.983,1.983,0,0,0,1.4-.581l9.079-9.08a1.982,1.982,0,0,0,0-2.8Zm-11.3,8.5h-2V12.922l7.1-7.1,1.994,1.994ZM35.7,20.788A1.983,1.983,0,0,0,33.72,22.77v4.741l-2.935-2.935a5.512,5.512,0,0,0-7.788,0l-1.384,1.384-4.929-4.929a5.505,5.505,0,0,0-7.78,0l-2.94,2.94V12.858a1.985,1.985,0,0,1,1.983-1.983h11.9a1.983,1.983,0,1,0,0-3.965H7.948A5.954,5.954,0,0,0,2,12.858v23.79A5.954,5.954,0,0,0,7.948,42.6h23.79a5.954,5.954,0,0,0,5.948-5.948V22.77A1.983,1.983,0,0,0,35.7,20.788ZM7.948,38.631a1.985,1.985,0,0,1-1.983-1.983v-7.07l5.743-5.743a1.585,1.585,0,0,1,2.173,0l6.281,6.279c.017.018.023.043.041.061l8.456,8.456ZM33.72,36.648a1.926,1.926,0,0,1-.354,1.065l-8.949-8.949L25.8,27.38a1.546,1.546,0,0,1,2.181,0l5.738,5.738Z" transform="translate(-2 -1.038)"/>
</svg>
