<svg xmlns="http://www.w3.org/2000/svg" width="41.636" height="33.021" viewBox="0 0 41.636 33.021">
  <g id="Сгруппировать_29" data-name="Сгруппировать 29" transform="translate(0 0)">
    <path id="Контур_24" data-name="Контур 24" d="M43.918,12H42.482V35.494a2.114,2.114,0,0,1-2.154,2.073H31.513a12.593,12.593,0,0,0-5.456,1.244l-1.278.608a2.155,2.155,0,0,1-.962.221,3.074,3.074,0,0,1-1.436-.449c-.194-.1-.424-.221-.718-.352h-.072a12.593,12.593,0,0,0-5.456-1.244H7.307a2.114,2.114,0,0,1-2.154-2.073V12H3.718A.7.7,0,0,0,3,12.691V40.33a.7.7,0,0,0,.718.691h40.2a.7.7,0,0,0,.718-.691V12.691A.7.7,0,0,0,43.918,12Z" transform="translate(-3 -8)"/>
    <path id="Контур_25" data-name="Контур 25" d="M22.941,9.528A13.423,13.423,0,0,0,17.227,8V23.828a.693.693,0,0,1-.348.6.635.635,0,0,1-.674-.032l-1.615-1.122L12.976,24.4a.635.635,0,0,1-.674.032.693.693,0,0,1-.348-.6V8h-3.3A.674.674,0,0,0,8,8.688V34.15a.674.674,0,0,0,.659.688h8.093a12.091,12.091,0,0,1,5.6,1.376c.343.151.593.3.8.413V9.638ZM38.977,8H30.883a13.441,13.441,0,0,0-6.189,1.528l-.217.11v27l.8-.427a12.091,12.091,0,0,1,5.6-1.376h8.093a.674.674,0,0,0,.659-.688V8.688A.674.674,0,0,0,38.977,8Zm-11.2,12.387h5.358v1.376H27.772Zm0,5.505h5.358v1.376H27.772Zm7.909,4.129H27.772V28.645h7.909Zm0-5.505H27.772V23.14h7.909Zm0-5.505H27.772V17.634h7.909Z" transform="translate(-3 -8)"/>
  </g>
</svg>
