<svg xmlns="http://www.w3.org/2000/svg" width="53.254" height="17.879" viewBox="0 0 53.254 17.879">
  <g id="Сгруппировать_269" data-name="Сгруппировать 269" transform="translate(0 -16.177)">
    <path id="Контур_99" data-name="Контур 99" d="M17.2,33.97h4.31l2.77-17.238H19.665Z" transform="translate(1.883 0.061)" fill="#1565c0"/>
    <path id="Контур_100" data-name="Контур 100" d="M14.92,16.484l-4,12.313-.756-3.468a15.847,15.847,0,0,0-5.849-7.388L8.147,33.722h4.618L19.23,16.483H14.92Zm34.477,0H44.779L37.7,33.723h4.309l.923-2.463h5.541l.616,2.463h3.7Zm-5.541,11.7,2.463-6.464,1.232,6.464ZM31.542,21.409c0-.923.616-1.847,2.77-1.847a5.875,5.875,0,0,1,3.079,1.232l.923-3.693a12.175,12.175,0,0,0-4-.923c-4.618,0-6.772,2.463-6.772,5.233,0,5.541,6.156,4.618,6.156,7.388,0,.616-.307,1.539-2.77,1.539a10.575,10.575,0,0,1-4.309-.923L26,33.107a9.6,9.6,0,0,0,4.618.923c2.77.307,7.081-2.155,7.081-5.849C37.7,23.872,31.542,23.565,31.542,21.409Z" transform="translate(0.472)" fill="#1565c0"/>
    <path id="Контур_101" data-name="Контур 101" d="M10.774,25.966l-1.539-7.7a2.652,2.652,0,0,0-2.463-1.539H0S8.927,19.5,10.774,25.966Z" transform="translate(0 0.061)" fill="#ff9800"/>
  </g>
</svg>
