<svg xmlns="http://www.w3.org/2000/svg" width="41.998" height="41.998" viewBox="0 0 41.998 41.998">
  <path id="Контур_10" data-name="Контур 10" d="M18.374,26.249,26.249,21l-7.875-5.25ZM34.123,0H7.875A7.875,7.875,0,0,0,0,7.875V34.123A7.875,7.875,0,0,0,7.875,42H34.123A7.875,7.875,0,0,0,42,34.123V7.875A7.875,7.875,0,0,0,34.123,0ZM33.9,25.7c-.142,1.748-1.467,3.979-3.326,4.3a141.679,141.679,0,0,1-19.148,0C9.5,29.761,8.242,27.446,8.1,25.7a49.626,49.626,0,0,1,0-9.429c.142-1.746,1.436-4.048,3.326-4.258a133.97,133.97,0,0,1,19.148,0c2.142.079,3.184,2.281,3.326,4.029A52.512,52.512,0,0,1,33.9,25.7Z" fill="#fff"/>
</svg>
