<svg width="65" height="65" viewBox="0 0 65 65" fill="none" xmlns="http://www.w3.org/2000/svg">
<path d="M51.8336 34.2619C51.1964 33.6245 50.1628 33.6245 49.5253 34.2619L47.8941 35.893C46.4282 35.1568 44.6852 35.1569 43.2192 35.8931L41.588 34.2619C40.9507 33.6246 39.9171 33.6246 39.2797 34.2619C38.6422 34.8992 38.6422 35.9328 39.2797 36.5702L40.9108 38.2013C40.1747 39.6673 40.1747 41.4103 40.9108 42.8763L39.2796 44.5075C38.6421 45.1448 38.6421 46.1783 39.2796 46.8158C39.5983 47.1345 40.0161 47.2938 40.4337 47.2938C40.8514 47.2938 41.2692 47.1344 41.5878 46.8158L43.2189 45.1847C43.9519 45.5527 44.7538 45.7382 45.5564 45.7382C46.3589 45.7382 47.1609 45.5527 47.8939 45.1847L49.525 46.8158C49.8438 47.1346 50.2615 47.2938 50.6793 47.2938C51.097 47.2938 51.5148 47.1344 51.8334 46.8158C52.4708 46.1783 52.4708 45.1449 51.8334 44.5075L50.2037 42.8779C50.5653 42.1611 50.758 41.365 50.758 40.5389C50.758 39.7128 50.5653 38.9165 50.2037 38.1999L51.8334 36.5703C52.471 35.9329 52.471 34.8995 51.8336 34.2619ZM44.1868 41.9088C43.4315 41.1535 43.4315 39.9244 44.1867 39.1691C44.5644 38.7913 45.0604 38.6026 45.5566 38.6026C46.0527 38.6026 46.5488 38.7914 46.9264 39.169C47.6817 39.9243 47.6817 41.1534 46.9264 41.9088C46.1711 42.6641 44.942 42.6639 44.1868 41.9088Z" fill="#4F4F4F"/>
<path d="M24.0668 42.8764C24.8028 41.4104 24.8028 39.6674 24.0668 38.2014L25.6979 36.5702C26.3354 35.9329 26.3354 34.8994 25.6979 34.2619C25.0606 33.6246 24.0271 33.6246 23.3896 34.2619L21.7585 35.893C20.2926 35.1568 18.5494 35.1568 17.0836 35.893L15.4524 34.2619C14.815 33.6243 13.7815 33.6246 13.144 34.2619C12.5066 34.8994 12.5066 35.9328 13.144 36.5702L14.7737 38.1998C14.4121 38.9165 14.2194 39.7127 14.2194 40.5388C14.2194 41.3649 14.4121 42.161 14.7737 42.8778L13.144 44.5073C12.5066 45.1447 12.5066 46.1781 13.144 46.8157C13.4628 47.1345 13.8805 47.2937 14.2982 47.2937C14.7158 47.2937 15.1337 47.1343 15.4523 46.8157L17.0834 45.1846C17.8164 45.5528 18.6183 45.7381 19.4209 45.7381C20.2234 45.7381 21.0254 45.5526 21.7584 45.1845L23.3896 46.8157C23.7083 47.1344 24.1261 47.2937 24.5438 47.2937C24.9616 47.2937 25.3793 47.1343 25.6979 46.8157C26.3354 46.1782 26.3354 45.1448 25.6979 44.5073L24.0668 42.8764ZM18.0512 41.9088C17.2957 41.1535 17.2957 39.9244 18.0512 39.169C18.4289 38.7913 18.9248 38.6026 19.4209 38.6026C19.917 38.6026 20.4131 38.7914 20.7907 39.169C21.546 39.9243 21.546 41.1534 20.7908 41.9087C20.0355 42.6641 18.8063 42.664 18.0512 41.9088Z" fill="url(#paint0_linear)"/>
<path d="M40.3182 13.9198C39.3138 15.7228 39.3138 17.938 40.3182 19.741L38.9128 21.1465C38.2753 21.7839 38.2753 22.8173 38.9128 23.4548C39.2315 23.7736 39.6493 23.9328 40.0669 23.9328C40.4847 23.9328 40.9024 23.7734 41.221 23.4548L42.6265 22.0493C43.5279 22.5515 44.5321 22.8043 45.537 22.8043C46.542 22.8043 47.5461 22.5515 48.4476 22.0492L49.853 23.4547C50.1718 23.7734 50.5895 23.9327 51.0073 23.9327C51.425 23.9327 51.8428 23.7733 52.1614 23.4547C52.7988 22.8173 52.7988 21.7837 52.1614 21.1463L50.7559 19.7409C51.7604 17.9379 51.7604 15.7228 50.7559 13.9198L52.1614 12.5143C52.7988 11.877 52.7988 10.8434 52.1614 10.206C51.524 9.56865 50.4905 9.56865 49.853 10.206L48.4475 11.6115C46.6446 10.6072 44.4295 10.6071 42.6265 11.6115L41.221 10.206C40.5838 9.56854 39.5502 9.56854 38.9127 10.206C38.2752 10.8433 38.2752 11.8768 38.9127 12.5143L40.3182 13.9198ZM47.4549 14.9124C48.5124 15.97 48.5124 17.6906 47.4549 18.7481C46.3974 19.8059 44.6765 19.8056 43.6192 18.7482C42.5617 17.6906 42.5616 15.97 43.6191 14.9125C44.1479 14.3837 44.8423 14.1194 45.537 14.1194C46.2315 14.1194 46.9262 14.3838 47.4549 14.9124Z" fill="url(#paint1_linear)"/>
<path d="M12.7967 23.4547C13.1155 23.7735 13.5332 23.9327 13.9508 23.9327C14.3685 23.9327 14.7863 23.7733 15.105 23.4547L16.5104 22.0492C17.4119 22.5514 18.416 22.8042 19.4209 22.8042C20.4258 22.8042 21.4299 22.5514 22.3314 22.0491L23.7369 23.4546C24.0556 23.7733 24.4733 23.9326 24.8911 23.9326C25.3088 23.9326 25.7266 23.7732 26.0452 23.4546C26.6826 22.8173 26.6826 21.7836 26.0452 21.1463L24.6397 19.7408C25.6442 17.9378 25.6442 15.7227 24.6397 13.9197L26.0452 12.5142C26.6826 11.8769 26.6826 10.8434 26.0452 10.2059C25.4079 9.56857 24.3743 9.56857 23.7369 10.2059L22.3314 11.6115C20.5285 10.6072 18.3134 10.6071 16.5104 11.6115L15.1051 10.206C14.4678 9.56857 13.4343 9.56857 12.7967 10.206C12.1593 10.8434 12.1593 11.8768 12.7967 12.5144L14.2021 13.9198C13.1977 15.7228 13.1976 17.938 14.2021 19.741L12.7967 21.1465C12.1592 21.7838 12.1592 22.8174 12.7967 23.4547ZM21.3389 14.9125C22.3963 15.9701 22.3963 17.6907 21.3389 18.7482C20.2813 19.806 18.5603 19.8056 17.5032 18.7483C16.4456 17.6907 16.4456 15.9701 17.5031 14.9126C18.0318 14.3837 18.7263 14.1194 19.421 14.1194C20.1154 14.1194 20.8101 14.3838 21.3389 14.9125Z" fill="#4F4F4F"/>
<path d="M58.7249 4.64282H6.27509C5.37365 4.64282 4.64284 5.37364 4.64284 6.27508V58.7249C4.64284 59.6263 5.37365 60.3571 6.27509 60.3571H58.7249C59.6263 60.3571 60.3571 59.6263 60.3571 58.7249V6.27508C60.3571 5.37364 59.6263 4.64282 58.7249 4.64282ZM10.2288 50.5585C8.94669 50.5585 7.90735 49.5191 7.90735 48.237V32.8627C7.90735 31.5806 8.94669 30.5413 10.2288 30.5413H28.5463C29.8284 30.5413 30.8677 31.5806 30.8677 32.8627V48.237C30.8677 49.5191 29.8284 50.5585 28.5463 50.5585H10.2288ZM34.1322 32.8627C34.1322 31.5806 35.1716 30.5413 36.4537 30.5413H54.7712C56.0533 30.5413 57.0926 31.5806 57.0926 32.8627V48.237C57.0926 49.5191 56.0533 50.5585 54.7712 50.5585H36.4537C35.1716 50.5585 34.1322 49.5191 34.1322 48.237V32.8627ZM57.0926 24.9553C57.0926 26.2374 56.0533 27.2768 54.7712 27.2768H36.4537C35.1716 27.2768 34.1322 26.2374 34.1322 24.9553V10.2288C34.1322 8.94667 35.1716 7.90733 36.4537 7.90733H54.7712C56.0533 7.90733 57.0926 8.94667 57.0926 10.2288V24.9553ZM28.5463 7.90733C29.8284 7.90733 30.8677 8.94667 30.8677 10.2288V24.9553C30.8677 26.2374 29.8284 27.2768 28.5463 27.2768H10.2288C8.94669 27.2768 7.90735 26.2374 7.90735 24.9553V10.2288C7.90735 8.94667 8.94669 7.90733 10.2288 7.90733H28.5463ZM52.7684 57.0926C51.4893 57.0926 50.3313 55.6733 49.0663 55.4839C48.9868 55.472 48.9054 55.4658 48.8225 55.4658C48.7396 55.4658 48.6581 55.472 48.5785 55.4839C47.3136 55.6735 46.1559 57.0926 44.8769 57.0926H42.9748C41.6956 57.0926 40.5377 55.6733 39.2726 55.4839C39.1931 55.472 39.1117 55.4658 39.0289 55.4658C38.946 55.4658 38.8645 55.472 38.7849 55.4839C37.52 55.6735 36.3623 57.0926 35.0833 57.0926H29.9166C28.6375 57.0926 27.4795 55.6733 26.2145 55.4839C26.135 55.472 26.0536 55.4658 25.9707 55.4658C25.8878 55.4658 25.8063 55.472 25.7267 55.4839C24.4619 55.6735 23.3042 57.0926 22.0251 57.0926H20.123C18.8439 57.0926 17.6859 55.6733 16.4209 55.4839C16.3413 55.472 16.26 55.4658 16.1771 55.4658C16.0943 55.4658 16.0128 55.472 15.9333 55.4839C14.6684 55.6733 13.5108 57.0926 12.2318 57.0926H9.54216C8.63928 57.0926 7.90735 56.3607 7.90735 55.4578C7.90735 54.5549 8.63928 53.823 9.54216 53.823H55.4578C56.3607 53.823 57.0926 54.5549 57.0926 55.4578C57.0926 56.3607 56.3607 57.0926 55.4578 57.0926H52.7684Z" fill="#4F4F4F"/>
<defs>
<linearGradient id="paint0_linear" x1="12.666" y1="33.7838" x2="27.2736" y2="35.0985" gradientUnits="userSpaceOnUse">
<stop offset="0.0729167" stop-color="#FF756C"/>
<stop offset="1" stop-color="#FF3E3E"/>
</linearGradient>
<linearGradient id="paint1_linear" x1="38.4346" y1="9.72791" x2="53.7935" y2="11.1102" gradientUnits="userSpaceOnUse">
<stop offset="0.0729167" stop-color="#FF756C"/>
<stop offset="1" stop-color="#FF3E3E"/>
</linearGradient>
</defs>
</svg>
