<svg width="65" height="65" viewBox="0 0 65 65" fill="none" xmlns="http://www.w3.org/2000/svg">
<path d="M65 2C65 0.89543 64.1046 0 63 0H2C0.89543 0 0 0.895431 0 2V55.4709C0 56.5235 0.853265 57.3767 1.90582 57.3767C2.95838 57.3767 3.81164 58.23 3.81164 59.2825V63C3.81164 64.1046 4.70707 65 5.81164 65H59.1882C60.2928 65 61.1882 64.1046 61.1882 63V59.2826C61.1882 58.23 62.0415 57.3767 63.0941 57.3767C64.1467 57.3767 65 56.5234 65 55.4708V2ZM57.3798 61.1914H9.52758C8.47418 61.1914 7.62023 60.3375 7.62023 59.2841C7.62023 58.2307 8.47418 57.3767 9.52758 57.3767H55.4723C56.5257 57.3767 57.3796 58.2307 57.3796 59.2841V61.1913C57.3796 61.1913 57.3797 61.1914 57.3798 61.1914ZM61.1914 51.5681C61.1914 52.6727 60.296 53.5681 59.1914 53.5681H5.80859C4.70402 53.5681 3.80859 52.6727 3.80859 51.5681V5.80859C3.80859 4.70402 4.70402 3.80859 5.80859 3.80859H59.1914C60.296 3.80859 61.1914 4.70402 61.1914 5.80859V51.5681Z" fill="#4F4F4F"/>
<path d="M15.2451 44.0375C15.2451 42.9858 14.3913 42.1332 13.3396 42.1332C12.2866 42.1332 11.4319 41.2796 11.4319 40.2266V17.1501C11.4319 16.0971 12.2866 15.2435 13.3396 15.2435C14.3913 15.2435 15.2451 14.3909 15.2451 13.3392C15.2451 12.2875 14.3925 11.4349 13.3408 11.4349H9.62329C8.51872 11.4349 7.62329 12.3304 7.62329 13.4349V43.9418C7.62329 45.0464 8.51872 45.9418 9.62329 45.9418H13.3408C14.3925 45.9418 15.2451 45.0892 15.2451 44.0375Z" fill="url(#paint0_linear)"/>
<defs>
<linearGradient id="paint0_linear" x1="7.62329" y1="11.4349" x2="15.9277" y2="11.6" gradientUnits="userSpaceOnUse">
<stop offset="0.0729167" stop-color="#FF756C"/>
<stop offset="1" stop-color="#FF3E3E"/>
</linearGradient>
</defs>
</svg>
