<svg width="61" height="65" viewBox="0 0 61 65" fill="none" xmlns="http://www.w3.org/2000/svg">
<path d="M53.7212 0C53.7212 0 53.7212 0 53.7212 0H7.27883C3.65444 0 0.705719 2.94872 0.705719 6.57324V62.6786C0.705719 63.9607 1.74506 65 3.02715 65H57.973C59.2551 65 60.2944 63.9607 60.2944 62.6786V6.57324C60.2943 2.94872 57.3456 0 53.7212 0C53.7212 0 53.7212 0 53.7212 0ZM56.4712 58.8555C56.4712 60.1376 55.4319 61.1769 54.1498 61.1769H6.85008C5.56799 61.1769 4.52865 60.1376 4.52865 58.8555V16.6663C4.52865 15.3842 5.56799 14.3449 6.85008 14.3449H54.1498C55.4319 14.3449 56.4712 15.3842 56.4712 16.6663V58.8555ZM6.85008 10.5218C5.56799 10.5218 4.52865 9.48248 4.52865 8.20039V6.57324C4.52865 5.05676 5.76235 3.82306 7.27883 3.82306H53.7212C55.2375 3.82306 56.4712 5.05676 56.4712 6.57324V8.20039C56.4712 9.48248 55.4319 10.5218 54.1498 10.5218H6.85008Z" fill="#4F4F4F"/>
<path d="M10.174 21.7954C11.1739 21.7954 12.1318 20.9162 12.0856 19.8838C12.0392 18.8482 11.2456 17.9723 10.174 17.9723C9.17418 17.9723 8.21625 18.8515 8.2625 19.8838C8.30889 20.9195 9.10243 21.7954 10.174 21.7954Z" fill="url(#paint0_linear)"/>
<path d="M17.6927 21.7954C18.6926 21.7954 19.6505 20.9162 19.6042 19.8838C19.5578 18.8482 18.7643 17.9723 17.6927 17.9723C16.6929 17.9723 15.7349 18.8515 15.7812 19.8838C15.8276 20.9195 16.6211 21.7954 17.6927 21.7954Z" fill="url(#paint1_linear)"/>
<path d="M25.2114 21.7954C26.2112 21.7954 27.1692 20.9162 27.1229 19.8838C27.0765 18.8482 26.283 17.9723 25.2114 17.9723C24.2115 17.9723 23.2536 18.8515 23.2999 19.8838C23.3462 20.9195 24.1398 21.7954 25.2114 21.7954Z" fill="url(#paint2_linear)"/>
<path d="M21.2238 36.8209L22.5238 39.7961L25.0005 38.6537L27.3259 40.0333L24.9908 41.4186L22.5144 40.2762L21.2143 43.2515L23.3863 44.2534L23.1448 46.687L26.3025 47.0178L26.5779 44.2429L28.9226 42.852V45.6196L26.7023 47.2663L28.56 49.9107L30.4904 48.479L32.4208 49.9107L34.2786 47.2663L32.0967 45.6481V42.8634L34.4102 44.2359L34.6879 47.0348L37.8457 46.704L37.6042 44.2704L39.7762 43.2685L38.4762 40.2932L36.0211 41.4257L33.6741 40.0333L35.9876 38.6609L38.4857 39.8132L39.7857 36.8378L37.6137 35.8361L37.8553 33.4024L34.6975 33.0715L34.4245 35.8222L32.0967 37.2032V34.4554L34.2977 32.823L32.4399 30.1786L30.5095 31.6103L28.5792 30.1786L26.7214 32.823L28.9226 34.4555V37.2146L26.5874 35.8293L26.312 33.0546L23.1542 33.3855L23.3959 35.819L21.2238 36.8209Z" fill="url(#paint3_linear)"/>
<defs>
<linearGradient id="paint0_linear" x1="8.26089" y1="17.9723" x2="12.398" y2="18.3449" gradientUnits="userSpaceOnUse">
<stop offset="0.0729167" stop-color="#FF756C"/>
<stop offset="1" stop-color="#FF3E3E"/>
</linearGradient>
<linearGradient id="paint1_linear" x1="15.7796" y1="17.9723" x2="19.9166" y2="18.3449" gradientUnits="userSpaceOnUse">
<stop offset="0.0729167" stop-color="#FF756C"/>
<stop offset="1" stop-color="#FF3E3E"/>
</linearGradient>
<linearGradient id="paint2_linear" x1="23.2982" y1="17.9723" x2="27.4353" y2="18.3449" gradientUnits="userSpaceOnUse">
<stop offset="0.0729167" stop-color="#FF756C"/>
<stop offset="1" stop-color="#FF3E3E"/>
</linearGradient>
<linearGradient id="paint3_linear" x1="21.2143" y1="30.1786" x2="41.3129" y2="31.8811" gradientUnits="userSpaceOnUse">
<stop offset="0.0729167" stop-color="#FF756C"/>
<stop offset="1" stop-color="#FF3E3E"/>
</linearGradient>
</defs>
</svg>
