<svg width="51" height="65" viewBox="0 0 51 65" fill="none" xmlns="http://www.w3.org/2000/svg">
<path d="M48.3516 0H2.64844C1.59676 0 0.744141 0.852617 0.744141 1.9043V63.0957C0.744141 64.1474 1.59676 65 2.64844 65H48.3516C49.4032 65 50.2559 64.1474 50.2559 63.0957V1.9043C50.2559 0.852617 49.4032 0 48.3516 0ZM27.4043 48.2422V41.8945H31.2129V48.2422H27.4043ZM19.7871 48.2422V41.8945H23.5957V48.2422H19.7871ZM12.1699 48.2422V41.8945H15.9785V48.2422H12.1699ZM35.0215 41.8945H38.8301V48.2422H35.0215V41.8945ZM40.7344 38.0859H10.2656C9.21395 38.0859 8.36133 38.9386 8.36133 39.9902V48.2422H4.55273V33.0078H46.4473V48.2422H42.6387V39.9902C42.6387 38.9386 41.7861 38.0859 40.7344 38.0859ZM27.4043 29.1992V23.4863C27.4043 22.4363 28.2586 21.582 29.3086 21.582C30.3586 21.582 31.2129 22.4363 31.2129 23.4863V29.1992H27.4043ZM19.7871 29.1992V23.4863C19.7871 22.4363 20.6414 21.582 21.6914 21.582C22.7414 21.582 23.5957 22.4363 23.5957 23.4863V29.1992H19.7871ZM12.1699 29.1992V23.4863C12.1699 22.4363 13.0242 21.582 14.0742 21.582C15.1242 21.582 15.9785 22.4363 15.9785 23.4863V29.1992H12.1699ZM35.0215 23.4863C35.0215 22.4363 35.8758 21.582 36.9258 21.582C37.9758 21.582 38.8301 22.4363 38.8301 23.4863V29.1992H35.0215V23.4863ZM38.8301 18.101V15.8691C38.8301 14.8175 37.9775 13.9648 36.9258 13.9648C35.8741 13.9648 35.0215 14.8175 35.0215 15.8691V18.101C34.3122 18.3526 33.6669 18.7401 33.1172 19.2328C32.5675 18.7401 31.9222 18.3526 31.2129 18.101V15.8691C31.2129 14.8175 30.3603 13.9648 29.3086 13.9648C28.2569 13.9648 27.4043 14.8175 27.4043 15.8691V18.101C26.695 18.3526 26.0497 18.7401 25.5 19.2328C24.9503 18.7401 24.305 18.3526 23.5957 18.101V15.8691C23.5957 14.8175 22.7431 13.9648 21.6914 13.9648C20.6397 13.9648 19.7871 14.8175 19.7871 15.8691V18.101C19.0778 18.3526 18.4325 18.7401 17.8828 19.2328C17.3331 18.7401 16.6878 18.3526 15.9785 18.101V15.8691C15.9785 14.8175 15.1259 13.9648 14.0742 13.9648C13.0225 13.9648 12.1699 14.8175 12.1699 15.8691V18.101C9.95345 18.8871 8.36133 21.0038 8.36133 23.4863V29.1992H4.55273V11.4258H46.4473V29.1992H42.6387V23.4863C42.6387 21.0038 41.0466 18.8871 38.8301 18.101ZM4.55273 3.80859H46.4473V7.61719H4.55273V3.80859ZM19.7871 61.1914V58.6523H31.2129V61.1914H19.7871ZM46.4473 61.1914H35.0215V56.748C35.0215 55.6964 34.1689 54.8438 33.1172 54.8438H17.8828C16.8311 54.8438 15.9785 55.6964 15.9785 56.748V61.1914H4.55273V52.0508H46.4473V61.1914Z" fill="#4F4F4F"/>
<path d="M19.7927 58.6588V61.1979H15.9841V56.7545C15.9841 55.7028 16.8367 54.8502 17.8884 54.8502H33.1227C34.1744 54.8502 35.027 55.7028 35.027 56.7545V61.1979H31.2184V58.6588H19.7927Z" fill="url(#paint0_linear)"/>
<path fill-rule="evenodd" clip-rule="evenodd" d="M38.8301 18.1052V15.8734C38.8301 14.8217 37.9775 13.9691 36.9258 13.9691C35.8741 13.9691 35.0215 14.8217 35.0215 15.8734V18.1052C34.3122 18.3569 33.6669 18.7443 33.1172 19.237C32.5675 18.7443 31.9222 18.3569 31.2129 18.1052V15.8734C31.2129 14.8217 30.3603 13.9691 29.3086 13.9691C28.2569 13.9691 27.4043 14.8217 27.4043 15.8734V18.1052C26.695 18.3569 26.0497 18.7443 25.5 19.237C24.9503 18.7443 24.305 18.3569 23.5957 18.1052V15.8734C23.5957 14.8217 22.7431 13.9691 21.6914 13.9691C20.6397 13.9691 19.7871 14.8217 19.7871 15.8734V18.1052C19.0778 18.3569 18.4325 18.7443 17.8828 19.237C17.3331 18.7443 16.6878 18.3569 15.9785 18.1052V15.8734C15.9785 14.8217 15.1259 13.9691 14.0742 13.9691C13.0225 13.9691 12.1699 14.8217 12.1699 15.8734V18.1052C9.95345 18.8913 8.36133 21.008 8.36133 23.4906V29.2035H12.1699V23.5133C12.1699 22.4632 13.0242 21.609 14.0742 21.609C15.1242 21.609 15.9785 22.4632 15.9785 23.5133V29.2035H19.7871V23.5133C19.7871 22.4632 20.6414 21.609 21.6914 21.609C22.7414 21.609 23.5957 22.4632 23.5957 23.5133V29.2035H27.4043V23.5133C27.4043 22.4632 28.2586 21.609 29.3086 21.609C30.3586 21.609 31.2129 22.4632 31.2129 23.5133V29.2035H35.0215V23.5133C35.0215 22.4632 35.8758 21.609 36.9258 21.609C37.9758 21.609 38.8301 22.4632 38.8301 23.5133V29.2035H42.6387V23.4906C42.6387 21.008 41.0466 18.8913 38.8301 18.1052Z" fill="url(#paint1_linear)"/>
<defs>
<linearGradient id="paint0_linear" x1="15.9841" y1="54.8502" x2="35.3305" y2="60.0738" gradientUnits="userSpaceOnUse">
<stop offset="0.0729167" stop-color="#FF756C"/>
<stop offset="1" stop-color="#FF3E3E"/>
</linearGradient>
<linearGradient id="paint1_linear" x1="8.36133" y1="13.9691" x2="44.2519" y2="21.237" gradientUnits="userSpaceOnUse">
<stop offset="0.0729167" stop-color="#FF756C"/>
<stop offset="1" stop-color="#FF3E3E"/>
</linearGradient>
</defs>
</svg>
