<svg width="65" height="65" viewBox="0 0 65 65" fill="none" xmlns="http://www.w3.org/2000/svg">
<path d="M59.0306 0H5.96939C2.67787 0 0 2.67787 0 5.96939V59.0306C0 62.3221 2.67787 65 5.96939 65H59.0306C62.3221 65 65 62.3221 65 59.0306V5.96939C65 2.67787 62.3221 0 59.0306 0ZM61.0204 59.0306C61.0204 60.1278 60.1278 61.0204 59.0306 61.0204H5.96939C4.87221 61.0204 3.97959 60.1278 3.97959 59.0306V15.9184H10.9532C11.7744 18.2346 13.9875 19.898 16.5816 19.898C19.1758 19.898 21.3888 18.2346 22.2101 15.9184H26.8717C27.6929 18.2346 29.906 19.898 32.5001 19.898C35.0943 19.898 37.3073 18.2346 38.1286 15.9184H42.7902C43.6114 18.2346 45.8245 19.898 48.4186 19.898C51.0128 19.898 53.2258 18.2346 54.0471 15.9184H61.0204V59.0306ZM14.5918 13.9286C14.5918 12.8314 15.4845 11.9388 16.5816 11.9388C17.6788 11.9388 18.5714 12.8314 18.5714 13.9286C18.5714 15.0257 17.6788 15.9184 16.5816 15.9184C15.4845 15.9184 14.5918 15.0257 14.5918 13.9286ZM30.5102 13.9286C30.5102 12.8314 31.4028 11.9388 32.5 11.9388C33.5972 11.9388 34.4898 12.8314 34.4898 13.9286C34.4898 15.0257 33.5972 15.9184 32.5 15.9184C31.4028 15.9184 30.5102 15.0257 30.5102 13.9286ZM46.4286 13.9286C46.4286 12.8314 47.3212 11.9388 48.4184 11.9388C49.5155 11.9388 50.4082 12.8314 50.4082 13.9286C50.4082 15.0257 49.5155 15.9184 48.4184 15.9184C47.3212 15.9184 46.4286 15.0257 46.4286 13.9286ZM61.0204 11.9388H54.0468C53.2256 9.62252 51.0125 7.95918 48.4184 7.95918C45.8242 7.95918 43.6112 9.62252 42.7899 11.9388H38.1285C37.3072 9.62252 35.0942 7.95918 32.5 7.95918C29.9058 7.95918 27.6928 9.62252 26.8715 11.9388H22.2101C21.3888 9.62252 19.1758 7.95918 16.5816 7.95918C13.9875 7.95918 11.7744 9.62252 10.9532 11.9388H3.97959V5.96939C3.97959 4.87221 4.87221 3.97959 5.96939 3.97959H59.0306C60.1278 3.97959 61.0204 4.87221 61.0204 5.96939V11.9388Z" fill="#4F4F4F"/>
<path d="M51.543 27.8572H13.457C12.4054 27.8572 11.5527 28.7098 11.5527 29.7615V52.74C11.5527 53.7917 12.4054 54.6443 13.457 54.6443H51.543C52.5946 54.6443 53.4473 53.7917 53.4473 52.74V29.7615C53.4473 28.7098 52.5946 27.8572 51.543 27.8572ZM49.6387 48.5143C49.6387 49.7964 48.5993 50.8357 47.3172 50.8357H17.6828C16.4007 50.8357 15.3613 49.7964 15.3613 48.5143V33.9872C15.3613 32.7051 16.4007 31.6658 17.6828 31.6658H47.3172C48.5993 31.6658 49.6387 32.7051 49.6387 33.9872V48.5143Z" fill="url(#paint0_linear)"/>
<defs>
<linearGradient id="paint0_linear" x1="11.5527" y1="27.8572" x2="56.3306" y2="34.16" gradientUnits="userSpaceOnUse">
<stop offset="0.0729167" stop-color="#FF756C"/>
<stop offset="1" stop-color="#FF3E3E"/>
</linearGradient>
</defs>
</svg>
