<svg width="51" height="65" viewBox="0 0 51 65" fill="none" xmlns="http://www.w3.org/2000/svg">
<path d="M49.0941 11.8942H48.4982L43.1757 1.06437C42.8555 0.412852 42.1927 0 41.4668 0H9.53323C8.80718 0 8.14436 0.412852 7.82418 1.06437L2.5018 11.8942H1.90588C0.854204 11.8942 0.00158691 12.7469 0.00158691 13.7985V60.3346C0.00158691 61.3863 0.854204 62.2389 1.90588 62.2389H3.97992V63.0957C3.97992 64.1474 4.83253 65 5.88421 65C6.93589 65 7.78851 64.1474 7.78851 63.0957V62.2389H43.2113V63.0957C43.2113 64.1474 44.064 65 45.1156 65C46.1673 65 47.0199 64.1474 47.0199 63.0957V62.2389H49.094C50.1457 62.2389 50.9983 61.3863 50.9983 60.3346V13.7985C50.9984 12.7469 50.1458 11.8942 49.0941 11.8942ZM10.7192 3.80859H40.2808L44.2545 11.8942H6.74546L10.7192 3.80859ZM47.1898 58.4303H3.81018V15.7028H47.1897V58.4303H47.1898Z" fill="#4F4F4F"/>
<path d="M9.75842 54.8182H41.2415C42.2932 54.8182 43.1458 53.9656 43.1458 52.9139V25.0771C43.1458 24.0255 42.2932 23.1729 41.2415 23.1729H9.75842C8.70674 23.1729 7.85413 24.0255 7.85413 25.0771V52.9139C7.85413 53.9656 8.70674 54.8182 9.75842 54.8182ZM11.6627 29.3029C11.6627 28.0208 12.7021 26.9814 13.9841 26.9814H37.0158C38.2979 26.9814 39.3372 28.0208 39.3372 29.3029V48.6882C39.3372 49.9703 38.2979 51.0096 37.0158 51.0096H13.9841C12.7021 51.0096 11.6627 49.9703 11.6627 48.6882V29.3029Z" fill="#4F4F4F"/>
<path d="M17.9554 33.6608C16.9938 33.6608 16.2143 34.2495 16.2143 34.9756V42.7924C16.2143 43.5185 16.9938 44.1072 17.9554 44.1072C18.9169 44.1072 19.6964 43.5185 19.6964 42.7924V34.9756C19.6964 34.2494 18.9169 33.6608 17.9554 33.6608Z" fill="url(#paint0_linear)"/>
<path d="M14.3091 5.89038C13.2234 5.89038 12.3434 6.76839 12.3434 7.85143C12.3434 8.93447 13.2236 9.81248 14.3091 9.81248C15.3948 9.81248 16.275 8.93447 16.275 7.85143C16.2749 6.76839 15.3948 5.89038 14.3091 5.89038Z" fill="url(#paint1_linear)"/>
<path d="M25.5 9.81248C26.5857 9.81248 27.4658 8.93448 27.4658 7.85143C27.4658 6.76837 26.5857 5.89038 25.5 5.89038C24.4144 5.89038 23.5343 6.76837 23.5343 7.85143C23.5343 8.93448 24.4144 9.81248 25.5 9.81248Z" fill="url(#paint2_linear)"/>
<path d="M36.6909 9.81248C37.7765 9.81248 38.6566 8.93448 38.6566 7.85143C38.6566 6.76837 37.7765 5.89038 36.6909 5.89038C35.6053 5.89038 34.7252 6.76837 34.7252 7.85143C34.7252 8.93448 35.6053 9.81248 36.6909 9.81248Z" fill="url(#paint3_linear)"/>
<defs>
<linearGradient id="paint0_linear" x1="16.2143" y1="33.6608" x2="20.0064" y2="33.7745" gradientUnits="userSpaceOnUse">
<stop offset="0.0729167" stop-color="#FF756C"/>
<stop offset="1" stop-color="#FF3E3E"/>
</linearGradient>
<linearGradient id="paint1_linear" x1="12.3434" y1="5.89038" x2="16.5942" y2="6.27389" gradientUnits="userSpaceOnUse">
<stop offset="0.0729167" stop-color="#FF756C"/>
<stop offset="1" stop-color="#FF3E3E"/>
</linearGradient>
<linearGradient id="paint2_linear" x1="23.5343" y1="5.89038" x2="27.785" y2="6.27386" gradientUnits="userSpaceOnUse">
<stop offset="0.0729167" stop-color="#FF756C"/>
<stop offset="1" stop-color="#FF3E3E"/>
</linearGradient>
<linearGradient id="paint3_linear" x1="34.7252" y1="5.89038" x2="38.9759" y2="6.27386" gradientUnits="userSpaceOnUse">
<stop offset="0.0729167" stop-color="#FF756C"/>
<stop offset="1" stop-color="#FF3E3E"/>
</linearGradient>
</defs>
</svg>
