<svg width="65" height="65" viewBox="0 0 65 65" fill="none" xmlns="http://www.w3.org/2000/svg">
<g clip-path="url(#clip0)">
<path d="M48.0407 0H16.9593C13.3681 0 10.4464 2.6843 10.4464 5.98368V54.9368C10.4464 57.5388 12.2805 59.8086 14.8866 60.6107V63.0957C14.8866 64.1474 15.8146 65 16.9593 65C18.104 65 19.032 64.1474 19.032 63.0957V60.9206H45.968V63.0957C45.968 64.1474 46.896 65 48.0407 65C49.1854 65 50.1134 64.1474 50.1134 63.0957V60.6107C52.7192 59.8088 54.5536 57.5395 54.5536 54.9368V5.98368C54.5536 2.6843 51.6319 0 48.0407 0V0ZM50.4082 54.9368C50.4082 55.5092 50.1554 56.0696 49.7148 56.4743C49.2672 56.8855 48.6726 57.1119 48.0407 57.1119H16.9593C16.3274 57.1119 15.7328 56.8854 15.2851 56.4742C14.8446 56.0696 14.5918 55.5092 14.5918 54.9368V26.2454H50.4082V54.9368ZM50.4082 22.4368H14.5918V5.98368C14.5918 4.78436 15.6539 3.80859 16.9593 3.80859H48.0407C49.3461 3.80859 50.4082 4.78436 50.4082 5.98368V22.4368Z" fill="#4F4F4F"/>
<path d="M21.1407 8.15881C20.089 8.15881 19.2364 9.01143 19.2364 10.0631V16.1823C19.2364 17.2339 20.089 18.0865 21.1407 18.0865C22.1924 18.0865 23.045 17.2339 23.045 16.1823V10.0631C23.045 9.0113 22.1924 8.15881 21.1407 8.15881Z" fill="url(#paint0_linear)"/>
<path d="M21.1407 46.6426C22.1924 46.6426 23.045 45.79 23.045 44.7383V32.5C23.045 31.4483 22.1924 30.5957 21.1407 30.5957C20.089 30.5957 19.2364 31.4483 19.2364 32.5V44.7383C19.2364 45.79 20.0889 46.6426 21.1407 46.6426Z" fill="url(#paint1_linear)"/>
</g>
<defs>
<linearGradient id="paint0_linear" x1="19.2364" y1="8.15881" x2="23.3828" y2="8.30198" gradientUnits="userSpaceOnUse">
<stop offset="0.0729167" stop-color="#FF756C"/>
<stop offset="1" stop-color="#FF3E3E"/>
</linearGradient>
<linearGradient id="paint1_linear" x1="19.2364" y1="30.5957" x2="23.3859" y2="30.6843" gradientUnits="userSpaceOnUse">
<stop offset="0.0729167" stop-color="#FF756C"/>
<stop offset="1" stop-color="#FF3E3E"/>
</linearGradient>
<clipPath id="clip0">
<rect width="65" height="65" fill="white"/>
</clipPath>
</defs>
</svg>
