<svg width="192" height="192" viewBox="0 0 192 192" fill="none" xmlns="http://www.w3.org/2000/svg">
<rect width="192" height="192" rx="96" fill="#71C0FF"/>
<g clip-path="url(#clip0_1539_7)">
<path fill-rule="evenodd" clip-rule="evenodd" d="M52.1562 60.3961C52.6027 60.2715 53.0693 60.2353 53.5298 60.2897C59.7136 61.2017 52.3088 58.9946 60.3576 58.5204C58.627 64.7524 55.2665 65.2935 54.772 71.1364C56.1455 73.8025 58.4637 76.996 59.8647 79.9205C63.2023 80.8325 62.7857 79.9646 66.6728 81.3356L69.3374 82.354C69.667 82.4786 70.0363 82.6124 70.3843 82.7416L68.7559 79.4538C68.4263 78.5601 68.3286 79.197 68.646 77.2407C64.4889 78.0007 67.2985 78.6087 63.6327 77.9338C62.7933 73.4574 66.1523 72.0195 68.733 72.2506C72.8337 72.6184 69.5739 71.5346 71.39 73.7189C72.5972 71.3492 71.1703 72.5652 73.2565 70.422C79.9898 63.509 77.2564 63.1777 81.8547 62.5408C82.0323 61.9647 82.0909 61.3587 82.0271 60.7593C82.0307 60.3444 82.1056 59.9331 82.2484 59.5434C83.974 59.6936 85.6641 60.119 87.2541 60.8034C85.087 55.8057 87.3899 55.526 82.2484 54.2674C79.419 56.6234 80.562 56.0306 78.7963 58.2787C76.1546 57.806 77.2229 58.6298 75.2954 56.6447C82.2591 51.0754 79.0237 54.2644 82.8772 52.179C80.9497 49.0341 82.3553 50.9447 80.6918 51.4022C75.6615 52.5232 70.5063 52.9882 65.3557 52.7854C65.332 52.6076 65.3448 52.4269 65.3933 52.2542C65.4419 52.0815 65.5251 51.9204 65.638 51.7807C74.5143 48.3028 83.9411 46.4257 93.4777 46.2373C92.5711 51.4053 91.6387 48.1509 91.7501 53.4238C100.229 49.2514 99.8187 47.2116 103.501 46.71C101.406 49.563 101.291 48.382 101.272 51.0025C106.18 51.6105 103.445 53.205 104.457 49.0052C105.346 50.2866 105.343 49.9339 105.417 51.8598C103.431 51.9035 101.479 52.3869 99.7043 53.2749C98.8785 53.6005 98.1562 54.1419 97.6135 54.842L96.8107 55.8862C95.4632 58.072 96.1545 58.5462 95.4906 59.8899C93.9859 62.9299 91.3487 60.7624 91.5227 68.2089C92.4375 69.0481 93.537 69.6624 94.733 70.0023C95.929 70.3423 97.1883 70.3986 98.4101 70.1666C102.496 69.6666 101.92 68.8184 103.619 72.471C105.516 76.575 103.535 78.9994 106.671 85.3469C110.392 85.5171 111.391 85.4867 113.175 83.0152C116.998 77.7226 114.042 79.1483 117.891 77.8472C117.447 74.9318 116.47 73.3997 117.934 71.6517L122.36 67.9839C119.368 64.871 119.336 67.6206 116.408 63.9787C118.079 64.9515 119.877 67.0294 122.912 64.9029C126.911 62.1 123.193 65.8149 124.556 61.9571L119.587 60.0313C129.888 58.7271 129.543 60.5663 133.221 66.9093C133.479 66.7193 133.844 66.1097 133.969 66.3013C134.347 66.9093 135.953 62.9086 139.245 61.6805C139.417 61.8173 139.58 61.9419 139.735 62.0574L140.588 60.1544C151.508 67.5723 160.452 77.5239 166.651 89.1514C160.757 75.1121 150.828 63.1218 138.11 54.6886C125.393 46.2554 110.455 41.7559 95.177 41.7559C79.8986 41.7559 64.9614 46.2554 52.2439 54.6886C39.5264 63.1218 29.5965 75.1121 23.7031 89.1514C30.281 76.8075 39.9477 66.3645 51.7671 58.8335L52.1562 60.3961Z" fill="white" stroke="#D8EEFF"/>
<path d="M36.57 114.729C36.57 117.433 36.6509 119.611 36.7882 121.232C36.8525 122.481 37.0976 123.715 37.5162 124.895C37.6191 125.238 37.8078 125.549 38.0646 125.8C38.3214 126.05 38.6379 126.231 38.9843 126.327C39.7989 126.432 40.6267 126.366 41.4139 126.132C42.2841 125.952 43.1125 125.611 43.8557 125.126C44.5494 124.582 45.0535 123.835 45.2964 122.99C45.6995 121.7 45.9389 120.364 46.0091 119.014C46.1322 117.341 46.1902 115.167 46.1831 112.492C46.1831 109.844 46.0808 107.719 45.9496 106.108C45.8909 104.85 45.6461 103.608 45.2231 102.422C45.116 102.069 44.9312 101.744 44.6822 101.472C44.4333 101.199 44.1264 100.985 43.784 100.845C42.9812 100.642 42.1386 100.655 41.3422 100.882C40.4714 101.064 39.6489 101.426 38.9279 101.946C38.2291 102.516 37.7217 103.286 37.4735 104.151C37.0735 105.462 36.8341 106.817 36.7608 108.185C36.6387 109.874 36.5654 112.066 36.5715 114.74L36.57 114.729ZM56.2738 110.698C56.2908 112.677 56.2083 114.655 56.0266 116.626C55.889 118.225 55.6267 119.81 55.2422 121.368C54.7027 123.778 53.6778 126.053 52.2296 128.056C50.9744 129.682 49.354 130.991 47.4986 131.879C45.5488 132.785 43.5123 133.494 41.42 133.993C39.4196 134.554 37.3642 134.897 35.2896 135.018C33.5969 135.109 31.9284 134.586 30.5937 133.545C29.0592 132.129 27.9976 130.279 27.5521 128.243C27.1392 126.768 26.8618 125.258 26.7234 123.732C26.5484 121.972 26.4609 119.963 26.4609 117.707C26.4609 115.45 26.5484 113.387 26.7234 111.517C26.8741 109.82 27.1465 108.136 27.5384 106.477C28.0912 103.903 29.1167 101.453 30.5632 99.2508C31.7417 97.4931 33.3547 96.0672 35.2468 95.1104C37.1858 94.1725 39.2314 93.4712 41.3391 93.0219C43.3274 92.5785 45.3708 92.4315 47.4024 92.5856C49.1629 92.6899 50.8284 93.4159 52.0999 94.6331C53.6004 96.2427 54.6526 98.215 55.1521 100.354C55.5588 101.83 55.8365 103.338 55.9823 104.861C56.1624 106.58 56.2586 108.532 56.2723 110.696L56.2738 110.698ZM64.5912 128.938C63.1811 129.113 62.4852 128.552 62.4836 127.249C62.473 121.218 62.4317 115.203 62.3951 109.179C62.3585 103.156 62.3234 97.1335 62.3081 91.1082C64.4325 90.5083 66.5691 90.0123 68.7179 89.6201C70.8126 89.24 72.9305 88.9998 75.0574 88.9012C79.6083 88.6823 83.036 89.5897 85.3099 91.5034C87.5838 93.4171 88.7635 96.5954 88.8002 101.014C88.8038 101.966 88.7262 102.917 88.5682 103.856C88.4181 104.828 88.1443 105.777 87.7532 106.679C87.3434 107.602 86.7943 108.457 86.1249 109.214C85.3708 110.049 84.4743 110.744 83.477 111.268C84.3457 112.318 85.1334 113.432 85.8334 114.6C86.614 115.899 87.3227 117.24 87.9562 118.617C88.6247 120.049 89.2153 121.505 89.7586 122.995C90.2778 124.416 90.72 125.863 91.0833 127.331C88.3362 127.331 85.5892 127.39 82.8422 127.506C82.2751 127.557 81.7054 127.445 81.2001 127.184C80.7124 126.853 80.365 126.353 80.2249 125.782C79.5176 123.566 78.6631 121.399 77.6671 119.295C76.8151 117.462 75.8635 115.677 74.8163 113.948L72.1394 114.132C72.1684 116.472 72.1547 118.807 72.1684 121.143C72.1822 123.48 72.199 125.813 72.199 128.154C69.6671 128.365 67.1215 128.61 64.5912 128.939V128.938ZM72.0815 107.074C73.0856 107.007 74.102 106.944 75.1062 106.878C75.6588 106.845 76.203 106.727 76.7194 106.529C77.2449 106.325 77.7176 106.006 78.102 105.595C78.5346 105.104 78.8479 104.521 79.0177 103.89C79.26 102.999 79.368 102.077 79.3382 101.154C79.3544 100.208 79.2519 99.2629 79.033 98.3419C78.8911 97.7415 78.5896 97.1902 78.16 96.7459C77.7719 96.3675 77.2734 96.1211 76.7361 96.0421C76.0969 95.9411 75.4485 95.91 74.8025 95.9494C74.6499 95.9494 74.4531 95.9737 74.2058 95.9859C73.9586 95.998 73.6976 96.0223 73.4428 96.0573C73.1879 96.0923 72.9178 96.1181 72.6415 96.1546C72.3653 96.1911 72.1837 96.2108 72.0174 96.2215C72.0311 98.0287 72.0311 99.8406 72.0448 101.646C72.0586 103.452 72.0738 105.259 72.0891 107.067L72.0815 107.074ZM105.092 120.87C106.196 120.915 107.303 120.985 108.408 121.064C109.022 121.176 109.652 121.156 110.258 121.006C110.863 120.855 111.429 120.578 111.918 120.192C112.32 119.695 112.62 119.123 112.799 118.51C112.979 117.897 113.035 117.255 112.965 116.62C113.018 115.94 112.937 115.255 112.725 114.606C112.513 113.958 112.174 113.357 111.729 112.838C110.595 111.935 109.181 111.451 107.729 111.47C106.813 111.406 105.897 111.358 104.982 111.318C105.038 114.499 105.069 117.682 105.096 120.865L105.092 120.87ZM104.889 104.852C105.879 104.893 106.867 104.947 107.855 105.016C108.936 105.206 110.048 104.966 110.953 104.349C111.326 103.86 111.596 103.301 111.749 102.706C111.901 102.111 111.933 101.492 111.842 100.885C111.959 99.6277 111.63 98.3694 110.911 97.3296C110.003 96.5605 108.844 96.1495 107.652 96.1744C107.26 96.1455 106.764 96.1333 106.155 96.1181C105.546 96.1029 105.087 96.1075 104.803 96.1288C104.832 99.0396 104.846 101.944 104.89 104.854L104.889 104.852ZM95.1748 89.874C97.2817 89.5135 99.4092 89.2855 101.545 89.1915C103.454 89.0939 105.367 89.0939 107.275 89.1915C109.205 89.3092 111.116 89.6348 112.976 90.1627C114.555 90.5835 116.037 91.3063 117.339 92.2908C118.537 93.2271 119.494 94.4337 120.132 95.8111C120.826 97.3918 121.173 99.1019 121.149 100.827C121.254 102.561 120.85 104.287 119.987 105.796C118.988 107.214 117.562 108.279 115.915 108.836C117.079 109.382 118.16 110.087 119.129 110.931C119.929 111.626 120.603 112.454 121.12 113.378C121.577 114.207 121.91 115.098 122.109 116.023C122.299 116.897 122.401 117.787 122.415 118.681C122.502 120.383 122.162 122.08 121.426 123.618C120.788 124.824 119.82 125.825 118.634 126.506C117.345 127.211 115.925 127.648 114.46 127.789C112.747 127.983 111.019 128.019 109.299 127.897C105.417 127.641 101.516 127.492 97.6212 127.374C96.211 127.33 95.506 126.701 95.4983 125.413C95.4617 119.491 95.4108 113.572 95.3457 107.656C95.2806 101.741 95.2236 95.8131 95.1748 89.874ZM129.99 129.955C129.702 129.958 129.416 129.903 129.151 129.792C128.885 129.681 128.645 129.518 128.444 129.311C128.244 129.105 128.089 128.859 127.987 128.591C127.886 128.322 127.84 128.036 127.854 127.749C127.806 121.733 127.729 115.72 127.622 109.708C127.506 103.694 127.446 97.6791 127.402 91.663C130.021 91.9974 132.64 92.3288 135.271 92.6905C136.71 92.8881 137.415 93.6405 137.423 94.9234C137.459 100.963 137.542 107 137.67 113.034C137.798 119.069 137.88 125.104 137.917 131.14C135.271 130.698 132.638 130.309 129.992 129.955H129.99ZM143.631 104.893C143.541 103.074 143.834 101.256 144.49 99.5563C145.035 98.2441 145.974 97.1321 147.179 96.3735C148.476 95.6008 149.943 95.1552 151.452 95.0754C153.346 94.9613 155.246 95.0803 157.11 95.4296C158.776 95.7013 160.416 96.1168 162.01 96.6714C163.111 97.0429 164.177 97.5104 165.195 98.0683C165.975 98.4399 166.595 99.0794 166.939 99.8695C167.11 100.423 167.199 100.999 167.203 101.578C167.214 102.946 167.246 104.314 167.261 105.682C166.373 105.472 165.583 105.264 164.92 105.074C164.258 104.884 163.547 104.717 162.898 104.571C162.25 104.425 161.618 104.282 160.966 104.135C160.314 103.987 159.612 103.849 158.83 103.704C157.881 103.513 156.917 103.411 155.95 103.4C155.364 103.385 154.782 103.484 154.234 103.692C154.039 103.766 153.861 103.879 153.713 104.026C153.565 104.173 153.45 104.349 153.375 104.543C153.227 104.958 153.158 105.397 153.172 105.837C153.174 106.333 153.247 106.826 153.39 107.301C153.563 107.768 153.841 108.189 154.204 108.532C154.757 109.059 155.361 109.53 156.008 109.938C156.806 110.465 157.877 111.127 159.237 111.96C160.798 112.908 162.299 113.952 163.73 115.086C164.861 115.974 165.865 117.012 166.712 118.172C167.481 119.246 168.052 120.449 168.398 121.723C168.783 123.198 168.983 124.714 168.995 126.238C169.078 128.061 168.852 129.884 168.325 131.631C167.935 132.936 167.116 134.071 165.999 134.855C164.727 135.631 163.259 136.027 161.767 135.995C159.636 135.996 157.512 135.741 155.442 135.235C153.595 134.817 151.878 134.323 150.279 133.813C148.979 133.427 147.723 132.911 146.527 132.273C145.861 131.934 145.29 131.433 144.87 130.817C144.553 130.296 144.384 129.699 144.382 129.09C144.362 127.597 144.353 126.108 144.339 124.615C145.822 125.01 147.292 125.364 148.701 125.687C150.109 126.009 151.568 126.308 153.078 126.626C154.12 126.865 155.181 127.017 156.249 127.082C156.893 127.136 157.542 127.056 158.153 126.846C158.351 126.77 158.529 126.652 158.677 126.502C158.825 126.352 158.94 126.172 159.013 125.974C159.163 125.527 159.232 125.056 159.217 124.585C159.224 124.001 159.121 123.422 158.912 122.876C158.677 122.345 158.33 121.871 157.894 121.485C157.278 120.934 156.612 120.442 155.902 120.017C155.059 119.49 154.027 118.818 152.746 118.062C151.184 117.176 149.687 116.18 148.267 115.08C147.204 114.237 146.282 113.232 145.534 112.102C144.882 111.085 144.4 109.969 144.109 108.798C143.799 107.52 143.638 106.21 143.631 104.895V104.893Z" fill="white"/>
</g>
<defs>
<clipPath id="clip0_1539_7">
<rect width="146" height="95" fill="white" transform="translate(23 41)"/>
</clipPath>
</defs>
</svg>
