<svg xmlns="http://www.w3.org/2000/svg" xmlns:xlink="http://www.w3.org/1999/xlink" width="333.25" height="217.02" viewBox="0 0 333.25 217.02">
  <defs>
    <radialGradient id="radial-gradient" cx="0.506" cy="0.5" r="0.849" gradientTransform="translate(0.334) scale(0.333 1)" gradientUnits="objectBoundingBox">
      <stop offset="0" stop-color="#9bd3ff"/>
      <stop offset="0" stop-color="#c5e6ff"/>
      <stop offset="0.703" stop-color="#9bd3ff"/>
      <stop offset="1" stop-color="#7ba9ce"/>
    </radialGradient>
  </defs>
  <g id="Сгруппировать_684" data-name="Сгруппировать 684" transform="translate(-793.375 -6389.138)">
    <path id="Контур_341" data-name="Контур 341" d="M127.2,69.04a8.126,8.126,0,0,1,3.137-.246c14.183,2.088-2.8-2.981,15.661-4.074-3.97,14.336-11.676,15.6-12.812,29.054,3.137,6.139,8.466,13.495,11.679,20.229,7.654,2.108,6.7.1,15.614,3.259l6.113,2.345c.758.286,1.6.6,2.4.893l-3.721-7.576c-.758-2.059-.98-.593-.252-5.1-9.536,1.761-3.091,3.137-11.5,1.6C151.6,99.115,159.3,95.8,165.226,96.336c9.406.847,1.929-1.648,6.1,3.38,2.77-5.456-.5-2.657,4.282-7.593,15.444-15.918,9.175-16.681,19.72-18.15.841-4.32.231-2.842.4-4.1a8.378,8.378,0,0,1,.506-2.8c5.153.214,6.766,1.489,11.479,2.9-4.971-11.508.312-12.153-11.479-15.048-6.494,5.439-3.88,4.063-7.923,9.238-6.058-1.087-3.609.81-8.03-3.762,15.973-12.827,8.55-5.482,17.39-10.282-4.421-7.243-1.2-2.842-5.011-1.79-10.045,2.767-24.243,3.409-35.176,3.184a3.048,3.048,0,0,1,.648-2.313,184.407,184.407,0,0,1,63.854-12.766c-2.079,11.9-4.219,4.407-3.961,16.548,19.449-9.609,18.506-14.307,26.958-15.461-4.806,6.57-5.069,3.86-5.112,9.883,11.257,1.417,4.985,5.072,7.3-4.6,2.041,2.949,2.033,2.14,2.2,6.572-5.916.746-8.224.708-13.1,3.259-3.322,1.738-3.2,1.856-4.794,3.609l-1.842,2.406c-3.091,5.034-1.507,6.124-3.027,9.218-3.45,7-9.5,2.01-9.1,19.156,4.693,3.435,7.787,5.494,15.8,4.508,9.371-1.151,8.067-3.106,11.945,5.306,4.352,9.447-.191,15.033,7.015,29.65,8.533.39,10.826.321,14.917-5.37,8.77-12.188,1.989-8.906,10.814-11.893-1.018-6.714-3.259-10.242.1-14.267l10.164-8.446c-6.862-7.168-6.934-.836-13.66-9.224,3.831,2.241,7.955,7.026,14.918,2.128,9.172-6.454.645,2.108,3.771-6.784l-11.4-4.436c23.627-3,22.835,1.232,31.272,15.84.593-.437,1.428-1.842,1.715-1.385.867,1.385,4.548-7.813,12.1-10.641.4.315.769.6,1.122.867l1.958-4.384a186.945,186.945,0,0,1,59.754,66.771,177.683,177.683,0,0,0-327.864,0A186.9,186.9,0,0,1,126.309,65.44Z" transform="translate(731.432 6363.017)" fill-rule="evenodd" fill="url(#radial-gradient)"/>
    <path id="Контур_342" data-name="Контур 342" d="M87.315,123.184c.017,6.228.185,11.242.5,14.975a29.911,29.911,0,0,0,1.668,8.438c.786,1.906,1.932,3,3.369,3.3a13.455,13.455,0,0,0,5.572-.448,16.229,16.229,0,0,0,5.6-2.316,9.629,9.629,0,0,0,3.305-4.919,37.32,37.32,0,0,0,1.634-9.158q.425-5.777.4-15.022c-.014-6.1-.234-10.991-.535-14.715a29.448,29.448,0,0,0-1.666-8.487c-.8-1.949-1.868-3.16-3.3-3.629a10.738,10.738,0,0,0-5.6.084,14.557,14.557,0,0,0-5.537,2.435,10.187,10.187,0,0,0-3.337,5.08,39.132,39.132,0,0,0-1.634,9.291c-.28,3.889-.448,8.938-.434,15.094Zm45.195-9.291a136.506,136.506,0,0,1-.567,13.639,71.259,71.259,0,0,1-1.8,10.921c-1.654,6.419-3.909,11.531-6.908,15.4a30.189,30.189,0,0,1-10.838,8.8,73.492,73.492,0,0,1-13.943,4.869A66.135,66.135,0,0,1,84.38,169.9a16.06,16.06,0,0,1-10.771-3.392c-3-2.377-5.309-6.454-6.974-12.208a58.2,58.2,0,0,1-1.9-10.389q-.6-6.081-.6-13.877t.6-14.252A82.324,82.324,0,0,1,66.6,104.178q2.468-10.232,6.937-16.641A28.37,28.37,0,0,1,84.281,78a61.406,61.406,0,0,1,13.975-4.809,47.23,47.23,0,0,1,13.908-1.006A17.005,17.005,0,0,1,122.938,76.9c3,2.871,5.315,7.287,7,13.177a61.128,61.128,0,0,1,1.9,10.378c.413,3.959.633,8.452.665,13.437Zm19.078,42.017c-3.236.4-4.829-.891-4.835-3.889-.026-13.888-.119-27.739-.2-41.612s-.165-27.741-.2-41.615q7.308-2.073,14.712-3.426A109.525,109.525,0,0,1,175.6,63.714c10.438-.5,18.3,1.585,23.514,5.991,5.26,4.444,7.923,11.725,8,21.9a38.726,38.726,0,0,1-.532,6.546,26.62,26.62,0,0,1-1.868,6.5,22.787,22.787,0,0,1-3.736,5.838,21.923,21.923,0,0,1-6.072,4.728,62.139,62.139,0,0,1,5.4,7.671,95.628,95.628,0,0,1,4.869,9.253c1.533,3.3,2.889,6.659,4.135,10.08a97.224,97.224,0,0,1,3.039,9.987q-9.46.017-18.914.4a6.846,6.846,0,0,1-3.771-.743,5.48,5.48,0,0,1-2.235-3.227,120.827,120.827,0,0,0-5.867-14.938,127.894,127.894,0,0,0-6.538-12.315c-2.036.142-4.1.28-6.139.422.066,5.39.035,10.768.066,16.146s.069,10.754.069,16.143c-5.806.486-11.644,1.064-17.448,1.81Zm17.179-50.348c2.3-.153,4.635-.3,6.937-.451a12.3,12.3,0,0,0,3.7-.8,8.586,8.586,0,0,0,3.172-2.148,9.783,9.783,0,0,0,2.1-3.927,21.458,21.458,0,0,0,.734-6.286,26.17,26.17,0,0,0-.7-6.477,7.912,7.912,0,0,0-2-3.675,5.9,5.9,0,0,0-3.267-1.619A20.357,20.357,0,0,0,175,79.962c-.335.017-.8.055-1.368.084s-1.165.084-1.767.165c-.633.084-1.2.142-1.836.226-.6.081-1.067.13-1.431.153.032,4.161.032,8.333.064,12.491s.066,8.322.1,12.483Zm75.712,31.769c2.536.1,5.072.266,7.6.448,3.771.266,6.457-.419,8.038-2.01,1.619-1.625,2.452-4.352,2.4-8.226-.049-4.031-1-6.934-2.834-8.709s-4.869-2.845-9.175-3.146c-2.1-.147-4.2-.26-6.3-.341.13,7.327.2,14.654.263,21.984Zm-.466-36.887q3.4.139,6.8.379c3.305.22,5.67-.263,7.1-1.538s2.085-3.935,2.036-7.978c-.049-3.956-.743-6.7-2.134-8.189-1.411-1.512-3.935-2.406-7.472-2.66-.9-.067-2.036-.1-3.435-.13s-2.438-.023-3.1.023c.066,6.7.1,13.391.2,20.093ZM221.731,65.935a116.734,116.734,0,0,1,14.611-1.573,128.2,128.2,0,0,1,13.142,0A61.368,61.368,0,0,1,262.557,66.6a28.905,28.905,0,0,1,10.008,4.9,22.031,22.031,0,0,1,6.4,8.108A27.891,27.891,0,0,1,281.3,91.143c.069,4.716-.824,8.507-2.666,11.442q-2.737,4.355-9.34,6.995a31.765,31.765,0,0,1,7.37,4.823,21.2,21.2,0,0,1,4.569,5.636,22.532,22.532,0,0,1,2.27,6.09,31.351,31.351,0,0,1,.7,6.121c.046,4.713-.74,8.513-2.27,11.37a16.622,16.622,0,0,1-6.4,6.653,24.837,24.837,0,0,1-9.574,2.955,64.249,64.249,0,0,1-11.838.249c-8.906-.587-17.847-.931-26.784-1.206-3.236-.1-4.852-1.55-4.869-4.517q-.126-20.455-.367-40.892-.252-20.459-.37-40.927Zm79.853,92.315c-3.236-.437-4.881-2.128-4.9-5.08q-.165-20.78-.532-41.546c-.266-13.85-.4-27.7-.5-41.554,6.006.769,12.012,1.533,18.046,2.365,3.3.454,4.919,2.186,4.936,5.141q.126,20.862.567,41.708.425,20.832.567,41.7c-6.069-1.018-12.107-1.914-18.176-2.73Zm31.287-57.712a30.145,30.145,0,0,1,1.969-12.289,15.817,15.817,0,0,1,6.168-7.33,21.293,21.293,0,0,1,9.805-2.99,52.9,52.9,0,0,1,12.977.815,66.826,66.826,0,0,1,11.239,2.86,45.371,45.371,0,0,1,7.3,3.215c2.253,1.342,3.586,2.761,4,4.149a13.808,13.808,0,0,1,.6,3.924c.023,3.166.1,6.312.133,9.467-2.036-.483-3.834-.963-5.37-1.394-1.567-.442-3.134-.824-4.638-1.16-1.466-.327-2.938-.665-4.433-1.006-1.469-.333-3.106-.659-4.9-.992a35.1,35.1,0,0,0-6.6-.708,10.272,10.272,0,0,0-3.935.674,3.39,3.39,0,0,0-1.969,1.96,8.077,8.077,0,0,0-.466,2.978,11.808,11.808,0,0,0,.5,3.372,7.46,7.46,0,0,0,1.865,2.834,26.6,26.6,0,0,0,4.138,3.239c1.83,1.214,4.288,2.738,7.405,4.655a101.11,101.11,0,0,1,10.305,7.2,36.035,36.035,0,0,1,6.839,7.1,25.611,25.611,0,0,1,3.869,8.177,42.748,42.748,0,0,1,1.368,10.4,37.3,37.3,0,0,1-1.535,12.419,13.963,13.963,0,0,1-5.335,7.423,17.865,17.865,0,0,1-9.707,2.626,60.9,60.9,0,0,1-14.51-1.761c-4.236-.963-8.172-2.091-11.841-3.276a46.116,46.116,0,0,1-8.605-3.545,10.184,10.184,0,0,1-3.8-3.354,7.737,7.737,0,0,1-1.1-3.961c-.046-3.438-.067-6.867-.1-10.305,3.4.911,6.772,1.726,10,2.469s6.575,1.431,10.039,2.163a44.627,44.627,0,0,0,7.272,1.064,10.694,10.694,0,0,0,4.369-.544,3.429,3.429,0,0,0,1.969-2.01,9.149,9.149,0,0,0,.468-3.2,10.691,10.691,0,0,0-.7-3.935,9.323,9.323,0,0,0-2.336-3.2,29.918,29.918,0,0,0-4.569-3.38c-1.934-1.214-4.3-2.761-7.238-4.5a86.152,86.152,0,0,1-10.274-6.867,29.562,29.562,0,0,1-6.269-6.856,25.588,25.588,0,0,1-3.27-7.611A39.266,39.266,0,0,1,332.87,100.538Z" transform="translate(735.575 6433.986)" fill="#636363"/>
  </g>
</svg>
