<svg width="225" height="63" viewBox="0 0 225 63" fill="none" xmlns="http://www.w3.org/2000/svg">
<g clip-path="url(#clip0)">
<path d="M161.64 26.6838H157.275V51.9359H161.64V26.6838Z" fill="#174A7C"/>
<path d="M142.063 44.907C141.534 46.2086 140.741 47.1198 139.947 47.6405L133.201 26.6838H128.704L136.905 52.1962H138.624C141.799 52.1962 144.709 50.1136 146.164 46.469C146.693 45.1673 153.968 26.6838 153.968 26.6838H149.339C149.206 26.6838 143.254 42.1735 142.063 44.907Z" fill="#174A7C"/>
<path d="M30.8201 26.4236C27.3809 26.4236 24.6032 27.4649 22.4868 29.4174C20.2381 31.6302 19.0476 35.0145 19.0476 39.31C19.0476 43.7356 20.2381 46.9897 22.4868 49.2025C24.4709 51.155 27.3809 52.1963 30.8201 52.1963C34.2592 52.1963 37.1693 51.155 39.1534 49.2025C41.4021 46.9897 42.5926 43.6054 42.5926 39.31C42.5926 34.8843 41.4021 31.6302 39.1534 29.4174C37.1693 27.4649 34.3915 26.4236 30.8201 26.4236ZM36.1111 46.2087C34.9206 47.3802 33.0688 48.031 30.8201 48.031C28.5714 48.031 26.7196 47.3802 25.5291 46.2087C24.0741 44.7769 23.4127 42.5641 23.4127 39.31C23.4127 36.186 24.0741 33.843 25.5291 32.4112C26.7196 31.2397 28.5714 30.5889 30.8201 30.5889C33.0688 30.5889 34.9206 31.2397 36.1111 32.4112C37.5661 33.843 38.2275 36.0558 38.2275 39.31C38.3598 42.4339 37.5661 44.7769 36.1111 46.2087Z" fill="#174A7C"/>
<path d="M173.016 19.9153H168.651V26.6839H165.741V30.9793H168.651V46.0785C168.651 49.593 171.429 52.3264 175 52.3264H178.175V48.1611H175C173.81 48.1611 172.884 47.25 172.884 46.0785V30.9793H178.175V26.6839H172.884V19.9153H173.016Z" fill="#174A7C"/>
<path d="M93.7829 29.157C93.7829 29.157 93.1215 28.6363 92.9893 28.6363C92.7247 28.376 92.4602 28.2458 92.0633 28.1157C91.402 27.7252 90.8729 27.4649 90.2115 27.2045C87.3014 26.1632 84.1268 26.1632 81.3491 27.3347C80.1586 27.8554 78.9681 28.5062 78.0422 29.4173C75.7935 31.6301 74.603 35.0144 74.603 39.3099C74.603 41.5227 74.8676 43.6054 75.5289 45.2975C76.058 46.8595 76.984 48.1611 78.0422 49.2025C80.0263 51.1549 82.9364 52.1963 86.3755 52.1963C89.5501 52.1963 92.0633 51.6756 93.7829 51.2851C93.6506 53.8884 92.9893 55.8409 91.6665 57.0124C90.476 58.1839 88.6242 58.7045 86.3755 58.7045C83.3332 58.7045 81.2168 58.314 79.894 57.7934C79.3649 57.6632 76.7194 56.4917 76.7194 56.4917L74.603 60.0062L75.6612 60.657C75.6612 60.657 79.3649 62.8698 86.2432 62.8698C89.6824 62.8698 92.5924 61.8285 94.5766 59.876C96.9575 57.6632 98.0157 54.2789 98.0157 49.9835V26.5537H93.6507V29.157H93.7829ZM93.7829 46.7293C92.4602 47.25 89.9469 48.031 86.3755 48.031C84.1268 48.031 82.275 47.3801 81.0845 46.2087C79.6295 44.7768 78.9681 42.564 78.9681 39.3099C78.9681 36.1859 79.7618 33.843 81.0845 32.4111C82.275 31.2397 84.1268 30.5888 86.3755 30.5888C88.6242 30.5888 90.476 31.2397 91.6665 32.4111C93.1215 33.843 93.7829 36.0558 93.7829 39.1797V46.7293Z" fill="#174A7C"/>
<path d="M65.3439 28.1157C64.5503 27.5951 63.7566 27.3347 62.963 27.0744C61.508 26.5537 59.9207 26.4236 58.4656 26.4236C57.0106 26.4236 55.5556 26.8141 54.2328 27.3347C53.1746 27.7252 52.1164 28.3761 51.1905 29.1571V26.6839H46.8254V51.936H51.1905V39.3099C51.1905 36.186 51.9842 33.843 53.4392 32.5414C54.6297 31.3699 56.4815 30.719 58.7302 30.719C60.9789 30.719 62.8307 31.2397 64.0212 32.4112C65.4762 33.843 66.2699 36.186 66.2699 39.3099V51.936H70.5027V39.3099C70.5027 34.8843 69.4445 31.6302 67.0635 29.4174C66.4021 28.8967 65.873 28.5062 65.3439 28.1157Z" fill="#174A7C"/>
<path d="M218.386 4.55578C218.915 7.28925 220.238 14.7087 212.169 20.3058C212.963 13.9277 205.423 9.89256 196.693 4.42562C194.709 3.3843 193.122 1.95248 192.063 0C192.063 0 191.534 0.650826 191.402 0.780992C191.137 1.04132 191.005 1.30165 190.873 1.56198C190.476 2.08264 190.212 2.73347 189.947 3.3843C189.418 4.68595 189.153 6.11777 189.153 7.54959C189.153 9.11157 189.682 10.5434 190.476 11.845C191.534 13.5372 193.122 14.8388 194.709 15.8802C197.222 17.4421 199.868 18.3533 202.645 19.1343C204.1 19.5248 205.423 19.9153 206.746 20.6963C207.936 21.3471 208.862 22.2583 209.788 23.2996C210.185 23.8202 210.582 24.3409 210.846 24.8616C212.698 23.1694 215.211 21.7376 219.312 20.1756C228.968 16.4008 224.735 6.63843 218.386 4.55578Z" fill="#174A7C"/>
<path d="M202.645 29.4174C200.529 27.4649 197.751 26.4236 194.312 26.4236C189.815 26.4236 186.111 27.5951 184.259 28.2459L185.979 32.1509C187.831 31.5 190.873 30.719 194.312 30.719C196.561 30.719 198.413 31.3699 199.603 32.5414C200.397 33.3223 200.926 34.3637 201.323 35.7955C199.603 35.5352 197.222 35.2748 194.312 35.2748C192.196 35.2748 190.079 35.5352 188.095 36.186C187.566 36.4463 186.905 36.7066 186.376 36.967C183.73 38.529 182.275 41.3926 182.54 44.3864C182.672 46.5992 183.465 48.6819 185.317 50.1137C186.905 51.2852 188.889 51.936 190.873 52.0662C193.254 52.3265 195.635 52.3265 197.884 51.5455C199.074 51.155 200.264 50.6343 201.323 49.8533C201.455 49.7232 201.719 49.593 201.852 49.4628V51.936H206.217V39.31C206.217 38.529 206.217 37.8781 206.085 37.0971C205.555 33.843 204.497 31.2397 202.645 29.4174ZM201.719 44.6467C201.719 45.5579 201.19 46.469 200.264 46.7294C198.28 47.6405 196.428 48.031 193.783 48.031C191.667 48.031 189.815 47.6405 188.492 46.8595C187.434 46.0785 186.772 45.0372 186.772 43.6054C186.772 42.1736 187.434 41.1323 188.492 40.4814C189.815 39.7004 191.534 39.31 193.254 39.31C196.561 39.31 198.413 39.4401 201.719 39.8306V44.6467Z" fill="#174A7C"/>
<path d="M114.021 26.4236C110.582 26.4236 107.672 27.4649 105.688 29.4174C103.439 31.6302 102.249 35.0145 102.249 39.31C102.249 43.6054 103.439 46.9897 105.688 49.2025C106.746 50.2438 108.069 50.8947 109.392 51.4153C110.847 51.936 112.566 52.0661 114.154 52.1963C115.873 52.1963 117.593 52.0661 119.312 51.8058C120.9 51.5455 122.487 51.155 123.942 50.5042C124.339 50.374 124.736 50.1137 125.132 49.8533L123.942 46.2087H123.81C120.767 47.3802 117.328 47.7707 114.021 47.7707C113.624 47.7707 113.228 47.7707 112.963 47.7707C111.64 47.6405 110.318 47.25 109.259 46.469C107.937 45.5579 107.408 44.1261 106.878 42.6942C106.746 42.3038 106.614 41.7831 106.614 41.1323H125.794V39.1798C125.794 34.7542 124.603 31.5 122.355 29.2872C120.37 27.4649 117.593 26.4236 114.021 26.4236ZM107.011 35.9257C107.143 35.5352 107.275 35.1447 107.408 34.7542C107.54 34.3637 107.804 33.843 108.069 33.4525C108.333 33.062 108.598 32.6715 108.863 32.4112C110.053 31.2397 111.905 30.5889 114.154 30.5889C116.402 30.5889 118.254 31.2397 119.445 32.4112C120.503 33.4525 121.164 35.0145 121.429 37.0971H106.746C106.746 36.7066 106.878 36.3161 107.011 35.9257Z" fill="#174A7C"/>
<path d="M10.7143 46.0786V4.81616H0V8.98145H6.48148V46.0786C6.48148 49.4629 9.39153 52.3265 12.8307 52.3265H16.0053V48.1612H12.8307C11.7725 48.1612 10.7143 47.25 10.7143 46.0786Z" fill="#174A7C"/>
</g>
<defs>
<clipPath id="clip0">
<rect width="225" height="63" fill="white"/>
</clipPath>
</defs>
</svg>
