<svg width="184" height="20" viewBox="0 0 184 20" fill="none" xmlns="http://www.w3.org/2000/svg">
<path d="M9.30287 19.456C7.71887 19.456 6.35887 19.176 5.22287 18.616C4.08687 18.056 3.15887 17.328 2.43887 16.432C1.73487 15.536 1.21487 14.56 0.878872 13.504C0.542872 12.448 0.374872 11.432 0.374872 10.456V9.928C0.374872 8.84 0.542872 7.768 0.878872 6.712C1.23087 5.656 1.76687 4.696 2.48687 3.832C3.20687 2.968 4.11887 2.28 5.22287 1.768C6.34287 1.24 7.66287 0.975999 9.18287 0.975999C10.7669 0.975999 12.1429 1.264 13.3109 1.84C14.4949 2.4 15.4389 3.2 16.1429 4.24C16.8469 5.264 17.2709 6.464 17.4149 7.84H13.9829C13.8549 7.04 13.5669 6.368 13.1189 5.824C12.6869 5.264 12.1349 4.848 11.4629 4.576C10.7909 4.288 10.0309 4.144 9.18287 4.144C8.31887 4.144 7.55087 4.296 6.87887 4.6C6.20687 4.888 5.64687 5.304 5.19887 5.848C4.75087 6.392 4.40687 7.032 4.16687 7.768C3.94287 8.504 3.83087 9.32 3.83087 10.216C3.83087 11.08 3.94287 11.88 4.16687 12.616C4.40687 13.352 4.75887 14 5.22287 14.56C5.68687 15.104 6.25487 15.528 6.92687 15.832C7.61487 16.136 8.40687 16.288 9.30287 16.288C10.6149 16.288 11.7189 15.968 12.6149 15.328C13.5269 14.672 14.0789 13.76 14.2709 12.592H17.7029C17.5429 13.84 17.1189 14.984 16.4309 16.024C15.7429 17.064 14.7989 17.896 13.5989 18.52C12.3989 19.144 10.9669 19.456 9.30287 19.456ZM31.2107 19.456C29.6267 19.456 28.2507 19.176 27.0827 18.616C25.9307 18.056 24.9707 17.328 24.2027 16.432C23.4507 15.52 22.8827 14.544 22.4987 13.504C22.1307 12.448 21.9467 11.432 21.9467 10.456V9.928C21.9467 8.856 22.1387 7.792 22.5227 6.736C22.9067 5.664 23.4827 4.696 24.2507 3.832C25.0347 2.968 26.0027 2.28 27.1547 1.768C28.3067 1.24 29.6587 0.975999 31.2107 0.975999C32.7467 0.975999 34.0907 1.24 35.2427 1.768C36.3947 2.28 37.3547 2.968 38.1227 3.832C38.9067 4.696 39.4907 5.664 39.8747 6.736C40.2587 7.792 40.4507 8.856 40.4507 9.928V10.456C40.4507 11.432 40.2587 12.448 39.8747 13.504C39.5067 14.544 38.9387 15.52 38.1707 16.432C37.4187 17.328 36.4587 18.056 35.2907 18.616C34.1387 19.176 32.7787 19.456 31.2107 19.456ZM31.2107 16.288C32.1067 16.288 32.9067 16.128 33.6107 15.808C34.3307 15.488 34.9387 15.048 35.4347 14.488C35.9467 13.912 36.3307 13.264 36.5867 12.544C36.8587 11.808 36.9947 11.032 36.9947 10.216C36.9947 9.336 36.8587 8.528 36.5867 7.792C36.3307 7.056 35.9467 6.416 35.4347 5.872C34.9387 5.328 34.3307 4.904 33.6107 4.6C32.8907 4.296 32.0907 4.144 31.2107 4.144C30.3147 4.144 29.5067 4.296 28.7867 4.6C28.0667 4.904 27.4507 5.328 26.9387 5.872C26.4427 6.416 26.0587 7.056 25.7867 7.792C25.5307 8.528 25.4027 9.336 25.4027 10.216C25.4027 11.032 25.5307 11.808 25.7867 12.544C26.0587 13.264 26.4427 13.912 26.9387 14.488C27.4507 15.048 28.0667 15.488 28.7867 15.808C29.5067 16.128 30.3147 16.288 31.2107 16.288ZM46.1444 19V1.48H50.8004L55.1924 11.944H55.6244L59.9924 1.48H64.7204V19H61.3364V4.048L61.7684 4.096L57.0404 15.424H53.5604L48.8084 4.096L49.2644 4.048V19H46.1444ZM71.4428 19V1.48H76.0988L80.4908 11.944H80.9228L85.2908 1.48H90.0188V19H86.6348V4.048L87.0668 4.096L82.3388 15.424H78.8588L74.1068 4.096L74.5628 4.048V19H71.4428ZM103.965 19.456C102.333 19.456 100.957 19.144 99.8372 18.52C98.7172 17.896 97.8612 17.024 97.2692 15.904C96.6932 14.768 96.4052 13.44 96.4052 11.92V1.48H99.8132V12.112C99.8132 12.944 99.9732 13.68 100.293 14.32C100.613 14.944 101.077 15.432 101.685 15.784C102.309 16.12 103.069 16.288 103.965 16.288C104.845 16.288 105.589 16.12 106.197 15.784C106.821 15.432 107.285 14.944 107.589 14.32C107.909 13.696 108.069 12.96 108.069 12.112V1.48H111.477V11.92C111.477 13.44 111.189 14.768 110.613 15.904C110.053 17.024 109.213 17.896 108.093 18.52C106.973 19.144 105.597 19.456 103.965 19.456ZM121.277 19V4H124.685V19H121.277ZM116.213 4.48V1.48H129.749V4.48H116.213ZM134.869 19V1.48H138.205V19H134.869ZM137.725 19V16.12H145.669V19H137.725ZM137.725 11.536V8.656H145.045V11.536H137.725ZM137.725 4.36V1.48H145.477V4.36H137.725Z" fill="white"/>
<path d="M157.418 19L163.394 1.48H168.962L175.106 19H171.602L166.394 3.808L167.618 4.336H164.618L165.866 3.808L160.826 19H157.418ZM161.594 14.344L162.674 11.464H169.778L170.834 14.344H161.594ZM180.468 19V5.968H183.804V19H180.468ZM178.644 8.464V5.968H183.804V8.464H178.644ZM181.692 4.408C181.036 4.408 180.548 4.24 180.228 3.904C179.924 3.552 179.772 3.12 179.772 2.608C179.772 2.064 179.924 1.624 180.228 1.288C180.548 0.951999 181.036 0.783998 181.692 0.783998C182.348 0.783998 182.828 0.951999 183.132 1.288C183.436 1.624 183.588 2.064 183.588 2.608C183.588 3.12 183.436 3.552 183.132 3.904C182.828 4.24 182.348 4.408 181.692 4.408Z" fill="#1EC31C"/>
</svg>
