<svg width="118" height="96" fill="none" xmlns="http://www.w3.org/2000/svg"><path d="M81 11.366V57.4c0 4.327-3.504 7.835-7.827 7.835H41.126a1.94 1.94 0 00-1.716 1.02c-2.98 5.59-8.175 9.02-14.205 10.236-1.702.342-2.993-1.552-2.024-2.994a13.66 13.66 0 002.242-6.066 1.963 1.963 0 00-1.945-2.196H9.827C5.504 65.235 2 61.727 2 57.4V11.367C2 7.039 5.504 3.53 9.827 3.53h63.346C77.496 3.531 81 7.04 81 11.366z" fill="#998DC4"/><path opacity=".726" d="M94.442 83.217h-.56l5.385 8.769-.3.4s0 0 0 0c1.119.84.53 2.631-.866 2.644-8.622.058-16.774-3.73-20.954-11.55l-.14-.263H54.328c-5.145 0-9.333-4.192-9.333-9.345a1.468 1.468 0 112.933 0c0 3.533 2.87 6.407 6.4 6.407h23.593c.57 0 1.089.33 1.33.85 2.642 5.686 7.544 9.197 13.725 10.463l1.19.244-.674-1.012a15.27 15.27 0 01-2.55-9.136 1.47 1.47 0 011.466-1.41h15.758c3.529 0 6.4-2.873 6.4-6.406V49.753c0-3.532-2.871-6.406-6.4-6.406h-25.33v13.297c0 5.153-4.187 9.345-9.333 9.345h-32.51l-.141.264c-4.105 7.68-12.115 11.61-20.953 11.55-1.397-.014-1.986-1.805-.867-2.645h0c2.78-2.086 4.62-5.127 5.021-8.612l.065-.557H9.833C4.688 65.989.5 61.797.5 56.644V10.376C.5 5.223 4.688 1.03 9.833 1.03h63.671c5.146 0 9.334 4.192 9.334 9.345V29.08a1.468 1.468 0 11-2.934 0V10.376c0-3.533-2.87-6.407-6.4-6.407H9.834c-3.53 0-6.4 2.874-6.4 6.407v46.268c0 3.533 2.87 6.407 6.4 6.407H25.59c.787 0 1.434.621 1.466 1.41a15.27 15.27 0 01-2.55 9.136l-.674 1.01 1.19-.243c6.222-1.274 11.1-4.811 13.726-10.464.24-.518.76-.849 1.33-.849h33.425c3.53 0 6.4-2.874 6.4-6.407V41.878c0-.827.684-1.495 1.51-1.466h.34l.861-.001 3.033-.002h22.52c5.145 0 9.333 4.192 9.333 9.344v24.12c0 5.152-4.188 9.344-9.333 9.344H94.442z" stroke="#fff"/></svg>