<svg width="110" height="107" fill="none" xmlns="http://www.w3.org/2000/svg"><path d="M24.277 41.123l17.541 30.384a49386.2 49386.2 0 00-18.317 10.576 8.258 8.258 0 01-11.278-3.023L2.937 62.977A8.258 8.258 0 015.96 51.7l18.317-10.577z" fill="#998DC4"/><g opacity=".726" fill="#fff"><mask id="a"><path fill-rule="evenodd" clip-rule="evenodd" d="M88.95 37.005c7.156-5.844 4.684-17.402-4.256-19.797a11.291 11.291 0 00-6.972.349L70.618 5.252c-2.89-5.007-10.06-5.14-13.139-.258a112.894 112.894 0 01-34.198 34.591A1.835 1.835 0 0022.668 42c.075.137 11.842 20.516 11.92 20.65a1.833 1.833 0 103.175-1.833L26.73 41.703A116.5 116.5 0 0060.58 6.95c1.61-2.555 5.354-2.476 6.861.135L92.88 51.144c1.509 2.614-.3 5.892-3.313 6.01a116.564 116.564 0 00-48.583 12.72c-.065.033-17.22 9.94-18.401 10.621a6.428 6.428 0 01-8.772-2.35L4.525 62.06a6.428 6.428 0 012.35-8.772l11.177-6.452a1.833 1.833 0 00-1.834-3.176L5.042 50.113c-4.817 2.781-6.474 8.963-3.692 13.78l9.286 16.085c2.782 4.818 8.963 6.474 13.78 3.692l.424-.244 11.465 19.859a5.959 5.959 0 008.142 2.182l4.021-2.322a5.957 5.957 0 002.182-8.142l-8.125-14.075a1.833 1.833 0 00-3.176 1.834l8.126 14.074a2.292 2.292 0 01-.84 3.133l-4.021 2.322a2.293 2.293 0 01-3.134-.84L28.015 81.593l14.68-8.475a112.887 112.887 0 0147.015-12.3c5.777-.226 9.232-6.509 6.345-11.508l-7.104-12.305zm-.523-12.663c1.81 3.135 1.16 7.026-1.346 9.425l-7.49-12.974c3.284-.963 6.997.364 8.836 3.55zm17.932-8.15l-4.744 2.738a1.833 1.833 0 11-1.833-3.175l4.743-2.74a1.834 1.834 0 011.834 3.176zm-20.4-10.45l1.156-4.317a1.834 1.834 0 013.542.95L89.5 6.69a1.834 1.834 0 01-3.542-.949zm23.978 30.026c-.22.819-.96 1.36-1.77 1.36-.332 0-.1.037-4.792-1.22a1.833 1.833 0 11.949-3.542l4.316 1.156a1.834 1.834 0 011.297 2.246z"/></mask><path d="M88.95 37.005l-.632-.775-.659.539.426.736.866-.5zm-4.256-19.797l.258-.966-.258.966zm-6.972.349l-.866.5.426.737.796-.303-.356-.934zM70.618 5.252l-.866.5.866-.5zm-13.139-.258l-.846-.533.846.533zM23.281 39.585l.543.84-.543-.84zM22.668 42l-.878.478v.001l.878-.479zm11.92 20.65l-.866.5.866-.5zm2.504.672l.5.866-.5-.866zm.671-2.505l-.866.5.866-.5zM26.73 41.703l-.556-.831-.779.52.469.811.866-.5zM60.58 6.95l.846.533-.846-.533zm6.861.135l.866-.5-.866.5zM92.88 51.144l.866-.5-.866.5zm-3.313 6.01l-.04-1 .04 1zm-48.583 12.72l.453.892.002-.001-.456-.89zM22.582 80.495l-.5-.866.5.866zm-8.772-2.35l.866-.5-.866.5zM4.525 62.06l.866-.5-.866.5zm2.35-8.772l.5.866-.5-.866zm11.177-6.452l.5.866-.5-.866zm.67-2.505l-.865.5.866-.5zm-2.504-.67l.5.865-.5-.866zM5.042 50.112l.5.866-.5-.866zM1.35 63.893l-.867.5.867-.5zm9.286 16.085l.866-.5-.866.5zm13.78 3.692l-.5-.866.5.866zm.424-.244l.866-.5-.5-.866-.866.5.5.866zm11.465 19.859l.866-.5-.866.5zm8.142 2.182l.5.866-.5-.866zm4.021-2.322l-.5-.866.5.866zm2.182-8.142l.866-.5-.866.5zm-8.125-14.075l.866-.5-.866.5zm-3.176 1.834l.866-.5-.866.5zm8.126 14.074l.866-.5-.866.5zm-.84 3.133l-.5-.866.5.866zm-4.021 2.322l.5.866-.5-.866zm-3.134-.84l.866-.5-.866.5zM28.015 81.593l-.5-.866-.866.5.5.866.866-.5zm14.68-8.475l-.455-.891-.023.012-.022.012.5.867zm47.015-12.3l.038.999-.038-1zm6.345-11.508l-.866.5.866-.5zm-7.628-24.968l-.866.5.866-.5zm-1.346 9.425l-.866.5.638 1.104.92-.882-.692-.722zm-7.49-12.974l-.282-.96-1.22.358.636 1.102.866-.5zm26.768-4.602l-.5-.866.5.866zm-4.744 2.74l.5.865-.5-.866zm-2.504-.672l.866-.5-.866.5zm.67-2.504l.501.866-.5-.866zm4.744-2.74l-.499-.865h-.001l.5.866zm2.505.672l-.866.5.866-.5zM87.115 1.425l-.966-.259.966.26zM89.361.13l.259-.966-.26.966zm1.296 2.245l-.966-.259.966.26zM89.5 6.691l.966.259-.966-.259zm-2.245 1.296l-.26.966h.001l.259-.966zm22.682 27.78l.966.26-.966-.26zm-6.562.14l-.259.966.259-.965zm.949-3.541l.258-.966-.258.966zm4.316 1.156l.259-.966-.259.966zM89.583 37.78c7.786-6.36 5.098-18.93-4.63-21.537l-.518 1.932c8.153 2.184 10.407 12.727 3.883 18.056l1.265 1.55zm-4.63-21.537a12.29 12.29 0 00-7.587.38l.712 1.869c2.02-.77 4.224-.889 6.357-.317l.517-1.932zm-6.365.814L71.484 4.752l-1.732 1 7.104 12.305 1.732-1zM71.484 4.752c-3.267-5.66-11.371-5.81-14.85-.291l1.691 1.067c2.677-4.246 8.913-4.13 11.427.224l1.732-1zm-14.85-.291a111.891 111.891 0 01-33.896 34.285l1.087 1.679a113.893 113.893 0 0034.5-34.897L56.633 4.46zM22.737 38.745a2.835 2.835 0 00-.948 3.732l1.756-.956a.835.835 0 01.278-1.096l-1.086-1.68zm-.948 3.733c.083.151 11.862 20.55 11.932 20.672l1.732-1-5.961-10.325a47309.36 47309.36 0 01-5.428-9.404l-.385-.668-.134-.233-1.756.958zM33.722 63.15a2.833 2.833 0 003.87 1.037l-1-1.732a.833.833 0 01-1.138-.305l-1.732 1zm3.87 1.037a2.833 2.833 0 001.037-3.87l-1.732 1a.833.833 0 01-.305 1.138l1 1.732zm1.037-3.87L27.595 41.202l-1.732 1 11.034 19.113 1.732-1zM27.284 42.534A117.502 117.502 0 0061.427 7.483l-1.692-1.067a115.501 115.501 0 01-33.562 34.456l1.111 1.663zM61.427 7.483c1.208-1.916 4.017-1.859 5.15.102l1.731-1c-1.882-3.26-6.56-3.362-8.573-.169l1.692 1.067zm5.15.102l25.437 44.059 1.732-1L68.308 6.585l-1.732 1zm25.437 44.059c1.133 1.963-.226 4.422-2.486 4.51l.077 2c3.766-.148 6.026-4.244 4.14-7.51l-1.731 1zm-2.486 4.51a117.562 117.562 0 00-49 12.83l.91 1.78a115.562 115.562 0 0148.167-12.61l-.078-2zM40.53 68.985c-.096.048-17.296 9.98-18.447 10.645l1 1.732 9.619-5.554 6.045-3.489 2.69-1.552-.907-1.783zM22.083 79.628a5.428 5.428 0 01-7.406-1.984l-1.732 1c2.046 3.545 6.593 4.763 10.138 2.716l-1-1.732zm-7.406-1.984L5.391 61.56l-1.732 1 9.286 16.085 1.732-1zM5.391 61.56a5.428 5.428 0 011.984-7.406l-1-1.732C2.831 54.47 1.612 59.015 3.66 62.56l1.732-1zm1.984-7.406l11.177-6.452-1-1.733-11.177 6.453 1 1.732zm11.177-6.452a2.833 2.833 0 001.037-3.87l-1.732 1a.833.833 0 01-.305 1.137l1 1.733zm1.037-3.87a2.833 2.833 0 00-3.87-1.038l1 1.732a.833.833 0 011.138.305l1.732-1zm-3.87-1.038L4.542 49.247l1 1.732 11.177-6.453-1-1.732zM4.542 49.247c-5.296 3.057-7.116 9.85-4.059 15.146l1.733-1c-2.506-4.339-1.013-9.91 3.326-12.414l-1-1.732zM.484 64.393L9.77 80.478l1.732-1-9.286-16.085-1.732 1zM9.77 80.478c3.058 5.296 9.851 7.116 15.147 4.059l-1-1.733c-4.34 2.505-9.91 1.013-12.415-3.326l-1.732 1zm15.147 4.059l.422-.245-1-1.732-.422.244 1 1.733zm-.944-.61l11.466 19.858 1.732-1-11.465-19.859-1.733 1zm11.466 19.858a6.957 6.957 0 009.508 2.548l-1-1.732a4.958 4.958 0 01-6.776-1.816l-1.732 1zm9.508 2.548l4.021-2.322-1-1.732-4.02 2.322 1 1.732zm4.021-2.322a6.957 6.957 0 002.548-9.508l-1.732 1a4.957 4.957 0 01-1.816 6.776l1 1.732zm2.548-9.508l-8.125-14.075-1.733 1 8.126 14.075 1.732-1zm-8.125-14.075a2.833 2.833 0 00-3.87-1.037l1 1.732a.833.833 0 011.137.305l1.733-1zm-3.87-1.037a2.833 2.833 0 00-1.038 3.87l1.732-1a.833.833 0 01.305-1.138l-1-1.732zm-1.038 3.87l8.126 14.075 1.732-1-8.126-14.074-1.732 1zm8.126 14.075c.358.62.146 1.41-.474 1.767l1 1.732a3.292 3.292 0 001.206-4.5l-1.732 1zm-.474 1.767l-4.021 2.322 1 1.732 4.021-2.322-1-1.732zm-4.021 2.322c-.62.358-1.41.146-1.768-.474l-1.732 1a3.292 3.292 0 004.5 1.206l-1-1.732zm-1.768-.474L28.881 81.093l-1.732 1 11.465 19.858 1.732-1zm-11.83-18.492l14.679-8.475-1-1.733-14.68 8.476 1 1.732zm14.634-8.451a111.89 111.89 0 0146.598-12.191l-.077-1.999A113.888 113.888 0 0042.24 72.227l.91 1.781zm46.598-12.191c6.53-.255 10.435-7.357 7.173-13.007l-1.732 1c2.511 4.349-.495 9.813-5.518 10.008l.077 1.999zm7.173-13.007l-7.104-12.305-1.732 1 7.104 12.305 1.732-1zm-9.36-23.968c1.574 2.726 1.01 6.114-1.171 8.203l1.383 1.444c2.83-2.71 3.566-7.102 1.52-10.647l-1.732 1zm.386 8.425l-7.49-12.974-1.732 1 7.49 12.974 1.732-1zm-8.075-11.515a6.709 6.709 0 017.689 3.09l1.732-1c-2.078-3.6-6.274-5.097-9.984-4.009l.563 1.92zm25.987-6.427l-4.744 2.74 1 1.731 4.744-2.739-1-1.732zm-4.744 2.74a.833.833 0 01-1.138-.306l-1.732 1a2.833 2.833 0 003.87 1.037l-1-1.732zm-1.138-.306a.833.833 0 01.305-1.138l-1-1.732a2.833 2.833 0 00-1.037 3.87l1.732-1zm.305-1.138l4.743-2.74-1-1.731-4.743 2.739 1 1.732zm4.743-2.739a.834.834 0 011.139.305l1.732-1a2.833 2.833 0 00-3.87-1.037l.999 1.732zm1.139.305a.834.834 0 01-.305 1.138l1 1.732a2.834 2.834 0 001.037-3.87l-1.732 1zM86.924 6l1.157-4.317-1.932-.518-1.156 4.317L86.924 6zm1.157-4.317a.834.834 0 011.022-.59l.516-1.931a2.834 2.834 0 00-3.47 2.003l1.932.518zm1.021-.59c.445.12.708.577.59 1.021l1.931.518a2.833 2.833 0 00-2.003-3.47l-.518 1.932zm.59 1.021l-1.158 4.317 1.932.518 1.157-4.317-1.932-.518zm-1.158 4.317a.834.834 0 01-1.021.59l-.517 1.932a2.834 2.834 0 003.47-2.004l-1.932-.518zm-1.02.59A.834.834 0 0186.923 6l-1.932-.518a2.834 2.834 0 002.004 3.47l.517-1.931zm21.457 28.487a.833.833 0 01-.804.618v2a2.834 2.834 0 002.736-2.1l-1.932-.518zm-.804.618h-.067a6.22 6.22 0 01-.443-.106c-.565-.147-1.668-.448-4.024-1.08l-.517 1.932c2.337.627 3.464.935 4.039 1.084.28.072.471.119.621.143.192.032.321.027.391.027v-2zm-4.534-1.185a.834.834 0 01-.589-1.021l-1.932-.518a2.833 2.833 0 002.004 3.47l.517-1.931zm-.589-1.021a.834.834 0 011.021-.59l.517-1.931a2.834 2.834 0 00-3.47 2.003l1.932.518zm1.021-.59l4.317 1.157.517-1.932-4.317-1.156-.517 1.931zm4.317 1.157c.444.12.708.577.589 1.021l1.932.518a2.834 2.834 0 00-2.004-3.47l-.517 1.931z" mask="url(#a)"/></g></svg>