<svg width="87" height="111" fill="none" xmlns="http://www.w3.org/2000/svg"><path d="M22.305 43.178A1.83 1.83 0 0020.687 45v3.522A22.725 22.725 0 0034.639 69.52l-.034.085v1.567c0 5.22-4.183 9.426-9.343 9.487-6.405 0-11.845 3.4-14.801 8.478-.064-.04-5.355-5.37-5.408-5.423a6.04 6.04 0 01-.465-7.98c2.29-2.947 1.625-6.348-.436-8.302a6.042 6.042 0 01-.577-8.122l2.628-3.322a6.043 6.043 0 001.055-5.446l-1.698-5.79c-.87-2.958.63-6.1 3.468-7.268l2.243-.925a6.013 6.013 0 003.712-5.565v-5.91c0-12.673 10.215-22.948 22.816-22.948H48.75c12.6 0 22.815 10.272 22.815 22.949v5.91a6.013 6.013 0 003.713 5.564l2.242.925c2.839 1.168 4.338 4.31 3.468 7.268l-1.697 5.79a6.043 6.043 0 001.054 5.445l2.628 3.323a6.04 6.04 0 01-.577 8.122c-2.107 1.997-2.688 5.404-.436 8.302a6.04 6.04 0 01-.465 7.98c-.053.053-5.344 5.383-5.407 5.422-2.932-5.035-8.35-8.477-14.801-8.477-5.159-.061-9.343-4.265-9.343-9.487v-1.567l-.035-.087a22.72 22.72 0 0013.952-20.996V37.206a1.83 1.83 0 00-1.199-1.724 18.072 18.072 0 01-9.477-7.943c-.63-1.086-2.14-1.213-2.957-.26-7.639 8.904-18.24 14.557-29.924 15.899z" fill="#998DC4"/><g opacity=".726" fill="#fff"><mask id="a"><path fill-rule="evenodd" clip-rule="evenodd" d="M82.963 84.731L78.5 89.194a18.846 18.846 0 011.902 8.28v10.83a1.833 1.833 0 01-3.667 0v-10.83c0-8.024-6.17-14.567-14-15.201l-7.614 26.536a1.833 1.833 0 11-3.525-1.011l7.417-25.85a11.239 11.239 0 01-7.22-5.167 1.833 1.833 0 113.132-1.908 7.609 7.609 0 006.154 3.666 1.81 1.81 0 01.702.02c5.725.09 11.118 2.714 14.736 7.432l3.853-3.852a4.174 4.174 0 00.325-5.537c-2.908-3.68-2.168-8.132.619-10.76 1.566-1.476 1.743-3.951.403-5.635l-2.64-3.318a7.847 7.847 0 01-1.383-7.1l1.706-5.781a4.162 4.162 0 00-2.42-5.043l-2.252-.923a7.812 7.812 0 01-4.868-7.253v-5.9c0-11.627-9.459-21.085-21.085-21.085h-11c-11.626 0-21.085 9.458-21.085 21.084v5.901a7.812 7.812 0 01-4.867 7.253l-2.252.923a4.162 4.162 0 00-2.421 5.043l1.706 5.782a7.847 7.847 0 01-1.384 7.1l-2.639 3.317c-1.34 1.684-1.162 4.158.403 5.635 2.792 2.632 3.523 7.083.619 10.76a4.174 4.174 0 00.325 5.537l3.853 3.852c3.547-4.625 8.985-7.44 15.039-7.44 4.23 0 7.66-3.409 7.66-7.64v-.482a24.521 24.521 0 01-13.749-18.763 1.833 1.833 0 013.633-.5c1.412 10.25 10.293 17.979 20.659 17.979 11.5 0 20.855-9.355 20.855-20.854V36.989a19.952 19.952 0 01-10.467-8.718C44.82 38.542 32.197 44.517 18.825 45.052a1.833 1.833 0 01-.146-3.663c13.203-.528 25.643-6.78 33.909-17.614.863-1.132 2.636-.887 3.161.436a16.327 16.327 0 0010.715 9.684 1.836 1.836 0 011.325 1.624c.011.15.009 12.886.006 12.964-.125 16.156-15.726 27.943-31.435 23.33a11.229 11.229 0 01-4.203 7.92l11.117 8.606 6.538-5.061a1.834 1.834 0 012.245 2.899l-6.95 5.38v13.08a1.833 1.833 0 01-3.667 0v-13.08l-12.8-9.911c-1.989.656-3.742.572-3.567.572-8.432 0-15.257 6.823-15.257 15.256v10.83a1.833 1.833 0 01-3.667 0v-10.83c0-2.918.66-5.733 1.902-8.28L3.587 84.73c-2.612-2.611-3.301-6.994-.454-10.6a4.15 4.15 0 00-.413-5.622c-2.94-2.772-3.273-7.422-.757-10.585l2.64-3.318a4.177 4.177 0 00.736-3.779l-1.706-5.782a7.82 7.82 0 014.547-9.473l2.252-.923a4.158 4.158 0 002.59-3.86v-5.901C13.025 11.241 24.128.138 37.776.138h11c13.648 0 24.752 11.102 24.752 24.75v5.901c0 1.7 1.017 3.215 2.591 3.86l2.252.923a7.819 7.819 0 014.547 9.474l-1.706 5.782a4.177 4.177 0 00.737 3.779l2.639 3.317c2.516 3.163 2.183 7.813-.757 10.585a4.15 4.15 0 00-.413 5.623c2.8 3.544 2.207 7.939-.454 10.6zm-53.507 3.595a1.833 1.833 0 10-3.53.997l5.501 19.479a1.833 1.833 0 103.529-.997l-5.5-19.479z"/></mask><path d="M78.5 89.194l-.707-.707-.504.504.313.641.898-.438zm-15.766-6.921l.081-.997L62 81.21l-.226.787.961.276zm-7.613 26.536l.962.276-.962-.276zm-3.525-1.011l-.96-.276.96.276zm7.417-25.85l.961.275.294-1.024-1.04-.228-.215.977zm-7.22-5.167l.854-.52-.854.52zm.612-2.52l.52.854-.52-.854zm2.52.612l.854-.52-.854.52zm6.154 3.666l-.05.998.108.006.107-.018-.165-.986zm.702.02l-.22.975.102.023.103.002.015-1zm14.736 7.432l-.793.609.694.905.806-.806-.707-.708zm3.853-3.852l-.707-.707.707.707zm.325-5.537l.785-.62-.785.62zm.619-10.76l-.686-.728.686.728zm.403-5.635l-.782.623.782-.623zm-2.64-3.318l-.782.623.783-.623zm-1.383-7.1l-.96-.282.96.283zm1.706-5.781l.96.283-.96-.283zm-2.42-5.043l.379-.925-.38.925zm-2.252-.923l-.38.926.38-.926zm-62.905 0l.379.926-.38-.926zm-2.252.923l-.38-.925.38.925zM7.15 44.008l-.96.283.96-.283zm1.706 5.782l.96-.283-.96.283zm-1.384 7.1l-.782-.623.782.622zm-2.639 3.317l-.783-.623.783.623zm.403 5.635l-.686.727.686-.727zm.619 10.76l-.785-.62.785.62zm.325 5.537l.707-.707-.707.707zm3.853 3.852l-.707.707.806.807.694-.905-.793-.609zm22.7-15.562h1v-.631l-.57-.272-.43.903zm-13.75-18.763l.991-.137-.99.137zm1.566-2.067l.137.991-.137-.99zm2.067 1.566l.99-.136-.99.136zM64.13 36.99h1v-.701l-.66-.239-.34.94zm-10.467-8.718l.863-.505-.707-1.21-.914 1.062.758.653zm-34.838 16.78l-.04-.999.04 1zm-1.905-1.758l1-.04-1 .04zm1.759-1.905l.04.999-.04-1zm33.909-17.614l.795.607-.795-.607zm3.161.436l-.93.369.93-.37zm10.715 9.684l-.274.961.004.001.27-.962zm1.325 1.624l-.997.075.997-.075zm.006 12.964l-1-.032v.024l1 .008zM36.36 71.813l.282-.96-1.183-.347-.096 1.228.997.079zm-4.203 7.92l-.626-.78-.989.794 1.003.777.612-.791zm11.117 8.606l-.612.79.612.475.612-.474-.612-.79zm6.538-5.061l-.612-.791.612.79zm2.572.327l.791-.612-.79.612zm-.327 2.572l-.612-.791.612.79zm-6.95 5.38l-.612-.79-.388.3v.49h1zm-3.667 0h1v-.49l-.387-.3-.613.79zm-12.8-9.911l.612-.79-.42-.326-.506.166.314.95zm-3.567.572v1-2 1zM8.05 89.194l.898.438.313-.641-.504-.504-.707.707zM3.587 84.73l.707-.707-.707.707zm-.454-10.6l.785.62-.785-.62zm-.413-5.62l-.686.728.686-.728zm-.757-10.585l.783.623-.783-.623zm2.64-3.318l-.783-.622.782.622zm.736-3.779l.959-.283-.96.283zm-1.706-5.782l-.96.283.96-.283zm4.547-9.473l-.38-.926.38.926zm2.252-.923l.379.925-.38-.925zm2.59-9.761h-1 1zm63.096 9.762l-.38.925h.001l.379-.925zm2.252.922l.38-.925h-.001l-.38.925zm4.547 9.474l.96.283-.96-.283zm-1.706 5.782l-.959-.284.96.284zm.737 3.779l.782-.623-.782.623zm2.639 3.317l.782-.622-.782.622zM83.83 68.51l.686.728-.686-.728zm-.413 5.623l-.785.62.785-.62zM29.456 88.326l.962-.271-.962.271zm-2.263-1.266l.272.963-.272-.963zm-1.266 2.263l.962-.272-.962.272zm5.5 19.479l-.962.272.962-.272zm2.263 1.266l.271.962-.271-.962zm1.266-2.263l-.963.272.963-.272zm47.3-23.78l-4.463 4.462 1.414 1.414 4.463-4.463-1.414-1.414zm-4.654 5.607a17.846 17.846 0 011.8 7.842h2c0-3.07-.694-6.034-2.003-8.718l-1.797.876zm1.8 7.842v10.83h2v-10.83h-2zm0 10.83c0 .46-.373.833-.834.833v2a2.834 2.834 0 002.834-2.833h-2zm-.834.833a.833.833 0 01-.833-.833h-2a2.834 2.834 0 002.833 2.833v-2zm-.833-.833v-10.83h-2v10.83h2zm0-10.83c0-8.55-6.575-15.522-14.92-16.198l-.161 1.994c7.317.592 13.081 6.706 13.081 14.204h2zM61.773 81.997l-7.613 26.536 1.923.552 7.613-26.536-1.923-.552zm-7.613 26.536a.833.833 0 01-.8.604v2a2.833 2.833 0 002.723-2.052l-1.923-.552zm-.8.604a.834.834 0 01-.802-1.063l-1.923-.552a2.835 2.835 0 002.725 3.615v-2zm-.802-1.063l7.416-25.85-1.922-.552-7.417 25.85 1.923.552zm6.67-27.103a10.24 10.24 0 01-6.58-4.71l-1.709 1.04a12.24 12.24 0 007.86 5.623l.428-1.953zm-6.58-4.71a.833.833 0 01.278-1.146l-1.041-1.708a2.833 2.833 0 00-.946 3.894l1.708-1.04zm.278-1.146a.833.833 0 011.145.279l1.708-1.041a2.833 2.833 0 00-3.894-.945l1.04 1.707zm1.145.278a8.608 8.608 0 006.958 4.144l.1-1.997a6.609 6.609 0 01-5.35-3.187l-1.708 1.04zm7.173 4.132a.822.822 0 01.318.01L62 77.582a2.822 2.822 0 00-1.087-.03l.33 1.972zm.522.034c5.423.085 10.528 2.568 13.958 7.04l1.587-1.216c-3.807-4.964-9.488-7.73-15.514-7.824l-.031 2zm15.458 7.14l3.853-3.853-1.414-1.415-3.853 3.853 1.414 1.414zm3.853-3.853a5.174 5.174 0 00.403-6.864l-1.57 1.24a3.174 3.174 0 01-.247 4.21l1.414 1.414zm.402-6.864c-2.568-3.251-1.91-7.12.521-9.413l-1.372-1.455c-3.144 2.964-3.964 7.998-.718 12.108l1.57-1.24zm.52-9.413c1.945-1.832 2.164-4.894.5-6.985l-1.564 1.246a3.198 3.198 0 01-.307 4.284L82 66.569zm.5-6.985l-2.638-3.317-1.566 1.245 2.64 3.318 1.565-1.245zm-2.638-3.317a6.848 6.848 0 01-1.208-6.194l-1.918-.566a8.848 8.848 0 001.56 8.005l1.566-1.245zm-1.208-6.194l1.706-5.782-1.918-.566-1.706 5.782 1.918.566zm1.706-5.782a5.162 5.162 0 00-3-6.251l-.759 1.85a3.162 3.162 0 011.841 3.835l1.918.566zm-3-6.251l-2.252-.923-.758 1.85 2.251.923.759-1.85zm-2.252-.923a6.812 6.812 0 01-4.247-6.328h-2c0 3.6 2.156 6.813 5.488 8.179l.759-1.85zM70.86 30.79v-5.9h-2v5.9h2zm0-5.9c0-12.18-9.907-22.085-22.085-22.085v2c11.074 0 20.085 9.01 20.085 20.084h2zM48.775 2.803h-11v2h11v-2zm-11 0c-12.178 0-22.085 9.906-22.085 22.084h2c0-11.073 9.011-20.084 20.085-20.084v-2zM15.69 24.888v5.901h2v-5.9h-2zm0 5.901a6.812 6.812 0 01-4.246 6.328l.758 1.85a8.812 8.812 0 005.488-8.178h-2zm-4.246 6.328l-2.253.923.759 1.85 2.252-.922-.758-1.851zm-2.253.923a5.163 5.163 0 00-3 6.25l1.918-.565a3.163 3.163 0 011.84-3.835l-.758-1.85zm-3 6.251l1.706 5.782 1.918-.566-1.706-5.782-1.918.566zm1.706 5.782a6.847 6.847 0 01-1.207 6.194l1.565 1.245a8.847 8.847 0 001.56-8.005l-1.918.566zM6.69 56.267l-2.64 3.317 1.566 1.246 2.639-3.318-1.565-1.245zm-2.64 3.317c-1.662 2.091-1.443 5.153.5 6.985l1.372-1.455a3.199 3.199 0 01-.306-4.284L4.05 59.585zm.5 6.985c2.436 2.296 3.086 6.165.52 9.413l1.57 1.24c3.242-4.105 2.431-9.14-.718-12.108L4.55 66.569zm.52 9.413a5.174 5.174 0 00.403 6.864l1.414-1.415a3.174 3.174 0 01-.247-4.21l-1.57-1.239zm.403 6.864l3.853 3.852 1.414-1.414-3.853-3.853-1.414 1.415zm5.353 3.754c3.364-4.386 8.512-7.048 14.245-7.048v-2c-6.373 0-12.1 2.965-15.832 7.83l1.587 1.218zm14.245-7.048c4.78 0 8.662-3.854 8.662-8.641h-2c0 3.675-2.979 6.64-6.662 6.64v2zm8.662-8.641v-.482h-2v.482h2zm-.57-1.385A23.521 23.521 0 0119.974 51.53l-1.981.273a25.522 25.522 0 0014.31 19.53l.86-1.806zM19.974 51.53a.833.833 0 01.712-.939l-.273-1.981a2.833 2.833 0 00-2.42 3.193l1.981-.273zm.712-.939a.834.834 0 01.94.712l1.98-.273a2.834 2.834 0 00-3.193-2.42l.273 1.981zm.94.712c1.48 10.746 10.785 18.843 21.649 18.843v-2c-9.868 0-18.325-7.362-19.668-17.116l-1.982.273zm21.649 18.843c12.052 0 21.855-9.803 21.855-21.854h-2c0 10.947-8.908 19.854-19.855 19.854v2zM65.13 48.291V36.989h-2v11.302h2zm-.66-12.242a18.952 18.952 0 01-9.944-8.283l-1.727 1.01a20.952 20.952 0 0010.99 9.153l.682-1.88zm-11.565-8.43c-8.658 10.057-21.021 15.91-34.119 16.434l.08 1.998c13.643-.546 26.53-6.643 35.554-17.128l-1.515-1.305zm-34.12 16.434a.833.833 0 01-.865-.8l-1.998.08a2.833 2.833 0 002.944 2.718l-.08-1.998zm-.865-.8a.833.833 0 01.8-.865l-.08-1.999a2.833 2.833 0 00-2.718 2.945l1.998-.08zm.8-.865c13.495-.54 26.214-6.93 34.664-18.006l-1.59-1.213C43.712 33.76 31.55 39.873 18.64 40.389l.08 1.999zm34.664-18.006a.835.835 0 011.437.198l1.859-.738c-.812-2.045-3.551-2.424-4.886-.673l1.59 1.213zm1.437.198a17.326 17.326 0 0011.37 10.276l.547-1.923a15.326 15.326 0 01-10.058-9.091l-1.86.738zm11.374 10.277a.84.84 0 01.598.737l1.994-.15a2.836 2.836 0 00-2.053-2.512l-.54 1.925zm.598.738c-.002-.03 0 .12 0 .524.002.361.002.87.003 1.479a5033.995 5033.995 0 01.002 8.847l-.001 2.006 1.999.064c.002-.06.003-3.295.002-6.487a5040.499 5040.499 0 00-.004-5.915 20.63 20.63 0 00-.007-.67l-1.994.152zm.003 12.88c-.12 15.498-15.087 26.803-30.153 22.378l-.564 1.919c16.352 4.802 32.587-7.467 32.717-24.281l-2-.016zm-31.432 23.26a10.228 10.228 0 01-3.832 7.218l1.252 1.56a12.228 12.228 0 004.574-8.622l-1.994-.157zm-3.818 8.789l11.117 8.606 1.224-1.581-11.117-8.607-1.224 1.582zm12.341 8.606l6.538-5.062-1.224-1.581-6.538 5.062 1.224 1.581zm6.538-5.061a.834.834 0 011.17.148l1.581-1.224a2.834 2.834 0 00-3.975-.506l1.224 1.582zm1.17.148a.833.833 0 01-.15 1.169l1.225 1.582a2.833 2.833 0 00.506-3.975l-1.581 1.224zm-.15 1.17l-6.949 5.38 1.224 1.58 6.95-5.38-1.224-1.58zm-7.337 6.17v13.08h2v-13.08h-2zm0 13.08c0 .46-.373.833-.833.833v2a2.833 2.833 0 002.833-2.833h-2zm-.833.833a.833.833 0 01-.834-.833h-2a2.833 2.833 0 002.834 2.833v-2zm-.834-.833v-13.08h-2v13.08h2zm-.387-13.87L29.25 80.854l-1.225 1.582 12.803 9.91 1.225-1.58zm-13.729-10.07a10.882 10.882 0 01-3.063.524h-.14c-.03 0 .008 0 .06.005.008.002.043.006.088.015a.997.997 0 01.333.138c.09.066.298.298.389.477.065.283-.033.801-.165 1.005-.097.1-.274.228-.345.264a.976.976 0 01-.342.09c-.029.003-.05.003-.054.003h-.014v-2c-.001 0-.043 0-.09.004a.846.846 0 00-.116.016c-.016.003-.114.021-.229.074a1.79 1.79 0 00-.344.265c-.132.203-.23.722-.165 1.005.091.178.298.41.389.476.055.034.15.08.189.096.07.027.127.039.145.043a1.328 1.328 0 00.214.023c.052.002.129.002.225.001a12.88 12.88 0 003.662-.626l-.627-1.899zm-3.253.521c-8.985 0-16.257 7.271-16.257 16.256h2c0-7.88 6.377-14.256 14.257-14.256v-2zM8.815 97.474v10.83h2v-10.83h-2zm0 10.83c0 .46-.373.833-.834.833v2a2.834 2.834 0 002.834-2.833h-2zm-.834.833a.833.833 0 01-.833-.833h-2a2.834 2.834 0 002.833 2.833v-2zm-.833-.833v-10.83h-2v10.83h2zm0-10.83c0-2.766.625-5.43 1.8-7.842l-1.797-.876a19.846 19.846 0 00-2.003 8.718h2zm1.609-8.987l-4.463-4.463-1.414 1.414 4.462 4.463 1.415-1.414zm-4.463-4.463c-2.276-2.275-2.89-6.09-.376-9.273l-1.57-1.24c-3.18 4.028-2.416 8.98.532 11.927l1.414-1.414zm-.376-9.273a5.15 5.15 0 00-.512-6.97l-1.372 1.456a3.15 3.15 0 01.314 4.275l1.57 1.24zm-.512-6.97c-2.562-2.415-2.853-6.478-.66-9.234L1.18 57.302c-2.84 3.57-2.465 8.806.854 11.935l1.372-1.455zm-.66-9.234l2.639-3.318-1.565-1.245-2.64 3.318 1.566 1.245zm2.639-3.318a5.177 5.177 0 00.913-4.685l-1.918.566a3.178 3.178 0 01-.56 2.874l1.565 1.245zm.913-4.685l-1.706-5.782-1.919.566L4.38 51.11l1.918-.566zm-1.706-5.782a6.819 6.819 0 013.967-8.265l-.758-1.85a8.819 8.819 0 00-5.128 10.681l1.919-.566zm3.967-8.265l2.252-.922-.758-1.851-2.252.922.758 1.851zm2.252-.922a5.158 5.158 0 003.212-4.786h-2a3.158 3.158 0 01-1.97 2.935l.758 1.85zm3.212-4.786v-5.901h-2v5.9h2zm0-5.9c0-13.096 10.657-23.752 23.752-23.752v-2c-14.2 0-25.751 11.551-25.752 25.751h2zM37.775 1.136h11v-2h-11v2zm11 0c13.096 0 23.752 10.656 23.752 23.75h2c0-14.199-11.552-25.75-25.752-25.75v2zm23.752 23.75v5.902h2v-5.902h-2zm0 5.902a5.158 5.158 0 003.212 4.786l.758-1.85a3.158 3.158 0 01-1.97-2.936h-2zm3.212 4.786l2.252.922.758-1.85-2.252-.923-.758 1.851zm2.252.922a6.82 6.82 0 013.967 8.266l1.918.566a8.819 8.819 0 00-5.127-10.682l-.758 1.85zm3.967 8.266l-1.706 5.782 1.918.566 1.706-5.782-1.918-.566zm-1.706 5.782a5.177 5.177 0 00.913 4.684l1.565-1.245a3.177 3.177 0 01-.56-2.873l-1.918-.566zm.913 4.684l2.64 3.318 1.564-1.245-2.639-3.318-1.565 1.245zm2.64 3.318c2.192 2.756 1.901 6.819-.661 9.235l1.372 1.455c3.318-3.13 3.693-8.365.853-11.935l-1.565 1.245zm-.661 9.235a5.15 5.15 0 00-.512 6.97l1.57-1.24a3.15 3.15 0 01.314-4.275l-1.372-1.455zm-.512 6.97c2.474 3.13 1.94 6.956-.376 9.272l1.414 1.414c3.005-3.004 3.659-7.968.532-11.926l-1.57 1.24zM30.418 88.055a2.833 2.833 0 00-3.497-1.957l.544 1.924a.833.833 0 011.028.576l1.925-.543zm-3.497-1.957a2.833 2.833 0 00-1.957 3.497l1.925-.544a.833.833 0 01.576-1.028l-.544-1.925zm-1.957 3.496l5.5 19.48 1.925-.544-5.5-19.479-1.925.543zm5.5 19.48a2.833 2.833 0 003.497 1.956l-.543-1.924a.834.834 0 01-1.029-.576l-1.924.544zm3.498 1.956a2.833 2.833 0 001.956-3.496l-1.924.543a.834.834 0 01-.576 1.029l.544 1.924zm1.956-3.496l-5.5-19.48-1.925.544 5.5 19.479 1.925-.543z" mask="url(#a)"/></g></svg>