<svg width="80" height="107" fill="none" xmlns="http://www.w3.org/2000/svg"><path d="M70.908 45.726a3.536 3.536 0 013.52 3.197l3.747 38.723a3.537 3.537 0 01-3.52 3.877h-35.56c-2.09 0-3.724-1.8-3.523-3.877l3.748-38.723a3.54 3.54 0 013.521-3.197h28.067z" fill="#998DC4"/><path opacity=".726" d="M67.136 44.458v-3.96c0-5.657-4.604-10.261-10.262-10.261S46.612 34.84 46.612 40.499v3.96h-3.771a4.786 4.786 0 00-4.783 4.342L34.31 87.523a4.81 4.81 0 004.783 5.269h8.208a1.269 1.269 0 000-2.537h-8.208a2.267 2.267 0 01-2.258-2.487s0 0 0 0m30.301-43.31L37.333 87.816l-.497-.049m30.3-43.309h3.772a4.786 4.786 0 014.783 4.343l.498-.048-.498.048 3.748 38.722a4.81 4.81 0 01-4.784 5.269H58.813v4.48c0 4.599-3.743 8.342-8.343 8.342H8.91c-4.6 0-8.343-3.743-8.343-8.343V8.843C.566 4.243 4.309.5 8.909.5H50.47c4.599 0 8.342 3.743 8.342 8.343V22.99a1.269 1.269 0 01-2.537 0V8.843a5.812 5.812 0 00-5.806-5.806H16.022l.413.743 1.698 3.057.437-.243-.437.243a3.154 3.154 0 002.757 1.622h18.04a1.269 1.269 0 010 2.537H20.89a5.694 5.694 0 01-4.975-2.927s0 0 0 0l-2.652-4.775-.143-.257H8.909a5.812 5.812 0 00-5.806 5.806V97.27a5.812 5.812 0 005.806 5.806h41.56a5.812 5.812 0 005.806-5.806v-5.748c0-.7.569-1.268 1.27-1.268h17.11a2.267 2.267 0 002.258-2.487l-3.748-38.723a2.262 2.262 0 00-2.257-2.05h-3.772v8.555a1.269 1.269 0 01-2.537 0v-8.555h-7.866a1.269 1.269 0 010-2.537h7.866v-3.96c0-4.26-3.465-7.724-7.725-7.724s-7.725 3.465-7.725 7.724V55.55a1.269 1.269 0 01-2.537 0v-8.555h-3.771a2.262 2.262 0 00-2.258 2.05l26.553-4.587zm-30.3 43.31l3.747-38.723-3.747 38.722z" stroke="#fff"/></svg>