<svg width="165" height="54" fill="none" xmlns="http://www.w3.org/2000/svg"><path d="M23.958 33.44H0v13.674h10.04c8.496 0 14.909-5.717 15.332-12.915H49.33V20.523H39.29c-8.496 0-14.909 5.717-15.332 12.916Z" fill="#01060E"/><path d="M39.29 5c-8.496 0-14.908 5.717-15.331 12.916H0V31.59h10.04c8.496 0 14.909-5.717 15.332-12.916H49.33V5H39.29Z" fill="#01060E"/><path d="M75.07 37.016c-1.114 0-2.18-.117-3.197-.352-1.017-.254-1.916-.636-2.698-1.144a6.007 6.007 0 0 1-1.848-1.936c-.45-.782-.675-1.701-.675-2.757v-.352c.02-.118.03-.206.03-.264h3.842c0 .039-.01.117-.03.234v.264c0 .646.186 1.203.558 1.672.372.45.91.802 1.613 1.056.704.235 1.535.352 2.494.352.645 0 1.212-.039 1.701-.117a6.204 6.204 0 0 0 1.29-.323 3.59 3.59 0 0 0 .91-.528c.235-.215.4-.45.499-.704.117-.254.176-.528.176-.82 0-.568-.176-1.037-.528-1.409-.352-.372-.831-.684-1.438-.939a13.626 13.626 0 0 0-2.024-.674c-.743-.215-1.515-.43-2.317-.646a24.668 24.668 0 0 1-2.317-.762 10.57 10.57 0 0 1-2.024-1.115 4.862 4.862 0 0 1-1.408-1.613c-.352-.665-.528-1.457-.528-2.376 0-.939.195-1.76.586-2.464a4.959 4.959 0 0 1 1.702-1.73c.743-.47 1.603-.813 2.581-1.028a13.728 13.728 0 0 1 3.197-.352c1.076 0 2.083.118 3.022.352.958.215 1.799.567 2.522 1.056a5.054 5.054 0 0 1 1.702 1.82c.41.723.616 1.593.616 2.61v.352h-3.784v-.294c0-.567-.176-1.046-.528-1.437-.333-.391-.812-.694-1.438-.91-.606-.214-1.32-.322-2.141-.322-.88 0-1.633.088-2.259.264-.625.157-1.105.401-1.437.733a1.545 1.545 0 0 0-.499 1.174c0 .489.176.9.528 1.232.352.332.822.616 1.408.85.607.235 1.281.45 2.024.646.763.195 1.535.41 2.318.645.802.215 1.574.47 2.317.763a8.055 8.055 0 0 1 2.024 1.114c.606.43 1.085.968 1.437 1.614.352.645.528 1.418.528 2.317 0 1.506-.371 2.718-1.114 3.637-.724.92-1.731 1.584-3.022 1.995-1.27.41-2.728.616-4.37.616Zm11.147-.352V15.456h3.579v12.35l5.544-6.571h4.194l-5.162 5.984 5.456 9.445H95.72l-3.637-6.835-2.288 2.2v4.635h-3.579Zm16.821 5.339c-.724 0-1.31-.059-1.76-.176a16.01 16.01 0 0 1-.763-.176v-2.552h1.643c.411 0 .821-.108 1.232-.323a3.962 3.962 0 0 0 1.115-.88 3.61 3.61 0 0 0 .733-1.232l-6.013-15.43h3.754l2.875 7.393c.137.332.274.753.411 1.261.156.508.313 1.036.469 1.584.156.528.284 1.007.381 1.437h.147l.264-.997c.098-.371.196-.753.293-1.144.118-.391.235-.772.352-1.144.118-.371.215-.694.294-.968l2.346-7.421h3.638l-5.163 14.637a21.183 21.183 0 0 1-.997 2.347 8.679 8.679 0 0 1-1.262 1.965 4.874 4.874 0 0 1-1.701 1.32c-.645.333-1.408.499-2.288.499Zm19.75-4.987c-1.682 0-3.09-.283-4.224-.85-1.134-.587-1.985-1.477-2.552-2.67-.567-1.193-.851-2.708-.851-4.547 0-1.857.284-3.373.851-4.546.567-1.193 1.418-2.073 2.552-2.64 1.134-.587 2.542-.88 4.224-.88 1.701 0 3.109.293 4.224.88 1.134.567 1.985 1.447 2.552 2.64.567 1.173.851 2.689.851 4.546 0 1.839-.284 3.354-.851 4.547-.567 1.193-1.418 2.083-2.552 2.67-1.115.567-2.523.85-4.224.85Zm0-2.933c.939 0 1.692-.176 2.259-.528.586-.372 1.007-.92 1.261-1.643.274-.743.411-1.662.411-2.757v-.41c0-1.096-.137-2.005-.411-2.729-.254-.743-.675-1.29-1.261-1.643-.567-.371-1.32-.557-2.259-.557-.939 0-1.701.186-2.288.557-.567.352-.988.9-1.261 1.643-.255.724-.382 1.633-.382 2.728v.41c0 1.096.127 2.015.382 2.758.273.724.694 1.271 1.261 1.643.587.352 1.349.528 2.288.528Zm10.081 7.656V21.235h2.962l.294 2.053h.205a4.741 4.741 0 0 1 1.995-1.79c.821-.41 1.73-.615 2.728-.615 1.271 0 2.356.283 3.256.85.919.567 1.623 1.447 2.112 2.64.508 1.193.762 2.728.762 4.606 0 1.838-.254 3.354-.762 4.546-.509 1.193-1.213 2.073-2.112 2.64-.88.568-1.897.851-3.051.851a7.507 7.507 0 0 1-1.936-.235 4.913 4.913 0 0 1-1.555-.704 4.778 4.778 0 0 1-1.144-1.202h-.176v6.864h-3.578Zm7.069-7.803c.88 0 1.574-.166 2.083-.499.528-.352.899-.88 1.114-1.584.235-.704.352-1.593.352-2.669v-.41c0-1.096-.117-1.995-.352-2.7-.215-.723-.586-1.25-1.114-1.583-.509-.352-1.203-.528-2.083-.528-.802 0-1.467.185-1.995.557-.508.372-.89.92-1.144 1.643-.234.704-.352 1.574-.352 2.61v.352c0 .763.069 1.448.206 2.054.136.586.342 1.085.616 1.496.293.41.655.723 1.085.938.45.215.978.323 1.584.323Zm15.717 3.08c-1.115 0-2.093-.117-2.934-.352-.841-.254-1.545-.596-2.112-1.027-.567-.43-.997-.928-1.29-1.496a4.45 4.45 0 0 1-.411-1.906v-.264a.771.771 0 0 0 .029-.176h3.52v.234c.02.528.186.959.499 1.291.313.313.724.538 1.232.675a6.177 6.177 0 0 0 1.613.205c.509 0 .988-.049 1.438-.147.469-.117.85-.293 1.144-.528.313-.254.469-.576.469-.968 0-.508-.196-.9-.587-1.173-.391-.274-.909-.499-1.554-.675-.626-.176-1.301-.361-2.024-.557a36.18 36.18 0 0 1-1.936-.587 8.075 8.075 0 0 1-1.76-.82 4.187 4.187 0 0 1-1.262-1.292c-.313-.528-.469-1.183-.469-1.965 0-.763.166-1.427.499-1.995a4.124 4.124 0 0 1 1.378-1.408c.587-.39 1.281-.684 2.083-.88a11.003 11.003 0 0 1 2.611-.293c.919 0 1.75.098 2.493.293.763.196 1.418.48 1.965.851.567.352.998.792 1.291 1.32a3.18 3.18 0 0 1 .469 1.701c0 .137-.009.274-.029.411v.235h-3.491v-.206a1.33 1.33 0 0 0-.352-.938c-.215-.274-.537-.49-.968-.646-.41-.156-.929-.234-1.554-.234-.47 0-.88.039-1.232.117a3.061 3.061 0 0 0-.88.323 1.65 1.65 0 0 0-.499.47 1.037 1.037 0 0 0-.176.586c0 .371.147.665.44.88.293.215.684.4 1.173.557.509.156 1.056.323 1.643.499.704.195 1.428.4 2.171.616.743.195 1.427.45 2.053.762a3.939 3.939 0 0 1 1.555 1.32c.391.567.586 1.32.586 2.26 0 .899-.176 1.671-.528 2.316a3.974 3.974 0 0 1-1.437 1.526c-.606.371-1.33.645-2.171.821-.821.176-1.721.264-2.698.264Z" fill="#01020C"/></svg>