<svg width="59" height="37" viewBox="0 0 59 37" fill="none" xmlns="http://www.w3.org/2000/svg">
<path d="M51.0267 16.2805C52.7545 15.0813 53.8985 13.0866 53.8985 10.8383C53.8985 7.16017 50.8866 4.18542 47.1626 4.18542C43.4387 4.18542 40.4268 7.16017 40.4268 10.8383C40.4268 13.0866 41.5592 15.0813 43.2986 16.2805C41.816 16.7878 40.4618 17.5718 39.3178 18.5865C37.7418 17.2605 35.8856 16.2459 33.8544 15.6463C36.3176 14.1705 37.9753 11.484 37.9753 8.42848C37.9753 3.77033 34.1579 0 29.4416 0C24.7254 0 20.908 3.78186 20.908 8.42848C20.908 11.484 22.554 14.1705 25.0289 15.6463C23.021 16.2459 21.1882 17.249 19.6239 18.5519C18.4798 17.5603 17.149 16.7878 15.6898 16.292C17.4175 15.0929 18.5615 13.0982 18.5615 10.8498C18.5615 7.17171 15.5497 4.19695 11.8257 4.19695C8.1017 4.19695 5.08983 7.17171 5.08983 10.8498C5.08983 13.0982 6.2222 15.0929 7.96161 16.292C3.32707 17.8716 0 22.2184 0 27.3263V28.0873C0 28.1103 0.0233478 28.1334 0.0466957 28.1334H14.3239C14.2422 28.7675 14.1955 29.4247 14.1955 30.082V30.866C14.1955 34.2558 16.9739 37 20.406 37H38.5006C41.9327 37 44.7111 34.2558 44.7111 30.866V30.082C44.7111 29.4247 44.6644 28.7675 44.5827 28.1334H58.9533C58.9767 28.1334 59 28.1103 59 28.0873V27.3263C58.9767 22.2069 55.6613 17.8601 51.0267 16.2805ZM42.2946 10.8267C42.2946 8.17482 44.4776 6.0187 47.1626 6.0187C49.8476 6.0187 52.0307 8.17482 52.0307 10.8267C52.0307 13.4441 49.8943 15.5771 47.256 15.6348C47.221 15.6348 47.1977 15.6348 47.1626 15.6348C47.1276 15.6348 47.1043 15.6348 47.0693 15.6348C44.4193 15.5887 42.2946 13.4556 42.2946 10.8267ZM22.7525 8.42848C22.7525 4.79651 25.741 1.84481 29.4183 1.84481C33.0956 1.84481 36.0841 4.79651 36.0841 8.42848C36.0841 11.9336 33.294 14.8046 29.8035 15.0006C29.6751 15.0006 29.5467 15.0006 29.4183 15.0006C29.2899 15.0006 29.1615 15.0006 29.033 15.0006C25.5425 14.8046 22.7525 11.9336 22.7525 8.42848ZM6.92264 10.8267C6.92264 8.17482 9.10566 6.0187 11.7907 6.0187C14.4757 6.0187 16.6587 8.17482 16.6587 10.8267C16.6587 13.4441 14.5224 15.5771 11.8841 15.6348C11.849 15.6348 11.8257 15.6348 11.7907 15.6348C11.7556 15.6348 11.7323 15.6348 11.6973 15.6348C9.05896 15.5887 6.92264 13.4556 6.92264 10.8267ZM14.6508 26.277H1.89118C2.4165 21.3652 6.61911 17.5142 11.7206 17.4796C11.744 17.4796 11.7673 17.4796 11.7907 17.4796C11.814 17.4796 11.8374 17.4796 11.8607 17.4796C14.2889 17.4911 16.5069 18.3789 18.223 19.8202C16.5419 21.6189 15.2928 23.8327 14.6508 26.277ZM42.8199 30.866C42.8199 33.2297 40.8704 35.1552 38.4772 35.1552H20.3827C17.9895 35.1552 16.04 33.2297 16.04 30.866V30.082C16.04 22.9218 21.8302 17.0645 29.033 16.857C29.1615 16.8685 29.3015 16.8685 29.43 16.8685C29.5584 16.8685 29.6985 16.8685 29.8269 16.857C37.0297 17.0645 42.8199 22.9218 42.8199 30.082V30.866ZM44.2091 26.277C43.5671 23.8442 42.3413 21.665 40.6719 19.8663C42.3997 18.3905 44.6411 17.5027 47.0926 17.4796C47.1159 17.4796 47.1393 17.4796 47.1626 17.4796C47.186 17.4796 47.2093 17.4796 47.2327 17.4796C52.3342 17.5142 56.5368 21.3652 57.0621 26.277H44.2091Z" fill="black"/>
</svg>
