<svg width="57" height="22" viewBox="0 0 57 22" fill="none" xmlns="http://www.w3.org/2000/svg">
<path d="M0.149878 8.09263C0.300951 7.85543 0.546989 7.6976 0.823418 7.66027L15.0735 5.74712C15.5875 5.67919 16.071 6.04552 16.1412 6.56879C16.2115 7.09206 15.8449 7.57418 15.3252 7.64391L13.2998 7.91552V10.3452L18.0498 9.83248V5.07174L16.3094 2.44308C16.1194 2.15611 16.0976 1.78877 16.2514 1.48174C16.4063 1.1737 16.7131 0.972818 17.0551 0.956564L37.0052 4.49807e-05C37.3254 -0.00286953 37.636 0.135906 37.8231 0.399894L42.5732 7.09576C42.5922 7.12255 42.596 7.15506 42.6121 7.18286L55.9493 5.74432C56.219 5.71562 56.4851 5.80272 56.6855 5.98342C56.885 6.16524 57 6.42351 57 6.69512C57 15.1339 47.1979 22 35.1499 22H4.74975C4.33271 22 3.9641 21.7264 3.84153 21.3246L0.0415566 8.88941C-0.0400472 8.62072 -0.00019254 8.32893 0.149878 8.09263ZM11.3998 10.5213V8.17009L7.59987 8.6799V10.9594L11.4056 10.549C11.4055 10.5396 11.3998 10.531 11.3998 10.5213ZM27.604 2.36674L18.8203 2.78766L19.7903 4.25119C19.8939 4.40802 19.95 4.59365 19.95 4.78208V9.62802L28.5038 8.7049L27.604 2.36674ZM36.5778 1.93629L29.5108 2.27493L30.3905 8.47241C30.3915 8.48194 30.3876 8.49158 30.3886 8.50111L40.4644 7.41445L36.5778 1.93629ZM5.4519 20.087H35.1499C43.5461 20.087 50.7376 16.583 53.6768 11.6425L4.55125 17.1389L5.4519 20.087ZM3.98225 15.2784L54.5993 9.61546C54.8007 9.01182 54.9622 8.39776 55.0363 7.76744L3.38932 13.3384L3.98225 15.2784ZM2.82032 11.476L5.69983 11.1652V8.93537L2.18764 9.40696L2.82032 11.476Z" fill="black"/>
</svg>
