<svg width="175" height="12" viewBox="0 0 175 12" fill="none" xmlns="http://www.w3.org/2000/svg">
<path d="M7.4708 9.00905C4.58668 9.00905 3.35354 7.98992 3.35354 5.68161C3.35354 3.3733 4.57649 2.38984 7.4708 2.38984C9.84536 2.38984 11.2212 3.08794 11.4912 4.8765H14.3906C14.1053 1.67646 11.8887 0 7.4708 0C2.5892 0 0.5 2.00767 0.5 5.68161C0.5 9.35555 2.5892 11.3989 7.4708 11.3989C11.8887 11.3989 14.0951 9.70715 14.3906 6.49181H11.4912C11.2008 8.29566 9.83007 9.00905 7.4708 9.00905Z" fill="#4EB948"/>
<path d="M23.1213 0.157959H19.269L13.5518 11.2409H16.6907L17.8779 8.88165H24.5022L25.6895 11.2409H28.8437L23.1213 0.157959ZM18.9378 6.78226L21.2054 2.28283L23.4322 6.76188L18.9378 6.78226Z" fill="#4EB948"/>
<path d="M40.9703 0.157959V8.48929L33.3982 0.157959H29.5459V11.2409H32.3943V2.92997L39.941 11.2409H43.8136V0.157959H40.9703Z" fill="#4EB948"/>
<path d="M56.5215 0.157959V8.48929L48.9494 0.157959H45.0869V11.2409H47.9354V2.92997L55.4922 11.2409H59.3699V0.157959H56.5215Z" fill="#4EB948"/>
<path d="M88.2158 5.22367C88.7636 4.63403 89.0739 3.8627 89.0872 3.05803C89.0872 1.42744 88.3076 0.148438 85.7903 0.148438H76.0322V11.2416H86.1725C88.6897 11.2416 89.7802 9.88107 89.7802 8.01097C89.793 7.44885 89.6546 6.89362 89.3794 6.40329C89.1042 5.91297 88.7023 5.50557 88.2158 5.22367ZM78.8858 2.21726H84.761C85.5356 2.21726 86.2337 2.21726 86.2337 3.35358C86.2337 4.4899 85.5356 4.51029 84.7763 4.51029H78.8858V2.21726ZM85.4744 9.04029H78.8858V6.6963H85.4744C86.2336 6.6963 86.9317 6.6963 86.9317 7.8683C86.9317 9.04029 86.2336 9.04029 85.4744 9.04029Z" fill="#4EB948"/>
<path d="M102.438 2.42041V0.157959H90.7178V11.2409H102.438V8.97847H93.5662V6.7313H102.438V4.66758H93.5662V2.42041H102.438Z" fill="#4EB948"/>
<path d="M103.212 0.157959V2.5478H108.598V11.2409H111.446V2.5478H116.832V0.157959H103.212Z" fill="#010D00"/>
<path d="M130.724 4.22493C130.724 1.75865 128.996 0.148438 126.479 0.148438H117.771V11.2416H120.619V8.28104H125.205L126.994 11.2416H130.352L128.313 7.94983C129.056 7.66208 129.689 7.14699 130.122 6.47806C130.555 5.80914 130.766 5.02057 130.724 4.22493ZM125.689 5.8912H120.593V2.54847H125.689C126.545 2.54847 127.89 2.54847 127.89 4.22493C127.89 5.90139 126.545 5.8912 125.689 5.8912Z" fill="#010D00"/>
<path d="M142.84 0.157959V5.68161C142.84 7.21029 142.412 9.00904 138.723 9.00904C135.034 9.00904 134.606 7.23577 134.606 5.68161V0.157959H131.752V5.68161C131.752 9.54918 133.846 11.3989 138.723 11.3989C143.599 11.3989 145.688 9.53389 145.688 5.68161V0.157959H142.84Z" fill="#010D00"/>
<path d="M153.802 4.58554C150.571 4.39191 149.903 4.23394 149.903 3.37788C149.903 2.52182 150.571 2.28742 153.374 2.28742C156.334 2.28742 157.557 2.58806 157.557 3.8161H160.405C160.405 1.07976 157.858 0.0351562 153.689 0.0351562C149.521 0.0351562 147.065 0.80969 147.065 3.24539C147.065 5.6811 148.981 6.4964 153.812 6.71551C157.379 6.88876 158.041 7.04672 158.041 7.96903C158.041 8.89134 157.139 9.17159 154.143 9.17159C150.535 9.17159 149.582 8.63146 149.582 7.45947H146.744C146.744 10.6595 149.45 11.434 153.995 11.434C158.097 11.434 160.9 10.8328 160.9 7.86712C160.879 5.03396 158.174 4.79446 153.802 4.58554Z" fill="#010D00"/>
<path d="M160.88 0.157959V2.5478H166.266V11.2409H169.12V2.5478H174.5V0.157959H160.88Z" fill="#010D00"/>
<path d="M67.4709 9.80468C67.5276 9.66575 67.5975 9.53264 67.6799 9.40723L67.6493 11.2416H66.4365C66.9121 10.8718 67.2712 10.373 67.4709 9.80468Z" fill="#4EB948"/>
<path d="M66.5904 8.69818C66.9689 8.87148 67.3349 9.07068 67.686 9.29437C67.528 9.2587 67.0337 9.12621 66.8503 9.05487C64.8426 8.22938 62.5037 8.70837 61.2451 9.05487L62.8044 6.02808C63.82 7.22424 65.1227 8.14297 66.5904 8.69818Z" fill="#4EB948"/>
<path d="M66.8514 9.58443C67.1253 9.48761 67.4043 9.40595 67.6871 9.33984C67.5534 9.4319 67.4098 9.50881 67.2591 9.56915C66.438 9.87022 65.7537 10.4585 65.3329 11.2252H60.1201L60.9966 9.51819C62.1584 9.91055 64.5074 10.5781 66.8514 9.58443Z" fill="#4EB948"/>
<path d="M67.3362 7.94928C67.4818 8.33086 67.5993 8.72256 67.6878 9.12127V9.24357C67.5604 9.02446 67.2139 8.43336 67.112 8.18368C66.4664 6.48026 65.3494 4.99569 63.8916 3.90336L65.8126 0.178467H67.0764C66.4955 2.29315 65.9604 5.1416 67.3362 7.94928Z" fill="#4EB948"/>
<path d="M69.0406 11.2413H67.8177L67.7871 9.3916C67.8738 9.52151 67.9472 9.65978 68.0062 9.80435C68.2095 10.3708 68.5679 10.8688 69.0406 11.2413Z" fill="#4EB948"/>
<path d="M68.3742 8.18368C68.1894 8.55258 67.9853 8.91148 67.7627 9.25886V9.11108C67.8435 8.71373 67.9612 8.32478 68.1143 7.94928C69.536 5.40147 68.9704 2.39506 68.3691 0.178467H69.6328L71.564 3.90846C70.1196 5.00497 69.014 6.48683 68.3742 8.18368Z" fill="#4EB948"/>
<path d="M68.8893 8.69852C70.3603 8.15155 71.667 7.23769 72.6855 6.0437L74.2499 9.0654C72.976 8.7189 70.6422 8.2501 68.6447 9.0654C68.4562 9.14184 67.9415 9.27432 67.7988 9.30999C68.1483 9.08215 68.5126 8.87787 68.8893 8.69852Z" fill="#4EB948"/>
<path d="M75.3745 11.2411H70.1515C69.7292 10.4755 69.0455 9.88767 68.2253 9.58498C68.0721 9.52103 67.9254 9.44254 67.7871 9.35059C68.0735 9.41816 68.3558 9.50151 68.633 9.60027C70.977 10.6194 73.3311 9.92639 74.4929 9.54931L75.3745 11.2411Z" fill="#4EB948"/>
</svg>
