<svg width="8" height="16" viewBox="0 0 8 16" fill="none" xmlns="http://www.w3.org/2000/svg">
<path d="M7.69874 0.322457L5.77991 0.319336C3.62416 0.319336 2.23102 1.76826 2.23102 4.01086V5.71289H0.301719C0.135004 5.71289 0 5.84991 0 6.01891V8.48497C0 8.65397 0.135158 8.79082 0.301719 8.79082H2.23102V15.0135C2.23102 15.1825 2.36603 15.3193 2.53274 15.3193H5.04993C5.21665 15.3193 5.35165 15.1823 5.35165 15.0135V8.79082H7.60746C7.77417 8.79082 7.90918 8.65397 7.90918 8.48497L7.9101 6.01891C7.9101 5.93776 7.87824 5.86005 7.82174 5.80262C7.76525 5.7452 7.68828 5.71289 7.60823 5.71289H5.35165V4.27006C5.35165 3.57657 5.51467 3.22452 6.40582 3.22452L7.69844 3.22405C7.865 3.22405 8 3.08704 8 2.91819V0.628315C8 0.459625 7.86515 0.322769 7.69874 0.322457Z" fill="white"/>
</svg>
