<svg width="30" height="30" viewBox="0 0 30 30" fill="none" xmlns="http://www.w3.org/2000/svg">
<g clip-path="url(#clip0_21:48)">
<path d="M29.4669 5.67359C29.0781 5.2141 28.5338 4.93344 27.934 4.88334L6.80769 3.11933C6.20781 3.06923 5.62457 3.25573 5.16502 3.64438C4.70735 4.03151 4.42709 4.57309 4.37541 5.16998L3.95038 9.15762H2.25321C1.0108 9.15762 0 10.1684 0 11.4108V24.6355C0 25.8779 1.0108 26.8887 2.25321 26.8887H23.4531C24.6956 26.8887 25.7064 25.8779 25.7064 24.6355V22.4902L26.4587 22.553C26.5221 22.5583 26.5852 22.5609 26.6478 22.5609C27.8061 22.5609 28.7935 21.6698 28.8916 20.4951L29.992 7.31632C30.0421 6.7165 29.8556 6.13314 29.4669 5.67359ZM2.25321 10.3295H23.4531C24.0494 10.3295 24.5345 10.8146 24.5345 11.4108V12.6159H1.17187V11.4108C1.17187 10.8146 1.65697 10.3295 2.25321 10.3295ZM1.17187 13.7877H24.5345V16.2187H1.17187V13.7877ZM23.4531 25.7169H2.25321C1.65697 25.7169 1.17187 25.2318 1.17187 24.6355V17.3906H24.5345V24.6355C24.5345 25.2318 24.0494 25.7169 23.4531 25.7169ZM28.8242 7.21876L27.7238 20.3976C27.6741 20.9918 27.1502 21.435 26.5562 21.3852L25.7064 21.3143V11.4108C25.7064 10.1684 24.6956 9.15762 23.4531 9.15762H5.12893L5.54137 5.28811C5.54183 5.28365 5.54224 5.27926 5.5426 5.27475C5.59222 4.68055 6.11582 4.23735 6.71019 4.28715L27.8366 6.05117C28.1244 6.07519 28.3857 6.2099 28.5722 6.43045C28.7587 6.65099 28.8482 6.93089 28.8242 7.21876Z" fill="#233944"/>
<path d="M22.0823 19.1327H16.4431C16.1195 19.1327 15.8572 19.395 15.8572 19.7186V23.3977C15.8572 23.7213 16.1195 23.9836 16.4431 23.9836H22.0823C22.4059 23.9836 22.6682 23.7213 22.6682 23.3977V19.7186C22.6682 19.395 22.4059 19.1327 22.0823 19.1327ZM21.4964 22.8117H17.0291V20.3046H21.4964V22.8117Z" fill="#233944"/>
</g>
<defs>
<clipPath id="clip0_21:48">
<rect width="30" height="30" fill="white"/>
</clipPath>
</defs>
</svg>
