<svg width="36" height="21" viewBox="0 0 36 21" fill="none" xmlns="http://www.w3.org/2000/svg">
<mask id="path-1-inside-1_21:68" fill="white">
<path fill-rule="evenodd" clip-rule="evenodd" d="M16.2618 17.8215H20.7885C20.7896 17.8215 20.7907 17.8215 20.7918 17.8215H25.3217C25.6667 19.5147 27.1675 20.7918 28.96 20.7918C30.7524 20.7918 32.2532 19.5147 32.5982 17.8215H33.7867C34.1446 17.8215 34.4505 17.5676 34.5159 17.2156L35.6431 11.1385C35.6431 7.45387 32.6446 4.45539 28.96 4.45539H24.4227L25.2294 0.905928C25.2799 0.686129 25.2265 0.454449 25.0854 0.279204C24.9443 0.102474 24.7304 0 24.5047 0H6.68316C6.27327 0 5.9406 0.332669 5.9406 0.742564C5.9406 1.15246 6.27327 1.48513 6.68316 1.48513H23.5735L22.7688 5.02695C22.7682 5.02949 22.7676 5.03204 22.767 5.03459L20.1987 16.3364H16.2618C15.9168 14.6433 14.416 13.3662 12.6236 13.3662C10.8311 13.3662 9.33034 14.6433 8.98535 16.3365H6.68316C6.27327 16.3365 5.9406 16.6691 5.9406 17.079C5.9406 17.4889 6.27327 17.8216 6.68316 17.8216H8.98537C9.33039 19.5147 10.8312 20.7918 12.6236 20.7918C14.4161 20.7918 15.9168 19.5147 16.2618 17.8215ZM21.7225 16.3364L24.0852 5.94052H28.96C31.8263 5.94052 34.158 8.27217 34.1713 11.0018L33.1704 16.3364H32.5982C32.2532 14.6433 30.7524 13.3662 28.96 13.3662C27.1675 13.3662 25.6667 14.6433 25.3217 16.3364H21.7225ZM9.65326 4.45543H3.71275C3.30285 4.45543 2.97018 4.12276 2.97018 3.71287C2.97018 3.30297 3.30285 2.9703 3.71275 2.9703H9.65326C10.0632 2.9703 10.3958 3.30297 10.3958 3.71287C10.3958 4.12276 10.0632 4.45543 9.65326 4.45543ZM28.96 19.3067C27.7347 19.3067 26.7371 18.312 26.7323 17.0878L26.7323 17.079L26.7323 17.0702C26.7371 15.846 27.7347 14.8513 28.96 14.8513C30.1882 14.8513 31.1876 15.8508 31.1876 17.079C31.1876 18.3072 30.1882 19.3067 28.96 19.3067ZM10.3959 17.0879C10.4008 18.312 11.3984 19.3067 12.6236 19.3067C13.8518 19.3067 14.8513 18.3072 14.8513 17.079C14.8513 15.8508 13.8518 14.8513 12.6236 14.8513C11.3984 14.8513 10.4007 15.846 10.3959 17.0701L10.396 17.079L10.3959 17.0879ZM2.22777 8.91081H9.65341C10.0633 8.91081 10.396 8.57815 10.396 8.16825C10.396 7.75836 10.0633 7.42569 9.65341 7.42569H2.22777C1.81788 7.42569 1.48521 7.75836 1.48521 8.16825C1.48521 8.57815 1.81788 8.91081 2.22777 8.91081ZM9.65333 13.3662H0.742564C0.332669 13.3662 0 13.0335 0 12.6236C0 12.2137 0.332669 11.8811 0.742564 11.8811H9.65333C10.0632 11.8811 10.3959 12.2137 10.3959 12.6236C10.3959 13.0335 10.0632 13.3662 9.65333 13.3662Z"/>
</mask>
<path fill-rule="evenodd" clip-rule="evenodd" d="M16.2618 17.8215H20.7885C20.7896 17.8215 20.7907 17.8215 20.7918 17.8215H25.3217C25.6667 19.5147 27.1675 20.7918 28.96 20.7918C30.7524 20.7918 32.2532 19.5147 32.5982 17.8215H33.7867C34.1446 17.8215 34.4505 17.5676 34.5159 17.2156L35.6431 11.1385C35.6431 7.45387 32.6446 4.45539 28.96 4.45539H24.4227L25.2294 0.905928C25.2799 0.686129 25.2265 0.454449 25.0854 0.279204C24.9443 0.102474 24.7304 0 24.5047 0H6.68316C6.27327 0 5.9406 0.332669 5.9406 0.742564C5.9406 1.15246 6.27327 1.48513 6.68316 1.48513H23.5735L22.7688 5.02695C22.7682 5.02949 22.7676 5.03204 22.767 5.03459L20.1987 16.3364H16.2618C15.9168 14.6433 14.416 13.3662 12.6236 13.3662C10.8311 13.3662 9.33034 14.6433 8.98535 16.3365H6.68316C6.27327 16.3365 5.9406 16.6691 5.9406 17.079C5.9406 17.4889 6.27327 17.8216 6.68316 17.8216H8.98537C9.33039 19.5147 10.8312 20.7918 12.6236 20.7918C14.4161 20.7918 15.9168 19.5147 16.2618 17.8215ZM21.7225 16.3364L24.0852 5.94052H28.96C31.8263 5.94052 34.158 8.27217 34.1713 11.0018L33.1704 16.3364H32.5982C32.2532 14.6433 30.7524 13.3662 28.96 13.3662C27.1675 13.3662 25.6667 14.6433 25.3217 16.3364H21.7225ZM9.65326 4.45543H3.71275C3.30285 4.45543 2.97018 4.12276 2.97018 3.71287C2.97018 3.30297 3.30285 2.9703 3.71275 2.9703H9.65326C10.0632 2.9703 10.3958 3.30297 10.3958 3.71287C10.3958 4.12276 10.0632 4.45543 9.65326 4.45543ZM28.96 19.3067C27.7347 19.3067 26.7371 18.312 26.7323 17.0878L26.7323 17.079L26.7323 17.0702C26.7371 15.846 27.7347 14.8513 28.96 14.8513C30.1882 14.8513 31.1876 15.8508 31.1876 17.079C31.1876 18.3072 30.1882 19.3067 28.96 19.3067ZM10.3959 17.0879C10.4008 18.312 11.3984 19.3067 12.6236 19.3067C13.8518 19.3067 14.8513 18.3072 14.8513 17.079C14.8513 15.8508 13.8518 14.8513 12.6236 14.8513C11.3984 14.8513 10.4007 15.846 10.3959 17.0701L10.396 17.079L10.3959 17.0879ZM2.22777 8.91081H9.65341C10.0633 8.91081 10.396 8.57815 10.396 8.16825C10.396 7.75836 10.0633 7.42569 9.65341 7.42569H2.22777C1.81788 7.42569 1.48521 7.75836 1.48521 8.16825C1.48521 8.57815 1.81788 8.91081 2.22777 8.91081ZM9.65333 13.3662H0.742564C0.332669 13.3662 0 13.0335 0 12.6236C0 12.2137 0.332669 11.8811 0.742564 11.8811H9.65333C10.0632 11.8811 10.3959 12.2137 10.3959 12.6236C10.3959 13.0335 10.0632 13.3662 9.65333 13.3662Z" fill="#233944"/>
<path d="M20.7885 17.8215L20.789 17.7215H20.7885V17.8215ZM16.2618 17.8215V17.7215H16.1802L16.1639 17.8016L16.2618 17.8215ZM25.3217 17.8215L25.4197 17.8016L25.4034 17.7215H25.3217V17.8215ZM32.5982 17.8215V17.7215H32.5165L32.5002 17.8016L32.5982 17.8215ZM34.5159 17.2156L34.6142 17.2339L34.6142 17.2338L34.5159 17.2156ZM35.6431 11.1385L35.7414 11.1567L35.7431 11.1477V11.1385H35.6431ZM24.4227 4.45539L24.3252 4.43323L24.2975 4.55539H24.4227V4.45539ZM25.2294 0.905928L25.132 0.883538L25.1319 0.883766L25.2294 0.905928ZM25.0854 0.279204L25.0072 0.341594L25.0075 0.341915L25.0854 0.279204ZM23.5735 1.48513L23.671 1.50728L23.6988 1.38513H23.5735V1.48513ZM22.7688 5.02695L22.8661 5.0501L22.8663 5.04911L22.7688 5.02695ZM22.767 5.03459L22.8646 5.05675L22.8646 5.05674L22.767 5.03459ZM20.1987 16.3364V16.4364H20.2785L20.2962 16.3586L20.1987 16.3364ZM16.2618 16.3364L16.1639 16.3564L16.1802 16.4364H16.2618V16.3364ZM8.98535 16.3365V16.4365H9.06703L9.08334 16.3564L8.98535 16.3365ZM8.98537 17.8216L9.08336 17.8016L9.06705 17.7216H8.98537V17.8216ZM24.0852 5.94052V5.84052H24.0054L23.9877 5.91836L24.0852 5.94052ZM21.7225 16.3364L21.625 16.3143L21.5972 16.4364H21.7225V16.3364ZM34.1713 11.0018L34.2696 11.0203L34.2714 11.0109L34.2713 11.0013L34.1713 11.0018ZM33.1704 16.3364V16.4364H33.2533L33.2686 16.3549L33.1704 16.3364ZM32.5982 16.3364L32.5002 16.3564L32.5165 16.4364H32.5982V16.3364ZM25.3217 16.3364V16.4364H25.4034L25.4197 16.3564L25.3217 16.3364ZM26.7323 17.0878L26.6323 17.0872L26.6323 17.0882L26.7323 17.0878ZM26.7323 17.079L26.8323 17.0796L26.8323 17.0784L26.7323 17.079ZM26.7323 17.0702L26.6323 17.0698L26.6323 17.0707L26.7323 17.0702ZM10.3959 17.0879L10.2959 17.0873L10.2959 17.0883L10.3959 17.0879ZM10.3959 17.0701L10.2959 17.0697L10.2959 17.0707L10.3959 17.0701ZM10.396 17.079L10.496 17.0796L10.496 17.0784L10.396 17.079ZM20.7885 17.7215H16.2618V17.9215H20.7885V17.7215ZM20.7879 17.9215C20.7893 17.9215 20.7906 17.9215 20.7918 17.9215V17.7215C20.7908 17.7215 20.7899 17.7215 20.789 17.7215L20.7879 17.9215ZM20.7918 17.9215H25.3217V17.7215H20.7918V17.9215ZM25.2237 17.8415C25.578 19.5802 27.119 20.8918 28.96 20.8918V20.6918C27.216 20.6918 25.7554 19.4491 25.4197 17.8016L25.2237 17.8415ZM28.96 20.8918C30.8009 20.8918 32.3419 19.5802 32.6962 17.8415L32.5002 17.8016C32.1645 19.4491 30.7039 20.6918 28.96 20.6918V20.8918ZM32.5982 17.9215H33.7867V17.7215H32.5982V17.9215ZM33.7867 17.9215C34.1927 17.9215 34.5401 17.6333 34.6142 17.2339L34.4176 17.1974C34.361 17.5019 34.0965 17.7215 33.7867 17.7215V17.9215ZM34.6142 17.2338L35.7414 11.1567L35.5448 11.1202L34.4176 17.1974L34.6142 17.2338ZM35.7431 11.1385C35.7431 7.39864 32.6999 4.35539 28.96 4.35539V4.55539C32.5894 4.55539 35.5431 7.50909 35.5431 11.1385H35.7431ZM28.96 4.35539H24.4227V4.55539H28.96V4.35539ZM25.1319 0.883766L24.3252 4.43323L24.5203 4.47755L25.327 0.92809L25.1319 0.883766ZM25.0075 0.341915C25.1294 0.493308 25.1756 0.693629 25.132 0.883538L25.3269 0.928318C25.3843 0.67863 25.3236 0.415591 25.1633 0.216493L25.0075 0.341915ZM24.5047 0.1C24.7001 0.1 24.8852 0.188715 25.0072 0.341594L25.1635 0.216815C25.0034 0.0162328 24.7607 -0.1 24.5047 -0.1V0.1ZM6.68316 0.1H24.5047V-0.1H6.68316V0.1ZM6.0406 0.742564C6.0406 0.387897 6.3285 0.1 6.68316 0.1V-0.1C6.21804 -0.1 5.8406 0.27744 5.8406 0.742564H6.0406ZM6.68316 1.38513C6.3285 1.38513 6.0406 1.09723 6.0406 0.742564H5.8406C5.8406 1.20769 6.21804 1.58513 6.68316 1.58513V1.38513ZM23.5735 1.38513H6.68316V1.58513H23.5735V1.38513ZM22.8663 5.04911L23.671 1.50728L23.476 1.46297L22.6713 5.0048L22.8663 5.04911ZM22.6715 5.0038C22.6708 5.0067 22.6702 5.00958 22.6695 5.01244L22.8646 5.05674C22.8651 5.0545 22.8656 5.05228 22.8661 5.0501L22.6715 5.0038ZM22.6695 5.01243L20.1012 16.3142L20.2962 16.3586L22.8646 5.05675L22.6695 5.01243ZM16.2618 16.4364H20.1987V16.2364H16.2618V16.4364ZM12.6236 13.4662C14.3675 13.4662 15.8281 14.7089 16.1639 16.3564L16.3598 16.3164C16.0055 14.5777 14.4646 13.2662 12.6236 13.2662V13.4662ZM9.08334 16.3564C9.41903 14.7089 10.8797 13.4662 12.6236 13.4662V13.2662C10.7826 13.2662 9.24164 14.5778 8.88737 16.3165L9.08334 16.3564ZM6.68316 16.4365H8.98535V16.2365H6.68316V16.4365ZM6.0406 17.079C6.0406 16.7244 6.3285 16.4365 6.68316 16.4365V16.2365C6.21804 16.2365 5.8406 16.6139 5.8406 17.079H6.0406ZM6.68316 17.7216C6.3285 17.7216 6.0406 17.4337 6.0406 17.079H5.8406C5.8406 17.5442 6.21804 17.9216 6.68316 17.9216V17.7216ZM8.98537 17.7216H6.68316V17.9216H8.98537V17.7216ZM12.6236 20.6918C10.8797 20.6918 9.41909 19.4491 9.08336 17.8016L8.88739 17.8416C9.2417 19.5803 10.7826 20.8918 12.6236 20.8918V20.6918ZM16.1639 17.8016C15.8282 19.4491 14.3675 20.6918 12.6236 20.6918V20.8918C14.4646 20.8918 16.0055 19.5802 16.3598 17.8415L16.1639 17.8016ZM23.9877 5.91836L21.625 16.3143L21.82 16.3586L24.1827 5.96268L23.9877 5.91836ZM24.0852 6.04052H28.96V5.84052H24.0852V6.04052ZM28.96 6.04052C31.7727 6.04052 34.0583 8.32912 34.0713 11.0023L34.2713 11.0013C34.2577 8.21522 31.8799 5.84052 28.96 5.84052V6.04052ZM34.0731 10.9834L33.0721 16.318L33.2686 16.3549L34.2696 11.0203L34.0731 10.9834ZM33.1704 16.2364H32.5982V16.4364H33.1704V16.2364ZM32.6962 16.3165C32.3419 14.5777 30.8009 13.2662 28.96 13.2662V13.4662C30.7039 13.4662 32.1645 14.7089 32.5002 16.3564L32.6962 16.3165ZM28.96 13.2662C27.119 13.2662 25.578 14.5777 25.2237 16.3165L25.4197 16.3564C25.7554 14.7089 27.216 13.4662 28.96 13.4662V13.2662ZM25.3217 16.2364H21.7225V16.4364H25.3217V16.2364ZM3.71275 4.55543H9.65326V4.35543H3.71275V4.55543ZM2.87018 3.71287C2.87018 4.17799 3.24762 4.55543 3.71275 4.55543V4.35543C3.35808 4.35543 3.07018 4.06753 3.07018 3.71287H2.87018ZM3.71275 2.8703C3.24762 2.8703 2.87018 3.24774 2.87018 3.71287H3.07018C3.07018 3.3582 3.35808 3.0703 3.71275 3.0703V2.8703ZM9.65326 2.8703H3.71275V3.0703H9.65326V2.8703ZM10.4958 3.71287C10.4958 3.24774 10.1184 2.8703 9.65326 2.8703V3.0703C10.0079 3.0703 10.2958 3.3582 10.2958 3.71287H10.4958ZM9.65326 4.55543C10.1184 4.55543 10.4958 4.17799 10.4958 3.71287H10.2958C10.2958 4.06753 10.0079 4.35543 9.65326 4.35543V4.55543ZM26.6323 17.0882C26.6373 18.3674 27.6796 19.4067 28.96 19.4067V19.2067C27.7898 19.2067 26.8368 18.2565 26.8323 17.0874L26.6323 17.0882ZM26.6323 17.0784L26.6323 17.0872L26.8323 17.0884L26.8323 17.0796L26.6323 17.0784ZM26.6323 17.0707L26.6323 17.0796L26.8323 17.0784L26.8323 17.0696L26.6323 17.0707ZM28.96 14.7513C27.6796 14.7513 26.6373 15.7906 26.6323 17.0698L26.8323 17.0705C26.8368 15.9014 27.7898 14.9513 28.96 14.9513V14.7513ZM31.2876 17.079C31.2876 15.7956 30.2434 14.7513 28.96 14.7513V14.9513C30.1329 14.9513 31.0876 15.906 31.0876 17.079H31.2876ZM28.96 19.4067C30.2434 19.4067 31.2876 18.3624 31.2876 17.079H31.0876C31.0876 18.252 30.1329 19.2067 28.96 19.2067V19.4067ZM12.6236 19.2067C11.4535 19.2067 10.5005 18.2566 10.4959 17.0875L10.2959 17.0883C10.301 18.3675 11.3433 19.4067 12.6236 19.4067V19.2067ZM14.7513 17.079C14.7513 18.252 13.7966 19.2067 12.6236 19.2067V19.4067C13.907 19.4067 14.9513 18.3624 14.9513 17.079H14.7513ZM12.6236 14.9513C13.7966 14.9513 14.7513 15.906 14.7513 17.079H14.9513C14.9513 15.7956 13.907 14.7513 12.6236 14.7513V14.9513ZM10.4959 17.0705C10.5005 15.9014 11.4535 14.9513 12.6236 14.9513V14.7513C11.3433 14.7513 10.3009 15.7906 10.2959 17.0697L10.4959 17.0705ZM10.496 17.0784L10.4959 17.0696L10.2959 17.0707L10.296 17.0796L10.496 17.0784ZM10.4959 17.0885L10.496 17.0796L10.296 17.0785L10.2959 17.0873L10.4959 17.0885ZM9.65341 8.81081H2.22777V9.01081H9.65341V8.81081ZM10.296 8.16825C10.296 8.52292 10.0081 8.81081 9.65341 8.81081V9.01081C10.1185 9.01081 10.496 8.63337 10.496 8.16825H10.296ZM9.65341 7.52569C10.0081 7.52569 10.296 7.81359 10.296 8.16825H10.496C10.496 7.70313 10.1185 7.32569 9.65341 7.32569V7.52569ZM2.22777 7.52569H9.65341V7.32569H2.22777V7.52569ZM1.58521 8.16825C1.58521 7.81359 1.8731 7.52569 2.22777 7.52569V7.32569C1.76265 7.32569 1.38521 7.70313 1.38521 8.16825H1.58521ZM2.22777 8.81081C1.8731 8.81081 1.58521 8.52292 1.58521 8.16825H1.38521C1.38521 8.63337 1.76265 9.01081 2.22777 9.01081V8.81081ZM0.742564 13.4662H9.65333V13.2662H0.742564V13.4662ZM-0.1 12.6236C-0.1 13.0888 0.277441 13.4662 0.742564 13.4662V13.2662C0.387897 13.2662 0.1 12.9783 0.1 12.6236H-0.1ZM0.742564 11.7811C0.277441 11.7811 -0.1 12.1585 -0.1 12.6236H0.1C0.1 12.269 0.387897 11.9811 0.742564 11.9811V11.7811ZM9.65333 11.7811H0.742564V11.9811H9.65333V11.7811ZM10.4959 12.6236C10.4959 12.1585 10.1185 11.7811 9.65333 11.7811V11.9811C10.008 11.9811 10.2959 12.269 10.2959 12.6236H10.4959ZM9.65333 13.4662C10.1185 13.4662 10.4959 13.0888 10.4959 12.6236H10.2959C10.2959 12.9783 10.008 13.2662 9.65333 13.2662V13.4662Z" fill="white" mask="url(#path-1-inside-1_21:68)"/>
</svg>
