<svg width="1408" height="1642" viewBox="0 0 1408 1642" fill="none" xmlns="http://www.w3.org/2000/svg">
<path d="M88.2023 571.497V984.375H0.90918V571.497H88.2023ZM137.314 571.497H244.969L358.672 848.9H363.51L477.213 571.497H584.868V984.375H500.195V715.641H496.768L389.92 982.359H332.262L225.413 714.633H221.987V984.375H137.314V571.497ZM1013.5 777.936C1013.5 822.96 1004.96 861.264 987.889 892.849C970.956 924.433 947.838 948.557 918.539 965.223C889.374 981.754 856.581 990.02 820.158 990.02C783.466 990.02 750.538 981.687 721.373 965.021C692.209 948.356 669.159 924.231 652.225 892.647C635.29 861.063 626.823 822.826 626.823 777.936C626.823 732.912 635.29 694.607 652.225 663.024C669.159 631.439 692.209 607.382 721.373 590.851C750.538 574.185 783.466 565.852 820.158 565.852C856.581 565.852 889.374 574.185 918.539 590.851C947.838 607.382 970.956 631.439 987.889 663.024C1004.96 694.607 1013.5 732.912 1013.5 777.936ZM924.99 777.936C924.99 748.771 920.622 724.176 911.886 704.15C903.285 684.125 891.122 668.937 875.396 658.588C859.671 648.24 841.258 643.065 820.158 643.065C799.057 643.065 780.644 648.24 764.919 658.588C749.195 668.937 736.964 684.125 728.228 704.15C719.626 724.176 715.325 748.771 715.325 777.936C715.325 807.101 719.626 831.697 728.228 851.722C736.964 871.748 749.195 886.934 764.919 897.284C780.644 907.633 799.057 912.807 820.158 912.807C841.258 912.807 859.671 907.633 875.396 897.284C891.122 886.934 903.285 871.748 911.886 851.722C920.622 831.697 924.99 807.101 924.99 777.936ZM1400.79 571.497V984.375H1325.39L1145.76 724.511H1142.74V984.375H1055.45V571.497H1132.05L1310.27 831.159H1313.9V571.497H1400.79Z" fill="#4027DB"/>
<path d="M107.613 1129.75V1634.44H0.90918V1129.75H107.613ZM254.634 1634.44H140.292L314.516 1129.75H452.023L626.001 1634.44H511.659L385.241 1245.08H381.298L254.634 1634.44ZM247.488 1436.06H517.573V1519.35H247.488V1436.06ZM658.988 1634.44V1129.75H765.691V1546.46H982.055V1634.44H658.988ZM1298.74 1274.9C1296.77 1255.02 1288.31 1239.58 1273.36 1228.57C1258.41 1217.56 1238.12 1212.06 1212.5 1212.06C1195.08 1212.06 1180.38 1214.52 1168.38 1219.45C1156.39 1224.22 1147.19 1230.87 1140.79 1239.41C1134.54 1247.96 1131.42 1257.65 1131.42 1268.49C1131.09 1277.53 1132.98 1285.41 1137.08 1292.15C1141.36 1298.88 1147.19 1304.72 1154.58 1309.64C1161.98 1314.41 1170.52 1318.6 1180.21 1322.21C1189.9 1325.66 1200.25 1328.62 1211.26 1331.08L1256.6 1341.93C1278.61 1346.86 1298.83 1353.43 1317.23 1361.64C1335.63 1369.86 1351.56 1379.96 1365.03 1391.95C1378.5 1403.94 1388.94 1418.07 1396.33 1434.34C1403.88 1450.6 1407.75 1469.25 1407.91 1490.28C1407.75 1521.16 1399.86 1547.94 1384.25 1570.61C1368.81 1593.12 1346.47 1610.62 1317.23 1623.1C1288.15 1635.42 1253.07 1641.58 1212 1641.58C1171.26 1641.58 1135.77 1635.34 1105.54 1622.86C1075.48 1610.37 1051.98 1591.89 1035.06 1567.41C1018.31 1542.77 1009.51 1512.29 1008.7 1475.98H1111.95C1113.1 1492.91 1117.95 1507.03 1126.49 1518.37C1135.2 1529.54 1146.78 1538 1161.23 1543.75C1175.86 1549.34 1192.37 1552.13 1210.77 1552.13C1228.84 1552.13 1244.53 1549.5 1257.84 1544.24C1271.31 1538.99 1281.74 1531.68 1289.13 1522.31C1296.52 1512.95 1300.22 1502.19 1300.22 1490.03C1300.22 1478.69 1296.85 1469.17 1290.12 1461.44C1283.54 1453.72 1273.86 1447.15 1261.04 1441.73C1248.39 1436.31 1232.86 1431.38 1214.46 1426.94L1159.51 1413.14C1116.96 1402.79 1083.36 1386.61 1058.72 1364.6C1034.08 1342.58 1021.84 1312.93 1022 1275.64C1021.84 1245.08 1029.97 1218.38 1046.4 1195.55C1062.99 1172.71 1085.75 1154.89 1114.66 1142.07C1143.58 1129.26 1176.43 1122.85 1213.23 1122.85C1250.69 1122.85 1283.38 1129.26 1311.31 1142.07C1339.4 1154.89 1361.25 1172.71 1376.86 1195.55C1392.47 1218.38 1400.52 1244.83 1401.01 1274.9H1298.74Z" fill="#FFCE58"/>
<path d="M1.90918 79.226V5.76189H348.034V79.226H219.009V427.203H130.935V79.226H1.90918ZM381.857 427.203V5.76189H665.835V79.226H470.96V179.648H651.224V253.112H470.96V353.739H666.658V427.203H381.857ZM942.12 126.968C940.474 110.367 933.408 97.472 920.924 88.2804C908.44 79.0888 891.498 74.493 870.096 74.493C855.554 74.493 843.276 76.5508 833.261 80.6665C823.247 84.6449 815.564 90.2011 810.214 97.3348C805 104.468 802.394 112.563 802.394 121.618C802.12 129.162 803.697 135.747 807.128 141.372C810.694 146.996 815.564 151.867 821.738 155.983C827.912 159.961 835.045 163.459 843.139 166.477C851.233 169.358 859.876 171.828 869.067 173.885L906.931 182.94C925.315 187.056 942.189 192.544 957.553 199.403C972.919 206.262 986.226 214.699 997.476 224.714C1008.73 234.729 1017.43 246.527 1023.61 260.108C1029.92 273.69 1033.15 289.261 1033.29 306.821C1033.15 332.612 1026.56 354.974 1013.53 373.906C1000.63 392.7 981.974 407.31 957.553 417.737C933.272 428.026 903.982 433.171 869.685 433.171C835.662 433.171 806.029 427.958 780.787 417.532C755.681 407.105 736.064 391.672 721.934 371.23C707.941 350.653 700.601 325.203 699.915 294.885H786.137C787.098 309.016 791.145 320.814 798.279 330.279C805.55 339.609 815.222 346.674 827.294 351.476C839.504 356.14 853.291 358.472 868.656 358.472C883.747 358.472 896.848 356.277 907.96 351.887C919.21 347.497 927.921 341.392 934.094 333.572C940.268 325.753 943.355 316.767 943.355 306.615C943.355 297.149 940.543 289.192 934.917 282.744C929.43 276.296 921.336 270.808 910.636 266.282C900.072 261.755 887.107 257.639 871.743 253.935L825.853 242.411C790.322 233.768 762.267 220.256 741.688 201.872C721.11 183.489 710.89 158.727 711.027 127.585C710.89 102.068 717.681 79.7748 731.4 60.7057C745.255 41.6366 764.256 26.7516 788.401 16.051C812.546 5.35033 839.984 0 870.714 0C901.993 0 929.293 5.35033 952.615 16.051C976.074 26.7516 994.32 41.6366 1007.35 60.7057C1020.39 79.7748 1027.11 101.862 1027.52 126.968H942.12ZM1053.99 79.226V5.76189H1400.11V79.226H1271.08V427.203H1183.02V79.226H1053.99Z" fill="#FFCE58"/>
</svg>
