<svg width="191" height="45" viewBox="0 0 191 45" fill="none" xmlns="http://www.w3.org/2000/svg">
<g clip-path="url(#clip0_147_139976)">
<path d="M190.91 21.1767V24.2449C189.144 38.7403 175.317 46.6358 161.414 44.3312C143.285 41.3176 134.135 20.154 149.046 6.87897C163.187 -5.71421 188.476 1.26079 190.91 21.1767ZM155.926 37.8403C155.939 41.0176 159.458 42.9881 162.069 41.5222C164.21 40.3153 166.269 33.1972 167.258 30.8176C167.487 30.2626 167.905 29.8062 168.437 29.529C172.41 27.4335 176.38 25.3449 180.349 23.2631C186.676 19.9426 185.23 15.504 179.974 12.0744C174.501 8.50624 169.433 5.69942 164.769 3.65397C160.508 1.78579 155.483 4.46533 155.599 9.37443C155.762 16.3244 155.871 25.8131 155.926 37.8403Z" fill="#333333"/>
<path d="M29.4553 8.82909C31.1649 8.82909 32.5508 7.44321 32.5508 5.73364C32.5508 4.02407 31.1649 2.63818 29.4553 2.63818C27.7457 2.63818 26.3599 4.02407 26.3599 5.73364C26.3599 7.44321 27.7457 8.82909 29.4553 8.82909Z" fill="#333333"/>
<path d="M66.0619 2.76761C67.9392 3.44034 68.3369 4.8017 67.2551 6.8517C65.6006 9.98807 63.8483 13.0903 61.9983 16.1585C61.3574 17.2176 60.4233 17.6813 59.196 17.5494C56.5165 17.2631 56.7892 14.4335 57.8051 12.5858C59.4551 9.59034 61.2165 6.64943 63.0892 3.76307C63.8165 2.64489 64.8074 2.31307 66.0619 2.76761Z" fill="#333333"/>
<path d="M77.0598 2.72684C79.3166 3.37457 79.228 5.56321 78.2189 7.33593C75.5371 12.0632 72.8121 16.7746 70.0439 21.47C68.428 24.2109 64.9235 25.4928 64.5212 20.7541C64.5035 20.5316 64.551 20.311 64.6576 20.12L73.978 3.94048C74.6735 2.74048 75.7007 2.33593 77.0598 2.72684Z" fill="#333333"/>
<path d="M102.873 8.82229C104.579 8.82229 105.961 7.43946 105.961 5.73366C105.961 4.02785 104.579 2.64502 102.873 2.64502C101.167 2.64502 99.7842 4.02785 99.7842 5.73366C99.7842 7.43946 101.167 8.82229 102.873 8.82229Z" fill="#333333"/>
<path d="M124.243 2.60846L117.752 2.5858C116.46 2.58129 115.409 3.62467 115.405 4.91626L115.404 5.14808C115.4 6.43966 116.443 7.49035 117.735 7.49486L124.225 7.51752C125.517 7.52203 126.568 6.47864 126.572 5.18706L126.573 4.95524C126.578 3.66366 125.534 2.61297 124.243 2.60846Z" fill="#333333"/>
<path d="M3.18416 2.8562H3.03416C1.58065 2.8562 0.402344 4.03451 0.402344 5.48802V21.6335C0.402344 23.087 1.58065 24.2653 3.03416 24.2653H3.18416C4.63767 24.2653 5.81598 23.087 5.81598 21.6335V5.48802C5.81598 4.03451 4.63767 2.8562 3.18416 2.8562Z" fill="#333333"/>
<path d="M22.7458 2.84937H22.6094C21.1634 2.84937 19.9912 4.02157 19.9912 5.46755V21.6675C19.9912 23.1135 21.1634 24.2857 22.6094 24.2857H22.7458C24.1917 24.2857 25.3639 23.1135 25.3639 21.6675V5.46755C25.3639 4.02157 24.1917 2.84937 22.7458 2.84937Z" fill="#333333"/>
<path d="M38.2497 2.8291H38.1133C36.6673 2.8291 35.4951 4.0013 35.4951 5.44728V21.6746C35.4951 23.1205 36.6673 24.2927 38.1133 24.2927H38.2497C39.6956 24.2927 40.8678 23.1205 40.8678 21.6746V5.44728C40.8678 4.0013 39.6956 2.8291 38.2497 2.8291Z" fill="#333333"/>
<path d="M92.8566 8.22222C91.1588 8.20176 88.1247 8.52903 86.7066 7.65631C85.2066 6.73585 84.9543 4.85403 86.3111 3.63358C87.8588 2.24949 91.7384 2.69949 95.3043 2.73358C97.5134 2.76085 98.6997 3.91312 98.6997 6.06767C98.6816 10.8722 98.6838 15.6768 98.7066 20.4813C98.727 23.7609 95.9657 26.3586 93.5179 22.2745C93.4156 22.1055 93.3588 21.883 93.3543 21.6336L93.2179 8.55631C93.2161 8.46702 93.1773 8.382 93.1097 8.31952C93.0421 8.25705 92.9512 8.22211 92.8566 8.22222Z" fill="#333333"/>
<path d="M114.757 18.8791L124.043 18.9404C125.557 18.9495 126.379 19.5654 126.511 20.7882C126.825 23.6654 124.943 24.1291 122.482 24.2518C116.373 24.5654 112.573 24.5745 111.082 24.2791C109.5 23.9654 108.914 22.2882 108.92 20.72C108.939 15.5882 108.927 10.4541 108.886 5.31772C108.886 5.08144 108.948 4.85697 109.064 4.66999C110.718 1.95636 112.389 1.95636 114.075 4.66999C114.182 4.8392 114.241 5.05945 114.245 5.30408L114.402 18.5382C114.404 18.6292 114.442 18.716 114.508 18.7797C114.575 18.8435 114.664 18.8791 114.757 18.8791Z" fill="#333333"/>
<path d="M10.5128 3.01318C18.9537 4.61545 18.2241 16.4586 9.36732 17.6245C8.05823 17.7973 7.27186 17.2382 7.00823 15.9473C6.01277 11.1336 13.6764 14.5086 11.2628 8.63818C11.2221 8.53982 11.1609 8.45125 11.0833 8.37837C11.0057 8.30548 10.9135 8.24995 10.8128 8.21546L8.01732 7.27455C7.79692 7.19964 7.61659 7.06739 7.50595 6.89955C5.81505 4.21318 7.95595 2.52909 10.5128 3.01318Z" fill="#333333"/>
<path d="M45.4018 3.34137L45.2958 3.40329C44.0279 4.14423 43.6006 5.77276 44.3416 7.04072L53.6295 22.935C54.3704 24.203 55.999 24.6302 57.2669 23.8893L57.3729 23.8274C58.6408 23.0865 59.0681 21.4579 58.3271 20.19L49.0392 4.29563C48.2983 3.02767 46.6698 2.60043 45.4018 3.34137Z" fill="#333333"/>
<path d="M78.5945 9.66118L78.4775 9.73121C77.2206 10.4835 76.8115 12.1122 77.5637 13.3691L83.285 22.9287C84.0373 24.1856 85.666 24.5947 86.9229 23.8425L87.0399 23.7725C88.2968 23.0202 88.7059 21.3915 87.9537 20.1346L82.2324 10.575C81.4801 9.31805 79.8514 8.90894 78.5945 9.66118Z" fill="#333333"/>
<path d="M124.241 10.5745H117.75C116.454 10.5745 115.404 11.6246 115.404 12.9199V13.1381C115.404 14.4335 116.454 15.4836 117.75 15.4836H124.241C125.536 15.4836 126.586 14.4335 126.586 13.1381V12.9199C126.586 11.6246 125.536 10.5745 124.241 10.5745Z" fill="#333333"/>
<path d="M167.893 21.4834C170.638 21.4739 172.856 19.4605 172.848 16.9866C172.839 14.5126 170.607 12.5148 167.862 12.5244C165.116 12.534 162.898 14.5473 162.907 17.0213C162.915 19.4952 165.148 21.493 167.893 21.4834Z" fill="#333333"/>
<path d="M0.000417258 39.6744L-0.0268555 38.488C1.5186 34.338 4.12769 33.5107 7.80042 36.0062C8.12769 36.2289 8.27769 36.4926 8.25042 36.7971C8.24709 36.8394 8.23285 36.8798 8.20882 36.9152C8.18479 36.9507 8.15163 36.9801 8.11196 37.0013C8.07229 37.0224 8.02719 37.0347 7.98022 37.0371C7.93326 37.0396 7.88571 37.0321 7.84133 37.0153C6.94133 36.6607 6.40951 35.9107 5.57087 35.6653C2.06633 34.6426 -0.42231 38.7676 1.83451 41.4676C3.34814 43.2812 5.70042 43.1926 7.28224 41.4948C7.3764 41.3929 7.48067 41.3124 7.58156 41.2638C7.68245 41.2152 7.77532 41.2006 7.84814 41.2221L8.12087 41.3039C8.15365 41.315 8.1821 41.3354 8.20404 41.3636C8.22597 41.3917 8.2408 41.4269 8.24739 41.4664C8.25397 41.506 8.25214 41.5487 8.24203 41.5915C8.23191 41.6342 8.21379 41.6758 8.18905 41.713C5.83678 45.2926 0.784508 43.6971 0.000417258 39.6744Z" fill="#333333"/>
<path d="M34.0133 34.6906L33.9588 34.6902C33.7065 34.6884 33.5005 34.8915 33.4988 35.1438L33.4429 43.1482C33.4411 43.4005 33.6442 43.6064 33.8965 43.6082L33.951 43.6085C34.2033 43.6103 34.4093 43.4072 34.411 43.1549L34.4669 35.1506C34.4687 34.8983 34.2656 34.6923 34.0133 34.6906Z" fill="#333333"/>
<path d="M78.0211 42.7563C79.3916 42.9472 82.2552 41.1813 82.487 41.3654C82.5215 41.3919 82.5491 41.4262 82.568 41.4661C82.5869 41.5061 82.5966 41.5507 82.5966 41.5971C82.5966 41.6435 82.5869 41.6906 82.568 41.7353C82.5491 41.78 82.5215 41.8212 82.487 41.8563C80.4325 43.9745 78.3802 44.2995 76.3302 42.8313C71.0189 39.0268 77.578 30.9609 82.228 36.2245C82.8461 36.9245 82.753 37.1677 81.9484 36.9541C81.7618 36.9049 81.5669 36.7814 81.3893 36.5995C78.2802 33.4495 74.2711 36.9063 75.7916 40.9631C76.1825 41.9995 76.9257 42.5972 78.0211 42.7563Z" fill="#333333"/>
<path d="M20.4954 42.5789L23.4749 42.6334C23.6128 42.6353 23.7412 42.6579 23.8459 42.6988C23.9505 42.7397 24.0275 42.7973 24.0681 42.8653C24.1318 42.9607 24.1499 43.0675 24.1227 43.1857C24.1009 43.2582 24.0486 43.322 23.9737 43.3674C23.8987 43.4129 23.805 43.4377 23.7068 43.438L19.4522 43.4448C19.3618 43.4448 19.2751 43.4075 19.2112 43.341C19.1472 43.2745 19.1113 43.1843 19.1113 43.0903L19.1045 35.3312C19.1044 35.2088 19.1306 35.0924 19.1802 34.9957C19.2297 34.8991 19.3004 34.8262 19.384 34.7857C19.834 34.5607 20.0113 34.9494 19.9909 35.3448C19.8363 37.6539 19.8795 39.9516 20.1204 42.238C20.1303 42.3298 20.1738 42.415 20.2427 42.4777C20.3117 42.5403 20.4014 42.5763 20.4954 42.5789Z" fill="#333333"/>
<path d="M50.8907 41.7675L51.0066 41.7539C51.0399 41.7505 51.0707 41.732 51.0934 41.7019C51.116 41.6717 51.1288 41.632 51.1293 41.5903L51.1498 35.1539C51.1503 35.0483 51.1844 34.9472 51.2452 34.8712C51.3059 34.7952 51.3888 34.75 51.477 34.7448C52.3361 34.7039 51.9816 41.9925 51.9748 42.9198C51.9748 43.0318 51.9454 43.1394 51.8905 43.2284C51.8357 43.3173 51.7581 43.3833 51.668 43.4175C50.2566 43.9766 46.8202 35.9448 46.2339 36.3403C46.1886 36.371 46.1514 36.4267 46.1262 36.5011C46.101 36.5756 46.0887 36.6661 46.0907 36.763L46.1657 43.0834C46.168 43.2034 46.136 43.319 46.0757 43.4082C46.0154 43.4974 45.931 43.5541 45.8384 43.5675C45.0134 43.6766 45.3475 36.1903 45.3543 35.3243C45.3545 35.2086 45.3812 35.0975 45.4317 35.0026C45.4821 34.9078 45.5543 34.8329 45.6407 34.7857C46.5884 34.288 49.3225 39.3743 50.5566 41.5221C50.5998 41.6008 50.6553 41.6669 50.7153 41.711C50.7753 41.7551 50.8367 41.7749 50.8907 41.7675Z" fill="#333333"/>
<path d="M63.5224 34.7873L63.3451 34.7851C63.1267 34.7824 62.9475 34.9573 62.9449 35.1757L62.8488 43.0433C62.8461 43.2617 63.021 43.4409 63.2393 43.4435L63.4166 43.4457C63.635 43.4484 63.8142 43.2735 63.8169 43.0551L63.913 35.1875C63.9157 34.9691 63.7408 34.7899 63.5224 34.7873Z" fill="#333333"/>
<path d="M105.11 38.9246C105.239 38.795 108.9 34.1587 109.432 34.9291C109.477 34.9957 109.493 35.0839 109.475 35.1801C109.458 35.2763 109.409 35.375 109.337 35.4609L106.514 38.8905C106.455 38.9604 106.425 39.0535 106.432 39.1534C106.438 39.2532 106.479 39.3533 106.548 39.4359C107.471 40.5496 108.353 41.6632 109.194 42.7768C109.964 43.8064 108.914 43.8064 108.43 43.2132C107.625 42.2268 106.846 41.2087 106.091 40.1587C105.682 39.5905 105.339 39.6268 105.062 40.2677C104.803 40.8746 104.946 44.0382 104.053 43.37C103.975 43.3113 103.912 43.2286 103.869 43.1289C103.826 43.0293 103.805 42.9155 103.807 42.7973L103.828 35.2905C103.828 35.1891 103.86 35.0915 103.918 35.0143C103.977 34.9372 104.058 34.8854 104.148 34.8677C105.287 34.6496 104.755 37.6768 104.844 38.8223C104.862 39.0541 104.95 39.0882 105.11 38.9246Z" fill="#333333"/>
<path d="M120.9 42.579L124.391 42.6268C124.513 42.6268 124.628 42.6534 124.722 42.7031C124.817 42.7529 124.887 42.8236 124.923 42.9063C125.332 43.8131 119.973 43.4654 119.482 43.4654C119.018 43.4699 118.905 43.2768 119.141 42.8859L123.184 36.2449C123.425 35.8449 123.314 35.6427 122.85 35.6381L119.693 35.6109C119.571 35.6089 119.455 35.5788 119.365 35.5256C119.274 35.4724 119.215 35.3991 119.196 35.3177C119.164 35.1949 119.187 35.0813 119.264 34.9768C119.31 34.914 119.382 34.8624 119.475 34.8267C119.568 34.7909 119.678 34.7722 119.796 34.7722L123.818 34.7859C124.659 34.7859 124.857 35.1654 124.412 35.9245L120.709 42.2586C120.69 42.2906 120.68 42.3272 120.68 42.3646C120.68 42.4019 120.691 42.4387 120.71 42.4713C120.729 42.5038 120.757 42.5309 120.791 42.5498C120.824 42.5688 120.862 42.5788 120.9 42.579Z" fill="#333333"/>
</g>
<defs>
<clipPath id="clip0_147_139976">
<rect width="190.909" height="45" fill="white"/>
</clipPath>
</defs>
</svg>
