<svg width="158" height="45" viewBox="0 0 158 45" fill="none" xmlns="http://www.w3.org/2000/svg">
<path fill-rule="evenodd" clip-rule="evenodd" d="M0 30.2931V29.4752H157.031V30.2931H0ZM154.17 21.5672C153.213 21.4879 153.327 21.4175 151.588 21.4494C150.715 21.465 150.131 21.4625 149.751 21.483L147.009 21.6326L146.223 21.6621C146.223 21.2883 146.238 20.9334 146.271 20.5866L148.062 20.2022C148.595 20.0689 148.909 19.9577 148.996 19.8808C149.101 19.7785 149.156 19.6542 149.156 19.516C149.156 19.3778 149.129 19.2306 149.074 19.0842L148.896 18.654L148.431 17.5171L147.159 14.3798L141.001 14.3618C140.776 14.8689 140.309 16.1276 139.597 18.1215C139.392 18.69 139.287 19.0727 139.287 19.2739C139.287 19.5544 139.365 19.7515 139.515 19.8644C139.762 20.0705 140.235 20.2153 140.935 20.302C141.029 20.32 141.414 20.3789 142.077 20.4778C142.091 20.8606 142.095 21.1305 142.095 21.2777C142.095 21.3971 142.084 21.5198 142.063 21.6466C141.396 21.6466 139.807 21.5558 137.291 21.3742L136.63 21.483C135.832 21.6147 135.075 21.6776 134.358 21.6776H134.068L134.1 20.5866C134.303 20.5277 134.661 20.4467 135.178 20.347C136.003 20.1883 136.509 20.0484 136.685 19.9168C136.862 19.79 137.081 19.4776 137.341 18.9868L140.593 10.5153L144.418 0.554516C144.771 0.568419 145.11 0.570055 145.429 0.570055H146.157L146.3 0.860399L149.106 7.45652C149.74 8.85589 150.311 10.2144 150.82 11.5361C151.325 12.8536 151.759 13.9291 152.124 14.7617C152.338 15.2623 152.634 16.0114 153.008 17.019C153.202 17.567 153.5 18.2483 153.894 19.0703C154.109 19.516 154.275 19.7785 154.379 19.8513C154.571 20.0116 154.891 20.1163 155.323 20.1728C155.758 20.2251 156.226 20.347 156.734 20.5367C156.791 20.8949 156.816 21.155 156.816 21.3251C156.816 21.402 156.812 21.5198 156.8 21.6776C156.003 21.6776 155.127 21.6416 154.17 21.5672ZM145.238 9.38751C144.72 8.12226 144.302 7.15799 143.983 6.49716L141.644 12.677C144.16 12.7089 145.641 12.7269 146.09 12.7269L146.498 12.7089C146.175 11.7626 145.756 10.6487 145.238 9.38751ZM123.511 6.30496C123.074 6.44236 122.681 6.52823 122.349 6.56259C122.07 6.14629 121.768 5.53698 121.437 4.75346C121.111 3.96176 120.904 3.52256 120.817 3.43423C120.69 3.29601 120.539 3.21014 120.363 3.16924C120.111 3.11527 118.971 3.08582 116.947 3.08582C116.651 3.08582 116.271 3.10627 115.817 3.15125C115.757 3.56509 115.726 3.90696 115.726 4.17441L115.742 6.3205V11.0273L115.803 16.1047L115.785 18.187C115.785 18.9255 115.854 19.4776 115.983 19.8513C116.154 19.9258 116.469 19.9985 116.929 20.0615C116.954 20.0615 117.002 20.0705 117.07 20.0844C117.257 20.1204 117.608 20.1973 118.123 20.3151C118.45 20.3879 118.734 20.4778 118.975 20.5711C119.033 20.9604 119.06 21.1935 119.06 21.2777C119.06 21.3742 119.044 21.5108 119.01 21.6915C118.775 21.7005 118.584 21.7095 118.433 21.7095C117.327 21.7095 116.387 21.6686 115.612 21.5877C114.839 21.5108 113.435 21.4674 111.404 21.4674C111.081 21.4674 110.133 21.5329 108.565 21.6596C107.954 21.7005 107.552 21.7234 107.37 21.7234C107.359 21.5672 107.349 21.438 107.338 21.3611L107.32 20.9857V20.8606C107.56 20.5506 108.004 20.32 108.661 20.1728C109.782 19.9037 110.552 19.6632 110.981 19.4506C111.092 19.2469 111.158 18.9795 111.181 18.6515C111.252 17.3675 111.291 15.3301 111.291 12.5371L111.206 6.47916C111.206 4.81234 111.181 3.80718 111.112 3.45223C111.092 3.35981 111.054 3.28702 110.999 3.23713C110.949 3.18969 110.871 3.16025 110.771 3.15125C110.443 3.10627 109.353 3.08582 107.514 3.08582C106.509 3.08582 105.83 3.18315 105.483 3.37289C105.023 3.64443 104.327 4.36497 103.405 5.55088C103.14 5.8952 102.935 6.06205 102.808 6.06205C102.315 5.80851 102.001 5.60077 101.859 5.4421C102.192 4.74446 102.655 3.35981 103.245 1.27669C103.414 0.669835 103.541 0.25354 103.614 0.0408935H104.615C104.69 0.160302 104.745 0.246997 104.774 0.298522C105.077 0.810509 105.308 1.14992 105.468 1.30859C105.611 1.35357 106.349 1.37402 107.68 1.37402C108.505 1.37402 109.244 1.37157 109.886 1.35848L110.21 1.30859L112.159 1.29469L115.803 1.32413H120.79L121.733 1.17691C121.877 1.0845 122.025 0.828502 122.185 0.412206C122.231 0.317333 122.292 0.180749 122.367 0.0139038L123.078 0C123.183 0 123.342 0.00245361 123.561 0.0139038C123.568 0.746715 123.57 1.85656 123.57 3.341L123.588 4.76736L123.57 5.58441C123.57 5.86331 123.556 6.10294 123.511 6.30496ZM81.598 21.4674C80.4972 21.4674 79.4233 21.438 78.5891 21.4151C78.0607 21.3996 77.6273 21.384 77.3426 21.384C77.076 21.384 76.6017 21.402 76.0684 21.42C75.3552 21.4404 74.5275 21.4674 73.9035 21.4674C73.138 21.4674 73.0235 21.0896 73.0235 20.863C73.0235 20.6569 73.1241 20.311 73.7939 20.311C74.1063 20.311 74.3959 20.2815 74.7058 20.2153C74.9905 20.1548 75.1475 19.9756 75.2342 19.1471C75.3691 18.0242 75.3691 15.928 75.3691 13.2748V8.50503C75.3691 4.38296 75.3691 3.64034 75.3168 2.78239C75.2546 1.78786 74.9406 1.6341 74.6486 1.56867C74.4 1.50324 74.09 1.47135 73.7391 1.47135C73.0693 1.47135 72.9695 1.09104 72.9695 0.864488C72.9695 0.317333 73.6614 0.317333 73.9583 0.317333C74.5145 0.317333 75.2661 0.336962 75.9686 0.362316C76.5747 0.37622 77.1398 0.394213 77.507 0.394213C77.8096 0.394213 78.2955 0.380309 78.8353 0.362316C79.5051 0.339416 80.2575 0.317333 80.8366 0.317333C81.4385 0.317333 81.7436 0.498083 81.7436 0.864488C81.7436 1.09104 81.643 1.47135 80.9732 1.47135C80.7204 1.47135 80.5176 1.4967 80.2076 1.54823C79.7496 1.63165 79.5329 1.82876 79.4757 2.77994C79.4233 3.64034 79.4233 4.38296 79.4233 8.50503V13.2748C79.4233 15.9329 79.4233 18.0291 79.5329 19.1815C79.6122 19.9127 79.7856 20.1343 80.3352 20.2087C80.7041 20.2611 81.2831 20.311 81.6798 20.311C82.3954 20.311 82.4527 20.7322 82.4527 20.863C82.4527 20.9628 82.411 21.4674 81.598 21.4674ZM54.6222 1.47135C54.3801 1.47135 53.8788 1.47135 53.4731 1.73879C53.1771 1.93999 52.8033 2.36119 52.0967 4.02964C51.4677 5.53043 50.9435 6.6779 50.3374 8.00694C49.9064 8.95076 49.4255 10.0058 48.8194 11.3798C47.8053 13.6781 46.9457 15.6401 46.2898 17.1458C45.8154 18.2303 45.4416 19.0768 45.1906 19.6403L45.0409 19.9756C44.3931 21.4151 44.1993 21.8453 43.6276 21.8453C43.0396 21.8453 42.8318 21.3382 42.283 19.9846L35.4088 3.43178C34.8183 2.03322 34.4331 1.80831 33.5539 1.56622C33.1891 1.47135 32.7925 1.47135 32.5806 1.47135C31.9648 1.47135 31.9174 1.02806 31.9174 0.891478C31.9174 0.317333 32.624 0.317333 32.961 0.317333C33.7633 0.317333 34.5975 0.339416 35.345 0.362316C35.947 0.380309 36.4933 0.394213 36.9178 0.394213C37.1983 0.394213 37.5827 0.385217 38.0367 0.366406C38.686 0.344323 39.4704 0.317333 40.2727 0.317333C41.0677 0.317333 41.2386 0.628942 41.2386 0.891478C41.2386 1.06405 41.1658 1.47135 40.4911 1.47135C40.3177 1.47135 39.7943 1.47135 39.6299 1.59321C39.5546 1.64555 39.4933 1.71589 39.4933 1.89664C39.4933 2.05122 39.5702 2.5174 40.0944 3.86198L44.5346 15.4978C44.9992 14.325 45.6723 12.6565 46.3757 10.8997C47.721 7.55875 49.2431 3.7712 49.6447 2.67525C49.7764 2.32929 49.868 1.96452 49.868 1.78786C49.868 1.71589 49.8451 1.62265 49.7445 1.58912C49.5032 1.50979 49.1744 1.47135 48.7573 1.47135C48.0965 1.47135 47.9582 1.17037 47.9582 0.919285C47.9582 0.317333 48.6731 0.317333 49.0583 0.317333C49.9677 0.317333 50.7815 0.35332 51.3287 0.37622C51.6002 0.386852 51.8047 0.394213 51.9233 0.394213C52.1196 0.394213 52.4639 0.380309 52.8556 0.36477C53.3913 0.344323 54.0162 0.317333 54.4848 0.317333C55.0892 0.317333 55.3968 0.507079 55.3968 0.891478C55.3968 1.10903 55.297 1.47135 54.6222 1.47135ZM12.3171 21.5509C10.701 21.5509 9.42431 21.5149 8.38071 21.4854L7.58983 21.4674C6.30904 21.411 5.52062 21.384 4.75918 21.384C4.75918 21.384 4.75918 21.384 4.75673 21.384C4.45821 21.384 3.86607 21.384 3.21832 21.4151C2.88544 21.4151 2.54357 21.429 2.21315 21.4429C1.89664 21.456 1.59076 21.4674 1.32168 21.4674C0.556151 21.4674 0.442467 21.0896 0.442467 20.863C0.442467 20.6569 0.542247 20.311 1.21454 20.311C1.52287 20.311 1.81485 20.2815 2.12401 20.2153C2.40208 20.1572 2.53703 19.8513 2.65317 19.0024C2.78975 17.8933 2.78975 15.7513 2.78975 13.2748V8.50503C2.78975 4.38296 2.78975 3.64034 2.7325 2.78239C2.68261 1.92854 2.50513 1.6889 1.82794 1.54414C1.64555 1.50079 1.2358 1.47135 0.831773 1.47135C0.168481 1.47135 0.0318969 1.15483 0.0318969 0.891478C0.0318969 0.317333 0.711546 0.317333 0.966722 0.317333C1.34458 0.317333 1.73715 0.321423 2.11992 0.330419C2.48714 0.335327 2.847 0.344323 3.17988 0.344323L3.56019 0.355773C4.10734 0.37622 4.58579 0.394213 4.89577 0.394213C8.89351 0.394213 11.3749 0.386852 11.6988 0.368859C11.8975 0.348412 12.5494 0.280529 12.8087 0.2151C12.8635 0.20365 12.9068 0.189746 12.9501 0.17666C13.0646 0.140674 13.1873 0.0973265 13.3239 0.0973265C13.4106 0.0973265 13.8253 0.12677 13.8253 0.674742C13.8253 0.751622 13.8122 0.846495 13.7844 0.991258C13.7386 1.23417 13.6609 1.63901 13.6093 2.45852C13.5979 2.56729 13.584 2.77748 13.5676 3.02448C13.5382 3.50621 13.5063 4.05418 13.4654 4.28073C13.3624 4.80335 13.009 4.85815 12.8635 4.85815C12.686 4.85815 12.2803 4.79026 12.2803 4.14251C12.2803 3.96585 12.2525 3.5561 12.1437 3.29601C12.0178 2.97704 11.9016 2.68016 10.5849 2.52149C10.1792 2.47651 7.71742 2.42662 6.90118 2.41762L6.89709 9.17486C9.18058 9.17486 10.7075 9.15687 11.0862 9.12334C11.6489 9.07753 12.0088 9.01456 12.1773 8.82645C12.4128 8.55901 12.5854 8.36272 12.8635 8.36272C13.1783 8.36272 13.3877 8.58436 13.3877 8.91232C13.3877 8.97857 13.3787 9.07753 13.3509 9.2452C13.3149 9.52164 13.2421 10.0124 13.1693 10.9161C13.1579 11.1557 13.135 11.5181 13.1121 11.8534C13.0867 12.2427 13.0646 12.605 13.0646 12.7064C13.0646 12.9174 13.0646 13.5554 12.4807 13.5554C12.1339 13.5554 11.9 13.3247 11.9 12.978C11.8926 12.9305 11.8886 12.8406 11.8787 12.7449C11.8657 12.5388 11.8517 12.3016 11.7969 12.0799C11.7127 11.7422 11.5009 11.3798 10.562 11.2784C10.113 11.2285 7.82865 11.2015 6.90118 11.2015L6.89219 14.3929C6.88564 15.5183 6.87828 16.9152 6.89709 17.4631C6.94208 19.0138 7.06557 19.4187 9.83243 19.4187C10.5023 19.4187 11.6146 19.4187 12.2574 19.1242C12.8479 18.8527 13.1186 18.3931 13.2969 17.3658C13.3378 17.1393 13.4221 16.6821 13.9259 16.6821C14.482 16.6821 14.482 17.2595 14.482 17.5032C14.482 18.1469 14.2587 20.0206 14.1148 20.5915C13.8572 21.5509 13.3738 21.5509 12.3171 21.5509ZM4.74282 40.0715C4.74282 40.6195 4.4762 41.1756 3.98057 41.4594V41.4774C4.73383 41.7056 5.00945 42.3714 5.00945 42.9463C5.00945 44.3702 3.81536 44.8912 2.51086 44.8912H0.0948729V38.3646H2.51086C3.82436 38.3646 4.74282 38.9486 4.74282 40.0715ZM1.7028 43.5213H2.66707C3.13489 43.5213 3.36553 43.2023 3.36553 42.8376C3.36553 42.4711 3.14389 42.1702 2.67607 42.1702H1.7028V43.5213ZM1.7028 39.7346V40.8935H2.52885C2.9337 40.8935 3.1079 40.6015 3.1079 40.2907C3.1079 39.9897 2.9337 39.7346 2.50186 39.7346H1.7028ZM17.5204 39.7346H15.012V40.9205H17.0141V42.2896H15.012V43.5213H17.6488V44.8912H13.4041V38.3646H17.5204V39.7346ZM29.2486 38.3646L31.4806 44.8912H29.8261L29.4229 43.5213H27.3741L26.9782 44.8912H25.3245L27.5573 38.3646H29.2486ZM29.0458 42.2446L28.6786 40.9744C28.5592 40.5647 28.412 39.854 28.412 39.854H28.394C28.394 39.854 28.2468 40.5647 28.1273 40.9744L27.7495 42.2446H29.0458ZM40.9311 42.4916C40.9311 43.1753 41.3817 43.5393 42.0704 43.5393C42.7599 43.5393 43.2105 43.1753 43.2105 42.4916V38.3646H44.8184V42.4916C44.8184 43.9605 43.7331 45 42.0802 45C40.4085 45 39.3232 43.9605 39.3232 42.4916V38.3646H40.9311V42.4916ZM58.5055 39.7346H56.5115V44.8912H54.9036V39.7346H52.9104V38.3646H58.5055V39.7346ZM68.4606 39.9358C68.6716 40.3815 68.8564 40.8755 68.8564 40.8755H68.8744C68.8744 40.8755 69.0584 40.3815 69.2686 39.9358L70.0039 38.3646H71.8327L69.6645 42.2176V44.8912H68.0566V42.2176L65.8876 38.3646H67.7171L68.4606 39.9358ZM100.745 43.5303C101.196 43.5303 101.424 43.3291 101.424 43.0756C101.424 42.1514 98.523 42.2986 98.523 40.2547C98.523 39.05 99.5233 38.2558 100.902 38.2558C101.636 38.2558 102.391 38.4938 102.96 38.996L102.279 40.2997C101.911 39.9807 101.342 39.7247 100.827 39.7247C100.341 39.7247 100.129 39.9268 100.129 40.1909C100.129 41.1217 103.033 40.9025 103.033 42.9643C103.033 44.0603 102.215 45 100.699 45C99.8447 45 98.9442 44.69 98.3202 44.0693L99.1659 42.8555C99.5323 43.1753 100.157 43.5303 100.745 43.5303ZM116.432 39.7346H114.44V44.8912H112.831V39.7346H110.837V38.3646H116.432V39.7346ZM127.53 38.2558C129.569 38.2558 130.964 39.7157 130.964 41.5862C130.964 43.5033 129.569 45 127.53 45C125.49 45 124.092 43.5033 124.092 41.5862C124.092 39.7157 125.49 38.2558 127.53 38.2558ZM127.53 43.5393C128.566 43.5393 129.302 42.7002 129.302 41.5862C129.302 40.5197 128.566 39.7157 127.53 39.7157C126.49 39.7157 125.756 40.5197 125.756 41.5862C125.756 42.7002 126.49 43.5393 127.53 43.5393ZM142.916 38.5208C143.661 38.8038 144.131 39.4696 144.131 40.4175C144.131 41.1127 143.798 41.8692 143.146 42.1996V42.2176C143.146 42.2176 143.239 42.3354 143.395 42.6094L144.67 44.8912H142.879L141.712 42.6903H140.961V44.8912H139.351V38.3646H141.639C142.309 38.3646 142.633 38.4121 142.916 38.5208ZM140.961 39.7346V41.3229H141.657C142.173 41.3229 142.494 41.0399 142.494 40.5197C142.494 40.1909 142.412 39.9447 142.109 39.8245C141.961 39.7615 141.77 39.7346 141.503 39.7346H140.961ZM156.878 39.7346H154.37V40.9205H156.374V42.2896H154.37V43.5213H157.007V44.8912H152.762V38.3646H156.878V39.7346Z" fill="#333333"/>
</svg>
