<svg width="62" height="62" viewBox="0 0 62 62" fill="none" xmlns="http://www.w3.org/2000/svg">
<path d="M16.4688 14.5312H37.7812C38.0382 14.5312 38.2846 14.4292 38.4663 14.2475C38.6479 14.0658 38.75 13.8194 38.75 13.5625C38.75 13.3056 38.6479 13.0592 38.4663 12.8775C38.2846 12.6958 38.0382 12.5938 37.7812 12.5938H16.4688C16.2118 12.5938 15.9654 12.6958 15.7837 12.8775C15.6021 13.0592 15.5 13.3056 15.5 13.5625C15.5 13.8194 15.6021 14.0658 15.7837 14.2475C15.9654 14.4292 16.2118 14.5312 16.4688 14.5312Z" fill="white"/>
<path d="M16.4688 20.3438H37.7812C38.0382 20.3438 38.2846 20.2417 38.4663 20.06C38.6479 19.8783 38.75 19.6319 38.75 19.375C38.75 19.1181 38.6479 18.8717 38.4663 18.69C38.2846 18.5083 38.0382 18.4062 37.7812 18.4062H16.4688C16.2118 18.4062 15.9654 18.5083 15.7837 18.69C15.6021 18.8717 15.5 19.1181 15.5 19.375C15.5 19.6319 15.6021 19.8783 15.7837 20.06C15.9654 20.2417 16.2118 20.3438 16.4688 20.3438Z" fill="white"/>
<path d="M16.4688 26.1562H37.7812C38.0382 26.1562 38.2846 26.0542 38.4663 25.8725C38.6479 25.6908 38.75 25.4444 38.75 25.1875C38.75 24.9306 38.6479 24.6842 38.4663 24.5025C38.2846 24.3208 38.0382 24.2188 37.7812 24.2188H16.4688C16.2118 24.2188 15.9654 24.3208 15.7837 24.5025C15.6021 24.6842 15.5 24.9306 15.5 25.1875C15.5 25.4444 15.6021 25.6908 15.7837 25.8725C15.9654 26.0542 16.2118 26.1562 16.4688 26.1562Z" fill="white"/>
<path d="M16.4688 31.9688H37.7812C38.0382 31.9688 38.2846 31.8667 38.4663 31.685C38.6479 31.5033 38.75 31.2569 38.75 31C38.75 30.7431 38.6479 30.4967 38.4663 30.315C38.2846 30.1333 38.0382 30.0312 37.7812 30.0312H16.4688C16.2118 30.0312 15.9654 30.1333 15.7837 30.315C15.6021 30.4967 15.5 30.7431 15.5 31C15.5 31.2569 15.6021 31.5033 15.7837 31.685C15.9654 31.8667 16.2118 31.9688 16.4688 31.9688Z" fill="white"/>
<path d="M16.4688 37.7812H24.2188C24.4757 37.7812 24.7221 37.6792 24.9038 37.4975C25.0854 37.3158 25.1875 37.0694 25.1875 36.8125C25.1875 36.5556 25.0854 36.3092 24.9038 36.1275C24.7221 35.9458 24.4757 35.8438 24.2188 35.8438H16.4688C16.2118 35.8438 15.9654 35.9458 15.7837 36.1275C15.6021 36.3092 15.5 36.5556 15.5 36.8125C15.5 37.0694 15.6021 37.3158 15.7837 37.4975C15.9654 37.6792 16.2118 37.7812 16.4688 37.7812Z" fill="white"/>
<path d="M54.7504 24.826C54.0852 24.4371 53.2929 24.3279 52.5473 24.5225C51.8017 24.7171 51.1638 25.1995 50.7735 25.8639L48.4375 29.8496V5.8125C48.4375 5.55557 48.3354 5.30917 48.1538 5.12749C47.9721 4.94581 47.7257 4.84375 47.4688 4.84375H40.1201C40.1201 4.84375 37.2092 1.87937 37.0927 1.97916C37.0019 1.95157 36.9075 1.93754 36.8125 1.9375H8.71876C8.46183 1.9375 8.21542 2.03956 8.03375 2.22124C7.85207 2.40292 7.75001 2.64932 7.75001 2.90625V5.93517C6.91788 6.14967 6.18066 6.6347 5.65429 7.31396C5.12793 7.99321 4.84229 8.82817 4.84229 9.6875C4.84229 10.5468 5.12793 11.3818 5.65429 12.061C6.18066 12.7403 6.91788 13.2253 7.75001 13.4398V15.6227C6.91788 15.8372 6.18066 16.3222 5.65429 17.0015C5.12793 17.6807 4.84229 18.5157 4.84229 19.375C4.84229 20.2343 5.12793 21.0693 5.65429 21.7485C6.18066 22.4278 6.91788 22.9128 7.75001 23.1273V25.3102C6.91788 25.5247 6.18066 26.0097 5.65429 26.689C5.12793 27.3682 4.84229 28.2032 4.84229 29.0625C4.84229 29.9218 5.12793 30.7568 5.65429 31.436C6.18066 32.1153 6.91788 32.6003 7.75001 32.8148V34.0289C6.91788 34.2434 6.18066 34.7285 5.65429 35.4077C5.12793 36.087 4.84229 36.9219 4.84229 37.7812C4.84229 38.6406 5.12793 39.4755 5.65429 40.1548C6.18066 40.834 6.91788 41.3191 7.75001 41.5336V47.4688C7.75001 47.7257 7.85207 47.9721 8.03375 48.1538C8.21542 48.3354 8.46183 48.4375 8.71876 48.4375H9.68751V51.3438C9.68751 51.6007 9.78957 51.8471 9.97125 52.0288C10.1529 52.2104 10.3993 52.3125 10.6563 52.3125H35.2736L34.6098 53.4452C34.5504 53.5468 34.5101 53.6585 34.491 53.7747C34.4901 53.7803 34.4885 53.785 34.4876 53.7907L34.4852 53.8066V53.8102L33.7102 58.9494C33.6814 59.1409 33.7105 59.3366 33.794 59.5113C33.8774 59.686 34.0113 59.8317 34.1783 59.9296C34.3454 60.0275 34.5379 60.0731 34.7311 60.0605C34.9243 60.0479 35.1093 59.9777 35.2623 59.8589L39.3828 56.6598C39.6468 56.4548 39.7758 56.3293 39.7553 56.161L42.0106 52.3125H47.4688C47.7257 52.3125 47.9721 52.2104 48.1538 52.0288C48.3354 51.8471 48.4375 51.6007 48.4375 51.3438V41.346L55.7879 28.8028C56.1767 28.1376 56.2859 27.3454 56.0914 26.5999C55.8969 25.8544 55.4146 25.2164 54.7504 24.826ZM53.0363 26.396C53.2217 26.3476 53.4173 26.3553 53.5983 26.4181C53.7793 26.4809 53.9377 26.5959 54.0533 26.7487C54.169 26.9014 54.2367 27.0851 54.248 27.2763C54.2593 27.4676 54.2136 27.6579 54.1167 27.8232L53.6269 28.6588L51.9558 27.6791L52.4457 26.8436C52.5097 26.7336 52.5948 26.6375 52.6962 26.5607C52.7975 26.4838 52.9131 26.4279 53.0363 26.396ZM38.4427 54.5687L36.7716 53.5891L49.5063 31.8584L51.1774 32.8381L38.4427 54.5687ZM37.7813 5.24505L41.255 8.71875H37.7813V5.24505ZM50.4859 30.1867L50.9756 29.3512L52.6473 30.3308L52.1575 31.1664L50.4859 30.1867ZM46.5 6.78125V32.9375C46.5001 33.0004 46.5063 33.063 46.5184 33.1247L44.5625 36.4623V9.6875C44.5626 9.56048 44.5377 9.43468 44.4892 9.3173C44.4406 9.19992 44.3694 9.09327 44.2796 9.00344L44.2788 9.00247L42.0576 6.78125H46.5ZM9.68751 3.875H35.8438V9.6875C35.8438 9.94443 35.9458 10.1908 36.1275 10.3725C36.3092 10.5542 36.5556 10.6562 36.8125 10.6562H42.625V39.7684L38.68 46.5H9.68751V41.5337C10.3582 41.361 10.9702 41.0116 11.4599 40.5218C11.9496 40.0321 12.2989 39.42 12.4716 38.7493C12.5356 38.5004 12.4982 38.2362 12.3674 38.0149C12.2367 37.7937 12.0235 37.6334 11.7746 37.5693C11.6513 37.5376 11.523 37.5305 11.397 37.5484C11.271 37.5662 11.1498 37.6087 11.0402 37.6735C10.819 37.8042 10.6587 38.0175 10.5946 38.2664C10.5304 38.5154 10.4171 38.7492 10.2613 38.9539C10.1056 39.1586 9.91048 39.3301 9.68751 39.4584V32.815C10.3582 32.6422 10.9702 32.2928 11.4599 31.8031C11.9496 31.3133 12.2989 30.7012 12.4716 30.0305C12.5356 29.7816 12.4982 29.5175 12.3674 29.2962C12.2367 29.0749 12.0235 28.9146 11.7746 28.8506C11.5257 28.7865 11.2615 28.824 11.0402 28.9547C10.819 29.0854 10.6587 29.2987 10.5946 29.5476C10.5304 29.7967 10.4171 30.0305 10.2613 30.2352C10.1056 30.4399 9.91048 30.6114 9.68751 30.7396V23.1275C10.3582 22.9547 10.9702 22.6053 11.4599 22.1156C11.9496 21.6258 12.2989 21.0137 12.4716 20.343C12.5356 20.0941 12.4982 19.83 12.3674 19.6087C12.2367 19.3874 12.0235 19.2271 11.7746 19.1631C11.5257 19.099 11.2615 19.1365 11.0402 19.2672C10.819 19.3979 10.6587 19.6112 10.5946 19.8601C10.5304 20.1092 10.4171 20.343 10.2613 20.5477C10.1056 20.7524 9.91048 20.9239 9.68751 21.0521V13.44C10.3582 13.2672 10.9702 12.9178 11.4599 12.4281C11.9496 11.9383 12.2989 11.3262 12.4716 10.6555C12.5356 10.4066 12.4982 10.1425 12.3674 9.9212C12.2367 9.69992 12.0235 9.53963 11.7746 9.47559C11.5257 9.41155 11.2615 9.44901 11.0402 9.57972C10.819 9.71044 10.6587 9.9237 10.5946 10.1726C10.5304 10.4217 10.4171 10.6555 10.2613 10.8602C10.1056 11.0649 9.91048 11.2364 9.68751 11.3646V3.875ZM6.78126 9.6875C6.78171 9.34784 6.87145 9.01426 7.04148 8.72022C7.21151 8.42618 7.45585 8.182 7.75001 8.01217V11.3628C7.45585 11.193 7.21151 10.9488 7.04148 10.6548C6.87145 10.3607 6.78171 10.0272 6.78126 9.6875ZM6.78126 19.375C6.78171 19.0353 6.87145 18.7018 7.04148 18.4077C7.21151 18.1137 7.45585 17.8695 7.75001 17.6997V21.0503C7.45585 20.8805 7.21151 20.6363 7.04148 20.3423C6.87145 20.0482 6.78171 19.7147 6.78126 19.375ZM6.78126 29.0625C6.78171 28.7228 6.87145 28.3893 7.04148 28.0952C7.21151 27.8012 7.45585 27.557 7.75001 27.3872V30.7378C7.45585 30.568 7.21151 30.3238 7.04148 30.0298C6.87145 29.7357 6.78171 29.4022 6.78126 29.0625ZM6.78126 37.7812C6.78171 37.4416 6.87145 37.108 7.04148 36.814C7.21151 36.5199 7.45585 36.2757 7.75001 36.1059V39.4566C7.45585 39.2868 7.21151 39.0426 7.04148 38.7485C6.87145 38.4545 6.78171 38.1209 6.78126 37.7812ZM11.625 50.375V48.4375H37.5445L36.409 50.375H11.625ZM36.1902 55.4944L37.0644 56.0067L35.9866 56.8432L36.1902 55.4944ZM46.5 50.375H43.1457L46.5 44.652V50.375Z" fill="white"/>
</svg>
