<svg width="334" height="28" viewBox="0 0 334 28" fill="none" xmlns="http://www.w3.org/2000/svg">
<path d="M18.1475 11.5667V15.7445H4.57866V11.5667H18.1475ZM6.16765 0.979422V26.9745H0.811523V0.979422H6.16765ZM21.9682 0.979422V26.9745H16.6299V0.979422H21.9682ZM39.5502 5.42502L32.4801 26.9745H26.7848L36.4436 0.979422H40.0679L39.5502 5.42502ZM45.4238 26.9745L38.3361 5.42502L37.7648 0.979422H41.4249L51.1372 26.9745H45.4238ZM45.1025 17.2977V21.4933H31.3731V17.2977H45.1025ZM69.1119 20.1722C69.1119 19.708 69.0404 19.2914 68.8978 18.9224C68.767 18.5415 68.5167 18.1964 68.1478 17.8869C67.7789 17.5656 67.2609 17.2501 66.5947 16.9407C65.928 16.6312 65.0651 16.3098 64.0059 15.9765C62.8273 15.5957 61.7084 15.1672 60.6493 14.6911C59.6019 14.215 58.6736 13.6615 57.8643 13.0307C57.0668 12.3879 56.4358 11.6441 55.9715 10.799C55.5193 9.95389 55.293 8.97193 55.293 7.8531C55.293 6.76998 55.5311 5.78802 56.0072 4.90722C56.4834 4.01456 57.1501 3.2528 58.0069 2.62197C58.8641 1.97923 59.8757 1.48527 61.0421 1.14011C62.2203 0.794934 63.5119 0.622346 64.9164 0.622346C66.8327 0.622346 68.505 0.967518 69.9334 1.65786C71.3614 2.34821 72.4685 3.29445 73.2539 4.4966C74.0514 5.69876 74.4503 7.0735 74.4503 8.62083H69.1298C69.1298 7.85907 68.9693 7.1925 68.648 6.6212C68.3384 6.03796 67.8622 5.57972 67.2195 5.24646C66.5886 4.9132 65.7911 4.74654 64.827 4.74654C63.8986 4.74654 63.1251 4.88939 62.5059 5.17504C61.8872 5.44882 61.4228 5.82373 61.1137 6.29984C60.8041 6.76405 60.6493 7.28773 60.6493 7.87098C60.6493 8.31137 60.7565 8.71009 60.9706 9.06716C61.1969 9.42423 61.5301 9.7575 61.9705 10.067C62.4109 10.3765 62.9524 10.668 63.5952 10.9418C64.2379 11.2156 64.9818 11.4834 65.8268 11.7452C67.2435 12.1737 68.4871 12.6558 69.5584 13.1914C70.6415 13.727 71.5459 14.3281 72.2719 14.9946C72.9983 15.6612 73.5456 16.4169 73.9145 17.262C74.2838 18.1071 74.4682 19.0653 74.4682 20.1365C74.4682 21.2672 74.248 22.2789 73.8076 23.1716C73.3672 24.0643 72.7302 24.8201 71.8973 25.4391C71.0641 26.058 70.0703 26.5281 68.9157 26.8495C67.7611 27.1709 66.4695 27.3315 65.0415 27.3315C63.756 27.3315 62.4881 27.1649 61.2384 26.8316C59.9887 26.4865 58.8519 25.9687 57.8285 25.2783C56.8165 24.588 56.0072 23.7072 55.4003 22.636C54.7933 21.5648 54.4898 20.2972 54.4898 18.8332H59.8636C59.8636 19.6425 59.9887 20.3269 60.2385 20.8863C60.4888 21.4458 60.8398 21.898 61.292 22.2432C61.7564 22.5884 62.3036 22.8383 62.9346 22.9931C63.5773 23.1478 64.2797 23.2252 65.0415 23.2252C65.9698 23.2252 66.7316 23.0943 67.3268 22.8324C67.9337 22.5705 68.3798 22.2075 68.6658 21.7433C68.9632 21.2791 69.1119 20.7554 69.1119 20.1722ZM96.8526 22.7967V26.9745H83.7657V22.7967H96.8526ZM85.4977 0.979422V26.9745H80.1418V0.979422H85.4977ZM119.398 22.7967V26.9745H105.561V22.7967H119.398ZM107.311 0.979422V26.9745H101.955V0.979422H107.311ZM117.595 11.5667V15.6373H105.561V11.5667H117.595ZM119.38 0.979422V5.17504H105.561V0.979422H119.38ZM124.554 0.979422H134.248C136.236 0.979422 137.944 1.27698 139.373 1.87211C140.813 2.46723 141.919 3.34802 142.693 4.51444C143.467 5.68089 143.854 7.11515 143.854 8.81722C143.854 10.2098 143.616 11.406 143.139 12.4058C142.675 13.3937 142.015 14.221 141.158 14.8875C140.313 15.5421 139.319 16.0658 138.176 16.4586L136.48 17.3513H128.053L128.017 13.1735H134.284C135.224 13.1735 136.004 13.0069 136.623 12.6736C137.242 12.3403 137.706 11.8762 138.016 11.281C138.337 10.6859 138.497 9.99557 138.497 9.21001C138.497 8.37682 138.343 7.65671 138.033 7.0497C137.724 6.44265 137.254 5.97848 136.623 5.65708C135.992 5.33572 135.201 5.17504 134.248 5.17504H129.91V26.9745H124.554V0.979422ZM139.087 26.9745L133.159 15.3874L138.819 15.3517L144.818 26.7245V26.9745H139.087ZM163.542 20.1722C163.542 19.708 163.471 19.2914 163.328 18.9224C163.197 18.5415 162.947 18.1964 162.578 17.8869C162.209 17.5656 161.691 17.2501 161.025 16.9407C160.358 16.6312 159.496 16.3098 158.436 15.9765C157.258 15.5957 156.139 15.1672 155.08 14.6911C154.032 14.215 153.104 13.6615 152.294 13.0307C151.497 12.3879 150.866 11.6441 150.402 10.799C149.95 9.95389 149.724 8.97193 149.724 7.8531C149.724 6.76998 149.962 5.78802 150.438 4.90722C150.914 4.01456 151.58 3.2528 152.437 2.62197C153.294 1.97923 154.306 1.48527 155.472 1.14011C156.651 0.794934 157.942 0.622346 159.347 0.622346C161.263 0.622346 162.935 0.967518 164.364 1.65786C165.792 2.34821 166.899 3.29445 167.684 4.4966C168.482 5.69876 168.88 7.0735 168.88 8.62083H163.56C163.56 7.85907 163.399 7.1925 163.078 6.6212C162.769 6.03796 162.293 5.57972 161.65 5.24646C161.019 4.9132 160.222 4.74654 159.257 4.74654C158.329 4.74654 157.555 4.88939 156.936 5.17504C156.318 5.44882 155.853 5.82373 155.544 6.29984C155.235 6.76405 155.08 7.28773 155.08 7.87098C155.08 8.31137 155.187 8.71009 155.401 9.06716C155.627 9.42423 155.961 9.7575 156.401 10.067C156.841 10.3765 157.383 10.668 158.026 10.9418C158.668 11.2156 159.412 11.4834 160.257 11.7452C161.674 12.1737 162.918 12.6558 163.989 13.1914C165.072 13.727 165.976 14.3281 166.702 14.9946C167.428 15.6612 167.976 16.4169 168.345 17.262C168.714 18.1071 168.898 19.0653 168.898 20.1365C168.898 21.2672 168.678 22.2789 168.238 23.1716C167.797 24.0643 167.161 24.8201 166.327 25.4391C165.494 26.058 164.5 26.5281 163.346 26.8495C162.192 27.1709 160.9 27.3315 159.472 27.3315C158.186 27.3315 156.919 27.1649 155.669 26.8316C154.419 26.4865 153.282 25.9687 152.259 25.2783C151.247 24.588 150.438 23.7072 149.831 22.636C149.224 21.5648 148.92 20.2972 148.92 18.8332H154.294C154.294 19.6425 154.419 20.3269 154.669 20.8863C154.919 21.4458 155.27 21.898 155.723 22.2432C156.186 22.5884 156.734 22.8383 157.365 22.9931C158.008 23.1478 158.71 23.2252 159.472 23.2252C160.4 23.2252 161.162 23.0943 161.757 22.8324C162.364 22.5705 162.81 22.2075 163.096 21.7433C163.394 21.2791 163.542 20.7554 163.542 20.1722ZM186.195 0.979422V26.9745H180.857V0.979422H186.195ZM194.193 0.979422V5.17504H172.983V0.979422H194.193ZM204.973 0.979422V26.9745H199.635V0.979422H204.973ZM217.378 0.979422V26.9745H212.021V0.979422H217.378ZM227.733 12.0845V16.2622H215.913V12.0845H227.733ZM228.982 0.979422V5.17504H215.913V0.979422H228.982ZM246.1 0.979422V26.9745H240.762V0.979422H246.1ZM254.098 0.979422V5.17504H232.888V0.979422H254.098ZM273.537 0.979422H278.876V18.1547C278.876 20.1543 278.447 21.8386 277.59 23.2073C276.745 24.5761 275.573 25.6057 274.073 26.296C272.585 26.9863 270.871 27.3315 268.931 27.3315C266.991 27.3315 265.265 26.9863 263.753 26.296C262.254 25.6057 261.075 24.5761 260.218 23.2073C259.373 21.8386 258.951 20.1543 258.951 18.1547V0.979422H264.307V18.1547C264.307 19.3212 264.491 20.2734 264.861 21.0113C265.229 21.7493 265.759 22.2908 266.449 22.636C267.151 22.9812 267.979 23.1538 268.931 23.1538C269.907 23.1538 270.734 22.9812 271.412 22.636C272.103 22.2908 272.627 21.7493 272.984 21.0113C273.353 20.2734 273.537 19.3212 273.537 18.1547V0.979422ZM306.473 0.979422V26.9745H301.117L290.673 9.5492V26.9745H285.317V0.979422H290.673L301.135 18.4225V0.979422H306.473ZM333.768 13.3878V23.6894C333.363 24.1774 332.738 24.707 331.893 25.2783C331.048 25.8378 329.959 26.3198 328.626 26.7245C327.293 27.1292 325.68 27.3315 323.787 27.3315C322.109 27.3315 320.58 27.0578 319.199 26.5103C317.818 25.9508 316.628 25.1355 315.628 24.0643C314.641 22.9931 313.879 21.6838 313.343 20.1365C312.807 18.5772 312.54 16.7978 312.54 14.7982V13.1735C312.54 11.1739 312.796 9.39449 313.308 7.83526C313.831 6.27603 314.575 4.96081 315.539 3.88958C316.503 2.81835 317.652 2.00304 318.985 1.44362C320.318 0.8842 321.8 0.604492 323.431 0.604492C325.692 0.604492 327.549 0.97347 329.001 1.71143C330.453 2.43747 331.56 3.44919 332.321 4.74654C333.095 6.03203 333.572 7.50793 333.75 9.17429H328.555C328.424 8.2935 328.173 7.52581 327.805 6.87114C327.436 6.21651 326.906 5.70469 326.216 5.33572C325.537 4.96674 324.656 4.78225 323.573 4.78225C322.681 4.78225 321.883 4.96674 321.181 5.33572C320.49 5.69279 319.907 6.22249 319.431 6.92473C318.955 7.62697 318.592 8.49586 318.342 9.53137C318.092 10.5669 317.967 11.769 317.967 13.1378V14.7982C317.967 16.1551 318.098 17.3573 318.36 18.4047C318.622 19.4402 319.009 20.315 319.521 21.0292C320.044 21.7314 320.687 22.2611 321.449 22.6181C322.211 22.9752 323.097 23.1538 324.109 23.1538C324.954 23.1538 325.656 23.0824 326.216 22.9395C326.787 22.7967 327.245 22.6241 327.59 22.4218C327.948 22.2075 328.221 22.0052 328.412 21.8147V17.2085H323.52V13.3878H333.768Z" fill="#292930"/>
</svg>
