<svg width="599" height="474" viewBox="0 0 599 474" fill="none" xmlns="http://www.w3.org/2000/svg">
<path d="M63.1172 319.878C43.6576 307.495 46.8418 273.175 42.2422 262.207C39.5297 245.814 36.2275 210.834 44.7189 202.059C55.3332 191.091 65.5941 190.737 68.0703 193.568C70.0512 195.832 70.5464 218.334 70.5464 229.302C71.1363 226.59 73.7312 221.094 79.3922 220.811C86.4684 220.457 86.4684 225.41 82.2227 231.425C77.9769 237.44 79.3922 253.361 76.2079 256.9C73.6604 259.73 71.3721 261.617 70.5464 262.207C70.5464 262.207 72.6701 284.851 76.9158 289.45C80.3124 293.13 96.4933 267.868 104.159 254.777L105.928 276.006C98.1444 294.758 78.6848 329.785 63.1172 319.878Z" fill="#BA4858"/>
<path d="M70.4082 241.332V229.303C70.6441 228.359 71.6112 225.836 73.5925 223.288C75.5738 220.741 80.3149 220.34 82.4377 220.458C81.1404 220.811 77.909 222.156 75.3615 224.703C72.8141 227.251 70.9979 236.851 70.4082 241.332Z" fill="#A12B3C"/>
<path d="M91.6367 106.39V150.402L112.158 136.604V76.4561L139.755 44.6132L108.973 55.2275C97.7296 69.9132 91.6367 87.894 91.6367 106.39Z" fill="#C4C4C4"/>
<path d="M494.98 181.185C488.753 177.788 481.063 180.477 477.997 182.246C480.828 185.548 488.187 192.577 494.98 194.275C503.471 196.398 504.887 193.214 506.656 192.152C508.425 191.091 508.425 187.199 504.887 184.369C501.349 181.538 502.764 185.43 494.98 181.185Z" fill="#BA4858"/>
<path d="M63.3315 211.612C57.3875 212.744 51.8916 217.509 49.8867 219.749C51.8916 218.085 57.1044 214.553 61.9163 213.734C66.7281 212.916 73.8279 214.573 76.7763 215.503V212.673C74.7714 211.848 69.2755 210.479 63.3315 211.612Z" fill="#A12B3C"/>
<path d="M60.5016 189.676C60.5016 226.473 97.2979 225.057 97.2979 225.057C97.2979 225.057 112.513 209.998 112.513 189.676C112.513 169.354 97.2979 155.003 97.2979 155.003C97.2979 155.003 60.5016 152.88 60.5016 189.676Z" fill="#C4C4C4"/>
<ellipse rx="28.3048" ry="40.6881" transform="matrix(-1 0 0 1 101.545 190.027)" fill="#2B2A29"/>
<ellipse cx="278.802" cy="399.486" rx="278.802" ry="54.1329" fill="#E9E9E9"/>
<path fill-rule="evenodd" clip-rule="evenodd" d="M321.864 275.961C321.428 318.273 285.565 350.511 241.329 348.344C196.452 346.144 159.87 310.357 157.741 267.919L321.864 275.961Z" fill="#BA4858"/>
<path fill-rule="evenodd" clip-rule="evenodd" d="M220.69 244.713C219.741 229.273 206.676 216.446 190.648 215.66C174.62 214.875 161.401 226.414 161.709 241.823L220.69 244.713Z" fill="#BA4858"/>
<path fill-rule="evenodd" clip-rule="evenodd" d="M320.038 248.3C319.089 232.86 306.023 220.032 289.996 219.247C273.968 218.462 260.749 230.001 261.056 245.41L320.038 248.3Z" fill="#BA4858"/>
<path fill-rule="evenodd" clip-rule="evenodd" d="M312.635 70.2578C300.134 53.6097 303.339 53.7668 279.606 51.9624C250.089 49.2332 202.019 47.5191 172.528 46.074C134.062 44.1891 83.6952 77.1849 84.7048 117.059L109.113 334.17C109.882 372.693 142.105 412.679 179.93 414.533L308.599 413.219C347.065 415.103 377.21 385.151 376.453 347.27C374.952 272.151 377.414 235.069 377.247 162.581C376.952 147.814 331.048 94.2511 312.635 70.2578ZM247.384 106.187L249.974 107.597L274.605 122.273L219.548 155.495L246.14 108.05L247.384 106.187ZM218.675 79.7647L201.635 156.541L173.798 77.5657L218.675 79.7647ZM155.77 104.905L185.646 157.682L128.562 121.531L155.77 104.905ZM345.244 323.933C345.847 354.109 321.344 377.924 291.212 376.447L196.329 371.798C166.197 370.321 140.694 344.056 140.091 313.88L138.256 222.067C137.653 191.891 162.156 168.077 192.288 169.553L287.813 174.234C317.945 175.71 343.448 201.975 344.051 232.152L345.885 323.964L345.244 323.933Z" fill="#BA4858"/>
<path d="M343.98 405.104L323.2 416.229L334.896 402.815L343.98 405.104Z" fill="#BA4858"/>
<path d="M132.116 78.9268L97.7585 133.174L106.315 337.549L130.712 395.034L303.516 401.858L339.041 378.905L337.393 194.884L266.592 87.1358L132.116 78.9268Z" fill="white"/>
<path fill-rule="evenodd" clip-rule="evenodd" d="M302.327 286.778C301.891 329.09 266.028 361.328 221.792 359.161C176.915 356.961 140.333 321.174 138.204 278.736L302.327 286.778Z" fill="#A12B3C"/>
<path fill-rule="evenodd" clip-rule="evenodd" d="M201.153 255.526C200.204 240.086 187.139 227.259 171.111 226.473C155.083 225.688 141.864 237.227 142.172 252.636L201.153 255.526Z" fill="#A12B3C"/>
<path fill-rule="evenodd" clip-rule="evenodd" d="M300.5 259.113C299.551 243.673 286.485 230.846 270.457 230.06C254.43 229.275 241.211 240.814 241.518 256.223L300.5 259.113Z" fill="#A12B3C"/>
<path fill-rule="evenodd" clip-rule="evenodd" d="M293.097 81.0743C280.596 64.4263 283.801 64.5834 260.068 62.7789C230.551 60.0497 182.481 58.3356 152.99 56.8905C114.524 55.0056 84.3798 84.9579 85.1366 122.839L89.5748 344.987C90.3445 383.509 122.374 415.867 160.199 417.721L289.061 424.035C327.528 425.92 357.672 395.968 356.915 358.087C355.414 282.967 357.876 245.886 357.709 173.397C357.414 158.63 311.51 105.068 293.097 81.0743ZM227.846 117.003L230.436 118.413L255.068 133.09L200.01 166.311L226.602 118.867L227.846 117.003ZM199.137 90.5813L182.097 167.358L154.26 88.3822L199.137 90.5813ZM136.232 115.721L166.108 168.499L109.024 132.348L136.232 115.721ZM325.706 334.749C326.309 364.926 301.806 388.74 271.674 387.264L176.791 382.614C146.659 381.138 121.156 354.873 120.553 324.696L118.719 232.884C118.116 202.708 142.618 178.893 172.75 180.37L268.275 185.05C298.407 186.527 323.91 212.792 324.513 242.968L326.347 334.781L325.706 334.749Z" fill="#A12B3C"/>
<path d="M475.521 229.301V191.444M475.521 186.49V180.829C475.521 179.768 475.238 177.079 474.105 174.814" stroke="url(#paint0_linear)" stroke-width="3" stroke-linecap="round"/>
<path d="M367.056 246.918C377.135 253.47 402.191 264.599 421.791 256.704C441.391 248.809 460.467 221.581 467.555 208.953" stroke="#BA4858" stroke-width="37"/>
<path d="M472.624 218.701C465.536 231.329 442.976 262.669 423.376 270.563C409.516 276.146 397.534 275.297 388.141 272.004" stroke="#A12B3C" stroke-width="11"/>
<path d="M366.193 261.854C371.41 264.92 382.401 270.041 389.016 272.384" stroke="#A12B3C" stroke-width="11"/>
<path d="M375.746 242.039V242.039C375.746 264.706 357.371 283.081 334.705 283.081H331.874" stroke="#C4C4C4" stroke-width="7"/>
<path d="M486.489 183.309C467.242 175.95 458.184 193.687 456.062 203.476C460.425 209.491 473.115 222.794 488.966 227.889C508.779 234.257 519.747 228.596 530.362 221.52C540.976 214.444 527.531 203.476 519.747 203.476C511.964 203.476 510.548 192.508 486.489 183.309Z" fill="#BA4858"/>
<path d="M496.395 187.197C498.66 188.329 503 191.914 504.887 193.565L505.948 192.504C505.83 192.268 505.453 191.655 504.887 191.089C503.825 189.32 493.565 185.782 496.395 187.197Z" fill="#A12B3C"/>
<path d="M510.902 202.764C504.887 204.179 500.288 215.147 504.534 209.486C507.893 205.007 515.45 203.62 518.925 203.476C518.256 202.767 515.714 201.632 510.902 202.764Z" fill="#A12B3C"/>
<ellipse cx="377.516" cy="203.473" rx="28.3048" ry="40.6881" fill="#2B2A29"/>
<path d="M323.735 53.4557L139.4 44.6105C123.784 44.4636 118.816 46.1518 110.034 54.1631C159.568 55.8142 268.258 60.9565 315.244 65.4853C362.23 70.014 377.75 138.606 379.637 172.336L390.252 167.736C385.44 84.5203 343.903 54.5172 323.735 53.4557Z" fill="#4E4E4E"/>
<path d="M122.064 54.5187C105.931 53.9526 101.543 66.3169 96.2363 79.2854C101.19 64.0715 107.322 56.6415 110.389 53.811C114.43 54.1289 119.482 54.3908 123.247 54.5604C129.007 54.82 131.752 54.8634 123.247 54.5604C122.874 54.5472 122.481 54.5333 122.064 54.5187Z" fill="#4E4E4E"/>
<path d="M418.558 203.118C418.558 239.914 381.762 238.499 381.762 238.499C381.762 238.499 366.547 223.44 366.547 203.118C366.547 182.796 381.762 168.445 381.762 168.445C381.762 168.445 418.558 166.322 418.558 203.118Z" fill="#C4C4C4"/>
<rect width="33.2581" height="19.8134" rx="9.90668" transform="matrix(0.997859 0.0654031 0 1 300.385 270.342)" fill="#393939"/>
<mask id="mask0" mask-type="alpha" maskUnits="userSpaceOnUse" x="36" y="262" width="53" height="64">
<path d="M54.1329 300.424C51.0194 292.498 45.0518 271.883 42.4572 262.566C40.4522 273.77 36.4424 296.39 36.4424 297.239C36.4424 298.088 45.8773 316.699 50.5948 325.898L81.0224 320.945L88.8063 306.438C84.5048 311.598 71.4605 318.232 67.2239 316.345C64.2971 315.042 58.0248 310.33 54.1329 300.424Z" fill="#A12B3C"/>
</mask>
<g mask="url(#mask0)">
<path d="M62.9785 319.884C43.519 307.5 46.7031 273.181 42.1036 262.213C39.391 245.819 36.0888 210.839 44.5802 202.065C55.1945 191.097 65.4554 190.743 67.9316 193.573C69.9125 195.838 70.4077 218.34 70.4077 229.308C70.9976 226.595 73.5925 221.099 79.2535 220.816C86.3297 220.463 86.3297 225.416 82.084 231.431C77.8383 237.445 79.2535 253.367 76.0692 256.905C73.5218 259.736 71.2335 261.623 70.4077 262.213C70.4077 262.213 72.5314 284.856 76.7771 289.456C80.1737 293.135 96.3546 267.873 104.02 254.782L105.79 276.011C98.0057 294.763 78.5462 329.79 62.9785 319.884Z" fill="#A12B3C"/>
</g>
<path fill-rule="evenodd" clip-rule="evenodd" d="M514.793 122.449C561.299 122.449 598.999 95.2031 598.999 61.5936C598.999 27.9841 561.299 0.738281 514.793 0.738281C468.287 0.738281 430.586 27.9841 430.586 61.5936C430.586 82.1397 444.675 100.308 466.252 111.327C463.491 117.245 459.268 122.5 452.797 125.468C450.744 126.409 447.348 127.399 447.348 127.399C447.348 127.399 459.881 134.326 468.46 133.69C478.117 132.973 485.592 125.761 490.613 120.916C490.909 120.63 491.196 120.353 491.475 120.086C498.88 121.625 506.703 122.449 514.793 122.449Z" fill="url(#paint1_radial)"/>
<circle cx="477.29" cy="63.011" r="11.3219" fill="white"/>
<circle cx="514.794" cy="63.011" r="11.3219" fill="white"/>
<circle cx="552.297" cy="63.011" r="11.3219" fill="white"/>
<defs>
<linearGradient id="paint0_linear" x1="474.813" y1="174.814" x2="474.813" y2="229.301" gradientUnits="userSpaceOnUse">
<stop stop-color="white"/>
<stop offset="1" stop-color="white" stop-opacity="0"/>
</linearGradient>
<radialGradient id="paint1_radial" cx="0" cy="0" r="1" gradientUnits="userSpaceOnUse" gradientTransform="translate(486.488 37.8876) rotate(48.9551) scale(94.2918 119.403)">
<stop stop-color="#CF5667"/>
<stop offset="1" stop-color="#A12B3C"/>
</radialGradient>
</defs>
</svg>
