<svg width="555" height="465" viewBox="0 0 555 465" fill="none" xmlns="http://www.w3.org/2000/svg">
<ellipse cx="90.1431" cy="256.051" rx="6.09294" ry="17.2487" transform="rotate(7.03326 90.1431 256.051)" fill="#BA4858"/>
<ellipse cx="89.1216" cy="256.414" rx="6.09294" ry="17.2487" transform="rotate(7.03326 89.1216 256.414)" fill="#BA4858"/>
<ellipse cx="88.105" cy="256.78" rx="6.09294" ry="17.2487" transform="rotate(7.03326 88.105 256.78)" fill="#BA4858"/>
<ellipse cx="87.0874" cy="257.148" rx="6.09294" ry="17.2487" transform="rotate(7.03326 87.0874 257.148)" fill="#BA4858"/>
<ellipse cx="86.0718" cy="257.522" rx="6.09294" ry="17.2487" transform="rotate(7.03326 86.0718 257.522)" fill="#BA4858"/>
<ellipse cx="85.0562" cy="257.896" rx="6.09294" ry="17.2487" transform="rotate(7.03326 85.0562 257.896)" fill="#BA4858"/>
<ellipse cx="84.0444" cy="258.276" rx="6.09294" ry="17.2487" transform="rotate(7.03326 84.0444 258.276)" fill="#BA4858"/>
<ellipse cx="83.0288" cy="258.658" rx="6.09294" ry="17.2487" transform="rotate(7.03326 83.0288 258.658)" fill="#BA4858"/>
<ellipse cx="82.021" cy="259.043" rx="6.09294" ry="17.2487" transform="rotate(7.03326 82.021 259.043)" fill="#BA4858"/>
<ellipse cx="81.0103" cy="259.431" rx="6.09294" ry="17.2487" transform="rotate(7.03326 81.0103 259.431)" fill="#BA4858"/>
<ellipse cx="79.9985" cy="259.824" rx="6.09294" ry="17.2487" transform="rotate(7.03326 79.9985 259.824)" fill="#BA4858"/>
<ellipse cx="78.9927" cy="260.217" rx="6.09294" ry="17.2487" transform="rotate(7.03326 78.9927 260.217)" fill="#BA4858"/>
<ellipse cx="77.9858" cy="260.614" rx="6.09294" ry="17.2487" transform="rotate(7.03326 77.9858 260.614)" fill="#BA4858"/>
<ellipse cx="76.9819" cy="261.015" rx="6.09294" ry="17.2487" transform="rotate(7.03326 76.9819 261.015)" fill="#BA4858"/>
<ellipse cx="75.9751" cy="261.417" rx="6.09294" ry="17.2487" transform="rotate(7.03326 75.9751 261.417)" fill="#BA4858"/>
<ellipse cx="74.9732" cy="261.824" rx="6.09294" ry="17.2487" transform="rotate(7.03326 74.9732 261.824)" fill="#BA4858"/>
<ellipse cx="73.9722" cy="262.231" rx="6.09294" ry="17.2487" transform="rotate(7.03326 73.9722 262.231)" fill="#BA4858"/>
<ellipse cx="72.9712" cy="262.643" rx="6.09294" ry="17.2487" transform="rotate(7.03326 72.9712 262.643)" fill="#BA4858"/>
<ellipse cx="71.9702" cy="263.058" rx="6.09294" ry="17.2487" transform="rotate(7.03326 71.9702 263.058)" fill="#BA4858"/>
<ellipse cx="70.9722" cy="263.477" rx="6.09294" ry="17.2487" transform="rotate(7.03326 70.9722 263.477)" fill="#BA4858"/>
<ellipse cx="69.9741" cy="263.897" rx="6.09294" ry="17.2487" transform="rotate(7.03326 69.9741 263.897)" fill="#BA4858"/>
<ellipse cx="68.979" cy="264.321" rx="6.09294" ry="17.2487" transform="rotate(7.03326 68.979 264.321)" fill="#BA4858"/>
<ellipse cx="67.9839" cy="264.747" rx="6.09294" ry="17.2487" transform="rotate(7.03326 67.9839 264.747)" fill="#BA4858"/>
<ellipse cx="66.9917" cy="265.176" rx="6.09294" ry="17.2487" transform="rotate(7.03326 66.9917 265.176)" fill="#BA4858"/>
<ellipse cx="66.0005" cy="265.607" rx="6.09294" ry="17.2487" transform="rotate(7.03326 66.0005 265.607)" fill="#BA4858"/>
<ellipse cx="65.0083" cy="266.045" rx="6.09294" ry="17.2487" transform="rotate(7.03326 65.0083 266.045)" fill="#BA4858"/>
<ellipse cx="64.0181" cy="266.482" rx="6.09294" ry="17.2487" transform="rotate(7.03326 64.0181 266.482)" fill="#BA4858"/>
<ellipse cx="63.0327" cy="266.926" rx="6.09294" ry="17.2487" transform="rotate(7.03326 63.0327 266.926)" fill="#BA4858"/>
<ellipse cx="62.0444" cy="267.371" rx="6.09294" ry="17.2487" transform="rotate(7.03326 62.0444 267.371)" fill="#BA4858"/>
<ellipse cx="61.061" cy="267.819" rx="6.09294" ry="17.2487" transform="rotate(7.03326 61.061 267.819)" fill="#BA4858"/>
<ellipse cx="60.0776" cy="268.273" rx="6.09294" ry="17.2487" transform="rotate(7.03326 60.0776 268.273)" fill="#BA4858"/>
<ellipse cx="59.0962" cy="268.727" rx="6.09294" ry="17.2487" transform="rotate(7.03326 59.0962 268.727)" fill="#BA4858"/>
<ellipse cx="58.1148" cy="269.186" rx="6.09294" ry="17.2487" transform="rotate(7.03326 58.1148 269.186)" fill="#BA4858"/>
<ellipse cx="57.1382" cy="269.651" rx="6.09294" ry="17.2487" transform="rotate(7.03326 57.1382 269.651)" fill="#BA4858"/>
<ellipse cx="56.1597" cy="270.115" rx="6.09294" ry="17.2487" transform="rotate(7.03326 56.1597 270.115)" fill="#BA4858"/>
<ellipse cx="55.188" cy="270.589" rx="6.09294" ry="17.2487" transform="rotate(7.03326 55.188 270.589)" fill="#BA4858"/>
<ellipse cx="54.2153" cy="271.061" rx="6.09294" ry="17.2487" transform="rotate(7.03326 54.2153 271.061)" fill="#BA4858"/>
<ellipse cx="53.2437" cy="271.54" rx="6.09294" ry="17.2487" transform="rotate(7.03326 53.2437 271.54)" fill="#BA4858"/>
<ellipse cx="52.2739" cy="272.024" rx="6.09294" ry="17.2487" transform="rotate(7.03326 52.2739 272.024)" fill="#BA4858"/>
<ellipse cx="51.3081" cy="272.51" rx="6.09294" ry="17.2487" transform="rotate(7.03326 51.3081 272.51)" fill="#BA4858"/>
<ellipse cx="50.3452" cy="273.003" rx="6.09294" ry="17.2487" transform="rotate(7.03326 50.3452 273.003)" fill="#BA4858"/>
<ellipse cx="49.3814" cy="273.498" rx="6.09294" ry="17.2487" transform="rotate(7.03326 49.3814 273.498)" fill="#BA4858"/>
<ellipse cx="48.4233" cy="273.999" rx="6.09294" ry="17.2487" transform="rotate(7.03326 48.4233 273.999)" fill="#BA4858"/>
<ellipse cx="47.4653" cy="274.504" rx="6.09294" ry="17.2487" transform="rotate(7.03326 47.4653 274.504)" fill="#BA4858"/>
<ellipse cx="46.5142" cy="275.015" rx="6.09294" ry="17.2487" transform="rotate(7.03326 46.5142 275.015)" fill="#BA4858"/>
<ellipse cx="45.562" cy="275.533" rx="6.09294" ry="17.2487" transform="rotate(7.03326 45.562 275.533)" fill="#BA4858"/>
<ellipse cx="44.6157" cy="276.055" rx="6.09294" ry="17.2487" transform="rotate(7.03326 44.6157 276.055)" fill="#BA4858"/>
<ellipse cx="43.6694" cy="276.584" rx="6.09294" ry="17.2487" transform="rotate(7.03326 43.6694 276.584)" fill="#BA4858"/>
<ellipse cx="42.73" cy="277.117" rx="6.09294" ry="17.2487" transform="rotate(7.03326 42.73 277.117)" fill="#BA4858"/>
<ellipse cx="41.7925" cy="277.659" rx="6.09294" ry="17.2487" transform="rotate(7.03326 41.7925 277.659)" fill="#BA4858"/>
<ellipse cx="40.856" cy="278.204" rx="6.09294" ry="17.2487" transform="rotate(7.03326 40.856 278.204)" fill="#BA4858"/>
<ellipse cx="39.9282" cy="278.759" rx="6.09294" ry="17.2487" transform="rotate(7.03326 39.9282 278.759)" fill="#BA4858"/>
<ellipse cx="39.0024" cy="279.32" rx="6.09294" ry="17.2487" transform="rotate(7.03326 39.0024 279.32)" fill="#BA4858"/>
<ellipse cx="38.0806" cy="279.889" rx="6.09294" ry="17.2487" transform="rotate(7.03326 38.0806 279.889)" fill="#BA4858"/>
<ellipse cx="37.1665" cy="280.467" rx="6.09294" ry="17.2487" transform="rotate(7.03326 37.1665 280.467)" fill="#BA4858"/>
<ellipse cx="36.2573" cy="281.052" rx="6.09294" ry="17.2487" transform="rotate(7.03326 36.2573 281.052)" fill="#BA4858"/>
<ellipse cx="35.354" cy="281.649" rx="6.09294" ry="17.2487" transform="rotate(7.03326 35.354 281.649)" fill="#BA4858"/>
<ellipse cx="34.4566" cy="282.255" rx="6.09294" ry="17.2487" transform="rotate(7.03326 34.4566 282.255)" fill="#BA4858"/>
<ellipse cx="33.5649" cy="282.868" rx="6.09294" ry="17.2487" transform="rotate(7.03326 33.5649 282.868)" fill="#BA4858"/>
<ellipse cx="32.6841" cy="283.494" rx="6.09294" ry="17.2487" transform="rotate(7.03326 32.6841 283.494)" fill="#BA4858"/>
<ellipse cx="31.8101" cy="284.135" rx="6.09294" ry="17.2487" transform="rotate(7.03326 31.8101 284.135)" fill="#BA4858"/>
<ellipse cx="30.9468" cy="284.787" rx="6.09294" ry="17.2487" transform="rotate(7.03326 30.9468 284.787)" fill="#BA4858"/>
<ellipse cx="30.0962" cy="285.453" rx="6.09294" ry="17.2487" transform="rotate(7.03326 30.0962 285.453)" fill="#BA4858"/>
<ellipse cx="29.2534" cy="286.135" rx="6.09294" ry="17.2487" transform="rotate(7.03326 29.2534 286.135)" fill="#BA4858"/>
<ellipse cx="28.4292" cy="286.831" rx="6.09294" ry="17.2487" transform="rotate(7.03326 28.4292 286.831)" fill="#BA4858"/>
<ellipse cx="27.6157" cy="287.548" rx="6.09294" ry="17.2487" transform="rotate(7.03326 27.6157 287.548)" fill="#BA4858"/>
<ellipse cx="26.8247" cy="288.285" rx="6.09294" ry="17.2487" transform="rotate(7.03326 26.8247 288.285)" fill="#BA4858"/>
<ellipse cx="26.0523" cy="289.042" rx="6.09294" ry="17.2487" transform="rotate(7.03326 26.0523 289.042)" fill="#BA4858"/>
<ellipse cx="25.3071" cy="289.826" rx="6.09294" ry="17.2487" transform="rotate(7.03326 25.3071 289.826)" fill="#BA4858"/>
<ellipse cx="24.5933" cy="290.634" rx="6.09294" ry="17.2487" transform="rotate(7.03326 24.5933 290.634)" fill="#BA4858"/>
<ellipse cx="23.9116" cy="291.475" rx="6.09294" ry="17.2487" transform="rotate(7.03326 23.9116 291.475)" fill="#BA4858"/>
<ellipse cx="23.2739" cy="292.35" rx="6.09294" ry="17.2487" transform="rotate(7.03326 23.2739 292.35)" fill="#BA4858"/>
<ellipse cx="22.6948" cy="293.263" rx="6.09294" ry="17.2487" transform="rotate(7.03326 22.6948 293.263)" fill="#BA4858"/>
<ellipse cx="22.1851" cy="294.215" rx="6.09294" ry="17.2487" transform="rotate(7.03326 22.1851 294.215)" fill="#BA4858"/>
<ellipse cx="21.7661" cy="295.21" rx="6.09294" ry="17.2487" transform="rotate(7.03326 21.7661 295.21)" fill="#BA4858"/>
<ellipse cx="21.4595" cy="296.247" rx="6.09294" ry="17.2487" transform="rotate(7.03326 21.4595 296.247)" fill="#BA4858"/>
<ellipse cx="21.2964" cy="297.314" rx="6.09294" ry="17.2487" transform="rotate(7.03326 21.2964 297.314)" fill="#BA4858"/>
<ellipse cx="21.3052" cy="298.398" rx="6.09294" ry="17.2487" transform="rotate(7.03326 21.3052 298.398)" fill="#BA4858"/>
<ellipse cx="21.4966" cy="299.459" rx="6.09294" ry="17.2487" transform="rotate(7.03326 21.4966 299.459)" fill="#BA4858"/>
<ellipse cx="21.8286" cy="300.444" rx="6.09294" ry="17.2487" transform="rotate(7.03326 21.8286 300.444)" fill="#BA4858"/>
<ellipse cx="22.2251" cy="301.45" rx="6.09294" ry="17.2487" transform="rotate(7.03326 22.2251 301.45)" fill="#BA4858"/>
<ellipse cx="22.6607" cy="302.44" rx="6.09294" ry="17.2487" transform="rotate(7.03326 22.6607 302.44)" fill="#BA4858"/>
<ellipse cx="23.1431" cy="303.411" rx="6.09294" ry="17.2487" transform="rotate(7.03326 23.1431 303.411)" fill="#BA4858"/>
<ellipse cx="23.6694" cy="304.357" rx="6.09294" ry="17.2487" transform="rotate(7.03326 23.6694 304.357)" fill="#BA4858"/>
<ellipse cx="24.2407" cy="305.276" rx="6.09294" ry="17.2487" transform="rotate(7.03326 24.2407 305.276)" fill="#BA4858"/>
<ellipse cx="24.8501" cy="306.169" rx="6.09294" ry="17.2487" transform="rotate(7.03326 24.8501 306.169)" fill="#BA4858"/>
<ellipse cx="25.5073" cy="307.03" rx="6.09294" ry="17.2487" transform="rotate(7.03326 25.5073 307.03)" fill="#BA4858"/>
<ellipse cx="26.2046" cy="307.858" rx="6.09294" ry="17.2487" transform="rotate(7.03326 26.2046 307.858)" fill="#BA4858"/>
<ellipse cx="26.9409" cy="308.65" rx="6.09294" ry="17.2487" transform="rotate(7.03326 26.9409 308.65)" fill="#BA4858"/>
<ellipse cx="27.7163" cy="309.406" rx="6.09294" ry="17.2487" transform="rotate(7.03326 27.7163 309.406)" fill="#BA4858"/>
<ellipse cx="28.5269" cy="310.124" rx="6.09294" ry="17.2487" transform="rotate(7.03326 28.5269 310.124)" fill="#BA4858"/>
<ellipse cx="29.3696" cy="310.803" rx="6.09294" ry="17.2487" transform="rotate(7.03326 29.3696 310.803)" fill="#BA4858"/>
<ellipse cx="30.2446" cy="311.441" rx="6.09294" ry="17.2487" transform="rotate(7.03326 30.2446 311.441)" fill="#BA4858"/>
<ellipse cx="31.145" cy="312.037" rx="6.09294" ry="17.2487" transform="rotate(7.03326 31.145 312.037)" fill="#BA4858"/>
<ellipse cx="32.0747" cy="312.596" rx="6.09294" ry="17.2487" transform="rotate(7.03326 32.0747 312.596)" fill="#BA4858"/>
<ellipse cx="33.0239" cy="313.111" rx="6.09294" ry="17.2487" transform="rotate(7.03326 33.0239 313.111)" fill="#BA4858"/>
<ellipse cx="33.9976" cy="313.587" rx="6.09294" ry="17.2487" transform="rotate(7.03326 33.9976 313.587)" fill="#BA4858"/>
<ellipse cx="34.9868" cy="314.02" rx="6.09294" ry="17.2487" transform="rotate(7.03326 34.9868 314.02)" fill="#BA4858"/>
<ellipse cx="35.9937" cy="314.417" rx="6.09294" ry="17.2487" transform="rotate(7.03326 35.9937 314.417)" fill="#BA4858"/>
<ellipse cx="37.0181" cy="314.772" rx="6.09294" ry="17.2487" transform="rotate(7.03326 37.0181 314.772)" fill="#BA4858"/>
<ellipse cx="38.0523" cy="315.088" rx="6.09294" ry="17.2487" transform="rotate(7.03326 38.0523 315.088)" fill="#BA4858"/>
<ellipse cx="39.0991" cy="315.363" rx="6.09294" ry="17.2487" transform="rotate(7.03326 39.0991 315.363)" fill="#BA4858"/>
<ellipse cx="40.1519" cy="315.602" rx="6.09294" ry="17.2487" transform="rotate(7.03326 40.1519 315.602)" fill="#BA4858"/>
<ellipse cx="41.2163" cy="315.801" rx="6.09294" ry="17.2487" transform="rotate(7.03326 41.2163 315.801)" fill="#BA4858"/>
<ellipse cx="42.2847" cy="315.957" rx="6.09294" ry="17.2487" transform="rotate(7.03326 42.2847 315.957)" fill="#BA4858"/>
<ellipse cx="43.3599" cy="316.075" rx="6.09294" ry="17.2487" transform="rotate(7.03326 43.3599 316.075)" fill="#BA4858"/>
<ellipse cx="44.4351" cy="316.146" rx="6.09294" ry="17.2487" transform="rotate(7.03326 44.4351 316.146)" fill="#BA4858"/>
<ellipse cx="45.5474" cy="316.174" rx="6.09294" ry="17.2487" transform="rotate(7.03326 45.5474 316.174)" fill="#BA4858"/>
<ellipse cx="46.6519" cy="316.141" rx="6.09294" ry="17.2487" transform="rotate(7.03326 46.6519 316.141)" fill="#BA4858"/>
<path d="M448.595 190.105C452.042 192.422 455.775 192.358 457.211 192.036L460.083 184.796L452.903 180.935C450.031 183.026 445.149 187.788 448.595 190.105Z" fill="#A12B3C"/>
<path d="M351.664 243.945C363.163 247.231 390.245 250.493 406.578 237.257C422.912 224.021 433.097 192.551 436.148 178.47" stroke="#BA4858" stroke-width="37"/>
<path d="M445.299 184.455C442.248 198.535 429.951 234.934 413.618 248.169C402.068 257.529 390.424 260.223 380.528 259.836" stroke="#A12B3C" stroke-width="11"/>
<ellipse cx="277.388" cy="391.088" rx="277.388" ry="53.8583" fill="#E9E9E9"/>
<ellipse cx="90.1431" cy="256.051" rx="6.09294" ry="17.2487" transform="rotate(7.03326 90.1431 256.051)" fill="#BA4858"/>
<ellipse cx="89.1216" cy="256.414" rx="6.09294" ry="17.2487" transform="rotate(7.03326 89.1216 256.414)" fill="#BA4858"/>
<ellipse cx="88.105" cy="256.78" rx="6.09294" ry="17.2487" transform="rotate(7.03326 88.105 256.78)" fill="#BA4858"/>
<ellipse cx="87.0874" cy="257.148" rx="6.09294" ry="17.2487" transform="rotate(7.03326 87.0874 257.148)" fill="#BA4858"/>
<ellipse cx="86.0718" cy="257.522" rx="6.09294" ry="17.2487" transform="rotate(7.03326 86.0718 257.522)" fill="#BA4858"/>
<ellipse cx="85.0562" cy="257.896" rx="6.09294" ry="17.2487" transform="rotate(7.03326 85.0562 257.896)" fill="#BA4858"/>
<ellipse cx="84.0444" cy="258.276" rx="6.09294" ry="17.2487" transform="rotate(7.03326 84.0444 258.276)" fill="#BA4858"/>
<ellipse cx="83.0288" cy="258.658" rx="6.09294" ry="17.2487" transform="rotate(7.03326 83.0288 258.658)" fill="#BA4858"/>
<ellipse cx="82.021" cy="259.043" rx="6.09294" ry="17.2487" transform="rotate(7.03326 82.021 259.043)" fill="#BA4858"/>
<ellipse cx="81.0103" cy="259.431" rx="6.09294" ry="17.2487" transform="rotate(7.03326 81.0103 259.431)" fill="#BA4858"/>
<ellipse cx="79.9985" cy="259.824" rx="6.09294" ry="17.2487" transform="rotate(7.03326 79.9985 259.824)" fill="#BA4858"/>
<ellipse cx="78.9927" cy="260.217" rx="6.09294" ry="17.2487" transform="rotate(7.03326 78.9927 260.217)" fill="#BA4858"/>
<ellipse cx="77.9858" cy="260.614" rx="6.09294" ry="17.2487" transform="rotate(7.03326 77.9858 260.614)" fill="#BA4858"/>
<ellipse cx="76.9819" cy="261.015" rx="6.09294" ry="17.2487" transform="rotate(7.03326 76.9819 261.015)" fill="#BA4858"/>
<ellipse cx="75.9751" cy="261.417" rx="6.09294" ry="17.2487" transform="rotate(7.03326 75.9751 261.417)" fill="#BA4858"/>
<ellipse cx="74.9732" cy="261.824" rx="6.09294" ry="17.2487" transform="rotate(7.03326 74.9732 261.824)" fill="#BA4858"/>
<ellipse cx="73.9722" cy="262.231" rx="6.09294" ry="17.2487" transform="rotate(7.03326 73.9722 262.231)" fill="#BA4858"/>
<ellipse cx="72.9712" cy="262.643" rx="6.09294" ry="17.2487" transform="rotate(7.03326 72.9712 262.643)" fill="#BA4858"/>
<ellipse cx="71.9702" cy="263.058" rx="6.09294" ry="17.2487" transform="rotate(7.03326 71.9702 263.058)" fill="#BA4858"/>
<ellipse cx="70.9722" cy="263.477" rx="6.09294" ry="17.2487" transform="rotate(7.03326 70.9722 263.477)" fill="#BA4858"/>
<ellipse cx="69.9741" cy="263.897" rx="6.09294" ry="17.2487" transform="rotate(7.03326 69.9741 263.897)" fill="#BA4858"/>
<ellipse cx="68.979" cy="264.321" rx="6.09294" ry="17.2487" transform="rotate(7.03326 68.979 264.321)" fill="#BA4858"/>
<ellipse cx="67.9839" cy="264.747" rx="6.09294" ry="17.2487" transform="rotate(7.03326 67.9839 264.747)" fill="#BA4858"/>
<ellipse cx="66.9917" cy="265.176" rx="6.09294" ry="17.2487" transform="rotate(7.03326 66.9917 265.176)" fill="#BA4858"/>
<ellipse cx="66.0005" cy="265.607" rx="6.09294" ry="17.2487" transform="rotate(7.03326 66.0005 265.607)" fill="#BA4858"/>
<ellipse cx="65.0083" cy="266.045" rx="6.09294" ry="17.2487" transform="rotate(7.03326 65.0083 266.045)" fill="#BA4858"/>
<ellipse cx="64.0181" cy="266.482" rx="6.09294" ry="17.2487" transform="rotate(7.03326 64.0181 266.482)" fill="#BA4858"/>
<ellipse cx="63.0327" cy="266.926" rx="6.09294" ry="17.2487" transform="rotate(7.03326 63.0327 266.926)" fill="#BA4858"/>
<ellipse cx="62.0444" cy="267.371" rx="6.09294" ry="17.2487" transform="rotate(7.03326 62.0444 267.371)" fill="#BA4858"/>
<ellipse cx="61.061" cy="267.819" rx="6.09294" ry="17.2487" transform="rotate(7.03326 61.061 267.819)" fill="#BA4858"/>
<ellipse cx="60.0776" cy="268.273" rx="6.09294" ry="17.2487" transform="rotate(7.03326 60.0776 268.273)" fill="#BA4858"/>
<ellipse cx="59.0962" cy="268.727" rx="6.09294" ry="17.2487" transform="rotate(7.03326 59.0962 268.727)" fill="#BA4858"/>
<ellipse cx="58.1148" cy="269.186" rx="6.09294" ry="17.2487" transform="rotate(7.03326 58.1148 269.186)" fill="#BA4858"/>
<ellipse cx="57.1382" cy="269.651" rx="6.09294" ry="17.2487" transform="rotate(7.03326 57.1382 269.651)" fill="#BA4858"/>
<ellipse cx="56.1597" cy="270.115" rx="6.09294" ry="17.2487" transform="rotate(7.03326 56.1597 270.115)" fill="#BA4858"/>
<ellipse cx="55.188" cy="270.589" rx="6.09294" ry="17.2487" transform="rotate(7.03326 55.188 270.589)" fill="#BA4858"/>
<ellipse cx="54.2153" cy="271.061" rx="6.09294" ry="17.2487" transform="rotate(7.03326 54.2153 271.061)" fill="#BA4858"/>
<ellipse cx="53.2437" cy="271.54" rx="6.09294" ry="17.2487" transform="rotate(7.03326 53.2437 271.54)" fill="#BA4858"/>
<ellipse cx="52.2739" cy="272.024" rx="6.09294" ry="17.2487" transform="rotate(7.03326 52.2739 272.024)" fill="#BA4858"/>
<ellipse cx="51.3081" cy="272.51" rx="6.09294" ry="17.2487" transform="rotate(7.03326 51.3081 272.51)" fill="#BA4858"/>
<ellipse cx="50.3452" cy="273.003" rx="6.09294" ry="17.2487" transform="rotate(7.03326 50.3452 273.003)" fill="#BA4858"/>
<ellipse cx="49.3814" cy="273.498" rx="6.09294" ry="17.2487" transform="rotate(7.03326 49.3814 273.498)" fill="#BA4858"/>
<ellipse cx="48.4233" cy="273.999" rx="6.09294" ry="17.2487" transform="rotate(7.03326 48.4233 273.999)" fill="#BA4858"/>
<ellipse cx="47.4653" cy="274.504" rx="6.09294" ry="17.2487" transform="rotate(7.03326 47.4653 274.504)" fill="#BA4858"/>
<ellipse cx="46.5142" cy="275.015" rx="6.09294" ry="17.2487" transform="rotate(7.03326 46.5142 275.015)" fill="#BA4858"/>
<ellipse cx="45.562" cy="275.533" rx="6.09294" ry="17.2487" transform="rotate(7.03326 45.562 275.533)" fill="#BA4858"/>
<ellipse cx="44.6157" cy="276.055" rx="6.09294" ry="17.2487" transform="rotate(7.03326 44.6157 276.055)" fill="#BA4858"/>
<ellipse cx="43.6694" cy="276.584" rx="6.09294" ry="17.2487" transform="rotate(7.03326 43.6694 276.584)" fill="#BA4858"/>
<ellipse cx="42.73" cy="277.117" rx="6.09294" ry="17.2487" transform="rotate(7.03326 42.73 277.117)" fill="#BA4858"/>
<ellipse cx="41.7925" cy="277.659" rx="6.09294" ry="17.2487" transform="rotate(7.03326 41.7925 277.659)" fill="#BA4858"/>
<ellipse cx="40.856" cy="278.204" rx="6.09294" ry="17.2487" transform="rotate(7.03326 40.856 278.204)" fill="#BA4858"/>
<ellipse cx="39.9282" cy="278.759" rx="6.09294" ry="17.2487" transform="rotate(7.03326 39.9282 278.759)" fill="#BA4858"/>
<ellipse cx="39.0024" cy="279.32" rx="6.09294" ry="17.2487" transform="rotate(7.03326 39.0024 279.32)" fill="#BA4858"/>
<ellipse cx="38.0806" cy="279.889" rx="6.09294" ry="17.2487" transform="rotate(7.03326 38.0806 279.889)" fill="#BA4858"/>
<ellipse cx="37.1665" cy="280.467" rx="6.09294" ry="17.2487" transform="rotate(7.03326 37.1665 280.467)" fill="#BA4858"/>
<ellipse cx="36.2573" cy="281.052" rx="6.09294" ry="17.2487" transform="rotate(7.03326 36.2573 281.052)" fill="#BA4858"/>
<ellipse cx="35.354" cy="281.649" rx="6.09294" ry="17.2487" transform="rotate(7.03326 35.354 281.649)" fill="#BA4858"/>
<ellipse cx="34.4566" cy="282.255" rx="6.09294" ry="17.2487" transform="rotate(7.03326 34.4566 282.255)" fill="#BA4858"/>
<ellipse cx="33.5649" cy="282.868" rx="6.09294" ry="17.2487" transform="rotate(7.03326 33.5649 282.868)" fill="#BA4858"/>
<ellipse cx="32.6841" cy="283.494" rx="6.09294" ry="17.2487" transform="rotate(7.03326 32.6841 283.494)" fill="#BA4858"/>
<ellipse cx="31.8101" cy="284.135" rx="6.09294" ry="17.2487" transform="rotate(7.03326 31.8101 284.135)" fill="#BA4858"/>
<ellipse cx="30.9468" cy="284.787" rx="6.09294" ry="17.2487" transform="rotate(7.03326 30.9468 284.787)" fill="#BA4858"/>
<ellipse cx="30.0962" cy="285.453" rx="6.09294" ry="17.2487" transform="rotate(7.03326 30.0962 285.453)" fill="#BA4858"/>
<ellipse cx="29.2534" cy="286.135" rx="6.09294" ry="17.2487" transform="rotate(7.03326 29.2534 286.135)" fill="#BA4858"/>
<ellipse cx="28.4292" cy="286.831" rx="6.09294" ry="17.2487" transform="rotate(7.03326 28.4292 286.831)" fill="#BA4858"/>
<ellipse cx="27.6157" cy="287.548" rx="6.09294" ry="17.2487" transform="rotate(7.03326 27.6157 287.548)" fill="#BA4858"/>
<ellipse cx="26.8247" cy="288.285" rx="6.09294" ry="17.2487" transform="rotate(7.03326 26.8247 288.285)" fill="#BA4858"/>
<ellipse cx="26.0523" cy="289.042" rx="6.09294" ry="17.2487" transform="rotate(7.03326 26.0523 289.042)" fill="#BA4858"/>
<ellipse cx="25.3071" cy="289.826" rx="6.09294" ry="17.2487" transform="rotate(7.03326 25.3071 289.826)" fill="#BA4858"/>
<ellipse cx="24.5933" cy="290.634" rx="6.09294" ry="17.2487" transform="rotate(7.03326 24.5933 290.634)" fill="#BA4858"/>
<ellipse cx="23.9116" cy="291.475" rx="6.09294" ry="17.2487" transform="rotate(7.03326 23.9116 291.475)" fill="#BA4858"/>
<ellipse cx="23.2739" cy="292.35" rx="6.09294" ry="17.2487" transform="rotate(7.03326 23.2739 292.35)" fill="#BA4858"/>
<ellipse cx="22.6948" cy="293.263" rx="6.09294" ry="17.2487" transform="rotate(7.03326 22.6948 293.263)" fill="#BA4858"/>
<ellipse cx="22.1851" cy="294.215" rx="6.09294" ry="17.2487" transform="rotate(7.03326 22.1851 294.215)" fill="#BA4858"/>
<ellipse cx="21.7661" cy="295.21" rx="6.09294" ry="17.2487" transform="rotate(7.03326 21.7661 295.21)" fill="#BA4858"/>
<ellipse cx="21.4595" cy="296.247" rx="6.09294" ry="17.2487" transform="rotate(7.03326 21.4595 296.247)" fill="#BA4858"/>
<ellipse cx="21.2964" cy="297.314" rx="6.09294" ry="17.2487" transform="rotate(7.03326 21.2964 297.314)" fill="#BA4858"/>
<ellipse cx="21.3052" cy="298.398" rx="6.09294" ry="17.2487" transform="rotate(7.03326 21.3052 298.398)" fill="#BA4858"/>
<ellipse cx="21.4966" cy="299.459" rx="6.09294" ry="17.2487" transform="rotate(7.03326 21.4966 299.459)" fill="#BA4858"/>
<ellipse cx="21.8286" cy="300.444" rx="6.09294" ry="17.2487" transform="rotate(7.03326 21.8286 300.444)" fill="#BA4858"/>
<ellipse cx="22.2251" cy="301.45" rx="6.09294" ry="17.2487" transform="rotate(7.03326 22.2251 301.45)" fill="#BA4858"/>
<ellipse cx="22.6607" cy="302.44" rx="6.09294" ry="17.2487" transform="rotate(7.03326 22.6607 302.44)" fill="#BA4858"/>
<ellipse cx="23.1431" cy="303.411" rx="6.09294" ry="17.2487" transform="rotate(7.03326 23.1431 303.411)" fill="#BA4858"/>
<ellipse cx="23.6694" cy="304.357" rx="6.09294" ry="17.2487" transform="rotate(7.03326 23.6694 304.357)" fill="#BA4858"/>
<ellipse cx="24.2407" cy="305.276" rx="6.09294" ry="17.2487" transform="rotate(7.03326 24.2407 305.276)" fill="#BA4858"/>
<ellipse cx="24.8501" cy="306.169" rx="6.09294" ry="17.2487" transform="rotate(7.03326 24.8501 306.169)" fill="#BA4858"/>
<ellipse cx="25.5073" cy="307.03" rx="6.09294" ry="17.2487" transform="rotate(7.03326 25.5073 307.03)" fill="#BA4858"/>
<ellipse cx="26.2046" cy="307.858" rx="6.09294" ry="17.2487" transform="rotate(7.03326 26.2046 307.858)" fill="#BA4858"/>
<ellipse cx="26.9409" cy="308.65" rx="6.09294" ry="17.2487" transform="rotate(7.03326 26.9409 308.65)" fill="#BA4858"/>
<ellipse cx="27.7163" cy="309.406" rx="6.09294" ry="17.2487" transform="rotate(7.03326 27.7163 309.406)" fill="#BA4858"/>
<ellipse cx="28.5269" cy="310.124" rx="6.09294" ry="17.2487" transform="rotate(7.03326 28.5269 310.124)" fill="#BA4858"/>
<ellipse cx="29.3696" cy="310.803" rx="6.09294" ry="17.2487" transform="rotate(7.03326 29.3696 310.803)" fill="#BA4858"/>
<ellipse cx="30.2446" cy="311.441" rx="6.09294" ry="17.2487" transform="rotate(7.03326 30.2446 311.441)" fill="#BA4858"/>
<ellipse cx="31.145" cy="312.037" rx="6.09294" ry="17.2487" transform="rotate(7.03326 31.145 312.037)" fill="#BA4858"/>
<ellipse cx="32.0747" cy="312.596" rx="6.09294" ry="17.2487" transform="rotate(7.03326 32.0747 312.596)" fill="#BA4858"/>
<ellipse cx="33.0239" cy="313.111" rx="6.09294" ry="17.2487" transform="rotate(7.03326 33.0239 313.111)" fill="#BA4858"/>
<ellipse cx="33.9976" cy="313.587" rx="6.09294" ry="17.2487" transform="rotate(7.03326 33.9976 313.587)" fill="#BA4858"/>
<ellipse cx="34.9868" cy="314.02" rx="6.09294" ry="17.2487" transform="rotate(7.03326 34.9868 314.02)" fill="#BA4858"/>
<ellipse cx="35.9937" cy="314.417" rx="6.09294" ry="17.2487" transform="rotate(7.03326 35.9937 314.417)" fill="#BA4858"/>
<ellipse cx="37.0181" cy="314.772" rx="6.09294" ry="17.2487" transform="rotate(7.03326 37.0181 314.772)" fill="#BA4858"/>
<ellipse cx="38.0523" cy="315.088" rx="6.09294" ry="17.2487" transform="rotate(7.03326 38.0523 315.088)" fill="#BA4858"/>
<ellipse cx="39.0991" cy="315.363" rx="6.09294" ry="17.2487" transform="rotate(7.03326 39.0991 315.363)" fill="#BA4858"/>
<ellipse cx="40.1519" cy="315.602" rx="6.09294" ry="17.2487" transform="rotate(7.03326 40.1519 315.602)" fill="#BA4858"/>
<ellipse cx="41.2163" cy="315.801" rx="6.09294" ry="17.2487" transform="rotate(7.03326 41.2163 315.801)" fill="#BA4858"/>
<ellipse cx="42.2847" cy="315.957" rx="6.09294" ry="17.2487" transform="rotate(7.03326 42.2847 315.957)" fill="#BA4858"/>
<ellipse cx="43.3599" cy="316.075" rx="6.09294" ry="17.2487" transform="rotate(7.03326 43.3599 316.075)" fill="#BA4858"/>
<ellipse cx="44.4351" cy="316.146" rx="6.09294" ry="17.2487" transform="rotate(7.03326 44.4351 316.146)" fill="#BA4858"/>
<ellipse cx="45.5474" cy="316.174" rx="6.09294" ry="17.2487" transform="rotate(7.03326 45.5474 316.174)" fill="#BA4858"/>
<ellipse cx="46.6519" cy="316.141" rx="6.09294" ry="17.2487" transform="rotate(7.03326 46.6519 316.141)" fill="#BA4858"/>
<path fill-rule="evenodd" clip-rule="evenodd" d="M320.231 268.195C319.797 310.293 284.116 342.367 240.104 340.211C195.455 338.023 159.058 302.416 156.94 260.194L320.231 268.195Z" fill="#BA4858"/>
<path fill-rule="evenodd" clip-rule="evenodd" d="M219.572 237.103C218.628 221.741 205.628 208.978 189.682 208.197C173.736 207.416 160.583 218.896 160.89 234.227L219.572 237.103Z" fill="#BA4858"/>
<path fill-rule="evenodd" clip-rule="evenodd" d="M318.415 240.673C317.47 225.31 304.471 212.548 288.525 211.767C272.578 210.985 259.426 222.466 259.732 237.797L318.415 240.673Z" fill="#BA4858"/>
<path fill-rule="evenodd" clip-rule="evenodd" d="M311.05 63.5349C298.611 46.9713 301.801 47.1276 278.187 45.3324C248.821 42.617 200.994 40.9116 171.653 39.4738C133.382 37.5985 83.2708 70.4269 84.2753 110.099L108.559 326.109C109.325 364.436 141.384 404.219 179.018 406.063L307.034 404.756C345.305 406.631 375.296 376.831 374.544 339.142C373.05 264.404 375.499 227.51 375.333 155.39C375.039 140.698 329.369 87.4065 311.05 63.5349ZM246.129 99.2817L248.706 100.684L273.213 115.287L218.434 148.34L244.892 101.136L246.129 99.2817ZM217.566 72.9937L200.613 149.381L172.917 70.8058L217.566 72.9937ZM154.98 98.0061L184.705 150.516L127.91 114.548L154.98 98.0061ZM343.493 315.923C344.093 345.946 319.714 369.64 289.735 368.171L195.333 363.545C165.354 362.076 139.98 335.944 139.38 305.921L137.555 214.574C136.955 184.551 161.334 160.857 191.313 162.327L286.353 166.984C316.332 168.453 341.706 194.584 342.306 224.608L344.131 315.954L343.493 315.923Z" fill="#BA4858"/>
<path d="M342.236 396.684L321.561 407.753L333.198 394.406L342.236 396.684Z" fill="#BA4858"/>
<path d="M131.442 72.1515L97.2588 126.124L105.772 329.462L130.045 386.655L301.972 393.445L337.317 370.608L335.678 187.52L265.236 80.3189L131.442 72.1515Z" fill="white"/>
<path fill-rule="evenodd" clip-rule="evenodd" d="M300.792 278.95C300.359 321.047 264.677 353.122 220.666 350.965C176.016 348.777 139.62 313.171 137.502 270.948L300.792 278.95Z" fill="#A12B3C"/>
<path fill-rule="evenodd" clip-rule="evenodd" d="M200.131 247.857C199.186 232.495 186.187 219.733 170.241 218.951C154.294 218.17 141.142 229.651 141.448 244.982L200.131 247.857Z" fill="#A12B3C"/>
<path fill-rule="evenodd" clip-rule="evenodd" d="M298.973 251.426C298.029 236.064 285.03 223.302 269.083 222.521C253.137 221.739 239.985 233.22 240.291 248.551L298.973 251.426Z" fill="#A12B3C"/>
<path fill-rule="evenodd" clip-rule="evenodd" d="M291.609 74.2893C279.17 57.7257 282.36 57.882 258.746 56.0868C229.38 53.3714 181.554 51.666 152.212 50.2282C113.941 48.3529 83.9498 78.1533 84.7028 115.842L89.1185 336.863C89.8843 375.19 121.752 407.384 159.385 409.228L287.593 415.51C325.864 417.386 355.856 387.585 355.103 349.897C353.609 275.158 356.059 238.265 355.892 166.144C355.599 151.452 309.928 98.1609 291.609 74.2893ZM226.689 110.036L229.265 111.439L253.772 126.041L198.993 159.094L225.451 111.89L226.689 110.036ZM198.125 83.7481L181.172 160.135L153.476 81.5602L198.125 83.7481ZM135.54 108.76L165.264 161.27L108.469 125.303L135.54 108.76ZM324.052 326.678C324.652 356.701 300.273 380.395 270.294 378.925L175.892 374.3C145.913 372.831 120.539 346.699 119.939 316.676L118.114 225.329C117.515 195.306 141.893 171.612 171.872 173.081L266.912 177.738C296.891 179.207 322.265 205.339 322.865 235.362L324.69 326.709L324.052 326.678Z" fill="#A12B3C"/>
<path d="M39.7751 297.804C39.1375 297.621 38.5423 297.422 37.9928 297.202C37.6693 297.095 37.4675 297.019 37.3812 296.942C34.1203 295.457 32.753 293.175 34.1402 289.707C35.8299 285.483 73.0962 266.592 91.5181 257.674V271.05C76.6162 277.269 45.6894 290.904 41.1836 294.283C38.4316 296.347 37.0492 296.646 37.3812 296.942C37.5782 297.032 37.7821 297.118 37.9928 297.202C38.395 297.336 38.9852 297.516 39.7751 297.804Z" fill="#A12B3C"/>
<path d="M118.279 365.039L111.238 368.911L112.646 363.279L118.279 365.039Z" fill="#4B4848"/>
<rect width="57.7305" height="109.829" rx="8" transform="matrix(0.908143 0.41866 0.0742825 0.997237 59.1387 233.737)" fill="#4B4848"/>
<path d="M61.2493 235.819L54.209 239.722L61.2493 241.482V235.819Z" fill="#4B4848"/>
<rect width="57.7305" height="109.829" rx="8" transform="matrix(0.908143 0.41866 0.0742825 0.997237 52.8018 237.257)" fill="#1F1D1D"/>
<circle r="5.98426" transform="matrix(0.902585 0.430511 0.0660997 0.997813 62.1191 252.141)" fill="black"/>
<circle r="3.87217" transform="matrix(0.902585 0.430511 0.0660997 0.997813 62.1201 252.141)" fill="#545454"/>
<ellipse rx="1.13636" ry="1.62704" transform="matrix(0.902585 0.430511 0.0660997 0.997813 70.8305 256.971)" fill="#D8D197"/>
<path d="M43.6503 277.035C45.9032 281.541 46.2318 294.636 46.1144 300.62L43.6503 331.95C47.8744 336.174 57.7306 342.51 76.7395 346.734C95.7483 350.958 110.181 350.607 117.221 336.174C124.262 321.741 115.109 300.62 115.109 300.62C115.109 300.62 114.405 305.9 105.253 309.069C96.1003 312.237 55.9706 300.62 56.3226 286.54C56.6746 272.459 51.3947 270.347 51.3947 270.347C51.3947 270.347 40.8342 271.403 43.6503 277.035Z" fill="#BA4858"/>
<path d="M49.9866 286.54C49.1418 281.471 45.4104 273.868 48.5785 271.051C47.6398 270.816 45.4104 270.699 44.0023 272.107C42.2423 273.867 43.2983 277.74 44.7064 281.612C45.8328 284.71 46.2318 294.401 46.1144 298.86H42.9463C44.7064 299.682 48.6489 301.113 50.3386 300.268C52.4507 299.212 51.0426 292.876 49.9866 286.54Z" fill="#A12B3C"/>
<mask id="mask0" mask-type="alpha" maskUnits="userSpaceOnUse" x="13" y="238" width="107" height="113">
<path d="M43.6503 278.44C45.9032 282.946 46.2318 296.041 46.1144 302.025L43.6503 333.354C47.8744 337.578 57.7306 343.915 76.7395 348.139C95.7483 352.362 110.181 352.011 117.221 337.578C124.262 323.145 115.109 302.025 115.109 302.025C115.109 302.025 114.405 307.305 105.253 310.473C96.1003 313.641 55.9706 302.025 56.3226 287.944C56.6746 273.863 51.3947 271.751 51.3947 271.751C51.3947 271.751 40.8342 272.808 43.6503 278.44Z" fill="#BA4858"/>
<ellipse cx="90.1401" cy="256.046" rx="6.09294" ry="17.2487" transform="rotate(7.03326 90.1401 256.046)" fill="#BA4858"/>
<ellipse cx="89.1187" cy="256.409" rx="6.09294" ry="17.2487" transform="rotate(7.03326 89.1187 256.409)" fill="#BA4858"/>
<ellipse cx="88.1021" cy="256.775" rx="6.09294" ry="17.2487" transform="rotate(7.03326 88.1021 256.775)" fill="#BA4858"/>
<ellipse cx="87.0845" cy="257.143" rx="6.09294" ry="17.2487" transform="rotate(7.03326 87.0845 257.143)" fill="#BA4858"/>
<ellipse cx="86.0689" cy="257.517" rx="6.09294" ry="17.2487" transform="rotate(7.03326 86.0689 257.517)" fill="#BA4858"/>
<ellipse cx="85.0532" cy="257.891" rx="6.09294" ry="17.2487" transform="rotate(7.03326 85.0532 257.891)" fill="#BA4858"/>
<ellipse cx="84.0415" cy="258.27" rx="6.09294" ry="17.2487" transform="rotate(7.03326 84.0415 258.27)" fill="#BA4858"/>
<ellipse cx="83.0259" cy="258.653" rx="6.09294" ry="17.2487" transform="rotate(7.03326 83.0259 258.653)" fill="#BA4858"/>
<ellipse cx="82.0181" cy="259.038" rx="6.09294" ry="17.2487" transform="rotate(7.03326 82.0181 259.038)" fill="#BA4858"/>
<ellipse cx="81.0073" cy="259.426" rx="6.09294" ry="17.2487" transform="rotate(7.03326 81.0073 259.426)" fill="#BA4858"/>
<ellipse cx="79.9956" cy="259.819" rx="6.09294" ry="17.2487" transform="rotate(7.03326 79.9956 259.819)" fill="#BA4858"/>
<ellipse cx="78.9898" cy="260.212" rx="6.09294" ry="17.2487" transform="rotate(7.03326 78.9898 260.212)" fill="#BA4858"/>
<ellipse cx="77.9829" cy="260.608" rx="6.09294" ry="17.2487" transform="rotate(7.03326 77.9829 260.608)" fill="#BA4858"/>
<ellipse cx="76.979" cy="261.01" rx="6.09294" ry="17.2487" transform="rotate(7.03326 76.979 261.01)" fill="#BA4858"/>
<ellipse cx="75.9722" cy="261.411" rx="6.09294" ry="17.2487" transform="rotate(7.03326 75.9722 261.411)" fill="#BA4858"/>
<ellipse cx="74.9702" cy="261.819" rx="6.09294" ry="17.2487" transform="rotate(7.03326 74.9702 261.819)" fill="#BA4858"/>
<ellipse cx="73.9692" cy="262.226" rx="6.09294" ry="17.2487" transform="rotate(7.03326 73.9692 262.226)" fill="#BA4858"/>
<ellipse cx="72.9683" cy="262.638" rx="6.09294" ry="17.2487" transform="rotate(7.03326 72.9683 262.638)" fill="#BA4858"/>
<ellipse cx="71.9673" cy="263.053" rx="6.09294" ry="17.2487" transform="rotate(7.03326 71.9673 263.053)" fill="#BA4858"/>
<ellipse cx="70.9692" cy="263.471" rx="6.09294" ry="17.2487" transform="rotate(7.03326 70.9692 263.471)" fill="#BA4858"/>
<ellipse cx="69.9712" cy="263.892" rx="6.09294" ry="17.2487" transform="rotate(7.03326 69.9712 263.892)" fill="#BA4858"/>
<ellipse cx="68.9761" cy="264.315" rx="6.09294" ry="17.2487" transform="rotate(7.03326 68.9761 264.315)" fill="#BA4858"/>
<ellipse cx="67.981" cy="264.742" rx="6.09294" ry="17.2487" transform="rotate(7.03326 67.981 264.742)" fill="#BA4858"/>
<ellipse cx="66.9888" cy="265.171" rx="6.09294" ry="17.2487" transform="rotate(7.03326 66.9888 265.171)" fill="#BA4858"/>
<ellipse cx="65.9976" cy="265.602" rx="6.09294" ry="17.2487" transform="rotate(7.03326 65.9976 265.602)" fill="#BA4858"/>
<ellipse cx="65.0054" cy="266.04" rx="6.09294" ry="17.2487" transform="rotate(7.03326 65.0054 266.04)" fill="#BA4858"/>
<ellipse cx="64.0151" cy="266.477" rx="6.09294" ry="17.2487" transform="rotate(7.03326 64.0151 266.477)" fill="#BA4858"/>
<ellipse cx="63.0298" cy="266.92" rx="6.09294" ry="17.2487" transform="rotate(7.03326 63.0298 266.92)" fill="#BA4858"/>
<ellipse cx="62.0415" cy="267.365" rx="6.09294" ry="17.2487" transform="rotate(7.03326 62.0415 267.365)" fill="#BA4858"/>
<ellipse cx="61.0581" cy="267.814" rx="6.09294" ry="17.2487" transform="rotate(7.03326 61.0581 267.814)" fill="#BA4858"/>
<ellipse cx="60.0747" cy="268.267" rx="6.09294" ry="17.2487" transform="rotate(7.03326 60.0747 268.267)" fill="#BA4858"/>
<ellipse cx="59.0933" cy="268.721" rx="6.09294" ry="17.2487" transform="rotate(7.03326 59.0933 268.721)" fill="#BA4858"/>
<ellipse cx="58.1118" cy="269.18" rx="6.09294" ry="17.2487" transform="rotate(7.03326 58.1118 269.18)" fill="#BA4858"/>
<ellipse cx="57.1353" cy="269.646" rx="6.09294" ry="17.2487" transform="rotate(7.03326 57.1353 269.646)" fill="#BA4858"/>
<ellipse cx="56.1567" cy="270.11" rx="6.09294" ry="17.2487" transform="rotate(7.03326 56.1567 270.11)" fill="#BA4858"/>
<ellipse cx="55.1851" cy="270.583" rx="6.09294" ry="17.2487" transform="rotate(7.03326 55.1851 270.583)" fill="#BA4858"/>
<ellipse cx="54.2124" cy="271.056" rx="6.09294" ry="17.2487" transform="rotate(7.03326 54.2124 271.056)" fill="#BA4858"/>
<ellipse cx="53.2407" cy="271.534" rx="6.09294" ry="17.2487" transform="rotate(7.03326 53.2407 271.534)" fill="#BA4858"/>
<ellipse cx="52.271" cy="272.018" rx="6.09294" ry="17.2487" transform="rotate(7.03326 52.271 272.018)" fill="#BA4858"/>
<ellipse cx="51.3052" cy="272.505" rx="6.09294" ry="17.2487" transform="rotate(7.03326 51.3052 272.505)" fill="#BA4858"/>
<ellipse cx="50.3423" cy="272.997" rx="6.09294" ry="17.2487" transform="rotate(7.03326 50.3423 272.997)" fill="#BA4858"/>
<ellipse cx="49.3784" cy="273.493" rx="6.09294" ry="17.2487" transform="rotate(7.03326 49.3784 273.493)" fill="#BA4858"/>
<ellipse cx="48.4204" cy="273.993" rx="6.09294" ry="17.2487" transform="rotate(7.03326 48.4204 273.993)" fill="#BA4858"/>
<ellipse cx="47.4624" cy="274.499" rx="6.09294" ry="17.2487" transform="rotate(7.03326 47.4624 274.499)" fill="#BA4858"/>
<ellipse cx="46.5112" cy="275.01" rx="6.09294" ry="17.2487" transform="rotate(7.03326 46.5112 275.01)" fill="#BA4858"/>
<ellipse cx="45.5591" cy="275.528" rx="6.09294" ry="17.2487" transform="rotate(7.03326 45.5591 275.528)" fill="#BA4858"/>
<ellipse cx="44.6128" cy="276.051" rx="6.09294" ry="17.2487" transform="rotate(7.03326 44.6128 276.051)" fill="#BA4858"/>
<ellipse cx="43.6665" cy="276.578" rx="6.09294" ry="17.2487" transform="rotate(7.03326 43.6665 276.578)" fill="#BA4858"/>
<ellipse cx="42.7271" cy="277.112" rx="6.09294" ry="17.2487" transform="rotate(7.03326 42.7271 277.112)" fill="#BA4858"/>
<ellipse cx="41.7896" cy="277.654" rx="6.09294" ry="17.2487" transform="rotate(7.03326 41.7896 277.654)" fill="#BA4858"/>
<ellipse cx="40.853" cy="278.198" rx="6.09294" ry="17.2487" transform="rotate(7.03326 40.853 278.198)" fill="#BA4858"/>
<ellipse cx="39.9253" cy="278.754" rx="6.09294" ry="17.2487" transform="rotate(7.03326 39.9253 278.754)" fill="#BA4858"/>
<ellipse cx="38.9995" cy="279.315" rx="6.09294" ry="17.2487" transform="rotate(7.03326 38.9995 279.315)" fill="#BA4858"/>
<ellipse cx="38.0776" cy="279.884" rx="6.09294" ry="17.2487" transform="rotate(7.03326 38.0776 279.884)" fill="#BA4858"/>
<ellipse cx="37.1626" cy="280.461" rx="6.09294" ry="17.2487" transform="rotate(7.03326 37.1626 280.461)" fill="#BA4858"/>
<ellipse cx="36.2544" cy="281.047" rx="6.09294" ry="17.2487" transform="rotate(7.03326 36.2544 281.047)" fill="#BA4858"/>
<ellipse cx="35.3511" cy="281.644" rx="6.09294" ry="17.2487" transform="rotate(7.03326 35.3511 281.644)" fill="#BA4858"/>
<ellipse cx="34.4536" cy="282.249" rx="6.09294" ry="17.2487" transform="rotate(7.03326 34.4536 282.249)" fill="#BA4858"/>
<ellipse cx="33.562" cy="282.863" rx="6.09294" ry="17.2487" transform="rotate(7.03326 33.562 282.863)" fill="#BA4858"/>
<ellipse cx="32.6812" cy="283.489" rx="6.09294" ry="17.2487" transform="rotate(7.03326 32.6812 283.489)" fill="#BA4858"/>
<ellipse cx="31.8071" cy="284.13" rx="6.09294" ry="17.2487" transform="rotate(7.03326 31.8071 284.13)" fill="#BA4858"/>
<ellipse cx="30.9439" cy="284.782" rx="6.09294" ry="17.2487" transform="rotate(7.03326 30.9439 284.782)" fill="#BA4858"/>
<ellipse cx="30.0933" cy="285.448" rx="6.09294" ry="17.2487" transform="rotate(7.03326 30.0933 285.448)" fill="#BA4858"/>
<ellipse cx="29.2505" cy="286.129" rx="6.09294" ry="17.2487" transform="rotate(7.03326 29.2505 286.129)" fill="#BA4858"/>
<ellipse cx="28.4263" cy="286.825" rx="6.09294" ry="17.2487" transform="rotate(7.03326 28.4263 286.825)" fill="#BA4858"/>
<ellipse cx="27.6128" cy="287.543" rx="6.09294" ry="17.2487" transform="rotate(7.03326 27.6128 287.543)" fill="#BA4858"/>
<ellipse cx="26.8218" cy="288.28" rx="6.09294" ry="17.2487" transform="rotate(7.03326 26.8218 288.28)" fill="#BA4858"/>
<ellipse cx="26.0493" cy="289.037" rx="6.09294" ry="17.2487" transform="rotate(7.03326 26.0493 289.037)" fill="#BA4858"/>
<ellipse cx="25.3042" cy="289.821" rx="6.09294" ry="17.2487" transform="rotate(7.03326 25.3042 289.821)" fill="#BA4858"/>
<ellipse cx="24.5903" cy="290.628" rx="6.09294" ry="17.2487" transform="rotate(7.03326 24.5903 290.628)" fill="#BA4858"/>
<ellipse cx="23.9087" cy="291.47" rx="6.09294" ry="17.2487" transform="rotate(7.03326 23.9087 291.47)" fill="#BA4858"/>
<ellipse cx="23.271" cy="292.344" rx="6.09294" ry="17.2487" transform="rotate(7.03326 23.271 292.344)" fill="#BA4858"/>
<ellipse cx="22.6919" cy="293.258" rx="6.09294" ry="17.2487" transform="rotate(7.03326 22.6919 293.258)" fill="#BA4858"/>
<ellipse cx="22.1821" cy="294.21" rx="6.09294" ry="17.2487" transform="rotate(7.03326 22.1821 294.21)" fill="#BA4858"/>
<ellipse cx="21.7632" cy="295.204" rx="6.09294" ry="17.2487" transform="rotate(7.03326 21.7632 295.204)" fill="#BA4858"/>
<ellipse cx="21.4565" cy="296.241" rx="6.09294" ry="17.2487" transform="rotate(7.03326 21.4565 296.241)" fill="#BA4858"/>
<ellipse cx="21.2935" cy="297.308" rx="6.09294" ry="17.2487" transform="rotate(7.03326 21.2935 297.308)" fill="#BA4858"/>
<ellipse cx="21.3023" cy="298.392" rx="6.09294" ry="17.2487" transform="rotate(7.03326 21.3023 298.392)" fill="#BA4858"/>
<ellipse cx="21.4937" cy="299.453" rx="6.09294" ry="17.2487" transform="rotate(7.03326 21.4937 299.453)" fill="#BA4858"/>
<ellipse cx="21.8257" cy="300.438" rx="6.09294" ry="17.2487" transform="rotate(7.03326 21.8257 300.438)" fill="#BA4858"/>
<ellipse cx="22.2222" cy="301.445" rx="6.09294" ry="17.2487" transform="rotate(7.03326 22.2222 301.445)" fill="#BA4858"/>
<ellipse cx="22.6577" cy="302.435" rx="6.09294" ry="17.2487" transform="rotate(7.03326 22.6577 302.435)" fill="#BA4858"/>
<ellipse cx="23.1401" cy="303.406" rx="6.09294" ry="17.2487" transform="rotate(7.03326 23.1401 303.406)" fill="#BA4858"/>
<ellipse cx="23.6665" cy="304.351" rx="6.09294" ry="17.2487" transform="rotate(7.03326 23.6665 304.351)" fill="#BA4858"/>
<ellipse cx="24.2378" cy="305.27" rx="6.09294" ry="17.2487" transform="rotate(7.03326 24.2378 305.27)" fill="#BA4858"/>
<ellipse cx="24.8472" cy="306.164" rx="6.09294" ry="17.2487" transform="rotate(7.03326 24.8472 306.164)" fill="#BA4858"/>
<ellipse cx="25.5044" cy="307.025" rx="6.09294" ry="17.2487" transform="rotate(7.03326 25.5044 307.025)" fill="#BA4858"/>
<ellipse cx="26.2017" cy="307.852" rx="6.09294" ry="17.2487" transform="rotate(7.03326 26.2017 307.852)" fill="#BA4858"/>
<ellipse cx="26.938" cy="308.645" rx="6.09294" ry="17.2487" transform="rotate(7.03326 26.938 308.645)" fill="#BA4858"/>
<ellipse cx="27.7134" cy="309.401" rx="6.09294" ry="17.2487" transform="rotate(7.03326 27.7134 309.401)" fill="#BA4858"/>
<ellipse cx="28.5239" cy="310.119" rx="6.09294" ry="17.2487" transform="rotate(7.03326 28.5239 310.119)" fill="#BA4858"/>
<ellipse cx="29.3667" cy="310.798" rx="6.09294" ry="17.2487" transform="rotate(7.03326 29.3667 310.798)" fill="#BA4858"/>
<ellipse cx="30.2417" cy="311.436" rx="6.09294" ry="17.2487" transform="rotate(7.03326 30.2417 311.436)" fill="#BA4858"/>
<ellipse cx="31.1421" cy="312.032" rx="6.09294" ry="17.2487" transform="rotate(7.03326 31.1421 312.032)" fill="#BA4858"/>
<ellipse cx="32.0718" cy="312.591" rx="6.09294" ry="17.2487" transform="rotate(7.03326 32.0718 312.591)" fill="#BA4858"/>
<ellipse cx="33.021" cy="313.106" rx="6.09294" ry="17.2487" transform="rotate(7.03326 33.021 313.106)" fill="#BA4858"/>
<ellipse cx="33.9946" cy="313.581" rx="6.09294" ry="17.2487" transform="rotate(7.03326 33.9946 313.581)" fill="#BA4858"/>
<ellipse cx="34.9839" cy="314.015" rx="6.09294" ry="17.2487" transform="rotate(7.03326 34.9839 314.015)" fill="#BA4858"/>
<ellipse cx="35.9907" cy="314.412" rx="6.09294" ry="17.2487" transform="rotate(7.03326 35.9907 314.412)" fill="#BA4858"/>
<ellipse cx="37.0151" cy="314.766" rx="6.09294" ry="17.2487" transform="rotate(7.03326 37.0151 314.766)" fill="#BA4858"/>
<ellipse cx="38.0493" cy="315.082" rx="6.09294" ry="17.2487" transform="rotate(7.03326 38.0493 315.082)" fill="#BA4858"/>
<ellipse cx="39.0962" cy="315.358" rx="6.09294" ry="17.2487" transform="rotate(7.03326 39.0962 315.358)" fill="#BA4858"/>
<ellipse cx="40.1489" cy="315.596" rx="6.09294" ry="17.2487" transform="rotate(7.03326 40.1489 315.596)" fill="#BA4858"/>
<ellipse cx="41.2124" cy="315.795" rx="6.09294" ry="17.2487" transform="rotate(7.03326 41.2124 315.795)" fill="#BA4858"/>
<ellipse cx="42.2817" cy="315.952" rx="6.09294" ry="17.2487" transform="rotate(7.03326 42.2817 315.952)" fill="#BA4858"/>
<ellipse cx="43.3569" cy="316.07" rx="6.09294" ry="17.2487" transform="rotate(7.03326 43.3569 316.07)" fill="#BA4858"/>
<ellipse cx="44.4321" cy="316.141" rx="6.09294" ry="17.2487" transform="rotate(7.03326 44.4321 316.141)" fill="#BA4858"/>
<ellipse cx="45.5444" cy="316.169" rx="6.09294" ry="17.2487" transform="rotate(7.03326 45.5444 316.169)" fill="#BA4858"/>
<ellipse cx="46.648" cy="316.135" rx="6.09294" ry="17.2487" transform="rotate(7.03326 46.648 316.135)" fill="#BA4858"/>
</mask>
<g mask="url(#mask0)">
<path d="M17.2503 286.889C14.6689 297.215 15.3359 318.923 34.4855 324.555C58.4226 331.595 71.4469 338.283 76.7271 339.339C82.0074 340.395 113.337 345.676 117.561 335.115C120.497 327.776 120.28 321.676 119.634 318.662C119.532 318.269 119.428 317.886 119.321 317.514C119.429 317.822 119.536 318.207 119.634 318.662C122.779 330.837 123.271 353.226 101.72 353.772C73.911 354.476 47.5099 344.268 45.7498 340.747C43.9897 337.227 28.149 340.747 22.5168 332.651C16.8846 324.555 8.43619 316.458 11.6043 304.49C14.1388 294.915 16.0769 288.884 17.2503 286.889Z" fill="#A12B3C"/>
</g>
<path d="M460.789 159.11C465.858 158.547 470.176 160.522 470.998 161.579L469.59 164.042L453.045 162.63C453.162 162.278 455.72 159.674 460.789 159.11Z" fill="#969696"/>
<path d="M464.311 411.506L460.438 412.914L463.607 413.618L464.311 411.506Z" fill="#969696"/>
<path d="M469.587 427.698L463.955 429.458L466.771 426.642L469.587 427.698Z" fill="#969696"/>
<circle r="8.44837" transform="matrix(0.999914 0.0130896 0 1 466.775 419.712)" fill="#969696"/>
<circle r="8.44837" transform="matrix(0.999914 0.0130896 0 1 462.548 421.12)" fill="#C4C4C4"/>
<circle r="4.22527" transform="matrix(0.999914 0.0130896 0 1 462.549 421.121)" fill="#969696"/>
<path d="M429.108 411.506L425.235 412.914L428.403 413.618L429.108 411.506Z" fill="#969696"/>
<path d="M434.384 427.698L428.752 429.458L431.568 426.642L434.384 427.698Z" fill="#969696"/>
<circle r="8.44837" transform="matrix(0.999914 0.0130896 0 1 431.572 419.712)" fill="#969696"/>
<circle r="8.44837" transform="matrix(0.999914 0.0130896 0 1 427.345 421.12)" fill="#C4C4C4"/>
<circle r="4.22527" transform="matrix(0.999914 0.0130896 0 1 427.346 421.121)" fill="#969696"/>
<path d="M523.449 369.264L519.577 370.672L522.745 371.376L523.449 369.264Z" fill="#969696"/>
<path d="M528.726 385.456L523.094 387.216L525.91 384.4L528.726 385.456Z" fill="#969696"/>
<circle r="8.44837" transform="matrix(0.999914 0.0130896 0 1 525.913 377.47)" fill="#969696"/>
<circle r="8.44837" transform="matrix(0.999914 0.0130896 0 1 521.687 378.878)" fill="#C4C4C4"/>
<circle r="4.22527" transform="matrix(0.999914 0.0130896 0 1 521.688 378.879)" fill="#969696"/>
<circle r="7.04163" transform="matrix(0.999914 0.0130896 0 1 491.416 376.044)" fill="#969696"/>
<circle r="8.44837" transform="matrix(0.999914 0.0130896 0 1 525.912 377.47)" fill="#969696"/>
<circle r="7.04163" transform="matrix(0.999914 0.0130896 0 1 487.19 377.453)" fill="#C4C4C4"/>
<circle r="8.44837" transform="matrix(0.999914 0.0130896 0 1 521.687 378.878)" fill="#C4C4C4"/>
<path d="M432.979 291.115V211.081C432.979 198.708 440.071 181.587 448.819 172.838V172.838C457.568 164.089 464.66 167.027 464.66 179.399V259.434" stroke="#969696" stroke-width="20"/>
<path d="M438.611 291.819V211.785C438.611 199.413 445.703 182.291 454.452 173.542V173.542C463.201 164.794 470.293 167.731 470.293 180.104V260.138" stroke="#C1C1C1" stroke-width="20"/>
<rect width="111.203" height="163.761" rx="43" transform="matrix(0.837147 -0.546978 0 1 406.929 262.882)" fill="#BD3C4E"/>
<path d="M537.881 214.376H486.486C488.833 224.584 493.597 245.001 493.879 245.001C494.16 245.001 523.331 224.584 537.881 214.376Z" fill="#BD3C4E"/>
<path d="M470.292 414.321H418.897L460.435 387.92L470.292 414.321Z" fill="#BD3C4E"/>
<rect width="111.203" height="163.761" rx="43" transform="matrix(0.837147 -0.546978 0 1 457.621 262.882)" fill="#931D2E"/>
<mask id="mask1" mask-type="alpha" maskUnits="userSpaceOnUse" x="429" y="212" width="104" height="203">
<rect x="2.09287" y="1.13256" width="118.625" height="163.666" rx="40.5" transform="matrix(0.837147 -0.546978 0 1 429.799 264.025)" stroke="black" stroke-width="5" stroke-dasharray="3 3"/>
</mask>
<g mask="url(#mask1)">
<path d="M492.469 214.729H519.926L460.787 254.858L445.299 278.795V414.321H422.066L418.897 308.717L434.034 254.858L492.469 214.729Z" fill="#232323"/>
</g>
<path d="M479.416 273.212C479.431 270.87 480.919 267.775 482.707 266.364V266.364C484.421 265.013 485.78 265.711 485.78 267.943V386.09C485.78 388.655 484.183 392.067 482.212 393.71V393.71C480.229 395.362 478.626 394.594 478.643 391.998L479.416 273.212Z" fill="#650613"/>
<path d="M502.131 253.985C502.141 251.96 503.265 249.109 504.611 247.692V247.692C505.891 246.347 506.901 246.796 506.901 248.71V368.075C506.901 370.286 505.702 373.411 504.223 375.055V375.055C502.736 376.707 501.534 376.232 501.545 373.998L502.131 253.985Z" fill="#650613"/>
<path d="M519.73 242.016C519.74 239.991 520.863 237.14 522.21 235.724V235.724C523.489 234.378 524.5 234.828 524.5 236.742V356.106C524.5 358.317 523.301 361.442 521.822 363.086V363.086C520.335 364.738 519.133 364.263 519.144 362.029L519.73 242.016Z" fill="#650613"/>
<path d="M535.23 233.243C535.234 231.625 535.865 229.157 536.617 227.812V227.812C537.323 226.55 537.878 226.745 537.878 228.256V342.139C537.878 343.896 537.212 346.58 536.39 348.134V348.134C535.564 349.694 534.896 349.519 534.901 347.744L535.23 233.243Z" fill="#650613"/>
<rect width="9.33103" height="128.154" rx="4.66551" transform="matrix(0.768193 -0.640219 0 1 477.335 269.667)" fill="#AE3C4C"/>
<rect width="8.03673" height="128.154" rx="4.01836" transform="matrix(0.668931 -0.743324 0 1 500.564 251.013)" fill="#AE3C4C"/>
<rect width="8.03673" height="128.154" rx="4.01836" transform="matrix(0.668931 -0.743324 0 1 518.167 239.045)" fill="#AE3C4C"/>
<rect width="6.38434" height="121.048" rx="3.19217" transform="matrix(0.467805 -0.883832 0 1 534.359 230.965)" fill="#AE3C4C"/>
<path d="M473.107 221.768V184.102M473.107 179.174V173.542C473.107 172.486 472.826 169.811 471.699 167.558" stroke="url(#paint0_linear)" stroke-width="3" stroke-linecap="round"/>
<path d="M438.257 180.583C434.315 186.779 430.748 198.888 429.457 204.168L435.089 203.816L438.257 193.256C440.135 187.624 442.2 174.388 438.257 180.583Z" fill="#969696"/>
<path d="M443.54 206.982L443.54 206.984L441.076 211.208L439.668 198.887C442.132 196.54 446.187 192.829 444.948 197.479C443.54 202.758 443.54 204.167 443.54 206.982Z" fill="#C4C4C4"/>
<ellipse cx="457.267" cy="187.623" rx="4.92821" ry="4.5762" fill="#A12B3C"/>
<path d="M437.508 152.711C425.218 156.665 425.236 165.446 422.771 179.175C427.892 181.646 436.814 184.247 438.004 181.874C439.193 179.502 444.446 171.989 444.446 171.989C444.446 171.989 453.862 190.419 466.25 190.772C478.639 191.125 483.595 186.817 480.126 169.023C476.657 151.228 452.87 147.768 437.508 152.711Z" fill="#BA4858"/>
<path d="M367.855 257.932C370.851 258.722 376.962 259.669 380.528 259.842" stroke="#A12B3C" stroke-width="11"/>
<defs>
<linearGradient id="paint0_linear" x1="472.403" y1="167.558" x2="472.403" y2="221.768" gradientUnits="userSpaceOnUse">
<stop stop-color="white"/>
<stop offset="1" stop-color="white" stop-opacity="0"/>
</linearGradient>
</defs>
</svg>
