<svg width="483" height="252" fill="none" xmlns="http://www.w3.org/2000/svg"><path fill="#344EFF" d="M0 .616h483v251H0z"/><g clip-path="url(#a)"><mask id="b" style="mask-type:luminance" maskUnits="userSpaceOnUse" x="124" y="60" width="214" height="133"><path fill-rule="evenodd" clip-rule="evenodd" d="M124 60.902h213.247v131.366H124V60.902Z" fill="#fff"/></mask><g mask="url(#b)"><path fill-rule="evenodd" clip-rule="evenodd" d="m295.405 173.893-.066.051-.58-.695c-11.955 9.832-27.14 15.151-42.811 15.151-17.932 0-34.734-6.77-47.334-19.182-12.601-12.249-19.549-28.69-19.549-46.099 0-13.377 4.04-26.433 11.955-37.394 7.756-10.8 18.418-18.859 31.018-23.533l-.483-1.29c-12.764 4.836-23.749 13.056-31.504 24.017-8.077 11.283-12.438 24.5-12.438 38.2 0 17.731 7.108 34.494 20.032 47.066a68.897 68.897 0 0 0 3.767 3.381l-1.667 1.939c12.762 10.8 29.24 16.764 46.203 16.764 16.64 0 32.633-5.803 45.396-16.118l-1.939-2.258Z" fill="#fff"/></g><path fill-rule="evenodd" clip-rule="evenodd" d="M197.667 82.824c-.322-1.129-.484-2.096-.484-3.224 0-4.835 3.231-9.188 9.047-9.188 1.292 0 2.423.161 3.392.484.969-.806 2.1-1.613 3.231-2.257a13.116 13.116 0 0 0-6.623-1.772c-7.109 0-13.086 5.641-13.086 12.733 0 2.418.809 4.836 1.938 6.77.324-.483.647-.967.969-1.29.485-.807 1.132-1.61 1.616-2.256Zm17.448-12.573c-1.131.644-2.1 1.29-3.069 2.096 2.1 1.612 3.231 4.351 3.231 7.253 0 4.836-3.554 9.026-9.047 9.026-3.07 0-5.493-1.29-7.108-3.385-.323.484-.647.807-.97 1.29-.484.645-.968 1.29-1.293 1.934 2.425 2.257 5.656 3.709 9.371 3.709 7.269 0 13.086-5.482 13.086-12.574 0-3.707-1.616-7.092-4.201-9.349Zm-23.102 42.231c0 3.868-2.262 7.253-5.654 8.543v3.869c5.492-1.451 9.692-6.287 9.692-12.412 0-4.352-2.422-8.221-5.976-10.639-.486 1.29-.809 2.418-1.293 3.546 2.1 1.774 3.231 4.353 3.231 7.093Zm-8.239 9.187h-.807c-5.492 0-9.21-4.19-9.21-9.187 0-4.674 3.232-9.026 9.21-9.026 1.292 0 2.585.16 3.552.644.325-1.129.647-2.256 1.133-3.384-1.455-.485-3.071-.807-4.685-.807-7.27 0-13.086 5.642-13.086 12.573 0 7.254 5.816 12.733 13.086 12.733h.807c0-.644-.162-1.451-.162-2.095 0-.484.162-.967.162-1.451Zm8.562 14.991c5.815 0 9.046 4.351 9.046 9.025 0 4.191-2.584 7.898-6.623 8.866.645 1.129 1.292 2.095 1.938 3.224 5.008-1.773 8.724-6.287 8.724-12.09 0-6.93-5.977-12.571-13.085-12.571-1.777 0-3.555.322-5.007.966.16 1.129.322 2.418.645 3.546 1.293-.644 2.746-.966 4.362-.966Zm-9.048 9.025c0-2.418.809-4.674 2.423-6.446-.323-1.29-.645-2.58-.807-3.869-3.392 2.256-5.654 6.125-5.654 10.315 0 7.255 5.816 12.734 13.086 12.734.484 0 1.131 0 1.616-.16-.647-1.128-1.454-2.257-2.101-3.385-5.169-.323-8.563-4.192-8.563-9.189Zm72.538-12.088v14.669c0 3.384-1.131 6.608-5.492 6.608-4.363 0-5.494-3.224-5.494-6.608v-14.669h-4.038v15.474c0 5.318 3.392 9.349 9.532 9.349 6.139 0 9.53-4.031 9.53-9.349v-15.474h-4.038Zm3.23-45.293h10.986v3.385h-15.025V67.351h4.039v20.953ZM124 100.393h14.216v3.545h-10.178v5.804h10.017v3.546h-10.017v7.897h10.178v3.546H124v-24.338Zm80.291-1.29 16.801 17.247v-15.957h4.038v25.305l-16.802-16.923v15.957h-4.037V99.103Z" fill="#fff"/><mask id="c" style="mask-type:luminance" maskUnits="userSpaceOnUse" x="124" y="60" width="214" height="133"><path fill-rule="evenodd" clip-rule="evenodd" d="M124 60.902h213.247v131.366H124V60.902Z" fill="#fff"/></mask><g mask="url(#c)"><path fill-rule="evenodd" clip-rule="evenodd" d="M304.453 100.393h4.039v24.338h-4.039v-24.338Z" fill="#fff"/></g><mask id="d" style="mask-type:luminance" maskUnits="userSpaceOnUse" x="124" y="60" width="214" height="133"><path fill-rule="evenodd" clip-rule="evenodd" d="M124 60.902h213.247v131.366H124V60.902Z" fill="#fff"/></mask><g mask="url(#d)"><path fill-rule="evenodd" clip-rule="evenodd" d="M163.256 137.143v5.803h8.723v3.386h-8.723v11.603h-4.037v-24.338h13.085v3.546h-9.048Z" fill="#fff"/></g><mask id="e" style="mask-type:luminance" maskUnits="userSpaceOnUse" x="124" y="60" width="214" height="133"><path fill-rule="evenodd" clip-rule="evenodd" d="M124 60.902h213.247v131.366H124V60.902Z" fill="#fff"/></mask><g mask="url(#e)"><path fill-rule="evenodd" clip-rule="evenodd" d="M179.412 82.501h.161l3.877-15.15h3.879l-6.786 25.306-8.563-18.215-8.561 18.215-6.947-25.307h4.038l3.878 15.151 7.592-15.635 7.432 15.635Z" fill="#fff"/></g><mask id="f" style="mask-type:luminance" maskUnits="userSpaceOnUse" x="124" y="60" width="214" height="133"><path fill-rule="evenodd" clip-rule="evenodd" d="M124 60.902h213.247v131.366H124V60.902Z" fill="#fff"/></mask><g mask="url(#f)"><path fill-rule="evenodd" clip-rule="evenodd" d="M272.789 109.58h-.162l-3.878 15.151h-3.876l6.785-25.305 8.562 18.375 8.563-18.375 6.946 25.305h-4.039l-3.878-15.151h-.161l-7.431 15.797-7.431-15.797Z" fill="#fff"/></g><mask id="g" style="mask-type:luminance" maskUnits="userSpaceOnUse" x="124" y="60" width="214" height="133"><path fill-rule="evenodd" clip-rule="evenodd" d="M124 60.902h213.247v131.366H124V60.902Z" fill="#fff"/></mask><g mask="url(#g)"><path fill-rule="evenodd" clip-rule="evenodd" d="m274.889 142.784-3.878 15.152h-4.038l6.785-25.307 8.724 18.214 8.563-18.214 6.783 25.307h-4.038l-3.878-15.152-7.43 15.636-7.593-15.636Z" fill="#fff"/></g><mask id="h" style="mask-type:luminance" maskUnits="userSpaceOnUse" x="124" y="60" width="214" height="133"><path fill-rule="evenodd" clip-rule="evenodd" d="M124 60.902h213.247v131.366H124V60.902Z" fill="#fff"/></mask><g mask="url(#h)"><path fill-rule="evenodd" clip-rule="evenodd" d="M220.608 133.597c2.261 0 4.847 0 6.785 1.128 2.101 1.129 3.392 3.546 3.392 5.803 0 3.546-2.422 6.448-5.977 6.769l7.755 10.639h-4.523l-7.27-10.316h-2.747v10.316h-4.038v-24.339h6.623Zm-2.585 10.8h1.778c3.23 0 7.108.16 7.108-3.708 0-3.869-4.04-3.707-7.27-3.707h-1.616v7.415Z" fill="#fff"/></g><mask id="i" style="mask-type:luminance" maskUnits="userSpaceOnUse" x="124" y="60" width="214" height="133"><path fill-rule="evenodd" clip-rule="evenodd" d="M124 60.902h213.247v131.366H124V60.902Z" fill="#fff"/></mask><g mask="url(#i)"><path fill-rule="evenodd" clip-rule="evenodd" d="M234.339 67.35c2.261 0 4.846 0 6.784 1.128 2.102 1.128 3.231 3.546 3.231 5.803 0 3.547-2.26 6.448-5.976 6.769l7.915 10.638h-4.523l-7.431-10.315h-2.586v10.315h-4.037V67.35h6.623Zm-2.586 10.8h1.778c3.231 0 6.947.16 6.947-3.708 0-3.869-4.04-3.706-7.108-3.706h-1.617v7.413Z" fill="#fff"/></g><mask id="j" style="mask-type:luminance" maskUnits="userSpaceOnUse" x="124" y="60" width="214" height="133"><path fill-rule="evenodd" clip-rule="evenodd" d="M124 60.902h213.247v131.366H124V60.902Z" fill="#fff"/></mask><g mask="url(#j)"><path fill-rule="evenodd" clip-rule="evenodd" d="M281.189 88.304h2.262c5.332 0 10.338-1.935 10.338-8.866 0-7.092-5.006-8.703-10.338-8.703h-2.262v17.57Zm-4.039-20.953h6.623c7.755 0 14.056 3.706 14.056 12.087 0 8.382-6.139 12.251-14.056 12.251h-6.623V67.351Z" fill="#fff"/></g><mask id="k" style="mask-type:luminance" maskUnits="userSpaceOnUse" x="124" y="60" width="214" height="133"><path fill-rule="evenodd" clip-rule="evenodd" d="M124 60.902h213.247v131.366H124V60.902Z" fill="#fff"/></mask><g mask="url(#k)"><path fill-rule="evenodd" clip-rule="evenodd" d="M335.147 120.541c-1.292.806-2.747 1.129-4.523 1.129-5.332 0-9.046-4.031-9.046-9.028 0-4.834 3.23-9.187 9.046-9.187 1.776 0 3.231.323 4.523.967l1.938-2.901c-1.776-.967-4.038-1.612-6.461-1.612-7.108 0-13.086 5.643-13.086 12.733 0 7.094 5.978 12.574 13.086 12.574 2.423 0 4.685-.484 6.623-1.613l-2.1-3.062Z" fill="#fff"/></g><mask id="l" style="mask-type:luminance" maskUnits="userSpaceOnUse" x="124" y="60" width="214" height="133"><path fill-rule="evenodd" clip-rule="evenodd" d="M124 60.902h213.247v131.366H124V60.902Z" fill="#fff"/></mask><g mask="url(#l)"><path fill-rule="evenodd" clip-rule="evenodd" d="M163.418 120.541c-1.292.806-2.747 1.129-4.361 1.129-5.494 0-9.21-4.031-9.21-9.028 0-4.834 3.231-9.187 9.21-9.187 1.614 0 3.069.323 4.361.967l2.1-2.901c-1.938-.967-4.201-1.612-6.461-1.612-7.27 0-13.086 5.643-13.086 12.733 0 7.094 5.816 12.574 13.086 12.574 2.26 0 4.523-.484 6.461-1.613l-2.1-3.062Z" fill="#fff"/></g><mask id="m" style="mask-type:luminance" maskUnits="userSpaceOnUse" x="124" y="60" width="214" height="133"><path fill-rule="evenodd" clip-rule="evenodd" d="M124 60.902h213.247v131.366H124V60.902Z" fill="#fff"/></mask><g mask="url(#m)"><path fill-rule="evenodd" clip-rule="evenodd" d="M255.664 112.643c0-4.836-3.231-9.188-9.047-9.188-5.977 0-9.209 4.352-9.209 9.188 0 4.997 3.716 9.025 9.209 9.025 5.331 0 9.047-4.028 9.047-9.025Zm4.039 0c0 7.092-5.979 12.573-13.086 12.573-7.27 0-13.085-5.481-13.085-12.573 0-7.093 5.815-12.734 13.085-12.734 7.107 0 13.086 5.641 13.086 12.734Z" fill="#fff"/></g></g><defs><clipPath id="a"><path fill="#fff" transform="translate(124 59.963)" d="M0 0h214.209v132.306H0z"/></clipPath></defs></svg>