<svg width="22" height="22" viewBox="0 0 22 22" fill="none" xmlns="http://www.w3.org/2000/svg">
<path d="M11.0547 8.28699L13.9778 11.0557L13.9917 10.9106C13.9917 9.45598 12.7436 8.2738 11.2078 8.2738L11.0547 8.28699Z" fill="#D0D0D0"/>
<path d="M11.2077 6.5159C13.7689 6.5159 15.8476 8.48476 15.8476 10.9107C15.8476 11.4776 15.727 12.0181 15.5182 12.5147L18.2325 15.0856C19.6338 13.9782 20.7381 12.5455 21.4201 10.9107C19.8101 7.05208 15.8523 4.31854 11.2077 4.31854C9.90856 4.31854 8.6651 4.53827 7.50977 4.93379L9.5142 6.82791C10.0384 6.63456 10.6092 6.5159 11.2077 6.5159Z" fill="#D0D0D0"/>
<path d="M1.92796 4.12066L4.04376 6.12466L4.466 6.5246C2.93484 7.65844 1.72382 9.16585 1 10.9105C2.60542 14.7691 6.56787 17.5026 11.2078 17.5026C12.6462 17.5026 14.0196 17.239 15.277 16.7599L15.6714 17.1335L18.3765 19.7L19.5596 18.5838L3.11114 3L1.92796 4.12066ZM7.05972 8.97686L8.49344 10.3348C8.45168 10.5238 8.42384 10.7128 8.42384 10.9105C8.42384 12.3652 9.67196 13.5474 11.2078 13.5474C11.4166 13.5474 11.6161 13.521 11.811 13.4815L13.2447 14.8394C12.6276 15.1295 11.9409 15.3053 11.2078 15.3053C8.64656 15.3053 6.56787 13.3364 6.56787 10.9105C6.56787 10.2162 6.75348 9.56574 7.05972 8.97686Z" fill="#D0D0D0"/>
</svg>
