<svg width="106" height="32" viewBox="0 0 106 32" fill="none" xmlns="http://www.w3.org/2000/svg">
<path d="M103 0H3C1.34315 0 0 1.34315 0 3V28.4345C0 30.0914 1.34315 31.4345 3 31.4345H103C104.657 31.4345 106 30.0914 106 28.4345V3C106 1.34315 104.657 0 103 0Z" fill="black"/>
<path d="M33.3998 8.97596V8.22396H35.5998V8.26396C35.5998 9.19196 35.3358 9.91195 34.8078 10.424C34.3385 10.8773 33.7331 11.104 32.9918 11.104C32.2505 11.104 31.6451 10.8613 31.1758 10.376C30.6478 9.83196 30.3838 9.15995 30.3838 8.35995C30.3838 7.95995 30.4558 7.58662 30.5998 7.23995C30.7438 6.88795 30.9305 6.59729 31.1598 6.36796C31.3998 6.12796 31.6931 5.93595 32.0398 5.79195C32.3918 5.64262 32.7678 5.56796 33.1678 5.56796C33.6958 5.56796 34.1598 5.67995 34.5598 5.90395C34.9278 6.11195 35.2158 6.37863 35.4238 6.70396L34.7758 7.15996C34.5838 6.89329 34.3651 6.69063 34.1198 6.55196C33.8585 6.39729 33.5438 6.31996 33.1758 6.31996C32.6051 6.31996 32.1358 6.50396 31.7678 6.87196C31.5918 7.04796 31.4531 7.26928 31.3518 7.53595C31.2505 7.80262 31.1998 8.07996 31.1998 8.36796C31.1998 8.93863 31.3838 9.42129 31.7518 9.81596C32.0878 10.1733 32.5331 10.352 33.0878 10.352C33.5625 10.352 33.9598 10.1947 34.2798 9.87996C34.5411 9.62396 34.6905 9.32263 34.7278 8.97596H33.3998ZM39.5682 5.66396V6.43196H37.4402V7.78396H39.5042V8.55196H37.4402V10.232H39.5682V11H36.6242V5.66396H39.5682ZM43.3282 6.43196H42.1042V11H41.2882V6.43196H40.0642V5.66396H43.3282V6.43196ZM45.9132 5.66396H46.7292V11H45.9132V5.66396ZM50.711 6.43196H49.487V11H48.671V6.43196H47.447V5.66396H50.711V6.43196ZM53.832 6.35996C54.3601 5.83196 55.0214 5.56796 55.8161 5.56796C56.6107 5.56796 57.2721 5.83196 57.8001 6.35996C58.3281 6.88796 58.5921 7.54663 58.5921 8.33596C58.5921 9.12529 58.3281 9.78396 57.8001 10.312C57.2721 10.84 56.6107 11.104 55.8161 11.104C55.0214 11.104 54.3601 10.84 53.832 10.312C53.3041 9.78396 53.0401 9.12529 53.0401 8.33596C53.0401 7.54663 53.3041 6.88796 53.832 6.35996ZM54.4081 9.79195C54.7761 10.1653 55.2454 10.352 55.8161 10.352C56.3867 10.352 56.8561 10.1653 57.2241 9.79195C57.5921 9.41328 57.7761 8.92796 57.7761 8.33596C57.7761 7.74396 57.5921 7.26129 57.2241 6.88796C56.8561 6.50929 56.3867 6.31996 55.8161 6.31996C55.2454 6.31996 54.7761 6.50929 54.4081 6.88796C54.0401 7.26129 53.8561 7.74396 53.8561 8.33596C53.8561 8.92796 54.0401 9.41328 54.4081 9.79195ZM60.4324 11H59.6164V5.30396L63.4884 9.35995V5.66396H64.3044V11.328L60.4324 7.27196V11Z" fill="white"/>
<path d="M35.9499 20.4579V19.1419H39.7999V19.2119C39.7999 20.8359 39.3379 22.0959 38.4139 22.9919C37.5926 23.7852 36.5332 24.1819 35.2359 24.1819C33.9386 24.1819 32.8792 23.7572 32.0579 22.9079C31.1339 21.9559 30.6719 20.7799 30.6719 19.3799C30.6719 18.6799 30.7979 18.0266 31.0499 17.4199C31.3019 16.8039 31.6286 16.2952 32.0299 15.8939C32.4499 15.4739 32.9632 15.1379 33.5699 14.8859C34.1859 14.6246 34.8439 14.4939 35.5439 14.4939C36.4679 14.4939 37.2799 14.6899 37.9799 15.0819C38.6239 15.4459 39.1279 15.9126 39.4919 16.4819L38.3579 17.2799C38.0219 16.8132 37.6392 16.4586 37.2099 16.2159C36.7526 15.9452 36.2019 15.8099 35.5579 15.8099C34.5592 15.8099 33.7379 16.1319 33.0939 16.7759C32.7859 17.0839 32.5432 17.4712 32.3659 17.9379C32.1886 18.4046 32.0999 18.8899 32.0999 19.3939C32.0999 20.3926 32.4219 21.2372 33.0659 21.9279C33.6539 22.5532 34.4332 22.8659 35.4039 22.8659C36.2346 22.8659 36.9299 22.5906 37.4899 22.0399C37.9472 21.5919 38.2086 21.0646 38.2739 20.4579H35.9499ZM41.9286 18.8339C42.5352 18.2459 43.2866 17.9519 44.1826 17.9519C45.0786 17.9519 45.8252 18.2459 46.4226 18.8339C47.0292 19.4126 47.3326 20.1546 47.3326 21.0599C47.3326 21.9559 47.0292 22.7026 46.4226 23.2999C45.8252 23.8879 45.0786 24.1819 44.1826 24.1819C43.2866 24.1819 42.5352 23.8879 41.9286 23.2999C41.3312 22.7026 41.0326 21.9559 41.0326 21.0599C41.0326 20.1546 41.3312 19.4126 41.9286 18.8339ZM42.9086 22.4459C43.2259 22.7819 43.6506 22.9499 44.1826 22.9499C44.7146 22.9499 45.1392 22.7819 45.4566 22.4459C45.7739 22.1006 45.9326 21.6432 45.9326 21.0739C45.9326 20.4486 45.7599 19.9772 45.4146 19.6599C45.0786 19.3426 44.6679 19.1839 44.1826 19.1839C43.6972 19.1839 43.2819 19.3426 42.9366 19.6599C42.6006 19.9772 42.4326 20.4486 42.4326 21.0739C42.4326 21.6432 42.5912 22.1006 42.9086 22.4459ZM49.3524 18.8339C49.9591 18.2459 50.7104 17.9519 51.6064 17.9519C52.5024 17.9519 53.2491 18.2459 53.8464 18.8339C54.4531 19.4126 54.7564 20.1546 54.7564 21.0599C54.7564 21.9559 54.4531 22.7026 53.8464 23.2999C53.2491 23.8879 52.5024 24.1819 51.6064 24.1819C50.7104 24.1819 49.9591 23.8879 49.3524 23.2999C48.7551 22.7026 48.4564 21.9559 48.4564 21.0599C48.4564 20.1546 48.7551 19.4126 49.3524 18.8339ZM50.3324 22.4459C50.6497 22.7819 51.0744 22.9499 51.6064 22.9499C52.1384 22.9499 52.5631 22.7819 52.8804 22.4459C53.1977 22.1006 53.3564 21.6432 53.3564 21.0739C53.3564 20.4486 53.1837 19.9772 52.8384 19.6599C52.5024 19.3426 52.0917 19.1839 51.6064 19.1839C51.1211 19.1839 50.7057 19.3426 50.3604 19.6599C50.0244 19.9772 49.8564 20.4486 49.8564 21.0739C49.8564 21.6432 50.0151 22.1006 50.3324 22.4459ZM60.5002 18.7499V18.1059H61.8722V23.5239C61.8722 24.2892 61.8069 24.9099 61.6762 25.3859C61.5455 25.8712 61.2889 26.2726 60.9062 26.5899C60.3929 27.0099 59.7395 27.2199 58.9462 27.2199C58.1435 27.2199 57.4995 26.9772 57.0142 26.4919C56.5382 26.0159 56.2489 25.4046 56.1462 24.6579H57.4762C57.5415 25.0312 57.6862 25.3392 57.9102 25.5819C58.1622 25.8526 58.5169 25.9879 58.9742 25.9879C59.4315 25.9879 59.7909 25.8572 60.0522 25.5959C60.3509 25.3066 60.5002 24.8119 60.5002 24.1119V23.3419C60.0615 23.9019 59.4642 24.1819 58.7082 24.1819C57.9149 24.1819 57.2662 23.9159 56.7622 23.3839C56.1742 22.7679 55.8802 21.9886 55.8802 21.0459C55.8802 20.1032 56.1695 19.3426 56.7482 18.7639C57.2802 18.2226 57.9475 17.9519 58.7502 17.9519C59.4689 17.9519 60.0522 18.2179 60.5002 18.7499ZM58.9182 19.1839C58.4982 19.1839 58.1529 19.3146 57.8822 19.5759C57.4809 19.9492 57.2802 20.4486 57.2802 21.0739C57.2802 21.7179 57.4762 22.2126 57.8682 22.5579C58.1669 22.8192 58.5169 22.9499 58.9182 22.9499C59.3755 22.9499 59.7582 22.7912 60.0662 22.4739C60.4115 22.1006 60.5842 21.6386 60.5842 21.0879C60.5842 20.4532 60.3975 19.9586 60.0242 19.6039C59.7442 19.3239 59.3755 19.1839 58.9182 19.1839ZM63.612 13.7939H64.984V23.9999H63.612V13.7939ZM70.8456 22.0119L71.9936 22.6559C71.7322 23.1226 71.4009 23.4819 70.9996 23.7339C70.5422 24.0326 69.9636 24.1819 69.2636 24.1819C68.4422 24.1819 67.7796 23.9299 67.2756 23.4259C66.6969 22.8472 66.4076 22.0959 66.4076 21.1719C66.4076 20.2012 66.7202 19.3939 67.3456 18.7499C67.8776 18.2179 68.5356 17.9519 69.3196 17.9519C70.0849 17.9519 70.7149 18.2086 71.2096 18.7219C71.7602 19.2912 72.0356 20.1219 72.0356 21.2139V21.3819H67.8076C67.8449 21.8766 68.0129 22.2732 68.3116 22.5719C68.5636 22.8239 68.9136 22.9499 69.3616 22.9499C69.7256 22.9499 70.0382 22.8519 70.2996 22.6559C70.5142 22.4879 70.6962 22.2732 70.8456 22.0119ZM67.9056 20.2619H70.6356C70.5796 19.9352 70.4396 19.6692 70.2156 19.4639C69.9729 19.2399 69.6649 19.1279 69.2916 19.1279C68.8996 19.1279 68.5776 19.2539 68.3256 19.5059C68.1202 19.6926 67.9802 19.9446 67.9056 20.2619ZM76.989 14.6619H79.047C79.9057 14.6619 80.587 14.8299 81.091 15.1659C81.4644 15.4179 81.749 15.7492 81.945 16.1599C82.1504 16.5612 82.253 16.9859 82.253 17.4339C82.253 18.2739 81.9497 18.9552 81.343 19.4779C80.7737 19.9632 80.013 20.2059 79.061 20.2059H78.417V23.9999H76.989V14.6619ZM78.417 15.9779V18.8899H79.061C79.6584 18.8899 80.111 18.7592 80.419 18.4979C80.727 18.2272 80.881 17.8679 80.881 17.4199C80.881 17.2612 80.8577 17.1119 80.811 16.9719C80.7737 16.8319 80.6944 16.6826 80.573 16.5239C80.461 16.3559 80.2744 16.2252 80.013 16.1319C79.7517 16.0292 79.4297 15.9779 79.047 15.9779H78.417ZM83.4636 13.7939H84.8356V23.9999H83.4636V13.7939ZM90.8791 18.7919V18.1059H92.2511V23.9999H90.8791V23.3839C90.4218 23.9159 89.8338 24.1819 89.1151 24.1819C88.2471 24.1819 87.5518 23.8739 87.0291 23.2579C86.5158 22.6419 86.2591 21.9046 86.2591 21.0459C86.2591 20.1126 86.5345 19.3659 87.0851 18.8059C87.6451 18.2366 88.3265 17.9519 89.1291 17.9519C89.8665 17.9519 90.4498 18.2319 90.8791 18.7919ZM89.2971 19.1839C88.8118 19.1839 88.4151 19.3659 88.1071 19.7299C87.8085 20.0939 87.6591 20.5419 87.6591 21.0739C87.6591 21.5966 87.8085 22.0399 88.1071 22.4039C88.4151 22.7679 88.8118 22.9499 89.2971 22.9499C89.7638 22.9499 90.1558 22.7866 90.4731 22.4599C90.7998 22.1332 90.9631 21.6759 90.9631 21.0879C90.9631 20.4812 90.7998 20.0146 90.4731 19.6879C90.1558 19.3519 89.7638 19.1839 89.2971 19.1839ZM93.5569 27.2059L95.7269 23.0759L93.2069 18.1059H94.8589L96.5389 21.5499L98.2469 18.1059H99.7869L95.0969 27.2059H93.5569Z" fill="white"/>
<path d="M19.0835 16.502L8.53778 26.6568C8.04394 26.3193 7.75074 25.7579 7.75593 25.1598V7.84415C7.75074 7.24604 8.04394 6.68466 8.53778 6.34717L19.0835 16.502Z" fill="#2196F3"/>
<path d="M22.7729 12.9548L19.0828 16.5019L8.53711 6.34706C8.57684 6.31626 8.61823 6.28761 8.66105 6.26124C9.2184 5.92344 9.91458 5.91253 10.4823 6.23264L22.7729 12.9548Z" fill="#4CAF50"/>
<path d="M27.244 16.5019C27.2509 17.1771 26.884 17.8008 26.2905 18.1228L22.7721 20.0489L19.082 16.5019L22.7721 12.9548L26.2905 14.8809C26.884 15.203 27.2509 15.8267 27.244 16.5019Z" fill="#FFC107"/>
<path d="M22.7729 20.0487L10.4823 26.7709C9.91333 27.0861 9.21979 27.0751 8.66105 26.7423C8.61823 26.7159 8.57684 26.6873 8.53711 26.6565L19.0829 16.5017L22.7729 20.0487Z" fill="#F44336"/>
</svg>
