<svg width="1920" height="60" viewBox="0 0 1920 60" fill="none" xmlns="http://www.w3.org/2000/svg">
<rect width="60" height="60" fill="white"/>
<rect width="20" height="20" fill="black"/>
<rect x="40" width="20" height="20" fill="black"/>
<rect x="40" y="40" width="20" height="20" fill="black"/>
<rect y="40" width="20" height="20" fill="black"/>
<rect x="20" y="20" width="20" height="20" fill="black"/>
<rect width="60" height="60" transform="translate(40)" fill="white"/>
<rect x="40" width="20" height="20" fill="black"/>
<rect x="80" width="20" height="20" fill="black"/>
<rect x="80" y="40" width="20" height="20" fill="black"/>
<rect x="40" y="40" width="20" height="20" fill="black"/>
<rect x="60" y="20" width="20" height="20" fill="black"/>
<rect width="60" height="60" transform="translate(80)" fill="white"/>
<rect x="80" width="20" height="20" fill="black"/>
<rect x="120" width="20" height="20" fill="black"/>
<rect x="120" y="40" width="20" height="20" fill="black"/>
<rect x="80" y="40" width="20" height="20" fill="black"/>
<rect x="100" y="20" width="20" height="20" fill="black"/>
<rect width="60" height="60" transform="translate(120)" fill="white"/>
<rect x="120" width="20" height="20" fill="black"/>
<rect x="160" width="20" height="20" fill="black"/>
<rect x="160" y="40" width="20" height="20" fill="black"/>
<rect x="120" y="40" width="20" height="20" fill="black"/>
<rect x="140" y="20" width="20" height="20" fill="black"/>
<rect width="60" height="60" transform="translate(160)" fill="white"/>
<rect x="160" width="20" height="20" fill="black"/>
<rect x="200" width="20" height="20" fill="black"/>
<rect x="200" y="40" width="20" height="20" fill="black"/>
<rect x="160" y="40" width="20" height="20" fill="black"/>
<rect x="180" y="20" width="20" height="20" fill="black"/>
<rect width="60" height="60" transform="translate(200)" fill="white"/>
<rect x="200" width="20" height="20" fill="black"/>
<rect x="240" width="20" height="20" fill="black"/>
<rect x="240" y="40" width="20" height="20" fill="black"/>
<rect x="200" y="40" width="20" height="20" fill="black"/>
<rect x="220" y="20" width="20" height="20" fill="black"/>
<rect width="60" height="60" transform="translate(240)" fill="white"/>
<rect x="240" width="20" height="20" fill="black"/>
<rect x="280" width="20" height="20" fill="black"/>
<rect x="280" y="40" width="20" height="20" fill="black"/>
<rect x="240" y="40" width="20" height="20" fill="black"/>
<rect x="260" y="20" width="20" height="20" fill="black"/>
<rect width="60" height="60" transform="translate(280)" fill="white"/>
<rect x="280" width="20" height="20" fill="black"/>
<rect x="320" width="20" height="20" fill="black"/>
<rect x="320" y="40" width="20" height="20" fill="black"/>
<rect x="280" y="40" width="20" height="20" fill="black"/>
<rect x="300" y="20" width="20" height="20" fill="black"/>
<rect width="60" height="60" transform="translate(320)" fill="white"/>
<rect x="320" width="20" height="20" fill="black"/>
<rect x="360" width="20" height="20" fill="black"/>
<rect x="360" y="40" width="20" height="20" fill="black"/>
<rect x="320" y="40" width="20" height="20" fill="black"/>
<rect x="340" y="20" width="20" height="20" fill="black"/>
<rect width="60" height="60" transform="translate(360)" fill="white"/>
<rect x="360" width="20" height="20" fill="black"/>
<rect x="400" width="20" height="20" fill="black"/>
<rect x="400" y="40" width="20" height="20" fill="black"/>
<rect x="360" y="40" width="20" height="20" fill="black"/>
<rect x="380" y="20" width="20" height="20" fill="black"/>
<rect width="60" height="60" transform="translate(400)" fill="white"/>
<rect x="400" width="20" height="20" fill="black"/>
<rect x="440" width="20" height="20" fill="black"/>
<rect x="440" y="40" width="20" height="20" fill="black"/>
<rect x="400" y="40" width="20" height="20" fill="black"/>
<rect x="420" y="20" width="20" height="20" fill="black"/>
<rect width="60" height="60" transform="translate(440)" fill="white"/>
<rect x="440" width="20" height="20" fill="black"/>
<rect x="480" width="20" height="20" fill="black"/>
<rect x="480" y="40" width="20" height="20" fill="black"/>
<rect x="440" y="40" width="20" height="20" fill="black"/>
<rect x="460" y="20" width="20" height="20" fill="black"/>
<rect width="60" height="60" transform="translate(480)" fill="white"/>
<rect x="480" width="20" height="20" fill="black"/>
<rect x="520" width="20" height="20" fill="black"/>
<rect x="520" y="40" width="20" height="20" fill="black"/>
<rect x="480" y="40" width="20" height="20" fill="black"/>
<rect x="500" y="20" width="20" height="20" fill="black"/>
<rect width="60" height="60" transform="translate(520)" fill="white"/>
<rect x="520" width="20" height="20" fill="black"/>
<rect x="560" width="20" height="20" fill="black"/>
<rect x="560" y="40" width="20" height="20" fill="black"/>
<rect x="520" y="40" width="20" height="20" fill="black"/>
<rect x="540" y="20" width="20" height="20" fill="black"/>
<rect width="60" height="60" transform="translate(560)" fill="white"/>
<rect x="560" width="20" height="20" fill="black"/>
<rect x="600" width="20" height="20" fill="black"/>
<rect x="600" y="40" width="20" height="20" fill="black"/>
<rect x="560" y="40" width="20" height="20" fill="black"/>
<rect x="580" y="20" width="20" height="20" fill="black"/>
<rect width="60" height="60" transform="translate(600)" fill="white"/>
<rect x="600" width="20" height="20" fill="black"/>
<rect x="640" width="20" height="20" fill="black"/>
<rect x="640" y="40" width="20" height="20" fill="black"/>
<rect x="600" y="40" width="20" height="20" fill="black"/>
<rect x="620" y="20" width="20" height="20" fill="black"/>
<rect width="60" height="60" transform="translate(640)" fill="white"/>
<rect x="640" width="20" height="20" fill="black"/>
<rect x="680" width="20" height="20" fill="black"/>
<rect x="680" y="40" width="20" height="20" fill="black"/>
<rect x="640" y="40" width="20" height="20" fill="black"/>
<rect x="660" y="20" width="20" height="20" fill="black"/>
<rect width="60" height="60" transform="translate(680)" fill="white"/>
<rect x="680" width="20" height="20" fill="black"/>
<rect x="720" width="20" height="20" fill="black"/>
<rect x="720" y="40" width="20" height="20" fill="black"/>
<rect x="680" y="40" width="20" height="20" fill="black"/>
<rect x="700" y="20" width="20" height="20" fill="black"/>
<rect width="60" height="60" transform="translate(720)" fill="white"/>
<rect x="720" width="20" height="20" fill="black"/>
<rect x="760" width="20" height="20" fill="black"/>
<rect x="760" y="40" width="20" height="20" fill="black"/>
<rect x="720" y="40" width="20" height="20" fill="black"/>
<rect x="740" y="20" width="20" height="20" fill="black"/>
<rect width="60" height="60" transform="translate(760)" fill="white"/>
<rect x="760" width="20" height="20" fill="black"/>
<rect x="800" width="20" height="20" fill="black"/>
<rect x="800" y="40" width="20" height="20" fill="black"/>
<rect x="760" y="40" width="20" height="20" fill="black"/>
<rect x="780" y="20" width="20" height="20" fill="black"/>
<rect width="60" height="60" transform="translate(800)" fill="white"/>
<rect x="800" width="20" height="20" fill="black"/>
<rect x="840" width="20" height="20" fill="black"/>
<rect x="840" y="40" width="20" height="20" fill="black"/>
<rect x="800" y="40" width="20" height="20" fill="black"/>
<rect x="820" y="20" width="20" height="20" fill="black"/>
<rect width="60" height="60" transform="translate(840)" fill="white"/>
<rect x="840" width="20" height="20" fill="black"/>
<rect x="880" width="20" height="20" fill="black"/>
<rect x="880" y="40" width="20" height="20" fill="black"/>
<rect x="840" y="40" width="20" height="20" fill="black"/>
<rect x="860" y="20" width="20" height="20" fill="black"/>
<rect width="60" height="60" transform="translate(880)" fill="white"/>
<rect x="880" width="20" height="20" fill="black"/>
<rect x="920" width="20" height="20" fill="black"/>
<rect x="920" y="40" width="20" height="20" fill="black"/>
<rect x="880" y="40" width="20" height="20" fill="black"/>
<rect x="900" y="20" width="20" height="20" fill="black"/>
<rect width="60" height="60" transform="translate(920)" fill="white"/>
<rect x="920" width="20" height="20" fill="black"/>
<rect x="960" width="20" height="20" fill="black"/>
<rect x="960" y="40" width="20" height="20" fill="black"/>
<rect x="920" y="40" width="20" height="20" fill="black"/>
<rect x="940" y="20" width="20" height="20" fill="black"/>
<rect width="60" height="60" transform="translate(960)" fill="white"/>
<rect x="960" width="20" height="20" fill="black"/>
<rect x="1000" width="20" height="20" fill="black"/>
<rect x="1000" y="40" width="20" height="20" fill="black"/>
<rect x="960" y="40" width="20" height="20" fill="black"/>
<rect x="980" y="20" width="20" height="20" fill="black"/>
<rect width="60" height="60" transform="translate(1000)" fill="white"/>
<rect x="1000" width="20" height="20" fill="black"/>
<rect x="1040" width="20" height="20" fill="black"/>
<rect x="1040" y="40" width="20" height="20" fill="black"/>
<rect x="1000" y="40" width="20" height="20" fill="black"/>
<rect x="1020" y="20" width="20" height="20" fill="black"/>
<rect width="60" height="60" transform="translate(1040)" fill="white"/>
<rect x="1040" width="20" height="20" fill="black"/>
<rect x="1080" width="20" height="20" fill="black"/>
<rect x="1080" y="40" width="20" height="20" fill="black"/>
<rect x="1040" y="40" width="20" height="20" fill="black"/>
<rect x="1060" y="20" width="20" height="20" fill="black"/>
<rect width="60" height="60" transform="translate(1080)" fill="white"/>
<rect x="1080" width="20" height="20" fill="black"/>
<rect x="1120" width="20" height="20" fill="black"/>
<rect x="1120" y="40" width="20" height="20" fill="black"/>
<rect x="1080" y="40" width="20" height="20" fill="black"/>
<rect x="1100" y="20" width="20" height="20" fill="black"/>
<rect width="60" height="60" transform="translate(1120)" fill="white"/>
<rect x="1120" width="20" height="20" fill="black"/>
<rect x="1160" width="20" height="20" fill="black"/>
<rect x="1160" y="40" width="20" height="20" fill="black"/>
<rect x="1120" y="40" width="20" height="20" fill="black"/>
<rect x="1140" y="20" width="20" height="20" fill="black"/>
<rect width="60" height="60" transform="translate(1160)" fill="white"/>
<rect x="1160" width="20" height="20" fill="black"/>
<rect x="1200" width="20" height="20" fill="black"/>
<rect x="1200" y="40" width="20" height="20" fill="black"/>
<rect x="1160" y="40" width="20" height="20" fill="black"/>
<rect x="1180" y="20" width="20" height="20" fill="black"/>
<rect width="60" height="60" transform="translate(1200)" fill="white"/>
<rect x="1200" width="20" height="20" fill="black"/>
<rect x="1240" width="20" height="20" fill="black"/>
<rect x="1240" y="40" width="20" height="20" fill="black"/>
<rect x="1200" y="40" width="20" height="20" fill="black"/>
<rect x="1220" y="20" width="20" height="20" fill="black"/>
<rect width="60" height="60" transform="translate(1240)" fill="white"/>
<rect x="1240" width="20" height="20" fill="black"/>
<rect x="1280" width="20" height="20" fill="black"/>
<rect x="1280" y="40" width="20" height="20" fill="black"/>
<rect x="1240" y="40" width="20" height="20" fill="black"/>
<rect x="1260" y="20" width="20" height="20" fill="black"/>
<rect width="60" height="60" transform="translate(1280)" fill="white"/>
<rect x="1280" width="20" height="20" fill="black"/>
<rect x="1320" width="20" height="20" fill="black"/>
<rect x="1320" y="40" width="20" height="20" fill="black"/>
<rect x="1280" y="40" width="20" height="20" fill="black"/>
<rect x="1300" y="20" width="20" height="20" fill="black"/>
<rect width="60" height="60" transform="translate(1320)" fill="white"/>
<rect x="1320" width="20" height="20" fill="black"/>
<rect x="1360" width="20" height="20" fill="black"/>
<rect x="1360" y="40" width="20" height="20" fill="black"/>
<rect x="1320" y="40" width="20" height="20" fill="black"/>
<rect x="1340" y="20" width="20" height="20" fill="black"/>
<rect width="60" height="60" transform="translate(1360)" fill="white"/>
<rect x="1360" width="20" height="20" fill="black"/>
<rect x="1400" width="20" height="20" fill="black"/>
<rect x="1400" y="40" width="20" height="20" fill="black"/>
<rect x="1360" y="40" width="20" height="20" fill="black"/>
<rect x="1380" y="20" width="20" height="20" fill="black"/>
<rect width="60" height="60" transform="translate(1400)" fill="white"/>
<rect x="1400" width="20" height="20" fill="black"/>
<rect x="1440" width="20" height="20" fill="black"/>
<rect x="1440" y="40" width="20" height="20" fill="black"/>
<rect x="1400" y="40" width="20" height="20" fill="black"/>
<rect x="1420" y="20" width="20" height="20" fill="black"/>
<rect width="60" height="60" transform="translate(1440)" fill="white"/>
<rect x="1440" width="20" height="20" fill="black"/>
<rect x="1480" width="20" height="20" fill="black"/>
<rect x="1480" y="40" width="20" height="20" fill="black"/>
<rect x="1440" y="40" width="20" height="20" fill="black"/>
<rect x="1460" y="20" width="20" height="20" fill="black"/>
<rect width="60" height="60" transform="translate(1480)" fill="white"/>
<rect x="1480" width="20" height="20" fill="black"/>
<rect x="1520" width="20" height="20" fill="black"/>
<rect x="1520" y="40" width="20" height="20" fill="black"/>
<rect x="1480" y="40" width="20" height="20" fill="black"/>
<rect x="1500" y="20" width="20" height="20" fill="black"/>
<rect width="60" height="60" transform="translate(1520)" fill="white"/>
<rect x="1520" width="20" height="20" fill="black"/>
<rect x="1560" width="20" height="20" fill="black"/>
<rect x="1560" y="40" width="20" height="20" fill="black"/>
<rect x="1520" y="40" width="20" height="20" fill="black"/>
<rect x="1540" y="20" width="20" height="20" fill="black"/>
<rect width="60" height="60" transform="translate(1560)" fill="white"/>
<rect x="1560" width="20" height="20" fill="black"/>
<rect x="1600" width="20" height="20" fill="black"/>
<rect x="1600" y="40" width="20" height="20" fill="black"/>
<rect x="1560" y="40" width="20" height="20" fill="black"/>
<rect x="1580" y="20" width="20" height="20" fill="black"/>
<rect width="60" height="60" transform="translate(1600)" fill="white"/>
<rect x="1600" width="20" height="20" fill="black"/>
<rect x="1640" width="20" height="20" fill="black"/>
<rect x="1640" y="40" width="20" height="20" fill="black"/>
<rect x="1600" y="40" width="20" height="20" fill="black"/>
<rect x="1620" y="20" width="20" height="20" fill="black"/>
<rect width="60" height="60" transform="translate(1640)" fill="white"/>
<rect x="1640" width="20" height="20" fill="black"/>
<rect x="1680" width="20" height="20" fill="black"/>
<rect x="1680" y="40" width="20" height="20" fill="black"/>
<rect x="1640" y="40" width="20" height="20" fill="black"/>
<rect x="1660" y="20" width="20" height="20" fill="black"/>
<rect width="60" height="60" transform="translate(1680)" fill="white"/>
<rect x="1680" width="20" height="20" fill="black"/>
<rect x="1720" width="20" height="20" fill="black"/>
<rect x="1720" y="40" width="20" height="20" fill="black"/>
<rect x="1680" y="40" width="20" height="20" fill="black"/>
<rect x="1700" y="20" width="20" height="20" fill="black"/>
<rect width="60" height="60" transform="translate(1720)" fill="white"/>
<rect x="1720" width="20" height="20" fill="black"/>
<rect x="1760" width="20" height="20" fill="black"/>
<rect x="1760" y="40" width="20" height="20" fill="black"/>
<rect x="1720" y="40" width="20" height="20" fill="black"/>
<rect x="1740" y="20" width="20" height="20" fill="black"/>
<rect width="60" height="60" transform="translate(1760)" fill="white"/>
<rect x="1760" width="20" height="20" fill="black"/>
<rect x="1800" width="20" height="20" fill="black"/>
<rect x="1800" y="40" width="20" height="20" fill="black"/>
<rect x="1760" y="40" width="20" height="20" fill="black"/>
<rect x="1780" y="20" width="20" height="20" fill="black"/>
<rect width="60" height="60" transform="translate(1800)" fill="white"/>
<rect x="1800" width="20" height="20" fill="black"/>
<rect x="1840" width="20" height="20" fill="black"/>
<rect x="1840" y="40" width="20" height="20" fill="black"/>
<rect x="1800" y="40" width="20" height="20" fill="black"/>
<rect x="1820" y="20" width="20" height="20" fill="black"/>
<rect width="60" height="60" transform="translate(1840)" fill="white"/>
<rect x="1840" width="20" height="20" fill="black"/>
<rect x="1880" width="20" height="20" fill="black"/>
<rect x="1880" y="40" width="20" height="20" fill="black"/>
<rect x="1840" y="40" width="20" height="20" fill="black"/>
<rect x="1860" y="20" width="20" height="20" fill="black"/>
<g clip-path="url(#clip0)">
<rect width="40" height="60" transform="translate(1880)" fill="white"/>
<rect x="1880" width="20" height="20" fill="black"/>
<rect x="1880" y="40" width="20" height="20" fill="black"/>
<rect x="1900" y="20" width="20" height="20" fill="black"/>
</g>
<defs>
<clipPath id="clip0">
<rect width="40" height="60" fill="white" transform="translate(1880)"/>
</clipPath>
</defs>
</svg>
