<svg width="15" height="16" viewBox="0 0 15 16" fill="none" xmlns="http://www.w3.org/2000/svg">
<path d="M14.1114 12.6875C13.7429 11.8148 13.2083 11.0221 12.5372 10.3535C11.8681 9.68303 11.0755 9.14845 10.2032 8.7793C10.1954 8.77539 10.1876 8.77344 10.1797 8.76953C11.3965 7.89062 12.1876 6.45898 12.1876 4.84375C12.1876 2.16797 10.0196 0 7.3438 0C4.66802 0 2.50005 2.16797 2.50005 4.84375C2.50005 6.45898 3.29106 7.89062 4.50786 8.77148C4.50005 8.77539 4.49224 8.77734 4.48443 8.78125C3.60942 9.15039 2.82427 9.67969 2.15044 10.3555C1.47995 11.0245 0.94537 11.8171 0.576221 12.6895C0.213569 13.5435 0.0179823 14.4591 4.88399e-05 15.3867C-0.000472459 15.4076 0.00318384 15.4283 0.0108024 15.4477C0.018421 15.4671 0.0298476 15.4848 0.044409 15.4997C0.0589704 15.5147 0.0763719 15.5265 0.0955882 15.5346C0.114805 15.5427 0.135447 15.5469 0.156299 15.5469H1.32817C1.41411 15.5469 1.48247 15.4785 1.48442 15.3945C1.52349 13.8867 2.12896 12.4746 3.19927 11.4043C4.30669 10.2969 5.77739 9.6875 7.3438 9.6875C8.91021 9.6875 10.3809 10.2969 11.4883 11.4043C12.5586 12.4746 13.1641 13.8867 13.2032 15.3945C13.2051 15.4805 13.2735 15.5469 13.3594 15.5469H14.5313C14.5522 15.5469 14.5728 15.5427 14.592 15.5346C14.6112 15.5265 14.6286 15.5147 14.6432 15.4997C14.6578 15.4848 14.6692 15.4671 14.6768 15.4477C14.6844 15.4283 14.6881 15.4076 14.6876 15.3867C14.668 14.4531 14.4747 13.5449 14.1114 12.6875ZM7.3438 8.20312C6.44732 8.20312 5.60357 7.85352 4.9688 7.21875C4.33403 6.58398 3.98442 5.74023 3.98442 4.84375C3.98442 3.94727 4.33403 3.10352 4.9688 2.46875C5.60357 1.83398 6.44732 1.48438 7.3438 1.48438C8.24028 1.48438 9.08403 1.83398 9.7188 2.46875C10.3536 3.10352 10.7032 3.94727 10.7032 4.84375C10.7032 5.74023 10.3536 6.58398 9.7188 7.21875C9.08403 7.85352 8.24028 8.20312 7.3438 8.20312Z" fill="white"/>
</svg>
