<svg width="287" height="46" viewBox="0 0 287 46" fill="none" xmlns="http://www.w3.org/2000/svg">
<path d="M82.0314 6.48753H88.6235V23.2541H94.3288V1.65657H76.3262V23.2541H82.0314V6.48753Z" fill="#D45B41"/>
<path d="M112.107 18.7174H103.87V14.5338H111.135V10.0827H103.87V6.19329H111.787V1.65657H98.1591V23.2541H112.107V18.7174Z" fill="#D45B41"/>
<path d="M124.826 15.9141V6.48753H130.623V23.2541H136.333V1.65657H119.121V15.24C119.121 17.947 118.619 18.6265 115.264 18.6265V23.4574H117.091C122.711 23.4574 124.826 20.7504 124.826 15.9141Z" fill="#D45B41"/>
<path d="M149.33 15.9141V6.48753H155.126V23.2541H160.832V1.65657H143.62V15.24C143.62 17.947 143.123 18.6265 139.768 18.6265V23.4574H141.59C147.21 23.4574 149.33 20.7504 149.33 15.9141Z" fill="#D45B41"/>
<path d="M171.537 15.4754L173.594 8.84684L175.682 15.4754H171.537ZM176.569 1.65657H170.714L163.476 23.2541H169.064L170.212 19.6911H177.007L178.124 23.2541H183.802L176.569 1.65657Z" fill="#D45B41"/>
<path d="M200.95 5.01094V18.4499H201.362C203.408 18.4499 205.042 17.8347 206.266 16.5988C207.489 15.3684 208.098 13.7313 208.098 11.7037C208.098 9.77236 207.532 8.20484 206.394 6.99041C205.256 5.77598 203.734 5.12329 201.826 5.02699L200.95 5.01094ZM198.878 5.01094C196.821 5.01094 195.181 5.62083 193.958 6.84596C192.734 8.07109 192.125 9.69746 192.125 11.7304C192.125 13.6992 192.692 15.2828 193.829 16.4865C194.967 17.6902 196.495 18.3375 198.413 18.4338L199.257 18.4499V5.01094H198.878ZM200.95 3.56647H201.431C203.018 3.57717 204.449 3.93026 205.731 4.62575C207.008 5.32124 208.007 6.29492 208.718 7.54145C209.433 8.78797 209.786 10.1736 209.786 11.6983C209.786 13.2337 209.433 14.6194 208.728 15.8605C208.023 17.1017 207.035 18.0754 205.763 18.7816C204.492 19.4878 203.06 19.8516 201.474 19.8676H200.95V22.8743H199.257V19.873H198.862C197.243 19.873 195.795 19.5252 194.513 18.8351C193.231 18.145 192.232 17.1713 191.511 15.9194C190.79 14.6675 190.432 13.2712 190.432 11.7304C190.432 10.195 190.79 8.79867 191.511 7.5468C192.232 6.29492 193.231 5.31589 194.519 4.6204C195.806 3.92492 197.254 3.57717 198.862 3.57717H199.257V0.640076H200.95V3.56647Z" fill="#D45B41"/>
<path d="M226.88 1.48004H228.617V22.029H226.88V4.44389L215.197 22.029H213.451V1.48004H215.197V19.0545L226.88 1.48004Z" fill="#D45B41"/>
<path d="M247.319 10.6391C247.319 8.16205 246.758 6.22538 245.642 4.82371C244.525 3.42204 242.992 2.7212 241.048 2.7212C239.14 2.7212 237.618 3.42204 236.491 4.82906C235.358 6.23608 234.792 8.1995 234.792 10.7247V12.87C234.792 15.3095 235.353 17.2355 236.485 18.6639C237.613 20.087 239.146 20.8039 241.08 20.8039C243.045 20.8039 244.573 20.103 245.674 18.696C246.774 17.289 247.324 15.3309 247.324 12.8165V10.6391H247.319ZM249.05 12.87C249.05 14.7638 248.724 16.4223 248.072 17.8507C247.421 19.2791 246.486 20.3812 245.273 21.1516C244.06 21.922 242.661 22.3072 241.074 22.3072C238.681 22.3072 236.742 21.4512 235.267 19.7339C233.793 18.0166 233.056 15.7001 233.056 12.7844V10.6712C233.056 8.79869 233.387 7.14022 234.049 5.69574C234.712 4.25127 235.652 3.13849 236.859 2.36811C238.072 1.59237 239.466 1.20183 241.048 1.20183C242.629 1.20183 244.018 1.58167 245.225 2.34671C246.432 3.10639 247.362 4.18707 248.024 5.57805C248.681 6.96902 249.023 8.58469 249.055 10.4197V12.87H249.05Z" fill="#D45B41"/>
<path d="M255.156 12.1959H260.412C262.095 12.1959 263.377 11.7946 264.259 10.9922C265.14 10.1897 265.583 9.07155 265.583 7.63778C265.583 6.2147 265.145 5.08052 264.264 4.24059C263.388 3.39531 262.138 2.96731 260.525 2.94591H255.156V12.1959ZM255.156 13.6618V22.029H253.425V1.48004H260.412C262.544 1.48004 264.232 2.02573 265.466 3.11711C266.7 4.20849 267.32 5.71181 267.32 7.62173C267.32 9.54769 266.727 11.0403 265.535 12.0889C264.349 13.1375 262.624 13.6618 260.37 13.6618H255.156Z" fill="#D45B41"/>
<path d="M270.787 20.5631H282.443V2.94591H274.494L274.211 8.83615C274.088 11.2864 273.73 13.5441 273.132 15.6038C272.533 17.6688 271.753 19.322 270.787 20.5631ZM284.174 20.5631H286.358L286.342 27.0151H284.612V22.0344H269.136V27.0151H267.405V20.5631H268.773C269.814 19.4718 270.658 17.8775 271.305 15.7857C271.951 13.6939 272.336 11.3988 272.469 8.9057L272.838 1.48004H284.184V20.5631H284.174Z" fill="#D45B41"/>
<path d="M2.6543 31.4127C2.6543 31.4127 4.31567 22.8047 12.911 22.0504C21.5063 21.296 27.0887 26.2768 32.0621 29.7489C37.0409 33.2263 40.3583 36.998 65.0919 39.2664C52.271 39.2664 41.8647 39.7211 30.2565 32.7716C18.6376 25.8221 9.59359 22.9545 2.6543 31.4127Z" fill="#D45B41"/>
<path d="M58.1526 33.3708C58.1526 33.3708 25.1229 10.8638 5.06891 12.228C7.17901 16.7594 8.98996 19.6269 10.5018 21.9702C7.33393 20.0816 5.67256 18.1182 2.65966 14.4963C3.86696 18.4232 4.68963 21.2479 7.70253 23.8159C3.56246 20.5364 -0.962229 15.8552 0.848716 8.15136C5.51764 8.15136 23.0128 6.03815 58.1526 33.3708Z" fill="#D45B41"/>
<path d="M20.1494 12.5329V8.11391C20.1494 8.11391 27.6924 5.58341 49.1085 21.9702C42.9225 18.8779 26.7896 9.94892 23.4722 10.5695C23.6645 12.4901 23.4722 13.742 23.4722 13.742L20.1494 12.5329Z" fill="#D45B41"/>
<path d="M27.5909 9.22133L26.4797 6.63733L27.5909 7.24187L28.4403 6.63733C28.4403 6.63733 32.9169 6.31634 39.4021 9.62257C36.2343 9.62257 30.9937 7.00113 29.295 8.10855C27.5909 9.22133 30.2565 10.2592 30.2565 10.2592L27.5909 9.22133Z" fill="#D45B41"/>
<path d="M43.3605 18.2092L42.5592 14.2449C42.5592 14.2449 44.5785 13.2231 46.9878 15.8231C44.8242 11.7732 43.2697 12.8325 42.212 12.6827C41.0154 10.5588 38.9961 10.2646 38.9961 10.2646C38.9961 10.2646 40.4758 12.3457 41.0154 16.2136C42.6554 17.305 43.3605 18.2092 43.3605 18.2092Z" fill="#D45B41"/>
<path d="M83.5325 38.389L83.5432 38.4425C83.5592 39.7425 83.2441 40.7911 82.5977 41.5882C81.946 42.3854 81.0699 42.7866 79.9641 42.7866C78.8422 42.7866 77.9288 42.2784 77.2343 41.2672C76.5345 40.2561 76.1873 38.9614 76.1873 37.3885V34.9329C76.1873 33.3654 76.5345 32.0707 77.2236 31.0543C77.9127 30.0324 78.8102 29.5295 79.9213 29.5295C81.0592 29.5295 81.9513 29.9147 82.603 30.6905C83.2548 31.4662 83.5753 32.5255 83.5539 33.8683L83.5432 33.9218H81.9833C81.9833 33.0605 81.8071 32.4024 81.4598 31.9423C81.1126 31.4876 80.5998 31.2576 79.9213 31.2576C79.2643 31.2576 78.7514 31.6053 78.3668 32.3008C77.9822 32.9909 77.7952 33.8683 77.7952 34.9276V37.3992C77.7952 38.4639 77.9875 39.3466 78.3775 40.0421C78.7674 40.7376 79.2963 41.0853 79.9694 41.0853C80.6265 41.0853 81.1286 40.8553 81.4705 40.3952C81.8124 39.9351 81.9833 39.2717 81.9833 38.405H83.5325V38.389Z" fill="#AAAEAE"/>
<path d="M88.8746 35.5428L89.2165 36.8536H89.2539L91.4227 29.7168H93.2016L89.6973 40.3257C89.4355 41.1121 89.1203 41.7166 88.7464 42.15C88.3724 42.578 87.8382 42.7973 87.1438 42.7973C86.866 42.7973 86.6096 42.7652 86.3799 42.701C86.1502 42.6368 85.9365 42.5566 85.7335 42.4496L85.9204 40.8446C86.0967 40.9088 86.2784 40.9623 86.46 41.0104C86.6416 41.0532 86.8072 41.08 86.9621 41.08C87.3254 41.08 87.6085 40.9676 87.8169 40.7376C88.0252 40.5075 88.1855 40.1973 88.3083 39.8067L88.506 39.2022L85.21 29.7168H86.9728L88.8746 35.5428Z" fill="#AAAEAE"/>
<path d="M97.9881 34.9918C97.9347 36.3239 97.8278 37.4849 97.6622 38.4692C97.4966 39.4536 97.2723 40.2615 96.9785 40.8874H100.889V31.4448H98.1323L97.9881 34.9918ZM103.741 45.7719H102.134V42.5994H95.6483V45.7772H94.0403V40.8821H94.676C95.2263 40.8821 95.6269 40.3952 95.8833 39.4269C96.1398 38.4532 96.3054 36.9766 96.3748 34.9865L96.5938 29.7115H102.502V40.8821H103.747V45.7719H103.741Z" fill="#AAAEAE"/>
<path d="M111.562 34.9864C111.562 33.9111 111.349 33.0284 110.921 32.3382C110.494 31.6481 109.912 31.3004 109.18 31.3004C108.469 31.3004 107.908 31.6481 107.502 32.3382C107.091 33.0284 106.888 33.9111 106.888 34.9864V37.3243C106.888 38.4104 107.091 39.2985 107.502 39.9939C107.914 40.6894 108.469 41.0318 109.18 41.0318C109.917 41.0318 110.499 40.6894 110.926 39.9993C111.354 39.3092 111.562 38.4157 111.562 37.3243V34.9864ZM113.175 37.319C113.175 38.8972 112.807 40.2026 112.064 41.2351C111.322 42.2677 110.36 42.7866 109.174 42.7866C108.02 42.7866 107.08 42.2677 106.359 41.2351C105.633 40.1972 105.269 38.8919 105.269 37.319V34.9971C105.269 33.4243 105.633 32.1242 106.354 31.0864C107.075 30.0485 108.015 29.5295 109.174 29.5295C110.355 29.5295 111.316 30.0485 112.059 31.0864C112.802 32.1242 113.17 33.4296 113.17 34.9971V37.319H113.175Z" fill="#AAAEAE"/>
<path d="M122.754 38.389L122.764 38.4425C122.78 39.7425 122.465 40.7911 121.819 41.5882C121.167 42.3854 120.291 42.7866 119.185 42.7866C118.063 42.7866 117.15 42.2784 116.45 41.2672C115.756 40.2561 115.403 38.9614 115.403 37.3885V34.9329C115.403 33.3654 115.75 32.0707 116.439 31.0543C117.129 30.0324 118.026 29.5295 119.137 29.5295C120.275 29.5295 121.167 29.9147 121.819 30.6905C122.471 31.4662 122.786 32.5255 122.77 33.8683L122.759 33.9218H121.199C121.199 33.0605 121.023 32.4024 120.676 31.9423C120.328 31.4876 119.816 31.2576 119.137 31.2576C118.48 31.2576 117.962 31.6053 117.583 32.3008C117.203 32.9909 117.011 33.8683 117.011 34.9276V37.3992C117.011 38.4639 117.203 39.3466 117.593 40.0421C117.983 40.7376 118.512 41.0853 119.185 41.0853C119.842 41.0853 120.344 40.8553 120.686 40.3952C121.028 39.9351 121.199 39.2717 121.199 38.405H122.754V38.389Z" fill="#AAAEAE"/>
<path d="M131.686 31.4395H128.699V42.6047H127.091V31.4395H124.153V29.7168H131.686V31.4395Z" fill="#AAAEAE"/>
<path d="M135.339 35.9922H137.428C138.027 35.9922 138.475 35.7836 138.774 35.3556C139.074 34.9329 139.223 34.3926 139.223 33.7346C139.223 33.0765 139.074 32.5308 138.774 32.0975C138.475 31.6588 138.027 31.4395 137.428 31.4395H135.339V35.9922ZM135.339 37.7202V42.6101H133.726V29.7168H137.423C138.491 29.7168 139.325 30.0859 139.928 30.8189C140.532 31.5518 140.836 32.5201 140.836 33.7185C140.836 34.9276 140.532 35.9013 139.928 36.6289C139.325 37.3565 138.491 37.7202 137.423 37.7202H135.339Z" fill="#AAAEAE"/>
<path d="M149.159 34.9864C149.159 33.9111 148.946 33.0284 148.518 32.3382C148.091 31.6481 147.509 31.3004 146.777 31.3004C146.066 31.3004 145.505 31.6481 145.099 32.3382C144.688 33.0284 144.485 33.9111 144.485 34.9864V37.3243C144.485 38.4104 144.688 39.2985 145.099 39.9939C145.511 40.6894 146.066 41.0318 146.777 41.0318C147.514 41.0318 148.096 40.6894 148.524 39.9993C148.951 39.3092 149.159 38.4157 149.159 37.3243V34.9864ZM150.773 37.319C150.773 38.8972 150.404 40.2026 149.661 41.2351C148.919 42.2677 147.957 42.7866 146.771 42.7866C145.618 42.7866 144.677 42.2677 143.956 41.2351C143.23 40.1972 142.866 38.8919 142.866 37.319V34.9971C142.866 33.4243 143.23 32.1242 143.951 31.0864C144.672 30.0485 145.612 29.5295 146.771 29.5295C147.952 29.5295 148.914 30.0485 149.656 31.0864C150.399 32.1242 150.767 33.4296 150.767 34.9971V37.319H150.773Z" fill="#AAAEAE"/>
<path d="M159.202 29.7168H160.816V42.6047H159.202V33.3654L159.165 33.344L154.881 42.6047H153.278V29.7168H154.881V38.9507L154.923 38.9668L159.202 29.7168Z" fill="#AAAEAE"/>
<path d="M170.175 31.4395H167.189V42.6047H165.581V31.4395H162.643V29.7168H170.175V31.4395Z" fill="#AAAEAE"/>
<path d="M177.606 36.8054H173.823V40.8874H178.284V42.6047H172.216V29.7168H178.236V31.4395H173.823V35.0827H177.606V36.8054Z" fill="#AAAEAE"/>
<path d="M188.087 29.7168V42.6047H186.473V31.4395H183.343V35.6873C183.343 38.1108 183.092 39.8709 182.584 40.9623C182.077 42.0537 181.27 42.5994 180.154 42.5994H179.839V40.882H180.1C180.709 40.882 181.137 40.4915 181.377 39.7158C181.618 38.9347 181.74 37.5919 181.74 35.6873V29.7168H188.087Z" fill="#AAAEAE"/>
<path d="M192.499 36.2223V40.8874H194.54C195.138 40.8874 195.592 40.6573 195.902 40.1973C196.212 39.7372 196.367 39.1754 196.367 38.5067C196.367 37.8593 196.212 37.3244 195.902 36.8803C195.592 36.4416 195.138 36.2223 194.54 36.2223H192.499ZM192.499 34.4943H194.54C195.608 34.4943 196.447 34.8634 197.061 35.607C197.67 36.3507 197.975 37.319 197.975 38.5227C197.975 39.7318 197.67 40.7162 197.056 41.4705C196.447 42.2249 195.603 42.6047 194.54 42.6047H190.886V29.7168H192.499V34.4943Z" fill="#AAAEAE"/>
<path d="M207.809 42.6047H206.196V37.1104H201.88V42.6047H200.272V29.7168H201.88V35.3823H206.196V29.7168H207.809V42.6047Z" fill="#AAAEAE"/>
<path d="M220.337 42.6047H218.723V29.7168H220.337V42.6047ZM212.227 36.2223V40.8874H214.268C214.866 40.8874 215.32 40.6573 215.63 40.1973C215.94 39.7372 216.095 39.1754 216.095 38.5067C216.095 37.8593 215.94 37.3244 215.63 36.8803C215.32 36.4416 214.866 36.2223 214.268 36.2223H212.227ZM212.227 34.4943H214.268C215.336 34.4943 216.175 34.8634 216.789 35.607C217.398 36.3507 217.703 37.319 217.703 38.5227C217.703 39.7318 217.398 40.7162 216.784 41.4705C216.175 42.2249 215.331 42.6047 214.268 42.6047H210.614V29.7168H212.227V34.4943Z" fill="#AAAEAE"/>
<path d="M229.001 25.9237L229.023 25.9772C229.039 26.7048 228.857 27.2933 228.472 27.7481C228.088 28.2028 227.57 28.4275 226.923 28.4275C226.266 28.4275 225.748 28.1974 225.363 27.7481C224.979 27.2933 224.797 26.7048 224.818 25.9772L224.84 25.9237H226.031C226.031 26.2661 226.101 26.5443 226.245 26.7637C226.389 26.983 226.613 27.09 226.918 27.09C227.212 27.09 227.431 26.983 227.58 26.7637C227.725 26.5443 227.799 26.2661 227.799 25.9237H229.001ZM229.06 29.7168H230.673V42.6047H229.06V33.3654L229.017 33.3494L224.733 42.6101H223.13V29.7168H224.733V38.9507L224.776 38.9668L229.06 29.7168Z" fill="#AAAEAE"/>
<path d="M241.154 35.179C241.849 35.179 242.362 35.0025 242.693 34.6547C243.024 34.307 243.19 33.8255 243.19 33.2156C243.19 32.6539 243.008 32.1884 242.645 31.8139C242.281 31.4448 241.747 31.2576 241.047 31.2576C240.492 31.2576 240.027 31.4341 239.653 31.7925C239.279 32.151 239.092 32.6004 239.092 33.1407H237.543L237.527 33.0872C237.5 32.0279 237.832 31.172 238.515 30.5139C239.199 29.8559 240.043 29.5295 241.047 29.5295C242.207 29.5295 243.12 29.8452 243.788 30.4872C244.456 31.1238 244.792 32.0333 244.792 33.2156C244.792 33.8041 244.648 34.3445 244.354 34.8366C244.06 35.3235 243.66 35.7087 243.147 35.9869C243.724 36.2437 244.173 36.6235 244.482 37.1371C244.792 37.6453 244.947 38.2659 244.947 38.9989C244.947 40.1865 244.584 41.1121 243.863 41.7862C243.142 42.4602 242.201 42.7919 241.047 42.7919C240.043 42.7919 239.178 42.4763 238.451 41.845C237.719 41.2137 237.367 40.2935 237.394 39.0845L237.404 39.031H238.953C238.953 39.6088 239.146 40.0956 239.541 40.4861C239.931 40.8767 240.433 41.0746 241.047 41.0746C241.758 41.0746 242.314 40.882 242.719 40.4968C243.131 40.1116 243.334 39.6141 243.334 39.0042C243.334 38.282 243.152 37.7523 242.784 37.4046C242.415 37.0569 241.87 36.8857 241.154 36.8857H239.899V35.179H241.154Z" fill="#AAAEAE"/>
<path d="M249.605 37.8005H252.143L250.904 32.7181H250.861L249.605 37.8005ZM252.581 39.5927H249.157L248.414 42.6047H246.747L250.118 29.7168H251.651L254.98 42.6047H253.313L252.581 39.5927Z" fill="#AAAEAE"/>
<path d="M258.601 36.7466V40.8874H260.776C261.331 40.8874 261.758 40.7162 262.063 40.3791C262.362 40.0368 262.512 39.5499 262.512 38.9026C262.512 38.2552 262.367 37.7363 262.068 37.3565C261.774 36.9713 261.358 36.768 260.824 36.7466H260.738H258.601ZM258.601 35.1416H260.321C260.818 35.1416 261.219 34.9811 261.507 34.6655C261.796 34.3498 261.94 33.9058 261.94 33.3226C261.94 32.686 261.785 32.2099 261.481 31.8996C261.176 31.5893 260.733 31.4341 260.145 31.4341H258.596V35.1416H258.601ZM256.988 42.6047V29.7168H260.151C261.214 29.7168 262.047 30.011 262.651 30.5995C263.254 31.188 263.553 32.0654 263.553 33.2317C263.553 33.7988 263.43 34.307 263.19 34.7618C262.95 35.2165 262.613 35.5642 262.186 35.7996C262.805 35.9334 263.281 36.2918 263.612 36.8696C263.943 37.4474 264.114 38.1268 264.114 38.9026C264.114 40.1117 263.82 41.0318 263.222 41.6631C262.629 42.2891 261.812 42.6047 260.77 42.6047H256.988Z" fill="#AAAEAE"/>
<path d="M272.421 34.9864C272.421 33.9111 272.208 33.0284 271.78 32.3382C271.353 31.6481 270.771 31.3004 270.039 31.3004C269.328 31.3004 268.767 31.6481 268.361 32.3382C267.95 33.0284 267.747 33.9111 267.747 34.9864V37.3243C267.747 38.4104 267.95 39.2985 268.367 39.9939C268.778 40.6894 269.334 41.0318 270.044 41.0318C270.781 41.0318 271.363 40.6894 271.791 39.9993C272.218 39.3092 272.427 38.4157 272.427 37.3243V34.9864H272.421ZM274.034 37.319C274.034 38.8972 273.666 40.2026 272.923 41.2351C272.181 42.2677 271.219 42.7866 270.033 42.7866C268.879 42.7866 267.939 42.2677 267.218 41.2351C266.492 40.1972 266.128 38.8919 266.128 37.319V34.9971C266.128 33.4243 266.492 32.1242 267.213 31.0864C267.934 30.0485 268.874 29.5295 270.033 29.5295C271.214 29.5295 272.175 30.0485 272.918 31.0864C273.661 32.1242 274.029 33.4296 274.029 34.9971V37.319H274.034Z" fill="#AAAEAE"/>
<path d="M279.51 34.9918C279.457 36.3239 279.344 37.4849 279.184 38.4692C279.019 39.4536 278.789 40.2615 278.5 40.8874H282.411V31.4448H279.654L279.51 34.9918ZM285.263 45.7719H283.65V42.5994H277.17V45.7772H275.562V40.8821H276.198C276.748 40.8821 277.149 40.3952 277.405 39.4269C277.662 38.4532 277.827 36.9766 277.897 34.9865L278.116 29.7115H284.024V40.8821H285.269V45.7719H285.263Z" fill="#AAAEAE"/>
</svg>
