<svg width="270" height="270" viewBox="0 0 270 270" fill="none" xmlns="http://www.w3.org/2000/svg">
<g clip-path="url(#clip0)">
<rect width="270" height="270" rx="5" fill="#27A5E2"/>
<path fill-rule="evenodd" clip-rule="evenodd" d="M354 192C354 219.614 331.614 242 304 242C299.49 242 295.119 241.403 290.962 240.283C293.561 246.333 295 252.998 295 260C295 287.614 272.614 310 245 310C236.771 310 229.006 308.012 222.159 304.49C214.122 321.349 196.922 333 177 333C149.386 333 127 310.614 127 283C127 267.062 134.457 252.866 146.072 243.71C137.953 234.82 133 222.989 133 210C133 182.386 155.386 160 183 160C191.094 160 198.739 161.923 205.502 165.338C214.65 153.571 228.941 146 245 146C254.851 146 264.036 148.849 271.777 153.767C280.479 146.425 291.723 142 304 142C331.614 142 354 164.386 354 192Z" fill="#60BBEA"/>
</g>
<defs>
<clipPath id="clip0">
<rect width="270" height="270" rx="5" fill="white"/>
</clipPath>
</defs>
</svg>
