<svg width="19" height="11" viewBox="0 0 19 11" fill="none" xmlns="http://www.w3.org/2000/svg">
<g clip-path="url(#clip0)">
<g filter="url(#filter0_d)">
<path fill-rule="evenodd" clip-rule="evenodd" d="M-206 -60C-211.523 -60 -216 -55.5228 -216 -50V-10C-216 -4.47715 -211.523 0 -206 0H1.04843C1.50258 0 1.94321 0.15456 2.29782 0.438263L14.7506 10.4005C16.0601 11.4481 18 10.5158 18 8.83875V1C18 0.447716 18.4477 0 19 0C24.5228 0 29 -4.47715 29 -10V-50C29 -55.5228 24.5229 -60 19 -60H-206Z" fill="url(#paint0_linear)"/>
</g>
</g>
<defs>
<filter id="filter0_d" x="-286" y="-110" width="365" height="190.843" filterUnits="userSpaceOnUse" color-interpolation-filters="sRGB">
<feFlood flood-opacity="0" result="BackgroundImageFix"/>
<feColorMatrix in="SourceAlpha" type="matrix" values="0 0 0 0 0 0 0 0 0 0 0 0 0 0 0 0 0 0 127 0"/>
<feOffset dx="-10" dy="10"/>
<feGaussianBlur stdDeviation="30"/>
<feColorMatrix type="matrix" values="0 0 0 0 0 0 0 0 0 0 0 0 0 0 0 0 0 0 0.1 0"/>
<feBlend mode="normal" in2="BackgroundImageFix" result="effect1_dropShadow"/>
<feBlend mode="normal" in="SourceGraphic" in2="effect1_dropShadow" result="shape"/>
</filter>
<linearGradient id="paint0_linear" x1="-216" y1="-44.946" x2="0.0457925" y2="47.5085" gradientUnits="userSpaceOnUse">
<stop stop-color="#719AE2"/>
<stop offset="1" stop-color="#4C6EAA"/>
</linearGradient>
<clipPath id="clip0">
<rect width="19" height="11" fill="white"/>
</clipPath>
</defs>
</svg>
