<svg width="290" height="629" viewBox="0 0 290 629" fill="none" xmlns="http://www.w3.org/2000/svg">
<g clip-path="url(#clip0_470_451)">
<path d="M-40.8054 463.689C-40.8054 463.689 -83.8166 454.571 -74.7445 411.125C-65.713 367.721 -24.9698 322.046 24.8454 347.173C74.6606 372.3 22.5774 481.967 -40.8054 463.689Z" fill="white" fill-opacity="0.1"/>
<path d="M128.242 439.454C128.242 439.454 97.7861 432.97 104.185 402.209C110.584 371.449 139.461 339.068 174.736 356.859C210.053 374.651 173.157 452.382 128.242 439.454Z" fill="white" fill-opacity="0.1"/>
<path d="M163.396 592.039C163.396 592.039 132.94 585.555 139.339 554.795C145.738 524.035 174.615 491.653 209.891 509.445C245.207 527.277 208.311 605.008 163.396 592.039Z" fill="white" fill-opacity="0.1"/>
<path d="M242.412 478.806C242.412 478.806 218.477 473.74 223.539 449.586C228.561 425.432 251.241 400.021 278.943 414.003C306.645 427.944 277.688 488.978 242.412 478.806Z" fill="white" fill-opacity="0.1"/>
<path d="M8.80738 626.325C8.80738 626.325 -47.5283 614.329 -35.7023 557.469C-23.8358 500.569 29.5434 440.71 94.7892 473.618C160.075 506.567 91.8327 650.277 8.80738 626.325Z" fill="white" fill-opacity="0.1"/>
</g>
<g clip-path="url(#clip1_470_451)">
<path d="M24.0701 134.691C25.0294 131.629 26.2042 128.638 27.5857 125.742C28.7397 124.149 30.0816 122.701 31.5822 121.43C37.3416 116.036 46.8871 107.028 40.7231 93.703C34.5592 80.3784 21.5132 81.8202 13.7286 82.6921C11.7884 83.0155 9.81596 83.1008 7.85506 82.9462C4.73568 82.1335 1.67771 81.1012 -1.29592 79.8569C-8.77986 77.0616 -17.3359 73.9634 -26.3286 78.1234C-28.5701 79.0034 -30.6138 80.3213 -32.3403 82C-34.0668 83.6788 -35.4415 85.6847 -36.384 87.9007C-37.1751 90.239 -37.4802 92.7141 -37.2807 95.1745C-37.0812 97.6348 -36.3813 100.028 -35.2238 102.209C-33.0366 106.838 -29.5477 110.73 -25.1838 113.407C-22.149 115.174 -19.6927 117.784 -18.1135 120.921C-16.7456 124.155 -16.3467 127.717 -16.9652 131.174C-17.7498 136.233 -17.0429 141.412 -14.931 146.076C-14.0188 148.369 -12.6478 150.453 -10.9019 152.198C-9.15606 153.943 -7.07215 155.313 -4.77798 156.224C-2.48865 156.936 -0.0806632 157.188 2.30652 156.963C4.69369 156.739 7.01262 156.043 9.12896 154.916C18.2314 150.705 21.2788 142.04 24.0701 134.691ZM73.8491 148.475C74.8428 147.003 75.4425 145.3 75.5909 143.53C75.7393 141.76 75.4315 139.981 74.6968 138.364C71.3739 131.181 59.8513 127.857 48.3887 130.564C46.5204 131.031 44.7 131.673 42.9512 132.48C39.41 133.977 36.3774 136.467 34.2185 139.648C33.2248 141.121 32.6251 142.823 32.4767 144.593C32.3283 146.364 32.6361 148.142 33.3708 149.759C36.6937 156.943 48.2163 160.266 59.6789 157.56C61.5472 157.092 63.3676 156.45 65.1164 155.644C68.6576 154.146 71.6903 151.657 73.8491 148.475ZM60.2382 107.109C64.3729 116.047 77.6345 119.964 90.6578 116.602C92.347 116.168 94 115.604 95.6018 114.914C100.942 112.887 105.263 108.83 107.622 103.628C108.246 102.043 108.54 100.347 108.484 98.6435C108.429 96.9405 108.027 95.2668 107.301 93.725C103.167 84.7871 89.905 80.8702 76.8818 84.232C75.2119 84.6601 73.5773 85.216 71.9926 85.8946C66.6529 87.9217 62.3317 91.9787 59.9721 97.1801C59.3361 98.7654 59.0315 100.464 59.0773 102.172C59.123 103.88 59.5181 105.56 60.2382 107.109ZM1.44566 68.8032C5.26805 69.2178 9.12879 68.5183 12.5628 66.7891C14.4095 65.9537 16.1697 64.9388 17.8179 63.759C27.0784 57.0121 31.9805 46.024 28.6829 38.8956C27.926 37.2886 26.7698 35.9024 25.3247 34.8694C23.8796 33.8365 22.1938 33.1912 20.4283 32.9952C16.6059 32.5806 12.7452 33.28 9.31118 35.0093C7.46426 35.8444 5.70407 36.8593 4.0561 38.0394C-5.20444 44.7863 -10.1066 55.7744 -6.80898 62.9028C-6.05208 64.5098 -4.89587 65.896 -3.45075 66.9289C-2.00563 67.9619 -0.319834 68.6072 1.44566 68.8032ZM43.1415 70.1508C43.847 71.7018 44.8619 73.0923 46.124 74.2369C47.3861 75.3816 48.8689 76.2562 50.4812 76.8073C55.9729 78.3767 61.8625 77.7101 66.8646 74.9532C68.4078 74.1848 69.8897 73.299 71.2972 72.3036C82.3459 64.5297 87.9471 51.8869 83.8124 42.949C83.107 41.398 82.0921 40.0075 80.83 38.8628C79.5678 37.7182 78.0851 36.8435 76.4728 36.2925C70.9811 34.7231 65.0915 35.3896 60.0894 38.1466C58.5462 38.9149 57.0643 39.8007 55.6568 40.7962C44.608 48.5701 39.0069 61.2129 43.1415 70.1508Z" fill="white" fill-opacity="0.2"/>
</g>
<defs>
<clipPath id="clip0_470_451">
<rect width="366" height="289" fill="white" transform="translate(-76 340)"/>
</clipPath>
<clipPath id="clip1_470_451">
<rect width="145" height="145" fill="white" transform="translate(70.6011) rotate(65.1748)"/>
</clipPath>
</defs>
</svg>
