<svg width="228" height="42" viewBox="0 0 228 42" fill="none" xmlns="http://www.w3.org/2000/svg">
<path fill-rule="evenodd" clip-rule="evenodd" d="M85.7054 10.8889C78.9801 10.8889 74.686 15.5261 74.686 21.685C74.686 27.8439 78.9314 32.4718 85.7054 32.4718C92.4794 32.4718 96.7851 27.8347 96.7851 21.685C96.7851 15.5354 92.5374 10.8889 85.7054 10.8889ZM85.7054 27.779C82.439 27.779 80.8244 25.0347 80.8244 21.743C80.8244 18.4513 82.4297 15.591 85.7054 15.591C88.981 15.591 90.5864 18.4304 90.5864 21.743C90.5864 25.0556 88.9718 27.7697 85.7054 27.7697V27.779ZM21.1387 0C9.46505 0 0 9.31843 0 20.8151C0 32.3118 9.46505 41.6302 21.1387 41.6302C32.8123 41.6302 42.2774 32.3118 42.2774 20.8151C42.2774 9.31843 32.8123 0 21.1387 0ZM31.2069 26.3593C30.6921 27.3559 30.0209 28.2637 29.2188 29.0479C28.915 29.3402 28.5943 29.6143 28.2584 29.869C25.9457 31.6645 23.0175 32.4741 20.111 32.1216C19.5165 32.0517 18.9284 31.9345 18.3525 31.7713C15.6566 30.9975 13.3279 29.2821 11.7896 26.937C11.1417 25.9205 10.6462 24.8146 10.3188 23.6545L10.2422 23.3877C10.0656 22.7304 9.94074 22.0603 9.86875 21.3835C9.81273 20.8805 9.78328 20.3748 9.78057 19.8686V19.0637C9.84074 18.0745 9.99217 17.0929 10.2329 16.1315C11.1687 12.5305 13.216 9.31606 16.0837 6.94531C17.7867 5.53221 19.7171 4.41833 21.7929 3.65123C22.3589 3.44245 22.9343 3.24534 23.5027 3.08296L24.5976 2.83705C25.468 2.62789 26.3504 2.47294 27.2399 2.3731C27.6134 2.3731 27.9707 2.30819 28.3071 2.29891L27.7109 2.59114C26.2953 3.35215 25.1094 4.47837 24.2763 5.85272C23.4433 7.22707 22.9935 8.79939 22.9737 10.4064V10.5967L23.2521 10.8147L23.3101 11.0606C24.8511 11.3583 26.3295 11.9185 27.6807 12.7168C28.7859 13.3754 29.7495 14.2467 30.5156 15.2802L30.6803 15.5168C31.2157 16.3085 31.6301 17.1755 31.9099 18.0894C32.1969 19.0425 32.3582 20.029 32.39 21.0239V21.4205C32.3984 23.1379 31.9926 24.8321 31.2069 26.3593ZM63.0309 24.8074L57.7648 11.3528H50.9328L59.8318 31.9337H66.0282L74.5607 11.3528H68.0164L63.0309 24.8074ZM194.394 10.8889C190.945 10.9021 187.519 11.4483 184.237 12.5081V31.9615H190.002V16.5375C191.416 16.2189 192.859 16.0509 194.308 16.0364C197.526 16.0364 199.112 17.6069 199.112 20.6829V31.9615H204.963V19.5554C205.012 14.1249 201.11 10.8889 194.394 10.8889ZM170.518 10.8889C163.686 10.8889 159.44 15.5261 159.44 21.685C159.44 27.8439 163.686 32.4718 170.518 32.4718C177.35 32.4718 181.539 27.8347 181.539 21.685C181.539 15.5354 177.368 10.8889 170.527 10.8889H170.518ZM170.518 27.779C167.251 27.779 165.637 25.0347 165.637 21.743C165.637 18.4513 167.242 15.591 170.518 15.591C173.793 15.591 175.399 18.4304 175.399 21.743C175.399 25.0556 173.793 27.7697 170.527 27.7697L170.518 27.779ZM114.511 11.6939C113.037 11.1687 111.483 10.9033 109.918 10.9097C103.548 10.9097 99.3486 15.5446 99.3486 21.5899C99.3486 28.744 104.058 32.4904 111.34 32.4904C114.367 32.4948 117.386 32.194 120.353 31.5926V3.00876H114.588L114.511 11.6939ZM114.511 27.5145C113.486 27.6864 112.447 27.7625 111.407 27.7418C108.141 27.7418 105.441 25.668 105.441 21.5899C105.441 18.2332 107.22 15.6119 110.38 15.6119C111.814 15.5834 113.233 15.9084 114.511 16.5583V27.5145ZM153.587 10.179C153.543 9.85243 153.566 9.52014 153.655 9.20288C153.745 8.88562 153.898 8.59023 154.107 8.3349C154.44 8.08259 154.819 7.89839 155.223 7.79291C155.627 7.68742 156.048 7.66262 156.462 7.72007C157.269 7.72007 158.814 7.83374 159.728 7.94741V3.02723C158.255 2.72017 156.755 2.55249 155.251 2.52624C153.313 2.44367 151.413 3.08072 149.917 4.31476C149.2 5.01685 148.64 5.8631 148.274 6.79761C147.908 7.73213 147.745 8.73368 147.795 9.73604V31.9615H153.559V16.3682H158.893V11.3528H153.559L153.587 10.179ZM123.014 22.1211C123.014 28.4981 127.261 32.4626 132.824 32.4626C133.882 32.5271 134.94 32.355 135.922 31.959C136.905 31.5629 137.787 30.9527 138.503 30.1729L138.907 31.9615H144.066V12.5081C141.156 11.4591 138.089 10.9116 134.996 10.8889C127.943 10.8889 123.014 15.6397 123.014 22.1211ZM138.225 25.6401C137.758 26.3148 137.131 26.8629 136.399 27.2346C135.668 27.6064 134.856 27.7902 134.035 27.7697C131.451 27.7697 129.154 25.8768 129.154 21.9031C129.154 17.9293 132.038 15.7535 134.919 15.7535C136.039 15.7487 137.155 15.8787 138.244 16.1408L138.225 25.6401ZM227.907 21.2883C227.907 15.5261 224.295 10.8796 218.098 10.8796C211.902 10.8796 207.712 15.0715 207.712 21.6201C207.712 28.6118 212.016 32.4626 219.472 32.4626C222.113 32.4727 224.723 31.8809 227.102 30.732V26.9462C224.702 27.676 222.209 28.0519 219.701 28.0621C215.86 28.0621 213.936 26.4916 213.621 23.5872H227.793C227.851 23.1326 227.907 22.0724 227.907 21.2883ZM213.735 19.4441C213.967 17.0408 215.34 15.5817 218.098 15.5817C219.191 15.5031 220.271 15.8608 221.1 16.5765C221.93 17.2922 222.442 18.3075 222.525 19.4C222.525 19.414 222.527 19.4279 222.527 19.4441H213.735Z" fill="#DF1306"/>
</svg>
