<svg width="35" height="35" fill="none" xmlns="http://www.w3.org/2000/svg"><g clip-path="url(#a)"><path d="M17.437.253c9.373 0 16.97 7.597 16.97 16.97 0 9.373-7.597 16.97-16.97 16.97-9.372 0-16.97-7.597-16.97-16.97C.467 7.85 8.065.253 17.437.253Zm5.854 23.887c.313-.957 1.775-10.502 1.956-12.383.054-.57-.126-.948-.479-1.117-.426-.205-1.058-.102-1.79.162-1.005.362-13.852 5.817-14.595 6.133-.704.298-1.37.625-1.37 1.097 0 .332.198.518.74.712.566.202 1.99.634 2.83.865.81.224 1.73.03 2.247-.291.548-.34 6.866-4.568 7.32-4.939.453-.37.814.104.444.476-.37.37-4.708 4.58-5.28 5.162-.694.708-.2 1.441.265 1.735.532.335 4.357 2.901 4.934 3.313.576.412 1.16.598 1.695.598.535 0 .817-.704 1.083-1.523Z" fill="#CEE2D8"/></g><defs><clipPath id="a"><path fill="#fff" transform="translate(.467 .253)" d="M0 0h34.161v34.161H0z"/></clipPath></defs></svg>