<svg width="937" height="401" fill="none" xmlns="http://www.w3.org/2000/svg"><path d="M1.346 79.5v310.577c0 5.31 4.305 9.615 9.616 9.615h284.615c5.31 0 9.615-4.305 9.615-9.615V79.5" stroke="url(#a)" stroke-width=".769" stroke-linecap="round" stroke-linejoin="round" stroke-dasharray="3.85 3.85"/><path opacity=".43" d="M305.192 33.346V10.27c0-5.31 4.305-9.615 9.616-9.615h285.577c5.31 0 9.615 4.305 9.615 9.615v23.077m0 46.153v310.577c0 5.31 4.305 9.615 9.615 9.615h306.731c5.311 0 9.616-4.305 9.616-9.615V79.5" stroke="#29E08C" stroke-width=".769" stroke-linecap="round" stroke-linejoin="round" stroke-dasharray="3.85 3.85"/><path d="M1.346 10.269v24.038" stroke="#29E08C" stroke-width=".769" stroke-linecap="round" stroke-linejoin="round" stroke-dasharray="3.85 3.85"/><defs><linearGradient id="a" x1="305.192" y1="239.596" x2="1.346" y2="239.596" gradientUnits="userSpaceOnUse"><stop stop-color="#167A4C"/><stop offset="1" stop-color="#29E08C"/></linearGradient></defs></svg>