<svg width="41" height="41" fill="none" xmlns="http://www.w3.org/2000/svg"><g clip-path="url(#a)"><path d="M20.537.987c10.975 0 19.871 8.896 19.871 19.871 0 10.975-8.896 19.871-19.87 19.871C9.562 40.73.666 31.833.666 20.86.667 9.882 9.563.986 20.537.986Zm6.855 27.97c.365-1.12 2.078-12.297 2.29-14.499.063-.667-.147-1.11-.56-1.308-.5-.24-1.24-.12-2.097.19-1.177.423-16.22 6.81-17.09 7.18-.823.35-1.603.732-1.603 1.285 0 .389.231.607.867.835.662.235 2.328.74 3.312 1.012.948.262 2.027.035 2.632-.341.64-.398 8.039-5.349 8.57-5.782.53-.434.954.121.52.556-.433.434-5.512 5.363-6.181 6.045-.813.829-.236 1.687.31 2.031.622.392 5.102 3.397 5.776 3.88.675.481 1.36.7 1.986.7.626 0 .956-.825 1.268-1.783Z" fill="#fff"/></g><defs><clipPath id="a"><path fill="#fff" transform="translate(.667 .987)" d="M0 0h40v40H0z"/></clipPath></defs></svg>