<svg width="41" height="41" fill="none" xmlns="http://www.w3.org/2000/svg"><g clip-path="url(#a)"><path fill-rule="evenodd" clip-rule="evenodd" d="M20.333.987c11.046 0 20 9.18 20 20.506 0 9.058-5.724 16.742-13.666 19.456-1.014.202-1.374-.438-1.374-.984 0-.676.024-2.884.024-5.628 0-1.912-.64-3.16-1.358-3.796 4.454-.508 9.134-2.242 9.134-10.118 0-2.24-.776-4.068-2.06-5.504.208-.518.894-2.604-.196-5.428 0 0-1.676-.55-5.494 2.103a18.79 18.79 0 0 0-5.01-.69c-1.7.007-3.41.236-5.006.69C11.505 8.942 9.825 9.49 9.825 9.49c-1.086 2.824-.4 4.91-.194 5.428-1.278 1.436-2.06 3.264-2.06 5.504 0 7.856 4.67 9.617 9.112 10.135-.572.512-1.09 1.415-1.27 2.74-1.14.525-4.036 1.432-5.82-1.702 0 0-1.058-1.97-3.066-2.115 0 0-1.95-.026-.136 1.246 0 0 1.31.63 2.22 3 0 0 1.174 3.66 6.738 2.42.01 1.715.028 3.33.028 3.818 0 .542-.368 1.176-1.366.986C6.063 38.241.333 30.553.333 21.493c0-11.326 8.956-20.506 20-20.506Z" fill="#fff"/></g><defs><clipPath id="a"><path fill="#fff" transform="translate(.333 .987)" d="M0 0h40v40H0z"/></clipPath></defs></svg>