<svg width="67" height="68" fill="none" xmlns="http://www.w3.org/2000/svg"><g clip-path="url(#a)"><path d="M51 1.333H16.334c-8.837 0-16 7.164-16 16v33.334c0 8.836 7.163 16 16 16H51c8.837 0 16-7.164 16-16V17.333c0-8.836-7.163-16-16-16Zm2.265 47.684v1.4c.797-.07 1.517.53 1.511 1.33v1.58H40.488v-1.58c-.005-.8.716-1.401 1.512-1.33v-1.4c0-.61.424-1.116.995-1.272l-.027-12.123c-.441-4.824-4.556-8.606-9.565-8.606-5.01 0-9.124 3.782-9.565 8.606l-.027 12.105c.632.117 1.477.578 1.499 1.29v1.4c.795-.07 1.515.53 1.51 1.331v1.58H12.532v-1.58c-.005-.801.715-1.402 1.51-1.33v-1.4c0-.703.56-1.264 1.26-1.313v-21.93H13.94l-1.69-5.641 7.334-.002v-5.46h27.638v5.46h7.838l-1.692 5.643h-1.36v21.93c.699.05 1.257.61 1.257 1.312Z" fill="url(#b)"/></g><defs><linearGradient id="b" x1="7.952" y1="81.143" x2="139.381" y2="-108.857" gradientUnits="userSpaceOnUse"><stop stop-color="#15FF17"/><stop offset=".45" stop-color="#3478F5"/><stop offset="1"/></linearGradient><clipPath id="a"><path fill="#fff" transform="translate(.333 .667)" d="M0 0h66.667v66.667H0z"/></clipPath></defs></svg>