<svg width="136" height="35" fill="none" xmlns="http://www.w3.org/2000/svg"><g clip-path="url(#a)" fill="#CEE2D8"><path fill-rule="evenodd" clip-rule="evenodd" d="m44.16 27.15 1.685-3.914c1.82 1.36 4.245 2.068 6.637 2.068 1.766 0 2.883-.68 2.883-1.712-.027-2.884-10.578-.626-10.66-7.857-.026-3.672 3.235-6.502 7.858-6.502 2.748 0 5.492.68 7.452 2.23l-1.577 3.997c-1.793-1.145-4.023-1.96-6.145-1.96-1.442 0-2.392.68-2.392 1.55.026 2.829 10.66 1.279 10.767 8.186 0 3.753-3.18 6.393-7.749 6.393-3.348-.005-6.42-.793-8.759-2.478Zm64.699-5.33a4.89 4.89 0 0 1-4.245 2.474 4.86 4.86 0 0 1-4.865-4.865 4.863 4.863 0 0 1 4.865-4.866 4.897 4.897 0 0 1 4.245 2.473l4.649-2.58c-1.738-3.1-5.086-5.223-8.894-5.223-5.632 0-10.2 4.569-10.2 10.201 0 5.632 4.568 10.2 10.2 10.2 3.835 0 7.156-2.094 8.894-5.221l-4.649-2.592ZM63.007.772h5.82v28.475h-5.82V.771Zm52.786 0v28.475h5.821v-8.543l6.907 8.543h7.452L127.187 19.1l8.133-9.466h-7.129l-6.582 7.857V.77h-5.816Z"/><path d="M86.124 21.875c-.842 1.388-2.58 2.42-4.541 2.42a4.86 4.86 0 0 1-4.866-4.866 4.863 4.863 0 0 1 4.866-4.866c1.96 0 3.699 1.086 4.541 2.5v4.812Zm0-12.237v2.312c-.95-1.604-3.315-2.722-5.794-2.722-5.114 0-9.137 4.514-9.137 10.174 0 5.659 4.023 10.227 9.137 10.227 2.473 0 4.839-1.112 5.794-2.721v2.311h5.822V9.64h-5.822Z"/><path fill-rule="evenodd" clip-rule="evenodd" d="M8.179 21.848a3.586 3.586 0 0 1-3.591 3.59 3.59 3.59 0 0 1-3.591-3.59 3.59 3.59 0 0 1 3.59-3.591H8.18v3.59Zm1.793 0a3.586 3.586 0 0 1 3.59-3.591 3.586 3.586 0 0 1 3.592 3.59v8.976a3.586 3.586 0 0 1-3.591 3.59 3.586 3.586 0 0 1-3.591-3.59v-8.975Zm3.591-14.413a3.586 3.586 0 0 1-3.591-3.591 3.586 3.586 0 0 1 3.59-3.591 3.586 3.586 0 0 1 3.592 3.59v3.592h-3.591Zm0 1.82a3.586 3.586 0 0 1 3.59 3.59 3.586 3.586 0 0 1-3.59 3.592H4.56a3.59 3.59 0 0 1-3.59-3.591 3.59 3.59 0 0 1 3.59-3.591h9.003Zm14.386 3.591a3.586 3.586 0 0 1 3.59-3.591 3.586 3.586 0 0 1 3.592 3.59 3.586 3.586 0 0 1-3.591 3.592h-3.591v-3.591Zm-1.793 0a3.586 3.586 0 0 1-3.591 3.591 3.586 3.586 0 0 1-3.591-3.591V3.844a3.586 3.586 0 0 1 3.59-3.591 3.586 3.586 0 0 1 3.592 3.59v9.003Zm-3.591 14.386a3.586 3.586 0 0 1 3.59 3.59 3.586 3.586 0 0 1-3.59 3.592 3.586 3.586 0 0 1-3.591-3.591v-3.591h3.59Zm0-1.793a3.586 3.586 0 0 1-3.591-3.591 3.586 3.586 0 0 1 3.59-3.591h9.003a3.586 3.586 0 0 1 3.59 3.59 3.586 3.586 0 0 1-3.59 3.592h-9.002Z"/></g><defs><clipPath id="a"><path fill="#fff" transform="translate(.97 .253)" d="M0 0h135.003v34.161H0z"/></clipPath></defs></svg>