<svg width="103" height="41" fill="none" xmlns="http://www.w3.org/2000/svg"><g clip-path="url(#a)"><mask id="b" style="mask-type:luminance" maskUnits="userSpaceOnUse" x="0" y="0" width="103" height="41"><path d="M102.52.667H.333v40.122H102.52V.667Z" fill="#fff"/></mask><g mask="url(#b)" fill="#fff"><path d="M37.15 12.79v13.754h7.68v1.965H34.827V12.79h2.322Zm13.216 8.952 1.295-.067c.983-.028 1.702-.103 2.156-.224.454-.119.672-.387.659-.804-.031-1.251-.998-1.876-2.903-1.876-.952 0-1.645.161-2.077.48-.43.32-.691.786-.781 1.396h-2.098c.194-1.265.738-2.207 1.63-2.824.893-.617 2.031-.928 3.416-.928 1.504 0 2.705.368 3.606 1.106.9.737 1.35 2.065 1.35 3.985v6.52h-2.143V27.41c0-.415.082-.862.245-1.339.015-.044.029-.103.044-.178a.504.504 0 0 0 .011-.178.109.109 0 0 0-.078-.09l-.067-.023c-.075 0-.123.036-.146.11a.41.41 0 0 1-.055.135 4.303 4.303 0 0 1-1.608 2.065c-.745.514-1.622.77-2.634.77a4.501 4.501 0 0 1-1.975-.434 3.546 3.546 0 0 1-1.43-1.205 2.997 2.997 0 0 1-.524-1.73c0-2.188 1.37-3.38 4.107-3.573v.001Zm3.048 1.251c-.454.12-1.126.238-2.02.357a21.41 21.41 0 0 0-.894.111c-.714.103-1.243.293-1.584.569-.343.276-.513.667-.513 1.172 0 .447.166.818.502 1.117.335.3.829.447 1.484.447.7 0 1.359-.154 1.975-.458.617-.305 1.125-.79 1.518-1.452.394-.663.592-1.5.592-2.512-.253.312-.608.529-1.062.648l.002.001Zm14.959-4.912c.738.79 1.106 2.002 1.106 3.64v6.788h-2.144v-6.341c0-1.251-.234-2.129-.703-2.634-.47-.506-1.113-.76-1.931-.76-.566 0-1.113.183-1.642.547-.529.364-.96.881-1.295 1.552-.336.67-.502 1.437-.502 2.299v5.335h-2.144V17.076h2.144v.758c0 .537-.083 1.042-.245 1.518-.045.149-.071.26-.079.335-.008.075.025.119.1.134h.044c.074 0 .141-.067.2-.201.164-.403.432-.814.806-1.24a4.673 4.673 0 0 1 1.373-1.061 3.77 3.77 0 0 1 1.774-.424c1.355 0 2.4.395 3.136 1.184l.002.002Zm3.527 1.608c.423-.878 1.02-1.564 1.785-2.054.767-.49 1.642-.738 2.623-.738.878 0 1.644.217 2.3.648.654.431 1.168 1.027 1.54 1.785.059.194.141.276.245.246.074-.016.11-.06.11-.134 0-.06-.014-.13-.043-.213a1.782 1.782 0 0 0-.067-.167 2.918 2.918 0 0 1-.157-.557 4.085 4.085 0 0 1-.044-.67v-.76h2.143V27.48c0 1.801-.494 3.167-1.484 4.096-.99.93-2.319 1.395-3.985 1.395-1.667 0-2.859-.354-3.751-1.061-.893-.707-1.393-1.604-1.497-2.69h2.144c.09.596.349 1.086.782 1.473.43.387 1.197.58 2.299.58 1.101 0 1.916-.32 2.488-.96.573-.64.86-1.584.86-2.835 0-.461.068-.856.202-1.184.074-.193.11-.304.11-.335 0-.075-.036-.119-.11-.134h-.044c-.09 0-.157.067-.202.201-.371.79-.885 1.399-1.54 1.832-.655.43-1.421.647-2.299.647-.983 0-1.856-.245-2.623-.737-.766-.49-1.362-1.177-1.785-2.054-.423-.877-.636-1.883-.636-3.014 0-1.13.213-2.136.636-3.013v.002Zm7.345 5.76c.632-.73.948-1.643.948-2.745 0-1.101-.316-2.017-.948-2.745-.632-.73-1.448-1.094-2.444-1.094-1.071 0-1.907.356-2.5 1.07-.596.715-.893 1.639-.893 2.77 0 1.13.297 2.053.892 2.768.596.714 1.43 1.07 2.5 1.07.997 0 1.813-.364 2.445-1.093Zm16.935 3.058-1.273-3.751h-7.278l-1.272 3.751h-2.59l5.715-15.717h3.572l5.715 15.717h-2.59Zm-1.92-5.715-2.59-7.68a6.908 6.908 0 0 1-.225-.937.907.907 0 0 0-.011-.1.22.22 0 0 0-.056-.122.156.156 0 0 0-.111-.044c-.06 0-.1.023-.123.067a.483.483 0 0 0-.055.201 6.53 6.53 0 0 1-.224.937l-2.59 7.68h5.983l.002-.002Zm5.938 5.715V12.79h2.322v15.717h-2.322Zm-70.817-9.625a5.945 5.945 0 0 1-.247 6.504s-5.682 8.003-9.606 13.518c-1.787 2.512-5.52 2.51-7.305 0 1.485-1.688 2.278-4.945 2.586-6.51.089-.442.133-.894.173-1.345l.015-.155c0-.019.002-.036.004-.053.312-2.476 2.471-6.539 2.471-6.539 3.485 1.203 4.167-.659 4.192-.535.025.123 1.102 1.824 1.102 1.824 2.262-5.253-1.613-7.736-1.613-7.736-2.016-5.421-6.163-4.76-8.987-3.506-1.66.734-2.993 2.048-3.832 3.66-1.514 2.908-3.209 4.958-4.464 6.236l-.029.028-.01.01c-.472.479-.88.848-1.189 1.11a5.946 5.946 0 0 1-.259-6.52l9.658-16.038c1.742-2.89 5.933-2.89 7.677 0 3.99 6.623 9.663 16.047 9.663 16.047Z"/><path d="M9.324 23.777.334 35.222s6.344-2.66 9.676-6.088c1.548-1.594 1.216-4.21-.686-5.355v-.002Zm5.159-4.818c1.372.299 2.192-1.111 1.276-2.163 1.066-.362 2.278.092 2.663 1.192 1.002 2.852-3.452 3.952-3.94.97h.001Z"/></g></g><defs><clipPath id="a"><path fill="#fff" transform="translate(.333 .667)" d="M0 0h102.667v40.123H0z"/></clipPath></defs></svg>