<svg width="169" height="131" viewBox="0 0 169 131" fill="none" xmlns="http://www.w3.org/2000/svg">
<path d="M42.0942 77.9945H28.6117V73.5613H42.0942V77.9945ZM73.674 88.9633C69.8045 88.9633 66.7424 87.6379 64.4877 84.9871C62.2939 82.3363 61.1971 78.6648 61.1971 73.9726C61.1971 68.8539 62.4615 64.5425 64.9904 61.0386C67.4889 57.5347 70.9928 55.7827 75.5022 55.7827C78.153 55.7827 80.4991 56.453 82.5405 57.7937V62.364C80.56 61.0234 78.3967 60.3531 76.0506 60.3531C72.9733 60.3531 70.6119 61.4195 68.9666 63.5523C67.3518 65.7156 66.4834 68.3054 66.3615 71.3218C68.2201 68.9148 70.9776 67.7113 74.6338 67.7113C77.5284 67.7113 79.9659 68.6558 81.9463 70.5449C83.9268 72.4339 84.917 74.8867 84.917 77.9031C84.917 81.1633 83.8354 83.8293 81.6721 85.9012C79.5393 87.9426 76.8733 88.9633 73.674 88.9633ZM73.3541 84.5301C75.2737 84.5301 76.8428 83.9207 78.0616 82.7019C79.3108 81.4527 79.9354 79.8836 79.9354 77.9945C79.9354 76.1359 79.2955 74.6429 78.0159 73.5156C76.7666 72.3578 75.1975 71.7789 73.3084 71.7789C71.7545 71.7789 70.2768 72.2664 68.8752 73.2414C67.5346 74.2164 66.651 75.4199 66.2244 76.8519C66.4072 79.259 67.1233 81.148 68.3725 82.5191C69.6217 83.8598 71.2822 84.5301 73.3541 84.5301ZM110.714 88.3691H106.875L125.796 56.3769H129.589L110.714 88.3691ZM108.977 55.7827C111.262 55.7827 113.151 56.5292 114.644 58.0222C116.137 59.5152 116.884 61.3585 116.884 63.5523C116.884 65.746 116.137 67.5894 114.644 69.0824C113.151 70.5449 111.262 71.2761 108.977 71.2761C106.753 71.2761 104.879 70.5449 103.355 69.0824C101.893 67.5589 101.162 65.7156 101.162 63.5523C101.162 61.389 101.893 59.5456 103.355 58.0222C104.848 56.5292 106.722 55.7827 108.977 55.7827ZM108.977 67.9398C110.226 67.9398 111.247 67.5285 112.039 66.7058C112.862 65.8527 113.273 64.8015 113.273 63.5523C113.273 62.2726 112.877 61.2214 112.085 60.3988C111.293 59.5761 110.257 59.1648 108.977 59.1648C107.758 59.1648 106.753 59.5913 105.961 60.4445C105.168 61.2671 104.772 62.3031 104.772 63.5523C104.772 64.8015 105.168 65.8527 105.961 66.7058C106.753 67.5285 107.758 67.9398 108.977 67.9398ZM127.395 73.4699C129.681 73.4699 131.57 74.2164 133.063 75.7093C134.556 77.2023 135.302 79.0304 135.302 81.1937C135.302 83.3875 134.556 85.2309 133.063 86.7238C131.57 88.2168 129.681 88.9633 127.395 88.9633C125.141 88.9633 123.267 88.2168 121.774 86.7238C120.311 85.2309 119.58 83.3875 119.58 81.1937C119.58 79.0304 120.311 77.2023 121.774 75.7093C123.267 74.2164 125.141 73.4699 127.395 73.4699ZM127.395 85.5812C128.675 85.5812 129.711 85.1699 130.503 84.3473C131.295 83.5246 131.691 82.4734 131.691 81.1937C131.691 79.9445 131.28 78.9086 130.457 78.0859C129.665 77.2328 128.645 76.8062 127.395 76.8062C126.177 76.8062 125.171 77.2328 124.379 78.0859C123.587 78.9086 123.191 79.9445 123.191 81.1937C123.191 82.443 123.587 83.4941 124.379 84.3473C125.171 85.1699 126.177 85.5812 127.395 85.5812Z" fill="white"/>
<path opacity="0.1" d="M132.405 6.78037L50.7197 31.103C47.0776 32.1874 44.0154 34.6743 42.2069 38.0165C41.9085 38.5679 41.6483 39.135 41.4267 39.7142C40.9244 39.3506 40.3963 39.0182 39.8449 38.7198C36.5027 36.9113 32.579 36.5045 28.9368 37.589L12.5997 42.4535C10.4019 43.1079 8.55402 44.6086 7.46267 46.6255C6.37131 48.6424 6.12584 51.0101 6.78027 53.208L26.2384 118.557C26.8928 120.754 28.3935 122.602 30.4103 123.694C32.4272 124.785 34.795 125.03 36.9928 124.376L53.3299 119.511C56.9721 118.427 60.0342 115.94 61.8428 112.598C62.1411 112.047 62.4013 111.479 62.6229 110.9C63.1253 111.264 63.6533 111.596 64.2047 111.895C67.5469 113.703 71.4707 114.11 75.1128 113.025L156.798 88.7028C158.996 88.0484 160.844 86.5477 161.935 84.5308C163.027 82.514 163.272 80.1462 162.618 77.9483L143.16 12.5998C142.505 10.402 141.005 8.55412 138.988 7.46277C136.971 6.37141 134.603 6.12595 132.405 6.78037ZM57.6648 94.2488C57.1497 94.4022 56.6007 94.3994 56.0872 94.2407C55.5737 94.0821 55.1187 93.7747 54.7799 93.3575C54.4411 92.9403 54.2336 92.432 54.1836 91.8968C54.1337 91.3617 54.2435 90.8238 54.4993 90.3511C54.7551 89.8784 55.1453 89.4921 55.6206 89.2412C56.0959 88.9903 56.6349 88.8859 57.1695 88.9413C57.7041 88.9968 58.2103 89.2095 58.624 89.5526C59.0377 89.8957 59.3404 90.3537 59.4938 90.8688C59.6995 91.5596 59.6223 92.3037 59.2793 92.9376C58.9363 93.5715 58.3556 94.0431 57.6648 94.2488ZM52.8003 77.9117C52.2852 78.0651 51.7362 78.0622 51.2227 77.9036C50.7091 77.7449 50.2542 77.4376 49.9154 77.0204C49.5765 76.6032 49.369 76.0948 49.3191 75.5597C49.2692 75.0246 49.379 74.4866 49.6348 74.0139C49.8906 73.5412 50.2808 73.155 50.7561 72.9041C51.2314 72.6531 51.7704 72.5488 52.305 72.6042C52.8396 72.6596 53.3458 72.8723 53.7595 73.2154C54.1732 73.5585 54.4759 74.0166 54.6293 74.5317C54.835 75.2224 54.7578 75.9666 54.4148 76.6005C54.0718 77.2343 53.4911 77.706 52.8003 77.9117ZM47.9358 61.5745C47.4207 61.7279 46.8716 61.7251 46.3581 61.5665C45.8446 61.4078 45.3897 61.1004 45.0508 60.6832C44.712 60.266 44.5045 59.7577 44.4546 59.2226C44.4046 58.6874 44.5145 58.1495 44.7703 57.6768C45.0261 57.2041 45.4163 56.8179 45.8916 56.5669C46.3669 56.316 46.9059 56.2117 47.4405 56.2671C47.9751 56.3225 48.4813 56.5352 48.895 56.8783C49.3087 57.2214 49.6114 57.6794 49.7648 58.1946C49.9704 58.8853 49.8933 59.6295 49.5503 60.2633C49.2073 60.8972 48.6265 61.3689 47.9358 61.5745Z" fill="#FFC300" stroke="white" stroke-width="5.92904"/>
<path d="M141.479 48.9417H56.2489C53.235 48.9417 50.3445 50.1389 48.2134 52.2701C46.0822 54.4012 44.8849 57.2917 44.8849 60.3056C44.8849 57.2917 43.6877 54.4012 41.5565 52.2701C39.4253 50.1389 36.5349 48.9417 33.5209 48.9417H16.475C14.968 48.9417 13.5228 49.5403 12.4572 50.6059C11.3916 51.6714 10.793 53.1167 10.793 54.6236L10.793 122.808C10.793 124.315 11.3916 125.76 12.4572 126.825C13.5228 127.891 14.968 128.49 16.475 128.49H33.5209C36.5349 128.49 39.4253 127.292 41.5565 125.161C43.6877 123.03 44.8849 120.139 44.8849 117.126C44.8849 120.139 46.0822 123.03 48.2134 125.161C50.3445 127.292 53.235 128.49 56.2489 128.49H141.479C142.986 128.49 144.431 127.891 145.497 126.825C146.562 125.76 147.161 124.315 147.161 122.808V54.6236C147.161 53.1167 146.562 51.6714 145.497 50.6059C144.431 49.5403 142.986 48.9417 141.479 48.9417ZM44.8849 111.444C43.7611 111.444 42.6626 111.11 41.7282 110.486C40.7938 109.862 40.0655 108.974 39.6355 107.936C39.2054 106.898 39.0929 105.755 39.3121 104.653C39.5314 103.551 40.0725 102.538 40.8672 101.744C41.6618 100.949 42.6742 100.408 43.7764 100.189C44.8786 99.9695 46.0211 100.082 47.0593 100.512C48.0976 100.942 48.985 101.67 49.6093 102.605C50.2337 103.539 50.5669 104.638 50.5669 105.762C50.5669 107.269 49.9683 108.714 48.9027 109.779C47.8371 110.845 46.3919 111.444 44.8849 111.444ZM44.8849 94.3976C43.7611 94.3976 42.6626 94.0644 41.7282 93.44C40.7938 92.8157 40.0655 91.9283 39.6355 90.89C39.2054 89.8518 39.0929 88.7093 39.3121 87.6071C39.5314 86.5049 40.0725 85.4925 40.8672 84.6978C41.6618 83.9032 42.6742 83.362 43.7764 83.1428C44.8786 82.9236 46.0211 83.0361 47.0593 83.4661C48.0976 83.8962 48.985 84.6245 49.6093 85.5589C50.2337 86.4933 50.5669 87.5918 50.5669 88.7156C50.5669 90.2226 49.9683 91.6678 48.9027 92.7334C47.8371 93.799 46.3919 94.3976 44.8849 94.3976ZM44.8849 77.3516C43.7611 77.3516 42.6626 77.0184 41.7282 76.394C40.7938 75.7697 40.0655 74.8823 39.6355 73.844C39.2054 72.8058 39.0929 71.6633 39.3121 70.5611C39.5314 69.4589 40.0725 68.4465 40.8672 67.6519C41.6618 66.8572 42.6742 66.3161 43.7764 66.0968C44.8786 65.8776 46.0211 65.9901 47.0593 66.4201C48.0976 66.8502 48.985 67.5785 49.6093 68.5129C50.2337 69.4473 50.5669 70.5458 50.5669 71.6696C50.5669 73.1766 49.9683 74.6218 48.9027 75.6874C47.8371 76.753 46.3919 77.3516 44.8849 77.3516Z" fill="#FFC300"/>
<path d="M78.8842 98.2734H73.6139V83.0877L69.356 85.0529V79.9017L74.2392 77.4303H78.8842V98.2734ZM92.8601 97.1122C91.411 98.1643 89.7336 98.6903 87.8279 98.6903C85.9223 98.6903 84.2449 98.1643 82.7958 97.1122C81.3864 96.0799 80.3343 94.75 79.6396 93.1222C78.9647 91.5143 78.6272 89.7575 78.6272 87.8519C78.6272 83.7428 80.0167 80.656 82.7958 78.5916C84.2449 77.5395 85.9223 77.0135 87.8279 77.0135C89.7336 77.0135 91.411 77.5395 92.8601 78.5916C94.2695 79.6238 95.3215 80.9637 96.0163 82.6113C96.6912 84.1994 97.0287 85.9462 97.0287 87.8519C97.0287 91.961 95.6391 95.0477 92.8601 97.1122ZM87.8279 93.7773C89.0587 93.7773 90.0016 93.1917 90.6566 92.0205C91.3316 90.8692 91.669 89.4796 91.669 87.8519C91.669 86.2241 91.3316 84.8346 90.6566 83.6833C90.0016 82.5121 89.0587 81.9265 87.8279 81.9265C86.6369 81.9265 85.694 82.5121 84.9992 83.6833C84.3243 84.8346 83.9869 86.2241 83.9869 87.8519C83.9869 89.4796 84.3243 90.8692 84.9992 92.0205C85.694 93.1917 86.6369 93.7773 87.8279 93.7773ZM110.308 98.2734H106.764L119.359 77.4303H122.903L110.308 98.2734ZM104.591 78.7107C105.623 77.7182 106.913 77.2219 108.461 77.2219C110.01 77.2219 111.3 77.7182 112.332 78.7107C113.345 79.6834 113.851 80.9141 113.851 82.4029C113.851 83.8917 113.345 85.1224 112.332 86.0951C111.3 87.0876 110.01 87.5839 108.461 87.5839C106.913 87.5839 105.623 87.0876 104.591 86.0951C103.578 85.1224 103.072 83.8917 103.072 82.4029C103.072 80.9141 103.578 79.6834 104.591 78.7107ZM107.092 83.8619C107.449 84.2391 107.906 84.4277 108.461 84.4277C109.017 84.4277 109.474 84.2391 109.831 83.8619C110.188 83.4649 110.367 82.9786 110.367 82.4029C110.367 81.8272 110.188 81.3508 109.831 80.9736C109.474 80.5766 109.017 80.3781 108.461 80.3781C107.906 80.3781 107.449 80.5766 107.092 80.9736C106.734 81.3508 106.556 81.8272 106.556 82.4029C106.556 82.9786 106.734 83.4649 107.092 83.8619ZM117.305 89.6087C118.337 88.6161 119.627 88.1199 121.176 88.1199C122.724 88.1199 124.014 88.6161 125.047 89.6087C126.059 90.6012 126.565 91.8319 126.565 93.3009C126.565 94.7698 126.059 96.0005 125.047 96.9931C124.014 97.9856 122.724 98.4819 121.176 98.4819C119.627 98.4819 118.337 97.9856 117.305 96.9931C116.293 96.0204 115.786 94.7897 115.786 93.3009C115.786 91.8121 116.293 90.5813 117.305 89.6087ZM119.806 94.7599C120.163 95.137 120.62 95.3256 121.176 95.3256C121.732 95.3256 122.188 95.137 122.545 94.7599C122.903 94.3629 123.081 93.8765 123.081 93.3009C123.081 92.7252 122.903 92.2488 122.545 91.8716C122.188 91.4746 121.732 91.2761 121.176 91.2761C120.62 91.2761 120.163 91.4746 119.806 91.8716C119.449 92.2488 119.27 92.7252 119.27 93.3009C119.27 93.8765 119.449 94.3629 119.806 94.7599Z" fill="white"/>
</svg>
