<svg width="175" height="135" viewBox="0 0 175 135" fill="none" xmlns="http://www.w3.org/2000/svg">
<path opacity="0.1" d="M138.698 3.68914L50.9106 29.8285C46.9965 30.994 43.7056 33.6667 41.762 37.2585C41.4413 37.851 41.1617 38.4606 40.9235 39.0829C40.3836 38.6922 39.8161 38.335 39.2236 38.0143C35.6317 36.0707 31.4149 35.6335 27.5007 36.799L9.94328 42.0269C7.58128 42.7302 5.5954 44.343 4.42253 46.5105C3.24965 48.678 2.98585 51.2227 3.68916 53.5847L24.6007 123.814C25.304 126.176 26.9168 128.162 29.0843 129.335C31.2518 130.508 33.7964 130.772 36.1584 130.069L53.7159 124.841C57.6301 123.675 60.9209 121.003 62.8646 117.411C63.1852 116.818 63.4648 116.209 63.703 115.586C64.2429 115.977 64.8104 116.334 65.4029 116.655C68.9948 118.599 73.2116 119.036 77.1258 117.87L164.913 91.7308C167.275 91.0275 169.261 89.4147 170.434 87.2472C171.607 85.0797 171.87 82.535 171.167 80.173L150.256 9.94327C149.552 7.58126 147.939 5.59539 145.772 4.42252C143.604 3.24964 141.06 2.98583 138.698 3.68914ZM46.2233 62.5675L45.3552 65.3775L46.2233 62.5675C45.6714 62.397 45.1825 62.0667 44.8184 61.6183C44.4542 61.1699 44.2312 60.6236 44.1776 60.0485C44.1239 59.4734 44.242 58.8953 44.5169 58.3873C44.7918 57.8793 45.2111 57.4642 45.7219 57.1945C46.2327 56.9249 46.812 56.8127 47.3865 56.8723C47.9611 56.9318 48.505 57.1604 48.9496 57.5291L50.9834 55.0768L48.9496 57.5291C49.3943 57.8979 49.7196 58.3901 49.8844 58.9437C50.1054 59.6861 50.0225 60.4858 49.6539 61.167C49.2853 61.8483 48.6612 62.3551 47.9188 62.5762C47.3652 62.741 46.7752 62.738 46.2233 62.5675ZM58.3746 97.6911C57.821 97.8559 57.2309 97.8529 56.6791 97.6824C56.1272 97.5119 55.6383 97.1816 55.2741 96.7332C54.91 96.2848 54.687 95.7385 54.6333 95.1634C54.5796 94.5883 54.6977 94.0102 54.9726 93.5022C55.2475 92.9942 55.6669 92.5791 56.1777 92.3094C56.6885 92.0397 57.2677 91.9276 57.8423 91.9872C58.4168 92.0467 58.9608 92.2753 59.4054 92.644C59.85 93.0128 60.1753 93.505 60.3401 94.0586C60.5612 94.801 60.4783 95.6007 60.1097 96.2819C59.741 96.9631 59.1169 97.47 58.3746 97.6911ZM51.4512 80.1249L50.562 83.003L51.4512 80.1249C50.8993 79.9544 50.4104 79.6241 50.0463 79.1757C49.6821 78.7274 49.4591 78.1811 49.4054 77.606C49.3518 77.0309 49.4698 76.4527 49.7447 75.9447L46.9427 74.4285L49.7447 75.9447C50.0196 75.4367 50.439 75.0216 50.9498 74.752C51.4606 74.4823 52.0399 74.3702 52.6144 74.4297C53.1889 74.4893 53.7329 74.7179 54.1775 75.0866L56.2113 72.6342L54.1775 75.0866C54.6221 75.4553 54.9474 75.9476 55.1123 76.5012C55.3333 77.2435 55.2504 78.0433 54.8818 78.7245L57.6838 80.2407L54.8818 78.7245C54.5132 79.4057 53.889 79.9126 53.1467 80.1336C52.5931 80.2985 52.0031 80.2954 51.4512 80.1249Z" fill="#00A6B6" stroke="white" stroke-width="6.37191"/>
<path d="M148.447 48.9998H56.8513C53.6123 48.9998 50.5059 50.2865 48.2155 52.5768C45.9252 54.8672 44.6385 57.9735 44.6385 61.2126C44.6385 57.9735 43.3518 54.8672 41.0614 52.5768C38.7711 50.2865 35.6647 48.9998 32.4256 48.9998H14.1064C12.4869 48.9998 10.9337 49.6431 9.78853 50.7883C8.64335 51.9335 8 53.4866 8 55.1062L8 128.383C8 130.003 8.64335 131.556 9.78853 132.701C10.9337 133.846 12.4869 134.49 14.1064 134.49H32.4256C35.6647 134.49 38.7711 133.203 41.0614 130.912C43.3518 128.622 44.6385 125.516 44.6385 122.277C44.6385 125.516 45.9252 128.622 48.2155 130.912C50.5059 133.203 53.6123 134.49 56.8513 134.49H148.447C150.067 134.49 151.62 133.846 152.765 132.701C153.911 131.556 154.554 130.003 154.554 128.383V55.1062C154.554 53.4866 153.911 51.9335 152.765 50.7883C151.62 49.6431 150.067 48.9998 148.447 48.9998ZM44.6385 116.17C43.4307 116.17 42.2501 115.812 41.2459 115.141C40.2417 114.47 39.4591 113.517 38.9969 112.401C38.5347 111.285 38.4138 110.057 38.6494 108.873C38.885 107.688 39.4666 106.6 40.3206 105.746C41.1746 104.892 42.2626 104.31 43.4472 104.075C44.6317 103.839 45.8595 103.96 46.9753 104.422C48.0911 104.884 49.0448 105.667 49.7158 106.671C50.3867 107.676 50.7449 108.856 50.7449 110.064C50.7449 111.683 50.1015 113.237 48.9564 114.382C47.8112 115.527 46.258 116.17 44.6385 116.17ZM44.6385 97.8511C43.4307 97.8511 42.2501 97.4929 41.2459 96.8219C40.2417 96.151 39.4591 95.1973 38.9969 94.0815C38.5347 92.9657 38.4138 91.7379 38.6494 90.5533C38.885 89.3688 39.4666 88.2808 40.3206 87.4268C41.1746 86.5728 42.2626 85.9912 43.4472 85.7556C44.6317 85.5199 45.8595 85.6409 46.9753 86.1031C48.0911 86.5652 49.0448 87.3479 49.7158 88.3521C50.3867 89.3563 50.7449 90.5369 50.7449 91.7446C50.7449 93.3642 50.1015 94.9174 48.9564 96.0625C47.8112 97.2077 46.258 97.8511 44.6385 97.8511ZM44.6385 79.5318C43.4307 79.5318 42.2501 79.1737 41.2459 78.5027C40.2417 77.8317 39.4591 76.878 38.9969 75.7622C38.5347 74.6464 38.4138 73.4186 38.6494 72.2341C38.885 71.0496 39.4666 69.9615 40.3206 69.1075C41.1746 68.2535 42.2626 67.6719 43.4472 67.4363C44.6317 67.2007 45.8595 67.3216 46.9753 67.7838C48.0911 68.246 49.0448 69.0287 49.7158 70.0329C50.3867 71.0371 50.7449 72.2177 50.7449 73.4254C50.7449 75.0449 50.1015 76.5981 48.9564 77.7433C47.8112 78.8885 46.258 79.5318 44.6385 79.5318Z" fill="#00A6B6"/>
<path d="M88.6562 102.448C85.7548 102.448 83.5042 101.509 81.9042 99.6318C80.3042 97.7544 79.5042 95.1944 79.5042 91.9518C79.5042 88.5598 80.3255 85.6371 81.9682 83.1838C82.8215 81.9251 83.9415 80.9438 85.3282 80.2398C86.7148 79.5144 88.2828 79.1518 90.0322 79.1518C91.9948 79.1518 93.7335 79.6318 95.2482 80.5918V85.6798C93.8828 84.6984 92.3682 84.2078 90.7042 84.2078C89.2535 84.2078 88.0375 84.6344 87.0562 85.4878C86.0962 86.3411 85.5522 87.4504 85.4242 88.8158C86.6188 87.6424 88.1228 87.0558 89.9362 87.0558C91.9628 87.0558 93.6588 87.7171 95.0242 89.0398C96.3682 90.3411 97.0402 92.1331 97.0402 94.4158C97.0402 96.7838 96.2402 98.7251 94.6402 100.24C93.0615 101.712 91.0668 102.448 88.6562 102.448ZM88.3042 97.6478C89.2002 97.6478 89.9255 97.3704 90.4802 96.8158C91.0348 96.2398 91.3122 95.4931 91.3122 94.5758C91.3122 93.6798 91.0348 92.9331 90.4802 92.3358C89.9255 91.7384 89.2108 91.4398 88.3362 91.4398C86.9495 91.4398 85.8935 92.0904 85.1682 93.3918C85.1682 94.7358 85.4455 95.7811 86.0002 96.5278C86.5762 97.2744 87.3442 97.6478 88.3042 97.6478ZM107.076 102H103.268L116.804 79.5998H120.612L107.076 102ZM100.932 80.9758C102.041 79.9091 103.428 79.3758 105.092 79.3758C106.756 79.3758 108.143 79.9091 109.252 80.9758C110.34 82.0211 110.884 83.3438 110.884 84.9438C110.884 86.5438 110.34 87.8664 109.252 88.9118C108.143 89.9784 106.756 90.5118 105.092 90.5118C103.428 90.5118 102.041 89.9784 100.932 88.9118C99.8442 87.8664 99.3002 86.5438 99.3002 84.9438C99.3002 83.3438 99.8442 82.0211 100.932 80.9758ZM103.62 86.5118C104.004 86.9171 104.495 87.1198 105.092 87.1198C105.689 87.1198 106.18 86.9171 106.564 86.5118C106.948 86.0851 107.14 85.5624 107.14 84.9438C107.14 84.3251 106.948 83.8131 106.564 83.4078C106.18 82.9811 105.689 82.7678 105.092 82.7678C104.495 82.7678 104.004 82.9811 103.62 83.4078C103.236 83.8131 103.044 84.3251 103.044 84.9438C103.044 85.5624 103.236 86.0851 103.62 86.5118ZM114.596 92.6878C115.705 91.6211 117.092 91.0878 118.756 91.0878C120.42 91.0878 121.807 91.6211 122.916 92.6878C124.004 93.7544 124.548 95.0771 124.548 96.6558C124.548 98.2344 124.004 99.5571 122.916 100.624C121.807 101.69 120.42 102.224 118.756 102.224C117.092 102.224 115.705 101.69 114.596 100.624C113.508 99.5784 112.964 98.2558 112.964 96.6558C112.964 95.0558 113.508 93.7331 114.596 92.6878ZM117.284 98.2238C117.668 98.6291 118.159 98.8318 118.756 98.8318C119.353 98.8318 119.844 98.6291 120.228 98.2238C120.612 97.7971 120.804 97.2744 120.804 96.6558C120.804 96.0371 120.612 95.5251 120.228 95.1198C119.844 94.6931 119.353 94.4798 118.756 94.4798C118.159 94.4798 117.668 94.6931 117.284 95.1198C116.9 95.5251 116.708 96.0371 116.708 96.6558C116.708 97.2744 116.9 97.7971 117.284 98.2238Z" fill="white"/>
</svg>
