<svg width="175" height="135" viewBox="0 0 175 135" fill="none" xmlns="http://www.w3.org/2000/svg">
<path opacity="0.1" d="M138.698 3.68914L50.9106 29.8285C46.9965 30.994 43.7056 33.6667 41.762 37.2585C41.4413 37.851 41.1617 38.4606 40.9235 39.0829C40.3836 38.6922 39.8161 38.335 39.2236 38.0143C35.6317 36.0707 31.4149 35.6335 27.5007 36.799L9.94328 42.0269C7.58128 42.7302 5.5954 44.343 4.42253 46.5105C3.24965 48.678 2.98585 51.2227 3.68916 53.5847L24.6007 123.814C25.304 126.176 26.9168 128.162 29.0843 129.335C31.2518 130.508 33.7964 130.772 36.1584 130.069L53.7159 124.841C57.6301 123.675 60.9209 121.003 62.8646 117.411C63.1852 116.818 63.4648 116.209 63.703 115.586C64.2429 115.977 64.8104 116.334 65.4029 116.655C68.9948 118.599 73.2116 119.036 77.1258 117.87L164.913 91.7308C167.275 91.0275 169.261 89.4147 170.434 87.2472C171.607 85.0797 171.87 82.535 171.167 80.173L150.256 9.94327C149.552 7.58126 147.939 5.59539 145.772 4.42252C143.604 3.24964 141.06 2.98583 138.698 3.68914ZM46.2233 62.5675L45.3552 65.3775L46.2233 62.5675C45.6714 62.397 45.1825 62.0667 44.8184 61.6183C44.4542 61.1699 44.2312 60.6236 44.1776 60.0485C44.1239 59.4734 44.242 58.8953 44.5169 58.3873C44.7918 57.8793 45.2111 57.4642 45.7219 57.1945C46.2327 56.9249 46.812 56.8127 47.3865 56.8723C47.9611 56.9318 48.505 57.1604 48.9496 57.5291L50.9834 55.0768L48.9496 57.5291C49.3943 57.8979 49.7196 58.3901 49.8844 58.9437C50.1054 59.6861 50.0225 60.4858 49.6539 61.167C49.2853 61.8483 48.6612 62.3551 47.9188 62.5762C47.3652 62.741 46.7752 62.738 46.2233 62.5675ZM58.3746 97.6911C57.821 97.8559 57.2309 97.8529 56.6791 97.6824C56.1272 97.5119 55.6383 97.1816 55.2741 96.7332C54.91 96.2848 54.687 95.7385 54.6333 95.1634C54.5796 94.5883 54.6977 94.0102 54.9726 93.5022C55.2475 92.9942 55.6669 92.5791 56.1777 92.3094C56.6885 92.0397 57.2677 91.9276 57.8423 91.9872C58.4168 92.0467 58.9608 92.2753 59.4054 92.644C59.85 93.0128 60.1753 93.505 60.3401 94.0586C60.5612 94.801 60.4783 95.6007 60.1097 96.2819C59.741 96.9631 59.1169 97.47 58.3746 97.6911ZM51.4512 80.1249L50.562 83.003L51.4512 80.1249C50.8993 79.9544 50.4104 79.6241 50.0463 79.1757C49.6821 78.7274 49.4591 78.1811 49.4054 77.606C49.3518 77.0309 49.4698 76.4527 49.7447 75.9447L46.9427 74.4285L49.7447 75.9447C50.0196 75.4367 50.439 75.0216 50.9498 74.752C51.4606 74.4823 52.0399 74.3702 52.6144 74.4297C53.1889 74.4893 53.7329 74.7179 54.1775 75.0866L56.2113 72.6342L54.1775 75.0866C54.6221 75.4553 54.9474 75.9476 55.1123 76.5012C55.3333 77.2435 55.2504 78.0433 54.8818 78.7245L57.6838 80.2407L54.8818 78.7245C54.5132 79.4057 53.889 79.9126 53.1467 80.1336C52.5931 80.2985 52.0031 80.2954 51.4512 80.1249Z" fill="#F64056" stroke="white" stroke-width="6.37191"/>
<path d="M148.447 49H56.8513C53.6123 49 50.5059 50.2867 48.2155 52.5771C45.9252 54.8674 44.6385 57.9738 44.6385 61.2128C44.6385 57.9738 43.3518 54.8674 41.0614 52.5771C38.7711 50.2867 35.6647 49 32.4256 49H14.1064C12.4869 49 10.9337 49.6434 9.78853 50.7885C8.64335 51.9337 8 53.4869 8 55.1064L8 128.383C8 130.003 8.64335 131.556 9.78853 132.701C10.9337 133.846 12.4869 134.49 14.1064 134.49H32.4256C35.6647 134.49 38.7711 133.203 41.0614 130.913C43.3518 128.622 44.6385 125.516 44.6385 122.277C44.6385 125.516 45.9252 128.622 48.2155 130.913C50.5059 133.203 53.6123 134.49 56.8513 134.49H148.447C150.067 134.49 151.62 133.846 152.765 132.701C153.911 131.556 154.554 130.003 154.554 128.383V55.1064C154.554 53.4869 153.911 51.9337 152.765 50.7885C151.62 49.6434 150.067 49 148.447 49ZM44.6385 116.171C43.4307 116.171 42.2501 115.812 41.2459 115.141C40.2417 114.47 39.4591 113.517 38.9969 112.401C38.5347 111.285 38.4138 110.057 38.6494 108.873C38.885 107.688 39.4666 106.6 40.3206 105.746C41.1746 104.892 42.2626 104.311 43.4472 104.075C44.6317 103.839 45.8595 103.96 46.9753 104.423C48.0911 104.885 49.0448 105.667 49.7158 106.672C50.3867 107.676 50.7449 108.856 50.7449 110.064C50.7449 111.684 50.1015 113.237 48.9564 114.382C47.8112 115.527 46.258 116.171 44.6385 116.171ZM44.6385 97.8513C43.4307 97.8513 42.2501 97.4932 41.2459 96.8222C40.2417 96.1512 39.4591 95.1975 38.9969 94.0817C38.5347 92.9659 38.4138 91.7381 38.6494 90.5536C38.885 89.3691 39.4666 88.281 40.3206 87.427C41.1746 86.573 42.2626 85.9914 43.4472 85.7558C44.6317 85.5202 45.8595 85.6411 46.9753 86.1033C48.0911 86.5655 49.0448 87.3482 49.7158 88.3523C50.3867 89.3565 50.7449 90.5372 50.7449 91.7449C50.7449 93.3644 50.1015 94.9176 48.9564 96.0628C47.8112 97.2079 46.258 97.8513 44.6385 97.8513ZM44.6385 79.5321C43.4307 79.5321 42.2501 79.1739 41.2459 78.5029C40.2417 77.832 39.4591 76.8783 38.9969 75.7625C38.5347 74.6467 38.4138 73.4189 38.6494 72.2343C38.885 71.0498 39.4666 69.9618 40.3206 69.1078C41.1746 68.2538 42.2626 67.6722 43.4472 67.4366C44.6317 67.201 45.8595 67.3219 46.9753 67.7841C48.0911 68.2462 49.0448 69.0289 49.7158 70.0331C50.3867 71.0373 50.7449 72.2179 50.7449 73.4256C50.7449 75.0452 50.1015 76.5984 48.9564 77.7435C47.8112 78.8887 46.258 79.5321 44.6385 79.5321Z" fill="#F64056"/>
<path d="M92.843 90.096C93.995 90.5013 94.9444 91.216 95.691 92.24C96.459 93.2427 96.843 94.3413 96.843 95.536C96.843 97.712 95.9577 99.408 94.187 100.624C92.4164 101.84 90.2617 102.448 87.723 102.448C85.1417 102.448 82.9764 101.84 81.227 100.624C79.4777 99.408 78.603 97.712 78.603 95.536C78.603 94.3413 78.9764 93.2427 79.723 92.24C80.491 91.216 81.451 90.5013 82.603 90.096C81.707 89.712 80.971 89.0933 80.395 88.24C79.8404 87.3867 79.563 86.48 79.563 85.52C79.563 83.6213 80.331 82.0853 81.867 80.912C83.4244 79.7387 85.3764 79.152 87.723 79.152C90.091 79.152 92.0324 79.7387 93.547 80.912C95.1044 82.0853 95.883 83.6213 95.883 85.52C95.883 86.48 95.595 87.3867 95.019 88.24C94.4644 89.0933 93.739 89.712 92.843 90.096ZM89.643 84.528C89.131 84.1013 88.491 83.888 87.723 83.888C86.955 83.888 86.3044 84.1013 85.771 84.528C85.259 84.9547 85.003 85.488 85.003 86.128C85.003 86.768 85.259 87.3013 85.771 87.728C86.3044 88.1333 86.955 88.336 87.723 88.336C88.491 88.336 89.131 88.1333 89.643 87.728C90.1764 87.3013 90.443 86.768 90.443 86.128C90.443 85.488 90.1764 84.9547 89.643 84.528ZM90.987 95.056C90.987 94.3093 90.6777 93.6907 90.059 93.2C89.4404 92.688 88.6617 92.432 87.723 92.432C86.7844 92.432 86.0057 92.688 85.387 93.2C84.7684 93.6907 84.459 94.3093 84.459 95.056C84.459 95.7813 84.7684 96.4 85.387 96.912C86.0057 97.4027 86.7844 97.648 87.723 97.648C88.6617 97.648 89.4404 97.4027 90.059 96.912C90.6777 96.4 90.987 95.7813 90.987 95.056ZM106.529 102H102.721L116.257 79.6H120.065L106.529 102ZM100.385 80.976C101.495 79.9093 102.881 79.376 104.545 79.376C106.209 79.376 107.596 79.9093 108.705 80.976C109.793 82.0213 110.337 83.344 110.337 84.944C110.337 86.544 109.793 87.8667 108.705 88.912C107.596 89.9787 106.209 90.512 104.545 90.512C102.881 90.512 101.495 89.9787 100.385 88.912C99.2973 87.8667 98.7533 86.544 98.7533 84.944C98.7533 83.344 99.2973 82.0213 100.385 80.976ZM103.073 86.512C103.457 86.9173 103.948 87.12 104.545 87.12C105.143 87.12 105.633 86.9173 106.017 86.512C106.401 86.0853 106.593 85.5627 106.593 84.944C106.593 84.3253 106.401 83.8133 106.017 83.408C105.633 82.9813 105.143 82.768 104.545 82.768C103.948 82.768 103.457 82.9813 103.073 83.408C102.689 83.8133 102.497 84.3253 102.497 84.944C102.497 85.5627 102.689 86.0853 103.073 86.512ZM114.049 92.688C115.159 91.6213 116.545 91.088 118.209 91.088C119.873 91.088 121.26 91.6213 122.369 92.688C123.457 93.7547 124.001 95.0773 124.001 96.656C124.001 98.2347 123.457 99.5573 122.369 100.624C121.26 101.691 119.873 102.224 118.209 102.224C116.545 102.224 115.159 101.691 114.049 100.624C112.961 99.5787 112.417 98.256 112.417 96.656C112.417 95.056 112.961 93.7333 114.049 92.688ZM116.737 98.224C117.121 98.6293 117.612 98.832 118.209 98.832C118.807 98.832 119.297 98.6293 119.681 98.224C120.065 97.7973 120.257 97.2747 120.257 96.656C120.257 96.0373 120.065 95.5253 119.681 95.12C119.297 94.6933 118.807 94.48 118.209 94.48C117.612 94.48 117.121 94.6933 116.737 95.12C116.353 95.5253 116.161 96.0373 116.161 96.656C116.161 97.2747 116.353 97.7973 116.737 98.224Z" fill="white"/>
</svg>
