<svg width="169" height="131" viewBox="0 0 169 131" fill="none" xmlns="http://www.w3.org/2000/svg">
<path d="M42.0942 77.9945H28.6117V73.5613H42.0942V77.9945ZM73.674 88.9633C69.8045 88.9633 66.7424 87.6379 64.4877 84.9871C62.2939 82.3363 61.1971 78.6648 61.1971 73.9726C61.1971 68.8539 62.4615 64.5425 64.9904 61.0386C67.4889 57.5347 70.9928 55.7827 75.5022 55.7827C78.153 55.7827 80.4991 56.453 82.5405 57.7937V62.364C80.56 61.0234 78.3967 60.3531 76.0506 60.3531C72.9733 60.3531 70.6119 61.4195 68.9666 63.5523C67.3518 65.7156 66.4834 68.3054 66.3615 71.3218C68.2201 68.9148 70.9776 67.7113 74.6338 67.7113C77.5284 67.7113 79.9659 68.6558 81.9463 70.5449C83.9268 72.4339 84.917 74.8867 84.917 77.9031C84.917 81.1633 83.8354 83.8293 81.6721 85.9012C79.5393 87.9426 76.8733 88.9633 73.674 88.9633ZM73.3541 84.5301C75.2737 84.5301 76.8428 83.9207 78.0616 82.7019C79.3108 81.4527 79.9354 79.8836 79.9354 77.9945C79.9354 76.1359 79.2955 74.6429 78.0159 73.5156C76.7666 72.3578 75.1975 71.7789 73.3084 71.7789C71.7545 71.7789 70.2768 72.2664 68.8752 73.2414C67.5346 74.2164 66.651 75.4199 66.2244 76.8519C66.4072 79.259 67.1233 81.148 68.3725 82.5191C69.6217 83.8598 71.2822 84.5301 73.3541 84.5301ZM110.714 88.3691H106.875L125.796 56.3769H129.589L110.714 88.3691ZM108.977 55.7827C111.262 55.7827 113.151 56.5292 114.644 58.0222C116.137 59.5152 116.884 61.3585 116.884 63.5523C116.884 65.746 116.137 67.5894 114.644 69.0824C113.151 70.5449 111.262 71.2761 108.977 71.2761C106.753 71.2761 104.879 70.5449 103.355 69.0824C101.893 67.5589 101.162 65.7156 101.162 63.5523C101.162 61.389 101.893 59.5456 103.355 58.0222C104.848 56.5292 106.722 55.7827 108.977 55.7827ZM108.977 67.9398C110.226 67.9398 111.247 67.5285 112.039 66.7058C112.862 65.8527 113.273 64.8015 113.273 63.5523C113.273 62.2726 112.877 61.2214 112.085 60.3988C111.293 59.5761 110.257 59.1648 108.977 59.1648C107.758 59.1648 106.753 59.5913 105.961 60.4445C105.168 61.2671 104.772 62.3031 104.772 63.5523C104.772 64.8015 105.168 65.8527 105.961 66.7058C106.753 67.5285 107.758 67.9398 108.977 67.9398ZM127.395 73.4699C129.681 73.4699 131.57 74.2164 133.063 75.7093C134.556 77.2023 135.302 79.0304 135.302 81.1937C135.302 83.3875 134.556 85.2309 133.063 86.7238C131.57 88.2168 129.681 88.9633 127.395 88.9633C125.141 88.9633 123.267 88.2168 121.774 86.7238C120.311 85.2309 119.58 83.3875 119.58 81.1937C119.58 79.0304 120.311 77.2023 121.774 75.7093C123.267 74.2164 125.141 73.4699 127.395 73.4699ZM127.395 85.5812C128.675 85.5812 129.711 85.1699 130.503 84.3473C131.295 83.5246 131.691 82.4734 131.691 81.1937C131.691 79.9445 131.28 78.9086 130.457 78.0859C129.665 77.2328 128.645 76.8062 127.395 76.8062C126.177 76.8062 125.171 77.2328 124.379 78.0859C123.587 78.9086 123.191 79.9445 123.191 81.1937C123.191 82.443 123.587 83.4941 124.379 84.3473C125.171 85.1699 126.177 85.5812 127.395 85.5812Z" fill="white"/>
<path opacity="0.1" d="M132.405 6.78037L50.7197 31.103C47.0776 32.1874 44.0154 34.6743 42.2069 38.0165C41.9085 38.5679 41.6483 39.135 41.4267 39.7142C40.9244 39.3506 40.3963 39.0182 39.8449 38.7198C36.5027 36.9113 32.579 36.5045 28.9368 37.589L12.5997 42.4535C10.4019 43.1079 8.55402 44.6086 7.46267 46.6255C6.37131 48.6424 6.12584 51.0101 6.78027 53.208L26.2384 118.557C26.8928 120.754 28.3935 122.602 30.4103 123.694C32.4272 124.785 34.795 125.03 36.9928 124.376L53.3299 119.511C56.9721 118.427 60.0342 115.94 61.8428 112.598C62.1411 112.047 62.4013 111.479 62.6229 110.9C63.1253 111.264 63.6533 111.596 64.2047 111.895C67.5469 113.703 71.4707 114.11 75.1128 113.025L156.798 88.7028C158.996 88.0484 160.844 86.5477 161.935 84.5308C163.027 82.514 163.272 80.1462 162.618 77.9483L143.16 12.5998C142.505 10.402 141.005 8.55412 138.988 7.46277C136.971 6.37141 134.603 6.12595 132.405 6.78037ZM57.6648 94.2488C57.1497 94.4022 56.6007 94.3994 56.0872 94.2407C55.5737 94.0821 55.1187 93.7747 54.7799 93.3575C54.4411 92.9403 54.2336 92.432 54.1836 91.8968C54.1337 91.3617 54.2435 90.8238 54.4993 90.3511C54.7551 89.8784 55.1453 89.4921 55.6206 89.2412C56.0959 88.9903 56.6349 88.8859 57.1695 88.9413C57.7041 88.9968 58.2103 89.2095 58.624 89.5526C59.0377 89.8957 59.3404 90.3537 59.4938 90.8688C59.6995 91.5596 59.6223 92.3037 59.2793 92.9376C58.9363 93.5715 58.3556 94.0431 57.6648 94.2488ZM52.8003 77.9117C52.2852 78.0651 51.7362 78.0622 51.2227 77.9036C50.7091 77.7449 50.2542 77.4376 49.9154 77.0204C49.5765 76.6032 49.369 76.0948 49.3191 75.5597C49.2692 75.0246 49.379 74.4866 49.6348 74.0139C49.8906 73.5412 50.2808 73.155 50.7561 72.9041C51.2314 72.6531 51.7704 72.5488 52.305 72.6042C52.8396 72.6596 53.3458 72.8723 53.7595 73.2154C54.1732 73.5585 54.4759 74.0166 54.6293 74.5317C54.835 75.2224 54.7578 75.9666 54.4148 76.6005C54.0718 77.2343 53.4911 77.706 52.8003 77.9117ZM47.9358 61.5745C47.4207 61.7279 46.8716 61.7251 46.3581 61.5665C45.8446 61.4078 45.3897 61.1004 45.0508 60.6832C44.712 60.266 44.5045 59.7577 44.4546 59.2226C44.4046 58.6874 44.5145 58.1495 44.7703 57.6768C45.0261 57.2041 45.4163 56.8179 45.8916 56.5669C46.3669 56.316 46.9059 56.2117 47.4405 56.2671C47.9751 56.3225 48.4813 56.5352 48.895 56.8783C49.3087 57.2214 49.6114 57.6794 49.7648 58.1946C49.9704 58.8853 49.8933 59.6295 49.5503 60.2633C49.2073 60.8972 48.6265 61.3689 47.9358 61.5745Z" fill="#FF461E" stroke="white" stroke-width="5.92904"/>
<path d="M141.479 48.9417H56.2489C53.235 48.9417 50.3445 50.1389 48.2134 52.2701C46.0822 54.4012 44.8849 57.2917 44.8849 60.3056C44.8849 57.2917 43.6877 54.4012 41.5565 52.2701C39.4253 50.1389 36.5349 48.9417 33.5209 48.9417H16.475C14.968 48.9417 13.5228 49.5403 12.4572 50.6059C11.3916 51.6714 10.793 53.1167 10.793 54.6236L10.793 122.808C10.793 124.315 11.3916 125.76 12.4572 126.825C13.5228 127.891 14.968 128.49 16.475 128.49H33.5209C36.5349 128.49 39.4253 127.292 41.5565 125.161C43.6877 123.03 44.8849 120.139 44.8849 117.126C44.8849 120.139 46.0822 123.03 48.2134 125.161C50.3445 127.292 53.235 128.49 56.2489 128.49H141.479C142.986 128.49 144.431 127.891 145.497 126.825C146.562 125.76 147.161 124.315 147.161 122.808V54.6236C147.161 53.1167 146.562 51.6714 145.497 50.6059C144.431 49.5403 142.986 48.9417 141.479 48.9417ZM44.8849 111.444C43.7611 111.444 42.6626 111.11 41.7282 110.486C40.7938 109.862 40.0655 108.974 39.6355 107.936C39.2054 106.898 39.0929 105.755 39.3121 104.653C39.5314 103.551 40.0725 102.538 40.8672 101.744C41.6618 100.949 42.6742 100.408 43.7764 100.189C44.8786 99.9695 46.0211 100.082 47.0593 100.512C48.0976 100.942 48.985 101.67 49.6093 102.605C50.2337 103.539 50.5669 104.638 50.5669 105.762C50.5669 107.269 49.9683 108.714 48.9027 109.779C47.8371 110.845 46.3919 111.444 44.8849 111.444ZM44.8849 94.3976C43.7611 94.3976 42.6626 94.0644 41.7282 93.44C40.7938 92.8157 40.0655 91.9283 39.6355 90.89C39.2054 89.8518 39.0929 88.7093 39.3121 87.6071C39.5314 86.5049 40.0725 85.4925 40.8672 84.6978C41.6618 83.9032 42.6742 83.362 43.7764 83.1428C44.8786 82.9236 46.0211 83.0361 47.0593 83.4661C48.0976 83.8962 48.985 84.6245 49.6093 85.5589C50.2337 86.4933 50.5669 87.5918 50.5669 88.7156C50.5669 90.2226 49.9683 91.6678 48.9027 92.7334C47.8371 93.799 46.3919 94.3976 44.8849 94.3976ZM44.8849 77.3516C43.7611 77.3516 42.6626 77.0184 41.7282 76.394C40.7938 75.7697 40.0655 74.8823 39.6355 73.844C39.2054 72.8058 39.0929 71.6633 39.3121 70.5611C39.5314 69.4589 40.0725 68.4465 40.8672 67.6519C41.6618 66.8572 42.6742 66.3161 43.7764 66.0968C44.8786 65.8776 46.0211 65.9901 47.0593 66.4201C48.0976 66.8502 48.985 67.5785 49.6093 68.5129C50.2337 69.4473 50.5669 70.5458 50.5669 71.6696C50.5669 73.1766 49.9683 74.6218 48.9027 75.6874C47.8371 76.753 46.3919 77.3516 44.8849 77.3516Z" fill="#FF461E"/>
<path d="M82.3187 98.2734H76.6315L84.671 82.1051H75.4703V77.4303H90.6858V81.5989L82.3187 98.2734ZM103.699 98.2734H100.156L112.751 77.4303H116.295L103.699 98.2734ZM97.9825 78.7107C99.0147 77.7182 100.305 77.2219 101.853 77.2219C103.402 77.2219 104.692 77.7182 105.724 78.7107C106.737 79.6834 107.243 80.9141 107.243 82.4029C107.243 83.8917 106.737 85.1224 105.724 86.0951C104.692 87.0876 103.402 87.5839 101.853 87.5839C100.305 87.5839 99.0147 87.0876 97.9825 86.0951C96.9701 85.1224 96.4639 83.8917 96.4639 82.4029C96.4639 80.9141 96.9701 79.6834 97.9825 78.7107ZM100.484 83.8619C100.841 84.2391 101.298 84.4277 101.853 84.4277C102.409 84.4277 102.866 84.2391 103.223 83.8619C103.58 83.4649 103.759 82.9786 103.759 82.4029C103.759 81.8272 103.58 81.3508 103.223 80.9736C102.866 80.5766 102.409 80.3781 101.853 80.3781C101.298 80.3781 100.841 80.5766 100.484 80.9736C100.126 81.3508 99.9477 81.8272 99.9477 82.4029C99.9477 82.9786 100.126 83.4649 100.484 83.8619ZM110.697 89.6087C111.729 88.6161 113.019 88.1199 114.568 88.1199C116.116 88.1199 117.406 88.6161 118.439 89.6087C119.451 90.6012 119.957 91.8319 119.957 93.3009C119.957 94.7698 119.451 96.0005 118.439 96.9931C117.406 97.9856 116.116 98.4819 114.568 98.4819C113.019 98.4819 111.729 97.9856 110.697 96.9931C109.684 96.0204 109.178 94.7897 109.178 93.3009C109.178 91.8121 109.684 90.5813 110.697 89.6087ZM113.198 94.7599C113.555 95.137 114.012 95.3256 114.568 95.3256C115.123 95.3256 115.58 95.137 115.937 94.7599C116.295 94.3629 116.473 93.8765 116.473 93.3009C116.473 92.7252 116.295 92.2488 115.937 91.8716C115.58 91.4746 115.123 91.2761 114.568 91.2761C114.012 91.2761 113.555 91.4746 113.198 91.8716C112.841 92.2488 112.662 92.7252 112.662 93.3009C112.662 93.8765 112.841 94.3629 113.198 94.7599Z" fill="white"/>
</svg>
