<svg width="60" height="79" viewBox="0 0 60 79" fill="none" xmlns="http://www.w3.org/2000/svg">
<path d="M4.62745 25.9427C3.42136 25.9427 2.39803 26.4086 1.55684 27.3403C0.715644 28.272 0.294922 29.39 0.294922 30.6949V50.7299C0.294922 52.0675 0.715518 53.1999 1.55684 54.1318C2.39803 55.0635 3.42136 55.5294 4.62745 55.5294C5.83266 55.5294 6.84979 55.0636 7.67794 54.1318C8.50445 53.2001 8.91885 52.0675 8.91885 50.7299V30.6949C8.91885 29.3899 8.49825 28.272 7.65693 27.3403C6.81561 26.4086 5.80558 25.9427 4.62745 25.9427ZM39.4596 7.95728L42.4464 1.85456C42.6425 1.45053 42.5727 1.14071 42.2365 0.922857C41.8716 0.735003 41.5913 0.830192 41.3953 1.20169L38.3668 7.35321C35.7018 6.04818 32.8832 5.39448 29.9109 5.39448C26.938 5.39448 24.1192 6.04832 21.4552 7.35321L18.4265 1.20169C18.2297 0.830192 17.9493 0.735844 17.5853 0.922857C17.2484 1.14169 17.1786 1.45053 17.3754 1.85456L20.3624 7.95728C17.3337 9.66801 14.9215 12.0505 13.1267 15.11C11.3319 18.1712 10.4342 21.5164 10.4342 25.1515H49.3454C49.3454 21.5172 48.4475 18.1719 46.6529 15.11C44.858 12.0505 42.4597 9.66801 39.4596 7.95728ZM22.1911 16.8338C21.8681 17.1924 21.4823 17.3709 21.0339 17.3709C20.5845 17.3709 20.2066 17.1924 19.8983 16.8338C19.5899 16.4769 19.4358 16.0513 19.4358 15.5529C19.4358 15.0562 19.5899 14.6297 19.8983 14.272C20.2066 13.9151 20.5854 13.7366 21.0339 13.7366C21.4823 13.7366 21.8681 13.9151 22.1911 14.272C22.5133 14.6306 22.6752 15.0562 22.6752 15.5529C22.6743 16.0504 22.5126 16.4769 22.1911 16.8338ZM39.9219 16.8338C39.613 17.1924 39.2341 17.3709 38.7865 17.3709C38.337 17.3709 37.9513 17.1924 37.629 16.8338C37.3061 16.4769 37.145 16.0513 37.145 15.5529C37.145 15.0562 37.3061 14.6297 37.629 14.272C37.9513 13.9151 38.337 13.7366 38.7865 13.7366C39.2349 13.7366 39.6128 13.9151 39.9219 14.272C40.2305 14.6306 40.3844 15.0562 40.3844 15.5529C40.3844 16.0504 40.2304 16.4769 39.9219 16.8338ZM10.6012 57.8587C10.6012 59.2889 11.0497 60.4996 11.9467 61.4931C12.8444 62.4866 13.9375 62.9833 15.2279 62.9833H18.3411L18.3837 73.5612C18.3837 74.8969 18.8043 76.0312 19.6455 76.963C20.4867 77.8948 21.4969 78.3607 22.6742 78.3607C23.8796 78.3607 24.9035 77.8948 25.7448 76.963C26.5861 76.0312 27.0067 74.897 27.0067 73.5612V62.9843H32.8118V73.5612C32.8118 74.8969 33.2323 76.0312 34.0736 76.963C34.9149 77.8948 35.938 78.3607 37.1442 78.3607C38.3495 78.3607 39.3735 77.8948 40.2148 76.963C41.0561 76.0312 41.4766 74.897 41.4766 73.5612V62.9843H44.6318C45.8936 62.9843 46.9726 62.4875 47.8712 61.4939C48.7681 60.5004 49.2168 59.2897 49.2168 57.8597V26.8272H10.6012V57.8587ZM55.1927 25.9427C54.0145 25.9427 53.0052 26.4017 52.1639 27.3172C51.3227 28.2343 50.9021 29.3608 50.9021 30.6949V50.7299C50.9021 52.0675 51.3226 53.1999 52.1639 54.1318C53.0052 55.0636 54.0152 55.5294 55.1927 55.5294C56.3981 55.5294 57.422 55.0636 58.2634 54.1318C59.1047 53.1999 59.5251 52.0675 59.5251 50.7299V30.6949C59.5251 29.3607 59.1047 28.2343 58.2634 27.3172C57.422 26.4017 56.3981 25.9427 55.1927 25.9427Z" fill="white"/>
</svg>
