<svg width="63" height="79" viewBox="0 0 63 79" fill="none" xmlns="http://www.w3.org/2000/svg">
<path d="M52.4255 75.26C48.3778 79.3382 43.9119 78.7024 39.6551 76.7796C35.1294 74.8181 30.9921 74.694 26.2125 76.7796C20.2604 79.4467 17.1014 78.6714 13.5167 75.26C-6.72182 53.6287 -3.73458 20.6778 19.2672 19.4373C24.8458 19.7474 28.7516 22.6393 32.0376 22.8797C36.9217 21.8485 41.5968 18.8945 46.8244 19.2822C53.1051 19.8094 57.8025 22.3835 60.9391 27.0121C48.0193 35.0754 51.0812 52.7526 62.948 57.7146C60.5732 64.1885 57.5262 70.5848 52.418 75.3143L52.4255 75.26ZM31.5895 19.2047C30.9846 9.59076 38.49 1.68254 47.1232 0.907227C48.3106 11.9942 37.4146 20.2901 31.5895 19.2047Z" fill="white"/>
</svg>
