<svg width="76" height="75" viewBox="0 0 76 75" fill="none" xmlns="http://www.w3.org/2000/svg">
<path fill-rule="evenodd" clip-rule="evenodd" d="M3.7971 2.92893C0.868164 5.85786 0.868164 10.5719 0.868164 20V55C0.868164 64.4281 0.868164 69.1421 3.7971 72.0711C6.72603 75 11.4401 75 20.8682 75H55.8682C65.2963 75 70.0103 75 72.9392 72.0711C75.8682 69.1421 75.8682 64.4281 75.8682 55V20C75.8682 10.5719 75.8682 5.85786 72.9392 2.92893C70.0103 0 65.2963 0 55.8682 0H20.8682C11.4401 0 6.72603 0 3.7971 2.92893ZM24.9966 26.5297C24.1951 27.4284 23.7494 28.5829 23.7512 29.7793C23.7511 29.8937 23.7551 30.0085 23.7632 30.1235C25.1027 30.1766 26.4158 29.5797 27.2779 28.5319C28.1309 27.4821 28.5424 26.1465 28.4353 24.808L28.4318 24.7524C27.1055 24.8851 25.872 25.5217 24.9966 26.5297ZM25.3146 31.0295C26.1665 30.6893 27.2336 30.2631 28.4056 30.3363H28.4985C30.1961 30.3894 31.7744 31.2515 32.7559 32.6441C31.2174 33.5857 30.2625 35.2569 30.2359 37.0606C30.2227 39.1164 31.4296 40.9865 33.3129 41.822C32.9416 42.9892 32.4111 44.1033 31.7214 45.1113C30.7532 46.5039 29.7054 47.9495 28.1536 47.9761C27.3965 47.989 26.8888 47.7714 26.3609 47.5452C25.8069 47.3078 25.2307 47.0609 24.3206 47.0609C23.4019 47.0609 22.8305 47.3126 22.2785 47.5557C21.7627 47.7829 21.2637 48.0026 20.5142 48.0026C18.9624 48.0026 17.7953 46.5304 16.8271 45.0582C14.8111 42.2199 13.2858 36.9147 15.3549 33.3603C16.3098 31.5963 18.1401 30.4689 20.1561 30.4159C21.0319 30.4007 21.8771 30.7353 22.6039 31.023C23.1427 31.2363 23.6164 31.4239 23.9891 31.4239C24.3272 31.4239 24.7782 31.2437 25.3146 31.0295ZM43.485 28.453V32.1268H46.4294V34.6601H43.485V43.281C43.485 44.6206 44.0686 45.2439 45.3816 45.2439C45.7397 45.2439 46.0845 45.2174 46.4426 45.1644V47.6843C45.8591 47.7904 45.2622 47.8435 44.6654 47.8302C41.4955 47.8302 40.2488 46.6365 40.2488 43.6126V34.6999H38.0206V32.1268H40.2886V28.453H43.485ZM53.7909 47.7897H57.2127L62.823 32.1261H59.4674L55.4886 44.6198L51.5627 32.1261H48.1409L53.7909 47.7897Z" fill="white"/>
</svg>
