<svg width="79" height="79" viewBox="0 0 79 79" fill="none" xmlns="http://www.w3.org/2000/svg">
<g clip-path="url(#clip0)">
<path d="M32.5538 12.71H9.23535C8.59625 12.71 8.07812 12.192 8.07812 11.5527C8.07812 10.9135 8.59625 10.3955 9.23535 10.3955H32.5538C33.1929 10.3955 33.711 10.9135 33.711 11.5527C33.711 12.192 33.1929 12.71 32.5538 12.71Z" fill="#DEE4EB"/>
<path d="M32.5538 20.3286H9.23535C8.59625 20.3286 8.07812 19.8106 8.07812 19.1714C8.07812 18.5321 8.59625 18.0142 9.23535 18.0142H32.5538C33.1929 18.0142 33.711 18.5321 33.711 19.1714C33.711 19.8106 33.1929 20.3286 32.5538 20.3286Z" fill="#DEE4EB"/>
<path d="M53.6692 34.3921H9.23535C8.59625 34.3921 8.07812 33.8741 8.07812 33.2349C8.07812 32.5956 8.59625 32.0776 9.23535 32.0776H53.6692C54.3082 32.0776 54.8264 32.5956 54.8264 33.2349C54.8264 33.8741 54.3082 34.3921 53.6692 34.3921Z" fill="#DEE4EB"/>
<path d="M53.6692 43.9741H9.23535C8.59625 43.9741 8.07812 43.4561 8.07812 42.8169C8.07812 42.1776 8.59625 41.6597 9.23535 41.6597H53.6692C54.3082 41.6597 54.8264 42.1776 54.8264 42.8169C54.8264 43.4561 54.3082 43.9741 53.6692 43.9741Z" fill="#DEE4EB"/>
<path d="M42.1267 53.5564H9.23535C8.59625 53.5564 8.07812 53.0384 8.07812 52.3992C8.07812 51.7599 8.59625 51.2419 9.23535 51.2419H42.1267C42.7658 51.2419 43.2839 51.7599 43.2839 52.3992C43.2839 53.0384 42.7658 53.5564 42.1267 53.5564Z" fill="#DEE4EB"/>
<path d="M42.1267 63.1387H9.23535C8.59625 63.1387 8.07812 62.6207 8.07812 61.9814C8.07812 61.3422 8.59625 60.8242 9.23535 60.8242H42.1267C42.7658 60.8242 43.2839 61.3422 43.2839 61.9814C43.2839 62.6207 42.7658 63.1387 42.1267 63.1387Z" fill="#DEE4EB"/>
<path d="M66.2698 79.0001H57.8813C55.9055 79.0001 54.2982 77.3927 54.2982 75.4169V57.9099H48.126C47.1606 57.9099 46.2979 57.3336 45.9284 56.4415C45.5588 55.5495 45.7613 54.532 46.444 53.8493L60.3937 39.8996C61.3212 38.9723 62.8302 38.9723 63.7574 39.8996L77.7071 53.8493C78.3898 54.532 78.5921 55.5495 78.2227 56.4415C77.8532 57.3334 76.9907 57.9099 76.0251 57.9099H69.8529V75.4169C69.8529 77.3927 68.2456 79.0001 66.2698 79.0001ZM62.0755 41.5176C62.0592 41.5176 62.0427 41.5239 62.0302 41.5364L48.0807 55.4861C48.0625 55.5043 48.0504 55.5161 48.0668 55.5558C48.0831 55.5954 48.1003 55.5954 48.126 55.5954H55.4554C56.0945 55.5954 56.6127 56.1134 56.6127 56.7527V75.4169C56.6127 76.1165 57.1817 76.6857 57.8813 76.6857H66.2698C66.9694 76.6857 67.5384 76.1166 67.5384 75.4169V56.7527C67.5384 56.1134 68.0566 55.5954 68.6957 55.5954H76.0251C76.0508 55.5954 76.068 55.5954 76.0843 55.5558C76.1007 55.5163 76.0886 55.5043 76.0704 55.4861L62.1208 41.5364C62.1084 41.5239 62.0919 41.5176 62.0755 41.5176Z" fill="#3A6DEB"/>
<path d="M62.8951 18.353L44.881 0.338836C44.664 0.121895 44.3696 0 44.0627 0H5.83568C2.94523 0 0.59375 2.35148 0.59375 5.24208V73.7581C0.59375 76.6485 2.94523 79 5.83568 79H50.1872C50.8263 79 51.3445 78.482 51.3445 77.8428C51.3445 77.2035 50.8263 76.6855 50.1872 76.6855H5.83568C4.22142 76.6855 2.9082 75.3722 2.9082 73.7579V5.24208C2.9082 3.62783 4.22142 2.31445 5.83568 2.31445H42.9055V16.085C42.9055 18.4249 44.8091 20.3286 47.149 20.3286H60.9197V35.0076C60.9197 35.6469 61.4378 36.1649 62.0769 36.1649C62.716 36.1649 63.2341 35.6469 63.2341 35.0076V19.1714C63.2341 18.8645 63.1122 18.5702 62.8951 18.353ZM45.22 16.085V3.95093L59.2832 18.0142H47.1491C46.0853 18.0142 45.22 17.1489 45.22 16.085Z" fill="#DEE4EB"/>
</g>
<defs>
<clipPath id="clip0">
<rect width="79" height="79" fill="white"/>
</clipPath>
</defs>
</svg>
