<svg width="50" height="50" fill="none" xmlns="http://www.w3.org/2000/svg"><path opacity=".295" d="M49.166 4.261v8.338a3.335 3.335 0 01-3.335 3.336c-14.14 0-13.156-.055-13.446.118l-4.471 2.672a.834.834 0 01-1.262-.716v-1.24a.834.834 0 00-.833-.834h-.834a3.335 3.335 0 01-3.336-3.335V4.26A3.335 3.335 0 0124.985.926H45.83a3.335 3.335 0 013.335 3.335z" fill="#998DC4"/><path fill-rule="evenodd" clip-rule="evenodd" d="M24.985.087h20.846A4.174 4.174 0 0150 4.257v8.337c0 2.3-1.87 4.17-4.17 4.17h-8.685a.834.834 0 010-1.668h8.686a2.504 2.504 0 002.501-2.502V4.256a2.504 2.504 0 00-2.501-2.501H24.985a2.504 2.504 0 00-2.502 2.501v8.338a2.504 2.504 0 002.502 2.502h1.668c.46 0 .834.373.834.834v2.074l4.669-2.79a.834.834 0 01.855 1.431 2045.92 2045.92 0 00-3.333 1.996l-.002.002-.002.001h-.002c-2.605 1.564-2.772 1.664-2.94 1.665h-.036l-.043-.002a.834.834 0 01-.834-.833v-2.71h-.834a4.174 4.174 0 01-4.17-4.17V4.256a4.175 4.175 0 014.17-4.17zm15.988 43.387a5 5 0 000-7.075l-4.643-4.643a5.009 5.009 0 00-7.075 0l-1.941 1.94a2.365 2.365 0 01-3.341 0l-8.599-8.598a2.361 2.361 0 010-3.341l1.941-1.941a5.009 5.009 0 000-7.075l-4.643-4.643a5 5 0 00-7.075 0L3.9 9.793c-5.201 5.202-5.201 13.665 0 18.867l16.51 16.51a13.35 13.35 0 0014.292 2.994.834.834 0 00-.606-1.554 11.682 11.682 0 01-12.507-2.62L5.08 27.481a11.667 11.667 0 010-16.51l1.696-1.694a3.334 3.334 0 014.717 0l4.643 4.643a3.34 3.34 0 010 4.717l-1.941 1.94a4.028 4.028 0 000 5.7l8.599 8.599a4.028 4.028 0 005.7 0l1.94-1.941a3.34 3.34 0 014.717 0l4.643 4.643a3.333 3.333 0 010 4.717L38.589 43.5a.834.834 0 001.179 1.18l1.205-1.206zM27.383 9.26a2.296 2.296 0 002.292-2.293 2.296 2.296 0 00-2.293-2.293h-1.459a.834.834 0 000 1.668h1.46a.626.626 0 010 1.25 2.296 2.296 0 00-2.294 2.293v1.46c0 .46.374.834.834.834h2.919a.834.834 0 100-1.668h-2.085v-.626c0-.344.28-.625.625-.625zm8.13 2.085a.834.834 0 01-1.669 0V9.259H31.76a.834.834 0 01-.834-.834V5.507a.834.834 0 011.668 0V7.59h1.25V5.507a.834.834 0 011.668 0v5.837zm7.35.834c.346 0 .67-.218.788-.563l2.006-5.837a.834.834 0 00-.788-1.105h-2.895a.834.834 0 000 1.668h1.727l-1.627 4.732a.834.834 0 00.789 1.105zM39.84 5.707l-1.46 5.837a.834.834 0 01-1.617-.405l1.46-5.837a.834.834 0 011.617.405z" fill="#424065"/></svg>