<svg width="50" height="48" fill="none" xmlns="http://www.w3.org/2000/svg"><path opacity=".295" d="M39.93 36.483H13.049a5.845 5.845 0 01-5.846-5.846S5.616 10.254 8.845 10.254L36.847 8.3c3.229 0 5.846 5.425 5.846 5.425s.466 22.759-2.762 22.759z" fill="#998DC4"/><path fill-rule="evenodd" clip-rule="evenodd" d="M48.539 1.722v14.447A7.165 7.165 0 0150 20.512v3.965a7.222 7.222 0 01-2.088 5.07v7.586c0 4.188-3.407 7.595-7.595 7.595h-2.39a2.927 2.927 0 01-2.854 2.297h-3.34a2.926 2.926 0 01-2.923-2.923v-.418a2.926 2.926 0 012.923-2.922h3.34c1.397 0 2.567.984 2.855 2.296h2.389a5.932 5.932 0 005.925-5.925v-7.958c0-.29.147-.544.37-.694a5.546 5.546 0 001.718-4.004v-3.965a5.541 5.541 0 00-4.802-5.485v15.818c0 3.236-2.835 6.472-6.68 6.472h-23.8a6.688 6.688 0 01-6.68-6.68V15.041A5.541 5.541 0 001.67 20.51v3.967a5.49 5.49 0 001.059 3.255.835.835 0 11-1.35.984A7.149 7.149 0 010 24.477v-3.966c0-1.56.5-3.006 1.348-4.187V1.722H.93a.835.835 0 010-1.67h2.505a.835.835 0 010 1.67h-.417v12.933a7.158 7.158 0 013.398-1.303c.393-3.312 3.216-5.889 6.632-5.889h23.8a6.7 6.7 0 014.195 1.481.835.835 0 01-1.05 1.3 4.954 4.954 0 00-3.145-1.11h-23.8a5.016 5.016 0 00-5.01 5.01v16.492a5.016 5.016 0 005.01 5.01h23.8a5.016 5.016 0 005.01-5.01V14.144c0-.462.374-.835.835-.835 1.57 0 2.951.423 4.175 1.265V1.722h-.417a.835.835 0 010-1.67h2.505a.835.835 0 010 1.67h-.417zM35.073 45.355c.69 0 1.253-.562 1.253-1.253v-.418c0-.69-.562-1.252-1.253-1.252h-3.34c-.69 0-1.253.562-1.253 1.252v.418c0 .69.562 1.253 1.253 1.253h3.34zm-19.729-27.14c0 1.873 1.808 3.233 3.613 2.705a.835.835 0 01.469 1.603c-2.882.843-5.752-1.331-5.752-4.308a4.494 4.494 0 014.489-4.489 4.494 4.494 0 014.488 4.489.835.835 0 01-1.67 0 2.822 2.822 0 00-2.818-2.819 2.822 2.822 0 00-2.819 2.819zm12.011-.996c-.64 2.823 1.52 5.484 4.378 5.484a4.494 4.494 0 004.488-4.488c0-3.003-2.908-5.168-5.79-4.297a.835.835 0 00.484 1.598c1.816-.548 3.636.82 3.636 2.699a2.822 2.822 0 01-2.818 2.818 2.822 2.822 0 01-2.749-3.445.835.835 0 10-1.629-.37zM24.958 33.14c3.519 0 6.422-3.218 5.795-5.162-.638-1.98-4.6-2.17-5.799-2.181-1.192-.012-5.136.105-5.806 2.063-.664 1.935 2.217 5.28 5.81 5.28zm-.17-5.674c-2.661 0-3.965.655-4.06.935-.197.573 1.513 3.064 4.221 3.07 2.712 0 4.394-2.424 4.214-2.98-.116-.361-1.68-1.025-4.375-1.025z" fill="#424065"/></svg>