<svg xmlns="http://www.w3.org/2000/svg" width="308.4" height="30.634" viewBox="0 0 308.4 30.634">
  <path id="bridgewater-associates-lp-logo-vector" d="M330.1,321.932h-6.939l-6.374-11.925h-7.145v11.925h-6.065V291.554H318.74c6.939,0,10.229,2.776,10.229,9.149,0,4.677-2.107,7.659-5.86,8.532Zm-13-24.98h-7.453v7.659H317.1c3.649,0,5.448-.771,5.448-3.855C322.544,297.722,320.745,296.951,317.1,296.951Zm-38.036,22.308c-2.981-2.467-4.472-6.528-4.472-11.925,0-10.743,4.369-15.78,13.775-15.78h10.229v5.294H288.568c-4.369,0-6.631,2.262-6.939,7.042h16.962v5.346H281.629c0,5.448,2.107,7.453,6.939,7.453h10.023v5.346H288.26C284.611,321.932,281.938,321.572,279.059,319.259Zm-14.6,2.673h-6.271V296.848h-9.406V291.5h25.135v5.346h-9.458v25.083Zm-17.63,0-2.673-7.247h-12.7l-2.57,7.247h-6.528l12.387-30.377h6.579l12.387,30.377Zm-9.046-24.312-4.266,11.719h8.635Zm-27.91,24.312-6.168-22.719-5.448,22.719h-7.453l-9.715-30.377h6.631l6.733,23.336,5.654-23.336h7.247l6.528,23.336,6.271-23.336h6.271l-8.944,30.377Zm-51.811-2.673c-2.981-2.467-4.472-6.528-4.472-11.925,0-10.743,4.369-15.78,13.775-15.78H177.6v5.294H167.573c-4.369,0-6.631,2.262-6.939,7.042h16.859v5.346H160.531c0,5.448,2.107,7.453,6.939,7.453h10.023v5.346H167.162C163.615,321.932,160.84,321.572,158.064,319.259Zm-30.583,0c-2.981-2.467-4.472-6.528-4.472-11.925,0-10.743,4.369-15.78,13.775-15.78h13.21V296.8h-13.21c-4.883,0-6.939,3.29-6.939,10.229s1.9,9.509,6.939,9.509h6.888V309.39h-8.224v-5.346h14.495v17.99h-13.21c-3.649-.1-6.374-.308-9.406-2.776Zm-21.125,2.673H92.837V291.554H106.15c9.406,0,13.775,4.986,13.775,15.78,0,5.551-1.491,9.509-4.472,11.925-2.981,2.467-5.551,2.673-9.149,2.673Zm-.308-25.186H98.9v19.84h7.145c5.448,0,7.145-2.467,7.145-9.92S111.444,296.746,106.047,296.746ZM81.632,291.4h6.374v30.377H81.632ZM71.507,321.777l-6.374-11.925h-7.3v11.925H51.769V291.4H66.932c6.939,0,10.229,2.776,10.229,9.149,0,4.677-2.107,7.659-5.86,8.532l7.247,12.7Zm-6.065-24.929h-7.5v7.659H65.39c3.649,0,5.448-.771,5.448-3.855s-1.8-3.752-5.551-3.752ZM37.685,321.777H21.7V291.4H36.606c3.392,0,5.86.308,7.453,1.388a8.08,8.08,0,0,1,3.187,7.145,8.265,8.265,0,0,1-4.266,6.579,6.824,6.824,0,0,1,4.369,6.939c.1,5.86-3.084,8.43-9.715,8.43C37.685,321.932,37.685,321.777,37.685,321.777Zm-.925-24.929H27.765v7.042H36.76c2.776,0,4.061-1.079,4.061-3.5S39.536,297,36.76,297Zm.1,12.387h-9.1v7.145h9.046c2.776,0,4.061-1.079,4.061-3.5s-1.388-3.5-4.061-3.5A.254.254,0,0,0,36.863,309.236Z" transform="translate(-21.7 -291.4)" fill="#fff"/>
</svg>
