<svg xmlns="http://www.w3.org/2000/svg" width="215.674" height="53.03" viewBox="0 0 215.674 53.03">
  <g id="Ledger_Wallet" data-name="Ledger Wallet" transform="translate(38.014 9.346)">
    <path id="Контур_8324" data-name="Контур 8324" d="M16.556-9.345H-3.76V18.063H23.685V-2.254a7.13,7.13,0,0,0-7.092-7.092Z" transform="translate(-17.308)" fill="#fff"/>
    <path id="Контур_8325" data-name="Контур 8325" d="M-27.386-9.345h-3.5a7.13,7.13,0,0,0-7.092,7.092v3.5h10.591Z" transform="translate(-0.019)" fill="#fff"/>
    <path id="Контур_8326" data-name="Контур 8326" d="M-38.014,24.871h10.591V35.462H-38.014Z" transform="translate(0 -17.289)" fill="#fff"/>
    <path id="Контур_8327" data-name="Контур 8327" d="M30.456,69.624h3.5a7.13,7.13,0,0,0,7.092-7.092V59.125H30.456Z" transform="translate(-34.597 -34.597)" fill="#fff"/>
    <path id="Контур_8328" data-name="Контур 8328" d="M-3.76,59.088H6.831V69.679H-3.76V59.088Z" transform="translate(-17.308 -34.578)" fill="#fff"/>
    <path id="Контур_8329" data-name="Контур 8329" d="M-38.014,59.088v3.5a7.13,7.13,0,0,0,7.092,7.092h3.5V59.088H-38.014Z" transform="translate(0 -34.578)" fill="#fff"/>
    <path id="Контур_8330" data-name="Контур 8330" d="M102.215-3.612H98.07V35.18h21.974v-3.7h-17.83Z" transform="translate(-68.761 -2.897)" fill="#fff"/>
    <path id="Контур_8331" data-name="Контур 8331" d="M155.354,17.164c-8.068,0-13.759,6-13.759,14.625v.976a14.222,14.222,0,0,0,14.073,13.649h.534A15.93,15.93,0,0,0,166.516,42.6v-.111l-1.879-3.058-.2.111a12.235,12.235,0,0,1-8.215,3.279H156a10.3,10.3,0,0,1-10.26-10.26v-.332H166.7V30.039c.221-7.847-4.347-12.875-11.346-12.875ZM145.979,28.75a9.235,9.235,0,0,1,9.173-8.1c3.5,0,7.331,2.1,7.644,8.1Z" transform="translate(-90.753 -13.395)" fill="#fff"/>
    <path id="Контур_8332" data-name="Контур 8332" d="M219.609,9.945V11.4a9.9,9.9,0,0,0-8.418-4.789h-.516c-7.423,0-12.562,5.894-12.562,14.515s4.9,14.662,12.231,14.662a10.215,10.215,0,0,0,9.3-5.047V35h3.923V-3.612h-3.979V9.945ZM211.1,32.122c-5.139,0-8.528-4.458-8.528-10.923s3.592-10.812,8.639-10.812c4.163,0,8.418,3.389,8.418,10.812,0,8.049-4.458,10.923-8.6,10.923Z" transform="translate(-119.311 -2.897)" fill="#fff"/>
    <path id="Контур_8333" data-name="Контур 8333" d="M276.654,20.864v.221c-.774-1.308-3.168-4.144-8.915-4.144-7.313,0-12.138,5.581-12.138,14.091s5.047,14.294,12.47,14.294a9.315,9.315,0,0,0,8.639-4.458V44.7c0,5.36-3.389,8.418-9.412,8.418a16.25,16.25,0,0,1-7.478-1.768l-.2-.111-1.547,3.389.221.111a20.639,20.639,0,0,0,9.062,2.229c6.447,0,13.391-3.279,13.391-12.36V17.862h-4.089Zm-8.086,21c-5.36,0-8.915-4.144-8.915-10.591s3.058-10.278,8.307-10.278c5.784,0,8.528,3.389,8.528,10.278S273.8,41.862,268.568,41.862Z" transform="translate(-148.358 -13.282)" fill="#fff"/>
    <path id="Контур_8334" data-name="Контур 8334" d="M325.749,17.164c-8.1,0-13.667,6-13.667,14.515v.976a14.267,14.267,0,0,0,14.2,13.759h.553a15.9,15.9,0,0,0,10.26-3.831l-1.9-3.26h-.221A12.179,12.179,0,0,1,326.8,42.6h-.221A10.33,10.33,0,0,1,316.3,32.323V32.01h21.146V29.818c-.018-7.626-4.6-12.654-11.7-12.654Zm-9.3,11.586a9.252,9.252,0,0,1,9.191-8.1c3.481,0,7.313,2.1,7.626,8.1Z" transform="translate(-176.897 -13.395)" fill="#fff"/>
    <path id="Контур_8335" data-name="Контур 8335" d="M383.267,18.018a3.8,3.8,0,0,1-1.547-.221,9.4,9.4,0,0,0-8.639,6.447V18.018h-4.034V45.887h4.144V34.19a17.845,17.845,0,0,1,.866-5.286c1.308-4.255,4.255-6.981,7.755-6.981a7.751,7.751,0,0,1,1.308,0h.221v-3.9Z" transform="translate(-205.681 -13.715)" fill="#fff"/>
  </g>
</svg>
