<svg xmlns="http://www.w3.org/2000/svg" width="215.998" height="47.146" viewBox="0 0 215.998 47.146">
  <path id="Coinbase-Logo.wine" d="M16.812,41.2a12.5,12.5,0,0,0,4.716-.9c0,.054,3.006,4.716,3.06,4.734a17.784,17.784,0,0,1-8.658,2.106C6.7,47.16,0,41.058,0,31.356c0-9.774,7.02-15.84,15.93-15.84a16.494,16.494,0,0,1,8.154,2.016l-2.88,4.86a12.618,12.618,0,0,0-4.68-.864C11.07,21.528,6.84,25,6.84,31.356,6.84,37.368,10.926,41.2,16.812,41.2ZM40.086,15.516c9.072,0,15.642,6.426,15.642,15.84,0,9.36-6.57,15.786-15.66,15.786-9,0-15.57-6.426-15.57-15.786,0-9.414,6.57-15.84,15.588-15.84Zm0,5.8c-5.058,0-8.748,3.906-8.748,10.044,0,6.084,3.69,9.99,8.748,9.99,5.184,0,8.82-3.906,8.82-9.99,0-6.138-3.636-10.044-8.82-10.044ZM60.03,46.458V16.2H66.8V46.44H60.03Zm-.9-39.564a4.248,4.248,0,0,1,8.478,0,4.231,4.231,0,1,1-8.46,0ZM72.7,18.108a40.572,40.572,0,0,1,13.86-2.592c7.74,0,12.636,2.934,12.636,11.466V46.458H92.519V27.612c0-4.374-2.718-5.94-6.48-5.94a23.122,23.122,0,0,0-6.57.882V46.44h-6.75V18.108ZM104.867,0h6.768V17.01a16.608,16.608,0,0,1,6.894-1.494c8.748,0,15.3,5.58,15.3,15.3,0,9.774-6.48,16.326-17.676,16.326a34.057,34.057,0,0,1-11.286-1.98Zm6.768,40.716a16.258,16.258,0,0,0,4.716.63c6.21,0,10.656-3.42,10.656-10.386a8.907,8.907,0,0,0-9.288-9.36,12.585,12.585,0,0,0-6.084,1.44Zm41.76-14.544c0-3.276-2.484-4.788-5.832-4.788a16.952,16.952,0,0,0-8.73,2.466V17.964a20.178,20.178,0,0,1,9.828-2.448c6.624,0,11.34,2.736,11.34,10.314V45.846a44.892,44.892,0,0,1-10.386,1.224c-7.848,0-13.59-2.376-13.59-9.216,0-6.156,5.256-9.162,14-9.162h3.348v-2.52Zm0,7.02h-2.88c-4.716,0-7.794,1.386-7.794,4.464,0,3.132,2.88,4.356,6.966,4.356a25.406,25.406,0,0,0,3.69-.324V33.21Zm11.52,5.076a15.876,15.876,0,0,0,9.234,3.42c3.006,0,4.986-1.026,4.986-3.42,0-2.466-1.782-3.348-5.67-4.374-6.3-1.44-8.946-3.96-8.946-9.234,0-6.138,4.644-9.144,10.8-9.144a15.6,15.6,0,0,1,8.676,2.322v6.21a14.022,14.022,0,0,0-8.478-3.06c-2.934,0-4.5,1.44-4.5,3.42s1.278,2.988,4.77,3.96c6.912,1.494,9.9,4.086,9.9,9.54,0,6.372-4.842,9.234-11.394,9.234a17.766,17.766,0,0,1-9.36-2.448V38.268Zm30.042-5.4v.126c.414,5.4,5.04,8.352,9.774,8.352a17.21,17.21,0,0,0,10.17-2.952v5.94c-2.736,1.926-6.768,2.808-10.656,2.808-9.432,0-15.84-6.012-15.84-15.57,0-9.63,6.282-16.056,14.616-16.056,8.82,0,12.978,5.67,12.978,13.932v3.42h-21.06Zm14.688-4.374c-.144-4.716-2.466-7.308-6.84-7.308-3.888,0-6.75,2.736-7.65,7.308Z" fill="#fff" fill-rule="evenodd"/>
</svg>
