<svg xmlns="http://www.w3.org/2000/svg" width="227.467" height="35.767" viewBox="0 0 227.467 35.767">
  <g id="Kraken" transform="translate(-77 -249.101)">
    <path id="Контур_8336" data-name="Контур 8336" d="M98.238,249.206a22,22,0,0,1,11.393,2.286,22.824,22.824,0,0,1,11.393,12.623,22.238,22.238,0,0,1,1.336,7.56v9.494a6.788,6.788,0,0,1,0,1.2,3.067,3.067,0,0,1-.668,1.3,3.209,3.209,0,0,1-5.31-.422,2.888,2.888,0,0,1-.422-1.512V272.87a4.275,4.275,0,0,0-.422-2.461,3.261,3.261,0,0,0-4.43-1.2,3.211,3.211,0,0,0-1.617,2.708v8.966a5.18,5.18,0,0,1-.141,1.653,3.31,3.31,0,0,1-2.25,2.215,3.2,3.2,0,0,1-3.657-1.547,4.049,4.049,0,0,1-.422-2.567V271.71a3.4,3.4,0,0,0-3.692-3.094,4.146,4.146,0,0,0-.7.141,3.419,3.419,0,0,0-1.336.774,3.189,3.189,0,0,0-.985,2.321v8.685a5.517,5.517,0,0,1-.211,2.145,3.1,3.1,0,0,1-2.848,2.11,3.191,3.191,0,0,1-3.094-2.11,6.382,6.382,0,0,1-.211-2V271.71a3.236,3.236,0,0,0-6.47.105v9.74a3.183,3.183,0,0,1-5.134,2.5,2.765,2.765,0,0,1-.985-1.125A3.012,3.012,0,0,1,77,281.485v-9.74a22.641,22.641,0,0,1,8.545-17.687A21.849,21.849,0,0,1,98.238,249.1Z" fill="#fff"/>
    <path id="Контур_8337" data-name="Контур 8337" d="M287.446,262.04h-4.923a9.526,9.526,0,0,1,4.079-8.509,16.1,16.1,0,0,1,10.2-2.075,16.742,16.742,0,0,1,5.7,1.406,7.454,7.454,0,0,1,4.677,7.349V278.5c0,2.215.457,2.637,2.708,2.426h.7a.488.488,0,0,1,0,.316v3.692a8.911,8.911,0,0,1-5.415.316,3.933,3.933,0,0,1-2.6-2.6,15.573,15.573,0,0,1-.563-2.039l-.527.633a14.012,14.012,0,0,1-13.96,4.009,8.979,8.979,0,0,1-6.646-8.509,15.6,15.6,0,0,1,.387-3.833,8.513,8.513,0,0,1,5.345-5.661,21.015,21.015,0,0,1,5.7-1.336c2.321-.281,4.606-.563,6.927-.914a2.776,2.776,0,0,0,1.758-.844,2.729,2.729,0,0,0,.809-1.793,4.812,4.812,0,0,0-2.075-5.274,4.994,4.994,0,0,0-1.864-.7,13.451,13.451,0,0,0-5.556-.211,5.452,5.452,0,0,0-4.782,4.747,3.218,3.218,0,0,1,0,1.16Zm14.522,6.048a19.533,19.533,0,0,1-6.716,1.864,38.863,38.863,0,0,0-5.7,1.125,5.122,5.122,0,0,0-3.34,5.2,5.044,5.044,0,0,0,4.114,4.571,10.28,10.28,0,0,0,9.529-3.165,5.92,5.92,0,0,0,1.512-2.989,44.417,44.417,0,0,0,.563-6.575v-.035Zm70.325,6.364a4.807,4.807,0,0,1-.316,1.406,13.116,13.116,0,0,1-11.709,9.846,13.685,13.685,0,0,1-15.577-11.182,22.853,22.853,0,0,1,1.3-14.663,13.546,13.546,0,0,1,10.373-8.228,13.332,13.332,0,0,1,15.683,10.443c.035.246.105.492.141.738.352,2.391.457,4.817.7,7.314H349.824a12.882,12.882,0,0,0,3.235,9.072,7.079,7.079,0,0,0,3.8,1.793,8.543,8.543,0,0,0,10.057-5.907.4.4,0,0,1,.105-.281.317.317,0,0,1,.211-.211.4.4,0,0,1,.281-.105.488.488,0,0,1,.316,0ZM350,265.732h17.23a13.28,13.28,0,0,0-1.477-5.661,7.06,7.06,0,0,0-4.044-3.481,8.9,8.9,0,0,0-11.287,5.591,8.74,8.74,0,0,0-.422,3.551Zm34.67,18.882h-5.2v-32.49h4.958V256.8l.809-.985a12.407,12.407,0,0,1,13.151-3.868,8.091,8.091,0,0,1,6.189,6.857,25.833,25.833,0,0,1,.457,4.36V284.65h-5.415V264.256a13.89,13.89,0,0,0-.668-4.325,5.012,5.012,0,0,0-4.888-3.622,8.5,8.5,0,0,0-8.861,6.013,16.435,16.435,0,0,0-.492,4.36v18Zm-68.989-32.49h5.063v13.784c.281-.316.492-.457.668-.668,4.114-4.22,8.263-8.509,12.412-12.623a1.419,1.419,0,0,1,1.2-.527h6.048l-.633.668c-3.657,3.622-7.243,7.314-10.936,10.9a1.531,1.531,0,0,0-.246.211.567.567,0,0,0-.105.316.973.973,0,0,0,.035.316.707.707,0,0,0,.141.281l11.885,18.988.457.809a2.129,2.129,0,0,1-.668,0h-5.415a1.032,1.032,0,0,1-.563-.141,1.212,1.212,0,0,1-.422-.422l-9.107-15.3a4.826,4.826,0,0,0-.457-.7l-4.149,4.114a1.3,1.3,0,0,0-.246.809v11.6h-2.848c-.668,0-1.617.211-2-.176-.352-.387-.176-1.3-.176-1.969V252.968a1.731,1.731,0,0,0,.07-.844Zm-58.229,0-12.1,12.026c4.325,6.892,8.544,13.643,12.8,20.535h-6.048a1.156,1.156,0,0,1-.6-.141,1.143,1.143,0,0,1-.457-.457c-3.024-5.063-6.083-10.162-9.107-15.3,0-.211-.281-.387-.457-.7a20.042,20.042,0,0,1-2.286,2.286,5.232,5.232,0,0,0-2.11,4.993c.211,2.848,0,5.661,0,8.334v.914H232.1V252.16h5.028V265.7a1.951,1.951,0,0,1,.281.211c.176-.211.211-.492.387-.668,4.079-4.219,8.228-8.509,12.307-12.623a1.692,1.692,0,0,1,.563-.422,1.2,1.2,0,0,1,.7-.105H256.5Zm10.021,5.415c2.532-3.727,5.239-6.822,10.232-5.907v5.661a24.347,24.347,0,0,0-3.9.316,8.039,8.039,0,0,0-5.978,6.857c0,.668-.141,1.371-.141,2.039v18.285h-5.134V252.16h4.923v5.38Z" transform="translate(-100.563 -1.442)" fill="#fff"/>
  </g>
</svg>
