<svg width="180" height="187" viewBox="0 0 180 187" fill="none" xmlns="http://www.w3.org/2000/svg">
<path d="M5.15505 0.421875H174.849C177.695 0.421875 180.002 2.72898 180.002 5.57494V181.548C180.002 184.394 177.695 186.701 174.849 186.701H5.15505C2.30909 186.701 0.00198364 184.394 0.00198364 181.548V5.57494C0.00198364 2.72898 2.30909 0.421875 5.15505 0.421875Z" fill="black"/>
<path d="M5.15505 0.421875H174.849C177.695 0.421875 180.002 2.72898 180.002 5.57494V181.548C180.002 184.394 177.695 186.701 174.849 186.701H5.15505C2.30909 186.701 0.00198364 184.394 0.00198364 181.548V5.57494C0.00198364 2.72898 2.30909 0.421875 5.15505 0.421875Z" fill="white"/>
<path d="M5.15505 0.945131H174.849C177.406 0.945131 179.479 3.01797 179.479 5.57494V181.548C179.479 184.105 177.406 186.178 174.849 186.178H5.15505C2.59807 186.178 0.525239 184.105 0.525239 181.548V5.57494C0.525239 3.01797 2.59808 0.945131 5.15505 0.945131Z" stroke="black" stroke-opacity="0.1" stroke-width="1.04651"/>
<path fill-rule="evenodd" clip-rule="evenodd" d="M166.418 21.363C166.418 25.9926 162.665 29.7456 158.036 29.7456C153.406 29.7456 149.653 25.9926 149.653 21.363C149.653 16.7335 153.406 12.9805 158.036 12.9805C162.665 12.9805 166.418 16.7335 166.418 21.363Z" fill="#E6E6E6"/>
<path fill-rule="evenodd" clip-rule="evenodd" d="M166.418 21.363C166.418 25.9926 162.665 29.7456 158.036 29.7456C153.406 29.7456 149.653 25.9926 149.653 21.363V21.3615L158.004 21.3316L158.035 12.9805H158.036C162.665 12.9805 166.418 16.7335 166.418 21.363Z" fill="#5173F4"/>
<path fill-rule="evenodd" clip-rule="evenodd" d="M165.1 21.3628C165.1 25.2641 161.937 28.4267 158.036 28.4267C154.134 28.4267 150.972 25.2641 150.972 21.3628C150.972 17.4615 154.134 14.2988 158.036 14.2988C161.937 14.2988 165.1 17.4615 165.1 21.3628Z" fill="white"/>
<path fill-rule="evenodd" clip-rule="evenodd" d="M158.099 24.6596H157.972C157.747 24.6596 157.565 24.4773 157.565 24.2523V21.1739C157.565 20.9489 157.747 20.7666 157.972 20.7666H158.099C158.324 20.7666 158.507 20.9489 158.507 21.1739V24.2523C158.507 24.4773 158.324 24.6596 158.099 24.6596Z" fill="#4F6EF7"/>
<path fill-rule="evenodd" clip-rule="evenodd" d="M158.758 19.2905C158.758 19.6892 158.435 20.0125 158.036 20.0125C157.637 20.0125 157.314 19.6892 157.314 19.2905C157.314 18.8917 157.637 18.5684 158.036 18.5684C158.435 18.5684 158.758 18.8917 158.758 19.2905Z" fill="#4F6EF7"/>
<path d="M68.335 28.0754V26.6966C69.1976 26.6024 69.8752 26.3113 70.3678 25.8234C70.8604 25.3356 71.1066 24.6839 71.1066 23.8684C71.1066 23.3028 70.9912 22.8231 70.7602 22.4296C70.5292 22.036 70.2016 21.7048 69.7774 21.4361C69.3531 21.1675 68.8087 20.9129 68.1441 20.6725C67.7104 20.5123 67.371 20.3532 67.1259 20.1953C66.8808 20.0373 66.7052 19.8629 66.5992 19.672C66.4931 19.4811 66.4401 19.2513 66.4401 18.9827C66.4401 18.5537 66.5579 18.2131 66.7936 17.961C67.0293 17.7088 67.3828 17.5827 67.8542 17.5827C68.3114 17.5827 68.6685 17.75 68.9254 18.0847C69.1823 18.4194 69.3107 18.8813 69.3107 19.4705H71.0713C71.0713 18.5278 70.8427 17.7712 70.3854 17.2009C69.9282 16.6305 69.2942 16.2888 68.4835 16.1756V14.6201H67.3522V16.1615C66.8148 16.2228 66.3458 16.376 65.9451 16.6211C65.5445 16.8662 65.2345 17.1914 65.0154 17.5968C64.7962 18.0022 64.6866 18.4665 64.6866 18.9897C64.6866 19.5601 64.8056 20.0432 65.0436 20.4392C65.2817 20.8351 65.6152 21.1675 66.0441 21.4361C66.4731 21.7048 67.0175 21.9523 67.6774 22.1785C68.2855 22.3907 68.7168 22.6275 68.9713 22.8891C69.2259 23.1508 69.3531 23.4819 69.3531 23.8826C69.3531 24.3115 69.2129 24.6509 68.9324 24.9007C68.652 25.1505 68.2548 25.2755 67.7411 25.2755C67.265 25.2755 66.8643 25.1329 66.5391 24.8477C66.2138 24.5625 66.0512 24.09 66.0512 23.43H64.2906C64.2906 24.1324 64.4238 24.7181 64.6901 25.1871C64.9564 25.6561 65.3088 26.0108 65.7472 26.2512C66.1855 26.4916 66.6734 26.6401 67.2108 26.6966V28.0754H68.335ZM77.2863 26.5764V16.2463H77.0671L73.0157 17.7312V19.2018L75.5257 18.3604V26.5764H77.2863ZM84.0104 26.7178C84.6751 26.7178 85.2713 26.5988 85.7993 26.3608C86.3272 26.1227 86.742 25.7751 87.0437 25.3179C87.3454 24.8606 87.4962 24.3186 87.4962 23.6916C87.4962 23.1401 87.3548 22.6523 87.072 22.228C86.7892 21.8038 86.3531 21.4903 85.7639 21.2877C86.2683 21.0614 86.6572 20.7432 86.9306 20.3331C87.204 19.923 87.3407 19.5012 87.3407 19.0675C87.3407 18.4359 87.2028 17.9009 86.927 17.4625C86.6513 17.0241 86.2636 16.6941 85.7639 16.4726C85.2643 16.2511 84.6798 16.1403 84.0104 16.1403C83.3882 16.1403 82.8261 16.2617 82.3241 16.5044C81.8221 16.7472 81.4297 17.083 81.1468 17.512C80.864 17.9409 80.7226 18.4241 80.7226 18.9614H82.4832C82.4832 18.6786 82.5503 18.4312 82.6847 18.219C82.819 18.0069 83.004 17.8431 83.2397 17.7276C83.4754 17.6121 83.7417 17.5544 84.0387 17.5544C84.5478 17.5544 84.9319 17.6864 85.1912 17.9504C85.4505 18.2143 85.5801 18.5867 85.5801 19.0675C85.5801 19.5436 85.434 19.923 85.1417 20.2059C84.8495 20.4887 84.4229 20.6301 83.8619 20.6301H82.8367V22.0159H83.8619C84.4559 22.0159 84.9166 22.1526 85.2442 22.426C85.5718 22.6994 85.7356 23.1189 85.7356 23.6846C85.7356 24.1984 85.586 24.5967 85.2867 24.8795C84.9873 25.1623 84.5713 25.3037 84.0387 25.3037C83.7087 25.3037 83.4188 25.2413 83.169 25.1164C82.9192 24.9915 82.7259 24.8147 82.5892 24.5861C82.4525 24.3575 82.3842 24.097 82.3842 23.8048H80.6236C80.6236 24.4223 80.778 24.9502 81.0867 25.3886C81.3955 25.827 81.8079 26.1581 82.3241 26.382C82.8402 26.6059 83.4023 26.7178 84.0104 26.7178ZM92.6153 26.7178C93.3035 26.7178 93.901 26.5647 94.4077 26.2583C94.9144 25.9519 95.3021 25.5312 95.5708 24.9962C95.8395 24.4612 95.9738 23.8613 95.9738 23.1967C95.9738 22.5745 95.8654 22.0018 95.6486 21.4786C95.4317 20.9553 95.1018 20.5358 94.6587 20.22C94.2156 19.9042 93.6735 19.7463 93.0325 19.7463C92.6082 19.7463 92.217 19.8193 91.8587 19.9655C91.5005 20.1116 91.1918 20.3237 90.9325 20.6018C90.9985 20.0315 91.1623 19.5283 91.4239 19.0922C91.6855 18.6562 92.0591 18.311 92.5446 18.0564C93.0301 17.8019 93.6264 17.6746 94.3334 17.6746H94.4536V16.2251H94.2415C93.0678 16.2251 92.0991 16.482 91.3355 16.9958C90.5719 17.5096 90.0133 18.199 89.6598 19.064C89.3063 19.9289 89.1295 20.9035 89.1295 21.9876V22.6735C89.1295 23.4088 89.2674 24.0841 89.5431 24.6992C89.8189 25.3143 90.2207 25.8046 90.7487 26.1699C91.2766 26.5352 91.8988 26.7178 92.6153 26.7178ZM92.5941 25.2967C92.2783 25.2967 91.9919 25.2024 91.735 25.0138C91.4781 24.8253 91.2742 24.546 91.1234 24.176C90.9726 23.806 90.8971 23.3593 90.8971 22.8361V22.2917C91.0291 21.9664 91.2483 21.6978 91.5547 21.4856C91.8611 21.2735 92.2052 21.1675 92.587 21.1675C92.9311 21.1675 93.2269 21.2594 93.4744 21.4432C93.7218 21.627 93.9092 21.8757 94.0365 22.1892C94.1637 22.5026 94.2274 22.8526 94.2274 23.2391C94.2274 23.6398 94.1614 23.9957 94.0294 24.3068C93.8974 24.6179 93.7089 24.8606 93.4638 25.0351C93.2186 25.2095 92.9288 25.2967 92.5941 25.2967ZM98.5334 26.6613C98.8445 26.6613 99.0919 26.5705 99.2758 26.3891C99.4596 26.2076 99.5515 25.9778 99.5515 25.6997C99.5515 25.4169 99.4596 25.1835 99.2758 24.9997C99.0919 24.8159 98.8445 24.724 98.5334 24.724C98.2175 24.724 97.9677 24.8159 97.7839 24.9997C97.6 25.1835 97.5081 25.4169 97.5081 25.6997C97.5081 25.9778 97.6 26.2076 97.7839 26.3891C97.9677 26.5705 98.2175 26.6613 98.5334 26.6613ZM106.085 26.5764V16.2463H105.866L101.814 17.7312V19.2018L104.324 18.3604V26.5764H106.085ZM116.577 26.5764V25.1623H111.84L114.074 22.7725C114.763 22.0513 115.286 21.3902 115.644 20.7892C116.002 20.1882 116.181 19.586 116.181 18.9827C116.181 18.4029 116.054 17.8997 115.8 17.4731C115.545 17.0465 115.175 16.7177 114.69 16.4867C114.204 16.2558 113.62 16.1403 112.936 16.1403C112.215 16.1403 111.59 16.2864 111.062 16.5787C110.534 16.8709 110.131 17.2669 109.853 17.7665C109.575 18.2662 109.436 18.82 109.436 19.4281H111.197C111.197 18.8625 111.344 18.4088 111.639 18.067C111.933 17.7253 112.359 17.5544 112.915 17.5544C113.386 17.5544 113.755 17.7029 114.021 17.9998C114.288 18.2968 114.421 18.6857 114.421 19.1665C114.421 19.4022 114.377 19.6379 114.29 19.8735C114.203 20.1092 114.056 20.3744 113.848 20.669C113.641 20.9636 113.353 21.3159 112.986 21.726L109.634 25.3603V26.5764H116.577Z" fill="#565D6E"/>
<path fill-rule="evenodd" clip-rule="evenodd" d="M57.044 43.6201C59.1766 43.6201 60.9054 45.349 60.9054 47.4816V66.7889C60.9054 68.9216 59.1766 70.6504 57.044 70.6504H37.7366C35.604 70.6504 33.8752 68.9216 33.8752 66.7889V47.4816C33.8752 45.349 35.604 43.6201 37.7366 43.6201H57.044ZM55.1132 47.4816H39.6674C38.601 47.4816 37.7366 48.346 37.7366 49.4123V64.8582C37.7366 65.9245 38.601 66.7889 39.6674 66.7889H55.1132C56.1796 66.7889 57.044 65.9245 57.044 64.8582V49.4123C57.044 48.346 56.1796 47.4816 55.1132 47.4816Z" fill="#F7931A"/>
<path d="M51.3207 51.0654H43.1841C42.1177 51.0654 41.2533 51.9298 41.2533 52.9962V61.1296C41.2533 62.1959 42.1177 63.0603 43.1841 63.0603H51.3207C52.387 63.0603 53.2515 62.1959 53.2515 61.1296V52.9962C53.2515 51.9298 52.387 51.0654 51.3207 51.0654Z" fill="#3E414C"/>
<path fill-rule="evenodd" clip-rule="evenodd" d="M57.044 129.538C59.1766 129.538 60.9054 131.267 60.9054 133.4V152.707C60.9054 154.84 59.1766 156.568 57.044 156.568H37.7366C35.604 156.568 33.8752 154.84 33.8752 152.707V133.4C33.8752 131.267 35.604 129.538 37.7366 129.538H57.044ZM55.1132 133.4H39.6674C38.601 133.4 37.7366 134.264 37.7366 135.33V150.776C37.7366 151.842 38.601 152.707 39.6674 152.707H55.1132C56.1796 152.707 57.044 151.842 57.044 150.776V135.33C57.044 134.264 56.1796 133.4 55.1132 133.4Z" fill="#F7931A"/>
<path d="M51.3207 136.983H43.1841C42.1177 136.983 41.2533 137.848 41.2533 138.914V147.048C41.2533 148.114 42.1177 148.978 43.1841 148.978H51.3207C52.387 148.978 53.2515 148.114 53.2515 147.048V138.914C53.2515 137.848 52.387 136.983 51.3207 136.983Z" fill="#3E414C"/>
<path fill-rule="evenodd" clip-rule="evenodd" d="M142.962 43.6201C145.094 43.6201 146.823 45.349 146.823 47.4816V66.7889C146.823 68.9216 145.094 70.6504 142.962 70.6504H123.654C121.522 70.6504 119.793 68.9216 119.793 66.7889V47.4816C119.793 45.349 121.522 43.6201 123.654 43.6201H142.962ZM141.031 47.4816H125.585C124.519 47.4816 123.654 48.346 123.654 49.4123V64.8582C123.654 65.9245 124.519 66.7889 125.585 66.7889H141.031C142.097 66.7889 142.962 65.9245 142.962 64.8582V49.4123C142.962 48.346 142.097 47.4816 141.031 47.4816Z" fill="#F7931A"/>
<path d="M137.238 51.0654H129.102C128.035 51.0654 127.171 51.9298 127.171 52.9962V61.1296C127.171 62.1959 128.035 63.0603 129.102 63.0603H137.238C138.305 63.0603 139.169 62.1959 139.169 61.1296V52.9962C139.169 51.9298 138.305 51.0654 137.238 51.0654Z" fill="#3E414C"/>
<path d="M35.8161 74.6582H35.815C34.7437 74.6582 33.8752 75.5267 33.8752 76.5981C33.8752 77.6694 34.7437 78.5379 35.815 78.5379H35.8161C36.8874 78.5379 37.7559 77.6694 37.7559 76.5981C37.7559 75.5267 36.8874 74.6582 35.8161 74.6582Z" fill="#3E414C"/>
<path d="M35.8161 78.5371H35.815C34.7437 78.5371 33.8752 79.4056 33.8752 80.477C33.8752 81.5483 34.7437 82.4168 35.815 82.4168H35.8161C36.8874 82.4168 37.7559 81.5483 37.7559 80.477C37.7559 79.4056 36.8874 78.5371 35.8161 78.5371Z" fill="#3E414C"/>
<path d="M35.8161 82.418H35.815C34.7437 82.418 33.8752 83.2865 33.8752 84.3578C33.8752 85.4292 34.7437 86.2977 35.815 86.2977H35.8161C36.8874 86.2977 37.7559 85.4292 37.7559 84.3578C37.7559 83.2865 36.8874 82.418 35.8161 82.418Z" fill="#3E414C"/>
<path d="M35.8161 86.2969H35.815C34.7437 86.2969 33.8752 87.1654 33.8752 88.2367C33.8752 89.3081 34.7437 90.1766 35.815 90.1766H35.8161C36.8874 90.1766 37.7559 89.3081 37.7559 88.2367C37.7559 87.1654 36.8874 86.2969 35.8161 86.2969Z" fill="#3E414C"/>
<path d="M35.8161 94.0557H35.815C34.7437 94.0557 33.8752 94.9242 33.8752 95.9955C33.8752 97.0669 34.7437 97.9354 35.815 97.9354H35.8161C36.8874 97.9354 37.7559 97.0669 37.7559 95.9955C37.7559 94.9242 36.8874 94.0557 35.8161 94.0557Z" fill="#3E414C"/>
<path d="M35.8161 97.9365H35.815C34.7437 97.9365 33.8752 98.805 33.8752 99.8764C33.8752 100.948 34.7437 101.816 35.815 101.816H35.8161C36.8874 101.816 37.7559 100.948 37.7559 99.8764C37.7559 98.805 36.8874 97.9365 35.8161 97.9365Z" fill="#3E414C"/>
<path d="M35.8161 105.695H35.815C34.7437 105.695 33.8752 106.564 33.8752 107.635C33.8752 108.707 34.7437 109.575 35.815 109.575H35.8161C36.8874 109.575 37.7559 108.707 37.7559 107.635C37.7559 106.564 36.8874 105.695 35.8161 105.695Z" fill="#3E414C"/>
<path d="M39.6968 78.5371H39.6958C38.6244 78.5371 37.7559 79.4056 37.7559 80.477C37.7559 81.5483 38.6244 82.4168 39.6958 82.4168H39.6968C40.7682 82.4168 41.6367 81.5483 41.6367 80.477C41.6367 79.4056 40.7682 78.5371 39.6968 78.5371Z" fill="#3E414C"/>
<path d="M39.6968 86.2969H39.6958C38.6244 86.2969 37.7559 87.1654 37.7559 88.2367C37.7559 89.3081 38.6244 90.1766 39.6958 90.1766H39.6968C40.7682 90.1766 41.6367 89.3081 41.6367 88.2367C41.6367 87.1654 40.7682 86.2969 39.6968 86.2969Z" fill="#3E414C"/>
<path d="M39.6968 90.1768H39.6958C38.6244 90.1768 37.7559 91.0453 37.7559 92.1166C37.7559 93.188 38.6244 94.0565 39.6958 94.0565H39.6968C40.7682 94.0565 41.6367 93.188 41.6367 92.1166C41.6367 91.0453 40.7682 90.1768 39.6968 90.1768Z" fill="#3E414C"/>
<path d="M39.6968 97.9365H39.6958C38.6244 97.9365 37.7559 98.805 37.7559 99.8764C37.7559 100.948 38.6244 101.816 39.6958 101.816H39.6968C40.7682 101.816 41.6367 100.948 41.6367 99.8764C41.6367 98.805 40.7682 97.9365 39.6968 97.9365Z" fill="#3E414C"/>
<path d="M39.6968 105.695H39.6958C38.6244 105.695 37.7559 106.564 37.7559 107.635C37.7559 108.707 38.6244 109.575 39.6958 109.575H39.6968C40.7682 109.575 41.6367 108.707 41.6367 107.635C41.6367 106.564 40.7682 105.695 39.6968 105.695Z" fill="#3E414C"/>
<path d="M43.5776 78.5371H43.5765C42.5052 78.5371 41.6367 79.4056 41.6367 80.477C41.6367 81.5483 42.5052 82.4168 43.5765 82.4168H43.5776C44.6489 82.4168 45.5174 81.5483 45.5174 80.477C45.5174 79.4056 44.6489 78.5371 43.5776 78.5371Z" fill="#3E414C"/>
<path d="M43.5776 82.418H43.5765C42.5052 82.418 41.6367 83.2865 41.6367 84.3578C41.6367 85.4292 42.5052 86.2977 43.5765 86.2977H43.5776C44.6489 86.2977 45.5174 85.4292 45.5174 84.3578C45.5174 83.2865 44.6489 82.418 43.5776 82.418Z" fill="#3E414C"/>
<path d="M43.5776 90.1768H43.5765C42.5052 90.1768 41.6367 91.0453 41.6367 92.1166C41.6367 93.188 42.5052 94.0565 43.5765 94.0565H43.5776C44.6489 94.0565 45.5174 93.188 45.5174 92.1166C45.5174 91.0453 44.6489 90.1768 43.5776 90.1768Z" fill="#3E414C"/>
<path d="M43.5776 97.9365H43.5765C42.5052 97.9365 41.6367 98.805 41.6367 99.8764C41.6367 100.948 42.5052 101.816 43.5765 101.816H43.5776C44.6489 101.816 45.5174 100.948 45.5174 99.8764C45.5174 98.805 44.6489 97.9365 43.5776 97.9365Z" fill="#3E414C"/>
<path d="M43.5776 101.816H43.5765C42.5052 101.816 41.6367 102.685 41.6367 103.756C41.6367 104.828 42.5052 105.696 43.5765 105.696H43.5776C44.6489 105.696 45.5174 104.828 45.5174 103.756C45.5174 102.685 44.6489 101.816 43.5776 101.816Z" fill="#3E414C"/>
<path d="M43.5776 113.455H43.5765C42.5052 113.455 41.6367 114.324 41.6367 115.395C41.6367 116.466 42.5052 117.335 43.5765 117.335H43.5776C44.6489 117.335 45.5174 116.466 45.5174 115.395C45.5174 114.324 44.6489 113.455 43.5776 113.455Z" fill="#3E414C"/>
<path d="M43.5776 117.335H43.5765C42.5052 117.335 41.6367 118.203 41.6367 119.275C41.6367 120.346 42.5052 121.215 43.5765 121.215H43.5776C44.6489 121.215 45.5174 120.346 45.5174 119.275C45.5174 118.203 44.6489 117.335 43.5776 117.335Z" fill="#3E414C"/>
<path d="M47.4005 74.5117H47.3994C46.3281 74.5117 45.4596 75.3802 45.4596 76.4516C45.4596 77.5229 46.3281 78.3914 47.3994 78.3914H47.4005C48.4718 78.3914 49.3403 77.5229 49.3403 76.4516C49.3403 75.3802 48.4718 74.5117 47.4005 74.5117Z" fill="#3E414C"/>
<path d="M47.4583 90.1768H47.4573C46.3859 90.1768 45.5174 91.0453 45.5174 92.1166C45.5174 93.188 46.3859 94.0565 47.4573 94.0565H47.4583C48.5297 94.0565 49.3982 93.188 49.3982 92.1166C49.3982 91.0453 48.5297 90.1768 47.4583 90.1768Z" fill="#3E414C"/>
<path d="M47.4583 109.575H47.4573C46.3859 109.575 45.5174 110.444 45.5174 111.515C45.5174 112.586 46.3859 113.455 47.4573 113.455H47.4583C48.5297 113.455 49.3982 112.586 49.3982 111.515C49.3982 110.444 48.5297 109.575 47.4583 109.575Z" fill="#3E414C"/>
<path d="M47.4583 113.455H47.4573C46.3859 113.455 45.5174 114.324 45.5174 115.395C45.5174 116.466 46.3859 117.335 47.4573 117.335H47.4583C48.5297 117.335 49.3982 116.466 49.3982 115.395C49.3982 114.324 48.5297 113.455 47.4583 113.455Z" fill="#3E414C"/>
<path d="M47.4583 117.335H47.4573C46.3859 117.335 45.5174 118.203 45.5174 119.275C45.5174 120.346 46.3859 121.215 47.4573 121.215H47.4583C48.5297 121.215 49.3982 120.346 49.3982 119.275C49.3982 118.203 48.5297 117.335 47.4583 117.335Z" fill="#3E414C"/>
<path d="M47.4583 121.214H47.4573C46.3859 121.214 45.5174 122.082 45.5174 123.154C45.5174 124.225 46.3859 125.094 47.4573 125.094H47.4583C48.5297 125.094 49.3982 124.225 49.3982 123.154C49.3982 122.082 48.5297 121.214 47.4583 121.214Z" fill="#3E414C"/>
<path d="M51.3391 74.6582H51.338C50.2667 74.6582 49.3982 75.5267 49.3982 76.5981C49.3982 77.6694 50.2667 78.5379 51.338 78.5379H51.3391C52.4105 78.5379 53.279 77.6694 53.279 76.5981C53.279 75.5267 52.4105 74.6582 51.3391 74.6582Z" fill="#3E414C"/>
<path d="M51.3391 90.1768H51.338C50.2667 90.1768 49.3982 91.0453 49.3982 92.1166C49.3982 93.188 50.2667 94.0565 51.338 94.0565H51.3391C52.4105 94.0565 53.279 93.188 53.279 92.1166C53.279 91.0453 52.4105 90.1768 51.3391 90.1768Z" fill="#3E414C"/>
<path d="M51.3391 94.0557H51.338C50.2667 94.0557 49.3982 94.9242 49.3982 95.9955C49.3982 97.0669 50.2667 97.9354 51.338 97.9354H51.3391C52.4105 97.9354 53.279 97.0669 53.279 95.9955C53.279 94.9242 52.4105 94.0557 51.3391 94.0557Z" fill="#3E414C"/>
<path d="M51.3391 97.9365H51.338C50.2667 97.9365 49.3982 98.805 49.3982 99.8764C49.3982 100.948 50.2667 101.816 51.338 101.816H51.3391C52.4105 101.816 53.279 100.948 53.279 99.8764C53.279 98.805 52.4105 97.9365 51.3391 97.9365Z" fill="#3E414C"/>
<path d="M51.3391 101.816H51.338C50.2667 101.816 49.3982 102.685 49.3982 103.756C49.3982 104.828 50.2667 105.696 51.338 105.696H51.3391C52.4105 105.696 53.279 104.828 53.279 103.756C53.279 102.685 52.4105 101.816 51.3391 101.816Z" fill="#3E414C"/>
<path d="M51.3391 117.335H51.338C50.2667 117.335 49.3982 118.203 49.3982 119.275C49.3982 120.346 50.2667 121.215 51.338 121.215H51.3391C52.4105 121.215 53.279 120.346 53.279 119.275C53.279 118.203 52.4105 117.335 51.3391 117.335Z" fill="#3E414C"/>
<path d="M51.3391 121.214H51.338C50.2667 121.214 49.3982 122.082 49.3982 123.154C49.3982 124.225 50.2667 125.094 51.338 125.094H51.3391C52.4105 125.094 53.279 124.225 53.279 123.154C53.279 122.082 52.4105 121.214 51.3391 121.214Z" fill="#3E414C"/>
<path d="M55.2199 74.6582H55.2188C54.1475 74.6582 53.279 75.5267 53.279 76.5981C53.279 77.6694 54.1475 78.5379 55.2188 78.5379H55.2199C56.2912 78.5379 57.1597 77.6694 57.1597 76.5981C57.1597 75.5267 56.2912 74.6582 55.2199 74.6582Z" fill="#3E414C"/>
<path d="M55.2199 78.5371H55.2188C54.1475 78.5371 53.279 79.4056 53.279 80.477C53.279 81.5483 54.1475 82.4168 55.2188 82.4168H55.2199C56.2912 82.4168 57.1597 81.5483 57.1597 80.477C57.1597 79.4056 56.2912 78.5371 55.2199 78.5371Z" fill="#3E414C"/>
<path d="M55.2199 90.1768H55.2188C54.1475 90.1768 53.279 91.0453 53.279 92.1166C53.279 93.188 54.1475 94.0565 55.2188 94.0565H55.2199C56.2912 94.0565 57.1597 93.188 57.1597 92.1166C57.1597 91.0453 56.2912 90.1768 55.2199 90.1768Z" fill="#3E414C"/>
<path d="M55.2199 94.0557H55.2188C54.1475 94.0557 53.279 94.9242 53.279 95.9955C53.279 97.0669 54.1475 97.9354 55.2188 97.9354H55.2199C56.2912 97.9354 57.1597 97.0669 57.1597 95.9955C57.1597 94.9242 56.2912 94.0557 55.2199 94.0557Z" fill="#3E414C"/>
<path d="M55.2199 101.816H55.2188C54.1475 101.816 53.279 102.685 53.279 103.756C53.279 104.828 54.1475 105.696 55.2188 105.696H55.2199C56.2912 105.696 57.1597 104.828 57.1597 103.756C57.1597 102.685 56.2912 101.816 55.2199 101.816Z" fill="#3E414C"/>
<path d="M55.2199 109.575H55.2188C54.1475 109.575 53.279 110.444 53.279 111.515C53.279 112.586 54.1475 113.455 55.2188 113.455H55.2199C56.2912 113.455 57.1597 112.586 57.1597 111.515C57.1597 110.444 56.2912 109.575 55.2199 109.575Z" fill="#3E414C"/>
<path d="M55.2199 113.455H55.2188C54.1475 113.455 53.279 114.324 53.279 115.395C53.279 116.466 54.1475 117.335 55.2188 117.335H55.2199C56.2912 117.335 57.1597 116.466 57.1597 115.395C57.1597 114.324 56.2912 113.455 55.2199 113.455Z" fill="#3E414C"/>
<path d="M55.2199 117.335H55.2188C54.1475 117.335 53.279 118.203 53.279 119.275C53.279 120.346 54.1475 121.215 55.2188 121.215H55.2199C56.2912 121.215 57.1597 120.346 57.1597 119.275C57.1597 118.203 56.2912 117.335 55.2199 117.335Z" fill="#3E414C"/>
<path d="M55.2199 121.214H55.2188C54.1475 121.214 53.279 122.082 53.279 123.154C53.279 124.225 54.1475 125.094 55.2188 125.094H55.2199C56.2912 125.094 57.1597 124.225 57.1597 123.154C57.1597 122.082 56.2912 121.214 55.2199 121.214Z" fill="#3E414C"/>
<path d="M59.1006 74.6582H59.0996C58.0282 74.6582 57.1597 75.5267 57.1597 76.5981C57.1597 77.6694 58.0282 78.5379 59.0996 78.5379H59.1006C60.172 78.5379 61.0405 77.6694 61.0405 76.5981C61.0405 75.5267 60.172 74.6582 59.1006 74.6582Z" fill="#3E414C"/>
<path d="M59.1006 82.418H59.0996C58.0282 82.418 57.1597 83.2865 57.1597 84.3578C57.1597 85.4292 58.0282 86.2977 59.0996 86.2977H59.1006C60.172 86.2977 61.0405 85.4292 61.0405 84.3578C61.0405 83.2865 60.172 82.418 59.1006 82.418Z" fill="#3E414C"/>
<path d="M59.1006 90.1768H59.0996C58.0282 90.1768 57.1597 91.0453 57.1597 92.1166C57.1597 93.188 58.0282 94.0565 59.0996 94.0565H59.1006C60.172 94.0565 61.0405 93.188 61.0405 92.1166C61.0405 91.0453 60.172 90.1768 59.1006 90.1768Z" fill="#3E414C"/>
<path d="M59.1006 97.9365H59.0996C58.0282 97.9365 57.1597 98.805 57.1597 99.8764C57.1597 100.948 58.0282 101.816 59.0996 101.816H59.1006C60.172 101.816 61.0405 100.948 61.0405 99.8764C61.0405 98.805 60.172 97.9365 59.1006 97.9365Z" fill="#3E414C"/>
<path d="M59.1006 105.695H59.0996C58.0282 105.695 57.1597 106.564 57.1597 107.635C57.1597 108.707 58.0282 109.575 59.0996 109.575H59.1006C60.172 109.575 61.0405 108.707 61.0405 107.635C61.0405 106.564 60.172 105.695 59.1006 105.695Z" fill="#3E414C"/>
<path d="M59.1006 113.455H59.0996C58.0282 113.455 57.1597 114.324 57.1597 115.395C57.1597 116.466 58.0282 117.335 59.0996 117.335H59.1006C60.172 117.335 61.0405 116.466 61.0405 115.395C61.0405 114.324 60.172 113.455 59.1006 113.455Z" fill="#3E414C"/>
<path d="M59.1006 121.214H59.0996C58.0282 121.214 57.1597 122.082 57.1597 123.154C57.1597 124.225 58.0282 125.094 59.0996 125.094H59.1006C60.172 125.094 61.0405 124.225 61.0405 123.154C61.0405 122.082 60.172 121.214 59.1006 121.214Z" fill="#3E414C"/>
<path d="M62.9814 74.6582H62.9804C61.909 74.6582 61.0405 75.5267 61.0405 76.5981C61.0405 77.6694 61.909 78.5379 62.9804 78.5379H62.9814C64.0528 78.5379 64.9213 77.6694 64.9213 76.5981C64.9213 75.5267 64.0528 74.6582 62.9814 74.6582Z" fill="#3E414C"/>
<path d="M62.9814 78.5371H62.9804C61.909 78.5371 61.0405 79.4056 61.0405 80.477C61.0405 81.5483 61.909 82.4168 62.9804 82.4168H62.9814C64.0528 82.4168 64.9213 81.5483 64.9213 80.477C64.9213 79.4056 64.0528 78.5371 62.9814 78.5371Z" fill="#3E414C"/>
<path d="M62.9814 86.2969H62.9804C61.909 86.2969 61.0405 87.1654 61.0405 88.2367C61.0405 89.3081 61.909 90.1766 62.9804 90.1766H62.9814C64.0528 90.1766 64.9213 89.3081 64.9213 88.2367C64.9213 87.1654 64.0528 86.2969 62.9814 86.2969Z" fill="#3E414C"/>
<path d="M62.9814 101.816H62.9804C61.909 101.816 61.0405 102.685 61.0405 103.756C61.0405 104.828 61.909 105.696 62.9804 105.696H62.9814C64.0528 105.696 64.9213 104.828 64.9213 103.756C64.9213 102.685 64.0528 101.816 62.9814 101.816Z" fill="#3E414C"/>
<path d="M62.9814 105.695H62.9804C61.909 105.695 61.0405 106.564 61.0405 107.635C61.0405 108.707 61.909 109.575 62.9804 109.575H62.9814C64.0528 109.575 64.9213 108.707 64.9213 107.635C64.9213 106.564 64.0528 105.695 62.9814 105.695Z" fill="#3E414C"/>
<path d="M62.9814 109.575H62.9804C61.909 109.575 61.0405 110.444 61.0405 111.515C61.0405 112.586 61.909 113.455 62.9804 113.455H62.9814C64.0528 113.455 64.9213 112.586 64.9213 111.515C64.9213 110.444 64.0528 109.575 62.9814 109.575Z" fill="#3E414C"/>
<path d="M62.9814 113.455H62.9804C61.909 113.455 61.0405 114.324 61.0405 115.395C61.0405 116.466 61.909 117.335 62.9804 117.335H62.9814C64.0528 117.335 64.9213 116.466 64.9213 115.395C64.9213 114.324 64.0528 113.455 62.9814 113.455Z" fill="#3E414C"/>
<path d="M62.9814 121.214H62.9804C61.909 121.214 61.0405 122.082 61.0405 123.154C61.0405 124.225 61.909 125.094 62.9804 125.094H62.9814C64.0528 125.094 64.9213 124.225 64.9213 123.154C64.9213 122.082 64.0528 121.214 62.9814 121.214Z" fill="#3E414C"/>
<path fill-rule="evenodd" clip-rule="evenodd" d="M66.8611 43.6201H66.8621C67.9335 43.6201 68.802 44.4886 68.802 45.56C68.802 46.6313 67.9335 47.4998 66.8621 47.4998H66.8611C65.7897 47.4998 64.9212 46.6313 64.9212 45.56C64.9212 44.4886 65.7897 43.6201 66.8611 43.6201Z" fill="#3E414C"/>
<path fill-rule="evenodd" clip-rule="evenodd" d="M66.8611 47.5H66.8621C67.9335 47.5 68.802 48.3685 68.802 49.4399C68.802 50.5112 67.9335 51.3797 66.8621 51.3797H66.8611C65.7897 51.3797 64.9212 50.5112 64.9212 49.4399C64.9212 48.3685 65.7897 47.5 66.8611 47.5Z" fill="#3E414C"/>
<path fill-rule="evenodd" clip-rule="evenodd" d="M66.8611 51.3799H66.8621C67.9335 51.3799 68.802 52.2484 68.802 53.3197C68.802 54.3911 67.9335 55.2596 66.8621 55.2596H66.8611C65.7897 55.2596 64.9212 54.3911 64.9212 53.3197C64.9212 52.2484 65.7897 51.3799 66.8611 51.3799Z" fill="#3E414C"/>
<path fill-rule="evenodd" clip-rule="evenodd" d="M66.8611 59.1387H66.8621C67.9335 59.1387 68.802 60.0072 68.802 61.0785C68.802 62.1499 67.9335 63.0184 66.8621 63.0184H66.8611C65.7897 63.0184 64.9212 62.1499 64.9212 61.0785C64.9212 60.0072 65.7897 59.1387 66.8611 59.1387Z" fill="#3E414C"/>
<path fill-rule="evenodd" clip-rule="evenodd" d="M66.8611 66.8984H66.8621C67.9335 66.8984 68.802 67.7669 68.802 68.8383C68.802 69.9096 67.9335 70.7781 66.8621 70.7781H66.8611C65.7897 70.7781 64.9212 69.9096 64.9212 68.8383C64.9212 67.7669 65.7897 66.8984 66.8611 66.8984Z" fill="#3E414C"/>
<path fill-rule="evenodd" clip-rule="evenodd" d="M66.8611 74.6582H66.8621C67.9335 74.6582 68.802 75.5267 68.802 76.5981C68.802 77.6694 67.9335 78.5379 66.8621 78.5379H66.8611C65.7897 78.5379 64.9212 77.6694 64.9212 76.5981C64.9212 75.5267 65.7897 74.6582 66.8611 74.6582Z" fill="#3E414C"/>
<path fill-rule="evenodd" clip-rule="evenodd" d="M66.8611 97.9365H66.8621C67.9335 97.9365 68.802 98.805 68.802 99.8764C68.802 100.948 67.9335 101.816 66.8621 101.816H66.8611C65.7897 101.816 64.9212 100.948 64.9212 99.8764C64.9212 98.805 65.7897 97.9365 66.8611 97.9365Z" fill="#3E414C"/>
<path fill-rule="evenodd" clip-rule="evenodd" d="M66.8611 101.816H66.8621C67.9335 101.816 68.802 102.685 68.802 103.756C68.802 104.828 67.9335 105.696 66.8621 105.696H66.8611C65.7897 105.696 64.9212 104.828 64.9212 103.756C64.9212 102.685 65.7897 101.816 66.8611 101.816Z" fill="#3E414C"/>
<path fill-rule="evenodd" clip-rule="evenodd" d="M66.8611 105.695H66.8621C67.9335 105.695 68.802 106.564 68.802 107.635C68.802 108.707 67.9335 109.575 66.8621 109.575H66.8611C65.7897 109.575 64.9212 108.707 64.9212 107.635C64.9212 106.564 65.7897 105.695 66.8611 105.695Z" fill="#3E414C"/>
<path fill-rule="evenodd" clip-rule="evenodd" d="M66.8611 117.335H66.8621C67.9335 117.335 68.802 118.203 68.802 119.275C68.802 120.346 67.9335 121.215 66.8621 121.215H66.8611C65.7897 121.215 64.9212 120.346 64.9212 119.275C64.9212 118.203 65.7897 117.335 66.8611 117.335Z" fill="#3E414C"/>
<path fill-rule="evenodd" clip-rule="evenodd" d="M66.8611 125.094H66.8621C67.9335 125.094 68.802 125.962 68.802 127.034C68.802 128.105 67.9335 128.973 66.8621 128.973H66.8611C65.7897 128.973 64.9212 128.105 64.9212 127.034C64.9212 125.962 65.7897 125.094 66.8611 125.094Z" fill="#3E414C"/>
<path fill-rule="evenodd" clip-rule="evenodd" d="M66.8611 128.975H66.8621C67.9335 128.975 68.802 129.843 68.802 130.914C68.802 131.986 67.9335 132.854 66.8621 132.854H66.8611C65.7897 132.854 64.9212 131.986 64.9212 130.914C64.9212 129.843 65.7897 128.975 66.8611 128.975Z" fill="#3E414C"/>
<path fill-rule="evenodd" clip-rule="evenodd" d="M66.8611 132.854H66.8621C67.9335 132.854 68.802 133.722 68.802 134.793C68.802 135.865 67.9335 136.733 66.8621 136.733H66.8611C65.7897 136.733 64.9212 135.865 64.9212 134.793C64.9212 133.722 65.7897 132.854 66.8611 132.854Z" fill="#3E414C"/>
<path fill-rule="evenodd" clip-rule="evenodd" d="M66.8611 136.733H66.8621C67.9335 136.733 68.802 137.602 68.802 138.673C68.802 139.745 67.9335 140.613 66.8621 140.613H66.8611C65.7897 140.613 64.9212 139.745 64.9212 138.673C64.9212 137.602 65.7897 136.733 66.8611 136.733Z" fill="#3E414C"/>
<path fill-rule="evenodd" clip-rule="evenodd" d="M66.8611 140.612H66.8621C67.9335 140.612 68.802 141.481 68.802 142.552C68.802 143.624 67.9335 144.492 66.8621 144.492H66.8611C65.7897 144.492 64.9212 143.624 64.9212 142.552C64.9212 141.481 65.7897 140.612 66.8611 140.612Z" fill="#3E414C"/>
<path fill-rule="evenodd" clip-rule="evenodd" d="M66.8611 152.252H66.8621C67.9335 152.252 68.802 153.12 68.802 154.192C68.802 155.263 67.9335 156.132 66.8621 156.132H66.8611C65.7897 156.132 64.9212 155.263 64.9212 154.192C64.9212 153.12 65.7897 152.252 66.8611 152.252Z" fill="#3E414C"/>
<path d="M70.7429 51.3799H70.7419C69.6705 51.3799 68.802 52.2484 68.802 53.3197C68.802 54.3911 69.6705 55.2596 70.7419 55.2596H70.7429C71.8143 55.2596 72.6828 54.3911 72.6828 53.3197C72.6828 52.2484 71.8143 51.3799 70.7429 51.3799Z" fill="#3E414C"/>
<path d="M70.7429 55.2598H70.7419C69.6705 55.2598 68.802 56.1283 68.802 57.1996C68.802 58.271 69.6705 59.1395 70.7419 59.1395H70.7429C71.8143 59.1395 72.6828 58.271 72.6828 57.1996C72.6828 56.1283 71.8143 55.2598 70.7429 55.2598Z" fill="#3E414C"/>
<path d="M70.7429 70.7783H70.7419C69.6705 70.7783 68.802 71.6468 68.802 72.7182C68.802 73.7895 69.6705 74.658 70.7419 74.658H70.7429C71.8143 74.658 72.6828 73.7895 72.6828 72.7182C72.6828 71.6468 71.8143 70.7783 70.7429 70.7783Z" fill="#3E414C"/>
<path d="M70.7429 78.5371H70.7419C69.6705 78.5371 68.802 79.4056 68.802 80.477C68.802 81.5483 69.6705 82.4168 70.7419 82.4168H70.7429C71.8143 82.4168 72.6828 81.5483 72.6828 80.477C72.6828 79.4056 71.8143 78.5371 70.7429 78.5371Z" fill="#3E414C"/>
<path d="M70.7429 82.418H70.7419C69.6705 82.418 68.802 83.2865 68.802 84.3578C68.802 85.4292 69.6705 86.2977 70.7419 86.2977H70.7429C71.8143 86.2977 72.6828 85.4292 72.6828 84.3578C72.6828 83.2865 71.8143 82.418 70.7429 82.418Z" fill="#3E414C"/>
<path d="M70.7429 90.1768H70.7419C69.6705 90.1768 68.802 91.0453 68.802 92.1166C68.802 93.188 69.6705 94.0565 70.7419 94.0565H70.7429C71.8143 94.0565 72.6828 93.188 72.6828 92.1166C72.6828 91.0453 71.8143 90.1768 70.7429 90.1768Z" fill="#3E414C"/>
<path d="M70.7429 94.0557H70.7419C69.6705 94.0557 68.802 94.9242 68.802 95.9955C68.802 97.0669 69.6705 97.9354 70.7419 97.9354H70.7429C71.8143 97.9354 72.6828 97.0669 72.6828 95.9955C72.6828 94.9242 71.8143 94.0557 70.7429 94.0557Z" fill="#3E414C"/>
<path d="M70.7429 97.9365H70.7419C69.6705 97.9365 68.802 98.805 68.802 99.8764C68.802 100.948 69.6705 101.816 70.7419 101.816H70.7429C71.8143 101.816 72.6828 100.948 72.6828 99.8764C72.6828 98.805 71.8143 97.9365 70.7429 97.9365Z" fill="#3E414C"/>
<path d="M70.7429 101.816H70.7419C69.6705 101.816 68.802 102.685 68.802 103.756C68.802 104.828 69.6705 105.696 70.7419 105.696H70.7429C71.8143 105.696 72.6828 104.828 72.6828 103.756C72.6828 102.685 71.8143 101.816 70.7429 101.816Z" fill="#3E414C"/>
<path d="M70.7429 105.695H70.7419C69.6705 105.695 68.802 106.564 68.802 107.635C68.802 108.707 69.6705 109.575 70.7419 109.575H70.7429C71.8143 109.575 72.6828 108.707 72.6828 107.635C72.6828 106.564 71.8143 105.695 70.7429 105.695Z" fill="#3E414C"/>
<path d="M70.7429 113.455H70.7419C69.6705 113.455 68.802 114.324 68.802 115.395C68.802 116.466 69.6705 117.335 70.7419 117.335H70.7429C71.8143 117.335 72.6828 116.466 72.6828 115.395C72.6828 114.324 71.8143 113.455 70.7429 113.455Z" fill="#3E414C"/>
<path d="M70.7429 117.335H70.7419C69.6705 117.335 68.802 118.203 68.802 119.275C68.802 120.346 69.6705 121.215 70.7419 121.215H70.7429C71.8143 121.215 72.6828 120.346 72.6828 119.275C72.6828 118.203 71.8143 117.335 70.7429 117.335Z" fill="#3E414C"/>
<path d="M70.7429 121.214H70.7419C69.6705 121.214 68.802 122.082 68.802 123.154C68.802 124.225 69.6705 125.094 70.7419 125.094H70.7429C71.8143 125.094 72.6828 124.225 72.6828 123.154C72.6828 122.082 71.8143 121.214 70.7429 121.214Z" fill="#3E414C"/>
<path d="M70.7429 125.094H70.7419C69.6705 125.094 68.802 125.962 68.802 127.034C68.802 128.105 69.6705 128.973 70.7419 128.973H70.7429C71.8143 128.973 72.6828 128.105 72.6828 127.034C72.6828 125.962 71.8143 125.094 70.7429 125.094Z" fill="#3E414C"/>
<path d="M70.7429 136.733H70.7419C69.6705 136.733 68.802 137.602 68.802 138.673C68.802 139.745 69.6705 140.613 70.7419 140.613H70.7429C71.8143 140.613 72.6828 139.745 72.6828 138.673C72.6828 137.602 71.8143 136.733 70.7429 136.733Z" fill="#3E414C"/>
<path d="M70.7429 140.612H70.7419C69.6705 140.612 68.802 141.481 68.802 142.552C68.802 143.624 69.6705 144.492 70.7419 144.492H70.7429C71.8143 144.492 72.6828 143.624 72.6828 142.552C72.6828 141.481 71.8143 140.612 70.7429 140.612Z" fill="#3E414C"/>
<path d="M70.7429 148.372H70.7419C69.6705 148.372 68.802 149.241 68.802 150.312C68.802 151.383 69.6705 152.252 70.7419 152.252H70.7429C71.8143 152.252 72.6828 151.383 72.6828 150.312C72.6828 149.241 71.8143 148.372 70.7429 148.372Z" fill="#3E414C"/>
<path d="M70.7429 152.252H70.7419C69.6705 152.252 68.802 153.12 68.802 154.192C68.802 155.263 69.6705 156.132 70.7419 156.132H70.7429C71.8143 156.132 72.6828 155.263 72.6828 154.192C72.6828 153.12 71.8143 152.252 70.7429 152.252Z" fill="#3E414C"/>
<path d="M74.6237 43.6201H74.6226C73.5513 43.6201 72.6828 44.4886 72.6828 45.56C72.6828 46.6313 73.5513 47.4998 74.6226 47.4998H74.6237C75.695 47.4998 76.5635 46.6313 76.5635 45.56C76.5635 44.4886 75.695 43.6201 74.6237 43.6201Z" fill="#3E414C"/>
<path d="M74.6237 51.3799H74.6226C73.5513 51.3799 72.6828 52.2484 72.6828 53.3197C72.6828 54.3911 73.5513 55.2596 74.6226 55.2596H74.6237C75.695 55.2596 76.5635 54.3911 76.5635 53.3197C76.5635 52.2484 75.695 51.3799 74.6237 51.3799Z" fill="#3E414C"/>
<path d="M74.6237 66.8984H74.6226C73.5513 66.8984 72.6828 67.7669 72.6828 68.8383C72.6828 69.9096 73.5513 70.7781 74.6226 70.7781H74.6237C75.695 70.7781 76.5635 69.9096 76.5635 68.8383C76.5635 67.7669 75.695 66.8984 74.6237 66.8984Z" fill="#3E414C"/>
<path d="M74.6237 70.7783H74.6226C73.5513 70.7783 72.6828 71.6468 72.6828 72.7182C72.6828 73.7895 73.5513 74.658 74.6226 74.658H74.6237C75.695 74.658 76.5635 73.7895 76.5635 72.7182C76.5635 71.6468 75.695 70.7783 74.6237 70.7783Z" fill="#3E414C"/>
<path d="M74.6237 74.6582H74.6226C73.5513 74.6582 72.6828 75.5267 72.6828 76.5981C72.6828 77.6694 73.5513 78.5379 74.6226 78.5379H74.6237C75.695 78.5379 76.5635 77.6694 76.5635 76.5981C76.5635 75.5267 75.695 74.6582 74.6237 74.6582Z" fill="#3E414C"/>
<path d="M74.6237 82.418H74.6226C73.5513 82.418 72.6828 83.2865 72.6828 84.3578C72.6828 85.4292 73.5513 86.2977 74.6226 86.2977H74.6237C75.695 86.2977 76.5635 85.4292 76.5635 84.3578C76.5635 83.2865 75.695 82.418 74.6237 82.418Z" fill="#3E414C"/>
<path d="M74.6237 86.2969H74.6226C73.5513 86.2969 72.6828 87.1654 72.6828 88.2367C72.6828 89.3081 73.5513 90.1766 74.6226 90.1766H74.6237C75.695 90.1766 76.5635 89.3081 76.5635 88.2367C76.5635 87.1654 75.695 86.2969 74.6237 86.2969Z" fill="#3E414C"/>
<path d="M74.6237 90.1768H74.6226C73.5513 90.1768 72.6828 91.0453 72.6828 92.1166C72.6828 93.188 73.5513 94.0565 74.6226 94.0565H74.6237C75.695 94.0565 76.5635 93.188 76.5635 92.1166C76.5635 91.0453 75.695 90.1768 74.6237 90.1768Z" fill="#3E414C"/>
<path d="M74.6237 94.0557H74.6226C73.5513 94.0557 72.6828 94.9242 72.6828 95.9955C72.6828 97.0669 73.5513 97.9354 74.6226 97.9354H74.6237C75.695 97.9354 76.5635 97.0669 76.5635 95.9955C76.5635 94.9242 75.695 94.0557 74.6237 94.0557Z" fill="#3E414C"/>
<path d="M74.6237 101.816H74.6226C73.5513 101.816 72.6828 102.685 72.6828 103.756C72.6828 104.828 73.5513 105.696 74.6226 105.696H74.6237C75.695 105.696 76.5635 104.828 76.5635 103.756C76.5635 102.685 75.695 101.816 74.6237 101.816Z" fill="#3E414C"/>
<path d="M74.6237 109.575H74.6226C73.5513 109.575 72.6828 110.444 72.6828 111.515C72.6828 112.586 73.5513 113.455 74.6226 113.455H74.6237C75.695 113.455 76.5635 112.586 76.5635 111.515C76.5635 110.444 75.695 109.575 74.6237 109.575Z" fill="#3E414C"/>
<path d="M74.6237 117.335H74.6226C73.5513 117.335 72.6828 118.203 72.6828 119.275C72.6828 120.346 73.5513 121.215 74.6226 121.215H74.6237C75.695 121.215 76.5635 120.346 76.5635 119.275C76.5635 118.203 75.695 117.335 74.6237 117.335Z" fill="#3E414C"/>
<path d="M74.6237 121.214H74.6226C73.5513 121.214 72.6828 122.082 72.6828 123.154C72.6828 124.225 73.5513 125.094 74.6226 125.094H74.6237C75.695 125.094 76.5635 124.225 76.5635 123.154C76.5635 122.082 75.695 121.214 74.6237 121.214Z" fill="#3E414C"/>
<path d="M74.6237 125.094H74.6226C73.5513 125.094 72.6828 125.962 72.6828 127.034C72.6828 128.105 73.5513 128.973 74.6226 128.973H74.6237C75.695 128.973 76.5635 128.105 76.5635 127.034C76.5635 125.962 75.695 125.094 74.6237 125.094Z" fill="#3E414C"/>
<path d="M74.6237 136.733H74.6226C73.5513 136.733 72.6828 137.602 72.6828 138.673C72.6828 139.745 73.5513 140.613 74.6226 140.613H74.6237C75.695 140.613 76.5635 139.745 76.5635 138.673C76.5635 137.602 75.695 136.733 74.6237 136.733Z" fill="#3E414C"/>
<path d="M74.6237 140.612H74.6226C73.5513 140.612 72.6828 141.481 72.6828 142.552C72.6828 143.624 73.5513 144.492 74.6226 144.492H74.6237C75.695 144.492 76.5635 143.624 76.5635 142.552C76.5635 141.481 75.695 140.612 74.6237 140.612Z" fill="#3E414C"/>
<path d="M74.6237 144.493H74.6226C73.5513 144.493 72.6828 145.362 72.6828 146.433C72.6828 147.504 73.5513 148.373 74.6226 148.373H74.6237C75.695 148.373 76.5635 147.504 76.5635 146.433C76.5635 145.362 75.695 144.493 74.6237 144.493Z" fill="#3E414C"/>
<path d="M74.6237 148.372H74.6226C73.5513 148.372 72.6828 149.241 72.6828 150.312C72.6828 151.383 73.5513 152.252 74.6226 152.252H74.6237C75.695 152.252 76.5635 151.383 76.5635 150.312C76.5635 149.241 75.695 148.372 74.6237 148.372Z" fill="#3E414C"/>
<path d="M78.5044 43.6201H78.5034C77.432 43.6201 76.5635 44.4886 76.5635 45.56C76.5635 46.6313 77.432 47.4998 78.5034 47.4998H78.5044C79.5758 47.4998 80.4443 46.6313 80.4443 45.56C80.4443 44.4886 79.5758 43.6201 78.5044 43.6201Z" fill="#3E414C"/>
<path d="M78.5044 59.1387H78.5034C77.432 59.1387 76.5635 60.0072 76.5635 61.0785C76.5635 62.1499 77.432 63.0184 78.5034 63.0184H78.5044C79.5758 63.0184 80.4443 62.1499 80.4443 61.0785C80.4443 60.0072 79.5758 59.1387 78.5044 59.1387Z" fill="#3E414C"/>
<path d="M78.5044 70.7783H78.5034C77.432 70.7783 76.5635 71.6468 76.5635 72.7182C76.5635 73.7895 77.432 74.658 78.5034 74.658H78.5044C79.5758 74.658 80.4443 73.7895 80.4443 72.7182C80.4443 71.6468 79.5758 70.7783 78.5044 70.7783Z" fill="#3E414C"/>
<path d="M78.5044 113.455H78.5034C77.432 113.455 76.5635 114.324 76.5635 115.395C76.5635 116.466 77.432 117.335 78.5034 117.335H78.5044C79.5758 117.335 80.4443 116.466 80.4443 115.395C80.4443 114.324 79.5758 113.455 78.5044 113.455Z" fill="#3E414C"/>
<path d="M78.5044 128.975H78.5034C77.432 128.975 76.5635 129.843 76.5635 130.914C76.5635 131.986 77.432 132.854 78.5034 132.854H78.5044C79.5758 132.854 80.4443 131.986 80.4443 130.914C80.4443 129.843 79.5758 128.975 78.5044 128.975Z" fill="#3E414C"/>
<path d="M78.5044 136.733H78.5034C77.432 136.733 76.5635 137.602 76.5635 138.673C76.5635 139.745 77.432 140.613 78.5034 140.613H78.5044C79.5758 140.613 80.4443 139.745 80.4443 138.673C80.4443 137.602 79.5758 136.733 78.5044 136.733Z" fill="#3E414C"/>
<path d="M78.5044 144.493H78.5034C77.432 144.493 76.5635 145.362 76.5635 146.433C76.5635 147.504 77.432 148.373 78.5034 148.373H78.5044C79.5758 148.373 80.4443 147.504 80.4443 146.433C80.4443 145.362 79.5758 144.493 78.5044 144.493Z" fill="#3E414C"/>
<path d="M82.3852 55.2598H82.3841C81.3128 55.2598 80.4443 56.1283 80.4443 57.1996C80.4443 58.271 81.3128 59.1395 82.3841 59.1395H82.3852C83.4565 59.1395 84.325 58.271 84.325 57.1996C84.325 56.1283 83.4565 55.2598 82.3852 55.2598Z" fill="#3E414C"/>
<path d="M82.3852 66.8984H82.3841C81.3128 66.8984 80.4443 67.7669 80.4443 68.8383C80.4443 69.9096 81.3128 70.7781 82.3841 70.7781H82.3852C83.4565 70.7781 84.325 69.9096 84.325 68.8383C84.325 67.7669 83.4565 66.8984 82.3852 66.8984Z" fill="#3E414C"/>
<path d="M82.3852 74.6582H82.3841C81.3128 74.6582 80.4443 75.5267 80.4443 76.5981C80.4443 77.6694 81.3128 78.5379 82.3841 78.5379H82.3852C83.4565 78.5379 84.325 77.6694 84.325 76.5981C84.325 75.5267 83.4565 74.6582 82.3852 74.6582Z" fill="#3E414C"/>
<path d="M82.3852 78.5371H82.3841C81.3128 78.5371 80.4443 79.4056 80.4443 80.477C80.4443 81.5483 81.3128 82.4168 82.3841 82.4168H82.3852C83.4565 82.4168 84.325 81.5483 84.325 80.477C84.325 79.4056 83.4565 78.5371 82.3852 78.5371Z" fill="#3E414C"/>
<path d="M82.3852 82.418H82.3841C81.3128 82.418 80.4443 83.2865 80.4443 84.3578C80.4443 85.4292 81.3128 86.2977 82.3841 86.2977H82.3852C83.4565 86.2977 84.325 85.4292 84.325 84.3578C84.325 83.2865 83.4565 82.418 82.3852 82.418Z" fill="#3E414C"/>
<path d="M82.3852 117.335H82.3841C81.3128 117.335 80.4443 118.203 80.4443 119.275C80.4443 120.346 81.3128 121.215 82.3841 121.215H82.3852C83.4565 121.215 84.325 120.346 84.325 119.275C84.325 118.203 83.4565 117.335 82.3852 117.335Z" fill="#3E414C"/>
<path d="M82.3852 121.214H82.3841C81.3128 121.214 80.4443 122.082 80.4443 123.154C80.4443 124.225 81.3128 125.094 82.3841 125.094H82.3852C83.4565 125.094 84.325 124.225 84.325 123.154C84.325 122.082 83.4565 121.214 82.3852 121.214Z" fill="#3E414C"/>
<path d="M82.3852 128.975H82.3841C81.3128 128.975 80.4443 129.843 80.4443 130.914C80.4443 131.986 81.3128 132.854 82.3841 132.854H82.3852C83.4565 132.854 84.325 131.986 84.325 130.914C84.325 129.843 83.4565 128.975 82.3852 128.975Z" fill="#3E414C"/>
<path d="M82.3852 140.612H82.3841C81.3128 140.612 80.4443 141.481 80.4443 142.552C80.4443 143.624 81.3128 144.492 82.3841 144.492H82.3852C83.4565 144.492 84.325 143.624 84.325 142.552C84.325 141.481 83.4565 140.612 82.3852 140.612Z" fill="#3E414C"/>
<path d="M82.3852 144.493H82.3841C81.3128 144.493 80.4443 145.362 80.4443 146.433C80.4443 147.504 81.3128 148.373 82.3841 148.373H82.3852C83.4565 148.373 84.325 147.504 84.325 146.433C84.325 145.362 83.4565 144.493 82.3852 144.493Z" fill="#3E414C"/>
<path d="M82.3852 148.372H82.3841C81.3128 148.372 80.4443 149.241 80.4443 150.312C80.4443 151.383 81.3128 152.252 82.3841 152.252H82.3852C83.4565 152.252 84.325 151.383 84.325 150.312C84.325 149.241 83.4565 148.372 82.3852 148.372Z" fill="#3E414C"/>
<path d="M82.3852 152.252H82.3841C81.3128 152.252 80.4443 153.12 80.4443 154.192C80.4443 155.263 81.3128 156.132 82.3841 156.132H82.3852C83.4565 156.132 84.325 155.263 84.325 154.192C84.325 153.12 83.4565 152.252 82.3852 152.252Z" fill="#3E414C"/>
<path d="M86.2659 70.7783H86.2649C85.1935 70.7783 84.325 71.6468 84.325 72.7182C84.325 73.7895 85.1935 74.658 86.2649 74.658H86.2659C87.3373 74.658 88.2058 73.7895 88.2058 72.7182C88.2058 71.6468 87.3373 70.7783 86.2659 70.7783Z" fill="#3E414C"/>
<path d="M86.2659 74.6582H86.2649C85.1935 74.6582 84.325 75.5267 84.325 76.5981C84.325 77.6694 85.1935 78.5379 86.2649 78.5379H86.2659C87.3373 78.5379 88.2058 77.6694 88.2058 76.5981C88.2058 75.5267 87.3373 74.6582 86.2659 74.6582Z" fill="#3E414C"/>
<path d="M86.2659 78.5371H86.2649C85.1935 78.5371 84.325 79.4056 84.325 80.477C84.325 81.5483 85.1935 82.4168 86.2649 82.4168H86.2659C87.3373 82.4168 88.2058 81.5483 88.2058 80.477C88.2058 79.4056 87.3373 78.5371 86.2659 78.5371Z" fill="#3E414C"/>
<path d="M86.2659 82.418H86.2649C85.1935 82.418 84.325 83.2865 84.325 84.3578C84.325 85.4292 85.1935 86.2977 86.2649 86.2977H86.2659C87.3373 86.2977 88.2058 85.4292 88.2058 84.3578C88.2058 83.2865 87.3373 82.418 86.2659 82.418Z" fill="#3E414C"/>
<path d="M86.2659 121.214H86.2649C85.1935 121.214 84.325 122.082 84.325 123.154C84.325 124.225 85.1935 125.094 86.2649 125.094H86.2659C87.3373 125.094 88.2058 124.225 88.2058 123.154C88.2058 122.082 87.3373 121.214 86.2659 121.214Z" fill="#3E414C"/>
<path d="M86.2659 136.733H86.2649C85.1935 136.733 84.325 137.602 84.325 138.673C84.325 139.745 85.1935 140.613 86.2649 140.613H86.2659C87.3373 140.613 88.2058 139.745 88.2058 138.673C88.2058 137.602 87.3373 136.733 86.2659 136.733Z" fill="#3E414C"/>
<path d="M86.2659 140.612H86.2649C85.1935 140.612 84.325 141.481 84.325 142.552C84.325 143.624 85.1935 144.492 86.2649 144.492H86.2659C87.3373 144.492 88.2058 143.624 88.2058 142.552C88.2058 141.481 87.3373 140.612 86.2659 140.612Z" fill="#3E414C"/>
<path d="M86.2659 148.372H86.2649C85.1935 148.372 84.325 149.241 84.325 150.312C84.325 151.383 85.1935 152.252 86.2649 152.252H86.2659C87.3373 152.252 88.2058 151.383 88.2058 150.312C88.2058 149.241 87.3373 148.372 86.2659 148.372Z" fill="#3E414C"/>
<path d="M90.1467 59.1387H90.1457C89.0743 59.1387 88.2058 60.0072 88.2058 61.0785C88.2058 62.1499 89.0743 63.0184 90.1457 63.0184H90.1467C91.2181 63.0184 92.0866 62.1499 92.0866 61.0785C92.0866 60.0072 91.2181 59.1387 90.1467 59.1387Z" fill="#3E414C"/>
<path d="M90.1467 66.8984H90.1457C89.0743 66.8984 88.2058 67.7669 88.2058 68.8383C88.2058 69.9096 89.0743 70.7781 90.1457 70.7781H90.1467C91.2181 70.7781 92.0866 69.9096 92.0866 68.8383C92.0866 67.7669 91.2181 66.8984 90.1467 66.8984Z" fill="#3E414C"/>
<path d="M90.1467 117.335H90.1457C89.0743 117.335 88.2058 118.203 88.2058 119.275C88.2058 120.346 89.0743 121.215 90.1457 121.215H90.1467C91.2181 121.215 92.0866 120.346 92.0866 119.275C92.0866 118.203 91.2181 117.335 90.1467 117.335Z" fill="#3E414C"/>
<path d="M90.1467 121.214H90.1457C89.0743 121.214 88.2058 122.082 88.2058 123.154C88.2058 124.225 89.0743 125.094 90.1457 125.094H90.1467C91.2181 125.094 92.0866 124.225 92.0866 123.154C92.0866 122.082 91.2181 121.214 90.1467 121.214Z" fill="#3E414C"/>
<path d="M90.1467 125.094H90.1457C89.0743 125.094 88.2058 125.962 88.2058 127.034C88.2058 128.105 89.0743 128.973 90.1457 128.973H90.1467C91.2181 128.973 92.0866 128.105 92.0866 127.034C92.0866 125.962 91.2181 125.094 90.1467 125.094Z" fill="#3E414C"/>
<path d="M90.1467 128.975H90.1457C89.0743 128.975 88.2058 129.843 88.2058 130.914C88.2058 131.986 89.0743 132.854 90.1457 132.854H90.1467C91.2181 132.854 92.0866 131.986 92.0866 130.914C92.0866 129.843 91.2181 128.975 90.1467 128.975Z" fill="#3E414C"/>
<path d="M90.1467 132.854H90.1457C89.0743 132.854 88.2058 133.722 88.2058 134.793C88.2058 135.865 89.0743 136.733 90.1457 136.733H90.1467C91.2181 136.733 92.0866 135.865 92.0866 134.793C92.0866 133.722 91.2181 132.854 90.1467 132.854Z" fill="#3E414C"/>
<path d="M90.1467 136.733H90.1457C89.0743 136.733 88.2058 137.602 88.2058 138.673C88.2058 139.745 89.0743 140.613 90.1457 140.613H90.1467C91.2181 140.613 92.0866 139.745 92.0866 138.673C92.0866 137.602 91.2181 136.733 90.1467 136.733Z" fill="#3E414C"/>
<path d="M90.1467 144.493H90.1457C89.0743 144.493 88.2058 145.362 88.2058 146.433C88.2058 147.504 89.0743 148.373 90.1457 148.373H90.1467C91.2181 148.373 92.0866 147.504 92.0866 146.433C92.0866 145.362 91.2181 144.493 90.1467 144.493Z" fill="#3E414C"/>
<path d="M94.0275 43.6201H94.0264C92.9551 43.6201 92.0866 44.4886 92.0866 45.56C92.0866 46.6313 92.9551 47.4998 94.0264 47.4998H94.0275C95.0988 47.4998 95.9673 46.6313 95.9673 45.56C95.9673 44.4886 95.0988 43.6201 94.0275 43.6201Z" fill="#3E414C"/>
<path d="M94.0275 51.3799H94.0264C92.9551 51.3799 92.0866 52.2484 92.0866 53.3197C92.0866 54.3911 92.9551 55.2596 94.0264 55.2596H94.0275C95.0988 55.2596 95.9673 54.3911 95.9673 53.3197C95.9673 52.2484 95.0988 51.3799 94.0275 51.3799Z" fill="#3E414C"/>
<path d="M94.0275 59.1387H94.0264C92.9551 59.1387 92.0866 60.0072 92.0866 61.0785C92.0866 62.1499 92.9551 63.0184 94.0264 63.0184H94.0275C95.0988 63.0184 95.9673 62.1499 95.9673 61.0785C95.9673 60.0072 95.0988 59.1387 94.0275 59.1387Z" fill="#3E414C"/>
<path d="M94.0275 63.0186H94.0264C92.9551 63.0186 92.0866 63.8871 92.0866 64.9584C92.0866 66.0298 92.9551 66.8983 94.0264 66.8983H94.0275C95.0988 66.8983 95.9673 66.0298 95.9673 64.9584C95.9673 63.8871 95.0988 63.0186 94.0275 63.0186Z" fill="#3E414C"/>
<path d="M94.0275 70.7783H94.0264C92.9551 70.7783 92.0866 71.6468 92.0866 72.7182C92.0866 73.7895 92.9551 74.658 94.0264 74.658H94.0275C95.0988 74.658 95.9673 73.7895 95.9673 72.7182C95.9673 71.6468 95.0988 70.7783 94.0275 70.7783Z" fill="#3E414C"/>
<path d="M94.0275 82.418H94.0264C92.9551 82.418 92.0866 83.2865 92.0866 84.3578C92.0866 85.4292 92.9551 86.2977 94.0264 86.2977H94.0275C95.0988 86.2977 95.9673 85.4292 95.9673 84.3578C95.9673 83.2865 95.0988 82.418 94.0275 82.418Z" fill="#3E414C"/>
<path d="M94.0275 113.455H94.0264C92.9551 113.455 92.0866 114.324 92.0866 115.395C92.0866 116.466 92.9551 117.335 94.0264 117.335H94.0275C95.0988 117.335 95.9673 116.466 95.9673 115.395C95.9673 114.324 95.0988 113.455 94.0275 113.455Z" fill="#3E414C"/>
<path d="M94.0275 121.214H94.0264C92.9551 121.214 92.0866 122.082 92.0866 123.154C92.0866 124.225 92.9551 125.094 94.0264 125.094H94.0275C95.0988 125.094 95.9673 124.225 95.9673 123.154C95.9673 122.082 95.0988 121.214 94.0275 121.214Z" fill="#3E414C"/>
<path d="M94.0275 132.854H94.0264C92.9551 132.854 92.0866 133.722 92.0866 134.793C92.0866 135.865 92.9551 136.733 94.0264 136.733H94.0275C95.0988 136.733 95.9673 135.865 95.9673 134.793C95.9673 133.722 95.0988 132.854 94.0275 132.854Z" fill="#3E414C"/>
<path d="M94.0275 144.493H94.0264C92.9551 144.493 92.0866 145.362 92.0866 146.433C92.0866 147.504 92.9551 148.373 94.0264 148.373H94.0275C95.0988 148.373 95.9673 147.504 95.9673 146.433C95.9673 145.362 95.0988 144.493 94.0275 144.493Z" fill="#3E414C"/>
<path d="M94.0275 152.252H94.0264C92.9551 152.252 92.0866 153.12 92.0866 154.192C92.0866 155.263 92.9551 156.132 94.0264 156.132H94.0275C95.0988 156.132 95.9673 155.263 95.9673 154.192C95.9673 153.12 95.0988 152.252 94.0275 152.252Z" fill="#3E414C"/>
<path d="M97.9082 43.6201H97.9072C96.8358 43.6201 95.9673 44.4886 95.9673 45.56C95.9673 46.6313 96.8358 47.4998 97.9072 47.4998H97.9082C98.9796 47.4998 99.8481 46.6313 99.8481 45.56C99.8481 44.4886 98.9796 43.6201 97.9082 43.6201Z" fill="#3E414C"/>
<path d="M97.9082 47.5H97.9072C96.8358 47.5 95.9673 48.3685 95.9673 49.4399C95.9673 50.5112 96.8358 51.3797 97.9072 51.3797H97.9082C98.9796 51.3797 99.8481 50.5112 99.8481 49.4399C99.8481 48.3685 98.9796 47.5 97.9082 47.5Z" fill="#3E414C"/>
<path d="M97.9082 51.3799H97.9072C96.8358 51.3799 95.9673 52.2484 95.9673 53.3197C95.9673 54.3911 96.8358 55.2596 97.9072 55.2596H97.9082C98.9796 55.2596 99.8481 54.3911 99.8481 53.3197C99.8481 52.2484 98.9796 51.3799 97.9082 51.3799Z" fill="#3E414C"/>
<path d="M97.9082 55.2598H97.9072C96.8358 55.2598 95.9673 56.1283 95.9673 57.1996C95.9673 58.271 96.8358 59.1395 97.9072 59.1395H97.9082C98.9796 59.1395 99.8481 58.271 99.8481 57.1996C99.8481 56.1283 98.9796 55.2598 97.9082 55.2598Z" fill="#3E414C"/>
<path d="M97.9082 59.1387H97.9072C96.8358 59.1387 95.9673 60.0072 95.9673 61.0785C95.9673 62.1499 96.8358 63.0184 97.9072 63.0184H97.9082C98.9796 63.0184 99.8481 62.1499 99.8481 61.0785C99.8481 60.0072 98.9796 59.1387 97.9082 59.1387Z" fill="#3E414C"/>
<path d="M97.9082 63.0186H97.9072C96.8358 63.0186 95.9673 63.8871 95.9673 64.9584C95.9673 66.0298 96.8358 66.8983 97.9072 66.8983H97.9082C98.9796 66.8983 99.8481 66.0298 99.8481 64.9584C99.8481 63.8871 98.9796 63.0186 97.9082 63.0186Z" fill="#3E414C"/>
<path d="M97.9082 66.8984H97.9072C96.8358 66.8984 95.9673 67.7669 95.9673 68.8383C95.9673 69.9096 96.8358 70.7781 97.9072 70.7781H97.9082C98.9796 70.7781 99.8481 69.9096 99.8481 68.8383C99.8481 67.7669 98.9796 66.8984 97.9082 66.8984Z" fill="#3E414C"/>
<path d="M97.9082 70.7783H97.9072C96.8358 70.7783 95.9673 71.6468 95.9673 72.7182C95.9673 73.7895 96.8358 74.658 97.9072 74.658H97.9082C98.9796 74.658 99.8481 73.7895 99.8481 72.7182C99.8481 71.6468 98.9796 70.7783 97.9082 70.7783Z" fill="#3E414C"/>
<path d="M97.9082 78.5371H97.9072C96.8358 78.5371 95.9673 79.4056 95.9673 80.477C95.9673 81.5483 96.8358 82.4168 97.9072 82.4168H97.9082C98.9796 82.4168 99.8481 81.5483 99.8481 80.477C99.8481 79.4056 98.9796 78.5371 97.9082 78.5371Z" fill="#3E414C"/>
<path d="M97.9082 82.418H97.9072C96.8358 82.418 95.9673 83.2865 95.9673 84.3578C95.9673 85.4292 96.8358 86.2977 97.9072 86.2977H97.9082C98.9796 86.2977 99.8481 85.4292 99.8481 84.3578C99.8481 83.2865 98.9796 82.418 97.9082 82.418Z" fill="#3E414C"/>
<path d="M97.9082 121.214H97.9072C96.8358 121.214 95.9673 122.082 95.9673 123.154C95.9673 124.225 96.8358 125.094 97.9072 125.094H97.9082C98.9796 125.094 99.8481 124.225 99.8481 123.154C99.8481 122.082 98.9796 121.214 97.9082 121.214Z" fill="#3E414C"/>
<path d="M97.9082 148.372H97.9072C96.8358 148.372 95.9673 149.241 95.9673 150.312C95.9673 151.383 96.8358 152.252 97.9072 152.252H97.9082C98.9796 152.252 99.8481 151.383 99.8481 150.312C99.8481 149.241 98.9796 148.372 97.9082 148.372Z" fill="#3E414C"/>
<path d="M101.789 43.6201H101.788C100.717 43.6201 99.8481 44.4886 99.8481 45.56C99.8481 46.6313 100.717 47.4998 101.788 47.4998H101.789C102.86 47.4998 103.729 46.6313 103.729 45.56C103.729 44.4886 102.86 43.6201 101.789 43.6201Z" fill="#3E414C"/>
<path d="M101.789 55.2598H101.788C100.717 55.2598 99.8481 56.1283 99.8481 57.1996C99.8481 58.271 100.717 59.1395 101.788 59.1395H101.789C102.86 59.1395 103.729 58.271 103.729 57.1996C103.729 56.1283 102.86 55.2598 101.789 55.2598Z" fill="#3E414C"/>
<path d="M101.789 74.6582H101.788C100.717 74.6582 99.8481 75.5267 99.8481 76.5981C99.8481 77.6694 100.717 78.5379 101.788 78.5379H101.789C102.86 78.5379 103.729 77.6694 103.729 76.5981C103.729 75.5267 102.86 74.6582 101.789 74.6582Z" fill="#3E414C"/>
<path d="M105.67 86.2969H105.669C104.597 86.2969 103.729 87.1654 103.729 88.2367C103.729 89.3081 104.597 90.1766 105.669 90.1766H105.67C106.741 90.1766 107.61 89.3081 107.61 88.2367C107.61 87.1654 106.741 86.2969 105.67 86.2969Z" fill="#3E414C"/>
<path d="M105.67 90.1768H105.669C104.597 90.1768 103.729 91.0453 103.729 92.1166C103.729 93.188 104.597 94.0565 105.669 94.0565H105.67C106.741 94.0565 107.61 93.188 107.61 92.1166C107.61 91.0453 106.741 90.1768 105.67 90.1768Z" fill="#3E414C"/>
<path d="M101.789 113.455H101.788C100.717 113.455 99.8481 114.324 99.8481 115.395C99.8481 116.466 100.717 117.335 101.788 117.335H101.789C102.86 117.335 103.729 116.466 103.729 115.395C103.729 114.324 102.86 113.455 101.789 113.455Z" fill="#3E414C"/>
<path d="M101.789 121.214H101.788C100.717 121.214 99.8481 122.082 99.8481 123.154C99.8481 124.225 100.717 125.094 101.788 125.094H101.789C102.86 125.094 103.729 124.225 103.729 123.154C103.729 122.082 102.86 121.214 101.789 121.214Z" fill="#3E414C"/>
<path d="M101.789 132.854H101.788C100.717 132.854 99.8481 133.722 99.8481 134.793C99.8481 135.865 100.717 136.733 101.788 136.733H101.789C102.86 136.733 103.729 135.865 103.729 134.793C103.729 133.722 102.86 132.854 101.789 132.854Z" fill="#3E414C"/>
<path d="M101.789 136.733H101.788C100.717 136.733 99.8481 137.602 99.8481 138.673C99.8481 139.745 100.717 140.613 101.788 140.613H101.789C102.86 140.613 103.729 139.745 103.729 138.673C103.729 137.602 102.86 136.733 101.789 136.733Z" fill="#3E414C"/>
<path d="M101.789 140.612H101.788C100.717 140.612 99.8481 141.481 99.8481 142.552C99.8481 143.624 100.717 144.492 101.788 144.492H101.789C102.86 144.492 103.729 143.624 103.729 142.552C103.729 141.481 102.86 140.612 101.789 140.612Z" fill="#3E414C"/>
<path d="M101.789 144.493H101.788C100.717 144.493 99.8481 145.362 99.8481 146.433C99.8481 147.504 100.717 148.373 101.788 148.373H101.789C102.86 148.373 103.729 147.504 103.729 146.433C103.729 145.362 102.86 144.493 101.789 144.493Z" fill="#3E414C"/>
<path d="M101.789 148.372H101.788C100.717 148.372 99.8481 149.241 99.8481 150.312C99.8481 151.383 100.717 152.252 101.788 152.252H101.789C102.86 152.252 103.729 151.383 103.729 150.312C103.729 149.241 102.86 148.372 101.789 148.372Z" fill="#3E414C"/>
<path d="M101.789 152.252H101.788C100.717 152.252 99.8481 153.12 99.8481 154.192C99.8481 155.263 100.717 156.132 101.788 156.132H101.789C102.86 156.132 103.729 155.263 103.729 154.192C103.729 153.12 102.86 152.252 101.789 152.252Z" fill="#3E414C"/>
<path d="M105.67 43.6201H105.669C104.597 43.6201 103.729 44.4886 103.729 45.56C103.729 46.6313 104.597 47.4998 105.669 47.4998H105.67C106.741 47.4998 107.61 46.6313 107.61 45.56C107.61 44.4886 106.741 43.6201 105.67 43.6201Z" fill="#3E414C"/>
<path d="M105.67 47.5H105.669C104.597 47.5 103.729 48.3685 103.729 49.4399C103.729 50.5112 104.597 51.3797 105.669 51.3797H105.67C106.741 51.3797 107.61 50.5112 107.61 49.4399C107.61 48.3685 106.741 47.5 105.67 47.5Z" fill="#3E414C"/>
<path d="M105.67 55.2598H105.669C104.597 55.2598 103.729 56.1283 103.729 57.1996C103.729 58.271 104.597 59.1395 105.669 59.1395H105.67C106.741 59.1395 107.61 58.271 107.61 57.1996C107.61 56.1283 106.741 55.2598 105.67 55.2598Z" fill="#3E414C"/>
<path d="M105.67 66.8984H105.669C104.597 66.8984 103.729 67.7669 103.729 68.8383C103.729 69.9096 104.597 70.7781 105.669 70.7781H105.67C106.741 70.7781 107.61 69.9096 107.61 68.8383C107.61 67.7669 106.741 66.8984 105.67 66.8984Z" fill="#3E414C"/>
<path d="M105.67 82.418H105.669C104.597 82.418 103.729 83.2865 103.729 84.3578C103.729 85.4292 104.597 86.2977 105.669 86.2977H105.67C106.741 86.2977 107.61 85.4292 107.61 84.3578C107.61 83.2865 106.741 82.418 105.67 82.418Z" fill="#3E414C"/>
<path d="M105.67 113.455H105.669C104.597 113.455 103.729 114.324 103.729 115.395C103.729 116.466 104.597 117.335 105.669 117.335H105.67C106.741 117.335 107.61 116.466 107.61 115.395C107.61 114.324 106.741 113.455 105.67 113.455Z" fill="#3E414C"/>
<path d="M105.67 128.975H105.669C104.597 128.975 103.729 129.843 103.729 130.914C103.729 131.986 104.597 132.854 105.669 132.854H105.67C106.741 132.854 107.61 131.986 107.61 130.914C107.61 129.843 106.741 128.975 105.67 128.975Z" fill="#3E414C"/>
<path d="M105.67 132.854H105.669C104.597 132.854 103.729 133.722 103.729 134.793C103.729 135.865 104.597 136.733 105.669 136.733H105.67C106.741 136.733 107.61 135.865 107.61 134.793C107.61 133.722 106.741 132.854 105.67 132.854Z" fill="#3E414C"/>
<path d="M105.67 136.733H105.669C104.597 136.733 103.729 137.602 103.729 138.673C103.729 139.745 104.597 140.613 105.669 140.613H105.67C106.741 140.613 107.61 139.745 107.61 138.673C107.61 137.602 106.741 136.733 105.67 136.733Z" fill="#3E414C"/>
<path d="M105.67 140.612H105.669C104.597 140.612 103.729 141.481 103.729 142.552C103.729 143.624 104.597 144.492 105.669 144.492H105.67C106.741 144.492 107.61 143.624 107.61 142.552C107.61 141.481 106.741 140.612 105.67 140.612Z" fill="#3E414C"/>
<path d="M105.67 148.372H105.669C104.597 148.372 103.729 149.241 103.729 150.312C103.729 151.383 104.597 152.252 105.669 152.252H105.67C106.741 152.252 107.61 151.383 107.61 150.312C107.61 149.241 106.741 148.372 105.67 148.372Z" fill="#3E414C"/>
<path fill-rule="evenodd" clip-rule="evenodd" d="M109.549 47.5H109.551C110.622 47.5 111.49 48.3685 111.49 49.4399C111.49 50.5112 110.622 51.3797 109.551 51.3797H109.549C108.478 51.3797 107.61 50.5112 107.61 49.4399C107.61 48.3685 108.478 47.5 109.549 47.5Z" fill="#3E414C"/>
<path fill-rule="evenodd" clip-rule="evenodd" d="M109.549 59.1387H109.551C110.622 59.1387 111.49 60.0072 111.49 61.0785C111.49 62.1499 110.622 63.0184 109.551 63.0184H109.549C108.478 63.0184 107.61 62.1499 107.61 61.0785C107.61 60.0072 108.478 59.1387 109.549 59.1387Z" fill="#3E414C"/>
<path fill-rule="evenodd" clip-rule="evenodd" d="M109.549 70.7783H109.551C110.622 70.7783 111.49 71.6468 111.49 72.7182C111.49 73.7895 110.622 74.658 109.551 74.658H109.549C108.478 74.658 107.61 73.7895 107.61 72.7182C107.61 71.6468 108.478 70.7783 109.549 70.7783Z" fill="#3E414C"/>
<path fill-rule="evenodd" clip-rule="evenodd" d="M109.549 78.5371H109.551C110.622 78.5371 111.49 79.4056 111.49 80.477C111.49 81.5483 110.622 82.4168 109.551 82.4168H109.549C108.478 82.4168 107.61 81.5483 107.61 80.477C107.61 79.4056 108.478 78.5371 109.549 78.5371Z" fill="#3E414C"/>
<path fill-rule="evenodd" clip-rule="evenodd" d="M109.549 86.2969H109.551C110.622 86.2969 111.49 87.1654 111.49 88.2367C111.49 89.3081 110.622 90.1766 109.551 90.1766H109.549C108.478 90.1766 107.61 89.3081 107.61 88.2367C107.61 87.1654 108.478 86.2969 109.549 86.2969Z" fill="#3E414C"/>
<path fill-rule="evenodd" clip-rule="evenodd" d="M109.549 90.1768H109.551C110.622 90.1768 111.49 91.0453 111.49 92.1166C111.49 93.188 110.622 94.0565 109.551 94.0565H109.549C108.478 94.0565 107.61 93.188 107.61 92.1166C107.61 91.0453 108.478 90.1768 109.549 90.1768Z" fill="#3E414C"/>
<path fill-rule="evenodd" clip-rule="evenodd" d="M109.549 97.9365H109.551C110.622 97.9365 111.49 98.805 111.49 99.8764C111.49 100.948 110.622 101.816 109.551 101.816H109.549C108.478 101.816 107.61 100.948 107.61 99.8764C107.61 98.805 108.478 97.9365 109.549 97.9365Z" fill="#3E414C"/>
<path fill-rule="evenodd" clip-rule="evenodd" d="M109.549 101.816H109.551C110.622 101.816 111.49 102.685 111.49 103.756C111.49 104.828 110.622 105.696 109.551 105.696H109.549C108.478 105.696 107.61 104.828 107.61 103.756C107.61 102.685 108.478 101.816 109.549 101.816Z" fill="#3E414C"/>
<path fill-rule="evenodd" clip-rule="evenodd" d="M109.549 105.695H109.551C110.622 105.695 111.49 106.564 111.49 107.635C111.49 108.707 110.622 109.575 109.551 109.575H109.549C108.478 109.575 107.61 108.707 107.61 107.635C107.61 106.564 108.478 105.695 109.549 105.695Z" fill="#3E414C"/>
<path fill-rule="evenodd" clip-rule="evenodd" d="M109.549 109.575H109.551C110.622 109.575 111.49 110.444 111.49 111.515C111.49 112.586 110.622 113.455 109.551 113.455H109.549C108.478 113.455 107.61 112.586 107.61 111.515C107.61 110.444 108.478 109.575 109.549 109.575Z" fill="#3E414C"/>
<path fill-rule="evenodd" clip-rule="evenodd" d="M109.549 113.455H109.551C110.622 113.455 111.49 114.324 111.49 115.395C111.49 116.466 110.622 117.335 109.551 117.335H109.549C108.478 117.335 107.61 116.466 107.61 115.395C107.61 114.324 108.478 113.455 109.549 113.455Z" fill="#3E414C"/>
<path fill-rule="evenodd" clip-rule="evenodd" d="M109.549 117.335H109.551C110.622 117.335 111.49 118.203 111.49 119.275C111.49 120.346 110.622 121.215 109.551 121.215H109.549C108.478 121.215 107.61 120.346 107.61 119.275C107.61 118.203 108.478 117.335 109.549 117.335Z" fill="#3E414C"/>
<path fill-rule="evenodd" clip-rule="evenodd" d="M109.549 128.975H109.551C110.622 128.975 111.49 129.843 111.49 130.914C111.49 131.986 110.622 132.854 109.551 132.854H109.549C108.478 132.854 107.61 131.986 107.61 130.914C107.61 129.843 108.478 128.975 109.549 128.975Z" fill="#3E414C"/>
<path fill-rule="evenodd" clip-rule="evenodd" d="M109.549 132.854H109.551C110.622 132.854 111.49 133.722 111.49 134.793C111.49 135.865 110.622 136.733 109.551 136.733H109.549C108.478 136.733 107.61 135.865 107.61 134.793C107.61 133.722 108.478 132.854 109.549 132.854Z" fill="#3E414C"/>
<path fill-rule="evenodd" clip-rule="evenodd" d="M109.549 136.733H109.551C110.622 136.733 111.49 137.602 111.49 138.673C111.49 139.745 110.622 140.613 109.551 140.613H109.549C108.478 140.613 107.61 139.745 107.61 138.673C107.61 137.602 108.478 136.733 109.549 136.733Z" fill="#3E414C"/>
<path fill-rule="evenodd" clip-rule="evenodd" d="M109.549 152.252H109.551C110.622 152.252 111.49 153.12 111.49 154.192C111.49 155.263 110.622 156.132 109.551 156.132H109.549C108.478 156.132 107.61 155.263 107.61 154.192C107.61 153.12 108.478 152.252 109.549 152.252Z" fill="#3E414C"/>
<path fill-rule="evenodd" clip-rule="evenodd" d="M113.43 63.0186H113.431C114.503 63.0186 115.371 63.8871 115.371 64.9584C115.371 66.0298 114.503 66.8983 113.431 66.8983H113.43C112.359 66.8983 111.49 66.0298 111.49 64.9584C111.49 63.8871 112.359 63.0186 113.43 63.0186Z" fill="#3E414C"/>
<path fill-rule="evenodd" clip-rule="evenodd" d="M113.43 66.8984H113.431C114.503 66.8984 115.371 67.7669 115.371 68.8383C115.371 69.9096 114.503 70.7781 113.431 70.7781H113.43C112.359 70.7781 111.49 69.9096 111.49 68.8383C111.49 67.7669 112.359 66.8984 113.43 66.8984Z" fill="#3E414C"/>
<path fill-rule="evenodd" clip-rule="evenodd" d="M113.43 70.7783H113.431C114.503 70.7783 115.371 71.6468 115.371 72.7182C115.371 73.7895 114.503 74.658 113.431 74.658H113.43C112.359 74.658 111.49 73.7895 111.49 72.7182C111.49 71.6468 112.359 70.7783 113.43 70.7783Z" fill="#3E414C"/>
<path fill-rule="evenodd" clip-rule="evenodd" d="M113.43 82.418H113.431C114.503 82.418 115.371 83.2865 115.371 84.3578C115.371 85.4292 114.503 86.2977 113.431 86.2977H113.43C112.359 86.2977 111.49 85.4292 111.49 84.3578C111.49 83.2865 112.359 82.418 113.43 82.418Z" fill="#3E414C"/>
<path fill-rule="evenodd" clip-rule="evenodd" d="M113.43 86.2969H113.431C114.503 86.2969 115.371 87.1654 115.371 88.2367C115.371 89.3081 114.503 90.1766 113.431 90.1766H113.43C112.359 90.1766 111.49 89.3081 111.49 88.2367C111.49 87.1654 112.359 86.2969 113.43 86.2969Z" fill="#3E414C"/>
<path fill-rule="evenodd" clip-rule="evenodd" d="M113.43 97.9365H113.431C114.503 97.9365 115.371 98.805 115.371 99.8764C115.371 100.948 114.503 101.816 113.431 101.816H113.43C112.359 101.816 111.49 100.948 111.49 99.8764C111.49 98.805 112.359 97.9365 113.43 97.9365Z" fill="#3E414C"/>
<path fill-rule="evenodd" clip-rule="evenodd" d="M113.43 105.695H113.431C114.503 105.695 115.371 106.564 115.371 107.635C115.371 108.707 114.503 109.575 113.431 109.575H113.43C112.359 109.575 111.49 108.707 111.49 107.635C111.49 106.564 112.359 105.695 113.43 105.695Z" fill="#3E414C"/>
<path fill-rule="evenodd" clip-rule="evenodd" d="M113.43 121.214H113.431C114.503 121.214 115.371 122.082 115.371 123.154C115.371 124.225 114.503 125.094 113.431 125.094H113.43C112.359 125.094 111.49 124.225 111.49 123.154C111.49 122.082 112.359 121.214 113.43 121.214Z" fill="#3E414C"/>
<path fill-rule="evenodd" clip-rule="evenodd" d="M113.43 125.094H113.431C114.503 125.094 115.371 125.962 115.371 127.034C115.371 128.105 114.503 128.973 113.431 128.973H113.43C112.359 128.973 111.49 128.105 111.49 127.034C111.49 125.962 112.359 125.094 113.43 125.094Z" fill="#3E414C"/>
<path fill-rule="evenodd" clip-rule="evenodd" d="M113.43 128.975H113.431C114.503 128.975 115.371 129.843 115.371 130.914C115.371 131.986 114.503 132.854 113.431 132.854H113.43C112.359 132.854 111.49 131.986 111.49 130.914C111.49 129.843 112.359 128.975 113.43 128.975Z" fill="#3E414C"/>
<path fill-rule="evenodd" clip-rule="evenodd" d="M113.43 132.854H113.431C114.503 132.854 115.371 133.722 115.371 134.793C115.371 135.865 114.503 136.733 113.431 136.733H113.43C112.359 136.733 111.49 135.865 111.49 134.793C111.49 133.722 112.359 132.854 113.43 132.854Z" fill="#3E414C"/>
<path fill-rule="evenodd" clip-rule="evenodd" d="M113.43 136.733H113.431C114.503 136.733 115.371 137.602 115.371 138.673C115.371 139.745 114.503 140.613 113.431 140.613H113.43C112.359 140.613 111.49 139.745 111.49 138.673C111.49 137.602 112.359 136.733 113.43 136.733Z" fill="#3E414C"/>
<path fill-rule="evenodd" clip-rule="evenodd" d="M113.43 144.493H113.431C114.503 144.493 115.371 145.362 115.371 146.433C115.371 147.504 114.503 148.373 113.431 148.373H113.43C112.359 148.373 111.49 147.504 111.49 146.433C111.49 145.362 112.359 144.493 113.43 144.493Z" fill="#3E414C"/>
<path fill-rule="evenodd" clip-rule="evenodd" d="M113.43 152.252H113.431C114.503 152.252 115.371 153.12 115.371 154.192C115.371 155.263 114.503 156.132 113.431 156.132H113.43C112.359 156.132 111.49 155.263 111.49 154.192C111.49 153.12 112.359 152.252 113.43 152.252Z" fill="#3E414C"/>
<path fill-rule="evenodd" clip-rule="evenodd" d="M117.311 74.6582H117.312C118.383 74.6582 119.252 75.5267 119.252 76.5981C119.252 77.6694 118.383 78.5379 117.312 78.5379H117.311C116.24 78.5379 115.371 77.6694 115.371 76.5981C115.371 75.5267 116.24 74.6582 117.311 74.6582Z" fill="#3E414C"/>
<path fill-rule="evenodd" clip-rule="evenodd" d="M117.311 82.418H117.312C118.383 82.418 119.252 83.2865 119.252 84.3578C119.252 85.4292 118.383 86.2977 117.312 86.2977H117.311C116.24 86.2977 115.371 85.4292 115.371 84.3578C115.371 83.2865 116.24 82.418 117.311 82.418Z" fill="#3E414C"/>
<path fill-rule="evenodd" clip-rule="evenodd" d="M117.311 86.2969H117.312C118.383 86.2969 119.252 87.1654 119.252 88.2367C119.252 89.3081 118.383 90.1766 117.312 90.1766H117.311C116.24 90.1766 115.371 89.3081 115.371 88.2367C115.371 87.1654 116.24 86.2969 117.311 86.2969Z" fill="#3E414C"/>
<path fill-rule="evenodd" clip-rule="evenodd" d="M117.311 94.0557H117.312C118.383 94.0557 119.252 94.9242 119.252 95.9955C119.252 97.0669 118.383 97.9354 117.312 97.9354H117.311C116.24 97.9354 115.371 97.0669 115.371 95.9955C115.371 94.9242 116.24 94.0557 117.311 94.0557Z" fill="#3E414C"/>
<path fill-rule="evenodd" clip-rule="evenodd" d="M117.311 97.9365H117.312C118.383 97.9365 119.252 98.805 119.252 99.8764C119.252 100.948 118.383 101.816 117.312 101.816H117.311C116.24 101.816 115.371 100.948 115.371 99.8764C115.371 98.805 116.24 97.9365 117.311 97.9365Z" fill="#3E414C"/>
<path fill-rule="evenodd" clip-rule="evenodd" d="M117.311 101.816H117.312C118.383 101.816 119.252 102.685 119.252 103.756C119.252 104.828 118.383 105.696 117.312 105.696H117.311C116.24 105.696 115.371 104.828 115.371 103.756C115.371 102.685 116.24 101.816 117.311 101.816Z" fill="#3E414C"/>
<path fill-rule="evenodd" clip-rule="evenodd" d="M117.311 105.695H117.312C118.383 105.695 119.252 106.564 119.252 107.635C119.252 108.707 118.383 109.575 117.312 109.575H117.311C116.24 109.575 115.371 108.707 115.371 107.635C115.371 106.564 116.24 105.695 117.311 105.695Z" fill="#3E414C"/>
<path fill-rule="evenodd" clip-rule="evenodd" d="M117.311 121.214H117.312C118.383 121.214 119.252 122.082 119.252 123.154C119.252 124.225 118.383 125.094 117.312 125.094H117.311C116.24 125.094 115.371 124.225 115.371 123.154C115.371 122.082 116.24 121.214 117.311 121.214Z" fill="#3E414C"/>
<path fill-rule="evenodd" clip-rule="evenodd" d="M117.311 136.733H117.312C118.383 136.733 119.252 137.602 119.252 138.673C119.252 139.745 118.383 140.613 117.312 140.613H117.311C116.24 140.613 115.371 139.745 115.371 138.673C115.371 137.602 116.24 136.733 117.311 136.733Z" fill="#3E414C"/>
<path fill-rule="evenodd" clip-rule="evenodd" d="M117.311 140.612H117.312C118.383 140.612 119.252 141.481 119.252 142.552C119.252 143.624 118.383 144.492 117.312 144.492H117.311C116.24 144.492 115.371 143.624 115.371 142.552C115.371 141.481 116.24 140.612 117.311 140.612Z" fill="#3E414C"/>
<path fill-rule="evenodd" clip-rule="evenodd" d="M117.311 144.493H117.312C118.383 144.493 119.252 145.362 119.252 146.433C119.252 147.504 118.383 148.373 117.312 148.373H117.311C116.24 148.373 115.371 147.504 115.371 146.433C115.371 145.362 116.24 144.493 117.311 144.493Z" fill="#3E414C"/>
<path d="M121.193 86.2969H121.192C120.12 86.2969 119.252 87.1654 119.252 88.2367C119.252 89.3081 120.12 90.1766 121.192 90.1766H121.193C122.264 90.1766 123.133 89.3081 123.133 88.2367C123.133 87.1654 122.264 86.2969 121.193 86.2969Z" fill="#3E414C"/>
<path d="M121.193 90.1768H121.192C120.12 90.1768 119.252 91.0453 119.252 92.1166C119.252 93.188 120.12 94.0565 121.192 94.0565H121.193C122.264 94.0565 123.133 93.188 123.133 92.1166C123.133 91.0453 122.264 90.1768 121.193 90.1768Z" fill="#3E414C"/>
<path d="M121.193 94.0557H121.192C120.12 94.0557 119.252 94.9242 119.252 95.9955C119.252 97.0669 120.12 97.9354 121.192 97.9354H121.193C122.264 97.9354 123.133 97.0669 123.133 95.9955C123.133 94.9242 122.264 94.0557 121.193 94.0557Z" fill="#3E414C"/>
<path d="M121.193 101.816H121.192C120.12 101.816 119.252 102.685 119.252 103.756C119.252 104.828 120.12 105.696 121.192 105.696H121.193C122.264 105.696 123.133 104.828 123.133 103.756C123.133 102.685 122.264 101.816 121.193 101.816Z" fill="#3E414C"/>
<path d="M121.193 117.335H121.192C120.12 117.335 119.252 118.203 119.252 119.275C119.252 120.346 120.12 121.215 121.192 121.215H121.193C122.264 121.215 123.133 120.346 123.133 119.275C123.133 118.203 122.264 117.335 121.193 117.335Z" fill="#3E414C"/>
<path d="M121.193 121.214H121.192C120.12 121.214 119.252 122.082 119.252 123.154C119.252 124.225 120.12 125.094 121.192 125.094H121.193C122.264 125.094 123.133 124.225 123.133 123.154C123.133 122.082 122.264 121.214 121.193 121.214Z" fill="#3E414C"/>
<path d="M121.193 128.975H121.192C120.12 128.975 119.252 129.843 119.252 130.914C119.252 131.986 120.12 132.854 121.192 132.854H121.193C122.264 132.854 123.133 131.986 123.133 130.914C123.133 129.843 122.264 128.975 121.193 128.975Z" fill="#3E414C"/>
<path d="M121.193 136.733H121.192C120.12 136.733 119.252 137.602 119.252 138.673C119.252 139.745 120.12 140.613 121.192 140.613H121.193C122.264 140.613 123.133 139.745 123.133 138.673C123.133 137.602 122.264 136.733 121.193 136.733Z" fill="#3E414C"/>
<path d="M121.193 148.372H121.192C120.12 148.372 119.252 149.241 119.252 150.312C119.252 151.383 120.12 152.252 121.192 152.252H121.193C122.264 152.252 123.133 151.383 123.133 150.312C123.133 149.241 122.264 148.372 121.193 148.372Z" fill="#3E414C"/>
<path d="M121.193 152.252H121.192C120.12 152.252 119.252 153.12 119.252 154.192C119.252 155.263 120.12 156.132 121.192 156.132H121.193C122.264 156.132 123.133 155.263 123.133 154.192C123.133 153.12 122.264 152.252 121.193 152.252Z" fill="#3E414C"/>
<path d="M125.074 78.5371H125.073C124.001 78.5371 123.133 79.4056 123.133 80.477C123.133 81.5483 124.001 82.4168 125.073 82.4168H125.074C126.145 82.4168 127.013 81.5483 127.013 80.477C127.013 79.4056 126.145 78.5371 125.074 78.5371Z" fill="#3E414C"/>
<path d="M125.074 82.418H125.073C124.001 82.418 123.133 83.2865 123.133 84.3578C123.133 85.4292 124.001 86.2977 125.073 86.2977H125.074C126.145 86.2977 127.013 85.4292 127.013 84.3578C127.013 83.2865 126.145 82.418 125.074 82.418Z" fill="#3E414C"/>
<path d="M125.074 86.2969H125.073C124.001 86.2969 123.133 87.1654 123.133 88.2367C123.133 89.3081 124.001 90.1766 125.073 90.1766H125.074C126.145 90.1766 127.013 89.3081 127.013 88.2367C127.013 87.1654 126.145 86.2969 125.074 86.2969Z" fill="#3E414C"/>
<path d="M125.074 94.0557H125.073C124.001 94.0557 123.133 94.9242 123.133 95.9955C123.133 97.0669 124.001 97.9354 125.073 97.9354H125.074C126.145 97.9354 127.013 97.0669 127.013 95.9955C127.013 94.9242 126.145 94.0557 125.074 94.0557Z" fill="#3E414C"/>
<path d="M125.074 101.816H125.073C124.001 101.816 123.133 102.685 123.133 103.756C123.133 104.828 124.001 105.696 125.073 105.696H125.074C126.145 105.696 127.013 104.828 127.013 103.756C127.013 102.685 126.145 101.816 125.074 101.816Z" fill="#3E414C"/>
<path d="M125.074 121.214H125.073C124.001 121.214 123.133 122.082 123.133 123.154C123.133 124.225 124.001 125.094 125.073 125.094H125.074C126.145 125.094 127.013 124.225 127.013 123.154C127.013 122.082 126.145 121.214 125.074 121.214Z" fill="#3E414C"/>
<path d="M125.074 136.733H125.073C124.001 136.733 123.133 137.602 123.133 138.673C123.133 139.745 124.001 140.613 125.073 140.613H125.074C126.145 140.613 127.013 139.745 127.013 138.673C127.013 137.602 126.145 136.733 125.074 136.733Z" fill="#3E414C"/>
<path d="M125.074 144.493H125.073C124.001 144.493 123.133 145.362 123.133 146.433C123.133 147.504 124.001 148.373 125.073 148.373H125.074C126.145 148.373 127.013 147.504 127.013 146.433C127.013 145.362 126.145 144.493 125.074 144.493Z" fill="#3E414C"/>
<path d="M125.074 152.252H125.073C124.001 152.252 123.133 153.12 123.133 154.192C123.133 155.263 124.001 156.132 125.073 156.132H125.074C126.145 156.132 127.013 155.263 127.013 154.192C127.013 153.12 126.145 152.252 125.074 152.252Z" fill="#3E414C"/>
<path d="M128.954 74.6582H128.953C127.882 74.6582 127.013 75.5267 127.013 76.5981C127.013 77.6694 127.882 78.5379 128.953 78.5379H128.954C130.026 78.5379 130.894 77.6694 130.894 76.5981C130.894 75.5267 130.026 74.6582 128.954 74.6582Z" fill="#3E414C"/>
<path d="M128.954 78.5371H128.953C127.882 78.5371 127.013 79.4056 127.013 80.477C127.013 81.5483 127.882 82.4168 128.953 82.4168H128.954C130.026 82.4168 130.894 81.5483 130.894 80.477C130.894 79.4056 130.026 78.5371 128.954 78.5371Z" fill="#3E414C"/>
<path d="M128.954 82.418H128.953C127.882 82.418 127.013 83.2865 127.013 84.3578C127.013 85.4292 127.882 86.2977 128.953 86.2977H128.954C130.026 86.2977 130.894 85.4292 130.894 84.3578C130.894 83.2865 130.026 82.418 128.954 82.418Z" fill="#3E414C"/>
<path d="M128.954 86.2969H128.953C127.882 86.2969 127.013 87.1654 127.013 88.2367C127.013 89.3081 127.882 90.1766 128.953 90.1766H128.954C130.026 90.1766 130.894 89.3081 130.894 88.2367C130.894 87.1654 130.026 86.2969 128.954 86.2969Z" fill="#3E414C"/>
<path d="M128.954 94.0557H128.953C127.882 94.0557 127.013 94.9242 127.013 95.9955C127.013 97.0669 127.882 97.9354 128.953 97.9354H128.954C130.026 97.9354 130.894 97.0669 130.894 95.9955C130.894 94.9242 130.026 94.0557 128.954 94.0557Z" fill="#3E414C"/>
<path d="M128.954 97.9365H128.953C127.882 97.9365 127.013 98.805 127.013 99.8764C127.013 100.948 127.882 101.816 128.953 101.816H128.954C130.026 101.816 130.894 100.948 130.894 99.8764C130.894 98.805 130.026 97.9365 128.954 97.9365Z" fill="#3E414C"/>
<path d="M128.954 101.816H128.953C127.882 101.816 127.013 102.685 127.013 103.756C127.013 104.828 127.882 105.696 128.953 105.696H128.954C130.026 105.696 130.894 104.828 130.894 103.756C130.894 102.685 130.026 101.816 128.954 101.816Z" fill="#3E414C"/>
<path d="M128.954 109.575H128.953C127.882 109.575 127.013 110.444 127.013 111.515C127.013 112.586 127.882 113.455 128.953 113.455H128.954C130.026 113.455 130.894 112.586 130.894 111.515C130.894 110.444 130.026 109.575 128.954 109.575Z" fill="#3E414C"/>
<path d="M128.954 113.455H128.953C127.882 113.455 127.013 114.324 127.013 115.395C127.013 116.466 127.882 117.335 128.953 117.335H128.954C130.026 117.335 130.894 116.466 130.894 115.395C130.894 114.324 130.026 113.455 128.954 113.455Z" fill="#3E414C"/>
<path d="M128.954 121.214H128.953C127.882 121.214 127.013 122.082 127.013 123.154C127.013 124.225 127.882 125.094 128.953 125.094H128.954C130.026 125.094 130.894 124.225 130.894 123.154C130.894 122.082 130.026 121.214 128.954 121.214Z" fill="#3E414C"/>
<path d="M128.954 125.094H128.953C127.882 125.094 127.013 125.962 127.013 127.034C127.013 128.105 127.882 128.973 128.953 128.973H128.954C130.026 128.973 130.894 128.105 130.894 127.034C130.894 125.962 130.026 125.094 128.954 125.094Z" fill="#3E414C"/>
<path d="M128.954 128.975H128.953C127.882 128.975 127.013 129.843 127.013 130.914C127.013 131.986 127.882 132.854 128.953 132.854H128.954C130.026 132.854 130.894 131.986 130.894 130.914C130.894 129.843 130.026 128.975 128.954 128.975Z" fill="#3E414C"/>
<path d="M128.954 132.854H128.953C127.882 132.854 127.013 133.722 127.013 134.793C127.013 135.865 127.882 136.733 128.953 136.733H128.954C130.026 136.733 130.894 135.865 130.894 134.793C130.894 133.722 130.026 132.854 128.954 132.854Z" fill="#3E414C"/>
<path d="M128.954 136.733H128.953C127.882 136.733 127.013 137.602 127.013 138.673C127.013 139.745 127.882 140.613 128.953 140.613H128.954C130.026 140.613 130.894 139.745 130.894 138.673C130.894 137.602 130.026 136.733 128.954 136.733Z" fill="#3E414C"/>
<path d="M128.954 144.493H128.953C127.882 144.493 127.013 145.362 127.013 146.433C127.013 147.504 127.882 148.373 128.953 148.373H128.954C130.026 148.373 130.894 147.504 130.894 146.433C130.894 145.362 130.026 144.493 128.954 144.493Z" fill="#3E414C"/>
<path d="M128.954 152.252H128.953C127.882 152.252 127.013 153.12 127.013 154.192C127.013 155.263 127.882 156.132 128.953 156.132H128.954C130.026 156.132 130.894 155.263 130.894 154.192C130.894 153.12 130.026 152.252 128.954 152.252Z" fill="#3E414C"/>
<path d="M132.835 86.2969H132.834C131.763 86.2969 130.894 87.1654 130.894 88.2367C130.894 89.3081 131.763 90.1766 132.834 90.1766H132.835C133.906 90.1766 134.775 89.3081 134.775 88.2367C134.775 87.1654 133.906 86.2969 132.835 86.2969Z" fill="#3E414C"/>
<path d="M132.835 94.0557H132.834C131.763 94.0557 130.894 94.9242 130.894 95.9955C130.894 97.0669 131.763 97.9354 132.834 97.9354H132.835C133.906 97.9354 134.775 97.0669 134.775 95.9955C134.775 94.9242 133.906 94.0557 132.835 94.0557Z" fill="#3E414C"/>
<path d="M132.835 105.695H132.834C131.763 105.695 130.894 106.564 130.894 107.635C130.894 108.707 131.763 109.575 132.834 109.575H132.835C133.906 109.575 134.775 108.707 134.775 107.635C134.775 106.564 133.906 105.695 132.835 105.695Z" fill="#3E414C"/>
<path d="M132.835 113.455H132.834C131.763 113.455 130.894 114.324 130.894 115.395C130.894 116.466 131.763 117.335 132.834 117.335H132.835C133.906 117.335 134.775 116.466 134.775 115.395C134.775 114.324 133.906 113.455 132.835 113.455Z" fill="#3E414C"/>
<path d="M132.835 117.335H132.834C131.763 117.335 130.894 118.203 130.894 119.275C130.894 120.346 131.763 121.215 132.834 121.215H132.835C133.906 121.215 134.775 120.346 134.775 119.275C134.775 118.203 133.906 117.335 132.835 117.335Z" fill="#3E414C"/>
<path d="M132.835 121.214H132.834C131.763 121.214 130.894 122.082 130.894 123.154C130.894 124.225 131.763 125.094 132.834 125.094H132.835C133.906 125.094 134.775 124.225 134.775 123.154C134.775 122.082 133.906 121.214 132.835 121.214Z" fill="#3E414C"/>
<path d="M132.835 125.094H132.834C131.763 125.094 130.894 125.962 130.894 127.034C130.894 128.105 131.763 128.973 132.834 128.973H132.835C133.906 128.973 134.775 128.105 134.775 127.034C134.775 125.962 133.906 125.094 132.835 125.094Z" fill="#3E414C"/>
<path d="M132.835 128.975H132.834C131.763 128.975 130.894 129.843 130.894 130.914C130.894 131.986 131.763 132.854 132.834 132.854H132.835C133.906 132.854 134.775 131.986 134.775 130.914C134.775 129.843 133.906 128.975 132.835 128.975Z" fill="#3E414C"/>
<path d="M132.835 136.733H132.834C131.763 136.733 130.894 137.602 130.894 138.673C130.894 139.745 131.763 140.613 132.834 140.613H132.835C133.906 140.613 134.775 139.745 134.775 138.673C134.775 137.602 133.906 136.733 132.835 136.733Z" fill="#3E414C"/>
<path d="M132.835 148.372H132.834C131.763 148.372 130.894 149.241 130.894 150.312C130.894 151.383 131.763 152.252 132.834 152.252H132.835C133.906 152.252 134.775 151.383 134.775 150.312C134.775 149.241 133.906 148.372 132.835 148.372Z" fill="#3E414C"/>
<path d="M136.716 74.6582H136.715C135.643 74.6582 134.775 75.5267 134.775 76.5981C134.775 77.6694 135.643 78.5379 136.715 78.5379H136.716C137.787 78.5379 138.656 77.6694 138.656 76.5981C138.656 75.5267 137.787 74.6582 136.716 74.6582Z" fill="#3E414C"/>
<path d="M136.716 78.5371H136.715C135.643 78.5371 134.775 79.4056 134.775 80.477C134.775 81.5483 135.643 82.4168 136.715 82.4168H136.716C137.787 82.4168 138.656 81.5483 138.656 80.477C138.656 79.4056 137.787 78.5371 136.716 78.5371Z" fill="#3E414C"/>
<path d="M136.716 82.418H136.715C135.643 82.418 134.775 83.2865 134.775 84.3578C134.775 85.4292 135.643 86.2977 136.715 86.2977H136.716C137.787 86.2977 138.656 85.4292 138.656 84.3578C138.656 83.2865 137.787 82.418 136.716 82.418Z" fill="#3E414C"/>
<path d="M136.716 94.0557H136.715C135.643 94.0557 134.775 94.9242 134.775 95.9955C134.775 97.0669 135.643 97.9354 136.715 97.9354H136.716C137.787 97.9354 138.656 97.0669 138.656 95.9955C138.656 94.9242 137.787 94.0557 136.716 94.0557Z" fill="#3E414C"/>
<path d="M136.716 97.9365H136.715C135.643 97.9365 134.775 98.805 134.775 99.8764C134.775 100.948 135.643 101.816 136.715 101.816H136.716C137.787 101.816 138.656 100.948 138.656 99.8764C138.656 98.805 137.787 97.9365 136.716 97.9365Z" fill="#3E414C"/>
<path d="M136.716 101.816H136.715C135.643 101.816 134.775 102.685 134.775 103.756C134.775 104.828 135.643 105.696 136.715 105.696H136.716C137.787 105.696 138.656 104.828 138.656 103.756C138.656 102.685 137.787 101.816 136.716 101.816Z" fill="#3E414C"/>
<path d="M136.716 109.575H136.715C135.643 109.575 134.775 110.444 134.775 111.515C134.775 112.586 135.643 113.455 136.715 113.455H136.716C137.787 113.455 138.656 112.586 138.656 111.515C138.656 110.444 137.787 109.575 136.716 109.575Z" fill="#3E414C"/>
<path d="M136.716 117.335H136.715C135.643 117.335 134.775 118.203 134.775 119.275C134.775 120.346 135.643 121.215 136.715 121.215H136.716C137.787 121.215 138.656 120.346 138.656 119.275C138.656 118.203 137.787 117.335 136.716 117.335Z" fill="#3E414C"/>
<path d="M136.716 121.214H136.715C135.643 121.214 134.775 122.082 134.775 123.154C134.775 124.225 135.643 125.094 136.715 125.094H136.716C137.787 125.094 138.656 124.225 138.656 123.154C138.656 122.082 137.787 121.214 136.716 121.214Z" fill="#3E414C"/>
<path d="M136.716 144.493H136.715C135.643 144.493 134.775 145.362 134.775 146.433C134.775 147.504 135.643 148.373 136.715 148.373H136.716C137.787 148.373 138.656 147.504 138.656 146.433C138.656 145.362 137.787 144.493 136.716 144.493Z" fill="#3E414C"/>
<path d="M136.716 148.372H136.715C135.643 148.372 134.775 149.241 134.775 150.312C134.775 151.383 135.643 152.252 136.715 152.252H136.716C137.787 152.252 138.656 151.383 138.656 150.312C138.656 149.241 137.787 148.372 136.716 148.372Z" fill="#3E414C"/>
<path d="M140.597 74.6582H140.596C139.524 74.6582 138.656 75.5267 138.656 76.5981C138.656 77.6694 139.524 78.5379 140.596 78.5379H140.597C141.668 78.5379 142.536 77.6694 142.536 76.5981C142.536 75.5267 141.668 74.6582 140.597 74.6582Z" fill="#3E414C"/>
<path d="M140.597 78.5371H140.596C139.524 78.5371 138.656 79.4056 138.656 80.477C138.656 81.5483 139.524 82.4168 140.596 82.4168H140.597C141.668 82.4168 142.536 81.5483 142.536 80.477C142.536 79.4056 141.668 78.5371 140.597 78.5371Z" fill="#3E414C"/>
<path d="M140.597 94.0557H140.596C139.524 94.0557 138.656 94.9242 138.656 95.9955C138.656 97.0669 139.524 97.9354 140.596 97.9354H140.597C141.668 97.9354 142.536 97.0669 142.536 95.9955C142.536 94.9242 141.668 94.0557 140.597 94.0557Z" fill="#3E414C"/>
<path d="M140.597 109.575H140.596C139.524 109.575 138.656 110.444 138.656 111.515C138.656 112.586 139.524 113.455 140.596 113.455H140.597C141.668 113.455 142.536 112.586 142.536 111.515C142.536 110.444 141.668 109.575 140.597 109.575Z" fill="#3E414C"/>
<path d="M140.597 121.214H140.596C139.524 121.214 138.656 122.082 138.656 123.154C138.656 124.225 139.524 125.094 140.596 125.094H140.597C141.668 125.094 142.536 124.225 142.536 123.154C142.536 122.082 141.668 121.214 140.597 121.214Z" fill="#3E414C"/>
<path d="M140.597 140.612H140.596C139.524 140.612 138.656 141.481 138.656 142.552C138.656 143.624 139.524 144.492 140.596 144.492H140.597C141.668 144.492 142.536 143.624 142.536 142.552C142.536 141.481 141.668 140.612 140.597 140.612Z" fill="#3E414C"/>
<path d="M140.597 144.493H140.596C139.524 144.493 138.656 145.362 138.656 146.433C138.656 147.504 139.524 148.373 140.596 148.373H140.597C141.668 148.373 142.536 147.504 142.536 146.433C142.536 145.362 141.668 144.493 140.597 144.493Z" fill="#3E414C"/>
<path d="M144.477 74.6582H144.476C143.405 74.6582 142.536 75.5267 142.536 76.5981C142.536 77.6694 143.405 78.5379 144.476 78.5379H144.477C145.549 78.5379 146.417 77.6694 146.417 76.5981C146.417 75.5267 145.549 74.6582 144.477 74.6582Z" fill="#3E414C"/>
<path d="M144.477 86.2969H144.476C143.405 86.2969 142.536 87.1654 142.536 88.2367C142.536 89.3081 143.405 90.1766 144.476 90.1766H144.477C145.549 90.1766 146.417 89.3081 146.417 88.2367C146.417 87.1654 145.549 86.2969 144.477 86.2969Z" fill="#3E414C"/>
<path d="M144.477 90.1768H144.476C143.405 90.1768 142.536 91.0453 142.536 92.1166C142.536 93.188 143.405 94.0565 144.476 94.0565H144.477C145.549 94.0565 146.417 93.188 146.417 92.1166C146.417 91.0453 145.549 90.1768 144.477 90.1768Z" fill="#3E414C"/>
<path d="M144.477 94.0557H144.476C143.405 94.0557 142.536 94.9242 142.536 95.9955C142.536 97.0669 143.405 97.9354 144.476 97.9354H144.477C145.549 97.9354 146.417 97.0669 146.417 95.9955C146.417 94.9242 145.549 94.0557 144.477 94.0557Z" fill="#3E414C"/>
<path d="M144.477 97.9365H144.476C143.405 97.9365 142.536 98.805 142.536 99.8764C142.536 100.948 143.405 101.816 144.476 101.816H144.477C145.549 101.816 146.417 100.948 146.417 99.8764C146.417 98.805 145.549 97.9365 144.477 97.9365Z" fill="#3E414C"/>
<path d="M144.477 101.816H144.476C143.405 101.816 142.536 102.685 142.536 103.756C142.536 104.828 143.405 105.696 144.476 105.696H144.477C145.549 105.696 146.417 104.828 146.417 103.756C146.417 102.685 145.549 101.816 144.477 101.816Z" fill="#3E414C"/>
<path d="M144.477 113.455H144.476C143.405 113.455 142.536 114.324 142.536 115.395C142.536 116.466 143.405 117.335 144.476 117.335H144.477C145.549 117.335 146.417 116.466 146.417 115.395C146.417 114.324 145.549 113.455 144.477 113.455Z" fill="#3E414C"/>
<path d="M144.477 132.854H144.476C143.405 132.854 142.536 133.722 142.536 134.793C142.536 135.865 143.405 136.733 144.476 136.733H144.477C145.549 136.733 146.417 135.865 146.417 134.793C146.417 133.722 145.549 132.854 144.477 132.854Z" fill="#3E414C"/>
<path d="M144.477 144.493H144.476C143.405 144.493 142.536 145.362 142.536 146.433C142.536 147.504 143.405 148.373 144.476 148.373H144.477C145.549 148.373 146.417 147.504 146.417 146.433C146.417 145.362 145.549 144.493 144.477 144.493Z" fill="#3E414C"/>
<path d="M144.477 148.372H144.476C143.405 148.372 142.536 149.241 142.536 150.312C142.536 151.383 143.405 152.252 144.476 152.252H144.477C145.549 152.252 146.417 151.383 146.417 150.312C146.417 149.241 145.549 148.372 144.477 148.372Z" fill="#3E414C"/>
<path d="M90.3492 109.265C95.4142 109.265 99.5202 105.159 99.5202 100.094C99.5202 95.0288 95.4142 90.9229 90.3492 90.9229C85.2842 90.9229 81.1782 95.0288 81.1782 100.094C81.1782 105.159 85.2842 109.265 90.3492 109.265Z" fill="#F7931A"/>
<mask id="mask0_58_691" style="mask-type:luminance" maskUnits="userSpaceOnUse" x="81" y="90" width="19" height="20">
<path d="M90.3492 109.264C95.4142 109.264 99.5202 105.158 99.5202 100.093C99.5202 95.0279 95.4142 90.9219 90.3492 90.9219C85.2842 90.9219 81.1782 95.0279 81.1782 100.093C81.1782 105.158 85.2842 109.264 90.3492 109.264Z" fill="white"/>
</mask>
<g mask="url(#mask0_58_691)">
<path fill-rule="evenodd" clip-rule="evenodd" d="M92.5275 99.0432C92.2799 100.048 90.6527 99.5622 90.1222 99.4381L90.5704 97.6547C91.089 97.7789 92.7868 97.9935 92.5275 99.0432ZM92.268 101.921C91.997 103.028 90.0396 102.452 89.4148 102.305L89.8983 100.341C90.5348 100.488 92.5509 100.759 92.268 101.921ZM94.3667 99.0432C94.52 97.9594 93.6593 97.3951 92.4802 97.0113L92.8458 95.544L91.9144 95.3296L91.5608 96.7631C91.3132 96.7066 91.0656 96.6501 90.818 96.6051L91.1716 95.1714L90.2285 94.957L89.8629 96.4245C89.6624 96.3793 89.462 96.3454 89.2615 96.3002L87.9765 96.0069L87.7405 96.9551C87.7405 96.9551 88.4363 97.1016 88.4127 97.113C88.7899 97.2033 88.8606 97.4403 88.8489 97.6209L88.4363 99.2914C88.4597 99.3028 88.4953 99.3028 88.5306 99.3252C88.4953 99.314 88.4717 99.314 88.4363 99.3028L87.8702 101.639C87.8232 101.752 87.7052 101.91 87.4459 101.854C87.4576 101.865 86.7621 101.696 86.7621 101.696L86.3139 102.723L87.5283 102.994C87.7525 103.05 87.9765 103.095 88.1887 103.152L87.8232 104.63L88.7546 104.845L89.1201 103.378C89.3794 103.445 89.627 103.502 89.8629 103.558L89.4974 105.014L90.4288 105.229L90.7943 103.75C92.3859 104.021 93.5766 103.897 94.0601 102.508C94.4493 101.402 94.0248 100.77 93.176 100.352C93.8009 100.217 94.2488 99.8334 94.3667 99.0432Z" fill="white"/>
</g>
<path d="M26.4364 16.2861H19.5713C19.3401 16.2861 19.1527 16.4735 19.1527 16.7047V25.5792C19.1527 25.8103 19.3401 25.9978 19.5713 25.9978H26.4364C26.6676 25.9978 26.855 25.8103 26.855 25.5792V16.7047C26.855 16.4735 26.6676 16.2861 26.4364 16.2861Z" stroke="#5070F8" stroke-width="1.30814"/>
<path d="M24.2824 14.0264H16.7462V22.6869" stroke="#5070F8" stroke-width="1.30814" stroke-linecap="round" stroke-linejoin="round"/>
</svg>
