<svg width="180" height="187" viewBox="0 0 180 187" fill="none" xmlns="http://www.w3.org/2000/svg">
<path d="M5.58816 0.421875H174.416C177.501 0.421875 180.002 2.92291 180.002 6.00808V181.115C180.002 184.2 177.501 186.701 174.416 186.701H5.58816C2.50298 186.701 0.00195313 184.2 0.00195312 181.115V6.00808C0.00195312 2.92291 2.50298 0.421875 5.58816 0.421875Z" fill="black"/>
<path d="M5.58816 0.421875H174.416C177.501 0.421875 180.002 2.92291 180.002 6.00808V181.115C180.002 184.2 177.501 186.701 174.416 186.701H5.58816C2.50298 186.701 0.00195313 184.2 0.00195312 181.115V6.00808C0.00195312 2.92291 2.50298 0.421875 5.58816 0.421875Z" fill="white"/>
<path d="M5.58816 0.945131H174.416C177.212 0.945131 179.479 3.21189 179.479 6.00808V181.115C179.479 183.911 177.212 186.178 174.416 186.178H5.58816C2.79197 186.178 0.525209 183.911 0.525209 181.115V6.00808C0.525209 3.21189 2.79197 0.945131 5.58816 0.945131Z" stroke="black" stroke-opacity="0.1" stroke-width="1.04651"/>
<path d="M122.444 118.678H58.6066C54.5608 118.678 51.281 121.958 51.281 126.003C51.281 130.049 54.5608 133.329 58.6066 133.329H122.444C126.49 133.329 129.769 130.049 129.769 126.003C129.769 121.958 126.49 118.678 122.444 118.678Z" fill="#EBEBEB"/>
<path d="M62.3108 128.471V126.488H64.0492V125.449H62.3108V123.596H61.2071V125.449H59.4595V126.488H61.2071V128.471H62.3108ZM69.8255 130.117V129.22C70.3865 129.159 70.8273 128.97 71.1476 128.652C71.468 128.335 71.6282 127.911 71.6282 127.381C71.6282 127.013 71.5531 126.701 71.4029 126.445C71.2527 126.189 71.0396 125.973 70.7636 125.799C70.4877 125.624 70.1336 125.458 69.7013 125.302C69.4192 125.198 69.1985 125.094 69.039 124.991C68.8796 124.889 68.7654 124.775 68.6964 124.651C68.6274 124.527 68.5929 124.378 68.5929 124.203C68.5929 123.924 68.6696 123.702 68.8229 123.538C68.9762 123.374 69.2061 123.292 69.5127 123.292C69.8101 123.292 70.0424 123.401 70.2095 123.619C70.3766 123.836 70.4601 124.137 70.4601 124.52H71.6052C71.6052 123.907 71.4565 123.415 71.1591 123.044C70.8617 122.673 70.4494 122.451 69.922 122.377V121.365H69.1862V122.368C68.8367 122.408 68.5316 122.507 68.271 122.667C68.0104 122.826 67.8088 123.038 67.6663 123.301C67.5237 123.565 67.4524 123.867 67.4524 124.207C67.4524 124.578 67.5298 124.893 67.6847 125.15C67.8395 125.408 68.0564 125.624 68.3354 125.799C68.6144 125.973 68.9685 126.134 69.3978 126.281C69.7933 126.419 70.0738 126.574 70.2394 126.744C70.4049 126.914 70.4877 127.129 70.4877 127.39C70.4877 127.669 70.3965 127.89 70.2141 128.052C70.0316 128.215 69.7733 128.296 69.4391 128.296C69.1295 128.296 68.8689 128.203 68.6573 128.018C68.4458 127.832 68.34 127.525 68.34 127.095H67.1949C67.1949 127.552 67.2815 127.933 67.4547 128.238C67.6279 128.543 67.8571 128.774 68.1422 128.93C68.4274 129.087 68.7447 129.183 69.0942 129.22V130.117H69.8255ZM75.6477 129.142V122.423H75.5051L72.8699 123.389V124.345L74.5026 123.798V129.142H75.6477ZM80.0213 129.234C80.4536 129.234 80.8414 129.157 81.1848 129.002C81.5282 128.847 81.798 128.621 81.9942 128.323C82.1904 128.026 82.2886 127.673 82.2886 127.266C82.2886 126.907 82.1966 126.59 82.0126 126.314C81.8287 126.038 81.5451 125.834 81.1618 125.702C81.4899 125.555 81.7428 125.348 81.9206 125.081C82.0985 124.814 82.1874 124.54 82.1874 124.258C82.1874 123.847 82.0977 123.499 81.9183 123.214C81.739 122.929 81.4868 122.714 81.1618 122.57C80.8368 122.426 80.4566 122.354 80.0213 122.354C79.6166 122.354 79.251 122.433 78.9244 122.591C78.5979 122.749 78.3427 122.967 78.1587 123.246C77.9748 123.525 77.8828 123.839 77.8828 124.189H79.0279C79.0279 124.005 79.0716 123.844 79.159 123.706C79.2464 123.568 79.3667 123.462 79.52 123.386C79.6733 123.311 79.8465 123.274 80.0397 123.274C80.3708 123.274 80.6207 123.36 80.7893 123.531C80.9579 123.703 81.0422 123.945 81.0422 124.258C81.0422 124.568 80.9472 124.814 80.7571 124.998C80.567 125.182 80.2896 125.274 79.9247 125.274H79.2579V126.176H79.9247C80.311 126.176 80.6107 126.265 80.8238 126.442C81.0369 126.62 81.1434 126.893 81.1434 127.261C81.1434 127.595 81.0461 127.854 80.8514 128.038C80.6567 128.222 80.3861 128.314 80.0397 128.314C79.8251 128.314 79.6365 128.274 79.474 128.192C79.3115 128.111 79.1858 127.996 79.0969 127.847C79.008 127.699 78.9635 127.529 78.9635 127.339H77.8184C77.8184 127.741 77.9188 128.084 78.1196 128.369C78.3204 128.655 78.5887 128.87 78.9244 129.016C79.2602 129.161 79.6258 129.234 80.0213 129.234ZM85.6182 129.234C86.0658 129.234 86.4544 129.134 86.784 128.935C87.1136 128.736 87.3658 128.462 87.5405 128.114C87.7153 127.766 87.8027 127.376 87.8027 126.944C87.8027 126.539 87.7321 126.167 87.5911 125.826C87.4501 125.486 87.2355 125.213 86.9473 125.008C86.6591 124.802 86.3065 124.699 85.8895 124.699C85.6136 124.699 85.3591 124.747 85.1261 124.842C84.8931 124.937 84.6923 125.075 84.5236 125.256C84.5666 124.885 84.6731 124.558 84.8433 124.274C85.0134 123.99 85.2564 123.766 85.5722 123.6C85.888 123.435 86.2758 123.352 86.7357 123.352H86.8139V122.409H86.6759C85.9125 122.409 85.2825 122.576 84.7858 122.91C84.2891 123.245 83.9258 123.693 83.6958 124.256C83.4659 124.818 83.3509 125.452 83.3509 126.157V126.603C83.3509 127.082 83.4406 127.521 83.6199 127.921C83.7993 128.321 84.0607 128.64 84.4041 128.878C84.7474 129.115 85.1522 129.234 85.6182 129.234ZM85.6044 128.31C85.399 128.31 85.2127 128.248 85.0456 128.126C84.8785 128.003 84.7459 127.821 84.6478 127.581C84.5497 127.34 84.5006 127.05 84.5006 126.709V126.355C84.5865 126.144 84.729 125.969 84.9283 125.831C85.1276 125.693 85.3514 125.624 85.5998 125.624C85.8236 125.624 86.016 125.684 86.1769 125.803C86.3379 125.923 86.4598 126.085 86.5426 126.288C86.6253 126.492 86.6667 126.72 86.6667 126.971C86.6667 127.232 86.6238 127.463 86.538 127.666C86.4521 127.868 86.3295 128.026 86.17 128.139C86.0106 128.253 85.8221 128.31 85.6044 128.31ZM89.4675 129.197C89.6698 129.197 89.8308 129.138 89.9504 129.02C90.0699 128.902 90.1297 128.753 90.1297 128.572C90.1297 128.388 90.0699 128.236 89.9504 128.116C89.8308 127.997 89.6698 127.937 89.4675 127.937C89.2621 127.937 89.0996 127.997 88.98 128.116C88.8604 128.236 88.8006 128.388 88.8006 128.572C88.8006 128.753 88.8604 128.902 88.98 129.02C89.0996 129.138 89.2621 129.197 89.4675 129.197ZM94.3791 129.142V122.423H94.2366L91.6014 123.389V124.345L93.234 123.798V129.142H94.3791ZM101.204 129.142V128.222H98.1227L99.5759 126.668C100.024 126.199 100.364 125.769 100.597 125.378C100.83 124.987 100.946 124.595 100.946 124.203C100.946 123.826 100.864 123.498 100.698 123.221C100.533 122.943 100.292 122.73 99.976 122.579C99.6602 122.429 99.2801 122.354 98.8355 122.354C98.3664 122.354 97.9602 122.449 97.6168 122.639C97.2734 122.829 97.0113 123.087 96.8304 123.412C96.6495 123.737 96.559 124.097 96.559 124.493H97.7042C97.7042 124.125 97.8 123.829 97.9916 123.607C98.1832 123.385 98.4599 123.274 98.8217 123.274C99.1283 123.274 99.3682 123.37 99.5414 123.564C99.7147 123.757 99.8013 124.01 99.8013 124.322C99.8013 124.476 99.7729 124.629 99.7162 124.782C99.6595 124.936 99.5637 125.108 99.4288 125.3C99.2939 125.491 99.1068 125.72 98.8677 125.987L96.6878 128.351V129.142H101.204ZM106.98 129.234C107.455 129.234 107.883 129.146 108.263 128.97C108.643 128.793 108.943 128.53 109.162 128.181C109.382 127.831 109.491 127.408 109.491 126.912V122.446H108.3V126.912C108.3 127.375 108.186 127.718 107.957 127.942C107.729 128.166 107.403 128.277 106.98 128.277C106.563 128.277 106.239 128.165 106.008 127.939C105.776 127.714 105.66 127.371 105.66 126.912V122.446H104.474V126.912C104.474 127.411 104.58 127.835 104.793 128.183C105.006 128.531 105.302 128.793 105.681 128.97C106.06 129.146 106.493 129.234 106.98 129.234ZM113.019 129.234C113.5 129.234 113.921 129.16 114.281 129.011C114.641 128.862 114.919 128.65 115.116 128.374C115.312 128.098 115.41 127.773 115.41 127.399C115.41 127.046 115.33 126.738 115.171 126.475C115.011 126.211 114.77 125.983 114.447 125.789C114.123 125.596 113.707 125.425 113.198 125.274C112.71 125.133 112.353 124.98 112.126 124.814C111.9 124.649 111.786 124.447 111.786 124.207C111.786 123.938 111.886 123.719 112.087 123.552C112.288 123.385 112.582 123.301 112.968 123.301C113.379 123.301 113.689 123.401 113.899 123.6C114.109 123.8 114.214 124.066 114.214 124.401H115.401C115.401 124.023 115.303 123.679 115.107 123.368C114.91 123.057 114.629 122.81 114.263 122.628C113.896 122.445 113.469 122.354 112.982 122.354C112.516 122.354 112.102 122.433 111.74 122.591C111.378 122.749 111.097 122.969 110.896 123.251C110.695 123.533 110.595 123.853 110.595 124.212C110.595 124.724 110.787 125.139 111.17 125.458C111.553 125.777 112.097 126.045 112.802 126.263C113.189 126.38 113.482 126.492 113.683 126.599C113.884 126.706 114.023 126.822 114.099 126.946C114.176 127.07 114.214 127.224 114.214 127.408C114.214 127.678 114.112 127.893 113.906 128.052C113.701 128.212 113.405 128.291 113.019 128.291C112.583 128.291 112.234 128.194 111.972 127.999C111.71 127.805 111.579 127.506 111.579 127.105H110.388C110.388 127.558 110.513 127.946 110.763 128.268C111.013 128.59 111.339 128.832 111.742 128.993C112.146 129.154 112.571 129.234 113.019 129.234ZM118.363 129.142C118.976 129.142 119.514 129.011 119.977 128.749C120.44 128.487 120.798 128.116 121.051 127.636C121.304 127.156 121.43 126.597 121.43 125.96V125.633C121.43 124.998 121.304 124.44 121.051 123.959C120.798 123.478 120.443 123.105 119.986 122.841C119.529 122.578 119.003 122.446 118.409 122.446H116.422V129.142H118.363ZM118.363 128.185H117.613V123.407H118.409C119 123.407 119.452 123.597 119.765 123.977C120.078 124.358 120.234 124.906 120.234 125.624V125.96C120.234 126.668 120.076 127.216 119.758 127.604C119.441 127.992 118.976 128.185 118.363 128.185Z" fill="#565D6E"/>
<path d="M110.237 69.508C110.237 68.3428 109.293 67.3982 108.127 67.3982H71.2065C69.4615 67.3982 68.0419 65.9787 68.0419 64.2336C68.0419 63.651 67.5696 63.1787 66.987 63.1787C66.4045 63.1787 65.9321 63.651 65.9321 64.2336V97.9899C65.9321 102.068 69.2381 105.374 73.3163 105.374H108.127C109.293 105.374 110.237 104.429 110.237 103.264V69.508Z" fill="#4F6EF7"/>
<path d="M113.402 81.1123H102.853C99.945 81.1123 97.5787 83.4786 97.5787 86.3867C97.5787 89.2949 99.945 91.6611 102.853 91.6611H113.402C113.985 91.6611 114.457 91.1888 114.457 90.6063V82.1672C114.457 81.5846 113.985 81.1123 113.402 81.1123Z" fill="#1A3B8B"/>
<path d="M69.0968 61.0693H98.6335C99.7987 61.0693 100.743 62.0139 100.743 63.1791V67.3986H69.0968C67.349 67.3986 65.9321 65.9818 65.9321 64.234C65.9321 62.4862 67.349 61.0693 69.0968 61.0693Z" fill="#1A3B8B"/>
<path d="M102.853 88.4959C104.018 88.4959 104.963 87.5513 104.963 86.3861C104.963 85.2209 104.018 84.2764 102.853 84.2764C101.688 84.2764 100.743 85.2209 100.743 86.3861C100.743 87.5513 101.688 88.4959 102.853 88.4959Z" fill="#98AAFA"/>
<path d="M101.095 45.4219H76.481V67.3986H101.095V45.4219Z" fill="#2FCFA4"/>
<path d="M101.095 45.4219H76.481V67.3986H101.095V45.4219Z" fill="#2FCFA4"/>
<mask id="mask0_58_1147" style="mask-type:luminance" maskUnits="userSpaceOnUse" x="76" y="45" width="26" height="23">
<path d="M101.095 45.4219H76.481V67.3986H101.095V45.4219Z" fill="white"/>
</mask>
<g mask="url(#mask0_58_1147)">
<path fill-rule="evenodd" clip-rule="evenodd" d="M91.9996 64.1541C91.4876 63.8574 90.7206 63.5529 89.7028 63.241V59.052C90.7132 59.1283 91.7081 59.3481 92.6864 59.7169L93.2118 58.4574C92.0842 58.0246 90.9142 57.7911 89.7028 57.7513V55.9707H88.225V57.7805C86.2832 58.0045 84.5844 58.9757 84.5844 60.813C84.5844 62.8918 86.1239 63.7199 88.225 64.3683V68.6268C87.0224 68.611 85.4792 68.2837 84.3927 67.8223V69.3224C85.4445 69.7858 87.0634 69.9476 88.225 69.9549V72.1456H89.7028V69.859C90.8972 69.706 91.8326 69.3533 92.5046 68.7981C93.1914 68.2309 93.535 67.5115 93.535 66.6394C93.535 65.5631 93.0969 64.7906 91.9996 64.1541ZM88.225 62.7659C87.0945 62.3549 86.292 61.9238 86.292 60.794C86.292 59.7785 87.1798 59.2837 88.225 59.1023V62.7659ZM89.7028 68.5203V64.8201C90.8968 65.2192 91.8178 65.6085 91.8178 66.765C91.8178 67.7334 91.1096 68.3167 89.7028 68.5203Z" fill="white"/>
</g>
</svg>
