<svg width="14" height="279" viewBox="0 0 14 279" fill="none" xmlns="http://www.w3.org/2000/svg">
<path opacity="0.6" d="M13 269.73L10.732 270.486V275.508L13 276.264V278.946L0.399999 274.536V271.458L13 267.03V269.73ZM8.41 274.716V271.26L3.262 272.988L8.41 274.716ZM0.399999 242.443C0.399999 240.715 1.006 239.275 2.218 238.123C3.43 236.959 4.924 236.377 6.7 236.377C8.476 236.377 9.97 236.959 11.182 238.123C12.394 239.275 13 240.715 13 242.443V247.447H0.399999V242.443ZM10.624 242.443C10.624 241.351 10.264 240.463 9.544 239.779C8.812 239.095 7.864 238.753 6.7 238.753C5.536 238.753 4.594 239.095 3.874 239.779C3.142 240.463 2.776 241.351 2.776 242.443V244.963H10.624V242.443ZM13 213.703L0.399999 217.933V215.233L10.084 212.155L0.399999 209.095V206.377L13 210.625V213.703ZM13 179.423L10.732 180.179V185.201L13 185.957V188.639L0.399999 184.229V181.151L13 176.723V179.423ZM8.41 184.409V180.953L3.262 182.681L8.41 184.409ZM0.399999 149.85V147.366H13V149.256L5.296 154.656H13V157.14H0.399999V155.25L8.086 149.85H0.399999ZM0.399999 118.335H2.776V121.737H13V124.221H2.776V127.605H0.399999V118.335ZM13 91.402L10.732 92.158V97.18L13 97.936V100.618L0.399999 96.208V93.13L13 88.702V91.402ZM8.41 96.388V92.932L3.262 94.66L8.41 96.388ZM6.232 57.2096H7.204C9.004 57.2096 10.462 57.7856 11.578 58.9376C12.694 60.0896 13.252 61.5776 13.252 63.4016C13.252 65.3456 12.622 66.9596 11.362 68.2436C10.09 69.5156 8.542 70.1516 6.718 70.1516C4.882 70.1516 3.328 69.5216 2.056 68.2616C0.783999 66.9896 0.147999 65.4176 0.147999 63.5456C0.147999 62.3696 0.417999 61.2956 0.957999 60.3236C1.486 59.3516 2.194 58.5956 3.082 58.0556L4.306 60.1796C3.79 60.4796 3.37 60.9356 3.046 61.5476C2.722 62.1476 2.56 62.8196 2.56 63.5636C2.56 64.7636 2.956 65.7536 3.748 66.5336C4.528 67.3016 5.518 67.6856 6.718 67.6856C7.906 67.6856 8.89 67.2956 9.67 66.5156C10.438 65.7236 10.822 64.6796 10.822 63.3836C10.822 62.4236 10.612 61.6316 10.192 61.0076C9.76 60.3716 9.172 59.9396 8.428 59.7116V63.5276H6.232V57.2096ZM10.624 34.5988V29.2888H13V37.0828H0.399999V29.3788H2.776V34.5988H5.458V29.8288H7.798V34.5988H10.624ZM13.252 4.8759C13.252 6.1239 12.976 7.1739 12.424 8.0259C11.86 8.8779 11.098 9.4779 10.138 9.8259L8.896 7.7019C10.18 7.2099 10.822 6.2439 10.822 4.8039C10.822 4.1079 10.696 3.5979 10.444 3.2739C10.192 2.9499 9.874 2.7879 9.49 2.7879C9.046 2.7879 8.704 2.9859 8.464 3.3819C8.212 3.7779 7.942 4.4859 7.654 5.5059C7.486 6.0699 7.318 6.5499 7.15 6.9459C6.982 7.3299 6.76 7.7199 6.484 8.1159C6.196 8.4999 5.836 8.7939 5.404 8.9979C4.972 9.2019 4.468 9.3039 3.892 9.3039C2.752 9.3039 1.846 8.9019 1.174 8.0979C0.489999 7.2819 0.147999 6.3039 0.147999 5.1639C0.147999 4.1439 0.399999 3.2499 0.903999 2.4819C1.396 1.7019 2.086 1.0959 2.974 0.6639L4.18 2.7519C3.1 3.2559 2.56 4.0599 2.56 5.1639C2.56 5.6799 2.68 6.0879 2.92 6.3879C3.148 6.6759 3.448 6.8199 3.82 6.8199C4.216 6.8199 4.54 6.6579 4.792 6.3339C5.032 5.9979 5.296 5.3619 5.584 4.4259C5.704 4.0419 5.8 3.7539 5.872 3.5619C5.932 3.3579 6.034 3.0879 6.178 2.7519C6.31 2.4039 6.436 2.1399 6.556 1.9599C6.676 1.7679 6.838 1.5519 7.042 1.3119C7.246 1.0719 7.456 0.8919 7.672 0.7719C7.888 0.6399 8.152 0.5319 8.464 0.4479C8.764 0.3519 9.094 0.3039 9.454 0.3039C10.618 0.3039 11.542 0.7299 12.226 1.5819C12.91 2.4219 13.252 3.5199 13.252 4.8759Z" fill="#DEE4EB"/>
</svg>
