<svg width="14" height="188" viewBox="0 0 14 188" fill="none" xmlns="http://www.w3.org/2000/svg">
<path d="M0.399999 187.436V184.952H13V187.436H0.399999ZM0.399999 159.85V157.366H13V159.256L5.296 164.656H13V167.14H0.399999V165.25L8.086 159.85H0.399999ZM0.399999 111.234H2.776V114.636H13V117.12H2.776V120.504H0.399999V111.234ZM11.362 84.4864C12.622 85.7584 13.252 87.3064 13.252 89.1304C13.252 90.9544 12.622 92.5024 11.362 93.7744C10.09 95.0344 8.536 95.6644 6.7 95.6644C4.864 95.6644 3.316 95.0344 2.056 93.7744C0.783999 92.5024 0.147999 90.9544 0.147999 89.1304C0.147999 87.3064 0.783999 85.7584 2.056 84.4864C3.316 83.2144 4.864 82.5784 6.7 82.5784C8.536 82.5784 10.09 83.2144 11.362 84.4864ZM9.67 92.0284C10.438 91.2484 10.822 90.2824 10.822 89.1304C10.822 87.9784 10.438 87.0124 9.67 86.2324C8.89 85.4524 7.9 85.0624 6.7 85.0624C5.5 85.0624 4.51 85.4524 3.73 86.2324C2.95 87.0124 2.56 87.9784 2.56 89.1304C2.56 90.2824 2.95 91.2484 3.73 92.0284C4.51 92.8084 5.5 93.1984 6.7 93.1984C7.9 93.1984 8.89 92.8084 9.67 92.0284ZM13.252 60.7424C13.252 62.1464 12.856 63.2984 12.064 64.1984C11.272 65.0984 10.21 65.5484 8.878 65.5484H0.399999V63.0824H8.68C9.34 63.0824 9.862 62.8964 10.246 62.5244C10.63 62.1404 10.822 61.5464 10.822 60.7424C10.822 59.9384 10.63 59.3504 10.246 58.9784C9.862 58.5944 9.34 58.4024 8.68 58.4024H0.399999V55.9184H8.878C10.21 55.9184 11.272 56.3684 12.064 57.2684C12.856 58.1684 13.252 59.3264 13.252 60.7424ZM13.252 32.2246C13.252 34.1206 12.622 35.6866 11.362 36.9226C10.102 38.1586 8.548 38.7766 6.7 38.7766C4.84 38.7766 3.286 38.1586 2.038 36.9226C0.777999 35.6866 0.147999 34.1206 0.147999 32.2246C0.147999 31.0846 0.417999 30.0346 0.957999 29.0746C1.486 28.1026 2.206 27.3466 3.118 26.8066L4.36 28.9486C3.796 29.2606 3.358 29.7046 3.046 30.2806C2.722 30.8566 2.56 31.5046 2.56 32.2246C2.56 33.4486 2.944 34.4386 3.712 35.1946C4.48 35.9386 5.476 36.3106 6.7 36.3106C7.912 36.3106 8.902 35.9386 9.67 35.1946C10.438 34.4386 10.822 33.4486 10.822 32.2246C10.822 31.5046 10.666 30.8566 10.354 30.2806C10.03 29.6926 9.592 29.2486 9.04 28.9486L10.282 26.8066C11.194 27.3466 11.92 28.0966 12.46 29.0566C12.988 30.0166 13.252 31.0726 13.252 32.2246ZM0.399999 2.6367V0.170703H13V2.6367H7.78V7.3167H13V9.8007H0.399999V7.3167H5.404V2.6367H0.399999Z" fill="#DEE4EB"/>
</svg>
