<svg width="14" height="259" viewBox="0 0 14 259" fill="none" xmlns="http://www.w3.org/2000/svg">
<path d="M10.624 256.346V251.54H13V258.83H0.399999V256.346H10.624ZM10.624 230.005V224.695H13V232.489H0.399999V224.785H2.776V230.005H5.458V225.235H7.798V230.005H10.624ZM13 197.011L10.732 197.767V202.789L13 203.545V206.227L0.399999 201.817V198.739L13 194.311V197.011ZM8.41 201.997V198.541L3.262 200.269L8.41 201.997ZM0.399999 170.443C0.399999 168.715 1.006 167.275 2.218 166.123C3.43 164.959 4.924 164.377 6.7 164.377C8.476 164.377 9.97 164.959 11.182 166.123C12.394 167.275 13 168.715 13 170.443V175.447H0.399999V170.443ZM10.624 170.443C10.624 169.351 10.264 168.463 9.544 167.779C8.812 167.095 7.864 166.753 6.7 166.753C5.536 166.753 4.594 167.095 3.874 167.779C3.142 168.463 2.776 169.351 2.776 170.443V172.963H10.624V170.443ZM10.624 142.491V137.181H13V144.975H0.399999V137.271H2.776V142.491H5.458V137.721H7.798V142.491H10.624ZM13 110.878L8.626 113.416V115.306H13V117.79H0.399999V112.75C0.399999 111.586 0.807999 110.596 1.624 109.78C2.44 108.964 3.424 108.556 4.576 108.556C5.356 108.556 6.082 108.778 6.754 109.222C7.414 109.666 7.912 110.254 8.248 110.986L13 108.196V110.878ZM2.722 115.306H6.448V112.75C6.448 112.282 6.268 111.88 5.908 111.544C5.536 111.208 5.092 111.04 4.576 111.04C4.06 111.04 3.622 111.208 3.262 111.544C2.902 111.88 2.722 112.282 2.722 112.75V115.306ZM13.252 84.9849C13.252 86.2329 12.976 87.2829 12.424 88.1349C11.86 88.9869 11.098 89.5869 10.138 89.9349L8.896 87.8109C10.18 87.3189 10.822 86.3529 10.822 84.9129C10.822 84.2169 10.696 83.7069 10.444 83.3829C10.192 83.0589 9.874 82.8969 9.49 82.8969C9.046 82.8969 8.704 83.0949 8.464 83.4909C8.212 83.8869 7.942 84.5949 7.654 85.6149C7.486 86.1789 7.318 86.6589 7.15 87.0549C6.982 87.4389 6.76 87.8289 6.484 88.2249C6.196 88.6089 5.836 88.9029 5.404 89.1069C4.972 89.3109 4.468 89.4129 3.892 89.4129C2.752 89.4129 1.846 89.0109 1.174 88.2069C0.489999 87.3909 0.147999 86.4129 0.147999 85.2729C0.147999 84.2529 0.399999 83.3589 0.903999 82.5909C1.396 81.8109 2.086 81.2049 2.974 80.7729L4.18 82.8609C3.1 83.3649 2.56 84.1689 2.56 85.2729C2.56 85.7889 2.68 86.1969 2.92 86.4969C3.148 86.7849 3.448 86.9289 3.82 86.9289C4.216 86.9289 4.54 86.7669 4.792 86.4429C5.032 86.1069 5.296 85.4709 5.584 84.5349C5.704 84.1509 5.8 83.8629 5.872 83.6709C5.932 83.4669 6.034 83.1969 6.178 82.8609C6.31 82.5129 6.436 82.2489 6.556 82.0689C6.676 81.8769 6.838 81.6609 7.042 81.4209C7.246 81.1809 7.456 81.0009 7.672 80.8809C7.888 80.7489 8.152 80.6409 8.464 80.5569C8.764 80.4609 9.094 80.4129 9.454 80.4129C10.618 80.4129 11.542 80.8389 12.226 81.6909C12.91 82.5309 13.252 83.6289 13.252 84.9849ZM0.399999 54.0766V51.6106H13V54.0766H7.78V58.7566H13V61.2406H0.399999V58.7566H5.404V54.0766H0.399999ZM0.399999 31.6299V29.1459H13V31.6299H0.399999ZM0.399999 4.47552C0.399999 3.26352 0.807999 2.24352 1.624 1.41552C2.44 0.587521 3.442 0.173521 4.63 0.173521C5.818 0.173521 6.82 0.587521 7.636 1.41552C8.452 2.24352 8.86 3.26352 8.86 4.47552V6.68952H13V9.17352H0.399999V4.47552ZM6.538 4.47552C6.538 3.94752 6.358 3.50952 5.998 3.16152C5.626 2.81352 5.17 2.63952 4.63 2.63952C4.078 2.63952 3.622 2.81352 3.262 3.16152C2.902 3.50952 2.722 3.94752 2.722 4.47552V6.68952H6.538V4.47552Z" fill="#DEE4EB"/>
</svg>
