<svg width="13" height="516" viewBox="0 0 13 516" fill="none" xmlns="http://www.w3.org/2000/svg">
<path d="M0.399999 510.632C0.399999 509.42 0.807999 508.4 1.624 507.572C2.44 506.744 3.442 506.33 4.63 506.33C5.818 506.33 6.82 506.744 7.636 507.572C8.452 508.4 8.86 509.42 8.86 510.632V512.846H13V515.33H0.399999V510.632ZM6.538 510.632C6.538 510.104 6.358 509.666 5.998 509.318C5.626 508.97 5.17 508.796 4.63 508.796C4.078 508.796 3.622 508.97 3.262 509.318C2.902 509.666 2.722 510.104 2.722 510.632V512.846H6.538V510.632ZM13 424.276L10.732 425.032V430.054L13 430.81V433.492L0.399999 429.082V426.004L13 421.576V424.276ZM8.41 429.262V425.806L3.262 427.534L8.41 429.262ZM13 339.821L8.626 342.359V344.249H13V346.733H0.399999V341.693C0.399999 340.529 0.807999 339.539 1.624 338.723C2.44 337.907 3.424 337.499 4.576 337.499C5.356 337.499 6.082 337.721 6.754 338.165C7.414 338.609 7.912 339.197 8.248 339.929L13 337.139V339.821ZM2.722 344.249H6.448V341.693C6.448 341.225 6.268 340.823 5.908 340.487C5.536 340.151 5.092 339.983 4.576 339.983C4.06 339.983 3.622 340.151 3.262 340.487C2.902 340.823 2.722 341.225 2.722 341.693V344.249ZM0.399999 253.986H2.776V257.388H13V259.872H2.776V263.256H0.399999V253.986ZM0.399999 171.689V169.205H13V171.095L5.296 176.495H13V178.979H0.399999V177.089L8.086 171.689H0.399999ZM10.624 90.7636V85.4536H13V93.2476H0.399999V85.5436H2.776V90.7636H5.458V85.9936H7.798V90.7636H10.624ZM13 3.17062L8.626 5.70862V7.59862H13V10.0826H0.399999V5.04262C0.399999 3.87862 0.807999 2.88862 1.624 2.07262C2.44 1.25662 3.424 0.848624 4.576 0.848624C5.356 0.848624 6.082 1.07062 6.754 1.51462C7.414 1.95862 7.912 2.54662 8.248 3.27862L13 0.488624V3.17062ZM2.722 7.59862H6.448V5.04262C6.448 4.57462 6.268 4.17262 5.908 3.83662C5.536 3.50062 5.092 3.33262 4.576 3.33262C4.06 3.33262 3.622 3.50062 3.262 3.83662C2.902 4.17262 2.722 4.57462 2.722 5.04262V7.59862Z" fill="#DEE4EB"/>
</svg>
