<svg width="14" height="256" viewBox="0 0 14 256" fill="none" xmlns="http://www.w3.org/2000/svg">
<path d="M13.252 250.528C13.252 251.776 12.976 252.826 12.424 253.678C11.86 254.53 11.098 255.13 10.138 255.478L8.896 253.354C10.18 252.862 10.822 251.896 10.822 250.456C10.822 249.76 10.696 249.25 10.444 248.926C10.192 248.602 9.874 248.44 9.49 248.44C9.046 248.44 8.704 248.638 8.464 249.034C8.212 249.43 7.942 250.138 7.654 251.158C7.486 251.722 7.318 252.202 7.15 252.598C6.982 252.982 6.76 253.372 6.484 253.768C6.196 254.152 5.836 254.446 5.404 254.65C4.972 254.854 4.468 254.956 3.892 254.956C2.752 254.956 1.846 254.554 1.174 253.75C0.489999 252.934 0.147999 251.956 0.147999 250.816C0.147999 249.796 0.399999 248.902 0.903999 248.134C1.396 247.354 2.086 246.748 2.974 246.316L4.18 248.404C3.1 248.908 2.56 249.712 2.56 250.816C2.56 251.332 2.68 251.74 2.92 252.04C3.148 252.328 3.448 252.472 3.82 252.472C4.216 252.472 4.54 252.31 4.792 251.986C5.032 251.65 5.296 251.014 5.584 250.078C5.704 249.694 5.8 249.406 5.872 249.214C5.932 249.01 6.034 248.74 6.178 248.404C6.31 248.056 6.436 247.792 6.556 247.612C6.676 247.42 6.838 247.204 7.042 246.964C7.246 246.724 7.456 246.544 7.672 246.424C7.888 246.292 8.152 246.184 8.464 246.1C8.764 246.004 9.094 245.956 9.454 245.956C10.618 245.956 11.542 246.382 12.226 247.234C12.91 248.074 13.252 249.172 13.252 250.528ZM0.399999 212.159H2.776V215.561H13V218.045H2.776V221.429H0.399999V212.159ZM13 179.56L8.626 182.098V183.988H13V186.472H0.399999V181.432C0.399999 180.268 0.807999 179.278 1.624 178.462C2.44 177.646 3.424 177.238 4.576 177.238C5.356 177.238 6.082 177.46 6.754 177.904C7.414 178.348 7.912 178.936 8.248 179.668L13 176.878V179.56ZM2.722 183.988H6.448V181.432C6.448 180.964 6.268 180.562 5.908 180.226C5.536 179.89 5.092 179.722 4.576 179.722C4.06 179.722 3.622 179.89 3.262 180.226C2.902 180.562 2.722 180.964 2.722 181.432V183.988ZM13 143.016L10.732 143.772V148.794L13 149.55V152.232L0.399999 147.822V144.744L13 140.316V143.016ZM8.41 148.002V144.546L3.262 146.274L8.41 148.002ZM0.399999 107.372H2.776V110.774H13V113.258H2.776V116.642H0.399999V107.372ZM10.624 79.2015V73.8915H13V81.6855H0.399999V73.9815H2.776V79.2015H5.458V74.4315H7.798V79.2015H10.624ZM6.232 35.5624H7.204C9.004 35.5624 10.462 36.1384 11.578 37.2904C12.694 38.4424 13.252 39.9304 13.252 41.7544C13.252 43.6984 12.622 45.3124 11.362 46.5964C10.09 47.8684 8.542 48.5044 6.718 48.5044C4.882 48.5044 3.328 47.8744 2.056 46.6144C0.783999 45.3424 0.147999 43.7704 0.147999 41.8984C0.147999 40.7224 0.417999 39.6484 0.957999 38.6764C1.486 37.7044 2.194 36.9484 3.082 36.4084L4.306 38.5324C3.79 38.8324 3.37 39.2884 3.046 39.9004C2.722 40.5004 2.56 41.1724 2.56 41.9164C2.56 43.1164 2.956 44.1064 3.748 44.8864C4.528 45.6544 5.518 46.0384 6.718 46.0384C7.906 46.0384 8.89 45.6484 9.67 44.8684C10.438 44.0764 10.822 43.0324 10.822 41.7364C10.822 40.7764 10.612 39.9844 10.192 39.3604C9.76 38.7244 9.172 38.2924 8.428 38.0644V41.8804H6.232V35.5624ZM0.399999 0.437696L8.086 4.7577H13V7.2237H8.086L0.399999 11.5257V8.7177L5.656 5.9817L0.399999 3.2457V0.437696Z" fill="#DEE4EB"/>
</svg>
