<svg width="13" height="198" viewBox="0 0 13 198" fill="none" xmlns="http://www.w3.org/2000/svg">
<path d="M13 190.918L8.626 193.456V195.346H13V197.83H0.399999V192.79C0.399999 191.626 0.807999 190.636 1.624 189.82C2.44 189.004 3.424 188.596 4.576 188.596C5.356 188.596 6.082 188.818 6.754 189.262C7.414 189.706 7.912 190.294 8.248 191.026L13 188.236V190.918ZM2.722 195.346H6.448V192.79C6.448 192.322 6.268 191.92 5.908 191.584C5.536 191.248 5.092 191.08 4.576 191.08C4.06 191.08 3.622 191.248 3.262 191.584C2.902 191.92 2.722 192.322 2.722 192.79V195.346ZM10.624 166.649V161.339H13V169.133H0.399999V161.429H2.776V166.649H5.458V161.879H7.798V166.649H10.624ZM10.624 139.464V134.658H13V141.948H0.399999V139.464H10.624ZM0.399999 115.607V113.123H13V115.607H0.399999ZM13 85.0509L10.732 85.8069V90.8289L13 91.5849V94.2669L0.399999 89.8569V86.7789L13 82.3509V85.0509ZM8.41 90.0369V86.5809L3.262 88.3089L8.41 90.0369ZM6.466 55.8734C7.102 54.7694 8.062 54.2174 9.346 54.2174C10.414 54.2174 11.29 54.5954 11.974 55.3514C12.658 56.1074 13 57.0374 13 58.1414V63.4874H0.399999V58.5194C0.399999 57.4394 0.735999 56.5334 1.408 55.8014C2.068 55.0574 2.914 54.6854 3.946 54.6854C4.99 54.6854 5.83 55.0814 6.466 55.8734ZM2.722 58.5194V61.0034H5.494V58.5194C5.494 58.1354 5.362 57.8174 5.098 57.5654C4.834 57.3014 4.504 57.1694 4.108 57.1694C3.712 57.1694 3.382 57.2954 3.118 57.5474C2.854 57.7994 2.722 58.1234 2.722 58.5194ZM10.678 58.1414C10.678 57.7214 10.54 57.3734 10.264 57.0974C9.976 56.8214 9.616 56.6834 9.184 56.6834C8.764 56.6834 8.416 56.8214 8.14 57.0974C7.852 57.3734 7.708 57.7214 7.708 58.1414V61.0034H10.678V58.1414ZM10.624 32.465V27.659H13V34.949H0.399999V32.465H10.624ZM10.624 6.12382V0.813816H13V8.60782H0.399999V0.903816H2.776V6.12382H5.458V1.35382H7.798V6.12382H10.624Z" fill="#DEE4EB"/>
</svg>
