<svg width="14" height="451" viewBox="0 0 14 451" fill="none" xmlns="http://www.w3.org/2000/svg">
<path d="M13.252 445.528C13.252 446.776 12.976 447.826 12.424 448.678C11.86 449.53 11.098 450.13 10.138 450.478L8.896 448.354C10.18 447.862 10.822 446.896 10.822 445.456C10.822 444.76 10.696 444.25 10.444 443.926C10.192 443.602 9.874 443.44 9.49 443.44C9.046 443.44 8.704 443.638 8.464 444.034C8.212 444.43 7.942 445.138 7.654 446.158C7.486 446.722 7.318 447.202 7.15 447.598C6.982 447.982 6.76 448.372 6.484 448.768C6.196 449.152 5.836 449.446 5.404 449.65C4.972 449.854 4.468 449.956 3.892 449.956C2.752 449.956 1.846 449.554 1.174 448.75C0.489999 447.934 0.147999 446.956 0.147999 445.816C0.147999 444.796 0.399999 443.902 0.903999 443.134C1.396 442.354 2.086 441.748 2.974 441.316L4.18 443.404C3.1 443.908 2.56 444.712 2.56 445.816C2.56 446.332 2.68 446.74 2.92 447.04C3.148 447.328 3.448 447.472 3.82 447.472C4.216 447.472 4.54 447.31 4.792 446.986C5.032 446.65 5.296 446.014 5.584 445.078C5.704 444.694 5.8 444.406 5.872 444.214C5.932 444.01 6.034 443.74 6.178 443.404C6.31 443.056 6.436 442.792 6.556 442.612C6.676 442.42 6.838 442.204 7.042 441.964C7.246 441.724 7.456 441.544 7.672 441.424C7.888 441.292 8.152 441.184 8.464 441.1C8.764 441.004 9.094 440.956 9.454 440.956C10.618 440.956 11.542 441.382 12.226 442.234C12.91 443.074 13.252 444.172 13.252 445.528ZM0.399999 379.259H2.776V382.661H13V385.145H2.776V388.529H0.399999V379.259ZM13 318.76L8.626 321.298V323.188H13V325.672H0.399999V320.632C0.399999 319.468 0.807999 318.478 1.624 317.662C2.44 316.846 3.424 316.438 4.576 316.438C5.356 316.438 6.082 316.66 6.754 317.104C7.414 317.548 7.912 318.136 8.248 318.868L13 316.078V318.76ZM2.722 323.188H6.448V320.632C6.448 320.164 6.268 319.762 5.908 319.426C5.536 319.09 5.092 318.922 4.576 318.922C4.06 318.922 3.622 319.09 3.262 319.426C2.902 319.762 2.722 320.164 2.722 320.632V323.188ZM13 254.316L10.732 255.072V260.094L13 260.85V263.532L0.399999 259.122V256.044L13 251.616V254.316ZM8.41 259.302V255.846L3.262 257.574L8.41 259.302ZM0.399999 190.772H2.776V194.174H13V196.658H2.776V200.042H0.399999V190.772ZM10.624 134.701V129.391H13V137.185H0.399999V129.481H2.776V134.701H5.458V129.931H7.798V134.701H10.624ZM6.232 63.1624H7.204C9.004 63.1624 10.462 63.7384 11.578 64.8904C12.694 66.0424 13.252 67.5304 13.252 69.3544C13.252 71.2984 12.622 72.9124 11.362 74.1964C10.09 75.4684 8.542 76.1044 6.718 76.1044C4.882 76.1044 3.328 75.4744 2.056 74.2144C0.783999 72.9424 0.147999 71.3704 0.147999 69.4984C0.147999 68.3224 0.417999 67.2484 0.957999 66.2764C1.486 65.3044 2.194 64.5484 3.082 64.0084L4.306 66.1324C3.79 66.4324 3.37 66.8884 3.046 67.5004C2.722 68.1004 2.56 68.7724 2.56 69.5164C2.56 70.7164 2.956 71.7064 3.748 72.4864C4.528 73.2544 5.518 73.6384 6.718 73.6384C7.906 73.6384 8.89 73.2484 9.67 72.4684C10.438 71.6764 10.822 70.6324 10.822 69.3364C10.822 68.3764 10.612 67.5844 10.192 66.9604C9.76 66.3244 9.172 65.8924 8.428 65.6644V69.4804H6.232V63.1624ZM0.399999 0.137693L8.086 4.45769H13V6.92369H8.086L0.399999 11.2257V8.41769L5.656 5.68169L0.399999 2.94569V0.137693Z" fill="#DEE4EB"/>
</svg>
