<svg width="14" height="473" viewBox="0 0 14 473" fill="none" xmlns="http://www.w3.org/2000/svg">
<path d="M13.252 468.028C13.252 469.276 12.976 470.326 12.424 471.178C11.86 472.03 11.098 472.63 10.138 472.978L8.896 470.854C10.18 470.362 10.822 469.396 10.822 467.956C10.822 467.26 10.696 466.75 10.444 466.426C10.192 466.102 9.874 465.94 9.49 465.94C9.046 465.94 8.704 466.138 8.464 466.534C8.212 466.93 7.942 467.638 7.654 468.658C7.486 469.222 7.318 469.702 7.15 470.098C6.982 470.482 6.76 470.872 6.484 471.268C6.196 471.652 5.836 471.946 5.404 472.15C4.972 472.354 4.468 472.456 3.892 472.456C2.752 472.456 1.846 472.054 1.174 471.25C0.489999 470.434 0.147999 469.456 0.147999 468.316C0.147999 467.296 0.399999 466.402 0.903999 465.634C1.396 464.854 2.086 464.248 2.974 463.816L4.18 465.904C3.1 466.408 2.56 467.212 2.56 468.316C2.56 468.832 2.68 469.24 2.92 469.54C3.148 469.828 3.448 469.972 3.82 469.972C4.216 469.972 4.54 469.81 4.792 469.486C5.032 469.15 5.296 468.514 5.584 467.578C5.704 467.194 5.8 466.906 5.872 466.714C5.932 466.51 6.034 466.24 6.178 465.904C6.31 465.556 6.436 465.292 6.556 465.112C6.676 464.92 6.838 464.704 7.042 464.464C7.246 464.224 7.456 464.044 7.672 463.924C7.888 463.792 8.152 463.684 8.464 463.6C8.764 463.504 9.094 463.456 9.454 463.456C10.618 463.456 11.542 463.882 12.226 464.734C12.91 465.574 13.252 466.672 13.252 468.028ZM0.399999 406.979H2.776V410.381H13V412.865H2.776V416.249H0.399999V406.979ZM13 351.7L8.626 354.238V356.128H13V358.612H0.399999V353.572C0.399999 352.408 0.807999 351.418 1.624 350.602C2.44 349.786 3.424 349.378 4.576 349.378C5.356 349.378 6.082 349.6 6.754 350.044C7.414 350.488 7.912 351.076 8.248 351.808L13 349.018V351.7ZM2.722 356.128H6.448V353.572C6.448 353.104 6.268 352.702 5.908 352.366C5.536 352.03 5.092 351.862 4.576 351.862C4.06 351.862 3.622 352.03 3.262 352.366C2.902 352.702 2.722 353.104 2.722 353.572V356.128ZM10.624 298.092V292.782H13V300.576H0.399999V292.872H2.776V298.092H5.458V293.322H7.798V298.092H10.624ZM0.399999 236.761V234.277H13V236.167L5.296 241.567H13V244.051H0.399999V242.161L8.086 236.761H0.399999ZM6.232 172.593H7.204C9.004 172.593 10.462 173.169 11.578 174.321C12.694 175.473 13.252 176.961 13.252 178.785C13.252 180.729 12.622 182.343 11.362 183.627C10.09 184.899 8.542 185.535 6.718 185.535C4.882 185.535 3.328 184.905 2.056 183.645C0.783999 182.373 0.147999 180.801 0.147999 178.929C0.147999 177.753 0.417999 176.679 0.957999 175.707C1.486 174.735 2.194 173.979 3.082 173.439L4.306 175.563C3.79 175.863 3.37 176.319 3.046 176.931C2.722 177.531 2.56 178.203 2.56 178.947C2.56 180.147 2.956 181.137 3.748 181.917C4.528 182.685 5.518 183.069 6.718 183.069C7.906 183.069 8.89 182.679 9.67 181.899C10.438 181.107 10.822 180.063 10.822 178.767C10.822 177.807 10.612 177.015 10.192 176.391C9.76 175.755 9.172 175.323 8.428 175.095V178.911H6.232V172.593ZM0.399999 116.233H2.776V119.635H13V122.119H2.776V125.503H0.399999V116.233ZM0.399999 60.7025V58.2365H13V60.7025H7.78V65.3825H13V67.8665H0.399999V65.3825H5.404V60.7025H0.399999ZM13.252 4.80714C13.252 6.05514 12.976 7.10514 12.424 7.95714C11.86 8.80914 11.098 9.40914 10.138 9.75714L8.896 7.63314C10.18 7.14114 10.822 6.17514 10.822 4.73514C10.822 4.03914 10.696 3.52914 10.444 3.20514C10.192 2.88114 9.874 2.71914 9.49 2.71914C9.046 2.71914 8.704 2.91714 8.464 3.31314C8.212 3.70914 7.942 4.41714 7.654 5.43714C7.486 6.00114 7.318 6.48114 7.15 6.87714C6.982 7.26114 6.76 7.65114 6.484 8.04714C6.196 8.43114 5.836 8.72514 5.404 8.92914C4.972 9.13314 4.468 9.23514 3.892 9.23514C2.752 9.23514 1.846 8.83314 1.174 8.02914C0.489999 7.21314 0.147999 6.23514 0.147999 5.09514C0.147999 4.07514 0.399999 3.18114 0.903999 2.41314C1.396 1.63314 2.086 1.02714 2.974 0.595143L4.18 2.68314C3.1 3.18714 2.56 3.99114 2.56 5.09514C2.56 5.61114 2.68 6.01914 2.92 6.31914C3.148 6.60714 3.448 6.75114 3.82 6.75114C4.216 6.75114 4.54 6.58914 4.792 6.26514C5.032 5.92914 5.296 5.29314 5.584 4.35714C5.704 3.97314 5.8 3.68514 5.872 3.49314C5.932 3.28914 6.034 3.01914 6.178 2.68314C6.31 2.33514 6.436 2.07114 6.556 1.89114C6.676 1.69914 6.838 1.48314 7.042 1.24314C7.246 1.00314 7.456 0.823144 7.672 0.703144C7.888 0.571144 8.152 0.463144 8.464 0.379144C8.764 0.283144 9.094 0.235144 9.454 0.235144C10.618 0.235144 11.542 0.661144 12.226 1.51314C12.91 2.35314 13.252 3.45114 13.252 4.80714Z" fill="#DEE4EB"/>
</svg>
