<svg width="14" height="357" viewBox="0 0 14 357" fill="none" xmlns="http://www.w3.org/2000/svg">
<path d="M0.399999 347.496H2.776V350.898H13V353.382H2.776V356.766H0.399999V347.496ZM13 318.857L8.626 321.395V323.285H13V325.769H0.399999V320.729C0.399999 319.565 0.807999 318.575 1.624 317.759C2.44 316.943 3.424 316.535 4.576 316.535C5.356 316.535 6.082 316.757 6.754 317.201C7.414 317.645 7.912 318.233 8.248 318.965L13 316.175V318.857ZM2.722 323.285H6.448V320.729C6.448 320.261 6.268 319.859 5.908 319.523C5.536 319.187 5.092 319.019 4.576 319.019C4.06 319.019 3.622 319.187 3.262 319.523C2.902 319.859 2.722 320.261 2.722 320.729V323.285ZM13 286.273L10.732 287.029V292.051L13 292.807V295.489L0.399999 291.079V288.001L13 283.573V286.273ZM8.41 291.259V287.803L3.262 289.531L8.41 291.259ZM0.399999 254.719V252.235H13V254.125L5.296 259.525H13V262.009H0.399999V260.119L8.086 254.719H0.399999ZM13.252 225.449C13.252 226.697 12.976 227.747 12.424 228.599C11.86 229.451 11.098 230.051 10.138 230.399L8.896 228.275C10.18 227.783 10.822 226.817 10.822 225.377C10.822 224.681 10.696 224.171 10.444 223.847C10.192 223.523 9.874 223.361 9.49 223.361C9.046 223.361 8.704 223.559 8.464 223.955C8.212 224.351 7.942 225.059 7.654 226.079C7.486 226.643 7.318 227.123 7.15 227.519C6.982 227.903 6.76 228.293 6.484 228.689C6.196 229.073 5.836 229.367 5.404 229.571C4.972 229.775 4.468 229.877 3.892 229.877C2.752 229.877 1.846 229.475 1.174 228.671C0.489999 227.855 0.147999 226.877 0.147999 225.737C0.147999 224.717 0.399999 223.823 0.903999 223.055C1.396 222.275 2.086 221.669 2.974 221.237L4.18 223.325C3.1 223.829 2.56 224.633 2.56 225.737C2.56 226.253 2.68 226.661 2.92 226.961C3.148 227.249 3.448 227.393 3.82 227.393C4.216 227.393 4.54 227.231 4.792 226.907C5.032 226.571 5.296 225.935 5.584 224.999C5.704 224.615 5.8 224.327 5.872 224.135C5.932 223.931 6.034 223.661 6.178 223.325C6.31 222.977 6.436 222.713 6.556 222.533C6.676 222.341 6.838 222.125 7.042 221.885C7.246 221.645 7.456 221.465 7.672 221.345C7.888 221.213 8.152 221.105 8.464 221.021C8.764 220.925 9.094 220.877 9.454 220.877C10.618 220.877 11.542 221.303 12.226 222.155C12.91 222.995 13.252 224.093 13.252 225.449ZM0.399999 194.307C0.399999 193.095 0.807999 192.075 1.624 191.247C2.44 190.419 3.442 190.005 4.63 190.005C5.818 190.005 6.82 190.419 7.636 191.247C8.452 192.075 8.86 193.095 8.86 194.307V196.521H13V199.005H0.399999V194.307ZM6.538 194.307C6.538 193.779 6.358 193.341 5.998 192.993C5.626 192.645 5.17 192.471 4.63 192.471C4.078 192.471 3.622 192.645 3.262 192.993C2.902 193.341 2.722 193.779 2.722 194.307V196.521H6.538V194.307ZM13 161.231L10.732 161.987V167.009L13 167.765V170.447L0.399999 166.037V162.959L13 158.531V161.231ZM8.41 166.217V162.761L3.262 164.489L8.41 166.217ZM13 130.056L8.626 132.594V134.484H13V136.968H0.399999V131.928C0.399999 130.764 0.807999 129.774 1.624 128.958C2.44 128.142 3.424 127.734 4.576 127.734C5.356 127.734 6.082 127.956 6.754 128.4C7.414 128.844 7.912 129.432 8.248 130.164L13 127.374V130.056ZM2.722 134.484H6.448V131.928C6.448 131.46 6.268 131.058 5.908 130.722C5.536 130.386 5.092 130.218 4.576 130.218C4.06 130.218 3.622 130.386 3.262 130.722C2.902 131.058 2.722 131.46 2.722 131.928V134.484ZM10.624 103.087V97.7769H13V105.571H0.399999V97.8669H2.776V103.087H5.458V98.3169H7.798V103.087H10.624ZM0.399999 68.396V65.912H13V67.802L5.296 73.202H13V75.686H0.399999V73.796L8.086 68.396H0.399999ZM13.252 37.2587C13.252 39.1547 12.622 40.7207 11.362 41.9567C10.102 43.1927 8.548 43.8107 6.7 43.8107C4.84 43.8107 3.286 43.1927 2.038 41.9567C0.777999 40.7207 0.147999 39.1547 0.147999 37.2587C0.147999 36.1187 0.417999 35.0687 0.957999 34.1087C1.486 33.1367 2.206 32.3807 3.118 31.8407L4.36 33.9827C3.796 34.2947 3.358 34.7387 3.046 35.3147C2.722 35.8907 2.56 36.5387 2.56 37.2587C2.56 38.4827 2.944 39.4727 3.712 40.2287C4.48 40.9727 5.476 41.3447 6.7 41.3447C7.912 41.3447 8.902 40.9727 9.67 40.2287C10.438 39.4727 10.822 38.4827 10.822 37.2587C10.822 36.5387 10.666 35.8907 10.354 35.3147C10.03 34.7267 9.592 34.2827 9.04 33.9827L10.282 31.8407C11.194 32.3807 11.92 33.1307 12.46 34.0907C12.988 35.0507 13.252 36.1067 13.252 37.2587ZM0.399999 0.284025L8.086 4.60403H13V7.07003H8.086L0.399999 11.372V8.56403L5.656 5.82803L0.399999 3.09202V0.284025Z" fill="#DEE4EB"/>
</svg>
