<svg width="202" height="45" viewBox="0 0 202 45" fill="none" xmlns="http://www.w3.org/2000/svg">
<path d="M18.3794 10.4731V10.605L17.6982 14.2524C17.6543 14.5015 17.5298 14.7139 17.3247 14.8896C17.1343 15.0654 16.9146 15.1533 16.6655 15.1533H10.4912L8.11816 28.5347C8.05957 28.8862 8.03027 29.1206 8.03027 29.2378C8.03027 29.6919 8.19873 29.9995 8.53564 30.1606C8.88721 30.3071 9.52441 30.3804 10.4473 30.3804H13.8311C14.373 30.3804 14.644 30.5854 14.644 30.9956V31.1274L14.0508 34.5991C13.9629 35.1118 13.604 35.4121 12.9741 35.5C11.3628 35.7637 9.53174 35.8955 7.48096 35.8955C5.37158 35.8955 3.70166 35.4561 2.47119 34.5771C1.25537 33.6836 0.647461 32.2627 0.647461 30.3145C0.647461 29.6992 0.706055 29.0913 0.823242 28.4907L4.77832 5.88086C4.86621 5.39746 5.2251 5.09717 5.85498 4.97998L11.48 4.03516H11.6338C11.8242 4.03516 11.978 4.11572 12.0952 4.27686C12.2271 4.42334 12.293 4.59912 12.293 4.8042V4.93604L11.436 9.7041H17.6104C17.8301 9.7041 18.0132 9.77734 18.1597 9.92383C18.3062 10.0703 18.3794 10.2534 18.3794 10.4731ZM41.2107 16.8672C41.2107 17.585 41.1521 18.2441 41.035 18.8447L38.2884 34.5991C38.2444 34.8481 38.1126 35.0605 37.8929 35.2363C37.6878 35.4121 37.4607 35.5 37.2117 35.5H31.7186C31.4988 35.5 31.323 35.4341 31.1912 35.3022C31.0594 35.1558 30.9935 34.98 30.9935 34.7749V34.5991L33.74 18.8887C33.8279 18.376 33.8719 17.9585 33.8719 17.6362C33.8719 16.772 33.6082 16.1641 33.0809 15.8125C32.5535 15.4609 31.6746 15.2852 30.4441 15.2852C29.0965 15.2852 27.866 15.4097 26.7527 15.6587L23.4349 34.5552C23.3909 34.8042 23.2591 35.0239 23.0394 35.2144C22.8343 35.4048 22.6072 35.5 22.3582 35.5H16.909C16.6893 35.5 16.5062 35.4194 16.3597 35.2583C16.2132 35.0972 16.1399 34.9067 16.1399 34.687V34.5552L21.8968 1.88184C21.9407 1.63281 22.0579 1.42041 22.2483 1.24463C22.4534 1.06885 22.6805 0.980957 22.9295 0.980957H28.4227C28.6424 0.980957 28.8255 1.0542 28.972 1.20068C29.1185 1.34717 29.1917 1.53027 29.1917 1.75V1.88184L27.7415 9.9458C29.6165 9.55029 31.2278 9.35254 32.5755 9.35254C35.4026 9.35254 37.5486 10.041 39.0135 11.418C40.4783 12.7803 41.2107 14.5967 41.2107 16.8672ZM66.2833 18.7568C66.2833 19.4746 66.2101 20.2876 66.0636 21.1958L65.6021 23.8105C65.4703 24.5283 65.0968 24.8872 64.4815 24.8872H50.0455C49.9283 25.7954 49.8697 26.4106 49.8697 26.7329C49.8697 27.8901 50.17 28.7031 50.7706 29.1719C51.3858 29.6406 52.4186 29.875 53.8688 29.875C56.9156 29.875 59.8233 29.7432 62.5919 29.4795H62.7237C63.2071 29.4795 63.4488 29.6699 63.4488 30.0508V30.1826L62.8116 33.6104C62.7384 33.9912 62.6285 34.2695 62.482 34.4453C62.3502 34.6064 62.0865 34.731 61.691 34.8188C58.7174 35.5366 55.568 35.8955 52.2428 35.8955C51.2467 35.8955 50.2945 35.7856 49.3863 35.5659C48.4781 35.3462 47.6212 34.9946 46.8155 34.5112C46.0099 34.0278 45.3067 33.4419 44.7062 32.7534C44.1202 32.0649 43.6515 31.2153 43.2999 30.2046C42.963 29.1938 42.7945 28.0806 42.7945 26.8647C42.7945 26.1763 42.8678 25.334 43.0143 24.3379L43.5636 21.1958C44.2374 17.2993 45.7169 14.355 48.0021 12.3628C50.3019 10.356 53.3048 9.35254 57.0108 9.35254C59.9405 9.35254 62.2184 10.2388 63.8443 12.0112C65.4703 13.769 66.2833 16.0176 66.2833 18.7568ZM59.4938 18.4053C59.4938 17.3359 59.2154 16.5376 58.6588 16.0103C58.1021 15.4683 57.2086 15.1973 55.9781 15.1973C54.5279 15.1973 53.3927 15.6514 52.5724 16.5596C51.7667 17.4531 51.1808 18.7275 50.8146 20.3828H59.274C59.4205 19.5771 59.4938 18.918 59.4938 18.4053ZM87.5546 10.7588C87.5546 10.7881 87.5473 10.8394 87.5326 10.9126C87.518 10.9858 87.5106 11.0371 87.5106 11.0664L86.8075 15.0654C86.7636 15.2852 86.6391 15.4683 86.434 15.6147C86.2436 15.7612 86.0385 15.8345 85.8187 15.8345H85.7089C83.8192 15.6294 82.0102 15.5269 80.2816 15.5269C79.0805 15.5269 78.1063 15.9077 77.3593 16.6694C76.6122 17.4165 76.0556 18.7715 75.6894 20.7344L75.0082 24.5137C74.8617 25.4658 74.7885 26.1909 74.7885 26.689C74.7885 27.8462 75.0375 28.6445 75.5355 29.084C76.0336 29.5234 76.788 29.7432 77.7987 29.7432C79.4833 29.7432 81.329 29.6406 83.3358 29.4355H83.4237C83.6288 29.4355 83.7973 29.4941 83.9291 29.6113C84.0756 29.7139 84.1488 29.8604 84.1488 30.0508V30.1826L83.4237 34.2036C83.3651 34.5405 83.2553 34.7749 83.0941 34.9067C82.9477 35.0386 82.684 35.1484 82.3031 35.2363C80.4574 35.6758 78.4579 35.8955 76.3046 35.8955C73.6239 35.8955 71.4779 35.1265 69.8666 33.5884C68.2553 32.0503 67.4496 29.9116 67.4496 27.1724C67.4496 26.3374 67.5375 25.4512 67.7133 24.5137L68.3944 20.7344C69.1122 16.6914 70.5111 13.7837 72.5912 12.0112C74.6713 10.2388 77.4252 9.35254 80.8529 9.35254C83.0062 9.35254 84.9765 9.57959 86.7636 10.0337C87.2909 10.1655 87.5546 10.4072 87.5546 10.7588ZM111.616 11.5059C111.616 11.5352 111.609 11.5864 111.594 11.6597C111.58 11.7329 111.572 11.7915 111.572 11.8354L107.749 33.4346C107.676 33.8154 107.537 34.0938 107.332 34.2695C107.127 34.4453 106.724 34.5991 106.123 34.731C102.827 35.5073 99.6047 35.8955 96.4553 35.8955C93.4963 35.8955 91.1745 35.0605 89.4899 33.3906C87.8054 31.7207 86.9631 29.5015 86.9631 26.7329C86.9631 25.8833 87.0217 25.0996 87.1389 24.3818L87.7321 20.8662C88.4353 16.7207 89.8781 13.769 92.0607 12.0112C94.2434 10.2388 97.239 9.35254 101.048 9.35254C104.256 9.35254 107.376 9.74072 110.408 10.5171C110.716 10.5903 110.935 10.6562 111.067 10.7148C111.214 10.7588 111.338 10.8467 111.441 10.9785C111.558 11.1104 111.616 11.2861 111.616 11.5059ZM103.662 15.6147C102.754 15.4683 101.538 15.395 100.015 15.395C98.3889 15.395 97.217 15.8345 96.4992 16.7134C95.7961 17.5923 95.2834 18.9766 94.9611 20.8662L94.3898 24.3818C94.2434 25.334 94.1701 26.0884 94.1701 26.645C94.1701 27.7437 94.4191 28.564 94.9172 29.106C95.4299 29.6479 96.2722 29.9189 97.444 29.9189C98.7331 29.9189 99.9782 29.8311 101.179 29.6553L103.662 15.6147ZM136.052 18.4492C136.052 19.0059 135.971 19.8115 135.81 20.8662L135.239 24.3818C134.565 28.4102 133.129 31.3398 130.932 33.1709C128.735 34.9873 125.849 35.8955 122.275 35.8955C121.22 35.8955 119.887 35.793 118.276 35.5879L116.87 43.3662C116.826 43.6152 116.701 43.8276 116.496 44.0034C116.306 44.1792 116.086 44.2671 115.837 44.2671H110.388C110.168 44.2671 109.978 44.1938 109.816 44.0474C109.655 43.9155 109.575 43.7397 109.575 43.52V43.3662L115.156 11.8354C115.229 11.4546 115.368 11.1763 115.573 11.0005C115.778 10.8101 116.181 10.6489 116.782 10.5171C120.078 9.74072 123.33 9.35254 126.538 9.35254C129.511 9.35254 131.84 10.1802 133.525 11.8354C135.209 13.4761 136.052 15.6807 136.052 18.4492ZM128.757 18.5371C128.757 17.4678 128.508 16.6768 128.01 16.1641C127.526 15.6514 126.691 15.395 125.505 15.395C124.011 15.395 122.766 15.4683 121.77 15.6147L119.309 29.6553C120.568 29.8311 121.689 29.9189 122.67 29.9189C124.179 29.9189 125.344 29.5308 126.164 28.7544C126.984 27.9634 127.578 26.5059 127.944 24.3818L128.537 20.8662C128.684 19.8701 128.757 19.0938 128.757 18.5371ZM149.567 1.53027V1.70605L148.864 5.88086C148.82 6.12988 148.688 6.34229 148.468 6.51807C148.248 6.69385 148.014 6.78174 147.765 6.78174H141.92C141.7 6.78174 141.525 6.71582 141.393 6.58398C141.261 6.45215 141.195 6.28369 141.195 6.07861V5.88086L141.92 1.70605C141.964 1.45703 142.089 1.24463 142.294 1.06885C142.513 0.893066 142.748 0.805176 142.997 0.805176H148.864C149.083 0.805176 149.252 0.878418 149.369 1.0249C149.501 1.15674 149.567 1.3252 149.567 1.53027ZM147.875 10.4731V10.605L143.634 34.5991C143.59 34.8481 143.458 35.0605 143.239 35.2363C143.033 35.4121 142.806 35.5 142.557 35.5H137.064C136.845 35.5 136.669 35.4341 136.537 35.3022C136.405 35.1558 136.339 34.98 136.339 34.7749V34.5991L140.58 10.605C140.624 10.356 140.741 10.1436 140.931 9.96777C141.137 9.79199 141.364 9.7041 141.613 9.7041H147.106C147.325 9.7041 147.509 9.77734 147.655 9.92383C147.802 10.0703 147.875 10.2534 147.875 10.4731ZM165.916 10.4731V10.605L165.235 14.2524C165.191 14.5015 165.066 14.7139 164.861 14.8896C164.671 15.0654 164.451 15.1533 164.202 15.1533H158.028L155.655 28.5347C155.596 28.8862 155.567 29.1206 155.567 29.2378C155.567 29.6919 155.735 29.9995 156.072 30.1606C156.424 30.3071 157.061 30.3804 157.984 30.3804H161.368C161.91 30.3804 162.181 30.5854 162.181 30.9956V31.1274L161.587 34.5991C161.5 35.1118 161.141 35.4121 160.511 35.5C158.9 35.7637 157.068 35.8955 155.018 35.8955C152.908 35.8955 151.238 35.4561 150.008 34.5771C148.792 33.6836 148.184 32.2627 148.184 30.3145C148.184 29.6992 148.243 29.0913 148.36 28.4907L152.315 5.88086C152.403 5.39746 152.762 5.09717 153.392 4.97998L159.017 4.03516H159.171C159.361 4.03516 159.515 4.11572 159.632 4.27686C159.764 4.42334 159.83 4.59912 159.83 4.8042V4.93604L158.973 9.7041H165.147C165.367 9.7041 165.55 9.77734 165.696 9.92383C165.843 10.0703 165.916 10.2534 165.916 10.4731ZM189.143 11.5059C189.143 11.5352 189.136 11.5864 189.121 11.6597C189.106 11.7329 189.099 11.7915 189.099 11.8354L185.276 33.4346C185.203 33.8154 185.063 34.0938 184.858 34.2695C184.653 34.4453 184.25 34.5991 183.65 34.731C180.354 35.5073 177.131 35.8955 173.982 35.8955C171.023 35.8955 168.701 35.0605 167.017 33.3906C165.332 31.7207 164.49 29.5015 164.49 26.7329C164.49 25.8833 164.548 25.0996 164.665 24.3818L165.259 20.8662C165.962 16.7207 167.405 13.769 169.587 12.0112C171.77 10.2388 174.766 9.35254 178.574 9.35254C181.782 9.35254 184.902 9.74072 187.934 10.5171C188.242 10.5903 188.462 10.6562 188.594 10.7148C188.74 10.7588 188.865 10.8467 188.967 10.9785C189.084 11.1104 189.143 11.2861 189.143 11.5059ZM181.189 15.6147C180.281 15.4683 179.065 15.395 177.541 15.395C175.915 15.395 174.744 15.8345 174.026 16.7134C173.323 17.5923 172.81 18.9766 172.488 20.8662L171.916 24.3818C171.77 25.334 171.697 26.0884 171.697 26.645C171.697 27.7437 171.946 28.564 172.444 29.106C172.956 29.6479 173.799 29.9189 174.971 29.9189C176.26 29.9189 177.505 29.8311 178.706 29.6553L181.189 15.6147ZM201.735 1.70605V1.88184L195.978 34.5552C195.934 34.8188 195.81 35.0459 195.605 35.2363C195.414 35.4121 195.195 35.5 194.946 35.5H189.452C189.233 35.5 189.05 35.4194 188.903 35.2583C188.757 35.0972 188.683 34.9067 188.683 34.687V34.5552L194.44 1.88184C194.484 1.63281 194.609 1.42041 194.814 1.24463C195.033 1.06885 195.268 0.980957 195.517 0.980957H201.01C201.23 0.980957 201.405 1.0542 201.537 1.20068C201.669 1.33252 201.735 1.50098 201.735 1.70605Z" fill="white"/>
</svg>
