<svg width="44" height="44" viewBox="0 0 44 44" fill="none" xmlns="http://www.w3.org/2000/svg">
<g clip-path="url(#clip0)">
<path d="M41.6431 15.5916C41.0625 13.7938 41.31 11.0951 39.8009 9.01135C38.28 6.91121 35.6348 6.31429 34.1411 5.22185C32.6631 4.14093 31.2881 1.78873 28.802 0.977482C26.3861 0.189091 23.9155 1.25893 22 1.25893C20.0847 1.25893 17.6144 0.188833 15.198 0.977396C12.7123 1.78847 11.3362 4.14119 9.85918 5.22159C8.36713 6.31274 5.71991 6.9113 4.19925 9.01109C2.69148 11.0931 2.93648 13.798 2.35692 15.5915C1.80537 17.2985 0 19.3471 0 22.0002C0 24.6549 1.80331 26.6957 2.35692 28.4088C2.93752 30.2066 2.69002 32.9053 4.19908 34.9891C5.71991 37.0893 8.36507 37.6861 9.85892 38.7786C11.3366 39.8594 12.7119 42.2118 15.198 43.0229C17.6123 43.8108 20.0867 42.7415 22 42.7415C23.9106 42.7415 26.3908 43.8097 28.802 43.023C31.2878 42.2119 32.663 39.8597 34.1408 38.7788C35.6329 37.6877 38.2801 37.0891 39.8008 34.9893C41.3086 32.9072 41.0634 30.2026 41.6431 28.4089C42.1946 26.7018 44 24.6532 44 22.0002C44 19.3457 42.1971 17.3055 41.6431 15.5916ZM38.3722 27.3519C37.6955 29.4466 37.8727 31.7909 37.0168 32.9729C36.1494 34.1706 33.8704 34.7177 32.1118 36.004C30.3725 37.2759 29.1535 39.2923 27.7357 39.7549C26.3944 40.1927 24.2085 39.3038 22.0001 39.3038C19.7755 39.3038 17.6121 40.1945 16.2644 39.7549C14.8467 39.2923 13.6294 37.2773 11.8883 36.0039C10.1401 34.7254 7.84816 34.1671 6.9832 32.9727C6.13001 31.7947 6.30059 29.4341 5.62796 27.352C4.96865 25.3119 3.4375 23.5454 3.4375 22.0002C3.4375 20.4534 4.96727 18.6931 5.62779 16.6485C6.30455 14.5539 6.12726 12.2094 6.9832 11.0275C7.85013 9.83059 10.1308 9.28171 11.8883 7.99643C13.633 6.72034 14.8444 4.7088 16.2642 4.24551C17.6044 3.80826 19.7974 4.6966 21.9999 4.6966C24.2285 4.6966 26.3865 3.80526 27.7356 4.24551C29.1531 4.70803 30.3714 6.72378 32.1118 7.99651C33.8597 9.27501 36.1518 9.83334 37.0168 11.0276C37.8702 12.2059 37.6986 14.564 38.372 16.6484V16.6484C39.0313 18.6885 40.5625 20.455 40.5625 22.0002C40.5625 23.547 39.0327 25.3073 38.3722 27.3519ZM29.9185 16.4834C30.5898 17.1547 30.5898 18.2429 29.9185 18.9141L21.3157 27.517C20.6444 28.1882 19.5561 28.1881 18.8849 27.517L14.0815 22.7136C13.4103 22.0423 13.4102 20.9541 14.0815 20.2829C14.7527 19.6117 15.8411 19.6117 16.5121 20.2829L20.1003 23.871L27.4877 16.4835C28.159 15.8123 29.2473 15.8123 29.9185 16.4834Z" fill="black"/>
</g>
<defs>
<clipPath id="clip0">
<rect width="44" height="44" fill="white"/>
</clipPath>
</defs>
</svg>
