<svg width="59" height="23" viewBox="0 0 59 23" fill="none" xmlns="http://www.w3.org/2000/svg">
<path d="M58.1356 15.2543C55.5869 15.2543 54.2967 15.7535 53.049 16.2363C51.9841 16.6483 50.973 17.039 49.0626 17.0946C52.0687 15.8827 54.4425 14.3629 56.1441 12.5554C58.1111 10.466 58.7504 8.4554 58.9403 7.13654C59.0144 6.62213 58.8622 6.1022 58.5226 5.71028C58.1829 5.31814 57.6897 5.09332 57.1696 5.09332H39.9379L34.4198 1.15173C33.7996 0.708766 33.0689 0.474609 32.3069 0.474609H24.8814C23.8955 0.474609 23.0934 1.27664 23.0934 2.26259V5.0932H21.9517C21.6891 5.0932 21.4421 4.99099 21.2565 4.80523L20.6121 4.16084C20.0037 3.5524 19.1328 3.2672 18.2823 3.39811L8.61262 4.88578C7.56421 5.04699 6.54358 5.44329 5.66112 6.03167L2.98526 7.8155C2.35458 8.23599 1.92614 8.90677 1.80987 9.65579C1.6936 10.4048 1.89849 11.1739 2.37198 11.7657L5.9492 16.2373C5.94828 16.2369 5.94736 16.2366 5.94655 16.2363C4.69995 15.7534 3.41094 15.2542 0.864258 15.2542C0.386957 15.2542 0 15.6412 0 16.1185C0 16.5958 0.386957 16.9827 0.864258 16.9827C3.08782 16.9827 4.1731 17.4031 5.32233 17.8482C6.56894 18.331 7.85795 18.8302 10.4046 18.8302C12.9518 18.8302 14.2411 18.3309 15.4881 17.8482C16.6375 17.4031 17.7232 16.9827 19.9474 16.9827C22.1725 16.9827 23.2586 17.4031 24.4084 17.8482C25.6557 18.331 26.9455 18.8302 29.4934 18.8302C32.0407 18.8302 33.33 18.3309 34.577 17.8482C35.7265 17.4031 36.8122 16.9827 39.0364 16.9827C41.2624 16.9827 42.3491 17.4031 43.4994 17.8483C44.7471 18.331 46.0373 18.8302 48.5862 18.8302C51.135 18.8302 52.4251 18.331 53.6728 17.8483C54.8231 17.4032 55.9098 16.9827 58.1357 16.9827C58.613 16.9827 59 16.5958 59 16.1185C59 15.6412 58.6129 15.2543 58.1356 15.2543ZM28.5167 2.20313H32.3068C32.7065 2.20313 33.0898 2.32597 33.4151 2.55828L36.9641 5.09332H28.5167V2.20313ZM24.8217 2.26259C24.8217 2.22975 24.8483 2.20313 24.8812 2.20313H26.7881V5.09332H24.8217V2.26259ZM45.1398 16.6082C44.7866 16.4928 44.4574 16.3655 44.123 16.2361C42.8754 15.7535 41.5851 15.2543 39.0363 15.2543C36.4891 15.2543 35.1997 15.7537 33.9528 16.2364C32.8033 16.6814 31.7176 17.1018 29.4933 17.1018C27.2681 17.1018 26.1821 16.6814 25.0322 16.2364C23.785 15.7535 22.4952 15.2543 19.9473 15.2543C17.4002 15.2543 16.1108 15.7537 14.8639 16.2364C13.7144 16.6814 12.6288 17.1018 10.4045 17.1018C9.78374 17.1018 9.25182 17.0689 8.78236 17.012L3.72161 10.6861C3.67886 10.6326 3.64244 10.5759 3.61214 10.5167H7.33064C7.80794 10.5167 8.19489 10.1298 8.19489 9.65245C8.19489 9.17515 7.80794 8.78819 7.33064 8.78819H4.64222L6.61964 7.46991C7.29411 7.02038 8.07413 6.71755 8.87524 6.59425L18.545 5.10657C18.853 5.05921 19.169 5.16246 19.3897 5.38313L20.034 6.02741C20.5461 6.53963 21.2271 6.82172 21.9515 6.82172H57.1695C57.1773 6.82172 57.1983 6.82172 57.2159 6.842C57.2333 6.86205 57.2305 6.88176 57.2293 6.89017C57.1598 7.37231 57.0019 8.02914 56.6556 8.78808H11.0252C10.5479 8.78808 10.1609 9.17504 10.1609 9.65234C10.1609 10.1296 10.5479 10.5166 11.0252 10.5166H55.6088C54.0363 12.5765 50.997 14.9281 45.1398 16.6082Z" fill="black"/>
<path d="M54.3233 20.3661C54.1516 19.9207 53.6513 19.6989 53.206 19.8706L53.0485 19.9314C52.5282 20.1327 52.0367 20.3229 51.4519 20.4748C50.9899 20.5948 50.7127 21.0666 50.8326 21.5286C50.9337 21.9177 51.2844 22.1757 51.6685 22.1757C51.7406 22.1757 51.8136 22.1666 51.8865 22.1477C52.5677 21.9707 53.1291 21.7535 53.6722 21.5433L53.8277 21.4833C54.2731 21.3116 54.495 20.8114 54.3233 20.3661Z" fill="black"/>
<path d="M48.006 20.7875C46.1621 20.721 45.1718 20.3378 44.1233 19.9321C42.8755 19.4494 41.5853 18.9502 39.0366 18.9502C36.4893 18.9502 35.2 19.4495 33.953 19.9322C32.8036 20.3773 31.7178 20.7976 29.4936 20.7976C27.2684 20.7976 26.1824 20.3773 25.0325 19.9322C23.7852 19.4494 22.4955 18.9502 19.9475 18.9502C17.4004 18.9502 16.111 19.4495 14.8641 19.9322C13.8181 20.3373 12.8301 20.7197 10.9937 20.7871C10.5166 20.8047 10.1442 21.2056 10.1617 21.6825C10.1792 22.1596 10.5805 22.5311 11.0571 22.5145C13.1836 22.4365 14.3553 21.9828 15.4883 21.5441C16.6378 21.0991 17.7234 20.6787 19.9477 20.6787C22.1727 20.6787 23.2588 21.0991 24.4087 21.5441C25.656 22.027 26.9457 22.5261 29.4937 22.5261C32.0409 22.5261 33.3303 22.0268 34.5772 21.5441C35.7267 21.0991 36.8124 20.6787 39.0367 20.6787C41.2627 20.6787 42.3493 21.0991 43.4996 21.5442C44.6352 21.9836 45.8095 22.438 47.9437 22.515C48.4167 22.5326 48.8214 22.1595 48.8385 21.6824C48.8557 21.2053 48.4829 20.8048 48.006 20.7875Z" fill="black"/>
<path d="M7.54911 20.4774C6.96084 20.3249 6.46775 20.1339 5.94574 19.9316C5.50047 19.7592 5.00001 19.9803 4.82762 20.4253C4.65523 20.8704 4.87625 21.371 5.32128 21.5434C5.86634 21.7545 6.42995 21.9729 7.11537 22.1506C7.18808 22.1695 7.26102 22.1785 7.33281 22.1785C7.71712 22.1785 8.06789 21.9201 8.16884 21.5308C8.28868 21.0689 8.0112 20.5972 7.54911 20.4774Z" fill="black"/>
</svg>
