<svg width="335" height="66" viewBox="0 0 335 66" fill="none" xmlns="http://www.w3.org/2000/svg">
<path fill-rule="evenodd" clip-rule="evenodd" d="M32.7248 34.4876C32.1435 34.6136 31.5962 34.6943 31.1313 34.738H11.5496C9.43753 34.738 7.68843 34.573 6.30236 34.243C4.94927 33.8799 3.87671 33.2694 3.08467 32.4114C2.29263 31.5533 1.7316 30.4313 1.40158 29.0452C1.10456 27.6261 0.956055 25.844 0.956055 23.6989V11.7193C0.956055 9.67315 1.10456 7.95705 1.40158 6.57098C1.7316 5.15191 2.29263 4.01335 3.08467 3.15531C3.87671 2.26426 4.94927 1.63722 6.30236 1.2742C7.68843 0.878186 9.43753 0.680176 11.5496 0.680176H28.8261C30.0801 0.680176 31.1692 0.861685 32.0932 1.2247C33.0173 1.55472 33.8093 1.98374 34.4694 2.51178C35.1294 3.0068 35.6574 3.55133 36.0535 4.14536C36.4495 4.70639 36.7465 5.21792 36.9445 5.67995L32.7368 10.0362C32.4068 9.37613 31.9282 8.7821 31.3012 8.25407C30.6742 7.69304 29.7006 7.41252 28.3805 7.41252H11.5991C10.0481 7.41252 8.992 7.70954 8.43097 8.30357C7.86994 8.8976 7.58943 10.0362 7.58943 11.7193V22.7088C7.58943 23.8969 7.63893 24.8375 7.73793 25.5305C7.86994 26.2235 8.08445 26.7681 8.38147 27.1641C8.71149 27.5271 9.12401 27.7746 9.61904 27.9066C10.1471 28.0056 10.8071 28.0551 11.5991 28.0551H27.0935C28.9746 28.0551 30.2781 27.7911 31.0042 27.2631C31.7302 26.7021 32.0932 25.8935 32.0932 24.8375V20.4812H19.3216V14.9369H38.3801V29.9843C38.2975 30.1398 38.2205 30.3583 38.1506 30.6486C37.8011 32.1006 36.5435 33.0852 35.1017 33.7277C34.3252 34.0737 33.4952 34.3205 32.7248 34.4876ZM32.5413 30.6327L32.5388 30.5798C32.5352 30.5974 32.5362 30.615 32.5413 30.6327ZM44.127 34.738V0.680176H76.8483V7.41252H50.8099V14.9369H76.1057V20.4317H50.8099V28.0551H76.8483V34.738H44.127ZM112.421 34.738L88.4123 9.64014V34.738H82.0265V0.680176H89.2043L112.57 25.3325V0.680176H119.005V34.738H112.421ZM124.811 34.738V0.680176H157.532V7.41252H131.494V14.9369H156.789V20.4317H131.494V28.0551H157.532V34.738H124.811ZM172.957 34.738C171.076 34.738 169.475 34.54 168.155 34.144C166.868 33.7479 165.812 33.1209 164.987 32.2629C164.195 31.3718 163.617 30.2498 163.254 28.8967C162.891 27.5436 162.71 25.8935 162.71 23.9464V0.680176H169.343V23.9464C169.343 25.3985 169.607 26.4545 170.135 27.1146C170.696 27.7416 171.637 28.0551 172.957 28.0551H189.59C190.91 28.0551 191.834 27.7416 192.362 27.1146C192.923 26.4545 193.203 25.3985 193.203 23.9464V0.680176H199.886V23.9464C199.886 25.8935 199.705 27.5436 199.342 28.8967C198.979 30.2498 198.385 31.3718 197.559 32.2629C196.767 33.1209 195.711 33.7479 194.391 34.144C193.071 34.54 191.471 34.738 189.59 34.738H172.957ZM240.833 24.887C240.833 26.7021 240.635 28.2366 240.239 29.4907C239.843 30.7448 239.199 31.7678 238.308 32.5599C237.45 33.3189 236.312 33.8799 234.893 34.243C233.474 34.573 231.758 34.738 229.744 34.738H205.686C205.752 33.6159 205.818 32.5104 205.884 31.4213C205.983 30.2993 206.066 29.1772 206.132 28.0551H229.299C230.19 28.0551 230.933 28.0056 231.527 27.9066C232.154 27.7746 232.632 27.5601 232.962 27.2631C233.325 26.9661 233.573 26.5866 233.705 26.1245C233.87 25.6295 233.952 25.019 233.952 24.2929C233.952 22.8739 233.639 21.9003 233.012 21.3723C232.385 20.8112 231.197 20.5307 229.447 20.5307H215.636C213.59 20.5307 211.874 20.3492 210.488 19.9862C209.135 19.6232 208.029 19.0621 207.171 18.3031C206.346 17.5441 205.752 16.587 205.389 15.432C205.026 14.2769 204.845 12.9238 204.845 11.3727V10.2342C204.845 8.55108 205.026 7.09901 205.389 5.87794C205.752 4.65689 206.363 3.66684 207.221 2.9078C208.079 2.14876 209.201 1.58773 210.587 1.2247C212.006 0.861685 213.755 0.680176 215.834 0.680176H239.694C239.562 1.83523 239.43 2.9738 239.298 4.09586C239.166 5.18492 239.018 6.30696 238.853 7.46203H215.834C214.184 7.46203 213.062 7.74254 212.468 8.30357C211.907 8.8646 211.626 9.82165 211.626 11.1747C211.626 12.5278 211.907 13.5014 212.468 14.0954C213.062 14.6564 214.184 14.9369 215.834 14.9369H229.447C231.56 14.9369 233.342 15.1184 234.794 15.4815C236.246 15.8115 237.417 16.3395 238.308 17.0655C239.199 17.7916 239.843 18.7156 240.239 19.8377C240.635 20.9268 240.833 22.2138 240.833 23.6989V24.887ZM245.762 34.738V27.5601H251.9V34.738H245.762ZM268.296 34.738C266.25 34.738 264.551 34.5565 263.197 34.1935C261.844 33.8304 260.755 33.2364 259.93 32.4114C259.138 31.5533 258.561 30.4148 258.198 28.9957C257.868 27.5766 257.703 25.811 257.703 23.6989V11.7193C257.703 9.60714 257.868 7.84155 258.198 6.42247C258.561 5.00341 259.138 3.86485 259.93 3.0068C260.755 2.14875 261.844 1.55472 263.197 1.2247C264.551 0.861685 266.25 0.680176 268.296 0.680176H287.404C288.658 0.680176 289.747 0.861685 290.671 1.2247C291.628 1.55472 292.437 1.98374 293.097 2.51178C293.757 3.0068 294.285 3.55133 294.681 4.14536C295.077 4.70639 295.374 5.21792 295.572 5.67995L291.315 10.0362C291.018 9.37613 290.539 8.7821 289.879 8.25407C289.219 7.69304 288.246 7.41252 286.959 7.41252H268.346C266.861 7.41252 265.821 7.72604 265.227 8.35308C264.633 8.98011 264.336 10.1022 264.336 11.7193V23.7484C264.336 24.4744 264.385 25.1015 264.484 25.6295C264.583 26.1575 264.765 26.6031 265.029 26.9661C265.326 27.3291 265.739 27.6096 266.267 27.8076C266.795 27.9726 267.488 28.0551 268.346 28.0551H287.206C288.526 28.0551 289.5 27.7911 290.127 27.2631C290.754 26.7021 291.216 26.0915 291.513 25.4315L295.77 29.7382C295.572 30.2002 295.275 30.7283 294.879 31.3223C294.483 31.8833 293.955 32.4279 293.295 32.9559C292.635 33.4509 291.826 33.8799 290.869 34.243C289.945 34.573 288.856 34.738 287.602 34.738H268.296ZM327.705 34.738V20.6792H307.409V34.738H300.825V0.680176H307.409V14.5409H327.705V0.680176H334.289V34.738H327.705ZM4.7931 65.0207V47.9387H2.52881V65.0207H4.7931ZM26.1357 65.0207V47.9387H23.8948V61.1491L15.26 47.9387H12.9957V65.0207H15.26V51.8455L23.8596 65.0207H26.1357ZM47.3726 65.0207V47.9387H45.1318V61.1491L36.497 47.9387H34.2327V65.0207H36.497V51.8455L45.0966 65.0207H47.3726ZM68.6212 57.0194V55.9401C68.6212 54.6573 68.457 53.5115 68.1286 52.5025C67.8077 51.4857 67.3427 50.6215 66.7325 49.9097C66.1303 49.1902 65.4065 48.6427 64.5621 48.2672C63.7251 47.8918 62.7865 47.7041 61.7464 47.7041C60.7372 47.7041 59.8107 47.8918 58.9657 48.2672C58.1287 48.6427 57.4054 49.1902 56.7952 49.9097C56.1855 50.6215 55.712 51.4857 55.3756 52.5025C55.0472 53.5115 54.883 54.6573 54.883 55.9401V57.0194C54.883 58.3021 55.0512 59.4518 55.3876 60.4686C55.724 61.4854 56.197 62.3497 56.8072 63.0614C57.4249 63.7732 58.1523 64.3167 58.9892 64.6922C59.8342 65.0676 60.7607 65.2553 61.7699 65.2553C62.8101 65.2553 63.7486 65.0676 64.5856 64.6922C65.43 64.3167 66.1539 63.7732 66.7561 63.0614C67.3582 62.3497 67.8198 61.4854 68.1401 60.4686C68.461 59.4518 68.6212 58.3021 68.6212 57.0194ZM66.3806 55.9166V57.0194C66.3806 58.044 66.279 58.9513 66.0753 59.7412C65.872 60.5234 65.5712 61.1843 65.1723 61.724C64.7808 62.2558 64.3003 62.6586 63.7291 62.9324C63.158 63.2061 62.5052 63.343 61.7699 63.343C61.0661 63.343 60.4284 63.2061 59.8577 62.9324C59.2946 62.6586 58.8055 62.2558 58.391 61.724C57.9841 61.1843 57.6712 60.5234 57.4525 59.7412C57.2332 58.9513 57.1241 58.044 57.1241 57.0194V55.9166C57.1241 54.8998 57.2332 54.0003 57.4525 53.2182C57.6712 52.4361 57.9806 51.7791 58.379 51.2472C58.786 50.7153 59.271 50.3125 59.8342 50.0388C60.4048 49.765 61.0426 49.6282 61.7464 49.6282C62.4737 49.6282 63.1229 49.765 63.6941 50.0388C64.2727 50.3125 64.7613 50.7153 65.1602 51.2472C65.5592 51.7791 65.8605 52.4361 66.0638 53.2182C66.275 54.0003 66.3806 54.8998 66.3806 55.9166ZM80.766 65.0207H80.5077L74.196 47.9387H76.6478L81.494 62.021L86.3854 47.9387H88.8377L82.514 65.0207H82.2557H80.766ZM100.689 47.9387H101.182L107.717 65.0207H105.394L103.767 60.5507H96.6223L94.9987 65.0207H92.6876L99.199 47.9387H99.6915H100.689ZM97.2956 58.6971H103.092L100.191 50.7263L97.2956 58.6971ZM118.875 65.0207V49.7924H124.366V47.9387H118.875H116.646H111.168V49.7924H116.646V65.0207H118.875ZM133.413 65.0207V47.9387H131.149V65.0207H133.413ZM154.768 57.0194V55.9401C154.768 54.6573 154.604 53.5115 154.275 52.5025C153.954 51.4857 153.489 50.6215 152.879 49.9097C152.277 49.1902 151.553 48.6427 150.709 48.2672C149.872 47.8918 148.933 47.7041 147.893 47.7041C146.884 47.7041 145.957 47.8918 145.112 48.2672C144.275 48.6427 143.552 49.1902 142.942 49.9097C142.332 50.6215 141.859 51.4857 141.522 52.5025C141.194 53.5115 141.03 54.6573 141.03 55.9401V57.0194C141.03 58.3021 141.198 59.4518 141.534 60.4686C141.871 61.4854 142.344 62.3497 142.954 63.0614C143.571 63.7732 144.299 64.3167 145.136 64.6922C145.981 65.0676 146.907 65.2553 147.916 65.2553C148.957 65.2553 149.895 65.0676 150.732 64.6922C151.577 64.3167 152.3 63.7732 152.903 63.0614C153.505 62.3497 153.966 61.4854 154.287 60.4686C154.608 59.4518 154.768 58.3021 154.768 57.0194ZM152.527 55.9166V57.0194C152.527 58.044 152.426 58.9513 152.222 59.7412C152.019 60.5234 151.717 61.1843 151.319 61.724C150.927 62.2558 150.446 62.6586 149.876 62.9324C149.304 63.2061 148.651 63.343 147.916 63.343C147.212 63.343 146.575 63.2061 146.004 62.9324C145.441 62.6586 144.952 62.2558 144.538 61.724C144.131 61.1843 143.818 60.5234 143.599 59.7412C143.38 58.9513 143.27 58.044 143.27 57.0194V55.9166C143.27 54.8998 143.38 54.0003 143.599 53.2182C143.818 52.4361 144.127 51.7791 144.526 51.2472C144.933 50.7153 145.418 50.3125 145.981 50.0388C146.551 49.765 147.189 49.6282 147.893 49.6282C148.62 49.6282 149.269 49.765 149.84 50.0388C150.419 50.3125 150.908 50.7153 151.307 51.2472C151.706 51.7791 152.007 52.4361 152.21 53.2182C152.422 54.0003 152.527 54.8998 152.527 55.9166ZM175.383 65.0207V47.9387H173.142V61.1491L164.507 47.9387H162.243V65.0207H164.507V51.8455L173.107 65.0207H175.383ZM195.953 65.0207V47.9387H193.689V65.0207H195.953ZM217.296 65.0207V47.9387H215.055V61.1491L206.42 47.9387H204.156V65.0207H206.42V51.8455L215.02 65.0207H217.296ZM227.821 65.0207V47.9387H225.557V65.0207H227.821ZM241.984 65.0207V49.7924H247.474V47.9387H241.984H239.755H234.276V49.7924H239.755V65.0207H241.984ZM256.521 65.0207V47.9387H254.257V65.0207H256.521ZM271.294 47.9387H271.787L278.322 65.0207H275.999L274.372 60.5507H267.228L265.604 65.0207H263.293L269.804 47.9387H270.297H271.294ZM267.901 58.6971H273.697L270.796 50.727L267.901 58.6971ZM289.481 65.0207V49.7924H294.972V47.9387H289.481H287.252H281.773V49.7924H287.252V65.0207H289.481ZM314.413 57.0194V55.9401C314.413 54.6573 314.249 53.5115 313.921 52.5025C313.6 51.4857 313.135 50.6215 312.525 49.9097C311.923 49.1902 311.199 48.6427 310.354 48.2672C309.517 47.8918 308.579 47.7041 307.539 47.7041C306.529 47.7041 305.603 47.8918 304.758 48.2672C303.921 48.6427 303.198 49.1902 302.587 49.9097C301.978 50.6215 301.504 51.4857 301.168 52.5025C300.839 53.5115 300.675 54.6573 300.675 55.9401V57.0194C300.675 58.3021 300.843 59.4518 301.18 60.4686C301.516 61.4854 301.989 62.3497 302.599 63.0614C303.217 63.7732 303.944 64.3167 304.781 64.6922C305.626 65.0676 306.553 65.2553 307.562 65.2553C308.602 65.2553 309.541 65.0676 310.378 64.6922C311.222 64.3167 311.946 63.7732 312.548 63.0614C313.15 62.3497 313.612 61.4854 313.932 60.4686C314.253 59.4518 314.413 58.3021 314.413 57.0194ZM312.173 55.9166V57.0194C312.173 58.044 312.071 58.9513 311.867 59.7412C311.664 60.5234 311.363 61.1843 310.964 61.724C310.573 62.2558 310.092 62.6586 309.521 62.9324C308.95 63.2061 308.297 63.343 307.562 63.343C306.858 63.343 306.221 63.2061 305.65 62.9324C305.087 62.6586 304.598 62.2558 304.183 61.724C303.776 61.1843 303.463 60.5234 303.245 59.7412C303.025 58.9513 302.916 58.044 302.916 57.0194V55.9166C302.916 54.8998 303.025 54.0003 303.245 53.2182C303.463 52.4361 303.773 51.7791 304.171 51.2472C304.578 50.7153 305.063 50.3125 305.626 50.0388C306.197 49.765 306.835 49.6282 307.539 49.6282C308.266 49.6282 308.915 49.765 309.486 50.0388C310.065 50.3125 310.553 50.7153 310.952 51.2472C311.351 51.7791 311.653 52.4361 311.856 53.2182C312.067 54.0003 312.173 54.8998 312.173 55.9166ZM327.544 47.9387H321.889V65.0207H324.153V58.0988H328.16L331.873 65.0207H334.289V64.8799L330.277 57.626C330.804 57.4249 331.273 57.1679 331.685 56.8551C332.28 56.4015 332.733 55.854 333.046 55.2126C333.366 54.5635 333.527 53.8478 333.527 53.0657C333.527 51.955 333.292 51.0204 332.823 50.2617C332.362 49.4952 331.685 48.9164 330.794 48.5253C329.909 48.1343 328.826 47.9387 327.544 47.9387ZM324.153 56.2568H327.614C328.427 56.2568 329.104 56.116 329.644 55.8344C330.183 55.5451 330.59 55.1579 330.864 54.673C331.137 54.1881 331.275 53.6523 331.275 53.0657C331.275 52.4087 331.145 51.8338 330.887 51.3411C330.629 50.8483 330.222 50.469 329.667 50.203C329.12 49.9293 328.412 49.7924 327.544 49.7924H324.153V56.2568Z" fill="#292930"/>
</svg>
