<svg width="334" height="122" viewBox="0 0 334 122" fill="none" xmlns="http://www.w3.org/2000/svg">
<path fill-rule="evenodd" clip-rule="evenodd" d="M59.543 25.0599V50.3554L29.8868 27.3863L17.6755 37.5626L59.543 72.1621V98.3298L29.8868 121.008L0.811523 98.3298V72.1621L29.8868 93.9685L42.6802 84.3737L0.811523 51.8095V25.0599L29.8868 0.927734L59.543 25.0599ZM92.8984 46.2067C92.8984 42.0086 89.3466 41.2118 84.1762 40.599C79.6353 40.078 77.702 39.4345 77.702 37.1363C77.702 33.8575 82.5127 33.4897 84.8281 33.4897C87.2335 33.4897 89.7062 34.0413 91.5496 34.9912L91.9093 35.1751L92.3814 33.3059L91.9542 33.0607C90.2008 32.0495 87.3234 31.6205 84.8281 31.6205C80.467 31.6205 75.7238 33.0914 75.7238 37.2895C75.7238 41.3038 78.781 42.0392 84.0638 42.6521C88.6722 43.2036 90.8977 43.8778 90.8977 46.4212C90.8977 50.2822 86.4467 50.8951 83.7491 50.8951C80.9841 50.8951 78.4663 50.3129 76.4431 49.1178L76.0834 48.9033L75.5664 50.7725L75.9261 50.9564C78.2415 52.1515 80.9166 52.7337 83.7266 52.7337C87.3234 52.7337 92.8984 51.5693 92.8984 46.2067ZM115.176 44.6745V31.835H113.356V44.3374C113.356 49.2404 109.601 50.8951 106.117 50.8951C102.655 50.8951 98.9235 49.2404 98.9235 44.3374V31.835H97.0802V44.6745C97.0802 51.0177 102.183 52.795 106.117 52.795C110.096 52.795 115.176 50.987 115.176 44.6745ZM137.807 37.9943C137.807 33.98 135.582 31.835 132.637 31.835H120.138V52.4886H121.959V44.6439H132.637C135.582 44.6439 137.807 42.0086 137.807 37.9943ZM135.941 38.0249C135.941 40.7215 134.525 42.7133 132.502 42.7133H121.959V33.7042H132.3C134.413 33.7042 135.941 35.1751 135.941 38.0249ZM157.752 52.4886V50.65H143.455V41.7328H157.752V39.8942H143.455V33.643H157.752V31.835H141.634V52.4886H157.752ZM179.89 37.2282C179.89 33.6123 177.754 31.835 175.214 31.835H162.648V52.4886H164.469V43.2649H170.853L177.125 52.4886H179.575L172.966 43.0811H175.641C177.799 43.0811 179.89 41.1505 179.89 37.2282ZM178.091 37.3201C178.091 40.5683 176.136 41.3344 175.124 41.3344H164.469V33.7655H174.899C176.675 33.7655 178.091 34.8687 178.091 37.3201ZM201.519 50.7419L201.092 48.8727L200.8 49.0565C198.889 50.2516 196.551 50.8951 193.651 50.8951C189.02 50.8951 185.109 48.1985 185.109 42.1311C185.109 36.0331 188.975 33.4897 193.651 33.4897C196.304 33.4897 198.934 34.2252 200.71 35.267L201.069 35.4815L201.519 33.6123L201.159 33.4284C198.956 32.2946 196.483 31.5286 193.516 31.5286C188.93 31.5286 183.265 34.0413 183.265 42.1618C183.265 49.7307 188.256 52.8256 193.516 52.8256C196.528 52.8256 199.069 52.1821 201.204 50.9257L201.519 50.7419ZM223.758 52.4886V31.835H221.937V39.8329H207.527V31.835H205.706V52.4886H207.527V41.7634H221.937V52.4886H223.758ZM248.272 52.4886L238.516 31.6205H237.122L227.389 52.4886H229.479L231.795 47.3711H243.709L246.024 52.4886H248.272ZM242.9 45.4406H232.604L237.752 34.072L242.9 45.4406ZM269.146 37.2282C269.146 33.6123 267.011 31.835 264.471 31.835H251.904V52.4886H253.725V43.2649H260.109L266.381 52.4886H268.832L262.223 43.0811H264.898C267.056 43.0811 269.146 41.1505 269.146 37.2282ZM267.348 37.3201C267.348 40.5683 265.392 41.3344 264.381 41.3344H253.725V33.7655H264.156C265.932 33.7655 267.348 34.8687 267.348 37.3201ZM290.82 33.6736L290.326 33.3672C288.145 32.0189 285.448 31.5592 282.773 31.5592C277.782 31.5286 272.522 34.3477 272.522 42.0698C272.522 49.7 277.557 52.795 282.773 52.795C285.538 52.795 288.505 52.1821 290.686 50.9257V42.8053H288.865V49.5468C286.774 50.5274 284.931 50.8951 282.908 50.8951C278.344 50.8645 274.388 48.2291 274.388 42.0698C274.388 35.8799 278.277 33.4591 282.908 33.4591C285.358 33.4591 287.898 33.8881 289.854 35.1445L290.326 35.4509L290.82 33.6736ZM311.63 52.4886V50.65H297.333V41.7328H311.63V39.8942H297.333V33.643H311.63V31.835H295.512V52.4886H311.63ZM333.768 37.2282C333.768 33.6123 331.632 31.835 329.091 31.835H316.526V52.4886H318.346V43.2649H324.731L331.002 52.4886H333.452L326.843 43.0811H329.518C331.677 43.0811 333.768 41.1505 333.768 37.2282ZM331.969 37.3201C331.969 40.5683 330.014 41.3344 329.002 41.3344H318.346V33.7655H328.778C330.553 33.7655 331.969 34.8687 331.969 37.3201ZM76.448 87.3358C76.7927 88.688 77.2036 89.7353 77.6809 90.4777C78.1316 91.1405 78.7282 91.4587 79.4706 91.4322C80.2395 91.3792 81.1012 91.0875 82.0557 90.5572C83.0102 90.0005 84.031 89.2448 85.118 88.2903C86.2051 87.3093 87.3054 86.2487 88.419 85.1086C89.5591 83.942 90.6727 82.7356 91.7597 81.4895C92.8468 80.2168 93.8676 79.0105 94.8221 77.8704C95.7766 76.7038 96.6383 75.6565 97.4072 74.7285C98.1761 73.774 98.7992 73.0316 99.2764 72.5013C99.462 72.2892 99.7537 71.9578 100.151 71.507C100.549 71.0563 101 70.5525 101.504 69.9958C102.007 69.4389 102.538 68.8557 103.094 68.2458C103.651 67.6095 104.181 67.0129 104.685 66.4562C105.189 65.8728 105.64 65.3691 106.037 64.9448C106.435 64.4941 106.727 64.1627 106.912 63.9506C106.992 63.6324 106.992 63.3275 106.912 63.0359C106.833 62.7177 106.7 62.4658 106.515 62.2802C106.329 62.0946 106.104 62.0151 105.839 62.0416C105.6 62.0681 105.361 62.2537 105.123 62.5984C103.214 65.1437 101.265 67.5962 99.2764 69.956C97.2879 72.3157 95.1933 74.6622 92.9926 76.9954C91.1897 78.9044 89.2542 80.9062 87.1861 83.0008C85.1445 85.0689 83.0367 86.9646 80.8625 88.688C79.908 89.4304 79.1657 89.6955 78.6354 89.4834C78.1316 89.2448 77.7604 88.688 77.5218 87.8131C77.3097 86.9116 77.2169 85.7847 77.2434 84.4325C77.2964 83.0538 77.4025 81.5823 77.5616 80.018C77.7472 78.4537 77.946 76.8761 78.1581 75.2853C78.3968 73.6944 78.6089 72.2494 78.7945 70.9503C78.98 69.6245 79.0994 68.5375 79.1524 67.689C79.2319 66.8141 79.1922 66.3236 79.0331 66.2175C78.2907 66.6683 77.6676 67.4769 77.1639 68.6435C76.6866 69.8102 76.3154 71.1756 76.0503 72.7399C75.7851 74.3043 75.6261 75.9746 75.573 77.751C75.5465 79.501 75.5995 81.1979 75.7321 82.8417C75.8912 84.4856 76.1298 85.9836 76.448 87.3358ZM98.3617 90.1993C98.7859 90.7296 99.3957 91.1273 100.191 91.3924C101.04 91.6841 102.193 91.7769 103.651 91.6708C105.109 91.5382 106.607 91.2731 108.145 90.8754C109.683 90.4512 111.115 89.9209 112.441 89.2846C113.766 88.6482 114.721 87.9456 115.304 87.1767L114.827 86.7392C114.031 86.9513 113.01 87.243 111.765 87.6142C110.518 87.9589 109.219 88.3036 107.867 88.6482C106.541 88.9664 105.229 89.2316 103.93 89.4437C102.657 89.6292 101.57 89.669 100.668 89.563C99.7934 89.0592 99.4222 88.5024 99.5548 87.8926C99.6874 87.2828 100.112 86.673 100.827 86.0631C101.543 85.4268 102.458 84.7905 103.572 84.1541C104.685 83.5178 105.799 82.908 106.912 82.3247C108.026 81.7149 109.034 81.1581 109.935 80.6543C110.863 80.1505 111.486 79.7131 111.804 79.3419C111.937 79.1828 112.069 78.8911 112.202 78.4669C112.334 78.0427 112.441 77.5655 112.52 77.0352C112.599 76.5049 112.64 75.9614 112.64 75.4046C112.666 74.8478 112.626 74.3573 112.52 73.933C112.414 73.5088 112.229 73.2039 111.963 73.0183C111.725 72.8062 111.393 72.7929 110.969 72.9785C109.723 73.4558 108.49 74.1584 107.27 75.0864C106.077 75.9879 104.924 76.9689 103.81 78.0294C102.697 79.09 101.636 80.1771 100.629 81.2906C99.6476 82.3777 98.7594 83.3455 97.964 84.1939C97.7518 84.8568 97.5928 85.5594 97.4867 86.3018C97.4072 87.0176 97.4337 87.707 97.5663 88.3698C97.6988 89.0327 97.964 89.6425 98.3617 90.1993ZM109.1 76.5579C109.471 76.2928 109.67 76.1735 109.696 76.2C110.279 76.3591 110.558 76.6109 110.532 76.9556C110.532 77.3003 110.333 77.698 109.935 78.1488C109.564 78.5995 109.047 79.0635 108.384 79.5407C107.721 79.9915 107.018 80.4024 106.276 80.7736C105.56 81.1448 104.858 81.4365 104.168 81.6486C103.505 81.8342 102.962 81.8872 102.538 81.8077C102.485 81.8077 102.63 81.6618 102.975 81.3702C103.32 81.052 103.744 80.6808 104.248 80.2566C104.778 79.8324 105.348 79.3816 105.958 78.9044C106.594 78.4006 107.178 77.9499 107.708 77.5522C108.265 77.128 108.729 76.7965 109.1 76.5579ZM129.82 88.8073C129.608 89.6558 129.542 90.5175 129.622 91.3924C129.648 91.4454 129.767 91.578 129.979 91.7901C130.191 91.9757 130.377 91.989 130.536 91.8299C130.695 91.6708 130.828 91.4454 130.934 91.1538C131.04 90.8356 131.12 90.5175 131.173 90.1993C131.226 89.8546 131.265 89.5497 131.292 89.2846C131.345 88.9929 131.385 88.7941 131.411 88.688C131.491 88.5024 131.676 88.0649 131.968 87.3756C132.286 86.6597 132.618 85.9041 132.962 85.1086C133.333 84.2867 133.665 83.5311 133.956 82.8417C134.275 82.1258 134.474 81.6751 134.553 81.4895C135.269 79.8191 135.68 78.5067 135.786 77.5522C135.918 76.5712 135.826 75.8686 135.507 75.4444C135.189 75.0201 134.686 74.8213 133.996 74.8478C133.333 74.8743 132.578 75.0466 131.729 75.3648C130.881 75.6565 129.966 76.0674 128.985 76.5977C128.031 77.128 127.103 77.6715 126.201 78.2283C125.326 78.7851 124.504 79.3286 123.735 79.8589C122.993 80.3626 122.41 80.7604 121.986 81.052C121.853 80.5748 121.879 80.0975 122.065 79.6203C122.277 79.143 122.463 78.679 122.622 78.2283C122.781 77.751 122.847 77.3003 122.821 76.8761C122.821 76.4254 122.542 76.0144 121.986 75.6432C121.879 75.6962 121.628 76.0674 121.23 76.7568C120.832 77.4461 120.368 78.2946 119.838 79.3021C119.308 80.2831 118.737 81.3437 118.128 82.4837C117.545 83.6239 117.001 84.6844 116.497 85.6654C116.02 86.6465 115.609 87.4684 115.264 88.1312C114.946 88.7676 114.8 89.099 114.827 89.1255C114.986 89.6027 115.304 89.7751 115.781 89.6425C116.259 89.4834 116.842 89.1255 117.531 88.5687C118.247 87.9854 119.043 87.2562 119.917 86.3813C120.792 85.5063 121.707 84.5916 122.662 83.6371C123.643 82.6561 124.637 81.7016 125.644 80.7736C126.679 79.8191 127.673 78.9972 128.627 78.3078C129.582 77.592 130.483 77.0617 131.332 76.717C132.207 76.3723 132.976 76.3193 133.638 76.5579C133.877 77.3268 133.93 78.109 133.797 78.9044C133.665 79.6733 133.44 80.4687 133.121 81.2906C132.803 82.0861 132.419 82.908 131.968 83.7564C131.544 84.5784 131.133 85.4136 130.735 86.262C130.364 87.0839 130.059 87.9324 129.82 88.8073ZM140.598 90.9549C140.598 91.1936 140.612 91.3394 140.638 91.3924C140.744 91.6841 140.877 91.8432 141.036 91.8697C141.221 91.8962 141.407 91.8564 141.592 91.7503C141.778 91.6178 141.951 91.472 142.11 91.3129C142.268 91.1273 142.375 90.9947 142.428 90.9152C142.958 89.0857 143.515 87.2828 144.098 85.5063C144.681 83.7034 145.318 81.9137 146.007 80.1373C146.246 79.5805 146.696 79.1695 147.359 78.9044C148.022 78.6127 148.765 78.4139 149.586 78.3078C150.435 78.1753 151.31 78.109 152.211 78.109C153.139 78.0825 153.961 78.056 154.677 78.0294C155.393 77.9764 155.963 77.8836 156.387 77.751C156.811 77.6185 156.957 77.3666 156.825 76.9954C156.745 76.8894 156.652 76.7568 156.546 76.5977C156.44 76.4121 156.374 76.3193 156.348 76.3193H147.797C147.611 75.6034 147.611 74.8478 147.797 74.0524C148.009 73.2569 148.274 72.4615 148.592 71.6661C148.937 70.8707 149.295 70.0885 149.666 69.3196C150.064 68.5242 150.342 67.7818 150.501 67.0925C150.528 66.9864 150.528 66.7743 150.501 66.4562C150.475 66.138 150.408 65.8331 150.302 65.5414C150.223 65.2233 150.09 64.9846 149.904 64.8256C149.719 64.6665 149.48 64.6797 149.189 64.8653C148.712 65.6872 148.248 66.6285 147.797 67.689C147.372 68.7496 146.975 69.8234 146.604 70.9105C146.232 71.9975 145.874 73.0448 145.53 74.0524C145.212 75.0334 144.933 75.8686 144.695 76.5579C144.297 77.1147 143.753 77.4726 143.064 77.6317C142.401 77.7908 141.699 77.9101 140.956 77.9897C140.214 78.0692 139.524 78.215 138.888 78.4271C138.252 78.6127 137.774 79.037 137.456 79.6998C137.669 80.2301 138.013 80.5482 138.491 80.6543C138.994 80.7339 139.524 80.7339 140.081 80.6543C140.665 80.5482 141.248 80.4289 141.831 80.2964C142.414 80.1373 142.905 80.0843 143.303 80.1373C143.382 80.588 143.356 81.0653 143.223 81.569C143.09 82.0463 142.971 82.4705 142.865 82.8417C142.786 83.1334 142.64 83.6371 142.428 84.353C142.216 85.0689 141.99 85.8378 141.752 86.6597C141.513 87.4551 141.288 88.224 141.076 88.9664C140.863 89.6823 140.718 90.186 140.638 90.4777C140.612 90.5572 140.598 90.7163 140.598 90.9549ZM169.512 90.2391C169.936 90.7163 170.506 91.1008 171.222 91.3924C171.778 91.6311 172.269 91.7901 172.693 91.8697C173.118 91.9757 173.674 91.9625 174.364 91.8299C174.39 91.8299 174.509 91.7504 174.721 91.5913C174.934 91.4057 175.132 91.2201 175.318 91.0345C175.53 90.8489 175.689 90.6766 175.795 90.5175C175.901 90.3584 175.862 90.2788 175.676 90.2788H171.659L170.307 88.688C169.83 88.1047 169.618 87.4153 169.671 86.6199C169.724 85.8245 169.909 84.9893 170.227 84.1144C170.546 83.2394 170.917 82.3645 171.341 81.4895C171.792 80.588 172.163 79.7529 172.455 78.9839C172.773 78.215 172.932 77.5389 172.932 76.9556C172.932 76.3458 172.654 75.9083 172.097 75.6432C171.778 75.9083 171.275 76.4386 170.585 77.234C169.896 78.0294 169.101 78.9574 168.199 80.018C167.298 81.052 166.317 82.1391 165.256 83.2792C164.222 84.3928 163.201 85.387 162.194 86.262C161.213 87.137 160.285 87.8263 159.41 88.3301C158.561 88.8073 157.846 88.9266 157.262 88.688C157.103 88.0782 157.196 87.3756 157.54 86.5801C157.885 85.7847 158.336 84.9628 158.893 84.1144C159.476 83.2394 160.086 82.3645 160.722 81.4895C161.385 80.6145 161.915 79.7926 162.313 79.0237C162.737 78.2548 162.976 77.5787 163.029 76.9954C163.109 76.3856 162.843 75.9349 162.233 75.6432C161.968 75.8288 161.584 76.2265 161.08 76.8363C160.603 77.4196 160.073 78.1355 159.489 78.9839C158.933 79.8059 158.349 80.7074 157.739 81.6884C157.156 82.6429 156.639 83.5708 156.188 84.4723C155.738 85.3738 155.393 86.209 155.154 86.9779C154.942 87.7202 154.902 88.2903 155.035 88.688C155.433 89.8546 155.976 90.544 156.666 90.7561C157.382 90.9682 158.164 90.9019 159.012 90.5572C159.86 90.2126 160.735 89.6823 161.637 88.9664C162.565 88.224 163.427 87.5081 164.222 86.8188C165.018 86.1294 165.72 85.5594 166.33 85.1086C166.94 84.6314 167.364 84.4723 167.603 84.6314C167.709 85.3207 167.828 86.0101 167.96 86.6995C168.093 87.3623 168.279 87.9986 168.517 88.6085C168.756 89.2183 169.087 89.7618 169.512 90.2391ZM178.182 90.4777C178.128 91.061 178.128 91.3659 178.182 91.3924C178.288 91.4454 178.447 91.5382 178.659 91.6708C178.871 91.7769 178.99 91.8299 179.017 91.8299C179.229 91.8299 179.56 91.3924 180.011 90.5175C180.488 89.6425 181.072 88.5422 181.761 87.2165C182.477 85.8908 183.312 84.459 184.266 82.9212C185.221 81.3569 186.282 79.9119 187.448 78.5862C188.615 77.2605 189.888 76.147 191.266 75.2455C192.645 74.344 194.13 73.88 195.72 73.8535C196.065 73.3232 196.145 72.952 195.959 72.7399C195.8 72.5013 195.482 72.382 195.005 72.382C194.554 72.3555 193.997 72.4085 193.334 72.5411C192.698 72.6471 192.075 72.7929 191.465 72.9785C190.855 73.1376 190.312 73.31 189.835 73.4956C189.357 73.6547 189.066 73.774 188.959 73.8535C187.872 74.5429 186.878 75.3648 185.977 76.3193C185.102 77.2473 184.293 78.2283 183.551 79.2624C183.339 79.4214 183.14 79.4081 182.954 79.2226C182.768 79.0105 182.583 78.7851 182.397 78.5465C182.212 78.2813 182.026 78.0692 181.841 77.9101C181.655 77.7245 181.469 77.7245 181.284 77.9101C181.019 78.2018 180.74 78.732 180.448 79.501C180.183 80.2434 179.932 81.1183 179.693 82.1258C179.454 83.1068 179.229 84.1409 179.017 85.228C178.805 86.315 178.632 87.3093 178.5 88.2107C178.367 89.1122 178.261 89.8679 178.182 90.4777ZM197.908 90.1993C198.332 90.7296 198.942 91.1273 199.737 91.3924C200.586 91.6841 201.739 91.7769 203.198 91.6708C204.656 91.5382 206.154 91.2731 207.692 90.8754C209.229 90.4512 210.661 89.9209 211.987 89.2846C213.312 88.6482 214.267 87.9456 214.85 87.1767L214.373 86.7392C213.578 86.9513 212.557 87.243 211.311 87.6142C210.065 87.9589 208.765 88.3036 207.413 88.6482C206.087 88.9664 204.775 89.2316 203.476 89.4437C202.203 89.6292 201.116 89.669 200.214 89.563C199.34 89.0592 198.969 88.5024 199.101 87.8926C199.234 87.2828 199.658 86.673 200.374 86.0631C201.09 85.4268 202.004 84.7905 203.118 84.1541C204.231 83.5178 205.345 82.908 206.459 82.3247C207.572 81.7149 208.58 81.1581 209.481 80.6543C210.409 80.1505 211.032 79.7131 211.35 79.3419C211.483 79.1828 211.615 78.8911 211.748 78.4669C211.881 78.0427 211.987 77.5655 212.066 77.0352C212.146 76.5049 212.186 75.9614 212.186 75.4046C212.212 74.8478 212.172 74.3573 212.066 73.933C211.96 73.5088 211.775 73.2039 211.51 73.0183C211.271 72.8062 210.939 72.7929 210.515 72.9785C209.269 73.4558 208.036 74.1584 206.817 75.0864C205.623 75.9879 204.47 76.9689 203.356 78.0294C202.243 79.09 201.182 80.1771 200.175 81.2906C199.194 82.3777 198.306 83.3455 197.51 84.1939C197.298 84.8568 197.139 85.5594 197.033 86.3018C196.953 87.0176 196.98 87.707 197.113 88.3698C197.245 89.0327 197.51 89.6425 197.908 90.1993ZM208.646 76.5579C209.017 76.2928 209.216 76.1735 209.243 76.2C209.826 76.3591 210.104 76.6109 210.078 76.9556C210.078 77.3003 209.879 77.698 209.481 78.1488C209.11 78.5995 208.593 79.0635 207.93 79.5407C207.267 79.9915 206.565 80.4024 205.822 80.7736C205.107 81.1448 204.404 81.4365 203.714 81.6486C203.052 81.8342 202.508 81.8872 202.084 81.8077C202.031 81.8077 202.177 81.6618 202.521 81.3702C202.866 81.052 203.29 80.6808 203.794 80.2566C204.324 79.8324 204.894 79.3816 205.504 78.9044C206.14 78.4006 206.724 77.9499 207.254 77.5522C207.811 77.128 208.275 76.7965 208.646 76.5579ZM214.771 90.5572C214.479 90.9019 214.492 91.1803 214.81 91.3924C214.996 91.525 215.513 91.4852 216.362 91.2731C217.21 91.061 218.191 90.7428 219.304 90.3186C220.445 89.8944 221.624 89.3773 222.844 88.7676C224.064 88.1577 225.138 87.5081 226.065 86.8188C227.02 86.1294 227.736 85.4268 228.213 84.7109C228.691 83.9951 228.73 83.319 228.333 82.6826C227.961 82.0463 227.06 81.463 225.628 80.9327C224.223 80.4024 222.115 79.9915 219.304 79.6998C219.146 79.6203 219 79.501 218.867 79.3419C218.761 79.1828 218.748 78.9972 218.827 78.7851C220.233 77.8306 221.624 76.9821 223.003 76.2398C224.409 75.4974 225.867 74.7019 227.378 73.8535C227.723 73.6679 227.895 73.4558 227.895 73.2172C227.922 72.9785 227.842 72.7664 227.656 72.5808C227.471 72.3687 227.219 72.2097 226.901 72.1036C226.609 71.9975 226.318 71.971 226.026 72.024C225.469 72.1566 224.78 72.435 223.958 72.8593C223.136 73.2835 222.301 73.7607 221.452 74.291C220.63 74.8213 219.861 75.3383 219.146 75.842C218.43 76.3458 217.886 76.7303 217.515 76.9954C216.507 77.6848 215.924 78.2548 215.765 78.7055C215.632 79.1298 215.778 79.4745 216.202 79.7396C216.627 80.0047 217.25 80.2168 218.072 80.3759C218.92 80.535 219.795 80.6941 220.697 80.8531C221.624 80.9857 222.513 81.1448 223.361 81.3304C224.236 81.4895 224.912 81.7281 225.389 82.0463C225.867 82.3379 226.079 82.7356 226.026 83.2394C225.999 83.7167 225.549 84.3265 224.674 85.0689C224.488 85.228 224.077 85.4666 223.441 85.7847C222.804 86.0764 222.062 86.4211 221.214 86.8188C220.392 87.2165 219.53 87.6407 218.628 88.0915C217.727 88.5422 216.931 88.9797 216.242 89.4039C215.579 89.8016 215.089 90.186 214.771 90.5572Z" fill="#292930"/>
</svg>
