<svg width="17" height="20" viewBox="0 0 17 20" fill="none" xmlns="http://www.w3.org/2000/svg">
<path d="M9.96672 17.4667C9.96672 18.3833 9.21672 19.1333 8.30005 19.1333C7.38338 19.1333 6.63338 18.3833 6.63338 17.4667M15.1417 12.3833C13.2167 11.8333 12.8417 9.54166 12.4667 4.96665C12.2584 2.47499 10.8 0.799988 8.30005 0.799988C5.80005 0.799988 4.34172 2.47499 4.13338 4.96665C3.75838 9.54166 3.37505 11.8333 1.45838 12.3833C1.08338 12.4917 0.800049 12.8 0.800049 13.1917V14.9667C0.800049 15.425 1.17505 15.8 1.63338 15.8H14.9667C15.425 15.8 15.8 15.425 15.8 14.9667V13.1917C15.8 12.8 15.5167 12.4833 15.1417 12.3833Z" stroke="#849DC5" stroke-width="1.6" stroke-miterlimit="10" stroke-linecap="round" stroke-linejoin="round"/>
</svg>
