<svg width="245" height="106" viewBox="0 0 245 106" fill="none" xmlns="http://www.w3.org/2000/svg">
<path d="M18.3789 48.9785L34.7079 39.619V20.8584L18.3789 30.2144V48.9785Z" fill="#E09EF8"/>
<path d="M34.707 77.0088L51.0359 67.6493V48.8887L34.707 58.2447V77.0088Z" fill="#0F0BC3"/>
<path d="M51.0352 67.6416L67.3642 58.2821V39.5215L51.0352 48.8775V67.6416Z" fill="#0F0BC3"/>
<path d="M51.0352 48.8888L67.3642 39.5293V20.7686L51.0352 30.1247V48.8888Z" fill="#0F0BC3"/>
<path d="M18.3789 86.3828L34.7079 77.0233V58.2627L18.3789 67.6187V86.3828Z" fill="#0F0BC3"/>
<path d="M18.3789 104.076L34.7079 94.7168V75.9561L18.3789 85.3122V104.076Z" fill="#0F0BC3"/>
<path d="M2.04688 75.957L18.3758 85.3165V104.077L2.04688 94.7212V75.957Z" fill="#8F0FBA"/>
<path d="M2.04688 57.7773L18.3758 67.1368V85.8975L2.04688 76.5415V57.7773Z" fill="#8F0FBA"/>
<path d="M2.04688 39.5215L18.3758 48.881V67.6416L2.04688 58.2856V39.5215Z" fill="#8F0FBA"/>
<path d="M18.3789 48.8887L34.7079 58.2482V77.0088L18.3789 67.6528V48.8887Z" fill="#8F0FBA"/>
<path d="M2.04688 20.8574L18.3758 30.2169V48.9776L2.04688 39.6215V20.8574Z" fill="#8F0FBA"/>
<path d="M50.9843 48.9276L34.7215 58.2694L18.4492 48.9328L34.6907 39.4258L50.9843 48.9276Z" fill="#E09EF8"/>
<path d="M34.759 20.8848L18.3656 30.2196L2.04688 20.8571L18.3348 11.376L34.759 20.8848Z" fill="#C460E6"/>
<path d="M50.8789 11.6135L34.5688 20.8437L18.25 11.4812L34.538 2L50.8789 11.6135Z" fill="#C460E6"/>
<path d="M67.3644 20.7718L51.0257 30.2246L34.4492 20.805L50.7691 11.5537L67.3644 20.7718Z" fill="#C460E6"/>
<path d="M34.707 20.8574L51.0359 30.2169V48.9776L34.707 39.6215V20.8574Z" fill="#E09EF8"/>
<path d="M67.254 20.8575L34.5364 2.00684L2.05078 20.8575L2.09298 94.8574L18.5474 103.96L34.6517 94.8574V76.8626L67.254 58.2292V20.8575Z" stroke="#15001D" stroke-width="3"/>
<path d="M18.3438 30.2129V103.92" stroke="#15001D" stroke-width="3"/>
<path d="M2.01562 20.9602L18.2726 30.3588L34.5805 20.9602M34.5805 20.9602L50.8883 30.3588L67.0945 20.9602M34.5805 20.9602L50.8883 11.4297M34.5805 20.9602L18.2726 11.7799" stroke="#15001D" stroke-width="3"/>
<path d="M50.8906 30.3057V67.4578" stroke="#15001D" stroke-width="3"/>
<path d="M67.3068 39.6172L34.6777 58.2624L2 39.7582" stroke="#15001D" stroke-width="3"/>
<path d="M34.6523 58.1211V77.0088" stroke="#15001D" stroke-width="3"/>
<path d="M34.6496 76.8316L18.5234 67.8145" stroke="#15001D" stroke-width="3"/>
<path d="M2.12109 76.8312L18.3277 86.1089L34.7992 76.5781" stroke="#15001D" stroke-width="3"/>
<path d="M2.12109 39.871L18.3277 49.1488L35.44 39.4307" stroke="#15001D" stroke-width="3"/>
<path d="M33.9609 39.4238L50.5728 48.8715" stroke="#15001D" stroke-width="3"/>
<path d="M2.12109 58.5156L18.3277 67.7933" stroke="#15001D" stroke-width="3"/>
<path d="M34.5898 20.9268V29.0583" stroke="#15001D" stroke-width="3" stroke-linecap="round" stroke-linejoin="round"/>
<path d="M34.5898 33.1934V33.5735" stroke="#15001D" stroke-width="3" stroke-linecap="round" stroke-linejoin="round"/>
<path d="M100.902 33.0271C100.902 34.7244 100.509 36.2697 99.7239 37.6631C98.9386 39.0311 97.7733 40.1204 96.2279 40.9311C94.7079 41.7417 92.8586 42.1471 90.6799 42.1471H87.3359V50.6971H78.8999V23.7931H90.6799C93.9733 23.7931 96.4939 24.6291 98.2419 26.3011C100.015 27.9731 100.902 30.2151 100.902 33.0271ZM89.7299 35.4971C91.4779 35.4971 92.3519 34.6737 92.3519 33.0271C92.3519 31.3804 91.4779 30.5571 89.7299 30.5571H87.3359V35.4971H89.7299ZM112.013 22.5771V50.6971H103.577V22.5771H112.013ZM114.683 39.9811C114.683 37.7264 115.063 35.7757 115.823 34.1291C116.609 32.4571 117.673 31.1904 119.015 30.3291C120.358 29.4424 121.865 28.9991 123.537 28.9991C124.931 28.9991 126.134 29.2905 127.147 29.8731C128.161 30.4304 128.933 31.2031 129.465 32.1911V29.2651H137.863V50.6971H129.465V47.7711C128.933 48.7591 128.161 49.5444 127.147 50.1271C126.134 50.6844 124.931 50.9631 123.537 50.9631C121.865 50.9631 120.358 50.5324 119.015 49.6711C117.673 48.7844 116.609 47.5177 115.823 45.8711C115.063 44.1991 114.683 42.2357 114.683 39.9811ZM129.465 39.9811C129.465 38.8411 129.174 37.9544 128.591 37.3211C128.009 36.6877 127.261 36.3711 126.349 36.3711C125.437 36.3711 124.69 36.6877 124.107 37.3211C123.525 37.9544 123.233 38.8411 123.233 39.9811C123.233 41.1211 123.525 42.0077 124.107 42.6411C124.69 43.2744 125.437 43.5911 126.349 43.5911C127.261 43.5911 128.009 43.2744 128.591 42.6411C129.174 42.0077 129.465 41.1211 129.465 39.9811ZM165.858 29.2651L152.14 60.9571H142.906L148.302 49.6331L139.372 29.2651H148.758L152.786 40.1331L156.548 29.2651H165.858ZM192.597 23.7931V41.1591C192.597 44.3764 191.749 46.8211 190.051 48.4931C188.379 50.1397 186.023 50.9631 182.983 50.9631C179.715 50.9631 177.119 50.0637 175.193 48.2651C173.268 46.4664 172.305 43.8444 172.305 40.3991H180.627C180.627 41.4884 180.805 42.2611 181.159 42.7171C181.514 43.1477 181.995 43.3631 182.603 43.3631C183.11 43.3631 183.503 43.1984 183.781 42.8691C184.06 42.5397 184.199 41.9697 184.199 41.1591V23.7931H192.597ZM206.423 50.9631C204.27 50.9631 202.332 50.5197 200.609 49.6331C198.887 48.7464 197.531 47.4797 196.543 45.8331C195.581 44.1611 195.099 42.2104 195.099 39.9811C195.099 37.7517 195.581 35.8137 196.543 34.1671C197.531 32.4951 198.887 31.2157 200.609 30.3291C202.332 29.4424 204.27 28.9991 206.423 28.9991C208.577 28.9991 210.515 29.4424 212.237 30.3291C213.96 31.2157 215.303 32.4951 216.265 34.1671C217.253 35.8137 217.747 37.7517 217.747 39.9811C217.747 42.2104 217.253 44.1611 216.265 45.8331C215.303 47.4797 213.96 48.7464 212.237 49.6331C210.515 50.5197 208.577 50.9631 206.423 50.9631ZM206.423 43.6671C207.209 43.6671 207.867 43.3631 208.399 42.7551C208.931 42.1217 209.197 41.1971 209.197 39.9811C209.197 38.7651 208.931 37.8531 208.399 37.2451C207.867 36.6117 207.209 36.2951 206.423 36.2951C205.638 36.2951 204.979 36.6117 204.447 37.2451C203.915 37.8531 203.649 38.7651 203.649 39.9811C203.649 41.1971 203.903 42.1217 204.409 42.7551C204.941 43.3631 205.613 43.6671 206.423 43.6671ZM244.604 29.2651L230.886 60.9571H221.652L227.048 49.6331L218.118 29.2651H227.504L231.532 40.1331L235.294 29.2651H244.604Z" fill="white"/>
<path d="M86.5561 90.2295C83.8679 90.2295 81.6605 89.5957 79.934 88.3281C78.2074 87.0386 77.2785 85.2027 77.1474 82.8205H83.9991C84.0646 83.6292 84.305 84.2193 84.7203 84.5908C85.1355 84.9623 85.671 85.1481 86.3267 85.1481C86.9168 85.1481 87.3976 85.006 87.7691 84.7219C88.1625 84.416 88.3592 84.0007 88.3592 83.4762C88.3592 82.7987 88.0423 82.2741 87.4085 81.9026C86.7747 81.531 85.7475 81.1158 84.3269 80.6568C82.8189 80.1542 81.595 79.6733 80.6552 79.2144C79.7373 78.7336 78.9286 78.0451 78.2292 77.149C77.5517 76.2311 77.213 75.04 77.213 73.5757C77.213 72.0895 77.5845 70.8219 78.3276 69.7729C79.0707 68.7019 80.0979 67.8933 81.4092 67.3469C82.7205 66.8005 84.2067 66.5273 85.8677 66.5273C88.5559 66.5273 90.6977 67.1611 92.2932 68.4287C93.9105 69.6745 94.7738 71.4339 94.883 73.7068H87.9003C87.8784 73.0074 87.6598 72.4829 87.2446 72.1332C86.8512 71.7835 86.3376 71.6087 85.7038 71.6087C85.223 71.6087 84.8296 71.7508 84.5236 72.0349C84.2176 72.319 84.0646 72.7233 84.0646 73.2479C84.0646 73.685 84.2285 74.0674 84.5564 74.3953C84.9061 74.7012 85.3322 74.9744 85.8349 75.2148C86.3376 75.4334 87.0807 75.7175 88.0642 76.0672C89.5285 76.5699 90.7305 77.0725 91.6703 77.5752C92.6319 78.056 93.4515 78.7445 94.129 79.6406C94.8284 80.5148 95.1781 81.6294 95.1781 82.9844C95.1781 84.3613 94.8284 85.5961 94.129 86.6889C93.4515 87.7817 92.4571 88.645 91.1458 89.2788C89.8563 89.9126 88.3264 90.2295 86.5561 90.2295ZM109.016 84.5252V90H106.23C101.531 90 99.1815 87.6724 99.1815 83.0172V76.9523H96.9194V71.6087H99.1815V67.1502H105.64V71.6087H108.984V76.9523H105.64V83.1156C105.64 83.6182 105.749 83.9788 105.968 84.1974C106.208 84.416 106.601 84.5252 107.148 84.5252H109.016ZM130.781 71.6087V90H124.323V87.3774C123.776 88.2079 123.022 88.8854 122.061 89.4099C121.099 89.9126 119.995 90.1639 118.75 90.1639C116.608 90.1639 114.914 89.4645 113.668 88.0658C112.444 86.6452 111.832 84.7219 111.832 82.296V71.6087H118.225V81.4764C118.225 82.5255 118.498 83.356 119.045 83.9679C119.613 84.558 120.356 84.8531 121.274 84.8531C122.214 84.8531 122.957 84.558 123.503 83.9679C124.05 83.356 124.323 82.5255 124.323 81.4764V71.6087H130.781ZM133.389 80.788C133.389 78.8865 133.728 77.2255 134.405 75.8049C135.104 74.3843 136.055 73.2916 137.257 72.5266C138.459 71.7617 139.792 71.3792 141.257 71.3792C142.437 71.3792 143.486 71.6306 144.404 72.1332C145.344 72.6141 146.076 73.2806 146.6 74.133V65.7405H153.059V90H146.6V87.4429C146.098 88.2953 145.387 88.9728 144.469 89.4755C143.552 89.9781 142.47 90.2295 141.224 90.2295C139.76 90.2295 138.426 89.847 137.224 89.0821C136.044 88.3171 135.104 87.2244 134.405 85.8038C133.728 84.3613 133.389 82.6894 133.389 80.788ZM146.633 80.788C146.633 79.6078 146.305 78.6789 145.65 78.0014C145.016 77.3239 144.229 76.9851 143.289 76.9851C142.328 76.9851 141.53 77.3239 140.896 78.0014C140.262 78.6571 139.945 79.5859 139.945 80.788C139.945 81.9682 140.262 82.9079 140.896 83.6073C141.53 84.2848 142.328 84.6236 143.289 84.6236C144.229 84.6236 145.016 84.2848 145.65 83.6073C146.305 82.9298 146.633 81.99 146.633 80.788ZM159.966 69.904C158.829 69.904 157.911 69.598 157.212 68.9861C156.534 68.3523 156.196 67.5655 156.196 66.6257C156.196 65.664 156.534 64.8663 157.212 64.2325C157.911 63.5987 158.829 63.2818 159.966 63.2818C161.08 63.2818 161.976 63.5987 162.654 64.2325C163.353 64.8663 163.703 65.664 163.703 66.6257C163.703 67.5655 163.353 68.3523 162.654 68.9861C161.976 69.598 161.08 69.904 159.966 69.904ZM163.146 71.6087V90H156.72V71.6087H163.146ZM175.361 90.2295C173.525 90.2295 171.875 89.847 170.411 89.0821C168.968 88.3171 167.832 87.2244 167.001 85.8038C166.171 84.3832 165.756 82.7112 165.756 80.788C165.756 78.8865 166.171 77.2255 167.001 75.8049C167.854 74.3843 169.001 73.2916 170.444 72.5266C171.908 71.7617 173.558 71.3792 175.394 71.3792C177.23 71.3792 178.869 71.7617 180.311 72.5266C181.776 73.2916 182.923 74.3843 183.754 75.8049C184.606 77.2255 185.032 78.8865 185.032 80.788C185.032 82.6894 184.606 84.3613 183.754 85.8038C182.923 87.2244 181.776 88.3171 180.311 89.0821C178.847 89.847 177.197 90.2295 175.361 90.2295ZM175.361 84.6564C176.257 84.6564 177 84.3285 177.59 83.6729C178.202 82.9954 178.508 82.0337 178.508 80.788C178.508 79.5422 178.202 78.5915 177.59 77.9358C177 77.2802 176.268 76.9523 175.394 76.9523C174.52 76.9523 173.788 77.2802 173.197 77.9358C172.607 78.5915 172.312 79.5422 172.312 80.788C172.312 82.0556 172.596 83.0172 173.165 83.6729C173.733 84.3285 174.465 84.6564 175.361 84.6564ZM195.481 90.2295C193.82 90.2295 192.334 89.9563 191.023 89.4099C189.733 88.8417 188.706 88.0767 187.941 87.1151C187.198 86.1316 186.783 85.0279 186.696 83.804H192.924C193.012 84.3941 193.285 84.8531 193.744 85.1809C194.203 85.5087 194.771 85.6726 195.449 85.6726C195.973 85.6726 196.388 85.5634 196.694 85.3448C197 85.1263 197.153 84.8421 197.153 84.4924C197.153 84.0335 196.902 83.6947 196.399 83.4762C195.897 83.2576 195.066 83.0172 193.908 82.7549C192.597 82.4927 191.504 82.1976 190.63 81.8698C189.755 81.542 188.99 81.0065 188.335 80.2634C187.701 79.5203 187.384 78.515 187.384 77.2474C187.384 76.1546 187.679 75.1711 188.269 74.2969C188.859 73.4008 189.723 72.6905 190.859 72.166C192.017 71.6415 193.405 71.3792 195.022 71.3792C197.427 71.3792 199.317 71.9693 200.694 73.1495C202.071 74.3297 202.869 75.8814 203.087 77.8047H197.285C197.175 77.2146 196.913 76.7666 196.498 76.4606C196.104 76.1328 195.569 75.9689 194.891 75.9689C194.367 75.9689 193.962 76.0672 193.678 76.2639C193.416 76.4606 193.285 76.7338 193.285 77.0835C193.285 77.5206 193.536 77.8593 194.039 78.0997C194.542 78.3183 195.35 78.5478 196.465 78.7882C197.798 79.0723 198.902 79.3892 199.776 79.7389C200.672 80.0886 201.448 80.6568 202.104 81.4436C202.781 82.2086 203.12 83.2576 203.12 84.5908C203.12 85.6617 202.803 86.6233 202.169 87.4757C201.557 88.3281 200.672 89.0056 199.514 89.5083C198.377 89.9891 197.033 90.2295 195.481 90.2295Z" fill="white"/>
</svg>
