<svg width="20" height="20" viewBox="0 0 20 20" fill="none" xmlns="http://www.w3.org/2000/svg">
<path d="M6.40001 1.2C3.53301 1.2 1.20001 3.53299 1.20001 6.4V13.6C1.20001 16.467 3.53301 18.8 6.40001 18.8H13.6C16.467 18.8 18.8 16.467 18.8 13.6V6.4C18.8 3.53299 16.467 1.2 13.6 1.2H6.40001ZM6.40001 2H13.6C16.0346 2 18 3.9654 18 6.4V13.6C18 16.0346 16.0346 18 13.6 18H6.40001C3.96542 18 2.00001 16.0346 2.00001 13.6V6.4C2.00001 3.9654 3.96542 2 6.40001 2ZM14.8 4.4C14.5878 4.4 14.3844 4.48428 14.2343 4.63431C14.0843 4.78434 14 4.98782 14 5.2C14 5.41217 14.0843 5.61565 14.2343 5.76568C14.3844 5.91571 14.5878 6 14.8 6C15.0122 6 15.2157 5.91571 15.3657 5.76568C15.5157 5.61565 15.6 5.41217 15.6 5.2C15.6 4.98782 15.5157 4.78434 15.3657 4.63431C15.2157 4.48428 15.0122 4.4 14.8 4.4ZM10 5.6C7.5747 5.6 5.60001 7.57468 5.60001 10C5.60001 12.4253 7.5747 14.4 10 14.4C12.4253 14.4 14.4 12.4253 14.4 10C14.4 7.57468 12.4253 5.6 10 5.6ZM10 6.4C11.993 6.4 13.6 8.00703 13.6 10C13.6 11.993 11.993 13.6 10 13.6C8.00705 13.6 6.40001 11.993 6.40001 10C6.40001 8.00703 8.00705 6.4 10 6.4Z" fill="url(#paint0_linear_3:17)"/>
<defs>
<linearGradient id="paint0_linear_3:17" x1="10" y1="1.2" x2="10" y2="18.8" gradientUnits="userSpaceOnUse">
<stop stop-color="#3775A3"/>
<stop offset="0.9999" stop-color="#172D3E"/>
<stop offset="1" stop-color="#245076"/>
</linearGradient>
</defs>
</svg>
