<svg width="50" height="50" viewBox="0 0 50 50" fill="none" xmlns="http://www.w3.org/2000/svg">
<path fill-rule="evenodd" clip-rule="evenodd" d="M25.0502 0C31.9732 0 38.194 2.80749 42.7425 7.31952C44.5819 9.15775 46.1204 11.2634 47.291 13.5695L46.4214 15.1069L44.8161 17.9144H37.9933L40.7023 13.2019C40.1672 12.4666 39.5652 11.7981 38.9298 11.1631C35.3846 7.62032 30.4682 5.41444 25.0502 5.41444C19.6321 5.41444 14.7157 7.62032 11.1706 11.1631C7.65886 14.6725 5.45151 19.5187 5.41806 24.8663L1.10368 32.3195C0.401338 30.0134 0 27.5401 0 25C0 18.0815 2.80936 11.865 7.32441 7.31952C11.8729 2.80749 18.1271 0 25.0502 0ZM15.7191 30.3142L13.5451 34.0575H21.4047L22.9766 36.7981H29.7993L16.1873 13.2019L6.18729 30.4813L4.44816 33.5227L4.04682 34.1912L2.74248 36.4305C3.94649 38.7366 5.48495 40.8422 7.29097 42.6805C11.806 47.1925 18.0602 50 24.9833 50C31.9064 50 38.1271 47.1925 42.6756 42.6805C47.1906 38.1684 50 31.9184 50 25C50 22.4599 49.6321 19.9866 48.8963 17.6805L44.5819 25.1337C44.5485 30.4813 42.3411 35.3275 38.8294 38.8369C35.2843 42.3797 30.3679 44.5856 24.9498 44.5856C19.5318 44.5856 14.6154 42.3797 11.0702 38.8369C10.4348 38.2019 9.83278 37.5 9.29766 36.7981L16.1204 25L19.1973 30.3142H15.7191ZM43.0769 20.889H36.2542L33.8796 25.0334L27.0569 13.2353H20.2341L33.8462 36.8316L43.0769 20.889Z" fill="url(#paint0_linear_730_9378)"/>
<defs>
<linearGradient id="paint0_linear_730_9378" x1="25.0379" y1="49.999" x2="25.0379" y2="0.00892105" gradientUnits="userSpaceOnUse">
<stop stop-color="#E63612"/>
<stop offset="1" stop-color="#EC6608"/>
</linearGradient>
</defs>
</svg>
