<svg width="156" height="116" viewBox="0 0 156 116" fill="none" xmlns="http://www.w3.org/2000/svg">
<path fill-rule="evenodd" clip-rule="evenodd" d="M145.688 115.5C151.824 104.397 155.316 91.6293 155.316 78.0459C155.316 35.2185 120.598 0.5 77.7705 0.5C34.9431 0.5 0.224609 35.2185 0.224609 78.0459C0.224609 91.6293 3.7171 104.397 9.8531 115.5H145.688Z" fill="white" fill-opacity="0.13"/>
<path fill-rule="evenodd" clip-rule="evenodd" d="M90.6516 115.5V110.294H118.82C121.029 110.294 122.82 108.503 122.82 106.294V105.853C122.82 103.644 121.029 101.853 118.82 101.853H106.829C109.035 101.849 110.821 100.06 110.821 97.8534V97.413C110.821 95.2039 109.03 93.413 106.821 93.413H90.6516V91.2361H96.3745C98.2249 91.2361 99.083 88.9394 97.6859 87.7261L84.0164 75.8547V56.9464C85.599 55.5397 87.709 51.9877 83.4889 49.0336C82.6097 48.1543 82.2228 46.3959 87.709 46.3959C93.1953 46.3959 94.5673 42.5274 94.5675 40.5932C95.7984 43.055 99.2097 47.9785 103.008 47.9785C107.756 47.9785 110.393 46.9235 112.503 43.2308C117.427 43.055 125.783 42.1758 126.219 36.373L132.549 27.9326L134.183 24.8376C128.11 18.4014 120.948 13.0043 112.991 8.94089H92.8479C90.6388 8.94089 88.8479 10.7317 88.8479 12.9409V13.3813C88.8479 15.5904 90.6388 17.3813 92.8479 17.3813H111.465C110.832 18.6057 110.393 20.0309 110.393 21.6024C108.459 23.3608 104.801 27.4051 105.646 29.5152C106.49 31.6253 101.777 29.691 99.3152 28.4602C97.5571 26.5259 92.9855 24.24 88.7648 30.5702C85.0721 30.7461 78.0033 32.9969 79.2694 40.5932C76.4563 41.9999 71.6741 46.2904 75.0498 52.1987C74.8304 52.4546 74.5465 52.6952 74.2525 52.9444L74.2525 52.9444L74.2525 52.9445C73.1325 53.8939 71.867 54.9668 73.4663 57.4739V66.6924L62.9565 57.565C62.2005 56.9085 61.0756 56.9122 60.3239 57.5736L26.0486 87.7347C24.6643 88.9528 25.5259 91.2361 27.3698 91.2361H32.6241V115.5H63.2156V98.3458C63.2156 95.5844 65.4542 93.3459 68.2156 93.3459H74.0413C76.8027 93.3459 79.0413 95.5844 79.0413 98.3459V115.5H90.6516ZM61.6331 84.9055C65.4205 84.9055 68.4909 81.8351 68.4909 78.0477C68.4909 74.2602 65.4205 71.1899 61.6331 71.1899C57.8456 71.1899 54.7753 74.2602 54.7753 78.0477C54.7753 81.8351 57.8456 84.9055 61.6331 84.9055ZM80.2832 17.3808C82.614 17.3808 84.5034 15.4914 84.5034 13.1606C84.5034 10.8299 82.614 8.94043 80.2832 8.94043C77.9525 8.94043 76.063 10.8299 76.063 13.1606C76.063 15.4914 77.9525 17.3808 80.2832 17.3808ZM49.0914 41.821C54.9182 41.821 59.6418 37.0974 59.6418 31.2705C59.6418 25.4437 54.9182 20.7201 49.0914 20.7201C43.2645 20.7201 38.5409 25.4437 38.5409 31.2705C38.5409 37.0974 43.2645 41.821 49.0914 41.821ZM153.208 60.0121L153.166 60.0113C153.148 60.0111 153.13 60.011 153.112 60.011H127.06C124.851 60.011 123.06 61.8018 123.06 64.011V64.4513C123.06 66.6605 124.851 68.4513 127.06 68.4513H142.247C141.777 69.1069 141.501 69.9102 141.501 70.7781V71.2185C141.501 72.1222 141.801 72.9559 142.306 73.6256H135.719C133.51 73.6256 131.719 75.4165 131.719 77.6256V78.066C131.719 80.2751 133.51 82.066 135.719 82.066H155.214C155.282 80.7346 155.316 79.3943 155.316 78.0459C155.316 71.8372 154.587 65.7989 153.208 60.0121ZM1.17755 71.5494C0.947972 71.5494 0.72291 71.53 0.503906 71.4929C0.965109 66.0573 1.987 60.7816 3.51151 55.7237H17.9752C20.1844 55.7237 21.9753 57.5145 21.9753 59.7237V60.1641C21.9753 61.3292 21.4771 62.3779 20.6822 63.109H29.9743C32.1835 63.109 33.9743 64.8999 33.9743 67.109V67.5494C33.9743 69.7585 32.1835 71.5494 29.9743 71.5494H1.17755Z" fill="white"/>
</svg>
