<svg width="329" height="332" viewBox="0 0 329 332" fill="none" xmlns="http://www.w3.org/2000/svg">
<path d="M246.626 82.9753C243.917 72.5978 235.479 67.3362 224.241 67.359C207.751 67.3922 192.929 62.2366 180.407 52.1112C171.875 45.2112 161.836 44.0441 152.635 50.28C135.364 61.9832 127.589 95.318 135.271 124.737C140.26 143.851 150.549 156.593 161.88 159.974C162.64 160.2 163.389 160.461 164.123 160.754C175.068 165.122 191.661 161.73 208.608 150.247C234.69 132.573 251.713 102.454 246.626 82.9753Z" fill="#0D0F10"/>
<path d="M157.499 88.6382L139.847 82.1993L142.105 39.339L159.325 38.7027L157.499 88.6382Z" fill="#191B1E"/>
<path d="M157.869 63.8514L139.235 64.5384C135.309 64.6834 132.303 61.4814 132.52 57.3887L134.011 29.1555C134.226 25.0623 137.584 21.6252 141.508 21.4812L160.142 20.7942C164.067 20.6492 167.073 23.8511 166.857 27.9439L165.366 56.1771C165.151 60.2703 161.793 63.706 157.869 63.8514Z" fill="#27272B"/>
<path d="M161.216 30.6551C161.327 28.5961 159.819 26.9889 157.851 27.064L143.171 27.618C141.199 27.6918 139.512 29.4196 139.403 31.4791L139.242 34.4723C139.893 35.4087 140.27 37.6065 140.131 40.1931C139.992 42.7796 139.377 45.0148 138.625 46.0046L138.498 48.3657L138.956 48.3488C139.666 48.3223 140.212 48.904 140.173 49.6465C140.153 50.0207 139.993 50.3652 139.746 50.6142C139.498 50.8723 139.169 51.0321 138.812 51.0463L138.354 51.0631L138.16 54.6787C138.051 56.7382 139.557 58.345 141.53 58.2698L156.21 57.7158C158.177 57.642 159.863 55.9138 159.974 53.8548L160.167 50.2392L159.709 50.256C158.999 50.2825 158.453 49.7008 158.493 48.9538C158.512 48.5856 158.678 48.24 158.919 47.9861C159.166 47.7385 159.5 47.5727 159.853 47.5586L160.311 47.5417L160.439 45.176C159.784 44.235 159.411 42.0418 159.55 39.4598C159.688 36.8791 160.298 34.6472 161.057 33.6533L161.216 30.6551ZM157.075 55.6406C156.862 55.8591 156.575 55.9991 156.264 56.0105L141.653 56.5617C141.033 56.5852 140.562 56.082 140.597 55.4353C140.615 55.1104 140.754 54.8131 140.967 54.5946C141.181 54.3716 141.472 54.2315 141.779 54.2202L156.389 53.669C157.009 53.6454 157.485 54.1533 157.45 54.8003C157.432 55.1253 157.293 55.4176 157.075 55.6406ZM158.41 30.7365C158.197 30.955 157.91 31.095 157.599 31.1063L142.989 31.6576C142.369 31.6811 141.897 31.1778 141.933 30.5312C141.951 30.2062 142.089 29.9089 142.302 29.6905C142.516 29.4675 142.807 29.3273 143.114 29.3161L157.724 28.7648C158.344 28.7413 158.82 29.2491 158.786 29.8962C158.767 30.2225 158.628 30.5134 158.41 30.7365Z" fill="#191B1E"/>
<path d="M214.641 110.64L232.526 116.484L260.439 82.4901L247.773 71.5243L214.641 110.64Z" fill="#191B1E"/>
<path d="M230.766 91.6684L244.471 103.527C247.357 106.026 251.86 105.418 254.527 102.171L272.928 79.7795C275.596 76.5336 275.419 71.8753 272.533 69.3787L258.829 57.5197C255.942 55.0213 251.439 55.6292 248.772 58.8755L230.371 81.2675C227.703 84.5134 227.879 89.1699 230.766 91.6684Z" fill="#27272B"/>
<path d="M249.241 66.7569C249.13 67.9741 248.049 70.0421 246.366 72.0913C244.684 74.1392 242.88 75.583 241.73 75.9016L240.189 77.7794L240.526 78.0706C240.784 78.2957 240.925 78.6236 240.94 78.9631C240.949 79.3037 240.836 79.6659 240.595 79.959C240.108 80.5518 239.289 80.6627 238.767 80.2106L238.43 79.9195L236.073 82.7887C234.731 84.4232 234.817 86.761 236.263 88.0142L247.051 97.3552C248.5 98.6111 250.759 98.3037 252.102 96.6697L254.459 93.8005L254.122 93.5093C253.859 93.2811 253.721 92.96 253.711 92.6131C253.695 92.2749 253.812 91.914 254.056 91.6172C254.54 91.0281 255.358 90.9168 255.881 91.3692L256.218 91.6604L257.757 89.7863C257.869 88.5755 258.949 86.5012 260.636 84.4486C262.322 82.3957 264.131 80.9522 265.275 80.6347L267.226 78.2595C268.568 76.6251 268.482 74.2872 267.033 73.0314L256.245 63.6904C254.798 62.4386 252.54 62.7446 251.197 64.3785L249.241 66.7569ZM237.339 85.0402C237.761 84.5267 238.475 84.4295 238.93 84.824L249.667 94.121C249.893 94.316 250.018 94.5998 250.025 94.8989C250.036 95.1947 249.937 95.5057 249.724 95.7633C249.302 96.2768 248.595 96.373 248.14 95.979L237.403 86.682C237.174 86.4843 237.052 86.2032 237.042 85.9078C237.03 85.6069 237.127 85.2997 237.339 85.0402ZM253.572 65.2777C253.994 64.7642 254.708 64.667 255.163 65.0615L265.9 74.3584C266.126 74.5534 266.25 74.8369 266.258 75.1364C266.269 75.4322 266.17 75.7431 265.957 76.0008C265.535 76.5143 264.828 76.6105 264.373 76.2164L253.636 66.9195C253.408 66.7204 253.285 66.4406 253.275 66.1452C253.263 65.8426 253.359 65.5367 253.572 65.2777Z" fill="#191B1E"/>
<path d="M52.4533 219.054L32.729 212.201C30.6883 211.492 29.732 209.132 30.5925 206.929L46.6904 165.706C47.5509 163.502 49.9015 162.292 51.9422 163.001L71.6665 169.854L52.4533 219.054Z" fill="#191B1E"/>
<path d="M39.0827 180.84L64.117 189.661C64.2246 189.699 64.3498 189.633 64.3955 189.514L67.4547 181.562C67.5003 181.443 67.4504 181.317 67.3415 181.279L42.3072 172.458C40.2085 171.719 37.784 172.996 36.8938 175.31C36.0036 177.624 36.984 180.101 39.0827 180.84Z" fill="#4B4A4A"/>
<path d="M32.3248 199.042L57.359 207.862C57.4667 207.9 57.5919 207.834 57.6376 207.715L60.6967 199.763C60.7424 199.645 60.693 199.517 60.5841 199.479L35.5499 190.658C33.4511 189.919 31.0267 191.196 30.1365 193.51C29.2452 195.827 30.2261 198.302 32.3248 199.042Z" fill="#4B4A4A"/>
<path d="M209.196 277.81L228.92 284.663C230.96 285.371 233.312 284.161 234.172 281.957L250.27 240.734C251.13 238.531 250.174 236.171 248.133 235.462L228.409 228.609L209.196 277.81Z" fill="#191B1E"/>
<path d="M245.314 257.005L220.28 248.185C220.172 248.147 220.121 248.019 220.167 247.901L223.226 239.949C223.272 239.83 223.397 239.765 223.504 239.803L248.538 248.624C250.637 249.363 251.617 251.84 250.727 254.154C249.837 256.468 247.413 257.745 245.314 257.005Z" fill="#4B4A4A"/>
<path d="M238.556 275.207L213.522 266.386C213.414 266.349 213.363 266.221 213.409 266.102L216.468 258.15C216.514 258.031 216.639 257.965 216.747 258.003L241.781 266.824C243.88 267.563 244.86 270.04 243.97 272.354C243.079 274.671 240.655 275.946 238.556 275.207Z" fill="#4B4A4A"/>
<g opacity="0.05">
<path d="M54.7246 168.057L51.5303 176.255C49.0277 175.861 46.7031 176.774 45.9976 178.585C45.292 180.395 46.4354 182.517 48.6086 183.753L44.3976 194.56C41.8949 194.166 39.5703 195.079 38.8648 196.89C38.1592 198.701 39.3026 200.823 41.4758 202.059L38.2815 210.256C37.6125 211.973 39.0072 214.041 41.3951 214.873L58.7894 220.936L63.2255 209.552L66.0863 202.209L70.3582 191.246L73.2191 183.904L77.6551 172.519L60.2608 166.456C57.8729 165.624 55.3937 166.34 54.7246 168.057Z" fill="#B6B5B4"/>
<path d="M241.999 250.773C242.705 248.962 241.561 246.84 239.387 245.604L242.581 237.406C243.25 235.689 241.856 233.622 239.468 232.789L222.073 226.727L217.637 238.111L214.776 245.453L210.504 256.417L207.644 263.759L203.208 275.144L220.602 281.206C222.991 282.039 225.47 281.322 226.139 279.605L229.333 271.407C231.836 271.801 234.161 270.888 234.867 269.077C235.572 267.267 234.429 265.145 232.255 263.908L236.466 253.101C238.968 253.497 241.294 252.584 241.999 250.773Z" fill="#B6B5B4"/>
</g>
<path d="M235.08 235.232C229.929 248.592 222.954 260.653 214.721 271.133L212.445 273.978C184.42 307.684 149.185 307.1 112.821 294.241C76.4294 281.371 49.2827 259.894 50.8283 216.823L51.029 213.244C51.8854 200.155 54.7679 186.647 59.9192 173.287C61.2158 169.924 62.6039 166.663 64.1242 163.483C64.1944 163.301 64.2811 163.16 64.3514 162.978C87.9499 170.049 114.842 154.738 125.179 127.927C132.515 108.901 134.615 97.595 124.136 84.3528C123.915 84.0753 123.701 83.791 123.494 83.4999C122.454 82.0376 122.249 80.076 122.931 78.3075L126.741 68.4246C128.164 64.7339 132.64 63.5281 135.403 66.0139C149.578 78.7748 166.612 86.5345 189.751 94.7176C212.861 102.891 231.088 107.602 250.503 106.723C254.29 106.552 256.875 110.255 255.452 113.946L251.649 123.81C250.965 125.583 249.468 126.949 247.679 127.408C247.317 127.501 246.955 127.585 246.594 127.66C229.672 131.212 223.567 141.101 216.231 160.127C205.894 186.938 215.97 215.323 238.675 224.626C238.679 224.636 238.681 224.641 238.685 224.65C237.651 228.187 236.442 231.699 235.08 235.232Z" fill="#191B1E"/>
<path d="M107.829 128.762L230.607 171.232C235.146 172.802 237.269 178.039 235.35 182.929L188.092 303.313L48.8773 255.158L96.1353 134.774C98.0548 129.884 103.291 127.192 107.829 128.762Z" fill="#27272B"/>
<path opacity="0.05" d="M119.384 133.165L218.8 167.535C222.901 168.953 224.821 173.683 223.086 178.101L175.749 298.635L61.4792 259.13L108.817 138.595C110.55 134.179 115.282 131.747 119.384 133.165Z" fill="#B6B5B4"/>
<g opacity="0.3">
<path d="M89.9048 225.493L62.4536 216.008L51.4556 244.018L78.9068 253.503L89.9048 225.493Z" fill="#4B4A4A"/>
</g>
<g opacity="0.3">
<path d="M130.706 240.46L96.3777 228.582L85.3224 256.775L119.651 268.652L130.706 240.46Z" fill="#4B4A4A"/>
</g>
<g opacity="0.3">
<path d="M171.507 255.609L137.179 243.731L126.124 271.924L160.452 283.801L171.507 255.609Z" fill="#4B4A4A"/>
</g>
<g opacity="0.3">
<path d="M205.379 268.367L177.928 258.882L166.93 286.893L194.381 296.378L205.379 268.367Z" fill="#4B4A4A"/>
</g>
<g opacity="0.3">
<path d="M103.43 189.055L75.979 179.57L64.981 207.581L92.4322 217.066L103.43 189.055Z" fill="#4B4A4A"/>
</g>
<g opacity="0.3">
<path d="M144.231 204.023L109.903 192.145L98.848 220.338L133.176 232.215L144.231 204.023Z" fill="#4B4A4A"/>
</g>
<g opacity="0.3">
<path d="M185.033 219.172L150.705 207.294L139.649 235.487L173.977 247.364L185.033 219.172Z" fill="#4B4A4A"/>
</g>
<g opacity="0.3">
<path d="M218.906 231.93L191.455 222.445L180.457 250.456L207.908 259.941L218.906 231.93Z" fill="#4B4A4A"/>
</g>
<path d="M190.459 154.732C190.62 155.407 190.383 156.732 189.8 158.166C189.216 159.6 188.452 160.733 187.854 161.133L187.32 162.447L187.566 162.537C187.756 162.605 187.897 162.753 187.968 162.932C188.036 163.113 188.038 163.33 187.955 163.535C187.786 163.95 187.338 164.173 186.957 164.035L186.711 163.945L185.893 165.954C185.428 167.097 185.909 168.335 186.966 168.718L194.855 171.58C195.914 171.965 197.15 171.35 197.614 170.206L198.431 168.197L198.185 168.107C197.993 168.038 197.854 167.892 197.784 167.709C197.713 167.531 197.713 167.314 197.798 167.106C197.965 166.693 198.413 166.471 198.795 166.609L199.041 166.699L199.574 165.388C199.414 164.717 199.65 163.388 200.234 161.952C200.819 160.515 201.586 159.38 202.181 158.982L202.858 157.319C203.324 156.176 202.843 154.938 201.782 154.555L193.894 151.693C192.837 151.309 191.602 151.923 191.137 153.067L190.459 154.732ZM187.031 166.91C187.177 166.552 187.566 166.357 187.9 166.477L195.752 169.326C195.917 169.386 196.041 169.513 196.101 169.672C196.162 169.829 196.163 170.015 196.089 170.195C195.943 170.553 195.557 170.746 195.223 170.626L187.371 167.777C187.203 167.716 187.083 167.59 187.021 167.434C186.96 167.274 186.958 167.09 187.031 166.91ZM192.661 153.078C192.808 152.718 193.197 152.524 193.531 152.645L201.382 155.494C201.548 155.554 201.671 155.681 201.731 155.84C201.793 155.996 201.793 156.183 201.72 156.363C201.573 156.721 201.187 156.914 200.853 156.794L193.002 153.945C192.834 153.884 192.713 153.758 192.652 153.601C192.589 153.441 192.587 153.259 192.661 153.078Z" fill="#4B4A4A"/>
<path d="M136.229 134.598C136.39 135.272 136.153 136.597 135.571 138.031C134.986 139.465 134.223 140.599 133.624 140.998L133.09 142.312L133.336 142.402C133.526 142.471 133.667 142.619 133.738 142.798C133.806 142.978 133.809 143.195 133.725 143.401C133.557 143.815 133.11 144.039 132.727 143.9L132.481 143.81L131.664 145.819C131.198 146.963 131.679 148.2 132.737 148.583L140.625 151.445C141.685 151.83 142.92 151.216 143.384 150.072L144.202 148.063L143.955 147.973C143.763 147.903 143.624 147.757 143.555 147.575C143.483 147.396 143.483 147.18 143.568 146.971C143.736 146.558 144.183 146.337 144.565 146.475L144.811 146.565L145.344 145.253C145.185 144.583 145.42 143.254 146.004 141.817C146.589 140.381 147.357 139.245 147.951 138.848L148.628 137.185C149.094 136.041 148.613 134.804 147.553 134.42L139.664 131.558C138.607 131.174 137.372 131.789 136.907 132.932L136.229 134.598ZM132.801 146.775C132.947 146.417 133.337 146.222 133.671 146.342L141.522 149.191C141.688 149.252 141.811 149.378 141.871 149.538C141.932 149.694 141.933 149.881 141.859 150.061C141.713 150.419 141.327 150.612 140.993 150.492L133.142 147.643C132.974 147.582 132.853 147.456 132.792 147.299C132.729 147.139 132.727 146.955 132.801 146.775ZM138.43 132.943C138.577 132.583 138.966 132.389 139.3 132.51L147.151 135.359C147.317 135.419 147.44 135.546 147.5 135.705C147.562 135.861 147.562 136.048 147.488 136.228C147.342 136.586 146.956 136.779 146.622 136.659L138.771 133.81C138.603 133.749 138.482 133.623 138.421 133.467C138.359 133.307 138.357 133.124 138.43 132.943Z" fill="#4B4A4A"/>
<path d="M169.736 143.924C180.935 147.82 193.323 142.509 197.405 132.06C201.487 121.612 195.718 109.983 184.519 106.087C173.32 102.191 160.932 107.502 156.85 117.95C152.768 128.399 158.537 140.028 169.736 143.924Z" fill="#27272B"/>
<path opacity="0.25" d="M170.827 141.964C181.261 145.596 192.547 141.303 196.033 132.375C199.52 123.447 193.887 113.266 183.453 109.633C173.018 106.001 161.733 110.294 158.246 119.222C154.76 128.15 160.392 138.332 170.827 141.964Z" fill="#000100"/>
<path d="M170.814 141.17C181.249 144.803 192.534 140.51 196.021 131.582C199.508 122.654 193.875 112.472 183.44 108.84C173.006 105.208 161.72 109.501 158.234 118.429C154.747 127.356 160.38 137.538 170.814 141.17Z" fill="#191B1E"/>
<path opacity="0.25" d="M172.248 138.325C180.409 141.166 189.215 137.861 191.916 130.943C194.617 124.025 190.192 116.114 182.031 113.273C173.87 110.433 165.065 113.738 162.363 120.655C159.662 127.573 164.088 135.484 172.248 138.325Z" fill="#000100"/>
<path d="M172.118 137.831C180.126 140.618 188.861 137.135 191.628 130.051C194.395 122.968 190.146 114.966 182.137 112.179C174.129 109.392 165.394 112.875 162.627 119.959C159.86 127.042 164.109 135.044 172.118 137.831Z" fill="#27272B"/>
<path opacity="0.25" d="M182.856 133.096C183.269 132.307 183.419 131.378 183.263 130.582C182.873 131.366 182.3 132.053 181.635 132.532C181.144 132.887 180.562 133.176 180.279 133.759C180.195 133.932 180.149 134.109 180.137 134.28C175.6 134.955 171.704 133.596 168.715 130.295C168.823 130.158 168.908 129.995 168.963 129.812C169.147 129.195 168.903 128.617 168.772 128.045C168.594 127.272 168.629 126.397 168.869 125.561C168.203 126.072 167.681 126.87 167.457 127.724C167.234 127.242 167.155 126.656 167.232 126.062C166.759 126.677 166.458 127.456 166.4 128.212C166.361 128.714 166.433 129.185 166.589 129.604C166.177 129.991 165.798 130.345 165.255 130.854C169.291 136.63 175.365 138.748 182.39 136.83C182.325 136.11 182.279 135.608 182.231 135.06C182.636 134.839 183.014 134.523 183.329 134.117C183.804 133.505 184.108 132.727 184.169 131.97C183.819 132.469 183.355 132.865 182.856 133.096Z" fill="#000100"/>
<path d="M180.534 133.707C180.808 133.144 181.374 132.865 181.851 132.523C182.497 132.061 183.054 131.398 183.432 130.642C183.585 131.412 183.441 132.308 183.038 133.068C183.524 132.846 183.973 132.463 184.311 131.981C184.252 132.713 183.956 133.463 183.496 134.053C182.934 134.775 182.163 135.212 181.392 135.299C181.005 135.343 180.808 135.257 180.588 134.94C180.361 134.613 180.318 134.146 180.534 133.707Z" fill="#545455"/>
<path d="M168.85 129.299C169.029 128.703 168.791 128.145 168.663 127.593C168.49 126.847 168.522 126.002 168.755 125.196C168.108 125.688 167.601 126.458 167.384 127.282C167.167 126.817 167.089 126.251 167.164 125.678C166.704 126.271 166.413 127.023 166.357 127.753C166.288 128.646 166.574 129.449 167.101 129.986C167.365 130.256 167.574 130.311 167.96 130.204C168.357 130.094 168.71 129.764 168.85 129.299Z" fill="#545455"/>
<path d="M165.392 130.36C166.293 129.507 166.743 129.08 167.642 128.228C171.165 133.272 176.265 135.065 182.37 133.408C182.476 134.616 182.529 135.22 182.635 136.425C175.565 138.385 169.45 136.238 165.392 130.36Z" fill="#4B4A4A"/>
<path opacity="0.25" d="M174.643 131.215C178.792 132.65 183.621 130.081 185.429 125.477C187.237 120.873 185.339 115.978 181.19 114.543C177.041 113.109 172.212 115.678 170.404 120.282C168.596 124.886 170.494 129.781 174.643 131.215Z" fill="#000100"/>
<path d="M174.812 130.76C178.961 132.195 183.79 129.625 185.598 125.021C187.406 120.418 185.508 115.523 181.359 114.088C177.21 112.654 172.381 115.223 170.573 119.827C168.765 124.431 170.663 129.326 174.812 130.76Z" fill="#4B4A4A"/>
<path d="M171.567 120.17C173.135 116.175 177.325 113.945 180.925 115.19C184.525 116.434 186.171 120.682 184.603 124.677C183.034 128.672 178.844 130.901 175.244 129.657C171.645 128.412 169.998 124.165 171.567 120.17Z" fill="#545455"/>
<path d="M180.942 123.411L184.206 121.148L180.529 120.331L180.431 116.451L177.672 119.343L174.309 117.726L175.228 121.436L171.964 123.699L175.641 124.516L175.74 128.398L178.498 125.504L181.861 127.121L180.942 123.411Z" fill="#4B4A4A"/>
<g opacity="0.25">
<path d="M184.617 112.222C184.893 111.731 184.711 111.103 184.194 110.857C183.205 110.373 182.092 109.983 181.009 109.74C180.448 109.608 179.883 109.975 179.757 110.518C179.633 111.062 179.946 111.569 180.447 111.687C181.63 111.964 182.205 112.166 183.294 112.685C183.757 112.905 184.341 112.713 184.617 112.222Z" fill="white"/>
</g>
<g opacity="0.25">
<path d="M196.253 129.315C196.533 129.357 196.821 129.156 196.877 128.868C196.99 128.313 197.041 127.716 197.022 127.16C197.016 126.872 196.761 126.671 196.474 126.71C196.188 126.751 195.977 126.991 195.982 127.249C195.997 127.857 195.97 128.165 195.852 128.774C195.803 129.034 195.974 129.276 196.253 129.315Z" fill="white"/>
</g>
<g opacity="0.25">
<path d="M158.634 122.078C157.914 122.145 157.271 122.677 157.253 123.259C157.201 124.379 157.325 125.544 157.607 126.595C157.747 127.144 158.472 127.393 159.176 127.168C159.88 126.942 160.311 126.372 160.186 125.882C159.894 124.727 159.829 124.125 159.868 122.901C159.885 122.383 159.353 122.011 158.634 122.078Z" fill="white"/>
</g>
</svg>
