<svg width="89" height="98" viewBox="0 0 89 98" fill="none" xmlns="http://www.w3.org/2000/svg">
<path fill-rule="evenodd" clip-rule="evenodd" d="M84.7791 7.9752C92.1649 15.3611 89.5814 29.9349 79.0079 40.5085C68.4239 51.0925 53.8604 53.676 46.4746 46.2797L43.5369 43.342L81.8518 5.0271L84.7791 7.9752Z" fill="url(#paint0_linear_0_8847)"/>
<path fill-rule="evenodd" clip-rule="evenodd" d="M81.8414 5.03741C89.3315 12.5275 86.8313 27.1742 76.2473 37.7582C65.6737 48.3422 51.027 50.8424 43.5369 43.3523C36.0469 35.8623 38.547 21.2155 49.131 10.6315C59.7046 0.0475109 74.3514 -2.45265 81.8414 5.03741Z" fill="url(#paint1_linear_0_8847)"/>
<path fill-rule="evenodd" clip-rule="evenodd" d="M79.6538 6.31882C86.5397 12.8609 84.5395 26.1638 75.1639 36.029C65.7988 45.9047 52.6209 48.6027 45.7246 42.0607C38.8387 35.5186 40.8389 22.2157 50.2144 12.3505C59.5796 2.48525 72.7575 -0.223256 79.6538 6.31882Z" fill="#FFEE76"/>
<path fill-rule="evenodd" clip-rule="evenodd" d="M79.9142 6.96453C86.6543 13.7045 84.3937 26.872 74.8827 36.3935C65.3717 45.9045 52.1937 48.1546 45.4537 41.4251C38.7137 34.685 40.9743 21.5175 50.4853 11.9961C59.9963 2.47467 73.1846 0.234943 79.9142 6.96453Z" fill="url(#paint2_linear_0_8847)"/>
<path fill-rule="evenodd" clip-rule="evenodd" d="M45.9952 41.9253C39.8803 35.0499 42.2658 22.3095 51.5268 13.0381C60.7983 3.76668 73.5387 1.39153 80.4141 7.5065C80.2474 7.31898 80.0807 7.14189 79.9141 6.97521C73.1741 0.235205 60.0066 2.49576 50.4851 12.0068C40.9637 21.5178 38.724 34.6957 45.4535 41.4357C45.6411 41.592 45.8181 41.7691 45.9952 41.9253Z" fill="url(#paint3_linear_0_8847)"/>
<path opacity="0.5" fill-rule="evenodd" clip-rule="evenodd" d="M76.2577 37.7584C74.518 39.4981 72.6637 41.019 70.7573 42.3108L73.5179 45.0714C75.4243 43.7692 77.2682 42.2483 79.0183 40.5086C82.6956 36.8313 85.4145 32.6643 87.0709 28.487L84.2894 25.7056C82.6331 29.9037 79.935 34.0811 76.2577 37.7584Z" fill="url(#paint4_linear_0_8847)"/>
<path opacity="0.5" fill-rule="evenodd" clip-rule="evenodd" d="M59.5588 47.1754C53.3917 48.4463 47.558 47.29 43.6411 43.4668L46.4642 46.2899C50.329 50.1547 56.1627 51.2902 62.361 49.9776L59.5588 47.1754Z" fill="url(#paint5_linear_0_8847)"/>
<path opacity="0.4" fill-rule="evenodd" clip-rule="evenodd" d="M88.9773 20.0279C89.196 15.3088 87.8418 11.0273 84.7895 7.97504L81.8518 5.03735C84.9458 8.1313 86.3417 12.4545 86.1542 17.2048L88.9773 20.0279Z" fill="url(#paint6_linear_0_8847)"/>
<path fill-rule="evenodd" clip-rule="evenodd" d="M83.0916 28.3828C82.1644 30.2267 81.0289 32.0497 79.7059 33.7998C78.6746 35.1645 77.5183 36.4875 76.2578 37.7584L79.008 40.5086C81.904 37.6126 84.2062 34.4144 85.8626 31.1434L83.0916 28.3828Z" fill="url(#paint7_linear_0_8847)"/>
<path opacity="0.65" fill-rule="evenodd" clip-rule="evenodd" d="M80.4351 36.0499C80.8831 36.4979 81.2477 36.9458 81.5394 37.3729C81.5706 37.4146 81.5602 37.4875 81.5081 37.5396C81.456 37.5917 81.3935 37.6021 81.3414 37.5708C80.9143 37.2896 80.4664 36.9146 80.0184 36.4666C79.5705 36.0187 79.2059 35.5707 78.9142 35.1436C78.883 35.1019 78.8934 35.029 78.9455 34.9769C78.9975 34.9248 79.0601 34.9144 79.1121 34.9457C79.5393 35.2269 79.9976 35.602 80.4351 36.0499ZM82.727 32.9247C83.1645 33.3622 83.5395 33.8206 83.8208 34.2373C83.852 34.279 83.8416 34.3519 83.7999 34.3936C83.7583 34.4352 83.6853 34.4456 83.6437 34.4144C83.227 34.1331 82.7686 33.7581 82.3311 33.3206C81.8936 32.8831 81.5185 32.4247 81.2373 32.008C81.206 31.9663 81.2164 31.8934 81.2581 31.8517C81.2998 31.8101 81.3727 31.7996 81.4144 31.8309C81.8311 32.1122 82.2894 32.4872 82.727 32.9247ZM84.6646 29.5703C85.1021 30.0079 85.4771 30.4558 85.7584 30.8725C85.7896 30.9142 85.7792 30.9871 85.7376 31.0288C85.6959 31.0704 85.6334 31.0809 85.5813 31.0496C85.1646 30.7683 84.7167 30.3933 84.2791 29.9558C83.8416 29.5183 83.4666 29.0703 83.1853 28.6536C83.1541 28.6119 83.1645 28.539 83.2061 28.4974C83.2478 28.4557 83.3103 28.4453 83.3624 28.4765C83.7791 28.7578 84.2271 29.1328 84.6646 29.5703ZM86.1959 26.018C86.6335 26.4556 87.0085 26.8931 87.2897 27.3098C87.321 27.3514 87.3106 27.414 87.2689 27.4556C87.2272 27.4973 87.1647 27.5077 87.1231 27.4765C86.7168 27.1952 86.2688 26.8202 85.8313 26.3826C85.3938 25.9451 85.0188 25.5076 84.7375 25.0909C84.7062 25.0492 84.7167 24.9867 84.7583 24.945C84.8 24.9034 84.8625 24.893 84.9042 24.9242C85.3104 25.2055 85.7584 25.5805 86.1959 26.018ZM87.2377 22.2886C87.6752 22.7262 88.0398 23.1637 88.3315 23.5595C88.3627 23.6012 88.3627 23.6637 88.3211 23.7054C88.2794 23.7471 88.2169 23.7471 88.1752 23.7158C87.7689 23.4345 87.3314 23.0595 86.9043 22.622C86.4668 22.1845 86.1022 21.7469 85.8105 21.3511C85.7792 21.3094 85.7896 21.2469 85.8209 21.2052C85.8626 21.1636 85.9251 21.1636 85.9667 21.1948C86.3626 21.4865 86.8105 21.8615 87.2377 22.2886ZM87.7168 18.4551C88.144 18.8822 88.519 19.3197 88.8003 19.7156C88.8315 19.7572 88.8315 19.8197 88.7898 19.851C88.7482 19.8926 88.6961 19.8926 88.6544 19.8614C88.2586 19.5801 87.821 19.2051 87.3939 18.778C86.9668 18.3509 86.5918 17.9134 86.3105 17.5175C86.2793 17.4758 86.2793 17.4133 86.3209 17.3821C86.3626 17.3404 86.4147 17.3404 86.4564 17.3717C86.8522 17.6529 87.2897 18.0175 87.7168 18.4551ZM87.4981 14.5902C87.9252 15.0173 88.3002 15.4444 88.5815 15.8403C88.6127 15.882 88.6127 15.9445 88.5711 15.9757C88.5398 16.007 88.4773 16.0174 88.4356 15.9861C88.0398 15.6945 87.6127 15.3299 87.1856 14.9027C86.7585 14.4756 86.3834 14.0485 86.1022 13.6527C86.0709 13.611 86.0709 13.5485 86.1126 13.5172C86.1438 13.486 86.2063 13.4756 86.248 13.5068C86.6439 13.7881 87.071 14.1631 87.4981 14.5902ZM74.5389 41.9461C74.9869 42.3941 75.4348 42.7587 75.8619 43.0504C75.9036 43.0816 75.9765 43.0712 76.0286 43.0191C76.0807 42.967 76.0911 42.9045 76.0599 42.8524C75.7786 42.4253 75.4036 41.9774 74.9556 41.5294C74.5077 41.0815 74.0597 40.7065 73.6326 40.4252C73.5805 40.3939 73.518 40.4044 73.466 40.4564C73.4139 40.5085 73.4035 40.571 73.4347 40.6231C73.7264 41.0398 74.1014 41.4982 74.5389 41.9461ZM71.4242 44.2275C71.8617 44.665 72.32 45.0401 72.7367 45.3213C72.7784 45.3526 72.8513 45.3422 72.893 45.3005C72.9347 45.2588 72.9451 45.1859 72.9138 45.1442C72.6326 44.7275 72.2575 44.2692 71.82 43.8317C71.3825 43.3941 70.9241 43.0191 70.5074 42.7378C70.4658 42.7066 70.3928 42.717 70.3512 42.7587C70.3095 42.8003 70.2991 42.8733 70.3303 42.9149C70.6012 43.342 70.9762 43.79 71.4242 44.2275ZM68.0698 46.1651C68.5073 46.6027 68.9552 46.9777 69.3719 47.259C69.4136 47.2902 69.4865 47.2798 69.5282 47.2381C69.5699 47.1965 69.5803 47.1339 69.549 47.0819C69.2678 46.6652 68.8928 46.2172 68.4552 45.7797C68.0177 45.3422 67.5698 44.9671 67.1531 44.6859C67.1114 44.6546 67.0385 44.665 66.9968 44.7067C66.9551 44.7484 66.9447 44.8109 66.976 44.863C67.2572 45.2797 67.6322 45.7276 68.0698 46.1651ZM64.5175 47.6965C64.955 48.134 65.3925 48.509 65.8092 48.7903C65.8509 48.8216 65.9134 48.8111 65.9551 48.7695C65.9967 48.7278 66.0071 48.6653 65.9759 48.6236C65.6946 48.2173 65.3196 47.7694 64.8821 47.3319C64.4445 46.8943 64.007 46.5193 63.5903 46.2381C63.5487 46.2068 63.4861 46.2172 63.4445 46.2589C63.4028 46.3006 63.3924 46.3631 63.4237 46.4047C63.7049 46.8214 64.0799 47.259 64.5175 47.6965ZM60.7881 48.7486C61.2256 49.1862 61.6631 49.5508 62.059 49.8425C62.1006 49.8737 62.1632 49.8737 62.2048 49.832C62.2465 49.7904 62.2465 49.7279 62.2152 49.6862C61.934 49.2799 61.5589 48.8424 61.1214 48.4153C60.6839 47.9778 60.2464 47.6131 59.8505 47.3215C59.8088 47.2902 59.7463 47.2902 59.7047 47.3319C59.663 47.3735 59.663 47.4361 59.6943 47.4777C59.9859 47.8736 60.3505 48.3111 60.7881 48.7486ZM56.9441 49.2278C57.3712 49.6549 57.8087 50.03 58.2046 50.3112C58.2462 50.3425 58.3087 50.3425 58.34 50.3008C58.3817 50.2591 58.3817 50.2071 58.3504 50.1654C58.0691 49.7695 57.6941 49.332 57.267 48.9049C56.8399 48.4778 56.4024 48.1028 56.0065 47.8215C55.9648 47.7902 55.9023 47.7902 55.8711 47.8319C55.8294 47.8736 55.8294 47.9257 55.8607 47.9673C56.1419 48.3632 56.517 48.7903 56.9441 49.2278ZM53.0897 49.0091C53.5168 49.4362 53.9439 49.8112 54.3397 50.0925C54.3814 50.1237 54.4439 50.1237 54.4752 50.0821C54.5064 50.0508 54.5168 49.9883 54.4856 49.9466C54.1939 49.5508 53.8293 49.1237 53.4022 48.6965C52.9751 48.2694 52.548 47.8944 52.1521 47.6131C52.1104 47.5819 52.0479 47.5819 52.0167 47.6236C51.9854 47.6548 51.975 47.7173 52.0063 47.759C52.2875 48.1444 52.6521 48.5715 53.0897 49.0091ZM49.3603 47.9569C49.7874 48.384 50.2145 48.7486 50.5999 49.0403C50.6416 49.0716 50.6937 49.0716 50.7353 49.0403C50.7666 49.0091 50.7666 48.957 50.7353 48.9049C50.4437 48.5195 50.0791 48.0923 49.652 47.6652C49.2248 47.2381 48.7977 46.8735 48.4123 46.5818C48.3706 46.5506 48.3185 46.5506 48.2769 46.5818C48.2456 46.6131 48.2456 46.6652 48.2769 46.7173C48.5685 47.1027 48.9332 47.5298 49.3603 47.9569ZM77.8412 38.9147C78.2892 39.3626 78.6642 39.821 78.9455 40.2481C78.9767 40.3002 78.9663 40.3627 78.9142 40.4148C78.8621 40.4669 78.7996 40.4773 78.7475 40.446C78.3204 40.1648 77.8621 39.7897 77.4141 39.3418C76.9662 38.8938 76.5911 38.4355 76.3099 38.0084C76.2786 37.9563 76.289 37.8938 76.3411 37.8417C76.3932 37.7896 76.4557 37.7792 76.5078 37.8104C76.9349 38.1021 77.4037 38.4771 77.8412 38.9147ZM86.4459 10.8712C86.873 11.2984 87.2377 11.7255 87.5293 12.1109C87.5606 12.1526 87.5606 12.2047 87.5293 12.2463C87.4981 12.2776 87.446 12.2776 87.3939 12.2463C87.0085 11.9546 86.5814 11.59 86.1542 11.1629C85.7271 10.7358 85.3625 10.3087 85.0709 9.92327C85.0396 9.8816 85.0396 9.82951 85.0709 9.78784C85.1021 9.75659 85.1542 9.75659 85.2063 9.78784C85.6021 10.0691 86.0292 10.4441 86.4459 10.8712Z" fill="#663D1F"/>
<path fill-rule="evenodd" clip-rule="evenodd" d="M3.25305 54.2597C-3.91407 63.6249 1.15917 79.5425 14.5663 89.7932C27.9838 100.044 44.6619 100.763 51.8186 91.3974L54.6626 87.668L6.08657 50.5303L3.25305 54.2597Z" fill="url(#paint8_linear_0_8847)"/>
<path fill-rule="evenodd" clip-rule="evenodd" d="M6.10746 50.5404C-1.15342 60.041 3.83649 76.0525 17.2436 86.3031C30.6611 96.5538 47.4122 97.1684 54.673 87.6782C61.9339 78.1776 56.944 62.1662 43.5369 51.9155C30.1194 41.6545 13.3683 41.0398 6.10746 50.5404Z" fill="url(#paint9_linear_0_8847)"/>
<path fill-rule="evenodd" clip-rule="evenodd" d="M8.75335 51.6448C2.02376 59.9891 6.2532 74.5629 18.2019 84.2094C30.1505 93.8558 45.2973 94.908 52.0269 86.5637C58.7565 78.2194 54.5271 63.6456 42.5784 53.9991C30.6297 44.3631 15.4829 43.3005 8.75335 51.6448Z" fill="#FFEE76"/>
<path fill-rule="evenodd" clip-rule="evenodd" d="M8.5449 52.4054C2.01323 60.9476 6.5031 75.3443 18.5664 84.5636C30.6296 93.783 45.7035 94.3351 52.2351 85.8033C58.7668 77.2611 54.277 62.8643 42.2137 53.645C30.1504 44.4257 15.0766 43.8736 8.5449 52.4054Z" fill="url(#paint10_linear_0_8847)"/>
<path fill-rule="evenodd" clip-rule="evenodd" d="M51.7038 86.4492C57.5063 77.8444 52.9539 63.9477 41.2032 54.9576C29.4524 45.9778 14.8474 45.2174 8.06567 53.0825C8.22193 52.8533 8.37819 52.6241 8.55529 52.4053C15.087 43.8631 30.1608 44.4152 42.2241 53.645C54.2873 62.8643 58.7668 77.2715 52.2455 85.8033C52.058 86.0325 51.8809 86.2408 51.7038 86.4492Z" fill="url(#paint11_linear_0_8847)"/>
<path opacity="0.5" fill-rule="evenodd" clip-rule="evenodd" d="M17.2433 86.3033C19.4518 87.9909 21.7436 89.418 24.0771 90.5848L21.3998 94.085C19.0767 92.9183 16.7745 91.4911 14.5765 89.8035C9.9095 86.2303 6.25301 81.9801 3.77368 77.5527L6.47178 74.0212C8.93027 78.4694 12.5763 82.7405 17.2433 86.3033Z" fill="url(#paint12_linear_0_8847)"/>
<path opacity="0.5" fill-rule="evenodd" clip-rule="evenodd" d="M37.3178 94.3454C44.412 94.8454 50.7561 92.689 54.5689 87.8137L51.8291 91.3973C48.0789 96.3038 41.7243 98.4394 34.5989 97.8977L37.3178 94.3454Z" fill="url(#paint13_linear_0_8847)"/>
<path opacity="0.4" fill-rule="evenodd" clip-rule="evenodd" d="M0.367456 68.375C-0.580521 63.1247 0.294523 58.1348 3.25304 54.2595L6.09698 50.5405C3.09679 54.4679 2.19048 59.5098 3.09679 64.7914L0.367456 68.375Z" fill="url(#paint14_linear_0_8847)"/>
<path fill-rule="evenodd" clip-rule="evenodd" d="M8.19085 76.834C9.50343 78.7612 11.0348 80.6259 12.7849 82.3968C14.1391 83.7719 15.6288 85.0845 17.2331 86.3033L14.5662 89.7931C10.8889 86.9805 7.84707 83.7511 5.50317 80.3446L8.19085 76.834Z" fill="url(#paint15_linear_0_8847)"/>
<path opacity="0.65" fill-rule="evenodd" clip-rule="evenodd" d="M12.3056 85.0115C11.8785 85.5741 11.5243 86.1366 11.2743 86.6575C11.243 86.7095 11.2743 86.7929 11.3264 86.8345C11.3889 86.8762 11.4618 86.8866 11.5139 86.845C11.941 86.4699 12.3994 85.9803 12.8265 85.4178C13.2536 84.8553 13.6078 84.2927 13.8578 83.7719C13.8891 83.7198 13.8578 83.6364 13.8057 83.5948C13.7432 83.5531 13.6703 83.5427 13.6182 83.5843C13.1911 83.9698 12.7327 84.449 12.3056 85.0115ZM9.28459 81.8655C8.85748 82.428 8.50329 82.9906 8.25327 83.4906C8.22202 83.5427 8.24286 83.6156 8.30536 83.6677C8.36787 83.7094 8.44079 83.7094 8.48246 83.6677C8.90957 83.2927 9.35751 82.803 9.78462 82.2405C10.2117 81.678 10.5659 81.1154 10.8159 80.6154C10.8472 80.5633 10.8264 80.4904 10.7639 80.4383C10.7013 80.3966 10.6284 80.3966 10.5868 80.4383C10.1596 80.8238 9.7117 81.303 9.28459 81.8655ZM6.61776 78.4069C6.19065 78.9591 5.84687 79.5216 5.58644 80.0216C5.55519 80.0737 5.57602 80.1466 5.6281 80.1883C5.68019 80.23 5.75311 80.23 5.8052 80.1883C6.22189 79.8133 6.66984 79.3237 7.09695 78.7715C7.52406 78.2194 7.86784 77.6569 8.12827 77.1569C8.15952 77.1048 8.13868 77.0318 8.08659 76.9902C8.03451 76.9485 7.96159 76.9485 7.9095 76.9902C7.48239 77.3652 7.04487 77.8444 6.61776 78.4069ZM4.36762 74.6567C3.94051 75.2088 3.59673 75.7609 3.33629 76.261C3.30504 76.3131 3.32589 76.386 3.37797 76.4276C3.43006 76.4693 3.50297 76.4693 3.54464 76.4276C3.96133 76.0526 4.39887 75.563 4.82598 75.0109C5.25309 74.4588 5.59685 73.9066 5.85729 73.4066C5.88854 73.3545 5.86771 73.2816 5.81562 73.2399C5.76354 73.1983 5.69061 73.1983 5.64894 73.2399C5.23225 73.6254 4.79473 74.1046 4.36762 74.6567ZM2.64875 70.646C2.23205 71.1982 1.87788 71.7399 1.61744 72.2399C1.58619 72.292 1.60702 72.3649 1.64869 72.3961C1.69036 72.4274 1.76329 72.4274 1.81537 72.3857C2.22165 72.0107 2.65917 71.5211 3.07586 70.9794C3.49255 70.4273 3.84675 69.8856 4.10718 69.3855C4.13843 69.3334 4.1176 69.2605 4.07593 69.2293C4.02384 69.1876 3.96134 69.198 3.90925 69.2397C3.50297 69.6147 3.06544 70.0939 2.64875 70.646ZM1.5341 66.4166C1.11741 66.9583 0.763214 67.5 0.502781 67.9896C0.471529 68.0417 0.481945 68.1042 0.534032 68.1459C0.586119 68.1771 0.648632 68.1771 0.690301 68.1355C1.09658 67.7604 1.52368 67.2812 1.94038 66.7291C2.35707 66.1874 2.71126 65.6457 2.9717 65.1561C3.00295 65.104 2.99252 65.0415 2.94043 64.9998C2.88834 64.9686 2.82585 64.9686 2.78418 65.0103C2.38832 65.3957 1.9508 65.8749 1.5341 66.4166ZM1.20074 62.0726C0.784047 62.6143 0.440286 63.156 0.169435 63.6352C0.138183 63.6873 0.148599 63.7498 0.200686 63.781C0.242355 63.8123 0.304853 63.8123 0.356939 63.7706C0.752798 63.3956 1.17991 62.9164 1.5966 62.3747C2.0133 61.833 2.35707 61.2913 2.62792 60.8121C2.65918 60.76 2.64876 60.6975 2.59667 60.6662C2.555 60.635 2.49249 60.635 2.4404 60.6766C2.04455 61.0517 1.61743 61.5205 1.20074 62.0726ZM19.7853 90.7306C19.3581 91.2932 18.8998 91.7828 18.4727 92.1578C18.4206 92.1995 18.3477 92.1995 18.2852 92.1474C18.2227 92.1057 18.2018 92.0224 18.2331 91.9703C18.4831 91.4494 18.8373 90.8869 19.2644 90.3244C19.6915 89.7618 20.1499 89.2722 20.577 88.8972C20.6291 88.8555 20.702 88.8555 20.7645 88.9076C20.827 88.9493 20.8478 89.0326 20.8166 89.0847C20.5561 89.6056 20.2124 90.1681 19.7853 90.7306ZM23.6188 92.8245C23.1917 93.387 22.7438 93.8662 22.3167 94.2517C22.2646 94.2934 22.1917 94.2934 22.1396 94.2517C22.0771 94.21 22.0562 94.1371 22.0875 94.0746C22.3375 93.5641 22.6917 93.0016 23.1188 92.4391C23.5459 91.8765 23.9939 91.3973 24.421 91.0119C24.4731 90.9702 24.546 90.9702 24.5981 91.0119C24.6606 91.0536 24.6814 91.1265 24.6501 91.189C24.3897 91.6994 24.0459 92.262 23.6188 92.8245ZM27.6503 94.4913C27.2232 95.0434 26.7857 95.533 26.3586 95.908C26.3169 95.9497 26.244 95.9497 26.1815 95.908C26.1294 95.8664 26.1086 95.7934 26.1398 95.7414C26.4003 95.2413 26.744 94.6788 27.1711 94.1267C27.5982 93.5746 28.0358 93.0849 28.4629 92.7099C28.5045 92.6682 28.5775 92.6682 28.64 92.7099C28.6921 92.7516 28.7129 92.8245 28.6816 92.8766C28.4316 93.3766 28.0774 93.9287 27.6503 94.4913ZM31.8589 95.6684C31.4318 96.2206 30.9943 96.6997 30.5776 97.0852C30.5359 97.1269 30.463 97.1269 30.4109 97.0852C30.3588 97.0435 30.338 96.981 30.3692 96.9185C30.6297 96.4185 30.9735 95.8664 31.4006 95.3142C31.8277 94.7621 32.2652 94.2829 32.6819 93.8975C32.7236 93.8558 32.7965 93.8558 32.8486 93.8975C32.9007 93.9392 32.9215 94.0017 32.8902 94.0642C32.6298 94.5642 32.2756 95.1163 31.8589 95.6684ZM36.1821 96.2831C35.7654 96.8352 35.3279 97.3144 34.9216 97.6894C34.88 97.7311 34.807 97.7311 34.7549 97.6998C34.7029 97.6582 34.6924 97.5956 34.7237 97.5436C34.9841 97.0539 35.3279 96.5018 35.755 95.9497C36.1717 95.3976 36.6092 94.9184 37.0155 94.5434C37.0572 94.5017 37.1301 94.5017 37.1822 94.5329C37.2343 94.5746 37.2447 94.6371 37.2134 94.6892C36.953 95.1893 36.5988 95.7414 36.1821 96.2831ZM40.547 96.2518C40.1303 96.7935 39.7032 97.2727 39.2969 97.6581C39.2552 97.6998 39.1823 97.6998 39.1406 97.6686C39.0885 97.6373 39.0781 97.5644 39.1094 97.5123C39.3698 97.0227 39.724 96.481 40.1407 95.9393C40.5574 95.3976 40.9845 94.9184 41.3908 94.5329C41.4324 94.4913 41.5054 94.4913 41.5471 94.5225C41.5991 94.5538 41.6096 94.6267 41.5783 94.6788C41.3179 95.158 40.9637 95.6997 40.547 96.2518ZM44.8389 95.4288C44.4222 95.9705 43.9951 96.4497 43.5993 96.8248C43.5576 96.8664 43.4951 96.8769 43.443 96.8352C43.4013 96.8039 43.3909 96.7414 43.4117 96.6893C43.6722 96.2101 44.0264 95.6684 44.4431 95.1267C44.8598 94.585 45.2869 94.1058 45.6827 93.7308C45.7244 93.6891 45.7869 93.6787 45.839 93.7204C45.8806 93.7517 45.8911 93.8142 45.8702 93.8662C45.5994 94.3454 45.2556 94.8871 44.8389 95.4288ZM48.8392 93.6996C48.4225 94.2413 48.0058 94.7101 47.6099 95.0955C47.5683 95.1372 47.5058 95.1476 47.4641 95.1163C47.4224 95.0851 47.412 95.0226 47.4432 94.9705C47.7037 94.4913 48.0579 93.96 48.4642 93.4183C48.8808 92.8766 49.2975 92.4078 49.6934 92.0224C49.7351 91.9807 49.7976 91.9703 49.8392 92.0015C49.8809 92.0328 49.8913 92.0953 49.8601 92.1474C49.5996 92.6266 49.2559 93.1579 48.8392 93.6996ZM15.6287 87.845C15.1912 88.4076 14.8474 88.9805 14.5974 89.5014C14.5662 89.5639 14.5974 89.6368 14.6599 89.6785C14.7224 89.7306 14.8058 89.7306 14.8474 89.6889C15.285 89.3139 15.7433 88.8243 16.1809 88.2617C16.6184 87.6992 16.9622 87.1262 17.2122 86.6054C17.2434 86.5429 17.2122 86.4699 17.1497 86.4283C17.0872 86.3762 17.0038 86.3762 16.9622 86.4179C16.5246 86.7929 16.0663 87.2721 15.6287 87.845ZM1.82579 57.7494C1.40909 58.2911 1.06533 58.8224 0.804893 59.3016C0.773641 59.3536 0.784046 59.4162 0.825716 59.4474C0.867385 59.4787 0.929888 59.4682 0.971558 59.4266C1.36742 59.0515 1.78412 58.5724 2.20081 58.0307C2.6175 57.489 2.96127 56.9577 3.2217 56.4785C3.25296 56.4264 3.24253 56.3639 3.20086 56.3326C3.15919 56.3014 3.09669 56.3118 3.05502 56.3535C2.65916 56.7285 2.23206 57.2077 1.82579 57.7494Z" fill="#663D1F"/>
<defs>
<linearGradient id="paint0_linear_0_8847" x1="51.6918" y1="51.5099" x2="90.0053" y2="13.1965" gradientUnits="userSpaceOnUse">
<stop stop-color="#B07F35"/>
<stop offset="0.1418" stop-color="#D3953D"/>
<stop offset="0.25" stop-color="#AD6C10"/>
<stop offset="0.6108" stop-color="#D9973B"/>
<stop offset="1" stop-color="#B38746"/>
</linearGradient>
<linearGradient id="paint1_linear_0_8847" x1="76.2531" y1="37.7576" x2="49.1261" y2="10.6307" gradientUnits="userSpaceOnUse">
<stop offset="5.1e-07" stop-color="#E6A729"/>
<stop offset="1" stop-color="#FFE878"/>
</linearGradient>
<linearGradient id="paint2_linear_0_8847" x1="74.8868" y1="36.3913" x2="50.4924" y2="11.9968" gradientUnits="userSpaceOnUse">
<stop offset="5.1e-07" stop-color="#ED9E1F"/>
<stop offset="1" stop-color="#FFE878"/>
</linearGradient>
<linearGradient id="paint3_linear_0_8847" x1="39.6239" y1="35.583" x2="74.078" y2="1.1288" gradientUnits="userSpaceOnUse">
<stop offset="4.2e-07" stop-color="#BF8F2E"/>
<stop offset="1" stop-color="#FCCD67"/>
</linearGradient>
<linearGradient id="paint4_linear_0_8847" x1="71.596" y1="43.1595" x2="86.6654" y2="28.0901" gradientUnits="userSpaceOnUse">
<stop stop-color="#1D1D1B"/>
<stop offset="1" stop-color="#FFEE76"/>
</linearGradient>
<linearGradient id="paint5_linear_0_8847" x1="49.9545" y1="49.7724" x2="56.0568" y2="43.6701" gradientUnits="userSpaceOnUse">
<stop stop-color="#663D1F"/>
<stop offset="1" stop-color="white"/>
</linearGradient>
<linearGradient id="paint6_linear_0_8847" x1="83.4433" y1="14.5015" x2="87.3768" y2="10.568" gradientUnits="userSpaceOnUse">
<stop offset="4.7e-07" stop-color="white"/>
<stop offset="1" stop-color="#663D1F"/>
</linearGradient>
<linearGradient id="paint7_linear_0_8847" x1="76.9948" y1="38.4995" x2="85.1024" y2="30.3919" gradientUnits="userSpaceOnUse">
<stop stop-color="#1D1D1B"/>
<stop offset="1" stop-color="#FFEE76"/>
</linearGradient>
<linearGradient id="paint8_linear_0_8847" x1="46.7695" y1="98.0206" x2="-1.80646" y2="60.8851" gradientUnits="userSpaceOnUse">
<stop stop-color="#B07F35"/>
<stop offset="0.1418" stop-color="#D3953D"/>
<stop offset="0.25" stop-color="#AD6C10"/>
<stop offset="0.6108" stop-color="#D9973B"/>
<stop offset="1" stop-color="#B38746"/>
</linearGradient>
<linearGradient id="paint9_linear_0_8847" x1="17.2431" y1="86.3053" x2="43.5361" y2="51.9123" gradientUnits="userSpaceOnUse">
<stop offset="5.1e-07" stop-color="#E6A729"/>
<stop offset="1" stop-color="#FFE878"/>
</linearGradient>
<linearGradient id="paint10_linear_0_8847" x1="18.5671" y1="84.5734" x2="42.2116" y2="53.6448" gradientUnits="userSpaceOnUse">
<stop offset="5.1e-07" stop-color="#ED9E1F"/>
<stop offset="1" stop-color="#FFE878"/>
</linearGradient>
<linearGradient id="paint11_linear_0_8847" x1="57.8892" y1="78.4047" x2="14.2064" y2="45.0098" gradientUnits="userSpaceOnUse">
<stop offset="4.2e-07" stop-color="#BF8F2E"/>
<stop offset="1" stop-color="#FCCD67"/>
</linearGradient>
<linearGradient id="paint12_linear_0_8847" x1="23.2577" y1="91.6514" x2="4.15182" y2="77.0453" gradientUnits="userSpaceOnUse">
<stop stop-color="#1D1D1B"/>
<stop offset="1" stop-color="#FFEE76"/>
</linearGradient>
<linearGradient id="paint13_linear_0_8847" x1="48.4523" y1="95.8193" x2="40.715" y2="89.9044" gradientUnits="userSpaceOnUse">
<stop stop-color="#663D1F"/>
<stop offset="1" stop-color="white"/>
</linearGradient>
<linearGradient id="paint14_linear_0_8847" x1="5.72839" y1="61.3643" x2="0.741605" y2="57.552" gradientUnits="userSpaceOnUse">
<stop offset="4.7e-07" stop-color="white"/>
<stop offset="1" stop-color="#663D1F"/>
</linearGradient>
<linearGradient id="paint15_linear_0_8847" x1="16.5233" y1="87.2451" x2="6.24403" y2="79.3867" gradientUnits="userSpaceOnUse">
<stop stop-color="#1D1D1B"/>
<stop offset="1" stop-color="#FFEE76"/>
</linearGradient>
</defs>
</svg>
