<svg width="18" height="16" viewBox="0 0 18 16" fill="none" xmlns="http://www.w3.org/2000/svg">
<g clip-path="url(#clip0_403_709)">
<path d="M0.662109 0.49707H17.3322V15.9171H0.662109V0.49707Z" fill="white"/>
<path d="M10.3386 0.49707H7.44739V6.76135H-2.67188V9.65257H7.44739V15.9168H10.3386V9.65257H20.4579V6.76135H10.3386V0.49707Z" fill="#D80027"/>
<path d="M15.1171 10.8882L20.4575 13.8551V10.8882H15.1171ZM11.4067 10.8882L20.4575 15.9164V14.4945L13.9661 10.8882H11.4067ZM18.0467 15.9164L11.4067 12.2272V15.9164H18.0467Z" fill="#0052B4"/>
<path d="M11.4067 10.8882L20.4575 15.9164V14.4945L13.9661 10.8882H11.4067Z" fill="white"/>
<path d="M11.4067 10.8882L20.4575 15.9164V14.4945L13.9661 10.8882H11.4067Z" fill="#D80027"/>
<path d="M1.40931 10.8882L-2.67188 13.1555V10.8882H1.40931ZM6.37891 11.5276V15.9164H-1.52031L6.37891 11.5276Z" fill="#0052B4"/>
<path d="M3.8195 10.8882L-2.67188 14.4945V15.9164L6.37891 10.8882H3.8195Z" fill="#D80027"/>
<path d="M2.66852 5.52526L-2.67188 2.55833V5.52526H2.66852ZM6.37891 5.52526L-2.67188 0.49707V1.91892L3.8195 5.52526H6.37891ZM-0.26105 0.49707L6.37891 4.18627V0.49707H-0.26105Z" fill="#0052B4"/>
<path d="M6.37891 5.52526L-2.67188 0.49707V1.91892L3.8195 5.52526H6.37891Z" fill="white"/>
<path d="M6.37891 5.52526L-2.67188 0.49707V1.91892L3.8195 5.52526H6.37891Z" fill="#D80027"/>
<path d="M16.3763 5.52531L20.4575 3.25796V5.52531H16.3763ZM11.4067 4.8859V0.49707H19.306L11.4067 4.8859Z" fill="#0052B4"/>
<path d="M13.9661 5.52526L20.4575 1.91892V0.49707L11.4067 5.52526H13.9661Z" fill="#D80027"/>
</g>
<defs>
<clipPath id="clip0_403_709">
<rect x="0.662109" y="0.49707" width="16.6701" height="15.42" rx="2" fill="white"/>
</clipPath>
</defs>
</svg>
