<svg width="40" height="41" fill="none" xmlns="http://www.w3.org/2000/svg"><path d="M19.576.133c3.616 0 6.902.896 9.858 2.688 2.987 1.761 5.33 4.167 7.028 7.218 1.73 3.05 2.595 6.43 2.595 10.141 0 3.616-.865 6.95-2.595 10-1.698 3.05-4.04 5.472-7.028 7.264-2.956 1.793-6.242 2.689-9.858 2.689-3.648 0-6.966-.896-9.953-2.689-2.988-1.792-5.346-4.214-7.076-7.264C.85 27.13 0 23.796 0 20.18c0-3.71.85-7.091 2.547-10.141 1.73-3.082 4.073-5.504 7.028-7.265 2.988-1.76 6.321-2.641 10-2.641Zm0 1.604c-3.397 0-6.463.833-9.199 2.5-2.735 1.635-4.89 3.867-6.462 6.698-1.54 2.798-2.311 5.88-2.311 9.245 0 3.365.77 6.462 2.311 9.292 1.572 2.8 3.727 5.016 6.462 6.651 2.736 1.604 5.802 2.406 9.199 2.406 3.301 0 6.32-.818 9.056-2.453 2.736-1.635 4.89-3.852 6.462-6.65 1.573-2.8 2.359-5.881 2.359-9.246s-.786-6.447-2.359-9.245c-1.572-2.83-3.726-5.063-6.462-6.698-2.736-1.667-5.755-2.5-9.056-2.5ZM7.547 20.227c0-2.327.519-4.418 1.557-6.273 1.038-1.887 2.453-3.35 4.245-4.387 1.793-1.07 3.79-1.604 5.99-1.604 1.542 0 2.8.189 3.774.566 1.006.377 2.013.88 3.019 1.51.063.03.22.141.472.33.283.157.503.236.66.236.189 0 .315-.11.378-.33.062-.22.094-.677.094-1.369h1.085l.707 8.727h-1.085c-.314-2.484-1.258-4.387-2.83-5.708-1.54-1.352-3.459-2.028-5.755-2.028-1.603 0-3.05.425-4.34 1.274-1.288.849-2.31 2.06-3.065 3.632-.723 1.54-1.085 3.349-1.085 5.424 0 2.076.377 3.9 1.132 5.472.755 1.54 1.808 2.736 3.16 3.585 1.353.817 2.91 1.226 4.67 1.226 2.327 0 4.34-.707 6.038-2.123 1.698-1.446 2.909-3.474 3.632-6.084h1.132c-.818 3.176-2.201 5.676-4.15 7.5-1.95 1.792-4.482 2.688-7.595 2.688-2.296 0-4.34-.519-6.132-1.556a11.265 11.265 0 0 1-4.198-4.387c-1.007-1.855-1.51-3.962-1.51-6.32Z" fill="#F8FE23"/></svg>