<svg width="18" height="19" viewBox="0 0 18 19" fill="none" xmlns="http://www.w3.org/2000/svg">
<g clip-path="url(#clip0_850_6227)">
<path d="M9.44507 0.590996C9.30501 0.530958 9.15422 0.5 9.00184 0.5C8.84946 0.5 8.69867 0.530958 8.55862 0.590996L0.684054 3.96581C0.481127 4.05225 0.308091 4.19645 0.186468 4.38046C0.0648443 4.56447 0 4.78018 0 5.00075C0 5.22132 0.0648443 5.43703 0.186468 5.62104C0.308091 5.80505 0.481127 5.94925 0.684054 6.03569L3.65839 7.308C3.76879 7.18312 3.90559 7.08437 4.05887 7.01889L8.55862 5.09075C8.69478 5.03006 8.84165 4.99704 8.99069 4.99361C9.13973 4.99018 9.28796 5.01641 9.42678 5.07077C9.56559 5.12513 9.69221 5.20653 9.79929 5.31026C9.90636 5.41399 9.99175 5.53796 10.0505 5.67498C10.1092 5.81199 10.1402 5.95932 10.1415 6.10839C10.1428 6.25746 10.1144 6.40531 10.0581 6.54333C10.0018 6.68136 9.91857 6.80681 9.81333 6.9124C9.70809 7.01798 9.58291 7.1016 9.44507 7.15838L6.37736 8.47456L8.55974 9.40938C8.69964 9.46926 8.85023 9.50014 9.00241 9.50014C9.15458 9.50014 9.30517 9.46926 9.44507 9.40938L17.3196 6.03457C17.5219 5.9478 17.6943 5.8036 17.8154 5.61985C17.9365 5.43609 18.0011 5.22084 18.0011 5.00075C18.0011 4.78067 17.9365 4.56541 17.8154 4.38166C17.6943 4.1979 17.5219 4.0537 17.3196 3.96693L9.44507 0.592121V0.590996ZM1.47601 8.82216L3.37715 9.63549V14.25C2.98765 14.1614 2.59323 14.0961 2.19597 14.0542C1.93965 14.0273 1.70035 13.9132 1.5181 13.7309C1.33585 13.5487 1.22171 13.3094 1.19478 13.0531C1.04683 11.6367 1.14195 10.2054 1.47601 8.82104V8.82216ZM8.21439 16.8947C7.45395 16.1486 6.58081 15.5267 5.62703 15.0521V10.6007L7.67217 11.4781C8.09233 11.6583 8.5447 11.7511 9.00184 11.7511C9.45898 11.7511 9.91136 11.6583 10.3315 11.4781L16.5277 8.82216C16.8637 10.2062 16.9588 11.6378 16.8089 13.0542C16.782 13.3105 16.6678 13.5498 16.4856 13.732C16.3033 13.9143 16.064 14.0284 15.8077 14.0554C13.5382 14.2939 11.4166 15.2948 9.7893 16.8947C9.57902 17.1008 9.2963 17.2163 9.00184 17.2163C8.70739 17.2163 8.42467 17.1008 8.21439 16.8947ZM4.50209 18.5C4.80044 18.5 5.08658 18.3815 5.29754 18.1705C5.50851 17.9595 5.62703 17.6734 5.62703 17.3751V15.0521C4.91157 14.6966 4.15628 14.4277 3.37715 14.2511V17.3751C3.37715 17.6734 3.49567 17.9595 3.70664 18.1705C3.91761 18.3815 4.20374 18.5 4.50209 18.5Z" fill="#797979"/>
</g>
<defs>
<clipPath id="clip0_850_6227">
<rect width="18" height="18" fill="white" transform="translate(0 0.5)"/>
</clipPath>
</defs>
</svg>
