<svg width="156" height="155" viewBox="0 0 156 155" fill="none" xmlns="http://www.w3.org/2000/svg">
<path fill-rule="evenodd" clip-rule="evenodd" d="M17.0199 38.7451C39.4572 38.4661 61.0307 30.0532 77.7334 15.0688C94.435 30.056 116.009 38.4717 138.447 38.7528C139.299 43.7903 139.733 48.9828 139.733 54.2606C139.733 94.7543 113.848 129.203 77.7334 141.967C41.6184 129.195 15.7334 94.7466 15.7334 54.2528C15.7334 48.9673 16.1751 43.7903 17.0199 38.7451V38.7451ZM106.463 67.4821C107.874 66.0204 108.656 64.0628 108.638 62.0307C108.62 59.9987 107.805 58.0549 106.368 56.618C104.931 55.1811 102.988 54.366 100.956 54.3484C98.9235 54.3307 96.9658 55.1119 95.5042 56.5236L69.9834 82.0443L59.9626 72.0236C58.501 70.6119 56.5433 69.8307 54.5113 69.8484C52.4793 69.866 50.5355 70.6811 49.0986 72.118C47.6616 73.5549 46.8466 75.4987 46.8289 77.5307C46.8113 79.5628 47.5924 81.5204 49.0042 82.9821L64.5042 98.4821C65.9575 99.935 67.9284 100.751 69.9834 100.751C72.0384 100.751 74.0093 99.935 75.4626 98.4821L106.463 67.4821V67.4821Z" fill="url(#paint0_linear_514_4973)"/>
<defs>
<linearGradient id="paint0_linear_514_4973" x1="77.8275" y1="141.965" x2="77.8275" y2="15.0915" gradientUnits="userSpaceOnUse">
<stop stop-color="#E63612"/>
<stop offset="1" stop-color="#EC6608"/>
</linearGradient>
</defs>
</svg>
