<svg width="15" height="15" viewBox="0 0 15 15" fill="none" xmlns="http://www.w3.org/2000/svg">
<path fill-rule="evenodd" clip-rule="evenodd" d="M5.06098 7.42361C5.06098 8.74335 6.15244 9.81713 7.5 9.81713C8.84146 9.81713 9.93293 8.74335 9.93293 7.42361C9.93293 6.09788 8.84146 5.0241 7.5 5.0241C6.15244 5.0241 5.06098 6.09788 5.06098 7.42361ZM11.0854 3.74035C12.1524 4.55619 13.061 5.74995 13.7134 7.24365C13.7622 7.35763 13.7622 7.4896 13.7134 7.59758C12.4085 10.585 10.0854 12.3726 7.5 12.3726H7.4939C4.91463 12.3726 2.59146 10.585 1.28659 7.59758C1.2378 7.4896 1.2378 7.35763 1.28659 7.24365C2.59146 4.25625 4.91463 2.47461 7.4939 2.47461H7.5C8.79268 2.47461 10.0183 2.91852 11.0854 3.74035ZM7.50073 8.91599C8.3361 8.91599 9.01902 8.24413 9.01902 7.42229C9.01902 6.59446 8.3361 5.9226 7.50073 5.9226C7.42756 5.9226 7.35439 5.92859 7.28732 5.94059C7.26293 6.60046 6.71415 7.12835 6.03732 7.12835H6.00683C5.98854 7.22433 5.97634 7.32032 5.97634 7.42229C5.97634 8.24413 6.65927 8.91599 7.50073 8.91599Z" fill="#525252"/>
</svg>
