<svg width="19" height="22" viewBox="0 0 19 22" fill="none" xmlns="http://www.w3.org/2000/svg">
<path d="M16.5759 1.87506C16.8688 1.58216 16.8688 1.10729 16.5759 0.814396C16.283 0.521503 15.8081 0.521503 15.5152 0.814397L14.8081 1.5215C14.3127 2.01694 14.338 2.7868 14.7702 3.26912C17.6727 6.50788 17.5674 11.4901 14.4545 14.603C12.8445 16.213 10.7344 17.0185 8.62415 17.0194L8.62091 17.0193L8.61786 17.0194C6.65013 17.0187 4.68265 16.3185 3.12069 14.9187C2.63837 14.4864 1.8685 14.4611 1.37307 14.9565L0.665959 15.6636C0.373066 15.9565 0.373066 16.4314 0.665959 16.7243C0.958852 17.0172 1.43373 17.0172 1.72662 16.7243L2.27707 16.1739C3.89685 17.5644 5.86464 18.3367 7.87091 18.4906V20.0193H6.12091C5.7067 20.0193 5.37091 20.3551 5.37091 20.7693C5.37091 21.1836 5.7067 21.5193 6.12091 21.5193H11.1209C11.5351 21.5193 11.8709 21.1836 11.8709 20.7693C11.8709 20.3551 11.5351 20.0193 11.1209 20.0193H9.37091V18.4906C11.6106 18.3189 13.8022 17.3766 15.5152 15.6636C19.1444 12.0344 19.3144 6.25658 16.0254 2.4255L16.5759 1.87506Z" fill="#575757"/>
<path fill-rule="evenodd" clip-rule="evenodd" d="M2.12091 8.76935C2.12091 5.1795 5.03106 2.26935 8.62091 2.26935C12.2108 2.26935 15.1209 5.1795 15.1209 8.76935C15.1209 12.3592 12.2108 15.2693 8.62091 15.2693C5.03106 15.2693 2.12091 12.3592 2.12091 8.76935ZM10.6209 5.01935C9.10213 5.01935 7.87091 6.25057 7.87091 7.76935C7.87091 9.28813 9.10213 10.5193 10.6209 10.5193C12.1397 10.5193 13.3709 9.28813 13.3709 7.76935C13.3709 6.25057 12.1397 5.01935 10.6209 5.01935ZM3.87091 11.2693C3.87091 10.579 4.43055 10.0193 5.12091 10.0193C5.81127 10.0193 6.37091 10.579 6.37091 11.2693C6.37091 11.9597 5.81127 12.5193 5.12091 12.5193C4.43055 12.5193 3.87091 11.9597 3.87091 11.2693Z" fill="#575757"/>
</svg>
