<svg width="19" height="21" viewBox="0 0 19 21" fill="none" xmlns="http://www.w3.org/2000/svg">
<path fill-rule="evenodd" clip-rule="evenodd" d="M15.6511 2.44558H17.0311C17.2557 2.43756 17.4797 2.47389 17.6902 2.55249C17.9008 2.6311 18.0938 2.75043 18.2582 2.90368C18.4225 3.05692 18.5551 3.24107 18.6483 3.44558C18.7414 3.6501 18.7934 3.87097 18.8011 4.09558V7.32558C18.7995 7.5531 18.7496 7.77769 18.6548 7.98454C18.56 8.19138 18.4224 8.37578 18.2511 8.52558L14.7311 11.6556C14.2635 12.3685 13.6413 12.9671 12.9108 13.4068C12.1802 13.8465 11.3601 14.1161 10.5111 14.1956V15.8556H12.9711C13.4004 15.8586 13.8143 16.0157 14.1374 16.2984C14.4605 16.5811 14.6712 16.9705 14.7311 17.3956L14.8811 18.3956C14.9123 18.6454 14.89 18.8991 14.8159 19.1397C14.7417 19.3803 14.6174 19.6025 14.4511 19.7915C14.2847 19.9805 14.0802 20.1321 13.8509 20.2362C13.6217 20.3404 13.3729 20.3947 13.1211 20.3956H6.40113C6.15 20.399 5.90109 20.3481 5.6715 20.2463C5.44192 20.1444 5.23711 19.9941 5.07113 19.8056C4.90291 19.6149 4.77749 19.3904 4.70331 19.1472C4.62914 18.904 4.60794 18.6477 4.64113 18.3956L4.79113 17.3956C4.8332 16.957 5.03646 16.5496 5.36156 16.2522C5.68667 15.9548 6.11053 15.7885 6.55113 15.7856H8.99113V14.1756C8.17341 14.096 7.38263 13.8402 6.67314 13.4259C5.96366 13.0116 5.35232 12.4486 4.88113 11.7756L1.21113 8.51558C1.03963 8.36814 0.901774 8.18561 0.806889 7.98031C0.712004 7.77501 0.662298 7.55174 0.661133 7.32558V4.09558C0.679355 3.64107 0.876873 3.21229 1.21046 2.90307C1.54405 2.59384 1.98655 2.42934 2.44113 2.44558H3.87113V1.14558C3.87113 0.946664 3.95015 0.755899 4.0908 0.615246C4.23145 0.474594 4.42222 0.395576 4.62113 0.395576H14.9011C15 0.394231 15.0981 0.412712 15.1897 0.449926C15.2813 0.487141 15.3645 0.542335 15.4345 0.612249C15.5044 0.682162 15.5596 0.765378 15.5968 0.85698C15.634 0.948582 15.6525 1.04671 15.6511 1.14558V2.44558ZM2.16113 4.09558V7.32558L3.87113 8.87558V8.53558V3.94558H2.44113C2.27113 3.94558 2.16113 4.04558 2.16113 4.09558ZM11.5011 7.57558L12.1611 6.92558H12.1811C12.2913 6.8342 12.3727 6.71282 12.4153 6.57615C12.4579 6.43948 12.4599 6.29338 12.4211 6.15558C12.3782 6.0233 12.2994 5.90556 12.1934 5.8155C12.0875 5.72544 11.9586 5.66661 11.8211 5.64558L10.9011 5.50558L10.4911 4.67558C10.4207 4.55969 10.3215 4.4639 10.2033 4.39743C10.0851 4.33095 9.95176 4.29603 9.81613 4.29603C9.6805 4.29603 9.54716 4.33095 9.42894 4.39743C9.31072 4.4639 9.2116 4.55969 9.14113 4.67558L8.73113 5.50558L7.73113 5.64558C7.59213 5.66493 7.46135 5.72289 7.35366 5.81287C7.24596 5.90285 7.16568 6.02124 7.12192 6.15459C7.07817 6.28793 7.07271 6.43087 7.10615 6.56717C7.1396 6.70346 7.21062 6.82764 7.31113 6.92558L7.98113 7.57558L7.82113 8.48558C7.79756 8.62461 7.81314 8.76746 7.86612 8.89815C7.9191 9.02884 8.0074 9.14221 8.12113 9.22558C8.23505 9.30675 8.3694 9.35445 8.509 9.36329C8.6486 9.37212 8.78789 9.34174 8.91113 9.27558L9.73113 8.84558L10.5911 9.30558C10.6953 9.36322 10.8121 9.39414 10.9311 9.39558C11.0881 9.38247 11.2377 9.32333 11.3611 9.22558C11.4731 9.14101 11.5594 9.02712 11.6106 8.89651C11.6618 8.7659 11.6758 8.62367 11.6511 8.48558L11.5011 7.57558ZM15.6411 8.83558L17.2511 7.39558L17.3011 4.09558C17.3011 4.04558 17.2011 3.94558 17.0311 3.94558H15.6411V8.53558V8.83558Z" fill="#575757"/>
</svg>
