<svg width="21" height="21" viewBox="0 0 21 21" fill="none" xmlns="http://www.w3.org/2000/svg">
<g clip-path="url(#clip0_642_12113)">
<path d="M13.6548 19.0498H13.2705V16.8178H13.3773C13.504 16.8178 13.6067 16.7149 13.6067 16.5882C13.6067 16.4615 13.504 16.3587 13.3773 16.3587H13.2705V15.4992H11.5402C11.4277 15.4794 11.3736 15.4183 11.3384 15.282C11.2281 14.8551 11.2503 14.4308 11.4042 14.0207C11.6021 13.4933 11.6564 12.912 11.5703 12.244C11.5646 12.2005 11.5589 12.157 11.5531 12.1135C11.5025 11.7344 11.4548 11.3763 11.5338 11.0316C11.7216 10.2136 11.915 9.25762 11.8312 8.26408C11.8102 8.01558 11.7958 7.76034 11.7818 7.51355C11.7776 7.43774 11.7732 7.3619 11.7688 7.28601C11.766 7.23791 11.7691 7.21284 11.7716 7.20143C12.3146 6.95651 12.4173 6.43704 12.4853 6.093C12.5101 5.96726 12.5269 5.84178 12.5432 5.72043C12.5679 5.53636 12.5912 5.36245 12.6395 5.20235C12.7619 4.79741 12.7875 4.17403 12.7182 3.69625C12.6682 3.35228 12.4774 3.10427 12.1808 2.99788C12.0361 2.94604 11.0191 2.66805 11.1018 2.28768C11.1829 1.91524 11.3663 1.38725 11.375 1.01367C11.3828 0.671124 11.2641 0.0913751 10.3811 0.057657L10.3707 0.0571289L10.3602 0.0575758C9.47741 0.0912939 9.35875 0.671083 9.36654 1.01355C9.37504 1.38684 9.58535 1.91471 9.66656 2.28748C9.74935 2.66797 8.70522 2.94596 8.56044 2.99788C8.26396 3.10419 8.07319 3.35224 8.02322 3.69617C7.95383 4.17399 7.97955 4.79733 8.10183 5.20227C8.15021 5.36245 8.17349 5.53657 8.19819 5.72072C8.2144 5.84194 8.23122 5.96726 8.25604 6.09296C8.324 6.43631 8.4265 6.95443 8.96977 7.20151C8.97225 7.21297 8.97545 7.23815 8.97257 7.28609L8.95981 7.50887C8.94584 7.75713 8.93134 8.01391 8.91021 8.26396C8.82636 9.25754 9.01974 10.2135 9.20754 11.0315C9.2866 11.3761 9.23886 11.7343 9.18837 12.1135C9.18256 12.157 9.17679 12.2004 9.17118 12.2438C9.08498 12.9119 9.13929 13.4932 9.33725 14.0207C9.49122 14.4309 9.51336 14.8552 9.40307 15.282C9.3678 15.4182 9.31377 15.4793 9.2012 15.4991H7.47085V16.3617C7.35877 16.3768 7.27204 16.472 7.27204 16.5881C7.27204 16.7043 7.35877 16.7994 7.47085 16.8146V19.0498H7.08671C6.80847 19.0498 6.58301 19.2753 6.58301 19.5533C6.58301 19.8315 6.80851 20.0571 7.08671 20.0571H13.6548C13.9328 20.0571 14.1584 19.8315 14.1584 19.5533C14.1584 19.2752 13.9328 19.0498 13.6548 19.0498ZM12.6317 18.2132H8.10971V17.0965H12.6317V18.2132Z" fill="#575757"/>
</g>
<defs>
<clipPath id="clip0_642_12113">
<rect width="20" height="20" fill="white" transform="translate(0.371094 0.0571289)"/>
</clipPath>
</defs>
</svg>
