<svg width="324" height="322" viewBox="0 0 324 322" fill="none" xmlns="http://www.w3.org/2000/svg">
<path d="M176.729 81.9062L177.9 87.375L181.194 82.8555L223.038 25.4385L208.369 94.9541L207.214 100.427L212.062 97.6377L273.641 62.2041L231.966 119.743L228.685 124.272L234.248 123.696L304.917 116.372L243.44 151.986L238.601 154.79L243.918 156.525L311.455 178.579L240.809 186.108L235.247 186.701L239.397 190.45L292.126 238.066L224.524 216.211L219.203 214.49L221.471 219.604L250.272 284.55L197.405 237.088L193.243 233.351L193.235 238.944L193.131 309.991L164.139 245.129L161.856 240.022L159.574 245.129L130.582 309.991L130.479 238.944L130.471 233.351L126.309 237.088L73.4404 284.55L102.243 219.604L104.511 214.49L99.1885 216.211L31.5879 238.065L84.3164 190.45L88.4668 186.701L82.9053 186.108L12.2578 178.579L79.7959 156.525L85.1133 154.79L80.2734 151.986L18.7959 116.372L89.4648 123.696L95.0283 124.272L91.748 119.743L50.0713 62.2041L111.651 97.6377L116.499 100.427L115.345 94.9541L100.675 25.4385L142.519 82.8555L145.812 87.375L146.983 81.9062L161.856 12.4336L176.729 81.9062Z" fill="#FBF8D9" stroke="#220703" stroke-width="5"/>
</svg>
