<svg width="50" height="50" viewBox="0 0 50 50" fill="none" xmlns="http://www.w3.org/2000/svg">
<path d="M43.75 45.8333H31.25C27.9677 45.8317 24.782 44.7223 22.2088 42.6848C19.6355 40.6473 17.8252 37.8009 17.071 34.6065C16.3167 31.4121 16.6628 28.0566 18.053 25.0833C19.4432 22.11 21.7962 19.6929 24.7312 18.2234C27.6661 16.7539 31.0111 16.318 34.2246 16.9862C37.4381 17.6544 40.3321 19.3877 42.4379 21.9054C44.5437 24.423 45.7382 27.5778 45.8279 30.8588C45.9175 34.1399 44.8972 37.3551 42.9321 39.9841L45.2229 42.2771C45.5142 42.5684 45.7127 42.9396 45.7931 43.3437C45.8735 43.7478 45.8322 44.1666 45.6746 44.5473C45.5169 44.9279 45.2499 45.2533 44.9073 45.4822C44.5647 45.7111 44.162 45.8333 43.75 45.8333Z" fill="#6563FF"/>
<path d="M16.6666 31.25C16.6622 28.8139 17.2692 26.4157 18.432 24.2751C19.5949 22.1345 21.2763 20.3199 23.3223 18.9976C25.3683 17.6754 27.7134 16.8878 30.1428 16.7069C32.5721 16.526 35.008 16.9578 37.2272 17.9625C36.7901 15.472 35.7916 13.1138 34.3075 11.0665C32.8235 9.01932 30.8928 7.33686 28.6619 6.14672C26.4309 4.95658 23.9583 4.29001 21.4314 4.19754C18.9046 4.10508 16.3898 4.58914 14.0779 5.61304C11.7659 6.63693 9.7174 8.17378 8.08768 10.1071C6.45797 12.0403 5.28981 14.3193 4.67179 16.7712C4.05377 19.223 4.0021 21.7834 4.52071 24.2582C5.03931 26.733 6.11458 29.0572 7.66497 31.0547L4.77706 33.9437C4.4857 34.2351 4.28727 34.6062 4.20687 35.0103C4.12647 35.4144 4.1677 35.8333 4.32537 36.214C4.48303 36.5946 4.75003 36.92 5.09261 37.1489C5.43519 37.3778 5.83795 37.5 6.24997 37.5H18.094C17.1568 35.5496 16.6691 33.4138 16.6666 31.25Z" fill="#B2B1FF"/>
</svg>
