<svg width="41" height="32" viewBox="0 0 41 32" fill="none" xmlns="http://www.w3.org/2000/svg">
<g clip-path="url(#clip0_8_54)">
<path d="M7.57628 31.245V29.168C7.60033 28.8146 7.47391 28.4678 7.22927 28.216C6.98464 27.9642 6.64545 27.8318 6.29824 27.8525C5.84068 27.822 5.40305 28.0475 5.15617 28.441C4.93108 28.0592 4.51894 27.8334 4.08207 27.8525C3.70169 27.8329 3.33957 28.02 3.13034 28.3441V27.9356H2.42334V31.245H3.13714V29.4241C3.1064 29.195 3.17768 28.9639 3.33154 28.7938C3.4854 28.6237 3.70577 28.5324 3.93251 28.5449C4.40158 28.5449 4.63951 28.8564 4.63951 29.4172V31.2588H5.35331V29.4241C5.32383 29.1953 5.39555 28.9649 5.54912 28.7951C5.70269 28.6253 5.9223 28.5337 6.14868 28.5449C6.63135 28.5449 6.86248 28.8564 6.86248 29.4172V31.2588L7.57628 31.245ZM18.1371 27.9356H16.9746V26.9317H16.2608V27.9356H15.615V28.5933H16.2744V30.1165C16.2744 30.885 16.5667 31.3419 17.4029 31.3419C17.7153 31.343 18.0216 31.2542 18.2866 31.0857L18.0827 30.4696C17.8931 30.5847 17.6779 30.649 17.4573 30.6565C17.1174 30.6565 16.9882 30.4349 16.9882 30.1026V28.5933H18.1439L18.1371 27.9356ZM24.167 27.8525C23.8158 27.842 23.4872 28.028 23.3104 28.3372V27.9356H22.6102V31.245H23.3172V29.3895C23.3172 28.8426 23.5484 28.5379 23.997 28.5379C24.1482 28.5358 24.2984 28.5641 24.4389 28.621L24.6564 27.9287C24.495 27.8699 24.3249 27.8394 24.1534 27.8387L24.167 27.8525ZM15.0508 28.1987C14.6506 27.9564 14.1905 27.8362 13.7251 27.8525C12.9026 27.8525 12.3655 28.2541 12.3655 28.9118C12.3655 29.4518 12.7598 29.7841 13.4872 29.888L13.8271 29.9365C14.2146 29.9918 14.3981 30.0957 14.3981 30.2826C14.3981 30.5388 14.1398 30.6842 13.6572 30.6842C13.2689 30.6956 12.8882 30.5737 12.5763 30.338L12.2364 30.8988C12.6482 31.1917 13.1415 31.3421 13.6436 31.3281C14.5817 31.3281 15.1255 30.878 15.1255 30.248C15.1255 29.618 14.6973 29.3618 13.9903 29.258L13.6504 29.2095C13.3444 29.168 13.0997 29.1057 13.0997 28.8841C13.0997 28.6626 13.3309 28.4964 13.7183 28.4964C14.0765 28.5006 14.4276 28.5984 14.7381 28.7803L15.0508 28.1987ZM33.9868 27.8525C33.6357 27.842 33.307 28.028 33.1302 28.3372V27.9356H32.43V31.245H33.137V29.3895C33.137 28.8426 33.3682 28.5379 33.8168 28.5379C33.9681 28.5358 34.1182 28.5641 34.2587 28.621L34.4763 27.9287C34.3148 27.8699 34.1447 27.8394 33.9732 27.8387L33.9868 27.8525ZM24.8774 29.5834C24.8604 30.0536 25.0387 30.5094 25.3687 30.8388C25.6986 31.1682 26.1496 31.3408 26.6109 31.3142C27.0354 31.3362 27.4526 31.1954 27.7802 30.9196L27.4403 30.338C27.1959 30.5278 26.8978 30.6322 26.5905 30.6357C26.0486 30.5911 25.6311 30.1301 25.6311 29.5764C25.6311 29.0227 26.0486 28.5618 26.5905 28.5172C26.8978 28.5207 27.1959 28.6251 27.4403 28.8149L27.7802 28.2333C27.4526 27.9575 27.0354 27.8167 26.6109 27.8387C26.1496 27.8121 25.6986 27.9846 25.3687 28.3141C25.0387 28.6435 24.8604 29.0993 24.8774 29.5695V29.5834ZM31.4987 29.5834V27.9356H30.7917V28.3372C30.5481 28.018 30.1687 27.8376 29.772 27.8525C28.8334 27.8525 28.0725 28.6275 28.0725 29.5834C28.0725 30.5393 28.8334 31.3142 29.772 31.3142C30.1687 31.3291 30.5481 31.1488 30.7917 30.8296V31.2311H31.4987V29.5834ZM28.8678 29.5834C28.8993 29.0401 29.3513 28.6221 29.8853 28.6425C30.4193 28.6629 30.8393 29.1143 30.8307 29.6584C30.822 30.2025 30.3879 30.6398 29.8536 30.6426C29.5815 30.6461 29.3203 30.5338 29.1332 30.3326C28.946 30.1315 28.8498 29.8599 28.8678 29.5834ZM20.3363 27.8525C19.3976 27.8659 18.6474 28.6517 18.6605 29.6076C18.6737 30.5635 19.4452 31.3276 20.3839 31.3142C20.8729 31.3398 21.3538 31.1794 21.7333 30.8642L21.3934 30.3311C21.125 30.5503 20.7925 30.6721 20.4484 30.6773C19.9625 30.7198 19.5316 30.3607 19.4763 29.8672H21.8896C21.8896 29.7772 21.8896 29.6872 21.8896 29.5903C21.8896 28.5518 21.2574 27.8595 20.3465 27.8595L20.3363 27.8525ZM20.3363 28.4964C20.5499 28.4918 20.7566 28.5738 20.9109 28.7244C21.0652 28.875 21.1544 29.0819 21.1588 29.2995H19.4593C19.4849 28.8373 19.8684 28.4806 20.3227 28.4964H20.3363ZM38.0486 29.5903V26.6063H37.3688V28.3372C37.1253 28.018 36.7458 27.8376 36.3491 27.8525C35.4105 27.8525 34.6496 28.6275 34.6496 29.5834C34.6496 30.5393 35.4105 31.3142 36.3491 31.3142C36.7458 31.3291 37.1253 31.1488 37.3688 30.8296V31.2311H38.0486V29.5903ZM39.2281 30.7638C39.2723 30.7633 39.3162 30.7715 39.3573 30.788C39.3963 30.8043 39.432 30.8277 39.4627 30.8573C39.4925 30.8871 39.5167 30.9223 39.534 30.9611C39.5688 31.0428 39.5688 31.1356 39.534 31.2173C39.5167 31.2561 39.4925 31.2913 39.4627 31.3211C39.432 31.3507 39.3963 31.3741 39.3573 31.3904C39.3166 31.4087 39.2726 31.4181 39.2281 31.4181C39.0966 31.417 38.9774 31.3389 38.9222 31.2173C38.8878 31.1355 38.8878 31.0429 38.9222 30.9611C38.9395 30.9223 38.9637 30.8871 38.9936 30.8573C39.0242 30.8277 39.0599 30.8043 39.099 30.788C39.1432 30.7701 39.1907 30.7618 39.2383 30.7638H39.2281ZM39.2281 31.3488C39.262 31.349 39.2956 31.342 39.3267 31.3281C39.3559 31.3148 39.3825 31.296 39.4049 31.2727C39.493 31.1747 39.493 31.0244 39.4049 30.9265C39.3825 30.9031 39.356 30.8843 39.3267 30.8711C39.2956 30.8573 39.262 30.8502 39.2281 30.8503C39.1942 30.8505 39.1607 30.8576 39.1295 30.8711C39.099 30.8839 39.0713 30.9027 39.048 30.9265C38.9598 31.0244 38.9598 31.1747 39.048 31.2727C39.0713 31.2964 39.099 31.3152 39.1295 31.3281C39.1638 31.3431 39.201 31.3502 39.2383 31.3488H39.2281ZM39.2485 30.9369C39.2802 30.9353 39.3115 30.9451 39.3369 30.9646C39.358 30.9824 39.3694 31.0094 39.3675 31.0373C39.3685 31.0605 39.3598 31.0831 39.3437 31.0996C39.324 31.1178 39.2988 31.1288 39.2723 31.1307L39.3709 31.245H39.2927L39.2009 31.1307H39.1703V31.245H39.1058V30.9403L39.2485 30.9369ZM39.1737 30.9957V31.0788H39.2485C39.2618 31.0829 39.276 31.0829 39.2893 31.0788C39.2941 31.069 39.2941 31.0575 39.2893 31.0477C39.2941 31.0379 39.2941 31.0263 39.2893 31.0165C39.276 31.0125 39.2618 31.0125 39.2485 31.0165L39.1737 30.9957ZM35.4348 29.5903C35.4662 29.047 35.9183 28.629 36.4523 28.6494C36.9862 28.6698 37.4062 29.1212 37.3976 29.6653C37.389 30.2094 36.9548 30.6467 36.4205 30.6496C36.1484 30.6531 35.8873 30.5407 35.7001 30.3395C35.5129 30.1384 35.4168 29.8668 35.4348 29.5903ZM11.5634 29.5903V27.9356H10.8564V28.3372C10.6128 28.018 10.2333 27.8376 9.83664 27.8525C8.89802 27.8525 8.13712 28.6275 8.13712 29.5834C8.13712 30.5393 8.89802 31.3142 9.83664 31.3142C10.2333 31.3291 10.6128 31.1488 10.8564 30.8296V31.2311H11.5634V29.5903ZM8.9325 29.5903C8.96394 29.047 9.41599 28.629 9.94996 28.6494C10.4839 28.6698 10.9039 29.1212 10.8953 29.6653C10.8867 30.2094 10.4526 30.6467 9.91822 30.6496C9.64497 30.655 9.38199 30.5435 9.19331 30.3421C9.00463 30.1408 8.90755 29.868 8.9257 29.5903H8.9325Z" fill="#8F9AB1"/>
<path d="M38.7999 20.4039V19.864H38.9597V19.7523H38.5552V19.864H38.7285V20.4039H38.7999ZM39.5851 20.4039V19.7523H39.4627L39.32 20.2178L39.1772 19.7523H39.0684V20.4039H39.1568V19.9152L39.2894 20.3388H39.3811L39.5137 19.9152V20.4086L39.5851 20.4039Z" fill="#8F9AB1"/>
<path d="M19.2021 22.6113C19.2986 22.6937 19.4018 22.7761 19.5034 22.8568C17.544 24.1734 15.1918 24.9385 12.6664 24.9385C5.84615 24.9402 0.319336 19.3576 0.319336 12.4701C0.319336 5.58431 5.84615 0 12.6648 0C15.1918 0 17.544 0.76677 19.4984 2.08171C19.3985 2.16747 19.2986 2.2465 19.2237 2.33394C16.3005 4.8848 14.6275 8.58244 14.6275 12.4701C14.6275 16.3561 16.2938 20.0537 19.2021 22.6113ZM27.9268 0C25.3964 0 23.0475 0.76677 21.0932 2.08171C21.193 2.16747 21.2929 2.2465 21.3678 2.33394C24.291 4.8848 25.9641 8.58244 25.9641 12.4701C25.9641 16.3544 24.2977 20.0487 21.3895 22.6113C21.2929 22.6937 21.1897 22.7761 21.0882 22.8568C23.0475 24.1734 25.3964 24.9385 27.9251 24.9385C34.7454 24.9402 40.2722 19.3576 40.2722 12.4701C40.2722 5.58599 34.7454 0 27.9268 0ZM20.2958 2.67361C20.136 2.79972 19.9811 2.92583 19.8296 3.06204C17.2261 5.34721 15.583 8.71192 15.583 12.4701C15.583 16.23 17.2261 19.593 19.8296 21.8782C19.9795 22.0127 20.1376 22.1438 20.2958 22.2683C20.4556 22.1438 20.6104 22.0127 20.7619 21.8782C23.3638 19.593 25.0085 16.23 25.0085 12.4701C25.0085 8.71192 23.3655 5.34721 20.7619 3.06204C20.6121 2.92751 20.4556 2.79972 20.2958 2.67361Z" fill="#8F9AB1"/>
</g>
<defs>
<clipPath id="clip0_8_54">
<rect width="39.9529" height="31.5013" fill="white" transform="translate(0.319336)"/>
</clipPath>
</defs>
</svg>
