<svg width="56" height="19" viewBox="0 0 56 19" fill="none" xmlns="http://www.w3.org/2000/svg">
<g clip-path="url(#clip0_8_51)">
<path d="M24.2428 18.2397H19.8191L22.5863 1.32063H27.01L24.2428 18.2397ZM40.2804 1.7343C39.4071 1.39132 38.0242 1.01392 36.3117 1.01392C31.9428 1.01392 28.8666 3.31766 28.8474 6.611C28.8113 9.04137 31.0502 10.3912 32.7247 11.2013C34.4365 12.0292 35.0183 12.5695 35.0183 13.3077C35.0009 14.4411 33.6353 14.9636 32.3617 14.9636C30.5952 14.9636 29.6486 14.6944 28.2103 14.0637L27.6279 13.7933L27.0088 17.5919C28.0468 18.059 29.9581 18.4739 31.9428 18.4918C36.5846 18.4918 39.6067 16.2237 39.6427 12.714C39.6601 10.7876 38.4779 9.31182 35.9295 8.10585C34.3818 7.33138 33.4345 6.80954 33.4345 6.01786C33.4525 5.29748 34.2363 4.55989 35.9829 4.55989C37.4206 4.52424 38.4773 4.86599 39.2772 5.20774L39.6781 5.38783L40.2798 1.7343H40.2804ZM46.1598 12.2462C46.5241 11.2738 47.9263 7.51209 47.9263 7.51209C47.9077 7.54836 48.2899 6.52249 48.5081 5.89185L48.8176 7.34982C48.8176 7.34982 49.6555 11.4004 49.837 12.2456H46.1598V12.2462ZM51.6209 1.32002H48.1992C47.1438 1.32002 46.3419 1.6255 45.887 2.7239L39.3151 18.2391H43.9576C43.9576 18.2391 44.7221 16.1505 44.8856 15.7006H50.5661C50.6929 16.295 51.0938 18.2391 51.0938 18.2391H55.1899L51.6209 1.32063V1.32002ZM5.22725 3.5205C3.86602 2.73373 2.31397 2.10125 0.577942 1.66177L0.650665 1.32002H7.76821C8.7335 1.35567 9.51605 1.66115 9.7709 2.74234L11.3174 10.5159L11.318 10.5172L11.7916 12.8572L16.1239 1.32002H20.8018L13.8484 18.2219H9.16984L5.22725 3.5205Z" fill="#8F9AB1"/>
</g>
<defs>
<clipPath id="clip0_8_51">
<rect width="55.3193" height="18.4398" fill="white" transform="translate(0 0.530762)"/>
</clipPath>
</defs>
</svg>
