<svg width="274" height="16" viewBox="0 0 274 16" fill="none" xmlns="http://www.w3.org/2000/svg">
<path d="M273.948 5.27027C271.69 4.7199 269.395 4.15987 267.142 3.60951C267.034 2.84994 266.926 2.10647 266.813 1.32759C266.166 1.28896 265.711 1.25033 265.257 1.23746C257.515 1.04435 249.778 0.819052 242.031 0.674219C236.017 0.558352 229.998 0.510069 223.979 0.487539C219.323 0.471447 214.667 0.577654 210.007 0.56478C205.342 0.551906 200.681 0.390987 196.016 0.410298C189.287 0.439264 182.561 0.59375 175.832 0.648465C166.632 0.722491 157.433 0.735365 148.229 0.809391C140.298 0.873761 132.363 0.947786 124.432 1.0894C115.008 1.25676 105.588 1.44345 96.1683 1.72668C84.1754 2.08715 72.1825 2.50556 60.1985 2.99156C52.938 3.28444 45.673 3.61594 38.4484 4.1663C29.6359 4.84219 20.9179 4.64909 12.0559 3.49364C11.7995 3.7286 11.4441 4.06009 11.1292 4.34976C11.1292 5.03209 11.1292 5.62752 11.1292 6.15214C9.82016 6.37744 8.66406 6.57376 7.51245 6.77009C7.50795 6.71538 7.49895 6.66388 7.49445 6.60917C5.14175 6.82803 2.78455 7.04688 0 7.30436C0 8.27635 0 9.16146 0 10.4585C42.0742 5.92363 84.1304 6.13926 126.043 4.63944C124.761 4.99025 123.447 4.99669 122.147 5.07715C117.149 5.39578 112.16 5.782 107.158 6.06201C103.856 6.24869 100.527 6.21006 97.2345 6.43858C91.3505 6.84733 85.4845 7.3784 79.614 7.8644C76.1996 8.14763 72.7808 8.42118 69.3709 8.73338C63.1765 9.29984 56.9731 9.8148 50.8057 10.5036C46.3028 11.0057 41.8403 11.7105 37.3868 12.425C36.5276 12.5634 35.8078 13.1524 35.1196 13.4871C36.1722 15.2541 36.2532 15.4054 38.21 15.4086C41.1835 15.4118 44.1705 15.3281 47.1305 15.1415C52.4342 14.81 57.7154 14.3111 63.0146 13.9957C71.3008 13.5 79.6004 13.0945 87.8956 12.66C97.9767 12.1321 108.058 11.5367 118.148 11.1151C129.516 10.6388 140.897 10.3233 152.269 9.94355C158.711 9.72791 165.157 9.51871 171.603 9.31273C173.717 9.24514 175.832 9.1711 177.946 9.15501C185.058 9.10351 192.17 9.09708 199.282 9.01983C200.204 9.01018 201.118 8.68511 201.743 8.56281C203.655 8.72373 205.31 8.95546 206.975 8.98121C210.304 9.03271 213.592 8.57247 216.975 8.90719C219.935 9.20008 222.994 8.96834 226.008 8.96834C228.288 9.13571 228.288 9.1357 229.449 7.85473C217.308 7.57794 205.517 7.30759 193.727 7.03723C192.625 7.18851 191.509 6.97929 190.402 6.98573C187.559 7.00504 184.716 7.15631 181.873 7.1885C176.646 7.24965 171.41 7.21424 166.183 7.3108C161.985 7.38804 157.793 7.63909 153.596 7.75174C147.433 7.91588 141.266 7.97703 135.107 8.17014C129.115 8.36003 123.128 8.64326 117.14 8.91684C111.427 9.18076 105.714 9.4994 100.001 9.76975C94.135 10.0465 88.2645 10.2525 82.403 10.5615C77.2477 10.8319 72.106 11.202 66.9552 11.5303C66.9417 11.4305 66.9283 11.3275 66.9148 11.2277C73.0912 10.7224 79.2631 10.2171 85.4395 9.71182C86.0468 9.68929 86.6361 9.43181 87.2523 9.39319C93.8066 8.95547 100.361 8.52097 106.924 8.14441C115.93 7.62622 124.941 7.1531 133.951 6.67676C139.088 6.40641 144.23 6.18755 149.367 5.91075C151.14 5.8142 152.903 5.60821 154.113 5.502C155.575 5.55671 156.511 5.65648 157.433 5.61786C161.653 5.43762 165.868 5.10934 170.092 5.03853C174.289 4.96772 178.495 5.1029 182.692 5.22199C190.294 5.43441 197.901 5.66935 205.499 5.9558C212.157 6.20684 218.81 6.58664 225.468 6.81838C233.291 7.08873 241.118 7.27218 248.945 7.4685C256.516 7.6584 264.083 8.55637 271.672 7.55219C273.525 7.30758 274.204 6.78297 273.948 5.27027ZM266.377 6.30018C248.064 5.71441 229.75 5.12543 211.433 4.53966C211.437 4.42379 211.446 4.30792 211.451 4.19206C222.616 4.19206 233.781 4.19206 242.805 4.19206C252.085 4.85829 259.26 5.37004 266.431 5.885C266.413 6.0234 266.395 6.16179 266.377 6.30018Z" fill="#CEFF55"/>
</svg>
