<svg width="21" height="21" viewBox="0 0 21 21" fill="none" xmlns="http://www.w3.org/2000/svg">
<g clip-path="url(#clip0_297_517)">
<path d="M10.5 2.02344C13.1719 2.02344 13.4883 2.03516 14.5391 2.08203C15.5156 2.125 16.043 2.28906 16.3945 2.42578C16.8594 2.60547 17.1953 2.82422 17.543 3.17188C17.8945 3.52344 18.1094 3.85547 18.2891 4.32031C18.4258 4.67188 18.5898 5.20312 18.6328 6.17578C18.6797 7.23047 18.6914 7.54688 18.6914 10.2148C18.6914 12.8867 18.6797 13.2031 18.6328 14.2539C18.5898 15.2305 18.4258 15.7578 18.2891 16.1094C18.1094 16.5742 17.8906 16.9102 17.543 17.2578C17.1914 17.6094 16.8594 17.8242 16.3945 18.0039C16.043 18.1406 15.5117 18.3047 14.5391 18.3477C13.4844 18.3945 13.168 18.4062 10.5 18.4062C7.82813 18.4062 7.51172 18.3945 6.46094 18.3477C5.48438 18.3047 4.95703 18.1406 4.60547 18.0039C4.14063 17.8242 3.80469 17.6055 3.45703 17.2578C3.10547 16.9063 2.89063 16.5742 2.71094 16.1094C2.57422 15.7578 2.41016 15.2266 2.36719 14.2539C2.32031 13.1992 2.30859 12.8828 2.30859 10.2148C2.30859 7.54297 2.32031 7.22656 2.36719 6.17578C2.41016 5.19922 2.57422 4.67188 2.71094 4.32031C2.89063 3.85547 3.10938 3.51953 3.45703 3.17188C3.80859 2.82031 4.14063 2.60547 4.60547 2.42578C4.95703 2.28906 5.48828 2.125 6.46094 2.08203C7.51172 2.03516 7.82813 2.02344 10.5 2.02344ZM10.5 0.222656C7.78516 0.222656 7.44531 0.234375 6.37891 0.28125C5.31641 0.328125 4.58594 0.5 3.95313 0.746094C3.29297 1.00391 2.73438 1.34375 2.17969 1.90234C1.62109 2.45703 1.28125 3.01563 1.02344 3.67188C0.777344 4.30859 0.605469 5.03516 0.558594 6.09766C0.511719 7.16797 0.5 7.50781 0.5 10.2227C0.5 12.9375 0.511719 13.2773 0.558594 14.3438C0.605469 15.4063 0.777344 16.1367 1.02344 16.7695C1.28125 17.4297 1.62109 17.9883 2.17969 18.543C2.73438 19.0977 3.29297 19.4414 3.94922 19.6953C4.58594 19.9414 5.3125 20.1133 6.375 20.1602C7.44141 20.207 7.78125 20.2188 10.4961 20.2188C13.2109 20.2188 13.5508 20.207 14.6172 20.1602C15.6797 20.1133 16.4102 19.9414 17.043 19.6953C17.6992 19.4414 18.2578 19.0977 18.8125 18.543C19.3672 17.9883 19.7109 17.4297 19.9648 16.7734C20.2109 16.1367 20.3828 15.4102 20.4297 14.3477C20.4766 13.2813 20.4883 12.9414 20.4883 10.2266C20.4883 7.51172 20.4766 7.17188 20.4297 6.10547C20.3828 5.04297 20.2109 4.3125 19.9648 3.67969C19.7188 3.01563 19.3789 2.45703 18.8203 1.90234C18.2656 1.34766 17.707 1.00391 17.0508 0.75C16.4141 0.503906 15.6875 0.332031 14.625 0.285156C13.5547 0.234375 13.2148 0.222656 10.5 0.222656Z" fill="#4A4D9C"/>
<path d="M10.5 5.08594C7.66406 5.08594 5.36328 7.38672 5.36328 10.2227C5.36328 13.0586 7.66406 15.3594 10.5 15.3594C13.3359 15.3594 15.6367 13.0586 15.6367 10.2227C15.6367 7.38672 13.3359 5.08594 10.5 5.08594ZM10.5 13.5547C8.66016 13.5547 7.16797 12.0625 7.16797 10.2227C7.16797 8.38281 8.66016 6.89062 10.5 6.89062C12.3398 6.89062 13.832 8.38281 13.832 10.2227C13.832 12.0625 12.3398 13.5547 10.5 13.5547Z" fill="#4A4D9C"/>
<path d="M17.0391 4.88281C17.0391 5.54688 16.5 6.08203 15.8398 6.08203C15.1758 6.08203 14.6406 5.54297 14.6406 4.88281C14.6406 4.21875 15.1797 3.68359 15.8398 3.68359C16.5 3.68359 17.0391 4.22266 17.0391 4.88281Z" fill="#4A4D9C"/>
</g>
<defs>
<clipPath id="clip0_297_517">
<rect width="20" height="20" fill="white" transform="translate(0.5 0.222656)"/>
</clipPath>
</defs>
</svg>
