<svg width="40" height="40" viewBox="0 0 40 40" fill="none" xmlns="http://www.w3.org/2000/svg">
<rect width="40" height="40" rx="20" fill="white"/>
<path fill-rule="evenodd" clip-rule="evenodd" d="M15.67 9.99902H24.34C27.73 9.99902 30 12.379 30 15.919V24.09C30 27.62 27.73 29.999 24.34 29.999H15.67C12.28 29.999 10 27.62 10 24.09V15.919C10 12.379 12.28 9.99902 15.67 9.99902ZM19.99 17.06C19.52 17.06 19.13 16.669 19.13 16.19C19.13 15.7 19.52 15.31 20.01 15.31C20.49 15.31 20.88 15.7 20.88 16.19C20.88 16.669 20.49 17.06 19.99 17.06ZM20.87 23.78C20.87 24.26 20.48 24.65 19.99 24.65C19.51 24.65 19.12 24.26 19.12 23.78V19.36C19.12 18.879 19.51 18.48 19.99 18.48C20.48 18.48 20.87 18.879 20.87 19.36V23.78Z" fill="#4A4D9C"/>
</svg>
