<svg width="20" height="20" viewBox="0 0 20 20" fill="none" xmlns="http://www.w3.org/2000/svg">
<path d="M1.22617 9.39117C1.22617 9.39117 10.0717 5.66559 13.1395 4.35372C14.3155 3.82901 18.3036 2.14982 18.3036 2.14982C18.3036 2.14982 20.1443 1.41523 19.9909 3.1993C19.9398 3.93396 19.5307 6.50511 19.1217 9.28623C18.5081 13.2218 17.8434 17.5246 17.8434 17.5246C17.8434 17.5246 17.7412 18.7315 16.872 18.9414C16.0028 19.1512 14.5711 18.2068 14.3155 17.9968C14.1109 17.8395 10.4807 15.4781 9.15133 14.3237C8.7934 14.0089 8.38439 13.3792 9.20242 12.6446C11.0431 10.9129 13.2417 8.76152 14.5711 7.39722C15.1847 6.7675 15.7982 5.29826 13.2417 7.08233C9.61151 9.65356 6.0324 12.0673 6.0324 12.0673C6.0324 12.0673 5.21429 12.592 3.68041 12.1198C2.14645 11.6476 0.356899 11.0179 0.356899 11.0179C0.356899 11.0179 -0.870153 10.2308 1.22617 9.39117Z" fill="#4A4D9C"/>
</svg>
