<svg width="32" height="32" viewBox="0 0 32 32" fill="none" xmlns="http://www.w3.org/2000/svg">
<path d="M7.43356 25.4665C6.45542 25.4665 5.63302 25.1332 4.96636 24.4665C4.29969 23.7998 3.96636 22.9777 3.96636 22.0001H3.89996C3.45569 21.9558 3.07222 21.7446 2.74956 21.3665C2.42742 20.9889 2.26636 20.5556 2.26636 20.0665V8.6001C2.26636 8.06677 2.45542 7.6113 2.83356 7.2337C3.21116 6.85557 3.66662 6.6665 4.19996 6.6665H20.1C20.6333 6.6665 21.0888 6.86117 21.4664 7.2505C21.8445 7.6393 22.0336 8.08917 22.0336 8.6001V11.5665H24.5C24.6333 11.5665 24.7722 11.5945 24.9168 11.6505C25.0613 11.706 25.1778 11.8113 25.2664 11.9665L29.5664 17.7001C29.6112 17.7892 29.6501 17.8836 29.6832 17.9833C29.7168 18.0836 29.7336 18.1892 29.7336 18.3001V21.0337C29.7336 21.3004 29.6445 21.5281 29.4664 21.7169C29.2888 21.9057 29.0554 22.0001 28.7664 22.0001H27.7C27.7 22.9777 27.361 23.7998 26.6832 24.4665C26.0053 25.1332 25.1776 25.4665 24.2 25.4665C23.2442 25.4665 22.433 25.1332 21.7664 24.4665C21.0997 23.7998 20.7664 22.9777 20.7664 22.0001H10.9C10.9 23.0001 10.561 23.8278 9.88316 24.4833C9.20529 25.1388 8.38876 25.4665 7.43356 25.4665ZM7.43356 24.3665C8.07782 24.3665 8.62769 24.1276 9.08316 23.6497C9.53862 23.1724 9.76636 22.6225 9.76636 22.0001C9.76636 21.3558 9.53862 20.806 9.08316 20.3505C8.62769 19.8945 8.07782 19.6665 7.43356 19.6665C6.78876 19.6665 6.23862 19.8945 5.78316 20.3505C5.32769 20.806 5.09996 21.3558 5.09996 22.0001C5.09996 22.6225 5.32769 23.1724 5.78316 23.6497C6.23862 24.1276 6.78876 24.3665 7.43356 24.3665ZM3.39996 8.6001V20.0665C3.39996 20.1556 3.41649 20.2502 3.44956 20.3505C3.48316 20.4502 3.52209 20.5334 3.56636 20.6001C3.61116 20.6668 3.67249 20.7278 3.75036 20.7833C3.82769 20.8388 3.91089 20.8665 3.99996 20.8665H4.13356C4.33356 20.2222 4.73916 19.6724 5.35036 19.2169C5.96102 18.7614 6.65542 18.5337 7.43356 18.5337C8.16689 18.5337 8.84449 18.7614 9.46636 19.2169C10.0888 19.6724 10.5 20.2222 10.7 20.8665H20.9336V8.6001C20.9336 8.3777 20.8501 8.1889 20.6832 8.0337C20.5168 7.87797 20.3224 7.8001 20.1 7.8001H4.19996C3.95569 7.8001 3.76129 7.87797 3.61676 8.0337C3.47222 8.1889 3.39996 8.3777 3.39996 8.6001ZM24.2336 24.3665C24.8778 24.3665 25.4277 24.1276 25.8832 23.6497C26.3386 23.1724 26.5664 22.6225 26.5664 22.0001C26.5664 21.3558 26.3386 20.806 25.8832 20.3505C25.4277 19.8945 24.8778 19.6665 24.2336 19.6665C23.5888 19.6665 23.033 19.8945 22.5664 20.3505C22.0997 20.806 21.8664 21.3558 21.8664 22.0001C21.8664 22.6225 22.0997 23.1724 22.5664 23.6497C23.033 24.1276 23.5888 24.3665 24.2336 24.3665ZM22.0336 18.1337H28.5L24.3336 12.7001H22.0336V18.1337Z" fill="black"/>
<path d="M14.5857 18C15.5039 18 16.3025 17.7158 16.9815 17.1474C17.6605 16.579 18 15.8685 18 15.0159C18 14.1634 17.6605 13.4551 16.9815 12.8913C16.3025 12.3279 15.5039 12.0462 14.5857 12.0462L10.6022 12.0462L11.9499 10.7673C12.04 10.6818 12.0851 10.58 12.0851 10.4618C12.0851 10.3431 12.035 10.2365 11.9348 10.1419C11.8352 10.0473 11.7228 10 11.5977 10C11.4731 10 11.361 10.0473 11.2613 10.1419L9.1797 12.1171C9.1198 12.174 9.07476 12.2356 9.04457 12.302C9.01486 12.3684 9 12.4345 9 12.5005C9 12.5669 9.01486 12.6332 9.04457 12.6996C9.07476 12.766 9.1198 12.8276 9.1797 12.8845L11.2757 14.8741C11.3658 14.9591 11.4731 15.0016 11.5977 15.0016C11.7228 15.0016 11.8352 14.9543 11.9348 14.8597C12.035 14.7647 12.0851 14.6581 12.0851 14.5399C12.0851 14.4216 12.035 14.315 11.9348 14.22L10.6022 12.9554L14.5857 12.9554C15.2446 12.9554 15.8185 13.1473 16.3072 13.5311C16.7965 13.9149 17.0411 14.4098 17.0411 15.0159C17.0411 15.6316 16.7965 16.1314 16.3072 16.5151C15.8185 16.8989 15.2446 17.0908 14.5857 17.0908L11.0069 17.0908C10.877 17.0908 10.7646 17.1358 10.6698 17.2259C10.5749 17.3159 10.5274 17.4223 10.5274 17.5451C10.5274 17.6683 10.5749 17.7749 10.6698 17.865C10.7646 17.955 10.877 18 11.0069 18L14.5857 18Z" fill="black"/>
</svg>
