<svg width="24" height="24" viewBox="0 0 24 24" fill="none" xmlns="http://www.w3.org/2000/svg">
<path d="M18.105 18.9885L18.105 18.9885L18.0977 18.9994C17.6784 19.6258 17.3026 20.1554 16.8967 20.5356C16.5061 20.9013 16.1551 21.0645 15.7822 21.0701L15.7754 21.0702C15.3208 21.0804 15.0391 20.9609 14.5756 20.7603C14.0849 20.5479 13.4571 20.28 12.5056 20.28C11.5616 20.28 10.9299 20.5267 10.421 20.743C10.3954 20.7539 10.3703 20.7645 10.3458 20.775C9.89809 20.9658 9.62068 21.084 9.20083 21.1007C8.89291 21.1123 8.54304 20.9647 8.10725 20.5531C7.66966 20.1399 7.26229 19.5724 6.83545 18.9575C6.05574 17.8312 5.34989 16.1983 5.05077 14.4955C4.75036 12.7854 4.87856 11.1204 5.61575 9.83872L5.61669 9.83708C6.33878 8.5755 7.61708 7.80427 8.97056 7.77988C9.4167 7.77312 9.89475 7.92644 10.4572 8.14592C10.519 8.17005 10.5838 8.19574 10.6503 8.22212C10.8586 8.3047 11.0839 8.39405 11.2896 8.4637C11.5597 8.55516 11.8972 8.65 12.2456 8.65C12.6108 8.65 12.9789 8.5318 13.2559 8.43245C13.4034 8.37954 13.5997 8.30254 13.7894 8.22808C13.9297 8.17304 14.0665 8.11939 14.1773 8.07789C14.8168 7.83853 15.4078 7.67792 15.9632 7.73524L15.9886 7.73787L16.0141 7.73904C16.4653 7.75987 17.5232 7.89605 18.3983 8.68796C17.6529 9.37804 16.6301 10.6796 16.6456 12.6371L16.6456 12.6389C16.6705 15.1386 18.1875 16.5014 19.1144 17.0965C18.9135 17.594 18.5866 18.2912 18.105 18.9885ZM14.3442 4.61383L14.3441 4.61379L14.3368 4.62278C13.9963 5.04222 13.5314 5.38334 13.049 5.568C13.189 5.02209 13.4812 4.48913 13.8177 4.08721C14.1497 3.71227 14.6153 3.38444 15.094 3.16826C14.9558 3.69639 14.6878 4.20148 14.3442 4.61383Z" stroke="black" stroke-width="1.8"/>
</svg>
