<svg width="20" height="20" viewBox="0 0 20 20" fill="none" xmlns="http://www.w3.org/2000/svg">
<path d="M10.001 17.584C8.95964 17.584 7.97697 17.3863 7.05297 16.991C6.12964 16.595 5.32397 16.0533 4.63597 15.366C3.94864 14.678 3.40697 13.8723 3.01097 12.949C2.61564 12.025 2.41797 11.0423 2.41797 10.001C2.41797 8.94564 2.61564 7.95964 3.01097 7.04297C3.40697 6.1263 3.94864 5.32397 4.63597 4.63597C5.32397 3.94864 6.12964 3.40697 7.05297 3.01097C7.97697 2.61564 8.95964 2.41797 10.001 2.41797C11.0563 2.41797 12.0423 2.61564 12.959 3.01097C13.8756 3.40697 14.678 3.94864 15.366 4.63597C16.0533 5.32397 16.595 6.1263 16.991 7.04297C17.3863 7.95964 17.584 8.94564 17.584 10.001C17.584 11.0423 17.3863 12.025 16.991 12.949C16.595 13.8723 16.0533 14.678 15.366 15.366C14.678 16.0533 13.8756 16.595 12.959 16.991C12.0423 17.3863 11.0563 17.584 10.001 17.584ZM10.001 16.459C10.3063 16.1676 10.5876 15.6816 10.845 15.001C11.1016 14.3203 11.3063 13.5633 11.459 12.73H8.54297C8.69564 13.5773 8.9003 14.3413 9.15697 15.022C9.4143 15.7026 9.69564 16.1816 10.001 16.459ZM8.66797 16.355C8.40397 15.9383 8.1643 15.414 7.94897 14.782C7.73364 14.15 7.5703 13.466 7.45897 12.73H4.10497C4.54964 13.6886 5.1713 14.4873 5.96997 15.126C6.76864 15.7646 7.66797 16.1743 8.66797 16.355ZM11.334 16.355C12.334 16.1743 13.2333 15.7646 14.032 15.126C14.8306 14.4873 15.4523 13.6886 15.897 12.73H12.543C12.4036 13.466 12.23 14.1536 12.022 14.793C11.8133 15.4316 11.584 15.9523 11.334 16.355ZM13.001 11.647H16.626C16.6813 11.355 16.7196 11.0736 16.741 10.803C16.7616 10.5323 16.772 10.265 16.772 10.001C16.772 9.73697 16.7616 9.4663 16.741 9.18897C16.7196 8.91097 16.6813 8.63297 16.626 8.35497H13.001C13.015 8.61897 13.022 8.89697 13.022 9.18897V10.876C13.022 11.154 13.015 11.411 13.001 11.647ZM8.45897 11.647H11.543C11.5843 11.3416 11.612 11.057 11.626 10.793C11.64 10.529 11.647 10.265 11.647 10.001C11.647 9.73697 11.64 9.46964 11.626 9.19897C11.612 8.9283 11.5843 8.64697 11.543 8.35497H8.45897C8.41764 8.64697 8.38997 8.9283 8.37597 9.19897C8.36197 9.46964 8.35497 9.73697 8.35497 10.001C8.35497 10.265 8.36197 10.5323 8.37597 10.803C8.38997 11.0736 8.41764 11.355 8.45897 11.647ZM3.37597 11.647H7.00097C6.98697 11.383 6.97997 11.105 6.97997 10.813V9.12597C6.97997 8.84797 6.98697 8.59097 7.00097 8.35497H3.37597C3.32064 8.64697 3.2823 8.9283 3.26097 9.19897C3.2403 9.46964 3.22997 9.73697 3.22997 10.001C3.22997 10.265 3.2403 10.5323 3.26097 10.803C3.2823 11.0736 3.32064 11.355 3.37597 11.647ZM12.543 7.27197H15.897C15.4523 6.2993 14.8343 5.50064 14.043 4.87597C13.251 4.2513 12.348 3.83464 11.334 3.62597C11.598 4.07064 11.8343 4.6053 12.043 5.22997C12.251 5.8553 12.4176 6.53597 12.543 7.27197ZM8.54297 7.27197H11.459C11.3063 6.42464 11.0946 5.65364 10.824 4.95897C10.5533 4.26497 10.279 3.79297 10.001 3.54297C9.72297 3.79297 9.44864 4.26497 9.17797 4.95897C8.9073 5.65364 8.69564 6.42464 8.54297 7.27197ZM4.10497 7.27197H7.45897C7.5843 6.53597 7.75097 5.8553 7.95897 5.22997C8.16764 4.6053 8.40397 4.07064 8.66797 3.62597C7.63997 3.83464 6.73364 4.2513 5.94897 4.87597C5.1643 5.50064 4.54964 6.2993 4.10497 7.27197Z" fill="#555555"/>
</svg>
