<svg width="20" height="20" viewBox="0 0 20 20" fill="none" xmlns="http://www.w3.org/2000/svg">
<path d="M8.93801 16.375L7.89601 15.417C6.32667 14.0143 4.96534 12.667 3.81201 11.375C2.65934 10.0837 2.08301 8.69467 2.08301 7.208C2.08301 6.028 2.48601 5.03167 3.29201 4.219C4.09734 3.40633 5.09734 3 6.29201 3C6.97201 3 7.63501 3.15633 8.28101 3.469C8.92701 3.78167 9.50001 4.25733 10 4.896C10.486 4.25733 11.052 3.78167 11.698 3.469C12.344 3.15633 13.0073 3 13.688 3C14.882 3 15.8853 3.40633 16.698 4.219C17.5107 5.03167 17.917 6.028 17.917 7.208C17.917 8.708 17.3163 10.1143 16.115 11.427C14.913 12.7397 13.5137 14.1253 11.917 15.584L11.062 16.354C10.7567 16.632 10.4027 16.7677 10 16.761C9.59734 16.7537 9.24334 16.625 8.93801 16.375ZM9.35401 6.188C9.07667 5.674 8.65667 5.23633 8.09401 4.875C7.53134 4.51433 6.93067 4.334 6.29201 4.334C5.45867 4.334 4.77101 4.60467 4.22901 5.146C3.68767 5.68733 3.41701 6.37467 3.41701 7.208C3.41701 7.87467 3.62867 8.56567 4.05201 9.281C4.47601 9.99633 5.01067 10.7047 5.65601 11.406C6.30201 12.1073 6.99667 12.7913 7.74001 13.458C8.48267 14.1247 9.18034 14.7637 9.83301 15.375C9.87501 15.417 9.93067 15.438 10 15.438C10.0693 15.438 10.125 15.417 10.167 15.375C10.8057 14.7917 11.5 14.1597 12.25 13.479C13 12.7983 13.6943 12.1007 14.333 11.386C14.9723 10.6707 15.5073 9.95867 15.938 9.25C16.368 8.542 16.583 7.86133 16.583 7.208C16.583 6.37467 16.3087 5.68733 15.76 5.146C15.212 4.60467 14.5213 4.334 13.688 4.334C13.0487 4.334 12.4583 4.51433 11.917 4.875C11.375 5.23633 10.9583 5.674 10.667 6.188C10.597 6.29867 10.4997 6.389 10.375 6.459C10.2503 6.52833 10.1253 6.563 10 6.563C9.88867 6.563 9.77067 6.52833 9.64601 6.459C9.52067 6.389 9.42334 6.29867 9.35401 6.188Z" fill="white"/>
</svg>
