<svg width="24" height="24" viewBox="0 0 24 24" fill="none" xmlns="http://www.w3.org/2000/svg">
<path d="M12 22.0001C10.6868 22.0001 9.38642 21.7414 8.17316 21.2389C6.95991 20.7363 5.85752 19.9997 4.92893 19.0711C3.05357 17.1958 2 14.6522 2 12.0001C2 9.34791 3.05357 6.80437 4.92893 4.92901C6.8043 3.05365 9.34783 2.00008 12 2.00008C13.3139 1.99486 14.6157 2.25124 15.8296 2.75428C17.0434 3.25733 18.1449 3.99696 19.07 4.93008C19.1637 5.02304 19.2381 5.13364 19.2889 5.2555C19.3397 5.37736 19.3658 5.50807 19.3658 5.64008C19.3658 5.77209 19.3397 5.9028 19.2889 6.02465C19.2381 6.14651 19.1637 6.25711 19.07 6.35008C18.8826 6.53633 18.6292 6.64087 18.365 6.64087C18.1008 6.64087 17.8474 6.53633 17.66 6.35008C16.9203 5.60157 16.0387 5.00818 15.0668 4.60466C14.0949 4.20113 13.0523 3.9956 12 4.00008C9.87827 4.00008 7.84344 4.84293 6.34315 6.34322C4.84285 7.84351 4 9.87835 4 12.0001C4 14.1218 4.84285 16.1566 6.34315 17.6569C7.84344 19.1572 9.87827 20.0001 12 20.0001C13.949 20.0007 15.8312 19.2899 17.2932 18.001C18.7552 16.7121 19.6964 14.9338 19.94 13.0001H12C11.7348 13.0001 11.4804 12.8947 11.2929 12.7072C11.1054 12.5196 11 12.2653 11 12.0001C11 11.7349 11.1054 11.4805 11.2929 11.293C11.4804 11.1054 11.7348 11.0001 12 11.0001H21C21.2652 11.0001 21.5196 11.1054 21.7071 11.293C21.8946 11.4805 22 11.7349 22 12.0001C22 14.6522 20.9464 17.1958 19.0711 19.0711C17.1957 20.9465 14.6522 22.0001 12 22.0001Z" fill="black"/>
</svg>
