<svg width="32" height="32" viewBox="0 0 32 32" fill="none" xmlns="http://www.w3.org/2000/svg">
<circle cx="16" cy="16" r="15.5" stroke="white"/>
<g clip-path="url(#clip0_1005_1351)">
<path d="M25.6875 16C25.6875 21.3516 21.3516 25.6875 16 25.6875C15 25.6875 14.0391 25.5352 13.1328 25.2539C13.5273 24.6094 14.1172 23.5547 14.3359 22.7148C14.4531 22.2617 14.9375 20.4102 14.9375 20.4102C15.2539 21.0117 16.1758 21.5234 17.1562 21.5234C20.0781 21.5234 22.1836 18.8359 22.1836 15.4961C22.1836 12.2969 19.5703 9.90234 16.2109 9.90234C12.0312 9.90234 9.80859 12.707 9.80859 15.7656C9.80859 17.1875 10.5664 18.957 11.7734 19.5195C11.957 19.6055 12.0547 19.5664 12.0977 19.3906C12.1289 19.2578 12.293 18.5977 12.3672 18.293C12.3906 18.1953 12.3789 18.1094 12.3008 18.0156C11.9062 17.5273 11.5859 16.6367 11.5859 15.8047C11.5859 13.668 13.2031 11.6016 15.9609 11.6016C18.3398 11.6016 20.0078 13.2227 20.0078 15.543C20.0078 18.1641 18.6836 19.9805 16.9609 19.9805C16.0117 19.9805 15.2969 19.1953 15.5273 18.2305C15.8008 17.0781 16.3281 15.8359 16.3281 15.0039C16.3281 14.2617 15.9297 13.6406 15.1016 13.6406C14.1289 13.6406 13.3477 14.6445 13.3477 15.9922C13.3477 16.8516 13.6367 17.4297 13.6367 17.4297C13.6367 17.4297 12.6797 21.4844 12.5039 22.2422C12.3086 23.0781 12.3867 24.2578 12.4688 25.0234C8.86719 23.6133 6.3125 20.1055 6.3125 16C6.3125 10.6484 10.6484 6.3125 16 6.3125C21.3516 6.3125 25.6875 10.6484 25.6875 16Z" fill="white"/>
</g>
<defs>
<clipPath id="clip0_1005_1351">
<rect width="20" height="20" fill="white" transform="translate(6 6)"/>
</clipPath>
</defs>
</svg>
