<svg width="60" height="39" viewBox="0 0 60 39" fill="none" xmlns="http://www.w3.org/2000/svg">
<mask id="mask0_363_9241" style="mask-type:alpha" maskUnits="userSpaceOnUse" x="0" y="0" width="60" height="39">
<path d="M0 0.5H60V38.5H0V0.5Z" fill="white"/>
</mask>
<g mask="url(#mask0_363_9241)">
<path fill-rule="evenodd" clip-rule="evenodd" d="M60 36.4733C60 37.0107 59.7893 37.5261 59.4144 37.906C59.0394 38.286 58.5308 38.4995 58.0005 38.4995H1.99952C1.46922 38.4995 0.96063 38.286 0.585647 37.906C0.210664 37.5261 9.15594e-07 37.0107 9.15594e-07 36.4733V2.52716C-0.000250512 2.26092 0.0512831 1.99723 0.151656 1.75117C0.252029 1.50512 0.399273 1.28153 0.58497 1.09317C0.770668 0.904814 0.991179 0.755391 1.2339 0.653444C1.47661 0.551497 1.73678 0.499023 1.99952 0.499023H58.0005C58.2631 0.499023 58.5232 0.551465 58.7659 0.653352C59.0085 0.755238 59.229 0.904574 59.4147 1.09283C59.6004 1.28108 59.7476 1.50456 59.8481 1.7505C59.9485 1.99644 60.0001 2.26003 60 2.52619V36.4733Z" fill="#F9F9F9"/>
</g>
<path fill-rule="evenodd" clip-rule="evenodd" d="M27.6105 25.2081H24.6801L26.5122 13.7998H29.443L27.6105 25.2081ZM22.2141 13.8003L19.4201 21.6462L19.0891 19.9569V19.9579L18.1022 14.8274C18.1022 14.8274 17.9836 13.7998 16.7121 13.7998H12.0926L12.0391 13.9937C12.0391 13.9937 13.4516 14.2908 15.1053 15.2976L17.6511 25.2081H20.7049L25.3689 13.7998H22.2141V13.8003ZM42.0434 21.1731L43.5832 16.9031L44.45 21.1731H42.0434ZM45.2684 25.2081H47.9597L45.6133 13.8003H43.257C42.1687 13.8003 41.9032 14.65 41.9032 14.65L37.532 25.2081H40.5873L41.1981 23.5139H44.924L45.268 25.2081H45.2684ZM37.7616 16.5434L38.1797 14.0935C38.1797 14.0935 36.8881 13.5962 35.544 13.5962C34.0888 13.5962 30.6351 14.2409 30.6351 17.3723C30.6351 20.3205 34.6896 20.3573 34.6896 21.9046C34.6896 23.4519 31.0532 23.1756 29.8525 22.1993L29.4167 24.7602C29.4167 24.7602 30.7255 25.4049 32.7255 25.4049C34.725 25.4049 37.7434 24.3549 37.7434 21.4993C37.7434 18.5328 33.653 18.2565 33.653 16.9671C33.653 15.6772 36.5074 15.8425 37.7616 16.5434Z" fill="#0066B2"/>
<path fill-rule="evenodd" clip-rule="evenodd" d="M19.0886 19.9574L18.1022 14.8274C18.1022 14.8274 17.9836 13.7998 16.7121 13.7998H12.0926L12.0391 13.9937C12.0391 13.9937 14.2596 14.4595 16.3892 16.206C18.4256 17.8764 19.0886 19.9579 19.0886 19.9579" fill="#F9A533"/>
</svg>
