<svg width="24" height="24" viewBox="0 0 24 24" fill="none" xmlns="http://www.w3.org/2000/svg">
<path d="M12 2.625C10.3587 2.62543 8.74626 3.05663 7.32384 3.8755C5.90141 4.69438 4.71882 5.87225 3.89427 7.2914C3.06971 8.71054 2.63207 10.3212 2.62508 11.9625C2.6181 13.6038 3.04202 15.2182 3.85446 16.6443L3.0103 19.599C2.95519 19.7919 2.95268 19.996 3.00301 20.1902C3.05334 20.3844 3.15469 20.5616 3.29655 20.7035C3.43842 20.8453 3.61564 20.9467 3.80984 20.997C4.00405 21.0473 4.20818 21.0448 4.40108 20.9897L7.35576 20.1455C8.6032 20.8567 9.99732 21.2719 11.4306 21.359C12.8639 21.4461 14.298 21.2028 15.6224 20.648C16.9468 20.0931 18.126 19.2414 19.0691 18.1586C20.0123 17.0758 20.6941 15.7909 21.062 14.4029C21.4299 13.0149 21.4741 11.561 21.1912 10.1532C20.9082 8.74541 20.3057 7.42144 19.4301 6.28338C18.5545 5.14533 17.4291 4.22361 16.1409 3.58931C14.8526 2.95502 13.4359 2.6251 12 2.625ZM12 20.625C10.451 20.6261 8.93029 20.2093 7.59819 19.4187C7.55428 19.3926 7.50548 19.3757 7.4548 19.3691C7.40411 19.3625 7.35262 19.3664 7.30348 19.3804L4.19499 20.2686C4.13069 20.287 4.06265 20.2878 3.99791 20.271C3.93318 20.2542 3.87411 20.2204 3.82682 20.1732C3.77954 20.1259 3.74576 20.0668 3.729 20.002C3.71223 19.9373 3.71308 19.8693 3.73146 19.805L4.61952 16.6966C4.63356 16.6474 4.6374 16.5959 4.63082 16.5453C4.62424 16.4946 4.60737 16.4458 4.58125 16.4019C3.60978 14.7652 3.20689 12.8531 3.43535 10.9636C3.66381 9.07406 4.51078 7.31313 5.84433 5.95513C7.17789 4.59713 8.92313 3.71831 10.8082 3.45557C12.6933 3.19283 14.6123 3.56092 16.2664 4.5025C17.9205 5.44409 19.2167 6.90629 19.9531 8.66134C20.6896 10.4164 20.8249 12.3657 20.338 14.2057C19.8511 16.0456 18.7693 17.6729 17.2612 18.834C15.7531 19.9951 13.9033 20.6248 12 20.625ZM16.7354 13.7384L14.8174 12.6423C14.6438 12.5433 14.447 12.4922 14.2472 12.4943C14.0474 12.4965 13.8518 12.5517 13.6804 12.6544L12.386 13.4311C11.6025 13.0341 10.9659 12.3975 10.5689 11.6139L11.3455 10.3196C11.4482 10.1482 11.5035 9.95253 11.5056 9.75274C11.5077 9.55294 11.4567 9.35618 11.3576 9.18265L10.2616 7.26452C10.1721 7.10837 10.043 6.97857 9.88735 6.88824C9.73168 6.7979 9.55494 6.75022 9.37496 6.75C8.5813 6.7502 7.82004 7.0648 7.25779 7.62495C6.69555 8.1851 6.37811 8.94518 6.37496 9.73883C6.3735 10.7739 6.57611 11.7991 6.97121 12.7559C7.36631 13.7126 7.94614 14.582 8.67753 15.3145C9.40893 16.0469 10.2775 16.628 11.2337 17.0244C12.1898 17.4209 13.2148 17.625 14.2499 17.625H14.2611C15.0548 17.6218 15.8148 17.3044 16.375 16.7422C16.9351 16.1799 17.2498 15.4187 17.25 14.625C17.2498 14.445 17.2021 14.2683 17.1117 14.1126C17.0214 13.957 16.8916 13.8279 16.7354 13.7384ZM14.2601 16.875H14.2499C13.3134 16.875 12.3861 16.6904 11.521 16.3317C10.6559 15.973 9.86998 15.4473 9.20823 14.7846C8.54649 14.1219 8.02188 13.3352 7.66441 12.4696C7.30694 11.604 7.12363 10.6764 7.12496 9.73993C7.12754 9.14492 7.36575 8.57516 7.78743 8.15536C8.20912 7.73557 8.77994 7.49992 9.37496 7.5C9.42275 7.50006 9.46968 7.51272 9.51102 7.5367C9.55236 7.56068 9.58665 7.59514 9.61043 7.63659L10.7065 9.55481C10.7395 9.61266 10.7565 9.67824 10.7558 9.74483C10.7551 9.81142 10.7366 9.87662 10.7024 9.93375L9.82219 11.4008C9.79106 11.4526 9.77295 11.5113 9.76938 11.5716C9.76582 11.632 9.77692 11.6923 9.80173 11.7475C10.2912 12.8368 11.1632 13.7088 12.2525 14.1983C12.3077 14.2231 12.368 14.2342 12.4284 14.2306C12.4888 14.2271 12.5474 14.2089 12.5993 14.1778L14.0662 13.2976C14.1233 13.2633 14.1886 13.2449 14.2552 13.2442C14.3218 13.2435 14.3874 13.2605 14.4452 13.2935L16.3634 14.3896C16.4049 14.4134 16.4393 14.4476 16.4633 14.489C16.4873 14.5303 16.4999 14.5772 16.5 14.625C16.5 15.22 16.2644 15.7908 15.8446 16.2125C15.4248 16.6342 14.8551 16.8724 14.2601 16.875Z" fill="black" stroke="black" stroke-width="0.8"/>
</svg>
