<svg width="66" height="39" viewBox="0 0 66 39" fill="none" xmlns="http://www.w3.org/2000/svg">
<path d="M47.1448 0.425C52.073 0.546243 56.7589 2.5893 60.2023 6.11831C63.6468 9.64855 65.575 14.386 65.575 19.3189C65.575 24.2519 63.6468 28.9893 60.2023 32.5196C56.7589 36.0486 52.0731 38.0916 47.1448 38.2129H18.8552C13.9269 38.0916 9.24109 36.0486 5.79774 32.5196C2.35318 28.9893 0.425 24.2519 0.425 19.3189C0.425 14.386 2.35318 9.64855 5.79774 6.11831C9.24109 2.5893 13.927 0.546243 18.8552 0.425H47.1448ZM48.9967 21.2226L48.9426 21.2081H48.8866H46.6016H37.6212C36.9127 21.17 36.221 20.978 35.5941 20.6455C34.964 20.3113 34.4146 19.8432 33.9846 19.2741L33.261 18.3166L33.2735 18.3252L32.9826 17.2169C32.8199 16.5968 32.7401 15.9579 32.7452 15.3168L32.7452 15.3122C32.7435 14.7146 32.8125 14.1189 32.9508 13.5376L33.2026 12.4785L32.2998 13.0868C31.969 13.3097 31.5788 13.4278 31.1799 13.4257H31.1777H21.3179C19.5288 13.4257 18.3111 14.3474 17.5592 15.5263C16.8177 16.6886 16.517 18.1117 16.517 19.2104C16.517 20.312 16.8305 21.7323 17.5774 22.8905C18.3342 24.064 19.5508 24.9836 21.3179 24.9836H28.7556H29.1806V24.5586V21.7474V21.3224H28.7556H26.4858C25.9834 21.2844 25.5133 21.0588 25.1692 20.6901C24.8219 20.3181 24.6287 19.828 24.6287 19.3189C24.6287 18.8099 24.8219 18.3198 25.1692 17.9477C25.5133 17.579 25.9834 17.3535 26.4858 17.3155H31.1776C31.1776 17.3155 31.1777 17.3155 31.1777 17.3155C31.5894 17.3156 31.9913 17.4408 32.3303 17.6746L33.2205 18.2886V19.5303V24.5586V24.9836H33.6455H48.8866H48.9426L48.9967 24.9691C49.4714 24.8417 49.6605 24.3849 49.7417 24.077C49.8314 23.7366 49.8486 23.3589 49.8486 23.0959C49.8486 22.8328 49.8314 22.4551 49.7417 22.1147C49.6605 21.8068 49.4714 21.35 48.9967 21.2226ZM3.9723 19.3125L3.9723 19.3136C3.97542 23.2592 5.54383 27.0425 8.33319 29.8325C11.1226 32.6226 14.9049 34.1914 18.8497 34.1946H18.85H32.3773H32.8023V33.7696V29.4155V28.9905H32.3773H21.3407C15.8454 28.9905 12.5342 24.074 12.5342 19.2104C12.5342 14.3453 15.8466 9.41879 21.3179 9.41879H28.7899H29.2149V8.99379V4.85687V4.43187H28.7899L18.85 4.43187L18.8494 4.43187C14.9056 4.4381 11.1252 6.0079 8.33652 8.79723C5.54789 11.5866 3.97852 15.3679 3.9723 19.3125ZM36.8194 33.7696V34.1946H37.2444H47.15C51.0958 34.1946 54.88 32.6267 57.6702 29.8359C60.4603 27.0451 62.0277 23.26 62.0277 19.3132C62.0277 15.3665 60.4603 11.5814 57.6702 8.79056C54.88 5.99975 51.0958 4.43187 47.15 4.43187H33.6455H33.2205V4.85687V11.0965V12.3773L33.9862 11.3506C34.4044 10.7899 34.9392 10.3267 35.5539 9.993C36.1646 9.66145 36.8395 9.46561 37.5327 9.41879H51.8875C52.39 9.45677 52.8601 9.68233 53.2042 10.051C53.5515 10.4231 53.7447 10.9131 53.7447 11.4222C53.7447 11.9313 53.5515 12.4214 53.2042 12.7934C52.8601 13.1621 52.39 13.3877 51.8875 13.4257H37.7814H37.7254L37.6712 13.4402C37.1949 13.568 37.0066 14.0304 36.9262 14.3371C36.8366 14.6784 36.8194 15.0556 36.8194 15.3134C36.8194 15.9999 36.9281 16.4373 37.0705 16.7202C37.1424 16.8631 37.2228 16.966 37.3004 17.0389C37.3389 17.0751 37.3756 17.1029 37.4087 17.1241C37.4252 17.1347 37.4406 17.1435 37.4546 17.1508C37.457 17.152 37.4593 17.1532 37.4615 17.1544C37.4661 17.1566 37.4704 17.1587 37.4746 17.1607L37.4837 17.1649L37.488 17.1667L37.4902 17.1676L37.4912 17.1681C37.4917 17.1683 37.4922 17.1685 37.6557 16.7762L37.4922 17.1685L37.5707 17.2012H37.6557H49.0727C50.0535 17.2395 51.2589 17.6561 52.2171 18.583C53.1685 19.5033 53.8999 20.9496 53.8999 23.0959C53.8999 27.3426 51.026 28.9252 49.1536 28.9905H37.2444H36.8194V29.4155V33.7696Z" fill="#14837D" stroke="white" stroke-width="0.85"/>
</svg>
