<svg width="324" height="435" viewBox="0 0 324 435" fill="none" xmlns="http://www.w3.org/2000/svg">
<path d="M324 410L324 89.4558C324 83.4893 321.866 77.7195 317.984 73.1888L262.753 8.73307C258.003 3.19022 251.068 3.18794e-06 243.769 3.50701e-06L25 1.30697e-05C11.1929 1.36732e-05 -1.85252e-05 11.1929 -1.79217e-05 25L-1.09278e-06 410C-4.89256e-07 423.807 11.1929 435 25 435L299 435C312.807 435 324 423.807 324 410Z" fill="#BB2539"/>
<path fill-rule="evenodd" clip-rule="evenodd" d="M107.888 152H217.113C251.668 152 280 180.501 280 215.261V320.739C280 355.499 251.668 384 217.113 384H107.888C73.3328 384 45.0005 355.499 45.0005 320.739V215.261C44.8681 180.501 73.2004 152 107.888 152Z" fill="#8F081A" fill-opacity="0.3"/>
<path fill-rule="evenodd" clip-rule="evenodd" d="M255 267C253.407 315.8 211.732 355 160.5 355C109.401 355 67.7254 315.933 66 267H255Z" fill="#BB2539"/>
<path fill-rule="evenodd" clip-rule="evenodd" d="M140 237C139.463 219.252 124.16 205 105.5 205C86.8405 205 71.537 219.252 71 237H140Z" fill="#BB2539"/>
<path fill-rule="evenodd" clip-rule="evenodd" d="M254 236C253.463 218.252 238.16 204 219.5 204C200.84 204 185.537 218.252 185 236H254Z" fill="#BB2539"/>
<path fill-rule="evenodd" clip-rule="evenodd" d="M140 47L89 47.6602L119.101 136L140 47Z" fill="#8F081A" fill-opacity="0.3"/>
<path fill-rule="evenodd" clip-rule="evenodd" d="M67.2772 80L36 100.51L100 139L67.2772 80Z" fill="#8F081A" fill-opacity="0.3"/>
<path fill-rule="evenodd" clip-rule="evenodd" d="M172.929 77L175.851 78.5676L204 94.1126L140 135L171.469 79.7432L172.929 77Z" fill="#8F081A" fill-opacity="0.3"/>
</svg>
