<svg width="60" height="33" viewBox="0 0 60 33" fill="none" xmlns="http://www.w3.org/2000/svg">
<path d="M34.25 11.2505C33.56 11.2505 33 11.8105 33 12.5005C33 13.1905 33.56 13.7505 34.25 13.7505H38V11.2505H34.25Z" fill="#BB2539"/>
<path d="M34.25 10.0003H36.75V6.87528C36.75 6.52528 36.475 6.25028 36.125 6.25028H34.875V4.37528C34.875 4.02528 34.6 3.75028 34.25 3.75028H32.7625L31.6875 1.60028C31.525 1.28778 31.15 1.16278 30.85 1.31278L29.4 2.03778L29.1875 1.60028C29.025 1.28778 28.65 1.16278 28.35 1.31278L23.475 3.75028H19.875C18.8375 3.75028 18 4.58778 18 5.62528V16.8753C18 17.9128 18.8375 18.7503 19.875 18.7503H36.125C36.475 18.7503 36.75 18.4753 36.75 18.1253V15.0003H34.25C32.875 15.0003 31.75 13.8753 31.75 12.5003C31.75 11.1253 32.875 10.0003 34.25 10.0003ZM33.625 5.00028V5.47528L33.3875 5.00028H33.625ZM19.2875 5.83778C19.2625 5.77528 19.25 5.70028 19.25 5.62528C19.25 5.27528 19.525 5.00028 19.875 5.00028H20.975L19.2875 5.83778ZM21.275 6.25028L28.35 2.71278L30.1125 6.25028H21.275ZM31.5125 6.25028L29.9625 3.15028L30.85 2.71278L32.6125 6.25028H31.5125Z" fill="#BB2539"/>
<path d="M6.43 31H5.53V27.67H1.87V31H0.97V23.86H1.87V26.88H5.53V23.86H6.43V31ZM10.2921 25.55C10.9454 25.55 11.4288 25.6933 11.7421 25.98C12.0554 26.2667 12.2121 26.7233 12.2121 27.35V31H11.5721L11.4021 30.24H11.3621C11.1288 30.5333 10.8821 30.75 10.6221 30.89C10.3688 31.03 10.0154 31.1 9.56211 31.1C9.07544 31.1 8.67211 30.9733 8.35211 30.72C8.03211 30.46 7.87211 30.0567 7.87211 29.51C7.87211 28.9767 8.08211 28.5667 8.50211 28.28C8.92211 27.9867 9.56878 27.8267 10.4421 27.8L11.3521 27.77V27.45C11.3521 27.0033 11.2554 26.6933 11.0621 26.52C10.8688 26.3467 10.5954 26.26 10.2421 26.26C9.96211 26.26 9.69544 26.3033 9.44211 26.39C9.18878 26.47 8.95211 26.5633 8.73211 26.67L8.46211 26.01C8.69544 25.8833 8.97211 25.7767 9.29211 25.69C9.61211 25.5967 9.94544 25.55 10.2921 25.55ZM10.5521 28.41C9.88544 28.4367 9.42211 28.5433 9.16211 28.73C8.90878 28.9167 8.78211 29.18 8.78211 29.52C8.78211 29.82 8.87211 30.04 9.05211 30.18C9.23878 30.32 9.47544 30.39 9.76211 30.39C10.2154 30.39 10.5921 30.2667 10.8921 30.02C11.1921 29.7667 11.3421 29.38 11.3421 28.86V28.38L10.5521 28.41ZM17.9476 31H17.0576V26.37H15.4776C15.3909 27.4967 15.2709 28.4067 15.1176 29.1C14.9642 29.7867 14.7609 30.2867 14.5076 30.6C14.2542 30.9133 13.9342 31.07 13.5476 31.07C13.4609 31.07 13.3742 31.0633 13.2876 31.05C13.2076 31.0433 13.1409 31.0267 13.0876 31V30.34C13.1276 30.3533 13.1709 30.3633 13.2176 30.37C13.2642 30.3767 13.3109 30.38 13.3576 30.38C13.7176 30.38 14.0042 29.9967 14.2176 29.23C14.4376 28.4633 14.6042 27.2667 14.7176 25.64H17.9476V31ZM20.4788 28.91C20.4788 28.99 20.4755 29.11 20.4688 29.27C20.4622 29.43 20.4522 29.59 20.4388 29.75C20.4322 29.91 20.4255 30.0367 20.4188 30.13L23.2888 25.64H24.3688V31H23.5488V27.84C23.5488 27.7333 23.5488 27.5933 23.5488 27.42C23.5555 27.2467 23.5622 27.0767 23.5688 26.91C23.5755 26.7367 23.5822 26.6067 23.5888 26.52L20.7388 31H19.6488V25.64H20.4788V28.91ZM26.8446 27.59C26.8446 28.2033 27.1879 28.51 27.8746 28.51C28.2079 28.51 28.5113 28.46 28.7846 28.36C29.0579 28.2533 29.3379 28.1133 29.6246 27.94V25.64H30.5046V31H29.6246V28.61C29.3246 28.8033 29.0279 28.9567 28.7346 29.07C28.4479 29.1767 28.1013 29.23 27.6946 29.23C27.1479 29.23 26.7213 29.0867 26.4146 28.8C26.1146 28.5133 25.9646 28.13 25.9646 27.65V25.64H26.8446V27.59ZM33.0874 25.64V27.87H35.9974V25.64H36.8774V31H35.9974V28.61H33.0874V31H32.2074V25.64H33.0874ZM38.5746 31V25.64H39.4546V27.84H40.8446C41.5379 27.84 42.0513 27.9667 42.3846 28.22C42.7179 28.4733 42.8846 28.8533 42.8846 29.36C42.8846 29.86 42.7213 30.26 42.3946 30.56C42.0679 30.8533 41.5379 31 40.8046 31H38.5746ZM43.7746 31V25.64H44.6546V31H43.7746ZM40.7246 30.29C41.1046 30.29 41.4146 30.2267 41.6546 30.1C41.8946 29.9667 42.0146 29.7367 42.0146 29.41C42.0146 29.0833 41.9046 28.8633 41.6846 28.75C41.4646 28.63 41.1479 28.57 40.7346 28.57H39.4546V30.29H40.7246ZM52.1078 25.64V31H51.3178V27.58C51.3178 27.44 51.3211 27.2933 51.3278 27.14C51.3411 26.9867 51.3545 26.8367 51.3678 26.69H51.3378L49.5878 31H48.8478L47.1478 26.69H47.1178C47.1378 26.99 47.1478 27.2967 47.1478 27.61V31H46.3578V25.64H47.5278L49.2178 29.95L50.9378 25.64H52.1078ZM54.6488 28.91C54.6488 28.99 54.6454 29.11 54.6388 29.27C54.6321 29.43 54.6221 29.59 54.6088 29.75C54.6021 29.91 54.5954 30.0367 54.5888 30.13L57.4588 25.64H58.5388V31H57.7188V27.84C57.7188 27.7333 57.7188 27.5933 57.7188 27.42C57.7254 27.2467 57.7321 27.0767 57.7388 26.91C57.7454 26.7367 57.7521 26.6067 57.7588 26.52L54.9088 31H53.8188V25.64H54.6488V28.91Z" fill="#4F4F4F"/>
</svg>
