<svg width="45" height="45" viewBox="0 0 45 45" fill="none" xmlns="http://www.w3.org/2000/svg">
<path d="M1 17.8188H43" stroke="#43ACDF" stroke-width="2"/>
<path d="M19.707 9.94866C18.9015 9.32643 18.6221 8.67146 18.9508 7.90187C19.296 7.11591 20.0193 6.98491 20.8084 7.00129C21.7125 7.01766 22.6166 7.01766 23.5207 7.00129C24.3097 6.98491 25.0001 7.16503 25.3289 7.98374C25.6577 8.78608 25.2467 9.32643 24.5399 9.93228C25.0495 9.93228 25.4111 9.93228 25.7728 9.93228C28.107 9.93228 30.4248 9.91591 32.7591 9.93228C35.2412 9.94866 37.4769 11.9463 37.8385 14.4843C27.3673 14.4843 16.896 14.4843 6.4248 14.4843C6.58919 12.0937 8.95631 9.94866 11.4385 9.93228C14.118 9.93228 16.7974 9.94866 19.707 9.94866Z" fill="#43ACDF"/>
<path d="M6 17.8188H38V32.8188C38 35.028 36.2091 36.8188 34 36.8188H10C7.79086 36.8188 6 35.028 6 32.8188V17.8188Z" stroke="#43ACDF" stroke-width="2"/>
<path d="M16.6181 30.4205L20.0908 30.412L20.0943 31.8407L13.7232 31.8563L13.7222 31.4461C15.113 29.9206 16.1174 28.7811 16.7353 28.0276C17.3578 27.2741 17.7689 26.7035 17.9684 26.3156C18.1726 25.9232 18.2742 25.5356 18.2732 25.1527C18.2722 24.7426 18.1415 24.4125 17.8812 24.1625C17.6253 23.9125 17.2878 23.788 16.8685 23.789C16.431 23.7901 16.0782 23.9208 15.8099 24.1812C15.5462 24.4371 15.4149 24.7701 15.4159 25.1802L15.4164 25.3853L13.9056 25.389L13.9051 25.1771C13.9031 24.3386 14.1726 23.6611 14.7136 23.1448C15.2547 22.624 15.9672 22.3625 16.8514 22.3603C17.7172 22.3582 18.4243 22.6185 18.9724 23.1413C19.5206 23.6595 19.7956 24.3264 19.7976 25.1422C19.7987 25.5751 19.7222 25.9923 19.5683 26.3937C19.4143 26.7951 19.1079 27.3154 18.6492 27.9546C18.1905 28.5892 17.5134 29.4111 16.6181 30.4205ZM26.9317 26.8543C27.3196 27.0857 27.6212 27.3972 27.8363 27.7886C28.056 28.1754 28.1665 28.6035 28.1676 29.0729C28.1697 29.9251 27.8547 30.6254 27.2225 31.1739C26.595 31.7223 25.7844 31.9977 24.791 32.0001C23.7884 32.0026 22.9742 31.7357 22.3486 31.1994C21.7275 30.6632 21.4158 29.9599 21.4137 29.0894C21.4126 28.6246 21.5186 28.1982 21.7319 27.8103C21.9497 27.4224 22.2542 27.1072 22.6456 26.8647C22.3488 26.6376 22.1157 26.3533 21.9462 26.0119C21.7813 25.6705 21.6984 25.3062 21.6975 24.9188C21.6956 24.1623 21.9789 23.5441 22.5474 23.0642C23.1205 22.5843 23.8627 22.3432 24.7742 22.341C25.6856 22.3387 26.4245 22.5762 26.9908 23.0533C27.557 23.5259 27.8411 24.1427 27.843 24.9038C27.8439 25.3003 27.7628 25.6719 27.5996 26.0186C27.4409 26.3608 27.2183 26.6394 26.9317 26.8543ZM24.7773 23.6056C24.3079 23.6067 23.9254 23.733 23.6298 23.9844C23.3341 24.2312 23.1868 24.5483 23.1877 24.9357C23.1887 25.3276 23.3376 25.6485 23.6344 25.8984C23.9313 26.1484 24.3144 26.2728 24.7838 26.2716C25.2486 26.2705 25.6266 26.1442 25.9176 25.8929C26.2087 25.6415 26.3537 25.3199 26.3528 24.9279C26.3518 24.5406 26.2052 24.2242 25.913 23.9788C25.6207 23.7289 25.2421 23.6045 24.7773 23.6056ZM24.7946 30.6808C25.3506 30.6794 25.7991 30.5325 26.1402 30.24C26.4812 29.9429 26.6512 29.562 26.6501 29.0971C26.6489 28.6277 26.4771 28.2453 26.1346 27.95C25.7921 27.6546 25.3428 27.5076 24.7868 27.5089C24.2354 27.5103 23.7869 27.6595 23.4412 27.9565C23.1002 28.2536 22.9302 28.6368 22.9313 29.1062C22.9325 29.5711 23.1043 29.9512 23.4468 30.2466C23.7939 30.5374 24.2431 30.6821 24.7946 30.6808Z" fill="#43ACDF"/>
</svg>
