<svg width="45" height="45" viewBox="0 0 45 45" fill="none" xmlns="http://www.w3.org/2000/svg">
<path d="M1 17.8188H43" stroke="#43ACDF" stroke-width="2"/>
<path d="M19.707 9.94866C18.9015 9.32643 18.6221 8.67146 18.9508 7.90187C19.296 7.11591 20.0193 6.98491 20.8084 7.00129C21.7125 7.01766 22.6166 7.01766 23.5207 7.00129C24.3097 6.98491 25.0001 7.16503 25.3289 7.98374C25.6577 8.78608 25.2467 9.32643 24.5399 9.93228C25.0495 9.93228 25.4111 9.93228 25.7728 9.93228C28.107 9.93228 30.4248 9.91591 32.7591 9.93228C35.2412 9.94866 37.4769 11.9463 37.8385 14.4843C27.3673 14.4843 16.896 14.4843 6.4248 14.4843C6.58919 12.0937 8.95631 9.94866 11.4385 9.93228C14.118 9.93228 16.7974 9.94866 19.707 9.94866Z" fill="#43ACDF"/>
<path d="M6 17.8188H38V32.8188C38 35.028 36.2091 36.8188 34 36.8188H10C7.79086 36.8188 6 35.028 6 32.8188V17.8188Z" stroke="#43ACDF" stroke-width="2"/>
<path d="M17.5441 25.7219C18.4146 25.7198 19.1558 26.0028 19.7679 26.571C20.38 27.1346 20.6871 27.863 20.6893 28.7562C20.6916 29.7041 20.3745 30.4842 19.7379 31.0965C19.106 31.7087 18.2932 32.016 17.2998 32.0184C16.2926 32.0209 15.467 31.7198 14.8229 31.1153C14.1834 30.5062 13.8625 29.7254 13.8602 28.7729C13.8581 27.9116 14.1883 26.8991 14.8508 25.7353L16.7022 22.4837L18.3634 22.4797C17.2653 24.4283 16.621 25.5829 16.4304 25.9434C16.7992 25.7966 17.1704 25.7228 17.5441 25.7219ZM15.921 30.0804C16.2819 30.4213 16.7357 30.5911 17.2826 30.5898C17.8295 30.5884 18.2802 30.4164 18.6349 30.0738C18.9895 29.7311 19.1662 29.2932 19.1649 28.76C19.1635 28.2222 18.9847 27.7851 18.6284 27.4488C18.2767 27.1078 17.8251 26.938 17.2737 26.9394C16.7268 26.9407 16.2738 27.1127 15.9146 27.4554C15.56 27.7981 15.3833 28.236 15.3846 28.7692C15.3859 29.2978 15.5647 29.7349 15.921 30.0804ZM25.4824 31.9984C24.3522 32.0012 23.4556 31.5682 22.7926 30.6993C22.1297 29.8305 21.7964 28.6555 21.7928 27.1744C21.7892 25.6888 22.1144 24.5145 22.7686 23.6515C23.4273 22.784 24.324 22.3489 25.4588 22.3461C26.589 22.3434 27.4833 22.7741 28.1416 23.6384C28.8045 24.4981 29.1378 25.6708 29.1414 27.1565C29.1451 28.6376 28.8175 29.8142 28.1588 30.6862C27.5002 31.5583 26.608 31.9957 25.4824 31.9984ZM25.4789 30.5697C26.1533 30.5681 26.679 30.2683 27.0558 29.6704C27.4326 29.0724 27.6197 28.238 27.617 27.167C27.6144 26.0961 27.421 25.2626 27.0367 24.6665C26.657 24.0704 26.1322 23.7732 25.4623 23.7748C24.7832 23.7765 24.2553 24.0763 23.8785 24.6742C23.5063 25.2676 23.3215 26.0997 23.3241 27.1707C23.3267 28.2462 23.5156 29.082 23.8907 29.6781C24.2705 30.2742 24.7998 30.5714 25.4789 30.5697Z" fill="#43ACDF"/>
</svg>
