<svg width="45" height="45" viewBox="0 0 45 45" fill="none" xmlns="http://www.w3.org/2000/svg">
<path d="M1 17.8188H43" stroke="#43ACDF" stroke-width="2"/>
<path d="M19.707 9.94866C18.9015 9.32643 18.6221 8.67146 18.9508 7.90187C19.296 7.11591 20.0193 6.98491 20.8084 7.00129C21.7125 7.01766 22.6166 7.01766 23.5207 7.00129C24.3097 6.98491 25.0001 7.16503 25.3289 7.98374C25.6577 8.78608 25.2467 9.32643 24.5399 9.93228C25.0495 9.93228 25.4111 9.93228 25.7728 9.93228C28.107 9.93228 30.4248 9.91591 32.7591 9.93228C35.2412 9.94866 37.4769 11.9463 37.8385 14.4843C27.3673 14.4843 16.896 14.4843 6.4248 14.4843C6.58919 12.0937 8.95631 9.94866 11.4385 9.93228C14.118 9.93228 16.7974 9.94866 19.707 9.94866Z" fill="#43ACDF"/>
<path d="M6 17.8188H38V32.8188C38 35.028 36.2091 36.8188 34 36.8188H10C7.79086 36.8188 6 35.028 6 32.8188V17.8188Z" stroke="#43ACDF" stroke-width="2"/>
<path d="M10.7554 21.5535L13.8914 21.5458L13.9141 30.8558L12.4161 30.8595L12.3967 22.9075L10.7587 22.9115L10.7554 21.5535ZM19.5673 31.01C18.438 31.0127 17.5409 30.5809 16.8761 29.7146C16.2114 28.8482 15.8772 27.673 15.8735 26.189C15.8699 24.705 16.1937 23.5329 16.8449 22.6726C17.5055 21.803 18.4051 21.3668 19.5438 21.364C20.6731 21.3612 21.5655 21.7931 22.2209 22.6595C22.8857 23.5165 23.2199 24.687 23.2235 26.171C23.2271 27.655 22.8987 28.8318 22.2381 29.7014C21.5776 30.5711 20.6873 31.0072 19.5673 31.01ZM19.5638 29.582C20.2358 29.5803 20.7578 29.2804 21.1296 28.6822C21.5108 28.0839 21.7001 27.2481 21.6975 26.1748C21.6958 25.4654 21.6056 24.859 21.4271 24.3554C21.2578 23.8425 21.0095 23.4558 20.6822 23.1952C20.3642 22.9253 19.9859 22.7909 19.5472 22.792C19.0992 22.7931 18.7122 22.9294 18.3862 23.2008C18.0602 23.463 17.8138 23.8509 17.6471 24.3647C17.4803 24.8691 17.3978 25.4759 17.3995 26.1853C17.4021 27.2586 17.5909 28.0935 17.9656 28.6899C18.3498 29.2863 18.8825 29.5836 19.5638 29.582ZM28.3446 30.9885C27.2153 30.9913 26.3182 30.5595 25.6535 29.6931C24.9887 28.8267 24.6545 27.6515 24.6508 26.1675C24.6472 24.6835 24.971 23.5114 25.6223 22.6512C26.2828 21.7815 27.1824 21.3453 28.3211 21.3426C29.4504 21.3398 30.3428 21.7716 30.9982 22.638C31.663 23.4951 31.9972 24.6656 32.0008 26.1496C32.0045 27.6336 31.676 28.8104 31.0154 29.68C30.3549 30.5496 29.4646 30.9858 28.3446 30.9885ZM28.3411 29.5605C29.0131 29.5589 29.5351 29.259 29.907 28.6607C30.2882 28.0624 30.4775 27.2266 30.4748 26.1533C30.4731 25.444 30.3829 24.8375 30.2044 24.334C30.0351 23.821 29.7869 23.4343 29.4595 23.1738C29.1416 22.9039 28.7632 22.7695 28.3246 22.7706C27.8766 22.7717 27.4896 22.9079 27.1636 23.1794C26.8375 23.4415 26.5911 23.8295 26.4244 24.3432C26.2576 24.8476 26.1751 25.4545 26.1768 26.1638C26.1795 27.2371 26.3682 28.072 26.743 28.6684C27.1271 29.2648 27.6598 29.5622 28.3411 29.5605Z" fill="#43ACDF"/>
</svg>
