<svg width="45" height="45" viewBox="0 0 45 45" fill="none" xmlns="http://www.w3.org/2000/svg">
<path d="M44.25 22.0172C44.25 25.5296 41.9596 28.8246 38.0137 31.2799C34.0787 33.7283 28.5957 35.2672 22.5 35.2672C16.4043 35.2672 10.9213 33.7283 6.98632 31.2799C3.04036 28.8246 0.75 25.5296 0.75 22.0172C0.75 18.5047 3.04036 15.2097 6.98632 12.7544C10.9213 10.306 16.4043 8.76715 22.5 8.76715C28.5957 8.76715 34.0787 10.306 38.0137 12.7544C41.9596 15.2097 44.25 18.5047 44.25 22.0172Z" stroke="#43ACDF" stroke-width="1.5"/>
<path d="M14.5442 17.7443L17.6819 17.7367L17.7046 27.0472L16.2144 27.0508L16.195 19.1007L14.5475 19.1047L14.5442 17.7443ZM23.3094 21.5745L24.95 21.5705L22.7934 24.193L25.1538 27.029L23.4644 27.0331L21.2262 24.27L21.2329 27.0386L19.7437 27.0422L19.7303 21.5832L21.2196 21.5796L21.2261 24.231L23.3094 21.5745ZM29.6912 21.5589L29.694 22.6771L27.4137 22.6826L27.4243 27.0234L25.9351 27.0271L25.9217 21.5681L29.6912 21.5589Z" fill="#43ACDF"/>
</svg>
