<svg width="45" height="45" viewBox="0 0 45 45" fill="none" xmlns="http://www.w3.org/2000/svg">
<path d="M44.25 22.0172C44.25 25.5296 41.9596 28.8246 38.0137 31.2799C34.0787 33.7283 28.5957 35.2672 22.5 35.2672C16.4043 35.2672 10.9213 33.7283 6.98632 31.2799C3.04036 28.8246 0.75 25.5296 0.75 22.0172C0.75 18.5047 3.04036 15.2097 6.98632 12.7544C10.9213 10.306 16.4043 8.76715 22.5 8.76715C28.5957 8.76715 34.0787 10.306 38.0137 12.7544C41.9596 15.2097 44.25 18.5047 44.25 22.0172Z" stroke="#43ACDF" stroke-width="1.5"/>
<path d="M11.783 24.6337L15.255 24.6252L15.2585 26.0532L8.88847 26.0688L8.88748 25.6628C10.2744 24.138 11.275 23.0016 11.8892 22.2534C12.5126 21.4959 12.9266 20.9209 13.131 20.5284C13.3353 20.1359 13.437 19.7483 13.4361 19.3656C13.4354 19.095 13.3742 18.8571 13.2524 18.6521C13.1399 18.447 12.9761 18.2887 12.7612 18.1773C12.5556 18.0564 12.3128 17.9964 12.0328 17.997C11.5941 17.9981 11.2398 18.1296 10.9697 18.3916C10.709 18.6443 10.5791 18.9759 10.5802 19.3866L10.5807 19.5966L9.06867 19.6003L9.06816 19.3903C9.0661 18.5503 9.33512 17.873 9.87519 17.3583C10.4152 16.8343 11.1286 16.5712 12.0153 16.5691C12.8833 16.567 13.5886 16.8266 14.1312 17.3479C14.6831 17.8692 14.9601 18.5406 14.9621 19.3619C14.9632 19.7912 14.8848 20.2067 14.7272 20.6085C14.5788 21.0102 14.2721 21.5289 13.807 22.1647C13.3511 22.7912 12.6765 23.6142 11.783 24.6337ZM20.3844 20.2166C21.1127 20.3455 21.6969 20.6754 22.1368 21.2064C22.5861 21.7373 22.8117 22.3714 22.8135 23.1087C22.8157 24.0047 22.5095 24.7475 21.8949 25.337C21.2897 25.9171 20.5297 26.2083 19.615 26.2105C18.7284 26.2127 17.9904 25.9392 17.401 25.3899C16.821 24.8314 16.5112 24.1135 16.4718 23.2362L17.9838 23.2325C18.0129 23.6991 18.1772 24.0767 18.4765 24.3653C18.7759 24.6446 19.1542 24.7837 19.6116 24.7825C20.0969 24.7814 20.4978 24.6217 20.8144 24.3036C21.1309 23.9762 21.2886 23.5651 21.2874 23.0704C21.2868 22.8278 21.2396 22.6039 21.1457 22.3988C21.0519 22.1844 20.9254 22.0027 20.7664 21.8537C20.6074 21.7048 20.4158 21.5932 20.1916 21.5191C19.9674 21.4357 19.7246 21.3943 19.4633 21.3949L18.2873 21.3978L18.2866 21.1038L20.2112 18.1031L16.7392 18.1115L16.7359 16.7395L22.4339 16.7256L22.4346 17.0336L20.3844 20.2166ZM27.8749 26.1904C26.7456 26.1931 25.8485 25.7613 25.1837 24.8949C24.5189 24.0286 24.1847 22.8534 24.1811 21.3694C24.1775 19.8854 24.5013 18.7132 25.1525 17.853C25.8131 16.9834 26.7127 16.5472 27.8513 16.5444C28.9807 16.5416 29.8731 16.9734 30.5285 17.8399C31.1933 18.6969 31.5275 19.8674 31.5311 21.3514C31.5347 22.8354 31.2063 24.0122 30.5457 24.8818C29.8852 25.7514 28.9949 26.1876 27.8749 26.1904ZM27.8714 24.7624C28.5434 24.7607 29.0654 24.4608 29.4372 23.8625C29.8184 23.2643 30.0077 22.4285 30.0051 21.3551C30.0034 20.6458 29.9132 20.0394 29.7347 19.5358C29.5654 19.0229 29.3171 18.6361 28.9898 18.3756C28.6718 18.1057 28.2935 17.9713 27.8548 17.9724C27.4068 17.9735 27.0198 18.1098 26.6938 18.3812C26.3678 18.6434 26.1214 19.0313 25.9547 19.545C25.7879 20.0494 25.7054 20.6563 25.7071 21.3656C25.7097 22.439 25.8984 23.2738 26.2732 23.8703C26.6574 24.4667 27.1901 24.764 27.8714 24.7624ZM36.5026 20.6013L36.5058 21.8913L34.3758 21.8965L34.3858 26.0065L32.9558 26.0099L32.9426 20.61L36.5026 20.6013Z" fill="#43ACDF"/>
</svg>
