<svg width="45" height="45" viewBox="0 0 45 45" fill="none" xmlns="http://www.w3.org/2000/svg">
<path d="M44.25 22.0172C44.25 25.5296 41.9596 28.8246 38.0137 31.2799C34.0787 33.7283 28.5957 35.2672 22.5 35.2672C16.4043 35.2672 10.9213 33.7283 6.98632 31.2799C3.04036 28.8246 0.75 25.5296 0.75 22.0172C0.75 18.5047 3.04036 15.2097 6.98632 12.7544C10.9213 10.306 16.4043 8.76715 22.5 8.76715C28.5957 8.76715 34.0787 10.306 38.0137 12.7544C41.9596 15.2097 44.25 18.5047 44.25 22.0172Z" stroke="#43ACDF" stroke-width="1.5"/>
<path d="M17.7364 20.8576C18.2314 20.9671 18.6259 21.207 18.9198 21.5774C19.2169 21.9445 19.3661 22.3885 19.3674 22.9093C19.369 23.5604 19.1457 24.0997 18.6975 24.5272C18.2526 24.9547 17.6916 25.1693 17.0145 25.1709C16.3537 25.1726 15.8112 24.9688 15.387 24.5597C14.9628 24.1473 14.7385 23.6124 14.7141 22.9549L16.1399 22.9514C16.1536 23.2215 16.2388 23.4378 16.3954 23.6002C16.5553 23.7593 16.7606 23.8386 17.0112 23.8379C17.2782 23.8373 17.4977 23.7472 17.6698 23.5678C17.8418 23.3851 17.9275 23.1521 17.9268 22.8689C17.9261 22.5857 17.8328 22.3613 17.6469 22.1958C17.4609 22.0269 17.2149 21.9429 16.9089 21.9437L15.9422 21.946L15.9415 21.6775L17.1475 19.6774L14.8673 19.683L14.8642 18.4037L19.1024 18.3934L19.1031 18.657L17.7364 20.8576ZM24.159 19.5724L25.7997 19.5684L23.643 22.1909L26.0034 25.0269L24.314 25.031L22.0758 22.2679L22.0825 25.0365L20.5933 25.0401L20.5799 19.5812L22.0692 19.5775L22.0757 22.2289L24.159 19.5724ZM30.5408 19.5568L30.5436 20.675L28.2633 20.6806L28.2739 25.0214L26.7847 25.025L26.7713 19.566L30.5408 19.5568Z" fill="#43ACDF"/>
</svg>
