<svg width="1057" height="1178" fill="none" xmlns="http://www.w3.org/2000/svg"><g filter="url(#a)"><path d="M865.998 526.001c0 31.473 14.957 189.572-60 280-74.113 89.409-237.952 111.333-272 111.333-68.483 0 272-244-34.667-430.667-338.666 0-.483-201.333 68-201.333s298.667 178.074 298.667 240.667Z" fill="url(#b)"/></g><path stroke="#fff" stroke-opacity=".14" stroke-width="1.333" stroke-dasharray="6.67 6.67" d="m198.472 292.863 616 617.333m-617.277-.333 616.667-616.667"/><g filter="url(#c)"><circle cx="505.334" cy="604.668" r="178" fill="#070707" fill-opacity=".25"/></g><circle cx="506" cy="604.001" r="483.333" stroke="#191919" stroke-width="9.333" stroke-dasharray="4 4"/><circle cx="506.001" cy="604.001" r="354" stroke="url(#d)" stroke-width="1.333"/><g clip-path="url(#e)"><g filter="url(#f)"><ellipse cx="840.666" cy="293.335" rx="20" ry="14.667" fill="#8069DF" fill-opacity=".5"/></g><g filter="url(#g)"><circle cx="840.667" cy="258.668" r="42.667" fill="#8069DF" fill-opacity=".05"/><circle cx="840.667" cy="258.668" r="42" stroke="url(#h)" stroke-width="1.333"/></g><path d="M844.666 272.002c-.547 0-1-.454-1-1v-24.667c0-.547.453-1 1-1 .547 0 1 .453 1 1v24.667c0 .546-.453 1-1 1Z" fill="#8069DF"/><path d="M848.666 269.334h-4v-21.333h4a5.332 5.332 0 0 1 5.333 5.333v10.667a5.33 5.33 0 0 1-5.333 5.333Zm-16.001-21.333a5.332 5.332 0 0 0-5.333 5.333v10.667a5.332 5.332 0 0 0 5.333 5.333h6.667c.733 0 1.333-.6 1.333-1.333v-18.667c0-.733-.6-1.333-1.333-1.333h-6.667Zm2.334 15.333c0 .547-.454 1-1 1-.547 0-1-.453-1-1v-9.333c0-.547.453-1 1-1 .546 0 1 .453 1 1v9.333Z" fill="#8069DF"/></g><g clip-path="url(#i)"><g filter="url(#j)"><ellipse cx="168.666" cy="298.668" rx="20" ry="14.667" fill="#19E183" fill-opacity=".5"/></g><g filter="url(#k)"><circle cx="168.667" cy="264.001" r="42.667" fill="#19E183" fill-opacity=".05"/><circle cx="168.667" cy="264.001" r="42" stroke="url(#l)" stroke-width="1.333"/></g><path d="M179.465 260.295c-2.413 0-3.4-1.707-2.2-3.8a2.53 2.53 0 0 0-.933-3.454l-2.307-1.32c-1.053-.626-2.413-.253-3.04.8l-.146.254c-1.2 2.093-3.174 2.093-4.387 0l-.147-.254a2.189 2.189 0 0 0-3.013-.8l-2.307 1.32c-1.213.694-1.626 2.254-.933 3.467 1.213 2.08.227 3.787-2.187 3.787a2.54 2.54 0 0 0-2.533 2.533v2.347a2.54 2.54 0 0 0 2.533 2.533c2.414 0 3.4 1.707 2.187 3.8a2.529 2.529 0 0 0 .933 3.453l2.307 1.32c1.053.627 2.413.254 3.04-.8l.147-.253c1.2-2.093 3.173-2.093 4.386 0l.147.253c.627 1.054 1.987 1.427 3.04.8l2.307-1.32a2.532 2.532 0 0 0 .933-3.453c-1.213-2.093-.227-3.8 2.187-3.8a2.54 2.54 0 0 0 2.533-2.533v-2.347a2.56 2.56 0 0 0-2.547-2.533Zm-10.8 8.04a4.342 4.342 0 0 1-4.333-4.334 4.342 4.342 0 0 1 4.333-4.333 4.342 4.342 0 0 1 4.334 4.333 4.342 4.342 0 0 1-4.334 4.334Z" fill="#19E183"/></g><g clip-path="url(#m)"><g filter="url(#n)"><ellipse cx="152.666" cy="961.335" rx="20" ry="14.667" fill="#0166FF" fill-opacity=".5"/></g><g filter="url(#o)"><circle cx="152.667" cy="926.668" r="42.667" fill="#0166FF" fill-opacity=".05"/><circle cx="152.667" cy="926.668" r="42" stroke="url(#p)" stroke-width="1.333"/></g><path d="M164.799 921.162a4.636 4.636 0 0 0 1.2-3.12c0-2.6-2.107-4.707-4.707-4.707-1.16 0-2.253.427-3.107 1.2-1.72-.8-3.573-1.2-5.52-1.2-1.906 0-3.8.413-5.506 1.2a4.636 4.636 0 0 0-3.12-1.2 4.706 4.706 0 0 0-4.707 4.707c0 1.16.427 2.266 1.2 3.12-.787 1.706-1.2 3.6-1.2 5.506 0 1.947.4 3.8 1.2 5.52a4.604 4.604 0 0 0-1.2 3.107c0 2.6 2.107 4.707 4.707 4.707 1.16 0 2.266-.427 3.12-1.2 1.706.786 3.6 1.2 5.506 1.2 1.947 0 3.8-.4 5.52-1.2a4.604 4.604 0 0 0 3.107 1.2c2.6 0 4.707-2.107 4.707-4.707 0-1.16-.427-2.253-1.2-3.107.8-1.72 1.2-3.573 1.2-5.52 0-1.906-.414-3.8-1.2-5.506Zm-1.894 9.733c-.146-.053-.293-.107-.44-.147a6.398 6.398 0 0 0-.693-.12 5.936 5.936 0 0 0-.48-.026 4.7 4.7 0 0 0-4.693 4.693c0 .16.013.32.026.48.027.227.067.467.12.693.04.147.094.294.147.44 0 .04.013.08.04.12l.04.12c-2.68 1.12-5.88 1.134-8.613 0l.04-.12a.22.22 0 0 0 .04-.12c.053-.146.106-.293.146-.44.054-.226.094-.466.12-.693.014-.16.027-.32.027-.48a4.7 4.7 0 0 0-4.693-4.693c-.16 0-.32.013-.48.026a6.458 6.458 0 0 0-.694.12c-.146.04-.293.094-.44.147-.04 0-.08.013-.12.04l-.12.04c-.573-1.347-.853-2.8-.853-4.307 0-1.48.293-2.96.853-4.306.014 0 .04.013.054.013a4.578 4.578 0 0 1-1.107-.64c.4.307.827.547 1.293.707.16.066.334.12.494.16.106.026.2.04.293.053.12.027.227.04.347.053.16.014.32.027.48.027a4.7 4.7 0 0 0 4.693-4.693c0-.16-.013-.32-.027-.48a2.97 2.97 0 0 0-.053-.347 2.818 2.818 0 0 0-.053-.293 3.638 3.638 0 0 0-.16-.494 4.536 4.536 0 0 0-.294-.666c.08.146.16.32.227.48 0-.014-.013-.04-.013-.054 2.72-1.133 5.933-1.12 8.613 0l-.04.12a.213.213 0 0 0-.04.12c-.053.147-.107.294-.147.44a6.458 6.458 0 0 0-.12.694c-.013.16-.026.32-.026.48a4.7 4.7 0 0 0 4.693 4.693c.16 0 .32-.013.48-.027.227-.026.467-.066.693-.12.147-.04.294-.093.44-.146a.22.22 0 0 0 .12-.04l.12-.04c.56 1.346.854 2.826.854 4.306 0 1.507-.28 2.96-.854 4.307l-.12-.04a.213.213 0 0 0-.12-.04Z" fill="#0166FF"/></g><g clip-path="url(#q)"><g filter="url(#r)"><ellipse cx="844.666" cy="974.667" rx="20" ry="14.667" fill="#D8BF40" fill-opacity=".5"/></g><g filter="url(#s)"><circle cx="844.667" cy="940.001" r="42.667" fill="#D8BF40" fill-opacity=".05"/><circle cx="844.667" cy="940.001" r="42" stroke="url(#t)" stroke-width="1.333"/></g><path d="M856.999 936.2c-3.08-4.84-7.587-7.627-12.334-7.627-2.373 0-4.68.694-6.786 1.987-2.107 1.307-4 3.213-5.547 5.64-1.333 2.093-1.333 5.493 0 7.587 3.08 4.853 7.587 7.626 12.333 7.626 2.374 0 4.68-.693 6.787-1.986 2.107-1.307 4-3.214 5.547-5.64 1.333-2.08 1.333-5.494 0-7.587Zm-12.334 9.187a5.38 5.38 0 0 1-5.386-5.387 5.38 5.38 0 0 1 5.386-5.387 5.38 5.38 0 0 1 5.387 5.387 5.38 5.38 0 0 1-5.387 5.387Z" fill="#D8BF40"/><path d="M844.667 936.188a3.807 3.807 0 0 0 0 7.613c2.094 0 3.814-1.707 3.814-3.8a3.83 3.83 0 0 0-3.814-3.813Z" fill="#D8BF40"/></g><circle cx="504.667" cy="604.001" r="54" fill="#14181B" stroke="#2F2D30" stroke-width="1.333"/><circle cx="508.667" cy="124.001" r="26" fill="#14181B" stroke="#2F2D30" stroke-width="1.333"/><path d="M501.555 124h14.222m0 0-5.333-5.333m5.333 5.333-5.333 5.334" stroke="#fff" stroke-opacity=".2" stroke-width="1.333" stroke-linecap="round" stroke-linejoin="round"/><circle cx="508.665" cy="1086.67" r="26" transform="rotate(-180 508.665 1086.67)" fill="#14181B" stroke="#2F2D30" stroke-width="1.333"/><path d="M515.777 1086.67h-14.222m0 0 5.333 5.33m-5.333-5.33 5.333-5.34" stroke="#fff" stroke-opacity=".2" stroke-width="1.333" stroke-linecap="round" stroke-linejoin="round"/><g clip-path="url(#u)" fill="#fff"><path d="M516.605 612.075a14.593 14.593 0 0 1-11.253 5.271 14.593 14.593 0 0 1-11.252-5.271l4.246-2.434a9.772 9.772 0 0 0 7.006 2.951 9.773 9.773 0 0 0 7.007-2.951l4.246 2.434Zm3.318-9.201c0 1.783-.328 3.488-.926 5.079l-4.246-2.434a9.972 9.972 0 0 0 .366-2.645c0-4.542-3.146-8.357-7.373-9.411v-4.868c6.91 1.131 12.179 7.091 12.179 14.279Zm-16.963-14.299v4.869c-4.227 1.054-7.373 4.887-7.373 9.411 0 .92.135 1.801.367 2.645l-4.246 2.434a14.286 14.286 0 0 1-.927-5.079c0-7.169 5.27-13.13 12.179-14.28Z"/><path d="M482.885 603.064c0-.882.058-1.763.155-2.626a4.835 4.835 0 0 0 3.416-4.619c0-2.683-2.181-4.849-4.883-4.849s-4.884 2.166-4.884 4.849c0 1.437.637 2.722 1.641 3.623a28.136 28.136 0 0 0-.251 3.622c0 13.034 9.323 23.94 21.695 26.508v-4.888c-9.689-2.472-16.889-11.231-16.889-21.62Zm49.742-.001a26.78 26.78 0 0 0-1.371-8.472l-4.265 2.453c.54 1.917.83 3.929.83 6.019 0 9.181-5.617 17.077-13.608 20.489a4.9 4.9 0 0 0-3.3-1.265c-2.703 0-4.884 2.166-4.884 4.849 0 2.684 2.181 4.85 4.884 4.85a4.896 4.896 0 0 0 4.786-3.872c9.921-4.064 16.928-13.762 16.928-25.051Zm-13.957-16.808c0 2.684 2.181 4.85 4.883 4.85s4.883-2.166 4.883-4.85c0-2.683-2.181-4.849-4.883-4.849-.54 0-1.042.096-1.525.249a27.226 27.226 0 0 0-16.657-5.654 27.254 27.254 0 0 0-20.324 9.047l4.266 2.453a22.476 22.476 0 0 1 16.058-6.727 22.36 22.36 0 0 1 13.434 4.446 3.523 3.523 0 0 0-.135 1.035Zm-13.317 21.697c2.835 0 5.134-2.283 5.134-5.099 0-2.815-2.299-5.098-5.134-5.098-2.836 0-5.134 2.283-5.134 5.098 0 2.816 2.298 5.099 5.134 5.099Z"/></g><defs><filter id="a" x="65.778" y=".001" width="1086.77" height="1202.67" filterUnits="userSpaceOnUse" color-interpolation-filters="sRGB"><feFlood flood-opacity="0" result="BackgroundImageFix"/><feBlend in="SourceGraphic" in2="BackgroundImageFix" result="shape"/><feGaussianBlur stdDeviation="142.667" result="effect1_foregroundBlur_2001_33715"/></filter><filter id="c" x="319.334" y="418.668" width="372" height="372" filterUnits="userSpaceOnUse" color-interpolation-filters="sRGB"><feFlood flood-opacity="0" result="BackgroundImageFix"/><feGaussianBlur in="BackgroundImageFix" stdDeviation="4"/><feComposite in2="SourceAlpha" operator="in" result="effect1_backgroundBlur_2001_33715"/><feBlend in="SourceGraphic" in2="effect1_backgroundBlur_2001_33715" result="shape"/></filter><filter id="f" x="801.999" y="260.001" width="77.333" height="66.666" filterUnits="userSpaceOnUse" color-interpolation-filters="sRGB"><feFlood flood-opacity="0" result="BackgroundImageFix"/><feBlend in="SourceGraphic" in2="BackgroundImageFix" result="shape"/><feGaussianBlur stdDeviation="9.333" result="effect1_foregroundBlur_2001_33715"/></filter><filter id="g" x="784.933" y="202.934" width="111.467" height="111.466" filterUnits="userSpaceOnUse" color-interpolation-filters="sRGB"><feFlood flood-opacity="0" result="BackgroundImageFix"/><feGaussianBlur in="BackgroundImageFix" stdDeviation="6.533"/><feComposite in2="SourceAlpha" operator="in" result="effect1_backgroundBlur_2001_33715"/><feBlend in="SourceGraphic" in2="effect1_backgroundBlur_2001_33715" result="shape"/></filter><filter id="j" x="129.999" y="265.334" width="77.333" height="66.666" filterUnits="userSpaceOnUse" color-interpolation-filters="sRGB"><feFlood flood-opacity="0" result="BackgroundImageFix"/><feBlend in="SourceGraphic" in2="BackgroundImageFix" result="shape"/><feGaussianBlur stdDeviation="9.333" result="effect1_foregroundBlur_2001_33715"/></filter><filter id="k" x="112.933" y="208.267" width="111.467" height="111.466" filterUnits="userSpaceOnUse" color-interpolation-filters="sRGB"><feFlood flood-opacity="0" result="BackgroundImageFix"/><feGaussianBlur in="BackgroundImageFix" stdDeviation="6.533"/><feComposite in2="SourceAlpha" operator="in" result="effect1_backgroundBlur_2001_33715"/><feBlend in="SourceGraphic" in2="effect1_backgroundBlur_2001_33715" result="shape"/></filter><filter id="n" x="113.999" y="928.001" width="77.333" height="66.666" filterUnits="userSpaceOnUse" color-interpolation-filters="sRGB"><feFlood flood-opacity="0" result="BackgroundImageFix"/><feBlend in="SourceGraphic" in2="BackgroundImageFix" result="shape"/><feGaussianBlur stdDeviation="9.333" result="effect1_foregroundBlur_2001_33715"/></filter><filter id="o" x="96.933" y="870.934" width="111.467" height="111.466" filterUnits="userSpaceOnUse" color-interpolation-filters="sRGB"><feFlood flood-opacity="0" result="BackgroundImageFix"/><feGaussianBlur in="BackgroundImageFix" stdDeviation="6.533"/><feComposite in2="SourceAlpha" operator="in" result="effect1_backgroundBlur_2001_33715"/><feBlend in="SourceGraphic" in2="effect1_backgroundBlur_2001_33715" result="shape"/></filter><filter id="r" x="805.999" y="941.333" width="77.333" height="66.666" filterUnits="userSpaceOnUse" color-interpolation-filters="sRGB"><feFlood flood-opacity="0" result="BackgroundImageFix"/><feBlend in="SourceGraphic" in2="BackgroundImageFix" result="shape"/><feGaussianBlur stdDeviation="9.333" result="effect1_foregroundBlur_2001_33715"/></filter><filter id="s" x="788.933" y="884.267" width="111.467" height="111.466" filterUnits="userSpaceOnUse" color-interpolation-filters="sRGB"><feFlood flood-opacity="0" result="BackgroundImageFix"/><feGaussianBlur in="BackgroundImageFix" stdDeviation="6.533"/><feComposite in2="SourceAlpha" operator="in" result="effect1_backgroundBlur_2001_33715"/><feBlend in="SourceGraphic" in2="effect1_backgroundBlur_2001_33715" result="shape"/></filter><linearGradient id="b" x1="271.333" y1="285.334" x2="927.999" y2="934.001" gradientUnits="userSpaceOnUse"><stop offset=".1" stop-color="#1B7042"/><stop offset=".53" stop-color="#3E3CA2"/><stop offset="1" stop-color="#BB4E9C"/></linearGradient><linearGradient id="d" x1="31.334" y1="792.667" x2="908.001" y2="386.667" gradientUnits="userSpaceOnUse"><stop stop-color="#3A8F2D"/><stop offset=".475" stop-color="#4D7562" stop-opacity="0"/><stop offset="1" stop-color="#63599C"/></linearGradient><linearGradient id="h" x1="840.667" y1="167.334" x2="840.667" y2="301.334" gradientUnits="userSpaceOnUse"><stop stop-color="#2F2D30"/><stop offset="1" stop-color="#2F2D30" stop-opacity="0"/></linearGradient><linearGradient id="l" x1="168.667" y1="172.667" x2="168.667" y2="306.667" gradientUnits="userSpaceOnUse"><stop stop-color="#2F2D30"/><stop offset="1" stop-color="#2F2D30" stop-opacity="0"/></linearGradient><linearGradient id="p" x1="152.667" y1="835.334" x2="152.667" y2="969.334" gradientUnits="userSpaceOnUse"><stop stop-color="#2F2D30"/><stop offset="1" stop-color="#2F2D30" stop-opacity="0"/></linearGradient><linearGradient id="t" x1="844.667" y1="848.667" x2="844.667" y2="982.667" gradientUnits="userSpaceOnUse"><stop stop-color="#2F2D30"/><stop offset="1" stop-color="#2F2D30" stop-opacity="0"/></linearGradient><clipPath id="e"><rect x="798" y="216.001" width="85.333" height="85.333" rx="42.667" fill="#fff"/></clipPath><clipPath id="i"><rect x="126" y="221.334" width="85.333" height="85.333" rx="42.667" fill="#fff"/></clipPath><clipPath id="m"><rect x="110" y="884.001" width="85.333" height="85.333" rx="42.667" fill="#fff"/></clipPath><clipPath id="q"><rect x="802" y="897.334" width="85.333" height="85.333" rx="42.667" fill="#fff"/></clipPath><clipPath id="u"><path fill="#fff" transform="translate(476.666 576.001)" d="M0 0h56v56H0z"/></clipPath></defs></svg>