<svg width="1750" height="681" fill="none" xmlns="http://www.w3.org/2000/svg"><g clip-path="url(#a)"><g opacity=".4" stroke-width="2.667"><path d="M1.668 566.333 179.001 681" stroke="url(#b)"/><path d="M2.336 483.667 601.669 96.333c17.778-9.555 51.067-42 42-95.333" stroke="url(#c)"/><path transform="scale(-1 1) rotate(33.241 -102.625 -333.615)" stroke="url(#d)" d="M0-1.333h235.94"/><path d="m.334 209 553.334 356c27.333 15.778 81.6 61.333 80 117.333" stroke="url(#e)"/></g><g filter="url(#f)"><circle cx="555" cy="124.333" r="36" fill="#252833" fill-opacity=".4"/><circle cx="555" cy="124.333" r="35.333" stroke="#2F2D30" stroke-width="1.333"/></g><g opacity=".4" filter="url(#g)"><circle cx="215" cy="556.333" r="36" fill="#252833"/><circle cx="215" cy="556.333" r="35.333" stroke="#2F2D30" stroke-width="1.333"/></g><g filter="url(#h)"><circle cx="100.334" cy="279" r="42.667" fill="#252833" fill-opacity=".4"/><circle cx="100.334" cy="279" r="42" stroke="#2F2D30" stroke-width="1.333"/></g><g filter="url(#i)"><circle cx="633.667" cy="667" r="42.667" fill="#252833" fill-opacity=".4"/><circle cx="633.667" cy="667" r="42" stroke="#2F2D30" stroke-width="1.333"/></g><g opacity=".4" fill="#fff" fill-opacity=".3"><path d="M222.266 563.4c-2.24 0-4.306-1.053-5.653-2.907a1.015 1.015 0 0 1 .213-1.4c.44-.333 1.067-.226 1.4.214.974 1.32 2.44 2.08 4.04 2.08a5.073 5.073 0 0 0 5.067-5.067c0-2.8-2.267-5.067-5.067-5.067a5.473 5.473 0 0 0-4.653 2.627l-3.533 5.88a7.448 7.448 0 0 1-6.361 3.6c-3.893 0-7.066-3.173-7.066-7.067 0-3.893 3.173-7.066 7.066-7.066 2.241 0 4.307 1.053 5.654 2.906.32.44.227 1.067-.213 1.4a1.001 1.001 0 0 1-1.401-.213c-.96-1.293-2.426-2.053-4.026-2.053a5.072 5.072 0 0 0-5.067 5.066c0 2.8 2.267 5.067 5.067 5.067a5.471 5.471 0 0 0 4.653-2.627l3.534-5.88a7.447 7.447 0 0 1 6.36-3.6c3.893 0 7.066 3.174 7.066 7.067 0 3.893-3.186 7.04-7.08 7.04Z"/><path d="M207.667 559a2.667 2.667 0 1 0-.001-5.333 2.667 2.667 0 0 0 .001 5.333Zm14.667 0a2.667 2.667 0 1 0 0-5.333 2.667 2.667 0 0 0 0 5.333Z"/></g><path d="M121.848 276.989a6.178 6.178 0 0 0 1.6-4.16 6.275 6.275 0 0 0-6.276-6.275 6.133 6.133 0 0 0-4.142 1.6c-2.293-1.067-4.765-1.6-7.36-1.6-2.542 0-5.067.551-7.342 1.6a6.178 6.178 0 0 0-4.16-1.6 6.275 6.275 0 0 0-6.276 6.275c0 1.547.569 3.022 1.6 4.16a17.606 17.606 0 0 0-1.6 7.342c0 2.596.533 5.067 1.6 7.36a6.135 6.135 0 0 0-1.6 4.143 6.275 6.275 0 0 0 6.276 6.275 6.178 6.178 0 0 0 4.16-1.6c2.275 1.049 4.8 1.6 7.342 1.6 2.595 0 5.067-.533 7.36-1.6a6.133 6.133 0 0 0 4.142 1.6 6.275 6.275 0 0 0 6.276-6.275 6.136 6.136 0 0 0-1.6-4.143c1.066-2.293 1.6-4.764 1.6-7.36 0-2.542-.551-5.066-1.6-7.342Zm-2.525 12.978a7.897 7.897 0 0 0-.586-.196 8.566 8.566 0 0 0-.925-.16c-.213-.017-.427-.035-.64-.035a6.267 6.267 0 0 0-6.258 6.258c0 .213.018.426.036.64.035.302.089.622.16.924.053.196.124.391.195.587 0 .053.018.106.054.16l.053.16c-3.573 1.493-7.84 1.511-11.484 0l.053-.16a.285.285 0 0 0 .053-.16c.071-.196.143-.391.196-.587.071-.302.124-.622.16-.924.018-.214.035-.427.035-.64a6.267 6.267 0 0 0-6.257-6.258c-.214 0-.427.018-.64.035a8.513 8.513 0 0 0-.925.16c-.195.054-.39.125-.587.196a.29.29 0 0 0-.16.053l-.16.054c-.764-1.796-1.137-3.734-1.137-5.743 0-1.973.39-3.946 1.138-5.742.017 0 .053.018.07.018a7.285 7.285 0 0 1-.64-.302 6.194 6.194 0 0 1-.835-.551 6.036 6.036 0 0 0 1.724.942c.214.089.445.16.658.213.142.036.267.054.391.071.16.036.303.054.463.071.213.018.426.036.64.036a6.267 6.267 0 0 0 6.257-6.258c0-.213-.017-.426-.035-.64a4.337 4.337 0 0 0-.071-.462c-.018-.124-.036-.249-.071-.391a4.8 4.8 0 0 0-.214-.658 6.035 6.035 0 0 0-.942-1.724c.213.266.391.551.551.835.107.196.213.427.302.64 0-.018-.017-.053-.017-.071 3.626-1.511 7.911-1.493 11.484 0l-.053.16a.284.284 0 0 0-.054.16c-.071.196-.142.391-.195.587a8.27 8.27 0 0 0-.16.924c-.018.214-.036.427-.036.64a6.267 6.267 0 0 0 6.258 6.258c.213 0 .427-.018.64-.036.302-.035.622-.088.925-.16.195-.053.391-.124.586-.195a.288.288 0 0 0 .16-.053l.16-.054a15.032 15.032 0 0 1 1.138 5.742c0 2.009-.373 3.947-1.138 5.743a29.724 29.724 0 0 0-.16-.054.288.288 0 0 0-.16-.053Z" fill="#fff" fill-opacity=".3" opacity=".4"/><path d="M566 115.778c0 2.025-4.924 3.667-11 3.667-6.075 0-11-1.642-11-3.667m22 0c0-2.025-4.924-3.667-11-3.667-6.075 0-11 1.642-11 3.667m22 0v17.111c0 2.029-4.888 3.667-11 3.667-6.111 0-11-1.638-11-3.667v-17.111m22 8.556c0 2.028-4.888 3.666-11 3.666-6.111 0-11-1.638-11-3.666" stroke="#fff" stroke-opacity=".3" stroke-width="2" stroke-linecap="round" stroke-linejoin="round" opacity=".4"/><g opacity=".4"><path d="m1749 566.334-177.33 114.667" stroke="url(#j)" stroke-width="2.667"/><path d="M1748.33 483.667 1149 96.334c-17.78-9.556-51.07-42-42-95.334" stroke="url(#k)" stroke-width="2.667"/><path stroke="url(#l)" stroke-width="2.667" d="m1551.73.552 197.33 129.333"/><path d="M1750.33 209 1197 565c-27.33 15.778-81.6 61.334-80 117.334" stroke="url(#m)" stroke-width="2.667"/><g filter="url(#n)"><circle cx="1123" cy="65.667" r="26.667" fill="#252833"/><circle cx="1123" cy="65.667" r="26" stroke="#2F2D30" stroke-width="1.333"/></g><g filter="url(#o)"><circle cx="1617.67" cy="399" r="36" fill="#252833"/><circle cx="1617.67" cy="399" r="35.333" stroke="#2F2D30" stroke-width="1.333"/></g><g filter="url(#p)"><circle cx="1505.67" cy="180.334" r="42.667" fill="#252833"/><circle cx="1505.67" cy="180.334" r="42" stroke="#2F2D30" stroke-width="1.333"/></g><g filter="url(#q)"><circle cx="1241.67" cy="624.334" r="42.667" fill="#252833"/><circle cx="1241.67" cy="624.334" r="42" stroke="#2F2D30" stroke-width="1.333"/></g><path d="M1130.2 63.196c-1.61 0-2.26-1.137-1.46-2.533a1.69 1.69 0 0 0-.63-2.302l-1.53-.88a1.486 1.486 0 0 0-2.03.533l-.1.169c-.8 1.396-2.11 1.396-2.92 0l-.1-.169a1.46 1.46 0 0 0-2.01-.533l-1.54.88a1.697 1.697 0 0 0-.62 2.31c.81 1.388.15 2.525-1.46 2.525-.92 0-1.69.756-1.69 1.69v1.564c0 .924.76 1.689 1.69 1.689 1.61 0 2.27 1.137 1.46 2.533-.46.809-.19 1.84.62 2.302l1.54.88c.7.418 1.61.169 2.03-.533l.09-.17c.8-1.395 2.12-1.395 2.93 0l.1.17c.41.702 1.32.95 2.02.533l1.54-.88a1.68 1.68 0 0 0 .62-2.302c-.81-1.396-.15-2.533 1.46-2.533.93 0 1.69-.756 1.69-1.69v-1.564a1.706 1.706 0 0 0-1.7-1.689Zm-7.2 5.36a2.896 2.896 0 0 1-2.89-2.888c0-1.592 1.3-2.89 2.89-2.89s2.89 1.298 2.89 2.89c0 1.59-1.3 2.888-2.89 2.888Zm503.92 327.595c-2.31-3.63-5.69-5.72-9.25-5.72-1.78 0-3.51.52-5.09 1.49-1.58.98-3 2.41-4.16 4.23-1 1.57-1 4.12 0 5.69 2.31 3.64 5.69 5.72 9.25 5.72 1.78 0 3.51-.52 5.09-1.49 1.58-.98 3-2.41 4.16-4.23 1-1.56 1-4.12 0-5.69Zm-9.25 6.89c-2.24 0-4.04-1.81-4.04-4.04s1.8-4.04 4.04-4.04 4.04 1.81 4.04 4.04-1.8 4.04-4.04 4.04Z" fill="#fff" fill-opacity=".3"/><path d="M1617.67 396.141a2.855 2.855 0 0 0 0 5.71c1.57 0 2.86-1.28 2.86-2.85s-1.29-2.86-2.86-2.86Z" fill="#fff" fill-opacity=".3"/><path d="M1245 635.444a.84.84 0 0 1-.83-.833v-20.555a.84.84 0 0 1 .83-.834c.46 0 .84.378.84.834v20.555c0 .456-.38.833-.84.833Z" fill="#666970"/><path d="M1248.34 633.222H1245v-17.778h3.34c2.45 0 4.44 1.989 4.44 4.445v8.889a4.443 4.443 0 0 1-4.44 4.444ZM1235 615.444a4.443 4.443 0 0 0-4.44 4.445v8.889a4.443 4.443 0 0 0 4.44 4.444h5.56c.61 0 1.11-.5 1.11-1.111v-15.556c0-.611-.5-1.111-1.11-1.111H1235Zm1.95 12.778c0 .456-.38.833-.84.833a.84.84 0 0 1-.83-.833v-7.778a.84.84 0 0 1 .83-.833c.46 0 .84.378.84.833v7.778Z" fill="#666970"/><path d="M1501.67 167v4m8-4v4m-8 18.667v4m8-4v4m5.33-17.333h4m-4 6.666h4m-26.67-6.666h4m-4 6.666h4m6.4 6.667h5.87c2.24 0 3.36 0 4.22-.436a3.973 3.973 0 0 0 1.74-1.748c.44-.856.44-1.976.44-4.216V177.4c0-2.24 0-3.36-.44-4.215a3.98 3.98 0 0 0-1.74-1.749c-.86-.436-1.98-.436-4.22-.436h-5.87c-2.24 0-3.36 0-4.21.436-.75.384-1.37.996-1.75 1.749-.44.855-.44 1.975-.44 4.215v5.867c0 2.24 0 3.36.44 4.216.38.753 1 1.365 1.75 1.748.85.436 1.97.436 4.21.436Z" stroke="#fff" stroke-opacity=".3" stroke-width="2.667" stroke-linecap="round" stroke-linejoin="round"/></g><path d="M637.667 675a4 4 0 1 0 8 0 4 4 0 0 0-8 0Zm0 0a12 12 0 0 1-12-12m0 0a4 4 0 1 0 0-8 4 4 0 0 0 0 8Zm0 0v16" stroke="#fff" stroke-opacity=".3" stroke-width="2.667" stroke-linecap="round" stroke-linejoin="round" opacity=".4"/></g><defs><linearGradient id="b" x1="227.479" y1="-1830.62" x2="254.376" y2="-1828.36" gradientUnits="userSpaceOnUse"><stop stop-color="#465CCD"/><stop offset="1" stop-color="#8957B7"/></linearGradient><linearGradient id="c" x1="619.001" y1="1.667" x2="164.613" y2="368.994" gradientUnits="userSpaceOnUse"><stop stop-color="#465CCD"/><stop offset="1" stop-color="#8957B7"/></linearGradient><linearGradient id="d" x1="-64.499" y1="-20.904" x2="-64.717" y2="-18.108" gradientUnits="userSpaceOnUse"><stop stop-color="#465CCD"/><stop offset="1" stop-color="#8957B7"/></linearGradient><linearGradient id="e" x1="607.886" y1="209.654" x2="161.856" y2="571.9" gradientUnits="userSpaceOnUse"><stop stop-color="#465CCD"/><stop offset="1" stop-color="#8957B7"/></linearGradient><linearGradient id="j" x1="1523.19" y1="-1830.62" x2="1496.29" y2="-1828.36" gradientUnits="userSpaceOnUse"><stop stop-color="#465CCD"/><stop offset="1" stop-color="#8957B7"/></linearGradient><linearGradient id="k" x1="1131.67" y1="1.667" x2="1586.05" y2="368.994" gradientUnits="userSpaceOnUse"><stop stop-color="#465CCD"/><stop offset="1" stop-color="#8957B7"/></linearGradient><linearGradient id="l" x1="1508.51" y1="-51.172" x2="1506.8" y2="-48.953" gradientUnits="userSpaceOnUse"><stop stop-color="#465CCD"/><stop offset="1" stop-color="#8957B7"/></linearGradient><linearGradient id="m" x1="1101.67" y1="399.001" x2="1669.33" y2="287.396" gradientUnits="userSpaceOnUse"><stop stop-color="#465CCD"/><stop offset="1" stop-color="#8957B7"/></linearGradient><filter id="f" x="500.334" y="69.666" width="109.333" height="109.333" filterUnits="userSpaceOnUse" color-interpolation-filters="sRGB"><feFlood flood-opacity="0" result="BackgroundImageFix"/><feGaussianBlur in="BackgroundImageFix" stdDeviation="9.333"/><feComposite in2="SourceAlpha" operator="in" result="effect1_backgroundBlur_1_42820"/><feBlend in="SourceGraphic" in2="effect1_backgroundBlur_1_42820" result="shape"/></filter><filter id="g" x="160.334" y="501.666" width="109.333" height="109.333" filterUnits="userSpaceOnUse" color-interpolation-filters="sRGB"><feFlood flood-opacity="0" result="BackgroundImageFix"/><feGaussianBlur in="BackgroundImageFix" stdDeviation="9.333"/><feComposite in2="SourceAlpha" operator="in" result="effect1_backgroundBlur_1_42820"/><feBlend in="SourceGraphic" in2="effect1_backgroundBlur_1_42820" result="shape"/></filter><filter id="h" x="39.001" y="217.666" width="122.667" height="122.667" filterUnits="userSpaceOnUse" color-interpolation-filters="sRGB"><feFlood flood-opacity="0" result="BackgroundImageFix"/><feGaussianBlur in="BackgroundImageFix" stdDeviation="9.333"/><feComposite in2="SourceAlpha" operator="in" result="effect1_backgroundBlur_1_42820"/><feBlend in="SourceGraphic" in2="effect1_backgroundBlur_1_42820" result="shape"/></filter><filter id="i" x="572.334" y="605.666" width="122.667" height="122.667" filterUnits="userSpaceOnUse" color-interpolation-filters="sRGB"><feFlood flood-opacity="0" result="BackgroundImageFix"/><feGaussianBlur in="BackgroundImageFix" stdDeviation="9.333"/><feComposite in2="SourceAlpha" operator="in" result="effect1_backgroundBlur_1_42820"/><feBlend in="SourceGraphic" in2="effect1_backgroundBlur_1_42820" result="shape"/></filter><filter id="n" x="1077.67" y="20.333" width="90.667" height="90.667" filterUnits="userSpaceOnUse" color-interpolation-filters="sRGB"><feFlood flood-opacity="0" result="BackgroundImageFix"/><feGaussianBlur in="BackgroundImageFix" stdDeviation="9.333"/><feComposite in2="SourceAlpha" operator="in" result="effect1_backgroundBlur_1_42820"/><feBlend in="SourceGraphic" in2="effect1_backgroundBlur_1_42820" result="shape"/></filter><filter id="o" x="1563" y="344.333" width="109.333" height="109.333" filterUnits="userSpaceOnUse" color-interpolation-filters="sRGB"><feFlood flood-opacity="0" result="BackgroundImageFix"/><feGaussianBlur in="BackgroundImageFix" stdDeviation="9.333"/><feComposite in2="SourceAlpha" operator="in" result="effect1_backgroundBlur_1_42820"/><feBlend in="SourceGraphic" in2="effect1_backgroundBlur_1_42820" result="shape"/></filter><filter id="p" x="1444.33" y="119" width="122.667" height="122.667" filterUnits="userSpaceOnUse" color-interpolation-filters="sRGB"><feFlood flood-opacity="0" result="BackgroundImageFix"/><feGaussianBlur in="BackgroundImageFix" stdDeviation="9.333"/><feComposite in2="SourceAlpha" operator="in" result="effect1_backgroundBlur_1_42820"/><feBlend in="SourceGraphic" in2="effect1_backgroundBlur_1_42820" result="shape"/></filter><filter id="q" x="1180.33" y="563" width="122.667" height="122.667" filterUnits="userSpaceOnUse" color-interpolation-filters="sRGB"><feFlood flood-opacity="0" result="BackgroundImageFix"/><feGaussianBlur in="BackgroundImageFix" stdDeviation="9.333"/><feComposite in2="SourceAlpha" operator="in" result="effect1_backgroundBlur_1_42820"/><feBlend in="SourceGraphic" in2="effect1_backgroundBlur_1_42820" result="shape"/></filter><clipPath id="a"><rect x=".334" y=".333" width="1749.33" height="680" rx="13.333" fill="#fff"/></clipPath></defs></svg>