<svg width="376" height="1024" fill="none" xmlns="http://www.w3.org/2000/svg"><g clip-path="url(#a)"><g filter="url(#b)"><path d="M492.983 447.678c0 26.785 12.729 161.33-51.061 238.286-63.071 76.089-202.502 94.746-231.477 94.746-58.281 0 231.477-207.648-29.502-366.505-288.212 0-.412-171.339 57.869-171.339s254.171 151.545 254.171 204.812Z" fill="url(#c)"/></g><path d="m-75.096 249.274 524.229 525.363m-525.315-.284 524.796-524.796" stroke="#fff" stroke-opacity=".14" stroke-width="1.135" stroke-dasharray="5.67 5.67"/><path d="M186.049 666.106c83.661 0 151.481-67.821 151.481-151.481 0-83.661-67.82-151.481-151.481-151.481-83.66 0-151.48 67.82-151.48 151.481 0 83.66 67.82 151.481 151.48 151.481Z" fill="#070707" fill-opacity=".25"/><path d="M186.619 925.384c227.169 0 411.326-184.157 411.326-411.326S413.788 102.732 186.619 102.732c-227.17 0-411.326 184.157-411.326 411.326S-40.55 925.384 186.619 925.384Z" stroke="#191919" stroke-width="7.943" stroke-dasharray="3.4 3.4"/><path d="M186.615 815.32c166.381 0 301.261-134.879 301.261-301.261 0-166.382-134.88-301.261-301.261-301.261-166.382 0-301.261 134.879-301.261 301.261 0 166.382 134.879 301.261 301.261 301.261Z" stroke="url(#d)" stroke-width="1.135"/><path d="M188.101 560.364c25.381 0 45.955-20.575 45.955-45.955s-20.574-45.955-45.955-45.955c-25.38 0-45.955 20.575-45.955 45.955s20.575 45.955 45.955 45.955Zm.781-432.669c12.22 0 22.127-9.906 22.127-22.126s-9.907-22.127-22.127-22.127c-12.22 0-22.126 9.907-22.126 22.127 0 12.22 9.906 22.126 22.126 22.126Z" fill="#14181B" stroke="#2F2D30" stroke-width="1.135"/><path d="M182.83 105.57h12.103m0 0-4.538-4.539m4.538 4.539-4.538 4.539" stroke="#fff" stroke-opacity=".2" stroke-width="1.135" stroke-linecap="round" stroke-linejoin="round"/><path d="M188.885 902.69c-12.22 0-22.126 9.907-22.126 22.127 0 12.22 9.906 22.126 22.126 22.126s22.127-9.906 22.127-22.126-9.907-22.127-22.127-22.127Z" fill="#14181B" stroke="#2F2D30" stroke-width="1.135"/><path d="M194.938 924.818h-12.104m0 0 4.539 4.538m-4.539-4.538 4.539-4.539" stroke="#fff" stroke-opacity=".2" stroke-width="1.135" stroke-linecap="round" stroke-linejoin="round"/></g><defs><linearGradient id="c" x1="-13.089" y1="242.866" x2="545.747" y2="794.894" gradientUnits="userSpaceOnUse"><stop offset=".1" stop-color="#1B7042"/><stop offset=".53" stop-color="#3E3CA2"/><stop offset="1" stop-color="#BB4E9C"/></linearGradient><linearGradient id="d" x1="-217.336" y1="674.618" x2="528.725" y2="329.104" gradientUnits="userSpaceOnUse"><stop stop-color="#3A8F2D"/><stop offset=".475" stop-color="#4D7562" stop-opacity="0"/><stop offset="1" stop-color="#63599C"/></linearGradient><clipPath id="a"><path fill="#fff" d="M0 0h376v1024H0z"/></clipPath><filter id="b" x="-188.019" y=".042" width="924.863" height="1023.49" filterUnits="userSpaceOnUse" color-interpolation-filters="sRGB"><feFlood flood-opacity="0" result="BackgroundImageFix"/><feBlend in="SourceGraphic" in2="BackgroundImageFix" result="shape"/><feGaussianBlur stdDeviation="121.412" result="effect1_foregroundBlur_2060_598"/></filter></defs></svg>