<svg width="623" height="624" fill="none" xmlns="http://www.w3.org/2000/svg"><g clip-path="url(#a)"><path d="M311.333.667A311.332 311.332 0 0 0 91.187 532.146a311.337 311.337 0 0 0 220.146 91.187v-91.947a219.398 219.398 0 0 1-155.129-64.256 219.384 219.384 0 0 1 71.174-357.816 219.38 219.38 0 0 1 83.955-16.7V.667Zm5.156.043a311.33 311.33 0 0 1 306.177 310.87 311.334 311.334 0 0 1-305.339 311.695l-1.77-91.93a219.388 219.388 0 0 0 152.081-373.291 219.384 219.384 0 0 0-152.672-65.41L316.489.71Z" fill="#fff"/><path d="M2.921 269.453A311.332 311.332 0 1 0 158.188 40.938L311.333 312 2.921 269.453Z" fill="#1D0E29"/><path d="M56.233 133.528a311.337 311.337 0 0 0-53.329 136.05L311.334 312l-255.1-178.472Z" fill="#F9F5FF"/><path d="M158.261 40.896a311.337 311.337 0 0 0-102.007 92.602L311.333 312 158.261 40.896Z" fill="#FBFCFF"/><path d="M2.894 269.649a311.333 311.333 0 1 0 155.37-228.754l45.456 80.509a218.881 218.881 0 0 1 268.644 42.351 218.882 218.882 0 0 1 20.032 271.223 218.873 218.873 0 0 1-259.506 81.36 218.879 218.879 0 0 1-138.4-234.112L2.894 269.649Z" fill="#CECED8"/><path d="M56.433 133.244A311.33 311.33 0 0 0 2.827 270.151l91.617 12.428a218.87 218.87 0 0 1 37.687-96.25l-75.698-53.085Z" fill="#B588E1"/><path d="M158.813 41.271a311.335 311.335 0 0 0-102.138 91.957l75.502 53.363a218.871 218.871 0 0 1 71.806-64.649l-45.17-80.67Z" fill="#7E68CC"/><path d="M388.417 385.313c-1.688 0-3.183-.282-4.485-.844-1.302-.573-2.323-1.354-3.062-2.344-.73-.989-1.094-2.109-1.094-3.359 0-.969.213-1.865.641-2.688a6.042 6.042 0 0 1 1.734-2.062 5.704 5.704 0 0 1 2.484-1.063v-.14c-1.198-.271-2.166-.886-2.906-1.844-.74-.958-1.109-2.068-1.109-3.328 0-1.198.333-2.266 1-3.203.677-.938 1.604-1.677 2.781-2.219 1.177-.542 2.516-.813 4.016-.813 1.489 0 2.822.271 4 .813 1.177.542 2.104 1.281 2.781 2.219.677.937 1.015 2.005 1.015 3.203 0 1.26-.375 2.37-1.125 3.328-.75.958-1.708 1.573-2.875 1.844v.14a5.696 5.696 0 0 1 2.454 1.063 5.988 5.988 0 0 1 1.75 2.062c.437.823.656 1.719.656 2.688 0 1.25-.37 2.37-1.11 3.359-.739.99-1.76 1.771-3.062 2.344-1.302.562-2.797.844-4.484.844Zm0-3.235c.875 0 1.635-.151 2.281-.453.646-.302 1.146-.724 1.5-1.265.354-.552.531-1.183.531-1.891 0-.74-.187-1.396-.562-1.969a3.844 3.844 0 0 0-1.532-1.344c-.646-.333-1.385-.5-2.218-.5-.834 0-1.579.167-2.235.5a3.841 3.841 0 0 0-1.531 1.344c-.365.563-.547 1.219-.547 1.969 0 .708.177 1.339.531 1.891.354.541.854.963 1.5 1.265.646.302 1.407.453 2.282.453Zm0-10.609c.708 0 1.338-.141 1.89-.422a3.41 3.41 0 0 0 1.313-1.203c.323-.521.484-1.115.484-1.781 0-.677-.156-1.266-.469-1.766a3.105 3.105 0 0 0-1.297-1.156c-.552-.281-1.192-.422-1.921-.422-.73 0-1.375.141-1.938.422a3.11 3.11 0 0 0-1.297 1.156c-.302.5-.453 1.089-.453 1.766 0 .666.156 1.255.469 1.765.312.511.745.912 1.297 1.203.562.292 1.203.438 1.922.438Zm19.859 13.844c-1.886 0-3.5-.469-4.844-1.407-1.333-.947-2.354-2.307-3.062-4.078-.709-1.781-1.063-3.932-1.063-6.453 0-2.521.354-4.672 1.063-6.453.708-1.792 1.729-3.156 3.062-4.094 1.344-.948 2.958-1.422 4.844-1.422 1.875 0 3.484.474 4.828 1.422 1.344.948 2.37 2.313 3.078 4.094.708 1.781 1.063 3.932 1.063 6.453 0 2.521-.355 4.672-1.063 6.453-.708 1.771-1.729 3.131-3.062 4.078-1.334.938-2.948 1.407-4.844 1.407Zm0-3.532c1.01 0 1.864-.328 2.562-.984.709-.656 1.245-1.609 1.61-2.859.375-1.261.562-2.782.562-4.563 0-1.791-.187-3.317-.562-4.578-.365-1.26-.901-2.219-1.61-2.875-.698-.667-1.552-1-2.562-1-1.521 0-2.693.74-3.516 2.219-.812 1.469-1.218 3.547-1.218 6.234 0 1.781.182 3.302.546 4.563.365 1.25.901 2.203 1.61 2.859.708.656 1.567.984 2.578.984Zm24-1.156v-1.219c0-.906.187-1.739.562-2.5a4.425 4.425 0 0 1 1.672-1.828c.74-.458 1.636-.687 2.688-.687 1.073 0 1.974.229 2.703.687a4.35 4.35 0 0 1 1.641 1.828c.375.75.562 1.584.562 2.5v1.219c0 .906-.187 1.74-.562 2.5a4.444 4.444 0 0 1-1.657 1.828c-.729.459-1.625.688-2.687.688-1.063 0-1.964-.229-2.703-.688a4.406 4.406 0 0 1-1.672-1.828 5.7 5.7 0 0 1-.547-2.5Zm2.953-1.219v1.219c0 .604.146 1.156.438 1.656.291.5.802.75 1.531.75.719 0 1.219-.25 1.5-.75.281-.5.422-1.052.422-1.656v-1.219c0-.604-.136-1.156-.407-1.656-.26-.5-.765-.75-1.515-.75-.719 0-1.229.25-1.531.75a3.224 3.224 0 0 0-.438 1.656Zm-14.781-12.093v-1.219c0-.917.192-1.75.578-2.5.385-.76.943-1.37 1.672-1.828.729-.458 1.614-.688 2.656-.688 1.083 0 1.99.23 2.719.688a4.447 4.447 0 0 1 1.656 1.828c.375.75.557 1.583.547 2.5v1.219a5.312 5.312 0 0 1-.563 2.5 4.553 4.553 0 0 1-1.671 1.828c-.73.448-1.625.672-2.688.672-1.062 0-1.958-.229-2.687-.688a4.437 4.437 0 0 1-1.657-1.828 5.536 5.536 0 0 1-.562-2.484Zm2.984-1.219v1.219c0 .604.141 1.156.422 1.656s.781.745 1.5.734c.74.011 1.245-.234 1.516-.734.281-.5.422-1.052.422-1.656v-1.219c0-.604-.136-1.156-.407-1.656-.26-.511-.771-.766-1.531-.766-.708 0-1.208.255-1.5.766a3.377 3.377 0 0 0-.422 1.656ZM421.729 385l16-23.281h2.859l-16 23.281h-2.859Z" fill="#FCF9FF"/><path d="M125.292 237.719V261h-4.188v-19.172h-.141l-5.437 3.485v-3.875l5.781-3.719h3.985Zm11.765 23.594c-1.885 0-3.5-.469-4.844-1.407-1.333-.947-2.354-2.307-3.062-4.078-.708-1.781-1.063-3.932-1.063-6.453 0-2.521.355-4.672 1.063-6.453.708-1.792 1.729-3.156 3.062-4.094 1.344-.948 2.959-1.422 4.844-1.422 1.875 0 3.485.474 4.828 1.422 1.344.948 2.37 2.313 3.078 4.094.709 1.781 1.063 3.932 1.063 6.453 0 2.521-.354 4.672-1.063 6.453-.708 1.771-1.729 3.131-3.062 4.078-1.333.938-2.948 1.407-4.844 1.407Zm0-3.532c1.011 0 1.865-.328 2.563-.984.708-.656 1.244-1.609 1.609-2.859.375-1.261.563-2.782.563-4.563 0-1.791-.188-3.317-.563-4.578-.365-1.26-.901-2.219-1.609-2.875-.698-.667-1.552-1-2.563-1-1.521 0-2.693.74-3.515 2.219-.813 1.469-1.219 3.547-1.219 6.234 0 1.781.182 3.302.547 4.563.364 1.25.901 2.203 1.609 2.859.708.656 1.568.984 2.578.984Zm24-1.156v-1.219c0-.906.188-1.739.563-2.5a4.418 4.418 0 0 1 1.672-1.828c.739-.458 1.635-.687 2.687-.687 1.073 0 1.974.229 2.703.687a4.35 4.35 0 0 1 1.641 1.828c.375.75.562 1.584.562 2.5v1.219c0 .906-.187 1.74-.562 2.5a4.441 4.441 0 0 1-1.656 1.828c-.73.459-1.625.688-2.688.688-1.062 0-1.964-.229-2.703-.688a4.406 4.406 0 0 1-1.672-1.828 5.7 5.7 0 0 1-.547-2.5Zm2.953-1.219v1.219c0 .604.146 1.156.438 1.656.291.5.802.75 1.531.75.719 0 1.219-.25 1.5-.75.281-.5.422-1.052.422-1.656v-1.219a3.43 3.43 0 0 0-.406-1.656c-.261-.5-.766-.75-1.516-.75-.719 0-1.229.25-1.531.75a3.224 3.224 0 0 0-.438 1.656Zm-14.781-12.093v-1.219c0-.917.193-1.75.578-2.5.386-.76.943-1.37 1.672-1.828.729-.458 1.615-.688 2.656-.688 1.084 0 1.99.23 2.719.688a4.447 4.447 0 0 1 1.656 1.828c.375.75.558 1.583.547 2.5v1.219a5.311 5.311 0 0 1-.562 2.5 4.563 4.563 0 0 1-1.672 1.828c-.729.448-1.625.672-2.688.672-1.062 0-1.958-.229-2.687-.688a4.441 4.441 0 0 1-1.656-1.828 5.537 5.537 0 0 1-.563-2.484Zm2.984-1.219v1.219c0 .604.141 1.156.422 1.656.282.5.782.745 1.5.734.74.011 1.245-.234 1.516-.734.281-.5.422-1.052.422-1.656v-1.219a3.43 3.43 0 0 0-.406-1.656c-.261-.511-.771-.766-1.532-.766-.708 0-1.208.255-1.5.766a3.377 3.377 0 0 0-.422 1.656ZM150.51 261l16-23.281h2.86l-16 23.281h-2.86Z" fill="#030101"/><path d="M175.958 175.052v23.282h-4.187v-19.172h-.141l-5.437 3.484v-3.875l5.781-3.719h3.984Zm11.766 23.594c-1.885 0-3.5-.469-4.844-1.406-1.333-.948-2.354-2.307-3.062-4.078-.708-1.782-1.063-3.933-1.063-6.453 0-2.521.355-4.672 1.063-6.454.708-1.791 1.729-3.156 3.062-4.093 1.344-.948 2.959-1.422 4.844-1.422 1.875 0 3.484.474 4.828 1.422 1.344.948 2.37 2.312 3.078 4.093.709 1.782 1.063 3.933 1.063 6.454 0 2.52-.354 4.671-1.063 6.453-.708 1.771-1.729 3.13-3.062 4.078-1.333.937-2.948 1.406-4.844 1.406Zm0-3.531c1.011 0 1.865-.328 2.563-.985.708-.656 1.244-1.609 1.609-2.859.375-1.26.562-2.781.562-4.562 0-1.792-.187-3.318-.562-4.579-.365-1.26-.901-2.218-1.609-2.875-.698-.666-1.552-1-2.563-1-1.521 0-2.693.74-3.516 2.219-.812 1.469-1.218 3.547-1.218 6.235 0 1.781.182 3.302.547 4.562.364 1.25.901 2.203 1.609 2.859.708.657 1.568.985 2.578.985Zm24-1.156v-1.219c0-.906.188-1.74.563-2.5a4.41 4.41 0 0 1 1.671-1.828c.74-.459 1.636-.688 2.688-.688 1.073 0 1.974.229 2.703.688a4.339 4.339 0 0 1 1.641 1.828c.375.75.562 1.583.562 2.5v1.219c0 .906-.187 1.739-.562 2.5a4.45 4.45 0 0 1-1.657 1.828c-.729.458-1.625.687-2.687.687-1.063 0-1.964-.229-2.703-.687a4.418 4.418 0 0 1-1.672-1.828 5.704 5.704 0 0 1-.547-2.5Zm2.953-1.219v1.219c0 .604.146 1.156.438 1.656.291.5.802.75 1.531.75.719 0 1.219-.25 1.5-.75.281-.5.422-1.052.422-1.656v-1.219a3.43 3.43 0 0 0-.406-1.656c-.261-.5-.766-.75-1.516-.75-.719 0-1.229.25-1.531.75a3.224 3.224 0 0 0-.438 1.656Zm-14.781-12.094v-1.219c0-.916.193-1.75.578-2.5a4.57 4.57 0 0 1 1.672-1.828c.729-.458 1.615-.687 2.656-.687 1.084 0 1.99.229 2.719.687a4.453 4.453 0 0 1 1.656 1.828c.375.75.558 1.584.547 2.5v1.219a5.308 5.308 0 0 1-.562 2.5 4.556 4.556 0 0 1-1.672 1.828c-.729.448-1.625.672-2.688.672-1.062 0-1.958-.229-2.687-.687a4.452 4.452 0 0 1-1.657-1.829 5.536 5.536 0 0 1-.562-2.484Zm2.984-1.219v1.219c0 .604.141 1.156.422 1.656s.781.745 1.5.735c.74.01 1.245-.235 1.516-.735.281-.5.422-1.052.422-1.656v-1.219c0-.604-.136-1.156-.407-1.656-.26-.51-.77-.766-1.531-.766-.708 0-1.208.256-1.5.766a3.382 3.382 0 0 0-.422 1.656Zm-1.703 18.907 16-23.282h2.86l-16 23.282h-2.86Z" fill="#0A1105"/></g><defs><clipPath id="a"><path fill="#fff" transform="translate(0 .667)" d="M0 0h622.667v622.667H0z"/></clipPath></defs></svg>