<svg width="268" height="267" fill="none" xmlns="http://www.w3.org/2000/svg"><path d="m165.692 37.853 89.781 154.795c14.166 24.425-3.457 55.018-31.692 55.018H44.219c-28.235 0-45.858-30.593-31.692-55.018l89.781-154.795c14.118-24.34 49.266-24.34 63.384 0Z" stroke="#fff" stroke-opacity=".1" stroke-width="1.332"/><path d="M137.997 72.477a3.996 3.996 0 1 0 7.993 0 3.996 3.996 0 0 0-7.993 0Zm0 0a11.992 11.992 0 0 1-11.991-11.99m0 0a3.997 3.997 0 1 0 0-7.993 3.997 3.997 0 0 0 0 7.993Zm0 0v15.986m-83.93 119.902v3.996m7.993-3.996v3.996m-7.993 18.652v3.996m7.993-3.996v3.996m5.329-17.319h3.997m-3.997 6.662h3.997M32.75 205.7h3.997m-3.997 6.662h3.997m6.394 6.661h5.862c2.239 0 3.358 0 4.213-.436a3.995 3.995 0 0 0 1.746-1.746c.436-.855.436-1.975.436-4.213v-5.862c0-2.238 0-3.357-.436-4.212a3.997 3.997 0 0 0-1.746-1.747c-.855-.436-1.974-.436-4.213-.436h-5.862c-2.238 0-3.357 0-4.212.436a3.997 3.997 0 0 0-1.747 1.747c-.435.855-.435 1.974-.435 4.212v5.862c0 2.238 0 3.358.435 4.213a3.994 3.994 0 0 0 1.747 1.746c.855.436 1.974.436 4.212.436Zm190.777-18.652c0 2.208-5.368 3.997-11.99 3.997s-11.99-1.789-11.99-3.997m23.98 0c0-2.207-5.368-3.996-11.99-3.996s-11.99 1.789-11.99 3.996m23.98 0v18.652c0 2.211-5.329 3.996-11.99 3.996-6.662 0-11.99-1.785-11.99-3.996v-18.652m23.98 9.326c0 2.212-5.329 3.997-11.99 3.997-6.662 0-11.99-1.785-11.99-3.997" stroke="#fff" stroke-width="2.664" stroke-linecap="round" stroke-linejoin="round"/></svg>