<svg width="501" height="325" fill="none" xmlns="http://www.w3.org/2000/svg"><path d="M201.693 105.077c0-9.595 3.513-18.52 9.456-26.046a1.36 1.36 0 0 0-.178-1.885l-46.795-39.45a1.322 1.322 0 0 0-1.784.067c-18.33 18.18-29.27 41.683-29.27 67.314 0 25.628 10.939 49.129 29.147 67.309a1.324 1.324 0 0 0 1.786.072l46.914-39.451c.562-.473.634-1.31.179-1.886-5.942-7.526-9.455-16.451-9.455-26.044Zm55.795-47.042c11.552 0 22.286 3.052 31.297 8.2a1.351 1.351 0 0 0 1.542-.134l46.343-39.07a1.319 1.319 0 0 0-.075-2.082C315.198 9.656 287.464.539 257.116.539c-30.225 0-57.836 9.116-79.343 24.308a1.319 1.319 0 0 0-.082 2.087l46.579 39.369c.436.37 1.059.417 1.553.13 9.017-5.249 19.874-8.398 31.665-8.398Zm94.035-20.586a.665.665 0 0 0-.895-.036L303.244 77.26a.674.674 0 0 0-.082.945c6.314 7.637 10.109 16.856 10.109 26.875 0 10.019-3.795 19.239-10.11 26.876a.674.674 0 0 0 .082.944l47.385 39.949a.664.664 0 0 0 .895-.035c18.465-18.237 29.575-41.905 29.575-67.734 0-25.83-11.11-49.394-29.575-67.63ZM257.492 152.12c-11.972 0-22.981-3.247-32.078-8.641a.67.67 0 0 0-.775.063l-47.716 40.227a.663.663 0 0 0 .039 1.046c21.607 15.487 49.608 24.801 80.158 24.801 30.674 0 58.677-9.314 80.165-24.905a.662.662 0 0 0 .035-1.043l-47.351-39.92a.67.67 0 0 0-.77-.065c-9.094 5.291-19.979 8.437-31.707 8.437Z" fill="#fff"/><g filter="url(#a)"><mask id="c" maskUnits="userSpaceOnUse" x="3.667" y="254.667" width="492" height="55" fill="#000"><path fill="#fff" d="M3.667 254.667h492v55h-492z"/><path d="M31.17 307.307c-3.712 0-7.125-.64-10.24-1.92-3.114-1.28-5.823-3.072-8.127-5.376-2.262-2.304-4.033-5.014-5.313-8.128-1.237-3.115-1.856-6.528-1.856-10.24 0-3.67.62-7.062 1.856-10.176 1.28-3.115 3.051-5.824 5.313-8.128 2.303-2.304 5.013-4.096 8.127-5.376 3.115-1.28 6.529-1.92 10.24-1.92 3.67 0 7.062.64 10.176 1.92 3.115 1.28 5.825 3.072 8.129 5.376 2.303 2.304 4.074 5.013 5.311 8.128 1.28 3.114 1.92 6.506 1.92 10.176 0 3.712-.64 7.125-1.92 10.24-1.237 3.114-3.008 5.824-5.312 8.128-2.303 2.304-5.013 4.096-8.127 5.376-3.115 1.28-6.507 1.92-10.177 1.92Zm0-4.736c2.944 0 5.675-.512 8.192-1.536 2.518-1.067 4.694-2.539 6.529-4.416a20.448 20.448 0 0 0 4.352-6.656c1.023-2.56 1.535-5.334 1.535-8.32 0-2.944-.511-5.675-1.535-8.192-1.025-2.56-2.475-4.779-4.352-6.656-1.835-1.92-4.011-3.392-6.529-4.416-2.517-1.067-5.248-1.6-8.192-1.6-2.986 0-5.738.533-8.256 1.6a19.273 19.273 0 0 0-6.591 4.416c-1.835 1.877-3.264 4.096-4.289 6.656-1.024 2.517-1.536 5.248-1.536 8.192 0 2.986.513 5.76 1.537 8.32a20.984 20.984 0 0 0 4.288 6.656c1.877 1.877 4.074 3.349 6.591 4.416 2.518 1.024 5.27 1.536 8.256 1.536Zm38.33 4.096c-.725 0-1.323-.235-1.792-.704-.47-.47-.704-1.067-.704-1.792v-44.992c0-.726.235-1.323.704-1.792.47-.47 1.067-.704 1.792-.704h12.8c3.157 0 5.952.704 8.384 2.112a14.619 14.619 0 0 1 5.696 5.696c1.365 2.432 2.048 5.248 2.048 8.448 0 3.114-.683 5.888-2.048 8.32-1.365 2.389-3.264 4.288-5.696 5.696-2.432 1.365-5.227 2.048-8.384 2.048H71.996v15.168c0 .725-.235 1.322-.704 1.792-.47.469-1.067.704-1.792.704Zm2.496-22.464H82.3c2.176 0 4.117-.47 5.824-1.408a10.307 10.307 0 0 0 3.968-4.032c.981-1.707 1.472-3.648 1.472-5.824 0-2.262-.49-4.246-1.472-5.952a10.294 10.294 0 0 0-3.968-4.032c-1.707-.982-3.648-1.472-5.824-1.472H71.996v22.72Zm54.1 23.488c-3.883 0-7.339-.747-10.368-2.24-2.987-1.494-5.334-3.563-7.04-6.208-1.664-2.646-2.496-5.675-2.496-9.088v-30.976c0-.726.234-1.323.704-1.792.469-.47 1.066-.704 1.792-.704.725 0 1.322.234 1.792.704.469.469.704 1.066.704 1.792v30.976c0 2.517.618 4.736 1.856 6.656 1.28 1.92 3.05 3.434 5.312 4.544 2.261 1.066 4.842 1.6 7.744 1.6 2.858 0 5.397-.534 7.616-1.6 2.218-1.11 3.946-2.624 5.184-4.544 1.28-1.92 1.92-4.139 1.92-6.656v-30.976c0-.726.234-1.323.704-1.792.469-.47 1.066-.704 1.792-.704.768 0 1.365.234 1.792.704.469.469.704 1.066.704 1.792v30.976c0 3.413-.854 6.442-2.56 9.088-1.664 2.645-3.99 4.714-6.976 6.208-2.944 1.493-6.336 2.24-10.176 2.24Zm47.893-.384c-2.731 0-5.269-.384-7.616-1.152-2.304-.811-4.309-1.942-6.016-3.392-1.707-1.451-3.008-3.136-3.904-5.056-.341-.683-.363-1.302-.064-1.856.341-.598.896-1.003 1.664-1.216a2.224 2.224 0 0 1 1.728.192 2.927 2.927 0 0 1 1.344 1.344c.64 1.237 1.579 2.346 2.816 3.328 1.237.981 2.709 1.749 4.416 2.304 1.707.512 3.584.768 5.632.768 2.261 0 4.267-.363 6.016-1.088 1.749-.768 3.115-1.856 4.096-3.264 1.024-1.451 1.536-3.2 1.536-5.248 0-2.603-.96-4.843-2.88-6.72-1.92-1.878-4.928-3.072-9.024-3.584-4.992-.598-8.896-2.134-11.712-4.608-2.816-2.518-4.224-5.59-4.224-9.216 0-2.603.683-4.864 2.048-6.784 1.408-1.92 3.328-3.392 5.76-4.416 2.432-1.067 5.227-1.6 8.384-1.6 2.347 0 4.48.384 6.4 1.151 1.92.726 3.584 1.707 4.992 2.945 1.451 1.194 2.624 2.517 3.52 3.968.427.682.555 1.344.384 1.984-.128.64-.491 1.13-1.088 1.472a2.666 2.666 0 0 1-1.984.128 2.593 2.593 0 0 1-1.472-1.216c-.64-.982-1.451-1.899-2.432-2.752-.939-.896-2.091-1.6-3.456-2.112-1.365-.512-3.008-.79-4.928-.832-3.371 0-6.08.725-8.128 2.176-2.048 1.408-3.072 3.477-3.072 6.208 0 1.45.384 2.794 1.152 4.032.768 1.194 2.027 2.24 3.776 3.136 1.792.853 4.181 1.493 7.168 1.92 5.333.768 9.28 2.41 11.84 4.928 2.603 2.474 3.904 5.717 3.904 9.728 0 2.304-.427 4.352-1.28 6.144a12.241 12.241 0 0 1-3.52 4.544c-1.493 1.194-3.264 2.112-5.312 2.752-2.005.64-4.16.96-6.464.96Zm48.261-.64a2.57 2.57 0 0 1-1.792-.704c-.469-.47-.704-1.067-.704-1.792v-44.992c0-.683.235-1.259.704-1.728.512-.512 1.109-.768 1.792-.768s1.259.256 1.728.768c.512.469.768 1.045.768 1.728v42.752h25.024c.683 0 1.259.234 1.728.704.512.426.768.981.768 1.664 0 .682-.256 1.258-.768 1.728-.469.426-1.045.64-1.728.64h-27.52Zm35.252 0c-.981 0-1.685-.406-2.112-1.216-.427-.811-.469-1.6-.128-2.368l18.816-44.672c.469-1.152 1.28-1.728 2.432-1.728 1.109 0 1.899.576 2.368 1.728l18.88 44.736c.384.81.32 1.6-.192 2.368-.469.768-1.152 1.152-2.048 1.152-.512 0-.981-.128-1.408-.384-.384-.256-.704-.64-.96-1.152l-17.6-42.688h1.984l-17.728 42.688c-.213.512-.533.896-.96 1.152-.384.256-.832.384-1.344.384Zm4.224-11.904 1.92-4.288h25.984l1.92 4.288h-29.824Zm52.739 11.904a2.57 2.57 0 0 1-1.792-.704 2.571 2.571 0 0 1-.704-1.792v-16l-17.408-27.584c-.427-.64-.597-1.259-.512-1.856a2.674 2.674 0 0 1 .832-1.472c.427-.384.96-.576 1.6-.576.512 0 .917.106 1.216.32.341.213.64.512.896.896l17.28 27.84h-2.688l17.216-27.712c.299-.47.619-.811.96-1.024.384-.214.832-.32 1.344-.32.597 0 1.088.213 1.472.64.427.384.661.874.704 1.472.085.597-.064 1.194-.448 1.792l-17.472 27.584v16c0 .682-.256 1.28-.768 1.792-.469.469-1.045.704-1.728.704Zm29.66 0c-.725 0-1.323-.235-1.792-.704-.469-.47-.704-1.067-.704-1.792v-44.992c0-.726.235-1.323.704-1.792.469-.47 1.067-.704 1.792-.704h30.016c.683 0 1.259.234 1.728.704.512.426.768 1.002.768 1.728 0 .64-.256 1.194-.768 1.664-.469.469-1.045.704-1.728.704h-27.52v17.664h20.032c.725 0 1.323.234 1.792.704.469.469.704 1.045.704 1.728 0 .682-.235 1.258-.704 1.728-.469.469-1.067.704-1.792.704h-20.032v17.856h27.52c.683 0 1.259.234 1.728.704.512.469.768 1.024.768 1.664 0 .725-.256 1.322-.768 1.792-.469.426-1.045.64-1.728.64h-30.016Zm44.313 0c-.726 0-1.323-.235-1.792-.704-.47-.47-.704-1.067-.704-1.792v-44.992c0-.726.234-1.323.704-1.792.469-.47 1.066-.704 1.792-.704h11.968c3.114 0 5.888.661 8.32 1.984 2.432 1.28 4.33 3.093 5.696 5.44 1.408 2.304 2.112 4.97 2.112 8 0 2.901-.704 5.482-2.112 7.744-1.366 2.261-3.264 4.032-5.696 5.312-2.432 1.28-5.206 1.92-8.32 1.92h-9.472v17.088c0 .725-.235 1.322-.704 1.792-.47.469-1.067.704-1.792.704Zm26.752 0c-.555 0-1.003-.107-1.344-.32-.299-.214-.576-.534-.832-.96l-12.288-19.584 4.992-1.28 11.456 18.304c.64 1.024.746 1.92.32 2.688-.384.768-1.152 1.152-2.304 1.152Zm-24.256-24.384h9.472c2.176 0 4.096-.427 5.76-1.28 1.706-.896 3.05-2.112 4.032-3.648.981-1.536 1.472-3.286 1.472-5.248 0-2.091-.491-3.926-1.472-5.504-.982-1.622-2.326-2.88-4.032-3.777-1.664-.895-3.584-1.343-5.76-1.343h-9.472v20.8Zm50.568 24.384c-.981 0-1.685-.406-2.112-1.216-.427-.811-.469-1.6-.128-2.368l18.816-44.672c.469-1.152 1.28-1.728 2.432-1.728 1.109 0 1.899.576 2.368 1.728l18.88 44.736c.384.81.32 1.6-.192 2.368-.469.768-1.152 1.152-2.048 1.152-.512 0-.981-.128-1.408-.384-.384-.256-.704-.64-.96-1.152l-17.6-42.688h1.984l-17.728 42.688c-.213.512-.533.896-.96 1.152-.384.256-.832.384-1.344.384Zm4.224-11.904 1.92-4.288h25.984l1.92 4.288h-29.824Zm46.024 11.904c-.725 0-1.323-.235-1.792-.704-.469-.47-.704-1.067-.704-1.792v-44.992c0-.726.235-1.323.704-1.792.469-.47 1.067-.704 1.792-.704.725 0 1.323.234 1.792.704.469.469.704 1.066.704 1.792v44.992c0 .725-.235 1.322-.704 1.792-.469.469-1.067.704-1.792.704Z"/></mask><path d="M31.17 307.307c-3.712 0-7.125-.64-10.24-1.92-3.114-1.28-5.823-3.072-8.127-5.376-2.262-2.304-4.033-5.014-5.313-8.128-1.237-3.115-1.856-6.528-1.856-10.24 0-3.67.62-7.062 1.856-10.176 1.28-3.115 3.051-5.824 5.313-8.128 2.303-2.304 5.013-4.096 8.127-5.376 3.115-1.28 6.529-1.92 10.24-1.92 3.67 0 7.062.64 10.176 1.92 3.115 1.28 5.825 3.072 8.129 5.376 2.303 2.304 4.074 5.013 5.311 8.128 1.28 3.114 1.92 6.506 1.92 10.176 0 3.712-.64 7.125-1.92 10.24-1.237 3.114-3.008 5.824-5.312 8.128-2.303 2.304-5.013 4.096-8.127 5.376-3.115 1.28-6.507 1.92-10.177 1.92Zm0-4.736c2.944 0 5.675-.512 8.192-1.536 2.518-1.067 4.694-2.539 6.529-4.416a20.448 20.448 0 0 0 4.352-6.656c1.023-2.56 1.535-5.334 1.535-8.32 0-2.944-.511-5.675-1.535-8.192-1.025-2.56-2.475-4.779-4.352-6.656-1.835-1.92-4.011-3.392-6.529-4.416-2.517-1.067-5.248-1.6-8.192-1.6-2.986 0-5.738.533-8.256 1.6a19.273 19.273 0 0 0-6.591 4.416c-1.835 1.877-3.264 4.096-4.289 6.656-1.024 2.517-1.536 5.248-1.536 8.192 0 2.986.513 5.76 1.537 8.32a20.984 20.984 0 0 0 4.288 6.656c1.877 1.877 4.074 3.349 6.591 4.416 2.518 1.024 5.27 1.536 8.256 1.536Zm38.33 4.096c-.725 0-1.323-.235-1.792-.704-.47-.47-.704-1.067-.704-1.792v-44.992c0-.726.235-1.323.704-1.792.47-.47 1.067-.704 1.792-.704h12.8c3.157 0 5.952.704 8.384 2.112a14.619 14.619 0 0 1 5.696 5.696c1.365 2.432 2.048 5.248 2.048 8.448 0 3.114-.683 5.888-2.048 8.32-1.365 2.389-3.264 4.288-5.696 5.696-2.432 1.365-5.227 2.048-8.384 2.048H71.996v15.168c0 .725-.235 1.322-.704 1.792-.47.469-1.067.704-1.792.704Zm2.496-22.464H82.3c2.176 0 4.117-.47 5.824-1.408a10.307 10.307 0 0 0 3.968-4.032c.981-1.707 1.472-3.648 1.472-5.824 0-2.262-.49-4.246-1.472-5.952a10.294 10.294 0 0 0-3.968-4.032c-1.707-.982-3.648-1.472-5.824-1.472H71.996v22.72Zm54.1 23.488c-3.883 0-7.339-.747-10.368-2.24-2.987-1.494-5.334-3.563-7.04-6.208-1.664-2.646-2.496-5.675-2.496-9.088v-30.976c0-.726.234-1.323.704-1.792.469-.47 1.066-.704 1.792-.704.725 0 1.322.234 1.792.704.469.469.704 1.066.704 1.792v30.976c0 2.517.618 4.736 1.856 6.656 1.28 1.92 3.05 3.434 5.312 4.544 2.261 1.066 4.842 1.6 7.744 1.6 2.858 0 5.397-.534 7.616-1.6 2.218-1.11 3.946-2.624 5.184-4.544 1.28-1.92 1.92-4.139 1.92-6.656v-30.976c0-.726.234-1.323.704-1.792.469-.47 1.066-.704 1.792-.704.768 0 1.365.234 1.792.704.469.469.704 1.066.704 1.792v30.976c0 3.413-.854 6.442-2.56 9.088-1.664 2.645-3.99 4.714-6.976 6.208-2.944 1.493-6.336 2.24-10.176 2.24Zm47.893-.384c-2.731 0-5.269-.384-7.616-1.152-2.304-.811-4.309-1.942-6.016-3.392-1.707-1.451-3.008-3.136-3.904-5.056-.341-.683-.363-1.302-.064-1.856.341-.598.896-1.003 1.664-1.216a2.224 2.224 0 0 1 1.728.192 2.927 2.927 0 0 1 1.344 1.344c.64 1.237 1.579 2.346 2.816 3.328 1.237.981 2.709 1.749 4.416 2.304 1.707.512 3.584.768 5.632.768 2.261 0 4.267-.363 6.016-1.088 1.749-.768 3.115-1.856 4.096-3.264 1.024-1.451 1.536-3.2 1.536-5.248 0-2.603-.96-4.843-2.88-6.72-1.92-1.878-4.928-3.072-9.024-3.584-4.992-.598-8.896-2.134-11.712-4.608-2.816-2.518-4.224-5.59-4.224-9.216 0-2.603.683-4.864 2.048-6.784 1.408-1.92 3.328-3.392 5.76-4.416 2.432-1.067 5.227-1.6 8.384-1.6 2.347 0 4.48.384 6.4 1.151 1.92.726 3.584 1.707 4.992 2.945 1.451 1.194 2.624 2.517 3.52 3.968.427.682.555 1.344.384 1.984-.128.64-.491 1.13-1.088 1.472a2.666 2.666 0 0 1-1.984.128 2.593 2.593 0 0 1-1.472-1.216c-.64-.982-1.451-1.899-2.432-2.752-.939-.896-2.091-1.6-3.456-2.112-1.365-.512-3.008-.79-4.928-.832-3.371 0-6.08.725-8.128 2.176-2.048 1.408-3.072 3.477-3.072 6.208 0 1.45.384 2.794 1.152 4.032.768 1.194 2.027 2.24 3.776 3.136 1.792.853 4.181 1.493 7.168 1.92 5.333.768 9.28 2.41 11.84 4.928 2.603 2.474 3.904 5.717 3.904 9.728 0 2.304-.427 4.352-1.28 6.144a12.241 12.241 0 0 1-3.52 4.544c-1.493 1.194-3.264 2.112-5.312 2.752-2.005.64-4.16.96-6.464.96Zm48.261-.64a2.57 2.57 0 0 1-1.792-.704c-.469-.47-.704-1.067-.704-1.792v-44.992c0-.683.235-1.259.704-1.728.512-.512 1.109-.768 1.792-.768s1.259.256 1.728.768c.512.469.768 1.045.768 1.728v42.752h25.024c.683 0 1.259.234 1.728.704.512.426.768.981.768 1.664 0 .682-.256 1.258-.768 1.728-.469.426-1.045.64-1.728.64h-27.52Zm35.252 0c-.981 0-1.685-.406-2.112-1.216-.427-.811-.469-1.6-.128-2.368l18.816-44.672c.469-1.152 1.28-1.728 2.432-1.728 1.109 0 1.899.576 2.368 1.728l18.88 44.736c.384.81.32 1.6-.192 2.368-.469.768-1.152 1.152-2.048 1.152-.512 0-.981-.128-1.408-.384-.384-.256-.704-.64-.96-1.152l-17.6-42.688h1.984l-17.728 42.688c-.213.512-.533.896-.96 1.152-.384.256-.832.384-1.344.384Zm4.224-11.904 1.92-4.288h25.984l1.92 4.288h-29.824Zm52.739 11.904a2.57 2.57 0 0 1-1.792-.704 2.571 2.571 0 0 1-.704-1.792v-16l-17.408-27.584c-.427-.64-.597-1.259-.512-1.856a2.674 2.674 0 0 1 .832-1.472c.427-.384.96-.576 1.6-.576.512 0 .917.106 1.216.32.341.213.64.512.896.896l17.28 27.84h-2.688l17.216-27.712c.299-.47.619-.811.96-1.024.384-.214.832-.32 1.344-.32.597 0 1.088.213 1.472.64.427.384.661.874.704 1.472.085.597-.064 1.194-.448 1.792l-17.472 27.584v16c0 .682-.256 1.28-.768 1.792-.469.469-1.045.704-1.728.704Zm29.66 0c-.725 0-1.323-.235-1.792-.704-.469-.47-.704-1.067-.704-1.792v-44.992c0-.726.235-1.323.704-1.792.469-.47 1.067-.704 1.792-.704h30.016c.683 0 1.259.234 1.728.704.512.426.768 1.002.768 1.728 0 .64-.256 1.194-.768 1.664-.469.469-1.045.704-1.728.704h-27.52v17.664h20.032c.725 0 1.323.234 1.792.704.469.469.704 1.045.704 1.728 0 .682-.235 1.258-.704 1.728-.469.469-1.067.704-1.792.704h-20.032v17.856h27.52c.683 0 1.259.234 1.728.704.512.469.768 1.024.768 1.664 0 .725-.256 1.322-.768 1.792-.469.426-1.045.64-1.728.64h-30.016Zm44.313 0c-.726 0-1.323-.235-1.792-.704-.47-.47-.704-1.067-.704-1.792v-44.992c0-.726.234-1.323.704-1.792.469-.47 1.066-.704 1.792-.704h11.968c3.114 0 5.888.661 8.32 1.984 2.432 1.28 4.33 3.093 5.696 5.44 1.408 2.304 2.112 4.97 2.112 8 0 2.901-.704 5.482-2.112 7.744-1.366 2.261-3.264 4.032-5.696 5.312-2.432 1.28-5.206 1.92-8.32 1.92h-9.472v17.088c0 .725-.235 1.322-.704 1.792-.47.469-1.067.704-1.792.704Zm26.752 0c-.555 0-1.003-.107-1.344-.32-.299-.214-.576-.534-.832-.96l-12.288-19.584 4.992-1.28 11.456 18.304c.64 1.024.746 1.92.32 2.688-.384.768-1.152 1.152-2.304 1.152Zm-24.256-24.384h9.472c2.176 0 4.096-.427 5.76-1.28 1.706-.896 3.05-2.112 4.032-3.648.981-1.536 1.472-3.286 1.472-5.248 0-2.091-.491-3.926-1.472-5.504-.982-1.622-2.326-2.88-4.032-3.777-1.664-.895-3.584-1.343-5.76-1.343h-9.472v20.8Zm50.568 24.384c-.981 0-1.685-.406-2.112-1.216-.427-.811-.469-1.6-.128-2.368l18.816-44.672c.469-1.152 1.28-1.728 2.432-1.728 1.109 0 1.899.576 2.368 1.728l18.88 44.736c.384.81.32 1.6-.192 2.368-.469.768-1.152 1.152-2.048 1.152-.512 0-.981-.128-1.408-.384-.384-.256-.704-.64-.96-1.152l-17.6-42.688h1.984l-17.728 42.688c-.213.512-.533.896-.96 1.152-.384.256-.832.384-1.344.384Zm4.224-11.904 1.92-4.288h25.984l1.92 4.288h-29.824Zm46.024 11.904c-.725 0-1.323-.235-1.792-.704-.469-.47-.704-1.067-.704-1.792v-44.992c0-.726.235-1.323.704-1.792.469-.47 1.067-.704 1.792-.704.725 0 1.323.234 1.792.704.469.469.704 1.066.704 1.792v44.992c0 .725-.235 1.322-.704 1.792-.469.469-1.067.704-1.792.704Z" fill="url(#b)"/><path d="m20.93 305.387.507-1.234-.507 1.234Zm-8.127-5.376-.952.934.009.008.943-.942Zm-5.313-8.128-1.239.492.003.007.003.007 1.234-.506Zm0-20.416-1.233-.507-.003.007-.003.007 1.24.493Zm5.313-8.128-.943-.943-.01.009.953.934Zm8.127-5.376-.506-1.234.506 1.234Zm20.416 0 .507-1.234-.507 1.234Zm8.129 5.376.942-.943-.943.943Zm5.311 8.128-1.239.492.003.007.003.007 1.233-.506Zm0 20.416-1.233-.507-.003.007-.003.007 1.24.493Zm-5.312 8.128.943.942-.943-.942Zm-8.127 5.376-.507-1.234.506 1.234Zm-1.985-4.352.503 1.235.009-.004.009-.004-.52-1.227Zm6.529-4.416-.954-.933v.001l.954.932Zm4.352-6.656 1.235.502.002-.007-1.237-.495Zm0-16.512-1.239.495.003.007 1.236-.502Zm-4.352-6.656-.965.921.011.011.01.01.944-.942Zm-6.529-4.416-.52 1.227.01.004.008.004.502-1.235Zm-16.448 0 .503 1.235.009-.004.009-.004-.52-1.227Zm-6.591 4.416-.954-.933v.001l.954.932Zm-4.289 6.656 1.236.502.003-.007-1.239-.495Zm0 16.512-1.238.495.003.007 1.236-.502Zm4.289 6.656-.965.921.011.011.01.01.944-.942Zm6.591 4.416-.52 1.227.01.004.008.004.503-1.235Zm8.256 4.938c-3.556 0-6.795-.612-9.733-1.82l-1.013 2.467c3.29 1.352 6.878 2.02 10.747 2.02v-2.667Zm-9.733-1.82c-2.957-1.215-5.517-2.91-7.692-5.085l-1.885 1.885c2.433 2.433 5.291 4.322 8.564 5.667l1.013-2.467Zm-7.683-5.076c-2.136-2.176-3.813-4.739-5.03-7.701l-2.467 1.013c1.343 3.267 3.207 6.123 5.594 8.555l1.903-1.867ZM8.73 291.39c-1.17-2.942-1.762-6.186-1.762-9.747H4.3c0 3.862.644 7.444 1.95 10.732l2.479-.985Zm-1.762-9.747c0-3.517.592-6.74 1.762-9.684l-2.479-.985c-1.305 3.286-1.95 6.847-1.95 10.669h2.667Zm1.756-9.67c1.217-2.962 2.894-5.525 5.03-7.701l-1.903-1.867c-2.387 2.432-4.251 5.288-5.594 8.555l2.467 1.013Zm5.021-7.692c2.175-2.175 4.735-3.87 7.692-5.085l-1.013-2.467c-3.273 1.345-6.131 3.234-8.564 5.667l1.885 1.885Zm7.692-5.085c2.938-1.208 6.177-1.82 9.733-1.82v-2.667c-3.868 0-7.455.668-10.746 2.02l1.013 2.467Zm9.733-1.82c3.512 0 6.73.612 9.67 1.82l1.013-2.467c-3.289-1.352-6.855-2.02-10.683-2.02v2.667Zm9.67 1.82c2.957 1.215 5.517 2.91 7.692 5.085l1.885-1.885c-2.433-2.433-5.291-4.322-8.564-5.667l-1.013 2.467Zm7.692 5.085c2.172 2.172 3.843 4.727 5.015 7.678l2.479-.985c-1.303-3.278-3.173-6.142-5.609-8.578l-1.885 1.885Zm5.021 7.692c1.209 2.94 1.82 6.158 1.82 9.67h2.667c0-3.828-.668-7.394-2.02-10.683l-2.467 1.013Zm1.82 9.67c0 3.555-.612 6.795-1.82 9.733l2.467 1.013c1.352-3.291 2.02-6.878 2.02-10.746h-2.667Zm-1.826 9.747c-1.172 2.951-2.843 5.506-5.015 7.678l1.885 1.885c2.436-2.436 4.306-5.3 5.609-8.578l-2.479-.985Zm-5.015 7.678c-2.175 2.175-4.735 3.87-7.692 5.085l1.013 2.467c3.273-1.345 6.131-3.234 8.564-5.667l-1.885-1.885Zm-7.692 5.085c-2.94 1.208-6.158 1.82-9.67 1.82v2.667c3.828 0 7.394-.668 10.683-2.02l-1.013-2.467Zm-9.67-.249c3.102 0 6.005-.54 8.695-1.634l-1.005-2.471c-2.345.954-4.903 1.438-7.69 1.438v2.667Zm8.713-1.642c2.673-1.132 4.998-2.703 6.961-4.712l-1.907-1.863c-1.706 1.745-3.733 3.119-6.095 4.12l1.04 2.455Zm6.96-4.711a21.79 21.79 0 0 0 4.635-7.086l-2.47-1.005a19.112 19.112 0 0 1-4.07 6.226l1.906 1.865Zm4.637-7.093c1.093-2.73 1.632-5.673 1.632-8.815h-2.667c0 2.831-.484 5.434-1.44 7.824l2.475.991Zm1.632-8.815c0-3.102-.54-6.005-1.634-8.695l-2.47 1.005c.953 2.345 1.437 4.903 1.437 7.69h2.667Zm-1.632-8.688c-1.088-2.721-2.637-5.093-4.647-7.103l-1.885 1.885c1.744 1.745 3.097 3.81 4.056 6.209l2.477-.991Zm-4.625-7.082c-1.968-2.059-4.303-3.636-6.99-4.73l-1.005 2.471c2.347.954 4.365 2.321 6.066 4.102l1.928-1.843Zm-6.972-4.722c-2.695-1.142-5.604-1.706-8.713-1.706v2.667c2.78 0 5.332.502 7.672 1.494l1.04-2.455Zm-8.713-1.706c-3.148 0-6.08.563-8.776 1.706l1.04 2.455c2.339-.991 4.912-1.494 7.736-1.494v-2.667Zm-8.758 1.698a20.626 20.626 0 0 0-7.043 4.719l1.907 1.865a17.922 17.922 0 0 1 6.14-4.113l-1.004-2.471Zm-7.043 4.72c-1.963 2.009-3.487 4.378-4.572 7.092l2.476.991c.962-2.406 2.297-4.474 4.003-6.22l-1.907-1.863Zm-4.57 7.085c-1.094 2.69-1.634 5.593-1.634 8.695h2.667c0-2.787.484-5.345 1.438-7.69l-2.47-1.005Zm-1.634 8.695c0 3.142.54 6.085 1.632 8.815l2.476-.991c-.957-2.39-1.441-4.993-1.441-7.824H9.165Zm1.634 8.822a22.313 22.313 0 0 0 4.56 7.075l1.928-1.843a19.633 19.633 0 0 1-4.017-6.237l-2.47 1.005Zm4.58 7.096c2.003 2.003 4.345 3.57 7.015 4.701l1.04-2.455c-2.364-1.002-4.416-2.379-6.169-4.131l-1.885 1.885Zm7.033 4.709c2.692 1.095 5.617 1.634 8.759 1.634v-2.667c-2.832 0-5.411-.485-7.754-1.438l-1.005 2.471Zm45.296 3.693.943-.943-.943.943Zm0-48.576.943.942-.943-.942Zm22.976 1.408-.668 1.153.008.005.007.004.653-1.162Zm5.696 22.464 1.158.661.005-.009-1.163-.652Zm-5.696 5.696.653 1.162.007-.004.008-.005-.668-1.153Zm-18.688 2.048v-1.334h-1.333v1.334h1.333Zm-.704 16.96.943.942-.943-.942Zm.704-21.76h-1.333v1.333h1.333v-1.333Zm16.128-1.408.643 1.168.01-.006.012-.007-.665-1.155Zm3.968-4.032-1.156-.665-.006.011-.006.011 1.168.643Zm0-11.776-1.168.642.006.011.006.011 1.156-.664Zm-3.968-4.032-.665 1.155.665-1.155Zm-16.128-1.472v-1.334h-1.333v1.334h1.333Zm-2.496 43.85c-.408 0-.654-.118-.85-.313l-1.885 1.885c.744.744 1.692 1.095 2.735 1.095v-2.667Zm-.85-.313c-.194-.195-.313-.442-.313-.849h-2.666c0 1.042.35 1.99 1.094 2.734l1.886-1.885Zm-.313-.849v-44.992h-2.666v44.992h2.666Zm0-44.992c0-.408.119-.655.314-.85l-1.886-1.885c-.744.744-1.094 1.692-1.094 2.735h2.666Zm.314-.85c.195-.195.441-.313.849-.313v-2.667c-1.043 0-1.991.351-2.735 1.095l1.886 1.885Zm.849-.313h12.8v-2.667H69.5v2.667Zm12.8 0c2.952 0 5.511.656 7.716 1.932l1.336-2.307c-2.66-1.54-5.69-2.292-9.052-2.292v2.667Zm7.731 1.941a13.296 13.296 0 0 1 5.186 5.186l2.326-1.305a15.95 15.95 0 0 0-6.206-6.206l-1.306 2.325Zm5.186 5.186c1.238 2.205 1.878 4.79 1.878 7.796h2.666c0-3.395-.725-6.442-2.218-9.101l-2.326 1.305Zm1.878 7.796c0 2.913-.637 5.457-1.878 7.667l2.326 1.305c1.49-2.654 2.218-5.656 2.218-8.972h-2.666Zm-1.873 7.658c-1.246 2.18-2.973 3.911-5.206 5.204l1.336 2.307c2.631-1.523 4.7-3.59 6.186-6.188l-2.316-1.323Zm-5.19 5.195c-2.208 1.239-4.773 1.877-7.732 1.877v2.667c3.355 0 6.38-.727 9.037-2.219l-1.306-2.325Zm-7.732 1.877H71.996v2.667H82.3v-2.667Zm-11.637 1.334v15.168h2.666v-15.168h-2.666Zm0 15.168c0 .407-.119.654-.314.849l1.886 1.885c.744-.744 1.094-1.692 1.094-2.734h-2.666Zm-.314.849c-.195.195-.441.313-.849.313V308c1.043 0 1.991-.351 2.735-1.095l-1.886-1.885Zm1.647-19.484H82.3v-2.667H71.996v2.667Zm10.304 0c2.374 0 4.54-.514 6.467-1.573l-1.286-2.337c-1.487.818-3.203 1.243-5.181 1.243v2.667Zm6.489-1.586a11.626 11.626 0 0 0 4.471-4.545l-2.336-1.285a8.968 8.968 0 0 1-3.465 3.519l1.33 2.311Zm4.459-4.523c1.11-1.93 1.65-4.104 1.65-6.488H92.23c0 1.967-.442 3.675-1.295 5.159l2.312 1.329Zm1.65-6.488c0-2.46-.536-4.68-1.65-6.617l-2.312 1.329c.849 1.476 1.295 3.224 1.295 5.288h2.666Zm-1.638-6.595a11.626 11.626 0 0 0-4.471-4.545l-1.33 2.311a8.968 8.968 0 0 1 3.465 3.519l2.336-1.285Zm-4.471-4.545c-1.93-1.11-4.105-1.65-6.489-1.65v2.667c1.968 0 3.676.441 5.16 1.294l1.329-2.311Zm-6.489-1.65H71.996v2.667H82.3v-2.667Zm-11.637 1.334v22.72h2.666v-22.72h-2.666Zm45.065 43.968-.597 1.192.007.003.59-1.195Zm-7.04-6.208-1.129.709.004.007.004.006 1.121-.722Zm-1.792-41.856.942.942-.942-.942Zm3.584 0 .942-.943-.942.943Zm2.56 39.424-1.121.722.005.008.006.009 1.11-.739Zm5.312 4.544-.588 1.197.009.004.01.004.569-1.205Zm15.36 0 .577 1.201.01-.004.009-.005-.596-1.192Zm5.184-4.544-1.11-.74-.006.009-.005.008 1.121.723Zm2.624-39.424-.943-.943.943.943Zm3.584 0-.987.896.021.024.023.022.943-.942Zm-1.856 41.856-1.121-.723-.004.006-.004.007 1.129.71Zm-6.976 6.208-.597-1.193-.007.003.604 1.19Zm-10.176.906c-3.709 0-6.959-.712-9.779-2.102l-1.179 2.391c3.238 1.597 6.901 2.378 10.958 2.378v-2.667Zm-9.772-2.099c-2.787-1.393-4.947-3.306-6.516-5.738l-2.241 1.445c1.844 2.859 4.377 5.085 7.564 6.678l1.193-2.385Zm-6.508-5.725c-1.518-2.414-2.291-5.192-2.291-8.378h-2.667c0 3.64.891 6.92 2.701 9.797l2.257-1.419Zm-2.291-8.378v-30.976h-2.667v30.976h2.667Zm0-30.976c0-.408.118-.655.313-.85l-1.885-1.885c-.744.744-1.095 1.692-1.095 2.735h2.667Zm.313-.85c.195-.195.442-.313.85-.313v-2.667c-1.043 0-1.991.351-2.735 1.095l1.885 1.885Zm.85-.313c.407 0 .654.118.849.313l1.885-1.885c-.744-.744-1.692-1.095-2.734-1.095v2.667Zm.849.313c.195.195.313.442.313.85h2.667c0-1.043-.351-1.991-1.095-2.735l-1.885 1.885Zm.313.85v30.976h2.667v-30.976h-2.667Zm0 30.976c0 2.746.679 5.221 2.069 7.378l2.241-1.445c-1.084-1.683-1.643-3.645-1.643-5.933h-2.667Zm2.08 7.395c1.423 2.134 3.381 3.798 5.834 5.002l1.175-2.395c-2.07-1.015-3.652-2.38-4.79-4.086l-2.219 1.479Zm5.853 5.01c2.465 1.163 5.246 1.728 8.313 1.728v-2.667c-2.737 0-5.119-.502-7.176-1.472l-1.137 2.411Zm8.313 1.728c3.026 0 5.767-.566 8.193-1.732l-1.155-2.403c-2.012.967-4.348 1.468-7.038 1.468v2.667Zm8.212-1.741c2.413-1.207 4.33-2.876 5.708-5.014l-2.241-1.445c-1.097 1.702-2.636 3.062-4.66 4.074l1.193 2.385Zm5.697-4.997c1.439-2.159 2.144-4.64 2.144-7.395h-2.667c0 2.279-.575 4.235-1.696 5.916l2.219 1.479Zm2.144-7.395v-30.976h-2.667v30.976h2.667Zm0-30.976c0-.408.118-.655.313-.85l-1.885-1.885c-.744.744-1.095 1.692-1.095 2.735h2.667Zm.313-.85c.195-.195.442-.313.85-.313v-2.667c-1.043 0-1.991.351-2.735 1.095l1.885 1.885Zm.85-.313c.478 0 .683.134.805.267l1.973-1.793c-.732-.805-1.721-1.141-2.778-1.141v2.667Zm.849.313c.195.195.313.442.313.85h2.667c0-1.043-.351-1.991-1.095-2.735l-1.885 1.885Zm.313.85v30.976h2.667v-30.976h-2.667Zm0 30.976c0 3.179-.791 5.953-2.347 8.365l2.241 1.445c1.857-2.879 2.773-6.163 2.773-9.81h-2.667Zm-2.355 8.378c-1.525 2.424-3.66 4.333-6.444 5.725l1.193 2.385c3.189-1.595 5.705-3.824 7.508-6.691l-2.257-1.419Zm-6.451 5.728c-2.728 1.385-5.908 2.096-9.572 2.096v2.667c4.015 0 7.619-.782 10.779-2.384l-1.207-2.379Zm30.705 1.894-.443 1.257.014.005.014.005.415-1.267Zm-6.016-3.392-.864 1.015.864-1.015Zm-3.904-5.056 1.208-.564-.007-.017-.008-.016-1.193.597Zm-.064-1.856-1.158-.662-.008.015-.008.014 1.174.633Zm1.664-1.216.357 1.284.009-.002-.366-1.282Zm1.728.192-.632 1.173.018.01.018.009.596-1.192Zm1.344 1.344-1.193.596.005.008.004.008 1.184-.612Zm7.232 5.632-.412 1.268.014.004.015.005.383-1.277Zm11.648-.32.511 1.231.012-.005.013-.006-.536-1.22Zm4.096-3.264-1.089-.769-.005.006 1.094.763Zm-1.344-11.968.932-.954-.932.954Zm-9.024-3.584.165-1.324h-.007l-.158 1.324Zm-11.712-4.608-.889.994.009.007.88-1.001Zm-2.176-16-1.075-.789-.006.008-.006.008 1.087.773Zm5.76-4.416.517 1.228.01-.003.009-.004-.536-1.221Zm14.784-.449-.495 1.238.012.005.012.005.471-1.248Zm4.992 2.945-.88 1.001.016.014.016.014.848-1.029Zm3.52 3.968-1.134.7.003.006 1.131-.706Zm.384 1.984-1.288-.344-.011.041-.008.041 1.307.262Zm-1.088 1.472.564 1.208.05-.024.048-.027-.662-1.157Zm-1.984.128-.422 1.264.012.004.012.004.398-1.272Zm-1.472-1.216 1.158-.662-.02-.034-.021-.033-1.117.729Zm-2.432-2.752-.921.964.023.021.023.021.875-1.006Zm-3.456-2.112.468-1.249-.468 1.249Zm-4.928-.832.03-1.334h-.03v1.334Zm-8.128 2.176.755 1.098.008-.005.008-.005-.771-1.088Zm-1.92 10.24-1.133.703.006.009.005.009 1.122-.721Zm3.776 3.136-.608 1.186.017.009.018.008.573-1.203Zm7.168 1.92.19-1.32h-.001l-.189 1.32Zm11.84 4.928-.935.95.008.008.008.008.919-.966Zm2.624 15.872-1.204-.574-.005.012-.006.012 1.215.55Zm-3.52 4.544.833 1.041.003-.003-.836-1.038Zm-5.312 2.752-.398-1.273-.007.002.405 1.271Zm-6.464-.374c-2.605 0-5.002-.366-7.201-1.086l-.83 2.535c2.494.816 5.174 1.218 8.031 1.218v-2.667Zm-7.173-1.076c-2.164-.762-4.024-1.815-5.595-3.15l-1.728 2.031c1.842 1.566 3.993 2.774 6.437 3.634l.886-2.515Zm-5.595-3.15c-1.57-1.334-2.749-2.868-3.56-4.604l-2.416 1.127c.981 2.104 2.404 3.941 4.248 5.508l1.728-2.031Zm-3.575-4.637c-.194-.387-.131-.538-.083-.627l-2.348-1.265c-.549 1.02-.443 2.107.045 3.085l2.386-1.193Zm-.099-.598c.139-.244.375-.457.863-.593l-.714-2.569c-1.048.291-1.921.888-2.465 1.839l2.316 1.323Zm.872-.595a.9.9 0 0 1 .73.083l1.264-2.347a3.56 3.56 0 0 0-2.726-.301l.732 2.565Zm.766.102c.339.17.578.408.747.748l2.386-1.193a4.266 4.266 0 0 0-1.941-1.94l-1.192 2.385Zm.756.764c.737 1.426 1.806 2.677 3.171 3.76l1.658-2.089c-1.11-.88-1.918-1.847-2.461-2.896l-2.368 1.225Zm3.171 3.76c1.378 1.093 2.996 1.93 4.833 2.528l.824-2.537c-1.576-.512-2.902-1.21-3.999-2.08l-1.658 2.089Zm4.862 2.537c1.848.554 3.856.824 6.015.824v-2.667c-1.937 0-3.683-.242-5.249-.712l-.766 2.555Zm6.015.824c2.403 0 4.587-.386 6.527-1.19l-1.022-2.463c-1.559.646-3.386.986-5.505.986v2.667Zm6.552-1.201c1.948-.855 3.517-2.091 4.654-3.722l-2.188-1.525c-.825 1.185-1.987 2.125-3.538 2.806l1.072 2.441Zm4.649-3.716c1.207-1.708 1.78-3.737 1.78-6.016h-2.666c0 1.816-.451 3.286-1.292 4.479l2.178 1.537Zm1.78-6.016c0-2.975-1.113-5.555-3.281-7.674l-1.864 1.907c1.672 1.635 2.479 3.535 2.479 5.767h2.666Zm-3.281-7.674c-2.214-2.164-5.552-3.424-9.791-3.954l-.33 2.647c3.953.494 6.631 1.624 8.257 3.214l1.864-1.907Zm-9.798-3.954c-4.814-.576-8.435-2.041-10.99-4.286l-1.76 2.003c3.077 2.704 7.264 4.312 12.434 4.93l.316-2.647Zm-10.981-4.279c-2.547-2.276-3.78-4.992-3.78-8.221h-2.666c0 4.023 1.583 7.451 4.668 10.21l1.778-1.989Zm-3.78-8.221c0-2.357.614-4.341 1.802-6.012l-2.174-1.545c-1.542 2.169-2.294 4.707-2.294 7.557h2.666Zm1.79-5.996c1.25-1.705 2.968-3.035 5.202-3.976l-1.034-2.457c-2.63 1.107-4.752 2.721-6.318 4.856l2.15 1.577Zm5.221-3.983c2.234-.98 4.841-1.488 7.848-1.488v-2.667c-3.307 0-6.29.559-8.92 1.712l1.072 2.443Zm7.848-1.488c2.2 0 4.162.359 5.905 1.056l.99-2.475c-2.097-.839-4.401-1.248-6.895-1.248v2.667Zm5.929 1.066c1.784.674 3.306 1.576 4.583 2.698l1.76-2.003c-1.539-1.353-3.345-2.413-5.401-3.19l-.942 2.495Zm4.615 2.726c1.35 1.111 2.422 2.325 3.234 3.639l2.268-1.401c-.98-1.587-2.254-3.018-3.806-4.297l-1.696 2.059Zm3.237 3.645c.277.442.282.726.227.934l2.576.687c.286-1.072.036-2.111-.541-3.034l-2.262 1.413Zm.208 1.016c-.048.239-.159.414-.443.576l1.324 2.315c.911-.521 1.525-1.327 1.733-2.368l-2.614-.523Zm-.345.525a1.333 1.333 0 0 1-1.022.064l-.796 2.545c.996.311 2 .249 2.946-.192l-1.128-2.417Zm-.998.072a1.262 1.262 0 0 1-.736-.613l-2.316 1.323c.501.876 1.25 1.5 2.208 1.819l.844-2.529Zm-.777-.68c-.715-1.095-1.61-2.104-2.674-3.03l-1.75 2.013c.898.781 1.625 1.607 2.19 2.474l2.234-1.457Zm-2.628-2.988c-1.084-1.035-2.396-1.829-3.909-2.396l-.936 2.497c1.218.457 2.21 1.071 3.003 1.828l1.842-1.929Zm-3.909-2.396c-1.542-.578-3.341-.871-5.366-.917l-.06 2.667c1.815.04 3.301.301 4.49.747l.936-2.497Zm-5.396-.917c-3.554 0-6.56.765-8.899 2.421l1.542 2.177c1.757-1.245 4.169-1.931 7.357-1.931v-2.667Zm-8.883 2.411c-2.45 1.684-3.65 4.188-3.65 7.307h2.666c0-2.343.848-3.978 2.494-5.11l-1.51-2.197Zm-3.65 7.307c0 1.7.454 3.287 1.352 4.735l2.266-1.407a6.164 6.164 0 0 1-.952-3.328h-2.666Zm1.363 4.753c.935 1.454 2.408 2.637 4.29 3.601l1.216-2.373c-1.617-.828-2.661-1.735-3.262-2.671l-2.244 1.443Zm4.325 3.618c1.959.933 4.494 1.6 7.552 2.036l.378-2.639c-2.915-.417-5.159-1.031-6.784-1.804l-1.146 2.407Zm7.551 2.036c5.186.747 8.816 2.318 11.095 4.559l1.87-1.901c-2.841-2.794-7.104-4.508-12.585-5.297l-.38 2.639Zm11.111 4.575c2.306 2.192 3.49 5.069 3.49 8.762h2.666c0-4.329-1.419-7.938-4.318-10.695l-1.838 1.933Zm3.49 8.762c0 2.137-.395 3.984-1.151 5.57l2.408 1.147c.951-1.998 1.409-4.247 1.409-6.717h-2.666Zm-1.162 5.594a10.905 10.905 0 0 1-3.141 4.055l1.672 2.077a13.558 13.558 0 0 0 3.899-5.033l-2.43-1.099Zm-3.138 4.052c-1.349 1.08-2.968 1.924-4.877 2.521l.796 2.545c2.187-.683 4.109-1.673 5.747-2.983l-1.666-2.083Zm-4.884 2.523c-1.863.595-3.88.897-6.059.897v2.667c2.429 0 4.721-.338 6.869-1.023l-.81-2.541Zm40.41.887-.943.942.021.021.021.019.901-.982Zm0-48.512-.943-.943.943.943Zm3.52 0-.983.9.039.043.043.039.901-.982Zm.768 44.48h-1.333v1.333h1.333v-1.333Zm26.752.704-.943.942.043.043.046.039.854-1.024Zm0 3.392.897.986.004-.004-.901-.982Zm-29.248-.694c-.343 0-.62-.105-.891-.353l-1.802 1.965A3.898 3.898 0 0 0 222.25 308v-2.667Zm-.849-.313c-.195-.195-.314-.442-.314-.849h-2.666c0 1.042.35 1.99 1.094 2.734l1.886-1.885Zm-.314-.849v-44.992h-2.666v44.992h2.666Zm0-44.992c0-.341.102-.574.314-.786l-1.886-1.885c-.727.727-1.094 1.645-1.094 2.671h2.666Zm.314-.786c.279-.278.543-.377.849-.377v-2.667c-1.059 0-1.99.413-2.735 1.159l1.886 1.885Zm.849-.377c.302 0 .523.094.745.335l1.966-1.801c-.717-.783-1.647-1.201-2.711-1.201v2.667Zm.827.417c.242.222.336.444.336.746h2.666c0-1.064-.418-1.994-1.2-2.711l-1.802 1.965Zm.336.746v42.752h2.666v-42.752h-2.666Zm1.333 44.085h25.024v-2.667h-25.024v2.667Zm25.024 0c.34 0 .574.102.785.313l1.886-1.885c-.727-.728-1.646-1.095-2.671-1.095v2.667Zm.874.395c.2.166.289.341.289.64h2.666c0-1.068-.423-2.002-1.247-2.689l-1.708 2.049Zm.289.64c0 .301-.094.523-.336.745l1.802 1.965a3.583 3.583 0 0 0 1.2-2.71h-2.666Zm-.332.741c-.204.186-.452.293-.831.293V308c.987 0 1.89-.319 2.625-.987l-1.794-1.973Zm-.831.293h-27.52V308h27.52v-2.667Zm5.62.118-1.18.62 1.18-.62Zm-.128-2.368 1.218.541.006-.012.005-.012-1.229-.517Zm18.816-44.672 1.229.517.003-.007.003-.007-1.235-.503Zm4.8 0-1.235.503.003.007.004.008 1.228-.518Zm18.88 44.736-1.228.518.011.026.012.026 1.205-.57Zm-.192 2.368-1.109-.74-.015.022-.014.022 1.138.696Zm-3.456.768-.74 1.109.027.018.027.016.686-1.143Zm-.96-1.152-1.233.508.019.044.021.044 1.193-.596Zm-17.6-42.688v-1.334h-1.992l.759 1.842 1.233-.508Zm1.984 0 1.231.511.766-1.845h-1.997v1.334Zm-17.728 42.688 1.231.512v-.001l-1.231-.511Zm-.96 1.152-.686-1.144-.027.017-.027.017.74 1.11Zm2.88-11.52-1.217-.545-.841 1.878h2.058v-1.333Zm1.92-4.288v-1.334h-.864l-.353.789 1.217.545Zm25.984 0 1.217-.545-.353-.789h-.864v1.334Zm1.92 4.288v1.333h2.058l-.841-1.878-1.217.545Zm-34.048 10.57c-.306 0-.487-.062-.599-.126-.106-.061-.222-.166-.333-.377l-2.36 1.241c.316.6.765 1.103 1.363 1.447.592.341 1.253.482 1.929.482v-2.667Zm-.932-.503c-.256-.487-.249-.848-.09-1.206l-2.436-1.083c-.524 1.178-.431 2.396.166 3.53l2.36-1.241Zm-.079-1.23 18.816-44.672-2.458-1.035-18.816 44.672 2.458 1.035Zm18.822-44.686c.163-.4.345-.604.497-.713.146-.103.355-.185.7-.185v-2.667c-.807 0-1.579.206-2.244.679-.658.467-1.116 1.127-1.423 1.879l2.47 1.007Zm1.197-.898c.312 0 .502.076.638.176.147.107.329.313.495.722l2.47-1.007c-.303-.743-.751-1.401-1.393-1.87-.653-.476-1.413-.688-2.21-.688v2.667Zm1.14.913 18.88 44.736 2.456-1.037-18.88-44.736-2.456 1.037Zm18.903 44.788c.177.373.165.666-.096 1.058l2.218 1.479c.763-1.144.88-2.43.288-3.678l-2.41 1.141Zm-.125 1.102c-.228.374-.481.514-.91.514V308c1.363 0 2.476-.628 3.186-1.79l-2.276-1.391Zm-.91.514c-.278 0-.509-.066-.722-.194l-1.372 2.287a4.02 4.02 0 0 0 2.094.574v-2.667Zm-.668-.16c-.15-.1-.331-.285-.507-.639l-2.386 1.193c.336.67.795 1.253 1.413 1.665l1.48-2.219Zm-.467-.551-17.6-42.688-2.466 1.017 17.6 42.688 2.466-1.017Zm-18.833-40.846h1.984v-2.667h-1.984v2.667Zm.753-1.845-17.728 42.688 2.462 1.023 17.728-42.688-2.462-1.023Zm-17.728 42.687c-.117.28-.26.428-.415.521l1.372 2.287c.699-.419 1.195-1.039 1.505-1.783l-2.462-1.025Zm-.469.555c-.141.094-.325.16-.604.16V308c.745 0 1.457-.19 2.084-.608l-1.48-2.219Zm4.837-9.866 1.92-4.288-2.434-1.089-1.92 4.288 2.434 1.089Zm.703-3.499h25.984v-2.667h-25.984v2.667Zm24.767-.789 1.92 4.288 2.434-1.089-1.92-4.288-2.434 1.089Zm3.137 2.41h-29.824v2.667h29.824v-2.667Zm21.123 12.534-.983.9.039.043.043.039.901-.982Zm-.704-17.792h1.333v-.386l-.205-.326-1.128.712Zm-17.408-27.584 1.128-.712-.009-.014-.01-.014-1.109.74Zm-.512-1.856-1.304-.28-.009.045-.007.046 1.32.189Zm.832-1.472.892.991-.892-.991Zm2.816-.256-.775 1.084.033.024.035.022.707-1.13Zm.896.896 1.133-.704-.012-.018-.012-.018-1.109.74Zm17.28 27.84v1.333h2.397l-1.264-2.037-1.133.704Zm-2.688 0-1.133-.704-1.265 2.037h2.398v-1.333Zm17.216-27.712-1.125-.716-.004.006-.004.006 1.133.704Zm.96-1.024-.648-1.166-.03.017-.029.018.707 1.131Zm2.816.32-.991.891.047.053.052.047.892-.991Zm.704 1.472-1.33.094.003.047.007.047 1.32-.188Zm-.448 1.792-1.122-.722-.004.008 1.126.714Zm-17.472 27.584-1.126-.714-.207.327v.387h1.333Zm-.768 17.792.943.942-.943-.942Zm-1.728-.63c-.343 0-.62-.105-.891-.353l-1.802 1.965a3.898 3.898 0 0 0 2.693 1.055v-2.667Zm-.809-.271a1.241 1.241 0 0 1-.354-.891h-2.666a3.9 3.9 0 0 0 1.054 2.692l1.966-1.801Zm-.354-.891v-16h-2.666v16h2.666Zm-.205-16.712-17.408-27.584-2.256 1.423 17.408 27.584 2.256-1.423Zm-17.427-27.612c-.296-.445-.328-.737-.301-.928l-2.64-.377c-.143 1.004.166 1.949.723 2.784l2.218-1.479Zm-.317-.837c.073-.341.216-.577.42-.76l-1.784-1.983a4.018 4.018 0 0 0-1.244 2.184l2.608.559Zm.42-.76c.153-.138.357-.234.708-.234v-2.667c-.929 0-1.792.288-2.492.918l1.784 1.983Zm.708-.234c.166 0 .278.017.349.036a.317.317 0 0 1 .092.035l1.55-2.169c-.598-.428-1.308-.569-1.991-.569v2.667Zm.509.117c.159.1.327.256.494.505l2.218-1.479a4.305 4.305 0 0 0-1.298-1.287l-1.414 2.261Zm.47.469 17.28 27.84 2.266-1.407-17.28-27.84-2.266 1.407Zm18.413 25.803h-2.688v2.667h2.688v-2.667Zm-1.555 2.037 17.216-27.712-2.266-1.407-17.216 27.712 2.266 1.407Zm17.208-27.7c.23-.362.421-.533.542-.609l-1.414-2.261c-.561.351-1.011.862-1.378 1.439l2.25 1.431Zm.483-.574c.155-.086.373-.152.696-.152v-2.667c-.701 0-1.379.148-1.992.488l1.296 2.331Zm.696-.152c.237 0 .361.065.481.198l1.982-1.783c-.648-.721-1.505-1.082-2.463-1.082v2.667Zm.58.298c.158.142.247.306.266.575l2.66-.189c-.066-.925-.447-1.743-1.142-2.369l-1.784 1.983Zm.276.669c.032.226-.007.504-.25.882l2.244 1.443c.525-.817.784-1.733.646-2.702l-2.64.377Zm-.254.89-17.472 27.584 2.252 1.427 17.472-27.584-2.252-1.427Zm-17.679 28.298v16h2.666v-16h-2.666Zm0 16c0 .305-.099.57-.378.849l1.886 1.885c.745-.745 1.158-1.675 1.158-2.734h-2.666Zm-.378.849c-.211.211-.445.313-.785.313V308c1.025 0 1.944-.367 2.671-1.095l-1.886-1.885Zm27.083.943.943-.943-.943.943Zm0-48.576.943.942-.943-.942Zm33.536 0-.943.942.043.043.046.039.854-1.024Zm0 3.392-.901-.983-.021.019-.021.021.943.943Zm-29.248.704v-1.334h-1.333v1.334h1.333Zm0 17.664h-1.333v1.333h1.333v-1.333Zm21.824.704.943-.943-.943.943Zm0 3.456.943.942-.943-.942Zm-21.824.704v-1.334h-1.333v1.334h1.333Zm0 17.856h-1.333v1.333h1.333v-1.333Zm29.248.704-.943.942.021.021.021.019.901-.982Zm0 3.456.897.986.004-.004-.901-.982Zm-31.744-.694c-.408 0-.654-.118-.849-.313l-1.886 1.885c.744.744 1.692 1.095 2.735 1.095v-2.667Zm-.849-.313c-.195-.195-.314-.442-.314-.849h-2.666c0 1.042.35 1.99 1.094 2.734l1.886-1.885Zm-.314-.849v-44.992h-2.666v44.992h2.666Zm0-44.992c0-.408.119-.655.314-.85l-1.886-1.885c-.744.744-1.094 1.692-1.094 2.735h2.666Zm.314-.85c.195-.195.441-.313.849-.313v-2.667c-1.043 0-1.991.351-2.735 1.095l1.886 1.885Zm.849-.313h30.016v-2.667h-30.016v2.667Zm30.016 0c.34 0 .574.102.785.313l1.886-1.885c-.727-.728-1.646-1.095-2.671-1.095v2.667Zm.874.395c.179.149.289.334.289.704h2.666c0-1.082-.402-2.048-1.247-2.753l-1.708 2.049Zm.289.704c0 .232-.073.44-.336.681l1.802 1.965c.761-.697 1.2-1.599 1.2-2.646h-2.666Zm-.378.721c-.211.211-.445.313-.785.313v2.667c1.025 0 1.944-.367 2.671-1.095l-1.886-1.885Zm-.785.313h-27.52v2.667h27.52v-2.667Zm-28.853 1.334v17.664h2.666v-17.664h-2.666Zm1.333 18.997h20.032v-2.667h-20.032v2.667Zm20.032 0c.408 0 .654.118.849.313l1.886-1.885c-.744-.744-1.692-1.095-2.735-1.095v2.667Zm.849.313c.212.212.314.445.314.786h2.666c0-1.026-.367-1.944-1.094-2.671l-1.886 1.885Zm.314.786c0 .34-.102.573-.314.785l1.886 1.885c.727-.727 1.094-1.645 1.094-2.67h-2.666Zm-.314.785c-.195.195-.441.313-.849.313v2.667c1.043 0 1.991-.351 2.735-1.095l-1.886-1.885Zm-.849.313h-20.032v2.667h20.032v-2.667Zm-21.365 1.334v17.856h2.666v-17.856h-2.666Zm1.333 19.189h27.52v-2.667h-27.52v2.667Zm27.52 0c.34 0 .574.102.785.313l1.886-1.885c-.727-.728-1.646-1.095-2.671-1.095v2.667Zm.827.353c.263.241.336.449.336.682h2.666c0-1.048-.439-1.95-1.2-2.647l-1.802 1.965Zm.336.682c0 .37-.113.604-.336.809l1.802 1.965c.801-.734 1.2-1.694 1.2-2.774h-2.666Zm-.332.805c-.204.186-.452.293-.831.293V308c.987 0 1.89-.319 2.625-.987l-1.794-1.973Zm-.831.293h-30.016V308h30.016v-2.667Zm12.505.63.942-.943-.942.943Zm0-48.576.942.942-.942-.942Zm22.08 1.28-.638 1.171.008.004.009.004.621-1.179Zm5.696 5.44-1.153.67.007.012.008.013 1.138-.695Zm0 15.744-1.132-.705-.005.008-.005.007 1.142.69Zm-5.696 5.312.621 1.179-.621-1.179Zm-17.792 1.92v-1.334H389.6v1.334h1.334Zm-.704 18.88.942.942-.942-.942Zm23.616.384-.775 1.084.033.024.035.022.707-1.13Zm-.832-.96 1.143-.686-.007-.012-.007-.011-1.129.709Zm-12.288-19.584-.332-1.292-1.768.453.97 1.547 1.13-.708Zm4.992-1.28 1.13-.708-.517-.826-.945.242.332 1.292Zm11.456 18.304 1.13-.707v-.001l-1.13.708Zm.32 2.688-1.166-.648-.014.025-.013.026 1.193.597Zm-26.56-23.232H389.6v1.333h1.334v-1.333Zm15.232-1.28.608 1.186.011-.006-.619-1.18Zm4.032-3.648-1.124-.718 1.124.718Zm0-10.752-1.141.69.004.007.004.006 1.133-.703Zm-4.032-3.777-.633 1.175.013.006.62-1.181Zm-15.232-1.343v-1.334H389.6v1.334h1.334Zm-2.496 43.85c-.408 0-.655-.118-.85-.313l-1.885 1.885c.744.744 1.692 1.095 2.735 1.095v-2.667Zm-.85-.313c-.195-.195-.313-.442-.313-.849h-2.667c0 1.042.351 1.99 1.095 2.734l1.885-1.885Zm-.313-.849v-44.992h-2.667v44.992h2.667Zm0-44.992c0-.408.118-.655.313-.85l-1.885-1.885c-.744.744-1.095 1.692-1.095 2.735h2.667Zm.313-.85c.195-.195.442-.313.85-.313v-2.667c-1.043 0-1.991.351-2.735 1.095l1.885 1.885Zm.85-.313h11.968v-2.667h-11.968v2.667Zm11.968 0c2.92 0 5.469.618 7.682 1.822l1.275-2.343c-2.651-1.442-5.649-2.146-8.957-2.146v2.667Zm7.699 1.83c2.213 1.165 3.926 2.803 5.164 4.931l2.305-1.341c-1.493-2.566-3.577-4.554-6.227-5.949l-1.242 2.359Zm5.179 4.956c1.265 2.07 1.916 4.49 1.916 7.305h2.667c0-3.244-.757-6.158-2.308-8.696l-2.275 1.391Zm1.916 7.305c0 2.675-.646 5.008-1.91 7.039l2.263 1.409c1.552-2.491 2.314-5.321 2.314-8.448H415.2Zm-1.92 7.054c-1.235 2.045-2.949 3.65-5.175 4.822l1.242 2.359c2.637-1.388 4.72-3.324 6.216-5.802l-2.283-1.379Zm-5.175 4.822c-2.217 1.166-4.772 1.766-7.699 1.766v2.667c3.301 0 6.293-.68 8.941-2.074l-1.242-2.359Zm-7.699 1.766h-9.472v2.667h9.472v-2.667Zm-10.806 1.334v17.088h2.667v-17.088H389.6Zm0 17.088c0 .407-.118.654-.313.849l1.885 1.885c.744-.744 1.095-1.692 1.095-2.734H389.6Zm-.313.849c-.195.195-.442.313-.849.313V308c1.042 0 1.99-.351 2.734-1.095l-1.885-1.885Zm25.903.313c-.396 0-.574-.077-.638-.117l-1.413 2.261c.619.387 1.337.523 2.051.523v-2.667Zm-.57-.071c-.106-.077-.27-.239-.463-.561l-2.287 1.372c.319.53.71 1.008 1.201 1.358l1.549-2.169Zm-.477-.584-12.288-19.584-2.259 1.417 12.288 19.584 2.259-1.417Zm-13.086-17.584 4.992-1.28-.663-2.583-4.992 1.28.663 2.583Zm3.53-1.864 11.456 18.304 2.261-1.415-11.456-18.304-2.261 1.415Zm11.456 18.303c.492.788.39 1.144.285 1.334l2.331 1.295c.748-1.346.433-2.782-.355-4.042l-2.261 1.413Zm.258 1.385c-.08.161-.263.415-1.111.415V308c1.455 0 2.808-.514 3.496-1.889l-2.385-1.193Zm-25.367-21.302h9.472v-2.667h-9.472v2.667Zm9.472 0c2.352 0 4.487-.463 6.368-1.427l-1.217-2.373c-1.447.742-3.152 1.133-5.151 1.133v2.667Zm6.379-1.433c1.9-.997 3.423-2.368 4.536-4.111l-2.247-1.435c-.849 1.329-2.015 2.39-3.528 3.185l1.239 2.361Zm4.536-4.111c1.129-1.767 1.682-3.769 1.682-5.965h-2.667c0 1.728-.428 3.225-1.262 4.53l2.247 1.435Zm1.682-5.965c0-2.308-.545-4.393-1.673-6.208l-2.265 1.407c.834 1.342 1.271 2.927 1.271 4.801h2.667Zm-1.665-6.195c-1.109-1.833-2.635-3.259-4.553-4.266l-1.239 2.361c1.495.785 2.658 1.876 3.511 3.286l2.281-1.381Zm-4.54-4.259c-1.886-1.016-4.03-1.504-6.392-1.504v2.667c1.989 0 3.685.408 5.127 1.184l1.265-2.347Zm-6.392-1.504h-9.472v2.667h9.472v-2.667Zm-10.806 1.334v20.8h2.667v-20.8H389.6Zm49.79 43.968-1.18.62 1.18-.62Zm-.128-2.368 1.218.541.006-.012.005-.012-1.229-.517Zm18.816-44.672 1.229.517.003-.007.003-.007-1.235-.503Zm4.8 0-1.235.503.003.007.004.008 1.228-.518Zm18.88 44.736-1.228.518.011.026.012.026 1.205-.57Zm-.192 2.368-1.109-.74-.015.022-.014.022 1.138.696Zm-3.456.768-.74 1.109.027.018.027.016.686-1.143Zm-.96-1.152-1.233.508.019.044.021.044 1.193-.596Zm-17.6-42.688v-1.334h-1.992l.759 1.842 1.233-.508Zm1.984 0 1.231.511.766-1.845h-1.997v1.334Zm-17.728 42.688 1.231.512v-.001l-1.231-.511Zm-.96 1.152-.686-1.144-.027.017-.027.017.74 1.11Zm2.88-11.52-1.217-.545-.841 1.878h2.058v-1.333Zm1.92-4.288v-1.334h-.864l-.353.789 1.217.545Zm25.984 0 1.217-.545-.353-.789h-.864v1.334Zm1.92 4.288v1.333h2.058l-.841-1.878-1.217.545Zm-34.048 10.57c-.306 0-.487-.062-.599-.126-.106-.061-.222-.166-.333-.377l-2.36 1.241c.316.6.765 1.103 1.363 1.447.592.341 1.253.482 1.929.482v-2.667Zm-.932-.503c-.256-.487-.249-.848-.09-1.206l-2.436-1.083c-.524 1.178-.431 2.396.166 3.53l2.36-1.241Zm-.079-1.23 18.816-44.672-2.458-1.035-18.816 44.672 2.458 1.035Zm18.822-44.686c.163-.4.345-.604.497-.713.146-.103.355-.185.7-.185v-2.667c-.807 0-1.579.206-2.244.679-.658.467-1.116 1.127-1.423 1.879l2.47 1.007Zm1.197-.898c.312 0 .502.076.638.176.147.107.329.313.495.722l2.47-1.007c-.303-.743-.751-1.401-1.393-1.87-.653-.476-1.413-.688-2.21-.688v2.667Zm1.14.913 18.88 44.736 2.456-1.037-18.88-44.736-2.456 1.037Zm18.903 44.788c.177.373.165.666-.096 1.058l2.218 1.479c.763-1.144.88-2.43.288-3.678l-2.41 1.141Zm-.125 1.102c-.228.374-.481.514-.91.514V308c1.363 0 2.476-.628 3.186-1.79l-2.276-1.391Zm-.91.514c-.278 0-.509-.066-.722-.194l-1.372 2.287a4.02 4.02 0 0 0 2.094.574v-2.667Zm-.668-.16c-.15-.1-.331-.285-.507-.639l-2.386 1.193c.336.67.795 1.253 1.413 1.665l1.48-2.219Zm-.467-.551-17.6-42.688-2.466 1.017 17.6 42.688 2.466-1.017Zm-18.833-40.846h1.984v-2.667h-1.984v2.667Zm.753-1.845-17.728 42.688 2.462 1.023 17.728-42.688-2.462-1.023Zm-17.728 42.687c-.117.28-.26.428-.415.521l1.372 2.287c.699-.419 1.195-1.039 1.505-1.783l-2.462-1.025Zm-.469.555c-.141.094-.325.16-.604.16V308c.745 0 1.457-.19 2.084-.608l-1.48-2.219Zm4.837-9.866 1.92-4.288-2.434-1.089-1.92 4.288 2.434 1.089Zm.703-3.499h25.984v-2.667h-25.984v2.667Zm24.767-.789 1.92 4.288 2.434-1.089-1.92-4.288-2.434 1.089Zm3.137 2.41h-29.824v2.667h29.824v-2.667Zm14.408 12.534.943-.943-.943.943Zm0-48.576.943.942-.943-.942Zm3.584 0 .943-.943-.943.943Zm0 48.576.943.942-.943-.942Zm-1.792-.63c-.408 0-.654-.118-.849-.313l-1.886 1.885c.744.744 1.692 1.095 2.735 1.095v-2.667Zm-.849-.313c-.195-.195-.314-.442-.314-.849h-2.666c0 1.042.35 1.99 1.094 2.734l1.886-1.885Zm-.314-.849v-44.992h-2.666v44.992h2.666Zm0-44.992c0-.408.119-.655.314-.85l-1.886-1.885c-.744.744-1.094 1.692-1.094 2.735h2.666Zm.314-.85c.195-.195.441-.313.849-.313v-2.667c-1.043 0-1.991.351-2.735 1.095l1.886 1.885Zm.849-.313c.408 0 .654.118.849.313l1.886-1.885c-.744-.744-1.692-1.095-2.735-1.095v2.667Zm.849.313c.195.195.314.442.314.85h2.666c0-1.043-.35-1.991-1.094-2.735l-1.886 1.885Zm.314.85v44.992h2.666v-44.992h-2.666Zm0 44.992c0 .407-.119.654-.314.849l1.886 1.885c.744-.744 1.094-1.692 1.094-2.734h-2.666Zm-.314.849c-.195.195-.441.313-.849.313V308c1.043 0 1.991-.351 2.735-1.095l-1.886-1.885Z" fill="#000" mask="url(#c)"/></g><defs><linearGradient id="b" x1="76.328" y1="266.417" x2="430.399" y2="356.814" gradientUnits="userSpaceOnUse"><stop stop-color="#fff"/><stop offset="1" stop-color="#fff"/></linearGradient><filter id="a" x=".301" y="256.042" width="499.278" height="62.315" filterUnits="userSpaceOnUse" color-interpolation-filters="sRGB"><feFlood flood-opacity="0" result="BackgroundImageFix"/><feColorMatrix in="SourceAlpha" values="0 0 0 0 0 0 0 0 0 0 0 0 0 0 0 0 0 0 127 0" result="hardAlpha"/><feOffset dy="5.333"/><feGaussianBlur stdDeviation="2.667"/><feComposite in2="hardAlpha" operator="out"/><feColorMatrix values="0 0 0 0 0 0 0 0 0 0 0 0 0 0 0 0 0 0 0.25 0"/><feBlend in2="BackgroundImageFix" result="effect1_dropShadow_14_659"/><feBlend in="SourceGraphic" in2="effect1_dropShadow_14_659" result="shape"/></filter></defs></svg>