<svg width="422" height="258" fill="none" xmlns="http://www.w3.org/2000/svg"><circle cx="211" cy="130.777" r="66.612" fill="#14181B" fill-opacity=".6"/><circle cx="211" cy="130.777" r="65.946" stroke="#2F2D30" stroke-opacity=".3" stroke-width="1.332"/><g filter="url(#a)"><circle cx="368.204" cy="26.862" r="26.645" fill="#0166FF" fill-opacity=".05"/><circle cx="368.204" cy="26.862" r="25.979" stroke="url(#b)" stroke-width="1.332"/></g><g filter="url(#c)" transform="rotate(-180 53.796 230.694)"><circle cx="53.796" cy="230.694" r="26.645" fill="#0166FF" fill-opacity=".05"/><circle cx="53.796" cy="230.694" r="25.979" stroke="url(#d)" stroke-width="1.332"/></g><g filter="url(#e)"><circle cx="368.204" cy="230.694" r="26.645" fill="#D8BF40" fill-opacity=".05"/><circle cx="368.204" cy="230.694" r="25.979" stroke="url(#f)" stroke-width="1.332"/></g><g filter="url(#g)" transform="rotate(-180 53.796 26.862)"><circle cx="53.796" cy="26.862" r="26.645" fill="#8069DF" fill-opacity=".05"/><circle cx="53.796" cy="26.862" r="25.979" stroke="url(#h)" stroke-width="1.332"/></g><g filter="url(#i)"><circle cx="394.849" cy="128.112" r="26.645" fill="#19E183" fill-opacity=".05"/><circle cx="394.849" cy="128.112" r="25.979" stroke="url(#j)" stroke-width="1.332"/></g><g filter="url(#k)" transform="rotate(-180 27.151 129.444)"><circle cx="27.151" cy="129.444" r="26.645" fill="#D8BF40" fill-opacity=".05"/><circle cx="27.151" cy="129.444" r="25.979" stroke="url(#l)" stroke-width="1.332"/></g><path stroke="url(#m)" stroke-width="1.332" d="m341.708 53.417-61.149 35.305"/><path stroke="url(#n)" stroke-width="1.332" d="M361.543 128.778h-70.609"/><path stroke="url(#o)" stroke-width="1.332" d="m341.041 203.961-61.148-35.305"/><path stroke="url(#p)" stroke-width="1.332" d="M142.109 168.656 80.96 203.96"/><path stroke="url(#q)" stroke-width="1.332" d="M131.066 128.779H60.457"/><path stroke="url(#r)" stroke-width="1.332" d="M141.443 88.723 80.294 53.418"/><path d="m61.088 24.482-6.839 3.961a.915.915 0 0 1-.906 0l-6.839-3.961c-.488-.284-.612-.95-.24-1.368a3.2 3.2 0 0 1 .862-.702l4.814-2.664c1.03-.577 2.7-.577 3.73 0l4.814 2.664c.31.17.604.418.861.702.356.418.231 1.084-.257 1.368Zm-7.798 5.613v6.057c0 .675-.684 1.12-1.288.826-1.83-.897-4.912-2.575-4.912-2.575-1.084-.613-1.972-2.159-1.972-3.429v-4.583c0-.701.737-1.145 1.341-.799l6.386 3.704c.267.169.444.47.444.8Zm1.013 0v6.057c0 .675.684 1.12 1.288.826 1.83-.897 4.912-2.575 4.912-2.575 1.083-.613 1.971-2.159 1.971-3.429v-4.583c0-.701-.737-1.145-1.34-.799l-6.386 3.704a.956.956 0 0 0-.444.8Zm-13.896 97.944-9.111 5.277a1.22 1.22 0 0 1-1.207 0l-9.111-5.277c-.65-.378-.817-1.266-.32-1.822.344-.39.734-.71 1.148-.935l6.413-3.549c1.373-.77 3.597-.77 4.97 0l6.413 3.549c.414.225.805.556 1.148.935.473.556.307 1.444-.343 1.822Zm-10.39 7.479v8.069c0 .899-.91 1.491-1.715 1.101-2.438-1.195-6.544-3.432-6.544-3.432-1.443-.816-2.627-2.875-2.627-4.567v-6.106c0-.934.983-1.526 1.787-1.064l8.508 4.934c.355.224.591.627.591 1.065Zm1.351 0v8.069c0 .899.911 1.491 1.716 1.101 2.437-1.195 6.543-3.432 6.543-3.432 1.444-.816 2.627-2.875 2.627-4.567v-6.106c0-.934-.982-1.526-1.787-1.064l-8.507 4.934a1.272 1.272 0 0 0-.592 1.065Zm35.683 93.771-9.11 5.277a1.22 1.22 0 0 1-1.207 0l-9.111-5.277c-.651-.378-.817-1.266-.32-1.822a4.26 4.26 0 0 1 1.148-.935l6.413-3.549c1.373-.77 3.597-.77 4.97 0l6.413 3.549c.414.225.804.556 1.147.935.474.556.308 1.444-.343 1.822Zm-10.389 7.479v8.069c0 .899-.911 1.491-1.716 1.101-2.437-1.195-6.543-3.432-6.543-3.432-1.444-.816-2.627-2.875-2.627-4.567v-6.106c0-.934.982-1.526 1.787-1.064l8.507 4.934c.355.224.592.627.592 1.065Zm1.351 0v8.069c0 .899.911 1.491 1.716 1.101 2.437-1.195 6.543-3.432 6.543-3.432 1.444-.816 2.627-2.875 2.627-4.567v-6.106c0-.934-.982-1.526-1.787-1.064l-8.507 4.934a1.272 1.272 0 0 0-.592 1.065Zm350.091-110.061-9.111 5.277a1.22 1.22 0 0 1-1.207 0l-9.111-5.277c-.65-.379-.816-1.266-.319-1.822.343-.391.733-.71 1.148-.935l6.413-3.55c1.372-.769 3.597-.769 4.969 0l6.413 3.55c.415.225.805.556 1.148.935.473.556.308 1.443-.343 1.822Zm-10.389 7.478v8.07c0 .899-.911 1.491-1.716 1.1-2.438-1.195-6.543-3.431-6.543-3.431-1.444-.816-2.627-2.875-2.627-4.567v-6.106c0-.935.982-1.526 1.787-1.065l8.507 4.934c.355.225.592.627.592 1.065Zm1.351 0v8.07c0 .899.911 1.491 1.715 1.1 2.438-1.195 6.544-3.431 6.544-3.431 1.443-.816 2.626-2.875 2.626-4.567v-6.106c0-.935-.982-1.526-1.786-1.065l-8.508 4.934a1.273 1.273 0 0 0-.591 1.065ZM381.459 25.457l-9.111 5.277a1.22 1.22 0 0 1-1.207 0l-9.11-5.277c-.651-.379-.817-1.266-.32-1.822a4.26 4.26 0 0 1 1.148-.935l6.413-3.55c1.373-.769 3.597-.769 4.97 0l6.413 3.55c.414.225.804.556 1.147.935.474.556.308 1.443-.343 1.822Zm-10.389 7.478v8.07c0 .9-.911 1.49-1.716 1.1-2.437-1.195-6.543-3.431-6.543-3.431-1.444-.816-2.627-2.875-2.627-4.567V28c0-.935.982-1.526 1.787-1.065l8.507 4.934c.355.225.592.627.592 1.065Zm1.351 0v8.07c0 .9.911 1.49 1.716 1.1 2.437-1.195 6.543-3.431 6.543-3.431 1.443-.816 2.627-2.875 2.627-4.567V28c0-.935-.982-1.526-1.787-1.065l-8.507 4.934a1.273 1.273 0 0 0-.592 1.065Zm9.038 196.354-9.111 5.277a1.22 1.22 0 0 1-1.207 0l-9.11-5.277c-.651-.378-.817-1.266-.32-1.822a4.26 4.26 0 0 1 1.148-.935l6.413-3.549c1.373-.77 3.597-.77 4.97 0l6.413 3.549c.414.225.804.556 1.147.935.474.556.308 1.444-.343 1.822Zm-10.389 7.479v8.069c0 .899-.911 1.491-1.716 1.101-2.437-1.195-6.543-3.432-6.543-3.432-1.444-.816-2.627-2.875-2.627-4.567v-6.106c0-.934.982-1.526 1.787-1.064l8.507 4.934c.355.224.592.627.592 1.065Zm1.351 0v8.069c0 .899.911 1.491 1.716 1.101 2.437-1.195 6.543-3.432 6.543-3.432 1.443-.816 2.627-2.875 2.627-4.567v-6.106c0-.934-.982-1.526-1.787-1.064l-8.507 4.934a1.272 1.272 0 0 0-.592 1.065Zm-156.092-111.32h-10.658v10.657h10.658v-10.657Zm-18.651 14.654a4.008 4.008 0 0 0 3.996 3.997 4.009 4.009 0 0 0 3.997-3.997v-3.997h-3.997a4.008 4.008 0 0 0-3.996 3.997Zm3.996-22.648a4.008 4.008 0 0 0-3.996 3.997 4.008 4.008 0 0 0 3.996 3.997h3.997v-3.997a4.009 4.009 0 0 0-3.997-3.997Zm22.648 3.997a4.008 4.008 0 0 0-3.996-3.997 4.009 4.009 0 0 0-3.997 3.997v3.997h3.997a4.008 4.008 0 0 0 3.996-3.997Zm-3.996 14.654h-3.997v3.997a4.009 4.009 0 0 0 3.997 3.997 4.008 4.008 0 0 0 3.996-3.997 4.008 4.008 0 0 0-3.996-3.997Z" fill="#fff"/><defs><linearGradient id="b" x1="368.204" y1="-30.174" x2="368.204" y2="53.507" gradientUnits="userSpaceOnUse"><stop stop-color="#2F2D30"/><stop offset="1" stop-color="#2F2D30" stop-opacity="0"/></linearGradient><linearGradient id="d" x1="53.796" y1="173.658" x2="53.796" y2="257.339" gradientUnits="userSpaceOnUse"><stop stop-color="#2F2D30"/><stop offset="1" stop-color="#2F2D30" stop-opacity="0"/></linearGradient><linearGradient id="f" x1="368.204" y1="173.658" x2="368.204" y2="257.339" gradientUnits="userSpaceOnUse"><stop stop-color="#2F2D30"/><stop offset="1" stop-color="#2F2D30" stop-opacity="0"/></linearGradient><linearGradient id="h" x1="53.796" y1="-30.174" x2="53.796" y2="53.507" gradientUnits="userSpaceOnUse"><stop stop-color="#2F2D30"/><stop offset="1" stop-color="#2F2D30" stop-opacity="0"/></linearGradient><linearGradient id="j" x1="394.849" y1="71.076" x2="394.849" y2="154.757" gradientUnits="userSpaceOnUse"><stop stop-color="#2F2D30"/><stop offset="1" stop-color="#2F2D30" stop-opacity="0"/></linearGradient><linearGradient id="l" x1="27.151" y1="72.408" x2="27.151" y2="156.089" gradientUnits="userSpaceOnUse"><stop stop-color="#2F2D30"/><stop offset="1" stop-color="#2F2D30" stop-opacity="0"/></linearGradient><linearGradient id="m" x1="341.124" y1="52.408" x2="279.976" y2="87.712" gradientUnits="userSpaceOnUse"><stop stop-color="#2F2D30" stop-opacity="0"/><stop offset=".485" stop-color="#434144"/><stop offset="1" stop-color="#2F2D30" stop-opacity="0"/></linearGradient><linearGradient id="n" x1="361.543" y1="127.612" x2="290.934" y2="127.612" gradientUnits="userSpaceOnUse"><stop stop-color="#2F2D30" stop-opacity="0"/><stop offset=".485" stop-color="#434144"/><stop offset="1" stop-color="#2F2D30" stop-opacity="0"/></linearGradient><linearGradient id="o" x1="341.624" y1="202.951" x2="280.476" y2="167.646" gradientUnits="userSpaceOnUse"><stop stop-color="#2F2D30" stop-opacity="0"/><stop offset=".485" stop-color="#434144"/><stop offset="1" stop-color="#2F2D30" stop-opacity="0"/></linearGradient><linearGradient id="p" x1="141.526" y1="167.646" x2="80.377" y2="202.95" gradientUnits="userSpaceOnUse"><stop stop-color="#2F2D30" stop-opacity="0"/><stop offset=".485" stop-color="#434144"/><stop offset="1" stop-color="#2F2D30" stop-opacity="0"/></linearGradient><linearGradient id="q" x1="131.066" y1="127.613" x2="60.457" y2="127.613" gradientUnits="userSpaceOnUse"><stop stop-color="#2F2D30" stop-opacity="0"/><stop offset=".485" stop-color="#434144"/><stop offset="1" stop-color="#2F2D30" stop-opacity="0"/></linearGradient><linearGradient id="r" x1="142.026" y1="87.713" x2="80.877" y2="52.408" gradientUnits="userSpaceOnUse"><stop stop-color="#2F2D30" stop-opacity="0"/><stop offset=".485" stop-color="#434144"/><stop offset="1" stop-color="#2F2D30" stop-opacity="0"/></linearGradient><filter id="a" x="328.503" y="-12.839" width="79.401" height="79.401" filterUnits="userSpaceOnUse" color-interpolation-filters="sRGB"><feFlood flood-opacity="0" result="BackgroundImageFix"/><feGaussianBlur in="BackgroundImageFix" stdDeviation="6.528"/><feComposite in2="SourceAlpha" operator="in" result="effect1_backgroundBlur_57_34233"/><feBlend in="SourceGraphic" in2="effect1_backgroundBlur_57_34233" result="shape"/></filter><filter id="c" x="14.095" y="190.994" width="79.401" height="79.401" filterUnits="userSpaceOnUse" color-interpolation-filters="sRGB"><feFlood flood-opacity="0" result="BackgroundImageFix"/><feGaussianBlur in="BackgroundImageFix" stdDeviation="6.528"/><feComposite in2="SourceAlpha" operator="in" result="effect1_backgroundBlur_57_34233"/><feBlend in="SourceGraphic" in2="effect1_backgroundBlur_57_34233" result="shape"/></filter><filter id="e" x="328.503" y="190.994" width="79.401" height="79.401" filterUnits="userSpaceOnUse" color-interpolation-filters="sRGB"><feFlood flood-opacity="0" result="BackgroundImageFix"/><feGaussianBlur in="BackgroundImageFix" stdDeviation="6.528"/><feComposite in2="SourceAlpha" operator="in" result="effect1_backgroundBlur_57_34233"/><feBlend in="SourceGraphic" in2="effect1_backgroundBlur_57_34233" result="shape"/></filter><filter id="g" x="14.095" y="-12.839" width="79.401" height="79.401" filterUnits="userSpaceOnUse" color-interpolation-filters="sRGB"><feFlood flood-opacity="0" result="BackgroundImageFix"/><feGaussianBlur in="BackgroundImageFix" stdDeviation="6.528"/><feComposite in2="SourceAlpha" operator="in" result="effect1_backgroundBlur_57_34233"/><feBlend in="SourceGraphic" in2="effect1_backgroundBlur_57_34233" result="shape"/></filter><filter id="i" x="355.148" y="88.411" width="79.401" height="79.401" filterUnits="userSpaceOnUse" color-interpolation-filters="sRGB"><feFlood flood-opacity="0" result="BackgroundImageFix"/><feGaussianBlur in="BackgroundImageFix" stdDeviation="6.528"/><feComposite in2="SourceAlpha" operator="in" result="effect1_backgroundBlur_57_34233"/><feBlend in="SourceGraphic" in2="effect1_backgroundBlur_57_34233" result="shape"/></filter><filter id="k" x="-12.549" y="89.744" width="79.401" height="79.401" filterUnits="userSpaceOnUse" color-interpolation-filters="sRGB"><feFlood flood-opacity="0" result="BackgroundImageFix"/><feGaussianBlur in="BackgroundImageFix" stdDeviation="6.528"/><feComposite in2="SourceAlpha" operator="in" result="effect1_backgroundBlur_57_34233"/><feBlend in="SourceGraphic" in2="effect1_backgroundBlur_57_34233" result="shape"/></filter></defs></svg>