<svg width="86" height="87" viewBox="0 0 86 87" fill="none" xmlns="http://www.w3.org/2000/svg">
<g clip-path="url(#clip0_1112_226)">
<path d="M85.8846 76.373C85.8549 76.1335 85.1371 70.4178 83.112 62.3451C81.2411 54.8878 77.8554 43.9741 72.3523 34.3313C67.2036 25.3113 59.6985 16.7638 54.3091 11.1825C48.4796 5.14572 43.7892 1.17244 43.7422 1.12957L43.0004 0.5L42.2586 1.12957C42.2117 1.16908 37.5212 5.14572 31.6925 11.1825C26.2966 16.7646 18.7915 25.3113 13.6428 34.3313C8.13887 43.9741 4.7531 54.8878 2.88466 62.3451C0.859629 70.4144 0.141761 76.1301 0.11209 76.373L0 77.2632L0.808529 77.6171C1.02035 77.7095 6.08828 79.9118 13.8076 82.1249C20.8132 84.1322 31.3464 86.4958 42.0864 86.4958H42.6773C52.9105 86.4117 63.9109 84.0069 71.336 82.0039C79.3694 79.8395 85.0802 77.6625 85.1387 77.6372L86.0016 77.3061L85.8846 76.373ZM79.868 71.9408C79.2021 72.1695 78.4496 72.4216 77.6221 72.6906C75.8023 73.279 73.6157 73.9514 71.1704 74.6239C64.6082 76.4352 54.783 78.6409 45.248 78.8779C37.6036 79.0679 29.9008 77.9146 23.3963 76.5025C23.5083 75.6191 23.6435 74.6617 23.8034 73.6404C29.8628 74.8895 37.3926 76.0881 44.9331 76.0881C45.9354 76.0881 46.9367 76.066 47.9373 76.0217C57.2597 75.6014 66.3241 73.5001 72.2863 71.819C74.1168 71.3012 75.7652 70.7935 77.1927 70.3295C78.0169 70.0622 78.7636 69.81 79.4312 69.5797C80.5999 69.1746 81.5197 68.835 82.151 68.5963C82.3266 69.4368 82.4807 70.227 82.6233 70.9591C82.0431 71.1734 81.1002 71.5164 79.868 71.9408ZM24.6672 68.9149C30.8568 69.9983 38.1962 70.9624 45.4367 70.9624C47.1593 70.9624 48.8777 70.9078 50.5722 70.7876C58.641 70.2135 66.0719 68.5526 71.2841 67.1144C71.7973 66.9721 72.2888 66.832 72.7586 66.6941C73.0231 66.6176 73.2836 66.5403 73.5383 66.4647C74.4836 66.1831 75.363 65.9082 76.1699 65.6468C76.9768 65.3854 77.7359 65.1307 78.3952 64.8987C79.5491 64.4978 80.4557 64.1582 81.0854 63.9144C81.2815 64.718 81.4642 65.4949 81.6334 66.2453C81.0763 66.4596 80.1557 66.8042 78.9351 67.2304C78.2757 67.4607 77.5282 67.7146 76.7032 67.9869C75.8781 68.2592 74.9954 68.5366 74.0369 68.8274C73.3226 69.0449 72.5709 69.2656 71.7819 69.4898L71.6245 69.5343C65.7876 71.1835 56.921 73.2328 47.8302 73.6455C39.5339 74.0195 30.9466 72.6889 24.199 71.2919C24.3419 70.5231 24.4979 69.7293 24.6672 68.9107V68.9149ZM28.1048 61.1591C36.8239 55.6443 42.6304 45.7947 42.6304 34.5608C42.6304 45.7947 48.4368 55.6443 57.1567 61.1591C52.6904 58.7136 47.7 57.4338 42.6308 57.4338C37.5615 57.4338 32.5711 58.7136 28.1048 61.1591ZM25.5762 64.9618C25.6034 64.8542 25.6306 64.7466 25.6587 64.6381C30.9532 65.6426 36.5033 66.1469 42.2158 66.1469C43.4213 66.1469 44.6337 66.1245 45.8529 66.0797C51.9091 65.8424 57.9363 65.1022 63.8746 63.8665C64.3527 63.7673 64.823 63.6673 65.2857 63.5664C66.0708 63.3944 66.8321 63.2193 67.5695 63.0411C68.4486 62.8304 69.2893 62.618 70.0915 62.404C70.8805 62.1955 71.6322 61.9879 72.3465 61.7811C73.2877 61.5113 74.1597 61.2457 74.9649 60.9918C75.7817 60.7346 76.5251 60.4875 77.1902 60.2597C78.3227 59.8722 79.2285 59.536 79.8829 59.2838C80.1027 60.0779 80.3103 60.8459 80.506 61.5878C79.929 61.8131 79.0158 62.1577 77.8191 62.5763C77.1598 62.8066 76.418 63.0587 75.5938 63.3252C74.7935 63.5858 73.919 63.8598 72.9786 64.1405C72.2644 64.3529 71.5141 64.5684 70.7278 64.7869C69.9113 65.0111 69.0596 65.2374 68.1728 65.4661C67.4365 65.6521 66.6785 65.8356 65.8989 66.0166C61.3131 67.0783 56.0086 68.0096 50.4173 68.4063C41.8688 69.014 32.6873 67.8919 25.1814 66.5832C25.3067 66.0503 25.4383 65.5098 25.5762 64.9618ZM42.9971 3.61003C44.5309 4.95491 48.2662 8.31711 52.6657 12.8754C57.9545 18.3541 65.3129 26.7319 70.3346 35.5299C74.3822 42.6216 77.2578 50.4413 79.2169 56.99C78.593 57.2312 77.6831 57.5708 76.5194 57.9701C74.5512 51.4659 71.3665 42.8788 66.5722 34.9306C61.8389 27.0857 55.3229 19.8125 50.6876 15.0919C46.4933 10.8161 42.5858 7.36393 40.5641 5.80303C41.6117 4.83808 42.4457 4.09419 42.9971 3.61003ZM38.8102 7.44294C39.3221 7.82371 40.1017 8.4516 41.0858 9.29887C41.6215 9.75781 42.2174 10.2815 42.8636 10.8623C48.614 16.0359 58.3196 25.8005 64.581 36.1788C69.2599 43.9371 72.372 52.3434 74.294 58.7055C73.4913 58.9605 72.6176 59.2244 71.6731 59.4973C71.5946 59.2407 71.5141 58.9804 71.4316 58.7165C69.5739 52.7906 66.2186 43.9564 60.7848 35.524C55.1127 26.7184 46.6549 18.1322 40.6482 13.0343C40.0078 12.4904 39.3946 11.987 38.8168 11.5272C37.9349 10.8253 37.1338 10.2252 36.4341 9.741C37.2781 8.9055 38.0775 8.1406 38.8102 7.44294ZM33.3302 12.8754C33.8044 12.3845 34.2714 11.9082 34.7313 11.4465C35.375 11.8743 36.1877 12.4652 37.1421 13.2116C37.7064 13.6566 38.3182 14.1561 38.9776 14.7103C39.6081 15.2424 40.2798 15.8249 40.9861 16.457C41.5449 16.9563 42.1254 17.4869 42.7276 18.049C43.5996 18.8649 44.5112 19.7452 45.4623 20.69C49.2486 24.459 54.6429 30.3185 58.8364 36.8286C64.1112 45.0231 67.3832 53.6202 69.1964 59.3889C69.2731 59.6327 69.3481 59.8747 69.4206 60.1126C68.6201 60.3244 67.784 60.5354 66.9126 60.7456C66.5623 59.5906 66.1379 58.2869 65.6293 56.8605C63.7881 51.6979 60.4493 43.9068 54.9973 36.1065C51.206 30.6791 45.9741 24.9398 40.6704 20.2201C40.077 19.6906 39.4831 19.1751 38.8885 18.6735C38.188 18.0818 37.4902 17.5116 36.7951 16.963C36.1616 16.4626 35.5324 15.9829 34.9077 15.524C34.0731 14.9076 33.2514 14.3349 32.4426 13.8059C32.7426 13.4882 33.0384 13.178 33.3302 12.8754ZM30.7934 15.5652C31.6038 16.0852 32.4307 16.6523 33.2742 17.2664C33.8989 17.7198 34.5308 18.1961 35.1698 18.6954C35.8709 19.2451 36.5767 19.8184 37.2871 20.4151C37.8811 20.9144 38.4756 21.4286 39.0707 21.9576C39.6657 22.4865 40.2655 23.0337 40.8699 23.5991C41.4402 24.1332 42.0075 24.6776 42.5718 25.2323C46.5049 29.0989 50.2211 33.3857 53.0943 37.4976C58.3798 45.0626 61.623 52.6191 63.4131 57.628C63.8854 58.9535 64.2867 60.179 64.6205 61.2717C64.2029 61.3631 63.779 61.453 63.3488 61.5416C62.9763 61.6183 62.5963 61.6945 62.209 61.7702C61.5752 59.3914 59.8411 53.8388 56.002 46.9437C53.0138 41.5934 49.4307 36.6122 45.3238 32.0988C43.8331 30.458 42.2718 28.8753 40.6399 27.3505C40.0663 26.8137 39.4844 26.2855 38.8943 25.7661C38.2948 25.2332 37.6847 24.7095 37.0638 24.1951C36.4594 23.6908 35.8487 23.196 35.2316 22.7107C34.5085 22.1419 33.7755 21.5841 33.0327 21.0371C32.3969 20.5687 31.7541 20.1089 31.1041 19.6578C30.2799 19.0874 29.4464 18.5298 28.6035 17.9851C29.3494 17.1429 30.0829 16.3334 30.7934 15.5626V15.5652ZM5.14624 62.936C6.98006 55.6232 10.2933 44.9357 15.6621 35.5341C18.8764 29.8982 23.0542 24.4338 27.0309 19.7948C27.887 20.3412 28.7213 20.8951 29.534 21.4566C25.0751 26.6369 20.313 32.8881 16.8159 39.409C11.9137 48.5458 9.0191 58.5475 7.45479 65.3291C6.20944 70.7296 5.59295 74.9256 5.34487 76.853C4.12094 76.4016 3.16983 76.0217 2.55499 75.7704C2.83439 73.8539 3.61407 69.0409 5.14624 62.936ZM7.99958 74.813C8.10755 74.1137 8.23777 73.321 8.39189 72.4477C8.72157 70.5733 9.16333 68.329 9.73862 65.8368C11.2691 59.2099 14.0953 49.446 18.8657 40.5497C22.3116 34.1237 27.0441 27.9414 31.4634 22.825C32.2222 23.3809 32.9615 23.9412 33.6813 24.5061C29.0527 29.952 23.6542 37.079 19.9858 44.4868C15.7057 53.1386 13.3032 62.2274 12.0414 68.3324C11.6639 70.1572 11.3639 71.8223 11.1266 73.2807C10.9856 74.1498 10.8669 74.945 10.7672 75.6569C10.59 76.9177 10.4746 77.9264 10.4037 78.6072C9.39576 78.2819 8.45783 77.9659 7.6015 77.6675C7.66908 77.0892 7.79765 76.1125 7.99958 74.813ZM12.6818 79.3141C12.737 78.7442 12.8466 77.7171 13.037 76.3209C13.1326 75.6174 13.2488 74.8206 13.389 73.9455C13.5159 73.1453 13.6634 72.2787 13.8324 71.3558C13.9692 70.6111 14.1206 69.8316 14.2865 69.0174L14.3359 68.7778C15.5722 62.8268 17.9121 53.9682 22.0718 45.5593C25.6488 38.3306 30.9607 31.3364 35.5135 25.9888C36.1415 26.5116 36.7536 27.0373 37.3498 27.5657C32.3774 33.4924 26.7037 41.5625 23.1523 49.5789C19.8926 56.948 18.0168 64.3095 16.9709 69.6554C16.8547 70.2438 16.75 70.8086 16.6536 71.3466C16.614 71.5668 16.5761 71.7853 16.539 71.9997C16.3742 72.9646 16.2308 73.8707 16.1088 74.7104C15.9827 75.5779 15.878 76.3747 15.7923 77.0909C15.6373 78.3803 15.545 79.41 15.4849 80.1253C15.1415 80.0294 14.8057 79.9347 14.4777 79.8412C13.8623 79.6652 13.2637 79.4895 12.6818 79.3141ZM18.0761 77.6919C18.1585 76.9841 18.2599 76.1873 18.3844 75.314C18.5055 74.4591 18.6489 73.5303 18.8179 72.5401C18.8635 72.2745 18.9107 72.0042 18.9596 71.729C19.047 71.2398 19.1426 70.7285 19.2465 70.195C19.3838 69.4906 19.5366 68.7518 19.7047 67.9785C19.8695 67.2326 20.0478 66.459 20.2396 65.6577C21.3308 61.1524 22.9397 55.8544 25.282 50.5589C28.7246 42.7796 34.2475 34.9289 39.0921 29.1527C39.6548 29.6805 40.2028 30.2092 40.7364 30.7388C36.3335 35.4248 32.5415 41.0044 29.4582 47.3337C26.9098 52.5645 24.8369 58.3172 23.2974 64.4314C23.1495 65.0192 23.0094 65.5978 22.877 66.1671C22.6918 66.9617 22.5207 67.737 22.3635 68.4929C22.1987 69.2858 22.0479 70.0552 21.9111 70.801C21.7619 71.6155 21.6275 72.3981 21.5089 73.1546C21.344 74.1632 21.213 75.108 21.0968 75.9856C20.9855 76.8488 20.8948 77.6448 20.8215 78.3668C20.6929 79.6277 20.6163 80.6632 20.5742 81.4256C19.6083 81.2015 18.678 80.9737 17.7835 80.7422C17.8272 80.1177 17.9162 79.0721 18.0761 77.6919ZM70.7113 79.7092C63.423 81.6736 52.6393 84.033 42.6584 84.1137C35.7014 84.1708 28.7889 83.1832 22.8869 81.935C22.9256 81.2348 22.9973 80.1959 23.1276 78.8796C29.2348 80.1967 36.3764 81.2802 43.5757 81.2802C44.1526 81.2802 44.7296 81.2735 45.3065 81.2592C55.0847 81.0162 65.1175 78.7636 71.8116 76.9169C77.0988 75.4585 81.2024 74.0136 83.0535 73.3319C83.2274 74.349 83.3535 75.1618 83.4376 75.7309C81.5568 76.4126 76.8144 78.0642 70.7154 79.71L70.7113 79.7092Z" fill="white"/>
</g>
<defs>
<clipPath id="clip0_1112_226">
<rect width="86" height="86" fill="white" transform="translate(0 0.5)"/>
</clipPath>
</defs>
</svg>
