<svg width="34" height="40" viewBox="0 0 34 40" fill="none" xmlns="http://www.w3.org/2000/svg">
<path d="M2.54409 12.9566C1.85489 12.9566 1.27013 13.1969 0.789453 13.6776C0.308772 14.1583 0.0683594 14.7351 0.0683594 15.4083V25.7448C0.0683594 26.4348 0.3087 27.0191 0.789453 27.4998C1.27013 27.9805 1.85489 28.2209 2.54409 28.2209C3.23278 28.2209 3.814 27.9806 4.28723 27.4998C4.75952 27.0192 4.99632 26.4348 4.99632 25.7448V15.4083C4.99632 14.735 4.75598 14.1583 4.27522 13.6776C3.79447 13.1969 3.2173 12.9566 2.54409 12.9566ZM22.4482 3.67756L24.1549 0.529051C24.2669 0.320607 24.2271 0.160765 24.035 0.0483703C23.8265 -0.048547 23.6663 0.000562549 23.5543 0.192227L21.8237 3.36591C20.3009 2.69262 18.6902 2.35536 16.9918 2.35536C15.293 2.35536 13.6822 2.69269 12.16 3.36591L10.4293 0.192227C10.3168 0.000562549 10.1566 -0.0481131 9.94857 0.0483703C9.75604 0.161272 9.71619 0.320607 9.82866 0.529051L11.5355 3.67756C9.80479 4.56016 8.42639 5.78935 7.4008 7.3678C6.37522 8.94712 5.86221 10.673 5.86221 12.5484H28.0972C28.0972 10.6734 27.5841 8.94748 26.5586 7.3678C25.5329 5.78935 24.1625 4.56016 22.4482 3.67756ZM12.5805 8.25712C12.3959 8.44213 12.1754 8.5342 11.9192 8.5342C11.6624 8.5342 11.4465 8.44213 11.2703 8.25712C11.0941 8.07298 11.006 7.8534 11.006 7.59628C11.006 7.34002 11.0941 7.12001 11.2703 6.93543C11.4465 6.75129 11.6629 6.65922 11.9192 6.65922C12.1754 6.65922 12.3959 6.75129 12.5805 6.93543C12.7646 7.12044 12.8571 7.34002 12.8571 7.59628C12.8566 7.85296 12.7642 8.07298 12.5805 8.25712ZM22.7124 8.25712C22.5358 8.44213 22.3193 8.5342 22.0635 8.5342C21.8067 8.5342 21.5863 8.44213 21.4021 8.25712C21.2176 8.07298 21.1255 7.8534 21.1255 7.59628C21.1255 7.34002 21.2176 7.12001 21.4021 6.93543C21.5863 6.75129 21.8067 6.65922 22.0635 6.65922C22.3198 6.65922 22.5357 6.75129 22.7124 6.93543C22.8887 7.12044 22.9766 7.34002 22.9766 7.59628C22.9766 7.85296 22.8886 8.07298 22.7124 8.25712ZM5.95768 29.4226C5.95768 30.1605 6.21393 30.7851 6.72651 31.2977C7.23952 31.8103 7.86413 32.0665 8.60149 32.0665H10.3804L10.4048 37.5238C10.4048 38.213 10.6451 38.7982 11.1258 39.2789C11.6065 39.7597 12.1837 40 12.8565 40C13.5453 40 14.1304 39.7597 14.6112 39.2789C15.0919 38.7982 15.3323 38.213 15.3323 37.5238V32.067H18.6494V37.5238C18.6494 38.213 18.8897 38.7982 19.3705 39.2789C19.8512 39.7597 20.4358 40 21.1251 40C21.8139 40 22.399 39.7597 22.8797 39.2789C23.3605 38.7982 23.6007 38.213 23.6007 37.5238V32.067H25.4037C26.1247 32.067 26.7413 31.8107 27.2548 31.2981C27.7673 30.7856 28.0237 30.1609 28.0237 29.4231V13.4129H5.95768V29.4226ZM31.4385 12.9566C30.7653 12.9566 30.1885 13.1934 29.7078 13.6657C29.2271 14.1388 28.9867 14.7201 28.9867 15.4083V25.7448C28.9867 26.4348 29.227 27.0191 29.7078 27.4998C30.1885 27.9806 30.7657 28.2209 31.4385 28.2209C32.1273 28.2209 32.7124 27.9806 33.1932 27.4998C33.6739 27.0191 33.9142 26.4348 33.9142 25.7448V15.4083C33.9142 14.72 33.6739 14.1388 33.1932 13.6657C32.7124 13.1934 32.1273 12.9566 31.4385 12.9566Z" fill="white"/>
</svg>
