<svg width="197" height="199" viewBox="0 0 197 199" fill="none" xmlns="http://www.w3.org/2000/svg">
<path d="M116.847 30.3353C110.688 26.2635 103.217 26.8572 96.3076 31.0973C86.1681 37.3192 74.8124 40.3669 62.722 40.1113C54.4829 39.9369 47.7984 43.1424 44.8304 49.6636C39.2603 61.9044 48.8955 81.1848 66.3513 92.728C77.6937 100.228 89.5414 102.608 97.9807 100.002C98.5474 99.8276 99.1204 99.6738 99.699 99.5413C108.328 97.5657 117.077 89.6573 122.543 77.6467C130.956 59.1607 128.405 37.979 116.847 30.3353Z" fill="#0D0F10"/>
<path d="M63.6783 167.328L51.6817 170.477C50.0345 170.909 48.2521 169.799 47.7013 167.995L34.1674 123.679C33.6169 121.877 34.5057 120.064 36.1537 119.632L48.1504 116.483L63.6783 167.328Z" fill="#191B1E"/>
<path d="M40.0509 140.558L54.7484 136.748C54.8598 136.719 54.9195 136.596 54.8817 136.474L52.3466 128.292C52.3087 128.17 52.1875 128.094 52.0761 128.123L37.3786 131.933C35.2077 132.496 34.0463 134.882 34.7843 137.264C35.5216 139.647 37.88 141.121 40.0509 140.558Z" fill="#4B4A4A"/>
<path d="M45.4689 159.52L60.1663 155.71C60.2778 155.681 60.3375 155.558 60.2996 155.436L57.7646 147.254C57.7267 147.132 57.6055 147.056 57.494 147.085L42.7965 150.895C40.6257 151.457 39.4643 153.844 40.2022 156.226C40.9396 158.609 43.298 160.083 45.4689 159.52Z" fill="#4B4A4A"/>
<path d="M166.43 137.622L178.426 134.473C180.074 134.041 180.964 132.229 180.413 130.425L166.879 86.1093C166.328 84.3067 164.547 83.1951 162.899 83.6276L150.902 86.7764L166.43 137.622Z" fill="#191B1E"/>
<path d="M171.784 103.21L157.086 107.02C156.975 107.049 156.853 106.973 156.816 106.851L154.281 98.6688C154.243 98.5465 154.302 98.4238 154.414 98.3949L169.111 94.5849C171.282 94.0222 173.64 95.4964 174.378 97.8782C175.116 100.261 173.955 102.647 171.784 103.21Z" fill="#4B4A4A"/>
<path d="M177.202 122.172L162.504 125.982C162.393 126.011 162.271 125.935 162.234 125.813L159.699 117.631C159.661 117.508 159.72 117.386 159.832 117.357L174.529 113.547C176.7 112.984 179.058 114.458 179.796 116.84C180.534 119.223 179.372 121.609 177.202 122.172Z" fill="#4B4A4A"/>
<g opacity="0.05">
<path d="M39.3741 122.643L41.9518 131.112C40.5823 131.944 39.9458 133.804 40.5153 135.675C41.0849 137.546 42.6756 138.818 44.3096 138.858L47.7079 150.022C46.3384 150.855 45.7019 152.715 46.2715 154.586C46.841 156.457 48.4318 157.729 50.0658 157.769L52.6435 166.237C53.1833 168.011 54.8646 169.121 56.3988 168.716L67.571 165.767L63.9913 154.006L61.6828 146.422L58.2354 135.096L55.9269 127.512L52.3472 115.751L41.175 118.7C39.6403 119.103 38.834 120.869 39.3741 122.643Z" fill="#B6B5B4"/>
<path d="M168.309 99.5225C167.74 97.6514 166.149 96.3792 164.515 96.3397L161.937 87.871C161.398 86.0977 159.716 84.9879 158.182 85.3928L147.011 88.3413L150.59 100.102L152.899 107.686L156.346 119.012L158.655 126.596L162.235 138.357L173.406 135.408C174.94 135.003 175.746 133.237 175.206 131.464L172.629 122.995C173.998 122.163 174.635 120.303 174.065 118.432C173.496 116.561 171.905 115.288 170.271 115.249L166.872 104.084C168.242 103.254 168.879 101.394 168.309 99.5225Z" fill="#B6B5B4"/>
</g>
<path d="M50.9821 39.577L42.521 45.6245L58.5766 67.587L67.0377 61.5395L50.9821 39.577Z" fill="#191B1E"/>
<path d="M60.8529 52.5483L51.7428 59.2523C49.8245 60.6645 47.0336 60.0603 45.5095 57.904L34.9995 43.0288C33.4751 40.8716 33.7956 37.9784 35.7141 36.5671L44.8242 29.8631C46.7424 28.4509 49.5333 29.0551 51.0574 31.2114L61.5674 46.0866C63.0918 48.2438 62.7713 51.137 60.8529 52.5483Z" fill="#27272B"/>
<path d="M49.2626 34.5134C48.494 33.4252 47.0957 33.117 46.1385 33.8239L38.9973 39.0922C38.0376 39.7997 37.8826 41.2542 38.6512 42.3424L39.768 43.9241C40.4686 44.1812 41.5367 45.1746 42.5013 46.5417C43.466 47.9089 44.0526 49.2579 44.0702 50.0187L44.9507 51.2667L45.1737 51.1026C45.5196 50.8477 46.0257 50.9593 46.3032 51.3513C46.4429 51.549 46.5004 51.7792 46.4761 51.9902C46.4551 52.206 46.3539 52.3993 46.1805 52.5278L45.9575 52.692L47.3063 54.6028C48.0749 55.691 49.4731 55.9992 50.4325 55.2909L57.5738 50.0225C58.5313 49.3166 58.6862 47.8621 57.9176 46.7739L56.5688 44.8631L56.3458 45.0272C55.9999 45.2822 55.4938 45.1705 55.2147 44.776C55.0769 44.5817 55.0213 44.3491 55.0418 44.1372C55.0664 43.9272 55.1678 43.729 55.3391 43.602L55.5621 43.4378L54.6799 42.1873C53.9754 41.9294 52.9112 40.9369 51.9482 39.5722C50.9854 38.2084 50.3989 36.8622 50.3818 36.0974L49.2626 34.5134ZM57.1771 48.6699C57.1575 48.8538 57.0698 49.0226 56.9182 49.1341L49.8105 54.3775C49.509 54.6 49.071 54.5035 48.8304 54.1614C48.7094 53.9895 48.66 53.7907 48.6796 53.6068C48.6976 53.4205 48.7875 53.2501 48.9369 53.1402L56.0446 47.8967C56.3461 47.6742 56.7879 47.7717 57.0293 48.1136C57.1503 48.2855 57.1972 48.482 57.1771 48.6699ZM47.8873 35.509C47.8677 35.6929 47.78 35.8617 47.6284 35.9731L40.5207 41.2166C40.2192 41.4391 39.7812 41.3426 39.5406 41.0004C39.4196 40.8286 39.3703 40.6298 39.3899 40.4459C39.4078 40.2595 39.4977 40.0892 39.6471 39.9792L46.7548 34.7358C47.0563 34.5133 47.4981 34.6107 47.7395 34.9527C47.8605 35.1245 47.9072 35.3202 47.8873 35.509Z" fill="#191B1E"/>
<path d="M107.14 23.3132L106.667 49.3418L119.076 50.509L119.548 24.4804L107.14 23.3132Z" fill="#191B1E"/>
<path d="M107.787 38.6133L119.418 39.9749C121.868 40.2619 123.894 38.4171 123.942 35.8557L124.277 18.1867C124.325 15.6242 122.379 13.315 119.929 13.0287L108.298 11.6671C105.848 11.3801 103.824 13.2247 103.774 15.7862L103.44 33.4553C103.391 36.0177 105.338 38.327 107.787 38.6133Z" fill="#27272B"/>
<path d="M107.145 19.6142C107.576 20.2732 107.861 21.6956 107.836 23.3128C107.811 24.9292 107.484 26.2785 107.035 26.8315L107.013 28.3133L107.298 28.3474C107.518 28.3745 107.719 28.4942 107.863 28.6622C108.004 28.8328 108.092 29.0562 108.088 29.2877C108.081 29.7553 107.715 30.0901 107.272 30.0369L106.986 30.0028L106.952 32.2674C106.932 33.5573 107.911 34.7209 109.137 34.8693L118.283 35.9723C119.512 36.1209 120.523 35.1968 120.543 33.9068L120.577 31.6422L120.292 31.608C120.069 31.581 119.871 31.4642 119.727 31.2904C119.584 31.1233 119.498 30.8993 119.502 30.6649C119.509 30.2002 119.876 29.8653 120.318 29.9186L120.604 29.9527L120.626 28.4738C120.198 27.818 119.91 26.3925 119.936 24.7721C119.96 23.152 120.29 21.801 120.737 21.2506L120.765 19.3758C120.786 18.0859 119.807 16.9223 118.577 16.7737L109.431 15.6707C108.205 15.5232 107.194 16.4465 107.174 17.7364L107.145 19.6142ZM108.487 32.9873C108.494 32.582 108.813 32.2899 109.199 32.3365L118.302 33.4342C118.494 33.457 118.67 33.5592 118.793 33.7095C118.917 33.8568 118.992 34.0491 118.988 34.2528C118.982 34.6581 118.665 34.9476 118.28 34.9008L109.176 33.8031C108.982 33.78 108.809 33.6781 108.685 33.5308C108.559 33.3803 108.484 33.1908 108.487 32.9873ZM108.725 17.3886C108.731 16.9833 109.051 16.6912 109.437 16.7378L118.54 17.8355C118.731 17.8584 118.908 17.9605 119.031 18.1108C119.155 18.2581 119.229 18.4504 119.226 18.6542C119.219 19.0595 118.903 19.3481 118.518 19.3021L109.414 18.2044C109.22 18.1813 109.047 18.0794 108.923 17.9322C108.796 17.7818 108.723 17.593 108.725 17.3886Z" fill="#191B1E"/>
<path d="M172.079 146.889L63.9102 175.895L43.88 98.5259C38.4586 77.5851 49.8097 56.867 69.6124 51.5569C79.9669 55.0187 91.0004 52.0601 97.8752 43.9782C117.678 38.6681 138.888 50.655 145.958 71.1536L172.079 146.889Z" fill="#191B1E"/>
<g opacity="0.15">
<path d="M162.015 141.921L70.2342 165.816L52.2622 98.7293C47.3983 80.5714 56.8202 62.788 73.6233 58.4133C82.4826 61.5184 91.8445 59.081 97.6037 52.17C114.406 47.7955 132.611 58.3863 138.875 76.1797L162.015 141.921Z" fill="#4B4A4A"/>
</g>
<path d="M46.824 107.774L145.532 81.2761C148.875 80.3786 152.441 82.4926 153.497 85.9979L177.403 165.395L66.5878 195.143L42.6811 115.746C41.6257 112.241 43.4806 108.671 46.824 107.774Z" fill="#27272B"/>
<path opacity="0.05" d="M56.1319 105.446L136.303 83.9437C139.331 83.1316 142.56 85.0444 143.515 88.2158L167.524 167.877L76.389 192.32L52.3801 112.659C51.4243 109.487 53.104 106.258 56.1319 105.446Z" fill="#B6B5B4"/>
<path d="M130.395 85.9514C130.76 86.2522 131.186 87.0401 131.474 88.0088C131.763 88.9776 131.831 89.8521 131.682 90.2775L131.946 91.166L132.114 91.1256C132.242 91.0943 132.378 91.1228 132.489 91.1928C132.6 91.264 132.692 91.379 132.732 91.5177C132.816 91.7982 132.673 92.0757 132.414 92.1388L132.247 92.1792L132.651 93.537C132.882 94.3099 133.648 94.7948 134.365 94.6218L139.706 93.3256C140.423 93.1515 140.818 92.3852 140.588 91.6112L140.184 90.2533L140.017 90.2937C139.886 90.3255 139.753 90.2982 139.64 90.2248C139.528 90.1559 139.438 90.0404 139.396 89.9001C139.313 89.6214 139.457 89.3439 139.715 89.2807L139.882 89.2404L139.618 88.3536C139.256 88.054 138.828 87.2649 138.539 86.2944C138.249 85.3229 138.182 84.4472 138.33 84.0239L137.996 82.8998C137.766 82.1269 136.999 81.642 136.281 81.8155L130.94 83.1116C130.224 83.2853 129.83 84.0516 130.06 84.8254L130.395 85.9514ZM133.648 93.6375C133.576 93.3948 133.7 93.1526 133.926 93.0981L139.241 91.8085C139.353 91.7816 139.471 91.8051 139.569 91.8682C139.665 91.9296 139.744 92.0282 139.78 92.1508C139.852 92.3935 139.729 92.6336 139.504 92.688L134.188 93.9776C134.074 94.0052 133.958 93.981 133.861 93.9197C133.762 93.8569 133.684 93.7601 133.648 93.6375ZM130.866 84.2873C130.794 84.0446 130.918 83.8024 131.143 83.7479L136.459 82.4583C136.571 82.4312 136.689 82.4549 136.787 82.518C136.883 82.5794 136.961 82.678 136.998 82.8006C137.07 83.0433 136.946 83.2834 136.721 83.3378L131.406 84.6274C131.292 84.655 131.176 84.6308 131.079 84.5695C130.979 84.506 130.902 84.409 130.866 84.2873Z" fill="#4B4A4A"/>
<path d="M55.8992 107.236C56.2642 107.537 56.6901 108.325 56.9785 109.293C57.267 110.262 57.3359 111.137 57.1865 111.562L57.4509 112.451L57.618 112.41C57.7465 112.379 57.8822 112.408 57.9939 112.477C58.1041 112.549 58.1963 112.664 58.2368 112.802C58.3207 113.083 58.1772 113.36 57.9185 113.423L57.7514 113.464L58.1558 114.822C58.3859 115.595 59.1526 116.08 59.8693 115.906L65.21 114.61C65.9273 114.436 66.322 113.67 66.0924 112.896L65.688 111.538L65.5209 111.578C65.3908 111.61 65.2572 111.583 65.1445 111.509C65.0324 111.441 64.9426 111.325 64.9007 111.185C64.8175 110.906 64.9609 110.629 65.2196 110.565L65.3867 110.525L65.1228 109.638C64.7601 109.339 64.332 108.55 64.0429 107.579C63.7537 106.608 63.6861 105.732 63.8344 105.309L63.5002 104.184C63.2701 103.412 62.5034 102.927 61.785 103.1L56.4443 104.396C55.7286 104.57 55.334 105.336 55.5644 106.11L55.8992 107.236ZM59.1532 114.922C59.0811 114.679 59.2057 114.437 59.4309 114.383L64.7463 113.093C64.8577 113.066 64.976 113.09 65.074 113.153C65.1707 113.214 65.2489 113.313 65.2854 113.435C65.3574 113.678 65.234 113.918 65.0088 113.972L59.6933 115.262C59.5795 115.29 59.4636 115.265 59.3662 115.204C59.2665 115.142 59.1896 115.045 59.1532 114.922ZM56.3709 105.572C56.2988 105.329 56.4233 105.087 56.6486 105.032L61.964 103.743C62.0762 103.716 62.1937 103.739 62.2917 103.802C62.3884 103.864 62.4666 103.962 62.5031 104.085C62.5751 104.328 62.4517 104.568 62.2264 104.622L56.911 105.912C56.7972 105.939 56.6813 105.915 56.5838 105.854C56.4839 105.79 56.407 105.693 56.3709 105.572Z" fill="#4B4A4A"/>
<g opacity="0.3">
<path d="M79.6381 166.022L58.0586 171.594L63.9541 190.484L85.5336 184.912L79.6381 166.022Z" fill="#4B4A4A"/>
</g>
<g opacity="0.3">
<path d="M111.602 156.882L84.6128 163.868L90.5349 182.897L117.524 175.911L111.602 156.882Z" fill="#4B4A4A"/>
</g>
<g opacity="0.3">
<path d="M143.594 147.741L116.604 154.728L122.526 173.757L149.516 166.77L143.594 147.741Z" fill="#4B4A4A"/>
</g>
<g opacity="0.3">
<path d="M170.18 140.152L148.6 145.724L154.496 164.614L176.075 159.042L170.18 140.152Z" fill="#4B4A4A"/>
</g>
<g opacity="0.3">
<path d="M72.6449 141.553L51.0654 147.125L56.961 166.015L78.5404 160.443L72.6449 141.553Z" fill="#4B4A4A"/>
</g>
<g opacity="0.3">
<path d="M104.609 132.413L77.6196 139.399L83.5418 158.428L110.531 151.442L104.609 132.413Z" fill="#4B4A4A"/>
</g>
<g opacity="0.3">
<path d="M136.6 123.272L109.61 130.259L115.533 149.288L142.522 142.301L136.6 123.272Z" fill="#4B4A4A"/>
</g>
<g opacity="0.3">
<path d="M163.186 115.683L141.607 121.255L147.502 140.145L169.082 134.574L163.186 115.683Z" fill="#4B4A4A"/>
</g>
<g opacity="0.3">
<path d="M65.6517 117.083L44.0723 122.655L49.9678 141.545L71.5473 135.973L65.6517 117.083Z" fill="#4B4A4A"/>
</g>
<g opacity="0.3">
<path d="M97.616 107.942L70.6265 114.929L76.5486 133.958L103.538 126.971L97.616 107.942Z" fill="#4B4A4A"/>
</g>
<g opacity="0.3">
<path d="M129.607 98.8022L102.618 105.789L108.54 124.818L135.529 117.831L129.607 98.8022Z" fill="#4B4A4A"/>
</g>
<g opacity="0.3">
<path d="M156.193 91.2132L134.614 96.7852L140.509 115.675L162.089 110.103L156.193 91.2132Z" fill="#4B4A4A"/>
</g>
</svg>
