<svg width="26" height="26" viewBox="0 0 26 26" fill="none" xmlns="http://www.w3.org/2000/svg">
<rect width="26" height="26" fill="#A91629"/>
<path d="M17.8574 8.92969H7.14258C6.51386 8.92969 6 9.44128 6 10.0723V16.9277C6 17.5589 6.51419 18.0703 7.14258 18.0703H17.8574C18.4861 18.0703 19 17.5587 19 16.9277V10.0723C19 9.44113 18.4859 8.92969 17.8574 8.92969ZM17.682 9.69141C17.3126 10.062 12.9734 14.4153 12.7951 14.5942C12.6462 14.7435 12.3538 14.7436 12.2049 14.5942L7.31803 9.69141H17.682ZM6.76172 16.7877V10.2123L10.0388 13.5L6.76172 16.7877ZM7.31803 17.3086L10.5765 14.0395L11.6654 15.1319C12.1116 15.5796 12.8886 15.5794 13.3346 15.1319L14.4235 14.0395L17.682 17.3086H7.31803ZM18.2383 16.7877L14.9612 13.5L18.2383 10.2123V16.7877Z" fill="white"/>
</svg>
