<svg width="26" height="26" viewBox="0 0 26 26" fill="none" xmlns="http://www.w3.org/2000/svg">
<rect width="26" height="26" fill="#A91629"/>
<path d="M18.2631 15.4727C18.2432 15.4563 15.9974 13.849 15.388 13.9544C15.0951 14.0061 14.9275 14.2056 14.5919 14.6058C14.5379 14.6702 14.4078 14.8244 14.3073 14.9343C14.0951 14.8651 13.8882 14.7809 13.6881 14.6823C12.6552 14.1794 11.8206 13.3448 11.3177 12.3119C11.2191 12.1118 11.1349 11.9049 11.0658 11.6927C11.176 11.5919 11.3305 11.4618 11.3965 11.4062C11.7944 11.0725 11.9939 10.9049 12.0456 10.6116C12.1518 10.0045 10.5438 7.75675 10.5273 7.7365C10.454 7.63265 10.3586 7.54635 10.248 7.48383C10.1374 7.42132 10.0142 7.38414 9.8875 7.375C9.23575 7.375 7.375 9.7885 7.375 10.1954C7.375 10.219 7.40913 12.6205 10.3705 15.6329C13.3795 18.5909 15.781 18.625 15.8046 18.625C16.2115 18.625 18.625 16.7642 18.625 16.1125C18.6159 15.9857 18.5787 15.8625 18.5161 15.7519C18.4535 15.6412 18.3671 15.5459 18.2631 15.4727ZM15.7634 17.8727C15.4356 17.8457 13.4204 17.5799 10.9008 15.1045C8.41263 12.5714 8.1535 10.5505 8.12762 10.2374C8.61917 9.46587 9.2128 8.76438 9.89237 8.152C9.90737 8.167 9.92725 8.1895 9.95275 8.21875C10.4739 8.93021 10.9229 9.69185 11.293 10.4924C11.1726 10.6135 11.0454 10.7275 10.912 10.834C10.7051 10.9917 10.5151 11.1704 10.345 11.3672L10.2539 11.4948L10.2809 11.6489C10.3602 11.9926 10.4818 12.3253 10.6427 12.6392C11.2195 13.8235 12.1764 14.7803 13.3608 15.3569C13.6746 15.5181 14.0073 15.6398 14.3511 15.7191L14.5052 15.7461L14.6328 15.655C14.8304 15.4842 15.0098 15.2934 15.1683 15.0858C15.2856 14.9455 15.4427 14.7584 15.502 14.7055C16.3048 15.0752 17.0684 15.5247 17.7812 16.0472C17.8124 16.0735 17.8341 16.0938 17.8488 16.1069C17.2365 16.7867 16.535 17.3804 15.7634 17.872V17.8727Z" fill="white"/>
</svg>
