<svg width="114" height="58" fill="none" xmlns="http://www.w3.org/2000/svg"><path d="M2.668 55.281c3.531-2.633 6.624-6.135 9.439-9.513.636-.763 1.127-1.45 2.023-.6 1.851 1.757 3.509 3.463 5.749 4.776 3.607 2.115 9.616-.083 12.641-1.929 6.002-3.661 10.02-10.36 16.237-13.727 1.034-.56 3.202 5.929 4.289 6.929 2.374 2.185 7.132-1.944 9.026-3.053 2.827-1.654 5.924-2.747 8.765-4.382 6.424-3.697 12.403-8.18 17.96-13.072 7.371-6.49 15.215-12.408 22.754-18.69" stroke="#fff" stroke-width="4" stroke-linecap="round"/></svg>