<svg width="735" height="534" fill="none" xmlns="http://www.w3.org/2000/svg"><path fill="#fff" d="M0 0h734.667v533.333H0z"/><rect x="151.73" y="79.939" width="357.333" height="64" rx="32" transform="rotate(-8.675 151.73 79.939)" fill="#fff"/><rect x="152.49" y="80.497" width="356" height="62.667" rx="31.333" transform="rotate(-8.675 152.49 80.497)" stroke="#BB0CA3" stroke-opacity=".1" stroke-width="1.333"/><circle cx="188.191" cy="106.746" r="26.667" transform="rotate(-8.675 188.191 106.746)" fill="#BB0CA3" fill-opacity=".08"/><circle cx="188.191" cy="106.746" r="26" transform="rotate(-8.675 188.191 106.746)" stroke="#BB0CA3" stroke-opacity=".1" stroke-width="1.333"/><rect x="224.092" y="94.524" width="96" height="13.333" rx="6.667" transform="rotate(-8.675 224.092 94.524)" fill="#BB0CA3" fill-opacity=".08"/><rect x="224.851" y="95.083" width="94.667" height="12" rx="6" transform="rotate(-8.675 224.851 95.083)" stroke="#BB0CA3" stroke-opacity=".1" stroke-width="1.333"/><path d="M405.403 64.82a7.293 7.293 0 0 1 2.36.238 6.88 6.88 0 0 1 1.98.86l-1.11 1.575c-.926-.604-1.909-.882-2.949-.834l.685 4.488c.939.16 1.748.387 2.427.681a4.5 4.5 0 0 1 1.707 1.245c.449.53.738 1.212.865 2.048a4.37 4.37 0 0 1-.184 2.13c-.228.678-.635 1.275-1.22 1.792-.587.51-1.324.895-2.214 1.157l.485 3.18-1.568.238-.476-3.114c-.983.083-1.9-.002-2.75-.256a7.56 7.56 0 0 1-2.233-1.075l1.075-1.659a6.454 6.454 0 0 0 1.727.877c.597.19 1.227.259 1.891.21l-.827-5.419c-1.47-.255-2.592-.67-3.366-1.246s-1.237-1.36-1.389-2.356a3.67 3.67 0 0 1 .197-1.9c.232-.61.63-1.144 1.195-1.599.564-.462 1.272-.803 2.124-1.021l-.493-3.234 1.568-.24.493 3.235Zm-1.282 2.11c-.534.178-.931.453-1.192.824-.261.365-.354.796-.278 1.294.048.317.137.584.266.8.136.215.345.405.629.568.289.155.68.299 1.172.43l-.597-3.915Zm3.335 11.344c1.209-.442 1.714-1.312 1.516-2.61-.084-.555-.297-1.003-.636-1.342-.332-.34-.868-.609-1.606-.806l.726 4.758Zm9.727-15.284c1.111-.17 2.086-.064 2.926.317.839.374 1.519.986 2.04 1.836.52.843.873 1.88 1.062 3.114.299 1.96.252 3.61-.142 4.946-.388 1.328-1.129 2.463-2.225 3.405-1.09.934-2.606 1.807-4.547 2.62l-.801-1.693c1.292-.574 2.341-1.173 3.146-1.797.804-.625 1.401-1.332 1.79-2.121.395-.791.577-1.704.545-2.74a5.425 5.425 0 0 1-1.347 1.401 4.012 4.012 0 0 1-1.754.688c-.815.125-1.573.041-2.274-.25-.701-.292-1.291-.77-1.768-1.435-.478-.665-.79-1.477-.936-2.436-.16-1.045-.078-1.983.245-2.815a4.54 4.54 0 0 1 1.548-2.04c.703-.52 1.534-.854 2.492-1Zm1.023 8.078a3.013 3.013 0 0 0 1.434-.606c.409-.321.787-.766 1.136-1.336-.179-1.123-.407-2.01-.683-2.662-.271-.66-.621-1.12-1.051-1.378-.425-.267-.954-.353-1.589-.256-.836.128-1.436.5-1.799 1.116-.358.608-.454 1.449-.291 2.523.156 1.017.479 1.735.971 2.154.498.41 1.122.56 1.872.445Zm14.158-10.107 1.987 13.022 2.985-.456.29 1.904-9.03 1.378-.291-1.904 3.645-.556-1.607-10.534-2.979 2.524-1.298-1.54 4.157-3.51 2.141-.328Zm10.29-1.88c.959-.146 1.825-.105 2.597.124.773.23 1.398.602 1.875 1.12a3.31 3.31 0 0 1 .873 1.803 3.401 3.401 0 0 1-.142 1.682 3.484 3.484 0 0 1-.864 1.371 4.167 4.167 0 0 1-1.421.914 4.447 4.447 0 0 1 1.822.264c.563.21 1.037.558 1.421 1.045.391.48.643 1.094.758 1.844.129.85.024 1.656-.318 2.416-.341.76-.892 1.406-1.653 1.935-.761.522-1.675.864-2.742 1.027a7.04 7.04 0 0 1-2.796-.116 5.62 5.62 0 0 1-2.357-1.234l1.284-1.524a4.13 4.13 0 0 0 1.637.868c.6.16 1.21.192 1.83.097.93-.142 1.625-.495 2.085-1.06.467-.565.636-1.27.507-2.113-.141-.923-.494-1.548-1.06-1.874-.568-.335-1.306-.432-2.214-.294l-1.287.197.009-1.827.908-.14a3.3 3.3 0 0 0 1.28-.46 2.19 2.19 0 0 0 .819-.944c.184-.39.237-.84.159-1.352-.072-.469-.245-.855-.52-1.16a2.095 2.095 0 0 0-1.039-.639 3.138 3.138 0 0 0-1.36-.069c-.606.093-1.133.288-1.582.585-.45.29-.886.7-1.307 1.228l-1.496-1.177c1.103-1.422 2.535-2.268 4.294-2.537Zm15.353 9.256a1.974 1.974 0 0 1 1.868.71c.218.27.355.585.41.946.048.317.05.645.006.984-.045.331-.142.763-.289 1.294l-1.092 4.085-1.882.287.39-4.553a1.9 1.9 0 0 1-.712-.6 2.09 2.09 0 0 1-.359-.908 1.912 1.912 0 0 1 .111-1.013 1.944 1.944 0 0 1 1.549-1.232Zm11.246-13.314c1.103-.168 2.079-.007 2.928.483.849.483 1.553 1.276 2.112 2.378.565 1.094.973 2.463 1.224 4.107.252 1.651.272 3.087.06 4.307-.205 1.22-.64 2.19-1.305 2.91-.664.722-1.548 1.166-2.651 1.335-1.666.254-3.034-.224-4.103-1.433-1.063-1.21-1.785-3.066-2.167-5.568-.38-2.487-.242-4.463.412-5.928.661-1.473 1.824-2.337 3.49-2.59Zm.282 1.85c-.88.134-1.475.708-1.785 1.721-.304 1.006-.3 2.533.013 4.58.233 1.529.505 2.708.816 3.539l2.917-9.243a1.878 1.878 0 0 0-.859-.555c-.317-.092-.684-.106-1.102-.042Zm1.803 11.82c.887-.135 1.483-.705 1.787-1.71.304-1.007.297-2.547-.02-4.624-.215-1.413-.459-2.501-.73-3.264l-2.867 9.136c.248.22.521.367.82.44.299.072.635.08 1.01.022Zm10.889-15.65c1.104-.168 2.08-.007 2.929.483.849.483 1.552 1.276 2.112 2.378.565 1.094.973 2.463 1.224 4.107.252 1.651.272 3.087.059 4.307-.205 1.22-.639 2.19-1.304 2.91-.665.722-1.549 1.167-2.652 1.335-1.665.254-3.033-.223-4.103-1.432-1.062-1.21-1.784-3.067-2.166-5.569-.38-2.487-.242-4.463.412-5.928.661-1.473 1.824-2.337 3.489-2.59Zm.283 1.85c-.88.134-1.475.708-1.785 1.722-.304 1.005-.3 2.532.013 4.58.233 1.528.505 2.708.816 3.538l2.917-9.243a1.878 1.878 0 0 0-.859-.555c-.317-.092-.684-.106-1.102-.042Zm1.803 11.82c.887-.135 1.482-.705 1.786-1.71.304-1.006.298-2.547-.019-4.624-.215-1.413-.459-2.5-.73-3.264l-2.867 9.136c.248.22.521.367.82.44.298.072.635.08 1.01.023Z" fill="#BB0CA3" fill-opacity=".5"/><rect x="333.674" y="90.667" width="357.333" height="64" rx="32" transform="rotate(13.562 333.674 90.667)" fill="#fff"/><rect x="334.166" y="91.471" width="356" height="62.667" rx="31.333" transform="rotate(13.562 334.166 91.471)" stroke="#BB0CA3" stroke-opacity=".1" stroke-width="1.333"/><circle cx="357.278" cy="129.279" r="26.667" transform="rotate(13.562 357.278 129.279)" fill="#BB0CA3" fill-opacity=".08"/><circle cx="357.278" cy="129.279" r="26" transform="rotate(13.562 357.278 129.279)" stroke="#BB0CA3" stroke-opacity=".1" stroke-width="1.333"/><rect x="395.134" y="131.552" width="96" height="13.333" rx="6.667" transform="rotate(13.562 395.134 131.552)" fill="#BB0CA3" fill-opacity=".08"/><rect x="395.626" y="132.357" width="94.667" height="12" rx="6" transform="rotate(13.562 395.626 132.357)" stroke="#BB0CA3" stroke-opacity=".1" stroke-width="1.333"/><path d="M574.202 172.673a7.316 7.316 0 0 1 2.095 1.113 6.888 6.888 0 0 1 1.506 1.545l-1.623 1.038c-.628-.91-1.433-1.539-2.414-1.888l-1.065 4.414c.809.502 1.472 1.019 1.99 1.549a4.5 4.5 0 0 1 1.108 1.797c.216.66.225 1.401.026 2.224a4.393 4.393 0 0 1-.976 1.903c-.468.539-1.071.938-1.808 1.195-.736.25-1.565.328-2.487.233l-.754 3.127-1.543-.372.739-3.063c-.941-.295-1.758-.72-2.449-1.277a7.571 7.571 0 0 1-1.66-1.841l1.622-1.128a6.492 6.492 0 0 0 1.268 1.465c.48.401 1.038.704 1.671.909l1.285-5.328c-1.264-.793-2.146-1.602-2.644-2.427-.499-.826-.63-1.728-.394-2.706a3.668 3.668 0 0 1 .901-1.685c.446-.477 1.016-.82 1.711-1.027.697-.215 1.481-.262 2.353-.142l.767-3.18 1.542.372-.767 3.18Zm-1.986 1.468c-.561-.038-1.033.066-1.415.311-.38.239-.629.603-.747 1.092a2.197 2.197 0 0 0-.056.842c.044.25.166.505.367.763.209.253.516.534.922.842l.929-3.85Zm-1.206 11.762c1.287.048 2.084-.566 2.392-1.843.132-.546.104-1.04-.081-1.482-.179-.441-.573-.892-1.182-1.354l-1.129 4.679Zm18.632-5.544a2.94 2.94 0 0 1-1.043 1.662c-.52.414-1.25.752-2.191 1.013.874.668 1.489 1.402 1.844 2.2.364.793.441 1.622.233 2.487a4.003 4.003 0 0 1-1.148 2.008c-.566.539-1.29.9-2.175 1.084-.878.186-1.852.15-2.923-.108-1.07-.258-1.947-.665-2.631-1.22-.675-.561-1.139-1.205-1.391-1.934a4.058 4.058 0 0 1-.082-2.27c.203-.844.628-1.518 1.275-2.022.649-.511 1.476-.863 2.483-1.056-.693-.609-1.158-1.217-1.395-1.822-.23-.603-.248-1.305-.054-2.106.2-.829.587-1.486 1.161-1.97a4.163 4.163 0 0 1 2.036-.927 5.696 5.696 0 0 1 2.344.081 5.999 5.999 0 0 1 2.17.985 3.97 3.97 0 0 1 1.357 1.7c.282.668.325 1.407.13 2.215Zm-6.893-1.517c-.113.468-.103.876.031 1.223.141.349.379.669.714.96.342.293.826.635 1.452 1.026.716-.233 1.255-.508 1.617-.826.362-.317.609-.753.743-1.306.161-.666.089-1.242-.214-1.728-.301-.493-.81-.826-1.526-.999-.723-.174-1.333-.119-1.829.167-.49.287-.819.781-.988 1.483Zm3.298 8.302c.137-.567.113-1.06-.071-1.48-.177-.418-.472-.796-.885-1.136-.404-.345-1.009-.776-1.815-1.293-1.467.359-2.363 1.212-2.688 2.559-.185.766-.1 1.424.255 1.975.364.545.985.924 1.864 1.136.589.142 1.114.156 1.577.042.47-.111.851-.323 1.144-.635.301-.318.508-.707.619-1.168Zm16.785-5.494-8.985 11.821-2.077-1.232 8.609-11.012-6.721-1.621.451-1.872 9.136 2.204-.413 1.712Zm8.252 5.479c.773.187 1.428.536 1.964 1.048.546.507.917 1.159 1.115 1.957.198.798.175 1.7-.068 2.707-.248 1.028-.677 1.889-1.287 2.582a4.728 4.728 0 0 1-2.179 1.432c-.837.264-1.719.283-2.648.059-1.758-.424-2.896-1.37-3.412-2.837-.516-1.468-.509-3.304.023-5.509.394-1.631.969-3.004 1.725-4.119.764-1.114 1.663-1.902 2.698-2.366 1.034-.463 2.151-.55 3.349-.261 1.12.27 2.055.811 2.805 1.622l-1.295 1.308a3.88 3.88 0 0 0-1.935-1.119 2.7 2.7 0 0 0-1.896.206c-.59.301-1.122.81-1.595 1.529-.467.72-.847 1.611-1.14 2.673 1.149-.938 2.408-1.242 3.776-.912Zm-2.656 7.98c.794.191 1.468.039 2.023-.457.555-.497.956-1.259 1.204-2.287.26-1.078.252-1.898-.025-2.46-.269-.567-.761-.937-1.477-1.11a3.024 3.024 0 0 0-1.695.075 4.307 4.307 0 0 0-1.568.95c-.239 1.083-.348 1.987-.328 2.712.022.718.184 1.29.487 1.715.302.426.762.713 1.379.862Zm13.135.726c.368.089.677.254.927.494.257.242.434.532.533.871.1.332.107.675.021 1.03a3.49 3.49 0 0 1-.366.913c-.168.289-.42.652-.758 1.089l-2.557 3.367-1.85-.447 2.084-4.066a1.888 1.888 0 0 1-.432-.824 2.097 2.097 0 0 1 .011-.977c.084-.347.246-.646.486-.895a1.93 1.93 0 0 1 1.901-.555Zm15.447-8.068c1.085.262 1.928.78 2.528 1.555.603.768.954 1.769 1.055 3.001.109 1.226-.031 2.648-.421 4.265-.392 1.623-.917 2.96-1.575 4.009-.651 1.051-1.421 1.784-2.309 2.2-.888.416-1.874.493-2.959.232-1.638-.395-2.723-1.355-3.256-2.879-.526-1.522-.492-3.514.102-5.974.59-2.446 1.465-4.223 2.625-5.331 1.169-1.114 2.572-1.473 4.21-1.078Zm-.439 1.819c-.865-.209-1.632.097-2.303.918-.662.816-1.236 2.231-1.722 4.244-.362 1.503-.557 2.698-.583 3.585l6.198-7.452a1.877 1.877 0 0 0-.585-.839c-.259-.205-.593-.357-1.005-.456Zm-2.804 11.624c.873.21 1.64-.092 2.301-.908.662-.816 1.24-2.244 1.732-4.286.335-1.39.522-2.489.559-3.298l-6.111 7.372a1.9 1.9 0 0 0 .593.716c.249.181.558.315.926.404Zm16.002-10.365c1.085.262 1.928.78 2.529 1.555.602.768.954 1.768 1.054 3 .109 1.227-.031 2.649-.421 4.265-.392 1.624-.917 2.96-1.575 4.01-.651 1.05-1.421 1.784-2.309 2.2-.888.416-1.874.493-2.959.231-1.638-.395-2.723-1.354-3.256-2.878-.526-1.523-.492-3.514.102-5.974.59-2.446 1.465-4.223 2.625-5.331 1.169-1.114 2.572-1.473 4.21-1.078Zm-.439 1.819c-.865-.209-1.632.097-2.303.918-.662.816-1.236 2.23-1.722 4.244-.362 1.503-.557 2.698-.583 3.584l6.198-7.451a1.871 1.871 0 0 0-.585-.839c-.259-.205-.593-.357-1.005-.456Zm-2.803 11.624c.872.21 1.639-.093 2.301-.908.661-.816 1.239-2.245 1.731-4.287.335-1.389.522-2.489.559-3.297l-6.111 7.371c.146.298.344.537.593.717.249.18.558.315.927.404Z" fill="#BB0CA3" fill-opacity=".5"/><rect x="61.333" y="185.32" width="357.333" height="64" rx="32" transform="rotate(-5.136 61.333 185.32)" fill="#fff"/><rect x="62.057" y="185.924" width="356" height="62.667" rx="31.333" transform="rotate(-5.136 62.057 185.924)" stroke="#BB0CA3" stroke-opacity=".1" stroke-width="1.333"/><circle cx="96.069" cy="214.327" r="26.667" transform="rotate(-5.136 96.07 214.327)" fill="#BB0CA3" fill-opacity=".08"/><circle cx="96.069" cy="214.327" r="26" transform="rotate(-5.136 96.07 214.327)" stroke="#BB0CA3" stroke-opacity=".1" stroke-width="1.333"/><rect x="132.656" y="204.345" width="96" height="13.333" rx="6.667" transform="rotate(-5.136 132.656 204.345)" fill="#BB0CA3" fill-opacity=".08"/><rect x="133.38" y="204.95" width="94.667" height="12" rx="6" transform="rotate(-5.136 133.38 204.95)" stroke="#BB0CA3" stroke-opacity=".1" stroke-width="1.333"/><path d="M315.456 185.892a7.304 7.304 0 0 1 2.341.383 6.89 6.89 0 0 1 1.922.98l-1.205 1.504c-.887-.66-1.851-.998-2.892-1.015l.407 4.522c.927.217 1.721.494 2.381.83a4.5 4.5 0 0 1 1.626 1.348c.416.555.662 1.255.737 2.097a4.365 4.365 0 0 1-.315 2.116c-.27.661-.713 1.232-1.329 1.712-.616.473-1.377.812-2.281 1.018l.288 3.203-1.58.142-.282-3.138c-.986.023-1.896-.119-2.729-.425a7.556 7.556 0 0 1-2.163-1.211l1.175-1.589a6.463 6.463 0 0 0 1.67.981 4.961 4.961 0 0 0 1.875.326l-.491-5.459c-1.452-.345-2.546-.829-3.283-1.451-.737-.622-1.15-1.435-1.24-2.437a3.658 3.658 0 0 1 .314-1.885c.268-.595.699-1.102 1.291-1.522.591-.426 1.319-.722 2.183-.888l-.293-3.258 1.58-.142.293 3.258Zm-1.411 2.027c-.544.144-.957.394-1.24.749-.283.347-.403.772-.358 1.273.029.32.101.592.216.815.123.224.321.426.593.606.279.173.66.34 1.144.502l-.355-3.945Zm2.629 11.528c1.234-.367 1.792-1.205 1.674-2.512-.05-.559-.234-1.019-.552-1.378-.311-.361-.828-.662-1.553-.904l.431 4.794Zm12.207-9.335c.792-.071 1.524.05 2.196.363.68.305 1.241.803 1.684 1.496.443.692.711 1.554.803 2.586.095 1.053-.035 2.006-.391 2.858a4.734 4.734 0 0 1-1.606 2.056c-.707.517-1.537.819-2.489.904-1.801.162-3.182-.369-4.141-1.594-.96-1.224-1.541-2.966-1.744-5.225-.15-1.671-.046-3.156.314-4.455.366-1.3.965-2.335 1.797-3.105.831-.771 1.861-1.211 3.088-1.321 1.148-.104 2.207.109 3.177.637l-.807 1.654a3.878 3.878 0 0 0-2.192-.44 2.699 2.699 0 0 0-1.73.803c-.462.474-.803 1.127-1.021 1.959-.211.832-.285 1.798-.223 2.898.788-1.257 1.883-1.948 3.285-2.074Zm.042 8.41c.813-.073 1.403-.434 1.77-1.082.366-.648.502-1.499.408-2.552-.1-1.104-.371-1.878-.813-2.321-.436-.452-1.021-.645-1.755-.579a3.027 3.027 0 0 0-1.581.615 4.3 4.3 0 0 0-1.181 1.402c.121 1.102.307 1.994.559 2.674.251.673.587 1.163 1.01 1.469.423.306.951.431 1.583.374Zm11.476-14.905c1.118-.1 2.085.066 2.9.498.815.424 1.456 1.077 1.923 1.958.466.873.756 1.931.867 3.173.178 1.976.029 3.619-.447 4.928-.468 1.302-1.279 2.389-2.431 3.261-1.145.865-2.712 1.643-4.7 2.334l-.694-1.739c1.325-.492 2.408-1.025 3.25-1.599.842-.574 1.481-1.243 1.918-2.007.444-.765.681-1.665.713-2.7a5.435 5.435 0 0 1-1.431 1.315 4 4 0 0 1-1.793.578c-.821.074-1.573-.056-2.254-.39-.682-.334-1.241-.848-1.677-1.541-.435-.693-.697-1.523-.783-2.489-.095-1.053.044-1.985.418-2.795a4.558 4.558 0 0 1 1.671-1.94c.734-.476 1.584-.758 2.55-.845Zm.521 8.126a3.023 3.023 0 0 0 1.47-.517c.427-.294.832-.715 1.215-1.262-.109-1.133-.281-2.033-.517-2.7-.229-.675-.55-1.155-.964-1.44-.407-.293-.93-.411-1.57-.353-.842.075-1.464.41-1.865 1.002-.394.585-.542 1.418-.445 2.501.092 1.024.37 1.76.836 2.209.471.441 1.085.628 1.84.56Zm12.113-9.283c.995-.09 1.87.022 2.623.335.752.306 1.346.765 1.782 1.378.435.605.689 1.307.761 2.107a5.752 5.752 0 0 1-.39 2.627c-.332.872-.91 1.854-1.735 2.946-.824 1.092-2.004 2.472-3.538 4.14l6.832-.614-.107 1.987-9.349.84-.167-1.852c1.726-1.986 3.008-3.533 3.845-4.64.838-1.108 1.413-2.039 1.727-2.792.312-.76.435-1.515.367-2.263-.068-.762-.336-1.339-.803-1.729-.468-.397-1.083-.562-1.846-.493-.661.059-1.209.233-1.645.521-.436.281-.854.721-1.254 1.321l-1.699-1.066c.533-.825 1.168-1.464 1.903-1.918.735-.461 1.633-.74 2.693-.835Zm14.709 10.189a1.973 1.973 0 0 1 1.821.825c.201.283.318.605.35.968.029.32.011.648-.054.983a10.36 10.36 0 0 1-.369 1.274l-1.342 4.009-1.896.171.67-4.52a1.885 1.885 0 0 1-.673-.643 2.105 2.105 0 0 1-.303-.928 1.918 1.918 0 0 1 .173-1.004 1.932 1.932 0 0 1 1.623-1.135Zm12.046-12.594c1.111-.1 2.076.121 2.894.663.816.534 1.47 1.369 1.96 2.504.497 1.127.82 2.519.968 4.175.15 1.663.081 3.097-.206 4.302-.28 1.204-.774 2.146-1.482 2.824-.708.679-1.617 1.069-2.729 1.168-1.678.151-3.013-.41-4.006-1.683-.986-1.273-1.592-3.17-1.819-5.691-.225-2.506.034-4.47.778-5.891.75-1.43 1.964-2.22 3.642-2.371Zm.167 1.864c-.886.079-1.515.615-1.887 1.608-.366.985-.456 2.509-.27 4.572.138 1.54.337 2.734.596 3.582l3.482-9.045a1.868 1.868 0 0 0-.823-.607c-.31-.112-.676-.148-1.098-.11Zm1.071 11.909c.893-.08 1.523-.613 1.888-1.598.366-.984.455-2.523.267-4.615-.128-1.424-.304-2.525-.528-3.303l-3.425 8.942c.233.235.497.398.791.489.293.091.629.119 1.007.085Zm11.834-14.948c1.112-.099 2.076.121 2.894.663.817.534 1.47 1.369 1.96 2.504.497 1.127.82 2.519.969 4.175.149 1.663.08 3.097-.207 4.302-.28 1.204-.773 2.146-1.481 2.825-.708.678-1.618 1.068-2.729 1.168-1.678.15-3.014-.411-4.007-1.683-.986-1.274-1.592-3.171-1.819-5.692-.225-2.506.034-4.47.778-5.891.75-1.43 1.964-2.22 3.642-2.371Zm.168 1.864c-.886.079-1.516.616-1.888 1.608-.365.985-.455 2.509-.27 4.572.139 1.54.337 2.734.597 3.582l3.482-9.045a1.876 1.876 0 0 0-.824-.607c-.31-.112-.676-.148-1.097-.11Zm1.07 11.909c.894-.08 1.523-.613 1.889-1.597.365-.985.454-2.524.266-4.616-.128-1.424-.304-2.524-.528-3.303l-3.425 8.942a1.9 1.9 0 0 0 .791.489c.294.091.629.119 1.007.085Z" fill="#BB0CA3" fill-opacity=".5"/><g filter="url(#a)"><rect x="274.667" y="84" width="186.667" height="186.667" rx="32" fill="#BB0CA3" fill-opacity=".04"/><rect x="275.333" y="84.667" width="185.333" height="185.333" rx="31.333" stroke="#BB0CA3" stroke-opacity=".1" stroke-width="1.333"/></g><g filter="url(#b)" shape-rendering="crispEdges"><path d="M327.726 138.667 304 162.203l64 68.464 18.703-20.01L368 189.941h38.071L432 162.203l-23.727-23.536h-80.547Zm64.317 32.951h-48.087l-5.719-6.325 5.719-6.325h48.087l5.719 6.325-5.719 6.325Z" fill="#fff" fill-opacity=".5"/><path d="M368 189.275h-1.5l1.005 1.113 18.293 20.261L368 229.69l-63.071-67.469 23.072-22.888h79.998l23.072 22.888-25.29 27.054H368Zm24.043-16.99h.296l.199-.22 5.719-6.325.404-.447-.404-.447-5.719-6.325-.199-.22H343.66l-.198.22-5.719 6.325-.405.447.405.447 5.719 6.325.198.22h48.383Z" stroke="#fff" stroke-width="1.333"/></g><rect x="272" y="253.26" width="357.333" height="64" rx="32" transform="rotate(-7.492 272 253.26)" fill="#fff"/><rect x="272.748" y="253.835" width="356" height="62.667" rx="31.333" transform="rotate(-7.492 272.748 253.835)" stroke="#BB0CA3" stroke-opacity=".1" stroke-width="1.333"/><circle cx="307.899" cy="280.815" r="26.667" transform="rotate(-7.492 307.899 280.815)" fill="#BB0CA3" fill-opacity=".08"/><circle cx="307.899" cy="280.815" r="26" transform="rotate(-7.492 307.899 280.815)" stroke="#BB0CA3" stroke-opacity=".1" stroke-width="1.333"/><rect x="344.045" y="269.337" width="96" height="13.333" rx="6.667" transform="rotate(-7.492 344.045 269.337)" fill="#BB0CA3" fill-opacity=".08"/><rect x="344.793" y="269.911" width="94.667" height="12" rx="6" transform="rotate(-7.492 344.793 269.911)" stroke="#BB0CA3" stroke-opacity=".1" stroke-width="1.333"/><path d="M525.931 243.383a7.31 7.31 0 0 1 2.355.286 6.9 6.9 0 0 1 1.961.901l-1.142 1.551c-.913-.622-1.891-.921-2.932-.894l.592 4.501c.936.179 1.741.423 2.414.731.68.308 1.24.735 1.68 1.28.438.538.713 1.227.823 2.065a4.378 4.378 0 0 1-.228 2.127c-.242.672-.662 1.26-1.257 1.765-.597.498-1.343.868-2.238 1.111l.42 3.189-1.573.207-.411-3.124c-.985.063-1.899-.041-2.744-.312a7.543 7.543 0 0 1-2.211-1.122l1.109-1.635a6.488 6.488 0 0 0 1.709.912 4.98 4.98 0 0 0 1.886.248l-.715-5.434c-1.464-.286-2.578-.724-3.339-1.315-.762-.592-1.209-1.386-1.34-2.384a3.656 3.656 0 0 1 .236-1.896c.244-.606.653-1.131 1.228-1.574.573-.451 1.288-.776 2.144-.977l-.426-3.243 1.572-.207.427 3.243Zm-1.326 2.083c-.537.167-.94.433-1.208.799-.269.359-.371.788-.305 1.287.042.318.125.587.249.806.132.218.337.412.617.581.286.161.674.312 1.163.454l-.516-3.927Zm3.1 11.41c1.218-.417 1.741-1.277 1.57-2.578-.073-.557-.276-1.009-.608-1.355-.325-.347-.855-.627-1.589-.839l.627 4.772Zm15.157-13.689-4.139 14.26-2.381-.404 4.079-13.37-6.855.902-.251-1.909 9.317-1.226.23 1.747Zm12.392-3.407-.074 1.864-5.749.756.548 4.165a4.918 4.918 0 0 1 1.145-.603 5.461 5.461 0 0 1 1.229-.305c.803-.106 1.54-.008 2.212.294.679.293 1.239.775 1.68 1.445.449.669.737 1.496.867 2.479.131.998.023 1.913-.323 2.746a4.67 4.67 0 0 1-1.651 2.049c-.754.533-1.662.87-2.725 1.009-1.829.241-3.445-.212-4.846-1.36l1.273-1.557c.962.822 2.036 1.155 3.222.999.918-.12 1.601-.493 2.048-1.119.448-.625.605-1.44.473-2.445-.137-1.042-.456-1.765-.958-2.169-.496-.413-1.12-.57-1.872-.471a4.356 4.356 0 0 0-1.026.256 7.506 7.506 0 0 0-1.056.525l-1.79.235-1.011-7.69 8.384-1.103Zm10.725-1.41 1.717 13.059 2.994-.393.251 1.909-9.057 1.191-.251-1.909 3.655-.481-1.389-10.565-3.031 2.462-1.265-1.566 4.228-3.425 2.148-.282Zm12.472 9.615c.376-.05.724-.007 1.043.127.326.134.596.341.81.622.212.274.343.591.39.953.042.318.037.646-.014.984-.052.33-.157.76-.316 1.288l-1.176 4.061-1.888.248.484-4.543a1.9 1.9 0 0 1-.699-.615 2.108 2.108 0 0 1-.341-.915 1.924 1.924 0 0 1 .132-1.01 1.94 1.94 0 0 1 .611-.809c.274-.212.595-.343.964-.391Zm11.518-13.079c1.106-.146 2.079.035 2.918.543.838.5 1.526 1.307 2.062 2.421.543 1.106.922 2.483 1.139 4.132.218 1.656.208 3.091-.029 4.307-.23 1.215-.685 2.175-1.364 2.883-.68.707-1.573 1.133-2.679 1.279-1.67.22-3.028-.286-4.073-1.517-1.037-1.232-1.721-3.102-2.051-5.611-.328-2.495-.15-4.468.535-5.919.691-1.459 1.871-2.298 3.542-2.518Zm.244 1.855c-.882.116-1.489.677-1.82 1.684-.325.999-.352 2.526-.082 4.579.202 1.533.45 2.718.743 3.555l3.107-9.181a1.884 1.884 0 0 0-.847-.573c-.315-.098-.682-.12-1.101-.064Zm1.559 11.855c.889-.117 1.497-.675 1.821-1.674.325-.999.35-2.54.076-4.622-.186-1.418-.407-2.51-.662-3.279l-3.055 9.075c.243.226.513.378.81.456.297.079.634.094 1.01.044Zm11.21-15.422c1.106-.145 2.079.036 2.918.544.838.5 1.526 1.307 2.062 2.421.543 1.105.922 2.483 1.139 4.131.218 1.656.208 3.092-.029 4.308-.23 1.214-.685 2.175-1.364 2.882-.68.708-1.573 1.134-2.679 1.28-1.671.219-3.028-.286-4.073-1.517-1.037-1.232-1.721-3.103-2.051-5.612-.328-2.495-.15-4.467.535-5.918.691-1.459 1.871-2.299 3.542-2.519Zm.244 1.855c-.882.116-1.489.678-1.82 1.685-.325.999-.352 2.525-.082 4.579.202 1.533.449 2.718.743 3.555l3.107-9.181a1.869 1.869 0 0 0-.847-.573c-.315-.098-.682-.12-1.101-.065Zm1.559 11.856c.889-.117 1.496-.675 1.821-1.674.325-.999.35-2.54.076-4.623-.186-1.417-.407-2.51-.663-3.278l-3.054 9.075c.243.225.513.377.81.456.297.079.634.093 1.01.044Z" fill="#BB0CA3" fill-opacity=".5"/><defs><filter id="a" x="232" y="41.334" width="272" height="272" filterUnits="userSpaceOnUse" color-interpolation-filters="sRGB"><feFlood flood-opacity="0" result="BackgroundImageFix"/><feGaussianBlur in="BackgroundImageFix" stdDeviation="21.333"/><feComposite in2="SourceAlpha" operator="in" result="effect1_backgroundBlur_2020_717"/><feBlend in="SourceGraphic" in2="effect1_backgroundBlur_2020_717" result="shape"/></filter><filter id="b" x="272" y="109.333" width="192" height="156" filterUnits="userSpaceOnUse" color-interpolation-filters="sRGB"><feFlood flood-opacity="0" result="BackgroundImageFix"/><feColorMatrix in="SourceAlpha" values="0 0 0 0 0 0 0 0 0 0 0 0 0 0 0 0 0 0 127 0" result="hardAlpha"/><feOffset dy="2.667"/><feGaussianBlur stdDeviation="16"/><feComposite in2="hardAlpha" operator="out"/><feColorMatrix values="0 0 0 0 0.733333 0 0 0 0 0.0470588 0 0 0 0 0.639216 0 0 0 0.08 0"/><feBlend in2="BackgroundImageFix" result="effect1_dropShadow_2020_717"/><feBlend in="SourceGraphic" in2="effect1_dropShadow_2020_717" result="shape"/></filter></defs></svg>