<svg width="22" height="22" fill="none" xmlns="http://www.w3.org/2000/svg"><path d="M7.036 12.495c-.306-.061-.617-.094-.917-.183a79.633 79.633 0 0 1-2.473-.777c-.274-.089-.574-.2-.607-.555-.032-.377.274-.544.537-.671.987-.472 1.98-.927 2.983-1.371 2.628-1.166 5.262-2.331 7.902-3.48 1.094-.477 2.21-.893 3.32-1.337.178-.072.355-.122.537-.167.955-.233 1.427.167 1.287 1.166-.359 2.652-.75 5.3-1.142 7.947-.166 1.098-.365 2.192-.563 3.285a5.453 5.453 0 0 1-.274 1.004c-.268.677-.719.9-1.39.666-.348-.122-.68-.321-.992-.538-1.395-.96-2.779-1.942-4.174-2.908-1.051-.727-1.089-1.182-.171-2.087 1.464-1.448 2.929-2.902 4.388-4.361.16-.161.434-.345.214-.61-.203-.245-.44-.04-.633.093a3892.425 3892.425 0 0 0-6.035 4.151c-.547.378-1.094.739-1.792.744l-.005-.011Z" stroke="#fff" stroke-width="1.333" stroke-miterlimit="10"/></svg>