<svg width="33" height="33" fill="none" xmlns="http://www.w3.org/2000/svg"><path d="M27.813 17.639a.967.967 0 0 1-.96-.867 10.152 10.152 0 0 0-4.32-7.254.964.964 0 0 1-.24-1.346.964.964 0 0 1 1.347-.24 12.153 12.153 0 0 1 5.147 8.64.973.973 0 0 1-.867 1.067h-.107Zm-22.16.067H5.56a.973.973 0 0 1-.867-1.066c.36-3.48 2.2-6.627 5.067-8.654a.976.976 0 0 1 1.347.227c.306.44.2 1.04-.227 1.347-2.4 1.706-3.96 4.346-4.253 7.266a.981.981 0 0 1-.974.88ZM21.987 28.8a12.01 12.01 0 0 1-5.24 1.187 11.9 11.9 0 0 1-5.454-1.293c-.48-.227-.666-.814-.426-1.294.226-.48.813-.666 1.293-.44.84.427 1.733.72 2.64.893 1.227.24 2.48.254 3.707.04.906-.16 1.8-.44 2.626-.84.494-.226 1.08-.04 1.294.454a.947.947 0 0 1-.44 1.293ZM16.733 3.346a3.764 3.764 0 0 0-3.76 3.76c0 2.08 1.68 3.76 3.76 3.76s3.76-1.68 3.76-3.76-1.68-3.76-3.76-3.76ZM7.4 19.16a3.764 3.764 0 0 0-3.76 3.76c0 2.08 1.68 3.76 3.76 3.76s3.76-1.68 3.76-3.76-1.693-3.76-3.76-3.76Zm18.533 0a3.764 3.764 0 0 0-3.76 3.76c0 2.08 1.68 3.76 3.76 3.76s3.76-1.68 3.76-3.76-1.68-3.76-3.76-3.76Z" fill="#fff"/></svg>