<svg width="22" height="22" fill="none" xmlns="http://www.w3.org/2000/svg"><g clip-path="url(#a)" stroke="#fff" stroke-width="1.333"><path d="m20.456 5.409.009.009c.196.197.371.587.499 1.02a6.058 6.058 0 0 1 .162.711v.005l.002.01.006.054a25.97 25.97 0 0 1 .095.981c.053.638.104 1.482.104 2.32v1.617c0 .84-.051 1.683-.104 2.32a33.933 33.933 0 0 1-.095.98l-.006.055-.001.01v.004a6.251 6.251 0 0 1-.036.194 6.066 6.066 0 0 1-.127.518c-.128.432-.303.822-.5 1.02l-.008.009c-.556.58-1.135.64-1.583.686l-.136.015c-1.471.104-3.316.159-4.802.187a181.284 181.284 0 0 1-2.407.03h-.251l-.178-.002a287.05 287.05 0 0 1-2.739-.043c-1.589-.032-3.351-.084-4.188-.161a7.614 7.614 0 0 0-.386-.057c-.532-.07-1.089-.143-1.58-.655l-.007-.008c-.195-.198-.37-.588-.496-1.02a6.084 6.084 0 0 1-.162-.713l-.001-.004-.001-.01-.007-.055a33.654 33.654 0 0 1-.095-.981 29.255 29.255 0 0 1-.104-2.32V10.52c0-.837.053-1.68.106-2.319a32.978 32.978 0 0 1 .097-.98l.007-.055.001-.012v-.005a3.004 3.004 0 0 1 .035-.194 6.46 6.46 0 0 1 .126-.518c.127-.432.301-.821.497-1.018l.009-.01c.555-.58 1.134-.64 1.583-.686l.136-.014c1.47-.107 3.314-.16 4.799-.187a172.867 172.867 0 0 1 2.404-.027h.196v-.667.667h.008v-.667.667h.198a142.165 142.165 0 0 1 2.404.027c1.485.027 3.328.08 4.799.187l.136.014c.448.046 1.027.106 1.582.687Z"/><path d="m10.222 9.407 3.334 1.925-3.334 1.924V9.407Z"/></g><defs><clipPath id="a"><path fill="#fff" transform="translate(.667 .666)" d="M0 0h21.333v21.333H0z"/></clipPath></defs></svg>