<svg width="32" height="33" fill="none" xmlns="http://www.w3.org/2000/svg"><path d="M26.8 14H5.2c-.66 0-1.2.55-1.2 1.222v6.343c0 .244.012.489.036.733.24 3.765 2.52 6.087 6.216 6.332.24.024.48.036.72.036h10.056c.24 0 .48-.012.72-.037 3.696-.244 5.976-2.566 6.216-6.33a7.5 7.5 0 0 0 .036-.734v-6.343c0-.672-.54-1.223-1.2-1.223Zm-15.6 7.516c.408.611.96 1.112 1.596 1.442.456.22.636.77.408 1.235a.901.901 0 0 1-.804.501.903.903 0 0 1-.396-.098 5.857 5.857 0 0 1-2.292-2.053 2.213 2.213 0 0 1 0-2.42 5.857 5.857 0 0 1 2.292-2.053.876.876 0 0 1 1.2.403.912.912 0 0 1-.408 1.234A4.335 4.335 0 0 0 11.2 21.15a.338.338 0 0 0 0 .367Zm11.34 1.027a6.027 6.027 0 0 1-2.292 2.053.945.945 0 0 1-.396.098.888.888 0 0 1-.804-.501c-.228-.465-.048-1.015.396-1.235.648-.33 1.2-.83 1.596-1.442a.298.298 0 0 0 0-.366 4.156 4.156 0 0 0-1.596-1.443c-.444-.22-.624-.77-.396-1.234a.876.876 0 0 1 1.2-.403 6.027 6.027 0 0 1 2.292 2.053c.48.733.48 1.686 0 2.42ZM28 11.297v.217c0 .628-.54 1.141-1.2 1.141l-21.6.011c-.66 0-1.2-.513-1.2-1.14v-.229c0-.228.012-.457.036-.685.24-3.515 2.52-5.683 6.216-5.911.24-.023.48-.034.72-.034h10.056c.24 0 .48.01.72.034 3.696.228 5.976 2.396 6.216 5.911.024.229.036.457.036.685Z" fill="#000"/></svg>