<svg width="22" height="22" fill="none" xmlns="http://www.w3.org/2000/svg"><path d="M6.8 18.644a8.906 8.906 0 0 0 4.533 1.244c4.89 0 8.89-4 8.89-8.889 0-4.889-4-8.889-8.89-8.889-4.889 0-8.889 4-8.889 8.89 0 1.6.445 3.11 1.156 4.444l-.568 2.185a1.333 1.333 0 0 0 1.656 1.618l2.112-.603Z" stroke="#fff" stroke-width="1.333" stroke-miterlimit="10" stroke-linecap="round" stroke-linejoin="round"/><path d="M15.333 13.532c0 .144-.032.292-.1.436a1.806 1.806 0 0 1-.93.88c-.24.1-.5.152-.78.152-.41 0-.846-.096-1.306-.292a7.04 7.04 0 0 1-1.379-.792 11.51 11.51 0 0 1-1.313-1.12 11.37 11.37 0 0 1-1.118-1.308 7.129 7.129 0 0 1-.785-1.364 3.365 3.365 0 0 1-.289-1.308c0-.272.048-.532.144-.772a1.84 1.84 0 0 1 .461-.668c.257-.252.537-.376.833-.376.113 0 .225.024.325.072.104.048.196.12.268.224l.93 1.308c.072.1.124.192.16.28a.63.63 0 0 1 .056.244.542.542 0 0 1-.084.284 1.363 1.363 0 0 1-.224.284l-.305.316a.214.214 0 0 0-.064.16c0 .032.004.06.012.092.012.032.024.056.032.08.072.132.196.304.373.512.18.208.372.42.58.632.217.212.425.408.637.588.209.176.381.296.517.368l.072.032a.277.277 0 0 0 .1.016.22.22 0 0 0 .165-.068l.304-.3c.1-.1.197-.176.289-.224a.534.534 0 0 1 .284-.084.64.64 0 0 1 .244.052c.088.036.18.088.28.156l1.327.94a.607.607 0 0 1 .22.256c.04.1.064.2.064.312Z" stroke="#fff" stroke-width="1.333" stroke-miterlimit="10"/></svg>