<svg width="735" height="534" fill="none" xmlns="http://www.w3.org/2000/svg"><path fill="#fff" d="M.333 0H735v533.333H.333z"/><g filter="url(#a)"><rect x="269.293" y="78.293" width="196.747" height="196.747" rx="32" fill="#BB0CA3" fill-opacity=".04"/><rect x="269.96" y="78.96" width="195.413" height="195.413" rx="31.333" stroke="#BB0CA3" stroke-opacity=".1" stroke-width="1.333"/></g><g clip-path="url(#b)" filter="url(#c)"><path transform="rotate(90 167.833 344.5)" fill="url(#d)" fill-opacity=".04" d="M0 0h144.667v289.333H0z"/></g><path fill-rule="evenodd" clip-rule="evenodd" d="M512.333 50.518V32h-18.517v1.158h17.36v17.36h1.157ZM241.517 321.334H223v-18.518h1.157v17.36h17.36v1.158Zm252.299 0h18.517v-18.518h-1.157v17.36h-17.36v1.158ZM223 50.518V32h18.518v1.158h-17.36v17.36H223Z" fill="#BB0CA3" fill-opacity=".5"/><path stroke="url(#e)" stroke-opacity=".5" stroke-width="1.333" d="M223 176.667h289.333"/><defs><linearGradient id="d" x1="0" y1="144.667" x2="144.667" y2="144.667" gradientUnits="userSpaceOnUse"><stop stop-color="#BB0CA3"/><stop offset="1" stop-color="#BB0CA3" stop-opacity="0"/></linearGradient><linearGradient id="e" x1="223" y1="177.833" x2="512.333" y2="177.833" gradientUnits="userSpaceOnUse"><stop stop-color="#BB0CA3" stop-opacity="0"/><stop offset=".5" stop-color="#BB0CA3"/><stop offset="1" stop-color="#BB0CA3" stop-opacity="0"/></linearGradient><filter id="a" x="-264.04" y="-455.04" width="1263.41" height="1263.41" filterUnits="userSpaceOnUse" color-interpolation-filters="sRGB"><feFlood flood-opacity="0" result="BackgroundImageFix"/><feGaussianBlur in="BackgroundImageFix" stdDeviation="266.667"/><feComposite in2="SourceAlpha" operator="in" result="effect1_backgroundBlur_2020_765"/><feBlend in="SourceGraphic" in2="effect1_backgroundBlur_2020_765" result="shape"/></filter><filter id="c" x="201.667" y="155.333" width="332" height="187.333" filterUnits="userSpaceOnUse" color-interpolation-filters="sRGB"><feFlood flood-opacity="0" result="BackgroundImageFix"/><feGaussianBlur in="BackgroundImageFix" stdDeviation="10.667"/><feComposite in2="SourceAlpha" operator="in" result="effect1_backgroundBlur_2020_765"/><feBlend in="SourceGraphic" in2="effect1_backgroundBlur_2020_765" result="shape"/></filter><clipPath id="b"><path fill="#fff" transform="rotate(90 167.833 344.5)" d="M0 0h144.667v289.333H0z"/></clipPath></defs></svg>