<svg width="32" height="32" fill="none" xmlns="http://www.w3.org/2000/svg"><path d="M17 21.227h.867c.866 0 1.586-.774 1.586-1.707 0-1.16-.413-1.387-1.093-1.627l-1.347-.466v3.8H17Z" fill="#fff"/><path d="M15.96 2.533C8.6 2.56 2.64 8.547 2.667 15.907c.026 7.36 6.013 13.32 13.373 13.293 7.36-.027 13.32-6.013 13.293-13.373C29.307 8.467 23.32 2.52 15.96 2.533ZM19.013 16c1.04.36 2.44 1.133 2.44 3.52 0 2.053-1.613 3.707-3.586 3.707H17V24c0 .547-.453 1-1 1-.547 0-1-.453-1-1v-.773h-.48c-2.187 0-3.96-1.84-3.96-4.107 0-.547.453-1 1-1 .547 0 1 .453 1 1 0 1.16.88 2.107 1.96 2.107H15V16.72L12.987 16c-1.04-.36-2.44-1.133-2.44-3.52 0-2.053 1.613-3.707 3.586-3.707H15V8c0-.547.453-1 1-1 .547 0 1 .453 1 1v.773h.48c2.187 0 3.96 1.84 3.96 4.107 0 .547-.453 1-1 1-.547 0-1-.453-1-1 0-1.16-.88-2.107-1.96-2.107H17v4.507l2.013.72Z" fill="#fff"/><path d="M12.56 12.493c0 1.16.413 1.387 1.093 1.627l1.347.466v-3.813h-.867c-.866 0-1.573.774-1.573 1.72Z" fill="#fff"/></svg>