<svg width="32" height="32" fill="none" xmlns="http://www.w3.org/2000/svg"><path d="M26.8 13.334H5.2c-.66 0-1.2.55-1.2 1.222V20.9c0 .244.012.488.036.733.24 3.764 2.52 6.087 6.216 6.331.24.024.48.037.72.037h10.056c.24 0 .48-.013.72-.037 3.696-.244 5.976-2.567 6.216-6.331A7.51 7.51 0 0 0 28 20.9v-6.344c0-.672-.54-1.222-1.2-1.222Zm-15.6 7.517c.408.61.96 1.112 1.596 1.442.456.22.636.77.408 1.234a.901.901 0 0 1-.804.501.903.903 0 0 1-.396-.097 5.857 5.857 0 0 1-2.292-2.054 2.213 2.213 0 0 1 0-2.42 5.856 5.856 0 0 1 2.292-2.053.876.876 0 0 1 1.2.403.912.912 0 0 1-.408 1.235 4.335 4.335 0 0 0-1.596 1.442.338.338 0 0 0 0 .367Zm11.34 1.026a6.027 6.027 0 0 1-2.292 2.054.945.945 0 0 1-.396.097.888.888 0 0 1-.804-.5c-.228-.465-.048-1.015.396-1.235.648-.33 1.2-.831 1.596-1.442a.298.298 0 0 0 0-.367 4.156 4.156 0 0 0-1.596-1.442c-.444-.22-.624-.77-.396-1.235a.876.876 0 0 1 1.2-.403 6.026 6.026 0 0 1 2.292 2.053c.48.734.48 1.687 0 2.42ZM28 10.63v.217c0 .628-.54 1.142-1.2 1.142L5.2 12c-.66 0-1.2-.514-1.2-1.141v-.229c0-.228.012-.456.036-.684.24-3.515 2.52-5.684 6.216-5.912.24-.023.48-.034.72-.034h10.056c.24 0 .48.011.72.034 3.696.228 5.976 2.397 6.216 5.912.024.228.036.456.036.684Z" fill="#fff"/></svg>