<svg width="166" height="166" viewBox="0 0 166 166" fill="none" xmlns="http://www.w3.org/2000/svg">
<path d="M127.925 21.9998V23.0748H129H143C146.806 23.0748 149.925 26.1936 149.925 30.0005L149.921 126C149.921 128.011 149.316 130.48 148.299 132.835C147.281 135.189 145.899 137.322 144.434 138.699L144.433 138.699L122.085 159.735C120.613 161.122 118.386 162.429 115.962 163.39C113.539 164.351 111.021 164.925 108.998 164.925H41.0002C37.1922 164.925 34.0751 161.806 34.0751 158V144V142.925H33.0001H19.0001C15.1935 142.925 12.075 139.806 12.075 136V8.00008C12.075 4.19347 15.1935 1.075 18.9998 1.075H121.001C124.806 1.075 127.925 4.19341 127.925 8V21.9998ZM32.9995 139.075H34.0745V138V30.0002C34.0745 26.1935 37.1915 23.0751 40.9996 23.0751H123.001H124.076V22.0001V8.00008C124.076 6.32185 122.677 4.9253 121.002 4.9253H18.9998C17.3222 4.9253 15.925 6.32251 15.925 8.00008V136C15.925 137.678 17.3222 139.075 18.9998 139.075H32.9995ZM141.795 135.896L141.796 135.895C142.186 135.527 142.547 135.08 142.874 134.637L144.134 132.925H142.008H121.998C120.323 132.925 118.82 133.605 117.709 134.706L117.703 134.712C116.6 135.822 115.923 137.326 115.923 139V157.402V159.317L117.558 158.319C118.247 157.899 118.913 157.433 119.446 156.931L119.447 156.931L141.795 135.896ZM144.723 129.074H145.581L145.772 128.238C145.943 127.487 146.07 126.71 146.07 126L146.074 29.9999C146.074 28.3223 144.677 26.9251 142.999 26.9251H40.9996C39.3194 26.9251 37.9248 28.323 37.9248 29.9999V158C37.9248 159.676 39.319 161.074 40.9996 161.074H42.0746V161.074H108.998C109.699 161.074 110.468 160.961 111.21 160.811L112.072 160.637V159.757V139.002C112.083 133.524 116.522 129.085 122 129.074H144.723Z" fill="white" stroke="#030D0E" stroke-width="2.15"/>
<path d="M63.0019 51.0745H121.002C122.065 51.0745 122.927 51.9356 122.927 52.9995C122.927 54.0634 122.065 54.9245 121.002 54.9245H63.0019C61.9378 54.9245 61.077 54.0638 61.077 52.9995C61.077 51.9352 61.9376 51.0745 63.0019 51.0745Z" fill="white" stroke="#030D0E" stroke-width="2.15"/>
<path d="M63.0019 91.0748H121.002C122.065 91.0748 122.927 91.9356 122.927 92.9997C122.927 94.0636 122.065 94.9247 121.002 94.9247H63.0019C61.9378 94.9247 61.077 94.064 61.077 92.9997C61.077 91.9354 61.9376 91.0748 63.0019 91.0748Z" fill="white" stroke="#030D0E" stroke-width="2.15"/>
<path d="M63.0019 111.075H95.0016C96.0636 111.075 96.9247 111.935 96.9247 113C96.9247 114.065 96.0636 114.925 95.0016 114.925H63.0019C61.9376 114.925 61.077 114.064 61.077 113C61.077 111.935 61.9376 111.075 63.0019 111.075Z" fill="white" stroke="#030D0E" stroke-width="2.15"/>
<path d="M63.0019 71.0748H121.002C122.065 71.0748 122.927 71.9359 122.927 72.9998C122.927 74.0636 122.065 74.9247 121.002 74.9247H63.0019C61.9378 74.9247 61.077 74.064 61.077 72.9998C61.077 71.9354 61.9376 71.0748 63.0019 71.0748Z" fill="white" stroke="#030D0E" stroke-width="2.15"/>
</svg>
