<svg width="25" height="25" viewBox="0 0 25 25" fill="none" xmlns="http://www.w3.org/2000/svg">
<path d="M17.4031 1.5625H7.59687C6.82545 1.56312 6.0858 1.86984 5.54032 2.41532C4.99484 2.9608 4.68812 3.70045 4.6875 4.47187V20.5281C4.68812 21.2995 4.99484 22.0392 5.54032 22.5847C6.0858 23.1302 6.82545 23.4369 7.59687 23.4375H17.4031C18.1745 23.4369 18.9142 23.1302 19.4597 22.5847C20.0052 22.0392 20.3119 21.2995 20.3125 20.5281V4.47187C20.3119 3.70045 20.0052 2.9608 19.4597 2.41532C18.9142 1.86984 18.1745 1.56312 17.4031 1.5625ZM18.75 20.5281C18.7498 20.8853 18.6078 21.2277 18.3553 21.4803C18.1027 21.7328 17.7603 21.8748 17.4031 21.875H7.59687C7.23973 21.8748 6.89726 21.7328 6.64472 21.4803C6.39218 21.2277 6.25021 20.8853 6.25 20.5281V4.47187C6.25021 4.11473 6.39218 3.77226 6.64472 3.51972C6.89726 3.26718 7.23973 3.12521 7.59687 3.125H17.4031C17.7603 3.12521 18.1027 3.26718 18.3553 3.51972C18.6078 3.77226 18.7498 4.11473 18.75 4.47187V20.5281Z" fill="white"/>
<path d="M14.0625 18.65H10.9375C10.7038 18.65 10.4796 18.7428 10.3144 18.9081C10.1491 19.0734 10.0562 19.2975 10.0562 19.5312C10.0562 19.765 10.1491 19.9891 10.3144 20.1544C10.4796 20.3197 10.7038 20.4125 10.9375 20.4125H14.0625C14.2962 20.4125 14.5204 20.3197 14.6856 20.1544C14.8509 19.9891 14.9437 19.765 14.9437 19.5312C14.9437 19.2975 14.8509 19.0734 14.6856 18.9081C14.5204 18.7428 14.2962 18.65 14.0625 18.65Z" fill="white" stroke="white" stroke-width="0.2"/>
</svg>
