<svg width="62" height="10" viewBox="0 0 62 10" fill="none" xmlns="http://www.w3.org/2000/svg">
<path d="M60.7939 0.965729C59.2745 0.921879 57.754 0.842952 56.2357 0.859396C53.3295 0.888995 50.4223 0.954762 47.5172 1.04356C45.2425 1.11262 42.97 1.2398 40.6953 1.34175C39.7043 1.38669 38.7111 1.40751 37.7223 1.48315C36.637 1.56537 35.5583 1.71995 34.4741 1.80326C33.2781 1.89535 32.0766 1.91946 30.8806 2.01812C29.621 2.12227 28.3669 2.29987 27.1073 2.41059C25.7501 2.53118 24.3908 2.6101 23.0314 2.71096C21.5581 2.82058 20.0858 2.94006 18.6114 3.04201C17.5732 3.11437 16.5329 3.15603 15.4937 3.22838C14.3437 3.30841 13.1948 3.41693 12.0438 3.49696C10.441 3.60768 8.83834 3.70415 7.12161 3.81378C6.99664 4.16458 6.864 4.5351 6.72149 4.93523C4.78222 5.24438 2.75088 5.56777 0.763383 5.88459C0.584694 6.82517 0.743651 6.98193 1.55268 6.846C2.05147 6.76159 2.55465 6.68704 3.05892 6.64757C4.23739 6.55549 5.41914 6.49849 6.59761 6.4075C8.37572 6.27047 10.1527 6.11042 11.9319 5.9712C13.322 5.86157 14.7131 5.76948 16.1043 5.66534C17.5524 5.55681 19.0005 5.44499 20.4487 5.33317C20.4564 5.37483 20.464 5.41539 20.4717 5.45705C19.9817 5.54913 19.4928 5.6456 19.0016 5.73001C18.5653 5.80565 18.1246 5.85937 17.6883 5.9383C17.2257 6.02271 16.7686 6.13234 16.306 6.21785C15.8993 6.29349 15.486 6.33954 15.0804 6.42504C14.7811 6.48753 14.4917 6.59495 14.1968 6.67607C13.2496 6.93479 12.2915 7.15843 11.3608 7.46319C10.9947 7.58268 10.702 7.91264 10.3468 8.08804C10.0036 8.25686 9.71205 8.49256 9.82934 8.85651C9.91376 9.11742 10.201 9.40682 10.463 9.49781C11.6272 9.90342 12.8407 9.82559 14.0477 9.73461C14.3612 9.71049 14.6704 9.64691 14.9817 9.60087C15.2974 9.56798 15.623 9.58991 15.9431 9.5636C16.5044 9.51646 17.0624 9.42437 17.6237 9.37942C18.6256 9.2994 19.6298 9.25445 20.6318 9.17004C22.5425 9.00998 24.4522 8.83568 26.3607 8.66028C27.4077 8.56381 28.4513 8.43008 29.4993 8.35553C30.8148 8.26235 32.1347 8.2163 33.4524 8.14505C34.1715 8.10668 34.8906 8.05405 35.6098 8.01678C36.3333 7.97951 37.059 7.95869 37.7825 7.91813C38.5883 7.87209 39.3929 7.80083 40.1998 7.76246C40.5878 7.74382 40.9781 7.78439 41.3673 7.77891C41.9242 7.77233 42.4822 7.7504 43.039 7.72957C43.1848 7.72409 43.3307 7.69998 43.4765 7.68463C43.4765 7.63201 43.4765 7.57829 43.4765 7.52567C43.2484 7.46428 43.0204 7.34808 42.7924 7.35027C41.8979 7.35685 41.0033 7.3985 40.1088 7.43029C38.87 7.47524 37.6324 7.5169 36.3947 7.57281C35.749 7.60131 35.1044 7.68134 34.4598 7.6923C33.312 7.71093 32.1621 7.65612 31.0165 7.70545C29.9531 7.75149 28.8942 7.89291 27.833 7.99377C26.7872 8.09243 25.7425 8.21412 24.6945 8.28757C23.1465 8.39719 21.5943 8.45529 20.0475 8.57039C19.131 8.63836 18.2211 8.79184 17.3046 8.87405C16.8322 8.91681 16.3531 8.87405 15.8784 8.89378C14.5476 8.94859 13.2178 9.04287 11.8859 9.06261C11.4704 9.06918 11.0517 8.88831 10.634 8.79403C10.6241 8.71729 10.6143 8.64164 10.6044 8.56491C11.4167 8.24042 12.2093 7.85125 13.0457 7.60679C14.2231 7.26257 15.4268 6.99728 16.6294 6.75063C17.6565 6.54015 18.698 6.40201 19.7339 6.23428C20.0814 6.17838 20.429 6.12905 20.7776 6.07643C26.2314 5.25096 31.7039 4.63049 37.2235 4.46386C37.3616 4.43974 37.5063 4.48578 37.6477 4.47701C38.7681 4.40685 39.8873 4.32791 41.0077 4.24898C42.1007 4.17225 43.1914 4.07468 44.2855 4.01658C45.3094 3.96177 46.3355 3.95081 47.3605 3.91134C48.7319 3.85763 50.1022 3.78198 51.4736 3.74032C52.4514 3.71072 53.4315 3.72936 54.4104 3.71511C55.0112 3.70634 55.6119 3.68332 56.2115 3.64605C56.5021 3.62851 56.7904 3.56274 57.185 3.50354C57.082 3.09903 57.0085 2.81181 56.9296 2.50486C57.5259 2.42484 58.2648 2.33713 58.9993 2.22312C59.7404 2.10801 60.4759 1.9655 61.2049 1.83614C61.2444 1.51823 61.2707 1.31434 61.3025 1.06439C61.1008 1.02274 60.9484 0.970114 60.7939 0.965729ZM54.5277 2.21765C53.6365 2.31302 52.7386 2.34042 51.8452 2.41716C51.1239 2.47855 50.4036 2.56406 49.6856 2.65615C49.5847 2.6693 49.4959 2.77344 49.4499 2.80414C41.0702 3.05847 32.7464 3.31169 24.4215 3.56493C34.8687 2.49389 45.362 2.03128 55.8662 1.77147C55.8739 1.8197 55.8816 1.86794 55.8903 1.91618C55.4365 2.01923 54.9881 2.16832 54.5277 2.21765Z" fill="#8655FF"/>
</svg>
