<svg width="164" height="5" viewBox="0 0 164 5" fill="none" xmlns="http://www.w3.org/2000/svg">
<path d="M163.898 2.98086C163.813 2.76805 163.738 2.5848 163.661 2.3912C163.346 2.39268 163.118 2.39416 162.896 2.39564C162.866 2.55229 162.841 2.68088 162.791 2.93359C162.343 2.72079 162.038 2.57595 161.763 2.44442C161.508 2.62767 161.253 2.80944 160.998 2.99269C160.956 2.98087 160.911 2.97053 160.868 2.95871C160.968 2.77693 161.066 2.59368 161.268 2.21979C160.776 2.38678 160.526 2.46511 160.291 2.55526C160.033 2.6528 159.786 2.76213 159.536 2.86558C159.498 2.83011 159.461 2.79613 159.423 2.76066C159.491 2.6779 159.558 2.59516 159.741 2.37497C156.646 2.39566 153.706 2.41485 150.998 2.43259C150.588 2.10894 150.343 1.91387 150.071 1.69663C149.818 1.82815 149.596 1.94492 149.481 2.00699C148.873 1.98482 148.371 1.96707 147.973 1.95229C147.506 2.03653 147.131 2.1577 146.748 2.16213C145.533 2.17839 144.316 2.14737 143.098 2.14442C142.221 2.14146 141.343 2.15478 140.466 2.16069C140.466 2.13409 140.466 2.10748 140.468 2.0794C138.096 2.09566 135.723 2.11041 133.348 2.12666C133.211 2.08972 133.026 2.15624 132.853 2.14737C132.028 2.10156 131.206 1.99219 130.381 1.9848C129.261 1.97445 128.138 2.04835 127.016 2.06165C126.271 2.07199 125.526 2.0321 124.781 2.03062C123.726 2.02914 122.671 2.04246 121.616 2.04985C121.618 2.06315 121.621 2.07642 121.626 2.08972C119.901 2.03799 118.176 1.9863 116.453 1.93457C114.108 1.92127 111.753 1.8533 109.393 1.93901C107.048 2.02473 104.678 1.88135 102.286 1.83701C102.271 1.81337 102.226 1.738 102.153 1.61386C101.991 1.77938 101.878 1.89317 101.896 1.87396C100.003 1.88578 98.2931 1.8976 96.5806 1.90943C96.5756 1.88726 96.5706 1.86658 96.5657 1.84441C95.9757 1.86806 95.3881 1.89022 94.7981 1.91386C94.7806 1.8784 94.7631 1.84145 94.7456 1.80598C87.7656 1.74835 80.7831 1.69073 73.8031 1.63309C73.7981 1.67742 73.7906 1.72174 73.7857 1.7646C73.6007 1.67741 73.4156 1.58875 73.2631 1.51633C72.6906 1.58727 72.1556 1.65376 71.6181 1.72026C71.6231 1.68184 71.6281 1.64344 71.6331 1.60502C70.0106 1.61536 68.3856 1.62718 66.7631 1.63753C66.7706 1.61536 66.7782 1.59316 66.7857 1.571C65.9007 1.57691 65.0156 1.58284 64.1331 1.58875C64.1281 1.56362 64.1206 1.53702 64.1156 1.5119C62.9006 1.51929 61.6856 1.52814 60.4682 1.53553C60.4431 1.51041 60.4156 1.48528 60.3906 1.46016C59.0506 1.46903 57.7081 1.47792 56.3681 1.48679C55.5606 1.53112 54.7682 1.55327 53.9732 1.53849C52.7907 1.51484 51.6106 1.46755 50.4306 1.42765C49.4806 1.39514 48.5306 1.34047 47.5806 1.32865C46.4231 1.31535 45.2656 1.35969 44.1081 1.339C43.4006 1.32718 42.6407 1.1114 42.0057 1.21337C40.6957 1.4247 39.4882 1.29762 38.2182 1.15131C37.5907 1.0789 36.8932 1.21781 36.2257 1.26067C36.2307 1.28432 36.2331 1.30648 36.2381 1.33013C35.3756 1.33604 34.5107 1.34197 33.6007 1.34788C33.5632 1.30059 33.4882 1.20303 33.4707 1.17938C31.9107 1.18973 30.4532 1.22814 29.0032 1.20154C27.5832 1.17494 26.1707 1.05228 24.7507 1.02272C22.6756 0.978389 20.5981 0.972493 18.5206 0.965104C17.9031 0.962148 17.2856 1.00943 16.6656 1.03456C16.6731 1.0183 16.6806 1.00203 16.6856 0.985778C13.3356 0.948832 9.98564 0.910407 6.67814 0.873461C6.67564 0.777401 6.67564 0.724206 6.67564 0.696127C6.67564 0.702039 6.67564 0.70945 6.67564 0.718317C6.67564 0.707972 6.67564 0.699073 6.67564 0.685773C6.67564 0.665083 6.67564 0.669516 6.67564 0.685773C5.45064 0.153751 1.54564 0.824691 1.73564 0.465576C1.15314 0.657695 0.55813 0.854263 0.0106297 1.03604C-0.12187 1.83703 1.01065 3.81437 1.94065 4.39516C2.58815 4.4188 3.30814 4.47348 4.02564 4.46461C6.18814 4.44097 8.34813 4.38038 10.5106 4.35673C12.5731 4.33457 14.6406 4.35822 16.7031 4.32718C18.7956 4.29615 20.8857 4.18235 22.9757 4.17348C27.1982 4.15575 31.4206 4.20897 35.6431 4.18828C40.6881 4.16315 45.7306 4.06562 50.7756 4.04493C59.9281 4.00798 69.0806 4.00205 78.2331 3.98727C85.2181 3.97545 92.2057 3.96512 99.1932 3.96216C104.111 3.96069 109.031 3.98431 113.948 3.97692C119.031 3.96953 124.116 3.93703 129.198 3.9193C133.961 3.90157 138.721 3.89269 143.483 3.872C146.463 3.8587 149.446 3.83358 152.426 3.79959C152.753 3.79663 153.078 3.70501 153.406 3.65328C153.398 3.66954 153.391 3.6858 153.383 3.70058C156.573 3.5927 159.763 3.48335 162.961 3.37547C162.896 3.29271 162.836 3.21732 162.773 3.139C163.156 3.09023 163.481 3.04145 163.898 2.98086Z" fill="#CEFF55"/>
</svg>
