<svg width="25" height="25" viewBox="0 0 25 25" fill="none" xmlns="http://www.w3.org/2000/svg">
<g clip-path="url(#clip0_2201_30482)">
<path d="M10.9347 16.8527C10.8164 16.8527 10.7026 16.8059 10.6189 16.7222L7.49386 13.596C7.31975 13.4219 7.31975 13.1385 7.49386 12.9643C7.66797 12.7902 7.95033 12.7902 8.12556 12.9643L10.8968 15.7378L16.8354 8.31367C16.9894 8.12171 17.2695 8.09046 17.4626 8.24448C17.6546 8.39849 17.6858 8.67974 17.5318 8.87171L11.2818 16.6853C11.2026 16.7847 11.0843 16.8449 10.9581 16.8527C10.9503 16.8527 10.9414 16.8527 10.9336 16.8527H10.9347Z" fill="#283655"/>
<path d="M12.5 25C5.60714 25 0 19.3929 0 12.5C0 5.60714 5.60714 0 12.5 0C19.3929 0 25 5.60714 25 12.5C25 19.3929 19.3929 25 12.5 25ZM12.5 0.892857C6.09933 0.892857 0.892857 6.09933 0.892857 12.5C0.892857 18.9007 6.09933 24.1071 12.5 24.1071C18.9007 24.1071 24.1071 18.9007 24.1071 12.5C24.1071 6.09933 18.9007 0.892857 12.5 0.892857Z" fill="#283655"/>
</g>
<defs>
<clipPath id="clip0_2201_30482">
<rect width="25" height="25" fill="white"/>
</clipPath>
</defs>
</svg>
