<svg width="33" height="33" viewBox="0 0 33 33" fill="none" xmlns="http://www.w3.org/2000/svg">
<circle cx="16.5" cy="16.5" r="16" stroke="white"/>
<path d="M21.2143 19.8526C21.2143 19.8018 21.2143 19.751 21.1925 19.7003C21.1417 19.5479 20.7863 19.3883 20.6412 19.3158C20.2277 19.0836 19.8069 18.8587 19.4007 18.6193C19.2121 18.5033 18.9799 18.2856 18.755 18.2856C18.3125 18.2856 17.6669 19.5987 17.2751 19.5987C17.0792 19.5987 16.8253 19.4173 16.6512 19.3158C15.3309 18.5831 14.4169 17.669 13.6842 16.3487C13.5826 16.1746 13.4012 15.9207 13.4012 15.7248C13.4012 15.3331 14.7143 14.6874 14.7143 14.2449C14.7143 14.02 14.4967 13.7879 14.3806 13.5993C14.1412 13.193 13.9163 12.7723 13.6842 12.3587C13.6116 12.2137 13.452 11.8582 13.2997 11.8074C13.2489 11.7856 13.1981 11.7856 13.1473 11.7856C12.8862 11.7856 12.3783 11.9017 12.139 12.0105C11.7835 12.1629 11.5513 12.5691 11.37 12.8956C11.1378 13.3236 11 13.7589 11 14.2449C11 14.9196 11.2757 15.5289 11.5006 16.1456C11.6602 16.5881 11.856 17.0161 12.1027 17.4151C12.8644 18.6484 14.3516 20.1355 15.5848 20.8973C15.9838 21.1439 16.4118 21.3398 16.8544 21.4994C17.471 21.7243 18.0804 21.9999 18.755 21.9999C19.2411 21.9999 19.6763 21.8621 20.1044 21.63C20.4308 21.4486 20.8371 21.2164 20.9894 20.861C21.0982 20.6216 21.2143 20.1138 21.2143 19.8526Z" fill="white"/>
</svg>
