<svg width="47" height="26" viewBox="0 0 47 26" fill="none" xmlns="http://www.w3.org/2000/svg">
<rect x="0.5" y="0.5" width="46" height="25" rx="2.5" stroke="#2C3946"/>
<g clip-path="url(#clip0_2_283)">
<path fill-rule="evenodd" clip-rule="evenodd" d="M24.3917 9.47939V10.5091H22.9912V9.47939C22.9912 9.18796 22.8601 9.06006 22.5994 9.06006H21.8838V9.73682H22.1752C22.2092 9.73682 22.2092 9.7692 22.2092 9.7692V12.6673H22.9912V11.2182H24.3917V12.6673H25.1737V9.77082L25.2077 9.73844H25.4991V9.06168H24.8159C24.5212 9.06168 24.3933 9.1912 24.3933 9.48101L24.3917 9.47939Z" fill="#2C3946"/>
<path fill-rule="evenodd" clip-rule="evenodd" d="M27.9293 9.03245L27.5667 8.99683H27.5489C26.5062 8.99521 25.6594 9.79988 25.6594 10.8328C25.6594 11.8658 26.5062 12.732 27.5489 12.732H27.5667L27.9293 12.6931C28.789 12.5199 29.4383 11.7605 29.4383 10.8328C29.4383 9.90511 28.789 9.20083 27.9293 9.03245ZM27.9649 11.9014L27.5667 11.9872L27.5489 11.9904C26.9628 11.9904 26.5062 11.4756 26.5062 10.8312C26.5062 10.1868 26.9628 9.73511 27.5489 9.73511L27.5667 9.73835L27.9649 9.82092C28.3487 9.98445 28.6255 10.3714 28.6255 10.8312C28.6255 11.291 28.3487 11.7249 27.9649 11.8998V11.9014Z" fill="#2C3946"/>
<path fill-rule="evenodd" clip-rule="evenodd" d="M29.9289 12.2496C29.9289 12.541 30.0584 12.6689 30.319 12.6689H31.2629C32.0109 12.6689 32.5323 12.2496 32.5323 11.5728C32.5323 11.2199 32.338 10.8977 32.0449 10.7698C32.2069 10.6079 32.3704 10.3812 32.3704 10.0282C32.3704 9.44701 31.9478 9.06006 31.2306 9.06006H29.6018V9.73682H29.9289V12.2496ZM30.7092 9.73682H31.2306C31.4605 9.73682 31.5884 9.86634 31.5884 10.0914C31.5884 10.3164 31.4589 10.4783 31.2306 10.4783H30.7092V9.73682ZM30.7092 11.1211H31.2953C31.556 11.1211 31.7211 11.283 31.7211 11.5404C31.7211 11.7979 31.556 11.9598 31.2953 11.9598H30.7432C30.7206 11.9598 30.7092 11.949 30.7092 11.9274V11.1211Z" fill="#2C3946"/>
<path fill-rule="evenodd" clip-rule="evenodd" d="M35.1698 12.3144C35.2362 12.5719 35.3657 12.669 35.6264 12.669H36.0829V11.9615H35.9518C35.9086 11.9615 35.8768 11.9507 35.8563 11.9291L34.8136 9.06177H34.0316L32.9889 11.9291C32.9684 11.9507 32.9355 11.9615 32.8902 11.9615H32.7283V12.669H33.2188C33.4795 12.669 33.609 12.5719 33.6738 12.3468L33.9037 11.7656H34.9447L35.1714 12.3144H35.1698ZM34.4218 11.0921H34.0964L34.357 10.3505C34.357 10.2534 34.391 10.1579 34.4218 10.0931C34.4558 10.1579 34.4882 10.2534 34.4882 10.3505L34.7472 11.0921H34.4218Z" fill="#2C3946"/>
<path fill-rule="evenodd" clip-rule="evenodd" d="M25.1397 16.5661V14.1181C25.1397 13.8266 24.9778 13.6987 24.7171 13.6987H21.8838V14.3755H22.2092V17.3076H22.9912V14.3755H24.2946C24.3286 14.3755 24.3286 14.4079 24.3286 14.4079V16.8866C24.3286 17.1781 24.4581 17.306 24.7511 17.306H25.4344V16.5952H25.1737C25.151 16.5952 25.1397 16.585 25.1397 16.5644V16.5661Z" fill="#2C3946"/>
<path fill-rule="evenodd" clip-rule="evenodd" d="M27.8744 13.6711L27.5004 13.6355H27.4842C26.4416 13.6339 25.6272 14.4385 25.6272 15.4715C25.6272 16.5045 26.4416 17.3706 27.4842 17.3706H27.5004L27.8744 17.3318C28.7503 17.1585 29.3737 16.3992 29.3737 15.4715C29.3737 14.5438 28.7503 13.8395 27.8744 13.6711ZM27.9133 16.5401L27.5004 16.6259L27.4842 16.6291C26.8965 16.6291 26.4416 16.1143 26.4416 15.4699C26.4416 14.8255 26.8965 14.3738 27.4842 14.3738L27.5004 14.377L27.9133 14.4596C28.3035 14.6231 28.5593 15.0101 28.5593 15.4699C28.5593 15.9297 28.3019 16.3636 27.9133 16.5385V16.5401Z" fill="#2C3946"/>
<path fill-rule="evenodd" clip-rule="evenodd" d="M33.3809 14.1181V16.5661C33.3809 16.5866 33.3695 16.5968 33.3469 16.5968H32.403V13.6987H31.621V16.5968H30.6771C30.6544 16.5968 30.6431 16.5866 30.6431 16.5661V14.1181C30.6431 13.8266 30.5135 13.6987 30.2529 13.6987H29.5356V14.3755H29.8303C29.8611 14.3755 29.8611 14.4079 29.8611 14.4079V16.8866C29.8611 17.1781 29.9922 17.306 30.2836 17.306H33.7695C34.0301 17.306 34.1596 17.1764 34.1596 16.8866V14.4079C34.1596 14.4079 34.1596 14.3755 34.1936 14.3755H34.4883V13.6987H33.7711C33.5104 13.6987 33.3809 13.8283 33.3809 14.1181Z" fill="#2C3946"/>
<path fill-rule="evenodd" clip-rule="evenodd" d="M37.9401 14.6977V14.0857C37.9401 13.8283 37.8413 13.6987 37.5483 13.6987H35.1051C34.8445 13.6987 34.7473 13.8283 34.7473 14.0857V14.6977H35.4646V14.4095C35.4646 14.3879 35.4759 14.3771 35.4986 14.3771H35.9535V17.3092H36.7371V14.3771H37.1921C37.2147 14.3771 37.2261 14.3879 37.2261 14.4095V14.6977H37.9433H37.9401Z" fill="#2C3946"/>
<path fill-rule="evenodd" clip-rule="evenodd" d="M40.8706 16.5983C40.8263 16.5983 40.7934 16.588 40.7718 16.5675L39.7275 13.7002H38.9471L37.9045 16.5675C37.884 16.588 37.851 16.5983 37.8057 16.5983H37.6438V17.3091H38.1311C38.3918 17.3091 38.5229 17.2119 38.5877 16.9545L38.8144 16.4056H39.857L40.0837 16.9545C40.1501 17.2119 40.2796 17.3091 40.5403 17.3091H40.9968V16.5983H40.8673H40.8706ZM39.3389 15.7305H39.0135L39.2742 14.989C39.2742 14.8918 39.3049 14.7963 39.3389 14.7315C39.3729 14.7963 39.4037 14.8918 39.4037 14.989L39.6644 15.7305H39.3389Z" fill="#2C3946"/>
<path fill-rule="evenodd" clip-rule="evenodd" d="M16.9991 10.6709C16.9506 10.6062 16.9004 10.5835 16.8647 10.5948C16.8275 10.6062 16.8032 10.6547 16.8032 10.7357V15.3419C16.8032 15.4245 16.8275 15.4811 16.8647 15.5006C16.902 15.52 16.9506 15.5038 16.9991 15.4406L19.2124 13.2501C19.3419 13.1546 19.3419 12.9586 19.2124 12.8307L16.9991 10.6726V10.6709Z" fill="#2C3946"/>
<path fill-rule="evenodd" clip-rule="evenodd" d="M13.3839 7.06388L13.2333 7.00073H13.0763L12.9273 7.06388L10.6461 9.31921C10.5473 9.44873 10.5813 9.54588 10.7449 9.54588H11.7535C11.9187 9.54588 12.0482 9.6754 12.0482 9.8373V11.5114C12.0482 11.6733 12.1793 11.8028 12.3429 11.8028H14.0024C14.1983 11.8028 14.3294 11.6733 14.3294 11.5114V9.8373C14.3294 9.6754 14.4589 9.54588 14.6209 9.54588H15.5648C15.7267 9.54588 15.7607 9.44873 15.6635 9.31921L13.3839 7.06388Z" fill="#2C3946"/>
<path fill-rule="evenodd" clip-rule="evenodd" d="M9.50629 10.5463C9.46743 10.5269 9.41076 10.5431 9.34438 10.6062L7.09714 12.8292C6.96762 12.9587 6.96762 13.153 7.09714 13.2485L9.34438 15.5038C9.41076 15.5524 9.46743 15.5686 9.50629 15.5524C9.54676 15.5362 9.57267 15.4876 9.57267 15.4067V10.705C9.57267 10.6224 9.54676 10.5657 9.50629 10.5463Z" fill="#2C3946"/>
<path fill-rule="evenodd" clip-rule="evenodd" d="M15.5001 16.6307H14.6209C14.459 16.6307 14.3295 16.5012 14.3295 16.3085V14.5373C14.3295 14.3754 14.1983 14.2458 14.0024 14.2458H12.3429C12.181 14.2458 12.0483 14.3754 12.0483 14.5373V16.3085C12.0483 16.5012 11.9187 16.6307 11.7536 16.6307H10.8097C10.6478 16.6307 10.583 16.7262 10.7142 16.8234L12.9274 19.0447C12.9922 19.1095 13.0747 19.1418 13.1541 19.1418C13.2334 19.1418 13.316 19.1095 13.384 19.0447L15.5972 16.8234C15.7267 16.7262 15.662 16.6307 15.4984 16.6307H15.5001Z" fill="#2C3946"/>
</g>
<defs>
<clipPath id="clip0_2_283">
<rect width="34" height="12.1442" fill="white" transform="translate(7 7)"/>
</clipPath>
</defs>
</svg>
