<svg width="32" height="36" viewBox="0 0 32 36" fill="none" xmlns="http://www.w3.org/2000/svg">
<path d="M15.9432 33.5041H15.9232C8.03655 33.4646 1.65929 27.0458 1.69927 19.1973C1.73925 11.615 7.73668 5.43283 15.2435 5.04829L15.2235 8.35137L19.9614 4.2102L15.2734 0L15.2535 3.34252C11.8349 3.50028 8.69627 4.73277 6.16735 6.70476C6.10738 6.73434 6.0574 6.77378 6.00742 6.82308C6.00742 6.82308 6.00742 6.83294 5.98743 6.8428C5.1178 7.54286 4.31815 8.32179 3.60845 9.18947C3.56847 9.21905 3.53848 9.24863 3.50849 9.28807C3.46851 9.33737 3.43852 9.38667 3.41853 9.43596C2.72883 10.3135 2.12909 11.2502 1.6293 12.2559C1.6193 12.2756 1.60931 12.2855 1.59931 12.3052C1.59931 12.3249 1.58932 12.3446 1.57932 12.3545C1.07954 13.3898 0.689704 14.4843 0.41982 15.6379C0.41982 15.6477 0.41982 15.6576 0.409824 15.6674C0.409824 15.6773 0.409824 15.6872 0.409824 15.697C0.149936 16.8211 0 17.9845 0 19.1874C0 19.1874 0 19.2072 0 19.217C0 19.2269 0 19.2367 0 19.2466C0 20.4298 0.129944 21.5736 0.369841 22.6877C0.369841 22.7173 0.369841 22.7469 0.369841 22.7666C0.369841 22.7962 0.389833 22.8258 0.399828 22.8553C0.659717 23.9794 1.03955 25.0541 1.51935 26.0697C1.51935 26.0894 1.52934 26.1091 1.53934 26.1288C1.53934 26.1486 1.55933 26.1584 1.56933 26.1781C2.06911 27.2036 2.67885 28.1699 3.36855 29.0573C3.38854 29.0967 3.40854 29.1263 3.43852 29.1657C3.45851 29.1953 3.47851 29.2052 3.50849 29.2347C4.20819 30.1024 4.99785 30.9011 5.86748 31.6011C5.89747 31.6307 5.92745 31.6701 5.96744 31.6899C6.00742 31.7194 6.0574 31.749 6.09738 31.7786C6.977 32.4688 7.9266 33.0702 8.94616 33.5731C8.96615 33.5731 8.97615 33.5928 8.99614 33.6027C9.00613 33.6027 9.02612 33.6027 9.04612 33.6224C10.0857 34.1253 11.1852 34.5098 12.3347 34.7859C12.3447 34.7859 12.3647 34.7957 12.3747 34.7957C12.3847 34.7957 12.3947 34.7957 12.4047 34.7957C13.5342 35.0521 14.7037 35.2 15.9132 35.2H15.9332C16.403 35.2 16.7828 34.8253 16.7828 34.352C16.7828 33.8886 16.403 33.5041 15.9332 33.5041H15.9432Z" fill="white"/>
<path d="M27.2786 9.30779C27.1187 9.46554 27.0287 9.68246 27.0287 9.90924C27.0287 10.136 27.1187 10.3529 27.2786 10.5008C27.4386 10.6586 27.6585 10.7473 27.8784 10.7473C28.0983 10.7473 28.3182 10.6586 28.4781 10.5008C28.6381 10.3431 28.728 10.1262 28.728 9.90924C28.728 9.69232 28.6381 9.46554 28.4781 9.30779C28.1583 8.99227 27.5885 8.99227 27.2786 9.30779Z" fill="white"/>
<path d="M29.6776 13.6264C29.7976 13.6264 29.9275 13.5969 30.0475 13.5377C30.4673 13.3405 30.6472 12.8278 30.4473 12.4137C30.2474 11.9897 29.7376 11.8122 29.3078 12.0094C28.888 12.2165 28.708 12.7193 28.9079 13.1433C29.0479 13.449 29.3577 13.6264 29.6776 13.6264Z" fill="white"/>
<path d="M29.9575 16.1506C30.0474 16.545 30.3973 16.8112 30.7871 16.8112C30.8471 16.8112 30.9071 16.8112 30.9771 16.7915C31.4369 16.6929 31.7267 16.2393 31.6268 15.7858C31.5268 15.3322 31.067 15.0364 30.6072 15.1449C30.1474 15.2435 29.8575 15.697 29.9675 16.1604L29.9575 16.1506Z" fill="white"/>
<path d="M19.1321 33.159C18.6723 33.2675 18.3825 33.7111 18.4924 34.1746C18.5824 34.569 18.9322 34.8352 19.3221 34.8352C19.382 34.8352 19.452 34.8352 19.512 34.8155C19.9718 34.7169 20.2617 34.2633 20.1617 33.7999C20.0617 33.3463 19.6019 33.0505 19.1421 33.159H19.1321Z" fill="white"/>
<path d="M22.1508 32.1237C21.721 32.3209 21.5511 32.8238 21.751 33.2477C21.9009 33.5534 22.2008 33.7309 22.5207 33.7309C22.6406 33.7309 22.7706 33.7013 22.8905 33.652C23.3203 33.4548 23.4903 32.9421 23.2904 32.5181C23.0904 32.0941 22.5807 31.9166 22.1608 32.1237H22.1508Z" fill="white"/>
<path d="M29.9875 25.1034C29.5677 24.8964 29.0579 25.0738 28.848 25.4978C28.648 25.9218 28.818 26.4246 29.2378 26.6317C29.3577 26.6909 29.4877 26.7204 29.6076 26.7204C29.9175 26.7204 30.2274 26.543 30.3673 26.2472C30.5672 25.8331 30.3973 25.3203 29.9775 25.1133L29.9875 25.1034Z" fill="white"/>
<path d="M30.9471 21.8595C30.4973 21.751 30.0375 22.037 29.9275 22.4905C29.8175 22.9441 30.1074 23.3976 30.5672 23.516C30.6272 23.5258 30.6972 23.5357 30.7571 23.5357C31.147 23.5357 31.4968 23.2695 31.5868 22.8849C31.6967 22.4314 31.4069 21.9778 30.9471 21.8694V21.8595Z" fill="white"/>
<path d="M24.8697 30.4376C24.4998 30.7236 24.4399 31.256 24.7297 31.6208C24.8997 31.8279 25.1496 31.9462 25.3994 31.9462C25.5894 31.9462 25.7693 31.8871 25.9292 31.7687C26.2991 31.4828 26.359 30.9504 26.0692 30.5757C25.7793 30.2109 25.2495 30.1517 24.8797 30.4376H24.8697Z" fill="white"/>
<path d="M31.147 18.4874C30.6772 18.4874 30.2973 18.8621 30.2973 19.3255C30.2973 19.7889 30.6672 20.1734 31.147 20.1734C31.6168 20.1734 31.9966 19.7988 31.9966 19.3353C31.9966 18.8621 31.6168 18.4874 31.147 18.4874Z" fill="white"/>
<path d="M28.3382 28.0614C27.9683 27.7656 27.4386 27.8248 27.1487 28.1896C26.8488 28.5544 26.9088 29.0868 27.2786 29.3826C27.4386 29.5009 27.6185 29.57 27.8084 29.57C28.0583 29.57 28.3082 29.4615 28.4681 29.2544C28.758 28.8896 28.708 28.3572 28.3382 28.0614Z" fill="white"/>
<path d="M21.2128 22.067C21.2128 22.0162 21.2128 21.9654 21.191 21.9146C21.1402 21.7623 20.7848 21.6027 20.6397 21.5301C20.2262 21.298 19.8054 21.0731 19.3992 20.8337C19.2105 20.7176 18.9784 20.5 18.7535 20.5C18.311 20.5 17.6653 21.8131 17.2736 21.8131C17.0777 21.8131 16.8238 21.6317 16.6497 21.5301C15.3294 20.7974 14.4153 19.8834 13.6826 18.5631C13.5811 18.389 13.3997 18.135 13.3997 17.9392C13.3997 17.5474 14.7128 16.9018 14.7128 16.4593C14.7128 16.2344 14.4951 16.0022 14.3791 15.8136C14.1397 15.4074 13.9148 14.9866 13.6826 14.5731C13.6101 14.428 13.4505 14.0725 13.2981 14.0218C13.2474 14 13.1966 14 13.1458 14C12.8846 14 12.3768 14.1161 12.1374 14.2249C11.782 14.3772 11.5498 14.7835 11.3685 15.1099C11.1363 15.5379 10.9985 15.9732 10.9985 16.4593C10.9985 17.1339 11.2742 17.7433 11.499 18.3599C11.6586 18.8025 11.8545 19.2305 12.1012 19.6295C12.8629 20.8627 14.35 22.3499 15.5833 23.1116C15.9823 23.3583 16.4103 23.5541 16.8528 23.7137C17.4695 23.9386 18.0788 24.2143 18.7535 24.2143C19.2396 24.2143 19.6748 24.0765 20.1028 23.8443C20.4293 23.6629 20.8355 23.4308 20.9879 23.0753C21.0967 22.8359 21.2128 22.3281 21.2128 22.067Z" fill="white"/>
</svg>
