<svg width="239" height="100" viewBox="0 0 239 100" fill="none" xmlns="http://www.w3.org/2000/svg">
<path d="M0 79.6992V95.3886H5.31058C10.3567 95.3886 12.4281 91.8849 12.4281 87.3015C12.4281 82.652 10.0042 79.6992 5.28854 79.6992H0ZM0.94753 80.5366H5.24447C9.58548 80.5366 11.4805 83.3131 11.4805 87.3676C11.4805 91.6645 9.7838 94.5512 4.98004 94.5512H0.94753V80.5366Z" fill="white"/>
<path d="M19.7657 84.0182C17.4961 84.0182 16.196 84.8776 15.3586 87.0811V84.1063H14.4992V95.3886H15.3807V90.5187C15.3807 89.0643 15.4247 87.6541 16.3282 86.4421C17.0774 85.4505 18.1571 84.9217 19.4352 84.9217H19.7657V84.0182Z" fill="white"/>
<path d="M30.1075 91.5544H29.2261C28.7854 93.7579 27.3751 95.0139 25.3037 95.0139C22.3289 95.0139 21.0729 92.5239 21.0729 89.9237H30.2177V89.6152C30.2177 86.5302 28.6311 83.7978 25.2817 83.7978C22.2408 83.7978 20.1474 86.2658 20.1474 89.8576C20.1474 93.4494 22.1747 95.7632 25.2817 95.7632C27.97 95.7632 29.7109 94.0223 30.1075 91.5544ZM29.3142 89.1525H21.0729C21.3153 86.7286 22.5052 84.5911 25.2817 84.5911C28.0141 84.5911 29.3142 86.8608 29.3142 89.1525Z" fill="white"/>
<path d="M41.8426 94.5953C41.5782 94.6614 41.468 94.6834 41.2697 94.6834C40.4544 94.6834 40.4544 94.1325 40.4544 93.4715V87.632C40.4544 86.6845 40.4764 85.759 39.8154 85.0098C39.1102 84.2165 37.9203 83.7978 36.466 83.7978C33.8217 83.7978 32.2792 85.12 32.125 87.5659H32.9623C33.1386 85.5827 34.2844 84.547 36.3778 84.547C38.4492 84.547 39.573 85.4505 39.573 87.1472C39.573 87.6541 39.5509 88.1168 39.4187 88.3151C39.1102 88.7999 38.7797 88.844 35.8269 89.0864C33.6674 89.2627 31.508 89.9898 31.508 92.546C31.508 94.5292 32.8962 95.6971 35.232 95.6971C37.3915 95.6971 38.6916 94.8377 39.6391 92.9867V93.5376C39.6391 94.9919 39.9476 95.4326 40.9392 95.4326C41.2918 95.4326 41.5341 95.4106 41.8426 95.3004V94.5953ZM39.595 88.9982V90.9814C39.595 93.2511 37.8101 94.9258 35.3862 94.9258C33.5793 94.9258 32.4555 93.9783 32.4555 92.4578C32.4555 91.5103 32.9403 90.7611 33.7776 90.3865C35.3862 89.6593 37.1711 89.9237 38.8238 89.4169C39.2204 89.3067 39.3306 89.2406 39.595 88.9982Z" fill="white"/>
<path d="M44.0021 84.1063H43.1648V95.3886H44.0462V88.9762C44.0462 86.2658 45.3463 84.6132 47.5058 84.6132C48.6076 84.6132 49.511 85.12 49.9077 85.9573C50.1721 86.4862 50.2382 86.993 50.2382 87.9405V95.3886H51.1196V88.4473C51.1196 87.3676 51.362 86.3099 52.1333 85.5166C52.7062 84.9217 53.4995 84.6132 54.447 84.6132C56.5404 84.6132 57.3116 85.9353 57.3116 87.7642V95.3886H58.1931V87.4337C58.1931 85.3183 56.937 83.7978 54.6233 83.7978C52.8164 83.7978 51.6705 84.7233 50.9654 86.2218C50.5026 84.6352 49.3788 83.7978 47.6821 83.7978C45.8091 83.7978 44.5751 84.9437 44.0021 86.398V84.1063Z" fill="white"/>
<path d="M63.0166 93.1409H61.9148V95.3886H63.0166V93.1409Z" fill="white"/>
<path d="M78.7641 79.6992H77.7505L71.3822 95.3886H72.4179L74.4231 90.3204H81.9813L83.9425 95.3886H85.0002L78.7641 79.6992ZM81.6728 89.5271H74.7096L77.6403 82.1892C77.8607 81.6604 78.0369 81.1315 78.2353 80.6027C78.4336 81.1315 78.6099 81.7485 78.8082 82.2553L81.6728 89.5271Z" fill="white"/>
<path d="M94.184 87.3896C94.14 84.9878 92.4873 83.7978 89.9312 83.7978C87.353 83.7978 85.8105 84.9437 85.8105 86.8608C85.8105 89.2847 88.3226 89.5712 90.1295 89.9898C91.4737 90.2983 93.6331 90.6509 93.6331 92.4578C93.6331 93.9562 92.2008 94.9478 90.1075 94.9478C87.7276 94.9478 86.3394 93.8681 86.3394 91.5984H85.4579C85.4579 94.2207 87.2208 95.7411 90.0634 95.7411C92.7297 95.7411 94.5146 94.397 94.5146 92.4137C94.5146 90.0559 92.1568 89.5712 90.3278 89.1525C88.4768 88.7338 86.736 88.5135 86.736 86.7726C86.736 85.4064 87.9259 84.5691 89.799 84.5691C91.8703 84.5691 93.1043 85.3183 93.2806 87.3896H94.184Z" fill="white"/>
<path d="M97.5433 84.1063H96.7059V99.4651H97.5873V92.8324C98.1603 94.7275 99.6807 95.7852 101.774 95.7852C104.793 95.7852 106.798 93.4054 106.798 89.8136C106.798 86.1556 104.815 83.7978 101.752 83.7978C99.6807 83.7978 98.2704 84.8115 97.5433 86.7947V84.1063ZM101.708 84.547C104.264 84.547 105.873 86.5743 105.873 89.8136C105.873 92.9646 104.242 95.036 101.73 95.036C98.7552 95.036 97.5433 92.4578 97.5433 89.8356C97.5433 86.5082 99.0857 84.547 101.708 84.547Z" fill="white"/>
<path d="M109.876 79.6992H108.994V81.9248H109.876V79.6992ZM109.876 84.1063H108.994V95.3886H109.876V84.1063Z" fill="white"/>
<path d="M117.764 84.0182C115.494 84.0182 114.194 84.8776 113.357 87.0811V84.1063H112.497V95.3886H113.379V90.5187C113.379 89.0643 113.423 87.6541 114.326 86.4421C115.075 85.4505 116.155 84.9217 117.433 84.9217H117.764V84.0182Z" fill="white"/>
<path d="M128.106 91.5544H127.224C126.783 93.7579 125.373 95.0139 123.302 95.0139C120.327 95.0139 119.071 92.5239 119.071 89.9237H128.216V89.6152C128.216 86.5302 126.629 83.7978 123.28 83.7978C120.239 83.7978 118.146 86.2658 118.146 89.8576C118.146 93.4494 120.173 95.7632 123.28 95.7632C125.968 95.7632 127.709 94.0223 128.106 91.5544ZM127.312 89.1525H119.071C119.313 86.7286 120.503 84.5911 123.28 84.5911C126.012 84.5911 127.312 86.8608 127.312 89.1525Z" fill="white"/>
<path d="M132.459 93.1409H131.357V95.3886H132.459V93.1409Z" fill="white"/>
<path d="M142.521 79.6992V95.3886H143.469V88.1829H148.339C151.071 88.1829 152.547 88.5796 152.768 91.5323C152.812 92.1714 152.878 94.0444 152.988 94.7495C153.032 94.9699 153.076 95.1902 153.208 95.3886H154.266C154.068 95.058 154.024 95.0139 153.958 94.6393C153.671 93.185 153.803 91.6645 153.539 90.2102C153.23 88.4914 152.041 88.0066 150.652 87.7863C152.658 87.4117 153.98 85.9794 153.98 83.8639C153.98 82.3655 153.363 81.1756 152.239 80.4264C151.446 79.9196 150.454 79.6992 148.978 79.6992H142.521ZM143.469 80.5145H148.669C149.771 80.5145 150.652 80.5586 151.6 81.1315C152.569 81.7265 153.032 82.652 153.032 83.908C153.032 86.8608 150.608 87.3896 148.206 87.3896H143.469V80.5145Z" fill="white"/>
<path d="M165.678 91.5544H164.797C164.356 93.7579 162.946 95.0139 160.874 95.0139C157.899 95.0139 156.643 92.5239 156.643 89.9237H165.788V89.6152C165.788 86.5302 164.202 83.7978 160.852 83.7978C157.811 83.7978 155.718 86.2658 155.718 89.8576C155.718 93.4494 157.745 95.7632 160.852 95.7632C163.541 95.7632 165.281 94.0223 165.678 91.5544ZM164.885 89.1525H156.643C156.886 86.7286 158.076 84.5911 160.852 84.5911C163.585 84.5911 164.885 86.8608 164.885 89.1525Z" fill="white"/>
<path d="M177.413 94.5953C177.149 94.6614 177.039 94.6834 176.84 94.6834C176.025 94.6834 176.025 94.1325 176.025 93.4715V87.632C176.025 86.6845 176.047 85.759 175.386 85.0098C174.681 84.2165 173.491 83.7978 172.036 83.7978C169.392 83.7978 167.85 85.12 167.695 87.5659H168.533C168.709 85.5827 169.855 84.547 171.948 84.547C174.02 84.547 175.143 85.4505 175.143 87.1472C175.143 87.6541 175.121 88.1168 174.989 88.3151C174.681 88.7999 174.35 88.844 171.397 89.0864C169.238 89.2627 167.078 89.9898 167.078 92.546C167.078 94.5292 168.467 95.6971 170.802 95.6971C172.962 95.6971 174.262 94.8377 175.21 92.9867V93.5376C175.21 94.9919 175.518 95.4326 176.51 95.4326C176.862 95.4326 177.105 95.4106 177.413 95.3004V94.5953ZM175.166 88.9982V90.9814C175.166 93.2511 173.381 94.9258 170.957 94.9258C169.15 94.9258 168.026 93.9783 168.026 92.4578C168.026 91.5103 168.511 90.7611 169.348 90.3865C170.957 89.6593 172.742 89.9237 174.394 89.4169C174.791 89.3067 174.901 89.2406 175.166 88.9982Z" fill="white"/>
<path d="M188.211 91.4221H187.329C187.043 93.6257 185.544 94.9699 183.385 94.9699C180.829 94.9699 179.132 92.8985 179.132 89.7474C179.132 86.5743 180.851 84.525 183.539 84.525C185.588 84.525 186.977 85.737 187.219 87.5659H188.122C187.836 85.1861 186.117 83.7758 183.517 83.7758C180.3 83.7758 178.228 86.1336 178.228 89.7915C178.228 93.0307 179.969 95.7191 183.407 95.7191C186.095 95.7191 187.858 94.1325 188.211 91.4221Z" fill="white"/>
<path d="M191.021 79.6992H190.14V95.3886H191.021V89.6593C191.021 88.7779 191.087 88.1829 191.22 87.6541C191.66 85.8692 192.938 84.5691 194.878 84.5691C197.301 84.5691 198.205 86.1777 198.205 88.2931V95.3886H199.086V88.1609C199.086 85.6048 197.83 83.8199 195.054 83.8199C192.938 83.8199 191.616 85.0098 190.999 86.6625L191.021 85.9353V79.6992Z" fill="white"/>
<path d="M212.371 83.7758C209.198 83.7758 207.105 86.1556 207.105 89.7474C207.105 93.3833 209.154 95.7191 212.349 95.7191C215.522 95.7191 217.571 93.4274 217.571 89.8136C217.571 86.1336 215.522 83.7758 212.371 83.7758ZM212.349 84.547C214.949 84.547 216.646 86.6184 216.646 89.8136C216.646 92.9206 214.971 94.9478 212.371 94.9478C209.705 94.9478 208.008 92.9206 208.008 89.7474C208.008 86.6404 209.749 84.547 212.349 84.547Z" fill="white"/>
<path d="M228.349 84.1063H227.468V90.2322C227.468 92.59 226.344 94.9478 223.634 94.9478C221.077 94.9478 220.35 93.185 220.35 91.1798V84.1063H219.469V91.3781C219.469 93.9783 220.769 95.7191 223.457 95.7191C225.507 95.7191 226.785 94.6614 227.512 93.0087V95.3886H228.349V84.1063Z" fill="white"/>
<path d="M235.082 84.1063H232.658V80.5586H231.777V84.1063H229.684V84.8776H231.777V92.1714C231.777 93.9783 231.645 95.4547 234.025 95.4547C234.399 95.4547 234.598 95.4326 235.082 95.3665V94.5512C234.664 94.6173 234.377 94.6393 234.157 94.6393C232.614 94.6393 232.658 93.6918 232.658 92.5239V84.8776H235.082V84.1063Z" fill="white"/>
<path d="M239 93.1409H237.898V95.3886H239V93.1409Z" fill="white"/>
<path d="M120.647 2.44092H118.698V33.171H72.4631V2.44092H70.5134V68.5432H72.4631V34.935H118.698V68.5432H120.647V2.44092Z" fill="white"/>
<path d="M130.993 2.44092V68.5432H132.943V37.4417H155.132C166.365 37.4417 174.442 38.4629 175.371 50.8107C175.649 54.6171 175.928 68.079 177.135 68.5432H179.084C177.97 66.6864 177.692 61.3016 177.599 57.7737C177.32 49.8823 177.32 49.2324 176.763 46.6329C175.185 38.7415 168.501 37.0703 163.116 36.4205C172.121 35.3064 178.527 29.4574 178.527 19.802C178.527 6.52589 168.686 2.44092 157.174 2.44092H130.993ZM132.943 4.11204H156.431C166.922 4.11204 176.67 6.89725 176.67 19.802C176.67 32.8925 165.344 35.6777 154.667 35.6777H132.943V4.11204Z" fill="white"/>
<path d="M210.309 2.44092H208.545L181.343 68.5432H183.478L192.391 46.7257H225.999L234.726 68.5432H236.861L210.309 2.44092ZM225.349 44.9618H193.041L209.381 4.4834L225.349 44.9618Z" fill="white"/>
<path d="M31.7334 0.769531C13.7224 0.769531 1.18896 15.0669 1.18896 35.4918C1.18896 56.0095 13.5367 70.1212 31.8263 70.1212C50.3015 70.1212 62.9277 56.1952 62.9277 36.0488C62.9277 15.2526 50.1158 0.769531 31.7334 0.769531ZM31.9191 2.5335C49.0017 2.5335 60.8853 16.2739 60.8853 35.956C60.8853 55.1739 49.0945 68.3572 31.7334 68.3572C14.8365 68.3572 3.23145 54.8026 3.23145 35.3061C3.23145 16.0882 15.115 2.5335 31.9191 2.5335Z" fill="#FE5900"/>
</svg>
