<svg width="333" height="249" fill="none" xmlns="http://www.w3.org/2000/svg"><g clip-path="url(#a)"><path d="M5.58 142.2c0-7.8 1.38-15.48 4.14-23.04 2.88-7.68 7.02-14.52 12.42-20.52s12-10.86 19.8-14.58c7.8-3.72 16.68-5.58 26.64-5.58 11.76 0 21.9 2.58 30.42 7.74 8.64 5.16 15.06 11.88 19.26 20.16l-19.08 13.14c-1.68-3.6-3.72-6.6-6.12-9-2.4-2.52-4.98-4.5-7.74-5.94a32.28 32.28 0 0 0-8.64-3.06c-3-.72-5.94-1.08-8.82-1.08-6.24 0-11.7 1.26-16.38 3.78-4.56 2.52-8.4 5.82-11.52 9.9-3 3.96-5.28 8.52-6.84 13.68-1.56 5.04-2.34 10.08-2.34 15.12 0 5.64.9 11.1 2.7 16.38 1.8 5.16 4.32 9.72 7.56 13.68 3.36 3.96 7.32 7.14 11.88 9.54 4.68 2.4 9.78 3.6 15.3 3.6 2.88 0 5.88-.36 9-1.08 3.12-.72 6.06-1.86 8.82-3.42 2.88-1.56 5.52-3.54 7.92-5.94 2.4-2.52 4.32-5.52 5.76-9l20.34 11.7c-2.04 4.8-4.98 9.06-8.82 12.78-3.72 3.6-7.98 6.66-12.78 9.18-4.68 2.52-9.72 4.44-15.12 5.76-5.4 1.32-10.68 1.98-15.84 1.98-9.12 0-17.46-1.92-25.02-5.76-7.56-3.84-14.1-8.82-19.62-14.94-5.4-6.24-9.66-13.26-12.78-21.06-3-7.92-4.5-15.96-4.5-24.12Zm171.848 65.7c-9.36 0-17.88-1.8-25.56-5.4-7.56-3.72-14.1-8.58-19.62-14.58-5.4-6.12-9.6-13.08-12.6-20.88-3-7.8-4.5-15.78-4.5-23.94 0-8.52 1.56-16.68 4.68-24.48 3.24-7.8 7.62-14.7 13.14-20.7 5.64-6 12.3-10.74 19.98-14.22 7.68-3.6 16.02-5.4 25.02-5.4 9.24 0 17.64 1.92 25.2 5.76 7.68 3.72 14.22 8.64 19.62 14.76 5.4 6.12 9.6 13.08 12.6 20.88 3 7.8 4.5 15.72 4.5 23.76 0 8.52-1.56 16.68-4.68 24.48-3.12 7.68-7.44 14.52-12.96 20.52-5.52 5.88-12.12 10.62-19.8 14.22-7.68 3.48-16.02 5.22-25.02 5.22Zm-37.08-64.8c0 5.52.84 10.86 2.52 16.02 1.68 5.16 4.08 9.72 7.2 13.68 3.24 3.96 7.14 7.14 11.7 9.54 4.68 2.4 9.96 3.6 15.84 3.6 6 0 11.28-1.2 15.84-3.6 4.68-2.52 8.58-5.82 11.7-9.9 3.24-4.08 5.64-8.64 7.2-13.68 1.68-5.16 2.52-10.38 2.52-15.66 0-5.52-.9-10.86-2.7-16.02-1.68-5.16-4.14-9.72-7.38-13.68-3.12-3.96-7.02-7.08-11.7-9.36-4.56-2.4-9.72-3.6-15.48-3.6-6 0-11.34 1.26-16.02 3.78-4.68 2.4-8.58 5.64-11.7 9.72-3.12 3.96-5.52 8.52-7.2 13.68a52.06 52.06 0 0 0-2.34 15.48Zm98.075 79.2c0-4.92.36-9.24 1.08-12.96.84-3.6 2.16-6.78 3.96-9.54 1.92-2.88 4.38-5.34 7.38-7.38 3.12-2.04 6.9-3.96 11.34-5.76l8.28-3.24c2.88-1.08 5.4-2.22 7.56-3.42 2.28-1.32 4.14-2.82 5.58-4.5 1.44-1.68 2.16-3.72 2.16-6.12 0-3.24-1.32-5.7-3.96-7.38-2.64-1.68-6.48-2.52-11.52-2.52-5.28 0-9.78.96-13.5 2.88-3.72 1.92-6.6 3.9-8.64 5.94l-9.18-10.44c.96-1.2 2.4-2.52 4.32-3.96 1.92-1.44 4.26-2.76 7.02-3.96 2.88-1.32 6.12-2.4 9.72-3.24 3.72-.84 7.86-1.26 12.42-1.26 9.72 0 17.04 2.16 21.96 6.48 5.04 4.2 7.56 10.08 7.56 17.64 0 3.84-.78 7.14-2.34 9.9-1.56 2.76-3.54 5.1-5.94 7.02-2.4 1.92-4.98 3.48-7.74 4.68-2.76 1.08-5.34 1.98-7.74 2.7-6.12 1.92-10.98 4.14-14.58 6.66-3.6 2.4-5.4 4.98-5.4 7.74h43.92v14.04h-63.72Z" fill="#000" opacity=".05"/><g opacity=".05" clip-path="url(#b)"><path d="M327.688.066c-1.275.179-2.623.65-4.35 1.523-2.961 1.49-6.381 3.909-10.757 7.612-6.15 5.2-14.331 13.248-23.017 22.627-4.389 4.75-9.224 10.182-12.703 14.289a57.331 57.331 0 0 1-1.063 1.245c-.007 0-.445-.225-.969-.503-1.694-.888-5.811-2.928-7.159-3.55-5.638-2.59-9.569-3.942-12.697-4.366-.89-.12-2.444-.086-3.181.066-1.487.318-2.689 1.199-3.287 2.425-.345.688-.458 1.212-.465 2.053-.006.695.007.748.213 1.172.192.391.365.577 1.56 1.683 2.909 2.696 6.103 5.988 8.454 8.71 5.259 6.101 10.791 14.355 17.126 25.556 1.116 1.968 1.554 2.352 2.689 2.352.439 0 .638-.033.877-.14.75-.337 1.049-.734 1.581-2.072a259.555 259.555 0 0 1 3.751-8.844c8.534-18.984 18.727-35.074 30.906-48.786 3.453-3.888 6.448-6.949 12.093-12.36 4.416-4.24 5.246-5.22 5.604-6.658.538-2.173-1.242-3.981-4.011-4.067-.418-.013-.956 0-1.195.033Z" fill="#000"/></g><path opacity=".05" d="M278 3c28.167 0 51 22.834 51 51s-22.833 51-51 51-51-22.834-51-51 22.833-51 51-51Zm0 7c-24.301 0-44 19.7-44 44s19.699 44 44 44 44-19.7 44-44-19.699-44-44-44Z" fill="#000"/></g><defs><clipPath id="a"><path fill="#fff" d="M0 0h333v249H0z"/></clipPath><clipPath id="b"><path fill="#fff" transform="translate(248)" d="M0 0h85v83H0z"/></clipPath></defs></svg>