<svg width="755" height="604" fill="none" xmlns="http://www.w3.org/2000/svg"><g opacity=".05" fill="#000"><path fill-rule="evenodd" clip-rule="evenodd" d="m342.363 280.511.558 3.754-11.155 11.169c-2.463-1.996-2.51-6.796-8.598-8.602-5.391-1.569-9.528 1.663-13.664 2.994-3.672-5.133-11.619-12.405-21.891-12.737-14.64-.476-19.985 9.03-24.586 10.693-5.345-7.889-7.576-9.315-8.041-14.448l7.297-29.989c2.464-8.936 6.879-21.15 8.32-29.562-28.026 11.834-36.578 28.231-82.032 20.294-6.46-1.141-10.969-3.089-17.057-4.563-13.664-3.279-42.201-8.745-56.33-4.8-10.736 2.994-6.739 6.274-11.526 10.171-10.783 8.84-22.96-1.188-33.603-3.66-16.453-3.85-39.18 6.321-53.495-7.984-2.603-2.614-8.598-8.84-7.065-14.449 4.695-1.568 8.785 4.183 27.19 3.66 7.529-.238 72.782-11.692 83.147-13.45 37.135-6.274 75.199-9.933 112.66-15.494-8.552-5.228-13.99-5.228-26.167-17.87l-32.115-33.744c-9.435-10.504-31.977-38.117-44.153-44.2-9.528-4.753-8.971.047-16.639 1.045-12.595 1.616-17.476-17.537-21.054-22.575-9.017-12.737-17.847-12.832-24.819-19.343-1.673-1.569-3.16-3.327-5.112-5.371-1.441-1.473-3.486-4.61-4.788-6.464-2.277-3.327-9.248-9.79-6.646-13.973 2.835-4.277 8.506-1.426 11.527.856 6.971 5.228 25.515 15.351 33.277 18.393 12.828 5.085 30.303 19.533 42.247 27.375l147.146 95.53c7.251 4.657 3.486 3.469 13.246 4.039 17.801 1.046 19.056 16.92 22.309 30.037l14.222 55.369c1.72 6.321 5.066 23.526 7.39 27.899Zm118.516-71.908c4.183 4.515 9.109 3.85 10.039 12.452.743 6.701-.651 13.735-.093 21.15.743 9.648 3.439 34.647 2.184 42.917-7.343-5.656-19.474-4.753-21.565 3.279-1.023-1.521-.372.238-.79-1.949-.186-.998-.186-1.663-.093-2.661.093-1.283.558-3.422.743-4.8 1.395-9.601 5.252-30.988 1.767-38.497-1.488-3.185-3.533-2.899-6.832-4.373-5.299-2.376-25.052-11.834-28.909-14.543-2.603-1.854-6.739-9.363-8.273-13.45-3.811-10.171-1.627-4.42-7.529-14.163-2.324-3.85-6.042-10.028-7.483-14.163 6.832 1.426 21.379 22.48 36.438 27.898 4.415 1.568 11.759 5.371 16.127 2.947-1.347-3.66-10.364-8.935-10.829-19.059 3.997.381 4.601 1.949 6.786 4.135l18.312 12.88Zm-14.639-82.365c22.169 6.939 11.991 42.584-11.294 34.647-7.576-2.566-14.222-11.834-11.248-22.48 2.371-8.412 11.434-15.684 22.542-12.167Zm-54.332-35.264c14.687 7.841 3.533 26.187-9.016 21.006-13.292-5.465-4.648-28.278 9.016-21.007ZM338.226 126c9.435 5.371 1.534 18.678-7.343 13.45-8.412-4.942-1.348-18.392 7.343-13.45Zm39.879 54.324c3.579 1.664 6.228 4.658 4.137 10.124-1.162 3.136-5.252 5.845-9.854 4.039-9.063-3.469-3.997-18.63 5.717-14.163Zm28.351 65.302c14.64 6.892 4.415 26.378-8.552 20.722-13.292-5.751-4.88-27.043 8.552-20.722Zm-40.529-1.759c-1.906 8.46-17.382 6.369-14.594-4.61 2.231-8.792 17.15-6.606 14.594 4.61Z"/><path d="M504.522 196.578c.558-1.236 1.255-2.519 1.766-3.707.047 0 .047-.048.093-.095.047-.19.14-.285.186-.475.093-.333.186-.666.279-1.046.14-1.853-1.487-2.614-1.394-4.753.093-2.281 1.534-3.374 1.952-3.659 0-.048.046-.048.046-.048v-.095c-2.463-2.329-1.115-5.228-1.115-5.228.558-.285 1.162-.428 1.627-.76 3.997-3.185 4.415-5.656 1.719-9.981-.697-1.093-1.394-2.234-1.952-3.422-1.348-2.899-.929-4.182 1.952-5.56 2.045-.999 4.276-1.711 6.321-2.757 5.81-2.994 10.829-6.891 14.036-12.642-1.673-3.565-1.673-3.565-.743-5.751.65.808 1.254 1.568 2.184 2.804.186-2.709.046-4.8.511-6.796.465-1.901 1.023-4.23 2.37-5.371 4.834-4.182 7.809-9.6 10.597-15.208 4.694-9.553 15.709-21.768 26.632-22.1 6.506-.19 13.106.095 19.566.808 2.696.285 5.577 1.758 7.715 3.516 3.765 3.137 7.948 5.086 12.503 6.369 2.184.618 4.369 1.331 6.46 2.281 3.997 1.806 7.297 4.373 9.528 8.413 1.255 2.186 3.067 4.182 5.066 5.798 3.811 3.137 7.483 6.274 9.946 10.694 1.348 2.423 3.346 3.992 6.646 3.231 1.627-4.99 12.688-7.081 17.15-4.562 5.345 1.283 4.183 5.608 8.598 8.555 2.882 1.901 7.111 2.471 9.435 5.275 5.345 6.464 4.555 9.601 1.441 14.638-2.045 3.232-2.278 6.512-.418 9.934 1.487 2.661 1.905 5.513 1.254 8.459-1.626 7.605-4.508 14.211-12.827 16.35-.558.142-1.069.475-1.58.665-1.906.76-2.882 2.139-3.254 4.23-.232 1.378-.604 2.947-1.487 3.897-5.903 6.274-18.312 6.369-21.751-3.232-1.348-3.802-1.209 1.949-1.116 2.899.883 7.082-.929 14.544-3.625 21.15-2.556 6.274-8.319 12.5-17.15 10.646-3.067-.665-4.555-.713-7.343.76-1.116.618-1.906 2.234-3.021 2.852-2.928 1.521-7.901 1.664-10.736.19-5.345-2.756-21.194-4.753-22.03 8.745-.558 8.412 1.161 28.231 2.277 40.873-5.996-2.138-10.829 1.189-12.921 5.941-1.673-1.663-3.811-3.137-6.413-4.325-8.971-4.23-16.546-.808-20.822 5.323-.93-.427-1.999-.808-3.114-1.188-6.786-2.139-12.688-1.141-16.825 1.331-1.952-1.711-4.88-3.279-8.83-4.468-6.321-1.901-11.945-1.521-16.36.19a51.754 51.754 0 0 1 4.415-5.608c4.508-4.99 10.922-9.933 12.084-11.121 4.787-4.8 10.364-9.41 14.222-15.636 5.252-8.413 8.04-19.011 7.25-29.942-1.812-4.563-4.926-7.272-9.527-8.603-5.485-1.616-10.876-3.469-16.221-5.513-4.136-1.568-6.321-4.753-6.181-8.555l.046-.76c-.093-1.236.279-2.519.883-3.85ZM177.23 390.156h466.164c2.928 0 5.252-2.424 5.252-5.37 0-2.995-2.371-5.371-5.252-5.371H177.23c-2.928 0-5.251 2.424-5.251 5.371 0 2.946 2.37 5.37 5.251 5.37Z"/><path fill-rule="evenodd" clip-rule="evenodd" d="M743.04 301.518H77.63c-5.81 0-10.55 4.8-10.55 10.788 0 37.879 24.493 70.625 59.351 80.986v33.221c0 51.187 29.652 97.526 75.572 118.058 5.298 2.376 9.667 6.083 12.874 10.551 2.974 7.034 6.739 15.493 6.274 20.008-2.231.048-21.379-11.549-24.865 4.943-4.648 22.1 31.976 25.189 44.106 3.47 6.414-11.454 1.72-18.869 1.952-28.279h336.121c.233 9.458-4.461 16.872 1.952 28.279 12.177 21.719 48.801 18.63 44.153-3.47-3.485-16.492-22.68-4.895-24.865-4.943-.464-4.657 3.486-13.45 6.554-20.579 3.113-4.182 7.296-7.699 12.409-9.98 45.919-20.485 75.571-66.823 75.571-118.058v-33.221c34.858-10.361 59.351-43.107 59.351-80.986-.046-5.988-4.74-10.788-10.55-10.788Zm-61.21 72.621c-5.02.903-8.691 5.37-8.691 10.598v41.729c0 42.632-24.726 81.224-62.976 98.333-5.066 2.282-9.528 5.371-13.525 8.935l-.372-.095H224.358l-.372.095c-3.997-3.564-8.459-6.653-13.525-8.935-38.25-17.062-62.976-55.654-62.976-98.333v-41.729c0-5.228-3.672-9.695-8.691-10.598-25.841-4.705-45.408-25.427-49.777-51.092H731.56c-4.276 25.712-23.889 46.387-49.73 51.092Z"/></g></svg>