<svg width="177" height="116" fill="none" xmlns="http://www.w3.org/2000/svg"><g clip-path="url(#a)"><path d="M6.501 93.078v5.686H2.28v-5.686H0v13.631h2.275v-5.687h4.221v5.687h2.275V93.078H6.5Zm12.838 13.631h2.414l-4.96-13.631h-1.808l-4.956 13.631h2.408l1.248-3.409h4.432l1.243 3.409h-.02Zm-3.42-9.523 1.402 3.836h-2.82l1.418-3.836Zm13.136-4.114v9.842a1.496 1.496 0 0 1-.925 1.432 1.49 1.49 0 0 1-.59.111h-1.227a1.488 1.488 0 0 1-1.4-.954 1.493 1.493 0 0 1-.1-.589v-9.836h-2.275v9.836a3.788 3.788 0 0 0 1.107 2.671 3.777 3.777 0 0 0 2.668 1.108h1.227a3.763 3.763 0 0 0 2.676-1.103 3.779 3.779 0 0 0 1.109-2.676v-9.836l-2.27-.005Zm12.807 4.165v-.385a3.787 3.787 0 0 0-1.107-2.671 3.777 3.777 0 0 0-2.667-1.108H36.84c-1 0-1.959.4-2.666 1.108a3.782 3.782 0 0 0-1.103 2.67v.407c0 1.001.397 1.962 1.103 2.67a3.77 3.77 0 0 0 2.666 1.109h1.227a1.51 1.51 0 0 1 1.5 1.517v.36a1.5 1.5 0 0 1-1.5 1.501H36.84a1.483 1.483 0 0 1-1.059-.44 1.493 1.493 0 0 1-.435-1.061H33.07a3.772 3.772 0 0 0 3.77 3.779h1.226a3.777 3.777 0 0 0 3.775-3.779v-.391a3.782 3.782 0 0 0-1.108-2.669 3.772 3.772 0 0 0-2.667-1.105H36.84a1.498 1.498 0 0 1-1.494-1.542v-.386a1.487 1.487 0 0 1 1.494-1.501h1.227a1.487 1.487 0 0 1 1.5 1.5v.438l2.295-.02Zm9.67-4.164H42.74v2.277h3.25v11.354h2.28V95.356h3.246v-2.278l.016-.005Zm10.065 2.277v-2.277h-8.792v13.631h8.771v-2.247H55.08v-3.409h3.461V98.79H55.06v-3.434l6.537-.006Zm1.407 1.502v6.062a3.777 3.777 0 0 0 3.774 3.779H68a3.777 3.777 0 0 0 3.775-3.779h-2.296a1.5 1.5 0 0 1-1.5 1.501h-1.221a1.5 1.5 0 0 1-1.5-1.501v-6.057a1.492 1.492 0 0 1 1.5-1.501h1.222a1.487 1.487 0 0 1 1.5 1.5v.757h2.274v-.756a3.781 3.781 0 0 0-1.105-2.672 3.771 3.771 0 0 0-2.67-1.107h-1.221c-1.001.001-1.96.4-2.668 1.108a3.787 3.787 0 0 0-1.107 2.67l.02-.004Zm17.023-3.78v5.687H75.81v-5.681h-2.28v13.631h2.28v-5.687h4.216v5.687h2.275V93.078l-2.275-.005Zm11.035 0v8.371l-4.22-8.37h-2.276v13.631h2.275v-8.227l4.222 8.227h2.274V93.078l-2.275-.005Zm6.815 13.632V93.078h-2.275v13.631l2.275-.005Zm8.001-6.819 3.461-6.813h-2.568l-4.375 8.629v-8.623h-2.26v13.631h2.275l2.178-4.304 2.177 4.304h2.567l-3.461-6.818.006-.006Zm29.306-3.033a3.78 3.78 0 0 0-3.769-3.78h-4.997v13.632h2.275v-5.682h2.722a1.483 1.483 0 0 1 1.062.447 1.496 1.496 0 0 1 .432 1.07v4.17h2.275v-4.17a3.723 3.723 0 0 0-1.089-2.648 3.711 3.711 0 0 0 1.089-2.648v-.391Zm-6.491-1.502h2.722a1.487 1.487 0 0 1 1.385.926c.074.183.111.379.109.576v.406a1.5 1.5 0 0 1-.424 1.085 1.499 1.499 0 0 1-1.07.457h-2.722v-3.45Zm17.352 0v-2.277h-8.791v13.631h8.77v-2.247h-6.496v-3.409h3.482V98.79h-3.482v-3.434l6.517-.006Zm9.967 1.908v-.386a3.783 3.783 0 0 0-3.774-3.779h-1.227a3.773 3.773 0 0 0-3.769 3.78v.385a3.772 3.772 0 0 0 3.769 3.779h1.227a1.51 1.51 0 0 1 1.5 1.517v.36a1.502 1.502 0 0 1-1.5 1.501h-1.227a1.498 1.498 0 0 1-1.495-1.501h-2.274a3.774 3.774 0 0 0 3.769 3.779h1.227a3.785 3.785 0 0 0 3.774-3.779v-.391a3.78 3.78 0 0 0-3.774-3.774h-1.227a1.498 1.498 0 0 1-1.07-.457 1.52 1.52 0 0 1-.425-1.085v-.386a1.5 1.5 0 0 1 .921-1.388c.182-.076.377-.114.574-.113h1.227a1.492 1.492 0 0 1 1.5 1.5v.438h2.274Zm1.68-.386v6.042a3.785 3.785 0 0 0 3.774 3.779h1.222a3.779 3.779 0 0 0 3.775-3.779h-2.275a1.502 1.502 0 0 1-1.5 1.501h-1.222a1.499 1.499 0 0 1-1.499-1.501v-6.057a1.479 1.479 0 0 1 .436-1.065 1.48 1.48 0 0 1 1.063-.436h1.222a1.492 1.492 0 0 1 1.5 1.5v.757h2.275v-.756a3.778 3.778 0 0 0-3.775-3.78h-1.222a3.783 3.783 0 0 0-3.774 3.78v.015Zm17.023-3.779v5.687h-4.226v-5.702h-2.275v13.631h2.275v-5.687h4.221v5.687h2.275V93.078l-2.27.015Z" fill="#393938"/><path d="M0 111.475h177.005V116H0v-4.525Z" fill="#E3000B"/><path fill-rule="evenodd" clip-rule="evenodd" d="M119.65 60.823a9.148 9.148 0 0 0-1.582 2.715 1.544 1.544 0 0 0-.025.34l-.221-.052c-.452-.093-.899-.221-1.351-.33-.595-.138-1.206-.262-1.792-.452a12.706 12.706 0 0 1 1.936-4.535l3.035 2.314Zm20.541-2.34c.162.223.311.455.447.695.092.149.179.298.267.447.087.149.164.308.241.463.077.154.154.308.226.468.072.159.144.313.205.478.062.164.129.319.185.483.057.165.113.33.165.514.051.185.102.33.143.514.041.185.088.335.124.515-1.027.308-2.055.565-3.082.838l-.287.077c0-.905-.996-2.34-1.633-3.147l3.014-2.298-.015-.047Zm-14.132-1.543a13.334 13.334 0 0 0-3.081 1.086c-.093-.221-.211-.437-.324-.653-.349-.607-.688-1.219-1.027-1.83-.18-.33-.37-.659-.513-.998a15.567 15.567 0 0 1 4.329-1.543l.6 3.928.016.01Zm5.089-3.99c1.596.263 3.134.803 4.544 1.595l-2.115 3.362a13.473 13.473 0 0 0-3.081-1.028c.256-1.306.374-2.638.652-3.939v.01Zm-3.425-.215a13.519 13.519 0 0 1 2.988.149l-.595 3.949c-.375-.047-.75-.082-1.125-.103a11.092 11.092 0 0 0-2.408.123c-.231-1.306-.483-2.612-.694-3.923a16.893 16.893 0 0 1 1.834-.195Zm8.303 2.01c.31.162.608.344.894.545a12.911 12.911 0 0 1 3.019 2.89 9.388 9.388 0 0 1-.775.576c-.56.4-1.12.797-1.684 1.188l-.617.437a13.748 13.748 0 0 0-2.932-2.294c.699-1.11 1.361-2.252 2.095-3.342Zm-13.362 3.491a12.23 12.23 0 0 0-2.752 2.232l-.616-.468a108.8 108.8 0 0 0-2.445-1.82 11.633 11.633 0 0 1 3.693-3.306l2.12 3.362Zm19.581 5.297v6.612h-3.415v-5.754l3.42-.858h-.005Zm-24.228.858v4.587l-3.446-3.152v-.041c0-.756-.03-1.543 0-2.273l3.446.864v.015ZM62.336 80.99h1.54v1.974h23.3c-.277-.684-.662-1.492-1.078-2.35l-.601-1.26h-9.094a5.838 5.838 0 0 1-.416.915 1.788 1.788 0 0 1-1.541 1.029h-.036l-.164.03a1.24 1.24 0 0 1-.216.062l-1.766.324a1.54 1.54 0 0 1-1.31.067 1.121 1.121 0 0 1-.704-.643 10.77 10.77 0 0 0-1.35.077 5.083 5.083 0 0 1-1.474 0 1.129 1.129 0 0 1-.888-1.37c.046-.198.146-.38.287-.527h-4.457v1.666l-.03.005Zm66.922-2.84h9.115v-2.02h7.893v2.119c.02.378.02.757 0 1.136h1.566v1.63h2.265v1.928h-16.582l-.621-.514c-.514-.427-1.027-.833-1.464-1.24l-1.345-1.233-.678-.617-1.315-1.204 1.166.016Zm-28.716 1.21h5.022c.26.794.569 1.572.925 2.329.211.44.447.867.708 1.28h-12.71a21.79 21.79 0 0 0 3.56-1.78 23.724 23.724 0 0 0 2.516-1.83h-.021Zm13.803 0-.164-1.178h2.249c.709.385 1.423.786 2.137 1.188h.056l.067.035h.092l.057.037h.421l.991.57 1.094.55a57.336 57.336 0 0 1 3.594 1.893h-10.506c-.139-1.029-.283-2-.426-3.003v-.046l-.083-.566.421.52Zm26.051-8.706h3.919v4.803l-5.505-.042V70.65l1.586.005Z" fill="#393938"/><path fill-rule="evenodd" clip-rule="evenodd" d="M127.584 57.054c.277-.024.554-.033.832-.026h1.078l.272.031.267.03.267.042.268.046.267.057.261.056.262.067.262.077c.088 0 .175.052.257.078l.257.087c.087.025.173.056.257.093l.251.097.252.103.246.113.242.113.241.124.241.128.231.139.237.139.226.144.226.154.215.154.221.165.211.17.21.17.2.18.201.184.195.185c.78.787 1.915 2.299 2.203 3.353.058.405.07.816.036 1.224v14.397h-.129a.368.368 0 0 0-.298.077c-.036.44-.036.882 0 1.321v-.879h-.672V64.735a6.832 6.832 0 0 0 0-1.161 7.498 7.498 0 0 0-1.212-2 9.69 9.69 0 0 0-4.945-3.173 12.814 12.814 0 0 0-1.921-.324h-1.792l-.241.026-.242.03-.241.037-.241.04-.242.052-.236.052-.236.061-.236.067-.232.067-.231.077-.231.082-.226.093-.226.092-.22.098-.221.108-.247.15-.21.118-.216.118-.205.128-.206.129-.205.139-.2.139-.196.144-.19.154-.19.154a2.463 2.463 0 0 0-.179.16l-.185.164-.175.17c-.472.473-1.777 2.113-1.926 2.72a7.144 7.144 0 0 0 0 1.151v5.435l-1.109-1.028V64.69a5.378 5.378 0 0 1 .041-1.183 9.322 9.322 0 0 1 1.603-2.674 11.056 11.056 0 0 1 7.6-3.81l-.026.03Zm-8.422 22.624h-.344v-.19l.344.195v-.005Z" fill="#393938"/><path d="M73.15 37.052v-16.68l1.675-1.285h.051v25.05h3.939c0 .54.03 1.116.056 1.723h-3.995v27.087c-.513 1.132-1.073 2.299-1.438 3.085a.448.448 0 0 0-.056.278h-.231V37.053Zm30.684-16.176v-.905l1.751 1.748v22.429h1.504v.776l-.077.952h-1.407V49.3a13.585 13.585 0 0 1-.452-.355 41.65 41.65 0 0 1-1.314-1.059v-1.964h-2.095a52.979 52.979 0 0 1-1.412-1.764h3.502c0-7.754-.041-15.518 0-23.272v-.01Zm7.846 23.272h16.371l1.716 1.727h-17.974l-.031-.431-.097-1.24v-.056h.015Zm-6.09 8.417v.591a29.68 29.68 0 0 1-1.761-1.126v-.72c.621.473 1.232.91 1.761 1.255Zm0 3.6v4.992h-1.751v-5.939a16.16 16.16 0 0 0 1.756.946h-.005Z" fill="#393938"/><path fill-rule="evenodd" clip-rule="evenodd" d="M93.343 46.153c.053.49.079.983.076 1.476 0 .812 0 .925-.261 1.177a.513.513 0 0 1-.601.206l-.344-.062.513.761c.456.728.971 1.416 1.54 2.057.489.54.576.437.576-.745a12.354 12.354 0 0 0-1.248-4.839l-.303-.622.072.57-.02.021Z" fill="#565655"/><path fill-rule="evenodd" clip-rule="evenodd" d="M109.857 36.888c-.359.38-.765.437-.996.838l-.031-.041c-.023.072-.04.146-.051.22-.046.13-.076.265-.087.402-.077.689.046 1.404.025 2.16-.041.41-.082.894-.113 1.357-.092 1.028-.205 2.34-.195 3.193-.226 2.864-.539 5.697-1.243 6.895-1.33-.514-5.207-3.733-6.198-4.844-1.407-1.542-4.421-5.769-4.94-6.226-1.027-.92-3.24-.324-4.39-1.085-.73-1.594-.637-3.296.072-3.98a1.54 1.54 0 0 1 1.443 0c.585.278 1.186.514 1.786.766a.996.996 0 0 0 1.402-.71c.041-.143.078-.308.124-.442a.994.994 0 0 1 .072-.18c.123-.164.318-.102.467-.288a.514.514 0 0 0 .108-.452.514.514 0 0 0 .482-.35.821.821 0 0 1-.082-.185c-.174-.925.396-.843 1.027-1.1.329-.139.385-.278.247-.612-.103-.237-.242-.463-.334-.704a3.603 3.603 0 0 1-.262-2.114c.406-.17.406-.17.488-.421l-.39.072c.23-.299.708-.823.652-1.23a5.112 5.112 0 0 1 .22-2.056c.309-1.152.273-3.003-.631-3.857a17.344 17.344 0 0 0-1.725-1.408 1.801 1.801 0 0 0-.915-.293 3.837 3.837 0 0 1-1.54-.417 2.756 2.756 0 0 0-2.152-.324 2.4 2.4 0 0 1-.857.103 4.267 4.267 0 0 0-1.633.139.636.636 0 0 1-.806-.232c.23-.514-.555-1.542-1.12-1.676-.55-.298-.77.154-1.36.067-.391-.062-.787-.334-1.192-.278-1.854.273-.642 1.543-1.9 1.97a1.3 1.3 0 0 0-.734.607c-.422.755-.663 1.542-.114 2.334.031.057.058.115.083.175.246.473-.21.653-.2 1.028.04.967 1.093 1.913 2.09 1.373.395-.216-.042.252-.119.324a4.696 4.696 0 0 0-1.253 2.057 1.73 1.73 0 0 0 .673 2.18 1.027 1.027 0 0 1 .57.617c.051.139 0 .334.046.468a1.542 1.542 0 0 0 .899.827c1.289 2.232 3.122-.298 2.342 3.646-.601 2.376-1.212 3.64-1.782 4.36-2.475 1.707-4.822-1.697-5.505 2.175-.55 3.127.806 9.878-.278 16.27-.38 2.251-1.15 4.58-1.715 6.864-.565 2.282-1.073 4.576-1.679 6.89a7.465 7.465 0 0 1-.38 1.501c-.93 1.964-2.013 4.33-2.054 4.34-.226.19-.375.097-.683.092-.514 0-2.357 0-2.752.093a3.306 3.306 0 0 0-1.11.73c-.647.643-.277.278-1.073.817-.381.238-.74.51-1.073.813.58.129 1.771-.21 3.132-.088.4.031 1.772-.74 2.024-.406-.231.227-1.115.314-1.5 1.07.324.113.426 0 .668-.072l1.88-.345c.482-.195.841.031 1.211-.596.288-.484.421-1.07.719-1.615.17-.298 1.11-2.103 1.859-3.84 1.859-3.816 3.543-7.436 4.73-11.827.338-1.255 1.54-8.921 1.7-9.132 1.144.982 3.85 4.242 3.65 6.49-.344 3.773-5.397 6.76-2.162 16.073.879 2.524 2.512 5.352 3.159 7.167 2.932-.056 6.722-1.655 8.688-2.915 2.799-1.795 3.985-3.157 6.003-5.61a21.656 21.656 0 0 0 2.64-4.072c.384-.243.782-.465 1.191-.663-.513 4.113-2.326 5.794.319 11.492.374.812.785 1.336 1.191 2.082.909 1.681 2.624 5.24 2.619 7.24 0 1.517-.565 1.105-.894 1.866-.749 1.728.971 2.977 1.669 4.289 1.084 2.025.586 5.373 2.933 6.751.426.257 1.437.822 2.105.427.031-.669-.852-1.029-1.438-3.446-.241-.997-1.089-9.97-1.232-11.399-.514-5.1-1.402-10.232-2.024-15.348.971.94 1.166 1.655 3.225 2.817l5.48 3.044c1.679.874 6.028 2.88 7.24 4.263.95 1.085.313 1.177.462 2.221.242 1.718 2.871 1.692 3.646 1.98 1.957.74 2.28 1.902 3.364 2.57.262.165.544.299.873.484.324.154.657.29.996.406.514.185 1.587.874 2.029.38.441-.493-.119-1.166-.514-1.485a28.905 28.905 0 0 1-3.548-3.733c-1.11-1.507-3.595-3.301-5.018-4.597l-17.505-16.007c-.853-.791-.57-.339-.992-1.604-.652-1.949-2.244-1.97-3.81-1.913-7.769-.2-12.458.89-13.28-1.938 0-2.188.56-4.339 1.628-6.247 4.006-6.819-2.428-7.199 5.957-1.512a24.499 24.499 0 0 0 3.538 2.129c.991.442 1.906 1.542 2.85 1.002 1.649-.951 1.639-7.255 1.541-8.89a146.65 146.65 0 0 0-.2-2.802c.007-1.261.15-2.518.426-3.749.175-.36.416-.329.796-.514.616-.272 2.912-1.352 3.358-1.66.425-.442.754-.968.966-1.543.441-1.157.185-.514.873-1.615a10.3 10.3 0 0 0 .873-1.61c-.791.165-2.486 2.572-4.237 3.179-.513.18-1.371.606-1.874.334.159-.412 1.201-1.029 1.258-2.17-.462.041-.514.22-.786.468l-2.136 1.48h.01Z" fill="#393938"/><path d="m155.581 64.628-.185.185h-4.668l-60-59.98-31.627 24.573h-5.808L91.14 0l64.442 64.628Z" fill="#393938"/><path fill-rule="evenodd" clip-rule="evenodd" d="M127.661 59.753c.56.283 1.515 1.404 1.926 1.923a9.863 9.863 0 0 1 2.208 7.538c.116-.31.192-.636.226-.966a9.112 9.112 0 0 0-.221-4.114 12.76 12.76 0 0 1 2.927 5.857c.385 2.247-.21 4.077-1.505 5.903h-1.668a3.26 3.26 0 0 0 .677-1.733 3.69 3.69 0 0 0-1.099-2.73 2.53 2.53 0 0 1 .093 1.707c-.288-1.085-.986-1.764-1.356-2.772a4.072 4.072 0 0 1 .272-3.399c-.421.36-.852.7-1.273 1.065a8.864 8.864 0 0 0-1.602 1.928 4.164 4.164 0 0 0-.601 3.373 3.445 3.445 0 0 1-.396-.468 3.139 3.139 0 0 1-.513-2.391c-.452.946-1.027 1.759-1.089 2.849a3.473 3.473 0 0 0 1.027 2.57h-.025l-3.261-2.982c-.283-1.67.292-3.213 1.094-4.72a5.687 5.687 0 0 0 .513 2.936c-.899-3.532 1.936-4.113 1.433-7.198a9.568 9.568 0 0 1 1.92 2.57c.704-2.133 1.176-4.58.319-6.735l-.026-.01Z" fill="#E3000B"/><path d="M122.885 99.7v-2.262h-6.049V99.7h6.049Z" fill="#393938"/></g><defs><clipPath id="a"><path fill="#fff" d="M0 0h177v116H0z"/></clipPath></defs></svg>