<svg width="297" height="67" fill="none" xmlns="http://www.w3.org/2000/svg"><g clip-path="url(#a)"><mask id="b" style="mask-type:luminance" maskUnits="userSpaceOnUse" x="0" y="0" width="297" height="67"><path d="M0 .5h297v66H0V.5Z" fill="#fff"/></mask><g mask="url(#b)"><path d="M131.669 27.711h12.206l.15.645c.602 2.641 2.511 4.007 6.132 3.95 3.445-.046 5.041-1.399 5.041-2.971 0-1.43-.988-2.204-5.407-3.39l-6.053-1.874c-7.466-2.34-10.526-5.85-10.676-10.954-.209-6.444 4.785-11.444 14.781-12.12A48.998 48.998 0 0 1 150 .913c2.074-.03 4.142.21 6.152.715 5.707 1.476 8.61 4.936 9.309 10.04l.209 1.642h-11.414a4.736 4.736 0 0 0-.536-1.127c-.699-1.25-1.667-2.12-3.922-2.397-1.792-.174-2.426 0-3.204.315-.423.19-.791.483-1.068.852-.276.369-.453.8-.514 1.255-.039.909.582 1.47 3.014 2.159l5.158 1.289c.582.148 1.157.309 1.732.49 6.839 2.08 9.153 3.66 10.977 6.771a11.157 11.157 0 0 1 1.529 5.51c.079 6.836-5.229 12.165-15.166 13.157-1.028.097-2.06.142-3.092.135-10.323-.058-16.926-6.011-17.41-12.41l-.085-1.598ZM28.745 21.268c0 5.973-2.537 10.812-8.113 10.812-5.23 0-8.12-4.84-8.12-10.812 0-5.973 2.583-10.806 8.12-10.806 5.707 0 8.113 4.84 8.113 10.806Zm12.486 0c-.03-6.117-1.902-11.044-5.615-14.781-3.714-3.738-8.712-5.67-14.997-5.8-6.232.074-11.186 2.007-14.86 5.8C1.963 10.202.044 15.119 0 21.236c.04 6.078 1.959 10.996 5.76 14.755 3.673 3.806 8.627 5.739 14.859 5.8 6.31-.074 11.31-2.007 14.997-5.8 3.704-3.737 5.576-8.645 5.615-14.723Zm242.315-6.701a3.933 3.933 0 0 1-1.251 2.778c-.384.36-.836.64-1.33.827a4.076 4.076 0 0 1-1.551.26h-7.681v-7.931h7.44c2.693 0 4.38 1.752 4.38 4.053m13.454 26.173-.432-.87a11.49 11.49 0 0 1-.562-2.687l-.438-4.253a35.449 35.449 0 0 0-.183-1.623c-.654-4.942-2.36-7.359-4.74-8.312l-.98-.4 1.307-.902a10.8 10.8 0 0 0 3.533-3.966 10.63 10.63 0 0 0 1.194-5.145c-.046-6.392-4.577-10.735-12.095-11.031a170.725 170.725 0 0 0-6.158-.103h-17.618V40.74h11.996V26.932h5.374c3.641 0 5.472 1.598 6.315 5.593.08.41.137.826.17 1.243.15 2.352.209 2.906.268 3.37.089.934.284 1.854.582 2.745l.314.844h12.153Z" fill="#6C6C6C"/></g><path d="M217.467 40.74V1.466h33.929l.006 9.826h-21.704v4.659h18.913v9.15h-18.946v5.238h22.62v10.4h-34.818Zm-44.271 0-.02-39.273h11.787l12.159 20.232.02-20.232h11.82V40.74h-11.787l-12.029-20.607-.026 20.607h-11.924Zm-82.901 0V1.466h12.146v13.499h11.441v-13.5h12.12V40.74h-12.127V25.309h-11.427V40.74H90.295Z" fill="#6C6C6C"/><mask id="c" style="mask-type:luminance" maskUnits="userSpaceOnUse" x="0" y="0" width="297" height="67"><path d="M0 .5h297v66H0V.5Z" fill="#fff"/></mask><g mask="url(#c)"><path d="M277.225 66.462h1.915V54.065h.438l12.572 12.397h3.268V52.287h-1.915v12.429h-.445l-12.643-12.43h-3.19v14.176Zm-8.813 0V64.8H256.22v-4.86h11.663v-1.66H256.22v-4.33h12.179v-1.662h-14.094v14.175h14.107ZM231.417 53.95h7.191c1.798.039 2.909.077 3.334.129.382.037.747.173 1.059.393.229.176.384.428.438.709.09.512.127 1.033.112 1.553.016.492-.025.985-.125 1.469a1.388 1.388 0 0 1-.457.754c-.312.242-.689.39-1.085.425-.425.051-1.517.077-3.269.084h-7.191l-.007-5.516Zm0 12.513v-5.341h9.878a9.223 9.223 0 0 0 1.961-.22 3.094 3.094 0 0 0 1.203-.644c.395-.34.68-.79.817-1.288.188-.74.271-1.5.249-2.262a6.445 6.445 0 0 0-.464-2.758 2.505 2.505 0 0 0-.857-.973 2.987 2.987 0 0 0-1.261-.483c-.488-.06-1.929-.116-4.322-.168h-9.119v14.176l1.915-.039Zm-34.681 0h1.916v-12.43h.843l8.113 12.417h1.556l8.028-12.416h.804V66.45h1.915V52.274h-3.857l-7.675 12.017-7.805-12.004h-3.838v14.175Zm-26.437-7.204c0 2.004.059 3.3.111 3.866a4.03 4.03 0 0 0 .399 1.489c.198.405.49.76.852 1.034.363.274.785.46 1.234.544.516.11 1.041.18 1.569.213.477 0 1.961.052 4.347.084 2.759-.056 4.491-.125 5.197-.206a4.485 4.485 0 0 0 1.791-.548 3.202 3.202 0 0 0 1.38-2.577c.052-.722.091-2.024.104-3.912v-6.958h-1.915v6.971c0 1.811-.039 2.984-.079 3.518a2.04 2.04 0 0 1-.405 1.29c-.33.31-.76.496-1.216.528a41.414 41.414 0 0 1-5.308.225 39.991 39.991 0 0 1-4.308-.174 2.349 2.349 0 0 1-1.308-.477 1.832 1.832 0 0 1-.477-1.172c-.039-.426-.059-1.663-.059-3.718v-6.991h-1.922l.013 6.971Zm-22.743-5.309h7.191c1.798.039 2.909.077 3.334.129.382.037.747.173 1.059.393.228.176.384.428.438.709.093.512.13 1.032.111 1.553.017.492-.025.985-.124 1.469a1.424 1.424 0 0 1-.451.754c-.314.24-.69.388-1.085.425-.432.051-1.524.077-3.269.084h-7.191l-.013-5.516Zm0 12.513v-5.341h9.878a9.238 9.238 0 0 0 1.961-.22 3.05 3.05 0 0 0 1.203-.644c.395-.34.679-.79.817-1.288.187-.74.271-1.5.248-2.262a6.43 6.43 0 0 0-.464-2.758 2.503 2.503 0 0 0-.856-.973 2.986 2.986 0 0 0-1.262-.483c-.488-.06-1.928-.116-4.321-.168h-9.126v14.176l1.922-.039Zm-10.735 0V64.8h-12.179v-4.86h11.663v-1.66h-11.663v-4.33h12.179v-1.662H122.72v14.175h14.101Zm-46.866 0h1.915v-12.43h.843l8.113 12.417h1.589l7.995-12.416h.798V66.45h1.922V52.274h-3.857l-7.682 12.017-7.805-12.004h-3.831v14.175ZM66.087 53.95h7.047c1.732 0 2.916 0 3.543.097.49.014.968.154 1.386.406.458.313.676 1.01.654 2.087 0 1.244-.248 2.023-.739 2.346a2.94 2.94 0 0 1-1.307.386c-.53.052-1.726.078-3.596.078h-6.988v-5.4Zm0 12.513v-5.451h9.884c.318.02.634.057.948.11.404.044.78.226 1.061.514.282.288.452.665.482 1.064.052.43.078 1.229.078 2.397v1.36h1.916V64.44a15.25 15.25 0 0 0-.118-2.384 2.018 2.018 0 0 0-.523-1.038 2.63 2.63 0 0 0-1.477-.708 3.188 3.188 0 0 0 1.752-.864c.249-.291.416-.642.484-1.018a9.536 9.536 0 0 0 .137-1.868 5.726 5.726 0 0 0-.458-2.52 2.94 2.94 0 0 0-1.02-1.11 2.997 2.997 0 0 0-1.444-.468c-.676-.09-2.227-.15-4.655-.18h-8.963v14.175l1.916.006ZM47.128 50.29h2.792v-1.682h-2.78l-.013 1.682Zm-4.674 0h2.765v-1.682h-2.752l-.013 1.682Zm-1.13 11.521 4.575-7.861h.765l4.478 7.861h-9.819Zm14.538 4.652L47.73 52.287h-3.053l-8.152 14.175h2.17l1.713-2.99h11.63l1.706 2.99h2.118Zm-47.925 0h3.268l5.466-12.114 5.23 12.114h3.236l6.785-14.175H29.85L23.875 64.87h-.562l-5.44-12.584h-2.405L9.846 64.87h-.602L3.432 52.287H1.354l6.583 14.175Z" fill="#707070"/><path d="m83.842 14.727.203 1.243H72.16l-.223-.908a6.402 6.402 0 0 0-2.386-3.454 6.562 6.562 0 0 0-4.04-1.269c-4.112 0-7.753 3.866-7.917 10.045-.19 7.146 3.661 11.25 8.126 11.231a6.286 6.286 0 0 0 3.53-1.127 6.533 6.533 0 0 0 1.796-1.818 6.436 6.436 0 0 0 .95-2.358l.17-.98h12.245s-.066.6-.164 1.186c-.098.587-.222 1.225-.222 1.225-1.478 8.015-7.995 13.64-17.743 13.995-11.368.38-20.233-7.539-20.743-19.447C44.984 10.693 52.3 1.956 63.341.642c.93-.109 1.867-.154 2.804-.135 9.153.136 16.167 5.986 17.73 14.176" fill="#6C6C6C"/></g></g><defs><clipPath id="a"><path fill="#fff" transform="translate(0 .5)" d="M0 0h297v66H0z"/></clipPath></defs></svg>