<svg width="280" height="235" fill="none" xmlns="http://www.w3.org/2000/svg"><g opacity=".05" clip-path="url(#a)" stroke="#000" stroke-width="8"><path d="m115.668 76.237 25.146 23.987s12.941 9.721 23.886-.347c10.944-10.07.102-23.64.102-23.64l-49.969-49.966c-12.197-12.197-53.51-32.832-88.531 0C-8.72 59.105 7.1 95.605 19.9 108.404c12.8 12.8 12.925 12.923 12.925 12.923"/><path d="m139.74 51.722 32.176-32.173c13.473-13.473 51.375-27.106 82.799 5.727 31.424 32.832 19.732 68.807 5.735 82.804L140.723 227.8s-12.359 6.471-20.239-1.916c-7.881-8.387-1.917-20.239-1.917-20.239M116.1 75.361 52.19 139.27s-7.005 14.014 0 20.581c7.004 6.567 20.58 0 20.58 0m0 0 39.839-39.837M72.771 159.85s-7.01 13.144 2.183 21.456c9.193 8.313 21.457 2.184 21.457 2.184m0 0 40.714-40.713M96.411 183.49s-5.697 12.802 1.745 20.409c7.443 7.608 20.411 1.746 20.411 1.746m0 0 40.981-40.979"/></g><defs><clipPath id="a"><path fill="#fff" d="M0 0h280v235H0z"/></clipPath></defs></svg>