<svg width="275" height="41" fill="none" xmlns="http://www.w3.org/2000/svg"><g opacity=".5" clip-path="url(#a)"><path fill-rule="evenodd" clip-rule="evenodd" d="M215.509 15.899c-2.215 0-4.091 1.34-4.709 3.086l9.44-.007c-.591-1.78-2.486-3.08-4.731-3.08Zm-9.197 5.172c0 5.011 4.084 9.08 9.124 9.08a9.111 9.111 0 0 0 8.519-5.8l-4.517-.003c-.916 1.123-2.378 1.856-4.027 1.856-2.392 0-4.391-1.493-4.898-3.544l13.99-.005c.087-.517.061-1.04.061-1.584 0-5.016-4.086-9.082-9.128-9.082-5.04 0-9.124 4.066-9.124 9.082Zm-22.749-.01c0-5.008-4.137-9.065-9.238-9.065-5.099 0-9.234 4.057-9.234 9.064s4.135 9.066 9.234 9.066c5.101 0 9.238-4.06 9.238-9.066Zm-19.386-5.247-.002-3.853c-2.11 0-3.885.796-4.662 1.897v-1.501h-3.997v17.441h4.345l.019-10.89c.071-1.668 1.951-3.016 4.297-3.094Zm-13.236-3.457h-3.862l.014 1.74c-1.322-1.345-3.191-2.131-5.528-2.131-4.872 0-9 4.261-9 8.899 0 4.913 4.03 8.896 9 8.896 2.071 0 4.069-1.11 5.562-2.681 0 0-.009.213-.009.326 0 2.983-2.536 5.404-5.658 5.404a5.76 5.76 0 0 1-4.249-1.836l-4.43.02c1.165 3.179 4.67 5.487 8.807 5.487 4.717 0 9.333-4.197 9.339-7.81l.007-.172.007-16.142Zm-21.088 11.778c0-2.764-2.119-4.288-5.085-4.792l-2.818-.563c-1.207-.182-2.692-.526-2.692-1.71 0-.86 1.201-1.56 2.683-1.56 1.482 0 2.905 1.09 2.905 1.954l4.652.008c-.506-3.081-3.64-5.407-7.431-5.407-4.144 0-7.092 2.456-6.984 5.95.08 2.502 2.909 3.964 6.026 4.588l1.027.191c2.196.285 3.417.722 3.477 1.743.076 1.252-1.134 2.05-2.918 2.047-1.906-.002-3.434-1.173-3.434-2.542l-4.442-.011c.057 3.433 3.759 6.2 7.889 6.2 4.162 0 7.145-2.623 7.145-6.096Zm-17.902 5.661-.027-11.58c-.081-3.462-3.175-6.244-6.98-6.244-1.991 0-3.787.763-5.06 1.984l.004-1.606-3.96.005-.007 17.441h4.258l.019-10.25c0-1.841 1.692-3.334 3.784-3.334 2.087 0 3.779 1.493 3.779 3.333l-.004 10.251h4.194Zm-20.405 0-.007-17.44-4.147-.002-.009 1.837c-1.608-1.35-2.877-2.165-5.158-2.165-5.083 0-9.344 4.077-9.344 9.073 0 4.992 4.26 9.06 9.344 9.06 2.265 0 3.543-.741 5.145-2.073l-.005 1.7 4.18.01ZM191.397.487h83.025l.004 40.033H.213V.49L53.566.48v29.453h4.247V19.5c.19-1.758 1.637-3.303 3.66-3.303 2.02 0 3.66 1.477 3.66 3.303l-.015 10.433h4.128l.009-12.122c-.47-3.383-2.99-5.817-6.632-5.817-1.89 0-3.596.67-4.815 1.795V.49L187.155.487v29.405h4.245V19.454c.19-1.756 1.642-3.3 3.66-3.3 2.023 0 3.661 1.477 3.661 3.3v10.438h4.118l.003-12.124c-.47-3.384-2.992-5.818-6.634-5.818-1.888 0-3.594.67-4.811 1.795V.487Zm-17.104 15.55c-2.79 0-5.051 2.248-5.051 5.023 0 2.775 2.261 5.024 5.051 5.024 2.787 0 5.048-2.249 5.048-5.024s-2.261-5.022-5.048-5.022Zm-92.016.023c-2.817 0-5.101 2.242-5.101 5.009 0 2.768 2.284 5.009 5.101 5.009 2.816 0 5.097-2.24 5.097-5.01 0-2.766-2.281-5.008-5.097-5.008Zm64.621 4.928c0 2.732-2.261 4.944-5.049 4.944-2.792 0-5.053-2.212-5.053-4.944 0-2.73 2.261-4.941 5.053-4.941 2.788 0 5.049 2.212 5.049 4.941Z" fill="#000"/></g><defs><clipPath id="a"><path fill="#fff" transform="translate(.213 .48)" d="M0 0h274.213v40.04H0z"/></clipPath></defs></svg>