<svg width="81" height="53" fill="none" xmlns="http://www.w3.org/2000/svg"><g clip-path="url(#a)" fill="#fff"><path d="M2.975 42.527v2.598H1.043v-2.598H0v6.228h1.041v-2.599h1.932v2.599h1.04v-6.228H2.976Zm5.875 6.228h1.105l-2.27-6.228h-.828L4.59 48.755h1.102l.57-1.558h2.029l.569 1.558h-.01Zm-1.565-4.351.642 1.752h-1.29l.648-1.752Zm6.011-1.88v4.497a.68.68 0 0 1-.693.705h-.562a.682.682 0 0 1-.686-.705v-4.494h-1.04v4.494a1.729 1.729 0 0 0 1.726 1.727h.562a1.728 1.728 0 0 0 1.732-1.727v-4.494l-1.039-.003Zm5.861 1.903v-.176a1.729 1.729 0 0 0-1.727-1.727h-.571a1.727 1.727 0 0 0-1.725 1.727v.186a1.727 1.727 0 0 0 1.725 1.727h.562a.69.69 0 0 1 .686.692v.165a.686.686 0 0 1-.686.686h-.562a.684.684 0 0 1-.684-.686h-1.041a1.726 1.726 0 0 0 1.725 1.727h.562a1.73 1.73 0 0 0 1.727-1.727v-.179a1.726 1.726 0 0 0-1.727-1.724h-.562a.684.684 0 0 1-.684-.705v-.176a.68.68 0 0 1 .684-.686h.562a.68.68 0 0 1 .686.686v.2l1.05-.01Zm4.425-1.903H19.56v1.041h1.488v5.187h1.043v-5.184h1.485v-1.041l.007-.003Zm4.606 1.041v-1.04h-4.023v6.227h4.014v-1.026h-2.973v-1.558h1.584v-1.031h-1.593v-1.57l2.991-.002Zm.644.686v2.77a1.729 1.729 0 0 0 1.727 1.727h.56a1.73 1.73 0 0 0 1.727-1.727h-1.05a.686.686 0 0 1-.687.686h-.559a.686.686 0 0 1-.686-.686v-2.767a.681.681 0 0 1 .686-.686h.56a.683.683 0 0 1 .686.686v.345h1.04v-.345a1.726 1.726 0 0 0-1.727-1.727h-.559a1.73 1.73 0 0 0-1.727 1.727l.01-.003Zm7.79-1.727v2.599h-1.929v-2.596H33.65v6.228h1.043v-2.599h1.93v2.599h1.04v-6.228l-1.04-.003Zm5.05 0v3.825l-1.931-3.825H38.7v6.228h1.04v-3.759l1.933 3.76h1.04v-6.226l-1.04-.003Zm3.12 6.228v-6.225H43.75v6.228l1.041-.003Zm3.66-3.115 1.584-3.113h-1.175l-2.002 3.943v-3.94h-1.034v6.228h1.041l.997-1.967.996 1.967h1.175L48.45 45.64l.002-.003Zm13.412-1.386a1.727 1.727 0 0 0-1.725-1.727h-2.287v6.228h1.042v-2.596h1.245a.685.685 0 0 1 .684.694v1.905h1.04v-1.906a1.705 1.705 0 0 0-.497-1.21 1.7 1.7 0 0 0 .498-1.21v-.178Zm-2.97-.686h1.245a.68.68 0 0 1 .684.686v.186a.69.69 0 0 1-.684.705h-1.245v-1.577Zm7.94 0v-1.04h-4.023v6.227h4.014v-1.026h-2.973v-1.558h1.593v-1.031h-1.593v-1.57l2.982-.002Zm4.561.872v-.176a1.729 1.729 0 0 0-1.727-1.727h-.561a1.727 1.727 0 0 0-1.725 1.727v.176a1.727 1.727 0 0 0 1.725 1.727h.561a.689.689 0 0 1 .686.692v.165a.686.686 0 0 1-.686.686h-.561a.687.687 0 0 1-.684-.686h-1.041a1.726 1.726 0 0 0 1.725 1.727h.561a1.73 1.73 0 0 0 1.727-1.727v-.179a1.726 1.726 0 0 0-1.727-1.724h-.561a.689.689 0 0 1-.684-.705v-.176a.68.68 0 0 1 .684-.686h.561a.68.68 0 0 1 .686.686v.2h1.041Zm.769-.176v2.76a1.729 1.729 0 0 0 1.727 1.727h.56a1.73 1.73 0 0 0 1.727-1.727h-1.041a.686.686 0 0 1-.686.686h-.56a.686.686 0 0 1-.686-.686v-2.767a.681.681 0 0 1 .686-.686h.56a.684.684 0 0 1 .686.686v.345h1.04v-.345a1.729 1.729 0 0 0-1.727-1.727h-.559a1.73 1.73 0 0 0-1.727 1.727v.007Zm7.79-1.727v2.598H78.02v-2.605h-1.04v6.228h1.04v-2.599h1.932v2.599h1.041v-6.228l-1.039.007ZM0 50.933h81.002V53H0v-2.067Z"/><path fill-rule="evenodd" clip-rule="evenodd" d="M54.755 27.79a4.176 4.176 0 0 0-.724 1.24.69.69 0 0 0-.011.155l-.101-.023c-.207-.043-.412-.101-.618-.15-.273-.064-.553-.12-.82-.207a5.793 5.793 0 0 1 .885-2.073l1.39 1.058Zm9.401-1.07c.074.102.142.208.204.318.042.068.082.136.122.204.04.068.076.141.11.212.036.07.071.14.104.213.033.073.066.144.094.219.028.075.059.146.085.22.026.076.051.151.075.236.023.084.047.15.066.235.018.084.04.152.056.235-.47.14-.94.258-1.41.383l-.131.035c0-.414-.456-1.07-.748-1.438l1.38-1.05-.007-.021Zm-6.467-.704a6.111 6.111 0 0 0-1.41.496c-.043-.101-.097-.2-.148-.298-.16-.277-.315-.557-.47-.837-.083-.15-.17-.3-.235-.455a7.134 7.134 0 0 1 1.98-.705l.276 1.795.007.004Zm2.328-1.823a6.37 6.37 0 0 1 2.08.729l-.968 1.536a6.168 6.168 0 0 0-1.41-.47c.117-.597.171-1.205.298-1.8v.005Zm-1.567-.098a6.2 6.2 0 0 1 1.368.068l-.273 1.804a7.58 7.58 0 0 0-.514-.047 5.089 5.089 0 0 0-1.102.056c-.106-.596-.221-1.193-.318-1.792.278-.045.558-.075.84-.09Zm3.8.918c.141.074.278.157.409.249a5.9 5.9 0 0 1 1.381 1.32 4.315 4.315 0 0 1-.354.263c-.257.183-.513.364-.771.543l-.282.2a6.3 6.3 0 0 0-1.342-1.048c.32-.508.623-1.03.959-1.527Zm-6.115 1.595a5.59 5.59 0 0 0-1.26 1.02l-.282-.215c-.368-.281-.74-.559-1.118-.831a5.317 5.317 0 0 1 1.69-1.51l.97 1.536Zm8.961 2.42v3.022h-1.563v-2.63l1.565-.393h-.002Zm-11.089.392v2.096l-1.577-1.44v-.02c0-.344-.014-.704 0-1.037l1.577.394v.007Zm-25.48 7.583h.705v.902h10.662a19.06 19.06 0 0 0-.493-1.073l-.275-.576h-4.162a2.675 2.675 0 0 1-.19.418.817.817 0 0 1-.705.47h-.017l-.075.014a.604.604 0 0 1-.099.029l-.808.148a.705.705 0 0 1-.6.03.512.512 0 0 1-.322-.294 4.928 4.928 0 0 0-.617.036 2.385 2.385 0 0 1-.675 0 .517.517 0 0 1-.275-.867h-2.04V37l-.014.003Zm30.626-1.297h4.17v-.923h3.613v.968c.01.173.01.346 0 .52h.717v.744h1.036v.881H61.1l-.285-.235c-.235-.195-.47-.38-.67-.566l-.615-.564-.31-.282-.602-.55.534.008Zm-13.142.553h2.299c.119.363.26.718.423 1.064.096.201.205.396.324.585h-5.816a9.982 9.982 0 0 0 1.628-.813 10.87 10.87 0 0 0 1.152-.836h-.01Zm6.317 0-.075-.538h1.03c.324.176.65.359.977.542h.026l.03.017h.043l.026.016h.192l.454.26.5.252c.484.235 1.117.557 1.645.865h-4.808c-.063-.47-.13-.914-.195-1.372v-.021l-.038-.259.193.238Zm11.922-3.977h1.793v2.194l-2.52-.019V32.28l.727.003Z"/><path fill-rule="evenodd" clip-rule="evenodd" d="M58.386 26.068a3.43 3.43 0 0 1 .38-.012h.494l.124.014.123.014.122.019.122.021.122.026.12.026.12.03.12.036c.04 0 .08.023.117.035l.118.04c.04.011.079.026.117.042l.115.045.115.047.113.051.11.052.111.056.11.06.106.063.108.063.104.066.103.07.099.07.101.076.096.078.097.077.091.082.092.085.09.084c.357.36.876 1.05 1.008 1.532.026.185.032.373.016.56v6.577h-.059a.17.17 0 0 0-.136.036c-.017.2-.017.402 0 .603v-.401h-.308v-6.813a3.056 3.056 0 0 0 0-.531 3.424 3.424 0 0 0-.555-.914 4.435 4.435 0 0 0-2.263-1.45 5.874 5.874 0 0 0-.879-.148h-.819l-.111.012-.11.014-.111.017-.11.018-.111.024-.108.023-.108.029-.108.03-.106.03-.106.036-.105.037-.104.043-.103.042-.101.045-.101.049-.113.068-.097.054-.098.054-.094.059-.094.059-.094.063-.092.064-.09.065-.086.07-.087.071c-.028.024-.056.047-.082.073l-.085.075-.08.078c-.216.216-.813.965-.881 1.243a3.255 3.255 0 0 0 0 .526v2.483l-.508-.47v-2.063a2.436 2.436 0 0 1 .02-.54c.173-.445.421-.858.732-1.221a5.056 5.056 0 0 1 3.478-1.741l-.011.014ZM54.53 36.405h-.157v-.087l.157.089v-.002Z"/><path d="M33.477 16.93V9.307l.766-.587h.023v11.445h1.803c0 .247.014.51.025.787h-1.828V33.33c-.235.516-.491 1.05-.658 1.41a.204.204 0 0 0-.026.126h-.105V16.929Zm14.04-7.392v-.413l.801.799V20.17h.689v.355l-.036.435h-.643v1.564a6.467 6.467 0 0 1-.207-.162 18.805 18.805 0 0 1-.602-.484v-.897h-.959c-.178-.21-.406-.498-.646-.806h1.603c0-3.543-.019-7.09 0-10.633v-.005Zm3.59 10.633H58.6l.785.79H51.16l-.014-.198-.045-.566v-.026h.008Zm-2.786 3.846v.27a13.58 13.58 0 0 1-.807-.514v-.33c.285.217.564.417.806.574Zm0 1.645v2.28h-.802V25.23c.259.16.527.305.804.433h-.002Z"/><path fill-rule="evenodd" clip-rule="evenodd" d="M42.716 21.087c.025.224.037.45.035.675 0 .371 0 .423-.12.538a.234.234 0 0 1-.274.094l-.158-.028.235.347c.209.332.445.647.705.94.223.247.263.2.263-.34a5.638 5.638 0 0 0-.57-2.211l-.14-.285.034.261-.01.01Z"/><path fill-rule="evenodd" clip-rule="evenodd" d="M50.273 16.854c-.164.174-.35.2-.456.383l-.014-.019a.649.649 0 0 0-.023.101.733.733 0 0 0-.04.184c-.035.314.021.64.012.986-.02.188-.038.41-.052.62-.042.47-.094 1.07-.09 1.46-.103 1.308-.246 2.602-.568 3.15-.609-.235-2.383-1.706-2.836-2.213-.644-.705-2.024-2.636-2.261-2.845-.47-.42-1.483-.148-2.01-.496-.333-.728-.29-1.506.033-1.818a.705.705 0 0 1 .66 0c.269.127.544.235.819.35a.457.457 0 0 0 .641-.324c.019-.066.035-.141.057-.203a.475.475 0 0 1 .032-.082c.057-.075.146-.047.214-.131a.236.236 0 0 0 .05-.207.235.235 0 0 0 .22-.16.377.377 0 0 1-.037-.084c-.08-.423.181-.386.47-.503.15-.063.176-.127.113-.28-.047-.108-.11-.211-.153-.322a1.643 1.643 0 0 1-.12-.965c.186-.078.186-.078.224-.193l-.18.033c.107-.136.325-.376.3-.561a2.32 2.32 0 0 1 .1-.94c.141-.526.125-1.372-.289-1.762a7.925 7.925 0 0 0-.79-.644.825.825 0 0 0-.418-.134 1.759 1.759 0 0 1-.705-.19 1.262 1.262 0 0 0-.984-.148 1.1 1.1 0 0 1-.393.047 1.956 1.956 0 0 0-.747.064.291.291 0 0 1-.369-.106c.106-.235-.254-.705-.512-.766-.252-.136-.353.07-.623.03-.179-.028-.36-.152-.545-.126-.849.124-.294.704-.87.9a.594.594 0 0 0-.336.277c-.192.345-.303.704-.051 1.066a.843.843 0 0 1 .037.08c.113.216-.096.299-.092.47.02.442.501.874.957.627.18-.099-.019.115-.054.148a2.15 2.15 0 0 0-.574.94.79.79 0 0 0 .308.996.47.47 0 0 1 .261.282c.024.063 0 .153.021.214a.703.703 0 0 0 .412.378c.59 1.02 1.428-.136 1.071 1.666-.275 1.085-.554 1.663-.815 1.992-1.133.78-2.207-.776-2.52.994-.25 1.428.37 4.512-.126 7.433-.174 1.029-.527 2.093-.785 3.136-.259 1.043-.491 2.09-.769 3.148a3.41 3.41 0 0 1-.174.686c-.425.898-.92 1.978-.94 1.983-.103.087-.171.044-.312.042-.235 0-1.079 0-1.26.042-.19.076-.362.19-.507.334-.297.294-.127.127-.492.374a3.404 3.404 0 0 0-.49.37c.265.06.81-.096 1.433-.04.183.015.81-.338.926-.185-.106.104-.51.143-.687.489.149.052.196 0 .306-.033l.86-.157c.221-.09.386.014.555-.273.131-.22.193-.489.329-.738.077-.136.507-.96.85-1.755.851-1.743 1.622-3.397 2.165-5.403.155-.573.705-4.076.778-4.172.524.448 1.762 1.938 1.67 2.965-.157 1.724-2.47 3.089-.989 7.344.402 1.153 1.15 2.445 1.445 3.274 1.342-.026 3.077-.756 3.977-1.332 1.28-.82 1.823-1.442 2.747-2.563a9.896 9.896 0 0 0 1.208-1.86c.176-.111.358-.213.545-.304-.235 1.88-1.065 2.648.146 5.251.171.371.36.611.545.952.416.768 1.2 2.394 1.198 3.307 0 .694-.258.506-.409.853-.343.79.445 1.36.764 1.96.496.925.268 2.455 1.342 3.084.195.118.658.376.964.195.014-.305-.39-.47-.658-1.574-.111-.456-.499-4.555-.564-5.208-.235-2.33-.642-4.675-.926-7.013.444.43.533.757 1.475 1.288l2.508 1.39c.768.4 2.759 1.316 3.313 1.948.435.496.144.538.212 1.015.11.785 1.314.773 1.668.904.896.339 1.044.87 1.54 1.175.12.075.249.136.4.22.148.07.3.133.455.186.235.085.726.4.928.174.202-.225-.054-.533-.235-.679a13.226 13.226 0 0 1-1.624-1.705c-.507-.689-1.645-1.509-2.296-2.1l-8.01-7.314c-.39-.362-.262-.155-.454-.733-.299-.89-1.027-.9-1.744-.874-3.555-.092-5.701.407-6.077-.886 0-1 .256-1.982.745-2.854 1.833-3.115-1.112-3.289 2.726-.69.511.369 1.053.694 1.619.972.454.202.872.705 1.304.458.755-.435.75-3.315.705-4.062-.03-.507-.063-.925-.091-1.28a7.97 7.97 0 0 1 .195-1.713c.08-.164.19-.15.364-.235.282-.124 1.332-.618 1.537-.759a2.02 2.02 0 0 0 .442-.704c.202-.529.084-.235.4-.738a4.79 4.79 0 0 0 .399-.735c-.362.075-1.138 1.174-1.94 1.451-.234.083-.627.278-.857.153.073-.188.55-.47.576-.991-.212.019-.235.1-.36.214l-.977.676h.004Z"/><path d="m71.198 29.528-.084.085h-2.136L41.52 2.208 27.046 13.436H24.39L41.709 0l29.49 29.528Z"/><path fill-rule="evenodd" clip-rule="evenodd" d="M58.422 27.3c.256.13.693.642.881.88a4.495 4.495 0 0 1 1.01 3.444c.054-.143.088-.291.104-.442a4.156 4.156 0 0 0-.101-1.88 5.824 5.824 0 0 1 1.34 2.676c.176 1.027-.097 1.863-.69 2.697h-.763c.178-.228.286-.503.31-.791a1.688 1.688 0 0 0-.503-1.248c.105.247.12.523.043.78-.132-.496-.451-.806-.62-1.266a1.855 1.855 0 0 1 .124-1.553c-.193.164-.39.32-.583.486a4.067 4.067 0 0 0-.733.881 1.901 1.901 0 0 0-.275 1.541 1.434 1.434 0 0 1-.416-1.306c-.207.432-.47.803-.498 1.302a1.583 1.583 0 0 0 .47 1.174h-.012l-1.492-1.362c-.13-.764.134-1.469.5-2.157-.042.46.04.923.235 1.341-.411-1.614.886-1.879.656-3.289.357.34.654.737.879 1.175.322-.975.538-2.093.146-3.078l-.012-.004Z"/><path d="M56.235 45.553V44.52h-2.768v1.033h2.768Z"/></g><defs><clipPath id="a"><path fill="#fff" d="M0 0h81v53H0z"/></clipPath></defs></svg>