<svg width="280" height="216" fill="none" xmlns="http://www.w3.org/2000/svg"><g opacity=".05" clip-path="url(#a)"><path fill-rule="evenodd" clip-rule="evenodd" d="M114.225 215 0 155.692l53.543-19.251 5.65 2.882-47.103 16.935 103.045 53.502 151.954-54.633-46.742-24.27 6.553-2.309 52.28 27.144L114.225 215Z" fill="#000"/><path d="m0 113.979 164.954-59.308 114.226 59.308-164.955 59.307L0 113.979Z" fill="#fff"/><path d="M115.135 168.046 12.09 114.544l36.24-13.029-5.528-2.925L0 113.979l114.225 59.307 164.955-59.307-42.059-21.838-6.457 2.36 36.425 18.912-151.954 54.633Z" fill="#000"/><path fill-rule="evenodd" clip-rule="evenodd" d="m140.43 138.169-24.677-11.495c-7.187-.419-11.407-.93-18.555-2.183l40.511 18.87.03.013c1.39.613 1.894 1.146 2.052 1.39.092.142.122.239.04.487-.278.833-1.63 2.324-4.537 3.854-2.728 1.437-6.23 2.585-9.71 3.069-3.482.484-6.606.258-8.853-.685l-67.469-34.014-.095-.04c-5.345-2.276-10.693-2.416-14.886-.489-4.277 1.966-6.893 5.892-6.89 10.684l6.21 2.885-.002-2.888c-.002-2.693 1.368-4.553 3.431-5.502 2.13-.979 5.441-1.165 9.462.524l67.458 34.008.088.037c3.766 1.625 8.284 1.774 12.463 1.193 4.223-.587 8.451-1.965 11.85-3.754 3.221-1.696 6.394-4.131 7.408-7.168.564-1.687.432-3.511-.651-5.182-1.01-1.561-2.68-2.728-4.678-3.614Zm37.781-22.564-7.836 2.984 16.164 8.301.03.014c1.368.666 1.864 1.244 2.02 1.509.09.154.12.259.038.528-.273.904-1.604 2.521-4.464 4.182-2.684 1.558-6.13 2.804-9.555 3.328-3.425.525-6.498.28-8.709-.742l-18.814-10.501c-3.322.633-6.469 1.024-8.719 1.303-.521.065-.993.123-1.409.178l26.201 14.624.089.043c3.705 1.763 8.151 1.923 12.264 1.293 4.155-.636 8.316-2.131 11.661-4.072 3.169-1.84 6.292-4.482 7.289-7.777.555-1.83.425-3.809-.64-5.622-.995-1.693-2.638-2.959-4.603-3.921l-11.007-5.652Zm49.475-18.252 10.282 4.798c1.946.865 3.572 2.004 4.557 3.526 1.054 1.63 1.183 3.41.634 5.056-.988 2.963-4.079 5.338-7.216 6.993-3.311 1.745-7.43 3.09-11.544 3.662-4.071.566-8.472.422-12.141-1.163l-.088-.038-20.432-10.36 7.531-2.598 15.615 7.918c2.188.919 5.231 1.139 8.622.668 3.39-.472 6.801-1.592 9.459-2.994 2.831-1.493 4.148-2.947 4.419-3.76.08-.242.051-.337-.039-.475-.154-.238-.645-.758-1.999-1.357l-.029-.012-15.344-7.179 7.713-2.685Z" fill="#000"/><path d="M165.627 17.82 278.06 76.198 162.251 118.92c-19.783 5.273-36.466 6.238-50.593 4.966-14.133-1.273-25.826-4.795-35.597-8.609L2.755 76.379 165.627 17.82Z" fill="#fff" stroke="#fff" stroke-width="2"/><path fill-rule="evenodd" clip-rule="evenodd" d="m150.771 14.967 15.004-5.395L280 68.88l-117.101 43.199c-40.059 10.695-67.93 4.001-87.665-3.712L.82 68.88l83.416-29.991-10.519 10.32L16 69.962l61.85 32.82c18.72 7.27 45.035 13.55 83.153 3.438L264.8 67.929l-99.483-51.653-25.044 9.004 10.498-10.313Z" fill="#000"/><path d="M121.245 78.648c-8.721 16.21-25.635 26.146-36.735 28.843 14.536 7.498 60.256 8.283 76.376 0-14.799-1.651-30.656-7.142-39.641-28.843Z" stroke="#000" stroke-width="6" stroke-linecap="round"/><path d="M123.48 4.387 64.627 62.614m92.338-58.227L98.112 62.614" stroke="#fff" stroke-width="2" stroke-linecap="round"/><path d="M81.147 4.387 140 62.614m0-58.227L81.147 62.614" stroke="#000" stroke-width="8" stroke-linecap="round"/></g><defs><clipPath id="a"><path fill="#fff" d="M0 0h280v216H0z"/></clipPath></defs></svg>