<svg width="1919" height="412" fill="none" xmlns="http://www.w3.org/2000/svg"><g clip-path="url(#a)"><path d="M769 174V-50h380v280.5L932.5 12 769 174Z" fill="#fff" stroke="#fff"/><mask id="b" style="mask-type:luminance" maskUnits="userSpaceOnUse" x="-1" y="0" width="1264" height="402"><path d="M1262.08.044H-1V402h1263.08V.044Z" fill="#fff"/></mask><g mask="url(#b)" fill="#000"><path d="M769 170H-1v20h770v-20ZM932.113.044l329.967 329.963-14.15 14.143L917.971 14.186 932.113.044Z"/><path d="M755.522 176.738 931.26 1l14.142 14.142L769.664 190.88l-14.142-14.142Z"/><path d="M833 402V105h10v297h-10Zm190 0V105h10v297h-10Z"/><path d="M1157 229H837v10h320v-10Z"/></g></g><defs><clipPath id="a"><path fill="#fff" d="M0 0h1919v412H0z"/></clipPath></defs></svg>