<svg width="300" height="67" fill="none" xmlns="http://www.w3.org/2000/svg"><g opacity=".5" clip-path="url(#a)" fill="#000"><path d="m206.297 10.86 18.663 45.036h-8.059l-3.153-7.578h-16.274l-3.45 7.578h-12.315L171.246 40.92v14.976h-7.861V14.888l14.478.015c4.878 0 12.626 3.468 12.555 12.614-.07 9.914-7.988 12.411-10.675 12.937 2.617 3.51 5.331 7.248 7.989 10.798l18.296-40.395.269.004Zm-35.051 22.43 6.447.001c4.016 0 4.836-3.042 4.836-5.77 0-2.929-1.259-5.183-4.765-5.183l-6.518-.001V33.29Zm29.579 7.624h9.868l-4.722-11.363-5.146 11.363ZM43.163 55.65 31.98 66.867l-9.473-33.034L1.03 11.313l31.02 3.067 23.146 14.896 9.812 14.457-35.544-22.956-11.482-1.403 32.86 33.822 2.87-8.324c3.888 3.68 9.727 5.434 15.184 3.681 4.723-1.402 8.894-5.958 9.827-10.514 1.103-5.346-.834-10.34-5.19-13.845-3.237-2.716-7.592-4.031-12.045-2.98-3.054.79-5.925 2.191-8.23 4.558l-6.856-4.294c6.023-7.01 15.467-9.903 24.63-7.449 8.059 2.366 15.283 10.165 16.019 18.139.919 9.989-3.705 18.576-13.432 22.694-4.524 2.015-10.732 2.978-15.737 1.14l-3.874 10.864L43.163 55.65Zm-8.625-.724 3.733-4.561-7.154-7.508 3.421 12.07Z"/><path d="M26.295 24.701c0-1.147.975-2.076 2.177-2.076s2.177.93 2.177 2.077c0 1.147-.975 2.077-2.177 2.077-1.202-.001-2.178-.93-2.177-2.078Zm208.067 36.276L208.432.133l8.23.008 17.743 41.646 11.623-26.9h8.341l-20.007 46.09Zm31.616-5.081h-7.779v-41.01h7.779v41.01Zm33.367-33.562h-10.831v33.561h-7.733v-33.56h-10.689v-7.448h29.253v7.447Zm-164.01 12.107c0 6.464-.919 13.912 7.536 13.912 8.243 0 7.437-7.357 7.437-13.924V14.89h7.762v26.054c0 5.472-4.072 14.954-15.199 14.954-11.099 0-15.299-9.481-15.299-14.954l.001-26.055 7.762-.001V34.44ZM104.456 48.43c-1.555.277-3.337.267-4.709.27V22.19c1.386 0 3.139.004 4.723.279 9.021 1.56 11.339 8.97 11.353 13.293.015 4.285-2.347 11.103-11.367 12.668Zm-5.047-33.543H91.66v41.008h7.183c12.414 0 24.474-6.26 24.474-20.53 0-12.169-7.932-20.478-23.908-20.478Z"/></g><defs><clipPath id="a"><path fill="#fff" transform="translate(.947 .133)" d="M0 0h298.48v66.733H0z"/></clipPath></defs></svg>