<svg width="25" height="25" fill="none" xmlns="http://www.w3.org/2000/svg"><g clip-path="url(#a)"><path d="m23.268 16.33-5.477-2.454a1.623 1.623 0 0 0-1.605.19L13.323 16.5a.218.218 0 0 1-.195.007c-1.84-.888-3.747-2.783-4.639-4.598a.222.222 0 0 1 0-.195l2.444-2.899a1.624 1.624 0 0 0 .179-1.606L8.673 1.741A1.623 1.623 0 0 0 6.985.77a6.29 6.29 0 0 0-5.47 6.249c0 9.08 7.387 16.466 16.467 16.466a6.291 6.291 0 0 0 6.249-5.47 1.623 1.623 0 0 0-.963-1.685Zm-5.286 5.764c-8.312 0-15.075-6.763-15.075-15.075a4.897 4.897 0 0 1 4.252-4.87h.027a.232.232 0 0 1 .213.151l2.447 5.463a.232.232 0 0 1 0 .194l-2.448 2.906a.542.542 0 0 0-.05.066 1.623 1.623 0 0 0-.105 1.592c1.028 2.106 3.15 4.212 5.28 5.24a1.623 1.623 0 0 0 1.661-.164l2.862-2.436a.222.222 0 0 1 .186-.011l5.479 2.455a.232.232 0 0 1 .14.232 4.898 4.898 0 0 1-4.87 4.257Z" fill="#000"/></g><defs><clipPath id="a"><path fill="#fff" d="M0 0h25v25H0z"/></clipPath></defs></svg>