<svg width="1919" height="412" fill="none" xmlns="http://www.w3.org/2000/svg"><path d="M769 174V-50h380v280.5L932.5 12 769 174Z" fill="#fff" stroke="#fff"/><g clip-path="url(#a)" fill="#000"><path d="M-1 170h770v20H-1zM932.113.044l329.967 329.963-14.15 14.143L917.971 14.186 932.113.044Z"/><path d="M931.26 1 755.522 176.738l14.142 14.142L945.402 15.142z"/><path d="M833 105v297h10V105zm190 0v297h10V105z"/><path d="M1157 229H837v10h320v-10Z"/></g><path fill="#E3000B" d="M505 402h1414v10H505z"/><defs><clipPath id="a"><path fill="#fff" transform="translate(-1 .044)" d="M0 0h1263.08v401.956H0z"/></clipPath></defs></svg>