<svg width="52" height="52" fill="none" xmlns="http://www.w3.org/2000/svg"><path d="M33.813 26a7.813 7.813 0 0 1-15.626 0c0-.445.047-.88.128-1.302h-2.732v10.409c0 .724.586 1.31 1.31 1.31H35.11a1.31 1.31 0 0 0 1.308-1.31v-10.41h-2.732c.08.423.127.858.127 1.303ZM26 31.208a5.21 5.21 0 1 0-.002-10.419A5.21 5.21 0 0 0 26 31.21Zm6.25-10.677h3.122a.784.784 0 0 0 .784-.781v-3.122a.784.784 0 0 0-.784-.784H32.25a.784.784 0 0 0-.784.784v3.122c.003.43.354.781.784.781ZM26 1a25 25 0 1 0 0 50 25 25 0 0 0 0-50Zm13.02 35.128a2.902 2.902 0 0 1-2.892 2.893H15.872a2.902 2.902 0 0 1-2.893-2.893V15.872a2.902 2.902 0 0 1 2.893-2.893h20.256a2.902 2.902 0 0 1 2.893 2.893v20.256Z" fill="#000"/></svg>