<svg width="161" height="123" viewBox="0 0 161 123" fill="none" xmlns="http://www.w3.org/2000/svg">
<g filter="url(#filter0_d)">
<path d="M20 0H141V35C141 68.1371 113.637 95 80.5 95C47.3629 95 20 68.1371 20 35V0Z" fill="white"/>
</g>
<path fill-rule="evenodd" clip-rule="evenodd" d="M44.0087 60.9861V53.5921H46.6869V60.9861C46.6869 61.7273 47.1333 62.4649 48.0261 62.4649C48.9188 62.4649 49.3652 61.7273 49.3652 60.9861V53.5921H52.0434C52.0433 55.9152 52.0434 59.0132 52.0434 60.9861C52.0434 63.2087 50.2437 65 48.0261 65C45.808 65 44.0087 63.2087 44.0087 60.9861Z" fill="#3A3484"/>
<path fill-rule="evenodd" clip-rule="evenodd" d="M59.4087 64.9907V56.2763H57.4V53.5921H64.0957V56.2763L62.087 56.267V64.9907H59.4087Z" fill="#3A3484"/>
<path fill-rule="evenodd" clip-rule="evenodd" d="M70.1218 59.2956C70.1218 56.1477 72.6714 53.5921 75.8125 53.5921C78.9547 53.5921 81.5044 56.1477 81.5044 59.2956C81.5044 62.4444 78.9547 65 75.8125 65C72.6714 65 70.1218 62.4444 70.1218 59.2956ZM78.8256 59.2956C78.8256 57.6296 77.4761 56.2765 75.8125 56.2765C74.1496 56.2765 72.8001 57.6296 72.8001 59.2956C72.8001 60.963 74.1496 62.3151 75.8125 62.3151C77.4761 62.3151 78.8256 60.963 78.8256 59.2956Z" fill="#3A3484"/>
<path fill-rule="evenodd" clip-rule="evenodd" d="M100.252 53.5921V65H102.93V53.5921H100.252Z" fill="#3A3484"/>
<path fill-rule="evenodd" clip-rule="evenodd" d="M114.313 65V62.3293L111.635 62.3023V64.9865L108.957 65V57.606C108.957 55.3827 110.757 53.5921 112.974 53.5921C115.191 53.5921 116.991 55.3827 116.991 57.606V65H114.313ZM114.313 60.3161V57.6195C114.313 56.878 113.713 56.2759 112.974 56.2759C112.235 56.2759 111.635 56.8013 111.635 57.5428V60.2891L114.313 60.3161Z" fill="#3A3484"/>
<path fill-rule="evenodd" clip-rule="evenodd" d="M87.5304 53.5921V65H90.2087V60.3523H91.2967C92.9212 60.3523 94.2261 58.7109 94.2261 56.9477C94.2261 55.125 92.9052 53.6407 91.2613 53.5942V53.5921H87.5304ZM91.0875 58.2397C91.7387 58.214 92.1337 57.6968 92.1337 56.9722C92.1337 56.2316 91.7594 55.7046 91.0875 55.7046H90.2087V58.2397H91.0875Z" fill="#3A3484"/>
<path fill-rule="evenodd" clip-rule="evenodd" d="M64.7652 31.1328C64.7652 22.4308 71.8061 15.3421 80.5065 15.3421C89.1963 15.3421 96.2348 22.4325 96.2348 31.1328C96.2348 39.8208 89.1885 46.8816 80.5065 46.8816C71.814 46.8816 64.7652 39.8225 64.7652 31.1328ZM91.2198 31.1328C91.2198 25.1932 86.4126 20.3666 80.5065 20.3666C74.5866 20.3666 69.7802 25.1948 69.7802 31.1328C69.7802 37.0429 74.5787 41.8571 80.5065 41.8571C86.4203 41.8571 91.2198 37.0445 91.2198 31.1328Z" fill="#3A3484"/>
<path fill-rule="evenodd" clip-rule="evenodd" d="M58.5995 44.5455C59.5308 43.5753 59.5247 42.0067 58.585 41.0451L48.8105 31.0381L58.585 21.0356C59.5247 20.074 59.5312 18.5054 58.5999 17.5352C57.6683 16.5646 56.1497 16.5576 55.2095 17.5195L42 31.0368L55.2091 44.5603C56.1493 45.5223 57.6679 45.5157 58.5995 44.5455Z" fill="#3A3484"/>
<path fill-rule="evenodd" clip-rule="evenodd" d="M64.9511 47.019C63.9969 46.0396 63.9969 44.4496 64.9506 43.4703L92.5952 15.0615C93.5482 14.0818 95.0961 14.0813 96.049 15.061C97.0032 16.0403 97.0033 17.6304 96.0495 18.6097L68.4049 47.0185C67.4519 47.9982 65.904 47.9986 64.9511 47.019Z" fill="#39DB7F"/>
<path fill-rule="evenodd" clip-rule="evenodd" d="M102.4 44.5455C101.469 43.5753 101.475 42.0067 102.415 41.0451L112.19 31.0381L102.415 21.0356C101.475 20.074 101.469 18.5054 102.4 17.5352C103.332 16.5646 104.85 16.5576 105.791 17.5195L119 31.0368L105.791 44.5603C104.851 45.5223 103.332 45.5157 102.4 44.5455Z" fill="#3A3484"/>
<path d="M116.658 14C117.052 14 117.436 14.1017 117.81 14.3051C118.185 14.5064 118.477 14.7959 118.686 15.1736C118.896 15.5492 119 15.9414 119 16.3502C119 16.7549 118.896 17.144 118.689 17.5176C118.484 17.8911 118.196 18.1817 117.823 18.3892C117.452 18.5946 117.064 18.6974 116.658 18.6974C116.252 18.6974 115.863 18.5946 115.49 18.3892C115.12 18.1817 114.831 17.8911 114.624 17.5176C114.417 17.144 114.313 16.7549 114.313 16.3502C114.313 15.9414 114.418 15.5492 114.627 15.1736C114.838 14.7959 115.131 14.5064 115.506 14.3051C115.881 14.1017 116.265 14 116.658 14ZM116.658 14.3891C116.329 14.3891 116.008 14.4742 115.695 14.6444C115.384 14.8125 115.141 15.0542 114.965 15.3697C114.789 15.683 114.701 16.0099 114.701 16.3502C114.701 16.6885 114.787 17.0133 114.959 17.3246C115.133 17.6338 115.375 17.8756 115.686 18.0499C115.996 18.2221 116.32 18.3083 116.658 18.3083C116.995 18.3083 117.319 18.2221 117.63 18.0499C117.941 17.8756 118.182 17.6338 118.354 17.3246C118.526 17.0133 118.612 16.6885 118.612 16.3502C118.612 16.0099 118.524 15.683 118.348 15.3697C118.174 15.0542 117.931 14.8125 117.618 14.6444C117.305 14.4742 116.985 14.3891 116.658 14.3891ZM115.755 17.6134V15.084H116.5C116.796 15.084 117.007 15.1445 117.139 15.1922C117.272 15.2379 117.378 15.3188 117.456 15.435C117.535 15.5513 117.575 15.6747 117.575 15.8055C117.575 15.9902 117.508 16.151 117.376 16.288C117.245 16.4249 117.071 16.5017 116.854 16.5183C116.943 16.5557 117.014 16.6003 117.068 16.6522C117.169 16.7518 117.294 16.9189 117.441 17.1534L117.738 17.6134H117.198L117.027 17.2499C116.851 16.9365 116.71 16.7404 116.602 16.6615C116.527 16.6034 116.439 16.5294 116.296 16.5294L116.116 16.5183V17.6134H115.755ZM116.116 16.168H116.476C116.712 16.168 116.927 16.1904 117.012 16.1199C117.099 16.0493 117.139 15.9217 117.139 15.8055C117.139 15.6687 117.028 15.554 116.906 15.5066C116.834 15.4776 116.675 15.435 116.476 15.435H116.116V16.168Z" fill="#3A3484"/>
<defs>
<filter id="filter0_d" x="0" y="-12" width="161" height="135" filterUnits="userSpaceOnUse" color-interpolation-filters="sRGB">
<feFlood flood-opacity="0" result="BackgroundImageFix"/>
<feColorMatrix in="SourceAlpha" type="matrix" values="0 0 0 0 0 0 0 0 0 0 0 0 0 0 0 0 0 0 127 0"/>
<feOffset dy="8"/>
<feGaussianBlur stdDeviation="10"/>
<feColorMatrix type="matrix" values="0 0 0 0 0.8375 0 0 0 0 0.8375 0 0 0 0 0.8375 0 0 0 0.3 0"/>
<feBlend mode="normal" in2="BackgroundImageFix" result="effect1_dropShadow"/>
<feBlend mode="normal" in="SourceGraphic" in2="effect1_dropShadow" result="shape"/>
</filter>
</defs>
</svg>
