<svg width="375" height="671" fill="none" xmlns="http://www.w3.org/2000/svg"><path stroke="#F7F7F7" d="M-47 0h67v67h-67zm67 0h67v67H20zm67 0h67v67H87zm67 0h67v67h-67zm67 0h67v67h-67zm67 0h67v67h-67zm67 0h67v67h-67zM-47 67h67v67h-67zm67 0h67v67H20zm67 0h67v67H87zm67 0h67v67h-67zm67 0h67v67h-67zm67 0h67v67h-67zm67 0h67v67h-67zm-402 67h67v67h-67zm67 0h67v67H20zm67 0h67v67H87zm67 0h67v67h-67zm67 0h67v67h-67zm67 0h67v67h-67zm67 0h67v67h-67zm-402 67h67v67h-67zm67 0h67v67H20zm67 0h67v67H87zm67 0h67v67h-67zm67 0h67v67h-67zm67 0h67v67h-67zm67 0h67v67h-67zm-402 67h67v67h-67zm67 0h67v67H20zm67 0h67v67H87zm67 0h67v67h-67zm67 0h67v67h-67zm67 0h67v67h-67zm67 0h67v67h-67zm-402 67h67v67h-67zm67 0h67v67H20zm67 0h67v67H87zm67 0h67v67h-67zm67 0h67v67h-67zm67 0h67v67h-67zm67 0h67v67h-67zm-402 67h67v67h-67zm67 0h67v67H20zm67 0h67v67H87zm67 0h67v67h-67zm67 0h67v67h-67zm67 0h67v67h-67zm67 0h67v67h-67zm-402 67h67v67h-67zm67 0h67v67H20zm67 0h67v67H87zm67 0h67v67h-67zm67 0h67v67h-67zm67 0h67v67h-67zm67 0h67v67h-67zm-402 67h67v67h-67zm67 0h67v67H20zm67 0h67v67H87zm67 0h67v67h-67zm67 0h67v67h-67zm67 0h67v67h-67zm67 0h67v67h-67zm-402 67h67v67h-67zm67 0h67v67H20zm67 0h67v67H87zm67 0h67v67h-67zm67 0h67v67h-67zm67 0h67v67h-67zm67 0h67v67h-67z"/></svg>