<svg width="108" height="36" fill="none" xmlns="http://www.w3.org/2000/svg"><path d="M50.643 4.785a2741.6 2741.6 0 0 1 7.948 7.893.067.067 0 0 0 .094 0l10.65-10.57c.04-.039.033-.068-.019-.089l-1.6-.596a.054.054 0 0 1-.016-.09.054.054 0 0 1 .033-.013c.128-.01.25.003.376-.021 1.553-.293 3.107-.577 4.664-.85.047-.008.067.012.058.058l-.88 4.942c-.028.161-.07.164-.128.012l-.58-1.54a.02.02 0 0 0-.024-.01.02.02 0 0 0-.008.004l-12.51 12.43c-.04.04-.079.04-.119 0l-7.967-7.917c-.028-.028-.056-.028-.084 0l-8.002 7.943a.046.046 0 0 1-.05.01.043.043 0 0 1-.014-.01l-8.013-7.962a.03.03 0 0 0-.041 0L17.087 25.72a.517.517 0 0 1-.364.15H.056A.057.057 0 0 1 0 25.814l.022-2.455c0-.056.029-.084.084-.084h15.608a.3.3 0 0 0 .211-.086l18.459-18.46c.025-.024.05-.024.075 0l8 7.961c.027.027.055.027.082 0l8.017-7.98a.035.035 0 0 1 .057.013l.011.033a.08.08 0 0 0 .017.03Zm31.932 15.162-1.302.002a.062.062 0 0 0-.062.062l.002 1.066c0 .034.028.062.062.062l1.302-.002a.062.062 0 0 0 .061-.062l-.001-1.067a.062.062 0 0 0-.062-.061Zm-32.13 4.761h2.281a.038.038 0 0 1 .038.038l-.007 1.087a.038.038 0 0 1-.038.038h-3.771a.038.038 0 0 1-.038-.038l.056-5.522a.038.038 0 0 1 .038-.038h3.799a.038.038 0 0 1 .038.038v1.087a.038.038 0 0 1-.038.038h-2.331a.038.038 0 0 0-.038.038v.993a.038.038 0 0 0 .038.038l2.282-.019c.01 0 .02.004.027.011a.038.038 0 0 1 .011.026l.03 1.064a.038.038 0 0 1-.038.04h-2.34a.038.038 0 0 0-.037.037v1.006a.038.038 0 0 0 .038.038Z" fill="#9F9A99"/><path d="M30.989 23.113c.689.242.974.735.858 1.48-.126.81-.635 1.23-1.525 1.258-.918.03-1.837.034-2.759.011-.045-.001-.068-.024-.067-.07l.052-5.461c.001-.037.02-.055.056-.055.813-.006 1.617-.006 2.414-.001.614.003 1.357.2 1.613.81.265.63.185 1.178-.238 1.647-.102.113-.287.204-.415.325-.027.024-.023.044.01.056Zm-2.055-1.706.004 1.023a.065.065 0 0 0 .04.06.064.064 0 0 0 .026.005l.718-.003a.725.725 0 0 0 .462-.164.508.508 0 0 0 .19-.389v-.054a.472.472 0 0 0-.05-.21.553.553 0 0 0-.144-.178.675.675 0 0 0-.213-.118.766.766 0 0 0-.251-.04l-.719.003a.065.065 0 0 0-.063.065Zm.002 2.203.004 1.157c0 .004 0 .007.002.01a.025.025 0 0 0 .006.009.026.026 0 0 0 .018.008l.804-.003c.16 0 .314-.057.426-.157a.502.502 0 0 0 .176-.377v-.145a.465.465 0 0 0-.047-.203.533.533 0 0 0-.131-.173.618.618 0 0 0-.197-.114.679.679 0 0 0-.232-.04l-.803.002a.026.026 0 0 0-.026.026Zm4.431 1.943c-.95-.776-.921-2.258-.187-3.131.706-.84 2.126-1.096 2.994-.34.523.453.706 1.336.674 1.998-.003.05-.03.074-.079.076l-2.63.01c-.04 0-.06.02-.06.06.013.754.92.872 1.474.696.153-.047.373-.214.585-.273a.082.082 0 0 1 .094.039l.364.64a.135.135 0 0 1-.048.18c-.933.57-2.284.778-3.18.045Zm.8-2.239 1.416-.024c.003 0 .006 0 .009-.002a.023.023 0 0 0 .014-.022l-.002-.015a.714.714 0 0 0-.22-.503.727.727 0 0 0-.515-.2h-.013a.727.727 0 0 0-.66.454.711.711 0 0 0-.05.275v.015a.022.022 0 0 0 .022.022Zm9.776.07c-.012-.81-.89-.504-1.193-.133a.166.166 0 0 0-.038.105l-.03 2.46c-.001.037-.02.056-.058.056h-1.299a.052.052 0 0 1-.052-.053l.033-3.964c0-.018.007-.035.02-.047a.069.069 0 0 1 .047-.02h1.272a.076.076 0 0 1 .076.08l-.012.204a.072.072 0 0 0 .078.076.073.073 0 0 0 .038-.014c1.046-.797 2.532-.678 2.53.953-.003.904-.017 1.811.012 2.714a.068.068 0 0 1-.041.065.067.067 0 0 1-.027.006h-1.323c-.027 0-.04-.014-.04-.043.017-.815.019-1.63.007-2.445Zm10.537 2.2c-1.103-.836-.949-2.758.124-3.52.797-.566 1.921-.523 2.775-.086a.052.052 0 0 1 .029.051.053.053 0 0 1-.006.02l-.414.842a.058.058 0 0 1-.076.027c-.673-.305-1.514-.131-1.731.63-.289 1.01.76 1.65 1.635 1.164a.15.15 0 0 1 .204.063l.4.786c.017.032.01.055-.02.072-.867.46-2.097.576-2.92-.049Zm7.979-1.537a1.978 1.978 0 0 1-1.998 1.956l-.547-.006A1.976 1.976 0 0 1 57.956 24l.004-.383a1.976 1.976 0 0 1 1.998-1.957l.547.006a1.977 1.977 0 0 1 1.956 1.998l-.004.383Zm-2.248.912c.114 0 .228-.03.334-.087a.897.897 0 0 0 .283-.244c.081-.104.145-.228.189-.364a1.41 1.41 0 0 0 .066-.43c0-.299-.093-.584-.258-.795-.164-.21-.386-.328-.618-.328a.708.708 0 0 0-.334.086.897.897 0 0 0-.284.244 1.186 1.186 0 0 0-.188.365 1.409 1.409 0 0 0-.066.43c0 .298.093.584.257.795.164.21.387.328.619.328Zm4.529-2.811c.322-.2.627-.413.996-.473 1.37-.224 1.6.752 1.602 1.866 0 .758-.001 1.516-.004 2.273 0 .038-.019.056-.057.056h-1.292c-.036 0-.054-.018-.054-.054l-.005-2.432c-.002-.793-.915-.546-1.207-.094a.177.177 0 0 0-.028.093l-.04 2.438c0 .033-.017.05-.05.05h-1.297c-.04 0-.059-.02-.058-.058l.04-3.962c.001-.042.023-.064.065-.064h1.24a.116.116 0 0 1 .112.147l-.041.155a.054.054 0 0 0 .02.056.051.051 0 0 0 .058.003Zm7.9 1.885a1.979 1.979 0 0 1-1.982 1.976l-.55-.002a1.978 1.978 0 0 1-1.975-1.982v-.383a1.979 1.979 0 0 1 1.983-1.976l.55.001a1.978 1.978 0 0 1 1.976 1.983l-.001.383Zm-2.265.925c.232.001.455-.116.62-.325.166-.21.26-.496.262-.794a1.306 1.306 0 0 0-.25-.797c-.163-.212-.385-.332-.616-.334-.232-.002-.455.115-.62.325-.166.21-.26.495-.262.794a1.31 1.31 0 0 0 .25.797c.163.212.384.332.616.334Zm6.965-2.748a.077.077 0 0 0 .11.008c.962-.834 2.626-.902 2.749.767.033.458.026 1.402-.022 2.832-.001.036-.02.054-.056.054h-1.262c-.045 0-.066-.021-.065-.066.015-.799.013-1.594-.008-2.386-.02-.729-.793-.65-1.126-.257-.087.103-.13.249-.13.436.003.74.003 1.462 0 2.166 0 .093-.046.14-.138.139l-1.254-.014c-.037-.002-.056-.02-.055-.059.05-1.032.054-1.874.013-2.526-.043-.69-.902-.438-1.194-.035a.182.182 0 0 0-.033.103l-.04 2.444c0 .037-.019.055-.054.055h-1.297a.052.052 0 0 1-.052-.052l.031-3.97c0-.043.022-.065.066-.065l1.292.013a.087.087 0 0 1 .083.067.09.09 0 0 1 0 .039l-.042.209a.063.063 0 0 0 .058.075.063.063 0 0 0 .034-.008c.165-.093.306-.23.448-.308.743-.412 1.391-.298 1.944.34Zm9.764 3.427c-1.3.688-3.404.492-3.633-1.331-.277-2.198 1.77-3.242 3.596-2.347.058.029.074.072.044.13l-.405.802c-.017.031-.04.04-.073.026-1.807-.836-2.47 1.802-.848 1.975.285.03.567-.09.848-.185.046-.015.078-.001.099.042l.394.821c.014.03.007.052-.022.067Zm-47.916-3.384c.295-.49.734-.67 1.32-.54a.113.113 0 0 1 .087.127l-.173 1.185a.098.098 0 0 1-.044.068.095.095 0 0 1-.08.01c-.495-.154-1.222.025-1.217.672.005.682-.008 1.366-.04 2.048 0 .041-.022.062-.064.06l-1.262-.019c-.04 0-.059-.02-.059-.06l.03-3.951c0-.038.019-.056.057-.058l1.155-.01c.1-.002.157.047.17.148l.042.304a.042.042 0 0 0 .078.016Zm43.406-.463-1.347-.007a.028.028 0 0 0-.028.028l-.021 4.03c0 .016.012.028.028.029l1.347.007a.028.028 0 0 0 .028-.028l.022-4.03a.028.028 0 0 0-.029-.029Zm-36.557 5.254-.55-.003a.054.054 0 0 0-.054.054l-.031 5.992c0 .03.024.054.054.054l.55.003a.053.053 0 0 0 .053-.053l.032-5.992a.054.054 0 0 0-.054-.055Zm33.626 4.206-2.182.037a.081.081 0 0 0-.074.05l-.779 1.866c-.016.04-.045.053-.085.04l-.49-.163c-.038-.012-.052-.038-.042-.076a2.42 2.42 0 0 1 .125-.385l2.062-4.864c.163-.387.4-.231.724-.235a.097.097 0 0 1 .09.06l2.146 5.35a.106.106 0 0 1-.029.117.102.102 0 0 1-.037.02l-.536.164c-.044.013-.074-.002-.09-.044l-.716-1.879a.091.091 0 0 0-.087-.058Zm-1.952-.63a.036.036 0 0 0 .004.034.037.037 0 0 0 .03.016l1.697.009a.037.037 0 0 0 .034-.049l-.835-2.364a.036.036 0 0 0-.034-.025.037.037 0 0 0-.035.025l-.86 2.354Zm-50.133-3.08c0-.007.003-.014.009-.02a.03.03 0 0 1 .02-.008h1.88c.75 0 1.47.285 2 .794.53.508.829 1.198.829 1.917v.19c0 .72-.299 1.41-.829 1.918s-1.25.794-2 .794h-1.88a.03.03 0 0 1-.029-.029v-5.555Zm.702.557v4.44a.027.027 0 0 0 .027.028h1.059a2.3 2.3 0 0 0 1.57-.608c.416-.39.65-.917.65-1.468v-.344a2.01 2.01 0 0 0-.65-1.467 2.3 2.3 0 0 0-1.57-.608h-1.059a.027.027 0 0 0-.027.027Zm44.248.992h.946c.054 0 .081.027.081.08v.325c0 .054-.027.082-.08.082h-.968c-.033 0-.05.017-.05.05-.022 1.42-.023 2.33-.004 2.727.027.548.6.329.933.156.043-.023.075-.012.096.03l.147.292c.02.04.012.074-.025.098-.638.44-1.812.56-1.82-.563-.007-.884 0-1.784.022-2.699a.089.089 0 0 0-.055-.085.09.09 0 0 0-.035-.006h-.534c-.032 0-.05-.017-.053-.05l-.027-.28a.14.14 0 0 1 .079-.139.135.135 0 0 1 .054-.013l.526-.017a.066.066 0 0 0 .064-.065v-1.33c0-.053.027-.08.08-.08h.5c.046 0 .069.022.069.067v1.366c0 .035.018.054.054.054ZM108 33.078a.065.065 0 0 1-.065.065h-4.194a.065.065 0 0 1-.065-.065v-4.222c0-.017.007-.034.019-.046a.064.064 0 0 1 .046-.019h4.194c.017 0 .034.007.046.019a.066.066 0 0 1 .019.046v4.222Zm-1.754-1.658a.06.06 0 0 1 .005-.026.084.084 0 0 1 .015-.022.076.076 0 0 1 .023-.014.07.07 0 0 1 .027-.005l.779.041a.063.063 0 0 0 .026-.004.07.07 0 0 0 .039-.037.08.08 0 0 0 .005-.026v-.697a.076.076 0 0 0-.005-.026.066.066 0 0 0-.063-.041l-.783.02a.066.066 0 0 1-.048-.02.054.054 0 0 1-.015-.022.058.058 0 0 1-.005-.026v-.824a.06.06 0 0 0-.006-.026.055.055 0 0 0-.015-.022.065.065 0 0 0-.049-.02l-.68.021a.068.068 0 0 0-.065.068l.006.785a.078.078 0 0 1-.005.026.087.087 0 0 1-.015.022.064.064 0 0 1-.022.015.072.072 0 0 1-.027.005l-.813-.003a.065.065 0 0 0-.047.02.066.066 0 0 0-.02.047v.693c0 .009.002.018.005.026a.084.084 0 0 0 .015.022.065.065 0 0 0 .048.019l.81-.006a.067.067 0 0 1 .048.019.053.053 0 0 1 .015.022.058.058 0 0 1 .005.026v.82c0 .008.002.017.006.025a.063.063 0 0 0 .014.022.069.069 0 0 0 .049.02l.677-.017a.066.066 0 0 0 .046-.02.065.065 0 0 0 .02-.047v-.833Zm-72.479-.344c-.094.95.457 2.031 1.577 1.578.131-.053.344-.198.639-.435.033-.027.065-.024.094.008l.215.243c.033.038.032.074-.003.11-.68.682-1.944.997-2.701.208-.834-.868-.698-2.723.273-3.453.883-.665 2.117-.414 2.46.714.089.298.125.602.105.912a.08.08 0 0 1-.08.075h-2.534c-.027 0-.041.013-.044.04Zm.139-.479 1.861-.039a.022.022 0 0 0 .022-.015.023.023 0 0 0 .001-.009v-.01a1.108 1.108 0 0 0-.292-.735.901.901 0 0 0-.675-.293h-.017a.865.865 0 0 0-.36.087.947.947 0 0 0-.302.234 1.06 1.06 0 0 0-.198.344 1.147 1.147 0 0 0-.064.402v.011a.023.023 0 0 0 .007.017.022.022 0 0 0 .017.006Zm4.804 1.683a.031.031 0 0 0 .06.001l1.202-3.236c.016-.044.048-.06.093-.047l.535.153c.04.012.053.037.036.077l-1.586 3.85a.113.113 0 0 1-.107.07l-.475-.013a.109.109 0 0 1-.107-.076c-.43-1.16-.862-2.32-1.294-3.476a2.388 2.388 0 0 1-.108-.384c-.008-.04.008-.065.047-.076l.513-.133c.048-.012.08.004.094.05l1.097 3.24Zm3.785.936c-2.077-.336-1.705-4.42.611-4.237 1.075.084 1.477 1.04 1.402 1.99-.004.045-.027.067-.072.067h-2.52c-.044 0-.069.022-.072.067-.073.929.46 1.981 1.583 1.55.158-.06.373-.208.645-.444a.074.074 0 0 1 .081-.01.07.07 0 0 1 .023.018l.209.245a.075.075 0 0 1-.003.099c-.517.557-1.146.775-1.887.655Zm-.5-2.617 1.833-.013a.03.03 0 0 0 .029-.03v-.045a1.113 1.113 0 0 0-.074-.391 1.036 1.036 0 0 0-.205-.331.93.93 0 0 0-.304-.22.86.86 0 0 0-.357-.076h-.028a.892.892 0 0 0-.657.305c-.174.194-.27.455-.268.726v.045a.03.03 0 0 0 .02.028.029.029 0 0 0 .011.002Zm6.587 2.667a1.771 1.771 0 0 1-.712-.271 1.947 1.947 0 0 1-.557-.557 2.207 2.207 0 0 1-.316-.759 2.395 2.395 0 0 1 .24-1.646c.135-.246.311-.463.52-.636.207-.174.443-.301.692-.375a1.77 1.77 0 0 1 1.474.215c.218.142.407.331.556.557.15.226.257.483.316.758a2.395 2.395 0 0 1-.24 1.646 2.205 2.205 0 0 1-.52.637 1.947 1.947 0 0 1-.692.375c-.25.074-.508.093-.76.056Zm.251-.508a.96.96 0 0 0 .473-.106 1.27 1.27 0 0 0 .411-.34c.12-.148.217-.325.286-.522a2.144 2.144 0 0 0 .05-1.257 1.766 1.766 0 0 0-.243-.544 1.272 1.272 0 0 0-.382-.372.959.959 0 0 0-.463-.144.958.958 0 0 0-.472.106 1.268 1.268 0 0 0-.411.34c-.12.148-.217.326-.287.523-.07.197-.11.409-.118.625-.009.215.014.43.068.632.053.202.136.387.243.544.108.157.238.283.383.372a.959.959 0 0 0 .462.143Zm3.638-3.208c.546-.535 1.257-.783 1.964-.379 1.92 1.1.495 5.467-1.995 3.658-.018-.014-.028-.008-.028.014l-.032 2.277a.081.081 0 0 1-.08.08l-.497-.002a.072.072 0 0 1-.072-.074l.059-5.983c.001-.036.018-.053.054-.053h.544a.054.054 0 0 1 .04.017.052.052 0 0 1 .013.041l-.037.372c-.007.073.015.084.067.033Zm.339 2.924c.561.421 1.265.171 1.553-.408.317-.64.339-1.266.064-1.88-.39-.87-1.364-.821-1.863-.087-.232.343-.127 1.342-.124 1.77.002.314.138.432.37.605Zm4.127-2.91a.057.057 0 0 0 .038.052.056.056 0 0 0 .062-.019c.578-.737 1.775-.933 2.248.043.018.036.04.04.068.01.728-.78 2.39-1.13 2.462.418.03.652.017 1.659-.038 3.018-.001.038-.022.058-.06.058h-.516c-.037 0-.055-.019-.055-.055-.001-.982-.002-1.964-.001-2.947 0-.622-.752-.67-1.158-.427a2.14 2.14 0 0 0-.574.5.155.155 0 0 0-.033.093l-.055 2.786c-.001.034-.018.05-.051.05h-.534c-.043 0-.064-.022-.063-.064.025-1.503.035-2.462.033-2.876-.004-1.126-1.77-.568-1.788.339l-.048 2.541c-.001.04-.02.06-.06.06h-.523c-.047 0-.07-.023-.068-.068l.055-3.908c0-.053.028-.08.082-.08h.5a.07.07 0 0 1 .071.07l.006.406Zm9.039 3.002c-.854.915-2.538 1-3.068-.336-.532-1.342.084-3.375 1.833-3.248 1.011.074 1.426 1.046 1.355 1.988-.003.038-.023.058-.061.058l-2.52.006c-.037 0-.058.018-.062.056-.163 1.542 1.033 2.17 2.22 1.109a.063.063 0 0 1 .091.006l.216.264c.026.034.025.065-.004.097Zm-2.38-1.967 1.847-.045a.026.026 0 0 0 .018-.008.026.026 0 0 0 .007-.019v-.038a1.058 1.058 0 0 0-.295-.713.914.914 0 0 0-.676-.281h-.007a.89.89 0 0 0-.36.086.944.944 0 0 0-.302.228c-.085.097-.152.21-.197.335a1.085 1.085 0 0 0-.062.392v.037a.026.026 0 0 0 .027.026Zm4.215-.951c.438-.55 1-.762 1.686-.636.666.123.804.623.808 1.262.006.933.007 1.865.001 2.797 0 .049-.025.074-.073.074h-.517c-.063 0-.093-.032-.091-.094.036-1.035.045-2.023.03-2.963-.015-.93-1.9-.47-1.917.51l-.052 2.493c-.001.035-.02.054-.056.054h-.506c-.05 0-.074-.025-.073-.075l.03-3.923c.001-.039.02-.058.06-.058h.512c.033 0 .05.016.052.049l.04.49c.004.063.026.07.066.02Zm16.988-.018c.705 1.358-.55 2.47-1.863 1.94a.087.087 0 0 0-.1.022l-.386.394a.07.07 0 0 0-.02.053.07.07 0 0 0 .025.05c.723.584 3.338.132 2.98 1.757-.361 1.644-4.06 1.597-3.822-.05.063-.44.54-.718.966-.92.052-.025.051-.045-.003-.064-.336-.112-.845-.147-.864-.605a.16.16 0 0 1 .037-.11c.22-.272.49-.48.811-.625.038-.016.043-.04.017-.072-1.167-1.438.245-2.946 1.797-2.243a.07.07 0 0 0 .03.006l1.22-.026c.047 0 .07.022.07.07v.312a.076.076 0 0 1-.022.055.076.076 0 0 1-.055.022l-.794-.006c-.03 0-.037.013-.024.04Zm-1.275 1.634a.73.73 0 0 0 .57-.232c.159-.163.257-.39.273-.634a1.06 1.06 0 0 0-.036-.355.944.944 0 0 0-.15-.309.788.788 0 0 0-.24-.215.684.684 0 0 0-.295-.09.729.729 0 0 0-.57.232 1.053 1.053 0 0 0-.236.988.944.944 0 0 0 .15.31c.067.09.148.163.24.215a.683.683 0 0 0 .294.09Zm-1.177 2.922c.407.615 1.415.528 1.98.212.421-.236.64-.84.144-1.139-.255-.152-1.166-.427-1.542-.233-.405.21-.87.724-.582 1.16Zm4.471-3.102c-.111 1.403.974 2.259 2.15 1.168a.097.097 0 0 1 .093-.025.365.365 0 0 1 .288.267.083.083 0 0 1-.021.087c-.882.906-2.496.98-3.017-.347-.512-1.304.044-3.447 1.793-3.257 1.067.114 1.448 1.058 1.373 2.01-.003.033-.022.05-.056.05l-2.544-.008c-.036 0-.055.019-.059.055Zm.213-.458 1.72-.073a.094.094 0 0 0 .092-.098l-.001-.012a1.01 1.01 0 0 0-.306-.686.927.927 0 0 0-.68-.261h-.02a.912.912 0 0 0-.656.318 1.026 1.026 0 0 0-.248.71v.011a.096.096 0 0 0 .063.085.095.095 0 0 0 .036.006Zm4.133-1.006c.2-.182.408-.37.64-.481.73-.35 1.795-.176 1.883.806.045.5.037 1.54-.02 3.127-.002.048-.027.072-.074.072h-.465a.078.078 0 0 1-.078-.078c.001-.895 0-1.788-.002-2.68-.003-1.493-1.936-.657-1.941.224-.006.794-.007 1.593-.004 2.399a.135.135 0 0 1-.135.135h-.49c-.038 0-.057-.02-.056-.057l.049-3.94c0-.04.02-.06.06-.06h.523a.075.075 0 0 1 .072.055c.003.01.004.02.002.031l-.05.403a.051.051 0 0 0 .027.052.052.052 0 0 0 .059-.008Zm6.166.281c-1.578-1.62-2.893 2.095-1.17 2.73.586.214.881-.09 1.31-.39a.056.056 0 0 1 .063-.002c.007.004.012.01.017.016l.17.239a.182.182 0 0 1-.032.245c-.667.549-1.336.66-2.007.334-1.044-.508-1.248-1.938-.828-2.911.522-1.21 1.98-1.628 2.925-.609.025.027.03.056.015.09a.466.466 0 0 1-.372.289.098.098 0 0 1-.09-.03Zm2.641 2.216 1.138-3.075c.019-.05.054-.068.105-.052l.457.14c.07.021.093.067.066.135a186.044 186.044 0 0 1-1.852 4.608c-.35.837-.717 1.331-1.674 1.137-.047-.01-.07-.037-.066-.085l.02-.293c.003-.04.025-.063.065-.068.13-.019.26-.033.392-.045.433-.038.783-1.034.932-1.405a.148.148 0 0 0 .001-.111l-1.446-3.759c-.018-.048-.002-.08.049-.094l.585-.156c.033-.01.055.003.067.035l1.053 3.087a.058.058 0 0 0 .087.029.058.058 0 0 0 .021-.028Z" fill="#9F9A99"/></svg>