<svg width="104" height="28" fill="none" xmlns="http://www.w3.org/2000/svg"><path d="M100.297 6.597a3.058 3.058 0 1 0 0-6.116 3.058 3.058 0 0 0 0 6.116ZM78.598 9.734a3.06 3.06 0 1 0 0-6.119 3.06 3.06 0 0 0 0 6.119Zm9.227 0a3.06 3.06 0 1 0 0-6.119 3.06 3.06 0 0 0 0 6.119ZM.738 3.74v-.068l2.21-.001a.065.065 0 0 1 .063.046l2.254 7.604c.018.064.037.064.057 0l2.314-7.616c.008-.025.025-.037.051-.037h2.145c.036 0 .048.017.036.052L6.256 14.502a.063.063 0 0 1-.064.045H4.32a.066.066 0 0 1-.063-.045L.738 3.74Zm13.575 8.94h4.689a.044.044 0 0 1 .044.044v1.78a.044.044 0 0 1-.044.044h-6.817a.044.044 0 0 1-.044-.045V3.713a.044.044 0 0 1 .044-.045h6.817a.044.044 0 0 1 .044.044v1.78a.044.044 0 0 1-.044.044h-4.689a.044.044 0 0 0-.044.044v2.3a.045.045 0 0 0 .013.031.044.044 0 0 0 .031.013h3.994a.044.044 0 0 1 .044.045v1.778a.044.044 0 0 1-.044.045h-3.994a.044.044 0 0 0-.044.044v2.8a.044.044 0 0 0 .044.044Zm14.017-1.91-.104-7a.1.1 0 0 1 .101-.102h1.97c.029 0 .043.015.043.043v10.793a.043.043 0 0 1-.043.043h-1.91a.06.06 0 0 1-.053-.029l-4.302-7a.013.013 0 0 0-.023.007l.136 6.971c0 .034-.017.051-.05.051h-2.028c-.029 0-.044-.014-.044-.043V3.711a.043.043 0 0 1 .044-.043h1.894c.038 0 .066.016.085.048l4.239 7.067a.025.025 0 0 0 .012.01.02.02 0 0 0 .015 0 .024.024 0 0 0 .018-.024Zm9.285-5.19v8.922a.045.045 0 0 1-.045.045h-2.038a.045.045 0 0 1-.045-.045V5.581a.045.045 0 0 0-.046-.045h-2.689a.045.045 0 0 1-.045-.046V3.713a.045.045 0 0 1 .045-.045h7.597a.045.045 0 0 1 .045.045V5.49a.045.045 0 0 1-.045.046h-2.69a.045.045 0 0 0-.044.045Zm13.102 5.145c-.008 1.776-.91 3.403-2.747 3.802-2.91.632-5.275-.713-5.298-3.872-.017-2.316-.025-4.63-.023-6.941a.046.046 0 0 1 .046-.046h2.04c.028 0 .043.015.043.044v7.079c-.001 1.569 1.1 2.306 2.585 1.935 1.021-.255 1.257-1.197 1.258-2.122.002-2.298.002-4.596 0-6.892a.044.044 0 0 1 .045-.044h2.018a.045.045 0 0 1 .045.045c.002 2.34-.002 4.677-.012 7.012Zm6.609-.409H56.14c-.028 0-.043.014-.043.043v4.148a.044.044 0 0 1-.044.043h-2.04c-.03 0-.044-.015-.044-.043V3.714a.046.046 0 0 1 .046-.046c1.47 0 2.945.008 4.427.02 1.843.014 2.856 1.101 3.023 2.855.137 1.446-.297 2.975-1.785 3.54-.03.011-.037.032-.023.06L61.99 14.5a.034.034 0 0 1-.013.046.033.033 0 0 1-.017.004h-2.343a.058.058 0 0 1-.054-.033l-2.171-4.162a.069.069 0 0 0-.066-.04Zm-1.227-4.754-.005 2.92a.053.053 0 0 0 .053.053l2.007.003a1.266 1.266 0 0 0 .906-.377 1.295 1.295 0 0 0 .376-.916v-.436c0-.343-.134-.673-.373-.916a1.272 1.272 0 0 0-.904-.38l-2.006-.004a.053.053 0 0 0-.053.053ZM66.84 12.68h4.698a.04.04 0 0 1 .04.04v1.788a.04.04 0 0 1-.04.04h-6.827a.04.04 0 0 1-.028-.012.04.04 0 0 1-.011-.028v-10.8a.04.04 0 0 1 .039-.04h6.827a.04.04 0 0 1 .04.04v1.788a.04.04 0 0 1-.04.04H66.84a.04.04 0 0 0-.028.011.039.039 0 0 0-.011.028v2.31a.038.038 0 0 0 .011.028.039.039 0 0 0 .028.011h4.005a.04.04 0 0 1 .039.04v1.789a.04.04 0 0 1-.04.039H66.84a.04.04 0 0 0-.028.011.039.039 0 0 0-.011.028v2.81a.038.038 0 0 0 .011.027.038.038 0 0 0 .028.012Zm11.76 5.718a3.058 3.058 0 1 0 0-6.115 3.058 3.058 0 0 0 0 6.115Zm9.224.002a3.058 3.058 0 1 0 0-6.117 3.058 3.058 0 0 0 0 6.117Zm9.226-.002a3.057 3.057 0 1 0 0-6.114 3.057 3.057 0 0 0 0 6.114ZM56.693 27.02c-1.494-.296-2.601-1.25-2.883-2.788-.252-1.386-.232-3.126-.084-4.642.236-2.409 1.82-3.546 4.07-3.639a6.347 6.347 0 0 1 3.202.706.078.078 0 0 1 .039.043.08.08 0 0 1-.001.058l-.673 1.654c-.014.037-.04.045-.074.024-1.264-.764-3.984-1.221-4.31.913a14.436 14.436 0 0 0-.152 2.664c.053 1.522-.036 3.12 1.934 3.29a4.075 4.075 0 0 0 2.569-.63c.025-.015.044-.009.055.018l.697 1.65a.065.065 0 0 1-.026.08c-1.279.795-2.902.888-4.363.6Zm-16.319-6.083 3.879-4.771a.032.032 0 0 1 .024-.012h2.518a.03.03 0 0 1 .017.005.03.03 0 0 1 .015.03.031.031 0 0 1-.008.017l-4 4.796a.031.031 0 0 0 0 .04l4.484 5.876a.03.03 0 0 1 .006.016.031.031 0 0 1-.032.035H44.77a.03.03 0 0 1-.025-.013L41.288 22.3a.031.031 0 0 0-.04-.01.031.031 0 0 0-.01.01l-.886 1.205a.032.032 0 0 0-.006.019v3.413a.031.031 0 0 1-.032.032H38.2a.031.031 0 0 1-.031-.032l.033-10.751a.031.031 0 0 1 .031-.032h2.088a.031.031 0 0 1 .03.032l-.031 4.732a.031.031 0 0 0 .02.029.032.032 0 0 0 .035-.01Zm10.578-4.783h-2.074a.038.038 0 0 0-.038.038V26.93c0 .022.017.039.038.039h2.074a.038.038 0 0 0 .039-.039V16.192a.038.038 0 0 0-.039-.038Zm14.395 4.791 3.887-4.781a.027.027 0 0 1 .009-.007.027.027 0 0 1 .01-.003h2.533a.026.026 0 0 1 .02.043l-4.01 4.809a.026.026 0 0 0 0 .032l4.492 5.889a.026.026 0 0 1-.007.038.026.026 0 0 1-.014.004h-2.518l-.012-.003a.027.027 0 0 1-.01-.008l-3.463-4.663a.027.027 0 0 0-.021-.01c-.004 0-.008 0-.012.002a.026.026 0 0 0-.009.008l-.895 1.211a.026.026 0 0 0-.005.016v3.42a.026.026 0 0 1-.026.027h-2.125a.027.027 0 0 1-.019-.008.026.026 0 0 1-.008-.018l.034-10.763a.026.026 0 0 1 .016-.024.027.027 0 0 1 .01-.002h2.1a.026.026 0 0 1 .026.026l-.03 4.748c0 .006.002.01.005.015a.026.026 0 0 0 .041.002Zm13.251 6.123a3.06 3.06 0 1 0 0-6.119 3.06 3.06 0 0 0 0 6.119Zm9.227 0a3.06 3.06 0 1 0 0-6.119 3.06 3.06 0 0 0 0 6.119Zm9.225.002a3.058 3.058 0 1 0 0-6.117 3.058 3.058 0 0 0 0 6.117Z" opacity=".6" fill="#fff"/></svg>