<svg width="1920" height="1001" fill="none" xmlns="http://www.w3.org/2000/svg"><path stroke="#F7F7F7" stroke-width="2" d="M-140 0H60v200h-200zM60 0h200v200H60zm200 0h200v200H260zm200 0h200v200H460zm200 0h200v200H660zm200 0h200v200H860zm200 0h200v200h-200zm200 0h200v200h-200zm200 0h200v200h-200zm200 0h200v200h-200zm200 0h200v200h-200zM-140 200H60v200h-200zm200 0h200v200H60zm200 0h200v200H260zm200 0h200v200H460zm200 0h200v200H660zm200 0h200v200H860zm200 0h200v200h-200zm200 0h200v200h-200zm200 0h200v200h-200zm200 0h200v200h-200zm200 0h200v200h-200zM-140 400H60v200h-200zm200 0h200v200H60zm200 0h200v200H260zm200 0h200v200H460zm200 0h200v200H660zm200 0h200v200H860zm200 0h200v200h-200zm200 0h200v200h-200zm200 0h200v200h-200zm200 0h200v200h-200zm200 0h200v200h-200zM-140 600H60v200h-200zm200 0h200v200H60zm200 0h200v200H260zm200 0h200v200H460zm200 0h200v200H660zm200 0h200v200H860zm200 0h200v200h-200zm200 0h200v200h-200zm200 0h200v200h-200zm200 0h200v200h-200zm200 0h200v200h-200zM-140 800H60v200h-200zm200 0h200v200H60zm200 0h200v200H260zm200 0h200v200H460zm200 0h200v200H660zm200 0h200v200H860zm200 0h200v200h-200zm200 0h200v200h-200zm200 0h200v200h-200zm200 0h200v200h-200zm200 0h200v200h-200z"/></svg>