<svg width="902" height="902" fill="none" xmlns="http://www.w3.org/2000/svg"><path stroke="#E3E3E3" d="M.82 1.479h100v100H.82zm100 0h100v100h-100zm100 0h100v100h-100zm100 0h100v100h-100zm100 0h100v100h-100z"/><path stroke="#E3E3E3" d="M500.82 1.479h100v100h-100zm100 0h100v100h-100zm100 0h100v100h-100zm100 0h100v100h-100zm-800 100h100v100H.82zm100 0h100v100h-100zm100 0h100v100h-100zm100 0h100v100h-100zm100 0h100v100h-100zm100 0h100v100h-100zm100 0h100v100h-100zm100 0h100v100h-100zm100 0h100v100h-100zm-800 100h100v100H.82zm100 0h100v100h-100zm100 0h100v100h-100zm100 0h100v100h-100zm100 0h100v100h-100zm100 0h100v100h-100zm100 0h100v100h-100zm100 0h100v100h-100zm100 0h100v100h-100zm-800 100h100v100H.82zm100 0h100v100h-100zm100 0h100v100h-100zm100 0h100v100h-100zm100 0h100v100h-100zm100 0h100v100h-100zm100 0h100v100h-100zm100 0h100v100h-100zm100 0h100v100h-100zm-800 100h100v100H.82zm100 0h100v100h-100zm100 0h100v100h-100zm100 0h100v100h-100zm100 0h100v100h-100zm100 0h100v100h-100zm100 0h100v100h-100zm100 0h100v100h-100zm100 0h100v100h-100zm-800 100h100v100H.82zm100 0h100v100h-100zm100 0h100v100h-100zm100 0h100v100h-100zm100 0h100v100h-100zm100 0h100v100h-100zm100 0h100v100h-100zm100 0h100v100h-100zm100 0h100v100h-100zm-800 100h100v100H.82zm100 0h100v100h-100zm100 0h100v100h-100zm100 0h100v100h-100zm100 0h100v100h-100zm100 0h100v100h-100zm100 0h100v100h-100zm100 0h100v100h-100zm100 0h100v100h-100zm-800 100h100v100H.82zm100 0h100v100h-100zm100 0h100v100h-100zm100 0h100v100h-100zm100 0h100v100h-100zm100 0h100v100h-100zm100 0h100v100h-100zm100 0h100v100h-100zm100 0h100v100h-100zm-800 100h100v100H.82zm100 0h100v100h-100zm100 0h100v100h-100zm100 0h100v100h-100zm100 0h100v100h-100zm100 0h100v100h-100zm100 0h100v100h-100zm100 0h100v100h-100zm100 0h100v100h-100z"/></svg>