<svg width="103" height="14" fill="none" xmlns="http://www.w3.org/2000/svg"><g opacity=".6" clip-path="url(#a)"><mask id="b" style="mask-type:luminance" maskUnits="userSpaceOnUse" x="33" y="1" width="70" height="11"><path d="M33.164 1.145h69.389v10.193H33.164V1.145Z" fill="#1A8CCC"/></mask><g mask="url(#b)"><path fill-rule="evenodd" clip-rule="evenodd" d="M37.08 9.673a1.892 1.892 0 0 1-1.385-.6A2.217 2.217 0 0 1 35.1 7.44a2.19 2.19 0 0 1 .588-1.622 1.93 1.93 0 0 1 2.777.007 2.2 2.2 0 0 1 .596 1.628 2.199 2.199 0 0 1-.596 1.629 1.9 1.9 0 0 1-1.385.592Zm-.384 1.662c.98.018 1.89-.512 2.365-1.376v1.267h1.893V3.678H39.06V4.85a2.618 2.618 0 0 0-2.352-1.281 3.307 3.307 0 0 0-2.541 1.084 3.94 3.94 0 0 0-1 2.786 3.975 3.975 0 0 0 1.006 2.8 3.28 3.28 0 0 0 2.522 1.096Zm9.671-1.662a1.892 1.892 0 0 1-1.386-.6 2.216 2.216 0 0 1-.594-1.634 2.186 2.186 0 0 1 .587-1.622 1.931 1.931 0 0 1 2.747-.024l.031.031c.413.437.628 1.026.595 1.628a2.197 2.197 0 0 1-.595 1.629c-.362.38-.863.594-1.385.592Zm-.385 1.662c.98.018 1.89-.512 2.365-1.376v1.267h1.893V1.145h-1.893V4.85a2.616 2.616 0 0 0-2.352-1.28 3.304 3.304 0 0 0-2.54 1.083 3.944 3.944 0 0 0-1 2.786 3.977 3.977 0 0 0 1.006 2.8 3.28 3.28 0 0 0 2.521 1.096Zm8.124-.109H56.5l2.758-7.548H57.23l-1.92 5.9-1.933-5.9h-2.028l2.758 7.548Zm9.645-1.553a1.89 1.89 0 0 1-1.386-.6 2.22 2.22 0 0 1-.595-1.634 2.191 2.191 0 0 1 .588-1.622 1.932 1.932 0 0 1 2.747-.024l.031.031c.413.437.628 1.026.595 1.628a2.196 2.196 0 0 1-.595 1.629c-.361.38-.863.594-1.385.592Zm-.385 1.662a2.65 2.65 0 0 0 2.366-1.376v1.267h1.892V3.678h-1.892V4.85a2.618 2.618 0 0 0-2.353-1.281 3.307 3.307 0 0 0-2.541 1.084 3.943 3.943 0 0 0-1 2.786 3.98 3.98 0 0 0 1.007 2.8 3.277 3.277 0 0 0 2.52 1.096ZM69.65 3.68v7.548h1.907v-4.17a1.875 1.875 0 0 1 .452-1.355 1.619 1.619 0 0 1 1.224-.47c.453-.024.895.147 1.216.47.32.376.48.862.447 1.356v4.169h1.892V6.785a3.29 3.29 0 0 0-.811-2.364 2.766 2.766 0 0 0-2.095-.851 2.48 2.48 0 0 0-2.325 1.24V3.678H69.65Zm12.26 7.656a3.668 3.668 0 0 0 2.265-.695 3.403 3.403 0 0 0 1.251-1.88h-2.055a1.432 1.432 0 0 1-1.46.953 1.537 1.537 0 0 1-1.29-.606 2.652 2.652 0 0 1-.467-1.655 2.652 2.652 0 0 1 .466-1.656 1.537 1.537 0 0 1 1.291-.606 1.417 1.417 0 0 1 1.46.94h2.055a3.239 3.239 0 0 0-1.23-1.894 3.788 3.788 0 0 0-2.285-.668 3.541 3.541 0 0 0-2.663 1.064 3.888 3.888 0 0 0-1.028 2.82 3.888 3.888 0 0 0 1.028 2.82 3.539 3.539 0 0 0 2.663 1.063Zm10.369-.681a3.313 3.313 0 0 0 1.257-1.758h-2.055c-.291.532-.858.85-1.46.817a1.673 1.673 0 0 1-1.203-.45 1.797 1.797 0 0 1-.54-1.184h5.46c.038-.244.056-.49.055-.736a3.66 3.66 0 0 0-1.055-2.745 3.7 3.7 0 0 0-2.697-1.03 3.585 3.585 0 0 0-2.676 1.057 3.85 3.85 0 0 0-1.034 2.813 3.91 3.91 0 0 0 1.027 2.827 3.524 3.524 0 0 0 2.663 1.07 3.724 3.724 0 0 0 2.258-.682Zm-.46-3.815h-3.542a1.91 1.91 0 0 1 .575-1.2 1.68 1.68 0 0 1 1.196-.449c.45-.01.887.15 1.224.45.34.305.539.74.547 1.199Zm6.86 2.834a1.89 1.89 0 0 1-1.385-.6A2.217 2.217 0 0 1 96.7 7.44a2.189 2.189 0 0 1 .587-1.622 1.931 1.931 0 0 1 2.747-.024l.032.031a2.2 2.2 0 0 1 .595 1.628 2.198 2.198 0 0 1-.595 1.629c-.362.38-.863.594-1.386.592Zm-.385 1.662a2.65 2.65 0 0 0 2.366-1.376v1.267h1.893V1.145h-1.893V4.85a2.616 2.616 0 0 0-2.352-1.28 3.306 3.306 0 0 0-2.542 1.083 3.947 3.947 0 0 0-1 2.786 3.98 3.98 0 0 0 1.007 2.8 3.277 3.277 0 0 0 2.521 1.096Z" fill="#fff"/></g><mask id="c" style="mask-type:luminance" maskUnits="userSpaceOnUse" x="18" y="0" width="14" height="14"><path d="M18.984.49h12.242v12.741H18.984V.491Z" fill="#1A8CCC"/></mask><g mask="url(#c)"><path fill-rule="evenodd" clip-rule="evenodd" d="m20.643.49-1.659 12.742L31.226 6.86 20.643.49Z" fill="#fff"/></g><mask id="d" style="mask-type:luminance" maskUnits="userSpaceOnUse" x="0" y="1" width="18" height="11"><path d="M.355 1.145H17.2V11.34H.355V1.145Z" fill="#fff"/></mask><g mask="url(#d)"><path fill-rule="evenodd" clip-rule="evenodd" d="M4.45 9.674a1.633 1.633 0 0 1-1.302-.593 1.981 1.981 0 0 1-.36-1.628 2.556 2.556 0 0 1 .814-1.628 2.173 2.173 0 0 1 1.467-.592c.5-.014.98.201 1.304.586.355.459.487 1.053.361 1.621a2.583 2.583 0 0 1-.815 1.635c-.397.38-.921.593-1.469.599Zm-.784-8.53H1.761L.355 11.228h1.906l.177-1.267a2.224 2.224 0 0 0 2.166 1.376 3.77 3.77 0 0 0 2.672-1.09 4.6 4.6 0 0 0 1.39-2.8 3.556 3.556 0 0 0-.61-2.793 2.862 2.862 0 0 0-2.39-1.083A3.029 3.029 0 0 0 3.15 4.85l.516-3.705Zm11.472 9.51a4.027 4.027 0 0 0 1.502-1.757h-2.054a1.843 1.843 0 0 1-1.574.817 1.463 1.463 0 0 1-1.14-.45 1.571 1.571 0 0 1-.375-1.185h5.46c.07-.24.122-.487.156-.736.395-1.645-.607-3.3-2.238-3.7a2.994 2.994 0 0 0-.986-.073 4.09 4.09 0 0 0-2.823 1.055 4.459 4.459 0 0 0-1.425 2.814c-.206.99.024 2.021.632 2.826a3.067 3.067 0 0 0 2.514 1.07 4.156 4.156 0 0 0 2.35-.68Zm.072-3.815h-3.54c.113-.468.373-.889.74-1.199.354-.296.8-.455 1.26-.449.43-.018.85.144 1.16.45.302.32.443.761.38 1.198Z" fill="#fff"/></g></g><defs><clipPath id="a"><path fill="#fff" transform="translate(.355 .41)" d="M0 0h102.299v12.828H0z"/></clipPath></defs></svg>