<svg width="89" height="32" fill="none" xmlns="http://www.w3.org/2000/svg"><g opacity=".6" clip-path="url(#a)"><path d="M17.217 5.79c-1.794.175-3.212.913-4.253 2.217-1.714 2.146-3.082 3.593-5.8 4.33m-.004-.001c-1.254.437-2.41.52-3.469.247m.411-1.134c1.35-.572 3.875-1.386 4.568-2.704a.204.204 0 0 0-.001-.195c-.24-.437-.627-.567-1.157-.39-.935.313-1.584.553-1.947.722m1.837 7.168-.968.648a.443.443 0 0 1-.132.058.196.196 0 0 0-.158.156.145.145 0 0 1-.094.109l-.416.16a.304.304 0 0 0-.105.068.839.839 0 0 1-.729.25c-.014-.002-.022-.01-.026-.024l-.005-.043c-.002-.037-.02-.044-.05-.025-.08.054-.148.058-.206.01-.03-.024-.062-.024-.095-.001-.253.184-.47.15-.653-.099a.116.116 0 0 0-.141-.037.121.121 0 0 0-.043.03c-.16.185-.205.408-.139.667a.184.184 0 0 1-.035.162.773.773 0 0 0-.145.27M18.258 5.898a.861.861 0 0 0 .367.265c.031.01.035.028.012.051l-.04.039c-.029.028-.027.054.005.08a2.525 2.525 0 0 0 1.62.59.298.298 0 0 1 .18.061c.458.344.854.665.752 1.211-.11.591-.049 1.105-.205 1.625" stroke="#fff" stroke-width=".351"/><path d="m20.948 9.818-.34.427a.14.14 0 0 1-.17.04.372.372 0 0 0-.443.069c-.032.03-.037.026-.014-.011.033-.053.074-.105.121-.156a.026.026 0 0 0 .007-.02.026.026 0 0 0-.011-.018.037.037 0 0 0-.045 0 29.524 29.524 0 0 1-4.139 2.894 1.97 1.97 0 0 1-.953.28.277.277 0 0 0-.154.052l-.928.652m-.001 0c-.691.169-1.061.104-1.658.555a.264.264 0 0 1-.156.054l-.786.03c-.056.002-.084-.026-.082-.082a.287.287 0 0 1 .194-.283.017.017 0 0 0 .009-.006.017.017 0 0 0-.009-.027.44.44 0 0 1-.068-.023c-.04-.014-.056-.042-.051-.082.012-.097-.033-.185-.133-.264a.145.145 0 0 0-.167-.006.142.142 0 0 0-.042.041c-.162.251-.383.299-.665.144a.157.157 0 0 0-.158.006.653.653 0 0 1-.354.107.212.212 0 0 0-.143.047l-.522.409a.191.191 0 0 0-.07.105 1.027 1.027 0 0 1-.423.602.168.168 0 0 0-.078.131c-.012.193-.112.293-.3.302a.227.227 0 0 0-.143.056.855.855 0 0 1-.67.207" stroke="#fff" stroke-width=".351"/><path d="M7.404 16.05c.11-.26.32-.475.627-.649.068-.037.065-.056-.014-.058-.035 0-.069 0-.1.002-.025.002-.028-.007-.01-.025l.048-.049a.12.12 0 0 0 .034-.12 1.743 1.743 0 0 1 .049-1.06.288.288 0 0 0 .007-.176l-.304-1.072a.105.105 0 0 0-.07-.077.187.187 0 0 0-.065-.01c-.058.001-.072-.024-.042-.073l.03-.049a.054.054 0 0 0-.024-.078.055.055 0 0 0-.03-.004c-.311.04-.436-.032-.378-.216m5.994 2.473a1.98 1.98 0 0 0-.956.345.362.362 0 0 1-.158.062c-.347.049-.738.528-.977.287a.184.184 0 0 0-.138-.052c-.553.03-.948.287-1.186.77a.257.257 0 0 1-.129.123 2.023 2.023 0 0 0-.898.747.313.313 0 0 1-.126.112c-.28.134-.28.615-.46.893-.035.055-.02.076.042.064l.223-.04a.062.062 0 0 1 .071.046c.002.01.002.02 0 .03a.165.165 0 0 1-.092.092c-.016.009-.016.015.002.02a.574.574 0 0 0 .058.018c.05.013.063.043.038.088a.65.65 0 0 1-.293.286.381.381 0 0 0-.137.11 3.938 3.938 0 0 1-.875.8c-.49.327-.718.655-1.11 1.038-.25.243-.585.324-.906.438a.305.305 0 0 0-.137.098 1.072 1.072 0 0 1-.496.364m11.499-3.923a20.767 20.767 0 0 1-7.75 4.04" stroke="#fff" stroke-width=".351"/><path d="M8.262 21.665c-.031-.254.1-.396.395-.426a.136.136 0 0 0 .118-.086c.16-.353.503-.539.694-.733.199-.202.4-.404.61-.602a.272.272 0 0 1 .16-.076c.329-.038.597-.188.806-.449a.404.404 0 0 1 .146-.114c.156-.074.23-.203.22-.388a.15.15 0 0 1 .066-.135l.238-.173a.125.125 0 0 0 .051-.096.12.12 0 0 0-.044-.098c-.075-.06-.149-.057-.22.013-.043.04-.088.044-.136.01-.128-.09-.161-.19-.1-.303a.037.037 0 0 0-.004-.042.028.028 0 0 0-.019-.01.027.027 0 0 0-.019.006c-.033.026-.063.009-.09-.053a.153.153 0 0 1 .01-.14c.217-.4.794-.56.801-.968a.152.152 0 0 1 .074-.132l.937-.607a.076.076 0 0 0 .035-.072c-.002-.031-.032-.038-.09-.02-.068.022-.079.006-.031-.048.272-.31.607-.537 1.002-.68.042-.015.045-.036.012-.064a.134.134 0 0 0-.073-.027l-.002-.002v-.003l.003-.002c.02-.008.035-.014.044-.019.047-.024.045-.045-.005-.065l-.695-.252m0-.001.972-.428c.08-.035.077-.063-.007-.084a.234.234 0 0 0-.152.009c-.116.054-.132.038-.046-.048l.058-.056c.037-.037.03-.054-.023-.05l-.128.01c-.046.003-.054-.013-.025-.048l.074-.086m13.739 1.078c-.325.488-.507.916-.548 1.283m-.002-.003c.092-1.616-.526-3.802-2.503-3.891-.742-.034-1.355.084-1.835.353-2.238 1.247-3.506 3.212-3.804 5.895m0 .001-.054-.086c-.06-.093-.107-.088-.143.017l-.045.146c-.02.061-.055.07-.102.026-.379-.346-.772-.065-1.095-.044-.707.046-1.414.046-2.124 0-.13-.007-.14-.044-.029-.112l.078-.047a.183.183 0 0 0 .09-.139.806.806 0 0 1 .438-.639.14.14 0 0 0 .077-.142l-.007-.098m.002-.001c2.375-1.998 4.309-4.693 4.935-7.806M8.26 21.666a9.537 9.537 0 0 1-3.287.507" stroke="#fff" stroke-width=".351"/><path d="M13.227 24.302c.29-.124.586-.238.893-.34 2.61-.869 4.258-2.453 4.803-5.22" stroke="#fff" stroke-width=".351"/><path d="M27.07 16.387c-.28 2.831-1.924 4.96-4.482 6.144-2.9 1.342-4.737 2.207-5.51 2.595-2.21 1.105-5.338 1.939-7.801 1.49a4.623 4.623 0 0 0-.78-.076m52.518-14.65c.167.634.107 1.26-.18 1.88m-1.655 1.709c-.68.19-1.335.54-1.965 1.047m.547 3.926c.4-.658.868-1.3 1.403-1.927m-8.813 7.19-2.735 1.009m5.379-2.319a14.557 14.557 0 0 0 3.023-2.25M42.63 25.488l.596.095c.087.014.097.05.029.105a12.14 12.14 0 0 1-2.287 1.51c-.077.04-.072.062.014.068l1.051.07a.286.286 0 0 1 .267.275l.044 1.337" stroke="#fff" stroke-width=".351"/><path d="M49.192.473h.295c.891.333 1.331 1.416.5 2.02-1.351.978-2.695-1.378-.795-2.02Z" fill="#fff"/><path d="M17.211 5.786c-1.795.176-3.212.914-4.253 2.218-1.714 2.146-3.082 3.593-5.8 4.33-1.255.437-2.41.52-3.469.248-.288-.599.132-.765.407-1.137 1.351-.572 3.876-1.386 4.569-2.704a.204.204 0 0 0-.002-.195c-.24-.437-.626-.567-1.156-.39-.935.313-1.584.553-1.948.722-.798.29-2.614 1.074-2.472-.274a.257.257 0 0 1 .065-.147c.386-.444.942-.872 1.67-1.281a72.42 72.42 0 0 1 2.774-1.48c.343-.173 1.11-.997.316-1.236-1.167-.353-4.526 2.15-5.24 1.126a.233.233 0 0 1-.043-.15c.046-.697 1.029-1.453 1.608-1.795 2.296-1.355 5.04-2.037 7.442-.585.344.21 1.258.314 1.774.306 2.137-.032 4.325-.21 6.483.27 4.31.963 7.518 3.535 8.976 7.704 1.268 3.625.48 8.399-1.355 11.75a.052.052 0 0 1-.029.023.052.052 0 0 1-.037-.001.048.048 0 0 1-.025-.062c.84-2.283 1.41-4.462 1.418-6.968.015-6.51-5.244-11.07-11.673-10.292Z" fill="#8C8C8C"/><path d="M34.35 5.417c.304.132.88.402 1.733.811 1.824.875 1.008 3.184-.642 3.628-.916.246-2.588.148-3.116-.786-.254-.449-.18-1.08.337-1.291.765-.31 2.088 1.146 2.544.15a.147.147 0 0 0-.009-.138.958.958 0 0 0-.456-.396c-1.222-.499-2.854-1.134-2.314-2.786.558-1.706 3.53-2.015 4.448-.53.284.46-.08 1.103-.607 1.161-.372.04-1.002-.312-1.423-.423a.696.696 0 0 0-.312-.008c-.265.052-.369.205-.31.458a.224.224 0 0 0 .127.15ZM54.687 7.95c.12-.437-1.354-.964-1.69-1.125-1.263-.606-1.547-1.986-.596-2.974.953-.99 2.751-.912 3.735-.086.269.226.422.69.258 1.028-.584 1.212-1.805-.407-2.575.095a.282.282 0 0 0-.098.367.287.287 0 0 0 .09.105c.606.42 1.262.54 1.978.995 1.26.798.98 2.58-.224 3.226-.816.437-1.704.514-2.66.228-.657-.195-1.425-.754-1.19-1.524.486-1.594 2.644.877 2.972-.336Zm3.145-3.46c.634-1.376 2.218-1.63 3.553-1.083.493.201 1.086.684.906 1.284-.451 1.496-2.195-.572-2.753.347a.147.147 0 0 0-.004.158c.221.393 1.28.714 1.85.998 1.242.618 1.442 2.1.466 3.059-.961.94-2.595.917-3.716.284-.635-.358-.967-1.499-.067-1.783.597-.188 2.125 1.016 2.448.3a.435.435 0 0 0-.246-.588c-1.179-.436-3.235-1.236-2.437-2.975ZM42.384 6.074c-.184.968-.456 1.928-.663 2.909-.17.814-1.133 1.3-1.775.761-.206-.173-.386-.479-.543-.917-.486-1.367-.96-2.737-1.424-4.111-.525-1.548 1.247-2.15 1.78-.409a93.33 93.33 0 0 1 .911 3.177.08.08 0 0 0 .158-.003c.233-1.097.488-2.186.763-3.272.362-1.416 1.53-1.08 1.862.137a72.14 72.14 0 0 1 .79 3.174.078.078 0 0 0 .072.06.073.073 0 0 0 .073-.057 94.23 94.23 0 0 1 .968-3.497c.395-1.324 2.164-.81 1.651.697-.471 1.39-.961 2.774-1.465 4.153-.314.86-.752 1.379-1.705.928-.625-.295-1.128-2.995-1.321-3.734a.07.07 0 0 0-.069-.05.066.066 0 0 0-.063.054Zm6.971-2.818h-.056a.9.9 0 0 0-.9.9V8.98a.9.9 0 0 0 .9.9h.056a.9.9 0 0 0 .9-.9V4.156a.9.9 0 0 0-.9-.9ZM17.208 5.787l1.042.109a.861.861 0 0 0 .366.265c.032.01.036.028.013.05l-.04.04c-.029.027-.027.054.005.08a2.525 2.525 0 0 0 1.62.59.298.298 0 0 1 .18.06c.458.345.854.666.753 1.212-.111.59-.05 1.105-.206 1.624l-.34.426a.143.143 0 0 1-.17.04.373.373 0 0 0-.443.07c-.031.03-.036.026-.014-.011a1.07 1.07 0 0 1 .122-.156.025.025 0 0 0 .006-.02.026.026 0 0 0-.01-.018.037.037 0 0 0-.023-.007.037.037 0 0 0-.023.008 29.515 29.515 0 0 1-4.138 2.893 1.97 1.97 0 0 1-.953.279.277.277 0 0 0-.155.053l-.928.652c-.69.169-1.061.104-1.658.555a.263.263 0 0 1-.156.054l-.786.03c-.056.002-.084-.026-.082-.083a.287.287 0 0 1 .194-.282.017.017 0 0 0 .012-.017.017.017 0 0 0-.012-.017.452.452 0 0 1-.068-.022c-.04-.014-.056-.042-.05-.083.011-.096-.034-.184-.134-.263a.143.143 0 0 0-.167-.007.145.145 0 0 0-.042.042c-.161.251-.382.299-.665.144a.157.157 0 0 0-.158.005.653.653 0 0 1-.354.107.21.21 0 0 0-.142.048l-.523.409a.191.191 0 0 0-.07.105 1.026 1.026 0 0 1-.423.602.168.168 0 0 0-.077.131c-.013.193-.113.293-.3.302a.226.226 0 0 0-.144.056.855.855 0 0 1-.67.207c.11-.26.319-.475.626-.649.068-.037.065-.056-.014-.058-.035 0-.069 0-.1.002-.025.002-.028-.007-.01-.025l.048-.049c.034-.033.046-.073.034-.12a1.743 1.743 0 0 1 .049-1.06.288.288 0 0 0 .007-.176l-.304-1.072a.105.105 0 0 0-.07-.077.187.187 0 0 0-.065-.01c-.058.001-.072-.024-.042-.073l.03-.049a.054.054 0 0 0-.024-.078.053.053 0 0 0-.03-.004c-.31.04-.436-.032-.378-.216 2.718-.737 4.087-2.185 5.8-4.33 1.041-1.304 2.459-2.042 4.254-2.218Z" fill="#fff"/><path d="M18.25 5.896c5.216.248 8.827 4.111 9.362 9.206-.325.488-.507.916-.547 1.283.09-1.616-.527-3.802-2.504-3.892-.742-.033-1.355.085-1.835.353-2.237 1.248-3.506 3.212-3.804 5.895l-.054-.086c-.06-.093-.107-.088-.142.018l-.046.145c-.02.062-.055.07-.102.027-.379-.346-.772-.065-1.095-.044-.707.045-1.414.045-2.124 0-.13-.007-.139-.044-.028-.112l.077-.048a.183.183 0 0 0 .091-.138.806.806 0 0 1 .437-.64.14.14 0 0 0 .077-.141l-.007-.099c2.376-1.998 4.31-4.693 4.935-7.805.157-.52.095-1.034.206-1.625.101-.546-.295-.867-.753-1.21a.298.298 0 0 0-.179-.062 2.525 2.525 0 0 1-1.621-.59c-.032-.026-.033-.052-.005-.08l.04-.039c.023-.023.02-.04-.012-.05a.861.861 0 0 1-.367-.266ZM4.094 11.445c.384-.869.872-1.725 1.463-2.567.363-.169 1.012-.409 1.947-.721.53-.177.916-.048 1.157.39a.201.201 0 0 1 .001.194c-.693 1.318-3.217 2.132-4.568 2.704Z" fill="#fff"/><path d="M20.944 9.818c-.627 3.113-2.56 5.808-4.936 7.806a20.767 20.767 0 0 1-7.75 4.04c-.031-.254.1-.396.395-.426a.136.136 0 0 0 .118-.086c.16-.352.503-.538.695-.733.198-.202.4-.404.608-.602a.272.272 0 0 1 .162-.075 1.17 1.17 0 0 0 .805-.45.402.402 0 0 1 .146-.113c.156-.074.23-.204.22-.388a.15.15 0 0 1 .066-.135l.238-.174a.125.125 0 0 0 .051-.095.12.12 0 0 0-.044-.098c-.075-.061-.149-.058-.22.012-.043.04-.088.044-.136.01-.128-.089-.161-.19-.1-.303a.036.036 0 0 0-.004-.042.027.027 0 0 0-.038-.004c-.033.027-.063.01-.09-.052a.153.153 0 0 1 .01-.14c.217-.4.794-.56.801-.969a.151.151 0 0 1 .074-.131l.937-.607a.076.076 0 0 0 .035-.072c-.002-.032-.032-.039-.09-.02-.068.021-.079.006-.031-.049.272-.31.607-.537 1.002-.679.042-.016.045-.037.012-.065a.135.135 0 0 0-.073-.026l-.002-.003v-.002l.003-.002c.02-.009.035-.014.044-.02.047-.024.045-.045-.005-.064l-.695-.253.972-.428c.079-.035.077-.063-.007-.084a.234.234 0 0 0-.153.009c-.116.054-.132.038-.046-.048l.058-.056c.037-.037.03-.054-.022-.05l-.129.01c-.045.003-.054-.012-.024-.048l.074-.086.928-.652a.277.277 0 0 1 .154-.053c.332-.009.65-.102.953-.279a29.524 29.524 0 0 0 4.139-2.893.037.037 0 0 1 .045 0 .02.02 0 0 1 .01.017.025.025 0 0 1-.006.02.95.95 0 0 0-.121.156c-.023.037-.018.04.014.01a.372.372 0 0 1 .442-.068.14.14 0 0 0 .17-.04l.34-.427Z" fill="#fff"/><path d="M13.232 24.3c.29-.124.586-.238.893-.34 2.61-.868 4.258-2.452 4.804-5.22.298-2.682 1.566-4.647 3.803-5.894.481-.269 1.093-.386 1.835-.353 1.978.09 2.595 2.276 2.504 3.892-.28 2.831-1.925 4.96-4.483 6.144-2.9 1.342-4.737 2.207-5.51 2.595-2.21 1.105-5.338 1.939-7.8 1.49a4.613 4.613 0 0 0-.782-.076c-4.056-.96-6.532-3.986-7-8.134l-.186-1.102c-.128-.754.117-1.626.177-2.15.16-1.445.57-2.82 1.228-4.126.016-.031.04-.04.074-.024.026.012.037.028.032.044-1.743 5.244-.522 13.314 6.453 13.707a11.37 11.37 0 0 0 3.958-.452Z" fill="#8C8C8C"/><path d="M42.463 11.642c5.541-.644 6.429 7.864 1.465 9.04-6.04 1.43-7.453-8.343-1.465-9.04Zm.432 7.276c.28 0 .558-.07.817-.207.26-.137.495-.338.693-.591.199-.254.357-.555.465-.887a3.453 3.453 0 0 0 .004-2.093 2.883 2.883 0 0 0-.462-.889 2.186 2.186 0 0 0-.69-.594 1.735 1.735 0 0 0-.817-.21c-.28 0-.558.07-.817.207a2.187 2.187 0 0 0-.693.592 2.883 2.883 0 0 0-.464.887 3.419 3.419 0 0 0-.164 1.046c0 .36.054.715.16 1.047.107.332.264.634.461.888.198.255.433.456.691.594.259.138.536.21.816.21Z" fill="#fff"/><path d="M50.493 20.561c-4.023-1.465-3.66-8.302.704-8.867 3.383-.439 5.339 1.974 4.997 5.183-.299 2.805-2.988 4.67-5.7 3.684Zm1.469-1.638c.28 0 .557-.071.816-.209a2.18 2.18 0 0 0 .693-.593c.198-.254.355-.556.462-.888.107-.332.162-.688.162-1.047 0-.36-.055-.716-.162-1.048a2.886 2.886 0 0 0-.462-.888 2.187 2.187 0 0 0-.693-.593 1.734 1.734 0 0 0-.816-.208c-.566 0-1.109.288-1.509.801-.4.514-.625 1.21-.625 1.936s.225 1.422.625 1.935c.4.513.943.802 1.509.802Zm-16.603-3.67c.572 0 1.652-.116 2.156.103.526.23.69.86.34 1.313-.431.558-1.847.38-2.49.387-.064.002-.098.034-.098.099.002.749.006 1.486.013 2.212.014 1.627-2.002 1.728-2.018.107-.017-1.69-.016-3.826.004-6.414.008-1.055.631-1.213 1.57-1.227 1.072-.017 2.58-.16 3.12.299a.835.835 0 0 1-.17 1.396c-.543.276-1.797.154-2.419.14a.1.1 0 0 0-.069.028.095.095 0 0 0-.029.067v1.4c0 .06.03.09.09.09Zm25.651-3.365a2.71 2.71 0 0 1-.179 1.879l-1.54-.072c-.069-.004-.104.03-.105.1l-.011 1.679c-.679.191-1.335.54-1.965 1.047-.012-1.11-.014-2.196-.005-3.256.007-.761.168-1.335.995-1.41.756-.07 1.693-.057 2.81.033Z" fill="#fff"/><path d="M61.01 11.89c4.822.518 4.824 8.078-.136 8.619-.676.073-1.714.054-3.116-.058.4-.658.868-1.3 1.403-1.927-.001.125.037.186.114.183 1.353-.069 2.638.04 3.023-1.623.314-1.35.118-2.958-1.466-3.314.286-.62.345-1.246.179-1.88Zm-53.854.446c-.058.184.067.256.377.216a.055.055 0 0 1 .054.024.054.054 0 0 1 0 .058l-.029.05c-.03.049-.016.073.042.071.025 0 .046.004.065.01.037.013.06.04.07.078l.304 1.072a.288.288 0 0 1-.007.175 1.743 1.743 0 0 0-.05 1.06.12.12 0 0 1-.033.121l-.049.05c-.017.017-.014.026.01.024.032-.002.066-.002.1-.002.08.002.083.021.015.058-.307.174-.516.39-.627.65l-.968.647a.443.443 0 0 1-.132.058.196.196 0 0 0-.158.156.146.146 0 0 1-.094.108l-.416.16a.304.304 0 0 0-.105.069.84.84 0 0 1-.729.249c-.014-.002-.022-.01-.026-.023l-.005-.044c-.002-.037-.02-.044-.05-.025-.08.055-.148.058-.206.011-.03-.025-.062-.025-.095-.002-.253.184-.47.151-.653-.098a.118.118 0 0 0-.184-.007c-.16.184-.205.407-.139.667a.184.184 0 0 1-.035.161.771.771 0 0 0-.145.27c-.346-2.04-.204-3.983.43-5.825 1.058.272 2.214.19 3.468-.247Z" fill="#fff"/><path d="m13.874 14.025-.073.086c-.03.036-.021.051.024.048l.128-.01c.053-.004.06.013.023.05l-.058.056c-.086.086-.07.102.046.048a.235.235 0 0 1 .152-.01c.085.022.086.05.007.085l-.972.428c-.344.03-.663.146-.956.346a.364.364 0 0 1-.158.061c-.347.05-.738.528-.977.288a.184.184 0 0 0-.139-.053c-.552.03-.947.288-1.186.77a.256.256 0 0 1-.128.123 2.024 2.024 0 0 0-.898.748.312.312 0 0 1-.126.112c-.281.133-.28.614-.46.893-.035.055-.021.076.042.063l.223-.04a.062.062 0 0 1 .07.046.055.055 0 0 1 0 .031c-.012.037-.042.069-.091.091-.016.01-.016.016.002.021a.574.574 0 0 0 .058.018c.05.012.063.042.038.088a.65.65 0 0 1-.293.286.381.381 0 0 0-.137.11c-.252.31-.544.578-.875.8-.49.327-.718.655-1.11 1.037-.25.244-.585.325-.906.439a.305.305 0 0 0-.137.098 1.072 1.072 0 0 1-.496.363c-.62-.954-1.037-2-1.253-3.139a.772.772 0 0 1 .145-.27.184.184 0 0 0 .036-.161c-.067-.26-.022-.483.138-.667a.12.12 0 0 1 .145-.027.12.12 0 0 1 .04.034c.182.25.4.283.652.098.033-.022.065-.022.095.002.058.048.126.044.207-.01.03-.02.047-.013.049.024l.005.044c.004.014.012.021.027.023a.84.84 0 0 0 .728-.25.303.303 0 0 1 .105-.068l.416-.16a.146.146 0 0 0 .094-.108.196.196 0 0 1 .158-.156.438.438 0 0 0 .132-.058l.968-.648a.855.855 0 0 0 .67-.207.226.226 0 0 1 .145-.056c.187-.008.287-.108.3-.302.005-.056.03-.1.077-.131.214-.146.354-.348.423-.602a.192.192 0 0 1 .07-.105l.523-.409a.211.211 0 0 1 .142-.047.65.65 0 0 0 .354-.107.155.155 0 0 1 .158-.006c.283.155.504.107.665-.144a.142.142 0 0 1 .097-.063.143.143 0 0 1 .112.028c.1.08.145.167.133.264-.005.04.01.068.051.082a.45.45 0 0 0 .068.023.017.017 0 0 1 .01.006.017.017 0 0 1 .002.01.017.017 0 0 1-.003.01.017.017 0 0 1-.009.007.287.287 0 0 0-.194.283c-.002.056.026.084.082.082l.786-.03a.263.263 0 0 0 .156-.054c.597-.451.967-.386 1.658-.555Z" fill="#fff"/><path d="m13.156 14.807.695.252c.051.02.053.04.006.065-.01.005-.025.01-.044.02l-.003.001v.003s0 .002.002.002h.002c.03.004.053.013.07.027.034.028.03.049-.012.065-.394.142-.73.368-1.002.679-.047.054-.036.07.032.049.058-.02.088-.012.09.02a.076.076 0 0 1-.036.071l-.936.607a.152.152 0 0 0-.074.132c-.007.409-.584.568-.802.968a.153.153 0 0 0-.009.14c.027.062.056.08.09.053a.027.027 0 0 1 .037.004.036.036 0 0 1 .004.042c-.06.112-.027.214.1.303.048.034.094.03.136-.01.072-.07.146-.074.221-.012a.119.119 0 0 1 .044.097.123.123 0 0 1-.05.096l-.24.173a.15.15 0 0 0-.065.135c.01.185-.064.314-.22.388a.401.401 0 0 0-.146.114 1.17 1.17 0 0 1-.805.45.272.272 0 0 0-.162.075c-.209.198-.41.4-.609.602-.19.194-.535.38-.694.733a.136.136 0 0 1-.118.086c-.295.03-.426.172-.395.426a9.537 9.537 0 0 1-3.288.507l-.46-.624a1.08 1.08 0 0 0 .497-.363.305.305 0 0 1 .137-.099c.321-.114.656-.194.905-.438.393-.383.621-.711 1.11-1.037.333-.223.624-.49.876-.8a.382.382 0 0 1 .137-.11.65.65 0 0 0 .293-.287c.025-.046.013-.075-.038-.088-.021-.005-.04-.012-.058-.017-.018-.005-.018-.012-.002-.021.05-.023.079-.055.091-.091a.062.062 0 0 0-.04-.075.06.06 0 0 0-.03-.003l-.223.04c-.063.013-.077-.008-.042-.062.18-.28.18-.76.46-.893a.312.312 0 0 0 .126-.113c.223-.335.523-.584.898-.747a.256.256 0 0 0 .129-.123c.238-.483.633-.74 1.186-.77.054-.002.1.016.138.052.239.24.63-.238.977-.287a.364.364 0 0 0 .158-.062c.293-.2.613-.316.957-.345Zm14.454.295c.795 10.365-10.255 17.26-19.122 11.435.265.004.525.028.781.076 2.463.449 5.592-.384 7.8-1.49.774-.388 2.611-1.253 5.511-2.595 2.558-1.184 4.202-3.312 4.483-6.144.04-.367.223-.795.547-1.282Zm31.563.375-.014 3.047a14.829 14.829 0 0 0-1.404 1.927 1.17 1.17 0 0 1-.522-.974 62.475 62.475 0 0 1-.025-2.953c.63-.507 1.286-.856 1.965-1.047Z" fill="#fff"/><path d="m16.006 17.625.007.098a.14.14 0 0 1-.077.142.806.806 0 0 0-.437.639.183.183 0 0 1-.091.139l-.077.047c-.11.068-.102.105.028.112.71.046 1.417.046 2.125 0 .322-.02.715-.302 1.094.044.048.044.083.035.102-.026l.046-.146c.035-.105.082-.11.142-.017l.054.086c-.545 2.767-2.193 4.35-4.804 5.22a11.06 11.06 0 0 0-.893.34c-.245-.229-.596.019-.857.047-3.027.337-5.31.114-7.4-2.177a9.53 9.53 0 0 0 3.289-.507 20.767 20.767 0 0 0 7.75-4.041ZM76.6 28.902c.796.417 1.571.135 2.51-.19 1.1-.38 1.463 1.17.417 1.781-2.391 1.393-5.467.125-6.142-2.565-.86-3.427 1.207-6.504 5.004-6.018.779.098 2.41 1.03 1.354 2.025-.403.379-1.05.079-1.514-.028-3.213-.74-3.762 3.875-1.628 4.995Zm-26.252-3.191-2.735 1.009c-.837-.277-1.342-.807-1.517-1.591a2.453 2.453 0 0 1 .261-1.813c.88-1.54 2.974-1.758 4.497-1.103 1.044.447.85 1.95-.365 1.723a46.24 46.24 0 0 1-1.114-.229c-1.039-.228-1.828.874-.576 1.397.469.195.986.398 1.55.607Zm10.033 3.517c-.223.804-.479 1.78-1.323 1.674-.738-.093-.952-.867-.726-1.495a300.135 300.135 0 0 1 2.35-6.378c.447-1.157 1.754-1.479 2.594-.47.25.297.474 1.102.59 1.423.65 1.802 1.287 3.61 1.909 5.423.322.942-.385 1.957-1.353 1.367-.451-.274-.616-1.018-.767-1.537-.017-.058-.056-.086-.116-.086l-3.061.005c-.051 0-.083.025-.097.074Zm.646-2.014a.07.07 0 0 0 .066.091l1.858.023a.07.07 0 0 0 .069-.091l-.893-2.943a.07.07 0 0 0-.11-.038.07.07 0 0 0-.025.037l-.965 2.92Zm27.363-4.357v7.139c-.14.707-.568.991-1.286.853-.928-.183-.709-2.794-.666-3.46a.104.104 0 0 0-.029-.08.105.105 0 0 0-.077-.033l-3.344-.008c-.114-.002-.172.056-.17.171.004.695.184 2.543-.272 3.106-.433.535-1.302.442-1.576-.204-.075-.178-.115-.482-.117-.912a534.281 534.281 0 0 1 0-6.28c.005-1.203 1.439-1.71 1.858-.566.25.686.11 2.002.11 2.758a.09.09 0 0 0 .09.09h3.412a.12.12 0 0 0 .12-.129c-.067-.866-.363-3.568 1.161-3.337.42.065.683.362.786.892Zm-35.399 1.545a14.554 14.554 0 0 0 3.023-2.25 2.204 2.204 0 0 1 1.597.146c.484.23.435 1.065.066 1.373-.479.398-2.005.289-2.612.256a.097.097 0 0 0-.102.096v1.356a.114.114 0 0 0 .121.114c.551-.043 1.767-.126 2.253.162.467.275.586.856.23 1.282-.444.528-1.736.392-2.42.372-.122-.003-.184.056-.184.18v1.363c0 .06.032.09.093.09.798-.01 2.756-.285 2.976.741.33 1.542-3.14 1.12-3.944 1.072-.634-.037-1.078-.282-1.09-.95-.016-.929-.017-2.73-.007-5.403Z" fill="#fff"/><path d="M70.705 27.237a71.861 71.861 0 0 1 1.679 1.877c1.075 1.244-.362 2.613-1.467 1.288a80.503 80.503 0 0 1-2.3-2.89.077.077 0 0 0-.089-.028.082.082 0 0 0-.055.077c.005.71.16 2.25-.182 2.867-.472.85-1.781.455-1.785-.488a824.03 824.03 0 0 1 .002-6.907c.007-1.614 4.099-.939 4.937-.465 1.9 1.072 1.64 4.132-.698 4.544a.075.075 0 0 0-.042.125Zm-2.23-3.197v1.853a.123.123 0 0 0 .123.123h.938c.29 0 .567-.105.77-.29a.946.946 0 0 0 .32-.7v-.12a.946.946 0 0 0-.32-.699 1.148 1.148 0 0 0-.77-.29h-.938a.123.123 0 0 0-.123.123Zm-33.237 3.514c.042.72.177 2.16-.156 2.812-.547 1.07-1.818.423-1.827-.649-.008-1.167-.007-3.298.006-6.391.003-.99.549-1.225 1.461-1.234 1.723-.02 3.743-.16 4.576 1.674.628 1.384-.228 3.13-1.79 3.347a.067.067 0 0 0-.055.044.066.066 0 0 0 .015.069 73.92 73.92 0 0 1 1.7 1.89c1.039 1.196-.374 2.642-1.488 1.271-.78-.961-1.552-1.923-2.312-2.884a.07.07 0 0 0-.083-.023.076.076 0 0 0-.047.074Zm.03-3.567-.004 1.944a.072.072 0 0 0 .072.072l1.006.002a1.113 1.113 0 0 0 .757-.3.986.986 0 0 0 .315-.724v-.038c0-.272-.112-.532-.313-.725-.2-.192-.472-.3-.756-.301l-1.005-.002a.072.072 0 0 0-.072.072Zm7.358 1.499.597.095c.086.014.096.049.028.105a12.13 12.13 0 0 1-2.286 1.509c-.078.04-.072.063.014.068l1.05.07a.285.285 0 0 1 .267.276l.044 1.337c.723-.03 1.42-.02 2.091.028 1.418.1 1.37 1.688-.089 1.776-.998.061-1.998.058-2.997-.011-.66-.044-.924-.423-.93-1.042-.024-2.521-.022-4.64.008-6.362.01-.646.228-1.163.907-1.223.405-.035 2.919-.203 3.62.134.525.25.582 1.168.045 1.498-.51.312-1.92.214-2.521.184-.069-.003-.102.028-.102.097v1.386c0 .082.04.115.12.1l.134-.025Zm13.385-3.333a14.557 14.557 0 0 1-3.023 2.251c.005-.749.035-1.27.09-1.561.193-1.006 2.149-.71 2.933-.69Z" fill="#fff"/><path d="M42.63 25.488c.703-.023 2.158-.233 2.491.632.553 1.422-2.016 1.207-2.645 1.2a.106.106 0 0 0-.074.028.103.103 0 0 0-.032.072l-.026 1.528-.044-1.337a.286.286 0 0 0-.267-.276l-1.05-.07c-.086-.005-.092-.028-.015-.068a12.135 12.135 0 0 0 2.287-1.509c.068-.056.057-.091-.029-.105l-.596-.095Zm7.716.222c.952.347 1.52.959 1.703 1.84.685 3.275-3.365 4.12-5.505 2.895-1.18-.676-.46-2.044.805-1.644 1.039.33 2.65.817 2.658-.692.004-.679-1.83-1.144-2.396-1.39l2.735-1.008ZM17.06 31.178h-2.497a77.347 77.347 0 0 1-7.536-.48 3.59 3.59 0 0 1-1.105-.329.08.08 0 0 1-.005-.143c.282-.157.598-.257.947-.302 5.4-.706 11.017-.636 16.434-.174.73.061 1.476.191 2.237.386a.153.153 0 0 1-.007.297c-2.766.59-5.637.696-8.469.745Z" fill="#fff"/></g><defs><clipPath id="a"><path fill="#fff" transform="translate(.656 .473)" d="M0 0h87.725v30.704H0z"/></clipPath></defs></svg>