<svg width="17" height="27" fill="none" xmlns="http://www.w3.org/2000/svg"><path fill-rule="evenodd" clip-rule="evenodd" d="M12.81 13.69s-.08-.027-.08-.107c0-.053.027-.08.054-.107 1.87-1.176 3.02-3.314 3.02-5.799A6.683 6.683 0 0 0 9.123.997h-7.91a.947.947 0 0 0-.936.934v23.785c0 .508.428.935.936.935h8.845a6.683 6.683 0 0 0 6.681-6.68c0-2.887-1.523-5.346-3.928-6.281Zm-3.5 8.204a.23.23 0 0 1-.214.214H8.75a.23.23 0 0 1-.214-.21v-2.302H6.451v2.298a.23.23 0 0 1-.214.214h-.348c-.105 0-.211-.105-.213-.21v-5.376a.23.23 0 0 1 .213-.214h.348c.106 0 .211.105.214.21V18.9h2.084v-2.378a.23.23 0 0 1 .214-.214h.347a.23.23 0 0 1 .214.21v5.376ZM8.776 8.071a.187.187 0 0 0-.08-.02h-2.27v-1.87H9.1a.23.23 0 0 0 .213-.213v-.24c0-.08-.06-.161-.135-.196a.187.187 0 0 0-.08-.02H5.862a.23.23 0 0 0-.214.214v5.372c0 .08.06.16.135.195.026.013.054.02.08.02h.348a.23.23 0 0 0 .214-.214V8.72h2.272a.23.23 0 0 0 .213-.213v-.24c0-.081-.06-.161-.135-.196Z" fill="#fff" opacity=".6"/></svg>