<svg width="76" height="38" fill="none" xmlns="http://www.w3.org/2000/svg"><path d="M21.702.52c.302.027.617.05.945.07a.389.389 0 0 1 .118.03.592.592 0 0 0 .12.037c1.662.323 3.237.863 4.723 1.619 3.719 1.889 6.505 4.693 8.36 8.413a18.21 18.21 0 0 1 1.537 4.483c.036.177.05.353.095.525.053.204.065.423.085.63.011.127.03.262.057.406.023.121.037.253.042.396a33.007 33.007 0 0 1 .025 1.73h.004l-.001-.001a7.49 7.49 0 0 1 .02-.896c0-.006.003-.01.01-.01h.016c.011 0 .017.006.017.017.017.607.013 1.211-.01 1.811-.002.016-.01.022-.024.02-.006-.001-.01 0-.014.006a.027.027 0 0 0-.004.015c-.188 4.938-2.58 9.645-6.262 12.893-2.643 2.33-5.986 3.916-9.504 4.429-.34.05-.667.079-.98.089-.027 0-.029.007-.005.02a.087.087 0 0 0 .036.012l-.001.002a.733.733 0 0 1-.062.006c-1.14.067-2.31.07-3.51.009-.007 0-.007-.002 0-.004a.61.61 0 0 1 .123-.021c.007 0 .01-.004.01-.012s-.003-.011-.01-.012a28.128 28.128 0 0 0-.881-.051c-.024 0-.037-.011-.039-.03v-.004l.003-.002.003-.002h.012c.012-.006.011-.01-.002-.011-.282-.032-.564-.06-.846-.086a.36.36 0 0 1-.104-.027.555.555 0 0 0-.1-.034 15.59 15.59 0 0 1-1.393-.328c-2.172-.622-4.323-1.667-6.149-3.063-3.192-2.441-5.39-5.59-6.592-9.445a15.492 15.492 0 0 1-.49-2.069 92.057 92.057 0 0 0-.093-.555 5.338 5.338 0 0 1-.067-.545 15.73 15.73 0 0 0-.06-.664 9.863 9.863 0 0 1-.055-1.377.1.1 0 0 1 .09-.098c.083-.009.168-.013.256-.014a95.013 95.013 0 0 1 1.634.003c.037 0 .053.02.05.056a.09.09 0 0 0 .01.053c.01.02.015.041.015.065-.003.369.007.744.03 1.127 0 .015.009.022.024.02a.008.008 0 0 0 .004-.002c.01-.011.014-.01.015.004.014.248.031.495.053.742.013.147.035.294.065.442.04.195.052.391.092.593a16.49 16.49 0 0 0 2.422 5.923 16.599 16.599 0 0 0 9.846 6.982c.38.096.78.174 1.2.236a.05.05 0 0 1 .03.014c.009.01.02.015.034.017.282.037.57.044.858.068.042.003.043.012.005.027a.157.157 0 0 1-.052.01c-.082 0-.082.005-.001.015.108.013.213.021.317.025 1.003.034 2.053.032 3.15-.006.043-.002.046-.014.01-.037-.007-.004-.018-.004-.034 0-.015.004-.016.002-.003-.007a.005.005 0 0 0 .004-.004c.001-.004.004-.006.008-.006.328-.02.65-.045.963-.075.073-.007.138-.04.208-.051.384-.058.733-.126 1.046-.203a16.533 16.533 0 0 0 6.057-2.868c2.333-1.759 4.089-3.998 5.27-6.72a15.654 15.654 0 0 0 1.233-4.84 19.22 19.22 0 0 0 .002-3.257c-.02-.252-.066-.491-.095-.74a7.313 7.313 0 0 0-.082-.537 40.621 40.621 0 0 0-.104-.53 13.92 13.92 0 0 0-.312-1.227 16.576 16.576 0 0 0-11.27-11.126c-.376-.108-.753-.2-1.133-.276a4.345 4.345 0 0 1-.279-.066c-.214-.057-.441-.04-.657-.104a1.327 1.327 0 0 0-.3-.051l-.844-.048a.113.113 0 0 1-.055-.018.27.27 0 0 0-.137-.043 20.351 20.351 0 0 0-2.37.026.05.05 0 0 0-.031.014.024.024 0 0 0-.003.006.016.016 0 0 1-.016.01c-.461.02-.994.082-1.598.187-1.84.32-3.55.928-5.129 1.823a.378.378 0 0 1-.142.047.127.127 0 0 1-.124-.058 20.403 20.403 0 0 1-.881-1.546.09.09 0 0 1 .012-.1.867.867 0 0 1 .225-.182c1.777-1 3.737-1.681 5.881-2.046.137-.024.328-.042.574-.055a.083.083 0 0 0 .026-.006c.028-.01.016-.013-.035-.007-.005 0-.01 0-.015-.002-.042-.02-.04-.032.007-.035.382-.03.745-.051 1.089-.065.094-.004.095-.014.002-.03a.924.924 0 0 0-.178-.006c-.006.003-.005.004.001.004l.007-.001c.074-.015.15-.024.228-.028a32.822 32.822 0 0 1 3.198.012c.045.003.045.006 0 .008a10.37 10.37 0 0 1-.833.02V.394c.005-.002.012 0 .02.007a.05.05 0 0 0 .03.01c.608.014 1.202.038 1.782.072.005 0 .007.003.007.008 0 .006-.002.008-.007.009-.16.008-.318.013-.473.015-.022 0-.022.002 0 .004Z" fill="#9F9A99"/><path d="M25.016 5.6c2.8 1.219 5 3.13 6.603 5.735.04.065.074.135.104.209a.103.103 0 0 1-.033.12c-.078.06-.155.111-.233.152-.485.26-.95.563-1.452.796-.018.01-.033.005-.043-.014-.34-.58-.721-1.178-1.183-1.68-.231-.253-.43-.514-.672-.749-.604-.588-1.125-1.034-1.564-1.339-.9-.624-1.761-1.165-2.808-1.522-.528-.18-1.006-.367-1.568-.491a14.58 14.58 0 0 0-.87-.172 14.436 14.436 0 0 0-3.065-.124c-.143.01-.48.059-1.01.149-1.72.29-3.295.916-4.729 1.875a12.12 12.12 0 0 0-3.538 3.606c-.425.669-.76 1.304-1.006 1.906A12.676 12.676 0 0 0 7 18.632c-.005.28.003.566.025.857.03.377.048.762.104 1.142.475 3.203 2.217 6.18 4.846 8.099a12.596 12.596 0 0 0 4.878 2.18c.25.054.496.093.738.117.335.035.662.094 1 .105.659.02 1.213.014 1.663-.02a12.26 12.26 0 0 0 5.696-1.902 12.068 12.068 0 0 0 3.95-4.082c.064-.108.147-.129.25-.064.264.168.53.322.796.464.269.143.51.323.788.447a.065.065 0 0 1 .039.066.064.064 0 0 1-.009.026 16.197 16.197 0 0 1-1.639 2.263 13.984 13.984 0 0 1-3.24 2.74c-.446.276-.85.504-1.21.687-.24.122-.636.292-1.187.512a14.331 14.331 0 0 1-4.076.914c-.656.045-1.365.044-2.126-.005a13.91 13.91 0 0 1-5.653-1.616c-2.378-1.256-4.274-3.055-5.688-5.398-.819-1.355-1.396-2.903-1.717-4.434-.063-.298-.094-.596-.145-.892a6.059 6.059 0 0 1-.05-.36 14.422 14.422 0 0 1 .846-6.789c.15-.398.316-.78.498-1.144a15.17 15.17 0 0 1 1.856-2.887c1.066-1.297 2.348-2.365 3.847-3.267.363-.219.715-.406 1.056-.562 1.353-.617 2.727-1.059 4.14-1.238.343-.044.67-.079.984-.105.313-.027.642-.041.988-.043 2.057-.006 3.98.38 5.769 1.158Z" fill="#9F9A99"/><path d="M21.36 13.604a.039.039 0 0 1-.01.027.037.037 0 0 1-.026.011l-.914.001a.037.037 0 0 1-.026-.01.037.037 0 0 1-.011-.027l-.002-.916a.037.037 0 0 1 .011-.027.037.037 0 0 1 .026-.011l.913-.002a.037.037 0 0 1 .027.011.037.037 0 0 1 .01.027l.002.916Zm4.263 2.182a.03.03 0 0 1-.015.004c-.348.005-.708.004-1.082-.004a.037.037 0 0 0-.026.01.036.036 0 0 0-.011.026v4.964c0 .286.07.54.21.761.18.281.679.359.982.345.946-.044 1.898-.025 2.848-.033.041 0 .062.02.062.061v.942c0 .044-.022.066-.066.066-.845.003-1.738.003-2.679.002-.28 0-.584 0-.856-.07-.466-.121-.922-.396-1.19-.806-.29-.444-.366-.946-.372-1.473a293.733 293.733 0 0 1-.017-4.742.06.06 0 0 0-.019-.045.061.061 0 0 0-.045-.017 7.58 7.58 0 0 1-.78.009 3.34 3.34 0 0 0-.358.005c-.11.007-.22.001-.327-.016-.02-.003-.03-.015-.03-.035v-.947c0-.053.026-.08.079-.08l1.444-.003c.021 0 .032-.011.032-.033v-1.999c0-.006.003-.011.007-.015a.022.022 0 0 1 .016-.007l1.03-.011a.029.029 0 0 1 .029.028v1.993c0 .03.015.045.045.045h4.001c.038 0 .057.02.057.058l-.004.949c0 .038-.02.058-.058.058l-2.878.003a.06.06 0 0 0-.029.007Zm.41 6.146c.698.014 1.387.016 2.066.005.02 0 .02-.004.002-.01a.116.116 0 0 0-.031-.005 60.464 60.464 0 0 0-2.035-.007c-.006 0-.009.003-.009.01 0 .004.002.006.006.006Zm-14.728-3.066a8.3 8.3 0 0 0 .034 1.485c.099.774.504 1.25 1.215 1.432.414.106.846.16 1.284.172.706.02 1.383.015 2.03-.013.698-.03 1.518-.192 1.952-.758a.146.146 0 0 1 .105-.055 9.857 9.857 0 0 1 1.064-.008c.05.002.068.027.057.076a1.766 1.766 0 0 1-.227.538c-.47.74-1.15 1.076-2.003 1.195-.401.057-.8.088-1.197.096-.95.017-1.706.009-2.267-.024-.673-.04-1.405-.091-1.993-.462-.758-.479-1.118-1.378-1.215-2.265a14.49 14.49 0 0 1-.052-2.383c.024-.427.081-.825.171-1.193.09-.363.241-.691.456-.985.41-.56.997-.888 1.76-.982a14.879 14.879 0 0 1 1.91-.132c.547.003 1.118 0 1.676.042.568.043 1.12.087 1.638.306.491.208.89.534 1.143 1.027.287.556.41 1.112.445 1.716.02.363.028.723.024 1.08a.052.052 0 0 1-.051.051H11.35c-.03 0-.045.015-.046.044Zm.628-1.091.82-.007c1.73-.022 3.5-.02 5.31.003a.074.074 0 0 0 .05-.02.074.074 0 0 0 .023-.052c.003-.482-.087-.93-.383-1.321-.262-.346-.848-.531-1.255-.592-.925-.137-1.868-.13-2.836-.086-.263.012-.55.05-.863.114-.49.1-.984.323-1.228.746-.22.38-.248.788-.29 1.212-.001.02.007.03.027.033.01.002.017-.002.024-.01a.03.03 0 0 1 .026-.012c.193.016.384-.007.575-.009Zm9.431 5.114a.04.04 0 0 1-.041.041H20.4a.04.04 0 0 1-.038-.025.04.04 0 0 1-.004-.016v-8.137a.04.04 0 0 1 .012-.029.04.04 0 0 1 .03-.012h.922a.041.041 0 0 1 .04.041v8.137Zm23.681-3.531.001 3.546a.026.026 0 0 1-.008.019.027.027 0 0 1-.02.008l-1.02-.004c-.026 0-.04-.013-.04-.04l-.001-8.104c0-.047.024-.072.073-.072h7.611a.046.046 0 0 1 .046.045v.86a.06.06 0 0 1-.06.061l-6.554.002a.026.026 0 0 0-.027.027l-.002 2.542c0 .052.026.078.078.078 1.984 0 3.977-.002 5.979-.005.103 0 .199.009.287.026.026.004.038.02.038.045l-.002.85c0 .037-.018.055-.054.055h-6.264c-.04 0-.061.02-.061.06Zm30.073-1.504c.026-.127-.006-.24-.005-.363.01-.976.015-1.89.014-2.743a.037.037 0 0 1 .037-.037h.788c.021 0 .032.01.032.032l.017 8.14a.047.047 0 0 1-.014.033.048.048 0 0 1-.034.014h-.782c-.038.001-.058-.018-.058-.056a5.154 5.154 0 0 1 .019-.542.184.184 0 0 0-.02-.102.04.04 0 0 0-.066-.004c-.285.394-.67.628-1.158.7-.48.07-.997.105-1.551.105-.61 0-1.182-.028-1.718-.083-.485-.05-1.036-.27-1.397-.613-.372-.355-.552-.952-.594-1.46a10.29 10.29 0 0 1-.02-1.26c.04-.913.396-1.839 1.274-2.202.265-.11.66-.183 1.184-.22a15.88 15.88 0 0 1 2.778.033c.267.028.786.194.977.448.056.075.117.146.183.213.058.06.097.05.114-.033Zm-.509.454c-.242-.19-.676-.263-.972-.293a10.38 10.38 0 0 0-1.167-.046 13.92 13.92 0 0 1-.456-.001 7.318 7.318 0 0 0-1.152.078c-.364.051-.656.174-.876.37-.472.419-.438 1.522-.415 2.109.015.39.112.747.291 1.07.235.424 1.03.556 1.467.58.836.048 1.747.084 2.586-.047 1.257-.196 1.264-1.55 1.207-2.519-.026-.446-.165-1.027-.513-1.301Zm-16.251 4.441a3.04 3.04 0 0 1-.871.207A17.86 17.86 0 0 1 54.83 23c-.602-.034-1.142-.09-1.659-.34-.533-.26-.883-.904-.981-1.457a6.086 6.086 0 0 1 .032-2.36c.136-.635.578-1.23 1.2-1.442.24-.08.494-.148.747-.172a16.784 16.784 0 0 1 3.531.026 3.5 3.5 0 0 1 .421.1c1.553.427 1.623 2.31 1.448 3.613-.103.768-.482 1.482-1.21 1.78Zm.236-3.571c-.14-.803-.722-1.103-1.467-1.161a22.54 22.54 0 0 0-1.804-.053c-.795.003-1.821.008-2.115.941-.183.584-.19 1.26-.112 1.903.082.674.429 1.177 1.135 1.296.294.05.63.08 1.009.092a23.81 23.81 0 0 0 1.63-.004c.21-.008.422-.031.634-.07.773-.142 1.063-.736 1.134-1.452a5.523 5.523 0 0 0-.044-1.492Zm4.326 3.809c-.687-.047-1.553-.172-2.006-.736a2.32 2.32 0 0 1-.482-1.171 7.487 7.487 0 0 1-.004-1.875c.128-1.08.761-1.837 1.877-1.959a15.91 15.91 0 0 1 3.644.014c1.085.13 1.701.859 1.837 1.894a7.344 7.344 0 0 1-.001 1.944c-.06.441-.24.9-.54 1.225-.336.367-.927.563-1.404.617a16.24 16.24 0 0 1-2.921.047Zm3.438-4.651c-.236-.164-.532-.264-.888-.3a17.924 17.924 0 0 0-1.892-.073c-.981.007-2.02.041-2.191 1.285a5.929 5.929 0 0 0 .003 1.719c.102.655.488 1.037 1.159 1.143.292.047.617.076.977.087.628.02 1.191.018 1.689-.004.496-.022 1.075-.138 1.36-.572.142-.215.231-.475.268-.78a6.441 6.441 0 0 0 .001-1.533c-.044-.364-.192-.767-.486-.972Z" fill="#9F9A99"/></svg>