<svg width="60" height="61" viewBox="0 0 60 61" fill="none" xmlns="http://www.w3.org/2000/svg">
<g clip-path="url(#clip0_99_863)">
<path d="M30 60.1553C46.5685 60.1553 60 46.7238 60 30.1553C60 13.5867 46.5685 0.155273 30 0.155273C13.4315 0.155273 0 13.5867 0 30.1553C0 46.7238 13.4315 60.1553 30 60.1553Z" fill="#214497"/>
<mask id="mask0_99_863" style="mask-type:alpha" maskUnits="userSpaceOnUse" x="0" y="0" width="60" height="61">
<path d="M30 60.3809C46.5685 60.3809 60 46.9494 60 30.3809C60 13.8123 46.5685 0.380859 30 0.380859C13.4315 0.380859 0 13.8123 0 30.3809C0 46.9494 13.4315 60.3809 30 60.3809Z" fill="white"/>
</mask>
<g mask="url(#mask0_99_863)">
<path fill-rule="evenodd" clip-rule="evenodd" d="M43.2754 76.1563H17.1885C13.5924 76.1563 10.6667 73.2305 10.6667 69.6345V22.678C10.6667 19.0819 13.5924 16.1562 17.1885 16.1562H43.2754C46.8716 16.1562 49.7972 19.0819 49.7972 22.678V69.6345C49.7972 73.2305 46.8716 76.1563 43.2754 76.1563Z" fill="#9FAFF5"/>
<path d="M49.7972 23.9824H10.6667V65.7215H49.7972V23.9824Z" fill="#9FAFF5"/>
<path fill-rule="evenodd" clip-rule="evenodd" d="M45.8841 63.1126H14.5797C13.8597 63.1126 13.2753 62.5282 13.2753 61.8082V27.8952C13.2753 27.1752 13.8597 26.5908 14.5797 26.5908H45.8841C46.6041 26.5908 47.1884 27.1752 47.1884 27.8952V61.8082C47.1884 62.5282 46.6041 63.1126 45.8841 63.1126Z" fill="#4F6EF7"/>
<path d="M30.2318 21.3734C30.9522 21.3734 31.5362 20.7894 31.5362 20.069C31.5362 19.3486 30.9522 18.7646 30.2318 18.7646C29.5115 18.7646 28.9275 19.3486 28.9275 20.069C28.9275 20.7894 29.5115 21.3734 30.2318 21.3734Z" fill="#4F6EF7"/>
<path fill-rule="evenodd" clip-rule="evenodd" d="M26.1818 40.1543V37.6543C26.1818 35.7244 27.8946 34.1543 30 34.1543C32.1054 34.1543 33.8182 35.7244 33.8182 37.6543V40.1543H36V37.6543C36 34.6216 33.3084 32.1543 30 32.1543C26.6916 32.1543 24 34.6216 24 37.6543V40.1543H26.1818Z" fill="#17191D"/>
<path fill-rule="evenodd" clip-rule="evenodd" d="M37.6471 56.1544H22.353C21.7899 56.1544 21.3334 55.6768 21.3334 55.0877V41.221C21.3334 40.6319 21.7899 40.1543 22.353 40.1543H37.6471C38.2103 40.1543 38.6668 40.6319 38.6668 41.221V55.0877C38.6668 55.6768 38.2103 56.1544 37.6471 56.1544Z" fill="#9FAFF5"/>
<path fill-rule="evenodd" clip-rule="evenodd" d="M32.0002 47.393C32.0002 46.3411 31.1049 45.4883 30.0003 45.4883C28.8957 45.4883 28.0002 46.3411 28.0002 47.393C28.0002 48.0964 28.405 48.7037 29.0002 49.0337V52.155H31.0002V49.0337C31.5956 48.7037 32.0002 48.0964 32.0002 47.393Z" fill="black"/>
</g>
</g>
<defs>
<clipPath id="clip0_99_863">
<rect width="60" height="60" fill="white" transform="translate(0 0.155273)"/>
</clipPath>
</defs>
</svg>
