<svg width="60" height="61" viewBox="0 0 60 61" fill="none" xmlns="http://www.w3.org/2000/svg">
<g clip-path="url(#clip0_99_845)">
<path d="M30 60.1553C46.5685 60.1553 60 46.7238 60 30.1553C60 13.5867 46.5685 0.155273 30 0.155273C13.4315 0.155273 0 13.5867 0 30.1553C0 46.7238 13.4315 60.1553 30 60.1553Z" fill="#214497"/>
<mask id="mask0_99_845" style="mask-type:alpha" maskUnits="userSpaceOnUse" x="0" y="0" width="60" height="61">
<path d="M30 60.1553C46.5685 60.1553 60 46.7238 60 30.1553C60 13.5867 46.5685 0.155273 30 0.155273C13.4315 0.155273 0 13.5867 0 30.1553C0 46.7238 13.4315 60.1553 30 60.1553Z" fill="white"/>
</mask>
<g mask="url(#mask0_99_845)">
<path d="M30.9678 29.1871C34.1746 29.1871 36.7743 26.5875 36.7743 23.3807C36.7743 20.1739 34.1746 17.5742 30.9678 17.5742C27.761 17.5742 25.1614 20.1739 25.1614 23.3807C25.1614 26.5875 27.761 29.1871 30.9678 29.1871Z" fill="#EFD358"/>
<path d="M17.4194 19.5094C20.6262 19.5094 23.2259 16.9097 23.2259 13.7029C23.2259 10.4961 20.6262 7.89648 17.4194 7.89648C14.2126 7.89648 11.613 10.4961 11.613 13.7029C11.613 16.9097 14.2126 19.5094 17.4194 19.5094Z" fill="#EFD358"/>
<path d="M19.3551 14.6718H15.4841C14.9491 14.6718 14.5163 14.239 14.5163 13.704C14.5163 13.1692 14.9491 12.7363 15.4841 12.7363H19.3551C19.8899 12.7363 20.3227 13.1692 20.3227 13.704C20.3227 14.239 19.8899 14.6718 19.3551 14.6718Z" fill="#B29930"/>
<path d="M32.9034 24.3495H29.0324C28.4975 24.3495 28.0646 23.9167 28.0646 23.3819C28.0646 22.8469 28.4975 22.4141 29.0324 22.4141H32.9034C33.4382 22.4141 33.8711 22.8469 33.8711 23.3819C33.8711 23.9167 33.4382 24.3495 32.9034 24.3495Z" fill="#B29930"/>
<path d="M41.6242 41.052L24.6687 42.5264C23.0989 42.6628 21.525 42.3171 20.1569 41.5354L15.4837 38.8651H26.3879C27.8483 38.8651 29.0321 37.6812 29.0321 36.2208C29.0321 34.9484 28.1259 33.8564 26.8752 33.6219L17.0843 31.786C14.7321 31.345 12.3439 31.123 9.95058 31.123H1.93536V45.1351L17.854 51.7712C19.6161 52.4318 21.5656 52.4224 23.359 51.9697L44.5161 43.7037C44.5161 42.143 43.1791 40.9167 41.6242 41.052Z" fill="#BADEFC"/>
<path d="M5.80645 49.51H0.967742C0.433277 49.51 0 49.0768 0 48.5423V30.1552C0 29.6207 0.433277 29.1875 0.967742 29.1875H5.80645C6.34092 29.1875 6.77419 29.6207 6.77419 30.1552V48.5423C6.77419 49.0768 6.34092 49.51 5.80645 49.51Z" fill="#5A7A84"/>
</g>
</g>
<defs>
<clipPath id="clip0_99_845">
<rect width="60" height="60" fill="white" transform="translate(0 0.155273)"/>
</clipPath>
</defs>
</svg>
