<svg width="285" height="197" viewBox="0 0 285 197" fill="none" xmlns="http://www.w3.org/2000/svg">
<path d="M110.453 6.62554L104.29 17.6983L98.1279 6.62554L110.453 6.62554Z" fill="#F8F8F8"/>
<path d="M227.421 36.2123L254.731 43.3755L235.144 64.5278L227.421 36.2123Z" fill="#F8F8F8"/>
<path d="M277.452 154.085L265.896 175.017L254.34 154.085L277.452 154.085Z" fill="#F8F8F8"/>
<path d="M62.746 80.9536L12.4952 53.7665L60.1352 21.8505L62.746 80.9536Z" fill="#F8F8F8"/>
<path d="M77.0587 170.499L36.6982 185.925L44.1042 141.66L77.0587 170.499Z" fill="#F8F8F8"/>
<g clip-path="url(#clip0)">
<path d="M72 78.6278H212V151.392H72V78.6278Z" fill="#18AA61"/>
<path d="M142.001 106.641L72 151.392V78.6278L142.001 106.641Z" fill="#7ADB29"/>
<path d="M142.001 106.641L212.001 151.392V78.6278L142.001 106.641Z" fill="#7ADB29"/>
<path d="M142.001 29L72 78.6277H212.001L142.001 29Z" fill="#7ADB29"/>
<path d="M184.205 89.7522L142.001 106.641L99.7966 89.7522V44.7902H184.205V89.7522Z" fill="#F6EFEA"/>
<path d="M118.852 62.9816H135.66C136.335 62.9816 136.983 62.7133 137.461 62.2357C137.938 61.758 138.207 61.1103 138.207 60.4348C138.207 59.7593 137.938 59.1116 137.461 58.6339C136.983 58.1563 136.335 57.888 135.66 57.888H118.852C118.177 57.888 117.529 58.1563 117.051 58.6339C116.574 59.1116 116.306 59.7593 116.306 60.4348C116.306 61.1103 116.574 61.758 117.051 62.2357C117.529 62.7133 118.177 62.9816 118.852 62.9816Z" fill="#0B607E"/>
<path d="M118.852 74.4423H165.149C165.824 74.4423 166.472 74.174 166.95 73.6964C167.427 73.2187 167.696 72.571 167.696 71.8955C167.696 71.22 167.427 70.5723 166.95 70.0946C166.472 69.617 165.824 69.3487 165.149 69.3487H118.852C118.177 69.3487 117.529 69.617 117.051 70.0946C116.574 70.5723 116.306 71.22 116.306 71.8955C116.306 72.571 116.574 73.2187 117.051 73.6964C117.529 74.174 118.177 74.4423 118.852 74.4423Z" fill="#0B607E"/>
<path d="M165.149 80.8093H118.852C118.177 80.8093 117.529 81.0776 117.051 81.5553C116.574 82.0329 116.306 82.6807 116.306 83.3561C116.306 84.0316 116.574 84.6794 117.051 85.157C117.529 85.6346 118.177 85.9029 118.852 85.9029H165.149C165.824 85.9029 166.472 85.6346 166.95 85.157C167.427 84.6794 167.696 84.0316 167.696 83.3561C167.696 82.6807 167.427 82.0329 166.95 81.5553C166.472 81.0776 165.824 80.8093 165.149 80.8093Z" fill="#0B607E"/>
<path d="M142.001 169C155.316 169 166.109 158.206 166.109 144.891C166.109 131.576 155.316 120.782 142.001 120.782C128.686 120.782 117.892 131.576 117.892 144.891C117.892 158.206 128.686 169 142.001 169Z" fill="#FC5C5F"/>
<path d="M142.001 129.543C141.325 129.544 140.678 129.812 140.2 130.29C139.723 130.767 139.454 131.415 139.454 132.09V149.975C139.454 150.65 139.722 151.298 140.2 151.776C140.678 152.253 141.325 152.521 142.001 152.521C142.676 152.521 143.324 152.253 143.802 151.776C144.279 151.298 144.548 150.65 144.548 149.975V132.09C144.547 131.415 144.279 130.767 143.801 130.29C143.324 129.812 142.676 129.544 142.001 129.543Z" fill="#F6EFEA"/>
<path d="M144.358 156.719C144.293 156.567 144.215 156.421 144.126 156.282C144.031 156.142 143.923 156.01 143.805 155.889C143.687 155.771 143.555 155.669 143.412 155.583C143.277 155.484 143.131 155.401 142.976 155.336C142.82 155.279 142.659 155.235 142.496 155.205C142.17 155.132 141.832 155.132 141.506 155.205C141.342 155.235 141.182 155.279 141.026 155.336C140.873 155.404 140.726 155.487 140.589 155.583C140.446 155.669 140.314 155.771 140.196 155.889C139.726 156.372 139.46 157.019 139.454 157.694C139.454 157.859 139.469 158.025 139.498 158.188C139.541 158.348 139.585 158.509 139.643 158.669C139.712 158.819 139.79 158.964 139.876 159.105C139.971 159.245 140.078 159.377 140.196 159.498C140.314 159.616 140.446 159.718 140.589 159.804C140.726 159.9 140.873 159.983 141.026 160.051C141.186 160.109 141.346 160.153 141.506 160.197C141.669 160.226 141.835 160.24 142.001 160.24C142.336 160.242 142.668 160.177 142.977 160.05C143.287 159.923 143.569 159.735 143.806 159.498C144.042 159.261 144.23 158.98 144.357 158.67C144.485 158.36 144.549 158.029 144.548 157.694C144.548 157.528 144.533 157.362 144.504 157.199C144.46 157.039 144.417 156.879 144.358 156.719Z" fill="#F6EFEA"/>
</g>
<defs>
<clipPath id="clip0">
<rect width="140" height="140" fill="white" transform="translate(72 29)"/>
</clipPath>
</defs>
</svg>
