<svg width="282" height="180" viewBox="0 0 282 180" fill="none" xmlns="http://www.w3.org/2000/svg">
<path d="M215.531 79.5862L266.45 67.8367L250.517 120.814L215.531 79.5862Z" fill="#F8F8F8"/>
<path d="M21.5326 145.5L47.5121 129.479L47.5121 161.521L21.5326 145.5Z" fill="#F8F8F8"/>
<path d="M230.413 176.014L224.28 151.565L247.17 158.116L230.413 176.014Z" fill="#F8F8F8"/>
<path d="M63.8349 2.30021L53.6444 13.1851L67.5648 17.1693L63.8349 2.30021Z" fill="#F8F8F8"/>
<path d="M12.13 45.571L54.3313 45.4589L33.3215 84.553L12.13 45.571Z" fill="#F8F8F8"/>
<g clip-path="url(#clip0)">
<path d="M95.9703 33.6667H187.997C194.349 33.6667 199.5 38.891 199.5 45.3335V138.667C199.5 145.109 194.349 150.334 187.997 150.334H95.9703C89.6181 150.334 84.4669 145.109 84.4669 138.667V45.3332C84.4672 38.891 89.6183 33.6667 95.9703 33.6667Z" fill="#39B54A"/>
<path d="M105.173 45.3333H95.9703V54.6665H105.173V45.3333Z" fill="#FBB03B"/>
<path d="M187.997 64.0001H178.794V73.3333H187.997V64.0001Z" fill="#FBB03B"/>
<path d="M162.69 131.667H153.487V141H162.69V131.667Z" fill="#FBB03B"/>
<path d="M187.997 96.6667H178.794V106H187.997V96.6667Z" fill="#FBB03B"/>
<path d="M114.376 127H105.173V136.333H114.376V127Z" fill="#FBB03B"/>
<path d="M95.9706 131.667H91.3692V136.334H95.9706V131.667Z" fill="#006837"/>
<path d="M109.775 110.667H105.173V115.334H109.775V110.667Z" fill="#006837"/>
<path d="M105.173 64.0001H100.572V68.6668H105.173V64.0001Z" fill="#006837"/>
<path d="M135.082 47.6668H130.48V52.3336H135.082V47.6668Z" fill="#006837"/>
<path d="M183.395 40.6668H178.794V45.3336H183.395V40.6668Z" fill="#006837"/>
<path d="M141.984 134H137.382V138.667H141.984V134Z" fill="#006837"/>
<path d="M190.297 136.333H185.696V141H190.297V136.333Z" fill="#006837"/>
<path d="M174.193 120H169.592V124.667H174.193V120Z" fill="#006837"/>
<path d="M185.696 82.6669H181.095V87.3336H185.696V82.6669Z" fill="#006837"/>
<path d="M169.592 42.9999H160.389V52.3332H169.592V42.9999Z" fill="#FBB03B"/>
<path d="M102.872 78H93.6697V87.3332H102.872V78Z" fill="#FBB03B"/>
<path d="M102.872 162H95.9703C83.2707 161.986 72.9775 151.547 72.9638 138.667V108.333H77.5652V138.667C77.5768 148.97 85.8106 157.322 95.9706 157.333H102.873V162H102.872Z" fill="#39B54A"/>
<path d="M77.5652 99H72.9638V103.667H77.5652V99Z" fill="#39B54A"/>
<path d="M211.003 75.6668H206.402V45.3332C206.39 35.0293 198.157 26.6782 187.997 26.6665H181.095V22H187.997C200.697 22.0139 210.99 32.4532 211.003 45.3332V75.6668Z" fill="#39B54A"/>
<path d="M211.003 80.3333H206.402V85H211.003V80.3333Z" fill="#39B54A"/>
<path d="M105.173 47.6668V52.3335H116.677C117.286 52.3335 117.873 52.0885 118.303 51.6499L136.034 33.6671H129.528L115.724 47.6671H105.173V47.6668Z" fill="#F8CF26"/>
<path d="M185.696 116.701V106H181.095V117.667C181.095 118.285 181.336 118.88 181.769 119.316L199.5 137.299V130.701L185.696 116.701Z" fill="#F8CF26"/>
<path d="M181.095 52.3332V64H185.696V53.535L199.332 43.6557C199.109 42.0386 198.55 40.4893 197.694 39.1082L182.05 50.4342C181.449 50.875 181.092 51.5821 181.095 52.3332Z" fill="#F8CF26"/>
<path d="M123.578 129.333H114.376V134H122.301L132.369 150.333H137.794L125.529 130.43C125.108 129.749 124.372 129.333 123.578 129.333Z" fill="#F8CF26"/>
<path d="M176.494 134H162.69V138.667H174.193V150.334H178.794V136.334C178.794 135.045 177.763 134 176.494 134Z" fill="#F8CF26"/>
<path d="M146.585 50H160.389V45.3332H148.886V33.6667H144.284V47.6667C144.284 48.9546 145.315 50 146.585 50Z" fill="#F8CF26"/>
<path d="M100.572 106V87.3333H95.9703V104.558L84.4672 110.391V115.609L99.2994 108.1C100.084 107.703 100.576 106.889 100.572 106Z" fill="#F8CF26"/>
<path d="M141.984 59.3333L114.376 73.3333V94.303C114.376 109.131 124.947 121.785 139.368 124.223L141.984 124.667L144.599 124.223C159.02 121.785 169.592 109.131 169.592 94.303V73.3333L141.984 59.3333Z" fill="#E6E6E6"/>
<path d="M160.389 94.3332C160.389 94.2843 160.389 94.2375 160.389 94.1886V80.3332L141.984 71V94.3332H160.389Z" fill="#0071BC"/>
<path d="M141.984 71L123.578 80.3332V94.1886C123.578 94.2375 123.578 94.2843 123.578 94.3332H141.984V71Z" fill="#29ABE2"/>
<path d="M123.578 94.3333C123.65 105.025 131.523 114.008 141.984 115.333V94.3333H123.578Z" fill="#0071BC"/>
<path d="M141.984 94.3333V115.333C152.445 114.008 160.318 105.025 160.389 94.3333H141.984Z" fill="#29ABE2"/>
</g>
<defs>
<clipPath id="clip0">
<rect width="138.04" height="140" fill="white" transform="translate(72.9638 22)"/>
</clipPath>
</defs>
</svg>
