<svg width="228" height="166" viewBox="0 0 228 166" fill="none" xmlns="http://www.w3.org/2000/svg">
<path d="M170.505 26.2074L213.957 16.6142L200.36 59.8689L170.505 26.2074Z" fill="#F8F8F8"/>
<path d="M15.997 150.963L37.4456 138.307L37.4456 163.619L15.997 150.963Z" fill="#F8F8F8"/>
<path d="M198.806 154.079L192.396 129.629L216.319 136.18L198.806 154.079Z" fill="#F8F8F8"/>
<path d="M66.717 2.30021L56.0665 13.1851L70.6154 17.1693L66.717 2.30021Z" fill="#F8F8F8"/>
<path d="M5.22549 65.2944L29.4868 40.2979L38.5376 74.2694L5.22549 65.2944Z" fill="#F8F8F8"/>
<g clip-path="url(#clip0)">
<path d="M168.437 74.9688L161.027 51.1025C155.96 34.7811 144.537 21.2451 129.687 13.9657C127.736 13.0095 126.158 12.3716 124.86 12.0156C119.868 10.6467 109.702 10.6648 104.715 12.0511C103.419 12.4115 101.842 13.0552 99.8946 14.0182C85.0689 21.3499 73.691 34.9263 68.6781 51.2657L61.3479 75.1581C59.0479 82.6549 61.2593 90.8593 66.9813 96.0606L86.5396 113.839C81.7148 118.117 78.8979 124.362 78.8979 131.002V148.949C78.8979 150.082 79.789 151 80.8882 151H148.917C150.017 151 150.907 150.082 150.907 148.949V131.002C150.907 124.362 148.091 118.117 143.265 113.839L162.874 95.8905C168.578 90.6693 170.762 82.4569 168.437 74.9688Z" fill="#484655"/>
<path d="M168.437 74.9688L161.027 51.1025C155.96 34.781 144.537 21.2451 129.687 13.9657C127.736 13.0095 126.158 12.3716 124.86 12.0155C121.907 11.2059 117.144 10.8816 112.713 11.0386C115.469 11.1441 118.071 11.4689 119.911 12.0155C121.11 12.3716 122.567 13.0095 124.368 13.9657C138.077 21.2451 148.622 34.781 153.3 51.1025L160.141 74.9688C162.287 82.4571 160.271 90.6695 155.005 95.8911L136.903 113.839C141.357 118.118 143.958 124.362 143.958 131.002V148.949C143.958 150.082 143.135 151 142.12 151H148.917C150.017 151 150.907 150.082 150.907 148.949V131.002C150.907 124.362 148.091 118.118 143.265 113.839L162.874 95.8908C168.578 90.6693 170.762 82.4569 168.437 74.9688Z" fill="#35343F"/>
<path d="M153.89 93.3336L114.902 129.664L75.9148 93.3336C74.9457 92.4304 74.6519 90.9864 75.1901 89.7598C75.1959 89.7466 75.2015 89.7335 75.2073 89.7204C76.4705 86.8414 78.9223 81.4522 81.7539 76.3529C82.8445 74.3842 83.9936 72.4567 85.153 70.7341C87.0664 67.8879 89.0033 65.5992 90.7548 64.5984C101.311 58.5585 128.494 58.5585 139.05 64.5984C140.802 65.5992 142.739 67.8876 144.652 70.7341C145.812 72.4567 146.961 74.3842 148.051 76.3529C150.882 81.4522 153.334 86.8414 154.598 89.7204C154.603 89.7335 154.609 89.7466 154.615 89.7598C155.153 90.9864 154.859 92.4304 153.89 93.3336Z" fill="#35343F"/>
<path d="M126.074 110.498V84.2106H103.731V110.537L100.907 110.542C98.9536 110.546 97.0686 110.843 95.285 111.384L114.902 129.664L134.6 111.308C132.821 110.777 130.942 110.489 128.996 110.492L126.074 110.498Z" fill="#FA9E3E"/>
<path d="M153.229 86.6744C151.89 83.7601 150.068 79.985 148.051 76.3527C147.271 74.9439 146.46 73.5579 145.638 72.2514H136.341V87.7298H149.441C150.824 87.7296 152.117 87.3443 153.229 86.6744Z" fill="#FA9E3E"/>
<path d="M81.7536 76.3524C79.7365 79.9847 77.915 83.7598 76.5756 86.6741C77.6873 87.3443 78.9807 87.7295 80.363 87.7295H93.4638V72.2511H84.1669C83.3445 73.5579 82.5341 74.9442 81.7536 76.3524Z" fill="#FA9E3E"/>
<path d="M139.05 64.5982C128.494 58.5583 101.311 58.5583 90.7545 64.5982C89.0031 65.599 87.0661 67.8874 85.1527 70.7338V74.0804C85.1527 78.9856 86.27 83.6201 88.2574 87.7295C93.1294 97.8079 103.232 104.734 114.902 104.734C126.573 104.734 136.675 97.8079 141.547 87.7295C143.535 83.6201 144.652 78.9856 144.652 74.0804V70.7338C142.739 67.8874 140.801 65.5987 139.05 64.5982Z" fill="#F0EEEE"/>
<path d="M139.05 64.5982C128.494 58.5583 101.311 58.5583 90.7545 64.5982C89.5927 65.2621 88.3489 66.495 87.0849 68.079C101.716 65.4415 123.372 62.3443 142.69 85.0444C143.956 81.6404 144.652 77.9452 144.652 74.0807V70.7341C142.739 67.8874 140.801 65.5987 139.05 64.5982Z" fill="#D9D4D4"/>
<path d="M139.05 64.5982C138.859 64.4891 138.662 64.3827 138.461 64.2777V77.2692C138.461 91.9068 127.347 103.868 113.34 104.688C113.427 104.692 113.514 104.698 113.601 104.702C113.716 104.707 113.83 104.712 113.945 104.716C114.263 104.727 114.582 104.734 114.902 104.734C114.903 104.734 114.904 104.734 114.905 104.734C115.229 104.734 115.552 104.727 115.873 104.716C115.962 104.713 116.05 104.709 116.139 104.706C116.405 104.694 116.67 104.68 116.935 104.661C116.996 104.657 117.058 104.654 117.119 104.649C117.435 104.625 117.75 104.596 118.064 104.561C118.14 104.553 118.216 104.544 118.291 104.535C118.346 104.528 118.4 104.52 118.455 104.513C118.654 104.489 118.853 104.464 119.051 104.436C119.129 104.424 119.207 104.414 119.285 104.402C119.408 104.383 119.53 104.36 119.652 104.34C119.841 104.309 120.029 104.28 120.217 104.245C120.258 104.238 120.298 104.229 120.339 104.221C120.489 104.193 120.637 104.16 120.785 104.129C120.908 104.104 121.031 104.08 121.153 104.054C121.233 104.036 121.313 104.018 121.393 104C121.681 103.934 121.967 103.865 122.251 103.79C122.27 103.785 122.289 103.781 122.308 103.776C122.613 103.695 122.915 103.609 123.216 103.519C123.288 103.497 123.36 103.475 123.431 103.453C123.682 103.376 123.931 103.295 124.179 103.212C124.234 103.193 124.29 103.175 124.345 103.156C124.397 103.138 124.448 103.118 124.499 103.1C124.743 103.014 124.986 102.928 125.227 102.836C125.278 102.817 125.328 102.796 125.379 102.776C125.627 102.68 125.874 102.58 126.12 102.477C126.184 102.451 126.247 102.424 126.311 102.397C126.601 102.272 126.89 102.145 127.175 102.011C127.178 102.01 127.18 102.009 127.182 102.008C127.304 101.951 127.424 101.889 127.546 101.83C127.702 101.754 127.859 101.68 128.014 101.601C128.076 101.57 128.138 101.538 128.2 101.506C128.456 101.374 128.711 101.238 128.964 101.098C128.985 101.087 129.006 101.076 129.027 101.064C129.303 100.91 129.576 100.751 129.847 100.589C129.897 100.559 129.948 100.528 129.998 100.497C130.229 100.357 130.457 100.214 130.684 100.067C130.729 100.038 130.774 100.01 130.819 99.98C131.084 99.8067 131.346 99.6298 131.606 99.4482C131.631 99.4302 131.657 99.4116 131.682 99.3935C131.709 99.3746 131.735 99.3547 131.762 99.3358C131.967 99.1904 132.17 99.043 132.371 98.8923C132.422 98.8543 132.473 98.8163 132.523 98.778C132.524 98.7777 132.524 98.7772 132.525 98.7766C133.026 98.3968 133.514 98.0012 133.99 97.5905C134.037 97.55 134.084 97.5093 134.13 97.4685C134.344 97.2818 134.555 97.0925 134.764 96.8998C134.788 96.8773 134.812 96.8558 134.836 96.8333C134.89 96.7833 134.942 96.7308 134.996 96.6802C135.174 96.512 135.351 96.3436 135.525 96.1711C135.559 96.1374 135.593 96.1035 135.626 96.0696C135.756 95.94 135.882 95.8071 136.01 95.6751C136.074 95.6081 136.14 95.5427 136.204 95.4749C136.243 95.4347 136.281 95.3945 136.319 95.3538C136.465 95.1974 136.608 95.0374 136.752 94.8777C136.823 94.799 136.896 94.7219 136.966 94.642C136.972 94.6344 136.979 94.6267 136.985 94.6193C137.163 94.4164 137.337 94.2097 137.509 94.0019C137.531 93.9754 137.555 93.9497 137.577 93.9229C137.616 93.8753 137.655 93.8274 137.694 93.7796C137.695 93.7785 137.696 93.7771 137.697 93.776C138.097 93.2858 138.482 92.7824 138.851 92.2664C138.852 92.265 138.854 92.2637 138.855 92.262C138.887 92.2161 138.92 92.1699 138.953 92.1237C139.044 91.9946 139.132 91.8631 139.222 91.7326C139.292 91.629 139.365 91.527 139.435 91.4223C139.458 91.3884 139.481 91.3553 139.503 91.3214C139.681 91.0512 139.856 90.7781 140.027 90.5019C140.045 90.4724 140.063 90.4423 140.081 90.4125C140.232 90.165 140.38 89.9151 140.525 89.6627C140.553 89.6149 140.58 89.567 140.608 89.5189C140.925 88.9589 141.226 88.3872 141.509 87.8053C141.51 87.8028 141.512 87.8004 141.513 87.7976C141.54 87.741 141.568 87.6844 141.595 87.6275C141.674 87.4616 141.752 87.2942 141.829 87.1263C141.838 87.1061 141.848 87.0861 141.857 87.0659C141.886 87.0016 141.915 86.9374 141.944 86.8729C142.032 86.6765 142.117 86.4788 142.201 86.2803C142.224 86.2267 142.247 86.1734 142.269 86.1198C142.477 85.6197 142.671 85.113 142.854 84.5998C142.859 84.5864 142.864 84.5735 142.868 84.5601C142.876 84.5396 142.882 84.5188 142.89 84.4983C142.973 84.2613 143.053 84.0231 143.131 83.7836C143.152 83.719 143.171 83.654 143.192 83.5894C143.254 83.3917 143.315 83.1932 143.374 82.9939C143.397 82.9173 143.419 82.8402 143.441 82.7634C143.485 82.6105 143.526 82.4569 143.568 82.3029C143.579 82.2624 143.591 82.2222 143.601 82.1815C143.622 82.1052 143.642 82.0289 143.662 81.9526C143.714 81.7473 143.765 81.5411 143.814 81.3341C143.828 81.271 143.844 81.2078 143.858 81.1444C143.917 80.8892 143.972 80.633 144.025 80.3755C144.028 80.361 144.031 80.3468 144.034 80.3323C144.041 80.2945 144.047 80.2562 144.055 80.2185C144.158 79.6968 144.249 79.1704 144.326 78.6391C144.327 78.632 144.328 78.6246 144.329 78.6175C144.334 78.5801 144.339 78.5426 144.344 78.5052C144.36 78.3977 144.372 78.2894 144.386 78.1817C144.404 78.0444 144.423 77.9074 144.439 77.7696C144.446 77.7111 144.452 77.652 144.458 77.5932C144.484 77.3636 144.507 77.1331 144.527 76.9017C144.533 76.841 144.538 76.78 144.543 76.7191C144.55 76.6379 144.555 76.5561 144.561 76.4749C144.573 76.3163 144.585 76.1577 144.595 75.9983C144.598 75.9502 144.601 75.9023 144.603 75.8542C144.615 75.6475 144.622 75.4399 144.63 75.2324C144.633 75.1561 144.638 75.0804 144.64 75.0038C144.64 74.9997 144.64 74.9956 144.64 74.9915C144.649 74.688 144.653 74.3831 144.653 74.0774V70.7322C142.739 67.8873 140.801 65.5987 139.05 64.5982Z" fill="#D9D4D4"/>
<path d="M114.902 100.006C113.803 100.006 112.912 99.0883 112.912 97.9555V95.2214C112.912 94.0885 113.803 93.1706 114.902 93.1706C116.002 93.1706 116.893 94.0885 116.893 95.2214V97.9555C116.893 99.0883 116.002 100.006 114.902 100.006Z" fill="#19303F"/>
<path d="M121.521 92.3028C121.145 92.3028 120.771 92.1928 120.446 91.9779L114.902 88.3103L109.359 91.9776C108.833 92.3257 108.18 92.3987 107.594 92.1759L100.546 89.494C99.5153 89.1016 98.988 87.9223 99.3689 86.8597C99.7499 85.7971 100.894 85.2544 101.925 85.6465L108.042 87.9745L113.826 84.1478C114.482 83.7141 115.322 83.7147 115.977 84.1475L121.762 87.9745L127.879 85.6465C128.91 85.2541 130.054 85.7974 130.435 86.8597C130.816 87.9223 130.289 89.1016 129.257 89.494L122.21 92.1759C121.987 92.2606 121.754 92.3028 121.521 92.3028Z" fill="#19303F"/>
<path d="M136.529 71.6613C136.02 71.6613 135.51 71.4611 135.122 71.0608C132.24 68.0913 127.55 68.0913 124.668 71.0608C123.891 71.8614 122.631 71.8614 121.854 71.0608C121.076 70.2597 121.076 68.9614 121.854 68.1608C126.288 63.5922 133.502 63.5922 137.936 68.1608C138.714 68.9619 138.714 70.2602 137.936 71.0608C137.548 71.4611 137.038 71.6613 136.529 71.6613Z" fill="#19303F"/>
<path d="M106.543 71.6621C106.034 71.6621 105.525 71.4619 105.136 71.0616C102.255 68.0921 97.5648 68.0921 94.6826 71.0616C93.9053 71.8622 92.645 71.8625 91.8683 71.0613C91.091 70.2604 91.091 68.9619 91.8683 68.1615C96.3022 63.593 103.517 63.593 107.951 68.1615C108.728 68.9624 108.728 70.261 107.951 71.0613C107.562 71.4619 107.053 71.6621 106.543 71.6621Z" fill="#19303F"/>
<path d="M159.012 122.003C159.005 118.274 156.06 115.245 152.442 115.245C152.438 115.245 152.434 115.245 152.43 115.245L115.594 115.31C113.839 115.313 112.19 116.02 110.952 117.301C109.713 118.582 109.032 120.283 109.035 122.091L109.08 148.952C109.081 149.496 109.291 150.018 109.665 150.401C110.038 150.785 110.544 151 111.07 151C111.071 151 111.073 151 111.074 151L157.07 150.918C157.597 150.917 158.104 150.7 158.476 150.315C158.849 149.93 159.058 149.408 159.057 148.864L159.012 122.003Z" fill="#F0EEEE"/>
<path d="M159.012 122.003C159.005 118.274 156.06 115.245 152.442 115.245C152.438 115.245 152.434 115.245 152.43 115.245L146.311 115.256C149.761 115.45 152.512 118.399 152.518 122.003L152.563 148.864C152.564 149.408 152.355 149.929 151.982 150.315C151.61 150.7 151.104 150.917 150.576 150.918L110.866 150.989C110.934 150.996 111.002 151 111.07 151C111.071 151 111.073 151 111.074 151L157.07 150.918C157.597 150.917 158.104 150.7 158.476 150.315C158.849 149.93 159.058 149.408 159.057 148.864L159.012 122.003Z" fill="#D9D4D4"/>
<path d="M132.467 140.615C131.957 140.615 131.448 140.415 131.059 140.014C130.282 139.213 130.282 137.915 131.059 137.114L132.943 135.173H130.344C129.539 135.173 128.813 134.673 128.505 133.907C128.197 133.14 128.367 132.259 128.936 131.672L134.218 126.23C134.996 125.429 136.256 125.429 137.033 126.23C137.81 127.031 137.81 128.329 137.033 129.13L135.148 131.071H137.748C138.553 131.071 139.279 131.571 139.587 132.337C139.895 133.104 139.725 133.986 139.155 134.572L133.874 140.014C133.485 140.415 132.976 140.615 132.467 140.615Z" fill="#484655"/>
</g>
<defs>
<clipPath id="clip0">
<rect width="135.872" height="140" fill="white" transform="translate(46.9665 11)"/>
</clipPath>
</defs>
</svg>
