<svg width="70" height="70" viewBox="0 0 70 70" fill="none" xmlns="http://www.w3.org/2000/svg">
<rect opacity="0.15" width="70" height="70" rx="35" fill="#1868C1"/>
<rect x="9" y="9" width="52" height="52" rx="26" fill="#1868C1"/>
<mask id="mask0" mask-type="alpha" maskUnits="userSpaceOnUse" x="9" y="9" width="52" height="53">
<rect x="9" y="9.00049" width="52" height="52" rx="26" fill="#605CA8"/>
</mask>
<g mask="url(#mask0)">
<path d="M44.1383 39.2041C44.1444 39.204 44.1505 39.204 44.1566 39.204H47.4927H49.2998H52.775C54.6175 39.204 56.111 40.6669 56.111 42.4714V50.0552C56.111 50.8949 55.416 51.5756 54.5587 51.5756C54.3739 51.5756 54.304 51.5929 53.9263 51.4822C53.6252 51.394 53.3805 51.1528 53.192 50.7587V51.9711V61.8035C53.192 62.8561 52.3207 63.7095 51.2459 63.7095C50.1711 63.7095 49.2998 62.8561 49.2998 61.8035V52.9543H47.4927V61.8035C47.4927 62.8561 46.6213 63.7095 45.5465 63.7095C44.4718 63.7095 43.6004 62.8561 43.6004 61.8035V53.3337C44.4616 52.9212 45.0554 52.0537 45.0554 51.0491V41.9489C45.0554 40.9215 44.7148 39.9724 44.1383 39.2041ZM48.0847 37.4555C45.7816 37.4555 43.9146 35.627 43.9146 33.3713C43.9146 31.1156 45.7816 29.287 48.0847 29.287C50.3879 29.287 52.2549 31.1156 52.2549 33.3713C52.2549 35.627 50.3879 37.4555 48.0847 37.4555ZM25.9868 39.2069C25.4117 39.9748 25.0718 40.9228 25.0718 41.9489V51.0491C25.0718 52.0035 25.6078 52.8343 26.3997 53.2686V61.8035C26.3997 62.8561 25.5284 63.7095 24.4536 63.7095C23.3788 63.7095 22.5075 62.8561 22.5075 61.8035V52.9543H20.7005V61.8035C20.7005 62.8561 19.8292 63.7095 18.7544 63.7095C17.6796 63.7095 16.8083 62.8561 16.8083 61.8035V51.9711V50.7587C16.6199 51.1528 16.375 51.394 16.0739 51.4822C15.6962 51.5929 15.6263 51.5756 15.4415 51.5756C14.5842 51.5756 13.8892 50.8949 13.8892 50.0552V42.4714C13.8892 40.6669 15.3829 39.204 17.2254 39.204H20.7005H22.5075H25.8437C25.8917 39.204 25.9394 39.205 25.9868 39.2069ZM21.9156 37.4555C19.6125 37.4555 17.7453 35.627 17.7453 33.3713C17.7453 31.1156 19.6125 29.287 21.9156 29.287C24.2187 29.287 26.0858 31.1156 26.0858 33.3713C26.0858 35.627 24.2187 37.4555 21.9156 37.4555ZM29.3361 51.6121C29.0688 52.0851 28.7719 52.3744 28.4455 52.4802C27.747 52.7066 27.4033 52.605 26.9599 52.3823C26.3707 52.0864 26.0002 51.4925 26.0002 50.844V41.668C26.0002 39.5027 27.7924 37.7474 30.0032 37.7474H34.0063H36.1747H40.3446C42.5554 37.7474 44.3477 39.5027 44.3477 41.668V50.768C44.3477 51.7755 43.5137 52.5922 42.485 52.5922C42.2633 52.5922 42.1794 52.613 41.7262 52.4802C41.3648 52.3743 41.0711 52.085 40.8449 51.6121V53.0669V64.8649C40.8449 66.128 39.7996 67.1519 38.5099 67.1519C37.2202 67.1519 36.1747 66.128 36.1747 64.8649V54.2466H34.0063V64.8649C34.0063 66.128 32.9609 67.1519 31.6713 67.1519C30.3816 67.1519 29.3361 66.128 29.3361 64.8649V53.0744V51.6121ZM34.7168 35.6494C31.9532 35.6494 29.7128 33.4553 29.7128 30.7486C29.7128 28.042 31.9532 25.8479 34.7168 25.8479C37.4803 25.8479 39.7206 28.042 39.7206 30.7486C39.7206 33.4553 37.4803 35.6494 34.7168 35.6494ZM22.0128 49.1746L23.1919 46.9189L22.4015 42.8693L22.9799 41.5096C22.9963 41.4321 22.946 41.3561 22.8674 41.3399C22.8576 41.3379 22.8475 41.3369 22.8376 41.3369H20.9303C20.8501 41.3369 20.785 41.4011 20.785 41.4803C20.785 41.4901 20.7859 41.5 20.788 41.5096L21.3658 42.8693L20.5755 46.9189L21.7545 49.1746C21.7913 49.245 21.8789 49.2726 21.9502 49.2363C21.9771 49.2226 21.999 49.2011 22.0128 49.1746ZM48.4674 49.1746L49.6464 46.9189L48.8561 42.8693L49.4345 41.5096C49.4509 41.4321 49.4005 41.3561 49.3219 41.3399C49.3122 41.3379 49.3021 41.3369 49.2921 41.3369H47.3849C47.3046 41.3369 47.2396 41.4011 47.2396 41.4803C47.2396 41.4901 47.2405 41.5 47.2425 41.5096L47.8204 42.8693L47.03 46.9189L48.2091 49.1746C48.2459 49.245 48.3335 49.2726 48.4048 49.2363C48.4317 49.2226 48.4536 49.2011 48.4674 49.1746ZM35.2831 50.353L36.8552 47.3454L35.8014 41.946L36.5726 40.1331C36.5945 40.0297 36.5273 39.9283 36.4226 39.9068C36.4095 39.9041 36.3961 39.9027 36.3828 39.9027H33.8398C33.7328 39.9027 33.6459 39.9883 33.6459 40.0939C33.6459 40.107 33.6473 40.1201 33.65 40.1329L34.4205 41.946L33.3667 47.3454L34.9388 50.353C34.9878 50.4468 35.1047 50.4837 35.1998 50.4352C35.2356 50.417 35.2647 50.3883 35.2831 50.353Z" fill="white"/>
</g>
</svg>
