<svg width="50" height="51" viewBox="0 0 50 51" fill="none" xmlns="http://www.w3.org/2000/svg">
<path d="M44.079 18.3416C45.079 22.8208 41.9957 26.8625 37.8498 27.4458V40.3833C37.8498 42.7583 35.9331 44.675 33.5581 44.675H16.4332C14.0582 44.675 12.1414 42.7583 12.1414 40.3833V27.4458C7.99561 26.8625 4.91229 22.8416 5.91229 18.3416C6.55813 15.4666 8.97483 13.1541 11.8707 12.6541C13.5582 12.3625 15.1831 12.6333 16.5373 13.3416C17.1831 9.2583 20.7248 6.1333 24.9956 6.1333C29.2665 6.1333 32.8081 9.2583 33.454 13.3416C34.8081 12.6333 36.4331 12.3833 38.1206 12.6541C41.0164 13.1541 43.4331 15.4666 44.079 18.3416Z" stroke="#C2C2C2" stroke-width="1.5" stroke-linecap="round" stroke-linejoin="round"/>
<path d="M16.7044 16.8209C16.5377 16.1334 16.4336 15.425 16.4336 14.675C16.4336 9.94588 20.2669 6.11255 24.9961 6.11255C29.7252 6.11255 33.5585 9.94588 33.5585 14.675C33.5585 15.4042 33.4753 16.1334 33.2878 16.8209" stroke="#C2C2C2" stroke-width="1.5" stroke-linecap="round" stroke-linejoin="round"/>
<path d="M12.1406 38.2375H37.849" stroke="#C2C2C2" stroke-width="1.5" stroke-linecap="round" stroke-linejoin="round"/>
<path d="M24.9961 27.5293V31.8001" stroke="#C2C2C2" stroke-width="1.5" stroke-linecap="round" stroke-linejoin="round"/>
<path d="M31.4102 29.675V31.8" stroke="#C2C2C2" stroke-width="1.5" stroke-linecap="round" stroke-linejoin="round"/>
<path d="M18.582 29.675V31.8" stroke="#C2C2C2" stroke-width="1.5" stroke-linecap="round" stroke-linejoin="round"/>
</svg>
