<svg width="50" height="51" viewBox="0 0 50 51" fill="none" xmlns="http://www.w3.org/2000/svg">
<path d="M29.2903 35.467C28.7695 35.7379 28.207 35.9462 27.582 36.0295C27.332 36.0712 27.0612 36.092 26.8112 36.092H18.582" stroke="#C2C2C2" stroke-width="1.5" stroke-linecap="round" stroke-linejoin="round"/>
<path d="M10.0202 36.071C7.62434 35.9252 5.72852 34.196 5.72852 32.1127V14.3419C5.72852 12.1544 7.81185 10.3835 10.3535 10.3835H26.791C29.3327 10.3835 31.416 12.1544 31.416 14.3419V31.7794" stroke="#C2C2C2" stroke-width="1.5" stroke-linecap="round" stroke-linejoin="round"/>
<path d="M31.416 32.3001V19.4459C31.416 17.9876 32.8535 16.8209 34.6244 16.8209H36.3536C37.2911 16.8209 38.166 17.1543 38.791 17.7376L43.4785 22.2168C43.9785 22.6959 44.2494 23.3001 44.2494 23.9251V33.4668C44.2494 34.9251 42.8119 36.0918 41.0411 36.0918H37.8327" stroke="#C2C2C2" stroke-width="1.5" stroke-linecap="round" stroke-linejoin="round"/>
<path d="M43.7493 23.8209H32.291" stroke="#C2C2C2" stroke-width="1.5" stroke-linecap="round" stroke-linejoin="round"/>
<path d="M14.2936 40.3836C16.6638 40.3836 18.5853 38.4622 18.5853 36.092C18.5853 33.7217 16.6638 31.8003 14.2936 31.8003C11.9234 31.8003 10.002 33.7217 10.002 36.092C10.002 38.4622 11.9234 40.3836 14.2936 40.3836Z" stroke="#C2C2C2" stroke-width="1.5" stroke-linecap="round" stroke-linejoin="round"/>
<path d="M33.5631 40.3836C35.9334 40.3836 37.8549 38.4622 37.8549 36.092C37.8549 33.7217 35.9334 31.8003 33.5631 31.8003C31.1929 31.8003 29.2715 33.7217 29.2715 36.092C29.2715 38.4622 31.1929 40.3836 33.5631 40.3836Z" stroke="#C2C2C2" stroke-width="1.5" stroke-linecap="round" stroke-linejoin="round"/>
</svg>
