<svg width="70" height="70" viewBox="0 0 70 70" fill="none" xmlns="http://www.w3.org/2000/svg">
<rect opacity="0.15" width="70" height="70" rx="35" fill="#605CA8"/>
<rect x="9" y="9" width="52" height="52" rx="26" fill="#605CA8"/>
<mask id="mask0" mask-type="alpha" maskUnits="userSpaceOnUse" x="9" y="9" width="52" height="53">
<rect x="8.99994" y="9.00049" width="52" height="52" rx="26" fill="#605CA8"/>
</mask>
<g mask="url(#mask0)">
<path d="M51.2277 59.8227C40.1669 62.3445 29.1061 62.3445 18.0452 59.8227C16.6096 59.4954 15.7334 58.0459 16.0732 56.6131C16.9861 52.7637 18.5264 49.9112 20.9067 49.1604C21.443 48.9995 27.5839 46.8381 27.5839 46.8381L32.2659 54.1107L32.6253 47.9698H36.653L37.007 54.1107L41.6891 46.8381C41.6891 46.8381 47.83 48.9995 48.3663 49.1604C50.7466 49.9112 52.2869 52.7637 53.1998 56.6131C53.5396 58.0459 52.6634 59.4954 51.2277 59.8227Z" fill="white"/>
<path d="M45.3295 36.0083C45.5205 36.0083 45.6867 35.8685 45.7121 35.6792C45.7769 35.1945 45.81 34.7004 45.81 34.198C45.81 33.6955 45.7769 33.2014 45.7121 32.7167C45.6867 32.5274 45.5205 32.3876 45.3295 32.3876H43.392C43.1601 31.2629 42.7165 30.2163 42.1055 29.2896L43.4775 27.9177C43.6126 27.7825 43.6307 27.5655 43.5147 27.4137C42.9129 26.6262 42.2084 25.9217 41.421 25.3199C41.2691 25.2039 41.0521 25.222 40.917 25.3571L39.545 26.7291C38.6183 26.1181 37.5717 25.6746 36.447 25.4426V23.5051C36.447 23.3141 36.3072 23.1479 36.1179 23.1226C35.6332 23.0577 35.1391 23.0247 34.6367 23.0247C34.1343 23.0247 33.6401 23.0577 33.1554 23.1226C32.9661 23.1479 32.8263 23.3141 32.8263 23.5051V25.4426C31.7016 25.6746 30.655 26.1181 29.7283 26.7291L28.3564 25.3571C28.2213 25.222 28.0042 25.2039 27.8524 25.3199C27.0649 25.9217 26.3604 26.6262 25.7586 27.4137C25.6426 27.5655 25.6607 27.7825 25.7959 27.9177L27.1678 29.2896C26.5568 30.2163 26.1133 31.2629 25.8813 32.3876H23.9439C23.7528 32.3876 23.5866 32.5274 23.5613 32.7167C23.4964 33.2014 23.4634 33.6955 23.4634 34.198C23.4634 34.7004 23.4964 35.1945 23.5613 35.6792C23.5866 35.8685 23.7528 36.0083 23.9439 36.0083H25.8813C26.1133 37.133 26.5568 38.1796 27.1678 39.1063L25.7959 40.4782C25.6607 40.6134 25.6426 40.8304 25.7586 40.9822C26.3604 41.7697 27.0649 42.4742 27.8524 43.076C28.0042 43.192 28.2213 43.1739 28.3564 43.0388L29.7283 41.6668C30.655 42.2778 31.7016 42.7213 32.8263 42.9533V44.8908C32.8263 45.0818 32.9661 45.248 33.1554 45.2733C33.6401 45.3382 34.1343 45.3713 34.6367 45.3713C35.1391 45.3713 35.6332 45.3382 36.1179 45.2733C36.3072 45.248 36.447 45.0818 36.447 44.8908V42.9533C37.5717 42.7213 38.6183 42.2778 39.545 41.6668L40.917 43.0388C41.0521 43.1739 41.2691 43.192 41.421 43.076C42.2084 42.4742 42.9129 41.7697 43.5147 40.9822C43.6307 40.8304 43.6126 40.6134 43.4775 40.4782L42.1055 39.1063C42.7165 38.1796 43.1601 37.133 43.392 36.0083H45.3295ZM34.6367 40.3311C31.2486 40.3311 28.5035 37.586 28.5035 34.198C28.5035 30.8099 31.2486 28.0648 34.6367 28.0648C38.0247 28.0648 40.7698 30.8099 40.7698 34.198C40.7698 37.586 38.0247 40.3311 34.6367 40.3311Z" fill="white"/>
</g>
</svg>
