<svg width="70" height="70" viewBox="0 0 70 70" fill="none" xmlns="http://www.w3.org/2000/svg">
<rect opacity="0.15" width="70" height="70" rx="35" fill="#4CAF50"/>
<rect x="9" y="9" width="52" height="52" rx="26" fill="#4CAF50"/>
<mask id="mask0" mask-type="alpha" maskUnits="userSpaceOnUse" x="9" y="9" width="52" height="53">
<rect x="8.99994" y="9.00049" width="52" height="52" rx="26" fill="#605CA8"/>
</mask>
<g mask="url(#mask0)">
<path fill-rule="evenodd" clip-rule="evenodd" d="M29.1676 41.6261C31.2881 41.6523 33.0153 43.4012 33.0153 45.5365V52.686C33.0153 54.1814 32.1688 55.4868 30.9325 56.1442L29.7061 68.0456C29.5961 69.1156 28.83 70.0008 27.7588 70.0008H23.7397C22.6685 70.0008 21.9018 69.1156 21.7918 68.0456L20.5654 56.1442C19.3297 55.4862 18.4826 54.1814 18.4826 52.686V45.5365C18.4826 43.4012 20.2099 41.6523 22.3303 41.6261L24.1288 47.1633H24.6945L25.317 44.2625C24.9279 44.2085 24.6262 43.8725 24.6262 43.468C24.6262 43.0269 24.9858 42.6659 25.4253 42.6659H26.0721C26.5116 42.6659 26.8712 43.0269 26.8712 43.468C26.8712 43.8725 26.5701 44.2085 26.1809 44.2625L26.8034 47.1633H27.3691L29.1676 41.6261ZM39.4902 33.0708H40.5712C42.0304 33.0708 43.2244 34.2698 43.2244 35.7344C41.2024 36.9003 38.9065 36.9346 36.8364 35.7344C36.8364 34.2698 38.0304 33.0708 39.4902 33.0708ZM43.7612 33.5909H44.6836C45.9291 33.5909 46.9482 34.6144 46.9482 35.8646C45.6853 36.5923 44.2968 36.8033 42.9511 36.4627C43.2244 36.3325 43.4797 36.1849 43.7415 36.0343C43.7415 35.1265 43.617 34.4471 43.0188 33.7176C43.2516 33.6357 43.5012 33.5909 43.7612 33.5909ZM43.9575 29.9816C45.2285 29.3068 45.6708 30.371 45.6454 30.6983L45.5886 31.4253C46.0188 31.3097 45.6795 31.9356 45.573 32.0897C45.573 32.0897 45.207 33.0644 44.7994 33.1736C44.5278 33.2469 43.899 33.2469 43.6274 33.1736C43.2198 33.0644 42.8538 32.0897 42.8538 32.0897C42.7473 31.9356 42.4456 31.4207 42.8422 31.4207C42.8254 31.1795 42.7774 30.915 42.7751 30.6779C42.7675 29.977 43.4728 29.8142 43.9575 29.9816ZM35.3778 33.5909H36.3002C36.5596 33.5909 36.8092 33.6357 37.042 33.7176C36.445 34.4465 36.3199 35.1253 36.3199 36.0326C36.5805 36.1837 36.8347 36.3313 37.1068 36.4615C35.7832 36.7969 34.3969 36.6092 33.1126 35.8646C33.1126 34.6144 34.1317 33.5909 35.3778 33.5909ZM35.5741 29.9816C36.8451 29.3068 37.2875 30.371 37.262 30.6983L37.2059 31.4253C37.6355 31.3097 37.2962 31.9356 37.1896 32.0897C37.1896 32.0897 36.8237 33.0644 36.416 33.1736C36.1445 33.2469 35.5156 33.2469 35.2446 33.1736C34.8364 33.0644 34.4705 32.0897 34.4705 32.0897C34.3633 31.9356 34.0622 31.4207 34.4589 31.4207C34.4427 31.1795 34.394 30.915 34.3917 30.6779C34.3842 29.977 35.0895 29.8142 35.5741 29.9816ZM39.7206 28.8413C41.2099 28.0514 41.7276 29.2975 41.698 29.6817L41.632 30.5332C42.1358 30.3978 41.738 31.1313 41.6129 31.3114C41.6129 31.3114 41.185 32.4535 40.7067 32.582C40.3883 32.6674 39.6523 32.6674 39.3338 32.582C38.8555 32.4535 38.4276 31.3114 38.4276 31.3114C38.302 31.1313 37.9488 30.528 38.4137 30.528C38.394 30.2455 38.3379 29.9357 38.335 29.6579C38.3257 28.8366 39.1526 28.646 39.7206 28.8413ZM35.837 24.5781H43.6529C54.1387 24.5781 54.1387 40.8973 43.6529 40.8973H42.2638L36.837 45.5877C36.2568 46.0922 35.3657 45.6632 35.3662 44.9135L35.3633 40.8834C33.7432 40.7863 32.2516 40.1935 31.0368 39.256C31.3917 38.7666 31.6801 38.2261 31.8909 37.6478C32.958 38.5568 34.3367 39.1072 35.837 39.1072H36.2551C36.7478 39.1072 37.1468 39.5082 37.1468 40.0023V42.9647L41.3049 39.3711C41.4664 39.2083 41.6899 39.1072 41.9372 39.1072H43.6529C51.7785 39.1072 51.778 26.3682 43.6529 26.3682H35.837C33.2418 26.3682 30.9279 28.0346 30.0675 30.4774C29.6117 30.074 29.0987 29.7334 28.5434 29.469C29.7681 26.5269 32.6424 24.5781 35.837 24.5781ZM25.749 30.0339C28.7015 30.0339 31.0952 32.4372 31.0952 35.4002C31.0952 38.3638 28.7015 40.7665 25.749 40.7665C22.7965 40.7665 20.4027 38.3638 20.4027 35.4002C20.4027 32.4372 22.7965 30.0339 25.749 30.0339Z" fill="white"/>
</g>
</svg>
