<svg width="21" height="21" viewBox="0 0 21 21" fill="none" xmlns="http://www.w3.org/2000/svg">
<path d="M10.5 1.8766C13.3149 1.8766 13.6277 1.8766 14.7447 1.92128C15.7723 1.96596 16.3085 2.14468 16.7106 2.27872C17.2021 2.45745 17.5596 2.68085 17.917 3.08298C18.2745 3.44043 18.4979 3.79787 18.7213 4.28936C18.8553 4.64681 19.034 5.22766 19.0787 6.25532C19.1234 7.37234 19.1234 7.68511 19.1234 10.5C19.1234 13.3149 19.1234 13.6277 19.0787 14.7447C19.034 15.7723 18.8553 16.3085 18.7213 16.7106C18.5426 17.2021 18.3191 17.5596 17.917 17.917C17.5596 18.2745 17.2021 18.4979 16.7106 18.7213C16.3532 18.8553 15.7723 19.034 14.7447 19.0787C13.6277 19.1234 13.3149 19.1234 10.5 19.1234C7.68511 19.1234 7.37234 19.1234 6.25532 19.0787C5.22766 19.034 4.69149 18.8553 4.28936 18.7213C3.79787 18.5426 3.44043 18.3191 3.08298 17.917C2.72553 17.5596 2.50213 17.2021 2.27872 16.7106C2.14468 16.3532 1.96596 15.7723 1.92128 14.7447C1.8766 13.6277 1.8766 13.3149 1.8766 10.5C1.8766 7.68511 1.8766 7.37234 1.92128 6.25532C1.96596 5.22766 2.14468 4.69149 2.27872 4.28936C2.45745 3.79787 2.68085 3.44043 3.08298 3.08298C3.44043 2.72553 3.79787 2.50213 4.28936 2.27872C4.64681 2.14468 5.22766 1.96596 6.25532 1.92128C7.37234 1.92128 7.68511 1.8766 10.5 1.8766ZM10.5 0C7.64043 0 7.28298 0 6.16596 0.0446808C5.04894 0.0893617 4.28936 0.268085 3.61915 0.53617C2.94894 0.804255 2.36809 1.1617 1.74255 1.74255C1.1617 2.36809 0.804255 2.94894 0.53617 3.61915C0.268085 4.28936 0.0893617 5.04894 0.0446808 6.16596C0 7.28298 0 7.64043 0 10.5C0 13.3596 0 13.717 0.0446808 14.834C0.0893617 15.9511 0.268085 16.7106 0.53617 17.3809C0.804255 18.0511 1.1617 18.6766 1.74255 19.2574C2.3234 19.8383 2.90426 20.1957 3.61915 20.4638C4.28936 20.7319 5.04894 20.9106 6.16596 20.9553C7.28298 21 7.64043 21 10.5 21C13.3596 21 13.717 21 14.834 20.9553C15.9511 20.9106 16.7106 20.7319 17.3809 20.4638C18.0511 20.1957 18.6766 19.8383 19.2574 19.2574C19.8383 18.6766 20.1957 18.0957 20.4638 17.3809C20.7319 16.7106 20.9106 15.9511 20.9553 14.834C21 13.717 21 13.3596 21 10.5C21 7.64043 21 7.28298 20.9553 6.16596C20.9106 5.04894 20.7319 4.28936 20.4638 3.61915C20.1957 2.94894 19.8383 2.3234 19.2574 1.74255C18.6766 1.1617 18.0957 0.804255 17.3809 0.53617C16.7106 0.268085 15.9511 0.0893617 14.834 0.0446808C13.717 0 13.3596 0 10.5 0Z" fill="#637282"/>
<path d="M10.5 5.09363C7.50639 5.09363 5.09363 7.50639 5.09363 10.5C5.09363 13.4936 7.50639 15.9064 10.5 15.9064C13.4936 15.9064 15.9064 13.4936 15.9064 10.5C15.9064 7.50639 13.4936 5.09363 10.5 5.09363ZM10.5 14.0298C8.57873 14.0298 7.0149 12.466 7.0149 10.5447C7.0149 8.62342 8.57873 7.05959 10.5 7.05959C12.4213 7.05959 13.9851 8.62342 13.9851 10.5447C13.9851 12.466 12.4213 14.0298 10.5 14.0298Z" fill="#637282"/>
<path d="M17.3808 4.91486C17.3808 5.62975 16.7999 6.16592 16.1297 6.16592C15.4148 6.16592 14.8787 5.58507 14.8787 4.91486C14.8787 4.19996 15.4595 3.66379 16.1297 3.66379C16.7999 3.61911 17.3808 4.19996 17.3808 4.91486Z" fill="#637282"/>
</svg>
