<svg width="24" height="17" viewBox="0 0 24 17" fill="none" xmlns="http://www.w3.org/2000/svg">
<path d="M22.8074 13.1848C22.8074 13.1848 22.5837 14.8304 21.8918 15.5537C21.0152 16.5017 20.0319 16.5095 19.5845 16.5637C16.3564 16.804 11.5208 16.804 11.5208 16.804C11.5208 16.804 6.68252 16.804 3.45701 16.5637C3.007 16.5095 2.02634 16.5043 1.14713 15.5537C0.457813 14.8304 0.231508 13.1848 0.231508 13.1848C0.0869865 11.8981 0.00971373 10.6047 0 9.30998V7.50172C0.0097696 6.20699 0.0870422 4.91364 0.231508 3.62686C0.231508 3.62686 0.457813 1.98134 1.14713 1.25803C2.02634 0.307398 3.17868 0.338394 3.68852 0.240231C5.53278 0.0568218 11.5234 -9.53674e-06 11.5234 -9.53674e-06C11.5234 -9.53674e-06 16.3642 -9.53674e-06 19.5871 0.258314C20.0371 0.315145 21.0178 0.31773 21.8944 1.27094C22.5837 1.99425 22.81 3.63977 22.81 3.63977C22.9547 4.92654 23.032 6.2199 23.0415 7.51463V9.3229C23.0306 10.6134 22.9525 11.9024 22.8074 13.1848ZM15.3628 8.65642L9.13806 5.31371V12.0301L11.9448 10.5138L15.3628 8.65642Z" fill="#637282"/>
</svg>
