<svg width="85" height="260" viewBox="0 0 85 260" fill="none" xmlns="http://www.w3.org/2000/svg">
<path d="M-79.4418 72.3111C-52.6966 81.2598 -38.3157 69.3815 -34.4684 62.3237C-26.5085 69.1151 -14.9667 68.7157 -5.81283 64.3212C3.34104 59.9268 16.8728 44.746 -2.62888 27.5677C-18.2303 13.8251 -37.5197 19.4447 -45.2143 23.9723C-48.7962 11.9874 -77.4518 9.98997 -90.5856 16.7814C-103.719 23.5728 -112.873 61.1252 -79.4418 72.3111Z" fill="#B0CB89" stroke="black" stroke-width="1.09957"/>
<path d="M14.6456 203.802C5.26831 204.25 -10.921 195.893 -12.3924 183.569C-29.3142 181.178 -26.9294 166.051 -21.1883 159.523C-18.0625 141.17 -0.535799 142.177 7.83682 144.975C29.2707 131.994 40.5831 144.789 43.56 152.809C62.5379 152.249 68.17 175.108 57.6859 185.408C49.1346 193.81 42.665 192.613 37.2694 190.375C35.2227 194.851 24.023 203.355 14.6456 203.802Z" fill="#FED15C" stroke="black" stroke-width="1.09957"/>
<path d="M-14.063 17.0767C-21.3279 14.9031 -23.4073 19.5349 -23.5389 22.1225C-27.361 26.6172 -24.855 30.9203 -21.5648 31.826C-16.8268 37.4152 -10.9044 34.9312 -8.53538 32.9905C0.624689 45.1004 11.0745 39.5888 15.1545 35.3193C23.0511 39.977 43.1874 39.2007 40.0288 19.7937C37.5019 4.26819 23.1827 6.33825 16.3389 9.31397C14.3648 6.07948 7.8106 -0.0789934 -2.61292 1.16305C-13.0364 2.4051 -14.5894 12.2897 -14.063 17.0767Z" fill="#FFA9A9" stroke="black" stroke-width="1.09957"/>
<path d="M-91.1565 208.993C-106.515 204.369 -110.912 214.222 -111.19 219.727C-119.27 229.288 -113.972 238.442 -107.016 240.369C-96.9995 252.258 -84.4787 246.974 -79.4703 242.846C-60.1048 268.607 -38.0124 256.882 -29.3869 247.8C-12.6925 257.708 29.8784 256.057 23.2006 214.773C17.8584 181.746 -12.4142 186.149 -26.8828 192.479C-31.0564 185.599 -44.9128 172.498 -66.9495 175.14C-88.9862 177.782 -92.2694 198.809 -91.1565 208.993Z" fill="#EC88AE" stroke="black" stroke-width="1.09957"/>
<path d="M-31.719 50.5895C-53.4976 47.9215 -63.3938 64.1856 -65.6196 72.6511C-92.7402 61.7742 -102.431 81.4587 -103.886 92.6605C-109.023 86.7603 -135.989 89.5822 -130.853 114.209C-126.744 133.911 -107.739 132.337 -98.7499 129.088C-57.0417 151.868 -24.8703 139.264 -13.9981 130.114C5.26361 134.219 18.3616 129.601 21.1867 107.796C23.4467 90.3517 7.91745 82.3993 -0.129684 80.6036C-1.58501 71.7105 -9.94033 53.2574 -31.719 50.5895Z" fill="#B0C3E4" stroke="black" stroke-width="1.09957"/>
<path d="M64.8683 47.5585C44.6898 36.9522 28.6099 53.0176 23.0924 62.376C17.0493 57.9568 2.59847 53.4855 -6.86024 70.9547C-16.319 88.4238 -0.817175 97.9902 8.11605 100.59C13.1607 123.674 32.8138 119.047 42.0098 113.848C48.8411 121.126 65.6566 132.097 78.2682 117.747C90.8798 103.397 80.8956 89.4116 74.3271 84.2125C79.5819 76.4138 85.0469 58.1647 64.8683 47.5585Z" fill="#FFAB49" stroke="black" stroke-width="1.09957"/>
<path d="M-32.3496 128.464C-46.5224 119.592 -54.9528 127.642 -57.3964 132.776C-61.6726 131.339 -71.5692 131.175 -76.9451 142.017C-82.321 152.86 -71.0397 159.678 -64.7271 161.732C-48.1107 177.996 -34.9968 171.794 -30.5169 166.66C-13.4118 173.56 -5.47012 166.25 -3.63742 161.732C9.55795 164.196 15.7076 154.134 17.1331 148.794C19.0879 132.53 4.10061 130.107 -3.63742 130.928C-13.4118 120.085 -26.8515 124.767 -32.3496 128.464Z" fill="#FFD2B1" stroke="black" stroke-width="1.09957"/>
</svg>
