<svg width="69" height="257" viewBox="0 0 69 257" fill="none" xmlns="http://www.w3.org/2000/svg">
<path d="M99.0853 167.166C77.8277 164.562 68.1682 180.437 65.9956 188.7C39.5238 178.084 30.0648 197.297 28.6443 208.231C23.6307 202.472 -2.6907 205.226 2.3229 229.264C6.33378 248.495 24.8841 246.959 33.6579 243.787C74.3683 266.022 105.77 253.719 116.382 244.789C135.183 248.795 147.968 244.288 150.725 223.004C152.931 205.978 137.774 198.215 129.919 196.463C128.498 187.782 120.343 169.771 99.0853 167.166Z" fill="#B0C3E4" stroke="black" stroke-width="1.09957"/>
<path d="M27.3279 2.22317C20.3493 -1.4919 14.7883 4.13534 12.8802 7.41334C10.7902 5.8654 5.79261 4.29925 2.52143 10.4182C-0.749746 16.5371 4.61135 19.888 7.7008 20.7985C9.44543 28.8843 16.2422 27.2635 19.4225 25.4424C21.785 27.9919 27.6005 31.8345 31.962 26.8082C36.3236 21.7819 32.8707 16.8831 30.599 15.062C32.4164 12.3303 34.3064 5.93824 27.3279 2.22317Z" fill="#FFBC97" stroke="black" stroke-width="1.09957"/>
<path d="M78.396 9.14828C58.7002 -1.20427 43.005 14.4768 37.6194 23.6114C31.7209 19.2978 17.6157 14.9336 8.3833 31.9848C-0.849155 49.0361 14.2818 58.3736 23.0013 60.911C27.9253 83.443 47.1083 78.9265 56.0843 73.8517C62.7522 80.9564 79.1654 91.6642 91.4754 77.6578C103.785 63.6514 94.0399 50.0003 87.6285 44.9255C92.7576 37.3133 98.0919 19.5008 78.396 9.14828Z" fill="#B0C3E4" stroke="black" stroke-width="1.09957"/>
<path d="M64.9075 34.0483C51.8824 30.121 48.1542 38.49 47.9182 43.1654C41.0657 51.2866 45.5586 59.0618 51.4577 60.6983C59.9523 70.7972 70.5706 66.3088 74.8179 62.8022C91.2409 84.6832 109.976 74.7245 117.291 67.0101C131.449 75.4259 167.551 74.0232 161.888 38.9576C157.358 10.9052 131.685 14.6455 119.415 20.0222C115.875 14.1779 104.124 3.05041 85.4362 5.29461C66.748 7.53881 63.9637 25.3988 64.9075 34.0483Z" fill="#FFD2B1" stroke="black" stroke-width="1.09957"/>
<path d="M73.2068 141.644C60.5103 142.25 38.5906 130.935 36.5983 114.25C13.6869 111.012 16.9158 90.5321 24.6891 81.6938C28.9213 56.8457 52.6517 58.2094 63.9879 61.9972C93.0086 44.4217 108.325 61.7447 112.356 72.6031C138.051 71.8456 145.677 102.794 131.482 116.74C119.904 128.115 111.144 126.494 103.838 123.464C101.067 129.525 85.9034 141.038 73.2068 141.644Z" fill="#FFCE4C" stroke="black" stroke-width="1.09957"/>
</svg>
