<svg width="493" height="507" viewBox="0 0 493 507" fill="none" xmlns="http://www.w3.org/2000/svg">
<path d="M141.76 96.9824C141.76 107.839 137.345 116.684 120.457 119.901C103.57 123.118 91.9169 123.491 91.1128 135.173C90.6389 142.109 95.4782 159.721 87.9249 163.799C85.4621 165.135 82.5399 165.236 79.7468 165.508C61.4378 167.411 45.3977 179.459 34.4698 194.279C13.0877 223.286 2.48285 262.625 1.82229 298.267V298.862C1.55001 316.889 4.01941 334.853 9.14589 352.138C42.619 464.864 177.495 506.185 282.991 505.072C326.703 504.569 371.197 494.582 408.734 471.606C444.024 449.966 462.951 404.179 470.116 364.969C476.988 327.41 474.087 289.737 471.423 251.948C471.093 247.253 470.834 242.219 473.225 238.163C477.375 231.148 488.138 229.288 490.536 221.498C494.126 209.845 477.512 200.87 470.167 195.097" stroke="#1D1D1B" stroke-width="3.6" stroke-linecap="round" stroke-linejoin="round"/>
<path d="M161.326 110.079C169.77 108.391 191.144 105.017 226.025 135.927C227.712 135.359 229.242 90.4198 266.089 85.9395" stroke="#1D1D1B" stroke-width="3.6" stroke-linecap="round" stroke-linejoin="round"/>
<path d="M389.198 149.461C400.628 151.952 417.616 163.383 422.391 189.971C423.511 190.531 441.777 164.122 469.937 169.723" stroke="#1D1D1B" stroke-width="3.6" stroke-linecap="round" stroke-linejoin="round"/>
<path d="M372.317 36.9431C387.036 39.2048 398.165 46.5069 402.696 65.0744C403.256 64.5071 411.75 41.1865 435.329 40.8778" stroke="#1D1D1B" stroke-width="3.6" stroke-linecap="round" stroke-linejoin="round"/>
<path d="M281.742 42.5651C292.426 47.0669 298.055 53.2561 299.742 56.6307C299.742 56.6307 305.601 41.3732 316.522 41.1865" stroke="#1D1D1B" stroke-width="3.6" stroke-linecap="round" stroke-linejoin="round"/>
<path d="M212.878 11.3176C220.906 9.25696 231.668 13.3137 237.858 20.6516C238.978 21.2188 241.756 6.53575 256.698 2.65137" stroke="#1D1D1B" stroke-width="3.6" stroke-linecap="round" stroke-linejoin="round"/>
<path d="M345.543 200.547C331.736 201.53 319.028 204.395 307.683 212.796C295.154 222.058 287.809 235.427 283.321 250.081C270.046 293.463 276.529 343.249 284.628 386.947C286.021 394.45 290.315 405.823 277.154 410.806C263.993 415.789 244.614 413.836 233.844 409.047" stroke="#1D1D1B" stroke-width="3.6" stroke-linecap="round" stroke-linejoin="round"/>
<path d="M94.8105 288.078C108.453 298.64 169.59 325.471 214.458 291.596" stroke="#1D1D1B" stroke-width="3.6" stroke-linecap="round" stroke-linejoin="round"/>
<path d="M306.362 282.772C316.479 289.808 393.463 312.684 413.696 281.896" stroke="#1D1D1B" stroke-width="3.6" stroke-linecap="round" stroke-linejoin="round"/>
<path d="M226.334 453.477C236.307 458.503 264.022 458.754 272.666 452.593" stroke="#1D1D1B" stroke-width="3.6" stroke-linecap="round" stroke-linejoin="round"/>
</svg>
