<svg width="17" height="17" viewBox="0 0 17 17" fill="none" xmlns="http://www.w3.org/2000/svg">
<path fill-rule="evenodd" clip-rule="evenodd" d="M12.6277 4.44368C12.888 4.70402 12.888 5.12613 12.6277 5.38648L4.6277 13.3865C4.36735 13.6468 3.94524 13.6468 3.68489 13.3865C3.42454 13.1261 3.42454 12.704 3.68489 12.4437L11.6849 4.44368C11.9452 4.18333 12.3673 4.18333 12.6277 4.44368Z" fill="#888888"/>
<path fill-rule="evenodd" clip-rule="evenodd" d="M3.68489 4.44368C3.94524 4.18333 4.36735 4.18333 4.6277 4.44368L12.6277 12.4437C12.888 12.704 12.888 13.1261 12.6277 13.3865C12.3673 13.6468 11.9452 13.6468 11.6849 13.3865L3.68489 5.38648C3.42454 5.12613 3.42454 4.70402 3.68489 4.44368Z" fill="#888888"/>
</svg>
