<svg width="39" height="32" viewBox="0 0 39 32" fill="none" xmlns="http://www.w3.org/2000/svg">
<path d="M30.8263 31.7199C27.6023 31.7199 25.1636 30.3973 23.5103 27.7519C22.1049 25.5199 21.4023 22.7919 21.4023 19.5679C21.4023 15.4346 22.4356 11.7146 24.5023 8.40794C26.6516 5.10127 29.8756 2.45593 34.1743 0.471924L35.2903 2.70393C32.7276 3.77859 30.4956 5.47327 28.5943 7.78793C26.7756 10.1026 25.8663 12.4586 25.8663 14.8559C25.8663 15.8479 25.9903 16.7159 26.2383 17.4599C27.5609 16.3853 29.0903 15.8479 30.8263 15.8479C33.0583 15.8479 34.9183 16.5919 36.4063 18.0799C37.977 19.4853 38.7623 21.3866 38.7623 23.7839C38.7623 26.0159 37.977 27.9173 36.4063 29.4879C34.9183 30.9759 33.0583 31.7199 30.8263 31.7199ZM9.74627 31.7199C6.52227 31.7199 4.0836 30.3973 2.43027 27.7519C1.02493 25.5199 0.322266 22.7919 0.322266 19.5679C0.322266 15.4346 1.3556 11.7146 3.42227 8.40794C5.5716 5.10127 8.7956 2.45593 13.0943 0.471924L14.2103 2.70393C11.6476 3.77859 9.4156 5.47327 7.51427 7.78793C5.6956 10.1026 4.78627 12.4586 4.78627 14.8559C4.78627 15.8479 4.91027 16.7159 5.15827 17.4599C6.48094 16.3853 8.01027 15.8479 9.74627 15.8479C11.9783 15.8479 13.8383 16.5919 15.3263 18.0799C16.8969 19.4853 17.6823 21.3866 17.6823 23.7839C17.6823 26.0159 16.8969 27.9173 15.3263 29.4879C13.8383 30.9759 11.9783 31.7199 9.74627 31.7199Z" fill="#BF986D"/>
</svg>
