<svg width="16" height="17" viewBox="0 0 16 17" fill="none" xmlns="http://www.w3.org/2000/svg">
<path d="M8 14.8296C3 14.8296 0.2 9.36292 0.0666667 9.09626C-9.93411e-09 8.89626 -9.93411e-09 8.69626 0.0666667 8.49626C0.933333 6.89626 2.13333 5.49626 3.66667 4.36292C3.93333 4.09626 4.33333 4.16292 4.6 4.49626C4.8 4.76292 4.8 5.22959 4.46667 5.42959C3.2 6.36292 2.2 7.49626 1.4 8.82959C2 9.89626 4.4 13.4963 8 13.4963C9.26667 13.4963 10.5333 13.0296 11.5333 12.2296C11.8 12.0296 12.2667 12.0963 12.4667 12.3629C12.6667 12.6296 12.6 13.0963 12.3333 13.2963C11.1333 14.2963 9.6 14.8296 8 14.8296ZM13.8667 11.6296C13.7333 11.6296 13.5333 11.5629 13.4667 11.4963C13.2 11.2296 13.1333 10.8296 13.4 10.5629C13.8667 10.0296 14.2667 9.49626 14.6 8.89626C14 7.82959 11.6 4.22959 8 4.22959C7.6 4.22959 7.13333 4.29626 6.73333 4.36292C6.4 4.36292 6.06667 4.16292 5.93333 3.82959C5.8 3.49626 6.06667 3.09626 6.4 3.02959C6.93333 2.89626 7.46667 2.82959 8 2.82959C13 2.82959 15.8 8.29626 15.9333 8.56292C16 8.76292 16 8.96292 15.9333 9.16292C15.5333 9.96292 15 10.6963 14.4 11.4296C14.2667 11.5629 14.0667 11.6296 13.8667 11.6296ZM7.93333 11.5629C7.26667 11.5629 6.6 11.2963 6.13333 10.8296C5.6 10.3629 5.33333 9.69626 5.26667 8.96292C5.26667 8.22959 5.46667 7.56292 6 7.02959C6.06667 6.96292 6.06667 6.96292 6.13333 6.89626C6.4 6.62959 6.8 6.62959 7.06667 6.89626C7.33333 7.16292 7.33333 7.56292 7.06667 7.82959L7 7.89626C6.73333 8.16292 6.6 8.49626 6.66667 8.82959C6.66667 9.16292 6.8 9.49626 7.06667 9.76292C7.6 10.2963 8.46667 10.2296 8.93333 9.69626C9.2 9.42959 9.6 9.42959 9.86667 9.69626C10.1333 9.96292 10.1333 10.3629 9.86667 10.6296C9.4 11.2296 8.66667 11.5629 7.93333 11.5629Z" fill="#888888"/>
<path d="M15.3333 16.8296C15.1333 16.8296 15 16.7629 14.8667 16.6296L0.2 1.96292C-0.0666667 1.69626 -0.0666667 1.29626 0.2 1.02959C0.466667 0.762923 0.866667 0.762923 1.13333 1.02959L15.8 15.6963C16.0667 15.9629 16.0667 16.3629 15.8 16.6296C15.6667 16.7629 15.5333 16.8296 15.3333 16.8296Z" fill="#888888"/>
</svg>
