<svg width="146" height="146" viewBox="0 0 146 146" fill="none" xmlns="http://www.w3.org/2000/svg">
<circle cx="72.6" cy="72.6" r="70.8" fill="#FFEFD8" stroke="black" stroke-width="3.6"/>
<path d="M39 75C42.5 68.6667 53.5 57.5 74.5 57.5C94.2464 57.5 105.5 69.5 108.5 73.5" stroke="black" stroke-width="1.5" stroke-linecap="round"/>
<path d="M39 75C43.5 79.1667 58 88.5 74 88.5C90 88.5 104 78.1667 108.5 73.5" stroke="black" stroke-width="1.5" stroke-linecap="round"/>
<path d="M90.25 69C90.25 72.0046 88.5258 74.799 85.5883 76.8726C82.6528 78.9447 78.5581 80.25 74 80.25C69.4419 80.25 65.3472 78.9447 62.4117 76.8726C59.4742 74.799 57.75 72.0046 57.75 69C57.75 65.9954 59.4742 63.201 62.4117 61.1274C65.3472 59.0553 69.4419 57.75 74 57.75C78.5581 57.75 82.6528 59.0553 85.5883 61.1274C88.5258 63.201 90.25 65.9954 90.25 69Z" fill="#B0C3E4" stroke="black" stroke-width="1.5"/>
<circle cx="73.5" cy="67.5" r="4.5" fill="black"/>
</svg>
