<svg width="860" height="140" viewBox="0 0 860 140" fill="none" xmlns="http://www.w3.org/2000/svg">
<path d="M5.43506 79.2953C44.0439 31.7532 146.658 -34.8058 248.241 79.2953C284.138 124.174 378.917 187.005 470.856 79.2953C506.217 20.5019 602.013 -61.8089 702.311 79.2953" stroke="#FF8A00"/>
<circle cx="5.59211" cy="79.2718" r="2.22102" fill="white"/>
<circle cx="5.59229" cy="79.2719" r="4.76074" stroke="white" stroke-width="0.5"/>
<path d="M27.8881 74.9073C29.069 75.8416 29.6594 77.1003 29.6594 78.6835C29.6594 80.2666 29.069 81.5253 27.8881 82.4596C26.7202 83.3939 25.1566 83.9259 23.1971 84.0557V85.5934H21.4259V84.0557C19.4794 83.9259 17.9157 83.3939 16.7349 82.4596C15.567 81.5253 14.9831 80.2666 14.9831 78.6835C14.9831 77.1003 15.567 75.8416 16.7349 74.9073C17.9157 73.973 19.4794 73.441 21.4259 73.3112V71.7735H23.1971V73.3112C25.1566 73.441 26.7202 73.973 27.8881 74.9073ZM23.1971 82.4012C24.6635 82.2974 25.8054 81.9406 26.6229 81.3307C27.4404 80.7078 27.8492 79.8254 27.8492 78.6835C27.8492 77.5415 27.4404 76.6656 26.6229 76.0557C25.8054 75.4329 24.6635 75.0695 23.1971 74.9657V82.4012ZM16.7738 78.6835C16.7738 79.8124 17.1826 80.6883 18.0001 81.3112C18.8176 81.9211 19.9595 82.2779 21.4259 82.3818V74.9657C19.9595 75.0695 18.8176 75.4329 18.0001 76.0557C17.1826 76.6656 16.7738 77.5415 16.7738 78.6835ZM38.5274 75.7638H39.8899V85.4961H38.2159V78.664L32.8242 85.4961H31.4617V75.7638H33.1357V82.5959L38.5274 75.7638ZM47.723 80.5131C48.8001 80.9543 49.3386 81.7264 49.3386 82.8294C49.3386 83.647 49.0142 84.3412 48.3654 84.9122C47.7165 85.4701 46.7952 85.7491 45.6014 85.7491C43.6549 85.7491 42.3508 84.9705 41.689 83.4134L43.1099 82.5764C43.4862 83.6405 44.3232 84.1725 45.6209 84.1725C46.2697 84.1725 46.7693 84.0362 47.1196 83.7637C47.483 83.4783 47.6646 83.1149 47.6646 82.6737C47.6646 82.2844 47.5154 81.9665 47.217 81.72C46.9315 81.4734 46.5422 81.3501 46.0491 81.3501H44.6282V79.8124H45.6792C46.1724 79.8124 46.5552 79.6956 46.8277 79.4621C47.1002 79.2155 47.2364 78.8846 47.2364 78.4694C47.2364 78.0541 47.0742 77.7167 46.7498 77.4572C46.4384 77.1977 46.0037 77.0679 45.4457 77.0679C44.3557 77.0679 43.616 77.5286 43.2267 78.4499L41.8447 77.6518C42.5325 76.2244 43.7328 75.5107 45.4457 75.5107C46.5097 75.5107 47.3467 75.7832 47.9566 76.3282C48.5795 76.8733 48.8909 77.5415 48.8909 78.3331C48.8909 79.3193 48.5016 80.046 47.723 80.5131ZM58.2391 75.7638H59.6016V85.4961H57.9277V78.664L52.536 85.4961H51.1734V75.7638H52.8474V82.5959L58.2391 75.7638ZM68.3107 75.7638H70.0041V85.4961H68.3107V81.9925C67.5321 82.3298 66.6562 82.4985 65.683 82.4985C64.4372 82.4985 63.4705 82.2066 62.7827 81.6226C62.108 81.0257 61.7706 80.1498 61.7706 78.9949V75.7638H63.464V78.8976C63.464 79.6243 63.6586 80.1433 64.0479 80.4548C64.4502 80.7662 65.0341 80.9219 65.7998 80.9219C66.7211 80.9219 67.5581 80.7532 68.3107 80.4158V75.7638ZM73.7643 81.4085C73.933 82.2779 74.3288 82.9527 74.9516 83.4328C75.5875 83.913 76.3661 84.153 77.2874 84.153C78.5721 84.153 79.5064 83.6794 80.0903 82.7321L81.5307 83.5496C80.5834 85.016 79.156 85.7491 77.2485 85.7491C75.7043 85.7491 74.4455 85.269 73.4723 84.3088C72.5121 83.3355 72.0319 82.1092 72.0319 80.6299C72.0319 79.1636 72.5056 77.9438 73.4529 76.9706C74.4001 75.9974 75.6264 75.5107 77.1317 75.5107C78.5591 75.5107 79.7205 76.0168 80.6158 77.029C81.5242 78.0282 81.9784 79.235 81.9784 80.6494C81.9784 80.896 81.9589 81.149 81.92 81.4085H73.7643ZM77.1317 77.1068C76.2233 77.1068 75.4707 77.3664 74.8738 77.8854C74.2769 78.3915 73.907 79.0728 73.7643 79.9292H80.2655C80.1227 79.0079 79.7594 78.3072 79.1755 77.827C78.5915 77.3469 77.9103 77.1068 77.1317 77.1068ZM88.4802 85.7491C87.0138 85.7491 85.794 85.2625 84.8208 84.2893C83.8476 83.3031 83.361 82.0833 83.361 80.6299C83.361 79.1766 83.8476 77.9633 84.8208 76.99C85.794 76.0038 87.0138 75.5107 88.4802 75.5107C89.4404 75.5107 90.3034 75.7443 91.069 76.2115C91.8346 76.6656 92.4055 77.282 92.7818 78.0606L91.3609 78.8781C91.1144 78.3591 90.7316 77.9438 90.2125 77.6324C89.7064 77.3209 89.129 77.1652 88.4802 77.1652C87.5069 77.1652 86.6894 77.4961 86.0276 78.1579C85.3788 78.8197 85.0544 79.6437 85.0544 80.6299C85.0544 81.6032 85.3788 82.4207 86.0276 83.0825C86.6894 83.7443 87.5069 84.0752 88.4802 84.0752C89.129 84.0752 89.7129 83.9259 90.232 83.6275C90.751 83.3161 91.1468 82.9008 91.4193 82.3818L92.8597 83.2187C92.4445 83.9843 91.8475 84.6007 91.069 85.0679C90.2904 85.522 89.4274 85.7491 88.4802 85.7491ZM102.784 85.4961H100.682L96.2441 80.883V85.4961H94.5507V75.7638H96.2441V80.0655L100.448 75.7638H102.629L97.9765 80.4742L102.784 85.4961ZM111.425 75.7638H112.787V85.4961H111.113V78.664L105.722 85.4961H104.359V75.7638H106.033V82.5959L111.425 75.7638ZM116.552 81.4085C116.721 82.2779 117.117 82.9527 117.74 83.4328C118.375 83.913 119.154 84.153 120.075 84.153C121.36 84.153 122.294 83.6794 122.878 82.7321L124.319 83.5496C123.371 85.016 121.944 85.7491 120.036 85.7491C118.492 85.7491 117.234 85.269 116.26 84.3088C115.3 83.3355 114.82 82.1092 114.82 80.6299C114.82 79.1636 115.294 77.9438 116.241 76.9706C117.188 75.9974 118.414 75.5107 119.92 75.5107C121.347 75.5107 122.508 76.0168 123.404 77.029C124.312 78.0282 124.766 79.235 124.766 80.6494C124.766 80.896 124.747 81.149 124.708 81.4085H116.552ZM119.92 77.1068C119.011 77.1068 118.259 77.3664 117.662 77.8854C117.065 78.3915 116.695 79.0728 116.552 79.9292H123.053C122.911 79.0079 122.547 78.3072 121.963 77.827C121.38 77.3469 120.698 77.1068 119.92 77.1068ZM139.696 75.7638V85.4961H138.002V77.3988H134.168V81.3696C134.168 82.9657 133.844 84.0817 133.195 84.7175C132.559 85.3404 131.657 85.5999 130.489 85.4961V83.9C131.151 83.9908 131.644 83.8481 131.968 83.4718C132.306 83.0825 132.475 82.3688 132.475 81.3307V75.7638H139.696ZM149.328 75.7638H150.69V85.4961H149.016V78.664L143.624 85.4961H142.262V75.7638H143.936V82.5959L149.328 75.7638ZM161.443 83.8805H163.039V88.1044H161.365V85.4961H153.268V75.7638H154.961V83.8805H159.749V75.7638H161.443V83.8805ZM172.522 75.7638H174.216V85.4961H172.522V83.8221C171.679 85.1068 170.452 85.7491 168.843 85.7491C167.481 85.7491 166.319 85.256 165.359 84.2698C164.399 83.2706 163.919 82.0573 163.919 80.6299C163.919 79.2025 164.399 77.9957 165.359 77.0095C166.319 76.0103 167.481 75.5107 168.843 75.5107C170.452 75.5107 171.679 76.1531 172.522 77.4377V75.7638ZM169.057 84.1141C170.044 84.1141 170.868 83.7832 171.529 83.1214C172.191 82.4466 172.522 81.6161 172.522 80.6299C172.522 79.6437 172.191 78.8197 171.529 78.1579C170.868 77.4832 170.044 77.1458 169.057 77.1458C168.084 77.1458 167.267 77.4832 166.605 78.1579C165.943 78.8197 165.612 79.6437 165.612 80.6299C165.612 81.6161 165.943 82.4466 166.605 83.1214C167.267 83.7832 168.084 84.1141 169.057 84.1141Z" fill="white"/>
<circle cx="247.999" cy="79.2718" r="2.22102" fill="white"/>
<circle cx="247.999" cy="79.2719" r="4.76074" stroke="white" stroke-width="0.5"/>
<path d="M271.177 71.8708V85.4961H269.386V74.8489L264.929 82.265H264.695L260.238 74.8684V85.4961H258.427V71.8708H260.471L264.812 79.0728L269.133 71.8708H271.177ZM281.973 75.7638H283.667V85.4961H281.973V83.8221C281.13 85.1068 279.904 85.7491 278.295 85.7491C276.932 85.7491 275.771 85.256 274.81 84.2698C273.85 83.2706 273.37 82.0573 273.37 80.6299C273.37 79.2025 273.85 77.9957 274.81 77.0095C275.771 76.0103 276.932 75.5107 278.295 75.5107C279.904 75.5107 281.13 76.1531 281.973 77.4377V75.7638ZM278.509 84.1141C279.495 84.1141 280.319 83.7832 280.981 83.1214C281.643 82.4466 281.973 81.6161 281.973 80.6299C281.973 79.6437 281.643 78.8197 280.981 78.1579C280.319 77.4832 279.495 77.1458 278.509 77.1458C277.536 77.1458 276.718 77.4832 276.056 78.1579C275.394 78.8197 275.064 79.6437 275.064 80.6299C275.064 81.6161 275.394 82.4466 276.056 83.1214C276.718 83.7832 277.536 84.1141 278.509 84.1141ZM294.349 75.7638V85.4961H292.656V77.3988H288.821V81.3696C288.821 82.9657 288.497 84.0817 287.848 84.7175C287.212 85.3404 286.31 85.5999 285.143 85.4961V83.9C285.804 83.9908 286.297 83.8481 286.622 83.4718C286.959 83.0825 287.128 82.3688 287.128 81.3307V75.7638H294.349ZM301.022 79.2674C301.996 79.2674 302.8 79.5594 303.436 80.1433C304.085 80.7143 304.409 81.4604 304.409 82.3818C304.409 83.3031 304.085 84.0557 303.436 84.6396C302.8 85.2106 301.996 85.4961 301.022 85.4961H296.915V75.7638H298.609V79.2674H301.022ZM305.674 75.7638H307.368V85.4961H305.674V75.7638ZM301.022 83.9195C301.502 83.9195 301.905 83.7832 302.229 83.5107C302.567 83.2252 302.735 82.8489 302.735 82.3818C302.735 81.9146 302.567 81.5383 302.229 81.2528C301.905 80.9673 301.502 80.8246 301.022 80.8246H298.609V83.9195H301.022ZM311.551 74.3039V72.8246H316.807V74.3039H311.551ZM317.021 75.7638H318.383V85.4961H316.709V78.664L311.318 85.4961H309.955V75.7638H311.629V82.5959L317.021 75.7638ZM330.246 85.7491C328.805 85.7491 327.618 85.2755 326.684 84.3282C325.749 83.3809 325.282 82.1612 325.282 80.6689C325.282 79.0079 325.522 77.7297 326.002 76.8343C326.495 75.939 327.495 75.1279 329 74.4012C329.272 74.2715 329.642 74.1028 330.109 73.8952C330.589 73.6875 330.94 73.5318 331.16 73.428C331.381 73.3112 331.628 73.162 331.9 72.9803C332.173 72.7857 332.374 72.5781 332.504 72.3575C332.646 72.1239 332.75 71.8579 332.815 71.5594L334.177 72.338C334.139 72.5456 334.087 72.7403 334.022 72.9219C333.957 73.0906 333.86 73.2593 333.73 73.428C333.613 73.5837 333.509 73.72 333.418 73.8368C333.328 73.9536 333.172 74.0833 332.951 74.2261C332.744 74.3558 332.588 74.4532 332.484 74.518C332.393 74.5829 332.205 74.6802 331.92 74.81C331.647 74.9398 331.459 75.0306 331.355 75.0825C331.264 75.1214 331.05 75.2123 330.713 75.355C330.375 75.4848 330.168 75.5691 330.09 75.6081C329.207 75.9844 328.559 76.3672 328.143 76.7565C327.741 77.1458 327.449 77.6389 327.268 78.2358C327.683 77.7167 328.202 77.3339 328.825 77.0874C329.448 76.8408 330.07 76.7175 330.693 76.7175C331.913 76.7175 332.945 77.1328 333.788 77.9633C334.645 78.7938 335.073 79.8643 335.073 81.1749C335.073 82.4985 334.619 83.595 333.71 84.4645C332.802 85.3209 331.647 85.7491 330.246 85.7491ZM327.968 83.2577C328.578 83.8286 329.337 84.1141 330.246 84.1141C331.154 84.1141 331.9 83.8351 332.484 83.2771C333.081 82.7191 333.379 82.0184 333.379 81.1749C333.379 80.3055 333.094 79.5983 332.523 79.0533C331.965 78.4953 331.225 78.2163 330.304 78.2163C329.474 78.2163 328.721 78.4823 328.046 79.0144C327.384 79.5334 327.053 80.2212 327.053 81.0776C327.053 81.96 327.358 82.6867 327.968 83.2577ZM343.937 75.7638H345.299V85.4961H343.625V78.664L338.234 85.4961H336.871V75.7638H338.545V82.5959L343.937 75.7638ZM353.132 80.5131C354.209 80.9543 354.748 81.7264 354.748 82.8294C354.748 83.647 354.424 84.3412 353.775 84.9122C353.126 85.4701 352.205 85.7491 351.011 85.7491C349.064 85.7491 347.76 84.9705 347.098 83.4134L348.519 82.5764C348.896 83.6405 349.733 84.1725 351.03 84.1725C351.679 84.1725 352.179 84.0362 352.529 83.7637C352.892 83.4783 353.074 83.1149 353.074 82.6737C353.074 82.2844 352.925 81.9665 352.626 81.72C352.341 81.4734 351.952 81.3501 351.458 81.3501H350.037V79.8124H351.089C351.582 79.8124 351.964 79.6956 352.237 79.4621C352.509 79.2155 352.646 78.8846 352.646 78.4694C352.646 78.0541 352.484 77.7167 352.159 77.4572C351.848 77.1977 351.413 77.0679 350.855 77.0679C349.765 77.0679 349.025 77.5286 348.636 78.4499L347.254 77.6518C347.942 76.2244 349.142 75.5107 350.855 75.5107C351.919 75.5107 352.756 75.7832 353.366 76.3282C353.989 76.8733 354.3 77.5415 354.3 78.3331C354.3 79.3193 353.911 80.046 353.132 80.5131ZM363.318 75.7638H365.011V85.4961H363.318V81.428H358.276V85.4961H356.583V75.7638H358.276V79.8124H363.318V75.7638ZM368.776 81.4085C368.945 82.2779 369.34 82.9527 369.963 83.4328C370.599 83.913 371.378 84.153 372.299 84.153C373.584 84.153 374.518 83.6794 375.102 82.7321L376.542 83.5496C375.595 85.016 374.168 85.7491 372.26 85.7491C370.716 85.7491 369.457 85.269 368.484 84.3088C367.524 83.3355 367.044 82.1092 367.044 80.6299C367.044 79.1636 367.517 77.9438 368.465 76.9706C369.412 75.9974 370.638 75.5107 372.143 75.5107C373.571 75.5107 374.732 76.0168 375.628 77.029C376.536 78.0282 376.99 79.235 376.99 80.6494C376.99 80.896 376.971 81.149 376.932 81.4085H368.776ZM372.143 77.1068C371.235 77.1068 370.482 77.3664 369.885 77.8854C369.289 78.3915 368.919 79.0728 368.776 79.9292H375.277C375.134 79.0079 374.771 78.3072 374.187 77.827C373.603 77.3469 372.922 77.1068 372.143 77.1068ZM383.492 85.7491C382.026 85.7491 380.806 85.2625 379.833 84.2893C378.859 83.3031 378.373 82.0833 378.373 80.6299C378.373 79.1766 378.859 77.9633 379.833 76.99C380.806 76.0038 382.026 75.5107 383.492 75.5107C384.452 75.5107 385.315 75.7443 386.081 76.2115C386.846 76.6656 387.417 77.282 387.794 78.0606L386.373 78.8781C386.126 78.3591 385.743 77.9438 385.224 77.6324C384.718 77.3209 384.141 77.1652 383.492 77.1652C382.519 77.1652 381.701 77.4961 381.039 78.1579C380.391 78.8197 380.066 79.6437 380.066 80.6299C380.066 81.6032 380.391 82.4207 381.039 83.0825C381.701 83.7443 382.519 84.0752 383.492 84.0752C384.141 84.0752 384.725 83.9259 385.244 83.6275C385.763 83.3161 386.159 82.9008 386.431 82.3818L387.871 83.2187C387.456 83.9843 386.859 84.6007 386.081 85.0679C385.302 85.522 384.439 85.7491 383.492 85.7491Z" fill="white"/>
<circle cx="470.521" cy="79.2718" r="2.22102" fill="white"/>
<circle cx="470.521" cy="79.2719" r="4.76074" stroke="white" stroke-width="0.5"/>
<path d="M487.258 85.749C485.195 85.749 483.488 85.0677 482.139 83.7052C480.802 82.3427 480.134 80.6687 480.134 78.6833C480.134 76.698 480.802 75.024 482.139 73.6615C483.488 72.2989 485.195 71.6177 487.258 71.6177C488.504 71.6177 489.645 71.9161 490.684 72.5131C491.735 73.11 492.552 73.9145 493.136 74.9267L491.559 75.8415C491.17 75.0889 490.586 74.492 489.808 74.0508C489.042 73.5966 488.192 73.3695 487.258 73.3695C485.688 73.3695 484.403 73.8756 483.404 74.8877C482.418 75.8999 481.924 77.1651 481.924 78.6833C481.924 80.1886 482.418 81.4473 483.404 82.4595C484.403 83.4716 485.688 83.9777 487.258 83.9777C488.192 83.9777 489.042 83.7571 489.808 83.3159C490.586 82.8618 491.17 82.2648 491.559 81.5252L493.136 82.4206C492.565 83.4327 491.754 84.2437 490.703 84.8536C489.652 85.4506 488.504 85.749 487.258 85.749ZM500.44 75.5106C501.803 75.5106 502.964 76.0102 503.925 77.0094C504.885 77.9956 505.365 79.2024 505.365 80.6298C505.365 82.0572 504.885 83.2705 503.925 84.2697C502.964 85.2559 501.803 85.749 500.44 85.749C498.831 85.749 497.605 85.1067 496.762 83.822V89.3889H495.068V75.7637H496.762V77.4376C497.605 76.1529 498.831 75.5106 500.44 75.5106ZM500.226 84.114C501.2 84.114 502.017 83.7831 502.679 83.1213C503.341 82.4465 503.672 81.616 503.672 80.6298C503.672 79.6436 503.341 78.8196 502.679 78.1578C502.017 77.483 501.2 77.1456 500.226 77.1456C499.24 77.1456 498.416 77.483 497.754 78.1578C497.092 78.8196 496.762 79.6436 496.762 80.6298C496.762 81.616 497.092 82.4465 497.754 83.1213C498.416 83.7831 499.24 84.114 500.226 84.114ZM508.573 81.4084C508.742 82.2778 509.137 82.9526 509.76 83.4327C510.396 83.9128 511.175 84.1529 512.096 84.1529C513.381 84.1529 514.315 83.6793 514.899 82.732L516.339 83.5495C515.392 85.0158 513.965 85.749 512.057 85.749C510.513 85.749 509.254 85.2689 508.281 84.3086C507.321 83.3354 506.841 82.1091 506.841 80.6298C506.841 79.1635 507.314 77.9437 508.262 76.9705C509.209 75.9972 510.435 75.5106 511.94 75.5106C513.368 75.5106 514.529 76.0167 515.425 77.0289C516.333 78.028 516.787 79.2348 516.787 80.6493C516.787 80.8958 516.768 81.1489 516.729 81.4084H508.573ZM511.94 77.1067C511.032 77.1067 510.279 77.3662 509.682 77.8853C509.086 78.3914 508.716 79.0726 508.573 79.9291H515.074C514.931 79.0078 514.568 78.307 513.984 77.8269C513.4 77.3468 512.719 77.1067 511.94 77.1067ZM526.723 83.8804H528.066V88.1042H526.392V85.496H519.093V88.1042H517.419V83.8804H518.607C519.229 83.024 519.541 81.8236 519.541 80.2794V75.7637H526.723V83.8804ZM520.534 83.8804H525.049V77.3403H521.215V80.2794C521.215 81.7328 520.988 82.9331 520.534 83.8804ZM536.626 75.7637H538.32V85.496H536.626V81.4279H531.585V85.496H529.892V75.7637H531.585V79.8123H536.626V75.7637ZM547.963 75.7637H549.326V85.496H547.652V78.6639L542.26 85.496H540.897V75.7637H542.571V82.5957L547.963 75.7637ZM553.499 74.3038V72.8245H558.755V74.3038H553.499ZM558.969 75.7637H560.332V85.496H558.658V78.6639L553.266 85.496H551.903V75.7637H553.577V82.5957L558.969 75.7637ZM572.194 85.749C570.753 85.749 569.566 85.2754 568.632 84.3281C567.698 83.3808 567.23 82.161 567.23 80.6687C567.23 79.0078 567.47 77.7296 567.951 76.8342C568.444 75.9388 569.443 75.1278 570.948 74.4011C571.221 74.2714 571.59 74.1027 572.058 73.895C572.538 73.6874 572.888 73.5317 573.109 73.4279C573.329 73.3111 573.576 73.1619 573.848 72.9802C574.121 72.7856 574.322 72.5779 574.452 72.3573C574.595 72.1238 574.698 71.8577 574.763 71.5593L576.126 72.3379C576.087 72.5455 576.035 72.7401 575.97 72.9218C575.905 73.0905 575.808 73.2592 575.678 73.4279C575.561 73.5836 575.457 73.7199 575.367 73.8367C575.276 73.9534 575.12 74.0832 574.899 74.2259C574.692 74.3557 574.536 74.453 574.432 74.5179C574.341 74.5828 574.153 74.6801 573.868 74.8099C573.595 74.9396 573.407 75.0305 573.303 75.0824C573.213 75.1213 572.998 75.2122 572.661 75.3549C572.324 75.4847 572.116 75.569 572.038 75.6079C571.156 75.9843 570.507 76.3671 570.092 76.7563C569.689 77.1456 569.397 77.6387 569.216 78.2357C569.631 77.7166 570.15 77.3338 570.773 77.0872C571.396 76.8407 572.019 76.7174 572.642 76.7174C573.861 76.7174 574.893 77.1327 575.736 77.9632C576.593 78.7936 577.021 79.8642 577.021 81.1748C577.021 82.4984 576.567 83.5949 575.659 84.4643C574.75 85.3208 573.595 85.749 572.194 85.749ZM569.917 83.2575C570.526 83.8285 571.286 84.114 572.194 84.114C573.102 84.114 573.848 83.835 574.432 83.277C575.029 82.719 575.328 82.0183 575.328 81.1748C575.328 80.3054 575.042 79.5982 574.471 79.0532C573.913 78.4952 573.174 78.2162 572.252 78.2162C571.422 78.2162 570.669 78.4822 569.994 79.0142C569.333 79.5333 569.002 80.2211 569.002 81.0775C569.002 81.9599 569.307 82.6866 569.917 83.2575ZM585.885 75.7637H587.247V85.496H585.574V78.6639L580.182 85.496H578.819V75.7637H580.493V82.5957L585.885 75.7637ZM595.081 80.513C596.158 80.9542 596.696 81.7263 596.696 82.8293C596.696 83.6468 596.372 84.3411 595.723 84.912C595.074 85.47 594.153 85.749 592.959 85.749C591.013 85.749 589.708 84.9704 589.047 83.4133L590.468 82.5763C590.844 83.6403 591.681 84.1724 592.978 84.1724C593.627 84.1724 594.127 84.0361 594.477 83.7636C594.841 83.4781 595.022 83.1148 595.022 82.6736C595.022 82.2843 594.873 81.9664 594.575 81.7198C594.289 81.4733 593.9 81.35 593.407 81.35H591.986V79.8123H593.037C593.53 79.8123 593.913 79.6955 594.185 79.4619C594.458 79.2154 594.594 78.8845 594.594 78.4692C594.594 78.054 594.432 77.7166 594.107 77.4571C593.796 77.1975 593.361 77.0678 592.803 77.0678C591.713 77.0678 590.974 77.5284 590.584 78.4498L589.202 77.6517C589.89 76.2243 591.09 75.5106 592.803 75.5106C593.867 75.5106 594.704 75.7831 595.314 76.3281C595.937 76.8731 596.249 77.5414 596.249 78.333C596.249 79.3192 595.859 80.0459 595.081 80.513ZM605.266 75.7637H606.959V85.496H605.266V81.4279H600.224V85.496H598.531V75.7637H600.224V79.8123H605.266V75.7637ZM610.724 81.4084C610.893 82.2778 611.289 82.9526 611.912 83.4327C612.547 83.9128 613.326 84.1529 614.247 84.1529C615.532 84.1529 616.466 83.6793 617.05 82.732L618.491 83.5495C617.543 85.0158 616.116 85.749 614.208 85.749C612.664 85.749 611.406 85.2689 610.432 84.3086C609.472 83.3354 608.992 82.1091 608.992 80.6298C608.992 79.1635 609.466 77.9437 610.413 76.9705C611.36 75.9972 612.586 75.5106 614.092 75.5106C615.519 75.5106 616.68 76.0167 617.576 77.0289C618.484 78.028 618.938 79.2348 618.938 80.6493C618.938 80.8958 618.919 81.1489 618.88 81.4084H610.724ZM614.092 77.1067C613.183 77.1067 612.431 77.3662 611.834 77.8853C611.237 78.3914 610.867 79.0726 610.724 79.9291H617.225C617.083 79.0078 616.719 78.307 616.135 77.8269C615.552 77.3468 614.87 77.1067 614.092 77.1067ZM625.44 85.749C623.974 85.749 622.754 85.2624 621.781 84.2892C620.808 83.303 620.321 82.0832 620.321 80.6298C620.321 79.1765 620.808 77.9632 621.781 76.9899C622.754 76.0037 623.974 75.5106 625.44 75.5106C626.4 75.5106 627.263 75.7442 628.029 76.2113C628.795 76.6655 629.366 77.2819 629.742 78.0605L628.321 78.878C628.074 78.3589 627.692 77.9437 627.173 77.6323C626.666 77.3208 626.089 77.1651 625.44 77.1651C624.467 77.1651 623.649 77.496 622.988 78.1578C622.339 78.8196 622.014 79.6436 622.014 80.6298C622.014 81.603 622.339 82.4206 622.988 83.0824C623.649 83.7442 624.467 84.0751 625.44 84.0751C626.089 84.0751 626.673 83.9258 627.192 83.6274C627.711 83.3159 628.107 82.9007 628.379 82.3816L629.82 83.2186C629.404 83.9842 628.808 84.6006 628.029 85.0677C627.25 85.5219 626.387 85.749 625.44 85.749Z" fill="white"/>
<circle cx="702.342" cy="79.2718" r="2.22102" fill="white"/>
<circle cx="702.342" cy="79.2719" r="4.76074" stroke="white" stroke-width="0.5"/>
<path d="M722.219 85.496H720L714.122 78.9559V85.496H712.312V71.8707H714.122V78.0216L719.806 71.8707H722.025L716.01 78.4887L722.219 85.496ZM729.028 75.5106C730.391 75.5106 731.552 76.0102 732.512 77.0094C733.473 77.9956 733.953 79.2024 733.953 80.6298C733.953 82.0572 733.473 83.2705 732.512 84.2697C731.552 85.2559 730.391 85.749 729.028 85.749C727.419 85.749 726.193 85.1067 725.349 83.822V89.3889H723.656V75.7637H725.349V77.4376C726.193 76.1529 727.419 75.5106 729.028 75.5106ZM728.814 84.114C729.787 84.114 730.605 83.7831 731.267 83.1213C731.928 82.4465 732.259 81.616 732.259 80.6298C732.259 79.6436 731.928 78.8196 731.267 78.1578C730.605 77.483 729.787 77.1456 728.814 77.1456C727.828 77.1456 727.004 77.483 726.342 78.1578C725.68 78.8196 725.349 79.6436 725.349 80.6298C725.349 81.616 725.68 82.4465 726.342 83.1213C727.004 83.7831 727.828 84.114 728.814 84.114ZM742.386 75.7637H744.197L740.226 86.0994C739.811 87.2024 739.227 88.0394 738.474 88.6103C737.721 89.1943 736.865 89.4538 735.905 89.3889V87.8123C737.098 87.9031 737.974 87.2543 738.532 85.8658L738.688 85.5154L734.464 75.7637H736.255L739.583 83.3938L742.386 75.7637ZM754.039 75.7637V85.496H752.345V77.3792H747.304V85.496H745.611V75.7637H754.039ZM763.351 75.7637H765.045V85.496H763.351V81.4279H758.31V85.496H756.616V75.7637H758.31V79.8123H763.351V75.7637ZM771.729 79.2673C772.703 79.2673 773.507 79.5593 774.143 80.1432C774.792 80.7142 775.116 81.4603 775.116 82.3816C775.116 83.303 774.792 84.0556 774.143 84.6395C773.507 85.2105 772.703 85.496 771.729 85.496H767.622V75.7637H769.316V79.2673H771.729ZM776.381 75.7637H778.075V85.496H776.381V75.7637ZM771.729 83.9193C772.21 83.9193 772.612 83.7831 772.936 83.5106C773.274 83.2251 773.442 82.8488 773.442 82.3816C773.442 81.9145 773.274 81.5382 772.936 81.2527C772.612 80.9672 772.21 80.8245 771.729 80.8245H769.316V83.9193H771.729ZM782.258 74.3038V72.8245H787.514V74.3038H782.258ZM787.728 75.7637H789.09V85.496H787.416V78.6639L782.025 85.496H780.662V75.7637H782.336V82.5957L787.728 75.7637ZM800.953 85.749C799.512 85.749 798.325 85.2754 797.391 84.3281C796.456 83.3808 795.989 82.161 795.989 80.6687C795.989 79.0078 796.229 77.7296 796.709 76.8342C797.202 75.9388 798.202 75.1278 799.707 74.4011C799.979 74.2714 800.349 74.1027 800.816 73.895C801.297 73.6874 801.647 73.5317 801.868 73.4279C802.088 73.3111 802.335 73.1619 802.607 72.9802C802.88 72.7856 803.081 72.5779 803.211 72.3573C803.353 72.1238 803.457 71.8577 803.522 71.5593L804.885 72.3379C804.846 72.5455 804.794 72.7401 804.729 72.9218C804.664 73.0905 804.567 73.2592 804.437 73.4279C804.32 73.5836 804.216 73.7199 804.125 73.8367C804.035 73.9534 803.879 74.0832 803.658 74.2259C803.451 74.3557 803.295 74.453 803.191 74.5179C803.1 74.5828 802.912 74.6801 802.627 74.8099C802.354 74.9396 802.166 75.0305 802.062 75.0824C801.971 75.1213 801.757 75.2122 801.42 75.3549C801.082 75.4847 800.875 75.569 800.797 75.6079C799.915 75.9843 799.266 76.3671 798.851 76.7563C798.448 77.1456 798.156 77.6387 797.975 78.2357C798.39 77.7166 798.909 77.3338 799.532 77.0872C800.155 76.8407 800.777 76.7174 801.4 76.7174C802.62 76.7174 803.652 77.1327 804.495 77.9632C805.352 78.7936 805.78 79.8642 805.78 81.1748C805.78 82.4984 805.326 83.5949 804.417 84.4643C803.509 85.3208 802.354 85.749 800.953 85.749ZM798.675 83.2575C799.285 83.8285 800.044 84.114 800.953 84.114C801.861 84.114 802.607 83.835 803.191 83.277C803.788 82.719 804.086 82.0183 804.086 81.1748C804.086 80.3054 803.801 79.5982 803.23 79.0532C802.672 78.4952 801.932 78.2162 801.011 78.2162C800.181 78.2162 799.428 78.4822 798.753 79.0142C798.091 79.5333 797.76 80.2211 797.76 81.0775C797.76 81.9599 798.065 82.6866 798.675 83.2575ZM814.644 75.7637H816.006V85.496H814.332V78.6639L808.941 85.496H807.578V75.7637H809.252V82.5957L814.644 75.7637ZM823.839 80.513C824.916 80.9542 825.455 81.7263 825.455 82.8293C825.455 83.6468 825.131 84.3411 824.482 84.912C823.833 85.47 822.912 85.749 821.718 85.749C819.771 85.749 818.467 84.9704 817.805 83.4133L819.226 82.5763C819.603 83.6403 820.44 84.1724 821.737 84.1724C822.386 84.1724 822.886 84.0361 823.236 83.7636C823.599 83.4781 823.781 83.1148 823.781 82.6736C823.781 82.2843 823.632 81.9664 823.333 81.7198C823.048 81.4733 822.659 81.35 822.165 81.35H820.745V79.8123H821.796C822.289 79.8123 822.672 79.6955 822.944 79.4619C823.217 79.2154 823.353 78.8845 823.353 78.4692C823.353 78.054 823.191 77.7166 822.866 77.4571C822.555 77.1975 822.12 77.0678 821.562 77.0678C820.472 77.0678 819.732 77.5284 819.343 78.4498L817.961 77.6517C818.649 76.2243 819.849 75.5106 821.562 75.5106C822.626 75.5106 823.463 75.7831 824.073 76.3281C824.696 76.8731 825.007 77.5414 825.007 78.333C825.007 79.3192 824.618 80.0459 823.839 80.513ZM834.025 75.7637H835.718V85.496H834.025V81.4279H828.983V85.496H827.29V75.7637H828.983V79.8123H834.025V75.7637ZM839.483 81.4084C839.652 82.2778 840.048 82.9526 840.67 83.4327C841.306 83.9128 842.085 84.1529 843.006 84.1529C844.291 84.1529 845.225 83.6793 845.809 82.732L847.249 83.5495C846.302 85.0158 844.875 85.749 842.967 85.749C841.423 85.749 840.164 85.2689 839.191 84.3086C838.231 83.3354 837.751 82.1091 837.751 80.6298C837.751 79.1635 838.224 77.9437 839.172 76.9705C840.119 75.9972 841.345 75.5106 842.85 75.5106C844.278 75.5106 845.439 76.0167 846.335 77.0289C847.243 78.028 847.697 79.2348 847.697 80.6493C847.697 80.8958 847.678 81.1489 847.639 81.4084H839.483ZM842.85 77.1067C841.942 77.1067 841.189 77.3662 840.593 77.8853C839.996 78.3914 839.626 79.0726 839.483 79.9291H845.984C845.842 79.0078 845.478 78.307 844.894 77.8269C844.31 77.3468 843.629 77.1067 842.85 77.1067ZM854.199 85.749C852.733 85.749 851.513 85.2624 850.54 84.2892C849.566 83.303 849.08 82.0832 849.08 80.6298C849.08 79.1765 849.566 77.9632 850.54 76.9899C851.513 76.0037 852.733 75.5106 854.199 75.5106C855.159 75.5106 856.022 75.7442 856.788 76.2113C857.553 76.6655 858.124 77.2819 858.501 78.0605L857.08 78.878C856.833 78.3589 856.45 77.9437 855.931 77.6323C855.425 77.3208 854.848 77.1651 854.199 77.1651C853.226 77.1651 852.408 77.496 851.746 78.1578C851.098 78.8196 850.773 79.6436 850.773 80.6298C850.773 81.603 851.098 82.4206 851.746 83.0824C852.408 83.7442 853.226 84.0751 854.199 84.0751C854.848 84.0751 855.432 83.9258 855.951 83.6274C856.47 83.3159 856.866 82.9007 857.138 82.3816L858.578 83.2186C858.163 83.9842 857.566 84.6006 856.788 85.0677C856.009 85.5219 855.146 85.749 854.199 85.749Z" fill="white"/>
</svg>
