<svg width="26" height="26" viewBox="0 0 26 26" fill="none" xmlns="http://www.w3.org/2000/svg">
<g clip-path="url(#clip0)">
<path d="M13.4472 9.35224H12.4011C11.9399 9.35224 11.5646 8.97694 11.5646 8.51562C11.5646 8.05434 11.9399 7.67905 12.4011 7.67905H14.4931C14.8976 7.67905 15.2256 7.35112 15.2256 6.94663C15.2256 6.54214 14.8976 6.21421 14.4931 6.21421H13.6565V5.37768C13.6565 4.97319 13.3286 4.64526 12.9241 4.64526C12.5196 4.64526 12.1917 4.97319 12.1917 5.37768V6.22422C11.0205 6.33042 10.0997 7.31733 10.0997 8.51567C10.0997 9.78471 11.1322 10.8171 12.4011 10.8171H13.4472C13.9085 10.8171 14.2838 11.1924 14.2838 11.6537C14.2838 12.115 13.9086 12.4903 13.4472 12.4903H11.3551C10.9506 12.4903 10.6227 12.8182 10.6227 13.2227C10.6227 13.6272 10.9506 13.9551 11.3551 13.9551H12.1917V14.7917C12.1917 15.1962 12.5196 15.5241 12.9241 15.5241C13.3286 15.5241 13.6565 15.1962 13.6565 14.7917V13.9451C14.8278 13.839 15.7486 12.8521 15.7486 11.6536C15.7486 10.3847 14.7163 9.35224 13.4472 9.35224Z" fill="#FF8A00"/>
<path d="M16.8467 17.9817H9.00165C8.59716 17.9817 8.26923 18.3096 8.26923 18.7141C8.26923 19.1186 8.59716 19.4465 9.00165 19.4465H16.8467C17.2511 19.4465 17.5791 19.1186 17.5791 18.7141C17.5791 18.3096 17.2511 17.9817 16.8467 17.9817Z" fill="#FF8A00"/>
<path d="M21.5537 0.722656H4.29462C3.89012 0.722656 3.56219 1.05059 3.56219 1.45508V22.8328C3.56219 23.027 3.63939 23.2133 3.77675 23.3507L5.93416 25.5081C6.22015 25.7941 6.68392 25.7941 6.96995 25.5081L8.60945 23.8686L10.2489 25.5081C10.3863 25.6455 10.5725 25.7227 10.7668 25.7227C10.9611 25.7227 11.1474 25.6455 11.2847 25.5081L12.9241 23.8686L14.5636 25.5081C14.701 25.6455 14.8873 25.7227 15.0815 25.7227C15.2758 25.7227 15.4621 25.6455 15.5994 25.5081L17.2389 23.8686L18.8784 25.5081C19.0214 25.6511 19.2088 25.7227 19.3962 25.7227C19.5837 25.7227 19.7711 25.6512 19.9142 25.5081L22.0716 23.3507C22.2089 23.2133 22.2861 23.027 22.2861 22.8328V1.45508C22.2861 1.05059 21.9582 0.722656 21.5537 0.722656ZM19.3962 23.9544L17.7567 22.3149C17.6194 22.1775 17.4331 22.1004 17.2388 22.1004C17.0445 22.1004 16.8583 22.1775 16.7209 22.3149L15.0815 23.9544L13.442 22.3149C13.156 22.0289 12.6922 22.0289 12.4062 22.3149L10.7667 23.9544L9.12722 22.3149C8.98987 22.1775 8.80359 22.1004 8.6093 22.1004C8.41507 22.1004 8.22879 22.1775 8.09143 22.3149L6.45194 23.9544L5.02694 22.5294V2.1875H20.8212V22.5294H20.8212L19.3962 23.9544Z" fill="#FF8A00"/>
</g>
<defs>
<clipPath id="clip0">
<rect width="25" height="25" fill="white" transform="translate(0.424316 0.722656)"/>
</clipPath>
</defs>
</svg>
