<svg width="26" height="26" viewBox="0 0 26 26" fill="none" xmlns="http://www.w3.org/2000/svg">
<g clip-path="url(#clip0)">
<path d="M24.3003 17.2187C24.8127 16.5652 25.0584 15.8646 25.027 15.1432C24.9956 14.3485 24.6401 13.7264 24.3474 13.3448C24.6872 12.4979 24.8179 11.1647 23.6834 10.1296C22.8522 9.37155 21.4406 9.03173 19.4854 9.12583C18.1104 9.18857 16.9603 9.44474 16.9132 9.45519H16.908C16.6466 9.50225 16.3695 9.55975 16.0872 9.62249C16.0663 9.2879 16.1238 8.45666 16.7407 6.58506C17.4726 4.35795 17.4308 2.65365 16.6048 1.51396C15.7369 0.316759 14.3515 0.222656 13.9438 0.222656C13.5517 0.222656 13.1909 0.384722 12.9348 0.682715C12.3545 1.35712 12.4224 2.60137 12.4956 3.17644C11.8055 5.02713 9.8712 9.56498 8.23486 10.8249C8.20349 10.8458 8.17735 10.872 8.15121 10.8981C7.67024 11.4052 7.34611 11.9541 7.12653 12.4351C6.81809 12.2678 6.46781 12.1737 6.0914 12.1737H2.90236C1.69994 12.1737 0.727539 13.1513 0.727539 14.3485V22.8439C0.727539 24.0464 1.70516 25.0188 2.90236 25.0188H6.0914C6.55669 25.0188 6.99061 24.8724 7.34611 24.6214L8.57467 24.7678C8.76288 24.794 12.1088 25.2174 15.5435 25.1495C16.1656 25.1965 16.7512 25.2227 17.2949 25.2227C18.2307 25.2227 19.0462 25.1495 19.7259 25.0031C21.3256 24.6633 22.4183 23.9836 22.9724 22.9851C23.3959 22.2218 23.3959 21.4638 23.3279 20.9828C24.3683 20.0418 24.5513 19.0014 24.5147 18.2695C24.4937 17.846 24.3996 17.4853 24.3003 17.2187ZM2.90236 23.6072C2.4789 23.6072 2.13908 23.2622 2.13908 22.8439V14.3433C2.13908 13.9199 2.48413 13.58 2.90236 13.58H6.0914C6.51487 13.58 6.85468 13.9251 6.85468 14.3433V22.8387C6.85468 23.2622 6.50964 23.602 6.0914 23.602H2.90236V23.6072ZM22.962 16.607C22.7424 16.837 22.7006 17.1873 22.8679 17.4592C22.8679 17.4644 23.0822 17.8304 23.1083 18.3322C23.1449 19.0171 22.8156 19.6235 22.1255 20.1411C21.8798 20.3293 21.7804 20.6534 21.885 20.9462C21.885 20.9514 22.1098 21.6415 21.7438 22.295C21.3936 22.9224 20.6146 23.372 19.4331 23.6229C18.4868 23.8268 17.2008 23.8634 15.6219 23.7379C15.601 23.7379 15.5749 23.7379 15.5487 23.7379C12.1872 23.8111 8.78902 23.372 8.75242 23.3667H8.7472L8.21917 23.304C8.25054 23.1576 8.26623 23.0008 8.26623 22.8439V14.3433C8.26623 14.1185 8.22963 13.8989 8.16689 13.6951C8.261 13.3448 8.52239 12.5658 9.13929 11.9019C11.4866 10.0407 13.7817 3.76197 13.881 3.49012C13.9229 3.38033 13.9333 3.26009 13.9124 3.13985C13.8235 2.55432 13.8549 1.83809 13.9804 1.62374C14.2574 1.62897 15.005 1.70739 15.4546 2.32952C15.9879 3.06665 15.967 4.38409 15.3919 6.13023C14.5136 8.79125 14.4404 10.1923 15.1357 10.8092C15.4808 11.1177 15.9408 11.1334 16.2754 11.0131C16.5943 10.9399 16.8976 10.8772 17.1851 10.8301C17.206 10.8249 17.2321 10.8197 17.2531 10.8145C18.858 10.4642 21.7334 10.2498 22.7319 11.1595C23.5789 11.9332 22.9776 12.9579 22.9097 13.0677C22.7162 13.3605 22.7738 13.7421 23.0352 13.9774C23.0404 13.9826 23.5893 14.5002 23.6155 15.1955C23.6364 15.6608 23.4168 16.1365 22.962 16.607Z" fill="#FF8A00"/>
</g>
<defs>
<clipPath id="clip0">
<rect width="25" height="25" fill="white" transform="translate(0.378418 0.222656)"/>
</clipPath>
</defs>
</svg>
