<svg width="94" height="72" viewBox="0 0 94 72" fill="none" xmlns="http://www.w3.org/2000/svg">
<path d="M91.5339 4.05252C91.5339 4.05252 75.4935 3.84024 46.2544 4.94394C45.1361 4.98625 44.1692 4.88047 43.1049 4.94394C46.5943 6.86924 49.4609 9.80303 51.7243 13.1564C52.8526 14.8349 53.8025 16.6579 54.53 18.5974C55.5539 21.3055 56.1534 24.2393 56.2477 27.3071C56.2579 27.5927 56.2612 27.8783 56.2612 28.1639C56.2612 31.4256 55.6886 34.5463 54.6445 37.4237C58.7907 37.332 61.4112 37.2227 61.4112 37.2227H62.4418C63.816 37.2227 65.069 38.069 65.6247 39.3913C69.7979 49.3281 69.707 59.8926 69.1916 65.7672C68.9727 68.2567 70.842 70.4007 73.2301 70.4007H91.5339M6.04852 14.4188C5.92053 14.507 5.86327 14.6692 5.90369 14.8243L6.07884 15.5084C6.20009 15.9739 6.16641 16.4675 5.99126 16.9083L4.93366 19.5388C4.85619 19.7257 4.67768 19.8527 4.48232 19.8527H4.40822C4.28023 19.8527 4.15898 19.9303 4.10509 20.0466L2.03366 24.4367C1.85852 24.807 1.76758 25.216 1.76758 25.6321V29.8741C1.76758 30.4665 1.95956 31.0378 2.40753 31.6231L3.01043 32.4059C3.55945 33.1218 4.29034 33.6648 5.11554 33.9751C5.75212 34.2149 6.45607 34.437 7.21728 34.6521C6.71542 32.5787 6.44597 30.4136 6.44597 28.178C6.44597 27.7972 6.4527 27.4164 6.47291 27.0355C6.57059 24.5672 7.00172 22.1905 7.71577 19.9444C8.31194 18.0543 9.11019 16.263 10.0836 14.5951C10.7943 13.3821 11.4881 12.0578 12.3739 10.9858C8.61844 12.4985 6.675 13.9851 6.04852 14.4188ZM49.8044 18.7031C48.8816 16.7038 47.6758 14.8807 46.2342 13.2834C42.4955 9.14011 37.194 6.55188 31.3165 6.55188C30.3095 6.55188 29.3192 6.62946 28.3492 6.77756C27.908 6.85513 27.4735 6.93271 27.0491 7.01734C27.0457 7.01734 27.0423 7.01734 27.039 7.02087C22.4414 8.03994 18.4164 10.674 15.5232 14.3236V14.3271C14.2298 15.9527 13.1655 17.871 12.3739 19.8527C12.0674 20.6284 11.8014 21.4278 11.5791 22.2423C11.5791 22.2423 11.5791 22.9593 11.5791 22.9628C11.606 23.1038 12.2426 25.6815 16.1328 24.0171C20.0972 22.3245 21.0706 22.4903 23.5428 20.4169C24.0514 19.9867 24.6476 19.6341 25.2774 19.3484H25.2808C27.7126 18.2342 30.6934 18.0578 31.5591 18.0578C32.3304 18.0578 34.7723 18.1954 37.0121 19.0134C37.2917 19.1122 37.5712 19.2285 37.8407 19.3484H37.8441C38.4739 19.6341 39.0701 19.9867 39.5787 20.4169C42.0509 22.4938 43.0243 22.3245 46.9886 24.0171C49.6798 25.1702 50.8149 23.8972 51.2629 22.9628C50.9193 21.4818 50.4276 20.0501 49.8044 18.7031Z" stroke="#126E82" stroke-width="3" stroke-miterlimit="10" stroke-linecap="round" stroke-linejoin="round"/>
<path d="M9.91175 14.418C9.78239 14.418 9.7168 14.418 9.7168 14.418" stroke="#126E82" stroke-width="3" stroke-miterlimit="10" stroke-linecap="round" stroke-linejoin="round"/>
<path d="M91.7672 9.49121H62.712C61.9161 9.49121 61.2773 10.1008 61.2773 10.8571V35.3071C61.2773 36.0634 61.9161 36.673 62.712 36.673H91.7672" stroke="#126E82" stroke-width="3" stroke-miterlimit="10" stroke-linecap="round" stroke-linejoin="round"/>
<path d="M91.7668 32.9044H67.5016C66.8269 32.9044 66.2832 32.3604 66.2832 31.6941V14.93C66.2832 14.2605 66.8301 13.7197 67.5016 13.7197H91.7668" stroke="#126E82" stroke-width="3" stroke-miterlimit="10" stroke-linecap="round" stroke-linejoin="round"/>
<path d="M71.5723 41.3789C71.5723 41.3789 75.5516 54.839 74.2337 65.6121" stroke="#126E82" stroke-width="3" stroke-miterlimit="10" stroke-linecap="round" stroke-linejoin="round"/>
<path d="M31.2363 49.4314C31.3217 49.4333 31.4071 49.4333 31.4889 49.4333C32.7162 49.4333 33.9222 49.3799 35.0961 49.2787L35.1139 49.229C33.8582 49.3541 32.5597 49.4222 31.2363 49.4314Z" stroke="#126E82" stroke-width="3" stroke-miterlimit="10" stroke-linecap="round" stroke-linejoin="round"/>
<path d="M51.0133 22.8808C50.5712 23.8146 49.4477 25.0831 46.7951 23.9344C42.8827 22.2431 41.9221 22.4087 39.4823 20.3368C38.9803 19.9069 38.392 19.5546 37.7704 19.2691H37.7671C37.5011 19.1458 37.2286 19.0331 36.9493 18.9344C34.7422 18.1169 32.3323 17.9795 31.5677 17.9795C30.7101 17.9795 27.7684 18.1557 25.3718 19.2691H25.3684C24.7468 19.5546 24.1585 19.9069 23.6566 20.3368C21.2167 22.4122 20.2561 22.2431 16.3437 23.9344C12.5044 25.5975 11.8762 22.2113 11.8496 22.0704C11.8496 22.0669 11.8496 22.0669 11.8496 22.0669C12.069 21.2494 12.3316 20.4566 12.6341 19.6849C13.4152 17.7047 14.4656 15.8759 15.742 14.2516V14.2445C18.5974 10.5941 22.5729 7.96547 27.1069 6.94715C27.1102 6.94362 27.1135 6.94363 27.1169 6.94363C27.5423 6.84849 27.9678 6.76745 28.3999 6.70403C29.3573 6.55603 30.3345 6.47852 31.3284 6.47852C37.1288 6.47852 42.3609 9.06483 46.0505 13.205C47.4765 14.7977 48.6665 16.6229 49.574 18.6208C50.1956 19.9633 50.6809 21.3939 51.0133 22.8808Z" stroke="#126E82" stroke-width="3" stroke-miterlimit="10" stroke-linecap="round" stroke-linejoin="round"/>
<path d="M51.7884 27.8912C51.7884 30.3625 51.396 32.7383 50.6743 34.9444C50.6211 34.75 50.5446 34.5838 50.4615 34.4459C50.2486 34.0924 49.8628 33.8979 49.4671 33.9262L42.0806 34.4636C41.5418 34.5025 41.0729 34.8419 40.8168 35.3474C40.5707 35.8353 40.2481 36.3268 39.9022 36.7934C39.7526 36.9949 39.5929 37.1965 39.4333 37.3909C38.3192 38.7379 37.1186 39.7632 37.1186 39.7632L35.3892 49.0401C34.2119 49.2805 33.0013 49.4149 31.7608 49.429C31.681 49.4326 31.6012 49.4326 31.5247 49.4326C30.3773 49.4326 29.2499 49.33 28.1524 49.1356L26.403 39.7632C26.403 39.7632 24.8366 38.4233 23.6227 36.7934C23.2735 36.3268 22.9542 35.8389 22.7081 35.3474C22.4521 34.8419 21.9831 34.5025 21.4444 34.4636L14.0579 33.9262C13.6488 33.8979 13.2564 34.1065 13.0435 34.4777C12.8905 34.7464 12.7642 35.1141 12.7741 35.5878C12.7775 35.8141 12.814 36.0651 12.8905 36.348C12.7874 36.0863 12.6843 35.8247 12.5912 35.556C11.7332 33.1732 11.2676 30.5852 11.2676 27.8842C11.2676 27.5589 11.2742 27.2372 11.2875 26.9155C11.3574 25.2114 11.6135 23.5639 12.0358 21.9835C12.0624 22.1249 12.691 25.5225 16.5322 23.8538C20.4466 22.1568 21.4078 22.3229 23.8489 20.2441C24.3511 19.8128 24.9397 19.4592 25.5616 19.1729H25.565C27.9661 18.0557 30.9094 17.8789 31.7641 17.8789C32.5257 17.8789 34.9369 18.0168 37.1485 18.837C37.4246 18.936 37.7006 19.0527 37.9667 19.1729H37.97C38.5919 19.4592 39.1805 19.8128 39.6827 20.2441C42.1238 22.3265 43.085 22.1568 46.9994 23.8538C49.6566 25.0099 50.7774 23.7336 51.2197 22.7967C51.5423 24.1967 51.7319 25.6533 51.7785 27.1453C51.7851 27.3998 51.7884 27.6437 51.7884 27.8912Z" stroke="#126E82" stroke-width="3" stroke-miterlimit="10" stroke-linecap="round" stroke-linejoin="round"/>
<path d="M35.1139 49.229L35.0961 49.2787C33.9222 49.3799 32.7162 49.4333 31.4889 49.4333C31.4035 49.4333 31.3181 49.4333 31.2363 49.4314C32.5597 49.4241 33.8582 49.356 35.1139 49.229Z" stroke="#126E82" stroke-width="3" stroke-miterlimit="10" stroke-linecap="round" stroke-linejoin="round"/>
<path d="M56.2382 27.1975C56.1443 24.1319 55.5468 21.2002 54.5265 18.4941C53.8016 16.5561 52.8551 14.7344 51.7307 13.0571C49.4753 9.70618 46.4915 6.93308 43.0144 5.00918C39.5574 3.0888 35.6171 2 31.4318 2C23.9136 2 17.1809 5.50953 12.6297 11.0522C11.747 12.1234 10.9482 13.2756 10.24 14.4877C9.27007 16.1544 8.47463 17.9444 7.88056 19.8331C7.16903 22.0741 6.73942 24.449 6.64208 26.9191C6.6253 27.2961 6.61523 27.6767 6.61523 28.0608C6.61523 30.2947 6.88374 32.4618 7.38383 34.5301C10.1259 45.7881 19.8525 54.1145 31.4284 54.1145C42.031 54.1145 51.0796 47.1342 54.6339 37.3138C55.6777 34.4385 56.245 31.3201 56.245 28.0608C56.2517 27.7683 56.2483 27.4829 56.2382 27.1975ZM35.2915 49.0017L35.2747 49.0968C34.1672 49.2906 33.0294 49.3928 31.8714 49.3928C31.7909 49.3928 31.7103 49.3928 31.6331 49.3893C31.5526 49.3928 31.472 49.3928 31.3949 49.3928C30.2369 49.3928 29.0991 49.2906 27.9916 49.0968C21.044 47.8776 15.2846 42.9727 12.5895 36.3659C12.5895 36.3624 12.5895 36.3624 12.5861 36.3589C12.4821 36.0982 12.378 35.8374 12.284 35.5696C11.4181 33.1947 10.9482 30.6154 10.9482 27.9233C10.9482 27.5992 10.9549 27.2785 10.9684 26.9579C11.0388 25.2595 11.2973 23.6175 11.7235 22.0424C11.7235 22.0389 11.7235 22.0389 11.7235 22.0389C11.9451 21.2214 12.2102 20.4286 12.5156 19.6569C13.3044 17.6766 14.3649 15.8479 15.6538 14.2235C18.5368 10.573 22.551 7.94436 27.129 6.92603C27.1323 6.92251 27.1357 6.92251 27.1391 6.92251C27.5687 6.82737 27.9983 6.74633 28.4346 6.6829C29.4012 6.53491 30.388 6.45739 31.3915 6.45739C37.2483 6.45739 42.5311 9.04373 46.2566 13.184C47.6964 14.7767 48.898 16.6019 49.8143 18.5998C50.4352 19.9458 50.9252 21.3764 51.2642 22.8634C51.5898 24.2588 51.7811 25.7105 51.8281 27.1975C51.8381 27.4406 51.8415 27.6872 51.8415 27.9304C51.8415 30.3934 51.4454 32.7613 50.7171 34.96C50.4419 35.7951 50.1163 36.6056 49.7505 37.3913C46.9715 43.3251 41.6584 47.7156 35.2915 49.0017Z" stroke="#126E82" stroke-width="3" stroke-miterlimit="10" stroke-linecap="round" stroke-linejoin="round"/>
</svg>
