<svg width="66" height="69" viewBox="0 0 66 69" fill="none" xmlns="http://www.w3.org/2000/svg">
<path d="M50.0499 4.98782C43.8698 1.05948 36.4814 -0.63557 29.2456 0.214357C25.6285 0.639321 22.1337 1.67521 18.8591 3.29331C15.4708 4.96764 12.396 7.22913 9.72007 10.015C4.37724 15.5774 1.01913 22.9436 0.264096 30.756C-0.480412 38.4592 1.31875 46.263 5.33014 52.73C5.57562 53.1259 5.98816 53.3413 6.40931 53.3413C6.64772 53.3413 6.88896 53.2721 7.10416 53.1275C7.69956 52.7272 7.87048 51.9003 7.48603 51.2804C-0.192592 38.9011 1.51008 22.341 11.5349 11.9044C21.4608 1.56994 36.7487 -0.336452 48.7126 7.26827C49.3176 7.65276 50.1073 7.4541 50.4766 6.8242C50.8459 6.19444 50.6549 5.3723 50.0499 4.98782Z" fill="#126E82"/>
<path d="M11.576 56.5382L11.534 56.4947C11.0329 55.9731 10.2207 55.9731 9.71948 56.4947C9.21851 57.0164 9.21851 57.8623 9.71948 58.3842L9.769 58.4357C10.0192 58.694 10.3458 58.823 10.6724 58.823C11.0024 58.823 11.3326 58.6911 11.5834 58.4278C12.0825 57.9038 12.079 57.0579 11.576 56.5382Z" fill="#126E82"/>
<path d="M60.601 15.7174C60.2176 15.0967 59.4232 14.9174 58.8275 15.3166C58.2315 15.7158 58.0591 16.5425 58.4426 17.163C66.0876 29.5345 64.373 46.0756 54.3659 56.4941C44.2217 67.0554 28.1923 68.7445 16.2518 60.51C15.6611 60.1022 14.8646 60.2706 14.4733 60.8859C14.082 61.501 14.2436 62.3301 14.8344 62.7375C20.1971 66.4357 26.5388 68.4001 32.9726 68.3998C34.0057 68.3998 35.0423 68.349 36.0765 68.2467C43.6513 67.4975 50.7911 63.9946 56.1807 58.3835C61.5165 52.8283 64.8737 45.4723 65.6338 37.6704C66.3833 29.9787 64.5959 22.1822 60.601 15.7174Z" fill="#126E82"/>
<path d="M56.2492 10.0889L56.1785 10.0152C55.6774 9.49364 54.8654 9.49364 54.364 10.0152C53.863 10.5369 53.863 11.3828 54.364 11.9047L54.4297 11.9733C54.6805 12.2358 55.0098 12.3671 55.3394 12.3671C55.6665 12.3671 55.9938 12.2375 56.2441 11.9785C56.7466 11.4581 56.7489 10.6121 56.2492 10.0889Z" fill="#126E82"/>
<path d="M32.9509 7.2124C18.6577 7.2124 7.0293 19.3189 7.0293 34.1997C7.0293 49.0805 18.6577 61.1869 32.9509 61.1869C47.2442 61.1869 58.8726 49.0805 58.8726 34.1997C58.8726 19.3189 47.2442 7.2124 32.9509 7.2124ZM55.6829 28.6127H45.9063L52.813 21.4222C54.118 23.6131 55.0983 26.0341 55.6829 28.6127ZM38.3171 10.533C40.7941 11.1417 43.1196 12.1625 45.2238 13.521L38.3171 20.7116V10.533ZM27.5846 10.533V20.7116L20.678 13.521C22.7824 12.1625 25.1078 11.1418 27.5846 10.533ZM13.0889 21.4222L19.9956 28.6127H10.2189C10.8036 26.0341 11.784 23.6131 13.0889 21.4222ZM10.2189 39.7864H19.9956L13.0889 46.977C11.784 44.7862 10.8036 42.3652 10.2189 39.7864ZM27.5846 57.8662C25.1077 57.2575 22.7822 56.2367 20.678 54.8782L27.5846 47.6876V57.8662ZM38.3171 57.8662V47.6876L45.2238 54.8782C43.1196 56.2368 40.7941 57.2575 38.3171 57.8662ZM52.813 46.9771L45.9063 39.7866H55.6829C55.0983 42.3652 54.118 44.7862 52.813 46.9771ZM42.8082 37.1141C42.2891 37.1141 41.8213 37.4397 41.6226 37.9388C41.4241 38.4381 41.534 39.0127 41.9008 39.3947L51.3195 49.2006C50.1621 50.7332 48.8321 52.1179 47.3602 53.3226L37.9415 43.5168C37.5747 43.1348 37.0228 43.0206 36.5431 43.2272C36.0637 43.434 35.751 43.921 35.751 44.4614V58.3389C34.8327 58.4537 33.8987 58.5144 32.9513 58.5144C32.0039 58.5144 31.0698 58.4537 30.1517 58.3389V44.4621C30.1517 43.9217 29.8389 43.4346 29.3595 43.2278C28.8801 43.0213 28.3281 43.1355 27.9611 43.5175L18.5425 53.3233C17.0705 52.1185 15.7404 50.7337 14.5832 49.2012L24.0018 39.3954C24.3687 39.0133 24.4785 38.4387 24.28 37.9395C24.0814 37.4404 23.6135 37.1148 23.0945 37.1148H9.76416C9.65394 36.1588 9.59568 35.1864 9.59568 34.2001C9.59568 33.2137 9.65394 32.2412 9.76416 31.2853H23.0937C23.6128 31.2853 24.0806 30.9597 24.2793 30.4606C24.4778 29.9614 24.3679 29.3868 24.0011 29.0047L14.5824 19.1989C15.7397 17.6664 17.0698 16.2816 18.5417 15.0768L27.9605 24.8823C28.2059 25.1378 28.5342 25.2736 28.8681 25.2736C29.0334 25.2736 29.2002 25.2403 29.3589 25.1719C29.8383 24.9651 30.151 24.478 30.151 23.9376V10.0597C31.0693 9.94494 32.0033 9.88429 32.9507 9.88429C33.8981 9.88429 34.8322 9.94494 35.7504 10.0597V23.9372C35.7504 24.4776 36.0631 24.9647 36.5425 25.1715C36.7012 25.2399 36.868 25.2732 37.0333 25.2732C37.3673 25.2732 37.6954 25.1374 37.9409 24.8819L47.3595 15.076C48.8319 16.2808 50.1619 17.6656 51.3191 19.1981L41.9004 29.0039C41.5336 29.386 41.4237 29.9606 41.6222 30.4598C41.8209 30.9589 42.2887 31.2845 42.8078 31.2845H56.1373C56.2476 32.2405 56.3058 33.2129 56.3058 34.1993C56.3058 35.1856 56.2476 36.1581 56.1373 37.114H42.8082V37.1141Z" fill="#126E82"/>
<path d="M32.9493 30.1919C30.8265 30.1919 29.0996 31.9899 29.0996 34.1999C29.0996 36.4099 30.8267 38.2078 32.9493 38.2078C35.0721 38.2078 36.799 36.4098 36.799 34.1999C36.7992 31.9899 35.0721 30.1919 32.9493 30.1919ZM32.9493 35.5359C32.2418 35.5359 31.6661 34.9366 31.6661 34.1999C31.6661 33.4632 32.2418 32.8639 32.9493 32.8639C33.6569 32.8639 34.2325 33.4632 34.2325 34.1999C34.2326 34.9366 33.657 35.5359 32.9493 35.5359Z" fill="#126E82"/>
<path d="M41.5618 33.2497C41.0636 32.725 40.2513 32.7202 39.7475 33.2389L39.7365 33.2502C39.2325 33.769 39.2279 34.6149 39.7261 35.1397C39.977 35.4041 40.3076 35.5364 40.6383 35.5364C40.9642 35.5364 41.2903 35.4079 41.5402 35.1505L41.5513 35.1391C42.0555 34.6204 42.0601 33.7743 41.5618 33.2497Z" fill="#126E82"/>
<path d="M33.8722 41.2764L33.8614 41.2649C33.3633 40.7401 32.5508 40.7354 32.047 41.254C31.5431 41.7728 31.5385 42.6187 32.0366 43.1435L32.0475 43.155C32.2985 43.4194 32.6291 43.5518 32.9598 43.5518C33.2856 43.5518 33.6118 43.4232 33.8617 43.1658C34.3657 42.6469 34.3703 41.801 33.8722 41.2764Z" fill="#126E82"/>
<path d="M26.1732 33.2599C25.6752 32.7353 24.8627 32.7305 24.3588 33.2491L24.3478 33.2605C23.8439 33.7792 23.8392 34.6251 24.3374 35.1499C24.5883 35.4143 24.9189 35.5467 25.2497 35.5467C25.5755 35.5467 25.9016 35.4182 26.1516 35.1607L26.1626 35.1494C26.6668 34.6306 26.6714 33.7846 26.1732 33.2599Z" fill="#126E82"/>
<path d="M33.8626 25.2558L33.8517 25.2443C33.3536 24.7197 32.5412 24.7149 32.0372 25.2335C31.5333 25.7522 31.5287 26.5982 32.0269 27.1229L32.0379 27.1344C32.2888 27.3988 32.6194 27.5312 32.9502 27.5312C33.276 27.5312 33.6021 27.4027 33.852 27.1452C34.3561 26.6265 34.3607 25.7806 33.8626 25.2558Z" fill="#126E82"/>
<path d="M38.4018 38.5234H38.3864C37.678 38.5234 37.1035 39.1217 37.1035 39.8594C37.1035 40.5971 37.678 41.1954 38.3864 41.1954H38.4018C39.1102 41.1954 39.6847 40.5971 39.6847 39.8594C39.6848 39.1217 39.1105 38.5234 38.4018 38.5234Z" fill="#126E82"/>
<path d="M27.5134 38.5234C26.805 38.5234 26.2305 39.1217 26.2305 39.8594V39.8754C26.2305 40.6131 26.805 41.2114 27.5134 41.2114C28.2218 41.2114 28.7963 40.6131 28.7963 39.8754V39.8594C28.7963 39.1215 28.2218 38.5234 27.5134 38.5234Z" fill="#126E82"/>
<path d="M27.5131 27.2036H27.4977C26.7893 27.2036 26.2148 27.8018 26.2148 28.5395C26.2148 29.2772 26.7893 29.8755 27.4977 29.8755H27.5131C28.2216 29.8755 28.796 29.2772 28.796 28.5395C28.796 27.8018 28.2216 27.2036 27.5131 27.2036Z" fill="#126E82"/>
<path d="M38.3864 27.187C37.678 27.187 37.1035 27.7852 37.1035 28.5229V28.539C37.1035 29.2768 37.678 29.8749 38.3864 29.8749C39.0948 29.8749 39.6693 29.2767 39.6693 28.539V28.5229C39.6694 27.7852 39.095 27.187 38.3864 27.187Z" fill="#126E82"/>
</svg>
