<svg width="24" height="25" fill="none" xmlns="http://www.w3.org/2000/svg"><path d="M4.501 17.167c-1.5 1.26-2 5-2 5s3.74-.5 5-2c.71-.84.7-2.13-.09-2.91a2.18 2.18 0 0 0-2.91-.09Zm7.5-1.5-3-3a22.001 22.001 0 0 1 2-3.95 12.88 12.88 0 0 1 11-6.05c0 2.72-.78 7.5-6 11a22.342 22.342 0 0 1-4 2Z" fill="#4C4F57"/><path d="M9.001 12.667h-5s.55-3.03 2-4c1.62-1.08 5 0 5 0m1 7v5s3.03-.55 4-2c1.08-1.62 0-5 0-5" fill="#4C4F57"/><path d="m12.001 15.667-3-3m3 3a22.342 22.342 0 0 0 4-2m-4 2v5s3.03-.55 4-2c1.08-1.62 0-5 0-5m-7-1a22.001 22.001 0 0 1 2-3.95 12.88 12.88 0 0 1 11-6.05c0 2.72-.78 7.5-6 11m-7-1h-5s.55-3.03 2-4c1.62-1.08 5 0 5 0m-6.5 8.5c-1.5 1.26-2 5-2 5s3.74-.5 5-2c.71-.84.7-2.13-.09-2.91a2.18 2.18 0 0 0-2.91-.09Z" stroke="#101420" stroke-width="1.333" stroke-linecap="round" stroke-linejoin="round"/></svg>