<svg width="25" height="25" fill="none" xmlns="http://www.w3.org/2000/svg"><path d="M9.835 12.667a4.5 4.5 0 1 0 0-9 4.5 4.5 0 0 0 0 9Zm0 3c-2.83 0-5.347 1.545-6.941 3.938-.35.525-.524.787-.504 1.122.016.26.187.58.395.738.268.202.636.202 1.372.202h11.355c.737 0 1.105 0 1.372-.202a1.11 1.11 0 0 0 .395-.738c.02-.335-.154-.597-.503-1.122-1.595-2.393-4.11-3.938-6.941-3.938Z" fill="#4C4F57"/><path d="M18.335 16.504c1.456.731 2.704 1.905 3.615 3.373.18.29.27.436.302.637.063.409-.216.912-.597 1.073-.188.08-.399.08-.82.08m-4.5-9.468a4.5 4.5 0 0 0 0-8.064m-2 4.032a4.5 4.5 0 1 1-9 0 4.5 4.5 0 0 1 9 0ZM2.894 19.605c1.594-2.393 4.11-3.938 6.94-3.938 2.831 0 5.347 1.545 6.942 3.938.349.525.523.787.503 1.122a1.11 1.11 0 0 1-.395.738c-.267.202-.635.202-1.372.202H4.157c-.736 0-1.104 0-1.372-.202a1.109 1.109 0 0 1-.395-.738c-.02-.335.155-.597.504-1.122Z" stroke="#4C4F57" stroke-width="1.333" stroke-linecap="round" stroke-linejoin="round"/></svg>