<svg width="274" height="43" fill="none" xmlns="http://www.w3.org/2000/svg"><path d="M67.412 31.813c-1.45 0-2.709-.226-3.777-.678-1.059-.46-1.888-1.115-2.487-1.966-.599-.85-.933-1.862-1.002-3.034h2.943c.06.703.286 1.29.677 1.758.399.46.915.803 1.55 1.029a6.17 6.17 0 0 0 2.082.338c.825 0 1.563-.13 2.214-.39s1.159-.625 1.523-1.094c.374-.477.56-1.033.56-1.667 0-.573-.165-1.041-.494-1.406-.322-.364-.76-.664-1.316-.898a12.773 12.773 0 0 0-1.875-.638l-2.278-.625c-1.563-.417-2.795-1.038-3.698-1.862-.903-.834-1.354-1.923-1.354-3.268 0-1.12.3-2.097.898-2.93.608-.834 1.428-1.48 2.461-1.94 1.042-.47 2.21-.704 3.503-.704 1.32 0 2.478.235 3.476.704 1.007.46 1.801 1.093 2.383 1.9.59.8.898 1.715.925 2.748h-2.839c-.104-.894-.52-1.588-1.25-2.083-.72-.495-1.64-.742-2.76-.742-.782 0-1.468.126-2.058.377-.581.243-1.033.582-1.354 1.016a2.497 2.497 0 0 0-.469 1.497c0 .608.187 1.103.56 1.485.382.382.842.685 1.38.911.547.217 1.073.395 1.576.534l1.888.508c.616.156 1.25.364 1.901.625.651.26 1.254.603 1.81 1.028a4.698 4.698 0 0 1 1.354 1.563c.347.616.52 1.363.52 2.24 0 1.084-.281 2.057-.845 2.916-.565.85-1.38 1.523-2.448 2.018-1.068.486-2.362.73-3.88.73Zm9.335-.313V16.943h2.813V31.5h-2.813Zm1.42-16.797c-.495 0-.916-.165-1.263-.495a1.577 1.577 0 0 1-.521-1.185c0-.468.173-.868.52-1.197a1.77 1.77 0 0 1 1.264-.495c.486 0 .902.165 1.25.495.356.33.534.729.534 1.197 0 .46-.178.856-.534 1.185a1.75 1.75 0 0 1-1.25.495Zm10.169 22.552c-1.736 0-3.103-.325-4.102-.976-.998-.651-1.688-1.424-2.07-2.318l2.422-1.003c.174.278.404.573.69.886.295.312.69.577 1.185.794.495.217 1.133.326 1.914.326 1.068 0 1.953-.26 2.656-.782.703-.512 1.055-1.337 1.055-2.474v-2.851h-.195a5.738 5.738 0 0 1-.717 1.028c-.32.374-.76.7-1.315.977-.555.278-1.28.417-2.174.417-1.146 0-2.179-.27-3.1-.808-.91-.547-1.64-1.345-2.187-2.395-.538-1.06-.807-2.362-.807-3.907s.265-2.869.794-3.971c.539-1.111 1.268-1.962 2.188-2.552.92-.59 1.966-.886 3.138-.886.903 0 1.632.152 2.187.456.565.295 1.003.642 1.316 1.042.312.4.555.75.729 1.055h.208v-2.37h2.747v14.883c0 1.25-.29 2.274-.872 3.072-.573.799-1.354 1.39-2.344 1.771-.99.39-2.105.586-3.346.586Zm-.026-8.333c1.224 0 2.161-.421 2.812-1.263.66-.85.99-2.027.99-3.529 0-.98-.143-1.84-.43-2.578-.286-.746-.712-1.328-1.276-1.745-.564-.425-1.263-.638-2.096-.638-.85 0-1.563.222-2.136.664-.564.434-.99 1.029-1.276 1.784-.286.747-.43 1.584-.43 2.513 0 .946.144 1.784.43 2.513.287.72.717 1.28 1.29 1.68.581.4 1.289.599 2.122.599Zm9.297 2.578V16.943h2.695v2.395h.195c.304-.807.799-1.436 1.485-1.887.694-.46 1.519-.69 2.474-.69.972 0 1.784.23 2.435.69.659.45 1.15 1.08 1.471 1.887h.156a4.074 4.074 0 0 1 1.654-1.875c.755-.468 1.654-.703 2.695-.703 1.32 0 2.4.417 3.242 1.25.842.825 1.263 2.07 1.263 3.737V31.5h-2.838v-9.492c0-.99-.269-1.702-.807-2.136-.539-.442-1.181-.664-1.928-.664-.92 0-1.636.287-2.148.86-.503.564-.755 1.28-.755 2.148V31.5h-2.839v-9.674c0-.79-.243-1.424-.729-1.902-.486-.477-1.124-.716-1.914-.716a2.78 2.78 0 0 0-1.497.43 3.098 3.098 0 0 0-1.094 1.172c-.269.495-.404 1.068-.404 1.719V31.5h-2.812Zm26.692.313c-.92 0-1.753-.17-2.5-.508a4.181 4.181 0 0 1-1.77-1.51c-.434-.66-.651-1.463-.651-2.41 0-.824.156-1.497.468-2.018.322-.53.751-.95 1.289-1.263a6.593 6.593 0 0 1 1.797-.703c.66-.156 1.337-.278 2.032-.364.876-.096 1.584-.178 2.122-.248.538-.07.929-.178 1.172-.326.252-.156.377-.403.377-.742v-.065c0-.824-.234-1.462-.703-1.914-.46-.451-1.146-.677-2.057-.677-.946 0-1.697.208-2.253.625-.546.408-.924.872-1.132 1.393l-2.67-.612c.321-.885.786-1.597 1.394-2.135a5.79 5.79 0 0 1 2.109-1.198 8.27 8.27 0 0 1 2.5-.378c.582 0 1.198.07 1.849.209.651.13 1.263.377 1.836.742.581.356 1.054.868 1.419 1.536.365.669.547 1.532.547 2.591V31.5h-2.773v-1.992h-.105c-.173.356-.447.712-.82 1.068-.365.355-.833.65-1.406.885-.573.234-1.263.352-2.071.352Zm.612-2.266c.79 0 1.463-.152 2.019-.456.555-.312.981-.72 1.276-1.224a3.118 3.118 0 0 0 .442-1.601v-1.888c-.104.095-.299.186-.586.273a7.78 7.78 0 0 1-.976.221c-.365.061-.721.118-1.068.17-.347.043-.638.078-.872.104-.547.078-1.046.2-1.498.364-.451.157-.816.391-1.093.703-.269.304-.404.708-.404 1.211 0 .704.26 1.233.781 1.589.521.356 1.181.534 1.979.534Zm14.467-14.935v-2.513h15.026v2.513h-6.042V31.5h-2.917V14.612h-6.067ZM154.846 31.5V16.943h2.722v2.33h.156a3.574 3.574 0 0 1 1.406-1.849 3.983 3.983 0 0 1 2.292-.69c.173 0 .377.01.612.026.243.01.438.022.586.04v2.708a4.027 4.027 0 0 0-.612-.104 7.254 7.254 0 0 0-.873-.052c-.668 0-1.267.143-1.796.43a3.173 3.173 0 0 0-1.237 1.158c-.296.486-.443 1.05-.443 1.693V31.5h-2.813Zm13.23.313c-.921 0-1.754-.17-2.5-.508a4.178 4.178 0 0 1-1.771-1.51c-.434-.66-.651-1.463-.651-2.41 0-.824.156-1.497.468-2.018.322-.53.751-.95 1.289-1.263a6.593 6.593 0 0 1 1.797-.703c.66-.156 1.337-.278 2.032-.364.876-.096 1.584-.178 2.122-.248.538-.07.929-.178 1.172-.326.252-.156.377-.403.377-.742v-.065c0-.824-.234-1.462-.703-1.914-.46-.451-1.146-.677-2.057-.677-.946 0-1.697.208-2.253.625-.546.408-.924.872-1.132 1.393l-2.67-.612c.322-.885.786-1.597 1.394-2.135a5.79 5.79 0 0 1 2.109-1.198 8.27 8.27 0 0 1 2.5-.378c.582 0 1.198.07 1.849.209.651.13 1.263.377 1.836.742.581.356 1.055.868 1.419 1.536.365.669.547 1.532.547 2.591V31.5h-2.773v-1.992h-.105c-.173.356-.447.712-.82 1.068-.365.355-.833.65-1.406.885-.573.234-1.263.352-2.07.352Zm.611-2.266c.79 0 1.463-.152 2.019-.456.555-.312.981-.72 1.276-1.224a3.118 3.118 0 0 0 .442-1.601v-1.888c-.104.095-.299.186-.585.273a7.84 7.84 0 0 1-.977.221c-.365.061-.721.118-1.068.17-.347.043-.638.078-.872.104-.547.078-1.046.2-1.498.364-.451.157-.815.391-1.093.703-.269.304-.404.708-.404 1.211 0 .704.26 1.233.781 1.589.521.356 1.181.534 1.979.534Zm14.701 2.24c-1.181 0-2.231-.3-3.151-.899-.92-.608-1.641-1.471-2.161-2.591-.521-1.129-.782-2.474-.782-4.037 0-1.58.265-2.93.795-4.05.529-1.119 1.254-1.974 2.174-2.564.92-.59 1.962-.886 3.125-.886.911 0 1.641.152 2.188.456.555.295.985.642 1.289 1.042.312.4.551.75.716 1.055h.169v-7.214h2.813V31.5h-2.748v-2.266h-.234a7.345 7.345 0 0 1-.729 1.055c-.322.4-.76.75-1.316 1.055-.546.295-1.263.442-2.148.442Zm.612-2.41c.816 0 1.506-.216 2.07-.65.565-.434.99-1.038 1.276-1.81.295-.773.443-1.667.443-2.683 0-1.015-.143-1.9-.43-2.656-.286-.764-.711-1.354-1.276-1.77-.564-.426-1.258-.639-2.083-.639-.851 0-1.558.222-2.122.664-.565.443-.99 1.046-1.276 1.81-.287.764-.43 1.628-.43 2.591 0 .973.143 1.85.43 2.63.286.773.711 1.385 1.276 1.837.573.45 1.28.677 2.122.677Zm9.284 2.123V16.943h2.812V31.5h-2.812Zm1.419-16.797c-.495 0-.916-.165-1.263-.495a1.578 1.578 0 0 1-.521-1.185c0-.468.174-.868.521-1.197.347-.33.768-.495 1.263-.495.486 0 .903.165 1.25.495.356.33.534.729.534 1.197 0 .46-.178.856-.534 1.185a1.75 1.75 0 0 1-1.25.495Zm6.914 8.164V31.5h-2.812V16.943h2.734v2.395h.195c.33-.79.847-1.414 1.55-1.875.703-.468 1.606-.703 2.708-.703.99 0 1.853.209 2.591.625.747.408 1.324 1.02 1.732 1.836.417.816.625 1.828.625 3.034V31.5h-2.812v-8.906c0-1.05-.278-1.875-.834-2.474-.555-.608-1.31-.912-2.265-.912-.651 0-1.237.148-1.758.443a3.078 3.078 0 0 0-1.211 1.237c-.295.538-.443 1.198-.443 1.98Zm18.099 14.388c-1.736 0-3.103-.325-4.101-.976-.999-.651-1.689-1.424-2.071-2.318l2.422-1.003c.174.278.404.573.69.886.295.312.69.577 1.185.794.495.217 1.133.326 1.914.326 1.068 0 1.953-.26 2.656-.782.704-.512 1.055-1.337 1.055-2.474v-2.851h-.195c-.156.304-.395.646-.716 1.028-.321.374-.76.7-1.315.977-.556.278-1.281.417-2.175.417-1.146 0-2.179-.27-3.099-.808-.911-.547-1.64-1.345-2.187-2.395-.539-1.06-.808-2.362-.808-3.907s.265-2.869.795-3.971c.538-1.111 1.267-1.962 2.187-2.552.92-.59 1.966-.886 3.138-.886.903 0 1.632.152 2.188.456.564.295 1.002.642 1.315 1.042.312.4.555.75.729 1.055h.208v-2.37h2.748v14.883c0 1.25-.291 2.274-.873 3.072-.573.799-1.354 1.39-2.343 1.771-.99.39-2.106.586-3.347.586Zm-.026-8.333c1.224 0 2.162-.421 2.813-1.263.659-.85.989-2.027.989-3.529 0-.98-.143-1.84-.429-2.578-.287-.746-.712-1.328-1.277-1.745-.564-.425-1.263-.638-2.096-.638-.851 0-1.562.222-2.135.664-.565.434-.99 1.029-1.276 1.784-.287.747-.43 1.584-.43 2.513 0 .946.143 1.784.43 2.513.286.72.716 1.28 1.289 1.68.581.4 1.289.599 2.122.599Zm15.443 2.578V12.099h7.122c1.372 0 2.509.226 3.412.677.902.451 1.575 1.063 2.018 1.836.451.764.677 1.623.677 2.578 0 .807-.152 1.489-.456 2.044-.295.556-.69.999-1.185 1.328a5.372 5.372 0 0 1-1.64.73v.182c.651.035 1.284.243 1.901.625.616.382 1.124.924 1.523 1.628.408.694.612 1.545.612 2.552 0 .99-.234 1.879-.703 2.669-.46.781-1.172 1.402-2.135 1.862-.964.46-2.201.69-3.711.69h-7.435Zm2.93-2.5h4.218c1.407 0 2.413-.273 3.021-.82a2.637 2.637 0 0 0 .912-2.045c0-.616-.157-1.176-.469-1.68a3.265 3.265 0 0 0-1.315-1.223c-.573-.304-1.25-.456-2.032-.456h-4.335V29Zm0-8.503h3.932a4.07 4.07 0 0 0 1.771-.377 3.014 3.014 0 0 0 1.25-1.068c.312-.469.468-1.011.468-1.628 0-.798-.282-1.466-.846-2.005-.556-.547-1.411-.82-2.565-.82h-4.01v5.898ZM257.359 31.8c-1.362 0-2.556-.312-3.58-.937-1.016-.625-1.806-1.502-2.37-2.63-.556-1.129-.833-2.44-.833-3.933 0-1.51.277-2.83.833-3.958.564-1.137 1.354-2.018 2.37-2.643 1.024-.625 2.218-.938 3.58-.938 1.372 0 2.565.313 3.581.938s1.806 1.506 2.37 2.643c.564 1.129.846 2.448.846 3.958 0 1.494-.282 2.804-.846 3.933-.564 1.128-1.354 2.005-2.37 2.63s-2.209.938-3.581.938Zm0-2.382c.894 0 1.632-.235 2.214-.704.582-.468 1.011-1.089 1.289-1.861a7.37 7.37 0 0 0 .43-2.553c0-.937-.144-1.796-.43-2.578-.278-.78-.707-1.406-1.289-1.875-.582-.468-1.32-.703-2.214-.703-.885 0-1.619.235-2.2.703-.573.47-1.003 1.094-1.289 1.875-.287.782-.43 1.641-.43 2.578 0 .92.143 1.771.43 2.553.286.772.716 1.393 1.289 1.861.581.47 1.315.704 2.2.704Zm15.612-12.474v2.278h-7.942v-2.278h7.942Zm-5.82-3.464h2.826v13.75c0 .669.138 1.159.416 1.472.278.303.725.455 1.341.455a5.41 5.41 0 0 0 .99-.104l.534 2.344c-.287.095-.599.17-.938.221a6.66 6.66 0 0 1-1.015.078c-1.259 0-2.266-.351-3.021-1.054-.755-.712-1.133-1.658-1.133-2.839V13.48Z" fill="#DADFE7"/><g clip-path="url(#a)" fill="#DADFE7"><path d="M18.462 1.196c.67-.094 1.341-.234 2.02-.203-.764.425-1.603.696-2.385 1.085-1.551.656-2.899 1.755-3.908 3.099-1.35 1.815-1.585 4.266-1.083 6.423.232 1.007.685 1.975 1.382 2.746.844.93 1.946 1.574 3.036 2.174 2.82 1.17 5.73 2.134 8.481 3.467 1.854.925 3.658 2.022 5.114 3.513.584.565 1.064 1.223 1.55 1.87 1.144 1.645 1.512 3.721 1.38 5.692-.204 3.11-2.011 6.127-4.795 7.589-1.838 1.157-3.956 1.982-6.148 2.008 1.27-.682 2.682-1.139 3.801-2.082 1.472-1.195 2.65-2.85 2.967-4.747.103-1.058.166-2.147-.097-3.187-.405-1.134-1.168-2.155-2.206-2.78-2.113-1.213-4.482-1.85-6.718-2.783-2.957-1.297-5.846-2.903-8.12-5.231-.36-.42-.785-.775-1.126-1.209-1.768-2.133-2.826-4.887-2.76-7.67.012-2.7 1.15-5.493 3.359-7.127 1.828-1.377 4.01-2.247 6.256-2.647Z"/><path d="M18.406 8.7c1.894-.363 3.834-.383 5.755-.318 4.2.207 8.371 1.681 11.627 4.37 2.065 1.811 3.218 4.514 3.406 7.226.263 3.036-.402 6.165-1.956 8.794-.22.336-.405.703-.694.989.257-1.336.71-2.651.71-4.027.05-1.553-.31-3.182-1.285-4.421-1.206-1.634-2.665-3.057-4.153-4.428-1.39-1.109-2.748-2.259-4.194-3.296-2.701-1.971-5.717-3.467-8.818-4.696a2.445 2.445 0 0 1-.398-.193Zm-12.63 4.022c.208-.311.387-.649.664-.906-.295 1.516-.843 3.011-.75 4.58.042 1.738.84 3.326 1.665 4.814.342.768.963 1.35 1.463 2.011 2.121 2.433 4.592 4.557 7.282 6.34 2.504 1.752 5.357 2.897 8.183 4.01-.446.227-.974.242-1.43.456-.408.204-.858.066-1.288.085-1.059.129-2.134.184-3.197.057-3.318-.304-6.62-1.338-9.36-3.265-.958-.652-1.783-1.474-2.575-2.313-1.977-2.308-2.852-5.394-2.891-8.394.117-2.622.847-5.238 2.234-7.475Z"/></g><defs><clipPath id="a"><path fill="#fff" transform="translate(.333 .167)" d="M0 0h42.667v42.667H0z"/></clipPath></defs></svg>