<svg width="18" height="18" fill="none" xmlns="http://www.w3.org/2000/svg"><path d="m5.332 8.619 3.286-3.287c.134-.133.2-.2.278-.225a.337.337 0 0 1 .208 0c.077.025.144.092.278.225l3.286 3.287c.134.133.2.2.226.277a.336.336 0 0 1 0 .209c-.025.077-.092.144-.226.277L9.382 12.67c-.134.133-.2.2-.278.225a.338.338 0 0 1-.208 0c-.077-.025-.144-.092-.278-.225L5.332 9.382c-.134-.133-.2-.2-.226-.277a.337.337 0 0 1 0-.209c.025-.077.092-.144.226-.277Z" fill="#A1A5B5"/><path d="M12.967 14.461a6.75 6.75 0 0 1-7.935 0M11.96 2.934a6.75 6.75 0 0 1 3.725 7.006m-13.368 0A6.75 6.75 0 0 1 6.04 2.934m2.577 2.398L5.332 8.62c-.134.133-.2.2-.226.277a.337.337 0 0 0 0 .209c.025.077.092.144.226.277l3.286 3.287c.134.133.2.2.278.225.067.022.14.022.208 0 .077-.025.144-.092.278-.225l3.286-3.287c.134-.133.2-.2.226-.277a.336.336 0 0 0 0-.209c-.025-.077-.092-.144-.226-.277L9.382 5.332c-.134-.133-.2-.2-.278-.225a.337.337 0 0 0-.208 0c-.077.025-.144.092-.278.225Z" stroke="#A1A5B5" stroke-width=".9" stroke-linecap="round" stroke-linejoin="round"/></svg>