<svg width="28" height="28" fill="none" xmlns="http://www.w3.org/2000/svg"><g clip-path="url(#a)"><path d="M7.693 25.667h13.282a1.994 1.994 0 0 0 1.992-1.993V9.641h-4.649a1.994 1.994 0 0 1-1.992-1.993V3H7.693a1.994 1.994 0 0 0-1.992 1.992v18.682c0 1.099.894 1.993 1.992 1.993ZM10.35 12.34h7.968a.664.664 0 1 1 0 1.328H10.35a.664.664 0 1 1 0-1.328Zm0 2.656h7.968a.664.664 0 1 1 0 1.329H10.35a.664.664 0 1 1 0-1.329Zm0 2.657h7.968a.664.664 0 1 1 0 1.328H10.35a.664.664 0 1 1 0-1.328Zm0 2.656h5.312a.664.664 0 1 1 0 1.328H10.35a.664.664 0 1 1 0-1.328Z" fill="url(#b)"/><path d="M18.318 8.313h4.26L17.654 3.39v4.259c0 .366.298.664.664.664Z" fill="#fff"/></g><defs><linearGradient id="b" x1="14.301" y1="31.186" x2="14.301" y2="-2.716" gradientUnits="userSpaceOnUse"><stop stop-color="#07F"/><stop offset="1" stop-color="#fff"/></linearGradient><clipPath id="a"><path fill="#fff" transform="translate(3 3)" d="M0 0h22.667v22.667H0z"/></clipPath></defs></svg>