<svg width="18" height="18" fill="none" xmlns="http://www.w3.org/2000/svg"><path d="M4.95 15.076a2.7 2.7 0 0 0 2.7-2.7v-.135c0-.19 0-.284-.037-.356a.337.337 0 0 0-.147-.147c-.072-.037-.167-.037-.356-.037H2.79c-.189 0-.284 0-.356.037a.337.337 0 0 0-.147.147c-.037.072-.037.167-.037.356v.135a2.7 2.7 0 0 0 2.7 2.7Zm8.1-1.35a2.7 2.7 0 0 0 2.7-2.7v-.135c0-.19 0-.284-.037-.356a.337.337 0 0 0-.147-.147c-.073-.037-.167-.037-.356-.037h-4.32c-.189 0-.284 0-.356.037a.337.337 0 0 0-.147.147c-.037.072-.037.167-.037.356v.135a2.7 2.7 0 0 0 2.7 2.7Z" fill="#A1A5B5"/><path d="M2.25 12.376v-.102c0-.213 0-.32.016-.424a1.35 1.35 0 0 1 .072-.27 2.83 2.83 0 0 1 .197-.377L4.95 6.976m-2.7 5.4a2.7 2.7 0 0 0 5.4 0m-5.4 0v-.135c0-.19 0-.284.037-.356a.337.337 0 0 1 .147-.147c.072-.037.167-.037.356-.037h4.32c.189 0 .284 0 .356.037a.337.337 0 0 1 .147.147c.037.072.037.167.037.356v.135m-2.7-5.4 2.415 4.227c.106.185.16.278.197.376.033.088.057.178.072.27.016.105.016.212.016.425v.102m-2.7-5.4 8.1-1.35m-2.7 5.4v-.102c0-.213 0-.32.016-.424.015-.092.039-.183.072-.27a2.82 2.82 0 0 1 .197-.377l2.415-4.227m-2.7 5.4a2.7 2.7 0 0 0 5.4 0m-5.4 0v-.135c0-.19 0-.284.037-.356a.337.337 0 0 1 .147-.147c.072-.037.167-.037.356-.037h4.32c.189 0 .283 0 .356.037a.337.337 0 0 1 .147.147c.037.072.037.167.037.356v.135m-2.7-5.4 2.415 4.227c.106.185.16.278.197.376.033.088.057.179.072.27.016.105.016.212.016.425v.102M9 2.926V6.3" stroke="#A1A5B5" stroke-width=".9" stroke-linecap="round" stroke-linejoin="round"/></svg>