<svg width="61" height="61" fill="none" xmlns="http://www.w3.org/2000/svg"><circle cx="30.286" cy="30.716" r="30" fill="#fff"/><path d="M25.699 40.049V26.554h-4.482V40.05H25.7Zm-2.24-15.337c1.562 0 2.535-1.036 2.535-2.33-.03-1.325-.973-2.333-2.505-2.333-1.534 0-2.536 1.008-2.536 2.332 0 1.295.973 2.331 2.477 2.331h.029Zm4.72 15.337h4.481v-7.535c0-.403.03-.807.148-1.095.324-.806 1.06-1.64 2.3-1.64 1.62 0 2.27 1.237 2.27 3.052v7.218h4.48v-7.737c0-4.145-2.21-6.074-5.159-6.074-2.417 0-3.478 1.352-4.068 2.273h.03v-1.956h-4.482c.059 1.266 0 13.494 0 13.494Z" fill="#1E10CC"/></svg>