<svg width="171" height="25" fill="none" xmlns="http://www.w3.org/2000/svg"><path fill-rule="evenodd" clip-rule="evenodd" d="M33.282 22.365a4.976 4.976 0 0 1-2.2 1.753c-.913.362-1.933.542-3.06.542-.891 0-1.71-.106-2.453-.319a5.775 5.775 0 0 1-1.913-.956 4.857 4.857 0 0 1-1.306-1.625c-.32-.659-.479-1.403-.479-2.231 0-.914.181-1.69.542-2.327.361-.659.85-1.19 1.466-1.594.638-.403 1.382-.7 2.232-.892a11 11 0 0 1 2.677-.319h4.303c0-1.232-.277-2.188-.83-2.868-.552-.68-1.518-1.03-2.9-1.052-.807 0-1.508.138-2.103.414-.574.277-.956.733-1.147 1.37h-3.73c.128-.892.415-1.646.86-2.262a6.298 6.298 0 0 1 1.658-1.53 6.908 6.908 0 0 1 2.168-.86c.807-.17 1.615-.256 2.422-.256 1.041 0 2.008.139 2.9.415a5.572 5.572 0 0 1 2.327 1.402 5.797 5.797 0 0 1 1.498 2.741c.255 1.063.383 2.22.383 3.474v9.052H33.44l-.16-2.072Zm-.191-5.386h-3.506c-.617 0-1.233.053-1.849.16a3.166 3.166 0 0 0-1.594.669c-.424.34-.637.839-.637 1.498 0 .807.287 1.423.86 1.848.595.404 1.318.606 2.168.606.659 0 1.264-.085 1.817-.255a3.567 3.567 0 0 0 1.466-.829 3.97 3.97 0 0 0 .924-1.498c.234-.616.35-1.35.35-2.2ZM44.578 7.64h5.035v3.156h-5.035v7.394c0 .425.021.829.063 1.211.064.383.17.733.32 1.052.17.298.403.542.7.733.298.191.702.287 1.212.287.892 0 1.657-.266 2.294-.797l1.212 2.71a5.775 5.775 0 0 1-1.913.956 8.318 8.318 0 0 1-2.135.286c-1.828 0-3.177-.456-4.048-1.37-.871-.935-1.307-2.39-1.307-4.367v-8.095h-2.645V7.64h2.645V2.86h3.602v4.78Zm14.696-.287c1.339 0 2.518.213 3.538.638a7.21 7.21 0 0 1 2.582 1.785c.722.743 1.264 1.646 1.625 2.709.362 1.062.542 2.242.542 3.538 0 1.317-.18 2.507-.542 3.57a7.312 7.312 0 0 1-1.561 2.709c-.701.765-1.573 1.349-2.614 1.753-1.02.403-2.21.605-3.57.605-1.338 0-2.517-.202-3.537-.605-1.02-.425-1.88-1.01-2.582-1.753-.68-.765-1.2-1.679-1.562-2.741-.34-1.063-.51-2.242-.51-3.538 0-1.296.17-2.476.51-3.538.361-1.063.893-1.966 1.594-2.71a7.21 7.21 0 0 1 2.582-1.784c1.02-.425 2.188-.638 3.505-.638Zm0 14.152c.83 0 1.53-.138 2.104-.415a3.933 3.933 0 0 0 1.434-1.179 4.638 4.638 0 0 0 .83-1.72c.19-.66.286-1.371.286-2.136 0-.765-.096-1.477-.287-2.136-.17-.68-.446-1.264-.829-1.753a3.663 3.663 0 0 0-1.434-1.147c-.574-.277-1.275-.415-2.104-.415-.807 0-1.498.139-2.071.415a3.992 3.992 0 0 0-1.434 1.147c-.383.489-.67 1.073-.861 1.753a8.52 8.52 0 0 0-.255 2.136c0 .765.085 1.476.255 2.135.191.659.467 1.233.829 1.721.382.489.86.882 1.434 1.18.595.276 1.296.414 2.103.414Zm10.633 2.932V7.64h3.41l.191 2.39c1.297-1.784 3.06-2.677 5.291-2.677.213 0 .414.011.606.032.212 0 .403.01.573.032v3.379c-.255 0-.51.01-.765.032h-.7c-.936.02-1.722.19-2.36.51a4.308 4.308 0 0 0-1.53 1.21c-.382.51-.658 1.116-.828 1.817a9.053 9.053 0 0 0-.255 2.2v7.872h-3.633ZM83.44.66c.66 0 1.201.202 1.626.606.446.403.67.956.67 1.657 0 .68-.224 1.222-.67 1.626-.425.403-.967.605-1.626.605-.7 0-1.264-.202-1.689-.605-.425-.404-.637-.946-.637-1.626 0-.701.212-1.254.637-1.657.425-.404.988-.606 1.69-.606Zm-1.848 23.777V7.64h3.633v16.797h-3.633Zm14.245-2.932c1.402 0 2.4-.393 2.996-1.18.595-.786.892-1.901.892-3.346V7.64h3.602v9.466c0 1.403-.192 2.593-.574 3.57-.383.956-.903 1.732-1.562 2.327-.659.573-1.445.998-2.358 1.275-.893.255-1.892.382-2.996.382-2.338 0-4.165-.605-5.482-1.817-1.297-1.21-1.945-3.123-1.945-5.737V7.64h3.602v9.339c0 1.445.308 2.56.924 3.347.638.764 1.604 1.158 2.9 1.179ZM109.73 7.64c.021.17.031.34.031.51l.096.988c.021.17.032.34.032.51 1.169-1.572 2.698-2.358 4.59-2.358 1.189 0 2.146.244 2.868.733a4.999 4.999 0 0 1 1.689 1.944c.659-.871 1.403-1.53 2.231-1.976.85-.468 1.838-.701 2.965-.701.956 0 1.774.159 2.454.478.701.318 1.253.765 1.657 1.338a5.62 5.62 0 0 1 .924 2.008c.192.744.287 1.54.287 2.39v10.933h-3.633v-9.594c0-.51-.032-1.02-.096-1.53a3.991 3.991 0 0 0-.414-1.37 2.365 2.365 0 0 0-.861-1.02c-.382-.276-.892-.414-1.53-.414-.68 0-1.243.17-1.689.51a3.63 3.63 0 0 0-1.02 1.179 5.2 5.2 0 0 0-.478 1.594 11.727 11.727 0 0 0-.127 1.72v8.925h-3.602V14.78c0-.489-.032-.978-.096-1.466a3.935 3.935 0 0 0-.35-1.37 2.636 2.636 0 0 0-.861-1.02c-.361-.277-.871-.415-1.53-.415-.68 0-1.253.17-1.721.51-.446.34-.797.765-1.051 1.275a4.996 4.996 0 0 0-.51 1.625 10.79 10.79 0 0 0-.128 1.594v8.924h-3.602V7.64h3.475ZM8.159 1.85H0v5.295h5.294v-1.98h2.865c2.338 0 4.112.701 5.323 2.104 1.232 1.402 1.849 3.357 1.849 5.864 0 1.212-.149 2.306-.447 3.283-.276.978-.711 1.817-1.306 2.518-.574.68-1.307 1.211-2.2 1.594-.892.382-1.954.574-3.187.574H5.294v-1.959H0v5.294h5.294v-.053h2.993c1.785 0 3.346-.255 4.685-.764 1.36-.51 2.486-1.254 3.379-2.232.913-.977 1.604-2.156 2.071-3.537.468-1.382.702-2.954.702-4.718 0-1.742-.234-3.314-.702-4.717-.467-1.402-1.168-2.581-2.103-3.538-.914-.977-2.061-1.72-3.442-2.23-1.36-.532-2.933-.797-4.718-.797Zm-2.865 8.647H0v5.294h5.294v-5.294Zm130.049 2.647h5.294v5.294h-5.294v-5.294Zm24.406 6.735 1.658 4.558h4.047l-8.51-22.534h-4.589l-8.542 22.534h4.016l1.689-4.558h10.231ZM154.65 5.537l3.952 11.028h-7.936l3.984-11.028Zm12.636 18.9h3.697V1.903h-3.697v22.534Z" fill="#fff"/></svg>