<svg width="1920" height="548" fill="none" xmlns="http://www.w3.org/2000/svg"><path fill="#000623" d="M0 .983h1920v548H0z"/><g opacity=".35" fill="#fff"><path d="M-45.823 645.826c16.345-.743 30.082-2.037 41.21-3.884 37.88-6.283 72.869-20.905 104.969-43.867a224.767 224.767 0 0 0 22.105-18.049c28.682-26.588 49.892-56.827 63.629-90.717 6.892-17.003 12.118-37.037 15.679-60.103 1.218-1.095 2.094.424 2.627 4.555.01-.038.019-.071.029-.1a.772.772 0 0 0 .028-.171 18.483 18.483 0 0 1 .657-7.225c.01-.019.015-.015.015.014a13.86 13.86 0 0 1 .085 4.427c.038 4.721-.133 13.917-.514 27.588-.419 14.841-.619 56.104-.6 123.788 0 11.053-.028 22.11-.085 33.172 0 1.171.057 6.187.171 15.05a239.919 239.919 0 0 1-.271 15.065c-16.679.447-27.403 1.133-32.172 2.056a2113.567 2113.567 0 0 0-15.664 3.085l-19.263 5.083-1.943.471c-.637.143-.642.295-.014.457a2.886 2.886 0 0 0 1.253-.018.021.021 0 0 0 .004-.01.015.015 0 0 0-.004-.01c-.003-.003-.007-.005-.01-.005-3.171-.171-6.098.443-8.782 1.842-4.122 2.152-6.388 3.27-6.797 3.356-3.639.692-6.95 1.681-9.839 2.942l-23.076 10.038c-.095.048-.123.024-.085-.071.085-.21.128-.333.128-.371a.128.128 0 0 0-.035-.101.163.163 0 0 0-.108-.044.28.28 0 0 0-.138.027.334.334 0 0 0-.119.089c-.2.238-.395.505-.585.8a2.544 2.544 0 0 1-1.014.914c-6.54 3.246-10.552 5.321-12.037 6.225-24.314 14.746-45.804 33.819-64.472 57.218-20.134 25.237-34.804 53.02-44.01 83.35a83.975 83.975 0 0 0-1.1 4.612 1.85 1.85 0 0 0 .03.714c.095.447.137.704.128.771-.02.162-.062.171-.129.028a23.86 23.86 0 0 0-.157-.357.125.125 0 0 0-.042-.088.128.128 0 0 0-.182.01.128.128 0 0 0-.033.093l-.3 1.299-2.798 5.012c-.238.429-.595.629-1.071.6-.638-.038-1.385-.281-2.242-.728-.438-.219-.557-.105-.357.342l1.742 4.013c.152.352.052.447-.3.286-1.533-.714-2.856-1.876-3.97-3.485l-.171-189.988Z" fill-opacity=".17"/><path d="M-30.73 309.987c9.035-24.789 21.248-47.075 36.642-66.856 30.415-39.098 68.784-66.881 115.106-83.35 22.686-8.063 46.509-12.813 71.469-14.251l10.081.157c1.343.029 2.009.714 2 2.057-.381 49.94-.419 100.822-.115 152.647.1 16.393-.214 37.441.029 55.719.043 2.556.785 5.355.8 8.153l-1.029 28.973c-.542 5.008-.771 8.34-.685 9.996.209 3.96.286 7.901.229 11.824l-2.028 14.15c-3.561 23.067-8.787 43.101-15.679 60.103-13.737 33.89-34.947 64.129-63.629 90.717a224.922 224.922 0 0 1-22.105 18.05c-32.1 22.961-67.09 37.583-104.968 43.866-11.129 1.847-24.866 3.142-41.211 3.884.029-80.631.033-161.258.014-241.88-.01-12.642.257-22.157.8-28.545 1.875-22.295 6.635-44.099 14.28-65.414Z" fill-opacity=".1"/><path d="m-45.88-103.917 30.958-2.699c-.038.533.162.871.6 1.013.38.134.423.248.128.343-.067.019-.21.038-.428.057a.488.488 0 0 0-.46.505.487.487 0 0 0 .074.238c.447.714 1.19 1.104 2.228 1.171 3.674.228 5.802.357 6.383.385 2.018.096 4.136-.019 6.354-.342 6.273-.924 11.414-1.309 15.422-1.157 5.045.19 11.162.2 18.349.029 11.966-.267 18.063-.4 18.292-.4 17.892-.086 42.581.485 63.301.314 26.065-.219 52.129-.352 78.194-.4 2.494-.009 5.588.257 9.282.8.476.542.99 1.323 1.542 2.342.419.78.624 1.661.614 2.641-.228 123.965-.376 192.959-.443 206.981-.028 5.998-.128 13.732-.299 23.204-.086 4.703.357 8.202 1.328 10.496 1.028 2.446 2.537 3.641 4.526 3.584 27.169-.743 54.039-5.988 80.608-15.736 12.071-4.436 18.335-6.74 18.792-6.911 3.474-1.333 8.11-3.608 13.908-6.826 13.099-7.282 24.589-14.736 34.47-22.362 8.026-6.187 13.737-11.223 17.136-15.107 3.322-3.79 7.544-8.459 12.666-14.008 1.456-1.571 3.974-4.665 7.554-9.282a79.66 79.66 0 0 1 8.068-8.91c2.356-2.242 3.755-4.684 5.726-7.411 1.037-1.428 2.08-3.351 3.127-5.77.752-1.732 2.056-3.365 3.912-4.897.467-.381 1.086-1.347 1.857-2.9 3.151-6.34 6.483-12.246 9.995-17.72.838-1.314 1.619-2.908 2.342-4.784a24.23 24.23 0 0 1 2.371-4.712c1.042-1.599.756-3.355 1.67-4.598 2.247-3.122 3.718-6.12 4.413-8.996.428-1.732.79-2.98 1.085-3.741 1.299-3.284 2.513-5.455 2.856-9.053.666-7.073 2.223-13.79 4.669-20.148a.129.129 0 0 1 .071-.086.096.096 0 0 1 .043-.043.078.078 0 0 1 .029-.01.069.069 0 0 1 .03.002.044.044 0 0 1 .021.014.035.035 0 0 1 .006.023l-2.156 6.297a.357.357 0 0 0 .004.236.283.283 0 0 0 .062.093.236.236 0 0 0 .091.056l.4.157a.038.038 0 0 0 .028-.014 87.601 87.601 0 0 0 1.971-5.497c-.01 0-.01 0 0 0a64.71 64.71 0 0 1-1.442 4.84.231.231 0 0 0-.005.105.214.214 0 0 0 .122.154.187.187 0 0 0 .097.013l.571-.072c.466-.057.771-.31.914-.757l2.97-9.824c.038-.124.119-.19.243-.2a.723.723 0 0 1 .471.072c.19.104.338.347.443.728.333 1.352.538 2.722.614 4.112 0 .057.028.095.085.114.019.01.043.02.072.03.031 0 .063-.019.09-.053a.3.3 0 0 0 .053-.133l.913-5.984c.486 5.874.676 11.724.572 17.55-.191 10.824-.281 16.669-.272 17.535.381 34.49.3 68.432-.242 101.827-.181 10.605-.081 21.805.299 33.6.019.514.172.547.457.1l.272-.415a.236.236 0 0 1 .095-.076.232.232 0 0 1 .305.134c.199.533.209 1.075.028 1.627l-2.456 25.489a2.163 2.163 0 0 1-.648 1.357 2.194 2.194 0 0 1-1.38.614c-13.775.952-27.145 2.299-40.111 4.041-12.318 1.666-26.583 5.502-42.795 11.509a270.555 270.555 0 0 0-37.855 17.45c-8.711 4.855-16.712 9.981-24.004 15.379-34.271 25.37-60.716 57.903-79.337 97.6-6.854 14.613-11.628 27.878-14.322 39.797-.01.066-.405 1.314-1.185 3.741-.924 2.846-1.423 5.031-1.5 6.554-.047.99-.637 2.68-1.77 5.07-.733 1.542-1.247 3.246-1.542 5.112a134.538 134.538 0 0 0-1.428 12.98c-.015-2.799-.757-5.598-.8-8.154-.243-18.278.071-39.326-.029-55.718-.304-51.825-.266-102.708.115-152.648.009-1.342-.657-2.028-2-2.056l-10.081-.157c-.609.219-1.109.247-1.499.085-.324-.142-.438-.385-.343-.728l.2-.671a1.004 1.004 0 0 0-.141-.879 1.042 1.042 0 0 0-.787-.435c-4.893-.257-9.71-.485-14.451-.685-3.522-.152-8.125-.709-13.808-1.671a3711.919 3711.919 0 0 0-15.336-2.57l-19.992-5.284-25.346-9.024c-4.883-2.228-10.395-4.655-14.55-7.397a176.708 176.708 0 0 0-12.195-7.382c-3.875-2.133-7.892-4.665-12.052-7.597-30.806-21.762-55.809-48.945-75.01-81.55A366.999 366.999 0 0 1-26.774-9.36c-2.437-5.702-4.398-11.261-5.883-16.678a194.701 194.701 0 0 0-3.456-11.295c-1.01-2.97-2.037-6.778-3.084-11.424-2.942-12.956-4.98-25.85-6.112-38.683-.143-1.714-.171-4.455-.086-8.225.058-2.913-.104-5.664-.485-8.253Z" fill-opacity=".17"/><path d="m126.331 132.693 19.991 5.283c-4.884.524-9.139-.114-12.766-1.913l-7.225-3.37Zm76.466-236.753c1.2-5.36 1.995-10.843 2.385-16.45.676-10.024 1.08-15.522 1.214-16.493 3.455-26.398 11.004-51.62 22.647-75.667 1.952-4.017 5.993-11.257 12.123-21.719 4.693-8.025 9.196-14.775 13.509-20.248 11.69-14.851 21.129-25.522 28.316-32.015 6.283-5.693 14.474-12.442 24.575-20.248 5.74-4.446 13.227-9.158 22.461-14.137 4.418-2.38 12.276-6.488 23.576-12.323 3.179-1.637 6.735-3.094 10.667-4.37 4.469-1.456 9.881-3.655 14.708-4.812a207.472 207.472 0 0 0 14.522-4.069c2.627-.838 5.707-1.595 9.239-2.271 4.978-.952 8.153-1.556 9.524-1.813a.566.566 0 0 0 .409-.342.554.554 0 0 0 .034-.273.549.549 0 0 0-.1-.256c-.476-.676-1.128-1.124-1.957-1.343-1.732-.476-2.865-.809-3.398-.999-1.314-.438-2.47-.662-3.47-.671a179.63 179.63 0 0 1-6.397-.143 168.58 168.58 0 0 1 16.55-.3c1.456.048 4.702-.405 9.738-1.357l30.515 1.771c.686.162 1.2.609 1.543 1.342.2.438.233.886.1 1.343-.648 2.199-.99 3.669-1.028 4.412-.248 6.312-.538 12.618-.872 18.92-.333 6.255-.252 32.715.243 79.38.038 3.237-.057 7.197-.285 11.88-.2 4.065-.262 8.035-.186 11.91.152 7.806.728 28.768 1.728 62.886l-.005.01v.008c0 .003.001.004.003.006a.014.014 0 0 0 .007.002l.01-.002c.003-.002.007-.003.01-.006a.04.04 0 0 0 .01-.008.04.04 0 0 0 .008-.01c.181-1.456.171-3.032-.029-4.726-.124-1 .029-1.047.457-.143.552 1.18.586 2.251.1 3.213-.057.114-.029.19.086.228.047.01.171.038.371.086.114.029.162.1.143.214-.629 3.76.442 5.579 3.213 5.455a94.75 94.75 0 0 1-1.1 4.584 29.675 29.675 0 0 0-.842 4.626 1748.228 1748.228 0 0 1-2.842 28.502l-.928 66.185-.914 5.984a.3.3 0 0 1-.053.133c-.026.034-.058.053-.09.052a.578.578 0 0 1-.071-.028c-.057-.02-.086-.057-.086-.115a22.231 22.231 0 0 0-.614-4.112c-.105-.38-.252-.624-.443-.728a.72.72 0 0 0-.471-.072c-.124.01-.205.076-.243.2l-2.97 9.825c-.142.447-.447.7-.914.756l-.571.072a.186.186 0 0 1-.097-.013.2.2 0 0 1-.079-.06.231.231 0 0 1-.038-.198 64.242 64.242 0 0 0 1.442-4.841c-.009 0-.009 0 0 0a86.963 86.963 0 0 1-1.97 5.497c-.01.01-.019.015-.029.015l-.4-.158a.238.238 0 0 1-.091-.056.283.283 0 0 1-.062-.093.342.342 0 0 1-.004-.236l2.156-6.297a.03.03 0 0 0-.006-.023.043.043 0 0 0-.021-.014.072.072 0 0 0-.058.008.092.092 0 0 0-.043.043.126.126 0 0 0-.071.086c-2.447 6.359-4.003 13.075-4.67 20.148-.343 3.598-1.556 5.769-2.856 9.053-.295.762-.657 2.009-1.085 3.741-.695 2.875-2.166 5.874-4.412 8.996-.914 1.243-.629 3-1.671 4.598a24.226 24.226 0 0 0-2.37 4.713c-.724 1.875-1.505 3.47-2.342 4.783-3.513 5.474-6.845 11.381-9.996 17.721-.771 1.552-1.39 2.518-1.856 2.899-1.857 1.532-3.161 3.165-3.913 4.898-1.047 2.418-2.089 4.34-3.127 5.769-1.971 2.727-3.37 5.169-5.726 7.41a79.757 79.757 0 0 0-8.068 8.911c-3.579 4.617-6.097 7.71-7.554 9.282-5.121 5.55-9.343 10.219-12.666 14.008-3.398 3.884-9.11 8.92-17.135 15.108-9.882 7.625-21.372 15.079-34.471 22.361-5.797 3.218-10.433 5.493-13.908 6.826-.457.171-6.721 2.475-18.792 6.911-26.569 9.748-53.438 14.993-80.607 15.736-1.99.057-3.499-1.138-4.527-3.584-.971-2.294-1.414-5.793-1.328-10.496.171-9.472.271-17.206.3-23.204.067-14.022.214-83.016.443-206.98.009-.981-.196-1.862-.614-2.642-.553-1.019-1.067-1.8-1.543-2.342Zm1.114 749.429c.247-4.978.338-10 .271-15.064-.114-8.863-.171-13.88-.171-15.051.057-11.062.085-22.119.085-33.171-.019-67.685.181-108.948.6-123.789.381-13.67.552-22.866.514-27.588l.971 13.251c.01.134.057.21.143.229a.18.18 0 0 0 .143-.029c.028-.019.047-.062.057-.128.957-4.798-.7-8.568-.686-12.709.01-2.894-.199-6.668-.628-11.324a.731.731 0 0 0-.175-.387c-.041-.043-.081-.064-.112-.058-.03.005-.05.037-.056.088a1.646 1.646 0 0 1-.142.543c-.267.571-.429.543-.486-.086l-.442-5.04c.057-3.922-.02-7.863-.229-11.824-.086-1.656.143-4.988.685-9.995.381 1.466.967 2.199 1.757 2.199 81.993.124 163.981-.01 245.964-.4.609 0 1.333-.229 2.17-.685.115.523.414.966.9 1.328-.724 7.035-1.39 13.998-1.999 20.89-.79 9.025-1.59 15.97-2.399 20.834-3.97 23.828-11.609 47.137-22.919 69.927-.638 1.285-2.941 5.483-6.911 12.594-2.818 5.046-5.269 9.092-7.354 12.138-12.433 18.163-24.308 32.538-35.627 43.124-16.85 15.755-33.652 28.354-50.407 37.798-13.851 7.806-29.473 14.546-46.865 20.219-.885.295-2.961 1.124-6.226 2.485-2.389 1-4.588 1.69-6.597 2.07a2317.698 2317.698 0 0 1-40.082 7.197 57.246 57.246 0 0 0-16.665.871c-3.446.695-5.807.543-7.082-.457Z" fill-opacity=".08"/><path d="M227.657 644.956a2335.346 2335.346 0 0 0 40.083-7.197c2.009-.381 4.208-1.071 6.597-2.071 3.265-1.361 5.34-2.189 6.226-2.484 17.392-5.674 33.014-12.414 46.865-20.22 16.755-9.443 33.557-22.043 50.407-37.798 11.318-10.586 23.194-24.96 35.627-43.124 2.085-3.046 4.536-7.092 7.354-12.137 3.97-7.112 6.273-11.31 6.911-12.595 11.309-22.79 18.949-46.099 22.919-69.926.809-4.865 1.608-11.81 2.399-20.834.609-6.892 1.275-13.856 1.999-20.891l31.871-.3c-.475.876-.304 1.842.515 2.899.476.609 1.232 1.104 2.27 1.485 2.456.885 4.403 1.404 5.84 1.556 6.293.686 12.928 1.771 19.906 3.256 2.899.628 6.597.614 9.11 1.357 5.607 1.637 13.551 4.369 23.833 8.196 21.067 8.749 40.615 20.029 58.646 33.842 6.835 5.236 13.893 11.376 21.176 18.421 7.463 7.235 13.899 14.06 19.306 20.477 8.463 10.033 16.545 22.038 24.246 36.013 4.541 8.853 9.482 17.578 13.066 26.716 4.55 11.614 7.568 20.006 9.053 25.175 1.609 5.617 3.742 16.012 6.397 31.186 3.789 11.281 4.384 22.776 1.785 34.485-.457 2.047-1.613 3.646-3.469 4.798l-9.254.443a157.264 157.264 0 0 0-19.962-2.056c-.648-.029-1.69.181-3.128.628-1.075.333-2.113.495-3.112.486-3.37-.019-6.721-.024-10.053-.015-6.712.015-14.994.828-21.976.7l-11.938-.214c-23.694.066-43.719.152-60.074.257-3.094.028-6.187.052-9.281.071-26.208.162-49.983.138-71.326-.071-1.019-.01-5.127-.21-12.324-.6a80.849 80.849 0 0 0-12.38.229c-24.437.085-48.483.252-72.14.499-10.462.105-19.982.086-28.559-.057-12.423-.219-22.676-.224-30.758-.014-8.529.219-16.345.314-23.447.286-.609 0-8.439-.091-23.489-.272-6.083-.076-13.537.029-22.362.314-7.454.238-14.913.334-22.376.286-2.189-.01-3.189-.405-2.999-1.185Z" fill-opacity=".17"/><path d="m454.102-54.31.928-66.186c1.504-3.361 2.784-7.568 3.841-12.623 2.837-13.556 4.76-23.347 5.769-29.373.019-.152 0-.233-.057-.243l-.357-.057c-.162-.029-.272.038-.329.2l-.899 2.984c-.038.134.009.219.142.257 2.171.581 2.123.643-.142.186-.124-.028-.172-.105-.143-.228 1.299-5.398 2.085-9.168 1.471-14.237 3.893-11.7 7.401-21.448 10.524-29.244 8.881-22.21 21.257-42.748 37.126-61.616 4.874-5.798 8.706-10.21 11.495-13.237 3.151-3.428 7.164-7.302 12.038-11.624 24.561-21.733 51.306-38.036 80.236-48.907a158.332 158.332 0 0 1 11.895-3.956c1.971-.561 5.978-1.651 12.023-3.27a163.217 163.217 0 0 1 14.437-3.155c4.674-.79 9.439-1.971 14.294-3.542 1.218-.39 1.323-.98.314-1.77-.39-.305-1.219-.505-2.485-.6l21.576.628 9.839 1.214c.466.057.909.186 1.328.386.733.361 1.423.49 2.071.385a2.728 2.728 0 0 1 2.935 1.604 2.7 2.7 0 0 1 .22 1.166c-.542 15.294.329 36.87.357 48.822.238 73.196.1 138.273-.414 195.229 0 .457-.404.581-1.214.371-13.165.305-23.632 1.014-31.4 2.128-49.931 7.12-94.016 27.036-132.257 59.745-12.946 11.081-24.494 23.566-34.642 37.455-18.63 25.503-32.152 52.653-40.568 81.45-1.028 3.532-2.284 8.72-3.769 15.565-1.885 8.71-4.256 16.578-4.67 25.974a2.39 2.39 0 0 0-.028-1.628.227.227 0 0 0-.071-.099.224.224 0 0 0-.233-.034.225.225 0 0 0-.096.076l-.272.414c-.285.448-.437.414-.456-.1-.381-11.794-.481-22.994-.3-33.6.542-33.394.623-67.336.242-101.826-.009-.866.081-6.712.272-17.535a175.142 175.142 0 0 0-.571-17.55Z" fill-opacity=".08"/><path d="m454.145 394.351.042-247.178a1.54 1.54 0 0 1 1.528-1.542c14.451-.114 28.616 1.08 42.496 3.584.981.171 1.814.281 2.499.328 1.247.086 2.07.172 2.47.257a286.417 286.417 0 0 1 62.559 21.891c8.805 4.274 17.073 8.967 24.803 14.079 40.021 26.446 70.293 61.469 90.818 105.069.704 1.494 1.218 2.503 1.542 3.027.647 1.057 1.399 2.97 2.256 5.74.838 2.713 1.509 4.594 2.013 5.641a30.324 30.324 0 0 1 2.285 6.711c.333 1.542.828 3.08 1.485 4.612.79 1.847 1.295 3.389 1.514 4.627 1.456 7.635 3.427 14.441 5.911 20.42.457 2.941.995 5.907 1.614 8.896.704 3.398 1.19 6.373 1.457 8.924a725.704 725.704 0 0 1 1.713 18.435l1.742 16.179c.057.485-.157.752-.642.8l-5.912.514-211.422.014-31.872.3c-.485-.362-.785-.805-.899-1.328Z" fill-opacity=".1"/><path d="M703.15 377.872c1.294.524 1.994-.404 2.099-2.784a351.36 351.36 0 0 1 1.299-18.278c.238-2.437.652-4.317 1.243-5.64.19-.429.285-.881.285-1.357a20.563 20.563 0 0 1 1.2-6.697 69.654 69.654 0 0 0 2.356-8.139c4.703-18.411 10.452-34.599 17.249-48.565 13.28-27.274 31.648-51.987 55.105-74.139a230.887 230.887 0 0 1 50.278-36.127c28.93-15.393 59.664-25.098 92.202-29.116 8.111-.809 14.756-1.342 19.935-1.599 1.856-.086 4.217.133 7.082.657.876 3.979 1.243 8.111 1.1 12.394-.181 5.427-.272 8.192-.272 8.297.353 71.921.405 143.837.158 215.748-.019 5.293-.319 9.577-.9 12.852-31.719.266-62.339 6.192-91.86 17.778-29.501 11.566-55.614 28.05-78.337 49.45-23.19 21.847-41.796 47.412-55.819 76.695-2.122 4.455-4.398 10.091-6.825 16.907-3.38 9.51-5.417 15.245-6.112 17.206-2.323 6.55-5.178 19.877-8.567 39.983-1.4-9.025-2.042-17.135-1.928-24.332.095-6.34.143-9.548.143-9.625-.486-46.779-.557-87.799-.215-123.06.181-19.192.229-38.85.143-58.974a2.25 2.25 0 0 0-1.485-2.11 2.24 2.24 0 0 0-.899-.132l-3.47.2 5.911-.514c.486-.048.7-.315.643-.8l-1.742-16.179Z" fill-opacity=".08"/><path d="M700.28 605.958c1.342 3.236 3.265 5.716 5.769 7.439 3.389-20.105 6.244-33.433 8.567-39.982.695-1.961 2.732-7.697 6.112-17.207 2.427-6.816 4.703-12.452 6.825-16.907 14.023-29.282 32.629-54.848 55.819-76.695 22.723-21.4 48.836-37.884 78.337-49.45 29.521-11.585 60.141-17.511 91.86-17.778 19.496-.057 38.655-2.385 57.471-6.983-2.3.933-4.2 1.552-5.71 1.857-3.18.628-3.26 1.542-.25 2.741 1.38.557 3.85.843 7.12 1.471v.014l-6.88-.014c-.04 0-.07.019-.09.057l-.21.286c-.15.209-.11.319.14.328 10.8.438 18.84.548 24.13.329 2.64-.114 6.68.19 12.11.914 7.76 1.028 19.42-.9 24.98-1 13.59-.247 21.2-.352 22.82-.314 29.63.647 59.27.776 88.91.385 5.12-.071 10.38.386 15.6.315 1.14-.01 2.81-.457 4.99-1.343a22.327 22.327 0 0 1 5.15-1.385c.06 1.019 1.15 1.809 3.25 2.371-1.28-.153-2.25-.01-2.9.428-.42.286-.59.676-.51 1.171 1.04 7.121 1.27 14.318.71 21.591-.01-1.209-.18-2.028-.51-2.457-.34-.418-.54-.357-.6.186-1.49 15.222-4.01 29.616-7.57 43.181-4.3 16.355-10.33 32.343-18.09 47.965a234.117 234.117 0 0 1-14.2 24.703c-30.36 46.142-71.94 78.995-124.71 98.557-17.24 6.388-35.07 10.681-53.493 12.88-8.416 1-19.006 1.738-31.772 2.214a1206.44 1206.44 0 0 0-36.684-.529c-59.936.048-119.876.029-179.822-.057a469.533 469.533 0 0 0-15.907.243c-5.721.181-11.019.348-15.893.5l-6.554-.743c1.856-1.151 3.013-2.751 3.47-4.798 2.598-11.709 2.004-23.204-1.785-34.484Zm6.183-665.766 2.684 15.536c-.004.01-.004.02 0 .027a.023.023 0 0 0 .021.011c.01 0 .02-.003.03-.01a.068.068 0 0 0 .021-.028c.057-.218.09-.338.1-.357.438-.628.614-.566.528.186-.019.21-.062.371-.128.486a.82.82 0 0 0-.058.728c1.286 3.503 2.476 7.83 3.57 12.98.762 3.58 2.337 7.787 4.727 12.623 7.825 15.87 14.555 28.764 20.191 38.683 10.148 17.878 23.147 34.99 38.997 51.335 3.941 4.074 9.444 9 16.507 14.779 8.92 7.292 14.737 11.857 17.45 13.694 4.15 2.827 14.203 8.753 30.158 17.778 7.178 4.055 14.003 7.24 20.477 9.553 8.063 2.894 15.222 5.302 21.476 7.225 12.014 3.684 24.589 6.079 37.727 7.183 1.447.124 2.47.881 3.07 2.27.314.724.604 1.195.871 1.414.438.352.966.6 1.585.743-32.538 4.017-63.273 13.722-92.203 29.115a230.915 230.915 0 0 0-50.278 36.128c-23.456 22.152-41.825 46.865-55.104 74.139-6.797 13.965-12.547 30.153-17.25 48.564-4.674-3.893-7.087-8.92-7.24-15.079-.152-5.902-.223-11.8-.214-17.692.124-86.563.286-135.265.486-146.108.133-7.187.252-14.089.357-20.705.361-22.219.38-46.342.057-72.369-.096-8.168-.029-17.692.2-28.573.085-3.589.29-16.297.614-38.126.028-2.132-.057-5.745-.257-10.838-.105-2.513-.129-6.135-.072-10.867.019-2.018.381-4.77 1.085-8.253.752-3.703 1.057-6.493.914-8.368-.466-5.864-.833-11.8-1.099-17.807Z" fill-opacity=".08"/><path d="M704.435-104.103a303.138 303.138 0 0 0 50.307-5.926c18.287-3.703 36.051-9.424 53.291-17.164 3.17-1.418 9.343-4.607 18.52-9.567 7.283-3.941 13.309-7.568 18.078-10.881 41.953-29.168 72.792-67.732 92.517-115.692 2.675-6.521 5.212-14.822 7.611-24.904 1.275-5.321 3.151-11.081 5.626-17.278a222.222 222.222 0 0 0 1.628 4.013c1.599 3.898 1.399 8.896 1.299 13.065-.028 1.266.138 4.237.5 8.911.552 7.311.662 14.665.328 22.061.039 11.729.096 23.481.172 35.256.057 7.968.081 15.941.071 23.919-.123 130.79-.176 216.005-.157 255.645 0 9.682-.343 19.749-.271 29.759.028 3.56-.086 7.93-.343 13.108-.19 3.837-.233 8.239-.128 13.209.009.695.209 1.213.599 1.556.353.324.686.3 1-.071.305-.372.604-.548.9-.529l-2.499 31.701c-2.866-.524-5.227-.743-7.083-.657-5.179.257-11.823.79-19.934 1.599-.619-.143-1.147-.39-1.585-.742-.267-.219-.557-.69-.871-1.414-.6-1.39-1.623-2.147-3.07-2.27-13.137-1.105-25.713-3.499-37.727-7.183-6.254-1.923-13.413-4.331-21.476-7.225-6.473-2.314-13.299-5.498-20.477-9.553-15.955-9.025-26.007-14.951-30.158-17.778-2.713-1.838-8.53-6.402-17.449-13.694-7.064-5.779-12.566-10.705-16.508-14.78-15.85-16.345-28.849-33.456-38.997-51.334-5.636-9.92-12.366-22.814-20.191-38.683-2.389-4.836-3.965-9.044-4.726-12.623-1.095-5.15-2.285-9.477-3.57-12.98a.816.816 0 0 1 .057-.729 1.2 1.2 0 0 0 .128-.485c.086-.752-.09-.814-.528-.186-.01.02-.043.138-.1.357a.068.068 0 0 1-.021.027.052.052 0 0 1-.03.011c-.009 0-.017-.004-.02-.011-.004-.007-.004-.017 0-.027l-2.685-15.536-.643-18.45a13.918 13.918 0 0 0-.442-3.126c-1.523-6.074-1.19-13.152.999-21.234.295-1.104-.352-1.599-1.942-1.485Z" fill-opacity=".17"/><path d="M925.753 889.605c3.912.724 7.83 1.414 11.752 2.071 2.285.381 4.355 1.166 6.211 2.356.448.286.848.462 1.2.528l6.268 1.157c.187.035.379.033.565-.006a1.43 1.43 0 0 0 .907-.628c.101-.159.169-.337.199-.523.333-2.008.367-3.865.1-5.569a1946.55 1946.55 0 0 1-.842-5.611c-.21-2.523-.067-5.798.428-9.825.524-4.16.79-7.387.8-9.681.076-12.357.176-19.882.3-22.576.785-16.921.542-27.231.928-46.794.19-9.996.252-18.087.185-24.275a3698.822 3698.822 0 0 1 0-87.119c.115-10.396-.585-22.833-.742-34.242a2.06 2.06 0 0 0-.457-1.271c-.981-1.209-1.014-1.799-.1-1.771 12.766-.476 23.356-1.214 31.772-2.213 18.423-2.199 36.253-6.493 53.493-12.88 52.77-19.563 94.35-52.415 124.71-98.557a234.131 234.131 0 0 0 14.2-24.704c7.76-15.621 13.79-31.61 18.09-47.964 3.56-13.566 6.08-27.96 7.57-43.182.06-.542.26-.604.6-.185.33.428.5 1.247.51 2.456l1.26 25.246-.5 1.114c.05-.172.07-.333.07-.486-.02-.695-.1-.704-.24-.028-.03.114-.05.233-.06.357-.08.685-.22.699-.44.043a4.202 4.202 0 0 1-.14-2.142h-.02c-.24.771-.36 1.418-.36 1.942 0 58.669 0 117.334-.01 175.994 0 1.733.12 9.291.36 22.676.02.609-.16 1.399-.53 2.37-.75-.314-1.34-.466-1.77-.457-27.65.534-54.53 5.231-80.64 14.094-7.38 2.513-15.15 5.755-23.33 9.725-10.84 5.273-18.35 9.186-22.51 11.737-49.01 30.159-83.987 71.85-104.921 125.074-3.541 8.996-6.197 19.749-9.325 29.644-1.942 6.141-3.503 14.242-4.683 24.304a1573.578 1573.578 0 0 0-2.913 26.731c-.614 3.113.214 5.684-.914 8.925-.153.438-.457.628-.914.571l-29.344-3.198 5.94.357a.587.587 0 0 0 .307-.062.533.533 0 0 0 .221-.21.775.775 0 0 0 .129-.428c0-.286-.124-.481-.372-.586l-3.141-1.342c-.238-.095-.219-.147.057-.157.238-.01.457-.09.657-.243.171-.123.181-.262.029-.414-.105-.095-.305-.143-.6-.143Zm27.73-743.518 2.499-31.7a885.822 885.822 0 0 0 2.028-12.323c.733-4.665 1.533-8.82 2.399-12.466 9.072-38.212 25.579-72.05 49.521-101.513 33.84-41.639 77.11-69.732 129.81-84.278 12.99-3.588 24.69-5.697 35.12-6.325 5.66-.343 9.58-.8 11.76-1.371 2.12.6 4.6.733 7.44.4 2.78-.324 4.51-.424 5.17-.3 2.24.428 3.59 1.77 4.06 4.027.38 1.846.57 6.378.58 13.594.11 67.075.05 148.61-.17 244.607a79.52 79.52 0 0 1-.45 8.325c-.32 2.761-.65 5.531-.99 8.311l-1.07 6.911c-4.09 28.34-11.89 53.443-23.38 75.31-8.87 16.878-19.11 32.414-30.71 46.608-14.28 17.469-30.57 32.672-48.87 45.609-6.97 4.94-15.13 9.919-24.47 14.936-13.84 7.425-26.55 13.223-38.11 17.392-5.9 2.114-14.1 4.299-24.61 6.555-18.816 4.598-37.975 6.925-57.471 6.982.581-3.274.881-7.558.9-12.851.247-71.912.195-143.828-.157-215.749 0-.104.09-2.87.271-8.296.143-4.284-.224-8.415-1.1-12.395Z" fill-opacity=".1"/><path d="M957.182-351.866c3.884.4 6.449.486 7.696.257 5.598-1.019 9.434-1.38 11.51-1.085 4.836.685 9.562.414 14.179-.814 2.813-.743 5.74-.628 8.111-.471 1.972.123 4.012.085 6.112-.115 1.93-.19 8.05-.185 18.36.015 6.87.143 22.34.019 46.41-.372 9.82-.161 19.33-.223 28.55-.185 98.58.39 185.93.209 262.04-.543 11.74-.114 21.61-.233 29.63-.357 1.76-.028 5.33.814 10.71 2.528 1.44.457 2.89.599 4.37.428 1.43-.152 2.92-.286 4.48-.4a243.17 243.17 0 0 1 27.62-.457c-8.92.914-17.83 1.914-26.72 2.999-5.33.657-12.19 2.189-20.58 4.598-44.39 12.728-82.17 34.68-113.35 65.857-6.66 6.673-13.01 13.889-19.06 21.648-28.62 36.736-45.77 78.932-51.45 126.587-1 8.358-1.63 16.364-1.88 24.018-.08 2.304 1.03 3.451 3.32 3.442 9.39-.048 18.94.59 28.65 1.913-1.54-.286-2.51-.238-2.91.143-.38.343-.32.604.15.785 6.3 2.409 12.35 3.38 18.17 2.913 2.67-.219 2.72-.718.15-1.499-.77-.229-2.02-.509-3.77-.843l12.07 2.114 5.85 2.085c.08.028.08.057 0 .085a.453.453 0 0 0-.1.043c-.16.086-.13.167.08.243 3.58 1.256 7.46 2.38 11.62 3.37 5.24 1.256 9.12 2.332 11.62 3.227 32.49 11.671 61.69 29.558 87.58 53.662a125.21 125.21 0 0 1 6.47 6.497c4.48 4.827 10.69 11.224 15.3 17.093a317.03 317.03 0 0 1 16.95 23.747c2.71 4.16 5.52 9.081 8.44 14.765 3.73 7.244 6.26 12.318 7.6 15.222 9.11 19.677 15.33 38.559 18.65 56.646 2.51 13.642 3.94 28.992 4.28 46.052-1.94 1.142-3.63 1.737-5.07 1.784-26.57.886-51.89 5.308-75.98 13.266-13.97 4.627-28.08 10.924-42.32 18.892-14.14 7.911-27.64 17.506-40.51 28.787-11.42 10.015-20.84 19.454-28.26 28.316-7.95 9.473-16.38 21.81-25.3 37.013-3.06 5.217-5.88 10.795-8.46 16.735-4.28 9.882-6.58 15.184-6.9 15.908-4.67 10.643-8.28 21.457-10.83 32.443-.69 2.97-2.54 6.668-5.56 11.095a3825.057 3825.057 0 0 1-.64-142.038c.09-6.312.07-12.585-.04-18.82.95-4.389 1.18-8.692.68-12.909a1.02 1.02 0 0 0-.22-.496 1.522 1.522 0 0 0-.49-.389l-.4-.2c-.5-.257-.84-.119-1.04.414l-.49 1.299c.34-2.78.67-5.55.99-8.31.29-2.666.44-5.441.45-8.325.22-95.996.28-177.532.17-244.608-.01-7.216-.2-11.747-.58-13.594-.47-2.256-1.82-3.598-4.06-4.027-.66-.123-2.39-.023-5.17.3-2.84.333-5.32.2-7.44-.4a451.752 451.752 0 0 0-23.24-4.455c-10.66-1.742-18.4-3.27-23.22-4.583-21.72-5.884-42.29-14.67-61.72-26.36.56-.971 1.43-.962 2.62.028.07.067.16.076.27.029l.4-.172c.27-.123.3-.285.08-.485-.99-.924-2.07-1.295-3.25-1.114-.22.035-.44.011-.64-.069a1.177 1.177 0 0 1-.52-.388c-1.87-2.361-4.01-3.765-6.41-4.212-.08-.017-.2-.069-.33-.154a4.443 4.443 0 0 1-.43-.332l-5.94-5.469c-.2-.181-.51-.186-.94-.014a1.91 1.91 0 0 0-.46.257c-.31.219-.34.471-.07.757.74.809 1.81 1.575 3.21 2.299.98.514 1.66 1.356 2.02 2.527-22.55-14.346-42.15-31.843-58.78-52.491-5.45-6.769-10.93-14.551-16.432-23.347-7.445-11.919-13.49-23.1-18.135-33.543-2.761-6.226-6.312-16.164-10.653-29.815-2.723-8.806-4.446-15.722-5.169-20.748a696.723 696.723 0 0 1-3.713-30.887c-.142-1.456-.514-1.518-1.114-.185-.228.495-.318 1.361-.271 2.598-.352-5.626-.024-10.8.985-15.521.248-1.133 1.052-1.842 2.414-2.128Zm120.028 208.994c-.19-.19-.35-.304-.47-.342-.38-.134-.47-.01-.27.371.11.181.29.295.56.343.05.01.09.004.14-.016a.226.226 0 0 0 .1-.098.214.214 0 0 0 .01-.137c0-.047-.03-.089-.07-.121Z" fill-opacity=".08"/><path d="M1011.04 388.395c10.51-2.256 18.71-4.44 24.61-6.554 11.56-4.169 24.27-9.967 38.11-17.392 9.34-5.017 17.5-9.996 24.47-14.937 18.3-12.937 34.59-28.14 48.87-45.608 11.6-14.194 21.84-29.73 30.71-46.608 11.49-21.867 19.29-46.97 23.38-75.31 1.83.152 2.84 1.942 3.03 5.369.11 6.235.13 12.509.04 18.82-.67 47.16-.45 94.506.64 142.038-.15 5.455-.31 11.033-.48 16.736 0 .066-.23 4.288-.67 12.665-.28 5.227-.25 10.367.1 15.422-1.78.257-3.49.719-5.15 1.385-2.18.886-3.85 1.333-4.99 1.343-5.22.071-10.48-.386-15.6-.314-29.64.39-59.28.261-88.91-.386-1.62-.038-9.23.067-22.82.314-5.56.1-17.22 2.028-24.98 1-5.43-.724-9.47-1.028-12.11-.914-5.29.219-13.33.109-24.13-.329-.25-.009-.29-.119-.14-.328l.21-.286c.02-.038.05-.057.09-.057l6.88.015v-.015c-3.27-.628-5.74-.914-7.12-1.471-3.01-1.199-2.93-2.113.25-2.741 1.51-.305 3.41-.924 5.71-1.857Z" fill-opacity=".17"/><path d="m1201.19 181.986 1.07-6.911.49-1.3c.2-.533.54-.671 1.04-.414l.4.2c.2.101.37.235.49.389.12.155.2.325.22.496.5 4.218.27 8.52-.68 12.909-.19-3.427-1.2-5.217-3.03-5.369Z" fill-opacity=".08"/><path d="M1203.79 645.683c.37-.971.55-1.761.53-2.37-.24-13.385-.36-20.944-.36-22.676.01-58.66.01-117.325.01-175.995 0-.523.12-1.171.36-1.942h.02c-.14.733-.09 1.447.14 2.142.22.657.36.643.44-.043.01-.124.03-.243.06-.357.14-.676.22-.666.24.029 0 .152-.02.314-.07.485l.61 5.812c.01.067.04.105.09.114.03.01.06.01.1 0 .07-.009.1-.052.1-.128l.2-5.526c.02-.695.24-.748.66-.158.67.962 1.52 1.662 2.55 2.1l.19-1.5v-.01c0-.003.01-.004.01-.004.01 0 .01.001.01.004s.01.006.01.01c-.08.848.01 1.78.25 2.799 2.36 9.682 4.71 18.287 7.06 25.817 6.78 21.829 16.8 42.372 30.06 61.631 12.81 18.62 29.03 36.484 48.66 53.59 2 1.752 4.48 3.685 7.45 5.798a1018.5 1018.5 0 0 1 7.67 5.555l15.05 9.096c8.97 5.54 15.88 9.324 20.74 11.352 7.54 3.141 13.25 5.521 17.13 7.14 6.69 2.77 12.49 4.893 17.39 6.368 14.25 4.265 28.21 7.226 41.87 8.882 9.37 1.142 19.51 1.766 30.43 1.871.44 12.223.63 24.284.57 36.184-.07 16.964-.11 25.489-.11 25.574.17 61.688.16 123.361-.03 185.02-.24.152-.43.395-.57.728a1.87 1.87 0 0 1-.87.928c-.37.19-.74.281-1.1.271-.2-.009-.19-.028.03-.057.54-.066 1.06.005 1.57.214.66.276.64.438-.07.486-5.12.371-10.17.633-15.16.785-1.98.072-2.57-1.256-4.31-1.313-2.7-.086-5.57-.553-8.59-1.4-2.87-.809-5.69-1.352-8.46-1.628-2.9-.304-5.77-.547-8.59-.728-3.52-.9-6.93-1.97-10.46-2.57-8.88-1.495-15.59-3.123-20.13-4.884a603.085 603.085 0 0 0-24.46-8.896l-6.61-2.97c-.43-.19-.81-.457-1.13-.8-.92-.961-2.05-1.547-3.38-1.756-.76-.114-.81-.381-.18-.8.26-.171.52-.238.78-.2.06.016.1.05.11.094 0 .044-.02.097-.06.147a.574.574 0 0 1-.2.128.615.615 0 0 1-.24.045c-1.98-.171-3.82-.928-5.53-2.27-.3-.267-.59-.414-.85-.443a232.972 232.972 0 0 0-14.48-8.553c-7.46-4.055-16.97-11.086-28.55-21.091-13.51-11.671-25.94-24.822-37.31-39.454-6.15-7.911-11.49-15.784-16.04-23.618a279.698 279.698 0 0 1-21.77-47.194c-1.9-5.35-4.04-13.418-6.44-24.204-2.53-11.347-4.09-19.553-4.67-24.617-1.17-10.206-1.88-19.977-2.13-29.316a7.145 7.145 0 0 0-.24-1.728Z" fill-opacity=".17"/><path d="M1203.85 393.037c-.35-5.055-.38-10.195-.1-15.422.44-8.377.67-12.599.67-12.666.17-5.702.33-11.28.48-16.735 3.02-4.427 4.87-8.125 5.56-11.095 2.55-10.986 6.16-21.8 10.84-32.443.31-.724 2.61-6.026 6.89-15.908 2.58-5.94 5.4-11.518 8.46-16.735 8.92-15.203 17.35-27.541 25.3-37.013 7.42-8.862 16.84-18.301 28.26-28.316 12.87-11.281 26.37-20.876 40.51-28.787 14.24-7.968 28.35-14.265 42.32-18.892 24.09-7.958 49.41-12.38 75.98-13.266 1.44-.047 3.13-.642 5.07-1.785-.1.457.35.862 1.36 1.214.47.162 1.03.243 1.68.243 77.98-.248 155.96-.305 233.95-.171 3.06 0 5.4.109 7.01.328 2.01 6.73 2.87 13.951 2.58 21.662-.03.99.1 1.932.39 2.827.21.657.3 1.623.27 2.899-.04 1.409-.17 4.893-.39 10.453-.12 3.094-.59 6.54-1.41 10.338-2.99 13.746-5.54 23.471-7.65 29.173-6.66 17.878-10.62 28.026-11.9 30.444-11.69 22.152-23.48 40.139-35.37 53.962-14.45 16.812-30.14 31.11-47.08 42.896-12.83 8.919-29.31 18.068-49.43 27.445-2.88 1.332-6.09 2.522-9.64 3.57-4.34 1.275-7.56 2.113-9.67 2.513-1.94.371-3.34.995-4.2 1.87a2.26 2.26 0 0 1-1.37.686c-5.46.704-10.27 1.98-14.42 3.827-1.51.666-3.16 1.033-4.97 1.099-2.35.086-4.01.295-4.98.628-1.75.591-3.38 1.2-4.92 1.828-1.72.695-1.65 1.066.2 1.114l10.68.3c-13.73.038-27.45.038-41.14 0-2.19-.01-4.32.343-6.38 1.057-.87.304-1.62.157-2.24-.443a1.923 1.923 0 0 0-1.23-.557 5.29 5.29 0 0 0-1.9.2l-244.82.028c-2.1-.561-3.19-1.351-3.25-2.37Zm1.31 51.92.5-1.114c-.05-1.409.18-2.708.67-3.898.19-.448.37-.443.53.014l2.61 7.211c-1.03-.438-1.88-1.137-2.55-2.099-.42-.59-.64-.538-.66.157l-.2 5.526c0 .077-.03.119-.1.129a.17.17 0 0 1-.1 0c-.05-.01-.08-.048-.09-.114l-.61-5.812Z" fill-opacity=".08"/><path d="M1454.19-104.874c18.37.114 36.46 2.147 54.28 6.097 6.91 1.528 15.09 4.184 22.68 6.14 2.58.667 10.65 3.856 24.18 9.568.09.028 3.18 1.261 9.26 3.698 2.77 1.104 6.09 2.851 9.95 5.24.28.172.87.358 1.77.558a4.66 4.66 0 0 1 1.66.713c1.64 1.152 3.08 2.295 4.31 3.427.7.648 2.2 1.69 4.48 3.128 33.34 20.924 60.59 48.469 81.74 82.635 1.67 2.699 2.73 5.826 4.44 8.225 1.05 1.495 2.21 3.513 3.48 6.055 10.29 20.486 17.42 40.82 21.4 61.002.68 3.484 2.24 13.103 4.68 28.858.26 1.671-.07 3.342.21 4.455.26 1.01.29 2.104.1 3.285a28.391 28.391 0 0 0-.31 5.997c.04.638.44 1.904 1.2 3.798.5 1.276.63 2.661.37 4.156.45 1.942 1.29 2.984 2.51 3.127 1.22.143 3.64.119 7.24-.071 33.3-1.752 65.06-9.349 95.26-22.79 5.02-2.238 10.45-5.036 16.31-8.397 7.89-4.531 13.15-7.668 15.79-9.41a287.22 287.22 0 0 0 26.55-19.934c13.95-11.776 26.12-24.908 36.5-39.397 11.14-15.565 19.43-28.94 24.87-40.126 7.31-15.06 13.26-31.957 17.84-50.692 1.16-4.74 2.73-13.808 4.72-27.202.14-1.019.56-2.394 1.26-4.127.11.01.21-.076.3-.257.08-.21.19-.219.31-.028.23.323.35.58.36.77.27 3.39.41 6.75.44 10.082.13 14.408-.58 51.02-.44 75.767.28 47.96.29 95.915.03 143.866-.03 3.969-.02 65.014.03 183.134.01 26.141-.36 45.57-1.1 58.289l-14.81.414c-4.28.057-8.54.214-12.71-.643-9.45-1.923-20.35-4.231-32.7-6.925-1.36-.305-3.16-.843-5.41-1.614-4.56-1.585-10.28-2.813-13.6-3.898-20.02-6.54-40.03-16.541-60.03-30.001-29.19-19.649-53.11-44.495-71.75-74.539-24.34-39.231-36.9-82.364-37.67-129.401a2.18 2.18 0 0 0-.58-1.452 2.19 2.19 0 0 0-1.39-.704l-4.11-.414c-1.61-.219-3.95-.329-7.01-.329-77.99-.133-155.97-.076-233.94.172-.66 0-1.22-.081-1.69-.243-1.01-.352-1.46-.757-1.36-1.214-.34-17.059-1.77-32.409-4.28-46.051-3.32-18.087-9.54-36.97-18.65-56.647-1.34-2.903-3.87-7.977-7.6-15.222-2.92-5.683-5.73-10.604-8.44-14.765a319.813 319.813 0 0 0-16.94-23.746c-4.62-5.87-10.83-12.267-15.31-17.093a125.21 125.21 0 0 0-6.47-6.497c-25.89-24.104-55.09-41.991-87.58-53.662-2.5-.895-6.38-1.97-11.62-3.227-4.16-.99-8.04-2.114-11.62-3.37-.21-.077-.24-.157-.08-.243a.453.453 0 0 1 .1-.043c.08-.029.08-.057 0-.086l-5.85-2.085c1.45-.295 2.3-.709 2.57-1.242a3.61 3.61 0 0 1 1.25-1.359 4.324 4.324 0 0 1 1.85-.654c2.49-.295 4.98-.605 7.45-.928 2.53-.334 5.01-.51 7.44-.529 41.32-.342 65.19-.476 71.63-.4 37.2.438 70.16.429 98.88-.028.48-.01.92-.138 1.33-.386 1.55-.961 2.23-1.156 2.04-.585Z" fill-opacity=".17"/><path d="M1504.81 395.121c6.67.219 13.34.342 20.01.371 3.19.01 7.87-.195 14.04-.614 4.68-.324 9.37-.476 14.06-.457 37.77.152 75.53.21 113.29.171.03 0 5.42-.152 16.17-.457 7.28-.199 14.43.134 21.43 1-.25 23.504-.27 46.67-.04 69.498.28 27.179.49 54.362.63 81.55.04 7.33-.06 15.793-.3 25.389-.21 8.482-.36 16.96-.44 25.432l.61 21.348c.01.514.27.709.77.585.58-.143 1.01-.452 1.29-.928.23-.4.28-1.052.12-1.956-.16-1.038-.2-1.89-.11-2.556.78-5.96 1.52-11.928 2.21-17.907 3.15-10.424 6.23-20.886 9.23-31.386.89-3.151 3.92-10.581 9.07-22.29 3.99-9.072 7.54-16.188 10.65-21.348 9.35-15.555 18.62-28.702 27.83-39.44 7.19-8.387 17.68-18.539 31.47-30.458 3.4-2.951 7.99-6.259 13.78-9.924 2.16-1.371 7.17-4.598 15.04-9.682 4.96-3.198 11.73-6.683 20.33-10.452 2.03.028 3.95-.257 5.77-.857a552.65 552.65 0 0 0 17.32-5.969c4.63-1.694 8.67-2.98 12.12-3.855 8.21-2.066 12.32-3.099 12.34-3.099 3.74-.743 7.22-1.704 10.44-2.885.71-.266 4.13-1.475 10.25-3.627.1-.038.1-.071 0-.099-.17-.058-.33-.215-.47-.472l8.63-1.47c1.1-.105 1.45-.757 1.05-1.957 1.05.752 2.3.957 3.74.614a.714.714 0 0 0 .48-.357.868.868 0 0 0 .12-.428c0-.083.02-.165.05-.242a.585.585 0 0 1 .13-.207.523.523 0 0 1 .2-.14.61.61 0 0 1 .24-.054l9.68-.328 14.81-.414c.81 6.464 1.24 15.117 1.3 25.96.44 90.446.34 165.532-.32 225.259-7.71-.153-14.96-.238-21.75-.257-53.67-.181-107.34-.457-161.01-.829-13.33-.095-22.95-.095-28.86 0-.11 0-2.78-.047-8.01-.142-4.45-.077-8.88.442-13.31 1.556l-18.76-.571a231.856 231.856 0 0 0-24.22-3.484c-8.87-.79-15.18-1.519-18.92-2.185-7.35-1.323-13.55-2.727-18.59-4.213-4.9-1.437-7.99-2.279-9.3-2.527-5.14-.971-9.18-3.213-14.55-4.984a86.583 86.583 0 0 1-12.95-5.44l1.36.214c.44.076.64-.114.58-.571l-.04-.414c-.06-.514-.3-.914-.73-1.2-4.81-3.236-7.29-4.907-7.45-5.012a20.176 20.176 0 0 0-5.22-2.399c-2.83-.837-4.73-1.304-5.69-1.399-2.19-.219-4.26-1.028-6.2-2.428-2.64-1.913-5.06-4.226-7.17-4.84-.7-.21-1.24-.476-1.61-.8-2.46-2.151-4.8-3.794-7.03-4.926-1.8-.914-3.21-2.742-4.85-3.684-1.74-1-2.96-1.852-3.69-2.556-3.45-3.356-7.85-5.841-11.39-9.311-.76-.742-3.11-2.808-7.04-6.197-1.51-1.295-3.69-3.513-6.54-6.654-1.72-1.876-3.94-4.118-6.68-6.726-2.96-2.789-8.74-10.053-17.35-21.79-.5-.686-1.16-.971-1.57-1.714-2.59-4.626-6.05-9.243-10.39-13.851-.49-.524-1.32-1.694-2.48-3.513a1.916 1.916 0 0 1-.29-1.356c.13-.771-.41-2.09-1.62-3.956a125.437 125.437 0 0 1-9.23-16.964c-.57-1.266-2.39-4.817-5.47-10.652-2.74-5.188-4.53-10.448-5.37-15.779-.27-1.742-.84-2.599-1.7-4.327a16.192 16.192 0 0 1-1.24-3.298 587.2 587.2 0 0 1-2.24-9.182c-.83-3.513-1.13-8.468-2.66-12.652-.17-.466-.51-.709-1.01-.728-.15-.009-.3.005-.43.043-.24.062-.45.202-.61.398-.15.196-.24.438-.25.687l-.05 3.185c-3.63-15.508-5.53-32.577-5.71-51.207-.02-1.656-.89-2.313-2.62-1.97a5.29 5.29 0 0 1 1.9-.2c.48.038.89.224 1.23.557.62.6 1.37.747 2.24.442a19.09 19.09 0 0 1 6.38-1.056c13.69.038 27.41.038 41.14 0Z" fill-opacity=".08"/><path d="M1454.48-335.631c.41-.571.56-1.314.47-2.228 0-.029 0-.059.01-.086a.834.834 0 0 1 .03-.075c.02-.022.03-.039.05-.05a.14.14 0 0 1 .07-.017c.03.009.05.019.08.028.06.019.09.067.1.143a214.884 214.884 0 0 0 7.21 46.408c.09.305.65 2.081 1.69 5.327a38.931 38.931 0 0 1 1.34 5.44c-.25 1.171-.17 2.475.23 3.913 3.8 13.603 8.77 26.303 14.92 38.097a15.958 15.958 0 0 0 2.64 3.727 83.45 83.45 0 0 0 3.24 3.256c3.03 4.998 6.14 10.01 9.31 15.036 3.53 5.569 6.88 10.415 10.06 14.537 28.57 37.003 64.64 63.929 108.22 80.779 27.84 10.757 57 16.383 87.48 16.878a2.195 2.195 0 0 0 2.23-2.127l1.14-38.741c.64-3.884 1.12-7.787 1.44-11.709.1-1.19.42-2.194.97-3.013 1.83-2.741 3.06-3.327 3.61-7.454.27-1.97.75-3.579 1.45-4.826 1.49-2.656 2.84-6.102 4.04-10.338a69.445 69.445 0 0 1 3.5-9.611c.36-.809 3.87-8.591 10.55-23.347 4.1-9.072 9.76-18.744 16.96-29.015 9.7-13.809 19.25-26.517 31.75-38.898 1.71-1.704 10.26-9.096 25.66-22.176 1.02-.876 8.65-5.669 22.87-14.379a185.63 185.63 0 0 1 23.11-12.023c11.92-5.179 19.99-8.454 24.18-9.825 13.17-4.322 32.18-8.301 57.02-11.937 4.12-.61 9.58-.614 16.38-.015 1.79.162 2.88.9 3.27 2.214.91 3.046 1.43 5.388 1.59 7.025.14 1.676.13 4.084-.03 7.226-.51 9.605-.55 19.239-.15 28.901.54 12.357.81 21.862.83 28.516.05 15.555.03 32.681-.07 51.378-.01 2.656-.11 6.202-.3 10.638-.23 5.35-.31 8.901-.24 10.653.32 8.501.29 15.355-.09 20.562-.52 7.026-.78 11.1-.77 12.223.02 2.071.47 4.341.32 6.626-.2 2.846-.3 4.308-.3 4.384-.01 14.66.03 23.804.13 27.431.02 1.056.29 3.017.79 5.883l.59 8.539-.23 15.065c-.01.522-.22 1.02-.59 1.386-.38.365-.87.57-1.39.57h-246.58a1.217 1.217 0 0 0-.85.351 1.198 1.198 0 0 0-.35.848V142.16c.26-1.494.13-2.88-.37-4.155-.76-1.895-1.16-3.161-1.2-3.799-.12-1.951-.01-3.95.31-5.997.19-1.18.16-2.275-.1-3.284-.28-1.114.05-2.785-.21-4.455-2.44-15.755-4-25.375-4.68-28.86-3.98-20.18-11.11-40.515-21.4-61.001-1.27-2.542-2.43-4.56-3.48-6.055-1.71-2.399-2.77-5.526-4.44-8.225-21.15-34.166-48.4-61.71-81.74-82.635-2.28-1.437-3.78-2.48-4.48-3.127-1.23-1.133-2.67-2.275-4.31-3.427-.5-.343-1.05-.58-1.66-.714-.9-.2-1.49-.386-1.77-.557-3.86-2.39-7.18-4.136-9.95-5.24-6.09-2.438-9.17-3.67-9.26-3.699-13.53-5.712-21.6-8.9-24.18-9.567-7.59-1.957-15.77-4.612-22.68-6.14a257.436 257.436 0 0 0-54.28-6.098c.09-91.912.03-150.063-.17-174.452-.21-24.942-.06-43.71.46-56.304Z" fill-opacity=".1"/><path d="m1460.25 448.555.06-3.184c0-.25.09-.491.24-.687.16-.196.37-.336.61-.398.14-.038.28-.053.43-.043.5.019.84.262 1.01.728 1.53 4.184 1.83 9.139 2.66 12.652a584.35 584.35 0 0 0 2.24 9.181 16.2 16.2 0 0 0 1.24 3.299c.86 1.728 1.43 2.585 1.7 4.327.84 5.331 2.63 10.59 5.37 15.779 3.08 5.835 4.9 9.386 5.47 10.652a125.437 125.437 0 0 0 9.23 16.964c1.21 1.866 1.75 3.184 1.62 3.955-.07.486.02.938.29 1.357 1.16 1.818 1.99 2.989 2.48 3.513 4.34 4.607 7.8 9.224 10.39 13.851.41.742 1.07 1.028 1.57 1.713 8.61 11.738 14.39 19.002 17.35 21.791 2.74 2.608 4.97 4.85 6.68 6.725 2.85 3.142 5.03 5.36 6.54 6.655 3.93 3.389 6.28 5.454 7.04 6.197 3.54 3.47 7.94 5.955 11.39 9.31.73.705 1.96 1.557 3.69 2.556 1.64.943 3.05 2.77 4.85 3.684 2.23 1.133 4.57 2.775 7.03 4.927.37.323.91.59 1.61.799 2.11.614 4.53 2.928 7.17 4.841 1.94 1.4 4.01 2.209 6.2 2.428.96.095 2.86.561 5.69 1.399 1.9.571 3.64 1.371 5.22 2.399.16.105 2.64 1.775 7.45 5.012.43.286.67.686.73 1.2l.04.414c.06.457-.14.647-.58.571l-1.36-.214c-4.8-2.237-9.57-4.527-14.32-6.869-5.22-2.57-9.87-5.107-13.95-7.611-37.36-22.856-66.88-53.243-88.58-91.16-12.12-21.181-20.95-44.085-26.5-68.713Z" fill-opacity=".08"/><path d="m1698.09 145.587 4.11.415a2.19 2.19 0 0 1 1.39.703c.37.398.57.914.58 1.453.77 47.036 13.33 90.17 37.67 129.4 18.64 30.044 42.56 54.891 71.75 74.539 20 13.461 40.01 23.461 60.03 30.001 3.32 1.086 9.04 2.314 13.6 3.899 2.25.771 4.05 1.309 5.41 1.613 12.35 2.694 23.25 5.003 32.7 6.926 4.17.857 8.43.699 12.71.642l-9.68.329a.627.627 0 0 0-.57.401.67.67 0 0 0-.05.241c0 .143-.04.286-.12.429a.72.72 0 0 1-.48.357c-1.44.342-2.69.138-3.74-.614-3.61.133-7.26-.034-10.94-.5-1.86-.238-3.32-.29-4.38-.157-1.53.181-3.02.19-4.47.028-1.75-.199-3.97-.28-6.67-.242-8.96.133-27.24.076-54.86-.172-10.81-.1-27.8.329-41.41.057-12.09-.247-30.68-.195-55.76.158-4.86.066-11.71.004-20.55-.186-6.66-.143-13.51-.2-20.55-.171-7-.867-14.15-1.2-21.43-1l-16.16.457c-37.77.038-75.53-.019-113.3-.171-4.69-.019-9.38.133-14.06.457-6.17.418-10.85.623-14.04.614-6.67-.029-13.34-.153-20.01-.372l-10.68-.3c-1.85-.047-1.92-.418-.2-1.113a83.672 83.672 0 0 1 4.92-1.828c.97-.333 2.63-.543 4.98-.628 1.81-.067 3.46-.434 4.97-1.1 4.15-1.847 8.96-3.122 14.42-3.827.53-.067.99-.295 1.37-.685.86-.876 2.26-1.5 4.2-1.871 2.11-.4 5.34-1.237 9.67-2.513 3.55-1.047 6.76-2.237 9.64-3.57 20.12-9.377 36.6-18.525 49.43-27.445 16.94-11.785 32.63-26.084 47.08-42.896 11.89-13.822 23.68-31.81 35.37-53.962 1.28-2.418 5.24-12.566 11.9-30.444 2.11-5.702 4.66-15.426 7.65-29.173.82-3.798 1.29-7.244 1.41-10.338.22-5.559.35-9.044.39-10.453.03-1.275-.06-2.241-.27-2.898a8.293 8.293 0 0 1-.39-2.828c.29-7.711-.57-14.931-2.58-21.662Z" fill-opacity=".1"/><path d="M1703.81 395.136c7.04-.029 13.89.028 20.55.171 8.84.19 15.69.252 20.55.186 25.08-.353 43.67-.405 55.76-.158 13.61.272 30.6-.157 41.41-.057 27.62.248 45.9.305 54.86.172 2.7-.038 4.92.043 6.67.242 1.45.162 2.94.153 4.47-.028 1.06-.133 2.52-.081 4.38.157 3.68.466 7.32.633 10.94.5.4 1.199.05 1.851-1.05 1.956l-4.77-.228v.014c.03-.01.07-.019.1-.029.03-.018.07-.036.1-.051a.722.722 0 0 1 .08-.034c1.15.219 2.05.185 2.7-.1.68-.305.66-.571-.04-.8-3.23-1.028-7.76 1.357-12.28 3.327-.52.219-.5.381.05.486.5.104 1.03.071 1.6-.1a514.41 514.41 0 0 0-15.73 2.97c-3.68.752-7.85 1.894-12.51 3.427a793.433 793.433 0 0 1-12.37 3.955c-7.34 2.304-15.11 5.469-23.33 9.496-8.6 3.77-15.37 7.254-20.33 10.453-7.87 5.083-12.88 8.31-15.04 9.681-5.79 3.665-10.38 6.973-13.78 9.924-13.79 11.919-24.28 22.072-31.47 30.459-9.21 10.738-18.48 23.884-27.83 39.439-3.11 5.16-6.66 12.276-10.65 21.348-5.15 11.709-8.18 19.14-9.07 22.291-3 10.5-6.08 20.962-9.23 31.386l-3.24 4.983c-.26.391-.45.362-.58-.085l-1.07-3.484c.08-8.473.23-16.95.44-25.432.24-9.596.34-18.059.3-25.389-.14-27.188-.35-54.372-.63-81.55-.23-22.828-.21-45.994.04-69.498Z" fill-opacity=".17"/><path d="M1909.89 400.762c-.01-.78.4-1.104 1.25-.971.35.057.38.181.08.372a.785.785 0 0 0-.35.457c-.16.409-.04.518.35.328l2.5-1.199c.14.257.3.414.47.471.1.028.1.062 0 .1-6.12 2.151-9.54 3.36-10.25 3.627-3.22 1.18-6.7 2.142-10.44 2.884-.02 0-4.13 1.033-12.34 3.099-3.45.876-7.49 2.161-12.12 3.855a550.081 550.081 0 0 1-17.32 5.969c-1.82.6-3.74.885-5.77.857 8.22-4.027 15.99-7.192 23.33-9.496 4.88-1.523 9-2.842 12.37-3.955 4.66-1.533 8.83-2.675 12.51-3.428a514.41 514.41 0 0 1 15.73-2.97Z" fill-opacity=".08"/><path d="m1922.35 398.277-8.63 1.47-2.5 1.2c-.39.19-.51.081-.35-.328.06-.2.18-.353.35-.457.3-.191.27-.315-.08-.372-.85-.133-1.27.191-1.25.971-.57.172-1.1.205-1.6.1-.55-.104-.57-.266-.05-.485 4.52-1.971 9.05-4.355 12.28-3.327.7.228.72.495.04.799-.65.286-1.55.319-2.7.1-.02.008-.05.019-.08.035-.03.015-.07.033-.1.051l-.1.028v-.014l4.77.229Z" fill-opacity=".08"/></g></svg>