<svg width="335" height="44" viewBox="0 0 335 44" fill="none" xmlns="http://www.w3.org/2000/svg">
<path d="M145.174 28.4703H167.158L155.545 9.71737L134.196 43.588H124.488L150.453 2.9519C151.019 2.14102 151.771 1.4776 152.647 1.01722C153.522 0.556828 154.495 0.312885 155.484 0.305822C156.472 0.298759 157.449 0.528781 158.33 0.976618C159.212 1.42446 159.973 2.07707 160.551 2.87978L186.589 43.588H176.88L172.308 36.0147H150.064L145.217 28.4703H145.174ZM246.093 36.0147V0.715982H237.842V39.4912C237.84 40.03 237.948 40.5636 238.159 41.0595C238.37 41.5554 238.679 42.0034 239.068 42.3763C239.458 42.7758 239.925 43.0928 240.441 43.3084C240.956 43.524 241.51 43.6338 242.068 43.6313H279.574L284.464 36.058H246.05L246.093 36.0147ZM109.673 29.7108C113.518 29.7108 117.205 28.1834 119.924 25.4646C122.643 22.7458 124.17 19.0584 124.17 15.2134C124.17 11.3685 122.643 7.68097 119.924 4.96218C117.205 2.24339 113.518 0.715982 109.673 0.715982H73.6097V43.588H81.8466V8.30369H109.168C111.008 8.30369 112.773 9.03472 114.074 10.336C115.376 11.6372 116.107 13.402 116.107 15.2423C116.107 17.0825 115.376 18.8473 114.074 20.1486C112.773 21.4498 111.008 22.1808 109.168 22.1808H85.9289L110.538 43.588H122.497L105.966 29.7108H109.673ZM22.9481 43.588H47.8606C53.4476 43.443 58.7571 41.1217 62.6574 37.1189C66.5578 33.116 68.7405 27.7481 68.7405 22.1592C68.7405 16.5703 66.5578 11.2024 62.6574 7.19953C58.7571 3.19666 53.4476 0.875378 47.8606 0.730408H22.9481C20.0872 0.656175 17.2405 1.15554 14.5757 2.19907C11.9109 3.24259 9.48207 4.80914 7.43239 6.80633C5.38271 8.80352 3.75368 11.1909 2.64139 13.8277C1.5291 16.4645 0.956055 19.2974 0.956055 22.1592C0.956055 25.021 1.5291 27.8538 2.64139 30.4907C3.75368 33.1275 5.38271 35.5149 7.43239 37.5121C9.48207 39.5092 11.9109 41.0758 14.5757 42.1193C17.2405 43.1628 20.0872 43.6622 22.9481 43.588ZM47.298 36.0435H23.4962C19.8951 35.9274 16.4804 34.4152 13.9741 31.8268C11.4678 29.2383 10.0665 25.7766 10.0665 22.1736C10.0665 18.5706 11.4678 15.1089 13.9741 12.5205C16.4804 9.93202 19.8951 8.41984 23.4962 8.30369H47.298C49.157 8.24373 51.0092 8.55811 52.7443 9.22815C54.4795 9.8982 56.0622 10.9102 57.3985 12.2041C58.7348 13.498 59.7973 15.0472 60.5229 16.7599C61.2486 18.4725 61.6225 20.3136 61.6225 22.1736C61.6225 24.0336 61.2486 25.8747 60.5229 27.5873C59.7973 29.3 58.7348 30.8493 57.3985 32.1431C56.0622 33.437 54.4795 34.449 52.7443 35.1191C51.0092 35.7891 49.157 36.1035 47.298 36.0435ZM203.798 43.588H229.23L234.048 36.0435H204.361C202.502 36.1035 200.649 35.7891 198.914 35.1191C197.179 34.449 195.596 33.437 194.26 32.1431C192.924 30.8493 191.861 29.3 191.136 27.5873C190.41 25.8747 190.036 24.0336 190.036 22.1736C190.036 20.3136 190.41 18.4725 191.136 16.7599C191.861 15.0472 192.924 13.498 194.26 12.2041C195.596 10.9102 197.179 9.8982 198.914 9.22815C200.649 8.55811 202.502 8.24373 204.361 8.30369H228.523L233.399 0.730408H203.798C200.937 0.656175 198.09 1.15554 195.426 2.19907C192.761 3.24259 190.332 4.80914 188.282 6.80633C186.233 8.80352 184.604 11.1909 183.491 13.8277C182.379 16.4645 181.806 19.2974 181.806 22.1592C181.806 25.021 182.379 27.8538 183.491 30.4907C184.604 33.1275 186.233 35.5149 188.282 37.5121C190.332 39.5092 192.761 41.0758 195.426 42.1193C198.09 43.1628 200.937 43.6622 203.798 43.588ZM304.588 36.0435C301.565 36.0447 298.625 35.0591 296.214 33.2365C293.803 31.4139 292.053 28.854 291.23 25.9458H326.456L331.303 18.387H291.23C292.051 15.4776 293.8 12.9164 296.212 11.0934C298.623 9.27046 301.565 8.28574 304.588 8.28927H328.764L333.597 0.715982H304.025C298.438 0.860953 293.129 3.18224 289.228 7.18511C285.328 11.188 283.145 16.5559 283.145 22.1448C283.145 27.7337 285.328 33.1016 289.228 37.1044C293.129 41.1073 298.438 43.4286 304.025 43.5736H329.457L334.289 36.0291H304.573" fill="#292930"/>
</svg>
