<svg xmlns="http://www.w3.org/2000/svg" width="214.742" height="58.567" viewBox="0 0 214.742 58.567">
  <g id="surface1" transform="translate(-12.4 -40.107)">
    <path id="Контур_15339" data-name="Контур 15339" d="M422.495,1301.309c-.6.979-.819,1.631-.646,1.945.09.16.306.244.646.244s.552-.082.639-.242c.175-.313-.044-.966-.639-1.947m-3.685-2.535,3.685,2.126,3.679-2.126-3.679-2.125Zm-.234,2.019a.52.52,0,1,0,.522.522A.521.521,0,0,0,418.576,1300.794Zm7.832,0a.52.52,0,1,0,.523.522A.522.522,0,0,0,426.407,1300.794Zm0-5.081a.521.521,0,1,0,.519.522A.523.523,0,0,0,426.411,1295.713Zm-8.4,1.076a.788.788,0,1,1,.913.152v0a1.3,1.3,0,0,1-1.739-.485,1.445,1.445,0,0,1,.23-1.87,1.887,1.887,0,0,1,2.1-.16,2.926,2.926,0,0,1,1.413,2.814l1.376-.794-.033-.053h0l-.032-.052h0l0-.007c-.615-1.012-.821-1.668-.658-2.085h0l.008-.021h0l.009-.02h0l.01-.02h0l.01-.019a.91.91,0,0,1,.878-.385h.139l.019,0h.019l.019,0h.019l.018,0,.018,0,.018,0,.018,0,.017,0,.017,0,.017,0,.017,0,.017,0,.016,0,.015,0h0l.015,0,.015,0h0l.015.006.016,0,.015.005.014.005h0l.014,0,.014.006.014.006h0l.014.006h0l.013.006h0l.013.006h0l.013.007h0l.012.006h0l.012.007h0l.012.006h0l.012.007a.7.7,0,0,1,.236.241.9.9,0,0,1,.077.575h0l-.009.062h0l-.005.031h0l-.013.064h0l-.008.032h0l-.009.033h0l-.009.033h0l-.01.034h0l-.01.035h0l-.011.035h0l-.012.036h0l-.013.036h0l-.013.037h0l-.014.038h0l-.015.037h0l-.015.039h0l-.016.039h0l-.017.039h0l-.018.04h0l-.019.04h0l-.019.041h0l-.021.042h0l-.021.042h0l-.021.043h0l-.023.044h0l-.023.044v0l-.024.044h0l-.025.046h0l-.025.045h0l-.026.047h0l-.027.048h0l-.027.047h0l-.028.048h0l-.029.05h0l-.03.05h0l-.03.05h0l-.031.052h0l-.031.052-.032.053-.033.054,1.378.8a2.926,2.926,0,0,1,1.412-2.815,1.889,1.889,0,0,1,2.1.16,1.445,1.445,0,0,1,.228,1.87,1.292,1.292,0,0,1-1.737.485l0,0a.787.787,0,1,1,.912-.151,1.028,1.028,0,0,0,.6-.47,1.178,1.178,0,0,0-.173-1.523,1.617,1.617,0,0,0-1.8-.131,2.729,2.729,0,0,0-1.262,2.737l2.38,1.374-2.38,1.374a2.729,2.729,0,0,0,1.258,2.734,1.631,1.631,0,0,0,1.8-.13,1.177,1.177,0,0,0,.173-1.523,1.026,1.026,0,0,0-.6-.471.786.786,0,1,1-.91-.152v0a1.293,1.293,0,0,1,1.737.484,1.446,1.446,0,0,1-.228,1.87,1.791,1.791,0,0,1-1.14.4,2.06,2.06,0,0,1-.957-.245,2.919,2.919,0,0,1-1.412-2.81l-1.378.8c.715,1.148.927,1.855.693,2.28a1.192,1.192,0,0,1-1.754,0c-.233-.421-.014-1.149.688-2.278l-1.376-.8a2.92,2.92,0,0,1-1.413,2.81,2.066,2.066,0,0,1-.957.245,1.784,1.784,0,0,1-1.139-.4,1.446,1.446,0,0,1-.23-1.87,1.292,1.292,0,0,1,1.739-.484v0a.792.792,0,1,1-.913.153,1.028,1.028,0,0,0-.6.47,1.177,1.177,0,0,0,.175,1.523,1.621,1.621,0,0,0,1.8.13,2.728,2.728,0,0,0,1.259-2.734l-2.379-1.374,2.379-1.374a2.73,2.73,0,0,0-1.261-2.737,1.626,1.626,0,0,0-1.8.131,1.178,1.178,0,0,0-.175,1.523A1.033,1.033,0,0,0,418.014,1296.789Zm.562-1.076a.521.521,0,1,0,0,1.042.514.514,0,0,0,.2-.041l.012,0h0a.522.522,0,0,0-.214-1Zm3.919,33.315c-.34,0-.555.081-.646.242-.174.314.046.969.646,1.948.6-.983.815-1.637.639-1.948C423.047,1329.108,422.827,1329.028,422.495,1329.028Zm-3.919,6.741a.52.52,0,1,0,.227.051l-.012-.005h0l-.01,0-.012,0h0l-.007,0-.012,0A.506.506,0,0,0,418.576,1335.769Zm7.832,0a.521.521,0,1,0,.523.523A.522.522,0,0,0,426.407,1335.769Zm-3.481,2.639a.4.4,0,0,0,.208-.177.335.335,0,0,0,.028-.062l.005-.016h0l.005-.016h0l0-.016v0l0-.016v0l0-.018h0l0-.018h0l0-.018h0l0-.02h0v-.04a3.862,3.862,0,0,0-.7-1.693c-.553.9-.78,1.529-.679,1.865h0l.005.016h0l.005.016h0l.006.016h0l.007.015h0l.008.015q.136.246.646.246h.175l.013,0h.014l.012,0h0l.013,0h.013l.012,0h0l.012,0h0l.012,0h0l.011,0h0l.011,0h0l.011,0h0l.011,0h0l.01,0h0l.011,0h0l.021-.007h0l.009,0h0l.02-.008h0l.029-.011Zm-4.117-4.657,3.685,2.125,3.679-2.125-3.679-2.125Zm7.6-3.063a.522.522,0,1,0,.523.522A.522.522,0,0,0,426.407,1330.688Zm-8.393,1.079a.788.788,0,1,1,.913.151v0a1.3,1.3,0,0,1-1.739-.483,1.447,1.447,0,0,1,.23-1.872,1.884,1.884,0,0,1,2.1-.158,2.921,2.921,0,0,1,1.413,2.81l1.376-.8c-.7-1.13-.921-1.86-.688-2.28a1.195,1.195,0,0,1,1.754,0c.234.425.022,1.133-.693,2.28l1.378.8a2.919,2.919,0,0,1,1.412-2.81,1.886,1.886,0,0,1,2.1.158,1.444,1.444,0,0,1,.228,1.87,1.286,1.286,0,0,1-1.672.513h0l-.018-.008-.007,0-.011-.005-.027-.011v0a.79.79,0,1,1,.911-.151,1.039,1.039,0,0,0,.6-.474,1.174,1.174,0,0,0-.173-1.52,1.621,1.621,0,0,0-1.8-.13,2.725,2.725,0,0,0-1.258,2.733l2.38,1.374-2.38,1.374a2.728,2.728,0,0,0,1.262,2.738,1.618,1.618,0,0,0,1.8-.132,1.175,1.175,0,0,0,.171-1.523,1.016,1.016,0,0,0-.6-.471.786.786,0,1,1-.912-.153v0a1.291,1.291,0,0,1,1.737.483,1.45,1.45,0,0,1-.228,1.874,1.8,1.8,0,0,1-1.14.4,2.093,2.093,0,0,1-.957-.24,2.926,2.926,0,0,1-1.412-2.816l-1.378.795a7.785,7.785,0,0,1,.594,1.114v0l.045.114h0l.013.036v0l.013.036h0l.012.035h0l.011.034v0l.01.033v0l.01.033h0l.009.033v0l.009.032h0l.008.031v0l.013.064h0l.005.03h0l.009.061h0a.881.881,0,0,1-.077.575.693.693,0,0,1-.4.316h0l-.013.005h0l-.014.005h0l-.032.01-.013,0h0l-.014,0h0l-.015,0h0l-.015,0h0l-.015,0h0l-.015,0h0l-.016,0h0l-.015,0h0l-.016,0h0l-.016,0h0l-.016,0h-.019l-.017,0h0l-.018,0h0l-.018,0h-.158a.912.912,0,0,1-.878-.387l-.01-.02h0l-.01-.021h0l-.009-.02h0l-.008-.021h0c-.138-.353-.011-.877.4-1.643l0-.007.022-.041,0-.006.023-.042,0-.006.024-.042,0-.006.025-.042,0-.006.026-.044,0-.005.027-.045,0,0,.027-.046,0,0,.029-.048.1-.159-1.375-.794a2.927,2.927,0,0,1-1.413,2.814,2.1,2.1,0,0,1-.957.24,1.784,1.784,0,0,1-1.139-.4,1.45,1.45,0,0,1-.23-1.874,1.291,1.291,0,0,1,1.739-.483v0a.792.792,0,1,1-.915.155,1.021,1.021,0,0,0-.592.469,1.172,1.172,0,0,0,.171,1.523,1.618,1.618,0,0,0,1.8.132,2.734,2.734,0,0,0,1.259-2.738l-2.379-1.374,2.379-1.374a2.725,2.725,0,0,0-1.259-2.733,1.612,1.612,0,0,0-1.8.13,1.174,1.174,0,0,0-.175,1.52A1.034,1.034,0,0,0,418.015,1331.767Zm.561-1.079a.522.522,0,1,0,.52.522A.521.521,0,0,0,418.576,1330.688Zm23.937-14.426a3.808,3.808,0,0,0,1.69.7c.236,0,.5-.079.5-.7v-.11l0-.026h0l0-.048h0l0-.024,0-.023,0-.022,0-.021h0l0-.021h0l0-.019h0l0-.019h0l0-.018h0l-.005-.018h0l-.005-.018h0l0-.017h0l-.012-.032h0l-.007-.015h0l-.006-.014h0l-.007-.014h0a.378.378,0,0,0-.215-.19l-.009,0h0l-.01,0h0l-.009,0h0l-.009,0h0l-.009,0h0l-.009,0h0l-.009,0H444.2A3.816,3.816,0,0,0,442.513,1316.262Zm-6.755-.7c-.234,0-.5.079-.5.7s.268.7.5.7a.989.989,0,1,0,0-1.4Zm1.686-3.743a.524.524,0,1,0,.462.764h0c.017-.038.033-.077.047-.115a.51.51,0,0,0,.015-.126A.522.522,0,0,0,437.444,1311.821Zm0,7.838a.519.519,0,1,0,.507.4c-.014-.04-.031-.08-.049-.119l0,0A.52.52,0,0,0,437.444,1319.659Zm.41-3.4,2.126,3.677,2.1-3.632-.073-.045.073-.043-2.1-3.636Zm4.666,3.4a.525.525,0,0,0-.465.282h0l-.037.089a.534.534,0,0,0-.021.148.522.522,0,1,0,.522-.521Zm0-6.524a.792.792,0,0,1-.705-.436h0l-.005-.013v0l-.026-.062,0-.007-.007-.018h0a1.285,1.285,0,0,1,.522-1.634,1.446,1.446,0,0,1,1.874.23,1.881,1.881,0,0,1,.161,2.1,2.9,2.9,0,0,1-2.707,1.412h-.108l.795,1.377a4.078,4.078,0,0,1,1.9-.781c.352,0,.772.167.772.966s-.42.968-.772.968a4.1,4.1,0,0,1-1.9-.78l-.795,1.375a2.913,2.913,0,0,1,2.815,1.414,1.882,1.882,0,0,1-.161,2.093,1.286,1.286,0,0,1-1.027.472,1.613,1.613,0,0,1-.847-.241,1.277,1.277,0,0,1-.532-1.6.792.792,0,1,1,.205.784,1.026,1.026,0,0,0,.466.591,1.181,1.181,0,0,0,1.53-.171,1.63,1.63,0,0,0,.128-1.8,2.749,2.749,0,0,0-2.735-1.261l-1.374,2.379v0l0,0L438.6,1318.1a2.734,2.734,0,0,0-2.731,1.264,1.611,1.611,0,0,0,.128,1.8,1.171,1.171,0,0,0,1.524.171,1.017,1.017,0,0,0,.468-.586.79.79,0,1,1,.217-.757,1.269,1.269,0,0,1-.542,1.572,1.6,1.6,0,0,1-.846.241,1.292,1.292,0,0,1-1.027-.47,1.874,1.874,0,0,1-.16-2.095,2.914,2.914,0,0,1,2.81-1.414l-.793-1.375a4.106,4.106,0,0,1-1.9.78c-.352,0-.769-.167-.769-.968s.417-.966.769-.966h.062l.021,0h.022l.022,0,.023,0,.022,0,.022,0h0l.023,0,.023,0h0l.023,0h0l.023,0h0l.023.005h0l.024.005h0l.024.006h0l.024.006h0l.024.007h0l.025.007h0l.025.007h0l.025.008h0l.025.007h0l.025.009h0l.026.009h0l.026.009h0l.026.009h0l.027.01h0l.027.01h0l.056.022h0l.028.011h0l.028.012h0l.028.012h0l.029.013h0a6.387,6.387,0,0,1,.59.3h0l.035.02h0l.035.021h0l.036.021.189.112h0l.039.024h0l.038.024h0l.04.024.04.025.795-1.377h-.111a2.889,2.889,0,0,1-2.7-1.412,1.875,1.875,0,0,1,.16-2.1,1.439,1.439,0,0,1,1.873-.23,1.272,1.272,0,0,1,.542,1.573.791.791,0,1,1-.766-.981.784.784,0,0,1,.549.223,1.023,1.023,0,0,0-.467-.587,1.169,1.169,0,0,0-1.524.171,1.617,1.617,0,0,0-.128,1.8,2.74,2.74,0,0,0,2.732,1.26l1.372-2.379,0,0v0l.116.2,1.257,2.178a2.736,2.736,0,0,0,2.733-1.26,1.631,1.631,0,0,0-.125-1.806,1.183,1.183,0,0,0-1.527-.171,1.042,1.042,0,0,0-.468.594.79.79,0,1,1,.552,1.353Zm0-1.31a.521.521,0,1,0,.522.519A.521.521,0,0,0,442.52,1311.824Zm-34.982,4.438a3.839,3.839,0,0,0,1.688.7c.234,0,.5-.081.5-.7s-.269-.7-.5-.7A3.837,3.837,0,0,0,407.537,1316.262Zm-6.755-.7c-.237,0-.5.081-.5.7s.267.7.5.7a.99.99,0,1,0,0-1.4Zm1.681-3.74a.523.523,0,1,0,.522.522A.524.524,0,0,0,402.463,1311.821Zm0,7.838a.521.521,0,1,0,.522.521A.522.522,0,0,0,402.463,1319.659Zm.415-3.4,2.125,3.677,2.1-3.632-.069-.045.069-.043-2.1-3.636Zm4.666,3.4a.528.528,0,0,0-.467.283l0,0c-.018.042-.035.083-.05.122a.567.567,0,0,0-.012.115.523.523,0,1,0,.526-.522Zm0-6.522a.794.794,0,0,1-.768-.592v0a1.271,1.271,0,0,1,.543-1.577,1.439,1.439,0,0,1,1.871.23,1.879,1.879,0,0,1,.164,2.093,2.9,2.9,0,0,1-2.71,1.415h-.1l.795,1.377a4.085,4.085,0,0,1,1.893-.783c.353,0,.771.168.771.968s-.418.966-.771.966a4.073,4.073,0,0,1-1.893-.779l-.794,1.375a2.915,2.915,0,0,1,2.814,1.414,1.883,1.883,0,0,1-.164,2.095,1.291,1.291,0,0,1-1.024.47,1.6,1.6,0,0,1-.847-.241,1.269,1.269,0,0,1-.544-1.572.793.793,0,1,1,.217.756,1.017,1.017,0,0,0,.466.588,1.175,1.175,0,0,0,1.526-.171,1.615,1.615,0,0,0,.129-1.8,2.732,2.732,0,0,0-2.732-1.264l-1.374,2.38,0,0,0,0-1.373-2.379a2.722,2.722,0,0,0-2.733,1.264,1.614,1.614,0,0,0,.131,1.8,1.17,1.17,0,0,0,1.52.173,1.027,1.027,0,0,0,.475-.6.789.789,0,1,1,.15-.911h0a1.3,1.3,0,0,1-.489,1.738,1.6,1.6,0,0,1-.841.239,1.277,1.277,0,0,1-1.024-.472,1.877,1.877,0,0,1-.164-2.093,2.922,2.922,0,0,1,2.814-1.414l-.794-1.375a4.1,4.1,0,0,1-1.9.779c-.352,0-.774-.166-.774-.966s.422-.968.774-.968a4.109,4.109,0,0,1,1.9.783l.794-1.377h-.11a2.891,2.891,0,0,1-2.7-1.412,1.876,1.876,0,0,1,.161-2.1,1.436,1.436,0,0,1,1.869-.23,1.289,1.289,0,0,1,.485,1.733h0a.79.79,0,1,1-.15-.908,1.025,1.025,0,0,0-.472-.6,1.174,1.174,0,0,0-1.524.171,1.622,1.622,0,0,0-.131,1.8,2.734,2.734,0,0,0,2.734,1.261l1.373-2.379,0,0,0,0,.116.2,1.258,2.178a2.719,2.719,0,0,0,2.736-1.264,1.622,1.622,0,0,0-.132-1.8,1.177,1.177,0,0,0-1.526-.173,1.032,1.032,0,0,0-.465.589.79.79,0,1,1,.553,1.358Zm0-1.314a.527.527,0,0,0-.526.522.5.5,0,0,0,.015.125c.014.038.03.077.047.116h0a.53.53,0,0,0,.466.281.523.523,0,0,0,0-1.045Zm28.289,11.721a.521.521,0,0,0-.369.891.5.5,0,0,0,.366.15.531.531,0,0,0,.373-.151.53.53,0,0,0,0-.738A.519.519,0,0,0,435.834,1323.542Zm-5.539,5.541a.5.5,0,0,0-.366.152.5.5,0,0,0-.157.367.511.511,0,0,0,.15.369.537.537,0,0,0,.742,0,.525.525,0,0,0,.1-.135l.032-.077h0a.5.5,0,0,0,.024-.157.533.533,0,0,0-.153-.366A.514.514,0,0,0,430.295,1329.083Zm6.358,1.34a7.427,7.427,0,0,0,.319,1.046h0l.03.074h0l.015.036h0l.031.068h0l.015.033h0l.016.032h0l.031.061h0l.015.03h0l.016.029.016.027.016.027.016.026.016.025h0l.016.024.016.023.017.022.017.021.016.02h0l.016.02h0l.017.018.017.018.017.017.017.016.016.015.018.014.017.013.017.013.018.011.017.01.018.01.017.009.017.008.018.007.018.006.017,0,.018,0,.018,0,.018,0h.036a.818.818,0,0,0,.529-.3c.237-.238.331-.45.28-.628l-.005-.016-.006-.016-.006-.015-.007-.017-.008-.015-.009-.016-.009-.016-.01-.016-.011-.015-.012-.016-.013-.015-.013-.016-.014-.015-.014-.016-.016-.015-.016-.015-.018-.015-.017-.016-.019-.015-.019-.015-.02-.015-.02-.015-.022-.015-.023-.015-.023-.015-.023-.015-.024-.015h0l-.025-.015h0l-.026-.015h0l-.026-.015h0l-.027-.014h0l-.028-.014h0l-.029-.015h0l-.03-.014h0l-.03-.014h0l-.031-.015h0l-.032-.014h0l-.032-.014h0l-.032-.014h0l-.034-.013h0l-.034-.014h0l-.035-.014h0l-.035-.013h0l-.036-.014h0l-.037-.014h0l-.037-.013h0l-.038-.014h0l-.039-.013h0l-.081-.027h0l-.04-.013h0C437.084,1330.534,436.877,1330.481,436.652,1330.423Zm-.337-.276-.017-.08.075.017,1.086-4.059-4.1,1.1-1.1,4.11Zm-4.965-4.666a.517.517,0,0,0-.112.434.8.8,0,0,0,.4.413h0l.025.015h0l.025.015h0l.026.015h0l.027.015h0l.028.014h0l.028.015h0l.029.014h0l.03.015.032.014.032.014.033.014.033.014.035.013.035.015.035.012h0l.036.015.037.013.038.013.039.014.04.014.04.013.041.014.041.014.043.013.043.013.044.013.045.013.045.013.046.013h0l.047.013.047.014.048.012.049.012.05.014.051.012.051.013.052.013c-.3-1.224-.637-1.843-1.02-1.843a.811.811,0,0,0-.53.294l-.011.011-.01.011-.011.01-.011.011-.01.012-.01.01h0l-.009.011-.009.011h0l-.009.011-.009.011-.008.011h0l-.009.011-.008.01h0l-.008.011h0l-.007.011h0l-.007.01h0l-.014.021Zm2.534,7.191a.556.556,0,0,0-.155.024h0l-.006,0-.069.028h0l-.005,0a.536.536,0,0,0-.132.1.51.51,0,0,0-.15.366.523.523,0,0,0,.154.368.532.532,0,0,0,.738,0,.519.519,0,0,0,.154-.37.529.529,0,0,0-.523-.519Zm5.541-4.229a.788.788,0,0,1-.7-1.153,1.276,1.276,0,0,1,1.521-.774A1.442,1.442,0,0,1,441.4,1328a1.884,1.884,0,0,1-1.367,1.6,2.413,2.413,0,0,1-.715.109,3.206,3.206,0,0,1-2.272-1.1l-.41,1.534q.425.1.76.208h0l.046.015h0l.046.015h0l.045.016.046.016.043.016h0l.084.032h0l.041.016h0l.04.017h0l.039.016h0l.038.016h0l.037.017h0l.036.017h0l.036.017h0l.035.017h0l.034.016h0l.033.018h0l.033.018.032.017h0l.031.018.03.017.029.018h0l.028.017.028.018.027.018h0l.026.018h0l.025.019h0l.024.018.024.018.023.02.022.019.021.019.02.02h0l.019.019.019.019.018.02.016.02h0l.017.02.015.02.015.02.014.02.013.021.012.02.012.021.011.02.01.022.009.021.009.021.008.021.007.022a.909.909,0,0,1-.348.891,1.041,1.041,0,0,1-.718.374h-.026l-.026,0-.05-.005-.025,0-.025-.005-.024-.006-.025-.008-.024-.008-.024-.009-.024-.011-.024-.011-.023-.013-.023-.013-.023-.014-.023-.016-.023-.016-.022-.017-.023-.019-.022-.019-.022-.02-.022-.021-.021-.023-.021-.024-.021-.024-.02-.026h0l-.021-.027-.021-.028-.02-.029h0l-.02-.03h0l-.02-.031h0l-.02-.032h0l-.019-.033h0l-.019-.034h0l-.019-.036h0l-.019-.036h0l-.018-.038h0l-.019-.039h0a6.557,6.557,0,0,1-.455-1.4l-1.534.41a2.921,2.921,0,0,1,.991,2.984,1.881,1.881,0,0,1-1.594,1.374c-.042,0-.084.006-.127.006a1.465,1.465,0,0,1-1.36-1.169,1.294,1.294,0,0,1,.888-1.569v0a.8.8,0,0,1,.806.189.772.772,0,0,1,.233.551.793.793,0,0,1-.791.793.794.794,0,0,1-.79-.781,1.023,1.023,0,0,0-.088.75,1.2,1.2,0,0,0,1.1.964.986.986,0,0,0,.1-.008,1.619,1.619,0,0,0,1.365-1.186,2.731,2.731,0,0,0-1.043-2.821l-2.653.709h0l.06-.225.651-2.429a2.735,2.735,0,0,0-2.82-1.041,1.629,1.629,0,0,0-1.188,1.371,1.174,1.174,0,0,0,.954,1.194,1.019,1.019,0,0,0,.762-.087.8.8,0,0,1-.561-.23.791.791,0,0,1,0-1.118.808.808,0,0,1,1.114,0,.766.766,0,0,1,.23.556.789.789,0,0,1-.04.25h0a1.288,1.288,0,0,1-1.24.925,1.547,1.547,0,0,1-.33-.037,1.44,1.44,0,0,1-1.161-1.483,1.89,1.89,0,0,1,1.373-1.6,2.936,2.936,0,0,1,2.983.99l.412-1.535-.061-.015-.06-.014-.059-.015-.059-.014-.057-.015-.056-.015-.056-.015h0l-.054-.015-.054-.014h0l-.052-.015h0l-.052-.015-.05-.014h0l-.05-.015-.049-.015-.047-.016-.047-.015h0l-.046-.015h0l-.045-.015h0l-.045-.016-.043-.016h0l-.042-.016h0l-.041-.016h0l-.04-.016h0l-.04-.016h0l-.039-.015h0c-.051-.022-.1-.044-.146-.066h0q-.069-.034-.132-.068h0l-.061-.034h0l-.03-.017h0a1.5,1.5,0,0,1-.245-.183h0l-.02-.019h0l-.019-.019h0a.836.836,0,0,1-.084-.1h0l-.015-.02h0l-.013-.02h0l-.013-.02h0l-.012-.021h0l-.011-.02h0l-.01-.021h0l-.01-.021h0l-.009-.021h0l-.008-.021-.008-.021-.007-.022,0-.014,0-.013,0-.014h0l0-.013h0l0-.027h0a.713.713,0,0,1,.088-.454h0l.007-.014h0l.015-.028h0l.017-.029h0l.009-.014h0l.028-.043h0l.009-.014h0l.01-.015h0l.011-.014.011-.015.011-.013h0l.011-.015h0l.012-.014.012-.016h0l.012-.013.013-.015.013-.014.013-.015.013-.014.014-.015.014-.014.014-.015a1.037,1.037,0,0,1,.717-.372c.7,0,1.077,1.174,1.3,2.125l1.534-.411a2.933,2.933,0,0,1-.992-2.983,1.892,1.892,0,0,1,1.6-1.374,1.448,1.448,0,0,1,1.491,1.164,1.284,1.284,0,0,1-.786,1.523l-.017.008-.007,0h0a.792.792,0,0,1-.331.072.779.779,0,0,1-.556-.229.792.792,0,0,1,0-1.119.808.808,0,0,1,1.115,0,.784.784,0,0,1,.23.554,1.028,1.028,0,0,0,.089-.75,1.168,1.168,0,0,0-1.2-.959,1.625,1.625,0,0,0-1.369,1.187,2.728,2.728,0,0,0,1.042,2.821l2.655-.711h0l-.062.223-.651,2.439a2.731,2.731,0,0,0,2.825,1.036,1.624,1.624,0,0,0,1.184-1.367,1.174,1.174,0,0,0-.954-1.2,1.019,1.019,0,0,0-.764.1.784.784,0,1,1,0,1.569Zm0-1.31a.513.513,0,0,0-.369.152.52.52,0,0,0-.1.131l0,0,0,.005-.028.071h0a.526.526,0,0,0,.129.528.537.537,0,0,0,.738,0,.519.519,0,0,0,.15-.37.506.506,0,0,0-.15-.37A.525.525,0,0,0,439.424,1327.133ZM411.1,1298.808a.535.535,0,0,0-.369.153.524.524,0,0,0,0,.736.532.532,0,0,0,.557.12l.012-.005a.509.509,0,0,0,.173-.113.524.524,0,0,0,0-.74A.534.534,0,0,0,411.1,1298.808Zm-5.536,5.54a.525.525,0,0,0-.522.521.523.523,0,0,0,.154.371.519.519,0,0,0,.823-.113c.015-.031.027-.065.04-.1h0a.523.523,0,0,0-.127-.527A.528.528,0,0,0,405.564,1304.348Zm6.913,2.856c.022.033.043.063.065.09h0a.568.568,0,0,0,.345.236l.014,0h.126l.017,0,.006,0h0l.006,0h0l.007,0h0l.006,0,.01,0,.006,0h0l.007,0h0l.023-.01h0l.007,0h0l.007,0h0l.007,0h0l.007,0h0l.008,0h0l.007,0h0l.007,0h0l.008,0,.009-.005.008,0a1.35,1.35,0,0,0,.261-.211.849.849,0,0,0,.3-.517v-.035h0v-.008h0v-.009h0v-.017h0l0-.007h0l0-.007v0l0-.007h0l0-.008h0l0-.007h0l-.005-.015-.013-.032h0a.514.514,0,0,0-.067-.109h0l-.04-.047h0l-.015-.014h0l-.032-.031h0l-.017-.015h0l-.018-.014h0l-.018-.015h0l-.019-.015h0l-.02-.013h0l-.021-.014h0l-.022-.014h0l-.022-.014h0l-.023-.014h0l-.024-.015h0l-.025-.015-.025-.014-.026-.015h0l-.027-.014h0l-.028-.015-.028-.013h0l-.029-.015-.03-.013h0l-.031-.014-.031-.014-.032-.014-.033-.014-.033-.014h0l-.034-.014-.035-.014-.036-.014-.036-.014-.038-.014-.038-.013-.038-.014-.039-.013-.041-.014-.04-.013-.042-.013-.043-.013-.043-.014-.044-.012-.045-.014-.045-.013-.047-.013-.047-.013-.047-.013-.048-.012-.049-.013-.05-.013-.05-.013-.051-.013-.052-.013.013.058.014.056.014.055.014.054.014.054.014.052.014.052.014.051.014.05.015.049.015.048.015.047.014.046.015.046.015.044h0l.015.043.015.043.015.042.015.041.015.04.015.039h0l.015.039.015.037.016.036.015.036h0l.015.035.016.034.015.032.016.031h0l.016.032h0l.016.03h0l.015.03h0l.015.029h0l.016.027h0l.015.027h0l.015.026h0l.015.025Zm-3.854-4.813-1.1,4.109,4.058-1.085-.018-.081.08.016,1.087-4.059Zm-1.875-.9a4.519,4.519,0,0,0,1.582.606,7.144,7.144,0,0,0-.349-1.119h0c-.031-.072-.062-.138-.094-.2h0l-.015-.03h0l-.016-.03h0l-.015-.028h0l-.015-.028h0l-.015-.027h0l-.015-.026h0l-.015-.025h0l-.016-.024-.016-.024-.016-.022-.016-.021-.017-.02-.017-.02-.016-.019-.017-.017-.017-.017-.017-.016h0l-.017-.016-.017-.014-.017-.014-.017-.012-.017-.011-.017-.01-.017-.009-.017-.009-.017-.008-.017-.007-.018-.007-.018,0-.017,0-.018,0-.018,0h-.036a.817.817,0,0,0-.529.3c-.241.239-.333.451-.282.628l.005.016.006.016.007.016.008.016.008.016.008.016.01.016.011.016.023.031h0l.012.015h0l.013.016h0l.013.016h0l.015.015.015.016h0l.016.015h0l.034.031h0l.037.029Zm2.4,6.445a.526.526,0,0,0-.369.152.524.524,0,0,0,0,.74.523.523,0,0,0,.738-.74A.528.528,0,0,0,409.153,1307.939Zm5.538-4.229a.791.791,0,0,1-.694-1.166,1.271,1.271,0,0,1,1.516-.76,1.439,1.439,0,0,1,1.159,1.483,1.89,1.89,0,0,1-1.371,1.6,2.343,2.343,0,0,1-.712.107,3.206,3.206,0,0,1-2.273-1.1l-.412,1.536.061.014.061.015.059.014.058.015.058.015.056.014.056.015.055.015.053.015.052.015.052.016.051.015.05.016.049.015.048.016h0l.046.016.046.015h0l.045.016.044.016.043.016.043.016.041.016.041.016.04.016.038.017h0l.037.016h0l.037.017.036.017h0l.035.017.034.017h0l.033.017h0l.032.017.031.017h0l.031.018h0l.029.018h0l.029.018h0l.028.017h0l.054.036h0a.967.967,0,0,1,.406.5.65.65,0,0,1-.017.406h0l0,.014h0a1.333,1.333,0,0,1-.325.471,1.248,1.248,0,0,1-.547.351l-.009,0-.013,0-.009,0h0l-.011,0-.009,0h-.013l-.008,0h-.013l-.008,0h-.152l-.023,0h0c-.4-.062-.722-.5-1-1.376l0-.009-.014-.045h0l-.014-.045,0-.011-.011-.035-.006-.023-.007-.023-.01-.036,0-.01-.013-.047v0l-.011-.043-.005-.019-.008-.027-.009-.034,0-.012-.012-.046,0-.006-.01-.04-.006-.025-.006-.021-.011-.045h0l-.011-.045,0-.021-.005-.024-.011-.045-1.534.412a2.924,2.924,0,0,1,.991,2.985,1.888,1.888,0,0,1-1.594,1.371c-.046,0-.088.006-.13.006a1.462,1.462,0,0,1-1.357-1.17,1.288,1.288,0,0,1,.884-1.565l0,.005a.8.8,0,0,1,.809.186.789.789,0,0,1-.561,1.346.794.794,0,0,1-.786-.782,1.031,1.031,0,0,0-.087.75,1.171,1.171,0,0,0,1.2.955,1.626,1.626,0,0,0,1.37-1.182,2.733,2.733,0,0,0-1.045-2.823l-2.656.71.061-.224.65-2.435a2.724,2.724,0,0,0-2.823-1.038,1.62,1.62,0,0,0-1.184,1.368,1.176,1.176,0,0,0,.957,1.2,1.014,1.014,0,0,0,.758-.091.776.776,0,0,1-.556-.229.786.786,0,0,1,0-1.119.811.811,0,0,1,1.114,0,.793.793,0,0,1,.189.81l0,.009-.029.071-.006.013,0,0a1.269,1.269,0,0,1-1.2.829,1.5,1.5,0,0,1-1.49-1.524,1.877,1.877,0,0,1,1.369-1.6,2.921,2.921,0,0,1,2.986.987l.409-1.534c-.282-.066-.535-.135-.759-.207h0l-.046-.016h0l-.045-.015h0l-.044-.015-.045-.016h0l-.043-.016h0l-.042-.017h0l-.041-.016h0l-.04-.016h0l-.039-.017h0l-.039-.016h0l-.038-.017h0l-.037-.017h0l-.037-.017h0l-.036-.017h0l-.035-.016h0l-.035-.017h0l-.033-.017h0l-.033-.017-.032-.018h0l-.031-.018-.03-.017-.029-.018h0l-.028-.018h0l-.027-.018h0l-.027-.018-.026-.018h0l-.025-.018-.024-.02-.024-.018-.023-.019-.022-.019-.021-.019-.02-.018-.02-.02-.019-.02-.018-.02-.017-.019-.016-.021-.016-.02-.015-.02-.014-.02-.013-.02-.013-.021-.012-.021-.01-.021-.01-.021-.009-.021-.008-.021-.008-.022-.007-.021a.927.927,0,0,1,.354-.9l.011-.012.012-.011h0l.011-.01h0l.011-.011h0l.012-.01h0l.011-.01h0l.01-.01h0l.01-.009h0l.011-.008v0l.01-.009h0l.01-.009.034-.028h0a1.006,1.006,0,0,1,.423-.214h0l.01,0h0l.009,0h0l.031,0h0l.032,0h.07l.025,0,.025,0,.025,0,.024,0,.025.005.024.006.024.007.025.008.024.009.024.011.023.011.023.013.023.013.023.015.022.016.023.016.022.017.023.019.022.019h0l.021.02h0l.021.021h0l.021.022.021.024.021.024.021.026h0l.02.027h0l.02.028h0l.02.029h0l.02.03.02.031h0l.02.032h0l.019.033h0l.019.034h0l.019.036h0l.019.036h0l.057.115h0a6.863,6.863,0,0,1,.437,1.357l1.532-.409a2.932,2.932,0,0,1-.99-2.984,1.887,1.887,0,0,1,1.6-1.373,1.442,1.442,0,0,1,1.487,1.167,1.274,1.274,0,0,1-.766,1.513.79.79,0,0,1-.929-1.256.814.814,0,0,1,1.118,0,.805.805,0,0,1,.228.556,1.024,1.024,0,0,0,.09-.751,1.2,1.2,0,0,0-1.1-.964c-.031,0-.066,0-.1,0a1.624,1.624,0,0,0-1.364,1.186,2.726,2.726,0,0,0,1.043,2.823l2.655-.709-.059.224-.652,2.433a2.709,2.709,0,0,0,2.822,1.039,1.624,1.624,0,0,0,1.188-1.369,1.175,1.175,0,0,0-.954-1.2,1.034,1.034,0,0,0-.763.1.786.786,0,0,1,.56.224.774.774,0,0,1,.23.557.783.783,0,0,1-.233.558A.774.774,0,0,1,414.691,1303.71Zm0-1.312a.51.51,0,0,0-.37.156.535.535,0,0,0-.084.109l-.042.1h0a.485.485,0,0,0-.022.157.5.5,0,0,0,.153.368.527.527,0,0,0,.731,0,.509.509,0,0,0,.157-.37.521.521,0,0,0-.522-.522Zm-6.068,27.737,4.106,1.1-1.086-4.058-.081.018.018-.082-4.058-1.086Zm4.315-5.143c-.382,0-.724.62-1.02,1.843,1.114-.27,1.731-.58,1.831-.92.054-.179-.045-.391-.282-.632A.811.811,0,0,0,412.938,1324.992Zm1.753,4.091a.506.506,0,0,0-.37.153.5.5,0,0,0-.15.366.527.527,0,0,0,.023.157h0l.037.09,0,.005a.515.515,0,0,0,.09.117.533.533,0,0,0,.738,0,.52.52,0,0,0-.372-.888Zm-5.542-5.541a.522.522,0,0,0-.186,1.008h0a.506.506,0,0,0,.183.032.52.52,0,1,0,0-1.041ZM408,1331.507a7.613,7.613,0,0,0,.334-1.084q-.313.075-.572.153h0l-.042.014h0l-.041.013h0l-.04.013h0l-.04.014h0l-.038.013h0l-.038.014h0l-.037.013h0l-.037.014h0l-.036.014h0l-.035.013h0l-.034.014h0l-.034.014h0l-.033.014h0l-.032.014h0l-.032.014h0l-.031.014h0l-.03.015h0l-.03.014h0l-.03.014h0l-.029.014h0l-.028.015-.027.014h0l-.027.015h0l-.025.014h0l-.025.015h0l-.024.015-.024.015-.023.015-.022.015-.021.014h0l-.021.016h0l-.02.015-.019.014h0l-.018.016-.018.015h0l-.017.015-.016.016h0l-.015.014-.016.016-.014.015-.013.016-.013.015-.011.015-.011.016-.011.016-.01.015-.008.017-.008.016-.008.016-.007.016-.006.015-.005.016,0,.017v.009l0,.008v.116l0,.009h0l0,.009v.01h0l0,.009h0l0,.009h0l0,.009,0,.009h0l0,.009h0l0,.009h0l0,.009h0l0,.009h0l0,.009h0l0,.01h0l0,.01h0l0,.009h0l0,.01h0l0,.01h0l0,.009h0l.005.009h0l0,.01h0l.006.01h0l.006.01h0l.007.009h0l.006.009.007.011h0l.007.009h0l.014.021h0l.015.021h0l.008.01h0l.008.01h0l.009.01h0l.008.01h0l.009.01h0l.009.01h0l.009.01h0l.009.01h0l.009.01h0l.01.01h0l.01.01h0l.01.011h0l.01.011.011.011.011.011.011.011.012.011a.825.825,0,0,0,.526.3h.036l.018,0,.018,0,.018,0,.018,0,.017-.006.018-.007.017-.008.018-.009.017-.01.017-.01h0l.017-.011.017-.013.017-.013.017-.014.017-.015.017-.016.017-.017.017-.018.017-.018.016-.02.017-.02.016-.021h0l.016-.022.016-.023h0l.016-.024.016-.025h0l.015-.026h0l.016-.027h0l.016-.027h0l.016-.029h0l.016-.03h0l.031-.061h0l.015-.032h0l.015-.033h0l.016-.034h0l.015-.035h0l.03-.072Zm-2.437-4.374a.511.511,0,0,0-.369.153.523.523,0,0,0,0,.738.543.543,0,0,0,.742,0,.529.529,0,0,0,.127-.529h0c-.015-.039-.031-.077-.048-.114a.521.521,0,0,0-.077-.1A.534.534,0,0,0,405.56,1327.133Zm5.54,6.849a.788.788,0,0,1-.557-1.344.812.812,0,0,1,.806-.187l0-.005a1.3,1.3,0,0,1,.888,1.569,1.464,1.464,0,0,1-1.362,1.169c-.041,0-.084,0-.125-.006a1.89,1.89,0,0,1-1.6-1.372,2.932,2.932,0,0,1,.991-2.987l-1.533-.409c-.33,1.4-.712,2.06-1.226,2.119h-.012l-.013,0h-.052a1.049,1.049,0,0,1-.713-.374.919.919,0,0,1-.354-.891l.007-.022.008-.021.008-.021.009-.021.01-.022.011-.021.012-.02.013-.02.013-.021.014-.02.015-.02.016-.02.016-.02.017-.02.018-.02.019-.019.02-.019.02-.019.021-.019.022-.018.023-.019.024-.019.024-.019.025-.018h0l.026-.018.027-.018h0l.027-.018h0l.028-.018h0l.029-.018.03-.017.031-.017h0l.032-.017.033-.017h0l.033-.017h0l.035-.017h0l.035-.018h0l.036-.016h0l.037-.017h0l.037-.016h0l.038-.016h0l.039-.016h0l.039-.017h0l.04-.016h0l.041-.017h0l.042-.016h0l.043-.015h0l.044-.016h0l.044-.016h0l.045-.015h0l.046-.015h0c.223-.071.477-.138.759-.208l-.409-1.534a3.2,3.2,0,0,1-2.273,1.1,2.408,2.408,0,0,1-.713-.11,1.883,1.883,0,0,1-1.369-1.6,1.441,1.441,0,0,1,1.161-1.485,1.274,1.274,0,0,1,1.524.784.793.793,0,0,1-.146.913.8.8,0,0,1-1.117,0,.792.792,0,0,1,0-1.119.779.779,0,0,1,.571-.222,1.008,1.008,0,0,0-.773-.1,1.173,1.173,0,0,0-.954,1.2,1.619,1.619,0,0,0,1.184,1.367,2.72,2.72,0,0,0,2.823-1.036l-.71-2.662,2.656.711a2.732,2.732,0,0,0,1.045-2.822,1.629,1.629,0,0,0-1.37-1.185.88.88,0,0,0-.1-.006,1.2,1.2,0,0,0-1.1.963,1.035,1.035,0,0,0,.09.752.786.786,0,0,1,.234-.554.81.81,0,0,1,1.114,0,.789.789,0,0,1-.561,1.348.784.784,0,0,1-.36-.087l0,0a1.274,1.274,0,0,1-.769-1.519,1.463,1.463,0,0,1,1.357-1.169,1.131,1.131,0,0,1,.127,0,1.891,1.891,0,0,1,1.6,1.373,2.931,2.931,0,0,1-.991,2.984l1.534.411c.344-1.468.749-2.125,1.3-2.125a1.056,1.056,0,0,1,.718.372.907.907,0,0,1,.348.894c-.136.465-.783.816-2.1,1.123l.412,1.537a2.934,2.934,0,0,1,2.988-.991,1.888,1.888,0,0,1,1.367,1.6,1.447,1.447,0,0,1-1.162,1.488,1.532,1.532,0,0,1-.328.037,1.264,1.264,0,0,1-1.185-.8h0l0,0a.791.791,0,0,1,.138-.929.815.815,0,0,1,1.118,0,.8.8,0,0,1,0,1.118.8.8,0,0,1-.551.23,1.022,1.022,0,0,0,.75.091,1.183,1.183,0,0,0,.958-1.205,1.624,1.624,0,0,0-1.188-1.364,2.732,2.732,0,0,0-2.822,1.041l.711,2.654-2.656-.71a2.733,2.733,0,0,0-1.042,2.825,1.623,1.623,0,0,0,1.368,1.183,1.183,1.183,0,0,0,1.2-.957,1.019,1.019,0,0,0-.087-.751.788.788,0,0,1-.79.783Zm0-1.309a.533.533,0,0,0-.373.154.525.525,0,0,0,0,.734.535.535,0,0,0,.738,0,.526.526,0,0,0,.153-.37.5.5,0,0,0-.149-.366A.525.525,0,0,0,411.1,1332.673Zm21.962-26.984c-1.114.268-1.729.578-1.827.919-.052.18.041.392.278.631a.841.841,0,0,0,.53.3C432.428,1307.535,432.769,1306.915,433.065,1305.689Zm4.607-5.428h-.036l-.018,0-.018,0-.018,0-.017.005-.018.006-.018.007-.017.008-.017.009-.018.009-.017.01-.018.012-.017.012-.017.014-.018.014-.016.015-.017.016-.017.017-.017.017-.017.018h0l-.016.02h0l-.016.02-.017.021-.017.023-.016.023h0l-.016.024h0l-.016.025-.016.025-.016.026h0l-.016.027h0l-.016.028h0l-.015.029h0l-.031.061h0l-.016.032h0l-.015.032h0l-.015.033-.016.036h0l-.015.035h0l-.03.073h0l-.03.076h0l-.014.039v0l-.014.039v0a8.766,8.766,0,0,0-.258.886,6.943,6.943,0,0,0,1.142-.358h0l.032-.013h0l.031-.013h0l.06-.028h0l.029-.014h0l.028-.014h0l.027-.014h0l.026-.014h0l.026-.015h0l.025-.014h0l.024-.016.023-.015.023-.015.023-.014v0l.022-.014.02-.015.02-.016.019-.014h0l.019-.015h0l.017-.015.018-.016h0l.016-.014h0l.016-.016h0l.014-.015h0l.014-.016h0l.013-.016h0l.013-.015h0l.012-.016h0l.011-.015h0l.01-.015h0l.009-.015.009-.016h0l.008-.016.007-.016h0l.006-.016.006-.016.005-.016c.051-.177-.043-.388-.28-.628A.819.819,0,0,0,437.672,1300.261Zm1.752,4.088a.522.522,0,0,0-.369.154.511.511,0,0,0-.153.367.536.536,0,0,0,.024.16h0l.028.072,0,.007,0,0,0,0a.491.491,0,0,0,.094.129.542.542,0,0,0,.738,0,.523.523,0,0,0-.37-.892Zm-5.541-5.54a.519.519,0,0,0-.369.153.539.539,0,0,0-.154.373.5.5,0,0,0,.15.363.519.519,0,0,0,.162.109h0l.01,0,.012,0a.53.53,0,0,0,.556-.117.522.522,0,0,0-.369-.891Zm3.58,7.693-1.089-4.058-.08.02.018-.082-3.408-.916-.645-.173,1.1,4.111Zm-7.169-4.1a.517.517,0,0,0-.523.522.517.517,0,0,0,.15.37.528.528,0,0,0,.373.153.51.51,0,0,0,.369-.153.53.53,0,0,0,.153-.37.493.493,0,0,0-.025-.156h0l0-.006,0-.006-.016-.041h0l0-.005,0-.006,0-.005a.534.534,0,0,0-.1-.14A.512.512,0,0,0,430.295,1302.4Zm5.539,6.852a.787.787,0,0,1-.556-1.346.806.806,0,0,1,.806-.185l0-.006a1.292,1.292,0,0,1,.884,1.57,1.46,1.46,0,0,1-1.355,1.166c-.041,0-.087,0-.132-.006a1.88,1.88,0,0,1-1.592-1.368,2.932,2.932,0,0,1,.99-2.988l-1.535-.411c-.346,1.47-.746,2.126-1.3,2.126a1.062,1.062,0,0,1-.717-.373.915.915,0,0,1-.348-.893c.136-.467.783-.816,2.1-1.122l-.41-1.537a3.2,3.2,0,0,1-2.275,1.1,2.355,2.355,0,0,1-.71-.107,1.888,1.888,0,0,1-1.373-1.6,1.441,1.441,0,0,1,1.161-1.486,1.3,1.3,0,0,1,1.57.884l0,0a.8.8,0,0,1,.04.25.787.787,0,0,1-.786.79.785.785,0,1,1,0-1.57,1.04,1.04,0,0,0-.761-.1,1.182,1.182,0,0,0-.958,1.2,1.623,1.623,0,0,0,1.188,1.366,2.737,2.737,0,0,0,2.821-1.043l-.709-2.653,2.652.709a2.728,2.728,0,0,0,1.044-2.822,1.623,1.623,0,0,0-1.369-1.186c-.03,0-.066,0-.1,0a1.2,1.2,0,0,0-1.1.964,1.017,1.017,0,0,0,.088.746.8.8,0,0,1,.233-.55.809.809,0,0,1,1.114,0,.8.8,0,0,1,0,1.118.786.786,0,0,1-.558.233.774.774,0,0,1-.374-.094,1.278,1.278,0,0,1-.763-1.515,1.465,1.465,0,0,1,1.36-1.169c.043,0,.084,0,.127.006a1.879,1.879,0,0,1,1.594,1.375,2.921,2.921,0,0,1-.989,2.982l1.534.41a8.444,8.444,0,0,1,.324-1.094v0l.017-.044v0l.018-.044h0l.018-.043h0l.017-.042h0l.017-.04h0l.018-.039v0l.018-.037h0l.019-.038h0l.018-.035v0l.019-.035h0l.019-.033v0l.019-.033h0l.019-.032h0l.02-.031v0l.02-.03h0l.02-.029h0l.041-.056h0l.021-.026h0l.02-.025h0l.021-.023h0l.043-.046h0l.022-.021h0l.022-.019h0l.022-.019h0l.023-.019.022-.017h0l.023-.016.023-.016h0l.023-.014h0l.023-.013.023-.012h0l.024-.011.024-.011.024-.009.024-.008.025-.007.024-.006.025-.005.025,0,.025,0,.025,0,.026,0h.026a1.06,1.06,0,0,1,.718.372.914.914,0,0,1,.348.893l-.007.022-.008.021h0l-.027.063h0c-.2.414-.847.733-2.058,1.018l.411,1.533a2.928,2.928,0,0,1,2.985-.989,1.882,1.882,0,0,1,1.371,1.6,1.443,1.443,0,0,1-1.162,1.484,1.4,1.4,0,0,1-.332.04,1.265,1.265,0,0,1-1.189-.815l0-.008a.8.8,0,0,1-.085-.357.783.783,0,0,1,.233-.557.811.811,0,0,1,1.115,0,.789.789,0,0,1-.546,1.347,1.034,1.034,0,0,0,.749.091,1.177,1.177,0,0,0,.958-1.2,1.629,1.629,0,0,0-1.188-1.368,2.719,2.719,0,0,0-2.823,1.038l.712,2.658-2.659-.711a2.725,2.725,0,0,0-1.039,2.826,1.613,1.613,0,0,0,1.365,1.18,1.186,1.186,0,0,0,1.2-.954,1.02,1.02,0,0,0-.089-.754.778.778,0,0,1-.23.554A.789.789,0,0,1,435.834,1309.25Zm0-1.308a.521.521,0,0,0-.369.89.538.538,0,0,0,.738,0,.518.518,0,0,0,.15-.371.509.509,0,0,0-.15-.369.5.5,0,0,0-.145-.1l-.006,0-.005,0h-.006l-.006,0-.006,0-.006,0-.005,0h0A.533.533,0,0,0,435.834,1307.942Zm-13.339-13.892q-.509,0-.646.244l-.008.015h0l-.007.015h0l-.006.015h0l-.005.016h0l-.005.016h0c-.1.337.127.963.679,1.867.558-.921.783-1.555.668-1.886h0l-.006-.016h0l-.006-.016-.007-.014h0l-.008-.015,0-.007h0l0-.007h0l0-.007h0l-.015-.021h0a.428.428,0,0,0-.17-.127h0l-.008,0h0l-.01,0-.008,0h0l-.009,0h0l-.009,0h0l-.009,0h0l-.009,0h0l-.01,0h0l-.01,0h0l-.011,0h0l-.01,0h0l-.011,0h0l-.011,0h0l-.011,0h0l-.011,0h0l-.012,0h0l-.012,0h0l-.012,0h0l-.012,0h0l-.013,0H422.7l-.013,0h-.041l-.014,0h-.133Zm0,0" transform="translate(-387.608 -1253.673)" fill="#fff"/>
    <g id="Сгруппировать_7070" data-name="Сгруппировать 7070" transform="translate(28.239 56.899)">
      <g id="Сгруппировать_7069" data-name="Сгруппировать 7069">
        <path id="Контур_15340" data-name="Контур 15340" d="M16.669-157.817l-3.775-4.551v7.654H11.3v-9.563L10-165.844h2.1l4.551,5.46,4.61-5.46h2.1l-1.3,1.567v9.563h-1.6v-7.654Zm0,0" transform="translate(-10 165.844)" fill="#fff"/>
      </g>
    </g>
    <g id="Сгруппировать_7083" data-name="Сгруппировать 7083" transform="translate(70.061 46.6)">
      <g id="Сгруппировать_7071" data-name="Сгруппировать 7071" transform="translate(0 0.336)">
        <path id="Контур_15341" data-name="Контур 15341" d="M17.028-161.148l-3.855-4.646v7.815H11.544v-9.764l-1.325-1.6h2.147l4.646,5.575,4.707-5.575h2.148l-1.325,1.6v9.764h-1.63v-7.815Zm0,0" transform="translate(-10.219 169.344)" fill="#fff"/>
      </g>
      <g id="Сгруппировать_7072" data-name="Сгруппировать 7072" transform="translate(16.772)">
        <path id="Контур_15342" data-name="Контур 15342" d="M24.212-168.4a4.072,4.072,0,0,0-.359-1.713,4.21,4.21,0,0,0-.975-1.356,4.408,4.408,0,0,0-1.424-.883,4.732,4.732,0,0,0-1.722-.312,4.837,4.837,0,0,0-1.767.32,4.2,4.2,0,0,0-1.424.906,4.249,4.249,0,0,0-.945,1.386,4.421,4.421,0,0,0-.343,1.76,3.965,3.965,0,0,0,.366,1.7,4.172,4.172,0,0,0,.99,1.348,4.708,4.708,0,0,0,1.432.883,4.585,4.585,0,0,0,1.706.32,4.507,4.507,0,0,0,1.729-.334,4.417,4.417,0,0,0,1.417-.922,4.474,4.474,0,0,0,.959-1.378A4.131,4.131,0,0,0,24.212-168.4Zm1.645.092a5.563,5.563,0,0,1-.5,2.346,5.978,5.978,0,0,1-1.333,1.874,6.286,6.286,0,0,1-1.95,1.249,6.11,6.11,0,0,1-2.346.457,6.1,6.1,0,0,1-2.406-.472,6.06,6.06,0,0,1-1.936-1.295,6.031,6.031,0,0,1-1.294-1.942,6.118,6.118,0,0,1-.472-2.4,5.479,5.479,0,0,1,.495-2.323,5.842,5.842,0,0,1,1.34-1.858,6.229,6.229,0,0,1,1.958-1.227,6.25,6.25,0,0,1,2.331-.443,6.087,6.087,0,0,1,2.376.466,6.093,6.093,0,0,1,1.942,1.279,6.05,6.05,0,0,1,1.311,1.912A5.862,5.862,0,0,1,25.858-168.31Zm0,0" transform="translate(-13.625 174.344)" fill="#fff"/>
      </g>
      <g id="Сгруппировать_7073" data-name="Сгруппировать 7073" transform="translate(33.116 0.336)">
        <path id="Контур_15343" data-name="Контур 15343" d="M26.63-163.905a2.752,2.752,0,0,1,1.051-.373,8.527,8.527,0,0,1,1.1-.069H30.94a2.23,2.23,0,0,0,1.4-.411,1.568,1.568,0,0,0,.534-1.325,1.659,1.659,0,0,0-.152-.745,1.36,1.36,0,0,0-.411-.5,1.662,1.662,0,0,0-.61-.274,3.271,3.271,0,0,0-.761-.084H26.63Zm3.473,1.218H28.777a7.109,7.109,0,0,0-1.089.084,3.362,3.362,0,0,0-1.058.358v4.266H24.969v-11.364H30.94a4.45,4.45,0,0,1,1.431.221,3.246,3.246,0,0,1,1.136.647,2.917,2.917,0,0,1,.747,1.052,3.618,3.618,0,0,1,.266,1.431,3.176,3.176,0,0,1-.693,2.118,3.548,3.548,0,0,1-1.927,1.127l.884,1.813q.274.4.472.64a2.546,2.546,0,0,0,.381.388,1.062,1.062,0,0,0,.382.2,1.827,1.827,0,0,0,.472.053l.534-.016v1.691q-.488,0-.984-.03a3.337,3.337,0,0,1-.952-.2,2.734,2.734,0,0,1-.868-.533,3.224,3.224,0,0,1-.731-1.036Zm0,0" transform="translate(-24.969 169.344)" fill="#fff"/>
      </g>
      <g id="Сгруппировать_7074" data-name="Сгруппировать 7074" transform="translate(46.674)">
        <path id="Контур_15344" data-name="Контур 15344" d="M23.055-171.3a4.725,4.725,0,0,0-1.494-1,4.587,4.587,0,0,0-1.828-.366,4.837,4.837,0,0,0-1.767.32,4.2,4.2,0,0,0-1.424.906,4.249,4.249,0,0,0-.945,1.386,4.421,4.421,0,0,0-.343,1.76,3.965,3.965,0,0,0,.366,1.7,4.172,4.172,0,0,0,.99,1.348,4.708,4.708,0,0,0,1.432.883,4.585,4.585,0,0,0,1.706.32,4.547,4.547,0,0,0,1.629-.289,4.438,4.438,0,0,0,1.356-.807v-2.071H21.272l-.716-1.645h3.823v4.418a6.284,6.284,0,0,1-2.065,1.508,6.12,6.12,0,0,1-2.582.548,6.1,6.1,0,0,1-2.406-.472,6.06,6.06,0,0,1-1.936-1.295,6.031,6.031,0,0,1-1.294-1.942,6.118,6.118,0,0,1-.472-2.4,5.479,5.479,0,0,1,.495-2.323,5.842,5.842,0,0,1,1.34-1.858,6.229,6.229,0,0,1,1.958-1.227,6.25,6.25,0,0,1,2.331-.443,6.057,6.057,0,0,1,2.414.48,6.2,6.2,0,0,1,1.958,1.318Zm0,0" transform="translate(-13.625 174.344)" fill="#fff"/>
      </g>
      <g id="Сгруппировать_7075" data-name="Сгруппировать 7075" transform="translate(60.398 0.137)">
        <path id="Контур_15345" data-name="Контур 15345" d="M8.842-172.3h1.829l5.468,11.563H14.281l-.747-1.661H10.076a7.946,7.946,0,0,0-1.379.107,5.456,5.456,0,0,0-1.028.275,2.817,2.817,0,0,0-.686.365,1.178,1.178,0,0,0-.35.382l-.289.533h-1.8L9.467-170.9Zm3.946,8.226-2.483-4.8L7.791-163.43a2.684,2.684,0,0,1,1.006-.45,7.459,7.459,0,0,1,1.888-.191Zm0,0" transform="translate(-4.547 172.297)" fill="#fff"/>
      </g>
      <g id="Сгруппировать_7076" data-name="Сгруппировать 7076" transform="translate(74.656 0.336)">
        <path id="Контур_15346" data-name="Контур 15346" d="M10.219-169.344h2.147l7.3,8.683v-8.683h1.676v11.364H19.694l-6.52-7.815v7.815H11.544v-9.764Zm0,0" transform="translate(-10.219 169.344)" fill="#fff"/>
      </g>
      <g id="Сгруппировать_7077" data-name="Сгруппировать 7077" transform="translate(88.975 11.7)">
        <path id="Контур_15347" data-name="Контур 15347" fill="#fff"/>
      </g>
      <g id="Сгруппировать_7078" data-name="Сгруппировать 7078" transform="translate(94.931 0.137)">
        <path id="Контур_15348" data-name="Контур 15348" d="M8.842-172.3h1.829l5.468,11.563H14.281l-.747-1.661H10.076a7.946,7.946,0,0,0-1.379.107,5.456,5.456,0,0,0-1.028.275,2.817,2.817,0,0,0-.686.365,1.178,1.178,0,0,0-.35.382l-.289.533h-1.8L9.467-170.9Zm3.946,8.226-2.483-4.8L7.791-163.43a2.684,2.684,0,0,1,1.006-.45,7.459,7.459,0,0,1,1.888-.191Zm0,0" transform="translate(-4.547 172.297)" fill="#fff"/>
      </g>
      <g id="Сгруппировать_7079" data-name="Сгруппировать 7079" transform="translate(109.264)">
        <path id="Контур_15349" data-name="Контур 15349" d="M21.093-166.1a3.106,3.106,0,0,1-.389,1.547,3.554,3.554,0,0,1-1.066,1.173,5.15,5.15,0,0,1-1.606.738,7.474,7.474,0,0,1-2.011.259,5.4,5.4,0,0,1-1.3-.16A6.292,6.292,0,0,1,13.462-163a6.139,6.139,0,0,1-1.15-.732,5.9,5.9,0,0,1-.968-.982l1.189-1.112a7.914,7.914,0,0,0,.548.586,4.252,4.252,0,0,0,.754.579,4.507,4.507,0,0,0,.974.441,3.915,3.915,0,0,0,1.211.175,6.277,6.277,0,0,0,1.234-.122,3.928,3.928,0,0,0,1.081-.372,2.253,2.253,0,0,0,.762-.64,1.5,1.5,0,0,0,.289-.923,1.515,1.515,0,0,0-.3-1.006,1.7,1.7,0,0,0-.77-.51,3.985,3.985,0,0,0-1.081-.191q-.609-.03-1.219-.03a5.522,5.522,0,0,1-3.123-.731,2.5,2.5,0,0,1-1.066-2.209,3.031,3.031,0,0,1,.312-1.333,3.629,3.629,0,0,1,.868-1.143,4.293,4.293,0,0,1,1.325-.792,4.628,4.628,0,0,1,1.683-.3,7.252,7.252,0,0,1,2.422.4,5.843,5.843,0,0,1,2.149,1.4l-1.036,1.218a10.35,10.35,0,0,0-.861-.625,4.6,4.6,0,0,0-.815-.418,4.029,4.029,0,0,0-.861-.229,6.7,6.7,0,0,0-1-.068,2.7,2.7,0,0,0-.913.152,2.52,2.52,0,0,0-.747.411,1.959,1.959,0,0,0-.5.6,1.491,1.491,0,0,0-.182.709,1.189,1.189,0,0,0,.107.495,1.025,1.025,0,0,0,.381.419,2.253,2.253,0,0,0,.739.289,5.523,5.523,0,0,0,1.2.106,10.975,10.975,0,0,1,2.46.229,4,4,0,0,1,1.531.663,2.271,2.271,0,0,1,.784,1.066A4.3,4.3,0,0,1,21.093-166.1Zm0,0" transform="translate(-11.344 174.344)" fill="#fff"/>
      </g>
      <g id="Сгруппировать_7080" data-name="Сгруппировать 7080" transform="translate(122.059)">
        <path id="Контур_15350" data-name="Контур 15350" d="M21.093-166.1a3.106,3.106,0,0,1-.389,1.547,3.554,3.554,0,0,1-1.066,1.173,5.15,5.15,0,0,1-1.606.738,7.474,7.474,0,0,1-2.011.259,5.4,5.4,0,0,1-1.3-.16A6.292,6.292,0,0,1,13.462-163a6.139,6.139,0,0,1-1.15-.732,5.9,5.9,0,0,1-.968-.982l1.189-1.112a7.914,7.914,0,0,0,.548.586,4.252,4.252,0,0,0,.754.579,4.507,4.507,0,0,0,.974.441,3.915,3.915,0,0,0,1.211.175,6.277,6.277,0,0,0,1.234-.122,3.928,3.928,0,0,0,1.081-.372,2.253,2.253,0,0,0,.762-.64,1.5,1.5,0,0,0,.289-.923,1.515,1.515,0,0,0-.3-1.006,1.7,1.7,0,0,0-.77-.51,3.985,3.985,0,0,0-1.081-.191q-.609-.03-1.219-.03a5.522,5.522,0,0,1-3.123-.731,2.5,2.5,0,0,1-1.066-2.209,3.031,3.031,0,0,1,.312-1.333,3.629,3.629,0,0,1,.868-1.143,4.293,4.293,0,0,1,1.325-.792,4.628,4.628,0,0,1,1.683-.3,7.252,7.252,0,0,1,2.422.4,5.843,5.843,0,0,1,2.149,1.4l-1.036,1.218a10.35,10.35,0,0,0-.861-.625,4.6,4.6,0,0,0-.815-.418,4.029,4.029,0,0,0-.861-.229,6.7,6.7,0,0,0-1-.068,2.7,2.7,0,0,0-.913.152,2.52,2.52,0,0,0-.747.411,1.959,1.959,0,0,0-.5.6,1.491,1.491,0,0,0-.182.709,1.189,1.189,0,0,0,.107.495,1.025,1.025,0,0,0,.381.419,2.253,2.253,0,0,0,.739.289,5.523,5.523,0,0,0,1.2.106,10.975,10.975,0,0,1,2.46.229,4,4,0,0,1,1.531.663,2.271,2.271,0,0,1,.784,1.066A4.3,4.3,0,0,1,21.093-166.1Zm0,0" transform="translate(-11.344 174.344)" fill="#fff"/>
      </g>
      <g id="Сгруппировать_7081" data-name="Сгруппировать 7081" transform="translate(135.769 0.336)">
        <path id="Контур_15351" data-name="Контур 15351" d="M26.63-159.64h7.008v1.661H24.969v-11.364h8v1.676H26.63v3.444a2.752,2.752,0,0,1,1.051-.373,8.521,8.521,0,0,1,1.1-.069H31.26v1.691H28.777a7.115,7.115,0,0,0-1.089.084,3.363,3.363,0,0,0-1.058.358Zm0,0" transform="translate(-24.969 169.344)" fill="#fff"/>
      </g>
      <g id="Сгруппировать_7082" data-name="Сгруппировать 7082" transform="translate(147.407 0.336)">
        <path id="Контур_15352" data-name="Контур 15352" d="M12.479-167.668v9.689H10.864v-9.689H6.813v-1.676h9.673v1.676Zm0,0" transform="translate(-6.813 169.344)" fill="#fff"/>
      </g>
    </g>
    <g id="Сгруппировать_7094" data-name="Сгруппировать 7094" transform="translate(70.061 63.53)">
      <g id="Сгруппировать_7084" data-name="Сгруппировать 7084" transform="translate(0 0.336)">
        <path id="Контур_15353" data-name="Контур 15353" d="M17.028-161.148l-3.855-4.646v7.815H11.544v-9.764l-1.325-1.6h2.147l4.646,5.575,4.707-5.575h2.148l-1.325,1.6v9.764h-1.63v-7.815Zm0,0" transform="translate(-10.219 169.344)" fill="#fff"/>
      </g>
      <g id="Сгруппировать_7085" data-name="Сгруппировать 7085" transform="translate(16.162 0.137)">
        <path id="Контур_15354" data-name="Контур 15354" d="M8.842-172.3h1.829l5.468,11.563H14.281l-.747-1.661H10.076a7.946,7.946,0,0,0-1.379.107,5.456,5.456,0,0,0-1.028.275,2.817,2.817,0,0,0-.686.365,1.178,1.178,0,0,0-.35.382l-.289.533h-1.8L9.467-170.9Zm3.946,8.226-2.483-4.8L7.791-163.43a2.684,2.684,0,0,1,1.006-.45,7.459,7.459,0,0,1,1.888-.191Zm0,0" transform="translate(-4.547 172.297)" fill="#fff"/>
      </g>
      <g id="Сгруппировать_7086" data-name="Сгруппировать 7086" transform="translate(30.42 0.336)">
        <path id="Контур_15355" data-name="Контур 15355" d="M10.219-169.344h2.147l7.3,8.683v-8.683h1.676v11.364H19.694l-6.52-7.815v7.815H11.544v-9.764Zm0,0" transform="translate(-10.219 169.344)" fill="#fff"/>
      </g>
      <g id="Сгруппировать_7087" data-name="Сгруппировать 7087" transform="translate(45.044 0.137)">
        <path id="Контур_15356" data-name="Контур 15356" d="M8.842-172.3h1.829l5.468,11.563H14.281l-.747-1.661H10.076a7.946,7.946,0,0,0-1.379.107,5.456,5.456,0,0,0-1.028.275,2.817,2.817,0,0,0-.686.365,1.178,1.178,0,0,0-.35.382l-.289.533h-1.8L9.467-170.9Zm3.946,8.226-2.483-4.8L7.791-163.43a2.684,2.684,0,0,1,1.006-.45,7.459,7.459,0,0,1,1.888-.191Zm0,0" transform="translate(-4.547 172.297)" fill="#fff"/>
      </g>
      <g id="Сгруппировать_7088" data-name="Сгруппировать 7088" transform="translate(58.631)">
        <path id="Контур_15357" data-name="Контур 15357" d="M23.055-171.3a4.725,4.725,0,0,0-1.494-1,4.587,4.587,0,0,0-1.828-.366,4.837,4.837,0,0,0-1.767.32,4.2,4.2,0,0,0-1.424.906,4.249,4.249,0,0,0-.945,1.386,4.421,4.421,0,0,0-.343,1.76,3.965,3.965,0,0,0,.366,1.7,4.172,4.172,0,0,0,.99,1.348,4.708,4.708,0,0,0,1.432.883,4.585,4.585,0,0,0,1.706.32,4.547,4.547,0,0,0,1.629-.289,4.438,4.438,0,0,0,1.356-.807v-2.071H21.272l-.716-1.645h3.823v4.418a6.284,6.284,0,0,1-2.065,1.508,6.12,6.12,0,0,1-2.582.548,6.1,6.1,0,0,1-2.406-.472,6.06,6.06,0,0,1-1.936-1.295,6.031,6.031,0,0,1-1.294-1.942,6.118,6.118,0,0,1-.472-2.4,5.479,5.479,0,0,1,.495-2.323,5.842,5.842,0,0,1,1.34-1.858,6.229,6.229,0,0,1,1.958-1.227,6.25,6.25,0,0,1,2.331-.443,6.057,6.057,0,0,1,2.414.48,6.2,6.2,0,0,1,1.958,1.318Zm0,0" transform="translate(-13.625 174.344)" fill="#fff"/>
      </g>
      <g id="Сгруппировать_7089" data-name="Сгруппировать 7089" transform="translate(73.726 0.336)">
        <path id="Контур_15358" data-name="Контур 15358" d="M26.63-159.64h7.008v1.661H24.969v-11.364h8v1.676H26.63v3.444a2.752,2.752,0,0,1,1.051-.373,8.521,8.521,0,0,1,1.1-.069H31.26v1.691H28.777a7.115,7.115,0,0,0-1.089.084,3.363,3.363,0,0,0-1.058.358Zm0,0" transform="translate(-24.969 169.344)" fill="#fff"/>
      </g>
      <g id="Сгруппировать_7090" data-name="Сгруппировать 7090" transform="translate(85.593 0.336)">
        <path id="Контур_15359" data-name="Контур 15359" d="M17.028-161.148l-3.855-4.646v7.815H11.544v-9.764l-1.325-1.6h2.147l4.646,5.575,4.707-5.575h2.148l-1.325,1.6v9.764h-1.63v-7.815Zm0,0" transform="translate(-10.219 169.344)" fill="#fff"/>
      </g>
      <g id="Сгруппировать_7091" data-name="Сгруппировать 7091" transform="translate(103.125 0.336)">
        <path id="Контур_15360" data-name="Контур 15360" d="M26.63-159.64h7.008v1.661H24.969v-11.364h8v1.676H26.63v3.444a2.752,2.752,0,0,1,1.051-.373,8.521,8.521,0,0,1,1.1-.069H31.26v1.691H28.777a7.115,7.115,0,0,0-1.089.084,3.363,3.363,0,0,0-1.058.358Zm0,0" transform="translate(-24.969 169.344)" fill="#fff"/>
      </g>
      <g id="Сгруппировать_7092" data-name="Сгруппировать 7092" transform="translate(114.992 0.336)">
        <path id="Контур_15361" data-name="Контур 15361" d="M10.219-169.344h2.147l7.3,8.683v-8.683h1.676v11.364H19.694l-6.52-7.815v7.815H11.544v-9.764Zm0,0" transform="translate(-10.219 169.344)" fill="#fff"/>
      </g>
      <g id="Сгруппировать_7093" data-name="Сгруппировать 7093" transform="translate(129.768 0.336)">
        <path id="Контур_15362" data-name="Контур 15362" d="M12.479-167.668v9.689H10.864v-9.689H6.813v-1.676h9.673v1.676Zm0,0" transform="translate(-6.813 169.344)" fill="#fff"/>
      </g>
    </g>
    <g id="Сгруппировать_7109" data-name="Сгруппировать 7109" transform="translate(70.032 84.886)">
      <g id="Сгруппировать_7095" data-name="Сгруппировать 7095" transform="translate(0 0.077)">
        <path id="Контур_15363" data-name="Контур 15363" d="M10.859-73.684v-5.3h.617v5.3Zm0,0" transform="translate(-10.859 78.984)" fill="#fff"/>
      </g>
      <g id="Сгруппировать_7096" data-name="Сгруппировать 7096" transform="translate(2.432 0.077)">
        <path id="Контур_15364" data-name="Контур 15364" d="M15-73.684h-.7l-2.9-4.448H11.37q.059.783.059,1.435v3.013h-.569v-5.3h.7l2.889,4.43h.029q-.007-.1-.033-.628t-.018-.76v-3.042H15Zm0,0" transform="translate(-10.859 78.984)" fill="#fff"/>
      </g>
      <g id="Сгруппировать_7097" data-name="Сгруппировать 7097" transform="translate(7.663 0.077)">
        <path id="Контур_15365" data-name="Контур 15365" d="M3.756-78.984H4.42l-1.911,5.3H1.9L0-78.984H.652l1.218,3.43A9.461,9.461,0,0,1,2.2-74.405a9.713,9.713,0,0,1,.341-1.171Zm0,0" transform="translate(0 78.984)" fill="#fff"/>
      </g>
      <g id="Сгруппировать_7098" data-name="Сгруппировать 7098" transform="translate(13.173 0.077)">
        <path id="Контур_15366" data-name="Контур 15366" d="M13.814-73.684H10.859v-5.3h2.955v.547H11.476v1.708h2.2v.543h-2.2v1.95h2.338Zm0,0" transform="translate(-10.859 78.984)" fill="#fff"/>
      </g>
      <g id="Сгруппировать_7099" data-name="Сгруппировать 7099" transform="translate(17.319)">
        <path id="Контур_15367" data-name="Контур 15367" d="M9.054-76.158a1.3,1.3,0,0,1-.508,1.092,2.2,2.2,0,0,1-1.377.391,3.451,3.451,0,0,1-1.451-.243v-.595a3.8,3.8,0,0,0,.711.218,3.737,3.737,0,0,0,.761.08,1.534,1.534,0,0,0,.928-.234.767.767,0,0,0,.312-.651.834.834,0,0,0-.111-.451,1.015,1.015,0,0,0-.37-.324,5.18,5.18,0,0,0-.787-.338A2.529,2.529,0,0,1,6.1-77.84a1.386,1.386,0,0,1-.317-.947,1.177,1.177,0,0,1,.46-.975,1.913,1.913,0,0,1,1.218-.363,3.585,3.585,0,0,1,1.453.29l-.192.537a3.286,3.286,0,0,0-1.276-.276,1.234,1.234,0,0,0-.765.211.692.692,0,0,0-.275.583.894.894,0,0,0,.1.452.957.957,0,0,0,.342.322,4.261,4.261,0,0,0,.738.325,2.92,2.92,0,0,1,1.147.638A1.256,1.256,0,0,1,9.054-76.158Zm0,0" transform="translate(-5.719 80.125)" fill="#fff"/>
      </g>
      <g id="Сгруппировать_7100" data-name="Сгруппировать 7100" transform="translate(21.437 0.077)">
        <path id="Контур_15368" data-name="Контур 15368" d="M3.264-73.684H2.648v-4.753H.969v-.547H4.943v.547H3.264Zm0,0" transform="translate(-0.969 78.984)" fill="#fff"/>
      </g>
      <g id="Сгруппировать_7101" data-name="Сгруппировать 7101" transform="translate(26.57 0.077)">
        <path id="Контур_15369" data-name="Контур 15369" d="M10.859-73.684v-5.3h.617v5.3Zm0,0" transform="translate(-10.859 78.984)" fill="#fff"/>
      </g>
      <g id="Сгруппировать_7102" data-name="Сгруппировать 7102" transform="translate(29.002 0.077)">
        <path id="Контур_15370" data-name="Контур 15370" d="M15-73.684h-.7l-2.9-4.448H11.37q.059.783.059,1.435v3.013h-.569v-5.3h.7l2.889,4.43h.029q-.007-.1-.033-.628t-.018-.76v-3.042H15Zm0,0" transform="translate(-10.859 78.984)" fill="#fff"/>
      </g>
      <g id="Сгруппировать_7103" data-name="Сгруппировать 7103" transform="translate(34.687)">
        <path id="Контур_15371" data-name="Контур 15371" d="M9.357-77.525h1.8v2.577a5.724,5.724,0,0,1-.857.2,6.471,6.471,0,0,1-1.008.069,2.443,2.443,0,0,1-1.875-.716A2.823,2.823,0,0,1,6.75-77.4a3.036,3.036,0,0,1,.331-1.449,2.249,2.249,0,0,1,.955-.95A3.1,3.1,0,0,1,9.5-80.125a3.986,3.986,0,0,1,1.58.312l-.239.543a3.533,3.533,0,0,0-1.381-.3A1.979,1.979,0,0,0,7.946-79,2.239,2.239,0,0,0,7.4-77.4a2.287,2.287,0,0,0,.523,1.627,2.018,2.018,0,0,0,1.539.555,4.576,4.576,0,0,0,1.077-.127v-1.632H9.357Zm0,0" transform="translate(-6.75 80.125)" fill="#fff"/>
      </g>
      <g id="Сгруппировать_7104" data-name="Сгруппировать 7104" transform="translate(40.001 5.377)">
        <path id="Контур_15372" data-name="Контур 15372" fill="#fff"/>
      </g>
      <g id="Сгруппировать_7105" data-name="Сгруппировать 7105" transform="translate(43.02 0.077)">
        <path id="Контур_15373" data-name="Контур 15373" d="M10.859-73.684v-5.3h.617v5.3Zm0,0" transform="translate(-10.859 78.984)" fill="#fff"/>
      </g>
      <g id="Сгруппировать_7106" data-name="Сгруппировать 7106" transform="translate(45.452 0.077)">
        <path id="Контур_15374" data-name="Контур 15374" d="M15-73.684h-.7l-2.9-4.448H11.37q.059.783.059,1.435v3.013h-.569v-5.3h.7l2.889,4.43h.029q-.007-.1-.033-.628t-.018-.76v-3.042H15Zm0,0" transform="translate(-10.859 78.984)" fill="#fff"/>
      </g>
      <g id="Сгруппировать_7107" data-name="Сгруппировать 7107" transform="translate(51.136)">
        <path id="Контур_15375" data-name="Контур 15375" d="M9.295-79.573a1.735,1.735,0,0,0-1.38.582A2.348,2.348,0,0,0,7.41-77.4,2.392,2.392,0,0,0,7.9-75.79a1.735,1.735,0,0,0,1.39.567,4.753,4.753,0,0,0,1.266-.2v.54a3.9,3.9,0,0,1-1.359.207,2.3,2.3,0,0,1-1.808-.71,2.926,2.926,0,0,1-.636-2.02,3.185,3.185,0,0,1,.306-1.435,2.2,2.2,0,0,1,.885-.95A2.671,2.671,0,0,1,9.3-80.125a3.277,3.277,0,0,1,1.458.305l-.261.53A2.808,2.808,0,0,0,9.295-79.573Zm0,0" transform="translate(-6.75 80.125)" fill="#fff"/>
      </g>
      <g id="Сгруппировать_7108" data-name="Сгруппировать 7108" transform="translate(55.729 5.377)">
        <path id="Контур_15376" data-name="Контур 15376" fill="#fff"/>
      </g>
    </g>
    <g id="Сгруппировать_7139" data-name="Сгруппировать 7139" transform="translate(70.032 93.218)">
      <g id="Сгруппировать_7110" data-name="Сгруппировать 7110" transform="translate(0 0.083)">
        <path id="Контур_15377" data-name="Контур 15377" d="M11.476-73.684h-.617v-5.3h2.955v.547H11.476v1.94h2.2v.547h-2.2Zm0,0" transform="translate(-10.859 78.984)" fill="#fff"/>
      </g>
      <g id="Сгруппировать_7111" data-name="Сгруппировать 7111" transform="translate(4.194 0.083)">
        <path id="Контур_15378" data-name="Контур 15378" d="M10.859-73.684v-5.3h.617v5.3Zm0,0" transform="translate(-10.859 78.984)" fill="#fff"/>
      </g>
      <g id="Сгруппировать_7112" data-name="Сгруппировать 7112" transform="translate(6.626 0.083)">
        <path id="Контур_15379" data-name="Контур 15379" d="M15-73.684h-.7l-2.9-4.448H11.37q.059.783.059,1.435v3.013h-.569v-5.3h.7l2.889,4.43h.029q-.007-.1-.033-.628t-.018-.76v-3.042H15Zm0,0" transform="translate(-10.859 78.984)" fill="#fff"/>
      </g>
      <g id="Сгруппировать_7113" data-name="Сгруппировать 7113" transform="translate(11.857 0.061)">
        <path id="Контур_15380" data-name="Контур 15380" d="M4.06-73.99,3.4-75.676H1.276L.624-73.99H0l2.1-5.323h.519L4.7-73.99Zm-.851-2.241-.617-1.642q-.12-.311-.246-.765a6.886,6.886,0,0,1-.229.765l-.624,1.642Zm0,0" transform="translate(0 79.313)" fill="#fff"/>
      </g>
      <g id="Сгруппировать_7114" data-name="Сгруппировать 7114" transform="translate(17.646 0.083)">
        <path id="Контур_15381" data-name="Контур 15381" d="M15-73.684h-.7l-2.9-4.448H11.37q.059.783.059,1.435v3.013h-.569v-5.3h.7l2.889,4.43h.029q-.007-.1-.033-.628t-.018-.76v-3.042H15Zm0,0" transform="translate(-10.859 78.984)" fill="#fff"/>
      </g>
      <g id="Сгруппировать_7115" data-name="Сгруппировать 7115" transform="translate(23.33 0.006)">
        <path id="Контур_15382" data-name="Контур 15382" d="M9.295-79.573a1.735,1.735,0,0,0-1.38.582A2.348,2.348,0,0,0,7.41-77.4,2.392,2.392,0,0,0,7.9-75.79a1.735,1.735,0,0,0,1.39.567,4.753,4.753,0,0,0,1.266-.2v.54a3.9,3.9,0,0,1-1.359.207,2.3,2.3,0,0,1-1.808-.71,2.926,2.926,0,0,1-.636-2.02,3.185,3.185,0,0,1,.306-1.435,2.2,2.2,0,0,1,.885-.95A2.671,2.671,0,0,1,9.3-80.125a3.277,3.277,0,0,1,1.458.305l-.261.53A2.808,2.808,0,0,0,9.295-79.573Zm0,0" transform="translate(-6.75 80.125)" fill="#fff"/>
      </g>
      <g id="Сгруппировать_7116" data-name="Сгруппировать 7116" transform="translate(28.651 0.083)">
        <path id="Контур_15383" data-name="Контур 15383" d="M10.859-73.684v-5.3h.617v5.3Zm0,0" transform="translate(-10.859 78.984)" fill="#fff"/>
      </g>
      <g id="Сгруппировать_7117" data-name="Сгруппировать 7117" transform="translate(30.355 0.061)">
        <path id="Контур_15384" data-name="Контур 15384" d="M4.06-73.99,3.4-75.676H1.276L.624-73.99H0l2.1-5.323h.519L4.7-73.99Zm-.851-2.241-.617-1.642q-.12-.311-.246-.765a6.886,6.886,0,0,1-.229.765l-.624,1.642Zm0,0" transform="translate(0 79.313)" fill="#fff"/>
      </g>
      <g id="Сгруппировать_7118" data-name="Сгруппировать 7118" transform="translate(36.144 0.083)">
        <path id="Контур_15385" data-name="Контур 15385" d="M10.859-73.684v-5.3h.617v4.743h2.338v.558Zm0,0" transform="translate(-10.859 78.984)" fill="#fff"/>
      </g>
      <g id="Сгруппировать_7119" data-name="Сгруппировать 7119" transform="translate(39.631 5.383)">
        <path id="Контур_15386" data-name="Контур 15386" fill="#fff"/>
      </g>
      <g id="Сгруппировать_7120" data-name="Сгруппировать 7120" transform="translate(42.65 0.083)">
        <path id="Контур_15387" data-name="Контур 15387" d="M10.859-73.684v-5.3h.617v5.3Zm0,0" transform="translate(-10.859 78.984)" fill="#fff"/>
      </g>
      <g id="Сгруппировать_7121" data-name="Сгруппировать 7121" transform="translate(45.082 0.083)">
        <path id="Контур_15388" data-name="Контур 15388" d="M15-73.684h-.7l-2.9-4.448H11.37q.059.783.059,1.435v3.013h-.569v-5.3h.7l2.889,4.43h.029q-.007-.1-.033-.628t-.018-.76v-3.042H15Zm0,0" transform="translate(-10.859 78.984)" fill="#fff"/>
      </g>
      <g id="Сгруппировать_7122" data-name="Сгруппировать 7122" transform="translate(50.697 0.006)">
        <path id="Контур_15389" data-name="Контур 15389" d="M9.054-76.158a1.3,1.3,0,0,1-.508,1.092,2.2,2.2,0,0,1-1.377.391,3.451,3.451,0,0,1-1.451-.243v-.595a3.8,3.8,0,0,0,.711.218,3.737,3.737,0,0,0,.761.08,1.534,1.534,0,0,0,.928-.234.767.767,0,0,0,.312-.651.834.834,0,0,0-.111-.451,1.015,1.015,0,0,0-.37-.324,5.18,5.18,0,0,0-.787-.338A2.529,2.529,0,0,1,6.1-77.84a1.386,1.386,0,0,1-.317-.947,1.177,1.177,0,0,1,.46-.975,1.913,1.913,0,0,1,1.218-.363,3.585,3.585,0,0,1,1.453.29l-.192.537a3.286,3.286,0,0,0-1.276-.276,1.234,1.234,0,0,0-.765.211.692.692,0,0,0-.275.583.894.894,0,0,0,.1.452.957.957,0,0,0,.342.322,4.261,4.261,0,0,0,.738.325,2.92,2.92,0,0,1,1.147.638A1.256,1.256,0,0,1,9.054-76.158Zm0,0" transform="translate(-5.719 80.125)" fill="#fff"/>
      </g>
      <g id="Сгруппировать_7123" data-name="Сгруппировать 7123" transform="translate(54.815 0.083)">
        <path id="Контур_15390" data-name="Контур 15390" d="M3.264-73.684H2.648v-4.753H.969v-.547H4.943v.547H3.264Zm0,0" transform="translate(-0.969 78.984)" fill="#fff"/>
      </g>
      <g id="Сгруппировать_7124" data-name="Сгруппировать 7124" transform="translate(59.949 0.083)">
        <path id="Контур_15391" data-name="Контур 15391" d="M11.476-75.888v2.2h-.617v-5.3h1.453a2.287,2.287,0,0,1,1.441.373,1.354,1.354,0,0,1,.467,1.124,1.407,1.407,0,0,1-1.065,1.421l1.439,2.382h-.729l-1.283-2.2Zm0-.53h.844a1.459,1.459,0,0,0,.957-.259.963.963,0,0,0,.305-.778.884.884,0,0,0-.31-.757,1.676,1.676,0,0,0-1-.233h-.8Zm0,0" transform="translate(-10.859 78.984)" fill="#fff"/>
      </g>
      <g id="Сгруппировать_7125" data-name="Сгруппировать 7125" transform="translate(64.846 0.083)">
        <path id="Контур_15392" data-name="Контур 15392" d="M14.1-78.984v3.43a1.87,1.87,0,0,1-.547,1.425,2.1,2.1,0,0,1-1.5.518,2.008,2.008,0,0,1-1.482-.522,1.937,1.937,0,0,1-.523-1.436v-3.415h.617v3.459a1.363,1.363,0,0,0,.362,1.018,1.463,1.463,0,0,0,1.066.355,1.41,1.41,0,0,0,1.033-.357,1.375,1.375,0,0,0,.363-1.024v-3.452Zm0,0" transform="translate(-10.047 78.984)" fill="#fff"/>
      </g>
      <g id="Сгруппировать_7126" data-name="Сгруппировать 7126" transform="translate(70.668 0.083)">
        <path id="Контур_15393" data-name="Контур 15393" d="M13.205-73.684l-1.8-4.7h-.029q.051.559.051,1.327v3.371h-.569v-5.3h.928l1.679,4.373H13.5l1.692-4.373h.921v5.3h-.616V-77.1q0-.587.05-1.276h-.029L13.7-73.684Zm0,0" transform="translate(-10.859 78.984)" fill="#fff"/>
      </g>
      <g id="Сгруппировать_7127" data-name="Сгруппировать 7127" transform="translate(77.733 0.083)">
        <path id="Контур_15394" data-name="Контур 15394" d="M13.814-73.684H10.859v-5.3h2.955v.547H11.476v1.708h2.2v.543h-2.2v1.95h2.338Zm0,0" transform="translate(-10.859 78.984)" fill="#fff"/>
      </g>
      <g id="Сгруппировать_7128" data-name="Сгруппировать 7128" transform="translate(82.224 0.083)">
        <path id="Контур_15395" data-name="Контур 15395" d="M15-73.684h-.7l-2.9-4.448H11.37q.059.783.059,1.435v3.013h-.569v-5.3h.7l2.889,4.43h.029q-.007-.1-.033-.628t-.018-.76v-3.042H15Zm0,0" transform="translate(-10.859 78.984)" fill="#fff"/>
      </g>
      <g id="Сгруппировать_7129" data-name="Сгруппировать 7129" transform="translate(87.52 0.083)">
        <path id="Контур_15396" data-name="Контур 15396" d="M3.264-73.684H2.648v-4.753H.969v-.547H4.943v.547H3.264Zm0,0" transform="translate(-0.969 78.984)" fill="#fff"/>
      </g>
      <g id="Сгруппировать_7130" data-name="Сгруппировать 7130" transform="translate(92.309 0.006)">
        <path id="Контур_15397" data-name="Контур 15397" d="M9.054-76.158a1.3,1.3,0,0,1-.508,1.092,2.2,2.2,0,0,1-1.377.391,3.451,3.451,0,0,1-1.451-.243v-.595a3.8,3.8,0,0,0,.711.218,3.737,3.737,0,0,0,.761.08,1.534,1.534,0,0,0,.928-.234.767.767,0,0,0,.312-.651.834.834,0,0,0-.111-.451,1.015,1.015,0,0,0-.37-.324,5.18,5.18,0,0,0-.787-.338A2.529,2.529,0,0,1,6.1-77.84a1.386,1.386,0,0,1-.317-.947,1.177,1.177,0,0,1,.46-.975,1.913,1.913,0,0,1,1.218-.363,3.585,3.585,0,0,1,1.453.29l-.192.537a3.286,3.286,0,0,0-1.276-.276,1.234,1.234,0,0,0-.765.211.692.692,0,0,0-.275.583.894.894,0,0,0,.1.452.957.957,0,0,0,.342.322,4.261,4.261,0,0,0,.738.325,2.92,2.92,0,0,1,1.147.638A1.256,1.256,0,0,1,9.054-76.158Zm0,0" transform="translate(-5.719 80.125)" fill="#fff"/>
      </g>
      <g id="Сгруппировать_7131" data-name="Сгруппировать 7131" transform="translate(96.361 5.383)">
        <path id="Контур_15398" data-name="Контур 15398" fill="#fff"/>
      </g>
      <g id="Сгруппировать_7132" data-name="Сгруппировать 7132" transform="translate(99.381 0.083)">
        <path id="Контур_15399" data-name="Контур 15399" d="M11.476-73.684h-.617v-5.3h2.955v.547H11.476v1.94h2.2v.547h-2.2Zm0,0" transform="translate(-10.859 78.984)" fill="#fff"/>
      </g>
      <g id="Сгруппировать_7133" data-name="Сгруппировать 7133" transform="translate(103.299 0)">
        <path id="Контур_15400" data-name="Контур 15400" d="M11.627-77.493a2.916,2.916,0,0,1-.644,2,2.262,2.262,0,0,1-1.789.729,2.291,2.291,0,0,1-1.808-.716A2.94,2.94,0,0,1,6.75-77.5a2.906,2.906,0,0,1,.638-2.007A2.31,2.31,0,0,1,9.2-80.219a2.259,2.259,0,0,1,1.785.726A2.913,2.913,0,0,1,11.627-77.493Zm-4.224,0a2.518,2.518,0,0,0,.458,1.634,1.627,1.627,0,0,0,1.333.556,1.609,1.609,0,0,0,1.33-.555,2.548,2.548,0,0,0,.45-1.635,2.53,2.53,0,0,0-.448-1.622A1.6,1.6,0,0,0,9.2-79.668a1.634,1.634,0,0,0-1.339.557A2.492,2.492,0,0,0,7.4-77.493Zm0,0" transform="translate(-6.75 80.219)" fill="#fff"/>
      </g>
      <g id="Сгруппировать_7134" data-name="Сгруппировать 7134" transform="translate(109.719 0.083)">
        <path id="Контур_15401" data-name="Контур 15401" d="M11.476-75.888v2.2h-.617v-5.3h1.453a2.287,2.287,0,0,1,1.441.373,1.354,1.354,0,0,1,.467,1.124,1.407,1.407,0,0,1-1.065,1.421l1.439,2.382h-.729l-1.283-2.2Zm0-.53h.844a1.459,1.459,0,0,0,.957-.259.963.963,0,0,0,.305-.778.884.884,0,0,0-.31-.757,1.676,1.676,0,0,0-1-.233h-.8Zm0,0" transform="translate(-10.859 78.984)" fill="#fff"/>
      </g>
      <g id="Сгруппировать_7135" data-name="Сгруппировать 7135" transform="translate(113.943 5.383)">
        <path id="Контур_15402" data-name="Контур 15402" fill="#fff"/>
      </g>
      <g id="Сгруппировать_7136" data-name="Сгруппировать 7136" transform="translate(116.233 0.083)">
        <path id="Контур_15403" data-name="Контур 15403" d="M2.077-76.334l1.415-2.651h.667L2.39-75.739v2.055H1.766v-2.027L0-78.984H.674Zm0,0" transform="translate(0 78.984)" fill="#fff"/>
      </g>
      <g id="Сгруппировать_7137" data-name="Сгруппировать 7137" transform="translate(121.206 0)">
        <path id="Контур_15404" data-name="Контур 15404" d="M11.627-77.493a2.916,2.916,0,0,1-.644,2,2.262,2.262,0,0,1-1.789.729,2.291,2.291,0,0,1-1.808-.716A2.94,2.94,0,0,1,6.75-77.5a2.906,2.906,0,0,1,.638-2.007A2.31,2.31,0,0,1,9.2-80.219a2.259,2.259,0,0,1,1.785.726A2.913,2.913,0,0,1,11.627-77.493Zm-4.224,0a2.518,2.518,0,0,0,.458,1.634,1.627,1.627,0,0,0,1.333.556,1.609,1.609,0,0,0,1.33-.555,2.548,2.548,0,0,0,.45-1.635,2.53,2.53,0,0,0-.448-1.622A1.6,1.6,0,0,0,9.2-79.668a1.634,1.634,0,0,0-1.339.557A2.492,2.492,0,0,0,7.4-77.493Zm0,0" transform="translate(-6.75 80.219)" fill="#fff"/>
      </g>
      <g id="Сгруппировать_7138" data-name="Сгруппировать 7138" transform="translate(127.572 0.083)">
        <path id="Контур_15405" data-name="Контур 15405" d="M14.1-78.984v3.43a1.87,1.87,0,0,1-.547,1.425,2.1,2.1,0,0,1-1.5.518,2.008,2.008,0,0,1-1.482-.522,1.937,1.937,0,0,1-.523-1.436v-3.415h.617v3.459a1.363,1.363,0,0,0,.362,1.018,1.463,1.463,0,0,0,1.066.355,1.41,1.41,0,0,0,1.033-.357,1.375,1.375,0,0,0,.363-1.024v-3.452Zm0,0" transform="translate(-10.047 78.984)" fill="#fff"/>
      </g>
    </g>
  </g>
</svg>
