<svg xmlns="http://www.w3.org/2000/svg" xmlns:xlink="http://www.w3.org/1999/xlink" width="358" height="339" viewBox="0 0 358 339">
  <defs>
    <filter id="Прямоугольник_2366">
      <feOffset dy="3" input="SourceAlpha"/>
      <feGaussianBlur stdDeviation="3" result="blur"/>
      <feFlood flood-color="#fff" result="color"/>
      <feComposite operator="out" in="SourceGraphic" in2="blur"/>
      <feComposite operator="in" in="color"/>
      <feComposite operator="in" in2="SourceGraphic"/>
    </filter>
  </defs>
  <g id="Сгруппировать_9753" data-name="Сгруппировать 9753" transform="translate(-203.536 -2204)">
    <g data-type="innerShadowGroup">
      <rect id="Прямоугольник_2366-2" data-name="Прямоугольник 2366" width="358" height="339" rx="60" transform="translate(203.536 2204)" fill="#e3b119"/>
      <g transform="matrix(1, 0, 0, 1, 203.54, 2204)" filter="url(#Прямоугольник_2366)">
        <rect id="Прямоугольник_2366-3" data-name="Прямоугольник 2366" width="358" height="339" rx="60" transform="translate(0)" fill="#fff"/>
      </g>
    </g>
    <g id="Сгруппировать_9751" data-name="Сгруппировать 9751" transform="translate(260.256 2267.858)">
      <g id="Сгруппировать_7210" data-name="Сгруппировать 7210" transform="translate(0 166.307)">
        <g id="Сгруппировать_7071" data-name="Сгруппировать 7071" transform="translate(0 0.522)">
          <path id="Контур_15341" data-name="Контур 15341" d="M20.821-156.584l-6-7.234v12.167H12.282v-15.2l-2.064-2.491h3.343l7.234,8.68,7.328-8.68h3.345l-2.064,2.491v15.2H26.867v-12.167Zm0,0" transform="translate(-10.219 169.344)" fill="#fff"/>
        </g>
        <g id="Сгруппировать_7072" data-name="Сгруппировать 7072" transform="translate(26.112)">
          <path id="Контур_15342" data-name="Контур 15342" d="M30.109-165.094a6.34,6.34,0,0,0-.558-2.668,6.554,6.554,0,0,0-1.518-2.111,6.863,6.863,0,0,0-2.217-1.375,7.368,7.368,0,0,0-2.681-.486,7.53,7.53,0,0,0-2.751.5,6.537,6.537,0,0,0-2.217,1.411,6.615,6.615,0,0,0-1.471,2.158,6.884,6.884,0,0,0-.534,2.739,6.173,6.173,0,0,0,.57,2.645,6.5,6.5,0,0,0,1.541,2.1,7.329,7.329,0,0,0,2.23,1.375,7.138,7.138,0,0,0,2.656.5,7.017,7.017,0,0,0,2.692-.521,6.877,6.877,0,0,0,2.206-1.435,6.966,6.966,0,0,0,1.494-2.145A6.431,6.431,0,0,0,30.109-165.094Zm2.561.144A8.662,8.662,0,0,1,31.9-161.3a9.306,9.306,0,0,1-2.075,2.917,9.787,9.787,0,0,1-3.036,1.944,9.513,9.513,0,0,1-3.652.712,9.5,9.5,0,0,1-3.747-.735,9.435,9.435,0,0,1-3.014-2.016A9.39,9.39,0,0,1,14.36-161.5a9.525,9.525,0,0,1-.735-3.737,8.531,8.531,0,0,1,.771-3.616,9.1,9.1,0,0,1,2.086-2.893,9.7,9.7,0,0,1,3.048-1.91,9.73,9.73,0,0,1,3.629-.689,9.478,9.478,0,0,1,3.7.725,9.487,9.487,0,0,1,3.024,1.992,9.419,9.419,0,0,1,2.041,2.976A9.127,9.127,0,0,1,32.67-164.95Zm0,0" transform="translate(-13.625 174.344)" fill="#fff"/>
        </g>
        <g id="Сгруппировать_7073" data-name="Сгруппировать 7073" transform="translate(51.559 0.522)">
          <path id="Контур_15343" data-name="Контур 15343" d="M27.555-160.876a4.284,4.284,0,0,1,1.636-.581,13.278,13.278,0,0,1,1.708-.108h3.368a3.471,3.471,0,0,0,2.181-.64,2.441,2.441,0,0,0,.831-2.064,2.583,2.583,0,0,0-.237-1.161,2.118,2.118,0,0,0-.64-.772,2.587,2.587,0,0,0-.95-.426,5.094,5.094,0,0,0-1.185-.131H27.555Zm5.407,1.9H30.9a11.065,11.065,0,0,0-1.7.131,5.235,5.235,0,0,0-1.647.557v6.641H24.969v-17.693h9.3a6.927,6.927,0,0,1,2.228.344,5.053,5.053,0,0,1,1.768,1.007,4.541,4.541,0,0,1,1.162,1.638,5.633,5.633,0,0,1,.415,2.228,4.945,4.945,0,0,1-1.079,3.3,5.524,5.524,0,0,1-3,1.755l1.376,2.823q.426.616.735,1a3.963,3.963,0,0,0,.593.6,1.653,1.653,0,0,0,.594.309,2.845,2.845,0,0,0,.735.083l.831-.024v2.633q-.759,0-1.531-.047a5.2,5.2,0,0,1-1.482-.309,4.256,4.256,0,0,1-1.352-.829,5.019,5.019,0,0,1-1.138-1.613Zm0,0" transform="translate(-24.969 169.344)" fill="#fff"/>
        </g>
        <g id="Сгруппировать_7074" data-name="Сгруппировать 7074" transform="translate(72.667)">
          <path id="Контур_15344" data-name="Контур 15344" d="M28.306-169.6a7.357,7.357,0,0,0-2.326-1.564,7.141,7.141,0,0,0-2.845-.57,7.53,7.53,0,0,0-2.751.5,6.537,6.537,0,0,0-2.217,1.411,6.615,6.615,0,0,0-1.471,2.158,6.884,6.884,0,0,0-.534,2.739,6.173,6.173,0,0,0,.57,2.645,6.5,6.5,0,0,0,1.541,2.1,7.329,7.329,0,0,0,2.23,1.375,7.138,7.138,0,0,0,2.656.5,7.079,7.079,0,0,0,2.537-.451,6.909,6.909,0,0,0,2.111-1.257v-3.224H25.531L24.416-165.8h5.952v6.878a9.784,9.784,0,0,1-3.215,2.348,9.528,9.528,0,0,1-4.019.854,9.5,9.5,0,0,1-3.747-.735,9.435,9.435,0,0,1-3.014-2.016A9.39,9.39,0,0,1,14.36-161.5a9.525,9.525,0,0,1-.735-3.737,8.531,8.531,0,0,1,.771-3.616,9.1,9.1,0,0,1,2.086-2.893,9.7,9.7,0,0,1,3.048-1.91,9.73,9.73,0,0,1,3.629-.689,9.43,9.43,0,0,1,3.758.748,9.649,9.649,0,0,1,3.048,2.052Zm0,0" transform="translate(-13.625 174.344)" fill="#fff"/>
        </g>
        <g id="Сгруппировать_7075" data-name="Сгруппировать 7075" transform="translate(94.035 0.214)">
          <path id="Контур_15345" data-name="Контур 15345" d="M11.234-172.3h2.847l8.514,18H19.7l-1.162-2.586H13.155a12.369,12.369,0,0,0-2.147.166,8.493,8.493,0,0,0-1.6.428,4.385,4.385,0,0,0-1.068.568,1.835,1.835,0,0,0-.545.594l-.451.829h-2.8l7.66-15.819Zm6.143,12.807-3.866-7.47L9.6-158.492a4.178,4.178,0,0,1,1.566-.7,11.612,11.612,0,0,1,2.94-.3Zm0,0" transform="translate(-4.547 172.297)" fill="#fff"/>
        </g>
        <g id="Сгруппировать_7076" data-name="Сгруппировать 7076" transform="translate(116.232 0.522)">
          <path id="Контур_15346" data-name="Контур 15346" d="M10.219-169.344h3.343l11.361,13.519v-13.519h2.609v17.693H24.97L14.819-163.818v12.167H12.282v-15.2Zm0,0" transform="translate(-10.219 169.344)" fill="#fff"/>
        </g>
        <g id="Сгруппировать_7077" data-name="Сгруппировать 7077" transform="translate(138.526 18.216)">
          <path id="Контур_15347" data-name="Контур 15347" fill="#fff"/>
        </g>
        <g id="Сгруппировать_7078" data-name="Сгруппировать 7078" transform="translate(147.798 0.214)">
          <path id="Контур_15348" data-name="Контур 15348" d="M11.234-172.3h2.847l8.514,18H19.7l-1.162-2.586H13.155a12.369,12.369,0,0,0-2.147.166,8.493,8.493,0,0,0-1.6.428,4.385,4.385,0,0,0-1.068.568,1.835,1.835,0,0,0-.545.594l-.451.829h-2.8l7.66-15.819Zm6.143,12.807-3.866-7.47L9.6-158.492a4.178,4.178,0,0,1,1.566-.7,11.612,11.612,0,0,1,2.94-.3Zm0,0" transform="translate(-4.547 172.297)" fill="#fff"/>
        </g>
        <g id="Сгруппировать_7079" data-name="Сгруппировать 7079" transform="translate(170.114)">
          <path id="Контур_15349" data-name="Контур 15349" d="M26.523-161.512a4.835,4.835,0,0,1-.606,2.408,5.533,5.533,0,0,1-1.66,1.827,8.018,8.018,0,0,1-2.5,1.149,11.636,11.636,0,0,1-3.131.4,8.409,8.409,0,0,1-2.028-.25,9.8,9.8,0,0,1-1.956-.71,9.558,9.558,0,0,1-1.791-1.14,9.179,9.179,0,0,1-1.507-1.53l1.851-1.731a12.329,12.329,0,0,0,.854.913,6.621,6.621,0,0,0,1.174.9,7.017,7.017,0,0,0,1.517.687,6.1,6.1,0,0,0,1.886.273,9.771,9.771,0,0,0,1.921-.189,6.116,6.116,0,0,0,1.683-.58,3.507,3.507,0,0,0,1.187-1,2.339,2.339,0,0,0,.451-1.437,2.359,2.359,0,0,0-.462-1.566,2.642,2.642,0,0,0-1.2-.793,6.2,6.2,0,0,0-1.683-.3q-.949-.047-1.9-.047a8.6,8.6,0,0,1-4.862-1.138,3.891,3.891,0,0,1-1.66-3.44,4.719,4.719,0,0,1,.486-2.075,5.65,5.65,0,0,1,1.352-1.779A6.684,6.684,0,0,1,16-173.88a7.2,7.2,0,0,1,2.62-.464,11.291,11.291,0,0,1,3.771.617,9.1,9.1,0,0,1,3.345,2.183l-1.613,1.9a16.11,16.11,0,0,0-1.34-.973,7.165,7.165,0,0,0-1.269-.651,6.272,6.272,0,0,0-1.34-.356,10.425,10.425,0,0,0-1.554-.106,4.209,4.209,0,0,0-1.422.237,3.923,3.923,0,0,0-1.162.64,3.05,3.05,0,0,0-.784.937,2.322,2.322,0,0,0-.284,1.1,1.852,1.852,0,0,0,.167.771,1.6,1.6,0,0,0,.593.653,3.508,3.508,0,0,0,1.151.451,8.6,8.6,0,0,0,1.861.165,17.086,17.086,0,0,1,3.83.356,6.229,6.229,0,0,1,2.384,1.032,3.536,3.536,0,0,1,1.221,1.66A6.694,6.694,0,0,1,26.523-161.512Zm0,0" transform="translate(-11.344 174.344)" fill="#fff"/>
        </g>
        <g id="Сгруппировать_7080" data-name="Сгруппировать 7080" transform="translate(190.035)">
          <path id="Контур_15350" data-name="Контур 15350" d="M26.523-161.512a4.835,4.835,0,0,1-.606,2.408,5.533,5.533,0,0,1-1.66,1.827,8.018,8.018,0,0,1-2.5,1.149,11.636,11.636,0,0,1-3.131.4,8.409,8.409,0,0,1-2.028-.25,9.8,9.8,0,0,1-1.956-.71,9.558,9.558,0,0,1-1.791-1.14,9.179,9.179,0,0,1-1.507-1.53l1.851-1.731a12.329,12.329,0,0,0,.854.913,6.621,6.621,0,0,0,1.174.9,7.017,7.017,0,0,0,1.517.687,6.1,6.1,0,0,0,1.886.273,9.771,9.771,0,0,0,1.921-.189,6.116,6.116,0,0,0,1.683-.58,3.507,3.507,0,0,0,1.187-1,2.339,2.339,0,0,0,.451-1.437,2.359,2.359,0,0,0-.462-1.566,2.642,2.642,0,0,0-1.2-.793,6.2,6.2,0,0,0-1.683-.3q-.949-.047-1.9-.047a8.6,8.6,0,0,1-4.862-1.138,3.891,3.891,0,0,1-1.66-3.44,4.719,4.719,0,0,1,.486-2.075,5.65,5.65,0,0,1,1.352-1.779A6.684,6.684,0,0,1,16-173.88a7.2,7.2,0,0,1,2.62-.464,11.291,11.291,0,0,1,3.771.617,9.1,9.1,0,0,1,3.345,2.183l-1.613,1.9a16.11,16.11,0,0,0-1.34-.973,7.165,7.165,0,0,0-1.269-.651,6.272,6.272,0,0,0-1.34-.356,10.425,10.425,0,0,0-1.554-.106,4.209,4.209,0,0,0-1.422.237,3.923,3.923,0,0,0-1.162.64,3.05,3.05,0,0,0-.784.937,2.322,2.322,0,0,0-.284,1.1,1.852,1.852,0,0,0,.167.771,1.6,1.6,0,0,0,.593.653,3.508,3.508,0,0,0,1.151.451,8.6,8.6,0,0,0,1.861.165,17.086,17.086,0,0,1,3.83.356,6.229,6.229,0,0,1,2.384,1.032,3.536,3.536,0,0,1,1.221,1.66A6.694,6.694,0,0,1,26.523-161.512Zm0,0" transform="translate(-11.344 174.344)" fill="#fff"/>
        </g>
        <g id="Сгруппировать_7081" data-name="Сгруппировать 7081" transform="translate(211.38 0.522)">
          <path id="Контур_15351" data-name="Контур 15351" d="M27.555-154.236h10.91v2.586h-13.5v-17.693H37.42v2.609H27.555v5.361a4.285,4.285,0,0,1,1.636-.581,13.267,13.267,0,0,1,1.708-.108h3.866v2.633H30.9a11.079,11.079,0,0,0-1.7.131,5.236,5.236,0,0,0-1.647.557Zm0,0" transform="translate(-24.969 169.344)" fill="#fff"/>
        </g>
        <g id="Сгруппировать_7082" data-name="Сгруппировать 7082" transform="translate(229.5 0.522)">
          <path id="Контур_15352" data-name="Контур 15352" d="M15.635-166.735v15.085H13.121v-15.085H6.813v-2.609h15.06v2.609Zm0,0" transform="translate(-6.813 169.344)" fill="#fff"/>
        </g>
      </g>
      <g id="Сгруппировать_7211" data-name="Сгруппировать 7211" transform="translate(14.012 192.666)">
        <g id="Сгруппировать_7084" data-name="Сгруппировать 7084" transform="translate(0 0.522)">
          <path id="Контур_15353" data-name="Контур 15353" d="M20.821-156.584l-6-7.234v12.167H12.282v-15.2l-2.064-2.491h3.343l7.234,8.68,7.328-8.68h3.345l-2.064,2.491v15.2H26.867v-12.167Zm0,0" transform="translate(-10.219 169.344)" fill="#fff"/>
        </g>
        <g id="Сгруппировать_7085" data-name="Сгруппировать 7085" transform="translate(25.163 0.214)">
          <path id="Контур_15354" data-name="Контур 15354" d="M11.234-172.3h2.847l8.514,18H19.7l-1.162-2.586H13.155a12.369,12.369,0,0,0-2.147.166,8.493,8.493,0,0,0-1.6.428,4.385,4.385,0,0,0-1.068.568,1.835,1.835,0,0,0-.545.594l-.451.829h-2.8l7.66-15.819Zm6.143,12.807-3.866-7.47L9.6-158.492a4.178,4.178,0,0,1,1.566-.7,11.612,11.612,0,0,1,2.94-.3Zm0,0" transform="translate(-4.547 172.297)" fill="#fff"/>
        </g>
        <g id="Сгруппировать_7086" data-name="Сгруппировать 7086" transform="translate(47.361 0.522)">
          <path id="Контур_15355" data-name="Контур 15355" d="M10.219-169.344h3.343l11.361,13.519v-13.519h2.609v17.693H24.97L14.819-163.818v12.167H12.282v-15.2Zm0,0" transform="translate(-10.219 169.344)" fill="#fff"/>
        </g>
        <g id="Сгруппировать_7087" data-name="Сгруппировать 7087" transform="translate(70.129 0.214)">
          <path id="Контур_15356" data-name="Контур 15356" d="M11.234-172.3h2.847l8.514,18H19.7l-1.162-2.586H13.155a12.369,12.369,0,0,0-2.147.166,8.493,8.493,0,0,0-1.6.428,4.385,4.385,0,0,0-1.068.568,1.835,1.835,0,0,0-.545.594l-.451.829h-2.8l7.66-15.819Zm6.143,12.807-3.866-7.47L9.6-158.492a4.178,4.178,0,0,1,1.566-.7,11.612,11.612,0,0,1,2.94-.3Zm0,0" transform="translate(-4.547 172.297)" fill="#fff"/>
        </g>
        <g id="Сгруппировать_7088" data-name="Сгруппировать 7088" transform="translate(91.284)">
          <path id="Контур_15357" data-name="Контур 15357" d="M28.306-169.6a7.357,7.357,0,0,0-2.326-1.564,7.141,7.141,0,0,0-2.845-.57,7.53,7.53,0,0,0-2.751.5,6.537,6.537,0,0,0-2.217,1.411,6.615,6.615,0,0,0-1.471,2.158,6.884,6.884,0,0,0-.534,2.739,6.173,6.173,0,0,0,.57,2.645,6.5,6.5,0,0,0,1.541,2.1,7.329,7.329,0,0,0,2.23,1.375,7.138,7.138,0,0,0,2.656.5,7.079,7.079,0,0,0,2.537-.451,6.909,6.909,0,0,0,2.111-1.257v-3.224H25.531L24.416-165.8h5.952v6.878a9.784,9.784,0,0,1-3.215,2.348,9.528,9.528,0,0,1-4.019.854,9.5,9.5,0,0,1-3.747-.735,9.435,9.435,0,0,1-3.014-2.016A9.39,9.39,0,0,1,14.36-161.5a9.525,9.525,0,0,1-.735-3.737,8.531,8.531,0,0,1,.771-3.616,9.1,9.1,0,0,1,2.086-2.893,9.7,9.7,0,0,1,3.048-1.91,9.73,9.73,0,0,1,3.629-.689,9.43,9.43,0,0,1,3.758.748,9.649,9.649,0,0,1,3.048,2.052Zm0,0" transform="translate(-13.625 174.344)" fill="#fff"/>
        </g>
        <g id="Сгруппировать_7089" data-name="Сгруппировать 7089" transform="translate(114.785 0.522)">
          <path id="Контур_15358" data-name="Контур 15358" d="M27.555-154.236h10.91v2.586h-13.5v-17.693H37.42v2.609H27.555v5.361a4.285,4.285,0,0,1,1.636-.581,13.267,13.267,0,0,1,1.708-.108h3.866v2.633H30.9a11.079,11.079,0,0,0-1.7.131,5.236,5.236,0,0,0-1.647.557Zm0,0" transform="translate(-24.969 169.344)" fill="#fff"/>
        </g>
        <g id="Сгруппировать_7090" data-name="Сгруппировать 7090" transform="translate(133.261 0.522)">
          <path id="Контур_15359" data-name="Контур 15359" d="M20.821-156.584l-6-7.234v12.167H12.282v-15.2l-2.064-2.491h3.343l7.234,8.68,7.328-8.68h3.345l-2.064,2.491v15.2H26.867v-12.167Zm0,0" transform="translate(-10.219 169.344)" fill="#fff"/>
        </g>
        <g id="Сгруппировать_7091" data-name="Сгруппировать 7091" transform="translate(160.557 0.522)">
          <path id="Контур_15360" data-name="Контур 15360" d="M27.555-154.236h10.91v2.586h-13.5v-17.693H37.42v2.609H27.555v5.361a4.285,4.285,0,0,1,1.636-.581,13.267,13.267,0,0,1,1.708-.108h3.866v2.633H30.9a11.079,11.079,0,0,0-1.7.131,5.236,5.236,0,0,0-1.647.557Zm0,0" transform="translate(-24.969 169.344)" fill="#fff"/>
        </g>
        <g id="Сгруппировать_7092" data-name="Сгруппировать 7092" transform="translate(179.033 0.522)">
          <path id="Контур_15361" data-name="Контур 15361" d="M10.219-169.344h3.343l11.361,13.519v-13.519h2.609v17.693H24.97L14.819-163.818v12.167H12.282v-15.2Zm0,0" transform="translate(-10.219 169.344)" fill="#fff"/>
        </g>
        <g id="Сгруппировать_7093" data-name="Сгруппировать 7093" transform="translate(202.038 0.522)">
          <path id="Контур_15362" data-name="Контур 15362" d="M15.635-166.735v15.085H13.121v-15.085H6.813v-2.609h15.06v2.609Zm0,0" transform="translate(-6.813 169.344)" fill="#fff"/>
        </g>
      </g>
      <path id="Контур_22292" data-name="Контур 22292" d="M464.277,1416.718c-1.714,2.8-2.341,4.663-1.845,5.56.259.458.875.7,1.845.7.951,0,1.578-.234,1.827-.692.5-.9-.126-2.762-1.827-5.566m-10.534-7.244,10.534,6.076,10.516-6.076-10.516-6.075Zm-.667,5.773a1.488,1.488,0,1,0,1.492,1.492A1.488,1.488,0,0,0,453.076,1415.247Zm22.384,0a1.488,1.488,0,1,0,1.494,1.492A1.491,1.491,0,0,0,475.461,1415.247Zm.01-14.523a1.49,1.49,0,1,0,1.484,1.492A1.493,1.493,0,0,0,475.471,1400.724Zm-24,3.076a2.253,2.253,0,1,1,2.61.434l0,.006a3.7,3.7,0,0,1-4.969-1.386,4.128,4.128,0,0,1,.659-5.344,5.391,5.391,0,0,1,5.992-.458c2.649,1.379,4.129,4.352,4.038,8.042l3.933-2.271-.093-.15v0l-.091-.148v0l-.011-.019c-1.758-2.895-2.347-4.766-1.881-5.959v0l.024-.059v0l.026-.057.029-.06v0l.03-.056a2.6,2.6,0,0,1,2.508-1.1h.059l.057,0,.059,0,.055,0,.057,0,.056,0,.055,0,.055,0,.053.006.054.006.052,0h0l.051.007.052.006.051.008.051.008.048.007.049.01.047.01.048.01.048.01.046.011.044.012h0l.044.013.044.012h0l.043.013.044.013.042.014.041.015h0l.041.016.04.015.04.016h0l.04.017h0l.036.019h0l.038.017h0l.037.017h0l.035.019h0l.035.019h0l.034.021h0l.035.021a1.977,1.977,0,0,1,.675.686,2.563,2.563,0,0,1,.219,1.644h0l-.027.176,0,0-.015.089,0,0-.037.184v0l-.023.092v0l-.025.094v0l-.026.1h0l-.029.1,0,0-.03.1,0,0-.031.1h0l-.033.1v0l-.036.1,0,0-.038.106,0,0-.04.105v0l-.044.108v0l-.044.109,0,0-.046.109v0l-.049.113v0l-.052.113v0l-.054.113v0l-.054.119v0l-.059.121h0l-.058.121v0l-.061.123v0l-.064.123v0l-.064.125v0l-.067.128v0l-.071.13h0l-.072.132v0l-.073.134h0l-.076.136v0l-.078.138h0l-.08.14h0l-.082.142v0l-.085.144h0l-.086.144v0l-.089.146v0l-.09.15-.092.152-.1.151,3.939,2.273c-.093-3.69,1.387-6.665,4.036-8.044a5.4,5.4,0,0,1,5.993.458,4.129,4.129,0,0,1,.652,5.344,3.69,3.69,0,0,1-4.964,1.386l0-.008a2.249,2.249,0,1,1,2.608-.432,2.929,2.929,0,0,0,1.7-1.345,3.363,3.363,0,0,0-.494-4.352,4.621,4.621,0,0,0-5.147-.376c-2.492,1.3-3.834,4.214-3.607,7.822l6.8,3.924-6.8,3.93c-.227,3.606,1.115,6.514,3.6,7.814a4.663,4.663,0,0,0,5.158-.37,3.365,3.365,0,0,0,.494-4.352,2.935,2.935,0,0,0-1.712-1.346,2.247,2.247,0,1,1-2.6-.436l0-.007a3.7,3.7,0,0,1,4.964,1.387,4.132,4.132,0,0,1-.652,5.345,5.121,5.121,0,0,1-3.258,1.151,5.92,5.92,0,0,1-2.735-.7c-2.649-1.375-4.129-4.35-4.036-8.032l-3.939,2.275c2.043,3.282,2.649,5.305,1.981,6.518a3.41,3.41,0,0,1-5.013-.006c-.667-1.2-.04-3.282,1.967-6.512l-3.933-2.273c.091,3.683-1.388,6.657-4.038,8.031a5.939,5.939,0,0,1-2.736.7,5.1,5.1,0,0,1-3.256-1.151,4.132,4.132,0,0,1-.659-5.345,3.692,3.692,0,0,1,4.969-1.387l0,.006a2.264,2.264,0,1,1-2.608.438,2.949,2.949,0,0,0-1.711,1.346,3.365,3.365,0,0,0,.5,4.352,4.632,4.632,0,0,0,5.152.37c2.486-1.3,3.823-4.208,3.6-7.814l-6.8-3.93,6.8-3.924c.224-3.61-1.113-6.525-3.6-7.822a4.644,4.644,0,0,0-5.147.376,3.363,3.363,0,0,0-.5,4.352A2.942,2.942,0,0,0,451.471,1403.8Zm1.606-3.076a1.49,1.49,0,1,0,.579,2.864l.033-.014v0a1.491,1.491,0,0,0-.612-2.848Zm11.2,95.22c-.97,0-1.587.232-1.845.69-.5.9.131,2.768,1.845,5.564,1.7-2.806,2.328-4.676,1.827-5.564C465.855,1496.17,465.228,1495.944,464.277,1495.944Zm-11.2,19.264a1.489,1.489,0,1,0,.649.148l-.033-.016,0,0-.029-.013-.033-.013-.014-.006-.021-.006-.035-.013A1.413,1.413,0,0,0,453.076,1515.208Zm22.384,0a1.487,1.487,0,1,0,1.494,1.494A1.492,1.492,0,0,0,475.461,1515.208Zm-9.95,7.542a1.135,1.135,0,0,0,.594-.5,1,1,0,0,0,.081-.178l.016-.042v0l.015-.046v-.006l.014-.046v0l.01-.048v0l.009-.052v0l.007-.054v0l0-.052v0l0-.053v0l0-.058v-.059c.01-1.026-.663-2.649-1.994-4.841-1.58,2.58-2.228,4.369-1.941,5.332h0l.015.05h0l.016.046h0l.017.046h0l.02.042v0l.022.042q.388.7,1.845.7h.088l.043,0,.044,0h.041l.084-.006.04,0h0l.04,0h0l.04,0,.038,0h0l.038,0h0l.038,0,.038-.006h0l.036,0h0l.037-.006h0l.034-.006h0l.034-.006h0l.033-.008h0l.034-.006h0l.033-.006h0l.031-.008h0l.031-.01h0l.031-.008h0l.028-.006h0l.03-.011h0l.06-.018h0l.027-.011h0l.056-.019h0l.082-.035Zm-11.767-13.309,10.534,6.074,10.516-6.074-10.516-6.074Zm21.717-8.754a1.492,1.492,0,1,0,1.494,1.492A1.491,1.491,0,0,0,475.461,1500.687Zm-23.987,3.083a2.251,2.251,0,1,1,2.609.433v.006a3.7,3.7,0,0,1-4.969-1.383,4.136,4.136,0,0,1,.659-5.349,5.385,5.385,0,0,1,5.992-.449c2.649,1.375,4.127,4.344,4.038,8.029l3.933-2.273c-2.007-3.228-2.634-5.313-1.967-6.516a3.417,3.417,0,0,1,5.013,0c.667,1.212.062,3.238-1.981,6.516l3.939,2.275c-.093-3.686,1.387-6.656,4.036-8.031a5.389,5.389,0,0,1,5.993.449,4.129,4.129,0,0,1,.652,5.344,3.676,3.676,0,0,1-4.779,1.467l-.005,0-.05-.021-.019-.007-.032-.016-.078-.03v0a2.259,2.259,0,1,1,2.6-.433,2.962,2.962,0,0,0,1.712-1.354,3.357,3.357,0,0,0-.494-4.346,4.631,4.631,0,0,0-5.158-.37c-2.481,1.291-3.823,4.2-3.6,7.812l6.8,3.928-6.8,3.928c-.228,3.608,1.113,6.525,3.607,7.822a4.618,4.618,0,0,0,5.147-.376,3.358,3.358,0,0,0,.489-4.352,2.9,2.9,0,0,0-1.7-1.347,2.248,2.248,0,1,1-2.606-.437l0,0a3.69,3.69,0,0,1,4.964,1.379,4.147,4.147,0,0,1-.652,5.357,5.149,5.149,0,0,1-3.258,1.145,5.985,5.985,0,0,1-2.735-.689c-2.651-1.377-4.129-4.352-4.036-8.046l-3.937,2.271a22.4,22.4,0,0,1,1.7,3.186l0,.006.128.324,0,.006.038.1,0,0,.036.1v0l.033.1,0,.006.031.1,0,0,.03.1,0,0,.029.1v0l.026.094v0l.025.092v0l.023.09v0l.037.184,0,0,.015.084,0,.006.027.172,0,0a2.513,2.513,0,0,1-.219,1.644,1.984,1.984,0,0,1-1.136.9h-.005l-.037.015h0l-.04.014h0l-.091.025-.038.013h-.007l-.04.011h0l-.042.012h0l-.044.01h0l-.043.01h0l-.044.011h0l-.045.008h0l-.043.008h-.005l-.046.008h0l-.047.007h0l-.047.008h0l-.047.006h0l-.049.006h0l-.051.006h0l-.051,0h0l-.052.006h0l-.053,0h0l-.054,0h0l-.055,0h0l-.054,0h-.06l-.056,0h-.059a2.6,2.6,0,0,1-2.508-1.107l-.03-.055h0l-.029-.06v0l-.026-.057h0l-.024-.06v0c-.395-1.011-.032-2.505,1.153-4.7l.013-.021.062-.115.01-.019.064-.117.01-.02.069-.119.007-.017.072-.123.008-.017.073-.125.007-.015.076-.128.008-.016.079-.132.006-.01.082-.136.276-.456-3.931-2.267c.091,3.69-1.388,6.665-4.038,8.042a6,6,0,0,1-2.736.689,5.112,5.112,0,0,1-3.256-1.145,4.147,4.147,0,0,1-.659-5.357,3.688,3.688,0,0,1,4.969-1.379l0,0a2.263,2.263,0,1,1-2.614.443,2.915,2.915,0,0,0-1.693,1.341,3.349,3.349,0,0,0,.489,4.352,4.625,4.625,0,0,0,5.152.376c2.487-1.3,3.823-4.214,3.6-7.822l-6.8-3.928,6.8-3.928c.224-3.611-1.113-6.517-3.6-7.812a4.6,4.6,0,0,0-5.152.37,3.357,3.357,0,0,0-.5,4.346A2.936,2.936,0,0,0,451.474,1503.769Zm1.6-3.083a1.492,1.492,0,1,0,1.487,1.492A1.488,1.488,0,0,0,453.076,1500.687Zm68.415-41.23c2.2,1.35,3.78,2,4.83,2,.673,0,1.442-.225,1.442-2v-.083l0-.079v-.081l0-.073-.006-.075h0l-.01-.14h0l-.006-.067-.01-.063-.009-.063-.01-.061h0l-.009-.06h0l-.01-.056h0l-.012-.056h0l-.013-.054h0l-.015-.052h0l-.015-.05h0l-.013-.048h0l-.034-.09h0l-.019-.044h0l-.017-.041h0l-.019-.04h0a1.081,1.081,0,0,0-.616-.543l-.025-.009h0l-.029-.01h0l-.027-.01h0l-.027-.007h0l-.027-.006h-.006l-.027-.01h0l-.027,0h0l-.029-.006h-.006l-.027,0h0l-.029,0h0l-.031,0h0l-.031,0h0l-.031,0h-.033l-.031,0h0l-.029,0h-.065C525.272,1457.458,523.691,1458.111,521.491,1459.457Zm-19.307-2c-.668,0-1.434.224-1.434,2s.766,2,1.434,2c1.044,0,2.628-.652,4.826-2C504.822,1458.111,503.238,1457.458,502.184,1457.458Zm4.82-10.695a1.5,1.5,0,1,0,1.32,2.185l-.01,0c.049-.109.094-.221.135-.328a1.5,1.5,0,0,0-1.445-1.853Zm0,22.4a1.493,1.493,0,1,0,1.487,1.49,1.528,1.528,0,0,0-.038-.338c-.041-.111-.088-.228-.139-.341l.012-.006A1.486,1.486,0,0,0,507,1469.162Zm1.172-9.7,6.075,10.507,6.008-10.38-.209-.127.209-.125-6.008-10.39Zm13.335,9.7a1.5,1.5,0,0,0-1.329.809l0,0-.106.257a1.526,1.526,0,0,0-.061.422,1.492,1.492,0,1,0,1.492-1.49Zm0-18.643a2.263,2.263,0,0,1-2.016-1.249h0l-.015-.035,0-.006-.075-.18-.01-.019-.019-.052h0a3.674,3.674,0,0,1,1.492-4.673,4.133,4.133,0,0,1,5.355.658,5.378,5.378,0,0,1,.46,5.992c-1.346,2.568-4.191,4.036-7.737,4.036l-.309,0,2.271,3.936c2.451-1.523,4.168-2.231,5.417-2.231,1,0,2.206.478,2.206,2.762s-1.2,2.766-2.206,2.766c-1.237,0-2.965-.708-5.417-2.233l-2.271,3.932c3.732-.1,6.669,1.392,8.046,4.039a5.381,5.381,0,0,1-.46,5.982,3.677,3.677,0,0,1-2.935,1.35,4.624,4.624,0,0,1-2.421-.689,3.65,3.65,0,0,1-1.521-4.584,2.262,2.262,0,1,1,.587,2.244,2.934,2.934,0,0,0,1.331,1.688,3.377,3.377,0,0,0,4.373-.489,4.662,4.662,0,0,0,.366-5.152c-1.3-2.486-4.222-3.8-7.818-3.606l-3.928,6.8,0-.009-.005.009-3.924-6.8c-3.59-.211-6.521,1.126-7.807,3.612a4.606,4.606,0,0,0,.367,5.146,3.35,3.35,0,0,0,4.356.489,2.918,2.918,0,0,0,1.337-1.679,2.239,2.239,0,0,1-1.57.639,2.259,2.259,0,1,1,2.191-2.8,3.63,3.63,0,0,1-1.549,4.5,4.594,4.594,0,0,1-2.418.689,3.69,3.69,0,0,1-2.935-1.346,5.353,5.353,0,0,1-.458-5.986c1.376-2.641,4.317-4.135,8.031-4.039l-2.267-3.932c-2.451,1.525-4.185,2.233-5.416,2.233-1,0-2.2-.48-2.2-2.766s1.193-2.762,2.2-2.762h.058l.06,0,.059,0,.061,0,.062.006.062.006.064.008.063.006.063.01h0l.064.009.065.011h0l.065.011h0l.066.014h0l.067.015h0l.069.016h0l.069.015h0l.068.017h0l.069.019h0l.071.02h0l.071.021h0l.073.021h0l.072.023h0l.073.023h0l.074.027h0l.076.025h0l.076.027h0l.076.029h0l.077.031h0l.159.061h0l.079.033h0l.081.034h0l.081.035h0l.082.035h0c.512.221,1.072.5,1.685.846h0l.1.058h0l.1.061h0l.1.058.54.32h0l.11.065h0l.109.071h0l.113.069.114.069,2.271-3.936-.316,0c-3.54,0-6.383-1.467-7.719-4.036a5.362,5.362,0,0,1,.458-5.992,4.118,4.118,0,0,1,5.353-.658,3.638,3.638,0,0,1,1.548,4.5,2.265,2.265,0,1,1-.623-2.167,2.92,2.92,0,0,0-1.335-1.678,3.346,3.346,0,0,0-4.356.489,4.625,4.625,0,0,0-.367,5.158c1.3,2.484,4.244,3.821,7.809,3.6l3.922-6.8.005.008,0-.008.331.575,3.593,6.224c3.589.213,6.521-1.115,7.812-3.6a4.661,4.661,0,0,0-.357-5.161,3.382,3.382,0,0,0-4.363-.489,2.971,2.971,0,0,0-1.339,1.7,2.258,2.258,0,1,1,1.579,3.867Zm0-3.746a1.488,1.488,0,1,0,1.492,1.483A1.49,1.49,0,0,0,521.511,1446.773Zm-99.983,12.684c2.2,1.345,3.781,2,4.825,2,.668,0,1.438-.23,1.438-2s-.77-2-1.438-2C425.309,1457.453,423.73,1458.111,421.527,1459.457Zm-19.308-2c-.677,0-1.442.23-1.442,2s.764,2,1.442,2c1.045,0,2.629-.658,4.826-2C404.849,1458.111,403.265,1457.453,402.22,1457.453Zm4.806-10.689a1.493,1.493,0,1,0,1.493,1.492A1.5,1.5,0,0,0,407.025,1446.764Zm0,22.4a1.491,1.491,0,1,0,1.493,1.49A1.492,1.492,0,0,0,407.025,1469.162Zm1.188-9.7,6.075,10.507,6.007-10.38-.2-.127.2-.125-6.007-10.39Zm13.335,9.7a1.509,1.509,0,0,0-1.336.81l.01.006c-.052.119-.1.236-.143.351a1.61,1.61,0,0,0-.035.328,1.494,1.494,0,1,0,2.987,0A1.49,1.49,0,0,0,421.548,1469.158Zm0-18.639a2.272,2.272,0,0,1-2.194-1.694l0-.006,0-.008a3.633,3.633,0,0,1,1.552-4.506,4.116,4.116,0,0,1,5.347.658,5.372,5.372,0,0,1,.468,5.982c-1.346,2.574-4.193,4.045-7.746,4.045l-.3,0,2.272,3.936c2.447-1.523,4.169-2.236,5.412-2.236,1.009,0,2.2.479,2.2,2.768s-1.194,2.762-2.2,2.762c-1.243,0-2.965-.7-5.412-2.229l-2.269,3.932c3.718-.1,6.668,1.392,8.044,4.039a5.379,5.379,0,0,1-.468,5.986,3.685,3.685,0,0,1-2.926,1.346,4.593,4.593,0,0,1-2.421-.689,3.626,3.626,0,0,1-1.556-4.492,2.263,2.263,0,1,1,.62,2.159,2.912,2.912,0,0,0,1.333,1.68,3.362,3.362,0,0,0,4.362-.489,4.617,4.617,0,0,0,.368-5.146c-1.29-2.49-4.232-3.838-7.809-3.612l-3.927,6.8,0-.009-.005.009-3.925-6.8c-3.638-.213-6.521,1.126-7.812,3.612a4.616,4.616,0,0,0,.373,5.146,3.346,3.346,0,0,0,4.345.495,2.932,2.932,0,0,0,1.357-1.711,2.255,2.255,0,1,1,.429-2.6l.008-.006a3.7,3.7,0,0,1-1.4,4.967,4.581,4.581,0,0,1-2.405.685,3.65,3.65,0,0,1-2.926-1.35,5.367,5.367,0,0,1-.469-5.982c1.386-2.647,4.332-4.139,8.042-4.039l-2.268-3.932c-2.452,1.525-4.183,2.229-5.417,2.229-1,0-2.212-.476-2.212-2.762s1.207-2.768,2.212-2.768c1.234,0,2.966.713,5.417,2.236l2.27-3.936-.313,0c-3.542,0-6.391-1.471-7.721-4.036a5.365,5.365,0,0,1,.459-5.992,4.1,4.1,0,0,1,5.341-.658,3.688,3.688,0,0,1,1.386,4.955l-.008,0a2.259,2.259,0,1,1-.428-2.6,2.925,2.925,0,0,0-1.348-1.7,3.357,3.357,0,0,0-4.356.489,4.636,4.636,0,0,0-.373,5.157c1.29,2.484,4.212,3.817,7.814,3.6l3.923-6.8.005.008,0-.008.33.575,3.6,6.226c3.6.249,6.519-1.122,7.819-3.614a4.637,4.637,0,0,0-.378-5.146,3.367,3.367,0,0,0-4.362-.493,2.946,2.946,0,0,0-1.329,1.682,2.258,2.258,0,1,1,1.58,3.882Zm0-3.756a1.505,1.505,0,0,0-1.5,1.492,1.42,1.42,0,0,0,.043.355c.04.111.085.222.135.333l-.006,0a1.513,1.513,0,0,0,1.331.8,1.493,1.493,0,0,0,0-2.986Zm80.854,33.5a1.509,1.509,0,0,0-1.054.433,1.492,1.492,0,0,0,0,2.116,1.438,1.438,0,0,0,1.044.427,1.52,1.52,0,0,0,1.066-.433,1.489,1.489,0,0,0-1.056-2.544ZM486.57,1496.1a1.414,1.414,0,0,0-1.045.433,1.481,1.481,0,0,0-.02,2.1,1.535,1.535,0,0,0,2.12,0,1.471,1.471,0,0,0,.277-.383l.091-.223h0a1.425,1.425,0,0,0,.07-.447,1.525,1.525,0,0,0-.438-1.047A1.464,1.464,0,0,0,486.57,1496.1Zm18.171,3.83a21.418,21.418,0,0,0,.912,2.99h0l.087.209h0l.044.1h0l.088.194h0l.044.094h0l.044.092h0l.088.175h0l.044.086h0l.044.08.046.078.046.077.046.073.047.071h0l.047.067.046.067.047.063.047.059.046.058h0l.047.058h0l.047.052.048.05.047.05.049.044.047.042.05.04.048.038.049.035.05.033.048.031.05.027.049.025.049.021.051.021.05.015.049.016.051.011.051.01.05,0,.052.006h.051a2.342,2.342,0,0,0,1.513-.844c.678-.679.947-1.283.8-1.793l-.015-.046-.016-.046-.019-.046-.02-.046-.023-.046-.026-.046-.026-.044-.03-.044-.032-.046-.034-.044-.036-.044-.037-.046-.041-.042-.041-.044-.046-.044-.046-.044-.05-.043-.049-.046-.055-.042-.055-.042-.058-.044-.058-.044-.062-.04-.064-.042-.067-.042-.067-.042-.069-.042h0l-.071-.042h0l-.073-.042h0l-.075-.042h0l-.077-.04h0l-.08-.042h0l-.082-.041h0l-.085-.042h0l-.086-.04h0l-.088-.04h0l-.09-.04h0l-.091-.041h0l-.092-.04h0l-.1-.038h0l-.1-.04h0l-.1-.04h0l-.1-.041h0l-.1-.038h0l-.1-.04h0l-.106-.038h0l-.109-.038h0l-.112-.038h0l-.231-.077h-.005l-.116-.038h0C505.974,1500.246,505.385,1500.092,504.741,1499.929Zm-.964-.788-.049-.23.216.05,3.1-11.6-11.729,3.136-3.149,11.746ZM489.585,1485.8a1.48,1.48,0,0,0-.319,1.241,2.285,2.285,0,0,0,1.138,1.183h0l.071.042h0l.072.04h0l.074.044h0l.076.04h0l.08.041h0l.081.042h0l.084.04h0l.085.042.091.041.091.042.093.039.1.04.1.04.1.04.1.038h0l.1.041.106.04.108.039.11.04.113.041.114.036.118.038.118.038.122.04.123.038.125.036.127.039.129.038.132.036h0l.133.038.136.037.137.038.14.035.142.038.145.036.145.037.149.036c-.847-3.5-1.82-5.271-2.915-5.271a2.315,2.315,0,0,0-1.515.842l-.031.031-.03.031-.031.032-.031.033-.028.031-.028.033h0l-.027.031-.026.031h0l-.025.03-.026.033-.024.031h0l-.025.029-.022.031h0l-.023.032h0l-.021.031h0l-.019.029h0l-.041.06Zm7.242,20.553a1.5,1.5,0,0,0-.443.067l-.009,0-.017.006-.2.081,0,0h0l-.016.008a1.588,1.588,0,0,0-.376.276,1.463,1.463,0,0,0-.429,1.045,1.506,1.506,0,0,0,.439,1.055,1.521,1.521,0,0,0,2.108,0,1.491,1.491,0,0,0,.44-1.061,1.508,1.508,0,0,0-1.494-1.483Zm15.837-12.085a2.252,2.252,0,0,1-2-3.3,3.65,3.65,0,0,1,4.346-2.213,4.123,4.123,0,0,1,3.31,4.247,5.387,5.387,0,0,1-3.907,4.567,6.9,6.9,0,0,1-2.045.309,9.167,9.167,0,0,1-6.493-3.13l-1.172,4.385c.81.19,1.534.385,2.173.592h0l.132.042h0l.131.046h0l.127.044.133.046.123.046h0l.24.09h0l.116.046h0l.114.048h0l.111.046h0l.109.048h0l.107.048h0l.1.046h0l.1.048h0l.1.05h0l.1.048h0l.095.05h0l.094.05.091.05h0l.089.05.086.048.084.053h0l.081.05.08.052.076.05h0l.075.052h0l.071.054h0l.07.053.067.052.064.054.063.056.06.054.058.056h0l.055.054.053.056.052.056.047.056h0l.047.058.042.057.042.056.04.058.037.059.035.058.034.059.03.06.028.061.026.057.025.062.022.062.019.061a2.6,2.6,0,0,1-.995,2.547,2.984,2.984,0,0,1-2.052,1.07l-.074,0-.074,0-.144-.015-.071-.014-.071-.017-.07-.015-.07-.023-.069-.023-.068-.025-.068-.031-.068-.033-.067-.037-.067-.036-.065-.04-.064-.046-.065-.046-.063-.05-.064-.052-.063-.055-.062-.058-.062-.061-.061-.065-.061-.069-.061-.071-.058-.073h0l-.059-.075-.061-.079-.057-.082h0l-.056-.089h0l-.056-.086h0l-.056-.092h0l-.055-.1h0l-.055-.1h0l-.055-.1h0l-.054-.1h0l-.052-.107h0l-.054-.109h0a18.778,18.778,0,0,1-1.3-3.991l-4.385,1.17c2.669,2.541,3.733,5.695,2.831,8.529a5.373,5.373,0,0,1-4.555,3.928c-.121.012-.239.018-.362.018a4.186,4.186,0,0,1-3.889-3.339,3.7,3.7,0,0,1,2.538-4.486l0,.011a2.294,2.294,0,0,1,2.3.539,2.211,2.211,0,0,1,.667,1.577,2.268,2.268,0,0,1-2.262,2.267,2.27,2.27,0,0,1-2.257-2.233,2.924,2.924,0,0,0-.25,2.142,3.422,3.422,0,0,0,3.145,2.754c.093,0,.194-.009.291-.019a4.631,4.631,0,0,0,3.9-3.389c.84-2.67-.278-5.668-2.98-8.065l-7.583,2.028v0l-.01,0,.172-.645,1.86-6.943c-2.392-2.706-5.4-3.8-8.061-2.975a4.658,4.658,0,0,0-3.395,3.919,3.354,3.354,0,0,0,2.728,3.412,2.9,2.9,0,0,0,2.179-.249,2.283,2.283,0,0,1-1.6-.658,2.26,2.26,0,0,1,.009-3.2,2.314,2.314,0,0,1,3.185.006,2.194,2.194,0,0,1,.658,1.592,2.263,2.263,0,0,1-.113.715l.005,0a3.685,3.685,0,0,1-3.545,2.645,4.418,4.418,0,0,1-.943-.108,4.115,4.115,0,0,1-3.318-4.24,5.4,5.4,0,0,1,3.924-4.569c2.8-.892,5.973.155,8.526,2.829l1.176-4.39-.175-.04-.171-.04-.169-.042-.168-.042-.163-.042-.16-.04-.159-.042v0l-.156-.042-.154-.042h0l-.15-.042v0l-.148-.042-.144-.042v0l-.142-.042-.14-.044-.135-.044-.134-.044h0l-.132-.044v0l-.129-.042v0l-.127-.044-.123-.046v0l-.121-.044h0l-.118-.046v0l-.116-.044v0l-.114-.044v0l-.112-.046v0c-.145-.061-.284-.123-.417-.188v0c-.133-.063-.258-.129-.377-.194v0l-.175-.1v0l-.084-.048v0a4.341,4.341,0,0,1-.7-.524v0l-.056-.054v0l-.055-.052v0a2.4,2.4,0,0,1-.239-.28v0l-.043-.056v0l-.038-.057h0l-.036-.058v0l-.035-.057v0l-.032-.058v0l-.029-.058v0l-.03-.058v0l-.026-.06v0l-.022-.059-.022-.063-.02-.062-.01-.038-.01-.038-.008-.038h0l-.006-.037h0l-.014-.077h0a2.042,2.042,0,0,1,.252-1.3h0l.02-.04h0l.044-.081h0l.049-.081h0l.025-.04h0l.081-.123h0l.027-.04h0l.028-.042h0l.031-.04.031-.042.032-.04h0l.031-.042h0l.033-.04.034-.042h0l.035-.04.037-.042.038-.042.038-.042.038-.04.04-.042.041-.04.041-.042a2.964,2.964,0,0,1,2.049-1.065c2.011,0,3.078,3.356,3.715,6.074l4.384-1.176c-2.667-2.539-3.722-5.687-2.836-8.524a5.4,5.4,0,0,1,4.561-3.928,4.136,4.136,0,0,1,4.261,3.328,3.669,3.669,0,0,1-2.248,4.354l-.049.023-.02.007,0,0a2.3,2.3,0,0,1-.945.2,2.232,2.232,0,0,1-1.589-.652,2.267,2.267,0,0,1,.01-3.2,2.313,2.313,0,0,1,3.186,0,2.245,2.245,0,0,1,.657,1.582,2.933,2.933,0,0,0,.254-2.142,3.338,3.338,0,0,0-3.429-2.741,4.645,4.645,0,0,0-3.913,3.393c-.84,2.666.272,5.668,2.979,8.061l7.589-2.033,0,0,.013,0-.178.637-1.861,6.968c2.4,2.691,5.4,3.813,8.073,2.963a4.642,4.642,0,0,0,3.385-3.909,3.353,3.353,0,0,0-2.727-3.428,2.913,2.913,0,0,0-2.184.278,2.207,2.207,0,0,1,2.26,2.233,2.248,2.248,0,0,1-2.249,2.254Zm0-3.746a1.482,1.482,0,0,0-1.327.809l0,.012-.008.015-.08.2h0a1.5,1.5,0,0,0,.368,1.51,1.532,1.532,0,0,0,2.111,0,1.48,1.48,0,0,0,.428-1.055,1.453,1.453,0,0,0-.428-1.059A1.5,1.5,0,0,0,512.664,1490.525Zm-80.954-80.956a1.523,1.523,0,0,0-1.056.439,1.5,1.5,0,0,0,0,2.1,1.521,1.521,0,0,0,1.593.342l.034-.014a1.518,1.518,0,0,0,.494-.322,1.5,1.5,0,0,0-.011-2.115A1.527,1.527,0,0,0,431.71,1409.569Zm-15.823,15.837a1.5,1.5,0,0,0-1.493,1.488,1.489,1.489,0,0,0,.439,1.059,1.549,1.549,0,0,0,2.109,0,1.589,1.589,0,0,0,.243-.322c.042-.09.077-.186.114-.284l.005,0a1.494,1.494,0,0,0-.362-1.506A1.509,1.509,0,0,0,415.887,1425.406Zm19.76,8.163c.062.092.123.179.186.257h0a1.622,1.622,0,0,0,.985.673l.041.006h.01l.042.006h.009l.041,0h.031l.011,0h.031l.013,0h.007l.013,0h.029l.013,0h.007l.015,0h.007l.014-.006h.008l.015,0h.007l.016,0h.005l.016-.006.049-.012.017-.006h0l.018-.006h0l.019-.008h0l.017-.008.028-.008.017-.007h0l.02-.008h0l.065-.029h0l.02-.011h0l.02-.01h0l.021-.011h0l.021-.011h0l.022-.011h0l.02-.013h0l.02-.012h0l.022-.013.027-.014.022-.013a3.8,3.8,0,0,0,.747-.6,2.421,2.421,0,0,0,.847-1.475v-.079l0-.023v-.029l0-.023v0l0-.021v0l0-.021v0l0-.021v0l0-.021v-.006l-.006-.019v0l-.005-.019v-.006l-.007-.019v0l-.015-.042-.036-.092v0a1.434,1.434,0,0,0-.192-.312h0l-.114-.132v0l-.042-.041v0l-.092-.086v0l-.049-.04v0l-.052-.043v0l-.053-.042h0l-.055-.042v0l-.058-.04v0l-.06-.042h0l-.062-.04v0l-.063-.042v0l-.067-.041v0l-.067-.04h0l-.07-.042-.073-.042-.073-.041v0l-.076-.04v0l-.08-.04-.08-.04v0l-.082-.04-.085-.04v0l-.088-.04-.09-.04-.091-.04-.095-.04-.1-.039v0l-.1-.04-.1-.041-.1-.038-.1-.04-.108-.038-.108-.038-.109-.04-.112-.038-.116-.04-.115-.036-.119-.038-.122-.038-.123-.04-.125-.037-.127-.036-.128-.038-.133-.038-.134-.037-.135-.036-.138-.036-.139-.038-.142-.037-.144-.034-.146-.037-.148-.036.038.163.04.161.04.157.04.153.04.156.041.15.041.148.041.144.04.144.042.138.042.14.042.134.041.132.042.13.043.127h0l.042.124.044.123.043.119.043.117.043.115.044.111h0l.044.109.043.107.045.1.044.1h0l.044.1.045.1.043.094.046.09h0l.044.09h0l.045.087h0l.043.084h0l.044.08h0l.044.077h0l.043.079h0l.044.073h0l.044.071Zm-11.016-13.758-3.143,11.744,11.6-3.1-.051-.23.228.046,3.105-11.6Zm-5.358-2.56a12.923,12.923,0,0,0,4.522,1.732,20.459,20.459,0,0,0-1-3.2h0c-.088-.205-.178-.4-.267-.572h0l-.043-.088h0l-.045-.082h0l-.043-.081h0l-.043-.081h0l-.044-.077h0l-.044-.073h0l-.044-.071h0l-.046-.067-.046-.067-.047-.063-.046-.062-.047-.057-.048-.055-.047-.054-.048-.05-.047-.05-.049-.044h0l-.047-.042-.049-.04-.049-.039-.049-.035-.049-.032-.05-.03-.049-.027-.049-.025-.049-.021-.05-.021-.05-.017-.051-.011-.049-.014-.051-.009-.051,0-.051-.006-.051,0a2.329,2.329,0,0,0-1.513.848c-.688.683-.953,1.289-.805,1.793l.015.046.017.046.019.046.022.044.023.048.024.044.028.046.03.044.064.09h0l.035.046h0l.036.044h0l.038.044h0l.042.042.043.046h0l.046.044h0l.1.089h0l.106.084Zm6.872,18.418a1.5,1.5,0,0,0-1.055.434,1.495,1.495,0,0,0,0,2.113,1.493,1.493,0,0,0,2.109-2.113A1.509,1.509,0,0,0,426.144,1435.67Zm15.829-12.087a2.261,2.261,0,0,1-1.984-3.333,3.634,3.634,0,0,1,4.332-2.171,4.113,4.113,0,0,1,3.313,4.241,5.408,5.408,0,0,1-3.919,4.573,6.769,6.769,0,0,1-2.034.3,9.162,9.162,0,0,1-6.5-3.138l-1.177,4.389.175.042.174.04.169.042.166.04.165.042.16.042.159.042.156.044.153.04.15.044.148.044.144.042.143.046.14.042.136.044h0l.133.044.131.044h0l.128.046.125.046.124.046.121.044.118.048.116.046.114.046.109.048h0l.106.044h0l.106.048.1.048h0l.1.05.1.046h0l.094.052h0l.093.048.089.048h0l.088.052h0l.083.052h0l.082.05h0l.079.05h0l.153.1h0a2.773,2.773,0,0,1,1.159,1.423,1.861,1.861,0,0,1-.049,1.162h0l-.013.04h0a3.822,3.822,0,0,1-.929,1.347,3.565,3.565,0,0,1-1.564,1.005l-.026.006-.036.01-.026,0h-.005l-.032.007-.025.006H437.3l-.023.006h-.007l-.024,0h-.008l-.022.006h-.007l-.024,0h-.008l-.022,0h-.008l-.023,0h-.008l-.022,0h-.04l-.022,0h-.009l-.021,0h-.041l-.063,0-.03,0-.044,0-.047,0-.025,0-.067-.01h-.005c-1.146-.174-2.063-1.423-2.857-3.93l-.007-.027-.04-.131v0l-.04-.129-.01-.033-.031-.1-.018-.063-.02-.067-.03-.1-.007-.031-.037-.132,0-.008-.032-.123-.015-.054-.022-.08-.026-.1-.007-.033-.035-.13,0-.019-.028-.115-.018-.069-.016-.059-.032-.128v0l-.032-.131-.014-.062-.016-.067-.031-.127-4.386,1.176c2.671,2.543,3.734,5.693,2.834,8.531a5.4,5.4,0,0,1-4.557,3.919c-.133.009-.25.015-.371.015a4.178,4.178,0,0,1-3.877-3.345,3.682,3.682,0,0,1,2.527-4.473l.006.017a2.293,2.293,0,0,1,2.312.529,2.256,2.256,0,0,1-1.6,3.848,2.275,2.275,0,0,1-2.248-2.234,2.94,2.94,0,0,0-.248,2.142,3.346,3.346,0,0,0,3.423,2.729,4.649,4.649,0,0,0,3.915-3.376c.838-2.672-.279-5.673-2.986-8.071l-7.59,2.031.174-.64,1.857-6.957c-2.391-2.7-5.385-3.815-8.068-2.965a4.627,4.627,0,0,0-3.384,3.909,3.361,3.361,0,0,0,2.736,3.422,2.9,2.9,0,0,0,2.167-.257,2.226,2.226,0,0,1-1.591-.654,2.248,2.248,0,0,1,0-3.2,2.325,2.325,0,0,1,3.184,0,2.27,2.27,0,0,1,.54,2.319l-.009.027-.083.2-.016.036-.005.014a3.632,3.632,0,0,1-3.423,2.371,4.213,4.213,0,0,1-.942-.113,4.113,4.113,0,0,1-3.317-4.244,5.365,5.365,0,0,1,3.912-4.561c2.862-.905,6,.159,8.533,2.818l1.169-4.38q-1.21-.285-2.169-.593h0l-.131-.046h0l-.129-.042h0l-.127-.044-.13-.046h0l-.123-.046h0l-.121-.046h0l-.118-.044h0l-.116-.048h0l-.112-.046h0l-.111-.046h0l-.109-.048h0l-.106-.048h0l-.1-.048h0l-.1-.048h0l-.1-.048h0l-.1-.048h0l-.094-.048h0l-.094-.052-.091-.05h0l-.088-.048-.087-.052-.084-.05h0l-.079-.05h0l-.077-.052h0l-.076-.054-.073-.052h0l-.072-.052-.069-.054-.067-.052-.066-.056-.063-.052-.061-.056-.058-.053-.056-.054-.054-.057-.052-.055-.049-.056-.046-.057-.045-.058-.042-.056-.04-.06-.037-.057-.036-.06-.034-.057-.03-.06-.029-.059-.026-.062-.023-.06-.022-.061-.02-.062a2.65,2.65,0,0,1,1.011-2.559l.032-.035.033-.031v0l.032-.031,0,0,.031-.031h0l.034-.029v0l.031-.029,0,0,.03-.027,0,0,.03-.027,0,0,.031-.023,0,0,.028-.025,0,0,.03-.023.1-.082,0,0a2.851,2.851,0,0,1,1.209-.612h0l.029-.006h0l.027-.006h0l.09-.013h0l.092-.008h0l.031,0h.031l.031,0h.031l.075,0,.072,0,.072.008.073.007.07.013.071.017.07.015.069.023.07.023.068.026.068.029.067.033.066.036.067.036.066.041.064.046.066.046.062.05.065.052.062.058h0l.061.056h0l.061.063h0l.061.063.061.069.061.069.058.075h0l.058.077h0l.058.078h0l.056.083h0l.058.086.056.087h0l.056.094h0l.055.094h0l.055.1h0l.055.1h0l.055.1h0l.163.332h0a19.569,19.569,0,0,1,1.249,3.879l4.378-1.168c-2.663-2.547-3.723-5.693-2.828-8.529a5.389,5.389,0,0,1,4.561-3.925,4.121,4.121,0,0,1,4.25,3.332,3.642,3.642,0,0,1-2.19,4.325,2.263,2.263,0,0,1-1.066.267,2.236,2.236,0,0,1-1.591-.667,2.264,2.264,0,0,1,0-3.19,2.249,2.249,0,0,1,3.848,1.586,2.936,2.936,0,0,0,.258-2.148,3.425,3.425,0,0,0-3.153-2.754c-.087,0-.19,0-.291.01a4.643,4.643,0,0,0-3.9,3.393c-.84,2.678.272,5.678,2.98,8.065l7.588-2.026-.168.637-1.863,6.955c2.4,2.7,5.394,3.836,8.065,2.971a4.647,4.647,0,0,0,3.395-3.913,3.356,3.356,0,0,0-2.727-3.42,2.946,2.946,0,0,0-2.181.272,2.243,2.243,0,0,1,1.6.641,2.208,2.208,0,0,1,.657,1.594,2.258,2.258,0,0,1-2.256,2.252Zm0-3.749a1.463,1.463,0,0,0-1.056.443,1.54,1.54,0,0,0-.241.314l-.12.286h0a1.4,1.4,0,0,0-.062.449,1.427,1.427,0,0,0,.438,1.049,1.505,1.505,0,0,0,2.09.008,1.458,1.458,0,0,0,.448-1.057,1.486,1.486,0,0,0-1.492-1.492ZM424.63,1499.1l11.737,3.136-3.1-11.6-.23.05.051-.234-11.6-3.1Zm12.332-14.7c-1.09,0-2.069,1.772-2.914,5.271,3.185-.771,4.947-1.657,5.233-2.631.153-.51-.128-1.114-.807-1.805A2.32,2.32,0,0,0,436.963,1484.4Zm5.01,11.694a1.442,1.442,0,0,0-1.056.438,1.416,1.416,0,0,0-.428,1.047,1.5,1.5,0,0,0,.066.447h0l.107.257.007.015a1.416,1.416,0,0,0,.257.334,1.524,1.524,0,0,0,2.111,0,1.469,1.469,0,0,0,.428-1.043,1.489,1.489,0,0,0-.428-1.057A1.469,1.469,0,0,0,441.973,1496.1Zm-15.839-15.837a1.462,1.462,0,0,0-1.045.433,1.5,1.5,0,0,0,0,2.116,1.448,1.448,0,0,0,.512.332l.009,0a1.447,1.447,0,0,0,.524.092,1.507,1.507,0,0,0,1.065-.433,1.491,1.491,0,0,0-.01-2.116A1.511,1.511,0,0,0,426.134,1480.262Zm-3.293,22.765a21.863,21.863,0,0,0,.954-3.1c-.6.142-1.141.29-1.635.439h0l-.119.038h0l-.118.038h0l-.114.039h0l-.113.038h0l-.109.038h0l-.109.038h0l-.107.038h0l-.106.04h0l-.1.038h0l-.1.041h0l-.1.04h0l-.1.038h0l-.1.04h0l-.093.04h0l-.091.041h0l-.09.04h0l-.087.04h0l-.085.04h0l-.085.042h0l-.082.041h0l-.08.042-.078.04h0l-.077.042h0l-.072.04h0l-.071.042h0l-.07.042-.068.042-.067.042-.063.042-.061.042h0l-.059.044h0l-.057.042-.055.042h0l-.052.044-.051.042h0l-.048.042-.046.044h0l-.043.044-.044.044-.04.044-.038.044-.036.046-.032.042-.032.046-.03.044-.028.044-.024.046-.023.046-.022.044-.019.046-.017.046-.015.046-.013.048,0,.025-.007.025,0,.025,0,.023,0,.025,0,.027v.023l0,.027v.077l0,.027v.025l0,.027,0,.025,0,.027h0l0,.027,0,.027h0l.005.025v0l.006.025v0l.007.025.008.027v0l.007.027h0l.009.026h0l.01.027v0l.008.027h0l.012.027h0l.01.029v0l.011.025v0l.012.029h0l.013.026h0l.013.029v0l.014.025v0l.015.027h0l.014.027v0l.017.029h0l.016.027v0l.019.027v0l.016.029.019.031h0l.019.027v0l.039.057v0l.044.058v0l.022.029h0l.022.031h0l.025.031h0l.023.029v0l.025.029v0l.025.029v0l.025.029h0l.027.031v0l.026.028v0l.028.031h0l.029.031h0l.029.031v0l.029.031.03.031.031.033.031.033.033.031a2.362,2.362,0,0,0,1.5.844h.052l.051-.006.05,0,.051-.01.051-.011.051-.016.05-.015.051-.021.049-.021.051-.025.048-.027.049-.031h0l.049-.033.049-.035.047-.038.049-.04.049-.042.049-.044.049-.05.048-.05.048-.052.047-.058.047-.058.046-.059h0l.046-.063.046-.067h0l.046-.067.047-.071h0l.044-.073h0l.045-.077h0l.045-.078h0l.044-.08h0l.045-.086h0l.089-.175h0l.043-.092h0l.044-.094h0l.044-.1h0l.044-.1h0l.086-.205Zm-6.964-12.5a1.456,1.456,0,0,0-1.055.437,1.494,1.494,0,0,0,0,2.11,1.549,1.549,0,0,0,2.12,0,1.511,1.511,0,0,0,.363-1.511l-.007,0c-.042-.111-.088-.22-.138-.324a1.472,1.472,0,0,0-.219-.286A1.519,1.519,0,0,0,415.877,1490.525ZM431.71,1510.1a2.253,2.253,0,0,1-1.591-3.844,2.324,2.324,0,0,1,2.3-.535l.005-.015a3.71,3.71,0,0,1,2.539,4.486,4.184,4.184,0,0,1-3.892,3.339c-.118,0-.241-.006-.358-.018a5.4,5.4,0,0,1-4.561-3.922c-.895-2.841.165-6,2.832-8.537l-4.382-1.168c-.943,4-2.034,5.886-3.5,6.057l-.035,0-.038,0-.054,0-.019,0-.074,0a3,3,0,0,1-2.037-1.07,2.627,2.627,0,0,1-1.011-2.547l.02-.061.022-.062.023-.062.026-.059.029-.059.031-.061.034-.057.036-.06.037-.057.04-.058.042-.058.045-.057.046-.056.049-.056.052-.058.054-.055.056-.056.058-.053.061-.056.063-.052.066-.054.067-.054.069-.053.072-.054h0l.073-.052.076-.052h0l.077-.05h0l.079-.052h0l.084-.052.087-.05.088-.048h0l.091-.052.094-.05h0l.094-.048h0l.1-.048h0l.1-.048h0l.1-.048h0l.1-.048h0l.106-.048h0l.109-.048h0l.111-.046h0l.112-.046h0l.116-.046h0l.118-.046h0l.121-.046h0l.123-.046h0l.126-.044h0l.127-.044h0l.129-.046h0l.131-.042h0c.637-.2,1.362-.395,2.169-.592l-1.169-4.385a9.145,9.145,0,0,1-6.5,3.136,6.887,6.887,0,0,1-2.038-.314,5.381,5.381,0,0,1-3.912-4.567,4.122,4.122,0,0,1,3.317-4.247,3.645,3.645,0,0,1,4.357,2.24,2.266,2.266,0,0,1-.418,2.61,2.269,2.269,0,0,1-3.194.006,2.261,2.261,0,0,1,0-3.2,2.234,2.234,0,0,1,1.632-.636,2.88,2.88,0,0,0-2.209-.277,3.352,3.352,0,0,0-2.726,3.428,4.628,4.628,0,0,0,3.384,3.909c2.673.852,5.677-.261,8.068-2.963l-2.03-7.6,7.59,2.033c2.707-2.394,3.824-5.4,2.986-8.065a4.654,4.654,0,0,0-3.915-3.389,2.873,2.873,0,0,0-.29-.015,3.439,3.439,0,0,0-3.144,2.75,2.964,2.964,0,0,0,.259,2.15,2.248,2.248,0,0,1,.668-1.584,2.319,2.319,0,0,1,3.184,0,2.261,2.261,0,0,1-2.634,3.606l-.013,0a3.643,3.643,0,0,1-2.2-4.341,4.182,4.182,0,0,1,3.877-3.341,3.3,3.3,0,0,1,.362.013,5.4,5.4,0,0,1,4.566,3.924c.89,2.833-.164,5.986-2.834,8.528l4.386,1.176c.983-4.195,2.141-6.074,3.71-6.074a3.022,3.022,0,0,1,2.054,1.065,2.588,2.588,0,0,1,.994,2.553c-.387,1.329-2.237,2.334-6,3.209l1.177,4.394c2.543-2.664,5.685-3.727,8.541-2.833a5.393,5.393,0,0,1,3.908,4.559,4.134,4.134,0,0,1-3.322,4.254,4.314,4.314,0,0,1-.937.107,3.614,3.614,0,0,1-3.386-2.3v0l-.006-.01a2.22,2.22,0,0,1-.264-1.053,2.245,2.245,0,0,1,.658-1.6,2.333,2.333,0,0,1,3.2,0,2.256,2.256,0,0,1-1.574,3.853,2.919,2.919,0,0,0,2.144.261,3.382,3.382,0,0,0,2.738-3.445,4.642,4.642,0,0,0-3.395-3.9c-2.661-.842-5.667.273-8.065,2.977l2.031,7.586-7.591-2.028c-2.7,2.4-3.817,5.394-2.977,8.071a4.639,4.639,0,0,0,3.909,3.383,3.382,3.382,0,0,0,3.423-2.735,2.913,2.913,0,0,0-.249-2.148,2.254,2.254,0,0,1-2.257,2.238Zm.01-3.74a1.529,1.529,0,0,0-1.066.438,1.5,1.5,0,0,0,0,2.1,1.527,1.527,0,0,0,2.11,0,1.5,1.5,0,0,0,.438-1.059,1.444,1.444,0,0,0-.427-1.045A1.509,1.509,0,0,0,431.72,1506.362Zm62.769-77.123c-3.185.765-4.943,1.651-5.223,2.626-.148.514.116,1.12.793,1.8a2.412,2.412,0,0,0,1.515.846C492.669,1434.513,493.642,1432.741,494.489,1429.239Zm13.168-15.515h-.051l-.052,0-.05.007-.051.008-.051.011-.049.015-.05.017-.051.017-.049.023-.049.025-.05.027-.048.031-.05.031-.049.036-.048.036-.05.04-.047.042-.049.046-.047.048-.048.052-.047.052h0l-.047.057h0l-.046.056-.047.061-.047.063-.046.065v0l-.047.067h0l-.047.071-.046.073-.046.077h0l-.046.079v0l-.044.078,0,0-.044.083,0,0-.088.172v0l-.044.09v0l-.044.092v0l-.044.094-.045.1v0l-.044.1v0l-.087.207v0l-.086.219,0,0-.041.111,0,0-.04.113,0,0a25.1,25.1,0,0,0-.737,2.533,20.236,20.236,0,0,0,3.264-1.022l0,0,.09-.038,0,0,.088-.04h0l.172-.081v0l.082-.041h0l.08-.04v0l.077-.04v0l.075-.04h0l.073-.042h0l.071-.042h0l.069-.042.067-.042.067-.043.064-.042v0l.062-.042.058-.042.058-.044.055-.042h0l.055-.042v0l.049-.044.05-.042v0l.046-.042h0l.046-.046h0l.041-.042h0l.041-.044v0l.037-.042v0l.036-.044h0l.034-.044v0l.032-.044h0l.03-.044v0l.026-.044.026-.044v0l.023-.046.02-.044h0l.019-.046.016-.046.015-.046c.147-.5-.122-1.111-.8-1.793A2.337,2.337,0,0,0,507.656,1413.724Zm5.007,11.683a1.493,1.493,0,0,0-1.054.439,1.462,1.462,0,0,0-.437,1.049,1.516,1.516,0,0,0,.069.455l0,0,.08.205.008.019,0,.006,0,.01a1.429,1.429,0,0,0,.269.366,1.547,1.547,0,0,0,2.111,0,1.493,1.493,0,0,0-1.056-2.547Zm-15.837-15.837a1.49,1.49,0,0,0-1.054.439,1.532,1.532,0,0,0-.439,1.065,1.459,1.459,0,0,0,.89,1.35l.007.006.028.01.033.012a1.491,1.491,0,1,0,.536-2.881Zm10.233,21.986-3.114-11.6-.229.058.051-.234-9.742-2.618-1.845-.495,3.138,11.748Zm-20.49-11.723a1.478,1.478,0,0,0-1.494,1.492,1.482,1.482,0,0,0,.429,1.057,1.505,1.505,0,0,0,1.065.437,1.454,1.454,0,0,0,1.054-.437,1.518,1.518,0,0,0,.438-1.057,1.429,1.429,0,0,0-.07-.449h0l-.006-.017-.005-.018-.046-.117,0,0-.005-.015-.006-.01,0-.006-.007-.018a1.589,1.589,0,0,0-.285-.4A1.468,1.468,0,0,0,486.57,1419.833Zm15.831,19.583a2.249,2.249,0,0,1-1.589-3.848,2.311,2.311,0,0,1,2.3-.529l.005-.017a3.694,3.694,0,0,1,2.528,4.487,4.174,4.174,0,0,1-3.873,3.331c-.118,0-.25-.006-.378-.015a5.373,5.373,0,0,1-4.551-3.913c-.9-2.84.159-5.994,2.829-8.539l-4.388-1.174c-.99,4.2-2.131,6.075-3.715,6.075a3.028,3.028,0,0,1-2.049-1.067,2.613,2.613,0,0,1-.994-2.553c.387-1.333,2.237-2.332,6-3.209l-1.173-4.39a9.146,9.146,0,0,1-6.5,3.14,6.8,6.8,0,0,1-2.029-.3,5.4,5.4,0,0,1-3.924-4.567,4.12,4.12,0,0,1,3.318-4.246,3.717,3.717,0,0,1,4.488,2.528l-.005,0a2.3,2.3,0,0,1,.113.716,2.252,2.252,0,0,1-2.246,2.257,2.243,2.243,0,1,1,0-4.486,2.972,2.972,0,0,0-2.175-.272,3.376,3.376,0,0,0-2.738,3.429,4.642,4.642,0,0,0,3.395,3.9c2.655.825,5.67-.269,8.064-2.981l-2.026-7.582,7.579,2.026c2.705-2.388,3.824-5.39,2.983-8.065a4.641,4.641,0,0,0-3.913-3.393c-.087-.006-.188-.01-.281-.01a3.418,3.418,0,0,0-3.145,2.754,2.908,2.908,0,0,0,.25,2.131,2.275,2.275,0,0,1,.667-1.569,2.309,2.309,0,0,1,3.185,0,2.269,2.269,0,0,1,0,3.194,2.245,2.245,0,0,1-2.665.4,3.652,3.652,0,0,1-2.182-4.331,4.187,4.187,0,0,1,3.889-3.343c.123,0,.24.01.362.021a5.369,5.369,0,0,1,4.555,3.93c.9,2.831-.16,5.98-2.827,8.524l4.384,1.17a24.227,24.227,0,0,1,.926-3.126l0-.006.049-.128,0-.006.05-.123,0-.006.05-.121,0-.006.05-.117,0,0,.05-.117,0,0,.051-.113,0,0,.052-.107v0l.054-.108v0l.052-.1,0-.006.054-.1v0l.055-.1,0,0,.055-.094v0l.055-.092v0l.056-.088,0-.006.056-.084v0l.056-.082,0,0,.118-.159v0l.059-.077h0l.058-.073v0l.061-.069h0l.123-.13v0l.062-.061v0l.062-.056h0l.063-.056v0l.064-.052.063-.05h0l.065-.046.064-.044v0l.065-.039v0l.067-.036.067-.036h0l.068-.033.068-.029.068-.026.069-.023.07-.023.07-.015.071-.017.071-.013.072-.007.072-.008.074,0,.074,0a3.037,3.037,0,0,1,2.052,1.066,2.615,2.615,0,0,1,.995,2.553l-.019.061-.022.062h0l-.078.18v0c-.573,1.184-2.419,2.1-5.883,2.91l1.174,4.383c2.549-2.666,5.7-3.727,8.533-2.826a5.38,5.38,0,0,1,3.918,4.561,4.3,4.3,0,0,1-4.272,4.358,3.617,3.617,0,0,1-3.4-2.33l-.014-.023a2.281,2.281,0,0,1-.242-1.02,2.248,2.248,0,0,1,.667-1.6,2.321,2.321,0,0,1,3.186,0,2.257,2.257,0,0,1-1.56,3.853,2.954,2.954,0,0,0,2.141.257,3.362,3.362,0,0,0,2.737-3.422,4.654,4.654,0,0,0-3.394-3.909c-2.682-.85-5.673.261-8.068,2.967l2.035,7.6-7.6-2.033c-2.708,2.4-3.82,5.411-2.969,8.076a4.606,4.606,0,0,0,3.9,3.372,3.387,3.387,0,0,0,3.429-2.725,2.912,2.912,0,0,0-.254-2.152,2.218,2.218,0,0,1-.657,1.582A2.258,2.258,0,0,1,502.4,1439.416Zm0-3.74a1.488,1.488,0,0,0-1.054,2.541,1.537,1.537,0,0,0,2.111,0,1.476,1.476,0,0,0,.428-1.061,1.447,1.447,0,0,0-.428-1.053,1.419,1.419,0,0,0-.415-.29l-.018-.008-.016-.006-.006,0-.01,0-.017-.008-.016-.006-.018-.008-.015,0h0A1.487,1.487,0,0,0,502.4,1435.676Zm-38.124-39.707q-1.455,0-1.845.7l-.022.042h0l-.02.042h0l-.017.046,0,0-.016.046h0l-.015.048,0,0c-.287.965.363,2.75,1.941,5.334,1.594-2.632,2.238-4.44,1.908-5.39h0l-.017-.046,0,0-.017-.044-.021-.044h0l-.022-.044-.011-.021h0l-.011-.021h0l-.011-.019h0l-.042-.061h0a1.2,1.2,0,0,0-.485-.363h0l-.023-.012h0l-.029-.013-.023-.01h0l-.026-.012h0l-.026-.009h0l-.027-.01h0l-.027-.009h0l-.028-.01h0l-.029-.01h0l-.03-.007h0l-.028-.01h0l-.031-.006h0l-.031-.01h0l-.031-.008h0l-.033,0h0l-.034-.01h0l-.033,0h0l-.034-.008h0l-.034,0h0l-.037-.006h0l-.036-.006h0l-.038,0-.038,0h0l-.038-.006h0l-.038,0-.04,0h0l-.04,0h0l-.04,0-.042,0-.042,0h-.041l-.044,0-.043,0Zm0,0" transform="translate(-341.987 -1395.2)" fill="#fff"/>
      <g id="Сгруппировать_9750" data-name="Сгруппировать 9750" transform="translate(103.289 47.992)">
        <g id="Сгруппировать_3661" data-name="Сгруппировать 3661" transform="translate(0 0)">
          <path id="Контур_5385" data-name="Контур 5385" d="M29.061-142.9,18.272-155.909v21.874H13.71v-27.332L10-165.844h6.012l13.007,15.6,13.175-15.6h6.015l-3.71,4.477v27.332H39.934v-21.874Zm0,0" transform="translate(-10 165.844)" fill="#fff"/>
        </g>
      </g>
    </g>
  </g>
</svg>
