<svg id="Layer_1" data-name="Layer 1" xmlns="http://www.w3.org/2000/svg" viewBox="0 0 1080 1080"><title>KASSA24_іcons_</title><path d="M759,365.29H704.16c-89.53,0-164,65-179.06,150.31h-.4A122.76,122.76,0,0,0,402.07,638.22v83.59c0,80.17,61.4,145.41,136.87,145.41S675.81,802,675.81,721.81V638.22a15.09,15.09,0,0,0-.88-4.35,122.6,122.6,0,0,0-118-118c14.52-68,75-119.14,147.25-119.14H759c83,0,150.62,67.57,150.62,150.62V758.83c0,83-67.57,150.62-150.62,150.62H336.23c-83.06,0-150.63-67.57-150.63-150.62V374.49a15.7,15.7,0,0,0-31.39,0V758.83c0,100.36,81.66,182,182,182H759c100.36,0,182-81.65,182-182V547.3C941,446.94,859.34,365.29,759,365.29ZM522.16,547.08c0,.08,0,.15,0,.22a15.09,15.09,0,0,0,.77,3.8v71.43H434.81A91.38,91.38,0,0,1,522.16,547.08ZM644.42,721.81c0,62.87-47.32,114-105.48,114s-105.48-51.15-105.48-114V653.92h211Zm-2-99.28H554.31V547A91.43,91.43,0,0,1,642.42,622.53Z"/><path d="M211.53,331.87h14.7a72.13,72.13,0,0,0,56.83-28,72.09,72.09,0,0,0,56.82,28h14.7a72.13,72.13,0,0,0,56.83-28,72.09,72.09,0,0,0,56.81,28h14.71a72.11,72.11,0,0,0,56.82-28,72.12,72.12,0,0,0,56.82,28h14.71a72.11,72.11,0,0,0,56.82-28,72.12,72.12,0,0,0,56.82,28h14.71a72.11,72.11,0,0,0,56.82-28,72.12,72.12,0,0,0,56.82,28H868a72.61,72.61,0,0,0,72.52-72.52V154.85a15.7,15.7,0,0,0-15.7-15.69H154.71A15.7,15.7,0,0,0,139,154.85v104.5A72.61,72.61,0,0,0,211.53,331.87Zm697.58-72.52A41.18,41.18,0,0,1,868,300.48H853.27a41.17,41.17,0,0,1-41.12-41.13v-88.8h97Zm-128.35,0a41.18,41.18,0,0,1-41.13,41.13H724.92a41.17,41.17,0,0,1-41.12-41.13v-88.8h97Zm-128.35,0a41.18,41.18,0,0,1-41.13,41.13H596.57a41.17,41.17,0,0,1-41.12-41.13v-88.8h97Zm-128.35,0a41.18,41.18,0,0,1-41.13,41.13H468.22a41.17,41.17,0,0,1-41.12-41.13v-88.8h97Zm-128.35,0a41.18,41.18,0,0,1-41.13,41.13h-14.7a41.18,41.18,0,0,1-41.13-41.13v-88.8h97ZM170.4,170.55h97v88.8a41.18,41.18,0,0,1-41.13,41.13h-14.7a41.18,41.18,0,0,1-41.13-41.13Z"/></svg>