<svg id="Layer_1" data-name="Layer 1" xmlns="http://www.w3.org/2000/svg" viewBox="0 0 1080 1080"><title>KASSA24_іcons_</title><path d="M258.52,770.69a56.7,56.7,0,1,0,56.7,56.7A56.77,56.77,0,0,0,258.52,770.69Zm0,82a25.31,25.31,0,1,1,25.31-25.31A25.35,25.35,0,0,1,258.52,852.7Z"/><path d="M771.09,557.23a125.93,125.93,0,0,0,8.43-45.07V460.35a71.22,71.22,0,0,0,0-139V276.87c4-10.37,13.64-40.88-.21-66.33-6.19-11.38-19.67-25.88-48.75-30.41-17.24-2.67-33.52-4.62-48.62-6.42-39.54-4.71-70.79-8.43-84.6-21.5-18.41-17.41-57.57-14.47-80.58,6C502.43,171,475.4,208.09,526,278.75v42.16a71,71,0,0,0-39.27,23c8.24-54,8.94-106.36-2.88-152.17a15.7,15.7,0,0,0-29.81-1.82L367.84,409.64l-86.2-219.73a15.7,15.7,0,0,0-29.81,1.82c-22.7,88-2.8,210.25,59,363.29L247.6,716.12A111.8,111.8,0,1,0,367.85,850.65a112,112,0,0,0,109.33,88.54c59.49,0,108.14-46.75,111.48-105.42,23.78.93,45.45,6.93,64.85,18a88.14,88.14,0,0,0,3.07,14.49,15.82,15.82,0,0,0,4.65,7.14c56.58,49.45,124.57,61.36,177,61.36,46.53,0,80.76-9.41,83.69-10.24a15.7,15.7,0,0,0,11.41-15.1V648a15.63,15.63,0,0,0-1.7-7.09C902.52,583.46,813.29,563.56,771.09,557.23ZM660.35,474.08a13.08,13.08,0,0,0-1.61-.51,15.77,15.77,0,0,0-3.06-1,15.49,15.49,0,0,0-2.88-.25,14.69,14.69,0,0,0-3,.27,15,15,0,0,0-3,.94,13.57,13.57,0,0,0-1.64.52c-42.13,23.26-72.62,25.57-87.78,24.68V449.69H748.13v49.09C733,499.66,702.48,497.34,660.35,474.08Zm87.78-184.57V418.3h-99c2.94-30.92,14.09-42.89,17.47-45.81a15.7,15.7,0,0,0,6.27-27.94c-2.54-1.91-9.5-5.81-19.4-.87-3.43,1.71-31.36,17.54-35.81,74.62H557.4V289.51Zm-180,266.42a94.57,94.57,0,0,1-9-25.8c1.28,0,2.3.16,3.68.16,20.06,0,51-4.8,89.93-24.84,39,20,69.88,24.84,89.94,24.84,1.37,0,2.4-.12,3.68-.16a95.21,95.21,0,0,1-168.79,40.5,14.79,14.79,0,0,0,.17-2.58A15.48,15.48,0,0,0,568.13,555.93ZM803.8,390.85a40,40,0,0,1-24.28,36.75V354.1A40,40,0,0,1,803.8,390.85ZM537.64,181.68c13.45-12,33.7-10.86,38.14-6.66,21.35,20.2,57.14,24.46,102.44,29.86,14.76,1.76,30.68,3.66,47.53,6.28,13.31,2.07,21.8,6.75,26,14.32,5.23,9.54,3.47,23,.9,32.64H549.92C526.07,223.87,521.38,196.18,537.64,181.68ZM526,353.56v74.59a39.79,39.79,0,0,1,0-74.59Zm0,107.24v51.36c0,.35,0,.68,0,1a1.34,1.34,0,0,1,0,.2,126,126,0,0,0,9,45.57c-24.7,4.95-63.32,14.53-96.64,30.59l-13.38-34.1c18-44.63,35-93.31,47.52-142.43A71.34,71.34,0,0,0,526,460.8ZM274.46,257.56,351,452.62l-23.24,59.25C290.4,412.18,272.3,325.86,274.46,257.56ZM258.52,907.8a80.41,80.41,0,1,1,0-160.82,15.7,15.7,0,0,0,14.61-10L461.35,257.26c6.91,198.39-159.71,480-161.57,483.11a15.71,15.71,0,0,0,4.51,21A80.38,80.38,0,0,1,258.52,907.8Zm109.34-227c15.86,32,26.54,52,34,64.06a112,112,0,0,0-34,59.25,112,112,0,0,0-34.25-59.43C340.9,731.83,353.23,709.55,367.86,680.75Zm109.32,227A80.38,80.38,0,0,1,431.4,761.33a15.71,15.71,0,0,0,4.53-20.92c-.24-.39-22.72-38.29-50.53-95.23,7.21-15.06,14.67-31.26,22.17-48.33l55,140.17a15.71,15.71,0,0,0,14.62,10,80.41,80.41,0,0,1,24.44,3.8,106.88,106.88,0,0,0-20.25,20.76,15,15,0,0,0-4.19-.85,56.7,56.7,0,1,0,55.14,69.37,233.81,233.81,0,0,1,24.47-4.74C552.74,875.9,518.8,907.8,477.18,907.8Zm177.48-90.67c-24.88-11.18-52.27-16-81.93-14.69a11.51,11.51,0,0,0-1.44-.14c-.33,0-.58.22-.9.27a256.51,256.51,0,0,0-56.54,9.73c-7.4,2.11-10.88,1.36-11.7.66-1.78-1.54-2.66-7.3-2.43-11.94.66-1.25,1.63-3,2.92-5,10.88-17.38,30.28-36.46,60.94-29,37,9.14,75.78,22.2,97.73,30A90.68,90.68,0,0,0,654.66,817.13ZM468.37,803.75c.15,9.35,2.34,23.37,13.05,32.79A33.71,33.71,0,0,0,496.14,844a25.23,25.23,0,1,1-27.77-40.22ZM901.9,896.92c-34.24,6.87-138.47,20.74-216.33-44-2.25-10.83-5.73-40.59,17.8-60.43L785.94,802a15.5,15.5,0,0,0,12.25-3.88,15.7,15.7,0,0,0,5.25-11.71V689a15.7,15.7,0,1,0-31.39,0v79.78l-71.35-8.23A15.56,15.56,0,0,0,690,763.23a88.67,88.67,0,0,0-9.15,7.37c-19.37-7-65.15-23-109.71-34.05a83.66,83.66,0,0,0-31.73-1.85c-2.7-1.82-5.41-3.62-8.23-5.18V680a15.7,15.7,0,1,0-31.39,0v38a110.86,110.86,0,0,0-11.67-1.91l-38.16-97.28c35.28-17.49,79.77-27.08,101.4-31a126.3,126.3,0,0,0,203.75-1.16C794.69,591.23,876.78,609,901.9,652Z"/></svg>