<svg width="159" height="114" viewBox="0 0 159 114" fill="none" xmlns="http://www.w3.org/2000/svg">
<path d="M32.3271 85.5033C32.3271 93.3644 30.0811 105.411 39.2694 109.087C44.5782 111.026 50.6017 108.78 53.0519 103.676C54.0728 101.532 54.0728 99.2858 54.0728 97.0398V43.7475V25.1666C54.0728 24.1457 52.4394 24.1457 52.4394 25.1666V89.9954C52.4394 95.1 53.4603 102.042 49.3766 105.82C45.9054 108.985 40.4945 108.985 37.0234 105.82C34.5732 103.676 33.9606 100.817 33.9606 97.8565V85.6054C33.9606 84.4824 32.3271 84.4824 32.3271 85.5033ZM32.3271 25.0645V35.1717C32.3271 36.1926 33.9606 36.1926 33.9606 35.1717V25.0645C33.9606 24.0436 32.3271 24.0436 32.3271 25.0645ZM32.3271 55.2839V65.3911C32.3271 66.412 33.9606 66.412 33.9606 65.3911V55.2839C33.9606 54.263 32.3271 54.263 32.3271 55.2839Z" fill="#292930"/>
<path d="M53.2568 25.9832C60.1991 25.9832 67.0393 26.2895 73.9816 25.9832C79.0862 25.8811 83.4762 22.6141 84.7013 17.5095C85.9264 12.2007 83.0678 6.58561 77.8611 4.85004C75.1046 3.9312 72.1439 4.23748 69.3874 4.23748H14.7679C7.31512 4.23748 2.82305 9.34211 2.82305 16.7949V66.616C2.82305 73.4562 1.59793 81.8278 9.05069 85.5032C12.5218 87.0345 17.3202 86.422 21.0976 86.422H33.1445C34.1655 86.422 34.1655 84.7885 33.1445 84.7885C26.8148 84.7885 20.4851 84.8906 14.1553 84.7885C8.74441 84.6864 4.66071 81.0111 4.45653 75.396V70.2914V23.0225C4.45653 16.9991 3.4356 9.13792 10.48 6.58561C13.0323 5.66678 16.1972 5.97305 18.9537 5.97305H68.3665C71.4293 5.97305 75.2067 5.56468 78.0653 6.89189C87.1515 11.0777 83.4762 24.1455 73.9816 24.5539C67.0393 24.8602 60.1991 24.5539 53.2568 24.5539C52.2358 24.3497 52.2358 25.9832 53.2568 25.9832Z" fill="#292930"/>
<path d="M33.1434 24.3501H23.7509C23.3425 24.3501 22.832 24.7585 22.832 25.2689V35.3761C22.832 35.7845 23.2404 36.2949 23.7509 36.2949H33.1434C34.1643 36.2949 34.1643 34.6615 33.1434 34.6615H23.7509L24.6697 35.5803V25.4731L23.7509 26.3919H33.1434C34.2664 25.9836 34.2664 24.3501 33.1434 24.3501ZM33.1434 54.5695H23.7509C23.3425 54.5695 22.832 54.9779 22.832 55.4883V65.5955C22.832 66.0039 23.2404 66.5143 23.7509 66.5143H33.1434C34.1643 66.5143 34.1643 64.8809 33.1434 64.8809H23.7509L24.6697 65.7997V55.6925L23.7509 56.6114H33.1434C34.2664 56.203 34.2664 54.5695 33.1434 54.5695Z" fill="#292930"/>
<path d="M33.1446 56.2023C39.3722 56.2023 44.579 51.7102 44.7832 45.2784C44.7832 38.7445 39.3722 34.3545 33.1446 34.3545C32.1237 34.3545 32.1237 35.988 33.1446 35.988C38.4534 35.988 43.1497 39.6633 43.1497 45.1763C43.1497 50.6893 38.4534 54.3646 33.1446 54.3646C32.1237 54.5688 32.1237 56.2023 33.1446 56.2023Z" fill="#292930"/>
<path d="M33.1446 35.9884C34.1655 35.9884 34.1655 34.3549 33.1446 34.3549C32.1237 34.2528 32.1237 35.9884 33.1446 35.9884ZM33.1446 56.2027C34.1655 56.2027 34.1655 54.5692 33.1446 54.5692C32.1237 54.5692 32.1237 56.2027 33.1446 56.2027ZM33.1446 66.2078C34.1655 66.2078 34.1655 64.5743 33.1446 64.5743C32.1237 64.4722 32.1237 66.2078 33.1446 66.2078ZM33.1446 86.4221C34.1655 86.4221 34.1655 84.7886 33.1446 84.7886C32.1237 84.7886 32.1237 86.4221 33.1446 86.4221Z" fill="#292930"/>
<path d="M33.9611 85.5035V65.3913C33.9611 64.3704 32.3276 64.3704 32.3276 65.3913V85.5035C32.3276 86.6266 33.9611 86.6266 33.9611 85.5035V65.3913C33.9611 64.3704 32.3276 64.3704 32.3276 65.3913V85.5035C32.3276 86.6266 33.9611 86.6266 33.9611 85.5035ZM33.1444 25.9836H53.2566C54.2775 25.9836 54.2775 24.3501 53.2566 24.3501H33.1444C32.1235 24.3501 32.1235 25.9836 33.1444 25.9836Z" fill="#292930"/>
<path d="M61.4231 38.2345C62.1377 38.847 62.9544 39.4596 64.2817 39.4596C65.6089 39.4596 66.4256 38.745 66.4256 37.6219C66.4256 36.4989 65.2005 35.9885 64.2817 35.6822C62.9544 35.1717 61.4231 34.5592 61.4231 33.1299C61.4231 31.8027 62.444 30.6796 64.2817 30.6796C65.2005 30.6796 66.2214 31.088 66.834 31.5985L66.4256 32.211C65.813 31.8027 65.2005 31.4964 64.2817 31.4964C62.9544 31.4964 62.3419 32.211 62.3419 33.1299C62.3419 34.1508 63.3628 34.4571 64.4858 34.9675C65.813 35.3759 67.3444 35.9885 67.3444 37.724C67.3444 39.0512 66.3235 40.2763 64.2817 40.2763C62.9544 40.2763 61.8314 39.6638 60.9126 39.0512L61.4231 38.2345ZM68.3654 30.7817H69.2842L70.9177 36.7031C71.0198 37.4178 71.326 38.3366 71.5302 39.1533C71.6323 38.4387 71.9386 37.6219 72.1428 36.7031L73.7763 30.7817H74.7972L76.4307 36.7031C76.5328 37.4178 76.839 38.3366 77.0432 39.1533C77.1453 38.4387 77.4516 37.6219 77.6558 36.7031L79.2893 30.7817H80.2081L77.7579 39.7659H76.7369L75.2056 34.1508C74.8993 33.232 74.7972 32.5173 74.4909 31.5985C74.3888 32.5173 74.0825 33.4361 73.7763 34.1508L72.2449 39.7659H71.2239L68.3654 30.7817ZM82.1479 27.9231C82.1479 27.5148 82.4541 27.2085 82.8625 27.2085C83.2709 27.2085 83.5771 27.5148 83.5771 27.9231C83.5771 28.3315 83.2709 28.6378 82.8625 28.6378C82.5562 28.7399 82.1479 28.4336 82.1479 27.9231ZM82.5562 30.7817H83.2709V39.6638H82.5562V30.7817ZM86.2316 38.2345C86.9462 38.847 87.7629 39.4596 89.0902 39.4596C90.4174 39.4596 91.2341 38.745 91.2341 37.6219C91.2341 36.4989 90.009 35.9885 89.0902 35.6822C87.5588 35.2738 86.0274 34.6613 86.0274 33.1299C86.0274 31.8027 87.0483 30.6796 88.886 30.6796C89.8048 30.6796 90.8257 31.088 91.4383 31.5985L91.0299 32.211C90.4174 31.8027 89.8048 31.4964 88.886 31.4964C87.5588 31.4964 86.9462 32.211 86.9462 33.1299C86.9462 34.1508 87.9671 34.4571 89.0902 34.9675C90.4174 35.3759 91.9487 35.9885 91.9487 37.724C91.9487 39.0512 90.9278 40.2763 88.886 40.2763C87.5588 40.2763 86.4357 39.6638 85.5169 39.0512L86.2316 38.2345ZM93.7864 38.2345C94.5011 38.847 95.3178 39.4596 96.645 39.4596C97.9722 39.4596 98.7889 38.745 98.7889 37.6219C98.7889 36.4989 97.5638 35.9885 96.645 35.6822C95.3178 35.2738 93.7864 34.6613 93.7864 33.1299C93.7864 31.8027 94.8073 30.6796 96.645 30.6796C97.5638 30.6796 98.5848 31.088 99.1973 31.5985L98.7889 32.211C98.1764 31.8027 97.5638 31.4964 96.645 31.4964C95.3178 31.4964 94.7052 32.211 94.7052 33.1299C94.7052 34.1508 95.7262 34.4571 96.8492 34.9675C98.1764 35.3759 99.7078 35.9885 99.7078 37.724C99.7078 39.0512 98.6869 40.2763 96.645 40.2763C95.3178 40.2763 94.1948 39.6638 93.2759 39.0512L93.7864 38.2345Z" fill="#292930"/>
<path d="M61.1172 44.155H73.1641V46.4011H63.7716V53.0371H71.7348V55.2831H63.7716V62.9401H73.6746V65.1861H61.3214V44.155H61.1172ZM83.4755 49.2597C85.3131 49.2597 86.5382 49.8722 87.8654 51.0973L87.7634 48.3408V42.3174H90.5198V65.2882H88.3759L88.2738 63.4505H88.1717C86.9466 64.6756 85.3131 65.6966 83.4755 65.6966C79.5959 65.6966 76.9415 62.6338 76.9415 57.5292C76.7373 52.4245 79.9022 49.2597 83.4755 49.2597ZM83.6796 63.4505C85.211 63.4505 86.4361 62.7359 87.5592 61.3066V53.1392C86.232 51.9141 85.0069 51.5057 83.7817 51.5057C81.2294 51.5057 79.2897 53.9559 79.2897 57.5292C79.3918 61.2045 80.9231 63.4505 83.6796 63.4505ZM100.117 46.4011H93.7868V44.155H109.203V46.4011H102.873V65.2882H100.117V46.4011ZM116.451 49.2597C120.331 49.2597 122.679 52.1183 122.679 56.5082C122.679 57.1208 122.679 57.5292 122.577 58.0396H111.959C112.061 61.4087 114.205 63.4505 117.064 63.4505C118.595 63.4505 119.82 63.0422 120.943 62.2254L121.862 63.8589C120.535 64.7777 118.799 65.4924 116.758 65.4924C112.572 65.4924 109.203 62.4296 109.203 57.325C109.305 52.3225 112.776 49.2597 116.451 49.2597ZM120.331 56.202C120.331 53.0371 119.004 51.1994 116.553 51.1994C114.41 51.1994 112.368 53.0371 112.061 56.202H120.331ZM132.786 49.2597C134.93 49.2597 136.257 50.1785 137.278 51.0973L135.951 52.7308C135.032 52.0162 134.011 51.4036 132.786 51.4036C129.928 51.4036 127.988 53.8538 127.988 57.4271C127.988 61.1024 129.928 63.4505 132.786 63.4505C134.318 63.4505 135.543 62.7359 136.462 61.9192L137.687 63.5526C136.359 64.7777 134.522 65.4924 132.582 65.4924C128.498 65.4924 125.333 62.4296 125.333 57.325C125.333 52.3225 128.805 49.2597 132.786 49.2597ZM141.056 42.3174H143.608V48.6471L143.506 51.812C145.037 50.4848 146.569 49.2597 148.611 49.2597C151.98 49.2597 153.307 51.4036 153.307 55.2831V65.2882H151.061V55.7936C151.061 52.935 150.142 51.6078 147.998 51.6078C146.364 51.6078 145.241 52.5266 143.812 54.058V65.3903H141.26V42.3174H141.056Z" fill="#292930"/>
<path d="M67.4475 70.291C69.0809 70.291 70.5102 71.2098 71.2249 72.1287L70.6123 72.7412C69.8977 71.8224 68.7747 71.2099 67.4475 71.2099C64.2826 71.2099 62.1386 73.7622 62.1386 77.8459C62.1386 81.9296 64.0784 84.6861 67.2433 84.6861C68.7747 84.6861 69.9998 84.0735 71.0207 82.8484L71.6333 83.461C70.6123 84.7882 69.183 85.6049 67.2433 85.6049C63.5679 85.6049 61.0156 82.5421 61.0156 77.948C61.1177 73.1496 63.67 70.291 67.4475 70.291ZM74.1856 77.8459C74.1856 73.1496 76.7379 70.291 80.209 70.291C83.6802 70.291 86.2325 73.1496 86.2325 77.8459C86.2325 82.5421 83.6802 85.5028 80.209 85.5028C76.7379 85.5028 74.1856 82.5421 74.1856 77.8459ZM85.3137 77.8459C85.3137 73.7622 83.3739 71.2099 80.3111 71.2099C77.2483 71.2099 75.3086 73.7622 75.3086 77.8459C75.3086 81.9296 77.2483 84.6861 80.3111 84.6861C83.3739 84.6861 85.3137 81.9296 85.3137 77.8459ZM90.6225 70.3931H91.6434V84.2777H98.4836V85.1965H90.6225V70.3931ZM102.057 70.3931H103.078V84.2777H109.918V85.1965H102.057V70.3931ZM113.389 70.3931H114.41V85.1965H113.389V70.3931ZM119.617 70.3931H123.088C127.58 70.3931 129.928 73.2517 129.928 77.8459C129.928 82.3379 127.784 85.2986 123.292 85.2986H119.821V70.3931H119.617ZM122.986 84.4819C127.07 84.4819 128.703 81.7254 128.703 77.8459C128.703 74.0684 126.865 71.3119 122.986 71.3119H120.638V84.2777H122.884V84.4819H122.986ZM134.114 70.3931H142.281V71.3119H135.135V76.927H141.056V77.8459H135.135V84.3798H142.383V85.1965H134.114V70.3931ZM154.634 85.1965L150.755 78.3563H147.59V85.1965H146.569V70.3931H150.755C153.614 70.3931 155.553 71.414 155.553 74.2726C155.553 76.7228 154.022 78.0501 151.776 78.3563L155.86 85.2986H154.634V85.1965ZM150.449 77.6417C153.001 77.6417 154.532 76.6208 154.532 74.4768C154.532 72.2308 153.001 71.414 150.449 71.414H147.59V77.6417H150.449Z" fill="#292930"/>
</svg>
