<svg width="220" height="91" viewBox="0 0 220 91" fill="none" xmlns="http://www.w3.org/2000/svg">
<path fill-rule="evenodd" clip-rule="evenodd" d="M1.44766 85.2516L0.231445 66.4002H7.52875C10.5693 76.1299 14.3396 84.157 21.272 84.157C26.1368 84.157 27.8396 81.2381 27.8396 78.0759C27.8396 72.8261 22.3408 69.9366 16.3402 66.7833C9.13419 62.9966 1.20442 58.8295 1.20442 49.738C1.20442 42.684 6.19091 32.5894 23.3396 32.5894C31.245 32.5894 37.6909 34.0488 44.9882 37.0894V52.7786H38.1774C38.1483 52.7069 38.1188 52.6339 38.0887 52.5596C36.2286 47.9673 32.3643 38.4272 26.3801 38.4272C23.4612 38.4272 21.1504 40.4948 21.1504 44.1434C21.1504 49.6758 26.5683 52.6919 32.4252 55.9524C39.3151 59.7878 46.8125 63.9616 46.8125 72.9678C46.8125 81.7245 39.5152 90.9678 22.6098 90.9678C15.6553 90.9678 10.3839 88.8417 4.5275 86.4796C3.52196 86.074 2.49918 85.6615 1.44766 85.2516ZM106.972 58.1297V58.1299H72.3095C74.1338 71.8732 85.4447 75.8867 91.8906 75.8867C97.6068 75.8867 100.526 74.3056 105.269 69.3191L109.283 72.3597C100.039 87.684 90.796 90.9678 78.9987 90.9678C65.2555 90.9678 52.1203 80.1435 52.1203 63.6029C52.1203 45.1164 67.2014 32.5894 83.4987 32.5894C100.039 32.5894 105.877 42.4407 106.85 53.5083C106.972 54.9677 106.972 56.7919 106.972 58.1297ZM80.0933 39.4002C73.8906 39.4002 72.3095 45.7245 72.0663 51.3191H86.9041C86.9041 45.8461 86.4176 39.4002 80.0933 39.4002ZM144.173 77.2245C144.173 80.7516 145.755 81.7245 154.39 84.157V89.2651C147.336 89.1435 140.282 89.0219 133.349 89.0219C126.413 89.0219 119.594 89.1395 112.661 89.259L112.309 89.2651V84.157C120.336 81.7245 121.795 80.7516 121.795 77.2245V56.9137C121.795 53.4727 120.365 52.4454 115.358 48.8498C114.525 48.2516 113.593 47.5824 112.552 46.8191V42.3191L141.011 30.8867L144.903 34.7786C144.538 43.657 144.173 53.5083 144.173 67.1299V77.2245ZM189.824 34.0488H204.662V43.0488H189.824V77.2245C189.824 80.7516 190.797 83.0624 204.176 84.157V89.2651C200.866 89.2291 197.918 89.1932 195.228 89.1603C188.824 89.0822 183.882 89.0219 179 89.0219C173.065 89.0219 167.216 89.1079 160.44 89.2077C159.162 89.2265 157.851 89.2458 156.5 89.2651V84.157C165.987 81.7245 167.446 80.7516 167.446 77.2245V43.0488H156.5V37.4542L167.689 32.1029C169.027 20.7921 174.014 0.967773 201.622 0.967773C210.5 0.967773 219.014 5.46778 219.014 12.157C219.014 18.6029 213.906 22.9813 206.973 22.9813C205.879 22.9813 204.906 22.8597 204.297 22.4948C203.081 19.9408 196.879 9.4813 193.716 9.4813C191.406 9.4813 189.824 11.4272 189.824 21.157V34.0488ZM120.926 2.22363V26.6568L151.551 15.1096L120.926 2.22363Z" fill="#292930"/>
</svg>
