<svg width="198" height="198" viewBox="0 0 198 198" fill="none" xmlns="http://www.w3.org/2000/svg">
<circle cx="98.6068" cy="99.1973" r="98.5" fill="#FFCE4D"/>
<path d="M33.1062 40.9649L35.5313 44.9726L30.9983 43.4297L29.8196 44.8079L36.5271 47.0262C36.9543 47.8098 36.886 48.3784 36.2909 49.0539L37.4981 50.0864C38.601 48.9394 38.7587 47.4718 37.7575 45.7097L34.2935 39.5766L33.1062 40.9649Z" fill="black"/>
<path d="M38.4543 35.3634L40.2055 37.1647L38.309 39.0086L36.5578 37.2073L35.3284 38.4026L39.9611 43.1681L41.1905 41.9727L39.4301 40.1619L41.3266 38.3179L43.0871 40.1288L44.3165 38.9335L39.6837 34.168L38.4543 35.3634Z" fill="black"/>
<path d="M41.5561 31.6645C42.0009 31.2886 42.0573 30.617 41.69 30.1823C41.3226 29.7475 40.6425 29.681 40.1977 30.0569C39.7629 30.4243 39.7151 31.106 40.0825 31.5408C40.4498 31.9755 41.1214 32.0319 41.5561 31.6645ZM45.6934 37.8732L46.9976 36.771L42.7259 31.7158L41.4217 32.818L45.6934 37.8732Z" fill="black"/>
<path d="M53.1124 32.0945L48.9168 31.0366L49.1063 26.8255L47.469 28.0398L47.3749 31.7352L45.6403 29.396L44.2687 30.4132L48.211 35.7295L49.5825 34.7123L47.7927 32.2987L51.5175 33.2772L53.1124 32.0945Z" fill="black"/>
<path d="M54.3538 23.5376L54.7614 24.2038C54.0441 23.9444 53.2409 24.0013 52.4167 24.5057C50.915 25.4245 50.4674 27.483 51.4967 29.1654C52.526 30.8478 54.5625 31.3863 56.0642 30.4675C56.8884 29.9631 57.3047 29.2739 57.4003 28.5171L57.8079 29.1833L59.2644 28.2921L55.8104 22.6464L54.3538 23.5376ZM55.4855 28.9128C54.5935 29.4586 53.5336 29.2226 52.9533 28.2742C52.373 27.3257 52.6454 26.2745 53.5374 25.7287C54.4407 25.176 55.5006 25.412 56.0809 26.3605C56.6611 27.3089 56.3887 28.3601 55.4855 28.9128Z" fill="black"/>
<path d="M63.0008 19.0415L58.2856 21.3312L59.9276 24.713C60.3785 25.6418 60.2067 26.1667 59.5004 26.3183L60.2 27.7591C61.8942 27.1571 62.4176 25.9318 61.5041 24.0504L60.5385 22.0619L62.1817 21.2639L64.3556 25.7411L65.8916 24.9952L63.0008 19.0415Z" fill="black"/>
<path d="M68.6435 19.0469L67.4443 19.5058L66.6875 17.5277L65.0927 18.138L67.4579 24.3194L70.2519 23.2502C71.6612 22.7109 72.2667 21.5154 71.7842 20.2544C71.3017 18.9934 70.0528 18.5075 68.6435 19.0469ZM69.725 21.8361L68.5134 22.2998L67.9789 20.9028L69.1904 20.4391C69.6355 20.2688 70.0657 20.4302 70.2265 20.8505C70.3874 21.2708 70.17 21.6658 69.725 21.8361Z" fill="black"/>
<path d="M76.1045 14.4822L76.78 16.8839L74.2512 17.5951L73.5758 15.1934L71.9365 15.6545L73.7234 22.0082L75.3626 21.5472L74.6836 19.1327L77.2124 18.4215L77.8914 20.8359L79.5307 20.3748L77.7438 14.0211L76.1045 14.4822Z" fill="black"/>
<path d="M84.9786 12.5058L85.1158 13.2746C84.542 12.772 83.7733 12.5327 82.822 12.7025C81.0889 13.0119 79.9229 14.7663 80.2695 16.7079C80.616 18.6495 82.3169 19.8922 84.05 19.5829C85.0012 19.4131 85.6398 18.9226 86.0042 18.2525L86.1415 19.0213L87.8224 18.7212L86.6596 12.2058L84.9786 12.5058ZM84.0767 17.9242C83.0472 18.108 82.1458 17.5024 81.9505 16.4078C81.7551 15.3132 82.3914 14.4332 83.4208 14.2495C84.4633 14.0634 85.3647 14.6689 85.56 15.7635C85.7554 16.8581 85.1191 17.7381 84.0767 17.9242Z" fill="black"/>
<path d="M98.6994 11.3447L92.6542 11.5664L92.8967 18.1804L94.6031 18.1178L94.4193 13.1044L97.0516 13.0079L97.2355 18.0213L98.9419 17.9587L98.6994 11.3447Z" fill="black"/>
<path d="M103.81 18.309C105.756 18.4258 107.409 16.9972 107.528 15.025C107.646 13.0527 106.175 11.4367 104.23 11.3199C102.284 11.2032 100.644 12.6325 100.525 14.6048C100.407 16.5771 101.864 18.1923 103.81 18.309ZM103.91 16.6412C102.904 16.5808 102.169 15.7794 102.233 14.7072C102.297 13.6351 103.124 12.9274 104.13 12.9878C105.149 13.0489 105.884 13.8503 105.82 14.9225C105.756 15.9947 104.93 16.7023 103.91 16.6412Z" fill="black"/>
<path d="M111.768 19.1705C113.05 19.3665 114.267 18.8561 114.985 17.9214L113.648 16.86C113.304 17.3565 112.691 17.5976 112.011 17.4936C111.004 17.3396 110.372 16.4797 110.53 15.446C110.69 14.3992 111.549 13.7674 112.557 13.9214C113.224 14.0234 113.735 14.4496 113.915 15.0261L115.497 14.3976C115.115 13.308 114.106 12.4576 112.824 12.2616C110.835 11.9576 109.14 13.2384 108.842 15.188C108.544 17.1377 109.779 18.8665 111.768 19.1705Z" fill="black"/>
<path d="M122.766 14.5503L117.674 13.3062L116.782 16.958C116.537 17.961 116.07 18.2556 115.429 17.922L115.049 19.4779C116.738 20.0949 117.922 19.485 118.419 17.4533L118.943 15.3059L120.718 15.7395L119.537 20.5744L121.195 20.9797L122.766 14.5503Z" fill="black"/>
<path d="M129.044 16.5795L126.218 20.3149L125.975 15.5328L124.258 14.9474L124.678 21.9996C124.109 22.6863 123.555 22.8332 122.707 22.5301L122.195 24.0335C123.668 24.634 125.09 24.2377 126.357 22.6558L130.773 17.1691L129.044 16.5795Z" fill="black"/>
<path d="M136.291 19.5351L132.133 17.7451L129.516 23.8243L131.084 24.4995L133.052 19.9279L135.642 21.0428L136.291 19.5351Z" fill="black"/>
<path d="M141.91 22.4177L141.543 23.1071C141.402 22.3573 140.945 21.6943 140.092 21.2401C138.538 20.4128 136.538 21.0722 135.611 22.8132C134.684 24.5541 135.254 26.5821 136.808 27.4095C137.661 27.8636 138.466 27.8724 139.167 27.5705L138.8 28.2599L140.307 29.0624L143.417 23.2202L141.91 22.4177ZM137.854 26.1216C136.931 25.6302 136.596 24.5971 137.118 23.6157C137.641 22.6342 138.685 22.3352 139.608 22.8266C140.542 23.3243 140.877 24.3573 140.355 25.3388C139.832 26.3203 138.788 26.6193 137.854 26.1216Z" fill="black"/>
<path d="M160.334 36.0263L156.23 38.2835L157.959 33.8182L156.631 32.5835L154.137 39.1935C153.337 39.588 152.771 39.4962 152.121 38.8737L151.04 40.0371C152.14 41.1865 153.6 41.4049 155.402 40.4774L161.672 37.2701L160.334 36.0263Z" fill="black"/>
<path d="M165.641 41.5966L163.78 43.2684L162.02 41.3087L163.881 39.6369L162.74 38.3665L157.816 42.7892L158.957 44.0596L160.828 42.379L162.588 44.3387L160.717 46.0193L161.858 47.2897L166.782 42.867L165.641 41.5966Z" fill="black"/>
<path d="M169.372 44.7292C169.734 45.1893 170.405 45.2703 170.855 44.9174C171.305 44.5645 171.396 43.8844 171.035 43.4243C170.682 42.9746 170 42.9018 169.55 43.2547C169.101 43.6076 169.02 44.2795 169.372 44.7292ZM162.991 48.6559L164.05 50.0049L169.278 45.9014L168.22 44.5524L162.991 48.6559Z" fill="black"/>
<path d="M168.544 56.2891L169.762 52.1059L173.992 52.4506L172.83 50.7586L169.115 50.5288L171.532 48.8689L170.559 47.4516L165.066 51.2242L166.039 52.6415L168.533 50.9287L167.412 54.6411L168.544 56.2891Z" fill="black"/>
<path d="M176.908 57.8637L176.228 58.2464C176.513 57.5399 176.485 56.7364 176.012 55.8957C175.149 54.3641 173.111 53.8432 171.395 54.8097C169.679 55.7762 169.069 57.7889 169.931 59.3205C170.405 60.1612 171.077 60.6015 171.829 60.7242L171.15 61.1069L171.986 62.5925L177.744 59.3493L176.908 57.8637ZM171.503 58.7991C170.991 57.8893 171.265 56.8401 172.232 56.2953C173.199 55.7504 174.238 56.0602 174.751 56.97C175.27 57.8913 174.996 58.9404 174.029 59.4853C173.061 60.0301 172.022 59.7204 171.503 58.7991Z" fill="black"/>
<path d="M181.107 66.6825L178.997 61.8842L175.556 63.3977C174.61 63.8134 174.092 63.6219 173.968 62.9104L172.501 63.5553C173.039 65.271 174.244 65.8401 176.158 64.9981L178.182 64.1081L178.917 65.7803L174.361 67.7841L175.049 69.3471L181.107 66.6825Z" fill="black"/>
<path d="M180.886 72.3167L180.472 71.101L182.478 70.4195L181.928 68.8027L175.662 70.9324L176.624 73.7649C177.11 75.1937 178.282 75.844 179.56 75.4095C180.838 74.9751 181.371 73.7454 180.886 72.3167ZM178.057 73.2919L177.64 72.0636L179.056 71.5823L179.474 72.8105C179.627 73.2617 179.449 73.6856 179.023 73.8304C178.597 73.9752 178.211 73.743 178.057 73.2919Z" fill="black"/>
<path d="M185.233 79.9469L182.802 80.5377L182.18 77.9781L184.611 77.3872L184.208 75.728L177.777 77.2911L178.18 78.9503L180.624 78.3563L181.246 80.916L178.802 81.51L179.205 83.1692L185.636 81.6061L185.233 79.9469Z" fill="black"/>
<path d="M186.808 88.9025L186.035 89.0105C186.559 88.4562 186.827 87.697 186.694 86.74C186.45 84.9964 184.741 83.7649 182.788 84.0377C180.834 84.3105 179.528 85.9631 179.772 87.7067C179.905 88.6637 180.371 89.3203 181.027 89.7099L180.254 89.8179L180.49 91.5091L187.045 90.5936L186.808 88.9025ZM181.428 87.7961C181.283 86.7604 181.923 85.8826 183.024 85.7288C184.125 85.575 184.98 86.2441 185.125 87.2798C185.271 88.3286 184.632 89.2064 183.531 89.3602C182.43 89.514 181.575 88.8449 181.428 87.7961Z" fill="black"/>
<path d="M187.406 102.736L187.504 96.6871L180.886 96.5796L180.859 98.287L185.875 98.3684L185.832 101.002L180.816 100.921L180.788 102.628L187.406 102.736Z" fill="black"/>
<path d="M180.341 107.514C180.147 109.46 181.513 111.174 183.485 111.371C185.457 111.568 187.136 110.159 187.33 108.213C187.525 106.267 186.157 104.566 184.185 104.369C182.213 104.171 180.536 105.568 180.341 107.514ZM182.009 107.681C182.11 106.675 182.942 105.969 184.014 106.076C185.086 106.183 185.763 107.04 185.662 108.046C185.56 109.065 184.728 109.771 183.656 109.663C182.583 109.556 181.907 108.7 182.009 107.681Z" fill="black"/>
<path d="M179.149 115.413C178.905 116.687 179.369 117.921 180.276 118.675L181.387 117.378C180.904 117.016 180.686 116.395 180.816 115.719C181.007 114.718 181.891 114.119 182.918 114.315C183.958 114.515 184.557 115.398 184.365 116.399C184.238 117.062 183.792 117.556 183.21 117.714L183.778 119.319C184.881 118.978 185.769 118.002 186.013 116.728C186.392 114.752 185.176 113.01 183.239 112.638C181.302 112.267 179.528 113.437 179.149 115.413Z" fill="black"/>
<path d="M183.348 126.572L184.784 121.531L181.168 120.502C180.175 120.219 179.898 119.741 180.256 119.113L178.715 118.675C178.035 120.339 178.6 121.546 180.611 122.119L182.737 122.724L182.237 124.481L177.45 123.118L176.983 124.76L183.348 126.572Z" fill="black"/>
<path d="M181.079 132.786L177.454 129.82L182.242 129.758L182.891 128.065L175.829 128.218C175.164 127.622 175.038 127.064 175.373 126.228L173.89 125.659C173.234 127.108 173.577 128.544 175.109 129.87L180.425 134.491L181.079 132.786Z" fill="black"/>
<path d="M177.857 139.907L179.802 135.82L173.826 132.975L173.092 134.517L177.586 136.656L176.374 139.202L177.857 139.907Z" fill="black"/>
<path d="M174.762 145.41L174.087 145.017C174.842 144.905 175.521 144.473 176.007 143.638C176.893 142.116 176.309 140.092 174.604 139.1C172.9 138.109 170.852 138.602 169.966 140.123C169.48 140.959 169.441 141.763 169.717 142.474L169.042 142.081L168.183 143.557L173.904 146.886L174.762 145.41ZM171.214 141.217C171.74 140.313 172.785 140.017 173.746 140.576C174.707 141.135 174.966 142.19 174.44 143.094C173.908 144.009 172.863 144.305 171.902 143.746C170.941 143.186 170.681 142.132 171.214 141.217Z" fill="black"/>
<path d="M162.98 160.694L160.733 156.597L165.186 158.326L166.419 157.003L159.827 154.508C159.435 153.709 159.527 153.145 160.148 152.497L158.989 151.417C157.841 152.513 157.622 153.969 158.545 155.768L161.738 162.027L162.98 160.694Z" fill="black"/>
<path d="M157.476 166.031L155.8 164.179L157.749 162.415L159.425 164.266L160.689 163.122L156.254 158.224L154.991 159.368L156.676 161.229L154.727 162.994L153.042 161.133L151.778 162.277L156.212 167.175L157.476 166.031Z" fill="black"/>
<path d="M154.358 169.811C153.898 170.172 153.817 170.844 154.17 171.293C154.523 171.743 155.203 171.834 155.663 171.473C156.113 171.12 156.186 170.438 155.833 169.988C155.48 169.539 154.808 169.458 154.358 169.811ZM150.432 163.429L149.083 164.488L153.186 169.717L154.535 168.658L150.432 163.429Z" fill="black"/>
<path d="M142.813 168.897L146.969 170.082L146.651 174.279L148.322 173.117L148.529 169.432L150.189 171.82L151.589 170.846L147.817 165.419L146.417 166.392L148.13 168.856L144.441 167.766L142.813 168.897Z" fill="black"/>
<path d="M141.235 177.384L140.853 176.705C141.559 176.99 142.363 176.962 143.203 176.488C144.735 175.626 145.256 173.588 144.289 171.872C143.323 170.156 141.311 169.545 139.779 170.408C138.938 170.881 138.498 171.554 138.375 172.306L137.993 171.626L136.507 172.463L139.75 178.221L141.235 177.384ZM140.3 171.98C141.21 171.468 142.259 171.741 142.804 172.709C143.349 173.676 143.039 174.715 142.129 175.228C141.208 175.746 140.159 175.473 139.614 174.505C139.069 173.538 139.379 172.499 140.3 171.98Z" fill="black"/>
<path d="M132.469 181.617L137.259 179.489L135.733 176.053C135.314 175.11 135.504 174.591 136.215 174.463L135.565 173C133.851 173.544 133.286 174.75 134.135 176.662L135.032 178.682L133.363 179.424L131.343 174.875L129.782 175.568L132.469 181.617Z" fill="black"/>
<path d="M126.867 181.524L128.087 181.101L128.786 183.113L130.408 182.549L128.224 176.262L125.382 177.249C123.948 177.747 123.302 178.93 123.748 180.212C124.193 181.495 125.433 182.022 126.867 181.524ZM125.867 178.687L127.1 178.259L127.593 179.68L126.361 180.108C125.908 180.265 125.481 180.089 125.332 179.662C125.184 179.234 125.415 178.844 125.867 178.687Z" fill="black"/>
<path d="M119.224 185.794L118.624 183.365L121.181 182.734L121.781 185.163L123.439 184.753L121.852 178.328L120.194 178.737L120.797 181.179L118.24 181.81L117.637 179.369L115.979 179.778L117.566 186.204L119.224 185.794Z" fill="black"/>
<path d="M110.279 187.404L110.168 186.631C110.724 187.153 111.484 187.418 112.441 187.281C114.184 187.031 115.408 185.317 115.128 183.365C114.848 181.412 113.19 180.113 111.448 180.363C110.491 180.5 109.836 180.969 109.449 181.626L109.338 180.853L107.648 181.095L108.589 187.647L110.279 187.404ZM111.365 182.019C112.4 181.871 113.28 182.507 113.438 183.607C113.596 184.708 112.93 185.566 111.895 185.714C110.847 185.865 109.967 185.229 109.809 184.128C109.651 183.028 110.316 182.17 111.365 182.019Z" fill="black"/>
<path d="M96.65 188.132L102.699 188.034L102.591 181.417L100.884 181.444L100.965 186.461L98.3314 186.503L98.25 181.487L96.5426 181.515L96.65 188.132Z" fill="black"/>
<path d="M91.6509 181.011C89.7051 180.836 88.0061 182.218 87.8286 184.19C87.6511 186.162 89.0761 187.825 91.0219 188C92.9677 188.175 94.6534 186.793 94.8309 184.82C95.0084 182.848 93.5967 181.186 91.6509 181.011ZM91.5008 182.679C92.5068 182.77 93.2199 183.594 93.1234 184.667C93.0269 185.739 92.178 186.423 91.172 186.332C90.1528 186.241 89.4397 185.416 89.5362 184.344C89.6327 183.272 90.4815 182.587 91.5008 182.679Z" fill="black"/>
<path d="M83.7333 179.835C82.4583 179.595 81.2255 180.064 80.4757 180.974L81.7765 182.08C82.1368 181.596 82.7572 181.375 83.4337 181.502C84.4355 181.69 85.0379 182.571 84.845 183.599C84.6497 184.64 83.7689 185.242 82.7672 185.054C82.1037 184.93 81.6078 184.486 81.4477 183.904L79.8449 184.479C80.1903 185.581 81.1691 186.465 82.4441 186.704C84.4216 187.075 86.1594 185.852 86.5232 183.914C86.887 181.976 85.7107 180.206 83.7333 179.835Z" fill="black"/>
<path d="M72.5889 184.076L77.6356 185.493L78.6516 181.874C78.9306 180.88 79.4075 180.601 80.0364 180.956L80.4693 179.414C78.8025 178.74 77.5978 179.309 77.0326 181.323L76.4352 183.451L74.6765 182.958L76.0216 178.166L74.3776 177.704L72.5889 184.076Z" fill="black"/>
<path d="M66.3869 181.838L69.3384 178.201L69.4189 182.989L71.1144 183.632L70.9343 176.57C71.5271 175.903 72.0854 175.775 72.9222 176.107L73.4857 174.622C72.0335 173.971 70.5991 174.319 69.2794 175.857L64.679 181.19L66.3869 181.838Z" fill="black"/>
<path d="M59.2283 178.631L63.3227 180.562L66.1458 174.576L64.6014 173.847L62.4784 178.349L59.9284 177.146L59.2283 178.631Z" fill="black"/>
<path d="M53.7289 175.569L54.1191 174.892C54.2343 175.646 54.6682 176.325 55.5052 176.808C57.0301 177.687 59.052 177.096 60.0375 175.388C61.023 173.679 60.5224 171.633 58.9975 170.754C58.1605 170.271 57.3561 170.235 56.6457 170.512L57.036 169.836L55.5569 168.983L52.2498 174.716L53.7289 175.569ZM57.9088 172.005C58.8145 172.528 59.114 173.571 58.5584 174.535C58.0028 175.498 56.9494 175.761 56.0436 175.238C55.1263 174.709 54.8269 173.665 55.3824 172.702C55.938 171.739 56.9915 171.476 57.9088 172.005Z" fill="black"/>
<path d="M38.2799 163.953L42.3914 161.661L40.6796 166.158L42.0216 167.392L44.4894 160.734C45.2915 160.333 45.8601 160.422 46.5172 161.044L47.5973 159.869C46.4849 158.72 45.0167 158.509 43.2112 159.451L36.9281 162.711L38.2799 163.953Z" fill="black"/>
<path d="M33.042 158.32L34.8932 156.644L36.658 158.593L34.8068 160.27L35.9508 161.533L40.8483 157.099L39.7043 155.835L37.8432 157.52L36.0784 155.571L37.9395 153.886L36.7954 152.622L31.8979 157.057L33.042 158.32Z" fill="black"/>
<path d="M29.3969 155.173C29.0358 154.718 28.3687 154.642 27.9247 154.995C27.4807 155.348 27.3942 156.023 27.7553 156.478C28.1081 156.922 28.7856 156.99 29.2295 156.637C29.6735 156.284 29.7497 155.617 29.3969 155.173ZM35.7038 151.237L34.6452 149.905L29.4829 154.009L30.5416 155.341L35.7038 151.237Z" fill="black"/>
<path d="M30.1319 143.674L28.9476 147.829L24.7502 147.511L25.9121 149.183L29.5977 149.39L27.2098 151.05L28.183 152.45L33.6101 148.678L32.6368 147.277L30.1729 148.99L31.2636 145.302L30.1319 143.674Z" fill="black"/>
<path d="M21.6001 142.186L22.2783 141.799C21.9973 142.508 22.03 143.312 22.5091 144.151C23.3822 145.68 25.4261 146.19 27.1387 145.212C28.8514 144.234 29.4512 142.214 28.5782 140.685C28.099 139.846 27.4227 139.409 26.6691 139.291L27.3473 138.904L26.5005 137.421L20.7534 140.703L21.6001 142.186ZM27.0068 141.217C27.5254 142.125 27.2575 143.177 26.2919 143.729C25.3264 144.28 24.284 143.976 23.7654 143.068C23.2403 142.149 23.5082 141.096 24.4737 140.545C25.4392 139.993 26.4817 140.297 27.0068 141.217Z" fill="black"/>
<path d="M17.3638 133.407L19.5091 138.189L22.9391 136.651C23.8811 136.228 24.4005 136.416 24.5306 137.126L25.992 136.471C25.4418 134.759 24.233 134.199 22.3248 135.055L20.3079 135.96L19.5602 134.293L24.1013 132.256L23.4025 130.698L17.3638 133.407Z" fill="black"/>
<path d="M17.5432 127.76L17.9652 128.972L15.965 129.669L16.5263 131.281L22.7769 129.106L21.7936 126.28C21.2977 124.855 20.1213 124.214 18.8461 124.657C17.571 125.101 17.0472 126.335 17.5432 127.76ZM20.3641 126.764L20.7905 127.989L19.3779 128.481L18.9515 127.256C18.7949 126.806 18.9693 126.38 19.3943 126.233C19.8194 126.085 20.2075 126.314 20.3641 126.764Z" fill="black"/>
<path d="M13.1678 120.158L15.5945 119.558L16.2266 122.113L13.7999 122.713L14.2097 124.37L20.6296 122.781L20.2198 121.125L17.7802 121.728L17.1481 119.173L19.5876 118.57L19.1778 116.913L12.758 118.502L13.1678 120.158Z" fill="black"/>
<path d="M11.4996 111.233L12.2722 111.119C11.7524 111.677 11.4899 112.439 11.6307 113.395C11.8873 115.136 13.6054 116.355 15.5567 116.068C17.5079 115.78 18.8017 114.118 18.5451 112.376C18.4043 111.42 17.9335 110.767 17.2747 110.382L18.0474 110.268L17.7985 108.579L11.2508 109.544L11.4996 111.233ZM16.8881 112.299C17.0405 113.334 16.4078 114.216 15.3078 114.378C14.2078 114.54 13.3475 113.878 13.1952 112.843C13.0408 111.795 13.6735 110.913 14.7735 110.751C15.8735 110.589 16.7338 111.251 16.8881 112.299Z" fill="black"/>
<path d="M10.727 97.5573L10.8252 103.606L17.4428 103.498L17.4151 101.791L12.3989 101.872L12.3562 99.2387L17.3723 99.1572L17.3446 97.4499L10.727 97.5573Z" fill="black"/>
<path d="M17.881 92.5847C18.0532 90.6465 16.6753 88.9559 14.7107 88.7812C12.7462 88.6066 11.0916 90.0276 10.9193 91.9658C10.7471 93.904 12.1262 95.5814 14.0907 95.756C16.0553 95.9307 17.7087 94.5229 17.881 92.5847ZM16.2197 92.437C16.1306 93.439 15.3099 94.1501 14.2419 94.0552C13.174 93.9602 12.4916 93.1155 12.5806 92.1135C12.6709 91.0982 13.4916 90.3871 14.5595 90.4821C15.6275 90.577 16.3099 91.4218 16.2197 92.437Z" fill="black"/>
<path d="M19.0111 84.6786C19.2446 83.4074 18.7726 82.1808 17.8632 81.4372L16.7661 82.7376C17.2503 83.0947 17.4722 83.7121 17.3483 84.3866C17.1648 85.3855 16.2896 85.9891 15.2648 85.8008C14.2271 85.6102 13.6235 84.735 13.8069 83.7361C13.9284 83.0745 14.3681 82.5787 14.9477 82.4169L14.3689 80.8221C13.2724 81.1705 12.3953 82.1493 12.1618 83.4205C11.7997 85.3923 13.0247 87.1192 14.9575 87.4742C16.8903 87.8293 18.649 86.6504 19.0111 84.6786Z" fill="black"/>
<path d="M14.6816 73.5265L13.2835 78.5784L16.9066 79.5812C17.9016 79.8566 18.1819 80.3325 17.829 80.9627L19.3726 81.39C20.0406 79.7207 19.4669 78.5181 17.4513 77.9602L15.3208 77.3705L15.808 75.61L20.6048 76.9376L21.0602 75.2919L14.6816 73.5265Z" fill="black"/>
<path d="M16.9004 67.3064L20.5482 70.2448L15.761 70.3427L15.1239 72.0406L22.1853 71.8348C22.8545 72.4252 22.9845 72.983 22.6559 73.8211L24.143 74.3792C24.7878 72.9246 24.4349 71.4914 22.8922 70.1772L17.5421 65.5962L16.9004 67.3064Z" fill="black"/>
<path d="M20.0764 60.1557L18.1612 64.2576L24.158 67.058L24.8804 65.5108L20.3708 63.4049L21.5636 60.8502L20.0764 60.1557Z" fill="black"/>
<path d="M23.1194 54.6416L23.7974 55.0293C23.0438 55.1473 22.3672 55.5839 21.8876 56.4227C21.0138 57.9511 21.6125 59.9707 23.3247 60.9498C25.0368 61.9288 27.081 61.4204 27.9548 59.892C28.4344 59.0532 28.4675 58.2487 28.1869 57.5393L28.8649 57.927L29.7124 56.4446L23.9669 53.1593L23.1194 54.6416ZM26.6991 58.808C26.1801 59.7159 25.1375 60.0193 24.1722 59.4674C23.207 58.9154 22.9396 57.8629 23.4587 56.9551C23.9843 56.0358 25.0269 55.7324 25.9921 56.2843C26.9574 56.8362 27.2247 57.8887 26.6991 58.808Z" fill="black"/>
<circle cx="98.7067" cy="99.2973" r="71.1" fill="#FFEFD8" stroke="black" stroke-width="3"/>
</svg>
