<?xml version="1.0" encoding="UTF-8" standalone="no"?>
<!DOCTYPE svg PUBLIC "-//W3C//DTD SVG 1.1//EN" "http://www.w3.org/Graphics/SVG/1.1/DTD/svg11.dtd">
<svg xmlns="http://www.w3.org/2000/svg" version="1.1" viewBox="0 0 55 51">
<path fill="#707070" d="
  M 29.69 51.00
  L 28.44 51.00
  L 25.75 48.15
  A 1.01 1.00 46.1 0 1 25.77 46.76
  L 41.59 30.89
  Q 42.94 29.54 41.02 29.53
  L 0.00 29.40
  L 0.00 23.69
  Q 25.26 23.32 32.25 23.49
  Q 37.54 23.63 40.31 23.58
  Q 42.67 23.55 41.00 21.88
  L 26.83 7.71
  A 1.00 1.00 0.0 0 1 26.83 6.29
  L 29.65 3.47
  A 1.00 1.00 0.0 0 1 31.07 3.48
  L 53.43 25.99
  A 1.00 0.99 45.2 0 1 53.43 27.40
  L 29.69 51.00
  Z"
/>
</svg>
