<svg width="138" height="138" viewBox="0 0 138 138" fill="none" xmlns="http://www.w3.org/2000/svg">
<rect x="0.829346" y="0.556641" width="136.533" height="136.533" rx="68.2667" fill="#373737"/>
<path d="M50.1197 48.6662C54.1077 48.6662 57.3407 45.4276 57.3407 41.4327C57.3407 37.4378 54.1077 34.1992 50.1197 34.1992C46.1316 34.1992 42.8987 37.4378 42.8987 41.4327C42.8987 45.4276 46.1316 48.6662 50.1197 48.6662Z" fill="white"/>
<path d="M64.1529 54.1461V94.2774H76.5916V74.4316C76.5916 69.1949 77.5751 64.1235 84.0569 64.1235C90.4495 64.1235 90.5287 70.1107 90.5287 74.7622V94.2807H102.974V72.2728C102.974 61.4622 100.651 53.1543 88.037 53.1543C81.981 53.1543 77.9217 56.4834 76.2616 59.634H76.0933V54.1461H64.1529V54.1461ZM43.8826 54.1461H56.3411V94.2774H43.8826V54.1461Z" fill="white"/>
</svg>
