<svg xmlns="http://www.w3.org/2000/svg" width="38" height="38" viewBox="0 0 38 38">
  <path id="Контур_340" data-name="Контур 340" d="M7.634.25A7.469,7.469,0,0,0,.187,7.7V30.8A7.468,7.468,0,0,0,7.634,38.25H30.742A7.467,7.467,0,0,0,38.187,30.8V7.7A7.468,7.468,0,0,0,30.742.25ZM9.507,6.521a2.992,2.992,0,1,1-.038,5.966H9.432a2.991,2.991,0,1,1,.075-5.966Zm16.92,7.919c3.776,0,6.607,2.468,6.607,7.772v9.9H27.3V22.876c0-2.321-.831-3.9-2.907-3.9a3.142,3.142,0,0,0-2.945,2.1,3.932,3.932,0,0,0-.189,1.4v9.644H15.515s.075-15.648,0-17.268h5.74V17.29a5.7,5.7,0,0,1,5.172-2.85ZM6.6,14.846h5.739V32.113H6.6V14.846Z" transform="translate(-0.187 -0.25)" fill="#636363"/>
</svg>
