<svg width="170" height="50" viewBox="0 0 170 50" fill="none" xmlns="http://www.w3.org/2000/svg">
<mask id="mask0_322_554" style="mask-type:luminance" maskUnits="userSpaceOnUse" x="0" y="0" width="50" height="50">
<path d="M49.4516 0.260986H0V49.7388H49.4516V0.260986Z" fill="white"/>
</mask>
<g mask="url(#mask0_322_554)">
<path d="M39.4137 4.49567C38.3341 3.63178 37.1921 2.84932 35.997 2.15478C35.3924 1.8037 34.7688 1.48673 34.1289 1.20533C33.4771 0.916548 32.802 0.682921 32.1111 0.50689C31.7519 0.418434 31.3876 0.35283 31.0204 0.310444C30.9277 0.310444 30.8349 0.29408 30.7477 0.285889H30.6059H30.464C30.2731 0.285889 30.0796 0.285889 29.8833 0.302271C29.6845 0.319515 29.4868 0.34867 29.2914 0.389572C29.0889 0.434139 28.8903 0.494337 28.697 0.569635C28.2923 0.727103 27.922 0.961499 27.6062 1.25991C27.2848 1.55828 27.0237 1.91584 26.8373 2.31303C26.7486 2.506 26.6757 2.70581 26.6193 2.91052C26.5656 3.10869 26.5245 3.31009 26.4965 3.51348C26.4965 3.58714 26.4774 3.65808 26.4692 3.73175C26.322 3.66354 26.1719 3.59533 26.022 3.53259C25.1131 3.13634 24.1727 2.81694 23.2106 2.57767C22.7189 2.45425 22.2198 2.36312 21.7162 2.30484C21.5881 2.28848 21.46 2.28302 21.3317 2.27209H21.1382H20.7482H20.552C20.4838 2.27209 20.4182 2.27209 20.3528 2.27209C20.2874 2.27209 20.2219 2.27209 20.1538 2.27209C19.886 2.29473 19.62 2.33484 19.3576 2.39214C19.0865 2.45349 18.8204 2.53466 18.5613 2.63497C18.0259 2.84585 17.5361 3.15804 17.1188 3.55441C16.7027 3.95977 16.3685 4.44142 16.1344 4.97313C16.0225 5.23103 15.9314 5.49743 15.8617 5.76979C15.8023 5.99061 15.7559 6.21471 15.7226 6.44095C15.399 6.35184 15.0718 6.26998 14.7409 6.19541C14.1485 6.0654 13.5482 5.97427 12.9439 5.92257C12.6385 5.90075 12.3304 5.88438 12.0195 5.88984C11.8641 5.88984 11.7087 5.88984 11.5532 5.88984L11.316 5.90894H11.1987H11.0815C10.7645 5.94408 10.4501 6.0006 10.1407 6.0781C9.82359 6.15352 9.51344 6.25576 9.21358 6.38367C7.95688 6.89767 6.94488 7.87409 6.38583 9.11197C6.24647 9.41234 6.13157 9.72346 6.04224 10.0423C5.94742 10.3704 5.87724 10.7051 5.83227 11.0436L5.81319 11.1636L5.79956 11.2837C5.79956 11.3628 5.77773 11.4419 5.77229 11.5211C5.75866 11.6793 5.74502 11.8376 5.73956 11.9958C5.7232 12.3123 5.73956 12.626 5.73956 12.9371C5.76696 13.5549 5.83619 14.1702 5.9468 14.7787C6.01497 15.1524 6.09406 15.5235 6.18677 15.8891C6.0586 15.9109 5.93043 15.9327 5.80229 15.96C5.53129 16.0214 5.26516 16.1025 5.00604 16.2028C4.47062 16.4137 3.98084 16.7258 3.56352 17.1222C3.14809 17.5281 2.81397 18.0097 2.57912 18.5409C2.46728 18.799 2.37609 19.0652 2.30644 19.3377C2.2351 19.6067 2.18135 19.8801 2.14556 20.1561C2.14556 20.2243 2.14556 20.2899 2.12374 20.3581C2.10193 20.4262 2.1101 20.4917 2.10464 20.56L2.09101 20.7592V20.9582V21.3566C2.09101 21.4876 2.09101 21.6295 2.10737 21.7495C2.14008 22.2663 2.20658 22.7803 2.30644 23.2883C2.40642 23.7902 2.52913 24.2831 2.67457 24.7669C2.82 25.2509 2.97725 25.7246 3.14632 26.1884C3.21722 26.374 3.29356 26.5567 3.36719 26.7341C3.1903 26.751 3.01456 26.7783 2.84091 26.816C2.6384 26.8606 2.43964 26.9207 2.24644 26.996C1.8416 27.1532 1.47115 27.3876 1.1557 27.6863C0.837492 27.9908 0.581023 28.354 0.400359 28.7557C0.313311 28.9491 0.24129 29.1488 0.184936 29.3533C0.130366 29.5514 0.0884697 29.7528 0.059501 29.9562C0.0315346 30.1534 0.014239 30.352 0.00769043 30.5511V30.843C0.00769043 30.9412 0.00769043 31.0394 0.00769043 31.1349C0.0270168 31.5122 0.071656 31.8877 0.141307 32.259C0.209479 32.6273 0.296738 32.9846 0.397632 33.3367C0.498527 33.6885 0.615782 34.0323 0.741217 34.3706C0.996224 35.0403 1.28845 35.6953 1.61654 36.3323C2.27226 37.585 3.03307 38.7798 3.89076 39.9036C5.59432 42.1391 7.59001 44.136 9.82442 45.8404C10.9477 46.6986 12.1418 47.4598 13.3939 48.1159C14.0295 48.4463 14.6842 48.7387 15.3545 48.9916C15.6926 49.1172 16.0362 49.2344 16.388 49.3354C16.7397 49.4364 17.097 49.5236 17.4787 49.5918C17.8498 49.6616 18.2251 49.7061 18.6022 49.7256C18.6977 49.7256 18.7959 49.7256 18.8939 49.7256H19.1857C19.3847 49.719 19.5831 49.7017 19.7801 49.6737C19.9837 49.6453 20.1849 49.6033 20.3828 49.5482C20.5872 49.4919 20.7867 49.4197 20.9801 49.3327C21.3816 49.152 21.7446 48.8952 22.049 48.5769C22.3475 48.2614 22.5817 47.8907 22.7389 47.4857C22.8153 47.2927 22.8756 47.0937 22.9189 46.8908C22.9564 46.7171 22.9839 46.5412 23.0006 46.3644L23.5459 46.5854C24.0132 46.7671 24.4877 46.9299 24.9694 47.0737C25.4549 47.2183 25.9456 47.3464 26.4474 47.4419C26.9552 47.5419 27.4688 47.6084 27.9854 47.6411C28.1135 47.6411 28.2581 47.6411 28.3779 47.6576H28.7789H28.9779H29.1769L29.3788 47.6383L29.5806 47.6165C29.8564 47.5808 30.1298 47.5269 30.3986 47.4556C30.6711 47.3871 30.9376 47.2958 31.1949 47.1828C31.7266 46.9491 32.2082 46.6147 32.6129 46.1978C33.0096 45.7807 33.3217 45.2907 33.5319 44.7545C33.6317 44.4961 33.7127 44.2308 33.7745 43.9606C33.8018 43.8324 33.8263 43.6878 33.8454 43.5733C34.2108 43.666 34.5817 43.7451 34.9552 43.8133C35.5636 43.9234 36.1784 43.9936 36.7957 44.0233C37.1067 44.0233 37.4203 44.0371 37.7366 44.0233C37.8947 44.0233 38.0528 44.0043 38.211 43.9907C38.2902 43.9907 38.3693 43.9742 38.4511 43.9634L38.5683 43.9497L38.6884 43.9306C39.0091 43.885 39.3261 43.8166 39.6372 43.7261C39.9559 43.6367 40.2669 43.5216 40.5671 43.3823C41.8044 42.8228 42.7802 41.8104 43.294 40.5529C43.4217 40.2529 43.524 39.9427 43.5993 39.6253C43.6768 39.3158 43.7333 39.0013 43.7685 38.6841L43.782 38.5668V38.4496C43.782 38.3704 43.7958 38.2912 43.7985 38.2148C43.7985 38.0567 43.8148 37.9011 43.8121 37.7455C43.8121 37.4345 43.8121 37.1263 43.7793 36.8206C43.7274 36.2161 43.6363 35.6154 43.5066 35.0228C43.4322 34.6916 43.3503 34.3643 43.2612 34.0405C43.4874 34.0075 43.7115 33.961 43.9321 33.9014C44.2042 33.8316 44.4705 33.7404 44.7283 33.6286C45.2601 33.3949 45.7415 33.0605 46.1463 32.6436C46.5431 32.2265 46.8551 31.7363 47.0651 31.2003C47.165 30.9419 47.2462 30.6766 47.308 30.4065C47.3649 30.1428 47.4051 29.8758 47.4278 29.6069C47.4278 29.5388 47.4278 29.4734 47.4443 29.4079C47.4606 29.3423 47.4443 29.2769 47.4443 29.2115V29.0123V28.5866V28.3929C47.4443 28.2646 47.4278 28.1365 47.4115 28.0083C47.353 27.5045 47.262 27.0051 47.1388 26.5131C46.8997 25.5505 46.5804 24.6095 46.1844 23.7002C46.1218 23.5501 46.0536 23.4028 45.9854 23.2527L46.2035 23.2281C46.4065 23.1979 46.6078 23.1559 46.8062 23.1028C47.0107 23.0462 47.2105 22.9732 47.4034 22.8846C47.8048 22.7048 48.1678 22.449 48.4723 22.1314C48.7701 21.8155 49.0045 21.4449 49.1621 21.0401C49.237 20.8457 49.2971 20.646 49.3422 20.4425C49.3831 20.2472 49.4122 20.0495 49.4295 19.8506C49.4295 19.6542 49.4513 19.4605 49.4458 19.2694V19.1275V18.9857C49.4458 18.8902 49.4322 18.7975 49.4212 18.7128C49.3802 18.345 49.3146 17.9806 49.2249 17.6216C49.049 16.9302 48.8154 16.2549 48.5268 15.6026C48.2455 14.9624 47.9288 14.3385 47.5779 13.7337C46.8837 12.5378 46.1016 11.3951 45.2381 10.3152C43.5209 8.16295 41.5671 6.21084 39.4137 4.49567ZM43.8176 21.2611C43.3761 21.1215 42.9427 20.9577 42.5196 20.77C41.9328 20.5113 41.3611 20.2197 40.8071 19.897C39.6836 19.2411 38.6099 18.5034 37.5947 17.6897C36.5698 16.8719 35.592 15.9966 34.6662 15.0679C33.7389 14.1413 32.8657 13.162 32.051 12.1349C31.237 11.1192 30.4989 10.045 29.8423 8.92098C29.5203 8.36727 29.2289 7.79619 28.9698 7.21033C28.7831 6.78651 28.6193 6.35299 28.4789 5.91167C30.0294 6.75944 31.5119 7.72635 32.9128 8.80367C35.9235 11.114 38.618 13.8098 40.927 16.8222C42.0006 18.2221 42.9651 19.7026 43.8121 21.2501L43.8176 21.2611ZM41.3798 32.0106C41.4206 32.1199 41.4615 32.2316 41.4996 32.3409C41.1225 32.2916 40.7483 32.2216 40.3789 32.1307C39.5026 31.9093 38.6462 31.6154 37.8185 31.2522C36.9786 30.8849 36.1593 30.4724 35.3642 30.0163C33.7505 29.0841 32.209 28.0315 30.753 26.8679C29.289 25.7081 27.8941 24.4638 26.5755 23.1409C25.2544 21.8235 24.0107 20.4308 22.8507 18.9694C21.6942 17.5151 20.6478 15.9766 19.7202 14.3667C19.2637 13.5715 18.8514 12.7517 18.4849 11.9112C18.1187 11.0807 17.8222 10.221 17.5987 9.34114C17.5079 8.97156 17.4378 8.5972 17.3887 8.21981L17.7187 8.33986C18.7814 8.73903 19.8193 9.20094 20.8272 9.72311C22.8534 10.7858 24.7855 12.0188 26.6028 13.409C28.4311 14.7977 30.1622 16.31 31.7838 17.9353C33.4085 19.5585 34.9207 21.2904 36.3105 23.1191C37.699 24.9373 38.9306 26.8704 39.9916 28.8976C40.5128 29.9038 40.9744 30.9395 41.3743 31.9997L41.3798 32.0106ZM9.39084 17.3487C9.83805 17.4361 10.2853 17.5479 10.727 17.6789C11.1687 17.8098 11.6078 17.9516 12.0414 18.129C12.9165 18.4656 13.7707 18.8547 14.5992 19.2939C16.2654 20.1821 17.8551 21.2069 19.3521 22.3579C20.8562 23.5113 22.2828 24.7627 23.6224 26.1039C24.9628 27.4442 26.2135 28.8714 27.3664 30.3764C28.5121 31.8747 29.5317 33.4651 30.4149 35.1318C30.854 35.9599 31.2429 36.8135 31.5793 37.6883C31.7485 38.123 31.8984 38.5613 32.0292 39.0033C32.1602 39.4481 32.272 39.8927 32.3592 40.3402C32.4138 40.613 32.4547 40.8859 32.4846 41.1587L32.1274 41.0167C31.0952 40.5894 30.0882 40.1028 29.1115 39.5599C27.1435 38.4576 25.2643 37.2034 23.4915 35.8085C21.7096 34.4111 20.0149 32.9058 18.4167 31.3013C16.8133 29.702 15.3098 28.0053 13.9147 26.2212C12.5231 24.4453 11.2722 22.5635 10.1735 20.5926C9.63129 19.6208 9.1451 18.6188 8.7173 17.5915C8.66821 17.4715 8.62186 17.3542 8.5755 17.2342C8.84547 17.2532 9.12088 17.2969 9.39084 17.3487ZM21.3072 43.2813C19.8754 42.4259 18.5025 41.4752 17.1979 40.4356C15.7338 39.276 14.3389 38.0316 13.0203 36.7088C11.6989 35.3898 10.4552 33.9951 9.29539 32.5318C8.25707 31.225 7.30691 29.8507 6.45127 28.4175C6.72397 28.4994 6.99665 28.5893 7.26934 28.6903C7.8856 28.9216 8.48749 29.1893 9.07178 29.4924C10.2528 30.1085 11.3786 30.825 12.4368 31.6341C13.5047 32.4433 14.5152 33.3258 15.4608 34.2751C16.4087 35.2205 17.2898 36.2306 18.0977 37.2982C18.9064 38.3568 19.6227 39.4833 20.2383 40.6649C20.5423 41.2489 20.81 41.8512 21.04 42.4683C21.1437 42.7384 21.2254 43.0085 21.3072 43.2813ZM21.6209 46.1406C21.5985 46.2786 21.5685 46.4151 21.5309 46.5498C21.4935 46.6763 21.4461 46.7994 21.3891 46.9181C21.3761 46.948 21.3616 46.9771 21.3455 47.0054L21.3018 47.0873C21.2663 47.1391 21.2364 47.191 21.1981 47.2401C21.1281 47.3385 21.0488 47.43 20.961 47.513C20.8763 47.5901 20.7851 47.6594 20.6883 47.7202C20.6365 47.753 20.5819 47.7803 20.53 47.8075L20.4455 47.843C20.4171 47.8557 20.388 47.8665 20.3583 47.8758C20.2397 47.9209 20.1175 47.9555 19.9929 47.9794C19.8604 48.0048 19.7266 48.0231 19.5921 48.034C19.4521 48.0422 19.3119 48.0422 19.1721 48.034H19.1202H19.0658H18.9566C18.8859 48.034 18.8122 48.034 18.7385 48.0122C18.4409 47.9748 18.1459 47.9191 17.855 47.8458C17.25 47.6871 16.6591 47.4789 16.088 47.2236C15.5024 46.9627 14.9308 46.6713 14.3756 46.3506C13.2525 45.6931 12.1789 44.9546 11.1633 44.1408C9.10671 42.5016 7.24074 40.6365 5.60049 38.5804C4.78649 37.5648 4.04824 36.4906 3.39173 35.3665C3.07014 34.8115 2.77884 34.2395 2.51914 33.6531C2.264 33.0818 2.05606 32.4904 1.8974 31.8851C1.82408 31.5941 1.76853 31.2989 1.73107 31.0011C1.73107 30.9275 1.71744 30.8538 1.70926 30.7829V30.6738V30.6192V30.5674C1.70926 30.4228 1.70926 30.2945 1.70926 30.1472C1.72018 30.0127 1.73839 29.8787 1.76379 29.7462C1.78801 29.6216 1.82267 29.4994 1.8674 29.3806C1.87666 29.3509 1.88758 29.3218 1.90013 29.2932L1.93559 29.2087C1.96286 29.1569 1.99013 29.1023 2.02284 29.0504C2.08375 28.9535 2.15309 28.8622 2.23008 28.7775C2.31296 28.6889 2.40429 28.6084 2.50277 28.5375C2.55185 28.4994 2.60367 28.4693 2.65548 28.4365L2.73728 28.3902C2.76552 28.374 2.79466 28.3594 2.82454 28.3465C2.94282 28.2892 3.06602 28.2426 3.19268 28.2074C3.32656 28.1671 3.46329 28.1371 3.6017 28.1173C3.7244 28.0982 3.84984 28.0847 3.97527 28.0764C4.11163 28.3493 4.24797 28.6221 4.39794 28.9113C5.32292 30.6502 6.39195 32.3084 7.59383 33.8686C8.7858 35.4241 10.0784 36.8996 11.4632 38.2857C12.8451 39.6689 14.3172 40.9584 15.8699 42.1463C17.4301 43.3477 19.0874 44.4171 20.8247 45.3438C21.0973 45.4912 21.37 45.6304 21.659 45.7668C21.6508 45.8951 21.6372 46.0178 21.6209 46.1406ZM32.3728 43.5951C32.3198 43.7893 32.2515 43.9792 32.1683 44.1626C32.1465 44.2062 32.1274 44.2526 32.1056 44.2962L32.0347 44.4245L31.961 44.5472L31.942 44.58L31.9229 44.6072L31.882 44.6673C31.7717 44.821 31.6477 44.9645 31.5111 45.0955C31.3735 45.2227 31.2236 45.336 31.064 45.434L31.0039 45.4721L30.974 45.4884L30.944 45.5049L30.8186 45.5731L30.6876 45.633L30.554 45.6876C30.3706 45.7578 30.1818 45.8135 29.9896 45.854C29.7899 45.896 29.5876 45.9251 29.3841 45.9414H29.2287H29.0734H28.6779H28.5962H28.438C28.329 45.9414 28.2225 45.9251 28.1135 45.9114C27.6772 45.8628 27.2443 45.7853 26.8183 45.6795C25.9423 45.4578 25.086 45.1648 24.2577 44.8036C23.7614 44.5881 23.2678 44.3535 22.7853 44.0997C22.7864 44.088 22.7864 44.0761 22.7853 44.0644C22.6104 43.3726 22.377 42.6971 22.0871 42.0453C21.8071 41.4056 21.4921 40.7816 21.1437 40.1765C20.4481 38.9808 19.6652 37.838 18.8012 36.758C17.9412 35.6825 17.0198 34.6577 16.0417 33.6885C15.0685 32.714 14.0406 31.7959 12.963 30.9384C11.8839 30.0733 10.7418 29.2899 9.54628 28.5948C8.94054 28.2452 8.31606 27.9291 7.67563 27.6482C7.02415 27.3581 6.34905 27.1244 5.65776 26.9496H5.62232C5.37144 26.4667 5.13419 25.9756 4.92151 25.4763C4.55845 24.6482 4.26477 23.7913 4.04346 22.9144C3.93721 22.4882 3.85977 22.0552 3.81166 21.6185C3.81166 21.5094 3.79259 21.403 3.78167 21.2967V21.1356V20.6472C3.77895 20.5954 3.77895 20.5435 3.78167 20.4917C3.78167 20.44 3.78167 20.3881 3.78167 20.3363C3.79814 20.1327 3.8273 19.9304 3.86893 19.7306C3.91027 19.5384 3.96589 19.3496 4.03527 19.1658C4.05436 19.1222 4.07073 19.0757 4.0898 19.0321L4.1498 18.9012L4.21797 18.7757L4.23433 18.7456L4.2507 18.7156L4.28887 18.6557C4.38674 18.4957 4.49999 18.346 4.62701 18.2082C4.75741 18.0718 4.9008 17.9483 5.05512 17.8398L5.11511 17.799L5.14511 17.7772L5.17511 17.7579L5.29781 17.6842L5.42598 17.6133L5.55959 17.5507C5.74957 17.4676 5.94555 17.3993 6.14586 17.346C6.28766 17.3078 6.4322 17.2778 6.57944 17.2505C6.69124 17.597 6.81121 17.9408 6.93665 18.2791C7.35752 19.3984 7.84468 20.4917 8.39553 21.553C9.49656 23.6581 10.7737 25.6659 12.2132 27.5553C13.6416 29.4288 15.1939 31.2043 16.8597 32.8701C18.5274 34.5414 20.3068 36.0973 22.1853 37.5272C24.0728 38.9687 26.0798 40.2465 28.1844 41.3469C29.2452 41.8982 30.3378 42.3856 31.4567 42.8065C31.7948 42.9321 32.1384 43.0521 32.4846 43.1641C32.4437 43.3086 32.4111 43.4532 32.3728 43.5951ZM42.4622 36.8697C42.4622 37.1426 42.4622 37.4155 42.4622 37.6883C42.4622 37.8219 42.4459 37.961 42.4349 38.0865C42.4349 38.1521 42.4186 38.2176 42.4131 38.283L42.3996 38.3812L42.3833 38.4794C42.3461 38.736 42.2905 38.9894 42.2169 39.2379C42.1454 39.4805 42.0541 39.7169 41.9442 39.9445C41.7397 40.3878 41.4549 40.7891 41.1044 41.1287C40.752 41.4596 40.3415 41.7222 39.8936 41.9035C39.6647 41.9986 39.4285 42.0754 39.1874 42.1327C38.9405 42.1925 38.69 42.2353 38.4375 42.261H38.342H38.2465H38.0528C37.922 42.261 37.7939 42.2746 37.6603 42.261C37.3876 42.261 37.134 42.2608 36.8694 42.2309C36.3332 42.1822 35.8003 42.1003 35.2742 41.9854C34.797 41.8817 34.3226 41.7506 33.8509 41.6033V41.5351C33.7923 41.0314 33.7012 40.532 33.5782 40.04C33.3391 39.0774 33.0197 38.1366 32.6237 37.2273C32.2359 36.3302 31.7981 35.4558 31.3121 34.6081C30.3438 32.9264 29.25 31.3202 28.0398 29.8034C26.8417 28.289 25.556 26.8461 24.1895 25.4818C22.8252 24.1145 21.3819 22.8281 19.8675 21.6295C18.3564 20.4374 16.7575 19.3612 15.0845 18.4101C14.2369 17.9243 13.363 17.4863 12.4667 17.0977C11.5579 16.7015 10.6175 16.3821 9.65535 16.1428C9.1637 16.0194 8.66454 15.9283 8.16102 15.87H8.09285C7.94559 15.3989 7.81835 14.9242 7.71109 14.4458C7.59626 13.9194 7.51431 13.3863 7.46568 12.8497C7.44658 12.5769 7.43295 12.3205 7.43568 12.0585C7.43568 11.9249 7.43568 11.7857 7.43568 11.6657C7.43568 11.6002 7.43568 11.5374 7.43568 11.472V11.3765V11.281C7.46132 11.0283 7.50414 10.7776 7.56383 10.5307C7.62118 10.2894 7.69778 10.0531 7.79289 9.82406C7.98292 9.37039 8.25675 8.95665 8.60004 8.60451C8.94305 8.25459 9.34803 7.9715 9.79442 7.76963C10.0246 7.65917 10.2636 7.56791 10.5089 7.49681C10.7575 7.42435 11.0108 7.36875 11.2669 7.33038L11.3651 7.31402H11.4632C11.5287 7.31402 11.5941 7.29492 11.6596 7.28946C11.7932 7.28946 11.9323 7.2649 12.0577 7.26217C12.3304 7.24581 12.6031 7.26217 12.8758 7.26217C13.4245 7.28816 13.971 7.34922 14.5119 7.44497C14.8909 7.51317 15.27 7.59776 15.649 7.69325V7.80511C15.649 7.93606 15.649 8.07794 15.6653 8.19798C15.6981 8.7147 15.7646 9.22874 15.8644 9.73674C15.9662 10.2388 16.0889 10.7317 16.2325 11.2155C16.3762 11.6993 16.5389 12.174 16.7207 12.6397C17.0825 13.5665 17.4967 14.4719 17.9614 15.3516C18.8833 17.085 19.9476 18.7385 21.1437 20.2954C22.3356 21.8506 23.6282 23.3262 25.0131 24.7125C26.3972 26.0995 27.872 27.3929 29.4278 28.5838C30.9872 29.7841 32.6436 30.8527 34.3798 31.7788C35.2579 32.2459 36.163 32.6605 37.0904 33.0202C37.5575 33.202 38.032 33.3649 38.5137 33.5085C38.9992 33.6531 39.4899 33.7814 39.9916 33.8769C40.4994 33.9768 41.0133 34.0433 41.5297 34.0759C41.6578 34.0759 41.8024 34.0759 41.9224 34.0924H42.0342C42.1296 34.4715 42.2141 34.8509 42.2823 35.23C42.3781 35.7722 42.4392 36.3198 42.465 36.8697H42.4622ZM45.5927 25.4409C45.7236 25.8829 45.8354 26.3304 45.9226 26.7777C46.0094 27.219 46.0659 27.6656 46.0917 28.1145C46.0917 28.2265 46.0917 28.3383 46.1053 28.4475V28.7775V28.9414L46.0917 29.1023C46.0917 29.1569 46.0917 29.2115 46.0782 29.2632C46.0644 29.315 46.0782 29.3696 46.0589 29.4215C46.0287 29.6284 45.9869 29.8333 45.9336 30.0354C45.8806 30.2296 45.8123 30.4195 45.7291 30.6029C45.7073 30.6465 45.6882 30.6929 45.6664 30.7365L45.5955 30.8648L45.5218 30.9876L45.5027 31.0204L45.4837 31.0475L45.4426 31.1076C45.3325 31.2613 45.2083 31.4048 45.0719 31.5358C44.9345 31.6623 44.7857 31.7755 44.6274 31.8743L44.5647 31.9124L44.5346 31.9287L44.5048 31.9452L44.3792 32.0134L44.2484 32.0733L44.1148 32.1279C43.9312 32.1981 43.7424 32.2538 43.5502 32.2943C43.3505 32.3363 43.1483 32.3654 42.9449 32.3817H42.7895H42.7377C42.6394 32.1107 42.5359 31.8433 42.4269 31.5796C41.9774 30.4908 41.4655 29.4285 40.8943 28.3984C39.7565 26.354 38.458 24.4035 37.0112 22.5653C35.5744 20.7286 34.0263 18.9818 32.3755 17.3352C30.7303 15.6828 28.9845 14.1338 27.1481 12.697C25.3088 11.2549 23.3585 9.96035 21.3154 8.82549C20.2885 8.25415 19.2296 7.74222 18.1441 7.29219C17.8805 7.18306 17.6132 7.07938 17.3424 6.98116C17.3424 6.96479 17.3424 6.9457 17.3424 6.92932C17.3424 6.91295 17.3424 6.82565 17.3424 6.77381C17.3586 6.57027 17.3878 6.36798 17.4296 6.16813C17.4715 5.97582 17.528 5.78702 17.5987 5.60337C17.6178 5.55971 17.6341 5.51333 17.6532 5.46968L17.7132 5.33871L17.7814 5.21322L17.7978 5.18321L17.8141 5.15319L17.8523 5.09318C18.0483 4.7702 18.3092 4.49149 18.6185 4.27468L18.6786 4.23376L18.7085 4.21194L18.7385 4.19282L18.8613 4.11918L18.9894 4.04824L19.123 3.98548C19.3062 3.90226 19.4959 3.83384 19.6902 3.78086C19.8919 3.72711 20.0968 3.68612 20.3037 3.65808C20.3561 3.64903 20.4089 3.64265 20.4618 3.63898C20.5152 3.63083 20.5688 3.62537 20.6227 3.62262H20.7836H20.9473H21.2745C21.3863 3.62262 21.4954 3.62262 21.6071 3.63625C22.0559 3.66185 22.5023 3.71839 22.9434 3.80541C23.3905 3.89271 23.8379 4.00457 24.2795 4.13554C24.7213 4.26649 25.1604 4.40836 25.5965 4.58572C25.8857 4.69757 26.1747 4.81489 26.4611 4.94038C26.4835 5.23882 26.5227 5.53576 26.5782 5.82981C26.6464 6.19541 26.7338 6.55554 26.8346 6.92114C26.9355 7.28673 27.0501 7.61686 27.1782 7.95518C27.4309 8.62492 27.7232 9.27906 28.0536 9.9141C28.7085 11.168 29.4694 12.3637 30.3277 13.4882C31.1778 14.6045 32.1016 15.6627 33.0928 16.6557C34.0849 17.6489 35.1436 18.5732 36.2614 19.4222C37.3842 20.2811 38.5784 21.0423 39.8308 21.6976C40.4663 22.0286 41.121 22.3211 41.7915 22.5734C42.1269 22.7017 42.4732 22.8162 42.8249 22.9172C43.1767 23.0181 43.5339 23.1054 43.8993 23.1737C44.1934 23.2289 44.4901 23.269 44.7882 23.2938C44.9138 23.5666 45.0311 23.8666 45.1428 24.1585C45.3228 24.5714 45.4736 24.9989 45.5955 25.4409H45.5927ZM44.5291 10.8444C45.3386 11.9037 46.0547 13.0311 46.6699 14.2139C46.9726 14.7986 47.2403 15.4008 47.4716 16.0173C47.7008 16.6161 47.876 17.2344 47.9951 17.8644C48.0531 18.1706 48.0886 18.4807 48.1014 18.792C48.1014 18.8684 48.1014 18.9421 48.1014 19.0185V19.2422C48.0954 19.3885 48.0809 19.5342 48.0578 19.6788C48.0367 19.816 48.0067 19.9518 47.9678 20.0852C47.931 20.2122 47.8845 20.3363 47.8288 20.4563C47.8124 20.4836 47.8015 20.5136 47.7851 20.5408L47.7388 20.6227C47.706 20.6745 47.6734 20.7291 47.6378 20.7755C47.5669 20.8739 47.4864 20.9654 47.3979 21.0484C47.3102 21.1283 47.2141 21.1986 47.1115 21.2584C47.0624 21.2884 47.008 21.3157 46.9534 21.343L46.8716 21.3812L46.7762 21.4112C46.6561 21.4546 46.5332 21.4893 46.408 21.5149C46.2766 21.5408 46.1436 21.558 46.01 21.5666C45.8736 21.5666 45.7373 21.5804 45.59 21.5666H45.4837H45.3745C45.301 21.5666 45.2301 21.5666 45.1564 21.5448H45.1401C45.0554 21.3894 44.971 21.2338 44.8837 21.081C43.9154 19.3993 42.8216 17.7933 41.6114 16.2765C40.4194 14.7619 39.1392 13.3189 37.7774 11.9549C36.4087 10.5871 34.961 9.30077 33.4419 8.10249C31.9264 6.89089 30.3211 5.7964 28.6398 4.82852C28.4871 4.74122 28.3317 4.65665 28.1762 4.57206C28.1762 4.57206 28.1762 4.55024 28.1762 4.53933C28.1762 4.46567 28.1762 4.39473 28.1543 4.32106V4.21465V4.10552C28.1463 3.96559 28.1463 3.8253 28.1543 3.68537C28.1631 3.55161 28.1804 3.41855 28.2062 3.28703C28.233 3.1622 28.2676 3.03918 28.3097 2.91872C28.3097 2.89143 28.3317 2.86141 28.3453 2.83413L28.3807 2.74956C28.408 2.69498 28.4353 2.64043 28.4653 2.59132C28.5265 2.49401 28.5969 2.40266 28.6751 2.31848C28.7582 2.22984 28.8494 2.14944 28.948 2.0784C28.9942 2.04292 29.0488 2.01019 29.1007 1.97744L29.1824 1.93106L29.267 1.88741C29.3874 1.83286 29.5113 1.78637 29.6378 1.74827C29.7712 1.70962 29.907 1.67955 30.044 1.65824C30.1886 1.63519 30.3343 1.62062 30.4804 1.61459H30.6876C30.764 1.61459 30.8377 1.61459 30.9139 1.61459C31.2251 1.62883 31.5348 1.66438 31.8412 1.72098C32.4745 1.83854 33.0961 2.01294 33.6981 2.2421C34.3143 2.47341 34.9161 2.74127 35.5005 3.04421C36.6814 3.65982 37.808 4.37446 38.8683 5.18048C41.0012 6.80524 42.9053 8.71039 44.5291 10.8444Z" fill="white"/>
</g>
<path d="M59.6341 44.5L71.2098 7.78421H80.2103L91.786 44.5H85.4627L74.9579 11.5578H76.3347L65.9574 44.5H59.6341ZM66.0849 36.5449V30.8081H85.3607V36.5449H66.0849ZM105.192 45.2904C103.152 45.2904 101.47 44.9504 100.144 44.2705C98.818 43.5906 97.7641 42.7237 96.9822 41.6698C96.2003 40.6159 95.6223 39.4941 95.2484 38.3042C94.8744 37.1143 94.628 35.9925 94.509 34.9386C94.407 33.8677 94.356 33.0008 94.356 32.3379V16.9632H100.577V30.2216C100.577 31.0715 100.637 32.0319 100.756 33.1028C100.875 34.1567 101.147 35.1766 101.572 36.1625C102.014 37.1313 102.66 37.9303 103.509 38.5592C104.376 39.1881 105.541 39.5026 107.003 39.5026C107.784 39.5026 108.558 39.3751 109.323 39.1201C110.088 38.8651 110.776 38.4317 111.388 37.8198C112.017 37.1908 112.518 36.3324 112.892 35.2446C113.266 34.1567 113.453 32.7798 113.453 31.114L117.099 32.6694C117.099 35.0151 116.64 37.1398 115.723 39.0436C114.822 40.9474 113.487 42.4687 111.719 43.6076C109.952 44.7295 107.776 45.2904 105.192 45.2904ZM114.193 44.5V35.9585H113.453V16.9632H119.624V44.5H114.193ZM125.257 44.5V16.9632H130.688V23.6689L130.025 22.802C130.365 21.8841 130.816 21.0512 131.377 20.3033C131.954 19.5384 132.643 18.9094 133.442 18.4165C134.122 17.9575 134.87 17.6006 135.686 17.3456C136.518 17.0736 137.368 16.9122 138.235 16.8612C139.102 16.7932 139.944 16.8272 140.759 16.9632V22.7C139.944 22.462 139 22.3855 137.929 22.4705C136.875 22.5555 135.924 22.853 135.074 23.3629C134.224 23.8219 133.527 24.4083 132.983 25.1222C132.456 25.8361 132.065 26.652 131.81 27.5699C131.555 28.4708 131.428 29.4482 131.428 30.5021V44.5H125.257ZM151.148 45.2649C149.159 45.2649 147.476 44.891 146.1 44.143C144.723 43.3781 143.677 42.3667 142.963 41.1089C142.266 39.851 141.918 38.4657 141.918 36.9529C141.918 35.627 142.139 34.4372 142.581 33.3833C143.023 32.3124 143.703 31.3945 144.621 30.6296C145.539 29.8477 146.728 29.2103 148.19 28.7173C149.295 28.3603 150.587 28.0374 152.066 27.7484C153.562 27.4595 155.176 27.196 156.91 26.958C158.661 26.703 160.488 26.4311 162.392 26.1421L160.199 27.3915C160.216 25.4877 159.791 24.0853 158.925 23.1844C158.058 22.2835 156.596 21.8331 154.539 21.8331C153.298 21.8331 152.1 22.1221 150.944 22.7C149.788 23.2779 148.981 24.2723 148.522 25.6832L142.912 23.9239C143.592 21.5951 144.884 19.7253 146.788 18.3145C148.709 16.9037 151.292 16.1982 154.539 16.1982C156.987 16.1982 159.137 16.5977 160.99 17.3966C162.86 18.1955 164.245 19.5044 165.146 21.3232C165.639 22.292 165.936 23.2864 166.038 24.3063C166.14 25.3092 166.191 26.4056 166.191 27.5954V44.5H160.811V38.5337L161.704 39.5026C160.463 41.4913 159.01 42.9532 157.344 43.8881C155.695 44.806 153.63 45.2649 151.148 45.2649ZM152.372 40.3695C153.766 40.3695 154.955 40.123 155.941 39.6301C156.927 39.1371 157.709 38.5337 158.287 37.8198C158.882 37.1058 159.281 36.4344 159.485 35.8055C159.808 35.0236 159.987 34.1312 160.021 33.1283C160.072 32.1084 160.097 31.284 160.097 30.6551L161.984 31.216C160.131 31.505 158.542 31.76 157.216 31.9809C155.89 32.2019 154.752 32.4144 153.8 32.6184C152.848 32.8053 152.006 33.0178 151.275 33.2558C150.561 33.5108 149.958 33.8082 149.465 34.1482C148.972 34.4881 148.59 34.8791 148.318 35.3211C148.063 35.763 147.935 36.2814 147.935 36.8764C147.935 37.5563 148.105 38.1597 148.445 38.6867C148.785 39.1966 149.278 39.6046 149.924 39.9105C150.587 40.2165 151.403 40.3695 152.372 40.3695Z" fill="white"/>
</svg>
