<svg width="80" height="80" viewBox="0 0 80 80" fill="none" xmlns="http://www.w3.org/2000/svg">
<circle cx="40" cy="40" r="40" fill="#CF4E32"/>
<path d="M39.6436 39.0852C42.9525 39.0852 45.8173 37.8984 48.1588 35.557C50.4995 33.2159 51.6866 30.3515 51.6866 27.0422C51.6866 23.7341 50.4998 20.8693 48.1584 18.5274C45.8169 16.1868 42.9521 15 39.6436 15C36.3343 15 33.4699 16.1868 31.1288 18.5278C28.7877 20.8689 27.6006 23.7337 27.6006 27.0422C27.6006 30.3515 28.7877 33.2163 31.1288 35.5574C33.4706 37.8981 36.3355 39.0852 39.6436 39.0852ZM33.2009 20.5996C34.9973 18.8032 37.1045 17.9301 39.6436 17.9301C42.1823 17.9301 44.2899 18.8032 46.0866 20.5996C47.8829 22.3963 48.7565 24.5039 48.7565 27.0422C48.7565 29.5813 47.8829 31.6885 46.0866 33.4852C44.2899 35.2819 42.1823 36.1551 39.6436 36.1551C37.1053 36.1551 34.998 35.2816 33.2009 33.4852C31.4042 31.6889 30.5307 29.5813 30.5307 27.0422C30.5307 24.5039 31.4042 22.3963 33.2009 20.5996Z" fill="white"/>
<path d="M60.7157 53.4469C60.6482 52.4726 60.5116 51.4099 60.3106 50.2876C60.1077 49.1569 59.8463 48.088 59.5335 47.1111C59.2101 46.1013 58.771 45.1042 58.2274 44.1486C57.664 43.1568 57.0017 42.2931 56.2586 41.5825C55.4816 40.839 54.5302 40.2412 53.43 39.8052C52.3337 39.3715 51.1187 39.1517 49.819 39.1517C49.3086 39.1517 48.815 39.3612 47.8617 39.9818C47.275 40.3644 46.5887 40.8069 45.8228 41.2964C45.1678 41.7137 44.2805 42.1047 43.1845 42.4587C42.1152 42.8047 41.0296 42.9802 39.9577 42.9802C38.8865 42.9802 37.8008 42.8047 36.7308 42.4587C35.636 42.1051 34.7483 41.7141 34.0945 41.2967C33.3357 40.8119 32.6491 40.3694 32.0536 39.9814C31.1011 39.3608 30.6075 39.1514 30.097 39.1514C28.797 39.1514 27.5824 39.3715 26.4864 39.8056C25.387 40.2408 24.4353 40.8386 23.6575 41.5828C22.9144 42.2939 22.2521 43.1572 21.6891 44.1486C21.1462 45.1042 20.7068 46.101 20.3833 47.1115C20.0709 48.0884 19.8096 49.1569 19.6066 50.2876C19.4052 51.4083 19.269 52.4715 19.2015 53.4481C19.1351 54.4029 19.1016 55.3966 19.1016 56.4006C19.1016 59.0106 19.9313 61.1236 21.5674 62.6819C23.1833 64.2196 25.321 64.9993 27.9215 64.9993H51.9968C54.5966 64.9993 56.7343 64.2196 58.3506 62.6819C59.9871 61.1247 60.8168 59.011 60.8168 56.4002C60.8164 55.3928 60.7825 54.3991 60.7157 53.4469ZM56.3303 60.559C55.2626 61.5753 53.8451 62.0693 51.9965 62.0693H27.9215C26.0725 62.0693 24.655 61.5753 23.5876 60.5594C22.5405 59.5626 22.0316 58.2019 22.0316 56.4006C22.0316 55.4637 22.0625 54.5387 22.1243 53.6506C22.1846 52.7793 22.3078 51.8222 22.4905 50.8052C22.671 49.8008 22.9006 48.8582 23.1738 48.0049C23.4358 47.1866 23.7933 46.3764 24.2365 45.5959C24.6596 44.852 25.1463 44.2138 25.6834 43.6996C26.1858 43.2186 26.8191 42.8249 27.5652 42.5297C28.2553 42.2565 29.0308 42.107 29.8727 42.0845C29.9754 42.139 30.1581 42.2432 30.4541 42.4362C31.0564 42.8287 31.7507 43.2766 32.5182 43.7668C33.3834 44.3184 34.4981 44.8166 35.8298 45.2465C37.1912 45.6867 38.5798 45.9102 39.958 45.9102C41.3363 45.9102 42.7252 45.6867 44.0859 45.2469C45.4188 44.8162 46.5331 44.3184 47.3994 43.766C48.1848 43.264 48.8596 42.8291 49.462 42.4362C49.758 42.2436 49.9407 42.139 50.0433 42.0845C50.8856 42.107 51.6611 42.2565 52.3516 42.5297C53.0974 42.8249 53.7306 43.219 54.233 43.6996C54.7701 44.2135 55.2569 44.8517 55.6799 45.5963C56.1236 46.3764 56.4814 47.187 56.7431 48.0045C57.0166 48.859 57.2466 49.8012 57.4267 50.8049C57.609 51.8238 57.7326 52.7813 57.7929 53.651V53.6518C57.8551 54.5364 57.8864 55.4611 57.8867 56.4006C57.8864 58.2023 57.3775 59.5626 56.3303 60.559Z" fill="white"/>
</svg>
