<svg width="483" height="252" fill="none" xmlns="http://www.w3.org/2000/svg"><path fill="#F9BD59" d="M0 .616h483v251H0z"/><path fill-rule="evenodd" clip-rule="evenodd" d="M266.606 124.696v-.698c1.135-.523 1.135-.785.96-1.918 4.186-1.569 6.627-5.757 8.634-9.419.698-1.919 2.006-4.535.698-7.151-3.575-7.239-9.246-8.11-12.386-14.652-1.743-3.75-4.795-2.006-6.715-1.395-2.267-.087-10.465-2.354-10.987-4.447a94.724 94.724 0 0 1 6.365-.872c4.536.872 8.546.872 10.03-.437 4.446 0 6.017 1.919 7.151 3.925 2.529 7.936 2.268 8.459 8.983 13.168 2.618 2.529 3.316 5.495 3.054 8.373-.524 7.413-8.721 14.302-15.787 15.523Zm-107.271 77.097c-1.482-.697-2.879-1.657-4.36-2.268-1.832-.785-3.577-1.395-4.71-2.355-2.268-2.18-2.355-5.145.872-9.506 1.221-1.657 3.663-2.966 5.844-2.879 1.22 0 2.006-.523 1.918-1.221-1.482.088-2.966.175-4.447.349v-.784c7.239-3.228 10.029-1.657 14.478 0 .61.261 1.395 0 2.18.261 1.831-.349 7.762-2.529 10.03-3.575 8.372-5.757 16.396-13.344 24.856-20.322 2.966-2.356 5.843-5.058 9.07-6.977 2.093-1.309 4.274-2.443 6.192-3.751 1.134-.784 2.094-1.918 3.14-2.704 3.402-2.442 7.24-4.273 10.902-6.104 2.006-.96 3.838-2.268 5.929-3.141-.087-.173-.174-.349-.174-.61-4.273.96-17.703 4.1-19.622 8.373-.175 0-.263.348-.524 0-.087-.087 0-.523-.087-.698.959-.958 1.831-2.355 3.488-4.535 1.658-1.395 3.577-2.355 4.623-3.052 0-.088-.262-.349-.262-.437-6.541 2.006-9.157 5.233-10.726 9.856-.437 1.307-2.53 1.744-4.536 2.005-6.279.61-8.459 1.046-12.122 3.314-.524.349-.698 1.134-1.309 1.483-.349.261-.698.435-1.046.697 0-.349-.35-.436-.174-.785 2.005-3.14 4.709-6.279 7.064-8.982 3.924-3.054 8.546-5.146 9.332-7.065-5.495.348-11.687 2.005-14.826 6.715-.262.087-.523.087-.785.174 1.307-5.232 5.494-9.332 11.076-10.901.785-.262 1.047-.872 1.831-1.134.96-4.361-.349-5.843-2.529-6.191-3.14-1.309-6.715-.96-8.198-5.059 2.442-.087 3.314-.436 4.274-2.092.349-.698 1.918-.349 3.663.523 1.046 0 1.832-.174 2.878-.174-.088.436-.088.871-.174 1.308-1.309.523-2.355 1.308-3.401 2.18-.088.262-.088.61-.088.96 7.152 4.623 11.25 5.058 16.919.697.523-2.442 0-3.575-1.744-3.924-2.093.698-5.494 2.878-8.198 2.791.088-.348.088-.61.175-.871 2.965-.524 5.146-5.407 8.023-10.902 2.791-5.233 6.279-11.163 9.681-16.047 2.443-3.315 4.622-6.367 7.064-8.11.089-.263.262-.525.436-.698h.697c0 .785-.26 4.447 1.484 4.447.087-.437.173-.785.173-1.22h1.92c5.668 8.983 8.894 8.633 18.402 12.558 7.675 6.018 3.051 10.378-.786 14.041-.436.437-.609 1.135-.958 1.658 0 .611.087 1.481-.089 2.354-.871 3.315-3.226 7.588-2.878 9.158 4.971-.872 8.373-2.006 11.513-3.227 4.972-2.005 9.856-1.22 18.315-.871v.436c-4.099.523-8.199 1.134-12.472 2.268-6.977 1.832-14.04 4.709-20.582 7.151-6.017 2.268-11.688 5.582-17.269 8.809-8.023 4.709-15.524 9.681-21.89 14.739-11.076 10.639-20.408 18.837-31.746 24.419-6.018 2.879-12.471 5.232-20.146 6.453-2.879.96-5.233 2.53-6.018 4.274-.523 1.133.088 2.791 1.134 4.622 1.918.087 1.569-3.662 3.227-6.366.523-.523 1.657-.697 2.703-.96 3.227 0 5.843.263 8.285-.174 1.657-.261 3.226-1.221 5.232-1.569 0 .087 0 .262-.087.436-4.797 1.744-9.07 3.227-13.954 4.186-.349.872-.785 1.831-.262 2.443.872.697 2.356.086 4.36.261 9.333 2.704 15.349.523 18.054-1.656 4.971-5.669 9.419-9.593 13.78-12.821 2.791-2.093 5.407-4.186 8.547-5.581 6.628-3.053 14.739-4.448 25.728-5.931 1.658-.435 2.793-.609 3.837-1.569.786-.611 1.048-1.569 1.397-2.356.958-2.267 1.133-4.011 1.917-5.668 1.482-3.14 3.924-5.494 9.943-7.5 4.446-1.395 12.908-.611 18.924-1.483 1.047-.087 2.18.088 3.054-.174.959-.349 1.481-1.047 2.092-1.482 4.709-6.891 10.987-14.826 18.838-18.925 2.179-1.047 4.273-2.006 6.627-2.443-.086.437.087.349 0 .698-.435.523-1.133 1.046-1.657 1.744-2.615 3.402-5.668 8.546-2.704 13.169 0 .087.089.784-.522 1.046-2.268.959-4.013 5.059-4.013 8.199-3.576 6.016-11.686 9.331-21.716 8.111-5.494-.698-11.25-.698-14.478.871-1.306.611-1.655 1.744-2.179 2.791-.262 1.57-.697 4.884-1.568 6.106-1.309 1.743-3.14 2.791-5.233 3.837-2.356 1.133-4.71 2.442-7.675 2.878-4.536.784-9.856.262-14.217.262-2.442.435-11.251 3.314-17.53 6.89-4.012 2.355-7.413 5.755-7.152 7.937 0 .435.611.086.872.435 7.064-.61 14.39-.958 21.018-.61 22.414-3.837 44.392-8.721 69.159-4.186 13.781.435 27.648 1.395 41.688 2.356v.435c-1.568 0-3.053-.262-4.535 0-2.356.349-3.313.872-6.977.872-17.443-.436-39.769-1.831-55.38 2.443.087.261.087.523.173.871 16.921.349 34.015 2.269 50.934 2.704v.436c-1.222 0-2.529.087-3.838.175-2.092.086-3.837.61-6.105.784-2.791.174-8.373-.174-11.337-.087-2.181.175-3.315.698-4.797.872-1.395.261-3.227.087-5.233.175-25.206-.175-24.857-1.134-28.694 0 .349.261.611.261.96.872-8.459 0-17.18.262-25.553.174-2.18-.872-4.885-.523-7.414-.523-7.936-2.093-18.663-2.705-27.298-.523-5.493-.523-9.855.086-10.813.609-2.006.349-3.576-.173-5.321.175-5.146.873-8.459-.175-12.907-1.221-4.098-.004-7.15.607-10.9 1.654Zm-6.367-8.286c-2.529-2.965.087-6.016 3.226-6.453 2.531-.349 4.885-1.744 5.583-1.046-.262.174-.523.523-1.048.785-1.395.698-3.401 1.57-4.447 3.575-.436.786-1.047 1.744-1.569 2.268-.698.61-1.483.785-1.745.871Zm84.422-71.427v-15.961c-.261 0-.435.088-.697.088-3.662 3.924-6.454 6.192-7.326 13.169-1.657-.175-2.965-.872-4.273-1.308-.436-3.053 2.005-4.36 4.447-6.89 2.006-2.006 3.925-4.361 5.931-6.541 3.227-3.401 5.495-6.89 6.192-8.285.26.087.871.087 1.046.262.263 7.326 3.925 10.988 4.449 12.471-.089.611-.349.872-.7 1.483-.609.958-2.179 1.744-3.837 2.965-2.529 4.71-2.529 4.71-4.36 8.459-.261 0-.522.088-.872.088Zm4.449 7.588c-.26-.087-.785-.436-1.047-.523 1.222-2.268 3.578-2.617 4.013-5.931.436-2.791 1.917-4.098 4.273-4.71 1.133-.349 2.006-.698 3.227-1.221 1.221-.96 1.919-2.006 2.006-3.14 0-1.308 0-2.791-.087-4.012-2.268-3.052-7.764-7.675-7.326-11.773 1.657 1.308 2.179 2.703 10.029 5.146 3.052 1.657 5.493 4.186 3.489 6.977-4.275 2.53-5.146 3.925-5.581 7.675-.262 1.832-.698 3.925-1.657 5.495-2.007 3.487-6.107 6.104-11.339 6.017Zm-46.31 2.703c-3.054-4.535-5.146-7.849-5.669-10.465-.959-4.449 1.134-7.064.349-11.687-1.57-3.662-3.576-7.675-4.884-11.076-2.181-10.814 9.681-18.576 13.256-27.647 3.751-11.512 3.14-7.326 4.186-10.03.088-.261-.087-.261-.087-.61-4.798.697-8.024 1.831-10.03 3.575-5.842 4.885-2.878 13.519-9.419 22.414-6.628 4.623-6.803 7.675-6.279 11.6.437 3.663 2.181 7.5 4.361 11.425 1.395 2.616 3.228 5.233 4.098 8.198-2.965-2.18-6.104-6.89-8.808-11.512-3.314-5.583-4.622-11.775-3.052-16.484 5.407-6.628 7.413-12.82 8.547-18.489.784-3.837 2.093-6.89 5.319-9.158 2.006-1.395 5.669-2.79 10.291-4.098 4.274-1.308 9.332-2.443 13.082-4.884 5.32-3.314 8.024-3.14 10.204-2.878 2.879.523 7.065 2.617 9.332 3.663 0 .262.087.611.087.872-6.628-3.489-9.331-3.314-16.309.175-.087.348 0 .697 0 1.046 6.018 0 8.459 1.57 13.781 4.623 2.703-1.047 8.633 2.965 10.203 4.447.437 1.046 1.308 1.831.873 2.791-1.047 2.442-1.744 6.541-3.838 8.547-2.092 2.006-3.401 3.75-3.662 6.105-.262 0-.523-.175-.697-.175 1.134-7.325 7.325-11.861.785-17.966-12.647-10.378-22.326-9.244-27.211 1.134-.523 1.309-1.395 2.53-1.744 4.012-.611 2.268-.698 5.32-1.046 8.024-8.547 20.234-13.082 13.343-4.972 33.839.175 2.617.436 5.146-.262 7.239-1.744 5.668-3.052 8.285-.349 13.431l-.436-.001Zm41.251-55.206c1.396-8.634 11.775-9.855 6.28-19.536-2.442-.087-10.466 1.657-10.989-1.831a62.66 62.66 0 0 0 5.581.262c.611 0 .611-.611 1.222-.611 6.452 0 12.297 3.052 9.243 11.25-.26.611-.348 1.657-.697 2.355-.174.174-.087.523-.522.872-.784-.088-1.92.436-3.14 1.308-.96 2.443-2.531 4.71-4.535 4.797-1.047.35-1.658.96-1.745 1.221-.261 0-.437-.087-.698-.087Zm-11.424 2.267c1.22-1.221 2.354-6.454-.96-7.24-5.93-.784-5.32-1.743-8.808-6.278-6.018-.349-4.535 10.727-10.639 12.733-.349.088.087-.697-.262-.61 1.569-1.918 3.575-3.053 4.098-5.408.611-2.703 1.308-5.407 2.093-6.54.348-.786 1.22-1.221 2.268-1.483.785-.088 1.657-.175 2.965.349 1.221.523 1.832.96 3.489 2.093 1.134.784 4.274 1.308 5.669 1.395 4.186.349 4.535.785 6.018 4.186 0 .611-.436 1.658-1.308 2.268-1.046.698-1.744 2.355-2.092 4.535-.523.087-1.832.785-2.356.698-.351-.087.172-.872-.175-.697Zm21.628 1.919c.087-.175.087-.35.087-.523 6.454-2.617 14.913-10.553 10.378-17.88-3.313-3.663-6.977-5.755-8.983-10.03.524-.087 1.046-.173 1.657 0 4.362 1.396 11.426 10.292 13.867 13.17 2.267 3.488 1.744 6.627-.697 8.72-3.837 3.49-11.512 6.456-16.309 6.543Zm-12.646 1.832c1.831-3.924 6.629-5.669 10.291-7.587 4.099-3.053 5.93-7.414 7.415-12.036 2.877 1.221 1.743 6.716.608 9.158-4.097 4.622-12.21 9.243-18.314 10.465Zm20.932.872c-.262-.174-1.744-.698-2.092-.872 0-.174.262-.262.262-.35 5.057-4.535 4.708-4.447 11.337-5.493.873-6.018 2.878-5.495 7.85-8.721 1.133-1.57-.262-3.402-6.541-6.106-1.046-.697-1.133-.96-1.57-1.744.873.088 3.402.872 5.581 2.704 2.093-.96 5.843 1.483 6.98 2.006.522 5.581-1.222 7.064-5.408 9.767.262 4.012-.176 4.273-1.658 6.28-10.206-.96-9.944 1.657-14.741 2.53ZM202.156 100.8c-1.657-3.575-1.22-6.279-.872-9.942h.786c-.175 3.663-.088 6.105.785 9.942h-.699Zm79.975 1.744c.174-3.489.436-6.803-.61-10.03-1.133-.61-2.443-1.134-3.227-2.18-2.006-2.703-4.448-4.884-7.675-6.106v-.435c3.924.088 4.448.349 8.635 3.924 1.83 1.57 8.721 6.28 9.592 7.413.349.523.437 1.134.524 1.657.173 1.744-1.133 3.924-3.575 5.233-1.047.524-2.093.699-3.664.524Zm-66.107 9.07c1.047-3.052 1.569-5.32 1.569-8.11-1.395-.785-2.79-.262-4.186-.175v-.436c1.831-.523 5.058-2.006 5.843-4.012.262-.611.088-1.22-.174-1.918-11.163 6.279-7.326 3.837-7.413 6.715 0 1.134.435 4.623-.088 6.628-.262-.088-.697-.175-.959-.262-.437-2.616-1.57-3.227-2.181-4.71.088-1.483 0-3.489.088-6.366 3.14-.175 7.413.436 12.384-6.105 3.315-.61 6.803-2.356 8.285-5.581h.698c-.088.436.175.872.087 1.308-.611 1.134-1.482 2.355-2.354 4.099-1.134 2.268-2.356 5.146-3.926 7.675-2.354 3.749-4.971 7.675-6.977 11.162-.261 0-.522.088-.696.088Zm-14.74 6.367c-.087-.088-.174-.176-.348-.263.611-5.32 1.308-10.727 2.529-15.786h.872c-.698 4.885-2.093 10.467-3.053 16.049Z" fill="#000"/></svg>