<svg width="140" height="51" viewBox="0 0 140 51" fill="none" xmlns="http://www.w3.org/2000/svg">
<path d="M87.1143 11.6467V15.6396H74.198V21.82H85.3435V25.7783H74.198V31.9587H87.1143V35.9517H69.7189V11.6467H87.1143ZM96.584 18.4868C98.7599 18.4868 100.589 19.0192 102.07 20.084C103.575 21.1256 104.327 22.8617 104.327 25.2922V35.9517H99.8131V33.2781C98.9798 34.2503 97.9729 35.0026 96.7924 35.535C95.6118 36.0443 94.4197 36.2989 93.2161 36.2989C91.7115 36.2989 90.4499 35.8822 89.4314 35.0489C88.4361 34.1924 87.9384 32.9656 87.9384 31.3684C87.9384 29.8638 88.3203 28.7296 89.0842 27.9657C89.8481 27.1787 90.7508 26.6695 91.7925 26.438C92.8341 26.2065 94.1767 26.0213 95.8202 25.8825C97.2553 25.7667 98.2738 25.6278 98.8757 25.4658C99.5006 25.2806 99.8131 24.8987 99.8131 24.32C99.8131 23.3709 99.5122 22.7112 98.9104 22.3409C98.3317 21.9705 97.6257 21.7853 96.7924 21.7853C95.9359 21.7853 95.1257 21.9937 94.3619 22.4103C93.598 22.8038 93.1119 23.6024 92.9036 24.8061L88.6328 23.8686C88.9106 22.0168 89.8134 20.6627 91.3411 19.8062C92.892 18.9266 94.6396 18.4868 96.584 18.4868ZM92.4522 31.3684C92.4522 32.086 92.7068 32.6647 93.2161 33.1045C93.7485 33.5212 94.4082 33.7295 95.1952 33.7295C95.9359 33.7295 96.6535 33.5096 97.3479 33.0698C98.0655 32.63 98.6557 31.9471 99.1187 31.0212C99.5817 30.0953 99.8131 28.9495 99.8131 27.5838V27.306C99.5122 27.5144 99.1303 27.6648 98.6673 27.7574C98.2275 27.85 97.6488 27.9426 96.9313 28.0352C95.9591 28.1509 95.172 28.3014 94.5702 28.4866C93.9915 28.6486 93.4938 28.9611 93.0772 29.424C92.6605 29.8638 92.4522 30.512 92.4522 31.3684ZM105.249 31.0559L109.797 30.3615C109.936 31.1485 110.376 31.7504 111.117 32.167C111.881 32.5605 112.645 32.7573 113.408 32.7573C114.311 32.7573 115.121 32.5953 115.839 32.2712C116.557 31.9471 116.915 31.3221 116.915 30.3962C116.915 29.6324 116.568 29.1463 115.874 28.9379C115.202 28.7065 114.138 28.556 112.679 28.4866C111.221 28.4171 110.029 28.2898 109.103 28.1046C108.2 27.8963 107.413 27.4449 106.742 26.7505C106.094 26.0561 105.77 25.0144 105.77 23.6256C105.77 21.4728 106.591 20.0608 108.235 19.3895C109.902 18.6951 111.626 18.3479 113.408 18.3479C114.982 18.3479 116.568 18.6373 118.165 19.2159C119.762 19.7715 120.781 20.9173 121.221 22.6534L116.915 23.5561C116.753 22.746 116.325 22.1788 115.631 21.8548C114.959 21.5307 114.265 21.3687 113.547 21.3687C112.737 21.3687 111.985 21.5307 111.29 21.8548C110.619 22.1557 110.284 22.746 110.284 23.6256C110.284 24.3663 110.619 24.8524 111.29 25.0839C111.985 25.2922 113.05 25.4311 114.485 25.5005C115.943 25.57 117.124 25.7088 118.026 25.9172C118.952 26.1024 119.751 26.5422 120.422 27.2366C121.093 27.931 121.429 28.9842 121.429 30.3962C121.429 32.6878 120.538 34.2272 118.756 35.0142C116.996 35.7781 115.214 36.16 113.408 36.16C111.811 36.16 110.145 35.8128 108.409 35.1183C106.696 34.4239 105.642 33.0698 105.249 31.0559ZM133.56 18.591H138.386L130.956 38.4169C130.238 40.5465 129.324 42.0279 128.213 42.8612C127.125 43.6945 125.771 44.1112 124.15 44.1112H123.213V40.153H124.15C124.752 40.153 125.192 40.1182 125.47 40.0488C125.748 39.9793 125.979 39.8289 126.164 39.5974C126.349 39.3659 126.546 38.9724 126.754 38.4169L127.623 35.9169L121.13 18.591H125.956L129.741 29.7365L133.56 18.591Z" fill="white"/>
<rect y="0.5" width="62.5806" height="50.3226" rx="3.22581" fill="white"/>
<path d="M8.5544 29.2343L13.1029 28.6441C13.2418 30.0329 13.8552 31.0167 14.9431 31.5954C16.0311 32.1741 17.2116 32.4634 18.4847 32.4634C19.8504 32.4634 21.0541 32.2088 22.0957 31.6995C23.1605 31.1671 23.6929 30.1486 23.6929 28.6441C23.6929 27.695 23.4267 26.9774 22.8943 26.4913C22.3619 25.9821 21.6907 25.6349 20.8805 25.4497C20.0935 25.2414 18.9824 25.0446 17.5472 24.8594C15.788 24.6511 14.3413 24.3965 13.2071 24.0955C12.096 23.7715 11.1469 23.1581 10.3599 22.2553C9.59604 21.3294 9.21411 20.01 9.21411 18.2971C9.21411 16.9314 9.59604 15.7161 10.3599 14.6513C11.1469 13.5865 12.2233 12.7648 13.589 12.1861C14.9547 11.6074 16.494 11.3181 18.207 11.3181C19.8041 11.3181 21.274 11.5727 22.6166 12.0819C23.9591 12.5912 25.0586 13.3088 25.9151 14.2347C26.7716 15.1606 27.2924 16.2254 27.4776 17.429L22.8943 18.0193C22.7323 16.8619 22.2115 16.0633 21.3319 15.6235C20.4523 15.1837 19.4685 14.9638 18.3806 14.9638C17.1074 14.9638 16.0079 15.1837 15.082 15.6235C14.1793 16.0402 13.7279 16.9314 13.7279 18.2971C13.7279 19.0609 13.9594 19.6512 14.4223 20.0679C14.9084 20.4614 15.5103 20.7391 16.2278 20.9012C16.9454 21.0401 17.9639 21.1905 19.2833 21.3526C21.1583 21.584 22.686 21.8734 23.8665 22.2206C25.0471 22.5447 26.0656 23.2159 26.922 24.2344C27.7785 25.2529 28.2067 26.7228 28.2067 28.6441C28.2067 29.8477 27.8942 31.0283 27.2692 32.1856C26.6443 33.3199 25.6026 34.2689 24.1443 35.0328C22.686 35.7967 20.7995 36.1786 18.4847 36.1786C16.2626 36.1786 14.4223 35.8314 12.964 35.137C11.5289 34.4425 10.4641 33.5745 9.76965 32.5328C9.07522 31.4681 8.67014 30.3685 8.5544 29.2343ZM33.9827 16.1791V11.6306H29.33V16.1791H33.9827ZM29.3995 18.5748H33.9132V35.9355H29.3995V18.5748ZM45.5218 18.3665C47.0959 18.3665 48.4963 18.7137 49.7231 19.4082C50.95 20.1026 51.9106 21.1211 52.605 22.4636C53.2994 23.8062 53.6467 25.4034 53.6467 27.2552C53.6467 29.107 53.2994 30.7042 52.605 32.0467C51.9106 33.3893 50.95 34.4078 49.7231 35.1022C48.4963 35.7967 47.0959 36.1439 45.5218 36.1439C42.9988 36.1439 41.1238 35.2643 39.897 33.505V42.8798H35.3832V18.5748H39.897V21.0053C41.1238 19.2461 42.9988 18.3665 45.5218 18.3665ZM44.6538 32.7412C45.9964 32.7412 47.0727 32.2898 47.8829 31.387C48.7162 30.4611 49.1329 29.0839 49.1329 27.2552C49.1329 25.4265 48.7162 24.0608 47.8829 23.1581C47.0727 22.2322 45.9964 21.7692 44.6538 21.7692C43.265 21.7692 42.1192 22.1974 41.2164 23.0539C40.3368 23.8872 39.897 25.2876 39.897 27.2552C39.897 29.2227 40.3368 30.6347 41.2164 31.4912C42.096 32.3245 43.2418 32.7412 44.6538 32.7412Z" fill="#3B82F6"/>
</svg>
