<svg width="301" height="325" viewBox="0 0 301 325" fill="none" xmlns="http://www.w3.org/2000/svg">
<path fill-rule="evenodd" clip-rule="evenodd" d="M84.9981 278.35C78.4215 278.772 71.8672 279.005 65.2505 279.714C62.6935 279.989 60.5319 279.983 58.7226 278.771C59.5464 278.408 60.3729 278.049 61.4273 277.588C56.9227 277.185 56.9227 277.185 55.4243 278.078C56.5889 278.313 57.7255 278.54 58.8634 278.769C58.2787 278.993 57.6574 279.39 57.1208 279.405C56.2196 279.432 55.605 279.169 55.1015 280.514C54.6862 281.615 54.9116 282.011 55.6838 282.464C61.2297 285.736 66.9029 288.871 72.2308 292.385C79.7023 297.314 86.9939 302.455 93.3924 308.493C94.6238 309.657 95.7378 310.704 95.94 312.758C96.0833 314.214 97.3529 315.605 98.0726 317.066C99.2616 319.488 97.5803 321.683 96.5382 323.915C96.1615 324.721 94.7604 324.732 93.7985 324.536C91.6847 324.106 89.9802 323.118 88.3465 322.032C79.927 316.445 71.55 310.815 63.0942 305.271C49.1347 296.118 33.6959 288.932 17.5099 282.741C16.1847 282.234 14.9709 281.425 13.5138 281.278C7.55753 280.667 4.63481 276.749 1.3434 273.224C0.165266 271.964 1.02338 270.829 2.80594 270.003C2.54189 269.154 0.685183 269.695 1.27616 268.297C1.85339 266.937 2.91896 266.083 4.41966 265.435C10.9663 262.6 17.6658 260.994 24.3227 259.071C50.2502 251.583 75.7247 241.776 101.016 231.047C102.973 230.216 104.831 229.724 106.912 229.954C105.977 231.173 104.405 231.217 103.828 232.489C104.119 232.577 104.406 232.605 104.592 232.736C105.296 233.238 109.134 229.754 106.923 233.968C108.899 235.468 106.747 237.229 105.864 238.751C104.968 240.294 102.46 242.114 101.726 242.219C97.9021 242.771 95.628 245.708 92.1733 248.134C92.8624 247.091 93.1012 246.727 93.4643 246.18C87.2542 251.272 80.1953 253.817 73.4301 257.019C69.3032 256.054 65.7038 259.618 61.7988 260.588C61.3199 260.707 60.7889 260.846 60.4275 261.62C62.6796 260.767 64.7875 259.963 66.8981 259.163C66.9488 259.351 66.997 259.541 67.0515 259.729C62.9657 261.387 58.8799 263.045 54.7942 264.702C54.79 264.833 54.7845 264.961 54.7802 265.091C59.229 264.874 63.6505 264.812 68.1302 264.405C78.6911 263.442 89.2252 262.754 99.8809 260.984C128.437 256.239 156.39 247.296 182.976 231.856C199.805 222.084 213.07 208.925 221.577 192.483C225.288 185.311 226.726 178.114 226.3 171.034C226.125 168.145 224.765 167.74 221.782 169.618C219.506 171.05 217.448 169.994 215.147 170.605C210.864 171.739 206.542 172.116 202.251 172.805C195.326 173.915 188.976 173.472 182.698 172.595C175.5 171.591 168.886 169.592 163.506 165.648C158.174 161.741 155.419 156.2 154.335 149.695C153.075 142.12 157.861 132.528 169.457 128.464C179.27 125.026 188.418 125.068 196.959 127.231C213.149 131.34 225.464 139.533 231.339 154.131C231.897 155.518 232.794 155.615 234.477 154.972C253.996 147.498 269.539 135.62 280.073 118.059C290.301 101.002 295.052 83.7328 296.176 66.2272C297.174 50.7166 295.973 35.9411 290.51 22.4938C287.974 16.2522 284.014 10.9674 279.636 5.96282C278.331 4.47282 276.55 3.10237 278.858 0.116376C283.738 4.64131 288.25 9.35168 291.429 15.1188C299.507 29.776 301.429 46.673 300.826 64.4613C300.342 78.7206 297.91 93.0796 291.797 107.59C288.517 115.375 284.958 123.159 279.565 130.296C272.715 139.353 265.138 147.844 254.946 154.408C248.974 158.254 242.962 161.677 236.553 164.328C234.347 165.243 234.588 166.43 234.722 167.743C235.585 176.191 234.531 184.891 231.375 193.75C225.428 210.439 214.836 225.08 199.559 237.364C195.815 240.376 192.147 243.539 187.599 245.768C185.442 246.826 182.994 249.037 180.8 250.168C174.927 253.183 169.264 256.871 163.054 259.033C162.429 259.251 161.955 259.079 161.433 258.87C160.747 258.598 160.67 258.702 160.568 259.623C160.479 260.417 159.673 260.366 159.254 260.551C149.774 264.743 140.119 268.015 130.383 270.863C119.616 274.012 108.856 276.369 98.0889 277.916C97.7034 277.97 97.3177 277.988 96.9088 278.024C97.0201 276.687 98.593 277.477 98.9303 276.411C96.5844 276.57 94.2714 276.735 91.9081 277.612C89.607 277.861 87.3033 278.107 84.9981 278.35ZM104.852 264.217C104.534 264.117 104.232 263.915 103.893 263.937C97.3259 264.377 90.6227 266.16 84.0513 266.159C77.9732 266.16 71.5996 267.343 65.4224 267.672C59.3368 267.996 53.1571 268.788 47.1837 268.477C44.9438 268.359 42.4172 268.495 39.7142 270.12C40.3607 270.293 40.6848 270.491 41.0474 270.461C49.0783 269.791 56.9644 269.823 64.9872 269.241C74.4343 268.554 83.8442 268.024 93.4001 266.573C97.2157 265.993 101.044 265.913 104.874 264.139C108.86 264.511 112.819 262.99 116.778 261.601C112.767 260.964 108.812 262.615 104.852 264.217ZM164.466 150.37C165.052 150.97 166.012 152.127 167.179 153.088C168.472 154.151 169.834 155.193 171.366 155.977C185.547 163.239 202.289 162.768 220.072 159.086C222.468 158.59 221.417 157.617 220.894 156.846C217.919 152.482 213.971 148.979 209.322 146.166C200.7 140.948 190.964 137.855 179.038 139.243C174.521 139.769 170.007 140.981 165.872 143.746C162.313 146.127 162.102 147.175 164.466 150.37ZM13.3793 266.049C30.8223 261.706 48.1174 256.381 65.1331 249.096C47.9602 255.35 30.6342 260.478 13.3793 266.049ZM190.264 164.318C200.649 165.855 211.447 164.326 222.476 161.098C211.552 163.546 200.826 164.549 190.264 164.318ZM189.571 129.562C185.187 128.265 178.714 128.594 174.558 130.329C179.77 129.668 184.371 129.654 189.571 129.562Z" fill="#CEFF55"/>
</svg>
