<svg width="208" height="125" viewBox="0 0 208 125" fill="none" xmlns="http://www.w3.org/2000/svg">
<path d="M207.929 74.1974C207.691 71.0303 207.118 67.9222 206.066 64.87C204.84 61.3184 203.159 57.9114 201.018 54.6621C198.413 50.7097 195.442 46.9544 191.902 43.5014C188.845 40.5182 185.729 37.5843 182.33 34.8541C178.85 32.0581 175.044 29.594 171.02 27.3566C167.017 25.1324 162.831 23.148 158.558 21.2818C153.671 19.1496 148.623 17.3196 143.426 15.7622C141.708 15.2464 139.874 14.9672 138.277 14.1984C131.342 10.8505 124.08 8.08412 116.387 6.09314C114.496 5.6036 112.65 4.99251 110.715 4.61468C108.505 3.98058 106.247 3.47462 103.981 2.98509C97.9171 1.66762 91.8006 0.56042 85.5269 0.179307C78.1364 -0.267516 70.8265 0.120168 63.5529 1.34893C56.8477 2.4857 50.4329 4.27956 44.2842 6.68452C38.829 8.81678 33.7407 11.4616 28.9588 14.4941C24.189 17.5167 19.9313 20.9566 16.1493 24.7907C12.1093 28.8844 8.85151 33.3789 6.06544 38.1001C4.64216 40.5083 3.36 42.9724 2.43669 45.5581C1.04164 49.4678 0.126385 53.4498 0.0175227 57.504C-0.127627 62.9907 0.614231 68.4085 2.79551 73.6488C4.07364 76.7272 5.57352 79.717 7.62981 82.5097C7.9322 83.1865 8.44023 83.7746 8.89181 84.3857C9.21839 84.8292 9.42402 85.3581 10.0006 85.667C10.4885 86.2222 10.9763 86.7742 11.4642 87.3294C11.4118 87.474 11.5529 87.5561 11.6335 87.658C12.8068 89.12 14.1212 90.4999 15.476 91.8469C19.4232 95.7829 23.8382 99.3345 28.8217 102.416C32.6642 104.795 36.6195 107.026 40.8651 108.898C45.4132 110.906 49.9209 112.992 54.7793 114.487C59.2629 115.867 63.8028 117.122 68.4234 118.157C74.4915 119.514 80.6039 120.726 86.793 121.679C92.2321 122.517 97.7075 123.161 103.211 123.601C110.194 124.159 117.206 124.34 124.226 124.32C130.661 124.304 137.063 124.015 143.45 123.361C147.425 122.954 151.352 122.372 155.263 121.679C156.945 121.442 158.574 121.028 160.223 120.687C164.771 119.74 169.162 118.436 173.452 116.889C176.193 115.896 178.895 114.845 181.435 113.528C182.91 112.762 184.431 112.056 185.725 111.08C185.854 111.018 185.991 110.962 186.112 110.889C188.567 109.49 190.628 107.726 192.756 106.037C193.547 105.409 194.329 104.752 194.825 103.924C198.321 100.59 200.953 96.808 203.356 92.9114C203.667 92.7307 203.76 92.4383 203.897 92.1788C205.59 88.9557 206.852 85.6243 207.449 82.1515C207.896 79.5166 208.126 76.8718 207.929 74.1974ZM197.7 64.4725C198.087 66.0626 198.603 67.6397 198.833 69.243C199.228 72.0093 199.341 74.7822 199.066 77.5782C198.845 79.8287 198.401 82.053 197.639 84.1885C196.28 87.9865 194.139 91.5151 191.438 94.8268C189.539 97.153 187.386 99.3115 184.995 101.279C182.358 103.448 179.439 105.376 176.246 107.003C172.617 108.849 168.746 110.252 164.698 111.382C161.219 112.351 157.675 113.124 154.09 113.728C147.643 114.812 141.107 115.387 134.543 115.788C129.096 116.12 123.637 116.14 118.182 116.12C112.847 116.103 107.517 115.877 102.215 115.45C98.0098 115.111 93.8085 114.691 89.6355 114.086C83.5634 113.206 77.5074 112.305 71.524 111.064C65.339 109.779 59.275 108.202 53.3117 106.365C49.562 105.212 46.0583 103.619 42.5182 102.094C36.6235 99.5546 30.9949 96.6963 25.9106 93.1513C22.927 91.0716 20.2982 88.7487 18.2258 86.0218C16.2219 83.3836 14.5244 80.6238 13.2342 77.703C10.9199 72.4627 9.86352 67.0516 10.0167 61.4926C10.0893 58.7459 10.5812 56.0354 11.2828 53.3446C11.944 50.8181 12.7665 48.331 13.9358 45.9359C15.0687 43.6197 16.367 41.3593 17.9072 39.1974C18.5685 38.2676 19.1612 37.3083 19.7821 36.3621C22.6367 32.6627 25.7736 29.1439 29.4829 25.9735C29.7773 25.9537 29.8942 25.7435 30.0635 25.6022C33.4504 22.7143 37.1154 20.0991 41.1353 17.8025C43.8044 16.2781 46.5461 14.8489 49.437 13.6398C52.7432 12.2567 56.1986 11.1462 59.7346 10.1835C63.9601 9.03691 68.2985 8.35025 72.6852 7.83771C76.3422 7.4106 80.0112 7.18062 83.7166 7.15434C88.3937 7.12149 93.0385 7.3449 97.6631 7.84429C101.997 8.31082 106.304 8.94491 110.561 9.77614C111.412 9.94041 112.255 10.1244 113.101 10.3018C112.859 10.4135 112.642 10.4168 112.424 10.4004C109.529 10.1868 106.638 10.0094 103.731 9.91084C98.405 9.73014 93.0788 9.72357 87.7607 9.96669C83.4707 10.1638 79.1968 10.5712 74.9794 11.2973C72.915 11.6521 70.8305 11.9741 68.8105 12.4669C66.7905 12.9597 64.835 13.6333 62.8674 14.2608C62.1941 14.4743 61.4885 14.678 60.9885 15.1511C59.8394 15.6965 58.6137 16.1368 57.5493 16.7972C55.4083 17.4444 54.235 18.8341 53.3561 20.444C53.0174 21.0683 53.215 21.3048 54.0576 21.3475C54.8197 21.387 55.5817 21.4494 56.3437 21.4987C57.1824 21.5512 58.0009 21.6137 58.8476 21.433C66.1817 19.8756 73.5964 18.6699 81.1563 18.0588C86.7728 17.6054 92.3974 17.3754 98.034 17.4313C103.413 17.4871 108.787 17.704 114.15 18.1639C118.819 18.5647 123.472 19.0576 128.06 19.8231C133.076 20.6576 138.043 21.6892 142.881 23.0888C145.829 23.943 148.897 24.5739 151.304 26.3546C152.018 26.8835 152.756 27.3961 153.522 27.8725C154.219 28.3028 154.836 28.9862 155.917 28.5723C155.9 28.5328 155.909 28.4967 155.933 28.4605C155.904 28.4967 155.9 28.5328 155.913 28.5723C156.11 28.5558 156.328 28.5755 156.505 28.5197C157.235 28.293 157.86 28.4507 158.513 28.753C160.061 29.4659 161.65 30.1197 163.202 30.8228C164.263 31.3025 165.291 31.8249 166.331 32.3308C167.96 33.1818 169.678 33.9177 171.23 34.8573C174.048 36.5592 176.899 38.2282 179.487 40.1798C182.209 42.2299 184.721 44.4312 187.023 46.7934C187.874 47.6641 188.648 48.584 189.458 49.4809C192.615 53.3676 195.067 57.5303 196.821 61.9657C197.095 62.6589 197.373 63.3489 197.647 64.0388C197.583 64.1965 197.667 64.3312 197.7 64.4725ZM30.3256 25.024C30.6562 24.7775 30.9909 24.5377 31.3255 24.2946C30.9949 24.5377 30.6562 24.7775 30.3256 25.024ZM58.271 10.3577C58.271 10.3577 58.2751 10.3577 58.2791 10.3544C58.2751 10.3544 58.2751 10.3577 58.271 10.3577ZM61.8272 9.44431C61.4925 9.57244 61.1498 9.671 60.791 9.72357C61.1498 9.66772 61.4925 9.56915 61.8272 9.44431ZM63.2222 9.09933C62.8876 9.16504 62.5529 9.22089 62.2264 9.3096C62.5489 9.22089 62.8876 9.16833 63.2222 9.09933ZM63.2182 9.10262C62.7747 9.27346 62.3151 9.39831 61.8232 9.44431C62.3151 9.39502 62.7747 9.27346 63.2182 9.10262ZM63.2222 9.09933C62.9118 9.07962 62.6134 9.09605 62.3433 9.18147C62.6134 9.09933 62.9118 9.07962 63.2222 9.09933Z" fill="#CEFF55"/>
</svg>
