<svg width="188" height="186" viewBox="0 0 188 186" fill="none" xmlns="http://www.w3.org/2000/svg">
<path d="M101.584 47.6074L102.755 53.0771L106.049 48.5566L127.255 19.458L119.82 54.6885L118.665 60.1611L123.513 57.3711L154.719 39.4141L133.6 68.5732L130.318 73.1035L135.882 72.5264L171.693 68.8154L140.54 86.8633L135.7 89.667L141.018 91.4033L175.242 102.579L139.441 106.395L133.88 106.987L138.031 110.736L164.752 134.866L130.494 123.791L125.172 122.07L127.439 127.183L142.035 160.095L115.244 136.044L111.082 132.307L111.074 137.9L111.021 173.904L96.3291 141.034L94.0469 135.928L91.7646 141.034L77.0713 173.904L77.0195 137.9L77.0117 132.307L72.8496 136.044L46.0576 160.095L60.6543 127.183L62.9219 122.07L57.5996 123.791L23.3408 134.866L50.0625 110.736L54.2139 106.987L48.6523 106.395L12.8506 102.579L47.0762 91.4033L52.3936 89.667L47.5537 86.8633L16.3994 68.8154L52.2119 72.5264L57.7754 73.1035L54.4941 68.5732L33.374 39.4141L64.5811 57.3711L69.4287 60.1611L68.2734 54.6885L60.8379 19.458L82.0449 48.5566L85.3389 53.0771L86.5098 47.6074L94.0469 12.3994L101.584 47.6074Z" fill="#FFC800" stroke="#430C04" stroke-width="5"/>
</svg>
