<svg width="36" height="45" viewBox="0 0 36 45" fill="none" xmlns="http://www.w3.org/2000/svg">
<path d="M35.1818 8.03578C28.4015 8.03578 21.6196 4.88417 18.6897 0.371319C18.6158 0.2575 18.5138 0.163816 18.3933 0.0989181C18.2727 0.0340199 18.1375 0 18 0C17.8625 0 17.7273 0.0340199 17.6067 0.0989181C17.4862 0.163816 17.3842 0.2575 17.3103 0.371319C14.3804 4.88417 7.59845 8.03578 0.818182 8.03578C0.601187 8.03578 0.393079 8.12044 0.23964 8.27114C0.0862012 8.42183 0 8.62623 0 8.83935V24.9108C0 35.6167 10.6225 43.2129 17.8012 44.9759C17.9317 45.008 18.0683 45.008 18.1988 44.9759C25.3775 43.2129 36 35.6167 36 24.9108V8.83935C36 8.62623 35.9138 8.42183 35.7604 8.27114C35.6069 8.12044 35.3988 8.03578 35.1818 8.03578ZM34.3636 24.9108C34.3636 34.9988 23.8197 41.842 18 43.3664C12.1803 41.842 1.63636 34.9988 1.63636 24.9108V9.62845C8.18673 9.39944 14.6455 6.45033 18 2.19623C21.3545 6.45033 27.8125 9.39944 34.3636 9.62845V24.9108ZM5.72727 22.5C5.72727 24.884 6.44706 27.2144 7.7956 29.1966C9.14415 31.1788 11.0609 32.7238 13.3034 33.6361C15.546 34.5484 18.0136 34.7871 20.3943 34.322C22.775 33.8569 24.9618 32.7089 26.6781 31.0232C28.3945 29.3375 29.5634 27.1897 30.0369 24.8516C30.5105 22.5134 30.2674 20.0898 29.3385 17.8873C28.4096 15.6848 26.8366 13.8023 24.8184 12.4779C22.8001 11.1534 20.4273 10.4465 18 10.4465C14.7462 10.4501 11.6267 11.7212 9.32594 13.9809C7.02515 16.2406 5.73095 19.3044 5.72727 22.5ZM28.6364 22.5C28.6364 24.5662 28.0126 26.5859 26.8438 28.3038C25.6751 30.0217 24.0139 31.3606 22.0704 32.1513C20.1268 32.9419 17.9882 33.1488 15.9249 32.7457C13.8617 32.3427 11.9665 31.3477 10.479 29.8868C8.99143 28.4258 7.97842 26.5644 7.56801 24.538C7.15761 22.5116 7.36824 20.4112 8.17328 18.5024C8.97832 16.5935 10.3416 14.962 12.0908 13.8142C13.8399 12.6663 15.8963 12.0536 18 12.0536C20.8199 12.0568 23.5235 13.1584 25.5175 15.1168C27.5115 17.0752 28.6331 19.7305 28.6364 22.5ZM13.3151 25.965L22.3306 17.1105C22.4849 16.9641 22.6916 16.8831 22.9061 16.885C23.1207 16.8868 23.3259 16.9713 23.4776 17.1203C23.6293 17.2693 23.7153 17.4708 23.7172 17.6815C23.7191 17.8922 23.6366 18.0952 23.4875 18.2467L13.6694 27.8896C13.516 28.0403 13.3079 28.125 13.0909 28.125C13.0471 28.1252 13.0033 28.1217 12.96 28.1146C12.8319 28.0943 12.7106 28.0443 12.606 27.9689C12.5015 27.8934 12.4167 27.7946 12.3586 27.6807L10.7223 24.4664C10.6253 24.2756 10.6094 24.0549 10.6781 23.8526C10.7469 23.6504 10.8946 23.4833 11.0888 23.388C11.283 23.2927 11.5078 23.2771 11.7137 23.3446C11.9196 23.4122 12.0898 23.5572 12.1868 23.748L13.3151 25.965Z" fill="#637282"/>
</svg>
