<svg width="45" height="42" viewBox="0 0 45 42" fill="none" xmlns="http://www.w3.org/2000/svg">
<path d="M40.673 10.4121H32.8846V4.3384C32.8832 3.1882 32.4269 2.08552 31.6157 1.27221C30.8046 0.4589 29.7048 0.00137775 28.5577 0H4.32698C3.17984 0.00137775 2.08007 0.4589 1.26891 1.27221C0.457758 2.08552 0.00144678 3.1882 7.26727e-05 4.3384V28.9805C-0.00396226 29.5185 0.160115 30.0443 0.46928 30.4841C0.778445 30.9238 1.21718 31.2555 1.72391 31.4325C2.0083 31.5346 2.30801 31.5871 2.61006 31.5879C2.99294 31.5873 3.37083 31.5009 3.71611 31.335C4.06139 31.1691 4.36531 30.9279 4.60563 30.6291L9.06408 25.1627H12.1154V31.2364C12.1168 32.3866 12.5731 33.4893 13.3843 34.3026C14.1954 35.1159 15.2952 35.5735 16.4423 35.5748H35.9359L40.3952 41.0412C40.6349 41.3395 40.938 41.5803 41.2823 41.7462C41.6267 41.9121 42.0036 41.9988 42.3856 42C42.688 41.9993 42.9879 41.9468 43.2726 41.8447C43.7801 41.6684 44.2196 41.337 44.5295 40.8971C44.8393 40.4573 45.0038 39.9311 44.9999 39.3926V14.7505C44.9986 13.6004 44.5422 12.4977 43.7311 11.6844C42.9199 10.871 41.8202 10.4135 40.673 10.4121ZM8.65389 23.4273C8.52569 23.4274 8.3991 23.4559 8.28326 23.511C8.16742 23.5661 8.06524 23.6463 7.98409 23.7458L3.26602 29.5271C3.15314 29.6655 3.00039 29.7655 2.82867 29.8135C2.65694 29.8615 2.47461 29.8552 2.30661 29.7954C2.13861 29.7355 1.99314 29.6252 1.89008 29.4793C1.78702 29.3334 1.7314 29.1592 1.73084 28.9805V4.3384C1.73084 3.64803 2.00436 2.98593 2.49123 2.49777C2.9781 2.00961 3.63844 1.73536 4.32698 1.73536H28.5577C29.2462 1.73536 29.9066 2.00961 30.3934 2.49777C30.8803 2.98593 31.1538 3.64803 31.1538 4.3384V20.8243C31.1538 21.5147 30.8803 22.1768 30.3934 22.6649C29.9066 23.1531 29.2462 23.4273 28.5577 23.4273H8.65389ZM43.2692 39.3926C43.2689 39.5714 43.2136 39.7457 43.1108 39.8918C43.008 40.0378 42.8627 40.1485 42.6948 40.2086C42.5268 40.2687 42.3445 40.2753 42.1727 40.2276C42.0009 40.1798 41.848 40.0801 41.7348 39.9419L37.0159 34.1605C36.935 34.0605 36.8329 33.9799 36.7171 33.9243C36.6012 33.8688 36.4745 33.8398 36.3461 33.8395H16.4423C15.7538 33.8395 15.0934 33.5652 14.6066 33.0771C14.1197 32.5889 13.8462 31.9268 13.8462 31.2364V25.1627H28.5577C29.7048 25.1613 30.8046 24.7038 31.6157 23.8905C32.4269 23.0772 32.8832 21.9745 32.8846 20.8243V12.1475H40.673C41.3616 12.1475 42.0219 12.4218 42.5088 12.9099C42.9956 13.3981 43.2692 14.0602 43.2692 14.7505V39.3926ZM16.4423 15.6182C17.127 15.6182 17.7962 15.4147 18.3654 15.0333C18.9347 14.6519 19.3784 14.1099 19.6404 13.4757C19.9024 12.8415 19.9709 12.1437 19.8373 11.4704C19.7038 10.7971 19.3741 10.1787 18.89 9.69334C18.4059 9.20795 17.7891 8.8774 17.1176 8.74348C16.4462 8.60956 15.7502 8.67829 15.1177 8.94098C14.4851 9.20367 13.9445 9.64852 13.5642 10.2193C13.1838 10.79 12.9808 11.4611 12.9808 12.1475C12.9808 13.068 13.3455 13.9508 13.9947 14.6017C14.6438 15.2526 15.5243 15.6182 16.4423 15.6182ZM16.4423 10.4121C16.7846 10.4121 17.1193 10.5139 17.4039 10.7046C17.6885 10.8953 17.9103 11.1663 18.0413 11.4834C18.1723 11.8005 18.2066 12.1494 18.1398 12.4861C18.0731 12.8227 17.9082 13.1319 17.6662 13.3746C17.4241 13.6173 17.1157 13.7826 16.78 13.8495C16.4442 13.9165 16.0962 13.8821 15.78 13.7508C15.4637 13.6194 15.1934 13.397 15.0033 13.1116C14.8131 12.8262 14.7116 12.4907 14.7116 12.1475C14.7116 11.6873 14.8939 11.2459 15.2185 10.9204C15.5431 10.595 15.9833 10.4121 16.4423 10.4121ZM25.0961 15.6182C25.7808 15.6182 26.45 15.4147 27.0193 15.0333C27.5885 14.6519 28.0322 14.1099 28.2942 13.4757C28.5562 12.8415 28.6247 12.1437 28.4912 11.4704C28.3576 10.7971 28.0279 10.1787 27.5438 9.69334C27.0597 9.20795 26.4429 8.8774 25.7715 8.74348C25.1 8.60956 24.404 8.67829 23.7715 8.94098C23.139 9.20367 22.5984 9.64852 22.218 10.2193C21.8376 10.79 21.6346 11.4611 21.6346 12.1475C21.6346 13.068 21.9993 13.9508 22.6485 14.6017C23.2976 15.2526 24.1781 15.6182 25.0961 15.6182ZM25.0961 10.4121C25.4385 10.4121 25.7731 10.5139 26.0577 10.7046C26.3423 10.8953 26.5642 11.1663 26.6952 11.4834C26.8262 11.8005 26.8604 12.1494 26.7937 12.4861C26.7269 12.8227 26.562 13.1319 26.32 13.3746C26.0779 13.6173 25.7695 13.7826 25.4338 13.8495C25.0981 13.9165 24.7501 13.8821 24.4338 13.7508C24.1176 13.6194 23.8472 13.397 23.6571 13.1116C23.4669 12.8262 23.3654 12.4907 23.3654 12.1475C23.3654 11.6873 23.5477 11.2459 23.8723 10.9204C24.1969 10.595 24.6371 10.4121 25.0961 10.4121ZM7.78851 8.67679C7.10388 8.67679 6.43463 8.88034 5.86539 9.26171C5.29614 9.64308 4.85247 10.1851 4.59048 10.8193C4.32848 11.4535 4.25993 12.1514 4.39349 12.8246C4.52706 13.4979 4.85674 14.1163 5.34084 14.6017C5.82494 15.0871 6.44173 15.4176 7.1132 15.5515C7.78467 15.6855 8.48067 15.6167 9.11318 15.354C9.74569 15.0913 10.2863 14.6465 10.6667 14.0757C11.047 13.505 11.25 12.8339 11.25 12.1475C11.25 11.227 10.8853 10.3442 10.2362 9.69334C9.58702 9.04245 8.70656 8.67679 7.78851 8.67679ZM7.78851 13.8829C7.4462 13.8829 7.11157 13.7811 6.82695 13.5904C6.54233 13.3997 6.32049 13.1287 6.18949 12.8116C6.0585 12.4945 6.02422 12.1456 6.091 11.809C6.15778 11.4723 6.32262 11.1631 6.56468 10.9204C6.80673 10.6777 7.11512 10.5125 7.45085 10.4455C7.78659 10.3785 8.13459 10.4129 8.45084 10.5442C8.7671 10.6756 9.03741 10.898 9.22759 11.1834C9.41777 11.4688 9.51927 11.8043 9.51927 12.1475C9.51927 12.6078 9.33693 13.0491 9.01234 13.3746C8.68776 13.7 8.24754 13.8829 7.78851 13.8829Z" fill="white"/>
</svg>
