<svg width="28" height="27" viewBox="0 0 28 27" fill="none" xmlns="http://www.w3.org/2000/svg">
<path d="M18.486 13.5C18.486 14.3544 18.2327 15.1896 17.758 15.9001C17.2833 16.6105 16.6086 17.1642 15.8192 17.4912C15.0298 17.8181 14.1612 17.9037 13.3232 17.737C12.4852 17.5703 11.7155 17.1589 11.1113 16.5547C10.5072 15.9505 10.0957 15.1808 9.92902 14.3428C9.76234 13.5048 9.84789 12.6362 10.1749 11.8468C10.5018 11.0574 11.0555 10.3827 11.766 9.90805C12.4764 9.43336 13.3116 9.18 14.166 9.18C15.3107 9.18356 16.4074 9.63985 17.2168 10.4492C18.0262 11.2586 18.4825 12.3554 18.486 13.5V13.5ZM27.666 7.56V19.44C27.666 21.445 26.8695 23.368 25.4517 24.7857C24.034 26.2035 22.1111 27 20.106 27H8.22602C6.22098 27 4.29806 26.2035 2.88029 24.7857C1.46251 23.368 0.666016 21.445 0.666016 19.44V7.56C0.666016 5.55496 1.46251 3.63205 2.88029 2.21427C4.29806 0.796498 6.22098 0 8.22602 0H20.106C22.1111 0 24.034 0.796498 25.4517 2.21427C26.8695 3.63205 27.666 5.55496 27.666 7.56V7.56ZM20.646 13.5C20.646 12.2184 20.266 10.9655 19.5539 9.8999C18.8419 8.83427 17.8299 8.00372 16.6458 7.51326C15.4617 7.02281 14.1588 6.89448 12.9018 7.14451C11.6448 7.39454 10.4902 8.0117 9.58396 8.91795C8.67772 9.82419 8.06056 10.9788 7.81053 12.2358C7.5605 13.4928 7.68882 14.7957 8.17928 15.9798C8.66973 17.1639 9.50029 18.1759 10.5659 18.8879C11.6316 19.6 12.8844 19.98 14.166 19.98C15.8846 19.98 17.5328 19.2973 18.7481 18.0821C19.9633 16.8668 20.646 15.2186 20.646 13.5ZM22.806 6.48C22.806 6.15959 22.711 5.84638 22.533 5.57998C22.355 5.31357 22.102 5.10593 21.806 4.98332C21.5099 4.8607 21.1842 4.82862 20.87 4.89113C20.5557 4.95364 20.2671 5.10793 20.0405 5.33449C19.8139 5.56105 19.6597 5.8497 19.5971 6.16395C19.5346 6.4782 19.5667 6.80393 19.6893 7.09995C19.8119 7.39596 20.0196 7.64897 20.286 7.82698C20.5524 8.00499 20.8656 8.1 21.186 8.1C21.6157 8.1 22.0277 7.92932 22.3315 7.62551C22.6353 7.3217 22.806 6.90965 22.806 6.48Z" fill="white"/>
</svg>
