<svg width="51" height="51" viewBox="0 0 51 51" fill="none" xmlns="http://www.w3.org/2000/svg">
<rect width="50.1562" height="50.1562" rx="25.0781" transform="matrix(1 8.74228e-08 8.74228e-08 -1 0.84375 50.9999)" fill="#EBCBB2"/>
<path d="M32.0248 26.9177L23.649 35.1188C23.4553 35.3086 23.1967 35.4132 22.9209 35.4132C22.6452 35.4132 22.3866 35.3086 22.1929 35.1188L21.5761 34.515C21.1747 34.1215 21.1747 33.482 21.5761 33.0892L28.6094 26.2025L21.5683 19.3081C21.3745 19.1183 21.2676 18.8652 21.2676 18.5954C21.2676 18.3252 21.3745 18.0722 21.5683 17.8822L22.1851 17.2785C22.379 17.0887 22.6374 16.9841 22.9131 16.9841C23.1889 16.9841 23.4475 17.0887 23.6412 17.2785L32.0248 25.487C32.219 25.6775 32.3256 25.9317 32.325 26.202C32.3256 26.4733 32.219 26.7275 32.0248 26.9177Z" fill="#121212"/>
</svg>
