<svg width="33" height="23" viewBox="0 0 33 23" fill="none" xmlns="http://www.w3.org/2000/svg">
<path d="M13.0809 16.4286L21.5619 11.5L13.0809 6.57143V16.4286ZM31.9712 3.565C32.1836 4.33714 32.3307 5.37214 32.4287 6.68643C32.5431 8.00071 32.5921 9.13429 32.5921 10.12L32.6902 11.5C32.6902 15.0979 32.4287 17.7429 31.9712 19.435C31.5626 20.9136 30.6149 21.8664 29.1442 22.2771C28.3761 22.4907 26.9708 22.6386 24.8138 22.7371C22.6895 22.8521 20.7449 22.9014 18.9473 22.9014L16.3491 23C9.50221 23 5.2372 22.7371 3.55407 22.2771C2.08337 21.8664 1.13559 20.9136 0.727063 19.435C0.51463 18.6629 0.36756 17.6279 0.269514 16.3136C0.155126 14.9993 0.106103 13.8657 0.106103 12.88L0.00805664 11.5C0.00805664 7.90214 0.269514 5.25714 0.727063 3.565C1.13559 2.08643 2.08337 1.13357 3.55407 0.722857C4.3221 0.509286 5.72743 0.361428 7.88445 0.262857C10.0088 0.147857 11.9534 0.0985713 13.7509 0.0985713L16.3491 0C23.196 0 27.461 0.262857 29.1442 0.722857C30.6149 1.13357 31.5626 2.08643 31.9712 3.565V3.565Z" fill="white"/>
</svg>
