<svg width="789" height="753" viewBox="0 0 789 753" fill="none" xmlns="http://www.w3.org/2000/svg">
<path d="M166.98 450.526C167.083 454.62 168.782 458.512 171.714 461.371C174.647 464.23 178.58 465.83 182.675 465.83C186.77 465.83 190.703 464.23 193.636 461.371C196.568 458.512 198.267 454.62 198.37 450.526V262.376H166.98V450.526Z" fill="black"/>
<path d="M254.62 450.526C254.723 454.62 256.422 458.512 259.354 461.371C262.286 464.23 266.22 465.83 270.315 465.83C274.41 465.83 278.343 464.23 281.275 461.371C284.208 458.512 285.907 454.62 286.01 450.526V262.376H254.62V450.526Z" fill="black"/>
<path d="M397.33 450.526C397.433 454.62 399.132 458.512 402.064 461.371C404.997 464.23 408.93 465.83 413.025 465.83C417.12 465.83 421.054 464.23 423.986 461.371C426.918 458.512 428.617 454.62 428.72 450.526V262.376H397.33V450.526Z" fill="black"/>
<path d="M306.62 450.526C306.723 454.62 308.422 458.512 311.354 461.371C314.286 464.23 318.22 465.83 322.315 465.83C326.41 465.83 330.343 464.23 333.275 461.371C336.208 458.512 337.907 454.62 338.01 450.526V262.376H306.62V450.526Z" fill="black"/>
<path d="M536.03 450.526C536.133 454.62 537.832 458.512 540.764 461.371C543.697 464.23 547.63 465.83 551.725 465.83C555.82 465.83 559.753 464.23 562.686 461.371C565.618 458.512 567.317 454.62 567.42 450.526V262.376H536.03V450.526Z" fill="black"/>
<path d="M590.15 450.526C590.253 454.62 591.952 458.512 594.885 461.371C597.817 464.23 601.75 465.83 605.845 465.83C609.94 465.83 613.874 464.23 616.806 461.371C619.738 458.512 621.437 454.62 621.54 450.526V262.376H590.15V450.526Z" fill="black"/>
<path d="M677.17 177.906H621.54V16.0962C621.593 14.0018 621.226 11.9179 620.461 9.9675C619.696 8.01705 618.548 6.23943 617.086 4.7394C615.623 3.23936 613.875 2.04725 611.945 1.23329C610.014 0.419335 607.94 0 605.845 0C603.75 0 601.676 0.419335 599.745 1.23329C597.815 2.04725 596.067 3.23936 594.604 4.7394C593.142 6.23943 591.994 8.01705 591.229 9.9675C590.464 11.9179 590.097 14.0018 590.15 16.0962V177.906H567.42V16.0962C567.473 14.0018 567.106 11.9179 566.341 9.9675C565.576 8.01705 564.428 6.23943 562.966 4.7394C561.503 3.23936 559.755 2.04725 557.825 1.23329C555.894 0.419335 553.82 0 551.725 0C549.63 0 547.556 0.419335 545.625 1.23329C543.695 2.04725 541.947 3.23936 540.484 4.7394C539.022 6.23943 537.874 8.01705 537.109 9.9675C536.344 11.9179 535.977 14.0018 536.03 16.0962V177.906H428.72V16.0962C428.773 14.0018 428.406 11.9179 427.641 9.9675C426.876 8.01705 425.728 6.23943 424.266 4.7394C422.803 3.23936 421.055 2.04725 419.125 1.23329C417.194 0.419335 415.12 0 413.025 0C410.93 0 408.856 0.419335 406.925 1.23329C404.995 2.04725 403.247 3.23936 401.784 4.7394C400.322 6.23943 399.174 8.01705 398.409 9.9675C397.644 11.9179 397.277 14.0018 397.33 16.0962V177.906H338.01V16.0962C338.063 14.0018 337.696 11.9179 336.931 9.9675C336.166 8.01705 335.018 6.23943 333.556 4.7394C332.093 3.23936 330.345 2.04725 328.415 1.23329C326.484 0.419335 324.41 0 322.315 0C320.22 0 318.146 0.419335 316.215 1.23329C314.285 2.04725 312.537 3.23936 311.074 4.7394C309.612 6.23943 308.464 8.01705 307.699 9.9675C306.934 11.9179 306.567 14.0018 306.62 16.0962V177.906H286.01V16.0962C286.063 14.0018 285.696 11.9179 284.931 9.9675C284.166 8.01705 283.018 6.23943 281.556 4.7394C280.093 3.23936 278.345 2.04725 276.415 1.23329C274.484 0.419335 272.41 0 270.315 0C268.22 0 266.146 0.419335 264.215 1.23329C262.285 2.04725 260.537 3.23936 259.074 4.7394C257.612 6.23943 256.464 8.01705 255.699 9.9675C254.934 11.9179 254.567 14.0018 254.62 16.0962V177.906H198.37V16.0962C198.423 14.0018 198.056 11.9179 197.291 9.9675C196.526 8.01705 195.378 6.23943 193.916 4.7394C192.453 3.23936 190.705 2.04725 188.775 1.23329C186.844 0.419335 184.77 0 182.675 0C180.58 0 178.506 0.419335 176.575 1.23329C174.645 2.04725 172.897 3.23936 171.434 4.7394C169.972 6.23943 168.824 8.01705 168.059 9.9675C167.294 11.9179 166.927 14.0018 166.98 16.0962V177.906H111.35C81.827 177.941 53.5231 189.685 32.6481 210.561C11.7731 231.438 0.0317593 259.743 0 289.266V641.556C0.0317593 671.079 11.7731 699.384 32.6481 720.261C53.5231 741.138 81.827 752.882 111.35 752.916H677.17C706.693 752.882 734.997 741.138 755.872 720.261C776.747 699.384 788.488 671.079 788.52 641.556V289.266C788.488 259.743 776.747 231.438 755.872 210.561C734.997 189.685 706.693 177.941 677.17 177.906V177.906ZM757.17 641.556C757.151 662.768 748.717 683.105 733.718 698.104C718.719 713.103 698.382 721.538 677.17 721.556H111.35C90.1384 721.538 69.8008 713.103 54.8019 698.104C39.803 683.105 31.3685 662.768 31.35 641.556V289.266C31.3685 268.055 39.803 247.717 54.8019 232.718C69.8008 217.719 90.1384 209.285 111.35 209.266H677.17C698.382 209.285 718.719 217.719 733.718 232.718C748.717 247.717 757.151 268.055 757.17 289.266V641.556Z" fill="black"/>
</svg>
