<svg id="Layer_1" data-name="Layer 1" xmlns="http://www.w3.org/2000/svg" viewBox="0 0 1080 1080"><title>KASSA24_іcons_</title><path d="M312.72,613.87a15.7,15.7,0,0,0,31.39,0V425.72H312.72Z"/><path d="M400.36,613.87a15.7,15.7,0,0,0,31.39,0V425.72H400.36Z"/><path d="M543.07,613.87a15.7,15.7,0,0,0,31.39,0V425.72H543.07Z"/><path d="M452.36,613.87a15.7,15.7,0,0,0,31.39,0V425.72H452.36Z"/><path d="M681.77,613.87a15.7,15.7,0,0,0,31.39,0V425.72H681.77Z"/><path d="M735.89,613.87a15.7,15.7,0,0,0,31.39,0V425.72H735.89Z"/><path d="M822.91,341.25H767.28V179.44a15.7,15.7,0,1,0-31.39,0V341.25H713.16V179.44a15.7,15.7,0,1,0-31.39,0V341.25H574.46V179.44a15.7,15.7,0,1,0-31.39,0V341.25H483.75V179.44a15.7,15.7,0,1,0-31.39,0V341.25H431.75V179.44a15.7,15.7,0,1,0-31.39,0V341.25H344.11V179.44a15.7,15.7,0,1,0-31.39,0V341.25H257.09A111.48,111.48,0,0,0,145.74,452.61V804.9A111.48,111.48,0,0,0,257.09,916.26H822.91A111.48,111.48,0,0,0,934.26,804.9V452.61A111.48,111.48,0,0,0,822.91,341.25Zm80,463.65a80.07,80.07,0,0,1-80,80H257.09a80.07,80.07,0,0,1-80-80V452.61a80.07,80.07,0,0,1,80-80H822.91a80.07,80.07,0,0,1,80,80Z"/></svg>