<svg width="375" height="809" viewBox="0 0 375 809" fill="none" xmlns="http://www.w3.org/2000/svg">
<g clip-path="url(#clip0_416_130)">
<path d="M239.317 876.696C239.317 876.696 220.433 916.723 179.97 897.785C139.537 878.895 104.217 828.414 140.358 785.424C176.498 742.435 271.887 818.83 239.317 876.696Z" fill="white" fill-opacity="0.1"/>
<path d="M254.683 705.478C254.683 705.478 241.284 733.815 212.63 720.43C183.975 707.044 158.932 671.263 184.523 640.821C210.123 610.339 277.739 664.467 254.683 705.478Z" fill="white" fill-opacity="0.1"/>
<path d="M412.299 706.338C412.299 706.338 398.901 734.675 370.246 721.29C341.592 707.905 316.549 672.124 342.14 641.681C367.78 611.208 435.395 665.337 412.299 706.338Z" fill="white" fill-opacity="0.1"/>
<path d="M319.647 602.733C319.647 602.733 309.147 625.01 286.655 614.462C264.154 603.954 244.507 575.857 264.613 551.952C284.68 528.039 337.774 570.527 319.647 602.733Z" fill="white" fill-opacity="0.1"/>
<path d="M410.125 865.717C410.125 865.717 385.34 918.132 332.372 893.392C279.373 868.603 233.08 802.461 280.414 746.155C327.796 689.818 452.797 789.92 410.125 865.717Z" fill="white" fill-opacity="0.1"/>
</g>
<g opacity="0.05" clip-path="url(#clip1_416_130)">
<path d="M83.5713 37.9831C77.0595 37.0706 71.2781 39.288 67.1263 43.2762C66.4264 42.1391 65.1001 41.4919 63.6132 42.3928C51.8083 49.5698 51.647 66.2978 63.0614 74.0292C74.6377 81.8752 89.8683 76.7337 97.1352 65.5843C104.933 53.6326 97.3937 39.9372 83.5713 37.9831ZM61.3541 52.9065C60.7351 55.0411 60.4343 57.3029 60.4758 59.6199C60.1397 57.3438 60.4047 55.0098 61.3541 52.9065ZM91.4136 63.6363C86.208 70.5137 77.0448 74.3152 68.8162 70.5812C65.6832 69.165 63.2803 66.7131 61.8521 63.8687C63.634 64.8897 66.7086 63.5626 66.3498 60.8182C65.1614 51.7262 72.1211 42.9766 81.6384 43.6002C92.6278 44.3192 98.1694 54.7179 91.4136 63.6363Z" fill="#E5E5E5"/>
<path d="M134.474 79.8883C130.027 73.5633 120.169 67.9985 113.785 75.0396C113.086 75.8053 112.909 76.687 113.009 77.5217C108.633 79.9124 106.208 85.2035 107.984 90.4682C110.678 98.4253 119.854 101.016 127.223 98.3727C135.314 95.4916 139.801 87.4711 134.474 79.8883ZM125.947 92.6957C122.349 94.2069 117.728 94.1718 114.936 91.0882C112.048 87.8722 112.96 81.8912 118.08 81.9943C120.532 82.0394 121.507 79.5641 120.85 77.8209C127.481 77.2513 136.554 88.2393 125.947 92.6957Z" fill="#E5E5E5"/>
<path d="M74.0498 134.808C73.6266 135.707 73.7025 136.493 74.0794 137.101C70.5371 142.316 69.0895 148.457 72.7263 154.509C78.4804 164.098 94.7645 166.841 103.791 160.53C126.642 144.559 86.5572 108.642 74.0498 134.808ZM95.8001 157.638C89.5108 158.803 80.0504 157.177 77.2023 150.63C73.8106 142.898 82.2273 135.301 88.1268 131.721C88.2291 131.655 88.3134 131.584 88.3978 131.512C93.0604 131.781 98.0821 134.735 100.837 138.167C106.19 144.897 105.685 155.802 95.8001 157.638Z" fill="#E5E5E5"/>
<path d="M166.201 142.929C162.356 138.509 154.275 135.586 149.681 138.744C149.561 138.744 149.458 138.749 149.332 138.767C141.306 140.087 135.15 151.571 139.631 158.629C144.244 165.891 155.156 168.506 162.476 163.983C169.55 159.598 171.79 149.378 166.201 142.929ZM156.706 160.157C152.695 161.108 147.94 159.566 145.238 156.453C142.908 153.785 144.394 148.898 147.172 146.25C148.61 147.576 151.833 147.059 152.327 144.402C152.846 141.613 158.392 144.022 159.777 144.97C161.733 146.31 163.242 148.2 163.542 150.584C164.088 154.974 160.921 159.134 156.706 160.157Z" fill="#E5E5E5"/>
<path d="M271.992 155.987C268.418 153.261 263.629 153.249 260.137 155.457C259.867 155.426 259.584 155.431 259.283 155.49C252.88 156.696 250.712 164.618 254.003 169.732C256.079 172.975 259.679 174.909 263.349 175.865C267.126 176.857 270.179 176.725 272.796 173.541C276.866 168.664 277.467 160.155 271.992 155.987ZM268.758 169.336C267.581 171.043 266.662 170.793 264.795 170.264C263.149 169.79 261.432 169.171 260.12 168.008C258.957 166.995 258.025 164.819 258.336 163.181C259.675 163.552 261.299 163.138 262.025 161.52C263.113 159.063 266.965 159.18 268.698 160.765C271.041 162.916 270.369 166.995 268.758 169.336Z" fill="#E5E5E5"/>
<path d="M188.655 80.2818C182.576 79.3349 176.99 80.4366 172.049 82.8972C171.089 82.2934 169.828 82.1687 168.695 83.0888C165.696 85.5026 162.995 88.5178 160.798 91.883C157.814 95.3233 155.327 99.2516 153.368 103.338C152.485 105.183 153.744 106.569 155.317 106.899C154.964 110.625 155.356 114.402 156.74 118.032C161.351 130.24 176.781 135.459 188.899 134.496C217.468 132.207 215.734 84.5 188.655 80.2818ZM201.646 119.105C196.056 132.302 177.492 130.552 167.651 123.091C158.02 115.78 160.11 103.507 166.151 94.5079C172.323 87.9762 180.748 83.8058 190.104 86.4576C203.668 90.3075 206.534 107.575 201.646 119.105Z" fill="#E5E5E5"/>
<path d="M238.567 185.899C233.189 177.157 222.432 172.652 213.301 175.763C212.546 174.908 211.346 174.483 210.022 175.139C198.155 180.953 189.055 194.268 195.171 207.544C200.601 219.347 218.299 223.428 229.748 219.035C243.115 213.887 245.512 197.191 238.567 185.899ZM224.839 214.437C216.138 216.271 203.167 212.982 199.989 203.841C197.42 196.466 200.527 189.803 205.715 185.002C206.662 186.062 208.217 186.446 209.471 185.106C217.228 176.846 229.279 180.666 234.253 189.952C239.304 199.425 236.252 212.054 224.839 214.437Z" fill="#E5E5E5"/>
<path d="M131.584 182.032C118.268 175.062 107.226 189.024 101.386 198.973C100.245 200.931 101.568 202.899 103.195 203.427C102.92 209.242 105.115 215.049 110.176 219.197C119.589 226.915 133.652 224.464 139.949 214.05C145.8 204.366 141.893 187.449 131.584 182.032ZM115.413 215.855C107.675 211.025 106.827 200.505 112.915 193.986C113.638 193.208 113.833 192.272 113.697 191.425C116.759 188.232 120.491 185.964 125.196 186.228C134.419 186.712 138.796 201.164 136.179 208.574C133.198 217.002 122.954 220.559 115.413 215.855Z" fill="#E5E5E5"/>
<path d="M48.6053 153.951C40.598 146.346 31.0529 147.055 22.4236 151.177C21.2244 150.212 19.26 149.971 17.9757 151.46C16.5469 153.082 15.1177 154.823 13.7244 156.637C10.6529 159.026 7.85699 161.669 5.51193 164.283C4.05903 165.916 4.78603 168.104 6.14749 169.063C2.24023 177.98 1.72654 187.54 9.55709 196.027C19.4426 206.748 39.8983 211.277 50.4548 199.294C60.4988 187.879 59.8191 164.599 48.6053 153.951ZM46.0847 195.418C37.3609 205.356 19.1375 199.856 12.2599 190.148C5.13687 180.098 11.0808 169.244 17.896 160.566C25.5328 154.628 35.0027 150.749 43.5061 157.179C53.7965 164.973 54.1634 186.204 46.0847 195.418Z" fill="#E5E5E5"/>
<path d="M171.748 245.452C173.317 242.997 169.949 239.539 167.359 241.75C159.925 248.097 152.667 258.388 157.795 268.347C162.11 276.731 173.275 279.431 181.774 276.768C203.77 269.88 186.012 239.965 171.748 245.452ZM172.707 271.83C167.289 271.006 162.371 267.566 161.966 261.802C161.695 257.846 163.574 254.233 166.137 251.151C166.492 253.194 169.733 254.586 171.56 252.438C177.764 245.156 186.862 258.215 186.521 264.048C186.106 270.637 178.149 272.642 172.707 271.83Z" fill="#E5E5E5"/>
<path d="M88.4058 235.413C80.9554 228.477 73.1492 228.43 65.9886 231.704C65.4321 230.856 64.4481 230.324 63.1431 230.625C49.1136 233.928 40.7739 254.75 44.8901 267.652C50.4597 285.17 72.4414 281.302 84.6507 273.52C98.2988 264.801 100.489 246.634 88.4058 235.413ZM82.5752 267.894C73.9404 273.996 55.1089 279.527 50.5434 266.112C48.9103 261.317 49.7473 254.309 52.3845 248.268C53.2367 248.656 54.2346 248.551 55.0906 247.618C61.5048 240.487 70.4729 231.313 80.8234 236.963C92.974 243.581 93.6849 260.042 82.5752 267.894Z" fill="#E5E5E5"/>
<path d="M285.083 246.894C277.203 232.663 257.931 228.071 245.717 239.557C244.428 240.764 244.604 242.386 245.436 243.487C234.832 246.803 226.421 260.871 229.546 271.357C231.767 278.814 239.1 284.85 245.658 288.422C252.828 292.32 260.886 292.812 268.162 288.895C281.181 281.867 292.862 260.95 285.083 246.894ZM270.531 280.021C260.45 289.701 247.499 285.457 238.944 275.906C233.798 270.166 233.905 264.254 237.764 257.744C240.94 252.366 246.884 245.557 253.808 249.412C257.048 251.225 260.343 246.448 257.085 244.629C255.039 243.499 252.949 242.915 250.882 242.799C259.519 236.036 271.736 238.291 278.382 247.199C286.045 257.431 278.762 272.14 270.531 280.021Z" fill="#E5E5E5"/>
<path d="M13.1769 97.133C8.44112 92.9738 2.35035 91.9428 -3.29031 93.2664C-3.7426 91.6921 -5.40352 90.3714 -7.32303 91.2466C-18.0999 96.1465 -23.5597 110.088 -17.1169 120.55C-11.0749 130.356 2.86431 133.511 12.2762 126.769C22.1458 119.681 22.1629 105.047 13.1769 97.133ZM8.07533 122.57C1.14622 126.884 -8.93569 124.008 -12.6711 116.701C-14.0756 113.964 -14.4038 111.01 -13.9032 108.215C-13.3138 108.073 -12.7598 107.679 -12.3732 106.948C-8.44068 99.7418 1.49923 95.421 8.73123 100.922C15.9511 106.459 15.8653 117.725 8.07533 122.57Z" fill="#E5E5E5"/>
<path d="M15.7304 26.9991C5.49824 19.8664 -2.9977 23.5923 -9.12509 31.3006C-9.9117 31.0756 -10.8015 31.2163 -11.6088 31.9456C-21.0978 40.4637 -20.5509 55.3876 -10.6519 63.4496C-1.08262 71.2401 14.3929 70.9074 22.3475 60.931C30.9716 50.0988 26.4784 34.506 15.7304 26.9991ZM18.617 56.1693C13.4626 64.0853 2.09001 64.9795 -5.43809 60.0596C-11.3586 56.2021 -13.8628 49.17 -12.0426 42.9944C-10.9382 43.4666 -9.66355 43.2553 -8.95048 41.8534C-4.8956 33.8673 0.934862 24.8974 11.0561 30.8713C19.5575 35.8788 24.4171 47.2894 18.617 56.1693Z" fill="#E5E5E5"/>
<path d="M1.33999 224.639C-5.51693 216.12 -20.6163 210.932 -27.3987 220.763C-36.5244 226.179 -42.5397 236.769 -37.4614 247.352C-32.0006 258.705 -14.568 261.195 -4.32389 255.554C7.41282 249.115 9.50838 234.802 1.33999 224.639ZM-12.4518 252.355C-20.2682 253.766 -31.3772 250.724 -33.1493 241.936C-34.3229 236.133 -31.6712 231.359 -27.5812 227.971C-26.1826 228.523 -24.4087 228.139 -23.7426 226.341C-23.573 225.897 -23.3976 225.496 -23.2103 225.118C-22.1932 224.6 -21.1583 224.147 -20.1296 223.773C-18.734 223.262 -18.3162 222.141 -18.5114 221.054C-12.2632 219.535 -3.32923 226.711 -0.718122 232.056C3.73333 241.167 -3.1142 250.655 -12.4518 252.355Z" fill="#E5E5E5"/>
<path d="M140.114 296.295C139.289 288.387 132.74 283.596 125.515 282.063C127.557 280.288 126.313 276.124 123.186 277.012C114.982 279.335 106.566 286.812 107.014 296.076C107.423 304.625 118.926 310.904 126.58 311.34C135.029 311.804 140.974 304.515 140.114 296.295ZM125.143 305.249C120.423 304.259 112.675 300.346 112.967 294.897C113.151 291.495 115.034 288.525 117.631 286.295C118.05 286.897 118.758 287.296 119.743 287.288C124.996 287.235 131.487 288.922 133.702 294.314C136.244 300.458 131.81 306.654 125.143 305.249Z" fill="#E5E5E5"/>
<path d="M228.486 310.993C224.273 302.244 201.365 280.886 194.733 297.056C194.612 297.356 194.557 297.637 194.526 297.907C191.39 299.714 188.75 302.67 186.559 305.957C181.858 313.004 177.13 321.084 177.622 329.861C178.091 338.23 183.37 343.874 190.649 347.388C197.635 350.764 206.34 353.977 214.057 351.371C228.079 346.663 234.43 323.35 228.486 310.993ZM209.889 346.361C200.781 347.618 185.24 341.06 183.579 331.228C182.51 324.879 185.568 318.72 188.75 313.444C191.726 308.479 196.017 300.092 203.12 302.225C205.78 303.021 207.519 300.183 206.731 298.235C206.995 298.344 207.217 298.459 207.421 298.568C208.477 299.124 209.485 299.884 210.474 300.578C212.334 301.845 214.151 303.178 215.871 304.619C219.84 307.959 223.56 312.217 224.609 317.437C226.566 326.988 220.956 344.824 209.889 346.361Z" fill="#E5E5E5"/>
<path d="M349.189 207.714C351.091 195.878 342.402 185.18 331.208 184.292C328.173 180.085 322.867 178.037 317.57 178.815C310.44 179.857 304.673 185.544 300.649 191.177C295.641 198.181 295.814 204.929 300.193 212.232C303.997 218.56 310.082 223.835 317.233 226.005C331.031 230.173 346.81 222.513 349.189 207.714ZM321.682 221.135C312.852 219.662 299.661 208.989 302.971 198.809C305.062 192.424 317.023 180.914 324.049 185.124C321.178 186.5 322.36 191.504 325.776 190.592C326.57 190.379 327.333 190.256 328.103 190.175C329.062 190.959 330.385 190.844 331.402 190.205C339.536 191.244 345.415 199.333 343.208 208.142C340.856 217.623 331.004 222.694 321.682 221.135Z" fill="#E5E5E5"/>
<path d="M300.019 329.409C299.158 323.391 294.389 318.26 290.206 314.187C285.885 309.987 280.67 307.308 274.584 308.822C272.834 309.254 272.199 310.842 272.435 312.224C264.431 314.253 257.529 319.617 256.356 328.635C255.588 334.604 258.163 339.878 262.545 343.838C266.801 347.695 273.495 352.113 279.432 352.292C289.96 352.595 301.504 339.823 300.019 329.409ZM276.578 345.822C269.505 343.539 260.222 336.506 262.306 328.177C264.458 319.589 273.432 316.705 281.328 317.143C282.331 317.201 283.083 316.813 283.584 316.221C288.665 319.235 293.18 325.182 294.002 329.705C295.536 338.012 284.917 348.512 276.578 345.822Z" fill="#E5E5E5"/>
<path d="M21.8804 273.737C14.8423 269.803 6.32806 273.643 3.09364 280.504C2.76723 281.175 2.74147 281.787 2.90828 282.304C0.624462 286.641 1.78557 292.6 5.95832 296.109C11.9236 301.143 21.7706 299.955 26.3437 293.585C30.8807 287.264 28.6965 277.556 21.8804 273.737ZM22.3242 289.027C20.7339 292.496 16.1377 294.232 12.5649 293.228C7.85108 291.92 4.98547 285.187 10.6526 283.011C12.6138 282.25 12.6554 280.281 11.7037 278.939C17.235 275.917 25.668 281.722 22.3242 289.027Z" fill="#E5E5E5"/>
<path d="M61.5586 336.693C59.3463 324.152 47.7988 316.756 36.0647 318.009C23.3584 312.386 10.9496 327.01 9.17875 339.11C6.93638 354.335 24.9626 365.837 38.6365 365.077C53.1457 364.279 64.0901 351.084 61.5586 336.693ZM40.8169 359.023C31.5213 360.777 16.33 354.076 14.8448 343.723C13.7956 336.42 20.0717 324.997 27.7878 322.93C28.2522 324.469 29.9072 325.747 31.8445 324.938C32.8734 324.504 33.9379 324.202 34.9962 323.978C35.2302 324.117 35.4642 324.255 35.7101 324.418C37.2695 325.505 38.87 324.802 39.6848 323.575C47.4299 323.982 54.3916 329.452 55.8764 337.843C57.6451 347.831 50.6898 357.163 40.8169 359.023Z" fill="#E5E5E5"/>
<path d="M124.458 341.746C119.688 338.998 114.58 338.859 110.104 340.535C109.564 340.173 108.85 340.032 108.014 340.251C96.9784 343.061 90.9824 355.32 96.7288 365.527C102.691 376.107 116.916 377.997 126 370.263C135.006 362.584 135.179 347.903 124.458 341.746ZM122.196 365.838C116.462 370.654 107.664 370.393 102.898 364.361C101.269 362.291 100.458 359.935 100.363 357.599C101.684 357.964 103.182 357.508 103.637 355.799C105.508 348.759 112.303 343.058 119.83 345.955C128.481 349.27 128.907 360.208 122.196 365.838Z" fill="#E5E5E5"/>
<path d="M196.554 397.242C193.748 388.726 184.487 380.259 175.612 379.751C162.583 375.501 145.71 383.494 144.69 398.01C143.532 414.362 160.207 425.648 175.157 426.04C190.607 426.439 201.434 412.044 196.554 397.242ZM169.569 419.411C159.786 417.015 149.669 409.481 150.488 398.361C151.05 390.801 157.313 386.142 164.294 384.889C163.962 385.278 163.661 385.697 163.353 386.134C161.217 389.2 166.015 392.459 168.145 389.411C169.817 387.011 171.731 385.733 173.722 385.303C174.748 385.588 175.721 385.976 176.651 386.43C177.785 386.992 178.736 386.732 179.38 386.068C186.055 389.058 192.091 398.582 191.984 404.854C191.811 417.092 180.241 422.025 169.569 419.411Z" fill="#E5E5E5"/>
<path d="M271.498 397.682C270.075 388.511 262.46 382.601 253.943 380.912C253.77 380.354 253.393 379.866 252.703 379.473C246.601 376.155 240.515 377.789 235.256 381.965C230.239 385.962 224.075 391.936 223.833 398.784C223.389 411.471 242.108 420.202 252.714 420.391C264.679 420.598 273.304 409.225 271.498 397.682ZM255.922 414.323C248.279 415.993 236.829 410.513 231.924 404.594C227.354 399.049 231.172 393.967 235.307 389.793C236.916 388.172 238.862 386.265 241.005 384.964C241.41 386.202 242.531 387.16 244.191 386.758C251.949 384.867 261.478 387.597 264.875 395.491C268.01 402.735 263.89 412.582 255.922 414.323Z" fill="#E5E5E5"/>
<path d="M265.497 123.658C265.392 116.053 256.081 103.924 247.856 105.298C247.369 105.374 246.966 105.558 246.623 105.803C240.114 106.133 234.038 110.474 232.378 117.305C230.067 126.84 236.664 136.072 246.172 137.674C254.966 139.135 265.637 133.479 265.497 123.658ZM246.189 131.792C240.796 130.415 237.229 125.468 237.803 119.894C238.544 112.814 246.1 109.913 252.018 112.648C252.45 112.854 252.865 112.933 253.249 112.923C256.163 115.526 258.975 119.979 259.39 121.901C261.01 129.296 252.434 133.376 246.189 131.792Z" fill="#E5E5E5"/>
<path d="M333.935 129.596C329.699 120.799 320.822 116.607 311.879 117.138C311.677 116.309 311.126 115.562 310.087 115.192C298.987 111.111 289.34 130.871 290.187 139.668C291.395 152.331 310.226 162.041 321.642 158.578C333.918 154.824 339.414 140.895 333.935 129.596ZM323.302 151.448C315.085 156.549 303.809 150.907 298.191 144.067C294.676 139.799 295.982 134.671 298.35 130.203C298.906 129.148 299.849 127.363 301.014 125.573C301.698 125.923 302.557 125.992 303.472 125.48C311.182 121.229 321.325 121.722 326.971 129.192C332.419 136.415 331.11 146.609 323.302 151.448Z" fill="#E5E5E5"/>
<path d="M0.243327 392.053C0.0954706 382.671 -8.516 376.205 -17.4423 376.982C-17.815 377.016 -18.1278 377.111 -18.4106 377.236C-17.9493 375.629 -18.7428 373.58 -20.8936 373.356C-30.6141 372.323 -38.3858 385.625 -37.2622 394.195C-35.9851 403.797 -25.9373 410.227 -16.6994 409.775C-7.46144 409.323 0.379233 401.411 0.243327 392.053ZM-17.9512 404.026C-23.1792 403.947 -28.9274 400.768 -30.9024 395.737C-32.9609 390.477 -28.2875 378.394 -21.2404 379.146C-20.6036 379.221 -20.0805 379.097 -19.6411 378.864C-19.9825 380.592 -18.6669 382.878 -16.2865 382.658C-10.3596 382.152 -5.06177 387.322 -5.58939 393.292C-6.15994 399.568 -11.8217 404.109 -17.9512 404.026Z" fill="#E5E5E5"/>
<path d="M85.7255 397.586C77.2475 388.521 60.1165 383.47 48.3335 389.272C34.1397 391.158 26.0524 405.576 28.8448 419.074C31.655 432.698 43.1467 442.818 56.6433 445.263C69.5032 447.574 82.6249 442.263 88.8418 430.539C94.3578 420.121 94.0236 406.471 85.7255 397.586ZM75.6277 436.6C64.4667 443.474 48.6305 439.579 40.4068 429.879C32.153 420.149 31.9598 403.401 42.7105 397.151C43.6445 398.367 45.3196 398.931 46.6937 397.532C47.7966 396.401 49.0612 395.506 50.4093 394.778C50.9625 394.684 51.4018 394.452 51.7092 394.135C62.66 389.374 79.1445 395.629 84.4348 405.643C89.9401 416.089 85.5426 430.509 75.6277 436.6Z" fill="#E5E5E5"/>
<path d="M159.558 446.798C155.758 439.089 148.071 437.019 140.64 438.3C140.126 437.266 139.082 436.554 137.609 436.878C129.66 438.626 124.142 447.381 127.209 455.243C130.467 463.61 141.663 469.786 150.437 467.556C159.211 465.326 163.496 454.754 159.558 446.798ZM148.049 462.145C142.656 463.031 135.9 459.033 133.233 454.449C131.558 451.562 132.066 448.208 133.888 445.778C134.566 446.087 135.372 446.138 136.232 445.727C141.967 443.053 148.832 442.082 153.288 447.669C157.36 452.786 154.68 461.035 148.049 462.145Z" fill="#E5E5E5"/>
<path d="M255.534 468.745C252.901 458.585 244.088 451.17 234.141 449.32C234.307 448.114 233.788 446.858 232.244 446.438C203.871 438.559 178.01 477.689 201.87 498.305C212.373 507.372 228.684 509.143 240.801 502.352C252.351 495.87 258.911 481.699 255.534 468.745ZM224.64 500.671C210.361 500.726 197.007 490.298 198.444 475.142C199.516 463.747 209.231 453.663 220.373 451.55C219.52 453.545 220.804 456.341 223.427 455.583C236.671 451.694 250.603 461.656 250.617 475.66C250.619 489.939 238.582 500.603 224.64 500.671Z" fill="#E5E5E5"/>
</g>
<defs>
<clipPath id="clip0_416_130">
<rect width="368.422" height="290.912" fill="white" transform="translate(110 882.56) rotate(-76.7133)"/>
</clipPath>
<clipPath id="clip1_416_130">
<rect width="424.056" height="407.234" fill="white" transform="translate(-27.9609) rotate(18.622)"/>
</clipPath>
</defs>
</svg>
