<svg width="1440" height="714" viewBox="0 0 1440 714" fill="none" xmlns="http://www.w3.org/2000/svg">
<g clip-path="url(#clip0_408_127)">
<path d="M1239.48 690.323C1239.48 690.323 1212.1 748.353 1153.44 720.897C1094.82 693.512 1043.62 620.326 1096.01 558.001C1148.41 495.677 1286.7 606.432 1239.48 690.323Z" fill="white" fill-opacity="0.1"/>
<path d="M1261.76 442.099C1261.76 442.099 1242.33 483.18 1200.79 463.775C1159.25 444.37 1122.94 392.496 1160.04 348.362C1197.15 304.17 1295.18 382.643 1261.76 442.099Z" fill="white" fill-opacity="0.1"/>
<path d="M1490.26 443.346C1490.26 443.346 1470.84 484.427 1429.29 465.022C1387.75 445.617 1351.45 393.743 1388.55 349.609C1425.72 305.431 1523.74 383.904 1490.26 443.346Z" fill="white" fill-opacity="0.1"/>
<path d="M1355.94 293.143C1355.94 293.143 1340.72 325.44 1308.11 310.148C1275.49 294.914 1247 254.179 1276.15 219.524C1305.24 184.855 1382.22 246.453 1355.94 293.143Z" fill="white" fill-opacity="0.1"/>
<path d="M1487.11 674.406C1487.11 674.406 1451.18 750.396 1374.38 714.529C1297.55 678.591 1230.44 582.701 1299.06 501.07C1367.75 419.396 1548.97 564.52 1487.11 674.406Z" fill="white" fill-opacity="0.1"/>
</g>
<g opacity="0.05" clip-path="url(#clip1_408_127)">
<path d="M40.6498 54.1901C31.3595 52.8882 23.1111 56.0517 17.1878 61.7417C16.1892 60.1194 14.297 59.1961 12.1756 60.4813C-4.6664 70.7208 -4.8965 94.5866 11.3884 105.617C27.9043 116.811 49.6338 109.476 60.0014 93.5687C71.1268 76.5171 60.3702 56.9779 40.6498 54.1901ZM8.95252 75.4813C8.06942 78.5266 7.64023 81.7535 7.69951 85.0593C7.21995 81.8119 7.59799 78.4821 8.95252 75.4813ZM51.8384 90.7895C44.4116 100.601 31.3384 106.025 19.5988 100.698C15.1289 98.6772 11.7007 95.1791 9.66298 91.121C12.2053 92.5777 16.5918 90.6843 16.0799 86.7688C14.3845 73.7973 24.3138 61.3142 37.8922 62.2039C53.5708 63.2298 61.4769 78.0656 51.8384 90.7895Z" fill="#E5E5E5"/>
<path d="M113.273 113.977C106.928 104.953 92.8639 97.0137 83.756 107.059C82.7583 108.152 82.5061 109.41 82.6485 110.6C76.4058 114.011 72.9465 121.56 75.4803 129.071C79.3237 140.424 92.414 144.12 102.928 140.348C114.471 136.238 120.873 124.795 113.273 113.977ZM101.107 132.249C95.9738 134.405 89.3807 134.355 85.3977 129.956C81.278 125.367 82.5795 116.834 89.884 116.981C93.3819 117.046 94.7723 113.514 93.8361 111.027C103.295 110.215 116.24 125.891 101.107 132.249Z" fill="#E5E5E5"/>
<path d="M27.066 192.33C26.4622 193.612 26.5705 194.735 27.1082 195.602C22.0544 203.042 19.9892 211.803 25.1777 220.437C33.3872 234.118 56.6197 238.032 69.4972 229.028C102.099 206.242 44.9102 154.999 27.066 192.33ZM58.0971 224.901C49.1242 226.564 35.627 224.244 31.5636 214.903C26.7248 203.873 38.7329 193.033 47.1496 187.926C47.2956 187.832 47.4159 187.73 47.5363 187.628C54.1884 188.012 61.3528 192.226 65.283 197.122C72.9209 206.724 72.1998 222.282 58.0971 224.901Z" fill="#E5E5E5"/>
<path d="M158.538 203.917C153.051 197.611 141.523 193.44 134.968 197.946C134.797 197.946 134.651 197.954 134.471 197.979C123.02 199.863 114.237 216.247 120.63 226.316C127.211 236.676 142.78 240.408 153.223 233.955C163.315 227.699 166.511 213.118 158.538 203.917ZM144.991 228.496C139.268 229.853 132.484 227.653 128.63 223.211C125.305 219.405 127.425 212.434 131.389 208.655C133.441 210.546 138.039 209.81 138.744 206.019C139.484 202.039 147.396 205.477 149.373 206.829C152.163 208.74 154.316 211.437 154.743 214.839C155.523 221.101 151.005 227.036 144.991 228.496Z" fill="#E5E5E5"/>
<path d="M309.47 222.546C304.371 218.656 297.538 218.64 292.556 221.79C292.17 221.745 291.767 221.752 291.338 221.836C282.203 223.558 279.11 234.859 283.805 242.156C286.767 246.782 291.903 249.542 297.138 250.906C302.527 252.321 306.883 252.132 310.617 247.59C316.424 240.632 317.281 228.492 309.47 222.546ZM304.855 241.591C303.176 244.026 301.866 243.67 299.201 242.915C296.854 242.238 294.404 241.356 292.531 239.696C290.872 238.251 289.543 235.146 289.987 232.81C291.898 233.339 294.214 232.749 295.25 230.44C296.803 226.935 302.298 227.101 304.77 229.362C308.113 232.432 307.154 238.252 304.855 241.591Z" fill="#E5E5E5"/>
<path d="M190.573 114.538C181.9 113.187 173.931 114.759 166.882 118.269C165.512 117.408 163.712 117.23 162.097 118.543C157.817 121.987 153.964 126.288 150.83 131.089C146.572 135.998 143.024 141.602 140.229 147.432C138.97 150.065 140.765 152.041 143.01 152.512C142.506 157.828 143.066 163.217 145.04 168.396C151.619 185.814 173.632 193.26 190.921 191.885C231.681 188.62 229.207 120.556 190.573 114.538ZM209.108 169.927C201.133 188.755 174.647 186.259 160.607 175.613C146.867 165.183 149.848 147.673 158.467 134.834C167.273 125.516 179.293 119.566 192.64 123.349C211.993 128.842 216.082 153.477 209.108 169.927Z" fill="#E5E5E5"/>
<path d="M261.782 265.221C254.11 252.75 238.763 246.321 225.736 250.76C224.659 249.54 222.946 248.935 221.057 249.87C204.126 258.165 191.143 277.162 199.87 296.103C207.616 312.942 232.866 318.764 249.2 312.497C268.272 305.151 271.691 281.332 261.782 265.221ZM242.197 305.937C229.783 308.554 211.277 303.861 206.744 290.819C203.078 280.298 207.512 270.791 214.913 263.942C216.263 265.455 218.482 266.002 220.271 264.091C231.339 252.305 248.531 257.756 255.627 271.004C262.834 284.519 258.479 302.537 242.197 305.937Z" fill="#E5E5E5"/>
<path d="M109.15 259.705C90.1529 249.76 74.3982 269.681 66.0674 283.874C64.4391 286.668 66.326 289.475 68.6473 290.229C68.2553 298.526 71.3871 306.81 78.6067 312.728C92.0366 323.739 112.101 320.243 121.085 305.384C129.432 291.568 123.858 267.432 109.15 259.705ZM86.0794 307.96C75.0386 301.068 73.8291 286.061 82.5148 276.759C83.5468 275.649 83.8249 274.314 83.6311 273.106C87.9994 268.549 93.3243 265.315 100.037 265.691C113.195 266.382 119.439 287.001 115.705 297.571C111.453 309.596 96.8377 314.671 86.0794 307.96Z" fill="#E5E5E5"/>
<path d="M-9.23555 219.642C-20.6596 208.792 -34.2776 209.803 -46.589 215.684C-48.2999 214.307 -51.1025 213.963 -52.9347 216.088C-54.9732 218.401 -57.0122 220.886 -59.0001 223.473C-63.3823 226.882 -67.3711 230.653 -70.7169 234.383C-72.7897 236.713 -71.7525 239.834 -69.8101 241.203C-75.3846 253.924 -76.1175 267.563 -64.9456 279.671C-50.8419 294.967 -21.6578 301.429 -6.59692 284.332C7.73288 268.046 6.76325 234.833 -9.23555 219.642ZM-12.8317 278.803C-25.2779 292.981 -51.2772 285.134 -61.0895 271.284C-71.2519 256.946 -62.7717 241.46 -53.0485 229.079C-42.1531 220.607 -28.6423 215.074 -16.5105 224.248C-1.8292 235.366 -1.30576 265.658 -12.8317 278.803Z" fill="#E5E5E5"/>
<path d="M166.451 350.186C168.69 346.683 163.886 341.75 160.19 344.905C149.584 353.96 139.229 368.642 146.545 382.851C152.702 394.811 168.63 398.664 180.755 394.864C212.137 385.038 186.802 342.357 166.451 350.186ZM167.82 387.819C160.09 386.643 153.073 381.736 152.496 373.513C152.109 367.868 154.79 362.714 158.446 358.317C158.952 361.231 163.577 363.218 166.183 360.153C175.035 349.764 188.014 368.395 187.528 376.717C186.936 386.118 175.585 388.979 167.82 387.819Z" fill="#E5E5E5"/>
<path d="M47.5475 335.863C36.9181 325.967 25.781 325.9 15.565 330.572C14.7711 329.361 13.3671 328.603 11.5054 329.032C-8.51056 333.745 -20.4089 363.451 -14.5362 381.859C-6.59011 406.851 24.7712 401.332 42.1901 390.23C61.6619 377.791 64.7872 351.872 47.5475 335.863ZM39.2291 382.204C26.9097 390.91 0.0429529 398.8 -6.47068 379.662C-8.80063 372.82 -7.60645 362.822 -3.84401 354.204C-2.62809 354.756 -1.20441 354.607 0.0168214 353.276C9.16798 343.102 21.9626 330.013 36.7297 338.075C54.0651 347.516 55.0792 371.001 39.2291 382.204Z" fill="#E5E5E5"/>
<path d="M328.147 352.242C316.904 331.939 289.409 325.389 271.984 341.775C270.144 343.498 270.395 345.811 271.583 347.382C256.454 352.113 244.454 372.184 248.913 387.144C252.081 397.784 262.543 406.395 271.899 411.49C282.129 417.052 293.625 417.754 304.006 412.166C322.58 402.139 339.245 372.297 328.147 352.242ZM307.386 399.505C293.003 413.316 274.526 407.261 262.321 393.634C254.979 385.446 255.132 377.011 260.637 367.723C265.168 360.05 273.649 350.336 283.528 355.836C288.15 358.422 292.851 351.606 288.203 349.011C285.283 347.399 282.302 346.566 279.353 346.401C291.675 336.752 309.105 339.969 318.586 352.678C329.52 367.277 319.129 388.261 307.386 399.505Z" fill="#E5E5E5"/>
<path d="M121.32 422.723C120.143 411.441 110.8 404.606 100.492 402.419C103.405 399.886 101.63 393.945 97.1681 395.213C85.4641 398.526 73.4564 409.195 74.0966 422.411C74.6795 434.608 91.0903 443.566 102.012 444.189C114.064 444.85 122.547 434.451 121.32 422.723ZM99.9611 435.498C93.2261 434.086 82.1731 428.504 82.5893 420.73C82.8517 415.875 85.5386 411.638 89.2429 408.457C89.8406 409.316 90.8507 409.885 92.2569 409.873C99.7506 409.798 109.012 412.204 112.171 419.898C115.799 428.663 109.472 437.503 99.9611 435.498Z" fill="#E5E5E5"/>
<path d="M247.399 443.693C241.39 431.21 208.707 400.74 199.245 423.809C199.072 424.237 198.994 424.639 198.95 425.024C194.476 427.602 190.708 431.819 187.583 436.508C180.876 446.563 174.13 458.09 174.832 470.612C175.501 482.553 183.032 490.605 193.418 495.619C203.384 500.434 215.803 505.019 226.814 501.3C246.819 494.584 255.88 461.322 247.399 443.693ZM220.867 494.153C207.873 495.946 185.701 486.59 183.332 472.562C181.805 463.505 186.168 454.718 190.708 447.19C194.955 440.107 201.076 428.14 211.21 431.184C215.005 432.32 217.486 428.27 216.362 425.491C216.739 425.647 217.055 425.811 217.346 425.966C218.853 426.759 220.291 427.844 221.702 428.834C224.355 430.642 226.948 432.544 229.403 434.6C235.065 439.365 240.372 445.439 241.869 452.886C244.66 466.513 236.657 491.96 220.867 494.153Z" fill="#E5E5E5"/>
<path d="M419.607 296.345C422.321 279.459 409.924 264.196 393.954 262.929C389.624 256.927 382.053 254.005 374.497 255.115C364.324 256.602 356.096 264.715 350.355 272.752C343.21 282.745 343.457 292.372 349.704 302.791C355.132 311.82 363.813 319.345 374.015 322.44C393.701 328.388 416.212 317.459 419.607 296.345ZM380.362 315.493C367.765 313.391 348.945 298.164 353.668 283.64C356.651 274.531 373.716 258.11 383.739 264.116C379.644 266.079 381.33 273.219 386.204 271.918C387.336 271.614 388.426 271.438 389.524 271.322C390.892 272.44 392.779 272.276 394.231 271.365C405.835 272.847 414.222 284.388 411.075 296.956C407.718 310.482 393.663 317.718 380.362 315.493Z" fill="#E5E5E5"/>
<path d="M349.456 469.967C348.228 461.382 341.424 454.061 335.456 448.25C329.291 442.258 321.851 438.437 313.169 440.597C310.672 441.213 309.765 443.479 310.103 445.449C298.683 448.344 288.836 455.998 287.162 468.863C286.066 477.379 289.74 484.903 295.992 490.553C302.064 496.056 311.614 502.36 320.085 502.614C335.105 503.047 351.575 484.825 349.456 469.967ZM316.012 493.385C305.922 490.127 292.678 480.093 295.652 468.209C298.721 455.957 311.525 451.843 322.789 452.467C324.221 452.55 325.294 451.997 326.008 451.152C333.258 455.452 339.699 463.937 340.872 470.389C343.06 482.241 327.911 497.222 316.012 493.385Z" fill="#E5E5E5"/>
<path d="M9.24431 480.36C6.08809 462.467 -10.3867 451.916 -27.1278 453.703C-45.2559 445.68 -62.9596 466.544 -65.486 483.807C-68.6852 505.53 -42.9671 521.939 -23.4587 520.855C-2.75835 519.716 12.8561 500.891 9.24431 480.36ZM-20.3478 512.218C-33.6099 514.72 -55.2833 505.16 -57.4023 490.388C-58.8991 479.97 -49.945 463.672 -38.9365 460.724C-38.274 462.919 -35.9127 464.743 -33.1487 463.589C-31.6809 462.969 -30.1621 462.538 -28.6522 462.218C-28.3184 462.416 -27.9846 462.615 -27.6337 462.847C-25.4089 464.397 -23.1254 463.395 -21.963 461.644C-10.9131 462.224 -0.980849 470.028 1.13746 481.999C3.66089 496.25 -6.26217 509.564 -20.3478 512.218Z" fill="#E5E5E5"/>
<path d="M98.9831 487.569C92.178 483.647 84.8908 483.449 78.5052 485.84C77.735 485.324 76.7153 485.123 75.5227 485.435C59.7784 489.445 51.224 506.934 59.4224 521.497C67.928 536.592 88.2231 539.287 101.183 528.254C114.032 517.298 114.28 496.352 98.9831 487.569ZM95.7569 521.94C87.5753 528.812 75.0243 528.44 68.2238 519.834C65.9001 516.879 64.7435 513.518 64.6071 510.186C66.4919 510.707 68.6286 510.056 69.2785 507.617C71.9475 497.574 81.6416 489.44 92.3815 493.573C104.723 498.303 105.331 513.909 95.7569 521.94Z" fill="#E5E5E5"/>
<path d="M201.843 566.745C197.839 554.595 184.626 542.514 171.965 541.791C153.377 535.727 129.304 547.13 127.848 567.84C126.196 591.17 149.986 607.272 171.316 607.831C193.358 608.401 208.805 587.863 201.843 566.745ZM163.343 598.373C149.386 594.955 134.952 584.206 136.12 568.342C136.922 557.555 145.858 550.908 155.817 549.121C155.344 549.676 154.913 550.274 154.474 550.898C151.427 555.271 158.273 559.92 161.312 555.573C163.696 552.148 166.428 550.325 169.268 549.711C170.733 550.119 172.12 550.672 173.447 551.319C175.065 552.121 176.421 551.75 177.341 550.803C186.863 555.068 195.476 568.656 195.322 577.605C195.076 595.065 178.568 602.103 163.343 598.373Z" fill="#E5E5E5"/>
<path d="M308.765 567.373C306.735 554.289 295.87 545.856 283.72 543.448C283.473 542.65 282.935 541.955 281.951 541.394C273.244 536.661 264.561 538.992 257.059 544.95C249.901 550.652 241.106 559.175 240.762 568.944C240.128 587.045 266.834 599.502 281.966 599.772C299.036 600.067 311.342 583.842 308.765 567.373ZM286.543 591.114C275.639 593.497 259.303 585.678 252.304 577.234C245.785 569.323 251.232 562.073 257.131 556.117C259.427 553.805 262.204 551.083 265.261 549.228C265.839 550.994 267.439 552.362 269.806 551.788C280.874 549.089 294.47 552.984 299.317 564.246C303.789 574.582 297.911 588.63 286.543 591.114Z" fill="#E5E5E5"/>
<path d="M300.203 176.423C300.054 165.572 286.77 148.267 275.036 150.228C274.341 150.336 273.766 150.6 273.276 150.949C263.989 151.42 255.321 157.613 252.953 167.358C249.656 180.962 259.068 194.134 272.634 196.419C285.18 198.504 300.404 190.434 300.203 176.423ZM272.657 188.027C264.963 186.063 259.873 179.005 260.693 171.052C261.75 160.951 272.531 156.812 280.973 160.714C281.59 161.008 282.181 161.121 282.73 161.106C286.886 164.821 290.898 171.173 291.491 173.916C293.802 184.466 281.568 190.287 272.657 188.027Z" fill="#E5E5E5"/>
<path d="M397.843 184.895C391.8 172.344 379.136 166.362 366.376 167.12C366.088 165.937 365.302 164.872 363.82 164.345C347.984 158.522 334.22 186.714 335.428 199.264C337.152 217.331 364.018 231.184 380.305 226.243C397.819 220.888 405.66 201.015 397.843 184.895ZM382.674 216.07C370.95 223.348 354.863 215.299 346.848 205.541C341.832 199.451 343.696 192.136 347.075 185.76C347.868 184.256 349.213 181.709 350.875 179.154C351.851 179.655 353.077 179.753 354.382 179.022C365.382 172.957 379.853 173.661 387.908 184.319C395.681 194.624 393.814 209.166 382.674 216.07Z" fill="#E5E5E5"/>
<path d="M43.7238 567.236C31.6283 554.303 7.18755 547.096 -9.62326 555.374C-29.8736 558.065 -41.4118 578.635 -37.4278 597.892C-33.4185 617.329 -17.0232 631.768 2.23227 635.257C20.5795 638.553 39.3003 630.975 48.1698 614.249C56.0396 599.387 55.5628 579.911 43.7238 567.236ZM29.3174 622.897C13.394 632.703 -9.19948 627.147 -20.9323 613.308C-32.7079 599.425 -32.9836 575.532 -17.6457 566.614C-16.3131 568.349 -13.9232 569.154 -11.9628 567.158C-10.3893 565.545 -8.58516 564.267 -6.66171 563.23C-5.87254 563.096 -5.24571 562.764 -4.80717 562.312C10.8163 555.519 34.3348 564.444 41.8824 578.73C49.7369 593.634 43.4629 614.206 29.3174 622.897Z" fill="#E5E5E5"/>
<path d="M149.061 637.446C143.639 626.448 132.672 623.496 122.07 625.323C121.337 623.847 119.848 622.831 117.746 623.294C106.404 625.787 98.5329 638.278 102.908 649.495C107.556 661.433 123.53 670.244 136.048 667.062C148.566 663.88 154.679 648.797 149.061 637.446ZM132.64 659.342C124.946 660.607 115.308 654.902 111.502 648.363C109.113 644.243 109.838 639.459 112.437 635.992C113.405 636.432 114.554 636.505 115.781 635.918C123.963 632.104 133.758 630.719 140.115 638.689C145.924 645.99 142.101 657.759 132.64 659.342Z" fill="#E5E5E5"/>
<path d="M285.99 668.758C282.233 654.263 269.659 643.683 255.468 641.044C255.705 639.324 254.964 637.531 252.762 636.932C212.283 625.692 175.387 681.518 209.428 710.932C224.412 723.867 247.683 726.394 264.969 716.704C281.449 707.457 290.808 687.239 285.99 668.758ZM241.913 714.306C221.541 714.385 202.489 699.508 204.539 677.884C206.068 661.627 219.93 647.241 235.825 644.225C234.609 647.072 236.441 651.061 240.182 649.979C259.077 644.432 278.954 658.644 278.975 678.623C278.977 698.995 261.804 714.209 241.913 714.306Z" fill="#E5E5E5"/>
</g>
<defs>
<clipPath id="clip0_408_127">
<rect width="534.122" height="421.752" fill="white" transform="translate(1052 698.825) rotate(-76.7133)"/>
</clipPath>
<clipPath id="clip1_408_127">
<rect width="605" height="581" fill="white" transform="translate(-118.473) rotate(18.622)"/>
</clipPath>
</defs>
</svg>
