<svg width="1440" height="637" viewBox="0 0 1440 637" fill="none" xmlns="http://www.w3.org/2000/svg">
<path opacity="0.1" d="M1394.99 577C1302.04 577 1211.92 558.79 1164.68 534.554L1235.71 423.18C1295.55 453.829 1482.6 461.908 1542.57 417.923C1550.67 411.96 1561.66 403.881 1550.16 372.848C1541.61 349.829 1522.01 344.251 1415.95 353.997C1362.66 358.87 1307.57 363.999 1256.28 352.779C1185.63 337.39 1138.71 294.174 1120.65 227.876C1100.98 155.615 1123.09 107.719 1145.08 80.3401C1182.16 34.1109 1247.79 7.05301 1340.16 0L1352.31 127.788C1284.05 132.981 1265.4 150.037 1261.29 155.166C1253.19 165.233 1255.96 183.699 1259.68 197.484C1268.1 228.389 1280.96 237.494 1401.29 226.402C1450.91 221.849 1502.27 217.104 1550.35 225.76C1617.65 237.943 1664.51 274.747 1685.92 332.261C1713.04 405.227 1693.89 472.616 1633.27 517.114C1574.2 560.522 1483.31 577 1394.99 577Z" fill="white"/>
<path d="M66.0698 632.627C-20.4942 620.85 -84.7891 588.281 -126.815 534.921C-168.841 481.561 -184.112 412.674 -172.628 328.261L-130.385 17.76L59.9481 43.6542L18.4734 348.51C12.8411 389.91 16.0033 421.007 27.9601 441.8C40.4545 462.666 60.681 475.001 88.6396 478.805C116.598 482.609 139.116 476.089 156.193 459.246C173.808 442.476 185.431 413.39 191.064 371.99L232.538 67.1346L365.5 163L377.403 403.091C365.919 487.504 332.8 549.808 278.046 590.001C223.293 630.195 152.634 644.403 66.0698 632.627Z" fill="white" fill-opacity="0.1"/>
</svg>
