<svg width="375" height="602" viewBox="0 0 375 602" fill="none" xmlns="http://www.w3.org/2000/svg">
<path d="M27.5822 363.633C-23.6939 356.668 -61.7789 337.407 -86.673 305.85C-111.567 274.292 -120.613 233.553 -113.81 183.631L-88.7877 0L23.956 15.3139L-0.611458 195.606C-3.94778 220.09 -2.07465 238.481 5.00793 250.778C12.409 263.118 24.3901 270.413 40.9514 272.663C57.5126 274.912 70.851 271.056 80.9666 261.095C91.4007 251.177 98.2859 233.976 101.622 209.492L126.19 29.2002L204.949 85.8951L212 227.885C205.197 277.807 185.579 314.654 153.146 338.424C120.713 362.195 78.8583 370.597 27.5822 363.633Z" fill="white" fill-opacity="0.1"/>
<path opacity="0.1" d="M342.872 638C284.238 638 227.387 626.513 197.583 611.223L242.391 540.963C280.142 560.298 398.141 565.394 435.974 537.646C441.083 533.884 448.017 528.788 440.759 509.211C435.366 494.689 422.998 491.17 356.092 497.319C322.476 500.393 287.725 503.629 255.367 496.55C210.803 486.842 181.201 459.58 169.807 417.756C157.399 372.17 171.348 341.954 185.216 324.683C208.613 295.519 250.014 278.449 308.284 274L315.948 354.615C272.884 357.891 261.125 368.651 258.529 371.886C253.42 378.237 255.164 389.886 257.516 398.583C262.828 418.079 270.938 423.823 346.846 416.825C378.15 413.953 410.55 410.96 440.881 416.421C483.336 424.106 512.897 447.324 526.4 483.606C543.511 529.637 531.428 572.149 493.189 600.221C455.924 627.605 398.587 638 342.872 638Z" fill="white"/>
</svg>
