<svg width="254" height="56" viewBox="0 0 254 56" fill="none" xmlns="http://www.w3.org/2000/svg">
<g clip-path="url(#clip0_2024_870)">
<path fill-rule="evenodd" clip-rule="evenodd" d="M193.378 31.6582C193.378 33.4894 193.226 37.5322 191.86 40.2791C190.13 43.7912 186.957 44.7053 184.308 44.7053C181.665 44.7053 178.49 43.7912 176.762 40.2791C175.396 37.5322 175.242 33.4894 175.242 31.6582V0.911865H161.191V34.0256C161.191 38.0645 161.724 43.7912 165.953 48.5222C171.392 54.6229 179.625 55.2369 184.308 55.2369C188.995 55.2369 197.231 54.6229 202.668 48.5222C206.905 43.7912 207.428 38.0645 207.428 34.0256V0.911865H193.378V31.6582Z" fill="#43ACDF"/>
<path fill-rule="evenodd" clip-rule="evenodd" d="M132.167 42.8883H132.009L120.439 0.928467H105.646L123.126 54.3324H140.301L158.087 0.928467H143.817L132.167 42.8883Z" fill="#43ACDF"/>
<mask id="mask0_2024_870" style="mask-type:alpha" maskUnits="userSpaceOnUse" x="54" y="0" width="54" height="56">
<path fill-rule="evenodd" clip-rule="evenodd" d="M107.273 0.0205078H54.4043V55.2532H107.273V0.0205078Z" fill="white"/>
</mask>
<g mask="url(#mask0_2024_870)">
<path fill-rule="evenodd" clip-rule="evenodd" d="M89.5316 40.3773C87.8678 42.7401 85.0744 44.7225 80.8468 44.7225C76.6123 44.7225 73.8166 42.7401 72.1558 40.3773C69.286 36.485 68.9076 31.0683 68.9076 27.6351C68.9076 24.2001 69.286 18.785 72.1558 14.8973C73.8166 12.5338 76.6123 10.5483 80.8468 10.5483C85.0744 10.5483 87.8678 12.5338 89.5316 14.8973C92.3982 18.785 92.7808 24.2001 92.7808 27.6351C92.7808 31.0683 92.3982 36.485 89.5316 40.3773ZM80.6354 0.0205078C76.1158 0.0407685 67.6054 0.731189 61.3572 7.11485C55.1683 13.4471 54.4043 22.3735 54.4043 27.6351C54.4043 32.9004 55.1683 41.8254 61.3572 48.1537C67.7043 54.6385 76.3868 55.2534 80.8473 55.2534C85.3038 55.2534 93.9925 54.6385 100.338 48.1537C106.53 41.8254 107.273 32.9004 107.273 27.6351C107.273 22.3735 106.53 13.4471 100.338 7.11485C94.0921 0.731189 85.5748 0.0407685 81.0592 0.0205078H80.6354Z" fill="#43ACDF"/>
</g>
<mask id="mask1_2024_870" style="mask-type:alpha" maskUnits="userSpaceOnUse" x="212" y="0" width="40" height="56">
<path fill-rule="evenodd" clip-rule="evenodd" d="M251.443 55.2534H212.022V0.0205078H251.443V55.2534Z" fill="white"/>
</mask>
<g mask="url(#mask1_2024_870)">
<path fill-rule="evenodd" clip-rule="evenodd" d="M246.688 26.417C243.895 24.1269 238.833 22.4467 236.19 21.7625L235.362 21.5287C230.979 20.3123 228.41 19.3219 227.277 17.8709C226.821 17.3402 226.515 16.3825 226.515 15.3867C226.515 14.0767 227.145 12.498 229.242 11.5371C231.418 10.5397 233.885 10.4696 235.691 10.5475C238.778 10.6885 244.442 12.1839 247.187 15.2425C247.187 15.2425 249.11 11.2823 248.201 7.9432C247.159 4.10537 244.281 1.99514 241.373 1.03744C239.102 0.29091 235.785 0.0321967 233.905 0.0205078H233.544C228.723 0.0438856 224.489 0.81379 220.482 2.84141C214.505 5.89298 212.022 10.7064 212.022 16.5727C212.022 18.6346 212.467 21.1532 213.303 23.0607C215.265 27.3373 219.728 30.0016 223.874 31.2982L226.067 31.9863C229.918 33.2028 232.868 33.8909 234.904 35.4938C236.19 36.4843 236.947 37.6265 236.947 39.4618C236.947 41.2947 236.036 42.3979 235.097 43.1236C233.519 44.3493 230.442 44.7232 228.255 44.7232C224.636 44.7232 218.58 43.3081 213.755 37.9811C213.755 37.9811 212.223 42.525 213.032 46.0714C213.844 49.6162 216.916 51.8761 219.616 53.1433C222.556 54.5381 226.566 55.2534 229.517 55.2534C234.727 55.2534 240.724 54.4141 245.406 50.9036C248.42 48.6181 251.443 44.5736 251.443 37.6265C251.443 33.8184 250.541 29.5457 246.688 26.417Z" fill="#43ACDF"/>
</g>
<path fill-rule="evenodd" clip-rule="evenodd" d="M36.6508 37.0471H36.4974C36.4974 37.0471 28.1119 20.0009 24.3594 12.386C20.6181 4.76647 12.9545 0.712769 6.07696 0.712769H0.670898V54.2569H13.619L13.1687 17.6912H13.3222C13.3222 17.6912 23.2409 37.4259 26.0326 42.8642C30.095 50.7706 35.6717 54.2569 43.1661 54.2569H49.2982V0.712769H36.4226L36.6508 37.0471Z" fill="#43ACDF"/>
</g>
<defs>
<clipPath id="clip0_2024_870">
<rect width="253.067" height="55.2329" fill="white" transform="translate(0.671875 0.0205078)"/>
</clipPath>
</defs>
</svg>
