<svg width="300" height="56" viewBox="0 0 300 56" fill="none" xmlns="http://www.w3.org/2000/svg">
<path d="M282.546 41.9161C282.467 42.537 282.235 44.1705 280.124 44.3827H261.589C259.479 44.1705 259.093 42.537 259.014 41.9161V13.066C259.092 12.4435 259.385 11.1205 261.495 10.9084H280.133C282.244 11.1205 282.467 12.4435 282.546 13.066V41.9161ZM288.963 0.0383727H252.597C247.132 0.482849 242.516 3.27703 241.9 9.52801V45.2463C242.516 51.4973 247.132 54.8089 252.597 55.2534H288.963C294.428 54.8089 299.043 51.4973 299.66 45.2463V9.52801C299.043 3.27703 294.428 0.482849 288.963 0.0383727ZM141.783 10.9084H125.525V0.0383727H175.156V10.9084H158.897V55.2534H141.783V10.9084ZM120.391 10.9084V0.0383727H75.8941V55.2534L120.983 55.2415L120.999 44.3834H93.0515L93.0542 32.5575H120.391V21.7143H93.0542V10.9084L120.391 10.9084ZM219.652 19.4666C219.652 20.6615 219.358 21.7098 217.23 21.7098H197.404V10.8719H217.256C219.671 10.8719 219.652 12.4651 219.652 13.4598V19.4666ZM224.393 33.7889C229.732 33.3578 235.054 29.6941 235.054 23.6769V10.0454C234.435 3.82351 229.805 0.463496 224.316 0.0205078H180.29L180.291 55.2534H197.404V33.7889H204.215L215.339 55.2534H235.02L221.774 33.7889H224.393ZM40.4689 55.2534L51.935 20.5715V55.2534H69.049V0.0383727H45.9457L34.8214 27.6466L23.697 0.0383727H0.59375V55.2534H17.7077V20.5715L29.2587 55.2534H40.4689Z" fill="#43ACDF"/>
</svg>
