<svg xmlns="http://www.w3.org/2000/svg" viewBox="0 0 213.7 39.35"><defs><style>.cls-1{fill:#2a3678;}.cls-2{fill:#29377b;}.cls-3{fill:#0075b6;}.cls-4{fill:#2a3578;}</style></defs><g id="Слой_2" data-name="Слой 2"><g id="Слой_1-2" data-name="Слой 1"><rect class="cls-1" x="16.13" y="1.28" width="6.42" height="1"/><polygon class="cls-1" points="11.28 3.62 11.28 0 10.87 0 8.02 1.84 10.89 3.62 11.28 3.62"/><polygon class="cls-1" points="14.14 3.62 14.14 0 13.73 0 10.88 1.84 13.76 3.62 14.14 3.62"/><polygon class="cls-1" points="17.04 3.62 17.04 0 16.61 0 13.77 1.84 16.64 3.62 17.04 3.62"/><polygon class="cls-1" points="27.79 3.62 27.79 0 27.37 0 24.53 1.84 27.4 3.62 27.79 3.62"/><polygon class="cls-1" points="30.65 3.62 30.65 0 30.23 0 27.39 1.84 30.26 3.62 30.65 3.62"/><polygon class="cls-1" points="33.54 3.62 33.54 0 33.12 0 30.28 1.84 33.15 3.62 33.54 3.62"/><path class="cls-2" d="M29,18.3l.17-.32.33-.16,2.82-1.27.59-.28V12.74c-2.57-.7-4.87-2-9.52,0l.08,16.13Z"/><path class="cls-2" d="M35.5,5H6.92A2.93,2.93,0,0,0,4,7.94V29.22h3.7V10.68s7-3.16,11.79-.08v2.29c-1.3-.91-6.79-1.86-9.88.27l.05,0,.07,13v1l0,1.46,4.86-10.27.16-.35.36-.16,2.81-1.28,1.5-.69V29.22h2V10.68a17.83,17.83,0,0,1,6.44-1.41,19.18,19.18,0,0,1,7,1.33V29.22h3.63V7.94A2.93,2.93,0,0,0,35.5,5"/><path class="cls-3" d="M32.73,31.15V17.51l-2.82,1.28L23.44,31.15H18.38V17.51l-2.81,1.28L9.72,31.15H4v1.28a3,3,0,0,0,3,3H35.45a3,3,0,0,0,3-3V31.15Z"/><path class="cls-1" d="M37.29,1.25H32.61V2.31h4.68a4,4,0,0,1,4,4V34.33a4,4,0,0,1-4,4H5a4,4,0,0,1-4-4V6.27a4,4,0,0,1,4-4h.73V1.25H5a5,5,0,0,0-5,5V34.33a5,5,0,0,0,5,5H37.29a5,5,0,0,0,5-5V6.27a5,5,0,0,0-5-5"/><rect class="cls-1" x="15.9" y="1.25" width="6.93" height="1.06"/><path class="cls-4" d="M56.55,33H54.21l-.47,1.42a2.57,2.57,0,0,1-.55,0,1.73,1.73,0,0,1-.57-.08l0-.06,2.16-6.09a5.5,5.5,0,0,1,.74,0,3.15,3.15,0,0,1,.67.05l2.14,6.09a1.34,1.34,0,0,1-.64.15.86.86,0,0,1-.52-.13,1.05,1.05,0,0,1-.28-.49Zm-2-.93h1.74l-.33-1c-.18-.53-.35-1.11-.52-1.72h0c-.08.36-.21.85-.41,1.46Z"/><path class="cls-4" d="M70.33,33.82a1.22,1.22,0,0,1,.5-.86,3.88,3.88,0,0,0,1.94.59,1.25,1.25,0,0,0,.78-.21.61.61,0,0,0,.28-.54c0-.35-.24-.64-.77-.86l-1.14-.45c-.9-.37-1.34-.91-1.34-1.61a1.59,1.59,0,0,1,.63-1.29,2.62,2.62,0,0,1,1.67-.51,5,5,0,0,1,2.08.48,1.3,1.3,0,0,1-.43.89A4,4,0,0,0,72.84,29a1.16,1.16,0,0,0-.74.21.63.63,0,0,0-.27.51c0,.29.24.53.71.72l1.14.45c1,.4,1.45,1,1.45,1.73A1.68,1.68,0,0,1,74.5,34a2.9,2.9,0,0,1-1.86.51A4.2,4.2,0,0,1,70.33,33.82Z"/><path class="cls-4" d="M79.22,34.37V28.2a4.67,4.67,0,0,1,1.22,0v6.17a3.75,3.75,0,0,1-1.22,0Z"/><path class="cls-4" d="M87.22,30.06,88,28.2a2.53,2.53,0,0,1,.53,0,1.64,1.64,0,0,1,.57.08l0,.07-1.85,4.13v1.93a2.72,2.72,0,0,1-.62.05,2.62,2.62,0,0,1-.61-.05v-2l-1.86-4.06a1.57,1.57,0,0,1,.71-.21.74.74,0,0,1,.45.11.87.87,0,0,1,.27.37l.64,1.48a9.88,9.88,0,0,1,.42,1.19h.06A9.55,9.55,0,0,1,87.22,30.06Z"/><path class="cls-4" d="M95.72,33H93.38l-.47,1.42a2.61,2.61,0,0,1-.56,0,1.82,1.82,0,0,1-.57-.08l0-.06L93.9,28.2a5.41,5.41,0,0,1,.74,0,3.15,3.15,0,0,1,.67.05l2.14,6.09a1.34,1.34,0,0,1-.64.15.86.86,0,0,1-.52-.13,1.05,1.05,0,0,1-.28-.49Zm-2-.93h1.74l-.33-1c-.18-.53-.35-1.11-.52-1.72h0a13.54,13.54,0,0,1-.42,1.46Z"/><path class="cls-4" d="M106.18,29.73a5.64,5.64,0,0,1,0,3.12,2.29,2.29,0,0,1-.82,1.12,2.22,2.22,0,0,1-.79.34,4.77,4.77,0,0,1-1,.11l-2.19,0-.06-.05V28.25l.06-.06q1.11,0,2.25,0a4.52,4.52,0,0,1,.93.11,2.22,2.22,0,0,1,.79.35A2.27,2.27,0,0,1,106.18,29.73Zm-1.3,3a2.57,2.57,0,0,0,.2-.69,4.79,4.79,0,0,0,.06-.79,4.7,4.7,0,0,0-.06-.79,2.57,2.57,0,0,0-.2-.69,1.2,1.2,0,0,0-.47-.55,1.71,1.71,0,0,0-.89-.19h-1v4.45h1.08a1.46,1.46,0,0,0,.78-.2A1.18,1.18,0,0,0,104.88,32.77Z"/><path class="cls-4" d="M111.21,34a3.21,3.21,0,0,1-1-2.66,3.19,3.19,0,0,1,1-2.66,2.69,2.69,0,0,1,1.73-.55,2.81,2.81,0,0,1,1.75.55,3.22,3.22,0,0,1,1,2.66,3.23,3.23,0,0,1-1,2.66,2.81,2.81,0,0,1-1.75.55A2.69,2.69,0,0,1,111.21,34Zm1.73-5c-1,0-1.48.77-1.48,2.31s.49,2.31,1.48,2.31,1.48-.77,1.48-2.31S113.93,29,112.94,29Z"/><path class="cls-4" d="M124.35,30.05A1.64,1.64,0,0,1,124,31.1a1.9,1.9,0,0,1-.87.61,1.16,1.16,0,0,1,.71.79l.38.94a1.42,1.42,0,0,0,.45.66,1,1,0,0,1-.83.35.65.65,0,0,1-.48-.16,1.42,1.42,0,0,1-.29-.53l-.44-1.11a1.24,1.24,0,0,0-.32-.5.93.93,0,0,0-.6-.17h-.63v2.39a2.77,2.77,0,0,1-.62.05,2.48,2.48,0,0,1-.6-.05V28.25l.06-.06,2.17,0a2.61,2.61,0,0,1,1.65.48A1.7,1.7,0,0,1,124.35,30.05Zm-3.27-1v2c.46,0,.77,0,.93,0,.72,0,1.08-.34,1.08-1s-.36-1-1.08-1Z"/><path class="cls-4" d="M130.71,33.4h1.83a2.17,2.17,0,0,1,0,.43c-.07.38-.34.56-.8.56h-2.39a.73.73,0,0,1-.52-.18.69.69,0,0,1-.2-.51V28.21l.07-.05h.46a.62.62,0,0,1,.71.73v4.53Z"/><path class="cls-4" d="M136.53,34.37V28.2a3.44,3.44,0,0,1,.61,0,3.57,3.57,0,0,1,.62,0v6.17a2.72,2.72,0,0,1-.62.05A2.62,2.62,0,0,1,136.53,34.37Z"/><path class="cls-4" d="M147.24,34.08a.94.94,0,0,1-.82.36.66.66,0,0,1-.49-.16,1.42,1.42,0,0,1-.29-.52l-.46-1.22a1.55,1.55,0,0,0-.42-.67,1,1,0,0,0-.63-.2l-.57,0v2.68a2.72,2.72,0,0,1-.62.05,2.62,2.62,0,0,1-.61-.05V28.2a3.44,3.44,0,0,1,.61,0,3.57,3.57,0,0,1,.62,0v2.5H144a.37.37,0,0,0,.23-.06.66.66,0,0,0,.16-.21l1.12-1.83a.86.86,0,0,1,.28-.33.75.75,0,0,1,.45-.1c.2,0,.43,0,.67,0l.08.09-1.35,2.23a2.11,2.11,0,0,1-.45.53,1.19,1.19,0,0,1,.7.34,2.39,2.39,0,0,1,.44.73l.47,1.24A1.7,1.7,0,0,0,147.24,34.08Z"/><path class="cls-4" d="M155.84,33.22a2,2,0,0,0,1,.29.8.8,0,0,0,.72-.31,1.78,1.78,0,0,0,.21-1v-4a4.82,4.82,0,0,1,1.24,0v3.88a2.5,2.5,0,0,1-.6,1.94,2.08,2.08,0,0,1-1.43.44,3.12,3.12,0,0,1-1.59-.38A1.66,1.66,0,0,1,155.84,33.22Z"/><path class="cls-4" d="M166.74,33H164.4l-.47,1.42a2.57,2.57,0,0,1-.55,0,1.73,1.73,0,0,1-.57-.08l-.05-.06,2.16-6.09a5.5,5.5,0,0,1,.74,0,3.15,3.15,0,0,1,.67.05l2.14,6.09a1.34,1.34,0,0,1-.64.15.91.91,0,0,1-.53-.13,1.15,1.15,0,0,1-.27-.49Zm-2-.93h1.74l-.33-1c-.18-.53-.35-1.11-.52-1.72h-.05c-.08.36-.21.85-.41,1.46Z"/><path class="cls-4" d="M172.16,34.36l.51-6.15a4.86,4.86,0,0,1,.82-.05,4.47,4.47,0,0,1,.8.05l.78,2.58a12.91,12.91,0,0,1,.38,1.52h.06a12.67,12.67,0,0,1,.37-1.52l.79-2.58a6.43,6.43,0,0,1,1.6,0l.51,6.15a2.4,2.4,0,0,1-.58.06,3.42,3.42,0,0,1-.59,0l-.19-3c0-.55-.06-1.2-.08-1.93h-.05l-1.18,4a4.48,4.48,0,0,1-.64.05,4,4,0,0,1-.62-.05l-1.18-4h-.06c0,.9-.05,1.54-.07,1.93l-.21,3a3.15,3.15,0,0,1-.58,0A2.49,2.49,0,0,1,172.16,34.36Z"/><path class="cls-4" d="M183.18,34.37V28.2a3.44,3.44,0,0,1,.61,0,3.57,3.57,0,0,1,.62,0v6.17a2.72,2.72,0,0,1-.62.05A2.62,2.62,0,0,1,183.18,34.37Z"/><path class="cls-4" d="M191.19,30.06,192,28.2a2.6,2.6,0,0,1,.53,0,1.64,1.64,0,0,1,.57.08l.06.07-1.86,4.13v1.93a2.66,2.66,0,0,1-.62.05,2.48,2.48,0,0,1-.6-.05v-2l-1.86-4.06a1.53,1.53,0,0,1,.71-.21.78.78,0,0,1,.45.11.86.86,0,0,1,.26.37l.65,1.48a9.83,9.83,0,0,1,.41,1.19h.06A11.85,11.85,0,0,1,191.19,30.06Z"/><path class="cls-4" d="M199.69,33h-2.34l-.48,1.42a2.51,2.51,0,0,1-.55,0,1.73,1.73,0,0,1-.57-.08l-.05-.06,2.17-6.09a5.25,5.25,0,0,1,.73,0,3.25,3.25,0,0,1,.68.05l2.13,6.09a1.32,1.32,0,0,1-.64.15.88.88,0,0,1-.52-.13,1.05,1.05,0,0,1-.28-.49ZM197.64,32h1.74l-.32-1c-.19-.53-.36-1.11-.52-1.72h-.06a13.08,13.08,0,0,1-.41,1.46Z"/><path class="cls-4" d="M206.92,29.15v5.22a2.68,2.68,0,0,1-.61.05,2.62,2.62,0,0,1-.61-.05V29.15H204a2.29,2.29,0,0,1,0-.47,2.43,2.43,0,0,1,0-.49h4.58a1.86,1.86,0,0,1,.06.48.41.41,0,0,1-.16.36.82.82,0,0,1-.5.12h-1.09Z"/><path class="cls-4" d="M212.47,34.37V28.2a3.44,3.44,0,0,1,.61,0,3.57,3.57,0,0,1,.62,0v6.17a2.72,2.72,0,0,1-.62.05A2.62,2.62,0,0,1,212.47,34.37Z"/><path class="cls-4" d="M62,14.22H58.59l.24-2.46h6.25v7.85a14.65,14.65,0,0,1-6.16,1.27c-4.8,0-7.44-1.13-7.44-7.71s3-7.6,7.68-7.6a13.74,13.74,0,0,1,5.47,1l-.79,2.37A14.48,14.48,0,0,0,59.21,8c-2.6,0-4.55.29-4.55,5.1,0,4.49,1.15,5.27,4.62,5.27A10,10,0,0,0,62,18Z"/><path class="cls-4" d="M68,20.65V5.87h3.14V20.65Z"/><path class="cls-4" d="M74.9,20.65V5.87h5.47c4.67,0,7.69.78,7.69,7.3s-2.64,7.48-7.45,7.48Zm5.47-2.49c3.38,0,4.5-.53,4.5-5,0-4.69-2-4.81-4.54-4.81H78v9.83Z"/><path class="cls-4" d="M100.52,20.65l-4-5.32h-2v5.32H91.29V5.87h6.18c4.52,0,6,.69,6,4.74,0,3.23-.9,4.31-3.55,4.63l4.24,5.41Zm-3-7.78c2,0,2.69-.12,2.69-2.26s-.71-2.28-2.69-2.28H94.43v4.54Z"/><path class="cls-4" d="M114,5.57c4.23,0,7.66,1,7.66,7.67S118.21,20.9,114,20.9s-7.66-1-7.66-7.66S109.75,5.57,114,5.57Zm-4.47,7.67c0,5.2,2.07,5.22,4.47,5.22s4.47,0,4.47-5.22S116.29,8,114,8,109.51,8,109.51,13.24Z"/><path class="cls-4" d="M124.87,20.65V5.87H131c4.52,0,5.95.69,5.95,4.74s-1.43,4.72-5.95,4.72h-3v5.32Zm8.9-10.11c0-2.09-.69-2.21-2.69-2.21H128v4.54h3.07c2,0,2.69-.12,2.69-2.19Z"/><path class="cls-4" d="M148.25,20.65l-4-5.32h-2.05v5.32H139V5.87h6.18c4.52,0,6,.69,6,4.74,0,3.23-.9,4.31-3.54,4.63l4.23,5.41Zm-3-7.78c2,0,2.69-.12,2.69-2.26s-.71-2.28-2.69-2.28h-3.09v4.54Z"/><path class="cls-4" d="M161.71,5.57c4.23,0,7.66,1,7.66,7.67s-3.43,7.66-7.66,7.66-7.66-1-7.66-7.66S157.48,5.57,161.71,5.57Zm-4.47,7.67c0,5.2,2.07,5.22,4.47,5.22s4.47,0,4.47-5.22S164,8,161.71,8,157.24,8,157.24,13.24Z"/><path class="cls-4" d="M172.6,20.65V5.87H184l-.24,2.46h-8v3.43H182v2.46h-6.26v3.94H184l-.24,2.49Z"/><path class="cls-4" d="M190.58,14.5h-1.4v6.15h-3.11V5.87h3.11V12h1.4l4.69-6.17h3.66c-1.93,2.44-3.9,5-5.85,7.39,1.95,2.44,3.92,5,5.85,7.39h-3.66Z"/><path class="cls-4" d="M205.57,20.65V8.33h-4.69l.24-2.46H213.7l-.24,2.46H208.7V20.65Z"/><path class="cls-4" d="M67.07,34.09a1,1,0,0,1-.82.35.68.68,0,0,1-.49-.15,1.34,1.34,0,0,1-.3-.53L65,32.54a1.61,1.61,0,0,0-.42-.67,1,1,0,0,0-.63-.19l-.58,0v2.68a3.44,3.44,0,0,1-.61,0,3.3,3.3,0,0,1-.61,0V28.21a3.16,3.16,0,0,1,.61-.05,3.32,3.32,0,0,1,.61.05v2.5h.43a.46.46,0,0,0,.23-.05.73.73,0,0,0,.17-.22l1.12-1.83a1.19,1.19,0,0,1,.27-.33.79.79,0,0,1,.45-.1l.68,0,.08.09-1.36,2.22A1.92,1.92,0,0,1,65,31a1.26,1.26,0,0,1,.7.35,2.27,2.27,0,0,1,.43.73l.47,1.24A1.67,1.67,0,0,0,67.07,34.09Z"/></g></g></svg>