<svg width="159" height="32" viewBox="0 0 159 32" fill="none" xmlns="http://www.w3.org/2000/svg">
<path fill-rule="evenodd" clip-rule="evenodd" d="M25.1152 12.7238C25.1239 9.90644 25.412 7.83162 24.3381 5.39425C23.548 3.59462 21.6535 1.74694 19.628 1.28392C17.8601 0.877695 13.0626 0.912639 11.3296 1.33634C7.96393 2.1619 5.92534 5.70001 5.91224 9.08088C5.90788 9.79724 5.75509 12.287 6.02574 12.6845C13.7174 15.9518 21.9067 13.794 25.1195 12.7195L25.1152 12.7238Z" fill="#8288A2"/>
<path fill-rule="evenodd" clip-rule="evenodd" d="M2.99624 19.7477C2.99624 18.5246 3.17085 17.3496 3.51135 16.227L3.35856 16.179C2.54225 15.6854 0.695731 14.9778 0.595329 13.8072C0.525484 12.986 1.34616 11.1383 3.51571 12.5448C12.6959 17.4588 20.3221 15.3884 24.9668 13.7373C27.3546 12.8855 28.6467 11.562 29.594 12.1124C31.2222 12.7501 30.646 14.6414 29.3102 15.0127C28.6816 15.3403 28.0181 15.6461 27.3328 15.9257C27.7518 17.1487 27.9614 18.4285 27.9614 19.7477C27.9614 21.4206 27.6514 22.9975 27.0403 24.4608C26.4291 25.9328 25.5299 27.2301 24.3556 28.3658C23.1072 29.5583 21.7277 30.4669 20.2173 31.0784C18.6971 31.6922 17.0723 32.0052 15.433 32C13.7829 32 12.2114 31.6899 10.6923 31.0784C9.18186 30.4669 7.83735 29.5758 6.65436 28.4183C5.46263 27.2345 4.55029 25.911 3.93041 24.4433C3.31054 22.98 3.00061 21.4119 3.00061 19.7564L2.99624 19.7477ZM22.4829 19.7957C22.4829 18.481 22.5528 18.0048 22.2777 17.4763C20.1911 17.935 18.0521 18.2058 16.0266 18.2669C13.4162 18.3106 11.072 18.066 8.75843 17.6073C8.59255 18.3237 8.47032 19.1231 8.47032 19.7957C8.47032 21.9011 9.15567 23.6833 10.5176 25.1422C11.8796 26.6055 13.5297 27.3306 15.481 27.3306C17.4235 27.3306 19.0736 26.6055 20.4356 25.1422C21.7976 23.6789 22.4829 21.9011 22.4829 19.7957Z" fill="#8288A2"/>
<path d="M55.8789 15.9121C55.8789 16.2988 55.8105 16.6582 55.6738 16.9902C55.541 17.3184 55.3535 17.6035 55.1113 17.8457C54.8105 18.1465 54.4551 18.373 54.0449 18.5254C53.6348 18.6738 53.1172 18.748 52.4922 18.748H51.332V22H50.1719V13.2754H52.5391C53.0625 13.2754 53.5059 13.3203 53.8691 13.4102C54.2324 13.4961 54.5547 13.6328 54.8359 13.8203C55.168 14.043 55.4238 14.3203 55.6035 14.6523C55.7871 14.9844 55.8789 15.4043 55.8789 15.9121ZM54.6719 15.9414C54.6719 15.6406 54.6191 15.3789 54.5137 15.1562C54.4082 14.9336 54.248 14.752 54.0332 14.6113C53.8457 14.4902 53.6309 14.4043 53.3887 14.3535C53.1504 14.2988 52.8477 14.2715 52.4805 14.2715H51.332V17.7578H52.3105C52.7793 17.7578 53.1602 17.7168 53.4531 17.6348C53.7461 17.5488 53.9844 17.4141 54.168 17.2305C54.3516 17.043 54.4805 16.8457 54.5547 16.6387C54.6328 16.4316 54.6719 16.1992 54.6719 15.9414ZM62.4121 22H61.3164V21.3027C61.2188 21.3691 61.0859 21.4629 60.918 21.584C60.7539 21.7012 60.5938 21.7949 60.4375 21.8652C60.2539 21.9551 60.043 22.0293 59.8047 22.0879C59.5664 22.1504 59.2871 22.1816 58.9668 22.1816C58.377 22.1816 57.877 21.9863 57.4668 21.5957C57.0566 21.2051 56.8516 20.707 56.8516 20.1016C56.8516 19.6055 56.957 19.2051 57.168 18.9004C57.3828 18.5918 57.6875 18.3496 58.082 18.1738C58.4805 17.998 58.959 17.8789 59.5176 17.8164C60.0762 17.7539 60.6758 17.707 61.3164 17.6758V17.5059C61.3164 17.2559 61.2715 17.0488 61.1816 16.8848C61.0957 16.7207 60.9707 16.5918 60.8066 16.498C60.6504 16.4082 60.4629 16.3477 60.2441 16.3164C60.0254 16.2852 59.7969 16.2695 59.5586 16.2695C59.2695 16.2695 58.9473 16.3086 58.5918 16.3867C58.2363 16.4609 57.8691 16.5703 57.4902 16.7148H57.4316V15.5957C57.6465 15.5371 57.957 15.4727 58.3633 15.4023C58.7695 15.332 59.1699 15.2969 59.5645 15.2969C60.0254 15.2969 60.4258 15.3359 60.7656 15.4141C61.1094 15.4883 61.4062 15.6172 61.6562 15.8008C61.9023 15.9805 62.0898 16.2129 62.2188 16.498C62.3477 16.7832 62.4121 17.1367 62.4121 17.5586V22ZM61.3164 20.3887V18.5664C60.9805 18.5859 60.584 18.6152 60.127 18.6543C59.6738 18.6934 59.3145 18.75 59.0488 18.8242C58.7324 18.9141 58.4766 19.0547 58.2812 19.2461C58.0859 19.4336 57.9883 19.6934 57.9883 20.0254C57.9883 20.4004 58.1016 20.6836 58.3281 20.875C58.5547 21.0625 58.9004 21.1562 59.3652 21.1562C59.752 21.1562 60.1055 21.082 60.4258 20.9336C60.7461 20.7812 61.043 20.5996 61.3164 20.3887ZM69.0859 20.166C69.0859 20.5332 69 20.8438 68.8281 21.0977C68.6602 21.3516 68.4434 21.5566 68.1777 21.7129C67.9121 21.8652 67.6191 21.9766 67.2988 22.0469C66.9785 22.1172 66.6582 22.1523 66.3379 22.1523C65.8848 22.1523 65.4531 22.1094 65.043 22.0234C64.6328 21.9375 64.2285 21.8047 63.8301 21.625V20.418H63.9062C64.1914 20.668 64.5547 20.8613 64.9961 20.998C65.4375 21.1348 65.8652 21.2031 66.2793 21.2031C66.4746 21.2031 66.6758 21.1855 66.8828 21.1504C67.0898 21.1113 67.2695 21.0508 67.4219 20.9688C67.5859 20.875 67.7168 20.7637 67.8145 20.6348C67.9121 20.502 67.9609 20.3223 67.9609 20.0957C67.9609 19.8613 67.9121 19.6738 67.8145 19.5332C67.7207 19.3926 67.5918 19.2871 67.4277 19.2168C67.2676 19.1465 67.0742 19.1035 66.8477 19.0879C66.6211 19.0723 66.4141 19.0645 66.2266 19.0645H65.2715V18.1152H65.9336C66.0898 18.1152 66.293 18.1094 66.543 18.0977C66.7969 18.0859 67.002 18.0547 67.1582 18.0039C67.3613 17.9375 67.5215 17.8438 67.6387 17.7227C67.7598 17.6016 67.8203 17.4082 67.8203 17.1426C67.8203 16.959 67.7734 16.8086 67.6797 16.6914C67.5859 16.5703 67.4688 16.4766 67.3281 16.4102C67.1836 16.3438 67.0215 16.2988 66.8418 16.2754C66.666 16.252 66.5098 16.2402 66.373 16.2402C65.9746 16.2402 65.582 16.2949 65.1953 16.4043C64.8125 16.5098 64.4902 16.6641 64.2285 16.8672H64.1523V15.6543C64.4766 15.5488 64.8242 15.4629 65.1953 15.3965C65.5664 15.3301 65.9375 15.2969 66.3086 15.2969C66.6133 15.2969 66.916 15.3242 67.2168 15.3789C67.5215 15.4336 67.8047 15.5273 68.0664 15.6602C68.3242 15.793 68.5352 15.9746 68.6992 16.2051C68.8633 16.4316 68.9453 16.7129 68.9453 17.0488C68.9453 17.3926 68.8379 17.6953 68.623 17.957C68.4121 18.2148 68.127 18.4004 67.7676 18.5137V18.5547C68.1699 18.6523 68.4902 18.8359 68.7285 19.1055C68.9668 19.3711 69.0859 19.7246 69.0859 20.166ZM76.5859 18.6484C76.5859 19.1797 76.5098 19.666 76.3574 20.1074C76.2051 20.5449 75.9902 20.916 75.7129 21.2207C75.4551 21.5098 75.1504 21.7344 74.7988 21.8945C74.4512 22.0508 74.082 22.1289 73.6914 22.1289C73.3516 22.1289 73.043 22.0918 72.7656 22.0176C72.4922 21.9434 72.2129 21.8281 71.9277 21.6719V24.4141H70.8262V15.4551H71.9277V16.1406C72.2207 15.8945 72.5488 15.6895 72.9121 15.5254C73.2793 15.3574 73.6699 15.2734 74.084 15.2734C74.873 15.2734 75.4863 15.5723 75.9238 16.1699C76.3652 16.7637 76.5859 17.5898 76.5859 18.6484ZM75.4492 18.6777C75.4492 17.8887 75.3145 17.2988 75.0449 16.9082C74.7754 16.5176 74.3613 16.3223 73.8027 16.3223C73.4863 16.3223 73.168 16.3906 72.8477 16.5273C72.5273 16.6641 72.2207 16.8438 71.9277 17.0664V20.7754C72.2402 20.916 72.5078 21.0117 72.7305 21.0625C72.957 21.1133 73.2129 21.1387 73.498 21.1387C74.1113 21.1387 74.5898 20.9316 74.9336 20.5176C75.2773 20.1035 75.4492 19.4902 75.4492 18.6777ZM83.3887 22H82.293V21.3027C82.1953 21.3691 82.0625 21.4629 81.8945 21.584C81.7305 21.7012 81.5703 21.7949 81.4141 21.8652C81.2305 21.9551 81.0195 22.0293 80.7812 22.0879C80.543 22.1504 80.2637 22.1816 79.9434 22.1816C79.3535 22.1816 78.8535 21.9863 78.4434 21.5957C78.0332 21.2051 77.8281 20.707 77.8281 20.1016C77.8281 19.6055 77.9336 19.2051 78.1445 18.9004C78.3594 18.5918 78.6641 18.3496 79.0586 18.1738C79.457 17.998 79.9355 17.8789 80.4941 17.8164C81.0527 17.7539 81.6523 17.707 82.293 17.6758V17.5059C82.293 17.2559 82.248 17.0488 82.1582 16.8848C82.0723 16.7207 81.9473 16.5918 81.7832 16.498C81.627 16.4082 81.4395 16.3477 81.2207 16.3164C81.002 16.2852 80.7734 16.2695 80.5352 16.2695C80.2461 16.2695 79.9238 16.3086 79.5684 16.3867C79.2129 16.4609 78.8457 16.5703 78.4668 16.7148H78.4082V15.5957C78.623 15.5371 78.9336 15.4727 79.3398 15.4023C79.7461 15.332 80.1465 15.2969 80.541 15.2969C81.002 15.2969 81.4023 15.3359 81.7422 15.4141C82.0859 15.4883 82.3828 15.6172 82.6328 15.8008C82.8789 15.9805 83.0664 16.2129 83.1953 16.498C83.3242 16.7832 83.3887 17.1367 83.3887 17.5586V22ZM82.293 20.3887V18.5664C81.957 18.5859 81.5605 18.6152 81.1035 18.6543C80.6504 18.6934 80.291 18.75 80.0254 18.8242C79.709 18.9141 79.4531 19.0547 79.2578 19.2461C79.0625 19.4336 78.9648 19.6934 78.9648 20.0254C78.9648 20.4004 79.0781 20.6836 79.3047 20.875C79.5312 21.0625 79.877 21.1562 80.3418 21.1562C80.7285 21.1562 81.082 21.082 81.4023 20.9336C81.7227 20.7812 82.0195 20.5996 82.293 20.3887ZM90.3203 16.4219C90.5938 16.6953 90.8008 17.0273 90.9414 17.418C91.082 17.8047 91.1523 18.2598 91.1523 18.7832C91.1523 19.7598 90.8594 20.5703 90.2734 21.2148C89.6875 21.8594 88.9668 22.1816 88.1113 22.1816C87.6895 22.1816 87.3008 22.1113 86.9453 21.9707C86.5898 21.8262 86.2871 21.6055 86.0371 21.3086C85.7246 20.9375 85.4902 20.4707 85.334 19.9082C85.1816 19.3418 85.1055 18.6523 85.1055 17.8398C85.1055 17.5469 85.1191 17.25 85.1465 16.9492C85.1738 16.6445 85.2363 16.2812 85.334 15.8594C85.4121 15.4961 85.5254 15.1465 85.6738 14.8105C85.8262 14.4746 86.0059 14.2031 86.2129 13.9961C86.4941 13.7109 86.8633 13.4824 87.3203 13.3105C87.7812 13.1348 88.3906 13.0137 89.1484 12.9473C89.457 12.9199 89.7441 12.8984 90.0098 12.8828C90.2754 12.8633 90.5137 12.8457 90.7246 12.8301V13.8438C90.4668 13.8594 90.2109 13.875 89.957 13.8906C89.707 13.9062 89.457 13.9258 89.207 13.9492C88.707 13.9922 88.2539 14.0742 87.8477 14.1953C87.4453 14.3164 87.1504 14.4727 86.9629 14.6641C86.7559 14.8711 86.5996 15.1426 86.4941 15.4785C86.3926 15.8105 86.3262 16.127 86.2949 16.4277C86.5879 16.2168 86.9082 16.041 87.2559 15.9004C87.6074 15.7559 87.9805 15.6836 88.375 15.6836C88.7422 15.6836 89.0957 15.7441 89.4355 15.8652C89.7754 15.9863 90.0703 16.1719 90.3203 16.4219ZM90.0332 18.8477C90.0332 18.125 89.8594 17.5859 89.5117 17.2305C89.1641 16.8711 88.7051 16.6914 88.1348 16.6914C87.7949 16.6914 87.4688 16.7461 87.1562 16.8555C86.8438 16.9609 86.5469 17.1035 86.2656 17.2832C86.2578 17.3809 86.25 17.4961 86.2422 17.6289C86.2383 17.7578 86.2363 17.877 86.2363 17.9863C86.2363 18.666 86.293 19.2168 86.4062 19.6387C86.5195 20.0605 86.6797 20.3965 86.8867 20.6465C87.0664 20.8574 87.2617 21.0078 87.4727 21.0977C87.6836 21.1836 87.9102 21.2266 88.1523 21.2266C88.7422 21.2266 89.2031 21.0137 89.5352 20.5879C89.8672 20.1621 90.0332 19.582 90.0332 18.8477ZM98.459 18.7305C98.459 19.7969 98.1855 20.6387 97.6387 21.2559C97.0918 21.873 96.3594 22.1816 95.4414 22.1816C94.5156 22.1816 93.7793 21.873 93.2324 21.2559C92.6895 20.6387 92.418 19.7969 92.418 18.7305C92.418 17.6641 92.6895 16.8223 93.2324 16.2051C93.7793 15.584 94.5156 15.2734 95.4414 15.2734C96.3594 15.2734 97.0918 15.584 97.6387 16.2051C98.1855 16.8223 98.459 17.6641 98.459 18.7305ZM97.3223 18.7305C97.3223 17.8828 97.1562 17.2539 96.8242 16.8438C96.4922 16.4297 96.0312 16.2227 95.4414 16.2227C94.8438 16.2227 94.3789 16.4297 94.0469 16.8438C93.7188 17.2539 93.5547 17.8828 93.5547 18.7305C93.5547 19.5508 93.7207 20.1738 94.0527 20.5996C94.3848 21.0215 94.8477 21.2324 95.4414 21.2324C96.0273 21.2324 96.4863 21.0234 96.8184 20.6055C97.1543 20.1836 97.3223 19.5586 97.3223 18.7305ZM104.98 16.4219H102.613V22H101.512V16.4219H99.1445V15.4551H104.98V16.4219ZM112.029 22H110.588L107.869 19H107.271V22H106.17V15.4551H107.271V18.2793C107.635 18.2793 107.928 18.2148 108.15 18.0859C108.373 17.9531 108.562 17.7422 108.719 17.4531C108.773 17.3477 108.826 17.2363 108.877 17.1191C108.932 16.998 108.984 16.8828 109.035 16.7734C109.238 16.332 109.492 16.002 109.797 15.7832C110.102 15.5645 110.539 15.4551 111.109 15.4551H111.613V16.4043H111.127C110.818 16.4043 110.576 16.4707 110.4 16.6035C110.229 16.7324 110.072 16.9609 109.932 17.2891C109.775 17.6562 109.609 17.9316 109.434 18.1152C109.262 18.2949 109.078 18.4316 108.883 18.5254L112.029 22ZM118.311 22H117.215V21.3027C117.117 21.3691 116.984 21.4629 116.816 21.584C116.652 21.7012 116.492 21.7949 116.336 21.8652C116.152 21.9551 115.941 22.0293 115.703 22.0879C115.465 22.1504 115.186 22.1816 114.865 22.1816C114.275 22.1816 113.775 21.9863 113.365 21.5957C112.955 21.2051 112.75 20.707 112.75 20.1016C112.75 19.6055 112.855 19.2051 113.066 18.9004C113.281 18.5918 113.586 18.3496 113.98 18.1738C114.379 17.998 114.857 17.8789 115.416 17.8164C115.975 17.7539 116.574 17.707 117.215 17.6758V17.5059C117.215 17.2559 117.17 17.0488 117.08 16.8848C116.994 16.7207 116.869 16.5918 116.705 16.498C116.549 16.4082 116.361 16.3477 116.143 16.3164C115.924 16.2852 115.695 16.2695 115.457 16.2695C115.168 16.2695 114.846 16.3086 114.49 16.3867C114.135 16.4609 113.768 16.5703 113.389 16.7148H113.33V15.5957C113.545 15.5371 113.855 15.4727 114.262 15.4023C114.668 15.332 115.068 15.2969 115.463 15.2969C115.924 15.2969 116.324 15.3359 116.664 15.4141C117.008 15.4883 117.305 15.6172 117.555 15.8008C117.801 15.9805 117.988 16.2129 118.117 16.498C118.246 16.7832 118.311 17.1367 118.311 17.5586V22ZM117.215 20.3887V18.5664C116.879 18.5859 116.482 18.6152 116.025 18.6543C115.572 18.6934 115.213 18.75 114.947 18.8242C114.631 18.9141 114.375 19.0547 114.18 19.2461C113.984 19.4336 113.887 19.6934 113.887 20.0254C113.887 20.4004 114 20.6836 114.227 20.875C114.453 21.0625 114.799 21.1562 115.264 21.1562C115.65 21.1562 116.004 21.082 116.324 20.9336C116.645 20.7812 116.941 20.5996 117.215 20.3887ZM129.549 21.5898C129.1 21.8008 128.713 21.9453 128.389 22.0234C128.068 22.1055 127.748 22.1465 127.428 22.1465C126.951 22.1465 126.514 22.0781 126.115 21.9414C125.717 21.8008 125.375 21.5898 125.09 21.3086C124.805 21.0273 124.582 20.6719 124.422 20.2422C124.266 19.8125 124.188 19.3105 124.188 18.7363C124.188 17.6934 124.477 16.8613 125.055 16.2402C125.633 15.6152 126.424 15.3027 127.428 15.3027C127.807 15.3027 128.178 15.3555 128.541 15.4609C128.908 15.5664 129.244 15.6953 129.549 15.8477V17.0723H129.484C129.121 16.7949 128.762 16.5898 128.406 16.457C128.055 16.3242 127.713 16.2578 127.381 16.2578C126.729 16.2578 126.223 16.4766 125.863 16.9141C125.508 17.3516 125.33 17.959 125.33 18.7363C125.33 19.5137 125.508 20.1172 125.863 20.5469C126.219 20.9766 126.725 21.1914 127.381 21.1914C127.611 21.1914 127.84 21.1621 128.066 21.1035C128.297 21.0449 128.506 20.9688 128.693 20.875C128.842 20.8008 128.994 20.7129 129.15 20.6113C129.311 20.5059 129.422 20.4277 129.484 20.377H129.549V21.5898ZM136.146 22H135.051V21.3027C134.953 21.3691 134.82 21.4629 134.652 21.584C134.488 21.7012 134.328 21.7949 134.172 21.8652C133.988 21.9551 133.777 22.0293 133.539 22.0879C133.301 22.1504 133.021 22.1816 132.701 22.1816C132.111 22.1816 131.611 21.9863 131.201 21.5957C130.791 21.2051 130.586 20.707 130.586 20.1016C130.586 19.6055 130.691 19.2051 130.902 18.9004C131.117 18.5918 131.422 18.3496 131.816 18.1738C132.215 17.998 132.693 17.8789 133.252 17.8164C133.811 17.7539 134.41 17.707 135.051 17.6758V17.5059C135.051 17.2559 135.006 17.0488 134.916 16.8848C134.83 16.7207 134.705 16.5918 134.541 16.498C134.385 16.4082 134.197 16.3477 133.979 16.3164C133.76 16.2852 133.531 16.2695 133.293 16.2695C133.004 16.2695 132.682 16.3086 132.326 16.3867C131.971 16.4609 131.604 16.5703 131.225 16.7148H131.166V15.5957C131.381 15.5371 131.691 15.4727 132.098 15.4023C132.504 15.332 132.904 15.2969 133.299 15.2969C133.76 15.2969 134.16 15.3359 134.5 15.4141C134.844 15.4883 135.141 15.6172 135.391 15.8008C135.637 15.9805 135.824 16.2129 135.953 16.498C136.082 16.7832 136.146 17.1367 136.146 17.5586V22ZM135.051 20.3887V18.5664C134.715 18.5859 134.318 18.6152 133.861 18.6543C133.408 18.6934 133.049 18.75 132.783 18.8242C132.467 18.9141 132.211 19.0547 132.016 19.2461C131.82 19.4336 131.723 19.6934 131.723 20.0254C131.723 20.4004 131.836 20.6836 132.062 20.875C132.289 21.0625 132.635 21.1562 133.1 21.1562C133.486 21.1562 133.84 21.082 134.16 20.9336C134.48 20.7812 134.777 20.5996 135.051 20.3887ZM143.781 22H142.691V17.084L139.264 22H138.268V15.4551H139.357V20.3008L142.75 15.4551H143.781V22ZM143.154 12.877C143.135 13.4551 142.951 13.9062 142.604 14.2305C142.26 14.5547 141.758 14.7168 141.098 14.7168C140.438 14.7168 139.934 14.5547 139.586 14.2305C139.242 13.9062 139.061 13.4551 139.041 12.877H140.043C140.047 13.2871 140.137 13.584 140.312 13.7676C140.492 13.9512 140.754 14.043 141.098 14.043C141.445 14.043 141.707 13.9531 141.883 13.7734C142.059 13.5938 142.148 13.2949 142.152 12.877H143.154ZM150.766 16.4219H148.398V22H147.297V16.4219H144.93V15.4551H150.766V16.4219ZM156.994 22H155.898V21.3027C155.801 21.3691 155.668 21.4629 155.5 21.584C155.336 21.7012 155.176 21.7949 155.02 21.8652C154.836 21.9551 154.625 22.0293 154.387 22.0879C154.148 22.1504 153.869 22.1816 153.549 22.1816C152.959 22.1816 152.459 21.9863 152.049 21.5957C151.639 21.2051 151.434 20.707 151.434 20.1016C151.434 19.6055 151.539 19.2051 151.75 18.9004C151.965 18.5918 152.27 18.3496 152.664 18.1738C153.062 17.998 153.541 17.8789 154.1 17.8164C154.658 17.7539 155.258 17.707 155.898 17.6758V17.5059C155.898 17.2559 155.854 17.0488 155.764 16.8848C155.678 16.7207 155.553 16.5918 155.389 16.498C155.232 16.4082 155.045 16.3477 154.826 16.3164C154.607 16.2852 154.379 16.2695 154.141 16.2695C153.852 16.2695 153.529 16.3086 153.174 16.3867C152.818 16.4609 152.451 16.5703 152.072 16.7148H152.014V15.5957C152.229 15.5371 152.539 15.4727 152.945 15.4023C153.352 15.332 153.752 15.2969 154.146 15.2969C154.607 15.2969 155.008 15.3359 155.348 15.4141C155.691 15.4883 155.988 15.6172 156.238 15.8008C156.484 15.9805 156.672 16.2129 156.801 16.498C156.93 16.7832 156.994 17.1367 156.994 17.5586V22ZM155.898 20.3887V18.5664C155.562 18.5859 155.166 18.6152 154.709 18.6543C154.256 18.6934 153.896 18.75 153.631 18.8242C153.314 18.9141 153.059 19.0547 152.863 19.2461C152.668 19.4336 152.57 19.6934 152.57 20.0254C152.57 20.4004 152.684 20.6836 152.91 20.875C153.137 21.0625 153.482 21.1562 153.947 21.1562C154.334 21.1562 154.688 21.082 155.008 20.9336C155.328 20.7812 155.625 20.5996 155.898 20.3887Z" fill="#8288A2"/>
</svg>
