<svg width="14" height="17" viewBox="0 0 14 17" fill="none" xmlns="http://www.w3.org/2000/svg">
<path d="M13.252 11.83C13.252 13.402 12.658 14.638 11.47 15.538C10.27 16.426 8.68 16.87 6.7 16.87C4.72 16.87 3.136 16.426 1.948 15.538C0.747999 14.638 0.147999 13.402 0.147999 11.83C0.147999 10.246 0.747999 9.01 1.948 8.122C3.136 7.234 4.72 6.79 6.7 6.79C8.68 6.79 10.27 7.234 11.47 8.122C12.658 9.01 13.252 10.246 13.252 11.83ZM9.778 13.738C10.474 13.306 10.822 12.67 10.822 11.83C10.822 10.99 10.468 10.354 9.76 9.922C9.052 9.478 8.032 9.256 6.7 9.256C5.356 9.256 4.33 9.478 3.622 9.922C2.914 10.354 2.56 10.99 2.56 11.83C2.56 12.67 2.914 13.306 3.622 13.738C4.33 14.17 5.356 14.386 6.7 14.386C8.044 14.386 9.07 14.17 9.778 13.738ZM0.399999 3.00367V0.843671H13V3.32767H3.028L3.694 5.70367L1.57 6.31567L0.399999 3.00367Z" fill="#DEE4EB"/>
</svg>
