<svg width="14" height="22" viewBox="0 0 14 22" fill="none" xmlns="http://www.w3.org/2000/svg">
<path d="M13.252 16.83C13.252 18.402 12.658 19.638 11.47 20.538C10.27 21.426 8.68 21.87 6.7 21.87C4.72 21.87 3.136 21.426 1.948 20.538C0.747999 19.638 0.147999 18.402 0.147999 16.83C0.147999 15.246 0.747999 14.01 1.948 13.122C3.136 12.234 4.72 11.79 6.7 11.79C8.68 11.79 10.27 12.234 11.47 13.122C12.658 14.01 13.252 15.246 13.252 16.83ZM9.778 18.738C10.474 18.306 10.822 17.67 10.822 16.83C10.822 15.99 10.468 15.354 9.76 14.922C9.052 14.478 8.032 14.256 6.7 14.256C5.356 14.256 4.33 14.478 3.622 14.922C2.914 15.354 2.56 15.99 2.56 16.83C2.56 17.67 2.914 18.306 3.622 18.738C4.33 19.17 5.356 19.386 6.7 19.386C8.044 19.386 9.07 19.17 9.778 18.738ZM8.554 0.974109H10.858V2.32411H13V4.82611H10.858V10.7841H8.554L0.399999 6.59011V3.92611L8.554 8.10211V4.82611H5.566V2.32411H8.554V0.974109Z" fill="#DEE4EB"/>
</svg>
