<svg width="14" height="21" viewBox="0 0 14 21" fill="none" xmlns="http://www.w3.org/2000/svg">
<path d="M13.252 15.33C13.252 16.902 12.658 18.138 11.47 19.038C10.27 19.926 8.68 20.37 6.7 20.37C4.72 20.37 3.136 19.926 1.948 19.038C0.747999 18.138 0.147999 16.902 0.147999 15.33C0.147999 13.746 0.747999 12.51 1.948 11.622C3.136 10.734 4.72 10.29 6.7 10.29C8.68 10.29 10.27 10.734 11.47 11.622C12.658 12.51 13.252 13.746 13.252 15.33ZM9.778 17.238C10.474 16.806 10.822 16.17 10.822 15.33C10.822 14.49 10.468 13.854 9.76 13.422C9.052 12.978 8.032 12.756 6.7 12.756C5.356 12.756 4.33 12.978 3.622 13.422C2.914 13.854 2.56 14.49 2.56 15.33C2.56 16.17 2.914 16.806 3.622 17.238C4.33 17.67 5.356 17.886 6.7 17.886C8.044 17.886 9.07 17.67 9.778 17.238ZM4.486 4.53211C4.522 3.22411 4.948 2.16211 5.764 1.34611C6.568 0.530109 7.6 0.122109 8.86 0.122109C10.144 0.122109 11.2 0.548109 12.028 1.40011C12.844 2.25211 13.252 3.35011 13.252 4.69411C13.252 6.03811 12.844 7.13611 12.028 7.98811C11.212 8.82811 10.156 9.24811 8.86 9.24811C7.9 9.24811 7.054 9.00211 6.322 8.51011L0.399999 4.58611V1.74211L4.486 4.53211ZM10.354 6.18811C10.726 5.79211 10.912 5.29411 10.912 4.69411C10.912 4.09411 10.726 3.59611 10.354 3.20011C9.982 2.79211 9.484 2.58811 8.86 2.58811C8.248 2.58811 7.756 2.79211 7.384 3.20011C7.012 3.59611 6.826 4.09411 6.826 4.69411C6.826 5.29411 7.012 5.79211 7.384 6.18811C7.744 6.58411 8.236 6.78211 8.86 6.78211C9.484 6.78211 9.982 6.58411 10.354 6.18811Z" fill="#DEE4EB"/>
</svg>
