<svg width="14" height="19" viewBox="0 0 14 19" fill="none" xmlns="http://www.w3.org/2000/svg">
<path d="M13.252 13.83C13.252 15.402 12.658 16.638 11.47 17.538C10.27 18.426 8.68 18.87 6.7 18.87C4.72 18.87 3.136 18.426 1.948 17.538C0.747999 16.638 0.147999 15.402 0.147999 13.83C0.147999 12.246 0.747999 11.01 1.948 10.122C3.136 9.234 4.72 8.79 6.7 8.79C8.68 8.79 10.27 9.234 11.47 10.122C12.658 11.01 13.252 12.246 13.252 13.83ZM9.778 15.738C10.474 15.306 10.822 14.67 10.822 13.83C10.822 12.99 10.468 12.354 9.76 11.922C9.052 11.478 8.032 11.256 6.7 11.256C5.356 11.256 4.33 11.478 3.622 11.922C2.914 12.354 2.56 12.99 2.56 13.83C2.56 14.67 2.914 15.306 3.622 15.738C4.33 16.17 5.356 16.386 6.7 16.386C8.044 16.386 9.07 16.17 9.778 15.738ZM0.399999 8.27967V0.143671H2.506L13 4.40967V7.03767L2.776 2.89767V8.27967H0.399999Z" fill="#DEE4EB"/>
</svg>
