<svg width="14" height="21" viewBox="0 0 14 21" fill="none" xmlns="http://www.w3.org/2000/svg">
<path d="M13.252 15.83C13.252 17.402 12.658 18.638 11.47 19.538C10.27 20.426 8.68 20.87 6.7 20.87C4.72 20.87 3.136 20.426 1.948 19.538C0.747999 18.638 0.147999 17.402 0.147999 15.83C0.147999 14.246 0.747999 13.01 1.948 12.122C3.136 11.234 4.72 10.79 6.7 10.79C8.68 10.79 10.27 11.234 11.47 12.122C12.658 13.01 13.252 14.246 13.252 15.83ZM9.778 17.738C10.474 17.306 10.822 16.67 10.822 15.83C10.822 14.99 10.468 14.354 9.76 13.922C9.052 13.478 8.032 13.256 6.7 13.256C5.356 13.256 4.33 13.478 3.622 13.922C2.914 14.354 2.56 14.99 2.56 15.83C2.56 16.67 2.914 17.306 3.622 17.738C4.33 18.17 5.356 18.386 6.7 18.386C8.044 18.386 9.07 18.17 9.778 17.738ZM4.522 0.622109C5.494 0.622109 6.346 0.874109 7.078 1.37811V1.36011L13 5.28411V8.12811L8.896 5.32011C8.872 6.62811 8.458 7.69611 7.654 8.52411C6.838 9.34011 5.794 9.74811 4.522 9.74811C3.238 9.74811 2.188 9.32811 1.372 8.48811C0.555999 7.63611 0.147999 6.53811 0.147999 5.19411C0.147999 3.83811 0.555999 2.74011 1.372 1.90011C2.176 1.04811 3.226 0.622109 4.522 0.622109ZM4.522 7.28211C5.146 7.28211 5.644 7.08411 6.016 6.68811C6.388 6.28011 6.574 5.78211 6.574 5.19411C6.574 4.58211 6.388 4.07811 6.016 3.68211C5.644 3.28611 5.146 3.08811 4.522 3.08811C3.898 3.08811 3.406 3.28611 3.046 3.68211C2.674 4.07811 2.488 4.58211 2.488 5.19411C2.488 5.78211 2.674 6.28011 3.046 6.68811C3.418 7.08411 3.91 7.28211 4.522 7.28211Z" fill="#DEE4EB"/>
</svg>
