<svg xmlns="http://www.w3.org/2000/svg" width="36.38" height="36.38" viewBox="0 0 36.38 36.38">
  <path id="instagram" d="M18.19,3.279c4.857,0,5.433.018,7.352.106,4.929.224,7.232,2.563,7.456,7.456.088,1.918.1,2.494.1,7.35s-.018,5.433-.1,7.35c-.226,4.889-2.522,7.232-7.456,7.456-1.919.088-2.492.106-7.352.106s-5.433-.018-7.35-.106C5.9,32.772,3.608,30.422,3.383,25.54c-.088-1.918-.106-2.492-.106-7.35s.02-5.431.106-7.35c.226-4.892,2.522-7.232,7.456-7.456,1.919-.086,2.494-.1,7.35-.1ZM18.19,0c-4.94,0-5.559.021-7.5.109C4.085.412.414,4.078.111,10.69.021,12.631,0,13.25,0,18.19s.021,5.56.109,7.5c.3,6.606,3.968,10.277,10.58,10.58,1.942.088,2.56.109,7.5.109s5.56-.021,7.5-.109c6.6-.3,10.28-3.968,10.579-10.58.089-1.94.111-2.56.111-7.5s-.021-5.559-.109-7.5C35.973,4.091,32.3.414,25.692.111,23.75.021,23.13,0,18.19,0Zm0,8.849a9.341,9.341,0,1,0,9.34,9.34A9.341,9.341,0,0,0,18.19,8.849Zm0,15.4a6.063,6.063,0,1,1,6.063-6.063A6.063,6.063,0,0,1,18.19,24.253ZM27.9,6.3a2.183,2.183,0,1,0,2.181,2.183A2.184,2.184,0,0,0,27.9,6.3Z" fill="#fff"/>
</svg>
