<svg xmlns="http://www.w3.org/2000/svg" width="20" height="20" viewBox="0 0 20 20">
  <path id="Контур_12524" data-name="Контур 12524" d="M22,12A10,10,0,1,1,12,2,10,10,0,0,1,22,12Zm-3.07,4A8.038,8.038,0,0,1,15.8,19.042,11.786,11.786,0,0,0,17.354,16Zm-1.084-2a13.047,13.047,0,0,0,0-4h1.9a8.062,8.062,0,0,1,0,4Zm-2.007,0a12.518,12.518,0,0,0,0-4H13v4ZM13,16h2.332a12.233,12.233,0,0,1-2.263,3.929L13,19.938Zm-2-2V10H8.161a12.516,12.516,0,0,0,0,4ZM8.668,16H11v3.938l-.069-.009A12.231,12.231,0,0,1,8.668,16ZM6.154,14a13.051,13.051,0,0,1,0-4h-1.9a8.061,8.061,0,0,0,0,4ZM5.07,16H6.646A11.786,11.786,0,0,0,8.2,19.042,8.038,8.038,0,0,1,5.07,16ZM18.93,8H17.354A11.787,11.787,0,0,0,15.8,4.958,8.038,8.038,0,0,1,18.93,8ZM13,8h2.332a12.234,12.234,0,0,0-2.263-3.929L13,4.062ZM11,4.062V8H8.668a12.232,12.232,0,0,1,2.263-3.929Zm-2.8.9A11.786,11.786,0,0,0,6.646,8H5.07A8.038,8.038,0,0,1,8.2,4.958Z" transform="translate(-2 -2)" fill="#fff" fill-rule="evenodd"/>
</svg>
