<svg id="opensea" xmlns="http://www.w3.org/2000/svg" width="33.565" height="33.565" viewBox="0 0 33.565 33.565">
  <path id="Контур_12509" data-name="Контур 12509" d="M33.565,16.783A16.783,16.783,0,1,1,16.783,0,16.783,16.783,0,0,1,33.565,16.783Z" fill="#fff"/>
  <path id="Контур_12510" data-name="Контур 12510" d="M24.62,37.8l.072-.114,4.366-6.83a.149.149,0,0,1,.262.019c.729,1.635,1.359,3.668,1.064,4.933a7.711,7.711,0,0,1-.859,1.878c-.05.095-.105.188-.164.278a.148.148,0,0,1-.124.066h-4.49A.149.149,0,0,1,24.62,37.8Z" transform="translate(-16.341 -20.453)" fill="#4f6db5"/>
  <path id="Контур_12511" data-name="Контур 12511" d="M41.691,31.9v1.081a.155.155,0,0,1-.093.141,5.376,5.376,0,0,0-1.976,1.345c-1.228,1.709-2.166,4.152-4.262,4.152H26.612A5.621,5.621,0,0,1,21,32.991v-.1a.15.15,0,0,1,.15-.15h4.876a.166.166,0,0,1,.159.184,1.664,1.664,0,0,0,.174.936,1.716,1.716,0,0,0,1.538.955h2.414V32.932H27.925a.154.154,0,0,1-.124-.241c.026-.04.055-.081.086-.128.226-.321.548-.819.869-1.386a10.859,10.859,0,0,0,.6-1.2c.035-.074.062-.15.09-.224.047-.131.095-.253.129-.376.035-.1.062-.212.09-.314a4.857,4.857,0,0,0,.116-1.1c0-.15-.007-.307-.021-.457s-.028-.328-.048-.491c-.014-.145-.04-.288-.067-.438-.034-.219-.083-.436-.138-.655l-.019-.083c-.041-.15-.076-.293-.124-.443-.136-.471-.293-.929-.459-1.359-.06-.171-.129-.335-.2-.5-.1-.247-.205-.471-.3-.683-.048-.1-.09-.185-.131-.274s-.095-.2-.143-.3c-.034-.074-.074-.143-.1-.212l-.295-.545a.1.1,0,0,1,.109-.14l1.845.5H29.7l.007,0,.243.067.267.076.1.028v-1.1A.953.953,0,0,1,31.259,20a.936.936,0,0,1,.671.281.964.964,0,0,1,.278.678v1.628l.2.055a.157.157,0,0,1,.045.022l.205.155c.069.055.143.122.233.191.178.143.39.328.622.54.062.053.122.109.178.164.3.279.636.607.957.969.09.1.178.205.267.314s.185.219.267.328c.109.145.226.295.328.452.048.074.1.15.15.224.131.2.247.4.357.609.047.095.095.2.136.3a4.387,4.387,0,0,1,.281.833,1.041,1.041,0,0,1,.04.185v.014a1.579,1.579,0,0,1,.034.26,2.785,2.785,0,0,1-.048.86,3.134,3.134,0,0,1-.1.36c-.041.117-.083.24-.136.355a4.816,4.816,0,0,1-.371.7c-.047.083-.1.171-.157.253s-.122.171-.178.252c-.076.1-.157.212-.24.309a3.277,3.277,0,0,1-.233.293c-.116.136-.226.266-.341.39-.069.081-.143.164-.219.238s-.15.157-.219.226c-.115.116-.212.205-.293.279l-.19.174a.155.155,0,0,1-.1.038H32.208v1.885h1.848A1.729,1.729,0,0,0,35.18,34.4a13.484,13.484,0,0,0,1.143-1.124.143.143,0,0,1,.071-.043L41.5,31.758A.151.151,0,0,1,41.691,31.9Z" transform="translate(-13.951 -13.287)" fill="#4f6db5"/>
</svg>
