<svg xmlns="http://www.w3.org/2000/svg" width="62.369" height="42.524" viewBox="0 0 62.369 42.524">
  <path id="_02_Money_Bank_Cash_Dollar_Finance" data-name="02 Money, Bank, Cash, Dollar, Finance" d="M50.336,17.5h-34.3A7.087,7.087,0,0,1,10.5,23.033V37.491a7.087,7.087,0,0,1,5.528,5.528h34.3a7.087,7.087,0,0,1,5.528-5.528V23.033A7.087,7.087,0,0,1,50.336,17.5ZM21.845,31.68h-5.67V28.845h5.67Zm17.01-5.67h-8.5v2.835h7.087a1.417,1.417,0,0,1,1.417,1.417v5.67a1.417,1.417,0,0,1-1.417,1.417H34.6v2.835H31.767V37.349H27.515V34.515h8.5V31.68H28.932a1.417,1.417,0,0,1-1.417-1.417v-5.67a1.417,1.417,0,0,1,1.417-1.417h2.835V20.34H34.6v2.835h4.252Zm11.34,5.67h-5.67V28.845h5.67ZM60.116,9H6.252A4.252,4.252,0,0,0,2,13.252V47.272a4.252,4.252,0,0,0,4.252,4.252H60.116a4.252,4.252,0,0,0,4.252-4.252V13.252A4.252,4.252,0,0,0,60.116,9ZM58.7,38.767a1.417,1.417,0,0,1-1.417,1.417,4.252,4.252,0,0,0-4.252,4.252,1.417,1.417,0,0,1-1.417,1.417H14.757a1.417,1.417,0,0,1-1.417-1.417,4.252,4.252,0,0,0-4.252-4.252A1.417,1.417,0,0,1,7.67,38.767V21.757A1.417,1.417,0,0,1,9.087,20.34a4.252,4.252,0,0,0,4.252-4.252,1.417,1.417,0,0,1,1.417-1.417H51.612a1.417,1.417,0,0,1,1.417,1.417,4.252,4.252,0,0,0,4.252,4.252A1.417,1.417,0,0,1,58.7,21.757Z" transform="translate(-2 -9)" fill="#fff"/>
</svg>
