<svg id="Сгруппировать_3973" data-name="Сгруппировать 3973" xmlns="http://www.w3.org/2000/svg" width="42.524" height="42.524" viewBox="0 0 42.524 42.524">
  <path id="Контур_6725" data-name="Контур 6725" d="M9.658,4H7V17.289H17.631V14.631H9.658Z" transform="translate(11.604 6.631)" fill="#fff"/>
  <path id="Контур_6726" data-name="Контур 6726" d="M42.524,18.6V7.973L39.6,10.9A20.412,20.412,0,0,0,21.262,0a21.262,21.262,0,0,0,0,42.524,20.752,20.752,0,0,0,15.947-7.442l-3.987-3.455a15.553,15.553,0,0,1-11.96,5.581,15.947,15.947,0,0,1,0-31.893,16.651,16.651,0,0,1,14.618,9.3L31.893,18.6Z" fill="#fff"/>
</svg>
