<svg xmlns="http://www.w3.org/2000/svg" width="31.258" height="42.524" viewBox="0 0 31.258 42.524">
  <path id="Контур_6730" data-name="Контур 6730" d="M31.969,32.2a1.079,1.079,0,0,0,0-.213l-.2-1.206H9.269v4.256h22.7ZM35.2,37.876H6.034L5.013,41.792a1.409,1.409,0,0,0,1.419,1.759H34.807a1.408,1.408,0,0,0,1.376-1.759ZM6.105,23.22l3.164,1.5v3.221H31.331l-.17-1.092a5.15,5.15,0,0,0-4.866-4.384,5.434,5.434,0,0,1-3.221-1.83h0a8.4,8.4,0,0,0,4.015-1.064l1.22.894a4.81,4.81,0,0,0,3.987.78,4.753,4.753,0,0,0,3.519-3.6A6.6,6.6,0,0,0,33.53,11.1L27.713,6.38l.468-2.554a2.369,2.369,0,0,0-.809-2.213,2.355,2.355,0,0,0-2.284-.468A9.591,9.591,0,0,0,20.25,4.493,12.584,12.584,0,0,0,5.3,16.808v5.136a1.419,1.419,0,0,0,.809,1.277Z" transform="translate(-4.969 -1.028)" fill="#fff"/>
</svg>
