<svg xmlns="http://www.w3.org/2000/svg" width="51.711" height="42.524" viewBox="0 0 51.711 42.524">
  <path id="Контур_6727" data-name="Контур 6727" d="M33.854,66.362A12.427,12.427,0,0,1,41.523,69a7.977,7.977,0,0,0-.292,9.847H26.477A7.977,7.977,0,0,0,26.185,69a12.426,12.426,0,0,1,7.669-2.634ZM20.058,82.1a12.486,12.486,0,0,1,11.924,8.784,2.853,2.853,0,0,1-2.725,3.7h-18.4a2.853,2.853,0,0,1-2.725-3.7A12.486,12.486,0,0,1,20.058,82.1ZM47.65,67.8a6.31,6.31,0,1,0,6.31,6.31,6.31,6.31,0,0,0-6.31-6.31Zm-27.592,0a6.31,6.31,0,1,0,6.31,6.31,6.31,6.31,0,0,0-6.31-6.31ZM47.65,82.1a12.486,12.486,0,0,1,11.924,8.784,2.853,2.853,0,0,1-2.725,3.7h-18.4a2.853,2.853,0,0,1-2.725-3.7A12.486,12.486,0,0,1,47.65,82.1Zm-13.8-30.044a6.31,6.31,0,1,1-6.31,6.31A6.31,6.31,0,0,1,33.854,52.057Z" transform="translate(-7.999 -52.057)" fill="#fff" fill-rule="evenodd"/>
</svg>
