<svg xmlns="http://www.w3.org/2000/svg" width="33.564" height="33.564" viewBox="0 0 33.564 33.564">
  <path id="Контур_12512" data-name="Контур 12512" d="M16.782,33.564A16.782,16.782,0,1,0,0,16.782,16.779,16.779,0,0,0,16.782,33.564Zm-9.1-17.146L23.86,10.18c.751-.271,1.407.183,1.164,1.319h0L22.27,24.477c-.2.92-.751,1.144-1.516.71l-4.2-3.092-2.024,1.95a1.058,1.058,0,0,1-.846.413l.3-4.27,7.776-7.025c.338-.3-.076-.466-.522-.169l-9.609,6.05L7.489,17.751c-.9-.285-.919-.9.19-1.333Z" fill="#fff"/>
</svg>
