<svg xmlns="http://www.w3.org/2000/svg" width="34.937" height="34.938" viewBox="0 0 34.937 34.938">
  <g id="USD_Coin_USDC_" data-name="USD Coin (USDC)" transform="translate(-547.6 -135.1)">
    <path id="Контур_12521" data-name="Контур 12521" d="M565.068,170.037a17.468,17.468,0,1,1,17.468-17.468A17.426,17.426,0,0,1,565.068,170.037Z" transform="translate(0)" fill="#fff"/>
    <path id="Контур_12522" data-name="Контур 12522" d="M1264.4,654.755c0-2.547,1.529-3.42,4.586-3.785,2.183-.292,2.62-.873,2.62-1.892s-.729-1.673-2.184-1.673a2.154,2.154,0,0,0-2.4,1.528.548.548,0,0,1-.51.363h-1.165a.5.5,0,0,1-.51-.51v-.073a3.636,3.636,0,0,1,3.275-2.984v-1.747c0-.292.218-.51.582-.582h1.092c.292,0,.51.218.582.582v1.673c2.184.292,3.567,1.747,3.567,3.567,0,2.4-1.455,3.349-4.512,3.712-2.039.363-2.694.8-2.694,1.965s1.018,1.965,2.4,1.965c1.892,0,2.547-.8,2.765-1.892a.532.532,0,0,1,.51-.437h1.237a.5.5,0,0,1,.51.51v.073c-.292,1.82-1.455,3.13-3.857,3.494v1.747c0,.292-.218.51-.582.582h-1.092c-.292,0-.51-.218-.582-.582v-1.747a3.99,3.99,0,0,1-3.639-3.859Z" transform="translate(-704.135 -499.421)" fill="#4341a2"/>
    <path id="Контур_12523" data-name="Контур 12523" d="M812.386,449.58a10.891,10.891,0,0,0,0-20.452.729.729,0,0,1-.437-.728v-1.018a.551.551,0,0,1,.437-.582.437.437,0,0,1,.292.073,13.1,13.1,0,0,1,0,24.966.443.443,0,0,1-.655-.292c-.073-.073-.073-.145-.073-.292v-1.018A.971.971,0,0,1,812.386,449.58Zm-7.714-22.709a.443.443,0,0,1,.655.292c.073.073.073.145.073.292v1.018a.967.967,0,0,1-.437.728,10.891,10.891,0,0,0,0,20.452.729.729,0,0,1,.437.728V451.4a.551.551,0,0,1-.437.582.437.437,0,0,1-.292-.073,13.153,13.153,0,0,1,0-25.037Z" transform="translate(-243.606 -286.604)" fill="#4342a2"/>
  </g>
</svg>
