<svg width="20" height="20" viewBox="0 0 20 20" fill="none" xmlns="http://www.w3.org/2000/svg">
<rect width="20" height="20" rx="6" fill="#292B3E"/>
<path d="M9.43466 5.77273C8.82812 5.77273 8.38731 5.91027 8.11222 6.18537C7.84044 6.45715 7.70455 6.81676 7.70455 7.2642H6.37216C6.37216 6.81345 6.47159 6.39252 6.67045 6.00142C6.86932 5.60701 7.19247 5.28883 7.63991 5.04688C8.08736 4.80161 8.68561 4.67898 9.43466 4.67898C10.0511 4.67898 10.5748 4.76847 11.0057 4.94744C11.4399 5.12642 11.7696 5.39157 11.995 5.7429C12.2237 6.09422 12.3381 6.52841 12.3381 7.04545C12.3381 7.23769 12.3132 7.42992 12.2635 7.62216C12.2138 7.81439 12.1359 7.99834 12.0298 8.17401C11.9238 8.34967 11.7879 8.51042 11.6222 8.65625L10.4886 8.31818C10.6477 8.10937 10.7902 7.89891 10.9162 7.68679C11.0421 7.47467 11.1051 7.25426 11.1051 7.02557C11.1051 6.64773 10.9659 6.34446 10.6875 6.11577C10.4091 5.88707 9.99148 5.77273 9.43466 5.77273ZM13.054 9.35227H5.75568V8.25852H13.054V9.35227ZM13.054 11.4205H5.75568V10.3267H13.054V11.4205ZM9.39489 15.1392C8.44034 15.1392 7.68466 14.9354 7.12784 14.5277C6.57102 14.12 6.29261 13.5284 6.29261 12.7528C6.29261 12.5606 6.32079 12.3667 6.37713 12.1712C6.43679 11.9723 6.52296 11.7867 6.63565 11.6143C6.75166 11.4387 6.89583 11.2879 7.06818 11.1619L8.34091 11.321C8.07244 11.5597 7.88187 11.7917 7.76918 12.017C7.6598 12.2391 7.60511 12.4844 7.60511 12.7528C7.60511 13.1406 7.75923 13.4472 8.06747 13.6726C8.37571 13.8946 8.81818 14.0057 9.39489 14.0057C9.93182 14.0057 10.3743 13.8946 10.7223 13.6726C11.0703 13.4472 11.2443 13.081 11.2443 12.5739H12.5767C12.5767 13.1572 12.4425 13.6394 12.174 14.0206C11.9055 14.3984 11.5327 14.6802 11.0554 14.8658C10.5781 15.0481 10.0246 15.1392 9.39489 15.1392Z" fill="white"/>
</svg>
