<svg width="1920" height="704" viewBox="0 0 1920 704" fill="none" xmlns="http://www.w3.org/2000/svg">
<g opacity="0.05">
<path d="M-204 238.037C-148.619 276.961 -87.2709 313.666 -21.0357 347.837C8.3877 363.022 39.5016 377.978 77.4584 387.333C153.622 406.101 240.716 399.018 319.823 383.367C341.454 379.116 362.494 374.229 382.565 369.06C468.692 346.79 549.535 319.185 622.84 287.183C695.434 255.474 760.885 218.262 846.343 193.833C901.705 178.006 965.078 166.129 1028.3 162.827C1083.02 160.004 1138.65 164.178 1185.16 178.902C1193.51 181.54 1201.45 184.479 1208.95 187.704C1255.17 207.571 1281.94 237.067 1295.38 267.333C1299.66 277.008 1302.68 286.769 1304.84 296.496C1310.47 321.906 1311.14 347.692 1311.5 372.621C1312.35 412.397 1317.48 450.832 1351.86 485.291C1381.4 514.901 1438.76 539.17 1505.89 543.453C1601.43 549.555 1686.74 521.073 1767.83 500.11C1774.23 498.457 1780.67 496.843 1787.16 495.268C1885.3 471.483 1993.22 457.226 2100.07 466.068C2213.96 475.48 2325.13 516.086 2354 575" stroke="#E9E9E9" stroke-miterlimit="10"/>
<path d="M-191 223.935C-136.679 262.254 -76.1294 298.24 -10.5978 331.581C18.5119 346.394 49.2825 360.942 86.5539 370.153C161.324 388.629 246.604 382.52 324.441 368.106C345.751 364.193 366.507 359.666 386.352 354.854C471.455 334.123 551.641 308.07 624.681 277.637C697.002 247.481 762.395 211.751 846.791 188.205C904.126 172.207 969.024 159.835 1034.05 156.056C1090.22 152.83 1147.73 156.717 1195.82 171.571C1204.47 174.235 1212.7 177.219 1220.49 180.508C1268.45 200.773 1295.85 231.154 1310.13 262.345C1314.68 272.299 1317.98 282.346 1320.47 292.338C1326.96 318.445 1328.95 344.957 1331.31 370.504C1335.09 411.347 1345.59 450.034 1383.26 484.63C1413.92 512.791 1469.3 536.311 1534.7 540.695C1627.8 546.942 1711.28 520.546 1790.46 501.597C1796.7 500.104 1802.99 498.648 1809.32 497.233C1905.02 475.853 2009.14 464.016 2111.19 474.173C2219.98 484.983 2325 525.448 2351 583" stroke="#E3E3E3" stroke-miterlimit="10"/>
<path d="M-176 209.681C-122.803 247.299 -63.124 282.482 1.62636 314.91C30.3842 329.316 60.7788 343.419 97.3284 352.465C170.616 370.605 253.985 365.484 330.453 352.341C351.412 348.777 371.859 344.619 391.462 340.177C475.438 321.035 554.872 296.603 627.564 267.813C699.53 239.286 764.818 205.152 848.018 182.52C907.278 166.4 973.6 153.552 1040.36 149.304C1097.91 145.684 1157.25 149.273 1206.86 164.219C1215.8 166.905 1224.31 169.924 1232.37 173.269C1282.02 193.884 1310.01 225.077 1325.12 257.119C1329.92 267.332 1333.51 277.639 1336.31 287.871C1343.67 314.611 1347.06 341.79 1351.33 367.894C1358.17 409.705 1373.76 448.54 1414.81 483.2C1446.38 509.862 1499.89 532.557 1563.48 537.031C1654.02 543.41 1735.57 519.164 1812.74 502.276C1818.82 500.945 1824.95 499.652 1831.11 498.398C1924.27 479.475 2024.47 470.092 2121.6 481.543C2225.14 493.726 2323.88 533.952 2347 590" stroke="#DEDEDE" stroke-miterlimit="10"/>
<path d="M-163 195.574C-110.86 232.571 -51.9881 267.026 12.0618 298.611C40.502 312.641 70.5567 326.328 106.424 335.23C178.313 353.071 259.869 348.929 335.064 337.033C355.7 333.811 375.864 330.012 395.239 325.932C478.187 308.341 556.969 285.475 629.399 258.266C701.091 231.308 766.387 198.722 848.459 176.933C909.729 160.666 977.543 147.302 1046.11 142.576C1105.11 138.552 1166.34 141.852 1217.53 156.925C1226.77 159.637 1235.58 162.7 1243.92 166.108C1295.31 187.117 1323.93 219.192 1339.89 252.154C1344.95 262.645 1348.81 273.237 1351.95 283.732C1360.17 311.164 1364.98 339.067 1371.16 365.787C1381.08 408.657 1401.63 447.727 1446.24 482.525C1478.6 507.77 1530.46 529.662 1592.32 534.237C1680.41 540.76 1760.14 518.616 1835.38 503.756C1841.32 502.585 1847.29 501.45 1853.29 500.359C1944.01 483.857 2040.41 476.908 2132.74 489.678C2231.17 503.263 2323.75 543.336 2344 598" stroke="#D8D8D8" stroke-miterlimit="10"/>
<path d="M-148 182.252C-97.0034 218.468 -39.025 252.045 24.2186 282.647C52.2957 296.239 81.9628 309.453 117.091 318.171C187.47 335.636 267.043 332.413 340.886 321.891C361.156 319.003 381.014 315.604 400.135 311.902C481.924 295.937 559.923 274.736 631.976 249.227C703.281 223.953 768.506 193.08 849.292 172.205C912.486 155.876 981.671 142.042 1051.93 136.858C1112.3 132.451 1175.32 135.445 1228.01 150.58C1237.53 153.305 1246.62 156.396 1255.22 159.855C1308.27 181.167 1337.47 213.979 1354.26 247.719C1359.58 258.444 1363.71 269.272 1367.18 279.985C1376.24 307.988 1382.46 336.494 1390.54 363.712C1403.53 407.453 1428.87 446.599 1477.1 481.368C1510.04 505.117 1560.33 526.081 1620.36 530.738C1705.86 537.379 1783.63 517.429 1856.83 504.658C1862.6 503.651 1868.41 502.682 1874.24 501.754C1962.38 487.742 2054.83 483.256 2142.22 497.287C2235.36 512.212 2321.65 551.96 2339 605" stroke="#D2D2D2" stroke-miterlimit="10"/>
<path d="M-135 168.158C-85.0646 203.746 -27.8897 236.588 34.6535 266.342C62.4167 279.554 91.7439 292.35 126.186 300.922C195.165 318.085 272.929 315.839 345.494 306.573C365.437 304.026 385.012 300.99 403.91 297.652C484.671 283.241 562.016 263.616 633.805 239.695C704.84 215.999 770.12 186.724 849.728 166.651C914.965 150.203 985.612 135.831 1057.68 130.167C1119.5 125.356 1184.41 128.058 1238.69 143.318C1248.5 146.069 1257.88 149.203 1266.78 152.725C1321.57 174.429 1351.4 208.119 1369.03 242.777C1374.62 253.782 1379.03 264.89 1382.83 275.867C1392.75 304.561 1400.4 333.787 1410.39 361.618C1426.47 406.414 1456.46 445.829 1508.56 480.693C1542.01 503.08 1590.92 523.175 1649.22 527.932C1732.27 534.716 1808.21 516.875 1879.5 506.137C1885.12 505.292 1890.76 504.484 1896.43 503.716C1982.14 492.132 2070.78 490.085 2153.37 505.436C2241.39 521.763 2321.51 561.353 2336 613" stroke="#CDCDCD" stroke-miterlimit="10"/>
<path d="M-120 153.991C-71.1628 188.879 -14.8379 220.916 46.95 249.756C74.3729 262.561 103.336 274.913 137.068 283.319C204.595 300.146 280.483 298.881 351.71 290.888C371.315 288.687 390.589 286.023 409.249 283.054C488.916 270.231 565.541 252.22 637.011 229.942C707.716 207.872 773.019 180.28 851.365 161.033C918.604 144.516 990.646 129.618 1064.46 123.487C1127.69 118.283 1194.44 120.688 1250.26 136.04C1260.36 138.813 1270.03 141.982 1279.2 145.56C1335.7 167.612 1366.13 202.109 1384.6 237.613C1390.44 248.872 1395.14 260.24 1399.25 271.457C1410.03 300.78 1419.1 330.666 1430.99 359.052C1450.15 404.811 1484.64 444.453 1540.69 479.295C1574.5 500.31 1622.13 519.454 1678.65 524.301C1759.18 531.217 1833.23 515.521 1902.54 506.841C1908 506.157 1913.49 505.512 1918.99 504.905C2002.2 495.775 2086.96 496.174 2164.67 512.813C2247.5 530.51 2321.39 569.858 2333 620" stroke="#C7C7C7" stroke-miterlimit="10"/>
<path d="M-107 139.9C-59.2446 174.153 -3.74269 205.446 57.3156 233.429C84.4095 245.852 113.021 257.784 146.056 266.04C212.156 282.561 286.206 282.28 356.125 275.545C375.399 273.688 394.381 271.388 412.806 268.782C491.414 257.524 567.354 241.094 638.53 220.415C708.934 199.931 774.307 173.986 851.404 155.509C920.693 138.905 994.136 123.439 1069.73 116.828C1134.39 111.22 1203.02 113.332 1260.4 128.808C1270.79 131.605 1280.75 134.817 1290.2 138.46C1348.43 160.902 1379.48 196.274 1398.78 232.692C1404.88 244.23 1409.86 255.879 1414.31 267.357C1425.95 297.366 1436.44 327.972 1450.23 356.97C1472.48 403.778 1511.31 443.782 1571.51 478.615C1605.59 498.334 1652.06 516.529 1706.82 521.475C1784.86 528.534 1857.05 514.958 1924.4 508.318C1929.71 507.796 1935.04 507.309 1940.38 506.867C2021.12 500.172 2102.03 503.024 2174.91 520.983C2252.57 540.086 2320.27 579.266 2329 628" stroke="#C2C2C2" stroke-miterlimit="10"/>
<path d="M-92 126.729C-45.3463 160.215 9.30574 190.646 69.6128 217.663C96.3665 229.655 124.615 241.119 156.939 249.195C221.587 265.347 293.765 266.051 362.343 260.597C381.279 259.091 399.961 257.164 418.148 254.933C495.662 245.279 570.886 230.495 641.739 211.491C711.812 192.669 777.243 168.49 853.044 150.837C924.365 134.228 999.171 118.235 1076.52 111.171C1142.58 105.181 1213.05 106.994 1271.96 122.53C1282.65 125.342 1292.9 128.584 1302.62 132.276C1362.55 155.02 1394.2 191.129 1414.34 228.32C1420.7 240.092 1425.95 251.975 1430.73 263.671C1443.22 294.249 1455.25 325.438 1470.82 354.95C1496.34 402.6 1539.16 442.904 1603.63 477.522C1637.88 495.908 1683.26 513.045 1736.24 518.074C1811.76 525.248 1882.06 513.84 1947.43 509.266C1952.59 508.906 1957.76 508.583 1962.93 508.303C2041.16 504.069 2118.2 509.355 2186.21 528.566C2258.68 548.998 2320.15 587.86 2326 635" stroke="#BCBCBC" stroke-miterlimit="10"/>
<path d="M-79 112.655C-33.406 145.502 20.4411 175.186 80.0427 201.342C106.478 212.95 134.389 223.992 166.026 231.917C229.272 247.761 299.64 249.453 366.938 245.255C385.554 244.094 403.944 242.531 421.907 240.665C498.392 232.578 572.958 219.377 643.554 201.978C713.357 184.744 778.913 162.252 853.468 145.338C926.9 128.68 1003.11 112.082 1082.27 104.538C1149.79 98.1457 1222.16 99.6645 1282.66 115.323C1293.65 118.161 1304.19 121.444 1314.2 125.199C1375.87 148.331 1408.16 185.314 1429.15 223.418C1435.77 235.466 1441.31 247.632 1446.42 259.588C1459.77 290.852 1473.23 322.756 1490.71 352.878C1519.34 401.573 1566.21 442.397 1635.17 476.845C1669.54 494.012 1713.93 510.116 1765.18 515.244C1838.25 522.562 1906.72 513.276 1970.16 510.746C1975.17 510.548 1980.17 510.387 1985.19 510.267C2060.98 508.475 2134.2 516.212 2197.4 536.745C2264.73 558.581 2320.02 597.276 2323 643" stroke="#B7B7B7" stroke-miterlimit="10"/>
<path d="M-65 98.5635C-20.5076 130.71 32.4897 159.59 91.3402 184.837C117.439 196.038 144.983 206.636 175.909 214.399C237.704 229.906 306.204 232.585 372.157 229.65C390.435 228.837 408.525 227.643 426.25 226.144C501.641 219.637 575.491 208.051 645.764 192.287C715.237 176.675 780.878 155.928 854.11 139.77C929.605 123.111 1007.15 105.922 1088.06 97.913C1156.98 91.1276 1231.19 92.3492 1293.23 108.1C1304.51 110.957 1315.33 114.278 1325.62 118.088C1389 141.565 1421.88 179.352 1443.71 218.3C1450.59 230.603 1456.4 243.026 1461.83 255.22C1476.05 287.111 1490.92 319.672 1510.3 350.347C1542 399.996 1592.74 441.367 1666.29 475.475C1700.7 491.433 1744.13 506.43 1793.6 511.648C1864.15 519.095 1930.72 511.95 1992.19 511.472C1997.04 511.435 2001.88 511.437 2006.73 511.477C2080.02 512.132 2149.37 522.307 2207.69 544.123C2269.83 567.324 2318.9 605.777 2319 650" stroke="#B1B1B1" stroke-miterlimit="10"/>
<path d="M-50 85C-6.61103 116.475 45.538 144.578 103.631 168.935C129.388 179.74 156.567 189.904 186.782 197.508C247.118 212.693 313.748 216.363 378.357 214.686C396.296 214.221 414.085 213.39 431.567 212.26C505.865 207.33 578.988 197.342 648.938 183.201C718.077 169.199 783.807 150.191 855.705 134.761C933.277 118.11 1012.13 100.291 1094.78 91.8102C1165.11 84.6282 1241.15 85.5538 1304.72 101.411C1316.29 104.29 1327.4 107.65 1337.96 111.518C1403.04 135.363 1436.52 173.985 1459.18 213.807C1466.32 226.374 1472.41 239.066 1478.17 251.511C1493.24 284.056 1509.52 317.301 1530.8 348.558C1565.58 399.204 1620.02 441.277 1698.31 474.956C1732.72 489.759 1775.21 503.624 1822.9 508.935C1890.93 516.52 1955.62 511.507 2015.1 513.077C2019.79 513.203 2024.48 513.364 2029.16 513.569C2099.94 516.669 2165.4 529.29 2218.86 552.408C2275.81 576.992 2318.65 615.237 2315.87 658" stroke="#ABABAB" stroke-miterlimit="10"/>
<path d="M-37 71C5.32001 101.773 56.6537 129.071 114.03 152.519C139.464 162.915 166.297 172.636 195.822 180.076C254.747 194.923 319.549 199.582 382.864 199.162C400.476 199.046 417.973 198.582 435.231 197.818C508.486 194.468 580.941 186.09 650.614 173.582C719.467 161.201 785.346 143.968 855.948 129.263C935.665 112.659 1015.86 94.2057 1100.32 85.2604C1172.1 77.6871 1250.03 78.318 1315.18 94.2657C1327.05 97.1643 1338.45 100.56 1349.29 104.484C1416.11 128.671 1450.22 168.093 1473.73 208.752C1481.13 221.573 1487.5 234.519 1493.59 247.203C1509.52 280.37 1527.24 314.268 1550.43 346.074C1588.31 397.669 1646.34 440.542 1729.57 473.619C1763.98 487.297 1805.6 499.973 1851.54 505.374C1917.09 513.086 1979.93 510.209 2037.47 513.827C2042.01 514.114 2046.54 514.437 2051.06 514.803C2119.39 520.342 2181.02 535.398 2229.65 559.796C2281.43 585.739 2318.08 623.739 2312.43 665" stroke="#A6A6A6" stroke-miterlimit="10"/>
<path d="M-22 57C19.1861 87.122 69.6299 113.663 126.21 136.238C151.284 146.245 177.737 155.539 206.524 162.825C263.952 177.358 326.834 183.017 388.759 183.85C406.019 184.083 423.202 183.982 440.205 183.587C512.309 181.811 583.987 175.029 653.285 164.136C721.757 153.354 787.687 137.88 856.888 123.864C938.65 107.303 1020.07 88.16 1106.2 78.7359C1179.32 70.7604 1259.03 71.0955 1325.67 87.1587C1337.81 90.0832 1349.49 93.5189 1360.6 97.5048C1429.07 122.074 1463.75 162.36 1488.07 203.927C1495.73 217.023 1502.37 230.247 1508.78 243.188C1525.55 277.034 1544.67 311.638 1569.74 344.049C1610.66 396.678 1672.06 440.576 1760.25 472.957C1794.61 485.574 1835.29 497.04 1879.42 502.54C1942.41 510.396 2003.31 509.652 2058.83 515.323C2063.21 515.77 2067.58 516.256 2071.92 516.785C2137.7 524.776 2195.41 542.29 2239.13 568.008C2285.69 595.354 2316.09 633.173 2307.57 673" stroke="#A0A0A0" stroke-miterlimit="10"/>
<path d="M158.611 42.7731C191.219 72.2246 231.564 97.9893 276.974 119.676C297.094 129.287 318.316 138.148 341.155 145.276C386.687 159.486 436.314 166.197 485.602 168.232C499.367 168.828 513.101 169.076 526.738 169.049C584.501 168.851 642.225 163.671 698.333 154.401C753.761 145.228 807.481 131.536 862.675 118.206C930.909 101.725 998.163 81.8764 1069.64 71.9786C1130.26 63.6034 1196.59 63.6421 1252.05 79.8151C1262.16 82.7618 1271.9 86.2374 1281.16 90.2826C1338.23 115.22 1366.93 156.35 1387.39 198.795C1393.83 212.157 1399.46 225.652 1404.94 238.846C1419.27 273.35 1435.97 308.642 1457.9 341.637C1493.69 395.269 1546.32 440.337 1622.23 471.827C1650.16 483.418 1682.52 493.624 1716.97 499.217C1766.16 507.208 1814.16 508.599 1857.72 516.324C1861.15 516.934 1864.57 517.581 1867.97 518.271C1919.44 528.711 1963.24 548.675 1994.85 575.699C2028.51 604.436 2048.18 642.049 2038.91 680.417" stroke="#9B9B9B" stroke-miterlimit="10"/>
<path d="M169.944 28.8496C201.667 57.6211 241.329 82.603 286.14 103.395C305.991 112.607 326.919 121.03 349.187 128.001C393.551 141.886 441.666 149.581 489.884 152.88C503.374 153.824 516.87 154.44 530.313 154.779C587.203 156.158 644.355 152.582 700.217 144.937C755.389 137.376 809.212 125.484 863.322 112.831C933.311 96.4648 1001.6 75.8882 1074.51 65.5196C1136.29 56.7492 1204.12 56.4915 1260.84 72.7671C1271.19 75.7351 1281.16 79.2495 1290.65 83.3547C1349.11 108.653 1378.31 150.61 1399.45 193.923C1406.1 207.548 1411.96 221.309 1417.7 234.748C1432.73 269.9 1450.59 305.87 1474.06 339.44C1512.36 394.058 1567.6 440.465 1647.78 470.874C1675.74 481.475 1707.33 490.373 1740.35 496.061C1787.5 504.188 1833.99 507.714 1875.94 517.49C1879.25 518.261 1882.54 519.071 1885.81 519.923C1935.26 532.81 1975.92 555.222 2003.59 583.542C2033.04 613.658 2047.66 651.054 2036.06 687.949" stroke="#959595" stroke-miterlimit="10"/>
<path d="M181.273 14.9238C212.11 43.0153 251.093 67.2128 295.302 87.1112C314.881 95.9242 335.519 103.912 357.215 110.722C400.409 124.279 447.012 132.96 494.159 137.523C507.377 138.813 520.63 139.795 533.886 140.502C589.901 143.461 646.484 141.489 702.096 135.469C757.012 129.52 810.941 119.44 863.965 107.451C935.721 91.2299 1005.02 69.8939 1079.38 59.0545C1142.3 49.887 1211.65 49.3349 1269.62 65.7132C1280.21 68.7025 1290.41 72.2556 1300.13 76.4189C1359.98 102.079 1389.68 144.863 1411.5 189.044C1418.36 202.933 1424.44 216.96 1430.45 230.645C1446.18 266.443 1465.19 303.092 1490.21 337.236C1531.02 392.841 1588.82 440.779 1673.33 469.911C1701.33 479.564 1732.14 487.116 1763.72 492.895C1808.84 501.156 1853.8 506.819 1894.16 518.645C1897.35 519.578 1900.51 520.549 1903.64 521.562C1951.07 536.896 1988.59 561.752 2012.32 591.37C2037.56 622.866 2047.13 660.045 2033.19 695.468" stroke="#909090" stroke-miterlimit="10"/>
<path d="M192.602 0.999966C262.198 64.6979 376.898 106.8 498.437 122.169C619.975 137.538 747.597 127.609 864.611 102.079C938.148 86.0337 1008.45 63.9074 1084.24 52.5972C1160.03 41.2851 1245.3 42.1665 1309.62 69.4889C1390.11 103.683 1416.96 168.258 1443.22 226.547C1486.41 322.401 1555.49 424.329 1698.88 468.955C1770.31 491.185 1853.9 496.752 1921.48 523.213C2015.17 559.898 2061.92 637.119 2030.33 703" stroke="#8A8A8A" stroke-miterlimit="10"/>
</g>
</svg>
