<svg width="17" height="17" viewBox="0 0 17 17" fill="none" xmlns="http://www.w3.org/2000/svg">
<path d="M7.88023 0.866952C8.09904 0.372766 8.2085 0.125673 8.36087 0.0495823C8.49319 -0.0165274 8.64858 -0.0165274 8.78091 0.0495823C8.93328 0.125673 9.04273 0.372766 9.26155 0.866952L11.0045 4.80321C11.0692 4.9493 11.1016 5.02235 11.1517 5.07828C11.1959 5.12778 11.2501 5.16737 11.3105 5.19447C11.3788 5.22511 11.4578 5.2335 11.6158 5.25029L15.8733 5.70263C16.4078 5.75942 16.675 5.78781 16.794 5.91016C16.8973 6.01644 16.9454 6.16525 16.9238 6.31239C16.899 6.48175 16.6994 6.66282 16.3002 7.02506L13.1199 9.91017C13.0019 10.0172 12.9428 10.0708 12.9055 10.136C12.8724 10.1937 12.8517 10.2578 12.8448 10.324C12.837 10.3989 12.8534 10.4771 12.8864 10.6336L13.7747 14.8494C13.8862 15.3787 13.942 15.6433 13.8632 15.795C13.7946 15.9268 13.6689 16.0187 13.5233 16.0436C13.3556 16.0721 13.1228 15.937 12.6572 15.6667L8.94868 13.5135C8.81106 13.4335 8.74225 13.3937 8.66909 13.378C8.60435 13.3642 8.53743 13.3642 8.47268 13.378C8.39952 13.3937 8.33071 13.4335 8.19309 13.5135L4.48462 15.6667C4.01903 15.937 3.78624 16.0721 3.61855 16.0436C3.47289 16.0187 3.34714 15.9268 3.27867 15.795C3.19985 15.6433 3.25561 15.3787 3.36713 14.8494L4.25539 10.6336C4.28836 10.4771 4.30484 10.3989 4.29702 10.324C4.29009 10.2578 4.26942 10.1937 4.23633 10.136C4.19895 10.0708 4.13993 10.0172 4.02191 9.91017L0.841669 7.02506C0.442408 6.66282 0.242772 6.48175 0.217951 6.31239C0.196401 6.16525 0.244426 6.01644 0.347774 5.91016C0.466756 5.78781 0.734011 5.75942 1.26852 5.70263L5.52597 5.25029C5.68399 5.2335 5.76299 5.22511 5.83131 5.19447C5.89176 5.16737 5.94588 5.12778 5.99017 5.07828C6.04022 5.02235 6.07257 4.9493 6.13726 4.80321L7.88023 0.866952Z" fill="#DD9848"/>
</svg>
