<svg id="Layer_1" data-name="Layer 1" xmlns="http://www.w3.org/2000/svg" viewBox="0 0 1080 1080"><title>KASSA24_іcons_</title><path d="M935.3,818.73V465.47A111.73,111.73,0,0,0,823.69,353.86h-53.4V306.54H815a15.69,15.69,0,0,0,15.7-15.69V224.22a74.66,74.66,0,0,0-74.58-74.57H439.62a130,130,0,0,0-129.91,129.9v74.31h-53.4A111.73,111.73,0,0,0,144.7,465.47V818.73A111.74,111.74,0,0,0,256.31,930.35H823.69A111.74,111.74,0,0,0,935.3,818.73Zm-165-635.12a43.13,43.13,0,0,1,29,40.61v50.93h-29ZM341.1,279.55A98.63,98.63,0,0,1,439.62,181H738.9v364.4H341.1Zm-165,539.18V465.47a80.31,80.31,0,0,1,80.22-80.22h53.4V545.44H282.8a15.7,15.7,0,1,0,0,31.39H805.72a15.7,15.7,0,1,0,0-31.39H770.29V385.25h53.4a80.31,80.31,0,0,1,80.22,80.22V818.73A80.32,80.32,0,0,1,823.69,899H256.31A80.32,80.32,0,0,1,176.09,818.73Z"/><path d="M595,758H325.41a15.7,15.7,0,1,0,0,31.39H595A15.7,15.7,0,0,0,595,758Z"/><path d="M754.59,758H739.87a15.7,15.7,0,0,0,0,31.39h14.72a15.7,15.7,0,1,0,0-31.39Z"/><path d="M657.76,275.15H507.46a15.7,15.7,0,0,0,0,31.39h150.3a15.7,15.7,0,0,0,0-31.39Z"/><path d="M437,275.15H419.15a15.7,15.7,0,1,0,0,31.39H437a15.7,15.7,0,1,0,0-31.39Z"/><path d="M657.76,379.74H507.46a15.7,15.7,0,0,0,0,31.39h150.3a15.7,15.7,0,0,0,0-31.39Z"/><path d="M437,379.74H419.15a15.7,15.7,0,1,0,0,31.39H437a15.7,15.7,0,1,0,0-31.39Z"/></svg>