<svg id="Layer_1" data-name="Layer 1" xmlns="http://www.w3.org/2000/svg" viewBox="0 0 1669.51 1080"><title>KASSA24_іcons_</title><path d="M1255.68,723.54a96.91,96.91,0,1,0,96.92,96.91A97,97,0,0,0,1255.68,723.54Zm0,162.43a65.52,65.52,0,1,1,65.53-65.52A65.59,65.59,0,0,1,1255.68,886Z"/><path d="M438.4,723.54a96.91,96.91,0,1,0,96.91,96.91A97,97,0,0,0,438.4,723.54Zm0,162.43a65.52,65.52,0,1,1,65.52-65.52A65.59,65.59,0,0,1,438.4,886Z"/><path d="M1502.75,724.85h0c-6.1-.11-10.86-4.54-10.86-10.1V649.33a108.79,108.79,0,0,0-12.27-50c0-.06,0-.13-.06-.19s-.1-.09-.14-.15a108.81,108.81,0,0,0-32.28-37.6l-58.65-42.68a77.65,77.65,0,0,1-28.83-41.38,15.69,15.69,0,0,0-15.1-11.39H1333.1a20,20,0,0,1-19.57-16.07l-28.22-142.29a14.48,14.48,0,0,1,14.2-17.3h4a15.69,15.69,0,0,0,15.4-18.72l-8.33-42.39a81.84,81.84,0,0,0-80.12-65.9h-240a14.68,14.68,0,0,0-3.15-.64H309.63a14.43,14.43,0,0,0-3.15.64H233.63a53.85,53.85,0,0,0-53.79,53.79L180,670.26A29.81,29.81,0,0,0,151.63,700V806.35a29.84,29.84,0,0,0,29.8,29.8H312.3a15.7,15.7,0,0,0,15.7-15.7,110.41,110.41,0,0,1,220.81,0,15.7,15.7,0,0,0,15.69,15.7h565.09a15.7,15.7,0,0,0,15.69-15.7,110.41,110.41,0,0,1,220.81,0,15.7,15.7,0,0,0,15.7,15.7H1502a41.54,41.54,0,0,0,41.49-41.49V766.33A41.7,41.7,0,0,0,1502.75,724.85Zm-43.94-91a77,77,0,0,1,1.69,15.49v27a23.39,23.39,0,0,1-9.33-5c-1.71-1.67-3.66-4.31-3.66-10.05C1447.51,650,1452.91,640.76,1458.81,633.84ZM412,298.37a66,66,0,0,0,102.39,0,66,66,0,0,0,102.38,0,66,66,0,0,0,102.39,0,66,66,0,0,0,102.38,0,66.07,66.07,0,0,0,100.32,2.5V484H326.52V313A65.65,65.65,0,0,0,412,298.37Zm-85.49,217H921.87v15.52A47,47,0,0,1,875,577.84H373.44a47,47,0,0,1-46.92-46.91ZM908.24,194v61.81a35.5,35.5,0,0,1-71,0V194h71ZM805.86,255.84a35.5,35.5,0,0,1-71,0V194h71Zm-102.39,0a35.5,35.5,0,0,1-71,0V194h71Zm-102.38,0a35.5,35.5,0,0,1-71,0V194h71Zm-102.39,0a35.5,35.5,0,0,1-71,0V194h71Zm-102.38,0a35.43,35.43,0,0,1-69.8,8.66V194h69.8ZM1512.08,794.66a10.11,10.11,0,0,1-10.1,10.1H1396.61c-7.83-70.83-68-126.1-140.93-126.1s-133.1,55.27-140.92,126.1H579.33c-7.82-70.83-68-126.1-140.92-126.1s-133.1,55.27-140.93,126.1H183V701.62a28.25,28.25,0,0,0,18.88-8.16,31.15,31.15,0,0,0,9.33-22.19V217.07a22.43,22.43,0,0,1,22.4-22.4h60.31v61.17a66.71,66.71,0,0,0,1.19,11.82V530.93a78.39,78.39,0,0,0,78.31,78.3H875a78.38,78.38,0,0,0,78.3-78.3V194.67h277.17a50.37,50.37,0,0,1,49.32,40.57l5.12,26.05a45.88,45.88,0,0,0-30.35,52.4L1282.73,456a51.49,51.49,0,0,0,50.37,41.36h.31a109.27,109.27,0,0,0,36.6,46.75l58.65,42.7A76.86,76.86,0,0,1,1445,603.15c-12.34,10.83-28.89,30.47-28.89,58.14,0,13,4.59,24.26,13.28,32.67,9.27,9,21.39,12.91,31.1,14.67v6.12c0,22.84,18.31,41.06,41.67,41.49a10.14,10.14,0,0,1,9.91,10.09Z"/><path d="M1256.59,422,1234.31,309.7a63.2,63.2,0,0,0-61.85-50.8h-75.84A63.13,63.13,0,0,0,1033.56,322V687.09a15.7,15.7,0,0,0,15.7,15.69h62a15.76,15.76,0,0,0,11.25-4.74c.52-.54,52.93-53.36,119.63-53.36a15.7,15.7,0,0,0,15.7-15.7V434.27c0-.51-.25-.93-.29-1.43A63.87,63.87,0,0,0,1256.59,422ZM1065,322a31.71,31.71,0,0,1,31.67-31.67h75.84a31.74,31.74,0,0,1,31.06,25.51l22.27,112.31A31.67,31.67,0,0,1,1194.73,466h-98.11A31.71,31.71,0,0,1,1065,434.27Zm40,349.43h-40V488.49a62.38,62.38,0,0,0,31.67,8.85h98.11a62.57,62.57,0,0,0,31.69-8.94V614.05C1166,619.9,1119.76,657.8,1104.93,671.39Z"/></svg>