<svg id="Layer_1" data-name="Layer 1" xmlns="http://www.w3.org/2000/svg" viewBox="0 0 1080 1080"><title>KASSA24_іcons_</title><path d="M896.46,513.64a15.7,15.7,0,0,0-13.55,9.13C850.67,592.93,756.19,782,706.76,814.08c-14.17,9.19-27.1,12.07-39.51,8.8-24.76-6.53-40-35.44-40.18-35.69a15.7,15.7,0,0,0-10.39-8.13,15.87,15.87,0,0,0-12.92,2.67L423.62,915.1A15.7,15.7,0,0,0,433,943.41H734.35a15.67,15.67,0,0,0,13.77-8.16C792,855.1,850.83,770.92,882.6,749.4l9.29,168.79a15.7,15.7,0,0,0,30.85,3.14c2-7.55,49-186.13,57.63-290.24,3.41-41-5-72.32-25-93.08C930.72,512.39,897.85,513.61,896.46,513.64Zm52.62,114.84c-4.26,51.17-18.54,122.8-31.71,181.44l-4.53-82.26a15.69,15.69,0,0,0-14.63-14.8C843.44,709.68,756.85,855,725.09,912H480.54l128.54-95.17c9.77,12.87,26.58,30.07,49.93,36.32,21.22,5.66,43,1.39,64.83-12.75C784.62,801,882.14,598.56,906.77,545.93a49,49,0,0,1,26.29,14.14C946.31,574.08,951.7,597.09,949.08,628.48Z"/><path d="M714.86,687.62C708.3,553.19,563.1,368.12,509.05,311.26c24.43-25.77,58.49-85.29,35.72-139.49-9.43-22.46-25.33-30.61-37-33.49-35.92-8.88-80.77,19.44-100.86,34.06-20.11-14.61-65-43-100.87-34.06-11.68,2.88-27.58,11-37,33.49C246.24,226,280.3,285.49,304.74,311.26,250.69,368.11,105.47,553.2,98.91,687.62a15.71,15.71,0,0,0,8.54,14.75c5,2.56,124.89,62.77,299.44,62.77s294.42-60.21,299.44-62.77A15.72,15.72,0,0,0,714.86,687.62ZM297.94,183.92c4.75-11.31,11.16-14.07,15.58-15.16,22.54-5.52,63.1,18.81,83.4,35.49a15.71,15.71,0,0,0,19.94,0c20.3-16.68,61-41,83.4-35.49,4.41,1.09,10.82,3.85,15.58,15.16,18.79,44.73-18.93,97.45-32.84,109.36-.09,0-.17.07-.25.08H331c-.09,0-.17-.07-.25-.08C316.88,281.37,279.16,228.65,297.94,183.92Zm109,549.83c-139.73,0-244.86-41.33-275.82-55,14.2-136.23,174.31-323.61,203.87-354h143.9c29.56,30.38,189.66,217.8,203.87,354C651.75,692.42,546.62,733.75,406.89,733.75Z"/></svg>