<svg id="Layer_1" data-name="Layer 1" xmlns="http://www.w3.org/2000/svg" viewBox="0 0 1080 1080"><title>KASSA24_іcons_</title><path d="M938.49,131.9a41.94,41.94,0,0,0-57.76,21L679.85,629.37A15.69,15.69,0,0,0,689,650.25L774.78,681A15.7,15.7,0,0,0,795,671.17L959.14,182.6A41.68,41.68,0,0,0,938.49,131.9Zm-9.1,40.71L770.29,646l-55.08-19.72L909.65,165.15a10.56,10.56,0,0,1,14.54-5.31A10.65,10.65,0,0,1,929.39,172.61Z"/><path d="M551.78,919.87c-47.73-20-75.48-46.74-82.49-79.47-21.23-99.06,76.46-164.7,166.56-190.82a15.68,15.68,0,0,0,11.09-12.36l44.65-254.33a15.69,15.69,0,0,0-15.46-18.41H361l-64.82-118.7a15.56,15.56,0,0,0,2.47-5.62c9.93-48.26,51.51-82,101.1-82a103.65,103.65,0,0,1,101.38,83.05,15.71,15.71,0,0,0,17.62,12.45c56.82-8.2,109.49,32.87,116.81,88.87a15.7,15.7,0,1,0,31.13-4.07c-8.95-68.42-68.95-120-138.29-117.14A135.22,135.22,0,0,0,399.74,126.8c-55.55,0-103.38,32.48-124,81.59l-35.6-65.21a35.52,35.52,0,1,0-62.35,34L212.08,240a135.66,135.66,0,0,0-65.48,98.46,15.69,15.69,0,0,0,13.51,17.61,16.12,16.12,0,0,0,2.07.14,15.7,15.7,0,0,0,15.54-13.64,104,104,0,0,1,49.44-75l52.9,96.87H134.32a15.69,15.69,0,0,0-15.46,18.41l88.23,502.59a83.79,83.79,0,0,0,82.67,69.42H520.69A83.6,83.6,0,0,0,551.48,949a15.7,15.7,0,0,0,.3-29.08Zm-262,3.64A52.47,52.47,0,0,1,238,880.05L153,395.87h153.5a15.69,15.69,0,0,0,13.77-23.22L247.36,239.12l-42-76.94a4.12,4.12,0,0,1,1.64-5.59,4.16,4.16,0,0,1,5.61,1.64l47.23,86.49v0l78.07,143a15.68,15.68,0,0,0,13.77,8.17H657.44L617.7,622.29C517.42,654.06,413.63,730.48,438.59,847c6.42,30,24.64,55.57,54.32,76.53Z"/><path d="M900.42,900.58h0c-66.44-37-141-99.91-119.14-188.71l1-3.1A15.69,15.69,0,0,0,772.72,689l-90-32.21a15.58,15.58,0,0,0-9.5-.35c-3.61,1-12.15,3.51-23.5,7.63-49.77,18-163.14,71.2-141,174.61,7.44,34.71,40.22,62.05,97.43,81.26,85.88,28.86,212,34.55,280,35.38a29.23,29.23,0,0,0,14.29-54.73Zm-284.25-10.4c-46-15.44-71.77-35-76.72-58.09-17-79.26,79-123.28,121-138.53,6.82-2.47,12.52-4.3,16.53-5.52l71.9,25.74c-14.29,79.27,31,153.28,128.87,210C810.43,922.63,694.62,916.54,616.17,890.18Z"/></svg>