<svg id="Layer_1" data-name="Layer 1" xmlns="http://www.w3.org/2000/svg" viewBox="0 0 1080 1080"><title>KASSA24_іcons_</title><path d="M937.6,760.65c0-.18.11-.34.11-.52a15.57,15.57,0,0,0-4.3-10.66l-87.69-234A15.7,15.7,0,0,0,831,505.33H705.49A162.36,162.36,0,0,0,806,355c0-89.83-73.08-162.91-162.91-162.91S480.16,265.17,480.16,355A162.44,162.44,0,0,0,580.64,505.33H394.58a15.7,15.7,0,0,0-14.7,10.19L216.29,952A15.71,15.71,0,0,0,231,973.16H994.6A15.7,15.7,0,0,0,1009.3,952ZM602.09,878.9,665,941.77H592.67l-99.16-99.16a15.7,15.7,0,0,0-22.2,0l-99.16,99.16H311.22c53.24-55.36,106.37-109.29,118.5-119.11a15.7,15.7,0,0,0,5.42-25.73L342.61,704.4l19.33-51.56,50.64,50.65a15.7,15.7,0,0,0,22.19,0l67.74-67.74a15.72,15.72,0,0,0,4.6-11.1V536.72h30.48V652.61L461,729.19a15.67,15.67,0,0,0,0,22.19L541.66,832a15.69,15.69,0,0,0,22.2,0L683.51,712.39H886l12,32H720.87a15.72,15.72,0,0,0-11.1,4.6L602.09,856.7a15.69,15.69,0,0,0,0,22.2Zm-53.81,62.87H416.54l65.87-65.87ZM874.22,681H677a15.73,15.73,0,0,0-11.1,4.6L552.76,798.75,494.3,740.29l70.08-70.09a15.69,15.69,0,0,0,4.6-11.09V536.72H593.3l32.63,110.89a15.71,15.71,0,0,0,14.86,11.27h.2A15.69,15.69,0,0,0,655.93,648l35.81-111.27h128.4ZM511.55,355c0-72.52,59-131.52,131.53-131.52S774.6,282.48,774.6,355a131.18,131.18,0,0,1-90.76,125,15.72,15.72,0,0,0-10.08,10.12l-32.09,99.74-29.26-99.4A15.71,15.71,0,0,0,602.23,480,131.2,131.2,0,0,1,511.55,355ZM405.46,536.72h70.26v81.43l-52,52.05L374,620.55Zm-74.95,200,70.18,70.19c-19,17.11-56,54.34-133,134.9H253.64ZM709.35,941.77l-74-74,92-92H909.76L972,941.77Z"/><path d="M225,561.07a15.7,15.7,0,0,0,15.7,15.7H321a15.7,15.7,0,0,0,15.69-15.7V438.52h40.28a15.71,15.71,0,0,0,10.81-4.31l47.08-44.71a15.69,15.69,0,0,0,0-22.76L387.73,322a15.71,15.71,0,0,0-10.81-4.31H336.64v-27H424a15.69,15.69,0,0,0,10.8-27.07l-35.1-33.32L434.81,197A15.7,15.7,0,0,0,424,170H336.64V122.54A15.7,15.7,0,0,0,321,106.84H240.68a15.7,15.7,0,0,0-15.7,15.7V170H132.49a15.63,15.63,0,0,0-10.81,4.32L74.6,219a15.69,15.69,0,0,0,0,22.76l47.08,44.7a15.67,15.67,0,0,0,10.81,4.31H225v27H85.4A15.7,15.7,0,0,0,74.6,344.8l35.09,33.32L74.6,411.44a15.7,15.7,0,0,0,10.8,27.08H225Zm80.27-15.69H256.37V438.52h48.88ZM256.37,138.23h48.88V170H256.37ZM108.19,230.36l30.56-29H384.68L366.12,219a15.69,15.69,0,0,0,0,22.76l18.56,17.62H138.75Zm148.18,60.39h48.88v27H256.37Zm-113.08,76-18.57-17.63H370.66l30.55,29-30.55,29H124.73l18.56-17.63a15.69,15.69,0,0,0,0-22.76Z"/></svg>