<svg id="Layer_1" data-name="Layer 1" xmlns="http://www.w3.org/2000/svg" viewBox="0 0 1080 1080"><title>KASSA24_іcons_</title><path d="M642.51,263l32.57-31.53s0-.08.08-.11c.26-.26.4-.61.64-.88a15.61,15.61,0,0,0,2.56-3.79,15.43,15.43,0,0,0,.52-1.71,14.94,14.94,0,0,0,.79-3.9c0-.31.18-.57.18-.89s-.2-.76-.23-1.16a15.88,15.88,0,0,0-.74-3.65,15,15,0,0,0-.78-2.06,11,11,0,0,0-.39-1l-34.93-59.89a15.71,15.71,0,0,0-13.56-7.78H450.78a15.71,15.71,0,0,0-13.56,7.78L402.29,212.3a11,11,0,0,0-.39,1,15,15,0,0,0-.78,2.06,15.88,15.88,0,0,0-.74,3.65c0,.4-.23.75-.23,1.16s.16.58.18.89a14.94,14.94,0,0,0,.79,3.9,15.43,15.43,0,0,0,.52,1.71,15.61,15.61,0,0,0,2.56,3.79c.24.27.38.62.64.88,0,0,.05.07.08.11L437.51,263A342.84,342.84,0,0,0,196,591.33c0,189.71,154.34,344,344.05,344s344-154.33,344-344C884.05,439.2,785.79,307.47,642.51,263ZM540,356.15c139.28,0,252.58,113.3,252.58,252.57S679.28,861.3,540,861.3,287.42,748,287.42,608.72,400.72,356.15,540,356.15ZM454.61,235.91H625.39L540,318.61ZM459.79,176H620.21l16.62,28.5H443.17ZM540,904c-172.4,0-312.66-140.26-312.66-312.65A311.67,311.67,0,0,1,463.48,288.19l40.4,39.13C364.33,345.15,256,464.4,256,608.72c0,156.58,127.39,284,284,284s284-127.39,284-284c0-144.32-108.3-263.57-247.85-281.4l40.37-39.09c139.21,35,236.17,159,236.17,303.1C852.66,763.72,712.4,904,540,904Z"/></svg>