<svg id="Layer_1" data-name="Layer 1" xmlns="http://www.w3.org/2000/svg" viewBox="0 0 1080 1080"><title>KASSA24_іcons_</title><path d="M914.81,514.81l-24.93-2.18a13.2,13.2,0,0,1-12-11.61,335.07,335.07,0,0,0-31.55-105,13.28,13.28,0,0,1,4.17-16.86L874,362.67a44.76,44.76,0,0,0,11-62.26l-9.81-14a44.73,44.73,0,0,0-62.26-11l-36.4,25.5a333.1,333.1,0,0,0-94.66-63.42,13.45,13.45,0,0,1-7.8-15.71l9.84-36.71a44.77,44.77,0,0,0-31.61-54.75l-16.51-4.42a44.7,44.7,0,0,0-54.74,31.61L570,198.88a13.25,13.25,0,0,1-13.27,9.76,337.31,337.31,0,0,0-98,10.82,13.26,13.26,0,0,1-15.45-7.15l-19.15-41.05a44.77,44.77,0,0,0-59.41-21.63l-15.48,7.23a44.76,44.76,0,0,0-21.63,59.41l19.87,42.59a13.32,13.32,0,0,1-4.36,16.4,333.23,333.23,0,0,0-67.88,67.89,13.34,13.34,0,0,1-16.41,4.35l-42.6-19.87a44.78,44.78,0,0,0-59.4,21.63l-7.22,15.49a44.72,44.72,0,0,0,21.62,59.41l41.06,19.14a13.3,13.3,0,0,1,7.15,15.46,338.21,338.21,0,0,0-10.83,97.94A13.16,13.16,0,0,1,198.88,570l-41.34,11.09a44.69,44.69,0,0,0-31.62,54.74l4.43,16.51a44.69,44.69,0,0,0,54.74,31.61l36.71-9.84a13.42,13.42,0,0,1,15.71,7.8,333.59,333.59,0,0,0,63.42,94.66L275.44,813a44.76,44.76,0,0,0,11,62.25l14,9.81a44.71,44.71,0,0,0,62.26-11l16.45-23.49A13.3,13.3,0,0,1,396,846.37a335,335,0,0,0,105,31.55,13.2,13.2,0,0,1,11.61,12l2.18,24.93a44.77,44.77,0,0,0,44.51,40.81c1.29,0,2.6-.06,3.92-.17l17-1.5a44.67,44.67,0,0,0,40.63-48.42L619,884a13.26,13.26,0,0,1,10.07-14A332.44,332.44,0,0,0,677,853.83l22.13-9.49L599.3,744.51l-10,2.41A207.92,207.92,0,0,1,398,691.31c-1.84-1.85-3.54-3.81-5.24-5.75l-2.55-2.9a203.54,203.54,0,0,1-52.47-130,208.64,208.64,0,0,1,8.11-67A209.14,209.14,0,0,1,485.67,345.83a212.46,212.46,0,0,1,135.46,6.1,205.87,205.87,0,0,1,61.53,38.25l2.94,2.59c1.92,1.69,3.85,3.36,5.7,5.21A208.2,208.2,0,0,1,747,589l-2.46,10.27,99.82,99.82,9.23-21.46A336.33,336.33,0,0,0,870,629.08,13.52,13.52,0,0,1,884,619l21.52,1.88A44.69,44.69,0,0,0,954,580.27l1.5-17A44.76,44.76,0,0,0,914.81,514.81Zm7.87,62.72a13.37,13.37,0,0,1-14.41,12.1l-21.52-1.88a44.44,44.44,0,0,0-47.14,33.55c-1.91,7.46-4.1,14.87-6.56,22.14L779,589.33a240,240,0,0,0,2.43-73.7A239,239,0,0,0,713.51,375.8c-2.35-2.35-4.8-4.51-7.26-6.66l-2.66-2.35a239,239,0,0,0-387.86,110,243.61,243.61,0,0,0,7,155.88,236.73,236.73,0,0,0,44.05,70.92l2.31,2.62c2.15,2.46,4.32,4.92,6.68,7.3a239.65,239.65,0,0,0,213.55,65.44l54.1,54.1c-7.27,2.46-14.66,4.65-22.12,6.57a44.52,44.52,0,0,0-33.56,47.12l1.88,21.52a13.32,13.32,0,0,1-12.1,14.42l-17,1.5a13.34,13.34,0,0,1-14.43-12.1l-2.17-24.92a44.39,44.39,0,0,0-38.86-40.36,303.64,303.64,0,0,1-95.22-28.6,45.29,45.29,0,0,0-20-4.67,44.31,44.31,0,0,0-36.43,19L337,856a13.32,13.32,0,0,1-18.54,3.27l-14-9.8A13.32,13.32,0,0,1,301.16,831L342,772.68l-13-12.36a302.55,302.55,0,0,1-62.76-91.19,44.65,44.65,0,0,0-52.51-25.35L177,653.61a13.3,13.3,0,0,1-16.3-9.42l-4.43-16.51a13.33,13.33,0,0,1,9.42-16.3L207,600.3a44.43,44.43,0,0,0,33-44.72,306.7,306.7,0,0,1,9.81-88.87,44.66,44.66,0,0,0-24.24-51.86l-41.05-19.14a13.33,13.33,0,0,1-6.45-17.7l7.22-15.48A13.34,13.34,0,0,1,203,356.08l42.6,19.86a45,45,0,0,0,54.82-14,302.17,302.17,0,0,1,61.51-61.51,45,45,0,0,0,14-54.83L356.09,203a13.32,13.32,0,0,1,6.45-17.69L378,178.08a13.31,13.31,0,0,1,17.69,6.45l19.15,41.05a44.61,44.61,0,0,0,51.86,24.24,304.86,304.86,0,0,1,88.87-9.8,44.69,44.69,0,0,0,44.72-33l11.08-41.35a13.33,13.33,0,0,1,16.3-9.41l16.52,4.42A13.33,13.33,0,0,1,653.62,177l-9.84,36.71a44.69,44.69,0,0,0,25.36,52.51A302.36,302.36,0,0,1,760.37,329l12.39,12.92L831,301.15a13.3,13.3,0,0,1,18.53,3.26l9.81,14A13.32,13.32,0,0,1,856,337l-23.5,16.46a44.49,44.49,0,0,0-14.33,56.41A304.07,304.07,0,0,1,846.8,505a44.39,44.39,0,0,0,40.35,38.86l24.93,2.18a13.33,13.33,0,0,1,12.1,14.42Z"/><path d="M681.09,576.84c14.42-51.86-.13-108.5-38.38-146.77a150.54,150.54,0,0,0-148.65-38l-25.42,7.45,89.81,89.8a7.68,7.68,0,0,1,2.26,5.32l1.2,58.66a7.64,7.64,0,0,1-2.26,5.62,6.73,6.73,0,0,1-5.63,2.27L495.37,560a7.7,7.7,0,0,1-5.32-2.26l-90-90-7.57,25.12a150.27,150.27,0,0,0,49.9,160.87c36.5,29.45,86.31,39.78,132.07,28L713.1,820.38A74.79,74.79,0,0,0,818.87,714.61ZM796.67,798.19a43.47,43.47,0,0,1-61.38,0l-152-152.05-9.18,3c-38.24,12.6-81.14,5-112-19.85a119.13,119.13,0,0,1-44.47-99.6L467.86,580a38.92,38.92,0,0,0,26.86,11.46l58.66,1.2a39.44,39.44,0,0,0,28.47-11.44A38.83,38.83,0,0,0,593.3,552.7L592.1,494a39,39,0,0,0-11.45-26.85L531,417.56A118.85,118.85,0,0,1,648.47,576l-3.28,9.32L796.67,736.8A43.47,43.47,0,0,1,796.67,798.19Z"/></svg>