<svg id="Layer_1" data-name="Layer 1" xmlns="http://www.w3.org/2000/svg" viewBox="0 0 1080 1080"><title>KASSA24_іcons_</title><path d="M776.25,442.85H670.13a15.69,15.69,0,0,0-15.69,15.69V670.8a15.69,15.69,0,0,0,15.69,15.7H776.25a121.83,121.83,0,1,0,0-243.65Zm0,212.26H685.83V474.24h90.42a90.44,90.44,0,1,1,0,180.87Z"/><path d="M371.81,442.85H265.68a121.83,121.83,0,0,0,0,243.65H371.81a15.7,15.7,0,0,0,15.7-15.7V458.54A15.7,15.7,0,0,0,371.81,442.85ZM356.12,655.11H265.68a90.44,90.44,0,0,1,0-180.87h90.44Z"/><path d="M521,187.56A122,122,0,0,0,399.15,309.38V415.51a15.7,15.7,0,0,0,15.69,15.7H627.1a15.69,15.69,0,0,0,15.69-15.7V309.38A122,122,0,0,0,521,187.56ZM611.4,399.82H430.54V309.38a90.43,90.43,0,1,1,180.86,0Z"/><path d="M627.1,698.14H414.84a15.69,15.69,0,0,0-15.69,15.69V820a121.82,121.82,0,1,0,243.64,0V713.83A15.68,15.68,0,0,0,627.1,698.14ZM611.4,820a90.43,90.43,0,1,1-180.86,0V729.53H611.4Z"/><path d="M521,459.48a15.7,15.7,0,0,0-15.7,15.69v77.24H428a15.7,15.7,0,0,0,0,31.39h77.24v77.25a15.7,15.7,0,1,0,31.39,0V583.8h77.25a15.7,15.7,0,1,0,0-31.39H536.66V475.17A15.69,15.69,0,0,0,521,459.48Z"/><path d="M920.1,141.92c-85.35,1.9-167.2,68.25-230.5,186.83-.91,1.72-1.61,3-2.08,3.89a15.7,15.7,0,0,0,17.59,24.21,14.79,14.79,0,0,0,5-2.68l51.39-35-32.4,49.41a15.69,15.69,0,0,0,20.22,22.6C934,297.6,936.14,163.28,936.14,157.61a15.69,15.69,0,0,0-4.72-11.22A15,15,0,0,0,920.1,141.92ZM793,328.33l38.09-58.09a15.69,15.69,0,0,0-22-21.57l-58.34,39.78c45.89-66,98.28-105.32,151.91-113.56C896.91,205.13,875.13,269.51,793,328.33Z"/><path d="M686,291.94c.39,0,.78.05,1.17.05a15.71,15.71,0,0,0,11.67-5.2c19.55-21.73,45-79.35,1.19-141.89a15.67,15.67,0,0,0-11.73-6.65,15.85,15.85,0,0,0-12.57,4.91c-19.33,20.58-44.57,76.7-1.66,141.77A15.67,15.67,0,0,0,686,291.94Zm.68-106.45c9.45,23.77,6.47,44.06,1.21,58.31C678.58,219.37,681.52,199.3,686.65,185.49Z"/><path d="M777.77,387.58a15.71,15.71,0,0,0-1.85,24.77c12.92,11.62,38.51,25.32,70.29,25.32,21.68,0,46.23-6.38,71.59-24.13a15.69,15.69,0,0,0,1.75-24.3C899,369.91,842.86,344.66,777.77,387.58Zm41.14,13.82c24.42-9.3,44.49-6.33,58.31-1.21C853.43,409.65,833.14,406.65,818.91,401.4Z"/></svg>