<svg width="306" height="9" viewBox="0 0 306 9" fill="none" xmlns="http://www.w3.org/2000/svg">
<path d="M306 5.9857C305.841 5.56009 305.701 5.19359 305.557 4.80639C304.969 4.80935 304.544 4.81231 304.128 4.81527C304.072 5.12857 304.026 5.38575 303.932 5.89117C303.097 5.46556 302.527 5.17588 302.014 4.91283C301.538 5.27933 301.062 5.64287 300.586 6.00937C300.506 5.98573 300.422 5.96504 300.343 5.9414C300.53 5.57785 300.712 5.21135 301.09 4.46356C300.17 4.79755 299.703 4.95421 299.265 5.1345C298.784 5.32958 298.322 5.54826 297.855 5.75515C297.785 5.68422 297.715 5.61625 297.645 5.54531C297.771 5.37979 297.897 5.21432 298.238 4.77392C292.459 4.8153 286.97 4.85369 281.916 4.88916C281.15 4.24187 280.693 3.85172 280.184 3.41724C279.712 3.68029 279.297 3.91382 279.082 4.03796C277.948 3.99363 277.01 3.95812 276.268 3.92857C275.395 4.09704 274.695 4.33938 273.981 4.34825C271.712 4.38076 269.439 4.31873 267.166 4.31282C265.528 4.30691 263.89 4.33354 262.251 4.34536C262.251 4.29216 262.251 4.23894 262.256 4.18279C257.826 4.2153 253.397 4.2448 248.963 4.27732C248.706 4.20342 248.361 4.33647 248.039 4.31873C246.498 4.22711 244.963 4.00836 243.422 3.99358C241.331 3.97289 239.236 4.12068 237.14 4.14728C235.749 4.16797 234.358 4.08818 232.967 4.08523C230.997 4.08227 229.028 4.10891 227.058 4.12369C227.063 4.15029 227.067 4.17682 227.077 4.20342C223.856 4.09997 220.635 3.99658 217.42 3.89314C213.041 3.86653 208.645 3.73058 204.238 3.90201C199.86 4.07344 195.435 3.78668 190.969 3.69801C190.941 3.65072 190.857 3.49998 190.721 3.2517C190.418 3.58274 190.208 3.81033 190.241 3.77191C186.707 3.79555 183.515 3.81919 180.317 3.84284C180.308 3.7985 180.299 3.75714 180.289 3.71281C179.188 3.7601 178.091 3.80442 176.989 3.85172C176.957 3.78078 176.924 3.70689 176.891 3.63596C163.86 3.52069 150.823 3.40544 137.791 3.29017C137.782 3.37884 137.768 3.46747 137.759 3.55319C137.413 3.3788 137.068 3.20148 136.783 3.05666C135.714 3.19853 134.716 3.3315 133.712 3.4645C133.721 3.38766 133.731 3.31087 133.74 3.23403C130.711 3.25471 127.677 3.27835 124.648 3.29904C124.662 3.25471 124.676 3.21031 124.69 3.16598C123.037 3.1778 121.385 3.18966 119.737 3.20148C119.728 3.15123 119.714 3.09803 119.705 3.04778C117.436 3.06256 115.168 3.08027 112.895 3.09505C112.848 3.0448 112.797 2.99455 112.75 2.9443C110.248 2.96204 107.742 2.97982 105.24 2.99756C103.732 3.08623 102.253 3.13052 100.769 3.10096C98.5609 3.05367 96.3578 2.95909 94.1547 2.87929C92.381 2.81426 90.6073 2.70492 88.8337 2.68128C86.6726 2.65468 84.5115 2.74337 82.3505 2.70199C81.0296 2.67834 79.6107 2.24679 78.4251 2.45073C75.9793 2.87339 73.7249 2.61922 71.3538 2.32661C70.1822 2.18178 68.88 2.45962 67.6338 2.54533C67.6431 2.59262 67.6478 2.63695 67.6571 2.68424C66.0468 2.69606 64.4319 2.70792 62.7329 2.71974C62.6629 2.62516 62.5228 2.43004 62.4902 2.38275C59.5776 2.40344 56.8564 2.48026 54.1493 2.42706C51.4981 2.37386 48.861 2.12855 46.2098 2.06943C42.3357 1.98076 38.457 1.96897 34.5783 1.95419C33.4254 1.94828 32.2725 2.04286 31.1149 2.0931C31.129 2.06059 31.143 2.02805 31.1523 1.99554C24.8978 1.92165 18.6433 1.8448 12.4682 1.77091C12.4635 1.57879 12.4635 1.4724 12.4635 1.41624C12.4635 1.42806 12.4635 1.44289 12.4635 1.46062C12.4635 1.43993 12.4635 1.42213 12.4635 1.39553C12.4635 1.35415 12.4635 1.36302 12.4635 1.39553C10.1764 0.331489 2.88572 1.67337 3.24045 0.955139C2.15292 1.33938 1.04204 1.73251 0.0198457 2.09606C-0.227533 3.69804 1.8869 7.65273 3.62322 8.81431C4.83212 8.8616 6.17635 8.97095 7.51593 8.95321C11.5533 8.90592 15.5861 8.78475 19.6235 8.73745C23.4742 8.69312 27.3343 8.74042 31.185 8.67836C35.0917 8.61629 38.9938 8.38869 42.8959 8.37095C50.7793 8.33549 58.6628 8.44192 66.5462 8.40054C75.9653 8.35029 85.3797 8.15523 94.7988 8.11385C111.887 8.03996 128.974 8.02809 146.062 7.99854C159.103 7.97489 172.149 7.95422 185.195 7.94831C194.376 7.94536 203.562 7.9926 212.743 7.97783C222.232 7.96305 231.726 7.89805 241.215 7.86259C250.106 7.82712 258.993 7.80936 267.885 7.76798C273.449 7.74138 279.017 7.69114 284.581 7.62316C285.192 7.61725 285.799 7.434 286.41 7.33055C286.396 7.36306 286.382 7.3956 286.368 7.42515C292.324 7.20939 298.28 6.99068 304.25 6.77492C304.128 6.6094 304.016 6.45863 303.9 6.30198C304.614 6.20444 305.221 6.10689 306 5.9857Z" fill="#CEFF55"/>
</svg>
