<svg width="36" height="36" viewBox="0 0 36 36" fill="none" xmlns="http://www.w3.org/2000/svg">
<path d="M32.1429 6.42857H25.7143V3.85714C25.7143 2.83416 25.3079 1.85309 24.5846 1.12973C23.8612 0.406377 22.8801 0 21.8571 0H14.1429C13.1199 0 12.1388 0.406377 11.4154 1.12973C10.6921 1.85309 10.2857 2.83416 10.2857 3.85714V6.42857H3.85714C2.83416 6.42857 1.85309 6.83495 1.12973 7.5583C0.406377 8.28166 0 9.26274 0 10.2857V32.1429C0 33.1658 0.406377 34.1469 1.12973 34.8703C1.85309 35.5936 2.83416 36 3.85714 36H32.1429C33.1658 36 34.1469 35.5936 34.8703 34.8703C35.5936 34.1469 36 33.1658 36 32.1429V10.2857C36 9.26274 35.5936 8.28166 34.8703 7.5583C34.1469 6.83495 33.1658 6.42857 32.1429 6.42857ZM11.5714 9H27V33.4286H9V9H11.5714ZM12.8571 3.85714C12.8571 3.51615 12.9926 3.18912 13.2337 2.94801C13.4748 2.70689 13.8019 2.57143 14.1429 2.57143H21.8571C22.1981 2.57143 22.5252 2.70689 22.7663 2.94801C23.0074 3.18912 23.1429 3.51615 23.1429 3.85714V6.42857H12.8571V3.85714ZM2.57143 32.1429V10.2857C2.57143 9.94472 2.70689 9.6177 2.94801 9.37658C3.18912 9.13546 3.51615 9 3.85714 9H6.42857V33.4286H3.85714C3.51615 33.4286 3.18912 33.2931 2.94801 33.052C2.70689 32.8109 2.57143 32.4838 2.57143 32.1429ZM33.4286 32.1429C33.4286 32.4838 33.2931 32.8109 33.052 33.052C32.8109 33.2931 32.4838 33.4286 32.1429 33.4286H29.5714V9H32.1429C32.4838 9 32.8109 9.13546 33.052 9.37658C33.2931 9.6177 33.4286 9.94472 33.4286 10.2857V32.1429Z" fill="#4CA970"/>
</svg>
