<svg width="36" height="36" viewBox="0 0 36 36" fill="none" xmlns="http://www.w3.org/2000/svg">
<path d="M34.6231 14.4231L33.8385 13.5923L31.0846 6.16921C30.6154 4.91537 29.4154 4.0846 28.0769 4.0769H8.40769C7.06923 4.0769 5.86923 4.91537 5.4 6.16921L2.68462 13.5L1.55385 14.5461C0.569231 15.3846 0 16.6154 0 17.9077V28.7231C0.00769231 30.4923 1.44615 31.9231 3.21538 31.9231H5.24615C7.01538 31.9231 8.45385 30.4923 8.46154 28.7231V27.1538H27.5385V28.7231C27.5462 30.4923 28.9846 31.9231 30.7538 31.9231H32.7846C34.5538 31.9231 35.9923 30.4923 36 28.7231V17.6231C35.9923 16.4154 35.5 15.2615 34.6231 14.4231ZM6.84615 6.69229C7.09231 6.03844 7.71539 5.61537 8.40769 5.61537H28.0846C28.7769 5.61537 29.4 6.04613 29.6462 6.69229L32.0462 13.1538H30.2538C29.8308 10.2692 27.1462 8.2769 24.2615 8.70767C21.9615 9.04613 20.1538 10.8538 19.8154 13.1538H4.44615L6.84615 6.69229ZM28.6846 13.1538H21.3692C21.7923 11.1308 23.7769 9.83844 25.8 10.2615C27.2462 10.5692 28.3769 11.7 28.6846 13.1538ZM6.92308 28.7231C6.91538 29.6461 6.16923 30.3846 5.24615 30.3846H3.21538C2.29231 30.3846 1.54615 29.6461 1.53846 28.7231V26.7077C2 27.0077 2.60769 27.1538 3.21538 27.1538H6.92308V28.7231ZM34.4615 28.7231C34.4538 29.6461 33.7077 30.3846 32.7846 30.3846H30.7538C29.8308 30.3846 29.0846 29.6384 29.0769 28.7231V27.1538H32.7846C33.3923 27.1538 34 27.0077 34.4615 26.7077V28.7231ZM32.7846 25.6154H3.21538C2.3 25.6231 1.54615 24.8923 1.53846 23.9692V17.9077C1.53846 17.0615 1.91538 16.2538 2.56154 15.7077C2.56923 15.7 2.58462 15.6846 2.59231 15.6769L3.63846 14.6923H32.7692L33.5077 15.4846C33.5154 15.5 33.5385 15.5077 33.5462 15.5231C34.1231 16.0692 34.4538 16.8308 34.4538 17.6231V23.9692H34.4615C34.4538 24.8846 33.7 25.6231 32.7846 25.6154Z" fill="#4CA970"/>
<path d="M10.1538 17.7693H4.38462C3.96154 17.7693 3.61539 18.1154 3.61539 18.5385V22.5385C3.61539 22.9616 3.96154 23.3078 4.38462 23.3078H10.1538C10.5769 23.3078 10.9231 22.9616 10.9231 22.5385V18.5385C10.9231 18.1154 10.5769 17.7693 10.1538 17.7693ZM9.38462 21.7693H5.15385V19.3077H9.38462V21.7693Z" fill="#4CA970"/>
<path d="M31.6154 17.7693H25.8462C25.4231 17.7693 25.0769 18.1154 25.0769 18.5385V22.5385C25.0769 22.9616 25.4231 23.3078 25.8462 23.3078H31.6154C32.0385 23.3078 32.3846 22.9616 32.3846 22.5385V18.5385C32.3846 18.1154 32.0385 17.7693 31.6154 17.7693ZM30.8462 21.7693H26.6154V19.3077H30.8462V21.7693Z" fill="#4CA970"/>
<path d="M21.7154 21H14.2846C13.8615 21 13.5154 21.3462 13.5154 21.7692C13.5154 22.1923 13.8615 22.5385 14.2846 22.5385H21.7154C22.1385 22.5385 22.4846 22.1923 22.4846 21.7692C22.4846 21.3462 22.1385 21 21.7154 21Z" fill="#4CA970"/>
<path d="M21.7154 18.6155H14.2846C13.8615 18.6155 13.5154 18.9616 13.5154 19.3847C13.5154 19.8078 13.8615 20.1539 14.2846 20.1539H21.7154C22.1385 20.1539 22.4846 19.8078 22.4846 19.3847C22.4846 18.9616 22.1385 18.6155 21.7154 18.6155Z" fill="#4CA970"/>
</svg>
