<svg width="238" height="348" viewBox="0 0 238 348" fill="none" xmlns="http://www.w3.org/2000/svg">
<g opacity="0.2">
<path d="M56.9167 68.5029V69.9979H58.4117H179.587H181.082V68.5029V55.2973C181.082 54.382 181.446 53.5043 182.093 52.8571C182.74 52.2099 183.618 51.8463 184.533 51.8463H232.756C233.672 51.8463 234.549 52.2099 235.197 52.8571C235.844 53.5043 236.207 54.382 236.207 55.2973V342.162C236.207 343.077 235.844 343.955 235.197 344.602C234.549 345.249 233.672 345.613 232.756 345.613H5.24282C4.32757 345.613 3.44981 345.249 2.80263 344.602C2.15546 343.955 1.79188 343.077 1.79188 342.162V55.2973C1.79188 54.382 2.15546 53.5043 2.80263 52.8571C3.44981 52.2099 4.32757 51.8463 5.24282 51.8463H53.4658C54.381 51.8463 55.2588 52.2099 55.906 52.8571C56.5532 53.5043 56.9167 54.382 56.9167 55.2973V68.5029ZM8.69377 337.216V338.711H10.1888H227.81H229.305V337.216V60.2432V58.7482H227.81H189.479H187.984V60.2432V73.4489C187.984 74.3641 187.621 75.2419 186.974 75.8891C186.326 76.5363 185.449 76.8998 184.533 76.8998H53.4658C52.5505 76.8998 51.6728 76.5363 51.0256 75.8891C50.3784 75.2419 50.0149 74.3641 50.0149 73.4489V60.2432V58.7482H48.5199H10.1888H8.69377V60.2432V337.216Z" fill="white" stroke="#15181E" stroke-width="2.99"/>
<path d="M84.5379 33.6949H85.8942L86.0258 32.3449C86.8246 24.1494 90.6426 16.5437 96.7376 11.0069C102.832 5.4704 110.768 2.39806 119.001 2.38709C127.236 2.39796 135.172 5.47016 141.267 11.0066C147.363 16.5434 151.182 24.1491 151.982 32.3451L152.113 33.6949H153.47H184.535C185.45 33.6949 186.328 34.0585 186.975 34.7057C187.622 35.3529 187.986 36.2306 187.986 37.1459V73.4491C187.986 74.3644 187.622 75.2421 186.975 75.8893C186.328 76.5365 185.45 76.9001 184.535 76.9001H53.4674C52.5522 76.9001 51.6744 76.5365 51.0272 75.8893C50.3801 75.2421 50.0165 74.3644 50.0165 73.4491V37.1459C50.0165 36.2306 50.3801 35.3529 51.0272 34.7057C51.6744 34.0585 52.5522 33.6949 53.4674 33.6949H84.5379ZM56.9184 68.5032V69.9982H58.4134H179.589H181.084V68.5032V42.0918V40.5968H179.589H148.677C147.762 40.5968 146.884 40.2332 146.237 39.5861C145.59 38.9389 145.226 38.0611 145.226 37.1459V35.5137L145.226 35.511C145.213 28.5603 142.447 21.8979 137.532 16.983C132.617 12.0681 125.955 9.30146 119.004 9.28898L118.999 9.28898C112.047 9.29731 105.382 12.0628 100.466 16.9787C95.5503 21.8947 92.7848 28.5597 92.7765 35.5119V35.5137V37.1459C92.7765 38.0611 92.4129 38.9389 91.7657 39.5861C91.1186 40.2332 90.2408 40.5968 89.3255 40.5968H58.4134H56.9184V42.0918V68.5032Z" fill="white" stroke="#15181E" stroke-width="2.99"/>
<path d="M121.472 34.8446H116.526C115.611 34.8446 114.733 34.4811 114.086 33.8339C113.439 33.1867 113.075 32.3089 113.075 31.3937C113.075 30.4784 113.439 29.6007 114.086 28.9535C114.733 28.3063 115.611 27.9428 116.526 27.9428H121.472C122.387 27.9428 123.265 28.3063 123.912 28.9535C124.559 29.6007 124.923 30.4784 124.923 31.3937C124.923 32.3089 124.559 33.1867 123.912 33.8339C123.265 34.4811 122.387 34.8446 121.472 34.8446Z" fill="white" stroke="#15181E" stroke-width="2.99"/>
<path d="M193.188 137.067H44.8092C43.894 137.067 43.0162 136.704 42.369 136.057C41.7219 135.409 41.3583 134.532 41.3583 133.616C41.3583 132.701 41.7219 131.823 42.369 131.176C43.0162 130.529 43.894 130.165 44.8092 130.165H193.188C194.103 130.165 194.981 130.529 195.628 131.176C196.275 131.823 196.639 132.701 196.639 133.616C196.639 134.532 196.275 135.409 195.628 136.057C194.981 136.704 194.103 137.067 193.188 137.067Z" fill="white" stroke="#15181E" stroke-width="2.99"/>
<path d="M193.188 186.527H44.8092C43.894 186.527 43.0162 186.163 42.369 185.516C41.7219 184.869 41.3583 183.991 41.3583 183.076C41.3583 182.161 41.7219 181.283 42.369 180.636C43.0162 179.989 43.894 179.625 44.8092 179.625H193.188C194.103 179.625 194.981 179.989 195.628 180.636C196.275 181.283 196.639 182.161 196.639 183.076C196.639 183.991 196.275 184.869 195.628 185.516C194.981 186.163 194.103 186.527 193.188 186.527Z" fill="white" stroke="#15181E" stroke-width="2.99"/>
<path d="M193.188 235.986H44.8092C43.894 235.986 43.0162 235.623 42.369 234.975C41.7219 234.328 41.3583 233.451 41.3583 232.535C41.3583 231.62 41.7219 230.742 42.369 230.095C43.0162 229.448 43.894 229.084 44.8092 229.084H193.188C194.103 229.084 194.981 229.448 195.628 230.095C196.275 230.742 196.639 231.62 196.639 232.535C196.639 233.451 196.275 234.328 195.628 234.975C194.981 235.623 194.103 235.986 193.188 235.986Z" fill="white" stroke="#15181E" stroke-width="2.99"/>
<path d="M193.188 285.446H44.8092C43.894 285.446 43.0162 285.082 42.369 284.435C41.7219 283.788 41.3583 282.91 41.3583 281.995C41.3583 281.08 41.7219 280.202 42.369 279.555C43.0162 278.907 43.894 278.544 44.8092 278.544H193.188C194.103 278.544 194.981 278.907 195.628 279.555C196.275 280.202 196.639 281.08 196.639 281.995C196.639 282.91 196.275 283.788 195.628 284.435C194.981 285.082 194.103 285.446 193.188 285.446Z" fill="white" stroke="#15181E" stroke-width="2.99"/>
</g>
</svg>
