<svg width="333" height="333" viewBox="0 0 333 333" fill="none" xmlns="http://www.w3.org/2000/svg">
<g opacity="0.2" clip-path="url(#clip0_1167_166)">
<path d="M246.818 291.572C231.868 291.572 219.702 279.406 219.702 264.456C219.702 249.506 231.868 237.34 246.818 237.34C261.767 237.34 273.933 249.506 273.933 264.456C273.933 279.406 261.767 291.572 246.818 291.572ZM246.818 245.859C236.562 245.859 228.22 254.2 228.22 264.457C228.22 274.714 236.561 283.054 246.818 283.054C257.074 283.054 265.415 274.714 265.415 264.457C265.415 254.2 257.074 245.859 246.818 245.859Z" fill="white" stroke="#4CA970" stroke-width="4.48943"/>
<path d="M89.111 132.971L87.1575 133.227C77.9151 134.436 69.2788 138.64 62.3625 145.439M89.111 132.971L62.3625 145.439M89.111 132.971V131.001V6.50391C89.111 4.15217 91.0184 2.24472 93.3702 2.24472H308.863C311.215 2.24472 313.122 4.15217 313.122 6.50391V326.496C313.122 328.848 311.215 330.755 308.863 330.755H43.7258C41.3741 330.755 39.4666 328.848 39.4666 326.496V306.878V304.634H37.2219H24.1348C21.783 304.634 19.8756 302.726 19.8756 300.374V267.722C19.8756 265.371 21.783 263.463 24.1348 263.463H67.1093H69.2121L69.3493 261.365C70.7953 239.251 65.7527 217.18 54.7335 197.412C51.1519 190.986 49.2585 183.676 49.2622 176.276C49.2671 164.7 53.9062 153.753 62.3625 145.439M89.111 132.971L60.7888 143.838L62.3625 145.439M123.365 193.027L123.365 193.027L93.2988 141.377C93.2986 141.377 93.2984 141.377 93.2982 141.377C83.9787 141.219 75.1225 144.84 68.335 151.514C61.5507 158.183 57.7854 166.981 57.7812 176.28C57.7784 182.228 59.2952 188.1 62.1744 193.265C73.8675 214.242 79.2758 237.627 77.9023 261.086L77.7632 263.462H80.1432H105.266H107.644L107.507 261.088C106.174 237.957 111.619 214.49 123.365 193.027ZM30.6387 271.981H28.394V274.226V293.871V296.115H30.6387H154.77H157.014V293.871V274.226V271.981H154.77H30.6387ZM47.985 319.992V322.237H50.2297H135.179H137.423V319.992V306.878V304.634H135.179H50.2297H47.985V306.878V319.992ZM302.359 322.237H304.604V319.992V13.0078V10.7631H302.359H99.8747H97.63V13.0078V131.173V133.093L99.5266 133.39C108.654 134.823 117.063 139.115 123.664 145.82L125.214 144.294L123.664 145.82C131.716 153.999 136.147 164.816 136.147 176.296C136.147 183.572 134.31 190.774 130.839 197.117C119.756 217.367 114.649 239.536 116.06 261.363L116.196 263.463H118.3H161.274C163.626 263.463 165.533 265.371 165.533 267.722V300.374C165.533 302.726 163.626 304.634 161.274 304.634H148.187H145.942V306.878V319.992V322.237H148.187H302.359Z" fill="white" stroke="#4CA970" stroke-width="4.48943"/>
<path d="M269.686 49.9462H132.547C130.195 49.9462 128.288 48.0388 128.288 45.687C128.288 43.3353 130.195 41.4278 132.547 41.4278H269.686C272.037 41.4278 273.945 43.3353 273.945 45.687C273.945 48.039 272.038 49.9462 269.686 49.9462Z" fill="white" stroke="#4CA970" stroke-width="4.48943"/>
<path d="M269.686 89.1286H132.547C130.195 89.1286 128.288 87.2211 128.288 84.8694C128.288 82.5177 130.195 80.6102 132.547 80.6102H269.686C272.037 80.6102 273.945 82.5177 273.945 84.8694C273.945 87.2214 272.038 89.1286 269.686 89.1286Z" fill="white" stroke="#4CA970" stroke-width="4.48943"/>
<path d="M269.686 128.311H132.547C130.195 128.311 128.288 126.404 128.288 124.052C128.288 121.701 130.195 119.793 132.547 119.793H269.686C272.037 119.793 273.945 121.701 273.945 124.052C273.945 126.404 272.038 128.311 269.686 128.311Z" fill="white" stroke="#4CA970" stroke-width="4.48943"/>
<path d="M269.691 167.494H171.734C169.383 167.494 167.475 165.586 167.475 163.235C167.475 160.883 169.383 158.975 171.734 158.975H269.69C272.042 158.975 273.95 160.883 273.95 163.235C273.95 165.587 272.042 167.494 269.691 167.494Z" fill="white" stroke="#4CA970" stroke-width="4.48943"/>
<path d="M269.691 206.677H171.734C169.383 206.677 167.475 204.77 167.475 202.418C167.475 200.066 169.383 198.159 171.734 198.159H269.69C272.042 198.159 273.95 200.066 273.95 202.418C273.95 204.77 272.042 206.677 269.691 206.677Z" fill="white" stroke="#4CA970" stroke-width="4.48943"/>
</g>
<defs>
<clipPath id="clip0_1167_166">
<rect width="333" height="333" fill="white"/>
</clipPath>
</defs>
</svg>
