<svg width="356" height="356" viewBox="0 0 356 356" fill="none" xmlns="http://www.w3.org/2000/svg">
<g opacity="0.2">
<path d="M292.074 101.354H131.705C129.745 101.354 128.155 99.7647 128.155 97.8043C128.155 95.8439 129.745 94.2546 131.705 94.2546H292.074C294.034 94.2546 295.623 95.8439 295.623 97.8043C295.623 99.7647 294.034 101.354 292.074 101.354Z" fill="white" stroke="#4CA970" stroke-width="3.33"/>
<path d="M292.074 131.113C294.034 131.113 295.623 132.702 295.623 134.662C295.623 136.623 294.034 138.212 292.074 138.212H131.705C129.745 138.212 128.155 136.623 128.155 134.662C128.155 132.702 129.745 131.113 131.705 131.113H292.074Z" fill="white" stroke="#4CA970" stroke-width="3.33"/>
<path d="M292.074 169.476C294.034 169.476 295.624 171.065 295.624 173.025C295.624 174.986 294.034 176.575 292.074 176.575H192.916C190.955 176.575 189.366 174.986 189.366 173.025C189.366 171.065 190.955 169.476 192.916 169.476H292.074Z" fill="white" stroke="#4CA970" stroke-width="3.33"/>
<path d="M244.504 203.262H296.293C298.253 203.262 299.843 204.852 299.843 206.812C299.843 208.773 298.253 210.362 296.293 210.362H244.504C242.543 210.362 240.954 208.773 240.954 206.812C240.954 204.852 242.543 203.262 244.504 203.262Z" fill="white" stroke="#4CA970" stroke-width="3.33"/>
<path d="M335.837 52.2493L335.839 52.2512C337.522 53.7919 338.295 55.2668 338.669 56.6175C339.057 58.0145 339.046 59.3582 339.025 60.7768C339.02 61.1047 339.015 61.4641 339.015 61.8498V308.533C339.015 315.557 333.294 321.276 326.264 321.276H138.706H138.096L137.631 321.671L104.751 349.504C104.674 349.568 104.596 349.629 104.514 349.687L104.514 349.687C99.5184 353.244 94.5965 354.706 89.8423 354.242L89.6797 354.226L89.5172 354.242C88.9139 354.302 88.3136 354.331 87.7159 354.331C83.5155 354.332 79.2946 352.856 74.8438 349.687C74.7606 349.628 74.6824 349.567 74.6095 349.505L74.6091 349.505L34.3127 315.394L34.2615 315.351L34.207 315.312C28.466 311.197 24.2082 307.359 21.3592 302.644C18.5287 297.96 17.0039 292.266 17.0039 284.302V215.063C17.0039 214.392 16.9917 213.776 16.9808 213.223L16.9798 213.17C16.9394 211.117 16.9233 208.999 17.7427 207.191C18.4872 205.548 20.0389 203.934 23.7458 203.209C30.6851 201.877 36.142 196.109 37.4513 188.932C37.6748 187.714 38.1792 186.208 39.2631 185.025C40.2966 183.897 41.9966 182.906 44.9615 182.906H74.7413H76.4063V181.241V14.4124C76.4063 7.38739 82.127 1.66842 89.1567 1.66842H277.851C279.229 1.66842 280.104 1.85133 280.797 2.15105C281.5 2.45547 282.144 2.93443 283.005 3.73952L283.007 3.74144L283.18 3.90307L283.189 3.91121L335.837 52.2493ZM331.524 57.9812C331.415 57.8493 331.26 57.6846 331.041 57.4844L331.04 57.483L278.459 9.20637L277.982 8.76783H277.333H276.918H275.253V10.4328V59.1389V60.7339L276.846 60.8024C277.482 60.8297 278.243 60.8297 278.835 60.8297H278.855H330.251H332.043L331.911 59.0432L331.911 59.0426L331.911 59.031L331.91 59.012C331.909 58.9984 331.908 58.9765 331.906 58.9523C331.904 58.9296 331.901 58.8912 331.896 58.8462L331.838 58.3589L331.524 57.9812ZM100.216 344.032L100.278 343.988L100.336 343.939L134.434 315.075L134.445 315.066L134.455 315.057C134.515 315.005 134.549 314.975 134.578 314.952L134.598 314.937L134.616 314.921L140.621 309.838L140.622 309.837C140.695 309.775 140.772 309.715 140.851 309.659C145.713 306.187 149.376 303.086 151.779 299.177C154.212 295.221 155.255 290.61 155.255 284.302V215.063C155.255 214.334 155.267 213.662 155.28 213.031L155.28 213.03L155.281 212.99C155.288 212.602 155.297 212.159 155.298 211.755L155.301 210.393L153.966 210.12C144.748 208.235 137.295 200.789 135.146 191.303L134.852 190.006H133.522H45.8347H44.507L44.2115 191.3C42.0467 200.784 34.5972 208.23 25.3903 210.12L24.0566 210.394L24.0601 211.756C24.0612 212.16 24.0698 212.604 24.0774 212.991L24.0781 213.029L24.0781 213.03C24.0907 213.662 24.1036 214.334 24.1036 215.063V284.302C24.1036 290.61 25.1462 295.221 27.5786 299.177C29.9823 303.086 33.6452 306.187 38.5069 309.659C38.5862 309.715 38.6627 309.775 38.7362 309.837L38.7375 309.838L79.022 343.939L79.0802 343.988L79.1427 344.032C82.6123 346.462 85.8556 347.579 89.2103 347.132L88.9901 345.481L89.2105 347.132C89.3659 347.111 89.5224 347.1 89.6789 347.1C89.8367 347.1 89.9938 347.111 90.1495 347.132C93.4965 347.581 96.7446 346.463 100.216 344.032ZM150.398 311.245L146.959 314.177H151.478H326.264C329.379 314.177 331.915 311.649 331.915 308.533V69.5941V67.9291H330.25H278.855C276.281 67.9291 274.09 67.9011 272.136 66.9324L271.515 68.1851L272.136 66.9324C271.222 66.4793 270.246 65.7624 269.494 64.6174C268.748 63.4804 268.153 61.8187 268.153 59.3606V10.4328V8.76776H266.488H89.1567C86.0421 8.76776 83.5059 11.2957 83.5059 14.4124V181.241V182.906H85.1709H134.397C137.362 182.906 139.062 183.897 140.095 185.024C141.178 186.207 141.682 187.711 141.905 188.925C143.2 196.111 148.658 201.874 155.595 203.205C159.312 203.933 160.867 205.549 161.614 207.192C162.435 209 162.419 211.118 162.378 213.17L162.377 213.223C162.366 213.776 162.354 214.392 162.354 215.063V284.302C162.354 290.945 161.292 296 159.308 300.201C157.324 304.401 154.365 307.863 150.398 311.245Z" fill="white" stroke="#4CA970" stroke-width="3.33"/>
<path d="M75.2692 278.109L76.4261 278.891L77.3977 277.888L116.922 237.085C116.922 237.085 116.922 237.085 116.922 237.085C118.287 235.677 120.534 235.641 121.942 237.005C123.35 238.369 123.386 240.617 122.022 242.025L79.4542 285.969C78.7647 286.68 77.8394 287.049 76.9022 287.049C76.2132 287.049 75.5219 286.849 74.9162 286.44L74.916 286.44L57.9011 274.937C57.901 274.937 57.901 274.937 57.901 274.937C56.2767 273.838 55.8504 271.632 56.9484 270.008C58.0465 268.383 60.2536 267.957 61.8772 269.055L61.8774 269.055L75.2692 278.109Z" fill="white" stroke="#4CA970" stroke-width="3.33"/>
</g>
</svg>
