<svg width="36" height="36" viewBox="0 0 36 36" fill="none" xmlns="http://www.w3.org/2000/svg">
<path d="M17.8504 16.741C18.9498 16.741 20.0246 16.415 20.9387 15.8042C21.8528 15.1933 22.5653 14.3251 22.986 13.3093C23.4067 12.2936 23.5167 11.1759 23.3021 10.0976C23.0875 9.01926 22.558 8.02881 21.7805 7.25147C21.003 6.47412 20.0125 5.94481 18.9341 5.73045C17.8558 5.5161 16.7381 5.62634 15.7224 6.04723C14.7067 6.46812 13.8387 7.18076 13.228 8.09502C12.6173 9.00928 12.2915 10.0841 12.2917 11.1835C12.2935 12.6571 12.8798 14.0698 13.9219 15.1117C14.964 16.1536 16.3768 16.7395 17.8504 16.741V16.741ZM17.8504 7.87491C18.5048 7.87491 19.1444 8.06895 19.6885 8.43251C20.2326 8.79607 20.6567 9.3128 20.9071 9.91738C21.1576 10.5219 21.2231 11.1872 21.0954 11.829C20.9678 12.4708 20.6526 13.0604 20.1899 13.5231C19.7272 13.9858 19.1377 14.3009 18.4959 14.4286C17.854 14.5562 17.1888 14.4907 16.5842 14.2403C15.9796 13.9899 15.4629 13.5658 15.0994 13.0217C14.7358 12.4776 14.5417 11.8379 14.5417 11.1835C14.5429 10.3064 14.8919 9.46552 15.5121 8.8453C16.1324 8.22507 16.9732 7.8761 17.8504 7.87491V7.87491Z" fill="#4CA970"/>
<path d="M7.34958 20.0081C8.1951 20.0081 9.02162 19.7574 9.72464 19.2877C10.4277 18.8179 10.9756 18.1503 11.2992 17.3691C11.6227 16.5879 11.7074 15.7284 11.5424 14.8991C11.3775 14.0699 10.9703 13.3081 10.3725 12.7103C9.77459 12.1124 9.01286 11.7052 8.18359 11.5403C7.35432 11.3753 6.49476 11.46 5.71361 11.7835C4.93246 12.1071 4.26479 12.655 3.79505 13.3581C3.32531 14.0611 3.07458 14.8876 3.07458 15.7331C3.07458 16.8669 3.52499 17.9543 4.3267 18.756C5.12842 19.5577 6.21578 20.0081 7.34958 20.0081ZM7.34958 13.7081C7.75009 13.7081 8.1416 13.8269 8.47461 14.0494C8.80762 14.2719 9.06717 14.5882 9.22044 14.9582C9.3737 15.3282 9.41381 15.7354 9.33567 16.1282C9.25754 16.521 9.06467 16.8818 8.78147 17.165C8.49827 17.4482 8.13745 17.6411 7.74464 17.7192C7.35183 17.7974 6.94467 17.7573 6.57465 17.604C6.20463 17.4507 5.88837 17.1912 5.66586 16.8582C5.44335 16.5251 5.32458 16.1336 5.32458 15.7331C5.32458 15.1961 5.53793 14.681 5.91769 14.3012C6.29745 13.9215 6.81252 13.7081 7.34958 13.7081V13.7081Z" fill="#4CA970"/>
<path d="M28.35 20.0081C29.1955 20.0081 30.022 19.7574 30.725 19.2877C31.428 18.8179 31.976 18.1503 32.2995 17.3691C32.6231 16.5879 32.7078 15.7284 32.5428 14.8991C32.3779 14.0699 31.9707 13.3081 31.3728 12.7103C30.775 12.1124 30.0132 11.7052 29.184 11.5403C28.3547 11.3753 27.4951 11.46 26.714 11.7835C25.9328 12.1071 25.2652 12.655 24.7954 13.3581C24.3257 14.0611 24.075 14.8876 24.075 15.7331C24.075 16.8669 24.5254 17.9543 25.3271 18.756C26.1288 19.5577 27.2162 20.0081 28.35 20.0081ZM28.35 13.7081C28.7505 13.7081 29.142 13.8269 29.475 14.0494C29.808 14.2719 30.0675 14.5882 30.2208 14.9582C30.3741 15.3282 30.4142 15.7354 30.336 16.1282C30.2579 16.521 30.065 16.8818 29.7818 17.165C29.4986 17.4482 29.1378 17.6411 28.745 17.7192C28.3522 17.7974 27.945 17.7573 27.575 17.604C27.205 17.4507 26.8887 17.1912 26.6662 16.8582C26.4437 16.5251 26.325 16.1336 26.325 15.7331C26.325 15.1961 26.5383 14.681 26.9181 14.3012C27.2978 13.9215 27.8129 13.7081 28.35 13.7081V13.7081Z" fill="#4CA970"/>
<path d="M28.4996 22.2649C27.5134 22.2714 26.5444 22.5239 25.6804 22.9995C24.859 21.6991 23.7268 20.6236 22.386 19.87C21.0452 19.1164 19.5379 18.7085 18 18.6829C16.4621 18.7085 14.9548 19.1164 13.614 19.87C12.2732 20.6236 11.141 21.6991 10.3196 22.9995C9.45563 22.5239 8.48661 22.2714 7.50038 22.2649C5.73064 22.3512 4.06693 23.1342 2.87247 24.4429C1.67801 25.7516 1.04981 27.4797 1.12501 29.25C1.12501 29.5484 1.24354 29.8345 1.45451 30.0455C1.66549 30.2565 1.95164 30.375 2.25001 30.375C2.54838 30.375 2.83453 30.2565 3.0455 30.0455C3.25648 29.8345 3.37501 29.5484 3.37501 29.25C3.30127 28.0767 3.693 26.9216 4.46526 26.0352C5.23751 25.1488 6.32804 24.6025 7.50038 24.5149C8.12208 24.5196 8.73243 24.6818 9.27451 24.9862C8.74431 26.3224 8.47287 27.7472 8.47463 29.1847C8.47463 29.4831 8.59316 29.7693 8.80414 29.9802C9.01512 30.1912 9.30126 30.3097 9.59963 30.3097C9.898 30.3097 10.1841 30.1912 10.3951 29.9802C10.6061 29.7693 10.7246 29.4831 10.7246 29.1847C10.7246 24.6341 13.9871 20.9329 18 20.9329C22.0129 20.9329 25.2754 24.6341 25.2754 29.1847C25.2754 29.4831 25.3939 29.7693 25.6049 29.9802C25.8159 30.1912 26.102 30.3097 26.4004 30.3097C26.6987 30.3097 26.9849 30.1912 27.1959 29.9802C27.4069 29.7693 27.5254 29.4831 27.5254 29.1847C27.5271 27.7472 27.2557 26.3224 26.7255 24.9862C27.2676 24.6818 27.8779 24.5196 28.4996 24.5149C29.672 24.6025 30.7625 25.1488 31.5348 26.0352C32.307 26.9216 32.6987 28.0767 32.625 29.25C32.625 29.5484 32.7435 29.8345 32.9545 30.0455C33.1655 30.2565 33.4516 30.375 33.75 30.375C34.0484 30.375 34.3345 30.2565 34.5455 30.0455C34.7565 29.8345 34.875 29.5484 34.875 29.25C34.9502 27.4797 34.322 25.7516 33.1275 24.4429C31.9331 23.1342 30.2694 22.3512 28.4996 22.2649V22.2649Z" fill="#4CA970"/>
</svg>
