<svg width="116" height="40" viewBox="0 0 116 40" fill="none" xmlns="http://www.w3.org/2000/svg">
<path d="M13.4204 29.1746C13.2388 29.2524 13.009 29.0597 12.9793 29.0337C11.986 28.1553 11.4523 26.7802 11.1965 25.3755C11.1113 24.9159 11.0631 24.4451 11.0594 23.9781C11.0483 21.0574 11.026 13.0293 11.0594 10.1086C11.089 7.55484 9.99564 5.53482 8.32774 3.70754C6.04827 1.20569 2.72729 -0.0470892 2.72729 0.00109463C2.72729 6.13527 2.72729 15.8425 2.72729 21.9729C2.72729 23.8966 3.46488 25.5422 4.65465 27.0026C5.59979 28.1627 6.76362 29.0337 8.16836 29.5637C9.38037 30.0196 10.6146 30.1605 11.8785 29.8158C11.9082 29.8084 13.009 29.4859 13.4167 29.1857L13.4204 29.1746Z" fill="#FFCD00"/>
<path d="M11.9897 31.1133C12.1714 31.1578 12.3975 31.0466 12.4308 31.0317C13.4204 30.5388 13.9542 29.7678 14.2099 28.9821C14.2952 28.7263 14.3433 28.4595 14.347 28.2C14.3582 26.5655 14.3804 25.1125 14.347 23.478C14.3174 22.0473 14.7511 19.5714 16.5598 18.6188C18.2351 17.7367 21.0817 16.8509 22.6347 15.8279C22.6347 17.077 22.6532 16.5506 22.6532 16.5766C22.6532 20.0125 22.6532 23.6411 22.6532 27.077C22.6532 28.1555 21.9156 29.0784 20.7296 29.8939C19.7881 30.5425 18.6243 31.0317 17.227 31.3283C16.0187 31.584 14.7881 31.6618 13.5279 31.4691C13.4983 31.4654 12.4012 31.2838 11.9935 31.1133H11.9897Z" fill="#0075C9"/>
<path d="M14.5434 32.6479C11.2335 32.8703 7.36026 33.1186 5.52927 33.2372C5.06967 33.2668 4.60266 33.2557 4.14677 33.215C2.74943 33.0926 1.77093 32.5812 0.840612 31.8102C0.81096 31.788 0.607105 31.6101 0.673822 31.4507C0.403251 31.8102 0.154919 32.7516 0.151212 32.7739C-0.104533 33.8525 -0.0378169 35.1534 0.366186 35.9651C1.94143 39.123 4.74721 40.1497 7.01926 39.9829C9.19866 39.8198 18.6205 39.1786 18.6242 39.1712C21.252 39.023 24.5063 37.9184 26.189 36.3988C28.487 34.3195 29.5804 31.5211 29.5359 31.5248C25.6924 31.8065 19.8436 32.2587 14.5471 32.6516L14.5434 32.6479Z" fill="#0075C9"/>
<path d="M50.9374 31.2639C45.3429 31.2639 41.9651 27.9917 41.9651 22.925V10.9444H46.504V22.7667C46.504 25.6167 48.0874 27.2528 50.9374 27.2528C53.7874 27.2528 55.3707 25.6167 55.3707 22.7667V10.9444H59.9096V22.925C59.9096 27.9917 56.5318 31.2639 50.9374 31.2639ZM87.4596 10.9444H91.9985L86.1929 31H81.4429L77.4846 17.1722L73.579 31H68.829L63.0762 10.9444H67.7207L71.4151 24.9833L75.3207 10.9444H79.7012L83.6068 24.8778L87.4596 10.9444ZM108.201 10.9444H112.74V31H108.201V22.7667H99.9679V31H95.429V10.9444H99.9679V18.65H108.201V10.9444Z" fill="#111111"/>
</svg>
