<svg width="314" height="236" viewBox="0 0 314 236" fill="none" xmlns="http://www.w3.org/2000/svg">
<path d="M225.805 142.308L138.631 193.52C136.59 194.739 134.078 194.739 131.998 193.599L69.7078 158.435C68.9621 158.002 68.4911 157.215 68.4911 156.35V155.642L161.749 102.109L225.805 138.178C227.1 138.925 227.14 141.521 225.805 142.308Z" fill="#EBFFFF"/>
<path d="M225.648 141.521L138.788 192.222C136.747 193.402 134.235 193.402 132.194 192.261L68.491 155.681L161.631 101.323L225.648 138.099C226.983 138.847 226.983 140.774 225.648 141.521Z" fill="#D3E6FF"/>
<path d="M206.612 132.475L124.383 180.147L80.5016 155.091L162.73 107.419L206.612 132.475Z" fill="#EBFFFF"/>
<path d="M92.5511 150.057L98.7134 153.636L92.0801 157.491L85.9179 153.911L92.5511 150.057Z" fill="#18106F"/>
<path d="M100.715 152.495L94.5136 148.916L101.147 145.022L107.348 148.601L100.715 152.495Z" fill="#18106F"/>
<path d="M109.35 147.461L103.149 143.881L109.782 139.987L115.983 143.606L109.35 147.461Z" fill="#18106F"/>
<path d="M117.985 142.465L111.784 138.847L118.417 134.992L124.618 138.571L117.985 142.465Z" fill="#18106F"/>
<path d="M126.62 137.431L120.419 133.851L127.052 129.957L133.253 133.537L126.62 137.431Z" fill="#18106F"/>
<path d="M135.255 132.396L129.054 128.817L135.687 124.962L141.888 128.541L135.255 132.396Z" fill="#18106F"/>
<path d="M143.89 127.401L137.689 123.821L144.322 119.927L150.523 123.507L143.89 127.401Z" fill="#18106F"/>
<path d="M152.525 122.366L146.324 118.787L152.957 114.893L159.158 118.511L152.525 122.366Z" fill="#18106F"/>
<path d="M154.959 113.752L161.592 109.897L167.793 113.477L161.16 117.331L154.959 113.752Z" fill="#18106F"/>
<path d="M105.936 157.884L99.3023 161.778L93.1008 158.199L99.734 154.305L105.936 157.884Z" fill="#18106F"/>
<path d="M101.736 153.164L108.369 149.309L114.571 152.889L107.937 156.743L101.736 153.164Z" fill="#18106F"/>
<path d="M110.371 148.129L117.004 144.275L123.206 147.854L116.572 151.748L110.371 148.129Z" fill="#18106F"/>
<path d="M131.841 142.819L125.207 146.713L119.006 143.134L125.639 139.24L131.841 142.819Z" fill="#18106F"/>
<path d="M140.476 137.824L133.842 141.679L127.641 138.099L134.274 134.245L140.476 137.824Z" fill="#18106F"/>
<path d="M149.071 132.789L142.438 136.683L136.276 133.104L142.909 129.21L149.071 132.789Z" fill="#18106F"/>
<path d="M157.706 127.794L151.073 131.649L144.911 128.069L151.544 124.175L157.706 127.794Z" fill="#18106F"/>
<path d="M166.341 122.759L159.708 126.653L153.507 123.035L160.14 119.18L166.341 122.759Z" fill="#18106F"/>
<path d="M162.142 118.039L168.775 114.145L174.976 117.725L168.343 121.619L162.142 118.039Z" fill="#18106F"/>
<path d="M113.118 162.171L106.485 166.026L100.323 162.447L106.956 158.592L113.118 162.171Z" fill="#18106F"/>
<path d="M108.958 157.412L115.552 153.557L121.753 157.137L115.12 161.031L108.958 157.412Z" fill="#18106F"/>
<path d="M117.553 152.417L124.187 148.523L130.388 152.141L123.755 155.996L117.553 152.417Z" fill="#18106F"/>
<path d="M126.188 147.382L132.822 143.527L139.023 147.107L132.39 150.961L126.188 147.382Z" fill="#18106F"/>
<path d="M134.823 142.387L141.457 138.493L147.658 142.072L141.025 145.966L134.823 142.387Z" fill="#18106F"/>
<path d="M143.458 137.352L150.092 133.497L156.293 137.077L149.66 140.931L143.458 137.352Z" fill="#18106F"/>
<path d="M164.928 132.042L158.295 135.936L152.093 132.317L158.727 128.463L164.928 132.042Z" fill="#18106F"/>
<path d="M173.563 127.007L166.93 130.901L160.728 127.322L167.362 123.428L173.563 127.007Z" fill="#18106F"/>
<path d="M169.363 122.287L175.997 118.433L182.198 122.012L175.565 125.867L169.363 122.287Z" fill="#18106F"/>
<path d="M120.34 166.419L113.707 170.313L107.506 166.734L114.139 162.84L120.34 166.419Z" fill="#18106F"/>
<path d="M116.141 161.699L122.774 157.805L128.975 161.424L122.342 165.279L116.141 161.699Z" fill="#18106F"/>
<path d="M124.776 156.665L131.409 152.81L137.61 156.389L130.977 160.244L124.776 156.665Z" fill="#18106F"/>
<path d="M133.411 151.669L140.044 147.775L146.245 151.355L139.612 155.249L133.411 151.669Z" fill="#18106F"/>
<path d="M142.046 146.635L148.679 142.78L154.88 146.359L148.247 150.214L142.046 146.635Z" fill="#18106F"/>
<path d="M150.681 141.6L157.314 137.745L163.515 141.325L156.882 145.219L150.681 141.6Z" fill="#18106F"/>
<path d="M159.316 136.605L165.949 132.711L172.111 136.329L165.478 140.184L159.316 136.605Z" fill="#18106F"/>
<path d="M180.746 131.295L174.113 135.149L167.95 131.57L174.584 127.715L180.746 131.295Z" fill="#18106F"/>
<path d="M176.546 126.575L183.179 122.681L189.381 126.26L182.748 130.154L176.546 126.575Z" fill="#18106F"/>
<path d="M127.523 170.707L120.89 174.561L114.727 170.982L121.361 167.088L127.523 170.707Z" fill="#18106F"/>
<path d="M129.996 162.093L136.158 165.672L129.525 169.566L123.362 165.947L129.996 162.093Z" fill="#18106F"/>
<path d="M138.591 157.058L144.793 160.637L138.16 164.531L131.958 160.952L138.591 157.058Z" fill="#18106F"/>
<path d="M149.228 150.922L155.862 147.028H155.901L157.903 145.887H157.863L164.497 141.993L164.536 142.033L166.538 140.892L166.498 140.853L173.132 136.998H173.171L179.372 140.617L146.795 159.497L140.593 155.917L149.228 150.922Z" fill="#18106F"/>
<path d="M181.767 131.963L187.968 135.543L181.335 139.437L175.133 135.857L181.767 131.963Z" fill="#18106F"/>
<path d="M190.402 126.968L196.603 130.547L189.97 134.402L183.768 130.823L190.402 126.968Z" fill="#18106F"/>
<path d="M191.775 158.749L172.464 170.077L161.2 163.627C160.768 163.391 160.768 162.801 161.2 162.525L178.077 152.613C178.98 152.063 180.118 152.063 181.021 152.613L191.775 158.749Z" fill="#EBFFFF"/>
<path d="M169.128 167.324L172.582 169.291L190.716 158.671L187.262 156.704L169.128 167.324Z" fill="#D3E6FF"/>
<path d="M156.411 27.8087L70.5715 77.88C68.5697 79.0207 67.353 81.184 67.353 83.4653L68.452 155.681L160.532 100.457V30.208C160.532 28.084 158.256 26.7467 156.411 27.8087Z" fill="#EBFFFF"/>
<path d="M157.51 28.674L72.6122 78.234C70.0609 79.7287 68.4909 82.4427 68.4909 85.3927V155.721L161.67 101.323V31.0733C161.67 28.9493 159.355 27.612 157.51 28.674Z" fill="#C2D2FF"/>
<path d="M68.4909 146.91L161.67 92.5513V29.972C161.67 28.32 159.904 27.2973 158.452 28.1233L71.1599 79.06C69.5114 80.0433 68.4909 81.8133 68.4909 83.7407V146.91Z" fill="#18106F"/>
<path d="M73.1225 138.571L157 89.916V35.518L73.1225 84.1734V138.571Z" fill="#0071BC"/>
<path d="M75.4775 120.321L127.759 89.9553V56.6007L75.4775 86.966V120.321Z" fill="#0071BC"/>
<path d="M78.0681 90.978L108.134 73.514V71.6653L78.0681 89.1293V90.978Z" fill="#F7931E"/>
<path d="M78.0681 95.8553L108.134 78.3913V76.5427L78.0681 94.0067V95.8553Z" fill="#F7931E"/>
<path d="M78.0681 101.677L108.134 84.2127V82.0493L78.0681 99.5133V101.677Z" fill="#3FF8FF"/>
<path d="M78.0681 106.672L108.134 89.208V87.0447L78.0681 104.509V106.672Z" fill="#3FF8FF"/>
<path d="M112.49 85.6287L117.083 82.9147V76.2673L112.49 78.9813V85.6287Z" fill="#3FF8FF"/>
<path d="M120.458 80.948L125.05 78.234V71.5867L120.458 74.3007V80.948Z" fill="#3FF8FF"/>
<path d="M120.458 90.8993L125.05 88.146V81.4987L120.458 84.252V90.8993Z" fill="#3FF8FF"/>
<path opacity="0.56" d="M78.8138 131.963L112.49 112.021V91.45L78.8138 111.392V131.963Z" fill="#FBB03B"/>
<path opacity="0.57" d="M108.133 103.565L118.103 97.6647V91.568L108.133 97.468V103.565Z" fill="#00E5EB"/>
<path d="M140.554 69.266L153.664 61.478V42.4013L140.554 50.2287V69.266Z" fill="#0071BC"/>
<path d="M136.04 80.2007L146.481 73.986V58.8033L136.04 65.018V80.2007Z" fill="#3FF8FF"/>
<path d="M138.748 74.6547L143.772 71.6653V64.3887L138.748 67.378V74.6547Z" fill="#FF395F"/>
<path d="M132.39 96.878L136.276 94.5573V88.972L132.39 91.2927V96.878Z" fill="#3FF8FF"/>
<path d="M124.265 101.48L128.112 99.1987V93.6133L124.265 95.8947V101.48Z" fill="#3FF8FF"/>
<path d="M141.143 52.274L148.129 48.1833V47.3967L141.143 51.4873V52.274Z" fill="#FF395F"/>
<path d="M141.143 53.808L148.129 49.7173V48.9307L141.143 53.0214V53.808Z" fill="#3FF8FF"/>
<path d="M144.636 54.7127L151.583 50.622V49.8353L144.636 53.926V54.7127Z" fill="#3FF8FF"/>
<path d="M144.636 57.112L151.583 53.0607V52.274L144.636 56.3253V57.112Z" fill="#FFE622"/>
<path d="M148.757 57.2693L151.583 55.6173V54.8307L148.757 56.4827V57.2693Z" fill="#3FF8FF"/>
<path d="M148.757 59.5507L151.583 57.8987V57.112L148.757 58.764V59.5507Z" fill="#FFE622"/>
<path d="M148.757 61.8713L151.583 60.2193V59.4327L148.757 61.0847V61.8713Z" fill="#3FF8FF"/>
<path d="M141.81 56.0893L142.87 55.46V54.7127L141.81 55.3027V56.0893Z" fill="#3FF8FF"/>
<path d="M141.81 57.2693L142.87 56.6793V55.8927L141.81 56.522V57.2693Z" fill="#FF395F"/>
<path d="M141.81 58.4887L142.87 57.8593V57.0727L141.81 57.702V58.4887Z" fill="#3FF8FF"/>
<path d="M141.81 59.6687L142.87 59.0787V58.292L141.81 58.9213V59.6687Z" fill="#FF395F"/>
<path d="M141.81 60.888L142.87 60.2587V59.472L141.81 60.1013V60.888Z" fill="#FF395F"/>
<path d="M80.5016 119.18L100.441 107.498V105.256L80.5016 116.938V119.18Z" fill="#005BE4"/>
<path d="M80.5016 123.113L100.441 111.431V109.189L80.5016 120.871V123.113Z" fill="#005BE4"/>
<path d="M80.5017 127.047L109.076 110.33V108.088L80.5017 124.844V127.047Z" fill="#005BE4"/>
<path d="M104.209 43.5027L106.171 55.8533H102.992L103.502 43.1487L104.209 43.5027Z" fill="#D7E9FF"/>
<path d="M98.9885 52.392L118.025 53.1393L128.936 70.1707L128.073 70.7213C128.073 70.7213 119.595 66.7487 115.317 58.056C107.506 59.0393 95.0635 56.7973 95.0635 56.7973L94.671 53.6113" fill="#00134B"/>
<path d="M128.033 70.7213L128.936 72.57L134.824 68.3613L128.936 70.1707L128.033 70.7213Z" fill="#001329"/>
<path d="M117.083 74.7333L118.496 74.3007L115.238 54.9093L104.758 54.988L93.4936 56.758C93.4936 56.758 92.8264 59.1573 96.4374 61.5567C99.4596 63.5627 102.992 62.3433 102.992 62.3433L110.921 59.354C110.489 61.6747 111.509 66.906 117.083 74.7333Z" fill="#002D71"/>
<path d="M104.366 55.0273C104.366 55.0273 101.618 60.8093 94.1214 59.1967C93.4149 57.8593 93.4935 56.758 93.4935 56.758L104.366 55.0273Z" fill="#00134B"/>
<path d="M118.496 74.3007L125.757 75.8347L117.201 76.6607L117.083 74.7333L118.496 74.3007Z" fill="#001329"/>
<path d="M103.11 37.052C103.11 37.052 101.108 39.1367 100.676 43.2667C100.676 43.2667 111.666 45.7053 121.086 35.4787L119.595 33.4333C119.595 33.4333 110.057 39.6087 103.11 37.052Z" fill="#F6FCFF"/>
<path d="M105.622 43.424L103.463 37.3273L103.384 43.542C104.091 43.542 104.837 43.5027 105.622 43.424Z" fill="#D7E9FF"/>
<path d="M120.694 32.922L122.892 31.3093H128.23C128.23 31.3093 128.504 32.4107 124.736 32.332L124.972 33.4727L123.794 34.928L121.714 34.7707L121.204 35.164L120.694 32.922Z" fill="#FFD5B6"/>
<path d="M122.224 34.692L120.694 32.686L119.595 33.4333L121.086 35.4787L122.224 34.692Z" fill="#0CEFFF"/>
<path d="M107.152 26.55C107.152 26.55 108.173 29.3427 107.898 33.1187C107.898 33.1187 106.446 33.9053 103.855 33.3153L103.11 36.698C103.11 36.698 100.872 36.1473 100.48 35.5573C100.284 35.282 100.441 34.22 100.441 34.22L100.951 31.8993L101.697 31.9387L101.422 30.8373C101.422 30.8373 100.401 30.5227 100.284 29.382C100.166 28.2413 101.304 28.7527 101.579 28.9493L101.854 29.736C101.854 29.736 102.05 28.202 101.226 27.612L101.854 26.196C101.893 26.1567 104.091 27.1793 107.152 26.55Z" fill="#FFD5B6"/>
<path d="M101.226 27.5727L101.618 26.668C100.755 25.488 103.267 23.6394 103.11 22.1447C99.0276 22.9707 98.5566 25.842 98.5566 25.842C96.7511 29.972 100.166 31.5847 100.166 31.5847C100.284 32.3714 100.715 32.6467 100.715 32.6467L100.872 31.86L101.618 31.8993L101.343 30.798C100.48 30.3654 99.9304 29.264 100.401 28.8314C100.872 28.3987 101.5 28.91 101.5 28.91L101.775 29.6967C102.168 28.0447 101.226 27.5727 101.226 27.5727Z" fill="#181F47"/>
<path d="M104.876 27.2973C104.64 27.8873 103.581 28.0447 102.56 27.612C101.5 27.1793 100.872 26.3533 101.108 25.7633C101.343 25.1733 102.403 25.016 103.424 25.4487C104.444 25.8813 105.111 26.7073 104.876 27.2973Z" fill="#181F47"/>
<path d="M102.442 27.7693C102.325 28.0447 101.854 28.1233 101.383 27.9267C100.912 27.73 100.598 27.3367 100.715 27.0613C100.833 26.786 101.304 26.7073 101.775 26.904C102.246 27.1007 102.56 27.494 102.442 27.7693Z" fill="#181F47"/>
<path d="M106.878 26.6287C106.721 27.14 105.779 27.3367 104.758 27.0613C103.738 26.786 102.992 26.1567 103.149 25.6453C103.306 25.134 104.248 24.9373 105.269 25.2127C106.289 25.4487 107.035 26.078 106.878 26.6287Z" fill="#181F47"/>
<path d="M108.644 26.3534C108.487 26.8647 107.545 27.0614 106.525 26.786C105.504 26.5107 104.758 25.8814 104.915 25.37C105.072 24.8587 106.014 24.662 107.035 24.9374C108.055 25.1734 108.801 25.842 108.644 26.3534Z" fill="#181F47"/>
<path d="M108.683 22.774C108.997 23.6 107.898 24.78 106.25 25.4487C104.601 26.078 100.166 26.9827 99.8127 26.1567C99.4987 25.3307 99.6557 22.892 104.248 21.83C106.014 21.3973 108.369 21.948 108.683 22.774Z" fill="#181F47"/>
<path d="M93.4934 56.758C93.4934 56.758 92.8262 58.41 97.3399 57.9773C104.994 57.2693 104.562 52.392 104.562 52.392L103.816 37.8387C103.816 37.8387 103.777 37.2487 103.11 36.6587C102.325 35.9507 100.676 35.7933 100.401 34.1807C98.1642 34.0627 95.9662 37.6813 94.7494 41.8113C93.4542 46.4133 93.4934 56.758 93.4934 56.758Z" fill="#0CEFFF"/>
<path opacity="0.41" d="M103.188 54.1227C98.91 54.0047 96.4372 53.1787 96.4372 53.1787C96.4372 53.1787 96.5549 42.8733 96.9474 40.474C97.3792 38.0353 98.3604 35.754 100.872 36.4227C103.463 37.0913 102.56 40.7887 102.56 40.7887L100.558 49.2453L103.502 49.5993L103.188 54.1227Z" fill="#D7E9FF"/>
<path d="M103.227 40.71C103.227 40.71 103.816 36.934 101.069 36.462C98.3211 36.0293 97.4969 38.468 97.3399 40.9853C97.1829 43.4633 98.2034 53.3753 98.2034 53.3753C98.2034 53.3753 105.425 54.5947 115.63 50.622L115.513 48.9307L102.05 49.088L103.227 40.71Z" fill="#F6FCFF"/>
<path d="M116.533 49.0094L119.595 48.6553L122.107 49.7174L122.46 52.8247C122.46 52.8247 121.753 53.0214 121.479 51.1727L120.772 51.0153C120.772 51.0153 119.438 51.566 118.456 51.2907C117.475 51.0153 116.455 50.8973 116.455 50.8973L116.533 49.0094Z" fill="#FFD5B6"/>
<path d="M116.483 50.9532L115.071 50.8984L115.145 48.9724L116.557 49.0272L116.483 50.9532Z" fill="#0CEFFF"/>
<path d="M129.172 46.4133C128.897 46.492 128.74 46.8067 128.74 46.8067L124.58 54.0047L125.168 54.28L129.643 46.492C129.643 46.4527 129.447 46.3347 129.172 46.4133Z" fill="#0CEFFF"/>
<path d="M129.446 46.2167C129.132 46.2953 128.936 46.6493 128.936 46.6493L124.344 54.5947L124.972 54.87L129.917 46.256C129.996 46.2953 129.8 46.138 129.446 46.2167Z" fill="#EBFFFF"/>
<path d="M113.99 51.6963L125.151 54.1285L124.984 54.8973L113.823 52.465L113.99 51.6963Z" fill="#EBFFFF"/>
<g opacity="0.2">
<path opacity="0.2" d="M130.545 37.17L150.563 37.1307C151.505 37.1307 152.25 36.3833 152.25 35.4393V20.1387C152.25 19.1947 151.505 18.4473 150.563 18.4473L130.545 18.4867C129.603 18.4867 128.857 19.234 128.857 20.178V35.4787C128.857 36.4227 129.642 37.17 130.545 37.17Z" fill="#00D6FF"/>
</g>
<g opacity="0.75">
<path opacity="0.75" d="M130.074 18.526L151.073 18.4867C151.74 18.4867 152.25 18.998 152.25 19.6667V22.8527L128.857 22.892V19.706C128.857 19.0373 129.407 18.526 130.074 18.526Z" fill="#00E9FF"/>
</g>
<g opacity="0.81">
<g opacity="0.81">
<path opacity="0.81" d="M131.526 35.7147L149.189 35.6753C149.935 35.6753 150.563 35.046 150.563 34.2987V25.5273C150.563 24.78 149.935 24.1507 149.189 24.1507L131.526 24.19C130.781 24.19 130.153 24.8193 130.153 25.5667V34.338C130.153 35.1247 130.741 35.7147 131.526 35.7147Z" fill="#0071BC"/>
</g>
</g>
<g opacity="0.3">
<path opacity="0.3" d="M148.757 20.6894C148.757 21.358 149.268 21.8694 149.935 21.8694C150.602 21.8694 151.112 21.358 151.112 20.6894C151.112 20.0207 150.602 19.5094 149.935 19.5094C149.268 19.5094 148.757 20.0207 148.757 20.6894Z" fill="#0042C0"/>
</g>
<g opacity="0.75">
<path opacity="0.75" d="M148.993 20.6893C148.993 21.2007 149.385 21.594 149.896 21.594C150.406 21.594 150.798 21.2007 150.798 20.6893C150.798 20.178 150.406 19.7847 149.896 19.7847C149.425 19.7453 148.993 20.178 148.993 20.6893Z" fill="#00E9FF"/>
</g>
<path d="M149.189 20.6893C149.189 21.0827 149.503 21.4367 149.935 21.4367C150.327 21.4367 150.68 21.122 150.68 20.6893C150.68 20.296 150.366 19.942 149.935 19.942C149.503 19.942 149.189 20.2567 149.189 20.6893Z" fill="#FF3D40"/>
<path d="M149.464 20.6893C149.464 20.9253 149.66 21.122 149.895 21.122C150.131 21.122 150.327 20.9253 150.327 20.6893C150.327 20.4533 150.131 20.2567 149.895 20.2567C149.66 20.2173 149.464 20.414 149.464 20.6893Z" fill="#C32717"/>
<g opacity="0.3">
<path opacity="0.3" d="M145.343 20.6894C145.343 21.358 145.853 21.8694 146.52 21.8694C147.187 21.8694 147.698 21.358 147.698 20.6894C147.698 20.0207 147.187 19.5094 146.52 19.5094C145.853 19.5094 145.343 20.0207 145.343 20.6894Z" fill="#0042C0"/>
</g>
<g opacity="0.75">
<path opacity="0.75" d="M145.578 20.6893C145.578 21.2007 145.971 21.594 146.481 21.594C146.991 21.594 147.384 21.2007 147.384 20.6893C147.384 20.178 146.991 19.7847 146.481 19.7847C146.01 19.7453 145.578 20.178 145.578 20.6893Z" fill="#00E9FF"/>
</g>
<path d="M145.774 20.6893C145.774 21.0827 146.127 21.4367 146.52 21.4367C146.912 21.4367 147.266 21.0827 147.266 20.6893C147.266 20.296 146.912 19.942 146.52 19.942C146.088 19.942 145.774 20.2567 145.774 20.6893Z" fill="#FFCD00"/>
<path d="M146.049 20.6893C146.049 20.9253 146.245 21.122 146.481 21.122C146.716 21.122 146.913 20.9253 146.913 20.6893C146.913 20.4533 146.716 20.2567 146.481 20.2567C146.245 20.2173 146.049 20.414 146.049 20.6893Z" fill="#FFA600"/>
<g opacity="0.3">
<path opacity="0.3" d="M141.928 20.6894C141.928 21.358 142.438 21.8694 143.105 21.8694C143.772 21.8694 144.283 21.358 144.283 20.6894C144.283 20.0207 143.772 19.5094 143.105 19.5094C142.438 19.5094 141.928 20.0207 141.928 20.6894Z" fill="#0042C0"/>
</g>
<g opacity="0.75">
<path opacity="0.75" d="M142.203 20.6893C142.203 21.2007 142.595 21.594 143.105 21.594C143.616 21.594 144.008 21.2007 144.008 20.6893C144.008 20.178 143.616 19.7847 143.105 19.7847C142.595 19.7453 142.203 20.178 142.203 20.6893Z" fill="#00E9FF"/>
</g>
<path d="M142.359 20.6893C142.359 21.0827 142.713 21.4367 143.105 21.4367C143.498 21.4367 143.851 21.0827 143.851 20.6893C143.851 20.296 143.498 19.942 143.105 19.942C142.673 19.942 142.359 20.2567 142.359 20.6893Z" fill="#40F988"/>
<path d="M142.634 20.6893C142.634 20.9253 142.831 21.122 143.066 21.122C143.302 21.122 143.498 20.9253 143.498 20.6893C143.498 20.4533 143.302 20.2567 143.066 20.2567C142.831 20.2173 142.634 20.414 142.634 20.6893Z" fill="#11AB6B"/>
<path d="M148.561 27.3367C148.6 27.3367 148.639 27.3367 148.679 27.2973L149.581 26.3927C149.621 26.3533 149.621 26.314 149.621 26.2747C149.621 26.2353 149.621 26.196 149.581 26.1567L148.679 25.252C148.6 25.1733 148.522 25.1733 148.443 25.252C148.365 25.3307 148.365 25.4093 148.443 25.488L149.228 26.2747L148.443 27.0613C148.365 27.14 148.365 27.2187 148.443 27.2973C148.482 27.3367 148.522 27.3367 148.561 27.3367Z" fill="#FFD600"/>
<path d="M146.245 27.3367C146.285 27.3367 146.324 27.3367 146.363 27.2973C146.441 27.2187 146.441 27.14 146.363 27.0613L145.578 26.2747L146.363 25.488C146.441 25.4093 146.441 25.3307 146.363 25.252C146.285 25.1733 146.206 25.1733 146.128 25.252L145.225 26.1567C145.186 26.196 145.186 26.2353 145.186 26.2747C145.186 26.314 145.186 26.3533 145.225 26.3927L146.128 27.2973C146.167 27.3367 146.206 27.3367 146.245 27.3367Z" fill="#FFD600"/>
<path d="M147.776 27.494H147.815C147.894 27.4547 147.933 27.376 147.933 27.2973L147.187 25.2913C147.148 25.2127 147.07 25.1733 146.991 25.2127C146.913 25.252 146.873 25.3307 146.873 25.4093L147.619 27.4153C147.658 27.4547 147.737 27.494 147.776 27.494Z" fill="#FFD600"/>
<path d="M144.361 27.6907C144.557 27.6907 144.714 27.5333 144.714 27.3367C144.714 27.14 144.557 26.9827 144.361 26.9827C144.165 26.9827 144.008 27.14 144.008 27.3367C144.008 27.5333 144.165 27.6907 144.361 27.6907ZM144.361 27.1793C144.44 27.1793 144.518 27.258 144.518 27.3367C144.518 27.4153 144.44 27.494 144.361 27.494C144.283 27.494 144.204 27.4153 144.204 27.3367C144.204 27.258 144.283 27.1793 144.361 27.1793Z" fill="#FFD600"/>
<path d="M143.302 27.6907C143.38 27.6907 143.498 27.6513 143.537 27.5727C143.616 27.494 143.655 27.4153 143.655 27.3367C143.655 27.258 143.616 27.1793 143.537 27.1007C143.459 27.022 143.38 26.9827 143.302 26.9827C143.105 26.9827 142.948 27.14 142.948 27.3367C142.948 27.4153 142.988 27.494 143.066 27.5727C143.105 27.6513 143.223 27.6907 143.302 27.6907ZM143.302 27.1793C143.341 27.1793 143.38 27.1793 143.419 27.2187C143.459 27.258 143.459 27.2973 143.459 27.3367C143.459 27.376 143.459 27.4153 143.419 27.4547C143.38 27.494 143.341 27.494 143.302 27.494C143.262 27.494 143.223 27.494 143.184 27.4547C143.145 27.4153 143.145 27.376 143.145 27.3367C143.105 27.258 143.184 27.1793 143.302 27.1793Z" fill="#FFD600"/>
<path d="M142.242 27.6907C142.438 27.6907 142.595 27.5333 142.595 27.3367C142.595 27.14 142.438 26.9827 142.242 26.9827C142.045 26.9827 141.888 27.14 141.888 27.3367C141.888 27.5333 142.045 27.6907 142.242 27.6907ZM142.242 27.1793C142.32 27.1793 142.399 27.258 142.399 27.3367C142.399 27.4153 142.32 27.494 142.242 27.494C142.163 27.494 142.085 27.4153 142.085 27.3367C142.045 27.258 142.124 27.1793 142.242 27.1793Z" fill="#FFD600"/>
<path d="M133.881 29.382H148.993C149.071 29.382 149.15 29.3033 149.15 29.2247C149.15 29.146 149.071 29.0673 148.993 29.0673H133.881C133.803 29.0673 133.724 29.146 133.724 29.2247C133.724 29.3033 133.803 29.382 133.881 29.382Z" fill="#00DA8F"/>
<path d="M131.527 29.382H132.233C132.312 29.382 132.39 29.3033 132.39 29.2247C132.39 29.146 132.312 29.0673 132.233 29.0673H131.527C131.448 29.0673 131.37 29.146 131.37 29.2247C131.37 29.3033 131.448 29.382 131.527 29.382Z" fill="#00DA8F"/>
<path d="M138.395 31.5453H149.032C149.11 31.5453 149.189 31.4667 149.189 31.388C149.189 31.3093 149.11 31.2307 149.032 31.2307H138.395C138.317 31.2307 138.238 31.3093 138.238 31.388C138.199 31.4667 138.277 31.5453 138.395 31.5453Z" fill="#00FCFF"/>
<path d="M135.177 31.5453H135.844C135.922 31.5453 136.001 31.4667 136.001 31.388C136.001 31.3093 135.922 31.2307 135.844 31.2307H135.177C135.098 31.2307 135.02 31.3093 135.02 31.388C134.98 31.506 135.059 31.5453 135.177 31.5453Z" fill="#00FCFF"/>
<path d="M138.395 32.804H140.083C140.161 32.804 140.24 32.7254 140.24 32.6467C140.24 32.568 140.161 32.4893 140.083 32.4893H138.395C138.317 32.4893 138.238 32.568 138.238 32.6467C138.199 32.7254 138.278 32.804 138.395 32.804Z" fill="#00FCFF"/>
<path d="M141.417 32.804H143.105C143.184 32.804 143.262 32.7254 143.262 32.6467C143.262 32.568 143.184 32.4893 143.105 32.4893H141.417C141.339 32.4893 141.26 32.568 141.26 32.6467C141.26 32.7254 141.3 32.804 141.417 32.804Z" fill="#00FCFF"/>
<path d="M144.754 32.804H146.441C146.52 32.804 146.598 32.7254 146.598 32.6467C146.598 32.568 146.52 32.4893 146.441 32.4893H144.754C144.675 32.4893 144.597 32.568 144.597 32.6467C144.597 32.7254 144.675 32.804 144.754 32.804Z" fill="#00FCFF"/>
<path d="M132.743 34.338H146.441C146.52 34.338 146.598 34.2593 146.598 34.1807C146.598 34.102 146.52 34.0233 146.441 34.0233H132.743C132.665 34.0233 132.586 34.102 132.586 34.1807C132.586 34.2593 132.665 34.338 132.743 34.338Z" fill="#FF4F92"/>
<path d="M148.404 32.804H149.032C149.11 32.804 149.189 32.7254 149.189 32.6467C149.189 32.568 149.11 32.4893 149.032 32.4893H148.404C148.325 32.4893 148.247 32.568 148.247 32.6467C148.247 32.7254 148.325 32.804 148.404 32.804Z" fill="#00FCFF"/>
<path d="M148.404 34.2987H149.032C149.11 34.2987 149.189 34.22 149.189 34.1413C149.189 34.0627 149.11 33.984 149.032 33.984H148.404C148.325 33.984 148.247 34.0627 148.247 34.1413C148.247 34.22 148.325 34.2987 148.404 34.2987Z" fill="#00FCFF"/>
<path opacity="0.21" d="M159.944 211.535C159.944 212.321 167.048 212.951 175.761 212.951C184.514 212.951 191.579 212.321 191.579 211.535C191.579 210.748 184.475 210.119 175.761 210.119C167.048 210.119 159.944 210.748 159.944 211.535Z" fill="#008DCA"/>
<path opacity="0.21" d="M51.4959 211.535C51.4959 212.439 58.6001 213.187 67.3136 213.187C76.0664 213.187 83.1313 212.439 83.1313 211.535C83.1313 210.63 76.0271 209.883 67.3136 209.883C58.6001 209.883 51.4959 210.63 51.4959 211.535Z" fill="#008DCA"/>
<path opacity="0.21" d="M147.972 212.125C147.972 212.557 149.739 212.911 151.897 212.911C154.056 212.911 155.823 212.557 155.823 212.125C155.823 211.692 154.056 211.338 151.897 211.338C149.739 211.338 147.972 211.692 147.972 212.125Z" fill="#008DCA"/>
<path d="M72.1021 209.096V210.63H78.5391L74.1823 209.096H72.1021Z" fill="#001329"/>
<path d="M56.7552 209.096V210.63L60.641 212.439H62.4072L59.1495 209.096H56.7552Z" fill="#001329"/>
<path d="M74.1824 167.599V209.096H72.1021C72.1021 209.096 68.6481 199.42 69.1976 189.862L66.8426 175.466L59.1104 209.096H56.7554C56.7554 209.096 54.7144 196.706 57.5796 189.193L58.6786 167.599H74.1824Z" fill="#002D71"/>
<path d="M74.1824 167.599C74.1824 167.599 70.4144 170.549 58.6001 170.195L58.7179 167.599L67.6276 165.947" fill="#00134B"/>
<path d="M66.8817 175.466L69.5115 170.195L69.1975 189.862L66.8817 175.466Z" fill="#00134B"/>
<path d="M69.2367 129.171C69.0405 128.856 70.1002 128.738 69.9824 128.423C67.0779 127.873 63.8594 128.463 63.6632 130.823C63.6632 130.823 59.6204 134.363 64.4482 138.965V139.594L68.4517 137.195L71.6702 132.711C71.6702 132.711 72.0627 132.711 72.5337 132.553C71.1992 131.727 70.061 130.508 69.2367 129.171Z" fill="#181F47"/>
<path d="M71.7489 133.065C71.7489 133.065 74.7712 132.514 73.9469 129.328L72.9264 129.918C72.9264 129.918 74.1824 128.423 72.1414 125.788L69.1976 128.777L68.5696 131.767L71.7489 133.065Z" fill="#181F47"/>
<path d="M72.3767 137.824L72.2197 138.847L70.6497 138.807L69.59 137.391L70.2965 136.801" fill="#F6FCFF"/>
<path d="M72.2197 138.847C72.102 139.397 71.945 139.948 71.7095 140.499H68.962V142.859C68.962 142.859 69.1975 144.471 67.9022 144.825C65.4295 145.455 64.4482 142.741 64.4482 142.741V139.004V139.555C64.4482 139.555 66.8817 138.178 66.8032 136.29C66.8032 136.29 65.0762 135.936 65.351 134.677C65.5865 133.615 66.921 133.969 67.3135 134.874V136.093C67.3135 136.093 67.9807 136.093 68.0985 133.773L68.8835 132.75H71.631C71.631 132.75 72.6515 135.071 72.3375 137.863" fill="#FFD5B6"/>
<path d="M68.5695 145.573C68.6872 144.157 70.2179 141.954 73.5149 145.415C77.6362 149.781 82.8172 155.327 93.2577 152.81L94.3567 154.895C94.3567 154.895 83.2097 161.581 72.102 152.023C70.689 150.883 68.334 148.405 68.5695 145.573Z" fill="#5421A0"/>
<path d="M93.0223 153.321C93.0223 153.321 93.611 152.338 93.925 152.102C93.925 152.102 95.338 150.647 95.5735 150.45C95.5735 150.45 96.0445 150.647 95.7698 151.158C95.495 151.669 94.9848 152.22 94.9848 152.22C94.9848 152.22 95.8483 152.023 96.28 151.669C96.751 151.355 97.6538 150.725 98.007 150.765C98.3603 150.843 98.2033 151.158 98.2033 151.158C98.2033 151.158 96.7903 152.102 96.5155 152.338C96.2408 152.535 96.3978 152.574 96.3978 152.574C96.3978 152.574 98.2425 151.866 98.5958 151.748C98.9098 151.63 99.1453 151.787 99.1453 152.102C99.1453 152.102 98.164 152.495 97.5753 152.771C97.379 152.889 96.6333 153.085 96.751 153.321C96.751 153.321 98.3995 152.889 98.6743 152.771C98.949 152.653 99.1845 152.849 99.0668 153.164L96.8688 153.911C96.8688 153.911 96.7118 153.99 96.8295 154.069C96.908 154.147 98.007 154.147 98.1248 154.108C98.2425 154.069 98.5958 154.029 98.635 154.344C98.635 154.344 98.635 154.462 98.2818 154.501C97.9285 154.58 96.3193 154.934 96.3193 154.934C96.3193 154.934 95.2595 155.288 94.0428 155.052C92.7868 154.816 92.6298 154.305 93.1008 154.895V154.187L93.0223 153.321Z" fill="#FFD5B6"/>
<path d="M59.8167 148.523C59.9345 147.067 60.0522 145.769 61.8577 143.881C62.4072 143.291 64.3304 142.662 64.4874 142.662V142.701C64.4874 142.741 65.8612 145.14 67.9414 144.589C69.2367 144.235 69.0012 142.819 69.0012 142.819V142.78H69.1582C70.9637 142.937 72.5729 145.887 73.1224 149.506C73.5542 156.861 74.2214 167.56 74.2214 167.56C67.2349 169.881 58.7569 167.56 58.7569 167.56C58.7569 167.56 58.7569 167.56 58.4822 167.835L59.8167 148.523Z" fill="#CD6DFF"/>
<path opacity="0.2" d="M74.1039 164.177C67.1174 160.244 66.4109 154.029 65.7829 148.995C65.3119 145.337 63.3101 144.865 62.0541 145.415C61.3869 146.202 60.9159 147.028 60.7981 148.09L61.4654 148.129C61.5831 148.798 60.6411 149.899 60.7196 150.371C62.6429 161.385 70.2181 166.419 74.1824 167.442C74.1824 166.931 74.1431 165.751 74.1039 164.177Z" fill="#FFB222"/>
<path d="M169.05 167.599V209.096H171.13C171.13 209.096 174.584 199.42 174.034 189.862L176.389 175.466L184.122 209.096H186.477C186.477 209.096 188.518 196.706 185.652 189.193L184.553 167.599H169.05Z" fill="#002D71"/>
<path d="M169.05 167.599C169.05 167.599 172.818 170.549 184.632 170.195L184.514 167.599L175.604 165.947" fill="#00134B"/>
<path d="M160.493 163.391C160.493 163.391 159.708 162.486 159.316 162.289C159.316 162.289 157.589 160.991 157.314 160.834C157.314 160.834 156.882 161.109 157.235 161.621C157.628 162.132 158.217 162.604 158.217 162.604C158.217 162.604 157.275 162.525 156.764 162.289C156.215 162.014 155.155 161.542 154.802 161.66C154.449 161.778 154.684 162.132 154.684 162.132C154.684 162.132 156.333 162.879 156.686 163.076C157 163.233 156.843 163.312 156.843 163.312C156.843 163.312 154.802 162.919 154.409 162.84C154.056 162.761 153.86 162.958 153.899 163.312C153.899 163.312 154.998 163.548 155.665 163.745C155.901 163.823 156.725 163.902 156.607 164.177C156.607 164.177 154.802 164.02 154.488 163.941C154.174 163.863 153.978 164.099 154.135 164.413L156.568 164.807C156.568 164.807 156.725 164.885 156.647 164.964C156.568 165.043 155.43 165.239 155.312 165.239C155.194 165.239 154.802 165.239 154.802 165.554C154.802 165.554 154.841 165.672 155.194 165.672C155.587 165.672 157.353 165.79 157.353 165.79C157.353 165.79 158.491 165.987 159.747 165.515C161.003 165.043 161.082 164.492 160.689 165.161L160.572 164.413L160.493 163.391Z" fill="#FFD5B6"/>
<path d="M175.133 145.061C174.388 143.842 171.522 143.134 170.227 147.736C168.579 153.518 166.577 160.834 156.176 163.509V165.869C156.176 165.869 169.167 166.616 174.545 152.967C175.212 151.237 176.664 147.461 175.133 145.061Z" fill="#FFB300"/>
<path d="M184.514 167.599C184.514 167.599 176.036 169.92 169.05 167.599C169.05 167.599 169.678 154.383 171.091 147.775C171.719 144.786 172.935 142.819 174.741 142.819L178.744 142.701C178.862 142.701 180.314 143.055 181.099 143.921C182.081 145.022 182.512 146.713 183.023 150.017L184.75 167.835C184.514 167.599 184.514 167.599 184.514 167.599Z" fill="#FFE622"/>
<path opacity="0.2" d="M64.6837 190.019L153.153 211.653C154.213 211.928 155.312 211.259 155.547 210.197L174.819 131.059C175.094 129.997 174.427 128.895 173.367 128.659L84.8974 107.026C83.8377 106.751 82.7387 107.419 82.5032 108.481L63.2315 187.62C62.9567 188.682 63.624 189.744 64.6837 190.019Z" fill="#00D6FF"/>
<path opacity="0.75" d="M86.5853 107.38L171.64 128.187C173.642 128.659 174.859 130.705 174.388 132.711L171.993 142.465L79.6774 119.888L82.0716 110.133C82.5426 108.127 84.5836 106.908 86.5853 107.38Z" fill="#00E9FF"/>
<path opacity="0.81" d="M70.2965 186.755L149.385 206.067C150.249 206.264 151.152 205.753 151.387 204.848L165.517 146.792C165.713 145.927 165.203 145.022 164.3 144.786L85.1723 125.513C84.3088 125.316 83.406 125.827 83.1705 126.732L69.0405 184.788C68.8835 185.653 69.3938 186.519 70.2965 186.755Z" fill="#0071BC"/>
<path opacity="0.3" d="M162.848 133.143C162.377 135.149 163.594 137.155 165.595 137.627C167.597 138.099 169.599 136.88 170.07 134.874C170.541 132.868 169.324 130.862 167.322 130.39C165.36 129.918 163.358 131.137 162.848 133.143Z" fill="#0042C0"/>
<path opacity="0.75" d="M163.672 133.34C163.28 134.874 164.261 136.447 165.792 136.841C167.323 137.234 168.893 136.251 169.285 134.717C169.678 133.183 168.696 131.609 167.166 131.216C165.596 130.823 164.065 131.806 163.672 133.34Z" fill="#00E9FF"/>
<path d="M164.183 133.458C163.869 134.717 164.654 136.015 165.91 136.329C167.166 136.644 168.461 135.857 168.775 134.599C169.089 133.34 168.304 132.042 167.048 131.727C165.753 131.413 164.497 132.199 164.183 133.458Z" fill="#FF3D40"/>
<path d="M165.085 133.694C164.889 134.441 165.36 135.228 166.145 135.425C166.891 135.621 167.676 135.149 167.872 134.363C168.068 133.615 167.597 132.829 166.812 132.632C166.067 132.435 165.282 132.907 165.085 133.694Z" fill="#C32717"/>
<path opacity="0.3" d="M152.408 130.587C151.937 132.593 153.153 134.599 155.155 135.071C157.157 135.543 159.159 134.323 159.63 132.317C160.101 130.311 158.884 128.305 156.882 127.833C154.88 127.361 152.879 128.581 152.408 130.587Z" fill="#0042C0"/>
<path opacity="0.75" d="M153.193 130.783C152.8 132.317 153.781 133.891 155.312 134.284C156.843 134.677 158.413 133.694 158.805 132.16C159.198 130.626 158.217 129.053 156.686 128.659C155.155 128.266 153.585 129.21 153.193 130.783Z" fill="#00E9FF"/>
<path d="M153.742 130.901C153.428 132.16 154.213 133.458 155.469 133.773C156.725 134.087 158.02 133.301 158.334 132.042C158.648 130.783 157.863 129.485 156.607 129.171C155.312 128.856 154.017 129.643 153.742 130.901Z" fill="#FFCD00"/>
<path d="M154.645 131.137C154.449 131.885 154.92 132.671 155.705 132.868C156.45 133.065 157.235 132.593 157.432 131.806C157.628 131.059 157.157 130.272 156.372 130.075C155.587 129.879 154.802 130.351 154.645 131.137Z" fill="#FFA600"/>
<path opacity="0.3" d="M141.928 128.03C141.457 130.036 142.674 132.042 144.675 132.514C146.677 132.986 148.679 131.767 149.15 129.761C149.621 127.755 148.404 125.749 146.402 125.277C144.44 124.805 142.438 126.024 141.928 128.03Z" fill="#0042C0"/>
<path opacity="0.75" d="M142.752 128.227C142.359 129.761 143.341 131.334 144.871 131.727C146.402 132.121 147.972 131.137 148.365 129.603C148.757 128.069 147.776 126.496 146.245 126.103C144.675 125.709 143.105 126.653 142.752 128.227Z" fill="#00E9FF"/>
<path d="M143.262 128.345C142.948 129.603 143.733 130.901 144.989 131.216C146.245 131.531 147.541 130.744 147.855 129.485C148.169 128.227 147.384 126.929 146.128 126.614C144.832 126.299 143.576 127.086 143.262 128.345Z" fill="#40F988"/>
<path d="M144.165 128.581C143.969 129.328 144.44 130.115 145.225 130.311C145.971 130.508 146.756 130.036 146.952 129.249C147.148 128.502 146.677 127.715 145.892 127.519C145.107 127.322 144.361 127.794 144.165 128.581Z" fill="#11AB6B"/>
<path d="M158.766 147.303L160.925 150.804L157.432 152.928" stroke="#00DA8F" stroke-miterlimit="10" stroke-linecap="round" stroke-linejoin="round"/>
<path d="M151.74 145.573L148.247 147.697L150.366 151.197" stroke="#00DA8F" stroke-miterlimit="10" stroke-linecap="round" stroke-linejoin="round"/>
<path d="M154.959 152.849L154.213 146.202" stroke="#00DA8F" stroke-miterlimit="10" stroke-linecap="round" stroke-linejoin="round"/>
<path d="M143.655 150.135C143.537 150.568 143.812 151.001 144.243 151.119C144.675 151.237 145.107 150.961 145.225 150.529C145.342 150.096 145.068 149.663 144.636 149.545C144.204 149.427 143.733 149.703 143.655 150.135Z" fill="#00DA8F"/>
<path d="M140.358 149.349C140.24 149.781 140.515 150.214 140.946 150.332C141.378 150.45 141.81 150.175 141.928 149.742C142.045 149.309 141.771 148.877 141.339 148.759C140.907 148.641 140.475 148.877 140.358 149.349Z" fill="#00DA8F"/>
<path d="M137.061 148.523C136.943 148.955 137.218 149.388 137.65 149.506C138.081 149.624 138.513 149.349 138.631 148.916C138.749 148.483 138.474 148.051 138.042 147.933C137.61 147.815 137.179 148.09 137.061 148.523Z" fill="#00DA8F"/>
<path d="M157.314 159.536L102.638 146.163" stroke="#00DA8F" stroke-miterlimit="10" stroke-linecap="round" stroke-linejoin="round"/>
<path d="M97.4968 144.904L90.9813 143.331" stroke="#00DA8F" stroke-miterlimit="10" stroke-linecap="round" stroke-linejoin="round"/>
<path d="M87.3311 142.426L84.5836 141.757" stroke="#00DA8F" stroke-miterlimit="10" stroke-linecap="round" stroke-linejoin="round"/>
<path d="M155.665 166.183L114.767 156.193" stroke="#00FCFF" stroke-miterlimit="10" stroke-linecap="round" stroke-linejoin="round"/>
<path d="M106.877 154.265L104.876 153.793" stroke="#00FCFF" stroke-miterlimit="10" stroke-linecap="round" stroke-linejoin="round"/>
<path d="M103.973 157.609L110.292 159.143" stroke="#00FCFF" stroke-miterlimit="10" stroke-linecap="round" stroke-linejoin="round"/>
<path d="M113.825 160.008L119.006 161.267" stroke="#00FCFF" stroke-miterlimit="10" stroke-linecap="round" stroke-linejoin="round"/>
<path d="M123.127 162.289L128.308 163.548" stroke="#00FCFF" stroke-miterlimit="10" stroke-linecap="round" stroke-linejoin="round"/>
<path d="M132.429 164.571L137.61 165.829" stroke="#00FCFF" stroke-miterlimit="10" stroke-linecap="round" stroke-linejoin="round"/>
<path d="M141.692 166.852L146.873 168.111" stroke="#00FCFF" stroke-miterlimit="10" stroke-linecap="round" stroke-linejoin="round"/>
<path d="M95.4167 160.441L145.774 172.752" stroke="#FF4F92" stroke-miterlimit="10" stroke-linecap="round" stroke-linejoin="round"/>
<path d="M152.878 169.566L154.762 170.038" stroke="#00FCFF" stroke-miterlimit="10" stroke-linecap="round" stroke-linejoin="round"/>
<path d="M151.74 174.207L153.624 174.679" stroke="#00FCFF" stroke-miterlimit="10" stroke-linecap="round" stroke-linejoin="round"/>
<path d="M150.602 178.888L152.486 179.321" stroke="#00FCFF" stroke-miterlimit="10" stroke-linecap="round" stroke-linejoin="round"/>
<path d="M149.464 183.529L151.348 184.001" stroke="#00FCFF" stroke-miterlimit="10" stroke-linecap="round" stroke-linejoin="round"/>
<path d="M90.5496 159.261L85.0545 157.923" stroke="#FF4F92" stroke-miterlimit="10" stroke-linecap="round" stroke-linejoin="round"/>
<path d="M144.832 177.472L122.656 172.044" stroke="#FF4F92" stroke-miterlimit="10" stroke-linecap="round" stroke-linejoin="round"/>
<path d="M143.655 182.231L121.479 176.803" stroke="#FF4F92" stroke-miterlimit="10" stroke-linecap="round" stroke-linejoin="round"/>
<path d="M142.477 186.991L120.34 181.563" stroke="#FF4F92" stroke-miterlimit="10" stroke-linecap="round" stroke-linejoin="round"/>
<path d="M141.339 191.75L119.163 186.361" stroke="#FF4F92" stroke-miterlimit="10" stroke-linecap="round" stroke-linejoin="round"/>
<path d="M104.562 182.782L89.215 179.045" stroke="#FFD600" stroke-miterlimit="10" stroke-linecap="round" stroke-linejoin="round"/>
<path d="M98.321 176.213L90.3533 174.247" stroke="#FFD600" stroke-miterlimit="10" stroke-linecap="round" stroke-linejoin="round"/>
<path d="M98.8313 171.139L91.5701 169.369" stroke="#FFD600" stroke-miterlimit="10" stroke-linecap="round" stroke-linejoin="round"/>
<path d="M171.13 209.096V210.63H164.693L169.05 209.096H171.13Z" fill="#001329"/>
<path d="M186.477 209.096V210.63L182.591 212.439H180.864L184.122 209.096H186.477Z" fill="#001329"/>
<path d="M176.389 175.466L173.72 170.195L174.034 189.862L176.389 175.466Z" fill="#00134B"/>
<path d="M169.678 127.715C169.874 127.401 173.171 127.715 174.584 127.951C176.232 127.912 179.961 129.092 180.432 131.491C180.432 131.491 185.378 135.031 178.784 139.712L177.135 139.201L174.78 137.234L171.562 132.75C171.562 132.75 171.169 132.75 170.698 132.593C168.147 131.255 168.853 129.053 169.678 127.715Z" fill="#181F47"/>
<path d="M171.012 138.847C171.13 139.397 171.287 139.948 171.522 140.499H174.27V142.898V144.983L178.744 142.741V139.751L177.606 139.043C177.606 139.043 176.664 137.745 176.429 136.329C176.429 136.329 178.156 135.975 177.881 134.717C177.645 133.655 176.311 134.009 175.918 134.913V136.133C175.918 136.133 175.251 136.133 175.133 133.812L174.348 132.789H171.601C171.601 132.789 170.58 135.11 170.894 137.903" fill="#FFD5B6"/>
<path opacity="0.53" d="M172.818 158.317C175.879 155.878 177.881 152.299 179.412 148.719C179.883 147.579 180.236 146.556 180.393 145.455C180.668 146.005 180.903 146.595 180.942 147.264L181.217 151.119C181.099 151.827 180.903 152.456 180.785 152.928C178.548 161.227 173.21 164.925 169.128 166.577C169.167 165.633 169.285 164.138 169.403 162.289C170.855 161.07 171.954 159.733 172.818 158.317Z" fill="#FFB222"/>
<path d="M181.178 145.061C180.432 143.842 177.567 143.134 176.272 147.736C174.623 153.518 172.621 160.834 162.22 163.509V165.869C162.22 165.869 175.212 166.616 180.589 152.967C181.256 151.237 182.669 147.461 181.178 145.061Z" fill="#FFD222"/>
<path d="M161.71 163.823C161.71 163.823 160.925 162.919 160.532 162.722C160.532 162.722 158.805 161.424 158.531 161.267C158.531 161.267 158.099 161.542 158.452 162.053C158.845 162.565 159.433 163.037 159.433 163.037C159.433 163.037 158.491 162.958 157.981 162.722C157.432 162.447 156.372 161.975 156.019 162.093C155.665 162.211 155.901 162.565 155.901 162.565C155.901 162.565 157.549 163.312 157.903 163.509C158.217 163.666 158.06 163.745 158.06 163.745C158.06 163.745 156.019 163.351 155.626 163.273C155.273 163.194 155.077 163.391 155.116 163.745C155.116 163.745 156.215 163.981 156.882 164.177C157.118 164.256 157.942 164.335 157.824 164.61C157.824 164.61 156.019 164.453 155.705 164.374C155.391 164.295 155.194 164.531 155.351 164.846L157.785 165.239C157.785 165.239 157.942 165.318 157.863 165.397C157.785 165.475 156.647 165.672 156.529 165.672C156.411 165.672 156.019 165.672 156.019 165.987C156.019 165.987 156.058 166.105 156.411 166.105C156.804 166.105 158.57 166.223 158.57 166.223C158.57 166.223 159.708 166.419 160.964 165.947C162.22 165.475 162.299 164.925 161.906 165.593L161.788 164.846L161.71 163.823Z" fill="#FFD5B6"/>
<path d="M162.62 165.857H161.286V163.379H162.62V165.857Z" fill="#FFE622"/>
<path d="M79.7559 164.138C79.7559 164.138 80.5801 163.273 80.9726 163.115C80.9726 163.115 82.7781 161.935 83.0529 161.778C83.0529 161.778 83.4846 162.093 83.0529 162.565C82.6604 163.037 81.9931 163.509 81.9931 163.509C81.9931 163.509 82.9351 163.509 83.4846 163.273C84.0341 163.037 85.1331 162.604 85.4864 162.761C85.8396 162.919 85.6041 163.233 85.6041 163.233C85.6041 163.233 83.9164 163.902 83.5632 164.059C83.2492 164.177 83.3669 164.295 83.3669 164.295C83.3669 164.295 85.4471 164.02 85.8004 163.941C86.1536 163.902 86.3499 164.099 86.2714 164.453C86.2714 164.453 85.1724 164.61 84.5051 164.767C84.2696 164.807 83.4454 164.846 83.5239 165.121C83.5239 165.121 85.3294 165.082 85.6434 165.003C85.9574 164.964 86.1144 165.2 85.9574 165.515L83.5239 165.79C83.5239 165.79 83.3669 165.829 83.4454 165.947C83.5239 166.026 84.6229 166.301 84.7799 166.301C84.8976 166.301 85.2902 166.301 85.2509 166.655C85.2509 166.655 85.2117 166.773 84.8584 166.773C84.4659 166.773 82.6996 166.773 82.6996 166.773C82.6996 166.773 81.5221 166.891 80.3054 166.38C79.0886 165.829 79.0101 165.279 79.4026 165.987L79.5596 165.239L79.7559 164.138Z" fill="#FFD5B6"/>
<path d="M61.0727 145.533C61.8185 144.314 64.6837 143.606 66.0182 148.169C67.6667 153.951 69.747 161.227 80.1482 163.863V166.223C80.1482 166.223 67.1957 167.009 61.7007 153.439C61.0335 151.709 59.5812 147.933 61.0727 145.533Z" fill="#5421A0"/>
<path opacity="0.21" d="M196.839 211.141C196.839 213.108 213.755 214.681 234.676 214.681C255.557 214.681 272.513 213.108 272.513 211.141C272.513 209.175 255.596 207.601 234.676 207.601C213.795 207.601 196.839 209.175 196.839 211.141Z" fill="#008DCA"/>
<path d="M213.01 174.168C213.01 174.168 217.445 174.719 217.366 167.757C218.622 165.869 220.271 164.531 221.448 163.705V162.84C221.448 162.84 221.645 163.037 221.959 163.351C222.43 163.037 222.783 162.84 222.783 162.84L222.665 164.059C223.411 164.885 224.431 166.144 225.53 167.717C225.452 174.719 229.887 174.129 229.887 174.129L221.448 174.365V174.404L213.01 174.168Z" fill="#D0D2F2"/>
<path d="M225.727 170.431H217.17C217.249 169.999 217.327 169.527 217.327 169.015H225.53C225.57 169.527 225.648 169.999 225.727 170.431Z" fill="#BDC5F2"/>
<path d="M197.781 162.879V168.111C197.781 169.015 198.526 169.763 199.429 169.763H243.428C244.331 169.763 245.077 169.015 245.077 168.111V162.84" fill="#E1EFFF"/>
<path d="M199.547 140.341H243.35C244.331 140.341 245.116 141.128 245.116 142.111V163.351H197.82V142.111C197.781 141.128 198.566 140.341 199.547 140.341Z" fill="#230D45"/>
<path d="M220.193 166.498C220.428 166.065 220.86 165.79 221.37 165.79C222.116 165.79 222.705 166.38 222.705 167.127C222.705 167.875 222.116 168.465 221.37 168.465C220.86 168.465 220.428 168.189 220.193 167.757C219.957 167.285 219.996 166.891 220.193 166.498Z" fill="#CBD3E8"/>
<path d="M220.467 164.649C220.742 164.374 221.174 164.374 221.409 164.649C221.684 164.925 221.684 165.357 221.409 165.593L220.467 164.649Z" fill="#CBD3E8"/>
<path d="M212.421 174.089H230.437V174.837H212.421V174.089Z" fill="#E1EFFF"/>
<path d="M199.782 142.819H242.8V161.109H199.782V142.819Z" fill="#0080FF"/>
<path d="M204.689 143.606H232.595V155.485H204.689V143.606Z" fill="#5421A0"/>
<path d="M205.631 145.219H231.614V146.202H205.631V145.219Z" fill="#3FF8FF"/>
<path d="M205.631 148.837H231.614V149.821H205.631V148.837Z" fill="#3FF8FF"/>
<path d="M205.631 152.495H231.614V153.479H205.631V152.495Z" fill="#3FF8FF"/>
<path d="M202.53 150.961H222.469V159.418H202.53V150.961Z" fill="#3FF8FF"/>
<path d="M213.559 151.827H221.488V158.553H213.559V151.827Z" fill="#00C4FF"/>
<path d="M203.668 151.827H211.597V152.417H203.668V151.827Z" fill="#00C4FF"/>
<path d="M203.668 153.518H211.597V154.108H203.668V153.518Z" fill="#00C4FF"/>
<path d="M203.668 155.17H211.597V155.76H203.668V155.17Z" fill="#00C4FF"/>
<path d="M203.668 156.822H211.597V157.412H203.668V156.822Z" fill="#00C4FF"/>
<path d="M225.845 156.547H235.696V160.047H225.845V156.547Z" fill="#FF395F"/>
<path d="M201.706 146.753H209.595V155.209H201.706V146.753Z" fill="#FFE622"/>
<path d="M205.474 147.539H208.849V151.158H205.474V147.539Z" fill="#FFAB00"/>
<path d="M202.765 148.68H204.021V150.017H202.765V148.68Z" fill="#FFAB00"/>
<path d="M202.765 151.315H204.021V152.653H202.765V151.315Z" fill="#FFAB00"/>
<path d="M218.858 147.854H224.706V154.108H218.858V147.854Z" fill="#FFE622"/>
<path d="M219.525 148.562H224V148.798H219.525V148.562Z" fill="#5421A0"/>
<path d="M219.525 149.86H224V150.096H219.525V149.86Z" fill="#5421A0"/>
<path d="M219.525 151.197H224V151.433H219.525V151.197Z" fill="#5421A0"/>
<path d="M219.525 152.495H224V152.731H219.525V152.495Z" fill="#5421A0"/>
<path d="M206.376 176.174C206.219 176.292 201.902 180.658 201.902 180.658V176.174H206.376Z" fill="#FF9900"/>
<path d="M263.564 176.174C263.721 176.292 268.038 180.658 268.038 180.658V176.174H263.564Z" fill="#FF9900"/>
<path d="M266.821 176.764H268.313V211.141H266.821V176.764Z" fill="#FFAB00"/>
<path d="M266.821 208.152H268.313V211.141H266.821V208.152Z" fill="#010E66"/>
<path d="M270.673 176.775H197.707V174.611H270.673V176.775Z" fill="#FFBD00"/>
<path d="M203.105 211.148H201.613V176.771H203.105V211.148Z" fill="#FFAB00"/>
<path d="M203.105 211.138H201.613V208.149H203.105V211.138Z" fill="#010E66"/>
<path d="M234.597 191.947C234.597 191.947 234.597 201.072 243.075 209.371L243.585 208.073L239.307 191.16L234.597 191.947Z" fill="#001D4F"/>
<path d="M230.28 207.641L228.749 208.073L222.822 210.827H229.495L230.28 207.641Z" fill="#001329"/>
<path d="M243.742 207.641L242.212 208.073L236.285 210.827H242.957L243.742 207.641Z" fill="#001329"/>
<path d="M229.181 212.085C229.102 212.085 229.063 212.085 228.984 212.046C228.71 211.928 228.592 211.653 228.71 211.377L236.442 192.301C236.56 192.025 236.834 191.907 237.109 192.025C237.384 192.143 237.502 192.419 237.384 192.694L229.652 211.771C229.573 211.967 229.377 212.085 229.181 212.085Z" fill="#6A99FF"/>
<path d="M242.172 212.085C242.094 212.085 242.055 212.085 241.976 212.046C241.701 211.928 241.584 211.653 241.701 211.377L249.434 192.301C249.551 192.025 249.826 191.907 250.101 192.025C250.376 192.143 250.493 192.419 250.376 192.694L242.643 211.771C242.565 211.967 242.369 212.085 242.172 212.085Z" fill="#6A99FF"/>
<path d="M263.878 212.085C263.681 212.085 263.485 211.967 263.407 211.771L255.674 192.694C255.557 192.419 255.714 192.143 255.949 192.025C256.224 191.907 256.499 192.065 256.616 192.301L264.349 211.377C264.466 211.653 264.309 211.928 264.074 212.046C264.035 212.046 263.956 212.085 263.878 212.085Z" fill="#6A99FF"/>
<path d="M250.925 212.085C250.729 212.085 250.533 211.967 250.454 211.771L242.722 192.694C242.604 192.419 242.761 192.143 242.997 192.025C243.271 191.907 243.546 192.065 243.664 192.301L251.396 211.377C251.514 211.653 251.357 211.928 251.121 212.046C251.043 212.046 250.964 212.085 250.925 212.085Z" fill="#6A99FF"/>
<path d="M233.066 181.641L217.563 187.541L228.749 208.073L230.28 207.68C230.28 207.68 230.397 196.706 226.237 192.497H238.561L245.155 191.16L247 188.092L246.411 185.417L241.113 182.31" fill="#002D71"/>
<path d="M230.986 191.121H259.403V193.127C259.403 193.52 259.089 193.835 258.697 193.835H230.28V191.829C230.28 191.435 230.594 191.121 230.986 191.121Z" fill="white"/>
<path d="M241.387 142.701C241.584 142.387 241.741 142.033 241.858 141.718C243.664 141.679 246.843 141.954 247.393 144.511C247.393 144.511 252.181 148.326 246.529 153.321L244.763 153.518L242.212 151.394L238.718 146.517C238.718 146.517 238.326 146.517 237.816 146.359C239.268 145.455 240.524 144.196 241.387 142.701Z" fill="#182159"/>
<path d="M245.273 153.321C245.273 153.321 244.253 151.905 243.978 150.371C243.978 150.371 245.862 149.978 245.548 148.601C245.273 147.461 243.86 147.854 243.428 148.837V150.135C243.428 150.135 242.683 150.135 242.565 147.618L241.701 146.517H238.758C238.758 146.517 237.659 148.995 238.012 152.063C238.012 152.063 238.483 154.305 238.758 154.895H241.701V157.058L243.389 157.845L244.841 158.317L246.097 157.766L246.568 156.193V153.361H245.273V153.321Z" fill="#FFD5B6"/>
<path d="M241.858 146.792C241.858 146.792 239.464 147.618 237.031 147.028L237.816 146.399C237.816 146.399 234.911 145.337 235.892 140.735L241.27 141.718H241.858L241.662 143.96" fill="#182159"/>
<path d="M244.841 188.092C244.841 188.092 236.717 187.502 233.027 181.641C233.027 181.641 235.461 174.129 236.913 166.498C238.365 158.828 238.954 156.586 241.505 155.996C244.056 155.406 247.039 155.996 247.039 155.996C247.039 155.996 252.731 158.985 253.045 169.959C253.045 181.209 250.925 186.165 250.925 186.165L244.841 188.092Z" fill="#FF395F"/>
<path d="M243.193 191.121L248.256 172.87C248.256 172.87 250.69 164.767 259.442 164.767C267.528 164.767 264.466 174.089 264.466 174.089L259.442 191.081H243.193V191.121Z" fill="#DDE0FF"/>
<path d="M224.039 173.578C224.039 173.578 221.88 174.483 220.075 173.106H219.525L218.465 174.05H217.641L218.348 172.319L221.291 171.297H224.431L224.039 173.578Z" fill="#FFD5B6"/>
<path d="M241.427 157.648C241.427 157.648 244.841 158.002 243.546 163.312C242.212 168.779 237.816 173.46 237.816 173.46C237.816 173.46 230.123 175.073 223.686 173.893V171.021C223.686 171.021 230.28 171.1 234.95 169.409C234.95 169.409 237.502 162.722 238.169 160.519C238.797 158.356 239.896 157.373 241.427 157.648Z" fill="#5421A0"/>
<g opacity="0.2">
<path opacity="0.2" d="M190.48 126.535L226.787 126.496C228.278 126.496 229.495 125.277 229.495 123.782L229.456 85.1567C229.456 83.662 228.239 82.4427 226.747 82.4427L190.441 82.482C188.95 82.482 187.733 83.7014 187.733 85.196L187.772 123.821C187.733 125.316 188.95 126.535 190.48 126.535Z" fill="#00D6FF"/>
</g>
<g opacity="0.75">
<path opacity="0.75" d="M189.617 82.4427L227.532 82.4033C228.592 82.4033 229.456 83.2687 229.456 84.3307V89.5227L187.694 89.562V84.37C187.694 83.308 188.557 82.4427 189.617 82.4427Z" fill="#00E9FF"/>
</g>
<g opacity="0.81">
<g opacity="0.81">
<path opacity="0.81" d="M192.05 124.215L224.51 124.175C225.766 124.175 226.747 123.153 226.747 121.933L226.708 93.928C226.708 92.6693 225.688 91.686 224.471 91.686L192.011 91.7253C190.755 91.7253 189.774 92.748 189.774 93.9673L189.813 121.973C189.813 123.192 190.794 124.215 192.05 124.215Z" fill="#0071BC"/>
</g>
</g>
<g opacity="0.3">
<path opacity="0.3" d="M223.764 85.9827C223.764 87.0447 224.628 87.91 225.688 87.91C226.747 87.91 227.611 87.0447 227.611 85.9827C227.611 84.9207 226.747 84.0553 225.688 84.0553C224.589 84.0553 223.764 84.9207 223.764 85.9827Z" fill="#0042C0"/>
</g>
<g opacity="0.75">
<path opacity="0.75" d="M224.196 85.9827C224.196 86.8087 224.863 87.4773 225.687 87.4773C226.512 87.4773 227.179 86.8087 227.179 85.9827C227.179 85.1567 226.512 84.488 225.687 84.488C224.824 84.488 224.196 85.1567 224.196 85.9827Z" fill="#00E9FF"/>
</g>
<path d="M224.471 85.9827C224.471 86.6514 225.021 87.202 225.688 87.202C226.355 87.202 226.905 86.6514 226.905 85.9827C226.905 85.314 226.355 84.7634 225.688 84.7634C224.981 84.7634 224.471 85.314 224.471 85.9827Z" fill="#FF3D40"/>
<path d="M224.942 85.9827C224.942 86.376 225.256 86.6907 225.648 86.6907C226.041 86.6907 226.355 86.376 226.355 85.9827C226.355 85.5893 226.041 85.2747 225.648 85.2747C225.256 85.2353 224.942 85.55 224.942 85.9827Z" fill="#C32717"/>
<g opacity="0.3">
<path opacity="0.3" d="M218.191 85.9827C218.191 87.0447 219.054 87.91 220.114 87.91C221.174 87.91 222.037 87.0447 222.037 85.9827C222.037 84.9207 221.174 84.0553 220.114 84.0553C219.054 84.0553 218.191 84.9207 218.191 85.9827Z" fill="#0042C0"/>
</g>
<g opacity="0.75">
<path opacity="0.75" d="M218.623 85.9827C218.623 86.8087 219.29 87.4773 220.114 87.4773C220.938 87.4773 221.606 86.8087 221.606 85.9827C221.606 85.1567 220.938 84.488 220.114 84.488C219.29 84.488 218.623 85.1567 218.623 85.9827Z" fill="#00E9FF"/>
</g>
<path d="M218.897 85.9827C218.897 86.6514 219.447 87.202 220.114 87.202C220.781 87.202 221.331 86.6514 221.331 85.9827C221.331 85.314 220.781 84.7634 220.114 84.7634C219.447 84.7634 218.897 85.314 218.897 85.9827Z" fill="#FFCD00"/>
<path d="M219.368 85.9827C219.368 86.376 219.682 86.73 220.114 86.73C220.507 86.73 220.86 86.4153 220.86 85.9827C220.86 85.5893 220.546 85.2353 220.114 85.2353C219.722 85.2353 219.368 85.55 219.368 85.9827Z" fill="#FFA600"/>
<g opacity="0.3">
<path opacity="0.3" d="M212.617 85.9827C212.617 87.0447 213.481 87.91 214.541 87.91C215.6 87.91 216.464 87.0447 216.464 85.9827C216.464 84.9207 215.6 84.0553 214.541 84.0553C213.481 84.0553 212.617 84.9207 212.617 85.9827Z" fill="#0042C0"/>
</g>
<g opacity="0.75">
<path opacity="0.75" d="M213.049 85.9827C213.049 86.8087 213.716 87.4773 214.541 87.4773C215.365 87.4773 216.032 86.8087 216.032 85.9827C216.032 85.1567 215.365 84.488 214.541 84.488C213.716 84.488 213.049 85.1567 213.049 85.9827Z" fill="#00E9FF"/>
</g>
<path d="M213.324 85.9827C213.324 86.6514 213.873 87.202 214.541 87.202C215.208 87.202 215.757 86.6514 215.757 85.9827C215.757 85.314 215.208 84.7634 214.541 84.7634C213.873 84.7634 213.324 85.314 213.324 85.9827Z" fill="#40F988"/>
<path d="M213.834 85.9827C213.834 86.376 214.148 86.73 214.58 86.73C214.972 86.73 215.326 86.4153 215.326 85.9827C215.326 85.5893 215.012 85.2353 214.58 85.2353C214.148 85.2353 213.834 85.5893 213.834 85.9827Z" fill="#11AB6B"/>
<path d="M223.45 96.8387C223.529 96.8387 223.607 96.7993 223.647 96.76L225.138 95.2653C225.177 95.226 225.217 95.1473 225.217 95.0687C225.217 94.99 225.177 94.9113 225.138 94.872L223.647 93.3773C223.529 93.2593 223.372 93.2593 223.254 93.3773C223.136 93.4953 223.136 93.6527 223.254 93.7707L224.549 95.0687L223.254 96.3667C223.136 96.4847 223.136 96.642 223.254 96.76C223.293 96.7993 223.372 96.8387 223.45 96.8387Z" fill="#00DA8F"/>
<path d="M219.682 96.8387C219.761 96.8387 219.839 96.7993 219.878 96.76C219.996 96.642 219.996 96.4847 219.878 96.3667L218.583 95.0687L219.878 93.7707C219.996 93.6527 219.996 93.4953 219.878 93.3773C219.761 93.2593 219.604 93.2593 219.486 93.3773L217.994 94.872C217.877 94.99 217.877 95.1473 217.994 95.2653L219.486 96.76C219.564 96.7993 219.604 96.8387 219.682 96.8387Z" fill="#00DA8F"/>
<path d="M222.194 97.0747C222.234 97.0747 222.273 97.0747 222.273 97.0747C222.43 97.0354 222.469 96.878 222.43 96.7207L221.252 93.4953C221.213 93.338 221.056 93.2987 220.899 93.338C220.742 93.3773 220.703 93.5347 220.742 93.692L221.92 96.9174C221.998 97.0354 222.077 97.0747 222.194 97.0747Z" fill="#00DA8F"/>
<path d="M216.189 96.8387C216.189 97.0747 216.385 97.2713 216.621 97.2713C216.856 97.2713 217.052 97.0747 217.052 96.8387C217.052 96.6027 216.856 96.406 216.621 96.406C216.385 96.406 216.189 96.6027 216.189 96.8387Z" fill="#00DA8F"/>
<path d="M214.462 96.8387C214.462 97.0747 214.658 97.2713 214.894 97.2713C215.129 97.2713 215.326 97.0747 215.326 96.8387C215.326 96.6027 215.129 96.406 214.894 96.406C214.658 96.4454 214.462 96.6027 214.462 96.8387Z" fill="#00DA8F"/>
<path d="M212.696 96.8387C212.696 97.0747 212.892 97.2713 213.128 97.2713C213.363 97.2713 213.559 97.0747 213.559 96.8387C213.559 96.6027 213.363 96.406 213.128 96.406C212.892 96.4454 212.696 96.6027 212.696 96.8387Z" fill="#00DA8F"/>
<path d="M199.547 100.182L224.196 100.143C224.353 100.143 224.471 100.025 224.471 99.8673C224.471 99.71 224.353 99.592 224.196 99.592L199.547 99.6313C199.39 99.6313 199.272 99.7493 199.272 99.9067C199.272 100.064 199.39 100.182 199.547 100.182Z" fill="#00DA8F"/>
<path d="M195.701 100.182H196.839C196.996 100.182 197.114 100.064 197.114 99.9067C197.114 99.7493 196.996 99.6313 196.839 99.6313H195.701C195.544 99.6313 195.426 99.7493 195.426 99.9067C195.426 100.064 195.544 100.182 195.701 100.182Z" fill="#00DA8F"/>
<path d="M192.286 100.182H193.778C193.935 100.182 194.052 100.064 194.052 99.9067C194.052 99.7493 193.935 99.6313 193.778 99.6313H192.286C192.129 99.6313 192.011 99.7493 192.011 99.9067C192.011 100.064 192.129 100.182 192.286 100.182Z" fill="#00DA8F"/>
<path d="M206.848 103.722H224.196C224.353 103.722 224.471 103.604 224.471 103.447C224.471 103.289 224.353 103.171 224.196 103.171H206.848C206.691 103.171 206.573 103.289 206.573 103.447C206.612 103.565 206.73 103.722 206.848 103.722Z" fill="#00FCFF"/>
<path d="M201.627 103.722H202.687C202.844 103.722 202.962 103.604 202.962 103.447C202.962 103.289 202.844 103.171 202.687 103.171H201.627C201.47 103.171 201.353 103.289 201.353 103.447C201.353 103.604 201.47 103.722 201.627 103.722Z" fill="#00FCFF"/>
<path d="M206.848 105.728H209.595C209.752 105.728 209.87 105.61 209.87 105.453C209.87 105.295 209.752 105.177 209.595 105.177H206.848C206.691 105.177 206.573 105.295 206.573 105.453C206.612 105.61 206.73 105.728 206.848 105.728Z" fill="#00FCFF"/>
<path d="M211.793 105.728H214.541C214.698 105.728 214.815 105.61 214.815 105.453C214.815 105.295 214.698 105.177 214.541 105.177H211.793C211.636 105.177 211.518 105.295 211.518 105.453C211.518 105.61 211.636 105.728 211.793 105.728Z" fill="#00FCFF"/>
<path d="M217.288 105.728H220.036C220.193 105.728 220.31 105.61 220.31 105.453C220.31 105.295 220.193 105.177 220.036 105.177H217.288C217.131 105.177 217.013 105.295 217.013 105.453C217.013 105.61 217.131 105.728 217.288 105.728Z" fill="#00FCFF"/>
<path d="M197.702 108.206L220.036 108.167C220.193 108.167 220.31 108.049 220.31 107.891C220.31 107.734 220.193 107.616 220.036 107.616L197.702 107.655C197.545 107.655 197.428 107.773 197.428 107.931C197.428 108.088 197.545 108.206 197.702 108.206Z" fill="#FF4F92"/>
<path d="M223.215 105.728H224.196C224.353 105.728 224.471 105.61 224.471 105.453C224.471 105.295 224.353 105.177 224.196 105.177H223.215C223.058 105.177 222.94 105.295 222.94 105.453C222.94 105.61 223.058 105.728 223.215 105.728Z" fill="#00FCFF"/>
<path d="M223.215 108.206H224.196C224.353 108.206 224.471 108.088 224.471 107.931C224.471 107.773 224.353 107.655 224.196 107.655H223.215C223.058 107.655 222.94 107.773 222.94 107.931C222.94 108.088 223.058 108.206 223.215 108.206Z" fill="#00FCFF"/>
<path d="M223.215 110.645H224.196C224.353 110.645 224.471 110.527 224.471 110.369C224.471 110.212 224.353 110.094 224.196 110.094H223.215C223.058 110.094 222.94 110.212 222.94 110.369C222.94 110.527 223.058 110.645 223.215 110.645Z" fill="#00FCFF"/>
<path d="M223.215 113.123H224.196C224.353 113.123 224.471 113.005 224.471 112.847C224.471 112.69 224.353 112.572 224.196 112.572H223.215C223.058 112.572 222.94 112.69 222.94 112.847C222.94 113.005 223.058 113.123 223.215 113.123Z" fill="#00FCFF"/>
<path d="M212.774 110.684H220.153C220.31 110.684 220.428 110.566 220.428 110.409C220.428 110.251 220.31 110.133 220.153 110.133H212.774C212.617 110.133 212.5 110.251 212.5 110.409C212.5 110.566 212.617 110.684 212.774 110.684Z" fill="#FF4F92"/>
<path d="M212.774 113.201H220.153C220.31 113.201 220.428 113.083 220.428 112.926C220.428 112.769 220.31 112.651 220.153 112.651H212.774C212.617 112.651 212.5 112.769 212.5 112.926C212.5 113.083 212.617 113.201 212.774 113.201Z" fill="#FF4F92"/>
<path d="M212.774 115.758H220.153C220.31 115.758 220.428 115.64 220.428 115.483C220.428 115.325 220.31 115.207 220.153 115.207H212.774C212.617 115.207 212.5 115.325 212.5 115.483C212.5 115.64 212.617 115.758 212.774 115.758Z" fill="#FF4F92"/>
<path d="M212.774 118.275H220.153C220.31 118.275 220.428 118.157 220.428 118C220.428 117.843 220.31 117.725 220.153 117.725H212.774C212.617 117.725 212.5 117.843 212.5 118C212.5 118.157 212.617 118.275 212.774 118.275Z" fill="#FF4F92"/>
<path d="M196.839 118.275H205.003C205.16 118.275 205.278 118.157 205.278 118C205.278 117.843 205.16 117.725 205.003 117.725H196.839C196.682 117.725 196.564 117.843 196.564 118C196.603 118.157 196.721 118.275 196.839 118.275Z" fill="#FFD600"/>
<path d="M196.839 115.758H201.078C201.235 115.758 201.353 115.64 201.353 115.483C201.353 115.325 201.235 115.207 201.078 115.207H196.839C196.682 115.207 196.564 115.325 196.564 115.483C196.564 115.64 196.721 115.758 196.839 115.758Z" fill="#FFD600"/>
<path d="M196.839 113.162H200.725C200.882 113.162 201 113.044 201 112.887C201 112.729 200.882 112.611 200.725 112.611H196.839C196.682 112.611 196.564 112.729 196.564 112.887C196.564 113.044 196.682 113.162 196.839 113.162Z" fill="#FFD600"/>
<g opacity="0.2">
<path opacity="0.2" d="M223.254 137.942L243.271 137.903C244.213 137.903 244.959 137.155 244.959 136.211L244.92 96.8387C244.92 95.8947 244.174 95.1473 243.232 95.1473L223.175 95.1867C222.233 95.1867 221.488 95.934 221.488 96.878L221.527 136.251C221.605 137.195 222.351 137.942 223.254 137.942Z" fill="#00D6FF"/>
</g>
<g opacity="0.75">
<path opacity="0.75" d="M222.744 95.226L243.742 95.1867C244.41 95.1867 244.92 95.698 244.92 96.3667V99.5527L221.527 99.592V96.406C221.566 95.7373 222.076 95.226 222.744 95.226Z" fill="#00E9FF"/>
</g>
<g opacity="0.81">
<g opacity="0.81">
<path opacity="0.81" d="M224.235 136.526L241.898 136.487C242.643 136.487 243.271 135.857 243.271 135.11V102.227C243.271 101.48 242.643 100.851 241.898 100.851L224.235 100.89C223.489 100.89 222.861 101.519 222.861 102.267V135.149C222.861 135.897 223.45 136.526 224.235 136.526Z" fill="#0071BC"/>
</g>
</g>
<g opacity="0.3">
<path opacity="0.3" d="M241.427 97.3893C241.427 98.058 241.937 98.5693 242.604 98.5693C243.271 98.5693 243.782 98.058 243.782 97.3893C243.782 96.7207 243.271 96.2093 242.604 96.2093C241.976 96.2093 241.427 96.7207 241.427 97.3893Z" fill="#0042C0"/>
</g>
<g opacity="0.75">
<path opacity="0.75" d="M241.701 97.3894C241.701 97.9007 242.094 98.294 242.604 98.294C243.114 98.294 243.507 97.9007 243.507 97.3894C243.507 96.878 243.114 96.4847 242.604 96.4847C242.094 96.4454 241.701 96.878 241.701 97.3894Z" fill="#00E9FF"/>
</g>
<path d="M241.859 97.3893C241.859 97.7827 242.173 98.1367 242.604 98.1367C242.997 98.1367 243.35 97.822 243.35 97.3893C243.35 96.996 243.036 96.642 242.604 96.642C242.212 96.642 241.859 96.9567 241.859 97.3893Z" fill="#FF3D40"/>
<path d="M242.172 97.3893C242.172 97.6253 242.369 97.822 242.604 97.822C242.84 97.822 243.036 97.6253 243.036 97.3893C243.036 97.1534 242.84 96.9567 242.604 96.9567C242.369 96.9174 242.172 97.114 242.172 97.3893Z" fill="#C32717"/>
<g opacity="0.3">
<path opacity="0.3" d="M238.012 97.3893C238.012 98.058 238.522 98.5693 239.189 98.5693C239.857 98.5693 240.367 98.058 240.367 97.3893C240.367 96.7207 239.857 96.2093 239.189 96.2093C238.561 96.2093 238.012 96.7207 238.012 97.3893Z" fill="#0042C0"/>
</g>
<g opacity="0.75">
<path opacity="0.75" d="M238.287 97.3894C238.287 97.9007 238.679 98.294 239.19 98.294C239.7 98.294 240.092 97.9007 240.092 97.3894C240.092 96.878 239.7 96.4847 239.19 96.4847C238.679 96.4847 238.287 96.878 238.287 97.3894Z" fill="#00E9FF"/>
</g>
<path d="M238.444 97.3893C238.444 97.7827 238.797 98.1367 239.19 98.1367C239.582 98.1367 239.935 97.7827 239.935 97.3893C239.935 96.996 239.582 96.642 239.19 96.642C238.797 96.642 238.444 96.9567 238.444 97.3893Z" fill="#FFCD00"/>
<path d="M238.758 97.3893C238.758 97.6253 238.954 97.822 239.19 97.822C239.425 97.822 239.621 97.6253 239.621 97.3893C239.621 97.1534 239.425 96.9567 239.19 96.9567C238.954 96.9174 238.758 97.114 238.758 97.3893Z" fill="#FFA600"/>
<g opacity="0.3">
<path opacity="0.3" d="M234.597 97.3893C234.597 98.058 235.107 98.5693 235.775 98.5693C236.442 98.5693 236.952 98.058 236.952 97.3893C236.952 96.7207 236.442 96.2093 235.775 96.2093C235.147 96.2093 234.597 96.7207 234.597 97.3893Z" fill="#0042C0"/>
</g>
<g opacity="0.75">
<path opacity="0.75" d="M234.872 97.3894C234.872 97.9007 235.264 98.294 235.775 98.294C236.285 98.294 236.677 97.9007 236.677 97.3894C236.677 96.878 236.285 96.4847 235.775 96.4847C235.304 96.4847 234.872 96.878 234.872 97.3894Z" fill="#00E9FF"/>
</g>
<path d="M235.029 97.3893C235.029 97.7827 235.382 98.1367 235.775 98.1367C236.167 98.1367 236.521 97.7827 236.521 97.3893C236.521 96.996 236.167 96.642 235.775 96.642C235.382 96.642 235.029 96.9567 235.029 97.3893Z" fill="#40F988"/>
<path d="M235.343 97.3893C235.343 97.6253 235.539 97.822 235.775 97.822C236.01 97.822 236.207 97.6253 236.207 97.3893C236.207 97.1533 236.01 96.9567 235.775 96.9567C235.539 96.9173 235.343 97.1533 235.343 97.3893Z" fill="#11AB6B"/>
<path d="M241.231 104.037C241.27 104.037 241.309 104.037 241.348 103.997L242.251 103.093C242.29 103.053 242.29 103.014 242.29 102.975C242.29 102.935 242.29 102.896 242.251 102.857L241.348 101.952C241.27 101.873 241.191 101.873 241.113 101.952C241.034 102.031 241.034 102.109 241.113 102.188L241.898 102.975L241.113 103.761C241.034 103.84 241.034 103.919 241.113 103.997C241.152 104.037 241.191 104.037 241.231 104.037Z" fill="#FFD600"/>
<path d="M238.954 104.037C238.993 104.037 239.032 104.037 239.072 103.997C239.15 103.919 239.15 103.84 239.072 103.761L238.287 102.975L239.072 102.188C239.15 102.109 239.15 102.031 239.072 101.952C238.993 101.873 238.915 101.873 238.836 101.952L237.933 102.857C237.894 102.896 237.894 102.935 237.894 102.975C237.894 103.014 237.894 103.053 237.933 103.093L238.836 103.997C238.875 104.037 238.915 104.037 238.954 104.037Z" fill="#FFD600"/>
<path d="M240.485 104.194H240.524C240.603 104.155 240.642 104.076 240.642 103.997L239.896 101.991C239.857 101.913 239.778 101.873 239.7 101.913C239.621 101.952 239.582 102.031 239.582 102.109L240.328 104.115C240.367 104.155 240.406 104.194 240.485 104.194Z" fill="#FFD600"/>
<path d="M237.07 104.391C237.266 104.391 237.423 104.233 237.423 104.037C237.423 103.84 237.266 103.683 237.07 103.683C236.874 103.683 236.717 103.84 236.717 104.037C236.717 104.233 236.874 104.391 237.07 104.391ZM237.07 103.879C237.148 103.879 237.227 103.958 237.227 104.037C237.227 104.115 237.148 104.194 237.07 104.194C236.991 104.194 236.913 104.115 236.913 104.037C236.874 103.958 236.952 103.879 237.07 103.879Z" fill="#FFD600"/>
<path d="M235.971 104.391C236.049 104.391 236.167 104.351 236.206 104.273C236.285 104.194 236.324 104.115 236.324 104.037C236.324 103.958 236.285 103.879 236.206 103.801C236.128 103.722 236.049 103.683 235.971 103.683C235.775 103.683 235.618 103.84 235.618 104.037C235.618 104.115 235.657 104.194 235.735 104.273C235.814 104.351 235.892 104.391 235.971 104.391ZM235.971 103.879C236.01 103.879 236.049 103.879 236.089 103.919C236.128 103.958 236.128 103.997 236.128 104.037C236.128 104.076 236.128 104.115 236.089 104.155C236.049 104.194 236.01 104.194 235.971 104.194C235.932 104.194 235.892 104.194 235.853 104.155C235.814 104.115 235.814 104.076 235.814 104.037C235.814 103.958 235.892 103.879 235.971 103.879Z" fill="#FFD600"/>
<path d="M234.911 104.391C235.107 104.391 235.264 104.233 235.264 104.037C235.264 103.84 235.107 103.683 234.911 103.683C234.715 103.683 234.558 103.84 234.558 104.037C234.597 104.233 234.715 104.391 234.911 104.391ZM234.911 103.879C234.99 103.879 235.068 103.958 235.068 104.037C235.068 104.115 234.99 104.194 234.911 104.194C234.833 104.194 234.754 104.115 234.754 104.037C234.754 103.958 234.833 103.879 234.911 103.879Z" fill="#FFD600"/>
<path d="M226.59 106.082H241.701C241.78 106.082 241.858 106.003 241.858 105.925C241.858 105.846 241.78 105.767 241.701 105.767H226.59C226.512 105.767 226.433 105.846 226.433 105.925C226.433 106.043 226.512 106.082 226.59 106.082Z" fill="#00DA8F"/>
<path d="M232.752 124.765H241.701C241.78 124.765 241.858 124.687 241.858 124.608C241.858 124.529 241.78 124.451 241.701 124.451H232.752C232.674 124.451 232.595 124.529 232.595 124.608C232.595 124.687 232.674 124.765 232.752 124.765Z" fill="#00DA8F"/>
<path d="M232.752 126.693H241.701C241.78 126.693 241.858 126.614 241.858 126.535C241.858 126.457 241.78 126.378 241.701 126.378H232.752C232.674 126.378 232.595 126.457 232.595 126.535C232.595 126.614 232.674 126.693 232.752 126.693Z" fill="#00DA8F"/>
<path d="M232.752 128.62H241.701C241.78 128.62 241.858 128.541 241.858 128.463C241.858 128.384 241.78 128.305 241.701 128.305H232.752C232.674 128.305 232.595 128.384 232.595 128.463C232.595 128.581 232.674 128.62 232.752 128.62Z" fill="#00DA8F"/>
<path d="M232.752 130.587H241.701C241.78 130.587 241.858 130.508 241.858 130.429C241.858 130.351 241.78 130.272 241.701 130.272H232.752C232.674 130.272 232.595 130.351 232.595 130.429C232.595 130.508 232.674 130.587 232.752 130.587Z" fill="#00DA8F"/>
<path d="M232.752 132.514H241.701C241.78 132.514 241.858 132.435 241.858 132.357C241.858 132.278 241.78 132.199 241.701 132.199H232.752C232.674 132.199 232.595 132.278 232.595 132.357C232.595 132.435 232.674 132.514 232.752 132.514Z" fill="#00DA8F"/>
<path d="M232.752 134.481H241.701C241.78 134.481 241.858 134.402 241.858 134.323C241.858 134.245 241.78 134.166 241.701 134.166H232.752C232.674 134.166 232.595 134.245 232.595 134.323C232.595 134.402 232.674 134.481 232.752 134.481Z" fill="#00DA8F"/>
<path d="M224.235 106.082H224.942C225.02 106.082 225.099 106.003 225.099 105.925C225.099 105.846 225.02 105.767 224.942 105.767H224.235C224.157 105.767 224.078 105.846 224.078 105.925C224.078 106.043 224.118 106.082 224.235 106.082Z" fill="#00DA8F"/>
<path d="M231.065 108.245H241.701C241.78 108.245 241.858 108.167 241.858 108.088C241.858 108.009 241.78 107.931 241.701 107.931H231.065C230.986 107.931 230.908 108.009 230.908 108.088C230.908 108.206 230.986 108.245 231.065 108.245Z" fill="#00FCFF"/>
<path d="M227.846 108.285H228.513C228.592 108.285 228.67 108.206 228.67 108.127C228.67 108.049 228.592 107.97 228.513 107.97H227.846C227.768 107.97 227.689 108.049 227.689 108.127C227.689 108.206 227.768 108.285 227.846 108.285Z" fill="#00FCFF"/>
<path d="M231.065 109.504H232.752C232.831 109.504 232.909 109.425 232.909 109.347C232.909 109.268 232.831 109.189 232.752 109.189H231.065C230.986 109.189 230.908 109.268 230.908 109.347C230.908 109.425 230.986 109.504 231.065 109.504Z" fill="#00FCFF"/>
<path d="M234.087 109.504H235.775C235.853 109.504 235.932 109.425 235.932 109.347C235.932 109.268 235.853 109.189 235.775 109.189H234.087C234.008 109.189 233.93 109.268 233.93 109.347C233.93 109.425 234.008 109.504 234.087 109.504Z" fill="#00FCFF"/>
<path d="M237.462 109.504H239.15C239.229 109.504 239.307 109.425 239.307 109.347C239.307 109.268 239.229 109.189 239.15 109.189H237.462C237.384 109.189 237.305 109.268 237.305 109.347C237.305 109.425 237.384 109.504 237.462 109.504Z" fill="#00FCFF"/>
<path d="M225.452 111.038H239.15C239.229 111.038 239.307 110.959 239.307 110.881C239.307 110.802 239.229 110.723 239.15 110.723H225.452C225.373 110.723 225.295 110.802 225.295 110.881C225.295 110.959 225.334 111.038 225.452 111.038Z" fill="#FF4F92"/>
<path d="M241.113 109.504H241.741C241.819 109.504 241.898 109.425 241.898 109.347C241.898 109.268 241.819 109.189 241.741 109.189H241.113C241.034 109.189 240.956 109.268 240.956 109.347C240.916 109.425 240.995 109.504 241.113 109.504Z" fill="#00FCFF"/>
<path d="M241.113 111.038H241.741C241.819 111.038 241.898 110.959 241.898 110.881C241.898 110.802 241.819 110.723 241.741 110.723H241.113C241.034 110.723 240.956 110.802 240.956 110.881C240.916 110.959 240.995 111.038 241.113 111.038Z" fill="#00FCFF"/>
<path d="M241.113 112.533H241.741C241.819 112.533 241.898 112.454 241.898 112.375C241.898 112.297 241.819 112.218 241.741 112.218H241.113C241.034 112.218 240.956 112.297 240.956 112.375C240.956 112.454 240.995 112.533 241.113 112.533Z" fill="#00FCFF"/>
<path d="M241.113 114.067H241.741C241.819 114.067 241.898 113.988 241.898 113.909C241.898 113.831 241.819 113.752 241.741 113.752H241.113C241.034 113.752 240.956 113.831 240.956 113.909C240.956 113.988 240.995 114.067 241.113 114.067Z" fill="#00FCFF"/>
<path d="M234.676 112.533H239.189C239.268 112.533 239.346 112.454 239.346 112.375C239.346 112.297 239.268 112.218 239.189 112.218H234.676C234.597 112.218 234.519 112.297 234.519 112.375C234.519 112.454 234.597 112.533 234.676 112.533Z" fill="#FF4F92"/>
<path d="M234.676 114.106H239.189C239.268 114.106 239.346 114.027 239.346 113.949C239.346 113.87 239.268 113.791 239.189 113.791H234.676C234.597 113.791 234.519 113.87 234.519 113.949C234.519 114.027 234.597 114.106 234.676 114.106Z" fill="#FF4F92"/>
<path d="M234.676 115.64H239.189C239.268 115.64 239.346 115.561 239.346 115.483C239.346 115.404 239.268 115.325 239.189 115.325H234.676C234.597 115.325 234.519 115.404 234.519 115.483C234.519 115.561 234.597 115.64 234.676 115.64Z" fill="#FF4F92"/>
<path d="M234.676 117.213H239.189C239.268 117.213 239.346 117.135 239.346 117.056C239.346 116.977 239.268 116.899 239.189 116.899H234.676C234.597 116.899 234.519 116.977 234.519 117.056C234.519 117.135 234.597 117.213 234.676 117.213Z" fill="#FF4F92"/>
<path d="M232.752 122.366C232.831 122.366 232.909 122.287 232.909 122.209C232.909 122.13 232.831 122.051 232.752 122.051H224.745C224.667 122.051 224.588 122.13 224.588 122.209C224.588 122.287 224.667 122.366 224.745 122.366H232.752Z" fill="#FF4F92"/>
<path d="M227.375 123.861C227.454 123.861 227.532 123.782 227.532 123.703C227.532 123.625 227.454 123.546 227.375 123.546H224.745C224.667 123.546 224.588 123.625 224.588 123.703C224.588 123.782 224.667 123.861 224.745 123.861H227.375Z" fill="#FF4F92"/>
<path d="M227.375 125.434C227.454 125.434 227.532 125.355 227.532 125.277C227.532 125.198 227.454 125.119 227.375 125.119H224.745C224.667 125.119 224.588 125.198 224.588 125.277C224.588 125.355 224.667 125.434 224.745 125.434H227.375Z" fill="#FF4F92"/>
<path d="M227.375 126.968C227.454 126.968 227.532 126.889 227.532 126.811C227.532 126.732 227.454 126.653 227.375 126.653H224.745C224.667 126.653 224.588 126.732 224.588 126.811C224.588 126.889 224.667 126.968 224.745 126.968H227.375Z" fill="#FF4F92"/>
<path d="M227.375 128.541C227.454 128.541 227.532 128.463 227.532 128.384C227.532 128.305 227.454 128.227 227.375 128.227H224.745C224.667 128.227 224.588 128.305 224.588 128.384C224.588 128.463 224.667 128.541 224.745 128.541H227.375Z" fill="#FF4F92"/>
<path d="M224.942 117.213H229.926C230.005 117.213 230.083 117.135 230.083 117.056C230.083 116.977 230.005 116.899 229.926 116.899H224.942C224.863 116.899 224.785 116.977 224.785 117.056C224.745 117.135 224.824 117.213 224.942 117.213Z" fill="#FFD600"/>
<path d="M232.125 120.085H237.109C237.188 120.085 237.266 120.006 237.266 119.927C237.266 119.849 237.188 119.77 237.109 119.77H232.125C232.046 119.77 231.968 119.849 231.968 119.927C231.968 120.006 232.007 120.085 232.125 120.085Z" fill="#FFD600"/>
<path d="M232.125 121.029H237.109C237.188 121.029 237.266 120.95 237.266 120.871C237.266 120.793 237.188 120.714 237.109 120.714H232.125C232.046 120.714 231.968 120.793 231.968 120.871C231.968 120.95 232.007 121.029 232.125 121.029Z" fill="#FFD600"/>
<path d="M224.942 115.679H227.532C227.611 115.679 227.689 115.601 227.689 115.522C227.689 115.443 227.611 115.365 227.532 115.365H224.942C224.863 115.365 224.785 115.443 224.785 115.522C224.745 115.601 224.824 115.679 224.942 115.679Z" fill="#FFD600"/>
<path d="M224.942 114.067H227.336C227.414 114.067 227.493 113.988 227.493 113.909C227.493 113.831 227.414 113.752 227.336 113.752H224.942C224.863 113.752 224.785 113.831 224.785 113.909C224.745 113.988 224.824 114.067 224.942 114.067Z" fill="#FFD600"/>
<path d="M230.829 115.679H233.42C233.498 115.679 233.577 115.601 233.577 115.522C233.577 115.443 233.498 115.365 233.42 115.365H230.829C230.751 115.365 230.672 115.443 230.672 115.522C230.672 115.601 230.751 115.679 230.829 115.679Z" fill="#FFD600"/>
<path d="M230.829 114.067H233.223C233.302 114.067 233.38 113.988 233.38 113.909C233.38 113.831 233.302 113.752 233.223 113.752H230.829C230.751 113.752 230.672 113.831 230.672 113.909C230.672 113.988 230.751 114.067 230.829 114.067Z" fill="#FFD600"/>
<path d="M228.984 115.679H229.809C229.887 115.679 229.966 115.601 229.966 115.522C229.966 115.443 229.887 115.365 229.809 115.365H228.984C228.906 115.365 228.827 115.443 228.827 115.522C228.827 115.601 228.906 115.679 228.984 115.679Z" fill="#FFD600"/>
<path d="M228.984 114.067H229.73C229.809 114.067 229.887 113.988 229.887 113.909C229.887 113.831 229.809 113.752 229.73 113.752H228.984C228.906 113.752 228.827 113.831 228.827 113.909C228.827 113.988 228.906 114.067 228.984 114.067Z" fill="#FFD600"/>
<path d="M230.005 130.508H230.829C230.908 130.508 230.986 130.429 230.986 130.351C230.986 130.272 230.908 130.193 230.829 130.193H230.005C229.927 130.193 229.848 130.272 229.848 130.351C229.848 130.429 229.927 130.508 230.005 130.508Z" fill="#FFD600"/>
<path d="M230.005 128.895H230.751C230.829 128.895 230.908 128.817 230.908 128.738C230.908 128.659 230.829 128.581 230.751 128.581H230.005C229.926 128.581 229.848 128.659 229.848 128.738C229.848 128.856 229.926 128.895 230.005 128.895Z" fill="#FFD600"/>
<path d="M230.005 134.087H230.829C230.908 134.087 230.986 134.009 230.986 133.93C230.986 133.851 230.908 133.773 230.829 133.773H230.005C229.927 133.773 229.848 133.851 229.848 133.93C229.848 134.009 229.927 134.087 230.005 134.087Z" fill="#FFD600"/>
<path d="M230.005 132.475H230.751C230.829 132.475 230.908 132.396 230.908 132.317C230.908 132.239 230.829 132.16 230.751 132.16H230.005C229.926 132.16 229.848 132.239 229.848 132.317C229.848 132.396 229.926 132.475 230.005 132.475Z" fill="#FFD600"/>
<path d="M228.082 134.087H228.906C228.984 134.087 229.063 134.009 229.063 133.93C229.063 133.851 228.984 133.773 228.906 133.773H228.082C228.003 133.773 227.925 133.851 227.925 133.93C227.925 134.009 228.003 134.087 228.082 134.087Z" fill="#FFD600"/>
<path d="M228.082 132.475H228.827C228.906 132.475 228.984 132.396 228.984 132.317C228.984 132.239 228.906 132.16 228.827 132.16H228.082C228.003 132.16 227.925 132.239 227.925 132.317C227.925 132.396 228.003 132.475 228.082 132.475Z" fill="#FFD600"/>
<path d="M226.198 134.087H227.022C227.1 134.087 227.179 134.009 227.179 133.93C227.179 133.851 227.1 133.773 227.022 133.773H226.198C226.119 133.773 226.041 133.851 226.041 133.93C226.041 134.009 226.08 134.087 226.198 134.087Z" fill="#FFD600"/>
<path d="M226.198 132.475H226.944C227.022 132.475 227.101 132.396 227.101 132.317C227.101 132.239 227.022 132.16 226.944 132.16H226.198C226.119 132.16 226.041 132.239 226.041 132.317C226.002 132.396 226.08 132.475 226.198 132.475Z" fill="#FFD600"/>
<path d="M224.274 134.087H225.099C225.177 134.087 225.256 134.009 225.256 133.93C225.256 133.851 225.177 133.773 225.099 133.773H224.274C224.196 133.773 224.117 133.851 224.117 133.93C224.117 134.009 224.196 134.087 224.274 134.087Z" fill="#FFD600"/>
<path d="M224.274 132.475H225.02C225.099 132.475 225.177 132.396 225.177 132.317C225.177 132.239 225.099 132.16 225.02 132.16H224.274C224.196 132.16 224.118 132.239 224.118 132.317C224.118 132.396 224.196 132.475 224.274 132.475Z" fill="#FFD600"/>
<path opacity="0.09" d="M105.308 220.306C105.308 221.997 108.369 223.335 112.137 223.335C115.905 223.335 118.967 221.958 118.967 220.306C118.967 218.615 115.905 217.277 112.137 217.277C108.369 217.277 105.308 218.615 105.308 220.306Z" fill="#008DCA"/>
<path d="M105.347 211.967L106.446 212.243C107.467 211.299 109.625 210.669 112.098 210.669C114.61 210.669 116.73 211.338 117.75 212.243L118.849 211.967L118.339 220.07C117.986 221.447 115.317 222.548 112.098 222.548C108.88 222.548 106.211 221.486 105.857 220.07L105.347 211.967Z" fill="#BBEAFF"/>
<path d="M116.612 218.929V220.267C116.612 220.267 115.513 220.857 113.55 220.857V219.519C113.55 219.519 115.16 219.598 116.612 218.929Z" fill="#C8F1FF"/>
<path d="M105.308 211.535C105.308 213.226 108.369 214.563 112.137 214.563C115.905 214.563 118.967 213.187 118.967 211.535C118.967 209.843 115.905 208.506 112.137 208.506C108.369 208.467 105.308 209.843 105.308 211.535Z" fill="#DAFAFF"/>
<path d="M106.799 211.22C106.799 212.518 109.194 213.58 112.137 213.58C115.081 213.58 117.475 212.518 117.475 211.22C117.475 209.922 115.081 208.86 112.137 208.86C109.194 208.821 106.799 209.883 106.799 211.22Z" fill="#ADDFFF"/>
<path d="M112.373 211.849L124.776 200.443C124.776 200.443 124.894 202.999 123.206 204.337C121.518 205.674 120.184 205.202 119.948 207.326C119.752 209.45 118.3 210.669 117.044 210.827C114.492 211.259 113.904 212.636 112.373 211.849Z" fill="#FFCC00"/>
<path d="M112.373 211.849L124.776 200.443C124.776 200.443 122.264 200.128 120.772 201.701C119.281 203.275 119.634 204.651 117.514 204.691C115.395 204.73 114.06 206.028 113.786 207.287C113.158 209.804 111.745 210.276 112.373 211.849Z" fill="#FFBD00"/>
<path d="M112.137 212.007V169.212C112.137 169.212 117.083 173.381 116.73 178.888C116.376 184.355 113.158 186.086 116.73 190.137C120.341 194.189 120.144 198.909 118.339 201.583C114.649 207.011 116.18 210.473 112.137 212.007Z" fill="#00FBED"/>
<path d="M112.137 212.007V169.212C112.137 169.212 107.192 173.381 107.545 178.888C107.898 184.355 111.117 186.086 107.545 190.137C103.934 194.189 104.13 198.909 105.936 201.583C109.586 207.011 108.055 210.473 112.137 212.007Z" fill="#00EEEE"/>
<path d="M110.371 212.085L101.54 185.417C101.54 185.417 105.465 186.991 106.407 190.491C107.31 193.992 105.661 195.723 108.723 197.493C111.784 199.263 112.648 202.252 112.098 204.297C110.881 208.427 112.569 210.276 110.371 212.085Z" fill="#ED2C51"/>
<path d="M110.371 212.085L101.54 185.417C101.54 185.417 99.3418 189.036 100.676 192.379C102.05 195.723 104.405 196.116 102.992 199.381C101.579 202.645 102.678 205.556 104.366 206.854C107.741 209.489 107.506 211.967 110.371 212.085Z" fill="#C71E44"/>
</svg>
