<?xml version="1.0" encoding="utf-8"?>
<!-- Generator: Adobe Illustrator 22.1.0, SVG Export Plug-In . SVG Version: 6.00 Build 0)  -->
<svg version="1.1" id="Слой_1" xmlns="http://www.w3.org/2000/svg" xmlns:xlink="http://www.w3.org/1999/xlink" x="0px" y="0px"
	 viewBox="0 0 125 156" style="enable-background:new 0 0 125 156;" xml:space="preserve">
<style type="text/css">
	.st0{clip-path:url(#SVGID_2_);}
	.st1{fill:#181715;}
	.st2{fill:#333130;}
	.st3{fill:#292524;}
	.st4{fill:#785521;}
	.st5{fill:#855534;}
	.st6{opacity:0.2;fill:#855534;enable-background:new    ;}
	.st7{fill:#B07D5A;}
	.st8{fill:#FFF2E1;}
	.st9{fill:#FAE8CA;}
	.st10{fill:#FFC191;}
	.st11{fill:#F2B17E;}
	.st12{fill:#9E6C4A;}
	.st13{fill:#FFDC48;}
	.st14{opacity:0.5;fill:#333130;enable-background:new    ;}
	.st15{opacity:0.1;fill:#9E6C4A;enable-background:new    ;}
</style>
<g>
	<defs>
		<rect id="SVGID_1_" y="12" width="125" height="144"/>
	</defs>
	<clipPath id="SVGID_2_">
		<use xlink:href="#SVGID_1_"  style="overflow:visible;"/>
	</clipPath>
	<g class="st0">
		<path class="st1" d="M36.3,115.6H7v4.2h29.3V115.6z"/>
		<path class="st1" d="M36,96.1h-2.8v52.2H36V96.1z"/>
		<path class="st1" d="M33.2,100.9v47.5l-0.9-2.1v-45.4H33.2z"/>
		<path class="st1" d="M9.9,96.1H7v52.2h2.8V96.1z"/>
		<path class="st1" d="M9.9,100.9v47.5l0.9-2.1v-45.4H9.9z"/>
		<path class="st2" d="M7.2,94.9H3.9v60.8h3.3V94.9z"/>
		<path class="st3" d="M7.2,100.5v55.2l1-2.2v-53H7.2z"/>
		<path class="st2" d="M39.3,94.9H36v60.8h3.3V94.9z"/>
		<path class="st3" d="M36,100.5v55.2l-1-2.2v-53H36z"/>
		<path class="st4" d="M113.8,156l-1-2.5V91.2l1-1.8V156z"/>
		<path class="st4" d="M100.5,118.9l-0.9-1.8V72.9l0.9-1.2V118.9z"/>
		<path class="st3" d="M67.4,26.1c-1.8,4.2-10.2,16-11.1,18.1c-1,1.9-7.9-8.2-7.9-8.2l12.1-14.4L67.4,26.1z"/>
		<path class="st2" d="M6,82.8H2.7v15.7H6V82.8z"/>
		<path class="st3" d="M2.7,82.8H1.5v15.7h1.2V82.8z"/>
		<path class="st5" d="M6.9,86.8l-1.9,0.7c-2.7,1-4.9,0.1-4.9-2.1v-41c0-2.2,2.2-3.1,4.9-2.1l1.9,0.7c2.2,0.9,3.9,3.1,3.9,4.9v33.7
			C10.8,83.7,9.1,85.9,6.9,86.8z"/>
		<path class="st6" d="M3.9,84.2V45.8c0-1.9,1.6-2.8,3.6-2.2c-0.3-0.1-0.4-0.3-0.7-0.3l-1.9-0.7C2.2,41.3,0,42.2,0,44.5v41
			c0,2.2,2.2,3.1,4.9,2.1l1.9-0.7c0.3-0.1,0.4-0.3,0.7-0.3C5.5,86.8,3.9,85.9,3.9,84.2z"/>
		<path class="st5" d="M40.3,101.5H3.7C1.2,101.5,0,99.4,1,97l1.2-2.5C3.1,92.5,5.5,91,7.5,91h29.1c2.1,0,4.5,1.5,5.2,3.4L43,97
			C44.1,99.4,43,101.5,40.3,101.5z"/>
		<path class="st6" d="M39.3,98.4H4.9c-2.4,0-3.6-1.8-2.7-3.9L1,97c-1,2.4,0,4.5,2.7,4.5h36.6c2.5,0,3.7-2.1,2.7-4.5l-1.2-2.5
			C42.7,96.6,41.7,98.4,39.3,98.4z"/>
		<path class="st7" d="M103.3,82.7H64.2v2.1h39.1V82.7z"/>
		<path class="st7" d="M103.3,87.1H64.2v2.1h39.1V87.1z"/>
		<path class="st5" d="M63.3,66.9h-3.1v51.9h3.1V66.9z"/>
		<path class="st5" d="M63.2,66.9h-1v51.9h1V66.9z"/>
		<path class="st5" d="M103.6,66.9h-3.1v51.9h3.1V66.9z"/>
		<path class="st5" d="M103.6,66.9h-1v51.9h1V66.9z"/>
		<path class="st1" d="M65.7,141c-1.2-2.8-6.9,3.6-8.4,0.1c0,0-0.7-1-1,3.3c0,0.7,0,1.2,0.1,1.8l-0.1,1.2c0,0.4,0.1,0.7,0.6,0.9
			l4.6,0.7c0.4,0,0.7-0.1,0.9-0.6v-0.2c0.6,0,1.2,0,1.6,0c0.7,0,1.2,0.7,2.7,1.2c3.3,0.7,9.7,0.9,10.2-0.4
			C78,145.2,67.2,144.9,65.7,141z"/>
		<path class="st1" d="M57.6,144.8c-1.2-2.8-6.9,3.6-8.4,0.2c0,0-0.7-1-1,3.3c0,0.7,0,1.2,0.1,1.8l-0.1,1.2c0,0.4,0.1,0.7,0.6,0.9
			l4.6,0.7c0.4,0,0.7-0.1,0.9-0.6v-0.1c0.6,0,1.2,0,1.6,0c0.7,0,1.2,0.7,2.7,1.2c3.3,0.7,9.7,0.9,10.2-0.4
			C69.9,149,59.3,148.7,57.6,144.8z"/>
		<path class="st3" d="M12.1,79.7c0.3-3.1,1.9-7,3.6-10.5c9.4,7.5,19.7,6.7,17.6,7.8c7.5,3,4.2-2.8,6.1-1.6
			c4.3,2.8,24.8,7.3,24.8,19.8c0,0,5.1,35.3,4.6,46.1c-0.1,4.8-6.6,4.6-15.1,6c-4.3,0.6-9.6,1.6-9.9-1.2c0,0,1.2-42.5,1.3-45.7
			c0,0-20-2.2-25.1-4.2C15.1,94.3,11.1,89.1,12.1,79.7z"/>
		<path class="st2" d="M59.9,48.5c-0.4-0.1-0.7-0.1-0.7-0.1c-0.3-0.7-5.2-13-10.3-18V41c0,0,3.3,11.4,4.9,13.2
			c0.4,0.6,1.3,0.9,2.4,1C57.6,52.7,58.1,50.8,59.9,48.5z"/>
		<path class="st7" d="M42.7,72.8l14.9-21.3h40.5L125,72.8H42.7z"/>
		<path class="st8" d="M56.9,61.1l2.2,4.2l23.7-0.9l-8.8-8.7L56.2,59L56.9,61.1z"/>
		<path class="st9" d="M59.1,65.3L59,66.6l23.7-0.4l0.1-1.8L59.1,65.3z"/>
		<path class="st9" d="M55.7,61.1l3.3,5.5l0.1-1.3l-2.2-4.2H55.7z"/>
		<path class="st8" d="M56.9,62.9l-3-6.3l0.3-1.3l17.9-2.5l3.1,4.6L56.9,62.9z"/>
		<path class="st3" d="M38.7,27c-3.1,1.5-8.5,2.1-12.8,12.1c-4.3,10.2-5.8,21-7.9,25.4s-5.7,9.6-2.7,15.7c3.1,6.1,26-3.7,26-3.7
			s-0.9-3.4,2.4-8.4c3-4.3,9.6-10.9,10-14.1c0.4-3.1-0.9-9.6-1.3-12.7c-0.4-3.1-1.9-9.3-6.1-10.6C42.1,29.4,38.7,27,38.7,27z"/>
		<path class="st3" d="M53.8,54.1c0.4-3.1-0.9-9.6-1.3-12.7c-0.3-2.4-1.2-6.4-3.4-8.8h-8.7c0,8.8-17.8,33.2-12.5,49.7
			c7.3-1,25.4,2.1,25.4,2.1s-4.3-3.1-7.3-5.7c-2.1-1.8-7.2-4.6-4.5-8.4C44.4,65.9,53.3,57.2,53.8,54.1z"/>
		<path class="st8" d="M50,34.6l4.8-8.5L52,19.6c0,0-4.8,2.5-5.8,4.5c-1,1.9-4.5,3.3-4.5,3.3s-3.4,1.3-2.4,4.9
			c1.5,5.7,6.9,10.8,10.6,9.9c1.2-0.3,1.5-1.6,1.5-2.8C51.1,37.7,50.5,36.4,50,34.6C50,34.6,49.9,34.8,50,34.6z"/>
		<path class="st9" d="M46,25.2c-0.3,0-0.4,0-0.7-0.1c-1.5,1.3-3.7,2.4-3.7,2.4s-3.4,1.3-2.4,4.9c1.5,5.7,6.9,10.8,10.6,9.9
			c1-0.3,1.3-1.2,1.5-2.4c-0.1,0.7-0.7,1.9-4,1c-4.3-1.2-6-7.3-6-7.3s4.9-0.7,5.7-2.4c0-0.1,1.3,2.4,3.1,3.3l2.8-4.9
			C50.9,27.9,48.1,25.6,46,25.2z"/>
		<path class="st3" d="M49.6,17.1c-1,1-2.1,2.1-2.5,3.4c-0.6,1.5-2.2,3.9-3.1,4c0,0,1,0.9,2.2,0.6c0,0,0,0.9,2.5,0.7
			c0,0,1.8-0.3,2.5-1.2c0.6-0.7-0.3-3.7,0.7-4.2c1-0.3,0-2.5,0-2.5L49.6,17.1z"/>
		<path class="st10" d="M48.2,29.5c0.1,2.1,2.5,7.2,4.5,7.2c1.5,0,0.9-1.2,2.2-0.9c0.7,0.1,0.7-0.4,0.9-0.3c0.4,0.1,0.6-0.1,1-0.6
			c1.3-1,2.2,0.6,2.8-0.1c0.6-0.9,1.2-3.4,1.6-3.6c0.4-0.1,1.9,0,2.4-0.9c0.3-0.4,2.4-2.4,2.2-3.6c-0.1-1.2-2.5-1.6-3.3-2.4
			c-1.3-1.6-5.5-1.6-7-1.2c0,0-2.5-3.9-3.1-3.6C52,19.8,50.3,21,50.5,22c0.1,1-0.3,2.1,0.4,2.5C51.1,24.3,47.9,26.8,48.2,29.5z"/>
		<path class="st3" d="M51.1,19.2c0,0,0.4,3.9,2.8,4.2s4.3,1.9,7,2.7c2.7,0.7,0.9,0.7,1.5,2.2c0.7,1.5,3.4,0,3.4,0s0.4-1.2,0.3-1
			c0,0,0.7,0.3,1.6-2.5c0.9-2.8-2.1-2.2-5.4-3.6C59.3,19.8,52,18,52,18L51.1,19.2z"/>
		<path class="st11" d="M63,55.1c3.3,0,6.6-0.6,8.2,0.7c1.6,1.3,1.6,0,2.4,0.9c0.7,0.7,1.6,0.6,2.7,1.6c1,1,1.8,1.2,1.8,0.7
			c0-0.4,0.4-2.7,0-4.6c-0.4-1.9-1.5-1.3-1.8-2.5c-0.4-1.2-2.1-0.7-3.1-1.2c-1-0.4-3,0.7-8.5-1.2c-4-1.5-5.5-1.2-5.5-1.2
			c-6,1.6-5.4,5.8-5.4,5.8C55.3,55.9,59.7,55.1,63,55.1z"/>
		<path class="st9" d="M54.2,55.3l3,5.5l-1.5-0.3l-1.8-3.9L54.2,55.3z"/>
		<path class="st3" d="M48.2,18.6c2.1-2.5,4.5-6,8.5-6s2.5,0.7,2.5,0.7s4.9-1.5,7.6,3.1c2.8,4.6,0.3,11.1-1,11.7
			c-1.2,0.7-1.6-4.3-1.6-4.3l-7-2.4L50.5,19L48.2,18.6z"/>
		<path class="st2" d="M40.5,57.1c-0.9,0.1-1.3,0.1-1.3,0.1s1.6-14.2,0.6-19.6c-1-5.4-2.5-5.5-5.4-5.4c-3,0.1-6.3,3.3-6.3,12.7
			c-0.1,9.4,3.4,19,4.8,19.6c0.6,0.3,3.9-0.1,7.9-0.9v-6.6H40.5z"/>
		<path class="st12" d="M109,66.6l-5.5-5.1l-16.9,0.3l-0.3,2.1l4.2,5.2h19.7v-0.6v-1.5L109,66.6z"/>
		<path class="st12" d="M96,57.2v-0.3l-4.8-3.3l-11.3,0.1l-0.1,1.3l2.8,3.6h13.1H96v-0.4h-0.3v-1H96z"/>
		<path class="st8" d="M95.7,56.2H82.4V58h13.3V56.2z"/>
		<path class="st3" d="M82.4,56.2L79.7,53l11.5-0.1l4.6,3.3H82.4z"/>
		<path class="st9" d="M82.4,58l-2.8-3.6l0.1-1.3l2.7,3.1V58z"/>
		<path class="st1" d="M95.9,56.2H82.4v0.3h13.4V56.2z"/>
		<path class="st1" d="M79.7,53l-0.1,1.3l2.8,3.6v-0.4l-2.5-3.3l0.1-0.7l2.4,3v-0.3L79.7,53z"/>
		<path class="st1" d="M79.6,54.4l0.3-0.1l2.5,3.3V58L79.6,54.4z"/>
		<path class="st1" d="M95.9,57.5H82.4V58h13.4V57.5z"/>
		<path class="st13" d="M87.5,53.2l1.3,0.9h1.6l0.7,0.6h-1.8l1.2,1h-0.9l-1.3-1h-4.3l-0.6-0.4l4.3-0.1l-1.2-0.9H87.5z"/>
		<path class="st8" d="M109.9,65.4H90.5V68h19.4V65.4z"/>
		<path class="st2" d="M90.5,65.4l-3.9-4.6l16.7-0.3l7,4.9H90.5z"/>
		<path class="st9" d="M90.5,68l-4-5.1l0.1-2.1l3.9,4.6V68z"/>
		<path class="st3" d="M110.2,65.4H90.5v0.4h19.7V65.4z"/>
		<path class="st3" d="M86.6,60.8l-0.1,2.1l4,5.1v-0.6l-3.6-4.8v-1l3.6,4.3v-0.4L86.6,60.8z"/>
		<path class="st3" d="M86.5,62.9l0.4-0.3l3.6,4.8V68L86.5,62.9z"/>
		<path class="st3" d="M110.2,67.4H90.5V68h19.7V67.4z"/>
		<path class="st13" d="M98.7,61.1l1.8,1.5h2.5l0.9,0.7h-2.5l1.8,1.5h-1.3l-1.8-1.5l-6.3,0.1l-0.9-0.9h6.3l-1.8-1.5H98.7z"/>
		<path class="st2" d="M70.2,50.5c0.3,0.4-0.7,4.3-1.8,5.1c-1,0.7-13,0.7-14.6-1.5c0,0-0.4-2.7,1.8-4.5c2.2-1.6,3.6-1.3,3.6-1.3
			s1.2-0.1,4.6,0.7C67.2,50.2,70.2,50.5,70.2,50.5z"/>
		<path class="st2" d="M71.5,55.1c0,0,2.4-7.3,2.7-7.5c0.3-0.1,0.7,0,0.9,0.6c0.1,0.6-3,7.5-3,7.5L71.5,55.1z"/>
		<path class="st14" d="M89.8,60.6l2.8,3.7h16.1l-5.2-3.9L89.8,60.6z"/>
		<path class="st8" d="M109.8,61.5H92.6v2.2h17.2V61.5z"/>
		<path class="st2" d="M92.6,61.5l-3.4-4.2l14.8-0.1l6,4.3H92.6z"/>
		<path class="st9" d="M92.6,63.8L89,59.3l0.1-1.9l3.4,4.2V63.8z"/>
		<path class="st3" d="M110.1,61.5H92.6V62h17.5V61.5z"/>
		<path class="st3" d="M89.2,57.4L89,59.3l3.6,4.5v-0.4l-3.3-4.2v-1l3.3,3.9v-0.4L89.2,57.4z"/>
		<path class="st3" d="M89,59.3l0.3-0.1l3.3,4.2v0.4L89,59.3z"/>
		<path class="st3" d="M110.1,63.3H92.6v0.4h17.5V63.3z"/>
		<path class="st13" d="M99.8,57.8l1.6,1.2h2.1l0.9,0.7h-2.2l1.6,1.3h-1.3l-1.5-1.3h-5.5l-0.7-0.6h5.5l-1.6-1.3H99.8z"/>
		<path class="st10" d="M54.8,63.2c5.4-0.6,9.7-1.2,11.6-0.7c1.8,0.6,4.2,0.3,5.8-1c1.6-1.2,3.1-2.4,3.1-4.2c-0.1-1.8-1-2.1-2.4-2.8
			c-1.2-0.7-1.8-1.5-3.1-0.9c-1.3,0.6-4.5,2.7-7.2,3.3C60,57.5,50.6,57.1,47,56.6c-3.6-0.4-8.7,0-8.7,0c-7,2.7-5.7,7.8-5.7,7.8
			C34.1,65.3,49.4,63.8,54.8,63.2z"/>
		<path class="st12" d="M114.2,74.4H51.8v19.2h62.4V74.4z"/>
		<path class="st15" d="M54.1,79.7l60.8,3.1v-8.4h-63L54.1,79.7z"/>
		<path class="st5" d="M117.4,74.4h-3.6V156h3.6V74.4z"/>
		<path class="st5" d="M53.9,74.4h-3.6V156h3.6V74.4z"/>
		<path class="st12" d="M125,72.8H42.7v3.3H125V72.8z"/>
		<path class="st2" d="M61.7,56.8c0,0,1.2,4.9,0.4,6.6c0,0-24.9,4-29.6,1.3c0,0-1.9-6.9,6.3-8.2c0,0,2.7-0.6,9.3,0
			C55,57.1,61.7,56.8,61.7,56.8z"/>
		<path class="st8" d="M53.9,23.4c0,0,4.3,4.8,10.6,5.8c0,0,0.7-0.4,1.6-1.9c0,0-6.7-1.6-11.1-4.9L53.9,23.4z"/>
		<path class="st3" d="M55.1,22.3c-2.8,2.5-7.8,9-12.7,9.4c-4.9,0.6-9.3-0.3-12.4,1.6l-3.4,4.2c0,0,1.6-6.3,7.8-9.4
			c6.1-3,9.6-5.7,11.6-8.5c2.1-3,8.1-11.4,18.1-6l-5.8,8.7H55.1z"/>
		<path class="st4" d="M53.9,93.6V156l1.2-2.5V93.6H53.9z"/>
		<path class="st2" d="M36.3,117.7H7v4.2h29.3V117.7z"/>
		<path class="st3" d="M7,117.7l1.2-0.6h26.7l1.2,0.6H7z"/>
	</g>
</g>
</svg>
