<svg width="158" height="56" viewBox="0 0 158 56" fill="none" xmlns="http://www.w3.org/2000/svg">
<path d="M6.75781 42.292C7.24561 32.9019 11.6968 13.5727 25.5992 4.79226C42.9771 -6.18328 47.0015 36.6213 47.7332 41.9262" stroke="black" stroke-width="5.71436" stroke-linecap="round"/>
<path d="M7.67192 52.2075C4.25731 48.6099 -0.266872 42.549 8.95258 42.6953C18.172 42.8417 38.1596 42.7563 47.001 42.6953C50.2326 42.5124 54.4277 44.1588 45.3546 52.2075" stroke="black" stroke-width="5.71436" stroke-linecap="round"/>
<path d="M98.2557 3.18311C98.2557 15.0123 91.5241 38.8536 63.8657 52.0243" stroke="black" stroke-width="5.71436" stroke-linecap="round"/>
<path d="M56.9146 3.36621C56.9146 13.1832 60.2804 32.6709 82.5241 37.2075" stroke="black" stroke-width="5.71436" stroke-linecap="round"/>
<path d="M100.817 52.0241C106.305 34.5692 118.378 0.360037 122.768 3.16215C127.158 5.96427 129.109 24.177 128.622 32.8169C129.841 23.0095 132.353 3.16215 139.963 3.16215C147.573 3.16215 152.89 35.7368 154.597 52.0241" stroke="black" stroke-width="5.71436" stroke-linecap="round" stroke-linejoin="round"/>
</svg>
