<svg width="1423" height="631" viewBox="0 0 1423 631" fill="none" xmlns="http://www.w3.org/2000/svg">
<rect x="1.83887" y="559.801" width="248.683" height="69.6307" rx="34.8153" transform="rotate(-13.1579 1.83887 559.801)" fill="#F09EC3"/>
<path d="M60.6317 569.614L64.8529 568.627L68.4117 583.851C68.8018 585.519 68.7505 587.079 68.2578 588.53C67.7726 589.98 66.9042 591.227 65.6524 592.271C64.3989 593.308 62.824 594.049 60.9277 594.492C59.0238 594.937 57.2801 594.973 55.6968 594.599C54.1117 594.217 52.7804 593.485 51.703 592.4C50.6256 591.316 49.8919 589.94 49.5017 588.271L45.9429 573.048L50.1641 572.061L53.6405 586.932C53.8674 587.903 54.282 588.718 54.8841 589.377C55.4937 590.034 56.2398 590.488 57.1221 590.738C58.0027 590.98 58.9777 590.976 60.0473 590.726C61.1168 590.476 61.9925 590.047 62.6745 589.44C63.3623 588.823 63.8299 588.086 64.0774 587.228C64.3248 586.37 64.335 585.456 64.1081 584.485L60.6317 569.614ZM72.3273 566.88L79.4536 574.213L79.6356 574.171L82.7949 564.433L87.6077 563.308L83.152 576.637L93.1688 586.583L88.2764 587.726L81.1065 580.463L80.9245 580.505L77.7177 590.195L72.848 591.333L77.4858 577.961L67.4917 568.01L72.3273 566.88ZM110.931 582.43L103.035 584.276L97.5873 560.975L105.643 559.091C107.956 558.551 110.053 558.553 111.932 559.097C113.817 559.632 115.41 560.664 116.711 562.192C118.012 563.72 118.946 565.693 119.511 568.113C120.079 570.54 120.115 572.732 119.62 574.687C119.133 576.641 118.153 578.282 116.679 579.611C115.214 580.937 113.297 581.877 110.931 582.43ZM106.402 579.637L109.872 578.826C111.496 578.447 112.78 577.834 113.727 576.989C114.671 576.136 115.278 575.054 115.548 573.743C115.816 572.425 115.741 570.874 115.324 569.092C114.908 567.309 114.289 565.894 113.468 564.846C112.645 563.79 111.631 563.095 110.425 562.761C109.224 562.418 107.835 562.431 106.258 562.8L102.662 563.64L106.402 579.637ZM125.61 578.999L120.163 555.697L135.318 552.154L136.145 555.693L125.211 558.249L126.69 564.575L136.839 562.202L137.666 565.741L127.517 568.113L129.004 574.474L140.029 571.896L140.857 575.435L125.61 578.999ZM153.145 554.743C152.807 553.774 152.178 553.105 151.26 552.735C150.349 552.364 149.268 552.325 148.016 552.618C147.137 552.823 146.413 553.132 145.845 553.545C145.278 553.958 144.88 554.431 144.653 554.964C144.426 555.497 144.376 556.056 144.505 556.642C144.619 557.128 144.827 557.523 145.131 557.828C145.441 558.131 145.82 558.363 146.265 558.523C146.709 558.675 147.185 558.78 147.694 558.837C148.204 558.894 148.71 558.923 149.215 558.925L151.527 558.961C152.455 558.96 153.365 559.039 154.259 559.198C155.159 559.356 155.994 559.624 156.763 560.005C157.539 560.383 158.205 560.903 158.76 561.566C159.315 562.228 159.71 563.064 159.946 564.072C160.265 565.438 160.197 566.722 159.742 567.924C159.286 569.119 158.466 570.162 157.282 571.055C156.105 571.938 154.583 572.598 152.717 573.034C150.904 573.458 149.265 573.545 147.799 573.296C146.34 573.045 145.109 572.469 144.107 571.567C143.111 570.664 142.403 569.445 141.98 567.912L146.133 566.941C146.383 567.739 146.792 568.355 147.357 568.791C147.923 569.227 148.59 569.495 149.357 569.596C150.133 569.694 150.96 569.641 151.84 569.435C152.758 569.221 153.53 568.896 154.156 568.462C154.788 568.018 155.244 567.503 155.523 566.918C155.801 566.325 155.865 565.694 155.717 565.025C155.567 564.42 155.272 563.961 154.831 563.648C154.388 563.328 153.821 563.108 153.129 562.99C152.443 562.862 151.658 562.79 150.774 562.773L147.964 562.71C145.929 562.665 144.238 562.273 142.889 561.532C141.545 560.782 140.679 559.573 140.288 557.904C139.968 556.531 140.058 555.242 140.56 554.037C141.07 552.829 141.903 551.791 143.06 550.92C144.214 550.042 145.607 549.413 147.238 549.032C148.892 548.645 150.408 548.595 151.787 548.88C153.171 549.157 154.339 549.72 155.289 550.569C156.238 551.412 156.877 552.486 157.207 553.793L153.145 554.743ZM163.372 545.596L168.819 568.898L164.598 569.885L159.15 546.583L163.372 545.596ZM184.652 548.469C184.318 547.899 183.928 547.41 183.481 547.003C183.04 546.586 182.547 546.257 182.002 546.017C181.466 545.774 180.881 545.635 180.249 545.599C179.615 545.555 178.949 545.615 178.251 545.778C176.999 546.07 175.958 546.646 175.126 547.504C174.295 548.362 173.742 549.468 173.466 550.82C173.196 552.163 173.265 553.707 173.672 555.452C174.084 557.211 174.709 558.637 175.548 559.729C176.388 560.821 177.375 561.57 178.51 561.977C179.643 562.376 180.862 562.423 182.167 562.118C183.35 561.841 184.321 561.374 185.079 560.717C185.845 560.058 186.365 559.256 186.641 558.312C186.914 557.36 186.919 556.319 186.655 555.189L187.645 555.113L181.319 556.592L180.547 553.292L190.002 551.082L190.657 553.881C191.123 555.876 191.102 557.701 190.593 559.356C190.084 561.011 189.178 562.407 187.876 563.543C186.572 564.672 184.956 565.461 183.03 565.912C180.883 566.414 178.885 566.373 177.037 565.789C175.194 565.196 173.61 564.114 172.283 562.544C170.961 560.965 170.014 558.947 169.439 556.489C168.999 554.608 168.872 552.866 169.057 551.263C169.25 549.658 169.708 548.227 170.43 546.97C171.15 545.706 172.096 544.653 173.267 543.811C174.436 542.961 175.783 542.359 177.308 542.002C178.598 541.701 179.844 541.609 181.048 541.728C182.25 541.839 183.364 542.138 184.39 542.627C185.424 543.113 186.332 543.765 187.115 544.581C187.898 545.398 188.51 546.359 188.953 547.464L184.652 548.469ZM209.996 534.697L215.444 557.998L211.689 558.876L196.999 545.571L196.805 545.616L200.516 561.488L196.295 562.475L190.847 539.173L194.625 538.29L209.306 551.609L209.511 551.561L205.798 535.678L209.996 534.697Z" fill="white"/>
<rect x="419.202" y="380.643" width="238.508" height="69.6307" rx="34.8153" transform="rotate(-5.46892 419.202 380.643)" fill="#4027DB"/>
<path d="M475.999 398.248L480.314 397.835L481.804 413.398C481.967 415.104 481.708 416.643 481.025 418.015C480.35 419.386 479.323 420.506 477.943 421.374C476.562 422.234 474.902 422.756 472.963 422.942C471.017 423.128 469.284 422.93 467.765 422.348C466.245 421.758 465.024 420.854 464.101 419.635C463.179 418.417 462.636 416.954 462.472 415.248L460.982 399.686L465.298 399.272L466.753 414.475C466.848 415.467 467.15 416.33 467.658 417.064C468.175 417.797 468.853 418.347 469.694 418.712C470.535 419.07 471.501 419.197 472.595 419.092C473.688 418.987 474.613 418.68 475.37 418.169C476.135 417.65 476.697 416.982 477.057 416.165C477.417 415.348 477.549 414.443 477.454 413.45L475.999 398.248ZM488.664 397.035L490.945 420.856L486.63 421.27L484.349 397.448L488.664 397.035ZM510.504 418.984L502.432 419.757L500.152 395.936L508.387 395.147C510.752 394.921 512.829 395.203 514.618 395.994C516.415 396.777 517.856 398.012 518.941 399.7C520.026 401.389 520.687 403.469 520.924 405.943C521.161 408.424 520.904 410.601 520.152 412.473C519.408 414.344 518.217 415.839 516.579 416.958C514.949 418.077 512.924 418.752 510.504 418.984ZM506.39 415.61L509.938 415.27C511.597 415.111 512.952 414.676 514.003 413.965C515.053 413.247 515.8 412.256 516.242 410.993C516.684 409.722 516.818 408.175 516.643 406.353C516.469 404.531 516.045 403.045 515.371 401.897C514.697 400.741 513.785 399.916 512.634 399.424C511.491 398.923 510.113 398.75 508.5 398.904L504.824 399.256L506.39 415.61ZM525.511 417.547L523.23 393.726L538.723 392.243L539.07 395.86L527.892 396.93L528.511 403.397L538.886 402.404L539.233 406.021L528.857 407.015L529.48 413.517L540.751 412.437L541.097 416.055L525.511 417.547ZM556.044 397.193C555.838 396.187 555.305 395.44 554.444 394.951C553.591 394.462 552.525 394.278 551.245 394.401C550.346 394.487 549.587 394.696 548.97 395.029C548.352 395.363 547.895 395.778 547.598 396.276C547.302 396.774 547.178 397.322 547.227 397.92C547.275 398.416 547.429 398.835 547.688 399.178C547.956 399.52 548.3 399.801 548.72 400.019C549.139 400.229 549.597 400.396 550.094 400.521C550.591 400.645 551.09 400.742 551.589 400.812L553.876 401.157C554.795 401.28 555.687 401.48 556.551 401.757C557.423 402.034 558.214 402.412 558.925 402.892C559.644 403.371 560.234 403.975 560.695 404.706C561.156 405.436 561.436 406.317 561.535 407.349C561.669 408.744 561.43 410.008 560.818 411.138C560.206 412.261 559.253 413.186 557.961 413.912C556.676 414.63 555.08 415.08 553.172 415.263C551.319 415.44 549.683 415.307 548.263 414.864C546.851 414.42 545.708 413.684 544.835 412.657C543.97 411.628 543.431 410.326 543.217 408.75L547.463 408.344C547.604 409.168 547.926 409.833 548.428 410.341C548.931 410.848 549.556 411.203 550.303 411.406C551.058 411.607 551.885 411.665 552.784 411.579C553.723 411.489 554.531 411.271 555.21 410.924C555.896 410.569 556.417 410.12 556.771 409.577C557.126 409.027 557.274 408.41 557.216 407.727C557.149 407.107 556.918 406.613 556.523 406.244C556.127 405.867 555.594 405.574 554.924 405.364C554.262 405.146 553.494 404.969 552.62 404.833L549.843 404.395C547.833 404.079 546.209 403.463 544.971 402.549C543.74 401.626 543.043 400.312 542.88 398.606C542.745 397.202 543.008 395.937 543.667 394.809C544.333 393.681 545.298 392.763 546.56 392.056C547.822 391.34 549.287 390.903 550.954 390.743C552.644 390.581 554.154 390.734 555.482 391.202C556.817 391.661 557.899 392.375 558.727 393.344C559.555 394.306 560.044 395.456 560.196 396.795L556.044 397.193ZM567.402 389.497L569.683 413.318L565.367 413.731L563.087 389.91L567.402 389.497ZM588.106 395.191C587.852 394.582 587.531 394.045 587.142 393.582C586.761 393.109 586.316 392.718 585.809 392.406C585.31 392.094 584.749 391.878 584.127 391.757C583.504 391.629 582.836 391.599 582.123 391.668C580.844 391.79 579.735 392.221 578.796 392.96C577.857 393.7 577.161 394.721 576.706 396.024C576.259 397.319 576.121 398.859 576.292 400.642C576.464 402.441 576.893 403.938 577.578 405.132C578.264 406.326 579.142 407.201 580.212 407.755C581.282 408.303 582.484 408.512 583.817 408.385C585.027 408.269 586.052 407.936 586.891 407.386C587.738 406.835 588.361 406.111 588.761 405.212C589.159 404.305 589.303 403.274 589.192 402.118L590.184 402.176L583.717 402.795L583.394 399.422L593.059 398.497L593.333 401.358C593.529 403.397 593.263 405.203 592.537 406.775C591.811 408.347 590.727 409.609 589.284 410.561C587.841 411.505 586.135 412.071 584.165 412.26C581.971 412.47 579.996 412.162 578.243 411.336C576.496 410.502 575.07 409.218 573.965 407.485C572.867 405.743 572.198 403.616 571.958 401.104C571.773 399.181 571.88 397.437 572.278 395.873C572.684 394.308 573.329 392.952 574.213 391.803C575.096 390.646 576.174 389.729 577.447 389.052C578.72 388.366 580.135 387.949 581.694 387.8C583.012 387.674 584.26 387.75 585.437 388.028C586.613 388.299 587.677 388.745 588.629 389.366C589.588 389.986 590.401 390.754 591.067 391.668C591.734 392.582 592.213 393.616 592.503 394.77L588.106 395.191ZM615.066 384.933L617.347 408.755L613.508 409.122L600.73 393.971L600.533 393.99L602.086 410.216L597.771 410.629L595.49 386.808L599.352 386.438L612.119 401.602L612.328 401.582L610.774 385.344L615.066 384.933Z" fill="white"/>
<rect x="1206" y="235.359" width="173.19" height="69.6307" rx="34.8153" transform="rotate(-20.7653 1206 235.359)" fill="#489F5F"/>
<path d="M1259.92 265.04L1251.43 242.665L1265.98 237.147L1267.27 240.545L1256.77 244.526L1259.08 250.6L1268.82 246.905L1270.11 250.303L1260.37 253.998L1262.68 260.106L1273.27 256.091L1274.56 259.489L1259.92 265.04ZM1272.89 234.528L1280.93 240.854L1281.1 240.788L1282.94 230.717L1287.56 228.964L1284.91 242.766L1296.16 251.299L1291.46 253.08L1283.39 246.829L1283.22 246.896L1281.32 256.924L1276.64 258.697L1279.47 244.829L1268.25 236.289L1272.89 234.528ZM1311.34 228.586L1307.25 230.136C1306.88 229.51 1306.44 228.998 1305.93 228.599C1305.42 228.193 1304.86 227.897 1304.25 227.709C1303.65 227.522 1303.02 227.451 1302.35 227.495C1301.69 227.529 1301.01 227.676 1300.33 227.936C1299.11 228.397 1298.15 229.112 1297.44 230.08C1296.73 231.041 1296.33 232.208 1296.25 233.582C1296.16 234.949 1296.43 236.474 1297.07 238.157C1297.72 239.868 1298.53 241.21 1299.51 242.181C1300.49 243.142 1301.56 243.744 1302.72 243.988C1303.88 244.222 1305.07 244.109 1306.28 243.651C1306.95 243.397 1307.54 243.072 1308.06 242.676C1308.58 242.27 1309 241.804 1309.34 241.278C1309.68 240.749 1309.91 240.169 1310.04 239.537C1310.17 238.903 1310.18 238.235 1310.05 237.532L1314.15 236.005C1314.4 237.126 1314.45 238.25 1314.29 239.375C1314.14 240.498 1313.79 241.571 1313.25 242.594C1312.7 243.61 1311.96 244.525 1311.01 245.34C1310.07 246.148 1308.93 246.804 1307.6 247.31C1305.63 248.056 1303.71 248.266 1301.82 247.941C1299.93 247.616 1298.21 246.762 1296.67 245.38C1295.13 243.998 1293.91 242.106 1292.99 239.702C1292.08 237.291 1291.75 235.06 1291.99 233.009C1292.24 230.95 1292.96 229.173 1294.16 227.677C1295.36 226.181 1296.93 225.063 1298.88 224.322C1300.13 223.85 1301.35 223.586 1302.56 223.53C1303.76 223.473 1304.91 223.625 1306 223.985C1307.1 224.337 1308.1 224.899 1309.01 225.671C1309.92 226.432 1310.7 227.404 1311.34 228.586ZM1320.05 242.238L1311.57 219.863L1326.12 214.345L1327.41 217.742L1316.91 221.723L1319.21 227.798L1328.96 224.103L1330.25 227.501L1320.5 231.196L1322.82 237.303L1333.41 233.289L1334.69 236.687L1320.05 242.238ZM1338.13 235.385L1329.64 213.01L1333.7 211.473L1340.89 230.451L1350.75 226.714L1352.03 230.112L1338.13 235.385Z" fill="white"/>
<rect y="60.9274" width="273.927" height="69.6307" rx="34.8153" transform="rotate(-12.6462 0 60.9274)" fill="#F19035"/>
<path d="M43.6043 74.6522L48.7804 73.4908L59.5085 88.8548L59.7822 88.7934L62.9178 70.3187L68.0939 69.1574L73.3329 92.5069L69.2741 93.4176L65.6749 77.3762L65.4583 77.4248L62.5891 94.8457L59.5564 95.5261L49.5118 80.9668L49.2952 81.0154L52.9021 97.091L48.8433 98.0017L43.6043 74.6522ZM95.5415 75.2614C96.1059 77.7772 96.1182 80.0378 95.5782 82.043C95.044 84.039 94.0741 85.6936 92.6683 87.007C91.2701 88.3186 89.5487 89.2038 87.5041 89.6626C85.4595 90.1213 83.5211 90.0573 81.689 89.4704C79.8628 88.8743 78.278 87.7888 76.9348 86.2141C75.5974 84.6301 74.6473 82.584 74.0845 80.0757C73.52 77.5599 73.5048 75.304 74.039 73.3081C74.579 71.3028 75.5481 69.6444 76.9463 68.3327C78.3521 67.0194 80.0773 66.1333 82.1219 65.6746C84.1665 65.2158 86.101 65.2807 87.9256 65.8693C89.7577 66.4561 91.3425 67.5415 92.6798 69.1256C94.0231 70.7003 94.977 72.7455 95.5415 75.2614ZM91.2888 76.2156C90.8915 74.4446 90.2789 73.0133 89.4512 71.9217C88.6294 70.8207 87.6621 70.0678 86.5494 69.6628C85.4349 69.2502 84.243 69.1863 82.9737 69.4712C81.7044 69.756 80.654 70.3229 79.8227 71.1721C78.9896 72.0136 78.433 73.1085 78.1527 74.4567C77.8783 75.7957 77.9398 77.3506 78.3371 79.1216C78.7345 80.8925 79.3441 82.3285 80.1659 83.4294C80.9936 84.5211 81.9647 85.2732 83.0792 85.6857C84.1919 86.0907 85.3829 86.1508 86.6523 85.866C87.9216 85.5812 88.9728 85.018 89.8058 84.1764C90.6372 83.3273 91.1901 82.2333 91.4644 80.8943C91.7447 79.5461 91.6862 77.9865 91.2888 76.2156ZM101.518 86.183L96.2788 62.8334L105.217 60.8279C106.905 60.4493 108.367 60.4007 109.603 60.682C110.846 60.9541 111.847 61.4839 112.606 62.2715C113.374 63.0574 113.887 64.028 114.146 65.1833C114.359 66.1334 114.359 66.9876 114.146 67.7459C113.931 68.4967 113.563 69.1501 113.041 69.7063C112.519 70.2625 111.899 70.717 111.18 71.07L111.231 71.298C112.07 71.1577 112.921 71.2341 113.785 71.5273C114.655 71.8111 115.427 72.3164 116.101 73.0434C116.775 73.7703 117.245 74.7266 117.511 75.9123C117.782 77.1209 117.734 78.2734 117.365 79.37C116.995 80.459 116.283 81.4131 115.229 82.2323C114.175 83.0515 112.756 83.6615 110.969 84.0623L101.518 86.183ZM104.955 81.6995L109.504 80.6789C111.039 80.3344 112.079 79.7936 112.624 79.0566C113.175 78.3102 113.347 77.4734 113.139 76.5461C112.984 75.8544 112.673 75.2696 112.206 74.7914C111.738 74.3057 111.153 73.974 110.45 73.7963C109.746 73.6111 108.957 73.6165 108.083 73.8126L103.42 74.8589L104.955 81.6995ZM102.737 71.8148L106.921 70.8759C107.651 70.7122 108.278 70.4317 108.804 70.0344C109.328 69.6294 109.701 69.1424 109.925 68.5733C110.154 67.9949 110.192 67.3637 110.039 66.6796C109.836 65.7751 109.35 65.1019 108.58 64.6599C107.818 64.2162 106.813 64.1342 105.567 64.4138L101.291 65.3731L102.737 71.8148ZM120.967 57.294L126.206 80.6436L121.976 81.5926L116.737 58.2431L120.967 57.294ZM130.144 79.7599L124.905 56.4104L129.135 55.4613L133.579 75.2651L143.862 72.9577L144.658 76.5034L130.144 79.7599ZM147.687 75.8238L142.448 52.4743L157.634 49.0669L158.43 52.6126L147.474 55.071L148.896 61.41L159.066 59.1282L159.861 62.6739L149.691 64.9558L151.121 71.329L162.169 68.8502L162.965 72.3959L147.687 75.8238ZM176.867 69.2767L172.352 70.2897L175.333 45.0958L180.555 43.9242L194.025 65.4267L189.511 66.4397L179.11 49.278L178.927 49.3189L176.867 69.2767ZM174.961 60.0883L187.274 57.3256L188.036 60.7231L175.723 63.4858L174.961 60.0883ZM196.459 64.8807L191.22 41.5312L199.976 39.5666C201.77 39.1641 203.35 39.1609 204.716 39.5569C206.09 39.9512 207.219 40.6637 208.105 41.6943C208.997 42.7157 209.609 43.9675 209.942 45.4496C210.278 46.947 210.261 48.3479 209.891 49.6523C209.521 50.9568 208.795 52.0816 207.714 53.0267C206.631 53.9643 205.189 54.6351 203.388 55.0393L197.584 56.3414L196.804 52.8641L202.037 51.6899C203.086 51.4545 203.904 51.0794 204.491 50.5645C205.078 50.0496 205.46 49.4371 205.636 48.727C205.819 48.0152 205.818 47.2451 205.632 46.4166C205.446 45.5881 205.119 44.8951 204.651 44.3376C204.19 43.7783 203.582 43.3998 202.827 43.2019C202.078 42.9948 201.175 43.0097 200.119 43.2468L196.243 44.1165L200.689 63.9317L196.459 64.8807ZM216.478 60.3889L211.239 37.0394L219.995 35.0747C221.789 34.6723 223.369 34.669 224.735 35.065C226.109 35.4593 227.239 36.1718 228.125 37.2025C229.017 38.2238 229.629 39.4756 229.961 40.9578C230.297 42.4551 230.28 43.856 229.91 45.1605C229.541 46.4649 228.815 47.5897 227.734 48.5349C226.651 49.4724 225.209 50.1433 223.407 50.5475L217.604 51.8495L216.824 48.3722L222.057 47.198C223.106 46.9627 223.924 46.5875 224.511 46.0726C225.098 45.5577 225.479 44.9452 225.655 44.2351C225.839 43.5233 225.838 42.7532 225.652 41.9247C225.466 41.0962 225.139 40.4032 224.67 39.8457C224.21 39.2865 223.602 38.9079 222.847 38.7101C222.098 38.5029 221.195 38.5179 220.139 38.7549L216.262 39.6247L220.708 59.4398L216.478 60.3889Z" fill="white"/>
<rect x="575.166" y="196.193" width="417.608" height="69.0552" rx="34.5276" transform="rotate(23.3376 575.166 196.193)" fill="#489F5F"/>
<path d="M614.467 245.378C614.537 244.727 614.514 244.107 614.398 243.518C614.292 242.926 614.093 242.373 613.801 241.86C613.516 241.35 613.132 240.894 612.65 240.492C612.17 240.083 611.604 239.738 610.951 239.457C609.781 238.952 608.611 238.796 607.442 238.99C606.273 239.184 605.179 239.739 604.162 240.654C603.154 241.566 602.299 242.837 601.595 244.469C600.885 246.114 600.542 247.62 600.567 248.985C600.592 250.351 600.938 251.53 601.603 252.524C602.271 253.511 603.215 254.267 604.435 254.794C605.541 255.271 606.591 255.471 607.583 255.395C608.582 255.321 609.47 254.989 610.247 254.398C611.026 253.801 611.644 252.973 612.1 251.917L612.934 252.44L607.018 249.888L608.349 246.803L617.191 250.617L616.062 253.235C615.257 255.1 614.164 256.543 612.782 257.562C611.4 258.581 609.854 259.159 608.146 259.297C606.44 259.428 604.687 259.105 602.885 258.327C600.877 257.461 599.309 256.25 598.18 254.695C597.061 253.135 596.435 251.338 596.303 249.304C596.181 247.265 596.616 245.097 597.608 242.799C598.367 241.04 599.293 239.576 600.386 238.407C601.486 237.241 602.695 236.37 604.012 235.794C605.332 235.211 606.708 234.929 608.138 234.949C609.571 234.961 611.001 235.275 612.426 235.89C613.632 236.411 614.68 237.073 615.57 237.878C616.462 238.675 617.174 239.571 617.704 240.565C618.241 241.563 618.581 242.618 618.723 243.731C618.866 244.844 618.788 245.972 618.489 247.113L614.467 245.378ZM617.613 264.329L613.4 262.511L630.473 244.03L635.346 246.132L633.626 271.237L629.413 269.42L631.066 249.587L630.896 249.513L617.613 264.329ZM621.438 255.844L632.929 260.802L631.561 263.973L620.07 259.015L621.438 255.844ZM645.299 250.427L650.129 252.511L649.786 271.091L650.041 271.202L663.323 258.203L668.153 260.287L658.752 282.078L654.964 280.443L661.423 265.473L661.221 265.386L648.767 277.694L645.937 276.473L646.36 258.936L646.158 258.849L639.685 273.851L635.897 272.217L645.299 250.427ZM662.451 283.674L671.853 261.883L686.025 267.998L684.598 271.307L674.373 266.895L671.82 272.811L681.311 276.906L679.883 280.215L670.393 276.12L667.826 282.068L678.137 286.516L676.709 289.825L662.451 283.674ZM694.269 297.401L686.884 294.215L696.286 272.425L703.819 275.675C705.983 276.608 707.653 277.846 708.83 279.389C710.017 280.928 710.679 282.69 710.815 284.675C710.951 286.661 710.531 288.785 709.555 291.048C708.575 293.317 707.312 295.086 705.764 296.353C704.223 297.624 702.473 298.354 700.515 298.544C698.564 298.737 696.482 298.356 694.269 297.401ZM692.305 292.503L695.551 293.903C697.069 294.558 698.454 294.828 699.707 294.712C700.963 294.589 702.085 294.085 703.074 293.199C704.065 292.305 704.92 291.025 705.639 289.358C706.358 287.691 706.7 286.198 706.663 284.878C706.63 283.551 706.231 282.399 705.467 281.421C704.712 280.44 703.597 279.63 702.122 278.994L698.76 277.543L692.305 292.503ZM707.996 303.324L717.398 281.533L731.57 287.648L730.142 290.957L719.917 286.545L717.365 292.461L726.856 296.556L725.428 299.865L715.937 295.77L713.371 301.718L723.681 306.166L722.254 309.475L707.996 303.324ZM737.913 290.385L736.184 309.983L736.408 310.079L749.468 295.37L753.809 297.243L736.726 315.719L731.853 313.617L733.583 288.516L737.913 290.385ZM746.679 320.013L756.08 298.223L770.253 304.337L768.825 307.646L758.6 303.235L756.048 309.151L765.539 313.245L764.111 316.554L754.62 312.46L752.054 318.407L762.364 322.856L760.936 326.165L746.679 320.013ZM764.279 327.607L773.681 305.816L777.628 307.519L769.654 326.001L779.252 330.142L777.824 333.451L764.279 327.607ZM803.974 331.81C802.961 334.158 801.654 335.979 800.052 337.273C798.46 338.564 796.718 339.326 794.824 339.561C792.938 339.799 791.041 339.506 789.133 338.683C787.225 337.86 785.706 336.679 784.578 335.141C783.46 333.598 782.821 331.804 782.66 329.757C782.51 327.707 782.94 325.511 783.95 323.17C784.963 320.822 786.265 319.003 787.857 317.713C789.458 316.418 791.203 315.652 793.089 315.414C794.982 315.179 796.883 315.474 798.791 316.297C800.699 317.12 802.214 318.299 803.335 319.835C804.463 321.373 805.103 323.168 805.253 325.218C805.413 327.265 804.987 329.462 803.974 331.81ZM800.005 330.097C800.718 328.445 801.061 326.939 801.033 325.581C801.015 324.218 800.677 323.051 800.02 322.077C799.366 321.097 798.447 320.351 797.262 319.84C796.078 319.329 794.905 319.172 793.743 319.369C792.584 319.559 791.499 320.113 790.489 321.032C789.488 321.946 788.631 323.23 787.918 324.883C787.205 326.535 786.858 328.043 786.876 329.405C786.904 330.764 787.245 331.933 787.899 332.913C788.556 333.887 789.477 334.629 790.661 335.14C791.846 335.651 793.018 335.812 794.176 335.622C795.338 335.425 796.42 334.869 797.42 333.954C798.431 333.036 799.292 331.75 800.005 330.097ZM802.406 344.057L811.808 322.266L819.979 325.792C821.653 326.514 822.923 327.432 823.788 328.546C824.661 329.663 825.153 330.893 825.263 332.236C825.384 333.575 825.145 334.937 824.549 336.32C823.946 337.717 823.116 338.832 822.059 339.663C821.002 340.494 819.764 340.974 818.346 341.102C816.93 341.224 815.382 340.922 813.701 340.196L808.285 337.86L809.685 334.615L814.569 336.722C815.548 337.144 816.423 337.32 817.194 337.248C817.965 337.177 818.628 336.908 819.183 336.441C819.745 335.976 820.193 335.358 820.527 334.585C820.86 333.811 821.002 333.065 820.951 332.344C820.907 331.627 820.64 330.969 820.149 330.37C819.669 329.768 818.935 329.254 817.949 328.828L814.332 327.267L806.354 345.76L802.406 344.057ZM830.491 330.327L835.321 332.411L834.978 350.992L835.233 351.102L848.515 338.103L853.345 340.187L843.944 361.978L840.156 360.344L846.615 345.373L846.413 345.286L833.959 357.594L831.129 356.373L831.552 338.836L831.35 338.749L824.877 353.752L821.089 352.117L830.491 330.327ZM847.643 363.574L857.045 341.783L871.217 347.898L869.789 351.207L859.564 346.795L857.012 352.711L866.503 356.806L865.075 360.115L855.584 356.02L853.018 361.968L863.328 366.416L861.901 369.725L847.643 363.574ZM892.552 357.103L883.151 378.893L879.639 377.379L875.776 358.106L875.595 358.028L869.191 372.871L865.243 371.168L874.645 349.377L878.177 350.901L882.026 370.18L882.217 370.262L888.626 355.409L892.552 357.103ZM893.869 361.596L895.296 358.287L912.682 365.788L911.254 369.097L904.519 366.191L896.545 384.673L892.63 382.983L900.604 364.502L893.869 361.596Z" fill="white"/>
<rect x="419.063" y="564.289" width="373.707" height="69.0552" rx="34.5276" transform="rotate(-19.5932 419.063 564.289)" fill="#FFCE58"/>
<path d="M474.672 593.052L470.349 594.59L470.262 569.431L475.262 567.651L491.102 587.203L486.779 588.742L474.481 573.095L474.306 573.157L474.672 593.052ZM471.693 584.235L483.484 580.038L484.642 583.291L472.851 587.488L471.693 584.235ZM493.432 586.374L485.474 564.016L493.858 561.031C495.576 560.42 497.131 560.227 498.523 560.453C499.923 560.677 501.121 561.243 502.116 562.151C503.117 563.05 503.87 564.208 504.375 565.628C504.885 567.061 505.036 568.443 504.829 569.771C504.621 571.1 504.042 572.294 503.091 573.354C502.137 574.407 500.798 575.24 499.073 575.854L493.516 577.832L492.331 574.503L497.342 572.719C498.346 572.362 499.106 571.894 499.622 571.317C500.138 570.739 500.441 570.091 500.529 569.371C500.624 568.648 500.53 567.89 500.248 567.096C499.966 566.303 499.561 565.66 499.033 565.168C498.512 564.672 497.868 564.372 497.101 564.268C496.339 564.154 495.452 564.277 494.44 564.637L490.729 565.958L497.482 584.932L493.432 586.374ZM512.602 579.551L504.643 557.192L513.028 554.208C514.745 553.597 516.3 553.404 517.693 553.63C519.092 553.853 520.29 554.419 521.286 555.328C522.286 556.226 523.039 557.385 523.544 558.804C524.055 560.238 524.206 561.619 523.998 562.948C523.791 564.276 523.211 565.471 522.26 566.531C521.306 567.584 519.967 568.417 518.242 569.031L512.685 571.009L511.5 567.679L516.511 565.896C517.516 565.538 518.276 565.071 518.792 564.493C519.308 563.916 519.61 563.267 519.698 562.547C519.794 561.824 519.7 561.066 519.418 560.273C519.135 559.48 518.73 558.837 518.202 558.344C517.681 557.849 517.038 557.549 516.271 557.445C515.508 557.331 514.622 557.454 513.61 557.814L509.898 559.135L516.652 578.109L512.602 579.551ZM538.782 570.232L530.823 547.874L539.208 544.889C540.925 544.278 542.48 544.085 543.873 544.311C545.273 544.534 546.47 545.1 547.466 546.009C548.467 546.907 549.219 548.066 549.725 549.485C550.235 550.919 550.386 552.3 550.178 553.629C549.971 554.957 549.391 556.152 548.44 557.212C547.487 558.265 546.147 559.098 544.422 559.712L538.866 561.69L537.681 558.36L542.691 556.577C543.696 556.219 544.456 555.752 544.972 555.175C545.488 554.597 545.79 553.948 545.878 553.228C545.974 552.506 545.88 551.748 545.598 550.954C545.316 550.161 544.91 549.518 544.382 549.025C543.862 548.53 543.218 548.23 542.451 548.126C541.689 548.012 540.802 548.135 539.79 548.495L536.078 549.816L542.832 568.79L538.782 570.232ZM557.951 563.408L549.993 541.05L558.377 538.066C560.095 537.454 561.642 537.24 563.019 537.422C564.403 537.602 565.586 538.124 566.566 538.989C567.551 539.844 568.297 540.984 568.805 542.411C569.315 543.845 569.452 545.198 569.217 546.471C568.986 547.734 568.383 548.863 567.409 549.857C566.432 550.845 565.084 551.644 563.367 552.256L557.395 554.381L556.198 551.019L561.624 549.087C562.628 548.73 563.402 548.299 563.944 547.794C564.483 547.283 564.81 546.703 564.924 546.056C565.042 545.398 564.96 544.673 564.678 543.88C564.396 543.086 563.998 542.465 563.486 542.016C562.971 541.56 562.341 541.3 561.597 541.237C560.85 541.167 559.971 541.311 558.96 541.672L555.248 542.993L562.002 561.967L557.951 563.408ZM565.895 549.166L575.037 557.327L570.517 558.936L561.474 550.74L565.895 549.166ZM593.33 538.22C594.188 540.629 594.471 542.853 594.18 544.892C593.893 546.921 593.137 548.666 591.911 550.127C590.691 551.586 589.103 552.664 587.145 553.361C585.187 554.058 583.271 554.227 581.397 553.87C579.528 553.502 577.838 552.623 576.326 551.234C574.82 549.835 573.639 547.935 572.784 545.533C571.927 543.124 571.641 540.905 571.928 538.876C572.219 536.837 572.974 535.088 574.193 533.629C575.419 532.168 577.011 531.089 578.969 530.392C580.927 529.695 582.839 529.527 584.706 529.887C586.58 530.245 588.27 531.124 589.777 532.523C591.288 533.912 592.473 535.811 593.33 538.22ZM589.258 539.669C588.654 537.973 587.88 536.638 586.934 535.663C585.993 534.677 584.95 534.052 583.806 533.787C582.66 533.514 581.479 533.594 580.263 534.027C579.048 534.46 578.082 535.144 577.365 536.08C576.646 537.008 576.229 538.153 576.115 539.513C576.006 540.864 576.253 542.388 576.856 544.084C577.46 545.779 578.232 547.12 579.173 548.105C580.119 549.081 581.165 549.704 582.312 549.977C583.456 550.242 584.636 550.158 585.851 549.726C587.067 549.293 588.034 548.613 588.753 547.684C589.47 546.749 589.883 545.605 589.992 544.254C590.106 542.893 589.862 541.365 589.258 539.669ZM591.8 529.994L590.592 526.599L608.43 520.249L609.639 523.645L602.728 526.104L609.478 545.067L605.461 546.497L598.711 527.534L591.8 529.994ZM634.221 523.665C635.079 526.074 635.362 528.298 635.071 530.336C634.784 532.365 634.028 534.111 632.801 535.572C631.582 537.031 629.994 538.109 628.036 538.806C626.078 539.503 624.162 539.672 622.288 539.314C620.419 538.947 618.729 538.068 617.217 536.679C615.711 535.28 614.53 533.38 613.675 530.978C612.818 528.569 612.532 526.35 612.819 524.321C613.11 522.282 613.865 520.533 615.084 519.074C616.31 517.613 617.902 516.533 619.86 515.837C621.818 515.14 623.73 514.972 625.597 515.332C627.471 515.69 629.161 516.568 630.668 517.967C632.179 519.357 633.364 521.256 634.221 523.665ZM630.149 525.114C629.545 523.418 628.771 522.083 627.825 521.107C626.884 520.122 625.841 519.497 624.697 519.232C623.551 518.959 622.37 519.039 621.154 519.472C619.939 519.905 618.973 520.589 618.256 521.524C617.537 522.453 617.12 523.597 617.006 524.958C616.897 526.309 617.144 527.833 617.747 529.528C618.351 531.224 619.123 532.565 620.064 533.55C621.01 534.525 622.056 535.149 623.203 535.422C624.347 535.687 625.527 535.603 626.742 535.171C627.958 534.738 628.925 534.057 629.644 533.129C630.361 532.193 630.774 531.05 630.883 529.699C630.997 528.338 630.753 526.81 630.149 525.114ZM632.691 515.439L631.483 512.044L649.321 505.694L650.53 509.089L643.619 511.549L650.369 530.512L646.352 531.942L639.602 512.979L632.691 515.439ZM650.617 505.233L655.191 503.605L664.181 511.549L664.4 511.471L666.348 499.633L670.923 498.005L667.779 514.918L670.748 523.258L666.709 524.696L663.74 516.356L650.617 505.233ZM681.135 519.561L673.176 497.203L681.561 494.219C683.278 493.607 684.833 493.415 686.226 493.641C687.625 493.864 688.823 494.43 689.819 495.338C690.819 496.237 691.572 497.396 692.077 498.815C692.588 500.249 692.739 501.63 692.531 502.958C692.324 504.287 691.744 505.481 690.793 506.541C689.839 507.594 688.5 508.428 686.775 509.042L681.219 511.02L680.033 507.69L685.044 505.906C686.049 505.549 686.809 505.081 687.325 504.504C687.841 503.927 688.143 503.278 688.231 502.558C688.327 501.835 688.233 501.077 687.951 500.284C687.668 499.49 687.263 498.847 686.735 498.355C686.214 497.859 685.571 497.56 684.804 497.455C684.042 497.341 683.155 497.464 682.143 497.824L678.431 499.146L685.185 518.119L681.135 519.561ZM696.396 488.938L704.354 511.296L700.304 512.738L692.346 490.38L696.396 488.938ZM718.54 481.056L726.499 503.414L722.896 504.696L706.94 493.217L706.755 493.283L712.176 508.512L708.125 509.954L700.167 487.596L703.792 486.306L719.74 497.8L719.937 497.73L714.512 482.49L718.54 481.056ZM739.858 481.512C739.467 480.987 739.028 480.549 738.542 480.197C738.06 479.835 737.538 479.566 736.975 479.389C736.419 479.21 735.828 479.138 735.2 479.172C734.57 479.2 733.921 479.333 733.251 479.571C732.05 479.998 731.088 480.681 730.364 481.62C729.64 482.558 729.218 483.709 729.096 485.072C728.979 486.426 729.219 487.94 729.815 489.613C730.416 491.302 731.19 492.638 732.139 493.62C733.087 494.603 734.143 495.231 735.307 495.506C736.468 495.773 737.675 495.684 738.926 495.239C740.062 494.834 740.967 494.266 741.641 493.534C742.322 492.8 742.746 491.952 742.913 490.991C743.076 490.022 742.965 488.996 742.579 487.911L743.547 487.727L737.477 489.887L736.35 486.721L745.422 483.492L746.378 486.178C747.059 488.092 747.241 489.893 746.923 491.58C746.606 493.268 745.868 494.744 744.711 496.009C743.551 497.266 742.047 498.224 740.199 498.882C738.139 499.615 736.166 499.796 734.279 499.427C732.398 499.047 730.716 498.157 729.233 496.758C727.756 495.348 726.597 493.465 725.758 491.107C725.116 489.302 724.797 487.599 724.801 485.998C724.812 484.395 725.104 482.934 725.676 481.615C726.246 480.289 727.061 479.146 728.121 478.187C729.179 477.22 730.44 476.476 731.903 475.955C733.14 475.515 734.358 475.286 735.558 475.269C736.754 475.245 737.885 475.416 738.951 475.783C740.024 476.148 740.991 476.689 741.854 477.407C742.716 478.125 743.426 479.004 743.985 480.043L739.858 481.512Z" fill="white"/>
<rect x="1103.35" y="311.186" width="105.921" height="69.0552" rx="34.5276" transform="rotate(40.186 1103.35 311.186)" fill="#4027DB"/>
<path d="M1106.14 373.425L1102.63 370.464L1124.33 357.724L1128.38 361.149L1119.46 384.678L1115.96 381.717L1123.29 363.215L1123.15 363.095L1106.14 373.425ZM1112.26 366.413L1121.82 374.489L1119.59 377.127L1110.03 369.051L1112.26 366.413ZM1139.95 370.918L1124.64 389.048L1121.35 386.274L1136.67 368.144L1139.95 370.918Z" fill="white"/>
<rect x="1270.21" y="376.199" width="136.868" height="69.0552" rx="34.5276" transform="rotate(-19.7479 1270.21 376.199)" fill="#F4C142"/>
<path d="M1329.04 385.399C1328.6 384.483 1327.9 383.895 1326.96 383.636C1326.02 383.374 1324.95 383.458 1323.75 383.889C1322.9 384.192 1322.23 384.579 1321.71 385.05C1321.2 385.521 1320.86 386.032 1320.7 386.583C1320.54 387.134 1320.55 387.691 1320.75 388.253C1320.91 388.719 1321.16 389.084 1321.5 389.351C1321.84 389.614 1322.24 389.799 1322.69 389.906C1323.15 390.005 1323.63 390.054 1324.14 390.052C1324.65 390.051 1325.15 390.022 1325.65 389.967L1327.93 389.738C1328.84 389.632 1329.75 389.606 1330.65 389.661C1331.55 389.714 1332.4 389.884 1333.2 390.171C1334.01 390.455 1334.73 390.892 1335.35 391.482C1335.97 392.071 1336.46 392.849 1336.8 393.816C1337.27 395.125 1337.35 396.397 1337.04 397.634C1336.73 398.863 1336.04 399.984 1334.97 400.998C1333.91 402.002 1332.49 402.826 1330.7 403.468C1328.96 404.091 1327.36 404.364 1325.89 404.285C1324.42 404.204 1323.14 403.777 1322.05 403.002C1320.97 402.226 1320.13 401.106 1319.54 399.644L1323.52 398.215C1323.86 398.972 1324.33 399.533 1324.94 399.898C1325.55 400.263 1326.23 400.451 1327 400.463C1327.78 400.472 1328.58 400.325 1329.43 400.022C1330.31 399.706 1331.03 399.299 1331.6 398.799C1332.17 398.29 1332.56 397.731 1332.77 397.123C1332.98 396.507 1332.97 395.878 1332.75 395.236C1332.53 394.657 1332.19 394.238 1331.72 393.98C1331.24 393.715 1330.66 393.563 1329.96 393.526C1329.27 393.478 1328.49 393.496 1327.62 393.579L1324.84 393.837C1322.83 394.025 1321.12 393.831 1319.71 393.255C1318.3 392.669 1317.31 391.576 1316.74 389.976C1316.26 388.66 1316.21 387.38 1316.56 386.135C1316.93 384.888 1317.63 383.77 1318.67 382.781C1319.71 381.785 1321.01 381.006 1322.57 380.445C1324.16 379.876 1325.64 379.653 1327.04 379.778C1328.43 379.892 1329.65 380.314 1330.68 381.043C1331.71 381.765 1332.46 382.751 1332.93 384.001L1329.04 385.399ZM1347.68 388.522L1351.34 387.206L1354.52 389.241L1356.73 390.517L1362.16 393.959L1358.23 395.369L1354.55 393.07L1352.93 391.931L1347.68 388.522ZM1358 380.679C1358.86 383.086 1359.15 385.309 1358.86 387.349C1358.58 389.379 1357.83 391.126 1356.61 392.591C1355.39 394.053 1353.81 395.135 1351.85 395.837C1349.9 396.54 1347.98 396.714 1346.11 396.361C1344.24 395.999 1342.54 395.125 1341.03 393.74C1339.52 392.345 1338.33 390.448 1337.47 388.048C1336.61 385.641 1336.32 383.423 1336.6 381.393C1336.88 379.354 1337.63 377.603 1338.85 376.141C1340.07 374.676 1341.66 373.592 1343.62 372.89C1345.57 372.188 1347.48 372.015 1349.35 372.37C1351.23 372.723 1352.92 373.597 1354.43 374.992C1355.94 376.377 1357.13 378.273 1358 380.679ZM1353.93 382.14C1353.32 380.446 1352.54 379.112 1351.59 378.139C1350.65 377.157 1349.61 376.534 1348.46 376.272C1347.31 376.003 1346.13 376.086 1344.92 376.522C1343.7 376.958 1342.74 377.645 1342.03 378.582C1341.31 379.513 1340.9 380.658 1340.79 382.02C1340.68 383.371 1340.93 384.894 1341.54 386.588C1342.15 388.282 1342.92 389.62 1343.87 390.603C1344.82 391.576 1345.86 392.197 1347.01 392.466C1348.16 392.728 1349.34 392.641 1350.55 392.206C1351.76 391.77 1352.73 391.087 1353.45 390.156C1354.16 389.219 1354.57 388.074 1354.68 386.723C1354.79 385.362 1354.54 383.834 1353.93 382.14ZM1365.25 390.684L1357.23 368.348L1361.28 366.895L1368.08 385.84L1377.91 382.308L1379.13 385.7L1365.25 390.684Z" fill="white"/>
<rect x="1097.78" y="13.9567" width="327.398" height="69.0552" rx="34.5276" transform="rotate(8.98232 1097.78 13.9567)" fill="#4027DB"/>
<path d="M1137.56 66.5576L1129.62 65.302L1133.32 41.8607L1141.42 43.1417C1143.75 43.5096 1145.68 44.2948 1147.2 45.4976C1148.73 46.6938 1149.81 48.2369 1150.43 50.1266C1151.06 52.0163 1151.18 54.1783 1150.79 56.6124C1150.41 59.0542 1149.62 61.0809 1148.44 62.6924C1147.26 64.3051 1145.74 65.4463 1143.89 66.1158C1142.05 66.7866 1139.94 66.9339 1137.56 66.5576ZM1134.44 62.299L1137.93 62.8509C1139.57 63.109 1140.98 63.0267 1142.16 62.604C1143.35 62.1736 1144.31 61.4067 1145.05 60.3032C1145.79 59.192 1146.3 57.7398 1146.58 55.9466C1146.86 54.1534 1146.82 52.6221 1146.46 51.3525C1146.1 50.0753 1145.43 49.0578 1144.45 48.3002C1143.47 47.5362 1142.19 47.0287 1140.6 46.7778L1136.99 46.2061L1134.44 62.299ZM1154.08 69.1686L1149.55 68.4522L1161.5 46.3154L1166.75 47.144L1171.3 71.8915L1166.77 71.175L1163.46 51.5515L1163.27 51.5225L1154.08 69.1686ZM1155.68 60.0011L1168.04 61.955L1167.5 65.3659L1155.14 63.4119L1155.68 60.0011ZM1173.03 51.7855L1173.59 48.2258L1192.29 51.1821L1191.73 54.7418L1184.48 53.5965L1181.34 73.4781L1177.13 72.8123L1180.27 52.9307L1173.03 51.7855ZM1191.72 75.1194L1187.19 74.4029L1199.15 52.2662L1204.39 53.0948L1208.95 77.8423L1204.42 77.1258L1201.1 57.5022L1200.92 57.4733L1191.72 75.1194ZM1193.33 65.9518L1205.69 67.9058L1205.15 71.3167L1192.79 69.3627L1193.33 65.9518ZM1221.75 79.8661L1217.22 79.1496L1229.18 57.0129L1234.42 57.8415L1238.98 82.589L1234.45 81.8725L1231.13 62.2489L1230.95 62.22L1221.75 79.8661ZM1223.36 70.6985L1235.72 72.6525L1235.18 76.0634L1222.82 74.1094L1223.36 70.6985ZM1264.39 62.5789L1260.69 86.0201L1256.91 85.423L1248.39 67.7101L1248.19 67.6793L1245.67 83.6464L1241.42 82.9751L1245.13 59.5339L1248.93 60.1346L1257.44 77.8572L1257.64 77.8897L1260.17 61.9112L1264.39 62.5789ZM1267.68 87.1254L1263.15 86.4089L1275.1 64.2722L1280.35 65.1008L1284.91 89.8483L1280.37 89.1318L1277.06 69.5082L1276.87 69.4793L1267.68 87.1254ZM1269.28 77.9578L1281.64 79.9118L1281.1 83.3227L1268.74 81.3687L1269.28 77.9578ZM1287.35 90.2344L1291.05 66.7932L1295.3 67.4644L1292.16 87.346L1302.48 88.9779L1301.92 92.5376L1287.35 90.2344ZM1304.7 68.9506L1309.5 69.7087L1313.59 80.9851L1313.82 81.0213L1321.2 71.5577L1325.99 72.3158L1315.14 85.6644L1313.76 94.4091L1309.52 93.7397L1310.91 84.995L1304.7 68.9506ZM1340.07 81.147C1340.13 80.1305 1339.8 79.281 1339.09 78.5985C1338.4 77.9172 1337.42 77.4771 1336.16 77.2781C1335.27 77.1382 1334.49 77.1517 1333.82 77.3187C1333.14 77.4856 1332.6 77.7715 1332.19 78.1762C1331.78 78.581 1331.53 79.0766 1331.43 79.6629C1331.35 80.1513 1331.39 80.5923 1331.56 80.9859C1331.73 81.3807 1331.99 81.7348 1332.34 82.0481C1332.69 82.3538 1333.09 82.628 1333.54 82.8706C1333.98 83.1133 1334.44 83.3298 1334.9 83.5203L1337.01 84.417C1337.86 84.763 1338.67 85.176 1339.43 85.6561C1340.2 86.1373 1340.87 86.6963 1341.43 87.333C1342 87.9708 1342.42 88.6976 1342.68 89.5134C1342.94 90.3291 1343 91.2444 1342.84 92.2593C1342.62 93.6328 1342.08 94.7868 1341.21 95.7212C1340.34 96.648 1339.2 97.3002 1337.78 97.6779C1336.37 98.0492 1334.72 98.0864 1332.85 97.7897C1331.02 97.5015 1329.48 96.9689 1328.23 96.1919C1326.98 95.4162 1326.07 94.4268 1325.48 93.2239C1324.91 92.0221 1324.71 90.6381 1324.9 89.0718L1329.07 89.7322C1329.01 90.5583 1329.15 91.2772 1329.51 91.8889C1329.86 92.5007 1330.38 92.9962 1331.04 93.3754C1331.72 93.7559 1332.5 94.016 1333.38 94.156C1334.31 94.3019 1335.14 94.2924 1335.88 94.1275C1336.62 93.9561 1337.23 93.6538 1337.71 93.2205C1338.19 92.7796 1338.48 92.224 1338.59 91.5537C1338.68 90.9421 1338.58 90.4101 1338.29 89.9578C1338.01 89.4979 1337.57 89.0844 1336.98 88.7172C1336.4 88.3436 1335.7 87.9836 1334.9 87.6373L1332.34 86.529C1330.49 85.7278 1329.08 84.735 1328.12 83.5504C1327.16 82.3595 1326.82 80.9246 1327.08 79.2459C1327.3 77.8648 1327.87 76.7144 1328.78 75.7948C1329.7 74.8765 1330.85 74.2337 1332.24 73.8664C1333.63 73.4916 1335.14 73.4338 1336.78 73.6931C1338.45 73.9561 1339.86 74.4764 1341.02 75.2541C1342.19 76.0254 1343.05 76.979 1343.6 78.1149C1344.16 79.2432 1344.35 80.4691 1344.16 81.7929L1340.07 81.147ZM1352.89 76.5672L1349.18 100.008L1344.94 99.3372L1348.64 75.896L1352.89 76.5672ZM1368.56 85.6499C1368.61 84.6334 1368.29 83.7839 1367.58 83.1014C1366.88 82.4202 1365.9 81.98 1364.65 81.781C1363.76 81.6411 1362.98 81.6546 1362.3 81.8216C1361.63 81.9885 1361.09 82.2744 1360.68 82.6792C1360.27 83.0839 1360.02 83.5795 1359.92 84.1658C1359.84 84.6542 1359.88 85.0952 1360.05 85.4888C1360.22 85.8836 1360.48 86.2377 1360.83 86.551C1361.18 86.8567 1361.58 87.1309 1362.02 87.3735C1362.47 87.6162 1362.93 87.8327 1363.39 88.0232L1365.5 88.92C1366.35 89.2659 1367.16 89.6789 1367.92 90.159C1368.69 90.6403 1369.35 91.1992 1369.92 91.8359C1370.49 92.4738 1370.91 93.2006 1371.17 94.0163C1371.43 94.832 1371.48 95.7473 1371.32 96.7622C1371.11 98.1357 1370.56 99.2897 1369.7 100.224C1368.83 101.151 1367.69 101.803 1366.27 102.181C1364.85 102.552 1363.21 102.589 1361.33 102.293C1359.51 102.004 1357.97 101.472 1356.72 100.695C1355.47 99.9191 1354.56 98.9297 1353.97 97.7268C1353.39 96.525 1353.2 95.141 1353.38 93.5747L1357.56 94.2351C1357.49 95.0612 1357.64 95.7801 1357.99 96.3919C1358.35 97.0036 1358.86 97.4991 1359.53 97.8783C1360.21 98.2588 1360.99 98.519 1361.87 98.6589C1362.79 98.8048 1363.63 98.7953 1364.36 98.6304C1365.11 98.459 1365.72 98.1567 1366.2 97.7234C1366.67 97.2825 1366.97 96.7269 1367.08 96.0567C1367.17 95.445 1367.07 94.913 1366.78 94.4608C1366.5 94.0009 1366.06 93.5873 1365.46 93.2201C1364.88 92.8465 1364.19 92.4866 1363.38 92.1402L1360.82 91.0319C1358.97 90.2308 1357.57 89.2379 1356.6 88.0534C1355.65 86.8624 1355.3 85.4276 1355.57 83.7488C1355.79 82.3677 1356.35 81.2173 1357.27 80.2978C1358.18 79.3794 1359.34 78.7366 1360.73 78.3694C1362.12 77.9945 1363.63 77.9367 1365.27 78.196C1366.93 78.459 1368.35 78.9793 1369.51 79.7571C1370.67 80.5284 1371.54 81.482 1372.09 82.6178C1372.65 83.7461 1372.83 84.9721 1372.65 86.2958L1368.56 85.6499Z" fill="white"/>
<rect x="876.28" y="499.692" width="211.427" height="69.0552" rx="34.5276" transform="rotate(-13.1579 876.28 499.692)" fill="#F09EC3"/>
<path d="M925.115 535.254L919.713 512.145L928.379 510.119C930.154 509.704 931.721 509.687 933.079 510.068C934.445 510.447 935.572 511.143 936.459 512.157C937.353 513.162 937.971 514.398 938.314 515.865C938.66 517.347 938.656 518.737 938.301 520.033C937.945 521.33 937.236 522.452 936.172 523.399C935.106 524.338 933.682 525.017 931.899 525.433L926.156 526.776L925.351 523.334L930.53 522.124C931.569 521.881 932.376 521.502 932.954 520.986C933.532 520.47 933.904 519.859 934.073 519.153C934.248 518.446 934.24 517.682 934.049 516.862C933.857 516.042 933.527 515.358 933.057 514.809C932.595 514.259 931.989 513.889 931.239 513.699C930.494 513.5 929.599 513.523 928.553 513.768L924.717 514.664L929.301 534.276L925.115 535.254ZM937.947 507.883L942.674 506.777L950.717 515.679L950.943 515.626L954.206 504.081L958.934 502.976L953.915 519.43L955.93 528.051L951.755 529.027L949.74 520.406L937.947 507.883ZM962.527 505.837L961.707 502.328L980.144 498.018L980.965 501.527L973.822 503.197L978.404 522.797L974.252 523.768L969.67 504.168L962.527 505.837ZM988.465 520.445L983.063 497.336L987.249 496.357L989.536 506.14L1000.24 503.637L997.958 493.854L1002.16 492.872L1007.56 515.982L1003.36 516.963L1001.07 507.146L990.357 509.649L992.652 519.466L988.465 520.445ZM1029.42 498.684C1030.01 501.174 1030.04 503.416 1029.52 505.409C1029.01 507.393 1028.06 509.043 1026.68 510.357C1025.3 511.671 1023.6 512.564 1021.58 513.037C1019.56 513.51 1017.63 513.463 1015.81 512.898C1014 512.323 1012.41 511.26 1011.07 509.71C1009.73 508.151 1008.77 506.131 1008.19 503.648C1007.61 501.158 1007.57 498.921 1008.08 496.937C1008.6 494.944 1009.55 493.291 1010.92 491.977C1012.3 490.663 1014.01 489.769 1016.03 489.296C1018.05 488.823 1019.97 488.87 1021.79 489.437C1023.61 490.003 1025.19 491.065 1026.53 492.624C1027.88 494.174 1028.84 496.194 1029.42 498.684ZM1025.21 499.668C1024.8 497.915 1024.18 496.501 1023.35 495.426C1022.53 494.341 1021.56 493.603 1020.46 493.211C1019.35 492.812 1018.16 492.759 1016.91 493.053C1015.65 493.347 1014.62 493.918 1013.8 494.768C1012.98 495.61 1012.44 496.7 1012.17 498.04C1011.91 499.37 1011.99 500.912 1012.4 502.664C1012.81 504.417 1013.42 505.836 1014.25 506.92C1015.08 507.996 1016.05 508.733 1017.16 509.132C1018.26 509.524 1019.45 509.573 1020.7 509.279C1021.96 508.985 1023 508.418 1023.81 507.576C1024.63 506.726 1025.17 505.636 1025.43 504.306C1025.7 502.967 1025.62 501.421 1025.21 499.668ZM1049.04 481.913L1054.44 505.022L1050.71 505.893L1036.15 492.697L1035.95 492.742L1039.63 508.483L1035.45 509.462L1030.04 486.353L1033.79 485.477L1048.35 498.686L1048.55 498.639L1044.87 482.887L1049.04 481.913Z" fill="white"/>
<rect x="907.555" y="224.669" width="240.293" height="69.0552" rx="34.5276" transform="rotate(-13.1579 907.555 224.669)" fill="#F4C142"/>
<path d="M964.205 258.404L956.374 260.235L950.971 237.125L958.96 235.258C961.255 234.722 963.334 234.723 965.198 235.264C967.067 235.794 968.647 236.817 969.937 238.333C971.228 239.848 972.153 241.805 972.714 244.205C973.277 246.612 973.313 248.785 972.822 250.725C972.339 252.663 971.367 254.29 969.906 255.608C968.452 256.923 966.552 257.855 964.205 258.404ZM959.713 255.634L963.155 254.829C964.765 254.453 966.039 253.846 966.977 253.008C967.914 252.162 968.516 251.089 968.784 249.789C969.049 248.481 968.975 246.943 968.562 245.176C968.149 243.408 967.535 242.004 966.721 240.965C965.905 239.918 964.899 239.229 963.703 238.898C962.512 238.557 961.135 238.57 959.57 238.935L956.005 239.769L959.713 255.634ZM980.489 254.597L976.021 255.642L978.754 230.631L983.922 229.423L997.471 250.627L993.003 251.672L982.536 234.745L982.356 234.787L980.489 254.597ZM978.518 245.502L990.704 242.653L991.49 246.016L979.304 248.865L978.518 245.502ZM991.489 231.355L990.669 227.845L1009.11 223.535L1009.93 227.044L1002.78 228.714L1007.37 248.314L1003.21 249.285L998.632 229.685L991.489 231.355ZM1017.6 245.921L1013.13 246.966L1015.87 221.955L1021.04 220.746L1034.58 241.951L1030.12 242.996L1019.65 226.069L1019.47 226.111L1017.6 245.921ZM1015.63 236.826L1027.82 233.977L1028.6 237.34L1016.42 240.188L1015.63 236.826ZM1036.99 241.388L1031.59 218.279L1040.44 216.211C1042.11 215.82 1043.56 215.759 1044.79 216.027C1046.02 216.286 1047.02 216.803 1047.78 217.577C1048.55 218.35 1049.06 219.308 1049.33 220.451C1049.55 221.391 1049.56 222.238 1049.35 222.992C1049.15 223.739 1048.79 224.39 1048.28 224.946C1047.76 225.502 1047.15 225.959 1046.44 226.315L1046.49 226.541C1047.32 226.394 1048.17 226.462 1049.03 226.745C1049.89 227.019 1050.66 227.514 1051.34 228.228C1052.01 228.943 1052.49 229.888 1052.76 231.061C1053.04 232.257 1053 233.401 1052.65 234.491C1052.29 235.575 1051.59 236.527 1050.56 237.349C1049.52 238.171 1048.12 238.788 1046.35 239.201L1036.99 241.388ZM1040.36 236.911L1044.86 235.859C1046.38 235.504 1047.41 234.958 1047.94 234.223C1048.48 233.478 1048.65 232.646 1048.43 231.728C1048.27 231.044 1047.96 230.467 1047.49 229.997C1047.02 229.519 1046.44 229.195 1045.74 229.025C1045.04 228.848 1044.26 228.86 1043.39 229.062L1038.78 230.141L1040.36 236.911ZM1038.07 227.128L1042.22 226.16C1042.94 225.992 1043.56 225.708 1044.08 225.309C1044.59 224.903 1044.96 224.417 1045.17 223.85C1045.4 223.275 1045.43 222.648 1045.27 221.971C1045.06 221.076 1044.57 220.413 1043.81 219.981C1043.05 219.548 1042.05 219.476 1040.82 219.764L1036.58 220.753L1038.07 227.128ZM1060.21 235.961L1055.74 237.006L1058.47 211.994L1063.64 210.786L1077.19 231.991L1072.72 233.036L1062.26 216.108L1062.08 216.151L1060.21 235.961ZM1058.24 226.866L1070.42 224.017L1071.21 227.379L1059.02 230.228L1058.24 226.866ZM1087.87 211.823C1087.53 210.862 1086.91 210.198 1086 209.832C1085.1 209.464 1084.02 209.425 1082.78 209.715C1081.91 209.919 1081.19 210.226 1080.63 210.635C1080.07 211.044 1079.67 211.513 1079.45 212.042C1079.22 212.571 1079.17 213.126 1079.3 213.707C1079.41 214.188 1079.62 214.58 1079.92 214.883C1080.23 215.184 1080.6 215.413 1081.05 215.572C1081.49 215.723 1081.96 215.827 1082.46 215.883C1082.97 215.939 1083.47 215.969 1083.97 215.971L1086.26 216.006C1087.18 216.005 1088.09 216.084 1088.97 216.241C1089.87 216.398 1090.69 216.664 1091.46 217.041C1092.23 217.417 1092.89 217.933 1093.44 218.589C1093.99 219.246 1094.38 220.075 1094.61 221.075C1094.93 222.429 1094.86 223.703 1094.41 224.895C1093.96 226.08 1093.15 227.115 1091.97 228C1090.8 228.876 1089.29 229.53 1087.44 229.963C1085.65 230.383 1084.02 230.47 1082.57 230.223C1081.12 229.974 1079.9 229.402 1078.9 228.508C1077.92 227.612 1077.21 226.404 1076.8 224.884L1080.91 223.921C1081.16 224.712 1081.57 225.323 1082.13 225.755C1082.69 226.187 1083.35 226.453 1084.11 226.553C1084.88 226.651 1085.7 226.598 1086.57 226.394C1087.48 226.181 1088.25 225.859 1088.87 225.428C1089.5 224.988 1089.95 224.478 1090.23 223.898C1090.5 223.31 1090.57 222.684 1090.42 222.02C1090.27 221.42 1089.98 220.965 1089.54 220.655C1089.1 220.337 1088.54 220.119 1087.85 220.002C1087.17 219.875 1086.39 219.804 1085.52 219.786L1082.73 219.724C1080.71 219.68 1079.03 219.291 1077.7 218.556C1076.36 217.812 1075.51 216.613 1075.12 214.958C1074.8 213.596 1074.89 212.318 1075.39 211.123C1075.89 209.925 1076.72 208.895 1077.87 208.032C1079.01 207.161 1080.39 206.537 1082.01 206.159C1083.65 205.776 1085.15 205.726 1086.52 206.009C1087.89 206.283 1089.05 206.841 1090 207.684C1090.94 208.519 1091.57 209.585 1091.9 210.881L1087.87 211.823ZM1099.23 226.84L1093.82 203.73L1108.85 200.217L1109.67 203.726L1098.83 206.261L1100.3 212.535L1110.36 210.182L1111.18 213.691L1101.12 216.044L1102.59 222.352L1113.53 219.796L1114.35 223.305L1099.23 226.84Z" fill="white"/>
<rect x="209" y="410.005" width="166.858" height="69.0552" rx="34.5276" transform="rotate(-32.2544 209 410.005)" fill="#F19035"/>
<path d="M269.565 425.877L265.684 428.326L260.084 403.798L264.573 400.965L284.314 416.57L280.433 419.019L265.004 406.448L264.848 406.547L269.565 425.877ZM264.726 417.928L275.31 411.249L277.153 414.169L266.569 420.848L264.726 417.928ZM286.405 415.25L273.74 395.18L281.266 390.431C282.808 389.458 284.283 388.929 285.691 388.844C287.106 388.755 288.398 389.045 289.569 389.713C290.742 390.37 291.731 391.336 292.535 392.61C293.347 393.897 293.797 395.211 293.886 396.553C293.974 397.895 293.671 399.187 292.975 400.43C292.275 401.666 291.151 402.773 289.603 403.75L284.615 406.898L282.729 403.909L287.227 401.07C288.128 400.501 288.768 399.879 289.145 399.202C289.522 398.526 289.674 397.827 289.602 397.105C289.537 396.379 289.28 395.66 288.83 394.948C288.381 394.235 287.845 393.697 287.221 393.332C286.605 392.963 285.911 392.811 285.14 392.878C284.371 392.934 283.533 393.248 282.625 393.821L279.293 395.924L290.041 412.956L286.405 415.25ZM303.613 404.391L290.948 384.321L304.001 376.084L305.924 379.131L296.507 385.074L299.945 390.523L308.687 385.007L310.61 388.054L301.869 393.571L305.326 399.049L314.822 393.056L316.745 396.104L303.613 404.391ZM310.196 372.174L319.254 376.735L319.411 376.636L319.212 366.484L323.358 363.868L323.507 377.806L336.121 383.877L331.907 386.536L322.831 382.055L322.674 382.154L322.813 392.275L318.618 394.922L318.626 380.886L306.031 374.802L310.196 372.174Z" fill="white"/>
<rect x="700" y="149.733" width="307.554" height="69.0552" rx="34.5276" transform="rotate(-19.3248 700 149.733)" fill="#F19035"/>
<path d="M759.803 177.238L752.214 179.899L744.361 157.504L752.103 154.789C754.326 154.009 756.394 153.788 758.305 154.125C760.22 154.452 761.901 155.299 763.347 156.667C764.792 158.034 765.923 159.881 766.739 162.207C767.557 164.539 767.826 166.696 767.546 168.677C767.274 170.656 766.482 172.378 765.171 173.845C763.867 175.309 762.078 176.44 759.803 177.238ZM755.04 174.966L758.376 173.797C759.936 173.25 761.137 172.509 761.98 171.575C762.821 170.633 763.304 169.502 763.43 168.18C763.554 166.852 763.315 165.331 762.714 163.618C762.114 161.905 761.353 160.575 760.432 159.629C759.508 158.676 758.434 158.099 757.209 157.898C755.989 157.687 754.621 157.848 753.104 158.38L749.649 159.591L755.04 174.966ZM770.115 148.472L777.969 170.868L773.912 172.29L766.058 149.895L770.115 148.472ZM791.403 149.038C791.014 148.512 790.577 148.071 790.093 147.717C789.613 147.353 789.092 147.082 788.53 146.902C787.975 146.72 787.384 146.645 786.756 146.677C786.126 146.701 785.476 146.831 784.805 147.066C783.602 147.488 782.637 148.166 781.909 149.101C781.18 150.036 780.752 151.185 780.624 152.548C780.501 153.901 780.734 155.416 781.322 157.093C781.915 158.784 782.683 160.123 783.627 161.11C784.571 162.097 785.624 162.731 786.786 163.011C787.946 163.284 789.153 163.2 790.407 162.76C791.544 162.362 792.452 161.798 793.129 161.069C793.814 160.337 794.242 159.492 794.413 158.531C794.581 157.563 794.475 156.536 794.094 155.45L795.062 155.27L788.983 157.402L787.87 154.231L796.958 151.045L797.901 153.735C798.573 155.652 798.747 157.454 798.421 159.14C798.095 160.826 797.351 162.298 796.188 163.557C795.022 164.809 793.514 165.76 791.662 166.409C789.599 167.133 787.625 167.305 785.74 166.927C783.86 166.538 782.183 165.64 780.707 164.234C779.236 162.818 778.087 160.929 777.258 158.567C776.624 156.759 776.313 155.055 776.325 153.454C776.344 151.851 776.643 150.391 777.221 149.075C777.796 147.752 778.617 146.613 779.682 145.658C780.744 144.696 782.008 143.958 783.474 143.444C784.713 143.009 785.932 142.787 787.132 142.775C788.329 142.757 789.459 142.933 790.523 143.305C791.594 143.675 792.559 144.22 793.418 144.943C794.277 145.665 794.983 146.547 795.537 147.589L791.403 149.038ZM800.579 137.789L808.432 160.185L804.375 161.607L796.522 139.212L800.579 137.789ZM804.565 140.211L803.372 136.81L821.24 130.544L822.433 133.945L815.511 136.372L822.172 155.367L818.147 156.778L811.487 137.783L804.565 140.211ZM832.092 151.888L827.761 153.406L827.792 128.246L832.8 126.49L848.549 146.116L844.219 147.635L831.994 131.93L831.819 131.992L832.092 151.888ZM829.155 143.057L840.965 138.915L842.107 142.174L830.297 146.316L829.155 143.057ZM850.883 145.298L843.029 122.903L847.086 121.48L853.747 140.475L863.611 137.016L864.803 140.416L850.883 145.298ZM866.877 114.54L871.842 112.799L884.181 126.695L884.444 126.603L885.402 108.044L890.366 106.303L898.22 128.698L894.327 130.063L888.931 114.677L888.723 114.75L887.907 132.241L884.998 133.261L873.425 120.078L873.217 120.151L878.624 135.57L874.731 136.935L866.877 114.54ZM902.022 127.365L894.168 104.97L908.734 99.8618L909.926 103.263L899.418 106.948L901.55 113.028L911.304 109.607L912.496 113.008L902.742 116.429L904.886 122.541L915.482 118.825L916.675 122.226L902.022 127.365ZM927.699 118.36L920.11 121.021L912.257 98.6263L919.999 95.9113C922.222 95.1316 924.289 94.9101 926.2 95.2469C928.116 95.5739 929.797 96.4212 931.242 97.789C932.688 99.1568 933.819 101.003 934.634 103.329C935.452 105.662 935.722 107.819 935.442 109.8C935.17 111.778 934.378 113.501 933.067 114.967C931.763 116.432 929.974 117.562 927.699 118.36ZM922.936 116.089L926.271 114.919C927.831 114.372 929.033 113.631 929.876 112.697C930.717 111.756 931.2 110.624 931.326 109.303C931.449 107.974 931.211 106.453 930.61 104.74C930.009 103.027 929.248 101.697 928.327 100.752C927.404 99.7984 926.329 99.2213 925.105 99.0205C923.885 98.8097 922.516 98.9703 921 99.502L917.545 100.714L922.936 116.089ZM938.011 89.5948L945.864 111.99L941.807 113.413L933.954 91.0175L938.011 89.5948ZM952.518 109.657L948.187 111.175L948.218 86.0154L953.226 84.2591L968.975 103.886L964.645 105.404L952.42 89.6993L952.245 89.7606L952.518 109.657ZM949.58 100.826L961.39 96.6845L962.533 99.9432L950.723 104.085L949.58 100.826Z" fill="white"/>
<rect x="149.939" y="170.957" width="290.942" height="69.0552" rx="34.5276" transform="rotate(7.43812 149.939 170.957)" fill="#F4C142"/>
<path d="M191.103 222.464L183.128 221.423L186.2 197.891L194.336 198.953C196.672 199.258 198.618 199.991 200.172 201.152C201.735 202.307 202.855 203.82 203.529 205.692C204.204 207.565 204.382 209.722 204.063 212.166C203.743 214.617 203.012 216.664 201.871 218.307C200.737 219.951 199.254 221.133 197.423 221.852C195.599 222.572 193.493 222.776 191.103 222.464ZM187.873 218.291L191.377 218.749C193.017 218.963 194.423 218.843 195.596 218.388C196.771 217.926 197.712 217.133 198.419 216.01C199.128 214.88 199.6 213.414 199.835 211.614C200.07 209.814 199.989 208.284 199.592 207.025C199.197 205.758 198.498 204.759 197.495 204.028C196.5 203.29 195.206 202.818 193.613 202.61L189.982 202.136L187.873 218.291ZM207.685 224.629L203.135 224.035L214.492 201.584L219.755 202.271L224.979 226.887L220.428 226.293L216.585 206.766L216.401 206.742L207.685 224.629ZM209.039 215.422L221.449 217.042L221.002 220.466L208.592 218.846L209.039 215.422ZM226.159 206.742L226.625 203.168L245.401 205.619L244.934 209.193L237.661 208.243L235.055 228.202L230.826 227.65L233.432 207.691L226.159 206.742ZM245.479 229.563L240.929 228.969L252.286 206.518L257.548 207.205L262.772 231.821L258.222 231.227L254.379 211.7L254.195 211.676L245.479 229.563ZM246.833 220.356L259.243 221.976L258.796 225.4L246.386 223.78L246.833 220.356ZM277.498 220.035L277.051 223.46L266.457 222.076L266.904 218.652L277.498 220.035ZM287.624 235.066L279.65 234.024L282.722 210.492L290.858 211.554C293.194 211.859 295.14 212.592 296.694 213.753C298.257 214.908 299.376 216.421 300.051 218.294C300.726 220.166 300.904 222.324 300.585 224.767C300.265 227.219 299.534 229.266 298.393 230.909C297.259 232.553 295.776 233.734 293.945 234.453C292.121 235.173 290.015 235.378 287.624 235.066ZM284.395 230.893L287.899 231.35C289.539 231.564 290.945 231.444 292.118 230.989C293.293 230.527 294.234 229.735 294.941 228.612C295.65 227.481 296.122 226.016 296.357 224.215C296.592 222.415 296.511 220.885 296.114 219.626C295.719 218.359 295.02 217.36 294.016 216.629C293.022 215.892 291.728 215.419 290.135 215.211L286.504 214.737L284.395 230.893ZM302.449 237.001L305.522 213.468L314.346 214.621C316.154 214.857 317.63 215.369 318.774 216.157C319.925 216.946 320.741 217.948 321.221 219.164C321.709 220.373 321.856 221.728 321.66 223.23C321.463 224.739 320.97 226.007 320.182 227.034C319.402 228.054 318.352 228.785 317.032 229.228C315.713 229.664 314.15 229.764 312.342 229.528L306.056 228.707L306.518 225.168L312.229 225.914C313.286 226.052 314.171 226.019 314.883 225.816C315.596 225.605 316.151 225.237 316.546 224.713C316.951 224.181 317.207 223.498 317.316 222.663C317.425 221.828 317.354 221.094 317.101 220.461C316.85 219.821 316.407 219.303 315.773 218.909C315.14 218.507 314.291 218.236 313.226 218.097L309.32 217.587L306.712 237.558L302.449 237.001ZM315.998 227.925L320.432 239.349L315.675 238.728L311.345 227.317L315.998 227.925ZM330.182 216.688L327.11 240.221L322.847 239.664L325.919 216.131L330.182 216.688ZM337.3 217.617L341.006 236.939L341.247 236.971L349.779 219.246L354.467 219.858L343.098 242.308L337.836 241.621L332.623 217.007L337.3 217.617ZM353.847 243.711L356.919 220.179L372.224 222.177L371.758 225.75L360.715 224.309L359.881 230.697L370.131 232.035L369.664 235.609L359.415 234.271L358.576 240.694L369.711 242.148L369.244 245.721L353.847 243.711ZM395.265 225.185L392.193 248.717L388.401 248.222L379.405 230.745L379.21 230.72L377.117 246.749L372.854 246.193L375.926 222.66L379.741 223.158L388.724 240.645L388.931 240.672L391.025 224.631L395.265 225.185Z" fill="white"/>
<rect y="358.464" width="175.457" height="69.0552" rx="34.5276" transform="rotate(-21.2203 0 358.464)" fill="#4027DB"/>
<path d="M53.4376 386.788L44.8476 364.665L59.0202 359.162L60.3247 362.522L50.1597 366.469L52.4918 372.475L61.6845 368.905L62.9889 372.265L53.7962 375.834L57.4453 385.232L53.4376 386.788ZM66.0707 356.425L74.6607 378.548L70.653 380.104L62.063 357.981L66.0707 356.425ZM87.366 356.286C86.9594 355.773 86.5082 355.347 86.0124 355.009C85.521 354.661 84.9913 354.407 84.4234 354.246C83.8627 354.083 83.2693 354.027 82.6433 354.08C82.0145 354.125 81.3688 354.276 80.7062 354.533C79.518 354.995 78.5754 355.705 77.8785 356.663C77.1816 357.622 76.7918 358.784 76.709 360.15C76.6307 361.507 76.9131 363.013 77.5563 364.669C78.205 366.34 79.0173 367.653 79.9932 368.609C80.9691 369.564 82.0426 370.162 83.2137 370.404C84.382 370.638 85.5854 370.515 86.8241 370.034C87.9475 369.597 88.8359 369.004 89.4891 368.253C90.1495 367.499 90.5491 366.64 90.688 365.674C90.8241 364.701 90.6839 363.679 90.2672 362.606L91.2292 362.394L85.2231 364.726L84.0067 361.593L92.9834 358.108L94.0152 360.765C94.7506 362.659 94.9835 364.454 94.7138 366.15C94.4441 367.846 93.7489 369.342 92.6282 370.639C91.5047 371.929 90.0284 372.929 88.1992 373.639C86.1612 374.43 84.194 374.668 82.2978 374.352C80.4059 374.026 78.6994 373.184 77.1781 371.827C75.6612 370.46 74.4498 368.61 73.5438 366.277C72.8503 364.491 72.483 362.798 72.4418 361.198C72.4079 359.595 72.6581 358.127 73.1924 356.792C73.7239 355.45 74.5061 354.285 75.539 353.295C76.5692 352.299 77.808 351.519 79.2555 350.957C80.4798 350.482 81.6911 350.219 82.8895 350.168C84.0852 350.11 85.2207 350.249 86.2962 350.585C87.3788 350.919 88.3613 351.433 89.2438 352.126C90.1262 352.819 90.8614 353.677 91.4492 354.7L87.366 356.286ZM92.1567 346.296L97.0609 344.392L109.853 357.872L110.112 357.772L110.456 339.191L115.36 337.287L123.95 359.41L120.104 360.903L114.203 345.704L113.998 345.784L113.76 363.292L110.886 364.407L98.8836 351.615L98.6783 351.695L104.592 366.926L100.747 368.419L92.1567 346.296ZM130.547 356.848L126.269 358.509L125.468 333.362L130.415 331.441L146.804 350.536L142.527 352.197L129.789 336.905L129.616 336.972L130.547 356.848ZM127.319 348.119L138.986 343.59L140.236 346.809L128.569 351.339L127.319 348.119Z" fill="white"/>
<rect x="343" y="89.3375" width="391.018" height="69.0552" rx="34.5276" transform="rotate(-11.8627 343 89.3375)" fill="#F09EC3"/>
<path d="M385.904 102.819L391.053 101.737L401.483 117.118L401.755 117.061L405.115 98.7835L410.264 97.702L415.142 120.927L411.105 121.775L407.753 105.819L407.538 105.865L404.457 123.101L401.44 123.735L391.677 109.161L391.461 109.206L394.82 125.196L390.783 126.044L385.904 102.819ZM422.068 119.473L417.577 120.416L420.875 95.4731L426.069 94.3821L439.135 115.888L434.644 116.831L424.563 99.6716L424.382 99.7097L422.068 119.473ZM420.302 110.335L432.55 107.763L433.26 111.142L421.012 113.715L420.302 110.335ZM457.112 96.0436L452.87 96.9345C452.603 96.2643 452.251 95.695 451.813 95.2265C451.373 94.7505 450.872 94.3742 450.309 94.0979C449.745 93.8215 449.134 93.6539 448.474 93.5951C447.821 93.5272 447.139 93.5678 446.428 93.7171C445.165 93.9823 444.113 94.5349 443.271 95.3748C442.428 96.2072 441.858 97.29 441.562 98.6231C441.264 99.9487 441.298 101.485 441.665 103.231C442.038 105.008 442.629 106.447 443.436 107.548C444.25 108.64 445.206 109.395 446.304 109.811C447.408 110.219 448.587 110.291 449.842 110.027C450.538 109.881 451.169 109.654 451.735 109.345C452.308 109.028 452.798 108.637 453.206 108.172C453.621 107.706 453.939 107.173 454.161 106.574C454.39 105.973 454.497 105.319 454.483 104.612L458.729 103.744C458.802 104.881 458.676 105.989 458.35 107.068C458.031 108.145 457.527 109.143 456.835 110.062C456.143 110.973 455.273 111.756 454.226 112.41C453.178 113.056 451.962 113.525 450.579 113.815C448.537 114.244 446.616 114.154 444.815 113.546C443.013 112.938 441.464 111.838 440.167 110.248C438.87 108.657 437.959 106.615 437.435 104.12C436.909 101.617 436.925 99.38 437.482 97.4079C438.037 95.4284 439.017 93.7977 440.421 92.516C441.825 91.2343 443.54 90.3806 445.567 89.955C446.859 89.6835 448.1 89.6124 449.287 89.7418C450.475 89.8713 451.577 90.1963 452.594 90.7167C453.61 91.2297 454.504 91.9339 455.276 92.8295C456.054 93.7159 456.666 94.7873 457.112 96.0436ZM463.558 110.757L458.68 87.5321L462.887 86.6483L464.952 96.4806L475.715 94.2199L473.649 84.3877L477.868 83.5015L482.747 106.727L478.528 107.613L476.455 97.7468L465.693 100.007L467.766 109.874L463.558 110.757ZM486.012 81.7908L490.891 105.016L486.684 105.9L481.805 82.6745L486.012 81.7908ZM509.016 76.9588L513.895 100.184L510.152 100.97L495.885 87.449L495.693 87.4895L499.016 103.31L494.808 104.193L489.93 80.9679L493.695 80.177L507.953 93.712L508.157 93.6692L504.831 77.8378L509.016 76.9588ZM517.84 99.3554L512.962 76.13L528.067 72.957L528.808 76.4839L517.91 78.7731L519.234 85.0785L529.35 82.9536L530.091 86.4805L519.975 88.6054L521.307 94.9447L532.296 92.6364L533.037 96.1633L517.84 99.3554ZM543.882 93.8852L539.004 70.6598L543.211 69.776L547.349 89.4745L557.578 87.3258L558.319 90.8527L543.882 93.8852ZM561.332 90.2199L556.453 66.9945L571.559 63.8215L572.299 67.3484L561.401 69.6376L562.726 75.9429L572.841 73.8181L573.582 77.345L563.466 79.4698L564.798 85.8092L575.787 83.5009L576.528 87.0278L561.332 90.2199ZM583.073 85.6529L578.583 86.5962L581.881 61.6533L587.074 60.5623L600.141 82.0678L595.65 83.0111L585.569 65.8518L585.387 65.8899L583.073 85.6529ZM581.308 76.5155L593.556 73.9428L594.266 77.3223L582.018 79.895L581.308 76.5155ZM602.561 81.5594L597.683 58.334L606.392 56.5045C608.177 56.1297 609.739 56.1253 611.078 56.4911C612.426 56.8554 613.527 57.5319 614.382 58.5206C615.243 59.5002 615.829 60.7309 616.14 62.2127C616.453 63.7021 616.407 65.0616 616.003 66.2912C615.604 67.5117 614.855 68.5493 613.755 69.4038C612.654 70.2508 611.212 70.8617 609.428 71.2364L603.224 72.5395L602.491 69.0466L608.127 67.8627C609.17 67.6435 609.994 67.3204 610.599 66.8934C611.203 66.4588 611.604 65.9284 611.804 65.3022C612.01 64.6669 612.027 63.9372 611.854 63.1131C611.681 62.2891 611.37 61.6201 610.923 61.1062C610.474 60.5848 609.885 60.2428 609.156 60.0801C608.426 59.9099 607.535 59.9351 606.484 60.1559L602.629 60.9658L606.769 80.6756L602.561 81.5594ZM612.349 68.5151L620.309 77.8314L615.614 78.8176L607.756 69.4799L612.349 68.5151ZM636.9 50.0962L641.779 73.3216L638.037 74.1077L623.77 60.5864L623.577 60.6269L626.9 76.4469L622.693 77.3307L617.814 54.1053L621.579 53.3144L635.837 66.8495L636.041 66.8066L632.716 50.9752L636.9 50.0962ZM645.053 48.3836L649.932 71.609L645.725 72.4928L640.846 49.2674L645.053 48.3836ZM668.057 43.5517L672.935 66.7771L669.193 67.5632L654.926 54.0419L654.734 54.0824L658.057 69.9024L653.849 70.7862L648.971 47.5608L652.736 46.7699L666.994 60.3049L667.198 60.262L663.872 44.4307L668.057 43.5517ZM689.12 46.8713C688.802 46.2986 688.426 45.8053 687.992 45.3913C687.563 44.9681 687.082 44.6311 686.548 44.3802C686.021 44.1277 685.445 43.9765 684.819 43.9265C684.191 43.8689 683.529 43.9131 682.834 44.0592C681.586 44.3213 680.541 44.8685 679.697 45.7008C678.854 46.5332 678.28 47.6168 677.976 48.9515C677.678 50.2771 677.712 51.8093 678.077 53.5482C678.446 55.3022 679.034 56.7299 679.841 57.8311C680.649 58.9324 681.611 59.6974 682.727 60.126C683.842 60.5471 685.049 60.621 686.35 60.3479C687.529 60.1001 688.502 59.6589 689.269 59.0243C690.043 58.388 690.577 57.6048 690.871 56.6747C691.164 55.7371 691.191 54.705 690.955 53.5785L691.938 53.5258L685.633 54.8503L684.942 51.5615L694.366 49.582L694.952 52.3718C695.37 54.3601 695.308 56.1691 694.766 57.7985C694.224 59.428 693.295 60.7915 691.978 61.889C690.66 62.979 689.041 63.7257 687.12 64.129C684.981 64.5785 683.001 64.493 681.182 63.8727C679.368 63.2432 677.821 62.1354 676.54 60.5493C675.266 58.9541 674.371 56.9317 673.857 54.4821C673.463 52.6071 673.376 50.8769 673.595 49.2915C673.823 47.7045 674.308 46.296 675.052 45.0661C675.795 43.8287 676.756 42.8058 677.936 41.9974C679.115 41.1815 680.464 40.614 681.984 40.2948C683.269 40.0248 684.507 39.9621 685.698 40.1067C686.887 40.2437 687.985 40.5656 688.991 41.0726C690.005 41.578 690.891 42.2444 691.649 43.0719C692.407 43.8995 692.993 44.8658 693.406 45.9708L689.12 46.8713Z" fill="white"/>
<rect x="1239.51" y="479.895" width="203.669" height="69.0552" rx="34.5276" transform="rotate(25.8744 1239.51 479.895)" fill="#F19035"/>
<path d="M1254.96 538.231L1265.32 516.878L1273.33 520.762C1274.97 521.558 1276.2 522.531 1277.01 523.682C1277.83 524.837 1278.27 526.087 1278.32 527.434C1278.38 528.777 1278.08 530.127 1277.43 531.482C1276.76 532.852 1275.88 533.928 1274.79 534.712C1273.7 535.495 1272.44 535.92 1271.02 535.985C1269.6 536.044 1268.06 535.674 1266.42 534.875L1261.11 532.301L1262.65 529.121L1267.44 531.442C1268.4 531.907 1269.26 532.121 1270.04 532.084C1270.81 532.047 1271.49 531.808 1272.06 531.365C1272.64 530.927 1273.12 530.328 1273.48 529.571C1273.85 528.813 1274.03 528.073 1274.01 527.351C1274 526.633 1273.76 525.964 1273.29 525.344C1272.84 524.721 1272.13 524.175 1271.16 523.706L1267.62 521.987L1258.83 540.108L1254.96 538.231ZM1273.63 547.287L1269.5 545.284L1287.38 527.577L1292.15 529.893L1289.32 554.898L1285.2 552.895L1287.73 533.155L1287.56 533.074L1273.63 547.287ZM1277.83 538.98L1289.09 544.442L1287.58 547.549L1276.32 542.087L1277.83 538.98ZM1319.45 543.135L1309.1 564.488L1305.66 562.819L1302.65 543.394L1302.47 543.308L1295.42 557.853L1291.55 555.977L1301.91 534.624L1305.37 536.303L1308.36 555.733L1308.55 555.824L1315.61 541.269L1319.45 543.135ZM1319.96 569.757L1312.73 566.247L1323.08 544.894L1330.46 548.475C1332.58 549.503 1334.2 550.814 1335.31 552.407C1336.42 553.997 1337.01 555.786 1337.05 557.776C1337.1 559.765 1336.59 561.869 1335.51 564.086C1334.43 566.31 1333.09 568.021 1331.49 569.219C1329.9 570.42 1328.12 571.072 1326.15 571.175C1324.19 571.281 1322.13 570.809 1319.96 569.757ZM1318.22 564.777L1321.4 566.319C1322.88 567.041 1324.26 567.371 1325.51 567.311C1326.77 567.244 1327.92 566.79 1328.94 565.948C1329.97 565.1 1330.88 563.859 1331.68 562.225C1332.47 560.592 1332.88 559.115 1332.9 557.795C1332.92 556.468 1332.58 555.299 1331.86 554.288C1331.15 553.274 1330.07 552.416 1328.62 551.715L1325.33 550.117L1318.22 564.777ZM1335.01 577.055L1330.88 575.053L1348.75 557.345L1353.53 559.662L1350.7 584.666L1346.57 582.663L1349.1 562.923L1348.93 562.842L1335.01 577.055ZM1339.2 568.749L1350.46 574.21L1348.96 577.317L1337.7 571.856L1339.2 568.749ZM1371.7 575.724C1372.04 574.766 1371.97 573.858 1371.5 573C1371.03 572.145 1370.22 571.44 1369.07 570.884C1368.27 570.492 1367.51 570.279 1366.82 570.242C1366.12 570.206 1365.52 570.322 1365.01 570.59C1364.51 570.859 1364.12 571.259 1363.85 571.791C1363.64 572.236 1363.55 572.671 1363.59 573.095C1363.64 573.523 1363.79 573.938 1364.03 574.339C1364.28 574.733 1364.58 575.111 1364.94 575.473C1365.3 575.835 1365.67 576.175 1366.06 576.491L1367.81 577.963C1368.53 578.541 1369.18 579.171 1369.77 579.852C1370.37 580.535 1370.84 581.264 1371.2 582.037C1371.56 582.814 1371.75 583.63 1371.76 584.487C1371.77 585.344 1371.56 586.234 1371.11 587.159C1370.5 588.41 1369.65 589.356 1368.55 589.999C1367.45 590.634 1366.16 590.926 1364.69 590.874C1363.24 590.819 1361.65 590.377 1359.94 589.548C1358.28 588.742 1356.96 587.785 1355.99 586.677C1355.02 585.573 1354.43 584.361 1354.22 583.04C1354.02 581.722 1354.24 580.341 1354.87 578.896L1358.67 580.742C1358.37 581.513 1358.3 582.243 1358.46 582.932C1358.63 583.621 1358.97 584.244 1359.5 584.8C1360.04 585.361 1360.71 585.836 1361.51 586.227C1362.35 586.635 1363.15 586.868 1363.91 586.924C1364.67 586.977 1365.34 586.865 1365.92 586.589C1366.51 586.305 1366.95 585.859 1367.25 585.251C1367.52 584.692 1367.58 584.154 1367.43 583.637C1367.29 583.114 1366.99 582.59 1366.53 582.067C1366.08 581.541 1365.52 580.995 1364.85 580.429L1362.73 578.625C1361.19 577.32 1360.13 575.962 1359.55 574.548C1358.99 573.132 1359.07 571.659 1359.82 570.13C1360.43 568.872 1361.3 567.935 1362.44 567.32C1363.59 566.709 1364.88 566.429 1366.31 566.48C1367.75 566.525 1369.22 566.91 1370.71 567.635C1372.23 568.37 1373.43 569.278 1374.31 570.359C1375.2 571.437 1375.75 572.6 1375.95 573.848C1376.16 575.089 1375.98 576.316 1375.42 577.529L1371.7 575.724Z" fill="white"/>
</svg>
