<svg width="40" height="41" viewBox="0 0 40 41" fill="none" xmlns="http://www.w3.org/2000/svg">
<path fill-rule="evenodd" clip-rule="evenodd" d="M26.4164 4.66775C27.468 4.66775 28.518 4.81608 29.5164 5.15108C35.668 7.15108 37.8847 13.9011 36.033 19.8011C34.983 22.8161 33.2664 25.5677 31.018 27.8161C27.7997 30.9327 24.268 33.6994 20.4664 36.0827L20.0497 36.3344L19.6164 36.0661C15.8014 33.6994 12.2497 30.9327 9.00137 27.7994C6.76804 25.5511 5.0497 22.8161 3.98304 19.8011C2.0997 13.9011 4.31637 7.15108 10.5347 5.11608C11.018 4.94941 11.5164 4.83275 12.0164 4.76775H12.2164C12.6847 4.69941 13.1497 4.66775 13.6164 4.66775H13.7997C14.8497 4.69941 15.8664 4.88275 16.8514 5.21775H16.9497C17.0164 5.24941 17.0664 5.28441 17.0997 5.31608C17.468 5.43441 17.8164 5.56775 18.1497 5.75108L18.783 6.03441C18.9361 6.11603 19.1078 6.24074 19.2563 6.34853C19.3504 6.41682 19.4351 6.47831 19.4997 6.51775C19.5269 6.5338 19.5546 6.54993 19.5824 6.5662C19.7253 6.64962 19.8742 6.73652 19.9997 6.83275C21.8514 5.41775 24.0997 4.65108 26.4164 4.66775ZM30.8497 16.6677C31.533 16.6494 32.1164 16.1011 32.1664 15.3994V15.2011C32.2164 12.8661 30.8014 10.7511 28.6497 9.93441C27.9664 9.69941 27.2164 10.0677 26.9664 10.7677C26.733 11.4677 27.0997 12.2344 27.7997 12.4827C28.868 12.8827 29.583 13.9344 29.583 15.0994V15.1511C29.5514 15.5327 29.6664 15.9011 29.8997 16.1844C30.133 16.4677 30.483 16.6327 30.8497 16.6677Z" fill="#130F26"/>
</svg>
