<svg width="54" height="54" viewBox="0 0 54 54" fill="none" xmlns="http://www.w3.org/2000/svg">
<rect width="54" height="54" rx="27" fill="black"/>
<path d="M27.0044 13.7199C31.3331 13.7199 31.8412 13.7392 33.5522 13.8164C35.1344 13.8872 35.9899 14.1509 36.5623 14.376C37.3213 14.6719 37.8616 15.0192 38.4276 15.5852C38.9936 16.1512 39.3474 16.6915 39.6368 17.4505C39.8555 18.0229 40.1256 18.8784 40.1964 20.4606C40.2736 22.1715 40.2929 22.6797 40.2929 27.0084C40.2929 31.3371 40.2736 31.8452 40.1964 33.5561C40.1256 35.1384 39.8619 35.9938 39.6368 36.5663C39.3409 37.3253 38.9936 37.8655 38.4276 38.4316C37.8616 38.9976 37.3213 39.3513 36.5623 39.6408C35.9899 39.8595 35.1344 40.1296 33.5522 40.2004C31.8412 40.2775 31.3331 40.2968 27.0044 40.2968C22.6757 40.2968 22.1676 40.2775 20.4566 40.2004C18.8744 40.1296 18.0189 39.8659 17.4465 39.6408C16.6875 39.3449 16.1472 38.9976 15.5812 38.4316C15.0152 37.8655 14.6614 37.3253 14.372 36.5663C14.1533 35.9938 13.8832 35.1384 13.8124 33.5561C13.7352 31.8452 13.7159 31.3371 13.7159 27.0084C13.7159 22.6797 13.7352 22.1715 13.8124 20.4606C13.8832 18.8784 14.1469 18.0229 14.372 17.4505C14.6679 16.6915 15.0152 16.1512 15.5812 15.5852C16.1472 15.0192 16.6875 14.6654 17.4465 14.376C18.0189 14.1573 18.8744 13.8872 20.4566 13.8164C22.1676 13.7328 22.6821 13.7199 27.0044 13.7199ZM27.0044 10.7998C22.6049 10.7998 22.0518 10.8191 20.3216 10.8963C18.5978 10.9735 17.4208 11.25 16.3916 11.6488C15.3239 12.0605 14.4234 12.6201 13.523 13.5205C12.6225 14.421 12.0693 15.3279 11.6513 16.3892C11.2525 17.4183 10.9759 18.5954 10.8987 20.3256C10.8215 22.0493 10.8022 22.6025 10.8022 27.0019C10.8022 31.4014 10.8215 31.9546 10.8987 33.6848C10.9759 35.4085 11.2525 36.5856 11.6513 37.6211C12.0629 38.6888 12.6225 39.5893 13.523 40.4898C14.4234 41.3903 15.3304 41.9434 16.3916 42.3615C17.4208 42.7603 18.5978 43.0369 20.328 43.114C22.0582 43.1912 22.6049 43.2105 27.0108 43.2105C31.4167 43.2105 31.9635 43.1912 33.6937 43.114C35.4174 43.0369 36.5945 42.7603 37.63 42.3615C38.6977 41.9499 39.5982 41.3903 40.4987 40.4898C41.3992 39.5893 41.9523 38.6824 42.3704 37.6211C42.7692 36.592 43.0458 35.415 43.1229 33.6848C43.2001 31.9546 43.2194 31.4078 43.2194 27.0019C43.2194 22.596 43.2001 22.0493 43.1229 20.3191C43.0458 18.5954 42.7692 17.4183 42.3704 16.3828C41.9587 15.3151 41.3992 14.4146 40.4987 13.5141C39.5982 12.6136 38.6913 12.0605 37.63 11.6424C36.6009 11.2436 35.4239 10.967 33.6937 10.8899C31.957 10.8191 31.4039 10.7998 27.0044 10.7998Z" fill="white"/>
<path d="M27.0041 18.6855C22.4117 18.6855 18.6812 22.4097 18.6812 27.0085C18.6812 31.6074 22.4053 35.3315 27.0041 35.3315C31.603 35.3315 35.3271 31.6074 35.3271 27.0085C35.3271 22.4097 31.603 18.6855 27.0041 18.6855ZM27.0041 32.4049C24.0197 32.4049 21.6013 29.9865 21.6013 27.0021C21.6013 24.0177 24.0197 21.5992 27.0041 21.5992C29.9886 21.5992 32.407 24.0177 32.407 27.0021C32.407 29.9865 29.9886 32.4049 27.0041 32.4049Z" fill="white"/>
<path d="M35.6553 20.2936C36.7281 20.2936 37.5978 19.4239 37.5978 18.3511C37.5978 17.2784 36.7281 16.4087 35.6553 16.4087C34.5826 16.4087 33.7129 17.2784 33.7129 18.3511C33.7129 19.4239 34.5826 20.2936 35.6553 20.2936Z" fill="white"/>
</svg>
