<svg width="54" height="54" viewBox="0 0 54 54" fill="none" xmlns="http://www.w3.org/2000/svg">
<rect width="54" height="54" rx="27" fill="url(#paint0_linear_0_1165)"/>
<path fill-rule="evenodd" clip-rule="evenodd" d="M12.2218 26.7149C20.0928 23.2856 25.3414 21.0248 27.9676 19.9325C35.4658 16.8137 37.0238 16.272 38.0394 16.2541C38.2627 16.2502 38.7621 16.3055 39.0856 16.568C39.3588 16.7897 39.4339 17.0891 39.4699 17.2992C39.5059 17.5093 39.5506 17.9881 39.515 18.3621C39.1087 22.6314 37.3505 32.992 36.4561 37.7737C36.0776 39.797 35.3323 40.4754 34.6109 40.5418C33.0429 40.6861 31.8523 39.5056 30.3337 38.5102C27.9573 36.9524 26.6148 35.9827 24.3082 34.4627C21.6424 32.706 23.3705 31.7405 24.8897 30.1626C25.2873 29.7496 32.1957 23.4659 32.3294 22.8959C32.3461 22.8246 32.3616 22.5589 32.2038 22.4186C32.0459 22.2782 31.8129 22.3262 31.6447 22.3644C31.4064 22.4185 27.6101 24.9277 20.256 29.8919C19.1784 30.6319 18.2024 30.9924 17.3279 30.9735C16.3639 30.9527 14.5095 30.4284 13.1309 29.9803C11.44 29.4306 10.0961 29.14 10.2132 28.2066C10.2741 27.7204 10.9437 27.2232 12.2218 26.7149Z" fill="white"/>
<defs>
<linearGradient id="paint0_linear_0_1165" x1="27" y1="0" x2="27" y2="53.5995" gradientUnits="userSpaceOnUse">
<stop stop-color="#2AABEE"/>
<stop offset="1" stop-color="#229ED9"/>
</linearGradient>
</defs>
</svg>
