<svg width="54" height="54" viewBox="0 0 54 54" fill="none" xmlns="http://www.w3.org/2000/svg">
<rect width="54" height="54" rx="27" fill="#1D9BF0"/>
<path d="M22.0589 41.2425C34.0334 41.2425 40.5809 31.32 40.5809 22.7205C40.5809 22.437 40.5809 22.1535 40.5674 21.8835C41.8364 20.9655 42.9434 19.818 43.8209 18.5085C42.6599 19.0215 41.4044 19.3725 40.0814 19.5345C41.4314 18.7245 42.4574 17.4555 42.9434 15.93C41.6879 16.6725 40.2974 17.2125 38.8124 17.5095C37.6244 16.2405 35.9369 15.4575 34.0604 15.4575C30.4694 15.4575 27.5534 18.3735 27.5534 21.9645C27.5534 22.4775 27.6074 22.977 27.7289 23.4495C22.3154 23.1795 17.5229 20.5875 14.3099 16.6455C13.7564 17.604 13.4324 18.7245 13.4324 19.9125C13.4324 22.167 14.5799 24.165 16.3349 25.326C15.2684 25.299 14.2694 25.002 13.3919 24.516C13.3919 24.543 13.3919 24.57 13.3919 24.597C13.3919 27.756 15.6329 30.375 18.6164 30.9825C18.0764 31.131 17.4959 31.212 16.9019 31.212C16.4834 31.212 16.0784 31.1715 15.6734 31.0905C16.4969 33.6825 18.8999 35.559 21.7484 35.613C19.5209 37.3545 16.7129 38.394 13.6619 38.394C13.1354 38.394 12.6224 38.367 12.1094 38.2995C14.9579 40.1625 18.3869 41.2425 22.0589 41.2425Z" fill="white"/>
</svg>
