<svg width="58" height="58" viewBox="0 0 58 58" fill="none" xmlns="http://www.w3.org/2000/svg">
<circle cx="29" cy="29" r="29" fill="#1747C1"/>
<g clip-path="url(#clip0_2032_4)">
<path d="M17.9583 38.0833C17.9583 37.554 18.3874 37.125 18.9167 37.125H38.0833C38.6126 37.125 39.0417 37.554 39.0417 38.0833C39.0417 38.6126 38.6126 39.0417 38.0833 39.0417H18.9167C18.3874 39.0417 17.9583 38.6126 17.9583 38.0833Z" fill="white"/>
<path fill-rule="evenodd" clip-rule="evenodd" d="M34.5429 18.8006C33.4202 17.6778 31.5998 17.6778 30.477 18.8006L20.2478 29.0297C19.8612 29.4164 19.5928 29.9053 19.4742 30.4391L18.9636 32.7366C18.6593 34.106 19.881 35.3277 21.2504 35.0234L23.548 34.5128C24.0818 34.3942 24.5706 34.1259 24.9573 33.7393L35.1865 23.51C36.3093 22.3873 36.3093 20.5669 35.1865 19.4442L34.5429 18.8006ZM31.8323 20.1558C32.2065 19.7816 32.8134 19.7816 33.1876 20.1558L33.8312 20.7994C34.2054 21.1737 34.2054 21.7805 33.8312 22.1547L31.9897 23.9962L29.9908 21.9974L31.8323 20.1558ZM28.6355 23.3527L21.6031 30.3851C21.4742 30.5139 21.3848 30.6769 21.3452 30.8548L20.8347 33.1524L23.1322 32.6418C23.3102 32.6023 23.4731 32.5128 23.602 32.3839L30.6344 25.3515L28.6355 23.3527Z" fill="white"/>
</g>
<defs>
<clipPath id="clip0_2032_4">
<rect width="23" height="23" fill="white" transform="translate(17 17)"/>
</clipPath>
</defs>
</svg>
