<svg width="41" height="52" viewBox="0 0 41 52" fill="none" xmlns="http://www.w3.org/2000/svg">
<path d="M13.9892 6.38047C13.9892 6.93275 14.4369 7.38047 14.9892 7.38047C15.5415 7.38047 15.9892 6.93275 15.9892 6.38047H13.9892ZM14.9892 1H15.9892C15.9892 0.447715 15.5415 0 14.9892 0V1ZM1 1V0C0.447715 0 0 0.447715 0 1L1 1ZM1 13.9131H0C0 14.4654 0.447715 14.9131 1 14.9131L1 13.9131ZM5.84242 14.9131C6.39471 14.9131 6.84242 14.4654 6.84242 13.9131C6.84242 13.3608 6.39471 12.9131 5.84242 12.9131V14.9131ZM6.01148 6.74945C5.62096 6.35893 4.98779 6.35893 4.59727 6.74946C4.20674 7.13998 4.20675 7.77314 4.59727 8.16367L6.01148 6.74945ZM7.45656 9.60875L6.74946 10.3159C6.95444 10.5208 7.23829 10.6268 7.52745 10.6062C7.81662 10.5857 8.08263 10.4407 8.25656 10.2087L7.45656 9.60875ZM11.4848 5.90437C11.8162 5.46255 11.7267 4.83575 11.2848 4.50437C10.843 4.173 10.2162 4.26255 9.88485 4.70437L11.4848 5.90437ZM4.22828 20.2936C4.78057 20.2936 5.22828 19.8459 5.22828 19.2936C5.22828 18.7413 4.78057 18.2936 4.22828 18.2936V20.2936ZM1 19.2936V18.2936C0.447715 18.2936 0 18.7413 0 19.2936H1ZM1 32.2067H0C0 32.759 0.447715 33.2067 1 33.2067L1 32.2067ZM7.99461 33.2067C8.5469 33.2067 8.99461 32.759 8.99461 32.2067C8.99461 31.6544 8.5469 31.2067 7.99461 31.2067V33.2067ZM13.9892 28.7713C13.9892 29.3236 14.4369 29.7713 14.9892 29.7713C15.5415 29.7713 15.9892 29.3236 15.9892 28.7713H13.9892ZM14.9892 19.2936H15.9892C15.9892 18.7413 15.5415 18.2936 14.9892 18.2936V19.2936ZM11.2229 18.2936C10.6706 18.2936 10.2229 18.7413 10.2229 19.2936C10.2229 19.8459 10.6706 20.2936 11.2229 20.2936V18.2936ZM1 37.5872V36.5872C0.447715 36.5872 0 37.0349 0 37.5872H1ZM14.9892 37.5872H15.9892C15.9892 37.0349 15.5415 36.5872 14.9892 36.5872V37.5872ZM14.9892 50.5003V51.5003C15.5415 51.5003 15.9892 51.0526 15.9892 50.5003H14.9892ZM1 50.5003H0C0 51.0526 0.447715 51.5003 1 51.5003L1 50.5003ZM6.01148 43.3366C5.62096 42.9461 4.98779 42.9461 4.59727 43.3366C4.20674 43.7272 4.20675 44.3603 4.59727 44.7509L6.01148 43.3366ZM7.45656 46.1959L6.74946 46.903C6.95444 47.108 7.23829 47.214 7.52745 47.1934C7.81662 47.1729 8.08263 47.0278 8.25656 46.7959L7.45656 46.1959ZM11.4848 42.4916C11.8162 42.0497 11.7267 41.4229 11.2848 41.0916C10.843 40.7602 10.2162 40.8497 9.88485 41.2916L11.4848 42.4916ZM26.2501 30.7934C25.8596 30.4029 25.2264 30.4029 24.8359 30.7934C24.4454 31.1839 24.4454 31.8171 24.8359 32.2076L26.2501 30.7934ZM35.4081 41.3656L34.701 42.0727H34.701L35.4081 41.3656ZM39.2121 37.5616L38.505 38.2687L39.2121 37.5616ZM30.0541 26.9894C29.6636 26.5989 29.0304 26.5989 28.6399 26.9894C28.2494 27.38 28.2494 28.0131 28.6399 28.4036L30.0541 26.9894ZM15.9892 6.38047V1H13.9892V6.38047H15.9892ZM14.9892 0H1V2H14.9892V0ZM0 1V13.9131H2V1H0ZM1 14.9131H5.84242V12.9131H1V14.9131ZM4.59727 8.16367L6.74946 10.3159L8.16367 8.90164L6.01148 6.74945L4.59727 8.16367ZM8.25656 10.2087L11.4848 5.90437L9.88485 4.70437L6.65656 9.00875L8.25656 10.2087ZM4.22828 18.2936H1V20.2936H4.22828V18.2936ZM0 19.2936V32.2067H2V19.2936H0ZM1 33.2067H7.99461V31.2067H1V33.2067ZM15.9892 28.7713V19.2936H13.9892V28.7713H15.9892ZM14.9892 18.2936H11.2229V20.2936H14.9892V18.2936ZM1 38.5872H14.9892V36.5872H1V38.5872ZM13.9892 37.5872V50.5003H15.9892V37.5872H13.9892ZM14.9892 49.5003H1V51.5003H14.9892V49.5003ZM2 50.5003V37.5872H0V50.5003H2ZM4.59727 44.7509L6.74946 46.903L8.16367 45.4888L6.01148 43.3366L4.59727 44.7509ZM8.25656 46.7959L11.4848 42.4916L9.88485 41.2916L6.65656 45.5959L8.25656 46.7959ZM30.1306 21.4458C30.1306 27.4309 25.2787 32.2828 19.2936 32.2828V34.2828C26.3833 34.2828 32.1306 28.5355 32.1306 21.4458H30.1306ZM19.2936 32.2828C13.3085 32.2828 8.45656 27.4309 8.45656 21.4458H6.45656C6.45656 28.5355 12.2039 34.2828 19.2936 34.2828V32.2828ZM8.45656 21.4458C8.45656 15.4607 13.3085 10.6087 19.2936 10.6087V8.60875C12.2039 8.60875 6.45656 14.3561 6.45656 21.4458H8.45656ZM19.2936 10.6087C25.2787 10.6087 30.1306 15.4607 30.1306 21.4458H32.1306C32.1306 14.3561 26.3833 8.60875 19.2936 8.60875V10.6087ZM24.8359 32.2076L34.701 42.0727L36.1152 40.6585L26.2501 30.7934L24.8359 32.2076ZM34.701 42.0727C36.1421 43.5138 38.4781 43.5138 39.9192 42.0727L38.505 40.6585C37.845 41.3185 36.7752 41.3185 36.1152 40.6585L34.701 42.0727ZM39.9192 42.0727C41.3603 40.6317 41.3603 38.2956 39.9192 36.8545L38.505 38.2687C39.165 38.9287 39.165 39.9985 38.505 40.6585L39.9192 42.0727ZM39.9192 36.8545L30.0541 26.9894L28.6399 28.4036L38.505 38.2687L39.9192 36.8545Z" fill="#2B8CFF"/>
</svg>
