<svg width="51" height="51" viewBox="0 0 51 51" fill="none" xmlns="http://www.w3.org/2000/svg">
<path d="M31.6717 1.81667L29.91 14.5333C30.7267 14.86 31.485 15.2683 32.1967 15.7583L41.6117 7.07833C38.8 4.61667 35.4167 2.785 31.6717 1.81667Z" stroke="#2B8CFF" stroke-width="2" stroke-miterlimit="10" stroke-linejoin="round"/>
<path d="M45.4267 11.2783L35.965 20.005C36.8283 21.65 37.3183 23.5167 37.3183 25.5C37.3183 29.0467 35.7433 32.22 33.27 34.39L39.3017 45.73C45.765 41.32 50 33.9117 50 25.5C50 20.1917 48.2967 15.2917 45.4267 11.2783Z" stroke="#2B8CFF" stroke-width="2" stroke-miterlimit="10" stroke-linejoin="round"/>
<path d="M18.8033 15.7583C20.4017 14.6617 22.28 13.9383 24.31 13.7283L26.0717 1.02333C25.8733 1.02333 25.6867 1 25.5 1C19.3283 1 13.705 3.29833 9.38833 7.06667L18.8033 15.7583Z" stroke="#2B8CFF" stroke-width="2" stroke-miterlimit="10" stroke-linejoin="round"/>
<path d="M28.2417 36.9917C27.355 37.2017 26.445 37.33 25.5 37.33C18.9667 37.33 13.67 32.0333 13.67 25.5C13.67 23.5167 14.1717 21.6383 15.035 19.9933L5.585 11.2667C2.715 15.28 1 20.18 1 25.5C1 39.0333 11.9667 50 25.5 50C28.6033 50 31.555 49.405 34.285 48.355L28.2417 36.9917Z" stroke="#2B8CFF" stroke-width="2" stroke-miterlimit="10" stroke-linejoin="round"/>
</svg>
