<svg width="52" height="46" viewBox="0 0 52 46" fill="none" xmlns="http://www.w3.org/2000/svg">
<path d="M30.3478 29.6154V31.8166C30.3478 34.2489 28.4022 36.219 26 36.219H15.8913L8.30435 44.1653C7.61956 44.8807 6.43478 44.3964 6.43478 43.4059V36.219H5.34783C2.94565 36.219 1 34.2489 1 31.8166V14.2071C1 11.7748 2.94565 9.80475 5.34783 9.80475H17.3043M22.7391 9.80475H26C28.4022 9.80475 30.3478 11.7748 30.3478 14.2071V24.1125M46.6522 1H23.8261C21.4239 1 19.4783 2.97006 19.4783 5.40237V23.0119C19.4783 25.4442 21.4239 27.4142 23.8261 27.4142H36.1087L43.6957 35.3605C44.3696 36.0759 45.5652 35.5806 45.5652 34.6011V27.4142H46.6522C49.0543 27.4142 51 25.4442 51 23.0119V5.40237C51 2.97006 49.0543 1 46.6522 1Z" stroke="#2B8CFF" stroke-width="2" stroke-miterlimit="10" stroke-linejoin="round"/>
</svg>
