<svg width="57" height="51" viewBox="0 0 57 51" fill="none" xmlns="http://www.w3.org/2000/svg">
<path d="M40.7943 33.8636C43.3882 27.9364 49.0337 15.9177 50.3248 13.0539C51.0525 11.4577 53.1769 5.6948 55.09 1M45.6652 2.1737C42.3671 9.2159 37.0972 18.9928 36.0995 20.9529C34.6559 23.8285 33.3883 24.474 29.0573 24.474H4.40963C-2.92599 24.474 2.71951 40.9058 10.5481 40.9058H18.494M43.1417 38.1007C40.5713 39.0866 36.8155 39.7321 32.5784 39.7321C28.3414 39.7321 24.5855 39.0866 22.0151 38.1007M32.5784 32.6899C24.7146 32.6899 18.494 34.9199 18.494 37.3847C18.494 38.6992 18.494 43.1124 18.494 44.4269C18.494 46.8917 24.7029 49.1217 32.5784 49.1217C40.454 49.1217 46.6628 46.8917 46.6628 44.4269C46.6628 43.1124 46.6628 38.6992 46.6628 37.3847C46.6628 34.9199 40.454 32.6899 32.5784 32.6899Z" stroke="#2B8CFF" stroke-width="2" stroke-miterlimit="10"/>
</svg>
