<svg width="1002" height="411" viewBox="0 0 1002 411" fill="none" xmlns="http://www.w3.org/2000/svg">
<circle cx="253.468" cy="95.6304" r="27.5" transform="rotate(-22.459 253.468 95.6304)" fill="#E04403" stroke="black" stroke-width="2"/>
<path d="M245.028 105.071L251.418 102.429L250.782 100.89L246.762 102.552L248.047 99.4566C248.586 98.13 248.889 96.8201 248.39 95.6141C247.594 93.6872 245.641 93.2444 244.047 93.9034C242.758 94.4363 241.802 95.5783 241.728 97.1669L243.399 97.4012C243.453 96.4702 243.899 95.7826 244.703 95.4502C245.535 95.1064 246.418 95.3581 246.819 96.3285C247.123 97.0632 246.874 97.9937 246.468 98.9733L244.512 103.823L245.028 105.071ZM254.2 99.3314L252.537 100.019L253.472 103.852L254.72 103.337L254.2 99.3314ZM256.034 100.521L262.424 97.8795L261.788 96.3408L257.768 98.0026L259.053 94.907C259.592 93.5804 259.895 92.2705 259.396 91.0645C258.6 89.1376 256.647 88.6948 255.053 89.3538C253.764 89.8867 252.808 91.0287 252.734 92.6173L254.405 92.8516C254.459 91.9206 254.905 91.233 255.709 90.9007C256.541 90.5568 257.424 90.8086 257.825 91.7789C258.129 92.5136 257.88 93.4441 257.474 94.4237L255.518 99.2736L256.034 100.521ZM272.654 82.2892L270.949 82.994L270.015 89.0606L265.085 85.4179L263.366 86.1285L267.377 95.8321L268.971 95.1731L266.106 88.242L271.082 91.9148L271.276 91.8346L272.211 85.7345L275.071 92.6518L276.665 91.9928L272.654 82.2892Z" fill="white"/>
<path d="M239.108 100.934C239.298 100.962 239.388 101.185 239.269 101.336L233.917 108.145C233.798 108.296 233.56 108.262 233.488 108.083L230.268 100.044C230.196 99.8654 230.345 99.6763 230.536 99.7037L239.108 100.934Z" stroke="white" stroke-width="1.5"/>
<circle cx="63.5" cy="75.5" r="27.5" fill="#E04403" stroke="black" stroke-width="2"/>
<path d="M52.0939 81V79.65L55.7539 75.915C56.6439 75.025 57.0889 74.255 57.0889 73.605C57.0889 73.095 56.9339 72.7 56.6239 72.42C56.3239 72.13 55.9389 71.985 55.4689 71.985C54.5889 71.985 53.9389 72.42 53.5189 73.29L52.0639 72.435C52.3939 71.735 52.8589 71.205 53.4589 70.845C54.0589 70.485 54.7239 70.305 55.4539 70.305C56.3739 70.305 57.1639 70.595 57.8239 71.175C58.4839 71.755 58.8139 72.545 58.8139 73.545C58.8139 74.615 58.2189 75.755 57.0289 76.965L54.6589 79.335H59.0089V81H52.0939ZM62.7634 79.2L61.7134 83.1H60.3634L60.9634 79.2H62.7634ZM64.0031 81V79.65L67.6631 75.915C68.5531 75.025 68.9981 74.255 68.9981 73.605C68.9981 73.095 68.8431 72.7 68.5331 72.42C68.2331 72.13 67.8481 71.985 67.3781 71.985C66.4981 71.985 65.8481 72.42 65.4281 73.29L63.9731 72.435C64.3031 71.735 64.7681 71.205 65.3681 70.845C65.9681 70.485 66.6331 70.305 67.3631 70.305C68.2831 70.305 69.0731 70.595 69.7331 71.175C70.3931 71.755 70.7231 72.545 70.7231 73.545C70.7231 74.615 70.1281 75.755 68.9381 76.965L66.5681 79.335H70.9181V81H64.0031ZM86.3275 70.5V81H84.6025V73.515L81.4075 78.795H81.1975L78.0025 73.5V81H76.2775V70.5H78.1375L81.3025 75.75L84.4825 70.5H86.3275Z" fill="white"/>
<path d="M48.1981 75.3493L40.651 79.5967C40.4833 79.6911 40.2763 79.5685 40.2784 79.3761L40.3736 70.7164C40.3757 70.5239 40.5853 70.4059 40.7509 70.504L48.2029 74.9163C48.3685 75.0143 48.3659 75.2549 48.1981 75.3493Z" stroke="white" stroke-width="1.5"/>
<circle cx="64.625" cy="341.671" r="40.8883" transform="rotate(-11.6558 64.625 341.671)" fill="#E04403" stroke="black" stroke-width="2.9737"/>
<path d="M59.5495 345.95L60.0317 348.287L58.2842 348.647L58.852 351.4L56.3182 351.922L55.7505 349.17L48.2366 350.72L47.7544 348.383L50.9143 337.096L53.6447 336.533L50.4848 347.82L55.2684 346.833L54.4483 342.858L56.9821 342.335L57.8021 346.31L59.5495 345.95ZM65.0843 347.381L64.7268 353.376L62.7609 353.781L62.4631 347.922L65.0843 347.381ZM70.7953 339.007C72.2515 338.707 73.5721 338.89 74.7571 339.556C75.9391 340.208 76.6878 341.299 77.0032 342.828C77.3186 344.357 77.0495 345.665 76.1959 346.752C75.3422 347.839 74.1654 348.537 72.6656 348.846C71.4569 349.095 70.3296 349.04 69.2834 348.678C68.2343 348.303 67.4036 347.624 66.7911 346.642L68.6967 344.951C69.3898 346.25 70.5445 346.733 72.1609 346.4C73.0201 346.222 73.6594 345.863 74.079 345.321C74.5101 344.761 74.6475 344.103 74.4913 343.346C74.3351 342.588 73.9571 342.044 73.3573 341.712C72.7576 341.381 72.0354 341.302 71.1908 341.476L66.7348 342.395L65.6304 334.061L74.1491 332.303L74.6357 334.662L68.4324 335.942L68.8732 339.404L70.7953 339.007ZM97.126 327.564L100.28 342.854L97.7682 343.372L95.5198 332.472L92.4533 341.121L92.1475 341.184L85.9044 334.433L88.1574 345.354L85.6454 345.873L82.4914 330.583L85.1999 330.024L91.3857 336.718L94.4394 328.118L97.126 327.564Z" fill="white"/>
<path d="M42.2982 346.048L32.584 354.5C32.3681 354.688 32.0299 354.571 31.9752 354.29L29.5125 341.652C29.4578 341.371 29.7276 341.136 29.9982 341.229L42.175 345.416C42.4456 345.509 42.514 345.86 42.2982 346.048Z" stroke="white" stroke-width="2.23027"/>
<circle cx="466.18" cy="86.1978" r="40.8883" transform="rotate(19.7093 466.18 86.1978)" fill="#E04403" stroke="black" stroke-width="2.9737"/>
<path d="M459.251 87.0779L458.446 89.3245L456.767 88.7228L455.819 91.3683L453.383 90.4958L454.331 87.8503L447.109 85.2628L447.913 83.0163L456.486 75.0238L459.11 75.9639L450.538 83.9564L455.136 85.6037L456.505 81.7824L458.94 82.6549L457.572 86.4762L459.251 87.0779ZM463.232 91.181L459.807 96.1135L457.917 95.4365L460.713 90.2784L463.232 91.181ZM476.987 93.4315L476.182 95.6781L474.503 95.0764L473.555 97.7219L471.119 96.8494L472.067 94.2039L464.845 91.6165L465.649 89.3699L474.222 81.3774L476.846 82.3176L468.274 90.3101L472.872 91.9573L474.241 88.136L476.676 89.0085L475.308 92.8298L476.987 93.4315ZM501.645 91.2011L496.379 105.898L493.965 105.033L497.718 94.5564L490.598 100.345L490.304 100.24L488.487 91.2259L484.727 101.724L482.312 100.859L487.577 86.1617L490.181 87.0944L491.978 96.0301L499.062 90.276L501.645 91.2011Z" fill="white"/>
<path d="M444.838 78.314L432.144 80.4749C431.862 80.523 431.634 80.2476 431.733 79.9793L436.209 67.9056C436.308 67.6373 436.661 67.5773 436.844 67.7976L445.062 77.7104C445.245 77.9306 445.12 78.266 444.838 78.314Z" stroke="white" stroke-width="2.23027"/>
<circle cx="310.063" cy="345.902" r="40.8883" transform="rotate(-14.5704 310.063 345.902)" fill="#E04403" stroke="black" stroke-width="2.9737"/>
<path d="M305.38 350.389L305.981 352.699L304.254 353.148L304.961 355.867L302.457 356.518L301.75 353.799L294.325 355.729L293.724 353.419L296.306 341.986L299.004 341.285L296.423 352.718L301.15 351.489L300.129 347.56L302.632 346.91L303.654 350.838L305.38 350.389ZM310.981 351.537L310.929 357.542L308.986 358.047L308.391 352.211L310.981 351.537ZM313.438 353.664L312.933 351.721L316.803 344.978C317.751 343.364 318.103 342.089 317.86 341.154C317.669 340.42 317.298 339.91 316.748 339.623C316.207 339.318 315.599 339.253 314.923 339.429C313.656 339.758 312.884 340.627 312.605 342.036L310.191 341.35C310.404 340.219 310.875 339.283 311.604 338.54C312.333 337.798 313.222 337.29 314.273 337.017C315.597 336.673 316.842 336.794 318.009 337.382C319.175 337.97 319.946 338.983 320.32 340.422C320.72 341.962 320.29 343.825 319.03 346.012L316.506 350.309L322.766 348.681L323.389 351.077L313.438 353.664ZM341.636 330.204L345.564 345.314L343.081 345.959L340.282 335.188L337.659 343.981L337.357 344.059L330.778 337.635L333.584 348.428L331.101 349.073L327.174 333.963L329.851 333.267L336.369 339.638L338.981 330.894L341.636 330.204Z" fill="white"/>
<path d="M287.989 351.408L278.717 360.343C278.511 360.541 278.167 360.442 278.098 360.165L274.996 347.668C274.927 347.39 275.185 347.142 275.46 347.221L287.834 350.783C288.109 350.862 288.195 351.209 287.989 351.408Z" stroke="white" stroke-width="2.23027"/>
<circle cx="472.58" cy="354.519" r="18.8369" transform="rotate(-20.7674 472.58 354.519)" fill="#6874AD" stroke="black" stroke-width="1.36996"/>
<path d="M470.018 354.75C470.212 355.262 470.249 355.764 470.128 356.257L469.218 360.261L467.95 360.742L468.631 357.902L468.516 357.946C467.818 358.21 467.164 358.216 466.556 357.964C465.951 357.702 465.52 357.232 465.262 356.553C465.005 355.874 465.017 355.239 465.299 354.649C465.584 354.05 466.076 353.618 466.774 353.353C467.472 353.089 468.124 353.087 468.728 353.349C469.331 353.604 469.761 354.071 470.018 354.75ZM466.367 356.134C466.508 356.505 466.741 356.762 467.065 356.902C467.396 357.041 467.747 357.039 468.119 356.898C468.49 356.757 468.752 356.53 468.904 356.216C469.053 355.896 469.056 355.546 468.913 355.169C468.77 354.791 468.537 354.535 468.215 354.4C467.891 354.26 467.543 354.26 467.171 354.401C466.8 354.541 466.536 354.773 466.38 355.096C466.228 355.41 466.224 355.756 466.367 356.134ZM476.638 356.503C476.417 357.312 475.89 357.874 475.058 358.19C474.225 358.506 473.455 358.435 472.747 357.978C472.045 357.519 471.494 356.761 471.093 355.704C470.693 354.648 470.603 353.715 470.823 352.906C471.05 352.094 471.58 351.531 472.413 351.215C473.246 350.899 474.013 350.971 474.714 351.43C475.422 351.887 475.977 352.644 476.377 353.701C476.778 354.757 476.865 355.691 476.638 356.503ZM474.65 357.114C475.149 356.924 475.452 356.572 475.556 356.056C475.661 355.54 475.566 354.895 475.273 354.12C474.979 353.345 474.621 352.799 474.201 352.482C473.781 352.165 473.321 352.102 472.821 352.291C472.328 352.478 472.026 352.831 471.914 353.349C471.81 353.865 471.904 354.51 472.198 355.285C472.492 356.06 472.849 356.606 473.27 356.923C473.697 357.237 474.157 357.301 474.65 357.114ZM478.964 351.456C479.662 351.191 480.314 351.19 480.918 351.451C481.521 351.706 481.95 352.173 482.208 352.852C482.465 353.531 482.454 354.169 482.175 354.766C481.894 355.356 481.404 355.783 480.706 356.048C480.001 356.315 479.348 356.321 478.746 356.066C478.141 355.805 477.71 355.334 477.452 354.656C477.258 354.143 477.221 353.641 477.342 353.148L478.262 349.14L479.52 348.663L478.839 351.503L478.964 351.456ZM480.309 355.001C480.68 354.86 480.942 354.633 481.094 354.319C481.243 353.998 481.246 353.649 481.103 353.271C480.96 352.893 480.727 352.637 480.405 352.503C480.081 352.362 479.733 352.362 479.361 352.503C478.983 352.646 478.72 352.878 478.57 353.199C478.418 353.513 478.414 353.859 478.557 354.237C478.701 354.614 478.934 354.874 479.259 355.014C479.581 355.149 479.931 355.144 480.309 355.001ZM489.016 352.754L487.7 353.253L483.835 351.059L485.048 354.259L483.943 354.678L481.393 347.953L482.498 347.534L483.642 350.55L485.053 346.565L486.369 346.065L484.893 350.372L489.016 352.754Z" fill="white"/>
<path d="M462.742 358.138L458.94 362.692C458.855 362.793 458.693 362.765 458.648 362.641L456.605 357.071C456.56 356.948 456.666 356.821 456.796 356.844L462.64 357.86C462.77 357.882 462.827 358.037 462.742 358.138Z" stroke="white" stroke-width="1.02747"/>
<circle cx="612.364" cy="367.893" r="27.5" transform="rotate(17.7767 612.364 367.893)" fill="#E04403" stroke="black" stroke-width="2"/>
<path d="M606.913 360.896L608.342 361.353L605.136 371.352L603.493 370.825L606.136 362.584L603.938 362.509L603.987 360.981L606.913 360.896ZM609.8 370.957L607.61 374.351L606.324 373.938L608.086 370.408L609.8 370.957ZM618.582 368.197C618.338 368.959 617.923 369.566 617.337 370.018L612.655 373.763L610.769 373.158L614.131 370.534L613.96 370.479C612.922 370.147 612.17 369.559 611.705 368.717C611.253 367.868 611.188 366.939 611.512 365.93C611.835 364.92 612.426 364.207 613.285 363.789C614.156 363.365 615.111 363.319 616.149 363.652C617.187 363.985 617.932 364.575 618.384 365.424C618.84 366.263 618.906 367.187 618.582 368.197ZM613.154 366.457C612.977 367.009 613.01 367.513 613.252 367.969C613.504 368.427 613.906 368.745 614.459 368.923C615.011 369.1 615.517 369.078 615.976 368.858C616.438 368.628 616.759 368.232 616.94 367.67C617.12 367.108 617.087 366.604 616.842 366.158C616.599 365.702 616.202 365.386 615.65 365.209C615.097 365.032 614.585 365.057 614.113 365.283C613.654 365.504 613.335 365.895 613.154 366.457ZM634.114 369.617L630.908 379.615L629.266 379.089L631.551 371.961L626.897 376.013L626.697 375.949L625.271 369.932L622.981 377.074L621.338 376.547L624.544 366.548L626.315 367.116L627.726 373.082L632.357 369.053L634.114 369.617Z" fill="white"/>
<path d="M597.839 363.079L589.355 364.819C589.167 364.858 589.007 364.678 589.068 364.495L591.802 356.278C591.863 356.095 592.099 356.047 592.226 356.191L597.975 362.668C598.103 362.812 598.027 363.04 597.839 363.079Z" stroke="white" stroke-width="1.5"/>
<circle cx="768.495" cy="289.647" r="19.0552" transform="rotate(-18.111 768.495 289.647)" fill="#6874AD" stroke="black" stroke-width="1.38583"/>
<path d="M765.29 289.836C765.462 290.363 765.476 290.873 765.331 291.365L764.223 295.369L762.919 295.795L763.741 292.957L763.622 292.996C762.904 293.23 762.244 293.206 761.641 292.922C761.042 292.629 760.628 292.134 760.4 291.436C760.172 290.738 760.214 290.097 760.526 289.514C760.843 288.922 761.36 288.508 762.078 288.273C762.796 288.039 763.454 288.068 764.053 288.36C764.649 288.646 765.062 289.138 765.29 289.836ZM761.536 291.064C761.661 291.446 761.884 291.716 762.205 291.873C762.533 292.029 762.888 292.044 763.27 291.919C763.652 291.794 763.927 291.576 764.095 291.266C764.261 290.949 764.281 290.597 764.154 290.208C764.027 289.819 763.804 289.55 763.485 289.399C763.163 289.242 762.812 289.225 762.43 289.35C762.048 289.475 761.771 289.697 761.598 290.016C761.43 290.326 761.409 290.676 761.536 291.064ZM768.731 289.367C769.27 289.322 769.751 289.423 770.175 289.671C770.603 289.91 770.902 290.29 771.072 290.81C771.299 291.502 771.243 292.122 770.904 292.67C770.566 293.218 770.057 293.603 769.379 293.825C768.852 293.997 768.338 294.03 767.837 293.924C767.342 293.816 766.926 293.559 766.589 293.152L767.373 292.272C767.771 292.798 768.319 292.947 769.017 292.718C769.412 292.589 769.693 292.388 769.859 292.115C770.023 291.835 770.048 291.524 769.936 291.182C769.824 290.839 769.621 290.607 769.326 290.485C769.031 290.363 768.685 290.366 768.29 290.496L768.033 290.58L767.356 290.046L768.205 287.593L765.31 288.539L764.961 287.473L769.209 286.083L769.526 287.051L768.731 289.367ZM775.564 286.476C775.737 287.003 775.75 287.513 775.605 288.005L774.498 292.008L773.194 292.435L774.015 289.596L773.896 289.635C773.179 289.87 772.518 289.845 771.915 289.562C771.316 289.269 770.903 288.774 770.674 288.075C770.446 287.377 770.488 286.737 770.8 286.153C771.117 285.561 771.634 285.148 772.352 284.913C773.07 284.678 773.728 284.707 774.327 285C774.924 285.286 775.336 285.778 775.564 286.476ZM771.81 287.704C771.935 288.086 772.158 288.356 772.48 288.513C772.807 288.668 773.162 288.683 773.544 288.558C773.926 288.433 774.201 288.216 774.37 287.906C774.536 287.589 774.555 287.236 774.428 286.848C774.301 286.459 774.078 286.189 773.759 286.039C773.438 285.881 773.086 285.865 772.704 285.99C772.322 286.115 772.045 286.337 771.872 286.656C771.704 286.966 771.683 287.315 771.81 287.704ZM785.719 288.338L784.366 288.781L780.563 286.383L781.639 289.673L780.503 290.044L778.242 283.129L779.378 282.757L780.392 285.859L782.005 281.898L783.359 281.455L781.665 285.738L785.719 288.338Z" fill="white"/>
<path d="M758.989 293.569L754.934 297.992C754.844 298.09 754.681 298.054 754.641 297.927L752.838 292.203C752.798 292.076 752.911 291.953 753.041 291.982L758.899 293.283C759.029 293.312 759.08 293.471 758.989 293.569Z" stroke="white" stroke-width="1.03938"/>
<circle cx="940.541" cy="360.805" r="27.5" transform="rotate(20.6514 940.541 360.805)" fill="#E04403" stroke="black" stroke-width="2"/>
<path d="M934.956 353.357L936.36 353.886L932.656 363.711L931.042 363.103L934.095 355.004L931.904 354.819L932.029 353.296L934.956 353.357ZM937.335 363.55L934.977 366.83L933.713 366.353L935.65 362.916L937.335 363.55ZM943.591 360.843C944.527 361.196 945.212 361.775 945.646 362.579C946.084 363.375 946.117 364.264 945.747 365.246C945.377 366.229 944.753 366.876 943.877 367.187C943.001 367.498 942.082 367.472 941.118 367.108C940.341 366.816 939.72 366.379 939.255 365.797C938.794 365.207 938.566 364.522 938.571 363.744L940.262 363.467C940.189 364.455 940.672 365.145 941.71 365.536C942.262 365.744 942.755 365.77 943.188 365.612C943.635 365.449 943.949 365.125 944.133 364.638C944.316 364.151 944.297 363.706 944.075 363.302C943.854 362.898 943.471 362.593 942.929 362.389L940.065 361.31L942.433 356.175L947.907 358.238L947.336 359.754L943.35 358.251L942.356 360.378L943.591 360.843ZM962.672 363.803L958.969 373.628L957.355 373.02L959.995 366.016L955.143 369.83L954.946 369.756L953.824 363.674L951.179 370.692L949.565 370.084L953.268 360.258L955.009 360.914L956.119 366.943L960.946 363.152L962.672 363.803Z" fill="white"/>
<path d="M926.276 355.268L917.716 356.581C917.526 356.61 917.375 356.422 917.445 356.243L920.588 348.173C920.658 347.994 920.896 347.957 921.016 348.108L926.433 354.865C926.554 355.015 926.466 355.239 926.276 355.268Z" stroke="white" stroke-width="1.5"/>
<circle cx="623.232" cy="172.828" r="27.5" transform="rotate(-13.9407 623.232 172.828)" fill="#E04403" stroke="black" stroke-width="2"/>
<path d="M614.44 169.858L615.896 169.497L618.426 179.688L616.752 180.103L614.666 171.703L612.758 172.795L611.997 171.47L614.44 169.858ZM622.186 176.9L622.106 180.938L620.796 181.263L620.439 177.333L622.186 176.9ZM626.738 171.226C627.519 171.218 628.201 171.414 628.785 171.815C629.376 172.204 629.767 172.782 629.957 173.549C630.21 174.568 630.064 175.454 629.52 176.208C628.975 176.961 628.203 177.462 627.204 177.71C626.427 177.903 625.684 177.896 624.974 177.692C624.273 177.484 623.701 177.07 623.258 176.448L624.479 175.264C624.997 176.063 625.77 176.335 626.799 176.079C627.381 175.935 627.806 175.675 628.073 175.299C628.339 174.914 628.408 174.469 628.283 173.964C628.158 173.46 627.889 173.104 627.477 172.897C627.065 172.69 626.568 172.659 625.986 172.804L625.607 172.898L624.688 172.059L626.167 168.617L621.902 169.675L621.512 168.103L627.772 166.549L628.126 167.976L626.738 171.226ZM643.116 162.74L645.646 172.931L643.972 173.347L642.169 166.082L640.34 171.976L640.136 172.027L635.759 167.657L637.566 174.937L635.892 175.352L633.362 165.161L635.168 164.713L639.504 169.046L641.326 163.185L643.116 162.74Z" fill="white"/>
<path d="M608.345 176.368L602.043 182.308C601.903 182.44 601.673 182.371 601.628 182.184L599.634 173.757C599.59 173.569 599.765 173.404 599.95 173.459L608.245 175.947C608.429 176.002 608.485 176.236 608.345 176.368Z" stroke="white" stroke-width="1.5"/>
<circle cx="940.008" cy="39.1864" r="27.5" transform="rotate(-12.6546 940.008 39.1864)" fill="#E04403" stroke="black" stroke-width="2"/>
<path d="M931.136 36.0543L932.599 35.7257L934.9 45.9707L933.217 46.3486L931.321 37.9038L929.388 38.9526L928.657 37.6103L931.136 36.0543ZM938.722 43.2678L938.551 47.3031L937.234 47.5988L936.965 43.6621L938.722 43.2678ZM944.866 38.1369C945.996 38.4674 946.685 39.184 946.933 40.2865C947.143 41.2232 946.983 42.0381 946.451 42.7313C945.918 43.4147 945.11 43.878 944.027 44.1212C942.944 44.3644 942.011 44.2921 941.227 43.9044C940.45 43.5048 939.957 42.8367 939.746 41.9C939.628 41.3731 939.653 40.8654 939.82 40.377C939.984 39.8788 940.276 39.4443 940.695 39.0735C939.811 38.7392 939.263 38.1037 939.053 37.167C938.842 36.2303 938.993 35.4382 939.503 34.7906C940.011 34.1333 940.724 33.7017 941.641 33.4957C942.549 33.292 943.373 33.3786 944.113 33.7555C944.861 34.1205 945.341 34.7713 945.551 35.708C945.761 36.6447 945.533 37.4543 944.866 38.1369ZM942 35.091C941.541 35.194 941.193 35.4003 940.955 35.7099C940.717 36.0196 940.649 36.4037 940.752 36.8623C940.851 37.3014 941.075 37.6149 941.425 37.8028C941.784 37.9886 942.188 38.0311 942.637 37.9303C943.076 37.8317 943.418 37.6217 943.664 37.3001C943.909 36.9785 943.983 36.5981 943.884 36.1591C943.781 35.7005 943.551 35.3832 943.194 35.2072C942.847 35.029 942.448 34.9902 942 35.091ZM943.669 42.5259C944.235 42.3988 944.663 42.1593 944.953 41.8072C945.24 41.4454 945.327 41.0108 945.213 40.5034C945.099 39.9961 944.836 39.6452 944.424 39.4509C944.009 39.2468 943.518 39.2083 942.953 39.3353C942.377 39.4646 941.945 39.7101 941.657 40.072C941.368 40.424 941.28 40.8537 941.393 41.3611C941.507 41.8685 941.772 42.2242 942.187 42.4283C942.599 42.6226 943.093 42.6552 943.669 42.5259ZM960.265 29.5141L962.565 39.7591L960.882 40.137L959.242 32.8338L957.281 38.6855L957.077 38.7315L952.799 34.265L954.442 41.5829L952.759 41.9608L950.459 31.7158L952.274 31.3083L956.512 35.7375L958.465 29.9183L960.265 29.5141Z" fill="white"/>
<path d="M925.047 42.3914L918.613 48.189C918.47 48.3179 918.241 48.2436 918.201 48.0554L916.397 39.5852C916.357 39.397 916.536 39.2359 916.719 39.2953L924.956 41.9679C925.139 42.0273 925.19 42.2626 925.047 42.3914Z" stroke="white" stroke-width="1.5"/>
<circle cx="775.513" cy="97.6166" r="19.9975" transform="rotate(21.5829 775.513 97.6166)" fill="#6874AD" stroke="black" stroke-width="1.45436"/>
<path d="M767.498 90.5252L772.011 92.3107L771.61 93.325L766.707 98.4237L765.48 97.9382L770.302 92.9248L767.056 91.6409L767.498 90.5252ZM774.366 93.242L775.38 93.6432L772.571 100.743L771.405 100.282L773.72 94.4294L772.129 94.2694L772.238 93.163L774.366 93.242ZM780.509 98.3232C780.295 98.8642 779.964 99.2847 779.517 99.5848L775.939 102.076L774.601 101.546L777.166 99.8045L777.045 99.7563C776.308 99.4647 775.791 99.0022 775.494 98.3687C775.206 97.731 775.205 97.0538 775.488 96.3371C775.772 95.6203 776.235 95.1311 776.878 94.8693C777.531 94.6035 778.225 94.6164 778.963 94.908C779.7 95.1995 780.212 95.6641 780.499 96.3018C780.789 96.9326 780.792 97.6064 780.509 98.3232ZM776.655 96.7985C776.499 97.1907 776.499 97.558 776.653 97.9004C776.813 98.2455 777.09 98.4956 777.482 98.6507C777.874 98.8059 778.242 98.8146 778.586 98.6769C778.932 98.5324 779.185 98.2607 779.342 97.8618C779.5 97.4628 779.501 97.0955 779.344 96.7599C779.19 96.4175 778.917 96.1687 778.525 96.0136C778.133 95.8584 777.76 95.8517 777.407 95.9935C777.063 96.1312 776.812 96.3995 776.655 96.7985ZM787.461 106.633L786.071 106.084L784.608 101.599L783.272 104.976L782.106 104.515L784.914 97.4149L786.081 97.8763L784.821 101.061L788.779 98.9436L790.168 99.4933L785.93 101.817L787.461 106.633Z" fill="white"/>
<path d="M764.996 93.8657L758.734 94.5341C758.595 94.5489 758.492 94.4076 758.548 94.2796L761.101 88.5224C761.157 88.3945 761.331 88.3759 761.414 88.489L765.124 93.5779C765.206 93.691 765.135 93.8509 764.996 93.8657Z" stroke="white" stroke-width="1.09077"/>
</svg>
