<svg width="233" height="47" viewBox="0 0 233 47" fill="none" xmlns="http://www.w3.org/2000/svg">
<path fill-rule="evenodd" clip-rule="evenodd" d="M18.5 0.436523C14.9102 0.436523 12 3.34668 12 6.93652V27.4365H9V19.9365C9 17.4513 6.98535 15.4365 4.5 15.4365C2.01465 15.4365 0 17.4513 0 19.9365V27.4365C0 32.9593 4.47754 37.4365 10 37.4365H12V44.4365H6V46.4365H12H25H31V44.4365H25V26.4365H28C32.9707 26.4365 37 22.4071 37 17.4365V9.43652C37 7.22741 35.209 5.43652 33 5.43652C30.791 5.43652 29 7.22741 29 9.43652V17.4365H25V6.93652C25 3.34668 22.0898 0.436523 18.5 0.436523Z" fill="#999FAE"/>
<path d="M55.3766 35.4365V17.3423H51.37V35.4365H55.3766ZM62.0648 26.286L72.5077 35.876V17.3423H68.5011V26.3636L58.0582 16.7478V35.4365H62.0648V26.286ZM87.141 30.7062C87.141 25.433 79.7482 23.8304 79.7482 21.5557C79.7482 20.4442 80.9631 20.3149 81.661 20.3149C82.4882 20.3149 83.6772 20.8578 84.6853 21.7108L86.8825 19.2551C85.1248 17.6784 83.0827 17.1097 81.4025 17.1097C78.4557 17.1097 75.7158 18.4538 75.7158 21.5557C75.7158 26.4411 83.1085 27.5268 83.1085 30.7062C83.1085 31.7401 82.2038 32.3864 80.7821 32.3864C79.6448 32.3864 77.8095 31.7401 76.6463 30.8613L74.5526 33.4203C76.2069 34.9971 78.8693 35.6692 80.8855 35.6692C83.548 35.6692 87.141 34.3509 87.141 30.7062ZM95.413 35.4365V20.5734H98.9026V17.3423H87.9427V20.5734H91.4064V35.4365H95.413ZM97.4088 35.4365H101.622L102.139 33.7305H106.973L107.49 35.4365H111.677L104.621 16.7995L97.4088 35.4365ZM104.569 25.8724L105.965 30.4477H103.147L104.569 25.8724ZM117.095 26.286L127.537 35.876V17.3423H123.531V26.3636L113.088 16.7478V35.4365H117.095V26.286ZM136.458 35.4365V20.5734H139.948V17.3423H128.988V20.5734H132.452V35.4365H136.458ZM149.443 26.3894C149.443 23.1066 151.95 20.3925 155.026 20.3925C156.706 20.3925 158.231 21.168 159.498 22.1761L161.747 19.7463C159.989 18.0919 157.637 17.1097 155.026 17.1097C149.701 17.1097 145.41 21.2455 145.41 26.3894C145.41 31.5333 149.701 35.6692 155.026 35.6692C157.637 35.6692 159.989 34.6869 161.747 33.0326L159.498 30.6028C158.231 31.6109 156.706 32.3864 155.026 32.3864C151.95 32.3864 149.443 29.7239 149.443 26.3894ZM162.586 35.4365H166.8L167.317 33.7305H172.15L172.667 35.4365H176.855L169.798 16.7995L162.586 35.4365ZM169.746 25.8724L171.142 30.4477H168.325L169.746 25.8724ZM179.886 26.3894C179.886 23.1066 182.393 20.3925 185.469 20.3925C187.149 20.3925 188.674 21.168 189.941 22.1761L192.19 19.7463C190.432 18.0919 188.08 17.1097 185.469 17.1097C180.144 17.1097 175.853 21.2455 175.853 26.3894C175.853 31.5333 180.144 35.6692 185.469 35.6692C188.08 35.6692 190.432 34.6869 192.19 33.0326L189.941 30.6028C188.674 31.6109 187.149 32.3864 185.469 32.3864C182.393 32.3864 179.886 29.7239 179.886 26.3894ZM200.5 35.4365V20.5734H203.989V17.3423H193.029V20.5734H196.493V35.4365H200.5ZM213.544 28.8192C213.544 31.7401 212.51 32.2054 211.45 32.2054C210.391 32.2054 209.331 31.7401 209.331 28.8192V17.3423H205.35V29.6464C205.35 34.5577 208.426 35.6692 211.45 35.6692C214.526 35.6692 217.576 34.5577 217.576 29.6464V17.3423H213.544V28.8192ZM232.137 30.7062C232.137 25.433 224.744 23.8304 224.744 21.5557C224.744 20.4442 225.959 20.3149 226.657 20.3149C227.484 20.3149 228.673 20.8578 229.681 21.7108L231.878 19.2551C230.121 17.6784 228.079 17.1097 226.398 17.1097C223.452 17.1097 220.712 18.4538 220.712 21.5557C220.712 26.4411 228.104 27.5268 228.104 30.7062C228.104 31.7401 227.2 32.3864 225.778 32.3864C224.641 32.3864 222.805 31.7401 221.642 30.8613L219.548 33.4203C221.203 34.9971 223.865 35.6692 225.881 35.6692C228.544 35.6692 232.137 34.3509 232.137 30.7062Z" fill="#292930"/>
</svg>
