<svg width="140" height="47" viewBox="0 0 140 47" fill="none" xmlns="http://www.w3.org/2000/svg">
<g clip-path="url(#clip0_78_1901)">
<path fill-rule="evenodd" clip-rule="evenodd" d="M69.2666 46.1678H138.841V0.0917969H69.2666V46.1678Z" fill="#999FAE"/>
<path fill-rule="evenodd" clip-rule="evenodd" d="M56.7798 12.1423L52.3139 20.7018L47.8658 12.1423H42.4431L49.6557 24.8132V34.117H54.6886V24.8132L61.8836 12.1423H56.7798ZM15.2405 15.8639C14.8861 14.8183 14.1241 13.9322 12.9899 13.2233V13.2056C11.838 12.4968 10.3494 12.1423 8.48861 12.1423H0V34.117H4.96203V25.6639H7.38988C8.93165 25.6639 10.243 25.5044 11.3063 25.2031C12.3696 24.9018 13.238 24.4588 13.8937 23.8917C14.5671 23.3246 15.0456 22.6335 15.3468 21.7828C15.6304 20.9499 15.7722 19.993 15.7722 18.8942C15.7722 17.9196 15.5949 16.9094 15.2405 15.8639ZM4.96203 22.8639V14.8714L11.8025 18.8765L4.96203 22.8639ZM39.6431 12.1423H34.876L28.5139 29.8461H21.5139V12.1423H16.481V34.117H31.8633L33.6886 28.8006H40.5823L42.4076 34.117H47.476L39.6431 12.1423ZM34.9114 24.7778L37.1798 17.636L39.3772 24.7778H34.9114Z" fill="#292930"/>
<path fill-rule="evenodd" clip-rule="evenodd" d="M121.335 34.2819C118.934 34.2819 116.463 34.1136 115.483 33.9771C115.044 33.908 114.808 33.7042 114.875 33.1974L115.281 30.5817C115.416 29.8338 115.653 29.7328 116.532 29.8019C117.378 29.8693 119.846 30.0713 121.268 30.0713C124.379 30.0713 125.664 29.7328 125.664 27.8313C125.664 26.5412 124.785 25.9298 122.722 25.3857L120.218 24.7407C116.938 23.8918 115.044 21.8219 115.044 18.3237C115.044 14.4533 117.75 12.0095 123.33 12.0095C126.07 12.0095 128.236 12.1779 129.216 12.3143C129.655 12.3817 129.893 12.5855 129.823 13.0941L129.419 15.6407C129.283 16.3885 129.047 16.4913 128.168 16.4204C126.481 16.2767 124.788 16.1981 123.095 16.1847C121.537 16.1847 119.914 16.525 119.914 18.29C119.914 19.5465 120.693 20.0888 122.384 20.53L124.886 21.1769C129.352 22.3288 130.637 24.5369 130.637 27.491C130.637 32.5151 126.713 34.2819 121.335 34.2819ZM113.334 15.4723C113.334 16.151 113.13 16.3885 112.453 16.3885H106.704V33.1602C106.704 33.8407 106.5 34.0781 105.823 34.0781H102.713C102.036 34.0781 101.832 33.8407 101.832 33.1602V16.3903H96.0834C95.4065 16.3903 95.2027 16.1528 95.2027 15.4741V13.165C95.2027 12.4862 95.4065 12.247 96.0834 12.247H112.453C113.13 12.247 113.334 12.4862 113.334 13.165V15.4741V15.4723ZM94.3804 34.0781H90.6943C89.8827 34.0781 89.6115 33.8407 89.2731 33.263L85.2503 25.9971C85.0128 25.5895 84.91 25.3184 84.91 24.9781C84.91 24.8435 84.9455 24.6397 85.0447 24.2321L85.385 22.8055C85.688 21.5154 86.0265 21.9566 87.0065 21.549C87.7862 21.2105 88.5624 20.6665 88.5624 18.9369C88.5624 17.0336 87.5824 16.2875 85.5533 16.2875H82.3404V33.1602C82.3404 33.8407 82.1384 34.0781 81.4596 34.0781H78.3477C77.6725 34.0781 77.4688 33.8407 77.4688 33.1602V13.165C77.4688 12.4862 77.6725 12.247 78.3477 12.247H85.89C91.1001 12.247 93.4677 14.6252 93.4677 18.8695C93.4677 22.1622 91.607 23.6561 89.95 24.7088L94.889 32.9245C95.4295 33.7751 94.8536 34.0799 94.3804 34.0799V34.0781Z" fill="white"/>
</g>
<defs>
<clipPath id="clip0_78_1901">
<rect width="140" height="46.076" fill="white" transform="translate(0 0.0917969)"/>
</clipPath>
</defs>
</svg>
