<svg width="380" height="46" viewBox="0 0 380 46" fill="none" xmlns="http://www.w3.org/2000/svg">
<g clip-path="url(#clip0_77_1572)">
<path d="M30.5524 4.94626V1.03131H35.0805V12.7054H30.5524C29.5147 10.4256 27.8716 8.60177 25.6233 7.23389C23.3907 5.86603 21.0402 5.18209 18.5717 5.18209C16.119 5.18209 13.9335 5.76383 12.0153 6.9273C10.0972 8.07506 8.60357 9.66305 7.53443 11.6912C6.481 13.7195 5.95429 16.0228 5.95429 18.6014C5.95429 21.3057 6.51246 23.7033 7.62876 25.7945C8.74507 27.8857 10.2937 29.5129 12.2748 30.6764C14.2716 31.8398 16.5435 32.4216 19.0906 32.4216C21.0244 32.4216 22.8168 32.0679 24.4678 31.3603C26.1343 30.6528 27.5101 29.6465 28.5949 28.3415C29.6955 27.0366 30.3795 25.5429 30.6467 23.8607H24.114V19.3797H37.0615V20.5353C37.0615 23.9156 36.2911 26.8637 34.7504 29.3793C33.2095 31.8949 31.0791 33.8209 28.3591 35.1573C25.6548 36.4938 22.6125 37.162 19.232 37.162C15.38 37.162 11.9997 36.3915 9.09096 34.8508C6.198 33.2942 3.97324 31.1245 2.4167 28.3415C0.875879 25.5586 0.105469 22.3276 0.105469 18.6485C0.105469 15.1424 0.875879 12.0058 2.4167 9.23854C3.97324 6.47135 6.11152 4.31734 8.83155 2.77653C11.5515 1.21998 14.6332 0.441711 18.0765 0.441711C22.9505 0.441711 27.1091 1.94323 30.5524 4.94626ZM50.1271 5.4651V32.1386H61.8011V21.1248H66.2114V36.5724H40.1747V32.1386H44.75V5.4651H40.1747V1.03131H54.7024V5.4651H50.1271ZM106.965 18.6957C106.965 22.312 106.163 25.5272 104.559 28.3415C102.971 31.1559 100.77 33.3336 97.9554 34.8743C95.141 36.3995 91.9415 37.162 88.3567 37.162C84.8192 37.162 81.6746 36.3679 78.9231 34.78C76.1716 33.1762 74.0255 30.9672 72.4847 28.1529C70.9596 25.3228 70.1971 22.139 70.1971 18.6014C70.1971 15.0952 70.9754 11.9664 72.5319 9.21495C74.1042 6.46349 76.2661 4.31734 79.0174 2.77653C81.7689 1.21998 84.8977 0.441711 88.4039 0.441711C92.0515 0.441711 95.2826 1.24357 98.097 2.84728C100.911 4.43527 103.089 6.61286 104.63 9.38005C106.186 12.1472 106.965 15.2525 106.965 18.6957ZM88.569 32.4216C91.006 32.4216 93.1836 31.7849 95.1018 30.5113C97.0199 29.2377 98.4979 27.5476 99.5355 25.4408C100.589 23.3338 101.116 21.0856 101.116 18.6957C101.116 16.2587 100.558 14.0025 99.4412 11.9271C98.3407 9.836 96.8155 8.19298 94.8659 6.99806C92.9163 5.78741 90.7151 5.18209 88.2624 5.18209C85.8568 5.18209 83.7265 5.77169 81.8712 6.95089C80.0159 8.11437 78.5772 9.72594 77.5553 11.7857C76.5491 13.8453 76.046 16.1329 76.046 18.6485C76.046 21.3213 76.5491 23.7033 77.5553 25.7945C78.5772 27.8857 80.0394 29.5129 81.9419 30.6764C83.8443 31.8398 86.0534 32.4216 88.569 32.4216ZM135.667 10.2055C135.667 11.872 135.296 13.3422 134.558 14.6157C133.818 15.8892 132.742 16.8641 131.326 17.5401C133.324 18.2476 134.849 19.3561 135.902 20.8655C136.971 22.3591 137.505 24.1357 137.505 26.1954C137.505 29.5758 136.263 32.1543 133.779 33.931C131.312 35.6919 127.608 36.5724 122.672 36.5724H110.361V32.1386H114.747V5.4651H110.361V1.03131H122.86C127.184 1.03131 130.4 1.786 132.506 3.29537C134.613 4.80475 135.667 7.10812 135.667 10.2055ZM130.359 10.4885C130.359 8.82188 129.771 7.57194 128.591 6.73864C127.412 5.88961 125.745 5.4651 123.592 5.4651H120.077V15.8421H123.639C128.119 15.8421 130.359 14.0575 130.359 10.4885ZM132.058 26.1011C132.058 24.1357 131.359 22.6735 129.959 21.7144C128.576 20.7397 126.422 20.2523 123.497 20.2523H120.077V32.1386H122.2C124.322 32.1386 126.068 32.0128 127.435 31.7613C128.803 31.4939 129.912 30.928 130.761 30.0632C131.625 29.1827 132.058 27.862 132.058 26.1011ZM163.731 5.3236L173.353 32.1386H177.316V36.5724H163.307V32.1386H167.953L165.193 24.0728H152.293L149.533 32.1386H154.038V36.5724H139.935V32.1386H144.227L153.802 5.3236H149.533V1.03131H168V5.3236H163.731ZM158.872 5.3236H158.708L153.685 19.8985H163.778L158.872 5.3236ZM188.848 5.4651V32.1386H200.522V21.1248H204.932V36.5724H178.896V32.1386H183.471V5.4651H178.896V1.03131H193.423V5.4651H188.848Z" fill="#292930"/>
<path d="M225.13 20.4838H238.509V22.2708C238.509 24.1707 238.155 25.9417 237.447 27.5839C236.738 29.1938 235.756 30.5945 234.5 31.7859C233.277 32.9451 231.828 33.8629 230.153 34.5391C228.479 35.1831 226.692 35.5051 224.792 35.5051C222.248 35.5051 220.01 35.0542 218.078 34.1526C216.179 33.251 214.585 32.0275 213.297 30.4819C212.009 28.9363 211.043 27.1331 210.399 25.0723C209.755 22.9792 209.433 20.7575 209.433 18.4069C209.433 16.0563 209.771 13.8506 210.447 11.7898C211.123 9.69675 212.105 7.87745 213.393 6.33185C214.714 4.78625 216.307 3.56265 218.175 2.66105C220.075 1.75945 222.232 1.30865 224.647 1.30865C226.451 1.30865 228.093 1.56625 229.574 2.08145C231.087 2.56445 232.408 3.27285 233.535 4.20665C234.694 5.14045 235.644 6.26745 236.384 7.58765C237.157 8.87565 237.688 10.3247 237.978 11.9347H238.944C238.654 10.1637 238.107 8.56975 237.302 7.15295C236.529 5.73615 235.515 4.52865 234.259 3.53045C233.035 2.50005 231.602 1.71115 229.96 1.16375C228.35 0.61635 226.579 0.342651 224.647 0.342651C222.104 0.342651 219.833 0.809551 217.837 1.74335C215.841 2.67715 214.15 3.96515 212.766 5.60735C211.381 7.21735 210.318 9.13325 209.578 11.3551C208.837 13.5447 208.467 15.8953 208.467 18.4069C208.467 20.8863 208.805 23.2208 209.481 25.4104C210.19 27.6 211.22 29.5159 212.572 31.1581C213.925 32.7681 215.615 34.056 217.644 35.022C219.672 35.9559 222.007 36.4228 224.647 36.4228C228.061 36.4228 230.975 35.6017 233.39 33.9594C235.805 32.3173 237.479 30.031 238.413 27.1009H238.509V35.65H239.475V19.5177H225.13V20.4838ZM245.835 34.6839V18.1653H266.459V17.1994H245.835V2.12975H267.763V1.16375H244.869V35.65H267.956V34.6839H245.835ZM271.295 1.16375V35.65H272.261V2.37125H272.357L295.928 35.65H297.377V1.16375H296.411V34.4425H296.314L272.744 1.16375H271.295ZM304.063 34.6839V18.1653H324.687V17.1994H304.063V2.12975H325.991V1.16375H303.097V35.65H326.184V34.6839H304.063ZM352.803 1.16375L340.149 34.3941H340.052L327.011 1.16375H326.093L339.569 35.65H340.632L353.769 1.16375H352.803ZM355.866 24.2994H373.447L377.987 35.65H379.05L365.429 1.16375H364.173L350.215 35.65H351.277L355.866 24.2994ZM373.061 23.3335H356.252L364.753 2.12975H364.85L373.061 23.3335Z" fill="#999FAE"/>
<path d="M19.4705 46C21.3759 46 22.9205 44.4554 22.9205 42.55C22.9205 40.6446 21.3759 39.1 19.4705 39.1C17.5651 39.1 16.0205 40.6446 16.0205 42.55C16.0205 44.4554 17.5651 46 19.4705 46Z" fill="#999FAE"/>
</g>
<defs>
<clipPath id="clip0_77_1572">
<rect width="379.5" height="46" fill="white"/>
</clipPath>
</defs>
</svg>
