<svg width="105" height="46" viewBox="0 0 105 46" fill="none" xmlns="http://www.w3.org/2000/svg">
<path d="M28.9378 0H24.7285V27.6867H28.9378V0Z" fill="#292930"/>
<path d="M10.8255 23.803C9.64145 23.8477 8.47107 23.5374 7.46467 22.9121C6.45827 22.2867 5.66182 21.3748 5.17756 20.2934C4.69331 19.212 4.54336 18.0105 4.74702 16.8433C4.95068 15.676 5.49863 14.5963 6.32049 13.7428C7.14235 12.8893 8.20059 12.3009 9.3593 12.0533C10.518 11.8057 11.7243 11.9101 12.8232 12.3532C13.9222 12.7963 14.8635 13.5577 15.5265 14.5398C16.1894 15.5218 16.5436 16.6797 16.5437 17.8645C16.5722 19.4101 15.986 20.9038 14.9137 22.0173C13.8415 23.1309 12.371 23.7731 10.8255 23.803ZM16.3111 8.41719V10.0287C14.7982 8.58724 12.792 7.77791 10.7024 7.76605C8.07392 7.841 5.57824 8.93779 3.74557 10.8234C1.91291 12.7091 0.887695 15.235 0.887695 17.8645C0.887695 20.494 1.91291 23.0199 3.74557 24.9056C5.57824 26.7913 8.07392 27.8881 10.7024 27.963C12.7914 27.9483 14.7966 27.1393 16.3111 25.7004V27.6853H20.5204V8.41719H16.3111Z" fill="#292930"/>
<path d="M69.8841 8.41724H65.6748V27.6854H69.8841V8.41724Z" fill="#292930"/>
<path d="M60.2337 26.7319H56.0244V46H60.2337V26.7319Z" fill="#292930"/>
<path d="M67.7623 34.1915H48.4941V38.212H67.7623V34.1915Z" fill="#292930"/>
<path d="M69.8665 0H65.6572V4.2093H69.8665V0Z" fill="#292930"/>
<path d="M83.1453 23.803C81.6085 23.7459 80.1537 23.0952 79.0867 21.9878C78.0197 20.8803 77.4235 19.4024 77.4235 17.8646C77.4235 16.3267 78.0197 14.8488 79.0867 13.7413C80.1537 12.6339 81.6085 11.9833 83.1453 11.9261C84.3402 11.8737 85.5215 12.1963 86.5239 12.8488C87.5262 13.5013 88.2993 14.4511 88.7349 15.565H92.9756C92.4114 13.1522 90.9797 11.0311 88.9532 9.60532C86.9266 8.17954 84.4466 7.54863 81.985 7.83262C79.5235 8.11662 77.2523 9.29571 75.6037 11.1455C73.955 12.9953 73.0439 15.3867 73.0439 17.8646C73.0439 20.3424 73.955 22.7338 75.6037 24.5836C77.2523 26.4334 79.5235 27.6125 81.985 27.8965C84.4466 28.1805 86.9266 27.5496 88.9532 26.1238C90.9797 24.698 92.4114 22.5769 92.9756 20.1641H88.7349C88.2944 21.2746 87.5201 22.221 86.5189 22.8727C85.5178 23.5245 84.339 23.8495 83.1453 23.803Z" fill="#292930"/>
<path d="M104.554 12.6224V8.41315H100.346V4.20386H96.1367V20.1601C96.1757 21.8964 96.7847 23.5716 97.8699 24.9275C98.6195 25.8737 99.5736 26.6381 100.66 27.1633C101.747 27.6886 102.939 27.961 104.146 27.9603V23.7592C103.171 23.7636 102.232 23.3922 101.524 22.7222C100.816 22.0521 100.394 21.135 100.345 20.1614V12.6224H104.554Z" fill="#292930"/>
<path d="M42.8563 23.803C41.6718 23.8505 40.5002 23.5426 39.492 22.919C38.4839 22.2953 37.6853 21.3844 37.1989 20.3034C36.7125 19.2223 36.5606 18.0205 36.7627 16.8524C36.9647 15.6843 37.5115 14.6034 38.3327 13.7485C39.1539 12.8936 40.2121 12.3038 41.3711 12.055C42.5301 11.8062 43.7371 11.9098 44.8368 12.3523C45.9365 12.7949 46.8788 13.5563 47.5424 14.5385C48.206 15.5208 48.5607 16.6791 48.5608 17.8645C48.5912 19.4083 48.0074 20.901 46.9377 22.0145C45.8681 23.1281 44.4001 23.7714 42.8563 23.803ZM42.9684 7.76605C40.8794 7.78094 38.8743 8.58983 37.3597 10.0287V8.41719H33.1504V38.2079H37.3597V25.7017C38.8726 27.1432 40.8788 27.9525 42.9684 27.9644C45.5969 27.8894 48.0925 26.7926 49.9252 24.907C51.7579 23.0213 52.7832 20.4954 52.7832 17.8659C52.7832 15.2364 51.7579 12.7105 49.9252 10.8248C48.0925 8.93916 45.5969 7.84237 42.9684 7.76743" fill="#292930"/>
</svg>
