<svg width="379" height="46" viewBox="0 0 379 46" fill="none" xmlns="http://www.w3.org/2000/svg">
<path d="M12.2667 35.9454H21.718V9.85357H33.9847V0.754131H0V9.85357H12.2667V35.9454ZM36.4191 35.9454H45.7196V24.0809H49.8923L57.8354 35.9454H68.4431L59.6453 22.7235C63.9688 20.9137 66.4824 17.3443 66.4824 12.4175C66.4824 5.17813 61.0529 0.754131 52.2551 0.754131H36.4191V35.9454ZM45.7196 16.5399V8.99892H52.5065C55.2213 8.99892 57.0311 10.5071 57.0311 12.7192C57.0311 14.9814 55.2213 16.5399 52.5065 16.5399H45.7196ZM66.0523 35.9454H75.9059L78.0677 29.4099H91.9428L94.1552 35.9454H104.21L91.2892 0.754131H78.9726L66.0523 35.9454ZM80.4808 21.8688L84.8045 8.8984H85.2066L89.5303 21.8688H80.4808ZM106.116 35.9454H114.965V14.2776L129.443 35.9454H139.297V0.754131H130.499V22.3716L116.02 0.754131H106.116V35.9454ZM155.644 46H165.096V36.1465C173.239 34.1859 178.921 27.1978 178.921 18.3497C178.921 7.84262 170.977 0 160.37 0C149.762 0 141.869 7.84262 141.869 18.3497C141.869 27.1978 147.55 34.1859 155.644 36.1465V46ZM160.37 27.5498C155.292 27.5498 151.521 23.6285 151.521 18.3497C151.521 13.0711 155.292 9.14975 160.37 9.14975C165.447 9.14975 169.268 13.0711 169.268 18.3497C169.268 23.6285 165.447 27.5498 160.37 27.5498ZM198.134 36.6995C208.238 36.6995 214.774 30.2645 214.774 20.411V0.754131H205.323V19.9585C205.323 24.8853 202.759 27.6503 198.134 27.6503C193.558 27.6503 190.994 24.8853 190.994 19.9585V0.754131H181.544V20.411C181.544 30.2645 188.079 36.6995 198.134 36.6995ZM219.72 35.9454H229.172V0.754131H219.72V35.9454ZM234.66 35.9454H261.155V26.8459H244.112V0.754131H234.66V35.9454ZM263.79 35.9454H290.284V26.8459H273.241V0.754131H263.79V35.9454ZM292.919 35.9454H319.564V27.7508H302.169V22.1705H312.927V14.529H302.169V8.94862H318.307V0.754131H292.919V35.9454Z" fill="#292930"/>
<path d="M340.968 26.1773C343.963 22.7553 346.093 14.5576 337.119 21.8998C332.413 25.7496 325.293 34.7222 333.269 35.1602C337.697 35.4033 348.839 27.487 371.767 8.66584L374.333 6.50063C378.334 2.89398 376.215 1.19648 371.767 3.9341C366.206 7.35614 343.089 35.8155 343.963 35.1602C348.526 31.7381 358.551 25.5847 361.073 24.4663C363.639 23.3282 365.501 24.7094 363.639 27.4606L360.217 32.5936C359.505 33.8769 359.02 36.0157 362.784 34.3046C366.548 32.5936 374.333 26.7477 377.755 24.0385" stroke="#999FAE" stroke-width="0.855508" stroke-linecap="round"/>
<path d="M324.969 35.9454C325.678 35.9454 326.252 35.3708 326.252 34.6621C326.252 33.9534 325.678 33.3788 324.969 33.3788C324.26 33.3788 323.686 33.9534 323.686 34.6621C323.686 35.3708 324.26 35.9454 324.969 35.9454Z" fill="#7D8E98"/>
</svg>
