<svg width="58" height="60" viewBox="0 0 58 60" fill="none" xmlns="http://www.w3.org/2000/svg">
<path fill-rule="evenodd" clip-rule="evenodd" d="M8.81836 51.3836L14.8432 51.3169C15.3674 51.3169 15.4983 51.1191 15.4983 50.7232V7.61387C15.4983 7.21791 15.3674 7.02018 14.8432 7.02018L8.81836 6.95344V6.29352H33.312C42.284 6.29352 48.7673 9.19819 48.7673 17.3852C48.7673 23.9207 43.0044 27.6509 35.7349 28.0474L35.4559 28.0909L35.7349 28.1191C45.0998 28.7795 51.5184 32.304 51.5184 39.6987C51.5184 47.8843 44.8379 52.0435 34.8836 52.0435H8.81836V51.3836ZM31.6746 27.8155C37.8303 27.8155 39.9262 24.3824 39.9262 17.3852C39.9262 9.59464 37.2409 7.08642 31.4779 7.08642H25.3874C24.9289 7.08642 24.7979 7.35039 24.7979 7.68011V27.8155H31.6746ZM32.5259 51.1859C39.2059 51.1859 41.9569 48.0167 41.9569 39.6329C41.9569 31.3139 37.5032 28.6075 31.7398 28.6075H24.7979V50.5254C24.7979 50.9871 24.9289 51.1859 25.4531 51.1859H32.5259Z" fill="#292930"/>
</svg>
