<svg xmlns="http://www.w3.org/2000/svg" width="84.992" height="84.98" viewBox="0 0 84.992 84.98">
  <path id="Контур_1197" data-name="Контур 1197" d="M161.038,141.759c-3.525-3.621-13.544-10.405-20.11-10.405a7.143,7.143,0,0,0-3.935,1.038c-3.211,2.052-5.77,3.645-7,3.645-.676,0-1.4-.6-2.994-1.98l-.266-.241a83.766,83.766,0,0,1-7.074-6.615l-.435-.459c-.314-.314-.579-.6-.845-.869-1.5-1.545-2.583-2.656-6.422-7l-.169-.193c-1.835-2.076-3.042-3.428-3.114-4.418-.072-.966.773-2.535,2.921-5.456,2.607-3.525,2.7-7.87.314-12.916-1.907-3.983-5.022-7.8-7.774-11.154l-.241-.29c-2.366-2.9-5.118-4.346-8.184-4.346-3.4,0-6.229,1.835-7.725,2.8-.121.072-.241.169-.362.241a15.494,15.494,0,0,0-6.712,8.015c-1.376,4.466-2.294,10.26,4.3,22.307a107.8,107.8,0,0,0,19.072,25.856c7.725,7.919,11.154,10.478,18.831,16.03,8.546,6.18,16.755,9.729,22.5,9.729,5.335,0,9.536,0,15.523-7.219C167.412,150.281,164.8,145.646,161.038,141.759Z" transform="translate(-79.927 -80.1)"/>
</svg>
