<svg width="43" height="43" viewBox="0 0 43 43" fill="none" xmlns="http://www.w3.org/2000/svg">
<path d="M3 0H31.4615C32.2784 0 33.0599 0.333115 33.6257 0.922405L42.109 9.75926C42.6454 10.3179 42.9449 11.0624 42.9449 11.8369V39.5197C42.9449 41.1765 41.6017 42.5197 39.9449 42.5197H3C1.34315 42.5197 0 41.1765 0 39.5197V3C0 1.34315 1.34314 0 3 0Z" fill="white"/>
<g clip-path="url(#clip0)">
<path d="M18.2727 25.3438L21 28.071L23.7273 25.3438C22.2227 23.8392 19.7772 23.8392 18.2727 25.3438Z" fill="#BB2539"/>
<path d="M14.6364 21.7075L16.4545 23.5257C18.9636 21.0166 23.0364 21.0166 25.5454 23.5257L27.3636 21.7075C23.85 18.1938 18.15 18.1938 14.6364 21.7075Z" fill="#BB2539"/>
<path d="M11 18.0712L12.8182 19.8894C17.3364 15.3712 24.6636 15.3712 29.1818 19.8894L31 18.0712C25.4773 12.5485 16.5227 12.5485 11 18.0712Z" fill="#BB2539"/>
</g>
<defs>
<clipPath id="clip0">
<rect width="20" height="20" fill="white" transform="translate(11 11)"/>
</clipPath>
</defs>
</svg>
