<svg xmlns="http://www.w3.org/2000/svg" width="120.33" height="109.906" viewBox="0 0 120.33 109.906">
  <path id="Контур_1210" data-name="Контур 1210" d="M117.311,4.545a11.2,11.2,0,0,0-11.367-1.773L7.923,42.347a11.175,11.175,0,0,0,.572,20.885l19.828,6.9,11.051,36.546a5.459,5.459,0,0,0,.647,1.38c.042.066.1.114.147.178a5.406,5.406,0,0,0,1.156,1.18c.126.1.247.186.382.272a5.392,5.392,0,0,0,1.7.744l.065.005.037.016a5.59,5.59,0,0,0,1.106.112c.036,0,.067-.017.1-.018a5.429,5.429,0,0,0,1.647-.286c.124-.042.229-.112.349-.163a5.432,5.432,0,0,0,1.117-.627l.833-.7,14.78-16.318,22.044,17.077a11.066,11.066,0,0,0,6.789,2.334,11.235,11.235,0,0,0,10.982-8.931L121.1,15.324a11.1,11.1,0,0,0-3.792-10.779ZM46.782,71.869a5.435,5.435,0,0,0-1.49,2.767L43.6,82.862,39.31,68.679,61.546,57.1ZM92.19,100.878,66.14,80.7a5.477,5.477,0,0,0-7.4.652L54,86.574l1.673-8.13L94.417,39.7a5.468,5.468,0,0,0-6.394-8.717l-55.6,28.949L12.052,52.479l98.336-39.34Z" transform="translate(-1 -1.954)"/>
</svg>
