<svg width="43" height="43" viewBox="0 0 43 43" fill="none" xmlns="http://www.w3.org/2000/svg">
<path d="M3 0H31.4615C32.2784 0 33.0599 0.333115 33.6257 0.922405L42.109 9.75926C42.6454 10.3179 42.9449 11.0624 42.9449 11.8369V39.5197C42.9449 41.1765 41.6017 42.5197 39.9449 42.5197H3C1.34315 42.5197 0 41.1765 0 39.5197V3C0 1.34315 1.34314 0 3 0Z" fill="white"/>
<path d="M18.3368 21.7461L19.8444 23.2587C20.4557 23.8722 21.5313 23.8854 22.1559 23.2587L23.6635 21.7461L29.0781 27.1783C28.8766 27.2715 28.6544 27.3271 28.4181 27.3271H13.5822C13.3459 27.3271 13.1238 27.2716 12.9223 27.1783L18.3368 21.7461Z" fill="#BB2539"/>
<path d="M13.5822 14.6719H28.4182C28.6544 14.6719 28.8766 14.7275 29.0781 14.8207L23.2922 20.6258C23.2918 20.6262 23.2914 20.6263 23.291 20.6266C23.2906 20.627 23.2905 20.6276 23.2905 20.6276L21.4092 22.5151C21.2094 22.7149 20.791 22.7149 20.5911 22.5151L18.7102 20.6279C18.7102 20.6279 18.7097 20.627 18.7094 20.6266C18.7094 20.6266 18.7085 20.6262 18.7081 20.6258L12.9224 14.8207C13.1238 14.7274 13.346 14.6719 13.5822 14.6719Z" fill="#BB2539"/>
<path d="M29.8317 15.5586C29.936 15.7695 30 16.0035 30 16.2543V25.7465C30 25.9972 29.9361 26.2313 29.8318 26.4421L24.4078 21.0005L29.8317 15.5586Z" fill="#BB2539"/>
<path d="M12.1692 15.5576L17.5931 20.9996L12.1692 26.4413C12.0649 26.2304 12.001 25.9964 12.001 25.7455V16.2534C12.001 16.0026 12.0649 15.7685 12.1692 15.5576Z" fill="#BB2539"/>
</svg>
