<svg width="43" height="43" viewBox="0 0 43 43" fill="none" xmlns="http://www.w3.org/2000/svg">
<path d="M3 0H31.4615C32.2784 0 33.0599 0.333115 33.6257 0.922405L42.109 9.75926C42.6454 10.3179 42.9449 11.0624 42.9449 11.8369V39.5197C42.9449 41.1765 41.6017 42.5197 39.9449 42.5197H3C1.34315 42.5197 0 41.1765 0 39.5197V3C0 1.34315 1.34314 0 3 0Z" fill="white"/>
<g clip-path="url(#clip0)">
<path d="M29.4754 24.4713C28.3122 24.4713 27.17 24.2894 26.0877 23.9317C25.5573 23.7508 24.9053 23.9168 24.5816 24.2492L22.4453 25.8619C19.9677 24.5394 18.4415 23.0138 17.1371 20.5548L18.7023 18.4741C19.109 18.068 19.2549 17.4747 19.0801 16.9181C18.7209 15.83 18.5384 14.6884 18.5384 13.5247C18.5385 12.684 17.8545 12 17.0139 12H13.5246C12.684 12 12 12.684 12 13.5246C12 23.1607 19.8394 31 29.4754 31C30.3161 31 31 30.316 31 29.4754V25.9959C31 25.1553 30.316 24.4713 29.4754 24.4713Z" fill="#BB2539"/>
</g>
<defs>
<clipPath id="clip0">
<rect width="19" height="19" fill="white" transform="translate(12 12)"/>
</clipPath>
</defs>
</svg>
