<svg width="890" height="623" viewBox="0 0 890 623" fill="none" xmlns="http://www.w3.org/2000/svg">
<path d="M3 0H848.258C849.247 0 850.172 0.487225 850.732 1.3025L889.474 57.7561C889.816 58.2558 890 58.8476 890 59.4536V620C890 621.657 888.657 623 887 623H3C1.34315 623 0 621.657 0 620V3C0 1.34315 1.34315 0 3 0Z" fill="#BB2539"/>
<mask id="mask0" mask-type="alpha" maskUnits="userSpaceOnUse" x="0" y="0" width="890" height="621">
<path d="M3 0H848.274C849.254 0 850.172 0.478453 850.733 1.28157L889.459 56.6976C889.811 57.2014 890 57.8013 890 58.416V618C890 619.657 888.657 621 887 621H3C1.34315 621 0 619.657 0 618V3C0 1.34315 1.34315 0 3 0Z" fill="#BB2539"/>
</mask>
<g mask="url(#mask0)">
<path d="M1430.21 119.828L1522.35 -6.19828V-64H1102.75H687.29C727.886 -8.56721 811.009 105.283 818.73 117.223C826.451 129.162 828.075 141.465 827.922 146.123V623H1422.62V146.36C1422.62 133.094 1427.68 123.145 1430.21 119.828Z" fill="#8F081A"/>
</g>
</svg>
