<svg width="32" height="33" viewBox="0 0 32 33" fill="none" xmlns="http://www.w3.org/2000/svg">
<path d="M1 16.5C1 22.25 4.25 27.25 9 29.75V3.25C4.25 5.75 1 10.75 1 16.5Z" fill="#3E4347"/>
<path d="M31 16.5C31 10.75 27.75 5.75 23 3.25V29.8C27.75 27.25 31 22.25 31 16.5Z" fill="#699635"/>
<path d="M16 1.5C13.45 1.5 11.1 2.15 9 3.25V29.8C11.1 30.9 13.45 31.55 16 31.55C18.55 31.55 20.9 30.9 23 29.8V3.25C20.9 2.15 18.55 1.5 16 1.5Z" fill="#ED4C5C"/>
<path d="M17.9004 19H17.3504C17.3504 19.25 17.3004 19.45 17.1504 19.6H18.2504C18.0504 19.45 17.9004 19.2 17.9004 19Z" fill="white"/>
<path d="M17.95 15.8999L18.25 15.5499H17.25L16.75 15.1999L15.2 15.1499L14.75 15.5499H13.75L14.05 15.8999H17.95Z" fill="white"/>
<path d="M15.2992 15.0999H16.6492C16.8492 14.9999 16.8992 14.6499 16.8992 14.4999C16.8992 13.9499 16.5492 13.6999 16.1992 13.6999C16.1492 13.6999 16.0992 13.6499 16.0492 13.5999C15.9992 13.4999 15.9992 13.3999 15.9992 13.3999C15.9492 13.3999 15.9992 13.4499 15.9492 13.5999C15.9492 13.6499 15.8992 13.6999 15.7992 13.6999C15.3492 13.6999 15.0492 14.0499 15.0992 14.4999C15.0992 14.7999 15.1492 14.9999 15.2992 15.0999Z" fill="white"/>
<path d="M17.25 19.2001L17 19.0501V18.7501L16.85 18.6501V18.3501L16.6 18.2501V18.0001L16.4 17.9501V17.7001L16.1 17.6001L15.95 17.5001V17.3001H14.95V17.1501C14.95 16.6501 15.6 16.2001 16 16.2001C16.5 16.2001 17.05 16.6501 17.05 17.1501V17.6501H17.1V17.1501C17.1 16.7001 16.55 16.1501 16.05 16.1501H17.85V16.1001H14.05V16.1501H15.85C15.55 16.1501 14.8 16.5001 14.8 17.1501V18.9501H15.2V19.3001H14.7C14.65 19.3001 14.6 19.2001 14.6 19.1001H14.1C14.1 19.3501 13.95 19.5501 13.75 19.7501H15.25V19.3501H15.65L15.75 19.7501H16.1L15.95 19.3501H16.3L16.55 19.7501H17.05L16.7 19.3501C16.7 19.2001 17.25 19.2001 17.25 19.2001ZM15.25 18.5501H15.55L15.6 18.9001H15.25V18.5501ZM15.95 19.2001H15.65L15.6 18.8501H15.85L15.75 18.5001H15.9L16.1 18.8501H15.85L15.95 19.2001ZM16.3 19.2001L16.1 18.8501H16.4L16.7 19.2001H16.3Z" fill="white"/>
<path d="M17.0488 17.8501H17.0988V18.3501H17.0488V17.8501Z" fill="white"/>
<path d="M14.1503 18.4H14.7003V17.75H14.1503V17.9L13.0503 16L13.1003 15.9C13.1003 15.8 13.0503 15.75 12.9503 15.75C12.8503 15.75 12.8003 15.8 12.8003 15.9C12.8003 16 12.8503 16.05 12.9503 16.05H13.0003L13.0503 16.1C12.9503 16.1 12.8503 16.35 12.6003 16.55C12.4503 16.65 12.3503 17 12.3003 17.2V17.65C12.3003 17.75 12.2003 17.95 12.2503 18C12.4003 18.1 12.6003 18.4 12.7003 18.5C12.7503 18.55 12.8503 18.2 12.9003 17.95V17.9C12.9503 17.7 12.9503 17.45 13.1003 17.3L13.1503 17.25C13.2503 17.15 13.4503 17.05 13.5503 16.95L14.2003 18.1L14.1503 18.4Z" fill="white"/>
<path d="M14.1504 14.1499H14.6504V14.2499H14.1504V14.1499Z" fill="white"/>
<path d="M14.1504 14.3501H14.6504V15.3501H14.1504V14.3501Z" fill="white"/>
<path d="M14.4005 13.6001C14.3005 13.6001 14.1005 13.8001 14.1505 14.0001H14.7005C14.7005 13.8001 14.5005 13.6001 14.4005 13.6001Z" fill="white"/>
<path d="M14.0996 16.2H14.6496V17H14.0996V16.2Z" fill="white"/>
<path d="M14.1504 17.45H14.7004V17.6H14.1504V17.45Z" fill="white"/>
<path d="M14.0996 18.5H14.6996V18.85H14.0996V18.5Z" fill="white"/>
<path d="M14.1496 17.2999H14.6496L14.7496 17.1499H14.0996L14.1496 17.2999Z" fill="white"/>
<path d="M15.1488 16.25H14.7988V16.7C14.8988 16.5 14.9988 16.35 15.1488 16.25Z" fill="white"/>
<path d="M19.7504 17.4V17.2C19.7504 17 19.6504 16.7 19.4504 16.55C19.2004 16.35 19.0504 16.1 19.0004 16.1L19.0504 16.05H19.1004C19.2004 16.05 19.2504 16 19.2504 15.9C19.2504 15.8 19.2004 15.75 19.1004 15.75C19.0004 15.75 18.9504 15.8 18.9504 15.9L19.0004 16L17.9504 17.9V17.75H17.4004V18.4H17.9504V18.05L18.6004 16.9C18.6504 16.95 18.9004 17.05 19.0004 17.2L19.0504 17.25C19.2004 17.45 19.1504 17.65 19.2004 17.85V17.9C19.2504 18.1 19.3004 18.5 19.4004 18.45C19.5004 18.35 19.7004 18.1 19.8504 17.95C19.9004 17.9 19.8004 17.7 19.8004 17.6C19.7004 17.55 19.7504 17.5 19.7504 17.4Z" fill="white"/>
<path d="M17.4004 14.1499H17.9004V14.2499H17.4004V14.1499Z" fill="white"/>
<path d="M17.4004 14.3501H17.9004V15.3501H17.4004V14.3501Z" fill="white"/>
<path d="M17.9005 14.0001C17.9005 13.8001 17.7505 13.6001 17.6505 13.6001C17.5505 13.6001 17.3505 13.8001 17.4005 14.0001H17.9005Z" fill="white"/>
<path d="M17.3496 16.2H17.8996V17H17.3496V16.2Z" fill="white"/>
<path d="M17.3496 17.45H17.8996V17.6H17.3496V17.45Z" fill="white"/>
<path d="M17.3496 18.5H17.9496V18.85H17.3496V18.5Z" fill="white"/>
<path d="M17.25 17.1499L17.35 17.2999H17.85L17.95 17.1499H17.25Z" fill="white"/>
<path d="M17.1996 16.7V16.25H16.8496C16.9996 16.35 17.0996 16.5 17.1996 16.7Z" fill="white"/>
<path d="M21.2996 17.1C21.4996 17 21.7496 16.85 21.8996 16.7C22.0496 16.45 21.9996 16 21.9996 16C21.9996 16 21.6496 16.15 21.3496 16.3C21.3496 16.1 21.2496 15.85 21.1496 15.65C21.2996 15.5 21.5496 15.3 21.5996 15.15C21.7496 14.85 21.5496 14.45 21.5496 14.45C21.5496 14.45 21.2496 14.65 20.9996 14.9C20.9496 14.7 20.7996 14.5 20.6496 14.3C20.7496 14.1 20.9496 13.85 20.9496 13.7C20.9996 13.35 20.6996 13 20.6996 13C20.6996 13 20.4496 13.3 20.2996 13.6C20.1496 13.4 19.8996 13.15 19.6996 13C19.7996 12.85 19.7996 12.7 19.7996 12.5C19.7996 11.4 18.0996 10.5 15.9496 10.5C13.8496 10.5 12.0996 11.4 12.0996 12.5C12.0996 12.65 12.1496 12.85 12.1996 13C11.9996 13.15 11.7496 13.35 11.5996 13.6C11.4496 13.3 11.1996 13 11.1996 13C11.1996 13 10.8996 13.35 10.9496 13.7C10.9996 13.9 11.1496 14.15 11.2496 14.3C11.0996 14.5 10.9496 14.7 10.8996 14.9C10.6996 14.65 10.3496 14.45 10.3496 14.45C10.3496 14.45 10.1496 14.85 10.2996 15.15C10.3996 15.35 10.5996 15.55 10.7496 15.65C10.6496 15.85 10.5996 16.1 10.5496 16.3C10.3996 16.15 9.99961 16 9.99961 16C9.99961 16 9.89961 16.45 10.0996 16.7C10.1996 16.85 10.4996 17 10.6996 17.1C10.6496 17.3 10.6496 17.6 10.6996 17.8C10.3996 17.7 9.99961 17.65 9.99961 17.65C9.99961 17.65 10.0496 18.1 10.2996 18.3C10.4496 18.4 10.7496 18.5 10.9496 18.5C10.9996 18.7 11.0496 19 11.1496 19.15C10.8496 19.1 10.4496 19.2 10.4496 19.2C10.4496 19.2 10.5996 19.65 10.8996 19.75C11.0996 19.8 11.3996 19.8 11.5996 19.8C11.6996 20 11.7996 20.25 11.9496 20.4C11.6496 20.45 11.2996 20.6 11.2996 20.6C11.2996 20.6 11.5496 21 11.8996 21C12.0996 21 12.3996 20.95 12.5996 20.85C12.7496 21.05 12.8996 21.2 13.0996 21.35C12.7996 21.5 12.4996 21.75 12.4996 21.75C12.4996 21.75 12.8496 22.05 13.1996 22C13.2996 22 13.3496 21.95 13.4496 21.9L12.9996 22.5H18.9996L18.5996 22.05C18.6996 22.1 18.7496 22.1 18.8496 22.15C19.1996 22.2 19.5496 21.9 19.5496 21.9C19.5496 21.9 19.2496 21.65 18.9496 21.5C19.1496 21.4 19.2996 21.2 19.4496 21C19.6496 21.1 19.9496 21.15 20.1496 21.15C20.4996 21.1 20.7496 20.75 20.7496 20.75C20.7496 20.75 20.3996 20.6 20.0996 20.55C20.2496 20.4 20.3496 20.15 20.4496 19.95C20.6496 19.95 20.9496 20 21.1496 19.9C21.4496 19.75 21.5996 19.35 21.5996 19.35C21.5996 19.35 21.1996 19.3 20.8996 19.3C20.9996 19.1 21.0496 18.85 21.0996 18.65C21.2996 18.6 21.5996 18.55 21.7496 18.45C21.9996 18.25 22.0496 17.8 22.0496 17.8C22.0496 17.8 21.6496 17.85 21.3496 17.95C21.3496 17.6 21.2996 17.35 21.2996 17.1ZM13.4496 20.9C13.2996 20.8 13.0996 20.7 12.8996 20.65C12.9496 20.5 13.0496 20.35 13.0996 20.2H13.5496C13.5496 20.35 13.4496 20.65 13.4496 20.9ZM17.8996 20.7C17.8496 20.85 17.8496 21.05 17.8996 21.25L17.5996 20.9H14.3496L14.0496 21.25C14.0996 21.05 14.0996 20.85 14.0496 20.7C13.9996 20.45 13.7496 20.3 13.5996 20.25H18.2996C18.1996 20.3 17.9996 20.45 17.8996 20.7ZM18.5496 20.9C18.5496 20.65 18.4496 20.35 18.4496 20.2H18.8996C18.9496 20.35 19.0496 20.55 19.0996 20.65C18.8996 20.75 18.6996 20.8 18.5496 20.9ZM20.5996 17.7C20.3496 17.5 19.9996 17.25 19.9996 17.25C19.9996 17.25 19.8496 17.7 19.9996 18C20.0996 18.2 20.3996 18.4 20.5496 18.5C20.3996 18.65 20.2996 18.8 20.1996 18.95C20.0496 18.65 19.7496 18.35 19.7496 18.35C19.7496 18.35 19.4996 18.75 19.5496 19.05C19.5996 19.25 19.7996 19.5 19.9496 19.7C19.7996 19.8 19.5996 19.9 19.4996 20.05C19.3996 19.75 19.1996 19.35 19.1996 19.35C19.1996 19.35 18.8496 19.65 18.8496 20C18.8496 20.05 18.8496 20.15 18.8996 20.25L18.3996 19.8H13.6496L13.1496 20.25C13.1496 20.15 13.1996 20.1 13.1996 20C13.1996 19.65 12.8496 19.35 12.8496 19.35C12.8496 19.35 12.6496 19.7 12.5496 20.05C12.4496 19.9 12.2496 19.8 12.0996 19.7C12.2496 19.55 12.4496 19.3 12.4996 19.05C12.5996 18.7 12.2996 18.35 12.2996 18.35C12.2996 18.35 11.9996 18.65 11.8496 18.95C11.7496 18.8 11.6496 18.65 11.4996 18.5C11.6996 18.4 11.9496 18.2 12.0496 18C12.1996 17.7 12.0496 17.25 12.0496 17.25C12.0496 17.25 11.6496 17.45 11.4496 17.7C11.3996 17.55 11.3496 17.35 11.2496 17.2C11.4496 17.15 11.7496 17 11.8996 16.85C12.1496 16.6 12.0996 16.15 12.0996 16.15C12.0996 16.15 11.6996 16.25 11.3996 16.4C11.3996 16.25 11.3996 16.05 11.3496 15.85C11.5496 15.85 11.8996 15.8 12.0996 15.7C12.3996 15.5 12.4496 15.05 12.4496 15.05C12.4496 15.05 11.9996 15.05 11.6996 15.15C11.7496 15 11.7496 14.8 11.7996 14.6C11.9996 14.65 12.3496 14.7 12.5496 14.65C12.8996 14.55 13.0496 14.15 13.0496 14.15C13.0496 14.15 12.6496 14.05 12.2996 14.05C12.5496 13.65 12.6496 12.9 12.6496 12.9C12.6496 12.9 12.5996 12.9 12.5496 12.95C13.1496 12.25 14.4996 11.75 16.0496 11.75C17.5996 11.75 18.9496 12.25 19.5496 12.95C19.4996 12.9 19.4496 12.9 19.4496 12.9C19.4496 12.9 19.5496 13.65 19.7996 14.05C19.4496 14.05 19.0496 14.15 19.0496 14.15C19.0496 14.15 19.2496 14.55 19.5496 14.65C19.7496 14.7 20.0996 14.65 20.2996 14.6C20.2996 14.8 20.2996 15 20.3996 15.15C20.0996 15.05 19.6496 15.05 19.6496 15.05C19.6496 15.05 19.7496 15.5 19.9996 15.7C20.1996 15.8 20.4996 15.85 20.7496 15.85C20.6996 16.05 20.6496 16.25 20.6996 16.4C20.3996 16.25 19.9996 16.15 19.9996 16.15C19.9996 16.15 19.9496 16.6 20.1996 16.85C20.3496 17 20.6496 17.1 20.8496 17.2C20.7496 17.35 20.6496 17.5 20.5996 17.7Z" fill="white"/>
</svg>
