<svg width="32" height="33" viewBox="0 0 32 33" fill="none" xmlns="http://www.w3.org/2000/svg">
<path d="M16 31.5C24.2843 31.5 31 24.7843 31 16.5C31 8.21573 24.2843 1.5 16 1.5C7.71573 1.5 1 8.21573 1 16.5C1 24.7843 7.71573 31.5 16 31.5Z" fill="#F42F4C"/>
<path d="M24.8492 17.65C24.1992 17.1 23.0492 17.2 22.2492 17.25C23.1492 16.8 24.5492 15.9 25.4992 16.7C24.7992 15.75 23.2492 16.05 22.2992 16.25C23.0992 15.65 24.3492 14.6 25.3992 15.2C24.5492 14.35 23.0492 14.9 22.1492 15.3C22.8492 14.6 23.8992 13.35 25.0492 13.75C24.0992 13.05 22.6992 13.8 21.8492 14.35C22.3992 13.55 23.2992 12.15 24.4992 12.4C23.4492 11.85 22.1992 12.85 21.4492 13.45C21.8992 12.55 22.4992 11.05 23.7492 11.1C22.5992 10.75 21.5492 11.9 20.8992 12.65C21.1992 11.7 21.5492 10.1 22.7992 9.95C21.6492 9.75 20.7492 11.05 20.2492 11.9C20.3992 10.9 20.4992 9.25 21.6992 8.95C20.4992 8.95 19.8492 10.4 19.4492 11.3C19.4492 10.3 19.2992 8.65 20.4492 8.15C19.2992 8.35 18.8492 9.85 18.5992 10.8C18.4492 9.8 18.0492 8.2 19.0492 7.55C17.8992 7.9 17.7492 9.5 17.6492 10.45C17.3492 9.5 16.6992 8 17.5992 7.15C16.5492 7.7 16.5992 9.25 16.6492 10.25C16.1992 9.35 15.2992 7.95 16.0992 7C15.1492 7.7 15.4492 9.25 15.6492 10.2C15.0492 9.4 13.9992 8.15 14.5992 7.1C13.7492 7.95 14.2992 9.4 14.6992 10.35C13.9992 9.65 12.7492 8.6 13.1492 7.45C12.4492 8.4 13.1992 9.8 13.7492 10.65C12.9492 10.1 11.5492 9.2 11.7992 8C11.2492 9.05 12.2492 10.3 12.8992 11.05C11.9992 10.6 10.4992 10 10.5492 8.75C10.1992 9.85 11.3492 10.95 12.0992 11.6C11.1492 11.3 9.54922 10.95 9.39922 9.7C9.19922 10.85 10.4992 11.75 11.3492 12.25C10.3492 12.1 8.69922 12 8.39922 10.8C8.39922 12 9.84922 12.65 10.7492 13.05C9.74922 13.05 8.09922 13.2 7.59922 12.05C7.79922 13.2 9.29922 13.65 10.2492 13.9C9.24922 14.05 7.64922 14.45 6.99922 13.45C7.34922 14.6 8.94922 14.75 9.89922 14.85C8.94922 15.15 7.44922 15.8 6.59922 14.9C7.14922 15.95 8.69922 15.9 9.69922 15.85C8.79922 16.3 7.39922 17.2 6.44922 16.4C7.14922 17.35 8.69922 17.05 9.64922 16.85C8.84922 17.45 7.59922 18.5 6.54922 17.9C7.39922 18.75 8.84922 18.2 9.79922 17.8C9.09922 18.5 8.04922 19.75 6.89922 19.35C7.84922 20.05 9.24922 19.3 10.0992 18.75C9.54922 19.55 8.64922 20.95 7.44922 20.7C8.49922 21.25 9.74922 20.25 10.4992 19.6C10.0492 20.5 9.44922 22 8.19922 21.95C9.34922 22.3 10.3992 21.15 11.0492 20.4C10.7492 21.35 10.3992 22.95 9.14922 23.1C10.2992 23.3 11.1992 21.95 11.6992 21.15C11.5492 22.15 11.4492 23.8 10.2492 24.1C11.4492 24.1 12.0992 22.65 12.4992 21.75C12.4992 22.75 12.6492 24.4 11.4992 24.9C12.6492 24.7 13.0992 23.2 13.3492 22.25C13.4992 23.25 13.8992 24.85 12.8992 25.5C14.0492 25.15 14.1992 23.55 14.2992 22.6C14.5992 23.55 15.2492 25.05 14.3492 25.9C15.3992 25.35 15.3492 23.8 15.2992 22.8C15.7492 23.7 16.6492 25.1 15.8492 26.05C16.7992 25.35 16.4992 23.8 16.2992 22.85C16.8992 23.65 17.9492 24.9 17.3492 25.95C18.1992 25.1 17.6492 23.65 17.2492 22.7C17.9492 23.4 19.1992 24.45 18.7992 25.6C19.4992 24.65 18.7492 23.25 18.1992 22.4C18.9992 22.95 20.3992 23.85 20.1492 25.05C20.6992 24 19.6992 22.75 19.0992 22C19.9992 22.45 21.4992 23.05 21.4492 24.3C21.7992 23.15 20.6492 22.1 19.8992 21.45C20.8492 21.75 22.4492 22.1 22.5992 23.35C22.7992 22.15 21.4492 21.3 20.6492 20.8C21.6492 20.95 23.2492 21.05 23.5992 22.25C23.5992 21.05 22.1492 20.4 21.2492 20C22.2492 20 23.8992 19.85 24.3992 21C24.1992 19.8 22.6992 19.4 21.7492 19.15C22.7492 19 24.3492 18.6 24.9992 19.6C24.6492 18.5 23.0492 18.25 22.0992 18.2C23.0492 17.85 24.5492 17.25 25.3992 18.15C25.2492 17.95 25.0492 17.8 24.8492 17.65ZM15.9992 22.5C13.7492 22.5 11.6492 21.2 10.6492 19.2C9.59922 17.2 9.84922 14.7 11.1992 12.85C12.5492 11.05 14.8492 10.15 17.0992 10.55C19.2992 10.95 21.0992 12.6 21.7492 14.7C22.8992 18.55 19.9492 22.5 15.9992 22.5Z" fill="#FFE62E"/>
<path d="M12.4 13C11.5 13.9 11 15.15 11 16.5C11 17.5 11.3 18.45 11.8 19.25C12.2 17.4 13.05 15.7 14.15 14.3C13.65 13.8 13.05 13.35 12.4 13Z" fill="#FFE62E"/>
<path d="M15.65 12.7C15.25 12.35 14.8 12.05 14.35 11.75C14.15 11.8 13.95 11.9 13.75 12C14.25 12.3 14.75 12.7 15.25 13.05C15.35 13 15.5 12.85 15.65 12.7Z" fill="#FFE62E"/>
<path d="M14.8988 13.45C14.3988 13 13.8488 12.65 13.2488 12.3C13.0988 12.4 12.9488 12.55 12.7988 12.65C13.3988 13 13.9988 13.4 14.4988 13.9C14.5988 13.75 14.7488 13.6 14.8988 13.45Z" fill="#FFE62E"/>
<path d="M14.5492 14.6001C13.3992 16.1001 12.5992 17.8501 12.1992 19.7501C12.4492 20.0001 12.6992 20.2501 12.9992 20.5001C13.1992 18.5001 13.8992 16.6501 14.9992 15.1001C14.8492 14.9001 14.6992 14.7501 14.5492 14.6001Z" fill="#FFE62E"/>
<path d="M17 15.1001C18.1 16.6501 18.85 18.5001 19 20.5001C19.3 20.3001 19.55 20.0501 19.8 19.7501C19.45 17.8501 18.6 16.1001 17.45 14.6001C17.3 14.7501 17.15 14.9001 17 15.1001Z" fill="#FFE62E"/>
<path d="M15.5996 15.1001C15.7496 15.3001 15.8996 15.4501 15.9996 15.6501C16.1496 15.4501 16.2496 15.3001 16.3996 15.1001C16.2496 14.9501 16.1496 14.7501 15.9996 14.6001C15.8496 14.7501 15.6996 14.9001 15.5996 15.1001Z" fill="#FFE62E"/>
<path d="M17.0492 11.6C16.6992 11.55 16.3492 11.5 15.9992 11.5C15.6492 11.5 15.2992 11.55 14.9492 11.6C15.2992 11.85 15.6992 12.1 15.9992 12.4C16.3492 12.1 16.6992 11.85 17.0492 11.6Z" fill="#FFE62E"/>
<path d="M15.7484 16.1L15.2984 15.5C14.2484 17.05 13.5484 18.85 13.3984 20.8L14.2984 21.25V21.1C14.3484 19.25 14.8484 17.55 15.7484 16.1Z" fill="#FFE62E"/>
<path d="M15.9988 13.85L16.4488 13.4C16.2988 13.25 16.1488 13.1 15.9988 13C15.8488 13.15 15.6988 13.25 15.5488 13.4L15.9988 13.85Z" fill="#FFE62E"/>
<path d="M16.7496 14.7C16.8996 14.55 17.0496 14.35 17.1996 14.2C17.0496 14.05 16.9496 13.9 16.7996 13.75L16.3496 14.2C16.4496 14.4 16.5996 14.55 16.7496 14.7Z" fill="#FFE62E"/>
<path d="M15.2496 13.8C15.0996 13.95 14.9996 14.1 14.8496 14.25C14.9996 14.4 15.1496 14.5501 15.2996 14.7501C15.4496 14.6001 15.5496 14.4 15.6996 14.25C15.5496 14.05 15.3996 13.9 15.2496 13.8Z" fill="#FFE62E"/>
<path d="M15.9988 16.55C15.2488 17.9 14.7988 19.45 14.7988 21.05V21.35C15.1988 21.45 15.5988 21.5 15.9988 21.5C16.3988 21.5 16.7988 21.45 17.1988 21.35V21.05C17.1988 19.4 16.7488 17.85 15.9988 16.55Z" fill="#FFE62E"/>
<path d="M16.2988 16.1C17.1988 17.55 17.6988 19.25 17.6988 21.1V21.25C17.9988 21.15 18.3488 21 18.5988 20.8C18.4488 18.85 17.7988 17.05 16.6988 15.5C16.5488 15.65 16.3988 15.85 16.2988 16.1Z" fill="#FFE62E"/>
<path d="M16.7984 13.1C17.2484 12.7 17.7484 12.35 18.2984 12.05C18.0984 11.95 17.8984 11.85 17.6984 11.8C17.2484 12.1 16.7984 12.4 16.3984 12.75C16.4984 12.85 16.6484 13 16.7984 13.1Z" fill="#FFE62E"/>
<path d="M20.1996 19.25C20.6996 18.45 20.9996 17.5 20.9996 16.5C20.9996 15.15 20.4496 13.9 19.5996 13C18.9496 13.35 18.3496 13.75 17.8496 14.25C18.9496 15.7 19.7496 17.4 20.1996 19.25Z" fill="#FFE62E"/>
<path d="M17.4996 13.9C17.9996 13.45 18.5996 13 19.1996 12.65C19.0496 12.5 18.8996 12.4 18.7496 12.3C18.1496 12.65 17.6496 13 17.0996 13.45C17.2496 13.6 17.3996 13.75 17.4996 13.9Z" fill="#FFE62E"/>
</svg>
