<svg width="32" height="33" viewBox="0 0 32 33" fill="none" xmlns="http://www.w3.org/2000/svg">
<path d="M16.0008 1.5C9.65078 1.5 4.25078 5.45 2.05078 11H29.9508C27.7508 5.45 22.3508 1.5 16.0008 1.5Z" fill="#0580C4"/>
<path d="M16.0008 31.5C22.3508 31.5 27.7508 27.55 29.9508 22H2.05078C4.25078 27.55 9.65078 31.5 16.0008 31.5Z" fill="#83BF4F"/>
<path d="M31 16.5C31 14.95 30.75 13.4 30.3 12H1.7C1.25 13.4 1 14.95 1 16.5C1 18.05 1.25 19.6 1.7 21H30.3C30.75 19.6 31 18.05 31 16.5Z" fill="white"/>
<path d="M29.9492 11C29.9992 11.15 30.0992 11.35 30.1492 11.5C30.1992 11.65 30.2492 11.85 30.2992 12" fill="#C94747"/>
<path d="M30.1492 11.5C30.0992 11.35 29.9992 11.15 29.9492 11H2.04922C1.99922 11.15 1.89922 11.35 1.84922 11.5C1.79922 11.65 1.74922 11.85 1.69922 12H30.2992C30.2492 11.85 30.1992 11.65 30.1492 11.5Z" fill="#C94747"/>
<path d="M1.84922 21.5C1.89922 21.65 1.99922 21.85 2.04922 22H29.9492C29.9992 21.85 30.0992 21.65 30.1492 21.5C30.1992 21.35 30.2492 21.15 30.2992 21H1.69922C1.74922 21.15 1.79922 21.35 1.84922 21.5Z" fill="#C94747"/>
<path d="M10.2 9.15C9 9.15 8.05 8.2 8.05 7C8.05 5.8 9 4.85 10.2 4.85C10.5 4.85 10.75 4.9 11 5C10.6 4.7 10.05 4.5 9.5 4.5C8.1 4.5 7 5.6 7 7C7 8.4 8.1 9.5 9.5 9.5C10.05 9.5 10.6 9.3 11 9C10.75 9.1 10.5 9.15 10.2 9.15Z" fill="white"/>
<path d="M12.3504 8.1001L12.5504 8.6501H13.1004L12.6504 8.9501L12.8004 9.5001L12.3504 9.1501L11.9004 9.5001L12.1004 8.9501L11.6504 8.6501H12.2004L12.3504 8.1001Z" fill="white"/>
<path d="M14.5 8.1001L14.65 8.6501H15.25L14.8 8.9501L14.95 9.5001L14.5 9.1501L14.05 9.5001L14.2 8.9501L13.75 8.6501H14.3L14.5 8.1001Z" fill="white"/>
<path d="M16.6504 8.1001L16.8004 8.6501H17.3504L16.9004 8.9501L17.1004 9.5001L16.6504 9.1501L16.1504 9.5001L16.3504 8.9501L15.9004 8.6501H16.4504L16.6504 8.1001Z" fill="white"/>
<path d="M18.75 8.1001L18.95 8.6501H19.5L19.05 8.9501L19.2 9.5001L18.75 9.1501L18.3 9.5001L18.45 8.9501L18 8.6501H18.6L18.75 8.1001Z" fill="white"/>
<path d="M20.9004 8.1001L21.0504 8.6501H21.6504L21.1504 8.9501L21.3504 9.5001L20.9004 9.1501L20.4504 9.5001L20.6004 8.9501L20.1504 8.6501H20.7004L20.9004 8.1001Z" fill="white"/>
<path d="M14.5 6.30005L14.65 6.85005H15.25L14.8 7.15005L14.95 7.70005L14.5 7.35005L14.05 7.70005L14.2 7.15005L13.75 6.85005H14.3L14.5 6.30005Z" fill="white"/>
<path d="M16.6504 6.30005L16.8004 6.85005H17.3504L16.9004 7.15005L17.1004 7.70005L16.6504 7.35005L16.1504 7.70005L16.3504 7.15005L15.9004 6.85005H16.4504L16.6504 6.30005Z" fill="white"/>
<path d="M18.75 6.30005L18.95 6.85005H19.5L19.05 7.15005L19.2 7.70005L18.75 7.35005L18.3 7.70005L18.45 7.15005L18 6.85005H18.6L18.75 6.30005Z" fill="white"/>
<path d="M20.9004 6.30005L21.0504 6.85005H21.6504L21.1504 7.15005L21.3504 7.70005L20.9004 7.35005L20.4504 7.70005L20.6004 7.15005L20.1504 6.85005H20.7004L20.9004 6.30005Z" fill="white"/>
<path d="M16.6504 4.5L16.8004 5.05H17.3504L16.9004 5.35L17.1004 5.9L16.6504 5.55L16.1504 5.9L16.3504 5.35L15.9004 5.05H16.4504L16.6504 4.5Z" fill="white"/>
<path d="M18.75 4.5L18.95 5.05H19.5L19.05 5.35L19.2 5.9L18.75 5.55L18.3 5.9L18.45 5.35L18 5.05H18.6L18.75 4.5Z" fill="white"/>
<path d="M20.9004 4.5L21.0504 5.05H21.6504L21.1504 5.35L21.3504 5.9L20.9004 5.55L20.4504 5.9L20.6004 5.35L20.1504 5.05H20.7004L20.9004 4.5Z" fill="white"/>
</svg>
