<svg width="43" height="43" viewBox="0 0 43 43" fill="none" xmlns="http://www.w3.org/2000/svg">
<path d="M3 0H31.4947C32.3168 0 33.1028 0.337337 33.6692 0.933185L42.1745 9.88146C42.7045 10.4391 43 11.179 43 11.9483V40C43 41.6569 41.6569 43 40 43H3C1.34315 43 0 41.6569 0 40V3C0 1.34315 1.34315 0 3 0Z" fill="white"/>
<path d="M30.1667 23.8151H11.8333C11.3733 23.8151 11 23.4418 11 22.9818C11 22.5218 11.3733 22.1484 11.8333 22.1484H30.1667C30.6267 22.1484 31 22.5218 31 22.9818C31 23.4418 30.6267 23.8151 30.1667 23.8151Z" fill="#BB2539"/>
<path d="M30.1667 17.4284H11.8333C11.3733 17.4284 11 17.0551 11 16.5951C11 16.1351 11.3733 15.7617 11.8333 15.7617H30.1667C30.6267 15.7617 31 16.1351 31 16.5951C31 17.0551 30.6267 17.4284 30.1667 17.4284Z" fill="#BB2539"/>
<path d="M30.1667 30.2057H11.8333C11.3733 30.2057 11 29.8324 11 29.3724C11 28.9124 11.3733 28.5391 11.8333 28.5391H30.1667C30.6267 28.5391 31 28.9124 31 29.3724C31 29.8324 30.6267 30.2057 30.1667 30.2057Z" fill="#BB2539"/>
</svg>
