<svg width="165" height="37" viewBox="0 0 165 37" fill="none" xmlns="http://www.w3.org/2000/svg">
<g clip-path="url(#clip0)">
<path d="M43.4261 10.9873H46.708V23.3065H46.8031C47.469 22.3076 48.1825 21.4039 48.8008 20.5953L56.6013 10.9873H60.6918L51.4168 21.832L61.4053 36.5769H57.5526L49.1338 24.0199L46.708 26.8262V36.5769H43.4261V10.9873Z" fill="#1F1F1F"/>
<path d="M87.3278 32.5339C88.8023 33.4376 90.9902 34.1986 93.2257 34.1986C96.6028 34.1986 98.5529 32.4388 98.5529 29.8227C98.5529 27.4445 97.1735 26.0652 93.7489 24.7334C89.5633 23.2589 86.9948 21.0709 86.9948 17.5036C86.9948 13.5082 90.2767 10.5592 95.271 10.5592C97.887 10.5592 99.7896 11.1776 100.931 11.7959L100.027 14.5071C99.1712 14.0314 97.5065 13.2704 95.1759 13.2704C91.7037 13.2704 90.3719 15.3632 90.3719 17.1231C90.3719 19.5013 91.9415 20.6904 95.4612 22.0698C99.7896 23.7345 101.978 25.8273 101.978 29.5849C101.978 33.5327 99.0761 36.9574 93.0355 36.9574C90.5621 36.9574 87.8985 36.2439 86.5192 35.3402L87.3278 32.5339Z" fill="#1F1F1F"/>
<path d="M106.211 32.5339C107.685 33.4376 109.873 34.1986 112.109 34.1986C115.486 34.1986 117.436 32.4388 117.436 29.8227C117.436 27.4445 116.057 26.0652 112.632 24.7334C108.446 23.2589 105.878 21.0709 105.878 17.5036C105.878 13.5082 109.16 10.5592 114.154 10.5592C116.77 10.5592 118.673 11.1776 119.814 11.7959L118.91 14.5071C118.054 14.0314 116.389 13.2704 114.059 13.2704C110.587 13.2704 109.255 15.3632 109.255 17.1231C109.255 19.5013 110.824 20.6904 114.344 22.0698C118.673 23.7345 120.861 25.8273 120.861 29.5849C120.861 33.5327 117.959 36.9574 111.918 36.9574C109.445 36.9574 106.782 36.2439 105.402 35.3402L106.211 32.5339Z" fill="#1F1F1F"/>
<path d="M68.3021 28.4909L65.6385 36.5293H62.2139L70.9181 10.9398H74.9135L83.6178 36.5293H80.098L77.3869 28.4909H68.3021ZM76.721 25.9225L74.2001 18.55C73.6293 16.8853 73.2488 15.3632 72.8683 13.8887H72.7731C72.3926 15.4108 71.9646 16.9804 71.4889 18.5025L68.968 25.9225H76.721Z" fill="#1F1F1F"/>
<path d="M129.422 28.4909L126.758 36.5293H123.334L132.038 10.9398H136.033L144.738 36.5293H141.218L138.507 28.4909H129.422ZM137.793 25.9225L135.272 18.55C134.702 16.8853 134.321 15.3632 133.941 13.8887H133.845C133.465 15.4108 133.037 16.9804 132.561 18.5025L130.04 25.9225H137.793Z" fill="#1F1F1F"/>
<path d="M137.365 6.27847L142.883 22.1173H165V6.27847H137.365Z" fill="#FFE800"/>
<path d="M152.158 20.3575C152.015 20.3575 151.825 20.3575 151.539 20.3099C151.254 20.2623 151.064 20.2623 150.921 20.2623H148.59C148.4 20.2623 148.067 20.3099 147.687 20.3575C147.259 20.405 146.973 20.4526 146.735 20.4526C146.688 20.4526 146.593 20.4526 146.498 20.405C146.402 20.405 146.307 20.3575 146.26 20.3575C145.784 20.3575 145.451 20.1672 145.308 19.7867C145.213 19.5489 145.166 19.1684 145.166 18.6452C145.166 17.6463 145.404 16.8377 145.832 16.1243C146.165 15.601 146.735 15.0778 147.496 14.5546C148.21 14.079 148.923 13.6034 149.637 13.1277C150.493 12.5094 150.921 11.7959 150.921 11.0349C150.921 10.8446 150.731 10.6544 150.398 10.4166C150.065 10.2263 149.732 10.1312 149.399 10.1312C148.828 10.1312 148.257 10.369 147.592 10.8922C146.973 11.4154 146.545 11.6532 146.307 11.6532C146.022 11.6532 145.784 11.6057 145.546 11.463C145.261 11.2727 145.166 11.0349 145.166 10.7495C145.166 10.4166 145.308 10.1312 145.546 9.89335C146.212 9.32258 146.735 8.8945 147.211 8.65668C147.925 8.27616 148.638 8.08591 149.351 8.08591C150.255 8.08591 151.111 8.32373 151.825 8.79937C152.681 9.37014 153.109 10.0836 153.109 10.9873C153.109 11.891 152.919 12.6521 152.491 13.318C152.158 13.8412 151.635 14.3168 150.969 14.7925C150.303 15.2205 149.637 15.6486 148.971 16.0291C147.972 16.695 147.401 17.4561 147.354 18.3122C147.639 18.2646 148.067 18.2171 148.638 18.1695C149.78 18.122 150.588 18.0744 151.064 18.0744C151.539 18.0744 151.967 18.1695 152.443 18.3598C153.014 18.5976 153.252 18.9305 153.252 19.3111C153.252 19.5964 153.157 19.8343 152.966 20.0245C152.729 20.2148 152.443 20.3575 152.158 20.3575Z" fill="#1F1F1F"/>
<path d="M159.911 17.028H156.724C155.012 17.028 154.155 16.695 154.155 15.9816C154.155 15.6962 154.298 15.3632 154.583 14.9827C154.821 14.6973 155.059 14.4119 155.345 14.1266C156.201 12.8899 157.532 11.0824 159.292 8.65667C159.72 8.0859 160.244 7.84808 160.909 7.84808C161.242 7.84808 161.48 7.94321 161.718 8.0859C162.003 8.27616 162.146 8.56155 162.146 8.8945V14.8876C162.86 14.8876 163.288 14.9827 163.526 15.1254C163.763 15.2681 163.906 15.5535 163.906 15.9816C163.906 16.4096 163.716 16.7426 163.288 16.8853C163.002 16.9804 162.622 17.028 162.099 17.028C162.099 17.789 162.099 18.6452 162.099 19.5013C162.099 19.7867 162.003 20.0245 161.813 20.2148C161.623 20.405 161.385 20.5002 161.052 20.5002C160.244 20.5002 159.863 19.9769 159.911 18.883V17.028ZM159.911 11.3203C159.387 12.1289 158.579 13.318 157.532 14.8876H159.911V11.3203Z" fill="#1F1F1F"/>
<path d="M26.7786 10.7019C26.5884 10.7019 26.3981 10.5592 26.3981 10.3214V7.51513C26.3981 7.32487 26.5408 7.13461 26.7786 7.13461C27.0164 7.13461 27.1591 7.27731 27.1591 7.51513V10.3214C27.1116 10.5592 26.9689 10.7019 26.7786 10.7019Z" fill="#1F1F1F"/>
<path d="M30.5837 10.7019C30.3935 10.7019 30.2032 10.5592 30.2032 10.3214V7.51513C30.2032 7.32487 30.3459 7.13461 30.5837 7.13461C30.8216 7.13461 30.9643 7.27731 30.9643 7.51513V10.3214C30.9643 10.5592 30.774 10.7019 30.5837 10.7019Z" fill="#1F1F1F"/>
<path d="M36.5768 18.0268H3.3295V18.7403H36.5768V18.0268Z" fill="#1F1F1F"/>
<path d="M39.716 36.4341H0.380513C0.190257 36.4341 0 36.2914 0 36.0536V25.8749C0 25.8273 0 25.7798 0.0475641 25.7322L2.99654 18.3122V12.6045C2.99654 11.3678 3.99539 10.3214 5.27962 10.3214H9.9409C10.1312 10.3214 10.3214 10.4641 10.3214 10.7019C10.3214 10.9398 10.1787 11.0825 9.9409 11.0825H5.23205C4.3759 11.0825 3.66244 11.7959 3.66244 12.6521V18.4549C3.66244 18.5025 3.66244 18.55 3.61487 18.5976L0.713462 25.97V35.7207H39.3355V25.97L36.339 18.55C36.339 18.5025 36.2914 18.4549 36.2914 18.4073V12.9375C36.2914 11.891 35.4353 11.0349 34.3889 11.0349H12.0337C11.8435 11.0349 11.6532 10.8922 11.6532 10.6544C11.6532 10.4166 11.7959 10.2739 12.0337 10.2739H34.3889C35.8633 10.2739 37.0049 11.463 37.0049 12.8899V18.2646L40.0014 25.6846C40.0014 25.7322 40.049 25.7798 40.049 25.8273V36.0061C40.049 36.2914 39.9063 36.4341 39.716 36.4341Z" fill="#1F1F1F"/>
<path d="M39.716 26.2554H0.380513C0.190256 26.2554 0 26.1127 0 25.8749C0 25.6371 0.142692 25.4944 0.380513 25.4944H39.716C39.9063 25.4944 40.0966 25.6371 40.0966 25.8749C40.0966 26.1127 39.9063 26.2554 39.716 26.2554Z" fill="#1F1F1F"/>
<path d="M37.2427 34.0559H2.66359C2.47334 34.0559 2.28308 33.9133 2.28308 33.6754V28.4434C2.28308 28.2531 2.42577 28.0629 2.66359 28.0629H29.7276C29.9178 28.0629 30.1081 28.2056 30.1081 28.4434C30.1081 28.6812 29.9654 28.8239 29.7276 28.8239H3.04411V33.3425H36.8622V28.8239H31.535C31.3448 28.8239 31.1545 28.6812 31.1545 28.4434C31.1545 28.2056 31.2972 28.0629 31.535 28.0629H37.2427C37.433 28.0629 37.6232 28.2056 37.6232 28.4434V33.6754C37.5757 33.9133 37.433 34.0559 37.2427 34.0559Z" fill="#1F1F1F"/>
<path d="M17.4085 13.0802H6.04065V15.8865H17.4085V13.0802Z" fill="#FFE800"/>
<path d="M17.3609 16.267H6.04064C5.85038 16.267 5.66013 16.1243 5.66013 15.8864V13.0802C5.66013 12.8899 5.80282 12.6996 6.04064 12.6996H17.4085C17.5987 12.6996 17.789 12.8423 17.789 13.0802V15.8864C17.7414 16.1243 17.5512 16.267 17.3609 16.267ZM6.37359 15.5535H17.028V13.4607H6.37359V15.5535Z" fill="#1F1F1F"/>
<path d="M21.2136 0.380524H36.1012C37.1476 0.380524 38.0513 1.23668 38.0513 2.33065V5.70771C38.0513 6.80169 37.1952 7.65784 36.1012 7.65784L21.2136 7.51515C20.1672 7.51515 19.3586 6.65899 19.3586 5.61258V2.28309C19.311 1.18911 20.1672 0.380524 21.2136 0.380524Z" fill="#FFE800"/>
<path d="M36.1012 7.99078L21.2136 7.84809C19.9769 7.84809 18.9781 6.84924 18.9781 5.61257V2.28308C18.9781 0.998847 19.9769 0 21.2136 0H36.1012C37.3854 0 38.3843 1.04641 38.3843 2.28308V5.7077C38.3843 6.32603 38.1464 6.8968 37.7184 7.32488C37.2903 7.75296 36.7195 7.99078 36.1012 7.99078ZM21.2136 0.713462C20.3574 0.713462 19.6916 1.37936 19.6916 2.23552V5.56501C19.6916 6.42116 20.3574 7.08706 21.2136 7.08706L36.1012 7.22975C36.5293 7.22975 36.9098 7.08706 37.2427 6.75411C37.5757 6.42116 37.7184 6.04065 37.7184 5.61257V2.28308C37.7184 1.42693 37.0049 0.713462 36.1488 0.713462H21.2136Z" fill="#1F1F1F"/>
</g>
<defs>
<clipPath id="clip0">
<rect width="165" height="36.9098" fill="white"/>
</clipPath>
</defs>
</svg>
