<svg width="40" height="41" viewBox="0 0 40 41" fill="none" xmlns="http://www.w3.org/2000/svg">
<path d="M3 0.519531H29.2076C30.0296 0.519531 30.8157 0.856871 31.382 1.45272L39.1745 9.651C39.7045 10.2086 40 10.9485 40 11.7178V37.5195C40 39.1764 38.6569 40.5195 37 40.5195H3C1.34315 40.5195 0 39.1764 0 37.5195V3.51953C0 1.86268 1.34315 0.519531 3 0.519531Z" fill="#A91629"/>
<path d="M28.9034 29.1194L23.9534 24.1785C24.959 22.8974 25.5046 21.3155 25.5026 19.6869C25.5026 18.2365 25.0725 16.8186 24.2667 15.6127C23.4609 14.4067 22.3156 13.4668 20.9756 12.9117C19.6356 12.3567 18.1611 12.2115 16.7386 12.4944C15.3161 12.7774 14.0094 13.4758 12.9838 14.5014C11.9582 15.527 11.2598 16.8337 10.9768 18.2562C10.6939 19.6787 10.8391 21.1532 11.3942 22.4932C11.9492 23.8332 12.8891 24.9785 14.0951 25.7843C15.3011 26.5901 16.7189 27.0202 18.1693 27.0202C19.7979 27.0222 21.3799 26.4766 22.6609 25.471L27.6018 30.421C27.687 30.5069 27.7884 30.5751 27.9001 30.6217C28.0118 30.6682 28.1316 30.6922 28.2526 30.6922C28.3736 30.6922 28.4934 30.6682 28.6051 30.6217C28.7168 30.5751 28.8182 30.5069 28.9034 30.421C28.9894 30.3358 29.0576 30.2344 29.1041 30.1227C29.1506 30.011 29.1746 29.8912 29.1746 29.7702C29.1746 29.6492 29.1506 29.5294 29.1041 29.4177C29.0576 29.306 28.9894 29.2046 28.9034 29.1194ZM12.6693 19.6869C12.6693 18.5991 12.9918 17.5357 13.5962 16.6312C14.2005 15.7267 15.0595 15.0218 16.0645 14.6055C17.0695 14.1892 18.1754 14.0803 19.2423 14.2925C20.3092 14.5048 21.2892 15.0286 22.0584 15.7978C22.8276 16.567 23.3514 17.547 23.5636 18.6139C23.7758 19.6808 23.6669 20.7866 23.2506 21.7916C22.8343 22.7966 22.1294 23.6556 21.2249 24.2599C20.3204 24.8643 19.2571 25.1869 18.1693 25.1869C16.7106 25.1869 15.3116 24.6074 14.2802 23.5759C13.2487 22.5445 12.6693 21.1455 12.6693 19.6869Z" fill="white"/>
</svg>
