<svg width="274" height="43" viewBox="0 0 274 43" fill="none" xmlns="http://www.w3.org/2000/svg">
<path d="M67.4115 31.8125C65.9618 31.8125 64.7031 31.5868 63.6354 31.1354C62.5764 30.6753 61.7474 30.02 61.1484 29.1693C60.5495 28.3186 60.2153 27.3073 60.1458 26.1354H63.0885C63.1493 26.8385 63.375 27.4245 63.7656 27.8932C64.1649 28.3533 64.6814 28.6962 65.3151 28.9219C65.9488 29.1476 66.6432 29.2604 67.3984 29.2604C68.2231 29.2604 68.9609 29.1302 69.612 28.8698C70.263 28.6094 70.7708 28.2448 71.1354 27.776C71.5087 27.2986 71.6953 26.7431 71.6953 26.1094C71.6953 25.5365 71.5304 25.0677 71.2005 24.7031C70.8793 24.3385 70.441 24.0391 69.8854 23.8047C69.3299 23.5616 68.7049 23.349 68.0104 23.1667L65.7318 22.5417C64.1693 22.125 62.9366 21.5043 62.0338 20.6797C61.1311 19.8464 60.6797 18.7569 60.6797 17.4115C60.6797 16.2917 60.9792 15.3151 61.5781 14.4818C62.1858 13.6484 63.0061 13.0017 64.0391 12.5417C65.0807 12.0729 66.2483 11.8385 67.5417 11.8385C68.8611 11.8385 70.02 12.0729 71.0182 12.5417C72.0252 13.0017 72.8194 13.6354 73.401 14.4427C73.9913 15.2413 74.2995 16.1571 74.3255 17.1901H71.487C71.3828 16.296 70.9661 15.6016 70.237 15.1068C69.5165 14.612 68.5963 14.3646 67.4766 14.3646C66.6953 14.3646 66.0095 14.4905 65.4193 14.7422C64.8377 14.9852 64.3863 15.3238 64.0651 15.7578C63.7526 16.1918 63.5963 16.691 63.5963 17.2552C63.5963 17.8628 63.783 18.3576 64.1562 18.7396C64.5382 19.1215 64.9983 19.4253 65.5365 19.651C66.0833 19.8681 66.6085 20.046 67.112 20.1849L69 20.6927C69.6163 20.849 70.25 21.0573 70.901 21.3177C71.5521 21.5781 72.1554 21.921 72.7109 22.3464C73.2752 22.763 73.7266 23.2839 74.0651 23.9089C74.4123 24.5252 74.5859 25.2717 74.5859 26.1484C74.5859 27.2335 74.3038 28.2057 73.7396 29.0651C73.1753 29.9158 72.3594 30.5885 71.2917 31.0833C70.224 31.5694 68.9305 31.8125 67.4115 31.8125ZM76.7474 31.5V16.9427H79.5599V31.5H76.7474ZM78.1667 14.7031C77.6719 14.7031 77.2509 14.5382 76.9036 14.2083C76.5564 13.8785 76.3828 13.4835 76.3828 13.0234C76.3828 12.5547 76.5564 12.1554 76.9036 11.8255C77.2509 11.4957 77.6719 11.3307 78.1667 11.3307C78.6528 11.3307 79.0694 11.4957 79.4167 11.8255C79.7726 12.1554 79.9505 12.5547 79.9505 13.0234C79.9505 13.4835 79.7726 13.8785 79.4167 14.2083C79.0694 14.5382 78.6528 14.7031 78.1667 14.7031ZM88.3359 37.2552C86.5998 37.2552 85.2326 36.9297 84.2344 36.2786C83.2361 35.6276 82.546 34.855 82.1641 33.9609L84.5859 32.9583C84.7595 33.2361 84.9896 33.5313 85.276 33.8438C85.5712 34.1563 85.9661 34.421 86.4609 34.638C86.9557 34.855 87.5937 34.9635 88.375 34.9635C89.4427 34.9635 90.3281 34.7031 91.0312 34.1823C91.7344 33.6701 92.0859 32.8455 92.0859 31.7083V28.8568H91.8906C91.7344 29.1606 91.4957 29.5035 91.1745 29.8854C90.8533 30.2587 90.4149 30.5842 89.8594 30.862C89.3038 31.1398 88.579 31.2786 87.6849 31.2786C86.5391 31.2786 85.5061 31.0095 84.5859 30.4714C83.6745 29.9245 82.9453 29.1259 82.3984 28.0755C81.8602 27.0165 81.5911 25.7144 81.5911 24.1693C81.5911 22.6241 81.8559 21.3003 82.3854 20.1979C82.9236 19.0868 83.6528 18.2361 84.5729 17.6458C85.4931 17.0556 86.5391 16.7604 87.7109 16.7604C88.6137 16.7604 89.3429 16.9123 89.8984 17.2161C90.4627 17.5113 90.901 17.8585 91.2135 18.2578C91.526 18.6571 91.7691 19.0087 91.9427 19.3125H92.151V16.9427H94.8984V31.8255C94.8984 33.0755 94.6076 34.0998 94.026 34.8984C93.4531 35.697 92.6719 36.2873 91.6823 36.6693C90.6927 37.0599 89.5773 37.2552 88.3359 37.2552ZM88.3099 28.9219C89.5338 28.9219 90.4713 28.5009 91.1224 27.6589C91.7821 26.8082 92.112 25.6319 92.112 24.1302C92.112 23.1493 91.9687 22.2899 91.6823 21.5521C91.3958 20.8056 90.9705 20.224 90.4062 19.8073C89.842 19.3819 89.1432 19.1693 88.3099 19.1693C87.4592 19.1693 86.7474 19.3906 86.1745 19.8333C85.6102 20.2674 85.1849 20.862 84.8984 21.6172C84.612 22.3637 84.4687 23.2014 84.4687 24.1302C84.4687 25.0764 84.612 25.9141 84.8984 26.6432C85.1849 27.3637 85.6146 27.9236 86.1875 28.3229C86.7691 28.7222 87.4766 28.9219 88.3099 28.9219ZM97.6068 31.5V16.9427H100.302V19.3385H100.497C100.801 18.5312 101.296 17.9019 101.982 17.4505C102.676 16.9905 103.501 16.7604 104.456 16.7604C105.428 16.7604 106.24 16.9905 106.891 17.4505C107.55 17.9019 108.041 18.5312 108.362 19.3385H108.518C108.865 18.5486 109.417 17.9236 110.172 17.4635C110.927 16.9948 111.826 16.7604 112.867 16.7604C114.187 16.7604 115.267 17.1771 116.109 18.0104C116.951 18.8351 117.372 20.0807 117.372 21.7474V31.5H114.534V22.0078C114.534 21.0182 114.265 20.3064 113.727 19.8724C113.188 19.4297 112.546 19.2083 111.799 19.2083C110.879 19.2083 110.163 19.4948 109.651 20.0677C109.148 20.6319 108.896 21.3481 108.896 22.2161V31.5H106.057V21.8255C106.057 21.0356 105.814 20.4019 105.328 19.9245C104.842 19.447 104.204 19.2083 103.414 19.2083C102.876 19.2083 102.377 19.3516 101.917 19.638C101.465 19.9158 101.101 20.3064 100.823 20.8099C100.554 21.3047 100.419 21.8776 100.419 22.5286V31.5H97.6068ZM124.299 31.8125C123.379 31.8125 122.546 31.6432 121.799 31.3047C121.053 30.9575 120.463 30.454 120.029 29.7943C119.595 29.1345 119.378 28.3316 119.378 27.3854C119.378 26.5608 119.534 25.888 119.846 25.3672C120.168 24.8377 120.597 24.4167 121.135 24.1042C121.674 23.7917 122.273 23.5573 122.932 23.401C123.592 23.2448 124.269 23.1233 124.964 23.0365C125.84 22.941 126.548 22.8585 127.086 22.7891C127.624 22.7196 128.015 22.6111 128.258 22.4635C128.51 22.3073 128.635 22.0599 128.635 21.7214V21.6562C128.635 20.8316 128.401 20.1936 127.932 19.7422C127.472 19.2908 126.786 19.0651 125.875 19.0651C124.929 19.0651 124.178 19.2734 123.622 19.6901C123.076 20.0981 122.698 20.5625 122.49 21.0833L119.82 20.4714C120.141 19.5859 120.606 18.8741 121.214 18.3359C121.83 17.7891 122.533 17.3898 123.323 17.138C124.122 16.8863 124.955 16.7604 125.823 16.7604C126.405 16.7604 127.021 16.8299 127.672 16.9687C128.323 17.099 128.935 17.3464 129.508 17.7109C130.089 18.0668 130.562 18.579 130.927 19.2474C131.292 19.9158 131.474 20.7795 131.474 21.8385V31.5H128.701V29.5078H128.596C128.423 29.8637 128.149 30.2196 127.776 30.5755C127.411 30.9314 126.943 31.2266 126.37 31.4609C125.797 31.6953 125.107 31.8125 124.299 31.8125ZM124.911 29.5469C125.701 29.5469 126.374 29.395 126.93 29.0911C127.485 28.7786 127.911 28.3707 128.206 27.8672C128.501 27.3637 128.648 26.8299 128.648 26.2656V24.3776C128.544 24.4731 128.349 24.5642 128.062 24.651C127.776 24.7378 127.451 24.8116 127.086 24.8724C126.721 24.9332 126.365 24.9896 126.018 25.0417C125.671 25.0851 125.38 25.1198 125.146 25.1458C124.599 25.224 124.1 25.3455 123.648 25.5104C123.197 25.6667 122.832 25.901 122.555 26.2135C122.286 26.5174 122.151 26.921 122.151 27.4245C122.151 28.1276 122.411 28.6571 122.932 29.013C123.453 29.3689 124.113 29.5469 124.911 29.5469ZM139.378 14.612V12.099H154.404V14.612H148.362V31.5H145.445V14.612H139.378ZM154.846 31.5V16.9427H157.568V19.2734H157.724C157.993 18.4922 158.462 17.8759 159.13 17.4245C159.807 16.9644 160.571 16.7344 161.422 16.7344C161.595 16.7344 161.799 16.7431 162.034 16.7604C162.277 16.7691 162.472 16.7821 162.62 16.7995V19.5078C162.507 19.4731 162.303 19.4384 162.008 19.4036C161.721 19.3689 161.431 19.3516 161.135 19.3516C160.467 19.3516 159.868 19.4948 159.339 19.7812C158.818 20.059 158.405 20.4453 158.102 20.9401C157.806 21.4262 157.659 21.9905 157.659 22.6328V31.5H154.846ZM168.076 31.8125C167.155 31.8125 166.322 31.6432 165.576 31.3047C164.829 30.9575 164.239 30.454 163.805 29.7943C163.371 29.1345 163.154 28.3316 163.154 27.3854C163.154 26.5608 163.31 25.888 163.622 25.3672C163.944 24.8377 164.373 24.4167 164.911 24.1042C165.45 23.7917 166.049 23.5573 166.708 23.401C167.368 23.2448 168.045 23.1233 168.74 23.0365C169.616 22.941 170.324 22.8585 170.862 22.7891C171.4 22.7196 171.791 22.6111 172.034 22.4635C172.286 22.3073 172.411 22.0599 172.411 21.7214V21.6562C172.411 20.8316 172.177 20.1936 171.708 19.7422C171.248 19.2908 170.562 19.0651 169.651 19.0651C168.705 19.0651 167.954 19.2734 167.398 19.6901C166.852 20.0981 166.474 20.5625 166.266 21.0833L163.596 20.4714C163.918 19.5859 164.382 18.8741 164.99 18.3359C165.606 17.7891 166.309 17.3898 167.099 17.138C167.898 16.8863 168.731 16.7604 169.599 16.7604C170.181 16.7604 170.797 16.8299 171.448 16.9687C172.099 17.099 172.711 17.3464 173.284 17.7109C173.865 18.0668 174.339 18.579 174.703 19.2474C175.068 19.9158 175.25 20.7795 175.25 21.8385V31.5H172.477V29.5078H172.372C172.199 29.8637 171.925 30.2196 171.552 30.5755C171.187 30.9314 170.719 31.2266 170.146 31.4609C169.573 31.6953 168.883 31.8125 168.076 31.8125ZM168.687 29.5469C169.477 29.5469 170.15 29.395 170.706 29.0911C171.261 28.7786 171.687 28.3707 171.982 27.8672C172.277 27.3637 172.424 26.8299 172.424 26.2656V24.3776C172.32 24.4731 172.125 24.5642 171.839 24.651C171.552 24.7378 171.227 24.8116 170.862 24.8724C170.497 24.9332 170.141 24.9896 169.794 25.0417C169.447 25.0851 169.156 25.1198 168.922 25.1458C168.375 25.224 167.876 25.3455 167.424 25.5104C166.973 25.6667 166.609 25.901 166.331 26.2135C166.062 26.5174 165.927 26.921 165.927 27.4245C165.927 28.1276 166.187 28.6571 166.708 29.013C167.229 29.3689 167.889 29.5469 168.687 29.5469ZM183.388 31.7865C182.207 31.7865 181.157 31.487 180.237 30.888C179.317 30.2804 178.596 29.4167 178.076 28.2969C177.555 27.1684 177.294 25.8229 177.294 24.2604C177.294 22.6806 177.559 21.3307 178.089 20.2109C178.618 19.0911 179.343 18.2361 180.263 17.6458C181.183 17.0556 182.225 16.7604 183.388 16.7604C184.299 16.7604 185.029 16.9123 185.576 17.2161C186.131 17.5113 186.561 17.8585 186.865 18.2578C187.177 18.6571 187.416 19.0087 187.581 19.3125H187.75V12.099H190.563V31.5H187.815V29.2344H187.581C187.416 29.5382 187.173 29.8898 186.852 30.2891C186.53 30.6884 186.092 31.0399 185.536 31.3437C184.99 31.6389 184.273 31.7865 183.388 31.7865ZM184 29.3776C184.816 29.3776 185.506 29.1606 186.07 28.7266C186.635 28.2925 187.06 27.6892 187.346 26.9167C187.641 26.1441 187.789 25.25 187.789 24.2344C187.789 23.2187 187.646 22.3333 187.359 21.5781C187.073 20.8142 186.648 20.224 186.083 19.8073C185.519 19.3819 184.825 19.1693 184 19.1693C183.149 19.1693 182.442 19.3906 181.878 19.8333C181.313 20.276 180.888 20.8793 180.602 21.6432C180.315 22.4071 180.172 23.2708 180.172 24.2344C180.172 25.2066 180.315 26.0833 180.602 26.8646C180.888 27.6372 181.313 28.2491 181.878 28.7005C182.451 29.1519 183.158 29.3776 184 29.3776ZM193.284 31.5V16.9427H196.096V31.5H193.284ZM194.703 14.7031C194.208 14.7031 193.787 14.5382 193.44 14.2083C193.093 13.8785 192.919 13.4835 192.919 13.0234C192.919 12.5547 193.093 12.1554 193.44 11.8255C193.787 11.4957 194.208 11.3307 194.703 11.3307C195.189 11.3307 195.606 11.4957 195.953 11.8255C196.309 12.1554 196.487 12.5547 196.487 13.0234C196.487 13.4835 196.309 13.8785 195.953 14.2083C195.606 14.5382 195.189 14.7031 194.703 14.7031ZM201.617 22.8672V31.5H198.805V16.9427H201.539V19.3385H201.734C202.064 18.5486 202.581 17.9236 203.284 17.4635C203.987 16.9948 204.89 16.7604 205.992 16.7604C206.982 16.7604 207.845 16.9687 208.583 17.3854C209.33 17.7934 209.907 18.4054 210.315 19.2214C210.732 20.0373 210.94 21.0486 210.94 22.2552V31.5H208.128V22.5937C208.128 21.5434 207.85 20.7187 207.294 20.1198C206.739 19.5122 205.984 19.2083 205.029 19.2083C204.378 19.2083 203.792 19.3559 203.271 19.651C202.759 19.9375 202.355 20.3498 202.06 20.888C201.765 21.4262 201.617 22.0859 201.617 22.8672ZM219.716 37.2552C217.98 37.2552 216.613 36.9297 215.615 36.2786C214.616 35.6276 213.926 34.855 213.544 33.9609L215.966 32.9583C216.14 33.2361 216.37 33.5313 216.656 33.8438C216.951 34.1563 217.346 34.421 217.841 34.638C218.336 34.855 218.974 34.9635 219.755 34.9635C220.823 34.9635 221.708 34.7031 222.411 34.1823C223.115 33.6701 223.466 32.8455 223.466 31.7083V28.8568H223.271C223.115 29.1606 222.876 29.5035 222.555 29.8854C222.234 30.2587 221.795 30.5842 221.24 30.862C220.684 31.1398 219.959 31.2786 219.065 31.2786C217.919 31.2786 216.886 31.0095 215.966 30.4714C215.055 29.9245 214.326 29.1259 213.779 28.0755C213.24 27.0165 212.971 25.7144 212.971 24.1693C212.971 22.6241 213.236 21.3003 213.766 20.1979C214.304 19.0868 215.033 18.2361 215.953 17.6458C216.873 17.0556 217.919 16.7604 219.091 16.7604C219.994 16.7604 220.723 16.9123 221.279 17.2161C221.843 17.5113 222.281 17.8585 222.594 18.2578C222.906 18.6571 223.149 19.0087 223.323 19.3125H223.531V16.9427H226.279V31.8255C226.279 33.0755 225.988 34.0998 225.406 34.8984C224.833 35.697 224.052 36.2873 223.063 36.6693C222.073 37.0599 220.957 37.2552 219.716 37.2552ZM219.69 28.9219C220.914 28.9219 221.852 28.5009 222.503 27.6589C223.162 26.8082 223.492 25.6319 223.492 24.1302C223.492 23.1493 223.349 22.2899 223.063 21.5521C222.776 20.8056 222.351 20.224 221.786 19.8073C221.222 19.3819 220.523 19.1693 219.69 19.1693C218.839 19.1693 218.128 19.3906 217.555 19.8333C216.99 20.2674 216.565 20.862 216.279 21.6172C215.992 22.3637 215.849 23.2014 215.849 24.1302C215.849 25.0764 215.992 25.9141 216.279 26.6432C216.565 27.3637 216.995 27.9236 217.568 28.3229C218.149 28.7222 218.857 28.9219 219.69 28.9219ZM235.133 31.5V12.099H242.255C243.627 12.099 244.764 12.3247 245.667 12.776C246.569 13.2274 247.242 13.8394 247.685 14.612C248.136 15.3759 248.362 16.2352 248.362 17.1901C248.362 17.9974 248.21 18.6788 247.906 19.2344C247.611 19.7899 247.216 20.2326 246.721 20.5625C246.227 20.8924 245.68 21.1354 245.081 21.2917V21.474C245.732 21.5087 246.365 21.717 246.982 22.099C247.598 22.4809 248.106 23.0234 248.505 23.7266C248.913 24.421 249.117 25.2717 249.117 26.2786C249.117 27.2682 248.883 28.158 248.414 28.9479C247.954 29.7292 247.242 30.3498 246.279 30.8099C245.315 31.27 244.078 31.5 242.568 31.5H235.133ZM238.063 29H242.281C243.688 29 244.694 28.7266 245.302 28.1797C245.91 27.6328 246.214 26.9514 246.214 26.1354C246.214 25.5191 246.057 24.9592 245.745 24.4557C245.441 23.9436 245.003 23.5356 244.43 23.2318C243.857 22.928 243.18 22.776 242.398 22.776H238.063V29ZM238.063 20.4974H241.995C242.646 20.4974 243.236 20.3715 243.766 20.1198C244.295 19.8681 244.712 19.5122 245.016 19.0521C245.328 18.5833 245.484 18.0408 245.484 17.4245C245.484 16.6259 245.202 15.9575 244.638 15.4193C244.082 14.8724 243.227 14.599 242.073 14.599H238.063V20.4974ZM257.359 31.7995C255.997 31.7995 254.803 31.487 253.779 30.862C252.763 30.237 251.973 29.3602 251.409 28.2318C250.853 27.1033 250.576 25.7925 250.576 24.2995C250.576 22.7891 250.853 21.4696 251.409 20.3411C251.973 19.204 252.763 18.3229 253.779 17.6979C254.803 17.0729 255.997 16.7604 257.359 16.7604C258.731 16.7604 259.924 17.0729 260.94 17.6979C261.956 18.3229 262.746 19.204 263.31 20.3411C263.874 21.4696 264.156 22.7891 264.156 24.2995C264.156 25.7925 263.874 27.1033 263.31 28.2318C262.746 29.3602 261.956 30.237 260.94 30.862C259.924 31.487 258.731 31.7995 257.359 31.7995ZM257.359 29.4167C258.253 29.4167 258.991 29.1823 259.573 28.7135C260.155 28.2448 260.584 27.6241 260.862 26.8516C261.148 26.0703 261.292 25.2196 261.292 24.2995C261.292 23.362 261.148 22.5026 260.862 21.7214C260.584 20.9401 260.155 20.3151 259.573 19.8464C258.991 19.3776 258.253 19.1432 257.359 19.1432C256.474 19.1432 255.74 19.3776 255.159 19.8464C254.586 20.3151 254.156 20.9401 253.87 21.7214C253.583 22.5026 253.44 23.362 253.44 24.2995C253.44 25.2196 253.583 26.0703 253.87 26.8516C254.156 27.6241 254.586 28.2448 255.159 28.7135C255.74 29.1823 256.474 29.4167 257.359 29.4167ZM272.971 16.9427V19.2214H265.029V16.9427H272.971ZM267.151 13.4792H269.977V27.2292C269.977 27.8976 270.115 28.388 270.393 28.7005C270.671 29.0043 271.118 29.1562 271.734 29.1562C271.882 29.1562 272.038 29.1476 272.203 29.1302C272.377 29.1128 272.55 29.0868 272.724 29.0521L273.258 31.3958C272.971 31.4913 272.659 31.5651 272.32 31.6172C271.982 31.6693 271.643 31.6953 271.305 31.6953C270.046 31.6953 269.039 31.3437 268.284 30.6406C267.529 29.9288 267.151 28.9826 267.151 27.8021V13.4792Z" fill="#DADFE7"/>
<g clip-path="url(#clip0_1063_2291)">
<path d="M18.4623 1.19555C19.1316 1.10164 19.8031 0.962131 20.4817 0.992529C19.7179 1.41757 18.8792 1.68898 18.097 2.07765C16.5456 2.73394 15.1983 3.83317 14.1892 5.17669C12.8391 6.99246 12.6041 9.44335 13.1057 11.6C13.338 12.607 13.7913 13.5754 14.4883 14.3457C15.3324 15.2761 16.4338 15.9199 17.5238 16.5197C20.3443 17.6906 23.2534 18.6541 26.005 19.9873C27.8593 20.9123 29.6626 22.0088 31.119 23.5C31.7026 24.0646 32.183 24.723 32.6694 25.3695C33.8126 27.0149 34.1811 29.0912 34.0482 31.0617C33.8451 34.1721 32.038 37.1892 29.2539 38.651C27.4158 39.8078 25.2977 40.6334 23.1063 40.6595C24.3754 39.9772 25.7879 39.5201 26.9072 38.5767C28.3788 37.3824 29.5573 35.7262 29.8743 33.8296C29.9774 32.7716 30.0404 31.6832 29.7766 30.6431C29.3722 29.5092 28.6095 28.4881 27.5711 27.8628C25.4584 26.6501 23.0894 26.0133 20.853 25.0797C17.8962 23.7828 15.0067 22.1771 12.7322 19.8489C12.3739 19.4298 11.9483 19.0743 11.6069 18.64C9.83889 16.5072 8.78146 13.7529 8.8466 10.9693C8.85908 8.27029 9.9974 5.47687 12.2056 3.84295C14.0339 2.46578 16.2166 1.59616 18.4623 1.19555Z" fill="#DADFE7"/>
<path d="M18.4062 8.69986C20.2997 8.33724 22.2403 8.31716 24.1614 8.38176C28.3607 8.58858 32.5324 10.0635 35.7878 12.7521C37.8527 14.563 39.0057 17.2658 39.1935 19.9783C39.4568 23.0144 38.7923 26.1432 37.2382 28.7716C37.0173 29.1077 36.8327 29.4752 36.5439 29.7607C36.8007 28.4248 37.2534 27.11 37.2545 25.734C37.3044 24.1809 36.944 22.5524 35.9685 21.3126C34.7629 19.6792 33.3043 18.2564 31.8164 16.8852C30.4267 15.7762 29.0675 14.6265 27.6225 13.5892C24.9208 11.6176 21.9054 10.1221 18.8036 8.8931C18.6652 8.84099 18.5327 8.77585 18.4062 8.69986Z" fill="#DADFE7"/>
<path d="M5.77629 12.7219C5.98365 12.4108 6.16333 12.0732 6.44018 11.8164C6.14542 13.3325 5.59661 14.827 5.69052 16.3952C5.73178 18.1339 6.5292 19.7217 7.35485 21.2101C7.69684 21.9782 8.31784 22.5602 8.81779 23.2213C10.9392 25.6543 13.4096 27.7784 16.1004 29.5605C18.604 31.3133 21.4566 32.4582 24.2826 33.571C23.8374 33.7984 23.3093 33.8131 22.8527 34.027C22.4451 34.2311 21.9951 34.0926 21.5651 34.1116C20.5061 34.2408 19.4307 34.2962 18.3684 34.1686C15.0495 33.8652 11.7485 32.8311 9.00723 30.9035C8.04968 30.2521 7.22511 29.4297 6.43312 28.591C4.45558 26.2829 3.58053 23.1969 3.54199 20.1972C3.65924 17.5748 4.38881 14.9594 5.77629 12.7219Z" fill="#DADFE7"/>
</g>
<defs>
<clipPath id="clip0_1063_2291">
<rect width="42.6667" height="42.6667" fill="white" transform="translate(0.333008 0.166504)"/>
</clipPath>
</defs>
</svg>
