<svg width="1920" height="900" viewBox="0 0 1920 900" fill="none" xmlns="http://www.w3.org/2000/svg">
<g opacity="0.5" clip-path="url(#clip0_106_4)">
<g opacity="0.1">
<path d="M1844.31 -92.4342C1741.4 -107.686 1641.09 -116.515 1544.43 -119.183C1501.48 -120.374 1458.42 -120.249 1424.84 -108.916C1357.48 -86.1702 1341.34 -24.2587 1346.34 43.567C1347.65 62.0788 1350.52 81.0289 1354.35 99.745C1370.95 180.167 1400.83 264.085 1442.8 348.944C1484.4 433.004 1540.29 519.637 1561.74 602.369C1575.64 655.965 1578.24 709.47 1562.6 752.1C1548.99 788.95 1520.12 817.553 1472.03 827.339C1463.4 829.105 1454.28 830.239 1444.72 830.748C1385.75 833.887 1313.22 813.085 1243.84 783.197C1221.66 773.636 1199.76 763.197 1178.23 752.275C1122 723.747 1066.76 691.723 1013.45 660.586C928.296 611.079 844.466 565.861 758.62 543.444C684.857 524.18 612.505 528.567 579.284 564.032C531.985 614.504 562.136 702.239 577.757 777.957C578.989 783.927 580.12 789.878 581.151 795.811C596.679 885.446 588.369 969.058 531.171 1022.96C470.228 1080.44 343.719 1097.02 207.685 1040.49" stroke="#E9E9E9" stroke-miterlimit="10"/>
<path d="M1868.98 -66.4557C1767.91 -81.5198 1669.58 -89.8677 1575.09 -91.8654C1533.11 -92.7561 1491.1 -92.3033 1458.12 -81.1981C1391.97 -58.9155 1374.39 0.623147 1377.17 66.0598C1377.86 83.9324 1380.06 102.24 1383.19 120.351C1396.81 198.137 1423.53 279.614 1462.14 362.242C1500.42 444.085 1553.05 528.712 1572.92 609.602C1586.42 664.557 1589.49 719.561 1574.22 763.856C1560.95 802.07 1532.05 832.17 1483.17 842.772C1474.4 844.688 1465.1 845.948 1455.3 846.555C1394.95 850.284 1320.44 828.813 1248.9 798.344C1226.08 788.611 1203.5 778.009 1181.34 766.977C1123.42 738.155 1066.25 706.081 1011.01 675.446C922.693 626.47 836.552 584.295 749.381 563.775C678.426 547.071 608.485 551.228 575.699 585.503C529.012 634.286 555.282 718.195 567.237 790.138C568.177 795.809 569.022 801.463 569.767 807.088C580.973 892.136 568.838 970.327 510.616 1019.64C448.59 1072.24 324.772 1085.31 192.904 1028.88" stroke="#E3E3E3" stroke-miterlimit="10"/>
<path d="M1893.65 -40.477C1794.42 -55.3508 1698.05 -63.2229 1605.74 -64.5473C1564.73 -65.1401 1523.77 -64.357 1491.39 -53.4753C1426.45 -31.6583 1407.44 25.5121 1408.01 88.5574C1408.08 105.789 1409.6 123.456 1412.03 140.964C1422.68 216.114 1446.23 295.145 1481.48 375.547C1516.43 455.175 1565.72 537.781 1584.09 616.843C1597.17 673.156 1600.74 729.656 1585.84 775.621C1572.9 815.194 1543.96 846.798 1494.32 858.218C1485.39 860.283 1475.9 861.673 1465.89 862.375C1404.15 866.696 1327.66 844.553 1253.97 813.503C1230.49 803.598 1207.25 792.831 1184.44 781.689C1124.84 752.577 1065.72 720.505 1008.57 690.314C917.043 641.96 828.715 602.673 740.147 584.118C672.017 569.842 604.468 573.904 572.119 606.984C526.041 654.074 548.434 734.16 556.726 802.333C557.378 807.709 557.935 813.06 558.396 818.383C565.284 898.846 549.319 971.615 490.073 1016.35C426.966 1064.06 305.84 1073.62 178.139 1017.29" stroke="#DEDEDE" stroke-miterlimit="10"/>
<path d="M1918.32 -14.4978C1820.94 -29.179 1726.54 -36.5774 1636.39 -37.2287C1596.35 -37.5234 1556.46 -36.4077 1524.67 -25.7544C1460.94 -4.40282 1440.5 50.397 1438.84 111.051C1438.29 127.643 1439.14 144.67 1440.87 161.571C1448.54 234.083 1468.93 310.675 1500.83 388.85C1532.46 466.261 1578.35 546.838 1595.26 624.082C1607.89 681.748 1612 739.752 1597.46 787.381C1584.86 828.317 1555.89 861.42 1505.47 873.656C1496.39 875.872 1486.72 877.388 1476.48 878.188C1413.36 883.1 1334.88 860.286 1259.05 828.657C1234.91 818.583 1211 807.649 1187.55 796.398C1126.26 766.995 1065.19 734.929 1006.14 705.182C911.397 657.455 820.925 620.963 730.916 604.457C665.619 592.481 600.456 596.573 568.541 628.463C523.077 673.861 541.588 750.123 546.213 814.524C546.575 819.6 546.849 824.655 547.017 829.673C549.583 905.549 529.793 972.896 469.522 1013.04C405.334 1055.87 286.898 1061.93 163.368 1005.7" stroke="#D8D8D8" stroke-miterlimit="10"/>
<path d="M1942.99 11.4785C1847.45 -3.0124 1755.02 -9.93482 1667.05 -9.91047C1627.98 -9.90725 1589.14 -8.46137 1557.94 1.96368C1495.42 22.8521 1473.73 75.3529 1469.67 133.544C1468.55 149.516 1468.67 165.882 1469.71 182.18C1474.4 252.053 1491.62 326.202 1520.16 402.15C1548.47 477.345 1590.91 555.88 1606.43 631.317C1618.57 690.326 1623.24 749.846 1609.08 799.142C1596.81 841.439 1567.8 876.044 1516.61 889.093C1507.38 891.46 1497.52 893.107 1487.06 893.998C1422.56 899.5 1342.09 876.016 1264.1 843.809C1239.32 833.561 1214.74 822.463 1190.65 811.1C1127.67 781.406 1064.64 749.348 1003.68 720.04C905.725 672.945 813.138 639.145 721.665 624.791C659.188 614.985 596.422 619.239 564.941 649.932C520.086 693.637 534.72 766.076 535.682 826.704C535.757 831.484 535.742 836.237 535.627 840.952C533.87 912.241 510.256 974.167 448.959 1009.73C383.689 1047.67 267.94 1050.23 148.584 994.095" stroke="#D2D2D2" stroke-miterlimit="10"/>
<path d="M1967.66 37.4547C1873.95 23.1541 1783.5 16.7077 1697.7 17.4052C1659.6 17.7087 1621.82 19.4873 1591.21 29.6817C1529.91 50.1046 1506.8 100.244 1500.5 156.034C1498.77 171.368 1498.21 187.091 1498.54 202.781C1500.26 270.018 1514.31 341.724 1539.5 415.443C1564.48 488.421 1603.41 564.901 1617.6 638.546C1629.22 698.895 1634.48 759.929 1620.69 810.893C1608.76 854.551 1579.72 890.658 1527.75 904.523C1518.37 907.041 1508.33 908.815 1497.64 909.803C1431.76 915.895 1349.3 891.744 1269.17 858.954C1243.73 848.534 1218.49 837.273 1193.75 825.8C1129.08 795.811 1064.09 763.764 1001.24 734.899C900.064 688.434 805.359 657.198 712.422 645.12C652.743 637.364 592.398 641.899 561.352 671.401C517.109 713.416 527.862 782.029 525.157 838.885C524.94 843.367 524.636 847.817 524.238 852.23C518.159 918.932 490.72 975.436 428.398 1006.42C362.047 1039.47 248.989 1038.52 133.798 982.486" stroke="#CDCDCD" stroke-miterlimit="10"/>
<path d="M1992.34 63.4335C1900.46 49.3231 1811.98 43.3528 1728.35 44.7235C1691.22 45.325 1654.51 47.4337 1624.49 57.4022C1564.4 77.3596 1539.86 125.136 1531.34 178.53C1528.99 193.227 1527.75 208.304 1527.39 223.392C1526.13 287.991 1537.01 357.256 1558.84 428.745C1580.5 499.506 1615.87 573.919 1628.77 645.785C1639.84 707.461 1645.74 770.025 1632.32 822.655C1620.72 867.676 1591.64 905.282 1538.9 919.965C1529.36 922.631 1519.14 924.534 1508.22 925.618C1440.96 932.3 1356.52 907.479 1274.24 874.108C1248.15 863.516 1222.23 852.093 1196.85 840.506C1130.5 810.226 1063.56 778.193 998.797 749.764C894.409 703.934 797.553 675.119 703.19 665.458C646.274 659.631 588.384 664.57 557.773 692.88C514.139 733.202 521.015 797.992 514.647 851.078C514.142 855.265 513.55 859.412 512.867 863.524C502.465 925.639 471.201 976.724 407.855 1003.12C340.422 1031.29 230.056 1026.83 119.034 970.895" stroke="#C7C7C7" stroke-miterlimit="10"/>
<path d="M2017.01 89.4096C1926.97 75.4895 1840.46 69.9975 1759 72.039C1722.84 72.9385 1687.18 75.3775 1657.76 85.1201C1598.89 104.612 1572.92 150.025 1562.17 201.022C1559.2 215.08 1557.29 229.518 1556.22 243.999C1551.98 305.959 1559.71 372.785 1578.18 442.043C1596.52 510.587 1628.28 582.922 1639.94 653.021C1650.43 716.019 1656.99 780.116 1643.94 834.413C1632.68 880.795 1603.56 919.903 1550.04 935.399C1540.36 938.217 1529.95 940.247 1518.81 941.425C1450.15 948.698 1363.73 923.206 1279.3 889.258C1252.56 878.493 1225.98 866.905 1199.96 855.211C1131.91 824.639 1063.01 792.619 996.351 764.622C888.748 719.433 789.678 692.864 693.947 685.787C639.755 681.783 584.36 687.229 554.185 714.346C511.163 752.979 514.159 813.943 504.128 863.256C503.334 867.143 502.458 870.997 501.484 874.799C486.765 932.33 451.668 977.988 387.301 999.801C318.782 1023.09 211.111 1015.12 104.259 959.285" stroke="#C2C2C2" stroke-miterlimit="10"/>
<path d="M2041.68 115.388C1953.49 101.658 1868.94 96.6398 1789.65 99.3569C1754.47 100.554 1719.87 103.326 1691.04 112.84C1633.38 131.869 1605.97 174.914 1593 223.515C1589.42 236.934 1586.83 250.729 1585.06 264.604C1577.85 323.929 1582.4 388.312 1597.52 455.343C1612.54 521.67 1640.65 591.913 1651.12 660.256C1660.96 724.559 1668.24 790.209 1655.56 846.173C1644.64 893.917 1615.48 934.525 1561.19 950.839C1551.36 953.807 1540.76 955.964 1529.39 957.238C1459.36 965.1 1370.95 938.939 1284.37 904.412C1256.97 893.475 1229.73 881.722 1203.06 869.915C1133.33 839.052 1062.47 807.134 993.908 779.485C883.074 735.076 781.712 710.432 684.71 706.126C633.189 703.838 580.34 709.899 550.597 735.822C508.188 772.764 507.303 829.903 493.604 875.444C492.522 879.035 491.357 882.586 490.1 886.086C471.059 939.03 432.137 979.267 366.741 996.493C297.14 1014.9 192.16 1003.42 89.4747 947.682" stroke="#BCBCBC" stroke-miterlimit="10"/>
<path d="M2066.35 141.365C1980 127.828 1897.43 123.285 1820.31 126.676C1786.09 128.171 1752.55 131.275 1724.32 140.561C1667.87 159.125 1639.03 199.803 1623.84 246.013C1619.64 258.795 1616.37 271.946 1613.91 285.216C1603.71 341.902 1605.1 403.844 1616.87 468.648C1628.56 532.761 1652.98 600.899 1662.29 667.5C1671.46 733.097 1679.5 800.31 1667.18 857.939C1656.59 907.042 1627.4 949.154 1572.34 966.281C1562.35 969.398 1551.57 971.684 1539.98 973.055C1468.56 981.508 1378.17 954.677 1289.44 919.569C1261.39 908.46 1233.48 896.542 1206.16 884.627C1134.74 853.47 1061.93 821.568 991.467 794.356C877.425 750.585 773.614 727.801 675.472 726.467C626.56 725.803 576.321 732.571 547.013 757.304C505.212 792.553 500.45 845.868 483.088 887.639C481.714 890.932 480.261 894.181 478.719 897.381C455.355 945.738 412.607 980.555 346.188 993.195C275.506 1006.72 173.213 991.727 74.7006 936.091" stroke="#B7B7B7" stroke-miterlimit="10"/>
<path d="M2091.02 167.341C2006.51 153.994 1925.91 149.927 1850.96 153.991C1817.71 155.787 1785.23 159.221 1757.58 168.276C1702.35 186.376 1672.06 224.684 1654.66 268.501C1649.84 280.644 1645.9 293.152 1642.74 305.82C1629.57 359.869 1627.79 419.368 1636.2 481.943C1644.57 543.839 1665.27 609.861 1673.45 674.731C1681.9 741.608 1690.74 810.398 1678.8 869.692C1668.54 920.159 1639.32 963.77 1583.48 981.715C1573.34 984.983 1562.37 987.395 1550.56 988.862C1477.76 997.907 1385.38 970.404 1294.5 934.715C1265.79 923.435 1237.22 911.351 1209.26 899.326C1136.16 867.877 1061.39 835.989 989.021 809.214C871.772 766.079 765.35 744.931 666.231 746.8C619.857 747.673 572.298 755.237 543.427 778.775C502.239 812.334 493.594 861.826 472.566 899.822C470.905 902.819 469.163 905.765 467.338 908.663C439.653 952.43 393.079 981.828 325.634 989.887C253.869 998.524 154.268 980.028 59.9253 924.491" stroke="#B1B1B1" stroke-miterlimit="10"/>
<path d="M2115.69 193.32C2033.02 180.16 1954.39 176.573 1881.61 181.309C1849.34 183.403 1817.91 187.167 1790.86 195.997C1736.84 213.629 1705.11 249.566 1685.5 290.994C1680.05 302.495 1675.44 314.366 1671.58 326.426C1655.43 377.84 1650.49 434.896 1655.54 495.241C1660.59 554.918 1677.53 618.813 1684.63 681.965C1692.3 750.104 1701.99 820.489 1690.42 881.45C1680.5 933.276 1651.24 978.389 1594.62 997.15C1584.33 1000.57 1573.18 1003.11 1561.15 1004.67C1486.96 1014.31 1392.6 986.134 1299.57 949.867C1270.21 938.415 1240.97 926.169 1212.37 914.03C1137.57 882.29 1060.85 850.412 986.575 824.072C866.118 781.576 756.885 761.818 656.988 767.129C613.079 769.465 568.274 777.896 539.838 800.244C499.258 832.111 486.737 877.779 462.047 912.003C460.095 914.7 458.071 917.351 455.954 919.941C423.946 959.123 373.549 983.097 305.079 986.572C232.233 990.325 135.322 968.322 45.1452 912.881" stroke="#ABABAB" stroke-miterlimit="10"/>
<path d="M2140.36 219.296C2059.52 206.33 1982.87 203.218 1912.26 208.625C1880.96 211.019 1850.6 215.114 1824.13 223.715C1771.32 240.884 1738.14 274.443 1716.33 313.487C1710.26 324.347 1704.97 335.575 1700.42 347.035C1681.29 395.81 1673.18 450.425 1674.88 508.541C1676.6 566.001 1689.74 627.753 1695.8 689.201C1702.63 758.579 1713.24 830.58 1702.04 893.208C1692.45 946.399 1663.16 993.011 1605.76 1012.58C1595.32 1016.15 1583.99 1018.82 1571.73 1020.48C1496.16 1030.7 1399.81 1001.86 1304.63 965.015C1274.62 953.39 1244.71 940.981 1215.47 928.73C1138.99 896.698 1060.31 864.834 984.13 838.93C860.46 797.071 748.175 778.441 647.75 787.461C606.223 791.192 564.253 800.56 536.254 821.713C496.287 851.89 479.889 893.735 451.532 924.187C449.293 926.588 446.978 928.938 444.578 931.226C408.253 965.821 354.026 984.374 284.53 983.264C210.603 982.132 116.384 956.621 30.3762 901.281" stroke="#A6A6A6" stroke-miterlimit="10"/>
<path d="M2165.03 245.272C2086.03 232.496 2011.35 229.858 1942.91 235.941C1912.58 238.633 1883.27 243.06 1857.41 251.433C1805.81 268.139 1771.17 299.318 1747.16 335.98C1740.47 346.198 1734.52 356.788 1729.25 367.639C1707.15 413.778 1695.88 465.95 1694.22 521.837C1692.62 577.082 1701.93 636.677 1706.97 696.432C1712.91 767.033 1724.49 840.668 1713.65 904.964C1704.4 959.514 1675.07 1007.63 1616.91 1028.02C1606.31 1031.74 1594.8 1034.54 1582.31 1036.29C1505.36 1047.1 1407.03 1017.59 1309.69 980.167C1279.03 968.368 1248.46 955.796 1218.57 943.437C1140.4 911.111 1059.77 879.265 981.686 853.796C854.808 812.575 739.19 794.794 638.507 807.799C599.274 812.867 560.229 823.229 532.661 843.189C493.302 871.673 473.023 909.693 441.003 936.374C438.476 938.48 435.872 940.528 433.185 942.51C392.537 972.519 334.484 985.652 263.966 979.956C188.956 973.941 97.4281 944.922 15.5907 889.68" stroke="#A0A0A0" stroke-miterlimit="10"/>
<path d="M2189.7 271.251C2112.55 258.665 2039.83 256.505 1973.57 263.262C1944.21 266.252 1915.96 271.009 1890.69 279.156C1840.3 295.397 1804.1 324.125 1778 358.476C1770.65 368.033 1764.06 378.005 1758.1 388.25C1733.02 431.751 1718.58 481.482 1713.56 535.142C1708.64 588.17 1714.1 645.596 1718.14 703.673C1723.14 775.472 1735.74 850.767 1725.28 916.726C1716.36 972.638 1687 1022.26 1628.05 1043.46C1617.31 1047.33 1605.61 1050.25 1592.9 1052.11C1514.56 1063.51 1414.25 1033.33 1314.76 995.321C1283.45 983.353 1252.2 970.613 1221.67 958.141C1141.82 925.524 1059.24 893.689 979.243 868.659C849.158 828.074 729.885 810.86 629.271 828.136C592.237 834.493 556.207 845.895 529.078 864.666C490.332 891.46 466.177 925.655 430.49 948.562C427.672 950.37 424.783 952.118 421.812 953.797C376.843 979.219 314.965 986.931 243.421 976.651C167.325 965.751 78.4888 933.223 0.821568 878.08" stroke="#9B9B9B" stroke-miterlimit="10"/>
<path d="M2214.37 297.23C2139.06 284.837 2068.31 283.148 2004.22 290.58C1975.83 293.87 1948.64 298.958 1923.95 306.875C1874.78 322.649 1837.14 349.009 1808.82 380.968C1800.86 389.884 1793.59 399.216 1786.93 408.856C1758.88 449.721 1741.27 497.009 1732.9 548.442C1724.65 599.254 1726.23 654.495 1729.31 710.909C1733.29 783.878 1746.99 860.86 1736.89 928.487C1728.31 985.761 1698.91 1036.88 1639.19 1058.9C1628.3 1062.92 1616.41 1065.97 1603.47 1067.92C1523.75 1079.91 1421.45 1049.06 1319.82 1010.47C1287.85 998.332 1255.94 985.43 1224.77 972.848C1143.23 939.939 1058.69 908.117 976.79 883.519C843.497 843.574 720.216 826.637 620.02 848.47C585.089 856.083 552.179 868.562 525.482 886.137C487.346 911.236 459.312 941.611 419.958 960.746C416.853 962.255 413.675 963.703 410.415 965.08C361.123 985.915 295.417 988.202 222.852 973.34C145.675 957.556 59.5288 921.522 -13.9683 866.477" stroke="#959595" stroke-miterlimit="10"/>
<path d="M2239.05 323.209C2165.57 311.006 2096.8 309.795 2034.88 317.898C2007.45 321.486 1981.32 326.904 1957.23 334.595C1909.27 349.904 1870.2 373.893 1839.66 403.464C1831.08 411.74 1823.13 420.43 1815.78 429.467C1784.74 467.694 1763.97 512.54 1752.24 561.744C1740.68 610.339 1738.35 663.385 1740.49 718.15C1743.38 792.26 1758.25 870.958 1748.52 940.25C1740.28 998.885 1710.84 1051.5 1650.35 1074.34C1639.3 1078.51 1627.23 1081.69 1614.07 1083.73C1532.96 1096.31 1428.68 1064.79 1324.9 1025.62C1292.27 1013.31 1259.7 1000.25 1227.88 987.552C1144.65 954.352 1058.16 922.543 974.359 898.383C837.853 859.073 710.183 842.127 610.796 868.806C577.862 877.644 548.169 891.226 521.911 907.614C484.387 931.023 452.473 957.572 409.455 972.936C406.059 974.148 402.595 975.295 399.052 976.369C345.438 992.617 275.906 989.485 202.317 970.04C124.058 949.37 40.6033 909.828 -28.7251 854.885" stroke="#909090" stroke-miterlimit="10"/>
<path d="M2263.71 349.185C2097.25 321.27 1956.9 354.259 1870.49 425.957C1784.09 497.654 1748.9 605.69 1751.65 725.383C1753.38 800.605 1769.49 881.047 1760.13 952.008C1750.78 1022.97 1711.26 1085.71 1624.64 1099.54C1516.24 1116.85 1366.78 1055.82 1230.98 1002.26C1007.65 914.174 759.95 837.838 601.549 889.142C522.647 914.697 473.878 970.296 387.66 987.652C268.124 1011.72 82.9299 949.706 -43.5135 843.279" stroke="#8A8A8A" stroke-miterlimit="10"/>
</g>
</g>
<defs>
<clipPath id="clip0_106_4">
<rect width="1920" height="900" fill="white"/>
</clipPath>
</defs>
</svg>
