<svg width="35" height="13" viewBox="0 0 35 13" fill="none" xmlns="http://www.w3.org/2000/svg">
<path d="M8.75 2.16787C9.91032 2.16787 11.0231 2.62384 11.8436 3.43547C12.6641 4.24711 13.125 5.34792 13.125 6.49574C13.125 7.64356 12.6641 8.74438 11.8436 9.55601C11.0231 10.3676 9.91032 10.8236 8.75 10.8236C7.58968 10.8236 6.47688 10.3676 5.65641 9.55601C4.83594 8.74438 4.375 7.64356 4.375 6.49574C4.375 5.34792 4.83594 4.24711 5.65641 3.43547C6.47688 2.62384 7.58968 2.16787 8.75 2.16787ZM14.4922 3.35154C13.8336 2.17274 12.8206 1.22577 11.5937 0.641843C10.3668 0.057915 8.98666 -0.134055 7.64454 0.0925325C6.30241 0.31912 5.06476 0.953047 4.10307 1.90647C3.14139 2.8599 2.50329 4.08561 2.27719 5.41377H1.09375C0.803669 5.41377 0.52547 5.52777 0.320352 5.73067C0.115234 5.93358 0 6.20879 0 6.49574C0 6.7827 0.115234 7.0579 0.320352 7.26081C0.52547 7.46372 0.803669 7.57771 1.09375 7.57771H2.27719C2.54864 9.18536 3.42149 10.6332 4.72234 11.6335C6.02318 12.6339 7.65683 13.1135 9.29872 12.9773C10.9406 12.841 12.4706 12.0987 13.5848 10.8979C14.6989 9.69711 15.3157 8.12566 15.3125 6.49574C15.3125 5.92183 15.543 5.37142 15.9532 4.96561C16.3634 4.55979 16.9198 4.3318 17.5 4.3318C18.0802 4.3318 18.6366 4.55979 19.0468 4.96561C19.457 5.37142 19.6875 5.92183 19.6875 6.49574C19.6843 8.12566 20.3011 9.69711 21.4152 10.8979C22.5294 12.0987 24.0594 12.841 25.7013 12.9773C27.3432 13.1135 28.9768 12.6339 30.2777 11.6335C31.5785 10.6332 32.4514 9.18536 32.7228 7.57771H33.9062C34.1963 7.57771 34.4745 7.46372 34.6796 7.26081C34.8848 7.0579 35 6.7827 35 6.49574C35 6.20879 34.8848 5.93358 34.6796 5.73067C34.4745 5.52777 34.1963 5.41377 33.9062 5.41377H32.7228C32.4967 4.08561 31.8586 2.8599 30.8969 1.90647C29.9352 0.953047 28.6976 0.31912 27.3555 0.0925325C26.0133 -0.134055 24.6332 0.057915 23.4063 0.641843C22.1794 1.22577 21.1664 2.17274 20.5078 3.35154C19.6959 2.58975 18.619 2.16595 17.5 2.16787C16.3363 2.16787 15.2775 2.61797 14.4922 3.35154ZM30.625 6.49574C30.625 7.64356 30.1641 8.74438 29.3436 9.55601C28.5231 10.3676 27.4103 10.8236 26.25 10.8236C25.0897 10.8236 23.9769 10.3676 23.1564 9.55601C22.3359 8.74438 21.875 7.64356 21.875 6.49574C21.875 5.34792 22.3359 4.24711 23.1564 3.43547C23.9769 2.62384 25.0897 2.16787 26.25 2.16787C27.4103 2.16787 28.5231 2.62384 29.3436 3.43547C30.1641 4.24711 30.625 5.34792 30.625 6.49574Z" fill="#1E2A5E"/>
</svg>
