<svg width="27" height="24" viewBox="0 0 27 24" fill="none" xmlns="http://www.w3.org/2000/svg">
<path d="M26.4787 9.23389V8.132L25.6495 8.8576L14.6707 18.464L14.5 18.6134V18.8403V22.4998V22.9998H15H25.9787H26.4787V22.4998V9.23389Z" stroke="white"/>
<path d="M12.4787 9.23413V8.13225L11.6495 8.85784L0.670748 18.4642L0.5 18.6136V18.8405V22.5001V23.0001H1H11.9787H12.4787V22.5001V9.23413Z" stroke="white"/>
<path d="M0.499792 14.2656L0.499792 15.3675L1.32904 14.6419L12.3078 5.03553L12.4785 4.88613L12.4785 4.65924L12.4785 0.999667L12.4785 0.499667L11.9785 0.499667L0.999791 0.499668L0.499791 0.499668L0.499791 0.999668L0.499792 14.2656Z" stroke="white"/>
<path d="M14.4998 14.2659L14.4998 15.3678L15.329 14.6422L26.3078 5.03577L26.4785 4.88637L26.4785 4.65949L26.4785 0.999911L26.4785 0.499911L25.9785 0.499911L14.9998 0.499912L14.4998 0.499912L14.4998 0.999912L14.4998 14.2659Z" stroke="white"/>
</svg>
