<svg width="22" height="34" viewBox="0 0 22 34" fill="none" xmlns="http://www.w3.org/2000/svg">
<path d="M17.246 3.20116C17.7848 2.67521 18.2625 2.2091 18.6674 1.81425C18.2353 3.04669 17.5364 5.0328 16.4136 8.22207C15.8054 9.94966 15.2525 11.5226 14.8516 12.665C14.6511 13.2362 14.4886 13.7 14.3762 14.0217C14.32 14.1825 14.2763 14.3082 14.2465 14.3941L14.212 14.494L14.202 14.5238L14.1972 14.5384C14.1965 14.5408 14.1947 14.5468 14.1926 14.5541C14.1917 14.5574 14.1894 14.5656 14.1869 14.5761C14.1857 14.5816 14.1828 14.5955 14.1813 14.6039C14.179 14.6181 14.1746 14.6612 14.1738 14.6902C14.1738 14.8969 14.2941 15.0226 14.3452 15.0672C14.4002 15.1151 14.4526 15.1393 14.4733 15.1484C14.5184 15.1681 14.5564 15.1766 14.5665 15.1788L14.5668 15.1789C14.5938 15.1848 14.6159 15.1873 14.6221 15.188L14.6223 15.1881C14.6394 15.19 14.655 15.191 14.6634 15.1915C14.683 15.1926 14.7072 15.1936 14.7327 15.1944C14.7853 15.196 14.8603 15.1977 14.9539 15.1993C15.1418 15.2027 15.4123 15.2062 15.7447 15.2096C16.4098 15.2164 17.3265 15.223 18.3345 15.2278L20.7598 15.2392L12.2486 23.3779L12.5941 23.7392L12.2486 23.3779C8.21304 27.2368 4.54998 30.7338 2.93972 32.2658C3.00057 32.1072 3.06464 31.9402 3.13156 31.7658C3.63921 30.4428 4.31068 28.6939 4.9848 26.9387C6.33392 23.4261 7.69142 19.8943 7.77049 19.6934L7.77055 19.6933C7.79639 19.6276 7.8733 19.3903 7.69742 19.1655C7.57688 19.0115 7.4079 18.9708 7.36286 18.9599L7.3607 18.9594C7.2354 18.9291 7.05326 18.9172 6.82313 18.9087C6.33276 18.8906 5.40378 18.8846 3.67788 18.8765L1.22072 18.8649L10.2496 10.0371L9.90009 9.67959L10.2496 10.0371C12.9721 7.37526 15.4488 4.95546 17.246 3.20116Z" stroke="white"/>
</svg>
