<svg width="49" height="58" viewBox="0 0 49 58" fill="none" xmlns="http://www.w3.org/2000/svg">
<path d="M25.6445 40.5483L14.6445 52.5483L12.6445 55.0483H24.1445L37.6445 49.5483L45.6445 32.5483L44.1445 22.0483L37.6445 10.5483L27.6445 4.04834L15.6445 2.04834L11.1445 5.04834L25.6445 19.0483L27.6445 30.0483L25.6445 40.5483Z" fill="#F8F5D6" stroke="black"/>
<path d="M17.8897 53.4025C19.4973 53.4871 21.2477 53.2808 23.035 52.752C24.3465 52.366 25.494 52.0223 26.6997 51.8848C30.798 51.4088 34.2247 49.4152 37.498 45.6183C39.3383 43.4714 40.4118 40.9013 41.5435 38.178C42.6169 35.6027 42.966 33.1278 43.2991 30.3674C43.3943 29.5636 43.3573 28.6223 43.1881 27.5753C42.8285 25.3173 42.5112 23.3342 41.9771 21.4834C41.443 19.6114 40.433 17.8346 38.984 16.2006C36.1496 13.0224 32.6964 10.4206 28.4183 8.24193C25.6156 6.81943 23.199 5.9416 20.814 5.48682C19.804 5.29116 18.7887 5.14838 17.7681 5.0056L16.335 4.79937C15.7692 4.86811 14.9389 4.94743 14.0135 5.10079C18.8257 7.7237 22.8288 11.1557 25.9118 15.3069C26.9694 16.7241 27.6304 18.2999 28.2756 19.8229L28.6034 20.6108C28.8255 21.6738 28.9842 22.4247 29.1428 23.1809C29.751 26.0946 30.3802 29.1088 29.5289 32.3399C29.6505 34.122 29.1481 35.7719 28.6563 37.3636C28.1169 39.1457 27.4665 40.6211 26.8425 42.0436L26.1603 43.63C25.3089 45.6607 24.0451 47.5538 22.1942 49.5844L21.9351 49.8753C21.0203 50.8853 20.079 51.9271 18.905 52.7362C18.5719 52.9635 18.2334 53.1856 17.8897 53.4025ZM18.1118 57.5483C15.9437 57.5483 13.8337 57.2258 11.8242 56.5753L11.0627 56.3162C9.47631 55.7662 8.20187 55.2586 6.95387 54.698L3.24162 53.0058L7.22357 52.128C7.76296 52.0064 8.12784 51.9271 8.49272 51.8848C9.02153 51.8266 9.52919 51.7314 10.021 51.6256C13.4318 50.8694 16.4619 48.9076 19.2963 45.6183C21.1472 43.4661 22.2207 40.8802 23.3576 38.1462C24.41 35.6079 24.7695 33.1331 25.0974 30.3674C25.1979 29.5636 25.1556 28.6223 24.9864 27.57C24.6321 25.349 24.3148 23.3448 23.7754 21.4834C23.2413 19.6114 22.2312 17.8346 20.7823 16.2006C17.9532 13.0224 14.4947 10.4153 10.2166 8.24193C9.14844 7.70255 8.05909 7.21075 6.94859 6.77712C5.91212 6.36993 4.8492 6.0315 3.76514 5.76181L0 4.82581L3.52717 3.20765C4.0507 2.96968 4.57422 2.74758 5.12419 2.56778L7.15482 1.86446C7.82113 1.63178 8.48743 1.39911 9.15373 1.18229C11.8137 0.309753 14.0928 -0.0339737 16.5783 0.0294838C18.4714 -0.134449 20.7188 0.41552 22.8288 0.976059C25.9118 1.79572 28.6933 3.24995 31.3797 4.6513C36.6519 7.40641 40.8824 10.96 44.1135 15.3069C45.1711 16.7294 45.8374 18.3105 46.4773 19.8441L46.895 20.9175C47.0272 21.6685 47.1806 22.4194 47.3392 23.1703C47.9527 26.0893 48.5819 29.1088 47.7306 32.3399C47.8522 34.122 47.3498 35.7719 46.858 37.3636C46.3133 39.1457 45.6682 40.6264 45.0442 42.0489L44.362 43.63C43.5106 45.6607 42.2521 47.5538 40.3959 49.5844L40.1157 49.9017C39.2061 50.8959 38.2701 51.9324 37.1067 52.7362C34.3358 54.6452 31.6705 55.872 28.9472 56.4854C27.5881 56.7921 26.3666 57.0671 25.1397 57.3315C24.7854 57.4056 24.2407 57.5219 23.6749 57.3051C22.9663 57.046 22.1731 57.1623 21.2582 57.3051C20.8616 57.3685 20.465 57.4267 20.0631 57.4637C19.4127 57.5219 18.7622 57.5483 18.1118 57.5483Z" fill="#170000"/>
</svg>
