<svg width="24" height="25" viewBox="0 0 24 25" fill="none" xmlns="http://www.w3.org/2000/svg">
<path d="M1.84386 13.0862C1.16984 12.8112 1.16984 11.8568 1.84386 11.5818C2.41853 11.3474 2.52869 10.5812 2.04334 10.1944C1.47409 9.74066 1.74299 8.82489 2.46717 8.75096C3.0846 8.68793 3.40615 7.98383 3.04945 7.47593C2.63109 6.88022 3.14709 6.0773 3.86277 6.21039C4.47295 6.32387 4.97985 5.73888 4.78069 5.15106C4.5471 4.46161 5.26841 3.83658 5.9176 4.16592C6.47109 4.4467 7.12227 4.02822 7.09678 3.4081C7.0669 2.68077 7.93508 2.28428 8.46519 2.78317C8.91716 3.20852 9.65985 2.99044 9.81011 2.38826C9.98635 1.68198 10.9311 1.54614 11.2991 2.17417C11.613 2.70963 12.387 2.70963 12.7008 2.17417C13.0689 1.54614 14.0137 1.68198 14.1899 2.38826C14.3401 2.99044 15.0828 3.20852 15.5348 2.78317C16.0649 2.28428 16.9331 2.68077 16.9032 3.4081C16.8777 4.02822 17.5289 4.4467 18.0824 4.16592C18.7316 3.83658 19.4529 4.46161 19.2193 5.15106C19.0202 5.73888 19.5271 6.32387 20.1372 6.21039C20.8529 6.0773 21.3689 6.88022 20.9505 7.47593C20.5938 7.98383 20.9154 8.68793 21.5328 8.75096C22.257 8.82489 22.5259 9.74066 21.9567 10.1944C21.4713 10.5812 21.5815 11.3474 22.1561 11.5818C22.8302 11.8568 22.8302 12.8112 22.1561 13.0862C21.5815 13.3206 21.4713 14.0868 21.9567 14.4736C22.5259 14.9273 22.257 15.8431 21.5328 15.917C20.9154 15.98 20.5938 16.6841 20.9505 17.192C21.3689 17.7877 20.8529 18.5907 20.1372 18.4576C19.5271 18.3441 19.0202 18.9291 19.2193 19.5169C19.4529 20.2064 18.7316 20.8314 18.0824 20.5021C17.5289 20.2213 16.8777 20.6397 16.9032 21.2599C16.9331 21.9872 16.0649 22.3837 15.5348 21.8848C15.0828 21.4594 14.3401 21.6775 14.1899 22.2797C14.0137 22.986 13.0689 23.1218 12.7009 22.4938C12.387 21.9583 11.613 21.9583 11.2991 22.4938C10.9311 23.1218 9.98635 22.986 9.81011 22.2797C9.65985 21.6775 8.91716 21.4594 8.46519 21.8848C7.93508 22.3837 7.0669 21.9872 7.09678 21.2599C7.12227 20.6397 6.47109 20.2213 5.9176 20.5021C5.26841 20.8314 4.5471 20.2064 4.78069 19.5169C4.97985 18.9291 4.47295 18.3441 3.86277 18.4576C3.14709 18.5907 2.63109 17.7877 3.04945 17.192C3.40615 16.6841 3.0846 15.98 2.46717 15.917C1.74299 15.8431 1.47409 14.9273 2.04334 14.4736C2.52869 14.0868 2.41853 13.3206 1.84386 13.0862Z" fill="#FED85D"/>
<path d="M16.8012 9L10.2012 15.6L7.20117 12.6" stroke="#1E1401" stroke-width="1.86667" stroke-linecap="round" stroke-linejoin="round"/>
</svg>
