<svg width="18" height="18" viewBox="0 0 18 18" fill="none" xmlns="http://www.w3.org/2000/svg">
<path d="M5.33178 8.61868L8.6181 5.33236C8.75176 5.1987 8.81859 5.13187 8.89565 5.10684C8.96343 5.08481 9.03645 5.08481 9.10424 5.10684C9.1813 5.13187 9.24812 5.1987 9.38178 5.33236L12.6681 8.61868C12.8018 8.75234 12.8686 8.81917 12.8936 8.89623C12.9157 8.96401 12.9157 9.03703 12.8936 9.10481C12.8686 9.18187 12.8018 9.2487 12.6681 9.38236L9.38178 12.6687C9.24812 12.8023 9.1813 12.8692 9.10424 12.8942C9.03645 12.9162 8.96343 12.9162 8.89565 12.8942C8.81859 12.8692 8.75176 12.8023 8.6181 12.6687L5.33178 9.38236C5.19812 9.2487 5.1313 9.18187 5.10626 9.10481C5.08423 9.03703 5.08423 8.96401 5.10626 8.89623C5.1313 8.81917 5.19812 8.75234 5.33178 8.61868Z" fill="#A1A5B5"/>
<path d="M12.9675 14.4614C11.8143 15.2992 10.4254 15.7505 8.99994 15.7505C7.57448 15.7505 6.18561 15.2992 5.03239 14.4614M11.9589 2.93366C13.2401 3.55854 14.2906 4.57298 14.9598 5.83159C15.6291 7.09019 15.8826 8.52835 15.6843 9.93994M2.3157 9.93987C2.11731 8.52829 2.3709 7.09013 3.04011 5.83152C3.70932 4.57291 4.75981 3.55847 6.041 2.93359M8.6181 5.33236L5.33178 8.61868C5.19812 8.75234 5.1313 8.81917 5.10626 8.89623C5.08423 8.96401 5.08423 9.03703 5.10626 9.10481C5.1313 9.18187 5.19812 9.2487 5.33178 9.38236L8.6181 12.6687C8.75176 12.8023 8.81859 12.8692 8.89565 12.8942C8.96343 12.9162 9.03645 12.9162 9.10424 12.8942C9.1813 12.8692 9.24812 12.8023 9.38178 12.6687L12.6681 9.38236C12.8018 9.2487 12.8686 9.18187 12.8936 9.10481C12.9157 9.03703 12.9157 8.96401 12.8936 8.89623C12.8686 8.81917 12.8018 8.75234 12.6681 8.61868L9.38178 5.33236C9.24812 5.1987 9.1813 5.13187 9.10424 5.10684C9.03645 5.08481 8.96343 5.08481 8.89565 5.10684C8.81859 5.13187 8.75176 5.1987 8.6181 5.33236Z" stroke="#A1A5B5" stroke-width="0.9" stroke-linecap="round" stroke-linejoin="round"/>
</svg>
