<svg width="24" height="25" viewBox="0 0 24 25" fill="none" xmlns="http://www.w3.org/2000/svg">
<path d="M4.50098 17.1672C3.00098 18.4272 2.50098 22.1672 2.50098 22.1672C2.50098 22.1672 6.24098 21.6672 7.50098 20.1672C8.21098 19.3272 8.20098 18.0372 7.41098 17.2572C7.02228 16.8862 6.51027 16.6719 5.9732 16.6553C5.43614 16.6387 4.91185 16.821 4.50098 17.1672Z" fill="#4C4F57"/>
<path d="M12.001 15.6672L9.00098 12.6672C9.53312 11.2867 10.2032 9.9633 11.001 8.71724C12.1662 6.85423 13.7886 5.32029 15.714 4.26133C17.6394 3.20237 19.8036 2.65361 22.001 2.66724C22.001 5.38724 21.221 10.1672 16.001 13.6672C14.7379 14.466 13.3978 15.136 12.001 15.6672Z" fill="#4C4F57"/>
<path d="M9.00098 12.6672H4.00098C4.00098 12.6672 4.55098 9.63724 6.00098 8.66724C7.62098 7.58724 11.001 8.66724 11.001 8.66724" fill="#4C4F57"/>
<path d="M12.001 15.6672V20.6672C12.001 20.6672 15.031 20.1172 16.001 18.6672C17.081 17.0472 16.001 13.6672 16.001 13.6672" fill="#4C4F57"/>
<path d="M12.001 15.6672L9.00098 12.6672M12.001 15.6672C13.3978 15.136 14.7379 14.466 16.001 13.6672M12.001 15.6672V20.6672C12.001 20.6672 15.031 20.1172 16.001 18.6672C17.081 17.0472 16.001 13.6672 16.001 13.6672M9.00098 12.6672C9.53312 11.2867 10.2032 9.9633 11.001 8.71724C12.1662 6.85423 13.7886 5.32029 15.714 4.26133C17.6394 3.20237 19.8036 2.65361 22.001 2.66724C22.001 5.38724 21.221 10.1672 16.001 13.6672M9.00098 12.6672H4.00098C4.00098 12.6672 4.55098 9.63724 6.00098 8.66724C7.62098 7.58724 11.001 8.66724 11.001 8.66724M4.50098 17.1672C3.00098 18.4272 2.50098 22.1672 2.50098 22.1672C2.50098 22.1672 6.24098 21.6672 7.50098 20.1672C8.21098 19.3272 8.20098 18.0372 7.41098 17.2572C7.02228 16.8862 6.51027 16.6719 5.9732 16.6553C5.43614 16.6387 4.91185 16.821 4.50098 17.1672Z" stroke="#101420" stroke-width="1.33333" stroke-linecap="round" stroke-linejoin="round"/>
</svg>
