<svg width="25" height="25" viewBox="0 0 25 25" fill="none" xmlns="http://www.w3.org/2000/svg">
<path d="M9.8348 12.667C12.3201 12.667 14.3348 10.6523 14.3348 8.16699C14.3348 5.68171 12.3201 3.66699 9.8348 3.66699C7.34952 3.66699 5.3348 5.68171 5.3348 8.16699C5.3348 10.6523 7.34952 12.667 9.8348 12.667Z" fill="#4C4F57"/>
<path d="M9.8348 15.667C7.00417 15.667 4.48834 17.2115 2.89403 19.6053C2.54476 20.1297 2.37013 20.392 2.39023 20.7269C2.40589 20.9877 2.57685 21.307 2.78524 21.4646C3.05288 21.667 3.42097 21.667 4.15715 21.667H15.5124C16.2486 21.667 16.6167 21.667 16.8844 21.4646C17.0927 21.307 17.2637 20.9877 17.2794 20.7269C17.2995 20.392 17.1248 20.1297 16.7756 19.6053C15.1813 17.2115 12.6654 15.667 9.8348 15.667Z" fill="#4C4F57"/>
<path d="M18.3348 16.5039C19.7907 17.2352 21.0389 18.4089 21.95 19.8766C22.1305 20.1673 22.2207 20.3126 22.2519 20.5138C22.3153 20.9228 22.0356 21.4255 21.6547 21.5874C21.4673 21.667 21.2565 21.667 20.8348 21.667M16.3348 12.1992C17.8165 11.4629 18.8348 9.93385 18.8348 8.16699C18.8348 6.40013 17.8165 4.8711 16.3348 4.13475M14.3348 8.16699C14.3348 10.6523 12.3201 12.667 9.8348 12.667C7.34952 12.667 5.3348 10.6523 5.3348 8.16699C5.3348 5.68171 7.34952 3.66699 9.8348 3.66699C12.3201 3.66699 14.3348 5.68171 14.3348 8.16699ZM2.89403 19.6053C4.48834 17.2115 7.00417 15.667 9.8348 15.667C12.6654 15.667 15.1813 17.2115 16.7756 19.6053C17.1248 20.1297 17.2995 20.392 17.2794 20.7269C17.2637 20.9877 17.0927 21.307 16.8844 21.4646C16.6167 21.667 16.2486 21.667 15.5124 21.667H4.15715C3.42097 21.667 3.05288 21.667 2.78524 21.4646C2.57685 21.307 2.40589 20.9877 2.39023 20.7269C2.37013 20.392 2.54476 20.1297 2.89403 19.6053Z" stroke="#4C4F57" stroke-width="1.33333" stroke-linecap="round" stroke-linejoin="round"/>
</svg>
