<svg width="24" height="24" viewBox="0 0 24 24" fill="none" xmlns="http://www.w3.org/2000/svg">
<g clip-path="url(#clip0_796_3538)">
<path d="M0.498047 6.00098H2.61937V7.40723H0.498047V6.00098Z" fill="#4C4F57"/>
<path d="M-0.00195312 18.376H7.0293V24.0009H-0.00195312V18.376Z" fill="#4C4F57"/>
<path d="M16.9668 15.2979H23.998V24.001H16.9668V15.2979Z" fill="#4C4F57"/>
<path d="M15.5605 13.9883C14.4846 14.5168 13.2755 14.814 11.998 14.814C10.7206 14.814 9.51147 14.5167 8.43555 13.9883V24.0015H15.5605V13.9883Z" fill="#4C4F57"/>
<path d="M2.99431 2.20703L2 3.20139L3.5 4.70139C3.5 4.70139 4.46122 3.70952 4.47144 3.68416L2.99431 2.20703Z" fill="#4C4F57"/>
<path d="M3.5 8.70703L2 10.207L2.99436 11.2014L4.47144 9.72431C4.46122 9.69891 3.5 8.70703 3.5 8.70703Z" fill="#4C4F57"/>
<path d="M20.4949 4.70139L21.9949 3.20139L21.0006 2.20703L19.5234 3.68416C19.5337 3.70952 20.4949 4.70139 20.4949 4.70139Z" fill="#4C4F57"/>
<path d="M21.0005 11.2014L21.9949 10.207L20.4949 8.70703C20.4949 8.70703 19.5337 9.69891 19.5234 9.72427L21.0005 11.2014Z" fill="#4C4F57"/>
<path d="M21.375 6.00098H23.4963V7.40723H21.375V6.00098Z" fill="#4C4F57"/>
<path d="M11.998 13.4072C15.6942 13.4072 18.7012 10.4002 18.7012 6.7041C18.7012 3.00796 15.6942 0.000976562 11.998 0.000976562C8.30191 0.000976562 5.29492 3.00796 5.29492 6.7041C5.29492 10.4002 8.30195 13.4072 11.998 13.4072ZM10.7462 3.39384H12.7012V9.45407H11.2949V4.80009H10.7461L10.7462 3.39384Z" fill="#4C4F57"/>
</g>
<defs>
<clipPath id="clip0_796_3538">
<rect width="24" height="24" fill="white" transform="translate(-0.00195312 0.000976562)"/>
</clipPath>
</defs>
</svg>
