<svg width="62" height="8" viewBox="0 0 62 8" fill="none" xmlns="http://www.w3.org/2000/svg">
<path d="M26.6295 5.20054H30.6889L28.5447 1.73785L24.6025 7.992H22.8099L27.6044 0.488623C27.7089 0.338896 27.8478 0.216396 28.0094 0.131387C28.171 0.0463771 28.3506 0.0013334 28.5332 2.91544e-05C28.7158 -0.00127509 28.8961 0.0411981 29.0589 0.12389C29.2217 0.206583 29.3623 0.327086 29.4689 0.475305L34.2767 7.992H32.4841L31.6398 6.59361H27.5325L26.6375 5.20054H26.6295ZM45.2641 6.59361V0.0757645H43.7405V7.23554C43.7402 7.33503 43.7602 7.43355 43.7991 7.52512C43.838 7.61669 43.8951 7.6994 43.9669 7.76826C44.039 7.84204 44.1252 7.90057 44.2204 7.94038C44.3156 7.98019 44.4178 8.00046 44.521 7.99999H51.4463L52.3493 6.6016H45.2561L45.2641 6.59361ZM20.0744 5.42961C20.7843 5.42961 21.4652 5.14758 21.9673 4.64556C22.4693 4.14354 22.7513 3.46265 22.7513 2.75269C22.7513 2.04272 22.4693 1.36184 21.9673 0.859817C21.4652 0.357797 20.7843 0.0757645 20.0744 0.0757645H13.4154V7.992H14.9363V1.47682H19.9812C20.321 1.47682 20.6468 1.6118 20.8871 1.85207C21.1274 2.09234 21.2624 2.41822 21.2624 2.75802C21.2624 3.09781 21.1274 3.42369 20.8871 3.66396C20.6468 3.90423 20.321 4.03921 19.9812 4.03921H15.6901L20.2342 7.992H22.4423L19.3898 5.42961H20.0744ZM4.06079 7.992H8.66084C9.69247 7.96523 10.6729 7.53661 11.393 6.79749C12.1132 6.05837 12.5163 5.06719 12.5163 4.03521C12.5163 3.00324 12.1132 2.01206 11.393 1.27294C10.6729 0.533817 9.69247 0.105197 8.66084 0.0784281H4.06079C3.53254 0.0647212 3.00689 0.156929 2.51484 0.349613C2.0228 0.542298 1.57431 0.831558 1.19584 1.20034C0.817373 1.56911 0.516577 2.00994 0.311194 2.49682C0.105811 2.98371 0 3.50679 0 4.03521C0 4.56364 0.105811 5.08672 0.311194 5.57361C0.516577 6.06049 0.817373 6.50132 1.19584 6.87009C1.57431 7.23887 2.0228 7.52813 2.51484 7.72082C3.00689 7.9135 3.53254 8.00571 4.06079 7.992ZM8.55695 6.59894H4.162C3.49707 6.57749 2.86654 6.29827 2.40375 5.82032C1.94097 5.34237 1.68222 4.70316 1.68222 4.03788C1.68222 3.37259 1.94097 2.73339 2.40375 2.25544C2.86654 1.77749 3.49707 1.49827 4.162 1.47682H8.55695C8.90023 1.46575 9.24222 1.5238 9.56261 1.64752C9.88301 1.77124 10.1753 1.95811 10.422 2.19702C10.6687 2.43593 10.8649 2.72201 10.9989 3.03824C11.1329 3.35448 11.2019 3.69443 11.2019 4.03788C11.2019 4.38133 11.1329 4.72128 10.9989 5.03751C10.8649 5.35375 10.6687 5.63982 10.422 5.87873C10.1753 6.11764 9.88301 6.30451 9.56261 6.42823C9.24222 6.55196 8.90023 6.61001 8.55695 6.59894ZM37.4544 7.992H42.1503L43.04 6.59894H37.5583C37.215 6.61001 36.873 6.55196 36.5526 6.42823C36.2322 6.30451 35.94 6.11764 35.6932 5.87873C35.4465 5.63982 35.2503 5.35375 35.1163 5.03751C34.9823 4.72128 34.9133 4.38133 34.9133 4.03788C34.9133 3.69443 34.9823 3.35448 35.1163 3.03824C35.2503 2.72201 35.4465 2.43593 35.6932 2.19702C35.94 1.95811 36.2322 1.77124 36.5526 1.64752C36.873 1.5238 37.215 1.46575 37.5583 1.47682H42.0198L42.9201 0.0784281H37.4544C36.9262 0.0647212 36.4005 0.156929 35.9085 0.349613C35.4164 0.542298 34.9679 0.831558 34.5895 1.20034C34.211 1.56911 33.9102 2.00994 33.7048 2.49682C33.4994 2.98371 33.3936 3.50679 33.3936 4.03521C33.3936 4.56364 33.4994 5.08672 33.7048 5.57361C33.9102 6.06049 34.211 6.50132 34.5895 6.87009C34.9679 7.23887 35.4164 7.52813 35.9085 7.72082C36.4005 7.9135 36.9262 8.00571 37.4544 7.992ZM56.065 6.59894C55.5069 6.59915 54.964 6.41715 54.5189 6.08062C54.0737 5.74408 53.7505 5.2714 53.5985 4.73441H60.103L60.998 3.33868H53.5985C53.7501 2.80147 54.0732 2.32854 54.5184 1.99194C54.9637 1.65533 55.5068 1.47351 56.065 1.47416H60.5292L61.4215 0.0757645H55.9611C54.9295 0.102533 53.9491 0.531154 53.2289 1.27028C52.5087 2.0094 52.1057 3.00057 52.1057 4.03255C52.1057 5.06453 52.5087 6.0557 53.2289 6.79483C53.9491 7.53395 54.9295 7.96257 55.9611 7.98934H60.6571L61.5494 6.59627H56.0624" fill="#B94F3C"/>
</svg>
