<svg width="36" height="36" viewBox="0 0 36 36" fill="none" xmlns="http://www.w3.org/2000/svg">
<path fill-rule="evenodd" clip-rule="evenodd" d="M10.206 0H25.812C31.914 0 36 4.284 36 10.656V25.3638C36 31.7178 31.914 36 25.812 36H10.206C4.104 36 0 31.7178 0 25.3638V10.656C0 4.284 4.104 0 10.206 0ZM23.4179 23.4001C24.0299 22.7899 24.0299 21.7999 23.4179 21.1879L20.2139 17.9839L23.4179 14.7781C24.0299 14.1679 24.0299 13.1599 23.4179 12.5479C22.8059 11.9341 21.8159 11.9341 21.1859 12.5479L17.9999 15.7501L14.7959 12.5479C14.1659 11.9341 13.1759 11.9341 12.5639 12.5479C11.9519 13.1599 11.9519 14.1679 12.5639 14.7781L15.7679 17.9839L12.5639 21.1699C11.9519 21.7999 11.9519 22.7899 12.5639 23.4001C12.8699 23.7061 13.2839 23.8699 13.6799 23.8699C14.0939 23.8699 14.4899 23.7061 14.7959 23.4001L17.9999 20.2159L21.2039 23.4001C21.5099 23.7259 21.9059 23.8699 22.3019 23.8699C22.7159 23.8699 23.1119 23.7061 23.4179 23.4001Z" fill="white"/>
</svg>
