<svg width="64" height="64" fill="none" xmlns="http://www.w3.org/2000/svg"><path d="M24.638 44.969V27.68h-5.741v17.288h5.742Zm-2.87-19.648c2.002 0 3.249-1.328 3.249-2.987-.038-1.697-1.247-2.987-3.21-2.987-1.965 0-3.248 1.29-3.248 2.987 0 1.659 1.245 2.986 3.172 2.986h.037Zm6.048 19.648h5.74v-9.654c0-.516.038-1.033.19-1.402.415-1.032 1.36-2.101 2.946-2.101 2.077 0 2.908 1.585 2.908 3.91v9.247h5.74v-9.913c0-5.31-2.831-7.78-6.608-7.78-3.097 0-4.457 1.732-5.213 2.912h.038V27.68h-5.74c.074 1.622-.001 17.288-.001 17.288Z" fill="#fff"/></svg>