<svg width="1920" height="983" fill="none" xmlns="http://www.w3.org/2000/svg"><path d="M78.162 877.91c-93.576 0-142.035-85.778-112.514-204.419S85.96 469.072 173.966 469.072c51.801 0 76.866 7.241 86.892 33.42 3.342 8.912 11.697 38.99 11.14 49.573 0 10.583-7.241 14.482-15.596 0-25.065-45.674-49.016-64.055-87.449-64.055-62.941 0-126.439 71.853-154.846 185.481-28.407 113.628.557 185.481 69.068 185.481 38.433 0 71.296-18.381 119.755-64.055 15.039-14.482 20.052-10.583 15.596 0-5.013 10.583-28.964 40.661-36.762 49.573-22.28 26.179-51.801 33.42-103.602 33.42Zm269.283-.557c-31.749 0-10.026-46.231 23.394-46.231 55.143 0 90.234-53.472 90.234-168.214 0-32.306-8.355-46.788-25.065-46.788-47.902 0-151.504 157.631-176.569 231.712-16.153 46.231-47.345 32.863-40.104-6.684 34.534-180.468 132.009-382.102 322.503-382.102 15.596 0 22.28 9.469 17.824 23.394-4.456 14.482-15.039 23.951-34.534 23.951-211.66 0-219.458 135.908-240.624 226.142-2.228 10.583 3.899 11.697 8.912 5.013 62.941-78.537 128.667-160.973 168.214-160.973 28.964 0 46.231 17.267 46.231 49.573 0 109.729-98.589 251.207-160.416 251.207Zm151.178-.557c-22.28 0-41.218-15.039-41.218-41.775 0-81.879 142.592-221.686 228.927-236.725 21.166-3.899 27.85-10.026 44.003-21.166 20.052-13.925 34.534-5.013 34.534 7.241 0 8.355-9.469 30.635-82.993 224.471-5.57 15.039-2.785 29.521 9.469 29.521 16.153 0 39.547-26.179 57.371-49.016 3.899-5.013 12.254-2.228 7.798 5.57-16.153 27.85-65.169 81.879-98.589 81.879-21.166 0-35.648-21.723-12.254-71.853 3.342-6.684 10.583-22.28 13.925-29.521 5.57-12.254-2.228-18.938-12.254-7.241-12.254 13.368-36.762 38.433-56.814 56.814-40.661 37.319-70.182 51.801-91.905 51.801Zm26.179-38.433c69.625 0 184.367-162.087 184.367-202.191 0-10.583-10.583-21.166-26.179-21.166-89.12 0-178.24 146.491-178.24 199.406 0 13.925 8.355 23.951 20.052 23.951Zm419.935 35.648c-18.381 8.355-35.648 1.114-16.153-44.003 69.068-162.087 78.536-186.038 78.536-197.178 0-8.912-5.57-12.254-12.253-12.254-42.332 0-156.517 153.175-187.709 226.699-21.723 51.244-52.915 36.205-32.306-18.381 60.156-160.973 58.485-184.924 58.485-196.064 0-8.912-7.241-12.254-12.254-12.254-18.381 0-47.902 40.661-63.498 56.257-5.013 5.57-11.14 2.785-6.684-4.456 12.811-22.837 67.397-95.804 108.058-95.804 20.609 0 30.635 20.052 16.153 70.739-6.684 23.394-18.938 52.358-32.306 83.55-2.785 6.684 1.671 11.14 7.798 6.684 17.824-14.482 37.876-38.433 43.446-45.674 26.179-32.863 98.032-115.299 138.69-115.299 20.61 0 30.64 20.052 10.03 68.511-20.61 46.788-45.675 102.488-70.183 166.543-12.254 32.306 22.837 17.824 48.463-3.342 19.49-15.596 23.95-2.785 8.91 11.697-31.194 30.078-64.614 45.117-85.223 54.029Zm131.613 108.058c-44 0-71.3-19.495-62.38-54.029 3.89-16.71 13.36-29.521 23.95-40.104 9.47-9.469 9.47-13.368 2.22-21.166-7.24-8.355-8.91-18.381-5.57-30.078 6.13-24.508 31.75-50.13 62.95-64.055 12.81-5.57 15.03-11.14 7.79-18.938-13.92-13.925-23.95-41.218-15.59-74.081 15.04-59.599 70.18-105.83 128.11-105.83 28.96 0 50.68 12.811 61.82 33.42 5.57 9.469 15.6 3.899 36.77-12.811 19.49-15.596 36.2-20.609 47.9-20.609 12.81 0 18.94 9.469 13.37 23.951-6.13 14.482-16.71 22.28-38.44 22.837-12.81.557-27.29-4.456-37.87 1.114-10.03 5.013-11.7 20.609-12.26 30.635-.55 6.684-1.67 13.925-3.34 21.166-15.04 59.042-70.18 105.273-139.25 105.273-45.67 0-79.65 17.824-85.78 41.775-3.9 14.482 3.9 23.951 18.94 23.951 30.08 0 99.15-35.648 159.3-35.648 46.23 0 66.84 22.28 58.49 56.257-17.83 72.41-140.92 116.97-221.13 116.97Zm37.88-27.85c101.37 0 137.57-33.42 146.49-69.068 7.24-29.521-13.93-44.56-64.62-44.56-86.33 0-133.68 22.28-145.37 69.625-7.24 27.85 16.71 44.003 63.5 44.003Zm51.8-189.937c37.32 0 66.84-39.547 79.09-88.563 11.7-48.459 2.23-88.006-35.09-88.006-37.88 0-67.4 39.547-79.09 88.006-12.26 49.016-2.79 88.563 35.09 88.563Zm213.49 113.071c-67.95 0-100.81-49.573-72.41-138.693 32.87-103.045 110.29-164.872 171.56-164.872 75.75 0 86.89 92.462 4.45 113.071l-114.74 28.407c-11.14 2.785-18.94 10.026-21.16 21.723-16.16 67.954 7.24 107.501 51.24 106.944 36.21-.557 60.16-25.622 76.87-51.244 11.14-17.824 19.49-10.026 8.35 7.241-31.75 50.687-72.97 77.423-104.16 77.423Zm60.16-197.735c31.19-11.697 48.46-36.762 49.57-59.042 1.67-21.723-12.25-28.964-26.18-28.964-32.3 0-65.72 27.293-87.45 69.068-18.93 40.661 19.5 35.091 64.06 18.938Zm123.62 194.393c-17.26 8.355-31.75 1.114-13.92-42.889 65.72-163.201 72.96-187.152 71.85-198.292-1.11-8.912-8.91-12.254-13.92-12.254-18.39 0-54.59 40.661-68.52 56.257-4.45 5.57-10.58 2.785-7.24-4.456 10.59-22.837 68.51-95.804 109.18-95.804 20.6 0 32.86 20.052 17.26 68.511-8.91 25.622-18.38 54.586-28.4 85.778-2.23 6.684 4.45 12.811 7.24 6.684 38.43-74.081 101.93-165.986 143.7-165.986 17.27 0 32.87 10.583 35.65 35.091 3.34 31.749-22.28 51.244-33.98 51.244-11.69 0-6.12-37.319-26.73-37.319-61.27 0-125.88 153.175-171.56 230.041-6.13 10.026-10.02 18.381-20.61 23.394Zm205.9 2.785c-64.61 0-62.94-64.612-32.31-64.612 23.96 0 44.56 38.433 72.97 38.433 26.18 0 45.12-16.71 47.35-47.345 3.9-42.889-42.89-94.69-39.55-133.68 6.68-70.739 65.17-99.703 98.03-99.703 66.28 0 54.59 66.84 27.29 66.84-18.38 0-21.72-49.573-52.91-49.573-20.61 0-35.65 20.052-36.76 35.091-4.46 47.345 45.11 106.944 40.66 156.517-6.69 76.309-82.44 98.032-124.77 98.032Zm-602.6-632.53 3.97.516c-.43 2.74-1.55 4.889-3.34 6.447-1.79 1.542-3.98 2.313-6.59 2.313-3.26 0-5.89-1.063-7.88-3.189-1.98-2.142-2.96-5.204-2.96-9.187 0-2.576.42-4.829 1.28-6.761.85-1.931 2.14-3.376 3.88-4.335 1.75-.973 3.66-1.46 5.71-1.46 2.59 0 4.71.659 6.35 1.977 1.65 1.303 2.71 3.159 3.17 5.57l-3.93.607c-.37-1.603-1.04-2.808-2-3.617-.94-.808-2.09-1.212-3.44-1.212-2.03 0-3.69.733-4.96 2.201-1.27 1.452-1.91 3.758-1.91 6.918 0 3.204.62 5.533 1.84 6.985 1.23 1.453 2.83 2.179 4.81 2.179 1.59 0 2.91-.487 3.98-1.46 1.06-.973 1.73-2.471 2.02-4.492Zm5.13 8.737v-32.928h4.04v11.815c1.89-2.187 4.27-3.28 7.15-3.28 1.76 0 3.3.352 4.6 1.056 1.3.689 2.23 1.647 2.79 2.875.57 1.228.85 3.01.85 5.346v15.116h-4.04v-15.116c0-2.022-.44-3.489-1.33-4.403-.87-.928-2.1-1.392-3.7-1.392-1.2 0-2.33.314-3.4.943-1.04.614-1.79 1.453-2.24 2.516-.45 1.063-.68 2.53-.68 4.402v13.05h-4.04Zm38.87-2.942c-1.5 1.272-2.94 2.171-4.33 2.695-1.38.524-2.86.786-4.45.786-2.62 0-4.63-.636-6.04-1.909-1.41-1.288-2.11-2.928-2.11-4.919 0-1.168.26-2.231.78-3.19.54-.973 1.24-1.752 2.09-2.336a9.985 9.985 0 0 1 2.92-1.325c.8-.209 1.99-.412 3.6-.606 3.26-.389 5.66-.854 7.21-1.393.01-.554.02-.906.02-1.055 0-1.648-.38-2.808-1.15-3.482-1.03-.913-2.57-1.37-4.6-1.37-1.9 0-3.31.337-4.22 1.011-.9.659-1.57 1.834-2 3.526l-3.96-.539c.36-1.692.95-3.055 1.78-4.088.82-1.048 2.01-1.849 3.57-2.403 1.56-.569 3.36-.854 5.41-.854 2.04 0 3.69.24 4.97.719 1.27.479 2.2 1.086 2.8 1.819.6.719 1.02 1.633 1.26 2.741.14.688.2 1.931.2 3.728v5.391c0 3.758.09 6.139.25 7.142.18.989.52 1.94 1.03 2.853h-4.22c-.42-.839-.69-1.819-.81-2.942Zm-.33-9.03c-1.47.599-3.67 1.108-6.61 1.528-1.66.239-2.84.509-3.52.808-.69.3-1.23.741-1.6 1.325a3.433 3.433 0 0 0-.56 1.91c0 1.078.4 1.976 1.21 2.695.83.719 2.02 1.078 3.6 1.078 1.55 0 2.94-.337 4.15-1.011 1.21-.689 2.1-1.624 2.67-2.807.44-.914.66-2.261.66-4.043v-1.483Zm8.07 11.972v-23.854h3.64v3.392c1.75-2.62 4.28-3.931 7.59-3.931 1.44 0 2.76.262 3.96.786 1.21.51 2.11 1.183 2.71 2.022.6.839 1.02 1.834 1.26 2.987.15.749.23 2.059.23 3.931v14.667h-4.05v-14.51c0-1.647-.15-2.875-.47-3.683-.31-.824-.87-1.475-1.68-1.955-.8-.494-1.73-.741-2.81-.741-1.72 0-3.21.547-4.47 1.64-1.24 1.093-1.86 3.167-1.86 6.222v13.027h-4.05Zm22.57 1.976 3.93.584c.16 1.213.62 2.097 1.37 2.651 1 .749 2.37 1.123 4.11 1.123 1.87 0 3.31-.374 4.33-1.123s1.71-1.797 2.07-3.145c.21-.823.31-2.553.29-5.188-1.77 2.081-3.97 3.122-6.6 3.122-3.28 0-5.82-1.183-7.62-3.549-1.79-2.366-2.69-5.203-2.69-8.513 0-2.276.41-4.372 1.23-6.289.83-1.931 2.02-3.421 3.57-4.469 1.58-1.049 3.42-1.573 5.53-1.573 2.81 0 5.14 1.138 6.96 3.414v-2.875h3.73v20.62c0 3.713-.38 6.341-1.14 7.883-.75 1.558-1.95 2.786-3.6 3.684-1.63.898-3.64 1.348-6.04 1.348-2.85 0-5.14-.644-6.9-1.932-1.75-1.273-2.59-3.197-2.53-5.773Zm3.34-14.33c0 3.13.62 5.413 1.87 6.851 1.24 1.438 2.8 2.156 4.67 2.156 1.86 0 3.41-.711 4.67-2.134 1.26-1.437 1.89-3.683 1.89-6.738 0-2.92-.65-5.121-1.96-6.603-1.28-1.483-2.84-2.224-4.67-2.224-1.79 0-3.32.734-4.58 2.201-1.26 1.453-1.89 3.616-1.89 6.491Zm37.03 4.672 4.18.517c-.66 2.441-1.88 4.335-3.66 5.683-1.78 1.347-4.06 2.021-6.83 2.021-3.49 0-6.26-1.071-8.31-3.212-2.04-2.156-3.05-5.173-3.05-9.052 0-4.013 1.03-7.127 3.1-9.343 2.06-2.217 4.74-3.325 8.04-3.325 3.19 0 5.79 1.086 7.81 3.257 2.02 2.171 3.03 5.226 3.03 9.164 0 .24 0 .599-.02 1.078h-17.79c.15 2.621.89 4.627 2.23 6.02 1.33 1.392 2.99 2.089 4.98 2.089 1.49 0 2.75-.39 3.8-1.168 1.05-.779 1.88-2.022 2.49-3.729Zm-13.27-6.536h13.32c-.18-2.006-.69-3.511-1.53-4.514-1.29-1.558-2.96-2.336-5.01-2.336-1.86 0-3.42.621-4.69 1.864-1.26 1.243-1.96 2.905-2.09 4.986Zm-68.96 53.954c-7.73 0-11.73-7.084-9.29-16.882 2.43-9.798 9.93-16.882 17.2-16.882 4.28 0 6.35.598 7.18 2.76.27.736.96 3.22.92 4.094 0 .874-.6 1.196-1.29 0-2.07-3.772-4.05-5.29-7.22-5.29-5.2 0-10.45 5.934-12.79 15.318-2.35 9.384.04 15.318 5.7 15.318 3.18 0 5.89-1.518 9.89-5.29 1.24-1.196 1.66-.874 1.29 0-.41.874-2.39 3.358-3.04 4.094-1.84 2.162-4.27 2.76-8.55 2.76Zm22.24-.046c-2.63 0-.83-3.818 1.93-3.818 4.55 0 7.45-4.416 7.45-13.892 0-2.668-.69-3.864-2.07-3.864-3.96 0-12.51 13.018-14.58 19.136-1.34 3.818-3.91 2.714-3.31-.552 2.85-14.904 10.9-31.556 26.63-31.556 1.29 0 1.84.782 1.47 1.932-.37 1.196-1.24 1.978-2.85 1.978-17.48 0-18.12 11.224-19.87 18.676-.19.874.32.966.73.414 5.2-6.486 10.63-13.294 13.9-13.294 2.39 0 3.81 1.426 3.81 4.094 0 9.062-8.14 20.746-13.24 20.746Zm13.4-.046c-1.84 0-3.4-1.242-3.4-3.45 0-6.762 11.77-18.308 18.9-19.55 1.75-.322 2.3-.828 3.64-1.748 1.65-1.15 2.85-.414 2.85.598 0 .69-.78 2.53-6.85 18.538-.46 1.242-.23 2.438.78 2.438 1.33 0 3.26-2.162 4.74-4.048.32-.414 1.01-.184.64.46-1.33 2.3-5.38 6.762-8.14 6.762-1.75 0-2.95-1.794-1.01-5.934.27-.552.87-1.84 1.15-2.438.46-1.012-.19-1.564-1.02-.598a87.223 87.223 0 0 1-4.69 4.692c-3.36 3.082-5.79 4.278-7.59 4.278Zm2.16-3.174c5.75 0 15.23-13.386 15.23-16.698 0-.874-.87-1.748-2.16-1.748-7.36 0-14.72 12.098-14.72 16.468 0 1.15.69 1.978 1.65 1.978Zm34.68 2.944c-1.51.69-2.94.092-1.33-3.634 5.7-13.386 6.49-15.364 6.49-16.284 0-.736-.46-1.012-1.02-1.012-3.49 0-12.92 12.65-15.5 18.722-1.79 4.232-4.37 2.99-2.67-1.518 4.97-13.294 4.83-15.272 4.83-16.192 0-.736-.59-1.012-1.01-1.012-1.52 0-3.95 3.358-5.24 4.646-.42.46-.92.23-.55-.368 1.05-1.886 5.56-7.912 8.92-7.912 1.7 0 2.53 1.656 1.33 5.842-.55 1.932-1.56 4.324-2.66 6.9-.23.552.13.92.64.552 1.47-1.196 3.13-3.174 3.59-3.772 2.16-2.714 8.09-9.522 11.45-9.522 1.7 0 2.53 1.656.83 5.658-1.7 3.864-3.77 8.464-5.8 13.754-1.01 2.668 1.89 1.472 4.01-.276 1.61-1.288 1.97-.23.73.966-2.57 2.484-5.33 3.726-7.04 4.462Zm9.95 8.924c-3.63 0-5.88-1.61-5.15-4.462.32-1.38 1.11-2.438 1.98-3.312.78-.782.78-1.104.18-1.748-.59-.69-.73-1.518-.46-2.484.51-2.024 2.63-4.14 5.2-5.29 1.06-.46 1.24-.92.65-1.564-1.15-1.15-1.98-3.404-1.29-6.118 1.24-4.922 5.79-8.74 10.58-8.74 2.39 0 4.18 1.058 5.1 2.76.46.782 1.29.322 3.04-1.058 1.61-1.288 2.99-1.702 3.96-1.702 1.05 0 1.56.782 1.1 1.978-.51 1.196-1.38 1.84-3.17 1.886-1.06.046-2.26-.368-3.13.092-.83.414-.97 1.702-1.01 2.53-.05.552-.14 1.15-.28 1.748-1.24 4.876-5.8 8.694-11.5 8.694-3.77 0-6.58 1.472-7.08 3.45-.33 1.196.32 1.978 1.56 1.978 2.48 0 8.19-2.944 13.16-2.944 3.81 0 5.52 1.84 4.83 4.646-1.48 5.98-11.64 9.66-18.27 9.66Zm3.13-2.3c8.37 0 11.36-2.76 12.1-5.704.6-2.438-1.15-3.68-5.34-3.68-7.13 0-11.04 1.84-12 5.75-.6 2.3 1.38 3.634 5.24 3.634Zm4.28-15.686c3.08 0 5.52-3.266 6.53-7.314.97-4.002.19-7.268-2.9-7.268-3.12 0-5.56 3.266-6.53 7.268-1.01 4.048-.23 7.314 2.9 7.314Zm14.23 9.292c-1.71 0-2.49-1.656-.65-5.658 1.84-3.864 4.05-8.464 6.26-13.754 1.1-2.668-1.84-1.472-4 .276-1.66 1.288-1.98.23-.69-.966 2.66-2.484 5.47-3.726 7.17-4.462 1.57-.69 2.95-.092 1.2 3.634-6.17 13.386-6.58 15.364-6.63 16.284 0 .736.56 1.012.97 1.012 1.52 0 4.6-3.358 5.93-4.646.42-.46.92-.23.56.368-1.15 1.886-6.77 7.912-10.12 7.912Zm10.99-27.83c-1.43 0-2.53-1.104-2.53-2.53 0-1.38 1.1-2.484 2.53-2.484a2.47 2.47 0 0 1 2.48 2.484c0 1.426-1.1 2.53-2.48 2.53Zm14.09 27.6c-1.52.69-2.95.092-1.34-3.634 5.71-13.386 6.49-15.364 6.49-16.284 0-.736-.46-1.012-1.01-1.012-3.5 0-12.93 12.65-15.5 18.722-1.8 4.232-4.37 2.99-2.67-1.518 4.97-13.294 4.83-15.272 4.83-16.192 0-.736-.6-1.012-1.01-1.012-1.52 0-3.96 3.358-5.25 4.646-.41.46-.92.23-.55-.368 1.06-1.886 5.57-7.912 8.92-7.912 1.71 0 2.53 1.656 1.34 5.842-.55 1.932-1.57 4.324-2.67 6.9-.23.552.14.92.64.552 1.48-1.196 3.13-3.174 3.59-3.772 2.16-2.714 8.1-9.522 11.46-9.522 1.7 0 2.53 1.656.82 5.658-1.7 3.864-3.77 8.464-5.79 13.754-1.01 2.668 1.88 1.472 4-.276 1.61-1.288 1.98-.23.74.966-2.58 2.484-5.34 3.726-7.04 4.462Zm9.95 8.924c-3.64 0-5.89-1.61-5.15-4.462.32-1.38 1.1-2.438 1.97-3.312.79-.782.79-1.104.19-1.748-.6-.69-.74-1.518-.46-2.484.5-2.024 2.62-4.14 5.2-5.29 1.05-.46 1.24-.92.64-1.564-1.15-1.15-1.98-3.404-1.29-6.118 1.24-4.922 5.8-8.74 10.58-8.74 2.39 0 4.19 1.058 5.11 2.76.46.782 1.29.322 3.03-1.058 1.61-1.288 2.99-1.702 3.96-1.702 1.06 0 1.56.782 1.1 1.978-.5 1.196-1.38 1.84-3.17 1.886-1.06.046-2.25-.368-3.13.092-.83.414-.96 1.702-1.01 2.53-.05.552-.14 1.15-.28 1.748-1.24 4.876-5.79 8.694-11.5 8.694-3.77 0-6.57 1.472-7.08 3.45-.32 1.196.32 1.978 1.56 1.978 2.49 0 8.19-2.944 13.16-2.944 3.82 0 5.52 1.84 4.83 4.646-1.47 5.98-11.64 9.66-18.26 9.66Zm3.13-2.3c8.37 0 11.36-2.76 12.09-5.704.6-2.438-1.15-3.68-5.33-3.68-7.13 0-11.04 1.84-12.01 5.75-.6 2.3 1.38 3.634 5.25 3.634Zm4.27-15.686c3.09 0 5.52-3.266 6.54-7.314.96-4.002.18-7.268-2.9-7.268-3.13 0-5.57 3.266-6.53 7.268-1.02 4.048-.23 7.314 2.89 7.314Zm-102.15-67.352c-1.34 0-1.25-.874.23-1.012 2.71-.276 3.91-1.288 4.64-3.726.55-1.748 1.52-5.428 2.9-10.994 1.2-4.738 2.58-10.534 2.81-11.73.46-2.438-.28-3.45-2.81-3.726-1.38-.138-1.1-1.012.23-1.012 1.89 0 3.5.322 5.34.322 2.8 0 5.38-.322 7.82-.322 8.92 0 12.83 5.75 10.25 16.1-2.8 11.27-9.66 16.1-19.55 16.1-.73 0-4.32-.322-6.44-.322-1.84 0-3.54.322-5.42.322Zm13.84-.828c8.33-.46 12.74-10.258 13.99-15.272 2.16-8.602-.83-15.18-7.96-15.18-1.66 0-4.88.322-5.8 3.772-.64 2.438-2.21 8.05-3.13 11.776-1.33 5.336-2.11 8.878-2.57 11.04-.69 3.312 2.21 4.048 5.47 3.864Zm23.26 1.518c-5.61 0-8.32-4.094-5.98-11.454 2.72-8.51 9.11-13.616 14.17-13.616 6.26 0 7.18 7.636.37 9.338l-9.48 2.346c-.92.23-1.56.828-1.75 1.794-1.33 5.612.6 8.878 4.24 8.832 2.99-.046 4.96-2.116 6.34-4.232.92-1.472 1.61-.828.69.598-2.62 4.186-6.02 6.394-8.6 6.394Zm4.97-16.33c2.58-.966 4-3.036 4.09-4.876.14-1.794-1.01-2.392-2.16-2.392-2.67 0-5.43 2.254-7.22 5.704-1.56 3.358 1.61 2.898 5.29 1.564Zm6.85 16.284c-5.33 0-5.2-5.336-2.67-5.336 1.98 0 3.68 3.174 6.03 3.174 2.16 0 3.73-1.38 3.91-3.91.32-3.542-3.54-7.82-3.27-11.04.56-5.842 5.39-8.234 8.1-8.234 5.47 0 4.51 5.52 2.25 5.52-1.51 0-1.79-4.094-4.37-4.094-1.7 0-2.94 1.656-3.03 2.898-.37 3.91 3.72 8.832 3.36 12.926-.56 6.302-6.81 8.096-10.31 8.096Zm14.32 0c-1.7 0-2.48-1.656-.64-5.658 1.84-3.864 4.04-8.464 6.25-13.754 1.11-2.668-1.84-1.472-4 .276-1.66 1.288-1.98.23-.69-.966 2.67-2.484 5.47-3.726 7.18-4.462 1.56-.69 2.94-.092 1.19 3.634-6.16 13.386-6.58 15.364-6.62 16.284 0 .736.55 1.012.96 1.012 1.52 0 4.6-3.358 5.94-4.646.41-.46.92-.23.55.368-1.15 1.886-6.76 7.912-10.12 7.912Zm10.99-27.83a2.498 2.498 0 0 1-2.53-2.53c0-1.38 1.11-2.484 2.53-2.484 1.38 0 2.49 1.104 2.49 2.484 0 1.426-1.11 2.53-2.49 2.53Zm.06 36.524c-3.63 0-5.89-1.61-5.15-4.462.32-1.38 1.1-2.438 1.98-3.312.78-.782.78-1.104.18-1.748-.6-.69-.73-1.518-.46-2.484.51-2.024 2.62-4.14 5.2-5.29 1.06-.46 1.24-.92.64-1.564-1.15-1.15-1.97-3.404-1.28-6.118 1.24-4.922 5.79-8.74 10.58-8.74 2.39 0 4.18 1.058 5.1 2.76.46.782 1.29.322 3.04-1.058 1.61-1.288 2.99-1.702 3.95-1.702 1.06 0 1.57.782 1.11 1.978-.51 1.196-1.38 1.84-3.18 1.886-1.05.046-2.25-.368-3.12.092-.83.414-.97 1.702-1.02 2.53-.04.552-.13 1.15-.27 1.748-1.24 4.876-5.8 8.694-11.5 8.694-3.77 0-6.58 1.472-7.09 3.45-.32 1.196.33 1.978 1.57 1.978 2.48 0 8.19-2.944 13.15-2.944 3.82 0 5.52 1.84 4.83 4.646-1.47 5.98-11.63 9.66-18.26 9.66Zm3.13-2.3c8.37 0 11.36-2.76 12.1-5.704.6-2.438-1.15-3.68-5.34-3.68-7.13 0-11.04 1.84-12 5.75-.6 2.3 1.38 3.634 5.24 3.634Zm4.28-15.686c3.08 0 5.52-3.266 6.53-7.314.97-4.002.18-7.268-2.9-7.268-3.13 0-5.56 3.266-6.53 7.268-1.01 4.048-.23 7.314 2.9 7.314Zm28.67 9.062c-1.52.69-2.94.092-1.33-3.634 5.7-13.386 6.48-15.364 6.48-16.284 0-.736-.46-1.012-1.01-1.012-3.5 0-12.93 12.65-15.5 18.722-1.8 4.232-4.37 2.99-2.67-1.518 4.97-13.294 4.83-15.272 4.83-16.192 0-.736-.6-1.012-1.01-1.012-1.52 0-3.96 3.358-5.25 4.646-.41.46-.92.23-.55-.368 1.06-1.886 5.57-7.912 8.93-7.912 1.7 0 2.53 1.656 1.33 5.842-.55 1.932-1.56 4.324-2.67 6.9-.23.552.14.92.65.552 1.47-1.196 3.12-3.174 3.58-3.772 2.17-2.714 8.1-9.522 11.46-9.522 1.7 0 2.53 1.656.83 5.658-1.71 3.864-3.78 8.464-5.8 13.754-1.01 2.668 1.89 1.472 4-.276 1.61-1.288 1.98-.23.74.966-2.58 2.484-5.34 3.726-7.04 4.462Zm9.54.23c-1.71 0-2.49-1.656-.65-5.658 1.84-3.864 4.05-8.464 6.26-13.754 1.1-2.668-1.84-1.472-4 .276-1.66 1.288-1.98.23-.69-.966 2.66-2.484 5.47-3.726 7.17-4.462 1.57-.69 2.95-.092 1.2 3.634-6.17 13.386-6.58 15.364-6.63 16.284 0 .736.56 1.012.97 1.012 1.52 0 4.6-3.358 5.93-4.646.42-.46.92-.23.56.368-1.15 1.886-6.77 7.912-10.12 7.912Zm10.99-27.83c-1.43 0-2.53-1.104-2.53-2.53 0-1.38 1.1-2.484 2.53-2.484a2.47 2.47 0 0 1 2.48 2.484c0 1.426-1.1 2.53-2.48 2.53Zm14.09 27.6c-1.52.69-2.95.092-1.34-3.634 5.71-13.386 6.49-15.364 6.49-16.284 0-.736-.46-1.012-1.01-1.012-3.5 0-12.93 12.65-15.51 18.722-1.79 4.232-4.37 2.99-2.66-1.518 4.96-13.294 4.83-15.272 4.83-16.192 0-.736-.6-1.012-1.02-1.012-1.51 0-3.95 3.358-5.24 4.646-.41.46-.92.23-.55-.368 1.06-1.886 5.56-7.912 8.92-7.912 1.7 0 2.53 1.656 1.34 5.842-.56 1.932-1.57 4.324-2.67 6.9-.23.552.14.92.64.552 1.47-1.196 3.13-3.174 3.59-3.772 2.16-2.714 8.1-9.522 11.45-9.522 1.71 0 2.53 1.656.83 5.658-1.7 3.864-3.77 8.464-5.79 13.754-1.02 2.668 1.88 1.472 4-.276 1.61-1.288 1.98-.23.73.966-2.57 2.484-5.33 3.726-7.03 4.462Zm9.95 8.924c-3.64 0-5.89-1.61-5.16-4.462.33-1.38 1.11-2.438 1.98-3.312.78-.782.78-1.104.19-1.748-.6-.69-.74-1.518-.46-2.484.5-2.024 2.62-4.14 5.19-5.29 1.06-.46 1.25-.92.65-1.564-1.15-1.15-1.98-3.404-1.29-6.118 1.24-4.922 5.8-8.74 10.58-8.74 2.39 0 4.19 1.058 5.11 2.76.46.782 1.28.322 3.03-1.058 1.61-1.288 2.99-1.702 3.96-1.702 1.06 0 1.56.782 1.1 1.978-.5 1.196-1.38 1.84-3.17 1.886-1.06.046-2.26-.368-3.13.092-.83.414-.97 1.702-1.01 2.53-.05.552-.14 1.15-.28 1.748-1.24 4.876-5.79 8.694-11.5 8.694-3.77 0-6.58 1.472-7.08 3.45-.32 1.196.32 1.978 1.56 1.978 2.49 0 8.19-2.944 13.16-2.944 3.82 0 5.52 1.84 4.83 4.646-1.47 5.98-11.64 9.66-18.26 9.66Zm3.12-2.3c8.38 0 11.37-2.76 12.1-5.704.6-2.438-1.15-3.68-5.33-3.68-7.13 0-11.04 1.84-12.01 5.75-.6 2.3 1.38 3.634 5.24 3.634Zm4.28-15.686c3.08 0 5.52-3.266 6.53-7.314.97-4.002.19-7.268-2.89-7.268-3.13 0-5.57 3.266-6.54 7.268-1.01 4.048-.23 7.314 2.9 7.314Zm1.77 84.648v-3.01c-1.52 2.366-3.74 3.549-6.67 3.549-1.91 0-3.66-.524-5.26-1.572-1.59-1.048-2.82-2.508-3.71-4.38-.86-1.887-1.3-4.051-1.3-6.491 0-2.381.4-4.537 1.19-6.469.8-1.947 1.99-3.437 3.57-4.47 1.59-1.033 3.36-1.55 5.33-1.55 1.43 0 2.71.307 3.84.921a8 8 0 0 1 2.74 2.359v-11.815h4.02v32.928h-3.75Zm-12.78-11.904c0 3.054.64 5.338 1.93 6.85 1.29 1.513 2.81 2.269 4.56 2.269 1.76 0 3.26-.719 4.49-2.156 1.24-1.453 1.86-3.662 1.86-6.626 0-3.265-.62-5.661-1.88-7.188-1.26-1.527-2.81-2.291-4.65-2.291-1.8 0-3.3.734-4.52 2.201-1.19 1.468-1.79 3.781-1.79 6.941Zm36.94 4.222 4.17.517c-.66 2.441-1.88 4.335-3.66 5.683-1.78 1.347-4.06 2.021-6.83 2.021-3.48 0-6.25-1.071-8.31-3.212-2.03-2.156-3.05-5.173-3.05-9.052 0-4.013 1.03-7.127 3.1-9.343 2.07-2.217 4.75-3.325 8.04-3.325 3.19 0 5.79 1.086 7.82 3.257 2.02 2.171 3.03 5.226 3.03 9.164 0 .24-.01.599-.02 1.078h-17.79c.15 2.621.89 4.627 2.22 6.02 1.33 1.392 3 2.089 4.99 2.089 1.48 0 2.74-.39 3.79-1.168 1.05-.779 1.88-2.022 2.5-3.729Zm-13.28-6.536h13.32c-.18-2.006-.69-3.511-1.53-4.514-1.28-1.558-2.95-2.336-5.01-2.336-1.85 0-3.42.621-4.69 1.864-1.26 1.243-1.95 2.905-2.09 4.986Zm18.64 7.098 3.99-.629c.23 1.602.85 2.83 1.87 3.684 1.03.853 2.47 1.28 4.31 1.28 1.86 0 3.23-.375 4.13-1.123.9-.764 1.35-1.655 1.35-2.673 0-.914-.4-1.632-1.19-2.156-.55-.36-1.93-.816-4.13-1.37-2.97-.749-5.03-1.393-6.18-1.932-1.14-.554-2.01-1.31-2.61-2.269a6.157 6.157 0 0 1-.87-3.212c0-1.063.24-2.044.72-2.942a6.574 6.574 0 0 1 2-2.269c.63-.464 1.48-.853 2.56-1.168a12.07 12.07 0 0 1 3.5-.494c1.87 0 3.51.27 4.92.809 1.42.539 2.47 1.273 3.14 2.201.68.914 1.14 2.141 1.4 3.684l-3.96.539c-.18-1.228-.7-2.186-1.57-2.875-.85-.689-2.06-1.033-3.64-1.033-1.85 0-3.18.307-3.97.92-.8.614-1.19 1.333-1.19 2.157 0 .524.16.995.49 1.415.33.434.85.793 1.55 1.078.41.15 1.6.494 3.57 1.033 2.86.764 4.85 1.393 5.98 1.887 1.13.479 2.03 1.183 2.67 2.111.64.929.97 2.082.97 3.459 0 1.348-.4 2.621-1.19 3.818-.78 1.183-1.91 2.104-3.4 2.763-1.48.644-3.16.966-5.03.966-3.1 0-5.46-.644-7.1-1.932-1.61-1.287-2.65-3.197-3.09-5.727Zm22.33-21.158v-4.65h4.05v4.65h-4.05Zm0 28.278v-23.854h4.05v23.854h-4.05Zm7.18 1.976 3.93.584c.17 1.213.63 2.097 1.37 2.651 1.01.749 2.38 1.123 4.11 1.123 1.88 0 3.32-.374 4.34-1.123s1.71-1.797 2.07-3.145c.21-.823.3-2.553.29-5.188-1.77 2.081-3.97 3.122-6.61 3.122-3.28 0-5.81-1.183-7.61-3.549-1.8-2.366-2.7-5.203-2.7-8.513 0-2.276.42-4.372 1.24-6.289.82-1.931 2.01-3.421 3.57-4.469 1.57-1.049 3.42-1.573 5.53-1.573 2.81 0 5.13 1.138 6.96 3.414v-2.875h3.73v20.62c0 3.713-.38 6.341-1.15 7.883-.75 1.558-1.94 2.786-3.59 3.684-1.63.898-3.65 1.348-6.04 1.348-2.85 0-5.15-.644-6.9-1.932-1.75-1.273-2.6-3.197-2.54-5.773Zm3.35-14.33c0 3.13.62 5.413 1.86 6.851 1.25 1.438 2.8 2.156 4.68 2.156 1.85 0 3.41-.711 4.67-2.134 1.26-1.437 1.88-3.683 1.88-6.738 0-2.92-.65-5.121-1.95-6.603-1.29-1.483-2.84-2.224-4.67-2.224-1.8 0-3.33.734-4.58 2.201-1.26 1.453-1.89 3.616-1.89 6.491Zm20.7 12.354v-23.854h3.64v3.392c1.75-2.62 4.28-3.931 7.59-3.931 1.44 0 2.76.262 3.95.786 1.22.51 2.12 1.183 2.72 2.022.6.839 1.02 1.834 1.26 2.987.15.749.22 2.059.22 3.931v14.667h-4.04v-14.51c0-1.647-.16-2.875-.47-3.683-.32-.824-.88-1.475-1.69-1.955-.79-.494-1.73-.741-2.8-.741-1.73 0-3.22.547-4.47 1.64-1.25 1.093-1.87 3.167-1.87 6.222v13.027h-4.04Z" fill="#151515"/><path d="M1765.99 269.363c.56.128 1.09.272 1.6.432.52.149.97.347 1.36.592.41.245.72.565.95.96.23.384.35.88.35 1.488 0 .629-.14 1.2-.43 1.712-.28.512-.72.923-1.33 1.232-.6.299-1.37.448-2.32.448-.96 0-1.81-.16-2.54-.48a4.181 4.181 0 0 1-1.75-1.392c-.43-.608-.67-1.339-.72-2.192h1.51c.05.523.19.997.43 1.424.24.427.61.763 1.09 1.008.49.245 1.13.368 1.92.368.69 0 1.22-.091 1.6-.272.38-.192.65-.443.8-.752.16-.32.24-.672.24-1.056 0-.533-.13-.933-.39-1.2-.24-.277-.61-.491-1.1-.64-.49-.16-1.11-.331-1.86-.512-.43-.107-.86-.229-1.31-.368-.44-.139-.84-.32-1.22-.544a2.803 2.803 0 0 1-.89-.88c-.23-.363-.34-.821-.34-1.376 0-.917.34-1.648 1.01-2.192.68-.555 1.64-.832 2.86-.832 1.3 0 2.33.315 3.09.944.76.629 1.19 1.52 1.28 2.672h-1.5c-.11-.768-.38-1.349-.82-1.744-.44-.405-1.11-.608-2.03-.608-.8 0-1.4.149-1.79.448-.4.288-.59.704-.59 1.248 0 .469.13.832.4 1.088.27.256.62.453 1.05.592.44.139.9.267 1.39.384Zm4.77-1.52h1.2v-2.72h1.28v2.72h1.6v1.12h-1.6v4.912c0 .427.06.715.19.864.13.149.38.224.74.224.14 0 .25-.005.33-.016a8.2 8.2 0 0 1 .34-.032v1.088a4.222 4.222 0 0 1-.85.08c-.39 0-.74-.059-1.05-.176a1.414 1.414 0 0 1-.72-.672c-.17-.331-.26-.805-.26-1.424v-4.848h-1.2v-1.12Zm7.28 8.384c-.82 0-1.48-.213-1.97-.64-.48-.437-.72-.997-.72-1.68 0-.629.15-1.12.43-1.472.29-.352.7-.624 1.22-.816.52-.192 1.14-.352 1.84-.48.69-.128 1.21-.261 1.54-.4.33-.149.49-.421.49-.816 0-.32-.12-.597-.35-.832-.22-.245-.67-.368-1.34-.368-.78 0-1.32.128-1.6.384-.28.245-.44.667-.48 1.264h-1.35c.03-.523.17-.992.4-1.408.25-.416.62-.747 1.12-.992.5-.245 1.15-.368 1.95-.368.52 0 .99.08 1.43.24.44.16.79.432 1.05.816.28.384.42.912.42 1.584v3.92c0 .32.03.56.08.72.06.16.18.24.34.24h.08c.03 0 .07-.005.11-.016v.896c-.11.021-.21.037-.31.048-.09.021-.2.032-.32.032-.35 0-.63-.085-.84-.256-.21-.181-.33-.523-.37-1.024h-.03c-.27.437-.64.784-1.11 1.04-.46.256-1.03.384-1.71.384Zm.13-1.12c.77 0 1.41-.181 1.92-.544.52-.363.78-.933.78-1.712v-1.296c-.12.128-.36.245-.72.352-.36.107-.76.203-1.2.288-.79.171-1.36.373-1.73.608-.35.224-.52.571-.52 1.04 0 .395.11.704.33.928.24.224.62.336 1.14.336Zm5.57.896v-8.16h1.28v.976h.04c.21-.288.53-.56.97-.816.45-.256 1.02-.384 1.71-.384.5 0 .96.096 1.36.288.42.181.75.469 1 .864s.38.907.38 1.536v5.696h-1.28v-5.376c0-.533-.14-.981-.42-1.344-.26-.363-.72-.544-1.36-.544-.71 0-1.29.208-1.74.624-.44.405-.66.923-.66 1.552v5.088h-1.28Zm13.98-7.104h.03v-4.336h1.28v11.44h-1.28v-1.008h-.03c-.24.309-.56.592-.96.848-.41.256-.94.384-1.6.384-.69 0-1.3-.171-1.86-.512-.55-.341-1-.832-1.33-1.472-.33-.651-.49-1.424-.49-2.32 0-.896.16-1.664.49-2.304.33-.651.78-1.147 1.33-1.488a3.483 3.483 0 0 1 1.86-.512c.66 0 1.19.128 1.6.384.4.245.72.544.96.896Zm-2.43 6.208c.75 0 1.35-.288 1.79-.864.45-.587.67-1.36.67-2.32 0-.96-.22-1.728-.67-2.304-.44-.587-1.04-.88-1.79-.88-.56 0-1.02.155-1.4.464-.36.309-.63.709-.81 1.2-.17.48-.26.987-.26 1.52s.09 1.045.26 1.536c.18.48.45.875.81 1.184.38.309.84.464 1.4.464Zm12.17 1.136c-.83 0-1.54-.181-2.14-.544a3.68 3.68 0 0 1-1.38-1.536c-.32-.651-.48-1.397-.48-2.24 0-.853.16-1.6.48-2.24a3.58 3.58 0 0 1 1.38-1.52c.6-.373 1.31-.56 2.14-.56.83 0 1.54.187 2.13.56.6.363 1.06.869 1.38 1.52.32.64.48 1.387.48 2.24 0 .843-.16 1.589-.48 2.24a3.68 3.68 0 0 1-1.38 1.536c-.59.363-1.3.544-2.13.544Zm0-1.12c.61 0 1.11-.144 1.49-.432.4-.299.68-.688.86-1.168.2-.491.29-1.024.29-1.6 0-.587-.09-1.12-.29-1.6a2.42 2.42 0 0 0-.86-1.152c-.38-.299-.88-.448-1.49-.448s-1.11.149-1.5.448c-.4.288-.69.672-.88 1.152-.18.48-.27 1.013-.27 1.6 0 .576.09 1.109.27 1.6.19.48.48.869.88 1.168.39.288.89.432 1.5.432Zm6.27-1.904c0 .523.13.971.4 1.344.27.363.73.544 1.37.544.73 0 1.31-.203 1.75-.608.43-.416.65-.939.65-1.568v-5.088h1.28v8.16h-1.28v-.976h-.03c-.21.288-.54.56-.99.816-.44.256-1 .384-1.7.384-.49 0-.94-.091-1.36-.272a2.424 2.424 0 0 1-1.01-.88c-.24-.405-.36-.917-.36-1.536v-5.696h1.28v5.376Zm6.34-5.376h1.2v-2.72h1.28v2.72h1.6v1.12h-1.6v4.912c0 .427.06.715.19.864.13.149.37.224.74.224.13 0 .25-.005.33-.016a8.2 8.2 0 0 1 .34-.032v1.088a4.371 4.371 0 0 1-.85.08c-.39 0-.75-.059-1.06-.176a1.414 1.414 0 0 1-.72-.672c-.17-.331-.25-.805-.25-1.424v-4.848h-1.2v-1.12Zm7.84 0h1.44l1.87 6.72h.03l1.8-6.72h1.39l1.79 6.72h.03l1.89-6.72h1.39l-2.61 8.16h-1.39l-1.81-6.624h-.03l-1.81 6.624h-1.39l-2.59-8.16Zm12.27-3.12h1.54v1.536h-1.54v-1.536Zm.13 3.12h1.28v8.16h-1.28v-8.16Zm2.17 0h1.2v-2.72h1.28v2.72h1.6v1.12h-1.6v4.912c0 .427.06.715.19.864.13.149.37.224.73.224.14 0 .25-.005.34-.016.08-.011.2-.021.34-.032v1.088c-.19.032-.34.053-.45.064-.12.011-.25.016-.4.016-.4 0-.75-.059-1.06-.176a1.414 1.414 0 0 1-.72-.672c-.17-.331-.25-.805-.25-1.424v-4.848h-1.2v-1.12Zm10.68 2.784c0-.533-.14-.981-.42-1.344-.27-.363-.72-.544-1.36-.544-.71 0-1.3.208-1.74.624-.44.405-.66.923-.66 1.552v5.088h-1.28v-11.44h1.28v4.256h.03c.22-.288.54-.56.98-.816.45-.256 1.02-.384 1.71-.384.5 0 .95.096 1.36.288.42.181.75.469.99.864.26.395.39.907.39 1.536v5.696h-1.28v-5.376Zm9.64 5.616c-.83 0-1.55-.181-2.14-.544a3.68 3.68 0 0 1-1.38-1.536c-.32-.651-.48-1.397-.48-2.24 0-.853.16-1.6.48-2.24a3.58 3.58 0 0 1 1.38-1.52c.59-.373 1.31-.56 2.14-.56.83 0 1.54.187 2.13.56.6.363 1.06.869 1.38 1.52.32.64.48 1.387.48 2.24 0 .843-.16 1.589-.48 2.24a3.68 3.68 0 0 1-1.38 1.536c-.59.363-1.3.544-2.13.544Zm0-1.12c.61 0 1.11-.144 1.49-.432.39-.299.68-.688.86-1.168.2-.491.29-1.024.29-1.6 0-.587-.09-1.12-.29-1.6-.18-.48-.47-.864-.86-1.152-.38-.299-.88-.448-1.49-.448s-1.11.149-1.5.448c-.4.288-.69.672-.88 1.152-.18.48-.27 1.013-.27 1.6 0 .576.09 1.109.27 1.6.19.48.48.869.88 1.168.39.288.89.432 1.5.432Zm6.26-1.904c0 .523.14.971.4 1.344.28.363.74.544 1.38.544.73 0 1.31-.203 1.74-.608.44-.416.66-.939.66-1.568v-5.088h1.28v8.16h-1.28v-.976h-.03c-.21.288-.55.56-.99.816-.44.256-1.01.384-1.7.384-.49 0-.94-.091-1.36-.272a2.365 2.365 0 0 1-1.01-.88c-.24-.405-.37-.917-.37-1.536v-5.696h1.28v5.376Zm6.98-5.376h1.28v1.616h.04c.21-.533.49-.971.84-1.312.36-.352.83-.528 1.41-.528.28 0 .53.016.75.048v1.28a3.122 3.122 0 0 0-.52-.048c-.5 0-.95.123-1.33.368-.37.235-.67.56-.88.976-.2.416-.31.885-.31 1.408v4.352h-1.28v-8.16Zm-71.5 16h1.44l1.87 6.72h.04l1.79-6.72h1.39l1.79 6.72h.03l1.89-6.72h1.39l-2.6 8.16h-1.4l-1.8-6.624h-.04l-1.8 6.624h-1.4l-2.59-8.16Zm15.69 8.4c-.85 0-1.58-.187-2.18-.56a3.77 3.77 0 0 1-1.34-1.552c-.3-.661-.45-1.403-.45-2.224 0-.875.16-1.632.48-2.272.33-.64.8-1.136 1.39-1.488.6-.363 1.3-.544 2.1-.544s1.48.171 2.03.512c.57.331 1 .8 1.3 1.408.3.597.44 1.296.44 2.096v.368c0 .117 0 .208-.01.272h-6.39c.02.48.12.944.31 1.392.19.437.48.795.86 1.072.39.277.88.416 1.47.416.54 0 .96-.096 1.28-.288a2.272 2.272 0 0 0 1.08-1.36h1.29c-.14.501-.36.965-.67 1.392-.31.416-.71.747-1.2.992s-1.09.368-1.79.368Zm-.07-7.536c-.46 0-.89.107-1.28.32-.37.203-.67.485-.89.848-.23.363-.35.784-.39 1.264h5.04c0-.448-.1-.853-.3-1.216-.2-.373-.49-.667-.86-.88-.37-.224-.8-.336-1.32-.336Zm6.23 6.24h-.04v1.056h-1.28v-11.44h1.28v4.288h.04c.24-.309.57-.592.97-.848.41-.256.94-.384 1.59-.384.68 0 1.3.171 1.85.512.56.341 1 .837 1.33 1.488.33.64.5 1.408.5 2.304 0 .896-.17 1.669-.5 2.32-.33.64-.77 1.131-1.33 1.472-.55.341-1.17.512-1.85.512-.65 0-1.18-.123-1.59-.368-.4-.256-.73-.56-.97-.912Zm2.43-6.208c-.76 0-1.36.293-1.81.88-.44.576-.66 1.344-.66 2.304 0 .96.22 1.733.66 2.32.45.576 1.05.864 1.81.864.56 0 1.03-.155 1.39-.464.36-.309.63-.704.8-1.184.18-.491.27-1.003.27-1.536 0-.533-.09-1.04-.27-1.52a2.724 2.724 0 0 0-.8-1.2c-.36-.309-.83-.464-1.39-.464Zm14.11.16h.03v-4.336h1.28v11.44h-1.28v-1.008h-.03c-.23.309-.55.592-.96.848-.4.256-.94.384-1.6.384-.68 0-1.3-.171-1.85-.512-.56-.341-1-.832-1.33-1.472-.33-.651-.5-1.424-.5-2.32 0-.896.17-1.664.5-2.304.33-.651.77-1.147 1.33-1.488a3.448 3.448 0 0 1 1.85-.512c.66 0 1.2.128 1.6.384.41.245.73.544.96.896Zm-2.43 6.208c.76 0 1.35-.288 1.79-.864.45-.587.67-1.36.67-2.32 0-.96-.22-1.728-.67-2.304-.44-.587-1.03-.88-1.79-.88-.56 0-1.02.155-1.39.464a2.76 2.76 0 0 0-.82 1.2c-.17.48-.25.987-.25 1.52s.08 1.045.25 1.536c.18.48.45.875.82 1.184.37.309.83.464 1.39.464Zm8.78 1.136c-.86 0-1.58-.187-2.18-.56a3.699 3.699 0 0 1-1.34-1.552c-.3-.661-.45-1.403-.45-2.224 0-.875.16-1.632.48-2.272.33-.64.79-1.136 1.39-1.488.6-.363 1.3-.544 2.1-.544s1.47.171 2.03.512c.56.331 1 .8 1.29 1.408.3.597.45 1.296.45 2.096v.368c0 .117 0 .208-.01.272h-6.39c.01.48.11.944.31 1.392.19.437.48.795.86 1.072s.88.416 1.47.416c.54 0 .96-.096 1.28-.288.33-.203.58-.432.75-.688.18-.256.28-.48.32-.672h1.3c-.14.501-.36.965-.67 1.392-.31.416-.71.747-1.2.992s-1.09.368-1.79.368Zm-.07-7.536c-.47 0-.89.107-1.28.32-.37.203-.67.485-.89.848-.23.363-.36.784-.39 1.264h5.04c0-.448-.1-.853-.3-1.216-.2-.373-.49-.667-.87-.88-.36-.224-.8-.336-1.31-.336Zm8.12 2.448c.36.085.72.181 1.08.288.38.107.71.256 1.01.448.31.181.56.421.74.72.18.288.27.656.27 1.104 0 .768-.29 1.381-.86 1.84-.57.448-1.37.672-2.42.672-1.17 0-2.07-.277-2.7-.832a2.837 2.837 0 0 1-.96-2.112h1.34c.02.331.11.635.26.912.15.277.39.501.72.672.34.16.79.24 1.34.24.52 0 .92-.069 1.2-.208.28-.139.47-.309.58-.512.1-.213.16-.421.16-.624 0-.373-.12-.651-.34-.832a1.98 1.98 0 0 0-.83-.384c-.33-.085-.67-.165-1.01-.24-.35-.075-.71-.16-1.09-.256-.36-.107-.7-.245-1.01-.416a2.28 2.28 0 0 1-.73-.672c-.18-.277-.27-.629-.27-1.056 0-.693.26-1.248.78-1.664.52-.416 1.25-.624 2.19-.624.71 0 1.3.117 1.78.352.48.224.85.533 1.1.928.26.384.41.811.45 1.28h-1.34a2.781 2.781 0 0 0-.24-.64c-.11-.224-.3-.411-.56-.56-.27-.16-.66-.24-1.17-.24-.58 0-1 .107-1.27.32a.984.984 0 0 0-.38.8c0 .309.1.544.3.704.21.149.47.261.8.336.35.075.7.16 1.08.256Zm3.94-6.432h1.53v1.536h-1.53v-1.536Zm.13 3.12h1.28v8.16h-1.28v-8.16Zm8.63 7.744v-1.28h-.04c-.23.352-.56.656-.97.912-.41.245-.95.368-1.62.368-.67 0-1.28-.144-1.84-.432a3.362 3.362 0 0 1-1.31-1.328c-.33-.587-.5-1.328-.5-2.224 0-.896.17-1.637.5-2.224.33-.597.77-1.04 1.31-1.328a3.954 3.954 0 0 1 1.84-.432c.67 0 1.21.128 1.62.384.41.256.74.539.97.848h.04v-1.008h1.28v7.616c0 1.163-.34 2.032-1.03 2.608-.67.576-1.58.864-2.72.864-1.13 0-1.99-.24-2.59-.72-.59-.48-.91-1.099-.98-1.856h1.35c.08.416.29.763.62 1.04.34.277.88.416 1.6.416.79 0 1.4-.176 1.83-.528.42-.352.64-.917.64-1.696Zm-2.47-6.848c-.55 0-1.02.128-1.39.384-.36.256-.63.603-.82 1.04-.17.427-.25.907-.25 1.44 0 .533.08 1.019.25 1.456.19.427.46.768.82 1.024.37.256.84.384 1.39.384.76 0 1.36-.235 1.79-.704.45-.48.68-1.2.68-2.16 0-.96-.23-1.675-.68-2.144-.43-.48-1.03-.72-1.79-.72Zm5.26 7.264v-8.16h1.28v.976h.03c.21-.288.54-.56.98-.816.44-.256 1.02-.384 1.71-.384.5 0 .95.096 1.36.288.41.181.75.469.99.864.26.395.38.907.38 1.536v5.696h-1.28v-5.376c0-.533-.13-.981-.41-1.344-.27-.363-.72-.544-1.36-.544-.72 0-1.3.208-1.75.624-.43.405-.65.923-.65 1.552v5.088h-1.28Z" fill="#797979"/><path d="M414.77 435.198c.408.096.816.204 1.224.324.42.12.798.288 1.134.504.348.204.624.474.828.81.204.324.306.738.306 1.242 0 .864-.324 1.554-.972 2.07-.636.504-1.542.756-2.718.756-1.32 0-2.334-.312-3.042-.936-.696-.636-1.056-1.428-1.08-2.376h1.512c.024.372.12.714.288 1.026.168.312.438.564.81.756.384.18.888.27 1.512.27.588 0 1.038-.078 1.35-.234.312-.156.528-.348.648-.576.12-.24.18-.474.18-.702 0-.42-.126-.732-.378-.936a2.25 2.25 0 0 0-.936-.432c-.372-.096-.75-.186-1.134-.27-.396-.084-.804-.18-1.224-.288a5.624 5.624 0 0 1-1.134-.468 2.503 2.503 0 0 1-.828-.756c-.204-.312-.306-.708-.306-1.188 0-.78.294-1.404.882-1.872.588-.468 1.41-.702 2.466-.702.792 0 1.458.132 1.998.396.54.252.954.6 1.242 1.044.288.432.456.912.504 1.44h-1.512a2.519 2.519 0 0 0-.27-.72c-.12-.252-.33-.462-.63-.63-.3-.18-.738-.27-1.314-.27-.648 0-1.122.12-1.422.36a1.092 1.092 0 0 0-.432.9c0 .348.114.612.342.792.228.168.528.294.9.378.384.084.786.18 1.206.288Zm8.485 5.724c-.936 0-1.74-.204-2.412-.612a4.155 4.155 0 0 1-1.548-1.728c-.36-.732-.54-1.572-.54-2.52 0-.96.18-1.8.54-2.52a4.036 4.036 0 0 1 1.548-1.71c.672-.42 1.476-.63 2.412-.63.936 0 1.734.21 2.394.63a4.036 4.036 0 0 1 1.548 1.71c.36.72.54 1.56.54 2.52 0 .948-.18 1.788-.54 2.52a4.155 4.155 0 0 1-1.548 1.728c-.66.408-1.458.612-2.394.612Zm0-1.26c.684 0 1.242-.162 1.674-.486.444-.336.768-.774.972-1.314a4.897 4.897 0 0 0 .324-1.8c0-.66-.108-1.26-.324-1.8a2.78 2.78 0 0 0-.972-1.296c-.432-.336-.99-.504-1.674-.504-.684 0-1.248.168-1.692.504a2.897 2.897 0 0 0-.99 1.296 5.059 5.059 0 0 0-.306 1.8c0 .648.102 1.248.306 1.8.216.54.546.978.99 1.314.444.324 1.008.486 1.692.486Zm5.518 3.276v-.9c.312-.108.528-.258.648-.45.132-.192.192-.504.18-.936h-.828v-1.728h1.728v1.728c0 .516-.12.972-.36 1.368-.24.408-.696.714-1.368.918Zm147.461-11.466h1.62l2.106 7.56h.036l2.016-7.56h1.566l2.016 7.56h.036l2.124-7.56h1.566l-2.934 9.18h-1.566l-2.034-7.452h-.036l-2.034 7.452h-1.566l-2.916-9.18Zm17.468 9.45c-.96 0-1.776-.21-2.448-.63a4.195 4.195 0 0 1-1.512-1.746c-.336-.744-.504-1.578-.504-2.502 0-.984.18-1.836.54-2.556a4.06 4.06 0 0 1 1.566-1.674c.672-.408 1.458-.612 2.358-.612.9 0 1.662.192 2.286.576.636.372 1.122.9 1.458 1.584.336.672.504 1.458.504 2.358v.414c0 .132-.006.234-.018.306h-7.182c.012.54.126 1.062.342 1.566.216.492.54.894.972 1.206.432.312.984.468 1.656.468.6 0 1.08-.108 1.44-.324.372-.228.654-.486.846-.774.192-.288.312-.54.36-.756h1.458a4.852 4.852 0 0 1-.756 1.566 3.73 3.73 0 0 1-1.35 1.116c-.552.276-1.224.414-2.016.414Zm-.072-8.478c-.528 0-1.008.12-1.44.36-.42.228-.756.546-1.008.954a3.047 3.047 0 0 0-.432 1.422h5.67c0-.504-.114-.96-.342-1.368a2.488 2.488 0 0 0-.972-.99c-.408-.252-.9-.378-1.476-.378Zm229.97 8.46c-.924 0-1.662-.24-2.214-.72-.54-.492-.81-1.122-.81-1.89 0-.708.162-1.26.486-1.656.324-.396.78-.702 1.368-.918a12.564 12.564 0 0 1 2.07-.54c.78-.144 1.356-.294 1.728-.45.372-.168.558-.474.558-.918 0-.36-.132-.672-.396-.936-.252-.276-.756-.414-1.512-.414-.876 0-1.476.144-1.8.432-.312.276-.492.75-.54 1.422h-1.512a3.63 3.63 0 0 1 .45-1.584c.276-.468.696-.84 1.26-1.116.564-.276 1.296-.414 2.196-.414.576 0 1.11.09 1.602.27.492.18.888.486 1.188.918.312.432.468 1.026.468 1.782v4.41c0 .36.03.63.09.81.072.18.198.27.378.27h.09a.529.529 0 0 0 .126-.018v1.008c-.12.024-.234.042-.342.054a1.663 1.663 0 0 1-.36.036c-.396 0-.714-.096-.954-.288-.228-.204-.366-.588-.414-1.152h-.036a3.24 3.24 0 0 1-1.242 1.17c-.516.288-1.158.432-1.926.432Zm.144-1.26c.864 0 1.584-.204 2.16-.612.588-.408.882-1.05.882-1.926v-1.458c-.132.144-.402.276-.81.396-.408.12-.858.228-1.35.324-.888.192-1.536.42-1.944.684-.396.252-.594.642-.594 1.17 0 .444.126.792.378 1.044.264.252.69.378 1.278.378Zm326.246-8.172h1.44v1.818h.04c.24-.6.55-1.092.95-1.476.4-.396.92-.594 1.58-.594.32 0 .6.018.85.054v1.44a3.628 3.628 0 0 0-.59-.054c-.57 0-1.07.138-1.5.414-.42.264-.75.63-.99 1.098-.23.468-.34.996-.34 1.584v4.896h-1.44v-9.18Zm726.05 9.45c-.96 0-1.78-.21-2.45-.63a4.204 4.204 0 0 1-1.51-1.746c-.34-.744-.5-1.578-.5-2.502 0-.984.18-1.836.54-2.556.37-.72.89-1.278 1.56-1.674.67-.408 1.46-.612 2.36-.612.9 0 1.66.192 2.29.576.63.372 1.12.9 1.45 1.584.34.672.51 1.458.51 2.358v.414c0 .132-.01.234-.02.306h-7.18c.01.54.12 1.062.34 1.566.22.492.54.894.97 1.206.43.312.99.468 1.66.468.6 0 1.08-.108 1.44-.324.37-.228.65-.486.84-.774.2-.288.32-.54.36-.756h1.46a4.879 4.879 0 0 1-.75 1.566c-.35.468-.8.84-1.35 1.116-.56.276-1.23.414-2.02.414Zm-.07-8.478c-.53 0-1.01.12-1.44.36-.42.228-.76.546-1.01.954a3 3 0 0 0-.43 1.422h5.67c0-.504-.12-.96-.34-1.368-.23-.42-.56-.75-.98-.99-.4-.252-.9-.378-1.47-.378Z" fill="#151515"/><path d="M1158.27 20.858c.56.128 1.09.272 1.6.432.51.15.97.347 1.36.592.41.245.72.565.95.96.23.384.35.88.35 1.488 0 .63-.15 1.2-.43 1.712s-.72.923-1.33 1.232c-.6.299-1.37.448-2.32.448-.96 0-1.81-.16-2.55-.48-.72-.32-1.3-.784-1.74-1.392-.43-.608-.67-1.339-.72-2.192h1.5c.06.523.2.997.44 1.424.24.427.6.763 1.08 1.008.49.245 1.13.368 1.92.368.7 0 1.23-.09 1.6-.272.39-.192.65-.443.8-.752.16-.32.24-.672.24-1.056 0-.533-.12-.933-.38-1.2-.25-.277-.61-.49-1.1-.64-.5-.16-1.11-.33-1.86-.512-.43-.107-.86-.23-1.31-.368-.44-.139-.85-.32-1.22-.544a2.798 2.798 0 0 1-.89-.88c-.23-.363-.34-.821-.34-1.376 0-.917.34-1.648 1.01-2.192.68-.555 1.63-.832 2.86-.832 1.3 0 2.33.315 3.09.944.76.63 1.18 1.52 1.28 2.672h-1.5c-.11-.768-.38-1.35-.82-1.744-.44-.405-1.12-.608-2.03-.608-.8 0-1.4.15-1.79.448-.4.288-.6.704-.6 1.248 0 .47.14.832.4 1.088.28.256.63.453 1.06.592.44.139.9.267 1.39.384Zm4.77-1.52h1.2v-2.72h1.28v2.72h1.6v1.12h-1.6v4.912c0 .427.06.715.19.864.13.15.37.224.74.224.14 0 .25-.005.33-.016.09-.01.2-.021.34-.032v1.088c-.18.032-.33.053-.45.064-.12.01-.25.016-.4.016-.39 0-.75-.059-1.05-.176a1.414 1.414 0 0 1-.72-.672c-.18-.33-.26-.805-.26-1.424v-4.848h-1.2v-1.12Zm6.19 5.376c0 .523.13.97.4 1.344.28.363.74.544 1.38.544.72 0 1.3-.203 1.74-.608.44-.416.66-.939.66-1.568v-5.088h1.28v8.16h-1.28v-.976h-.04c-.21.288-.54.56-.99.816-.44.256-1 .384-1.69.384-.5 0-.95-.09-1.36-.272a2.311 2.311 0 0 1-1.01-.88c-.25-.405-.37-.917-.37-1.536v-5.696h1.28v5.376Zm12.77-4.32h.03v-4.336h1.28v11.44h-1.28V26.49h-.03c-.23.31-.55.592-.96.848-.4.256-.94.384-1.6.384-.68 0-1.3-.17-1.85-.512-.56-.341-1-.832-1.33-1.472-.33-.65-.5-1.424-.5-2.32 0-.896.17-1.664.5-2.304.33-.65.77-1.147 1.33-1.488a3.445 3.445 0 0 1 1.85-.512c.66 0 1.2.128 1.6.384.41.245.73.544.96.896Zm-2.43 6.208c.76 0 1.36-.288 1.79-.864.45-.587.67-1.36.67-2.32 0-.96-.22-1.728-.67-2.304-.43-.587-1.03-.88-1.79-.88-.55 0-1.02.155-1.39.464-.36.31-.64.71-.82 1.2-.17.48-.25.987-.25 1.52s.08 1.045.25 1.536c.18.48.46.875.82 1.184.37.31.84.464 1.39.464Zm5.13-10.384h1.53v1.536h-1.53v-1.536Zm.13 3.12h1.28v8.16h-1.28v-8.16Zm6.36 8.4c-.84 0-1.55-.181-2.15-.544a3.661 3.661 0 0 1-1.37-1.536c-.32-.65-.48-1.397-.48-2.24 0-.853.16-1.6.48-2.24.32-.65.77-1.157 1.37-1.52.6-.373 1.31-.56 2.15-.56.83 0 1.54.187 2.12.56.6.363 1.06.87 1.38 1.52.32.64.48 1.387.48 2.24 0 .843-.16 1.59-.48 2.24-.32.65-.78 1.163-1.38 1.536-.58.363-1.29.544-2.12.544Zm0-1.12c.6 0 1.1-.144 1.48-.432.4-.299.69-.688.87-1.168.19-.49.29-1.024.29-1.6 0-.587-.1-1.12-.29-1.6a2.44 2.44 0 0 0-.87-1.152c-.38-.299-.88-.448-1.48-.448-.61 0-1.11.15-1.51.448-.39.288-.69.672-.88 1.152-.18.48-.27 1.013-.27 1.6 0 .576.09 1.11.27 1.6.19.48.49.87.88 1.168.4.288.9.432 1.51.432Zm154.19-10.56h1.52l2.18 9.376h.03l2.56-9.376h1.6l2.56 9.376h.03l2.18-9.376h1.52l-2.83 11.44h-1.6l-2.64-9.808h-.03l-2.64 9.808h-1.6l-2.84-11.44Zm17.69 11.68c-.83 0-1.55-.181-2.15-.544a3.729 3.729 0 0 1-1.37-1.536c-.32-.65-.48-1.397-.48-2.24 0-.853.16-1.6.48-2.24.32-.65.78-1.157 1.37-1.52.6-.373 1.32-.56 2.15-.56.83 0 1.54.187 2.13.56.59.363 1.05.87 1.37 1.52.32.64.48 1.387.48 2.24 0 .843-.16 1.59-.48 2.24-.32.65-.78 1.163-1.37 1.536-.59.363-1.3.544-2.13.544Zm0-1.12c.61 0 1.1-.144 1.49-.432.39-.299.68-.688.86-1.168.19-.49.29-1.024.29-1.6 0-.587-.1-1.12-.29-1.6-.18-.48-.47-.864-.86-1.152-.39-.299-.88-.448-1.49-.448s-1.11.15-1.51.448c-.39.288-.68.672-.88 1.152-.18.48-.27 1.013-.27 1.6 0 .576.09 1.11.27 1.6.2.48.49.87.88 1.168.4.288.9.432 1.51.432Zm5.06-7.28h1.28v1.616h.03c.22-.533.5-.97.85-1.312.35-.352.82-.528 1.41-.528.28 0 .53.016.75.048v1.28a3.236 3.236 0 0 0-.53-.048c-.5 0-.94.123-1.33.368-.37.235-.66.56-.88.976-.2.416-.3.885-.3 1.408v4.352h-1.28v-8.16Zm5.12 8.16v-11.44h1.28v6.848l3.81-3.568h1.53l-3.21 2.96 3.55 5.2h-1.52l-2.9-4.4-1.26 1.152v3.248h-1.28Zm9.35 0h-1.28v-7.04h-1.14v-1.12h1.14v-1.104c0-.619.08-1.088.24-1.408.17-.33.4-.555.7-.672.3-.128.65-.192 1.04-.192.12 0 .24.005.35.016.13.01.3.032.5.064v1.088a2.967 2.967 0 0 0-.37-.032c-.08-.01-.19-.016-.3-.016-.37 0-.61.075-.72.224-.11.139-.16.427-.16.864v1.168h1.55v1.12h-1.55v7.04Zm2.67-11.44h1.28v11.44h-1.28v-11.44Zm6.35 11.68c-.84 0-1.55-.181-2.15-.544a3.661 3.661 0 0 1-1.37-1.536c-.32-.65-.48-1.397-.48-2.24 0-.853.16-1.6.48-2.24.32-.65.77-1.157 1.37-1.52.6-.373 1.31-.56 2.15-.56.83 0 1.54.187 2.12.56.6.363 1.06.87 1.38 1.52.32.64.48 1.387.48 2.24 0 .843-.16 1.59-.48 2.24-.32.65-.78 1.163-1.38 1.536-.58.363-1.29.544-2.12.544Zm0-1.12c.6 0 1.1-.144 1.48-.432.4-.299.69-.688.87-1.168.19-.49.29-1.024.29-1.6 0-.587-.1-1.12-.29-1.6a2.44 2.44 0 0 0-.87-1.152c-.38-.299-.88-.448-1.48-.448-.61 0-1.11.15-1.51.448-.39.288-.69.672-.88 1.152-.18.48-.27 1.013-.27 1.6 0 .576.09 1.11.27 1.6.19.48.49.87.88 1.168.4.288.9.432 1.51.432Zm4.07-7.28h1.44l1.88 6.72h.03l1.79-6.72h1.39l1.79 6.72h.04l1.88-6.72h1.4l-2.61 8.16h-1.39l-1.81-6.624h-.03l-1.81 6.624h-1.39l-2.6-8.16Zm-151.65 8.16v-11.44h4.54c.71 0 1.34.112 1.89.336a2.65 2.65 0 0 1 1.33 1.056c.33.49.5 1.136.5 1.936s-.17 1.445-.5 1.936c-.32.49-.76.848-1.33 1.072-.55.213-1.18.32-1.89.32h-3.1v4.784h-1.44Zm1.44-6.064h3.2c1.41 0 2.11-.683 2.11-2.048s-.7-2.048-2.11-2.048h-3.2v4.096Zm7.78-2.096h1.28v1.616h.04c.21-.533.49-.97.84-1.312.36-.352.82-.528 1.41-.528.28 0 .53.016.75.048v1.28a3.122 3.122 0 0 0-.52-.048c-.51 0-.95.123-1.33.368-.38.235-.67.56-.88.976-.21.416-.31.885-.31 1.408v4.352h-1.28v-8.16Zm8.39 8.4c-.83 0-1.54-.181-2.14-.544a3.684 3.684 0 0 1-1.38-1.536c-.32-.65-.48-1.397-.48-2.24 0-.853.16-1.6.48-2.24a3.58 3.58 0 0 1 1.38-1.52c.6-.373 1.31-.56 2.14-.56.84 0 1.54.187 2.13.56.6.363 1.06.87 1.38 1.52.32.64.48 1.387.48 2.24 0 .843-.16 1.59-.48 2.24-.32.65-.78 1.163-1.38 1.536-.59.363-1.29.544-2.13.544Zm0-1.12c.61 0 1.11-.144 1.49-.432.4-.299.68-.688.87-1.168.19-.49.28-1.024.28-1.6 0-.587-.09-1.12-.28-1.6-.19-.48-.47-.864-.87-1.152-.38-.299-.88-.448-1.49-.448-.6 0-1.11.15-1.5.448-.4.288-.69.672-.88 1.152-.18.48-.27 1.013-.27 1.6 0 .576.09 1.11.27 1.6.19.48.48.87.88 1.168.39.288.9.432 1.5.432Zm4.51 3.76a4.408 4.408 0 0 1-.85-.08V29.21c.14.01.25.021.33.032.09.01.19.016.31.016.24 0 .42-.096.53-.288.11-.181.17-.501.17-.96v-8.672h1.28v8.8c0 .555-.08.992-.25 1.312-.16.33-.38.565-.64.704-.27.15-.56.224-.88.224Zm.36-14.16h1.54v1.536h-1.54v-1.536Zm6.41 11.52c-.85 0-1.57-.187-2.17-.56a3.723 3.723 0 0 1-1.35-1.552c-.29-.661-.44-1.403-.44-2.224 0-.875.16-1.632.48-2.272.33-.64.79-1.136 1.39-1.488.6-.363 1.29-.544 2.09-.544.8 0 1.48.17 2.04.512.56.33.99.8 1.29 1.408.3.597.45 1.296.45 2.096v.368c0 .117 0 .208-.02.272h-6.38c.01.48.11.944.3 1.392.2.437.48.795.87 1.072.38.277.87.416 1.47.416.53 0 .96-.096 1.28-.288.33-.203.58-.432.75-.688.17-.256.28-.48.32-.672h1.3a4.32 4.32 0 0 1-.67 1.392c-.31.416-.71.747-1.2.992s-1.09.368-1.8.368Zm-.06-7.536c-.47 0-.9.107-1.28.32a2.44 2.44 0 0 0-.9.848 2.73 2.73 0 0 0-.38 1.264h5.04c0-.448-.1-.853-.3-1.216a2.231 2.231 0 0 0-.87-.88c-.36-.224-.8-.336-1.31-.336Zm10.73 2.08c-.02-.299-.1-.603-.25-.912-.14-.32-.37-.587-.69-.8-.32-.224-.75-.336-1.3-.336-.64 0-1.15.16-1.53.48-.39.32-.66.725-.83 1.216-.16.48-.24.976-.24 1.488s.08 1.013.24 1.504c.17.49.44.896.83 1.216.38.31.89.464 1.53.464.56 0 .99-.107 1.3-.32.32-.224.55-.496.69-.816.15-.33.23-.656.25-.976h1.35a3.284 3.284 0 0 1-.53 1.664c-.31.48-.73.864-1.26 1.152-.53.277-1.12.416-1.8.416-.79 0-1.48-.181-2.08-.544a3.757 3.757 0 0 1-1.39-1.504c-.32-.65-.48-1.403-.48-2.256 0-.853.16-1.6.48-2.24.33-.65.8-1.157 1.39-1.52.6-.363 1.29-.544 2.08-.544.68 0 1.27.139 1.78.416.52.267.94.64 1.25 1.12.31.48.49 1.024.56 1.632h-1.35Zm1.66-2.944h1.2v-2.72h1.28v2.72h1.6v1.12h-1.6v4.912c0 .427.06.715.19.864.13.15.37.224.74.224.14 0 .25-.005.33-.016.09-.01.2-.021.34-.032v1.088c-.18.032-.33.053-.45.064-.12.01-.25.016-.4.016-.39 0-.75-.059-1.05-.176a1.414 1.414 0 0 1-.72-.672c-.18-.33-.26-.805-.26-1.424v-4.848h-1.2v-1.12Zm8.35 3.312c.36.085.72.181 1.09.288.37.107.71.256 1.01.448.3.181.55.421.73.72.18.288.27.656.27 1.104 0 .768-.28 1.381-.86 1.84-.57.448-1.37.672-2.42.672-1.17 0-2.07-.277-2.7-.832a2.838 2.838 0 0 1-.96-2.112h1.34c.02.33.11.635.26.912.15.277.39.501.72.672.34.16.79.24 1.34.24.53 0 .93-.07 1.2-.208.28-.139.47-.31.58-.512.11-.213.16-.421.16-.624 0-.373-.11-.65-.34-.832-.22-.181-.5-.31-.83-.384-.33-.085-.67-.165-1.01-.24-.35-.075-.71-.16-1.08-.256-.37-.107-.7-.245-1.01-.416-.3-.17-.55-.395-.74-.672-.18-.277-.27-.63-.27-1.056 0-.693.26-1.248.78-1.664.53-.416 1.26-.624 2.2-.624.7 0 1.29.117 1.77.352.48.224.85.533 1.11.928.25.384.4.81.44 1.28h-1.34a2.092 2.092 0 0 0-.24-.64 1.29 1.29 0 0 0-.56-.56c-.27-.16-.66-.24-1.17-.24-.57 0-1 .107-1.26.32a.966.966 0 0 0-.39.8c0 .31.1.544.31.704.2.15.47.261.8.336a30 30 0 0 1 1.07.256ZM1456.04 27V15.56h4.59c1.26 0 2.21.288 2.85.864.65.565.98 1.376.98 2.432 0 .715-.2 1.323-.6 1.824-.39.501-.89.827-1.48.976v.032c.42.085.76.267 1.02.544.26.267.45.592.58.976.12.384.21.784.25 1.2.06.416.09.81.1 1.184.02.363.05.667.08.912.04.235.11.368.21.4V27h-1.56c-.08-.085-.13-.25-.16-.496-.01-.256-.01-.56-.01-.912s-.03-.715-.08-1.088a3.85 3.85 0 0 0-.27-1.04c-.14-.32-.36-.581-.64-.784-.28-.203-.66-.304-1.14-.304h-3.28V27h-1.44Zm1.44-10.16v4.256h2.82c.87 0 1.54-.187 2.01-.56.47-.384.71-.933.71-1.648 0-.661-.21-1.168-.61-1.52-.41-.352-1.1-.528-2.07-.528h-2.86Zm11.88 10.4c-.85 0-1.58-.187-2.17-.56a3.723 3.723 0 0 1-1.35-1.552c-.3-.661-.44-1.403-.44-2.224 0-.875.16-1.632.48-2.272.33-.64.79-1.136 1.39-1.488.59-.363 1.29-.544 2.09-.544.8 0 1.48.17 2.04.512.56.33.99.8 1.29 1.408.3.597.45 1.296.45 2.096v.368c0 .117-.01.208-.02.272h-6.38c.01.48.11.944.3 1.392.2.437.48.795.87 1.072.38.277.87.416 1.47.416.53 0 .96-.096 1.28-.288.33-.203.58-.432.75-.688.17-.256.28-.48.32-.672h1.3a4.54 4.54 0 0 1-.67 1.392c-.31.416-.71.747-1.2.992-.5.245-1.09.368-1.8.368Zm-.06-7.536c-.47 0-.9.107-1.28.32-.37.203-.67.485-.9.848a2.73 2.73 0 0 0-.38 1.264h5.04c0-.448-.1-.853-.3-1.216-.21-.373-.5-.667-.87-.88-.36-.224-.8-.336-1.31-.336Zm3.81-.864h1.41l2.27 6.88h.02l2.24-6.88h1.37L1477.5 27h-1.46l-2.93-8.16Zm7.84-3.12h1.53v1.536h-1.53V15.72Zm.13 3.12h1.28V27h-1.28v-8.16Zm6.32 8.4c-.85 0-1.58-.187-2.17-.56a3.723 3.723 0 0 1-1.35-1.552c-.3-.661-.44-1.403-.44-2.224 0-.875.16-1.632.48-2.272.33-.64.79-1.136 1.39-1.488.59-.363 1.29-.544 2.09-.544.8 0 1.48.17 2.04.512.56.33.99.8 1.29 1.408.3.597.45 1.296.45 2.096v.368c0 .117-.01.208-.02.272h-6.38c.01.48.11.944.3 1.392.2.437.48.795.87 1.072.38.277.87.416 1.47.416.53 0 .96-.096 1.28-.288.33-.203.58-.432.75-.688.17-.256.28-.48.32-.672h1.3a4.54 4.54 0 0 1-.67 1.392c-.31.416-.71.747-1.2.992-.5.245-1.09.368-1.8.368Zm-.06-7.536c-.47 0-.9.107-1.28.32-.37.203-.67.485-.9.848a2.73 2.73 0 0 0-.38 1.264h5.04c0-.448-.1-.853-.3-1.216-.21-.373-.5-.667-.87-.88-.36-.224-.8-.336-1.31-.336Zm3.92-.864h1.44l1.88 6.72h.03l1.79-6.72h1.39l1.79 6.72h.04l1.88-6.72h1.4l-2.61 8.16h-1.39l-1.81-6.624h-.03L1495.25 27h-1.39l-2.6-8.16Zm15.69 3.312c.36.085.72.181 1.08.288.38.107.71.256 1.01.448.31.181.56.421.74.72.18.288.27.656.27 1.104 0 .768-.29 1.381-.86 1.84-.57.448-1.38.672-2.42.672-1.17 0-2.08-.277-2.7-.832a2.838 2.838 0 0 1-.96-2.112h1.34c.02.33.11.635.26.912.14.277.38.501.72.672.34.16.78.24 1.34.24.52 0 .92-.07 1.2-.208.28-.139.47-.31.58-.512.1-.213.16-.421.16-.624 0-.373-.12-.65-.34-.832-.22-.181-.5-.31-.83-.384-.33-.085-.67-.165-1.01-.24-.35-.075-.72-.16-1.09-.256-.36-.107-.7-.245-1.01-.416a2.17 2.17 0 0 1-.73-.672c-.18-.277-.27-.63-.27-1.056 0-.693.26-1.248.78-1.664.52-.416 1.25-.624 2.19-.624.71 0 1.3.117 1.78.352.48.224.85.533 1.1.928.26.384.41.81.45 1.28h-1.34a2.781 2.781 0 0 0-.24-.64c-.11-.224-.3-.41-.56-.56-.27-.16-.66-.24-1.17-.24-.58 0-1 .107-1.27.32a.984.984 0 0 0-.38.8c0 .31.1.544.3.704.21.15.47.261.8.336.34.075.7.16 1.08.256Z" fill="#797979"/><path d="M1836.58 19.658a4.34 4.34 0 0 0-.29-.88c-.13-.31-.32-.602-.58-.88-.25-.288-.59-.517-.99-.688-.41-.181-.91-.272-1.5-.272-.69 0-1.27.134-1.75.4-.48.267-.87.624-1.18 1.072-.3.438-.52.934-.66 1.488-.14.555-.21 1.12-.21 1.696a6.9 6.9 0 0 0 .21 1.696c.14.555.36 1.056.66 1.504.31.448.7.806 1.18 1.072.48.267 1.06.4 1.75.4.8 0 1.44-.154 1.92-.464.48-.32.83-.714 1.05-1.184.23-.47.35-.944.39-1.424h1.5c-.09.843-.34 1.595-.75 2.256-.41.65-.96 1.163-1.67 1.536-.69.374-1.51.56-2.44.56-1.05 0-1.97-.256-2.77-.768-.79-.512-1.41-1.216-1.86-2.112-.45-.896-.67-1.92-.67-3.072 0-1.152.22-2.17.67-3.056.45-.896 1.07-1.6 1.86-2.112.8-.512 1.72-.768 2.77-.768.93 0 1.75.182 2.44.544.7.363 1.25.848 1.67 1.456.41.608.66 1.275.75 2h-1.5Zm6.33 7.904c-.84 0-1.55-.181-2.15-.544a3.73 3.73 0 0 1-1.37-1.536c-.32-.65-.48-1.397-.48-2.24 0-.853.16-1.6.48-2.24a3.62 3.62 0 0 1 1.37-1.52c.6-.373 1.31-.56 2.15-.56.83 0 1.54.187 2.12.56.6.363 1.06.87 1.38 1.52.32.64.48 1.387.48 2.24 0 .843-.16 1.59-.48 2.24-.32.65-.78 1.163-1.38 1.536-.58.363-1.29.544-2.12.544Zm0-1.12c.6 0 1.1-.144 1.48-.432.4-.298.69-.688.87-1.168.19-.49.29-1.024.29-1.6 0-.586-.1-1.12-.29-1.6a2.44 2.44 0 0 0-.87-1.152c-.38-.298-.88-.448-1.48-.448-.61 0-1.11.15-1.51.448-.39.288-.69.672-.88 1.152-.18.48-.27 1.014-.27 1.6 0 .576.09 1.11.27 1.6.19.48.49.87.88 1.168.4.288.9.432 1.51.432Zm5.06.88v-8.16h1.28v.976h.03c.22-.288.54-.56.98-.816.45-.256 1.02-.384 1.71-.384.5 0 .96.096 1.36.288.42.182.75.47.99.864.26.395.39.907.39 1.536v5.696h-1.28v-5.376c0-.533-.14-.981-.42-1.344-.27-.362-.72-.544-1.36-.544-.71 0-1.3.208-1.74.624-.44.406-.66.923-.66 1.552v5.088h-1.28Zm7.39-8.16h1.2v-2.72h1.28v2.72h1.6v1.12h-1.6v4.912c0 .427.06.715.19.864.13.15.37.224.73.224.14 0 .25-.005.34-.016.09-.01.2-.021.34-.032v1.088c-.19.032-.33.054-.45.064-.12.01-.25.016-.4.016-.4 0-.75-.058-1.06-.176a1.414 1.414 0 0 1-.72-.672c-.17-.33-.25-.805-.25-1.424v-4.848h-1.2v-1.12Zm7.27 8.384c-.82 0-1.47-.213-1.96-.64-.48-.437-.72-.997-.72-1.68 0-.63.14-1.12.43-1.472.29-.352.69-.624 1.21-.816.53-.192 1.14-.352 1.84-.48.7-.128 1.21-.261 1.54-.4.33-.15.5-.421.5-.816 0-.32-.12-.597-.36-.832-.22-.245-.67-.368-1.34-.368-.78 0-1.31.128-1.6.384-.28.246-.44.667-.48 1.264h-1.34c.03-.522.16-.992.4-1.408.24-.416.62-.746 1.12-.992.5-.245 1.15-.368 1.95-.368.51 0 .99.08 1.42.24.44.16.79.432 1.06.816.28.384.41.912.41 1.584v3.92c0 .32.03.56.08.72.07.16.18.24.34.24h.08c.03 0 .07-.005.11-.016v.896c-.1.022-.21.038-.3.048-.1.022-.2.032-.32.032-.35 0-.64-.085-.85-.256-.2-.181-.32-.522-.37-1.024h-.03c-.27.438-.63.784-1.1 1.04-.46.256-1.03.384-1.72.384Zm.13-1.12c.77 0 1.41-.181 1.92-.544.53-.362.79-.933.79-1.712v-1.296c-.12.128-.36.246-.72.352-.37.107-.77.203-1.2.288-.79.17-1.37.374-1.73.608-.35.224-.53.57-.53 1.04 0 .395.11.704.34.928.23.224.61.336 1.13.336Zm11.32-4.32c-.02-.298-.1-.602-.25-.912-.14-.32-.37-.586-.69-.8-.32-.224-.75-.336-1.3-.336-.64 0-1.15.16-1.53.48-.39.32-.66.726-.83 1.216-.16.48-.24.976-.24 1.488s.08 1.014.24 1.504c.17.49.44.896.83 1.216.38.31.89.464 1.53.464.56 0 .99-.106 1.3-.32.32-.224.55-.496.69-.816.15-.33.23-.656.25-.976h1.35a3.284 3.284 0 0 1-.53 1.664c-.31.48-.73.864-1.26 1.152-.53.278-1.12.416-1.8.416-.78 0-1.48-.181-2.08-.544a3.758 3.758 0 0 1-1.39-1.504c-.32-.65-.48-1.402-.48-2.256 0-.853.16-1.6.48-2.24.33-.65.8-1.157 1.39-1.52.6-.362 1.3-.544 2.08-.544.68 0 1.27.139 1.78.416.52.267.94.64 1.25 1.12.31.48.49 1.024.56 1.632h-1.35Zm1.66-2.944h1.2v-2.72h1.28v2.72h1.6v1.12h-1.6v4.912c0 .427.06.715.19.864.13.15.38.224.74.224.14 0 .25-.005.33-.016.09-.01.2-.021.34-.032v1.088c-.18.032-.33.054-.45.064-.12.01-.25.016-.4.016-.39 0-.74-.058-1.05-.176a1.414 1.414 0 0 1-.72-.672c-.17-.33-.26-.805-.26-1.424v-4.848h-1.2v-1.12Z" fill="#151515"/><circle cx="1819.5" cy="22.5" r="2.5" fill="#151515"/><path d="M410.43 14.27h1.98v13.97h8.25V30h-10.23V14.27Zm15.736 16.06c-1.173 0-2.171-.257-2.992-.77a5.122 5.122 0 0 1-1.848-2.134c-.411-.91-.616-1.929-.616-3.058 0-1.203.22-2.244.66-3.124a4.965 4.965 0 0 1 1.914-2.046c.821-.499 1.782-.748 2.882-.748s2.031.235 2.794.704a4.473 4.473 0 0 1 1.782 1.936c.411.821.616 1.782.616 2.882v.506c0 .161-.007.286-.022.374h-8.778c.015.66.154 1.298.418 1.914.264.601.66 1.093 1.188 1.474.528.381 1.203.572 2.024.572.733 0 1.32-.132 1.76-.396.455-.279.799-.594 1.034-.946s.381-.66.44-.924h1.782a5.945 5.945 0 0 1-.924 1.914 4.554 4.554 0 0 1-1.65 1.364c-.675.337-1.496.506-2.464.506Zm-.088-10.362c-.645 0-1.232.147-1.76.44a3.246 3.246 0 0 0-1.232 1.166c-.308.499-.484 1.078-.528 1.738h6.93c0-.616-.139-1.173-.418-1.672a3.045 3.045 0 0 0-1.188-1.21c-.499-.308-1.1-.462-1.804-.462Zm5.546-1.188h1.65v-3.74h1.76v3.74h2.2v1.54h-2.2v6.754c0 .587.088.983.264 1.188.176.205.513.308 1.012.308.191 0 .345-.007.462-.022.117-.015.271-.03.462-.044V30a7.703 7.703 0 0 1-.616.088 6.122 6.122 0 0 1-.55.022c-.543 0-1.027-.08-1.452-.242-.425-.176-.755-.484-.99-.924-.235-.455-.352-1.107-.352-1.958V20.32h-1.65v-1.54Zm6.746.396v-1.1c.381-.132.645-.315.792-.55.161-.235.235-.616.22-1.144h-1.012V14.27h2.112v2.112c0 .63-.147 1.195-.44 1.694-.293.484-.851.85-1.672 1.1Zm7.508 4.158c.498.117.997.25 1.496.396.513.147.975.352 1.386.616.425.25.762.58 1.012.99.249.396.374.902.374 1.518 0 1.056-.396 1.9-1.188 2.53-.778.616-1.885.924-3.322.924-1.614 0-2.853-.381-3.718-1.144-.851-.777-1.291-1.745-1.32-2.904h1.848c.029.455.146.873.352 1.254.205.381.535.69.99.924.469.22 1.085.33 1.848.33.718 0 1.268-.095 1.65-.286.381-.19.645-.425.792-.704.146-.293.22-.58.22-.858 0-.513-.154-.895-.462-1.144-.308-.25-.69-.425-1.144-.528a38.787 38.787 0 0 0-1.386-.33c-.484-.103-.983-.22-1.496-.352a6.858 6.858 0 0 1-1.386-.572 3.057 3.057 0 0 1-1.012-.924c-.25-.381-.374-.865-.374-1.452 0-.953.359-1.716 1.078-2.288.718-.572 1.723-.858 3.014-.858.968 0 1.782.161 2.442.484.66.308 1.166.733 1.518 1.276.352.528.557 1.115.616 1.76h-1.848a3.098 3.098 0 0 0-.33-.88c-.147-.308-.404-.565-.77-.77-.367-.22-.902-.33-1.606-.33-.792 0-1.372.147-1.738.44a1.335 1.335 0 0 0-.528 1.1c0 .425.139.748.418.968.278.205.645.36 1.1.462.469.103.96.22 1.474.352Zm14.406 0c.499.117.997.25 1.496.396.513.147.975.352 1.386.616.425.25.763.58 1.012.99.249.396.374.902.374 1.518 0 1.056-.396 1.9-1.188 2.53-.777.616-1.885.924-3.322.924-1.613 0-2.853-.381-3.718-1.144-.851-.777-1.291-1.745-1.32-2.904h1.848c.029.455.147.873.352 1.254s.535.69.99.924c.469.22 1.085.33 1.848.33.719 0 1.269-.095 1.65-.286.381-.19.645-.425.792-.704.147-.293.22-.58.22-.858 0-.513-.154-.895-.462-1.144-.308-.25-.689-.425-1.144-.528a38.787 38.787 0 0 0-1.386-.33c-.484-.103-.983-.22-1.496-.352a6.858 6.858 0 0 1-1.386-.572 3.057 3.057 0 0 1-1.012-.924c-.249-.381-.374-.865-.374-1.452 0-.953.359-1.716 1.078-2.288.719-.572 1.723-.858 3.014-.858.968 0 1.782.161 2.442.484.66.308 1.166.733 1.518 1.276.352.528.557 1.115.616 1.76h-1.848a3.098 3.098 0 0 0-.33-.88c-.147-.308-.403-.565-.77-.77-.367-.22-.902-.33-1.606-.33-.792 0-1.371.147-1.738.44a1.335 1.335 0 0 0-.528 1.1c0 .425.139.748.418.968.279.205.645.36 1.1.462.469.103.961.22 1.474.352Zm4.391-4.554h1.65v-3.74h1.76v3.74h2.2v1.54h-2.2v6.754c0 .587.088.983.264 1.188.176.205.514.308 1.012.308.191 0 .345-.007.462-.022.118-.015.272-.03.462-.044V30a7.64 7.64 0 0 1-.616.088 6.107 6.107 0 0 1-.55.022 4.08 4.08 0 0 1-1.452-.242c-.425-.176-.755-.484-.99-.924-.234-.455-.352-1.107-.352-1.958V20.32h-1.65v-1.54Zm9.789 11.528c-1.13 0-2.032-.293-2.706-.88-.66-.601-.99-1.371-.99-2.31 0-.865.198-1.54.594-2.024.396-.484.953-.858 1.672-1.122.718-.264 1.562-.484 2.53-.66.953-.176 1.657-.36 2.112-.55.454-.205.682-.58.682-1.122 0-.44-.162-.821-.484-1.144-.308-.337-.924-.506-1.848-.506-1.071 0-1.804.176-2.2.528-.382.337-.602.917-.66 1.738h-1.848a4.432 4.432 0 0 1 .55-1.936c.337-.572.85-1.027 1.54-1.364.689-.337 1.584-.506 2.684-.506.704 0 1.356.11 1.958.33.601.22 1.085.594 1.452 1.122.381.528.572 1.254.572 2.178v5.39c0 .44.036.77.11.99.088.22.242.33.462.33h.11a.647.647 0 0 0 .154-.022V30c-.147.03-.286.051-.418.066-.132.03-.279.044-.44.044-.484 0-.873-.117-1.166-.352-.279-.25-.448-.719-.506-1.408h-.044a3.966 3.966 0 0 1-1.518 1.43c-.631.352-1.416.528-2.354.528Zm.176-1.54c1.056 0 1.936-.25 2.64-.748.718-.499 1.078-1.283 1.078-2.354v-1.782c-.162.176-.492.337-.99.484-.499.147-1.049.279-1.65.396-1.086.235-1.878.513-2.376.836-.484.308-.726.785-.726 1.43 0 .543.154.968.462 1.276.322.308.843.462 1.562.462Zm7.446-9.988h1.76v2.222h.044c.294-.733.682-1.335 1.166-1.804.484-.484 1.13-.726 1.936-.726.382 0 .726.022 1.034.066v1.76a4.444 4.444 0 0 0-.726-.066c-.689 0-1.298.169-1.826.506-.513.323-.916.77-1.21 1.342-.278.572-.418 1.217-.418 1.936V30h-1.76V18.78Zm6.305 0h1.65v-3.74h1.76v3.74h2.2v1.54h-2.2v6.754c0 .587.088.983.264 1.188.176.205.513.308 1.012.308.19 0 .344-.007.462-.022.117-.015.271-.03.462-.044V30a7.91 7.91 0 0 1-.616.088 6.138 6.138 0 0 1-.55.022c-.543 0-1.027-.08-1.452-.242-.426-.176-.756-.484-.99-.924-.235-.455-.352-1.107-.352-1.958V20.32h-1.65v-1.54ZM48.477 38.107c-6.094 0-9.25-5.586-7.327-13.313 1.922-7.726 7.835-13.312 13.566-13.312 3.373 0 5.005.472 5.658 2.177.218.58.762 2.539.726 3.228 0 .69-.472.943-1.016 0-1.632-2.975-3.192-4.171-5.695-4.171-4.099 0-8.234 4.679-10.084 12.079-1.85 7.4.037 12.078 4.498 12.078 2.503 0 4.643-1.197 7.799-4.171.98-.943 1.306-.69 1.016 0-.327.69-1.887 2.648-2.394 3.228-1.451 1.705-3.374 2.177-6.747 2.177ZM67.1 38.07c-2.067 0-.653-3.011 1.524-3.011 3.59 0 5.876-3.482 5.876-10.955 0-2.104-.544-3.047-1.632-3.047-3.12 0-9.867 10.266-11.499 15.09-1.052 3.01-3.083 2.14-2.611-.435 2.248-11.753 8.596-24.884 21.002-24.884 1.015 0 1.45.617 1.16 1.524-.29.943-.979 1.56-2.248 1.56-13.784 0-14.292 8.85-15.67 14.726-.146.69.254.762.58.327 4.099-5.115 8.379-10.483 10.954-10.483 1.887 0 3.011 1.124 3.011 3.228 0 7.146-6.42 16.36-10.447 16.36Zm11.66-.037c-1.452 0-2.685-.98-2.685-2.72 0-5.332 9.286-14.437 14.908-15.416 1.379-.254 1.814-.653 2.866-1.379 1.306-.907 2.249-.326 2.249.472 0 .544-.617 1.995-5.405 14.618-.363.98-.181 1.922.617 1.922 1.052 0 2.575-1.704 3.736-3.192.254-.326.798-.145.508.363-1.052 1.814-4.244 5.332-6.42 5.332-1.38 0-2.322-1.414-.799-4.68.218-.434.69-1.45.907-1.921.363-.799-.145-1.234-.798-.472a70.625 70.625 0 0 1-3.7 3.7c-2.648 2.43-4.57 3.373-5.985 3.373Zm1.704-2.503c4.534 0 12.006-10.555 12.006-13.167 0-.689-.689-1.378-1.704-1.378-5.804 0-11.608 9.54-11.608 12.986 0 .906.544 1.56 1.306 1.56Zm28.435 2.322c-1.197.544-2.321.072-1.052-2.866 4.498-10.555 5.115-12.115 5.115-12.84 0-.58-.363-.798-.798-.798-2.757 0-10.193 9.975-12.224 14.763-1.415 3.337-3.446 2.357-2.104-1.197 3.918-10.483 3.809-12.043 3.809-12.768 0-.58-.472-.798-.798-.798-1.197 0-3.12 2.647-4.135 3.663-.327.363-.726.181-.436-.29.835-1.487 4.389-6.24 7.037-6.24 1.342 0 1.995 1.307 1.052 4.608-.435 1.523-1.233 3.41-2.104 5.44-.181.436.109.726.508.436 1.161-.943 2.467-2.503 2.83-2.975 1.704-2.14 6.384-7.508 9.032-7.508 1.342 0 1.995 1.306.652 4.462-1.342 3.046-2.974 6.674-4.57 10.845-.798 2.104 1.487 1.161 3.156-.217 1.269-1.016 1.56-.182.58.761-2.031 1.96-4.208 2.938-5.55 3.519Zm8.934 7.037c-2.866 0-4.643-1.27-4.063-3.519.254-1.088.871-1.922 1.56-2.611.617-.617.617-.87.145-1.379-.471-.544-.58-1.197-.362-1.959.399-1.595 2.067-3.264 4.098-4.17.835-.364.98-.726.508-1.234-.907-.907-1.559-2.684-1.015-4.825.979-3.88 4.57-6.892 8.342-6.892 1.887 0 3.301.835 4.027 2.177.363.617 1.015.254 2.394-.834 1.269-1.016 2.358-1.342 3.119-1.342.835 0 1.234.616.871 1.56-.399.942-1.088 1.45-2.503 1.487-.834.036-1.777-.29-2.467.072-.652.326-.761 1.342-.798 1.995a9.77 9.77 0 0 1-.217 1.378c-.98 3.845-4.571 6.856-9.068 6.856-2.975 0-5.188 1.16-5.587 2.72-.253.944.254 1.56 1.234 1.56 1.958 0 6.456-2.321 10.374-2.321 3.011 0 4.353 1.45 3.809 3.663-1.161 4.716-9.178 7.618-14.401 7.618Zm2.467-1.814c6.601 0 8.959-2.176 9.54-4.498.471-1.922-.907-2.902-4.208-2.902-5.623 0-8.706 1.451-9.467 4.535-.472 1.813 1.088 2.865 4.135 2.865Zm3.373-12.369c2.43 0 4.353-2.575 5.151-5.767.762-3.156.145-5.732-2.285-5.732-2.467 0-4.389 2.576-5.151 5.732-.798 3.192-.182 5.767 2.285 5.767Zm16.018 7.364c-4.426 0-6.566-3.229-4.716-9.033 2.14-6.71 7.182-10.736 11.172-10.736 4.933 0 5.659 6.02.29 7.363l-7.472 1.85c-.725.181-1.233.653-1.378 1.415-1.052 4.425.471 7 3.337 6.964 2.358-.036 3.917-1.669 5.006-3.337.725-1.16 1.269-.653.544.471-2.068 3.301-4.752 5.043-6.783 5.043Zm3.917-12.877c2.031-.762 3.156-2.395 3.228-3.845.109-1.415-.798-1.887-1.704-1.887-2.104 0-4.281 1.778-5.695 4.498-1.234 2.648 1.269 2.285 4.171 1.233Zm7.467 12.659c-1.125.544-2.068.072-.907-2.793 4.28-10.628 4.752-12.188 4.679-12.914-.072-.58-.58-.797-.906-.797-1.197 0-3.555 2.647-4.462 3.663-.29.363-.689.181-.472-.29.69-1.487 4.462-6.24 7.11-6.24 1.342 0 2.14 1.307 1.124 4.463a257.49 257.49 0 0 0-1.85 5.586c-.145.435.291.834.472.435 2.503-4.825 6.638-10.81 9.359-10.81 1.124 0 2.14.69 2.321 2.286.218 2.067-1.451 3.337-2.213 3.337-.761 0-.399-2.43-1.741-2.43-3.99 0-8.198 9.975-11.172 14.98-.399.653-.653 1.197-1.342 1.524Zm14.558.181c-4.208 0-4.099-4.207-2.104-4.207 1.56 0 2.902 2.502 4.752 2.502 1.705 0 2.938-1.088 3.083-3.083.254-2.793-2.793-6.166-2.576-8.706.436-4.606 4.244-6.492 6.385-6.492 4.316 0 3.554 4.352 1.777 4.352-1.197 0-1.415-3.228-3.446-3.228-1.342 0-2.321 1.306-2.394 2.285-.29 3.084 2.938 6.965 2.648 10.193-.435 4.97-5.369 6.384-8.125 6.384Z" fill="#151515"/></svg>