<svg width="1920" height="577" fill="none" xmlns="http://www.w3.org/2000/svg"><path d="M-108.838 576.543c-29.558 0-63.427-44.953-20.937-44.953 27.095 0 50.495 20.321 71.432 20.321 30.174 0 51.111-40.026 86.828-162.57l49.263-173.654c6.158-20.321 6.158-36.948-20.321-40.642-20.937-3.079-19.706-16.011-.616-19.706 12.316-2.463 32.637-2.463 43.106-16.626C145.486 70.975 200.29 2.006 257.56.775c13.548 0 18.474 10.468 12.932 25.863-6.158 16.01-19.705 26.48-41.258 26.48-58.501-1.232-92.369 41.873-98.527 62.81-5.543 20.322 3.079 32.637 17.242 32.637l63.427 1.232c12.316 0-8.006 27.095-36.332 24.632-21.553-2.463-40.643-.616-43.106 10.468-30.79 92.986-59.732 187.818-68.353 220.455C30.948 524.201-46.642 576.543-108.838 576.543Zm338.154-112.69c-46.185 0-96.064-47.417-69.585-163.802 22.784-97.296 97.295-172.423 160.107-172.423 60.963 0 88.058 84.364 70.2 163.802-23.4 97.296-97.911 172.423-160.722 172.423Zm-5.543-17.858c22.785.615 66.506-40.027 89.291-87.443 39.411-79.438 67.122-213.066 11.084-213.066-24.016 0-68.353 49.88-99.143 113.923-36.332 75.127-48.032 185.354-1.232 186.586Zm181.323 16.626c-22.784 0-33.868-22.169-11.084-75.743 22.784-51.727 80.669-225.997 107.764-296.813 13.548-35.716-25.247-19.706-53.574 3.695-21.553 17.242-26.479 3.079-9.853-12.932 34.485-33.253 71.433-49.88 94.217-59.732 20.321-9.237 38.179-1.232 17.858 48.648-73.28 179.812-117.001 318.366-117.001 330.682 0 9.853 8.005 13.547 13.547 13.547 20.322 0 65.275-44.953 82.517-62.195 5.542-6.158 12.316-3.079 7.39 4.926-14.164 25.248-86.828 105.917-131.781 105.917Zm132.781 0c-22.784 0-33.868-22.169-11.084-75.743 22.784-51.727 80.669-225.997 107.764-296.813 13.548-35.716-25.247-19.706-53.574 3.695-21.553 17.242-26.479 3.079-9.853-12.932 34.485-33.253 71.432-49.88 94.217-59.732 20.321-9.237 38.179-1.232 17.858 48.648-73.28 179.812-117.001 318.366-117.001 330.682 0 9.853 8.005 13.547 13.547 13.547 20.322 0 65.275-44.953 82.517-62.195 5.542-6.158 12.316-3.079 7.389 4.926-14.163 25.248-86.827 105.917-131.78 105.917Zm196.824 1.232c-46.185 0-96.064-47.417-69.585-163.802 22.784-97.296 97.296-172.423 160.107-172.423 60.964 0 88.059 84.364 70.2 163.802-23.4 97.296-97.911 172.423-160.722 172.423Zm-5.542-17.858c22.784.615 66.506-40.027 89.29-87.443 39.411-79.438 67.122-213.066 11.084-213.066-24.016 0-68.353 49.88-99.143 113.923-36.332 75.127-48.032 185.354-1.231 186.586Zm230.028 17.242c-27.095 0-48.648-19.09-48.648-53.574 0-52.343 66.506-173.655 66.506-216.76 0-26.479-22.784-9.237-51.111 13.547-21.553 17.243-26.479 3.079-9.853-12.931 34.485-33.253 71.433-49.88 94.219-59.733 18.47-8.005 27.71-1.231 27.71 13.548 0 35.716-80.67 210.602-80.67 250.013 0 14.779 6.773 24.632 29.558 24.632 22.172 0 40.642-17.858 75.122-36.948 4.32-2.463 6.78-7.39 5.55-12.316-2.47-12.316-3.08-24.016-3.08-36.948 0-101.606 49.26-195.823 102.84-195.823 18.47 0 30.79 20.322 30.79 52.959 0 53.574-36.95 123.775-91.14 174.886-20.94 19.089 4.92 55.421 58.5 55.421 70.2 0 119.46-76.358 119.46-168.112 0-58.5-33.25-61.579-33.25-96.064 0-17.858 8.62-30.79 20.94-30.79 19.7 0 32.63 30.79 32.63 88.675 0 131.78-72.04 246.318-153.94 246.318-28.95 0-51.73-16.011-70.82-52.343-4.31-8.621-13.55-10.468-20.94-4.31-48.03 39.411-69.583 56.653-100.373 56.653Zm125.003-128.701c3.08 12.931 28.33 4.926 43.73-16.627 28.32-38.795 42.48-69.585 42.48-92.369 0-27.711-11.7-33.869-27.09-33.869-35.72 0-62.81 49.88-62.81 110.843 0 11.7.61 20.322 3.69 32.022Zm349.5 128.085c-22.79 0-34.49-22.169-13.55-75.743 20.94-51.727 48.65-113.306 73.28-184.123 12.31-35.716-25.86-19.705-53.58 3.695-20.93 17.243-26.47 3.079-10.46-12.931 33.25-33.253 69.58-49.88 92.37-59.733 19.7-9.237 49.87-.615 27.71 48.648-80.67 179.197-89.91 205.676-89.29 217.992 0 9.853 8.62 13.547 14.16 13.547 46.8 0 168.73-169.343 208.14-252.476 6.77-12.932 11.08-22.168 23.4-27.711 19.7-9.237 35.1-1.231 15.39 48.648-70.2 179.197-85.59 205.676-84.98 217.992 0 9.853 8.62 13.547 14.17 13.547 20.32 0 68.97-44.953 85.59-62.195 5.54-6.158 12.32-3.079 7.39 4.926-12.93 25.248-88.67 105.917-133.63 105.917-22.78 0-34.48-22.169-12.93-75.127 11.7-28.942 29.56-60.964 43.11-95.448 2.46-7.39-2.47-12.316-9.24-7.39-19.09 16.011-40.03 42.49-46.18 50.495-27.71 36.332-105.92 127.47-150.87 127.47Zm314.19 0c-71.44 0-69.59-71.432-35.72-71.432 26.48 0 49.26 42.49 80.67 42.49 28.94 0 49.88-18.474 52.34-52.343 4.31-47.416-47.41-104.685-43.72-147.791 7.39-78.206 72.05-110.227 108.38-110.227 73.28 0 60.35 73.895 30.17 73.895-20.32 0-24.01-54.806-58.5-54.806-22.78 0-39.41 22.169-40.64 38.796-4.92 52.342 49.88 118.232 44.95 173.038-7.38 84.364-91.13 108.38-137.93 108.38Z" fill="#151515"/></svg>