<svg width="1848" height="182" fill="none" xmlns="http://www.w3.org/2000/svg"><path d="M50.3 132.88c-33.84 0-49.5-27.72-39.96-66.06S52.82.76 84.86.76c30.96 0 34.38 4.68 33.3 32.22-.18 3.42-3.6 4.68-5.4-.54C105.92 14.08 94.4 6.88 83.24 6.88 59.3 6.88 35.18 30.1 26 66.82s.18 59.94 25.92 59.94c14.76 0 26.46-4.5 29.7-15.3 3.06-10.26 4.32-18.18 5.04-21.24 1.8-9.54-2.7-13.68-18.18-14.76-5.4-.36-4.14-4.5 1.08-4.5 10.8 0 20.88 1.26 30.6 1.26 7.2 0 13.86-.72 18.9-1.26 5.04-.36 4.32 4.14-1.08 4.68-10.98 1.26-14.94 6.84-16.92 14.4l-6.48 24.66c-1.8 6.3-18.54 18.18-44.28 18.18Zm91.974-.18c-21.96 0-32.58-16.02-23.4-44.82 10.62-33.3 35.64-53.28 55.44-53.28 24.48 0 28.08 29.88 1.44 36.54l-37.08 9.18c-3.6.9-6.12 3.24-6.84 7.02-5.22 21.96 2.34 34.74 16.56 34.56 11.7-.18 19.44-8.28 24.84-16.56 3.6-5.76 6.3-3.24 2.7 2.34-10.26 16.38-23.58 25.02-33.66 25.02Zm19.44-63.9c10.08-3.78 15.66-11.88 16.02-19.08.54-7.02-3.96-9.36-8.46-9.36-10.44 0-21.24 8.82-28.26 22.32-6.12 13.14 6.3 11.34 20.7 6.12Zm38.331 63.9c-6.66 0-12.96-6.84-8.1-21.06 4.5-12.78 20.7-57.6 21.78-61.38 1.26-4.5-1.62-6.12-12.06-5.4-4.68.36-4.86-4.14-.18-5.04 16.74-3.42 21.06-7.38 28.8-26.1 2.16-5.04 5.58-5.04 4.32-.54l-4.68 16.74c-1.26 4.32 1.44 7.38 4.68 7.38h20.7c4.32 0-3.24 7.74-7.74 7.74h-14.4c-3.6 0-5.04 2.16-6.3 5.4-1.26 3.24-15.66 43.92-20.52 58.32-.72 1.98-4.14 9.54 3.78 9.54 5.76 0 17.28-13.14 20.52-18.18 1.44-1.98 5.22-2.34 3.6 1.44-3.06 7.02-21.24 31.14-34.2 31.14Zm83.681-1.08c-5.58 2.7-10.26.36-4.5-13.86 21.24-52.74 23.58-60.48 23.22-64.08-.36-2.88-2.88-3.96-4.5-3.96-5.94 0-17.64 13.14-22.14 18.18-1.44 1.8-3.42.9-2.34-1.44 3.42-7.38 22.14-30.96 35.28-30.96 6.66 0 10.62 6.48 5.58 22.14-2.88 8.28-5.94 17.64-9.18 27.72-.72 2.16 1.44 4.14 2.34 2.16 12.42-23.94 32.94-53.64 46.44-53.64 5.58 0 10.62 3.42 11.52 11.34 1.08 10.26-7.2 16.56-10.98 16.56-3.78 0-1.98-12.06-8.64-12.06-19.8 0-40.68 49.5-55.44 74.34-1.98 3.24-3.24 5.94-6.66 7.56Zm93.589 1.08c-21.96 0-32.58-16.02-23.4-44.82 10.62-33.3 35.64-53.28 55.44-53.28 24.48 0 28.08 29.88 1.44 36.54l-37.08 9.18c-3.6.9-6.12 3.24-6.84 7.02-5.22 21.96 2.34 34.74 16.56 34.56 11.7-.18 19.44-8.28 24.84-16.56 3.6-5.76 6.3-3.24 2.7 2.34-10.26 16.38-23.58 25.02-33.66 25.02Zm19.44-63.9c10.08-3.78 15.66-11.88 16.02-19.08.54-7.02-3.96-9.36-8.46-9.36-10.44 0-21.24 8.82-28.26 22.32-6.12 13.14 6.3 11.34 20.7 6.12Zm31.49 63.72c-7.2 0-13.32-4.86-13.32-13.5 0-26.46 46.08-71.64 73.98-76.5 6.84-1.26 9-3.24 14.22-6.84 6.48-4.5 11.16-1.62 11.16 2.34 0 2.7-3.06 9.9-26.82 72.54-1.8 4.86-.9 9.54 3.06 9.54 5.22 0 12.78-8.46 18.54-15.84 1.26-1.62 3.96-.72 2.52 1.8-5.22 9-21.06 26.46-31.86 26.46-6.84 0-11.52-7.02-3.96-23.22 1.08-2.16 3.42-7.2 4.5-9.54 1.8-3.96-.72-6.12-3.96-2.34-3.96 4.32-11.88 12.42-18.36 18.36-13.14 12.06-22.68 16.74-29.7 16.74Zm8.46-12.42c22.5 0 59.58-52.38 59.58-65.34 0-3.42-3.42-6.84-8.46-6.84-28.8 0-57.6 47.34-57.6 64.44 0 4.5 2.7 7.74 6.48 7.74Zm97.006 12.6c-14.4 0-25.38-14.94-16.92-44.82 9.54-33.3 30.96-53.28 50.22-53.28 10.44 0 13.68 4.5 16.2 7.74 2.88 3.24 4.32 1.8 5.22-1.8l5.22-19.08c1.44-5.4-1.98-7.92-7.38-8.46-4.32-.36-4.32-3.42 1.08-4.32 7.92-1.26 15.48-3.24 20.16-5.76 2.52-1.44 4.5-.54 3.6 1.8-8.46 24.48-12.24 38.16-14.94 47.88l-8.82 30.96c-2.7 9.72-6.48 24.84-7.38 30.42-.9 5.58 2.34 8.1 7.74 8.64 4.32.36 4.32 3.42-1.08 4.32-7.92 1.26-15.48 3.24-20.16 5.76-2.52 1.44-4.68.54-3.6-1.8 1.44-4.14 7.2-18.36 8.64-23.22.72-1.98-1.62-2.52-3.06 0-9 16.02-21.42 25.02-34.74 25.02Zm11.16-10.8c11.16-.36 25.02-15.12 31.14-37.8l4.5-16.56c4.5-16.74-1.44-27.18-14.22-27.18-13.86 0-27.18 15.3-34.38 40.68-7.38 25.74-.9 41.22 12.96 40.86Zm55.925 59.58c-8.82 0-17.82-9.9-16.38-28.26.18-1.8 1.08-3.42 2.34-3.96 5.58-1.98 12.96-6.48 16.56-11.34 3.6-5.04.54-7.38.36-13.5-.18-3.42.9-8.1 3.06-14.04 5.76-15.12 12.06-33.12 19.08-53.82 3.6-10.44-7.56-5.76-15.48 1.08-5.94 5.04-7.56.9-3.06-3.78 9.72-9.72 20.16-14.58 26.64-17.46 5.94-2.7 11.52-.36 5.94 14.4-19.8 52.2-21.78 59.94-21.42 63.54.18 2.88 2.52 3.96 4.14 3.96 13.68 0 48.06-49.5 59.04-73.8 1.8-3.78 3.24-6.48 6.66-8.1 5.94-2.7 10.26-.36 4.68 14.22-19.44 52.38-22.5 57.6-26.28 63.9-27.36 45.18-40.5 66.78-65.88 66.96Zm6.48-10.8c29.88 0 40.68-30.96 52.02-60.3 3.24-8.28 6.84-17.64 10.62-27.72.72-2.16-.9-3.6-2.7-2.16-5.58 4.68-11.52 12.42-13.32 14.76-14.04 18.9-28.08 32.04-37.8 36-3.42 1.44-6.84 2.52-9.54 5.4-4.32 4.86-8.64 11.7-8.28 20.7.18 3.6 2.16 13.32 9 13.32Zm131.053-37.98c-6.66 0-12.96-6.84-8.1-21.06 4.5-12.78 20.7-57.6 21.78-61.38 1.26-4.5-1.62-6.12-12.06-5.4-4.68.36-4.86-4.14-.18-5.04 16.74-3.42 21.06-7.38 28.8-26.1 2.16-5.04 5.58-5.04 4.32-.54l-4.68 16.74c-1.26 4.32 1.44 7.38 4.68 7.38h20.7c4.32 0-3.24 7.74-7.74 7.74h-14.4c-3.6 0-5.04 2.16-6.3 5.4-1.26 3.24-15.66 43.92-20.52 58.32-.72 1.98-4.14 9.54 3.78 9.54 5.76 0 17.28-13.14 20.52-18.18 1.44-1.98 5.22-2.34 3.6 1.44-3.06 7.02-21.24 31.14-34.2 31.14Zm62.512.18c-13.5 0-28.08-13.86-20.34-47.88 6.66-28.44 28.44-50.4 46.8-50.4 17.82 0 25.74 24.66 20.52 47.88-6.84 28.44-28.62 50.4-46.98 50.4Zm-1.62-5.22c6.66.18 19.44-11.7 26.1-25.56 11.52-23.22 19.62-62.28 3.24-62.28-7.02 0-19.98 14.58-28.98 33.3-10.62 21.96-14.04 54.18-.36 54.54Zm174.276 5.04c-19.98 0-16.56-9-35.28-55.8-1.62-3.78-5.58-5.04-10.08-5.04-4.68 0-7.92 2.7-9 7.56-3.78 14.94-5.94 25.38-7.38 32.22-1.44 7.56 1.26 13.14 13.32 14.4 5.04.54 3.78 4.32-.9 3.96-6.84-.54-14.94-1.26-23.94-1.26-7.2 0-13.86 1.26-21.24 1.26-5.22 0-4.86-3.42.9-3.96 10.62-1.08 15.3-5.04 18.18-14.58 2.16-6.84 5.94-21.24 11.34-43.02 4.68-18.54 10.08-41.22 10.8-45.9 1.98-9.54-.9-13.5-10.8-14.58-5.58-.54-4.32-3.96.9-3.96 7.38 0 11.7 1.26 18.9 1.26 8.28 0 16.38-1.26 21.24-1.26 19.8 0 35.46 11.52 29.88 34.02-4.32 17.46-15.84 27.18-31.5 31.32-3.42.9-4.86 2.88-3.78 5.22 9 17.64 20.16 36.36 31.5 54.36 1.98 3.06 1.62 3.78-3.06 3.78Zm-43.92-65.52c21.6 0 32.22-6.66 37.8-29.16 4.5-18.18-1.44-29.52-17.1-29.52-12.96 0-13.68 3.96-16.2 13.86-2.16 7.74-6.66 23.76-10.08 37.26-1.26 4.86.72 7.56 5.58 7.56Zm73.733 65.7c-13.497 0-28.077-13.86-20.337-47.88 6.66-28.44 28.437-50.4 46.797-50.4 17.82 0 25.74 24.66 20.52 47.88-6.84 28.44-28.62 50.4-46.98 50.4Zm-1.62-5.22c6.66.18 19.44-11.7 26.1-25.56 11.52-23.22 19.62-62.28 3.24-62.28-7.02 0-19.98 14.58-28.98 33.3-10.617 21.96-14.037 54.18-.36 54.54Zm68.48 5.04c-12.06 0-18.36-7.56-18.36-22.14 0-29.52 26.1-75.96 61.02-75.96 4.68 0 11.88 1.8 15.48 5.22 4.86 4.32-3.06 10.8-9.36 10.8-7.74 0-6.66-7.74-18.36-7.74-16.92 0-33.66 39.42-33.66 61.56 0 10.8 3.6 16.02 11.34 16.02 14.04 0 23.22-14.94 26.46-18.9 1.62-2.16 4.5-.72 3.24 1.8-2.16 4.32-15.66 29.34-37.8 29.34Zm101.5-.18c-13.32 0-19.08-16.92-21.24-40.32-.72-7.38-3.96-7.74-7.2-7.74-3.42 0-6.84.54-9 8.46-1.98 7.2-8.82 29.7-11.52 36.72-2.52 6.66-10.62 4.14-9.54-1.44 1.08-6.3 32.4-97.56 32.76-106.02.18-3.06-1.62-7.38-8.1-8.28-4.5-.54-4.14-3.24 1.26-3.96 9.54-1.44 17.64-3.96 21.96-5.94 2.52-1.08 3.24-.54 3.06 1.08-.18 4.14-14.94 45.18-20.52 57.96-2.16 4.68-.36 5.76 1.8 3.42 16.92-19.62 32.94-30.96 49.32-30.96 8.46 0 14.22 4.5 13.86 12.42-.9 15.84-25.02 30.96-50.22 35.46-2.16.36-3.96 2.34-3.06 4.5 9.72 23.22 16.56 34.92 23.04 34.92 4.86 0 14.22-9.54 16.92-13.68 4.32-6.3 6.66-2.88 2.16 4.32-3.96 6.3-15.48 19.08-25.74 19.08Zm-14.04-52.56c20.52-5.76 35.1-17.46 35.46-26.64.36-5.04-1.62-8.28-8.28-8.28-11.88 0-25.74 11.88-34.02 21.42-10.62 11.7-1.44 15.66 6.84 13.5Zm87.71 52.56c-7.2 0-13.32-4.86-13.32-13.5 0-26.46 46.08-71.64 73.98-76.5 6.84-1.26 9-3.24 14.22-6.84 6.48-4.5 11.16-1.62 11.16 2.34 0 2.7-3.06 9.9-26.82 72.54-1.8 4.86-.9 9.54 3.06 9.54 5.22 0 12.78-8.46 18.54-15.84 1.26-1.62 3.96-.72 2.52 1.8-5.22 9-21.06 26.46-31.86 26.46-6.84 0-11.52-7.02-3.96-23.22 1.08-2.16 3.42-7.2 4.5-9.54 1.8-3.96-.72-6.12-3.96-2.34-3.96 4.32-11.88 12.42-18.36 18.36-13.14 12.06-22.68 16.74-29.7 16.74Zm8.46-12.42c22.5 0 59.58-52.38 59.58-65.34 0-3.42-3.42-6.84-8.46-6.84-28.8 0-57.6 47.34-57.6 64.44 0 4.5 2.7 7.74 6.48 7.74Zm139.31 11.52c-5.94 2.7-11.52.36-5.22-14.22 22.32-52.38 25.38-60.12 25.38-63.72 0-2.88-1.8-3.96-3.96-3.96-13.68 0-50.58 49.5-60.66 73.26-7.02 16.56-17.1 11.7-10.44-5.94 19.44-52.02 18.9-59.76 18.9-63.36 0-2.88-2.34-3.96-3.96-3.96-5.94 0-15.48 13.14-20.52 18.18-1.62 1.8-3.6.9-2.16-1.44 4.14-7.38 21.78-30.96 34.92-30.96 6.66 0 9.9 6.48 5.22 22.86-2.16 7.56-6.12 16.92-10.44 27-.9 2.16.54 3.6 2.52 2.16 5.76-4.68 12.24-12.42 14.04-14.76 8.46-10.62 31.68-37.26 44.82-37.26 6.66 0 9.9 6.48 3.24 22.14-6.66 15.12-14.76 33.12-22.68 53.82-3.96 10.44 7.38 5.76 15.66-1.08 6.3-5.04 7.74-.9 2.88 3.78-10.08 9.72-20.88 14.58-27.54 17.46Zm55.13 1.08c-14.4 0-25.38-14.94-16.92-44.82 9.54-33.3 30.96-53.28 50.22-53.28 10.44 0 13.68 4.5 16.2 7.74 2.88 3.24 4.32 1.8 5.22-1.8l5.22-19.08c1.44-5.4-1.98-7.92-7.38-8.46-4.32-.36-4.32-3.42 1.08-4.32 7.92-1.26 15.48-3.24 20.16-5.76 2.52-1.44 4.5-.54 3.6 1.8-8.46 24.48-12.24 38.16-14.94 47.88l-8.82 30.96c-2.7 9.72-6.48 24.84-7.38 30.42-.9 5.58 2.34 8.1 7.74 8.64 4.32.36 4.32 3.42-1.08 4.32-7.92 1.26-15.48 3.24-20.16 5.76-2.52 1.44-4.68.54-3.6-1.8 1.44-4.14 7.2-18.36 8.64-23.22.72-1.98-1.62-2.52-3.06 0-9 16.02-21.42 25.02-34.74 25.02Zm11.16-10.8c11.16-.36 25.02-15.12 31.14-37.8l4.5-16.56c4.5-16.74-1.44-27.18-14.22-27.18-13.86 0-27.18 15.3-34.38 40.68-7.38 25.74-.9 41.22 12.96 40.86Zm179.7 10.8c-19.98 0-16.56-9-35.28-55.8-1.62-3.78-5.58-5.04-10.08-5.04-4.68 0-7.92 2.7-9 7.56-3.78 14.94-5.94 25.38-7.38 32.22-1.44 7.56 1.26 13.14 13.32 14.4 5.04.54 3.78 4.32-.9 3.96-6.84-.54-14.94-1.26-23.94-1.26-7.2 0-13.86 1.26-21.24 1.26-5.22 0-4.86-3.42.9-3.96 10.62-1.08 15.3-5.04 18.18-14.58 2.16-6.84 5.94-21.24 11.34-43.02 4.68-18.54 10.08-41.22 10.8-45.9 1.98-9.54-.9-13.5-10.8-14.58-5.58-.54-4.32-3.96.9-3.96 7.38 0 11.7 1.26 18.9 1.26 8.28 0 16.38-1.26 21.24-1.26 19.8 0 35.46 11.52 29.88 34.02-4.32 17.46-15.84 27.18-31.5 31.32-3.42.9-4.86 2.88-3.78 5.22 9 17.64 20.16 36.36 31.5 54.36 1.98 3.06 1.62 3.78-3.06 3.78Zm-43.92-65.52c21.6 0 32.22-6.66 37.8-29.16 4.5-18.18-1.44-29.52-17.1-29.52-12.96 0-13.68 3.96-16.2 13.86-2.16 7.74-6.66 23.76-10.08 37.26-1.26 4.86.72 7.56 5.58 7.56Zm73.73 65.7c-13.5 0-28.08-13.86-20.34-47.88 6.66-28.44 28.44-50.4 46.8-50.4 17.82 0 25.74 24.66 20.52 47.88-6.84 28.44-28.62 50.4-46.98 50.4Zm-1.62-5.22c6.66.18 19.44-11.7 26.1-25.56 11.52-23.22 19.62-62.28 3.24-62.28-7.02 0-19.98 14.58-28.98 33.3-10.62 21.96-14.04 54.18-.36 54.54Zm56.6 4.86c-6.66 0-9.9-6.48-3.24-22.14 6.66-15.12 23.58-66.06 31.5-86.76 3.96-10.44-7.38-5.76-15.66 1.08-6.3 5.04-7.74.9-2.88-3.78 10.08-9.72 20.88-14.58 27.54-17.46 5.94-2.7 11.16-.36 5.22 14.22-21.42 52.56-34.2 93.06-34.2 96.66 0 2.88 2.34 3.96 3.96 3.96 5.94 0 19.08-13.14 24.12-18.18 1.62-1.8 3.6-.9 2.16 1.44-4.14 7.38-25.38 30.96-38.52 30.96Zm42.42 0c-6.66 0-9.9-6.48-3.24-22.14 6.66-15.12 23.58-66.06 31.5-86.76 3.96-10.44-7.38-5.76-15.66 1.08-6.3 5.04-7.74.9-2.88-3.78 10.08-9.72 20.88-14.58 27.54-17.46 5.94-2.7 11.16-.36 5.22 14.22-21.42 52.56-34.2 93.06-34.2 96.66 0 2.88 2.34 3.96 3.96 3.96 5.94 0 19.08-13.14 24.12-18.18 1.62-1.8 3.6-.9 2.16 1.44-4.14 7.38-25.38 30.96-38.52 30.96Zm56.09-42.66c-2.34 9.18-7.56 9.36-5.04-.36 7.92-32.22 10.98-61.2 12.24-68.58 1.44-10.62 7.02-13.5 10.8-13.5 3.24 0 7.56 2.88 4.32 12.96-2.52 7.92-14.22 36.9-22.32 69.48Zm-12.78 40.86c-5.22 0-8.64-4.5-7.38-9.72 1.26-5.22 6.84-9.36 12.06-9.54 5.4-.18 8.64 4.32 7.38 9.54-1.26 5.22-6.84 9.72-12.06 9.72Z" fill="#151515"/></svg>