<svg width="64" height="64" fill="none" xmlns="http://www.w3.org/2000/svg"><path d="M31.805 51.077c-10.597 0-19.223-8.625-19.223-19.222 0-10.597 8.626-19.222 19.223-19.222 10.596 0 19.221 8.625 19.221 19.222 0 10.597-8.625 19.222-19.222 19.222Zm0-35.344c-8.892 0-16.122 7.23-16.122 16.122 0 8.891 7.23 16.122 16.122 16.122 8.891 0 16.121-7.23 16.121-16.122s-7.23-16.122-16.122-16.122Z" fill="#fff"/><path d="M26.223 29.964c-3.633 0-7.564-.54-11.756-1.63a1.548 1.548 0 0 1-1.11-1.892 1.548 1.548 0 0 1 1.891-1.11c12.7 3.299 22.639 1.21 28.74-6.033a1.551 1.551 0 0 1 2.183-.186c.657.552.738 1.532.186 2.183-4.843 5.748-11.688 8.668-20.134 8.668Zm-7.749 15.041a1.54 1.54 0 0 1-1.005-.372 1.558 1.558 0 0 1-.173-2.189c9.065-10.597 20.797-13.114 32.187-6.895.75.41 1.03 1.352.62 2.102a1.551 1.551 0 0 1-2.102.62c-13.678-7.46-23.63.676-28.349 6.194a1.55 1.55 0 0 1-1.178.54Z" fill="#fff"/><path d="M36.883 50.332c-.056 0-.111 0-.167-.006a1.549 1.549 0 0 1-1.37-1.711c1.209-11.087-1.644-22.267-8.47-33.242a1.549 1.549 0 0 1 2.628-1.637c7.206 11.577 10.207 23.426 8.923 35.22a1.555 1.555 0 0 1-1.544 1.376Z" fill="#fff"/></svg>