<?xml version="1.0" encoding="utf-8"?>
<!-- Generator: Adobe Illustrator 22.1.0, SVG Export Plug-In . SVG Version: 6.00 Build 0)  -->
<svg version="1.1" id="Layer_1" xmlns="http://www.w3.org/2000/svg" xmlns:xlink="http://www.w3.org/1999/xlink" x="0px" y="0px"
	 viewBox="0 0 766.6 769.2" style="enable-background:new 0 0 766.6 769.2;" xml:space="preserve">
<style type="text/css">
	.st0{opacity:0.1;fill:#4D5A85;enable-background:new    ;}
	.st1{fill:url(#SVGID_1_);}
	.st2{fill:#ECE0D3;}
	.st3{fill:#EFC33B;}
	.st4{fill:#C55469;}
	.st5{fill:#454F78;}
	.st6{fill:#BA745D;}
</style>
<g>
	<path class="st0" d="M533.4,611.9h-12.8v18h12.8V611.9z"/>
	
		<linearGradient id="SVGID_1_" gradientUnits="userSpaceOnUse" x1="386.1499" y1="-374.4076" x2="386.1499" y2="-141.1795" gradientTransform="matrix(1 0 0 1 0 807.09)">
		<stop  offset="0" style="stop-color:#72E7ED"/>
		<stop  offset="1" style="stop-color:#72E7ED;stop-opacity:0"/>
	</linearGradient>
	<path class="st1" d="M702.8,438.2h-7.9h-3.1h-24.2v-0.8h-16.3h-6.8h-16.3h-21.8h-13.3h-20v0.1h-28.8h-21.8h-38.7v0.3H481h-2.1h-11
		h-16.6v0.3h-9.8h-6.9h-6.9h-2.4v-0.3h-14.9h-24.1h-21.5h-14.9v0.4h-24.8h-15.6v-0.4v-0.3h-32.9v0.3H267h-24v0.4h-25.4v-0.4H176
		h-10.9h-10.9h-41.6v0.4h-5v-0.4H85.5h-8.1h-8.1H47.4v53.1h12.8v11.2h17.3h8.1v36.4h27.1v37.6h12.9c0,0.9,0.9,1.7,2.1,1.7h2.3v56.1
		h2.2v-56.1h2.3c1.1,0,2.1-0.7,2.1-1.7h28.5v0.1h27.7v29.7h7.8V632h7.8v17h9v12.7h15.1h13V649h9v-17h7.8v-26.1h7.8V542h9.3v63.9h4.5
		v14.2h17.7v-14.2h4.2v-28.3h19.3H350v40.7h16.4v13.4c0,1.6,1.6,2.7,3.4,2.7h29v50.5v22.6h35.7h6.9l1,61.7h4.2l1-61.7h22.9v-22.6
		v-58v-4v-24.4v-4.2v-61h8.3v62.3h33.7v-27.8h21.1h23.2v-30.4h26.3v-5.5h1.6v-3.7h-1.6v-45.7h6.5v109.4v3.8h-1.7v2.3h1.8v4.4
		c0,0.9,0.9,1.7,2.1,1.7c1.1,0,2.1-0.7,2.1-1.7v-4.5h6.5v28.7v6h-1.7v1.8h1.7v2.7c0,0.9,0.9,1.7,2.1,1.7s2.1-0.7,2.1-1.7v-2.4h2.1
		l13.2,32.1l13.2-32.1h2.1v2.7c0,0.9,0.9,1.7,2.1,1.7c1.1,0,2.1-0.7,2.1-1.7v-2.7h2.3v-1.8h-2.3v-6v-28.7h6.5v4.4
		c0,0.9,0.9,1.7,2.1,1.7c1.1,0,2.1-0.7,2.1-1.7v-4.4h1.8v-2.3h-1.8v-3.8v-74c0.2,0,0.4,0,0.6,0c0.4,0,0.8-0.1,1.2-0.1
		c0.2,0,0.5-0.1,0.7-0.1c0.3,0,0.7-0.1,1-0.1s0.5-0.1,0.8-0.1c0.3-0.1,0.6-0.1,0.9-0.2c0.3-0.1,0.5-0.1,0.8-0.2
		c0.3-0.1,0.5-0.1,0.8-0.2c0.3-0.1,0.5-0.2,0.8-0.2c0.2-0.1,0.5-0.1,0.7-0.2c0.3-0.1,0.6-0.2,0.8-0.3s0.4-0.2,0.6-0.2
		c0.3-0.1,0.6-0.2,0.8-0.4c0.2-0.1,0.3-0.1,0.4-0.2c0.3-0.1,0.6-0.3,0.8-0.4c0.1-0.1,0.2-0.1,0.3-0.2c0.3-0.2,0.6-0.4,0.9-0.5
		l0.1-0.1c2.1-1.5,3.5-3.2,3.9-5.2h0.4c1,0,1.9-0.6,1.9-1.5s-0.8-1.5-1.9-1.5h-0.3V483v-9.1h24.3v16h4.3c-0.1,0.1-0.1,0.3-0.1,0.5
		c0,0.7,0.7,1.2,1.7,1.2H719c0.9,0,1.7-0.6,1.7-1.2c0-0.2,0-0.3-0.1-0.5h4.3v-51.3h-11h-11.3v-0.4H702.8z"/>
</g>
<path class="st2" d="M433.4,681.9"/>
<path class="st2" d="M462.7,681.9l2-18.4"/>
<path class="st3" d="M438.2,433.5"/>
<path class="st3" d="M488.8,446.4"/>
<path class="st4" d="M533.6,495.7"/>
<path class="st4" d="M532.3,494.8c-0.3,0.3-0.2,0.9,0.2,1.1"/>
<path class="st4" d="M548.6,472.2c-0.3-0.3-0.9-0.1-1.1,0.3"/>
<path class="st2" d="M406.6,682.4h17.7"/>
<path class="st2" d="M421.2,646.5l-8.8,5.3"/>
<path class="st2" d="M437.1,672.5"/>
<path class="st5" d="M324.3,491.5c0.2,0,0.3,0,0.4-0.1"/>
<path class="st5" d="M315.1,476.3"/>
<path class="st2" d="M509.1,461.5"/>
<path class="st2" d="M588.4,442.6"/>
<path class="st3" d="M541.5,444.4"/>
<path class="st3" d="M559.9,441.9"/>
<path class="st6" d="M511.8,525.3"/>
<path class="st6" d="M510.5,524.4c-0.3,0.3-0.2,0.8,0.2,1.1"/>
<path class="st6" d="M523.6,506.3"/>
</svg>
