<?xml version="1.0" encoding="utf-8"?>
<!-- Generator: Adobe Illustrator 17.1.0, SVG Export Plug-In . SVG Version: 6.00 Build 0)  -->
<!DOCTYPE svg PUBLIC "-//W3C//DTD SVG 1.1//EN" "http://www.w3.org/Graphics/SVG/1.1/DTD/svg11.dtd">
<svg version="1.1" id="Layer_1" xmlns="http://www.w3.org/2000/svg" xmlns:xlink="http://www.w3.org/1999/xlink" x="0px" y="0px"
	 viewBox="0 0 831 822" enable-background="new 0 0 831 822" xml:space="preserve">
<g>
	<path opacity="0.1" fill="#4D5A85" enable-background="new    " d="M561.3,645h-12.8v18h12.8V645z"/>
	
		<linearGradient id="SVGID_1_" gradientUnits="userSpaceOnUse" x1="414.1829" y1="357.3076" x2="414.1829" y2="124.0795" gradientTransform="matrix(1 0 0 -1 0 823.09)">
		<stop  offset="0" style="stop-color:#72E7ED"/>
		<stop  offset="1" style="stop-color:#72E7ED;stop-opacity:0"/>
	</linearGradient>
	<path fill="url(#SVGID_1_)" d="M730.7,471.3h-7.9h-3.1h-24.2v-0.8h-16.3h-6.8h-16.3h-21.8H621h-20v0.1h-28.8h-21.8h-38.7v0.3h-2.8
		h-2.1h-11h-16.6v0.3h-9.8h-6.9h-6.9h-2.4v-0.3h-14.9h-24.1h-21.5h-14.9v0.4H353h-15.6v-0.4v-0.3h-32.9v0.3h-9.6h-24v0.4h-25.4v-0.4
		h-41.6H193h-10.9h-41.6v0.4h-5v-0.4h-22.1h-8.1h-8.1H75.3V524h12.8v11.2h17.3h8.1v36.4h27.1v37.6h12.9c0,0.9,0.9,1.7,2.1,1.7h2.3
		V667h2.2v-56.1h2.3c1.1,0,2.1-0.7,2.1-1.7H193v0.1h27.7V639h7.8v26.1h7.8v17h9v12.7h15.1h13v-12.7h9v-17h7.8V639h7.8v-63.9h9.3V639
		h4.5v14.2h17.7V639h4.2v-28.3H353h24.9v40.7h16.4v13.4c0,1.6,1.6,2.7,3.4,2.7h29v50.5v22.6h35.7h6.9l1,61.7h4.2l1-61.7h22.9v-22.6
		v-58V656v-24.4v-4.2v-61h8.3v62.3h33.7v-27.8h21.1h23.2v-30.4h26.3V565h1.6v-3.7h-1.6v-45.7h6.5v109.4v3.8h-1.7v2.3h1.8v4.4
		c0,0.9,0.9,1.7,2.1,1.7c1.1,0,2.1-0.7,2.1-1.7V631h6.5v28.7v6h-1.7v1.8h1.7v2.7c0,0.9,0.9,1.7,2.1,1.7s2.1-0.7,2.1-1.7v-2.4h2.1
		l13.2,32.1l13.2-32.1h2.1v2.7c0,0.9,0.9,1.7,2.1,1.7c1.1,0,2.1-0.7,2.1-1.7v-2.7h2.3V666h-2.3v-6v-28.7h6.5v4.4
		c0,0.9,0.9,1.7,2.1,1.7c1.1,0,2.1-0.7,2.1-1.7v-4.4h1.8v-2.3h-1.8v-3.8v-74c0.2,0,0.4,0,0.6,0c0.4,0,0.8-0.1,1.2-0.1
		c0.2,0,0.5-0.1,0.7-0.1c0.3,0,0.7-0.1,1-0.1c0.3,0,0.5-0.1,0.8-0.1c0.3-0.1,0.6-0.1,0.9-0.2c0.3-0.1,0.5-0.1,0.8-0.2
		c0.3-0.1,0.5-0.1,0.8-0.2c0.3-0.1,0.5-0.2,0.8-0.2c0.2-0.1,0.5-0.1,0.7-0.2c0.3-0.1,0.6-0.2,0.8-0.3c0.2-0.1,0.4-0.2,0.6-0.2
		c0.3-0.1,0.6-0.2,0.8-0.4c0.2-0.1,0.3-0.1,0.4-0.2c0.3-0.1,0.6-0.3,0.8-0.4c0.1-0.1,0.2-0.1,0.3-0.2c0.3-0.2,0.6-0.4,0.9-0.5
		l0.1-0.1c2.1-1.5,3.5-3.2,3.9-5.2h0.4c1,0,1.9-0.6,1.9-1.5s-0.8-1.5-1.9-1.5h-0.3v-23.2V507h24.3v16h4.3c-0.1,0.1-0.1,0.3-0.1,0.5
		c0,0.7,0.7,1.2,1.7,1.2h21.7c0.9,0,1.7-0.6,1.7-1.2c0-0.2,0-0.3-0.1-0.5h4.3v-51.3h-11h-11.3V471.3z"/>
	<path fill="#8BD6EA" d="M722.9,406.9h-33.2v44.7h33.2V406.9z"/>
	<path fill="#8BD6EA" d="M540.4,252.2h-33.7v199.8h33.7V252.2z"/>
	<path fill="#DDB266" d="M673.7,257.1c0,1.1,0.9,2.1,2.1,2.1c1.1,0,2.1-0.9,2.1-2.1v-13.3c0-1.1-0.9-2.1-2.1-2.1
		c-1.1,0-2.1,0.9-2.1,2.1V257.1z"/>
	<path fill="#DDB266" d="M617.6,257.1c0,1.1,0.9,2.1,2.1,2.1c1.1,0,2.1-0.9,2.1-2.1v-13.3c0-1.1-0.9-2.1-2.1-2.1
		c-1.1,0-2.1,0.9-2.1,2.1V257.1z"/>
	<path fill="#DDB266" d="M628.3,213.1c0,1.1,0.9,2.1,2.1,2.1s2.1-0.9,2.1-2.1v-13.3c0-1.1-0.9-2.1-2.1-2.1s-2.1,0.9-2.1,2.1V213.1z"
		/>
	<path fill="#DDB266" d="M663,213.1c0,1.1,0.9,2.1,2.1,2.1c1.1,0,2.1-0.9,2.1-2.1v-13.3c0-1.1-0.9-2.1-2.1-2.1
		c-1.1,0-2.1,0.9-2.1,2.1V213.1z"/>
	<path fill="#FFD894" d="M677.8,249.3h-60.2V452h60.2V249.3z"/>
	<path fill="#FFD894" d="M667.1,203.3h-38.8v46h38.8V203.3z"/>
	<path fill="#AA472D" d="M634.5,203.3l13.2-40.5l13.1,40.5H634.5z"/>
	<path fill="#6DD3E2" d="M637.4,208.2c-1.8,0-3.2,1.5-3.2,3.2v6.6h6.4v-6.6C640.6,209.6,639.2,208.2,637.4,208.2z"/>
	<path fill="#6DD3E2" d="M647.7,208.2c-1.8,0-3.2,1.5-3.2,3.2v6.6h6.4v-6.6C650.9,209.6,649.5,208.2,647.7,208.2z"/>
	<path fill="#6DD3E2" d="M657.9,208.2c-1.8,0-3.2,1.5-3.2,3.2v6.6h6.4v-6.6C661.1,209.6,659.6,208.2,657.9,208.2z"/>
	<path fill="#6DD3E2" d="M637.4,222.1c-1.8,0-3.2,1.5-3.2,3.2v6.6h6.4v-6.6C640.6,223.5,639.2,222.1,637.4,222.1z"/>
	<path fill="#6DD3E2" d="M647.7,222.1c-1.8,0-3.2,1.5-3.2,3.2v6.6h6.4v-6.6C650.9,223.5,649.5,222.1,647.7,222.1z"/>
	<path fill="#6DD3E2" d="M657.9,222.1c-1.8,0-3.2,1.5-3.2,3.2v6.6h6.4v-6.6C661.1,223.5,659.6,222.1,657.9,222.1z"/>
	<path fill="#6DD3E2" d="M637.4,235.4c-1.8,0-3.2,1.5-3.2,3.2v6.6h6.4v-6.6C640.6,236.7,639.2,235.4,637.4,235.4z"/>
	<path fill="#6DD3E2" d="M647.7,235.4c-1.8,0-3.2,1.5-3.2,3.2v6.6h6.4v-6.6C650.9,236.7,649.5,235.4,647.7,235.4z"/>
	<path fill="#6DD3E2" d="M657.9,235.4c-1.8,0-3.2,1.5-3.2,3.2v6.6h6.4v-6.6C661.1,236.7,659.6,235.4,657.9,235.4z"/>
	<path fill="#6DD3E2" d="M628.7,257c-2.1,0-3.8,1.8-3.8,3.8v7.9h7.7v-7.9C632.5,258.7,630.9,257,628.7,257z"/>
	<path fill="#6DD3E2" d="M641,257c-2.1,0-3.8,1.8-3.8,3.8v7.9h7.7v-7.9C644.9,258.7,643.1,257,641,257z"/>
	<path fill="#6DD3E2" d="M653.3,257c-2.1,0-3.8,1.8-3.8,3.8v7.9h7.7v-7.9C657.1,258.7,655.4,257,653.3,257z"/>
	<path fill="#6DD3E2" d="M628.7,273.8c-2.1,0-3.8,1.8-3.8,3.8v7.9h7.7v-7.9C632.5,275.6,630.9,273.8,628.7,273.8z"/>
	<path fill="#6DD3E2" d="M641,273.8c-2.1,0-3.8,1.8-3.8,3.8v7.9h7.7v-7.9C644.9,275.6,643.1,273.8,641,273.8z"/>
	<path fill="#6DD3E2" d="M653.3,273.8c-2.1,0-3.8,1.8-3.8,3.8v7.9h7.7v-7.9C657.1,275.6,655.4,273.8,653.3,273.8z"/>
	<path fill="#6DD3E2" d="M628.7,289.7c-2.1,0-3.8,1.8-3.8,3.8v7.9h7.7v-7.9C632.5,291.5,630.9,289.7,628.7,289.7z"/>
	<path fill="#6DD3E2" d="M641,289.7c-2.1,0-3.8,1.8-3.8,3.8v7.9h7.7v-7.9C644.9,291.5,643.1,289.7,641,289.7z"/>
	<path fill="#6DD3E2" d="M653.3,289.7c-2.1,0-3.8,1.8-3.8,3.8v7.9h7.7v-7.9C657.1,291.5,655.4,289.7,653.3,289.7z"/>
	<path fill="#6DD3E2" d="M665.6,257c-2.1,0-3.8,1.8-3.8,3.8v7.9h7.7v-7.9C669.4,258.7,667.6,257,665.6,257z"/>
	<path fill="#6DD3E2" d="M665.6,273.8c-2.1,0-3.8,1.8-3.8,3.8v7.9h7.7v-7.9C669.4,275.6,667.6,273.8,665.6,273.8z"/>
	<path fill="#6DD3E2" d="M665.6,289.7c-2.1,0-3.8,1.8-3.8,3.8v7.9h7.7v-7.9C669.4,291.5,667.6,289.7,665.6,289.7z"/>
	<path fill="#6DD3E2" d="M628.7,307.6c-2.1,0-3.8,1.8-3.8,3.8v7.9h7.7v-7.9C632.5,309.3,630.9,307.6,628.7,307.6z"/>
	<path fill="#6DD3E2" d="M641,307.6c-2.1,0-3.8,1.8-3.8,3.8v7.9h7.7v-7.9C644.9,309.3,643.1,307.6,641,307.6z"/>
	<path fill="#6DD3E2" d="M653.3,307.6c-2.1,0-3.8,1.8-3.8,3.8v7.9h7.7v-7.9C657.1,309.3,655.4,307.6,653.3,307.6z"/>
	<path fill="#6DD3E2" d="M628.7,324.4c-2.1,0-3.8,1.8-3.8,3.8v7.9h7.7v-7.9C632.5,326,630.9,324.4,628.7,324.4z"/>
	<path fill="#6DD3E2" d="M641,324.4c-2.1,0-3.8,1.8-3.8,3.8v7.9h7.7v-7.9C644.9,326,643.1,324.4,641,324.4z"/>
	<path fill="#6DD3E2" d="M653.3,324.4c-2.1,0-3.8,1.8-3.8,3.8v7.9h7.7v-7.9C657.1,326,655.4,324.4,653.3,324.4z"/>
	<path fill="#6DD3E2" d="M628.7,340.3c-2.1,0-3.8,1.8-3.8,3.8v7.9h7.7v-7.9C632.5,341.9,630.9,340.3,628.7,340.3z"/>
	<path fill="#6DD3E2" d="M641,340.3c-2.1,0-3.8,1.8-3.8,3.8v7.9h7.7v-7.9C644.9,341.9,643.1,340.3,641,340.3z"/>
	<path fill="#6DD3E2" d="M653.3,340.3c-2.1,0-3.8,1.8-3.8,3.8v7.9h7.7v-7.9C657.1,341.9,655.4,340.3,653.3,340.3z"/>
	<path fill="#6DD3E2" d="M665.6,307.6c-2.1,0-3.8,1.8-3.8,3.8v7.9h7.7v-7.9C669.4,309.3,667.6,307.6,665.6,307.6z"/>
	<path fill="#6DD3E2" d="M665.6,324.4c-2.1,0-3.8,1.8-3.8,3.8v7.9h7.7v-7.9C669.4,326,667.6,324.4,665.6,324.4z"/>
	<path fill="#6DD3E2" d="M665.6,340.3c-2.1,0-3.8,1.8-3.8,3.8v7.9h7.7v-7.9C669.4,341.9,667.6,340.3,665.6,340.3z"/>
	<path fill="#6DD3E2" d="M628.7,358.1c-2.1,0-3.8,1.8-3.8,3.8v7.9h7.7V362C632.5,359.8,630.9,358.1,628.7,358.1z"/>
	<path fill="#6DD3E2" d="M641,358.1c-2.1,0-3.8,1.8-3.8,3.8v7.9h7.7V362C644.9,359.8,643.1,358.1,641,358.1z"/>
	<path fill="#6DD3E2" d="M653.3,358.1c-2.1,0-3.8,1.8-3.8,3.8v7.9h7.7V362C657.1,359.8,655.4,358.1,653.3,358.1z"/>
	<path fill="#6DD3E2" d="M628.7,375c-2.1,0-3.8,1.8-3.8,3.8v7.9h7.7v-7.9C632.5,376.6,630.9,375,628.7,375z"/>
	<path fill="#6DD3E2" d="M641,375c-2.1,0-3.8,1.8-3.8,3.8v7.9h7.7v-7.9C644.9,376.6,643.1,375,641,375z"/>
	<path fill="#6DD3E2" d="M653.3,375c-2.1,0-3.8,1.8-3.8,3.8v7.9h7.7v-7.9C657.1,376.6,655.4,375,653.3,375z"/>
	<path fill="#6DD3E2" d="M628.7,390.8c-2.1,0-3.8,1.8-3.8,3.8v7.9h7.7v-7.9C632.5,392.5,630.9,390.8,628.7,390.8z"/>
	<path fill="#6DD3E2" d="M641,390.8c-2.1,0-3.8,1.8-3.8,3.8v7.9h7.7v-7.9C644.9,392.5,643.1,390.8,641,390.8z"/>
	<path fill="#6DD3E2" d="M653.3,390.8c-2.1,0-3.8,1.8-3.8,3.8v7.9h7.7v-7.9C657.1,392.5,655.4,390.8,653.3,390.8z"/>
	<path fill="#6DD3E2" d="M665.6,358.1c-2.1,0-3.8,1.8-3.8,3.8v7.9h7.7V362C669.4,359.8,667.6,358.1,665.6,358.1z"/>
	<path fill="#6DD3E2" d="M665.6,375c-2.1,0-3.8,1.8-3.8,3.8v7.9h7.7v-7.9C669.4,376.6,667.6,375,665.6,375z"/>
	<path fill="#6DD3E2" d="M665.6,390.8c-2.1,0-3.8,1.8-3.8,3.8v7.9h7.7v-7.9C669.4,392.5,667.6,390.8,665.6,390.8z"/>
	<path fill="#DDB266" d="M679.5,249.3h-63.7v2.9h63.7V249.3z"/>
	<path fill="#DDB266" d="M669.4,203.3h-42.9v2.3h42.9V203.3z"/>
	<path fill="#FFE9C5" d="M677.8,406.9h-60.2V452h60.2V406.9z"/>
	<path fill="#DDB266" d="M654.7,433.7h-14v17.9h14V433.7z"/>
	<g opacity="0.2">
		<path opacity="0.2" fill="#4D5A85" enable-background="new    " d="M677.8,249.3v-5.5c0-1.1-0.9-2.1-2.1-2.1
			c-1.1,0-2.1,0.9-2.1,2.1v5.5h-6.5v-36.1v-7.6h2.3v-2.3h-2.3v-3.4c0-1.1-0.9-2.1-2.1-2.1c-1.1,0-2.1,0.9-2.1,2.1v3.4h-2.1
			l-13.2-40.5V452h30.1v-45.2V257.1v-4.9h1.8v-2.9H677.8z"/>
	</g>
	<path fill="none" stroke="#AB5306" stroke-width="3" stroke-miterlimit="10" d="M551.9,276.3l-2.3,11.9"/>
	<path fill="none" stroke="#AB5306" stroke-width="3" stroke-miterlimit="10" d="M557.8,276.3l2.6,11.9"/>
	<path fill="#FFBA7B" d="M561.3,259.9h-12.8v18h12.8V259.9z"/>
	<path fill="#E28A32" d="M584.6,325.7v-38.4h-46.7v38.4h-26.3v126.6h99.3V325.7H584.6z"/>
	<path fill="#A4F4FF" d="M550.7,292.1h-9.3v9.7h9.3V292.1z"/>
	<path fill="#A4F4FF" d="M565.9,292.1h-9.3v9.7h9.3V292.1z"/>
	<path fill="#A4F4FF" d="M581.2,292.1h-9.3v9.7h9.3V292.1z"/>
	<path fill="#A4F4FF" d="M550.7,306.2h-9.3v9.7h9.3V306.2z"/>
	<path fill="#A4F4FF" d="M565.9,306.2h-9.3v9.7h9.3V306.2z"/>
	<path fill="#A4F4FF" d="M581.2,306.2h-9.3v9.7h9.3V306.2z"/>
	<path fill="#A4F4FF" d="M550.7,320.4h-9.3v9.7h9.3V320.4z"/>
	<path fill="#A4F4FF" d="M565.9,320.4h-9.3v9.7h9.3V320.4z"/>
	<path fill="#A4F4FF" d="M581.2,320.4h-9.3v9.7h9.3V320.4z"/>
	<path fill="#A4F4FF" d="M575.1,342.8h-9.3v9.7h9.3V342.8z"/>
	<path fill="#A4F4FF" d="M590.3,342.8h-9.3v9.7h9.3V342.8z"/>
	<path fill="#A4F4FF" d="M605.5,342.8h-9.3v9.7h9.3V342.8z"/>
	<path fill="#A4F4FF" d="M526.4,342.8H517v9.7h9.3V342.8z"/>
	<path fill="#A4F4FF" d="M541.6,342.8h-9.3v9.7h9.3V342.8z"/>
	<path fill="#A4F4FF" d="M556.8,342.8h-9.3v9.7h9.3V342.8z"/>
	<path fill="#A4F4FF" d="M575.1,356.5h-9.3v9.7h9.3V356.5z"/>
	<path fill="#A4F4FF" d="M590.3,356.5h-9.3v9.7h9.3V356.5z"/>
	<path fill="#A4F4FF" d="M605.5,356.5h-9.3v9.7h9.3V356.5z"/>
	<path fill="#A4F4FF" d="M526.4,356.5H517v9.7h9.3V356.5z"/>
	<path fill="#A4F4FF" d="M541.6,356.5h-9.3v9.7h9.3V356.5z"/>
	<path fill="#A4F4FF" d="M556.8,356.5h-9.3v9.7h9.3V356.5z"/>
	<path fill="#A4F4FF" d="M575.1,370.1h-9.3v9.7h9.3V370.1z"/>
	<path fill="#A4F4FF" d="M590.3,370.1h-9.3v9.7h9.3V370.1z"/>
	<path fill="#A4F4FF" d="M605.5,370.1h-9.3v9.7h9.3V370.1z"/>
	<path fill="#A4F4FF" d="M526.4,370.1H517v9.7h9.3V370.1z"/>
	<path fill="#A4F4FF" d="M541.6,370.1h-9.3v9.7h9.3V370.1z"/>
	<path fill="#A4F4FF" d="M556.8,370.1h-9.3v9.7h9.3V370.1z"/>
	<path fill="#A4F4FF" d="M575.1,383.8h-9.3v9.7h9.3V383.8z"/>
	<path fill="#A4F4FF" d="M590.3,383.8h-9.3v9.7h9.3V383.8z"/>
	<path fill="#A4F4FF" d="M605.5,383.8h-9.3v9.7h9.3V383.8z"/>
	<path fill="#A4F4FF" d="M526.4,383.8H517v9.7h9.3V383.8z"/>
	<path fill="#A4F4FF" d="M541.6,383.8h-9.3v9.7h9.3V383.8z"/>
	<path fill="#A4F4FF" d="M556.8,383.8h-9.3v9.7h9.3V383.8z"/>
	<path fill="#A4F4FF" d="M575.1,397.5h-9.3v9.7h9.3V397.5z"/>
	<path fill="#A4F4FF" d="M590.3,397.5h-9.3v9.7h9.3V397.5z"/>
	<path fill="#A4F4FF" d="M605.5,397.5h-9.3v9.7h9.3V397.5z"/>
	<path fill="#A4F4FF" d="M526.4,397.5H517v9.7h9.3V397.5z"/>
	<path fill="#A4F4FF" d="M541.6,397.5h-9.3v9.7h9.3V397.5z"/>
	<path fill="#A4F4FF" d="M556.8,397.5h-9.3v9.7h9.3V397.5z"/>
	<path fill="#A4F4FF" d="M575.1,411.1h-9.3v9.7h9.3V411.1z"/>
	<path fill="#A4F4FF" d="M590.3,411.1h-9.3v9.7h9.3V411.1z"/>
	<path fill="#A4F4FF" d="M605.5,411.1h-9.3v9.7h9.3V411.1z"/>
	<path fill="#A4F4FF" d="M526.4,411.1H517v9.7h9.3V411.1z"/>
	<path fill="#A4F4FF" d="M541.6,411.1h-9.3v9.7h9.3V411.1z"/>
	<path fill="#A4F4FF" d="M556.8,411.1h-9.3v9.7h9.3V411.1z"/>
	<path fill="#FFBB22" d="M612.5,332.7H510.4v4.7h102.1V332.7z"/>
	<path fill="#FFBB22" d="M612.5,424.6H510.4v3.1h102.1V424.6z"/>
	<path fill="#C26109" d="M572.2,437.1h-21.8v15.3h21.8V437.1z"/>
	<path opacity="0.2" fill="#4D5A85" enable-background="new    " d="M612.5,337.5v-4.8h-1.6v-7h-26.3v-38.4h-23.2l-0.2,165.1h49.7
		v-24.5h1.6v-3.2h-1.6v-87.2H612.5z"/>
	<path fill="#EDE1CD" d="M475.6,112h-6.2l1-78.9h4.2L475.6,112z"/>
	<path fill="#EDE1CD" d="M498.4,110.9h-71.7v340.7h71.7V110.9z"/>
	<path fill="#D2C0A5" d="M498.4,110.9h-71.7v28.6h71.7V110.9z"/>
	<path fill="none" stroke="#A68B67" stroke-width="3" stroke-linecap="round" stroke-linejoin="round" stroke-miterlimit="10" d="
		M434,145.7h13.8"/>
	<path fill="none" stroke="#A68B67" stroke-width="3" stroke-linecap="round" stroke-linejoin="round" stroke-miterlimit="10" d="
		M455.6,145.7h13.7"/>
	<path fill="none" stroke="#A68B67" stroke-width="3" stroke-linecap="round" stroke-linejoin="round" stroke-miterlimit="10" d="
		M477.1,145.7h13.8"/>
	<path fill="none" stroke="#A68B67" stroke-width="3" stroke-linecap="round" stroke-linejoin="round" stroke-miterlimit="10" d="
		M434,157.7h13.8"/>
	<path fill="none" stroke="#A68B67" stroke-width="3" stroke-linecap="round" stroke-linejoin="round" stroke-miterlimit="10" d="
		M455.6,157.7h13.7"/>
	<path fill="none" stroke="#A68B67" stroke-width="3" stroke-linecap="round" stroke-linejoin="round" stroke-miterlimit="10" d="
		M477.1,157.7h13.8"/>
	<path fill="none" stroke="#A68B67" stroke-width="3" stroke-linecap="round" stroke-linejoin="round" stroke-miterlimit="10" d="
		M434,169.6h13.8"/>
	<path fill="none" stroke="#A68B67" stroke-width="3" stroke-linecap="round" stroke-linejoin="round" stroke-miterlimit="10" d="
		M455.6,169.6h13.7"/>
	<path fill="none" stroke="#A68B67" stroke-width="3" stroke-linecap="round" stroke-linejoin="round" stroke-miterlimit="10" d="
		M477.1,169.6h13.8"/>
	<path fill="none" stroke="#A68B67" stroke-width="3" stroke-linecap="round" stroke-linejoin="round" stroke-miterlimit="10" d="
		M434,181.6h13.8"/>
	<path fill="none" stroke="#A68B67" stroke-width="3" stroke-linecap="round" stroke-linejoin="round" stroke-miterlimit="10" d="
		M455.6,181.6h13.7"/>
	<path fill="none" stroke="#A68B67" stroke-width="3" stroke-linecap="round" stroke-linejoin="round" stroke-miterlimit="10" d="
		M477.1,181.6h13.8"/>
	<path fill="none" stroke="#A68B67" stroke-width="3" stroke-linecap="round" stroke-linejoin="round" stroke-miterlimit="10" d="
		M434,193.5h13.8"/>
	<path fill="none" stroke="#A68B67" stroke-width="3" stroke-linecap="round" stroke-linejoin="round" stroke-miterlimit="10" d="
		M455.6,193.5h13.7"/>
	<path fill="none" stroke="#A68B67" stroke-width="3" stroke-linecap="round" stroke-linejoin="round" stroke-miterlimit="10" d="
		M477.1,193.5h13.8"/>
	<path fill="none" stroke="#A68B67" stroke-width="3" stroke-linecap="round" stroke-linejoin="round" stroke-miterlimit="10" d="
		M434,205.4h13.8"/>
	<path fill="none" stroke="#A68B67" stroke-width="3" stroke-linecap="round" stroke-linejoin="round" stroke-miterlimit="10" d="
		M455.6,205.4h13.7"/>
	<path fill="none" stroke="#A68B67" stroke-width="3" stroke-linecap="round" stroke-linejoin="round" stroke-miterlimit="10" d="
		M477.1,205.4h13.8"/>
	<path fill="none" stroke="#A68B67" stroke-width="3" stroke-linecap="round" stroke-linejoin="round" stroke-miterlimit="10" d="
		M434,261.2h13.8"/>
	<path fill="none" stroke="#A68B67" stroke-width="3" stroke-linecap="round" stroke-linejoin="round" stroke-miterlimit="10" d="
		M455.6,261.2h13.7"/>
	<path fill="none" stroke="#A68B67" stroke-width="3" stroke-linecap="round" stroke-linejoin="round" stroke-miterlimit="10" d="
		M477.1,261.2h13.8"/>
	<path fill="none" stroke="#A68B67" stroke-width="3" stroke-linecap="round" stroke-linejoin="round" stroke-miterlimit="10" d="
		M434,273.2h13.8"/>
	<path fill="none" stroke="#A68B67" stroke-width="3" stroke-linecap="round" stroke-linejoin="round" stroke-miterlimit="10" d="
		M455.6,273.2h13.7"/>
	<path fill="none" stroke="#A68B67" stroke-width="3" stroke-linecap="round" stroke-linejoin="round" stroke-miterlimit="10" d="
		M477.1,273.2h13.8"/>
	<path fill="none" stroke="#A68B67" stroke-width="3" stroke-linecap="round" stroke-linejoin="round" stroke-miterlimit="10" d="
		M434,286.2h13.8"/>
	<path fill="none" stroke="#A68B67" stroke-width="3" stroke-linecap="round" stroke-linejoin="round" stroke-miterlimit="10" d="
		M455.6,286.2h13.7"/>
	<path fill="none" stroke="#A68B67" stroke-width="3" stroke-linecap="round" stroke-linejoin="round" stroke-miterlimit="10" d="
		M477.1,286.2h13.8"/>
	<path fill="none" stroke="#A68B67" stroke-width="3" stroke-linecap="round" stroke-linejoin="round" stroke-miterlimit="10" d="
		M434,299.1h13.8"/>
	<path fill="none" stroke="#A68B67" stroke-width="3" stroke-linecap="round" stroke-linejoin="round" stroke-miterlimit="10" d="
		M455.6,299.1h13.7"/>
	<path fill="none" stroke="#A68B67" stroke-width="3" stroke-linecap="round" stroke-linejoin="round" stroke-miterlimit="10" d="
		M477.1,299.1h13.8"/>
	<path fill="none" stroke="#A68B67" stroke-width="3" stroke-linecap="round" stroke-linejoin="round" stroke-miterlimit="10" d="
		M434,312.1h13.8"/>
	<path fill="none" stroke="#A68B67" stroke-width="3" stroke-linecap="round" stroke-linejoin="round" stroke-miterlimit="10" d="
		M455.6,312.1h13.7"/>
	<path fill="none" stroke="#A68B67" stroke-width="3" stroke-linecap="round" stroke-linejoin="round" stroke-miterlimit="10" d="
		M477.1,312.1h13.8"/>
	<path fill="none" stroke="#A68B67" stroke-width="3" stroke-linecap="round" stroke-linejoin="round" stroke-miterlimit="10" d="
		M434,325.1h13.8"/>
	<path fill="none" stroke="#A68B67" stroke-width="3" stroke-linecap="round" stroke-linejoin="round" stroke-miterlimit="10" d="
		M455.6,325.1h13.7"/>
	<path fill="none" stroke="#A68B67" stroke-width="3" stroke-linecap="round" stroke-linejoin="round" stroke-miterlimit="10" d="
		M477.1,325.1h13.8"/>
	<path fill="none" stroke="#A68B67" stroke-width="3" stroke-linecap="round" stroke-linejoin="round" stroke-miterlimit="10" d="
		M434,338.1h13.8"/>
	<path fill="none" stroke="#A68B67" stroke-width="3" stroke-linecap="round" stroke-linejoin="round" stroke-miterlimit="10" d="
		M455.6,338.1h13.7"/>
	<path fill="none" stroke="#A68B67" stroke-width="3" stroke-linecap="round" stroke-linejoin="round" stroke-miterlimit="10" d="
		M477.1,338.1h13.8"/>
	<path fill="none" stroke="#A68B67" stroke-width="3" stroke-linecap="round" stroke-linejoin="round" stroke-miterlimit="10" d="
		M434,351.1h13.8"/>
	<path fill="none" stroke="#A68B67" stroke-width="3" stroke-linecap="round" stroke-linejoin="round" stroke-miterlimit="10" d="
		M455.6,351.1h13.7"/>
	<path fill="none" stroke="#A68B67" stroke-width="3" stroke-linecap="round" stroke-linejoin="round" stroke-miterlimit="10" d="
		M477.1,351.1h13.8"/>
	<path fill="none" stroke="#A68B67" stroke-width="3" stroke-linecap="round" stroke-linejoin="round" stroke-miterlimit="10" d="
		M434,364.1h13.8"/>
	<path fill="none" stroke="#A68B67" stroke-width="3" stroke-linecap="round" stroke-linejoin="round" stroke-miterlimit="10" d="
		M455.6,364.1h13.7"/>
	<path fill="none" stroke="#A68B67" stroke-width="3" stroke-linecap="round" stroke-linejoin="round" stroke-miterlimit="10" d="
		M477.1,364.1h13.8"/>
	<path fill="none" stroke="#A68B67" stroke-width="3" stroke-linecap="round" stroke-linejoin="round" stroke-miterlimit="10" d="
		M434,377.1h13.8"/>
	<path fill="none" stroke="#A68B67" stroke-width="3" stroke-linecap="round" stroke-linejoin="round" stroke-miterlimit="10" d="
		M455.6,377.1h13.7"/>
	<path fill="none" stroke="#A68B67" stroke-width="3" stroke-linecap="round" stroke-linejoin="round" stroke-miterlimit="10" d="
		M477.1,377.1h13.8"/>
	<path fill="none" stroke="#A68B67" stroke-width="3" stroke-linecap="round" stroke-linejoin="round" stroke-miterlimit="10" d="
		M434,390h13.8"/>
	<path fill="none" stroke="#A68B67" stroke-width="3" stroke-linecap="round" stroke-linejoin="round" stroke-miterlimit="10" d="
		M455.6,390h13.7"/>
	<path fill="none" stroke="#A68B67" stroke-width="3" stroke-linecap="round" stroke-linejoin="round" stroke-miterlimit="10" d="
		M477.1,390h13.8"/>
	<path fill="none" stroke="#A68B67" stroke-width="3" stroke-linecap="round" stroke-linejoin="round" stroke-miterlimit="10" d="
		M434,403h13.8"/>
	<path fill="none" stroke="#A68B67" stroke-width="3" stroke-linecap="round" stroke-linejoin="round" stroke-miterlimit="10" d="
		M455.6,403h13.7"/>
	<path fill="none" stroke="#A68B67" stroke-width="3" stroke-linecap="round" stroke-linejoin="round" stroke-miterlimit="10" d="
		M477.1,403h13.8"/>
	<path fill="none" stroke="#A68B67" stroke-width="3" stroke-linecap="round" stroke-linejoin="round" stroke-miterlimit="10" d="
		M434,416h13.8"/>
	<path fill="none" stroke="#A68B67" stroke-width="3" stroke-linecap="round" stroke-linejoin="round" stroke-miterlimit="10" d="
		M455.6,416h13.7"/>
	<path fill="none" stroke="#A68B67" stroke-width="3" stroke-linecap="round" stroke-linejoin="round" stroke-miterlimit="10" d="
		M477.1,416h13.8"/>
	<path fill="none" stroke="#A68B67" stroke-width="3" stroke-linecap="round" stroke-linejoin="round" stroke-miterlimit="10" d="
		M434,429h13.8"/>
	<path fill="none" stroke="#A68B67" stroke-width="3" stroke-linecap="round" stroke-linejoin="round" stroke-miterlimit="10" d="
		M455.6,429h13.7"/>
	<path fill="none" stroke="#A68B67" stroke-width="3" stroke-linecap="round" stroke-linejoin="round" stroke-miterlimit="10" d="
		M477.1,429h13.8"/>
	<path fill="#D2C0A5" d="M498.4,212.7h-71.7v5.2h71.7V212.7z"/>
	<path fill="#D2C0A5" d="M498.4,248.8h-71.7v5.2h71.7V248.8z"/>
	<path fill="#B39A7B" d="M469.4,441.8h-13.8v9.9h13.8V441.8z"/>
	<path opacity="0.2" fill="#4D5A85" enable-background="new    " d="M498.4,110.9h-35.9v340.7h35.9V110.9z"/>
	<path fill="#8BD6EA" d="M153.5,324.7h-40v126.8h40V324.7z"/>
	<path fill="#8BD6EA" d="M329.4,221.4h-17.7v21.1h17.7V221.4z"/>
	<path fill="#8BD6EA" d="M333.6,239.4h-26.3v197.7h26.3V239.4z"/>
	<path fill="#2C5E8A" d="M395.7,275h-73.5v176.4h73.5V275z"/>
	<path fill="none" stroke="#61ADDB" stroke-miterlimit="10" d="M322.1,287.9h73.4"/>
	<path fill="none" stroke="#61ADDB" stroke-miterlimit="10" d="M322.1,300.7h73.4"/>
	<path fill="none" stroke="#61ADDB" stroke-miterlimit="10" d="M322.1,313.5h73.4"/>
	<path fill="none" stroke="#61ADDB" stroke-miterlimit="10" d="M322.1,326.4h73.4"/>
	<path fill="none" stroke="#61ADDB" stroke-miterlimit="10" d="M322.1,339.1h73.4"/>
	<path fill="none" stroke="#61ADDB" stroke-miterlimit="10" d="M322.1,351.9h73.4"/>
	<path fill="none" stroke="#61ADDB" stroke-miterlimit="10" d="M322.1,364.8h73.4"/>
	<path fill="none" stroke="#61ADDB" stroke-miterlimit="10" d="M322.1,377.6h73.4"/>
	<path fill="none" stroke="#61ADDB" stroke-miterlimit="10" d="M322.1,390.3h73.4"/>
	<path fill="none" stroke="#61ADDB" stroke-miterlimit="10" d="M322.1,403.2h73.4"/>
	<path fill="none" stroke="#61ADDB" stroke-miterlimit="10" d="M322.1,416h73.4"/>
	<path fill="none" stroke="#61ADDB" stroke-miterlimit="10" d="M322.1,428.8h73.4"/>
	<path fill="none" stroke="#61ADDB" stroke-miterlimit="10" d="M344.2,275.3v153.4"/>
	<path fill="none" stroke="#61ADDB" stroke-miterlimit="10" d="M358.2,275.3v153.4"/>
	<path fill="none" stroke="#61ADDB" stroke-miterlimit="10" d="M372.2,275.3v153.4"/>
	<path fill="none" stroke="#61ADDB" stroke-miterlimit="10" d="M386.2,275.3v153.4"/>
	<path fill="none" stroke="#61ADDB" stroke-miterlimit="10" d="M331.4,275.3v153.4"/>
	<path opacity="0.2" fill="#4D5A85" enable-background="new    " d="M395.6,275H353v176.4h42.6V275z"/>
	<path fill="#72888A" d="M297.9,239.4h-77.2v212.1h77.2V239.4z"/>
	<path fill="#72888A" d="M290.2,206.5h-61.6v34h61.6V206.5z"/>
	<path fill="#72888A" d="M282.4,185.1h-46v22.5h46V185.1z"/>
	<path fill="#72888A" d="M273.3,169.1h-28v16.6h28V169.1z"/>
	<path fill="#94DEE2" d="M243.3,246.4H227v11.4h16.3V246.4z"/>
	<path fill="#94DEE2" d="M267,246.4h-16.3v11.4H267V246.4z"/>
	<path fill="#94DEE2" d="M274.4,246.3l0,11.4l16.3,0l0-11.4L274.4,246.3z"/>
	<path fill="#94DEE2" d="M247.7,213.1h-13.4v9.3h13.4V213.1z"/>
	<path fill="#94DEE2" d="M267.1,213.1h-13.4v9.3h13.4V213.1z"/>
	<path fill="#94DEE2" d="M286.5,213.1h-13.4v9.3h13.4V213.1z"/>
	<path fill="#94DEE2" d="M250.2,187h-10v7h10V187z"/>
	<path fill="#94DEE2" d="M264.7,187h-10v7h10V187z"/>
	<path fill="#94DEE2" d="M279.2,187h-10v7h10V187z"/>
	<path fill="#94DEE2" d="M250.2,197.1h-10v7h10V197.1z"/>
	<path fill="#94DEE2" d="M264.7,197.1h-10v7h10V197.1z"/>
	<path fill="#94DEE2" d="M279.2,197.1h-10v7h10V197.1z"/>
	<path fill="#94DEE2" d="M247.7,226.2h-13.4v9.3h13.4V226.2z"/>
	<path fill="#94DEE2" d="M267.1,226.2h-13.4v9.3h13.4V226.2z"/>
	<path fill="#94DEE2" d="M286.5,226.2h-13.4v9.3h13.4V226.2z"/>
	<path fill="#94DEE2" d="M243.3,265.6H227V277h16.3V265.6z"/>
	<path fill="#94DEE2" d="M267,265.6h-16.3V277H267V265.6z"/>
	<path fill="#94DEE2" d="M290.7,265.6h-16.3V277h16.3V265.6z"/>
	<path fill="#94DEE2" d="M243.3,284.8H227v11.4h16.3V284.8z"/>
	<path fill="#94DEE2" d="M267,284.8h-16.3v11.4H267V284.8z"/>
	<path fill="#94DEE2" d="M290.7,284.8h-16.3v11.4h16.3V284.8z"/>
	<path fill="#94DEE2" d="M243.3,304H227v11.4h16.3V304z"/>
	<path fill="#94DEE2" d="M267,304h-16.3v11.4H267V304z"/>
	<path fill="#94DEE2" d="M290.7,304h-16.3v11.4h16.3V304z"/>
	<path fill="#94DEE2" d="M243.3,323.2H227v11.4h16.3V323.2z"/>
	<path fill="#94DEE2" d="M267,323.2h-16.3v11.4H267V323.2z"/>
	<path fill="#94DEE2" d="M290.7,323.2h-16.3v11.4h16.3V323.2z"/>
	<path fill="#94DEE2" d="M243.3,342.5H227v11.4h16.3V342.5z"/>
	<path fill="#94DEE2" d="M267,342.5h-16.3v11.4H267V342.5z"/>
	<path fill="#94DEE2" d="M290.7,342.5h-16.3v11.4h16.3V342.5z"/>
	<path fill="#94DEE2" d="M243.3,361.7H227v11.4h16.3V361.7z"/>
	<path fill="#94DEE2" d="M267,361.7h-16.3v11.4H267V361.7z"/>
	<path fill="#94DEE2" d="M290.7,361.7h-16.3v11.4h16.3V361.7z"/>
	<path fill="#94DEE2" d="M243.3,380.9H227v11.4h16.3V380.9z"/>
	<path fill="#94DEE2" d="M267,380.9h-16.3v11.4H267V380.9z"/>
	<path fill="#94DEE2" d="M290.7,380.9h-16.3v11.4h16.3V380.9z"/>
	<path fill="#94DEE2" d="M243.3,400.1H227v11.4h16.3V400.1z"/>
	<path fill="#94DEE2" d="M267,400.1h-16.3v11.4H267V400.1z"/>
	<path fill="#94DEE2" d="M290.7,400.1h-16.3v11.4h16.3V400.1z"/>
	<path fill="#94DEE2" d="M243.3,419.3H227v11.4h16.3V419.3z"/>
	<path fill="#94DEE2" d="M267,419.3h-16.3v11.4H267V419.3z"/>
	<path fill="#94DEE2" d="M290.7,419.3h-16.3v11.4h16.3V419.3z"/>
	<path fill="#587173" d="M274.9,437.8h-31.2v13.7h31.2V437.8z"/>
	<g opacity="0.2">
		<path opacity="0.2" fill="#4D5A85" enable-background="new    " d="M290.2,239.4v-32.9h-7.8v-21.4h-9v-16h-13v137.1v145.3h37.6
			V239.4H290.2z"/>
	</g>
	<path fill="#5582A3" d="M122.7,370.6H88.1v15.3h34.6V370.6z"/>
	<path fill="#3A6C8A" d="M116,372.7H94.9v13.2H116V372.7z"/>
	<path fill="#5582A3" d="M135.6,384.8H75.3V452h60.2V384.8z"/>
	<path fill="#3A6C8A" d="M133.6,386.4H77.2v47h56.4V386.4z"/>
	<path fill="#71E5FF" d="M131,392.8c0,1.6-1.2,2.8-2.8,2.8H82.5c-1.6,0-2.8-1.2-2.8-2.8c0-1.6,1.2-2.8,2.8-2.8h45.7
		C129.8,390,131,391.3,131,392.8z"/>
	<path fill="#71E5FF" d="M131,400.9c0,1.6-1.2,2.8-2.8,2.8H82.5c-1.6,0-2.8-1.2-2.8-2.8c0-1.6,1.2-2.8,2.8-2.8h45.7
		C129.8,398.1,131,399.4,131,400.9z"/>
	<path fill="#71E5FF" d="M131,409c0,1.6-1.2,2.8-2.8,2.8H82.5c-1.6,0-2.8-1.2-2.8-2.8c0-1.6,1.2-2.8,2.8-2.8h45.7
		C129.8,406.3,131,407.6,131,409z"/>
	<path fill="#71E5FF" d="M131,417.3c0,1.6-1.2,2.8-2.8,2.8H82.5c-1.6,0-2.8-1.2-2.8-2.8c0-1.6,1.2-2.8,2.8-2.8h45.7
		C129.8,414.4,131,415.7,131,417.3z"/>
	<path fill="#71E5FF" d="M131,425.4c0,1.6-1.2,2.8-2.8,2.8H82.5c-1.6,0-2.8-1.2-2.8-2.8c0-1.6,1.2-2.8,2.8-2.8h45.7
		C129.8,422.5,131,423.8,131,425.4z"/>
	<path fill="#23556E" d="M113.5,437.1H97.4v14.9h16.1V437.1z"/>
	<path opacity="0.2" fill="#4D5A85" enable-background="new    " d="M105.5,370.6V452h30.1v-67.2h-12.9v-14.2H105.5z"/>
	<path fill="#DB472A" d="M164.3,277.1c0-1.1-0.9-2.1-2.1-2.1h-6.8c-1.1,0-2.1,0.9-2.1,2.1s0.9,2.1,2.1,2.1h6.8
		C163.3,279.2,164.3,278.3,164.3,277.1z"/>
	<path fill="#DB472A" d="M160,204.3h-2.2v71.9h2.2V204.3z"/>
	<path fill="#E28A32" d="M245.5,277.1H140.6v174.8h104.9V277.1z"/>
	<path fill="#E28A32" d="M245.5,277.1H140.6v156.1h104.9V277.1z"/>
	<path fill="#71E5FF" d="M159.6,287.9c0,0.7-0.6,1.2-1.2,1.2h-9.7c-0.7,0-1.2-0.6-1.2-1.2v-4.8c0-0.7,0.6-1.2,1.2-1.2h9.7
		c0.7,0,1.2,0.6,1.2,1.2V287.9z"/>
	<path fill="#71E5FF" d="M175.5,287.9c0,0.7-0.6,1.2-1.2,1.2h-9.7c-0.7,0-1.2-0.6-1.2-1.2v-4.8c0-0.7,0.6-1.2,1.2-1.2h9.7
		c0.7,0,1.2,0.6,1.2,1.2V287.9z"/>
	<path fill="#71E5FF" d="M191.5,287.9c0,0.7-0.6,1.2-1.2,1.2h-9.7c-0.7,0-1.2-0.6-1.2-1.2v-4.8c0-0.7,0.6-1.2,1.2-1.2h9.7
		c0.7,0,1.2,0.6,1.2,1.2V287.9z"/>
	<path fill="#71E5FF" d="M207.5,287.9c0,0.7-0.6,1.2-1.2,1.2h-9.7c-0.7,0-1.2-0.6-1.2-1.2v-4.8c0-0.7,0.6-1.2,1.2-1.2h9.7
		c0.7,0,1.2,0.6,1.2,1.2V287.9z"/>
	<path fill="#71E5FF" d="M223.5,287.9c0,0.7-0.6,1.2-1.2,1.2h-9.7c-0.7,0-1.2-0.6-1.2-1.2v-4.8c0-0.7,0.6-1.2,1.2-1.2h9.7
		c0.7,0,1.2,0.6,1.2,1.2V287.9z"/>
	<path fill="#71E5FF" d="M239.4,287.9c0,0.7-0.6,1.2-1.2,1.2h-9.7c-0.7,0-1.2-0.6-1.2-1.2v-4.8c0-0.7,0.6-1.2,1.2-1.2h9.7
		c0.7,0,1.2,0.6,1.2,1.2V287.9z"/>
	<path fill="#71E5FF" d="M159.6,395.2c0,0.7-0.6,1.2-1.2,1.2h-9.7c-0.7,0-1.2-0.6-1.2-1.2v-4.8c0-0.7,0.6-1.2,1.2-1.2h9.7
		c0.7,0,1.2,0.6,1.2,1.2V395.2z"/>
	<path fill="#71E5FF" d="M175.5,395.2c0,0.7-0.6,1.2-1.2,1.2h-9.7c-0.7,0-1.2-0.6-1.2-1.2v-4.8c0-0.7,0.6-1.2,1.2-1.2h9.7
		c0.7,0,1.2,0.6,1.2,1.2V395.2z"/>
	<path fill="#71E5FF" d="M191.5,395.2c0,0.7-0.6,1.2-1.2,1.2h-9.7c-0.7,0-1.2-0.6-1.2-1.2v-4.8c0-0.7,0.6-1.2,1.2-1.2h9.7
		c0.7,0,1.2,0.6,1.2,1.2V395.2z"/>
	<path fill="#71E5FF" d="M207.5,395.2c0,0.7-0.6,1.2-1.2,1.2h-9.7c-0.7,0-1.2-0.6-1.2-1.2v-4.8c0-0.7,0.6-1.2,1.2-1.2h9.7
		c0.7,0,1.2,0.6,1.2,1.2V395.2z"/>
	<path fill="#71E5FF" d="M223.5,395.2c0,0.7-0.6,1.2-1.2,1.2h-9.7c-0.7,0-1.2-0.6-1.2-1.2v-4.8c0-0.7,0.6-1.2,1.2-1.2h9.7
		c0.7,0,1.2,0.6,1.2,1.2V395.2z"/>
	<path fill="#71E5FF" d="M239.4,395.2c0,0.7-0.6,1.2-1.2,1.2h-9.7c-0.7,0-1.2-0.6-1.2-1.2v-4.8c0-0.7,0.6-1.2,1.2-1.2h9.7
		c0.7,0,1.2,0.6,1.2,1.2V395.2z"/>
	<path fill="#71E5FF" d="M159.6,406.1c0,0.7-0.6,1.2-1.2,1.2h-9.7c-0.7,0-1.2-0.6-1.2-1.2v-4.8c0-0.7,0.6-1.2,1.2-1.2h9.7
		c0.7,0,1.2,0.6,1.2,1.2V406.1z"/>
	<path fill="#71E5FF" d="M175.5,406.1c0,0.7-0.6,1.2-1.2,1.2h-9.7c-0.7,0-1.2-0.6-1.2-1.2v-4.8c0-0.7,0.6-1.2,1.2-1.2h9.7
		c0.7,0,1.2,0.6,1.2,1.2V406.1z"/>
	<path fill="#71E5FF" d="M191.5,406.1c0,0.7-0.6,1.2-1.2,1.2h-9.7c-0.7,0-1.2-0.6-1.2-1.2v-4.8c0-0.7,0.6-1.2,1.2-1.2h9.7
		c0.7,0,1.2,0.6,1.2,1.2V406.1z"/>
	<path fill="#71E5FF" d="M207.5,406.1c0,0.7-0.6,1.2-1.2,1.2h-9.7c-0.7,0-1.2-0.6-1.2-1.2v-4.8c0-0.7,0.6-1.2,1.2-1.2h9.7
		c0.7,0,1.2,0.6,1.2,1.2V406.1z"/>
	<path fill="#71E5FF" d="M223.5,406.1c0,0.7-0.6,1.2-1.2,1.2h-9.7c-0.7,0-1.2-0.6-1.2-1.2v-4.8c0-0.7,0.6-1.2,1.2-1.2h9.7
		c0.7,0,1.2,0.6,1.2,1.2V406.1z"/>
	<path fill="#71E5FF" d="M239.4,406.1c0,0.7-0.6,1.2-1.2,1.2h-9.7c-0.7,0-1.2-0.6-1.2-1.2v-4.8c0-0.7,0.6-1.2,1.2-1.2h9.7
		c0.7,0,1.2,0.6,1.2,1.2V406.1z"/>
	<path fill="#71E5FF" d="M159.6,417c0,0.7-0.6,1.2-1.2,1.2h-9.7c-0.7,0-1.2-0.6-1.2-1.2v-4.8c0-0.7,0.6-1.2,1.2-1.2h9.7
		c0.7,0,1.2,0.6,1.2,1.2V417z"/>
	<path fill="#71E5FF" d="M175.5,417c0,0.7-0.6,1.2-1.2,1.2h-9.7c-0.7,0-1.2-0.6-1.2-1.2v-4.8c0-0.7,0.6-1.2,1.2-1.2h9.7
		c0.7,0,1.2,0.6,1.2,1.2V417z"/>
	<path fill="#71E5FF" d="M191.5,417c0,0.7-0.6,1.2-1.2,1.2h-9.7c-0.7,0-1.2-0.6-1.2-1.2v-4.8c0-0.7,0.6-1.2,1.2-1.2h9.7
		c0.7,0,1.2,0.6,1.2,1.2V417z"/>
	<path fill="#71E5FF" d="M207.5,417c0,0.7-0.6,1.2-1.2,1.2h-9.7c-0.7,0-1.2-0.6-1.2-1.2v-4.8c0-0.7,0.6-1.2,1.2-1.2h9.7
		c0.7,0,1.2,0.6,1.2,1.2V417z"/>
	<path fill="#71E5FF" d="M223.5,417c0,0.7-0.6,1.2-1.2,1.2h-9.7c-0.7,0-1.2-0.6-1.2-1.2v-4.8c0-0.7,0.6-1.2,1.2-1.2h9.7
		c0.7,0,1.2,0.6,1.2,1.2V417z"/>
	<path fill="#71E5FF" d="M239.4,417c0,0.7-0.6,1.2-1.2,1.2h-9.7c-0.7,0-1.2-0.6-1.2-1.2v-4.8c0-0.7,0.6-1.2,1.2-1.2h9.7
		c0.7,0,1.2,0.6,1.2,1.2V417z"/>
	<path fill="#71E5FF" d="M159.6,428c0,0.7-0.6,1.2-1.2,1.2h-9.7c-0.7,0-1.2-0.6-1.2-1.2v-4.8c0-0.7,0.6-1.2,1.2-1.2h9.7
		c0.7,0,1.2,0.6,1.2,1.2V428z"/>
	<path fill="#71E5FF" d="M175.5,428c0,0.7-0.6,1.2-1.2,1.2h-9.7c-0.7,0-1.2-0.6-1.2-1.2v-4.8c0-0.7,0.6-1.2,1.2-1.2h9.7
		c0.7,0,1.2,0.6,1.2,1.2V428z"/>
	<path fill="#71E5FF" d="M191.5,428c0,0.7-0.6,1.2-1.2,1.2h-9.7c-0.7,0-1.2-0.6-1.2-1.2v-4.8c0-0.7,0.6-1.2,1.2-1.2h9.7
		c0.7,0,1.2,0.6,1.2,1.2V428z"/>
	<path fill="#71E5FF" d="M207.5,428c0,0.7-0.6,1.2-1.2,1.2h-9.7c-0.7,0-1.2-0.6-1.2-1.2v-4.8c0-0.7,0.6-1.2,1.2-1.2h9.7
		c0.7,0,1.2,0.6,1.2,1.2V428z"/>
	<path fill="#71E5FF" d="M223.5,428c0,0.7-0.6,1.2-1.2,1.2h-9.7c-0.7,0-1.2-0.6-1.2-1.2v-4.8c0-0.7,0.6-1.2,1.2-1.2h9.7
		c0.7,0,1.2,0.6,1.2,1.2V428z"/>
	<path fill="#71E5FF" d="M239.4,428c0,0.7-0.6,1.2-1.2,1.2h-9.7c-0.7,0-1.2-0.6-1.2-1.2v-4.8c0-0.7,0.6-1.2,1.2-1.2h9.7
		c0.7,0,1.2,0.6,1.2,1.2V428z"/>
	<path fill="#71E5FF" d="M159.6,380.8c0,0.7-0.6,1.2-1.2,1.2h-9.7c-0.7,0-1.2-0.6-1.2-1.2v-84.6c0-0.7,0.6-1.2,1.2-1.2h9.7
		c0.7,0,1.2,0.6,1.2,1.2V380.8z"/>
	<path fill="none" stroke="#E28A32" stroke-width="2" stroke-linecap="round" stroke-miterlimit="10" d="M147.3,301.9h12.3"/>
	<path fill="none" stroke="#E28A32" stroke-width="2" stroke-linecap="round" stroke-miterlimit="10" d="M147.3,311.1h12.3"/>
	<path fill="none" stroke="#E28A32" stroke-width="2" stroke-linecap="round" stroke-miterlimit="10" d="M147.3,320.2h12.3"/>
	<path fill="none" stroke="#E28A32" stroke-width="2" stroke-linecap="round" stroke-miterlimit="10" d="M147.3,329.5h12.3"/>
	<path fill="none" stroke="#E28A32" stroke-width="2" stroke-linecap="round" stroke-miterlimit="10" d="M147.3,338.6h12.3"/>
	<path fill="none" stroke="#E28A32" stroke-width="2" stroke-linecap="round" stroke-miterlimit="10" d="M147.3,347.8h12.3"/>
	<path fill="none" stroke="#E28A32" stroke-width="2" stroke-linecap="round" stroke-miterlimit="10" d="M147.3,357h12.3"/>
	<path fill="none" stroke="#E28A32" stroke-width="2" stroke-linecap="round" stroke-miterlimit="10" d="M147.3,366.1h12.3"/>
	<path fill="none" stroke="#E28A32" stroke-width="2" stroke-linecap="round" stroke-miterlimit="10" d="M147.3,375.3h12.3"/>
	<path fill="#71E5FF" d="M175.5,380.8c0,0.7-0.6,1.2-1.2,1.2h-9.7c-0.7,0-1.2-0.6-1.2-1.2v-84.6c0-0.7,0.6-1.2,1.2-1.2h9.7
		c0.7,0,1.2,0.6,1.2,1.2V380.8z"/>
	<path fill="none" stroke="#E28A32" stroke-width="2" stroke-linecap="round" stroke-miterlimit="10" d="M163.3,301.9h12.2"/>
	<path fill="none" stroke="#E28A32" stroke-width="2" stroke-linecap="round" stroke-miterlimit="10" d="M163.3,311.1h12.2"/>
	<path fill="none" stroke="#E28A32" stroke-width="2" stroke-linecap="round" stroke-miterlimit="10" d="M163.3,320.2h12.2"/>
	<path fill="none" stroke="#E28A32" stroke-width="2" stroke-linecap="round" stroke-miterlimit="10" d="M163.3,329.5h12.2"/>
	<path fill="none" stroke="#E28A32" stroke-width="2" stroke-linecap="round" stroke-miterlimit="10" d="M163.3,338.6h12.2"/>
	<path fill="none" stroke="#E28A32" stroke-width="2" stroke-linecap="round" stroke-miterlimit="10" d="M163.3,347.8h12.2"/>
	<path fill="none" stroke="#E28A32" stroke-width="2" stroke-linecap="round" stroke-miterlimit="10" d="M163.3,357h12.2"/>
	<path fill="none" stroke="#E28A32" stroke-width="2" stroke-linecap="round" stroke-miterlimit="10" d="M163.3,366.1h12.2"/>
	<path fill="none" stroke="#E28A32" stroke-width="2" stroke-linecap="round" stroke-miterlimit="10" d="M163.3,375.3h12.2"/>
	<path fill="#71E5FF" d="M191.5,380.8c0,0.7-0.6,1.2-1.2,1.2h-9.7c-0.7,0-1.2-0.6-1.2-1.2v-84.6c0-0.7,0.6-1.2,1.2-1.2h9.7
		c0.7,0,1.2,0.6,1.2,1.2V380.8z"/>
	<path fill="none" stroke="#E28A32" stroke-width="2" stroke-linecap="round" stroke-miterlimit="10" d="M179.3,301.9h12.2"/>
	<path fill="none" stroke="#E28A32" stroke-width="2" stroke-linecap="round" stroke-miterlimit="10" d="M179.3,311.1h12.2"/>
	<path fill="none" stroke="#E28A32" stroke-width="2" stroke-linecap="round" stroke-miterlimit="10" d="M179.3,320.2h12.2"/>
	<path fill="none" stroke="#E28A32" stroke-width="2" stroke-linecap="round" stroke-miterlimit="10" d="M179.3,329.5h12.2"/>
	<path fill="none" stroke="#E28A32" stroke-width="2" stroke-linecap="round" stroke-miterlimit="10" d="M179.3,338.6h12.2"/>
	<path fill="none" stroke="#E28A32" stroke-width="2" stroke-linecap="round" stroke-miterlimit="10" d="M179.3,347.8h12.2"/>
	<path fill="none" stroke="#E28A32" stroke-width="2" stroke-linecap="round" stroke-miterlimit="10" d="M179.3,357h12.2"/>
	<path fill="none" stroke="#E28A32" stroke-width="2" stroke-linecap="round" stroke-miterlimit="10" d="M179.3,366.1h12.2"/>
	<path fill="none" stroke="#E28A32" stroke-width="2" stroke-linecap="round" stroke-miterlimit="10" d="M179.3,375.3h12.2"/>
	<path fill="#71E5FF" d="M207.5,380.8c0,0.7-0.6,1.2-1.2,1.2h-9.7c-0.7,0-1.2-0.6-1.2-1.2v-84.6c0-0.7,0.6-1.2,1.2-1.2h9.7
		c0.7,0,1.2,0.6,1.2,1.2V380.8z"/>
	<path fill="none" stroke="#E28A32" stroke-width="2" stroke-linecap="round" stroke-miterlimit="10" d="M195.2,301.9h12.3"/>
	<path fill="none" stroke="#E28A32" stroke-width="2" stroke-linecap="round" stroke-miterlimit="10" d="M195.2,311.1h12.3"/>
	<path fill="none" stroke="#E28A32" stroke-width="2" stroke-linecap="round" stroke-miterlimit="10" d="M195.2,320.2h12.3"/>
	<path fill="none" stroke="#E28A32" stroke-width="2" stroke-linecap="round" stroke-miterlimit="10" d="M195.2,329.5h12.3"/>
	<path fill="none" stroke="#E28A32" stroke-width="2" stroke-linecap="round" stroke-miterlimit="10" d="M195.2,338.6h12.3"/>
	<path fill="none" stroke="#E28A32" stroke-width="2" stroke-linecap="round" stroke-miterlimit="10" d="M195.2,347.8h12.3"/>
	<path fill="none" stroke="#E28A32" stroke-width="2" stroke-linecap="round" stroke-miterlimit="10" d="M195.2,357h12.3"/>
	<path fill="none" stroke="#E28A32" stroke-width="2" stroke-linecap="round" stroke-miterlimit="10" d="M195.2,366.1h12.3"/>
	<path fill="none" stroke="#E28A32" stroke-width="2" stroke-linecap="round" stroke-miterlimit="10" d="M195.2,375.3h12.3"/>
	<path fill="#71E5FF" d="M223.5,380.8c0,0.7-0.6,1.2-1.2,1.2h-9.7c-0.7,0-1.2-0.6-1.2-1.2v-84.6c0-0.7,0.6-1.2,1.2-1.2h9.7
		c0.7,0,1.2,0.6,1.2,1.2V380.8z"/>
	<path fill="none" stroke="#E28A32" stroke-width="2" stroke-linecap="round" stroke-miterlimit="10" d="M211.2,301.9h12.3"/>
	<path fill="none" stroke="#E28A32" stroke-width="2" stroke-linecap="round" stroke-miterlimit="10" d="M211.2,311.1h12.3"/>
	<path fill="none" stroke="#E28A32" stroke-width="2" stroke-linecap="round" stroke-miterlimit="10" d="M211.2,320.2h12.3"/>
	<path fill="none" stroke="#E28A32" stroke-width="2" stroke-linecap="round" stroke-miterlimit="10" d="M211.2,329.5h12.3"/>
	<path fill="none" stroke="#E28A32" stroke-width="2" stroke-linecap="round" stroke-miterlimit="10" d="M211.2,338.6h12.3"/>
	<path fill="none" stroke="#E28A32" stroke-width="2" stroke-linecap="round" stroke-miterlimit="10" d="M211.2,347.8h12.3"/>
	<path fill="none" stroke="#E28A32" stroke-width="2" stroke-linecap="round" stroke-miterlimit="10" d="M211.2,357h12.3"/>
	<path fill="none" stroke="#E28A32" stroke-width="2" stroke-linecap="round" stroke-miterlimit="10" d="M211.2,366.1h12.3"/>
	<path fill="none" stroke="#E28A32" stroke-width="2" stroke-linecap="round" stroke-miterlimit="10" d="M211.2,375.3h12.3"/>
	<path fill="#71E5FF" d="M239.4,380.8c0,0.7-0.6,1.2-1.2,1.2h-9.7c-0.7,0-1.2-0.6-1.2-1.2v-84.6c0-0.7,0.6-1.2,1.2-1.2h9.7
		c0.7,0,1.2,0.6,1.2,1.2V380.8z"/>
	<path fill="none" stroke="#E28A32" stroke-width="2" stroke-linecap="round" stroke-miterlimit="10" d="M227.2,301.9h12.2"/>
	<path fill="none" stroke="#E28A32" stroke-width="2" stroke-linecap="round" stroke-miterlimit="10" d="M227.2,311.1h12.2"/>
	<path fill="none" stroke="#E28A32" stroke-width="2" stroke-linecap="round" stroke-miterlimit="10" d="M227.2,320.2h12.2"/>
	<path fill="none" stroke="#E28A32" stroke-width="2" stroke-linecap="round" stroke-miterlimit="10" d="M227.2,329.5h12.2"/>
	<path fill="none" stroke="#E28A32" stroke-width="2" stroke-linecap="round" stroke-miterlimit="10" d="M227.2,338.6h12.2"/>
	<path fill="none" stroke="#E28A32" stroke-width="2" stroke-linecap="round" stroke-miterlimit="10" d="M227.2,347.8h12.2"/>
	<path fill="none" stroke="#E28A32" stroke-width="2" stroke-linecap="round" stroke-miterlimit="10" d="M227.2,357h12.2"/>
	<path fill="none" stroke="#E28A32" stroke-width="2" stroke-linecap="round" stroke-miterlimit="10" d="M227.2,366.1h12.2"/>
	<path fill="none" stroke="#E28A32" stroke-width="2" stroke-linecap="round" stroke-miterlimit="10" d="M227.2,375.3h12.2"/>
	<path fill="#D03E21" d="M182.1,452v-11.4h21.8V452"/>
	<path fill="none" stroke="#FFC876" stroke-width="2" stroke-miterlimit="10" d="M140.6,385.4h104.9"/>
	<path fill="none" stroke="#FFC876" stroke-width="2" stroke-miterlimit="10" d="M140.6,291.7h104.9"/>
	<path opacity="0.2" fill="#4D5A85" enable-background="new    " d="M245.5,277H193v175h52.5V277z"/>
	<path fill="#82E4F4" d="M337.4,320.2h-66.5v131.7h66.5V320.2z"/>
	<path fill="#C5FCFF" d="M333.6,329.1h-58.2v7.5h58.2V329.1z"/>
	<path fill="#C5FCFF" d="M333.6,338.8h-58.2v7.5h58.2V338.8z"/>
	<path fill="#C5FCFF" d="M333.6,348.5h-58.2v7.5h58.2V348.5z"/>
	<path fill="#C5FCFF" d="M333.6,358.1h-58.2v7.5h58.2V358.1z"/>
	<path fill="#C5FCFF" d="M333.6,367.9h-58.2v7.5h58.2V367.9z"/>
	<path fill="#C5FCFF" d="M333.6,377.6h-58.2v7.5h58.2V377.6z"/>
	<path fill="#C5FCFF" d="M333.6,387.2h-58.2v7.5h58.2V387.2z"/>
	<path fill="#C5FCFF" d="M333.6,397h-58.2v7.5h58.2V397z"/>
	<path fill="#C5FCFF" d="M333.6,406.7h-58.2v7.5h58.2V406.7z"/>
	<path fill="#C5FCFF" d="M333.6,416.3h-58.2v7.5h58.2V416.3z"/>
	<path fill="#C5FCFF" d="M288.1,440.4c0,1.5-1.1,2.7-2.7,2.7h-5.3c-1.5,0-2.7-1.1-2.7-2.7v-5.3c0-1.5,1.1-2.7,2.7-2.7h5.3
		c1.5,0,2.7,1.1,2.7,2.7V440.4z"/>
	<path fill="#C5FCFF" d="M331,440.4c0,1.5-1.1,2.7-2.7,2.7H323c-1.5,0-2.7-1.1-2.7-2.7v-5.3c0-1.5,1.1-2.7,2.7-2.7h5.3
		c1.5,0,2.7,1.1,2.7,2.7V440.4z"/>
	<path fill="#3F7380" d="M313.4,435.9H295V452h18.4V435.9z"/>
	<path fill="#44C2CF" d="M337.4,426.9h-66.5v2.1h66.5V426.9z"/>
	<path fill="#44C2CF" d="M341.2,320.1h-74.1v4.6h74.1V320.1z"/>
	<path opacity="0.2" fill="#4D5A85" enable-background="new    " d="M304.5,320.2v132.1h32.9V324.7h3.8v-4.6L304.5,320.2z"/>
	<path fill="#54C3CF" d="M436.8,240.4c0,1.9-1.6,3.4-3.4,3.4h-35.6c-1.9,0-3.4-1.6-3.4-3.4v-33.7c0-1.9,1.6-3.4,3.4-3.4h35.6
		c1.9,0,3.4,1.6,3.4,3.4V240.4z"/>
	<path fill="#82E4F4" d="M453.2,452h-75.3V223.6h25v-2.8h25.2v2.8h25V452z"/>
	<path fill="#54C3CF" d="M453.2,425.7h-75.3v26.3h75.3V425.7z"/>
	<path fill="none" stroke="#FFFFFF" stroke-miterlimit="10" d="M403,229.8h25.2"/>
	<path fill="none" stroke="#FFFFFF" stroke-miterlimit="10" d="M403,239.4h25.2"/>
	<path fill="none" stroke="#FFFFFF" stroke-miterlimit="10" d="M403,249.1h25.2"/>
	<path fill="none" stroke="#FFFFFF" stroke-miterlimit="10" d="M403,258.8h25.2"/>
	<path fill="none" stroke="#FFFFFF" stroke-miterlimit="10" d="M403,268.5h25.2"/>
	<path fill="none" stroke="#FFFFFF" stroke-miterlimit="10" d="M403,278.2h25.2"/>
	<path fill="none" stroke="#FFFFFF" stroke-miterlimit="10" d="M403,287.9h25.2"/>
	<path fill="none" stroke="#FFFFFF" stroke-miterlimit="10" d="M403,297.6h25.2"/>
	<path fill="none" stroke="#FFFFFF" stroke-miterlimit="10" d="M403,307.2h25.2"/>
	<path fill="none" stroke="#FFFFFF" stroke-miterlimit="10" d="M403,317h25.2"/>
	<path fill="none" stroke="#FFFFFF" stroke-miterlimit="10" d="M403,326.7h25.2"/>
	<path fill="none" stroke="#FFFFFF" stroke-miterlimit="10" d="M403,336.3h25.2"/>
	<path fill="none" stroke="#FFFFFF" stroke-miterlimit="10" d="M403,346.1h25.2"/>
	<path fill="none" stroke="#FFFFFF" stroke-miterlimit="10" d="M403,355.8h25.2"/>
	<path fill="none" stroke="#FFFFFF" stroke-miterlimit="10" d="M403,365.4h25.2"/>
	<path fill="none" stroke="#FFFFFF" stroke-miterlimit="10" d="M403,375.2h25.2"/>
	<path fill="none" stroke="#FFFFFF" stroke-miterlimit="10" d="M403,384.8h25.2"/>
	<path fill="none" stroke="#FFFFFF" stroke-miterlimit="10" d="M403,394.5h25.2"/>
	<path fill="none" stroke="#FFFFFF" stroke-miterlimit="10" d="M403,404.3h25.2"/>
	<path fill="none" stroke="#FFFFFF" stroke-miterlimit="10" d="M403,413.9h25.2"/>
	<path fill="none" stroke="#FFFFFF" stroke-miterlimit="10" d="M428.2,232.9h25.3"/>
	<path fill="none" stroke="#FFFFFF" stroke-miterlimit="10" d="M428.2,242.5h25.3"/>
	<path fill="none" stroke="#FFFFFF" stroke-miterlimit="10" d="M428.2,252.2h25.3"/>
	<path fill="none" stroke="#FFFFFF" stroke-miterlimit="10" d="M428.2,262h25.3"/>
	<path fill="none" stroke="#FFFFFF" stroke-miterlimit="10" d="M428.2,271.6h25.3"/>
	<path fill="none" stroke="#FFFFFF" stroke-miterlimit="10" d="M428.2,281.3h25.3"/>
	<path fill="none" stroke="#FFFFFF" stroke-miterlimit="10" d="M428.2,291h25.3"/>
	<path fill="none" stroke="#FFFFFF" stroke-miterlimit="10" d="M428.2,300.7h25.3"/>
	<path fill="none" stroke="#FFFFFF" stroke-miterlimit="10" d="M428.2,310.4h25.3"/>
	<path fill="none" stroke="#FFFFFF" stroke-miterlimit="10" d="M428.2,320.1h25.3"/>
	<path fill="none" stroke="#FFFFFF" stroke-miterlimit="10" d="M428.2,329.8h25.3"/>
	<path fill="none" stroke="#FFFFFF" stroke-miterlimit="10" d="M428.2,339.4h25.3"/>
	<path fill="none" stroke="#FFFFFF" stroke-miterlimit="10" d="M428.2,349.2h25.3"/>
	<path fill="none" stroke="#FFFFFF" stroke-miterlimit="10" d="M428.2,358.9h25.3"/>
	<path fill="none" stroke="#FFFFFF" stroke-miterlimit="10" d="M428.2,368.5h25.3"/>
	<path fill="none" stroke="#FFFFFF" stroke-miterlimit="10" d="M428.2,378.3h25.3"/>
	<path fill="none" stroke="#FFFFFF" stroke-miterlimit="10" d="M428.2,388h25.3"/>
	<path fill="none" stroke="#FFFFFF" stroke-miterlimit="10" d="M428.2,397.6h25.3"/>
	<path fill="none" stroke="#FFFFFF" stroke-miterlimit="10" d="M428.2,407.4h25.3"/>
	<path fill="none" stroke="#FFFFFF" stroke-miterlimit="10" d="M428.2,417h25.3"/>
	<path fill="none" stroke="#FFFFFF" stroke-miterlimit="10" d="M377.9,232.9h24.9"/>
	<path fill="none" stroke="#FFFFFF" stroke-miterlimit="10" d="M377.9,242.5h24.9"/>
	<path fill="none" stroke="#FFFFFF" stroke-miterlimit="10" d="M377.9,252.2h24.9"/>
	<path fill="none" stroke="#FFFFFF" stroke-miterlimit="10" d="M377.9,262h24.9"/>
	<path fill="none" stroke="#FFFFFF" stroke-miterlimit="10" d="M377.9,271.6h24.9"/>
	<path fill="none" stroke="#FFFFFF" stroke-miterlimit="10" d="M377.9,281.3h24.9"/>
	<path fill="none" stroke="#FFFFFF" stroke-miterlimit="10" d="M377.9,291h24.9"/>
	<path fill="none" stroke="#FFFFFF" stroke-miterlimit="10" d="M377.9,300.7h24.9"/>
	<path fill="none" stroke="#FFFFFF" stroke-miterlimit="10" d="M377.9,310.4h24.9"/>
	<path fill="none" stroke="#FFFFFF" stroke-miterlimit="10" d="M377.9,320.1h24.9"/>
	<path fill="none" stroke="#FFFFFF" stroke-miterlimit="10" d="M377.9,329.8h24.9"/>
	<path fill="none" stroke="#FFFFFF" stroke-miterlimit="10" d="M377.9,339.4h24.9"/>
	<path fill="none" stroke="#FFFFFF" stroke-miterlimit="10" d="M377.9,349.2h24.9"/>
	<path fill="none" stroke="#FFFFFF" stroke-miterlimit="10" d="M377.9,358.9h24.9"/>
	<path fill="none" stroke="#FFFFFF" stroke-miterlimit="10" d="M377.9,368.5h24.9"/>
	<path fill="none" stroke="#FFFFFF" stroke-miterlimit="10" d="M377.9,378.3h24.9"/>
	<path fill="none" stroke="#FFFFFF" stroke-miterlimit="10" d="M377.9,388h24.9"/>
	<path fill="none" stroke="#FFFFFF" stroke-miterlimit="10" d="M377.9,397.6h24.9"/>
	<path fill="none" stroke="#FFFFFF" stroke-miterlimit="10" d="M377.9,407.4h24.9"/>
	<path fill="none" stroke="#FFFFFF" stroke-miterlimit="10" d="M377.9,417h24.9"/>
	<path fill="#2AAAB0" d="M438.3,436.3h-45.5V452h45.5V436.3z"/>
	<path fill="none" stroke="#54C3CF" stroke-miterlimit="10" d="M403,217.9v207.7"/>
	<path fill="none" stroke="#54C3CF" stroke-miterlimit="10" d="M428.2,217.9v207.7"/>
	<path opacity="0.2" fill="#4D5A85" enable-background="new    " d="M414.3,203.3V452h39V223.6h-16.4c0,0,0-14.5,0-16.6
		c0-2.4-1.5-3.7-3.1-3.7C432,203.3,414.3,203.3,414.3,203.3z"/>
	<path fill="#245778" d="M542.4,330.9h-51.7v11h51.7V330.9z"/>
	<path fill="#245778" d="M553.8,339.4H479v112.5h74.8V339.4z"/>
	<path fill="#2C6B8F" d="M553.8,428.8H479v23.2h74.8V428.8z"/>
	<path fill="#71E5FF" d="M551.2,349.7c0,2.2-1.8,3.9-3.9,3.9h-61.5c-2.2,0-3.9-1.8-3.9-3.9c0-2.2,1.8-3.9,3.9-3.9h61.5
		C549.3,345.7,551.2,347.6,551.2,349.7z"/>
	<path fill="#71E5FF" d="M551.2,361.2c0,2.2-1.8,3.9-3.9,3.9h-61.5c-2.2,0-3.9-1.8-3.9-3.9c0-2.2,1.8-3.9,3.9-3.9h61.5
		C549.3,357.1,551.2,359,551.2,361.2z"/>
	<path fill="#71E5FF" d="M551.2,372.6c0,2.2-1.8,3.9-3.9,3.9h-61.5c-2.2,0-3.9-1.8-3.9-3.9c0-2.2,1.8-3.9,3.9-3.9h61.5
		C549.3,368.5,551.2,370.4,551.2,372.6z"/>
	<path fill="#71E5FF" d="M551.2,384c0,2.2-1.8,3.9-3.9,3.9h-61.5c-2.2,0-3.9-1.8-3.9-3.9c0-2.2,1.8-3.9,3.9-3.9h61.5
		C549.3,380,551.2,381.8,551.2,384z"/>
	<path fill="#71E5FF" d="M551.2,395.4c0,2.2-1.8,3.9-3.9,3.9h-61.5c-2.2,0-3.9-1.8-3.9-3.9c0-2.2,1.8-3.9,3.9-3.9h61.5
		C549.3,391.4,551.2,393.3,551.2,395.4z"/>
	<path fill="#71E5FF" d="M551.2,406.9c0,2.2-1.8,3.9-3.9,3.9h-61.5c-2.2,0-3.9-1.8-3.9-3.9c0-2.2,1.8-3.9,3.9-3.9h61.5
		C549.3,402.8,551.2,404.7,551.2,406.9z"/>
	<path fill="#71E5FF" d="M551.2,418.3c0,2.2-1.8,3.9-3.9,3.9h-61.5c-2.2,0-3.9-1.8-3.9-3.9c0-2.2,1.8-3.9,3.9-3.9h61.5
		C549.3,414.2,551.2,416.1,551.2,418.3z"/>
	<path fill="#2C6B8F" d="M534.5,334.9h-36v94.9h36V334.9z"/>
	<path fill="#245778" d="M533.4,335.9v92.9h-34v-92.9H533.4z M535.5,333.8h-2.1h-34h-2.1v2.1v92.9v2.1h2.1h34h2.1v-2.1v-92.9V333.8z
		"/>
	<path fill="#71E5FF" d="M533.4,342.6h-34v8h34V342.6z"/>
	<path fill="#71E5FF" d="M533.4,354h-34v8h34V354z"/>
	<path fill="#71E5FF" d="M533.4,365.4h-34v8h34V365.4z"/>
	<path fill="#71E5FF" d="M533.4,376.8h-34v8h34V376.8z"/>
	<path fill="#71E5FF" d="M533.4,388.3h-34v8h34V388.3z"/>
	<path fill="#71E5FF" d="M533.4,399.7h-34v8h34V399.7z"/>
	<path fill="#71E5FF" d="M533.4,411.1h-34v8h34V411.1z"/>
	<path fill="#3789B3" d="M537.2,428.8h-41.5v23.2h41.5V428.8z"/>
	<path fill="#245778" d="M524.2,439.4h-15.4V452h15.4V439.4z"/>
	<path opacity="0.2" fill="#4D5A85" enable-background="new    " d="M516.4,330.3V452h37.4V339.4h-11.7l0.2-8.5L516.4,330.3z"/>
	<path fill="#4C90C2" d="M675.8,377.7c10.9,0,19.7-6.1,19.7-13.6c0-7.5-8.8-13.6-19.7-13.6c-10.9,0-19.7,6.1-19.7,13.6
		C656.1,371.6,664.9,377.7,675.8,377.7z"/>
	<path fill="#2C5E8A" d="M695.6,395.2h-94.5v57.2h94.5V395.2z"/>
	<path fill="#2C5E8A" d="M695.6,364.1h-39.5v88.4h39.5V364.1z"/>
	<path fill="#71E5FF" d="M667.7,369.9H661v6.8h6.8V369.9z"/>
	<path fill="#71E5FF" d="M679.2,369.9h-6.8v6.8h6.8V369.9z"/>
	<path fill="#71E5FF" d="M690.6,369.9h-6.8v6.8h6.8V369.9z"/>
	<path fill="#71E5FF" d="M667.7,380.6H661v6.8h6.8V380.6z"/>
	<path fill="#71E5FF" d="M679.2,380.6h-6.8v6.8h6.8V380.6z"/>
	<path fill="#71E5FF" d="M690.6,380.6h-6.8v6.8h6.8V380.6z"/>
	<path fill="#71E5FF" d="M667.7,391H661v6.8h6.8V391z"/>
	<path fill="#71E5FF" d="M679.2,391h-6.8v6.8h6.8V391z"/>
	<path fill="#71E5FF" d="M690.6,391h-6.8v6.8h6.8V391z"/>
	<path fill="#71E5FF" d="M667.7,401.4H661v6.8h6.8V401.4z"/>
	<path fill="#71E5FF" d="M679.2,401.4h-6.8v6.8h6.8V401.4z"/>
	<path fill="#71E5FF" d="M653.2,402.6h-48.6v4.3h48.6V402.6z"/>
	<path fill="#71E5FF" d="M653.2,412.9h-48.6v4.3h48.6V412.9z"/>
	<path fill="#71E5FF" d="M653.2,423.3h-48.6v4.3h48.6V423.3z"/>
	<path fill="#71E5FF" d="M653.2,433.7h-48.6v4.3h48.6V433.7z"/>
	<path fill="#71E5FF" d="M690.6,401.4h-6.8v6.8h6.8V401.4z"/>
	<path fill="#71E5FF" d="M667.7,411.6H661v6.8h6.8V411.6z"/>
	<path fill="#71E5FF" d="M679.2,411.6h-6.8v6.8h6.8V411.6z"/>
	<path fill="#71E5FF" d="M690.6,411.6h-6.8v6.8h6.8V411.6z"/>
	<path fill="#71E5FF" d="M667.7,422H661v6.8h6.8V422z"/>
	<path fill="#71E5FF" d="M679.2,422h-6.8v6.8h6.8V422z"/>
	<path fill="#71E5FF" d="M690.6,422h-6.8v6.8h6.8V422z"/>
	<path fill="#71E5FF" d="M667.7,432.3H661v6.8h6.8V432.3z"/>
	<path fill="#71E5FF" d="M679.2,432.3h-6.8v6.8h6.8V432.3z"/>
	<path fill="#71E5FF" d="M690.6,432.3h-6.8v6.8h6.8V432.3z"/>
	<path fill="#0E314A" d="M634.3,442.8H621v9.7h13.3V442.8z"/>
	<path fill="#0E314A" d="M679.2,442.8h-6.8v9.7h6.8V442.8z"/>
	<path fill="#0E3B5C" d="M697.7,364.2c0,1-0.8,1.9-1.9,1.9H655c-1,0-1.9-0.8-1.9-1.9c0-1,0.8-1.9,1.9-1.9h40.8
		C696.8,362.3,697.7,363.1,697.7,364.2z"/>
	<g opacity="0.2">
		<path opacity="0.2" fill="#4D5A85" enable-background="new    " d="M695.8,362.3h-0.4c-1.2-6.6-9.6-11.8-19.5-11.8
			c-0.1,0-0.2,0-0.4,0v102h20.2v-86.5h0.3c1,0,1.9-0.8,1.9-1.9C697.8,363,696.8,362.3,695.8,362.3z"/>
	</g>
	<path fill="#171F23" d="M748.8,386.1c0,0.9-0.7,1.7-1.7,1.7h-21.7c-0.9,0-1.7-0.7-1.7-1.7s0.7-1.7,1.7-1.7h21.7
		C748,384.4,748.8,385.2,748.8,386.1z"/>
	<path fill="#283640" d="M752.9,386.7h-33.2v64.8h33.2V386.7z"/>
	<path fill="#71E5FF" d="M728,395.5c0,0.4-0.4,0.8-0.8,0.8h-2.6c-0.4,0-0.8-0.4-0.8-0.8v-2.6c0-0.4,0.4-0.8,0.8-0.8h2.6
		c0.4,0,0.8,0.4,0.8,0.8V395.5z"/>
	<path fill="#71E5FF" d="M734.9,395.5c0,0.4-0.4,0.8-0.8,0.8h-2.6c-0.4,0-0.8-0.4-0.8-0.8v-2.6c0-0.4,0.4-0.8,0.8-0.8h2.6
		c0.4,0,0.8,0.4,0.8,0.8V395.5z"/>
	<path fill="#71E5FF" d="M741.9,395.5c0,0.4-0.4,0.8-0.8,0.8h-2.6c-0.4,0-0.8-0.4-0.8-0.8v-2.6c0-0.4,0.4-0.8,0.8-0.8h2.6
		c0.4,0,0.8,0.4,0.8,0.8V395.5z"/>
	<path fill="#71E5FF" d="M748.9,395.5c0,0.4-0.4,0.8-0.8,0.8h-2.6c-0.4,0-0.8-0.4-0.8-0.8v-2.6c0-0.4,0.4-0.8,0.8-0.8h2.6
		c0.4,0,0.8,0.4,0.8,0.8V395.5z"/>
	<path fill="#71E5FF" d="M728,402.6c0,0.4-0.4,0.8-0.8,0.8h-2.6c-0.4,0-0.8-0.4-0.8-0.8V400c0-0.4,0.4-0.8,0.8-0.8h2.6
		c0.4,0,0.8,0.4,0.8,0.8V402.6z"/>
	<path fill="#71E5FF" d="M734.9,402.6c0,0.4-0.4,0.8-0.8,0.8h-2.6c-0.4,0-0.8-0.4-0.8-0.8V400c0-0.4,0.4-0.8,0.8-0.8h2.6
		c0.4,0,0.8,0.4,0.8,0.8V402.6z"/>
	<path fill="#71E5FF" d="M741.9,402.6c0,0.4-0.4,0.8-0.8,0.8h-2.6c-0.4,0-0.8-0.4-0.8-0.8V400c0-0.4,0.4-0.8,0.8-0.8h2.6
		c0.4,0,0.8,0.4,0.8,0.8V402.6z"/>
	<path fill="#71E5FF" d="M748.9,402.6c0,0.4-0.4,0.8-0.8,0.8h-2.6c-0.4,0-0.8-0.4-0.8-0.8V400c0-0.4,0.4-0.8,0.8-0.8h2.6
		c0.4,0,0.8,0.4,0.8,0.8V402.6z"/>
	<path fill="#71E5FF" d="M728,409.7c0,0.4-0.4,0.8-0.8,0.8h-2.6c-0.4,0-0.8-0.4-0.8-0.8v-2.6c0-0.4,0.4-0.8,0.8-0.8h2.6
		c0.4,0,0.8,0.4,0.8,0.8V409.7z"/>
	<path fill="#71E5FF" d="M734.9,409.7c0,0.4-0.4,0.8-0.8,0.8h-2.6c-0.4,0-0.8-0.4-0.8-0.8v-2.6c0-0.4,0.4-0.8,0.8-0.8h2.6
		c0.4,0,0.8,0.4,0.8,0.8V409.7z"/>
	<path fill="#71E5FF" d="M741.9,409.7c0,0.4-0.4,0.8-0.8,0.8h-2.6c-0.4,0-0.8-0.4-0.8-0.8v-2.6c0-0.4,0.4-0.8,0.8-0.8h2.6
		c0.4,0,0.8,0.4,0.8,0.8V409.7z"/>
	<path fill="#71E5FF" d="M748.9,409.7c0,0.4-0.4,0.8-0.8,0.8h-2.6c-0.4,0-0.8-0.4-0.8-0.8v-2.6c0-0.4,0.4-0.8,0.8-0.8h2.6
		c0.4,0,0.8,0.4,0.8,0.8V409.7z"/>
	<path fill="#71E5FF" d="M728,416.7c0,0.4-0.4,0.8-0.8,0.8h-2.6c-0.4,0-0.8-0.4-0.8-0.8v-2.6c0-0.4,0.4-0.8,0.8-0.8h2.6
		c0.4,0,0.8,0.4,0.8,0.8V416.7z"/>
	<path fill="#71E5FF" d="M734.9,416.7c0,0.4-0.4,0.8-0.8,0.8h-2.6c-0.4,0-0.8-0.4-0.8-0.8v-2.6c0-0.4,0.4-0.8,0.8-0.8h2.6
		c0.4,0,0.8,0.4,0.8,0.8V416.7z"/>
	<path fill="#71E5FF" d="M741.9,416.7c0,0.4-0.4,0.8-0.8,0.8h-2.6c-0.4,0-0.8-0.4-0.8-0.8v-2.6c0-0.4,0.4-0.8,0.8-0.8h2.6
		c0.4,0,0.8,0.4,0.8,0.8V416.7z"/>
	<path fill="#71E5FF" d="M748.9,416.7c0,0.4-0.4,0.8-0.8,0.8h-2.6c-0.4,0-0.8-0.4-0.8-0.8v-2.6c0-0.4,0.4-0.8,0.8-0.8h2.6
		c0.4,0,0.8,0.4,0.8,0.8V416.7z"/>
	<path fill="#71E5FF" d="M728,423.9c0,0.4-0.4,0.8-0.8,0.8h-2.6c-0.4,0-0.8-0.4-0.8-0.8v-2.6c0-0.4,0.4-0.8,0.8-0.8h2.6
		c0.4,0,0.8,0.4,0.8,0.8V423.9z"/>
	<path fill="#71E5FF" d="M734.9,423.9c0,0.4-0.4,0.8-0.8,0.8h-2.6c-0.4,0-0.8-0.4-0.8-0.8v-2.6c0-0.4,0.4-0.8,0.8-0.8h2.6
		c0.4,0,0.8,0.4,0.8,0.8V423.9z"/>
	<path fill="#71E5FF" d="M741.9,423.9c0,0.4-0.4,0.8-0.8,0.8h-2.6c-0.4,0-0.8-0.4-0.8-0.8v-2.6c0-0.4,0.4-0.8,0.8-0.8h2.6
		c0.4,0,0.8,0.4,0.8,0.8V423.9z"/>
	<path fill="#71E5FF" d="M748.9,423.9c0,0.4-0.4,0.8-0.8,0.8h-2.6c-0.4,0-0.8-0.4-0.8-0.8v-2.6c0-0.4,0.4-0.8,0.8-0.8h2.6
		c0.4,0,0.8,0.4,0.8,0.8V423.9z"/>
	<path fill="#71E5FF" d="M728,431c0,0.4-0.4,0.8-0.8,0.8h-2.6c-0.4,0-0.8-0.4-0.8-0.8v-2.6c0-0.4,0.4-0.8,0.8-0.8h2.6
		c0.4,0,0.8,0.4,0.8,0.8V431z"/>
	<path fill="#71E5FF" d="M734.9,431c0,0.4-0.4,0.8-0.8,0.8h-2.6c-0.4,0-0.8-0.4-0.8-0.8v-2.6c0-0.4,0.4-0.8,0.8-0.8h2.6
		c0.4,0,0.8,0.4,0.8,0.8V431z"/>
	<path fill="#71E5FF" d="M741.9,431c0,0.4-0.4,0.8-0.8,0.8h-2.6c-0.4,0-0.8-0.4-0.8-0.8v-2.6c0-0.4,0.4-0.8,0.8-0.8h2.6
		c0.4,0,0.8,0.4,0.8,0.8V431z"/>
	<path fill="#71E5FF" d="M748.9,431c0,0.4-0.4,0.8-0.8,0.8h-2.6c-0.4,0-0.8-0.4-0.8-0.8v-2.6c0-0.4,0.4-0.8,0.8-0.8h2.6
		c0.4,0,0.8,0.4,0.8,0.8V431z"/>
	<path fill="#71E5FF" d="M728,438c0,0.4-0.4,0.8-0.8,0.8h-2.6c-0.4,0-0.8-0.4-0.8-0.8v-2.6c0-0.4,0.4-0.8,0.8-0.8h2.6
		c0.4,0,0.8,0.4,0.8,0.8V438z"/>
	<path fill="#71E5FF" d="M734.9,438c0,0.4-0.4,0.8-0.8,0.8h-2.6c-0.4,0-0.8-0.4-0.8-0.8v-2.6c0-0.4,0.4-0.8,0.8-0.8h2.6
		c0.4,0,0.8,0.4,0.8,0.8V438z"/>
	<path fill="#71E5FF" d="M741.9,438c0,0.4-0.4,0.8-0.8,0.8h-2.6c-0.4,0-0.8-0.4-0.8-0.8v-2.6c0-0.4,0.4-0.8,0.8-0.8h2.6
		c0.4,0,0.8,0.4,0.8,0.8V438z"/>
	<path fill="#71E5FF" d="M748.9,438c0,0.4-0.4,0.8-0.8,0.8h-2.6c-0.4,0-0.8-0.4-0.8-0.8v-2.6c0-0.4,0.4-0.8,0.8-0.8h2.6
		c0.4,0,0.8,0.4,0.8,0.8V438z"/>
	<path fill="#171F23" d="M741.8,444.8h-11.1v6.8h11.1V444.8z"/>
	<path fill="#FFFFFF" d="M290.2,86.5c0-36.4,51.1-36.4,51.1,0c31-12.7,39.7,29.6-22.9,29.6C255.9,116.1,259.3,73.9,290.2,86.5z"/>
	<path fill="#FFFFFF" d="M579.1,120.8c0-36.4,51.1-36.4,51.1,0c32,0,39.7,29.6-22.9,29.6C544.9,150.4,541.7,120.8,579.1,120.8z"/>
	<path fill="#66D1F2" d="M771.3,455.7c0-2.5-2-4.5-4.5-4.5H61.7c-2.5,0-4.5,2-4.5,4.5c0,2.5,2,4.5,4.5,4.5h705.1
		C769.2,460.2,771.3,458.2,771.3,455.7z"/>
	<path fill="#2C6B8F" d="M41,480.7h740.4c7.2,0,13.1-5.8,13.1-13.1H27.9C27.9,474.9,33.7,480.7,41,480.7z"/>
	<path fill="#47A4CA" d="M781.4,454.6H41c-7.2,0-13.1,5.8-13.1,13.1h766.6C794.5,460.5,788.7,454.6,781.4,454.6z"/>
	<path fill="#FF9900" d="M110.7,90.1L103.2,76l14.2,7.4L110.7,90.1z"/>
	<path fill="#FF9900" d="M99.4,126.7L84.3,122l15.2-4.9V126.7z"/>
	<path fill="#FF9900" d="M117.4,160.5l-14.1,7.5l7.4-14.2L117.4,160.5z"/>
	<path fill="#FF9900" d="M187.7,153.7l7.5,14l-14.2-7.3L187.7,153.7z"/>
	<path fill="#FF9900" d="M199,117.2l15.2,4.7l-15.2,4.9V117.2z"/>
	<path fill="#FF9900" d="M181,83.4l14.1-7.5l-7.4,14.2L181,83.4z"/>
	<path fill="#FF9900" d="M105.5,121.9c0,24.1,19.5,43.7,43.6,43.7V78.2C125,78.2,105.5,97.7,105.5,121.9z"/>
	<path fill="#FF9900" d="M192.9,121.9c0-24.2-19.6-43.7-43.7-43.7h-0.1v87.5h0.1C173.4,165.7,192.9,146,192.9,121.9z"/>
	<path fill="#FF9900" d="M149.1,56.9v15.3h4.9L149.1,56.9z"/>
	<path fill="#FF9900" d="M144.4,72.2h4.7V56.9L144.4,72.2z"/>
	<path fill="#FF9900" d="M149.3,186.9l4.7-15.2h-4.9v14.6L149.3,186.9z"/>
	<path fill="#FF9900" d="M187.7,153.7l7.5,14l-14.2-7.3L187.7,153.7z"/>
	<path fill="#FF9900" d="M199,117.2l15.2,4.7l-15.2,4.9V117.2z"/>
	<path fill="#FF9900" d="M181,83.4l14.1-7.5l-7.4,14.2L181,83.4z"/>
	<path fill="#FF9900" d="M192.9,121.9c0-24.2-19.6-43.7-43.7-43.7h-0.1v87.5h0.1C173.4,165.7,192.9,146,192.9,121.9z"/>
	<path fill="#FF9900" d="M149.1,56.9v15.3h4.9L149.1,56.9z"/>
	<path fill="#FF9900" d="M149.3,186.9l4.7-15.2h-4.9v14.6L149.3,186.9z"/>
	<path fill="#FF9900" d="M149.1,186.3v-14.6h-4.7L149.1,186.3z"/>
	<path opacity="0.1" fill="#4D5A85" enable-background="new    " d="M187.7,153.7l7.5,14l-14.2-7.3L187.7,153.7z"/>
	<path opacity="0.1" fill="#4D5A85" enable-background="new    " d="M199,117.2l15.2,4.7l-15.2,4.9V117.2z"/>
	<path opacity="0.1" fill="#4D5A85" enable-background="new    " d="M181,83.4l14.1-7.5l-7.4,14.2L181,83.4z"/>
	<path opacity="0.1" fill="#4D5A85" enable-background="new    " d="M192.9,121.9c0-24.2-19.6-43.7-43.7-43.7h-0.1v87.5h0.1
		C173.4,165.7,192.9,146,192.9,121.9z"/>
	<path opacity="0.1" fill="#4D5A85" enable-background="new    " d="M149.1,56.9v15.3h4.9L149.1,56.9z"/>
	<path opacity="0.1" fill="#4D5A85" enable-background="new    " d="M149.3,186.9l4.7-15.2h-4.9v14.6L149.3,186.9z"/>
</g>
<path fill="#393762" d="M590.9,304.9c7.1,21,6.5,44.6-2.7,64.7c-9.3,20-27.6,36.1-49.1,41.1c-12.6,2.9-26.2,2-37.9-3.4
	c-11.6-5.5-21.3-15.9-24.7-28.3c-3.6-12.4-0.6-26.8,8.3-36.1c6.7-7,16.2-11,22-18.9c9.9-13.3,5.8-33.4,15.6-46.8
	c9-12.2,27.7-14.4,41.3-7.6C577.2,276.7,586.1,290.5,590.9,304.9z"/>
<path fill="#ECE0D3" d="M481.2,705.7c0,0-19.6,7.6-19.9,9.3h29.3l2-18.4L481.2,705.7z"/>
<path fill="#ECE0D3" d="M613.4,663.3l7.1,5.8c0,0-1,19.4,0.2,20.6l15.1-24.4l-15.1-10.8L613.4,663.3z"/>
<path fill="#E48868" d="M536.5,557.3c0,0,5.1,45.9,6.1,47.6c1,1.8,77.8,64.2,77.8,64.2l5.7-10.5l-54.3-77.2l7.8-91.5L536.5,557.3z"
	/>
<path fill="#E48868" d="M581.5,441.1c-19.5,2-39.1,3.6-56.1,12.3l4.6,15c0,0-26.7,77.4-27.7,83.9c-1,6.5-21.1,153.4-21.1,153.4
	l10.6-1.4l44.7-143.5c0,0,56-66.4,53.4-92.7C588.7,456.4,585.1,447.4,581.5,441.1z"/>
<path fill="#DE6879" d="M511.5,522.7c8.1-24.2,18.5-54.3,18.5-54.3l-4.6-15c17-8.7,36.7-10.3,56.1-12.3c3.7,6.3,7.2,15.3,8.5,27
	c0.8,8.2-4.1,20.4-11.2,33.2l-3.4,40c-6.8-1-13.5-2.5-20.2-4.2c-0.8-0.2-1.5-0.4-2.2-0.6c-0.9-0.3-1.7-0.4-2.6-0.7
	c-6.5-1.8-13.1-3.8-19.6-5.9C524.3,527.8,518,525.2,511.5,522.7z"/>
<path fill="#E48868" d="M539.1,348.7c0,0,2.4-21.1-1.5-24.5c-2.6-2.2-10.9,1.3-13.3-2.3c-0.7-1,0.6-9,1.1-14.3
	c0.2-1.4-4,0.3-3.8-1.2c0.3-1.7,7.1-8.7,7-10.5c-3.5-28.5,43.8-29.3,45.1-7c0.8,13.9-5.9,28.1-19,35.8l7.7,14.9L539.1,348.7z"/>
<path fill="#E48868" d="M526,400.1l-20.7,33.5c0,0-44.5,22.3-47,23.2c-2.6,0.9-15.8,12.1-17.4,14.7c-1.6,2.6,5,3.7,6.3,3.7
	c1.3,0,5.2-1.8,5.2-1.8s7.9,4.8,8.2,4.7c0.3-0.2,5.6-11.5,5.6-11.5s51.8-13.2,55.9-16.6c4.1-3.4,20.2-42.2,20.2-42.2L526,400.1z"/>
<path fill="#EFC33B" d="M527.3,392.1l-20.9,44.3c0,0-20.2-4.2-27.3,4.8c-7.1,9-15,12.9-15,12.9l2,12.5c0,0,51.4-4.6,59.3-13.1
	c7.8-8.5,7.3-54.8,7.3-54.8L527.3,392.1z"/>
<path fill="#ECE0D3" d="M538.9,349.2l-5.4-9.7l21.3-14.9l7.4,11L538.9,349.2z"/>
<path fill="#EFC33B" d="M577.9,347.4c0,0-13.4-18.7-27.8-12.2c-3.6,1.6-31.9,38.2-32.4,44.3c-0.5,6.1,11.2,27.6,11.2,27.6
	l-12.2,72.4l83.2-22.9l-18.5-44.4C581.5,412.1,587.4,387.8,577.9,347.4z"/>
<path fill="#C55469" d="M560.8,529.1c0.3,0,0.5-0.1,0.7-0.3c5.6-7.8,10.6-14.9,15.3-22.4c0.3-0.3,0.1-0.9-0.3-1.1
	c-0.3-0.3-0.9-0.1-1.1,0.3c-4.6,7.4-9.6,14.5-15.2,22.3c-0.3,0.3-0.2,0.9,0.2,1.1C560.5,529,560.7,529.1,560.8,529.1z"/>
<path fill="#E48868" d="M339,337.8l-4.7-18c0,0-6.8,1.9-9.8-1c-1.3-1.2-2.4-6.5-2.9-14.8c-0.1-0.8-3.4,0.9-3.4,0
	c-0.1-1.8,5.9-9.9,5.4-13.1c-1.9-12.1-0.9-15.2,2.6-18.6c7.7-7.6,34.9-8.7,38.6,4.5c3.7,13.2,2.6,19.5-4.2,38.3l4.1,18.7L339,337.8z
	"/>
<path fill="#ECE0D3" d="M272.1,681.6l-7,20.9c0,0-21.4,1.3-22,2.7l30.8,8.4l8.1-29.4L272.1,681.6z"/>
<path fill="#ECE0D3" d="M434.5,715.5h17.7l12.8-9.9l-15.9-26l-8.8,5.3l10.5,19.4l-3.2,7.7L434.5,715.5z"/>
<path fill="#E48868" d="M391,580.2c6.8-1.3,8.8-1.1,15.4-3l50.1,114.5l-9.2,6.2l-59.9-91.7l-9.3-22
	C382.8,583.2,386.3,581.1,391,580.2z"/>
<path fill="#E48868" d="M302.8,571.9c10.4,3.9,12.7,8.1,23.4,11l-1.6,7.6L278,699l-11-2.1L302.8,571.9z"/>
<path fill="#4E587F" d="M295.7,572.5l21.5-83.6h79.8l14.1,91.8c-6.8,1.9-13.5,3.7-20.5,4.9c-4.8,0.9-9.6,1.7-14.4,2.6l-21.8-55.9
	l-23,53.6C320.5,583,306.5,576.4,295.7,572.5z"/>
<path fill="#7FBBF7" d="M365.3,318.6c0,0-16.3,5.1-24.6,14.6c-8.2,9.4-21.5,36.8-21.8,39.8c-0.3,3.1,4.2,36.8,4.2,36.8l-14.8,89.3
	c0,0,63.1,9.8,94.6,0l-16.5-73.8c0,0,2.4-26,5-29c2.6-3.1-2-28.9-4.2-40.8c-2-12-11.5-25.6-14.7-28.4
	C369.2,324.2,365.3,318.6,365.3,318.6z"/>
<path fill="#7FBBF7" d="M359.9,320.7c7.6-5.1,34.1-5.9,37.2-3.9c3.1,2-4.2,8.5-3.4,12.7c0.8,4.2,16.3,9.9,11.1,19.1
	c-5.3,9.3-20.7,20.3-20.7,20.3L359.9,320.7z"/>
<path fill="#454F78" d="M352.2,524.6c0.2,0,0.3,0,0.4-0.1c0.3-0.3,0.5-0.8,0.3-1.1l-8.8-13.7c-0.3-0.3-0.8-0.5-1.1-0.3
	c-0.3,0.3-0.5,0.8-0.3,1.1l8.8,13.7C351.7,524.6,352,524.6,352.2,524.6z"/>
<path fill="#393762" d="M320.9,255.8c-0.1,1.6,0.6,3.2,1.8,4.3c-0.8-2.8,2-5.8,4.9-5.8c3,0,4.9,1.7,6.6,4.1c-0.7-1.3-3-0.9-3.6,0.4
	c-0.6,1.4,0.1,3,1.4,3.8c1.2,0.8,2.8,1,4.3,1c3.5,0,6.8-0.9,10.2-1.9c3.3-0.9,6.7-1.8,10.2-1.8c3.5,0,7.1,1,9.5,3.4
	c2.5,2.4,3.3,7,1.7,10.1c8.7,3.6,2.6,18.7,0,25.4c-2.6,6.7-7.2,16.1-7.2,16.1l-8.8-8.7c0,0,6.8-7.9,3.8-11.4c-3-3.6-6.1,2-6.1,2
	s-1,16.7-3.3,17.7s-16,10.8-21.9,8.7c-5.8-2.1-2.7-19.3-2.7-19.3l8.6-1c7.8-0.9,13.7-7.7,13.4-15.5c0,0-9.3,3.1-11-4.8
	c-6.5-0.9-14.3-3.6-16.8-9.7C313.5,267,315.4,259.2,320.9,255.8z"/>
<path fill="#DC5955" d="M334.8,263.5c0,0,14.6,33.4,30.7,40.8c0,0,12.4-21.1,12.2-30.5c-0.3-9.4-7.1-15.5-17.9-16.2
	C349.1,256.8,334.8,263.5,334.8,263.5z"/>
<path fill="#E48868" d="M437.8,465.4c1.4-2.2-1.7-7.5-4-10.4c1.8-3,1.8-9.7,3.4-12.8c9.7,17,16.6,24,17.3,26.3
	c1.8,5.1,2.5,7.9-1.7,8.2c-4.2,0.3-1.8,5.9-5.3,5.6c-3.5-0.3-1.8,6.4-5.2,4.5c-3.5-2-3.1-10-3.1-10S432.3,474,437.8,465.4z"/>
<path fill="#7FBBF7" d="M377.1,333.2c10.6,5.6,71.3,120.6,71.3,120.6l-15.6,9.9c0,0-13.7-22.3-21.2-27.9c-7.5-5.5-9.9-8-10.6-18.9
	c-0.8-10.9-34.9-37.9-40.4-49.9C355,355,369.7,329.4,377.1,333.2z"/>
<path fill="#A34745" d="M362.1,295c0.2,0,0.3-0.1,0.5-0.2c0.3-0.3,0.3-0.8,0.1-1.1c-6.7-7.3-12.2-15.5-16.6-24.5
	c-0.2-0.4-0.7-0.6-1-0.3c-0.4,0.2-0.6,0.7-0.3,1c4.4,9.1,10,17.4,16.8,24.9C361.7,294.9,361.9,295,362.1,295z"/>
<path fill="#639BDA" d="M391.4,397.1c0.3,0,0.7-0.3,0.8-0.7c4.4-23,1.5-54-19.9-72.2c-0.3-0.3-0.8-0.3-1.1,0.1s-0.3,0.8,0.1,1.1
	c20.9,17.7,23.7,48.1,19.4,70.7c-0.1,0.4,0.2,0.8,0.6,0.9C391.3,397.1,391.4,397.1,391.4,397.1z"/>
<path fill="#7FBBF7" d="M312.7,397.7h9.3c0,0,22.4-52.1,30.2-58.5c7.7-6.5,9.8,54.5-3,72.8c-12.8,18.3-15.8,18.3-40.4,8.7
	C284,410.9,312.7,397.7,312.7,397.7z"/>
<path fill="#E48868" d="M239.4,377c-1-2.3-0.4-9.5,0.5-8.9c0.9,0.7,1.7,4.7,1.7,4.7l0.3,2c0,0,1.4-0.5,1.5,0c0.1,0.5,0.6,3,0.6,3
	l0.3,4.8L239.4,377z"/>
<path fill="#ECE0D3" d="M250.8,386.2l-5.5-20.5l-4.6-16.3l-5.9,2.2l10.9,35.1L250.8,386.2z"/>
<path fill="#E48868" d="M309,398.2l-4.7,18.5c0,0-47.4-18.5-49.8-19.4c0,0-7.3-5.8-8.8-6.8c-1.4-1.1-6-12.5-6.4-13.6
	c-0.3-1.1,8.4-1.6,8.4-1.6s0.3-5.4,0.7-7.2c0.3-0.9,2.3-5.2,3.1-2.3l2,8.4l2.8,2.8c1.4,2,3.1,10.4,3.1,10.4L309,398.2z"/>
<path fill="#7FBBF7" d="M312.7,397.7c0,0-4.9-14-14.3-8.3C289.1,395,288,388,288,388l-25.3-7l-8.2,16.2l54.2,23.3L312.7,397.7z"/>
<path fill="#639BDA" d="M334,427.9c3.2,0,6.7-1.2,9.9-3.5c3.7-2.7,6.4-6.4,8.8-9.9c7.3-10.5,13.7-21.7,19.1-33.3
	c3.6-7.6,6.9-15.8,7.1-24.5c0.3-8-2-14.9-6.1-18.7c-3-2.7-6.9-3.7-11.6-3.1c-0.4,0.1-0.8,0.4-0.7,0.9c0.1,0.4,0.4,0.8,0.9,0.7
	c4.2-0.6,7.6,0.3,10.3,2.6c3.7,3.4,5.9,9.9,5.6,17.4c-0.3,8.5-3.6,16.5-7,23.9c-5.4,11.5-11.7,22.6-19,33c-2.4,3.4-5,7-8.4,9.5
	c-3.7,2.7-8.1,3.7-11.6,2.8c-0.4-0.1-0.9,0.2-0.9,0.6c-0.1,0.4,0.2,0.9,0.6,0.9C331.9,427.8,332.9,427.9,334,427.9z"/>
<path fill="#639BDA" d="M327.9,393.2c0.5,0,0.9-0.4,0.8-0.8c-0.5-6.8-0.7-14.4,4.2-18.9c0.9-0.8,2-1.5,3.1-2.2c0.9-0.6,2-1.3,2.9-2
	c3-2.5,4.8-6.2,6.5-9.7c2-4.2,3.8-8,7.5-10.1c0.3-0.3,0.5-0.7,0.3-1.1c-0.3-0.3-0.7-0.5-1.1-0.3c-4.1,2.4-6.1,6.6-8.2,10.8
	c-1.6,3.4-3.3,6.9-6,9.2c-0.8,0.7-1.7,1.3-2.7,2c-1.1,0.7-2.2,1.4-3.2,2.4c-5.4,4.9-5.2,13-4.7,20.1
	C327.2,392.8,327.5,393.2,327.9,393.2z"/>
<path fill="#ECE0D3" d="M524.2,435.6l77.6-16.5l14.5,56.6L537,494.6C531.9,475,530.2,454.8,524.2,435.6z"/>
<path fill="#E48868" d="M573.8,479.7c1.9-2-0.2-7.7-1.8-11c2.4-2.5,3.7-9.1,5.9-11.9c6.1,18.6,11.5,26.8,11.8,29.2
	c0.7,5.3,0.9,8.2-3.2,7.7c-4.2-0.5-3,5.5-6.3,4.4c-3.3-1.1-3,5.9-6,3.4c-3-2.5-1-10.4-1-10.4S566.8,487.1,573.8,479.7z"/>
<path fill="#EFC33B" d="M577.9,347.4c7.4,9.5,9.9,127.6,9.9,127.6l-18.4,2.5c0,0-3.1-26-7.7-34.1c-4.5-8.2-5.7-11.4-1.8-21.6
	c3.9-10.2-11.3-37.2-11.2-50.4C548.8,358,572.8,340.8,577.9,347.4z"/>
<path fill="#E8A12B" d="M522,450.7c0.3,0,0.7-0.3,0.8-0.7l6.9-42.7c0-0.2,0-0.3-0.1-0.4l-3-7.1c-0.2-0.4-0.6-0.6-1-0.4
	c-0.4,0.2-0.6,0.6-0.4,1l2.9,6.9l-6.9,42.5c-0.1,0.4,0.3,0.8,0.7,0.9C521.9,450.7,522,450.7,522,450.7z"/>
<path fill="#E8A12B" d="M559.8,418.4C559.8,418.4,559.9,418.4,559.8,418.4c0.5-0.1,0.9-0.4,0.8-0.9l-4.2-42.5
	c-0.4-4.1-0.9-8.3,0.1-12.3c1-4.3,3.6-7.7,6.9-9.1c0.4-0.2,0.6-0.6,0.4-1c-0.2-0.4-0.6-0.6-1-0.4c-3.8,1.5-6.7,5.3-7.8,10.2
	c-0.9,4.2-0.5,8.7-0.1,12.8l4.2,42.5C559,418.1,559.4,418.4,559.8,418.4z"/>
<path fill="#BA745D" d="M539,558.7c0.3,0,0.5-0.1,0.7-0.3l13.1-18.1c0.3-0.3,0.2-0.8-0.2-1.1c-0.3-0.3-0.8-0.2-1.1,0.2l-13.1,18.1
	c-0.3,0.3-0.2,0.8,0.2,1.1C538.6,558.6,538.8,558.7,539,558.7z"/>
<path fill="#393762" d="M554.8,324.6c-22.7-13.5-32.8-35.7-32.8-35.7l10.7-15.7c0,0,37.8-11.2,47.5,15.7
	C589.9,315.8,554.8,324.6,554.8,324.6z"/>
</svg>
