<svg width="1920" height="955" viewBox="0 0 1920 955" fill="none" xmlns="http://www.w3.org/2000/svg">
<path d="M-23 0H1943V955H-23V0Z" fill="#EBEBEB"/>
<mask id="mask0" mask-type="alpha" maskUnits="userSpaceOnUse" x="-23" y="0" width="1966" height="955">
<path d="M-23 0H1943V955H-23V0Z" fill="#EBEBEB"/>
</mask>
<g mask="url(#mask0)">
<path d="M1380.5 405L1581 109V-13H-316C-227.667 104 -46.8 374.3 -30 399.5C-13.2 424.7 -9.66663 450.667 -10 460.5V1067H1364V461C1364 433 1375 412 1380.5 405Z" fill="#BB2539"/>
<path d="M1606.5 403L1807 137L1797 -1H-20C68.3291 115.994 239.184 372.275 255.997 397.496L256 397.5C272.8 422.7 276.333 448.667 276 458.5V1065H1590V459C1590 431 1601 410 1606.5 403Z" fill="white"/>
<path d="M1897.5 406L2095 132L2085 -1H268C356.333 116 530.2 375.3 547 400.5C563.8 425.7 567.333 451.667 567 461.5V1068H1881V462C1881 434 1892 413 1897.5 406Z" fill="#BB2539"/>
<g filter="url(#filter0_b)">
<path d="M913.059 609.5L921.559 685C929.393 687.333 944.96 692 944.56 692C944.56 687.6 948.226 684.833 950.06 684C950.06 684 1064.56 652.7 1064.56 647.5C1064.56 642.3 1054.23 632 1050.56 629C1050.23 627.667 1049.56 624.7 1049.56 623.5C1049.56 622 1049.56 620.5 1046.06 613C1042.56 605.5 1041.56 609 1039.56 605.5C1037.56 602 1039.56 599.5 1039.56 595.5C1039.56 591.5 1038.56 591 1036.06 587C1033.56 583 1033.56 581 1033.06 574C1032.56 567 1028.06 554.5 1024.56 548C1021.06 541.5 1023.56 531 1021.06 524.5C1018.56 518 1015.06 503 1013.06 499C1011.06 495 1014.56 482.5 1014.06 479C1013.56 475.5 1016.56 472.5 1011.56 468C1006.56 463.5 1007.06 462.5 1006.06 456C1005.06 449.5 1007.56 438 1007.06 424.5C1006.56 411 1004.06 409 1002.06 398.5C1000.46 390.1 996.393 374.333 995.06 367.5C994.226 364.5 993.06 354 987.06 336C979.56 313.5 966.06 307.5 960.56 304C956.16 301.2 947.726 300.833 944.06 301L877.06 270.5L859.06 263C858.393 266 856.859 272.8 856.059 276C855.259 279.2 862.726 299.667 866.559 309.5C870.893 325.333 878.259 359.6 881.059 370C884.559 383 896.059 445.5 896.559 453.5C897.059 461.5 905.059 520.5 903.059 532C901.459 541.2 909.726 587.5 913.059 609.5Z" fill="#BB2539" fill-opacity="0.6"/>
</g>
<path d="M2172.5 407L2373 141L2382 1H565C651.134 115.087 816.695 363.528 840.461 399.19L842 401.5C858.8 426.7 862.333 452.667 862 462.5V1069H2156V463C2156 435 2167 414 2172.5 407Z" fill="white"/>
<g filter="url(#filter1_b)">
<path d="M702 947.177C697.6 942.777 692.167 931.01 690 925.677C690 924.509 690.2 922.375 691 923.175C692 924.175 709.5 927.677 716 927.677C720.295 927.677 723.935 925.93 725.045 925.322C725.488 925.079 725.528 925.018 725.045 925.322C724.907 925.409 724.726 925.526 724.5 925.677C722.1 927.277 725.5 945.677 727.5 954.677H709.5L702 947.177Z" fill="#BB2539" fill-opacity="0.6"/>
</g>
</g>
<defs>
<filter id="filter0_b" x="853" y="260" width="214.56" height="435" filterUnits="userSpaceOnUse" color-interpolation-filters="sRGB">
<feFlood flood-opacity="0" result="BackgroundImageFix"/>
<feGaussianBlur in="BackgroundImage" stdDeviation="1.5"/>
<feComposite in2="SourceAlpha" operator="in" result="effect1_backgroundBlur"/>
<feBlend mode="normal" in="SourceGraphic" in2="effect1_backgroundBlur" result="shape"/>
</filter>
<filter id="filter1_b" x="687" y="920" width="43.5" height="37.6765" filterUnits="userSpaceOnUse" color-interpolation-filters="sRGB">
<feFlood flood-opacity="0" result="BackgroundImageFix"/>
<feGaussianBlur in="BackgroundImage" stdDeviation="1.5"/>
<feComposite in2="SourceAlpha" operator="in" result="effect1_backgroundBlur"/>
<feBlend mode="normal" in="SourceGraphic" in2="effect1_backgroundBlur" result="shape"/>
</filter>
</defs>
</svg>
