<svg width="50" height="42" viewBox="0 0 50 42" fill="none" xmlns="http://www.w3.org/2000/svg">
<path fill-rule="evenodd" clip-rule="evenodd" d="M47.0351 15.9086C47.1328 14.7639 47.0099 13.5876 46.6673 12.4492C45.3242 7.98828 40.6339 5.52754 36.2173 6.59473C33.8114 2.85156 29.5364 0.492188 25 0.492188C20.4428 0.492188 16.2851 2.80195 13.8755 6.5959C9.31865 5.50742 4.66533 8.02275 3.33271 12.4492C2.99004 13.5875 2.86709 14.7639 2.96484 15.9086C1.196 16.9183 0 18.8215 0 21C0 23.1152 1.14297 25.0424 2.92969 26.0754V28.3242C2.92969 30.7153 4.08174 32.8422 5.85957 34.1797L5.85938 34.1836V40.043C5.85938 40.852 6.51523 41.5078 7.32422 41.5078H10.2539C10.7685 41.5078 11.2452 41.2378 11.51 40.7966L14.5989 35.6484H35.4012L38.49 40.7966C38.7548 41.2378 39.2315 41.5078 39.7461 41.5078H42.6758C43.4848 41.5078 44.1406 40.852 44.1406 40.043V34.1836L44.1404 34.1797C45.9183 32.8422 47.0703 30.7153 47.0703 28.3242V26.0754C48.857 25.0423 50 23.1152 50 21C50 18.8215 48.804 16.9183 47.0351 15.9086ZM6.13809 13.2937C7.15264 9.92373 10.9637 8.47393 14.0108 9.70557C14.7145 9.99014 15.5186 9.69004 15.8641 9.01445C17.6281 5.56484 21.1288 3.42188 25 3.42188C28.8718 3.42188 32.4963 5.61709 34.2336 9.01445C34.5791 9.68994 35.3832 9.98984 36.0868 9.70557C39.122 8.47861 42.8618 9.97139 43.862 13.2937C44.0486 13.9136 44.1413 14.5311 44.1411 15.1406H44.1407C40.9099 15.1406 38.2813 17.7691 38.2813 21V21.252C37.8229 21.0894 37.3301 21 36.8165 21H27.9298C26.8051 21 25.7782 21.4252 25.0001 22.1226C24.2219 21.4252 23.195 21 22.0703 21H13.1836C12.6701 21 12.1772 21.0894 11.7188 21.252C11.7188 17.4897 8.89229 15.1406 5.85938 15.1406H5.85889C5.85879 14.5311 5.95146 13.9137 6.13809 13.2937ZM38.2812 25.3945C38.2812 26.2022 37.6241 26.8594 36.8164 26.8594H27.9297C27.122 26.8594 26.4648 26.2022 26.4648 25.3945C26.4648 24.5868 27.122 23.9297 27.9297 23.9297H36.8164C37.6241 23.9297 38.2812 24.5868 38.2812 25.3945ZM23.5352 25.3945C23.5352 26.2022 22.878 26.8594 22.0703 26.8594H13.1836C12.3759 26.8594 11.7188 26.2022 11.7188 25.3945C11.7188 24.5868 12.3759 23.9297 13.1836 23.9297H22.0703C22.878 23.9297 23.5352 24.5868 23.5352 25.3945ZM9.42451 38.5781H8.78906V35.5011C9.2625 35.5976 9.75234 35.6484 10.2539 35.6484H11.1823L9.42451 38.5781ZM41.2109 38.5781H40.5755L38.8177 35.6484H39.7461C40.2477 35.6484 40.7375 35.5976 41.2109 35.5011V38.5781ZM45.1173 23.7634C44.5319 23.9703 44.1406 24.5237 44.1406 25.1445V28.3242C44.1406 30.7474 42.1692 32.7188 39.7461 32.7188H10.2539C7.83076 32.7188 5.85938 30.7474 5.85938 28.3242V25.1444C5.85938 24.5236 5.46807 23.9702 4.88271 23.7633C3.71455 23.3505 2.92969 22.2399 2.92969 21C2.92969 19.3846 4.24395 18.0703 5.85938 18.0703C7.4748 18.0703 8.78906 19.3846 8.78906 21V25.3945C8.78906 27.8177 10.7604 29.7891 13.1836 29.7891H22.0703C23.195 29.7891 24.2219 29.3639 25 28.6665C25.7781 29.364 26.805 29.7891 27.9297 29.7891H36.8164C39.2396 29.7891 41.2109 27.8177 41.2109 25.3945V21C41.2109 19.3846 42.5252 18.0703 44.1406 18.0703C45.7561 18.0703 47.0703 19.3846 47.0703 21C47.0703 22.2399 46.2854 23.3505 45.1173 23.7634ZM15.6042 15.1406L15.1751 15.5697C14.6031 16.1417 14.6031 17.0692 15.1752 17.6412C15.7472 18.2133 16.6748 18.2133 17.2468 17.6412L17.6759 17.2121L18.105 17.6412C18.3908 17.9274 18.7657 18.0703 19.1406 18.0703C20.4342 18.0703 21.1019 16.4952 20.1764 15.5697L19.7474 15.1406L20.1765 14.7115C20.7485 14.1395 20.7485 13.212 20.1765 12.6399C19.6045 12.0679 18.677 12.0679 18.1049 12.6399L17.6758 13.069L17.2467 12.6399C16.6747 12.0679 15.7472 12.0679 15.1751 12.6399C14.603 13.212 14.603 14.1395 15.1751 14.7115L15.6042 15.1406ZM29.9212 15.5697L30.3503 15.1406L29.9212 14.7115C29.3491 14.1395 29.3491 13.212 29.9212 12.6399C30.4933 12.0679 31.4208 12.0679 31.9928 12.6399L32.4219 13.069L32.851 12.6399C33.4231 12.0679 34.3506 12.0679 34.9226 12.6399C35.4946 13.212 35.4946 14.1395 34.9226 14.7115L34.4935 15.1406L34.9227 15.5696C35.4947 16.1417 35.4947 17.0691 34.9227 17.6412C34.3507 18.2133 33.4231 18.2133 32.8511 17.6412L32.422 17.2121L31.9929 17.6412C31.4209 18.2133 30.4933 18.2133 29.9213 17.6412C29.3491 17.0692 29.3491 16.1417 29.9212 15.5697Z" fill="url(#paint0_linear)"/>
<defs>
<linearGradient id="paint0_linear" x1="25" y1="0.492187" x2="25" y2="41.5078" gradientUnits="userSpaceOnUse">
<stop offset="0.364583" stop-color="white"/>
<stop offset="1" stop-color="#E1E1E1" stop-opacity="0.47"/>
</linearGradient>
</defs>
</svg>
