<svg width="81" height="81" viewBox="0 0 81 81" fill="none" xmlns="http://www.w3.org/2000/svg">
<g clip-path="url(#clip0)">
<path d="M74.2327 42.2682L68.7887 39.2429V36.7805C68.7887 35.1247 67.4462 33.7822 65.7904 33.7822C64.4145 33.7822 63.2577 34.7102 62.9052 35.9734L58.3242 33.4276V31.1587C58.3242 29.5028 56.9817 28.1603 55.3259 28.1603C54.0102 28.1603 52.8957 29.0085 52.4915 30.1866L48.4271 27.928C48.126 22.1092 47.5799 16.7714 46.8189 12.3414C46.2153 8.82722 45.5017 6.04179 44.698 4.06253C44.2896 3.05772 43.048 0 40.5 0C37.9518 0 36.7101 3.05772 36.302 4.06253C35.4982 6.04179 34.7846 8.82722 34.181 12.3414C33.4202 16.7714 32.8739 22.1092 32.5728 27.928L28.5082 30.1866C28.104 29.0085 26.9892 28.1603 25.6741 28.1603C24.0181 28.1603 22.6757 29.5028 22.6757 31.1587V33.4276L18.0943 35.9734C17.7416 34.71 16.5849 33.7822 15.2092 33.7822C13.5532 33.7822 12.2109 35.1247 12.2109 36.7805V39.2429L6.7665 42.2682C6.17171 42.5991 5.80273 43.2257 5.80273 43.9062V51.7239C5.80273 52.3305 6.09657 52.8998 6.59129 53.2514C7.08601 53.6029 7.72016 53.6929 8.2934 53.4933L32.3953 45.0926C32.6181 52.6037 33.233 59.5308 34.1808 65.0493C34.3527 66.0504 34.5339 66.9902 34.7233 67.8713L22.1737 74.8452C21.8505 75.0247 21.6501 75.365 21.6501 75.7352V79.9817C21.6501 80.3117 21.8098 80.6207 22.0785 80.812C22.3472 81.0028 22.6917 81.0515 23.0033 80.9434L37.6724 75.8305C38.3466 76.6796 39.2708 77.3913 40.4998 77.3913C41.7287 77.3913 42.6529 76.6796 43.327 75.8305L57.9961 80.9434C58.1055 80.9811 58.2187 81.0002 58.3311 81.0002C58.5397 81.0002 58.7464 80.9361 58.9207 80.812C59.1894 80.6207 59.3489 80.3119 59.3489 79.9817V75.735C59.3489 75.365 59.1487 75.0245 58.8255 74.8452L46.2758 67.8713C46.4651 66.9906 46.6463 66.0508 46.8183 65.0493C47.7664 59.5311 48.381 52.6037 48.6037 45.0926L72.7058 53.4933C72.9065 53.5634 73.1151 53.5979 73.3223 53.5979C73.7065 53.5979 74.0865 53.4796 74.4075 53.2514C74.9026 52.9 75.1963 52.3305 75.1963 51.7239V43.9062C75.1964 43.2257 74.8278 42.5987 74.2327 42.2682Z" fill="#BB2539"/>
</g>
<defs>
<clipPath id="clip0">
<rect width="81" height="81" fill="white"/>
</clipPath>
</defs>
</svg>
