<svg width="79" height="79" viewBox="0 0 79 79" fill="none" xmlns="http://www.w3.org/2000/svg">
<path d="M27.9277 41.8125V46.4414H32.5566C32.5566 41.5027 32.553 41.9819 32.5645 41.8125H27.9277Z" fill="#BB2539"/>
<rect x="20" y="32" width="39" height="40" fill="white"/>
<path d="M62.9254 17.8376L47.1214 2.03358C45.8099 0.722061 44.0662 0 42.2116 0H20.9844C17.1559 0 14.041 3.11487 14.041 6.94336V72.0566C14.041 75.8851 17.1559 79 20.9844 79H58.0156C61.8441 79 64.959 75.8851 64.959 72.0566V22.7473C64.959 20.8928 64.2369 19.1491 62.9254 17.8376ZM55.7012 64.959C55.7012 67.5115 53.6248 69.5879 51.0723 69.5879H27.9277C25.3752 69.5879 23.2988 67.5115 23.2988 64.959V41.8145C23.2988 39.2619 25.3752 37.1855 27.9277 37.1855H51.0723C53.6248 37.1855 55.7012 39.2619 55.7012 41.8145V64.959Z" fill="#BB2539"/>
<path d="M37.1777 41.8125C37.1892 41.9903 37.1856 40.4726 37.1856 64.957H41.8145C41.8145 40.4769 41.8103 41.9897 41.8223 41.8125H37.1777Z" fill="#BB2539"/>
<path d="M27.9277 60.3281H32.5566V64.957H27.9277V60.3281Z" fill="#BB2539"/>
<path d="M27.9277 51.0703H32.5566V55.6992H27.9277V51.0703Z" fill="#BB2539"/>
<path d="M46.4434 55.6992H51.0741L51.0723 41.8125H46.4355C46.447 41.9879 46.4434 40.853 46.4434 55.6992Z" fill="#BB2539"/>
<path d="M51.0723 60.3281H46.4434V64.957H51.0753L51.0747 60.3281C51.0741 60.3281 51.0729 60.3281 51.0723 60.3281Z" fill="#BB2539"/>
</svg>
