<svg width="80" height="80" viewBox="0 0 80 80" fill="none" xmlns="http://www.w3.org/2000/svg">
<rect x="31.999" y="6" width="20" height="59" fill="white"/>
<path d="M63.4376 4.6875C64.7331 4.6875 65.7814 3.63922 65.7814 2.34375C65.7814 1.04828 64.7331 0 63.4376 0H35.3126C28.849 0 23.5939 5.41359 23.5939 11.875V47.0312H16.5626C15.6517 47.0312 14.8276 47.5577 14.4386 48.3817C14.054 49.2034 14.1776 50.1761 14.7636 50.8766L38.2011 79.1578C38.6451 79.6909 39.3044 80 40.0001 80C40.6959 80 41.3551 79.6909 41.7992 79.1577L65.2367 50.8764C65.8226 50.1761 65.9462 49.2033 65.5617 48.3816C65.1726 47.5577 64.3486 47.0312 63.4376 47.0312H56.4064V11.875C56.4064 7.99781 59.5604 4.6875 63.4376 4.6875ZM44.6876 61.0938C43.3933 61.0938 42.3439 60.0444 42.3439 58.75C42.3439 57.4553 43.3933 56.4062 44.6876 56.4062C45.982 56.4062 47.0314 57.4553 47.0314 58.75C47.0314 60.0444 45.982 61.0938 44.6876 61.0938ZM46.3447 51.032L36.9697 60.407C36.0542 61.3225 34.5709 61.3225 33.6554 60.407C32.74 59.4916 32.74 58.0083 33.6554 57.0928L43.0304 47.7178C43.9459 46.8023 45.4292 46.8023 46.3447 47.7178C47.2601 48.6333 47.2603 50.1166 46.3447 51.032ZM32.9689 49.375C32.9689 48.0803 34.0183 47.0312 35.3126 47.0312C36.607 47.0312 37.6564 48.0803 37.6564 49.375C37.6564 50.6694 36.607 51.7188 35.3126 51.7188C34.0183 51.7188 32.9689 50.6694 32.9689 49.375ZM42.4492 36.9306C42.4145 36.9433 42.3786 36.9375 42.3439 36.9495V40C42.3439 41.2955 41.2956 42.3438 40.0001 42.3438C38.7047 42.3438 37.6564 41.2955 37.6564 40V36.865C36.172 36.3303 34.7467 35.3623 33.5183 33.9003C32.6851 32.9092 32.8133 31.4306 33.8067 30.5975C34.7954 29.7644 36.274 29.8925 37.1072 30.8836C38.3386 32.3484 39.6889 32.9389 40.8472 32.527C41.7398 32.1997 42.344 31.3094 42.344 30.3114C42.344 28.9175 41.1309 28.2812 40.0003 28.2812C36.1872 28.2812 32.969 24.9167 32.969 20.9364C32.969 18.1716 34.704 15.6492 37.3911 14.5117C37.4769 14.4755 37.57 14.4783 37.6565 14.4453V11.875C37.6565 10.5795 38.7048 9.53125 40.0003 9.53125C41.2958 9.53125 42.344 10.5795 42.344 11.875V14.2136C43.7686 14.5867 45.1436 15.3137 46.3175 16.4527C47.2467 17.3522 47.2697 18.8377 46.3725 19.7669C45.4708 20.6961 43.9875 20.7236 43.0583 19.8172C41.3554 18.1692 39.7944 18.5789 39.2176 18.8284C38.2701 19.2313 37.6567 20.0575 37.6567 20.9364C37.6567 22.3028 38.7965 23.5938 40.0005 23.5938C44.0105 23.5938 47.0317 26.4822 47.0317 30.3114C47.0314 33.2731 45.1912 35.9328 42.4492 36.9306Z" fill="#BB2539"/>
</svg>
