<svg width="80" height="80" viewBox="0 0 80 80" fill="none" xmlns="http://www.w3.org/2000/svg">
<path d="M25.9621 18.7059C25.9076 18.5102 25.8431 18.2578 25.7659 17.9481C25.6886 17.6374 25.638 17.415 25.6141 17.281C25.5924 17.4055 25.5485 17.6107 25.4846 17.8964C25.4195 18.1822 25.2761 18.7448 25.0537 19.5853H26.1934L25.9621 18.7059Z" fill="#BB2539"/>
<path d="M19.001 11L62.501 8.5L63.001 72H19.001V11Z" fill="white"/>
<path d="M49.399 17.5156H49.1133V18.7403H49.384C49.8894 18.7403 50.1423 18.5169 50.1423 18.0693C50.1429 17.7008 49.8944 17.5156 49.399 17.5156Z" fill="#BB2539"/>
<path d="M39.4277 18.6378C39.5556 18.5155 39.6206 18.347 39.6206 18.1324C39.6206 17.7711 39.4199 17.5898 39.0196 17.5898H38.6455V18.8212H38.9096C39.1264 18.8212 39.2998 18.7606 39.4277 18.6378Z" fill="#BB2539"/>
<path d="M44.2275 17.5234C43.502 17.5234 43.1406 18.0466 43.1406 19.0923C43.1406 20.1274 43.4998 20.6455 44.2208 20.6455C44.5872 20.6455 44.8579 20.5194 45.0363 20.2681C45.2131 20.0162 45.3026 19.6243 45.3026 19.0923C45.3026 18.5569 45.2131 18.1616 45.0336 17.9065C44.854 17.6513 44.5849 17.5234 44.2275 17.5234Z" fill="#BB2539"/>
<path d="M20.6779 17.5898H20.3037V18.8212H20.5678C20.7851 18.8212 20.958 18.7606 21.0865 18.6378C21.2143 18.5155 21.2788 18.347 21.2788 18.1324C21.2783 17.7705 21.0776 17.5898 20.6779 17.5898Z" fill="#BB2539"/>
<path d="M61.7676 7C61.6836 7 61.5975 7.00389 61.5396 7.00945L17.3803 9.82636C15.9633 9.95533 14.8536 11.095 14.8536 12.4198V12.6816C14.8053 12.8239 14.7725 12.974 14.7725 13.1336V74.5979C14.7725 75.3729 15.4007 76 16.1751 76H58.9646C59.7395 76 60.3672 75.3718 60.3672 74.5979V72.8195L61.7009 72.7228C63.1179 72.5949 64.2276 71.4547 64.2276 70.1299V9.3199C64.2287 8.01902 63.1485 7 61.7676 7ZM20.304 21.7761H18.8563V16.4191H20.7104C21.3875 16.4191 21.8951 16.567 22.2347 16.8628C22.5744 17.158 22.7434 17.5783 22.7434 18.1231C22.7434 18.7218 22.5677 19.1838 22.2147 19.5101C21.8611 19.8365 21.3603 19.9993 20.7104 19.9993H20.304V21.7761ZM31.4282 28.0359C32.0714 27.7863 32.3866 28.1404 32.1537 28.7903C31.4621 30.721 30.9289 33.0009 30.5592 35.4465C30.4564 36.1275 29.8338 36.7507 29.1516 36.8535C26.7078 37.2227 24.4279 37.7564 22.496 38.4485C21.8472 38.6803 21.4926 38.3662 21.7416 37.723C23.4633 33.2889 26.9952 29.7576 31.4282 28.0359ZM22.8913 21.7761L24.6397 16.3969H26.571L28.3411 21.7761H26.7578L26.4937 20.7721H24.7531L24.4824 21.7761H22.8913ZM30.7866 20.0822C30.746 20.0271 30.6821 19.9721 30.5915 19.9154C30.5025 19.8587 30.2652 19.7442 29.8793 19.5713C29.5302 19.4123 29.2684 19.2583 29.0938 19.1093C28.9193 18.9603 28.7897 18.7896 28.7058 18.5962C28.6213 18.4027 28.5785 18.1748 28.5785 17.9113C28.5785 17.4176 28.758 17.0329 29.1172 16.7572C29.4763 16.4814 29.97 16.343 30.5976 16.343C31.1524 16.343 31.7178 16.4708 32.2943 16.7277L31.8512 17.8451C31.3503 17.6161 30.9178 17.501 30.5537 17.501C30.3658 17.501 30.229 17.5343 30.1434 17.5999C30.0578 17.6661 30.0155 17.7478 30.0155 17.8451C30.0155 17.9502 30.07 18.0441 30.1784 18.1275C30.2874 18.2104 30.5826 18.3621 31.064 18.5823C31.5255 18.7896 31.8462 19.012 32.0252 19.2505C32.2048 19.4884 32.2943 19.7886 32.2943 20.15C32.2943 20.4825 32.2104 20.7777 32.0414 21.035C31.8729 21.293 31.63 21.4926 31.3125 21.636C30.9945 21.7789 30.6221 21.85 30.1946 21.85C29.8371 21.85 29.5386 21.825 29.2962 21.775C29.0549 21.725 28.8031 21.6377 28.5423 21.5126V20.2228C28.8186 20.3652 29.1055 20.4758 29.4035 20.5553C29.7014 20.6348 29.975 20.6742 30.2246 20.6742C30.4397 20.6742 30.5971 20.637 30.6977 20.5625C30.7977 20.488 30.8478 20.3924 30.8478 20.2745C30.8472 20.2012 30.8267 20.1367 30.7866 20.0822ZM34.99 20.0822C34.95 20.0271 34.8855 19.9721 34.796 19.9154C34.7065 19.8587 34.4691 19.7442 34.0833 19.5713C33.7336 19.4123 33.4718 19.2583 33.2972 19.1093C33.1232 18.9598 32.9931 18.7896 32.9092 18.5962C32.8252 18.4027 32.7819 18.1748 32.7819 17.9113C32.7819 17.4176 32.962 17.0329 33.3217 16.7572C33.6808 16.4814 34.1734 16.343 34.8016 16.343C35.3558 16.343 35.9218 16.4708 36.4977 16.7277L36.0546 17.8451C35.5543 17.6161 35.1218 17.501 34.7582 17.501C34.5692 17.501 34.4324 17.5343 34.3479 17.5999C34.2623 17.6661 34.2189 17.7478 34.2189 17.8451C34.2189 17.9502 34.274 18.0441 34.3824 18.1275C34.4908 18.2109 34.7866 18.3621 35.2674 18.5823C35.7289 18.7896 36.0496 19.012 36.2286 19.2505C36.4082 19.4884 36.4977 19.7886 36.4977 20.15C36.4977 20.4825 36.4138 20.7777 36.2453 21.035C36.0763 21.293 35.8334 21.4926 35.5159 21.636C35.1985 21.7789 34.8266 21.85 34.398 21.85C34.0416 21.85 33.7425 21.825 33.5007 21.775C33.2589 21.725 33.0076 21.6377 32.7463 21.5126V20.2228C33.022 20.3652 33.3094 20.4758 33.6074 20.5553C33.9048 20.6348 34.1784 20.6742 34.428 20.6742C34.6437 20.6742 34.801 20.637 34.9011 20.5625C35.0011 20.488 35.0517 20.3924 35.0517 20.2745C35.0512 20.2012 35.0306 20.1367 34.99 20.0822ZM34.413 28.2121C34.6882 27.5811 35.5104 27.0002 36.197 26.9446C36.6506 26.9085 37.1092 26.8896 37.5723 26.8896C38.0337 26.8896 38.4929 26.9079 38.946 26.9446C39.6337 27.0007 40.4559 27.5806 40.7306 28.2121C41.5083 30.0006 42.1866 32.4011 42.6535 35.2413C42.7642 35.9218 42.2822 36.4249 41.595 36.3771C40.2608 36.2854 38.9121 36.2381 37.5729 36.2381C36.2336 36.2381 34.8838 36.2854 33.549 36.3771C32.8614 36.4249 32.3794 35.9218 32.4917 35.2413C32.957 32.4005 33.6336 30 34.413 28.2121ZM37.1982 21.7761V16.4191H39.0528C39.7293 16.4191 40.2369 16.567 40.5766 16.8628C40.9163 17.158 41.0858 17.5783 41.0858 18.1231C41.0858 18.7218 40.9101 19.1838 40.5571 19.5101C40.2035 19.8365 39.7021 19.9993 39.0528 19.9993H38.6458V21.7761H37.1982ZM52.2567 21.7761H50.615L49.4793 19.827H49.1135V21.7761H47.6658V16.4191H49.4209C50.8769 16.4191 51.6046 16.9462 51.6046 18.0019C51.6046 18.6229 51.3022 19.1026 50.6962 19.4429L52.2567 21.7761ZM53.3991 37.723C53.6499 38.3651 53.2946 38.6809 52.6459 38.4485C50.714 37.7569 48.4347 37.2232 45.9897 36.8541C45.3076 36.7507 44.6855 36.1275 44.5826 35.447C44.2129 33.002 43.6798 30.7216 42.9871 28.7908C42.7558 28.1415 43.0699 27.7863 43.7131 28.0365C48.1467 29.7576 51.6774 33.2889 53.3991 37.723ZM46.1626 21.1468C45.7201 21.616 45.0724 21.85 44.2207 21.85C43.3801 21.85 42.7353 21.6143 42.2872 21.1435C41.8391 20.6715 41.6151 19.9854 41.6151 19.0843C41.6151 18.1926 41.8369 17.5116 42.2833 17.0412C42.7297 16.5704 43.3779 16.3358 44.2268 16.3358C45.0791 16.3358 45.7251 16.5693 46.1648 17.0357C46.6045 17.5021 46.8252 18.187 46.8252 19.0915C46.8252 19.9927 46.6045 20.6776 46.1626 21.1468ZM33.3239 38.2678C34.6809 38.1655 36.1002 38.1105 37.5707 38.1105C39.0422 38.1105 40.4609 38.1661 41.818 38.2678C42.5051 38.3195 43.1177 38.931 43.1689 39.6176C43.2723 40.9758 43.3262 42.3939 43.3262 43.8649C43.3262 45.3365 43.2717 46.7541 43.1689 48.1123C43.1177 48.7988 42.5062 49.4115 41.818 49.4637C40.4621 49.566 39.0417 49.6205 37.5707 49.6205C36.0997 49.6205 34.6809 49.5643 33.3239 49.4637C32.6368 49.412 32.0252 48.8005 31.973 48.1123C31.8707 46.7558 31.8157 45.3359 31.8157 43.8649C31.8157 42.3939 31.8712 40.9752 31.973 39.6176C32.0247 38.931 32.6362 38.319 33.3239 38.2678ZM42.6519 52.4885C42.1849 55.3288 41.5078 57.7288 40.7289 59.5172C40.4543 60.1493 39.6315 60.7302 38.9444 60.7853C38.4918 60.8208 38.0326 60.8409 37.5707 60.8409C37.1076 60.8409 36.6495 60.8225 36.1958 60.7853C35.5087 60.7297 34.6865 60.1498 34.4113 59.5172C33.6335 57.7288 32.9559 55.3294 32.4889 52.4885C32.3771 51.8086 32.8597 51.305 33.5468 51.3528C34.8822 51.4445 36.2303 51.4923 37.569 51.4923C38.9088 51.4923 40.2586 51.4445 41.5928 51.3528C42.2805 51.305 42.7636 51.8092 42.6519 52.4885ZM20.6503 45.2386C20.6147 44.7861 20.5953 44.3264 20.5953 43.8638C20.5953 43.4024 20.6142 42.9432 20.6503 42.4901C20.7059 41.8019 21.2863 40.9791 21.9184 40.7045C23.7063 39.9262 26.1073 39.249 28.947 38.7821C29.6275 38.6709 30.1306 39.1529 30.0828 39.84C29.9916 41.1748 29.9438 42.5246 29.9438 43.8622C29.9438 45.2008 29.9916 46.5506 30.0828 47.8849C30.1306 48.5726 29.6275 49.0551 28.947 48.9434C26.1068 48.4764 23.7063 47.7998 21.9184 47.0215C21.2863 46.748 20.7054 45.9263 20.6503 45.2386ZM22.496 49.2814C24.4279 49.973 26.7072 50.5061 29.1522 50.8763C29.8349 50.9786 30.457 51.6018 30.5592 52.2834C30.9284 54.7284 31.4621 57.0083 32.1537 58.9396C32.386 59.5889 32.0719 59.943 31.4282 59.6934C26.9946 57.9717 23.4633 54.441 21.7411 50.0063C21.492 49.3637 21.8472 49.049 22.496 49.2814ZM50.4705 71.6749L24.6697 71.6793V68.3415H50.4705V71.6749ZM53.4002 50.0063C51.6785 54.441 48.1478 57.9717 43.7126 59.694C43.0699 59.9436 42.7547 59.5889 42.9871 58.9396C43.6787 57.0088 44.2118 54.7278 44.5815 52.284C44.6855 51.6013 45.3076 50.9781 45.9891 50.8763C48.4336 50.5072 50.7134 49.9741 52.6453 49.2825C53.2946 49.0501 53.6499 49.3637 53.4002 50.0063ZM54.491 45.2398C54.4348 45.9258 53.855 46.7502 53.2229 47.0254C51.4345 47.8032 49.034 48.4808 46.1943 48.9478C45.5133 49.0596 45.0107 48.5776 45.0585 47.8893C45.1497 46.5551 45.1975 45.2042 45.1975 43.8666C45.1975 42.5274 45.1497 41.1776 45.0585 39.8433C45.0107 39.1556 45.5133 38.6731 46.1943 38.7848C49.0329 39.2518 51.4345 39.9284 53.2229 40.7072C53.8544 40.9824 54.436 41.8047 54.491 42.4918C54.526 42.9443 54.546 43.4041 54.546 43.8666C54.546 44.3291 54.5282 44.7861 54.491 45.2398ZM56.2844 17.6033H54.9797V21.7767H53.532V17.6033H52.2233V16.4197H56.2839V17.6033H56.2844ZM62.1245 70.1288C62.1245 70.3339 61.8565 70.5958 61.5308 70.6264L60.3677 70.7098V13.1336C60.3677 12.3581 59.7395 11.731 58.9657 11.731H20.5881L61.6725 9.11087L61.767 9.10476C61.9405 9.10476 62.1245 9.18036 62.1245 9.32046V70.1288Z" fill="#BB2539"/>
<g clip-path="url(#clip0)">
<path d="M44.4196 40.0009L79.0847 5.33561C80.3052 4.11514 80.3052 2.13639 79.0847 0.916082C77.8643 -0.304228 75.8855 -0.304384 74.6652 0.916082L40 35.5813L5.33487 0.916082C4.11441 -0.304384 2.13566 -0.304384 0.91535 0.916082C-0.30496 2.13655 -0.305117 4.1153 0.91535 5.33561L35.5804 40.0007L0.91535 74.6659C-0.305117 75.8864 -0.305117 77.8652 0.91535 79.0855C1.5255 79.6956 2.32535 80.0006 3.12519 80.0006C3.92503 80.0006 4.72472 79.6956 5.33503 79.0855L40 44.4204L74.6651 79.0855C75.2752 79.6956 76.0751 80.0006 76.8749 80.0006C77.6747 80.0006 78.4744 79.6956 79.0847 79.0855C80.3052 77.865 80.3052 75.8863 79.0847 74.6659L44.4196 40.0009Z" fill="#AB1D30"/>
</g>
<defs>
<clipPath id="clip0">
<rect width="80" height="80" fill="white"/>
</clipPath>
</defs>
</svg>
