<svg width="121" height="101" viewBox="0 0 121 101" fill="none" xmlns="http://www.w3.org/2000/svg">
<g clip-path="url(#clip0)">
<path d="M98.041 91.6749C94.7753 91.6749 93.3021 90.9413 91.4368 90.0124C90.667 89.6291 89.8598 89.2278 88.9275 88.8702L98.9218 62.5782C99.6996 60.5318 99.5706 58.2423 98.5675 56.2965C97.5644 54.3507 95.7742 52.9173 93.6564 52.364L86.7746 50.5659V29.9266C86.7746 25.5951 83.2506 22.0711 78.9191 22.0711H65.3371V14.4342C65.3371 8.35444 60.3909 3.4082 54.3112 3.4082H46.689C40.6093 3.4082 35.6631 8.35444 35.6631 14.4342V22.0709H22.0811C17.7496 22.0709 14.2256 25.5949 14.2256 29.9264V50.5659L7.3438 52.364C5.22576 52.9173 3.43558 54.3507 2.43268 56.2965C1.42978 58.2423 1.30038 60.5318 2.07839 62.5782L12.0727 88.8706C11.1408 89.2282 10.3336 89.6293 9.56403 90.0126C7.69849 90.9413 6.22511 91.6751 2.95898 91.6751C1.32484 91.6751 0 92.9999 0 94.6341C0 96.2682 1.32484 97.5931 2.95898 97.5931C7.61682 97.5931 10.0527 96.3803 12.2017 95.3103C14.0672 94.3816 15.5406 93.6478 18.8067 93.6478C22.0728 93.6478 23.5462 94.3814 25.4118 95.3103C27.5608 96.3803 29.9966 97.5931 34.6544 97.5931C39.3121 97.5931 41.7477 96.3803 43.8969 95.3103C45.7623 94.3816 47.2356 93.6478 50.5014 93.6478C53.7671 93.6478 55.2403 94.3814 57.1056 95.3103C59.2546 96.3803 61.6903 97.5931 66.3479 97.5931C71.0056 97.5931 73.4412 96.3803 75.5902 95.3103C77.4556 94.3816 78.9289 93.6478 82.1947 93.6478C85.4604 93.6478 86.9336 94.3814 88.7989 95.3103C90.9479 96.3803 93.3836 97.5931 98.0412 97.5931C99.6754 97.5931 101 96.2682 101 94.6341C101 92.9999 99.6752 91.6749 98.041 91.6749ZM41.581 14.4342C41.581 11.6176 43.8725 9.32617 46.689 9.32617H54.3112C57.1277 9.32617 59.4192 11.6176 59.4192 14.4342V22.0709H41.581V14.4342ZM20.1434 29.9266C20.1434 28.8582 21.0125 27.9891 22.0809 27.9891H78.9189C79.9873 27.9891 80.8564 28.8582 80.8564 29.9266V49.0198L51.2478 41.2834C50.7574 41.1554 50.2422 41.1554 49.7518 41.2834L20.1432 49.0198V29.9266H20.1434ZM72.9522 90.0126C71.0868 90.9413 69.6135 91.6749 66.3479 91.6749C63.0824 91.6749 61.609 90.9413 59.7437 90.0124C57.5947 88.9424 55.159 87.7296 50.5014 87.7296C45.8437 87.7296 43.4081 88.9424 41.2589 90.0124C39.3936 90.9411 37.9202 91.6749 34.6544 91.6749C31.3885 91.6749 29.9149 90.9413 28.0496 90.0124C25.9006 88.9424 23.4647 87.7296 18.8069 87.7296C18.5215 87.7296 18.2445 87.7343 17.9752 87.743L7.60992 60.4754C7.36116 59.821 7.55508 59.2754 7.69277 59.0083C7.83046 58.7412 8.16246 58.2668 8.83967 58.0898L50.5 47.2045L92.1603 58.09C92.8375 58.2668 93.1695 58.7412 93.3072 59.0083C93.4449 59.2754 93.6388 59.821 93.3901 60.4756L83.025 87.7432C82.7561 87.7345 82.4795 87.7298 82.1945 87.7298C77.5368 87.7296 75.1012 88.9426 72.9522 90.0126Z" fill="black"/>
<path d="M77.8561 62.3473L51.2479 55.3948C50.7575 55.2668 50.2423 55.2668 49.7519 55.3948L23.1437 62.3473C21.5626 62.7603 20.6157 64.3771 21.0288 65.9582C21.4419 67.5393 23.0587 68.486 24.6398 68.0731L50.4999 61.3162L76.36 68.0731C76.6108 68.1388 76.8625 68.17 77.11 68.17C78.4236 68.17 79.6234 67.2886 79.9708 65.9582C80.3841 64.3771 79.4372 62.7603 77.8561 62.3473Z" fill="black"/>
</g>
<path d="M104.575 10.875L111.45 4L113.375 4L120.25 10.875L118.325 12.8275L113.788 8.3175L113.787 23.635L111.037 23.635L111.037 8.3175L106.5 12.855L104.575 10.875Z" fill="black"/>
<path d="M120.425 90.125L113.55 97L111.625 97L104.75 90.125L106.675 88.1725L111.212 92.6825L111.212 77.365L113.963 77.365L113.963 92.6825L118.5 88.145L120.425 90.125Z" fill="black"/>
<defs>
<clipPath id="clip0">
<rect width="101" height="101" fill="white"/>
</clipPath>
</defs>
</svg>
