<svg width="152" height="101" viewBox="0 0 152 101" fill="none" xmlns="http://www.w3.org/2000/svg">
<path d="M151.832 46.3866C151.16 45.5462 150.152 44.8739 149.145 44.8739H117.737L96.5746 20.5042C96.0707 20 95.3989 19.6639 94.7271 19.6639H69.5337C69.5337 19.4958 69.5337 19.3277 69.3657 19.1597L59.9602 1.34454C59.4564 0.5042 58.6166 0 57.7768 0H45.1801C43.8365 0 42.6608 1.17647 42.6608 2.52101V19.4958H32.5834C31.7436 19.4958 30.9039 20 30.4 20.6723L16.1238 44.7059H8.7337C7.39006 44.7059 6.21437 45.7143 6.21437 47.2269C6.21437 47.7311 6.04641 57.479 10.0773 66.2185C8.06188 65.3782 5.54254 64.8739 2.51934 64.8739C1.17569 64.8739 0 66.0504 0 67.395C0 68.7395 1.17569 69.916 2.51934 69.916C8.06188 69.916 10.7492 71.9328 13.9403 74.4538C17.2994 76.9748 20.9945 80 28.3845 80C28.7204 80 29.0564 80 29.3923 80C29.8961 80 30.232 80 30.7359 80C31.0718 80 31.4077 79.8319 31.7436 79.6639C36.9503 78.9916 39.9735 76.4706 42.8287 74.4538C45.8519 72.1008 48.5392 69.916 54.2497 69.916C59.7923 69.916 62.4796 71.9328 65.6707 74.4538C69.0298 76.9748 72.7249 80 80.1149 80C87.505 80 91.2 76.9748 94.5591 74.4538C97.5823 72.1008 100.27 69.916 105.98 69.916C111.523 69.916 114.21 71.9328 117.401 74.4538C120.76 76.9748 124.455 80 131.845 80C133.189 80 134.365 78.8235 134.365 77.479C134.365 76.1345 133.189 74.958 131.845 74.958C129.998 74.958 128.486 74.7899 127.143 74.2857L151.328 49.0756C152 48.4034 152.168 47.2269 151.832 46.3866ZM59.7923 12.1008L63.8232 19.8319H47.6994V12.1008H59.7923ZM47.5315 5.21008H56.0972L57.105 7.05882H47.5315V5.21008ZM34.095 24.7059H93.5514L101.445 33.7815H28.5525L34.095 24.7059ZM25.6972 38.8235H105.812L111.187 44.8739H22.0022L25.6972 38.8235ZM122.104 72.1008C121.432 71.5966 120.76 71.0924 120.088 70.5882C116.729 68.0672 113.034 65.042 105.644 65.042C98.2542 65.042 94.5591 68.0672 91.2 70.5882C88.1768 72.9412 85.4895 75.126 79.779 75.126C74.2365 75.126 71.5492 73.1092 68.358 70.5882C64.9989 68.0672 61.3039 65.042 53.9138 65.042C46.6917 65.042 42.8287 68.0672 39.4696 70.5882C36.6144 72.7731 34.095 74.7899 29.2243 74.958C24.8575 74.7899 21.3304 73.1093 18.4751 70.2521C12.7646 64.3698 11.421 54.4538 11.0851 49.916H143.098L122.104 72.1008Z" fill="black"/>
<path d="M128.125 84.575L135 91.45L135 93.375L128.125 100.25L126.172 98.325L130.682 93.7875L115.365 93.7875L115.365 91.0375L130.682 91.0375L126.145 86.5L128.125 84.575Z" fill="black"/>
<path d="M14.875 100.425L8 93.55L8 91.625L14.875 84.75L16.8275 86.675L12.3175 91.2125L27.635 91.2125L27.635 93.9625L12.3175 93.9625L16.855 98.5L14.875 100.425Z" fill="black"/>
</svg>
