<svg width="100" height="100" viewBox="0 0 100 100" fill="none" xmlns="http://www.w3.org/2000/svg">
<path d="M99.9838 44.2298C99.8987 43.4201 99.4823 42.6816 98.8333 42.19L90.912 36.1898L93.794 26.68C94.0301 25.9007 93.9333 25.0585 93.5262 24.3535C93.119 23.6484 92.4381 23.1433 91.6454 22.9582L81.968 20.6986L80.7327 10.8388C80.6313 10.031 80.2003 9.30093 79.5417 8.82241C78.8831 8.3437 78.0559 8.15952 77.2561 8.31265L67.4967 10.1845L62.3573 1.67964C61.9362 0.982961 61.2454 0.491359 60.4491 0.322219C59.6526 0.152883 58.8216 0.320851 58.1538 0.786086L49.9999 6.46577L41.8458 0.786086C41.1776 0.320851 40.3468 0.152883 39.5503 0.322219C38.7538 0.491555 38.0632 0.982766 37.6421 1.67984L32.5032 10.1849L22.7438 8.31304C21.9444 8.16011 21.1169 8.34409 20.4581 8.8228C19.7995 9.30152 19.3682 10.0312 19.2671 10.8392L18.0317 20.699L8.35438 22.9585C7.56141 23.1437 6.88074 23.6488 6.47352 24.3539C6.06629 25.0591 5.96942 25.9011 6.20555 26.6802L9.08719 36.1902L1.16668 42.1902C0.517659 42.6818 0.101253 43.4201 0.0160966 44.2298C-0.0688643 45.0396 0.185042 45.8484 0.717659 46.4642L7.21785 53.98L2.42215 62.6832C2.02938 63.3962 1.9491 64.2402 2.20067 65.0146C2.45223 65.7886 3.01317 66.4244 3.75028 66.7703L12.7456 70.9921L11.904 80.8937C11.835 81.705 12.105 82.5087 12.6499 83.1138C13.1946 83.7189 13.9657 84.0713 14.7796 84.0877L24.7151 84.2857L27.9731 93.6732C28.2401 94.4423 28.8136 95.0669 29.5573 95.398C30.3012 95.7291 31.1489 95.7375 31.8991 95.4214L41.0563 91.5615L47.8514 98.8123C48.4081 99.4064 49.186 99.7435 50.0003 99.7435C50.8145 99.7435 51.5923 99.4064 52.1491 98.8123L58.9442 91.5615L68.1008 95.4214C68.851 95.7373 69.6987 95.7291 70.4426 95.398C71.1866 95.0667 71.76 94.4427 72.0268 93.6734L75.2854 84.2857L85.2204 84.0877C86.0346 84.0714 86.8055 83.7189 87.3503 83.1138C87.895 82.5087 88.1651 81.7052 88.0962 80.8937L87.2546 70.9921L96.2505 66.7703C96.9874 66.4244 97.5485 65.7886 97.8001 65.0144C98.0516 64.2404 97.9715 63.3962 97.5784 62.683L92.7821 53.98L99.2829 46.4642C99.8149 45.8484 100.069 45.0396 99.9838 44.2298ZM86.6331 55.0263L90.9026 62.7738L82.8946 66.532C81.7788 67.0558 81.1071 68.2193 81.2116 69.4474L81.9608 78.2615L73.1167 78.4378C71.8842 78.4625 70.7975 79.2519 70.3932 80.4164L67.4925 88.7734L59.3413 85.3371C58.2053 84.8582 56.8915 85.1375 56.0487 86.0369L49.9999 92.4912L43.951 86.0367C43.3825 85.4298 42.5995 85.1052 41.8014 85.1052C41.4167 85.1052 41.028 85.1808 40.6583 85.3367L32.5067 88.773L29.6063 80.4162C29.202 79.2515 28.1155 78.4619 26.8829 78.4375L18.0382 78.2611L18.7874 69.447C18.8919 68.2189 18.2202 67.0554 17.1044 66.5316L9.09695 62.7732L13.3661 55.0255C13.961 53.9459 13.8204 52.6101 13.0143 51.6777L7.22781 44.9873L14.279 39.646C15.2616 38.9017 15.6766 37.6244 15.3192 36.4445L12.754 27.9787L21.3686 25.9673C22.569 25.6871 23.4677 24.6886 23.6212 23.4656L24.7208 14.6886L33.4085 16.3548C34.619 16.5873 35.8462 16.0406 36.4837 14.9855L41.0583 7.4146L48.3171 12.4705C49.3286 13.175 50.6719 13.175 51.6833 12.4705L58.9417 7.4146L63.5167 14.9857C64.154 16.0406 65.3805 16.5873 66.5919 16.3548L75.2796 14.6886L76.3792 23.4656C76.5325 24.6886 77.4313 25.6871 78.6317 25.9673L87.2464 27.9787L84.6807 36.4443C84.3231 37.624 84.7381 38.9017 85.7208 39.646L92.7723 44.9873L86.9854 51.6777C86.1786 52.6105 86.038 53.9466 86.6331 55.0263Z" fill="#EE754D"/>
<path d="M50.0005 21.821C34.4622 21.821 21.8212 34.4622 21.8212 50.0001C21.8212 65.538 34.4626 78.1794 50.0005 78.1794C65.5383 78.1794 78.1798 65.5382 78.1798 50.0003C78.1798 34.4624 65.5385 21.821 50.0005 21.821ZM50.0005 72.2898C37.71 72.2898 27.711 62.2907 27.711 50.0003C27.711 37.7099 37.71 27.7109 50.0005 27.7109C62.2909 27.7109 72.2899 37.7099 72.2899 50.0003C72.2899 62.2907 62.2909 72.2898 50.0005 72.2898Z" fill="#EE754D"/>
<path d="M61.5461 41.6095C60.3957 40.4593 58.5311 40.4593 57.3811 41.6095L46.8463 52.144L42.6199 47.9179C41.4699 46.7677 39.6053 46.7681 38.4553 47.9179C37.3055 49.0679 37.3055 50.9325 38.4555 52.0825L44.7643 58.3911C45.3393 58.9661 46.093 59.2536 46.8465 59.2536C47.6002 59.2536 48.3539 58.9659 48.9287 58.3911L61.5459 45.7741C62.6959 44.6243 62.6959 42.7595 61.5461 41.6095Z" fill="#EE754D"/>
</svg>
