<svg width="113" height="62" viewBox="0 0 113 62" fill="none" xmlns="http://www.w3.org/2000/svg">
<g clip-path="url(#clip0)">
<path d="M107.982 44.538C107.337 43.8929 106.108 43.5198 104.33 43.4293C103.748 43.3998 102.913 43.4049 102.352 43.4392L99.6849 40.7724C102.05 38.3298 104.189 35.4999 106.049 32.3513C106.23 32.0448 106.128 31.6496 105.822 31.4685C105.515 31.2877 105.12 31.3892 104.939 31.6956C103.016 34.9505 100.79 37.8523 98.3214 40.3205C94.3937 44.2482 89.4513 47.5056 83.6315 50.0022C78.8484 52.0541 74.5293 53.1386 71.7483 53.687C71.3417 53.767 70.9406 53.6452 70.6475 53.3523C70.3546 53.0594 70.2327 52.6582 70.3129 52.2515C70.8531 49.5115 72.1767 44.046 74.9702 38.2263C75.1242 37.9054 74.9889 37.5204 74.6679 37.3663C74.3474 37.2122 73.962 37.3474 73.8079 37.6685C71.0959 43.3187 69.7225 48.5818 69.0482 52.0021C68.8858 52.8252 69.143 53.6708 69.736 54.2638C70.2121 54.7398 70.8507 54.9994 71.5099 54.9994C71.672 54.9994 71.8353 54.9837 71.9978 54.9517C74.8397 54.3912 79.2533 53.2831 84.1398 51.1869C89.8869 48.7213 94.8063 45.5258 98.7732 41.6836L101.364 44.2741C101.292 45.2675 101.143 48.7566 102.453 50.0665L106.972 54.5855C107.229 54.8429 107.572 54.9847 107.936 54.9847C108.3 54.9847 108.642 54.843 108.899 54.5856L112.501 50.9839C113.032 50.4527 113.032 49.5882 112.501 49.057L107.982 44.538ZM111.589 50.0725L107.988 53.6741C107.959 53.7028 107.912 53.7028 107.884 53.6741L103.365 49.155C102.678 48.4691 102.55 46.2612 102.627 44.7124C104.177 44.6351 106.385 44.7638 107.07 45.4495L111.589 49.9686C111.618 49.9973 111.618 50.0439 111.589 50.0725Z" fill="black"/>
<path d="M112.265 11.7356C111.672 11.1425 110.827 10.8855 110.003 11.0477C107.161 11.6081 102.748 12.7162 97.8613 14.8126C92.1142 17.2781 87.1949 20.4737 83.228 24.3157L80.6974 21.7852C80.7701 20.6968 80.8792 17.3498 79.6024 16.073L75.0831 11.5539C74.8257 11.2965 74.4836 11.1548 74.1196 11.1548C73.7557 11.1548 73.4134 11.2965 73.1561 11.5539L69.5544 15.1556C69.0231 15.6869 69.0231 16.5513 69.5544 17.0825L74.0736 21.6016C75.0272 22.5553 77.1358 22.7358 78.5957 22.7358C79.0906 22.7358 79.5102 22.7151 79.7857 22.6966L82.3167 25.2276C79.5558 28.0792 77.1101 31.4483 75.0428 35.2531C74.8728 35.5659 74.9886 35.9572 75.3014 36.1271C75.3992 36.1803 75.5046 36.2055 75.6086 36.2055C75.8372 36.2055 76.0586 36.0836 76.1755 35.8685C78.2958 31.9663 80.8206 28.5381 83.6796 25.679C87.6072 21.7513 92.5497 18.4939 98.3695 15.9973C103.153 13.9454 107.472 12.8609 110.253 12.3125C110.659 12.2323 111.06 12.3543 111.353 12.6472C111.646 12.94 111.768 13.3413 111.688 13.748C111.077 16.8466 109.556 22.995 106.238 29.357C106.073 29.6727 106.196 30.062 106.511 30.2266C106.827 30.3911 107.216 30.2689 107.381 29.9533C110.774 23.4479 112.328 17.1641 112.953 13.9974C113.115 13.1742 112.858 12.3287 112.265 11.7356ZM79.428 21.4236C79.0215 21.4421 78.4281 21.4554 77.7914 21.4229C76.403 21.3522 75.3801 21.0851 74.9852 20.6902L70.466 16.1711C70.4517 16.1568 70.4445 16.1393 70.4445 16.1191C70.4445 16.0989 70.4517 16.0813 70.466 16.0671L74.0677 12.4654C74.082 12.4511 74.0994 12.4439 74.1196 12.4439C74.1398 12.4439 74.1573 12.4511 74.1715 12.4654L78.6906 16.9845C79.3759 17.6697 79.5051 19.875 79.428 21.4236Z" fill="black"/>
<path d="M96.1846 19.6099C91.7285 21.4787 87.9478 23.9475 84.9473 26.9479C81.9471 29.9482 79.4782 33.7289 77.6095 38.185C76.6055 40.5787 77.1226 43.2064 78.9587 45.0425C80.1749 46.2588 81.7386 46.8963 83.3514 46.8963C84.1733 46.8963 85.0081 46.7308 85.8163 46.3918C90.2724 44.523 94.0531 42.0542 97.0535 39.0539C100.054 36.0535 102.523 32.2728 104.391 27.8167C105.395 25.4229 104.878 22.7953 103.042 20.9592C101.206 19.1231 98.5785 18.606 96.1846 19.6099ZM85.3178 45.2031C83.4162 46.0004 81.3289 45.5896 79.8702 44.1311C78.4116 42.6724 78.0008 40.5851 78.7982 38.6835C80.1724 35.4068 81.8794 32.5141 83.8883 30.0472L93.954 40.1131C91.4872 42.1219 88.5945 43.829 85.3178 45.2031ZM96.1419 38.1424C95.755 38.5294 95.3532 38.9065 94.939 39.275L84.7264 29.0622C84.7361 29.0514 85.4851 28.2332 85.859 27.8593C86.413 27.3053 87.6808 26.1919 87.6894 26.1846L97.8167 36.3119C97.2789 36.9518 96.7212 37.5631 96.1419 38.1424ZM103.203 27.3183C101.948 30.3102 100.416 32.9822 98.6297 35.302L88.6993 25.3716C91.0192 23.5857 93.6912 22.0535 96.683 20.7988C97.325 20.5296 97.9879 20.3981 98.6408 20.3981C99.922 20.3981 101.164 20.9046 102.131 21.8707C103.589 23.3293 104 25.4167 103.203 27.3183Z" fill="black"/>
<path d="M74.7288 46.3919C74.477 46.6436 74.477 47.0518 74.7288 47.3034L76.6963 49.2709C76.8222 49.3967 76.9872 49.4597 77.1521 49.4597C77.317 49.4597 77.482 49.3968 77.6079 49.2709C77.8597 49.0192 77.8597 48.6111 77.6079 48.3593L75.6404 46.3919C75.3886 46.1402 74.9806 46.1402 74.7288 46.3919Z" fill="black"/>
<path d="M106.283 20.3289C106.448 20.3289 106.613 20.266 106.739 20.1401C106.991 19.8883 106.991 19.4802 106.739 19.2286L104.772 17.2611C104.52 17.0093 104.112 17.0093 103.86 17.2611C103.608 17.5128 103.608 17.9209 103.86 18.1725L105.828 20.1401C105.953 20.2659 106.118 20.3289 106.283 20.3289Z" fill="black"/>
</g>
<path d="M54.263 19.8987C54.5159 18.5003 54.0671 17.0668 53.0619 16.0624L45.708 8.70847C44.7035 7.70329 43.2701 7.25447 41.8717 7.50733L28.3895 9.95863C27.521 10.1162 26.7214 10.5353 26.0976 11.1598L4.03584 33.2215C2.34356 34.9138 2.34356 37.6575 4.03584 39.3498C5.74521 41.0002 8.45472 41.0002 10.1641 39.3498L13.2282 42.4139L11.3897 44.2524C10.3744 45.2677 10.3744 46.914 11.3897 47.9293L13.841 50.3806C14.8564 51.396 16.5026 51.396 17.518 50.3806L19.3565 48.5421L22.4206 51.6063C20.8808 53.1957 20.7475 55.6767 22.1081 57.422C22.8846 58.376 24.0301 58.9551 25.2588 59.0147C26.4875 59.0743 27.6836 58.6089 28.5489 57.7345L50.6106 35.6728C51.2351 35.049 51.6541 34.2493 51.8117 33.3808L54.263 19.8987ZM51.8363 17.288C52.1177 17.5729 52.3295 17.919 52.4552 18.2992L46.6456 19.5984C46.3637 19.1694 46.615 19.4207 42.7297 15.5353C42.5655 15.3712 42.3775 15.2328 42.172 15.1248L43.4712 9.31517C44.3046 9.59707 43.9921 9.44386 51.8363 17.288V17.288ZM17.518 31.9959L19.9693 29.5445L32.2258 41.8011L29.7745 44.2524L17.518 31.9959ZM40.1926 33.8343L37.7413 36.2856L25.4847 24.0291L27.936 21.5778L40.1926 33.8343ZM33.4515 40.5754L31.613 38.7369L34.6771 35.6728L36.5156 37.5113L33.4515 40.5754ZM27.936 35.06L31.0002 31.9959L33.4515 34.4472L30.3873 37.5113L27.936 35.06ZM24.2591 31.383L27.3232 28.3189L29.7745 30.7702L26.7104 33.8343L24.2591 31.383ZM24.2591 25.2548L26.0976 27.0932L23.0334 30.1574L21.195 28.3189L24.2591 25.2548ZM41.4182 32.6087L39.5797 30.7702L41.4182 28.9317C41.7567 28.5933 41.7567 28.0445 41.4182 27.7061C41.0798 27.3676 40.531 27.3676 40.1926 27.7061L38.3541 29.5445L35.9028 27.0932L41.4182 21.5778C41.7567 21.2394 41.7567 20.6906 41.4182 20.3522C41.0798 20.0137 40.531 20.0137 40.1926 20.3522L34.6771 25.8676L32.2258 23.4163L34.0643 21.5778C34.4028 21.2394 34.4028 20.6906 34.0643 20.3522C33.7258 20.0137 33.1771 20.0137 32.8387 20.3522L31.0002 22.1906L29.1617 20.3522C31.2637 18.2502 31.1779 18.2624 31.5333 18.2011L40.738 16.522C41.017 16.4715 41.3031 16.5608 41.504 16.761L45.0094 20.2664C45.2096 20.4672 45.2988 20.7533 45.2484 21.0324C43.4589 30.9724 43.606 30.4209 43.3364 30.6905L41.4182 32.6087ZM9.04262 38.0199C8.05603 39.0641 6.4098 39.1107 5.36567 38.1241C4.32154 37.1375 4.27489 35.4913 5.26149 34.4472L27.3232 12.3854C27.6965 12.0103 28.1754 11.758 28.6959 11.6623L41.694 9.30291C40.3764 15.2167 40.5357 14.8 40.4316 14.8183L31.2208 16.4914C30.7032 16.5865 30.2267 16.8366 29.8542 17.2084L9.04262 38.0199ZM11.3897 38.1241L16.2924 33.2215L18.1308 35.06L16.9052 36.2856C16.5667 36.6241 16.5667 37.1728 16.9052 37.5113C17.2436 37.8497 17.7924 37.8497 18.1308 37.5113L19.3565 36.2856L21.8078 38.7369L19.908 40.6367C18.1899 39.5011 15.9099 39.7317 14.4539 41.1882L11.3897 38.1241ZM16.2924 49.155C15.9539 49.4934 15.4052 49.4934 15.0667 49.155L12.6154 46.7037C12.2769 46.3652 12.2769 45.8165 12.6154 45.478L15.6795 42.4139C16.6949 41.3985 18.3411 41.3985 19.3565 42.4139C20.3718 43.4293 20.3718 45.0755 19.3565 46.0908L16.2924 49.155ZM21.1337 41.8623L23.0334 39.9626L25.4847 42.4139L24.2591 43.6395C23.9206 43.978 23.9206 44.5267 24.2591 44.8652C24.5975 45.2036 25.1463 45.2036 25.4847 44.8652L26.7104 43.6395L28.5489 45.478L23.6463 50.3806L20.5821 47.3165C22.0387 45.8605 22.2693 43.5805 21.1337 41.8623ZM27.3232 56.5089C26.8046 57.0327 26.0881 57.3118 25.3519 57.2767C24.6156 57.2416 23.9289 56.8957 23.4624 56.325C22.6312 55.2267 22.7551 53.6798 23.7504 52.7278L44.5865 31.8917C44.9583 31.5192 45.2083 31.0427 45.3035 30.5251L46.952 21.3388C46.9704 21.2346 46.5537 21.394 52.4675 20.0764L50.1081 33.0744C50.0124 33.5949 49.7601 34.0738 49.3849 34.4472L27.3232 56.5089Z" fill="black"/>
<path d="M14.4535 28.9312C14.115 28.5927 13.5663 28.5927 13.2278 28.9312L12.0022 30.1568C11.6637 30.4953 11.6637 31.044 12.0022 31.3825C12.3407 31.7209 12.8894 31.7209 13.2279 31.3825L14.4535 30.1568C14.792 29.8184 14.792 29.2696 14.4535 28.9312Z" fill="black"/>
<path d="M23.6459 19.7398C23.3075 19.4013 22.7587 19.4013 22.4203 19.7398L21.1946 20.9654C20.8561 21.3039 20.8561 21.8526 21.1946 22.1911C21.5331 22.5295 22.0818 22.5295 22.4203 22.1911L23.6459 20.9654C23.9844 20.627 23.9844 20.0782 23.6459 19.7398Z" fill="black"/>
<path d="M32.8383 47.3159C32.4998 46.9775 31.9511 46.9775 31.6126 47.316L30.387 48.5416C30.0485 48.8801 30.0485 49.4288 30.387 49.7673C30.7254 50.1057 31.2742 50.1057 31.6126 49.7672L32.8383 48.5416C33.1767 48.2031 33.1767 47.6544 32.8383 47.3159Z" fill="black"/>
<path d="M42.0307 38.1245C41.6922 37.7861 41.1435 37.7861 40.805 38.1245L39.5794 39.3502C39.2409 39.6887 39.2409 40.2374 39.5794 40.5758C39.9178 40.9143 40.4666 40.9143 40.805 40.5758L42.0307 39.3502C42.3691 39.0117 42.3691 38.463 42.0307 38.1245Z" fill="black"/>
<path d="M45.0954 15.4498L46.3211 16.6755C46.6595 17.0139 47.2083 17.0139 47.5467 16.6755C47.8852 16.337 47.8852 15.7883 47.5467 15.4498L46.3211 14.2242C45.9826 13.8857 45.4339 13.8857 45.0954 14.2242C44.7569 14.5626 44.7569 15.1114 45.0954 15.4498Z" fill="black"/>
<defs>
<clipPath id="clip0">
<rect width="44" height="44" fill="white" transform="translate(69 11)"/>
</clipPath>
</defs>
</svg>
