<svg width="29" height="29" viewBox="0 0 29 29" fill="none" xmlns="http://www.w3.org/2000/svg">
<g clip-path="url(#clip0_362_702)">
<path d="M10.5727 10.7412H7.38794V21.0219H10.5727V10.7412Z" fill="#20A1FF"/>
<path d="M8.96402 9.3986C10.0018 9.3986 10.845 8.5489 10.845 7.49813C10.845 6.44735 10.0018 5.59766 8.96402 5.59766C7.92622 5.59766 7.08301 6.44735 7.08301 7.49813C7.08301 8.5489 7.92622 9.3986 8.96402 9.3986Z" fill="#20A1FF"/>
<path d="M15.6577 15.6319C15.6577 14.1855 16.3258 13.3228 17.5971 13.3228C18.7646 13.3228 19.3289 14.1466 19.3289 15.6319C19.3289 17.1108 19.3289 21.0285 19.3289 21.0285H22.4942C22.4942 21.0285 22.4942 17.2729 22.4942 14.5163C22.4942 11.7596 20.931 10.4299 18.7516 10.4299C16.5723 10.4299 15.6512 12.1293 15.6512 12.1293V10.7413H12.5962V21.022H15.6512C15.6577 21.0285 15.6577 17.2145 15.6577 15.6319Z" fill="#20A1FF"/>
<path d="M14.5032 29C6.5057 29 0 22.5008 0 14.5032C0 6.5057 6.5057 0 14.5032 0C22.5008 0 29.0065 6.5057 29.0065 14.5032C29 22.5008 22.4943 29 14.5032 29ZM14.5032 1.94587C7.57593 1.94587 1.94587 7.57593 1.94587 14.5032C1.94587 21.4241 7.57593 27.0606 14.5032 27.0606C21.4241 27.0606 27.0606 21.4306 27.0606 14.5032C27.0541 7.57593 21.4241 1.94587 14.5032 1.94587Z" fill="#20A1FF"/>
</g>
<defs>
<clipPath id="clip0_362_702">
<rect width="29" height="29" fill="white"/>
</clipPath>
</defs>
</svg>
