<svg width="1310" height="838" fill="none" xmlns="http://www.w3.org/2000/svg"><path opacity=".8" d="M1196.01 688.019a56.929 56.929 0 00-40.12 16.441 56.874 56.874 0 00-16.89 39.92v1.074a56.884 56.884 0 0010.1 32.039 56.896 56.896 0 0026.44 20.746 56.89 56.89 0 0062.46-14.885c.27-.23.4-.422.36-.422l.33-.403.17-.211.21-.23 3.25-4.126c.26-.229.49-.494.69-.787a56.902 56.902 0 009.89-28.906 56.847 56.847 0 00-6.47-29.859 56.943 56.943 0 00-20.97-22.221 57.018 57.018 0 00-29.45-8.189v.019zm30.72 84.992a41.667 41.667 0 01-45.6 10.851 41.666 41.666 0 01-19.34-15.083 41.68 41.68 0 01-7.49-23.344v-.902a41.7 41.7 0 0141.89-40.633 41.72 41.72 0 0129.13 12.04 41.708 41.708 0 0112.39 28.977c0 8.328-2.52 16.462-7.22 23.335l-3.45 4.337-.27.403-.04.019z" fill="#4EBA66" fill-opacity=".08"/><path opacity=".3" d="M82.014 83.02a56.928 56.928 0 00-40.12 16.44A56.887 56.887 0 0025 139.38v1.074a56.842 56.842 0 0010.104 32.039 56.873 56.873 0 0026.432 20.746 56.9 56.9 0 0062.461-14.885c.269-.23.403-.422.364-.422l.327-.403.173-.211.211-.23 3.244-4.126c.265-.229.498-.494.691-.787a56.933 56.933 0 003.426-58.765 56.958 56.958 0 00-20.975-22.221A56.988 56.988 0 0082.014 83v.02zm30.714 84.991a41.657 41.657 0 01-21.129 12.446 41.658 41.658 0 01-43.806-16.678 41.635 41.635 0 01-7.493-23.344v-.902a41.692 41.692 0 0112.652-28.861 41.722 41.722 0 0158.371.268 41.695 41.695 0 0112.386 28.977 41.313 41.313 0 01-7.218 23.335l-3.455 4.337-.269.403-.039.019z" fill="#4EBA66" fill-opacity=".1"/><path opacity=".6" d="M1148.99 766H956.915a36.02 36.02 0 01-25.408-10.577A35.973 35.973 0 01921 729.999v-49.746a35.802 35.802 0 0111.398-26.149l.235-.218a38.888 38.888 0 0112.794-7.605l.598-.254a35.716 35.716 0 0110.872-1.684h65.813a77.493 77.493 0 0045.49-14.74 77.36 77.36 0 0028.15-38.628 7.251 7.251 0 012.14-3.271 7.204 7.204 0 013.52-1.691c.19-.017.38-.017.58 0h.7c1.09.004 2.17.244 3.15.704a7.442 7.442 0 012.56 1.958l68.03 84.932a36.057 36.057 0 017.97 22.637v33.755c0 4.727-.93 9.408-2.74 13.776a35.897 35.897 0 01-7.8 11.679 35.931 35.931 0 01-11.68 7.805 36.051 36.051 0 01-13.79 2.741zm-213.62-52.879v16.878a21.508 21.508 0 006.273 15.199 21.536 21.536 0 0015.182 6.333h192.165a21.529 21.529 0 0015.2-6.326 21.528 21.528 0 006.3-15.206v-33.792a22.185 22.185 0 00-4.86-13.545l-60.36-75.388a91.763 91.763 0 01-82.63 51.52h-2.25c-.32.023-.64.023-.96 0h-62.605a22.795 22.795 0 00-6.143.887 25.072 25.072 0 00-8.481 4.98 21.229 21.229 0 00-6.831 15.592v31.094c.053.256.083.517.09.778.005.335-.025.668-.09.996z" fill="#00589B" fill-opacity=".05"/><path opacity=".3" d="M1273.99 13h-192.07a36.011 36.011 0 00-25.41 10.578A35.966 35.966 0 001046 49v49.746a35.869 35.869 0 002.98 14.257 35.831 35.831 0 008.42 11.892l.23.218a38.915 38.915 0 0012.8 7.605l.59.254a35.786 35.786 0 0010.88 1.684h65.81a77.493 77.493 0 0145.49 14.74 77.36 77.36 0 0128.15 38.628 7.251 7.251 0 002.14 3.271c.99.875 2.21 1.46 3.52 1.691.19.017.38.017.58 0h.7a7.492 7.492 0 003.15-.704 7.442 7.442 0 002.56-1.958l68.03-84.932a36.058 36.058 0 007.97-22.637V49.001c0-4.727-.93-9.408-2.74-13.776a35.897 35.897 0 00-7.8-11.68 35.952 35.952 0 00-11.68-7.804A36.062 36.062 0 001273.99 13zm-213.62 52.879V49a21.49 21.49 0 016.27-15.199 21.527 21.527 0 0115.18-6.333h192.17c5.71.015 11.18 2.29 15.2 6.326a21.528 21.528 0 016.3 15.206v33.792a22.186 22.186 0 01-4.86 13.545l-60.36 75.388a91.763 91.763 0 00-82.63-51.52h-2.25a6.687 6.687 0 00-.96 0h-62.61a22.842 22.842 0 01-6.14-.887 25.058 25.058 0 01-8.48-4.98 21.348 21.348 0 01-5.05-7.082 21.299 21.299 0 01-1.78-8.51V67.653c.05-.256.08-.517.09-.778.01-.335-.03-.668-.09-.996zM36.006 658h192.079a36.02 36.02 0 0125.408 10.577A35.973 35.973 0 01264 694.001v49.746a35.802 35.802 0 01-11.398 26.149l-.235.218a38.888 38.888 0 01-12.794 7.605l-.598.254a35.716 35.716 0 01-10.872 1.684h-65.814a77.483 77.483 0 00-45.488 14.74 77.403 77.403 0 00-28.155 38.628 7.242 7.242 0 01-5.653 4.962 3.302 3.302 0 01-.58 0h-.707a7.506 7.506 0 01-5.708-2.662L7.973 750.393A36.06 36.06 0 010 727.756v-33.755a35.966 35.966 0 0110.54-25.455A36.015 36.015 0 0136.005 658zm213.624 52.879v-16.878a21.508 21.508 0 00-6.273-15.199 21.536 21.536 0 00-15.182-6.333H36.005a21.553 21.553 0 00-15.2 6.326 21.524 21.524 0 00-6.29 15.206v33.792a22.138 22.138 0 004.856 13.545l60.36 75.388a91.73 91.73 0 0133.911-37.619 91.812 91.812 0 0148.719-13.901h2.247a6.7 6.7 0 01.961 0h62.606a22.795 22.795 0 006.143-.887 25.072 25.072 0 008.481-4.98 21.229 21.229 0 006.831-15.592v-31.094a4.428 4.428 0 01-.09-.778 4.752 4.752 0 01.09-.996z" fill="#4EBA66" fill-opacity=".1"/><path opacity=".6" d="M708.006 412h192.079a36.02 36.02 0 0125.408 10.577A35.973 35.973 0 01936 448.001v49.746a35.802 35.802 0 01-11.398 26.149l-.235.218a38.888 38.888 0 01-12.794 7.605l-.598.254a35.716 35.716 0 01-10.872 1.684h-65.814a77.483 77.483 0 00-45.488 14.74 77.404 77.404 0 00-28.155 38.628 7.254 7.254 0 01-5.653 4.962 3.304 3.304 0 01-.58 0h-.707a7.506 7.506 0 01-5.708-2.662l-68.025-84.932A36.06 36.06 0 01672 481.756v-33.755a35.962 35.962 0 0110.539-25.455A36.013 36.013 0 01708.006 412zm213.624 52.879v-16.878a21.508 21.508 0 00-6.273-15.199 21.536 21.536 0 00-15.182-6.333H708.006a21.553 21.553 0 00-15.2 6.326 21.523 21.523 0 00-6.291 15.206v33.792a22.138 22.138 0 004.856 13.545l60.36 75.388a91.73 91.73 0 0133.911-37.619 91.812 91.812 0 0148.719-13.901h2.247a6.7 6.7 0 01.961 0h62.606a22.795 22.795 0 006.143-.887 25.072 25.072 0 008.481-4.98 21.229 21.229 0 006.831-15.592v-31.094a4.428 4.428 0 01-.09-.778 4.752 4.752 0 01.09-.996z" fill="#4EBA66" fill-opacity=".08"/><path d="M802.509 273.012a36.459 36.459 0 00-25.691 10.528A36.43 36.43 0 00766 309.103v.688a36.408 36.408 0 0023.396 33.801 36.43 36.43 0 0039.997-9.532c.172-.147.258-.27.233-.27l.209-.258.111-.135.135-.148 2.077-2.642c.17-.147.319-.316.443-.504a36.456 36.456 0 002.194-37.63 36.477 36.477 0 00-13.431-14.229A36.497 36.497 0 00802.509 273v.012zm19.668 54.425a26.683 26.683 0 01-41.581-2.71 26.661 26.661 0 01-4.799-14.948v-.578a26.697 26.697 0 018.102-18.481 26.715 26.715 0 0137.378.172 26.695 26.695 0 017.931 18.555 26.446 26.446 0 01-4.622 14.942l-2.212 2.778-.172.258-.025.012z" fill="#00589B" fill-opacity=".05"/><path d="M793.007.01a26.967 26.967 0 00-19.005 7.787A26.949 26.949 0 00766 26.707v.508a26.927 26.927 0 0017.307 25.004 26.95 26.95 0 0029.586-7.051c.128-.11.191-.2.173-.2l.155-.191.081-.1.1-.109 1.537-1.954c.126-.11.236-.234.328-.373a26.979 26.979 0 001.622-27.836A26.98 26.98 0 00793.007 0v.01zm14.549 40.258a19.736 19.736 0 01-30.759-2.005 19.727 19.727 0 01-3.55-11.057v-.427a19.751 19.751 0 015.993-13.671 19.764 19.764 0 0127.65.127 19.752 19.752 0 015.867 13.726 19.564 19.564 0 01-3.419 11.053l-1.637 2.054-.127.191-.018.01z" fill="#4EBA66" fill-opacity=".08"/><path d="M510.009 430.012a36.958 36.958 0 00-26.043 10.673A36.928 36.928 0 00473 466.597v.698a36.896 36.896 0 006.559 20.797 36.922 36.922 0 0038.924 14.902 36.922 36.922 0 0018.778-11.097c.175-.15.262-.274.237-.274l.212-.262.112-.137.137-.149 2.106-2.679c.172-.149.323-.32.448-.51a36.962 36.962 0 00-11.391-52.57A36.996 36.996 0 00510.009 430v.012zm19.937 55.171a27.043 27.043 0 01-29.6 7.043 27.03 27.03 0 01-17.415-24.943v-.586a27.068 27.068 0 018.213-18.735 27.086 27.086 0 0137.89.175 27.061 27.061 0 018.04 18.809 26.81 26.81 0 01-4.685 15.147l-2.243 2.816-.175.261-.025.013z" fill="#EAEAEA" fill-opacity=".2"/></svg>