<svg width="560" height="404" fill="none" xmlns="http://www.w3.org/2000/svg"><path d="M276.836 142.673h79.475a14.884 14.884 0 0010.513-4.388 14.947 14.947 0 004.348-10.548v-20.639a14.868 14.868 0 00-4.716-10.85l-.098-.09a16.078 16.078 0 00-5.293-3.156l-.247-.105a14.753 14.753 0 00-4.499-.698h-27.232a32.001 32.001 0 01-18.821-6.116 32.107 32.107 0 01-11.649-16.026 3.007 3.007 0 00-2.34-2.059 1.3 1.3 0 00-.24 0h-.292a3.098 3.098 0 00-2.362 1.105l-28.146 35.237a14.99 14.99 0 00-3.299 9.392v14.005a14.94 14.94 0 009.195 13.799 14.866 14.866 0 005.703 1.137zm88.39-21.939v7.003a8.933 8.933 0 01-2.595 6.305 8.9 8.9 0 01-6.282 2.628h-79.513a8.902 8.902 0 01-6.289-2.625 8.941 8.941 0 01-2.604-6.308v-14.02a9.198 9.198 0 012.01-5.62l24.975-31.278a38.016 38.016 0 0014.031 15.608 37.91 37.91 0 0020.158 5.767h.93c.132.01.265.01.397 0h25.905c.86.006 1.715.13 2.542.368a10.363 10.363 0 013.509 2.067 8.807 8.807 0 012.826 6.469v12.9a1.837 1.837 0 000 .736zM339.399 81.36a25.048 25.048 0 0017.652-7.234 25.028 25.028 0 007.433-17.564v-.473a25.007 25.007 0 00-4.445-14.097 25.027 25.027 0 00-26.384-10.1 25.026 25.026 0 00-12.728 7.521c-.118.102-.177.186-.16.186l-.144.178-.076.092-.093.102-1.427 1.815a1.677 1.677 0 00-.304.346 25.058 25.058 0 00-1.508 25.856 25.074 25.074 0 0022.184 13.38v-.008zm-13.514-37.396a18.329 18.329 0 0120.064-4.774 18.325 18.325 0 0111.804 16.907v.397a18.344 18.344 0 01-5.567 12.699 18.357 18.357 0 01-25.683-.118 18.345 18.345 0 01-5.449-12.75 18.168 18.168 0 013.176-10.267l1.52-1.908.118-.177.017-.009zM478.883 0h-79.476a14.884 14.884 0 00-10.513 4.389 14.944 14.944 0 00-4.347 10.547v20.64a14.898 14.898 0 001.234 5.915 14.852 14.852 0 003.482 4.934l.097.09a16.093 16.093 0 005.294 3.156l.247.105c1.455.464 2.972.7 4.499.698h27.232a32.001 32.001 0 0118.821 6.116 32.107 32.107 0 0111.649 16.026 3 3 0 002.34 2.059c.079.007.16.007.239 0h.293a3.098 3.098 0 002.362-1.105l28.146-35.237a14.987 14.987 0 003.299-9.392V14.937a14.96 14.96 0 00-4.361-10.562A14.89 14.89 0 00478.883 0zm-88.39 21.939v-7.002a8.935 8.935 0 012.595-6.306 8.897 8.897 0 016.282-2.628h79.513a8.904 8.904 0 016.289 2.625 8.943 8.943 0 012.603 6.309v14.02a9.203 9.203 0 01-2.009 5.62l-24.975 31.277a38.023 38.023 0 00-14.031-15.608 37.91 37.91 0 00-20.158-5.767h-.93a2.783 2.783 0 00-.398 0H399.37a9.405 9.405 0 01-2.542-.368 10.37 10.37 0 01-3.509-2.066 8.816 8.816 0 01-2.826-6.47v-12.9c.021-.106.034-.214.037-.323a2.046 2.046 0 00-.037-.413zm25.827 39.374a25.036 25.036 0 00-25.086 24.798v.473a25.016 25.016 0 0016.076 23.225 25.037 25.037 0 0027.482-6.549c.118-.102.177-.186.16-.186l.144-.177.076-.093.093-.102 1.427-1.815c.117-.101.219-.217.304-.346a25.048 25.048 0 001.508-25.856 25.067 25.067 0 00-22.184-13.38v.008zm13.514 37.396a18.334 18.334 0 01-28.571-1.862 18.317 18.317 0 01-3.297-10.271v-.397a18.344 18.344 0 015.567-12.699 18.357 18.357 0 0125.682.118 18.346 18.346 0 015.45 12.75 18.168 18.168 0 01-3.176 10.267l-1.52 1.908-.118.177-.017.009zm38.72 43.964h79.476a14.884 14.884 0 0010.513-4.388 14.947 14.947 0 004.348-10.548v-20.639a14.882 14.882 0 00-4.716-10.85l-.098-.09a16.088 16.088 0 00-5.293-3.156l-.248-.105a14.742 14.742 0 00-4.498-.698h-27.232a32.001 32.001 0 01-18.821-6.116 32.109 32.109 0 01-11.65-16.026 2.997 2.997 0 00-2.339-2.059 1.3 1.3 0 00-.24 0h-.292a3.103 3.103 0 00-2.362 1.105l-28.147 35.237a14.99 14.99 0 00-3.299 9.392v14.005a14.952 14.952 0 004.361 10.561 14.91 14.91 0 004.835 3.238 14.858 14.858 0 005.702 1.137zm88.391-21.939v7.003a8.934 8.934 0 01-2.596 6.305 8.896 8.896 0 01-6.281 2.628h-79.514a8.905 8.905 0 01-6.289-2.625 8.94 8.94 0 01-2.603-6.308v-14.02a9.198 9.198 0 012.01-5.62l24.974-31.278a38.025 38.025 0 0014.032 15.608 37.91 37.91 0 0020.158 5.767h.93c.132.01.265.01.397 0h25.905c.86.006 1.715.13 2.541.368a10.353 10.353 0 013.509 2.067 8.807 8.807 0 012.827 6.469v12.9a1.838 1.838 0 00-.038.323c-.002.139.011.277.038.413z" fill="#EAEAEA" fill-opacity=".2"/><path d="M531.114 81.36a25.048 25.048 0 0017.652-7.234 25.028 25.028 0 007.433-17.564v-.473a25.02 25.02 0 00-16.075-23.225 25.035 25.035 0 00-27.482 6.55c-.118.1-.177.185-.161.185l-.143.178-.076.092-.093.102-1.427 1.815c-.117.101-.22.217-.305.346a25.057 25.057 0 0020.677 39.236v-.008zM517.6 43.964a18.33 18.33 0 0131.868 12.133v.397a18.349 18.349 0 01-18.433 17.879 18.357 18.357 0 01-12.817-5.298 18.345 18.345 0 01-5.449-12.75 18.175 18.175 0 013.175-10.267l1.521-1.908.118-.177.017-.009zM95.45 156.049H15.974a14.883 14.883 0 00-10.513 4.388 14.947 14.947 0 00-4.348 10.548v20.639a14.871 14.871 0 004.716 10.85l.098.09a16.084 16.084 0 005.293 3.155l.248.106c1.454.464 2.972.7 4.498.698h27.232a32 32 0 0118.821 6.116 32.106 32.106 0 0111.65 16.026 3.004 3.004 0 002.339 2.059c.08.007.16.007.24 0h.292a3.102 3.102 0 002.362-1.105l28.146-35.237a14.983 14.983 0 003.299-9.392v-14.005a14.952 14.952 0 00-4.36-10.561 14.91 14.91 0 00-4.835-3.238 14.862 14.862 0 00-5.703-1.137zM7.058 177.988v-7.003a8.933 8.933 0 012.596-6.305 8.897 8.897 0 016.281-2.628H95.45a8.91 8.91 0 016.29 2.624 8.944 8.944 0 012.603 6.309v14.02a9.198 9.198 0 01-2.01 5.62l-24.974 31.278a38.02 38.02 0 00-14.032-15.608 37.905 37.905 0 00-20.158-5.767h-.93a2.635 2.635 0 00-.397 0H15.936a9.423 9.423 0 01-2.541-.368 10.36 10.36 0 01-3.51-2.067 8.818 8.818 0 01-2.827-6.469v-12.9a1.849 1.849 0 00.001-.736zm25.828 39.374a25.05 25.05 0 00-17.652 7.234A25.03 25.03 0 007.8 242.16v.473a25.017 25.017 0 0016.075 23.224 25.025 25.025 0 0027.482-6.549c.118-.101.178-.186.16-.186l.144-.177.076-.093.093-.101 1.427-1.815a1.71 1.71 0 00.305-.346 25.055 25.055 0 00-7.722-35.634 25.073 25.073 0 00-12.955-3.602v.008zM46.4 254.757a18.328 18.328 0 01-31.868-12.133v-.397a18.344 18.344 0 015.567-12.698 18.359 18.359 0 0125.683.118 18.345 18.345 0 015.45 12.749c0 3.664-1.107 7.243-3.176 10.267l-1.52 1.909-.119.177-.017.008zm38.717 43.965h79.476a14.882 14.882 0 0010.513-4.389 14.943 14.943 0 004.347-10.548v-20.639a14.898 14.898 0 00-1.234-5.915 14.852 14.852 0 00-3.482-4.934l-.097-.09a16.095 16.095 0 00-5.294-3.156l-.247-.105a14.773 14.773 0 00-4.499-.699h-27.232a32 32 0 01-18.821-6.115 32.11 32.11 0 01-11.649-16.026 3.002 3.002 0 00-2.34-2.059 1.363 1.363 0 00-.239 0h-.293a3.102 3.102 0 00-2.362 1.104l-28.146 35.238a14.985 14.985 0 00-3.299 9.392v14.004a14.954 14.954 0 004.36 10.562 14.901 14.901 0 004.835 3.238 14.866 14.866 0 005.703 1.137zm88.39-21.939v7.002a8.934 8.934 0 01-2.595 6.306 8.897 8.897 0 01-6.282 2.628H85.117a8.905 8.905 0 01-6.29-2.625 8.94 8.94 0 01-2.602-6.309v-14.019a9.199 9.199 0 012.009-5.62l24.975-31.278a38.022 38.022 0 0014.031 15.608 37.913 37.913 0 0020.158 5.767h.93c.132.01.265.01.398 0h25.904c.86.006 1.715.13 2.542.368a10.377 10.377 0 013.509 2.066 8.824 8.824 0 012.089 2.938 8.83 8.83 0 01.737 3.531v12.901a1.937 1.937 0 00-.037.323c-.002.138.011.277.037.413zm-25.827-39.374a25.037 25.037 0 0025.086-24.798v-.473a25.015 25.015 0 00-16.076-23.225 25.037 25.037 0 00-27.482 6.549c-.118.102-.177.186-.16.186l-.144.177-.076.093-.093.102-1.427 1.815a1.671 1.671 0 00-.304.346 25.05 25.05 0 00-1.508 25.856 25.07 25.07 0 0022.184 13.38v-.008zm-13.514-37.396a18.336 18.336 0 0120.064-4.774 18.319 18.319 0 0111.804 16.907v.397a18.344 18.344 0 01-5.567 12.699 18.358 18.358 0 01-25.682-.118 18.347 18.347 0 01-5.45-12.75 18.167 18.167 0 013.176-10.267l1.52-1.908.118-.177.017-.009zm152.998-43.964h-79.475a14.884 14.884 0 00-10.513 4.388 14.947 14.947 0 00-4.348 10.548v20.639a14.877 14.877 0 004.716 10.85l.098.09a16.078 16.078 0 005.293 3.155l.247.106c1.455.464 2.973.7 4.499.698h27.232a32 32 0 0118.821 6.116 32.106 32.106 0 0111.649 16.026 3.005 3.005 0 002.34 2.059c.08.007.16.007.24 0h.292a3.102 3.102 0 002.362-1.105l28.146-35.237a14.99 14.99 0 003.299-9.392v-14.005a14.94 14.94 0 00-9.195-13.799 14.866 14.866 0 00-5.703-1.137zm-88.39 21.939v-7.003a8.933 8.933 0 012.595-6.305 8.9 8.9 0 016.282-2.628h79.513a8.905 8.905 0 016.289 2.624 8.945 8.945 0 012.604 6.309v14.02a9.198 9.198 0 01-2.01 5.62l-24.975 31.278a38.016 38.016 0 00-14.031-15.608 37.904 37.904 0 00-20.158-5.767h-.93a2.63 2.63 0 00-.397 0h-25.905a9.428 9.428 0 01-2.542-.368 10.364 10.364 0 01-3.509-2.067 8.807 8.807 0 01-2.826-6.469v-12.9a1.837 1.837 0 000-.736zm25.831 39.374a25.047 25.047 0 00-17.652 7.234 25.027 25.027 0 00-7.433 17.564v.473a25.02 25.02 0 0016.075 23.224 25.026 25.026 0 0027.482-6.549c.118-.101.177-.186.16-.186l.144-.177.076-.093.093-.101 1.427-1.815c.117-.101.219-.218.304-.346a25.06 25.06 0 001.508-25.857 25.062 25.062 0 00-22.184-13.379v.008zm13.514 37.395a18.326 18.326 0 01-20.064 4.774 18.322 18.322 0 01-11.804-16.907v-.397a18.344 18.344 0 015.567-12.698 18.358 18.358 0 0125.682.118 18.342 18.342 0 015.45 12.749 18.167 18.167 0 01-3.176 10.267l-1.52 1.909-.118.177-.017.008zm38.717 43.965h79.475a14.88 14.88 0 0010.513-4.389 14.943 14.943 0 004.348-10.548v-20.639a14.867 14.867 0 00-4.716-10.849l-.098-.09a16.08 16.08 0 00-5.293-3.156l-.247-.105a14.778 14.778 0 00-4.499-.699h-27.232a32 32 0 01-18.821-6.115 32.11 32.11 0 01-11.649-16.026 3.008 3.008 0 00-2.34-2.059 1.374 1.374 0 00-.24 0h-.292a3.102 3.102 0 00-2.362 1.104l-28.146 35.238a14.987 14.987 0 00-3.299 9.392v14.004a14.941 14.941 0 004.361 10.562 14.895 14.895 0 0010.537 4.375zm88.39-21.939v7.002a8.934 8.934 0 01-2.595 6.306 8.9 8.9 0 01-6.282 2.628h-79.513a8.902 8.902 0 01-6.289-2.625 8.942 8.942 0 01-2.604-6.309v-14.019a9.196 9.196 0 012.01-5.62l24.975-31.278a38.016 38.016 0 0014.031 15.608 37.913 37.913 0 0020.158 5.767h.93c.132.01.265.01.397 0h25.905c.86.006 1.715.13 2.542.368a10.377 10.377 0 013.509 2.066 8.807 8.807 0 012.826 6.469v12.901a1.837 1.837 0 000 .736zm-25.827-39.374a25.05 25.05 0 0017.652-7.234 25.029 25.029 0 007.433-17.564v-.473a25.006 25.006 0 00-4.445-14.097 25.026 25.026 0 00-26.384-10.101 25.033 25.033 0 00-12.728 7.522c-.118.102-.177.186-.16.186l-.144.177-.076.093-.093.102-1.427 1.815a1.671 1.671 0 00-.304.346 25.06 25.06 0 00-4.355 12.718 25.06 25.06 0 0025.031 26.518v-.008zm-13.514-37.396a18.336 18.336 0 0120.064-4.774 18.319 18.319 0 0111.804 16.907v.397a18.344 18.344 0 01-5.567 12.699 18.358 18.358 0 01-25.683-.118 18.346 18.346 0 01-5.449-12.75 18.167 18.167 0 013.176-10.267l1.52-1.908.118-.177.017-.009zm152.998-43.964h-79.476a14.885 14.885 0 00-10.513 4.388 14.946 14.946 0 00-4.347 10.548v20.639a14.862 14.862 0 004.716 10.85l.097.09a16.093 16.093 0 005.294 3.155l.247.106c1.455.464 2.972.7 4.499.698h27.232a32 32 0 0118.821 6.116 32.106 32.106 0 0111.649 16.026 3.003 3.003 0 002.34 2.059c.079.007.16.007.239 0h.293a3.102 3.102 0 002.362-1.105l28.146-35.237a14.99 14.99 0 003.299-9.392v-14.005a14.959 14.959 0 00-4.361-10.561 14.895 14.895 0 00-10.537-4.375zm-88.39 21.939v-7.003a8.933 8.933 0 012.595-6.305 8.897 8.897 0 016.282-2.628h79.513a8.907 8.907 0 016.289 2.624 8.944 8.944 0 012.603 6.309v14.02a9.203 9.203 0 01-2.009 5.62l-24.975 31.278a38.022 38.022 0 00-14.031-15.608 37.904 37.904 0 00-20.158-5.767h-.93a2.644 2.644 0 00-.398 0H399.37a9.428 9.428 0 01-2.542-.368 10.364 10.364 0 01-3.509-2.067 8.804 8.804 0 01-2.826-6.469v-12.9c.021-.106.034-.214.037-.323a2.04 2.04 0 00-.037-.413zm25.827 39.374a25.035 25.035 0 00-25.086 24.798v.473a25.014 25.014 0 0016.076 23.224 25.026 25.026 0 0027.482-6.549c.118-.101.177-.186.16-.186l.144-.177.076-.093.093-.101 1.427-1.815c.117-.101.219-.218.304-.346a25.05 25.05 0 001.508-25.857 25.07 25.07 0 00-22.184-13.379v.008zm13.514 37.395a18.326 18.326 0 01-20.064 4.774 18.322 18.322 0 01-11.804-16.907v-.397a18.344 18.344 0 015.567-12.698 18.358 18.358 0 0125.682.118 18.347 18.347 0 015.45 12.749 18.167 18.167 0 01-3.176 10.267l-1.52 1.909-.118.177-.017.008zm38.72 43.965h79.476a14.88 14.88 0 0010.513-4.389 14.943 14.943 0 004.348-10.548v-20.639a14.881 14.881 0 00-4.716-10.849l-.098-.09a16.09 16.09 0 00-5.293-3.156l-.248-.105a14.767 14.767 0 00-4.498-.699h-27.232a32 32 0 01-18.821-6.115 32.112 32.112 0 01-11.65-16.026 2.998 2.998 0 00-2.339-2.059 1.374 1.374 0 00-.24 0h-.292a3.106 3.106 0 00-2.362 1.104l-28.147 35.238a14.987 14.987 0 00-3.299 9.392v14.004a14.952 14.952 0 004.361 10.562 14.91 14.91 0 004.835 3.238 14.858 14.858 0 005.702 1.137zm88.391-21.939v7.002a8.935 8.935 0 01-2.596 6.306 8.896 8.896 0 01-6.281 2.628h-79.514a8.905 8.905 0 01-6.289-2.625 8.94 8.94 0 01-2.603-6.309v-14.019a9.196 9.196 0 012.01-5.62l24.974-31.278a38.025 38.025 0 0014.032 15.608 37.913 37.913 0 0020.158 5.767h.93c.132.01.265.01.397 0h25.905c.86.006 1.715.13 2.541.368a10.368 10.368 0 013.509 2.066 8.81 8.81 0 012.827 6.469v12.901a1.838 1.838 0 00-.038.323c-.002.138.011.277.038.413zm-25.831-39.374a25.05 25.05 0 0017.652-7.234 25.029 25.029 0 007.433-17.564v-.473a25.019 25.019 0 00-16.075-23.225 25.033 25.033 0 00-27.482 6.549c-.118.102-.177.186-.161.186l-.143.177-.076.093-.093.102-1.427 1.815c-.117.101-.22.217-.305.346a25.059 25.059 0 00-1.507 25.856 25.062 25.062 0 0022.184 13.38v-.008zM517.6 200.013a18.337 18.337 0 0120.064-4.774 18.33 18.33 0 0111.804 16.907v.397a18.349 18.349 0 01-18.433 17.878 18.346 18.346 0 01-18.266-18.047 18.174 18.174 0 013.175-10.267l1.521-1.908.118-.177.017-.009zM94.336 314.327H14.861a14.883 14.883 0 00-10.513 4.388A14.947 14.947 0 000 329.263v20.639a14.889 14.889 0 004.716 10.85l.098.09a16.067 16.067 0 005.293 3.155l.247.106c1.455.464 2.972.7 4.499.698h27.232a32 32 0 0118.82 6.116 32.107 32.107 0 0111.65 16.026 3.003 3.003 0 002.34 2.059c.08.007.16.007.24 0h.292a3.101 3.101 0 002.362-1.105l28.146-35.237a14.99 14.99 0 003.299-9.392v-14.005a14.94 14.94 0 00-9.195-13.799 14.865 14.865 0 00-5.703-1.137zm-88.39 21.939v-7.003a8.933 8.933 0 012.595-6.305 8.897 8.897 0 016.282-2.628h79.513c2.36.006 4.622.95 6.289 2.625a8.94 8.94 0 012.603 6.308v14.02a9.197 9.197 0 01-2.009 5.62l-24.975 31.278a38.02 38.02 0 00-14.031-15.608 37.905 37.905 0 00-20.158-5.767h-.93a2.635 2.635 0 00-.397 0H14.823a9.422 9.422 0 01-2.542-.368 10.36 10.36 0 01-3.509-2.067 8.818 8.818 0 01-2.827-6.469v-12.9a1.849 1.849 0 000-.736z" fill="#EAEAEA" fill-opacity=".2"/><path d="M31.773 375.64a25.05 25.05 0 00-17.652 7.234 25.029 25.029 0 00-7.434 17.564v.473a25.013 25.013 0 0016.076 23.225 25.033 25.033 0 0027.482-6.549c.118-.102.177-.186.16-.186l.144-.177.076-.093.093-.102 1.427-1.815c.117-.101.22-.217.304-.346a25.056 25.056 0 00-20.676-39.236v.008zm13.514 37.396a18.337 18.337 0 01-20.064 4.774 18.326 18.326 0 01-11.804-16.907v-.397a18.353 18.353 0 0118.432-17.878 18.345 18.345 0 0118.267 18.047c0 3.664-1.106 7.243-3.176 10.267l-1.52 1.908-.118.177-.017.009zM84.004 457h79.475a14.88 14.88 0 0010.513-4.389 14.943 14.943 0 004.348-10.547v-20.64a14.867 14.867 0 00-4.716-10.849l-.098-.09a16.08 16.08 0 00-5.293-3.156l-.247-.105a14.778 14.778 0 00-4.499-.699h-27.232a32 32 0 01-18.821-6.115 32.112 32.112 0 01-11.65-16.026 2.998 2.998 0 00-2.339-2.059 1.374 1.374 0 00-.24 0h-.292a3.102 3.102 0 00-2.362 1.105l-28.146 35.237a14.989 14.989 0 00-3.3 9.392v14.005a14.953 14.953 0 004.362 10.561A14.866 14.866 0 0084.004 457zm88.39-21.939v7.003a8.933 8.933 0 01-2.595 6.305 8.9 8.9 0 01-6.282 2.628H84.004a8.905 8.905 0 01-6.29-2.625 8.94 8.94 0 01-2.603-6.308v-14.02a9.198 9.198 0 012.01-5.62l24.975-31.278a38.016 38.016 0 0014.031 15.608 37.904 37.904 0 0020.158 5.767h.93c.132.01.265.01.397 0h25.905c.86.006 1.715.13 2.542.368a10.377 10.377 0 013.509 2.066 8.801 8.801 0 012.088 2.939 8.806 8.806 0 01.738 3.53v12.901a1.837 1.837 0 000 .736zm-25.827-39.374a25.05 25.05 0 0017.652-7.234 25.027 25.027 0 007.433-17.564v-.473a25.009 25.009 0 00-16.075-23.225 25.034 25.034 0 00-27.482 6.55c-.118.101-.177.185-.16.185l-.144.178-.076.093-.093.101-1.427 1.815a1.697 1.697 0 00-.304.346 25.058 25.058 0 007.721 35.633 25.072 25.072 0 0012.955 3.603v-.008zm-13.514-37.395a18.334 18.334 0 0128.571 1.862 18.316 18.316 0 013.297 10.271v.396a18.344 18.344 0 01-5.567 12.699 18.358 18.358 0 01-25.683-.118 18.346 18.346 0 01-5.449-12.749 18.17 18.17 0 013.176-10.268l1.52-1.908.118-.177.017-.008zm153.002-43.965h-79.476a14.884 14.884 0 00-10.513 4.388 14.946 14.946 0 00-4.347 10.548v20.639a14.864 14.864 0 004.716 10.85l.097.09a16.076 16.076 0 005.294 3.155l.247.106c1.455.464 2.972.7 4.499.698h27.231a32.001 32.001 0 0118.822 6.116 32.106 32.106 0 0111.649 16.026 3.011 3.011 0 002.339 2.059c.08.007.16.007.24 0h.293a3.102 3.102 0 002.361-1.105l28.147-35.237a14.99 14.99 0 003.299-9.392v-14.005a14.959 14.959 0 00-4.361-10.561 14.895 14.895 0 00-10.537-4.375zm-88.391 21.939v-7.003a8.934 8.934 0 012.596-6.305 8.897 8.897 0 016.282-2.628h79.513c2.36.006 4.622.95 6.289 2.625a8.94 8.94 0 012.603 6.308v14.02a9.203 9.203 0 01-2.009 5.62l-24.975 31.278a38.022 38.022 0 00-14.031-15.608 37.905 37.905 0 00-20.159-5.767h-.929a2.644 2.644 0 00-.398 0h-25.904a9.423 9.423 0 01-2.542-.368 10.364 10.364 0 01-3.509-2.067 8.804 8.804 0 01-2.827-6.469v-12.9c.022-.106.035-.214.038-.323a1.972 1.972 0 00-.038-.413zm25.828 39.374a25.05 25.05 0 00-17.653 7.234 25.031 25.031 0 00-7.433 17.564v.473a25.017 25.017 0 0016.076 23.225 25.03 25.03 0 0027.482-6.549c.118-.102.177-.186.16-.186l.144-.177.076-.093.093-.102 1.427-1.815c.117-.101.219-.217.304-.346a25.05 25.05 0 001.508-25.856 25.07 25.07 0 00-22.184-13.38v.008zm13.514 37.396a18.34 18.34 0 01-20.064 4.774 18.324 18.324 0 01-11.804-16.907v-.397a18.351 18.351 0 0118.432-17.878 18.347 18.347 0 0118.267 18.047 18.167 18.167 0 01-3.176 10.267l-1.52 1.908-.118.177-.017.009zM275.722 457h79.476a14.88 14.88 0 0010.513-4.389 14.943 14.943 0 004.348-10.547v-20.64a14.881 14.881 0 00-4.716-10.849l-.098-.09a16.09 16.09 0 00-5.293-3.156l-.248-.105a14.767 14.767 0 00-4.498-.699h-27.232a32 32 0 01-18.821-6.115 32.112 32.112 0 01-11.65-16.026 2.998 2.998 0 00-2.339-2.059 1.374 1.374 0 00-.24 0h-.292a3.106 3.106 0 00-2.362 1.105l-28.147 35.237a14.99 14.99 0 00-3.299 9.392v14.005a14.959 14.959 0 004.361 10.561A14.866 14.866 0 00275.722 457zm88.391-21.939v7.003a8.934 8.934 0 01-2.596 6.305 8.896 8.896 0 01-6.281 2.628h-79.514a8.905 8.905 0 01-6.289-2.625 8.94 8.94 0 01-2.603-6.308v-14.02a9.196 9.196 0 012.01-5.62l24.974-31.278a38.025 38.025 0 0014.032 15.608 37.904 37.904 0 0020.158 5.767h.93c.132.01.265.01.397 0h25.905c.86.006 1.715.13 2.541.368a10.368 10.368 0 013.509 2.066 8.804 8.804 0 012.827 6.469v12.901a1.838 1.838 0 00-.038.323c-.002.139.011.277.038.413zm-25.827-39.374a25.05 25.05 0 0017.652-7.234 25.027 25.027 0 007.433-17.564v-.473a25.01 25.01 0 00-4.446-14.097 25.03 25.03 0 00-39.111-2.578c-.118.101-.178.185-.161.185l-.143.178-.076.093-.093.101-1.428 1.815a1.728 1.728 0 00-.304.346 25.059 25.059 0 00-1.507 25.856 25.072 25.072 0 0022.184 13.38v-.008zm-13.514-37.395a18.337 18.337 0 0120.064-4.775 18.326 18.326 0 0111.803 16.908v.396a18.343 18.343 0 01-5.566 12.699 18.36 18.36 0 01-25.683-.118 18.347 18.347 0 01-5.45-12.749c0-3.665 1.107-7.243 3.176-10.268l1.521-1.908.118-.177.017-.008zm152.998-43.965h-79.476a14.884 14.884 0 00-10.513 4.388 14.946 14.946 0 00-4.347 10.548v20.639a14.864 14.864 0 004.716 10.85l.097.09a16.065 16.065 0 005.294 3.155l.247.106c1.454.464 2.972.7 4.499.698h27.231a31.996 31.996 0 0118.821 6.116 32.107 32.107 0 0111.65 16.026 3.003 3.003 0 002.339 2.059c.08.007.16.007.24 0h.293a3.102 3.102 0 002.361-1.105l28.147-35.237a14.99 14.99 0 003.299-9.392v-14.005a14.959 14.959 0 00-4.361-10.561 14.866 14.866 0 00-10.537-4.375zm-88.391 21.939v-7.003a8.934 8.934 0 012.596-6.305 8.897 8.897 0 016.282-2.628h79.513c2.36.006 4.622.95 6.289 2.625a8.94 8.94 0 012.603 6.308v14.02a9.203 9.203 0 01-2.009 5.62l-24.975 31.278a38.018 38.018 0 00-14.032-15.608 37.902 37.902 0 00-20.158-5.767h-.929a2.644 2.644 0 00-.398 0h-25.904a9.423 9.423 0 01-2.542-.368 10.354 10.354 0 01-3.509-2.067 8.804 8.804 0 01-2.827-6.469v-12.9c.022-.106.035-.214.038-.323a1.972 1.972 0 00-.038-.413zm25.827 39.374a25.05 25.05 0 00-17.652 7.234 25.027 25.027 0 00-7.433 17.564v.473a25.017 25.017 0 0016.075 23.225 25.034 25.034 0 0027.482-6.549c.119-.102.178-.186.161-.186l.143-.177.076-.093.093-.102 1.428-1.815a1.7 1.7 0 00.304-.346 25.059 25.059 0 001.507-25.856 25.06 25.06 0 00-22.184-13.38v.008zm13.514 37.396a18.337 18.337 0 01-20.064 4.774 18.326 18.326 0 01-11.803-16.907v-.397a18.351 18.351 0 0118.432-17.878 18.347 18.347 0 0118.267 18.047c0 3.664-1.107 7.243-3.176 10.267l-1.52 1.908-.119.177-.017.009zM467.441 457h79.476a14.88 14.88 0 0010.513-4.389 14.942 14.942 0 004.347-10.547v-20.64a14.863 14.863 0 00-4.716-10.849l-.097-.09a16.085 16.085 0 00-5.294-3.156l-.247-.105a14.768 14.768 0 00-4.499-.699h-27.231a32 32 0 01-18.822-6.115 32.116 32.116 0 01-11.649-16.026 3.003 3.003 0 00-2.339-2.059 1.374 1.374 0 00-.24 0h-.293a3.102 3.102 0 00-2.361 1.105l-28.147 35.237a14.99 14.99 0 00-3.299 9.392v14.005a14.959 14.959 0 004.361 10.561A14.866 14.866 0 00467.441 457zm88.391-21.939v7.003a8.934 8.934 0 01-2.596 6.305 8.897 8.897 0 01-6.282 2.628h-79.513a8.905 8.905 0 01-6.289-2.625 8.94 8.94 0 01-2.603-6.308v-14.02a9.201 9.201 0 012.009-5.62l24.975-31.278a38.022 38.022 0 0014.031 15.608 37.908 37.908 0 0020.159 5.767h.929c.133.01.265.01.398 0h25.904c.86.006 1.716.13 2.542.368a10.377 10.377 0 013.509 2.066 8.818 8.818 0 012.827 6.469v12.901a1.838 1.838 0 00-.038.323c-.002.139.011.277.038.413zm-25.831-39.374a25.05 25.05 0 0017.652-7.234 25.027 25.027 0 007.433-17.564v-.473a25.01 25.01 0 00-4.446-14.097 25.03 25.03 0 00-39.111-2.578c-.119.101-.178.185-.161.185l-.143.178-.076.093-.093.101-1.428 1.815a1.728 1.728 0 00-.304.346 25.059 25.059 0 00-1.507 25.856 25.06 25.06 0 0022.184 13.38v-.008zm-13.514-37.395a18.338 18.338 0 0120.064-4.775 18.326 18.326 0 0111.803 16.908v.396a18.34 18.34 0 01-5.567 12.699 18.357 18.357 0 01-25.682-.118 18.347 18.347 0 01-5.45-12.749c0-3.665 1.107-7.243 3.176-10.268l1.52-1.908.119-.177.017-.008z" fill="#EAEAEA" fill-opacity=".2"/></svg>