<svg width="96" height="121" fill="none" xmlns="http://www.w3.org/2000/svg"><path fill="#7978C7" d="M.029 61.413h80.916v58.235H.029z"/><path stroke="#fff" stroke-width="1.726" d="M4.718 64.704h71.637v51.554H4.718z"/><path d="M11.813 101.405l1.2-1.198 11.076 11.07-1.2 1.198-11.075-11.07z" fill="#fff"/><path d="M11.891 111.165l11.076-11.07 1.2 1.199-11.077 11.07-1.199-1.199z" fill="#fff"/><path d="M42.632 67.197l6.585 13.462 14.866 2.094-10.775 10.47 2.594 14.758-13.27-6.98-13.27 6.98 2.594-14.758-10.775-10.47 14.866-2.094 6.585-13.462z" fill="#E29F7B"/><path fill="#7978C7" d="M.029.087h80.916v58.235H.029z"/><path stroke="#fff" stroke-width="1.726" d="M4.718 3.378h71.637v51.554H4.718z"/><path d="M11.82 40.076l1.2-1.199 11.076 11.07-1.2 1.199-11.076-11.07z" fill="#fff"/><path d="M11.897 49.837l11.076-11.07 1.2 1.198-11.077 11.07-1.199-1.198z" fill="#fff"/><path d="M42.632 5.87l6.585 13.463 14.866 2.094-10.775 10.47 2.594 14.758-13.27-6.98-13.27 6.98 2.594-14.758-10.775-10.47 14.866-2.095 6.585-13.461z" fill="#E29F7B"/><path d="M94.215 68.393l-11.474-6.98v57.836l11.474-6.182V68.393zm0-56.041L82.74.087v57.836l11.474 4.388V12.352z" fill="#D5D3F4"/></svg>