<svg width="546" height="389" fill="none" xmlns="http://www.w3.org/2000/svg"><g opacity=".6" fill="#EAEAEA" fill-opacity=".2"><path d="M280.942 5.07h103.581c5.143.013 10.07 2.019 13.701 5.578 3.631 3.558 5.669 8.38 5.667 13.405v26.23a18.516 18.516 0 01-1.609 7.517 18.896 18.896 0 01-4.538 6.27l-.127.115a21.072 21.072 0 01-6.899 4.01l-.322.134c-1.896.59-3.874.89-5.863.888h-35.491c-8.811-.002-17.397 2.718-24.53 7.773-7.133 5.054-12.447 12.183-15.183 20.367a3.812 3.812 0 01-1.149 1.725 3.951 3.951 0 01-1.9.891 1.73 1.73 0 01-.312 0h-.381a4.121 4.121 0 01-1.697-.37 4.03 4.03 0 01-1.381-1.033l-36.684-44.783a18.75 18.75 0 01-4.299-11.936V24.053c-.001-2.493.5-4.96 1.475-7.264a18.947 18.947 0 014.208-6.158 19.448 19.448 0 016.301-4.116 19.81 19.81 0 017.432-1.445zm115.2 27.882v-8.9a11.215 11.215 0 00-3.383-8.013 11.747 11.747 0 00-8.187-3.34h-103.63a11.755 11.755 0 00-8.196 3.336 11.221 11.221 0 00-3.393 8.018V41.87c.035 2.6.957 5.113 2.619 7.143l32.55 39.75c4.069-8.158 10.407-15.032 18.287-19.836 7.88-4.804 16.984-7.344 26.272-7.33h1.212c.172-.011.345-.011.517 0h33.762a12.535 12.535 0 003.312-.467 13.593 13.593 0 004.574-2.626 11.205 11.205 0 002.722-3.734c.634-1.415.961-2.943.962-4.487V33.888a2.27 2.27 0 01-.049-.41 2.438 2.438 0 01.049-.526z"/><path d="M356.425 76.265c8.81-.015 17.269 3.395 23.533 9.488 6.264 6.093 9.826 14.373 9.909 23.038v.62a32.441 32.441 0 01-5.927 18.49c-3.824 5.435-9.228 9.608-15.504 11.972a33.885 33.885 0 01-19.668 1.276c-6.538-1.533-12.452-4.971-16.969-9.866-.157-.133-.236-.243-.214-.243l-.191-.233-.101-.122-.124-.133-1.903-2.381a2.22 2.22 0 01-.406-.454 32.518 32.518 0 01-5.804-16.681 32.413 32.413 0 013.795-17.232 33.101 33.101 0 0112.303-12.824 33.843 33.843 0 0117.271-4.726v.011zm-18.016 49.049a24.525 24.525 0 0012.393 7.183 24.824 24.824 0 0014.355-.921 24.378 24.378 0 0011.34-8.705 23.757 23.757 0 004.396-13.471v-.52c-.164-6.294-2.828-12.273-7.421-16.657-4.594-4.383-10.751-6.822-17.152-6.793-6.4.029-12.534 2.523-17.087 6.948-4.552 4.425-7.16 10.429-7.265 16.723a23.57 23.57 0 004.234 13.467l2.027 2.502.157.233.023.011z"/><path d="M356.425 76.265c8.81-.015 17.269 3.395 23.533 9.488 6.264 6.093 9.826 14.373 9.909 23.038v.62a32.441 32.441 0 01-5.927 18.49c-3.824 5.435-9.228 9.608-15.504 11.972a33.885 33.885 0 01-19.668 1.276c-6.538-1.533-12.452-4.971-16.969-9.866-.157-.133-.236-.243-.214-.243l-.191-.233-.101-.122-.124-.133-1.903-2.381a2.22 2.22 0 01-.406-.454 32.518 32.518 0 01-5.804-16.681 32.413 32.413 0 013.795-17.232 33.101 33.101 0 0112.303-12.824 33.843 33.843 0 0117.271-4.726v.011zm-18.016 49.049a24.525 24.525 0 0012.393 7.183 24.824 24.824 0 0014.355-.921 24.378 24.378 0 0011.34-8.705 23.757 23.757 0 004.396-13.471v-.52c-.164-6.294-2.828-12.273-7.421-16.657-4.594-4.383-10.751-6.822-17.152-6.793-6.4.029-12.534 2.523-17.087 6.948-4.552 4.425-7.16 10.429-7.265 16.723a23.57 23.57 0 004.234 13.467l2.027 2.502.157.233.023.011zm-200.765 16.729h104.365a19.642 19.642 0 0013.805-5.704 19.32 19.32 0 005.709-13.71V95.803a19.177 19.177 0 00-1.62-7.688 19.314 19.314 0 00-4.573-6.413l-.128-.117a21.161 21.161 0 00-6.951-4.102l-.325-.137a19.537 19.537 0 00-5.907-.908h-35.76a42.311 42.311 0 01-24.715-7.949 41.757 41.757 0 01-15.298-20.83 3.9 3.9 0 00-1.159-1.764 3.946 3.946 0 00-1.913-.912c-.105-.01-.21-.01-.315 0h-.384a4.102 4.102 0 00-3.102 1.436l-36.961 45.8a19.355 19.355 0 00-4.332 12.207v18.203a19.287 19.287 0 001.486 7.429 19.403 19.403 0 004.241 6.298 19.57 19.57 0 006.348 4.209 19.698 19.698 0 007.489 1.478zm116.072-28.515v9.101a11.554 11.554 0 01-3.409 8.196 11.742 11.742 0 01-8.249 3.415H137.644a11.75 11.75 0 01-8.259-3.411 11.563 11.563 0 01-3.418-8.2v-18.222c.035-2.659.964-5.23 2.638-7.305l32.797-40.654a49.594 49.594 0 0018.425 20.287 50.163 50.163 0 0026.471 7.496h1.221c.174.012.348.012.522 0h34.017a12.46 12.46 0 013.338.479 13.64 13.64 0 014.608 2.685 11.454 11.454 0 012.743 3.819c.639 1.447.969 3.01.969 4.59v16.767a2.362 2.362 0 00-.05.419c-.002.181.014.361.05.538z"/><path d="M137.644 142.043h104.365a19.642 19.642 0 0013.805-5.704 19.32 19.32 0 005.709-13.71V95.803a19.177 19.177 0 00-1.62-7.688 19.314 19.314 0 00-4.573-6.413l-.128-.117a21.161 21.161 0 00-6.951-4.102l-.325-.137a19.537 19.537 0 00-5.907-.908h-35.76a42.311 42.311 0 01-24.715-7.949 41.757 41.757 0 01-15.298-20.83 3.9 3.9 0 00-1.159-1.764 3.946 3.946 0 00-1.913-.912c-.105-.01-.21-.01-.315 0h-.384a4.102 4.102 0 00-3.102 1.436l-36.961 45.8a19.355 19.355 0 00-4.332 12.207v18.203a19.287 19.287 0 001.486 7.429 19.403 19.403 0 004.241 6.298 19.57 19.57 0 006.348 4.209 19.698 19.698 0 007.489 1.478zm116.072-28.515v9.101a11.554 11.554 0 01-3.409 8.196 11.742 11.742 0 01-8.249 3.415H137.644a11.75 11.75 0 01-8.259-3.411 11.563 11.563 0 01-3.418-8.2v-18.222c.035-2.659.964-5.23 2.638-7.305l32.797-40.654a49.594 49.594 0 0018.425 20.287 50.163 50.163 0 0026.471 7.496h1.221c.174.012.348.012.522 0h34.017a12.46 12.46 0 013.338.479 13.64 13.64 0 014.608 2.685 11.454 11.454 0 012.743 3.819c.639 1.447.969 3.01.969 4.59v16.767a2.362 2.362 0 00-.05.419c-.002.181.014.361.05.538z"/><path d="M212.984 68.692c8.809.015 17.268-3.284 23.532-9.177 6.265-5.892 9.827-13.902 9.91-22.282v-.6c-.037-6.393-2.103-12.626-5.927-17.884-3.824-5.257-9.228-9.293-15.504-11.58a34.977 34.977 0 00-19.669-1.233c-6.537 1.482-12.451 4.808-16.968 9.542-.158.129-.237.236-.214.236l-.192.225-.101.117-.124.129-1.903 2.303a2.184 2.184 0 00-.405.44c-3.444 4.774-5.451 10.353-5.805 16.134-.354 5.78.958 11.544 3.795 16.667 2.837 5.123 7.092 9.412 12.303 12.403 5.212 2.992 11.184 4.572 17.272 4.571v-.01zm-18.017-47.44c3.305-3.447 7.624-5.867 12.394-6.947 4.77-1.08 9.772-.77 14.355.89 4.582 1.66 8.534 4.594 11.34 8.419 2.806 3.825 4.338 8.365 4.396 13.03v.503c-.164 6.087-2.828 11.87-7.422 16.11-4.593 4.24-10.751 6.6-17.151 6.571-6.401-.028-12.535-2.44-17.087-6.72-4.552-4.28-7.161-10.087-7.265-16.175-.001-4.648 1.475-9.189 4.233-13.025l2.027-2.42.158-.226.022-.01z"/><path d="M212.984 68.692c8.809.015 17.268-3.284 23.532-9.177 6.265-5.892 9.827-13.902 9.91-22.282v-.6c-.037-6.393-2.103-12.626-5.927-17.884-3.824-5.257-9.228-9.293-15.504-11.58a34.977 34.977 0 00-19.669-1.233c-6.537 1.482-12.451 4.808-16.968 9.542-.158.129-.237.236-.214.236l-.192.225-.101.117-.124.129-1.903 2.303a2.184 2.184 0 00-.405.44c-3.444 4.774-5.451 10.353-5.805 16.134-.354 5.78.958 11.544 3.795 16.667 2.837 5.123 7.092 9.412 12.303 12.403 5.212 2.992 11.184 4.572 17.272 4.571v-.01zm-18.017-47.44c3.305-3.447 7.624-5.867 12.394-6.947 4.77-1.08 9.772-.77 14.355.89 4.582 1.66 8.534 4.594 11.34 8.419 2.806 3.825 4.338 8.365 4.396 13.03v.503c-.164 6.087-2.828 11.87-7.422 16.11-4.593 4.24-10.751 6.6-17.151 6.571-6.401-.028-12.535-2.44-17.087-6.72-4.552-4.28-7.161-10.087-7.265-16.175-.001-4.648 1.475-9.189 4.233-13.025l2.027-2.42.158-.226.022-.01zM160.14-59.933H56.559a19.423 19.423 0 00-13.701 5.704 19.398 19.398 0 00-5.667 13.71v26.826A19.306 19.306 0 0043.338.408l.127.117a20.973 20.973 0 006.899 4.102l.322.137c1.896.603 3.874.91 5.863.908H92.04a41.783 41.783 0 0124.53 7.949 41.741 41.741 0 0115.183 20.83 3.906 3.906 0 003.049 2.676c.104.01.208.01.312 0h.381a4.044 4.044 0 003.078-1.436l36.684-45.8a19.445 19.445 0 004.299-12.207V-40.52a19.403 19.403 0 00-11.984-17.936 19.424 19.424 0 00-7.432-1.478zM44.94-31.418v-9.101a11.598 11.598 0 013.383-8.196 11.613 11.613 0 018.187-3.415h103.63a11.621 11.621 0 018.196 3.41 11.606 11.606 0 013.393 8.2v18.223a11.939 11.939 0 01-2.619 7.305l-32.55 40.654a49.458 49.458 0 00-18.287-20.287 49.504 49.504 0 00-26.272-7.496H90.79a3.636 3.636 0 00-.517 0H56.51a12.28 12.28 0 01-3.312-.479 13.516 13.516 0 01-4.574-2.685 11.444 11.444 0 01-3.684-8.408v-16.768a2.41 2.41 0 00.05-.42c.002-.18-.015-.36-.05-.537z"/><path d="M160.14-59.933H56.559a19.423 19.423 0 00-13.701 5.704 19.398 19.398 0 00-5.667 13.71v26.826A19.306 19.306 0 0043.338.408l.127.117a20.973 20.973 0 006.899 4.102l.322.137c1.896.603 3.874.91 5.863.908H92.04a41.783 41.783 0 0124.53 7.949 41.741 41.741 0 0115.183 20.83 3.906 3.906 0 003.049 2.676c.104.01.208.01.312 0h.381a4.044 4.044 0 003.078-1.436l36.684-45.8a19.445 19.445 0 004.299-12.207V-40.52a19.403 19.403 0 00-11.984-17.936 19.424 19.424 0 00-7.432-1.478zM44.94-31.418v-9.101a11.598 11.598 0 013.383-8.196 11.613 11.613 0 018.187-3.415h103.63a11.621 11.621 0 018.196 3.41 11.606 11.606 0 013.393 8.2v18.223a11.939 11.939 0 01-2.619 7.305l-32.55 40.654a49.458 49.458 0 00-18.287-20.287 49.504 49.504 0 00-26.272-7.496H90.79a3.636 3.636 0 00-.517 0H56.51a12.28 12.28 0 01-3.312-.479 13.516 13.516 0 01-4.574-2.685 11.444 11.444 0 01-3.684-8.408v-16.768a2.41 2.41 0 00.05-.42c.002-.18-.015-.36-.05-.537zm39.713 54.835c-8.81-.015-17.269 3.284-23.533 9.177-6.264 5.893-9.826 13.902-9.91 22.282v.6c.038 6.393 2.104 12.627 5.928 17.884s9.228 9.293 15.504 11.58a34.977 34.977 0 0019.669 1.234c6.537-1.483 12.451-4.809 16.968-9.543.158-.128.236-.235.214-.235l.191-.225.102-.118.123-.129 1.903-2.303c.156-.128.292-.275.406-.439 3.443-4.775 5.45-10.354 5.805-16.135.354-5.78-.958-11.543-3.796-16.666-2.837-5.124-7.091-9.413-12.303-12.404-5.212-2.991-11.184-4.572-17.27-4.57v.01zm18.016 47.44c-3.305 3.447-7.623 5.868-12.393 6.948-4.77 1.08-9.772.77-14.355-.89-4.583-1.66-8.534-4.594-11.34-8.42-2.807-3.825-4.338-8.365-4.396-13.03v-.503c.164-6.087 2.828-11.87 7.422-16.11 4.593-4.24 10.75-6.599 17.15-6.57 6.401.027 12.535 2.44 17.088 6.72 4.552 4.28 7.16 10.087 7.265 16.174.001 4.649-1.475 9.189-4.234 13.025l-2.027 2.421-.157.225-.023.01z"/><path d="M84.653 23.417c-8.81-.015-17.269 3.284-23.533 9.177-6.264 5.893-9.826 13.902-9.91 22.282v.6c.038 6.393 2.104 12.627 5.928 17.884s9.228 9.293 15.504 11.58a34.977 34.977 0 0019.669 1.234c6.537-1.483 12.451-4.809 16.968-9.543.158-.128.236-.235.214-.235l.191-.225.102-.118.123-.129 1.903-2.303c.156-.128.292-.275.406-.439 3.443-4.775 5.45-10.354 5.805-16.135.354-5.78-.958-11.543-3.796-16.666-2.837-5.124-7.091-9.413-12.303-12.404-5.212-2.991-11.184-4.572-17.27-4.57v.01zm18.016 47.44c-3.305 3.447-7.623 5.868-12.393 6.948-4.77 1.08-9.772.77-14.355-.89-4.583-1.66-8.534-4.594-11.34-8.42-2.807-3.825-4.338-8.365-4.396-13.03v-.503c.164-6.087 2.828-11.87 7.422-16.11 4.593-4.24 10.75-6.599 17.15-6.57 6.401.027 12.535 2.44 17.088 6.72 4.552 4.28 7.16 10.087 7.265 16.174.001 4.649-1.475 9.189-4.234 13.025l-2.027 2.421-.157.225-.023.01zm-83.961 2.161H-85.657a19.536 19.536 0 01-13.806-5.768 19.652 19.652 0 01-5.709-13.862V26.264a19.575 19.575 0 016.193-14.258l.128-.119A21.117 21.117 0 01-91.9 7.74l.325-.138c1.91-.61 3.903-.92 5.908-.918h35.76a42 42 0 0024.715-8.037A42.196 42.196 0 00-9.894-22.415a3.95 3.95 0 013.072-2.706c.105-.01.21-.01.315 0h.384a4.067 4.067 0 013.101 1.452l36.961 46.31a19.704 19.704 0 014.332 12.342v18.405a19.669 19.669 0 01-1.486 7.511 19.625 19.625 0 01-4.24 6.369 19.56 19.56 0 01-6.348 4.255 19.515 19.515 0 01-7.49 1.495zM-97.364 44.185v9.203a11.748 11.748 0 003.408 8.287 11.68 11.68 0 008.25 3.453H18.707a11.69 11.69 0 008.259-3.449 11.756 11.756 0 003.418-8.291V34.963a12.097 12.097 0 00-2.639-7.386L-5.05-13.528A49.953 49.953 0 01-23.476 6.984a49.754 49.754 0 01-26.47 7.58h-1.222a3.664 3.664 0 01-.522 0h-34.017a12.33 12.33 0 00-3.338.483 13.61 13.61 0 00-4.607 2.715 11.573 11.573 0 00-3.712 8.502v16.954c.029.14.045.282.05.424.002.183-.015.365-.05.543z"/><path d="M18.708 73.018H-85.657a19.536 19.536 0 01-13.806-5.768 19.652 19.652 0 01-5.709-13.862V26.264a19.575 19.575 0 016.193-14.258l.128-.119A21.117 21.117 0 01-91.9 7.74l.325-.138c1.91-.61 3.903-.92 5.908-.918h35.76a42 42 0 0024.715-8.037A42.196 42.196 0 00-9.894-22.415a3.95 3.95 0 013.072-2.706c.105-.01.21-.01.315 0h.384a4.067 4.067 0 013.101 1.452l36.961 46.31a19.704 19.704 0 014.332 12.342v18.405a19.669 19.669 0 01-1.486 7.511 19.625 19.625 0 01-4.24 6.369 19.56 19.56 0 01-6.348 4.255 19.515 19.515 0 01-7.49 1.495zM-97.364 44.185v9.203a11.748 11.748 0 003.408 8.287 11.68 11.68 0 008.25 3.453H18.707a11.69 11.69 0 008.259-3.449 11.756 11.756 0 003.418-8.291V34.963a12.097 12.097 0 00-2.639-7.386L-5.05-13.528A49.953 49.953 0 01-23.476 6.984a49.754 49.754 0 01-26.47 7.58h-1.222a3.664 3.664 0 01-.522 0h-34.017a12.33 12.33 0 00-3.338.483 13.61 13.61 0 00-4.607 2.715 11.573 11.573 0 00-3.712 8.502v16.954c.029.14.045.282.05.424.002.183-.015.365-.05.543zM69.932 247h102.961a19.25 19.25 0 0113.619 5.703 19.45 19.45 0 015.631 13.707l-.002 26.821a19.408 19.408 0 01-1.599 7.687 19.313 19.313 0 01-4.512 6.412l-.126.117a20.842 20.842 0 01-6.858 4.101l-.32.136c-1.885.604-3.851.91-5.828.908h-35.279a41.38 41.38 0 00-24.384 7.948 41.725 41.725 0 00-15.093 20.826 3.91 3.91 0 01-1.143 1.764 3.87 3.87 0 01-1.888.911c-.103.01-.207.01-.31 0h-.38a4.001 4.001 0 01-3.06-1.435l-36.46-45.792a19.508 19.508 0 01-4.272-12.204l.001-18.2a19.489 19.489 0 011.467-7.427 19.402 19.402 0 014.184-6.297 19.28 19.28 0 016.263-4.208A19.207 19.207 0 0169.932 247zm114.508 28.51v-9.1a11.626 11.626 0 00-3.362-8.194 11.507 11.507 0 00-8.137-3.415H69.931a11.519 11.519 0 00-8.148 3.411 11.639 11.639 0 00-3.373 8.198v18.219c.034 2.658.95 5.228 2.602 7.303l32.352 40.647a49.36 49.36 0 0118.179-20.283 48.993 48.993 0 0126.115-7.495h1.205c.171-.012.343-.012.515 0h33.559a12.196 12.196 0 003.293-.478 13.43 13.43 0 004.546-2.685 11.474 11.474 0 003.662-8.407l.002-16.764a2.372 2.372 0 01-.049-.42c-.002-.18.014-.36.049-.537z"/><path d="M69.932 247h102.961a19.25 19.25 0 0113.619 5.703 19.45 19.45 0 015.631 13.707l-.002 26.821a19.408 19.408 0 01-1.599 7.687 19.313 19.313 0 01-4.512 6.412l-.126.117a20.842 20.842 0 01-6.858 4.101l-.32.136c-1.885.604-3.851.91-5.828.908h-35.279a41.38 41.38 0 00-24.384 7.948 41.725 41.725 0 00-15.093 20.826 3.91 3.91 0 01-1.143 1.764 3.87 3.87 0 01-1.888.911c-.103.01-.207.01-.31 0h-.38a4.001 4.001 0 01-3.06-1.435l-36.46-45.792a19.508 19.508 0 01-4.272-12.204l.001-18.2a19.489 19.489 0 011.467-7.427 19.402 19.402 0 014.184-6.297 19.28 19.28 0 016.263-4.208A19.207 19.207 0 0169.932 247zm114.508 28.51v-9.1a11.626 11.626 0 00-3.362-8.194 11.507 11.507 0 00-8.137-3.415H69.931a11.519 11.519 0 00-8.148 3.411 11.639 11.639 0 00-3.373 8.198v18.219c.034 2.658.95 5.228 2.602 7.303l32.352 40.647a49.36 49.36 0 0118.179-20.283 48.993 48.993 0 0126.115-7.495h1.205c.171-.012.343-.012.515 0h33.559a12.196 12.196 0 003.293-.478 13.43 13.43 0 004.546-2.685 11.474 11.474 0 003.662-8.407l.002-16.764a2.372 2.372 0 01-.049-.42c-.002-.18.014-.36.049-.537z"/><path d="M139.949 320.607c8.657-.015 16.968 3.339 23.122 9.33 6.155 5.992 9.654 14.135 9.735 22.656v.61a31.92 31.92 0 01-5.825 18.183c-3.758 5.346-9.067 9.449-15.234 11.774a33.274 33.274 0 01-19.326 1.255 32.885 32.885 0 01-16.672-9.702c-.155-.131-.232-.24-.21-.24l-.188-.229-.1-.119-.122-.131-1.869-2.342a2.164 2.164 0 01-.398-.446 31.99 31.99 0 01-5.703-16.405 31.913 31.913 0 013.73-16.947 32.551 32.551 0 0112.09-12.611 33.237 33.237 0 0116.97-4.647v.011zm-17.705 48.235a24.087 24.087 0 0012.177 7.064 24.37 24.37 0 0014.104-.905 23.957 23.957 0 0011.143-8.561 23.38 23.38 0 004.32-13.248v-.512c-.16-6.188-2.777-12.069-7.29-16.38-4.514-4.311-10.563-6.709-16.852-6.681-6.289.029-12.316 2.482-16.79 6.834-4.473 4.351-7.036 10.255-7.139 16.445a23.191 23.191 0 004.158 13.244l1.992 2.461.155.229.022.01z"/><path d="M139.949 320.607c8.657-.015 16.968 3.339 23.122 9.33 6.155 5.992 9.654 14.135 9.735 22.656v.61a31.92 31.92 0 01-5.825 18.183c-3.758 5.346-9.067 9.449-15.234 11.774a33.274 33.274 0 01-19.326 1.255 32.885 32.885 0 01-16.672-9.702c-.155-.131-.232-.24-.21-.24l-.188-.229-.1-.119-.122-.131-1.869-2.342a2.164 2.164 0 01-.398-.446 31.99 31.99 0 01-5.703-16.405 31.913 31.913 0 013.73-16.947 32.551 32.551 0 0112.09-12.611 33.237 33.237 0 0116.97-4.647v.011zm-17.705 48.235a24.087 24.087 0 0012.177 7.064 24.37 24.37 0 0014.104-.905 23.957 23.957 0 0011.143-8.561 23.38 23.38 0 004.32-13.248v-.512c-.16-6.188-2.777-12.069-7.29-16.38-4.514-4.311-10.563-6.709-16.852-6.681-6.289.029-12.316 2.482-16.79 6.834-4.473 4.351-7.036 10.255-7.139 16.445a23.191 23.191 0 004.158 13.244l1.992 2.461.155.229.022.01zM13.166 111.523l-.373 102.96a19.247 19.247 0 005.653 13.639 19.444 19.444 0 0013.687 5.681l26.82.096a19.388 19.388 0 007.693-1.572 19.312 19.312 0 006.428-4.488l.118-.126a20.82 20.82 0 004.125-6.843l.138-.32c.61-1.882.924-3.847.93-5.824l.127-35.279a41.37 41.37 0 018.036-24.354 41.72 41.72 0 0120.881-15.018 3.909 3.909 0 001.768-1.137 3.874 3.874 0 00.918-1.884c.01-.104.011-.208.001-.311l.002-.379a4.002 4.002 0 00-1.424-3.065l-45.66-36.626a19.511 19.511 0 00-12.188-4.317l-18.2-.065a19.49 19.49 0 00-7.432 1.44 19.41 19.41 0 00-6.313 4.161 19.296 19.296 0 00-4.23 6.248 19.21 19.21 0 00-1.505 7.383zm28.094 114.61l-9.1-.032a11.63 11.63 0 01-8.181-3.392 11.51 11.51 0 01-3.386-8.15l.374-103.009a11.52 11.52 0 013.44-8.135 11.64 11.64 0 018.211-3.343l18.219.064c2.658.045 5.224.97 7.294 2.629l40.528 32.5A49.356 49.356 0 0078.31 153.37a49.001 49.001 0 00-7.589 26.088l-.004 1.205a3.613 3.613 0 00-.002.515l-.122 33.559a12.145 12.145 0 01-.49 3.291 13.42 13.42 0 01-2.702 4.536 11.454 11.454 0 01-8.42 3.632l-16.764-.06a2.572 2.572 0 00-.42-.05c-.18-.003-.36.013-.537.047z"/><path d="M86.118 185.975c-.046 8.656 3.278 16.979 9.247 23.156 5.969 6.176 14.1 9.705 22.621 9.817l.609.002a31.932 31.932 0 0018.205-5.759c5.359-3.738 9.482-9.033 11.829-15.192a33.272 33.272 0 001.325-19.321 32.887 32.887 0 00-9.642-16.707c-.13-.155-.239-.233-.239-.211l-.228-.189-.119-.1-.131-.122-2.334-1.878a2.225 2.225 0 00-.445-.4 31.992 31.992 0 00-16.385-5.762c-5.876-.369-11.74.9-16.959 3.669a32.539 32.539 0 00-12.655 12.044 33.23 33.23 0 00-4.71 16.953h.011zm48.3-17.53a24.082 24.082 0 017.019 12.202 24.365 24.365 0 01-.956 14.101 23.955 23.955 0 01-8.601 11.112 23.382 23.382 0 01-13.263 4.272l-.512-.002c-6.188-.182-12.059-2.821-16.354-7.35-4.294-4.529-6.67-10.587-6.62-16.876.052-6.288 2.527-12.307 6.895-16.764 4.368-4.458 10.281-7 16.471-7.08a23.182 23.182 0 0113.228 4.207l2.454 2 .228.155.011.023zM32.701 369.558l.374-102.961a19.247 19.247 0 00-5.654-13.639 19.448 19.448 0 00-13.686-5.681l-26.821-.096a19.405 19.405 0 00-7.693 1.572 19.312 19.312 0 00-6.428 4.488l-.118.126a20.82 20.82 0 00-4.125 6.843l-.138.32a19.045 19.045 0 00-.93 5.825l-.127 35.278a41.37 41.37 0 01-8.036 24.354 41.72 41.72 0 01-20.881 15.018 3.909 3.909 0 00-1.768 1.137 3.878 3.878 0 00-.918 1.884 1.7 1.7 0 00-.001.311l-.002.379a4.003 4.003 0 001.425 3.065l45.659 36.626a19.51 19.51 0 0012.188 4.317l18.2.065c2.548.01 5.074-.479 7.432-1.44a19.41 19.41 0 006.313-4.161 19.297 19.297 0 004.23-6.248 19.21 19.21 0 001.505-7.382zM4.607 254.947l9.1.032a11.63 11.63 0 018.182 3.392 11.51 11.51 0 013.385 8.15L24.9 369.53a11.52 11.52 0 01-3.44 8.135 11.64 11.64 0 01-8.21 3.343l-18.22-.064a11.986 11.986 0 01-7.294-2.629l-40.528-32.5a49.356 49.356 0 0020.349-18.105 49.001 49.001 0 007.59-26.088c0-.398.002-.758.004-1.205.012-.171.013-.343.001-.514l.122-33.56c.012-1.114.177-2.221.49-3.291a13.429 13.429 0 012.702-4.536 11.486 11.486 0 018.42-3.632l16.764.06c.138.028.279.045.42.05.18.003.36-.013.537-.047z"/><path d="M32.701 369.558l.374-102.961a19.247 19.247 0 00-5.654-13.639 19.448 19.448 0 00-13.686-5.681l-26.821-.096a19.405 19.405 0 00-7.693 1.572 19.312 19.312 0 00-6.428 4.488l-.118.126a20.82 20.82 0 00-4.125 6.843l-.138.32a19.045 19.045 0 00-.93 5.825l-.127 35.278a41.37 41.37 0 01-8.036 24.354 41.72 41.72 0 01-20.881 15.018 3.909 3.909 0 00-1.768 1.137 3.878 3.878 0 00-.918 1.884 1.7 1.7 0 00-.001.311l-.002.379a4.003 4.003 0 001.425 3.065l45.659 36.626a19.51 19.51 0 0012.188 4.317l18.2.065c2.548.01 5.074-.479 7.432-1.44a19.41 19.41 0 006.313-4.161 19.297 19.297 0 004.23-6.248 19.21 19.21 0 001.505-7.382zM4.607 254.947l9.1.032a11.63 11.63 0 018.182 3.392 11.51 11.51 0 013.385 8.15L24.9 369.53a11.52 11.52 0 01-3.44 8.135 11.64 11.64 0 01-8.21 3.343l-18.22-.064a11.986 11.986 0 01-7.294-2.629l-40.528-32.5a49.356 49.356 0 0020.349-18.105 49.001 49.001 0 007.59-26.088c0-.398.002-.758.004-1.205.012-.171.013-.343.001-.514l.122-33.56c.012-1.114.177-2.221.49-3.291a13.429 13.429 0 012.702-4.536 11.486 11.486 0 018.42-3.632l16.764.06c.138.028.279.045.42.05.18.003.36-.013.537-.047z"/></g></svg>