<svg width="317" height="417" fill="none" xmlns="http://www.w3.org/2000/svg"><path d="M203.324 415.522l-186.476-49.36c-11.474-2.991-18.359-14.758-15.266-26.325L87.387 16.453c2.993-11.467 14.767-18.348 26.34-15.256l186.476 49.36c11.474 3.091 18.358 14.758 15.266 26.325l-85.805 323.384c-3.093 11.467-14.867 18.248-26.34 15.256z" fill="#7978C7"/><path d="M191.85 388.1L40.594 348.014c-11.474-3.091-18.359-14.758-15.266-26.325l75.728-285.491c3.093-11.468 14.767-18.348 26.34-15.257l151.157 40.086c11.473 2.992 18.358 14.758 15.265 26.326L218.09 372.844c-2.993 11.467-14.766 18.248-26.24 15.256z" fill="#fff"/><path d="M88.861 377.493l2.583-9.735 46.484 12.319-2.582 9.735-46.485-12.319z" fill="#2E2E79"/><path d="M123.206 48.662l-5.986 2.593 3.492 5.684-1.098 3.29-6.186-10.071 10.875-4.786-1.097 3.29z" fill="#5752B7"/><path d="M131.22 57.852l1.414-5.3 131.876 35.14-1.414 5.3-131.876-35.14z" fill="#C1C1F9"/><path d="M212.303 69.703c.499 9.473-6.685 17.65-16.163 18.148-9.479.499-17.66-6.68-18.159-16.154-.499-9.473 6.685-17.65 16.163-18.149 9.479-.498 17.56 6.681 18.159 16.155z" fill="#2E2E79"/><path d="M164.212 139.206c-2.294 6.481-1.297 13.462 1.996 19.445 3.392 5.983 9.179 10.968 16.562 13.561l21.252 7.379a25.644 25.644 0 003.193 10.371c3.392 5.983 9.179 10.969 16.562 13.561l5.487 1.895c-3.093-2.393-5.587-5.285-7.383-8.476-2.095-3.789-3.292-7.977-3.292-12.265l2.993 1.097c14.866 5.185 30.63-1.197 35.12-14.16.798-2.393 1.197-4.787 1.197-7.18 0-.598 0-1.196-.1-1.894a25.642 25.642 0 00-3.192-10.371c-3.393-5.983-9.179-10.969-16.563-13.562l-38.911-13.561c-14.567-5.186-30.331 1.097-34.921 14.16z" fill="#C1C1F9"/><path d="M182.465 150.943l5.626-17.152 23.798 7.796-5.625 17.152-23.799-7.796z" fill="#7978C7"/><path clip-rule="evenodd" d="M184.099 150.464l4.972-15.162 21.049 6.896-4.973 15.161-21.048-6.895z" stroke="#fff" stroke-width=".607"/><path d="M187.557 146.456l.445-.226 2.21 4.359-.445.225-2.21-4.358z" fill="#fff"/><path d="M186.264 149.254l4.359-2.211.226.445-4.359 2.211-.226-.445z" fill="#fff"/><path d="M199.732 139.604l.698 4.587 4.091 1.995-4.191 2.094-.598 4.487-3.293-3.29-4.49.797 2.095-4.088-2.095-4.089 4.59.798 3.193-3.291z" fill="#E29F7B"/><path d="M180.278 157.252l.837-2.664 48.835 15.326-.837 2.664-48.835-15.326zm-1.576 5.076l.837-2.664 48.834 15.326-.837 2.664-48.834-15.326z" fill="#D5D3F4"/><path d="M129.292 242.114c-1.995 6.282-.399 12.963 3.692 18.747 4.09 5.783 10.775 10.67 18.957 13.262l21.351 6.482c.798 4.088 2.594 8.077 5.288 11.866 4.989 6.881 13.07 12.764 22.848 16.055l7.284 2.393c-4.191-2.892-7.783-6.183-10.377-9.872-3.193-4.388-5.188-9.174-5.587-13.961l2.394.698c16.463 5.186 33.025-.698 37.016-13.162.699-2.294.998-4.587.798-6.881 0-.598-.099-1.196-.199-1.795-.599-3.49-1.996-6.88-4.29-10.071-4.091-5.784-10.776-10.67-18.957-13.262l-43.102-13.662c-16.662-5.185-33.225.698-37.116 13.163z" fill="#C1C1F9"/><path d="M146.612 234.532l.837-2.663 28.746 9.025-.838 2.664-28.745-9.026zm-1.666 5.005l.837-2.664 28.745 9.025-.837 2.664-28.745-9.025zm-.775 3.661l.837-2.663 28.748 9.022-.837 2.664-28.748-9.023zm-1.693 5.199l.837-2.664 39.886 12.518-.837 2.663-39.886-12.517zm-1.522 4.838l.837-2.664 52.928 16.611-.837 2.664-52.928-16.611zm-1.676 5.48l.837-2.664 52.928 16.611-.837 2.664-52.928-16.611z" fill="#D5D3F4"/><path d="M180.076 245.105l-1.197.2.1-.598 1.397-.2.598.2-1.995 5.484-.699-.299 1.796-4.787zm1.397 4.986c.2.2.599.599 1.098.798.998.399 1.496-.1 1.596-.598.3-.798-.299-1.396-.998-1.596l-.399-.199.2-.598.399.199c.499.199 1.297.199 1.596-.499.2-.398 0-.897-.698-1.196-.399-.2-.898-.1-1.197 0v-.598c.399-.1.997-.1 1.596.099 1.098.399 1.297 1.197 1.098 1.895-.2.598-.699.897-1.497.897.599.399.998 1.097.698 1.895-.299.897-1.297 1.396-2.594.897-.598-.199-1.097-.598-1.297-.897l.399-.499z" fill="#5752B7"/><path fill-rule="evenodd" clip-rule="evenodd" d="M185.764 251.188c.299-.698.798-.997 1.596-1.097-.499-.498-.599-1.097-.399-1.495.299-.898 1.297-1.197 2.195-.798 1.097.399 1.297 1.196 1.097 1.894-.199.499-.598.898-1.396.898.598.499.798 1.197.598 1.795-.399.997-1.397 1.296-2.394.897-1.198-.399-1.597-1.296-1.297-2.094zm2.893 1.097c.2-.698-.1-1.196-.798-1.595-.698-.1-1.197.199-1.397.797-.199.499 0 1.197.699 1.396.798.2 1.297-.099 1.496-.598zm-.299-2.094c-.599-.399-.898-.897-.699-1.396.2-.499.699-.798 1.297-.499.699.2.799.798.599 1.197-.199.499-.698.698-1.197.698z" fill="#5752B7"/><path d="M192.448 252.883c0 .1.1.1.1.2.299.399.798.798 1.397 1.097.199.1.399.199.598.399.2.199.399.498.499.797.1.3.1.599 0 .898-.1.199-.199.399-.299.498-.2.2-.499.3-.798.399-.3 0-.699 0-.998-.099-.2-.1-.399-.2-.599-.399a2.189 2.189 0 01-.499-.798 1.392 1.392 0 010-.897l-.598-.2-.599-.199c-.1.299-.199.698-.199.997 0 .498.199.997.598 1.496.399.498.798.797 1.397 1.097.399.199.798.199 1.197.299.599 0 1.098-.1 1.597-.399.499-.299.798-.698.997-1.197.1-.299.2-.698.2-.997 0-.499-.2-.897-.499-1.296 0-.1-.1-.1-.1-.2-.299-.399-.798-.797-1.396-1.097-.2-.099-.4-.199-.599-.399a2.163 2.163 0 01-.499-.797c-.1-.299-.1-.599 0-.898.1-.199.2-.399.299-.498.2-.2.499-.299.799-.399.299 0 .698 0 .997.1.2.099.399.199.599.398.199.2.399.499.499.798.1.299.1.598 0 .898l1.197.498c.1-.299.2-.698.2-.997 0-.499-.2-.997-.599-1.496-.299-.399-.798-.797-1.397-1.097-.399-.199-.798-.199-1.197-.299-.599 0-1.098.1-1.596.399-.499.299-.799.698-.998 1.197-.1.299-.2.698-.2.997.1.299.3.798.499 1.196z" fill="#5752B7"/><path d="M191.614 259.213l4.474-10.992.647.263-4.474 10.992-.647-.263zm4.526 17.603l.499-1.397 1.496-.598c2.195-.897 3.392-1.396 3.692-2.293.199-.599 0-1.197-.898-1.496-.699-.299-1.497-.1-1.996 0v-1.895c.798-.199 1.996-.299 3.193.2 1.995.698 2.694 2.193 2.095 3.789-.499 1.296-1.796 2.094-3.093 2.493l-1.097.299 2.893 1.097-.698 1.895-6.086-2.094z" fill="#5752B7"/><path fill-rule="evenodd" clip-rule="evenodd" d="M206.616 280.804c2.295.798 3.991-.698 4.889-3.191.798-2.194.698-4.687-1.696-5.484-2.395-.798-4.091.897-4.889 3.191-.798 2.193-.699 4.587 1.696 5.484zm.698-1.795c-.698-.299-.798-1.196-.099-2.991.698-1.795 1.297-2.394 1.995-2.094.599.199.599 1.097 0 2.891-.698 1.795-1.297 2.394-1.896 2.194zm9.379-6.88c-.499 1.296-1.596 1.695-2.594 1.396-.998-.399-1.596-1.396-1.097-2.593.399-1.097 1.396-1.795 2.594-1.296 1.097.399 1.397 1.496 1.097 2.493zm-2.494-.798c-.2.598-.2 1.097.199 1.197.399.099.699-.2.898-.798.2-.598.2-1.097-.199-1.197-.3-.199-.699.2-.898.798zm4.989-.299l-5.987 5.185.898.299 5.986-5.185-.897-.299zm1.297 5.484c-.499 1.297-1.597 1.696-2.595 1.396-.997-.399-1.596-1.396-1.097-2.592.399-1.097 1.397-1.695 2.594-1.297 1.098.3 1.497 1.396 1.098 2.493zm-2.295.399c-.399-.1-.399-.598-.2-1.196.3-.599.599-.998.898-.798.399.1.399.598.2 1.196-.2.599-.499.898-.898.798z" fill="#5752B7"/><path d="M176.584 203.822c-1.796 6.582-6.884 11.568-13.569 14.36-6.685 2.792-14.966 3.39-23.247.997l-23.746-6.681c-2.394 2.692-5.587 4.886-9.179 6.382-6.685 2.792-14.966 3.29-23.247.997l-6.186-1.695c4.19-.1 8.281-.998 11.773-2.394 4.29-1.794 7.782-4.487 10.377-7.877l-3.393-.898c-16.662-4.686-27.138-19.046-23.446-32.208a20.701 20.701 0 013.192-6.482l1.198-1.496c2.394-2.692 5.587-4.886 9.179-6.382 6.684-2.792 14.966-3.39 23.247-.997l43.601 12.166c16.662 4.587 27.138 19.046 23.446 32.208zm4.989-96.327c-1.497 5.285-5.288 9.374-10.377 11.667-4.988 2.294-11.174 2.892-17.36 1.197l-17.66-4.886c-1.796 2.194-4.19 3.989-6.984 5.285-4.989 2.293-11.175 2.892-17.361 1.196l-4.589-1.296c3.193-.199 6.186-.897 8.78-2.194 3.193-1.495 5.886-3.689 7.882-6.481l-2.494-.698c-12.372-3.49-19.955-14.858-16.962-25.428.499-1.895 1.397-3.69 2.495-5.285l.897-1.197c1.796-2.194 4.191-3.989 6.985-5.285 4.988-2.293 11.174-2.892 17.36-1.197l32.327 8.975c12.471 3.69 20.054 15.057 17.061 25.627z" fill="#C1C1F9"/><path d="M116.122 196.942l-28.735-8.975.798-1.894 28.735 8.974-.798 1.895zm-30.228-3.971l.837-2.664 39.886 12.518-.837 2.663-39.886-12.517zm57.765 1.478l-52.88-16.553.799-3.39 52.979 16.652-.898 3.291zm-54.428-11.361l.837-2.664 52.928 16.61-.837 2.664-52.928-16.61z" fill="#D5D3F4"/><path d="M95.469 164.534l-.599 2.094 2.495.798.598-2.194.699.199-1.497 5.186-.698-.2.698-2.393-2.494-.798-.699 2.493-.698-.199 1.496-5.186.699.2z" fill="#5752B7"/><path fill-rule="evenodd" clip-rule="evenodd" d="M100.358 171.514c1.297.399 2.694-.199 3.193-1.994.399-1.496-.2-2.792-1.597-3.291-1.397-.399-2.694.399-3.192 1.994-.4 1.596.2 2.892 1.596 3.291zm.199-.399c-1.097-.299-1.396-1.496-1.097-2.592.3-1.197 1.197-1.995 2.394-1.696 1.098.3 1.298 1.596.998 2.593-.399 1.197-1.197 1.994-2.295 1.695z" fill="#5752B7"/><path d="M104.448 172.711l.2-5.585.698.2-.1 2.792c0 .698-.099 1.396-.099 1.895.199-.499.598-1.097.898-1.696l1.396-2.393.699.2-.1 2.792c0 .698-.1 1.296-.1 1.894.3-.498.599-1.097.898-1.695l1.397-2.393.698.199-2.993 4.787-.698-.2.1-2.891c0-.698.099-1.197.099-1.795-.199.498-.498.997-.898 1.595l-1.496 2.493-.599-.199zm12.273 1.097c.199-.698.399-1.596.598-2.294-.399.598-.798 1.097-1.197 1.795l-1.596 2.293-.499-.099-.1-2.693c0-.797-.1-1.495 0-2.193-.2.598-.499 1.495-.798 2.293l-.798 2.194-.599-.2 1.896-5.085.898.199.199 2.792v1.895c.299-.499.599-.997.998-1.595l1.596-2.194.898.199-1.197 5.285-.699-.199.4-2.393zm3.392-2.194l-.898 3.091c-.3 1.196 0 1.795.698 1.994.798.2 1.397-.1 1.696-1.296l.898-3.091.699.199-.898 2.992c-.499 1.595-1.497 1.994-2.595 1.695-1.097-.299-1.696-1.097-1.197-2.792l.898-3.092.699.3zm6.485 7.279c-.299.1-.798 0-1.397-.1-1.496-.398-2.295-1.695-1.796-3.39.499-1.595 1.896-2.393 3.492-1.895.599.2.998.399 1.198.599l-.3.498c-.199-.199-.598-.399-.997-.498-1.198-.299-2.195.199-2.595 1.595-.399 1.297.1 2.294 1.397 2.693.399.099.799.199 1.198.099l-.2.399zm2.893-4.587l-.598 2.194 2.494.698.599-2.194.698.2-1.497 5.185-.698-.2.698-2.393-2.494-.798-.698 2.493-.599-.199 1.497-5.185.598.199z" fill="#5752B7"/><path fill-rule="evenodd" clip-rule="evenodd" d="M134.879 179.691v.199l.699.1.1-.199c.099-.399.299-.698.798-.998.399-.299.798-.598.997-1.096.1-.599-.099-1.197-.997-1.496-.399-.1-.898-.1-1.198 0v.498c.2-.099.499-.099.799 0 .399.2.598.499.499.898-.1.299-.3.598-.799.897-.598.399-.798.798-.898 1.197zm.2.798c-.299 0-.499.099-.599.398-.099.3 0 .499.3.499.299.1.498 0 .598-.299.1-.299 0-.499-.299-.598z" fill="#5752B7"/><path d="M151.342 302.243c-1.896 6.682-6.884 11.767-13.569 14.559-6.685 2.892-14.966 3.391-23.247 1.097l-23.746-6.681c-2.395 2.792-5.588 4.986-9.18 6.482-6.684 2.792-14.965 3.39-23.246 1.097l-6.187-1.696c4.191-.099 8.282-.997 11.774-2.493 4.29-1.794 7.882-4.487 10.376-7.977l-3.392-.897c-16.662-4.687-27.138-19.246-23.347-32.508.698-2.394 1.796-4.587 3.193-6.582l1.197-1.495c2.395-2.793 5.587-4.986 9.18-6.482 6.684-2.892 14.965-3.39 23.246-1.097l43.601 12.166c16.562 4.686 27.039 19.245 23.347 32.507z" fill="#C1C1F9"/><path d="M59.277 283.706l.837-2.664 28.748 9.022-.837 2.664-28.748-9.022zm-1.71 5.304l.837-2.664 39.886 12.518-.837 2.664-39.886-12.518zm3.371-10.579l.837-2.664 52.928 16.61-.837 2.664-52.928-16.61z" fill="#D5D3F4"/><path fill-rule="evenodd" clip-rule="evenodd" d="M65.736 275.42c2.295.698 4.69-.3 5.687-3.391.799-2.692-.1-4.986-2.594-5.783-2.394-.698-4.789.598-5.687 3.39-.798 2.692.2 4.986 2.594 5.784zm.4-.998c-1.796-.498-2.295-2.592-1.697-4.487.599-1.994 2.195-3.39 4.09-2.792 1.897.598 2.296 2.692 1.697 4.487-.698 1.995-2.295 3.391-4.09 2.792z" fill="#5752B7"/><path d="M74.317 268.14l1.197.399-1.396 4.288c.299-.299.698-.499.997-.698l3.792-2.493 1.397.498-4.49 2.793 1.796 6.282-1.397-.399-1.497-5.285-1.197.698-1.098 3.39-1.197-.399 3.093-9.074zm47.392-186.571l-.798 2.892 3.293.897.798-2.892.998.3-2.096 6.88-.898-.2.998-3.29-3.392-.898-.898 3.191-.898-.299 1.995-6.88.898.299zm3.807 8.717l1.999-6.896.863.25-1.999 6.895-.863-.25z" fill="#5752B7"/><path d="M148.049 104.005l-31.728-9.971.699-2.693 31.728 9.972-.699 2.692zm-32.919-5.699l.658-2.093 31.699 9.949-.658 2.093-31.699-9.949z" fill="#D5D3F4"/><path d="M213.044 69.574a17.147 17.147 0 00-5.176-10.833 16.846 16.846 0 00-1.439-1.271 16.24 16.24 0 00-5.052-2.706 17.315 17.315 0 00-1.852-.582c-3.742-1.032-7.874-.475-11.461.932a19.89 19.89 0 00-1.743.851 19.61 19.61 0 00-5.923 4.988c-.482.611-.923 1.25-1.32 1.918a14.274 14.274 0 00-1.539 3.41c-.935 3.111-1.071 5.798-.084 8.874l-3.153 3.839 5.191.694c.486.792.802 1.166 1.431 1.873 3.533 3.95 8.518 6.098 13.647 6.529 2.148.177 4.319.023 6.427-.497a15.211 15.211 0 003.264-1.252c3.057-1.597 5.46-4.173 6.966-7.248.357-.733.665-1.49.922-2.263.775-2.321 1.104-4.793.894-7.256z" fill="#A3A3DB" opacity=".32"/><path d="M187.285 77.068a10.344 10.344 0 01-2.043-1.376c.109.09.05.043.024.02l-.113-.101a11.23 11.23 0 01-.645-.634 11.444 11.444 0 01-.938-1.146c-.027-.038-.054-.074-.079-.112-.008-.011-.06-.088-.012-.016l-.026-.038a11.491 11.491 0 01-.873-1.557 10.471 10.471 0 01-.336-.811l-.029-.077.006.015-.053-.155a8.808 8.808 0 01-.321-1.235 7.486 7.486 0 01-.081-.585c-.003-.032-.011-.067-.009-.098-.009.133.001.016-.001-.02a8.024 8.024 0 01-.015-.806 7.35 7.35 0 01.068-.797c.01-.07.024-.139.036-.208a.586.586 0 01.001-.009l.02-.104c.028-.15.059-.302.089-.452.028-.133.035-.25-.029-.376a.5.5 0 00-.287-.244c-.233-.065-.565.045-.62.316-.11.54-.22 1.08-.253 1.632a8.514 8.514 0 00.056 1.539c.109.897.384 1.768.736 2.598a11.534 11.534 0 002.859 4.038 10.785 10.785 0 002.324 1.624c.121.062.238.1.376.07a.5.5 0 00.306-.21c.125-.211.106-.56-.138-.685zm11.863 8.41a17.673 17.673 0 01.15.393l.021.06c.217.623.397 1.26.501 1.91.315-.047.617-.095.945-.192a10.805 10.805 0 00-.382-1.61 24.004 24.004 0 00-.919-2.314c-.363-.815-.743-1.625-1.061-2.459-.042-.11-.177-.208-.285-.243a.498.498 0 00-.373.03.495.495 0 00-.243.284.564.564 0 00.029.373c.278.728.601 1.436.92 2.146.162.36.323.722.478 1.086.074.178.147.356.219.536z" fill="#fff"/><circle cx="197.792" cy="81.368" transform="rotate(-64.906 197.792 81.368)" fill="#EBFAFC" r="1.531"/><path d="M194.616 75.147l-1.235-.4a.157.157 0 00-.196.099l-.799 2.461a.155.155 0 00.1.196l1.234.402a.156.156 0 00.196-.1l.8-2.462a.156.156 0 00-.1-.196z" fill="#fff"/><circle cx="187.22" cy="77.932" transform="rotate(18 187.22 77.932)" fill="#EBFAFC" r="1.531"/><path d="M194.616 75.147l-.514-.167c.05.017.072.097.045.178l-.8 2.462c-.026.081-.089.134-.141.117l.514.168a.157.157 0 00.197-.1l.799-2.462a.155.155 0 00-.1-.196z" fill="#EBFAFC"/><path d="M197.989 81.667c.015.066.03.13.042.195-.012-.065-.027-.13-.042-.195zm-.048-.217zm-.118-.43zm.064.215c.018.064.033.129.049.192a4.342 4.342 0 00-.049-.192zm-.217-.645zm-.089-.215zm.169.428zm.278 1.08zm.076.864zm-.012.525zm-.009.118c.013.069.027.138.037.207-.01-.069-.024-.138-.037-.207zm.015-.213l.064.125-.064-.126zm-.037.425l.064.126-.064-.126zm.036-1.069zm-.015-.216zm-.023-.217zm.046.862zm-.689-2.934zm-1.125-1.592l.072.128-.072-.128zm-.093-.097l.075.13-.075-.13zm1.85 5.357c.024.043.041.084.065.126-.024-.042-.041-.083-.065-.126zm-1.671-5.168l.071.128-.071-.128zm.983 1.395c.023.042.044.084.065.126a2.292 2.292 0 00-.065-.126zm-1.849-2.198zm-.208-.155zm-.217-.15zm1.383 1.212c.054.061.107.124.158.187-.053-.063-.105-.126-.158-.187zm-.652-.654zm.195.178zm.936 1.091c.022.043.044.084.064.126-.02-.042-.042-.084-.064-.126zm.079.116zm.206.329l.064.126a2.919 2.919 0 01-.064-.126zm-.596-.86c.021.041.044.083.065.126l-.065-.126zm.659.971l.064.127c-.021-.044-.043-.085-.064-.127zm-.58-.872l.065.126-.065-.126zm.162.215c.022.042.044.083.064.126-.022-.041-.042-.084-.064-.126zm-.081-.108l.064.126c-.02-.044-.042-.084-.064-.126zm.369.544l.064.126a1.84 1.84 0 00-.064-.126zm.786 4.649zm-1.192 2.6c-.35.48-.76.923-1.218 1.316h.001a7.721 7.721 0 001.272-1.393l-.055.077zm.343-.421c-.048.05-.101.098-.152.145.053-.048.104-.096.152-.145zm.686-1.337a.732.732 0 01-.134.155c.047-.05.096-.101.134-.155zm-.218-4.723c-.015-.03-.028-.063-.043-.094l-.05-.104.05.104.043.095zm-.59 6.24c-.05.049-.101.096-.152.144.053-.047.103-.096.152-.145zm.857-1.726zm-3.938 3.159c.24-.186.466-.386.677-.599a7.412 7.412 0 001.095-1.415c.924-1.54 1.311-3.403.99-5.172a6.547 6.547 0 00-.218-.896 5.816 5.816 0 00-.343-.894 6.214 6.214 0 00-1.349-1.833 6.076 6.076 0 01-1.309-.558 4.922 4.922 0 00-.281-.094c-1.683-.513-3.613-.245-5.138.606-2.848 1.588-3.782 4.901-2.953 7.857 2.671 1.652 5.713 2.644 8.829 2.998zm4.01-3.583c.009.07.019.139.018.205a.728.728 0 00-.018-.204zm-.473 1.413zm.1-.191c-.049.05-.101.1-.154.149.057-.047.105-.098.154-.149zm.494-1.849zm-.811 2.414c-.05.05-.099.099-.153.147.054-.048.103-.098.153-.147zm.66-1.572a.604.604 0 01-.04.186c.02-.06.03-.124.04-.186zm-.249.815a1.503 1.503 0 01-.154.148l.154-.148zm.365-1.447c.017.072.029.142.037.21-.007-.069-.025-.14-.037-.21zm-.665 2.018zm.388-.767z" fill="#fff"/><path d="M196.945 79.257c.022.028.035.053.057.082-.022-.028-.035-.054-.057-.082zm-.55-.683c.01.004.016.016.016.016s-.009-.003-.016-.016zm.471.564l.067.116c-.019-.048-.044-.078-.067-.116zm.371 7.07c-.02.03-.049.053-.069.083.03-.027.05-.057.069-.083zm.105-.188c-.02.031-.05.058-.068.084a.43.43 0 00.068-.083zm-.328-6.677l.064.126c-.018-.032-.037-.082-.064-.126zm-1.697-1.729c.009.004.016.016.025.02-.009-.004-.016-.016-.025-.02zm1.91 2.076c.02.038.042.066.061.104-.022-.029-.041-.066-.061-.104zm-.074-.13c.019.044.045.083.064.127-.019-.044-.04-.08-.064-.126zm-.699-.927c.028.03.048.058.073.098-.016-.037-.045-.067-.073-.098zm-.163-.17l.048.048c-.009-.004-.022-.029-.048-.047zm.333.364zm-.802-.813a.162.162 0 00.042.035.08.08 0 01-.042-.035zm.374.348c.016.016.041.035.054.06-.013-.025-.038-.044-.054-.06zm.7 8.394l-.088.076.088-.076zm.122-.179l-.087.077.087-.077zm.112-.183c-.03.027-.049.053-.079.08.03-.027.059-.05.079-.08zm-.401-7.43c.006.013.022.029.028.041-.006-.012-.012-.025-.028-.04zm.055.068zm-.779-.855a.3.3 0 01.063.062c-.016-.015-.041-.034-.063-.062zm2.104 4.335c.019.04.026.081.036.117-.01-.036-.028-.075-.036-.117zm-.163 1.916c-.011.033-.012.07-.021.098.011-.033.01-.065.021-.098zm.176-1.483c.008.04.018.074.026.113a1.498 1.498 0 00-.026-.113zm-.005-.217c.01.037.027.081.036.117-.019-.04-.026-.08-.036-.117zm-.028-.433c.018.04.026.08.045.12-.019-.04-.038-.079-.045-.12zm-.065-.435c.019.039.038.078.065.125a.631.631 0 01-.065-.126zm-.134 2.773c-.01.033-.021.066-.021.098 0-.032.011-.065.021-.098zm.17-2.556c.019.04.036.084.055.123a2.044 2.044 0 01-.055-.123zm.045 1.296c.009.04.009.071.017.11-.008-.039-.008-.07-.017-.11zm-.016.214c-.001.036.009.071.007.107-.008-.04-.007-.076-.007-.107zm-.024.213l-.003.104.003-.104zm-.074.42c-.001.036-.012.07-.012.1.002-.036.011-.064.012-.1zm.129-1.06c.008.039.018.074.017.11-.009-.04-.018-.074-.017-.11zm-.091.849zm-.591 1.82l-.06.086.06-.086zm.029-5.699c.022.04.042.085.064.125a1.498 1.498 0 00-.064-.126z" fill="#EBFAFC"/><path d="M197.41 80.014c.019.038.048.078.064.126a.462.462 0 01-.064-.126zm.16.336c.021.045.044.083.065.127-.021-.044-.044-.082-.065-.126zm-.038 5.286l-.059.086c.018-.025.039-.055.059-.086zm-.248-5.852zm.331 5.656c-.02.03-.031.064-.05.09a.325.325 0 01.05-.09zm-.265-5.538l.064.126c-.016-.043-.041-.08-.064-.126zm.634 1.742c.019.04.047.082.065.126-.018-.044-.046-.087-.065-.126zm-.217 3.397c-.011.034-.021.067-.04.092.02-.03.029-.058.04-.092zm.169-3.614c.024.043.04.083.064.126-.015-.04-.04-.083-.064-.126zm-.056-.216l.064.126-.064-.126zm-.137-.431c.025.046.044.089.064.126-.018-.043-.046-.083-.064-.126zm-.082-.215l.064.126c-.023-.044-.039-.087-.064-.126zm.154.43zm-.123 4.246c-.01.033-.031.064-.04.092.011-.033.02-.062.04-.092z" fill="#EBFAFC"/><path d="M196.138 79.07c.441 1.025.679 2.157.631 3.277a7.86 7.86 0 01-.665 2.832 7.685 7.685 0 01-1.527 2.245 7.01 7.01 0 01-.677.6 21.654 21.654 0 001.64.123 7.66 7.66 0 001.274-1.395l.014-.02.108-.158.014-.02c.036-.054.07-.107.103-.162l.013-.02a6.38 6.38 0 00.099-.164l.012-.02c.032-.055.064-.11.094-.167l.012-.02.089-.17a.19.19 0 01.01-.02l.084-.172a5.6 5.6 0 00.088-.194c.721-1.626.7-3.534-.01-5.143a6.031 6.031 0 00-.509-.925c-.552-.852-1.287-1.576-2.169-2.069.271.246.525.51.723.816.212.295.396.612.549.947z" fill="#EBFAFC"/><path d="M183.774 66.442c.044-.389-.202-.678-.603-.681a.711.711 0 00-.213.023 1.26 1.26 0 00-.03-.977 1.468 1.468 0 00-.458-.58 1.427 1.427 0 00-.548-.268c-.673-.168-1.354.159-1.772.708a1.942 1.942 0 00-.237 1.857c.05.122.114.24.193.353.421.581 1.1.91 1.816.897.738-.014 1.758-.499 1.852-1.332z" fill="#fff"/><path d="M183.813 66.304a.571.571 0 00-.233-.433c-.198-.114-.431-.167-.646-.087.207.03.384.217.342.413a.9.9 0 01-.363.569 1.354 1.354 0 01-.191.118 1.605 1.605 0 01-.833.22 1.873 1.873 0 01-1.424-.627 1.721 1.721 0 01-.241-1.865c-.488.462-.607 1.176-.404 1.825.207.632.72 1.024 1.318 1.228.121.04.245.069.371.088a2.2 2.2 0 001.469-.274c.099-.055.196-.119.284-.19.267-.21.473-.488.547-.831.003-.051.005-.102.004-.154zm23.837 1.83a1.702 1.702 0 00-2.162 1.043l-.547 1.568a1.702 1.702 0 001.044 2.162 1.702 1.702 0 002.162-1.043l.547-1.568a1.702 1.702 0 00-1.044-2.162z" fill="#EBFAFC"/><path d="M207.397 64.189c-1.447-3.183-4.423-5.036-7.603-6.067-3.13-1.172-6.613-1.574-9.726.017-4.541 2.328-5.375 8.366-2.688 12.525 2.936 4.542 9.215 6.725 14.325 5.001 4.691-1.582 7.796-6.828 5.692-11.476z" fill="#fff"/><path d="M207.403 64.183c-.944-2.22-2.835-3.945-4.985-4.978 2.3 1.672 4.235 4.15 4.509 7.06.031.302.042.604.035.906a6.733 6.733 0 01-.292 1.802 8.958 8.958 0 01-2.573 4.22 8.321 8.321 0 01-.875.668c-.883.541-1.851.98-2.866 1.303-2.073.664-4.384.855-6.525.388 2.548.864 5.352.964 7.87.114 3.813-1.286 6.577-4.99 6.352-8.827a7.435 7.435 0 00-.323-1.772 7.692 7.692 0 00-.327-.884z" fill="#EBFAFC"/><path d="M187.414 61.07a1.703 1.703 0 00-2.163 1.042l-.547 1.568a1.702 1.702 0 001.044 2.162 1.702 1.702 0 002.162-1.043l.547-1.568a1.704 1.704 0 00-1.043-2.162z" fill="#fff"/><path d="M200.161 65.783l-6.02-1.922a3.463 3.463 0 00-4.34 2.238 3.463 3.463 0 002.239 4.34l6.02 1.922a3.465 3.465 0 004.341-2.238 3.464 3.464 0 00-2.24-4.34z" fill="#280460"/><path d="M194.64 69.074l-.001.002a1.099 1.099 0 002.094.668l.001-.002-2.094-.668z" fill="#fff"/><path fill-rule="evenodd" clip-rule="evenodd" d="M191.718 66.826a1.3 1.3 0 011.636-.844 1.3 1.3 0 11-.792 2.48 1.3 1.3 0 01-.844-1.636zm.358.113a.926.926 0 101.764.563.926.926 0 00-1.764-.563zm5.863 1.874a1.301 1.301 0 112.48.791 1.301 1.301 0 01-2.48-.791zm.358.114a.926.926 0 101.764.562.926.926 0 00-1.764-.563z" fill="#83E8FF"/><path fill-rule="evenodd" clip-rule="evenodd" d="M191.575 66.78a1.3 1.3 0 011.636-.844 1.3 1.3 0 11-.792 2.48 1.3 1.3 0 01-.844-1.636zm.358.113a.926.926 0 101.764.563.926.926 0 00-1.764-.563zm5.863 1.873a1.302 1.302 0 112.481.792 1.302 1.302 0 01-2.481-.792zm.359.114a.925.925 0 101.762.565.925.925 0 00-1.762-.565z" fill="#A122FC" opacity=".31"/><circle cx="192.791" cy="67.083" r=".5" transform="rotate(17.708 192.791 67.083)" fill="#fff"/><circle cx="199.076" cy="69.089" r=".5" transform="rotate(17.708 199.076 69.089)" fill="#fff"/><path d="M200.091 57.397l-.554-.2a.996.996 0 00-1.269.595l-.199.554a.995.995 0 00.595 1.268l.554.2a.996.996 0 001.269-.595l.199-.554a.994.994 0 00-.595-1.268z" fill="#fff"/><path d="M206.411 71.367a9.753 9.753 0 01-2.246 1.557 8.137 8.137 0 01-2.395.752c-.47.069-.946.09-1.42.069-.229-.011-.248.346-.016.357 1.764.085 3.532-.458 4.995-1.435.466-.31.907-.657 1.321-1.034.17-.154-.068-.422-.239-.266z" fill="#280460"/><path d="M207.862 69.139a.767.767 0 00-.963.49l-.539 1.66c-.13.4.092.833.491.962.4.13.834-.091.963-.49l.539-1.66a.765.765 0 00-.491-.962z" fill="#280460"/><path fill-rule="evenodd" clip-rule="evenodd" d="M206.326 71.278a.8.8 0 001.522.495l.539-1.659a.8.8 0 00-1.522-.495l-.539 1.66zm.607-1.638a.73.73 0 011.386.45l-.539 1.66a.73.73 0 01-1.386-.45l.539-1.66z" fill="#280460"/><path d="M200.3 74.662l-1.208-.062a.41.41 0 01-.386-.427l.023-.448a.41.41 0 01.427-.386l1.208.062a.411.411 0 01.387.427l-.024.448a.408.408 0 01-.427.386z" fill="#280460"/><path fill-rule="evenodd" clip-rule="evenodd" d="M198.854 74.426a.66.66 0 00.461.22l.759.04a.664.664 0 00.53-1.113.664.664 0 00-.461-.22l-.759-.04a.667.667 0 00-.53 1.113zm1.284-1.002a.598.598 0 01.412.197.595.595 0 01-.473.993l-.76-.04a.596.596 0 01.062-1.19l.759.04z" fill="#280460"/></svg>