<svg width="320" height="136" viewBox="0 0 320 136" fill="none" xmlns="http://www.w3.org/2000/svg">
<path d="M-51.4842 108.919C-70.6188 112.694 -83 133.621 -83 133.621L416 136.318V14.9615C416 14.9615 376.73 10.4309 367.226 12.5883C357.721 14.7458 329.207 34.7022 316.2 34.7022C303.193 34.7022 282.433 53.6878 270.177 53.6878C257.921 53.6878 242.538 65.1222 233.033 69.0057C223.529 72.8891 204.769 81.6268 192.388 81.6268C180.007 81.6268 174.629 72.2419 161.998 72.2419C149.366 72.2419 126.98 86.1574 114.349 86.1574C101.718 86.1574 86.0847 78.93 74.3288 81.6268C62.5729 84.3236 41.6875 97.2683 31.5574 100.72C21.4273 104.172 8.29574 97.484 -2.58471 97.0525C-13.4652 96.6211 -32.3496 105.143 -51.4842 108.919Z" fill="#F9F9FF"/>
<path d="M9.55288 78.204C10.1129 77.7747 10.7802 77.56 11.5549 77.56C12.5722 77.56 13.3749 77.84 13.9629 78.4C14.5509 78.9507 14.8449 79.7347 14.8449 80.752C14.8449 81.76 14.5182 82.5813 13.8649 83.216C13.2209 83.8507 12.3902 84.168 11.3729 84.168C10.3462 84.168 9.51088 83.86 8.86688 83.244C8.22288 82.628 7.90088 81.83 7.90088 80.85V77.196C7.90088 76.1227 8.22754 75.292 8.88088 74.704C9.53421 74.116 10.3555 73.822 11.3449 73.822C12.4742 73.822 13.4729 74.1533 14.3409 74.816C14.4435 74.9 14.4529 74.998 14.3689 75.11L13.7389 76.006C13.6549 76.118 13.5615 76.132 13.4589 76.048C12.8429 75.5907 12.1429 75.362 11.3589 75.362C10.8362 75.362 10.4022 75.516 10.0569 75.824C9.72088 76.1227 9.55288 76.5567 9.55288 77.126V78.204ZM9.55288 80.85C9.55288 81.382 9.71621 81.8067 10.0429 82.124C10.3789 82.4413 10.8269 82.6 11.3869 82.6C11.9469 82.6 12.3855 82.4367 12.7029 82.11C13.0202 81.7833 13.1789 81.3307 13.1789 80.752C13.1789 79.6133 12.6002 79.044 11.4429 79.044C10.8829 79.044 10.4255 79.184 10.0709 79.464C9.72554 79.7347 9.55288 80.1547 9.55288 80.724V80.85ZM23.1701 80.738C23.1701 81.8767 22.8294 82.7353 22.1481 83.314C21.4761 83.8833 20.6687 84.168 19.7261 84.168C19.1287 84.168 18.5781 84.0607 18.0741 83.846C17.5701 83.622 17.1407 83.244 16.7861 82.712C16.4407 82.1707 16.2681 81.5127 16.2681 80.738V77.196C16.2681 76.076 16.6087 75.236 17.2901 74.676C17.9714 74.1067 18.7834 73.822 19.7261 73.822C20.6687 73.822 21.4761 74.1067 22.1481 74.676C22.8294 75.236 23.1701 76.076 23.1701 77.196V80.738ZM17.9061 80.794C17.9061 81.438 18.0834 81.9 18.4381 82.18C18.7927 82.4507 19.2221 82.586 19.7261 82.586C20.2301 82.586 20.6547 82.4507 21.0001 82.18C21.3547 81.9 21.5321 81.438 21.5321 80.794V77.224C21.5321 76.5707 21.3547 76.104 21.0001 75.824C20.6547 75.544 20.2301 75.404 19.7261 75.404C19.2221 75.404 18.7927 75.544 18.4381 75.824C18.0834 76.104 17.9061 76.5707 17.9061 77.224V80.794ZM31.7833 80.738C31.7833 81.8767 31.4427 82.7353 30.7613 83.314C30.0893 83.8833 29.282 84.168 28.3393 84.168C27.742 84.168 27.1913 84.0607 26.6873 83.846C26.1833 83.622 25.754 83.244 25.3993 82.712C25.054 82.1707 24.8813 81.5127 24.8813 80.738V77.196C24.8813 76.076 25.222 75.236 25.9033 74.676C26.5847 74.1067 27.3967 73.822 28.3393 73.822C29.282 73.822 30.0893 74.1067 30.7613 74.676C31.4427 75.236 31.7833 76.076 31.7833 77.196V80.738ZM26.5193 80.794C26.5193 81.438 26.6967 81.9 27.0513 82.18C27.406 82.4507 27.8353 82.586 28.3393 82.586C28.8433 82.586 29.268 82.4507 29.6133 82.18C29.968 81.9 30.1453 81.438 30.1453 80.794V77.224C30.1453 76.5707 29.968 76.104 29.6133 75.824C29.268 75.544 28.8433 75.404 28.3393 75.404C27.8353 75.404 27.406 75.544 27.0513 75.824C26.6967 76.104 26.5193 76.5707 26.5193 77.224V80.794ZM36.9666 78.134C37.3773 78.2273 37.6993 78.3113 37.9326 78.386C38.1753 78.4513 38.4786 78.568 38.8426 78.736C39.2066 78.8947 39.4866 79.072 39.6826 79.268C39.8786 79.464 40.0513 79.73 40.2006 80.066C40.3593 80.402 40.4386 80.7847 40.4386 81.214C40.4386 82.0633 40.1586 82.7353 39.5986 83.23C39.0386 83.7153 38.3246 84.014 37.4566 84.126V85.204C37.4566 85.344 37.3913 85.414 37.2606 85.414H36.3086C36.1686 85.414 36.0986 85.344 36.0986 85.204V84.14C35.1186 84.0373 34.162 83.594 33.2286 82.81C33.1166 82.7167 33.1073 82.6187 33.2006 82.516L33.8866 81.564C33.9706 81.452 34.064 81.438 34.1666 81.522C35.072 82.194 35.9446 82.544 36.7846 82.572C37.3166 82.572 37.774 82.4553 38.1566 82.222C38.5486 81.9793 38.7446 81.634 38.7446 81.186C38.7446 80.99 38.7026 80.8173 38.6186 80.668C38.5346 80.5187 38.4366 80.3973 38.3246 80.304C38.2126 80.2107 38.04 80.122 37.8066 80.038C37.5826 79.954 37.3866 79.8933 37.2186 79.856C37.06 79.8093 36.8266 79.7533 36.5186 79.688C36.0893 79.5947 35.7113 79.4873 35.3846 79.366C35.058 79.2447 34.7173 79.0767 34.3626 78.862C34.008 78.638 33.7326 78.3487 33.5366 77.994C33.3406 77.63 33.2426 77.2053 33.2426 76.72C33.2426 75.8893 33.504 75.236 34.0266 74.76C34.5493 74.2747 35.24 73.976 36.0986 73.864V72.87C36.0986 72.73 36.1686 72.66 36.3086 72.66H37.2606C37.3913 72.66 37.4566 72.73 37.4566 72.87V73.85C38.334 73.9433 39.216 74.312 40.1026 74.956C40.2146 75.0213 40.2333 75.1147 40.1586 75.236L39.5006 76.188C39.426 76.2907 39.328 76.3047 39.2066 76.23C38.4413 75.7073 37.62 75.432 36.7426 75.404C36.1733 75.404 35.7253 75.5253 35.3986 75.768C35.072 76.0107 34.9086 76.342 34.9086 76.762C34.9086 76.93 34.946 77.084 35.0206 77.224C35.0953 77.3547 35.184 77.462 35.2866 77.546C35.3893 77.63 35.5433 77.714 35.7486 77.798C35.954 77.8727 36.136 77.9333 36.2946 77.98C36.4533 78.0173 36.6773 78.0687 36.9666 78.134Z" fill="#88DDEA"/>
<path d="M62.6996 67.7734H61.4676C61.3276 67.7734 61.2576 67.7034 61.2576 67.5634V59.7234L59.7736 60.7454C59.671 60.8201 59.5776 60.7968 59.4936 60.6754L58.9196 59.7514C58.845 59.6488 58.8636 59.5508 58.9756 59.4574L61.3696 57.8334C61.4256 57.7868 61.5096 57.7634 61.6216 57.7634H62.6996C62.8303 57.7634 62.8956 57.8334 62.8956 57.9734V67.5634C62.8956 67.7034 62.8303 67.7734 62.6996 67.7734ZM71.0283 67.7734H64.7423C64.6117 67.7734 64.5463 67.7034 64.5463 67.5634V66.7234C64.5463 66.6208 64.579 66.5368 64.6443 66.4714L67.4863 63.5174C68.1397 62.8361 68.625 62.2714 68.9423 61.8234C69.2597 61.3661 69.4183 60.9134 69.4183 60.4654C69.4183 60.0921 69.297 59.7794 69.0543 59.5274C68.8117 59.2661 68.443 59.1354 67.9483 59.1354C67.183 59.1354 66.4363 59.5088 65.7083 60.2554C65.615 60.3674 65.5217 60.3628 65.4283 60.2414L64.7703 59.3454C64.6957 59.2521 64.7003 59.1588 64.7843 59.0654C65.6897 58.0854 66.7443 57.5954 67.9483 57.5954C68.8723 57.5954 69.6237 57.8428 70.2023 58.3374C70.7903 58.8321 71.0843 59.5321 71.0843 60.4374C71.0843 61.0441 70.9257 61.6181 70.6083 62.1594C70.3003 62.7008 69.8103 63.3541 69.1383 64.1194C68.569 64.7728 67.8737 65.4868 67.0523 66.2614H71.0283C71.1683 66.2614 71.2383 66.3314 71.2383 66.4714V67.5634C71.2383 67.7034 71.1683 67.7734 71.0283 67.7734ZM79.6456 64.5114C79.6456 65.6501 79.305 66.5088 78.6236 67.0874C77.9516 67.6568 77.1443 67.9414 76.2016 67.9414C75.6043 67.9414 75.0536 67.8341 74.5496 67.6194C74.0456 67.3954 73.6163 67.0174 73.2616 66.4854C72.9163 65.9441 72.7436 65.2861 72.7436 64.5114V60.9694C72.7436 59.8494 73.0843 59.0094 73.7656 58.4494C74.447 57.8801 75.259 57.5954 76.2016 57.5954C77.1443 57.5954 77.9516 57.8801 78.6236 58.4494C79.305 59.0094 79.6456 59.8494 79.6456 60.9694V64.5114ZM74.3816 64.5674C74.3816 65.2114 74.559 65.6734 74.9136 65.9534C75.2683 66.2241 75.6976 66.3594 76.2016 66.3594C76.7056 66.3594 77.1303 66.2241 77.4756 65.9534C77.8303 65.6734 78.0076 65.2114 78.0076 64.5674V60.9974C78.0076 60.3441 77.8303 59.8774 77.4756 59.5974C77.1303 59.3174 76.7056 59.1774 76.2016 59.1774C75.6976 59.1774 75.2683 59.3174 74.9136 59.5974C74.559 59.8774 74.3816 60.3441 74.3816 60.9974V64.5674ZM88.2589 64.5114C88.2589 65.6501 87.9183 66.5088 87.2369 67.0874C86.5649 67.6568 85.7576 67.9414 84.8149 67.9414C84.2176 67.9414 83.6669 67.8341 83.1629 67.6194C82.6589 67.3954 82.2296 67.0174 81.8749 66.4854C81.5296 65.9441 81.3569 65.2861 81.3569 64.5114V60.9694C81.3569 59.8494 81.6976 59.0094 82.3789 58.4494C83.0603 57.8801 83.8723 57.5954 84.8149 57.5954C85.7576 57.5954 86.5649 57.8801 87.2369 58.4494C87.9183 59.0094 88.2589 59.8494 88.2589 60.9694V64.5114ZM82.9949 64.5674C82.9949 65.2114 83.1723 65.6734 83.5269 65.9534C83.8816 66.2241 84.3109 66.3594 84.8149 66.3594C85.3189 66.3594 85.7436 66.2241 86.0889 65.9534C86.4436 65.6734 86.6209 65.2114 86.6209 64.5674V60.9974C86.6209 60.3441 86.4436 59.8774 86.0889 59.5974C85.7436 59.3174 85.3189 59.1774 84.8149 59.1774C84.3109 59.1774 83.8816 59.3174 83.5269 59.5974C83.1723 59.8774 82.9949 60.3441 82.9949 60.9974V64.5674ZM93.4422 61.9074C93.8529 62.0008 94.1749 62.0848 94.4082 62.1594C94.6509 62.2248 94.9542 62.3414 95.3182 62.5094C95.6822 62.6681 95.9622 62.8454 96.1582 63.0414C96.3542 63.2374 96.5269 63.5034 96.6762 63.8394C96.8349 64.1754 96.9142 64.5581 96.9142 64.9874C96.9142 65.8368 96.6342 66.5088 96.0742 67.0034C95.5142 67.4888 94.8002 67.7874 93.9322 67.8994V68.9774C93.9322 69.1174 93.8669 69.1874 93.7362 69.1874H92.7842C92.6442 69.1874 92.5742 69.1174 92.5742 68.9774V67.9134C91.5942 67.8108 90.6375 67.3674 89.7042 66.5834C89.5922 66.4901 89.5829 66.3921 89.6762 66.2894L90.3622 65.3374C90.4462 65.2254 90.5395 65.2114 90.6422 65.2954C91.5475 65.9674 92.4202 66.3174 93.2602 66.3454C93.7922 66.3454 94.2495 66.2288 94.6322 65.9954C95.0242 65.7528 95.2202 65.4074 95.2202 64.9594C95.2202 64.7634 95.1782 64.5908 95.0942 64.4414C95.0102 64.2921 94.9122 64.1708 94.8002 64.0774C94.6882 63.9841 94.5155 63.8954 94.2822 63.8114C94.0582 63.7274 93.8622 63.6668 93.6942 63.6294C93.5355 63.5828 93.3022 63.5268 92.9942 63.4614C92.5649 63.3681 92.1869 63.2608 91.8602 63.1394C91.5335 63.0181 91.1929 62.8501 90.8382 62.6354C90.4835 62.4114 90.2082 62.1221 90.0122 61.7674C89.8162 61.4034 89.7182 60.9788 89.7182 60.4934C89.7182 59.6628 89.9795 59.0094 90.5022 58.5334C91.0249 58.0481 91.7155 57.7494 92.5742 57.6374V56.6434C92.5742 56.5034 92.6442 56.4334 92.7842 56.4334H93.7362C93.8669 56.4334 93.9322 56.5034 93.9322 56.6434V57.6234C94.8095 57.7168 95.6915 58.0854 96.5782 58.7294C96.6902 58.7948 96.7089 58.8881 96.6342 59.0094L95.9762 59.9614C95.9015 60.0641 95.8035 60.0781 95.6822 60.0034C94.9169 59.4808 94.0955 59.2054 93.2182 59.1774C92.6489 59.1774 92.2009 59.2988 91.8742 59.5414C91.5475 59.7841 91.3842 60.1154 91.3842 60.5354C91.3842 60.7034 91.4215 60.8574 91.4962 60.9974C91.5709 61.1281 91.6595 61.2354 91.7622 61.3194C91.8649 61.4034 92.0189 61.4874 92.2242 61.5714C92.4295 61.6461 92.6115 61.7068 92.7702 61.7534C92.9289 61.7908 93.1529 61.8421 93.4422 61.9074Z" fill="#88DDEA"/>
<path d="M148.688 61.7705H147.456C147.316 61.7705 147.246 61.7005 147.246 61.5605V53.7205L145.762 54.7425C145.66 54.8172 145.566 54.7938 145.482 54.6725L144.908 53.7485C144.834 53.6458 144.852 53.5478 144.964 53.4545L147.358 51.8305C147.414 51.7838 147.498 51.7605 147.61 51.7605H148.688C148.819 51.7605 148.884 51.8305 148.884 51.9705V61.5605C148.884 61.7005 148.819 61.7705 148.688 61.7705ZM157.367 58.5785C157.367 59.6052 157.04 60.4218 156.387 61.0285C155.734 61.6352 154.898 61.9385 153.881 61.9385C152.612 61.9385 151.473 61.4998 150.465 60.6225C150.381 60.5292 150.381 60.4312 150.465 60.3285L151.151 59.5305C151.244 59.4372 151.342 59.4372 151.445 59.5305C151.856 59.8292 152.234 60.0485 152.579 60.1885C152.934 60.3285 153.368 60.3985 153.881 60.3985C154.432 60.3985 154.87 60.2398 155.197 59.9225C155.533 59.5958 155.701 59.1338 155.701 58.5365C155.701 57.4072 155.043 56.8425 153.727 56.8425C153.438 56.8425 153.144 56.8752 152.845 56.9405C152.742 56.9685 152.658 56.9265 152.593 56.8145L152.327 56.2405C152.28 56.1378 152.299 56.0398 152.383 55.9465L153.755 54.4485C154.352 53.8138 154.749 53.4218 154.945 53.2725H151.151C151.02 53.2725 150.955 53.2025 150.955 53.0625V51.9705C150.955 51.8305 151.02 51.7605 151.151 51.7605H156.863C156.994 51.7605 157.059 51.8305 157.059 51.9705V52.7825C157.059 52.8665 157.026 52.9505 156.961 53.0345L154.427 55.7225L154.441 55.7505C155.225 55.7318 155.906 55.9792 156.485 56.4925C157.073 56.9965 157.367 57.6918 157.367 58.5785ZM165.744 58.5085C165.744 59.6472 165.403 60.5058 164.722 61.0845C164.05 61.6538 163.242 61.9385 162.3 61.9385C161.702 61.9385 161.152 61.8312 160.648 61.6165C160.144 61.3925 159.714 61.0145 159.36 60.4825C159.014 59.9412 158.842 59.2832 158.842 58.5085V54.9665C158.842 53.8465 159.182 53.0065 159.864 52.4465C160.545 51.8772 161.357 51.5925 162.3 51.5925C163.242 51.5925 164.05 51.8772 164.722 52.4465C165.403 53.0065 165.744 53.8465 165.744 54.9665V58.5085ZM160.48 58.5645C160.48 59.2085 160.657 59.6705 161.012 59.9505C161.366 60.2212 161.796 60.3565 162.3 60.3565C162.804 60.3565 163.228 60.2212 163.574 59.9505C163.928 59.6705 164.106 59.2085 164.106 58.5645V54.9945C164.106 54.3412 163.928 53.8745 163.574 53.5945C163.228 53.3145 162.804 53.1745 162.3 53.1745C161.796 53.1745 161.366 53.3145 161.012 53.5945C160.657 53.8745 160.48 54.3412 160.48 54.9945V58.5645ZM174.357 58.5085C174.357 59.6472 174.016 60.5058 173.335 61.0845C172.663 61.6538 171.856 61.9385 170.913 61.9385C170.316 61.9385 169.765 61.8312 169.261 61.6165C168.757 61.3925 168.328 61.0145 167.973 60.4825C167.628 59.9412 167.455 59.2832 167.455 58.5085V54.9665C167.455 53.8465 167.796 53.0065 168.477 52.4465C169.158 51.8772 169.97 51.5925 170.913 51.5925C171.856 51.5925 172.663 51.8772 173.335 52.4465C174.016 53.0065 174.357 53.8465 174.357 54.9665V58.5085ZM169.093 58.5645C169.093 59.2085 169.27 59.6705 169.625 59.9505C169.98 60.2212 170.409 60.3565 170.913 60.3565C171.417 60.3565 171.842 60.2212 172.187 59.9505C172.542 59.6705 172.719 59.2085 172.719 58.5645V54.9945C172.719 54.3412 172.542 53.8745 172.187 53.5945C171.842 53.3145 171.417 53.1745 170.913 53.1745C170.409 53.1745 169.98 53.3145 169.625 53.5945C169.27 53.8745 169.093 54.3412 169.093 54.9945V58.5645ZM179.54 55.9045C179.951 55.9978 180.273 56.0818 180.506 56.1565C180.749 56.2218 181.052 56.3385 181.416 56.5065C181.78 56.6652 182.06 56.8425 182.256 57.0385C182.452 57.2345 182.625 57.5005 182.774 57.8365C182.933 58.1725 183.012 58.5552 183.012 58.9845C183.012 59.8338 182.732 60.5058 182.172 61.0005C181.612 61.4858 180.898 61.7845 180.03 61.8965V62.9745C180.03 63.1145 179.965 63.1845 179.834 63.1845H178.882C178.742 63.1845 178.672 63.1145 178.672 62.9745V61.9105C177.692 61.8078 176.736 61.3645 175.802 60.5805C175.69 60.4872 175.681 60.3892 175.774 60.2865L176.46 59.3345C176.544 59.2225 176.638 59.2085 176.74 59.2925C177.646 59.9645 178.518 60.3145 179.358 60.3425C179.89 60.3425 180.348 60.2258 180.73 59.9925C181.122 59.7498 181.318 59.4045 181.318 58.9565C181.318 58.7605 181.276 58.5878 181.192 58.4385C181.108 58.2892 181.01 58.1678 180.898 58.0745C180.786 57.9812 180.614 57.8925 180.38 57.8085C180.156 57.7245 179.96 57.6638 179.792 57.6265C179.634 57.5798 179.4 57.5238 179.092 57.4585C178.663 57.3652 178.285 57.2578 177.958 57.1365C177.632 57.0152 177.291 56.8472 176.936 56.6325C176.582 56.4085 176.306 56.1192 176.11 55.7645C175.914 55.4005 175.816 54.9758 175.816 54.4905C175.816 53.6598 176.078 53.0065 176.6 52.5305C177.123 52.0452 177.814 51.7465 178.672 51.6345V50.6405C178.672 50.5005 178.742 50.4305 178.882 50.4305H179.834C179.965 50.4305 180.03 50.5005 180.03 50.6405V51.6205C180.908 51.7138 181.79 52.0825 182.676 52.7265C182.788 52.7918 182.807 52.8852 182.732 53.0065L182.074 53.9585C182 54.0612 181.902 54.0752 181.78 54.0005C181.015 53.4778 180.194 53.2025 179.316 53.1745C178.747 53.1745 178.299 53.2958 177.972 53.5385C177.646 53.7812 177.482 54.1125 177.482 54.5325C177.482 54.7005 177.52 54.8545 177.594 54.9945C177.669 55.1252 177.758 55.2325 177.86 55.3165C177.963 55.4005 178.117 55.4845 178.322 55.5685C178.528 55.6432 178.71 55.7038 178.868 55.7505C179.027 55.7878 179.251 55.8392 179.54 55.9045Z" fill="#88DDEA"/>
<path d="M248.315 41H247.083C246.943 41 246.873 40.93 246.873 40.79V32.95L245.389 33.972C245.286 34.0467 245.193 34.0233 245.109 33.902L244.535 32.978C244.46 32.8753 244.479 32.7773 244.591 32.684L246.985 31.06C247.041 31.0133 247.125 30.99 247.237 30.99H248.315C248.446 30.99 248.511 31.06 248.511 31.2V40.79C248.511 40.93 248.446 41 248.315 41ZM252.43 41H251.002C250.927 41 250.876 40.9767 250.848 40.93C250.82 40.8833 250.824 40.8227 250.862 40.748L254.74 32.572H250.218C250.078 32.572 250.008 32.502 250.008 32.362V31.2C250.008 31.06 250.078 30.99 250.218 30.99H256.63C256.77 30.99 256.84 31.06 256.84 31.2V31.942C256.84 32.0167 256.816 32.1007 256.77 32.194L252.668 40.846C252.63 40.9487 252.551 41 252.43 41ZM264.878 37.738C264.878 38.8767 264.537 39.7353 263.856 40.314C263.184 40.8833 262.377 41.168 261.434 41.168C260.837 41.168 260.286 41.0607 259.782 40.846C259.278 40.622 258.849 40.244 258.494 39.712C258.149 39.1707 257.976 38.5127 257.976 37.738V34.196C257.976 33.076 258.317 32.236 258.998 31.676C259.679 31.1067 260.491 30.822 261.434 30.822C262.377 30.822 263.184 31.1067 263.856 31.676C264.537 32.236 264.878 33.076 264.878 34.196V37.738ZM259.614 37.794C259.614 38.438 259.791 38.9 260.146 39.18C260.501 39.4507 260.93 39.586 261.434 39.586C261.938 39.586 262.363 39.4507 262.708 39.18C263.063 38.9 263.24 38.438 263.24 37.794V34.224C263.24 33.5707 263.063 33.104 262.708 32.824C262.363 32.544 261.938 32.404 261.434 32.404C260.93 32.404 260.501 32.544 260.146 32.824C259.791 33.104 259.614 33.5707 259.614 34.224V37.794ZM273.491 37.738C273.491 38.8767 273.151 39.7353 272.469 40.314C271.797 40.8833 270.99 41.168 270.047 41.168C269.45 41.168 268.899 41.0607 268.395 40.846C267.891 40.622 267.462 40.244 267.107 39.712C266.762 39.1707 266.589 38.5127 266.589 37.738V34.196C266.589 33.076 266.93 32.236 267.611 31.676C268.293 31.1067 269.105 30.822 270.047 30.822C270.99 30.822 271.797 31.1067 272.469 31.676C273.151 32.236 273.491 33.076 273.491 34.196V37.738ZM268.227 37.794C268.227 38.438 268.405 38.9 268.759 39.18C269.114 39.4507 269.543 39.586 270.047 39.586C270.551 39.586 270.976 39.4507 271.321 39.18C271.676 38.9 271.853 38.438 271.853 37.794V34.224C271.853 33.5707 271.676 33.104 271.321 32.824C270.976 32.544 270.551 32.404 270.047 32.404C269.543 32.404 269.114 32.544 268.759 32.824C268.405 33.104 268.227 33.5707 268.227 34.224V37.794ZM278.675 35.134C279.085 35.2273 279.407 35.3113 279.641 35.386C279.883 35.4513 280.187 35.568 280.551 35.736C280.915 35.8947 281.195 36.072 281.391 36.268C281.587 36.464 281.759 36.73 281.909 37.066C282.067 37.402 282.147 37.7847 282.147 38.214C282.147 39.0633 281.867 39.7353 281.307 40.23C280.747 40.7153 280.033 41.014 279.165 41.126V42.204C279.165 42.344 279.099 42.414 278.969 42.414H278.017C277.877 42.414 277.807 42.344 277.807 42.204V41.14C276.827 41.0373 275.87 40.594 274.937 39.81C274.825 39.7167 274.815 39.6187 274.909 39.516L275.595 38.564C275.679 38.452 275.772 38.438 275.875 38.522C276.78 39.194 277.653 39.544 278.493 39.572C279.025 39.572 279.482 39.4553 279.865 39.222C280.257 38.9793 280.453 38.634 280.453 38.186C280.453 37.99 280.411 37.8173 280.327 37.668C280.243 37.5187 280.145 37.3973 280.033 37.304C279.921 37.2107 279.748 37.122 279.515 37.038C279.291 36.954 279.095 36.8933 278.927 36.856C278.768 36.8093 278.535 36.7533 278.227 36.688C277.797 36.5947 277.419 36.4873 277.093 36.366C276.766 36.2447 276.425 36.0767 276.071 35.862C275.716 35.638 275.441 35.3487 275.245 34.994C275.049 34.63 274.951 34.2053 274.951 33.72C274.951 32.8893 275.212 32.236 275.735 31.76C276.257 31.2747 276.948 30.976 277.807 30.864V29.87C277.807 29.73 277.877 29.66 278.017 29.66H278.969C279.099 29.66 279.165 29.73 279.165 29.87V30.85C280.042 30.9433 280.924 31.312 281.811 31.956C281.923 32.0213 281.941 32.1147 281.867 32.236L281.209 33.188C281.134 33.2907 281.036 33.3047 280.915 33.23C280.149 32.7073 279.328 32.432 278.451 32.404C277.881 32.404 277.433 32.5253 277.107 32.768C276.78 33.0107 276.617 33.342 276.617 33.762C276.617 33.93 276.654 34.084 276.729 34.224C276.803 34.3547 276.892 34.462 276.995 34.546C277.097 34.63 277.251 34.714 277.457 34.798C277.662 34.8727 277.844 34.9333 278.003 34.98C278.161 35.0173 278.385 35.0687 278.675 35.134Z" fill="#88DDEA"/>
<path d="M-83 133.567C-83 133.567 -70.6188 112.649 -51.4842 108.875C-32.3496 105.101 -13.4652 96.5831 -2.58471 97.0144C8.29574 97.4457 21.4273 104.131 31.5574 100.68C41.6875 97.23 62.5729 84.2911 74.3288 81.5955C86.0847 78.8999 101.718 86.1241 114.349 86.1241C126.98 86.1241 149.366 72.2148 161.998 72.2148C174.629 72.2148 180.007 81.5955 192.388 81.5955C204.769 81.5955 223.529 72.8617 233.033 68.9801C242.538 65.0984 257.921 53.6691 270.177 53.6691C282.433 53.6691 303.193 34.692 316.2 34.692C329.207 34.692 357.721 14.7445 367.226 12.588C376.73 10.4316 416 14.9602 416 14.9602" stroke="#BFEFF4" stroke-width="2"/>
<circle cx="26" cy="101.534" r="5" fill="#BFEFF4"/>
<circle cx="78.5264" cy="80.2734" r="5" fill="#BFEFF4"/>
<circle cx="115.045" cy="86.2764" r="5" fill="#BFEFF4"/>
<circle cx="162.068" cy="71.769" r="5" fill="#BFEFF4"/>
<circle cx="190.833" cy="81.2739" r="5" fill="#BFEFF4"/>
<circle cx="266.12" cy="53.2598" r="5" fill="#BFEFF4"/>
<circle cx="313.644" cy="34" r="5" fill="#BFEFF4"/>
</svg>
