<svg width="320" height="136" fill="none" xmlns="http://www.w3.org/2000/svg"><path d="M-51.484 108.919C-70.62 112.694-83 133.621-83 133.621l499 2.697V14.961s-39.27-4.53-48.774-2.373c-9.505 2.158-38.019 22.114-51.026 22.114-13.007 0-33.767 18.986-46.023 18.986s-27.639 11.434-37.144 15.318c-9.504 3.883-28.264 12.62-40.645 12.62-12.381 0-17.759-9.384-30.39-9.384-12.632 0-35.018 13.915-47.649 13.915s-28.264-7.227-40.02-4.53c-11.756 2.697-32.641 15.641-42.772 19.093-10.13 3.452-23.261-3.236-34.142-3.668-10.88-.43-29.765 8.091-48.9 11.867z" fill="#F9F9FF"/><path d="M9.553 78.204c.56-.43 1.227-.644 2.002-.644 1.017 0 1.82.28 2.408.84.588.55.882 1.335.882 2.352 0 1.008-.327 1.83-.98 2.464-.644.635-1.475.952-2.492.952-1.027 0-1.862-.308-2.506-.924-.644-.616-.966-1.414-.966-2.394v-3.654c0-1.073.327-1.904.98-2.492.653-.588 1.474-.882 2.464-.882 1.13 0 2.128.331 2.996.994.103.084.112.182.028.294l-.63.896c-.084.112-.178.126-.28.042a3.433 3.433 0 00-2.1-.686c-.523 0-.957.154-1.302.462-.336.299-.504.733-.504 1.302v1.078zm0 2.646c0 .532.163.957.49 1.274.336.317.784.476 1.344.476s.998-.163 1.316-.49c.317-.327.476-.78.476-1.358 0-1.139-.579-1.708-1.736-1.708-.56 0-1.018.14-1.372.42-.345.27-.518.69-.518 1.26v.126zm13.617-.112c0 1.139-.34 1.997-1.022 2.576-.672.57-1.48.854-2.422.854a4.171 4.171 0 01-1.652-.322c-.504-.224-.933-.602-1.288-1.134-.345-.541-.518-1.2-.518-1.974v-3.542c0-1.12.34-1.96 1.022-2.52.681-.57 1.493-.854 2.436-.854.943 0 1.75.285 2.422.854.681.56 1.022 1.4 1.022 2.52v3.542zm-5.264.056c0 .644.177 1.106.532 1.386.355.27.784.406 1.288.406s.929-.135 1.274-.406c.355-.28.532-.742.532-1.386v-3.57c0-.653-.177-1.12-.532-1.4-.345-.28-.77-.42-1.274-.42s-.933.14-1.288.42c-.355.28-.532.747-.532 1.4v3.57zm13.877-.056c0 1.139-.34 1.997-1.022 2.576-.672.57-1.479.854-2.422.854a4.172 4.172 0 01-1.652-.322c-.504-.224-.933-.602-1.288-1.134-.345-.541-.518-1.2-.518-1.974v-3.542c0-1.12.341-1.96 1.022-2.52.682-.57 1.494-.854 2.436-.854.943 0 1.75.285 2.422.854.682.56 1.022 1.4 1.022 2.52v3.542zm-5.264.056c0 .644.178 1.106.532 1.386.355.27.784.406 1.288.406s.929-.135 1.274-.406c.355-.28.532-.742.532-1.386v-3.57c0-.653-.177-1.12-.532-1.4-.345-.28-.77-.42-1.274-.42s-.933.14-1.288.42c-.354.28-.532.747-.532 1.4v3.57zm10.448-2.66c.41.093.732.177.966.252.242.065.546.182.91.35.364.159.644.336.84.532.196.196.368.462.518.798.158.336.238.719.238 1.148 0 .85-.28 1.521-.84 2.016-.56.485-1.274.784-2.142.896v1.078c0 .14-.066.21-.196.21h-.952c-.14 0-.21-.07-.21-.21V84.14c-.98-.103-1.937-.546-2.87-1.33-.112-.093-.122-.191-.028-.294l.686-.952c.084-.112.177-.126.28-.042.905.672 1.778 1.022 2.618 1.05.532 0 .989-.117 1.372-.35.392-.243.588-.588.588-1.036 0-.196-.042-.369-.126-.518a1.29 1.29 0 00-.294-.364 1.767 1.767 0 00-.518-.266 4.477 4.477 0 00-.588-.182 10.048 10.048 0 00-.7-.168 8.41 8.41 0 01-1.134-.322 6.069 6.069 0 01-1.022-.504 2.373 2.373 0 01-.826-.868c-.196-.364-.294-.789-.294-1.274 0-.83.261-1.484.784-1.96.522-.485 1.213-.784 2.072-.896v-.994c0-.14.07-.21.21-.21h.952c.13 0 .196.07.196.21v.98c.877.093 1.759.462 2.646 1.106.112.065.13.159.056.28l-.658.952c-.075.103-.173.117-.294.042-.766-.523-1.587-.798-2.464-.826-.57 0-1.018.121-1.344.364-.327.243-.49.574-.49.994 0 .168.037.322.112.462.074.13.163.238.266.322.102.084.256.168.462.252.205.075.387.135.546.182.158.037.382.089.672.154zM62.7 67.773h-1.232c-.14 0-.21-.07-.21-.21v-7.84l-1.484 1.022c-.103.075-.196.052-.28-.07l-.574-.924c-.075-.102-.056-.2.056-.294l2.394-1.624c.056-.046.14-.07.252-.07H62.7c.13 0 .196.07.196.21v9.59c0 .14-.066.21-.196.21zm8.328 0h-6.286c-.13 0-.196-.07-.196-.21v-.84c0-.102.033-.186.098-.252l2.842-2.954c.654-.68 1.139-1.246 1.456-1.694.318-.457.476-.91.476-1.358a1.3 1.3 0 00-.364-.938c-.242-.26-.611-.392-1.106-.392-.765 0-1.512.374-2.24 1.12-.093.112-.186.108-.28-.014l-.658-.896c-.074-.093-.07-.186.014-.28.906-.98 1.96-1.47 3.164-1.47.924 0 1.676.248 2.254.742.588.495.882 1.195.882 2.1a3.35 3.35 0 01-.476 1.722c-.308.542-.798 1.195-1.47 1.96a30.908 30.908 0 01-2.086 2.142h3.976c.14 0 .21.07.21.21v1.092c0 .14-.07.21-.21.21zm8.618-3.262c0 1.14-.341 1.998-1.022 2.576-.672.57-1.48.854-2.422.854a4.172 4.172 0 01-1.652-.322c-.504-.224-.934-.602-1.288-1.134-.346-.54-.518-1.199-.518-1.974V60.97c0-1.12.34-1.96 1.022-2.52.681-.569 1.493-.854 2.436-.854.942 0 1.75.285 2.422.854.681.56 1.022 1.4 1.022 2.52v3.542zm-5.264.056c0 .644.177 1.106.532 1.386.354.271.784.406 1.288.406s.928-.135 1.274-.406c.354-.28.532-.742.532-1.386v-3.57c0-.653-.178-1.12-.532-1.4-.346-.28-.77-.42-1.274-.42s-.934.14-1.288.42c-.355.28-.532.747-.532 1.4v3.57zm13.877-.056c0 1.14-.34 1.998-1.022 2.576-.672.57-1.48.854-2.422.854a4.172 4.172 0 01-1.652-.322c-.504-.224-.933-.602-1.288-1.134-.345-.54-.518-1.199-.518-1.974V60.97c0-1.12.34-1.96 1.022-2.52.681-.569 1.493-.854 2.436-.854.943 0 1.75.285 2.422.854.681.56 1.022 1.4 1.022 2.52v3.542zm-5.264.056c0 .644.177 1.106.532 1.386.355.271.784.406 1.288.406s.929-.135 1.274-.406c.355-.28.532-.742.532-1.386v-3.57c0-.653-.177-1.12-.532-1.4-.345-.28-.77-.42-1.274-.42s-.933.14-1.288.42c-.355.28-.532.747-.532 1.4v3.57zm10.447-2.66c.41.094.733.178.966.252.243.066.546.182.91.35.364.16.644.336.84.532.196.196.369.462.518.798.159.336.238.72.238 1.148 0 .85-.28 1.522-.84 2.016-.56.486-1.274.784-2.142.896v1.078c0 .14-.065.21-.196.21h-.952c-.14 0-.21-.07-.21-.21v-1.064c-.98-.102-1.936-.546-2.87-1.33-.112-.093-.121-.19-.028-.294l.686-.952c.084-.112.178-.126.28-.042.906.672 1.778 1.022 2.618 1.05.532 0 .99-.116 1.372-.35.392-.242.588-.588.588-1.036a1.04 1.04 0 00-.126-.518 1.29 1.29 0 00-.294-.364 1.754 1.754 0 00-.518-.266 4.492 4.492 0 00-.588-.182 10.18 10.18 0 00-.7-.168 8.25 8.25 0 01-1.134-.322 6.065 6.065 0 01-1.022-.504 2.372 2.372 0 01-.826-.868c-.196-.364-.294-.788-.294-1.274 0-.83.261-1.484.784-1.96.523-.485 1.214-.784 2.072-.896v-.994c0-.14.07-.21.21-.21h.952c.13 0 .196.07.196.21v.98c.877.094 1.76.462 2.646 1.106.112.066.13.16.056.28l-.658.952c-.075.103-.172.117-.294.042-.765-.522-1.587-.798-2.464-.826-.57 0-1.017.122-1.344.364-.326.243-.49.574-.49.994 0 .168.037.322.112.462.075.131.163.238.266.322.103.084.257.168.462.252.206.075.388.136.546.182.159.038.383.09.672.154zm55.246-.137h-1.232c-.14 0-.21-.07-.21-.21v-7.84l-1.484 1.023c-.102.074-.196.05-.28-.07l-.574-.925c-.074-.102-.056-.2.056-.293l2.394-1.624c.056-.047.14-.07.252-.07h1.078c.131 0 .196.07.196.21v9.59c0 .14-.065.21-.196.21zm8.679-3.192c0 1.027-.327 1.844-.98 2.45-.653.607-1.489.91-2.506.91-1.269 0-2.408-.438-3.416-1.316-.084-.093-.084-.19 0-.294l.686-.797c.093-.094.191-.094.294 0 .411.298.789.517 1.134.657.355.14.789.21 1.302.21.551 0 .989-.158 1.316-.476.336-.326.504-.788.504-1.386 0-1.129-.658-1.694-1.974-1.694-.289 0-.583.033-.882.099-.103.027-.187-.015-.252-.127l-.266-.574c-.047-.102-.028-.2.056-.294l1.372-1.497c.597-.635.994-1.027 1.19-1.176h-3.794c-.131 0-.196-.07-.196-.21V51.97c0-.14.065-.21.196-.21h5.712c.131 0 .196.07.196.21v.813a.412.412 0 01-.098.252l-2.534 2.688.014.028a2.872 2.872 0 012.044.742c.588.503.882 1.199.882 2.085zm8.377-.07c0 1.14-.341 1.998-1.022 2.576-.672.57-1.48.854-2.422.854a4.17 4.17 0 01-1.652-.322c-.504-.224-.934-.602-1.288-1.133-.346-.542-.518-1.2-.518-1.974v-3.542c0-1.12.34-1.96 1.022-2.52.681-.57 1.493-.855 2.436-.855.942 0 1.75.285 2.422.855.681.56 1.022 1.4 1.022 2.52v3.541zm-5.264.056c0 .645.177 1.106.532 1.386.354.271.784.406 1.288.406s.928-.135 1.274-.406c.354-.28.532-.742.532-1.386v-3.57c0-.653-.178-1.12-.532-1.4-.346-.28-.77-.42-1.274-.42s-.934.14-1.288.42c-.355.28-.532.747-.532 1.4v3.57zm13.877-.056c0 1.14-.341 1.998-1.022 2.576-.672.57-1.479.854-2.422.854a4.173 4.173 0 01-1.652-.322c-.504-.224-.933-.602-1.288-1.133-.345-.542-.518-1.2-.518-1.974v-3.542c0-1.12.341-1.96 1.022-2.52.681-.57 1.493-.855 2.436-.855.943 0 1.75.285 2.422.855.681.56 1.022 1.4 1.022 2.52v3.541zm-5.264.056c0 .645.177 1.106.532 1.386.355.271.784.406 1.288.406s.929-.135 1.274-.406c.355-.28.532-.742.532-1.386v-3.57c0-.653-.177-1.12-.532-1.4-.345-.28-.77-.42-1.274-.42s-.933.14-1.288.42c-.355.28-.532.747-.532 1.4v3.57zm10.447-2.66c.411.094.733.178.966.252.243.066.546.183.91.35.364.16.644.337.84.532.196.197.369.463.518.799.159.335.238.718.238 1.147 0 .85-.28 1.522-.84 2.017-.56.485-1.274.784-2.142.896v1.078c0 .14-.065.21-.196.21h-.952c-.14 0-.21-.07-.21-.21V61.91c-.98-.102-1.936-.545-2.87-1.33-.112-.093-.121-.19-.028-.294l.686-.952c.084-.112.178-.126.28-.042.906.672 1.778 1.023 2.618 1.05.532 0 .99-.116 1.372-.35.392-.242.588-.587.588-1.035 0-.197-.042-.37-.126-.519a1.29 1.29 0 00-.294-.364c-.112-.093-.284-.181-.518-.265a4.477 4.477 0 00-.588-.182 9.963 9.963 0 00-.7-.169 8.436 8.436 0 01-1.134-.322 6.103 6.103 0 01-1.022-.504 2.378 2.378 0 01-.826-.867c-.196-.364-.294-.79-.294-1.275 0-.83.262-1.483.784-1.96.523-.485 1.214-.784 2.072-.895v-.994c0-.14.07-.21.21-.21h.952c.131 0 .196.07.196.21v.98c.878.093 1.76.462 2.646 1.105.112.066.131.16.056.28l-.658.953c-.074.102-.172.116-.294.041-.765-.522-1.586-.797-2.464-.825-.569 0-1.017.12-1.344.364a1.17 1.17 0 00-.49.993c0 .169.038.323.112.463.075.13.164.238.266.322.103.084.257.167.462.252.206.074.388.135.546.181.159.038.383.09.672.154zM248.315 41h-1.232c-.14 0-.21-.07-.21-.21v-7.84l-1.484 1.022c-.103.075-.196.051-.28-.07l-.574-.924c-.075-.103-.056-.2.056-.294l2.394-1.624c.056-.047.14-.07.252-.07h1.078c.131 0 .196.07.196.21v9.59c0 .14-.065.21-.196.21zm4.115 0h-1.428c-.075 0-.126-.023-.154-.07-.028-.047-.024-.107.014-.182l3.878-8.176h-4.522c-.14 0-.21-.07-.21-.21V31.2c0-.14.07-.21.21-.21h6.412c.14 0 .21.07.21.21v.742a.583.583 0 01-.07.252l-4.102 8.652c-.038.103-.117.154-.238.154zm12.448-3.262c0 1.139-.341 1.997-1.022 2.576-.672.57-1.479.854-2.422.854a4.173 4.173 0 01-1.652-.322c-.504-.224-.933-.602-1.288-1.134-.345-.541-.518-1.2-.518-1.974v-3.542c0-1.12.341-1.96 1.022-2.52.681-.57 1.493-.854 2.436-.854.943 0 1.75.285 2.422.854.681.56 1.022 1.4 1.022 2.52v3.542zm-5.264.056c0 .644.177 1.106.532 1.386.355.27.784.406 1.288.406s.929-.135 1.274-.406c.355-.28.532-.742.532-1.386v-3.57c0-.653-.177-1.12-.532-1.4-.345-.28-.77-.42-1.274-.42s-.933.14-1.288.42c-.355.28-.532.747-.532 1.4v3.57zm13.877-.056c0 1.139-.34 1.997-1.022 2.576-.672.57-1.479.854-2.422.854a4.173 4.173 0 01-1.652-.322c-.504-.224-.933-.602-1.288-1.134-.345-.541-.518-1.2-.518-1.974v-3.542c0-1.12.341-1.96 1.022-2.52.682-.57 1.494-.854 2.436-.854.943 0 1.75.285 2.422.854.682.56 1.022 1.4 1.022 2.52v3.542zm-5.264.056c0 .644.178 1.106.532 1.386.355.27.784.406 1.288.406s.929-.135 1.274-.406c.355-.28.532-.742.532-1.386v-3.57c0-.653-.177-1.12-.532-1.4-.345-.28-.77-.42-1.274-.42s-.933.14-1.288.42c-.354.28-.532.747-.532 1.4v3.57zm10.448-2.66c.41.093.732.177.966.252.242.065.546.182.91.35.364.159.644.336.84.532.196.196.368.462.518.798.158.336.238.719.238 1.148 0 .85-.28 1.521-.84 2.016-.56.485-1.274.784-2.142.896v1.078c0 .14-.066.21-.196.21h-.952c-.14 0-.21-.07-.21-.21V41.14c-.98-.103-1.937-.546-2.87-1.33-.112-.093-.122-.191-.028-.294l.686-.952c.084-.112.177-.126.28-.042.905.672 1.778 1.022 2.618 1.05.532 0 .989-.117 1.372-.35.392-.243.588-.588.588-1.036 0-.196-.042-.369-.126-.518a1.29 1.29 0 00-.294-.364 1.767 1.767 0 00-.518-.266 4.477 4.477 0 00-.588-.182 10.105 10.105 0 00-.7-.168 8.21 8.21 0 01-1.134-.322 6.028 6.028 0 01-1.022-.504 2.37 2.37 0 01-.826-.868c-.196-.364-.294-.789-.294-1.274 0-.83.261-1.484.784-1.96.522-.485 1.213-.784 2.072-.896v-.994c0-.14.07-.21.21-.21h.952c.13 0 .196.07.196.21v.98c.877.093 1.759.462 2.646 1.106.112.065.13.159.056.28l-.658.952c-.075.103-.173.117-.294.042-.766-.523-1.587-.798-2.464-.826-.57 0-1.018.121-1.344.364-.327.243-.49.574-.49.994 0 .168.037.322.112.462.074.13.163.238.266.322.102.084.256.168.462.252.205.075.387.135.546.182.158.037.382.089.672.154z" fill="#88DDEA"/><path d="M-83 133.567s12.381-20.918 31.516-24.692c19.134-3.774 38.019-12.292 48.9-11.86 10.88.43 24.011 7.116 34.141 3.665 10.13-3.45 31.016-16.389 42.772-19.085 11.756-2.695 27.389 4.53 40.02 4.53 12.631 0 35.017-13.91 47.649-13.91 12.631 0 18.009 9.38 30.39 9.38s31.141-8.733 40.645-12.615c9.505-3.882 24.888-15.31 37.144-15.31 12.256 0 33.016-18.978 46.023-18.978 13.007 0 41.521-19.947 51.026-22.104C376.73 10.432 416 14.96 416 14.96" stroke="#BFEFF4" stroke-width="2"/><circle cx="26" cy="101.534" r="5" fill="#BFEFF4"/><circle cx="78.526" cy="80.273" r="5" fill="#BFEFF4"/><circle cx="115.045" cy="86.276" r="5" fill="#BFEFF4"/><circle cx="162.068" cy="71.769" r="5" fill="#BFEFF4"/><circle cx="190.833" cy="81.274" r="5" fill="#BFEFF4"/><circle cx="266.12" cy="53.26" r="5" fill="#BFEFF4"/><circle cx="313.644" cy="34" r="5" fill="#BFEFF4"/></svg>