<svg width="50" height="50" viewBox="0 0 50 50" fill="none" xmlns="http://www.w3.org/2000/svg">
<path d="M25 50C38.8071 50 50 38.8071 50 25C50 11.1929 38.8071 0 25 0C11.1929 0 0 11.1929 0 25C0 38.8071 11.1929 50 25 50Z" fill="white"/>
<path fill-rule="evenodd" clip-rule="evenodd" d="M25 38C25.1569 38 25.3071 37.9358 25.4159 37.8223L39.8389 22.7697C40.0567 22.5424 40.0532 22.182 39.831 21.959L34.0618 16.1696C33.9536 16.061 33.8069 16 33.6538 16H26.7308C26.5777 16 26.431 16.061 26.3228 16.1696L25 17.497L23.6772 16.1696C23.569 16.061 23.4223 16 23.2692 16H16.3461C16.1931 16 16.0464 16.061 15.9382 16.1696L10.169 21.959C9.94679 22.182 9.94327 22.5424 10.1611 22.7697L24.5841 37.8223C24.6929 37.9358 24.8431 38 25 38ZM25.5769 18.5556L26.9697 17.1579H32.261L25.5769 23.8654V18.5556ZM24.4231 23.8654V18.5556L23.0302 17.1579H17.739L20.2156 19.6432C20.2158 19.6434 20.2159 19.6435 20.216 19.6436L24.4231 23.8654ZM19.8077 20.8714L24.592 25.6725C24.8173 25.8986 25.1827 25.8986 25.4079 25.6725L30.1923 20.8714L31.6841 22.3684L25 29.076L18.3159 22.3684L19.8077 20.8714ZM17.261 22.9474L24.4231 30.1346V35.9837L11.932 22.9474H17.261ZM11.9697 21.7895L16.3461 17.3977L18.9918 20.0526L17.261 21.7895H11.9697ZM25.5769 35.9837V30.1346L32.739 22.9474H38.0679L25.5769 35.9837ZM38.0302 21.7895H32.739L31.0082 20.0526L33.6538 17.3977L38.0302 21.7895Z" fill="url(#paint0_linear)"/>
<defs>
<linearGradient id="paint0_linear" x1="10" y1="27" x2="40" y2="27" gradientUnits="userSpaceOnUse">
<stop stop-color="#61CB7E"/>
<stop offset="1" stop-color="#33E1EA"/>
</linearGradient>
</defs>
</svg>
