<svg width="32" height="32" fill="none" xmlns="http://www.w3.org/2000/svg"><path d="M1.67 11.165a1.595 1.595 0 01-.536-3.097L23.464.092a1.595 1.595 0 012.131 1.503V9.57a1.595 1.595 0 11-3.19 0V3.858l-20.2 7.215c-.171.06-.352.092-.535.092z" fill="#373562"/><path fill-rule="evenodd" clip-rule="evenodd" d="M1.67 31.9h28.71c.881 0 1.596-.714 1.596-1.595V9.57c0-.88-.715-1.595-1.595-1.595H1.67c-.882 0-1.596.714-1.596 1.595v20.735c0 .881.714 1.595 1.595 1.595zm27.115-3.19H3.265V11.165h25.52V28.71z" fill="#373562"/><path d="M25.595 25.52H17.62a1.595 1.595 0 01-1.595-1.595V15.95c0-.88.714-1.595 1.595-1.595h12.76a1.595 1.595 0 110 3.19H19.215v4.785h6.38a1.595 1.595 0 110 3.19z" fill="#373562"/><path d="M22.565 21.533a1.579 1.579 0 111.132-.463 1.68 1.68 0 01-1.132.463z" fill="#373562"/></svg>