<svg width="35" height="38" viewBox="0 0 35 38" fill="none" xmlns="http://www.w3.org/2000/svg">
<g filter="url(#filter0_dd)">
<path d="M22.5377 28.4895C26.2019 28.5546 28.9167 26.7896 28.999 21.7615C29.1066 15.0922 20.4304 9.06112 17.6965 6C15.0006 9.03507 6.11553 14.6819 6.00162 21.3512C5.92568 26.3793 8.53298 28.242 12.1781 28.3071C12.7862 28.3117 13.388 28.1815 13.9428 27.9252C14.4975 27.669 14.9921 27.2927 15.3929 26.8221V27.734C15.3929 28.9389 15.1335 29.6879 14.7158 29.9875C14.2982 30.2871 13.1654 30.4825 11.4884 30.5736V32H23.0187V30.5736C21.9448 30.5732 20.8775 30.4018 19.8545 30.0656C19.3735 29.8051 19.1267 29.1408 19.1267 28.0596V26.7049C20.0696 27.6623 21.1012 28.4634 22.5377 28.4895Z" fill="url(#paint0_linear)"/>
<path d="M22.8187 30.7716V31.8H11.6884V30.7625C12.4488 30.7164 13.0955 30.6477 13.6096 30.5556C14.1562 30.4576 14.5838 30.3283 14.8324 30.15C15.0892 29.9658 15.2775 29.6587 15.4019 29.2598C15.5269 28.8591 15.5929 28.3491 15.5929 27.734V26.8221V26.2789L15.2407 26.6925C14.8584 27.1413 14.3871 27.4997 13.8589 27.7436C13.3311 27.9875 12.7587 28.1114 12.1806 28.1071C10.3891 28.0749 8.88455 27.6017 7.83617 26.5491C6.78871 25.4975 6.16416 23.835 6.20159 21.3544C6.25721 18.1032 8.45523 15.0733 11.0236 12.4527C12.3037 11.1467 13.6651 9.9526 14.8794 8.89179C14.914 8.86158 14.9485 8.83148 14.9828 8.80147C16.0657 7.85568 17.0317 7.01189 17.6966 6.29708C18.3044 6.95209 19.1508 7.72892 20.1003 8.60042C20.2303 8.71969 20.3621 8.84074 20.4956 8.96348C21.6915 10.0633 23.0234 11.3076 24.2659 12.6628C26.7589 15.3822 28.8515 18.5066 28.799 21.7582C28.7585 24.2379 28.0699 25.8759 26.9757 26.8887C25.8798 27.903 24.3432 28.3215 22.5413 28.2895C21.1868 28.2649 20.2036 27.5133 19.2692 26.5646L18.9267 26.2168V26.7049V28.0596C18.9267 29.1473 19.1709 29.9228 19.7592 30.2415L19.775 30.25L19.7921 30.2556C20.7716 30.5776 21.7912 30.7513 22.8187 30.7716Z" stroke="url(#paint1_linear)" stroke-width="0.4"/>
</g>
<defs>
<filter id="filter0_dd" x="0" y="0" width="35" height="38" filterUnits="userSpaceOnUse" color-interpolation-filters="sRGB">
<feFlood flood-opacity="0" result="BackgroundImageFix"/>
<feColorMatrix in="SourceAlpha" type="matrix" values="0 0 0 0 0 0 0 0 0 0 0 0 0 0 0 0 0 0 127 0"/>
<feOffset dx="2" dy="2"/>
<feGaussianBlur stdDeviation="2"/>
<feColorMatrix type="matrix" values="0 0 0 0 0.0866667 0 0 0 0 0.0933333 0 0 0 0 0.108333 0 0 0 1 0"/>
<feBlend mode="normal" in2="BackgroundImageFix" result="effect1_dropShadow"/>
<feColorMatrix in="SourceAlpha" type="matrix" values="0 0 0 0 0 0 0 0 0 0 0 0 0 0 0 0 0 0 127 0"/>
<feOffset dx="-2" dy="-2"/>
<feGaussianBlur stdDeviation="2"/>
<feColorMatrix type="matrix" values="0 0 0 0 0.204392 0 0 0 0 0.217967 0 0 0 0 0.254167 0 0 0 1 0"/>
<feBlend mode="normal" in2="effect1_dropShadow" result="effect2_dropShadow"/>
<feBlend mode="normal" in="SourceGraphic" in2="effect2_dropShadow" result="shape"/>
</filter>
<linearGradient id="paint0_linear" x1="6" y1="6" x2="30.1712" y2="7.1387" gradientUnits="userSpaceOnUse">
<stop stop-color="#F06021"/>
<stop offset="1" stop-color="#AA4D28"/>
</linearGradient>
<linearGradient id="paint1_linear" x1="6" y1="6" x2="30.1712" y2="7.1387" gradientUnits="userSpaceOnUse">
<stop stop-color="#B04F28"/>
<stop offset="1" stop-color="#EC5F22"/>
</linearGradient>
</defs>
</svg>
