<svg width="521" height="542" fill="none" xmlns="http://www.w3.org/2000/svg"><path d="M282.994 467h-79.475a14.88 14.88 0 00-10.513 4.389 14.943 14.943 0 00-4.348 10.547v20.64a14.867 14.867 0 004.716 10.849l.098.09a16.08 16.08 0 005.293 3.156l.248.105c1.454.464 2.972.7 4.498.699h27.232a32 32 0 0118.821 6.115 32.112 32.112 0 0111.65 16.026 2.998 2.998 0 002.339 2.059c.08.007.16.007.24 0h.292a3.098 3.098 0 002.362-1.105l28.146-35.237a14.99 14.99 0 003.299-9.392v-14.005a14.94 14.94 0 00-9.195-13.799 14.866 14.866 0 00-5.703-1.137zm-88.39 21.939v-7.003a8.93 8.93 0 012.596-6.305 8.896 8.896 0 016.281-2.628h79.513a8.906 8.906 0 016.29 2.625 8.94 8.94 0 012.603 6.308v14.02a9.196 9.196 0 01-2.01 5.62l-24.975 31.278a38.016 38.016 0 00-14.031-15.608 37.904 37.904 0 00-20.158-5.767h-.93a2.63 2.63 0 00-.397 0h-25.905a9.428 9.428 0 01-2.542-.368 10.363 10.363 0 01-3.508-2.066 8.806 8.806 0 01-2.827-6.469v-12.901a1.837 1.837 0 000-.736zm49.451-346.266h-79.476a14.884 14.884 0 01-10.513-4.388 14.946 14.946 0 01-4.347-10.548v-20.639a14.864 14.864 0 014.716-10.85l.097-.09a16.093 16.093 0 015.294-3.156l.247-.105c1.455-.464 2.972-.7 4.499-.698h27.231a32.002 32.002 0 0018.822-6.116 32.107 32.107 0 0011.649-16.026 3 3 0 012.339-2.059 1.3 1.3 0 01.24 0h.293a3.098 3.098 0 012.361 1.105l28.147 35.237a14.99 14.99 0 013.299 9.392v14.005a14.959 14.959 0 01-4.361 10.561 14.895 14.895 0 01-10.537 4.375zm-88.391-21.939v7.003a8.934 8.934 0 002.596 6.305 8.897 8.897 0 006.282 2.628h79.513a8.905 8.905 0 006.289-2.625 8.94 8.94 0 002.603-6.308v-14.02a9.203 9.203 0 00-2.009-5.62l-24.975-31.278a38.023 38.023 0 01-14.031 15.608 37.91 37.91 0 01-20.159 5.767h-.929c-.133.01-.265.01-.398 0h-25.904a9.4 9.4 0 00-2.542.368 10.363 10.363 0 00-3.509 2.067 8.804 8.804 0 00-2.827 6.469v12.9c.022.106.035.214.038.323.002.139-.011.277-.038.413zm25.828-39.374a25.049 25.049 0 01-17.653-7.234 25.032 25.032 0 01-7.433-17.564v-.473a25.016 25.016 0 0116.076-23.225 25.032 25.032 0 0127.482 6.55c.118.1.177.185.16.185l.144.178.076.092.093.102 1.427 1.815c.117.101.219.217.304.346a25.047 25.047 0 011.508 25.856 25.074 25.074 0 01-22.184 13.38v-.008zm13.514-37.396a18.333 18.333 0 00-28.571 1.863 18.317 18.317 0 00-3.297 10.27v.397a18.355 18.355 0 0036.699-.169 18.168 18.168 0 00-3.176-10.267l-1.52-1.908-.118-.177-.017-.009zM42.008 0h79.475a14.883 14.883 0 0110.513 4.389 14.945 14.945 0 014.348 10.547v20.64a14.866 14.866 0 01-4.716 10.85l-.098.089a16.078 16.078 0 01-5.293 3.156l-.248.105c-1.454.464-2.972.7-4.498.698H94.259a32 32 0 00-18.821 6.116 32.108 32.108 0 00-11.65 16.026 3.006 3.006 0 01-2.339 2.059c-.08.007-.16.007-.24 0h-.292a3.099 3.099 0 01-2.362-1.105L30.409 38.333a14.987 14.987 0 01-3.3-9.392V14.937A14.954 14.954 0 0131.47 4.375 14.896 14.896 0 0142.008 0zm88.39 21.939v-7.002a8.932 8.932 0 00-2.596-6.306 8.897 8.897 0 00-6.281-2.628H42.008a8.905 8.905 0 00-6.29 2.625 8.943 8.943 0 00-2.603 6.309v14.02a9.2 9.2 0 002.01 5.62l24.974 31.277a38.02 38.02 0 0114.032-15.608 37.909 37.909 0 0120.158-5.767h.93c.132-.01.265-.01.397 0h25.905a9.392 9.392 0 002.541-.368 10.36 10.36 0 003.509-2.066 8.81 8.81 0 002.827-6.469v-12.9a1.847 1.847 0 010-.737z" fill="#EAEAEA" fill-opacity=".2"/><path d="M104.571 61.313a25.048 25.048 0 0117.652 7.234 25.028 25.028 0 017.433 17.564v.473a25.025 25.025 0 01-30.829 24.198 25.035 25.035 0 01-12.728-7.522c-.118-.102-.177-.186-.16-.186l-.144-.177-.076-.093-.093-.102-1.428-1.815a1.68 1.68 0 01-.303-.346 25.055 25.055 0 017.72-35.633 25.076 25.076 0 0112.956-3.603v.008zM91.057 98.71a18.336 18.336 0 0020.064 4.774 18.33 18.33 0 0011.804-16.907v-.397a18.349 18.349 0 00-18.433-17.88 18.357 18.357 0 00-12.817 5.297 18.344 18.344 0 00-5.45 12.75c0 3.664 1.107 7.243 3.176 10.267l1.52 1.908.119.177.017.009z" fill="#4EBA66" fill-opacity=".2"/><path d="M52.338 142.673h-79.476a14.883 14.883 0 01-10.512-4.388 14.946 14.946 0 01-4.348-10.548v-20.639a14.887 14.887 0 014.716-10.85l.097-.09a16.084 16.084 0 015.294-3.156l.247-.105c1.455-.464 2.972-.7 4.499-.698H.087a32 32 0 0018.82-6.116 32.108 32.108 0 0011.65-16.026 3.006 3.006 0 012.34-2.059c.08-.007.16-.007.24 0h.292a3.098 3.098 0 012.362 1.105l28.146 35.237a14.989 14.989 0 013.3 9.392v14.005a14.953 14.953 0 01-4.362 10.561 14.866 14.866 0 01-10.537 4.375zm-88.39-21.939v7.003a8.933 8.933 0 002.595 6.305 8.897 8.897 0 006.282 2.628h79.513a8.905 8.905 0 006.29-2.625 8.94 8.94 0 002.602-6.308v-14.02a9.2 9.2 0 00-2.009-5.62L34.246 76.819a38.02 38.02 0 01-14.031 15.608A37.909 37.909 0 01.057 98.194h-.93a2.63 2.63 0 01-.397 0h-25.905a9.4 9.4 0 00-2.542.368 10.357 10.357 0 00-3.509 2.067 8.819 8.819 0 00-2.827 6.469v12.9a1.847 1.847 0 010 .736zm25.827-39.374a25.048 25.048 0 01-17.653-7.234 25.03 25.03 0 01-7.432-17.564v-.473a25.01 25.01 0 0116.075-23.225 25.034 25.034 0 0127.482 6.55c.118.1.177.185.16.185l.144.178.076.092.093.102 1.427 1.815c.117.101.22.217.304.346A25.053 25.053 0 012.73 77.765a25.076 25.076 0 01-12.955 3.603v-.008zM3.289 43.964A18.33 18.33 0 00-28.58 56.097v.397a18.344 18.344 0 005.567 12.699 18.357 18.357 0 0025.682-.118 18.344 18.344 0 005.45-12.75c0-3.664-1.106-7.242-3.176-10.267l-1.52-1.908-.118-.177-.017-.009zm422.152 112.085h79.476a14.884 14.884 0 0110.513 4.388 14.946 14.946 0 014.347 10.548v20.639a14.868 14.868 0 01-4.716 10.85l-.097.09a16.083 16.083 0 01-5.294 3.155l-.247.106c-1.454.464-2.972.7-4.499.698h-27.231a32.001 32.001 0 00-18.822 6.116 32.111 32.111 0 00-11.649 16.026 3.011 3.011 0 01-2.339 2.059c-.08.007-.16.007-.24 0h-.293a3.102 3.102 0 01-2.361-1.105l-28.147-35.237a14.99 14.99 0 01-3.299-9.392v-14.005a14.959 14.959 0 014.361-10.561 14.866 14.866 0 0110.537-4.375zm88.391 21.939v-7.003a8.934 8.934 0 00-2.596-6.305 8.897 8.897 0 00-6.282-2.628h-79.513a8.908 8.908 0 00-6.289 2.624 8.944 8.944 0 00-2.603 6.309v14.02a9.203 9.203 0 002.009 5.62l24.975 31.278a38.022 38.022 0 0114.031-15.608 37.908 37.908 0 0120.159-5.767h.929c.133-.01.265-.01.398 0h25.904a9.423 9.423 0 002.542-.368 10.364 10.364 0 003.509-2.067 8.804 8.804 0 002.827-6.469v-12.9a1.838 1.838 0 01-.038-.323 1.972 1.972 0 01.038-.413zm-25.828 39.374a25.05 25.05 0 0117.653 7.234 25.031 25.031 0 017.433 17.564v.473a25.014 25.014 0 01-16.076 23.224 25.023 25.023 0 01-14.753.973 25.02 25.02 0 01-12.728-7.522c-.119-.101-.178-.186-.161-.186l-.144-.177-.076-.093-.092-.101-1.428-1.815a1.697 1.697 0 01-.304-.346 25.05 25.05 0 01-1.507-25.857 25.067 25.067 0 0122.183-13.379v.008zm-13.514 37.395a18.33 18.33 0 0031.868-12.133v-.397a18.344 18.344 0 00-5.567-12.698 18.357 18.357 0 00-25.682.118 18.347 18.347 0 00-5.45 12.749c0 3.664 1.107 7.243 3.176 10.267l1.52 1.909.119.177.016.008zm-38.716 43.965h-79.476a14.88 14.88 0 01-10.513-4.389 14.943 14.943 0 01-4.347-10.548v-20.639a14.88 14.88 0 014.716-10.849l.097-.09a16.09 16.09 0 015.293-3.156l.248-.105c1.454-.464 2.972-.7 4.498-.699h27.232a31.997 31.997 0 0018.821-6.115 32.112 32.112 0 0011.65-16.026 3.006 3.006 0 012.339-2.059c.08-.007.16-.007.24 0h.292a3.106 3.106 0 012.362 1.104l28.147 35.238a14.987 14.987 0 013.299 9.392v14.004a14.96 14.96 0 01-4.361 10.562 14.866 14.866 0 01-10.537 4.375zm-88.391-21.939v7.002a8.935 8.935 0 002.596 6.306 8.896 8.896 0 006.281 2.628h79.514a8.905 8.905 0 006.289-2.625 8.94 8.94 0 002.603-6.309v-14.019a9.201 9.201 0 00-2.009-5.62l-24.975-31.278a38.018 38.018 0 01-14.032 15.608 37.91 37.91 0 01-20.158 5.767h-.93a2.63 2.63 0 01-.397 0H356.26c-.86.006-1.715.13-2.541.368a10.368 10.368 0 00-3.509 2.066 8.81 8.81 0 00-2.827 6.469v12.901c.022.106.035.214.038.323.002.138-.011.277-.038.413zm25.827-39.374a25.05 25.05 0 01-17.652-7.234 25.029 25.029 0 01-7.433-17.564v-.473a25.024 25.024 0 0130.829-24.198 25.033 25.033 0 0112.728 7.522c.119.102.178.186.161.186l.143.177.076.093.093.102 1.428 1.815a1.7 1.7 0 01.304.346 25.059 25.059 0 011.507 25.856 25.067 25.067 0 01-22.184 13.38v-.008zm13.514-37.396a18.337 18.337 0 00-20.064-4.774 18.319 18.319 0 00-11.803 16.907v.397a18.34 18.34 0 005.567 12.699 18.356 18.356 0 0031.132-12.868c0-3.664-1.107-7.243-3.176-10.267l-1.521-1.908-.118-.177-.017-.009zm-152.998-43.964h79.476a14.884 14.884 0 0110.513 4.388 14.946 14.946 0 014.347 10.548v20.639a14.88 14.88 0 01-4.716 10.85l-.097.09a16.088 16.088 0 01-5.293 3.155l-.248.106c-1.454.464-2.972.7-4.498.698h-27.232a31.998 31.998 0 00-18.821 6.116 32.107 32.107 0 00-11.65 16.026 3.003 3.003 0 01-2.339 2.059c-.08.007-.16.007-.24 0h-.292a3.106 3.106 0 01-2.362-1.105l-28.147-35.237a14.99 14.99 0 01-3.299-9.392v-14.005a14.959 14.959 0 014.361-10.561 14.866 14.866 0 0110.537-4.375zm88.391 21.939v-7.003a8.934 8.934 0 00-2.596-6.305 8.896 8.896 0 00-6.281-2.628h-79.514a8.908 8.908 0 00-6.289 2.624 8.944 8.944 0 00-2.603 6.309v14.02a9.203 9.203 0 002.009 5.62l24.975 31.278a38.018 38.018 0 0114.032-15.608 37.902 37.902 0 0120.158-5.767h.93c.132-.01.265-.01.397 0h25.905a9.415 9.415 0 002.541-.368 10.354 10.354 0 003.509-2.067 8.824 8.824 0 002.827-6.469v-12.9a1.838 1.838 0 01-.038-.323 1.972 1.972 0 01.038-.413zm-25.831 39.374a25.05 25.05 0 0117.652 7.234 25.027 25.027 0 017.433 17.564v.473a25.017 25.017 0 01-16.075 23.224 25.026 25.026 0 01-27.482-6.549c-.118-.101-.178-.186-.161-.186l-.143-.177-.076-.093-.093-.101-1.428-1.815a1.728 1.728 0 01-.304-.346 25.059 25.059 0 01-1.507-25.857 25.062 25.062 0 0122.184-13.379v.008zm-13.514 37.395a18.33 18.33 0 0031.867-12.133v-.397a18.343 18.343 0 00-5.566-12.698 18.36 18.36 0 00-25.683.118 18.347 18.347 0 00-5.45 12.749c0 3.664 1.107 7.243 3.176 10.267l1.521 1.909.118.177.017.008zm-38.717 43.965h-79.476a14.88 14.88 0 01-10.513-4.389 14.943 14.943 0 01-4.347-10.548v-20.639a14.863 14.863 0 014.716-10.849l.097-.09a16.095 16.095 0 015.294-3.156l.247-.105c1.455-.464 2.972-.7 4.499-.699h27.231a32 32 0 0018.822-6.115 32.11 32.11 0 0011.649-16.026 3.003 3.003 0 012.339-2.059c.08-.007.16-.007.24 0h.293a3.102 3.102 0 012.361 1.104l28.147 35.238a14.987 14.987 0 013.299 9.392v14.004a14.96 14.96 0 01-4.361 10.562 14.895 14.895 0 01-10.537 4.375zm-88.391-21.939v7.002a8.935 8.935 0 002.596 6.306 8.897 8.897 0 006.282 2.628h79.513a8.905 8.905 0 006.289-2.625 8.94 8.94 0 002.603-6.309v-14.019a9.201 9.201 0 00-2.009-5.62l-24.975-31.278a38.022 38.022 0 01-14.031 15.608 37.914 37.914 0 01-20.159 5.767h-.929c-.133.01-.265.01-.398 0h-25.904c-.86.006-1.716.13-2.542.368a10.377 10.377 0 00-3.509 2.066 8.824 8.824 0 00-2.827 6.469v12.901c.022.106.035.214.038.323.002.138-.011.277-.038.413zm25.828-39.374a25.05 25.05 0 01-17.653-7.234 25.033 25.033 0 01-7.433-17.564v-.473a25.015 25.015 0 0116.076-23.225 25.039 25.039 0 0127.482 6.549c.118.102.177.186.16.186l.144.177.076.093.093.102 1.427 1.815c.117.101.219.217.304.346a25.05 25.05 0 011.508 25.856 25.077 25.077 0 01-22.184 13.38v-.008zm13.514-37.396a18.34 18.34 0 00-20.064-4.774 18.319 18.319 0 00-11.804 16.907v.397a18.344 18.344 0 005.567 12.699 18.356 18.356 0 0031.132-12.868 18.167 18.167 0 00-3.176-10.267l-1.52-1.908-.118-.177-.017-.009zM42.008 156.049h79.475a14.884 14.884 0 0110.513 4.388 14.947 14.947 0 014.348 10.548v20.639a14.877 14.877 0 01-4.716 10.85l-.098.09a16.078 16.078 0 01-5.293 3.155l-.248.106c-1.454.464-2.972.7-4.498.698H94.259a32 32 0 00-18.821 6.116 32.107 32.107 0 00-11.65 16.026 3.004 3.004 0 01-2.339 2.059c-.08.007-.16.007-.24 0h-.292a3.102 3.102 0 01-2.362-1.105l-28.146-35.237a14.989 14.989 0 01-3.3-9.392v-14.005a14.953 14.953 0 014.361-10.561 14.866 14.866 0 0110.537-4.375zm88.39 21.939v-7.003a8.93 8.93 0 00-2.596-6.305 8.896 8.896 0 00-6.281-2.628H42.008a8.908 8.908 0 00-6.29 2.624 8.944 8.944 0 00-2.603 6.309v14.02a9.2 9.2 0 002.01 5.62l24.974 31.278a38.02 38.02 0 0114.032-15.608 37.904 37.904 0 0120.158-5.767h.93c.132-.01.265-.01.397 0h25.905a9.415 9.415 0 002.541-.368 10.354 10.354 0 003.509-2.067 8.807 8.807 0 002.827-6.469v-12.9a1.837 1.837 0 010-.736z" fill="#EAEAEA" fill-opacity=".2"/><path d="M104.571 217.362a25.05 25.05 0 0117.652 7.234 25.027 25.027 0 017.433 17.564v.473a25.012 25.012 0 01-16.075 23.224 25.026 25.026 0 01-27.482-6.549c-.118-.101-.177-.186-.16-.186l-.144-.177-.076-.093-.093-.101-1.428-1.815a1.706 1.706 0 01-.303-.346 25.056 25.056 0 0120.676-39.236v.008zm-13.514 37.395a18.329 18.329 0 0031.868-12.133v-.397a18.348 18.348 0 00-18.433-17.878 18.356 18.356 0 00-18.266 18.047 18.174 18.174 0 003.175 10.267l1.52 1.909.119.177.017.008zm-38.719 43.965h-79.476a14.88 14.88 0 01-10.512-4.389 14.943 14.943 0 01-4.348-10.548v-20.639a14.885 14.885 0 014.716-10.849l.097-.09a16.087 16.087 0 015.294-3.156l.247-.105a14.77 14.77 0 014.499-.699H.087a31.999 31.999 0 0018.82-6.115 32.111 32.111 0 0011.65-16.026 3.007 3.007 0 012.34-2.059c.08-.007.16-.007.24 0h.292a3.102 3.102 0 012.362 1.104l28.146 35.238a14.987 14.987 0 013.3 9.392v14.004a14.954 14.954 0 01-4.362 10.562 14.866 14.866 0 01-10.537 4.375zm-88.39-21.939v7.002a8.934 8.934 0 002.595 6.306 8.897 8.897 0 006.282 2.628h79.513a8.905 8.905 0 006.29-2.625 8.94 8.94 0 002.602-6.309v-14.019a9.198 9.198 0 00-2.009-5.62l-24.975-31.278a38.02 38.02 0 01-14.031 15.608 37.913 37.913 0 01-20.158 5.767h-.93a2.63 2.63 0 01-.397 0h-25.905c-.86.006-1.715.13-2.542.368a10.372 10.372 0 00-3.509 2.066 8.812 8.812 0 00-2.826 6.469v12.901a1.847 1.847 0 010 .736zm25.827-39.374a25.05 25.05 0 01-17.653-7.234 25.03 25.03 0 01-7.432-17.564v-.473a25.023 25.023 0 0116.075-23.225 25.035 25.035 0 0127.482 6.549c.118.102.177.186.16.186l.144.177.076.093.093.102 1.427 1.815c.117.101.22.217.304.346a25.055 25.055 0 01-7.721 35.633 25.074 25.074 0 01-12.955 3.603v-.008zm13.514-37.396a18.337 18.337 0 00-20.064-4.774 18.32 18.32 0 00-11.804 16.907v.397a18.344 18.344 0 005.567 12.699 18.358 18.358 0 0025.682-.118 18.345 18.345 0 005.45-12.75c0-3.664-1.106-7.243-3.176-10.267l-1.52-1.908-.118-.177-.017-.009zm423.265 114.314h79.476a14.884 14.884 0 0110.513 4.388 14.947 14.947 0 014.348 10.548v20.639a14.891 14.891 0 01-4.716 10.85l-.098.09a16.071 16.071 0 01-5.293 3.155l-.248.106c-1.454.464-2.972.7-4.498.698h-27.232a32 32 0 00-18.821 6.116 32.107 32.107 0 00-11.65 16.026 2.995 2.995 0 01-2.339 2.059c-.08.007-.16.007-.24 0h-.292a3.106 3.106 0 01-2.362-1.105l-28.147-35.237a14.99 14.99 0 01-3.299-9.392v-14.005a14.952 14.952 0 014.361-10.561 14.91 14.91 0 014.835-3.238 14.858 14.858 0 015.702-1.137zm88.391 21.939v-7.003a8.934 8.934 0 00-2.596-6.305 8.896 8.896 0 00-6.281-2.628h-79.514a8.905 8.905 0 00-6.289 2.625 8.94 8.94 0 00-2.603 6.308v14.02a9.198 9.198 0 002.01 5.62l24.974 31.278a38.025 38.025 0 0114.032-15.608 37.904 37.904 0 0120.158-5.767h.93c.132-.01.265-.01.397 0h25.905a9.415 9.415 0 002.541-.368 10.354 10.354 0 003.509-2.067 8.807 8.807 0 002.827-6.469v-12.9a1.838 1.838 0 01-.038-.323 1.972 1.972 0 01.038-.413zm-25.827 39.374a25.05 25.05 0 0117.652 7.234 25.027 25.027 0 017.433 17.564v.473a25.01 25.01 0 01-4.446 14.097 25.03 25.03 0 01-39.111 2.579c-.118-.102-.178-.186-.161-.186l-.143-.177-.076-.093-.093-.102-1.428-1.815a1.7 1.7 0 01-.304-.346 25.059 25.059 0 01-1.507-25.856 25.072 25.072 0 0122.184-13.38v.008zm-13.514 37.396a18.337 18.337 0 0020.064 4.774 18.326 18.326 0 0011.803-16.907v-.397a18.343 18.343 0 00-5.566-12.699 18.356 18.356 0 00-12.866-5.179 18.355 18.355 0 00-12.817 5.297 18.342 18.342 0 00-5.449 12.75 18.174 18.174 0 003.175 10.267l1.521 1.908.118.177.017.009zM436.887 457h-79.476a14.88 14.88 0 01-10.513-4.389 14.942 14.942 0 01-4.347-10.547v-20.64a14.863 14.863 0 014.716-10.849l.097-.09a16.095 16.095 0 015.294-3.156l.247-.105c1.455-.464 2.972-.7 4.499-.699h27.231a32 32 0 0018.822-6.115 32.11 32.11 0 0011.649-16.026 3.003 3.003 0 012.339-2.059c.08-.007.161-.007.24 0h.293a3.102 3.102 0 012.362 1.105l28.146 35.237a14.99 14.99 0 013.299 9.392v14.005a14.959 14.959 0 01-4.361 10.561A14.895 14.895 0 01436.887 457zm-88.391-21.939v7.003a8.934 8.934 0 002.596 6.305 8.897 8.897 0 006.282 2.628h79.513a8.905 8.905 0 006.289-2.625 8.94 8.94 0 002.603-6.308v-14.02a9.201 9.201 0 00-2.009-5.62l-24.975-31.278a38.022 38.022 0 01-14.031 15.608 37.905 37.905 0 01-20.159 5.767h-.929c-.133.01-.265.01-.398 0h-25.904c-.86.006-1.715.13-2.542.368a10.377 10.377 0 00-3.509 2.066 8.818 8.818 0 00-2.827 6.469v12.901c.022.106.035.214.038.323.002.139-.011.277-.038.413zm25.828-39.374a25.05 25.05 0 01-17.653-7.234 25.031 25.031 0 01-7.433-17.564v-.473a25.017 25.017 0 0116.076-23.225 25.03 25.03 0 0127.482 6.55c.118.101.177.185.16.185l.144.178.076.093.093.101 1.427 1.815c.117.101.219.218.304.346a25.05 25.05 0 011.508 25.856 25.07 25.07 0 01-22.184 13.38v-.008zm13.514-37.395a18.334 18.334 0 00-28.571 1.862 18.316 18.316 0 00-3.297 10.271v.396a18.344 18.344 0 005.567 12.699 18.357 18.357 0 0025.682-.118 18.347 18.347 0 005.45-12.749 18.17 18.17 0 00-3.176-10.268l-1.52-1.908-.118-.177-.017-.008zm-153.002-43.965h79.475a14.884 14.884 0 0110.513 4.388 14.947 14.947 0 014.348 10.548v20.639a14.877 14.877 0 01-4.716 10.85l-.098.09a16.061 16.061 0 01-5.293 3.155l-.247.106c-1.455.464-2.973.7-4.499.698h-27.232a32 32 0 00-18.821 6.116 32.106 32.106 0 00-11.649 16.026 3.005 3.005 0 01-2.34 2.059c-.08.007-.16.007-.24 0h-.292a3.102 3.102 0 01-2.362-1.105l-28.146-35.237a14.99 14.99 0 01-3.299-9.392v-14.005a14.94 14.94 0 019.195-13.799 14.866 14.866 0 015.703-1.137zm88.39 21.939v-7.003a8.933 8.933 0 00-2.595-6.305 8.9 8.9 0 00-6.282-2.628h-79.513a8.902 8.902 0 00-6.289 2.625 8.941 8.941 0 00-2.604 6.308v14.02a9.198 9.198 0 002.01 5.62l24.975 31.278a38.016 38.016 0 0114.031-15.608 37.904 37.904 0 0120.158-5.767h.93c.132-.01.265-.01.397 0h25.905a9.428 9.428 0 002.542-.368 10.364 10.364 0 003.509-2.067 8.807 8.807 0 002.826-6.469v-12.9a1.837 1.837 0 010-.736zm-25.827 39.374a25.05 25.05 0 0117.652 7.234 25.027 25.027 0 017.433 17.564v.473a25.009 25.009 0 01-16.075 23.225 25.034 25.034 0 01-27.482-6.549c-.118-.102-.177-.186-.16-.186l-.144-.177-.076-.093-.093-.102-1.427-1.815a1.671 1.671 0 01-.304-.346 25.06 25.06 0 01-4.355-12.718 25.06 25.06 0 0125.031-26.518v.008zm-13.514 37.396a18.336 18.336 0 0020.064 4.774 18.324 18.324 0 0011.804-16.907v-.397a18.353 18.353 0 00-18.432-17.878 18.346 18.346 0 00-18.267 18.047 18.167 18.167 0 003.176 10.267l1.52 1.908.118.177.017.009zM245.168 457h-79.476a14.88 14.88 0 01-10.512-4.389 14.943 14.943 0 01-4.348-10.547v-20.64a14.898 14.898 0 011.234-5.915 14.852 14.852 0 013.482-4.934l.098-.09a16.08 16.08 0 015.293-3.156l.247-.105c1.455-.464 2.972-.7 4.499-.699h27.232a32 32 0 0018.821-6.115 32.11 32.11 0 0011.649-16.026 3.008 3.008 0 012.34-2.059c.079-.007.16-.007.24 0h.292a3.102 3.102 0 012.362 1.105l28.146 35.237a14.99 14.99 0 013.299 9.392v14.005a14.94 14.94 0 01-9.195 13.799 14.866 14.866 0 01-5.703 1.137zm-88.39-21.939v7.003a8.933 8.933 0 002.595 6.305 8.9 8.9 0 006.282 2.628h79.513a8.903 8.903 0 006.289-2.625 8.936 8.936 0 002.603-6.308v-14.02a9.195 9.195 0 00-2.009-5.62l-24.975-31.278a38.016 38.016 0 01-14.031 15.608 37.904 37.904 0 01-20.158 5.767h-.93a2.63 2.63 0 01-.397 0h-25.905c-.86.006-1.715.13-2.542.368a10.377 10.377 0 00-3.509 2.066 8.801 8.801 0 00-2.088 2.939 8.806 8.806 0 00-.738 3.53v12.901a1.837 1.837 0 010 .736z" fill="#EAEAEA" fill-opacity=".2"/><path d="M182.605 395.687a25.047 25.047 0 01-17.652-7.234 25.027 25.027 0 01-7.433-17.564v-.473a25.009 25.009 0 0116.075-23.225 25.034 25.034 0 0127.482 6.55c.118.101.177.185.16.185l.144.178.076.093.093.101 1.427 1.815c.117.101.219.218.304.346a25.058 25.058 0 01-7.721 35.633 25.075 25.075 0 01-12.955 3.603v-.008zm13.514-37.395a18.334 18.334 0 00-28.571 1.862 18.316 18.316 0 00-3.297 10.271v.396a18.344 18.344 0 005.567 12.699 18.358 18.358 0 0025.682-.118 18.342 18.342 0 005.45-12.749 18.17 18.17 0 00-3.176-10.268l-1.52-1.908-.118-.177-.017-.008z" fill="#00589B" fill-opacity=".2"/><path d="M43.12 314.327h79.477a14.881 14.881 0 0110.512 4.388 14.947 14.947 0 014.348 10.548v20.639a14.862 14.862 0 01-4.716 10.85l-.098.09a16.061 16.061 0 01-5.293 3.155l-.247.106c-1.455.464-2.972.7-4.499.698H95.372a32 32 0 00-18.82 6.116 32.107 32.107 0 00-11.65 16.026 3.004 3.004 0 01-2.34 2.059c-.08.007-.16.007-.24 0h-.292a3.102 3.102 0 01-2.362-1.105L31.522 352.66a14.987 14.987 0 01-3.3-9.392v-14.005a14.953 14.953 0 014.362-10.561 14.902 14.902 0 014.834-3.238 14.866 14.866 0 015.703-1.137zm88.391 21.939v-7.003a8.933 8.933 0 00-2.595-6.305 8.899 8.899 0 00-6.282-2.628H43.121a8.905 8.905 0 00-6.29 2.625 8.94 8.94 0 00-2.602 6.308v14.02a9.201 9.201 0 002.009 5.62l24.975 31.278a38.02 38.02 0 0114.031-15.608 37.905 37.905 0 0120.158-5.767h.93c.132-.01.265-.01.398 0h25.904a9.428 9.428 0 002.542-.368 10.364 10.364 0 003.509-2.067 8.804 8.804 0 002.826-6.469v-12.9a1.837 1.837 0 010-.736zm-25.827 39.374a25.047 25.047 0 0117.652 7.234 25.032 25.032 0 017.434 17.564v.473a25.017 25.017 0 01-16.076 23.225 25.033 25.033 0 01-27.482-6.549c-.118-.102-.177-.186-.16-.186l-.144-.177-.076-.093-.093-.102-1.427-1.815a1.683 1.683 0 01-.304-.346 25.055 25.055 0 017.721-35.633 25.073 25.073 0 0112.955-3.603v.008zM92.17 413.036a18.337 18.337 0 0020.064 4.774 18.324 18.324 0 0011.804-16.907v-.397a18.353 18.353 0 00-18.432-17.878 18.345 18.345 0 00-18.267 18.047c0 3.664 1.106 7.243 3.176 10.267l1.52 1.908.118.177.017.009zM53.451 457h-79.475a14.88 14.88 0 01-10.513-4.389 14.943 14.943 0 01-4.348-10.547v-20.64a14.887 14.887 0 014.716-10.849l.098-.09a16.087 16.087 0 015.293-3.156l.248-.105a14.77 14.77 0 014.498-.699H1.2a31.999 31.999 0 0018.821-6.115 32.111 32.111 0 0011.65-16.026 3.007 3.007 0 012.339-2.059c.08-.007.16-.007.24 0h.292a3.102 3.102 0 012.362 1.105l28.146 35.237a14.989 14.989 0 013.3 9.392v14.005a14.955 14.955 0 01-4.361 10.561A14.866 14.866 0 0153.452 457zm-88.39-21.939v7.003a8.933 8.933 0 002.596 6.305 8.897 8.897 0 006.281 2.628h79.513a8.905 8.905 0 006.29-2.625 8.94 8.94 0 002.603-6.308v-14.02a9.199 9.199 0 00-2.01-5.62L35.36 391.146a38.02 38.02 0 01-14.03 15.608 37.904 37.904 0 01-20.16 5.767H.24a2.63 2.63 0 01-.397 0h-25.905c-.86.006-1.715.13-2.541.368a10.372 10.372 0 00-3.51 2.066 8.808 8.808 0 00-2.826 6.469v12.901a1.847 1.847 0 010 .736z" fill="#EAEAEA" fill-opacity=".2"/><path d="M-9.112 395.687a25.05 25.05 0 01-17.652-7.234 25.03 25.03 0 01-7.433-17.564v-.473a25.013 25.013 0 0116.075-23.225 25.033 25.033 0 0127.482 6.55c.118.101.177.185.16.185l.144.178.076.093.093.101 1.427 1.815c.117.101.22.218.305.346a25.056 25.056 0 01-20.677 39.236v-.008zm13.514-37.395a18.336 18.336 0 00-20.064-4.775 18.326 18.326 0 00-11.804 16.908v.396a18.344 18.344 0 005.567 12.699 18.359 18.359 0 0025.683-.118 18.345 18.345 0 005.45-12.749c0-3.665-1.107-7.243-3.176-10.268l-1.52-1.908-.119-.177-.017-.008z" fill="#EAEAEA" fill-opacity=".2"/></svg>