<svg width="372" height="218" fill="none" xmlns="http://www.w3.org/2000/svg"><g clip-path="url(#clip0)" fill="#EAEAEA" fill-opacity=".2"><path d="M288.055 145.673h-79.476a14.88 14.88 0 01-10.513-4.389 14.943 14.943 0 01-4.347-10.548v-20.639a14.863 14.863 0 014.716-10.849l.097-.09a16.09 16.09 0 015.294-3.156l.247-.105c1.455-.464 2.972-.7 4.499-.699h27.231a32 32 0 0018.822-6.115 32.107 32.107 0 0011.649-16.026 3.002 3.002 0 012.339-2.059 1.3 1.3 0 01.24 0h.293a3.1 3.1 0 012.361 1.104l28.147 35.238a14.985 14.985 0 013.299 9.392v14.004a14.96 14.96 0 01-4.361 10.562 14.895 14.895 0 01-10.537 4.375zm-88.391-21.939v7.002a8.936 8.936 0 002.596 6.306 8.897 8.897 0 006.282 2.628h79.513a8.905 8.905 0 006.289-2.625 8.94 8.94 0 002.603-6.309v-14.019a9.201 9.201 0 00-2.009-5.62l-24.975-31.278a38.023 38.023 0 01-14.031 15.608 37.914 37.914 0 01-20.159 5.767h-.929a2.937 2.937 0 01-.398 0h-25.904c-.86.006-1.716.13-2.542.368a10.377 10.377 0 00-3.509 2.066 8.824 8.824 0 00-2.827 6.469v12.901c.022.106.035.214.038.323.002.138-.011.277-.038.413zm25.828-39.374a25.049 25.049 0 01-17.653-7.234 25.032 25.032 0 01-7.433-17.564v-.473a25.016 25.016 0 0116.076-23.225 25.032 25.032 0 0127.482 6.55c.118.1.177.185.16.185l.144.178.076.092.093.102 1.427 1.815c.117.101.219.217.304.346a25.047 25.047 0 011.508 25.856 25.074 25.074 0 01-22.184 13.38v-.008zm13.514-37.396a18.333 18.333 0 00-28.571 1.863 18.317 18.317 0 00-3.297 10.27v.397a18.355 18.355 0 0036.699-.169 18.168 18.168 0 00-3.176-10.267l-1.52-1.908-.118-.177-.017-.009zM86.008 3h79.475a14.883 14.883 0 0110.513 4.389 14.945 14.945 0 014.348 10.547v20.64a14.866 14.866 0 01-4.716 10.85l-.098.089a16.078 16.078 0 01-5.293 3.156l-.248.105c-1.454.464-2.972.7-4.498.698h-27.232a32.001 32.001 0 00-18.821 6.116 32.109 32.109 0 00-11.65 16.026 2.997 2.997 0 01-2.339 2.059 1.3 1.3 0 01-.24 0h-.292a3.095 3.095 0 01-2.362-1.105L74.409 41.333a14.987 14.987 0 01-3.3-9.392V17.936a14.955 14.955 0 014.362-10.56A14.896 14.896 0 0186.008 3zm88.39 21.939v-7.003a8.932 8.932 0 00-2.596-6.305 8.897 8.897 0 00-6.281-2.628H86.008a8.906 8.906 0 00-6.29 2.625 8.943 8.943 0 00-2.603 6.308v14.02a9.2 9.2 0 002.01 5.62L104.1 68.854a38.016 38.016 0 0114.031-15.608 37.91 37.91 0 0120.158-5.767h.93c.132-.01.265-.01.397 0h25.905a9.392 9.392 0 002.541-.368 10.36 10.36 0 003.509-2.066 8.81 8.81 0 002.827-6.469v-12.9a1.847 1.847 0 010-.737zm-25.831 39.374a25.048 25.048 0 0117.652 7.234 25.028 25.028 0 017.433 17.564v.473a25.01 25.01 0 01-16.075 23.225 25.034 25.034 0 01-27.482-6.55c-.118-.101-.177-.185-.16-.185l-.144-.178-.076-.093-.093-.101-1.427-1.815a1.697 1.697 0 01-.304-.346 25.06 25.06 0 01-4.355-12.719 25.06 25.06 0 0125.031-26.517v.008zm-13.514 37.395a18.334 18.334 0 0028.571-1.862 18.317 18.317 0 003.297-10.27v-.397a18.345 18.345 0 00-5.567-12.7 18.357 18.357 0 00-25.683.119 18.345 18.345 0 00-5.449 12.75 18.167 18.167 0 003.176 10.267l1.52 1.908.118.177.017.008zm-38.717 43.965H16.861a14.88 14.88 0 01-10.513-4.389A14.943 14.943 0 012 130.736v-20.639a14.888 14.888 0 014.716-10.849l.098-.09a16.082 16.082 0 015.293-3.156l.247-.105c1.455-.464 2.972-.7 4.499-.699h27.232a32 32 0 0018.82-6.115 32.108 32.108 0 0011.65-16.026 3.005 3.005 0 012.34-2.06c.08-.007.16-.007.24 0h.292a3.1 3.1 0 012.362 1.105l28.146 35.238a14.985 14.985 0 013.299 9.392v14.004a14.941 14.941 0 01-4.361 10.562 14.895 14.895 0 01-10.537 4.375zm-88.39-21.939v7.002a8.935 8.935 0 002.595 6.306 8.897 8.897 0 006.282 2.628h79.513a8.904 8.904 0 006.289-2.625 8.94 8.94 0 002.603-6.309v-14.019a9.195 9.195 0 00-2.009-5.62L78.244 79.819a38.02 38.02 0 01-14.031 15.608 37.914 37.914 0 01-20.158 5.767h-.93a2.926 2.926 0 01-.397 0H16.823c-.86.006-1.715.13-2.542.368a10.373 10.373 0 00-3.509 2.066 8.814 8.814 0 00-2.826 6.469v12.901a1.849 1.849 0 010 .736zM33.773 84.36a25.048 25.048 0 01-17.652-7.234 25.03 25.03 0 01-7.433-17.564v-.473a25.011 25.011 0 0116.075-23.225 25.034 25.034 0 0127.482 6.55c.118.1.177.185.16.185l.144.178.076.092.093.102 1.427 1.815c.117.101.22.217.304.346a25.054 25.054 0 01-7.721 35.633 25.075 25.075 0 01-12.955 3.603v-.008zm13.514-37.396a18.33 18.33 0 00-31.868 12.133v.397a18.344 18.344 0 005.567 12.699 18.357 18.357 0 0025.682-.118 18.344 18.344 0 005.45-12.75c0-3.664-1.106-7.242-3.176-10.267l-1.52-1.908-.118-.177-.017-.009zm230.435 112.085h79.476a14.884 14.884 0 0110.513 4.388 14.947 14.947 0 014.348 10.548v20.639a14.891 14.891 0 01-4.716 10.85l-.098.09a16.088 16.088 0 01-5.293 3.155l-.248.106c-1.454.464-2.972.7-4.498.698h-27.232a32 32 0 00-18.821 6.116 32.107 32.107 0 00-11.65 16.026 2.995 2.995 0 01-2.339 2.059c-.08.007-.16.007-.24 0h-.292a3.106 3.106 0 01-2.362-1.105l-28.147-35.237a14.99 14.99 0 01-3.299-9.392v-14.005a14.959 14.959 0 014.361-10.561 14.866 14.866 0 0110.537-4.375zm88.391 21.939v-7.003a8.934 8.934 0 00-2.596-6.305 8.896 8.896 0 00-6.281-2.628h-79.514a8.908 8.908 0 00-6.289 2.624 8.944 8.944 0 00-2.603 6.309v14.02a9.198 9.198 0 002.01 5.62l24.974 31.278a38.025 38.025 0 0114.032-15.608 37.904 37.904 0 0120.158-5.767h.93c.132-.01.265-.01.397 0h25.905a9.415 9.415 0 002.541-.368 10.354 10.354 0 003.509-2.067 8.807 8.807 0 002.827-6.469v-12.9a1.838 1.838 0 01-.038-.323 1.972 1.972 0 01.038-.413zm-140.621 59.421a25.05 25.05 0 01-17.653-7.234 25.033 25.033 0 01-7.433-17.564v-.473a25.015 25.015 0 0116.076-23.225 25.039 25.039 0 0127.482 6.549c.118.102.177.186.16.186l.144.177.076.093.093.102 1.427 1.815c.117.101.219.217.304.346a25.05 25.05 0 011.508 25.856 25.077 25.077 0 01-22.184 13.38v-.008zm13.514-37.396a18.34 18.34 0 00-20.064-4.774 18.319 18.319 0 00-11.804 16.907v.397a18.344 18.344 0 005.567 12.699 18.356 18.356 0 0031.132-12.868 18.167 18.167 0 00-3.176-10.267l-1.52-1.908-.118-.177-.017-.009zM86.008 159.049h79.475a14.884 14.884 0 0110.513 4.388 14.947 14.947 0 014.348 10.548v20.639a14.877 14.877 0 01-4.716 10.85l-.098.09a16.078 16.078 0 01-5.293 3.155l-.248.106c-1.454.464-2.972.7-4.498.698h-27.232a32 32 0 00-18.821 6.116 32.107 32.107 0 00-11.65 16.026 2.995 2.995 0 01-2.339 2.059c-.08.007-.16.007-.24 0h-.292a3.098 3.098 0 01-2.362-1.105l-28.146-35.237a14.989 14.989 0 01-3.3-9.392v-14.005a14.953 14.953 0 014.362-10.561 14.866 14.866 0 0110.537-4.375zm88.39 21.939v-7.003a8.93 8.93 0 00-2.596-6.305 8.896 8.896 0 00-6.281-2.628H86.008a8.908 8.908 0 00-6.29 2.624 8.944 8.944 0 00-2.603 6.309v14.02a9.2 9.2 0 002.01 5.62l24.975 31.278a38.016 38.016 0 0114.031-15.608 37.904 37.904 0 0120.158-5.767h.93c.132-.01.265-.01.397 0h25.905a9.415 9.415 0 002.541-.368 10.354 10.354 0 003.509-2.067 8.807 8.807 0 002.827-6.469v-12.9a1.837 1.837 0 010-.736zM33.773 240.409a25.05 25.05 0 01-17.652-7.234 25.03 25.03 0 01-7.433-17.564v-.473a25.024 25.024 0 0116.075-23.225 25.035 25.035 0 0127.482 6.549c.118.102.177.186.16.186l.144.177.076.093.093.102 1.427 1.815c.117.101.22.217.304.346a25.056 25.056 0 01-20.676 39.236v-.008zm13.514-37.396a18.337 18.337 0 00-20.064-4.774 18.319 18.319 0 00-11.804 16.907v.397a18.344 18.344 0 005.567 12.699 18.358 18.358 0 0025.682-.118 18.345 18.345 0 005.45-12.75c0-3.664-1.106-7.243-3.176-10.267l-1.52-1.908-.118-.177-.017-.009z"/></g><defs><clipPath id="clip0"><path fill="#fff" d="M0 0h372v218H0z"/></clipPath></defs></svg>