<svg width="119" height="138" fill="none" xmlns="http://www.w3.org/2000/svg"><path d="M115.939 45.23c-1.309 5.561-4.567 15.387-12.983 24.247-.852.9-2.301.945-3.216.108-2.017-1.84-4.552-3.006-7.242-3.427a2.279 2.279 0 00-2.623 2.513 23.025 23.025 0 01-1.272 10.671 2.297 2.297 0 01-1.198 1.28c-9.16 4.241-18.362 5.178-23.806 5.305-2.186.052-4.146-.034-4.599-.09 0-1.345 1.74-15.82 11.095-27.233 10.758-13.13 27.599-18.459 43.938-16.13 1.329.19 2.212 1.46 1.906 2.756z" fill="#998DC4"/><g opacity=".726" fill="#fff"><mask id="a"><path fill-rule="evenodd" clip-rule="evenodd" d="M118.961 43.056c-3.344 17.922-15.007 29.69-16.674 30.286v55.471c0 5.034-4.101 9.13-9.143 9.13H9.143c-5.042 0-9.143-4.096-9.143-9.13V10.116C0 5.082 4.101.986 9.143.986c68.122 0 64.082-.294 65.046.668 29.415 29.376 27.695 27.513 27.955 28.215a2.278 2.278 0 01-1.139 2.84c-.683.333.517.234-21.575.234-8.714 0-11.657-11.413-6.858-11.413a2.284 2.284 0 012.286 2.282 4.574 4.574 0 004.572 4.566h15.053L71.625 5.55H9.144a4.574 4.574 0 00-4.572 4.566v118.696a4.574 4.574 0 004.572 4.565h84.001a4.574 4.574 0 004.572-4.565v-58.2c-1.552-1.195-3.335-1.942-5.29-2.25.638 5.474-.852 12.978-2.875 13.968-4.508 2.21-9.398 3.832-14.534 4.823-2.963.576-3.837-3.91-.867-4.483 4.436-.856 8.667-2.219 12.59-4.056 1.38-3.78 1.702-7.942.723-12.153-1.135-4.88 9.871-2.858 14.149 1.383 7.668-8.172 10.968-17.376 12.376-23.358-6.808-.985-19.905-1.361-32.305 6.824-21.329 14.079-20.534 40.424-20.49 41.539.12 3.028-4.448 3.183-4.567.181-.049-1.22-.918-30.047 22.536-45.528 15.393-10.16 31.7-8.352 37.997-7.103a2.284 2.284 0 011.801 2.657zM46.286 95.715c0-8.496-6.92-15.408-15.428-15.408-8.508 0-15.43 6.912-15.43 15.407 0 3.016 4.572 3.02 4.572 0 0-5.978 4.87-10.842 10.858-10.842 5.986 0 10.857 4.864 10.857 10.843 0 8.293-9.441 14.733-18.321 7.889-1.503-1.164-3.68-.067-3.68 1.807 0 22.301-2.184 20.599 11.144 15.776l8.078 2.924c2.873 1.04 4.37-3.275 1.557-4.292-9.56-3.46-9.376-3.582-10.414-3.205l-5.793 2.096v-9.057c10.229 4.813 22-2.687 22-13.939z"/></mask><path d="M102.287 73.342l-.336-.942-.664.237v.705h1zM74.189 1.654l-.707.708.707-.708zm27.955 28.215l-.939.347h.001l.938-.347zm-1.139 2.84l-.438-.899.438.899zm-6.522-4.332v1h2.416l-1.71-1.707-.706.707zM71.625 5.552l.707-.707-.293-.293h-.413v1zm26.09 65.061h1v-.492l-.39-.3-.61.792zm-5.288-2.249l.155-.988-1.301-.205.152 1.309.994-.116zM89.55 82.331l-.44-.898.44.898zm-14.534 4.823l-.19-.982.19.982zm-.867-4.483l.19.982-.19-.982zm12.59-4.056l.424.906.374-.175.141-.388-.939-.343zm.723-12.153l-.974.227.974-.227zm14.149 1.383l-.704.71.729.724.704-.75-.729-.684zm12.376-23.358l.973.23.251-1.063-1.081-.156-.143.99zm-32.305 6.824l-.55-.835.55.835zM61.194 92.849l1-.04-1 .04zm-4.567.181l.999-.04-1 .04zm22.536-45.528l.55.835-.55-.835zM117.16 40.4l.195-.981h-.001l-.194.98zm-93.766 63.205l-.613.791.002.001.61-.792zm7.464 17.583l.34-.94-.34-.123-.34.123.34.94zm8.078 2.924l.34-.94-.34.94zm1.557-4.292l-.34.94.34-.94zm-10.414-3.205l.34.94-.34-.94zm-5.793 2.096h-1v1.425l1.34-.485-.34-.94zm0-9.057l.426-.905-1.426-.67v1.575h1zm93.692-66.78c-1.641 8.797-5.327 16.093-8.812 21.265-1.742 2.585-3.427 4.63-4.769 6.056a22.51 22.51 0 01-1.701 1.65 7.18 7.18 0 01-.554.435c-.157.11-.214.13-.191.121l.672 1.884c.231-.083.461-.225.659-.362.213-.147.453-.335.712-.556a24.475 24.475 0 001.86-1.802c1.418-1.507 3.17-3.637 4.97-6.309 3.6-5.341 7.417-12.89 9.12-22.015l-1.966-.367zm-16.691 30.469v55.471h2V73.342h-2zm0 55.471c0 4.481-3.652 8.13-8.143 8.13v2c5.593 0 10.143-4.542 10.143-10.13h-2zm-8.143 8.13H9.143v2h84.001v-2zm-84.001 0c-4.49 0-8.143-3.649-8.143-8.13h-2c0 5.588 4.55 10.13 10.143 10.13v-2zM1 128.813V10.116h-2v118.697h2zM1 10.116c0-4.48 3.652-8.13 8.143-8.13v-2C3.55-.014-1 4.528-1 10.116h2zm8.143-8.13c34.069 0 50.079-.074 57.7-.027 3.84.023 5.48.078 6.225.176.383.05.353.095.252.02-.055-.04-.083-.08-.058-.048.02.026.107.142.22.255L74.895.947l-.062-.078a1.677 1.677 0 00-.331-.327c-.33-.242-.735-.332-1.173-.39-.898-.118-2.686-.17-6.473-.193-7.63-.047-23.66.027-57.713.027v2zm64.34.376c14.71 14.69 21.63 21.565 24.908 24.858 1.65 1.657 2.351 2.38 2.659 2.734.161.183.15.196.122.138-.02-.042-.029-.078-.026-.067.004.014.025.097.059.19l1.877-.692-.008-.028a1.501 1.501 0 00-.097-.266c-.099-.206-.247-.392-.421-.591-.361-.414-1.118-1.192-2.748-2.83C96.528 22.515 89.6 15.632 74.895.948l-1.413 1.415zm27.723 27.854a1.277 1.277 0 01-.639 1.594l.877 1.798a3.278 3.278 0 001.638-4.085l-1.876.693zm-.639 1.594l-.132.067c-.021.011-.017.009-.006.005.031-.012.026-.003-.09.01-.264.03-.81.05-2.1.059-2.542.017-7.755-.008-18.81-.008v2c11.039 0 16.273.025 18.824.008 1.257-.009 1.92-.027 2.313-.072.214-.024.4-.061.582-.131.087-.034.156-.069.203-.093.057-.029.062-.033.093-.047l-.877-1.798zm-21.137.133c-3.865 0-6.47-2.522-7.578-5.101-.558-1.302-.682-2.499-.487-3.29.094-.385.25-.629.42-.775.158-.137.397-.247.787-.247v-2c-.81 0-1.529.245-2.094.733-.554.478-.887 1.126-1.056 1.811-.33 1.348-.074 3.005.593 4.557 1.342 3.127 4.565 6.312 9.415 6.312v-2zm-6.858-9.413c.712 0 1.286.575 1.286 1.282h2a3.284 3.284 0 00-3.286-3.282v2zm1.286 1.282c0 3.071 2.5 5.566 5.572 5.566v-2a3.574 3.574 0 01-3.572-3.566h-2zm5.572 5.566h15.053v-2H79.43v2zm15.76-1.708L72.332 4.844 70.92 6.259l22.857 22.826 1.414-1.415zM71.626 4.55H9.143v2h62.483v-2zm-62.483 0a5.574 5.574 0 00-5.572 5.566h2A3.574 3.574 0 019.143 6.55v-2zm-5.572 5.566v118.696h2V10.117h-2zm0 118.696c0 3.071 2.5 5.565 5.572 5.565v-2a3.573 3.573 0 01-3.572-3.565h-2zm5.572 5.565h84.001v-2H9.143v2zm84.001 0a5.573 5.573 0 005.572-5.565h-2a3.573 3.573 0 01-3.572 3.565v2zm5.572-5.565v-58.2h-2v58.2h2zm-.39-58.993c-1.69-1.301-3.632-2.112-5.744-2.445l-.311 1.976c1.796.283 3.422.966 4.834 2.054l1.22-1.585zm-6.893-1.341c.305 2.616.102 5.753-.426 8.35-.264 1.298-.602 2.424-.977 3.264-.187.42-.373.745-.548.978-.18.24-.311.333-.37.362l.879 1.796c.446-.218.804-.576 1.09-.958a7.09 7.09 0 00.776-1.363c.453-1.017.828-2.294 1.11-3.68.563-2.77.786-6.122.453-8.98l-1.987.23zm-2.322 12.954c-4.425 2.169-9.23 3.764-14.283 4.739l.378 1.964c5.22-1.007 10.195-2.657 14.785-4.907l-.88-1.796zm-14.285 4.74c-.471.09-.787-.023-1.002-.188a1.38 1.38 0 01-.484-.832 1.382 1.382 0 01.138-.952c.137-.233.388-.456.861-.548l-.379-1.963c-1.01.195-1.764.747-2.206 1.498-.429.728-.526 1.578-.377 2.346.149.767.557 1.52 1.226 2.035.69.531 1.594.763 2.605.566l-.382-1.963zm-.487-2.52c4.514-.87 8.825-2.259 12.825-4.132l-.848-1.812c-3.845 1.8-7.997 3.14-12.356 3.98l.38 1.964zm13.34-4.695c1.445-3.958 1.782-8.318.758-12.722l-1.948.453c.934 4.017.627 7.981-.688 11.583l1.878.686zm.758-12.722c-.103-.443-.046-.697.028-.844.074-.15.227-.315.545-.46.68-.312 1.854-.413 3.363-.208 2.995.405 6.591 1.904 8.535 3.83l1.408-1.42c-2.334-2.314-6.38-3.946-9.674-4.392-1.636-.222-3.268-.177-4.466.372-.621.285-1.175.73-1.502 1.387-.328.66-.366 1.41-.186 2.188l1.949-.453zm13.904 2.293c7.826-8.34 11.187-17.724 12.62-23.812l-1.946-.459c-1.383 5.875-4.622 14.898-12.133 22.902l1.459 1.369zm11.79-25.031c-6.928-1.003-20.31-1.397-32.999 6.978l1.102 1.67c12.112-7.995 24.922-7.637 31.611-6.669l.286-1.98zm-32.999 6.978C70.21 57.686 64.968 68.03 62.464 76.663c-2.503 8.627-2.293 15.61-2.269 16.226l1.999-.08c-.02-.498-.23-7.245 2.19-15.589 2.42-8.338 7.445-18.206 17.85-25.075l-1.102-1.669zM60.195 92.89c.02.483-.141.778-.336.964-.214.203-.535.335-.895.348a1.395 1.395 0 01-.926-.283c-.212-.172-.393-.453-.412-.928l-1.998.08c.04 1.026.474 1.852 1.149 2.4.655.532 1.479.759 2.26.73.782-.029 1.588-.315 2.2-.899.632-.601.998-1.461.957-2.492l-1.999.08zm-2.57.101c-.021-.55-.25-7.944 2.416-17.096 2.666-9.147 8.204-19.987 19.673-27.557l-1.102-1.67c-11.984 7.911-17.74 19.225-20.49 28.668C55.371 84.77 55.6 92.4 55.626 93.07l1.999-.08zm22.089-44.653c15.071-9.949 31.06-8.185 37.251-6.957l.389-1.962c-6.402-1.27-23.027-3.124-38.742 7.25l1.102 1.669zm37.251-6.958a1.284 1.284 0 011.013 1.494l1.966.367a3.283 3.283 0 00-2.589-3.822l-.39 1.962zM47.286 95.715c0-9.05-7.37-16.408-16.428-16.408v2c7.956 0 14.428 6.465 14.428 14.407h2zM30.858 79.306c-9.059 0-16.43 7.358-16.43 16.407h2c0-7.942 6.473-14.407 14.43-14.407v-2zm-16.43 16.407c0 1.03.401 1.873 1.054 2.448.634.558 1.45.816 2.232.816.782 0 1.598-.256 2.233-.815C20.6 97.588 21 96.744 21 95.715h-2c0 .48-.171.768-.375.947-.222.196-.55.316-.91.316-.361 0-.688-.12-.911-.317-.204-.18-.375-.468-.375-.947h-2zm6.572 0c0-5.424 4.422-9.842 9.858-9.842v-2C24.32 83.872 19 89.182 19 95.715h2zm9.858-9.842c5.435 0 9.857 4.418 9.857 9.843h2c0-6.533-5.32-11.843-11.858-11.843v2zm9.857 9.843c0 3.765-2.145 7.109-5.29 8.732-3.101 1.601-7.267 1.567-11.42-1.635l-1.222 1.584c4.726 3.643 9.721 3.81 13.56 1.828 3.796-1.959 6.372-5.981 6.372-10.51h-2zm-16.709 7.099c-2.17-1.682-5.291-.094-5.291 2.597h2c0-1.056 1.232-1.663 2.066-1.016l1.225-1.581zm-5.291 2.597c0 2.779-.035 5.186-.068 7.262-.034 2.072-.067 3.829-.066 5.291.002 1.457.039 2.662.152 3.627.111.945.307 1.781.712 2.417.451.709 1.114 1.094 1.922 1.181.728.079 1.547-.084 2.408-.336 1.703-.499 4.18-1.552 7.423-2.725l-.68-1.881c-3.422 1.238-5.67 2.207-7.305 2.686-.809.237-1.312.303-1.63.268-.237-.026-.343-.097-.451-.267-.156-.245-.311-.711-.413-1.576-.099-.844-.136-1.953-.138-3.397-.001-1.439.032-3.171.066-5.255.033-2.08.068-4.499.068-7.295h-2zm11.802 16.717l8.079 2.923.68-1.88-8.078-2.924-.68 1.881zm8.079 2.923c.972.352 1.905.268 2.671-.152.745-.407 1.26-1.091 1.522-1.828.262-.737.292-1.591-.018-2.374-.32-.807-.974-1.47-1.937-1.819l-.68 1.881c.442.16.656.418.757.674.11.279.114.63-.006.969-.12.339-.342.602-.598.743-.235.129-.567.194-1.03.026l-.681 1.88zm2.238-6.173c-4.75-1.718-7.135-2.629-8.434-3.051-.642-.209-1.129-.338-1.555-.357-.491-.022-.836.105-1.107.203l.681 1.881c.249-.09.27-.089.336-.086.13.006.39.053 1.026.261 1.259.409 3.561 1.289 8.372 3.03l.68-1.881zm-11.096-3.205l-5.792 2.097.68 1.88 5.793-2.096-.68-1.881zm-4.452 3.037v-9.057h-2v9.057h2zm-1.426-8.152c10.893 5.125 23.426-2.859 23.426-14.844h-2c0 10.519-11.009 17.535-20.574 13.034l-.852 1.81z" mask="url(#a)"/></g></svg>