<svg width="575" height="1135" viewBox="0 0 575 1135" fill="none" xmlns="http://www.w3.org/2000/svg">
<path d="M0 0C173.398 24.2645 400.703 25.351 575 0V1135C395.312 1106.39 161.719 1114.72 0 1135V0Z" fill="#F4F8FB"/>
<g filter="url(#filter0_f)">
<path d="M347.5 519.528C333.5 527.611 333.5 547.818 347.5 555.901L404.071 588.562C418.071 596.645 435.571 586.542 435.571 570.376L435.571 505.053C435.571 488.887 418.071 478.783 404.071 486.866L347.5 519.528Z" fill="url(#paint0_linear)"/>
</g>
<g filter="url(#filter1_f)">
<path d="M331.5 989.742C317.5 997.825 317.5 1018.03 331.5 1026.12L398.25 1064.65C412.25 1072.74 429.75 1062.63 429.75 1046.47L429.75 969.391C429.75 953.225 412.25 943.121 398.25 951.204L331.5 989.742Z" fill="url(#paint1_linear)"/>
</g>
<defs>
<filter id="filter0_f" x="321" y="468.021" width="130.572" height="139.386" filterUnits="userSpaceOnUse" color-interpolation-filters="sRGB">
<feFlood flood-opacity="0" result="BackgroundImageFix"/>
<feBlend mode="normal" in="SourceGraphic" in2="BackgroundImageFix" result="shape"/>
<feGaussianBlur stdDeviation="8" result="effect1_foregroundBlur"/>
</filter>
<filter id="filter1_f" x="305" y="932.359" width="140.75" height="151.139" filterUnits="userSpaceOnUse" color-interpolation-filters="sRGB">
<feFlood flood-opacity="0" result="BackgroundImageFix"/>
<feBlend mode="normal" in="SourceGraphic" in2="BackgroundImageFix" result="shape"/>
<feGaussianBlur stdDeviation="8" result="effect1_foregroundBlur"/>
</filter>
<linearGradient id="paint0_linear" x1="325.407" y1="533.426" x2="461.082" y2="521.515" gradientUnits="userSpaceOnUse">
<stop stop-color="#C3DFF8"/>
<stop offset="1" stop-color="#F4F8FB"/>
</linearGradient>
<linearGradient id="paint1_linear" x1="310.208" y1="1003.28" x2="457.433" y2="990.35" gradientUnits="userSpaceOnUse">
<stop stop-color="#C3DFF8"/>
<stop offset="1" stop-color="#F4F8FB"/>
</linearGradient>
</defs>
</svg>
