<svg width="163" height="164" viewBox="0 0 163 164" fill="none" xmlns="http://www.w3.org/2000/svg">
<g clip-path="url(#clip0)">
<path fill-rule="evenodd" clip-rule="evenodd" d="M0.164673 59.0586H81.3028V142.732L0.164673 59.0586Z" fill="#00A2A7"/>
<path fill-rule="evenodd" clip-rule="evenodd" d="M81.2917 142.732L81.3028 59.0587H162.441L81.2917 142.732Z" fill="#007A7D"/>
<path fill-rule="evenodd" clip-rule="evenodd" d="M81.3323 142.732L15.3781 59.0587H81.3028V93.5126L81.3323 142.732Z" fill="#107275" fill-opacity="0.35"/>
<path fill-rule="evenodd" clip-rule="evenodd" d="M81.3027 127.966L45.8048 59.0586H81.3027V127.966Z" fill="#0B7577" fill-opacity="0.3"/>
<path fill-rule="evenodd" clip-rule="evenodd" d="M81.3031 142.732L147.257 59.0586H81.3326V93.5125L81.3031 142.732Z" fill="#086062" fill-opacity="0.35"/>
<path opacity="0.4" fill-rule="evenodd" clip-rule="evenodd" d="M81.3326 93.5126L162.441 59.0587H81.3326V93.5126Z" fill="url(#paint0_linear)"/>
<path fill-rule="evenodd" clip-rule="evenodd" d="M81.3326 127.967L116.831 59.0587H81.3326V127.967Z" fill="#086062" fill-opacity="0.3"/>
<path opacity="0.5" fill-rule="evenodd" clip-rule="evenodd" d="M81.3028 93.5125L0.164673 59.0586H81.3028V93.5125Z" fill="#49D9DD"/>
<path fill-rule="evenodd" clip-rule="evenodd" d="M81.3028 59.0586H0.164673L33.127 21.0251L81.3028 59.0586Z" fill="#3ADADE"/>
<path fill-rule="evenodd" clip-rule="evenodd" d="M81.3029 59.0586H162.441L129.479 21.0251L81.3029 59.0586Z" fill="#35B7BB"/>
<path fill-rule="evenodd" clip-rule="evenodd" d="M81.3029 66.6653V36.2385L96.5162 21.0251H129.479L83.8384 66.6653H81.3029Z" fill="url(#paint1_linear)"/>
<path fill-rule="evenodd" clip-rule="evenodd" d="M78.7673 66.6653L33.1271 21.0251H66.0894L81.3028 36.2385V66.6653H78.7673Z" fill="url(#paint2_linear)"/>
<path fill-rule="evenodd" clip-rule="evenodd" d="M20.4492 56.5231L33.127 21.0251L50.876 56.5231H20.4492Z" fill="#107275" fill-opacity="0.172549"/>
<path fill-rule="evenodd" clip-rule="evenodd" d="M33.1271 21.0251L35.6626 56.5231H43.2693L33.1271 21.0251Z" fill="#107275" fill-opacity="0.12549"/>
<path fill-rule="evenodd" clip-rule="evenodd" d="M0.164673 59.0586L33.127 21.0251L48.3404 36.2385L0.164673 59.0586Z" fill="#8BFCFF" fill-opacity="0.152941"/>
<path fill-rule="evenodd" clip-rule="evenodd" d="M142.156 56.5231L129.479 21.0251L111.73 56.5231H142.156Z" fill="#107275" fill-opacity="0.172549"/>
<path fill-rule="evenodd" clip-rule="evenodd" d="M129.478 21.0251L126.943 56.5231H119.336L129.478 21.0251Z" fill="#107275" fill-opacity="0.12549"/>
<path fill-rule="evenodd" clip-rule="evenodd" d="M162.441 59.0586L129.479 21.0251L114.265 36.2385L162.441 59.0586Z" fill="#8BFCFF" fill-opacity="0.152941"/>
<path fill-rule="evenodd" clip-rule="evenodd" d="M55.9471 43.8452L81.3028 36.2385V69.2009L55.9471 43.8452Z" fill="#1BC1C5" fill-opacity="0.254902"/>
<path fill-rule="evenodd" clip-rule="evenodd" d="M33.1271 21.0251L81.3028 36.2385L66.0894 21.0251H33.1271Z" fill="#1BC1C5" fill-opacity="0.254902"/>
<path fill-rule="evenodd" clip-rule="evenodd" d="M81.3028 69.2009L55.9471 21.0251H66.0894L81.3028 69.2009Z" fill="white" fill-opacity="0.254902"/>
<path fill-rule="evenodd" clip-rule="evenodd" d="M106.658 43.8452L81.3027 36.2385V69.2009L106.658 43.8452Z" fill="#1BC1C5" fill-opacity="0.254902"/>
<path fill-rule="evenodd" clip-rule="evenodd" d="M129.479 21.0251L81.3029 36.2385L96.5162 21.0251H129.479Z" fill="#1BC1C5" fill-opacity="0.254902"/>
<path fill-rule="evenodd" clip-rule="evenodd" d="M81.3029 69.2009L106.658 21.0251H96.5162L81.3029 69.2009Z" fill="white" fill-opacity="0.254902"/>
<path fill-rule="evenodd" clip-rule="evenodd" d="M104.123 46.3809L116.801 59.0587L81.3029 94.5566L45.8049 59.0587L58.4828 46.3809L81.3029 69.2009L104.123 46.3809Z" fill="url(#paint3_linear)" stroke="white" stroke-width="4"/>
<path fill-rule="evenodd" clip-rule="evenodd" d="M5.23581 56.5231H48.3404V61.5942H5.23581L0.164673 59.0586L5.23581 56.5231Z" fill="url(#paint4_linear)"/>
<path fill-rule="evenodd" clip-rule="evenodd" d="M157.37 56.5229H114.265V61.5941H157.37L162.441 59.0585L157.37 56.5229Z" fill="url(#paint5_linear)"/>
<path fill-rule="evenodd" clip-rule="evenodd" d="M78.7672 138.926V92.021H83.8383V138.926L81.3028 142.732L78.7672 138.926Z" fill="url(#paint6_linear)"/>
<path fill-rule="evenodd" clip-rule="evenodd" d="M83.8382 38.7741V66.6653H78.7671V38.7741L81.3027 36.2385L83.8382 38.7741Z" fill="url(#paint7_linear)"/>
<path fill-rule="evenodd" clip-rule="evenodd" d="M37.4556 21.7677L60.2757 44.5878L56.6901 48.1735L33.87 25.3535L33.1271 21.0251L37.4556 21.7677Z" fill="url(#paint8_linear)"/>
<path fill-rule="evenodd" clip-rule="evenodd" d="M125.15 21.7677L102.33 44.5878L105.915 48.1735L128.736 25.3535L129.478 21.0251L125.15 21.7677Z" fill="url(#paint9_linear)"/>
</g>
<defs>
<linearGradient id="paint0_linear" x1="156.068" y1="61.0856" x2="74.7877" y2="100.078" gradientUnits="userSpaceOnUse">
<stop stop-color="#8CFCFF"/>
<stop offset="1" stop-color="#8CFCFF"/>
</linearGradient>
<linearGradient id="paint1_linear" x1="110.967" y1="42.5426" x2="91.6828" y2="30.71" gradientUnits="userSpaceOnUse">
<stop stop-color="#D9FFFF"/>
<stop offset="1" stop-color="#A2FDFF"/>
</linearGradient>
<linearGradient id="paint2_linear" x1="51.598" y1="50.4846" x2="70.1429" y2="31.272" gradientUnits="userSpaceOnUse">
<stop stop-color="#A8FDFF"/>
<stop offset="1" stop-color="#7EFCFF"/>
</linearGradient>
<linearGradient id="paint3_linear" x1="81.3029" y1="90.1428" x2="81.3029" y2="45.0662" gradientUnits="userSpaceOnUse">
<stop stop-color="#1A7274"/>
<stop offset="1" stop-color="#136062"/>
</linearGradient>
<linearGradient id="paint4_linear" x1="43.2693" y1="59.0586" x2="0.16467" y2="59.0586" gradientUnits="userSpaceOnUse">
<stop stop-color="white"/>
<stop offset="1" stop-color="white" stop-opacity="0"/>
</linearGradient>
<linearGradient id="paint5_linear" x1="119.336" y1="59.0585" x2="162.441" y2="59.0585" gradientUnits="userSpaceOnUse">
<stop stop-color="white"/>
<stop offset="1" stop-color="white" stop-opacity="0"/>
</linearGradient>
<linearGradient id="paint6_linear" x1="81.3028" y1="97.0921" x2="81.3028" y2="137.661" gradientUnits="userSpaceOnUse">
<stop stop-color="white"/>
<stop offset="1" stop-color="white" stop-opacity="0"/>
</linearGradient>
<linearGradient id="paint7_linear" x1="82.3045" y1="65.1002" x2="82.3045" y2="35.049" gradientUnits="userSpaceOnUse">
<stop stop-color="white"/>
<stop offset="1" stop-color="white" stop-opacity="0"/>
</linearGradient>
<linearGradient id="paint8_linear" x1="61.0183" y1="46.3808" x2="35.6626" y2="21.0252" gradientUnits="userSpaceOnUse">
<stop stop-color="white"/>
<stop offset="0.340332" stop-color="white"/>
<stop offset="1" stop-color="white" stop-opacity="0"/>
</linearGradient>
<linearGradient id="paint9_linear" x1="101.587" y1="46.3808" x2="126.943" y2="21.0251" gradientUnits="userSpaceOnUse">
<stop stop-color="white"/>
<stop offset="0.340332" stop-color="white"/>
<stop offset="1" stop-color="white" stop-opacity="0"/>
</linearGradient>
<clipPath id="clip0">
<rect width="162.276" height="162.276" fill="white" transform="translate(0.164673 0.740601)"/>
</clipPath>
</defs>
</svg>
