<svg width="436" height="475" viewBox="0 0 436 475" fill="none" xmlns="http://www.w3.org/2000/svg">
<g clip-path="url(#clip0)">
<path d="M39.0774 77.5714C39.0774 77.5714 27.9399 81.2064 38.7384 105.076C49.537 128.946 57.2485 140.918 57.2485 140.918C57.2485 140.918 59.1007 146.431 54.5004 147.061C49.9002 147.691 39.9732 145.619 37.6489 151.108C35.2277 156.791 39.2227 162.449 47.5153 167.647C55.8079 172.845 73.5674 184.877 75.1654 185.968C76.7634 187.058 78.2403 189.603 75.1654 190.572C72.0905 191.541 49.4159 192.802 50.6749 203.537C51.934 214.272 77.4292 224.984 80.1652 226.195C82.9011 227.407 83.5428 228.619 83.2401 230.17C82.9375 231.72 75.2744 231.381 68.834 232.06C62.3936 232.738 55.0452 234.556 56.2921 240.687C57.5391 246.818 72.2963 260.28 109.413 265.684L126.773 267.065L136.918 252.804C156.796 220.973 156.07 201.005 152.208 196.085C148.346 191.166 142.16 195.576 137.523 200.084C132.887 204.591 128.129 210.625 126.773 209.862C125.417 209.099 124.873 207.838 125.72 204.942C126.568 202.047 134.933 175.693 127.56 167.793C120.188 159.892 104.559 176.371 101.847 178.116C99.1353 179.861 98.1547 177.026 98.3484 175.123C98.5421 173.221 100.842 151.859 102.247 142.166C103.651 132.472 101.895 125.808 96.0241 123.991C90.3584 122.197 85.4918 131.139 82.0416 134.241C78.5914 137.343 75.5891 132.363 75.5891 132.363C75.5891 132.363 71.461 118.768 60.2266 95.068C48.9922 71.3677 38.8353 77.7532 38.8353 77.7532" fill="#EBEBEB"/>
<path d="M127.5 271.172C119.316 253.724 105.297 222.487 93.1185 195.734C80.9399 168.98 69.8992 144.771 61.8003 127.298L52.2002 106.603L49.5974 100.981L48.9316 99.5026C48.8402 99.33 48.7593 99.1519 48.6895 98.9695C48.6895 98.9695 48.7863 99.127 48.9558 99.4541L49.67 100.908C50.2874 102.205 51.1954 104.083 52.3697 106.494C54.7061 111.341 58.0353 118.38 62.1271 127.092C70.3108 144.528 81.412 168.713 93.6027 195.467C105.793 222.221 119.752 253.531 127.851 271.027" fill="#E0E0E0"/>
<path d="M51.4746 154.561C51.89 154.655 52.2953 154.789 52.6852 154.961C53.4358 155.24 54.5253 155.688 55.857 156.245C58.5203 157.372 62.1642 159.02 66.1592 160.91L76.3525 165.757L79.4516 167.211C79.8407 167.368 80.2137 167.563 80.5653 167.792C80.1472 167.715 79.7404 167.584 79.3547 167.405C78.5921 167.126 77.5146 166.678 76.183 166.108C73.5196 164.897 69.9 163.261 65.9171 161.371L55.6875 156.524L52.5884 155.082C52.1987 154.951 51.8251 154.776 51.4746 154.561Z" fill="#E0E0E0"/>
<path d="M81.7874 166.823C81.6542 166.823 84.717 159.093 88.6273 149.702C92.5375 140.312 95.8909 132.739 95.9635 132.739C96.0362 132.739 93.046 140.469 89.1236 149.872C85.2013 159.274 81.9327 166.823 81.7874 166.823Z" fill="#E0E0E0"/>
<path d="M98.6387 208.686C98.8558 208.317 99.1114 207.972 99.4013 207.656C99.9824 206.917 100.721 206.009 101.593 204.93C103.433 202.628 105.975 199.429 108.65 195.806C111.326 192.183 113.638 188.839 115.297 186.392L117.258 183.496C117.48 183.13 117.735 182.785 118.02 182.466C117.875 182.87 117.675 183.254 117.427 183.605C117.016 184.332 116.398 185.35 115.611 186.598C114.038 189.106 111.774 192.511 109.074 196.133C106.374 199.756 103.808 202.931 101.883 205.173C100.915 206.287 100.128 207.184 99.5587 207.79C99.2897 208.125 98.9808 208.426 98.6387 208.686Z" fill="#E0E0E0"/>
<path d="M68.7852 203.706C69.1901 203.68 69.5969 203.704 69.9958 203.779L73.2039 204.179C75.9035 204.555 79.6321 205.1 83.7482 205.73C87.8642 206.36 91.5808 206.942 94.2683 207.426L97.4522 208.008C97.8455 208.053 98.2317 208.147 98.6023 208.287C98.1973 208.313 97.7906 208.289 97.3917 208.214L94.1957 207.814C91.4839 207.438 87.7553 206.893 83.6392 206.263C79.5232 205.633 75.8066 205.051 73.1191 204.567L69.9473 203.985C69.5508 203.936 69.161 203.842 68.7852 203.706Z" fill="#E0E0E0"/>
<path d="M78.9551 242.613C79.4618 242.601 79.9686 242.637 80.4683 242.722L84.5844 243.231C88.0467 243.68 92.8286 244.334 98.1068 245.097C103.385 245.861 108.167 246.575 111.617 247.133L115.709 247.799C116.213 247.868 116.711 247.978 117.198 248.126C116.687 248.139 116.176 248.103 115.673 248.017L111.569 247.508C108.106 247.06 103.312 246.394 98.0342 245.63C92.7559 244.867 87.9741 244.152 84.5238 243.607L80.4441 242.928C79.939 242.87 79.4405 242.765 78.9551 242.613Z" fill="#E0E0E0"/>
<path d="M116.326 247.739C116.597 247.264 116.908 246.814 117.258 246.394C117.936 245.473 118.832 244.285 119.91 242.844C122.149 239.839 125.224 235.683 128.493 230.993C131.761 226.304 134.618 221.991 136.652 218.877L139.073 215.157C139.348 214.688 139.659 214.242 140.006 213.824C139.794 214.326 139.539 214.808 139.243 215.266C138.722 216.175 137.948 217.483 136.967 219.071C135.006 222.269 132.197 226.631 128.916 231.321C125.636 236.01 122.524 240.154 120.2 243.098C118.99 244.564 118.082 245.752 117.404 246.551C117.084 246.981 116.723 247.379 116.326 247.739Z" fill="#E0E0E0"/>
<path d="M399.122 220.924C368.106 205.306 356.436 169.658 352.804 136.628C352.199 131.115 350.758 125.42 352.671 120.234C354.584 115.048 360.189 110.868 365.431 112.48C369.777 113.8 372.234 118.284 375.116 121.87C378.912 126.662 383.986 130.279 389.752 132.303C393.505 133.611 397.984 134.096 401.156 131.697C405.502 128.401 405.114 121.785 404.291 116.333C402.758 106.163 401.224 96.0009 399.691 85.8471C398.868 80.3945 398.056 74.833 399.001 69.4047C399.945 63.9764 402.996 58.6329 407.971 56.4276C412.947 54.2224 419.799 56.2822 421.663 61.4682C422.438 63.625 422.317 65.9999 422.801 68.2415C423.285 70.4831 424.69 72.8337 426.929 73.1608C429.169 73.488 431.166 71.622 432.559 69.7803C437.401 63.4675 440.185 55.8097 442.74 48.2367C445.294 40.6638 447.703 32.9333 451.94 26.1843C456.177 19.4353 462.557 13.6556 470.293 12.0804C478.029 10.5052 487.06 14.1281 490.135 21.5193C493.21 28.9106 489.868 37.3801 485.885 44.3109C480.005 54.6052 472.665 63.9922 464.095 72.1794C462.545 73.6455 460.874 75.2328 460.463 77.3532C459.809 81.1579 463.768 84.2719 467.533 84.9504C471.794 85.7138 476.14 84.6596 480.462 84.5385C484.784 84.4173 489.663 85.6411 491.854 89.3851C494.892 94.6438 491.079 101.163 487.011 105.658C478.937 114.655 469.375 122.193 458.744 127.941C454.943 129.988 450.911 131.891 448.078 135.211C445.246 138.531 444.011 143.692 446.517 147.243C449.023 150.793 454.216 151.314 458.308 149.92C462.4 148.527 465.826 145.704 469.615 143.62C476.697 139.706 486.442 138.773 492.181 144.601C495.946 148.406 497.084 154.294 496.224 159.614C495.364 164.933 492.762 169.755 489.905 174.287C479.929 190.124 466.201 203.707 449.689 212.249C433.176 220.791 417.317 224.753 399.134 220.936" fill="#F5F5F5"/>
<path d="M404.605 199.09C407.477 180.398 411.414 161.886 416.397 143.644L420.246 129.261C421.518 124.548 422.777 119.871 424.29 115.376C427.212 106.744 430.611 98.2814 434.471 90.0273C438.103 82.1272 441.819 74.7602 445.366 67.8901C448.913 61.0199 452.364 54.6949 455.729 49.0607C461.009 40.1429 466.988 31.6588 473.61 23.6882C475.946 20.865 477.835 18.7325 479.13 17.3148L480.607 15.7033C480.768 15.5099 480.946 15.3315 481.14 15.1702C481.013 15.3841 480.863 15.5833 480.692 15.7639L479.275 17.4481C478.065 18.9142 476.2 21.0831 473.912 23.9427C467.428 31.9741 461.552 40.4795 456.334 49.3878C453.005 55.0342 449.616 61.3713 446.105 68.2414C442.594 75.1116 438.902 82.4907 435.306 90.3787C431.473 98.6285 428.094 107.082 425.186 115.703C423.685 120.186 422.438 124.814 421.166 129.54C419.895 134.265 418.636 139.064 417.341 143.91C412.361 162.116 408.404 180.587 405.489 199.235" fill="#E0E0E0"/>
<path d="M424.569 115.303C424.197 114.586 423.905 113.83 423.698 113.049C423.201 111.583 422.487 109.414 421.761 106.785C420.211 101.453 418.31 94.038 416.252 85.8471C414.194 77.6562 412.185 70.2772 410.563 64.9943C409.751 62.3528 409.074 60.2203 408.589 58.7541C408.29 58.0039 408.071 57.2241 407.936 56.4277C408.357 57.1132 408.698 57.845 408.952 58.6087C409.558 60.0385 410.333 62.1468 411.241 64.7762C413.044 70.0106 415.163 77.3897 417.233 85.5927L422.451 106.591C423.088 109.111 423.633 111.228 424.085 112.94C424.336 113.707 424.498 114.499 424.569 115.303Z" fill="#E0E0E0"/>
<path d="M492.762 92.0508C491.871 92.3829 490.951 92.6304 490.013 92.7899C488.246 93.214 485.667 93.8077 482.52 94.6438C476.2 96.2674 467.545 98.8119 458.126 102.035C448.708 105.258 440.306 108.59 434.302 111.147C431.287 112.358 428.878 113.497 427.207 114.237C426.364 114.676 425.48 115.033 424.568 115.303C425.329 114.752 426.14 114.273 426.99 113.873C428.612 113.025 430.985 111.837 433.963 110.48C439.919 107.742 448.308 104.325 457.751 101.066C465.807 98.2693 474.001 95.8912 482.302 93.941C485.486 93.1898 488.089 92.7293 489.892 92.4022C490.835 92.1924 491.796 92.0747 492.762 92.0508Z" fill="#E0E0E0"/>
<path d="M405.297 197.672C405.061 197.443 404.857 197.182 404.691 196.897C404.268 196.255 403.759 195.467 403.13 194.474C401.774 192.414 399.897 189.385 397.634 185.616C393.094 178.068 387.15 167.441 380.746 155.627C374.342 143.814 368.494 133.199 364.112 125.626L358.907 116.611L357.502 114.188C357.319 113.909 357.172 113.608 357.066 113.292C357.305 113.524 357.508 113.789 357.672 114.079L359.233 116.502C360.589 118.562 362.466 121.591 364.729 125.372C369.269 132.921 375.225 143.547 381.678 155.361C388.13 167.175 393.917 177.825 398.299 185.459L403.505 194.486C404.074 195.467 404.534 196.291 404.909 196.909C405.067 197.148 405.197 197.404 405.297 197.672Z" fill="#E0E0E0"/>
<path d="M494.094 154.161C493.826 154.367 493.533 154.538 493.222 154.67L490.655 155.918L481.152 160.595C473.126 164.557 462.097 170.143 449.931 176.347C437.764 182.551 426.663 188.027 418.552 191.82C414.497 193.71 411.204 195.213 408.867 196.206L406.216 197.321C405.916 197.479 405.594 197.589 405.26 197.648C405.53 197.446 405.823 197.275 406.131 197.139L408.698 195.843L418.213 191.166C426.239 187.216 437.256 181.63 449.435 175.414C461.613 169.198 472.69 163.733 480.801 159.941C484.857 158.051 488.15 156.548 490.486 155.555L493.137 154.44C493.44 154.299 493.762 154.205 494.094 154.161Z" fill="#E0E0E0"/>
<path d="M819.842 474.685C819.842 474.867 638.252 475 414.364 475C190.475 475 8.8125 474.867 8.8125 474.685C8.8125 474.503 190.33 474.37 414.364 474.37C638.398 474.37 819.842 474.515 819.842 474.685Z" fill="#263238"/>
<path d="M352.744 474.685L191.831 473.946C182.541 473.888 173.653 470.147 167.113 463.543C160.573 456.938 156.916 448.009 156.942 438.71L158.648 34.9447C158.703 25.6422 162.441 16.7409 169.042 10.1925C175.644 3.64413 184.57 -0.0168957 193.865 0.0121342L354.778 0.751251C364.064 0.808919 372.949 4.54643 379.487 11.1457C386.026 17.7449 389.687 26.6682 389.667 35.9625L387.96 439.728C387.912 449.035 384.177 457.942 377.575 464.496C370.973 471.05 362.043 474.714 352.744 474.685Z" fill="#455A64"/>
<path d="M354.548 14.6855L323.351 14.5401C321.297 14.5783 319.342 15.4301 317.914 16.9088C316.487 18.3874 315.704 20.3722 315.736 22.4281V28.0987C315.752 29.1165 315.567 30.1275 315.193 31.0738C314.818 32.0201 314.26 32.8831 313.552 33.6135C312.844 34.3439 311.998 34.9273 311.064 35.3304C310.13 35.7335 309.126 35.9482 308.109 35.9624L247.289 35.6838C245.236 35.6235 243.29 34.7524 241.877 33.2607C240.464 31.769 239.698 29.7781 239.747 27.7231V22.0524C239.783 20.0109 239.014 18.0373 237.607 16.5588C236.2 15.0802 234.268 14.2157 232.229 14.1523H221.261L193.962 13.9463C187.452 13.9141 181.197 16.4705 176.57 21.0535C171.944 25.6364 169.325 31.8708 169.29 38.3858L167.631 432.495C167.602 439.01 170.159 445.269 174.741 449.898C179.322 454.526 185.552 457.144 192.061 457.176L352.659 457.915C355.883 457.93 359.079 457.308 362.063 456.087C365.047 454.865 367.762 453.067 370.051 450.795C372.341 448.524 374.162 445.823 375.409 442.847C376.656 439.871 377.305 436.679 377.319 433.452L378.978 39.3551C378.992 36.1298 378.372 32.9332 377.152 29.9478C375.932 26.9625 374.136 24.2469 371.868 21.9561C369.599 19.6653 366.902 17.8442 363.93 16.5967C360.959 15.3492 357.77 14.6998 354.548 14.6855Z" fill="#FAFAFA"/>
<path d="M247.762 419.784L306.996 358.316L363.35 415.81L247.762 419.784Z" fill="#EBEBEB"/>
<path d="M316.232 350.392L377.973 289.202C377.973 291.916 377.44 416.076 377.44 416.076L316.232 350.392Z" fill="#EBEBEB"/>
<path d="M263.415 316.017L298.413 351.046L229.324 422.426L197.389 384.088L263.415 316.017Z" fill="#EBEBEB"/>
<path d="M167.631 407.134L188.005 389.068L216.224 422.426H167.631V409.667" fill="#EBEBEB"/>
<path d="M193.961 61.6863C191.808 60.0961 189.784 58.3377 187.908 56.4276C187.908 55.5067 187.908 56.1731 187.908 55.9672L187.993 55.8945L188.138 55.7612L188.441 55.4825L189.022 54.9372L190.124 53.9194L192.024 52.2231C192.6 51.6344 193.251 51.1251 193.961 50.7085C193.529 51.3674 193.008 51.9628 192.412 52.4775L190.596 54.2708L189.518 55.3129L188.937 55.8702L188.647 56.1489L188.489 56.2822L188.417 56.3549V55.8945C190.413 57.6777 192.266 59.6142 193.961 61.6863Z" fill="#263238"/>
<path d="M361.327 52.4412C361.329 52.7035 361.253 52.9605 361.109 53.1795C360.965 53.3985 360.759 53.5697 360.518 53.6712C360.276 53.7726 360.01 53.7998 359.753 53.7492C359.495 53.6987 359.259 53.5726 359.074 53.3872C358.889 53.2017 358.763 52.9653 358.712 52.708C358.662 52.4507 358.689 52.1841 358.79 51.9423C358.892 51.7005 359.063 51.4943 359.281 51.3502C359.5 51.206 359.757 51.1302 360.019 51.1326C360.366 51.1326 360.698 51.2705 360.944 51.5159C361.189 51.7613 361.327 52.0942 361.327 52.4412Z" fill="#263238"/>
<path d="M360.951 56.0399C361.136 56.2245 361.262 56.4599 361.313 56.7161C361.364 56.9724 361.338 57.2381 361.238 57.4796C361.138 57.7211 360.969 57.9275 360.752 58.0727C360.535 58.2179 360.28 58.2955 360.019 58.2955C359.758 58.2955 359.502 58.2179 359.285 58.0727C359.068 57.9275 358.899 57.7211 358.799 57.4796C358.7 57.2381 358.674 56.9724 358.725 56.7161C358.776 56.4599 358.902 56.2245 359.087 56.0399C359.336 55.7957 359.67 55.6589 360.019 55.6589C360.367 55.6589 360.702 55.7957 360.951 56.0399Z" fill="#263238"/>
<path d="M361.326 61.4925C361.295 61.8194 361.143 62.1229 360.9 62.3437C360.657 62.5645 360.341 62.6869 360.013 62.6869C359.685 62.6869 359.368 62.5645 359.126 62.3437C358.883 62.1229 358.731 61.8194 358.699 61.4925C358.682 61.3092 358.703 61.1243 358.761 60.9496C358.819 60.7749 358.913 60.6143 359.036 60.478C359.16 60.3418 359.311 60.2329 359.479 60.1584C359.647 60.0839 359.829 60.0454 360.013 60.0454C360.197 60.0454 360.379 60.0839 360.547 60.1584C360.715 60.2329 360.866 60.3418 360.99 60.478C361.113 60.6143 361.207 60.7749 361.265 60.9496C361.323 61.1243 361.344 61.3092 361.326 61.4925Z" fill="#263238"/>
<path d="M304.599 57.8088H247.967V62.5344H304.599V57.8088Z" fill="#263238"/>
<path d="M250.636 182.545H284.159V179.136C284.159 167.844 289.486 162.162 299.784 156.125C313.634 148.028 323.08 137.872 323.08 120.614C323.08 93.9091 300.565 80.5568 270.239 80.5568C242.611 80.5568 219.67 93.625 219.386 124.875H255.75C255.75 116.707 262.284 110.955 269.955 110.955C277.057 110.955 282.739 115.784 282.739 122.886C282.739 130.841 275.849 135.741 266.83 141.636C256.247 148.526 250.636 155.77 250.636 179.136V182.545ZM267.966 230.273C278.406 230.273 287.71 221.466 287.852 210.386C287.71 199.591 278.406 190.784 267.966 190.784C256.957 190.784 247.938 199.591 248.08 210.386C247.938 221.466 256.957 230.273 267.966 230.273Z" fill="#CF4E32"/>
<path d="M779.978 311.146H108.312V409.788H779.978V311.146Z" fill="#E8505B"/>
<path d="M779.978 311.146H108.312V409.788H779.978V311.146Z" fill="#16162B"/>
<path d="M202.924 473.807C238.613 471.403 265.598 440.497 263.196 404.776C260.794 369.055 229.916 342.046 194.226 344.45C158.537 346.854 131.552 377.76 133.954 413.481C136.356 449.202 167.235 476.21 202.924 473.807Z" fill="#263238"/>
<path d="M133.819 408.031C133.819 408.091 133.819 408.152 133.819 408.2C133.696 416.713 135.249 425.167 138.39 433.079C141.531 440.991 146.199 448.207 152.126 454.313C158.053 460.42 165.124 465.298 172.934 468.67C180.745 472.042 189.143 473.841 197.648 473.964C206.154 474.087 214.6 472.533 222.505 469.389C230.41 466.245 237.619 461.574 243.72 455.641C249.822 449.709 254.696 442.632 258.064 434.814C261.433 426.997 263.23 418.591 263.354 410.078C263.354 410.018 263.354 409.957 263.354 409.909L133.819 408.031Z" fill="#263238"/>
<path d="M153.105 408.479C152.971 417.481 155.508 426.319 160.395 433.877C165.281 441.435 172.297 447.373 180.555 450.94C188.813 454.506 197.943 455.541 206.789 453.914C215.635 452.287 223.8 448.07 230.252 441.798C236.704 435.525 241.152 427.479 243.033 418.676C244.915 409.873 244.147 400.709 240.824 392.343C237.502 383.977 231.776 376.786 224.369 371.678C216.963 366.57 208.21 363.775 199.216 363.647C187.163 363.476 175.534 368.102 166.888 376.509C158.241 384.916 153.283 396.415 153.105 408.479Z" fill="#FAFAFA"/>
<path d="M199.215 363.635C187.161 363.46 175.531 368.085 166.883 376.493C158.235 384.901 153.279 396.402 153.104 408.467L244.032 409.788C244.203 397.719 239.578 386.077 231.173 377.422C222.769 368.767 211.273 363.807 199.215 363.635Z" fill="#E0E0E0"/>
<path d="M170.876 408.734C170.795 414.217 172.341 419.601 175.318 424.205C178.295 428.809 182.569 432.426 187.599 434.598C192.63 436.771 198.192 437.401 203.581 436.409C208.969 435.417 213.943 432.848 217.873 429.027C221.803 425.206 224.512 420.304 225.658 414.941C226.804 409.578 226.335 403.996 224.31 398.9C222.286 393.804 218.797 389.424 214.285 386.313C209.773 383.202 204.441 381.5 198.962 381.423C195.326 381.37 191.715 382.034 188.336 383.378C184.957 384.722 181.875 386.719 179.267 389.255C176.659 391.792 174.575 394.817 173.136 398.159C171.696 401.501 170.928 405.095 170.876 408.734Z" fill="#263238"/>
<path d="M283.462 255.663C283.462 255.663 188.09 262.703 152.717 270.639C127.803 276.225 79.766 285.882 80.347 316.125L84.1604 337.814C84.1604 337.814 66.3525 345.957 66.3525 366.749C66.3525 387.541 62.0064 419.772 103.603 421.068C110.455 421.274 123.469 421.068 123.469 421.068C123.469 421.068 115.491 332.398 196.867 329.805C279.66 327.164 274.164 420.257 274.164 420.257H619.706C619.706 420.257 605.518 329.563 694.642 329.381C783.767 329.199 770.208 420.85 770.208 420.85C770.208 420.85 802.991 423.686 818.245 396.108C833.498 368.53 829.539 348.853 829.539 348.853L829.031 331.417C828.934 328.555 827.755 325.837 825.733 323.813C823.71 321.788 820.995 320.608 818.136 320.512C818.136 320.512 824.092 276.625 814.952 269.028C805.812 261.431 755.729 215.593 755.729 215.593L758.15 214.103C759.048 213.535 759.766 212.724 760.222 211.764C760.678 210.804 760.853 209.735 760.726 208.679C760.599 207.624 760.176 206.626 759.506 205.802C758.836 204.978 757.946 204.36 756.94 204.021C737.921 197.478 700.32 184.526 691.482 181.436C690.159 180.965 688.779 180.672 687.379 180.563C682.1 180.164 667.161 179.218 639.741 178.928C606.341 178.564 473.732 178.928 473.732 178.928C473.732 178.928 428.092 182.684 402.669 193.88C376.012 205.657 283.462 255.663 283.462 255.663Z" fill="#126E82"/>
<g opacity="0.4">
<path opacity="0.4" d="M90.5399 364.326C87.0776 363.623 81.7751 363.563 79.136 365.901C77.1748 367.646 76.6543 370.469 76.3637 373.074C75.8077 376.643 75.8897 380.282 76.6059 383.822C76.9711 385.59 77.6972 387.263 78.7388 388.737C79.7804 390.212 81.115 391.454 82.6589 392.388C85.8306 394.109 90.1646 393.83 92.6221 391.177C94.8738 388.753 95.128 385.118 95.0433 381.883C94.9586 377.206 95.3338 373.244 94.4743 368.652C94.2847 367.677 93.8702 366.76 93.2637 365.974C92.9621 365.503 92.5562 365.109 92.0775 364.821C91.5988 364.533 91.0602 364.359 90.5036 364.314" fill="black"/>
</g>
<path d="M84.1845 337.814C94.3051 337.814 104.123 337.257 114.232 336.603C115.333 336.651 116.417 336.322 117.307 335.67C117.713 335.163 118.016 334.582 118.196 333.958C118.377 333.334 118.433 332.68 118.36 332.035C118.36 326.606 118.142 320.427 114.026 316.889C111.508 314.732 108.058 314.054 104.753 313.751C96.5454 312.863 88.2436 313.688 80.3711 316.174L84.1845 337.814Z" fill="#FAFAFA"/>
<path d="M294.443 417.482C294.443 417.482 294.443 417.191 294.37 416.61C294.298 416.028 294.273 415.168 294.201 414.065C294.08 411.811 293.898 408.528 293.668 404.287C293.438 400.046 293.147 394.848 292.542 388.838C291.917 382.033 290.722 375.293 288.971 368.688C286.761 360.71 283.483 353.067 279.226 345.969C274.403 337.772 267.995 330.621 260.377 324.934C244.046 313.302 221.976 306.759 198.89 306.444C175.804 306.129 153.723 313.436 137.791 325.686C130.155 331.34 123.465 338.175 117.974 345.933C113.179 352.668 109.28 360 106.376 367.743C103.98 374.142 102.335 380.799 101.473 387.578C100.798 392.69 100.599 397.854 100.88 403.003C101.078 406.256 101.483 409.494 102.09 412.696C102.284 413.774 102.442 414.61 102.538 415.192C102.635 415.774 102.672 416.052 102.672 416.052C102.672 416.052 102.599 415.774 102.478 415.216L101.957 412.793C101.298 409.596 100.862 406.357 100.65 403.099C100.321 397.934 100.483 392.749 101.134 387.614C101.968 380.8 103.594 374.107 105.976 367.67C108.871 359.866 112.769 352.473 117.574 345.678C123.078 337.858 129.797 330.969 137.476 325.274C153.48 312.963 175.61 305.584 198.878 305.887C222.146 306.19 244.251 312.793 260.715 324.535C268.38 330.278 274.821 337.495 279.661 345.763C283.915 352.916 287.173 360.617 289.346 368.652C291.088 375.284 292.258 382.054 292.845 388.886C293.414 394.945 293.668 400.107 293.862 404.347C294.055 408.588 294.189 411.884 294.285 414.138C294.285 415.24 294.358 416.089 294.382 416.682C294.407 417.276 294.443 417.482 294.443 417.482Z" fill="white"/>
<path d="M298.074 418.984V418.257L298.001 416.113C297.941 414.198 297.856 411.399 297.735 407.74C297.529 400.385 297.227 389.638 296.839 375.958C296.452 362.278 296.004 345.666 295.483 326.643C295.35 321.881 295.229 316.949 295.084 311.921C294.999 309.351 295.112 306.779 295.423 304.227L295.968 300.325L296.767 296.412C298.02 291.065 299.826 285.863 302.154 280.89C304.551 275.677 307.515 270.744 310.991 266.18L370.831 228.449L386.993 218.271C392.44 214.648 398.159 211.452 404.099 208.711C410.172 205.848 416.405 203.336 422.766 201.186C425.938 200.071 429.194 199.163 432.451 198.193C435.707 197.224 439.024 196.424 442.39 195.77C455.08 193.053 467.98 191.431 480.948 190.923C493.39 190.327 505.856 190.367 518.295 191.045H518.646L518.561 191.396L502.484 263.381C499.514 268.263 497.079 273.45 495.221 278.854C493.391 283.98 492.569 289.411 492.799 294.849C493.211 300.168 493.356 305.378 493.489 310.431C493.623 315.483 493.683 320.379 493.78 325.14C494.058 344.164 494.131 360.751 494.179 374.419C494.228 388.087 494.179 398.834 494.179 406.177C494.179 409.812 494.179 412.635 494.179 414.55C494.179 415.483 494.179 416.198 494.179 416.694C494.179 417.191 494.179 417.421 494.179 417.421C494.179 417.421 494.179 417.167 494.179 416.694C494.179 416.222 494.179 415.483 494.179 414.55C494.179 412.635 494.179 409.836 494.179 406.177C494.179 398.834 494.07 388.087 493.986 374.431C493.901 360.776 493.78 344.139 493.453 325.14C493.356 320.391 493.251 315.491 493.138 310.443C492.993 305.39 492.848 300.204 492.424 294.885C492.178 289.379 493.001 283.878 494.845 278.685C496.691 273.237 499.127 268.008 502.109 263.091V263.175C507.036 241.014 512.423 216.829 518.125 191.178L518.404 191.541C505.993 190.872 493.555 190.84 481.141 191.444C468.205 191.946 455.337 193.567 442.68 196.291C439.327 196.957 436.058 197.89 432.778 198.714C429.497 199.538 426.289 200.592 423.093 201.695C416.731 203.848 410.499 206.364 404.425 209.232C398.516 211.954 392.825 215.13 387.404 218.731L371.231 228.909L311.391 266.556V266.495C307.921 271.029 304.965 275.934 302.578 281.12C300.252 286.055 298.45 291.221 297.202 296.533C294.479 306.917 295.847 317.131 295.871 326.643L297.081 375.958C297.408 389.626 297.663 400.385 297.832 407.728C297.917 411.363 297.965 414.198 298.014 416.113C298.014 417.042 298.014 417.757 298.014 418.257C298.074 418.742 298.074 418.984 298.074 418.984Z" fill="#263238"/>
<path d="M315.748 266.241L500.643 262.824L620.977 260.619L660.66 237.682C661.415 237.242 662.067 236.647 662.574 235.936C663.082 235.225 663.432 234.414 663.603 233.557C663.773 232.7 663.76 231.817 663.564 230.965C663.367 230.114 662.993 229.314 662.464 228.619L637.756 196.134C636.486 194.461 634.851 193.102 632.975 192.161C631.098 191.22 629.032 190.722 626.933 190.705L492.338 189.615C492.338 189.615 441.663 186.658 401.725 209.002C359.729 232.593 315.748 266.241 315.748 266.241Z" fill="#263238"/>
<path d="M400.478 192.971C400.478 192.971 409.751 197.2 403.722 201.113C397.693 205.027 304.017 264.12 304.017 264.12L282.48 254.366C320.626 233.126 359.148 212.467 400.478 192.971Z" fill="#455A64"/>
<path d="M307.044 265.623L306.463 265.768L304.756 266.144L298.182 267.501C292.468 268.64 284.188 270.24 273.97 272.009C253.39 275.547 224.917 279.666 193.236 282.405C185.306 283.095 177.498 283.616 170.089 284.15C162.68 284.683 155.392 285.107 148.54 285.725C134.824 286.936 122.549 288.924 112.573 291.892C104.644 294.099 97.0138 297.264 89.8502 301.319C87.2716 302.676 85.4315 304.009 84.1362 304.809L82.6592 305.742L82.1387 306.044C82.294 305.919 82.4556 305.802 82.6229 305.693L84.0635 304.7C85.3468 303.863 87.1627 302.494 89.7291 301.065C96.8493 296.899 104.463 293.643 112.392 291.371C122.391 288.33 134.703 286.282 148.431 285.058C155.295 284.404 162.51 283.944 169.992 283.447C177.473 282.95 185.209 282.368 193.127 281.678C224.796 278.939 253.306 274.892 273.849 271.463C284.127 269.755 292.408 268.228 298.134 267.162L304.732 265.95L306.451 265.635L307.044 265.623Z" fill="#263238"/>
<path d="M602.285 379.969C602.285 380.15 532.724 380.284 446.929 380.284C361.134 380.284 291.561 380.15 291.561 379.969C291.561 379.787 361.11 379.654 446.929 379.654C532.749 379.654 602.285 379.799 602.285 379.969Z" fill="#263238"/>
<path d="M115.273 349.531C115.273 349.713 105.431 349.846 93.3005 349.846C81.1703 349.846 71.3281 349.713 71.3281 349.531C71.3281 349.35 81.1703 349.216 93.3005 349.216C105.431 349.216 115.273 349.362 115.273 349.531Z" fill="#263238"/>
<path d="M338.943 259.977C338.943 259.977 398.045 217.253 421.361 208.759C443.866 200.568 455.597 198.508 476.734 197.854C496.939 197.273 509.251 197.854 509.251 197.854L493.634 258.014L338.943 259.977Z" fill="#455A64"/>
<path d="M330.301 260.122C330.302 258.282 330.791 256.476 331.718 254.888C332.646 253.3 333.978 251.987 335.579 251.083L349.162 243.449C353.031 241.269 357.397 240.126 361.837 240.129C364.571 240.133 367.288 240.566 369.887 241.414C372.718 242.394 375.182 244.214 376.951 246.633C378.721 249.051 379.711 251.952 379.79 254.948C379.867 256.961 379.537 258.968 378.82 260.85C378.103 262.732 377.013 264.449 375.617 265.9C374.221 267.35 372.547 268.503 370.695 269.291C368.843 270.078 366.851 270.483 364.839 270.482H340.627C337.886 270.475 335.26 269.381 333.324 267.439C331.388 265.497 330.301 262.865 330.301 260.122Z" fill="#000052"/>
<path d="M330.299 260.122C330.299 260.122 330.299 260.582 330.456 261.43C330.639 262.678 331.05 263.882 331.667 264.981C332.645 266.712 334.088 268.135 335.832 269.088C336.919 269.658 338.1 270.027 339.318 270.179C340.708 270.282 342.102 270.31 343.495 270.264L364.208 270.191C366.171 270.243 368.127 269.923 369.97 269.246C371.916 268.517 373.686 267.385 375.163 265.923C376.64 264.461 377.792 262.703 378.542 260.764C379.304 258.718 379.614 256.531 379.449 254.354C379.287 252.209 378.656 250.125 377.599 248.251C376.543 246.377 375.087 244.758 373.336 243.51C371.645 242.34 369.741 241.517 367.731 241.086C362.21 239.78 356.413 240.338 351.242 242.674C349.681 243.377 348.252 244.261 346.836 245.024L342.792 247.278L335.832 251.131C334.08 252.075 332.635 253.5 331.667 255.239C331.056 256.341 330.646 257.543 330.456 258.789C330.335 259.637 330.348 260.098 330.311 260.098C330.266 259.655 330.266 259.208 330.311 258.765C330.447 257.493 330.825 256.259 331.425 255.13C332.377 253.32 333.837 251.829 335.626 250.84L342.538 246.902L346.557 244.612C347.962 243.837 349.39 242.94 350.988 242.189C356.256 239.762 362.182 239.165 367.828 240.493C369.91 240.907 371.889 241.731 373.651 242.916C375.481 244.214 377.003 245.9 378.108 247.854C379.213 249.808 379.873 251.982 380.043 254.221C380.22 256.493 379.898 258.776 379.098 260.909C378.317 262.935 377.114 264.771 375.57 266.296C374.025 267.821 372.174 269 370.14 269.755C368.228 270.444 366.203 270.769 364.172 270.712L343.458 270.651C342.049 270.682 340.638 270.637 339.233 270.518C337.959 270.341 336.727 269.93 335.602 269.306C333.818 268.308 332.356 266.819 331.389 265.017C330.797 263.885 330.423 262.652 330.287 261.382C330.258 260.962 330.262 260.541 330.299 260.122Z" fill="#263238"/>
<path d="M491.043 266.241H490.764H489.941L486.782 266.314L475.172 266.52C465.366 266.701 451.831 267.065 436.868 267.477C421.905 267.889 408.359 268.168 398.553 268.24C393.65 268.24 389.679 268.24 386.931 268.24H383.772H382.96C382.864 268.259 382.766 268.259 382.67 268.24C382.766 268.225 382.864 268.225 382.96 268.24H383.772L386.931 268.168L398.541 267.962C408.347 267.78 421.893 267.416 436.856 267.016C451.819 266.617 465.366 266.314 475.172 266.241C480.014 266.241 484.046 266.241 486.782 266.241H489.941H490.764H491.043Z" fill="white"/>
<path d="M478.889 219.616C478.95 219.773 465.791 225.262 449.484 231.866C433.177 238.469 419.909 243.704 419.836 243.534C419.764 243.365 432.935 237.888 449.242 231.284C465.549 224.681 478.817 219.458 478.889 219.616Z" fill="white"/>
<path d="M452.208 223.772C452.28 223.942 439.739 229.467 424.207 236.119C408.675 242.771 396.036 248.042 395.963 247.884C395.891 247.727 408.432 242.201 423.964 235.537C439.496 228.873 452.135 223.59 452.208 223.772Z" fill="white"/>
<path d="M151.59 274.48C151.359 274.558 151.119 274.607 150.876 274.626L148.83 274.892C147.934 274.989 146.845 275.122 145.585 275.341C144.326 275.559 142.886 275.716 141.312 276.031C138.152 276.589 134.412 277.412 130.32 278.455C125.887 279.679 121.52 281.126 117.233 282.792C112.681 284.598 108.456 286.573 104.679 288.523C100.902 290.474 97.6336 292.437 94.9945 294.194C93.6265 295.03 92.4401 295.878 91.3627 296.617C90.2852 297.357 89.4015 297.962 88.6751 298.496L86.9924 299.707C86.7997 299.856 86.5929 299.986 86.375 300.095C86.5354 299.915 86.7139 299.753 86.9077 299.61L88.5299 298.314C89.232 297.756 90.1037 297.102 91.1569 296.339C92.2101 295.575 93.3602 294.727 94.7887 293.915C97.452 292.11 100.745 290.135 104.473 288.112C112.636 283.744 121.283 280.348 130.235 277.994C134.351 276.928 138.116 276.14 141.3 275.643C142.886 275.353 144.326 275.207 145.598 275.038C146.869 274.868 148.019 274.759 148.854 274.698L150.924 274.541C151.144 274.505 151.367 274.485 151.59 274.48Z" fill="white"/>
<path d="M367.78 245.897C367.78 245.897 367.429 245.424 366.57 244.77C365.409 243.88 364.028 243.323 362.575 243.159C360.395 242.977 358.202 243.211 356.11 243.849C348.739 245.707 341.892 249.235 336.099 254.161C333.218 256.584 331.692 258.365 331.607 258.28C331.9 257.818 332.241 257.387 332.624 256.996C333.625 255.883 334.684 254.823 335.796 253.821C339.494 250.524 343.696 247.841 348.241 245.873C350.736 244.78 353.325 243.916 355.977 243.292C358.137 242.663 360.399 242.465 362.635 242.71C364.154 242.919 365.578 243.572 366.727 244.588C367.032 244.863 367.305 245.172 367.538 245.509C367.732 245.752 367.804 245.885 367.78 245.897Z" fill="white"/>
<path d="M175.088 215.569C170.246 189.057 166.99 184.986 164.254 175.862C161.518 166.738 157.172 160.813 151.76 158.717C148.128 157.311 129.885 150.732 123.541 152.913C117.335 155.122 111.426 158.093 105.951 161.758C101.702 164.579 98.4821 168.703 96.7747 173.511L87.0898 200.859L104.135 217.822L112.682 199.647L121.955 221.457L120.587 243.449L173.769 257.771C178.563 250.016 177.836 230.605 175.088 215.569Z" fill="#CF4E32"/>
<g opacity="0.2">
<path opacity="0.2" d="M161.276 186.646C158.927 200.447 158.552 202.398 156.203 216.15C155.392 220.888 153.031 228.267 149.666 231.708C147.172 234.241 144.727 236.676 141.252 237.5C138.032 238.263 133.129 238.348 130.103 237.015C127.076 235.682 124.485 229.745 125.732 226.704C130.248 227.673 131.64 229.127 135.526 226.704C138.916 224.547 143.734 219.773 145.574 216.199C153.334 201.174 155.477 200.641 161.312 186.646" fill="black"/>
</g>
<path d="M122.743 213.388C121.882 212.228 121.098 211.014 120.394 209.753L114.922 200.75L109.305 191.893C108.467 190.701 107.711 189.454 107.041 188.161C107.332 188.426 107.589 188.727 107.804 189.057C108.264 189.651 108.905 190.536 109.668 191.638C111.218 193.843 113.3 196.933 115.455 200.411C117.61 203.888 119.486 207.111 120.781 209.474C121.435 210.686 121.992 211.607 122.282 212.285C122.492 212.626 122.648 212.998 122.743 213.388Z" fill="#BCBCBC"/>
<path d="M159.859 238.142C159.473 238.342 159.067 238.501 158.648 238.614C158.152 238.781 157.647 238.918 157.135 239.026C156.466 239.208 155.787 239.35 155.101 239.451C153.326 239.767 151.528 239.933 149.726 239.947C147.514 239.951 145.307 239.761 143.128 239.378C140.952 238.968 138.817 238.363 136.748 237.572C135.075 236.918 133.455 236.132 131.906 235.222C131.228 234.846 130.695 234.434 130.163 234.107C129.722 233.82 129.297 233.509 128.892 233.174C128.522 232.921 128.185 232.624 127.887 232.29C127.959 232.193 129.461 233.368 132.124 234.834C133.685 235.677 135.303 236.409 136.966 237.027C141.053 238.552 145.377 239.344 149.738 239.366C151.515 239.368 153.291 239.25 155.053 239.014C158.006 238.59 159.822 238.021 159.859 238.142Z" fill="#BCBCBC"/>
<path d="M138.515 196.836C138.419 197.309 132.705 208.698 132.705 208.698L105.732 194.473L102.984 182.841C102.531 180.973 101.357 179.361 99.7186 178.358C98.0806 177.354 96.1122 177.041 94.2438 177.486L86.2902 180.745C85.9622 180.874 85.671 181.081 85.4429 181.35C85.2147 181.618 85.0566 181.939 84.9827 182.284C84.8738 182.866 84.9827 183.496 86.036 183.362C88.0092 183.205 92.089 182.769 92.089 182.769L90.2125 189.397C89.7172 191.133 89.9079 192.994 90.7452 194.595L91.9558 196.885L94.5828 201.138H94.5223C94.5223 201.138 120.744 228.097 135.465 229.854C144.314 230.908 154.338 206.081 154.338 206.081L138.515 196.836Z" fill="#B78876"/>
<path d="M91.8965 183.217C91.8965 183.217 92.1023 182.938 92.5502 182.635C93.15 182.217 93.8652 181.997 94.5961 182.005C94.9777 182.027 95.3465 182.151 95.6639 182.364C95.9813 182.577 96.2355 182.872 96.3999 183.217C96.6542 183.762 96.4847 184.126 96.3999 184.102C96.3152 184.077 96.3999 183.762 96.1094 183.35C95.9308 183.089 95.6954 182.871 95.4207 182.714C95.146 182.556 94.8393 182.463 94.5235 182.442C93.8683 182.451 93.2249 182.617 92.6471 182.926C92.2718 183.108 91.9328 183.265 91.8965 183.217Z" fill="#AA6550"/>
<path d="M95.2972 187.349C95.2972 187.349 95.1156 187.13 94.8614 186.803C94.5365 186.386 94.1056 186.063 93.6137 185.869C93.1219 185.675 92.587 185.617 92.0649 185.701C91.6533 185.701 91.3991 185.846 91.3749 185.798C91.3507 185.749 91.5686 185.567 92.0044 185.422C92.5804 185.254 93.1959 185.281 93.7545 185.501C94.3131 185.72 94.7833 186.118 95.0914 186.634C95.3093 187.046 95.3335 187.336 95.2972 187.349Z" fill="#AA6550"/>
<path d="M144.109 160.886L136.846 195.528L156.215 207.172L163.648 185.883C163.648 185.883 160.525 160.026 144.109 160.886Z" fill="#CF4E32"/>
<path d="M154.545 161.492C154.545 161.492 154.387 161.625 154.048 161.807C153.709 161.988 153.225 162.255 152.583 162.582C151.3 163.237 149.412 164.157 147.051 165.212C140.914 168.019 134.452 170.054 127.815 171.27C121.135 172.465 114.278 172.233 107.694 170.591C105.724 170.073 103.803 169.38 101.956 168.519C101.29 168.241 100.745 167.938 100.467 167.768C100.293 167.681 100.127 167.58 99.9707 167.465C100.68 167.705 101.375 167.984 102.053 168.301C103.934 169.062 105.868 169.686 107.84 170.167C114.374 171.664 121.143 171.829 127.742 170.652C134.335 169.437 140.769 167.474 146.918 164.8C149.339 163.806 151.191 162.946 152.511 162.376C153.168 162.037 153.848 161.741 154.545 161.492Z" fill="#EBEBEB"/>
<path d="M159.641 165.321C159.475 165.471 159.292 165.601 159.096 165.708L157.498 166.738C156.653 167.292 155.78 167.802 154.883 168.265C153.842 168.81 152.68 169.477 151.312 170.082L149.205 171.052C148.467 171.391 147.668 171.67 146.857 171.997C145.247 172.663 143.455 173.209 141.591 173.814C133.417 176.282 124.873 177.295 116.35 176.807C114.388 176.65 112.524 176.541 110.805 176.262C109.933 176.129 109.098 176.044 108.299 175.898L106.011 175.438C104.558 175.184 103.263 174.796 102.125 174.505C101.146 174.268 100.181 173.981 99.2317 173.645L97.428 173.015C97.212 172.957 97.0044 172.872 96.8105 172.76C97.0338 172.772 97.254 172.817 97.4643 172.894L99.3044 173.402C100.091 173.645 101.06 173.923 102.21 174.166C103.36 174.408 104.631 174.784 106.108 175.002L108.384 175.414C109.171 175.559 110.006 175.632 110.805 175.741C112.524 175.995 114.437 176.092 116.313 176.226C124.774 176.656 133.246 175.652 141.373 173.257C143.225 172.675 145.005 172.154 146.615 171.5C147.414 171.185 148.213 170.918 148.951 170.603L151.07 169.67C152.438 169.113 153.6 168.459 154.701 167.95C155.803 167.441 156.651 166.944 157.353 166.532L159.023 165.611C159.215 165.487 159.423 165.389 159.641 165.321Z" fill="#EBEBEB"/>
<path d="M156.167 207.172C155.624 206.942 155.098 206.675 154.593 206.372L150.332 203.949L135.805 195.552L135.623 195.443V195.237C136.144 192.656 136.7 189.869 137.282 187.009C138.153 182.696 139.001 178.6 139.703 174.893C140.102 173.027 140.429 171.258 140.792 169.573C141.121 168.016 141.641 166.506 142.342 165.078C143.357 162.957 145.153 161.311 147.354 160.486C147.95 160.28 148.576 160.178 149.206 160.183C149.422 160.168 149.64 160.193 149.848 160.256C149.022 160.283 148.205 160.439 147.426 160.716C145.347 161.594 143.671 163.219 142.729 165.272C142.075 166.683 141.591 168.168 141.289 169.695C140.962 171.355 140.623 173.136 140.26 174.99C139.509 178.746 138.686 182.841 137.838 187.106C137.257 189.978 136.688 192.753 136.168 195.334L136.023 195.019L150.465 203.609L154.642 206.154C155.178 206.45 155.688 206.79 156.167 207.172Z" fill="#BCBCBC"/>
<path d="M162.086 184.853C162.193 185.931 162.16 187.018 161.989 188.088C161.736 190.678 161.274 193.242 160.609 195.758C159.944 198.276 159.086 200.739 158.043 203.125C157.664 204.139 157.155 205.101 156.529 205.984C156.826 204.95 157.194 203.938 157.631 202.955C159.469 198.134 160.784 193.129 161.553 188.027C161.663 186.959 161.841 185.899 162.086 184.853Z" fill="#BCBCBC"/>
<path d="M57.0672 377.545L56.8493 396.035C56.8493 396.035 37.9882 402.033 37.625 405.45L73.4346 407.146L74.9599 378.345L57.0672 377.545Z" fill="#455A64"/>
<path d="M68.0593 395.005C68.3991 395.127 68.6822 395.37 68.8542 395.687C69.0262 396.005 69.0751 396.375 68.9914 396.726C68.8847 397.071 68.649 397.363 68.3333 397.539C68.0176 397.715 67.6463 397.762 67.2966 397.671C66.9377 397.539 66.6397 397.28 66.4589 396.943C66.2782 396.605 66.2273 396.214 66.316 395.841C66.4681 395.495 66.7484 395.22 67.0982 395.076C67.448 394.931 67.8402 394.928 68.1924 395.066" fill="#E0E0E0"/>
<path d="M73.4341 407.146V404.238L39.0772 403.693C39.0772 403.693 37.4429 404.311 37.5761 405.45L73.4341 407.146Z" fill="#E0E0E0"/>
<path d="M56.2803 395.829C56.2803 395.999 57.1519 396.12 57.9751 396.726C58.7983 397.332 59.1857 398.083 59.4036 398.022C59.6215 397.962 59.4036 396.944 58.3262 396.229C57.2487 395.514 56.2439 395.66 56.2803 395.829Z" fill="#263238"/>
<path d="M52.4414 397.198C52.4414 397.368 53.1436 397.707 53.652 398.471C54.1605 399.234 54.3421 400.034 54.5236 400.034C54.7052 400.034 54.8505 399.052 54.1362 398.107C53.422 397.162 52.4535 397.041 52.4414 397.198Z" fill="#263238"/>
<path d="M50.0935 401.597C50.2508 401.597 50.5414 400.785 50.0935 399.803C49.6455 398.822 48.8829 398.41 48.8102 398.592C48.7376 398.773 49.2097 399.27 49.5245 400.082C49.8392 400.894 49.8998 401.572 50.0935 401.597Z" fill="#263238"/>
<path d="M56.7875 391.613C56.8602 391.782 57.6713 391.613 58.664 391.685C59.6567 391.758 60.3951 392.158 60.492 392.013C60.5888 391.867 59.8867 391.201 58.7245 391.08C57.5623 390.958 56.7149 391.479 56.7875 391.613Z" fill="#263238"/>
<g opacity="0.3">
<path opacity="0.3" d="M57.0308 381.192L56.9824 384.488L74.5967 385.167L74.7661 382.21L57.0308 381.192Z" fill="black"/>
</g>
<path d="M56.9102 387.881C57.4883 388.073 58.1082 388.102 58.7018 387.965C59.3538 387.881 59.9925 387.714 60.6025 387.469C60.9669 387.333 61.3193 387.167 61.6557 386.972C61.8649 386.874 62.057 386.743 62.2247 386.584C62.3461 386.464 62.424 386.308 62.4459 386.139C62.4678 385.969 62.4326 385.798 62.3458 385.651C62.2625 385.526 62.1515 385.421 62.0213 385.345C61.8912 385.27 61.7454 385.225 61.5952 385.215C61.3675 385.203 61.1392 385.224 60.9172 385.276C60.5328 385.35 60.1559 385.459 59.7914 385.603C59.1752 385.85 58.5998 386.189 58.0844 386.608C57.2128 387.348 56.8738 387.99 56.9586 388.026C57.0433 388.062 57.467 387.553 58.3387 386.96C58.8513 386.618 59.4043 386.341 59.9851 386.136C60.3247 386.02 60.6728 385.931 61.0262 385.869C61.4136 385.784 61.7405 385.797 61.8252 385.966C61.9099 386.136 61.8252 386.063 61.8252 386.172C61.6998 386.285 61.5617 386.382 61.4136 386.463C61.0867 386.645 60.7599 386.814 60.4451 386.96C59.8747 387.207 59.2831 387.401 58.6776 387.541C58.0818 387.616 57.4914 387.729 56.9102 387.881Z" fill="#263238"/>
<path d="M57.1632 388.147C57.5231 387.651 57.7141 387.052 57.708 386.439C57.7752 385.777 57.726 385.108 57.5627 384.464C57.4652 384.079 57.3272 383.705 57.1511 383.349C57.066 383.108 56.9197 382.892 56.7266 382.725C56.5335 382.557 56.3002 382.442 56.0495 382.392C55.8913 382.386 55.7348 382.426 55.5993 382.508C55.4638 382.59 55.3552 382.709 55.2868 382.852C55.1799 383.057 55.1064 383.278 55.0689 383.506C55.0083 383.908 55.0083 384.316 55.0689 384.718C55.1351 385.395 55.368 386.044 55.7468 386.608C56.4005 387.578 57.1269 387.82 57.139 387.759C57.1511 387.699 56.6063 387.311 56.11 386.39C55.826 385.863 55.6608 385.28 55.6257 384.682C55.6063 384.332 55.6348 383.982 55.7105 383.64C55.7831 383.264 55.9405 382.961 56.0858 383.01C56.231 383.058 56.5458 383.313 56.679 383.628C56.8431 383.945 56.9768 384.278 57.0785 384.621C57.2523 385.207 57.342 385.815 57.3448 386.427C57.248 387.469 57.03 388.111 57.1632 388.147Z" fill="#263238"/>
<path d="M130.066 243.643C130.066 243.643 74.1117 220.137 56.8001 219.155C45.9047 218.525 37.721 225.504 39.198 236.749C39.9364 242.383 55.3958 308.237 55.3958 308.237L78.9541 297.478L67.6229 251.931L113.626 274.298L130.066 243.643Z" fill="#263238"/>
<path d="M60.5905 240.408C60.4089 240.565 62.2611 242.952 64.2223 246.115C66.1834 249.277 67.4909 252.004 67.7088 251.919C67.9267 251.834 66.9219 248.914 64.9244 245.691C62.9269 242.468 60.7963 240.263 60.5905 240.408Z" fill="#455A64"/>
<path d="M56.0135 243.025C55.8925 243.231 58.7132 245.024 62.0665 247.472C65.4199 249.919 67.9379 252.064 68.1195 251.894C68.3011 251.725 65.8799 249.217 62.5144 246.793C59.149 244.37 56.1104 242.831 56.0135 243.025Z" fill="#455A64"/>
<path d="M173.709 257.771C173.709 257.771 166.675 266.847 159.969 269.331C151.494 272.445 89.1969 301.876 89.1969 301.876C89.1969 301.876 77.8899 385.954 78.7857 382.44L52.6973 381.81L55.5301 304.372C55.869 294.461 63.8106 283.071 72.3453 278.006L130.067 243.643L173.709 257.771Z" fill="#263238"/>
<path d="M55.0324 318.549C55.1152 318.2 55.1518 317.841 55.1413 317.482C55.1413 316.707 55.2382 315.701 55.2987 314.441C55.4469 310.713 55.7945 306.996 56.3398 303.306C57.1041 297.852 59.0367 292.627 62.0054 287.99C63.8425 285.324 66.1088 282.982 68.7122 281.059C71.5373 278.999 74.4934 277.125 77.5617 275.449C90.1156 268.252 100.95 260.909 108.965 255.881C112.96 253.336 116.228 251.313 118.456 249.932L121.046 248.332C121.36 248.159 121.656 247.956 121.93 247.726C121.597 247.847 121.276 248.002 120.974 248.187C120.356 248.514 119.448 248.999 118.298 249.653C115.986 250.949 112.693 252.912 108.614 255.384C100.515 260.304 89.6193 267.561 77.138 274.771C74.0381 276.466 71.0536 278.365 68.2037 280.454C65.5352 282.435 63.2188 284.852 61.3517 287.603C58.3654 292.361 56.4602 297.717 55.7708 303.294C55.2723 307.009 55.0135 310.753 54.9961 314.502C54.9961 315.713 54.9961 316.767 54.9961 317.555C54.9785 317.887 54.9907 318.219 55.0324 318.549Z" fill="#455A64"/>
<path d="M150.683 266.628C150.2 265.878 149.666 265.162 149.085 264.484C147.883 262.734 147.048 260.757 146.632 258.674C146.215 256.591 146.226 254.446 146.664 252.367C146.933 251.514 147.143 250.644 147.293 249.762C146.706 250.464 146.291 251.294 146.083 252.185C145.463 254.337 145.372 256.607 145.817 258.801C146.251 260.996 147.215 263.051 148.625 264.787C149.727 266.18 150.635 266.701 150.683 266.628Z" fill="#455A64"/>
<path d="M62.2851 381.81C62.3278 381.673 62.3523 381.53 62.3577 381.386C62.3577 381.047 62.4545 380.635 62.5151 380.114C62.6482 378.902 62.8177 377.303 63.0356 375.267C63.4593 370.954 64.0646 364.81 64.8152 357.25C65.1663 353.445 65.5658 349.277 66.0258 344.806C66.4859 340.335 66.9096 335.548 67.2364 330.508C67.5633 325.467 68.096 320.197 69.016 314.756C69.9145 309.175 71.5426 303.736 73.8584 298.58C76.2768 293.485 79.4704 288.797 83.3253 284.682C86.9374 280.855 90.8924 277.367 95.1408 274.262C102.422 269.13 109.984 264.409 117.791 260.122C124.413 256.317 129.691 253.07 133.19 250.622C134.957 249.411 136.289 248.429 137.185 247.739L138.19 246.951C138.416 246.773 138.525 246.676 138.517 246.66C138.382 246.715 138.255 246.788 138.141 246.878L137.088 247.605C136.168 248.247 134.8 249.193 133.02 250.368C129.461 252.719 124.159 255.881 117.501 259.625C109.629 263.85 102.014 268.535 94.6929 273.656C90.3879 276.769 86.3835 280.278 82.7321 284.137C78.8084 288.307 75.561 293.066 73.1078 298.241C70.7823 303.461 69.1541 308.965 68.2654 314.611C67.3575 320.063 66.8975 325.358 66.5222 330.362C66.1469 335.367 65.7716 340.189 65.3116 344.66C64.8515 349.131 64.561 353.299 64.2341 357.116C63.5925 364.689 63.0235 370.832 62.7209 375.158C62.5595 377.242 62.4384 378.858 62.3577 380.005C62.3577 380.526 62.2972 380.95 62.273 381.277C62.2488 381.604 62.2609 381.81 62.2851 381.81Z" fill="#455A64"/>
<path d="M123.746 110.286C122.867 108.022 121.211 106.145 119.074 104.992C116.938 103.84 114.461 103.487 112.088 103.998C111.044 104.38 109.952 104.617 108.843 104.701C107.5 104.47 106.179 104.121 104.897 103.659C103.444 103.423 101.955 103.736 100.72 104.538C99.485 105.34 98.5919 106.572 98.2143 107.996C97.0772 107.72 95.8934 107.695 94.7456 107.923C93.5978 108.151 92.5134 108.627 91.5681 109.317C90.6411 110.035 89.9829 111.045 89.6996 112.184C89.4162 113.323 89.5243 114.524 90.0064 115.593C90.4786 116.478 91.217 117.181 91.6892 118.09C92.4034 119.58 92.0766 121.373 92.5729 122.936C93.0388 124.073 93.815 125.055 94.8127 125.771C95.8104 126.487 96.9892 126.907 98.2143 126.983C100.679 127.11 103.145 126.76 105.478 125.953" fill="#263238"/>
<path d="M112.476 158.208C112.173 155.857 111.98 154.21 111.98 154.21C111.98 154.21 104.171 154.21 101.084 144.516C99.5225 139.67 98.4814 131.576 97.8519 124.887C97.7143 123.462 97.8663 122.024 98.2989 120.66C98.7315 119.296 99.4356 118.033 100.369 116.948C101.302 115.864 102.445 114.979 103.729 114.349C105.013 113.718 106.411 113.354 107.839 113.279L128.565 112.201L129.013 115.412L134.473 155.3C134.67 156.746 134.58 158.217 134.207 159.629C133.835 161.04 133.187 162.363 132.302 163.523C131.416 164.683 130.311 165.656 129.048 166.387C127.786 167.117 126.391 167.591 124.945 167.78C123.498 167.974 122.027 167.88 120.616 167.504C119.205 167.128 117.883 166.476 116.724 165.587C115.566 164.697 114.594 163.588 113.865 162.321C113.136 161.055 112.664 159.657 112.476 158.208Z" fill="#B78876"/>
<path d="M100.745 130.594C100.796 130.925 100.974 131.224 101.24 131.427C101.506 131.631 101.841 131.723 102.174 131.684C102.339 131.674 102.5 131.63 102.647 131.555C102.794 131.48 102.924 131.376 103.03 131.249C103.135 131.122 103.213 130.975 103.26 130.816C103.306 130.658 103.32 130.491 103.3 130.327C103.255 129.993 103.079 129.691 102.811 129.486C102.543 129.282 102.205 129.192 101.871 129.237C101.706 129.247 101.546 129.291 101.398 129.366C101.251 129.441 101.121 129.545 101.016 129.672C100.91 129.799 100.832 129.947 100.785 130.105C100.739 130.264 100.725 130.43 100.745 130.594Z" fill="#263238"/>
<path d="M100.213 128.801C100.394 128.934 101.242 128.074 102.634 127.856C104.026 127.637 105.055 128.171 105.236 127.977C105.418 127.783 105.091 127.613 104.607 127.371C103.95 127.048 103.209 126.942 102.488 127.068C101.776 127.174 101.117 127.511 100.612 128.025C100.213 128.413 100.116 128.74 100.213 128.801Z" fill="#263238"/>
<path d="M113.724 128.389C113.775 128.719 113.953 129.017 114.219 129.218C114.486 129.42 114.821 129.509 115.152 129.467C115.317 129.458 115.478 129.416 115.626 129.342C115.773 129.269 115.905 129.166 116.011 129.04C116.118 128.914 116.197 128.768 116.245 128.61C116.293 128.452 116.309 128.286 116.29 128.122C116.239 127.791 116.062 127.492 115.796 127.289C115.529 127.085 115.195 126.993 114.862 127.032C114.696 127.04 114.534 127.083 114.385 127.157C114.237 127.232 114.105 127.335 113.998 127.463C113.891 127.59 113.812 127.738 113.765 127.897C113.718 128.057 113.704 128.224 113.724 128.389Z" fill="#263238"/>
<path d="M113.698 126.911C113.879 127.056 114.727 126.184 116.119 125.978C117.511 125.772 118.54 126.28 118.722 126.087C118.903 125.893 118.576 125.735 118.092 125.481C117.432 125.169 116.694 125.064 115.974 125.178C115.264 125.293 114.607 125.627 114.097 126.135C113.698 126.523 113.613 126.838 113.698 126.911Z" fill="#263238"/>
<path d="M110.346 137.864C109.587 137.762 108.817 137.762 108.058 137.864C107.707 137.864 107.368 137.864 107.271 137.634C107.16 137.283 107.16 136.906 107.271 136.555C107.465 135.659 107.67 134.714 107.888 133.732C108.479 131.323 108.884 128.873 109.099 126.402C108.306 128.773 107.703 131.204 107.295 133.672C107.101 134.665 106.908 135.61 106.738 136.519C106.569 136.968 106.569 137.463 106.738 137.913C106.809 138.027 106.904 138.125 107.017 138.198C107.13 138.272 107.258 138.319 107.392 138.337C107.593 138.362 107.796 138.362 107.997 138.337C108.797 138.279 109.586 138.12 110.346 137.864Z" fill="#263238"/>
<path d="M111.98 154.21C116.659 153.537 121.06 151.579 124.692 148.551C124.692 148.551 122.537 155.918 112.477 156.536L111.98 154.21Z" fill="#AA6550"/>
<path d="M114.522 138.167C114.292 138.167 114.522 139.669 113.432 140.93C112.343 142.19 110.72 142.275 110.732 142.481C110.745 142.687 111.132 142.723 111.81 142.626C112.682 142.509 113.483 142.078 114.062 141.414C114.629 140.786 114.925 139.958 114.885 139.112C114.849 138.482 114.619 138.143 114.522 138.167Z" fill="#263238"/>
<path d="M112.489 121.603C112.682 121.955 114.026 121.603 115.66 121.494C117.295 121.385 118.663 121.664 118.82 121.301C118.977 120.937 118.614 120.816 118.033 120.537C117.263 120.201 116.425 120.046 115.585 120.086C114.745 120.126 113.926 120.359 113.191 120.767C112.658 121.095 112.404 121.434 112.489 121.603Z" fill="#263238"/>
<path d="M100.079 124.754C100.37 125.02 101.29 124.548 102.392 124.354C103.493 124.16 104.522 124.233 104.692 123.869C104.764 123.7 104.558 123.409 104.098 123.191C103.479 122.915 102.79 122.839 102.125 122.973C101.462 123.09 100.853 123.412 100.382 123.894C100.031 124.281 99.9461 124.621 100.079 124.754Z" fill="#263238"/>
<path d="M96.7626 120.513C96.7626 120.513 102.247 122.367 108.542 118.15C112.67 115.388 117.682 113.655 118.929 114.406C120.176 115.157 120.987 119.665 125.527 120.464C125.527 120.464 126.326 129.188 129.752 128.437C132.173 127.904 130.768 118.283 129.752 112.795C129.539 111.733 128.978 110.774 128.157 110.069C127.337 109.364 126.304 108.954 125.224 108.905L118.844 108.651L110.878 110.88L102.331 113.207L95.8184 115.933L96.7626 120.513Z" fill="#263238"/>
<path d="M128.988 124.887C129.109 124.802 134.4 122.015 135.38 127.795C136.361 133.575 130.368 133.357 130.32 133.199C130.272 133.042 128.988 124.887 128.988 124.887Z" fill="#B78876"/>
<path d="M131.712 130.703C131.712 130.703 131.833 130.764 132.014 130.812C132.269 130.873 132.538 130.834 132.765 130.703C133.094 130.402 133.339 130.02 133.475 129.595C133.611 129.17 133.633 128.716 133.54 128.28C133.47 127.783 133.292 127.307 133.019 126.886C132.931 126.716 132.804 126.569 132.648 126.457C132.493 126.346 132.313 126.273 132.123 126.244C132.003 126.234 131.883 126.266 131.784 126.334C131.684 126.403 131.612 126.504 131.578 126.62C131.578 126.789 131.578 126.898 131.578 126.923C131.578 126.947 131.445 126.838 131.445 126.596C131.456 126.447 131.515 126.306 131.615 126.196C131.755 126.049 131.945 125.963 132.147 125.953C132.394 125.958 132.635 126.026 132.847 126.151C133.059 126.277 133.235 126.455 133.358 126.668C133.689 127.126 133.901 127.659 133.975 128.219C134.096 128.729 134.061 129.264 133.875 129.754C133.69 130.244 133.362 130.667 132.934 130.97C132.787 131.04 132.626 131.076 132.462 131.076C132.299 131.076 132.138 131.04 131.99 130.97C131.748 130.849 131.7 130.727 131.712 130.703Z" fill="#AA6550"/>
<path d="M99.5352 105.864C99.5352 105.864 99.7289 106.179 100.14 106.639C100.73 107.292 101.482 107.777 102.32 108.045C103.564 108.447 104.894 108.506 106.169 108.214C107.755 107.829 109.312 107.335 110.83 106.736C112.402 106.117 114.081 105.816 115.769 105.851C117.197 105.903 118.549 106.512 119.534 107.548C120.205 108.224 120.613 109.118 120.684 110.068C120.735 110.413 120.675 110.765 120.515 111.074C120.454 111.074 120.515 110.71 120.442 110.092C120.291 109.234 119.866 108.447 119.232 107.851C118.299 106.956 117.061 106.449 115.769 106.433C114.157 106.434 112.56 106.739 111.06 107.33C109.517 107.944 107.925 108.431 106.302 108.784C104.932 109.067 103.51 108.958 102.198 108.469C101.308 108.142 100.534 107.56 99.971 106.797C99.5352 106.239 99.5352 105.876 99.5352 105.864Z" fill="#455A64"/>
<path d="M119.037 111.401C119.037 111.401 118.746 111.098 118.141 110.674C117.278 110.145 116.284 109.868 115.272 109.874C113.737 109.869 112.224 110.239 110.865 110.953C109.167 111.871 107.412 112.68 105.611 113.376C103.903 113.907 102.104 114.081 100.325 113.887C98.5469 113.693 96.8273 113.136 95.2729 112.249C94.3326 111.72 93.4725 111.059 92.7186 110.286C92.425 110.024 92.1792 109.712 91.9922 109.366C93.064 110.314 94.2326 111.146 95.4787 111.85C98.54 113.458 102.111 113.793 105.418 112.782C107.193 112.064 108.93 111.255 110.623 110.359C112.068 109.627 113.679 109.285 115.296 109.366C116.395 109.408 117.454 109.793 118.323 110.468C118.64 110.709 118.887 111.032 119.037 111.401Z" fill="#455A64"/>
<path d="M101.108 209.862L72.9978 185.883L63.7246 187.979C63.7246 187.979 73.4942 208.311 80.5641 215.763C80.5641 215.763 87.5492 225.117 99.0742 221.07C110.599 217.023 101.108 209.862 101.108 209.862Z" fill="#B78876"/>
<path d="M70.8674 159.468H58.9188C58.4679 159.493 58.0282 159.617 57.6315 159.833C57.2349 160.049 56.8913 160.351 56.6258 160.717C56.3602 161.082 56.1795 161.502 56.0966 161.947C56.0137 162.391 56.0307 162.848 56.1465 163.285L68.1678 186.706C68.3957 187.152 68.7426 187.527 69.1699 187.788C69.5973 188.049 70.0884 188.186 70.589 188.185H85.1162C85.4577 188.147 85.7845 188.024 86.0674 187.829C86.3503 187.634 86.5806 187.372 86.7376 187.066C86.8946 186.76 86.9736 186.42 86.9674 186.076C86.9612 185.732 86.87 185.395 86.7021 185.095L75.1167 162.158C74.7223 161.363 74.1175 160.692 73.3682 160.218C72.6189 159.743 71.7539 159.484 70.8674 159.468Z" fill="#455A64"/>
<path d="M70.068 160.886H58.1194C57.7764 160.884 57.4387 160.97 57.1388 161.136C56.8388 161.303 56.5867 161.543 56.4067 161.836C56.2267 162.128 56.1248 162.461 56.111 162.804C56.0972 163.147 56.1718 163.488 56.3277 163.794L68.0584 186.707C68.2885 187.151 68.6358 187.524 69.0627 187.784C69.4895 188.045 69.9796 188.183 70.4796 188.185H84.8857C85.0835 188.177 85.2763 188.12 85.4471 188.02C85.6179 187.92 85.7616 187.779 85.8655 187.61C85.9695 187.442 86.0305 187.25 86.0433 187.053C86.0561 186.855 86.0203 186.657 85.939 186.476L74.3414 163.551C73.9496 162.751 73.3414 162.078 72.5859 161.606C71.8305 161.135 70.9581 160.885 70.068 160.886Z" fill="#263238"/>
<path d="M69.0515 170.458L61.7878 173.366L60.2383 179.231L63.7369 187.955L76.533 189.845L72.7801 186.004L73.2522 182.647C73.2522 182.647 76.884 181.521 76.884 180.975C76.884 180.43 76.4361 178.552 75.8913 178.491C74.4582 178.819 73.0534 179.261 71.6906 179.812C71.6906 179.812 76.1335 176.286 76.0124 175.717C75.8913 175.147 75.4071 173.705 74.5234 173.536C73.6396 173.366 66.4487 176.771 66.4487 176.771L65.2381 179.424L64.2212 175.171C64.2212 175.171 70.6252 173.378 69.0515 170.458Z" fill="#B78876"/>
<path d="M69.9718 184.223C69.9718 184.223 69.7902 183.98 69.7176 183.496C69.6411 182.879 69.7109 182.252 69.9212 181.667C70.1315 181.082 70.4765 180.554 70.9282 180.127C71.2914 179.812 71.5698 179.703 71.594 179.74C71.0416 180.352 70.5882 181.047 70.2503 181.799C70.0347 182.588 69.9409 183.406 69.9718 184.223Z" fill="#AA6550"/>
<path d="M66.5098 182.95C66.6515 182.324 66.7486 181.688 66.8003 181.048C66.8297 180.332 66.9518 179.624 67.1635 178.94C67.3018 178.5 67.5432 178.1 67.8676 177.774C68.1919 177.447 68.5898 177.203 69.0278 177.061C70.759 176.431 72.3328 175.923 73.4707 175.547C74.0792 175.317 74.7072 175.142 75.3471 175.026C74.7836 175.348 74.1869 175.608 73.5676 175.801C72.4417 176.238 70.8679 176.795 69.161 177.413C68.7623 177.55 68.3986 177.774 68.0956 178.067C67.8269 178.352 67.6207 178.691 67.4903 179.061C67.2687 179.716 67.1264 180.395 67.0666 181.084C67.0432 181.744 66.8515 182.386 66.5098 182.95Z" fill="#AA6550"/>
<path d="M64.8379 181.642C64.7233 181.168 64.7233 180.674 64.8379 180.2C64.971 179.424 65.1526 178.819 65.2616 178.831C65.3752 179.305 65.3752 179.799 65.2616 180.273C65.1284 181.048 64.9468 181.654 64.8379 181.642Z" fill="#AA6550"/>
<path d="M64.6446 165.308C64.6446 165.61 64.734 165.906 64.9017 166.157C65.0693 166.408 65.3075 166.603 65.5862 166.719C65.8649 166.835 66.1716 166.865 66.4675 166.806C66.7634 166.747 67.0352 166.602 67.2485 166.388C67.4619 166.175 67.6071 165.902 67.666 165.606C67.7248 165.31 67.6946 165.003 67.5792 164.724C67.4637 164.445 67.2682 164.207 67.0174 164.039C66.7665 163.871 66.4716 163.782 66.1699 163.782C65.9692 163.78 65.7701 163.819 65.5843 163.895C65.3985 163.971 65.2297 164.083 65.0877 164.225C64.9458 164.367 64.8335 164.536 64.7574 164.722C64.6813 164.908 64.643 165.108 64.6446 165.308Z" fill="#FAFAFA"/>
<path d="M22.784 396.265C24.6802 396.854 26.4381 397.819 27.9525 399.104C29.467 400.388 30.7066 401.966 31.5972 403.741C33.362 407.309 34.2856 411.235 34.2968 415.216C34.5389 422.874 31.3671 431.113 27.6264 437.814C20.4717 433.209 17.6147 423.698 16.4525 418.851C14.6366 411.121 16.0288 396.047 22.784 396.253" fill="#CF4E32"/>
<path d="M36.8162 449.203C36.0704 447.11 35.8904 444.857 36.2943 442.672C36.6982 440.487 37.6717 438.447 39.1164 436.76C40.5906 435.099 42.3811 433.75 44.383 432.791C46.3848 431.832 48.5577 431.282 50.7745 431.174C52.8083 431.028 55.0842 431.295 56.4764 432.797C57.0882 433.537 57.4916 434.427 57.6448 435.375C57.798 436.323 57.6956 437.294 57.348 438.189C56.6244 439.972 55.4424 441.531 53.922 442.709C48.9222 446.974 43.305 450.173 36.8162 449.203Z" fill="#CF4E32"/>
<path d="M32.0451 473.522C31.9902 472.998 31.9902 472.47 32.0451 471.947C32.0451 470.82 32.142 469.378 32.2025 467.645C32.2499 462.872 33.0675 458.138 34.6237 453.626C36.2511 449.105 39.0504 445.099 42.7347 442.018C43.8528 441.114 45.0715 440.341 46.3665 439.716C46.8266 439.486 47.214 439.377 47.4561 439.268C47.6982 439.159 47.8435 439.135 47.8556 439.159C44.8688 440.637 42.2051 442.694 40.0189 445.211C37.8327 447.728 36.1675 450.654 35.1201 453.82C33.6052 458.287 32.7607 462.954 32.6141 467.669C32.4931 469.475 32.3841 470.941 32.2873 471.959C32.2497 472.486 32.1687 473.008 32.0451 473.522Z" fill="#263238"/>
<path d="M22.7366 407.837C22.8091 408.055 22.8657 408.277 22.9061 408.503C23.011 409.004 23.1442 409.646 23.3056 410.43C23.6446 412.102 24.1046 414.537 24.6373 417.542C25.7147 423.601 27.0585 431.901 28.378 441.134C29.6976 450.367 30.6782 458.751 31.3077 464.834C31.6224 467.875 31.8524 470.335 31.9977 472.043C32.0542 472.851 32.1026 473.505 32.143 474.006C32.1778 474.231 32.1778 474.46 32.143 474.685C32.0826 474.463 32.0421 474.236 32.0219 474.006C31.9614 473.51 31.8767 472.867 31.7677 472.056C31.5498 470.299 31.2592 467.863 30.8961 464.882C30.1697 458.824 29.1165 450.439 27.8211 441.206C26.5258 431.973 25.2183 423.698 24.2499 417.639C23.7656 414.671 23.3782 412.247 23.0393 410.49C22.9182 409.691 22.8214 409.049 22.7366 408.552C22.705 408.315 22.705 408.074 22.7366 407.837Z" fill="#263238"/>
<path d="M26.5009 455.395C25.0768 450.941 22.6134 446.89 19.3146 443.578C16.0159 440.266 11.9765 437.787 7.53083 436.348C5.2549 435.633 2.39788 435.378 0.872526 437.208C-0.652831 439.037 0.170377 441.824 1.34466 443.896C3.87048 448.177 7.60688 451.612 12.0821 453.769C16.5572 455.925 21.5705 456.706 26.4888 456.013" fill="#CF4E32"/>
<path d="M9.55358 443.351C10.0405 443.437 10.5187 443.566 10.9821 443.739C11.5386 443.903 12.0844 444.101 12.6164 444.333C13.2459 444.611 13.9844 444.854 14.735 445.266C15.5646 445.672 16.3728 446.121 17.1562 446.61C18.0782 447.166 18.9712 447.769 19.8316 448.416C23.7933 451.394 26.9683 455.296 29.0806 459.781C29.5395 460.756 29.9437 461.755 30.2912 462.774C30.6094 463.653 30.8723 464.552 31.0781 465.464C31.2661 466.215 31.4116 466.975 31.5139 467.742C31.6191 468.315 31.6878 468.893 31.7197 469.475C31.7698 469.966 31.7779 470.46 31.7439 470.953C31.6107 470.953 31.526 468.833 30.6665 465.549C30.4374 464.659 30.1626 463.781 29.8432 462.92C29.4959 461.92 29.0917 460.941 28.6326 459.987C27.5591 457.834 26.2562 455.803 24.7466 453.929C23.1942 452.062 21.4494 450.365 19.541 448.864C18.705 448.218 17.8362 447.615 16.9382 447.059C16.157 446.551 15.3488 446.086 14.517 445.665C11.5511 444.054 9.50515 443.46 9.55358 443.351Z" fill="#263238"/>
</g>
<defs>
<clipPath id="clip0">
<rect width="830" height="475" fill="white"/>
</clipPath>
</defs>
</svg>
