<svg width="192" height="192" viewBox="0 0 192 192" fill="none" xmlns="http://www.w3.org/2000/svg">
<path d="M116.679 36.1321C116.489 36.3685 116.174 36.8257 116.016 37.141C115.843 37.4563 115.544 37.7873 115.339 37.8819C115.134 37.9765 114.235 38.0553 113.337 38.0553C111.949 38.0553 111.681 38.008 111.445 37.7558C111.303 37.5981 110.909 37.3459 110.578 37.1883C109.979 36.9203 109.947 36.9203 109.569 37.204C109.017 37.6297 108.339 38.8908 108.229 39.742C108.119 40.4199 108.056 40.4987 107.331 40.8928C105.25 41.9963 104.509 42.1067 103.626 41.3973C103.058 40.9244 102.932 40.8928 101.782 40.8928C101.088 40.8928 100.457 40.814 100.379 40.7352C100.284 40.6406 99.8111 40.5618 99.3224 40.5303C98.4711 40.4987 98.4081 40.5145 97.7302 41.1923L97.0051 41.9017L96.5637 41.4761C96.0435 40.9716 95.3656 40.9244 94.3725 41.3342C93.4582 41.7126 93.0483 42.0909 92.3547 43.1786C91.7872 44.0772 90.3842 45.9846 89.3753 47.2615C88.9023 47.8448 88.8866 47.9078 88.8866 49.5473C88.8866 50.8715 88.9654 51.4547 89.2649 52.4006C89.9585 54.576 90.0689 54.9543 89.9743 55.0962C89.927 55.175 89.6275 55.2381 89.2964 55.2381C88.7605 55.2381 88.6816 55.175 88.4294 54.6075C88.1457 53.9612 87.0264 52.8735 86.2067 52.4321C85.8914 52.2745 85.0717 52.1483 83.7317 52.0695C82.045 51.9749 81.6509 51.9119 81.3041 51.6281C80.7681 51.2183 80.5474 51.2183 79.9484 51.6281C79.6016 51.8804 79.3493 51.9434 78.9395 51.8804C78.2774 51.77 77.9936 52.0065 77.4576 53.0784C77.1581 53.6775 77.0478 53.772 76.8113 53.6617C76.496 53.4883 76.2753 52.8893 76.0389 51.6124C75.8024 50.3512 75.4399 49.6103 74.9196 49.4054C74.5413 49.2478 74.3679 49.2793 73.6427 49.6103C73.1856 49.831 72.5866 50.0517 72.3186 50.099C71.7984 50.2094 71.1047 50.8715 70.6003 51.7227C70.222 52.3533 70.0801 52.369 69.954 51.8015C69.8909 51.5651 69.7175 51.1079 69.5599 50.7926C69.1815 50.0517 68.5983 49.9256 67.0849 50.2409L65.9814 50.4616L65.6346 49.7365C65.0986 48.5699 65.0671 48.5384 64.6572 48.4911C64.3577 48.4596 64.0897 48.6645 63.3646 49.4842C62.8601 50.0517 62.3872 50.5089 62.3242 50.5089C62.2769 50.5089 62.1192 50.3197 62.0089 50.0675C61.6621 49.3739 61.3468 49.0901 60.9842 49.0901C60.4955 49.0901 60.3379 49.3423 60.1172 50.4616C59.9123 51.502 59.8177 51.6124 59.4866 51.2183C59.329 51.0133 59.329 50.9188 59.5182 50.6981C60.1803 49.9571 59.928 49.0901 59.0452 49.0901C58.7615 49.0901 58.257 49.2478 57.926 49.4369L57.327 49.7837L56.4127 49.4054C55.9082 49.2005 55.2461 49.0428 54.9624 49.0428C54.4264 49.0586 54.4106 49.0271 54.2057 48.0497C54.048 47.2142 53.7485 47.0723 51.983 47.0093C50.5169 46.962 50.3435 46.9305 49.7129 46.4891C49.0036 46.0004 48.2784 45.89 47.2222 46.1265C46.7808 46.2368 46.6862 46.2053 46.5759 45.89C46.3867 45.3856 45.9296 45.1964 44.0379 44.8338C43.1236 44.6447 42.2408 44.424 42.0516 44.3451C41.8624 44.2348 41.2319 44.219 40.4752 44.2663C36.014 44.6131 35.5095 44.5816 33.9647 43.7619L33.2553 43.3993L32.2306 43.8249C31.6631 44.0614 31.0956 44.3294 30.9695 44.424C30.6857 44.6447 28.0847 44.5974 27.6748 44.3767C27.4383 44.2506 27.2334 44.2663 26.9181 44.424C26.6659 44.5501 25.7673 44.8969 24.9319 45.2279C23.1505 45.9058 22.9929 46.0319 22.315 47.23C21.7318 48.2862 21.4638 48.6487 20.7386 49.3581C20.313 49.7837 20.0923 49.8783 19.5406 49.8783C19.0046 49.8783 18.7839 49.7837 18.4213 49.4054C17.8065 48.7591 16.9237 48.7433 16.2932 49.3739L15.8675 49.8153L15.8833 52.6528C15.9148 55.7741 15.8518 55.5376 17.1287 57.3662C17.5385 57.918 17.7592 58.454 17.8223 58.8954C17.9641 60.1407 18.7839 61.4176 20.0923 62.3792L20.4706 62.663L19.8716 62.5684C19.1937 62.458 18.8154 62.663 18.8154 63.1516C18.8154 63.3093 19.1622 64.1133 19.5878 64.9172C20.3445 66.336 20.4391 66.7931 20.0765 67.2976C20.0135 67.3764 19.8716 67.9124 19.7612 68.4799C19.5406 69.6937 19.3671 69.9617 18.973 69.741C18.2952 69.3784 17.6962 69.5518 16.971 70.3243C16.6084 70.7342 16.2932 71.1283 16.2932 71.1913C16.2932 71.3174 15.2527 72.3894 14.5434 72.9726C13.9916 73.4456 13.6133 73.9185 11.4378 76.8348C10.3659 78.2694 9.40427 79.5462 9.30969 79.6724C9.19934 79.7985 8.97865 80.1295 8.821 80.3817C8.6476 80.6497 8.4269 80.9177 8.30079 80.9808C8.19044 81.0438 8.09586 81.1699 8.09586 81.2645C8.09586 81.3433 7.55988 82.1316 6.91356 82.9828C6.26723 83.8498 5.6682 84.7169 5.57361 84.9375C5.24257 85.8203 5.24257 87.1603 5.57361 89.0362C5.90466 90.9436 6.26723 91.8737 6.97661 92.5043C7.37071 92.8669 7.43377 93.6235 7.05543 93.4817C6.91356 93.4344 6.75592 93.3871 6.69286 93.3871C6.6298 93.3871 6.18841 93.0403 5.71549 92.5989C4.29672 91.2905 3.69769 91.5742 3.13019 93.86C2.78338 95.2788 2.13705 96.7291 1.2385 98.1163C0.875927 98.6838 0.49759 99.3459 0.403006 99.6139C0.198073 100.15 -0.0856796 102.672 0.0246687 102.956C0.0561968 103.066 0.355714 103.303 0.686759 103.492C1.31732 103.854 1.42767 104.012 1.8533 105.352C2.21587 106.44 2.32622 106.55 3.28783 106.723C3.99721 106.85 4.07603 106.913 4.12332 107.307C4.18638 107.795 4.61201 108.126 5.40021 108.268C5.69972 108.316 6.21994 108.442 6.56675 108.536C7.10272 108.678 7.16578 108.741 7.08696 109.072C7.00814 109.356 7.0712 109.514 7.33918 109.687C7.81211 109.971 9.07323 110.144 9.84567 110.018C10.4605 109.908 10.6496 109.687 10.9964 108.631C11.0437 108.489 11.1383 108.363 11.2014 108.379C11.2644 108.379 11.7058 108.836 12.163 109.388C12.6201 109.924 13.2349 110.491 13.5502 110.649C14.0862 110.901 14.1493 110.885 15.0793 110.554L16.0725 110.207L16.5139 110.633C17.0656 111.137 17.5228 111.263 18.311 111.137C20.313 110.838 20.6598 110.838 21.2904 111.2C21.8106 111.484 22.0943 111.531 23.0086 111.468C23.6077 111.437 24.6008 111.263 25.2156 111.09C25.8462 110.917 26.4137 110.806 26.4925 110.869C26.5871 110.917 26.6974 111.153 26.7447 111.374C26.9339 112.115 29.2512 114.18 30.1655 114.401C31.4897 114.732 33.0976 113.518 33.5548 111.863C33.6494 111.547 33.744 111.516 34.8001 111.516C35.4465 111.516 37.0071 111.405 38.2998 111.263C40.4594 111.043 40.759 110.98 41.9886 110.381C42.7295 110.034 44.1482 109.135 45.1571 108.379C46.9542 107.054 47.506 106.44 47.7267 105.494C47.774 105.257 47.8843 104.895 47.9789 104.674L48.1208 104.28L49.0508 104.69C49.9494 105.068 49.9967 105.084 50.4066 104.816C50.643 104.658 50.8164 104.39 50.8164 104.201C50.8164 103.902 50.8952 103.87 51.5416 103.917C52.1091 103.965 52.3298 103.917 52.6135 103.649L52.9603 103.318L53.4175 103.791C54.0638 104.453 54.4737 104.406 55.1831 103.539L55.7821 102.814L56.7437 102.924C57.5004 103.003 57.7368 102.972 57.8945 102.782C58.1625 102.467 58.4462 102.467 58.6984 102.767C58.8245 102.909 59.1714 103.003 59.6285 103.003C60.2433 103.003 60.5428 103.129 61.4571 103.76C63.4592 105.116 64.0424 105.604 64.2316 106.077C64.4838 106.66 64.6415 106.787 65.1932 106.787C65.5243 106.787 65.6031 106.85 65.5243 107.023C65.3982 107.37 65.8553 107.811 66.5805 108.048C67.1795 108.253 67.2583 108.237 68.2199 107.732C69.1973 107.212 69.2446 107.212 69.8279 107.433C70.285 107.606 70.4899 107.795 70.6003 108.158C70.8052 108.789 71.1205 109.12 72.1767 109.86C72.9176 110.365 73.1383 110.444 73.6585 110.365L74.2575 110.286L74.4467 111.043C74.5571 111.468 74.8881 112.146 75.1876 112.572C75.4871 112.982 75.7236 113.36 75.7236 113.423C75.7236 113.47 75.4083 113.723 75.0142 114.006C74.4625 114.401 74.3048 114.605 74.3048 114.952C74.3048 115.189 74.3837 115.472 74.4625 115.551C74.6359 115.725 74.4467 117.017 74.1157 117.869C73.9738 118.231 74.0053 118.357 74.2418 118.625C74.494 118.909 74.6516 118.941 75.2822 118.862L76.0231 118.751L75.9285 119.287C75.7551 120.375 76.4172 120.832 77.4104 120.328C78.3089 119.871 78.4508 119.918 78.1355 120.612C78.0094 120.943 77.836 121.352 77.7729 121.526C77.7099 121.699 77.568 122.046 77.4734 122.283C77.2527 122.866 77.2527 123.701 77.4892 123.938C77.5995 124.048 77.9148 124.127 78.1986 124.127C78.5454 124.127 78.7188 124.206 78.7188 124.348C78.7188 124.474 78.8922 124.915 79.1129 125.325C79.3336 125.735 79.507 126.192 79.507 126.35C79.507 126.854 80.0745 127.28 80.7523 127.28C81.2568 127.28 81.446 127.374 81.8558 127.831C82.1238 128.131 82.4076 128.383 82.5021 128.383C82.7544 128.383 82.6913 128.793 82.313 129.581C82.045 130.165 82.0135 130.37 82.1553 130.606C82.3918 130.969 82.4076 131.646 82.1869 131.773C81.7612 132.04 82.3603 133.743 82.8647 133.743C83.0854 133.743 83.6056 134.232 83.6056 134.437C83.6056 134.5 83.3061 134.531 82.9435 134.5C82.3445 134.452 82.2499 134.389 81.8716 133.743C81.446 133.018 81.1622 132.86 80.5316 133.018C80.2794 133.081 80.106 133.302 79.9799 133.696C79.8695 134.027 79.7434 134.342 79.6804 134.405C79.6173 134.468 79.2232 134.232 78.7976 133.885C78.372 133.538 77.899 133.176 77.7414 133.097C77.3631 132.892 76.3857 133.081 75.8497 133.459L75.4083 133.759V133.207C75.4083 132.245 74.6201 131.725 73.9107 132.23C73.7373 132.34 73.3905 132.482 73.1225 132.545C72.0979 132.797 71.7353 133.491 71.5461 135.556C71.42 136.912 71.5934 137.432 72.3186 137.857L72.8703 138.188L72.0191 139.024C71.1678 139.844 70.9786 140.285 71.3254 140.632C71.5934 140.9 71.3885 141.105 70.5372 141.389C69.5126 141.72 69.3549 141.925 69.4495 142.886C69.5441 143.8 69.4968 143.848 68.1569 144.132C66.9588 144.384 66.7381 144.636 66.7381 145.708C66.7381 147.158 66.6593 147.3 65.8553 147.3C64.3262 147.3 64.0424 147.836 64.7676 149.412C64.9883 149.885 65.1617 150.516 65.1617 150.8C65.1617 151.099 65.2563 151.446 65.3666 151.588C65.8553 152.203 68.8505 153.606 69.7017 153.606C70.222 153.606 70.7422 153.117 71.0102 152.376C71.1678 151.919 71.2466 151.872 71.7984 151.872C72.1452 151.872 73.5009 151.509 74.8093 151.083C76.1177 150.642 77.4104 150.295 77.6941 150.295C78.2301 150.295 78.7503 150.752 79.2863 151.667C79.4912 152.045 79.6804 152.187 79.9957 152.187C80.4528 152.187 80.5474 152.029 80.9888 150.374C81.3987 148.813 81.3829 148.451 80.8469 148.246C80.4213 148.088 80.1375 147.537 80.1375 146.859V146.449L80.3898 146.796C80.9415 147.584 82.0923 146.843 81.9977 145.755C81.9662 145.267 82.0135 145.188 82.5967 144.872C82.9593 144.683 83.8578 144.084 84.6145 143.548C85.3554 143.012 86.0491 142.571 86.1121 142.571C86.3959 142.571 87.4048 141.231 87.8777 140.269C88.5555 138.819 88.5082 138.456 87.5151 137.716C87.0579 137.369 86.5377 136.927 86.3643 136.722C86.0806 136.391 86.0963 136.391 86.6008 136.77C86.9003 137.006 87.4521 137.306 87.8304 137.448C88.193 137.605 88.6501 137.92 88.8235 138.173C89.328 138.882 89.8482 138.788 90.2423 137.92C90.4157 137.526 90.9201 136.628 91.3615 135.918L92.1655 134.626L92.0709 133.396C91.9921 132.182 91.9921 132.167 92.3704 132.167C92.5754 132.167 93.0956 132.025 93.537 131.851C94.1675 131.599 94.467 131.568 95.003 131.678C95.8385 131.851 98.2977 131.678 98.613 131.426C98.8022 131.252 98.9125 131.3 99.212 131.615C99.6692 132.104 100.142 132.119 100.71 131.678C101.041 131.41 101.34 131.331 102.097 131.347C102.775 131.363 103.153 131.284 103.342 131.11C103.721 130.779 104.225 130.937 105.187 131.694C106.054 132.387 106.085 132.45 105.786 132.844C105.612 133.097 105.533 133.097 104.966 132.908C104.619 132.781 103.862 132.624 103.311 132.561C102.743 132.513 101.892 132.356 101.403 132.23C100.284 131.946 100.363 131.946 100.158 132.34C100.016 132.592 100.032 132.718 100.221 132.923C100.552 133.302 101.971 134.011 103.074 134.358L104.02 134.657L103.09 134.925C102.586 135.067 102.034 135.335 101.876 135.493C101.183 136.186 101.703 136.644 103.468 136.912C104.209 137.022 104.871 137.164 104.95 137.243C105.045 137.306 105.218 137.369 105.36 137.369C105.502 137.369 105.754 137.511 105.928 137.7C106.322 138.141 107.74 138.851 109.206 139.339C110.657 139.828 112.044 139.859 113.289 139.434C113.762 139.26 114.535 139.087 115.008 139.024C115.812 138.929 115.875 138.945 117.025 139.702C118.996 140.994 120.084 141.136 120.935 140.191C121.313 139.765 121.361 139.749 121.455 140.001C121.66 140.506 121.597 141.278 121.329 141.783C120.825 142.665 117.64 144.589 115.559 145.267C114.188 145.708 112.501 146.654 111.65 147.458C111.114 147.962 110.767 148.687 110.578 149.586C110.42 150.437 110.436 150.563 110.688 150.91C111.098 151.478 111.681 151.572 113.494 151.367C115.433 151.162 115.622 151.241 116.379 152.565C116.647 153.054 117.041 153.558 117.262 153.7C117.766 154.031 119.138 154.063 119.831 153.779C120.257 153.606 120.383 153.606 120.698 153.811C121.045 154.031 121.061 154.126 120.951 154.898C120.888 155.356 120.825 156.601 120.825 157.673C120.809 159.738 120.777 159.848 119.926 160.968C119.327 161.756 119.232 162.449 119.642 163.033C119.784 163.238 120.289 163.789 120.777 164.262C121.77 165.224 121.723 165.208 123.725 164.767C124.167 164.672 125.112 164.577 125.853 164.546C126.594 164.53 127.351 164.499 127.54 164.499C128.076 164.483 128.77 163.742 129.416 162.512C130.441 160.542 131.386 159.801 133.341 159.36C134.87 159.029 136.92 158.414 137.676 158.067C140.372 156.837 141.617 156.112 141.617 155.734C141.617 155.671 141.728 155.387 141.854 155.103C142.09 154.63 142.138 154.599 142.689 154.709C143.005 154.772 143.588 154.946 143.982 155.088C144.786 155.387 146.599 155.623 149.026 155.765L150.697 155.844L151.281 155.198C151.596 154.835 151.88 154.394 151.88 154.189C151.911 153.779 151.911 153.905 151.785 152.723C151.675 151.84 151.706 151.73 152.037 151.415C152.321 151.147 152.526 151.083 152.92 151.162C153.251 151.225 153.488 151.178 153.661 151.005C153.976 150.674 153.976 150.689 153.598 149.917C153.283 149.271 152.274 148.514 151.47 148.309C151.028 148.199 149.594 148.593 148.412 149.144C147.75 149.46 147.497 149.507 147.308 149.381C147.166 149.271 146.756 149.003 146.378 148.782C145.716 148.372 145.684 148.372 145.038 148.624C144.676 148.766 144.124 149.113 143.824 149.397C143.209 149.964 142.768 150.201 141.854 150.453C141.223 150.642 141.176 150.626 138.732 150.012C138.102 149.854 137.361 149.081 137.361 148.593C137.361 148.356 137.471 147.883 137.597 147.537C138.165 145.929 137.802 144.999 136.305 144.273C135.722 143.99 134.996 143.501 134.681 143.201C133.861 142.429 133.073 141.783 132.916 141.783C132.852 141.783 132.789 141.262 132.789 140.632C132.789 140.001 132.711 139.402 132.616 139.308C132.506 139.197 132.774 139.119 133.562 139.071C134.555 138.992 134.76 138.914 135.658 138.267C136.699 137.526 137.676 137.053 138.149 137.053C138.591 137.053 139.221 136.344 139.332 135.729C139.426 135.241 139.489 135.193 139.726 135.319C139.883 135.414 140.277 135.477 140.593 135.477C141.05 135.477 141.207 135.398 141.428 135.004C141.57 134.752 141.806 134.531 141.933 134.531C142.059 134.531 142.673 134.169 143.273 133.743C145.527 132.151 146.725 131.694 148.711 131.694C149.909 131.694 150.114 131.646 150.382 131.363C150.54 131.173 150.887 130.921 151.155 130.779C151.864 130.401 154.433 129.329 154.654 129.329C154.765 129.329 155.111 129.502 155.427 129.723C156.057 130.149 156.357 130.196 156.971 129.96C157.381 129.802 157.602 129.439 158.091 128.036C158.359 127.311 158.374 127.311 159.178 127.232C161.464 126.996 161.953 126.838 162.568 126.145C163.514 125.057 163.829 124.852 164.838 124.647C166.099 124.411 168.18 124.395 169.173 124.616C170.592 124.947 171.459 124.411 171.727 123.039C171.805 122.598 171.995 122.015 172.136 121.747C172.341 121.337 172.357 121.179 172.2 120.88C171.9 120.344 172.215 116.56 172.578 116.261C172.688 116.166 173.539 115.993 174.47 115.867C176.913 115.551 177.544 115.078 178.237 113.061C178.82 111.39 178.742 111.437 180.034 111.752C180.886 111.957 181.674 112.004 183.723 111.957C186.214 111.91 186.34 111.894 187.049 111.484C187.901 110.964 188.437 110.034 188.437 109.009C188.437 108.536 188.547 108.19 188.831 107.827C189.256 107.275 189.698 106.014 189.698 105.352C189.698 105.068 189.572 104.895 189.288 104.753C188.941 104.595 188.894 104.501 188.972 104.138C189.272 102.814 189.272 102.656 188.831 101.537C188.011 99.3616 187.932 99.2198 187.538 99.1252C187.207 99.0306 187.175 98.9675 187.27 98.4473C187.522 97.0916 187.522 97.0916 188.342 97.0443C189.572 96.9655 190.643 96.1143 190.643 95.2157C190.643 94.459 190.297 94.2226 189.587 94.4748C189.146 94.6482 188.957 94.6482 188.673 94.4906C188.247 94.2541 187.27 92.9614 187.443 92.8669C187.522 92.8196 187.964 92.6777 188.437 92.5516C189.414 92.2678 189.761 91.9683 190.486 90.723C190.754 90.25 191.148 89.7298 191.353 89.5722C192.251 88.8786 192.204 86.9081 191.274 85.8203L190.817 85.2844L191.369 84.6853C191.668 84.3543 191.905 83.9444 191.905 83.7552C191.905 83.2666 190.99 82.5099 190.391 82.5099C189.918 82.5099 188.925 83.1089 188.452 83.6607C188.342 83.8025 188.184 83.9287 188.105 83.9287C187.948 83.9287 186.545 82.1158 186.545 81.9109C186.545 81.832 186.308 81.501 186.025 81.1699C185.552 80.6497 185.441 80.5867 184.559 80.5551C183.487 80.4921 183.124 80.3345 182.178 79.4517L181.516 78.8369L180.239 79.1206L178.962 79.4044L178.395 78.8369C178.095 78.5216 177.748 78.2536 177.622 78.2536C177.512 78.2536 177.181 77.9698 176.913 77.623C176.424 77.0082 176.377 76.9925 175.463 76.9925C174.28 76.9925 173.603 76.6614 172.877 75.7471C172.042 74.6909 171.758 74.4702 171.175 74.4702C170.402 74.4702 169.993 75.0535 169.993 76.1885C169.977 76.6772 169.882 77.2447 169.772 77.4496L169.567 77.8122L169.267 77.4339C169.11 77.2289 168.416 76.6457 167.754 76.157C167.076 75.6525 166.351 75.022 166.115 74.7225C165.642 74.1392 165.106 72.8465 165.106 72.2948C165.106 72.0583 164.885 71.7903 164.412 71.4435C163.892 71.0967 163.608 70.7184 163.34 70.1036C162.883 69.0632 162.583 68.9528 161.464 69.473C160.991 69.678 160.282 70.009 159.872 70.1982C159.462 70.3716 158.753 70.608 158.296 70.7026C157.838 70.7972 156.861 71.081 156.12 71.3332C154.512 71.8849 153.582 71.9165 152.747 71.4593C152.069 71.0967 151.265 71.144 150.918 71.5539C150.808 71.68 150.682 71.7903 150.619 71.7903C150.556 71.7903 150.319 71.3332 150.067 70.7657C149.815 70.1666 149.389 69.5361 149.058 69.2523C148.538 68.7952 148.459 68.7636 147.702 68.874C147.261 68.9371 146.473 69.0159 145.968 69.0316C145.338 69.0632 144.896 69.1893 144.597 69.41C144.344 69.5991 144.092 69.741 144.029 69.7253C143.903 69.7253 143.068 68.7006 142.201 67.5025C141.586 66.667 141.491 65.9419 141.917 65.3901C142.405 64.7753 142.327 64.066 141.617 62.5526C141.27 61.8117 140.987 61.1181 140.987 61.0077C140.987 60.8974 141.129 60.6767 141.302 60.5191C141.475 60.3614 141.617 60.1092 141.617 59.9515C141.617 59.6678 140.782 58.8638 140.482 58.8638C140.388 58.8638 140.009 58.7062 139.647 58.5328C138.922 58.1702 138.685 57.8076 138.528 56.7987C138.386 55.916 137.929 55.711 136.888 56.0736C135.753 56.4835 134.823 56.4204 133.767 55.8687C132.443 55.1908 131.15 54.8913 130.378 55.0962C129.511 55.3327 129.321 55.1278 129.526 54.2134C129.652 53.6617 129.637 53.3779 129.432 52.8735C129.29 52.5109 129.258 52.2114 129.337 52.1483C129.574 52.0065 129.495 51.2498 129.195 50.7926C129.038 50.5562 128.643 50.1306 128.312 49.8468L127.713 49.3423L129.085 48.6803C130.614 47.9236 130.882 47.6556 130.898 46.9462C130.898 46.5364 130.661 46.2053 129.637 45.1334C128.454 43.8722 127.713 42.7057 127.493 41.7283C127.445 41.4761 127.351 41.0032 127.288 40.6406C127.162 39.9627 125.995 38.0868 125.238 37.3617C124.734 36.8888 122.937 36.1636 122.259 36.1636C122.023 36.1636 121.66 36.3055 121.439 36.4789C120.903 36.8888 120.809 36.873 119.485 36.2424C118.019 35.5331 117.215 35.5015 116.679 36.1321ZM128.029 138.724C128.344 139.04 128.833 139.402 129.085 139.513C129.542 139.718 129.542 139.718 128.659 139.733C127.84 139.733 127.682 139.686 127.13 139.182C126.799 138.882 126.437 138.63 126.342 138.63C126.105 138.63 126.121 138.362 126.373 138.267C126.941 138.031 127.461 138.173 128.029 138.724ZM130.898 138.614C130.898 138.693 130.787 138.835 130.661 138.945C130.456 139.103 130.425 139.087 130.425 138.803C130.425 138.614 130.519 138.472 130.661 138.472C130.787 138.472 130.898 138.535 130.898 138.614ZM130.11 139.655C129.999 139.796 129.873 139.859 129.842 139.828C129.731 139.718 129.952 139.418 130.141 139.418C130.236 139.418 130.236 139.513 130.11 139.655Z" fill="#0048B1"/>
<path d="M61.3301 93.552H90.8822H141.201L101.265 27L61.3301 93.552Z" fill="white"/>
<path d="M141.201 92.5875H111.649H61.3301L101.265 161.069L141.201 92.5875Z" fill="white"/>
<path d="M101.265 27L141.201 93.552H90.8822M101.265 27L61.3301 93.552H90.8822M101.265 27L90.8822 93.552M101.265 161.069L61.3301 92.5875H111.649M101.265 161.069L141.201 92.5875H111.649M101.265 161.069L111.649 92.5875" stroke="#0048B1" stroke-width="3.5"/>
</svg>
