<svg width="88" height="100" fill="none" xmlns="http://www.w3.org/2000/svg"><path d="M10.477 92.723l-2.482-2.226 22.095-24.62H58.3l19.061-29.933 2.813 1.79-20.046 31.477H31.577l-21.1 23.512z" fill="#E1E6E9"/><path d="M9.236 100a8.395 8.395 0 100-16.791 8.395 8.395 0 000 16.79z" fill="#27A2DB"/><path d="M3.795 91.903l6.007-5.794c.233-.224.076-.622-.247-.619-1.933.021-6.466.658-6.37 6.172.005.308.388.455.61.24z" fill="#EBF0F3"/><path d="M59.216 75.946a8.395 8.395 0 100-16.79 8.395 8.395 0 000 16.79z" fill="#27A2DB"/><path d="M53.775 67.838l6.006-5.793c.233-.225.076-.623-.247-.62-1.933.022-6.465.658-6.37 6.172.006.309.389.455.61.241z" fill="#EBF0F3"/><path d="M78.764 45.238a8.395 8.395 0 100-16.79 8.395 8.395 0 000 16.79zM30.828 75.946a8.395 8.395 0 100-16.79 8.395 8.395 0 000 16.79z" fill="#44C4A1"/><path d="M25.392 67.838l6.007-5.793c.233-.225.076-.623-.247-.62-1.933.022-6.466.658-6.37 6.172.006.309.388.455.61.241z" fill="#EBF0F3"/><path d="M38.002 52.944c14.62 0 26.472-11.852 26.472-26.472C64.474 11.852 52.622 0 38.002 0 23.382 0 11.53 11.852 11.53 26.472c0 14.62 11.852 26.472 26.472 26.472z" fill="#F6C358"/><path d="M38.002 49.061c12.475 0 22.589-10.113 22.589-22.589 0-12.476-10.114-22.59-22.59-22.59-12.475 0-22.588 10.114-22.588 22.59 0 12.476 10.113 22.59 22.589 22.59z" fill="#FCD462"/><path d="M38.013 46.239c-1.306 0-2.593-.126-3.845-.372l.293-1.492c1.158.228 2.349.343 3.54.343l.018 1.375v.145h-.006zm3.862-.38l-.297-1.491a18.19 18.19 0 003.42-1.039l.583 1.404a19.709 19.709 0 01-3.706 1.126zm-11.416-1.11a19.725 19.725 0 01-3.417-1.825l.844-1.264a18.252 18.252 0 003.154 1.683l-.58 1.406zm18.535-1.847l-.846-1.263a18.36 18.36 0 002.761-2.271l1.076 1.074a19.867 19.867 0 01-2.99 2.46zm-24.948-2.43a19.93 19.93 0 01-2.463-2.988l1.262-.849c.665.99 1.43 1.918 2.275 2.76l-1.074 1.076zm30.395-3.023l-1.263-.846a18.255 18.255 0 001.686-3.151l1.405.582a19.794 19.794 0 01-1.828 3.415zm-34.693-3.377a19.653 19.653 0 01-1.13-3.705l1.491-.298a18.144 18.144 0 001.043 3.418l-1.404.585zm37.643-3.746l-1.491-.294a18.4 18.4 0 00.347-3.56v-.08h1.52v.08c0 1.296-.126 2.592-.376 3.854zm-39.156-3.813v-.04c0-1.283.123-2.566.367-3.813l1.493.292a18.41 18.41 0 00-.34 3.52l-1.52.04zm37.65-3.674a18.153 18.153 0 00-1.05-3.416l1.402-.588c.5 1.191.883 2.437 1.138 3.703l-1.49.3zm-34.762-3.31l-1.406-.579a19.734 19.734 0 011.82-3.419l1.265.843a18.198 18.198 0 00-1.68 3.155zm32.012-3.251a18.416 18.416 0 00-2.28-2.755l1.072-1.078c.916.91 1.747 1.914 2.468 2.982l-1.26.85zm-28.07-2.673l-1.078-1.072a19.919 19.919 0 012.986-2.467l.85 1.262a18.363 18.363 0 00-2.758 2.277zm23.019-2.341a18.235 18.235 0 00-3.158-1.677l.578-1.407a19.783 19.783 0 013.42 1.817l-.84 1.267zM30.969 9.63l-.587-1.403a19.71 19.71 0 013.704-1.134l.3 1.491a18.122 18.122 0 00-3.417 1.046zm10.534-1.068A18.402 18.402 0 0038 8.227l-.042-1.06.028-.46c1.26.006 2.564.122 3.806.364l-.29 1.492z" fill="#F6C358"/><path fill-rule="evenodd" clip-rule="evenodd" d="M38 38a.532.532 0 00.388-.17L51.85 23.462a.563.563 0 00-.008-.774l-5.384-5.526a.532.532 0 00-.381-.162h-6.462a.531.531 0 00-.38.162L38 18.429l-1.235-1.267a.532.532 0 00-.38-.162h-6.462a.531.531 0 00-.38.162l-5.385 5.526a.563.563 0 00-.008.774L37.612 37.83c.101.109.241.17.388.17zm.538-18.56l1.3-1.335h4.939l-6.239 6.403v-5.069zm-1.076 5.068v-5.069l-1.3-1.334h-4.939l2.312 2.373 3.927 4.03zm-4.308-2.858l4.465 4.583c.21.216.551.216.762 0l4.465-4.583 1.393 1.429L38 29.482l-6.238-6.403 1.392-1.429zm-2.377 1.982l6.684 6.86v5.583L25.803 23.632h4.974zm-4.939-1.106l4.085-4.192 2.47 2.534-1.616 1.658h-4.939zm12.7 13.55v-5.584l6.685-6.86h4.974L38.538 36.075zm11.623-13.55h-4.938l-1.615-1.658 2.469-2.534 4.084 4.192z" fill="#DC8744"/></svg>