<svg width="88" height="100" viewBox="0 0 88 100" fill="none" xmlns="http://www.w3.org/2000/svg">
<path d="M10.477 92.7234L7.99512 90.4966L30.0899 65.8776H58.3011L77.362 35.9443L80.1747 37.7348L60.1294 69.211H31.5771L10.477 92.7234Z" fill="#E1E6E9"/>
<path d="M9.23601 99.9993C13.8725 99.9993 17.6312 96.2407 17.6312 91.6042C17.6312 86.9676 13.8725 83.209 9.23601 83.209C4.59948 83.209 0.84082 86.9676 0.84082 91.6042C0.84082 96.2407 4.59948 99.9993 9.23601 99.9993Z" fill="#27A2DB"/>
<path d="M3.79501 91.9026L9.80183 86.1093C10.0346 85.8849 9.87785 85.4866 9.55453 85.4903C7.62188 85.5114 3.089 86.1476 3.1851 91.6619C3.19044 91.9703 3.57312 92.1166 3.79501 91.9026Z" fill="#EBF0F3"/>
<path d="M59.216 75.9457C63.8525 75.9457 67.6112 72.187 67.6112 67.5505C67.6112 62.9139 63.8525 59.1553 59.216 59.1553C54.5795 59.1553 50.8208 62.9139 50.8208 67.5505C50.8208 72.187 54.5795 75.9457 59.216 75.9457Z" fill="#27A2DB"/>
<path d="M53.7745 67.8382L59.7813 62.0449C60.0141 61.8204 59.8573 61.4222 59.534 61.4258C57.6014 61.4469 53.0685 62.0831 53.1646 67.5975C53.1699 67.9058 53.5526 68.0521 53.7745 67.8382Z" fill="#EBF0F3"/>
<path d="M78.7638 45.2376C83.4004 45.2376 87.159 41.479 87.159 36.8425C87.159 32.2059 83.4004 28.4473 78.7638 28.4473C74.1273 28.4473 70.3687 32.2059 70.3687 36.8425C70.3687 41.479 74.1273 45.2376 78.7638 45.2376Z" fill="#44C4A1"/>
<path d="M30.8278 75.9457C35.4643 75.9457 39.223 72.187 39.223 67.5505C39.223 62.9139 35.4643 59.1553 30.8278 59.1553C26.1913 59.1553 22.4326 62.9139 22.4326 67.5505C22.4326 72.187 26.1913 75.9457 30.8278 75.9457Z" fill="#44C4A1"/>
<path d="M25.3922 67.8382L31.399 62.0449C31.6318 61.8204 31.475 61.4222 31.1517 61.4258C29.219 61.4469 24.6862 62.0831 24.7823 67.5975C24.7878 67.9058 25.1703 68.0521 25.3922 67.8382Z" fill="#EBF0F3"/>
<path d="M38.0018 52.944C52.6219 52.944 64.4738 41.0921 64.4738 26.472C64.4738 11.8519 52.6219 0 38.0018 0C23.3817 0 11.5298 11.8519 11.5298 26.472C11.5298 41.0921 23.3817 52.944 38.0018 52.944Z" fill="#F6C358"/>
<path d="M38.0018 49.0612C50.4775 49.0612 60.591 38.9477 60.591 26.472C60.591 13.9963 50.4775 3.88281 38.0018 3.88281C25.5261 3.88281 15.4126 13.9963 15.4126 26.472C15.4126 38.9477 25.5261 49.0612 38.0018 49.0612Z" fill="#FCD462"/>
<path d="M38.0126 46.2385C36.7074 46.2385 35.4197 46.1133 34.1676 45.8669L34.4608 44.3754C35.6187 44.6031 36.8095 44.7184 38.0007 44.7184L38.0188 46.0926L38.0184 46.2385C38.0165 46.2385 38.0146 46.2385 38.0126 46.2385ZM41.8747 45.8594L41.5777 44.3679C42.7477 44.1352 43.8982 43.7856 44.9973 43.329L45.5809 44.7329C44.3898 45.2279 43.1424 45.607 41.8747 45.8594ZM30.4591 44.7487C29.2659 44.2558 28.1164 43.6421 27.042 42.9245L27.8862 41.6603C28.8781 42.3221 29.9391 42.8887 31.0395 43.3433L30.4591 44.7487ZM48.9942 42.9021L48.1479 41.6392C49.1368 40.9763 50.066 40.2122 50.9093 39.3678L51.985 40.442C51.0718 41.3566 50.0653 42.1842 48.9942 42.9021ZM24.0461 40.4712C23.1318 39.56 22.3033 38.5546 21.5832 37.4839L22.8453 36.6352C23.51 37.6244 24.2754 38.5529 25.1196 39.3947L24.0461 40.4712ZM54.4415 37.449L53.1779 36.6034C53.8412 35.6114 54.4088 34.5509 54.8643 33.4515L56.2691 34.0337C55.7753 35.2247 55.1605 36.374 54.4415 37.449ZM19.7485 34.0721C19.2514 32.8799 18.8715 31.6329 18.6186 30.3668L20.1094 30.0691C20.3428 31.2372 20.6933 32.3872 21.1518 33.4872L19.7485 34.0721ZM57.3913 30.3262L55.8998 30.0315C56.13 28.8666 56.2466 27.6692 56.2466 26.4726V26.3928H57.7671V26.4726C57.7669 27.7678 57.6407 29.0645 57.3913 30.3262ZM18.2349 26.5128V26.4726C18.2349 25.19 18.3585 23.9072 18.6024 22.6599L20.0947 22.9516C19.8698 24.1031 19.7554 25.2876 19.7554 26.4724L18.2349 26.5128ZM55.8849 22.8386C55.6489 21.6711 55.2957 20.5222 54.8348 19.423L56.2372 18.8351C56.7369 20.0263 57.1196 21.2722 57.375 22.5379L55.8849 22.8386ZM21.1227 19.5294L19.7167 18.9502C20.2079 17.7571 20.8203 16.6067 21.5368 15.531L22.8025 16.3737C22.141 17.3667 21.5759 18.4283 21.1227 19.5294ZM53.1354 16.2778C52.4691 15.2912 51.7022 14.3646 50.8551 13.5234L51.9265 12.4448C52.8432 13.3549 53.6742 14.3586 54.3953 15.427L53.1354 16.2778ZM25.0654 13.6048L23.9873 12.5328C24.8984 11.617 25.9027 10.7874 26.973 10.0664L27.8223 11.3279C26.8342 11.9931 25.9065 12.7593 25.0654 13.6048ZM48.0836 11.2636C47.0891 10.6029 46.0266 10.0391 44.926 9.58722L45.5036 8.18033C46.6963 8.67022 47.8474 9.28141 48.9248 9.99703L48.0836 11.2636ZM30.9686 9.63142L30.3822 8.22817C31.5734 7.73038 32.8195 7.34919 34.0856 7.09442L34.3857 8.58523C33.2171 8.81992 32.0673 9.17186 30.9686 9.63142ZM41.5027 8.56281C40.3564 8.34007 39.1782 8.22731 38.0007 8.22731L37.9588 7.16724L37.9866 6.70703C39.2468 6.71258 40.5514 6.82918 41.7929 7.07071L41.5027 8.56281Z" fill="#F6C358"/>
<path fill-rule="evenodd" clip-rule="evenodd" d="M38 38C38.1465 38 38.2866 37.9387 38.3882 37.8304L51.8497 23.462C52.053 23.245 52.0497 22.901 51.8423 22.6882L46.4577 17.1619C46.3567 17.0582 46.2197 17 46.0769 17H39.6154C39.4725 17 39.3356 17.0582 39.2346 17.1619L38 18.429L36.7654 17.1619C36.6644 17.0582 36.5274 17 36.3846 17H29.9231C29.7802 17 29.6433 17.0582 29.5423 17.1619L24.1577 22.6882C23.9503 22.901 23.9471 23.245 24.1503 23.462L37.6118 37.8304C37.7134 37.9387 37.8535 38 38 38ZM38.5385 19.4395L39.8384 18.1053H44.7769L38.5385 24.5079V19.4395ZM37.4615 24.5079V19.4395L36.1615 18.1053H31.2231L33.5346 20.4776C33.5345 20.4776 33.5347 20.4778 33.5346 20.4776L37.4615 24.5079ZM33.1538 21.65L37.6192 26.2329C37.8295 26.4487 38.1705 26.4487 38.3808 26.2329L42.8461 21.65L44.2385 23.0789L38 29.4816L31.7615 23.0789L33.1538 21.65ZM30.7769 23.6316L37.4615 30.4921V36.0753L25.8032 23.6316H30.7769ZM25.8384 22.5263L29.9231 18.3342L32.3923 20.8684L30.7769 22.5263H25.8384ZM38.5385 36.0753V30.4921L45.223 23.6316H50.1967L38.5385 36.0753ZM50.1615 22.5263H45.223L43.6077 20.8684L46.0769 18.3342L50.1615 22.5263Z" fill="#DC8744"/>
</svg>
