<svg width="100" height="100" viewBox="0 0 100 100" fill="none" xmlns="http://www.w3.org/2000/svg">
<path fill-rule="evenodd" clip-rule="evenodd" d="M0 93.9816C0 97.2926 2.70723 99.9998 6.01797 99.9998H87.1107C92.559 99.9998 94.491 97.3479 94.491 92.6195C94.491 75.4287 94.491 58.2436 94.491 41.0527H0V93.9816Z" fill="#ECBD83"/>
<path fill-rule="evenodd" clip-rule="evenodd" d="M81.2478 99.9998H87.1109C92.5591 99.9998 94.4912 97.3479 94.4912 92.6195C94.4912 75.4287 94.4912 58.2436 94.4912 41.0527H88.6335V92.6195C88.6335 97.3479 86.7011 99.9998 81.2478 99.9998Z" fill="#E2A975"/>
<path fill-rule="evenodd" clip-rule="evenodd" d="M6.01797 35.0352H93.024C94.0648 35.0352 94.4912 35.5666 94.4912 36.5023V47.0715H6.01797C2.70723 47.0717 0 44.3643 0 41.0535C0 37.7482 2.70723 35.0352 6.01797 35.0352Z" fill="#C38C66"/>
<path fill-rule="evenodd" clip-rule="evenodd" d="M87.1665 35.0352H93.0241C94.0649 35.0352 94.4913 35.5666 94.4913 36.5023V47.0715H88.6337V36.5023C88.6337 35.5668 88.2073 35.0352 87.1665 35.0352Z" fill="#9F6E50"/>
<path fill-rule="evenodd" clip-rule="evenodd" d="M71.116 62.2129H96.0967C98.2447 62.2129 99.9998 63.968 99.9998 66.116V79.0049C99.9998 81.1531 98.2447 82.908 96.0967 82.908H71.116C68.968 82.908 67.2129 81.1529 67.2129 79.0049V66.116C67.2129 63.968 68.968 62.2129 71.116 62.2129Z" fill="#C38C66"/>
<path fill-rule="evenodd" clip-rule="evenodd" d="M90.2336 62.2129H96.0969C98.245 62.2129 100 63.968 100 66.116V79.0049C100 81.1531 98.245 82.908 96.0969 82.908H90.2336C92.3819 82.908 94.1424 81.1529 94.1424 79.0049V66.116C94.1424 63.968 92.3819 62.2129 90.2336 62.2129Z" fill="#9F6E50"/>
<path fill-rule="evenodd" clip-rule="evenodd" d="M78.5406 76.5756C80.7498 76.5756 82.5547 74.7707 82.5547 72.5617C82.5547 70.3525 80.7498 68.5479 78.5406 68.5479C76.326 68.5479 74.5264 70.3527 74.5264 72.5617C74.5264 74.7707 76.326 76.5756 78.5406 76.5756Z" fill="#9F6E50"/>
<path fill-rule="evenodd" clip-rule="evenodd" d="M47.2485 0C60.2426 0 70.7839 10.5359 70.7839 23.5355C70.7839 30.4949 67.761 36.7455 62.961 41.0529H31.5305C26.7303 36.7455 23.7073 30.4949 23.7073 23.5355C23.7073 10.5359 34.2489 0 47.2485 0V0Z" fill="#FFEDB5"/>
<path fill-rule="evenodd" clip-rule="evenodd" d="M47.2485 0C60.2426 0 70.7838 10.5359 70.7838 23.5355C70.7838 30.4949 67.761 36.7455 62.961 41.0529H58.0776C62.8778 36.7455 65.9008 30.4949 65.9008 23.5355C65.9008 11.3607 56.6547 1.34531 44.8069 0.127344C45.6096 0.0443359 46.4237 0 47.2485 0V0Z" fill="#FFE18C"/>
<path fill-rule="evenodd" clip-rule="evenodd" d="M47.2485 0C47.7356 0 48.2286 0.0166016 48.71 0.0498047V3.26641C48.71 4.0748 48.0567 4.73359 47.2485 4.73359C46.4346 4.73359 45.7813 4.0748 45.7813 3.26641V0.0498047C46.2686 0.0166016 46.7557 0 47.2485 0V0ZM62.8225 5.89102C63.5534 6.53867 64.2454 7.23066 64.8932 7.96172L62.6122 10.2428C62.0419 10.8129 61.1174 10.8129 60.5415 10.2428C59.9712 9.66699 59.9712 8.74238 60.5415 8.1666L62.8225 5.89102ZM70.7341 22.074C70.7675 22.5557 70.7839 23.043 70.7839 23.5355C70.7839 24.0283 70.7675 24.5156 70.7395 25.0027H67.5176C66.7092 25.0027 66.0503 24.3439 66.0503 23.5355C66.0503 22.7271 66.7092 22.074 67.5176 22.074H70.7341ZM64.8932 39.1098C64.2842 39.7963 63.6421 40.4441 62.9612 41.0531H62.6954L60.5419 38.9049C59.9715 38.3348 59.9715 37.4045 60.5419 36.8342C61.1176 36.2641 62.0423 36.2641 62.6126 36.8342L64.8932 39.1098ZM31.8016 41.0531H31.5303C30.8493 40.4441 30.2071 39.7963 29.5981 39.1098L31.8793 36.8342C32.4495 36.2641 33.3797 36.2641 33.9501 36.8342C34.5202 37.4045 34.5202 38.3348 33.9501 38.9049L31.8016 41.0531ZM23.7571 25.0027C23.7239 24.5156 23.7073 24.0283 23.7073 23.5355C23.7073 23.0428 23.7239 22.5555 23.7571 22.074H26.9795C27.7877 22.074 28.4411 22.7273 28.4411 23.5355C28.4411 24.3439 27.7876 25.0027 26.9795 25.0027H23.7571ZM29.5981 7.96152C30.2458 7.23066 30.9379 6.53867 31.6745 5.89082L33.9499 8.16621C34.52 8.74199 34.52 9.6666 33.9499 10.2424C33.3795 10.8125 32.4493 10.8125 31.8792 10.2424L29.5981 7.96152Z" fill="#F2D068"/>
<path d="M6.01792 42.5207C5.20972 42.5207 4.5564 41.8674 4.5564 41.0535C4.5564 40.2451 5.20991 39.5918 6.01792 39.5918H88.4728C89.2812 39.5918 89.94 40.2451 89.94 41.0535C89.94 41.8674 89.2812 42.5207 88.4728 42.5207H6.01792Z" fill="#9F6E50"/>
<path fill-rule="evenodd" clip-rule="evenodd" d="M47 36C47.1569 36 47.3071 35.9358 47.4159 35.8223L61.8389 20.7697C62.0567 20.5424 62.0532 20.182 61.831 19.959L56.0618 14.1696C55.9536 14.061 55.8069 14 55.6538 14H48.7308C48.5777 14 48.431 14.061 48.3228 14.1696L47 15.497L45.6772 14.1696C45.569 14.061 45.4222 14 45.2692 14H38.3461C38.1931 14 38.0464 14.061 37.9382 14.1696L32.169 19.959C31.9468 20.182 31.9433 20.5424 32.1611 20.7697L46.5841 35.8223C46.6929 35.9358 46.8431 36 47 36ZM47.5769 16.5556L48.9697 15.1579H54.261L47.5769 21.8654V16.5556ZM46.4231 21.8654V16.5556L45.0302 15.1579H39.739L42.2156 17.6432C42.2155 17.6432 42.2158 17.6434 42.2156 17.6432L46.4231 21.8654ZM41.8077 18.8714L46.592 23.6725C46.8173 23.8986 47.1827 23.8986 47.4079 23.6725L52.1923 18.8714L53.6841 20.3684L47 27.076L40.3159 20.3684L41.8077 18.8714ZM39.261 20.9474L46.4231 28.1346V33.9837L33.932 20.9474H39.261ZM33.9697 19.7895L38.3461 15.3977L40.9918 18.0526L39.261 19.7895H33.9697ZM47.5769 33.9837V28.1346L54.739 20.9474H60.0679L47.5769 33.9837ZM60.0302 19.7895H54.739L53.0082 18.0526L55.6538 15.3977L60.0302 19.7895Z" fill="#FBC848"/>
</svg>
