<svg width="604" height="1086" viewBox="0 0 604 1086" fill="none" xmlns="http://www.w3.org/2000/svg">
<path d="M603.962 143.434H-0.509506L46.7148 40.9497C46.7148 40.9497 308.18 10.9211 428.917 15.9314C549.654 20.9416 603.962 40.9497 603.962 40.9497V143.434Z" fill="url(#paint0_linear)"/>
<path d="M-0.509033 1086H603.963V72.4776C603.963 72.4776 396.648 -1.14441e-05 237.659 -1.14441e-05C78.6705 -1.14441e-05 -0.509033 40.7999 -0.509033 40.7999V1086Z" fill="url(#paint1_linear)"/>
<g opacity="0.5" filter="url(#filter0_f)">
<path d="M161.084 591.68C170.847 555.245 137.507 521.905 101.072 531.667L-181.401 607.356C-217.836 617.118 -230.039 662.662 -203.367 689.334L3.41759 896.119C30.0898 922.791 75.6334 910.588 85.3961 874.153L161.084 591.68Z" fill="url(#paint2_linear)"/>
</g>
<g opacity="0.5" filter="url(#filter1_f)">
<path d="M195.631 125.044C182.99 128.431 178.756 144.232 188.01 153.486L301.591 267.067C310.845 276.321 326.646 272.087 330.033 259.446L371.606 104.291C374.993 91.6507 363.426 80.0837 350.786 83.4707L195.631 125.044Z" fill="url(#paint3_linear)"/>
</g>
<defs>
<filter id="filter0_f" x="-257.067" y="387.257" width="562.561" height="562.561" filterUnits="userSpaceOnUse" color-interpolation-filters="sRGB">
<feFlood flood-opacity="0" result="BackgroundImageFix"/>
<feBlend mode="normal" in="SourceGraphic" in2="BackgroundImageFix" result="shape"/>
<feGaussianBlur stdDeviation="9.5" result="effect1_foregroundBlur"/>
</filter>
<filter id="filter1_f" x="139.417" y="24.043" width="255.596" height="270.849" filterUnits="userSpaceOnUse" color-interpolation-filters="sRGB">
<feFlood flood-opacity="0" result="BackgroundImageFix"/>
<feBlend mode="normal" in="SourceGraphic" in2="BackgroundImageFix" result="shape"/>
<feGaussianBlur stdDeviation="9.5" result="effect1_foregroundBlur"/>
</filter>
<linearGradient id="paint0_linear" x1="486.216" y1="125.546" x2="233.835" y2="-137.431" gradientUnits="userSpaceOnUse">
<stop stop-color="#0A088B"/>
<stop offset="1" stop-color="#1261BD"/>
</linearGradient>
<linearGradient id="paint1_linear" x1="117.237" y1="934.313" x2="635.807" y2="870.594" gradientUnits="userSpaceOnUse">
<stop stop-color="#0A088B"/>
<stop offset="1" stop-color="#1261BD"/>
</linearGradient>
<linearGradient id="paint2_linear" x1="170.934" y1="542.118" x2="-122.015" y2="891.456" gradientUnits="userSpaceOnUse">
<stop stop-color="#08CFD4"/>
<stop offset="1" stop-color="#08CFD4" stop-opacity="0"/>
</linearGradient>
<linearGradient id="paint3_linear" x1="183.401" y1="129.951" x2="396.664" y2="167.488" gradientUnits="userSpaceOnUse">
<stop stop-color="#08CFD4"/>
<stop offset="1" stop-color="#08CFD4" stop-opacity="0"/>
</linearGradient>
</defs>
</svg>
