<svg width="171" height="176" viewBox="0 0 171 176" fill="none" xmlns="http://www.w3.org/2000/svg">
<g filter="url(#filter0_d)">
<path d="M38.5007 112.302L47.5498 124.224C54.9109 134.119 85.325 123.894 115.548 101.339C145.771 78.7837 164.239 52.5228 156.998 42.6863L147.949 30.7649C147.949 30.7649 151.909 53.0103 103.431 86.8605C58.0562 118.958 38.5007 112.302 38.5007 112.302Z" fill="url(#paint0_linear)"/>
<path d="M38.5004 112.303L47.5495 124.224C48.0577 125.082 48.8128 125.766 49.7161 126.188L40.4791 112.83C39.7956 112.761 39.1275 112.583 38.5004 112.303Z" fill="url(#paint1_linear)"/>
<path d="M55.7578 115.141L64.807 127.063C70.9873 125.697 76.9985 123.657 82.7324 120.977L73.6833 109.056L55.7578 115.141Z" fill="url(#paint2_linear)"/>
<path d="M148.188 30.8853L157.237 42.8068C157.79 43.5922 158.219 44.4579 158.509 45.3736L147.301 32.686C147.661 32.1198 147.959 31.516 148.188 30.8853Z" fill="url(#paint3_linear)"/>
<path d="M145.654 48.1384L154.703 60.0599C151.61 65.5011 147.947 70.5981 143.775 75.2649L134.785 63.2233L145.654 48.1384Z" fill="url(#paint4_linear)"/>
<path d="M96.3013 96.4781L105.35 108.4L115.547 101.339L125.38 93.5032L116.331 81.5817L96.3013 96.4781Z" fill="url(#paint5_linear)"/>
<path d="M148.129 31.0038C155.429 40.7202 136.841 66.9219 106.677 89.357C76.5135 111.792 45.8001 122.019 38.9193 112.36C32.0385 102.701 50.0866 76.3828 80.2506 53.9477C110.415 31.5126 140.289 21.1706 148.129 31.0038Z" fill="url(#paint6_linear)"/>
<path d="M134.536 40.7174C140.026 48.0495 126.012 68.0005 103.18 84.9477C80.3485 101.895 57.3447 109.804 51.7935 102.293C46.2422 94.7817 60.2577 75.13 83.1487 58.0627C106.04 40.9955 128.984 33.206 134.536 40.7174Z" fill="#060606"/>
<path d="M102.699 84.412C80.9409 100.695 59.3694 107.818 54.0008 100.844C48.6323 93.8708 61.8733 74.8818 83.6922 58.7783C105.511 42.6747 127.142 35.4313 132.39 42.3458C137.639 49.2602 124.577 68.1884 102.699 84.412ZM84.1152 59.4344C63.6085 74.6926 50.8999 92.6012 55.7882 99.3381C60.6765 106.075 81.6492 98.9549 102.156 83.6967C122.663 68.4384 135.43 50.4098 130.363 43.7338C125.295 37.0578 104.681 44.0561 84.1152 59.4344Z" fill="url(#paint7_linear)"/>
<path d="M128.977 44.8255C124.158 38.3664 104.206 45.0954 84.414 59.8552C64.6218 74.615 52.4836 91.8164 57.3026 98.2755C62.1216 104.735 82.073 98.0055 101.865 83.2457C121.657 68.4859 133.796 51.2846 128.977 44.8255Z" fill="#242424"/>
<path d="M124.345 48.976C128.507 54.4599 118.115 69.183 100.948 82.2079C83.7813 95.2328 66.9297 100.654 62.9463 95.1092C58.963 89.5645 69.1758 74.9022 86.3427 61.8773C103.51 48.8524 119.761 43.1353 124.345 48.976Z" fill="url(#paint8_linear)"/>
<path d="M82.7883 57.8858L91.4154 48.5597L90.0267 46.5322C86.687 48.7656 83.288 51.119 79.8909 53.7716C76.4937 56.4243 73.2148 58.8369 70.117 61.4879L71.4448 63.3361L82.7883 57.8858Z" fill="url(#paint9_linear)"/>
<path d="M103.722 85.363L95.0947 94.689L96.3024 96.4781C99.6422 94.2448 103.041 91.8914 106.379 89.3588C109.717 86.8261 113.114 84.1735 116.212 81.5225L115.065 79.9127L103.722 85.363Z" fill="url(#paint10_linear)"/>
<path d="M135.848 39.8703L143.924 38.9276L149.349 34.8869C149.304 33.3661 148.771 31.9001 147.828 30.7052C147.069 29.5837 145.974 28.7309 144.701 28.2684L139.336 32.189L135.848 39.8703Z" fill="url(#paint11_linear)"/>
<path d="M50.7812 103.436L42.7045 104.379L36.9212 108.542C37.0824 109.919 37.6295 111.223 38.4995 112.304C39.3775 113.501 40.5913 114.411 41.987 114.918L47.1733 111.059L50.7812 103.436Z" fill="url(#paint12_linear)"/>
<path d="M116.086 39.0847L127.898 31.7761L131.106 27.3886C124.922 28.7423 118.91 30.7835 113.18 33.4741L110.152 37.8008L116.086 39.0847Z" fill="url(#paint13_linear)"/>
<path d="M70.5995 103.806L58.7877 111.114L55.7577 115.142C61.9371 113.773 67.9481 111.732 73.6831 109.056L76.3547 105.15L70.5995 103.806Z" fill="url(#paint14_linear)"/>
<path d="M130.808 58.876L130.244 64.865L134.905 63.2828C139.031 58.6433 142.636 53.5648 145.654 48.1387L141.352 49.5992L130.808 58.876Z" fill="url(#paint15_linear)"/>
<path d="M55.8789 84.0131L56.3838 78.1441L51.2446 79.7888C47.1056 84.4127 43.5371 89.5171 40.616 94.9922L45.3357 93.2899L55.8789 84.0131Z" fill="url(#paint16_linear)"/>
<path d="M97.9141 85.3355C95.4689 86.9653 93.0237 88.5951 90.5176 90.0456L90.9318 89.2053L97.9106 84.737L97.9141 85.3355ZM105.067 79.9085C107.332 78.1401 109.417 76.3327 111.322 74.4864L112.162 74.9008C109.595 76.1721 107.451 78.0995 105.067 79.9085ZM83.1768 94.0371C80.9605 95.1271 78.6879 96.0988 76.3686 96.9482L77.0195 95.6277C79.0505 94.8382 81.1998 93.8087 83.5284 92.7183L83.1768 94.0371ZM117.632 68.3458L116.139 68.9527L120.777 63.4797L122.211 62.9929C121.023 64.496 119.357 66.3608 117.632 68.3458ZM69.9729 98.7196C68.3059 99.1139 66.6006 99.3241 64.8877 99.3465L65.7161 97.6658C67.364 97.6094 69.0047 97.4201 70.6221 97.0999L69.9729 98.7196ZM125.651 57.2273L123.978 57.8951C124.812 56.5191 125.525 55.0731 126.108 53.5734L127.838 52.4863C127.385 54.178 126.732 55.8095 125.891 57.3457L125.651 57.2273ZM60.5126 98.5328C59.5276 98.3541 58.6124 97.9029 57.8708 97.2306L59.599 95.8442C60.3445 96.5108 61.258 96.9611 62.2408 97.1464L60.5126 98.5328ZM127.755 48.4164L126.025 49.5035C125.95 48.5451 125.636 47.6208 125.111 46.8149L126.96 45.4877C127.444 45.8853 127.832 46.3872 128.094 46.9559C128.357 47.5246 128.487 48.1454 128.475 48.7715L127.755 48.4164ZM58.863 92.7955L57.3141 94.121C57.1854 92.7858 57.3408 91.4385 57.7702 90.1678L59.561 89.26C59.3528 90.5491 59.3603 91.8639 59.5835 93.1506L58.863 92.7955ZM122.647 45.1525C121.427 44.7691 120.151 44.5941 118.873 44.6348L120.361 43.1301C121.682 43.1076 122.997 43.3025 124.255 43.707L122.647 45.1525ZM61.8706 84.8774L60.2016 86.1437C61.2145 84.2839 62.3861 82.515 63.7033 80.8567L65.1965 80.2498C63.9668 81.7017 62.8547 83.2491 61.8706 84.8774ZM114.567 45.4967C112.594 45.9454 110.657 46.5364 108.77 47.2649L109.48 45.8243C111.631 45.0941 113.723 44.4839 115.576 44.0545L114.567 45.4967ZM70.3132 74.7144L68.4006 75.2637C70.2438 73.1801 72.2117 71.2101 74.2935 69.3648L75.1341 69.7791C73.3158 71.2627 71.5859 72.8513 69.953 74.5368L70.3132 74.7144ZM102.921 50.3502C100.552 51.4832 98.2409 52.7347 95.9976 54.0999L96.3526 53.3796L103.693 49.3882L102.921 50.3502ZM82.1635 63.6943L81.443 63.3392L85.0786 60.5056L88.716 57.9713L85.317 60.3247L82.1635 63.6943Z" fill="url(#paint17_linear)"/>
</g>
<defs>
<filter id="filter0_d" x="0.921265" y="27.2832" width="169.647" height="148.715" filterUnits="userSpaceOnUse" color-interpolation-filters="sRGB">
<feFlood flood-opacity="0" result="BackgroundImageFix"/>
<feColorMatrix in="SourceAlpha" type="matrix" values="0 0 0 0 0 0 0 0 0 0 0 0 0 0 0 0 0 0 127 0"/>
<feOffset dx="-12" dy="24"/>
<feGaussianBlur stdDeviation="12"/>
<feColorMatrix type="matrix" values="0 0 0 0 0 0 0 0 0 0 0 0 0 0 0 0 0 0 0.32 0"/>
<feBlend mode="normal" in2="BackgroundImageFix" result="effect1_dropShadow"/>
<feBlend mode="normal" in="SourceGraphic" in2="effect1_dropShadow" result="shape"/>
</filter>
<linearGradient id="paint0_linear" x1="42.8384" y1="126.445" x2="153.683" y2="43.0876" gradientUnits="userSpaceOnUse">
<stop stop-color="#141718"/>
<stop offset="1" stop-color="#06090A"/>
</linearGradient>
<linearGradient id="paint1_linear" x1="36.9805" y1="118.656" x2="147.932" y2="35.2187" gradientUnits="userSpaceOnUse">
<stop stop-color="#ADACAB"/>
<stop offset="0.99" stop-color="#94908E"/>
</linearGradient>
<linearGradient id="paint2_linear" x1="701.661" y1="-1754.73" x2="793.886" y2="-1941.82" gradientUnits="userSpaceOnUse">
<stop stop-color="#ADACAB"/>
<stop offset="0.99" stop-color="#94908E"/>
</linearGradient>
<linearGradient id="paint3_linear" x1="365.514" y1="-774.884" x2="404.211" y2="-853.387" gradientUnits="userSpaceOnUse">
<stop stop-color="#ADACAB"/>
<stop offset="0.99" stop-color="#94908E"/>
</linearGradient>
<linearGradient id="paint4_linear" x1="1086.66" y1="-2211.92" x2="1202.24" y2="-2446.41" gradientUnits="userSpaceOnUse">
<stop stop-color="#ADACAB"/>
<stop offset="0.99" stop-color="#94908E"/>
</linearGradient>
<linearGradient id="paint5_linear" x1="1152.65" y1="-2537.18" x2="1285.45" y2="-2806.6" gradientUnits="userSpaceOnUse">
<stop stop-color="#ADACAB"/>
<stop offset="0.99" stop-color="#94908E"/>
</linearGradient>
<linearGradient id="paint6_linear" x1="47.7872" y1="71.9517" x2="124.842" y2="68.4609" gradientUnits="userSpaceOnUse">
<stop stop-color="#333637"/>
<stop offset="1" stop-color="#1F2223"/>
</linearGradient>
<linearGradient id="paint7_linear" x1="47.8775" y1="99.6107" x2="125.864" y2="40.9637" gradientUnits="userSpaceOnUse">
<stop stop-color="#F3F5F4"/>
<stop offset="0.71" stop-color="#E5E5E4"/>
<stop offset="0.99" stop-color="#D4D2D1"/>
</linearGradient>
<linearGradient id="paint8_linear" x1="64.4248" y1="74.312" x2="115.89" y2="65.0064" gradientUnits="userSpaceOnUse">
<stop stop-color="#4D4F50"/>
<stop offset="0.4" stop-color="#3F4142"/>
<stop offset="1" stop-color="#2E3132"/>
</linearGradient>
<linearGradient id="paint9_linear" x1="951.332" y1="-2139.8" x2="1053.37" y2="-2165.03" gradientUnits="userSpaceOnUse">
<stop stop-color="#F3F5F4"/>
<stop offset="0.71" stop-color="#E5E5E4"/>
<stop offset="0.99" stop-color="#D4D2D1"/>
</linearGradient>
<linearGradient id="paint10_linear" x1="983.668" y1="-2050.65" x2="1084.44" y2="-2074.8" gradientUnits="userSpaceOnUse">
<stop stop-color="#F3F5F4"/>
<stop offset="0.71" stop-color="#E5E5E4"/>
<stop offset="0.99" stop-color="#D4D2D1"/>
</linearGradient>
<linearGradient id="paint11_linear" x1="650.217" y1="-1344.79" x2="718.365" y2="-1369.4" gradientUnits="userSpaceOnUse">
<stop stop-color="#F3F5F4"/>
<stop offset="0.71" stop-color="#E5E5E4"/>
<stop offset="0.99" stop-color="#D4D2D1"/>
</linearGradient>
<linearGradient id="paint12_linear" x1="564.299" y1="-1203.8" x2="632.277" y2="-1229.19" gradientUnits="userSpaceOnUse">
<stop stop-color="#F3F5F4"/>
<stop offset="0.71" stop-color="#E5E5E4"/>
<stop offset="0.99" stop-color="#D4D2D1"/>
</linearGradient>
<linearGradient id="paint13_linear" x1="762.998" y1="-1763.86" x2="853.078" y2="-1800.18" gradientUnits="userSpaceOnUse">
<stop stop-color="#F3F5F4"/>
<stop offset="0.71" stop-color="#E5E5E4"/>
<stop offset="0.99" stop-color="#D4D2D1"/>
</linearGradient>
<linearGradient id="paint14_linear" x1="718.665" y1="-1558.41" x2="806.562" y2="-1594.85" gradientUnits="userSpaceOnUse">
<stop stop-color="#F3F5F4"/>
<stop offset="0.71" stop-color="#E5E5E4"/>
<stop offset="0.99" stop-color="#D4D2D1"/>
</linearGradient>
<linearGradient id="paint15_linear" x1="1003.16" y1="-1970.88" x2="1079.24" y2="-1975.79" gradientUnits="userSpaceOnUse">
<stop stop-color="#F3F5F4"/>
<stop offset="0.71" stop-color="#E5E5E4"/>
<stop offset="0.99" stop-color="#D4D2D1"/>
</linearGradient>
<linearGradient id="paint16_linear" x1="926.289" y1="-1937.14" x2="1004.52" y2="-1942.9" gradientUnits="userSpaceOnUse">
<stop stop-color="#F3F5F4"/>
<stop offset="0.71" stop-color="#E5E5E4"/>
<stop offset="0.99" stop-color="#D4D2D1"/>
</linearGradient>
<linearGradient id="paint17_linear" x1="3028.24" y1="-7091.24" x2="3248.07" y2="-7537.19" gradientUnits="userSpaceOnUse">
<stop stop-color="#F3F5F4"/>
<stop offset="0.71" stop-color="#E5E5E4"/>
<stop offset="0.99" stop-color="#D4D2D1"/>
</linearGradient>
</defs>
</svg>
