<svg width="405" height="112" viewBox="0 0 405 112" fill="none" xmlns="http://www.w3.org/2000/svg">
<path d="M90.3544 11.0715C90.2079 11.2546 89.9637 11.6086 89.8417 11.8528C89.7074 12.0969 89.4754 12.3533 89.3167 12.4265C89.158 12.4998 88.4622 12.5608 87.7664 12.5608C86.6921 12.5608 86.4846 12.5242 86.3015 12.3289C86.1916 12.2068 85.8864 12.0115 85.6301 11.8894C85.1662 11.6819 85.1418 11.6819 84.8488 11.9016C84.4215 12.2312 83.8966 13.2078 83.8112 13.867C83.7257 14.3919 83.6769 14.453 83.1153 14.7581C81.504 15.6127 80.9302 15.6981 80.2466 15.1488C79.8071 14.7826 79.7095 14.7581 78.8183 14.7581C78.2812 14.7581 77.7929 14.6971 77.7318 14.6361C77.6586 14.5628 77.2924 14.5018 76.9139 14.4774C76.2547 14.453 76.2059 14.4652 75.681 14.9901L75.1195 15.5394L74.7776 15.2098C74.3748 14.8192 73.8499 14.7826 73.0808 15.1C72.3728 15.3929 72.0554 15.6859 71.5182 16.5282C71.0788 17.2241 69.9923 18.7012 69.211 19.69C68.8448 20.1416 68.8326 20.1905 68.8326 21.4601C68.8326 22.4855 68.8936 22.9372 69.1256 23.6696C69.6627 25.3542 69.7482 25.6472 69.6749 25.7571C69.6383 25.8181 69.4064 25.8669 69.15 25.8669C68.7349 25.8669 68.6739 25.8181 68.4786 25.3786C68.2589 24.8781 67.3921 24.0358 66.7573 23.694C66.5132 23.5719 65.8784 23.4743 64.8408 23.4132C63.5346 23.34 63.2294 23.2912 62.9608 23.0714C62.5458 22.754 62.3749 22.754 61.911 23.0714C61.6424 23.2668 61.4471 23.3156 61.1297 23.2668C60.617 23.1813 60.3972 23.3644 59.9822 24.1945C59.7502 24.6584 59.6648 24.7317 59.4817 24.6462C59.2375 24.5119 59.0666 24.048 58.8835 23.0592C58.7004 22.0826 58.4196 21.5089 58.0168 21.3502C57.7238 21.2281 57.5895 21.2525 57.028 21.5089C56.674 21.6798 56.2101 21.8507 56.0026 21.8873C55.5997 21.9728 55.0626 22.4855 54.6719 23.1447C54.379 23.633 54.2691 23.6452 54.1714 23.2057C54.1226 23.0226 53.9883 22.6686 53.8662 22.4244C53.5733 21.8507 53.1216 21.753 51.9497 21.9972L51.0952 22.1681L50.8266 21.6065C50.4115 20.7032 50.3871 20.6788 50.0697 20.6422C49.8378 20.6177 49.6303 20.7764 49.0687 21.4112C48.6781 21.8507 48.3119 22.2047 48.263 22.2047C48.2264 22.2047 48.1043 22.0582 48.0189 21.8629C47.7503 21.3258 47.5062 21.106 47.2254 21.106C46.847 21.106 46.7249 21.3014 46.554 22.1681C46.3953 22.9738 46.322 23.0592 46.0657 22.754C45.9436 22.5953 45.9436 22.5221 46.0901 22.3512C46.6028 21.7774 46.4075 21.106 45.7239 21.106C45.5041 21.106 45.1135 21.2281 44.8571 21.3746L44.3933 21.6432L43.6852 21.3502C43.2946 21.1915 42.7819 21.0694 42.5621 21.0694C42.1471 21.0816 42.1349 21.0572 41.9762 20.3003C41.8541 19.6533 41.6222 19.5435 40.2549 19.4947C39.1196 19.458 38.9853 19.4336 38.497 19.0918C37.9477 18.7134 37.3862 18.6279 36.5683 18.811C36.2265 18.8965 36.1532 18.8721 36.0678 18.6279C35.9213 18.2373 35.5673 18.0908 34.1024 17.81C33.3943 17.6635 32.7107 17.4926 32.5642 17.4316C32.4177 17.3461 31.9294 17.3339 31.3435 17.3706C27.8888 17.6391 27.4981 17.6147 26.3018 16.9799L25.7524 16.6991L24.959 17.0287C24.5195 17.2119 24.08 17.4194 23.9824 17.4926C23.7626 17.6635 21.7484 17.6269 21.431 17.456C21.2479 17.3583 21.0892 17.3706 20.845 17.4926C20.6497 17.5903 19.9539 17.8588 19.3069 18.1152C17.9275 18.6401 17.8054 18.7378 17.2805 19.6656C16.8288 20.4835 16.6213 20.7642 16.0597 21.3136C15.7301 21.6432 15.5592 21.7164 15.1319 21.7164C14.7169 21.7164 14.546 21.6432 14.2652 21.3502C13.7891 20.8497 13.1055 20.8375 12.6172 21.3258L12.2876 21.6676L12.2998 23.8649C12.3242 26.282 12.2754 26.0989 13.2642 27.515C13.5816 27.9422 13.7525 28.3573 13.8013 28.6991C13.9112 29.6635 14.546 30.6523 15.5592 31.3969L15.8522 31.6167L15.3883 31.5434C14.8634 31.458 14.5704 31.6167 14.5704 31.9951C14.5704 32.1172 14.839 32.7397 15.1686 33.3623C15.7545 34.461 15.8278 34.815 15.547 35.2057C15.4982 35.2667 15.3883 35.6817 15.3029 36.1212C15.1319 37.0612 14.9977 37.2687 14.6925 37.0978C14.1676 36.817 13.7037 36.9513 13.1421 37.5495C12.8614 37.8669 12.6172 38.1721 12.6172 38.2209C12.6172 38.3186 11.8115 39.1487 11.2622 39.6003C10.8349 39.9666 10.5419 40.3328 8.85731 42.5912C8.0272 43.7021 7.28255 44.6909 7.2093 44.7885C7.12385 44.8862 6.95295 45.1425 6.83087 45.3379C6.69659 45.5454 6.52568 45.7529 6.42802 45.8017C6.34257 45.8506 6.26933 45.9482 6.26933 46.0215C6.26933 46.0825 5.85427 46.6929 5.35377 47.3521C4.85326 48.0235 4.38938 48.6949 4.31613 48.8658C4.05978 49.5494 4.05978 50.5871 4.31613 52.0398C4.57249 53.5169 4.85326 54.2371 5.4026 54.7254C5.70778 55.0062 5.75661 55.5921 5.46363 55.4823C5.35377 55.4456 5.23169 55.409 5.18286 55.409C5.13403 55.409 4.79222 55.1404 4.426 54.7986C3.32733 53.7854 2.86344 54.0052 2.42397 55.7752C2.15541 56.8739 1.6549 57.997 0.959078 59.0713C0.678306 59.5107 0.385327 60.0234 0.312082 60.231C0.153385 60.646 -0.0663491 62.5992 0.0191031 62.8189C0.0435181 62.9044 0.27546 63.0875 0.531817 63.234C1.02012 63.5148 1.10557 63.6368 1.43517 64.6745C1.71594 65.5168 1.80139 65.6022 2.54605 65.7365C3.09539 65.8342 3.15642 65.883 3.19305 66.1882C3.24187 66.5666 3.57148 66.823 4.18185 66.9329C4.41379 66.9695 4.81664 67.0671 5.0852 67.1404C5.50026 67.2503 5.54909 67.2991 5.48805 67.5554C5.42701 67.7752 5.47584 67.8973 5.68337 68.0315C6.04959 68.2513 7.02619 68.3856 7.62436 68.2879C8.10045 68.2024 8.24694 68.0315 8.5155 67.2136C8.55212 67.1038 8.62537 67.0061 8.6742 67.0183C8.72303 67.0183 9.06484 67.3723 9.41885 67.7996C9.77287 68.2146 10.249 68.6541 10.4931 68.7762C10.9082 68.9715 10.957 68.9593 11.6772 68.7029L12.4463 68.4344L12.7881 68.764C13.2154 69.1546 13.5694 69.2523 14.1798 69.1546C15.7301 68.9227 15.9987 68.9227 16.487 69.2034C16.8898 69.4232 17.1096 69.4598 17.8176 69.411C18.2815 69.3866 19.0505 69.2523 19.5266 69.118C20.0149 68.9837 20.4544 68.8983 20.5154 68.9471C20.5887 68.9837 20.6741 69.1668 20.7108 69.3377C20.8573 69.9115 22.6518 71.5107 23.3598 71.6816C24.3852 71.9379 25.6304 70.9979 25.9844 69.7162C26.0576 69.472 26.1309 69.4476 26.9488 69.4476C27.4493 69.4476 28.6578 69.3621 29.6588 69.2523C31.3313 69.0814 31.5632 69.0325 32.5154 68.5687C33.0891 68.3001 34.1878 67.6043 34.9691 67.0183C36.3607 65.9929 36.788 65.5168 36.9589 64.7843C36.9955 64.6012 37.081 64.3205 37.1542 64.1496L37.2641 63.8444L37.9843 64.1618C38.6802 64.4547 38.7168 64.467 39.0342 64.2594C39.2173 64.1374 39.3516 63.9298 39.3516 63.7833C39.3516 63.5514 39.4126 63.527 39.9131 63.5636C40.3526 63.6002 40.5235 63.5636 40.7432 63.3561L41.0118 63.0997L41.3658 63.4659C41.8663 63.9787 42.1837 63.942 42.733 63.2706L43.1969 62.7091L43.9416 62.7945C44.5275 62.8556 44.7106 62.8312 44.8327 62.6847C45.0402 62.4405 45.26 62.4405 45.4553 62.6725C45.553 62.7823 45.8215 62.8556 46.1755 62.8556C46.6516 62.8556 46.8836 62.9532 47.5916 63.4415C49.142 64.4914 49.5936 64.8698 49.7401 65.236C49.9354 65.6877 50.0575 65.7854 50.4848 65.7854C50.7411 65.7854 50.8022 65.8342 50.7411 65.9685C50.6435 66.237 50.9975 66.5788 51.559 66.762C52.0229 66.9207 52.084 66.9084 52.8286 66.5178C53.5855 66.115 53.6221 66.115 54.0738 66.2859C54.4278 66.4201 54.5865 66.5666 54.6719 66.8474C54.8306 67.3357 55.0748 67.5921 55.8927 68.1658C56.4664 68.5565 56.6373 68.6175 57.0402 68.5565L57.5041 68.4954L57.6506 69.0814C57.736 69.411 57.9924 69.9359 58.2243 70.2655C58.4563 70.5829 58.6394 70.8759 58.6394 70.9247C58.6394 70.9613 58.3952 71.1566 58.09 71.3764C57.6628 71.6816 57.5407 71.8403 57.5407 72.1088C57.5407 72.2919 57.6017 72.5117 57.6628 72.5727C57.7971 72.707 57.6506 73.708 57.3942 74.3672C57.2843 74.648 57.3088 74.7456 57.4919 74.9532C57.6872 75.1729 57.8093 75.1973 58.2976 75.1363L58.8713 75.0508L58.7981 75.4659C58.6638 76.3082 59.1765 76.6622 59.9456 76.2716C60.6414 75.9176 60.7513 75.9542 60.5071 76.4913C60.4095 76.7477 60.2752 77.0651 60.2263 77.1993C60.1775 77.3336 60.0676 77.6022 59.9944 77.7853C59.8235 78.237 59.8235 78.884 60.0066 79.0671C60.0921 79.1525 60.3362 79.2136 60.5559 79.2136C60.8245 79.2136 60.9588 79.2746 60.9588 79.3845C60.9588 79.4821 61.0931 79.8239 61.264 80.1413C61.4349 80.4587 61.5692 80.8127 61.5692 80.9348C61.5692 81.3255 62.0086 81.6551 62.5336 81.6551C62.9242 81.6551 63.0707 81.7283 63.3881 82.0823C63.5956 82.3143 63.8153 82.5096 63.8886 82.5096C64.0839 82.5096 64.0351 82.827 63.7421 83.4374C63.5346 83.889 63.5102 84.0477 63.62 84.2308C63.8031 84.5116 63.8153 85.0365 63.6444 85.1342C63.3148 85.3417 63.7787 86.6601 64.1693 86.6601C64.3403 86.6601 64.7431 87.0386 64.7431 87.1973C64.7431 87.2461 64.5112 87.2705 64.2304 87.2461C63.7665 87.2095 63.6933 87.1606 63.4003 86.6601C63.0707 86.0986 62.8509 85.9765 62.3626 86.0986C62.1673 86.1474 62.033 86.3183 61.9354 86.6235C61.8499 86.8799 61.7523 87.124 61.7034 87.1728C61.6546 87.2217 61.3494 87.0386 61.0198 86.77C60.6902 86.5014 60.324 86.2207 60.2019 86.1596C59.9089 86.0009 59.1521 86.1474 58.737 86.4404L58.3952 86.6723V86.2451C58.3952 85.5004 57.7848 85.0976 57.2355 85.4882C57.1012 85.5737 56.8327 85.6835 56.6251 85.7324C55.8317 85.9277 55.5509 86.4648 55.4044 88.064C55.3067 89.1138 55.441 89.5167 56.0026 89.8463L56.4298 90.1026L55.7706 90.7496C55.1114 91.3844 54.9649 91.7262 55.2335 91.9948C55.441 92.2023 55.2823 92.361 54.6231 92.5807C53.8296 92.8371 53.7076 92.9958 53.7808 93.7405C53.854 94.4485 53.8174 94.4851 52.7798 94.7048C51.852 94.9002 51.6811 95.0955 51.6811 95.9256C51.6811 97.0487 51.6201 97.1585 50.9975 97.1585C49.8134 97.1585 49.5936 97.5736 50.1552 98.7943C50.3261 99.1606 50.4604 99.6489 50.4604 99.8686C50.4604 100.101 50.5336 100.369 50.6191 100.479C50.9975 100.955 53.3169 102.042 53.9761 102.042C54.379 102.042 54.7818 101.663 54.9893 101.089C55.1114 100.735 55.1724 100.699 55.5997 100.699C55.8683 100.699 56.9181 100.418 57.9313 100.088C58.9446 99.7465 59.9456 99.478 60.1653 99.478C60.5804 99.478 60.9832 99.832 61.3983 100.54C61.557 100.833 61.7034 100.943 61.9476 100.943C62.3016 100.943 62.3749 100.821 62.7167 99.539C63.0341 98.3305 63.0219 98.0497 62.6068 97.891C62.2772 97.7689 62.0575 97.3417 62.0575 96.8167V96.4993L62.2528 96.7679C62.68 97.3783 63.5712 96.8045 63.4979 95.9622C63.4735 95.5838 63.5102 95.5227 63.9618 95.2786C64.2426 95.1321 64.9384 94.6682 65.5244 94.2532C66.0981 93.8381 66.6353 93.4963 66.6841 93.4963C66.9038 93.4963 67.6851 92.4587 68.0513 91.714C68.5762 90.5909 68.5396 90.3102 67.7706 89.7364C67.4165 89.4678 67.0137 89.126 66.8794 88.9673C66.6597 88.711 66.6719 88.711 67.0625 89.004C67.2945 89.1871 67.7217 89.419 68.0147 89.5289C68.2955 89.651 68.6495 89.8951 68.7838 90.0904C69.1744 90.6398 69.5773 90.5665 69.8824 89.8951C70.0167 89.5899 70.4074 88.8941 70.7492 88.3448L71.3718 87.3437L71.2985 86.3916C71.2375 85.4516 71.2375 85.4394 71.5305 85.4394C71.6892 85.4394 72.092 85.3295 72.4338 85.1952C72.9221 84.9999 73.1541 84.9755 73.5691 85.0609C74.2161 85.1952 76.1205 85.0609 76.3646 84.8656C76.5111 84.7313 76.5966 84.768 76.8285 85.0121C77.1825 85.3906 77.5487 85.4028 77.9882 85.0609C78.2446 84.8534 78.4765 84.7924 79.0625 84.8046C79.5874 84.8168 79.8804 84.7558 80.0269 84.6215C80.3198 84.3651 80.7105 84.4872 81.4551 85.0732C82.1265 85.6103 82.151 85.6591 81.919 85.9643C81.7847 86.1596 81.7237 86.1596 81.2842 86.0131C81.0157 85.9155 80.4297 85.7934 80.0024 85.7446C79.563 85.7079 78.9038 85.5859 78.5253 85.4882C77.6586 85.2685 77.7196 85.2685 77.5609 85.5737C77.4511 85.769 77.4633 85.8666 77.6098 86.0253C77.8661 86.3183 78.9648 86.8677 79.8193 87.1362L80.5518 87.3682L79.8315 87.5757C79.4409 87.6856 79.0136 87.8931 78.8916 88.0152C78.3544 88.5523 78.7573 88.9063 80.1245 89.1138C80.6983 89.1993 81.211 89.3091 81.272 89.3702C81.3453 89.419 81.4795 89.4678 81.5894 89.4678C81.6993 89.4678 81.8946 89.5777 82.0289 89.7242C82.3341 90.066 83.4327 90.6153 84.568 90.9938C85.6911 91.3722 86.7654 91.3966 87.7298 91.067C88.096 90.9327 88.6942 90.7985 89.0604 90.7496C89.683 90.6764 89.7318 90.6886 90.6229 91.2745C92.1489 92.2756 92.9912 92.3854 93.6504 91.653C93.9434 91.3234 93.98 91.3112 94.0532 91.5065C94.2119 91.8971 94.1631 92.4953 93.9556 92.8859C93.5649 93.5696 91.099 95.0589 89.4876 95.5838C88.4256 95.9256 87.1194 96.658 86.4602 97.2806C86.0451 97.6713 85.7766 98.2328 85.6301 98.9286C85.508 99.5878 85.5202 99.6855 85.7155 99.9541C86.0329 100.394 86.4846 100.467 87.8885 100.308C89.39 100.149 89.5365 100.21 90.1224 101.236C90.33 101.614 90.6351 102.005 90.8061 102.115C91.1967 102.371 92.2587 102.396 92.7959 102.176C93.1255 102.042 93.2231 102.042 93.4673 102.2C93.7358 102.371 93.7481 102.444 93.6626 103.043C93.6138 103.397 93.5649 104.361 93.5649 105.191C93.5527 106.79 93.5283 106.876 92.8691 107.742C92.4052 108.353 92.332 108.89 92.6494 109.342C92.7592 109.5 93.1499 109.928 93.5283 110.294C94.2974 111.038 94.2608 111.026 95.8111 110.684C96.1529 110.611 96.8854 110.538 97.4591 110.514C98.0329 110.501 98.6188 110.477 98.7653 110.477C99.1804 110.465 99.7175 109.891 100.218 108.939C101.011 107.413 101.744 106.839 103.258 106.497C104.442 106.241 106.029 105.765 106.615 105.496C108.702 104.544 109.667 103.983 109.667 103.69C109.667 103.641 109.752 103.421 109.85 103.201C110.033 102.835 110.069 102.811 110.497 102.896C110.741 102.945 111.193 103.079 111.498 103.189C112.12 103.421 113.524 103.604 115.404 103.714L116.698 103.775L117.15 103.274C117.394 102.994 117.614 102.652 117.614 102.493C117.638 102.176 117.638 102.273 117.54 101.358C117.455 100.674 117.479 100.589 117.736 100.345C117.955 100.137 118.114 100.088 118.419 100.149C118.676 100.198 118.859 100.162 118.993 100.027C119.237 99.7709 119.237 99.7832 118.944 99.185C118.7 98.6845 117.919 98.0985 117.296 97.9398C116.954 97.8544 115.844 98.1596 114.928 98.5868C114.415 98.831 114.22 98.8676 114.073 98.7699C113.964 98.6845 113.646 98.477 113.353 98.306C112.841 97.9887 112.816 97.9887 112.316 98.184C112.035 98.2938 111.608 98.5624 111.376 98.7821C110.9 99.2216 110.558 99.4047 109.85 99.6C109.361 99.7465 109.325 99.7343 107.433 99.2582C106.944 99.1362 106.371 98.538 106.371 98.1596C106.371 97.9764 106.456 97.6102 106.554 97.3417C106.993 96.0965 106.712 95.3763 105.553 94.8147C105.101 94.595 104.539 94.2165 104.295 93.9846C103.661 93.3864 103.05 92.8859 102.928 92.8859C102.879 92.8859 102.83 92.4831 102.83 91.9948C102.83 91.5065 102.769 91.0426 102.696 90.9694C102.611 90.8839 102.818 90.8229 103.429 90.7863C104.198 90.7252 104.356 90.6642 105.052 90.1637C105.858 89.5899 106.615 89.2237 106.981 89.2237C107.323 89.2237 107.811 88.6744 107.896 88.1983C107.97 87.8198 108.019 87.7832 108.202 87.8809C108.324 87.9541 108.629 88.0029 108.873 88.0029C109.227 88.0029 109.349 87.9419 109.52 87.6367C109.63 87.4414 109.813 87.2705 109.911 87.2705C110.008 87.2705 110.484 86.9897 110.948 86.6601C112.694 85.4272 113.622 85.0732 115.16 85.0732C116.088 85.0732 116.246 85.0365 116.454 84.8168C116.576 84.6703 116.845 84.475 117.052 84.3651C117.601 84.0721 119.591 83.242 119.762 83.242C119.848 83.242 120.116 83.3763 120.36 83.5472C120.849 83.8768 121.081 83.9134 121.557 83.7303C121.874 83.6083 122.045 83.3275 122.423 82.241C122.631 81.6795 122.643 81.6795 123.266 81.6184C125.036 81.4353 125.414 81.3133 125.89 80.7761C126.623 79.9338 126.867 79.7751 127.648 79.6164C128.625 79.4333 130.236 79.4211 131.005 79.592C132.104 79.8484 132.775 79.4333 132.983 78.3713C133.044 78.0294 133.19 77.5778 133.3 77.3702C133.459 77.0529 133.471 76.9308 133.349 76.6988C133.117 76.2838 133.361 73.354 133.642 73.122C133.728 73.0488 134.387 72.9145 135.107 72.8169C136.999 72.5727 137.487 72.2065 138.025 70.6439C138.476 69.3499 138.415 69.3866 139.416 69.6307C140.075 69.7894 140.686 69.826 142.273 69.7894C144.202 69.7528 144.299 69.7406 144.849 69.4232C145.508 69.0203 145.923 68.3001 145.923 67.5066C145.923 67.1404 146.008 66.8718 146.228 66.5911C146.558 66.1638 146.899 65.1872 146.899 64.6745C146.899 64.4547 146.802 64.3205 146.582 64.2106C146.313 64.0885 146.277 64.0153 146.338 63.7345C146.57 62.7091 146.57 62.587 146.228 61.7203C145.593 60.0356 145.532 59.9258 145.227 59.8525C144.971 59.7793 144.946 59.7305 145.019 59.3276C145.215 58.2778 145.215 58.2778 145.85 58.2411C146.802 58.1801 147.632 57.5209 147.632 56.8251C147.632 56.2391 147.363 56.056 146.814 56.2513C146.472 56.3856 146.326 56.3856 146.106 56.2635C145.776 56.0804 145.019 55.0794 145.154 55.0062C145.215 54.9695 145.557 54.8597 145.923 54.762C146.68 54.5423 146.948 54.3103 147.51 53.346C147.717 52.9797 148.022 52.5769 148.181 52.4548C148.877 51.9177 148.84 50.3917 148.12 49.5494L147.766 49.1344L148.193 48.6705C148.425 48.4141 148.608 48.0967 148.608 47.9503C148.608 47.5718 147.9 46.9859 147.436 46.9859C147.07 46.9859 146.301 47.4497 145.935 47.877C145.85 47.9869 145.727 48.0845 145.666 48.0845C145.544 48.0845 144.458 46.6807 144.458 46.522C144.458 46.4609 144.275 46.2046 144.055 45.9482C143.689 45.5454 143.603 45.4966 142.92 45.4721C142.09 45.4233 141.809 45.3012 141.076 44.6176L140.564 44.1415L139.575 44.3613L138.586 44.581L138.147 44.1415C137.915 43.8974 137.646 43.6898 137.548 43.6898C137.463 43.6898 137.207 43.4701 136.999 43.2015C136.621 42.7255 136.584 42.7132 135.876 42.7132C134.96 42.7132 134.436 42.4569 133.874 41.7489C133.227 40.931 133.007 40.7601 132.556 40.7601C131.957 40.7601 131.64 41.2117 131.64 42.0907C131.628 42.4691 131.555 42.9086 131.469 43.0673L131.31 43.348L131.078 43.0551C130.956 42.8964 130.419 42.4447 129.907 42.0663C129.382 41.6756 128.82 41.1873 128.637 40.9554C128.271 40.5037 127.856 39.5027 127.856 39.0754C127.856 38.8923 127.685 38.6848 127.319 38.4162C126.916 38.1477 126.696 37.8547 126.488 37.3786C126.134 36.5729 125.903 36.4874 125.036 36.8903C124.67 37.049 124.12 37.3053 123.803 37.4518C123.485 37.5861 122.936 37.7692 122.582 37.8425C122.228 37.9157 121.471 38.1355 120.897 38.3308C119.652 38.758 118.932 38.7824 118.285 38.4284C117.76 38.1477 117.138 38.1843 116.869 38.5017C116.784 38.5993 116.686 38.6848 116.637 38.6848C116.588 38.6848 116.405 38.3308 116.21 37.8913C116.014 37.4274 115.685 36.9391 115.429 36.7194C115.026 36.3654 114.965 36.341 114.379 36.4264C114.037 36.4752 113.426 36.5363 113.036 36.5485C112.548 36.5729 112.206 36.6706 111.974 36.8415C111.778 36.9879 111.583 37.0978 111.534 37.0856C111.437 37.0856 110.79 36.2921 110.118 35.3644C109.642 34.7174 109.569 34.1558 109.899 33.7286C110.277 33.2525 110.216 32.7031 109.667 31.5312C109.398 30.9575 109.178 30.4203 109.178 30.3349C109.178 30.2494 109.288 30.0785 109.422 29.9564C109.557 29.8344 109.667 29.6391 109.667 29.517C109.667 29.2972 109.02 28.6747 108.788 28.6747C108.714 28.6747 108.421 28.5526 108.141 28.4183C107.579 28.1375 107.396 27.8568 107.274 27.0755C107.164 26.3919 106.81 26.2332 106.004 26.5139C105.125 26.8313 104.405 26.7825 103.587 26.3552C102.562 25.8303 101.561 25.5984 100.963 25.7571C100.291 25.9402 100.145 25.7815 100.303 25.0735C100.401 24.6462 100.389 24.4265 100.23 24.0358C100.12 23.7551 100.096 23.5231 100.157 23.4743C100.34 23.3644 100.279 22.7785 100.047 22.4244C99.925 22.2413 99.6198 21.9117 99.3635 21.692L98.8996 21.3014L99.9617 20.7886C101.146 20.2027 101.353 19.9952 101.366 19.4458C101.366 19.1284 101.182 18.8721 100.389 18.042C99.4734 17.0654 98.8996 16.162 98.7287 15.4051C98.6921 15.2098 98.6188 14.8436 98.57 14.5628C98.4723 14.0379 97.569 12.5852 96.983 12.0237C96.5924 11.6575 95.2007 11.0959 94.6758 11.0959C94.4927 11.0959 94.2119 11.2058 94.041 11.3401C93.626 11.6575 93.5527 11.6452 92.5273 11.157C91.392 10.6076 90.7694 10.5832 90.3544 11.0715ZM99.1438 90.5177C99.3879 90.7618 99.7663 91.0426 99.9617 91.1281C100.316 91.2868 100.316 91.2868 99.632 91.299C98.9973 91.299 98.8752 91.2623 98.4479 90.8717C98.1916 90.6398 97.9108 90.4444 97.8376 90.4444C97.6544 90.4444 97.6666 90.2369 97.862 90.1637C98.3014 89.9806 98.7043 90.0904 99.1438 90.5177ZM101.366 90.4322C101.366 90.4933 101.28 90.6031 101.182 90.6886C101.024 90.8107 100.999 90.7985 100.999 90.5787C100.999 90.4322 101.073 90.3224 101.182 90.3224C101.28 90.3224 101.366 90.3712 101.366 90.4322ZM100.755 91.2379C100.67 91.3478 100.572 91.3966 100.548 91.3722C100.462 91.2868 100.633 91.0548 100.78 91.0548C100.853 91.0548 100.853 91.1281 100.755 91.2379Z" fill="#0048B1"/>
<path d="M177.549 41.8249L175.456 30.9191H175.372L173.279 41.8249H177.549ZM167 52.3502L173.656 22.2536H177.214L183.87 52.3502H179.6L178.344 45.8829H172.526L171.27 52.3502H167Z" fill="white"/>
<path d="M199.535 43.7693V45.6292C199.535 46.5592 199.353 47.4469 198.99 48.2923C198.656 49.1095 198.181 49.8422 197.567 50.4903C196.953 51.1385 196.228 51.6598 195.39 52.0543C194.581 52.4207 193.702 52.6039 192.753 52.6039C191.944 52.6039 191.121 52.4911 190.284 52.2657C189.446 52.0403 188.693 51.6457 188.023 51.0821C187.353 50.5185 186.795 49.7999 186.349 48.9263C185.93 48.0246 185.721 46.8833 185.721 45.5024V28.9324C185.721 27.9461 185.888 27.0302 186.223 26.1848C186.558 25.3394 187.032 24.6067 187.646 23.9867C188.26 23.3667 188.986 22.8877 189.823 22.5495C190.688 22.1832 191.637 22 192.67 22C194.679 22 196.311 22.6622 197.567 23.9867C198.181 24.6349 198.656 25.4098 198.99 26.3116C199.353 27.1852 199.535 28.1433 199.535 29.186V30.8768H195.265V29.4396C195.265 28.5942 195.028 27.8615 194.553 27.2415C194.079 26.6216 193.437 26.3116 192.628 26.3116C191.567 26.3116 190.856 26.6498 190.493 27.3261C190.158 27.9742 189.991 28.8056 189.991 29.82V45.2065C189.991 46.0801 190.172 46.8128 190.535 47.4046C190.925 47.9964 191.609 48.2923 192.586 48.2923C192.865 48.2923 193.158 48.25 193.465 48.1655C193.8 48.0527 194.107 47.8837 194.386 47.6582C194.637 47.4328 194.846 47.1228 195.014 46.7283C195.181 46.3337 195.265 45.8406 195.265 45.2488V43.7693H199.535Z" fill="white"/>
<path d="M202.767 29.3551C202.767 28.1433 202.977 27.0725 203.395 26.1425C203.814 25.2126 204.372 24.4376 205.07 23.8176C205.739 23.2258 206.493 22.775 207.33 22.465C208.195 22.155 209.06 22 209.925 22C210.79 22 211.642 22.155 212.479 22.465C213.344 22.775 214.125 23.2258 214.823 23.8176C215.493 24.4376 216.037 25.2126 216.456 26.1425C216.874 27.0725 217.083 28.1433 217.083 29.3551V45.2488C217.083 46.5169 216.874 47.6019 216.456 48.5036C216.037 49.4054 215.493 50.1522 214.823 50.744C214.125 51.3639 213.344 51.8289 212.479 52.1389C211.642 52.4489 210.79 52.6039 209.925 52.6039C209.06 52.6039 208.195 52.4489 207.33 52.1389C206.493 51.8289 205.739 51.3639 205.07 50.744C204.372 50.1522 203.814 49.4054 203.395 48.5036C202.977 47.6019 202.767 46.5169 202.767 45.2488V29.3551ZM207.037 45.2488C207.037 46.2915 207.316 47.0664 207.874 47.5737C208.46 48.0527 209.144 48.2923 209.925 48.2923C210.707 48.2923 211.377 48.0527 211.935 47.5737C212.521 47.0664 212.814 46.2915 212.814 45.2488V29.3551C212.814 28.3124 212.521 27.5515 211.935 27.0725C211.377 26.5652 210.707 26.3116 209.925 26.3116C209.144 26.3116 208.46 26.5652 207.874 27.0725C207.316 27.5515 207.037 28.3124 207.037 29.3551V45.2488Z" fill="white"/>
<path d="M220.842 52.3502V22.2536H225.111V48.5459H230.176V22.2536H234.446V48.5459H236.874V57H233.19V52.3502H220.842Z" fill="white"/>
<path d="M239.24 52.3502V22.2536H243.51V52.3502H239.24Z" fill="white"/>
<path d="M256.281 41.8249L254.188 30.9191H254.105L252.012 41.8249H256.281ZM245.733 52.3502L252.388 22.2536H255.946L262.602 52.3502H258.332L257.077 45.8829H251.258L250.002 52.3502H245.733Z" fill="white"/>
<path d="M264.705 52.3502V22.2536H268.974V48.5459H274.039V22.2536H278.309V48.5459H280.737V57H277.053V52.3502H264.705Z" fill="white"/>
<path d="M283.103 52.3502V22.2536H287.373V52.3502H283.103Z" fill="white"/>
<path d="M298.888 26.3116C297.382 26.3116 296.391 26.7202 295.916 27.5374C295.47 28.3265 295.247 29.4819 295.247 31.0036C295.247 31.7645 295.288 32.4408 295.372 33.0326C295.456 33.5962 295.609 34.0753 295.833 34.4698C296.084 34.8643 296.433 35.1743 296.879 35.3998C297.326 35.597 297.926 35.6957 298.679 35.6957H300.73V26.3116H298.888ZM300.73 52.3502V39.5H298.763L295.037 52.3502H290.684L294.744 38.9505C294.075 38.6969 293.489 38.3164 292.986 37.8092C292.484 37.3019 292.079 36.7242 291.772 36.0761C291.465 35.4279 291.256 34.6671 291.144 33.7935C291.033 32.9199 290.977 32.0181 290.977 31.0882C290.977 25.1985 293.489 22.2536 298.512 22.2536H305V52.3502H300.73Z" fill="white"/>
<path d="M169.209 67.4887L167.473 70.2673L169.209 73.0459H170.503L168.767 70.2673L170.503 67.4887H169.209ZM171.734 67.4887L169.998 70.2673L171.734 73.0459H173.028L171.292 70.2673L173.028 67.4887H171.734Z" fill="#B3B3B3"/>
<path d="M181.52 69.4337C182.388 68.9089 182.814 68.137 182.814 67.1337C182.814 66.3464 182.53 65.6672 181.946 65.096C181.362 64.5248 180.668 64.2316 179.847 64.2316H175.397V75.0373H180.21C181.062 75.0373 181.788 74.744 182.388 74.1574C182.987 73.5708 183.287 72.8607 183.287 72.0271C183.287 70.8539 182.593 69.8814 181.52 69.4337ZM179.847 65.2504C180.368 65.2504 180.794 65.4356 181.157 65.8061C181.52 66.1766 181.709 66.6242 181.709 67.1337C181.709 67.6585 181.52 68.1062 181.157 68.4767C180.794 68.8317 180.368 69.0169 179.847 69.0169H176.502V65.2504H179.847ZM176.502 74.0184V70.0358H180.21C180.762 70.0358 181.22 70.2364 181.599 70.6224C181.993 71.0083 182.183 71.4868 182.183 72.0271C182.183 72.5828 181.993 73.0614 181.599 73.4473C181.22 73.8332 180.762 74.0184 180.21 74.0184H176.502Z" fill="#B3B3B3"/>
<path d="M186.066 73.262V67.3189H185.025V75.0373H185.908L190.61 69.0941V75.0373H191.652V67.3189H190.768L186.066 73.262Z" fill="#B3B3B3"/>
<path d="M198.083 67.1337C196.679 67.1337 195.621 67.7048 194.896 68.8317V67.3189H193.854V78.1246H194.896V73.5245C195.621 74.6513 196.679 75.2225 198.083 75.2225C199.203 75.2225 200.166 74.8366 200.955 74.0493C201.76 73.262 202.154 72.305 202.154 71.1781C202.154 70.0512 201.76 69.0941 200.955 68.3068C200.166 67.5196 199.203 67.1337 198.083 67.1337ZM195.795 73.3547C195.195 72.7526 194.896 72.0271 194.896 71.1781C194.896 70.3291 195.195 69.6035 195.795 69.0169C196.395 68.4149 197.136 68.1216 198.004 68.1216C198.872 68.1216 199.614 68.4149 200.213 69.0169C200.813 69.6035 201.113 70.3291 201.113 71.1781C201.113 72.0271 200.813 72.7526 200.213 73.3547C199.614 73.9413 198.872 74.2345 198.004 74.2345C197.136 74.2345 196.395 73.9413 195.795 73.3547Z" fill="#B3B3B3"/>
<path d="M210.497 74.0647C211.302 73.2775 211.712 72.3204 211.712 71.1781C211.712 70.0358 211.302 69.0787 210.497 68.3068C209.692 67.5196 208.714 67.1337 207.562 67.1337C206.41 67.1337 205.416 67.5196 204.612 68.3068C203.807 69.0787 203.412 70.0358 203.412 71.1781C203.412 72.3204 203.807 73.2775 204.612 74.0647C205.416 74.8366 206.41 75.2225 207.562 75.2225C208.714 75.2225 209.692 74.8366 210.497 74.0647ZM205.353 73.3547C204.754 72.7526 204.454 72.0271 204.454 71.1781C204.454 70.3291 204.754 69.6035 205.353 69.0169C205.953 68.4149 206.694 68.1216 207.562 68.1216C208.43 68.1216 209.172 68.4149 209.771 69.0169C210.371 69.6035 210.671 70.3291 210.671 71.1781C210.671 72.0271 210.371 72.7526 209.771 73.3547C209.172 73.9413 208.43 74.2345 207.562 74.2345C206.694 74.2345 205.953 73.9413 205.353 73.3547Z" fill="#B3B3B3"/>
<path d="M216.958 75.2225C218.078 75.2225 218.993 74.8829 219.719 74.2037C220.461 73.509 220.824 72.6446 220.824 71.6103C220.824 70.5606 220.477 69.6962 219.782 69.0324C219.104 68.3532 218.236 68.0135 217.179 68.0135C216.122 68.0135 214.907 68.4458 214.196 69.372C214.496 68.3068 215.096 67.7203 216.563 67.1028L217.305 66.794L218.094 66.4699C218.252 66.3927 218.473 66.2846 218.741 66.1303C219.309 65.8061 219.498 65.59 219.751 65.1578C219.877 64.9416 219.956 64.7101 220.003 64.4631L219.183 64C219.167 64.7564 218.441 65.2349 217.794 65.5282C217.605 65.6209 217.321 65.7443 216.926 65.8987C216.548 66.0531 216.248 66.192 216.011 66.3001C214.796 66.8712 213.976 67.5196 213.581 68.2297C213.187 68.9243 212.981 69.9431 212.981 71.2553C212.981 72.4285 213.36 73.3855 214.118 74.1265C214.875 74.852 215.822 75.2225 216.958 75.2225ZM216.958 74.2037C216.153 74.2037 215.459 73.9567 214.907 73.4473C214.354 72.9379 214.086 72.305 214.086 71.5177C214.086 70.7613 214.386 70.1438 215.001 69.6962C215.617 69.233 216.295 69.0015 217.037 69.0015C217.873 69.0015 218.536 69.2485 219.025 69.7425C219.53 70.221 219.782 70.8539 219.782 71.6103C219.782 72.3667 219.514 72.9842 218.978 73.4782C218.457 73.9567 217.778 74.2037 216.958 74.2037Z" fill="#B3B3B3"/>
<path d="M227.994 70.6841H223.449V67.3189H222.408V75.0373H223.449V71.6721H227.994V75.0373H229.035V67.3189H227.994V70.6841Z" fill="#B3B3B3"/>
<path d="M232.279 73.262V67.3189H231.237V75.0373H232.121L236.823 69.0941V75.0373H237.865V67.3189H236.981L232.279 73.262Z" fill="#B3B3B3"/>
<path d="M242.213 71.0237L246.284 67.3189H244.864L241.108 70.7304V67.3189H240.067V75.0373H241.108V71.317L245.053 75.0373H246.442L242.213 71.0237Z" fill="#B3B3B3"/>
<path d="M248.921 65.4665C249.221 65.1732 249.221 64.7101 248.921 64.4168C248.621 64.1235 248.148 64.1235 247.848 64.4168C247.548 64.7101 247.548 65.1732 247.848 65.4665C248.148 65.7598 248.621 65.7598 248.921 65.4665ZM248.905 75.0373V67.3189H247.864V75.0373H248.905Z" fill="#B3B3B3"/>
<path d="M256.133 71.07C256.748 70.715 257.048 70.1593 257.048 69.3874C257.048 68.1679 256.165 67.3189 254.634 67.3189H251.115V75.0373H254.95C256.543 75.0373 257.427 74.1265 257.427 72.8761C257.427 71.9808 257.001 71.3788 256.133 71.07ZM254.634 68.3068C255.518 68.3068 256.007 68.7236 256.007 69.4492C256.007 70.2519 255.549 70.6532 254.634 70.6532H252.157V68.3068H254.634ZM252.157 74.0493V71.6412H254.95C255.881 71.6412 256.386 72.0888 256.386 72.8144C256.386 73.6016 255.881 74.0493 254.95 74.0493H252.157Z" fill="#B3B3B3"/>
<path d="M268.536 70.6841H263.991V67.3189H262.95V75.0373H263.991V71.6721H268.536V75.0373H269.577V67.3189H268.536V70.6841Z" fill="#B3B3B3"/>
<path d="M275.424 67.1337C274.209 67.1337 273.231 67.5196 272.458 68.2914C271.685 69.0632 271.306 70.0203 271.306 71.1781C271.306 72.3513 271.7 73.3238 272.474 74.0802C273.247 74.8366 274.257 75.2225 275.503 75.2225C277.034 75.2225 278.28 74.5433 278.975 73.4473L278.059 72.9224C277.618 73.7097 276.718 74.2345 275.519 74.2345C273.831 74.2345 272.584 73.2466 272.379 71.6875H279.306C279.322 71.4868 279.337 71.317 279.337 71.209C279.337 70.1129 278.975 69.1559 278.249 68.3532C277.539 67.535 276.592 67.1337 275.424 67.1337ZM275.424 68.1216C276.134 68.1216 276.765 68.3532 277.302 68.8008C277.838 69.2485 278.154 69.8814 278.264 70.6995H272.379C272.584 69.1713 273.783 68.1216 275.424 68.1216Z" fill="#B3B3B3"/>
<path d="M285.223 67.1337C283.819 67.1337 282.761 67.7048 282.035 68.8317V67.3189H280.994V78.1246H282.035V73.5245C282.761 74.6513 283.819 75.2225 285.223 75.2225C286.343 75.2225 287.306 74.8366 288.095 74.0493C288.899 73.262 289.294 72.305 289.294 71.1781C289.294 70.0512 288.899 69.0941 288.095 68.3068C287.306 67.5196 286.343 67.1337 285.223 67.1337ZM282.935 73.3547C282.335 72.7526 282.035 72.0271 282.035 71.1781C282.035 70.3291 282.335 69.6035 282.935 69.0169C283.535 68.4149 284.276 68.1216 285.144 68.1216C286.012 68.1216 286.753 68.4149 287.353 69.0169C287.953 69.6035 288.252 70.3291 288.252 71.1781C288.252 72.0271 287.953 72.7526 287.353 73.3547C286.753 73.9413 286.012 74.2345 285.144 74.2345C284.276 74.2345 283.535 73.9413 282.935 73.3547Z" fill="#B3B3B3"/>
<path d="M293.842 73.7869L290.875 67.3189H289.771L293.305 75.0836L293.1 75.5621C292.611 76.7353 291.885 77.2756 290.938 77.1675V78.1246C292.327 78.2327 293.51 77.2756 294.126 75.7473L297.502 67.3189H296.398L293.842 73.7869Z" fill="#B3B3B3"/>
<path d="M304.911 67.3189H299.262V71.1318C299.262 72.3821 298.993 73.3547 298.457 74.0493H297.494V77.1058H298.536V75.0373H304.974V77.1058H306.015V74.0493H304.911V67.3189ZM299.719 74.0493C300.114 73.2929 300.303 72.3204 300.303 71.1318V68.3068H303.869V74.0493H299.719Z" fill="#B3B3B3"/>
<path d="M313.176 70.6841H308.632V67.3189H307.591V75.0373H308.632V71.6721H313.176V75.0373H314.218V67.3189H313.176V70.6841Z" fill="#B3B3B3"/>
<path d="M317.462 73.262V67.3189H316.42V75.0373H317.304L322.006 69.0941V75.0373H323.047V67.3189H322.164L317.462 73.262Z" fill="#B3B3B3"/>
<path d="M328.8 71.0391L331.672 67.3189H330.425L328.169 70.2364L325.912 67.3189H324.666L327.553 71.0391L324.461 75.0373H325.707L328.169 71.8573L330.63 75.0373H331.877L328.8 71.0391Z" fill="#B3B3B3"/>
<path d="M170.976 94.0896C172.097 94.0896 173.012 93.75 173.738 93.0708C174.479 92.3761 174.842 91.5117 174.842 90.4774C174.842 89.4277 174.495 88.5633 173.801 87.8995C173.122 87.2203 172.254 86.8807 171.197 86.8807C170.14 86.8807 168.925 87.3129 168.215 88.2391C168.515 87.174 169.114 86.5874 170.582 85.9699L171.323 85.6612L172.112 85.337C172.27 85.2598 172.491 85.1517 172.759 84.9974C173.327 84.6732 173.517 84.4571 173.769 84.0249C173.895 83.8088 173.974 83.5772 174.022 83.3302L173.201 82.8671C173.185 83.6235 172.46 84.102 171.813 84.3953C171.623 84.488 171.339 84.6115 170.945 84.7658C170.566 84.9202 170.266 85.0591 170.03 85.1672C168.815 85.7383 167.994 86.3867 167.6 87.0968C167.205 87.7914 167 88.8102 167 90.1224C167 91.2956 167.379 92.2526 168.136 92.9936C168.894 93.7191 169.84 94.0896 170.976 94.0896ZM170.976 93.0708C170.172 93.0708 169.477 92.8238 168.925 92.3144C168.373 91.805 168.105 91.1721 168.105 90.3848C168.105 89.6284 168.404 89.0109 169.02 88.5633C169.635 88.1002 170.314 87.8686 171.055 87.8686C171.892 87.8686 172.554 88.1156 173.043 88.6096C173.548 89.0881 173.801 89.721 173.801 90.4774C173.801 91.2338 173.533 91.8513 172.996 92.3453C172.475 92.8238 171.797 93.0708 170.976 93.0708Z" fill="#B3B3B3"/>
<path d="M179.242 92.654L176.276 86.186H175.171L178.706 93.9507L178.501 94.4292C178.012 95.6024 177.286 96.1427 176.339 96.0346V96.9917C177.727 97.0998 178.911 96.1427 179.526 94.6145L182.903 86.186H181.799L179.242 92.654Z" fill="#B3B3B3"/>
<path d="M190.311 86.186H184.662V89.9989C184.662 91.2493 184.394 92.2218 183.858 92.9164H182.895V95.9729H183.936V93.9044H190.374V95.9729H191.416V92.9164H190.311V86.186ZM185.12 92.9164C185.514 92.16 185.704 91.1875 185.704 89.9989V87.174H189.27V92.9164H185.12Z" fill="#B3B3B3"/>
<path d="M194.048 84.3336C194.348 84.0403 194.348 83.5772 194.048 83.2839C193.749 82.9906 193.275 82.9906 192.975 83.2839C192.676 83.5772 192.676 84.0403 192.975 84.3336C193.275 84.6269 193.749 84.6269 194.048 84.3336ZM194.033 93.9044V86.186H192.991V93.9044H194.033Z" fill="#B3B3B3"/>
<path d="M201.26 89.9371C201.876 89.5821 202.176 89.0264 202.176 88.2545C202.176 87.035 201.292 86.186 199.761 86.186H196.243V93.9044H200.077C201.671 93.9044 202.554 92.9936 202.554 91.7432C202.554 90.8479 202.128 90.2459 201.26 89.9371ZM199.761 87.174C200.645 87.174 201.134 87.5907 201.134 88.3163C201.134 89.119 200.677 89.5203 199.761 89.5203H197.284V87.174H199.761ZM197.284 92.9164V90.5083H200.077C201.008 90.5083 201.513 90.956 201.513 91.6815C201.513 92.4688 201.008 92.9164 200.077 92.9164H197.284Z" fill="#B3B3B3"/>
<path d="M207.777 86.0008C206.562 86.0008 205.584 86.3867 204.811 87.1585C204.038 87.9304 203.659 88.8874 203.659 90.0452C203.659 91.2184 204.053 92.1909 204.827 92.9473C205.6 93.7037 206.61 94.0896 207.856 94.0896C209.387 94.0896 210.633 93.4104 211.328 92.3144L210.412 91.7895C209.971 92.5768 209.071 93.1017 207.872 93.1017C206.184 93.1017 204.937 92.1137 204.732 90.5546H211.659C211.675 90.3539 211.69 90.1841 211.69 90.0761C211.69 88.9801 211.328 88.023 210.602 87.2203C209.892 86.4021 208.945 86.0008 207.777 86.0008ZM207.777 86.9887C208.487 86.9887 209.118 87.2203 209.655 87.6679C210.191 88.1156 210.507 88.7485 210.617 89.5667H204.732C204.937 88.0384 206.136 86.9887 207.777 86.9887Z" fill="#B3B3B3"/>
<path d="M213.859 86.186V90.6163C213.859 92.4842 213.291 93.0708 212.092 92.9473V93.9044C212.96 93.9661 213.654 93.75 214.143 93.2715C214.648 92.7929 214.901 91.8976 214.901 90.6163V87.174H218.467V93.9044H219.508V86.186H213.859Z" fill="#B3B3B3"/>
<path d="M222.756 89.119V86.186H221.714V93.9044H224.917C225.659 93.9044 226.274 93.6883 226.779 93.2406C227.3 92.7929 227.553 92.2063 227.553 91.5117C227.553 90.817 227.3 90.2459 226.779 89.7982C226.274 89.3505 225.659 89.119 224.917 89.119H222.756ZM222.756 92.9164V90.1069H224.917C225.801 90.1069 226.511 90.6627 226.511 91.5117C226.511 92.3607 225.801 92.9164 224.917 92.9164H222.756Z" fill="#B3B3B3"/>
<path d="M234.712 89.5512H230.168V86.186H229.126V93.9044H230.168V90.5392H234.712V93.9044H235.753V86.186H234.712V89.5512Z" fill="#B3B3B3"/>
<path d="M238.997 92.1291V86.186H237.956V93.9044H238.839L243.542 87.9612V93.9044H244.583V86.186H243.699L238.997 92.1291Z" fill="#B3B3B3"/>
<path d="M250.336 89.9063L253.207 86.186H251.961L249.704 89.1035L247.448 86.186H246.201L249.089 89.9063L245.996 93.9044H247.243L249.704 90.7244L252.166 93.9044H253.413L250.336 89.9063Z" fill="#B3B3B3"/>
<path d="M265.306 86.186L262.64 90.4157L259.973 86.186H258.774V93.9044H259.815V87.7451L262.577 92.1291H262.703L265.464 87.7451V93.9044H266.506V86.186H265.306Z" fill="#B3B3B3"/>
<path d="M275.498 87.6988C274.772 86.5719 273.715 86.0008 272.31 86.0008C271.19 86.0008 270.228 86.3867 269.423 87.174C268.634 87.9612 268.239 88.9183 268.239 90.0452C268.239 91.1721 268.634 92.1291 269.423 92.9164C270.228 93.7037 271.19 94.0896 272.31 94.0896C273.715 94.0896 274.772 93.5184 275.498 92.3916V93.9044H276.539V86.186H275.498V87.6988ZM270.18 92.2218C269.581 91.6197 269.281 90.8942 269.281 90.0452C269.281 89.1962 269.581 88.4706 270.18 87.884C270.78 87.282 271.521 86.9887 272.389 86.9887C273.257 86.9887 273.999 87.282 274.598 87.884C275.198 88.4706 275.498 89.1962 275.498 90.0452C275.498 90.8942 275.198 91.6197 274.598 92.2218C273.999 92.8084 273.257 93.1017 272.389 93.1017C271.521 93.1017 270.78 92.8084 270.18 92.2218Z" fill="#B3B3B3"/>
<path d="M277.798 86.186V87.174H280.59V93.9044H281.632V87.174H284.425V86.186H277.798Z" fill="#B3B3B3"/>
<path d="M289.031 86.0008C287.816 86.0008 286.837 86.3867 286.064 87.1585C285.291 87.9304 284.912 88.8874 284.912 90.0452C284.912 91.2184 285.307 92.1909 286.08 92.9473C286.853 93.7037 287.863 94.0896 289.11 94.0896C290.64 94.0896 291.887 93.4104 292.581 92.3144L291.666 91.7895C291.224 92.5768 290.325 93.1017 289.125 93.1017C287.437 93.1017 286.19 92.1137 285.985 90.5546H292.912C292.928 90.3539 292.944 90.1841 292.944 90.0761C292.944 88.9801 292.581 88.023 291.855 87.2203C291.145 86.4021 290.198 86.0008 289.031 86.0008ZM289.031 86.9887C289.741 86.9887 290.372 87.2203 290.908 87.6679C291.445 88.1156 291.761 88.7485 291.871 89.5667H285.985C286.19 88.0384 287.39 86.9887 289.031 86.9887Z" fill="#B3B3B3"/>
<path d="M298.829 86.0008C297.425 86.0008 296.368 86.5719 295.642 87.6988V86.186H294.601V96.9917H295.642V92.3916C296.368 93.5184 297.425 94.0896 298.829 94.0896C299.95 94.0896 300.912 93.7037 301.701 92.9164C302.506 92.1291 302.9 91.1721 302.9 90.0452C302.9 88.9183 302.506 87.9612 301.701 87.174C300.912 86.3867 299.95 86.0008 298.829 86.0008ZM296.541 92.2218C295.942 91.6197 295.642 90.8942 295.642 90.0452C295.642 89.1962 295.942 88.4706 296.541 87.884C297.141 87.282 297.883 86.9887 298.75 86.9887C299.618 86.9887 300.36 87.282 300.96 87.884C301.559 88.4706 301.859 89.1962 301.859 90.0452C301.859 90.8942 301.559 91.6197 300.96 92.2218C300.36 92.8084 299.618 93.1017 298.75 93.1017C297.883 93.1017 297.141 92.8084 296.541 92.2218Z" fill="#B3B3B3"/>
<path d="M305.689 84.3336C305.989 84.0403 305.989 83.5772 305.689 83.2839C305.389 82.9906 304.916 82.9906 304.616 83.2839C304.316 83.5772 304.316 84.0403 304.616 84.3336C304.916 84.6269 305.389 84.6269 305.689 84.3336ZM305.673 93.9044V86.186H304.632V93.9044H305.673Z" fill="#B3B3B3"/>
<path d="M314.668 87.6988C313.943 86.5719 312.885 86.0008 311.481 86.0008C310.361 86.0008 309.398 86.3867 308.593 87.174C307.804 87.9612 307.41 88.9183 307.41 90.0452C307.41 91.1721 307.804 92.1291 308.593 92.9164C309.398 93.7037 310.361 94.0896 311.481 94.0896C312.885 94.0896 313.943 93.5184 314.668 92.3916V93.9044H315.71V86.186H314.668V87.6988ZM309.351 92.2218C308.751 91.6197 308.451 90.8942 308.451 90.0452C308.451 89.1962 308.751 88.4706 309.351 87.884C309.95 87.282 310.692 86.9887 311.56 86.9887C312.428 86.9887 313.169 87.282 313.769 87.884C314.369 88.4706 314.668 89.1962 314.668 90.0452C314.668 90.8942 314.369 91.6197 313.769 92.2218C313.169 92.8084 312.428 93.1017 311.56 93.1017C310.692 93.1017 309.95 92.8084 309.351 92.2218Z" fill="#B3B3B3"/>
<path d="M318.735 86.186V90.6163C318.735 92.4842 318.167 93.0708 316.968 92.9473V93.9044C317.836 93.9661 318.53 93.75 319.019 93.2715C319.524 92.7929 319.777 91.8976 319.777 90.6163V87.174H323.343V93.9044H324.384V86.186H318.735Z" fill="#B3B3B3"/>
<path d="M327.648 84.3336C327.947 84.0403 327.947 83.5772 327.648 83.2839C327.348 82.9906 326.874 82.9906 326.575 83.2839C326.275 83.5772 326.275 84.0403 326.575 84.3336C326.874 84.6269 327.348 84.6269 327.648 84.3336ZM327.632 93.9044V86.186H326.59V93.9044H327.632Z" fill="#B3B3B3"/>
<path d="M334.859 89.9371C335.475 89.5821 335.775 89.0264 335.775 88.2545C335.775 87.035 334.891 86.186 333.36 86.186H329.842V93.9044H333.676C335.27 93.9044 336.153 92.9936 336.153 91.7432C336.153 90.8479 335.727 90.2459 334.859 89.9371ZM333.36 87.174C334.244 87.174 334.733 87.5907 334.733 88.3163C334.733 89.119 334.276 89.5203 333.36 89.5203H330.883V87.174H333.36ZM330.883 92.9164V90.5083H333.676C334.607 90.5083 335.112 90.956 335.112 91.6815C335.112 92.4688 334.607 92.9164 333.676 92.9164H330.883Z" fill="#B3B3B3"/>
<path d="M345.368 89.7365L342.181 83.0987H341.045L344.848 90.9405L344.627 91.4499C344.122 92.6077 343.396 93.0399 342.213 92.9164V93.9044C343.901 94.0124 344.99 93.2715 345.731 91.5425L349.408 83.0987H348.272L345.368 89.7365Z" fill="#B3B3B3"/>
<path d="M352.821 89.8908L356.892 86.186H355.472L351.717 89.5975V86.186H350.675V93.9044H351.717V90.1841L355.661 93.9044H357.05L352.821 89.8908Z" fill="#B3B3B3"/>
<path d="M362.701 86.0008C361.297 86.0008 360.24 86.5719 359.514 87.6988V86.186H358.472V96.9917H359.514V92.3916C360.24 93.5184 361.297 94.0896 362.701 94.0896C363.821 94.0896 364.784 93.7037 365.573 92.9164C366.378 92.1291 366.772 91.1721 366.772 90.0452C366.772 88.9183 366.378 87.9612 365.573 87.174C364.784 86.3867 363.821 86.0008 362.701 86.0008ZM360.413 92.2218C359.813 91.6197 359.514 90.8942 359.514 90.0452C359.514 89.1962 359.813 88.4706 360.413 87.884C361.013 87.282 361.754 86.9887 362.622 86.9887C363.49 86.9887 364.232 87.282 364.831 87.884C365.431 88.4706 365.731 89.1962 365.731 90.0452C365.731 90.8942 365.431 91.6197 364.831 92.2218C364.232 92.8084 363.49 93.1017 362.622 93.1017C361.754 93.1017 361.013 92.8084 360.413 92.2218Z" fill="#B3B3B3"/>
<path d="M375.289 87.6988C374.563 86.5719 373.506 86.0008 372.101 86.0008C370.981 86.0008 370.019 86.3867 369.214 87.174C368.425 87.9612 368.03 88.9183 368.03 90.0452C368.03 91.1721 368.425 92.1291 369.214 92.9164C370.019 93.7037 370.981 94.0896 372.101 94.0896C373.506 94.0896 374.563 93.5184 375.289 92.3916V93.9044H376.33V86.186H375.289V87.6988ZM369.971 92.2218C369.372 91.6197 369.072 90.8942 369.072 90.0452C369.072 89.1962 369.372 88.4706 369.971 87.884C370.571 87.282 371.312 86.9887 372.18 86.9887C373.048 86.9887 373.79 87.282 374.389 87.884C374.989 88.4706 375.289 89.1962 375.289 90.0452C375.289 90.8942 374.989 91.6197 374.389 92.2218C373.79 92.8084 373.048 93.1017 372.18 93.1017C371.312 93.1017 370.571 92.8084 369.971 92.2218Z" fill="#B3B3B3"/>
<path d="M378.062 84.8276C378.33 84.5651 378.33 84.102 378.062 83.8396C377.794 83.5772 377.32 83.5772 377.052 83.8396C376.784 84.102 376.784 84.5651 377.052 84.8276C377.32 85.09 377.794 85.09 378.062 84.8276ZM381.06 84.8276C381.328 84.5651 381.328 84.102 381.06 83.8396C380.792 83.5772 380.318 83.5772 380.05 83.8396C379.782 84.102 379.782 84.5651 380.05 84.8276C380.318 85.09 380.792 85.09 381.06 84.8276ZM379.577 93.9044V86.186H378.535V93.9044H379.577Z" fill="#B3B3B3"/>
<path d="M387.372 89.5512H382.828V86.186H381.787V93.9044H382.828V90.5392H387.372V93.9044H388.414V86.186H387.372V89.5512Z" fill="#B3B3B3"/>
<path d="M391.658 92.1291V86.186H390.616V93.9044H391.5L396.202 87.9612V93.9044H397.243V86.186H396.36L391.658 92.1291Z" fill="#B3B3B3"/>
<path d="M399.446 86.3558L401.181 89.1344L399.446 91.913H400.74L402.475 89.1344L400.74 86.3558H399.446ZM401.97 86.3558L403.706 89.1344L401.97 91.913H403.264L405 89.1344L403.264 86.3558H401.97Z" fill="#B3B3B3"/>
<path d="M47 55.6259H69.94H109L78 4L47 55.6259Z" fill="white"/>
<path d="M109 54.8777H86.06H47L78 108L109 54.8777Z" fill="white"/>
<path d="M78 4L109 55.6259H69.94M78 4L47 55.6259H69.94M78 4L69.94 55.6259M78 108L47 54.8777H86.06M78 108L109 54.8777H86.06M78 108L86.06 54.8777" stroke="#0048B1" stroke-width="3.5"/>
</svg>
