<svg width="320" height="615" viewBox="0 0 320 615" fill="none" xmlns="http://www.w3.org/2000/svg">
<path d="M0 98.9719L44.8077 69.6651C54.3688 63.4116 65.7832 60.6209 77.1512 61.7577L320 86.041V615.001H0V98.9719Z" fill="url(#paint0_linear)"/>
<path opacity="0.7" d="M-43.6479 507.492L1.38211 470.199V555.476H-43.6479V507.492Z" fill="url(#paint1_linear)"/>
<path opacity="0.7" d="M26.5989 481.412L56.0186 462.636V555.476H26.5989V481.412Z" fill="url(#paint2_linear)"/>
<path opacity="0.7" d="M92.0427 458.723L131.069 402.394V531.483H92.0427V458.723Z" fill="url(#paint3_linear)"/>
<path opacity="0.7" d="M191.709 392.223L224.731 415.693V531.483H191.709V392.223Z" fill="url(#paint4_linear)"/>
<path opacity="0.7" d="M290.776 371.36L323.798 364.058V531.483H290.776V371.36Z" fill="url(#paint5_linear)"/>
<path opacity="0.7" d="M26.5989 480.63L1.3821 468.634V515.575H26.5989V480.63Z" fill="url(#paint6_linear)"/>
<path opacity="0.7" d="M92.3427 457.42L56.0185 463.157V510.099H92.3427V457.42Z" fill="url(#paint7_linear)"/>
<path opacity="0.7" d="M191.709 393.267L131.069 403.437V510.099H191.709L191.709 393.267Z" fill="url(#paint8_linear)"/>
<path d="M290.776 370.838L224.131 415.954V510.098H290.776V370.838Z" fill="url(#paint9_linear)"/>
<path d="M-43.6479 507.49L2.51825 469.173L27.0146 480.853L55.9863 463.026L92.9663 457.494L129.946 403.604L192.836 392.744L224.163 415.898L289.408 371.434L323.797 364.058" stroke="url(#paint10_linear)"/>
<g filter="url(#filter0_f)">
<ellipse cx="2.58281" cy="469.417" rx="4.20281" ry="3.65101" fill="white" fill-opacity="0.56"/>
</g>
<path d="M4.48442 469.416C4.48442 470.229 3.70144 471.003 2.58282 471.003C1.4642 471.003 0.681213 470.229 0.681213 469.416C0.681213 468.604 1.4642 467.83 2.58282 467.83C3.70144 467.83 4.48442 468.604 4.48442 469.416Z" stroke="white"/>
<ellipse cx="2.58288" cy="469.416" rx="1.8012" ry="1.56472" fill="url(#paint11_linear)"/>
<g filter="url(#filter1_f)">
<ellipse cx="26.5989" cy="480.89" rx="4.20281" ry="3.65101" fill="white" fill-opacity="0.56"/>
</g>
<path d="M28.5005 480.891C28.5005 481.703 27.7175 482.477 26.5989 482.477C25.4803 482.477 24.6973 481.703 24.6973 480.891C24.6973 480.079 25.4803 479.305 26.5989 479.305C27.7175 479.305 28.5005 480.079 28.5005 480.891Z" stroke="white"/>
<ellipse cx="26.599" cy="480.89" rx="1.8012" ry="1.56472" fill="url(#paint12_linear)"/>
<g filter="url(#filter2_f)">
<ellipse cx="56.0185" cy="463.157" rx="4.20281" ry="3.65101" fill="white" fill-opacity="0.56"/>
</g>
<path d="M57.9201 463.158C57.9201 463.97 57.1371 464.744 56.0185 464.744C54.8999 464.744 54.1169 463.97 54.1169 463.158C54.1169 462.345 54.8999 461.571 56.0185 461.571C57.1371 461.571 57.9201 462.345 57.9201 463.158Z" stroke="white"/>
<ellipse cx="56.0186" cy="463.158" rx="1.8012" ry="1.56472" fill="url(#paint13_linear)"/>
<g filter="url(#filter3_f)">
<ellipse cx="92.6429" cy="457.42" rx="4.20281" ry="3.65101" fill="white" fill-opacity="0.56"/>
</g>
<path d="M94.5448 457.419C94.5448 458.232 93.7619 459.006 92.6432 459.006C91.5246 459.006 90.7416 458.232 90.7416 457.419C90.7416 456.607 91.5246 455.833 92.6432 455.833C93.7619 455.833 94.5448 456.607 94.5448 457.419Z" stroke="white"/>
<ellipse cx="92.6431" cy="457.42" rx="1.8012" ry="1.56472" fill="url(#paint14_linear)"/>
<g filter="url(#filter4_f)">
<ellipse cx="129.868" cy="403.698" rx="4.20281" ry="3.65101" fill="white" fill-opacity="0.56"/>
</g>
<path d="M131.769 403.698C131.769 404.51 130.986 405.284 129.868 405.284C128.749 405.284 127.966 404.51 127.966 403.698C127.966 402.885 128.749 402.111 129.868 402.111C130.986 402.111 131.769 402.885 131.769 403.698Z" stroke="white"/>
<ellipse cx="129.868" cy="403.698" rx="1.8012" ry="1.56472" fill="url(#paint15_linear)"/>
<g filter="url(#filter5_f)">
<ellipse cx="192.31" cy="393.266" rx="4.20281" ry="3.65101" fill="white" fill-opacity="0.56"/>
</g>
<path d="M194.211 393.266C194.211 394.078 193.428 394.852 192.31 394.852C191.191 394.852 190.408 394.078 190.408 393.266C190.408 392.454 191.191 391.68 192.31 391.68C193.428 391.68 194.211 392.454 194.211 393.266Z" stroke="white"/>
<ellipse cx="192.31" cy="393.265" rx="1.8012" ry="1.56472" fill="url(#paint16_linear)"/>
<g filter="url(#filter6_f)">
<ellipse cx="224.131" cy="415.694" rx="4.20281" ry="3.65101" fill="white" fill-opacity="0.56"/>
</g>
<path d="M226.032 415.695C226.032 416.507 225.25 417.281 224.131 417.281C223.012 417.281 222.229 416.507 222.229 415.695C222.229 414.882 223.012 414.108 224.131 414.108C225.25 414.108 226.032 414.882 226.032 415.695Z" stroke="white"/>
<ellipse cx="224.131" cy="415.694" rx="1.8012" ry="1.56472" fill="url(#paint17_linear)"/>
<g filter="url(#filter7_f)">
<ellipse cx="290.175" cy="371.36" rx="4.20281" ry="3.65101" fill="white" fill-opacity="0.56"/>
</g>
<path d="M292.076 371.361C292.076 372.173 291.293 372.947 290.175 372.947C289.056 372.947 288.273 372.173 288.273 371.361C288.273 370.548 289.056 369.774 290.175 369.774C291.293 369.774 292.076 370.548 292.076 371.361Z" stroke="white"/>
<ellipse cx="290.175" cy="371.36" rx="1.8012" ry="1.56472" fill="url(#paint18_linear)"/>
<g filter="url(#filter8_f)">
<ellipse cx="323.797" cy="364.058" rx="4.20281" ry="3.65101" fill="white" fill-opacity="0.56"/>
</g>
<g clip-path="url(#clip0)">
<path fill-rule="evenodd" clip-rule="evenodd" d="M20.8205 80.0049L63.5247 55.3496L88.9505 99.3883L20.8205 80.0049Z" fill="#00A2A7"/>
<path fill-rule="evenodd" clip-rule="evenodd" d="M88.9447 99.3912L63.5248 55.3492L106.229 30.6939L88.9447 99.3912Z" fill="#007A7D"/>
<path fill-rule="evenodd" clip-rule="evenodd" d="M88.9658 99.3788L28.8276 75.3818L63.5248 55.3494L73.9942 73.483L88.9658 99.3788Z" fill="#107275" fill-opacity="0.35"/>
<path fill-rule="evenodd" clip-rule="evenodd" d="M84.4638 91.6172L44.8418 66.1367L63.5249 55.35L84.4638 91.6172Z" fill="#0B7577" fill-opacity="0.3"/>
<path fill-rule="evenodd" clip-rule="evenodd" d="M88.9506 99.3879L98.2377 35.3083L63.5406 55.3407L74.01 73.4742L88.9506 99.3879Z" fill="#086062" fill-opacity="0.35"/>
<path opacity="0.4" fill-rule="evenodd" clip-rule="evenodd" d="M74.01 73.4744L106.229 30.6946L63.5405 55.3408L74.01 73.4744Z" fill="url(#paint19_linear)"/>
<path fill-rule="evenodd" clip-rule="evenodd" d="M84.4794 91.608L82.2236 44.5541L63.5405 55.3408L84.4794 91.608Z" fill="#086062" fill-opacity="0.3"/>
<path opacity="0.5" fill-rule="evenodd" clip-rule="evenodd" d="M73.9942 73.4832L20.8205 80.0049L63.5247 55.3496L73.9942 73.4832Z" fill="#49D9DD"/>
<path fill-rule="evenodd" clip-rule="evenodd" d="M63.5247 55.3496L20.8205 80.0049L26.6119 49.9711L63.5247 55.3496Z" fill="#3ADADE"/>
<path fill-rule="evenodd" clip-rule="evenodd" d="M63.5248 55.3496L106.229 30.6943L77.3232 20.693L63.5248 55.3496Z" fill="#35B7BB"/>
<path fill-rule="evenodd" clip-rule="evenodd" d="M65.8362 59.3531L56.5905 43.3391L59.9747 30.7092L77.3232 20.693L67.1707 58.5827L65.8362 59.3531Z" fill="url(#paint20_linear)"/>
<path fill-rule="evenodd" clip-rule="evenodd" d="M64.5017 60.1232L26.612 49.9707L43.9606 39.9545L56.5905 43.3387L65.8362 59.3527L64.5017 60.1232Z" fill="url(#paint21_linear)"/>
<path fill-rule="evenodd" clip-rule="evenodd" d="M30.7261 72.5073L26.612 49.9718L46.7402 63.2616L30.7261 72.5073Z" fill="#107275" fill-opacity="0.172549"/>
<path fill-rule="evenodd" clip-rule="evenodd" d="M26.612 49.9707L38.7332 67.8833L42.7367 65.5719L26.612 49.9707Z" fill="#107275" fill-opacity="0.12549"/>
<path fill-rule="evenodd" clip-rule="evenodd" d="M20.8205 80.0049L26.6119 49.9711L39.2418 53.3553L20.8205 80.0049Z" fill="#8BFCFF" fill-opacity="0.152941"/>
<path fill-rule="evenodd" clip-rule="evenodd" d="M94.7824 35.5242L77.3232 20.6936L78.7683 44.77L94.7824 35.5242Z" fill="#107275" fill-opacity="0.172549"/>
<path fill-rule="evenodd" clip-rule="evenodd" d="M77.3232 20.6935L86.7754 40.147L82.7718 42.4585L77.3232 20.6935Z" fill="#107275" fill-opacity="0.12549"/>
<path fill-rule="evenodd" clip-rule="evenodd" d="M106.229 30.6949L77.3232 20.6935L73.939 33.3234L106.229 30.6949Z" fill="#8BFCFF" fill-opacity="0.152941"/>
<path fill-rule="evenodd" clip-rule="evenodd" d="M45.5569 55.0475L56.5905 43.3392L66.6067 60.6877L45.5569 55.0475Z" fill="#1BC1C5" fill-opacity="0.254902"/>
<path fill-rule="evenodd" clip-rule="evenodd" d="M26.612 49.9707L56.5905 43.3387L43.9606 39.9545L26.612 49.9707Z" fill="#1BC1C5" fill-opacity="0.254902"/>
<path fill-rule="evenodd" clip-rule="evenodd" d="M66.6067 60.688L38.6225 43.0371L43.9606 39.9552L66.6067 60.688Z" fill="white" fill-opacity="0.254902"/>
<path fill-rule="evenodd" clip-rule="evenodd" d="M72.2469 39.6376L56.5904 43.3389L66.6066 60.6874L72.2469 39.6376Z" fill="#1BC1C5" fill-opacity="0.254902"/>
<path fill-rule="evenodd" clip-rule="evenodd" d="M77.3232 20.693L56.5905 43.3391L59.9747 30.7092L77.3232 20.693Z" fill="#1BC1C5" fill-opacity="0.254902"/>
<path fill-rule="evenodd" clip-rule="evenodd" d="M66.6067 60.6876L65.3127 27.6273L59.9747 30.7092L66.6067 60.6876Z" fill="white" fill-opacity="0.254902"/>
<path fill-rule="evenodd" clip-rule="evenodd" d="M71.6829 41.7429L82.2078 44.563L74.3114 74.0328L44.8417 66.1364L47.6618 55.6115L66.6066 60.6877L71.6829 41.7429Z" fill="url(#paint22_linear)" stroke="white" stroke-width="4"/>
<path fill-rule="evenodd" clip-rule="evenodd" d="M22.7191 77.1299L45.4056 64.0318L46.9466 66.7008L24.26 79.799L20.8205 80.0054L22.7191 77.1299Z" fill="url(#paint23_linear)"/>
<path fill-rule="evenodd" clip-rule="evenodd" d="M102.789 30.9009L80.1029 43.999L81.6438 46.668L104.33 33.5699L106.229 30.6945L102.789 30.9009Z" fill="url(#paint24_linear)"/>
<path fill-rule="evenodd" clip-rule="evenodd" d="M86.4593 98.1554L72.2064 73.4688L74.8755 71.9278L89.1283 96.6145L88.9505 99.3884L86.4593 98.1554Z" fill="url(#paint25_linear)"/>
<path fill-rule="evenodd" clip-rule="evenodd" d="M58.6954 43.9039L67.1706 58.5834L64.5016 60.1244L56.0264 45.4449L56.5904 43.3399L58.6954 43.9039Z" fill="url(#paint26_linear)"/>
<path fill-rule="evenodd" clip-rule="evenodd" d="M29.1158 49.0462L48.0607 54.1225L47.2631 57.0992L28.3183 52.023L26.612 49.9707L29.1158 49.0462Z" fill="url(#paint27_linear)"/>
<path fill-rule="evenodd" clip-rule="evenodd" d="M75.2707 22.3999L70.1944 41.3448L73.1712 42.1424L78.2475 23.1976L77.3232 20.6938L75.2707 22.3999Z" fill="url(#paint28_linear)"/>
</g>
<g clip-path="url(#clip1)">
<path fill-rule="evenodd" clip-rule="evenodd" d="M52.2281 415.225L37.0862 399.71L53.0856 384.095L52.2281 415.225Z" fill="#00A2A7"/>
<path fill-rule="evenodd" clip-rule="evenodd" d="M53.0877 384.098L37.0861 399.711L21.9443 384.196L53.0877 384.098Z" fill="#007A7D"/>
<path fill-rule="evenodd" clip-rule="evenodd" d="M53.08 384.09L49.3889 412.316L37.0862 399.711L43.6742 393.281L53.08 384.09Z" fill="#107275" fill-opacity="0.35"/>
<path fill-rule="evenodd" clip-rule="evenodd" d="M50.2623 386.851L43.7108 406.498L37.0863 399.71L50.2623 386.851Z" fill="#0B7577" fill-opacity="0.3"/>
<path fill-rule="evenodd" clip-rule="evenodd" d="M53.0853 384.095L24.7777 387.099L37.0805 399.704L43.6685 393.275L53.0853 384.095Z" fill="#086062" fill-opacity="0.35"/>
<path opacity="0.4" fill-rule="evenodd" clip-rule="evenodd" d="M43.6687 393.274L21.9443 384.195L37.0806 399.704L43.6687 393.274Z" fill="url(#paint29_linear)"/>
<path fill-rule="evenodd" clip-rule="evenodd" d="M50.2567 386.844L30.4561 392.916L37.0806 399.704L50.2567 386.844Z" fill="#086062" fill-opacity="0.3"/>
<path opacity="0.5" fill-rule="evenodd" clip-rule="evenodd" d="M43.6742 393.28L52.2281 415.225L37.0862 399.71L43.6742 393.28Z" fill="#49D9DD"/>
<path fill-rule="evenodd" clip-rule="evenodd" d="M37.0862 399.711L52.2281 415.225L38.8042 416.02L37.0862 399.711Z" fill="#3ADADE"/>
<path fill-rule="evenodd" clip-rule="evenodd" d="M37.0862 399.71L21.9443 384.195L20.8232 397.596L37.0862 399.71Z" fill="#35B7BB"/>
<path fill-rule="evenodd" clip-rule="evenodd" d="M38.5407 398.29L32.7227 403.968L26.9746 403.899L20.8233 397.596L38.0675 397.805L38.5407 398.29Z" fill="url(#paint30_linear)"/>
<path fill-rule="evenodd" clip-rule="evenodd" d="M39.0139 398.775L38.8042 416.02L32.6528 409.717L32.7227 403.968L38.5407 398.29L39.0139 398.775Z" fill="url(#paint31_linear)"/>
<path fill-rule="evenodd" clip-rule="evenodd" d="M47.9578 411.82L38.8043 416.02L42.2796 406.002L47.9578 411.82Z" fill="#107275" fill-opacity="0.172549"/>
<path fill-rule="evenodd" clip-rule="evenodd" d="M38.8042 416.02L45.1186 408.91L43.6991 407.456L38.8042 416.02Z" fill="#107275" fill-opacity="0.12549"/>
<path fill-rule="evenodd" clip-rule="evenodd" d="M52.2281 415.225L38.8042 416.02L38.8741 410.272L52.2281 415.225Z" fill="#8BFCFF" fill-opacity="0.152941"/>
<path fill-rule="evenodd" clip-rule="evenodd" d="M25.245 388.548L20.8232 397.596L30.9232 394.366L25.245 388.548Z" fill="#107275" fill-opacity="0.172549"/>
<path fill-rule="evenodd" clip-rule="evenodd" d="M20.8232 397.596L28.084 391.456L29.5036 392.911L20.8232 397.596Z" fill="#107275" fill-opacity="0.12549"/>
<path fill-rule="evenodd" clip-rule="evenodd" d="M21.9443 384.195L20.8232 397.596L26.5713 397.666L21.9443 384.195Z" fill="#8BFCFF" fill-opacity="0.152941"/>
<path fill-rule="evenodd" clip-rule="evenodd" d="M38.909 407.398L32.7227 403.969L39.0255 397.818L38.909 407.398Z" fill="#1BC1C5" fill-opacity="0.254902"/>
<path fill-rule="evenodd" clip-rule="evenodd" d="M38.8042 416.02L32.7227 403.968L32.6528 409.717L38.8042 416.02Z" fill="#1BC1C5" fill-opacity="0.254902"/>
<path fill-rule="evenodd" clip-rule="evenodd" d="M39.0255 397.817L34.5455 411.656L32.6528 409.717L39.0255 397.817Z" fill="white" fill-opacity="0.254902"/>
<path fill-rule="evenodd" clip-rule="evenodd" d="M29.4454 397.701L32.7227 403.969L39.0256 397.817L29.4454 397.701Z" fill="#1BC1C5" fill-opacity="0.254902"/>
<path fill-rule="evenodd" clip-rule="evenodd" d="M20.8233 397.596L32.7227 403.968L26.9746 403.899L20.8233 397.596Z" fill="#1BC1C5" fill-opacity="0.254902"/>
<path fill-rule="evenodd" clip-rule="evenodd" d="M39.0255 397.817L25.0819 401.959L26.9746 403.899L39.0255 397.817Z" fill="white" fill-opacity="0.254902"/>
<path fill-rule="evenodd" clip-rule="evenodd" d="M30.4034 397.713L30.4617 392.923L43.8739 393.086L43.7108 406.498L38.9207 406.44L39.0256 397.818L30.4034 397.713Z" fill="url(#paint32_linear)" stroke="white" stroke-width="2"/>
<path fill-rule="evenodd" clip-rule="evenodd" d="M50.7968 414.729L42.7527 406.486L43.7224 405.54L51.7665 413.782L52.228 415.225L50.7968 414.729Z" fill="url(#paint33_linear)"/>
<path fill-rule="evenodd" clip-rule="evenodd" d="M22.4059 385.639L30.45 393.881L31.4197 392.934L23.3756 384.692L21.9444 384.196L22.4059 385.639Z" fill="url(#paint34_linear)"/>
<path fill-rule="evenodd" clip-rule="evenodd" d="M52.8309 385.291L43.8621 394.044L42.9158 393.074L51.8846 384.321L53.0856 384.095L52.8309 385.291Z" fill="url(#paint35_linear)"/>
<path fill-rule="evenodd" clip-rule="evenodd" d="M32.7344 403.01L38.0675 397.805L39.0139 398.775L33.6807 403.98L32.7227 403.968L32.7344 403.01Z" fill="url(#paint36_linear)"/>
<path fill-rule="evenodd" clip-rule="evenodd" d="M38.1384 415.053L38.2432 406.431L39.598 406.447L39.4932 415.07L38.8042 416.02L38.1384 415.053Z" fill="url(#paint37_linear)"/>
<path fill-rule="evenodd" clip-rule="evenodd" d="M21.773 398.285L30.3952 398.39L30.4116 397.035L21.7895 396.93L20.8232 397.596L21.773 398.285Z" fill="url(#paint38_linear)"/>
</g>
<path d="M203.124 50.4768L202.202 50.8613L203.124 50.4768Z" fill="#F6A72E"/>
<path d="M207.107 66.3876L208.091 65.9948L207.037 65.9432C207.071 66.0951 207.082 66.2424 207.107 66.3876Z" fill="#F6A72E"/>
<path d="M198.623 42.663L197.627 43.0717L197.9 43.4505L198.623 42.663Z" fill="#F6A72E"/>
<path d="M207.637 74.9077L208.805 74.4213L207.685 73.9555L207.637 74.9077Z" fill="#F6A72E"/>
<path d="M192.779 37.2553L193.258 36.1234L192.09 36.6093C192.287 36.8731 192.529 37.0608 192.779 37.2553Z" fill="#F6A72E"/>
<path d="M198.245 51.1265C199.029 52.5609 199.732 54.0392 200.349 55.5543C199.7 53.9462 198.963 52.3757 198.14 50.8501L198.245 51.1265Z" fill="#FFD527"/>
<path d="M197.493 49.7964C197.701 50.1535 197.909 50.5105 198.067 50.8427C197.357 49.5352 196.58 48.2652 195.74 47.0376C196.382 47.9419 196.955 48.8474 197.493 49.7964Z" fill="#FFD527"/>
<path d="M192.3 42.6948C191.404 41.7469 190.45 40.8557 189.444 40.0261C190.365 40.7847 191.241 41.5968 192.067 42.458C192.14 42.5428 192.227 42.6101 192.3 42.6948Z" fill="#FFD527"/>
<path d="M206.525 82.2328L206.735 82.4796L207.921 82.0061L206.815 81.1472L206.525 82.2328Z" fill="#F6A72E"/>
<path d="M187.161 32.7699L187.35 31.369L186.182 31.8559L186.194 32.2141C186.52 32.3833 186.813 32.6114 187.161 32.7699Z" fill="#F6A72E"/>
<path d="M204.009 87.824L204.473 88.6171L205.524 88.192L204.52 87.0069L204.009 87.824Z" fill="#F6A72E"/>
<path d="M181.447 30.2143L181.35 28.6466L180.292 29.0803L180.506 29.9993C180.827 30.0674 181.133 30.1375 181.447 30.2143Z" fill="#F6A72E"/>
<path d="M200.942 91.1211C200.706 91.3001 200.477 91.4705 200.237 91.6187L200.751 92.9527L201.773 92.5473L200.916 91.1009L200.942 91.1211Z" fill="#F6A72E"/>
<path d="M202.562 89.642C202.06 90.1913 201.51 90.6951 200.92 91.1475C201.51 90.6951 202.06 90.1913 202.562 89.642Z" fill="#F6A72E"/>
<path d="M175.183 29.9559C175.465 29.8961 175.74 29.8449 176.033 29.8072L175.857 29.071L175.654 28.1741L174.632 28.5797L175.183 29.9559Z" fill="#F6A72E"/>
<path d="M176.994 35.9361C176.774 35.9893 176.558 36.0586 176.347 36.1436C176.531 36.0498 176.764 35.9107 176.994 35.9361Z" fill="#FFD527"/>
<path d="M180.095 35.7225C179.843 35.7078 179.595 35.7238 179.351 35.7158C179.622 35.6891 179.863 35.6818 180.095 35.7225Z" fill="#FFD527"/>
<path d="M181.757 35.9451C181.501 35.8994 181.256 35.8759 181.008 35.8369C181.23 35.8557 181.508 35.8908 181.757 35.9451Z" fill="#FFD527"/>
<path d="M173.504 37.5463C173.31 37.6881 173.115 37.8146 172.939 37.9697C173.12 37.8191 173.308 37.6778 173.504 37.5463Z" fill="#FFE67D"/>
<path d="M176.319 36.1072C176.063 36.1867 175.806 36.2508 175.552 36.3457C175.799 36.2595 176.057 36.1954 176.319 36.1072Z" fill="#FFE67D"/>
<path d="M174.825 36.7244C174.608 36.814 174.399 36.9216 174.2 37.0459C174.399 36.9223 174.608 36.8148 174.825 36.7244Z" fill="#FFE67D"/>
<path d="M197.492 49.796C196.94 48.8641 196.381 47.941 195.781 47.0701C195.658 46.8901 195.541 46.7014 195.41 46.5302C196.155 47.5704 196.838 48.6735 197.492 49.796Z" fill="#FFE67D"/>
<path d="M198.245 51.1252C199.03 52.5597 199.732 54.0381 200.349 55.5534C199.732 54.0381 199.03 52.5597 198.245 51.1252Z" fill="#FFE67D"/>
<path d="M192.067 42.4569C191.241 41.5958 190.365 40.7839 189.443 40.0253C189.236 39.8637 189.019 39.6954 188.812 39.5338C189.967 40.4267 191.055 41.4037 192.067 42.4569Z" fill="#FFE67D"/>
<path d="M179.387 35.6861C179.097 35.684 178.812 35.6578 178.533 35.6777C178.797 35.6597 179.097 35.684 179.387 35.6861Z" fill="#FFE67D"/>
<path d="M181.017 35.8432C180.722 35.7949 180.418 35.7399 180.124 35.707C180.409 35.7332 180.722 35.7949 181.017 35.8432Z" fill="#FFE67D"/>
<path d="M169.718 30.6118L170.365 31.6852L171.208 31.35L170.64 29.9616L163.668 32.7981L163.76 33.0364L169.718 30.6118Z" fill="#F6A72E"/>
<path d="M175.545 36.3521C175.292 36.4623 175.06 36.6012 174.818 36.7334C175.053 36.5932 175.296 36.4659 175.545 36.3521Z" fill="#FFD527"/>
<path d="M174.193 37.0514C173.96 37.1903 173.74 37.3666 173.511 37.5361C173.74 37.3666 173.96 37.1903 174.193 37.0514Z" fill="#FFD527"/>
<path d="M190.093 93.5685L190.988 93.2027C190.672 93.1446 190.36 93.0701 190.053 92.9794L190.093 93.5685Z" fill="#EA8500"/>
<path d="M195.482 93.3784L195.527 93.5525L196.323 93.2233C196.05 93.2898 195.766 93.3341 195.482 93.3784C194.757 93.4691 194.026 93.5029 193.296 93.4795C194.026 93.5029 194.757 93.4691 195.482 93.3784Z" fill="#EA8500"/>
<path d="M171.209 31.3647L170.367 31.6997L170.583 32.0625C170.806 31.8856 171.039 31.7226 171.282 31.5741C171.697 31.3118 172.131 31.0809 172.581 30.8834C172.131 31.0809 171.697 31.3118 171.282 31.5741L171.209 31.3647Z" fill="#EA8500"/>
<path d="M167.049 36.2058C167.208 35.9303 167.378 35.6586 167.559 35.3907L166.657 35.7483L167.049 36.2058Z" fill="#EA8500"/>
<path d="M164.716 42.026C164.805 41.6628 164.894 41.2996 165 40.9498L163.904 41.3955L164.716 42.026Z" fill="#EA8500"/>
<path d="M164.167 44.88C164.032 45.8895 163.963 46.9219 163.891 47.9389C163.937 46.9018 164.032 45.8895 164.167 44.88C164.302 43.8704 164.499 42.9232 164.726 42.0268C164.499 42.9232 164.319 43.8839 164.167 44.88Z" fill="#F6A72E"/>
<path d="M185.316 90.9851C185.031 90.7637 184.676 90.6138 184.364 90.4272L184.229 91.4374L185.316 90.9851Z" fill="#EA8500"/>
<path d="M162.736 48.735L163.874 49.214C163.849 50.2963 163.874 51.4035 163.939 52.5135C163.874 51.4035 163.849 50.2963 163.874 49.214C163.885 48.7903 163.887 48.3598 163.922 47.9408L156.924 50.7746L156.896 51.0597L162.736 48.735Z" fill="#EA8500"/>
<path d="M163.425 57.183L164.47 57.2281C164.407 56.7752 164.336 56.3156 164.279 55.854L157.309 58.6898C157.355 59.0042 157.393 59.3119 157.446 59.6176L163.425 57.183Z" fill="#EA8500"/>
<path d="M166.591 65.5238C166.434 65.0674 166.292 64.609 166.15 64.1506L159.16 67.0126C159.302 67.471 159.443 67.9294 159.601 68.3858L166.591 65.5238Z" fill="#EA8500"/>
<path d="M196.327 93.22L195.531 93.5491L195.865 95.0057L189.909 97.4288L190.006 97.6429L196.974 94.8082L196.327 93.22Z" fill="#F6A72E"/>
<path d="M191.383 94.8074L191.004 93.1767L190.111 93.5417L190.161 94.5274L184.258 96.9361L184.414 97.6425L191.383 94.8074Z" fill="#F6A72E"/>
<path d="M191.388 94.8167L184.416 97.6543L188.902 97.8342L189.906 97.4154L195.865 94.9899L191.388 94.8167Z" fill="#F6A72E"/>
<path d="M195.45 46.4715C194.505 45.1303 193.466 43.8575 192.342 42.6626C192.256 42.5955 192.17 42.5284 192.083 42.4613C191.076 41.3975 189.991 40.4102 188.837 39.5075C186.768 37.8316 184.358 36.6262 181.773 35.9742C181.524 35.9203 181.28 35.9126 181.033 35.8741C180.786 35.8355 180.425 35.7647 180.132 35.7321C179.838 35.6995 179.638 35.7254 179.403 35.7244C179.168 35.7233 178.813 35.6987 178.534 35.7191C178.017 35.7462 177.502 35.8126 176.994 35.9178C176.765 35.963 176.565 36.0592 176.353 36.1178C176.141 36.1765 175.832 36.2711 175.578 36.3665C175.331 36.4784 175.09 36.6035 174.856 36.7412C174.637 36.8346 174.426 36.9457 174.224 37.0732C173.991 37.2129 173.77 37.3901 173.54 37.5605C173.344 37.6925 173.155 37.8344 172.974 37.9857C172.141 38.7178 171.417 39.5649 170.823 40.501C169.794 42.1516 169.054 43.9647 168.636 45.8615C168.47 46.5559 168.332 47.2857 168.228 48.0425C167.72 52.1183 167.929 56.2466 168.844 60.2402C169.031 61.069 169.222 61.9287 169.468 62.7341C170.188 65.2375 171.115 67.6751 172.24 70.0214C172.61 70.8109 172.994 71.5831 173.413 72.3272C174.221 73.8242 175.118 75.271 176.099 76.6599C177.928 79.3149 180.138 81.6845 182.658 83.6934C187.479 87.4378 192.219 88.3287 195.956 86.7668C199.693 85.2049 202.435 81.1814 203.304 75.0755C204.172 68.9696 202.986 61.9237 200.379 55.4759C199.762 53.9622 199.06 52.4852 198.276 51.0522L198.152 50.8022C197.951 50.4369 197.743 50.0803 197.579 49.7572C196.876 48.6115 196.194 47.51 195.45 46.4715Z" fill="#FFD527"/>
<path d="M189.23 37.0778C178.46 28.8111 168.235 33.0489 166.347 46.5947C164.459 60.1405 171.559 77.8634 182.305 86.1253C193.05 94.3873 203.257 90.1207 205.167 76.5642C207.077 63.0076 199.944 45.3437 189.23 37.0778ZM198.145 50.8106C198.967 52.3348 199.704 53.9037 200.352 55.5104C202.959 61.9582 204.137 68.9974 203.277 75.11C202.416 81.2226 199.692 85.2595 195.929 86.8013C192.166 88.3431 187.479 87.4375 182.658 83.6932C180.135 81.6906 177.92 79.3268 176.086 76.677C175.104 75.2881 174.207 73.8413 173.399 72.3443C172.987 71.5915 172.603 70.8194 172.227 70.0385C171.118 67.6809 170.207 65.2333 169.506 62.7211C169.279 61.8896 169.069 61.0561 168.882 60.2273C167.966 56.2336 167.758 52.1053 168.266 48.0295C168.369 47.2728 168.507 46.5429 168.673 45.8486C169.092 43.9518 169.832 42.1386 170.861 40.488C171.455 39.5519 172.179 38.7048 173.011 37.9727C173.154 37.7901 173.384 37.6899 173.578 37.5475C173.772 37.4051 174.028 37.1999 174.262 37.0602C174.461 36.9353 174.67 36.8271 174.887 36.737C175.129 36.604 175.363 36.4644 175.615 36.3535C175.868 36.2427 176.128 36.1935 176.384 36.1135C176.594 36.0282 176.811 35.9584 177.031 35.9048C177.539 35.7996 178.054 35.7332 178.572 35.7061C178.851 35.6857 179.136 35.7116 179.425 35.7133C179.715 35.7151 179.917 35.7047 180.169 35.7191C180.421 35.7335 180.767 35.8064 181.062 35.8544C181.357 35.9023 181.555 35.916 181.81 35.9613C184.396 36.6133 186.806 37.8186 188.875 39.4945C189.082 39.6556 189.298 39.8233 189.505 39.9844C190.51 40.8112 191.462 41.6998 192.356 42.6449C193.48 43.8398 194.518 45.1126 195.464 46.4538C195.628 46.5813 195.711 46.8131 195.834 46.9928C196.669 48.2248 197.44 49.499 198.145 50.8106Z" fill="#FFE67D"/>
<path d="M174.542 28.3481L167.58 31.1747L163.668 32.8037L170.637 29.9684L174.542 28.3481Z" fill="#F6A72E"/>
<path d="M166.653 33.9185L169.717 30.6042L163.764 33.0262L162.752 33.4376L159.688 36.752L166.653 33.9185Z" fill="#F6A72E"/>
<path d="M165.985 34.9779L166.612 35.7021L167.515 35.3436L166.66 33.9138L159.688 36.7506L160.063 37.3901L165.985 34.9779Z" fill="#F6A72E"/>
<path d="M190.16 94.5116L185.415 92.542L178.449 95.3877L183.2 97.3486L184.252 96.9237L190.16 94.5116Z" fill="#F6A72E"/>
<path d="M185.407 92.5348L185.319 90.976L184.224 91.4216L184.161 91.8047L178.369 94.1602L178.446 95.3767L185.407 92.5348Z" fill="#F6A72E"/>
<path d="M163.601 41.1455L163.903 41.3801L164.998 40.9343L163.979 39.7525L157.007 42.5892L157.799 43.5109L163.601 41.1455Z" fill="#F6A72E"/>
<path d="M163.969 39.7544L165.988 34.9734L160.071 37.3833L159.03 37.8141L157.002 42.5885L163.969 39.7544Z" fill="#F6A72E"/>
<path d="M184.16 91.7889L179.487 88.1727L173.753 90.501L172.508 91.0137L177.197 94.6279L178.36 94.1493L184.16 91.7889Z" fill="#F6A72E"/>
<path d="M162.776 47.0704L163.609 41.1432L157.81 43.5078L156.64 43.9789L155.807 49.906L162.776 47.0704Z" fill="#F6A72E"/>
<path d="M163.899 47.9219L162.787 47.0725L155.815 49.9092L156.92 50.7672L163.899 47.9219Z" fill="#F6A72E"/>
<path d="M178.277 87.0185L173.954 81.9731L168.013 84.3905L166.984 84.805L171.306 89.8504L172.462 89.3805L178.277 87.0185Z" fill="#F6A72E"/>
<path d="M163.148 55.3951L162.743 48.7266L156.926 51.0941L155.772 51.5634L156.184 58.2232L163.148 55.3951Z" fill="#F6A72E"/>
<path d="M164.277 55.8489L163.159 55.399L156.195 58.2266L157.306 58.6851L164.277 55.8489Z" fill="#F6A72E"/>
<path d="M172.895 80.4964L169.249 74.3875L163.221 76.8469L162.273 77.2272L165.919 83.336L166.91 82.9344L172.895 80.4964Z" fill="#F6A72E"/>
<path d="M165.057 64.1238L163.438 57.1792L157.456 59.6157L156.465 60.0171L158.085 66.9617L165.057 64.1238Z" fill="#F6A72E"/>
<path d="M166.127 64.1733L165.067 64.1302L158.097 66.9658L159.157 67.0089L166.127 64.1733Z" fill="#F6A72E"/>
<path d="M168.377 72.6854L165.663 65.9346L158.689 68.7734L161.41 75.5155L162.335 75.146L168.377 72.6854Z" fill="#F6A72E"/>
<path d="M165.65 65.9344L166.566 65.5587L159.604 68.3851L158.681 68.7695L165.65 65.9344Z" fill="#F6A72E"/>
<path d="M192.149 36.5684L191.898 36.3738L192.096 34.9789L187.422 31.3486L187.233 32.7502C186.939 32.522 186.591 32.3635 186.281 32.1922L186.268 31.8339L186.184 30.6241L181.438 28.6541L181.54 30.1981C181.225 30.1213 180.919 30.0512 180.598 29.9831L180.384 29.0638L180.219 28.3496L175.748 28.1831L175.951 29.0802L176.14 29.7992C175.847 29.8369 175.572 29.8881 175.29 29.948L174.739 28.5715L174.651 28.3637L170.728 30.0044L171.296 31.3944L171.368 31.6041C171.784 31.3413 172.219 31.1099 172.669 30.9121C172.219 31.1099 171.784 31.3413 171.368 31.6041C171.125 31.7528 170.892 31.9162 170.669 32.0934L170.452 31.73L169.805 30.6554L166.736 33.9779L167.591 35.4091C167.392 35.6642 167.222 35.9366 167.08 36.2262L166.688 35.7682L166.06 35.0432L164.038 39.8347L165.058 41.0177C164.952 41.3678 164.863 41.7314 164.774 42.0949L163.66 41.2293L162.808 47.1531L163.931 48.0254C163.896 48.4446 163.894 48.8753 163.883 49.2993C163.858 50.3823 163.883 51.4902 163.948 52.6008C163.883 51.4902 163.858 50.3823 163.883 49.2993L162.762 48.8335L163.133 55.4837L164.252 55.9341C164.308 56.3963 164.38 56.8566 164.443 57.3101L163.397 57.2651L165.017 64.2158L166.078 64.2589C166.22 64.7179 166.362 65.1769 166.52 65.6339L165.588 66.0124L168.311 72.7738L169.241 72.38C169.443 72.8156 169.653 73.258 169.877 73.683L169.132 74.499L172.837 80.5861L173.574 79.7633C173.841 80.1515 174.112 80.5156 174.385 80.8951L173.903 82.0136L178.268 87.0922L178.74 85.9516C179.077 86.2133 179.344 86.5466 179.652 86.8276L179.598 86.8972L179.375 88.2171L184.041 91.8407L184.103 91.457L184.239 90.4458C184.532 90.6739 184.88 90.8325 185.191 91.0037L185.279 92.5651L190.04 94.5331L189.975 93.5478L189.935 92.9583C190.242 93.0492 190.554 93.1238 190.869 93.182L191.221 94.8503L195.701 95.0235L195.367 93.5643L195.323 93.39C195.607 93.3456 195.891 93.3011 196.164 93.2345L196.914 94.7654L200.824 93.1421L200.723 92.8968L200.183 91.5424C200.423 91.394 200.653 91.2236 200.889 91.0444L201.746 92.4911L204.815 89.1686L204.431 88.5217L203.967 87.7287L204.478 86.9116L205.483 88.0966L207.513 83.3118L206.71 82.3669L206.5 82.1201L206.784 81.0429L207.864 81.8816L208.69 76.0081L207.567 75.1358L207.582 74.8129L207.617 73.8773L208.738 74.3431L208.36 67.7015L207.248 67.2425C207.202 66.9276 207.149 66.6214 207.112 66.3133C207.074 66.0051 207.076 66.0205 207.042 65.8684L208.096 65.9202L206.472 58.9386L205.411 58.8956L204.977 57.5118L205.893 57.1354L203.169 50.3739L202.246 50.7591C202.044 50.3234 201.836 49.8964 201.612 49.4715L202.358 48.6554L198.771 42.5766L198.025 43.3926L197.752 43.0131L197.223 42.2676L197.696 41.1423L193.383 36.104L192.851 37.1977C192.6 37.003 192.359 36.8152 192.149 36.5684ZM206.342 77.4769C204.286 91.8269 193.448 96.3706 182.092 87.5927C170.736 78.8148 163.159 60.0658 165.182 45.7044C167.206 31.3429 178.068 26.804 189.432 35.5886C200.796 44.3732 208.374 63.1222 206.342 77.4769Z" fill="#FFD527"/>
<path d="M189.432 35.5877C178.068 26.8031 167.221 31.34 165.182 45.7034C163.143 60.0668 170.712 78.809 182.092 87.5915C193.472 96.3741 204.286 91.8257 206.342 77.4758C208.398 63.1259 200.803 44.3635 189.432 35.5877ZM205.167 76.5632C203.257 90.1196 193.004 94.3922 182.305 86.1243C171.606 77.8565 164.428 60.1436 166.347 46.5939C168.266 33.0441 178.46 28.8104 189.23 37.077C199.999 45.3436 207.081 63.0376 205.167 76.5632Z" fill="#F6A72E"/>
<path d="M178.28 87.033L172.471 89.3906C172.558 89.4576 172.635 89.5179 172.713 89.5782L179.635 86.8037C179.307 86.5491 179.033 86.225 178.724 85.929L178.28 87.033Z" fill="#EA8500"/>
<path d="M179.637 86.8035L172.702 89.5951L172.5 91.0117L173.742 90.5L179.449 88.1478L179.637 86.8035Z" fill="#F6A72E"/>
<path d="M167.454 83.6883L166.98 84.796L168.008 84.3824L173.941 81.9702L174.422 80.8538L167.454 83.6883Z" fill="#F6A72E"/>
<path d="M166.922 82.9428C167.093 83.1866 167.272 83.437 167.457 83.6787L174.421 80.8516C174.148 80.4727 173.877 80.1091 173.611 79.7215L172.875 80.543L166.922 82.9428Z" fill="#EA8500"/>
<path d="M168.387 72.6968L162.33 75.1417C162.532 75.5768 162.756 76.0012 162.964 76.4276L169.926 73.5848C169.702 73.1604 169.492 72.7186 169.291 72.2835L168.387 72.6968Z" fill="#EA8500"/>
<path d="M162.985 76.44L162.268 77.2197L163.214 76.8401L169.236 74.3853L169.953 73.6056L162.985 76.44Z" fill="#F6A72E"/>
<path style="mix-blend-mode:multiply" d="M171.388 31.5705L171.309 31.3694L170.741 29.9793L163.763 32.8203L163.862 33.0502L162.848 33.4627L159.763 36.7876L160.138 37.4279L159.104 37.8665L157.08 42.6432L157.875 43.5815L156.697 44.0621L155.861 49.9847L156.967 50.8437L156.98 51.1472L155.811 51.6345L156.189 58.277L157.309 58.7428C157.347 59.051 157.393 59.3659 157.446 59.6721L156.454 60.074L158.101 67.0458L159.155 67.0976C159.272 67.4816 159.45 68.0379 159.596 68.4728L158.673 68.858L161.43 75.6318L162.355 75.262L162.998 76.5565L162.243 77.366L165.882 83.4156L166.88 83.005C167.06 83.2558 167.223 83.5086 167.409 83.7507L166.936 84.8761L171.25 89.9151L172.419 89.4278C172.503 89.4858 172.584 89.5485 172.661 89.6157L172.438 91.061L177.104 94.6851L178.281 94.2045L178.359 95.4231L183.112 97.3847L184.155 96.9528L184.327 97.6584L188.801 97.8403L189.83 97.4258L189.905 97.651L196.882 94.81L196.266 93.2148C195.99 93.266 195.699 93.3192 195.422 93.355L195.46 93.5379L195.801 94.9887L191.311 94.8087L190.926 93.1837C190.629 93.1203 190.307 93.0522 190 92.9667L190.031 93.5495L190.097 94.535L185.335 92.5667L185.253 90.9964C184.928 90.8271 184.607 90.6337 184.301 90.4384L184.159 91.4584L184.103 91.8334L179.437 88.2093L179.593 86.851C179.792 87.0054 179.939 87.1195 180.042 87.2C179.939 87.1195 179.792 87.0054 179.593 86.851C179.256 86.5893 178.975 86.2734 178.674 85.9836L178.2 87.109L173.878 82.0632L174.36 80.9445C174.089 80.5804 173.816 80.2008 173.551 79.828L172.805 80.6442L169.248 74.4902L170.002 73.6807C169.777 73.2403 169.568 72.8133 169.366 72.3776L168.443 72.7628L165.723 66.0312L166.636 65.6239L166.124 64.2499L165.063 64.2068L163.442 57.2551L164.504 57.2982C164.425 56.8466 164.361 56.3776 164.298 55.924L163.229 55.4984L162.851 48.856L163.911 49.2748C163.886 50.358 163.912 51.466 163.976 52.5768C163.912 51.466 163.886 50.358 163.911 49.2748C163.913 48.8441 163.933 48.4268 163.96 48.0008L162.819 47.1149L163.662 41.1836L164.794 42.0628C164.883 41.6992 164.972 41.3356 165.078 40.9854L164.057 39.8022L166.088 35.0168L166.716 35.7419L167.128 36.2288L167.639 35.4116L166.784 33.9802L169.853 30.6573L170.5 31.732L170.717 32.0954C170.953 31.9162 171.183 31.7457 171.423 31.5974C171.822 31.3277 172.24 31.0881 172.674 30.8804C172.229 31.0779 171.799 31.3086 171.388 31.5705Z" fill="url(#paint39_linear)"/>
<path d="M189.27 36.7048C178.445 28.2968 168.039 32.6595 166.088 46.3934C164.136 60.1272 171.39 78.0806 182.243 86.4539C193.096 94.8271 203.501 90.5193 205.443 76.7787C207.386 63.0381 200.142 45.1068 189.27 36.7048ZM203.89 75.5862C202.097 88.2433 192.537 92.2309 182.521 84.4931C172.504 76.7554 165.85 60.2583 167.643 47.6012C169.435 34.9442 178.995 30.9566 188.993 38.6655C198.99 46.3744 205.674 62.9224 203.89 75.5862Z" fill="#FFD527"/>
<path d="M167.643 47.6009C165.85 60.258 172.522 76.7684 182.521 84.4928C192.52 92.2171 202.097 88.2429 203.89 75.5859C205.683 62.9288 199.009 46.403 188.993 38.6653C178.976 30.9275 169.427 34.9372 167.643 47.6009ZM201.032 73.3802C199.527 84.0283 191.491 87.4279 183.021 80.8914C174.551 74.3548 168.994 60.4393 170.466 49.7798C171.939 39.1203 180.007 35.732 188.459 42.2552C196.912 48.7784 202.542 62.708 201.032 73.3802Z" fill="#FFE67D"/>
<path d="M183.849 55.7092C183.445 54.5232 182.698 53.4864 181.702 52.7296C180.734 51.9777 179.927 51.8391 179.34 52.2905C178.598 53.0677 178.167 54.091 178.133 55.1625C178.069 55.6013 178.012 56.0314 177.975 56.4354C177.938 56.8394 177.908 57.2347 177.904 57.5248L183.772 62.0832L184.1 59.7004C184.333 58.3666 184.247 56.9987 183.849 55.7092Z" fill="#FFD527"/>
<path fill-rule="evenodd" clip-rule="evenodd" d="M188.793 72.2535C188.906 72.2244 188.999 72.1385 189.05 72.0155L195.895 55.7033C195.999 55.457 195.912 55.1311 195.7 54.9702L190.202 50.7934C190.099 50.7151 189.979 50.687 189.869 50.7153L184.895 51.9983C184.785 52.0266 184.694 52.1091 184.642 52.2275L184.001 53.6755L182.741 52.7178C182.638 52.6394 182.518 52.6114 182.408 52.6397L177.434 53.9226C177.324 53.951 177.233 54.0335 177.18 54.1519L174.388 60.4669C174.281 60.7101 174.362 61.0373 174.572 61.2029L188.453 72.1696C188.557 72.2523 188.68 72.2826 188.793 72.2535ZM184.663 54.5278L185.337 53.0032L189.139 52.0226L185.904 59.3391L184.663 54.5278ZM185.075 59.5529L183.834 54.7416L182.507 53.7332L178.705 54.7137L181.065 56.5068L185.075 59.5529ZM181.059 57.6952L185.619 61.159C185.834 61.3221 186.096 61.2544 186.205 61.0078L188.521 55.7709L189.942 56.8509L186.707 64.1673L180.337 59.3281L181.059 57.6952ZM179.715 60.0482L186.54 65.2334L187.907 70.5334L175.886 61.0357L179.715 60.0482ZM175.642 59.9796L177.76 55.1891L180.282 57.1045L179.444 58.999L175.642 59.9796ZM188.736 70.3196L187.369 65.0196L190.836 57.18L194.664 56.1925L188.736 70.3196ZM194.367 55.1503L190.565 56.1308L188.915 54.8778L190.196 51.9818L194.367 55.1503Z" fill="#F6A72E"/>
<path d="M275.187 82.2956L275.475 82.7695L275.187 82.2956Z" fill="#F6A72E"/>
<path d="M283.588 78.7695L283.29 78.262L283.35 78.8452C283.431 78.8137 283.511 78.7958 283.588 78.7695Z" fill="#F6A72E"/>
<path d="M271.275 85.4249L271.583 85.9379L271.768 85.7561L271.275 85.4249Z" fill="#F6A72E"/>
<path d="M288.222 77.7609L287.856 77.1603L287.695 77.8148L288.222 77.7609Z" fill="#F6A72E"/>
<path d="M268.797 89.0885L268.135 88.9207L268.501 89.5211C268.629 89.391 268.712 89.2424 268.797 89.0885Z" fill="#F6A72E"/>
<path d="M275.954 84.9198C276.675 84.3682 277.428 83.858 278.208 83.3916C277.38 83.8833 276.579 84.4203 275.811 85.0002L275.954 84.9198Z" fill="#FFD527"/>
<path d="M275.287 85.4447C275.465 85.3004 275.644 85.1562 275.813 85.0415C275.155 85.5417 274.523 86.0752 273.92 86.6398C274.362 86.2108 274.811 85.8203 275.287 85.4447Z" fill="#FFD527"/>
<path d="M271.825 88.8941C271.379 89.4659 270.97 90.0646 270.6 90.6869C270.939 90.1173 271.311 89.5679 271.714 89.0417C271.755 88.9945 271.784 88.9413 271.825 88.8941Z" fill="#FFD527"/>
<path d="M292.338 77.7561L292.456 77.62L292.096 77.0085L291.717 77.6881L292.338 77.7561Z" fill="#F6A72E"/>
<path d="M266.807 92.551L266.022 92.5651L266.388 93.1657L266.584 93.1288C266.649 92.9358 266.75 92.7553 266.807 92.551Z" fill="#F6A72E"/>
<path d="M295.62 78.6664L296.016 78.3448L295.694 77.8033L295.128 78.4548L295.62 78.6664Z" fill="#F6A72E"/>
<path d="M265.885 95.9034L265.032 96.0886L265.359 96.6329L265.846 96.4384C265.856 96.2563 265.869 96.0825 265.885 95.9034Z" fill="#F6A72E"/>
<path d="M297.688 80.0727C297.806 80.1874 297.919 80.2991 298.021 80.4184L298.71 80.0236L298.401 79.4964L297.679 80.0886L297.688 80.0727Z" fill="#F6A72E"/>
<path d="M296.74 79.3079C297.084 79.5373 297.407 79.7967 297.705 80.083C297.407 79.7967 297.084 79.5373 296.74 79.3079Z" fill="#F6A72E"/>
<path d="M266.27 99.3653C266.214 99.2154 266.162 99.0685 266.117 98.911L265.728 99.0694L265.252 99.2564L265.561 99.7836L266.27 99.3653Z" fill="#F6A72E"/>
<path d="M269.402 97.8675C269.449 97.9839 269.506 98.0968 269.57 98.2051C269.503 98.112 269.407 97.9958 269.402 97.8675Z" fill="#FFD527"/>
<path d="M269.023 96.1828C269.037 96.3225 269.066 96.4575 269.082 96.5918C269.045 96.4456 269.021 96.3136 269.023 96.1828Z" fill="#FFD527"/>
<path d="M269.006 95.2509C269.002 95.3952 269.01 95.5319 269.009 95.6709C269.001 95.5478 268.997 95.3922 269.006 95.2509Z" fill="#FFD527"/>
<path d="M270.579 99.6484C270.673 99.7426 270.759 99.8392 270.859 99.9229C270.761 99.8362 270.668 99.7445 270.579 99.6484Z" fill="#FFE67D"/>
<path d="M269.552 98.2234C269.618 98.3573 269.675 98.4935 269.748 98.625C269.68 98.4964 269.623 98.3603 269.552 98.2234Z" fill="#FFE67D"/>
<path d="M270.017 98.9927C270.084 99.1042 270.161 99.2098 270.246 99.3086C270.161 99.2095 270.085 99.1039 270.017 98.9927Z" fill="#FFE67D"/>
<path d="M275.287 85.4459C274.821 85.8275 274.361 86.2121 273.934 86.6145C273.845 86.6976 273.752 86.7777 273.669 86.8638C274.177 86.3669 274.725 85.8993 275.287 85.4459Z" fill="#FFE67D"/>
<path d="M275.953 84.9199C276.675 84.3683 277.428 83.8581 278.208 83.3916C277.428 83.8581 276.675 84.3683 275.953 84.9199Z" fill="#FFE67D"/>
<path d="M271.714 89.0422C271.31 89.5685 270.938 90.1179 270.599 90.6875C270.528 90.8152 270.454 90.9482 270.383 91.0758C270.776 90.3662 271.22 89.6865 271.714 89.0422Z" fill="#FFE67D"/>
<path d="M269.063 96.5745C269.086 96.7337 269.095 96.8923 269.13 97.0439C269.098 96.9006 269.086 96.7337 269.063 96.5745Z" fill="#FFE67D"/>
<path d="M269.012 95.6661C269.01 95.8324 269.006 96.004 269.012 96.168C269.003 96.0093 269.01 95.8324 269.012 95.6661Z" fill="#FFE67D"/>
<path d="M267.091 102.31L267.626 101.865L267.371 101.431L266.656 101.859L268.8 105.449L268.923 105.378L267.091 102.31Z" fill="#F6A72E"/>
<path d="M269.752 98.6292C269.834 98.7584 269.93 98.8746 270.023 98.9961C269.926 98.8788 269.835 98.7563 269.752 98.6292Z" fill="#FFD527"/>
<path d="M270.25 99.3116C270.346 99.4278 270.461 99.534 270.573 99.6455C270.461 99.534 270.346 99.4278 270.25 99.3116Z" fill="#FFD527"/>
<path d="M299.945 85.8246L299.669 85.3644C299.664 85.5424 299.649 85.7199 299.625 85.8963L299.945 85.8246Z" fill="#EA8500"/>
<path d="M299.387 82.8817L299.479 82.8425L299.231 82.4327C299.29 82.5773 299.339 82.7295 299.387 82.8817C299.498 83.2722 299.578 83.6706 299.626 84.0732C299.578 83.6706 299.498 83.2722 299.387 82.8817Z" fill="#EA8500"/>
<path d="M267.378 101.428L267.633 101.863L267.814 101.713C267.698 101.606 267.589 101.492 267.487 101.371C267.308 101.165 267.145 100.946 266.999 100.716C267.145 100.946 267.308 101.165 267.487 101.371L267.378 101.428Z" fill="#EA8500"/>
<path d="M270.387 103.305C270.222 103.241 270.059 103.171 269.896 103.094L270.169 103.559L270.387 103.305Z" fill="#EA8500"/>
<path d="M273.779 104.097C273.572 104.079 273.365 104.061 273.164 104.032L273.501 104.596L273.779 104.097Z" fill="#EA8500"/>
<path d="M275.392 104.158C275.958 104.147 276.531 104.098 277.095 104.052C276.522 104.114 275.958 104.147 275.392 104.158C274.827 104.169 274.29 104.14 273.779 104.091C274.29 104.14 274.832 104.158 275.392 104.158Z" fill="#F6A72E"/>
<path d="M298.929 88.6646C298.831 88.8398 298.778 89.0471 298.702 89.2342L299.268 89.2231L298.929 88.6646Z" fill="#EA8500"/>
<path d="M277.629 104.62L277.797 103.955C278.393 103.877 278.999 103.77 279.603 103.641C278.999 103.77 278.393 103.877 277.797 103.955C277.563 103.984 277.326 104.019 277.093 104.035L279.238 107.639L279.397 107.631L277.629 104.62Z" fill="#EA8500"/>
<path d="M282.21 103.529L282.147 102.952C281.903 103.024 281.657 103.102 281.408 103.172L283.552 106.761C283.721 106.709 283.887 106.662 284.05 106.608L282.21 103.529Z" fill="#EA8500"/>
<path d="M286.524 101.09C286.286 101.215 286.047 101.331 285.807 101.447L287.967 105.045C288.206 104.929 288.446 104.812 288.684 104.687L286.524 101.09Z" fill="#EA8500"/>
<path d="M299.229 82.4303L299.476 82.8396L300.248 82.5338L302.08 85.6001L302.189 85.5291L300.046 81.9415L299.229 82.4303Z" fill="#F6A72E"/>
<path d="M300.517 85.0117L299.653 85.3568L299.929 85.8165L300.466 85.7062L302.286 88.745L302.66 88.5997L300.517 85.0117Z" fill="#F6A72E"/>
<path d="M300.521 85.0079L302.666 88.5977L302.387 86.1192L302.073 85.6029L300.239 82.5348L300.521 85.0079Z" fill="#F6A72E"/>
<path d="M273.633 86.8471C272.976 87.4791 272.365 88.1565 271.803 88.8741C271.774 88.9272 271.744 88.9803 271.714 89.0334C271.215 89.6761 270.764 90.355 270.366 91.0645C269.62 92.3416 269.161 93.7662 269.02 95.2408C269.011 95.3821 269.028 95.5164 269.027 95.6554C269.027 95.7944 269.018 95.9984 269.025 96.1623C269.032 96.3261 269.063 96.4339 269.082 96.5629C269.102 96.692 269.118 96.889 269.153 97.0406C269.211 97.3224 269.291 97.5996 269.391 97.8697C269.435 97.9918 269.505 98.0932 269.555 98.2047C269.605 98.3161 269.683 98.4779 269.757 98.6096C269.839 98.7357 269.928 98.8573 270.023 98.974C270.093 99.0866 270.172 99.1934 270.259 99.2933C270.355 99.4097 270.471 99.5161 270.584 99.6279C270.673 99.7243 270.767 99.8161 270.865 99.903C271.337 100.299 271.863 100.625 272.427 100.872C273.42 101.298 274.478 101.552 275.555 101.622C275.95 101.655 276.363 101.669 276.787 101.662C279.068 101.598 281.317 101.136 283.433 100.298C283.872 100.125 284.328 99.9483 284.75 99.7451C286.064 99.1392 287.324 98.4249 288.518 97.6096C288.92 97.34 289.312 97.0645 289.685 96.7717C290.439 96.202 291.158 95.5876 291.838 94.932C293.142 93.7041 294.257 92.2912 295.148 90.7385C296.799 87.7761 296.889 85.0985 295.717 83.1778C294.544 81.2571 292.104 80.0904 288.679 80.1273C285.253 80.1642 281.484 81.4083 278.162 83.3827C277.383 83.8488 276.631 84.3586 275.91 84.9097L275.784 84.999C275.6 85.1401 275.422 85.2842 275.258 85.4017C274.688 85.8839 274.141 86.3509 273.633 86.8471Z" fill="#FFD527"/>
<path d="M268.999 91.0522C265.366 97.6613 268.554 102.92 276.15 102.816C283.747 102.713 292.881 97.3223 296.514 90.7267C300.146 84.1311 296.944 78.8857 289.339 78.9778C281.735 79.0699 272.636 84.4731 268.999 91.0522ZM275.789 85.001C276.557 84.4215 277.356 83.8849 278.184 83.3936C281.505 81.4192 285.271 80.1804 288.7 80.1381C292.129 80.0959 294.575 81.252 295.738 83.1886C296.902 85.1252 296.799 87.775 295.148 90.7374C294.261 92.2915 293.15 93.7064 291.849 94.9368C291.169 95.5925 290.45 96.2068 289.696 96.7766C289.317 97.0664 288.926 97.3419 288.529 97.6144C287.327 98.422 286.06 99.1277 284.74 99.7244C284.302 99.9186 283.862 100.105 283.423 100.277C281.307 101.116 279.058 101.578 276.777 101.642C276.353 101.649 275.94 101.634 275.545 101.602C274.468 101.531 273.41 101.278 272.417 100.851C271.853 100.604 271.327 100.278 270.855 99.8824C270.743 99.8197 270.669 99.7017 270.574 99.6072C270.48 99.5127 270.345 99.389 270.249 99.2726C270.163 99.1737 270.086 99.0679 270.019 98.9563C269.925 98.8346 269.829 98.7182 269.747 98.5889C269.665 98.4596 269.616 98.321 269.55 98.187C269.486 98.0786 269.429 97.9656 269.381 97.8491C269.281 97.579 269.201 97.3018 269.143 97.0199C269.108 96.8683 269.098 96.7098 269.075 96.5506C269.051 96.3913 269.029 96.2812 269.015 96.1416C269.002 96.0019 269.013 95.8062 269.014 95.64C269.016 95.4739 269.007 95.3644 269.01 95.2201C269.151 93.7456 269.61 92.3209 270.356 91.0438C270.427 90.9164 270.501 90.7837 270.572 90.6563C270.941 90.0352 271.349 89.4376 271.793 88.8671C272.354 88.1494 272.966 87.4721 273.622 86.8401C273.679 86.7392 273.799 86.6741 273.887 86.5911C274.493 86.029 275.128 85.4983 275.789 85.001Z" fill="#FFE67D"/>
<path d="M265.441 99.8523L267.58 103.437L268.803 105.448L266.66 101.86L265.441 99.8523Z" fill="#F6A72E"/>
<path d="M269.164 103.716L267.086 102.312L268.917 105.377L269.228 105.898L271.306 107.302L269.164 103.716Z" fill="#F6A72E"/>
<path d="M269.802 103.993L270.147 103.588L269.874 103.123L269.161 103.712L271.305 107.301L271.625 107.042L269.802 103.993Z" fill="#F6A72E"/>
<path d="M300.457 85.7072L299.775 88.4785L301.924 92.0645L302.601 89.2902L302.279 88.7488L300.457 85.7072Z" fill="#F6A72E"/>
<path d="M299.772 88.4837L298.923 88.6634L299.26 89.2269L299.476 89.2291L301.257 92.2117L301.918 92.0665L299.772 88.4837Z" fill="#F6A72E"/>
<path d="M273.389 104.784L273.493 104.598L273.156 104.034L272.592 104.694L274.737 108.283L275.176 107.77L273.389 104.784Z" fill="#F6A72E"/>
<path d="M272.594 104.698L269.799 103.992L271.62 107.038L271.945 107.574L274.737 108.285L272.594 104.698Z" fill="#F6A72E"/>
<path d="M299.467 89.2322L297.875 92.1027L299.636 95.0552L300.022 95.6953L301.612 92.8165L301.251 92.2185L299.467 89.2322Z" fill="#F6A72E"/>
<path d="M276.712 104.737L273.387 104.778L275.174 107.764L275.531 108.366L278.856 108.325L276.712 104.737Z" fill="#F6A72E"/>
<path d="M277.085 104.049L276.712 104.731L278.856 108.32L279.235 107.641L277.085 104.049Z" fill="#F6A72E"/>
<path d="M297.343 92.8642L294.936 95.6623L296.764 98.7211L297.078 99.2514L299.485 96.4533L299.129 95.8584L297.343 92.8642Z" fill="#F6A72E"/>
<path d="M281.252 103.833L277.624 104.616L279.414 107.611L279.769 108.205L283.391 107.419L281.252 103.833Z" fill="#F6A72E"/>
<path d="M281.406 103.174L281.253 103.826L283.392 107.412L283.55 106.763L281.406 103.174Z" fill="#F6A72E"/>
<path d="M294.214 96.3686L291.167 98.8845L293.025 101.988L293.313 102.476L296.361 99.9601L296.057 99.4495L294.214 96.3686Z" fill="#F6A72E"/>
<path d="M285.884 102.049L282.207 103.523L284.049 106.602L284.352 107.113L288.029 105.639L285.884 102.049Z" fill="#F6A72E"/>
<path d="M285.821 101.458L285.887 102.044L288.03 105.633L287.965 105.047L285.821 101.458Z" fill="#F6A72E"/>
<path d="M290.306 99.5063L286.827 101.565L288.973 105.156L292.446 103.094L292.166 102.617L290.306 99.5063Z" fill="#F6A72E"/>
<path d="M286.829 101.571L286.545 101.1L288.683 104.685L288.972 105.159L286.829 101.571Z" fill="#F6A72E"/>
<path d="M268.473 89.4931L268.388 89.6471L267.605 89.6558L266.005 92.5279L266.791 92.5139C266.69 92.6944 266.632 92.8987 266.564 93.0835L266.369 93.1205L265.711 93.2687L265.029 96.0405L265.868 95.8547C265.853 96.0338 265.84 96.2077 265.83 96.3898L265.343 96.5844L264.965 96.7352L265.249 99.2046L265.725 99.0176L266.104 98.8533C266.149 99.0108 266.201 99.1577 266.257 99.3076L265.548 99.7259L265.441 99.7917L266.672 101.808L267.387 101.379L267.497 101.321C267.317 101.115 267.154 100.896 267.007 100.666C267.154 100.896 267.317 101.115 267.497 101.321C267.599 101.442 267.708 101.557 267.824 101.664L267.643 101.814L267.107 102.259L269.19 103.665L269.904 103.075C270.061 103.163 270.224 103.233 270.395 103.287L270.177 103.541L269.832 103.947L272.633 104.654L273.197 103.994C273.398 104.023 273.605 104.041 273.812 104.059L273.431 104.744L276.755 104.713L277.139 104.023C277.373 104.007 277.609 103.972 277.843 103.942C278.44 103.865 279.046 103.758 279.65 103.629C279.046 103.758 278.44 103.865 277.843 103.942L277.682 104.597L281.302 103.834L281.455 103.181C281.704 103.112 281.951 103.033 282.195 102.961L282.258 103.539L285.938 102.064L285.873 101.478C286.113 101.361 286.353 101.245 286.59 101.12L286.877 101.6L290.36 99.5349L290.066 99.0574C290.288 98.91 290.513 98.7573 290.728 98.5986L291.238 98.9394L294.269 96.3923L293.755 96.0568C293.946 95.8779 294.123 95.6984 294.308 95.5165L294.963 95.687L297.384 92.8626L296.718 92.6997C296.834 92.4927 296.994 92.3178 297.123 92.125L297.165 92.1489L297.909 92.1601L299.506 89.2933L299.29 89.2911L298.723 89.302C298.824 89.1215 298.882 88.9171 298.95 88.7323L299.8 88.5524L300.479 85.7723L299.944 85.891L299.624 85.9628C299.648 85.7864 299.662 85.6088 299.668 85.4307L300.554 85.0973L300.272 82.6225L299.499 82.9287L299.407 82.9679C299.359 82.8157 299.311 82.6634 299.251 82.5188L300.029 81.9784L298.808 79.9682L298.682 80.0439L297.984 80.4546C297.882 80.3352 297.769 80.2235 297.651 80.1088L298.373 79.5166L296.29 78.1109L295.967 78.3761L295.571 78.6977L295.079 78.486L295.645 77.8346L292.847 77.1221L292.396 77.6428L292.278 77.7789L291.663 77.7139L292.032 77.0502L288.738 77.0907L288.353 77.7809L288.175 77.7995L287.658 77.8592L287.819 77.2046L284.204 77.9711L284.046 78.6203C283.877 78.6721 283.713 78.727 283.547 78.7735C283.381 78.82 283.389 78.8177 283.309 78.8492L283.248 78.2658L279.551 79.7451L279.617 80.3315L278.894 80.6865L278.61 80.215L275.127 82.2796L275.416 82.7542C275.194 82.9016 274.977 83.0519 274.762 83.2106L274.251 82.8699L271.215 85.3513L271.726 85.692L271.541 85.8739L271.176 86.227L270.518 86.0618L268.115 88.8544L268.76 89.0544C268.674 89.2084 268.591 89.3571 268.473 89.4931ZM289.742 78.2565C297.795 78.1778 301.202 83.7465 297.337 90.7207C293.473 97.695 283.816 103.434 275.76 103.531C267.703 103.629 264.297 98.0468 268.164 91.0673C272.031 84.0877 281.689 78.3488 289.742 78.2565Z" fill="#FFD527"/>
<path d="M268.164 91.0671C264.296 98.0466 267.701 103.621 275.759 103.531C283.818 103.442 293.472 97.7084 297.337 90.7206C301.202 83.7328 297.794 78.1777 289.741 78.2565C281.689 78.3352 272.025 84.0846 268.164 91.0671ZM289.339 78.9785C296.944 78.8864 300.153 84.1566 296.513 90.7273C292.874 97.298 283.752 102.73 276.15 102.817C268.548 102.904 265.366 97.6619 268.998 91.0528C272.631 84.4436 281.751 79.0659 289.339 78.9785Z" fill="#F6A72E"/>
<path d="M297.35 92.8605L299.134 95.8516C299.163 95.7985 299.19 95.7508 299.217 95.7031L297.11 92.1356C296.998 92.3371 296.843 92.5148 296.707 92.7097L297.35 92.8605Z" fill="#EA8500"/>
<path d="M297.11 92.1352L299.227 95.7083L300.022 95.7002L299.636 95.0609L297.864 92.1252L297.11 92.1352Z" fill="#F6A72E"/>
<path d="M296.425 99.0866L297.073 99.2539L296.76 98.7243L294.936 95.6693L294.282 95.499L296.425 99.0866Z" fill="#F6A72E"/>
<path d="M296.061 99.4422C296.18 99.3281 296.303 99.2088 296.42 99.0864L294.281 95.5006C294.096 95.6823 293.919 95.8617 293.729 96.0405L294.242 96.3756L296.061 99.4422Z" fill="#EA8500"/>
<path d="M290.311 99.499L292.164 102.619C292.386 102.472 292.6 102.313 292.816 102.163L290.669 98.5795C290.455 98.738 290.23 98.8906 290.008 99.0379L290.311 99.499Z" fill="#EA8500"/>
<path d="M292.821 102.151L293.31 102.479L293.022 101.992L291.167 98.8921L290.678 98.5637L292.821 102.151Z" fill="#F6A72E"/>
<path style="mix-blend-mode:multiply" d="M267.476 101.313L267.372 101.373L266.657 101.802L268.804 105.395L268.922 105.321L269.234 105.843L271.319 107.257L271.639 106.997L271.967 107.528L274.76 108.238L275.209 107.722L275.572 108.329L278.894 108.289L279.273 107.61L279.438 107.577L279.804 108.178L283.42 107.411L283.581 106.757C283.747 106.71 283.917 106.658 284.08 106.603L284.384 107.114L288.074 105.623L288.014 105.04C288.215 104.943 288.505 104.799 288.732 104.682L289.021 105.157L292.508 103.073L292.227 102.596L292.884 102.134L293.392 102.48L296.408 99.973L296.098 99.4593C296.221 99.3398 296.346 99.2286 296.463 99.1061L297.121 99.2713L299.525 96.4785L299.159 95.8775C299.184 95.8264 299.211 95.7768 299.242 95.7289L300.054 95.7298L301.651 92.8627L301.288 92.2565L301.951 92.1112L302.628 89.3361L302.303 88.7999L302.676 88.6461L302.399 86.1741L302.085 85.6438L302.203 85.5841L300.055 81.9917L299.231 82.4646C299.283 82.6115 299.336 82.7667 299.379 82.916L299.477 82.8798L300.245 82.5705L300.524 85.0508L299.664 85.3993C299.654 85.5678 299.644 85.7499 299.622 85.9261L299.94 85.8596L300.475 85.7409L299.795 88.5212L298.94 88.6981C298.875 88.8912 298.795 89.0837 298.714 89.2678L299.286 89.2599L299.496 89.2591L297.899 92.1262L297.14 92.1551C297.208 92.033 297.259 91.9427 297.294 91.879C297.259 91.9427 297.208 92.033 297.14 92.1551C297.025 92.3622 296.875 92.5431 296.741 92.7329L297.399 92.8981L294.992 95.6962L294.337 95.5257C294.16 95.7053 293.975 95.8872 293.792 96.0637L294.303 96.4045L291.224 98.8759L290.716 98.5298C290.493 98.6908 290.276 98.8412 290.054 98.9886L290.343 99.4632L286.875 101.523L286.575 101.057L285.863 101.453L285.929 102.039L282.248 103.514L282.183 102.928C281.941 103.009 281.689 103.084 281.445 103.157L281.302 103.779L277.686 104.546L277.827 103.929C278.424 103.851 279.03 103.744 279.634 103.615C279.03 103.744 278.424 103.851 277.827 103.929C277.59 103.964 277.359 103.988 277.123 104.009L276.733 104.71L273.405 104.746L273.792 104.051C273.585 104.033 273.378 104.014 273.177 103.986L272.613 104.646L269.815 103.933L270.16 103.527L270.393 103.26L269.901 103.049L269.187 103.638L267.104 102.233L267.64 101.787L267.821 101.637C267.703 101.523 267.59 101.411 267.488 101.292C267.306 101.095 267.14 100.886 266.989 100.665C267.135 100.893 267.298 101.109 267.476 101.313Z" fill="url(#paint40_linear)"/>
<path d="M268.79 91.0611C265.085 97.7131 268.356 103.06 276.062 102.975C283.767 102.891 293.015 97.3967 296.699 90.7328C300.383 84.0688 297.142 78.718 289.434 78.8078C281.725 78.8976 272.489 84.3842 268.79 91.0611ZM288.91 79.7611C296.011 79.6802 299.005 84.594 295.599 90.7453C292.193 96.8966 283.695 101.939 276.594 102.02C269.493 102.101 266.499 97.1869 269.89 91.0486C273.282 84.9102 281.806 79.8473 288.91 79.7611Z" fill="#FFD527"/>
<path d="M276.594 102.02C283.695 101.939 292.199 96.8863 295.599 90.7456C298.999 84.6049 296.011 79.6805 288.91 79.7614C281.809 79.8423 273.296 84.8975 269.89 91.0488C266.485 97.2001 269.49 102.106 276.594 102.02ZM287.939 81.5163C293.913 81.4466 296.456 85.5728 293.579 90.7738C290.703 95.9748 283.53 100.198 277.553 100.286C271.576 100.375 269.036 96.2299 271.907 91.0395C274.777 85.8491 281.952 81.5853 287.939 81.5163Z" fill="#FFE67D"/>
<path d="M279.682 92.4386C279.065 92.7603 278.558 93.2578 278.227 93.8682C277.895 94.4629 277.887 94.9179 278.184 95.202C278.674 95.5444 279.272 95.6946 279.863 95.6234C280.109 95.6216 280.35 95.6168 280.575 95.6031C280.8 95.5894 281.02 95.5727 281.179 95.5503L283.188 91.9445L281.852 91.9648C281.1 91.9492 280.357 92.1115 279.682 92.4386Z" fill="#FFD527"/>
<path fill-rule="evenodd" clip-rule="evenodd" d="M288.35 88.3318C288.325 88.2723 288.27 88.2285 288.198 88.2105L278.665 85.8248C278.521 85.7888 278.349 85.8638 278.279 85.9937L276.448 89.3642C276.414 89.4274 276.408 89.4955 276.433 89.5535L277.556 92.1768C277.581 92.2348 277.634 92.278 277.703 92.2967L278.552 92.5264L278.133 93.2992C278.098 93.3624 278.093 93.4305 278.118 93.4885L279.241 96.1119C279.266 96.1699 279.319 96.213 279.388 96.2318L283.091 97.2334C283.233 97.272 283.406 97.1996 283.479 97.0706L288.333 88.5257C288.369 88.4613 288.376 88.3912 288.35 88.3318ZM278.965 92.0912L278.071 91.8494L277.212 89.8444L281.502 91.0049L278.965 92.0912ZM281.689 91.4421L279.152 92.5285L278.71 93.3422L279.568 95.3472L280.354 93.9002L281.689 91.4421ZM281.007 93.8036L282.525 91.0084C282.597 90.8768 282.538 90.7383 282.393 90.6992L279.323 89.8685L279.796 88.997L284.086 90.1575L281.965 94.0626L281.007 93.8036ZM282.412 94.3439L284.685 90.1595L287.48 88.9629L283.277 96.3632L282.412 94.3439ZM282.717 96.5858L279.909 95.8259L280.748 94.2802L281.859 94.5808L282.717 96.5858ZM287.293 88.5257L284.498 89.7223L279.901 88.4788L279.037 86.4595L287.293 88.5257ZM278.49 86.7107L279.348 88.7157L278.799 89.7269L277.101 89.2675L278.49 86.7107Z" fill="#F6A72E"/>
<defs>
<filter id="filter0_f" x="-10.62" y="456.766" width="26.4056" height="25.302" filterUnits="userSpaceOnUse" color-interpolation-filters="sRGB">
<feFlood flood-opacity="0" result="BackgroundImageFix"/>
<feBlend mode="normal" in="SourceGraphic" in2="BackgroundImageFix" result="shape"/>
<feGaussianBlur stdDeviation="4.5" result="effect1_foregroundBlur"/>
</filter>
<filter id="filter1_f" x="13.3961" y="468.239" width="26.4056" height="25.302" filterUnits="userSpaceOnUse" color-interpolation-filters="sRGB">
<feFlood flood-opacity="0" result="BackgroundImageFix"/>
<feBlend mode="normal" in="SourceGraphic" in2="BackgroundImageFix" result="shape"/>
<feGaussianBlur stdDeviation="4.5" result="effect1_foregroundBlur"/>
</filter>
<filter id="filter2_f" x="42.8157" y="450.506" width="26.4056" height="25.302" filterUnits="userSpaceOnUse" color-interpolation-filters="sRGB">
<feFlood flood-opacity="0" result="BackgroundImageFix"/>
<feBlend mode="normal" in="SourceGraphic" in2="BackgroundImageFix" result="shape"/>
<feGaussianBlur stdDeviation="4.5" result="effect1_foregroundBlur"/>
</filter>
<filter id="filter3_f" x="79.4401" y="444.769" width="26.4056" height="25.302" filterUnits="userSpaceOnUse" color-interpolation-filters="sRGB">
<feFlood flood-opacity="0" result="BackgroundImageFix"/>
<feBlend mode="normal" in="SourceGraphic" in2="BackgroundImageFix" result="shape"/>
<feGaussianBlur stdDeviation="4.5" result="effect1_foregroundBlur"/>
</filter>
<filter id="filter4_f" x="116.665" y="391.047" width="26.4056" height="25.302" filterUnits="userSpaceOnUse" color-interpolation-filters="sRGB">
<feFlood flood-opacity="0" result="BackgroundImageFix"/>
<feBlend mode="normal" in="SourceGraphic" in2="BackgroundImageFix" result="shape"/>
<feGaussianBlur stdDeviation="4.5" result="effect1_foregroundBlur"/>
</filter>
<filter id="filter5_f" x="179.107" y="380.615" width="26.4056" height="25.302" filterUnits="userSpaceOnUse" color-interpolation-filters="sRGB">
<feFlood flood-opacity="0" result="BackgroundImageFix"/>
<feBlend mode="normal" in="SourceGraphic" in2="BackgroundImageFix" result="shape"/>
<feGaussianBlur stdDeviation="4.5" result="effect1_foregroundBlur"/>
</filter>
<filter id="filter6_f" x="210.928" y="403.043" width="26.4056" height="25.302" filterUnits="userSpaceOnUse" color-interpolation-filters="sRGB">
<feFlood flood-opacity="0" result="BackgroundImageFix"/>
<feBlend mode="normal" in="SourceGraphic" in2="BackgroundImageFix" result="shape"/>
<feGaussianBlur stdDeviation="4.5" result="effect1_foregroundBlur"/>
</filter>
<filter id="filter7_f" x="276.972" y="358.709" width="26.4056" height="25.302" filterUnits="userSpaceOnUse" color-interpolation-filters="sRGB">
<feFlood flood-opacity="0" result="BackgroundImageFix"/>
<feBlend mode="normal" in="SourceGraphic" in2="BackgroundImageFix" result="shape"/>
<feGaussianBlur stdDeviation="4.5" result="effect1_foregroundBlur"/>
</filter>
<filter id="filter8_f" x="310.594" y="351.407" width="26.4056" height="25.302" filterUnits="userSpaceOnUse" color-interpolation-filters="sRGB">
<feFlood flood-opacity="0" result="BackgroundImageFix"/>
<feBlend mode="normal" in="SourceGraphic" in2="BackgroundImageFix" result="shape"/>
<feGaussianBlur stdDeviation="4.5" result="effect1_foregroundBlur"/>
</filter>
<linearGradient id="paint0_linear" x1="7.61566" y1="135.708" x2="416.989" y2="350.584" gradientUnits="userSpaceOnUse">
<stop stop-color="#280889"/>
<stop offset="1" stop-color="#E64DD6"/>
</linearGradient>
<linearGradient id="paint1_linear" x1="-21.1329" y1="470.199" x2="-21.1329" y2="555.476" gradientUnits="userSpaceOnUse">
<stop stop-color="#EA66ED"/>
<stop offset="1" stop-color="#CA44CB" stop-opacity="0"/>
</linearGradient>
<linearGradient id="paint2_linear" x1="41.3088" y1="470.459" x2="41.3088" y2="555.476" gradientUnits="userSpaceOnUse">
<stop stop-color="#EA66ED"/>
<stop offset="1" stop-color="#CA44CB" stop-opacity="0"/>
</linearGradient>
<linearGradient id="paint3_linear" x1="111.556" y1="446.466" x2="111.556" y2="531.483" gradientUnits="userSpaceOnUse">
<stop stop-color="#EA66ED"/>
<stop offset="1" stop-color="#CA44CB" stop-opacity="0"/>
</linearGradient>
<linearGradient id="paint4_linear" x1="208.22" y1="446.638" x2="208.22" y2="531.483" gradientUnits="userSpaceOnUse">
<stop stop-color="#EA66ED"/>
<stop offset="1" stop-color="#CA44CB" stop-opacity="0"/>
</linearGradient>
<linearGradient id="paint5_linear" x1="307.287" y1="446.638" x2="307.287" y2="531.483" gradientUnits="userSpaceOnUse">
<stop stop-color="#EA66ED"/>
<stop offset="1" stop-color="#CA44CB" stop-opacity="0"/>
</linearGradient>
<linearGradient id="paint6_linear" x1="13.9905" y1="470.459" x2="13.9905" y2="515.836" gradientUnits="userSpaceOnUse">
<stop stop-color="#D74EDA"/>
<stop offset="1" stop-color="#CA44CB" stop-opacity="0"/>
</linearGradient>
<linearGradient id="paint7_linear" x1="68.6269" y1="464.983" x2="68.6269" y2="510.36" gradientUnits="userSpaceOnUse">
<stop stop-color="#D74EDA"/>
<stop offset="1" stop-color="#CA44CB" stop-opacity="0"/>
</linearGradient>
<linearGradient id="paint8_linear" x1="143.677" y1="464.983" x2="143.677" y2="510.36" gradientUnits="userSpaceOnUse">
<stop stop-color="#D74EDA"/>
<stop offset="1" stop-color="#CA44CB" stop-opacity="0"/>
</linearGradient>
<linearGradient id="paint9_linear" x1="236.739" y1="464.982" x2="236.739" y2="510.359" gradientUnits="userSpaceOnUse">
<stop stop-color="#D74EDA"/>
<stop offset="1" stop-color="#CA44CB" stop-opacity="0"/>
</linearGradient>
<linearGradient id="paint10_linear" x1="326.624" y1="364.058" x2="-30.6836" y2="539.239" gradientUnits="userSpaceOnUse">
<stop stop-color="#9BD6D7"/>
<stop offset="1" stop-color="#2FABAF"/>
</linearGradient>
<linearGradient id="paint11_linear" x1="0.781681" y1="469.416" x2="4.38409" y2="469.416" gradientUnits="userSpaceOnUse">
<stop stop-color="#61CB7E"/>
<stop offset="1" stop-color="#33E1EA"/>
</linearGradient>
<linearGradient id="paint12_linear" x1="24.7978" y1="480.89" x2="28.4002" y2="480.89" gradientUnits="userSpaceOnUse">
<stop stop-color="#61CB7E"/>
<stop offset="1" stop-color="#33E1EA"/>
</linearGradient>
<linearGradient id="paint13_linear" x1="54.2174" y1="463.157" x2="57.8198" y2="463.157" gradientUnits="userSpaceOnUse">
<stop stop-color="#61CB7E"/>
<stop offset="1" stop-color="#33E1EA"/>
</linearGradient>
<linearGradient id="paint14_linear" x1="90.8419" y1="457.42" x2="94.4443" y2="457.42" gradientUnits="userSpaceOnUse">
<stop stop-color="#61CB7E"/>
<stop offset="1" stop-color="#33E1EA"/>
</linearGradient>
<linearGradient id="paint15_linear" x1="128.067" y1="403.698" x2="131.669" y2="403.698" gradientUnits="userSpaceOnUse">
<stop stop-color="#61CB7E"/>
<stop offset="1" stop-color="#33E1EA"/>
</linearGradient>
<linearGradient id="paint16_linear" x1="190.509" y1="393.265" x2="194.111" y2="393.265" gradientUnits="userSpaceOnUse">
<stop stop-color="#61CB7E"/>
<stop offset="1" stop-color="#33E1EA"/>
</linearGradient>
<linearGradient id="paint17_linear" x1="222.33" y1="415.694" x2="225.932" y2="415.694" gradientUnits="userSpaceOnUse">
<stop stop-color="#61CB7E"/>
<stop offset="1" stop-color="#33E1EA"/>
</linearGradient>
<linearGradient id="paint18_linear" x1="288.374" y1="371.36" x2="291.976" y2="371.36" gradientUnits="userSpaceOnUse">
<stop stop-color="#61CB7E"/>
<stop offset="1" stop-color="#33E1EA"/>
</linearGradient>
<linearGradient id="paint19_linear" x1="103.49" y1="33.6981" x2="72.5602" y2="78.9186" gradientUnits="userSpaceOnUse">
<stop stop-color="#8CFCFF"/>
<stop offset="1" stop-color="#8CFCFF"/>
</linearGradient>
<linearGradient id="paint20_linear" x1="74.1188" y1="37.643" x2="60.3737" y2="37.2752" gradientUnits="userSpaceOnUse">
<stop stop-color="#D9FFFF"/>
<stop offset="1" stop-color="#A2FDFF"/>
</linearGradient>
<linearGradient id="paint21_linear" x1="45.2854" y1="59.8629" x2="49.2077" y2="44.1159" gradientUnits="userSpaceOnUse">
<stop stop-color="#A8FDFF"/>
<stop offset="1" stop-color="#7EFCFF"/>
</linearGradient>
<linearGradient id="paint22_linear" x1="72.9702" y1="71.7097" x2="59.2729" y2="47.9852" gradientUnits="userSpaceOnUse">
<stop stop-color="#1A7274"/>
<stop offset="1" stop-color="#136062"/>
</linearGradient>
<linearGradient id="paint23_linear" x1="43.5071" y1="66.9073" x2="20.8205" y2="80.0054" gradientUnits="userSpaceOnUse">
<stop stop-color="white"/>
<stop offset="1" stop-color="white" stop-opacity="0"/>
</linearGradient>
<linearGradient id="paint24_linear" x1="83.5424" y1="43.7926" x2="106.229" y2="30.6945" gradientUnits="userSpaceOnUse">
<stop stop-color="white"/>
<stop offset="1" stop-color="white" stop-opacity="0"/>
</linearGradient>
<linearGradient id="paint25_linear" x1="75.0819" y1="75.3673" x2="87.4095" y2="96.7194" gradientUnits="userSpaceOnUse">
<stop stop-color="white"/>
<stop offset="1" stop-color="white" stop-opacity="0"/>
</linearGradient>
<linearGradient id="paint26_linear" x1="65.8878" y1="58.2258" x2="56.7562" y2="42.4094" gradientUnits="userSpaceOnUse">
<stop stop-color="white"/>
<stop offset="1" stop-color="white" stop-opacity="0"/>
</linearGradient>
<linearGradient id="paint27_linear" x1="48.9964" y1="54.8405" x2="27.9465" y2="49.2002" gradientUnits="userSpaceOnUse">
<stop stop-color="white"/>
<stop offset="0.340332" stop-color="white"/>
<stop offset="1" stop-color="white" stop-opacity="0"/>
</linearGradient>
<linearGradient id="paint28_linear" x1="70.3484" y1="42.5141" x2="75.9887" y2="21.4642" gradientUnits="userSpaceOnUse">
<stop stop-color="white"/>
<stop offset="0.340332" stop-color="white"/>
<stop offset="1" stop-color="white" stop-opacity="0"/>
</linearGradient>
<linearGradient id="paint29_linear" x1="23.5213" y1="385.035" x2="46.1455" y2="393.3" gradientUnits="userSpaceOnUse">
<stop stop-color="#8CFCFF"/>
<stop offset="1" stop-color="#8CFCFF"/>
</linearGradient>
<linearGradient id="paint30_linear" x1="28.3922" y1="397.12" x2="29.7285" y2="403.015" gradientUnits="userSpaceOnUse">
<stop stop-color="#D9FFFF"/>
<stop offset="1" stop-color="#A2FDFF"/>
</linearGradient>
<linearGradient id="paint31_linear" x1="40.9902" y1="406.99" x2="33.8557" y2="407.029" gradientUnits="userSpaceOnUse">
<stop stop-color="#A8FDFF"/>
<stop offset="1" stop-color="#7EFCFF"/>
</linearGradient>
<linearGradient id="paint32_linear" x1="43.0299" y1="393.91" x2="34.4106" y2="402.322" gradientUnits="userSpaceOnUse">
<stop stop-color="#1A7274"/>
<stop offset="1" stop-color="#136062"/>
</linearGradient>
<linearGradient id="paint33_linear" x1="44.1839" y1="406.983" x2="52.2281" y2="415.225" gradientUnits="userSpaceOnUse">
<stop stop-color="white"/>
<stop offset="1" stop-color="white" stop-opacity="0"/>
</linearGradient>
<linearGradient id="paint34_linear" x1="29.9885" y1="392.438" x2="21.9443" y2="384.196" gradientUnits="userSpaceOnUse">
<stop stop-color="white"/>
<stop offset="1" stop-color="white" stop-opacity="0"/>
</linearGradient>
<linearGradient id="paint35_linear" x1="44.3586" y1="392.613" x2="52.116" y2="385.042" gradientUnits="userSpaceOnUse">
<stop stop-color="white"/>
<stop offset="1" stop-color="white" stop-opacity="0"/>
</linearGradient>
<linearGradient id="paint36_linear" x1="38.0545" y1="398.391" x2="32.3082" y2="403.999" gradientUnits="userSpaceOnUse">
<stop stop-color="white"/>
<stop offset="1" stop-color="white" stop-opacity="0"/>
</linearGradient>
<linearGradient id="paint37_linear" x1="38.4475" y1="405.954" x2="38.331" y2="415.535" gradientUnits="userSpaceOnUse">
<stop stop-color="white"/>
<stop offset="0.340332" stop-color="white"/>
<stop offset="1" stop-color="white" stop-opacity="0"/>
</linearGradient>
<linearGradient id="paint38_linear" x1="30.8766" y1="398.197" x2="21.2964" y2="398.081" gradientUnits="userSpaceOnUse">
<stop stop-color="white"/>
<stop offset="0.340332" stop-color="white"/>
<stop offset="1" stop-color="white" stop-opacity="0"/>
</linearGradient>
<linearGradient id="paint39_linear" x1="185.658" y1="99.404" x2="159.125" y2="34.7239" gradientUnits="userSpaceOnUse">
<stop stop-color="white"/>
<stop offset="0.01" stop-color="#FCDDAF"/>
<stop offset="0.02" stop-color="#FACD88"/>
<stop offset="0.03" stop-color="#F8BF67"/>
<stop offset="0.04" stop-color="#F7B44E"/>
<stop offset="0.05" stop-color="#F7AD3C"/>
<stop offset="0.06" stop-color="#F6A831"/>
<stop offset="0.07" stop-color="#F6A72E"/>
<stop offset="0.13" stop-color="#F7B44E"/>
<stop offset="0.24" stop-color="#FACB83"/>
<stop offset="0.34" stop-color="#FCDEB0"/>
<stop offset="0.44" stop-color="#FDECD2"/>
<stop offset="0.54" stop-color="#FEF7EB"/>
<stop offset="0.63" stop-color="#FFFDFA"/>
<stop offset="0.7" stop-color="white"/>
<stop offset="0.75" stop-color="#FFFEFC"/>
<stop offset="0.78" stop-color="#FEF9F2"/>
<stop offset="0.82" stop-color="#FEF2E0"/>
<stop offset="0.85" stop-color="#FDE8C8"/>
<stop offset="0.89" stop-color="#FBDBA9"/>
<stop offset="0.92" stop-color="#FACB83"/>
<stop offset="0.93" stop-color="#F9C473"/>
<stop offset="0.96" stop-color="#F9C575"/>
<stop offset="0.97" stop-color="#F9C87C"/>
<stop offset="0.98" stop-color="#FBD498"/>
<stop offset="0.99" stop-color="#FDE8CA"/>
<stop offset="1" stop-color="white"/>
</linearGradient>
<linearGradient id="paint40_linear" x1="303.523" y1="87.7682" x2="270.24" y2="107.781" gradientUnits="userSpaceOnUse">
<stop stop-color="white"/>
<stop offset="0.01" stop-color="#FCDDAF"/>
<stop offset="0.02" stop-color="#FACD88"/>
<stop offset="0.03" stop-color="#F8BF67"/>
<stop offset="0.04" stop-color="#F7B44E"/>
<stop offset="0.05" stop-color="#F7AD3C"/>
<stop offset="0.06" stop-color="#F6A831"/>
<stop offset="0.07" stop-color="#F6A72E"/>
<stop offset="0.13" stop-color="#F7B44E"/>
<stop offset="0.24" stop-color="#FACB83"/>
<stop offset="0.34" stop-color="#FCDEB0"/>
<stop offset="0.44" stop-color="#FDECD2"/>
<stop offset="0.54" stop-color="#FEF7EB"/>
<stop offset="0.63" stop-color="#FFFDFA"/>
<stop offset="0.7" stop-color="white"/>
<stop offset="0.75" stop-color="#FFFEFC"/>
<stop offset="0.78" stop-color="#FEF9F2"/>
<stop offset="0.82" stop-color="#FEF2E0"/>
<stop offset="0.85" stop-color="#FDE8C8"/>
<stop offset="0.89" stop-color="#FBDBA9"/>
<stop offset="0.92" stop-color="#FACB83"/>
<stop offset="0.93" stop-color="#F9C473"/>
<stop offset="0.96" stop-color="#F9C575"/>
<stop offset="0.97" stop-color="#F9C87C"/>
<stop offset="0.98" stop-color="#FBD498"/>
<stop offset="0.99" stop-color="#FDE8CA"/>
<stop offset="1" stop-color="white"/>
</linearGradient>
<clipPath id="clip0">
<rect width="98.6211" height="98.6211" fill="white" transform="translate(3.09961 49.3115) rotate(-30)"/>
</clipPath>
<clipPath id="clip1">
<rect width="43.3583" height="43.3583" fill="white" transform="matrix(-0.698453 -0.715656 0.715647 -0.698462 41.0769 426.108)"/>
</clipPath>
</defs>
</svg>
