<svg width="199" height="207" viewBox="0 0 199 207" fill="none" xmlns="http://www.w3.org/2000/svg">
<g filter="url(#filter0_d)">
<path d="M62.5276 158.302L121.363 145.177C121.363 145.177 124.126 144.483 125.416 140.844C126.707 137.205 150.058 84.4095 150.058 84.4095C150.058 84.4095 151.951 81.1524 149.488 78.3911C147.025 75.6298 103.941 32.4624 103.941 32.4624C103.941 32.4624 102.534 30.3557 95.0304 31.4484C87.5265 32.5411 42.0668 38.9502 42.0668 38.9502C42.0668 38.9502 37.6531 39.2699 35.4404 45.2011C33.2277 51.1323 15.1477 102.705 15.1477 102.705C15.1477 102.705 13.8481 105.311 17.0571 109.172C20.2661 113.034 56.7582 155.702 56.7582 155.702C56.7582 155.702 59.2747 158.553 62.5276 158.302Z" fill="url(#paint0_linear)"/>
<path d="M150.058 84.4104C150.058 84.4104 151.951 81.1533 149.488 78.392C149.321 78.2067 148.963 77.8201 148.446 77.2938L87.228 90.1776C87.228 90.1776 87.8746 93.5345 86.0938 95.5078C84.4872 97.2905 139.222 86.8186 149.909 84.7599C150.005 84.5329 150.058 84.4104 150.058 84.4104Z" fill="url(#paint1_linear)"/>
<path d="M35.5731 44.8422L82.1685 93.0306C82.1685 93.0306 83.4302 89.1091 87.2233 90.1764C90.532 91.1067 52.6817 49.5048 42.9253 38.8265L42.0507 38.941C42.0507 38.941 37.8274 39.2721 35.5731 44.8422Z" fill="url(#paint2_linear)"/>
<path d="M87.2232 90.1766L149.733 78.7072C149.651 78.6011 149.578 78.4965 149.483 78.391C147.017 75.6293 103.936 32.4623 103.936 32.4623C103.936 32.4623 102.529 30.3556 95.0253 31.4483C87.5213 32.541 42.0617 38.9502 42.0617 38.9502C41.4103 39.0375 40.7781 39.2327 40.1909 39.5278L87.2232 90.1766Z" fill="#F1F2F2"/>
<path d="M86.0894 95.5063C83.5516 95.998 82.1688 93.0302 82.1688 93.0302L54.8482 153.485L56.7316 155.698C56.7316 155.698 59.2589 158.543 62.5186 158.296L66.5976 157.386C71.4459 143.57 88.269 95.0861 86.0894 95.5063Z" fill="url(#paint3_linear)"/>
<path d="M150.568 83.0687L86.088 95.5147L61.1242 158.23C61.5858 158.318 62.0572 158.346 62.5261 158.311L121.361 145.185C121.361 145.185 124.124 144.491 125.415 140.852C126.705 137.214 150.057 84.418 150.057 84.418C150.283 83.9915 150.455 83.5382 150.568 83.0687Z" fill="#6D6E71"/>
<path d="M82.1687 93.0304L36.34 43.2381C35.9792 43.8644 35.6726 44.5204 35.4234 45.1988C33.2107 51.13 15.1307 102.703 15.1307 102.703C15.1307 102.703 13.8311 105.308 17.0401 109.17C20.2491 113.032 56.7412 155.7 56.7412 155.7C56.7412 155.7 56.914 155.894 57.2216 156.174L82.1687 93.0304Z" fill="#D1D3D4"/>
<path d="M69.8389 50.7749C68.5551 53.1779 64.1365 53.317 59.9718 51.0874C55.8071 48.8578 53.4838 45.1027 54.758 42.6982C56.0322 40.2938 60.4624 40.1589 64.6271 42.3885C68.7918 44.6181 71.1273 48.3751 69.8389 50.7749Z" fill="url(#paint4_linear)"/>
<path d="M83.3606 64.8444C82.0743 67.247 77.6558 67.3861 73.4911 65.1565C69.3264 62.9269 67.003 59.1717 68.2769 56.7697C69.5507 54.3677 73.9817 54.228 78.1464 56.4576C82.3111 58.6871 84.6454 62.4514 83.3606 64.8444Z" fill="url(#paint5_linear)"/>
<path d="M97.7689 79.6667C96.4826 82.0693 92.0641 82.2084 87.8998 79.9764C83.7354 77.7444 81.4114 73.994 82.6856 71.5896C83.9598 69.1852 88.3904 69.0479 92.5575 71.2778C96.7246 73.5078 99.0552 77.264 97.7689 79.6667Z" fill="url(#paint6_linear)"/>
<path d="M107.482 44.936C106.24 47.2543 101.845 47.3181 97.6626 45.0784C93.4797 42.8386 91.0932 39.1429 92.3323 36.8243C93.5714 34.5058 97.9707 34.445 102.154 36.6848C106.336 38.9245 108.723 42.6178 107.482 44.936Z" fill="url(#paint7_linear)"/>
<path d="M121.172 58.8656C119.931 61.1838 115.534 61.2448 111.351 59.0051C107.168 56.7654 104.781 53.0721 106.023 50.7539C107.264 48.4357 111.662 48.3722 115.845 50.6119C120.027 52.8516 122.414 56.5473 121.172 58.8656Z" fill="url(#paint8_linear)"/>
<path d="M135.761 73.5249C134.522 75.8435 130.125 75.9045 125.942 73.6648C121.759 71.4251 119.372 67.7318 120.611 65.4132C121.85 63.0946 126.252 63.0343 130.435 65.274C134.618 67.5137 137.004 71.2119 135.761 73.5249Z" fill="url(#paint9_linear)"/>
<path d="M58.9176 133.693C59.146 138.369 56.9184 142.275 53.9427 142.42C50.967 142.565 48.3701 138.892 48.1438 134.219C47.9174 129.546 50.1454 125.637 53.1187 125.492C56.092 125.346 58.6913 129.02 58.9176 133.693Z" fill="url(#paint10_linear)"/>
<path d="M73.3476 94.1659C73.5764 98.8394 71.3484 102.748 68.3727 102.893C65.397 103.038 62.8001 99.3645 62.5738 94.6914C62.3475 90.0183 64.573 86.1092 67.5487 85.9644C70.5244 85.8195 73.1189 89.4924 73.3476 94.1659Z" fill="url(#paint11_linear)"/>
<path d="M45.6988 64.4231C45.9251 69.0962 43.7 73.0029 40.7219 73.1474C37.7437 73.2919 35.1489 69.6214 34.9226 64.9483C34.6963 60.2751 36.9242 56.3664 39.8975 56.2212C42.8708 56.076 45.4705 59.7472 45.6988 64.4231Z" fill="url(#paint12_linear)"/>
<path d="M51.7396 98.7528C51.9684 103.426 49.7404 107.335 46.7651 107.477C43.7897 107.62 41.1897 103.951 40.9658 99.2784C40.7419 94.6056 42.965 90.6961 45.9407 90.5513C48.9164 90.4064 51.5123 94.0697 51.7396 98.7528Z" fill="url(#paint13_linear)"/>
<path d="M110.426 123.735C106.919 127.241 102.522 128.529 100.603 126.611C98.6853 124.693 99.9696 120.295 103.475 116.788C106.98 113.282 111.379 111.994 113.297 113.912C115.215 115.83 113.929 120.225 110.426 123.735Z" fill="url(#paint14_linear)"/>
<path d="M137.168 101.317C133.66 104.826 129.265 106.114 127.348 104.194C125.43 102.274 126.713 97.8801 130.218 94.3734C133.723 90.8667 138.123 89.5767 140.039 91.4942C141.955 93.4116 140.673 97.8104 137.168 101.317Z" fill="url(#paint15_linear)"/>
<path style="mix-blend-mode:screen" d="M97.4073 115.152C101.178 112.806 104.168 109.395 106.001 105.35C107.833 101.305 108.424 96.807 107.7 92.4256C106.975 88.0443 104.968 83.9761 101.932 80.7354C98.8958 77.4948 94.9667 75.2273 90.6417 74.2197C86.3168 73.212 81.7901 73.5095 77.6342 75.0746C73.4783 76.6396 69.8798 79.4018 67.2938 83.012C64.7078 86.6221 63.2504 90.918 63.1059 95.3565C62.9614 99.7949 64.1363 104.177 66.482 107.947C68.0392 110.451 70.0745 112.624 72.4715 114.341C74.8686 116.058 77.5804 117.287 80.4522 117.956C83.324 118.625 86.2994 118.721 89.2086 118.24C92.1178 117.759 94.9037 116.71 97.4073 115.152Z" fill="url(#paint16_radial)"/>
<path d="M116.267 126.957L116.385 127.676L117.108 127.785L116.461 128.121L116.579 128.839L116.06 128.327L115.413 128.663L115.741 128.013L115.222 127.501L115.942 127.61L116.267 126.957Z" fill="white"/>
</g>
<defs>
<filter id="filter0_d" x="14.8705" y="31.1338" width="183.883" height="175.191" filterUnits="userSpaceOnUse" color-interpolation-filters="sRGB">
<feFlood flood-opacity="0" result="BackgroundImageFix"/>
<feColorMatrix in="SourceAlpha" type="matrix" values="0 0 0 0 0 0 0 0 0 0 0 0 0 0 0 0 0 0 127 0"/>
<feOffset dx="24" dy="24"/>
<feGaussianBlur stdDeviation="12"/>
<feColorMatrix type="matrix" values="0 0 0 0 0 0 0 0 0 0 0 0 0 0 0 0 0 0 0.32 0"/>
<feBlend mode="normal" in2="BackgroundImageFix" result="effect1_dropShadow"/>
<feBlend mode="normal" in="SourceGraphic" in2="effect1_dropShadow" result="shape"/>
</filter>
<linearGradient id="paint0_linear" x1="148395" y1="250413" x2="149801" y2="255161" gradientUnits="userSpaceOnUse">
<stop offset="0.21" stop-color="#F1F2F2"/>
<stop offset="0.25" stop-color="#E9EAEA"/>
<stop offset="0.62" stop-color="#909193"/>
<stop offset="0.76" stop-color="#6D6E71"/>
</linearGradient>
<linearGradient id="paint1_linear" x1="87906.7" y1="59666" x2="87907.3" y2="60437" gradientUnits="userSpaceOnUse">
<stop offset="0.18" stop-color="#F1F2F2"/>
<stop offset="0.25" stop-color="#DEDFDF"/>
<stop offset="0.5" stop-color="#A1A2A4"/>
<stop offset="0.68" stop-color="#7B7C7F"/>
<stop offset="0.78" stop-color="#6D6E71"/>
</linearGradient>
<linearGradient id="paint2_linear" x1="63652.8" y1="88173" x2="62848.7" y2="89052.7" gradientUnits="userSpaceOnUse">
<stop stop-color="#F1F2F2"/>
<stop offset="0.43" stop-color="#E3E4E4"/>
<stop offset="1" stop-color="#C9CACC"/>
</linearGradient>
<linearGradient id="paint3_linear" x1="11837.1" y1="129169" x2="12324.5" y2="129283" gradientUnits="userSpaceOnUse">
<stop stop-color="#E8E9E9"/>
<stop offset="0.29" stop-color="#C0C2C3"/>
<stop offset="0.59" stop-color="#9D9FA1"/>
<stop offset="0.84" stop-color="#888A8D"/>
<stop offset="1" stop-color="#808285"/>
</linearGradient>
<linearGradient id="paint4_linear" x1="18085.8" y1="19889.5" x2="19184.9" y2="20055.3" gradientUnits="userSpaceOnUse">
<stop stop-color="#353234"/>
<stop offset="0.06" stop-color="#292729"/>
<stop offset="0.2" stop-color="#171617"/>
<stop offset="0.36" stop-color="#0A090A"/>
<stop offset="0.57" stop-color="#020202"/>
<stop offset="1"/>
</linearGradient>
<linearGradient id="paint5_linear" x1="19055" y1="20585.5" x2="20154.3" y2="20751.3" gradientUnits="userSpaceOnUse">
<stop stop-color="#353234"/>
<stop offset="0.06" stop-color="#292729"/>
<stop offset="0.2" stop-color="#171617"/>
<stop offset="0.36" stop-color="#0A090A"/>
<stop offset="0.57" stop-color="#020202"/>
<stop offset="1"/>
</linearGradient>
<linearGradient id="paint6_linear" x1="20084.8" y1="21324.1" x2="21184.1" y2="21489.9" gradientUnits="userSpaceOnUse">
<stop stop-color="#353234"/>
<stop offset="0.06" stop-color="#292729"/>
<stop offset="0.2" stop-color="#171617"/>
<stop offset="0.36" stop-color="#0A090A"/>
<stop offset="0.57" stop-color="#020202"/>
<stop offset="1"/>
</linearGradient>
<linearGradient id="paint7_linear" x1="20753.4" y1="19363.6" x2="21859" y2="19530.3" gradientUnits="userSpaceOnUse">
<stop stop-color="#353234"/>
<stop offset="0.06" stop-color="#292729"/>
<stop offset="0.2" stop-color="#171617"/>
<stop offset="0.36" stop-color="#0A090A"/>
<stop offset="0.57" stop-color="#020202"/>
<stop offset="1"/>
</linearGradient>
<linearGradient id="paint8_linear" x1="21737.6" y1="20043" x2="22843.3" y2="20209.8" gradientUnits="userSpaceOnUse">
<stop stop-color="#353234"/>
<stop offset="0.06" stop-color="#292729"/>
<stop offset="0.2" stop-color="#171617"/>
<stop offset="0.36" stop-color="#0A090A"/>
<stop offset="0.57" stop-color="#020202"/>
<stop offset="1"/>
</linearGradient>
<linearGradient id="paint9_linear" x1="22785.2" y1="20756.1" x2="23890.9" y2="20922.9" gradientUnits="userSpaceOnUse">
<stop stop-color="#353234"/>
<stop offset="0.06" stop-color="#292729"/>
<stop offset="0.2" stop-color="#171617"/>
<stop offset="0.36" stop-color="#0A090A"/>
<stop offset="0.57" stop-color="#020202"/>
<stop offset="1"/>
</linearGradient>
<linearGradient id="paint10_linear" x1="9452.29" y1="33901.2" x2="9951.79" y2="33976.6" gradientUnits="userSpaceOnUse">
<stop stop-color="#353234"/>
<stop offset="0.06" stop-color="#292729"/>
<stop offset="0.2" stop-color="#171617"/>
<stop offset="0.36" stop-color="#0A090A"/>
<stop offset="0.57" stop-color="#020202"/>
<stop offset="1"/>
</linearGradient>
<linearGradient id="paint11_linear" x1="10266.9" y1="31114.1" x2="10766.4" y2="31189.4" gradientUnits="userSpaceOnUse">
<stop stop-color="#353234"/>
<stop offset="0.06" stop-color="#292729"/>
<stop offset="0.2" stop-color="#171617"/>
<stop offset="0.36" stop-color="#0A090A"/>
<stop offset="0.57" stop-color="#020202"/>
<stop offset="1"/>
</linearGradient>
<linearGradient id="paint12_linear" x1="9070.02" y1="29145.4" x2="9569.59" y2="29220.8" gradientUnits="userSpaceOnUse">
<stop stop-color="#353234"/>
<stop offset="0.06" stop-color="#292729"/>
<stop offset="0.2" stop-color="#171617"/>
<stop offset="0.36" stop-color="#0A090A"/>
<stop offset="0.57" stop-color="#020202"/>
<stop offset="1"/>
</linearGradient>
<linearGradient id="paint13_linear" x1="9234.13" y1="31500.4" x2="9733.6" y2="31575.7" gradientUnits="userSpaceOnUse">
<stop stop-color="#353234"/>
<stop offset="0.06" stop-color="#292729"/>
<stop offset="0.2" stop-color="#171617"/>
<stop offset="0.36" stop-color="#0A090A"/>
<stop offset="0.57" stop-color="#020202"/>
<stop offset="1"/>
</linearGradient>
<linearGradient id="paint14_linear" x1="15502.7" y1="31147.7" x2="16217.5" y2="31255.6" gradientUnits="userSpaceOnUse">
<stop stop-color="#353234"/>
<stop offset="0.06" stop-color="#292729"/>
<stop offset="0.2" stop-color="#171617"/>
<stop offset="0.36" stop-color="#0A090A"/>
<stop offset="0.57" stop-color="#020202"/>
<stop offset="1"/>
</linearGradient>
<linearGradient id="paint15_linear" x1="17018.7" y1="29659.2" x2="17733.5" y2="29767" gradientUnits="userSpaceOnUse">
<stop stop-color="#353234"/>
<stop offset="0.06" stop-color="#292729"/>
<stop offset="0.2" stop-color="#171617"/>
<stop offset="0.36" stop-color="#0A090A"/>
<stop offset="0.57" stop-color="#020202"/>
<stop offset="1"/>
</linearGradient>
<radialGradient id="paint16_radial" cx="0" cy="0" r="1" gradientUnits="userSpaceOnUse" gradientTransform="translate(19060.1 65851.7) rotate(8.57815) scale(3085.06 3085.13)">
<stop stop-color="white"/>
<stop offset="0.1" stop-color="#EEEEEE"/>
<stop offset="0.3" stop-color="#C0C0C0"/>
<stop offset="0.58" stop-color="#777777"/>
<stop offset="0.93" stop-color="#141414"/>
<stop offset="1"/>
</radialGradient>
</defs>
</svg>
