<svg width="433" height="486" fill="none" xmlns="http://www.w3.org/2000/svg"><path fill="#6B66C4" d="M381.337 385.273h-55.44V485.95h55.44z"/><path fill="#6B66C4" d="M373.782 377.874h-42.511v7.568h42.511zm-9.843-8.52h-22.772v7.568h22.772zm-5.001-7.736h-12.822v7.568h12.822z"/><path fill="#D5D3F4" d="M379.156 476.309h-53.259v3.027h53.259zm0-12.501h-53.259v3.027h53.259zm0 5.662h-53.259v3.027h53.259zm0-11.884h-53.259v3.027h53.259zm0-6.278h-53.259v3.027h53.259zm0-6.223h-53.259v3.027h53.259zm0-6.222h-53.259v3.027h53.259zm0-6.278h-53.259v3.027h53.259zm0-6.223h-53.259v3.027h53.259zm0-6.278h-53.259v3.027h53.259zm0-12.444h-53.259v3.027h53.259zm0 6.222h-53.259v3.027h53.259zm0-12.501h-53.259v3.027h53.259zm0-6.221h-53.259v3.027h53.259zm0-6.279h-53.259v3.027h53.259z"/><path fill="#7978C7" d="M322.066 289.697h-33.041v196.252h33.041z"/><path fill="#D5D3F4" d="M320.736 472.777h-31.764v4.092h31.764zm0-8.52h-31.764v4.092h31.764zm0-8.577h-31.764v4.092h31.764zm0-8.521h-31.764v4.092h31.764zm0-8.52h-31.764v4.092h31.764zm0-8.577h-31.764v4.092h31.764zm0-8.52h-31.764v4.092h31.764zm0-8.521h-31.764v4.092h31.764zm0-8.577h-31.764v4.092h31.764zm0-8.52h-31.764v4.092h31.764zm0-8.521h-31.764v4.092h31.764zm0-8.576h-31.764v4.092h31.764zm0-8.52h-31.764v4.092h31.764zm0-8.521h-31.764v4.092h31.764zm0-8.577h-31.764v4.092h31.764zm0-8.521h-31.764v4.092h31.764zm0-8.52h-31.764v4.092h31.764zm0-8.576h-31.764v4.092h31.764zm0-8.521h-31.764v4.092h31.764zm0-8.52h-31.764v4.092h31.764zm0-8.577h-31.764v4.092h31.764zm0-8.521h-31.764v4.092h31.764z"/><path d="M89.824 307.748l40.809-34.755V485.95H89.824V307.748z" fill="#9393CA"/><path fill="#D5D3F4" d="M97.539 476.252h-5.374v5.662h5.374zm7.715 0H99.88v5.662h5.374zm7.661 0h-5.374v5.662h5.374zm7.662 0h-5.374v5.662h5.374zm7.715 0h-5.374v5.662h5.374zm-30.753-8.464h-5.374v5.662h5.374zm7.715 0H99.88v5.662h5.374zm7.661 0h-5.374v5.662h5.374zm7.662 0h-5.374v5.662h5.374zm7.715 0h-5.374v5.662h5.374zm-30.753-8.52h-5.374v5.662h5.374zm7.715 0H99.88v5.662h5.374zm7.661 0h-5.374v5.662h5.374zm7.662 0h-5.374v5.662h5.374zm7.715 0h-5.374v5.662h5.374zm-30.753-8.465h-5.374v5.662h5.374zm7.715 0H99.88v5.662h5.374zm7.661 0h-5.374v5.662h5.374zm7.662 0h-5.374v5.662h5.374zm7.715 0h-5.374v5.662h5.374zm-30.753-8.464h-5.374v5.662h5.374zm7.715 0H99.88v5.662h5.374zm7.661 0h-5.374v5.662h5.374zm7.662 0h-5.374v5.662h5.374zm7.715 0h-5.374v5.662h5.374zm-30.753-8.465h-5.374v5.662h5.374zm7.715 0H99.88v5.662h5.374zm7.661 0h-5.374v5.662h5.374zm7.662 0h-5.374v5.662h5.374zm7.715 0h-5.374v5.662h5.374zm-30.753-8.52h-5.374v5.662h5.374zm7.715 0H99.88v5.662h5.374zm7.661 0h-5.374v5.662h5.374zm7.662 0h-5.374v5.662h5.374zm7.715 0h-5.374v5.662h5.374zm-30.753-8.465h-5.374v5.662h5.374zm7.715 0H99.88v5.662h5.374zm7.661 0h-5.374v5.662h5.374zm7.662 0h-5.374v5.662h5.374zm7.715 0h-5.374v5.662h5.374zm-30.753-8.464h-5.374v5.662h5.374zm7.715 0H99.88v5.662h5.374zm7.661 0h-5.374v5.662h5.374zm7.662 0h-5.374v5.662h5.374zm7.715 0h-5.374v5.662h5.374zm-30.753-8.465h-5.374v5.662h5.374zm7.715 0H99.88v5.662h5.374zm7.661 0h-5.374v5.662h5.374zm7.662 0h-5.374v5.662h5.374zm7.715 0h-5.374v5.662h5.374zm-30.753-8.521h-5.374v5.662h5.374zm7.715 0H99.88v5.662h5.374zm7.661 0h-5.374v5.662h5.374zm7.662 0h-5.374v5.662h5.374zm7.715 0h-5.374v5.662h5.374zm-30.753-8.464h-5.374v5.662h5.374zm7.715 0H99.88v5.662h5.374zm7.661 0h-5.374v5.662h5.374zm7.662 0h-5.374v5.662h5.374zm7.715 0h-5.374v5.662h5.374zm-30.753-8.464h-5.374v5.662h5.374zm7.715 0H99.88v5.662h5.374zm7.661 0h-5.374v5.662h5.374zm7.662 0h-5.374v5.662h5.374zm7.715 0h-5.374v5.662h5.374zm-30.753-8.521h-5.374v5.662h5.374zm7.715 0H99.88v5.662h5.374zm7.661 0h-5.374v5.662h5.374zm7.662 0h-5.374v5.662h5.374zm7.715 0h-5.374v5.662h5.374zm-30.753-8.465h-5.374v5.662h5.374zm7.715 0H99.88v5.662h5.374zm7.661 0h-5.374v5.662h5.374zm7.662 0h-5.374v5.662h5.374zm7.715 0h-5.374v5.662h5.374zm-30.753-8.463h-5.374v5.662h5.374zm7.715 0H99.88v5.662h5.374zm7.661 0h-5.374v5.662h5.374zm7.662 0h-5.374v5.662h5.374zm7.715 0h-5.374v5.662h5.374zm-30.753-8.465h-5.374v5.662h5.374zm7.715 0H99.88v5.662h5.374zm7.661 0h-5.374v5.662h5.374zm7.662 0h-5.374v5.662h5.374zm7.715 0h-5.374v5.662h5.374zm-30.753-8.521h-5.374v5.662h5.374zm7.715 0H99.88v5.662h5.374zm7.661 0h-5.374v5.662h5.374zm7.662 0h-5.374v5.662h5.374zm7.715 0h-5.374v5.662h5.374zm-30.753-8.465h-5.374v5.662h5.374zm7.715 0H99.88v5.662h5.374zm7.661 0h-5.374v5.662h5.374zm7.662 0h-5.374v5.662h5.374zm7.715 0h-5.374v5.662h5.374zm-30.753-8.464h-5.374v5.662h5.374zm7.715 0H99.88v5.662h5.374zm7.661 0h-5.374v5.662h5.374zm7.662 0h-5.374v5.662h5.374zm7.715 0h-5.374v5.662h5.374zm-23.038-8.52H99.88v5.662h5.374zm7.661 0h-5.374v5.662h5.374zm7.662 0h-5.374v5.662h5.374zm7.715 0h-5.374v5.662h5.374zm-15.377-8.465h-5.374v5.662h5.374zm7.662 0h-5.374v5.662h5.374zm7.715 0h-5.374v5.662h5.374zm-7.715-8.465h-5.374v5.662h5.374zm7.715 0h-5.374v5.662h5.374zm0-8.464h-5.374v5.662h5.374z"/><path fill="#6B66C4" d="M259.922 406.351H210.76v79.6h49.162z"/><path fill="#D5D3F4" d="M259.922 474.066h-53.099v4.372h53.099zm0-9.305h-53.099v4.372h53.099zm0-9.306h-53.099v4.372h53.099zm0-9.361h-53.099v4.372h53.099zm0-9.305h-53.099v4.372h53.099zm0-9.361h-53.099v4.372h53.099zm0-9.306h-53.099v4.372h53.099zm0-9.305h-53.099v4.372h53.099z"/><path d="M33.214 264.977l-.48.337c.267.056.48.056.48-.337M.81 204.997l-.159-.056.053.168.107-.112z" fill="#DF8F2F"/><path d="M300.092 226.298s2.554-1.625 3.831-2.186c1.33-.56 1.65.617 1.277 1.121-.372.449 6.438-.392 5.693 1.346-.745 1.738-5.001 2.915-7.129 2.186-2.129-.729-4.682 1.121-4.682 1.121s-1.118-.673-1.011-1.457c.159-.785 2.021-2.131 2.021-2.131" fill="#E29F7B"/><path d="M275.937 240.368c5.746-3.755 13.195-8.184 22.825-13.453l1.49 2.747s-10.216 8.913-19.846 17.265c-4.256 2.579-7.768-3.363-4.469-6.559" fill="#7978C7"/><path d="M255.932 241.938c-2.66-.953-5.161-2.635-3.778-5.325 1.331-1.514.958-7.68 26.976 3.139 5.373 2.41 2.713 8.632-2.288 7.679-10.109-2.522-19.686-5.045-20.91-5.493" fill="#7978C7"/><path d="M255.931 241.938c-2.66-.953-5.161-2.635-3.777-5.325.638-.673.904-2.355 3.458-2.915 10.322 4.428 10.588 9.585 20.484 13.565-9.47-3.755-18.994-4.877-20.165-5.325" fill="#5752B7"/><path d="M237.31 282.299s14.525 9.753 28.146-3.756c-1.49-11.492-1.969-12.669-3.246-27.972s-.106-17.153-7.715-18.387c-7.555-1.233-21.176 3.476-22.08 5.102-.851 1.569 3.245 40.36 4.895 45.013" fill="#7978C7"/><path d="M261.944 247.319c-3.139 2.523-6.598 4.597-10.109 6.559-3.884 2.13-7.874 4.204-12.184 5.101a19.356 19.356 0 01-5.693.336c1.117 10.259 2.501 20.741 3.299 22.983 0 0 14.525 9.754 28.145-3.755-1.489-11.492-1.968-12.669-3.245-27.972-.053-1.178-.16-2.243-.213-3.252" fill="#5752B7"/><path d="M243.588 366.046h3.671s4.789-64.24 5.108-71.639c3.139 10.818 6.651 20.796 8.141 25.561 2.341 7.736-4.257 38.062-4.257 38.062l4.948.953s8.513-29.766 8.992-39.239c.532-11.436-5.055-28.757-6.544-39.015-9.95-2.018-22.24.168-26.39 0 .638 3.531.745 21.974 1.489 37.109.745 15.135 4.842 48.208 4.842 48.208" fill="#3F3E5A"/><path d="M195.756 265.538s-4.097.392-5.107 2.298c-1.011 1.906-.745 4.428 1.064 5.269 1.862.841 3.777-4.54 3.777-4.54l1.49-1.626-1.224-1.401z" fill="#E29F7B"/><path d="M214.591 250.066c-5.64 3.924-12.663 9.418-21.282 16.313l1.702 2.578s11.972-5.942 23.304-11.547c4.044-2.915.426-9.138-3.724-7.344" fill="#7978C7"/><path d="M237.203 243.283c2.182-1.85 3.938-4.372 1.809-6.39-1.755-.953-3.458-6.839-24.208 12.949-4.203 4.26.319 9.081 4.682 6.334 8.619-6.166 16.76-12.052 17.717-12.893" fill="#7978C7"/><path d="M249.228 239.528l-.213 18.218 4.363 5.213s2.181-5.83 2.128-6.11c-.053-.224-5.108-17.49-5.108-17.49l-1.17.169z" fill="#262626"/><path d="M243.056 225.906c.213.392-.798 7.512-.585 7.736.213.224 3.618 1.065 5.746.672 2.873-.728 3.086-.896 3.086-.896s-1.064-8.241-1.011-9.922c-6.544.056-7.236 2.41-7.236 2.41" fill="#E29F7B"/><path d="M251.569 212.453c2.394 6.446.478 13.341-4.257 15.303-4.788 1.962-10.588-1.682-13.035-8.128-2.395-6.447-.479-13.341 4.256-15.303 4.789-1.962 10.588 1.681 13.036 8.128" fill="#E29F7B"/><path d="M241.885 229.886l-2.075 3.475s6.704 6.671 6.651 6.503c0-.168.638-5.998.532-6.054-.106-.056-5.108-3.924-5.108-3.924m7.662 3.419c0 .113 3.086 5.326 3.246 5.27.159-.056 1.011-6.783 1.011-6.783l-2.075-2.859-2.182 4.372z" fill="#5752B7"/><path d="M248.43 235.099l-.692 2.298 1.862 1.626 1.33-2.186-1.649-1.85-.851.112zm10.588 122.427c-1.224-.561-3.193 1.009-2.661 3.756.479 2.746.798 6.166 1.916 8.016 1.117 1.85 2.394 1.009 2.554.056.159-.953 1.915-7.624.266-10.09-1.224-1.85-2.075-1.85-2.075-1.85m-13.781 9.473c-1.277-.336-2.926 1.626-2.022 4.205.958 2.578 1.809 5.886 3.246 7.511 1.436 1.626 2.5.561 2.554-.392 0-.953.585-7.848-1.49-9.978-1.543-1.57-2.341-1.402-2.341-1.402m-5.639-142.27s-1.969 3.307-4.044.56c-2.075-2.746-5.321-6.11-5.533-9.641-.16-3.532 1.702-6.727 3.99-5.83 2.235.841 4.735.56 4.948 4.877.213 4.316-2.66 4.484-4.15 3.643-1.49-.897.585 2.523 1.809 2.579 1.277 0 4.203 1.738 2.98 3.812" fill="#262626"/><path d="M237.736 218.562c.478 1.29.106 2.691-.799 3.027-.904.393-2.075-.336-2.553-1.681-.479-1.29-.107-2.691.798-3.027.904-.393 2.075.392 2.554 1.681" fill="#E29F7B"/><path d="M233.586 209.93s2.181 2.635 7.927.168c5.746-2.466 8.353 1.626 9.418-.112 1.064-1.738 1.596-8.128-7.077-6.783-8.726 1.289-11.333 4.204-10.268 6.727" fill="#262626"/><path d="M203.258 277.029c-.319.112-4.15.785-4.15.785l-.585 24.889 6.172-1.514-1.437-24.16z" fill="#2E2E79"/><path d="M199.108 277.814c-1.383-.505-16.121-3.252-16.121-3.252s-1.436 19.62-1.649 19.788c-.213.225 17.238 8.353 17.238 8.353" fill="#5652B6"/><path d="M203.258 277.029l-16.121-3.699-4.097 1.233 16.068 3.251 4.15-.785z" fill="#5752B7"/><path d="M198.15 276.356l-.691-5.942-2.82-.896-.905.112-.106 1.121 2.235.729.212 4.596 1.331.393.744-.113zm-7.768-4.709l-.212 3.028-.639.056-1.33-.281 1.33-5.886s.798-.224.692.056c-.16.617-.426 1.962.159 3.027" fill="#2E2E79"/><path d="M203.152 278.262l-3.086.449-.213 8.688-.692.729-.053 14.014 5.267-1.121-1.223-22.759z" fill="#5752B7"/><path d="M198.576 277.646l-1.809 6.782-12.716-3.587-1.011-6.279 15.536 3.084z" fill="#6B66C4"/><path d="M232.096 246.366c.798-.392 1.649-.728 2.447-1.121h.053c-2.82 2.074-7.608 5.55-12.822 9.305.212-.224.372-.448.585-.672 1.756-1.85 3.724-3.476 5.693-5.045.426-.337.798-.673 1.277-.953.851-.617 1.809-1.065 2.767-1.514" fill="#5752B7"/><path fill-rule="evenodd" clip-rule="evenodd" d="M273.436 110.711a38.7 38.7 0 00-2.713 14.294c0 .561 0 1.121.106 1.794.426 10.314 4.682 19.507 11.28 26.066a36.83 36.83 0 0110.003 18.386l2.873 13.454c.532 2.634 1.968 4.933 3.937 6.502 1.915 1.57 4.363 2.411 6.97 2.298l7.715-.336c2.553-.112 4.948-1.233 6.757-2.971a11.39 11.39 0 003.405-6.839l1.756-13.958c.851-6.895 3.671-13.341 8.087-18.386 3.192-3.588 5.693-7.848 7.342-12.501 1.65-4.652 2.448-9.753 2.235-15.023-.426-10.538-4.895-19.899-11.705-26.514-6.864-6.615-16.068-10.483-26.071-10.034h-.266c-7.13.392-13.78 2.97-19.261 7.175a38.668 38.668 0 00-12.45 16.593zm21.815 59.699c-1.65-7.735-5.534-14.686-10.961-20.124-6.012-5.998-9.896-14.35-10.215-23.824-.053-.504-.053-1.065-.053-1.569a35.675 35.675 0 015.32-18.723c3.405-5.381 8.141-9.81 13.78-12.612a31.056 31.056 0 0112.184-3.196h.213c9.098-.448 17.452 3.084 23.677 9.082 6.225 6.054 10.268 14.518 10.641 24.104.16 4.82-.585 9.417-2.075 13.677a34.32 34.32 0 01-6.651 11.38c-4.948 5.605-7.981 12.724-8.938 20.292l-1.756 13.958a7.74 7.74 0 01-2.341 4.765c-1.224 1.233-2.873 2.018-4.682 2.074l-7.715.336a7.378 7.378 0 01-4.842-1.626 8.016 8.016 0 01-2.713-4.54l-2.873-13.454z" fill="#5652B6"/><path d="M274.021 126.575c.373 9.361 4.257 17.713 10.269 23.711 5.427 5.438 9.311 12.389 10.96 20.124l2.874 13.454a8.016 8.016 0 002.713 4.54 7.378 7.378 0 004.842 1.626l7.715-.336c1.808-.056 3.458-.841 4.682-2.074a7.74 7.74 0 002.341-4.765l1.755-13.958c.958-7.568 3.991-14.687 8.939-20.292a34.32 34.32 0 006.651-11.38 37.541 37.541 0 002.075-13.677c-.373-9.586-4.416-18.05-10.641-24.105-6.225-5.998-14.579-9.53-23.677-9.08h-.213a31.056 31.056 0 00-12.184 3.195c-5.64 2.802-10.375 7.231-13.78 12.612a35.676 35.676 0 00-5.321 18.723v1.682" fill="#C1C1F9" opacity=".4"/><path opacity=".598" d="M275.937 127.304c.373 8.856 4.044 16.704 9.684 22.366 5.161 5.101 8.779 11.66 10.321 19.003l2.661 12.725c.372 1.737 1.33 3.251 2.607 4.26 1.277 1.009 2.873 1.626 4.575 1.513l7.236-.336c1.703-.056 3.246-.785 4.417-1.906a7.447 7.447 0 002.234-4.484l1.65-13.173c.904-7.12 3.777-13.846 8.406-19.116 2.713-3.083 4.842-6.726 6.278-10.706 1.437-3.98 2.128-8.353 1.916-12.893-.373-9.025-4.204-17.041-10.056-22.703-5.853-5.662-13.78-8.969-22.347-8.576h-.212a29.496 29.496 0 00-11.493 3.026c-5.32 2.635-9.79 6.783-12.982 11.94-3.192 5.102-5.001 11.212-5.054 17.658.106.449.106.953.159 1.402" fill="#FDA109"/><path d="M307.062 170.915h3.459c1.277 0 2.341-1.121 2.341-2.467l-.053-4.26c0-1.345-1.065-2.466-2.341-2.466h-3.459c-1.277 0-2.341 1.121-2.341 2.466l.053 4.26c0 1.402 1.064 2.523 2.341 2.467m-7.183-37.277c-.372-1.738-.213-3.252.319-3.364.532-.112 1.277 1.178 1.65 2.915.319 1.458.266 2.803-.107 3.252l4.736 22.366-.479.112-4.736-22.366c-.478-.281-1.064-1.458-1.383-2.915" fill="#6B66C4"/><path d="M306.605 186.937l-.19-28.196-.532.004.19 28.196.532-.004zm10.619-53.468c.32-1.737.16-3.251-.372-3.363-.532-.112-1.277 1.177-1.649 2.971-.266 1.457-.213 2.803.159 3.251l-4.416 22.479.479.112 4.416-22.479c.532-.28 1.064-1.457 1.383-2.971" fill="#6B66C4"/><path d="M311.586 186.908l-.192-28.14-.532.004.192 28.14.532-.004zm3.776-49.627l-4.788 1.738-1.117-3.083-.479 4.877-.958-2.747-1.064 2.354-1.117-2.074-4.097-.953c-.107 0-.16-.112-.16-.224s.107-.168.213-.168l4.203 1.009.852 1.626 1.117-2.467.691 2.074.479-4.764 1.543 4.148 4.47-1.626c.106-.056.212 0 .212.112.107 0 .054.112 0 .168" fill="#6B66C4"/><path d="M275.721 164.005l-19.892-24.928-12.136 10.75 19.892 24.928 12.136-10.75z" fill="#7978C7"/><path d="M273.792 163.681l-18.009-22.568-10.181 9.018 18.009 22.568 10.181-9.018z" fill="#fff"/><path d="M271.957 163.726l-16.502-20.68-8.023 7.106 16.503 20.68 8.022-7.106z" fill="#C1C1F9"/><path d="M258.804 155.948c.054 0 .107 0 .16.056.319.112.639.337.905.673.106.112.212.224.319.28.159.112.372.168.585.168a.665.665 0 00.532-.224c.107-.112.16-.168.213-.336.053-.168.106-.393.053-.617a1.543 1.543 0 00-.266-.616c-.106-.113-.213-.225-.319-.281a1.034 1.034 0 00-.585-.168.665.665 0 00-.532.224l-.266-.336-.266-.336c.159-.168.372-.281.585-.337.319-.056.691-.056 1.011.056.319.113.638.337.904.673.16.224.319.449.373.673.106.336.159.728.106 1.065-.053.336-.213.672-.479.897-.159.168-.372.28-.585.336a2.176 2.176 0 01-.851 0c-.054 0-.107 0-.16-.056a2.028 2.028 0 01-.904-.673c-.107-.112-.213-.224-.32-.28a1.03 1.03 0 00-.585-.168.666.666 0 00-.532.224c-.106.112-.16.168-.213.336-.053.169-.106.393-.053.617.053.224.106.392.266.617.106.112.213.224.319.28.16.112.373.168.585.168a.668.668 0 00.533-.224l.532.673c-.16.168-.373.28-.586.336-.319.112-.691.056-1.011-.056a2.028 2.028 0 01-.904-.673c-.16-.224-.319-.448-.373-.673-.106-.336-.159-.728-.106-1.065.053-.336.213-.672.479-.896.16-.169.372-.281.585-.337.266-.056.585-.056.851 0" fill="#2E2E79"/><path d="M262.697 154.493l-.309-.386-5.7 5.051.308.386 5.701-5.051z" fill="#2E2E79"/><path d="M235.126 150.514l-6.333-31.878-15.52 3.422 6.334 31.879 15.519-3.423z" fill="#7978C7"/><path d="M233.569 149.201l-5.735-28.86-13.019 2.871 5.734 28.86 13.02-2.871z" fill="#fff"/><path d="M231.976 148.326l-5.255-26.446-10.259 2.263 5.255 26.446 10.259-2.263z" fill="#C1C1F9"/><path d="M224.008 134.927l.107.112c.213.28.425.617.479 1.009.053.168.106.28.159.392.107.169.266.337.426.393.16.112.372.112.532.056l.319-.168a.818.818 0 00.319-.505c.054-.224.054-.448.054-.673a2.931 2.931 0 00-.16-.392c-.106-.168-.266-.336-.426-.392a.602.602 0 00-.532-.056l-.106-.449-.106-.448c.212-.056.425-.056.638 0 .319.112.638.28.851.56.213.281.426.617.479 1.009.053.281.053.561 0 .785a2.137 2.137 0 01-.425 1.009c-.213.28-.479.449-.852.561a1.232 1.232 0 01-.638 0c-.266-.056-.532-.225-.745-.449l-.107-.112c-.212-.28-.425-.617-.478-1.009a2.931 2.931 0 00-.16-.392c-.106-.168-.266-.337-.426-.393-.159-.056-.372-.112-.532-.056-.106.056-.266.112-.319.168a.82.82 0 00-.319.505c-.053.224-.053.448-.053.673.053.168.106.28.159.392.107.168.266.336.426.392.16.112.372.112.532.056l.16.841a1.236 1.236 0 01-.639 0c-.319-.112-.638-.28-.851-.56-.213-.281-.426-.617-.479-1.009a1.952 1.952 0 010-.785c.053-.392.213-.729.426-1.009.212-.28.478-.449.851-.561.213-.056.426-.056.638 0 .32.168.586.281.798.505" fill="#2E2E79"/><path d="M227.875 135.476l-.098-.493-7.291 1.608.098.493 7.291-1.608z" fill="#2E2E79"/><path d="M226.374 186.409l-16.003-27.865-13.566 8.648 16.003 27.865 13.566-8.648z" fill="#7978C7"/><path d="M224.51 185.762l-14.489-25.228-11.38 7.255 14.488 25.228 11.381-7.255z" fill="#fff"/><path d="M222.727 185.478L209.45 162.36l-8.968 5.717 13.277 23.118 8.968-5.717z" fill="#C1C1F9"/><path d="M211.079 175.736c.054 0 .107.056.107.056.319.168.585.448.798.785.053.112.16.224.266.336.16.112.372.224.532.224.213 0 .372 0 .532-.112a.66.66 0 00.266-.28c.106-.168.16-.392.16-.561 0-.224-.054-.448-.16-.616-.053-.112-.16-.224-.266-.337-.16-.112-.372-.224-.532-.224-.213 0-.372 0-.532.112l-.213-.392-.213-.392c.213-.113.426-.169.639-.225.319-.056.691.056.957.225.32.168.586.448.799.784.159.225.212.505.266.729.053.392.053.729-.054 1.065a1.308 1.308 0 01-.638.785 2.9 2.9 0 01-.639.224c-.266 0-.585-.056-.851-.168-.053 0-.106-.056-.106-.056-.319-.168-.586-.449-.798-.785-.054-.112-.16-.224-.266-.336-.16-.112-.373-.224-.532-.224-.213 0-.373 0-.532.112a.662.662 0 00-.267.28 1.125 1.125 0 00-.159.56c0 .225.053.449.159.617.054.112.16.224.267.336.159.113.372.225.532.225.212 0 .372 0 .532-.112l.425.728a2.893 2.893 0 01-.638.224c-.319.057-.692-.056-.958-.224-.319-.168-.585-.448-.798-.785-.16-.224-.213-.504-.266-.728-.053-.393-.053-.729.053-1.065.107-.337.319-.617.639-.785.212-.112.425-.168.638-.224.266 0 .585.056.851.224" fill="#2E2E79"/><path d="M215.063 174.904l-.248-.432-6.371 4.065.248.431 6.371-4.064z" fill="#2E2E79"/><path d="M322.536 58.58l-30.909-.346-.169 16.703 30.91.346.168-16.703z" fill="#7978C7"/><path d="M321.033 59.908l-27.983-.313-.141 14.013 27.983.313.141-14.013z" fill="#fff"/><path d="M319.901 61.353l-25.642-.287-.111 11.042 25.642.287.111-11.042z" fill="#C1C1F9"/><path d="M305.785 66.875c.053 0 .053-.056.107-.056a2.31 2.31 0 011.064-.28c.159 0 .266 0 .425-.057a.774.774 0 00.479-.336c.107-.168.213-.336.213-.56 0-.113-.053-.28-.106-.393-.054-.168-.213-.336-.373-.448a1.029 1.029 0 00-.585-.169c-.16 0-.266 0-.426.056a.776.776 0 00-.479.337c-.106.168-.212.336-.212.56h-.852c0-.224.053-.448.16-.672.16-.337.372-.56.692-.73.319-.167.691-.28 1.064-.28.266 0 .532.057.745.169.319.112.638.336.851.616a1.55 1.55 0 01.159 1.626c-.106.28-.319.505-.585.673-.053 0-.053.056-.106.056-.319.168-.692.28-1.064.28-.16 0-.266 0-.426.056a.776.776 0 00-.479.337c-.106.168-.213.336-.213.56 0 .112.054.28.054.392.106.169.212.337.372.449.16.112.372.168.585.168.16 0 .266 0 .426-.056a.776.776 0 00.479-.336c.106-.169.213-.337.213-.56h.851c0 .223-.053.448-.16.672-.159.336-.372.56-.691.728-.32.169-.692.28-1.065.28-.266 0-.532-.055-.744-.167a1.89 1.89 0 01-.852-.617 1.55 1.55 0 01-.159-1.626 3.71 3.71 0 01.638-.672" fill="#2E2E79"/><path d="M307.276 62.836l-.478-.005-.079 7.847.479.005.078-7.847z" fill="#2E2E79"/><path d="M361.826 50.635l-27.079-15.712-7.649 14.634 27.08 15.71 7.648-14.632z" fill="#7978C7"/><path d="M359.886 51.11L335.37 36.885l-6.417 12.276 24.516 14.224 6.417-12.277z" fill="#fff"/><path d="M358.18 51.782l-22.465-13.034-5.056 9.673 22.465 13.034 5.056-9.673z" fill="#C1C1F9"/><path d="M343.455 49.442h.159c.373 0 .745.056 1.065.28.106.056.266.112.425.168.213.056.426 0 .585-.056.16-.056.32-.224.426-.392.053-.112.106-.225.106-.393s-.053-.392-.159-.56a1.669 1.669 0 00-.426-.449c-.106-.056-.266-.112-.425-.168-.213-.056-.426 0-.586.056-.159.056-.319.224-.425.393l-.373-.225-.372-.224c.106-.224.266-.392.425-.504.266-.225.586-.337.958-.337.373 0 .745.056 1.064.28.213.113.426.28.586.505.212.28.372.617.425.953.053.336 0 .729-.159 1.009a1.305 1.305 0 01-.426.505c-.213.168-.532.28-.798.336h-.16c-.372 0-.745-.056-1.064-.28a3.49 3.49 0 00-.426-.169c-.212-.056-.425 0-.585.056-.159.056-.319.225-.425.393a.834.834 0 00-.107.392c0 .168.053.393.16.56.106.169.266.337.425.45.107.055.266.111.426.167.213.056.426 0 .585-.056.16-.056.32-.224.426-.392l.745.392a1.306 1.306 0 01-.426.505 1.437 1.437 0 01-.958.336c-.372 0-.744-.056-1.064-.28a1.694 1.694 0 01-.585-.505 2.193 2.193 0 01-.426-.953c-.053-.336 0-.728.16-1.009.106-.224.266-.392.426-.504.213-.168.532-.28.798-.28" fill="#2E2E79"/><path d="M346.566 46.801l-.42-.243-3.594 6.874.42.243 3.594-6.874z" fill="#2E2E79"/><path d="M341.663 5.844L311.174.477l-2.613 16.475 30.489 5.368 2.613-16.476z" fill="#7978C7"/><path d="M339.992 6.915L312.39 2.056l-2.192 13.822 27.602 4.86 2.192-13.823z" fill="#fff"/><path d="M338.627 8.155l-25.293-4.453-1.728 10.892 25.294 4.453 1.727-10.892z" fill="#C1C1F9"/><path d="M323.982 11.267c.053 0 .106-.056.106-.056a2.387 2.387 0 011.117-.112h.426c.213-.056.372-.112.532-.28.16-.112.213-.28.266-.505v-.392a1.336 1.336 0 00-.319-.505c-.16-.112-.319-.224-.585-.28h-.426c-.213.056-.373.112-.532.28-.16.112-.213.28-.266.505l-.426-.056-.425-.056c.053-.225.106-.449.266-.617.212-.28.478-.504.798-.617.319-.112.691-.168 1.117-.112.266.056.479.112.692.28.319.169.585.45.745.785.159.337.212.673.159 1.01-.053.224-.106.448-.266.616-.16.224-.372.449-.692.56-.053 0-.106.057-.106.057a2.386 2.386 0 01-1.117.112h-.426c-.213.056-.372.112-.532.28-.16.112-.213.28-.266.505v.392c.053.168.16.336.319.505.16.112.373.224.585.28h.426c.213-.056.373-.112.532-.28.16-.113.213-.28.266-.505l.798.168c-.053.224-.106.449-.266.617-.213.28-.479.504-.798.616a2.388 2.388 0 01-1.117.113c-.266-.057-.479-.113-.692-.28a1.732 1.732 0 01-.745-.786c-.159-.336-.213-.672-.159-1.009.053-.224.106-.448.266-.616.266-.28.479-.449.745-.617" fill="#2E2E79"/><path d="M326.008 7.72l-.472-.082-1.23 7.74.472.083 1.23-7.74z" fill="#2E2E79"/><path d="M365.512 89.508l-21.914-22.97-11.183 11.841 21.914 22.971 11.183-11.842z" fill="#7978C7"/><path d="M363.549 89.347L343.71 68.55l-9.382 9.934 19.84 20.796 9.381-9.934z" fill="#fff"/><path d="M361.745 89.512l-18.18-19.057-7.392 7.829 18.179 19.056 7.393-7.828z" fill="#C1C1F9"/><path d="M348.19 83.131c.053 0 .107 0 .16.056.319.112.691.28.957.56.107.113.213.169.373.281.213.112.372.112.585.112a.553.553 0 00.479-.28c.106-.112.16-.224.213-.336a1.21 1.21 0 000-.617 1.18 1.18 0 00-.319-.56c-.107-.113-.213-.169-.373-.28-.159-.113-.372-.113-.585-.113a.553.553 0 00-.479.28l-.319-.28-.319-.28c.159-.168.372-.28.532-.393.319-.112.638-.112 1.011-.056.319.112.691.28.957.56.16.169.319.393.426.674.16.336.213.728.16 1.065-.054.336-.16.672-.426.953-.16.168-.373.28-.532.392-.266.112-.585.112-.851.056-.054 0-.107 0-.16-.056-.319-.112-.692-.28-.958-.56-.106-.113-.213-.169-.372-.28-.16-.113-.373-.113-.586-.113a.552.552 0 00-.478.28c-.107.112-.16.225-.213.337a1.21 1.21 0 000 .616c.053.224.159.393.319.56.106.113.213.169.372.281.16.112.373.112.586.112a.554.554 0 00.479-.28l.585.617c-.16.168-.373.28-.532.392-.319.112-.639.112-1.011.056-.319-.112-.692-.28-.958-.56a2.028 2.028 0 01-.425-.673c-.16-.337-.213-.729-.16-1.065.053-.337.16-.673.426-.953.159-.168.372-.28.585-.393.266-.168.532-.168.851-.112" fill="#2E2E79"/><path d="M351.787 81.368l-.339-.357-5.258 5.559.339.356 5.258-5.558z" fill="#2E2E79"/><path d="M400.344 114.447l-8.996-31.158-15.169 4.861 8.996 31.159 15.169-4.862z" fill="#7978C7"/><path d="M398.711 113.431l-8.144-28.209-12.726 4.078 8.144 28.209 12.726-4.078z" fill="#fff"/><path d="M397.054 112.711l-7.463-25.85-10.028 3.214 7.463 25.849 10.028-3.213z" fill="#C1C1F9"/><path d="M387.828 100.06l.107.112c.266.224.478.617.585 1.009.053.168.106.28.213.393.106.168.266.28.479.392.159.056.372.112.532 0 .106-.056.212-.112.319-.224.159-.112.213-.337.266-.505a1.44 1.44 0 000-.672.915.915 0 00-.213-.393c-.106-.168-.266-.28-.479-.392a.862.862 0 00-.532 0l-.106-.393-.107-.392c.213-.056.426-.056.639-.056.319.056.638.224.904.448.266.225.479.617.586 1.009.053.281.106.505.106.785 0 .393-.16.729-.319 1.009-.213.28-.479.505-.798.617-.213.056-.426.056-.639.056a1.761 1.761 0 01-.798-.393l-.106-.112c-.266-.224-.479-.616-.586-1.009a.916.916 0 00-.212-.392c-.107-.168-.266-.28-.479-.392-.16-.056-.373-.113-.532 0a1.113 1.113 0 00-.32.224c-.159.112-.212.336-.266.504a1.444 1.444 0 000 .673c.054.168.107.28.213.392.107.169.266.281.479.393.16.056.373.112.532 0l.266.841c-.213.056-.425.056-.638.056-.32-.056-.639-.225-.905-.449s-.479-.616-.585-1.009c-.053-.28-.106-.504-.106-.785 0-.392.159-.728.319-1.009.213-.28.479-.504.798-.616.213-.056.426-.056.638-.056.266 0 .532.112.745.336" fill="#2E2E79"/><path d="M391.695 100.444l-.14-.482-7.125 2.288.139.483 7.126-2.289z" fill="#2E2E79"/><path d="M417.072 62.867L398.784 36.61l-12.782 9.883 18.287 26.256 12.783-9.882z" fill="#7978C7"/><path d="M415.13 62.342l-16.557-23.77-10.723 8.29 16.556 23.77 10.724-8.29z" fill="#fff"/><path d="M413.343 62.237l-15.172-21.782-8.45 6.533 15.172 21.782 8.45-6.533z" fill="#C1C1F9"/><path d="M400.757 53.702c.053 0 .107.056.107.056.319.168.638.392.851.729l.319.336c.16.112.373.168.532.168a.865.865 0 00.532-.168c.107-.056.16-.168.266-.28.107-.169.107-.393.107-.56 0-.225-.107-.393-.213-.617a90.18 90.18 0 01-.319-.337.991.991 0 00-.532-.168.865.865 0 00-.532.168l-.267-.336-.266-.337c.16-.168.373-.224.586-.28.319-.056.691 0 1.011.112.319.168.638.393.851.729.16.224.266.448.319.729.107.392.107.728 0 1.065-.106.336-.266.616-.532.84-.16.169-.372.225-.585.28-.266.057-.585 0-.851-.055-.054 0-.107-.056-.107-.056-.319-.168-.638-.393-.851-.729l-.319-.336a.992.992 0 00-.532-.168.865.865 0 00-.532.168c-.107.056-.16.168-.267.28-.106.168-.106.392-.106.56 0 .225.106.393.213.617l.319.337c.16.112.373.168.532.168a.865.865 0 00.532-.168l.479.728c-.16.169-.372.224-.585.28-.319.057-.692 0-1.011-.111-.319-.169-.639-.393-.851-.73a1.787 1.787 0 01-.32-.728c-.106-.392-.106-.729 0-1.065.107-.336.266-.617.532-.84.16-.17.373-.225.586-.281.372-.112.638-.112.904 0" fill="#2E2E79"/><path d="M404.59 52.54l-.283-.406-6.008 4.639.283.407 6.008-4.64z" fill="#2E2E79"/><path d="M375.64 108.301l-15.739-2.008-3.716 32.331 15.74 2.008 3.715-32.331z" fill="#7978C7"/><path d="M374.186 109.695l-13.204-1.684-3.364 29.27 13.204 1.685 3.364-29.271z" fill="#fff"/><path d="M372.46 110.726l-10.405-1.328-3.086 26.821 10.405 1.329 3.086-26.822z" fill="#C1C1F9"/><path d="M365.961 122.37c0 .056.053.112.053.112.16.337.213.729.16 1.122v.448c.053.224.159.392.266.561.159.112.319.224.479.28.106 0 .266 0 .372-.056.16-.056.319-.168.479-.337.106-.168.213-.392.213-.616v-.449c-.053-.224-.16-.392-.266-.56-.16-.112-.32-.224-.479-.28l.053-.449.053-.448a2.9 2.9 0 01.639.224c.266.168.479.448.638.785.16.336.213.728.16 1.121-.053.28-.107.504-.213.785-.16.336-.426.616-.692.784-.266.169-.638.281-.957.225-.213-.056-.426-.112-.639-.225-.266-.168-.425-.392-.585-.672 0-.056-.053-.112-.053-.112a1.998 1.998 0 01-.16-1.122v-.448c-.053-.224-.16-.392-.266-.561-.16-.112-.319-.224-.479-.28-.106 0-.266 0-.372.056-.16.056-.319.168-.479.337-.106.168-.213.392-.213.616v.449c.053.224.16.392.266.56.16.112.319.224.479.28l-.106.841a2.9 2.9 0 01-.639-.224c-.266-.168-.479-.448-.638-.785a1.993 1.993 0 01-.16-1.121c.053-.28.106-.504.213-.785a1.93 1.93 0 01.692-.784c.266-.169.638-.281.957-.225.213.056.426.113.639.225.266.168.425.448.585.728" fill="#2E2E79"/><path d="M369.439 123.737l-7.394-.945-.058.501 7.395.945.057-.501z" fill="#2E2E79"/><path d="M394.194 161.394l-12.967-9.615-17.793 26.635 12.966 9.615 17.794-26.635z" fill="#7978C7"/><path d="M392.546 161.924l-10.878-8.065-16.106 24.113 10.877 8.065 16.107-24.113z" fill="#fff"/><path d="M390.728 162.082l-8.571-6.355-14.759 22.096 8.572 6.355 14.758-22.096z" fill="#C1C1F9"/><path d="M379.634 168.841v.168a2.53 2.53 0 01-.372 1.065.625.625 0 00-.16.393 1.208 1.208 0 000 .616c.054.168.16.337.32.449l.319.168c.159.056.372 0 .585-.112.16-.112.373-.225.479-.449a.624.624 0 00.16-.392 1.212 1.212 0 000-.617.872.872 0 00-.32-.448l.213-.337.213-.336c.16.112.319.336.426.505.159.28.212.672.212 1.009a2.539 2.539 0 01-.372 1.065c-.16.224-.319.392-.532.56-.319.224-.638.337-.958.337-.319 0-.638-.056-.957-.281-.16-.112-.32-.336-.426-.504-.16-.28-.213-.561-.213-.897v-.168a2.53 2.53 0 01.373-1.065.625.625 0 00.159-.393 1.208 1.208 0 000-.616.867.867 0 00-.319-.449l-.319-.168c-.16-.056-.373 0-.586.112-.159.112-.372.224-.478.449a.619.619 0 00-.16.392 1.212 1.212 0 000 .617.87.87 0 00.319.448l-.479.729c-.159-.112-.319-.337-.425-.505-.16-.28-.213-.672-.213-1.009.053-.392.16-.728.372-1.065.16-.224.32-.392.532-.56.32-.225.639-.337.958-.337.319 0 .639.056.958.281.159.112.319.336.425.504.213.224.266.505.266.841" fill="#2E2E79"/><path d="M382.094 171.781l-6.093-4.514-.275.412 6.092 4.515.276-.413z" fill="#2E2E79"/><path d="M432.68 134.986l-15.258-4.544-8.408 31.341 15.258 4.544 8.408-31.341z" fill="#7978C7"/><path d="M431.06 136.136l-12.8-3.811-7.613 28.373 12.8 3.812 7.613-28.374z" fill="#fff"/><path d="M429.377 136.913l-10.086-3.003-6.976 26 10.087 3.004 6.975-26.001z" fill="#C1C1F9"/><path d="M421.241 147.203c0 .056.054.112.054.168.106.337.106.785 0 1.178-.054.168-.054.28-.054.448 0 .224.107.393.213.561.107.168.266.28.426.336a.433.433 0 00.372 0c.16-.056.373-.112.479-.28.16-.168.266-.337.319-.561.054-.168.054-.28.054-.448 0-.224-.107-.393-.213-.561a.834.834 0 00-.426-.336l.106-.393.107-.392c.213.056.426.168.585.336.266.225.426.561.532.897.107.337.107.785 0 1.177a1.769 1.769 0 01-.319.729c-.213.337-.479.561-.798.673-.319.112-.639.168-.958.056a1.251 1.251 0 01-.585-.336 1.916 1.916 0 01-.479-.785c0-.056-.053-.112-.053-.168-.107-.337-.107-.785 0-1.178.053-.168.053-.28.053-.448 0-.224-.106-.392-.213-.561a.832.832 0 00-.425-.336.435.435 0 00-.373 0c-.159.056-.372.112-.479.28a1.186 1.186 0 00-.319.561c-.053.168-.053.28-.053.448 0 .225.106.393.213.561.106.168.266.28.425.336l-.212.841a1.254 1.254 0 01-.586-.336c-.266-.224-.425-.561-.532-.897-.106-.336-.106-.785 0-1.177.053-.281.16-.505.319-.729.213-.336.479-.561.799-.673.319-.112.638-.168.957-.056.213.056.426.168.585.337.213.168.373.448.479.728" fill="#2E2E79"/><path d="M424.539 149.215l-7.171-2.122-.129.485 7.171 2.123.129-.486z" fill="#2E2E79"/><path d="M363.524 158.619l-12.402-10.409-19.262 25.476 12.402 10.408 19.262-25.475z" fill="#7978C7"/><path d="M361.643 158.75l-10.403-8.732-17.439 23.061 10.403 8.732 17.439-23.061z" fill="#fff"/><path d="M359.76 159.039l-8.198-6.881-15.98 21.135 8.199 6.881 15.979-21.135z" fill="#C1C1F9"/><path d="M348.456 165.085v.168c-.053.393-.213.729-.425 1.066-.107.112-.16.28-.213.392-.053.224-.053.392-.053.617.053.168.159.392.319.504.106.112.213.168.319.168.16.056.373 0 .585-.056.16-.056.373-.224.479-.392.107-.112.16-.281.213-.393.053-.224.053-.392.053-.616-.053-.168-.159-.393-.319-.505l.266-.336.266-.336c.16.168.319.336.426.56.159.336.213.673.159 1.065-.053.393-.213.729-.425 1.065a1.69 1.69 0 01-.586.505c-.319.224-.638.28-1.01.28a1.4 1.4 0 01-.905-.336c-.16-.168-.319-.337-.426-.561a2.439 2.439 0 01-.159-.897v-.168c.053-.392.213-.729.425-1.065.107-.112.16-.28.213-.392.053-.225.053-.393.053-.617-.053-.168-.159-.392-.319-.504-.106-.113-.213-.113-.319-.169-.16-.056-.372 0-.585.056a1.08 1.08 0 00-.479.393c-.107.112-.16.28-.213.392-.053.224-.053.393-.053.617.053.168.159.392.319.504l-.532.673c-.16-.168-.319-.336-.426-.561-.159-.336-.212-.672-.159-1.065.053-.392.213-.728.425-1.065.16-.224.373-.392.586-.504.319-.224.638-.28 1.011-.28a1.4 1.4 0 01.904.336c.16.168.319.336.426.56.106.281.159.561.159.897" fill="#2E2E79"/><path d="M350.62 168.399l-5.827-4.889-.299.395 5.828 4.889.298-.395z" fill="#2E2E79"/><path d="M364.142 204.527l-9.565-13.322-24.653 19.649 9.566 13.322 24.652-19.649z" fill="#7978C7"/><path d="M362.174 204.384l-8.025-11.176-22.319 17.788 8.025 11.177 22.319-17.789z" fill="#fff"/><path d="M360.386 203.929l-6.324-8.807-20.452 16.3 6.324 8.807 20.452-16.3z" fill="#C1C1F9"/><path d="M347.924 206.903c0 .056-.053.112-.053.112-.159.336-.372.673-.691.897-.107.112-.213.224-.266.336a1.12 1.12 0 00-.16.561c0 .168.053.392.16.56.053.112.159.168.266.224.159.113.372.113.585.113.213 0 .372-.113.585-.225.107-.112.213-.224.266-.336.107-.168.16-.392.16-.561a.977.977 0 00-.16-.56l.319-.28.32-.281c.159.169.212.393.266.617.053.336 0 .729-.107 1.065-.159.336-.372.673-.691.897-.213.168-.426.28-.692.336a2.1 2.1 0 01-1.011.056 1.634 1.634 0 01-.798-.56c-.16-.168-.213-.393-.266-.617-.053-.28-.053-.616.053-.897 0-.056.053-.112.053-.112.16-.336.373-.673.692-.897.106-.112.213-.224.266-.336.106-.168.16-.392.16-.561 0-.168-.054-.392-.16-.56-.053-.112-.16-.168-.266-.224-.16-.113-.372-.113-.532-.113-.213 0-.373.113-.585.225-.107.112-.213.224-.266.336-.107.168-.16.392-.16.561 0 .224.053.392.16.56l-.639.505c-.159-.169-.213-.393-.266-.617-.053-.336 0-.729.107-1.065.159-.336.372-.673.691-.897.213-.168.426-.28.692-.336a2.1 2.1 0 011.011-.056c.319.112.585.28.798.56.159.168.213.393.266.617 0 .336 0 .673-.107.953" fill="#2E2E79"/><path d="M349.339 210.644l-4.489-6.262-.382.304 4.489 6.262.382-.304z" fill="#2E2E79"/><path d="M398.203 211.395l-10.728-12.3-22.761 22.036 10.728 12.3 22.761-22.036z" fill="#7978C7"/><path d="M396.172 211.684l-9.002-10.319-20.606 19.953 9.001 10.319 20.607-19.953z" fill="#fff"/><path d="M394.381 211.456l-7.093-8.131-18.882 18.284 7.093 8.131 18.882-18.284z" fill="#C1C1F9"/><path d="M382.242 215.536c0 .056 0 .112-.053.168a2.567 2.567 0 01-.585.953c-.107.112-.213.224-.266.336-.107.168-.16.392-.107.617 0 .224.107.392.213.56.106.112.213.168.319.224.16.056.373.112.585.056.213-.056.373-.168.533-.28.106-.112.212-.224.266-.336a.816.816 0 00.106-.617c0-.224-.106-.392-.213-.56l.319-.281.32-.28c.159.168.266.392.319.617.106.336.106.672 0 1.065a2.567 2.567 0 01-.585.953c-.213.168-.426.336-.639.448-.319.168-.692.168-1.011.112a1.367 1.367 0 01-.851-.504 1.354 1.354 0 01-.319-.617 1.293 1.293 0 010-.897c0-.056 0-.112.053-.168.106-.336.319-.673.585-.953.107-.112.213-.224.266-.336a.812.812 0 00.107-.617c0-.224-.107-.392-.213-.56a1.128 1.128 0 00-.319-.225c-.16-.056-.373-.112-.586-.056-.213.056-.372.169-.532.281-.106.112-.213.224-.266.336a.816.816 0 00-.106.617c0 .224.106.392.213.56l-.586.617a1.364 1.364 0 01-.319-.617c-.106-.336-.106-.673 0-1.065.107-.336.319-.673.585-.953.213-.168.426-.336.639-.448.319-.168.691-.168 1.011-.112.319.056.638.224.851.504.16.168.266.392.319.617 0 .224 0 .504-.053.841" fill="#2E2E79"/><path d="M383.991 219.163l-5.04-5.779-.353.342 5.041 5.778.352-.341z" fill="#2E2E79"/><path d="M262.215 103.128l-15.516-3.441-6.368 31.871 15.516 3.441 6.368-31.871z" fill="#7978C7"/><path d="M260.659 104.387l-13.016-2.887-5.765 28.855 13.016 2.886 5.765-28.854z" fill="#fff"/><path d="M259.1 105.249l-10.257-2.275-5.283 26.44 10.257 2.275 5.283-26.44z" fill="#C1C1F9"/><path d="M251.622 116.036c0 .056.053.112.053.112.107.336.16.729.053 1.177a.654.654 0 000 .449c.054.224.107.392.213.56a.555.555 0 00.479.281c.107.056.266 0 .373 0 .159-.056.372-.169.478-.337.107-.168.213-.336.266-.56a.642.642 0 000-.449c-.053-.224-.106-.392-.212-.56a.553.553 0 00-.479-.281l.106-.448.107-.449c.212.057.425.169.585.281.266.224.479.504.585.841.107.336.16.728.053 1.177-.053.28-.159.504-.266.729-.213.336-.479.56-.745.728-.319.168-.638.224-.957.112a1.928 1.928 0 01-.586-.28 1.82 1.82 0 01-.532-.729c0-.056-.053-.112-.053-.112a2.165 2.165 0 01-.053-1.177.651.651 0 000-.448c-.053-.225-.106-.393-.213-.561a.553.553 0 00-.479-.28c-.106-.056-.266 0-.372 0-.16.056-.373.168-.479.336-.16.168-.213.336-.266.561a.651.651 0 000 .448c.053.224.106.393.213.561.106.168.266.28.479.28l-.16.841a1.912 1.912 0 01-.585-.28 1.833 1.833 0 01-.585-.841 2.16 2.16 0 01-.054-1.178c.054-.28.16-.504.266-.728.213-.337.479-.561.745-.729.319-.168.639-.224.958-.112.213.056.426.168.585.28.16.224.373.449.479.785" fill="#2E2E79"/><path d="M255.009 117.86l-7.289-1.616-.099.494 7.289 1.616.099-.494z" fill="#2E2E79"/><path d="M256.628 66.294l-12.125-10.765-19.92 24.905L236.708 91.2l19.92-24.905z" fill="#7978C7"/><path d="M254.683 66.617l-10.172-9.03-18.034 22.547 10.172 9.03 18.034-22.547z" fill="#fff"/><path d="M252.86 66.607l-8.016-7.116-16.525 20.661 8.015 7.116 16.526-20.661z" fill="#C1C1F9"/><path d="M241.407 72.48v.168a2.381 2.381 0 01-.479 1.066.908.908 0 00-.213.392c-.053.224-.107.392-.053.617.053.168.106.392.266.504.106.112.212.168.319.168.16.056.372.056.585-.056.213-.056.373-.168.532-.392a.908.908 0 00.213-.393c.053-.224.106-.392.053-.616-.053-.168-.106-.393-.266-.505l.266-.336.266-.336c.16.168.32.336.373.56.106.337.159.673.106 1.065-.053.393-.213.729-.479 1.065a1.676 1.676 0 01-.585.505c-.319.168-.638.28-1.011.28a1.4 1.4 0 01-.904-.336c-.16-.168-.32-.337-.373-.56-.106-.281-.159-.561-.106-.898v-.168c.053-.392.213-.729.479-1.065a.917.917 0 00.212-.392c.054-.225.107-.393.054-.617-.054-.168-.107-.392-.266-.505-.107-.112-.213-.168-.32-.168a.735.735 0 00-.585.056c-.213.056-.372.169-.532.393a.918.918 0 00-.213.392c-.053.224-.106.393-.053.617.053.168.106.392.266.504l-.532.673c-.16-.168-.319-.336-.372-.56-.16-.337-.16-.673-.107-1.066a2.37 2.37 0 01.479-1.065c.16-.224.372-.392.585-.504.32-.168.639-.28 1.011-.28a1.4 1.4 0 01.905.336c.159.168.319.336.372.56.107.28.16.561.107.897" fill="#2E2E79"/><path d="M243.703 75.705l-5.693-5.06-.309.385 5.693 5.06.309-.385z" fill="#2E2E79"/><path d="M219.003 75.62l-14.826-5.923-10.959 30.455 14.826 5.922 10.959-30.455z" fill="#7978C7"/><path d="M217.307 76.626l-12.439-4.968-9.921 27.572 12.439 4.968 9.921-27.572z" fill="#fff"/><path d="M215.62 77.276l-9.802-3.914-9.091 25.265 9.801 3.915 9.092-25.266z" fill="#C1C1F9"/><path d="M206.61 86.663c0 .056 0 .112.053.168.053.336 0 .785-.106 1.177-.054.168-.054.28-.107.449 0 .224.053.448.16.616.106.168.266.28.425.393.107.056.266.056.373.056.16 0 .372-.113.532-.225.16-.112.266-.336.372-.504.054-.168.054-.28.107-.449a1.17 1.17 0 00-.16-.616c-.106-.168-.266-.28-.425-.393l.159-.392.16-.392c.213.112.372.224.532.392.213.28.372.56.425.953.054.392 0 .785-.106 1.177-.106.28-.213.505-.372.673a1.89 1.89 0 01-.852.616 1.404 1.404 0 01-.957 0 1.901 1.901 0 01-.532-.392c-.213-.224-.32-.504-.426-.785 0-.056 0-.112-.053-.168-.053-.392 0-.785.106-1.177.053-.168.053-.28.053-.449a1.18 1.18 0 00-.159-.616c-.107-.168-.266-.28-.426-.393-.106-.056-.266-.056-.372-.056-.16 0-.373.113-.532.225-.16.112-.266.336-.373.504-.053.168-.053.28-.106.449 0 .224.053.448.159.616.107.168.266.28.426.393l-.266.84a1.916 1.916 0 01-.532-.392c-.213-.28-.373-.56-.426-.953-.053-.392 0-.785.107-1.177.106-.28.213-.505.372-.673.213-.28.532-.504.851-.616.32-.112.639-.112.958 0 .213.112.373.224.532.392.213.168.373.448.426.729" fill="#2E2E79"/><path d="M209.646 88.902l-6.964-2.783-.17.472 6.964 2.783.17-.472z" fill="#2E2E79"/><path d="M284.256 70.996l-12.798-9.86-18.248 26.288 12.798 9.861 18.248-26.29z" fill="#7978C7"/><path d="M282.363 71.487l-10.737-8.273-16.52 23.8 10.737 8.273 16.52-23.8z" fill="#fff"/><path d="M280.585 71.575l-8.46-6.519-15.139 21.81 8.461 6.519 15.138-21.81z" fill="#C1C1F9"/><path d="M269.499 78.198v.169c-.053.392-.16.728-.426 1.065-.106.112-.159.28-.213.392a1.21 1.21 0 000 .617c.054.168.16.336.32.504l.319.168c.159.056.372 0 .585-.056.16-.056.372-.224.479-.392.106-.112.16-.28.213-.393a1.21 1.21 0 000-.616 1.328 1.328 0 00-.32-.505l.267-.336.266-.336c.159.168.319.336.425.504.16.28.213.673.16 1.01-.053.392-.16.728-.426 1.064a2.574 2.574 0 01-.532.56c-.319.225-.638.337-.958.337-.319 0-.638-.112-.957-.28a3.527 3.527 0 01-.426-.505c-.106-.28-.213-.56-.213-.897v-.168c.053-.392.16-.728.426-1.065.106-.112.159-.28.213-.392a1.21 1.21 0 000-.617 1.34 1.34 0 00-.32-.504l-.319-.168c-.159-.056-.372 0-.585.056-.16.056-.372.224-.479.392-.106.112-.159.28-.213.392a1.21 1.21 0 000 .617c.054.168.16.336.32.505l-.479.728a3.52 3.52 0 01-.426-.504c-.16-.28-.213-.673-.16-1.01.054-.392.16-.728.426-1.064.16-.225.319-.393.532-.56.319-.225.639-.337.958-.337.319 0 .638.112.958.28.159.168.319.336.425.505.107.224.16.56.16.84" fill="#2E2E79"/><path d="M271.974 81.42l-6.013-4.633-.282.407 6.012 4.633.283-.407z" fill="#2E2E79"/><path d="M295.71 41.196l-6.849-15.066-27.88 14.07 6.849 15.065 27.88-14.07z" fill="#7978C7"/><path d="M293.791 40.605l-5.746-12.639-25.241 12.738 5.746 12.64 25.241-12.739z" fill="#fff"/><path d="M292.187 39.603l-4.527-9.96-23.129 11.67 4.527 9.96 23.129-11.67z" fill="#C1C1F9"/><path d="M279.395 40.024c0 .056-.053.112-.053.112-.213.28-.479.56-.851.729a.552.552 0 00-.319.28c-.16.168-.266.336-.266.56-.054.169 0 .393.053.561.053.112.16.224.213.28.159.113.319.169.532.225.213 0 .425 0 .585-.112a.552.552 0 00.319-.28c.16-.169.266-.337.266-.561.054-.168 0-.393-.053-.56l.373-.169.372-.168c.106.224.16.448.16.672 0 .337-.107.673-.32 1.01-.212.28-.478.56-.851.728-.213.112-.479.168-.745.224-.372.056-.691-.056-1.011-.168a1.494 1.494 0 01-.691-.728 1.55 1.55 0 01-.16-.673c0-.28.106-.617.213-.897 0-.056.053-.112.053-.112.213-.28.479-.56.851-.729a.557.557 0 00.32-.28c.159-.168.266-.336.266-.56.053-.169 0-.393-.054-.561-.053-.112-.159-.224-.212-.28a1.554 1.554 0 00-.533-.225c-.212 0-.425 0-.585.112a.554.554 0 00-.319.28c-.16.169-.266.337-.266.561-.053.168 0 .393.053.56l-.745.393a1.562 1.562 0 01-.159-.672c0-.337.106-.673.319-1.01.213-.28.479-.56.851-.728.213-.112.479-.168.745-.224.373-.056.692.056 1.011.168a1.5 1.5 0 01.692.728c.106.225.159.449.159.673.053.28-.053.56-.213.841" fill="#2E2E79"/><path d="M280.203 43.916l-3.216-7.079-.431.218 3.215 7.079.432-.218z" fill="#2E2E79"/><path d="M252.241 26.295L241.039 14.47l-21.88 23.01 11.202 11.824 21.88-23.01z" fill="#7978C7"/><path d="M250.289 26.458l-9.398-9.92-19.808 20.832 9.397 9.92 19.809-20.832z" fill="#fff"/><path d="M248.703 26.299l-7.405-7.815-18.149 19.089 7.405 7.815 18.149-19.09z" fill="#C1C1F9"/><path d="M236.671 30.943c0 .056 0 .112-.053.168-.106.337-.266.729-.532 1.01-.106.111-.213.223-.266.392-.106.168-.106.392-.106.616a.73.73 0 00.212.505c.107.112.213.168.32.224.159.056.372.056.585 0 .213-.056.372-.168.532-.336.106-.112.213-.225.266-.393.106-.168.106-.392.106-.616a.729.729 0 00-.212-.505l.266-.28.319-.28c.159.168.266.392.372.616.107.337.107.673 0 1.065-.106.337-.266.729-.532 1.01a1.902 1.902 0 01-.638.448c-.32.168-.692.224-1.011.168-.319-.056-.639-.168-.905-.449-.159-.168-.266-.392-.372-.616-.107-.28-.107-.617-.053-.897 0-.056 0-.112.053-.168.106-.337.266-.729.532-1.01.106-.111.213-.223.266-.392.106-.168.106-.392.106-.616a.729.729 0 00-.212-.505 1.112 1.112 0 00-.32-.224 1.033 1.033 0 00-.585 0 1.095 1.095 0 00-.532.336c-.106.112-.213.225-.266.393-.106.168-.106.392-.106.616 0 .225.106.393.212.505l-.585.616c-.159-.168-.266-.392-.372-.616-.107-.337-.107-.673 0-1.065.106-.337.266-.729.532-1.01.159-.167.372-.336.638-.448.319-.168.692-.224 1.011-.168.319.056.639.168.905.449.159.168.266.392.372.616.106.224.106.56.053.841" fill="#2E2E79"/><path d="M238.685 34.52l-5.268-5.548-.338.357 5.267 5.548.339-.357z" fill="#2E2E79"/><path fill-rule="evenodd" clip-rule="evenodd" d="M300.039 196.645c-1.915 0-3.458 1.625-3.458 3.643v1.57c0 1.009.372 1.85.958 2.522a3.872 3.872 0 00-.958 2.523v1.569c0 1.009.372 1.85.958 2.523a3.869 3.869 0 00-.958 2.522v1.57c0 2.018 1.543 3.644 3.458 3.644h18.463c1.915 0 3.458-1.626 3.458-3.644v-1.57c0-1.009-.372-1.849-.958-2.522.586-.673.958-1.57.958-2.523v-1.569c0-1.009-.372-1.85-.958-2.523a3.867 3.867 0 00.958-2.522v-1.57c0-2.018-1.543-3.643-3.458-3.643h-18.463zm19.474 2.634c.213.28.372.617.372 1.009v1.57c0 .392-.106.728-.372 1.009-.266.224-.585.392-.958.392h-18.462c-.373 0-.692-.112-.958-.392-.213-.281-.372-.617-.372-1.009v-1.57c0-.392.106-.729.372-1.009.266-.224.585-.392.958-.392h18.462c.373 0 .692.112.958.392zm-20.378 6.615c-.266.28-.372.616-.372 1.009v1.569c0 .393.159.729.372 1.009.266.281.585.393.958.393h18.462c.373 0 .692-.168.958-.393.266-.28.372-.616.372-1.009v-1.569c0-.393-.159-.729-.372-1.009-.266-.28-.585-.393-.958-.393h-18.462c-.426 0-.745.169-.958.393zm0 10.202c-.213-.28-.372-.616-.372-1.009v-1.569c0-.393.106-.729.372-1.009.266-.225.585-.393.958-.393h18.462c.373 0 .692.112.958.393.213.28.372.616.372 1.009v1.569c0 .393-.106.729-.372 1.009-.266.224-.585.393-.958.393h-18.462c-.373 0-.692-.113-.958-.393z" fill="#6B66C4"/><path d="M303.285 218.787c0 .056 0 .112.053.224.053.168.213.392.532.616.479.393 1.224.785 2.128 1.009.958.281 2.075.449 3.246.449 1.809 0 3.458-.392 4.576-.897.532-.28.957-.561 1.17-.841.107-.112.16-.224.213-.336.053-.112.053-.168.053-.224h2.394c0 .448-.106.84-.266 1.233-.266.673-.745 1.177-1.277 1.625-.798.673-1.809 1.122-2.979 1.458-1.171.336-2.501.504-3.884.504-2.128 0-4.097-.392-5.587-1.177-.745-.392-1.436-.841-1.915-1.401a3.207 3.207 0 01-.639-1.009c-.159-.393-.266-.785-.266-1.233h2.448z" fill="#6B66C4"/></svg>