<svg width="216" height="39" viewBox="0 0 216 39" fill="none" xmlns="http://www.w3.org/2000/svg">
<path d="M215.5 19.5C215.5 20.6445 214.859 21.8336 213.475 23.055C212.093 24.2744 210.026 25.4739 207.317 26.6304C201.902 28.9418 194.036 31.0348 184.279 32.7965C164.772 36.3186 137.803 38.5 108 38.5C78.197 38.5 51.2282 36.3186 31.7213 32.7965C21.9638 31.0348 14.0981 28.9418 8.68348 26.6304C5.9742 25.4739 3.90695 24.2744 2.52499 23.055C1.1407 21.8336 0.5 20.6445 0.5 19.5C0.5 18.3555 1.1407 17.1664 2.52499 15.945C3.90695 14.7256 5.9742 13.5261 8.68348 12.3696C14.0981 10.0582 21.9638 7.96523 31.7213 6.20346C51.2282 2.68139 78.197 0.5 108 0.5C137.803 0.5 164.772 2.68139 184.279 6.20346C194.036 7.96523 201.902 10.0582 207.317 12.3696C210.026 13.5261 212.093 14.7256 213.475 15.945C214.859 17.1664 215.5 18.3555 215.5 19.5Z" stroke="url(#paint0_linear)"/>
<defs>
<linearGradient id="paint0_linear" x1="0" y1="0" x2="209.295" y2="61.7312" gradientUnits="userSpaceOnUse">
<stop stop-color="#F06021"/>
<stop offset="1" stop-color="#AA4D28"/>
</linearGradient>
</defs>
</svg>
