<svg width="1920" height="963" viewBox="0 0 1920 963" fill="none" xmlns="http://www.w3.org/2000/svg">
<path d="M0 0H1920V861.346C1165.22 996.978 744.537 996.791 0 861.346V0Z" fill="url(#paint0_linear)"/>
<path opacity="0.29" d="M291.2 344.621C303.128 363.383 291.409 409.144 271.608 423.645C251.807 438.146 226.013 434.68 213.936 415.918C201.858 397.155 201.829 369.552 226.102 352.507C246.171 338.547 279.153 325.827 291.2 344.621Z" fill="#BF90FC"/>
<path opacity="0.29" d="M94.7422 509.529C195.855 556.686 241.478 659.147 174.228 732.969C119.869 792.473 32.9641 795.489 -19 790.979V435.819C15.7829 465.55 54.0153 490.326 94.7422 509.529Z" fill="#BF90FC"/>
<path opacity="0.29" d="M3 158.821V387.633C54.5406 352.465 102.386 300.624 113.003 232.405C128.512 132.659 50.0648 140.921 3 158.821Z" fill="#BF90FC"/>
<path d="M97 877.822C124.652 833.814 214.722 754.1 353.791 787.306C527.627 828.813 640.7 843.316 729.995 756.801C819.291 670.286 880.054 593.273 956.141 560.767C1032.23 528.262 1181.76 560.767 1112.54 733.797C1043.32 906.827 1319.14 950.334 1412.66 775.304C1506.18 600.274 1181.76 497.756 1243.05 316.225C1304.34 134.694 1587.13 181.002 1682.66 400.24C1802.07 674.287 1905.11 709.293 1959 709.293" stroke="#AB8BFB" stroke-linecap="round" stroke-dasharray="10 6"/>
<g filter="url(#filter0_f)">
<circle cx="1646" cy="336" r="26" fill="white"/>
</g>
<g filter="url(#filter1_f)">
<circle cx="1646" cy="336" r="2" fill="white"/>
</g>
<g filter="url(#filter2_f)">
<circle cx="370" cy="791" r="5" fill="white"/>
</g>
<g filter="url(#filter3_f)">
<circle cx="1138" cy="860" r="8" fill="white"/>
</g>
<g filter="url(#filter4_f)">
<circle cx="662" cy="803" r="15" fill="white"/>
</g>
<g filter="url(#filter5_f)">
<circle cx="370" cy="791" r="2" fill="white"/>
</g>
<g filter="url(#filter6_f)">
<circle cx="1138" cy="860" r="2" fill="white"/>
</g>
<g filter="url(#filter7_f)">
<circle cx="662" cy="803" r="2" fill="white"/>
</g>
<defs>
<filter id="filter0_f" x="1558" y="248" width="176" height="176" filterUnits="userSpaceOnUse" color-interpolation-filters="sRGB">
<feFlood flood-opacity="0" result="BackgroundImageFix"/>
<feBlend mode="normal" in="SourceGraphic" in2="BackgroundImageFix" result="shape"/>
<feGaussianBlur stdDeviation="31" result="effect1_foregroundBlur"/>
</filter>
<filter id="filter1_f" x="1643" y="333" width="6" height="6" filterUnits="userSpaceOnUse" color-interpolation-filters="sRGB">
<feFlood flood-opacity="0" result="BackgroundImageFix"/>
<feBlend mode="normal" in="SourceGraphic" in2="BackgroundImageFix" result="shape"/>
<feGaussianBlur stdDeviation="0.5" result="effect1_foregroundBlur"/>
</filter>
<filter id="filter2_f" x="356" y="777" width="28" height="28" filterUnits="userSpaceOnUse" color-interpolation-filters="sRGB">
<feFlood flood-opacity="0" result="BackgroundImageFix"/>
<feBlend mode="normal" in="SourceGraphic" in2="BackgroundImageFix" result="shape"/>
<feGaussianBlur stdDeviation="4.5" result="effect1_foregroundBlur"/>
</filter>
<filter id="filter3_f" x="1113" y="835" width="50" height="50" filterUnits="userSpaceOnUse" color-interpolation-filters="sRGB">
<feFlood flood-opacity="0" result="BackgroundImageFix"/>
<feBlend mode="normal" in="SourceGraphic" in2="BackgroundImageFix" result="shape"/>
<feGaussianBlur stdDeviation="8.5" result="effect1_foregroundBlur"/>
</filter>
<filter id="filter4_f" x="612" y="753" width="100" height="100" filterUnits="userSpaceOnUse" color-interpolation-filters="sRGB">
<feFlood flood-opacity="0" result="BackgroundImageFix"/>
<feBlend mode="normal" in="SourceGraphic" in2="BackgroundImageFix" result="shape"/>
<feGaussianBlur stdDeviation="17.5" result="effect1_foregroundBlur"/>
</filter>
<filter id="filter5_f" x="367" y="788" width="6" height="6" filterUnits="userSpaceOnUse" color-interpolation-filters="sRGB">
<feFlood flood-opacity="0" result="BackgroundImageFix"/>
<feBlend mode="normal" in="SourceGraphic" in2="BackgroundImageFix" result="shape"/>
<feGaussianBlur stdDeviation="0.5" result="effect1_foregroundBlur"/>
</filter>
<filter id="filter6_f" x="1135" y="857" width="6" height="6" filterUnits="userSpaceOnUse" color-interpolation-filters="sRGB">
<feFlood flood-opacity="0" result="BackgroundImageFix"/>
<feBlend mode="normal" in="SourceGraphic" in2="BackgroundImageFix" result="shape"/>
<feGaussianBlur stdDeviation="0.5" result="effect1_foregroundBlur"/>
</filter>
<filter id="filter7_f" x="659" y="800" width="6" height="6" filterUnits="userSpaceOnUse" color-interpolation-filters="sRGB">
<feFlood flood-opacity="0" result="BackgroundImageFix"/>
<feBlend mode="normal" in="SourceGraphic" in2="BackgroundImageFix" result="shape"/>
<feGaussianBlur stdDeviation="0.5" result="effect1_foregroundBlur"/>
</filter>
<linearGradient id="paint0_linear" x1="432.663" y1="263.342" x2="1555.88" y2="1205.24" gradientUnits="userSpaceOnUse">
<stop stop-color="#8659E4"/>
<stop offset="1" stop-color="#4B27CF"/>
</linearGradient>
</defs>
</svg>
