<svg width="37" height="38" fill="none" xmlns="http://www.w3.org/2000/svg"><path fill-rule="evenodd" clip-rule="evenodd" d="M29.408 19.588c0-1.065-.193-2.13-.482-3.1-1.062-3.68-3.86-6.49-7.527-7.458-4.632-1.26-9.457.678-12.255 5.037-.965 1.55-1.544 3.39-1.448 5.23.193 5.134 3.378 9.3 8.01 10.559 4.632 1.26 9.456-.678 12.255-5.037.965-1.55 1.544-3.39 1.447-5.23zm-13.413 9.105c-2.702-.774-5.597-2.905-6.755-6.683a9.163 9.163 0 01-.482-2.906c-.097-1.647.386-3.293 1.254-4.65 3.088-4.746 7.72-5.52 11.098-4.552 3.377.968 7.044 3.971 7.237 9.59.096 1.646-.386 3.293-1.255 4.649-3.087 4.746-7.72 5.521-11.097 4.553zm8.878-11.236c.868 2.906-.386 6.103-3.088 7.652-1.544.872-3.28 1.066-5.018.679-1.737-.485-3.088-1.55-3.956-3.1-1.834-3.197-.676-7.265 2.509-9.008 3.184-1.744 7.237-.679 8.974 2.518.193.29.482.775.579 1.26zm-11.194 4.65c-.193-.388-.386-.775-.482-1.163-.676-2.421.386-5.133 2.509-6.296 2.605-1.55 5.983-.581 7.527 2.034 1.543 2.616.578 6.006-2.027 7.556a5.585 5.585 0 01-4.15.484c-1.447-.387-2.605-1.356-3.377-2.615z" fill="#6C6CB5"/><path fill-rule="evenodd" clip-rule="evenodd" d="M34.62 14.26c.482-.387.675-.968.482-1.452-.097-.097-.097-.194-.097-.29l-2.123-3.779c-.29-.58-1.061-.871-1.64-.58L28.25 9.416c-.096 0-.29 0-.386-.096-.579-.485-1.158-.97-1.833-1.357-.193-.096-.193-.193-.193-.387l.482-3.197c.097-.678-.29-1.259-.965-1.453l-4.149-1.162c-.579-.194-1.254.194-1.544.775l-1.254 3.003c0 .194-.193.29-.29.29a9.32 9.32 0 00-2.22.291c-.096 0-.289-.097-.385-.194l-1.93-2.615c-.386-.581-1.158-.678-1.737-.388L8.082 5.06c-.579.29-.868 1.065-.579 1.646l1.255 3.003c0 .097 0 .29-.097.387-.482.582-.965 1.163-1.35 1.84-.097.195-.194.195-.386.195l-3.185-.485c-.675-.096-1.254.29-1.447.969L1.135 16.78c-.193.581.193 1.26.772 1.55l2.991 1.26c.193 0 .29.193.29.29 0 .678.096 1.453.289 2.228 0 .097-.096.29-.193.387l-2.605 1.938c-.58.387-.676 1.162-.386 1.743l2.123 3.778c.29.581 1.061.872 1.64.581l2.991-1.26c.097 0 .29 0 .386.098.676.58 1.351 1.065 2.027 1.55l-.483 3.39c-.096.678.29 1.259.965 1.453l4.15 1.162c.579.194 1.254-.194 1.544-.775l1.254-3.003c0-.193.193-.29.29-.29.675 0 1.447-.097 2.22-.29.096 0 .289.096.385.193l1.93 2.615c.386.581 1.158.678 1.737.388l3.763-2.131c.58-.291.869-1.066.58-1.647l-1.255-3.003c0-.097 0-.29.096-.387.483-.582.965-1.163 1.351-1.84.097-.195.193-.195.386-.195l3.185.485c.675.097 1.254-.29 1.447-.969l1.158-4.165c.193-.581-.193-1.26-.772-1.55l-2.991-1.26c-.193 0-.29-.193-.29-.29 0-.678-.096-1.453-.29-2.228 0-.096.097-.29.194-.387l2.605-1.937zm-3.51 4.813a.358.358 0 01.035.128c.097.387.386.775.772.872l2.992 1.259c.193 0 .193.194.193.29l-1.158 4.166c0 .096-.193.193-.29.193l-3.184-.484a1.434 1.434 0 00-1.448.678c-.386.581-.772 1.162-1.254 1.647-.386.387-.483 1.065-.29 1.55l1.255 3.002c.096.097 0 .194-.097.291l-3.763 2.131c-.097 0-.193 0-.29-.097l-1.93-2.615c-.289-.485-.868-.678-1.447-.581-.772.193-1.447.29-2.123.29-.579 0-1.061.29-1.254.872l-1.255 3.003c0 .194-.193.194-.29.194l-4.149-1.163c-.096 0-.193-.194-.193-.29l.58-4.166-.29-.193c-.772-.388-1.448-.969-2.123-1.55-.386-.388-.965-.485-1.544-.29l-2.991 1.258c-.097.097-.193 0-.29-.096l-2.123-3.778c0-.097 0-.194.097-.29l2.605-1.938c.483-.29.676-.872.579-1.453-.193-.775-.29-1.453-.29-2.131 0-.484-.289-1.066-.868-1.26l-2.991-1.258c-.193 0-.193-.194-.193-.291l1.158-4.165c0-.097.193-.194.29-.194l3.183.484a1.433 1.433 0 001.448-.678c.386-.58.772-1.162 1.254-1.646.386-.388.483-1.066.29-1.55L8.468 6.22c-.096-.097 0-.194.097-.29l3.763-2.132c.097 0 .193 0 .29.097l1.93 2.615c.29.485.868.679 1.447.582.772-.194 1.448-.29 2.123-.29.58 0 1.062-.292 1.255-.873l1.254-3.003c0-.193.193-.193.29-.193l4.149 1.162c.096 0 .193.194.193.29l-.483 3.197a1.443 1.443 0 00.676 1.453c.579.388 1.158.775 1.64 1.26.386.387.965.484 1.544.29l2.992-1.26c.096-.096.193 0 .29.098L34.04 13c0 .097 0 .194-.096.291l-2.606 1.937c-.482.29-.675.872-.579 1.453.193.775.29 1.453.29 2.131 0 .114.033.194.06.26z" fill="#6C6CB5"/></svg>