<svg width="320" height="651" viewBox="0 0 320 651" fill="none" xmlns="http://www.w3.org/2000/svg">
<path d="M0 0H320V566.5L136.912 640.209C119.744 647.12 100.539 646.952 83.4947 639.741L0 604.416L0 0Z" fill="url(#paint0_linear)"/>
<path opacity="0.03" fill-rule="evenodd" clip-rule="evenodd" d="M160 528.492C162.511 528.492 164.913 527.56 166.654 525.913L397.423 307.473C400.908 304.174 400.851 298.944 397.296 295.708L304.989 211.693C303.258 210.117 300.91 209.232 298.461 209.232H187.692C185.244 209.232 182.896 210.117 181.165 211.693L160 230.957L138.835 211.693C137.104 210.117 134.756 209.232 132.308 209.232H21.5384C19.0899 209.232 16.7418 210.117 15.0111 211.693L-77.2964 295.708C-80.8513 298.944 -80.9076 304.174 -77.4231 307.473L153.346 525.913C155.087 527.56 157.489 528.492 160 528.492ZM169.231 246.319L191.516 226.035H276.176L169.231 323.374V246.319ZM150.769 323.374V246.319L128.484 226.035H43.8237L83.4503 262.102C83.4526 262.104 83.4537 262.106 83.456 262.107L150.769 323.374ZM76.923 279.925L153.473 349.598C157.077 352.879 162.923 352.879 166.527 349.598L243.077 279.925L266.945 301.649L160 398.988L53.0545 301.649L76.923 279.925ZM36.1761 310.051L150.769 414.35V499.231L-49.0878 310.051H36.1761ZM-48.4842 293.248L21.5384 229.516L63.8684 268.043L36.1761 293.248H-48.4842ZM169.231 499.231V414.35L283.824 310.051H369.087L169.231 499.231ZM368.484 293.248H283.824L256.131 268.043L298.461 229.516L368.484 293.248Z" fill="white"/>
<defs>
<linearGradient id="paint0_linear" x1="7.61566" y1="88.8021" x2="442.66" y2="283.479" gradientUnits="userSpaceOnUse">
<stop stop-color="#280889"/>
<stop offset="1" stop-color="#E64DD6"/>
</linearGradient>
</defs>
</svg>
