<svg width="737" height="616" fill="none" xmlns="http://www.w3.org/2000/svg"><path d="M149.877 545.411c-133.49 0-130.936 38.219-74.984 38.581 55.951.363 23.989 31.402 126.543 31.772 43.691.158 70.771-16.413 151.694-18.76 80.922-2.346 147.02 23.549 258.138 18.184 97.194-4.692 114.287-46.657 12.578-47.511-93.028-.783 14.061-19.897-25.314-22.266-39.375-2.37-448.655 0-448.655 0z" fill="#EFF0F8"/><path d="M150.293 469.764c-84.263-37.744-32.09-90.306-69.486-141.305C43.41 277.46 40.266 187.73 115.55 220.106c75.284 32.376 175.515-61.244 113.864-134.249-61.651-73.004 1.729-114.57 65.037-62.726 63.308 51.844 115.569 170.029 216.192 115.39 100.623-54.638 179.405 3.122 120.903 70.25-58.502 67.128-8.243 270.34-96.277 268.705-88.034-1.634-384.976-7.712-384.976-7.712z" fill="#EEEFFA"/><g opacity=".5"><path d="M248.699 29.4c-3.537 0-6.418-2.885-6.418-6.429h3.692a2.732 2.732 0 002.726 2.732 2.734 2.734 0 002.729-2.732 2.733 2.733 0 00-2.729-2.73v-3.696c3.541 0 6.422 2.882 6.422 6.426s-2.881 6.428-6.422 6.428zm83.615 102.167c-3.538 0-6.418-2.884-6.418-6.429h3.692a2.732 2.732 0 002.726 2.733 2.735 2.735 0 002.729-2.733 2.733 2.733 0 00-2.729-2.73v-3.696c3.54 0 6.421 2.882 6.421 6.426 0 3.545-2.881 6.429-6.421 6.429zm-53.879 96.279c-3.538 0-6.418-2.884-6.418-6.428h3.692a2.732 2.732 0 002.726 2.732 2.734 2.734 0 002.729-2.732 2.734 2.734 0 00-2.729-2.731v-3.695c3.54 0 6.421 2.882 6.421 6.426s-2.881 6.428-6.421 6.428zm180.053-4.802c-3.537 0-6.418-2.884-6.418-6.428h3.692a2.732 2.732 0 002.726 2.732 2.735 2.735 0 002.73-2.732 2.734 2.734 0 00-2.73-2.73v-3.696c3.541 0 6.422 2.882 6.422 6.426s-2.881 6.428-6.422 6.428zm115.132-65.252c-3.537 0-6.418-2.884-6.418-6.428h3.692a2.732 2.732 0 002.726 2.732 2.734 2.734 0 002.729-2.732 2.733 2.733 0 00-2.729-2.73v-3.696c3.54 0 6.421 2.882 6.421 6.426s-2.881 6.428-6.421 6.428zM105.155 261.208c-3.538 0-6.418-2.884-6.418-6.428h3.692a2.732 2.732 0 002.726 2.732 2.735 2.735 0 002.729-2.732 2.734 2.734 0 00-2.729-2.731v-3.695c3.54 0 6.421 2.882 6.421 6.426s-2.88 6.428-6.421 6.428zm-.453 67.534c-3.537 0-6.418-2.884-6.418-6.428h3.692a2.732 2.732 0 002.726 2.732 2.734 2.734 0 002.729-2.732 2.734 2.734 0 00-2.729-2.731v-3.695c3.54 0 6.421 2.882 6.421 6.426s-2.881 6.428-6.421 6.428zm107.995-71.708c-3.537 0-6.417-2.884-6.417-6.429h3.692a2.732 2.732 0 002.725 2.733 2.735 2.735 0 002.73-2.733 2.735 2.735 0 00-2.73-2.73v-3.696c3.541 0 6.422 2.882 6.422 6.426 0 3.545-2.881 6.429-6.422 6.429zm159.553-16.863c-3.537 0-6.417-2.884-6.417-6.429h3.692a2.732 2.732 0 002.725 2.733 2.735 2.735 0 002.73-2.733 2.735 2.735 0 00-2.73-2.73v-3.696c3.541 0 6.422 2.882 6.422 6.426 0 3.545-2.881 6.429-6.422 6.429zm24.137-76.909c-3.537 0-6.417-2.884-6.417-6.428h3.692a2.732 2.732 0 002.725 2.733 2.735 2.735 0 002.73-2.733 2.734 2.734 0 00-2.73-2.73v-3.696c3.541 0 6.422 2.882 6.422 6.426-.001 3.544-2.881 6.428-6.422 6.428zM557.461 391.46c-3.538 0-6.418-2.884-6.418-6.428h3.692a2.732 2.732 0 002.726 2.733 2.735 2.735 0 002.729-2.733 2.734 2.734 0 00-2.729-2.73v-3.696c3.54 0 6.421 2.882 6.421 6.426s-2.881 6.428-6.421 6.428zM263.283 162.973c-3.537 0-6.417-2.884-6.417-6.428h3.692a2.732 2.732 0 002.725 2.732 2.735 2.735 0 002.73-2.732 2.734 2.734 0 00-2.73-2.731v-3.695c3.541 0 6.422 2.882 6.422 6.426s-2.881 6.428-6.422 6.428zm27.368-93.928c-3.538 0-6.418-2.884-6.418-6.428h3.692a2.732 2.732 0 002.726 2.732 2.735 2.735 0 002.729-2.732 2.734 2.734 0 00-2.729-2.73V56.19c3.54 0 6.421 2.881 6.421 6.426 0 3.544-2.88 6.428-6.421 6.428z" fill="#F9C6B5"/><path d="M226.228 51.822c-3.541 0-6.422-2.884-6.422-6.429 0-3.544 2.881-6.426 6.422-6.426 3.54 0 6.421 2.882 6.421 6.426h-3.692a2.733 2.733 0 00-2.729-2.73 2.735 2.735 0 00-2.73 2.73 2.735 2.735 0 002.73 2.733v3.696zm80.331 51.81c-3.54 0-6.421-2.884-6.421-6.428s2.881-6.426 6.421-6.426c3.541 0 6.422 2.882 6.422 6.426h-3.692a2.734 2.734 0 00-2.73-2.73 2.734 2.734 0 00-2.729 2.73 2.734 2.734 0 002.729 2.732v3.696zm27.615 74.876c-3.541 0-6.422-2.884-6.422-6.428 0-3.545 2.881-6.427 6.422-6.427s6.422 2.882 6.422 6.427h-3.692a2.735 2.735 0 00-2.73-2.731 2.735 2.735 0 00-2.729 2.731 2.734 2.734 0 002.729 2.732v3.696zm-102.708 46.928c-3.541 0-6.422-2.884-6.422-6.428s2.881-6.426 6.422-6.426 6.422 2.882 6.422 6.426h-3.692a2.735 2.735 0 00-2.73-2.731 2.736 2.736 0 00-2.73 2.731 2.735 2.735 0 002.73 2.732v3.696zm-101.009 81.202c-3.54 0-6.421-2.884-6.421-6.428s2.881-6.426 6.421-6.426c3.541 0 6.422 2.882 6.422 6.426h-3.692a2.734 2.734 0 00-2.73-2.73 2.734 2.734 0 00-2.729 2.73 2.735 2.735 0 002.729 2.733v3.695zm6.603-54.808c-3.54 0-6.421-2.883-6.421-6.428 0-3.544 2.881-6.426 6.421-6.426 3.541 0 6.422 2.882 6.422 6.426h-3.692a2.734 2.734 0 00-2.73-2.73 2.734 2.734 0 00-2.729 2.73 2.735 2.735 0 002.729 2.733v3.695zm-57.483-4.737c-3.54 0-6.422-2.884-6.422-6.428s2.881-6.426 6.422-6.426c3.54 0 6.422 2.882 6.422 6.426h-3.693a2.734 2.734 0 00-2.73-2.73 2.735 2.735 0 00-2.729 2.73 2.735 2.735 0 002.73 2.733v3.695zm249.731 11.057c-3.541 0-6.422-2.884-6.422-6.428s2.881-6.426 6.422-6.426c3.54 0 6.421 2.882 6.421 6.426h-3.692a2.733 2.733 0 00-2.729-2.73 2.735 2.735 0 00-2.73 2.73 2.735 2.735 0 002.73 2.732v3.696zm121.647-61.359c-3.54 0-6.421-2.884-6.421-6.428s2.881-6.426 6.421-6.426c3.541 0 6.422 2.882 6.422 6.426h-3.692a2.734 2.734 0 00-2.73-2.73 2.733 2.733 0 00-2.729 2.73 2.734 2.734 0 002.729 2.732v3.696zm-11.474 57.755c-3.54 0-6.421-2.884-6.421-6.428s2.881-6.426 6.421-6.426c3.541 0 6.422 2.882 6.422 6.426h-3.692a2.734 2.734 0 00-2.73-2.731 2.735 2.735 0 00-2.729 2.731 2.734 2.734 0 002.729 2.732v3.696zm113.02-103.181c-3.541 0-6.422-2.884-6.422-6.429 0-3.544 2.881-6.426 6.422-6.426 3.54 0 6.421 2.882 6.421 6.426h-3.692a2.733 2.733 0 00-2.729-2.73 2.735 2.735 0 00-2.73 2.73 2.735 2.735 0 002.73 2.733v3.696zm72.31 21.092c-3.54 0-6.421-2.884-6.421-6.428s2.881-6.426 6.421-6.426c3.541 0 6.422 2.882 6.422 6.426h-3.692a2.734 2.734 0 00-2.73-2.73 2.734 2.734 0 00-2.729 2.73 2.735 2.735 0 002.729 2.733v3.695zm-71.478 249.425c-3.54 0-6.421-2.884-6.421-6.428s2.881-6.426 6.421-6.426c3.541 0 6.422 2.882 6.422 6.426h-3.692a2.734 2.734 0 00-2.73-2.73 2.733 2.733 0 00-2.729 2.73 2.734 2.734 0 002.729 2.732v3.696z" fill="#B5EFF9"/></g><path d="M152.155 493.593c-24.318-11.389-36.383-22.233-30.158-38.259 6.224-16.025 4.618-16.882-7.668-29.628-12.286-12.746-3.025-16.574-.816-27.004 2.209-10.429-7.588-17.204-14.722-28.49-7.133-11.286 7.175-32.8 21.108-24.593 13.932 8.207-.188 22.599 10.492 34.488 10.68 11.889 34.156 9.453 31.532 24.046-2.624 14.593-20.117 25.637-5.93 35.785 14.187 10.148 23.769 17.325 15.604 33.605-8.164 16.28-19.442 20.05-19.442 20.05z" fill="#DDF7FC"/><path d="M115.684 370.281a12286.898 12286.898 0 0127.148 84.595c4.508 14.104 9.229 28.143 13.297 42.382 3.972 14.267 8.015 28.513 11.265 43l-.369.112c-5.368-13.843-9.944-27.925-14.59-41.987-4.552-14.091-8.449-28.382-12.559-42.607a12270.6 12270.6 0 01-24.563-85.382l.371-.113z" fill="#ABB8FC"/><path d="M139.394 405.938c-1.7 1.769-4.789 3.289-8.374 5.044-5.277 2.592-11.69 5.766-15.891 11.115-1.538-7.305-4.569-14.347-9.292-20.103-.495-.621-1.047-1.174-1.559-1.775.495-6.214 4.386-11.537 7.832-16.239 2.208-3.01 4.118-5.613 4.824-8.045a.994.994 0 00-.68-1.233.99.99 0 00-1.232.679c-.61 2.094-2.418 4.564-4.519 7.422-3.113 4.248-6.886 9.438-7.959 15.441-5.968-6.532-12.907-11.891-20.32-16.516a.921.921 0 00.152-.97c-2.31-5.376-1.334-11.485-.475-16.879.547-3.421 1.02-6.378.571-8.685a.92.92 0 00-1.082-.729.92.92 0 00-.729 1.083c.384 1.986-.062 4.792-.584 8.041-.81 5.083-1.77 11.335.276 16.973a175.149 175.149 0 00-9.27-5.187c-.144-.227-.358-.404-.647-.437-.073-.008-.144-.002-.217-.009a315.034 315.034 0 00-9.508-4.717c2.671 1.555 5.35 3.097 8.017 4.654-5.72-.07-11.149 2.541-15.586 4.702-2.957 1.445-5.51 2.687-7.523 2.897a.919.919 0 00-.823 1.012.921.921 0 001.011.825c2.337-.242 5.029-1.554 8.142-3.072 4.908-2.39 10.468-5.101 16.282-4.454a.925.925 0 00.886-.429c.01-.018.01-.042.021-.061 4.453 2.649 8.83 5.405 12.952 8.529a133.967 133.967 0 015.216 3.98c-5.888.253-11.41 3.065-15.962 5.383-3.158 1.615-5.886 3.002-8.05 3.268a.99.99 0 00-.868 1.107.994.994 0 001.106.869c2.514-.306 5.39-1.773 8.715-3.468 5.243-2.672 11.183-5.701 17.46-5.116l.052-.009c4.476 3.816 8.6 7.993 12.018 12.701a46 46 0 013.339 5.234c-6.907.918-12.98 5.035-17.935 8.433-3.289 2.261-6.13 4.207-8.505 4.819a1.114 1.114 0 00-.808 1.362c.153.601.764.962 1.362.808 2.76-.707 5.753-2.763 9.216-5.139 5.21-3.571 11.087-7.558 17.77-8.149a56.575 56.575 0 011.958 4.393c1.614 4.171 2.388 8.607 2.871 13.062.294 3.958.207 7.944-.024 11.945-4.965-1.079-10.185.038-14.49.963-2.997.648-5.584 1.202-7.451.944a.856.856 0 00-.972.732.859.859 0 00.733.972c2.168.302 4.896-.285 8.05-.964 4.437-.953 9.397-2.006 14.049-.89-.315 4.505-.822 9.033-1.289 13.578-.46 4.962-.838 9.971-.994 14.998-3.256-1.922-7.139-2.583-10.388-3.115-2.421-.394-4.51-.738-5.825-1.476a.688.688 0 10-.676 1.2c1.527.859 3.73 1.219 6.278 1.636 3.53.578 7.472 1.226 10.589 3.341-.076 3.753-.047 7.513.248 11.271.692 9.311 2.543 18.574 5.776 27.324 6.326 17.614 17.154 33.061 29.33 46.831-5.465-7.424-11.023-14.777-15.466-22.818-4.636-7.894-8.694-16.154-11.446-24.846-2.778-8.668-4.636-17.612-5.166-26.692-.009-.139-.005-.28-.014-.419a.65.65 0 00.268-.156c3-3.167 7.471-4.299 11.416-5.3 2.503-.635 4.668-1.182 6.115-2.169a.688.688 0 10-.776-1.137c-1.248.848-3.299 1.37-5.678 1.971-3.666.93-8.154 2.097-11.402 5.065-.377-8.369.259-16.769 1.133-25.187l.11-1.181c4.653-2.321 10.148-2.03 15.028-1.748 3.222.187 6.008.35 8.104-.282a.858.858 0 00.575-1.072.857.857 0 00-1.072-.575c-1.805.541-4.447.39-7.509.21-4.544-.263-10.082-.561-14.941 1.482.767-8.119 1.51-16.362.806-24.705a55.574 55.574 0 00-.381-2.918c3.723-5.982 10.408-9.269 16.316-12.171 3.77-1.85 7.031-3.449 9.002-5.507a1.115 1.115 0 00-.035-1.582 1.11 1.11 0 00-1.582.032z" fill="#E6E9F8"/><path d="M79.435 373.076c-.35.43-1.05.312-1.273-.196-5.202-11.877.155-16.877-.511-23.475-.588-5.825 4.802 6.436 8.469 9.023 3.074 2.169-4.24 11.643-6.685 14.648zm27.845 17.622c-.547.24-1.162-.218-1.125-.815.862-13.95 8.459-16.104 11.069-22.759 2.304-5.874 1.435 8.538 3.677 12.824 1.88 3.594-9.797 9.073-13.621 10.75zm16.413 26.474c-.671-.046-1.044-.823-.697-1.399 8.129-13.459 16.825-11.645 22.896-16.919 5.358-4.656-3.019 9.26-3.018 14.703.002 4.563-14.495 3.937-19.181 3.615zm-.726 35.506c-.432-.285-.388-.946.062-1.2 10.523-5.933 15.657-1.432 21.712-2.666 5.344-1.09-5.518 5.055-7.573 8.698-1.723 3.053-11.187-2.846-14.201-4.832zm-2.92 26.191c-.398-.113-.523-.628-.241-.93 6.599-7.064 11.6-4.868 15.922-7.27 3.814-2.12-2.991 5.187-3.682 8.462-.578 2.744-9.22.526-11.999-.262zM60.879 377.935c.31-.46-.007-1.097-.557-1.163-12.874-1.524-16.098 5.056-22.604 6.337-5.742 1.13 7.553 2.724 11.094 5.482 2.968 2.312 9.903-7.443 12.067-10.656zm20.772 14.332c.325-.502-.028-1.182-.623-1.242-13.903-1.393-17.25 5.76-24.236 7.266-6.167 1.33 8.193 2.79 12.062 5.693 3.243 2.435 10.528-8.212 12.797-11.717zm16.519 21.588c.289-.608-.204-1.314-.877-1.294-15.712.472-18.404 8.94-25.979 11.638-6.685 2.382 9.546 1.919 14.285 4.594 3.973 2.242 10.549-10.697 12.57-14.938zm7.727 27.652c.383-.348.239-.994-.245-1.176-11.308-4.25-15.692.985-21.864.693-5.448-.257 6.227 4.15 8.816 7.434 2.17 2.754 10.619-4.526 13.293-6.951zm-.213 28.345c.387-.146.468-.67.161-.947-7.18-6.472-11.975-3.855-16.487-5.876-3.982-1.785 3.426 4.911 4.394 8.114.812 2.686 9.231-.267 11.932-1.291zM64.969 371.8c.167.473-.254.959-.751.891-11.617-1.581-12.95-8.073-18.357-10.668-4.772-2.291 7.23-.675 10.955-2.288 3.122-1.352 6.985 8.761 8.153 12.065z" fill="#B5EFF9"/><path d="M80.344 457.301c-.434 1.84-1.888 4.06-3.578 6.631-2.484 3.789-5.494 8.411-6.184 13.607-3.884-4.243-8.656-7.726-14.045-9.691-.572-.217-1.155-.368-1.73-.566-2.109-4.317-1.614-9.374-1.17-13.845.284-2.862.53-5.338.045-7.229a.764.764 0 00-.934-.551.763.763 0 00-.55.934c.415 1.628.184 3.976-.089 6.696-.4 4.039-.867 8.963.773 13.365-6.52-1.992-13.224-2.825-19.954-2.985a.71.71 0 00-.28-.703c-3.64-2.66-5.387-7.097-6.931-11.011-.979-2.484-1.824-4.631-3.026-5.986a.709.709 0 00-1.004-.058.707.707 0 00-.059 1.004c1.033 1.167 1.838 3.203 2.765 5.564 1.456 3.689 3.27 8.213 6.837 11.151-2.732-.022-5.461.052-8.183.196-.185-.094-.396-.128-.6-.036-.052.023-.098.054-.148.079-2.734.156-5.459.355-8.157.601 2.382-.017 4.763-.045 7.142-.058-3.821 2.198-6.399 6.059-8.496 9.233-1.395 2.118-2.602 3.944-3.854 4.872a.709.709 0 00-.15.995c.234.318.68.384.994.15 1.457-1.077 2.727-3.003 4.198-5.231 2.319-3.512 4.945-7.491 9.055-9.341a.714.714 0 00.42-.633s-.01-.032-.01-.049c3.992.011 7.976.122 11.935.578 1.677.158 3.352.354 5.02.594-3.807 2.478-6.368 6.51-8.478 9.832-1.462 2.31-2.728 4.3-4.06 5.325a.763.763 0 00-.142 1.075.764.764 0 001.075.142c1.548-1.188 2.88-3.289 4.422-5.719 2.431-3.829 5.184-8.168 9.578-10.243l.03-.027c4.465.776 8.839 1.93 12.951 3.713a35.394 35.394 0 014.267 2.162c-4.222 3.318-6.636 8.432-8.592 12.63-1.295 2.79-2.418 5.195-3.753 6.533a.858.858 0 00-.002 1.22.86.86 0 001.22.002c1.554-1.552 2.734-4.09 4.1-7.024 2.055-4.413 4.391-9.363 8.593-12.377a43.62 43.62 0 013.021 2.147c2.706 2.133 4.959 4.772 7.025 7.538 1.747 2.511 3.252 5.189 4.667 7.934-3.717 1.231-6.742 4.02-9.234 6.322-1.735 1.606-3.234 2.988-4.574 3.549a.66.66 0 00-.357.867.66.66 0 00.866.357c1.557-.65 3.137-2.11 4.964-3.798 2.57-2.372 5.447-5.016 8.97-6.1 1.557 3.112 2.996 6.314 4.468 9.512 1.64 3.473 3.353 6.944 5.22 10.34-2.913.002-5.748 1.087-8.112 2.008-1.76.688-3.281 1.279-4.443 1.306a.53.53 0 10.022 1.061c1.35-.029 2.952-.654 4.805-1.377 2.57-1.001 5.438-2.118 8.335-1.937 1.42 2.519 2.914 5.002 4.584 7.38 4.109 5.905 8.968 11.324 14.543 15.86 11.101 9.203 24.34 15.203 37.815 19.562-6.536-2.781-13.106-5.479-19.205-9.071-6.17-3.417-12.1-7.306-17.333-11.992-5.242-4.66-9.98-9.866-13.891-15.68-.061-.089-.113-.183-.174-.273a.512.512 0 00.117-.208c.749-3.278 3.27-5.782 5.496-7.994 1.411-1.402 2.632-2.615 3.205-3.838a.529.529 0 10-.96-.449c-.495 1.052-1.651 2.203-2.994 3.534-2.068 2.055-4.587 4.59-5.579 7.833-3.53-5.404-6.401-11.226-9.122-17.153l-.39-.827c2.176-3.366 5.936-5.327 9.284-7.054 2.21-1.14 4.122-2.125 5.265-3.366a.662.662 0 10-.975-.898c-.986 1.067-2.797 2.004-4.899 3.084-3.117 1.609-6.908 3.584-9.33 6.844-2.675-5.686-5.413-11.447-9.15-16.705-.446-.608-.919-1.2-1.397-1.787.125-5.428 3.27-10.231 6.052-14.474 1.776-2.706 3.312-5.047 3.813-7.184a.861.861 0 00-.643-1.037.858.858 0 00-1.036.643z" fill="#E6E9F8"/><path d="M27.685 459.02c-.064.423-.575.62-.922.37-8.106-5.839-6.513-11.257-9.542-15.373-2.674-3.634 5.71 2.386 9.156 2.664 2.89.233 1.751 9.387 1.308 12.339zm25.38.768c-.27.374-.856.311-1.065-.099-4.898-9.592-.702-14.001-1.58-19.44-.774-4.8 4.299 5.101 7.467 7.065 2.656 1.647-2.943 9.862-4.822 12.474zm21.266 11.124c-.463.233-1.015-.136-1.01-.654.116-12.117 6.597-14.325 8.556-20.205 1.729-5.19 1.627 7.327 3.762 10.937 1.79 3.026-8.073 8.297-11.308 9.922zm13.437 23.839c-.397-.02-.628-.475-.428-.82 4.655-8.064 9.825-7.092 13.358-10.286 3.117-2.819-1.679 5.518-1.614 8.74.054 2.703-8.537 2.502-11.316 2.366zm8.332 18.52c-.31.081-.594-.211-.526-.522 1.608-7.275 5.787-7.78 7.713-11.068 1.699-2.903.048 4.614.874 7.057.693 2.048-5.91 3.966-8.062 4.533zm-78.82-43.749c.025-.426-.435-.725-.826-.552-9.137 4.038-8.697 9.669-12.51 13.07-3.366 3.002 6.079-1.156 9.508-.715 2.876.37 3.651-8.822 3.827-11.803zm19.398 1.36c.02-.461-.482-.774-.9-.58-9.77 4.529-9.185 10.588-13.23 14.328-3.569 3.3 6.53-1.363 10.234-.955 3.106.343 3.765-9.578 3.896-12.793zm19.421 7.841c-.046-.516-.65-.792-1.088-.514-10.239 6.476-8.705 13.149-12.672 17.911-3.501 4.203 7.085-2.472 11.277-2.556 3.515-.071 2.804-11.234 2.483-14.841zm15.966 15.313c.118-.38-.231-.753-.623-.683-9.168 1.616-10.024 6.808-14.232 9.036-3.715 1.966 5.757.31 8.762 1.473 2.52.976 5.27-7.168 6.093-9.826zm10.972 18.888c.198-.249.047-.628-.265-.692-7.3-1.476-9.455 2.141-13.24 2.569-3.342.378 4.197 1.915 6.095 3.659 1.591 1.464 6.02-3.797 7.41-5.536zm-65.449-49.076c.296.249.207.736-.149.886-8.326 3.509-11.756-.276-16.36.124-4.063.352 4.532-3.284 6.37-5.815 1.542-2.122 8.069 3.071 10.139 4.805z" fill="#B5EFF9"/><path fill-rule="evenodd" clip-rule="evenodd" d="M178.702 504.149c2.709-4.648 4.746-8.145 7.909-4.091 6.392 8.193 2.565 22.614-8.724 26.078-5.282 1.621-6.737 7.516-8.278 13.764-1.753 7.104-3.618 14.664-11.35 16.919-8.239 2.404-12.045.074-17.252-3.112-5.626-3.444-12.888-7.888-29.144-8.444-17.971-2.188-19.588-17.495-6.645-15.222 2.724.478 5.55 1.129 8.277 1.756 10.232 2.354 19.051 4.384 15.679-4.237-4.27-10.918-15.355-19.054-40.88-19.266-25.523-.211-40.056-17.458-28.81-23.436 11.245-5.978 31.636 5.071 48.193 14.427s25.135-.427 12.995-9.146c-4.522-3.246-10.351-5.452-16.567-7.804-10.477-3.964-22.05-8.343-30.3-18.819-13.143-16.692-9.952-22.667 1.517-25.978 11.47-3.311 39.836 18.82 46.73 33.014 6.893 14.194 16.837 16.718 13.306 6.607-.865-2.479-2.148-5.366-3.471-8.342-4.073-9.168-8.523-19.183-2.318-20.716 8.221-2.032 14.725 11.523 12.589 18.081-2.135 6.557-3.05 11.67 6.172 13.583 4.693.974 6.369-6.06 7.912-12.537 1.489-6.25 2.854-11.982 6.688-9.501 7.806 5.054 13.482 28.75 2.707 32.338-10.775 3.588-11.266 25.787.76 25.115 6.075-.339 9.54-6.285 12.305-11.031zm-19.249-28.204s-2.357 4.163-2.799 7.158c-.441 2.996 4.573.498 8.404-1.837 3.832-2.335 2.372-7.752.652-11.763-1.721-4.01-3.427-.342-6.257 6.442zm-70.85-13.452c-8.687-1.538-11.335-6.101-12.629-12.538-.846-4.207-.8-4.189 1.983-3.049 1.477.604 3.723 1.523 7.016 2.295 6.49 1.521 7.37 4.804 8.4 8.645.478 1.781.988 3.682 2.104 5.582 3.523 5.999-6.874-.935-6.874-.935zm-26.08 31.224c2.388 2.486 8.403 6.178 13.055 5.621 2.142-.257 4.514-.106 6.449.017 2.266.144 3.932.25 3.925-.383-.014-1.174-9.432-6.427-9.432-6.427-7.75-4.387-16.387-1.313-13.998 1.172zm56.816 47.276c-2.054 1.514-6.971.919-13.568-1.717-6.597-2.636 1.72-4.291 8.72-2.073 3.702 1.172 6.903 2.275 4.848 3.79zm15.142-87.715c-4.111-.998-4.694 2.806-2.927 5.869 1.734 3.006 3.706 4.254 3.777 4.298l.002.001c2.719-5.599 3.26-9.169-.852-10.168zm16.401 85.652c-6.337.531-8.69-11.601-8.69-11.601-.276-4.17-2.679-6.807-5-9.355-2.976-3.267-5.817-6.385-3.869-12.395 3.467-10.697 8.789-18.541 10.19-6.561.092.784.174 1.549.253 2.293.945 8.875 1.595 14.978 15.984 19.511 11.786 3.713-2.369 17.564-8.868 18.108zm29.572-27.103c-5.069 7.098.69 5.23 4.064 3.437 3.374-1.794 2.279-5.856 1.017-8.898-.835-2.014-1.488-.793-2.697 1.472-.616 1.155-1.378 2.582-2.384 3.989z" fill="#C6B5F9"/><path d="M555.161 488.423c20.665-15.897 29.975-28.147 21.253-39.993-8.722-11.846-7.376-12.984 1.797-26.89 9.174-13.906-.177-14.714-4.131-22.902-3.954-8.189 3.974-16.43 8.596-27.769 4.621-11.34-12.651-25.694-24.186-15.174-11.534 10.521 4.272 18.94-3.555 31.709-7.828 12.768-30.211 16.828-25.114 28.408 5.097 11.579 23.45 16.308 12.029 28.527-11.42 12.218-19.076 20.741-8.494 32.296s21.805 11.788 21.805 11.788z" fill="#DDE6FC"/><path d="M566.899 375.321a10289.534 10289.534 0 00-10.042 78.144c-1.658 13.024-3.525 26.049-4.746 39.071-1.127 13.021-2.323 26.043-2.736 39.062l.366-.002c2.509-13.028 4.233-26.052 6.026-39.077 1.7-13.024 2.753-26.045 4.016-39.068a10112.41 10112.41 0 007.482-78.132l-.366.002z" fill="#8497FA"/><path d="M551.201 411.45c1.909 1.044 5.072 1.517 8.74 2.06 5.402.805 11.971 1.804 16.868 5.206.113-6.539 1.67-13.245 5.041-19.31.35-.65.766-1.259 1.135-1.896-1.589-5.093-6.19-8.553-10.263-11.608-2.609-1.955-4.866-3.645-5.966-5.506-.24-.401-.056-.945.411-1.212.46-.267 1.033-.159 1.275.25.949 1.6 3.088 3.205 5.569 5.061 3.679 2.759 8.146 6.139 10.238 10.903 4.394-7.041 9.908-13.349 15.999-19.164a.703.703 0 01-.318-.775c1.184-5.118-.836-9.998-2.617-14.306-1.13-2.732-2.108-5.094-2.107-7.149-.001-.445.393-.846.88-.894.481-.052.877.268.877.72.002 1.769.926 4.01 2.004 6.605 1.678 4.06 3.709 9.064 2.819 14.333a189.873 189.873 0 017.724-6.77.931.931 0 01.526-.535c.067-.026.134-.04.201-.065a347.953 347.953 0 018.032-6.436c-2.215 2-4.439 3.993-6.649 5.995 5.333-1.546 10.88-.764 15.419-.103 3.026.445 5.638.824 7.556.477.49-.089.914.2.953.637.044.441-.314.869-.797.956-2.228.405-4.981.002-8.166-.463-5.021-.731-10.709-1.563-16.025.493-.335.13-.683.066-.905-.131a.07.07 0 01-.019-.032c-3.695 3.371-7.286 6.826-10.572 10.522a144.928 144.928 0 00-4.155 4.701c5.55-1.319 11.221-.393 15.894.371 3.245.535 6.046.991 8.117.651.529-.087.979.232 1.012.705.038.477-.356.934-.877 1.018-2.405.397-5.358-.087-8.774-.646-5.384-.881-11.485-1.881-17.247.244 0 0-.033 0-.05.006-3.491 4.371-6.589 8.954-8.93 13.799a42.654 42.654 0 00-2.172 5.267c6.622-1.026 13.044.854 18.292 2.42 3.484 1.044 6.492 1.94 8.823 1.836.596-.027 1.04.394 1.002.934-.035.545-.54 1.008-1.126 1.033-2.708.124-5.879-.825-9.546-1.921-5.516-1.645-11.731-3.466-18.086-2.224a49.338 49.338 0 00-1.033 4.2c-.753 3.925-.673 7.853-.316 11.722.443 3.403 1.246 6.729 2.188 10.031 4.445-2.198 9.526-2.617 13.716-2.961 2.92-.235 5.438-.443 7.136-1.145.434-.18.898-.015 1.04.362.148.38-.081.831-.508 1.007-1.972.819-4.628 1.035-7.7 1.285-4.319.354-9.145.76-13.291 2.907 1.111 3.703 2.405 7.376 3.665 11.073 1.33 4.05 2.591 8.161 3.648 12.344 2.695-2.462 6.205-4.028 9.144-5.32 2.193-.961 4.083-1.794 5.178-2.756.279-.246.693-.254.923-.024.236.23.202.614-.074.856-1.271 1.119-3.266 1.994-5.571 3.008-3.195 1.405-6.762 2.974-9.292 5.563.752 3.133 1.405 6.3 1.811 9.535 1.041 8.003.99 16.269-.446 24.461-2.72 16.446-10.041 32.242-18.925 46.98 3.762-7.66 7.624-15.284 10.319-23.197 2.903-7.839 5.198-15.835 6.194-23.855 1.026-8.005 1.141-16.004-.009-23.771-.016-.119-.046-.236-.063-.356a.599.599 0 01-.278-.061c-3.379-1.881-7.762-1.669-11.631-1.483-2.454.118-4.577.221-6.108-.233a.535.535 0 01-.341-.757.735.735 0 01.861-.399c1.319.388 3.332.293 5.664.178 3.595-.172 8.001-.359 11.574 1.29-1.164-7.13-3.281-14.023-5.624-20.869l-.317-.964c-4.769-.74-9.851.935-14.362 2.441-2.977.995-5.551 1.857-7.625 1.872-.449.004-.777-.332-.731-.752.042-.415.441-.759.898-.762 1.785-.015 4.227-.829 7.055-1.777 4.2-1.402 9.322-3.094 14.233-2.641-2.187-6.623-4.377-13.356-5.231-20.55a44.754 44.754 0 01-.173-2.551c-4.564-4.057-11.408-5.08-17.456-5.982-3.859-.573-7.197-1.069-9.412-2.284-.48-.262-.595-.862-.254-1.339.332-.474.997-.65 1.484-.383z" fill="#E6E9F8"/><path d="M601.285 368.239c.406.271 1.039-.01 1.155-.496 2.708-11.333-3.204-14.14-3.778-19.858-.506-5.047-3.322 6.658-6.28 9.785-2.48 2.622 6.073 8.68 8.903 10.569zm-22.831 22.051c.555.06 1.046-.485.903-.977-3.333-11.498-10.824-11.331-14.47-16.244-3.218-4.336.207 7.547-1.112 11.732-1.106 3.509 10.801 5.075 14.679 5.489zm-10.543 26.515c.619-.214.828-.963.398-1.357-10.037-9.194-17.836-5.408-24.466-8.26-5.852-2.517 4.499 6.996 5.485 11.569.825 3.835 14.262-.463 18.583-1.952zm7.115 29.645c.352-.351.191-.896-.276-.992-10.911-2.247-14.894 2.87-20.776 3.408-5.193.474 6.074 2.812 8.654 5.338 2.164 2.118 9.94-5.3 12.398-7.754zm7.475 21.248c.352-.199.376-.664.058-.845-7.448-4.219-11.724-1.073-16.199-1.967-3.949-.789 3.736 3.58 4.974 6.152 1.039 2.158 8.714-1.955 11.167-3.34zm37.008-100.204c-.372-.306-.192-.923.311-1.121 11.755-4.63 15.961.06 22.274-.557 5.572-.543-6.565 4.255-9.375 7.493-2.355 2.715-10.605-3.678-13.21-5.815zm-16.817 17.447c-.395-.337-.188-1 .357-1.205 12.741-4.788 17.166.352 23.969-.2 6.005-.487-7.152 4.476-10.242 7.922-2.589 2.889-11.328-4.162-14.084-6.517zm-11.526 22.437c-.381-.435-.048-1.157.585-1.315 14.771-3.691 18.821 2.724 26.39 3.021 6.681.262-8.574 4.095-12.519 7.576-3.307 2.917-11.798-6.245-14.456-9.282zm-2.211 25.245c-.421-.193-.403-.773.016-1.052 9.799-6.513 14.845-3.254 20.561-5.105 5.045-1.634-5.068 5.106-6.892 8.54-1.53 2.878-10.746-1.042-13.685-2.383zm5.337 23.762c-.388-.023-.559-.442-.322-.755 5.538-7.305 10.494-6.354 14.344-9.226 3.399-2.536-2.311 5.017-2.635 7.961-.273 2.468-8.677 2.178-11.387 2.02zm20.282-92.982c-.07.441.412.74.864.554 10.571-4.351 10.64-10.152 15.223-13.74 4.045-3.166-6.88 1.315-10.653.928-3.163-.324-4.941 9.179-5.434 12.258z" fill="#B5EFF9"/><path d="M634.072 413.592c.834 2.012 3.003 4.368 5.522 7.094 3.704 4.02 8.198 8.924 9.884 14.65 4.179-5.023 9.588-9.27 16.009-11.878.68-.286 1.385-.5 2.072-.765 1.949-4.966.529-10.551-.733-15.489-.81-3.162-1.511-5.896-1.204-8.036.065-.464.548-.773 1.079-.687.525.081.904.525.836.995-.261 1.843.4 4.437 1.173 7.441 1.14 4.461 2.505 9.9 1.153 14.925 7.83-2.726 16.073-4.177 24.456-4.882a.706.706 0 01.237-.804c4.125-3.243 5.605-8.313 6.913-12.789.829-2.839 1.545-5.293 2.832-6.893.277-.348.835-.413 1.244-.144.408.262.516.76.234 1.112-1.106 1.379-1.788 3.706-2.573 6.405-1.233 4.217-2.782 9.391-6.772 12.937 3.41-.238 6.83-.37 10.254-.423a.932.932 0 01.745-.087c.068.021.129.053.197.076 3.44-.04 6.876-.032 10.285.03-2.977.168-5.957.323-8.932.495 5.123 2.145 8.955 6.238 12.078 9.604 2.079 2.247 3.877 4.183 5.588 5.117.437.238.588.73.345 1.095-.242.371-.789.48-1.219.244-1.989-1.084-3.883-3.127-6.073-5.49-3.455-3.723-7.366-7.943-12.794-9.681-.342-.109-.574-.377-.624-.671-.003-.018.007-.037.007-.037-4.989.306-9.948.742-14.822 1.558-2.069.307-4.132.656-6.178 1.053 5.149 2.458 8.988 6.742 12.151 10.272 2.193 2.455 4.091 4.57 5.916 5.606.466.264.618.795.348 1.184-.269.395-.861.504-1.32.242-2.122-1.201-4.12-3.433-6.431-6.014-3.645-4.068-7.772-8.679-13.59-10.643 0 0-.025-.021-.042-.027-5.456 1.212-10.737 2.837-15.592 5.142a42.29 42.29 0 00-4.988 2.739c5.801 3.359 9.628 8.858 12.737 13.374 2.06 3.002 3.844 5.589 5.724 6.972.481.353.564.961.196 1.357-.367.403-1.051.446-1.523.098-2.187-1.604-4.065-4.334-6.236-7.492-3.268-4.746-6.971-10.069-12.699-13.092a49.251 49.251 0 00-3.433 2.623c-3.042 2.585-5.437 5.696-7.581 8.934-1.784 2.93-3.239 6.026-4.572 9.189 4.839 1.079 9.06 3.944 12.539 6.309 2.422 1.65 4.514 3.07 6.277 3.589.45.132.708.553.584.936-.123.389-.583.597-1.026.465-2.049-.6-4.253-2.101-6.803-3.834-3.587-2.438-7.601-5.153-12.174-6.083-1.452 3.583-2.741 7.257-4.073 10.929-1.498 3.99-3.088 7.985-4.882 11.908 3.64-.225 7.354.759 10.453 1.598 2.309.628 4.302 1.167 5.758 1.105.372-.016.699.238.735.562.039.327-.228.605-.594.62-1.691.074-3.792-.497-6.223-1.156-3.368-.912-7.129-1.929-10.719-1.502-1.376 2.914-2.848 5.791-4.556 8.567-4.197 6.889-9.408 13.296-15.653 18.777-12.409 11.105-27.997 18.813-44.141 24.716 7.725-3.605 15.504-7.12 22.554-11.592 7.167-4.284 13.958-9.072 19.753-14.695 5.808-5.592 10.903-11.752 14.867-18.525.062-.104.112-.214.174-.318a.62.62 0 01-.179-.222c-1.455-3.587-5.003-6.175-8.133-8.461-1.986-1.45-3.704-2.703-4.614-4.018a.536.536 0 01.208-.804.738.738 0 01.921.229c.785 1.132 2.412 2.321 4.301 3.697 2.909 2.124 6.459 4.746 8.211 8.275 3.554-6.287 6.217-12.986 8.676-19.792l.356-.95c-3.253-3.572-8.26-5.46-12.717-7.119-2.943-1.094-5.487-2.04-7.112-3.331-.353-.279-.398-.748-.1-1.045.292-.297.819-.314 1.176-.03 1.4 1.11 3.812 2.01 6.61 3.047 4.149 1.546 9.198 3.445 12.742 6.882 2.44-6.534 4.947-13.155 8.782-19.296.46-.712.957-1.406 1.462-2.096-1.017-6.028-5.71-11.124-9.857-15.625-2.647-2.871-4.938-5.353-5.903-7.692-.211-.505.075-1.045.64-1.203.556-.156 1.184.124 1.396.639z" fill="#E6E9F8"/><path d="M700.13 411.383c.147.465.817.644 1.21.339 9.202-7.129 6.352-13.03 9.483-17.844 2.764-4.25-6.754 3.101-11.016 3.679-3.573.485-.699 10.577.323 13.826zm-31.585 2.84c.396.395 1.119.279 1.315-.194 4.597-11.051-1.343-15.626-1.11-21.744.206-5.4-4.562 6.01-8.207 8.442-3.057 2.038 5.24 10.738 8.002 13.496zm-24.804 14.036c.616.223 1.247-.231 1.159-.807-2.067-13.467-10.513-15.416-13.894-21.802-2.984-5.637-.871 8.277-2.966 12.459-1.755 3.505 11.402 8.596 15.701 10.15zm-13.007 27.565c.494-.053.709-.578.406-.946-7.095-8.604-13.4-7.118-18.319-10.394-4.342-2.891 2.972 6.006 3.402 9.595.361 3.009 11.062 2.113 14.511 1.745zm-7.47 21.249c.397.067.708-.281.573-.622-3.163-7.964-8.464-8.199-11.39-11.706-2.584-3.095.671 5.136.026 7.917-.541 2.333 8.012 3.95 10.791 4.411zm91.532-54.825c-.099-.473.428-.84.943-.678 12.056 3.776 12.398 10.072 17.702 13.557 4.682 3.076-7.777-.809-11.992-.051-3.534.635-5.961-9.526-6.653-12.828zm-24.02 3.031c-.097-.511.479-.898 1.032-.714 12.923 4.272 13.154 11.056 18.8 14.899 4.983 3.391-8.373-1.005-12.936-.261-3.826.624-6.222-10.358-6.896-13.924zm-23.019 10.241c-.024-.578.687-.931 1.278-.658 13.818 6.402 12.961 13.944 18.671 18.929 5.041 4.4-9.243-2.195-14.493-1.96-4.402.196-5.285-12.275-5.456-16.311zm-17.518 18.28c-.208-.414.17-.855.671-.809 11.709 1.08 13.602 6.788 19.213 8.936 4.952 1.896-7.145.796-10.714 2.325-2.992 1.281-7.72-7.561-9.17-10.452zm-10.71 21.865c-.288-.261-.159-.694.221-.789 8.886-2.214 12.151 1.64 16.948 1.821 4.234.159-4.941 2.457-7.035 4.547-1.756 1.751-8.122-3.754-10.134-5.579zm73.982-59.703c-.331.3-.143.835.326.974 10.959 3.249 14.643-1.227 20.459-1.143 5.132.074-6.183-3.298-8.881-5.969-2.263-2.239-9.594 4.048-11.904 6.138z" fill="#B5EFF9"/><path fill-rule="evenodd" clip-rule="evenodd" d="M549.701 538.589c-2.574-4.849-5.001-9.424-10.232-9.412-11.179.027-17.37-11.094-12.882-19.642 2.222-4.23 4.76-1.822 8.134 1.38 3.445 3.268 7.76 7.363 13.5 6.067 11.362-2.564 6.879-21.088-3.842-21.3-10.721-.212-9.711-21.599-3.33-27.876 3.133-3.083 5.448 1.378 7.973 6.242 2.616 5.041 5.457 10.515 9.667 8.476 8.272-4.007 6.491-8.064 3.306-13.019-3.185-4.954.438-18.035 8.49-18.467 6.077-.326 3.733 9.248 1.587 18.011-.696 2.844-1.372 5.604-1.732 7.911-1.468 9.415 7.369 4.707 11.24-9.013 3.87-13.72 26.372-39.696 37.692-39.897 11.32-.202 15.385 3.988 6.126 21.433-5.811 10.949-15.834 17.639-24.908 23.695-5.383 3.594-10.432 6.964-14.069 10.868-9.767 10.485.023 16.473 13.803 4.305 13.779-12.169 30.835-26.758 42.429-24.661 11.595 2.097 1.137 20.37-22.68 27.188-23.818 6.818-32.705 16.538-34.717 26.823-1.588 8.122 6.286 4.122 15.423-.518 2.435-1.237 4.959-2.519 7.418-3.629 11.686-5.277 12.949 8.006-3.451 14.519-15.094 4.696-21.075 10.32-25.71 14.676-4.289 4.032-7.424 6.98-15.56 7.104-7.636.117-10.75-5.751-13.675-11.264zm-9.116-60.164c-.881 3.817-1.263 8.748 2.741 9.714 4.004.965 9.143 1.759 8.188-.643-.956-2.402-3.913-5.287-3.913-5.287-3.875-4.963-6.135-7.602-7.016-3.784zm64.541-23.377c.699-1.887.831-3.617.955-5.238.266-3.495.494-6.483 6.285-9.449 2.937-1.505 4.87-2.862 6.141-3.754 2.395-1.681 2.434-1.709 2.406 2.046-.043 5.747-1.69 10.268-9.531 13.821 0 0-8.46 8.531-6.256 2.574zm22.996 19.533s-7.849 6.865-7.65 7.855c.108.534 1.646.011 3.739-.7 1.785-.606 3.975-1.35 6.023-1.692 4.448-.741 9.401-5.409 11.184-8.119 1.783-2.71-6.846-3.046-13.296 2.656zm-27.395 47.403c6.14-3.684 14.215-4.458 8.526-.526-5.689 3.931-10.176 5.711-12.371 4.972-2.194-.738.598-2.497 3.845-4.446zm-33.895-65.317c-3.661 1.908-2.509 4.768 1.047 8.765 0 0 1.657-1.563 2.753-4.596 1.096-3.033-.139-6.078-3.8-4.169zm-11.375 63.328c12.626-7.552 12.128-12.85 11.403-20.552-.061-.647-.123-1.31-.179-1.993-.862-10.432 5.534-5.226 10.713 2.861 2.91 4.543.82 7.903-1.369 11.422-1.708 2.744-3.476 5.586-2.978 9.161 0 0 0 10.807-6.02 12.009-6.173 1.233-21.913-6.723-11.57-12.908zm-23.932-4.903c-1.541-1.589-2.372-2.446-2.788-.536-.628 2.884-.915 6.584 2.563 7.212 3.479.629 9.2.7 3.175-3.944-1.194-.921-2.164-1.922-2.95-2.732z" fill="#DDF7FC"/><path d="M541.364 558.186H160.757c-19.161 0-34.695-15.551-34.695-34.735v-4.07h449.996v4.07c0 19.184-15.533 34.735-34.694 34.735z" fill="#9F91D3"/><path d="M369.874 540.577h-37.626c-9.65 0-17.472-7.831-17.472-17.492v-3.704h72.57v3.704c0 9.66-7.823 17.492-17.472 17.492z" fill="#393768"/><path opacity=".168" d="M541.364 558.186H160.757c-19.161 0-34.695-15.551-34.695-34.735v-4.07h449.996v4.07c0 19.184-15.533 34.735-34.694 34.735z" fill="url(#paint0_linear)"/><path d="M536.772 519.381H165.349c-8.396 0-15.203-6.814-15.203-15.22V277.286c0-8.405 6.807-15.219 15.203-15.219h371.423c8.396 0 15.202 6.814 15.202 15.219v226.875c0 8.406-6.806 15.22-15.202 15.22z" fill="#ADADEA"/><path d="M535.499 491.494H166.622a5.704 5.704 0 01-5.701-5.707V282.351a5.705 5.705 0 015.701-5.708h368.877c3.148 0 5.7 2.556 5.7 5.708v203.436a5.703 5.703 0 01-5.7 5.707z" fill="#E6E9F8"/><path opacity=".08" d="M536.772 262.066H165.349c-8.396 0-15.203 6.814-15.203 15.22v226.875c0 8.406 6.807 15.22 15.203 15.22h371.423c8.395 0 15.203-6.814 15.203-15.22V277.286c0-8.406-6.808-15.22-15.203-15.22z" fill="url(#paint1_linear)"/><path fill-rule="evenodd" clip-rule="evenodd" d="M111.805 186.41v92.148c0 14.94 12.137 27.098 27.06 27.099h35.418v7.536h-35.419c-19.069 0-34.587-15.543-34.587-34.634v-92.132c-6.61-1.702-11.608-7.441-11.608-14.585 0-8.464 6.874-15.345 15.328-15.345s15.327 6.881 15.327 15.345c0 7.112-4.952 12.836-11.519 14.568zm-3.808-22.378c-4.301 0-7.8 3.504-7.8 7.809 0 4.299 3.499 7.802 7.8 7.802 4.3 0 7.799-3.504 7.799-7.802 0-4.305-3.499-7.809-7.799-7.809zm156.601-63.403h205.003c19.069 0 34.581 15.536 34.581 34.627v56.118h-7.528v-56.118c0-14.94-12.13-27.091-27.053-27.091H264.598c-1.717 6.596-7.446 11.577-14.566 11.577-8.454 0-15.328-6.881-15.328-15.345s6.874-15.345 15.328-15.345c7.12 0 12.85 4.98 14.566 11.577zm-22.366 3.769c0 4.305 3.5 7.808 7.8 7.808s7.8-3.503 7.8-7.808-3.499-7.809-7.8-7.809-7.8 3.504-7.8 7.809z" fill="#9A92EA"/><path fill-rule="evenodd" clip-rule="evenodd" d="M319.434 313.545c.761-.562 1.141-1.499 1.236-2.436 0-.749-.19-1.592-.856-2.342l-4.085-6.089c-1.046-1.499-3.041-2.061-4.656-1.312-.285.094-.57.281-.856.469a1.32 1.32 0 01-.19.14 1.36 1.36 0 00-.19.141c-1.52 1.218-3.325 1.78-5.036 1.592-2.755-.281-5.511.562-7.791 2.155-4.656 3.279-6.082 9.837-3.136 14.708 1.615 2.717 4.181 4.591 7.317 5.34 3.135.656 6.271.094 8.931-1.592 2.186-1.405 3.706-3.373 4.561-5.809.571-1.686 1.806-3.185 3.421-4.028.475-.281.95-.562 1.33-.937zm-24.8 6.652c-1.14-1.78-1.52-3.841-1.425-5.902a10.494 10.494 0 014.276-7.776c2.09-1.499 4.751-2.249 7.316-1.968 1.901.188 3.896-.374 5.606-1.686.048-.047.119-.094.191-.14.071-.047.142-.094.19-.141.19-.187.475-.375.76-.468 1.33-.656 2.85-.188 3.706 1.03l4.085 6.09c.856 1.218.666 2.904-.475 3.841-.38.281-.76.562-1.14.749-1.805.937-3.136 2.53-3.801 4.403-.76 2.249-2.28 4.122-4.276 5.434-2.47 1.686-5.416 2.155-8.266 1.499-2.851-.656-5.227-2.436-6.747-4.965z" fill="#6C6CB5"/><path fill-rule="evenodd" clip-rule="evenodd" d="M322.76 310.641c.475-.375.76-.843.76-1.312.095-.374 0-.655-.285-.937l-5.416-8.15c-.19-.375-.57-.656-1.045-.75-.38 0-.855 0-1.235.282l-.381.281c-.76.468-.95 1.499-.475 2.248l5.416 8.151c.191.374.571.655 1.046.749.38 0 .855 0 1.235-.281l.38-.281zm-7.412-8.806c-.19-.188-.19-.375-.19-.563.015-.029.031-.061.046-.095.084-.179.19-.403.43-.56l.38-.281c.19-.094.475-.188.665-.094.19 0 .475.187.57.375l5.416 8.15c.285.375.095.937-.285 1.218l-.38.281c-.19.094-.475.188-.665.094-.19 0-.475-.188-.57-.375l-5.417-8.15z" fill="#6C6CB5"/><path fill-rule="evenodd" clip-rule="evenodd" d="M325.421 306.425v-.187c0-.281-.095-.656-.285-1.031l-3.706-5.527c-.475-.75-1.52-.937-2.281-.469l-.38.281c-.76.469-.95 1.499-.475 2.249l3.706 5.527c.475.75 1.52.937 2.28.469l.381-.281c.38-.188.665-.562.76-1.031zm-6.462-4.965c-.19-.188-.19-.375-.19-.562 0-.281.19-.562.475-.656l.38-.281c.381-.281.951-.094 1.236.281l3.706 5.527c.285.375.095.937-.286 1.218l-.38.281c-.38.281-.95.094-1.235-.281l-3.706-5.527z" fill="#6C6CB5"/><path fill-rule="evenodd" clip-rule="evenodd" d="M324.946 305.207c.95-.562 1.425-1.499 1.52-2.529 0-.75-.19-1.405-.475-2.061a3.706 3.706 0 00-2.185-1.406 3.463 3.463 0 00-2.566.469c-.029.028-.057.065-.089.106-.072.092-.158.203-.291.269-.19.093-.19.281-.095.468l3.231 4.872c.095.093.285.187.475.093.095-.047.166-.093.237-.14.072-.047.143-.094.238-.141zm.38-4.216c.76 1.218.38 2.811-.855 3.654l-2.851-4.309c0-.094.095-.094.095-.094.57-.375 1.331-.468 1.996-.375.665.188 1.235.562 1.615 1.124z" fill="#6C6CB5"/><path fill-rule="evenodd" clip-rule="evenodd" d="M407.87 347.283a.741.741 0 00.486.193l42.03-16.037c.097 0 .194-.097.194-.193v-.29l-7.686-20.289c-.097-.193-.291-.29-.486-.193l-42.03 16.038c-.097 0-.194.096-.194.193v.29l7.686 20.288zm.583-.773l-7.394-19.515 41.349-15.748 7.394 19.515-41.349 15.748z" fill="#6666C7"/><path fill-rule="evenodd" clip-rule="evenodd" d="M425.966 331.052h.097l.292-.193.097-.097 16.345-19.805c.097-.097.097-.29 0-.386 0-.097-.195-.097-.292-.097l-42.03 16.038c-.097 0-.194.193-.194.289.097.194.194.29.292.29l25.393 3.961zm0-.579l-24.226-3.768 40.084-15.265-15.664 18.936-.194.097z" fill="#6666C7"/><defs><linearGradient id="paint0_linear" x1="681.807" y1="571.774" x2="681.801" y2="514.853" gradientUnits="userSpaceOnUse"><stop stop-color="#fff"/><stop offset=".098" stop-color="#FAFAFA"/><stop offset=".222" stop-color="#EAEAEA"/><stop offset=".36" stop-color="#D0D0D0"/><stop offset=".508" stop-color="#ABABAB"/><stop offset=".665" stop-color="#7D7D7D"/><stop offset=".829" stop-color="#444"/><stop offset=".996" stop-color="#020202"/><stop offset="1"/></linearGradient><linearGradient id="paint1_linear" x1="92.848" y1="196.651" x2="88.517" y2="535.052" gradientUnits="userSpaceOnUse"><stop stop-color="#fff"/><stop offset=".098" stop-color="#FAFAFA"/><stop offset=".222" stop-color="#EAEAEA"/><stop offset=".36" stop-color="#D0D0D0"/><stop offset=".508" stop-color="#ABABAB"/><stop offset=".665" stop-color="#7D7D7D"/><stop offset=".829" stop-color="#444"/><stop offset=".996" stop-color="#020202"/><stop offset="1"/></linearGradient></defs></svg>