<svg width="300" height="243" fill="none" xmlns="http://www.w3.org/2000/svg"><path d="M57.793 210.313c-51.475 0-50.49 14.737-28.915 14.877 21.576.14 9.25 12.109 48.796 12.251 16.847.061 27.29-6.329 58.494-7.234 31.204-.904 56.691 9.081 99.539 7.012 37.478-1.809 44.07-17.991 4.85-18.321-35.872-.301 5.422-7.672-9.761-8.585-15.183-.914-173.003 0-173.003 0z" fill="#EFF0F8"/><path d="M57.953 181.143c-32.492-14.554-12.374-34.822-26.794-54.488-14.42-19.665-15.633-54.266 13.397-41.781 29.03 12.484 67.679-23.616 43.907-51.767-23.773-28.15.666-44.179 25.078-24.187 24.412 19.99 44.564 65.563 83.364 44.494 38.801-21.069 69.18 1.204 46.621 27.089-22.558 25.885-3.178 104.244-37.125 103.614-33.946-.63-148.448-2.974-148.448-2.974z" fill="#EEEFFA"/><g opacity=".5"><path d="M95.9 11.336a2.48 2.48 0 01-2.475-2.478h1.424A1.052 1.052 0 1095.9 7.805V6.38a2.48 2.48 0 012.476 2.478 2.48 2.48 0 01-2.477 2.478zm32.242 39.397a2.48 2.48 0 01-2.475-2.48h1.424c0 .582.471 1.054 1.051 1.054a1.054 1.054 0 000-2.106v-1.425a2.48 2.48 0 012.476 2.478 2.48 2.48 0 01-2.476 2.479zm-20.777 37.125a2.48 2.48 0 01-2.474-2.479h1.423c0 .581.472 1.054 1.051 1.054a1.055 1.055 0 000-2.106v-1.425a2.48 2.48 0 012.477 2.477 2.48 2.48 0 01-2.477 2.48zm69.43-1.851a2.48 2.48 0 01-2.475-2.479h1.424a1.053 1.053 0 101.051-1.053V81.05a2.48 2.48 0 012.476 2.478 2.48 2.48 0 01-2.476 2.479zm44.396-25.162a2.48 2.48 0 01-2.475-2.478h1.423c0 .58.472 1.053 1.052 1.053a1.054 1.054 0 000-2.106v-1.425a2.48 2.48 0 012.476 2.477 2.48 2.48 0 01-2.476 2.48zM40.548 100.723a2.48 2.48 0 01-2.475-2.479h1.424c0 .581.471 1.054 1.05 1.054a1.054 1.054 0 000-2.106v-1.426a2.48 2.48 0 012.477 2.478 2.48 2.48 0 01-2.476 2.479zm-.175 26.041a2.48 2.48 0 01-2.475-2.479h1.424c0 .581.471 1.054 1.051 1.054s1.053-.473 1.053-1.054c0-.58-.473-1.052-1.053-1.052v-1.425a2.48 2.48 0 012.476 2.477 2.48 2.48 0 01-2.476 2.479zm41.644-27.651a2.48 2.48 0 01-2.475-2.478h1.424c0 .58.471 1.053 1.05 1.053a1.054 1.054 0 00.001-2.106v-1.425a2.48 2.48 0 012.476 2.478 2.48 2.48 0 01-2.476 2.478zm61.524-6.503a2.48 2.48 0 01-2.475-2.478h1.424a1.053 1.053 0 101.051-1.053v-1.425a2.48 2.48 0 012.476 2.478 2.48 2.48 0 01-2.476 2.479zm9.308-29.655a2.48 2.48 0 01-2.475-2.48h1.424c0 .582.471 1.054 1.051 1.054a1.054 1.054 0 000-2.106v-1.425a2.48 2.48 0 012.476 2.478 2.48 2.48 0 01-2.476 2.479zm62.11 87.994a2.48 2.48 0 01-2.475-2.479h1.424c0 .581.471 1.054 1.051 1.054s1.053-.473 1.053-1.054c0-.58-.473-1.053-1.053-1.053v-1.425a2.48 2.48 0 010 4.957zM101.524 62.843a2.48 2.48 0 01-2.475-2.479h1.424c0 .581.471 1.054 1.051 1.054a1.054 1.054 0 000-2.106v-1.426A2.48 2.48 0 01104 60.364a2.48 2.48 0 01-2.476 2.479zm10.552-36.219a2.48 2.48 0 01-2.474-2.479h1.423c0 .581.472 1.054 1.051 1.054a1.055 1.055 0 000-2.106v-1.426a2.48 2.48 0 010 4.957z" fill="#F9C6B5"/><path d="M87.234 19.983a2.48 2.48 0 01-2.476-2.48 2.48 2.48 0 012.476-2.477 2.48 2.48 0 012.476 2.478h-1.423c0-.58-.473-1.053-1.053-1.053a1.054 1.054 0 000 2.107v1.425zm30.977 19.977a2.48 2.48 0 01-2.477-2.478 2.48 2.48 0 012.477-2.478 2.48 2.48 0 012.476 2.478h-1.424c0-.58-.473-1.053-1.052-1.053-.58 0-1.053.473-1.053 1.053 0 .581.473 1.054 1.053 1.054v1.425zm10.648 28.873a2.48 2.48 0 01-2.476-2.478 2.48 2.48 0 012.476-2.478 2.48 2.48 0 012.476 2.478h-1.423c0-.58-.473-1.053-1.053-1.053s-1.053.472-1.053 1.053c0 .58.473 1.053 1.053 1.053v1.425zM89.254 86.929a2.48 2.48 0 01-2.476-2.479 2.48 2.48 0 012.476-2.478 2.48 2.48 0 012.477 2.478h-1.424c0-.58-.473-1.053-1.053-1.053a1.054 1.054 0 000 2.107v1.425zm-38.95 31.312a2.48 2.48 0 01-2.476-2.479 2.48 2.48 0 012.476-2.478 2.48 2.48 0 012.477 2.478h-1.424a1.054 1.054 0 10-1.053 1.054v1.425zm2.547-21.134a2.48 2.48 0 01-2.476-2.479 2.48 2.48 0 012.476-2.478 2.48 2.48 0 012.476 2.478h-1.423c0-.58-.473-1.053-1.053-1.053a1.054 1.054 0 000 2.107v1.425zM30.685 95.28a2.48 2.48 0 01-2.476-2.478 2.48 2.48 0 012.476-2.478 2.48 2.48 0 012.476 2.478h-1.423c0-.58-.473-1.053-1.053-1.053a1.054 1.054 0 000 2.106v1.425zm96.297 4.264a2.48 2.48 0 01-2.476-2.479 2.48 2.48 0 012.476-2.478 2.48 2.48 0 012.476 2.478h-1.423c0-.58-.473-1.053-1.053-1.053a1.054 1.054 0 000 2.107v1.425zm46.908-23.661a2.48 2.48 0 01-2.476-2.478 2.48 2.48 0 012.476-2.478 2.48 2.48 0 012.476 2.478h-1.423c0-.58-.473-1.053-1.053-1.053a1.054 1.054 0 000 2.106v1.425zm-4.425 22.271a2.48 2.48 0 01-2.476-2.479 2.48 2.48 0 012.476-2.478 2.48 2.48 0 012.477 2.478h-1.424c0-.58-.473-1.053-1.053-1.053-.579 0-1.052.473-1.052 1.053 0 .581.473 1.054 1.052 1.054v1.425zm43.582-39.787a2.48 2.48 0 01-2.477-2.479 2.48 2.48 0 012.477-2.478 2.48 2.48 0 012.476 2.478h-1.424c0-.58-.473-1.053-1.052-1.053-.58 0-1.053.473-1.053 1.053 0 .581.473 1.054 1.053 1.054v1.425zm27.882 8.133a2.48 2.48 0 01-2.476-2.478 2.48 2.48 0 012.476-2.478 2.48 2.48 0 012.477 2.478h-1.424c0-.58-.473-1.053-1.053-1.053a1.054 1.054 0 000 2.106V66.5zm-27.561 96.18a2.48 2.48 0 010-4.957 2.48 2.48 0 012.476 2.478h-1.424c0-.58-.472-1.053-1.052-1.053-.58 0-1.053.473-1.053 1.053 0 .581.473 1.053 1.053 1.053v1.426z" fill="#B5EFF9"/></g><path d="M58.672 190.331c-9.378-4.391-14.03-8.573-11.63-14.752 2.4-6.18 1.781-6.51-2.956-11.425-4.738-4.915-1.167-6.391-.315-10.413.852-4.021-2.926-6.634-5.677-10.986-2.75-4.352 2.767-12.648 8.14-9.483 5.372 3.165-.073 8.714 4.045 13.299 4.118 4.584 13.17 3.645 12.16 9.272-1.013 5.627-7.758 9.886-2.288 13.799 5.471 3.913 9.166 6.681 6.018 12.958-3.149 6.278-7.497 7.731-7.497 7.731z" fill="#DDF7FC"/><path d="M44.609 142.782a4717.125 4717.125 0 0110.468 32.62c1.739 5.439 3.56 10.852 5.128 16.343 1.531 5.501 3.09 10.994 4.343 16.581l-.142.043c-2.07-5.338-3.834-10.768-5.626-16.191-1.755-5.433-3.258-10.944-4.843-16.429a4722.264 4722.264 0 01-9.471-32.923l.143-.044z" fill="#ABB8FC"/><path d="M53.751 156.531c-.655.682-1.847 1.269-3.229 1.945-2.035 1-4.508 2.224-6.127 4.286-.593-2.817-1.762-5.532-3.584-7.752-.19-.239-.403-.452-.6-.684.19-2.396 1.69-4.449 3.02-6.262.85-1.161 1.587-2.164 1.86-3.102a.383.383 0 00-.263-.475.38.38 0 00-.475.261c-.235.808-.932 1.76-1.742 2.863-1.2 1.637-2.655 3.639-3.07 5.953-2.3-2.518-4.976-4.585-7.835-6.368a.355.355 0 00.059-.374c-.891-2.073-.515-4.429-.183-6.509.21-1.319.393-2.459.22-3.349a.355.355 0 10-.698.137c.148.766-.024 1.847-.226 3.1-.312 1.96-.682 4.371.107 6.545a67.993 67.993 0 00-3.575-2 .338.338 0 00-.25-.168c-.027-.003-.055-.001-.083-.004a122.66 122.66 0 00-3.666-1.819c1.03.6 2.062 1.194 3.09 1.795-2.205-.027-4.298.98-6.009 1.813-1.14.557-2.125 1.036-2.9 1.117a.354.354 0 00-.318.39c.02.197.195.339.39.318.9-.093 1.939-.599 3.14-1.184 1.892-.922 4.036-1.967 6.278-1.718a.356.356 0 00.341-.165c.004-.007.004-.016.008-.024 1.717 1.022 3.405 2.085 4.995 3.289a51.857 51.857 0 012.011 1.535c-2.27.098-4.4 1.182-6.155 2.076-1.218.622-2.27 1.157-3.104 1.26a.383.383 0 10.092.762c.969-.118 2.078-.684 3.36-1.338 2.022-1.03 4.313-2.198 6.733-1.972l.02-.004c1.726 1.472 3.316 3.083 4.634 4.898.479.643.903 1.321 1.288 2.018-2.664.354-5.005 1.942-6.916 3.252-1.268.872-2.364 1.622-3.28 1.858a.431.431 0 10.214.837c1.064-.273 2.218-1.066 3.554-1.982 2.008-1.377 4.275-2.914 6.852-3.142.273.556.53 1.119.755 1.694.622 1.608.92 3.319 1.107 5.037.113 1.526.08 3.063-.01 4.606-1.914-.417-3.927.014-5.587.371-1.155.25-2.153.463-2.873.364a.331.331 0 10-.092.657c.836.117 1.888-.11 3.104-.372 1.711-.367 3.624-.773 5.417-.343-.121 1.737-.316 3.483-.496 5.236a94.194 94.194 0 00-.384 5.783c-1.256-.741-2.753-.996-4.005-1.201-.934-.152-1.74-.284-2.247-.569a.264.264 0 00-.361.101.264.264 0 00.1.361c.59.332 1.439.471 2.421.631 1.362.223 2.882.473 4.083 1.289-.029 1.447-.018 2.897.096 4.346.267 3.59.98 7.162 2.227 10.536 2.44 6.792 6.615 12.748 11.31 18.058-2.107-2.862-4.25-5.698-5.964-8.798-1.787-3.044-3.352-6.23-4.413-9.581-1.072-3.342-1.788-6.792-1.992-10.292-.004-.054-.002-.108-.005-.162a.255.255 0 00.103-.06c1.157-1.222 2.88-1.658 4.402-2.044.965-.245 1.8-.456 2.358-.837a.264.264 0 00.07-.368.265.265 0 00-.37-.07c-.48.327-1.272.528-2.189.76-1.414.359-3.144.809-4.397 1.953-.145-3.227.1-6.466.437-9.712l.043-.455c1.794-.895 3.913-.783 5.795-.674 1.242.072 2.316.135 3.125-.109a.33.33 0 00.221-.413.33.33 0 00-.413-.222c-.696.208-1.715.15-2.896.081-1.752-.101-3.887-.216-5.76.571.295-3.13.581-6.309.31-9.526-.037-.376-.09-.751-.147-1.125 1.436-2.307 4.013-3.575 6.291-4.694 1.454-.713 2.712-1.329 3.472-2.123a.43.43 0 00-.014-.61.43.43 0 00-.61.012z" fill="#E6E9F8"/><path d="M30.631 143.859c-.135.167-.405.121-.49-.075-2.006-4.58.06-6.508-.198-9.052-.227-2.246 1.852 2.482 3.266 3.479 1.185.837-1.635 4.49-2.578 5.648zm10.737 6.796c-.211.092-.448-.084-.434-.315.333-5.379 3.262-6.209 4.268-8.775.889-2.266.553 3.292 1.418 4.945.725 1.385-3.778 3.498-5.252 4.145zm6.329 10.208c-.26-.018-.403-.317-.269-.539 3.134-5.19 6.488-4.491 8.829-6.524 2.066-1.796-1.164 3.57-1.164 5.669 0 1.76-5.59 1.518-7.396 1.394zm-.28 13.691c-.167-.109-.15-.364.024-.462 4.058-2.288 6.037-.552 8.372-1.028 2.06-.421-2.128 1.949-2.92 3.354-.664 1.177-4.314-1.098-5.476-1.864zm-1.125 10.1c-.154-.044-.202-.242-.093-.359 2.544-2.724 4.472-1.877 6.139-2.803 1.47-.818-1.153 2-1.42 3.263-.223 1.058-3.555.203-4.626-.101zm-22.817-38.921c.12-.177-.002-.423-.215-.448-4.963-.588-6.207 1.949-8.715 2.443-2.215.436 2.912 1.051 4.277 2.114 1.145.892 3.819-2.87 4.653-4.109zm8.011 5.527c.125-.194-.011-.456-.24-.479-5.361-.537-6.652 2.221-9.346 2.802-2.378.512 3.16 1.075 4.65 2.195 1.252.939 4.06-3.167 4.936-4.518zm6.369 8.324c.112-.234-.078-.507-.338-.499-6.058.182-7.097 3.447-10.017 4.488-2.578.918 3.68.74 5.508 1.771 1.532.865 4.068-4.125 4.847-5.76zm2.98 10.663c.148-.134.092-.384-.094-.454-4.36-1.638-6.051.38-8.431.268-2.101-.1 2.401 1.6 3.4 2.866.836 1.062 4.094-1.745 5.125-2.68zm-.082 10.93c.15-.057.18-.258.062-.365-2.768-2.496-4.617-1.487-6.357-2.266-1.536-.688 1.32 1.894 1.694 3.129.313 1.035 3.56-.103 4.601-.498zm-15.7-37.809c.064.182-.098.369-.29.343-4.479-.609-4.993-3.113-7.078-4.114-1.84-.883 2.788-.26 4.224-.882 1.204-.521 2.694 3.379 3.144 4.653z" fill="#B5EFF9"/><path d="M30.98 176.337c-.166.71-.727 1.566-1.379 2.557-.958 1.461-2.118 3.243-2.384 5.247-1.498-1.636-3.338-2.979-5.416-3.737-.22-.084-.445-.142-.667-.218-.813-1.665-.622-3.615-.452-5.339.11-1.104.205-2.058.018-2.787a.295.295 0 10-.572.147c.16.628.07 1.533-.035 2.582-.154 1.558-.334 3.456.299 5.154-2.514-.768-5.1-1.089-7.695-1.151a.274.274 0 00-.108-.271c-1.403-1.026-2.077-2.737-2.672-4.246-.378-.958-.704-1.786-1.167-2.308a.273.273 0 00-.387-.023.273.273 0 00-.023.387c.398.451.708 1.235 1.066 2.146.561 1.422 1.261 3.167 2.636 4.3a51.835 51.835 0 00-3.155.075.265.265 0 00-.232-.014c-.02.009-.037.022-.057.031-1.054.06-2.104.137-3.145.232.919-.007 1.837-.018 2.754-.023-1.473.848-2.467 2.337-3.276 3.561-.538.817-1.003 1.52-1.486 1.878a.274.274 0 10.326.442c.561-.415 1.051-1.158 1.618-2.017.894-1.354 1.907-2.889 3.492-3.602a.275.275 0 00.161-.244l-.003-.019c1.54.004 3.076.047 4.602.223a39.39 39.39 0 011.936.229c-1.468.955-2.456 2.51-3.27 3.791-.563.891-1.051 1.658-1.565 2.053a.295.295 0 10.36.47c.597-.458 1.11-1.269 1.705-2.206.938-1.476 2-3.149 3.693-3.949l.012-.011c1.722.3 3.408.744 4.994 1.432.57.239 1.117.522 1.645.834-1.628 1.279-2.559 3.251-3.313 4.87-.5 1.076-.932 2.003-1.447 2.519a.33.33 0 000 .47c.13.131.34.131.47.001.599-.598 1.054-1.577 1.58-2.708.793-1.702 1.694-3.611 3.314-4.773.4.262.79.534 1.165.828 1.043.823 1.912 1.84 2.71 2.907.672.968 1.253 2.001 1.799 3.059-1.434.475-2.6 1.55-3.561 2.438-.67.619-1.247 1.152-1.764 1.368a.255.255 0 10.197.472c.6-.25 1.209-.813 1.913-1.464.991-.915 2.1-1.934 3.46-2.353.6 1.2 1.155 2.435 1.722 3.668a72.612 72.612 0 002.013 3.988c-1.123.001-2.216.419-3.128.774-.679.265-1.265.493-1.713.504a.203.203 0 00-.2.208.203.203 0 00.208.2c.52-.011 1.139-.252 1.853-.53.991-.386 2.097-.817 3.214-.747a33.975 33.975 0 001.768 2.845c1.584 2.277 3.458 4.367 5.608 6.116 4.28 3.549 9.385 5.863 14.581 7.543-2.52-1.072-5.053-2.112-7.405-3.497-2.38-1.318-4.666-2.818-6.684-4.625-2.021-1.797-3.848-3.804-5.357-6.046-.023-.034-.043-.071-.066-.105a.202.202 0 00.045-.08c.288-1.264 1.26-2.23 2.119-3.083.544-.541 1.015-1.008 1.236-1.48a.204.204 0 10-.37-.173c-.191.406-.637.849-1.155 1.363-.797.792-1.769 1.77-2.151 3.02-1.361-2.084-2.469-4.328-3.518-6.614l-.15-.319c.84-1.298 2.289-2.054 3.58-2.72.852-.44 1.59-.819 2.03-1.298a.255.255 0 00-.015-.361.254.254 0 00-.36.015c-.381.411-1.08.772-1.89 1.189-1.202.62-2.664 1.382-3.598 2.639-1.03-2.192-2.087-4.414-3.528-6.442a16.956 16.956 0 00-.539-.688c.049-2.094 1.262-3.946 2.334-5.582.685-1.043 1.277-1.946 1.47-2.77a.333.333 0 10-.647-.152z" fill="#E6E9F8"/><path d="M10.675 177c-.024.163-.222.239-.356.143-3.125-2.252-2.51-4.341-3.679-5.928-1.03-1.401 2.202.92 3.53 1.027 1.115.09.676 3.62.505 4.758zm9.787.296c-.104.144-.33.12-.411-.038-1.888-3.699-.27-5.399-.61-7.496-.298-1.851 1.658 1.967 2.88 2.724 1.024.635-1.135 3.803-1.86 4.81zm8.2 4.29c-.178.09-.392-.053-.39-.253.045-4.672 2.544-5.523 3.3-7.791.667-2.001.627 2.826 1.45 4.218.69 1.166-3.112 3.199-4.36 3.826zm5.182 9.192c-.154-.008-.242-.183-.165-.316 1.795-3.11 3.788-2.735 5.15-3.967 1.203-1.087-.647 2.128-.622 3.371.021 1.042-3.292.964-4.363.912zm3.212 7.141c-.119.031-.229-.081-.202-.201.62-2.805 2.23-3 2.974-4.268.655-1.119.018 1.779.337 2.721.267.79-2.279 1.53-3.109 1.748zM6.663 181.05c.01-.165-.168-.28-.319-.213-3.523 1.557-3.353 3.728-4.824 5.039-1.298 1.158 2.344-.445 3.667-.275 1.109.142 1.408-3.402 1.476-4.551zm7.481.524c.007-.178-.186-.298-.348-.224-3.766 1.747-3.541 4.083-5.1 5.525-1.377 1.273 2.517-.525 3.945-.368 1.198.132 1.452-3.693 1.503-4.933zm7.488 3.024c-.018-.2-.251-.306-.42-.199-3.948 2.497-3.356 5.071-4.886 6.907-1.35 1.62 2.732-.953 4.348-.986 1.356-.027 1.082-4.332.958-5.722zm6.157 5.904c.045-.146-.09-.29-.24-.263-3.536.623-3.866 2.625-5.488 3.484-1.433.758 2.22.12 3.378.568.972.376 2.032-2.764 2.35-3.789zm4.231 7.284c.076-.097.017-.243-.103-.267-2.815-.57-3.646.825-5.106.99-1.288.146 1.62.739 2.351 1.411.614.565 2.321-1.464 2.857-2.134zM6.782 178.862c.114.096.08.284-.058.341-3.21 1.353-4.533-.106-6.308.048-1.567.136 1.747-1.266 2.456-2.242.595-.818 3.112 1.184 3.91 1.853z" fill="#B5EFF9"/><path fill-rule="evenodd" clip-rule="evenodd" d="M68.909 194.402c1.044-1.792 1.83-3.141 3.05-1.577 2.464 3.159.988 8.72-3.365 10.055-2.037.625-2.597 2.898-3.192 5.308-.676 2.739-1.395 5.654-4.376 6.524-3.177.927-4.645.028-6.653-1.2-2.17-1.328-4.97-3.042-11.238-3.256-6.93-.844-7.553-6.747-2.562-5.87 1.05.184 2.14.435 3.191.677 3.946.908 7.347 1.69 6.046-1.634-1.646-4.21-5.92-7.347-15.763-7.429-9.842-.081-15.446-6.732-11.11-9.037 4.337-2.305 12.2 1.956 18.584 5.563 6.385 3.608 9.692-.164 5.01-3.526-1.743-1.252-3.99-2.103-6.387-3.01-4.04-1.528-8.503-3.217-11.684-7.257-5.068-6.436-3.838-8.74.585-10.016 4.422-1.277 15.36 7.257 18.019 12.73 2.658 5.473 6.493 6.446 5.131 2.547-.334-.955-.828-2.069-1.338-3.216-1.571-3.535-3.287-7.397-.894-7.989 3.17-.783 5.678 4.444 4.854 6.973-.823 2.528-1.176 4.5 2.38 5.237 1.81.376 2.456-2.337 3.05-4.834.575-2.41 1.101-4.62 2.58-3.664 3.01 1.949 5.199 11.086 1.044 12.47-4.155 1.384-4.345 9.943.293 9.685 2.342-.131 3.678-2.424 4.745-4.254zm-7.423-10.876s-.909 1.606-1.08 2.761c-.17 1.155 1.764.191 3.242-.709 1.477-.9.914-2.989.25-4.536-.663-1.546-1.32-.131-2.412 2.484zm-27.32-5.187c-3.35-.593-4.37-2.352-4.87-4.835-.326-1.622-.308-1.615.765-1.175.57.233 1.436.587 2.705.885 2.503.586 2.843 1.852 3.24 3.333.184.687.38 1.42.81 2.153 1.36 2.313-2.65-.361-2.65-.361zm-10.057 12.04c.921.959 3.24 2.383 5.034 2.168.827-.099 1.741-.041 2.487.006.874.056 1.517.097 1.514-.147-.006-.453-3.637-2.479-3.637-2.479-2.989-1.691-6.32-.506-5.398.452zm21.91 18.23c-.793.584-2.689.355-5.233-.662-2.544-1.017.663-1.655 3.362-.799 1.428.452 2.662.877 1.87 1.461zm5.838-33.823c-1.585-.385-1.81 1.082-1.13 2.263.67 1.159 1.43 1.64 1.457 1.657l.001.001c1.049-2.159 1.257-3.536-.328-3.921zm6.324 33.028c-2.444.204-3.351-4.474-3.351-4.474-.106-1.608-1.033-2.625-1.928-3.607-1.147-1.26-2.243-2.462-1.492-4.78 1.337-4.125 3.39-7.149 3.93-2.53.035.303.066.597.097.885.364 3.422.615 5.775 6.164 7.523 4.544 1.432-.914 6.773-3.42 6.983zm11.403-10.451c-1.954 2.736.266 2.016 1.567 1.325 1.301-.692.879-2.258.392-3.431-.322-.777-.573-.306-1.04.567-.237.446-.531.996-.919 1.539z" fill="#C6B5F9"/><path d="M214.072 188.338c7.968-6.13 11.558-10.854 8.195-15.422-3.363-4.568-2.844-5.006.693-10.369 3.537-5.362-.068-5.673-1.593-8.831-1.525-3.157 1.532-6.335 3.314-10.707 1.783-4.373-4.878-9.908-9.325-5.851-4.448 4.056 1.647 7.303-1.372 12.226-3.018 4.924-11.649 6.49-9.683 10.955 1.965 4.465 9.042 6.288 4.638 11-4.404 4.711-7.356 7.998-3.275 12.453 4.08 4.456 8.408 4.546 8.408 4.546z" fill="#DDE6FC"/><path d="M218.598 144.725a3932.904 3932.904 0 00-3.872 30.133c-.639 5.022-1.36 10.045-1.83 15.066-.435 5.021-.896 10.042-1.055 15.062l.141-.001c.967-5.023 1.632-10.045 2.324-15.068.655-5.022 1.061-10.043 1.548-15.064a3887.468 3887.468 0 002.885-30.128h-.141z" fill="#8497FA"/><path d="M212.545 158.657c.737.403 1.956.585 3.371.794 2.083.31 4.616.696 6.504 2.008.043-2.522.644-5.108 1.944-7.446.135-.251.295-.486.438-.732-.613-1.964-2.387-3.298-3.958-4.476-1.006-.753-1.876-1.405-2.301-2.123-.092-.155-.021-.364.159-.467.177-.103.398-.061.492.096.366.617 1.19 1.236 2.147 1.952 1.419 1.064 3.141 2.367 3.948 4.204 1.694-2.715 3.821-5.147 6.169-7.389a.273.273 0 01-.123-.299c.457-1.974-.322-3.856-1.008-5.517-.436-1.053-.813-1.964-.813-2.757 0-.171.151-.326.339-.344.186-.02.339.103.339.277 0 .682.357 1.547.772 2.547.647 1.566 1.43 3.495 1.087 5.527a74.048 74.048 0 012.979-2.611.359.359 0 01.202-.206c.026-.01.052-.015.078-.025a134.523 134.523 0 013.097-2.482c-.854.772-1.711 1.54-2.564 2.312 2.057-.596 4.196-.295 5.946-.04 1.167.172 2.174.318 2.913.184.189-.034.353.077.368.246.017.17-.121.335-.307.368-.859.157-1.921.001-3.149-.178-1.936-.282-4.13-.603-6.18.19a.34.34 0 01-.349-.05.032.032 0 01-.007-.013c-1.424 1.3-2.809 2.632-4.077 4.058a54.891 54.891 0 00-1.602 1.813c2.141-.509 4.327-.152 6.129.143 1.252.206 2.332.382 3.13.251.204-.034.378.089.39.271.015.184-.137.36-.338.393-.927.153-2.066-.034-3.383-.249-2.076-.34-4.429-.725-6.651.094 0 0-.012 0-.019.002-1.346 1.686-2.54 3.453-3.443 5.321a16.337 16.337 0 00-.838 2.031c2.554-.396 5.03.33 7.054.933 1.343.403 2.503.748 3.402.708.229-.01.401.152.386.36-.013.211-.208.389-.434.399-1.044.048-2.267-.318-3.681-.741-2.127-.634-4.524-1.337-6.974-.858a18.745 18.745 0 00-.398 1.62c-.291 1.513-.26 3.028-.122 4.52.171 1.312.48 2.595.844 3.868 1.713-.848 3.673-1.009 5.289-1.142 1.125-.09 2.097-.17 2.751-.441.167-.07.346-.006.401.139.057.147-.031.321-.196.389-.76.315-1.784.399-2.969.495-1.665.136-3.526.293-5.125 1.121.428 1.428.928 2.844 1.413 4.27a71.34 71.34 0 011.407 4.76c1.039-.95 2.393-1.554 3.526-2.052.845-.37 1.574-.691 1.996-1.062.108-.095.268-.098.357-.01.09.089.077.237-.029.33-.49.432-1.259.769-2.148 1.16-1.232.542-2.608 1.147-3.583 2.145.29 1.208.542 2.43.698 3.677.401 3.086.382 6.273-.172 9.433-1.049 6.341-3.872 12.432-7.297 18.115 1.45-2.953 2.939-5.893 3.979-8.945 1.119-3.022 2.004-6.106 2.388-9.198.396-3.087.44-6.172-.003-9.166-.007-.047-.018-.092-.025-.138a.23.23 0 01-.107-.023c-1.303-.726-2.993-.644-4.485-.572-.946.045-1.765.085-2.355-.09a.207.207 0 01-.132-.292.284.284 0 01.332-.154c.509.15 1.285.113 2.184.069 1.387-.066 3.086-.139 4.463.497-.449-2.749-1.265-5.407-2.168-8.047l-.122-.372c-1.84-.285-3.799.361-5.538.942-1.148.383-2.141.716-2.941.721-.173.002-.3-.128-.282-.29.016-.16.171-.292.347-.293.688-.006 1.63-.32 2.72-.685 1.62-.541 3.595-1.194 5.488-1.019-.843-2.554-1.687-5.15-2.017-7.924a16.809 16.809 0 01-.066-.984c-1.76-1.564-4.399-1.959-6.732-2.306-1.488-.222-2.775-.413-3.629-.881-.185-.101-.229-.333-.098-.517.128-.182.385-.25.572-.147z" fill="#E6E9F8"/><path d="M231.858 141.995c.156.104.4-.004.445-.192 1.044-4.37-1.235-5.452-1.457-7.657-.195-1.946-1.281 2.567-2.421 3.773-.957 1.011 2.342 3.347 3.433 4.076zm-8.804 8.503c.214.022.403-.188.348-.377-1.285-4.434-4.174-4.37-5.58-6.264-1.24-1.672.08 2.91-.428 4.524-.427 1.353 4.164 1.957 5.66 2.117zm-4.066 10.224c.239-.083.32-.372.154-.524-3.87-3.545-6.878-2.085-9.434-3.184-2.257-.971 1.735 2.697 2.115 4.461.318 1.478 5.499-.179 7.165-.753zm2.744 11.431c.135-.135.073-.345-.107-.382-4.207-.867-5.743 1.106-8.011 1.313-2.002.183 2.342 1.085 3.337 2.059.834.817 3.833-2.044 4.781-2.99zm2.882 8.193c.136-.076.145-.256.022-.326-2.872-1.626-4.52-.413-6.246-.758-1.523-.304 1.441 1.381 1.918 2.372.401.832 3.36-.754 4.306-1.288zm14.271-38.639c-.144-.118-.074-.356.12-.432 4.533-1.785 6.155.023 8.589-.215 2.148-.209-2.532 1.641-3.615 2.89-.908 1.046-4.089-1.419-5.094-2.243zm-6.485 6.728c-.152-.13-.072-.386.138-.465 4.913-1.846 6.62.136 9.243-.077 2.315-.188-2.758 1.726-3.95 3.055-.998 1.114-4.368-1.605-5.431-2.513zm-4.444 8.652c-.147-.168-.019-.447.225-.507 5.696-1.424 7.258 1.05 10.176 1.164 2.576.102-3.306 1.58-4.827 2.922-1.275 1.125-4.549-2.408-5.574-3.579zm-.853 9.734c-.163-.074-.156-.298.006-.405 3.779-2.512 5.724-1.255 7.928-1.969 1.946-.63-1.954 1.969-2.657 3.293-.59 1.11-4.144-.401-5.277-.919zm2.058 9.163c-.149-.009-.215-.171-.124-.291 2.135-2.817 4.046-2.45 5.531-3.558 1.311-.978-.891 1.935-1.016 3.07-.105.952-3.346.84-4.391.779zm7.821-35.854c-.027.17.159.285.333.213 4.076-1.677 4.103-3.914 5.87-5.298 1.56-1.221-2.653.507-4.108.358-1.219-.125-1.905 3.539-2.095 4.727z" fill="#B5EFF9"/><path d="M244.5 159.483c.322.776 1.158 1.684 2.13 2.735 1.428 1.55 3.161 3.441 3.811 5.649 1.611-1.937 3.697-3.574 6.173-4.58.262-.11.534-.193.799-.295.752-1.915.204-4.068-.283-5.972-.312-1.22-.582-2.274-.464-3.099.025-.179.211-.298.416-.265.203.031.349.202.323.384-.101.71.154 1.71.452 2.869.439 1.72.966 3.817.445 5.755 3.019-1.051 6.197-1.611 9.43-1.883a.27.27 0 01.091-.309c1.591-1.251 2.162-3.206 2.666-4.932.319-1.095.595-2.041 1.092-2.658.107-.134.322-.159.48-.056.157.102.199.294.09.429-.427.532-.69 1.429-.992 2.47-.476 1.626-1.073 3.621-2.612 4.989a73.388 73.388 0 013.954-.164.365.365 0 01.288-.033c.026.008.049.02.076.029 1.326-.015 2.651-.012 3.966.012-1.149.064-2.297.125-3.445.191 1.976.827 3.453 2.405 4.658 3.703.801.866 1.495 1.613 2.154 1.973.169.092.227.282.133.422-.093.143-.304.185-.47.094-.767-.417-1.497-1.205-2.341-2.116-1.333-1.436-2.841-3.063-4.934-3.733a.34.34 0 01-.24-.259.02.02 0 01.002-.014c-1.924.118-3.836.286-5.715.6-.798.119-1.594.253-2.383.406 1.986.948 3.466 2.6 4.686 3.961.846.947 1.577 1.762 2.281 2.162.18.102.239.307.134.456-.103.153-.332.195-.509.094-.818-.463-1.588-1.324-2.479-2.319-1.406-1.569-2.997-3.347-5.241-4.104 0 0-.009-.008-.016-.011-2.104.468-4.14 1.095-6.012 1.983-.674.311-1.313.668-1.924 1.056 2.237 1.296 3.713 3.416 4.912 5.158.794 1.157 1.482 2.155 2.207 2.688.185.136.217.371.076.523-.142.156-.406.172-.588.038-.843-.619-1.567-1.671-2.404-2.889-1.26-1.83-2.689-3.883-4.897-5.049a18.95 18.95 0 00-1.324 1.012c-1.173.997-2.097 2.197-2.923 3.445-.688 1.13-1.249 2.324-1.763 3.543 1.866.416 3.493 1.521 4.835 2.433.934.636 1.741 1.184 2.42 1.384.174.051.273.213.225.361-.047.15-.224.23-.395.179-.79-.231-1.64-.81-2.623-1.478-1.383-.94-2.931-1.987-4.695-2.346-.559 1.382-1.057 2.799-1.57 4.214a70.974 70.974 0 01-1.883 4.592c1.404-.087 2.836.293 4.031.617.89.242 1.659.449 2.22.426.144-.007.27.091.284.216.015.127-.088.233-.229.239-.652.029-1.463-.191-2.4-.445-1.299-.352-2.749-.744-4.133-.58-.531 1.124-1.098 2.234-1.757 3.304-1.619 2.656-3.628 5.127-6.036 7.241-4.785 4.281-10.796 7.254-17.021 9.53 2.979-1.39 5.979-2.745 8.697-4.47 2.764-1.652 5.382-3.498 7.617-5.666 2.239-2.157 4.204-4.532 5.733-7.144.024-.04.043-.082.067-.122a.24.24 0 01-.069-.086c-.561-1.383-1.929-2.381-3.136-3.263-.766-.558-1.429-1.042-1.78-1.549a.207.207 0 01.081-.31.284.284 0 01.355.089c.303.436.93.894 1.658 1.425 1.122.819 2.491 1.83 3.166 3.191 1.371-2.424 2.398-5.008 3.346-7.632l.137-.366c-1.254-1.378-3.185-2.106-4.904-2.745-1.134-.422-2.115-.787-2.742-1.285-.136-.108-.154-.288-.038-.403.112-.115.315-.121.453-.011.54.428 1.47.774 2.549 1.175 1.6.596 3.547 1.328 4.913 2.653.941-2.519 1.908-5.072 3.387-7.44.177-.275.368-.543.563-.809-.392-2.324-2.201-4.289-3.801-6.025-1.02-1.107-1.904-2.064-2.276-2.966-.081-.195.029-.403.247-.464.214-.06.457.048.538.247z" fill="#E6E9F8"/><path d="M269.973 158.631c.056.179.315.248.467.131 3.548-2.749 2.449-5.025 3.656-6.881 1.066-1.639-2.604 1.196-4.248 1.419-1.377.187-.269 4.078.125 5.331zm-12.179 1.095c.152.152.431.108.507-.075 1.772-4.261-.518-6.025-.428-8.384.079-2.082-1.759 2.317-3.165 3.255-1.178.786 2.021 4.14 3.086 5.204zm-9.565 5.413c.238.085.481-.09.447-.312-.797-5.193-4.054-5.944-5.357-8.407-1.151-2.173-.336 3.192-1.144 4.804-.677 1.352 4.397 3.315 6.054 3.915zm-5.016 10.629c.191-.021.273-.223.156-.365-2.735-3.318-5.167-2.745-7.064-4.008-1.674-1.115 1.147 2.316 1.312 3.7.14 1.16 4.266.815 5.596.673zm-2.88 8.193c.153.026.273-.108.221-.239-1.22-3.072-3.264-3.162-4.392-4.514-.996-1.194.258 1.98.01 3.053-.209.899 3.089 1.522 4.161 1.7zm35.295-21.14c-.039-.183.165-.324.364-.262 4.648 1.456 4.78 3.884 6.826 5.228 1.805 1.186-3-.312-4.625-.02-1.362.245-2.298-3.673-2.565-4.946zm-9.263 1.168c-.037-.197.185-.346.399-.275 4.982 1.647 5.072 4.263 7.249 5.745 1.921 1.308-3.229-.387-4.988-.101-1.476.241-2.399-3.994-2.66-5.369zm-8.876 3.949c-.009-.223.265-.359.493-.253 5.328 2.468 4.998 5.376 7.2 7.299 1.944 1.696-3.564-.847-5.589-.756-1.697.075-2.038-4.733-2.104-6.29zm-6.755 7.049c-.08-.159.066-.33.259-.312 4.515.417 5.245 2.618 7.409 3.446 1.909.731-2.755.307-4.132.896-1.153.495-2.977-2.915-3.536-4.03zm-4.13 8.432c-.111-.101-.061-.268.086-.305 3.426-.853 4.685.633 6.535.702 1.633.061-1.905.948-2.713 1.754-.677.675-3.132-1.448-3.908-2.151zm28.529-23.022c-.128.115-.055.322.126.375 4.225 1.253 5.646-.473 7.888-.441 1.98.029-2.384-1.271-3.424-2.301-.872-.863-3.699 1.561-4.59 2.367z" fill="#B5EFF9"/><path fill-rule="evenodd" clip-rule="evenodd" d="M211.967 207.682c-.992-1.87-1.929-3.634-3.946-3.629-4.31.01-6.698-4.278-4.967-7.574.857-1.631 1.836-.703 3.137.532 1.328 1.26 2.992 2.839 5.205 2.339 4.381-.988 2.653-8.131-1.481-8.213-4.134-.082-3.745-8.329-1.284-10.749 1.208-1.189 2.1.531 3.074 2.407 1.009 1.944 2.104 4.055 3.728 3.268 3.19-1.545 2.503-3.109 1.275-5.02-1.229-1.91.169-6.954 3.273-7.121 2.344-.125 1.44 3.566.612 6.945-.268 1.097-.529 2.161-.668 3.051-.566 3.63 2.842 1.815 4.334-3.476 1.493-5.29 10.17-15.307 14.535-15.384 4.365-.078 5.932 1.537 2.362 8.264-2.241 4.222-6.106 6.802-9.605 9.137-2.075 1.386-4.022 2.686-5.425 4.191-3.766 4.043.009 6.352 5.323 1.66 5.313-4.692 11.89-10.318 16.361-9.509 4.471.808.438 7.854-8.746 10.484-9.184 2.629-12.611 6.377-13.387 10.343-.612 3.131 2.424 1.589 5.947-.2h.001a71.15 71.15 0 012.86-1.4c4.506-2.034 4.993 3.088-1.331 5.599-5.82 1.811-8.127 3.979-9.914 5.659-1.654 1.555-2.863 2.692-6 2.74-2.944.045-4.145-2.218-5.273-4.344zm-3.515-23.2c-.34 1.472-.487 3.374 1.057 3.746 1.544.373 3.525.679 3.157-.248-.368-.926-1.509-2.038-1.509-2.038-1.494-1.914-2.365-2.931-2.705-1.46zm24.887-9.014c.27-.727.32-1.394.368-2.019.103-1.348.191-2.5 2.424-3.644 1.132-.58 1.878-1.104 2.368-1.448.923-.648.938-.659.928.789-.017 2.216-.652 3.96-3.675 5.33 0 0-3.263 3.289-2.413.992zm8.868 7.532s-3.027 2.648-2.95 3.029c.041.206.634.005 1.441-.269.689-.234 1.533-.521 2.323-.653 1.715-.286 3.625-2.086 4.312-3.131.688-1.045-2.64-1.174-5.126 1.024zm-10.564 18.279c2.367-1.42 5.481-1.719 3.287-.203-2.193 1.516-3.923 2.202-4.77 1.918-.846-.285.231-.963 1.483-1.715zm-13.071-25.187c-1.411.736-.967 1.839.404 3.38 0 0 .639-.602 1.062-1.772.423-1.169-.054-2.343-1.466-1.608zm-4.386 24.42c4.869-2.912 4.677-4.955 4.398-7.925a60.753 60.753 0 01-.07-.768c-.332-4.023 2.134-2.015 4.132 1.103 1.122 1.752.316 3.047-.529 4.404-.658 1.059-1.34 2.154-1.148 3.533 0 0 0 4.167-2.321 4.631-2.38.475-8.45-2.593-4.462-4.978zm-9.228-1.891c-.594-.612-.915-.942-1.075-.206-.242 1.112-.353 2.539.989 2.781 1.341.242 3.547.27 1.224-1.521-.461-.355-.835-.741-1.138-1.054z" fill="#DDF7FC"/><path fill-rule="evenodd" clip-rule="evenodd" d="M43.112 71.88v35.533c0 5.761 4.68 10.449 10.435 10.45h13.657v2.906H53.547c-7.354 0-13.338-5.994-13.338-13.356V71.887c-2.549-.656-4.476-2.87-4.476-5.624 0-3.264 2.65-5.917 5.91-5.917a5.92 5.92 0 015.911 5.917c0 2.743-1.91 4.95-4.442 5.617zm-1.468-8.628a3.013 3.013 0 00-3.008 3.01 3.012 3.012 0 003.008 3.009 3.012 3.012 0 003.007-3.008 3.013 3.013 0 00-3.007-3.011zm60.386-24.449h79.05c7.353 0 13.335 5.99 13.335 13.352v21.64h-2.903v-21.64c0-5.76-4.677-10.446-10.432-10.446h-79.05c-.662 2.543-2.871 4.464-5.617 4.464-3.26 0-5.91-2.654-5.91-5.917 0-3.264 2.65-5.917 5.91-5.917 2.746 0 4.955 1.92 5.617 4.464zm-8.624 1.453c0 1.66 1.35 3.011 3.007 3.011a3.013 3.013 0 003.008-3.01c0-1.66-1.35-3.012-3.008-3.012a3.013 3.013 0 00-3.007 3.011z" fill="#9A92EA"/><path d="M234.685 66.018h-43.862a3.872 3.872 0 00-3.87 3.874v61.671a3.873 3.873 0 003.87 3.875h43.862a3.873 3.873 0 003.871-3.875v-61.67a3.873 3.873 0 00-3.871-3.875z" fill="#9A92EA"/><path d="M208.751 215.239H61.988c-7.389 0-13.379-5.997-13.379-13.394v-1.57H222.13v1.57c0 7.397-5.99 13.394-13.379 13.394z" fill="#9F91D3"/><path d="M142.624 208.449h-14.509a6.74 6.74 0 01-6.737-6.745v-1.429h27.983v1.429a6.74 6.74 0 01-6.737 6.745z" fill="#393768"/><path opacity=".168" d="M208.751 215.239H61.988c-7.389 0-13.379-5.997-13.379-13.394v-1.57H222.13v1.57c0 7.397-5.99 13.394-13.379 13.394z" fill="url(#paint0_linear)"/><path d="M206.981 200.275H63.759a5.865 5.865 0 01-5.862-5.868v-87.484a5.866 5.866 0 015.861-5.869h143.223a5.866 5.866 0 015.862 5.869v87.484a5.865 5.865 0 01-5.862 5.868z" fill="#ADADEA"/><path d="M206.489 189.522H64.249a2.2 2.2 0 01-2.198-2.201v-78.445a2.2 2.2 0 012.198-2.201h142.24a2.2 2.2 0 012.199 2.201v78.445a2.2 2.2 0 01-2.199 2.201z" fill="#E6E9F8"/><path opacity=".08" d="M206.981 101.054H63.759a5.865 5.865 0 00-5.862 5.869v87.483a5.865 5.865 0 005.862 5.869H206.98a5.865 5.865 0 005.862-5.869v-87.483a5.865 5.865 0 00-5.862-5.869z" fill="url(#paint1_linear)"/><path opacity=".1" d="M212.852 106.918v44.26h-35.769a4.123 4.123 0 01-2.931-1.222c-.027-.027-.055-.055-.081-.109a3.889 3.889 0 01-.625-.869c-.298-.598-.488-1.25-.488-1.956v-45.973h34.032c3.23 0 5.862 2.636 5.862 5.869z" fill="#000"/><path d="M228.29 145.181h-47.017a4.15 4.15 0 01-4.148-4.153V74.922a4.15 4.15 0 014.148-4.153h47.017a4.15 4.15 0 014.148 4.153v66.106a4.15 4.15 0 01-4.148 4.153z" fill="#CCE9F1"/><path d="M197.646 87.537h-8.948a2.96 2.96 0 01-2.958-2.961 2.96 2.96 0 012.958-2.961h8.948a2.96 2.96 0 012.958 2.961 2.96 2.96 0 01-2.958 2.961zm0 11.343h-8.948a2.96 2.96 0 01-2.958-2.962 2.96 2.96 0 012.958-2.961h8.948a2.96 2.96 0 012.958 2.96 2.96 2.96 0 01-2.958 2.962zm19.299 16.212h-28.248a2.96 2.96 0 01-2.958-2.961 2.96 2.96 0 012.958-2.961h28.248a2.96 2.96 0 012.958 2.961 2.959 2.959 0 01-2.958 2.961zm-3.074 10.661h-25.316a2.817 2.817 0 01-2.816-2.818v-.286a2.818 2.818 0 012.816-2.819h25.316a2.818 2.818 0 012.816 2.819v.286a2.817 2.817 0 01-2.816 2.818zm9.175 10.661h-34.349a2.96 2.96 0 01-2.958-2.961 2.96 2.96 0 012.958-2.962h34.349a2.96 2.96 0 012.958 2.962 2.96 2.96 0 01-2.958 2.961z" fill="#A8CFEF"/><path opacity=".055" d="M228.289 70.769h-47.017a4.15 4.15 0 00-4.148 4.153v66.106a4.15 4.15 0 004.148 4.153h47.017a4.15 4.15 0 004.148-4.153V74.922a4.15 4.15 0 00-4.148-4.153z" fill="url(#paint2_linear)"/><path opacity=".1" d="M212.852 171.692v19.128h-47.928a2.809 2.809 0 01-2.009-.815 2.37 2.37 0 01-.38-.49 2.717 2.717 0 01-.461-1.521v-11.113c0-.353.082-.679.19-.978.055-.109.109-.19.163-.299.081-.19.19-.353.326-.489.081-.109.162-.217.271-.326.19-.19.407-.326.651-.462l3.99-2.201v.055c.461-.272.95-.489 1.52-.489h43.667z" fill="#000"/><path d="M239.607 166.517H172.5c-.565 0-1.06.206-1.503.49a3.377 3.377 0 00-.01-.049l-3.994 2.199s1.43.596 2.661 1.06v10.247a2.847 2.847 0 002.846 2.849h65.1l-.241 1.493 3.421-1.745-.008-.01a2.843 2.843 0 001.682-2.587v-11.098a2.85 2.85 0 00-2.847-2.849z" fill="#393768"/><path d="M235.346 168.857h-67.107a2.848 2.848 0 00-2.846 2.85v11.097a2.847 2.847 0 002.846 2.849h67.107a2.847 2.847 0 002.846-2.849v-11.097a2.848 2.848 0 00-2.846-2.85z" fill="#9DA8F3"/><ellipse cx="170.987" cy="174.06" rx="2.013" ry="2.016" fill="#393768"/><ellipse cx="178.271" cy="174.06" rx="2.013" ry="2.016" fill="#393768"/><ellipse cx="185.555" cy="174.06" rx="2.013" ry="2.016" fill="#393768"/><path d="M210.462 181.604h-16.927a2.923 2.923 0 01-2.921-2.924v-2.849a2.923 2.923 0 012.921-2.925h16.927a2.923 2.923 0 012.921 2.925v2.849a2.923 2.923 0 01-2.921 2.924z" fill="#393768"/><path d="M206.342 178.755h-8.688a1.499 1.499 0 010-2.999h8.688a1.499 1.499 0 010 2.999z" fill="#CCE9F1"/><ellipse cx="221.284" cy="177.255" rx="3.707" ry="3.711" fill="#393768"/><ellipse cx="230.89" cy="177.255" rx="3.707" ry="3.711" fill="#393768"/><path opacity=".16" d="M239.607 166.517H172.5c-.565 0-1.061.206-1.503.49l-.01-.05-3.994 2.2.016.007c-.949.462-1.616 1.416-1.616 2.543v11.097a2.847 2.847 0 002.846 2.849h67.107a2.83 2.83 0 002.025-.853l3.408-1.739-.007-.01a2.842 2.842 0 001.681-2.587v-11.098a2.848 2.848 0 00-2.846-2.849z" fill="url(#paint3_linear)"/><path fill-rule="evenodd" clip-rule="evenodd" d="M90.861 133.137a3.803 3.803 0 011.113 2.717c0 1.006-.353 1.984-1.113 2.744l-2.144 2.146 1.221 1.196a1.198 1.198 0 01.245 1.25 1.5 1.5 0 01-.245.38l-.407.408c-.461.434-1.167.434-1.601 0l-1.222-1.223-1.33 1.331 1.222 1.223a1.134 1.134 0 01.244 1.223 1.152 1.152 0 01-.244.38l-.217.217-.217.19c-.434.462-1.14.462-1.601 0l-1.222-1.222-1.33 1.331 1.222 1.223c.135.136.217.299.271.462a1.13 1.13 0 01-.027.788 1.038 1.038 0 01-.244.353l-.407.435a1.145 1.145 0 01-1.601 0l-1.222-1.223-1.33 1.331 1.222 1.223c.108.109.19.217.244.353.163.435.081.924-.244 1.25l-.435.408c-.434.434-1.14.434-1.6 0l-1.195-1.223-1.33 1.332 1.194 1.222c.108.108.188.242.269.376l.003.005a1.1 1.1 0 01-.272 1.222l-.407.408a1.057 1.057 0 01-.787.353 1.13 1.13 0 01-.434-.081.907.907 0 01-.38-.272l-.597-.598-.624-.598-2.145 2.12c-.252.278-.552.438-.876.613l-.073.039c-.11.326-.272.652-.516 1.059a6.106 6.106 0 01-2.768.842c-.597.653-2.497 1.875-4.885 3.234a94.951 94.951 0 01-4.153 2.309v-5.298l3.8-1.712.353-.163 1.927-.896 1.22-.543-1.628-1.631-1.22 1.223a.705.705 0 01-.3.19.761.761 0 01-.406.109c-.014 0-.028.007-.041.013-.014.007-.027.014-.04.014a.514.514 0 01-.218-.054c-.489.598-.868 1.059-1.167 1.25-.38.353-1.221.896-2.28 1.494v-9.319l.3-.299-.3-.299v-15.895l.272-.272-.272-.271-.922-.951a1.101 1.101 0 010-1.603l.407-.408c.109-.109.244-.19.38-.245.054-.027.081-.027.135-.027.218-.081.49-.054.706.027.136.055.271.136.38.245l1.221 1.223 1.33-1.332-1.221-1.222c-.434-.462-.434-1.168 0-1.603l.407-.435c.108-.109.244-.19.38-.244.271-.109.57-.109.868 0 .027 0 .054.027.082.054.108.027.19.108.271.19l1.221 1.223 1.33-1.332-1.221-1.223a1.087 1.087 0 01-.326-.787c0-.299.109-.598.326-.816l.434-.407c.434-.435 1.14-.435 1.602 0l1.22 1.223 1.33-1.332-1.22-1.223a1.15 1.15 0 01-.326-.815v-.081c.027-.245.108-.516.326-.706l.135-.136.272-.272c.217-.217.461-.326.733-.326a.095.095 0 00.04-.014.092.092 0 01.041-.013c.272 0 .57.108.787.353l1.222 1.195 2.143-2.119c1.493-1.521 3.935-1.521 5.455 0l2.144 2.147 1.222-1.223a1.137 1.137 0 011.221-.245c.135.055.271.136.38.245l.407.435c.109.108.19.217.272.38a1.13 1.13 0 010 .842l-.003.004c-.08.134-.161.269-.269.377l-1.194 1.222 1.33 1.332 1.194-1.223c.109-.108.244-.19.38-.244.271-.109.597-.109.868 0 .136.054.244.135.38.244l.407.408c.109.108.19.244.245.38.108.272.108.57 0 .842a1.146 1.146 0 01-.245.381l-1.221 1.222 1.33 1.332 1.22-1.223a1.136 1.136 0 011.222-.244c.136.054.272.135.38.244l.407.408c.326.353.407.842.244 1.25a1.136 1.136 0 01-.244.38l-1.221 1.196 2.171 2.173zm-42.256 67.138h.652a110.655 110.655 0 012.714 10.406c-2.117-2.337-3.365-5.434-3.365-8.83v-1.576z" fill="#000" opacity=".1"/><path d="M72.102 130.58c-.469.853-1.098 1.589-1.937 2.135-.534 2.604-8.765 16.336-10.89 17.914-1.239 1.178-8.241 4.83-9.424 4.048.345-1.84.154-3.701-.551-5.596l6.362-1.476 1.758-2.568 7.493-10.864 1.403-2.073.77-1.122c-.501-.92-.558-1.913-.704-2.832.37-.603.535-.532 1.067-.408.215.585.314.86.926 1.028.77-.766.649-2.848.84-2.862.655.06 1.426.87 2.103 1.771.587 1.032.78 1.657.784 2.905z" fill="#EDB6A4"/><path opacity=".12" d="M72.102 130.58c-.469.853-1.098 1.589-1.937 2.135-.534 2.604-8.765 16.336-10.89 17.914-1.239 1.178-8.241 4.83-9.424 4.048.345-1.84.154-3.701-.551-5.596l6.362-1.476 1.758-2.568 7.493-10.864 1.403-2.073.77-1.122c-.501-.92-.558-1.913-.704-2.832.37-.603.535-.532 1.067-.408.215.585.314.86.926 1.028.77-.766.649-2.848.84-2.862.655.06 1.426.87 2.103 1.771.587 1.032.78 1.657.784 2.905z" fill="url(#paint4_linear)"/><path d="M48.504 149.194l4.364-1.353c.83 1.297 2.276 3.861 2.343 5.866-2.03 1.505-4.692 3.611-7.938 4.395l1.231-8.908z" fill="#635FB5"/><path d="M89.961 130.318l-19.69 19.713a3.852 3.852 0 01-5.45 0l-13.035-13.05a3.862 3.862 0 010-5.457l19.69-19.712a3.85 3.85 0 015.45 0l13.035 13.05a3.86 3.86 0 010 5.456z" fill="#ADADEA"/><path d="M87.542 129.137l-18.45 18.472a2.141 2.141 0 01-3.03 0L54.205 135.74a2.148 2.148 0 010-3.035l18.45-18.471a2.141 2.141 0 013.031 0l11.855 11.869a2.147 2.147 0 010 3.034z" fill="#E6E9F8"/><path d="M69.001 131.971l-3.068 3.072a2.063 2.063 0 01-2.922 0 2.07 2.07 0 010-2.924l3.069-3.073a2.065 2.065 0 012.921 0 2.07 2.07 0 010 2.925zm7.819.679l-6.639 6.647a2.063 2.063 0 01-2.92 0 2.069 2.069 0 010-2.924l6.638-6.647a2.065 2.065 0 012.921 0 2.069 2.069 0 010 2.924z" fill="#ADADEA"/><path d="M62.641 120.658l-2.019 2.021-1.216-1.218a1.138 1.138 0 010-1.607l.413-.414a1.133 1.133 0 011.605 0l1.217 1.218zm-3.35 3.353l-2.018 2.021-1.217-1.218a1.137 1.137 0 010-1.607l.414-.414a1.133 1.133 0 011.605 0l1.216 1.218zm-3.348 3.353l-2.02 2.021-1.216-1.218a1.137 1.137 0 010-1.607l.414-.414a1.133 1.133 0 011.605 0l1.217 1.218zm8.029-8.038l2.019-2.022-1.217-1.218a1.135 1.135 0 00-1.605 0l-.414.415a1.138 1.138 0 000 1.607l1.217 1.218zm3.349-3.354l2.02-2.021-1.217-1.218a1.135 1.135 0 00-1.605 0l-.414.415a1.136 1.136 0 000 1.606l1.216 1.218zm13.805 23.192l-2.019 2.021 1.217 1.218a1.133 1.133 0 001.605 0l.414-.414a1.138 1.138 0 000-1.607l-1.217-1.218zm-3.348 3.353l-2.02 2.021 1.217 1.218a1.134 1.134 0 001.605 0l.414-.414a1.138 1.138 0 000-1.607l-1.216-1.218zm-3.35 3.353l-2.019 2.021 1.217 1.218a1.133 1.133 0 001.605 0l.414-.414a1.138 1.138 0 000-1.607l-1.217-1.218zm8.029-8.038l2.019-2.021 1.216 1.218a1.136 1.136 0 010 1.606l-.413.415a1.135 1.135 0 01-1.605 0l-1.217-1.218zm3.35-3.353l2.019-2.021 1.216 1.218a1.136 1.136 0 010 1.606l-.414.415a1.135 1.135 0 01-1.605 0l-1.216-1.218zm-1.353-15.131l-2.02-2.022 1.217-1.218a1.135 1.135 0 011.605 0l.414.415a1.138 1.138 0 010 1.607l-1.216 1.218zm-3.349-3.354l-2.02-2.021 1.218-1.218a1.135 1.135 0 011.605 0l.413.415a1.136 1.136 0 010 1.606l-1.216 1.218zm4.679 4.685l2.02 2.022 1.216-1.218a1.138 1.138 0 000-1.607l-.414-.415a1.135 1.135 0 00-1.605 0l-1.217 1.218zm-26.47 23.837l-2.019-2.021-1.217 1.218a1.138 1.138 0 000 1.607l.414.414a1.133 1.133 0 001.605 0l1.217-1.218zm-3.35-3.353l-2.019-2.021-1.216 1.218a1.138 1.138 0 000 1.607l.414.414a1.133 1.133 0 001.605 0l1.216-1.218zm4.681 4.685l2.018 2.022-1.216 1.217a1.133 1.133 0 01-1.605 0l-.414-.414a1.137 1.137 0 010-1.607l1.217-1.218z" fill="#393768"/><path opacity=".081" d="M89.962 124.862l-2.159-2.161 1.217-1.218a1.137 1.137 0 000-1.607l-.414-.415a1.133 1.133 0 00-1.605 0l-1.217 1.218-1.33-1.332 1.216-1.218a1.137 1.137 0 000-1.607l-.414-.414a1.133 1.133 0 00-1.605 0l-1.217 1.218-1.33-1.332 1.216-1.218a1.137 1.137 0 000-1.607l-.413-.415a1.135 1.135 0 00-1.605 0l-1.217 1.218-2.159-2.161a3.85 3.85 0 00-5.45 0l-2.137 2.139-1.216-1.218a1.135 1.135 0 00-1.605 0l-.414.415a1.138 1.138 0 000 1.607l1.216 1.218-1.33 1.332-1.217-1.218a1.133 1.133 0 00-1.605 0l-.414.414a1.138 1.138 0 000 1.607l1.217 1.218-1.33 1.332-1.217-1.218a1.133 1.133 0 00-1.605 0l-.415.415a1.138 1.138 0 000 1.607l1.217 1.218-1.33 1.332-1.217-1.218a1.133 1.133 0 00-1.605 0l-.414.414a1.138 1.138 0 000 1.607l1.216 1.218-1.33 1.332-1.217-1.218a1.133 1.133 0 00-1.604 0l-.415.415a1.138 1.138 0 000 1.607l1.217 1.217-2.137 2.14a3.86 3.86 0 000 5.456l2.159 2.161-1.217 1.218a1.138 1.138 0 000 1.607l.414.415a1.135 1.135 0 001.605 0l1.217-1.218 1.33 1.332-1.216 1.218a1.136 1.136 0 000 1.606l.414.415a1.135 1.135 0 001.605 0l1.217-1.218 1.33 1.332-1.217 1.218a1.138 1.138 0 000 1.607l.415.414a1.133 1.133 0 001.605 0l1.216-1.218 2.159 2.161a3.85 3.85 0 005.45 0l2.137-2.139 1.216 1.218a1.133 1.133 0 001.605 0l.414-.415a1.137 1.137 0 000-1.607l-1.216-1.218 1.33-1.332 1.217 1.218a1.133 1.133 0 001.605 0l.414-.414a1.138 1.138 0 000-1.607l-1.217-1.218 1.33-1.332 1.217 1.218a1.133 1.133 0 001.605 0l.414-.414a1.138 1.138 0 000-1.607l-1.216-1.218 1.33-1.332 1.216 1.218a1.135 1.135 0 001.606 0l.414-.415a1.136 1.136 0 000-1.606l-1.217-1.218 1.33-1.332 1.217 1.218a1.135 1.135 0 001.605 0l.414-.415a1.137 1.137 0 000-1.607l-1.216-1.217 2.137-2.14a3.86 3.86 0 000-5.456z" fill="url(#paint5_linear)"/><path d="M46.904 235.07s-.127 1.93.405 2.554c.532.624-4.975.652-4.975.652s1.57-2.862.895-4.119c-.675-1.256 3.675.913 3.675.913z" fill="#EDB6A4"/><path d="M52.982 241.919l-10.714-.851c-.686-1.183-.53-2.353.279-3.515 1.753.261 3.41.223 4.896-.348 1.307 1.267 3.322 2.338 5.65 3.323.741.382.56.861-.111 1.391z" fill="#E6E9F8"/><path d="M52.938 242.371l-10.731-.852.036-.46 10.732.852-.037.46z" fill="#A8CFEF"/><path d="M31.092 184.541c.182.391.439.741.535 1.162.71 3.101 8.684 15.635 10.946 22.11 2.033 6.541 1.509 16.602.372 27.782 1.42.504 2.894.637 4.441.263 2.226-11.29 5.63-25.381 4.561-28.838-1.377-8.168-3.57-16.213-6.785-24.103l-.372-1.325-.579-2.054-2.258.865-8.02 3.06-2.841 1.078z" fill="#8D9DD8"/><path d="M21.771 231.409s-.839 1.742-.58 2.52c.26.778-4.856-1.262-4.856-1.262s2.528-2.065 2.372-3.483c-.156-1.418 3.064 2.225 3.064 2.225z" fill="#EDB6A4"/><path d="M24.843 240.039l-9.614-4.809c-.193-1.354.389-2.381 1.574-3.154 1.528.9 3.079 1.487 4.67 1.515.737 1.665 2.205 3.413 3.993 5.199.545.634.198 1.01-.623 1.249z" fill="#E6E9F8"/><path d="M24.646 240.44l-9.63-4.817.206-.413 9.63 4.817-.206.413z" fill="#A8CFEF"/><path d="M30.607 179.921c.022.431-4.261 3.724-4.397 4.134-2.591 7.812 1.543 13.821 1.75 20.459-.564 6.827-4.816 15.957-10.056 25.896 1.128 1 2.445 1.676 4.02 1.911 6.29-9.633 14.72-21.42 15.024-25.025 1.78-8.09 2.76-16.372 2.733-24.893l.15-1.369.232-2.12-2.417-.046-8.582-.173 1.543 1.226z" fill="#8D9DD8"/><path d="M24.566 187.876c.323 2.814 22.112-.151 22.292-2.167-2.33-9.376-1.55-13.175.194-23.19-.008-.016-.008-.016-.004-.027.285-1.646.551-3.387.79-5.276.05-.416.105-.842.151-1.284.237-2.069.42-4.321.54-6.76-1.748-.284-3.205-.209-5.017-.261-1.91.197-3.719-.08-5.413.126-2.178.247-4.09.147-7.021 2.057-5.648 5.408-1.72 21.765-6.512 36.782z" fill="#635FB5"/><path d="M44.048 144.983L37.925 146c.51 2.337.557 2.2-1.378 3.136.497 4.32 10.957 5.079 7.678-.172-2.274-.204-.995-1.533-.177-3.981z" fill="#E0A494"/><path opacity=".12" d="M44.048 144.983L37.925 146c.51 2.337.557 2.2-1.378 3.136.497 4.32 10.957 5.079 7.678-.172-2.274-.204-.995-1.533-.177-3.981z" fill="url(#paint6_linear)"/><path d="M45.612 146.224c-.4.813-4.303.858-8.346.671l-3.504-9.544 8.243-3.107c3.812 3.66 4.679 10.75 3.607 11.98z" fill="#EDB6A4"/><path opacity=".12" d="M45.612 146.224c-.4.813-4.303.858-8.346.671l-3.504-9.544 8.243-3.107c3.812 3.66 4.679 10.75 3.607 11.98z" fill="url(#paint7_linear)"/><path d="M45.882 131.239c1.402.412 1.481 5.376-1.124 6.946-1.89.669-3.034.743-4.962.286.125 1.369.233 3.357.969 3.785 0 0-.577.801-1.379.838-.266-.795-.709-1.395-1.415-1.513-.447-.061-.522-.028-.903.403-.456.558-.018 1.181.644 1.435 1.564.521 1.5 3.136 1.403 4.263-1.147.1-3.085-1.151-3.85-1.795-1.605-1.879-2.223-2.376-2.787-6.514.735-8.03 5.852-4.916 13.404-8.134z" fill="#393768"/><path d="M68.799 151.739c-.842.488-1.76.794-2.76.829-1.799 1.955-15.925 9.469-18.559 9.724-1.668.369-9.548-.117-10.159-1.398 1.244-1.398 2.039-3.092 2.411-5.079l6.212 2.021 2.828-1.292 12.017-5.439 2.269-1.052 1.238-.562c.045-1.048.508-1.928.856-2.791.628-.325.732-.179 1.124.202-.117.612-.173.899.264 1.358 1.053-.258 2.023-2.105 2.194-2.018.53.39.774 1.482.89 2.603-.03 1.188-.185 1.823-.825 2.894z" fill="#EDB6A4"/><path opacity=".12" d="M68.799 151.739c-.842.488-1.76.794-2.76.829-1.799 1.955-15.925 9.469-18.559 9.724-1.668.369-9.548-.117-10.159-1.398 1.244-1.398 2.039-3.092 2.411-5.079l6.212 2.021 2.828-1.292 12.017-5.439 2.269-1.052 1.238-.562c.045-1.048.508-1.928.856-2.791.628-.325.732-.179 1.124.202-.117.612-.173.899.264 1.358 1.053-.258 2.023-2.105 2.194-2.018.53.39.774 1.482.89 2.603-.03 1.188-.185 1.823-.825 2.894z" fill="url(#paint8_linear)"/><path d="M247.491 220.138l.075 1.214s.018.027-.002.119l-.005.023c0 .335-.017 1.194-.236 1.77a1.117 1.117 0 01-.226.383c-.504.563 4.519.804 4.519.804s-.18-.278-.302-.711c-.102-.31-.078-1.311-.002-2.78l-3.821-.822z" fill="#EDB6A4"/><path d="M241.501 227.453l10.329-.366c.709-1.108.609-2.239-.12-3.389-1.696.177-3.286.071-4.69-.54-1.309 1.162-3.29 2.106-5.567 2.954-.729.336-.576.803.048 1.341z" fill="#A2F8DE"/><path d="M241.502 227.465l10.347-.367.015.443-10.346.367-.016-.443zm5.768-36.431c-1.574.33-3.49 1.881-3.691 3.396-.69 5.192 3.621 26.767 3.674 27.313 1.416.183 2.754.198 3.929-.143l.192-.038c1.151-5.485 1.461-12 .83-19.198 1.205 2.339 19.726 6.552 20.271 5.194l.376-1.102 2.709-7.938c-.111-.033-.211-.052-.322-.084-.72-.173-1.515-.218-2.208-.548-3.826-1.817-23.039-7.422-25.76-6.852z" fill="#393768"/><path d="M292.573 222.629s1.797-.153 2.389.333c.592.486.519-4.663.519-4.663s-2.641 1.52-3.825.911c-1.184-.609.917 3.419.917 3.419z" fill="#EDB6A4"/><path d="M299.069 228.188l-.986-10.001c-1.115-.619-2.204-.454-3.273.324.275 1.635.269 3.185-.237 4.584 1.205 1.199 2.24 3.063 3.2 5.221.371.687.814.51 1.296-.128z" fill="#A2F8DE"/><path d="M269.861 169.272c-.306 1.117-5.934 6.882-6.877 6.649-.226 1.096-17.302 3.232-18.971 2.726-2.488-.055-1.131-1.499-2.009-4.992-.023-.478-.291-2.235.319-2.324.767.656 1.968 3.328 2.233 4.659l16.393-4.331 3.277-4.706c1.32 1.184 4.023 1.993 5.635 2.319z" fill="#EDB6A4"/><path opacity=".12" d="M269.861 169.272c-.306 1.117-5.934 6.882-6.877 6.649-.226 1.096-17.302 3.232-18.971 2.726-2.488-.055-1.131-1.499-2.009-4.992-.023-.478-.291-2.235.319-2.324.767.656 1.968 3.328 2.233 4.659l16.393-4.331 3.277-4.706c1.32 1.184 4.023 1.993 5.635 2.319z" fill="url(#paint9_linear)"/><path d="M299.063 228.166l-.988-10.017.428-.043.989 10.017-.429.043zm-16.121-32.842c.897 9.095-6.194 18.47-9.872 24.002 9.293-.897 13.641-.666 19.965-.239.335 1.355.587 2.674.417 3.908l-22.121 4.752c-12.684 1.347-7.22-20.786-1.568-27.333l13.179-5.09z" fill="#393768"/><path d="M282.942 195.324c-9.127 6.413-18.234 3.584-18.596-.425.677-8.455.222-8.814-2.721-17.239.004-.014-1.849-11.144 4.741-13.369 1.823-.615 3.737.124 5.495.891 10.246 8.778 4.783 17.822 11.081 30.142z" fill="#9DA8F3"/><path d="M260.675 162.052l5.586-1.773c.112 2.049.809 2.389 2.407 3.852.044 2.357-6.571 5.484-5.622 2.65-.387-1.866-1.125-3.313-2.371-4.729z" fill="#E0A494"/><path opacity=".12" d="M260.675 162.052l5.586-1.773c.112 2.049.809 2.389 2.407 3.852.044 2.357-6.571 5.484-5.622 2.65-.387-1.866-1.125-3.313-2.371-4.729z" fill="url(#paint10_linear)"/><path d="M260.474 165.771c.747.416 3.898-1.377 6.937-3.698l-2.404-9.294-8.067 2.024c-.994 4.892 2.041 10.59 3.534 10.968z" fill="#EDB6A4"/><path opacity=".12" d="M260.474 165.771c.747.416 3.898-1.377 6.937-3.698l-2.404-9.294-8.067 2.024c-.994 4.892 2.041 10.59 3.534 10.968z" fill="url(#paint11_linear)"/><path d="M254.965 155.886c-.867 1.075.761 2.511 1.954 3.457 1.827-.498 2.754-1.056 4.005-2.448.639 1.13 1.622 2.731 1.28 3.459 0 0 .878.311 1.52-.092-.22-.76-.198-1.464.287-1.935.314-.288.39-.303.917-.173.654.187.648.906.271 1.46-.935 1.245.923 2.092 1.604 2.915.943-.54 1.636-1.548 1.62-2.316.237-2.323.27-4.282-1.991-6.201-1.269-2.028-4.405-3.359-6.591-1.79-2.136 3.228-3.313 1.812-4.876 3.664z" fill="#6172CC"/><path d="M268.791 174.012c-.406 1.085-6.538 6.31-7.456 5.991-.325 1.071-17.525 1.634-19.141.978-2.471-.283-.989-1.596-1.544-5.156.021-.478-.085-2.252.53-2.284.704.723 1.656 3.494 1.799 4.843l16.719-2.81 3.693-4.387c1.207 1.299 3.825 2.353 5.4 2.825z" fill="#EDB6A4"/><path opacity=".12" d="M268.791 174.012c-.406 1.085-6.538 6.31-7.456 5.991-.325 1.071-17.525 1.634-19.141.978-2.471-.283-.989-1.596-1.544-5.156.021-.478-.085-2.252.53-2.284.704.723 1.656 3.494 1.799 4.843l16.719-2.81 3.693-4.387c1.207 1.299 3.825 2.353 5.4 2.825z" fill="url(#paint12_linear)"/><path fill-rule="evenodd" clip-rule="evenodd" d="M243.411 156.304l-.835-.834.442-.442c.216-.216.33-.454.342-.715a.874.874 0 00-.273-.682.87.87 0 00-.679-.273c-.259.012-.497.127-.715.345l-.789.789 2.16 2.159.347-.347zm-.707-1.577l-.435.436-.71-.71.435-.436a.552.552 0 01.378-.184.48.48 0 01.361.158.474.474 0 01.157.36c-.004.131-.066.256-.186.376zm1.626-1.318l.988.988-.347.347-2.159-2.16.347-.347.86.861 1.086-1.086-.86-.861.347-.347 2.159 2.16-.347.347-.988-.988-1.086 1.086zm3.315-1.338l-.835-.835.442-.441c.216-.216.33-.455.342-.715a.876.876 0 00-.273-.683.872.872 0 00-.679-.273c-.259.012-.497.127-.715.345l-.789.789 2.16 2.159.347-.346zm-1.142-1.142l.435-.436a.555.555 0 00.186-.376.474.474 0 00-.157-.36.48.48 0 00-.361-.158c-.132.003-.258.065-.378.184l-.435.436.71.71zm-99.862-70.505a6.352 6.352 0 00-.111-3.026c-.41-1.456-1.377-2.652-2.754-3.399-2.232-1.232-4.949-.822-6.921 1.083a4.778 4.778 0 00-1.377 2.503c-.521 2.69.633 5.192 2.866 6.424 2.232 1.233 4.948.822 6.921-1.083a4.776 4.776 0 001.376-2.502zm-8.074 3.212c-1.265-.672-2.121-1.793-2.53-3.138-.261-.859-.298-1.83-.112-2.838a4.162 4.162 0 011.228-2.279c1.823-1.755 4.353-2.166 6.437-1.008 2.084 1.12 3.126 3.473 2.642 5.976a4.163 4.163 0 01-1.228 2.278c-1.823 1.756-4.353 2.167-6.437 1.009zm5.842-5.603c.558 1.83-.521 3.773-2.345 4.296-1.823.56-3.758-.523-4.279-2.353-.558-1.83.521-3.773 2.345-4.296 1.823-.56 3.758.523 4.279 2.353zm-2.419 3.885a3.046 3.046 0 01-3.795-2.055c-.484-1.606.446-3.324 2.046-3.81a3.048 3.048 0 013.796 2.055 3.063 3.063 0 01-2.047 3.81z" fill="#6C6CB5"/><path fill-rule="evenodd" clip-rule="evenodd" d="M150.436 77.473l-.669-2.241a.688.688 0 00-.745-.486l-1.711.299c-.112.037-.223-.037-.298-.112-.223-.336-.484-.635-.744-.934-.075-.075-.075-.187-.037-.299l.632-1.606a.62.62 0 00-.297-.784l-2.047-1.12c-.298-.15-.633-.075-.819.186l-1.004 1.42c-.075.074-.186.149-.298.111a6.133 6.133 0 00-1.191-.111.28.28 0 01-.26-.187l-.67-1.569c-.111-.299-.446-.448-.744-.374l-2.233.673c-.297.075-.483.41-.446.71l.298 1.718c.037.112-.038.224-.112.298a8.98 8.98 0 00-.93.747c-.075.075-.186.075-.298.038l-1.6-.635a.615.615 0 00-.781.299l-1.117 2.054c-.149.299-.074.635.186.822l1.414 1.008c.075.075.149.187.112.299a6.238 6.238 0 00-.112 1.195.28.28 0 01-.186.262l-1.563.672c-.297.112-.446.448-.372.747l.67 2.241c.075.299.409.486.707.448l1.712-.298c.111-.038.223.037.297.112.261.41.559.747.893 1.083l-.707 1.793a.62.62 0 00.298.784l2.047 1.12c.297.15.632.075.818-.186l1.005-1.42c.074-.074.186-.149.298-.112a6.13 6.13 0 001.19.112.28.28 0 01.261.187l.67 1.569c.111.299.446.448.744.373l2.232-.672c.298-.075.484-.41.447-.71l-.298-1.718c-.037-.112.037-.224.112-.298.335-.225.632-.486.93-.747.074-.075.186-.075.298-.038l1.6.635c.297.112.632 0 .781-.299l1.116-2.054c.149-.299.075-.635-.186-.822l-1.414-1.008c-.074-.075-.148-.187-.111-.299a6.24 6.24 0 00.111-1.195c0-.112.075-.224.186-.262l1.563-.672c.298-.112.447-.448.372-.747zm-2.641 2.801a.51.51 0 000 .336c.037.15.111.3.297.374l1.414 1.008c.112.038.112.15.075.262l-1.117 2.054c-.037.112-.149.15-.26.112l-1.6-.635a.681.681 0 00-.744.15c-.298.261-.596.485-.893.71-.224.149-.335.448-.298.71l.298 1.717c.037.112-.038.224-.149.262l-2.233.672c-.111.037-.223 0-.26-.112l-.67-1.569c-.112-.224-.372-.41-.633-.41-.372 0-.744-.038-1.116-.113-.26-.037-.558.075-.707.3l-1.005 1.418c-.037.112-.148.112-.26.075l-2.047-1.12c-.111-.038-.148-.15-.111-.262l.818-2.054-.111-.112a5.257 5.257 0 01-.93-1.083c-.149-.224-.447-.337-.707-.3l-1.712.3c-.112.037-.223-.038-.261-.15l-.669-2.24c-.038-.113 0-.225.111-.262l1.563-.673c.223-.112.409-.373.409-.635 0-.373.038-.747.112-1.12.037-.262-.074-.56-.298-.71l-1.414-1.008c-.111-.038-.111-.15-.074-.262l1.116-2.054c.037-.112.149-.15.261-.112l1.6.635c.26.112.558.037.744-.15.298-.261.595-.485.893-.71.223-.149.335-.448.298-.709l-.298-1.718c-.037-.112.037-.224.149-.262l2.232-.672c.112-.037.224 0 .261.112l.67 1.569c.111.224.372.41.632.41.372 0 .744.038 1.116.113.261.037.559-.075.707-.3l1.005-1.418c.037-.113.149-.113.261-.075l2.046 1.12c.112.038.149.15.112.262l-.633 1.606a.69.69 0 00.149.747c.26.299.484.598.707.897.149.224.447.336.707.298l1.712-.298c.111-.038.223.037.26.149l.67 2.24c.037.113 0 .225-.112.262l-1.563.673c-.223.112-.409.373-.409.635 0 .373-.037.747-.111 1.12zm-17.303-3.698c0-.41-.074-.821-.186-1.195-.409-1.42-1.488-2.502-2.902-2.876-1.786-.485-3.647.262-4.726 1.942-.372.598-.595 1.308-.558 2.017.075 1.98 1.303 3.586 3.089 4.072 1.786.485 3.646-.262 4.725-1.943.372-.597.596-1.307.558-2.017zm-5.172 3.512a3.814 3.814 0 01-2.604-2.578 3.522 3.522 0 01-.186-1.12 3.025 3.025 0 01.483-1.793c1.191-1.83 2.977-2.13 4.279-1.756 1.303.374 2.717 1.532 2.791 3.698a3.033 3.033 0 01-.484 1.793c-1.19 1.83-2.976 2.129-4.279 1.756zm3.424-4.333a2.57 2.57 0 01-1.191 2.95c-.596.337-1.265.411-1.935.262a2.463 2.463 0 01-1.526-1.195 2.53 2.53 0 01.968-3.474c1.228-.672 2.791-.261 3.46.971.075.112.186.299.224.486zm-4.317 1.793c-.074-.15-.149-.3-.186-.449-.26-.933.149-1.98.968-2.428 1.004-.597 2.307-.224 2.902.785.595 1.008.223 2.316-.781 2.913a2.154 2.154 0 01-1.6.187c-.559-.15-1.005-.523-1.303-1.008z" fill="#6C6CB5"/><path fill-rule="evenodd" clip-rule="evenodd" d="M132.501 74.522c.186-.15.261-.373.186-.56-.037-.038-.037-.075-.037-.112l-.818-1.457c-.112-.224-.41-.336-.633-.224l-1.153.486c-.038 0-.112 0-.149-.038a5.049 5.049 0 00-.707-.523c-.075-.037-.075-.075-.075-.15l.186-1.232a.494.494 0 00-.372-.56l-1.6-.448c-.223-.075-.483.075-.595.299l-.484 1.157c0 .075-.074.112-.111.112-.261 0-.559.038-.856.113a.282.282 0 01-.149-.075l-.744-1.009c-.149-.224-.447-.261-.67-.149l-1.451.822c-.223.112-.335.41-.223.635l.483 1.158c0 .037 0 .112-.037.149a4.982 4.982 0 00-.521.71c-.037.074-.074.074-.149.074l-1.228-.186a.494.494 0 00-.558.373l-.446 1.606c-.075.224.074.486.297.598l1.154.485c.074 0 .111.075.111.113 0 .26.038.56.112.859a.285.285 0 01-.074.149l-1.005.747c-.223.15-.26.448-.149.672l.819 1.457c.111.224.409.336.632.224l1.154-.485c.037 0 .111 0 .149.037.26.224.521.41.781.597l-.186 1.308a.496.496 0 00.372.56l1.6.448c.223.075.484-.074.596-.299l.483-1.157c0-.075.075-.112.112-.112a3.6 3.6 0 00.856-.112c.037 0 .111.037.149.074l.744 1.009c.149.224.446.261.67.15l1.451-.823c.223-.112.335-.41.223-.635l-.484-1.157c0-.038 0-.112.037-.15.186-.224.373-.448.521-.71.038-.074.075-.074.149-.074l1.228.186a.493.493 0 00.558-.373l.447-1.606c.074-.224-.075-.486-.298-.598l-1.153-.485c-.075 0-.112-.075-.112-.112 0-.262-.037-.56-.112-.86 0-.037.038-.112.075-.149l1.004-.747zm-1.353 1.856c.007.018.014.034.014.049.037.15.149.299.298.336l1.153.486c.074 0 .074.075.074.112l-.446 1.606c0 .037-.074.075-.112.075l-1.228-.187a.553.553 0 00-.558.261c-.149.224-.297.448-.483.635a.585.585 0 00-.112.598l.484 1.158c.037.037 0 .075-.038.112l-1.451.822c-.037 0-.074 0-.111-.038l-.745-1.008c-.111-.187-.334-.262-.558-.224a3.3 3.3 0 01-.818.112c-.224 0-.41.112-.484.336l-.484 1.158c0 .075-.074.075-.111.075l-1.6-.449c-.038 0-.075-.074-.075-.112l.223-1.606-.111-.075c-.298-.149-.558-.373-.819-.597-.149-.15-.372-.187-.595-.112l-1.154.485c-.037.038-.074 0-.111-.037l-.819-1.457c0-.037 0-.075.037-.112l1.005-.747c.186-.112.26-.336.223-.56a3.361 3.361 0 01-.111-.822.515.515 0 00-.335-.485l-1.154-.486c-.074 0-.074-.075-.074-.112l.446-1.606c0-.038.075-.075.112-.075l1.228.187a.553.553 0 00.558-.262c.149-.224.298-.448.484-.635a.585.585 0 00.111-.597l-.483-1.158c-.038-.037 0-.075.037-.112l1.451-.822c.037 0 .074 0 .112.037l.744 1.009c.111.187.335.261.558.224.298-.075.558-.112.819-.112.223 0 .409-.112.483-.336l.484-1.158c0-.075.074-.075.112-.075l1.6.448c.037 0 .074.075.074.112l-.186 1.233a.555.555 0 00.261.56c.223.15.446.3.632.486.149.15.372.187.595.112l1.154-.486c.037-.037.074 0 .112.038l.818 1.457c0 .037 0 .074-.037.112l-1.005.747c-.186.112-.26.336-.223.56.074.299.112.56.112.822a.24.24 0 00.023.1zm-2.293-11.007c.186-.56.186-1.158.037-1.718 0 0-.037 0-.037-.038-.521-1.606-1.86-2.651-3.423-2.651s-2.902 1.008-3.423 2.614a2.831 2.831 0 000 1.756c.521 1.606 1.86 2.652 3.423 2.652s2.902-1.009 3.423-2.615zm-3.423 2.204c-1.116 0-2.493-.635-3.014-2.353-.186-.486-.149-1.009 0-1.532.558-1.718 1.935-2.316 3.051-2.316s2.493.635 3.014 2.354a2.68 2.68 0 010 1.531c-.558 1.718-1.935 2.316-3.051 2.316zm2.084-3.698a2.166 2.166 0 01-.558 2.166 2.162 2.162 0 01-3.052 0 2.183 2.183 0 010-3.063 2.162 2.162 0 013.052 0c.26.262.446.56.558.897zm-3.312 1.868a1.741 1.741 0 01-.446-.748 1.657 1.657 0 01.446-1.718c.67-.71 1.786-.672 2.456 0 .707.673.67 1.793 0 2.466-.67.71-1.786.672-2.456 0z" fill="#6C6CB5"/><path fill-rule="evenodd" clip-rule="evenodd" d="M131.139 63.74a.125.125 0 01-.014-.05c-.037-.186-.186-.299-.372-.224l-1.042-.15c-.014-.014-.029-.022-.041-.03-.019-.012-.034-.02-.034-.044-.074-.224-.186-.448-.297-.672-.037-.038-.037-.075 0-.112l.632-.822c.149-.15.112-.448-.037-.598l-1.005-1.008a.45.45 0 00-.595-.038l-.818.635h-.112a5.257 5.257 0 00-.67-.298c-.037 0-.074-.038-.074-.075l-.112-1.046c0-.224-.223-.41-.446-.41h-1.414c-.224 0-.41.186-.447.41l-.149 1.046a.194.194 0 00-.03.04c-.012.02-.021.035-.044.035a5.257 5.257 0 00-.67.298c-.037.038-.074.038-.112 0l-.818-.635c-.149-.149-.447-.112-.596.038l-1.004 1.008a.455.455 0 00-.037.598l.632.822v.112a5.334 5.334 0 00-.298.672c0 .037-.037.075-.074.075l-1.042.112c-.223 0-.409.224-.409.448v1.42c0 .223.186.41.409.448l1.042.112a.18.18 0 00.041.03c.019.012.033.021.033.044.075.224.186.448.298.673.037.037.037.074 0 .112l-.632.821c-.149.15-.112.449.037.598l1.004 1.008c.149.15.41.187.596.038l.818-.635h.112l.178.078c.189.085.367.164.566.22l.112 1.084c0 .224.223.41.446.41h1.414c.224 0 .41-.186.447-.41l.149-1.046a.196.196 0 00.03-.04c.012-.02.021-.035.044-.035.223-.074.447-.186.67-.298.037-.038.074-.038.112 0l.818.635c.149.149.447.112.595-.038l1.005-1.008a.455.455 0 00.037-.598l-.632-.822v-.112c.111-.224.223-.448.297-.672 0-.037.038-.075.075-.075l1.042-.112c.223 0 .409-.224.409-.448v-1.42c0-.043-.013-.074-.023-.1zm-2.135 2.602a.438.438 0 00-.037.374c0 .074.037.15.074.186l.633.822v.075l-1.005 1.008h-.074l-.819-.635a.517.517 0 00-.558-.074 4.48 4.48 0 01-.633.261c-.186.038-.297.224-.335.411l-.148 1.046c0 .019 0 .028-.005.033-.005.004-.014.004-.033.004h-1.414s-.037 0-.037-.037l-.149-1.382-.149-.037c-.26-.075-.52-.15-.781-.3a.503.503 0 00-.558.038l-.819.635h-.074l-1.005-1.008v-.075l.633-.822a.52.52 0 00.074-.56 4.588 4.588 0 01-.26-.635c-.037-.187-.224-.299-.41-.336l-1.041-.112c-.019 0-.028 0-.033-.005-.005-.005-.005-.014-.005-.033v-1.42s0-.036.038-.036l1.041-.113c.186 0 .335-.149.41-.336.074-.224.149-.448.26-.635a.507.507 0 00-.037-.56l-.633-.822c-.037-.037 0-.074 0-.074l1.005-1.009h.075l.818.635c.186.15.372.15.558.075.224-.112.41-.187.633-.262.186-.037.298-.224.335-.41l.149-1.046c0-.019 0-.028.004-.033.005-.005.014-.005.033-.005h1.414s.037 0 .037.038l.112 1.046c0 .186.148.336.334.41.224.075.447.15.633.262a.503.503 0 00.558-.038l.819-.634h.074l1.005 1.008v.075l-.633.822a.52.52 0 00-.074.56c.112.224.186.41.26.635.038.187.224.298.41.336l1.042.112c.018 0 .027 0 .032.005.005.004.005.014.005.032v1.42s0 .037-.037.037l-1.042.112c-.186 0-.335.15-.41.336-.074.224-.148.448-.26.635z" fill="#6C6CB5"/><path fill-rule="evenodd" clip-rule="evenodd" d="M244.023 146.535h.036c.073-.036.146-.108.182-.253 0-.108-.109-.18-.218-.18a5.995 5.995 0 00-1.602.325c-.109.036-.182.144-.146.253.037.108.146.18.255.144.51-.144.983-.253 1.493-.289zm2.803.506h.145c.019 0 .037-.018.06-.041.022-.022.05-.05.086-.068.036-.108 0-.252-.109-.289-.51-.216-1.019-.397-1.566-.469a.272.272 0 00-.254.18.27.27 0 00.182.253c.509.073.983.217 1.456.434zm2.257 1.734c.036.072.145.108.218.072 0-.036.037-.036.073-.036.109-.072.109-.181.036-.289a6.763 6.763 0 00-1.165-1.12.194.194 0 00-.291.036.19.19 0 00.037.289c.4.289.764.65 1.092 1.048zm1.128 2.529c.037.108.146.18.291.144.11 0 .182-.108.146-.217a3.651 3.651 0 00-.157-.63 5.515 5.515 0 01-.061-.201 5.51 5.51 0 00-.292-.686c-.072-.108-.182-.144-.291-.108-.109.072-.145.18-.109.289.036.108.082.216.127.325.046.108.091.217.128.325.109.253.182.506.218.759zm0 3.07h.146c.073 0 .109-.072.145-.144a7.582 7.582 0 00.255-1.59c0-.108-.109-.217-.218-.217s-.219.109-.219.217a6.641 6.641 0 01-.254 1.481c-.037.109.036.217.145.253zm-1.565 2.493c.073.036.146.072.218.036.037-.036.073-.036.073-.036a4.73 4.73 0 00.983-1.265c.073-.108.036-.216-.073-.289-.109-.072-.218-.036-.291.073a5.776 5.776 0 01-.91 1.192.218.218 0 000 .289zm-2.221 1.553c-.015 0-.024 0-.032.003-.011.004-.02.013-.04.033-.11.036-.219-.036-.255-.144-.037-.109.036-.217.145-.253l.073-.036a5.902 5.902 0 001.274-.614c.109-.073.219-.036.291.072.073.108.037.217-.072.289-.437.253-.874.47-1.384.65zm-1.456.289h-.036c-.546.036-1.092.036-1.602-.072a.272.272 0 01-.182-.253.275.275 0 01.255-.181c.51.073 1.019.109 1.492.073.11 0 .219.072.219.18 0 .109-.037.217-.146.253zm-2.912-.469h-.146c-.509-.217-.982-.47-1.383-.795a.19.19 0 01-.036-.289.192.192 0 01.291-.036c.4.289.837.542 1.31.758.11.036.146.181.11.289-.023 0-.045.014-.076.033-.02.012-.042.026-.07.04zm-2.33-1.771c-.073.037-.182 0-.218-.072l-.073-.072a5.96 5.96 0 01-.801-1.301c-.036-.108 0-.216.109-.289.11-.036.219 0 .292.109.182.433.436.831.728 1.192l.036.072a.19.19 0 01-.036.289c0 .072-.037.072-.037.072zm-1.274-2.637c-.145.036-.255-.036-.291-.144a5.84 5.84 0 01-.109-1.59c0-.108.109-.216.218-.216s.219.108.219.216c-.037.506 0 1.012.109 1.481 0 .145-.037.217-.146.253zm.109-2.89h-.109c-.109-.036-.182-.144-.145-.253a5.946 5.946 0 01.655-1.481c.073-.108.182-.144.291-.072.109.072.146.181.073.289-.255.434-.473.903-.583 1.373a.625.625 0 01-.182.144zm1.493-2.528c-.073.036-.146 0-.219-.037-.072-.072-.072-.216 0-.289.182-.216.401-.397.619-.578.182-.144.401-.289.619-.433.109-.072.219-.036.291.072.073.109.037.217-.072.289a3.292 3.292 0 00-.583.398c-.218.18-.4.361-.582.541-.016 0-.025 0-.033.003-.01.004-.019.013-.04.034z" fill="#7876C4"/><path d="M257.808 120.378c-.511.182-.986.146-1.461-.037-.439-.182-.767-.547-.95-1.095l-.037-.146 1.06-.365.036.146c.147.438.475.584.987.438.256-.073.402-.182.511-.365.11-.146.11-.329.037-.548l-1.242-3.833 1.096-.365 1.242 3.833c.183.548.146 1.059-.11 1.461-.292.438-.657.73-1.169.876zm4.457-1.461c-.584.183-1.096.183-1.571 0-.475-.182-.804-.584-.986-1.168l1.096-.365c.146.511.548.657 1.169.438.256-.073.438-.219.548-.365.11-.146.11-.292.073-.475-.073-.182-.183-.292-.365-.328a4.405 4.405 0 00-.841-.073h-.511c-.146 0-.256 0-.292-.037-.037 0-.147-.036-.256-.036-.11-.037-.219-.037-.256-.073-.036-.037-.146-.073-.219-.11-.11-.036-.183-.073-.219-.146-.037-.073-.11-.109-.183-.182s-.146-.146-.183-.256c-.036-.109-.073-.182-.109-.328-.146-.512-.11-.95.146-1.351.256-.402.621-.657 1.096-.84.511-.183.986-.146 1.461.037.439.182.768.547.95 1.131l-1.059.365c-.146-.474-.475-.62-1.023-.474a.926.926 0 00-.475.328c-.11.146-.11.292-.073.438a.602.602 0 00.365.366c.183.073.439.109.767.109.585 0 .987.037 1.206.11.585.146.987.474 1.169 1.022.183.511.11.949-.146 1.351-.365.474-.767.766-1.279.912z" fill="#6C6CB5"/><path fill-rule="evenodd" clip-rule="evenodd" d="M259.781 109.352c-.036.037-.109.037-.146.037-.658 0-1.352.073-1.973.219-.146.036-.292-.037-.329-.219-.036-.147.037-.293.22-.329a8.387 8.387 0 012.119-.256c.146 0 .292.146.292.292l-.052.081c-.043.068-.077.122-.131.175zm3.8.949c-.073.037-.183.073-.292 0-.585-.328-1.206-.547-1.864-.73-.146-.036-.255-.182-.219-.329.037-.146.183-.255.329-.219a9.604 9.604 0 012.01.767c.146.073.182.256.109.365 0 .11-.036.146-.073.146zm2.886 2.629c-.146.073-.292.036-.401-.073-.366-.548-.841-1.059-1.316-1.497-.109-.109-.146-.292-.036-.402.109-.109.292-.146.402-.036a8.458 8.458 0 011.424 1.606c.11.146.074.329-.073.402zm1.352 3.651c-.036.036-.073.036-.109.036a.35.35 0 01-.329-.255 7.129 7.129 0 00-.475-1.935c-.073-.146 0-.292.146-.365.146-.073.292 0 .365.146.256.657.439 1.387.512 2.081.036.146-.037.255-.11.292zm-.511 3.906c-.073.037-.183.073-.256.037-.146-.073-.219-.219-.146-.365a7.138 7.138 0 00.475-1.935c0-.146.146-.256.329-.256.146 0 .255.146.255.329a7.88 7.88 0 01-.511 2.081c-.037.036-.073.073-.146.109zm-2.229 3.177c-.11.073-.256.036-.365-.037-.11-.109-.073-.292.036-.401.512-.439.95-.95 1.352-1.497.073-.146.256-.146.402-.073.146.073.146.255.073.401-.438.584-.95 1.132-1.498 1.607zm-1.571 1.058a6.914 6.914 0 01-2.046.767c-.146.037-.292-.073-.329-.219-.036-.146.073-.292.219-.329.658-.146 1.279-.401 1.864-.693.146-.073.292-.037.365.109.11.146.073.292-.073.365zm-3.763.986c.073-.073.109-.146.109-.219a.288.288 0 00-.292-.292 7.304 7.304 0 01-1.973-.256c-.146-.036-.292.074-.329.22-.036.146.073.292.219.328a8.207 8.207 0 002.12.256c.036 0 .109 0 .146-.037zm-4.129-.949c.11.073.219.036.292 0 .037 0 .074-.037.074-.183.073-.109.036-.292-.11-.365-.585-.292-1.133-.693-1.644-1.131a.333.333 0 00-.402.036.333.333 0 00.036.402c.512.511 1.133.912 1.754 1.241zm-3.032-2.629c.109.11.292.146.402.073.109-.109.146-.292.109-.401l-.073-.11a.515.515 0 01-.11-.146 6.724 6.724 0 01-.767-1.533c-.073-.146-.219-.219-.365-.183-.146.073-.219.219-.183.365.219.584.475 1.132.804 1.643a.624.624 0 00.055.091c.018.028.036.055.055.092l.073.109zm-1.133-3.578c.037 0 .073 0 .11-.036.109-.037.146-.146.146-.292a9.233 9.233 0 010-2.008.32.32 0 00-.256-.329.32.32 0 00-.329.256c-.073.73-.073 1.46 0 2.154.037.182.183.292.329.255zm.329-3.87c.073.037.183 0 .256-.036.036-.037.073-.073.073-.11.255-.657.548-1.241.95-1.789.073-.146.036-.328-.073-.401-.147-.073-.329-.037-.402.073a9.377 9.377 0 00-.987 1.898c-.036.146.037.329.183.365zm2.082-3.322c.11.11.256.11.366.037l.254-.201c.219-.174.419-.333.659-.493.256-.183.512-.329.804-.475.11-.073.183-.219.11-.365-.073-.109-.22-.182-.366-.109-.292.146-.584.328-.877.511a8.692 8.692 0 00-.913.693.261.261 0 00-.037.402zM91.2 150.451c.038.148.148.258.296.258h.037a6.737 6.737 0 012.103-.11.276.276 0 00.332-.258.276.276 0 00-.259-.332c-.737-.037-1.512-.037-2.25.11-.184 0-.295.185-.258.332zm6.383 1.475c-.037 0-.11 0-.148-.037a10.4 10.4 0 00-.885-.479 11.93 11.93 0 00-1.033-.406c-.148-.037-.258-.221-.184-.368.036-.148.22-.258.368-.185.37.111.738.258 1.107.443.332.147.627.331.922.516.148.073.185.258.074.405 0 .074-.11.111-.221.111zm-10.071.331c.037.074.147.111.221.111.074 0 .148 0 .222-.037.553-.442 1.143-.811 1.807-1.069.148-.074.222-.258.148-.405-.074-.148-.258-.221-.406-.148-.7.295-1.365.701-1.955 1.143-.11.074-.148.258-.037.405zm12.948 2.655c-.11 0-.184-.037-.258-.148a8.179 8.179 0 00-1.254-1.659.288.288 0 010-.405.289.289 0 01.406 0c.516.553.996 1.143 1.364 1.806.074.148.037.332-.11.406-.052-.026-.085-.016-.113-.008-.012.004-.024.008-.035.008zm-15.383.663c.037.037.074.037.111.037.11 0 .221-.074.258-.184l.037-.111a8.796 8.796 0 011.07-1.696c.11-.11.074-.295-.037-.405-.11-.111-.295-.074-.406.037a9.302 9.302 0 00-1.143 1.806l-.037.111c-.074.147 0 .331.147.405zm16.49 3.281a.29.29 0 01-.295-.295 9.675 9.675 0 00-.332-2.064c-.037-.148.037-.332.184-.369.148-.037.332.037.369.184.221.738.332 1.475.369 2.212.037.184-.111.332-.295.332zm-17.449.479c0 .184.148.295.295.295.185 0 .295-.148.258-.332v-.442c0-.553.074-1.106.185-1.659.037-.147-.074-.295-.221-.332-.148-.037-.296.074-.332.221a9.583 9.583 0 00-.185 1.77v.479zm16.637 3.539c-.037 0-.073 0-.11-.037-.148-.074-.222-.258-.148-.406a9.673 9.673 0 00.664-1.99c.037-.148.185-.258.332-.221.148.037.258.184.221.331-.147.738-.368 1.475-.7 2.138a.278.278 0 01-.259.185zm-15.42.553c.074.11.148.147.259.147.074 0 .11 0 .147-.074.148-.073.185-.258.111-.405a7.415 7.415 0 01-.849-1.917c-.036-.147-.22-.221-.368-.184-.148.037-.222.221-.185.368.185.738.517 1.401.885 2.065zm12.838 2.617c-.074 0-.184-.037-.221-.111-.111-.147-.074-.331.073-.405a8.184 8.184 0 001.513-1.475c.11-.11.295-.147.406-.036.11.11.147.294.037.405a9.432 9.432 0 01-1.623 1.585.254.254 0 00-.093.019.273.273 0 01-.092.018zm-9.813.405c.037.037.111.037.148.037a.401.401 0 00.258-.11c.074-.148.037-.332-.11-.406a7.285 7.285 0 01-1.66-1.327.29.29 0 00-.406 0 .29.29 0 000 .406c.516.516 1.143.995 1.77 1.4zm6.013 1.217c-.147 0-.258-.111-.295-.258-.037-.148.074-.332.258-.332.701-.11 1.365-.332 2.03-.59.147-.073.332 0 .405.148.074.147 0 .332-.147.405a8.708 8.708 0 01-2.177.627h-.074zm-1.955.074a7.87 7.87 0 01-2.25-.443c-.148-.037-.221-.221-.184-.368.037-.148.22-.222.369-.185a7.867 7.867 0 002.065.406c.148 0 .295.147.258.332.037.147-.11.258-.258.258zm-3.388-9.181l.553-.415 1.488.858-.083.687.571.33.483-4.203-.18-.104-3.398 2.52.566.327zm2.114-.122l-1.107-.639 1.345-1.047-.238 1.686zm2.21.915l-.738 1.277-.53-.306 1.908-3.306 1.207.697c.334.192.55.443.648.751.099.308.062.611-.11.908a1.09 1.09 0 01-.735.551c-.319.07-.643.009-.974-.182l-.676-.39zm.938-.086l-.666-.385.627-1.087.666.385c.184.106.3.238.346.396a.605.605 0 01-.075.488.595.595 0 01-.383.306c-.16.037-.332.003-.515-.103zm3.153-.257l-1.908 3.306-.531-.306 1.908-3.306.531.306zm25.731-38.105c.293-.216.44-.578.476-.939 0-.289-.073-.614-.33-.903l-1.575-2.348c-.403-.578-1.173-.795-1.795-.506a1.46 1.46 0 00-.33.181c-.019.018-.046.036-.073.054a.526.526 0 00-.074.054c-.586.47-1.282.686-1.942.614-1.062-.108-2.125.217-3.004.831-1.796 1.264-2.345 3.793-1.209 5.672a4.425 4.425 0 002.821 2.059 4.601 4.601 0 003.444-.614 4.29 4.29 0 001.759-2.24 2.77 2.77 0 011.319-1.553c.183-.109.366-.217.513-.362zm-9.563 2.565c-.44-.686-.586-1.481-.55-2.276a4.046 4.046 0 011.649-2.998c.806-.578 1.832-.867 2.821-.759.733.073 1.503-.144 2.162-.65.018-.018.046-.036.073-.054a.526.526 0 00.074-.054.785.785 0 01.293-.181c.513-.253 1.099-.072 1.429.397l1.575 2.349c.33.469.257 1.119-.183 1.481-.147.108-.293.216-.44.289a3.05 3.05 0 00-1.465 1.698c-.293.867-.88 1.589-1.649 2.095-.953.65-2.089.831-3.188.578-1.099-.253-2.015-.939-2.601-1.915z" fill="#6C6CB5"/><path fill-rule="evenodd" clip-rule="evenodd" d="M124.458 119.784c.184-.144.294-.325.294-.505.036-.145 0-.253-.11-.362l-2.089-3.142a.565.565 0 00-.403-.289c-.146 0-.33 0-.476.108l-.147.108c-.293.181-.366.578-.183.867l2.089 3.143a.563.563 0 00.403.289c.146 0 .329 0 .476-.108l.146-.109zm-2.857-3.395c-.074-.073-.074-.145-.074-.217a1.29 1.29 0 00.018-.037.476.476 0 01.165-.216l.147-.108c.073-.036.183-.073.256-.036.074 0 .184.072.22.144l2.089 3.143c.11.144.036.361-.11.47l-.147.108c-.073.036-.183.072-.256.036-.073 0-.183-.072-.22-.144l-2.088-3.143z" fill="#6C6CB5"/><path fill-rule="evenodd" clip-rule="evenodd" d="M125.485 118.159v-.072a.938.938 0 00-.11-.398l-1.429-2.131c-.183-.289-.587-.361-.88-.181l-.146.109c-.293.18-.367.578-.183.867l1.429 2.131c.183.289.586.361.879.181l.146-.109a.561.561 0 00.294-.397zm-2.492-1.915c-.073-.072-.073-.144-.073-.217a.27.27 0 01.183-.252l.147-.109c.146-.108.366-.036.476.109l1.429 2.131c.11.144.036.361-.11.47l-.147.108c-.146.108-.366.036-.476-.108l-1.429-2.132z" fill="#6C6CB5"/><path fill-rule="evenodd" clip-rule="evenodd" d="M125.301 117.689c.367-.217.55-.578.587-.975 0-.289-.074-.542-.184-.795a1.429 1.429 0 00-.842-.542c-.367-.072-.697 0-.99.181a.39.39 0 00-.034.041c-.028.035-.061.078-.112.103-.074.036-.074.109-.037.181l1.246 1.878c.037.037.11.073.183.037.037-.019.064-.037.092-.055a.811.811 0 01.091-.054zm.147-1.625c.293.469.146 1.083-.33 1.408l-1.099-1.661c0-.036.037-.036.037-.036.219-.145.512-.181.769-.145.256.072.476.217.623.434z" fill="#6C6CB5"/><path fill-rule="evenodd" clip-rule="evenodd" d="M157.276 133.914a.291.291 0 00.188.074l16.207-6.184c.037 0 .075-.037.075-.074v-.112l-2.964-7.823c-.038-.075-.113-.112-.188-.075l-16.206 6.184c-.038 0-.076.037-.076.075v.111l2.964 7.824zm.225-.298l-2.851-7.526 15.944-6.072 2.852 7.525-15.945 6.073z" fill="#6666C7"/><path fill-rule="evenodd" clip-rule="evenodd" d="M164.255 127.655h.037l.113-.074.037-.038 6.303-7.637c.038-.037.038-.111 0-.149 0-.037-.075-.037-.113-.037l-16.206 6.184c-.038 0-.075.075-.075.112.037.075.075.112.112.112l9.792 1.527zm0-.223l-9.342-1.453 15.457-5.886-6.04 7.301-.075.038z" fill="#6666C7"/><path d="M159.784 142.454c-2.529-5.988-7.193-10.851-12.986-13.675a26.523 26.523 0 00-2.764-1.201c-2.829-1.042-5.838-1.6-8.856-1.591a27.308 27.308 0 00-3.048.029c-6.088.276-11.988 3.114-16.66 6.958a31.051 31.051 0 00-2.191 2.119c-2.786 2.971-5.013 6.51-6.423 10.33a27.718 27.718 0 00-1.041 3.507 22.456 22.456 0 00-.644 5.843c.114 5.102 1.215 9.183 4.18 13.302l-2.846 7.267 8.088-1.483c1.11.947 1.764 1.353 3.045 2.104 7.193 4.188 15.677 4.976 23.545 3.13 3.293-.778 6.461-2.063 9.355-3.863a23.871 23.871 0 004.267-3.456c3.789-3.871 6.128-8.886 6.885-14.213.177-1.268.27-2.549.279-3.83.03-3.845-.677-7.698-2.185-11.277z" fill="#A3A3DB" opacity=".32"/><path d="M124.957 166.161a16.307 16.307 0 01-3.718-1.065l.045.018-.217-.096a18.087 18.087 0 01-1.271-.634 17.921 17.921 0 01-1.571-.98c-.131-.091-.257-.183-.386-.277-.058-.044-.116-.085-.172-.129-.018-.013-.132-.103-.025-.018a18.481 18.481 0 01-.788-.652 17.643 17.643 0 01-2.225-2.344c-.027-.034-.052-.069-.079-.101.148.181.047.059.016.02l-.156-.207a13.762 13.762 0 01-1.077-1.69 11.44 11.44 0 01-.277-.554c-.043-.093-.087-.187-.128-.281-.02-.045-.049-.094-.062-.141.053.203.011.023-.011-.029a12.613 12.613 0 01-.412-1.197 11.699 11.699 0 01-.286-1.225c-.019-.109-.031-.219-.048-.328.035.218.004.027-.001-.014l-.022-.165c-.031-.239-.058-.48-.085-.719-.024-.212-.071-.391-.226-.547a.783.783 0 00-.547-.227c-.38.017-.822.343-.773.774.098.86.195 1.721.414 2.561.205.783.489 1.541.83 2.273.599 1.288 1.431 2.456 2.36 3.525a18.102 18.102 0 006.228 4.646c1.361.611 2.782 1.063 4.257 1.299.212.034.404.034.596-.078a.783.783 0 00.355-.462c.085-.377-.112-.888-.538-.956zm21.793 6.807c.096.115.192.233.286.353l.128.161.062.08c.626.826 1.204 1.69 1.674 2.612.448-.225.875-.442 1.318-.747a16.973 16.973 0 00-1.352-2.22c-.768-1.056-1.622-2.043-2.495-3.013-.937-1.041-1.897-2.066-2.777-3.158-.115-.144-.365-.225-.543-.225a.781.781 0 00-.543.225c-.134.146-.233.338-.224.543.009.215.09.377.224.543.768.953 1.593 1.855 2.415 2.761.417.46.833.922 1.24 1.391.198.23.393.46.587.694z" fill="#fff"/><ellipse cx="142.731" cy="167.485" rx="2.405" ry="2.404" transform="rotate(-82.906 142.731 167.485)" fill="#EBFAFC"/><path d="M134.972 159.73h-2.038a.247.247 0 00-.245.245v4.066c0 .134.111.245.245.245h2.038a.247.247 0 00.245-.245v-4.066a.245.245 0 00-.245-.245z" fill="#fff"/><ellipse cx="125.278" cy="167.483" rx="2.404" ry="2.405" fill="#EBFAFC"/><path d="M134.972 159.73h-.849c.083 0 .154.111.154.245v4.066c0 .134-.069.245-.154.245h.849a.246.246 0 00.244-.245v-4.066a.245.245 0 00-.244-.245z" fill="#EBFAFC"/><path d="M143.171 167.836zm-.176-.301zm-.386-.586zm.2.291c.058.087.112.176.166.263a7.246 7.246 0 00-.166-.263zm-.638-.86zm-.236-.277zm.461.558zm.938 1.479zm.533 1.254c.035.094.067.19.1.286-.033-.096-.065-.19-.1-.286zm.236.79c.036.048.068.096.1.144-.032-.048-.064-.096-.1-.144zm.043.181zm-.082-.326l.1.145-.1-.145zm.153.654l.1.146-.1-.146zm-.465-1.616zm-.127-.315zm-.14-.314zm.488 1.266l.1.288-.1-.288zm-2.453-4.05l.124.127a3.67 3.67 0 00-.124-.127zm-2.454-1.833c.057.033.114.068.171.1l-.171-.1zm-.184-.099zm5.362 7.107c.036.049.064.098.1.147-.036-.049-.064-.098-.1-.147zm-5.004-6.912zm2.146 1.607l.116.114a2.073 2.073 0 00-.116-.114zm-3.827-2.386zm-.388-.132zm-.395-.118zm2.653 1.14zm-1.291-.66zm.377.171zm1.927 1.175c.049.038.098.075.145.113-.047-.038-.096-.075-.145-.113zm.174.136zm.467.391c.042.037.081.075.123.111a3.24 3.24 0 01-.123-.111zm-1.307-.996c.053.035.107.069.16.105l-.16-.105zm1.455 1.132l.131.122a7.298 7.298 0 00-.131-.122zm-1.288-1.021l.151.103c-.049-.035-.1-.069-.151-.103zm.346.242c.047.035.094.069.139.105-.047-.034-.092-.07-.139-.105zm-.174-.123l.15.109c-.048-.038-.099-.073-.15-.109zm.815.634l.135.12a1.927 1.927 0 00-.135-.12zm3.43 6.566zm-.52 4.465a12.13 12.13 0 01-1.18 2.558h.002a12.14 12.14 0 001.224-2.701l-.046.143zm.252-.797c-.031.098-.066.196-.1.292.036-.098.069-.194.1-.292zm.382-2.331c-.02.099-.04.199-.08.297.03-.098.06-.198.08-.297zm-2.567-6.95c-.036-.04-.072-.082-.11-.122l-.125-.13.125.13.11.122zm2.089 9.609zm.463-2.994zm-4.31 6.633c.268-.395.509-.804.72-1.225.422-.838.739-1.729.949-2.646.632-2.75.306-5.722-1.032-8.209-.219-.42-.472-.833-.76-1.233a9.175 9.175 0 00-.945-1.17 9.73 9.73 0 00-2.904-2.083 9.594 9.594 0 00-2.225-.2 8.005 8.005 0 00-.465-.003c-2.762.05-5.514 1.387-7.379 3.399-3.481 3.757-3.269 9.162-.597 13.176 4.79 1.172 9.814 1.177 14.638.194zm4.245-7.302c.03.1.06.198.08.297a1.659 1.659 0 00-.08-.297zm-.073 2.341zm.055-.334c-.03.1-.065.198-.1.297.039-.097.07-.197.1-.297zm-.102-3.003zm-.097 4.001zm.258-2.669c.02.099.02.199.02.297 0-.1-.01-.2-.02-.297zm-.011 1.338c-.028.1-.061.199-.1.297l.1-.297zm-.1-2.338c.039.097.072.197.1.295-.028-.1-.066-.198-.1-.295zm-.071 3.338zm.207-1.335z" fill="#fff"/><path d="M140.436 164.73c.03.02.05.04.08.06-.03-.02-.05-.04-.08-.06zm-1.168-.768c.01 0 .02.01.02.01s-.01 0-.02-.01zm.999.636l.1.09c-.034-.04-.067-.06-.1-.09zm3.944 10.389c-.01.035-.03.065-.04.1.02-.035.03-.07.04-.1zm.067-.331c-.01.035-.03.07-.04.1a.418.418 0 00.04-.1zm-3.691-9.819l.1.1c-.027-.025-.06-.067-.1-.1zm-3.393-1.786c.01 0 .02.01.03.01-.01 0-.02-.01-.03-.01zm3.877 2.194c.03.03.06.05.09.08-.03-.02-.06-.05-.09-.08zm-.171-.151c.032.035.069.064.1.1a1.179 1.179 0 00-.1-.1zm-1.493-1.055zm-.336-.186l.06.03c-.01 0-.03-.02-.06-.03zm.684.396a.7.7 0 00.1.08c-.039-.02-.069-.05-.1-.08zm-1.606-.843c.02.01.04.02.05.02-.02 0-.04-.01-.05-.02zm.732.345c.02.01.05.02.07.04-.02-.02-.05-.03-.07-.04zm5.081 12.22l-.06.1.06-.1zm.096-.326l-.06.1.06-.1zm.081-.328c-.02.035-.03.065-.05.1.02-.035.04-.065.05-.1zm-4.178-10.928c.01.01.03.02.04.03a.138.138 0 00-.04-.03zm.132.088a.65.65 0 00.1.08c-.034-.02-.067-.05-.1-.08zm-1.585-.911a.3.3 0 01.08.04c-.02-.01-.05-.02-.08-.04zm5.243 5.475c.03.031.05.068.07.1-.02-.032-.05-.064-.07-.1zm.669 2.941c0 .035.01.07.01.1 0-.035-.01-.065-.01-.1zm-.442-2.302l.06.1c-.02-.035-.04-.07-.06-.1zm-.109-.321c.02.032.05.069.07.1-.03-.031-.05-.068-.07-.1zm-.251-.634c.03.032.05.069.08.1a.475.475 0 01-.08-.1zm-.301-.619c.03.032.06.063.1.1a.63.63 0 01-.1-.1zm1.12 4.209c0 .035 0 .07.01.1-.01-.03-.01-.065-.01-.1zm-.963-3.901c.03.031.06.068.09.1-.03-.032-.06-.063-.09-.1zm.684 1.914c.02.035.03.065.05.1-.02-.035-.03-.065-.05-.1zm.076.328c.01.035.03.065.04.1-.02-.035-.03-.07-.04-.1zm.064.33l.03.1-.03-.1zm.092.663c.01.035.01.07.02.1-.01-.035-.01-.065-.02-.1zm-.313-1.647c.02.035.04.065.05.1-.02-.035-.04-.065-.05-.1zm.271 1.314c.01.035.019.07.029.1-.01-.03-.019-.065-.029-.1zm-.018 3.006l-.03.1.03-.1zm-2.685-8.531c.033.031.066.069.1.1a1.571 1.571 0 00-.1-.1zm-.142-.145c.03.03.07.06.1.1a.474.474 0 01-.1-.1zm.404.426c.034.035.067.065.1.1-.033-.035-.066-.065-.1-.1zm2.47 7.917l-.029.1c.01-.03.019-.065.029-.1zm-3.172-8.625zm3.205 8.292c-.01.035-.01.07-.02.1 0-.035.01-.07.02-.1zm-3.05-8.147l.1.1c-.028-.036-.064-.065-.1-.1zm1.792 2.294c.03.032.07.064.1.1-.03-.036-.07-.068-.1-.1zm1.293 5.183c0 .035 0 .07-.01.1.01-.035.01-.065.01-.1zm-1.469-5.483c.036.033.063.066.1.1a1.048 1.048 0 00-.1-.1zm-.189-.295l.1.1-.1-.1zm-.415-.578c.039.035.069.07.1.1-.031-.036-.069-.065-.1-.1zm-.226-.281l.1.1c-.035-.035-.064-.071-.1-.1zm.44.567c.031.033.061.067.1.1-.039-.033-.069-.067-.1-.1zm1.844 6.405c0 .035-.01.07-.01.1 0-.035 0-.065.01-.1z" fill="#EBFAFC"/><path d="M139.148 164.855c1.155 1.317 2.06 2.892 2.531 4.59a12.03 12.03 0 01.449 3.088c.007.489-.017.98-.067 1.467a12.48 12.48 0 01-.243 1.449c-.21.917-.527 1.808-.949 2.646-.211.421-.452.83-.72 1.225a33.197 33.197 0 002.509-.612c.494-.81.892-1.67 1.18-2.558.017-.049.031-.096.046-.145l.01-.036c.029-.096.058-.194.085-.29l.011-.036c.028-.098.053-.194.076-.292l.009-.036.069-.293c.002-.013.006-.024.007-.037.022-.097.042-.195.06-.295.002-.013.006-.025.007-.036.019-.098.035-.198.051-.295l.006-.037c.014-.099.029-.197.041-.297l.006-.036c.012-.099.023-.197.032-.297.288-2.78-.67-5.62-2.511-7.68a9.478 9.478 0 00-1.207-1.136c-1.238-1.005-2.687-1.729-4.243-2.037.525.235 1.031.507 1.475.867.46.339.889.723 1.28 1.149z" fill="#EBFAFC"/><path d="M114.559 151.985c-.123-.601-.63-.914-1.231-.724a1.15 1.15 0 00-.307.137 1.984 1.984 0 00-.518-1.445 2.334 2.334 0 00-.965-.643 2.237 2.237 0 00-.949-.134c-1.086.074-1.944.893-2.302 1.916-.315.993-.125 2.1.546 2.891.134.158.288.304.46.435a3.436 3.436 0 003.147.458c1.095-.38 2.384-1.599 2.119-2.891z" fill="#fff"/><path d="M114.55 151.761a.89.89 0 00-.558-.535c-.351-.074-.724-.04-1.006.185.324-.056.679.138.711.451.051.4-.063.739-.266 1.025a2.158 2.158 0 01-.228.27c-.156.18-.333.328-.525.451a2.534 2.534 0 01-.612.283c-.802.259-1.672.203-2.431-.247a2.704 2.704 0 01-1.264-2.669c-.505.927-.336 2.052.281 2.923.617.844 1.573 1.181 2.565 1.195.199 0 .398-.016.596-.048.787-.129 1.54-.517 2.06-1.123.121-.131.235-.272.333-.421.297-.445.469-.96.413-1.508a2.912 2.912 0 00-.069-.232zm36.48-8.84a2.673 2.673 0 00-2.722 2.609l-.056 2.608a2.672 2.672 0 002.606 2.724 2.672 2.672 0 002.723-2.608l.056-2.608a2.673 2.673 0 00-2.607-2.725z" fill="#EBFAFC"/><path d="M148.739 137.149c-3.706-4.054-9.048-5.378-14.296-5.374-5.243-.232-10.637.858-14.515 4.747-5.65 5.684-3.966 15.112 2.064 20.022 6.587 5.362 17.022 5.576 23.816.518 6.236-4.642 8.327-13.988 2.931-19.913z" fill="#fff"/><path d="M148.744 137.138c-2.485-2.86-6.145-4.519-9.858-5.019 4.247 1.382 8.338 4.146 10.159 8.361.192.436.355.882.491 1.337.269.911.423 1.86.438 2.834.02.373.023.748.011 1.123a14.08 14.08 0 01-1.805 6.434 13.16 13.16 0 01-.983 1.422 20.578 20.578 0 01-3.646 3.338c-2.774 2-6.132 3.407-9.555 3.748 4.223.054 8.458-1.158 11.807-3.65 5.069-3.773 7.398-10.651 5.201-16.275a11.952 11.952 0 00-1.342-2.492 12.104 12.104 0 00-.918-1.161z" fill="#EBFAFC"/><path d="M117.387 142.19a2.673 2.673 0 00-2.723 2.608l-.056 2.608a2.673 2.673 0 002.607 2.724 2.673 2.673 0 002.723-2.608l.056-2.608a2.676 2.676 0 00-2.607-2.724z" fill="#fff"/><path d="M138.708 143.045l-9.922.05c-2.981.015-5.409 2.469-5.394 5.452.014 2.984 2.467 5.413 5.449 5.398l9.922-.051c2.981-.014 5.409-2.468 5.394-5.452-.014-2.983-2.467-5.412-5.449-5.397z" fill="#280460"/><path d="M132.061 150.643v.004a1.725 1.725 0 103.45-.018v-.004l-3.45.018z" fill="#fff"/><path fill-rule="evenodd" clip-rule="evenodd" d="M126.606 148.703a2.043 2.043 0 114.088-.022 2.042 2.042 0 01-2.033 2.056 2.043 2.043 0 01-2.055-2.034zm.591-.005a1.453 1.453 0 101.446-1.462 1.453 1.453 0 00-1.446 1.462zm9.663-.047a2.043 2.043 0 114.088-.022 2.043 2.043 0 01-2.033 2.056 2.043 2.043 0 01-2.055-2.034zm.591-.004a1.453 1.453 0 102.907-.014 1.454 1.454 0 10-2.907.014z" fill="#83E8FF"/><path fill-rule="evenodd" clip-rule="evenodd" d="M126.371 148.703a2.043 2.043 0 012.033-2.056 2.043 2.043 0 012.055 2.034 2.042 2.042 0 01-2.033 2.056 2.042 2.042 0 01-2.055-2.034zm.59-.005a1.454 1.454 0 102.908-.014 1.454 1.454 0 00-2.908.014zm9.664-.047a2.044 2.044 0 112.055 2.034 2.042 2.042 0 01-2.055-2.034zm.59-.004a1.454 1.454 0 102.908-.014 1.454 1.454 0 00-2.908.014z" fill="#A122FC" opacity=".31"/><ellipse cx="128.334" cy="148.566" rx=".704" ry=".705" transform="rotate(-.292 128.334 148.566)" fill="#fff"/><ellipse cx="138.691" cy="148.512" rx=".704" ry=".705" transform="rotate(-.292 138.691 148.512)" fill="#fff"/><path d="M134.533 130.547l-.923-.029a1.563 1.563 0 00-1.606 1.505l-.029.924a1.563 1.563 0 001.505 1.606l.923.029a1.563 1.563 0 001.606-1.505l.029-.924a1.56 1.56 0 00-1.505-1.606z" fill="#fff"/><path d="M150.748 148.354c-.711 1.246-1.566 2.416-2.598 3.418a12.736 12.736 0 01-3.211 2.285c-.668.332-1.369.596-2.087.794-.348.094-.201.637.15.541 2.676-.73 5.051-2.4 6.761-4.57a17.523 17.523 0 001.472-2.186c.179-.313-.306-.598-.487-.282z" fill="#280460"/><path d="M151.835 144.32c-.661 0-1.2.541-1.2 1.201v2.74c0 .661.541 1.201 1.2 1.201.661 0 1.2-.541 1.2-1.201v-2.74a1.202 1.202 0 00-1.2-1.201z" fill="#280460"/><path fill-rule="evenodd" clip-rule="evenodd" d="M150.578 148.263a1.257 1.257 0 002.513 0v-2.741a1.26 1.26 0 00-1.257-1.257c-.691 0-1.256.564-1.256 1.257v2.741zm.112-2.742a1.145 1.145 0 012.289 0v2.74c0 .631-.515 1.145-1.145 1.145s-1.144-.513-1.144-1.145v-2.74z" fill="#280460"/><path d="M143.223 156.246l-1.833.494a.643.643 0 01-.784-.451l-.183-.681a.643.643 0 01.451-.784l1.834-.495a.643.643 0 01.783.451l.183.681a.641.641 0 01-.451.785z" fill="#280460"/><path fill-rule="evenodd" clip-rule="evenodd" d="M140.95 156.595a1.043 1.043 0 00.794.105l1.154-.31a1.047 1.047 0 10-.543-2.025l-1.154.31a1.048 1.048 0 00-.251 1.92zm1.432-2.121a.905.905 0 01.709.094.93.93 0 01.342 1.277.921.921 0 01-.566.437l-1.153.309a.933.933 0 01-1.146-.661.937.937 0 01.661-1.146l1.153-.31z" fill="#280460"/><path d="M51.975 40.789v6.324h2.842v-6.324h2.83l-4.251-7.459-4.252 7.459h2.83zm16.601-1.135V33.33h2.841v6.324h2.83l-4.25 7.459-4.252-7.46h2.83z" fill="#9A92EA"/><path fill-rule="evenodd" clip-rule="evenodd" d="M64.457 21.98c5.228 0 10.164 2.638 13.08 6.94 5.032 1.775 8.452 6.564 8.452 11.972 0 7.005-5.7 12.707-12.704 12.707h-22.2c-7.541 0-13.682-6.141-13.682-13.7 0-7.543 6.14-13.684 13.682-13.684.814 0 1.613.065 2.394.195a15.776 15.776 0 0110.978-4.43zM51.085 48.711h22.2a7.82 7.82 0 007.818-7.82c0-3.534-2.378-6.646-5.766-7.558l-.96-.245-.506-.863a11.006 11.006 0 00-9.414-5.36 10.927 10.927 0 00-8.307 3.829l-1.026 1.222-1.53-.457a8.56 8.56 0 00-2.51-.358c-4.853 0-8.795 3.942-8.795 8.797 0 4.854 3.942 8.813 8.796 8.813z" fill="#A8CFEF"/><defs><linearGradient id="paint0_linear" x1="262.907" y1="220.478" x2="262.905" y2="198.529" gradientUnits="userSpaceOnUse"><stop stop-color="#fff"/><stop offset=".098" stop-color="#FAFAFA"/><stop offset=".222" stop-color="#EAEAEA"/><stop offset=".36" stop-color="#D0D0D0"/><stop offset=".508" stop-color="#ABABAB"/><stop offset=".665" stop-color="#7D7D7D"/><stop offset=".829" stop-color="#444"/><stop offset=".996" stop-color="#020202"/><stop offset="1"/></linearGradient><linearGradient id="paint1_linear" x1="35.802" y1="75.829" x2="34.132" y2="206.318" gradientUnits="userSpaceOnUse"><stop stop-color="#fff"/><stop offset=".098" stop-color="#FAFAFA"/><stop offset=".222" stop-color="#EAEAEA"/><stop offset=".36" stop-color="#D0D0D0"/><stop offset=".508" stop-color="#ABABAB"/><stop offset=".665" stop-color="#7D7D7D"/><stop offset=".829" stop-color="#444"/><stop offset=".996" stop-color="#020202"/><stop offset="1"/></linearGradient><linearGradient id="paint2_linear" x1="169.863" y1="53.145" x2="172.418" y2="144.749" gradientUnits="userSpaceOnUse"><stop stop-color="#fff"/><stop offset=".098" stop-color="#FAFAFA"/><stop offset=".222" stop-color="#EAEAEA"/><stop offset=".36" stop-color="#D0D0D0"/><stop offset=".508" stop-color="#ABABAB"/><stop offset=".665" stop-color="#7D7D7D"/><stop offset=".829" stop-color="#444"/><stop offset=".996" stop-color="#020202"/><stop offset="1"/></linearGradient><linearGradient id="paint3_linear" x1="144.659" y1="157.627" x2="144.659" y2="187.061" gradientUnits="userSpaceOnUse"><stop stop-color="#fff"/><stop offset=".098" stop-color="#FAFAFA"/><stop offset=".222" stop-color="#EAEAEA"/><stop offset=".36" stop-color="#D0D0D0"/><stop offset=".508" stop-color="#ABABAB"/><stop offset=".665" stop-color="#7D7D7D"/><stop offset=".829" stop-color="#444"/><stop offset=".996" stop-color="#020202"/><stop offset="1"/></linearGradient><linearGradient id="paint4_linear" x1="52.381" y1="142.836" x2="63.197" y2="148.517" gradientUnits="userSpaceOnUse"><stop stop-color="#fff"/><stop offset=".098" stop-color="#FAFAFA"/><stop offset=".222" stop-color="#EAEAEA"/><stop offset=".36" stop-color="#D0D0D0"/><stop offset=".508" stop-color="#ABABAB"/><stop offset=".665" stop-color="#7D7D7D"/><stop offset=".829" stop-color="#444"/><stop offset=".996" stop-color="#020202"/><stop offset="1"/></linearGradient><linearGradient id="paint5_linear" x1="33.534" y1="101.78" x2="49.787" y2="152.841" gradientUnits="userSpaceOnUse"><stop stop-color="#fff"/><stop offset=".098" stop-color="#FAFAFA"/><stop offset=".222" stop-color="#EAEAEA"/><stop offset=".36" stop-color="#D0D0D0"/><stop offset=".508" stop-color="#ABABAB"/><stop offset=".665" stop-color="#7D7D7D"/><stop offset=".829" stop-color="#444"/><stop offset=".996" stop-color="#020202"/><stop offset="1"/></linearGradient><linearGradient id="paint6_linear" x1="36.182" y1="143.211" x2="34.551" y2="153.61" gradientUnits="userSpaceOnUse"><stop stop-color="#fff"/><stop offset=".098" stop-color="#FAFAFA"/><stop offset=".222" stop-color="#EAEAEA"/><stop offset=".36" stop-color="#D0D0D0"/><stop offset=".508" stop-color="#ABABAB"/><stop offset=".665" stop-color="#7D7D7D"/><stop offset=".829" stop-color="#444"/><stop offset=".996" stop-color="#020202"/><stop offset="1"/></linearGradient><linearGradient id="paint7_linear" x1="40.463" y1="127.066" x2="28.04" y2="140.373" gradientUnits="userSpaceOnUse"><stop stop-color="#fff"/><stop offset=".098" stop-color="#FAFAFA"/><stop offset=".222" stop-color="#EAEAEA"/><stop offset=".36" stop-color="#D0D0D0"/><stop offset=".508" stop-color="#ABABAB"/><stop offset=".665" stop-color="#7D7D7D"/><stop offset=".829" stop-color="#444"/><stop offset=".996" stop-color="#020202"/><stop offset="1"/></linearGradient><linearGradient id="paint8_linear" x1="39.592" y1="149.522" x2="40.627" y2="161.625" gradientUnits="userSpaceOnUse"><stop stop-color="#fff"/><stop offset=".098" stop-color="#FAFAFA"/><stop offset=".222" stop-color="#EAEAEA"/><stop offset=".36" stop-color="#D0D0D0"/><stop offset=".508" stop-color="#ABABAB"/><stop offset=".665" stop-color="#7D7D7D"/><stop offset=".829" stop-color="#444"/><stop offset=".996" stop-color="#020202"/><stop offset="1"/></linearGradient><linearGradient id="paint9_linear" x1="245.229" y1="169.325" x2="245.192" y2="178.341" gradientUnits="userSpaceOnUse"><stop stop-color="#fff"/><stop offset=".098" stop-color="#FAFAFA"/><stop offset=".222" stop-color="#EAEAEA"/><stop offset=".36" stop-color="#D0D0D0"/><stop offset=".508" stop-color="#ABABAB"/><stop offset=".665" stop-color="#7D7D7D"/><stop offset=".829" stop-color="#444"/><stop offset=".996" stop-color="#020202"/><stop offset="1"/></linearGradient><linearGradient id="paint10_linear" x1="260.675" y1="167.908" x2="268.668" y2="167.908" gradientUnits="userSpaceOnUse"><stop stop-color="#fff"/><stop offset=".098" stop-color="#FAFAFA"/><stop offset=".222" stop-color="#EAEAEA"/><stop offset=".36" stop-color="#D0D0D0"/><stop offset=".508" stop-color="#ABABAB"/><stop offset=".665" stop-color="#7D7D7D"/><stop offset=".829" stop-color="#444"/><stop offset=".996" stop-color="#020202"/><stop offset="1"/></linearGradient><linearGradient id="paint11_linear" x1="249.987" y1="161.92" x2="265.086" y2="168.566" gradientUnits="userSpaceOnUse"><stop stop-color="#fff"/><stop offset=".098" stop-color="#FAFAFA"/><stop offset=".222" stop-color="#EAEAEA"/><stop offset=".36" stop-color="#D0D0D0"/><stop offset=".508" stop-color="#ABABAB"/><stop offset=".665" stop-color="#7D7D7D"/><stop offset=".829" stop-color="#444"/><stop offset=".996" stop-color="#020202"/><stop offset="1"/></linearGradient><linearGradient id="paint12_linear" x1="242.377" y1="173.273" x2="242.444" y2="181.974" gradientUnits="userSpaceOnUse"><stop stop-color="#fff"/><stop offset=".098" stop-color="#FAFAFA"/><stop offset=".222" stop-color="#EAEAEA"/><stop offset=".36" stop-color="#D0D0D0"/><stop offset=".508" stop-color="#ABABAB"/><stop offset=".665" stop-color="#7D7D7D"/><stop offset=".829" stop-color="#444"/><stop offset=".996" stop-color="#020202"/><stop offset="1"/></linearGradient></defs></svg>