<svg width="32" height="32" fill="none" xmlns="http://www.w3.org/2000/svg"><path fill-rule="evenodd" clip-rule="evenodd" d="M25.163 18.529c.482-1.453.482-3.003.096-4.456 0 0-.096 0-.096-.097C23.812 9.811 20.338 7.1 16.285 7.1s-7.527 2.615-8.878 6.78a7.34 7.34 0 000 4.553c1.351 4.165 4.825 6.877 8.878 6.877s7.527-2.615 8.878-6.78zm-8.878 5.715c-2.895 0-6.465-1.647-7.816-6.103-.483-1.259-.386-2.615 0-3.971 1.447-4.456 5.018-6.006 7.912-6.006 2.895 0 6.466 1.647 7.817 6.103a6.957 6.957 0 010 3.971c-1.448 4.456-5.018 6.006-7.913 6.006zm5.404-9.59c.579 1.938.096 4.069-1.448 5.618-2.22 2.228-5.79 2.131-7.912 0-2.22-2.227-2.123-5.811 0-7.942 2.22-2.228 5.79-2.132 7.912 0a5.892 5.892 0 011.448 2.324zM13.1 19.497a4.522 4.522 0 01-1.158-1.937c-.483-1.55-.097-3.293 1.158-4.456 1.736-1.84 4.632-1.743 6.368 0 1.834 1.744 1.737 4.65 0 6.393-1.736 1.84-4.632 1.744-6.368 0z" fill="#6C6CB5"/><path fill-rule="evenodd" clip-rule="evenodd" d="M31.085 14.297a.337.337 0 01-.036-.127c-.097-.484-.483-.775-.965-.581l-2.702-.388c-.037-.037-.074-.06-.105-.08-.051-.03-.088-.054-.088-.114-.193-.58-.483-1.162-.772-1.743-.097-.097-.097-.194 0-.29l1.64-2.132c.386-.387.29-1.162-.096-1.55l-2.605-2.615c-.387-.387-1.062-.484-1.544-.097l-2.123 1.647h-.29c-.579-.29-1.158-.581-1.737-.775-.096 0-.193-.097-.193-.194l-.29-2.712c0-.581-.578-1.065-1.157-1.065h-3.667c-.58 0-1.062.484-1.158 1.065l-.386 2.712c-.037.037-.06.074-.08.106-.03.051-.053.088-.113.088-.58.194-1.158.484-1.737.775-.097.097-.193.097-.29 0L8.47 4.58c-.386-.387-1.158-.29-1.544.097L4.319 7.293c-.386.387-.482 1.065-.096 1.55l1.64 2.13v.291c-.29.581-.579 1.162-.772 1.744 0 .096-.096.193-.193.193l-2.702.29c-.579 0-1.061.582-1.061 1.163v3.681c0 .581.482 1.066 1.061 1.162l2.702.291c.037.037.074.06.105.08.051.031.088.054.088.114.193.581.483 1.162.772 1.743.097.097.097.194 0 .291l-1.64 2.131c-.386.387-.29 1.162.096 1.55l2.606 2.615c.386.388 1.061.485 1.544.097l2.123-1.647h.289l.463.204c.49.218.95.423 1.467.571l.29 2.81c0 .58.578 1.065 1.157 1.065h3.667c.58 0 1.062-.485 1.158-1.066l.386-2.712c.037-.037.06-.074.08-.105.03-.052.054-.089.113-.089.58-.193 1.158-.484 1.737-.774.097-.097.193-.097.29 0l2.123 1.646c.386.388 1.157.29 1.543-.097l2.606-2.615c.386-.388.482-1.066.096-1.55l-1.64-2.13v-.292c.29-.58.579-1.162.772-1.743 0-.097.096-.194.193-.194l2.702-.29c.579 0 1.061-.582 1.061-1.163v-3.68a.636.636 0 00-.06-.26zm-5.537 6.75c-.192.29-.192.678-.096.969 0 .194.096.387.193.484l1.64 2.131v.194L24.68 27.44h-.193l-2.123-1.646c-.482-.388-.965-.388-1.447-.194-.58.29-1.062.484-1.64.678-.483.097-.773.581-.87 1.066l-.385 2.712c0 .048 0 .072-.012.084-.012.013-.037.013-.085.013h-3.667s-.096 0-.096-.097l-.386-3.584-.386-.097c-.676-.194-1.351-.388-2.027-.775-.482-.29-1.061-.194-1.447.097l-2.123 1.646H7.6l-2.605-2.615v-.194l1.64-2.13c.386-.485.386-.97.193-1.453a11.844 11.844 0 01-.675-1.647c-.097-.485-.58-.775-1.062-.872l-2.702-.29c-.048 0-.072 0-.084-.013-.012-.012-.012-.036-.012-.085v-3.68s0-.097.096-.097l2.702-.29c.483 0 .869-.388 1.062-.873.193-.58.386-1.162.675-1.646.29-.485.193-1.066-.096-1.453l-1.64-2.131c-.097-.097 0-.194 0-.194l2.605-2.615h.193l2.122 1.646c.483.388.965.388 1.448.194.579-.29 1.061-.484 1.64-.678.483-.097.772-.581.869-1.066l.386-2.712c0-.048 0-.072.012-.085.012-.012.036-.012.084-.012h3.667s.097 0 .097.097l.29 2.712c0 .485.385.872.868 1.066.579.194 1.158.387 1.64.678.483.29 1.062.194 1.448-.097l2.123-1.647h.192l2.606 2.616v.194l-1.64 2.13c-.387.485-.387.97-.194 1.454.29.58.483 1.065.676 1.646.096.485.579.775 1.061.872l2.702.29c.049 0 .073 0 .085.013.012.012.012.036.012.085v3.68s0 .097-.097.097l-2.701.29c-.483 0-.869.388-1.062.873-.193.58-.386 1.162-.675 1.646z" fill="#6C6CB5"/></svg>