<svg width="1920" height="888" fill="none" xmlns="http://www.w3.org/2000/svg"><path opacity=".52" fill-rule="evenodd" clip-rule="evenodd" d="M-32-100l1971.18-30s352.46 607.737-148.75 854.503C1289.21 971.268-22.74 844.75-22.74 844.75L-32-100z" fill="#A2A2DA"/><path fill-rule="evenodd" clip-rule="evenodd" d="M-.3-98h1949.48s352.46 557.737-148.75 804.503C1299.21 953.268-.3 847.024-.3 847.024V-98z" fill="#fff"/><path fill-rule="evenodd" clip-rule="evenodd" d="M-.3-98h1949.48s352.46 557.737-148.75 804.503C1299.21 953.268-.3 847.024-.3 847.024V-98z" fill="url(#paint0_linear)" fill-opacity=".2"/><path d="M780.972 420.245l-.483.129.115.432.443-.067-.075-.494zm59.026 49.916l-.5-.003v.003h.5zm-78.053 42.483l.271-.42-.379-.245-.282.353.39.312zm-82.534 103.21l-.391-.312-.273.341.302.316.362-.345zm-21.903 83.193l.105.489.021-.005.021-.006-.147-.478zm-7.526 1.604l.071.495.017-.002.016-.004-.104-.489zm-39.491-11.064l.318-.385-.33-.273-.32.284.332.374zm-140.8 124.663l-.331-.375-.334.296.255.365.41-.286zm-47.44 2.28l-.407-.291-.017.024-.014.025.438.242zm3.805-5.321l-.371-.335-.019.021-.017.023.407.291zm11.67-7.517l-.097-.49-.031.006-.03.01.158.474zm6.427-1.267l-.055-.496-.021.002-.021.004.097.49zm.724-.097l.073.495.024-.004.025-.006-.122-.485zm.001 0l-.058-.497-.032.004-.031.008.121.485zm.003-.001l.059.497.013-.002-.072-.495zm5.022.098l-.076.495.451.069.11-.442-.485-.122zm24.101-96.368l.485.121.113-.45-.441-.146-.157.475zm-20.549-41.301l.474.158.141-.42-.401-.19-.214.452zm-114.331-54.054l.214-.452-.375-.177-.244.335.405.294zm-58.772-12.838l.491-.094-.077-.406h-.414v.5zm-118.306 0v-.5h-.442l-.054.439.496.061zm-100.124 2.111l.494-.081-.069-.411-.416-.008-.009.5zm-206.929-3.716l.009-.5-.443-.008-.061.44.495.068zm-57.25-25.338l.384.321.285-.34-.305-.324-.364.343zm-105.198-111.74l.364-.343-.282-.3-.348.22.266.423zm-24.114-93.265l-.04.498.04-.498zm1.451.106l-.029.499.461.027.063-.457-.495-.069zm20.296-146.2l.495.069.061-.439-.428-.113-.128.483zm32.811-52.956l-.376.329.292.333.366-.25-.282-.412zm128.876-88.008l.282.413.34-.232-.163-.378-.459.198zm94.712-35.557l-.476.155.134.41.426-.072-.084-.493zm184.772-31.588l.085.493.415-.071v-.422h-.5zm-.084-1.013l-.496.062.496-.063zm0-.002l.496-.062-.496.062zm65.069 2.482l.491.092.003-.014.001-.014-.495-.064zm-.001.001l-.491-.091-.003.014-.002.015.496.062zm-.002.016l.496.064.001-.002-.497-.062zm-.121.965l-.496-.058-.05.425.412.115.134-.482zm237.541 66.301l-.134.482.43.12.168-.414-.464-.188zm61.901 20.186l-.486-.114-.101.428.412.154.175-.468zm102.492 38.345l-.175.468.41.153.206-.385-.441-.236zm76.785 62.838l-.317-.387-.367.301.28.381.404-.295zm55.643 75.929l-.403.296.26.355.385-.213-.242-.438zm28.075 58.7l-.185-.465-.412.165.114.429.483-.129zm-7.659 1.894l-.082-.493.082.493zm-23.714-6.033l.3-.4-.357-.267-.306.324.363.343zm-89.976 95.102l-.364-.344-.306.324.286.341.384-.321zm7.61 21.537l-.492-.089.492.089zm-.084.676h-.5v.425l.42.068.08-.493zm94.374 15.287l-.08.494.523.085.054-.528-.497-.051zm34.333-42.821l.158.474.446-.148-.121-.455-.483.129zm-22.325-83.784l.483-.129-.117-.439-.449.075.083.493zM516.032 666.192l-.482.133.119.428.439-.067-.076-.494zm76.531-11.656l.075.495.453-.069-.029-.457-.499.031zm-114.331-11.655l-.475.155.138.422.435-.087-.098-.49zm-47.948-146.96l-.167-.471-.459.162.151.464.475-.155zm17.674-10.726l.334-.372-.34-.306-.335.312.341.366zm152.808 137.416l.416.276.239-.359-.321-.289-.334.372zm-8.457 27.871h-.5v.015l.001.015.499-.03zm.17 2.728l-.499.031.499-.031zM137.692 345.414l-.153-.476-.441.141.108.451.486-.116zm114.162-36.656l.454-.209-.185-.403-.422.136.153.476zm-113.993 59.713l-.487-.113-.108.465.459.129.136-.481zm227.562 64.021l-.135.481.459.129.151-.452-.475-.158zm12.262-19.933l.356.351.324-.328-.301-.35-.379.327zm-77.883-90.287l.378-.327-.293-.339-.369.254.284.412zM-143.4 302.001l.391-.312-.276-.346-.377.233.262.425zm-146.127 90.119l-.262-.426-.406.251.231.417.437-.242zm173.911-77.89l-.063-.496.063.496zm1.391-.151l.487-.114-.098-.415-.425.03.036.499zm29.428 125.338l.17.47.419-.151-.102-.433-.487.114zm-19.957 20.946l-.105.489.446.096.136-.435-.477-.15zm-178.853-38.429l-.496-.067-.063.459.454.097.105-.489zm.338-5.743l-.5-.005v.005h.5zm176.57-103.801l-.171-.47-.417.152.101.432.487-.114zm17.928-15.963l.171-.47-.417-.152-.2.396.446.226zm11.416 141.301l-.487.114.097.415.425-.03-.035-.499zm1.39-.151l.063.496.008-.001-.07-.495zm0 0l-.062-.496-.008.001.07.495zm26.77 11.046l-.376.33.292.333.366-.25-.282-.413zm94.627-64.696l.282.413.395-.27-.252-.406-.425.263zm-5.581-40.456l.48.139.13-.448-.438-.161-.172.47zm-126-54.054l-.487-.118-.105.435.42.153.171-.47zm128.706 46.875l-.171.47.432.157.193-.417-.454-.21zm-131.582-69.679l-.284-.412-.363.25.203.392.444-.23zm142.914-98.396l.375-.33-.293-.334-.366.252.284.412zm22.07 10.895l.5-.022-.02-.447-.446-.03-.033.499zm5.751 128.126l.07.495.45-.063-.02-.455-.5.023zm1.86-128.379l-.08-.494-.439.072.02.444.5-.022zm5.751 127.956l-.5.023.022.47.47.007.008-.5zm12.854-137.922l.295-.404-.361-.264-.302.329.368.339zm150.947 110.304l.434.248.222-.388-.361-.264-.295.404zm-3.721 22.213l.153.476.412-.132-.072-.426-.493.082zm-114.077 36.571l-.461.193.177.423.437-.14-.153-.476zm325.995-73.058l.428.259.23-.38-.35-.273-.308.394zm-121.096-94.595l.308-.394-.361-.282-.312.335.365.341zm116.445 109.714l.033.499.446-.029.021-.447-.5-.023zm-143.082 9.29l-.492.092.081.436.443-.029-.032-.499zm-24.778-25.844l-.496-.061-.055.448.44.1.111-.487zm9.387-77.281l.05-.498-.487-.048-.06.486.497.06zm-7.442-1.351l.497.057.05-.433-.422-.109-.125.485zm-8.964 77.787v.5h.446l.051-.443-.497-.057zm-28.498-118.75l.493-.082-.072-.435-.44.017.019.5zm-142.575 5.489l-.019-.499-.449.017-.031.447.499.035zm-4.059 13.345l-.436-.245-.218.387.359.262.295-.404zm150.947 110.389l-.295.404.36.263.302-.328-.367-.339zm56.404 23.902l-.032-.499-.443.029-.024.443.499.027zm-8.456 20.27l-.368-.339-.302.329.292.337.378-.327zm151.539-29.56l.492-.089-.079-.439-.445.029.032.499zm15.391 21.959l.456.205.182-.407-.383-.228-.255.43zm-40.929 91.301l-.177.468.44.166.193-.429-.456-.205zm-47.948 6.588l-.378.327.302.35.373-.275-.297-.402zm95.896-94.764l.154-.476-.427-.138-.184.41.457.204zm-41.014 91.47l-.456-.205-.186.415.395.225.247-.435zm25.538 40.118l-.498.037.034.463h.464v-.5zm115.938 0v.5h.444l.053-.441-.497-.059zm9.979-19.932l.341.365.325-.305-.264-.357-.402.297zm-84.649-114.443l.402-.297-.264-.357-.386.22.248.434zM453.201 479.62l-.392-.31-.291.368.349.314.334-.372zm10.74-27.534v-.5h-.465l-.034.464.499.036zm141.56 164.612l-.334.372.372.334.334-.371-.372-.335zm25.877-15.287l.114.487.449-.105-.069-.456-.494.074zm-18.181-120.524l.494-.075-.064-.425h-.43v.5zm-33.319-28.801l.497-.059-.053-.441h-.444v.5zm16.321-32.094l-.402.297.264.357.386-.22-.248-.434zm-84.564-114.443l-.344-.364-.321.305.263.356.402-.297zm9.725-17.146l.048-.497-.443-.043-.094.435.489.105zM714.167 306.9l.499-.011-.009-.444-.443-.043-.047.498zm7.61 20.101l.364.344.304-.322-.283-.341-.385.319zm-89.976 95.187l-.294.404.355.258.302-.319-.363-.343zm-24.016-259.461h.5v-.002l-.5.002zm60.97 43.497l.404-.296-.268-.364-.389.229.253.431zm55.728 76.014l.341.366.326-.303-.263-.359-.404.296zm-9.725 16.892l-.047.497.441.043.095-.434-.489-.106zm-192.975-18.497l-.5.015.013.441.439.042.048-.498zm-4.567-15.456l-.303-.398-.354.27.227.383.43-.255zm88.962-67.906l.366-.341-.309-.331-.36.275.303.397zm-113.063-89.358l.176-.469-.416-.155-.204.394.444.23zm102.154 38.175l.471.168.165-.464-.461-.172-.175.468zm-123.041-21.537l-.125-.484-.429.111.058.439.496-.066zm16.49 124.663l-.496.065.058.435h.438v-.5zm23.847 9.882l-.358.348.309.318.353-.269-.304-.397zm88.708-67.737l.304.397.376-.287-.267-.392-.413.282zm-137.041-65.711l.037.498h.007l-.044-.498zm.013-.001l.044.498.007-.001-.051-.497zm.026-.004l.078.494h.003l-.081-.494zm.007-.001l.081.494.003-.001-.084-.493zm.128-.035l-.158-.474.158.474zm.211-.042l.496-.066-.057-.434h-.439v.5zm16.49 124.662l.12.486.435-.107-.059-.444-.496.065zm-15.137 8.531l-.307.394.352.275.312-.319-.357-.35zm-120.927-94.426l-.411-.284-.267.388.371.29.307-.394zm8.119-37.078l-.133-.482-.428.118.066.439.495-.075zm80.674-22.213l.464-.185-.166-.416-.431.119.133.482zM194.519 21.679l.135-.481-.436-.122-.164.42.465.183zM431.976 87.98l.493.078.07-.44-.429-.12-.134.482zM191.728 27.085l-.412-.283-.25.366.332.292.33-.375zm79.322 69.763l-.331.376.32.281.329-.27-.318-.387zm80.251 23.058l-.474.158.149.449.457-.125-.132-.482zm80.675-21.96l.131.483.432-.118-.07-.443-.493.078zm-245.068-64.78l.33-.376-.344-.302-.331.316.345.362zm78.645 69.088l.374.332.334-.376-.378-.332-.33.376zm-12.854 33.953l.02.499.48-.018v-.481h-.5zm-142.152 5.49l-.494.078.069.438.444-.017-.019-.499zM99.046 121.68l-.421-.27-.239.372.34.282.32-.384zm52.43-81.842l.199-.459-.391-.17-.229.36.421.27zm-202.785 10.98l-.085-.493-.5.086.093.5.492-.093zm-2.876 27.027l-.465-.182-.168.429.414.202.22-.449zm105.03 51.267l-.22.449.399.195.24-.373-.42-.271zm41.69-11.655l-.22.449.4.196.24-.376-.42-.269zm52.26-81.588l.421.27.252-.394-.375-.278-.298.401zm-11.754-16.64l.479-.143-.128-.424-.436.075.085.493zM47.546 135.954l.472.166.147-.42-.4-.195-.219.449zm1.945 26.014l.284.412.364-.251-.204-.391-.444.23zm-142.913 98.396l-.374.332.294.33.363-.251-.283-.411zm-18.266-10.558l-.499-.036-.032.441.434.086.097-.491zm10.063-140.203v-.5h-.466l-.033.464.499.036zm44.058-24.831l.219-.45-.413-.2-.235.393.429.257zm-51.753 24.155l.498.036.033-.456-.452-.073-.079.493zm-34.756-23.142l.423-.266-.277-.44-.428.293.282.413zm24.692 163.514l.024.5.443-.021.032-.443-.499-.036zm-25.623 14.358l-.227.446.396.202.247-.37-.416-.278zm-125.578-64.02l-.47-.168-.148.414.391.199.227-.445zm-1.691-26.351l-.282-.413-.366.249.204.394.444-.23zm-29.513 47.635v-.5h-.435l-.06.431.495.069zm.356.048l.11-.487-.11.487zm-20.651 146.321l-.495-.069-.063.452.444.104.114-.487zm14.122 5.658l.265-.424-.005-.003-.26.427zm2.03 1.267h.5v-.277l-.236-.147-.264.424zm1.943 1.498l-.3.401.003.001.297-.402zm.001.001l.299-.401h-.001l-.298.401zm.003.002l.302-.398-.003-.003-.299.401zm.003.003l-.302.398.003.002.299-.4zm2.447 1.875l-.329.376.008.008.009.006.312-.39zm7.864 8.192l-.399.301.273.364.389-.239-.263-.426zm146.212-90.118l.262.425.378-.232-.186-.402-.454.209zm-1.015-25.085l.467.178.161-.419-.401-.204-.227.445zm-125.578-64.02l.227-.446-.395-.201-.247.368.415.279zm115.261 357.94l-.278.415.37.249.289-.34-.381-.324zm61.394-72.128l.38.324.291-.341-.307-.326-.364.343zm-8.723-23.682l-.493-.081.493.081zm.098-.643l.496.062.057-.454-.448-.097-.105.489zm-178.938-38.43l.105-.489-.462-.099-.125.455.482.133zm-15.729 24.916l-.329-.377-.391.341.355.378.365-.342zM-196.168 565.6l-.364.343.306.325.358-.268-.3-.4zm257.837 26.605l-.01.5.51.009v-.509h-.5zm-206.084-3.716l-.497.052.046.44.442.008.009-.5zm-8.541-18.919l-.381-.324-.288.34.304.325.365-.341zm61.31-72.213l.278-.415-.37-.249-.29.34.382.324zm43.804-7.348l.256-.429-.379-.227-.271.348.394.308zm119.658 71.537l.397.304.341-.445-.481-.288-.257.429zm-115.6-78.21l-.454-.208-.187.407.385.23.257-.429zm120.59 72.213l-.257.429.332.199.276-.272-.352-.356zm25.876-13.513l.092.492.456-.085-.051-.462-.497.055zM87.883 407.914l.497-.055-.048-.44-.443-.005-.006.5zM50 390.177l.379-.326-.292-.339-.37.252.283.413zm-94.797 64.781l-.282-.413-.374.256.218.397.438-.24zm325.15 135.136v.5h.476l.023-.477-.499-.023zm-117.545 0l-.499.015.015.485h.484v-.5zm124.648-18.75l.392.31.269-.34-.298-.315-.363.345zm-166.507-175.17l.362-.345-.324-.341-.36.304.322.382zm-25.285 11.233l-.07-.495-.48.068.053.482.497-.055zm14.799 133.784l-.497.055.049.445h.448v-.5zm.888-.042l-.035-.499h-.001l.036.499zm.271-.019l.032.499-.032-.499zm.245-.013l.024.499-.024-.499zm.115-.005l.018.499-.018-.499zm.139-.004l-.007-.5h-.002l.009.5zm.05-.001l-.004-.5h-.004l.008.5zm220.02 24.324l-.296.403.424.311.289-.438-.417-.276zm-39.238.507l-.363.345.311.326.357-.275-.305-.396zm-166.507-175.17l-.375-.331-.304.343.316.333.363-.345zm9.217-14.949l.136-.481-.435-.122-.166.42.465.183zm228.07 64.105l.492.092.084-.449-.441-.124-.135.481zm19.281 48.48l.417.275.257-.389-.371-.284-.303.398zm73.994 169.173l-.214.452.399.189.236-.373-.421-.268zm-113.824-53.801l-.463-.19-.179.439.428.203.214-.452zm127.692 41.47l.221.448.389-.191-.135-.412-.475.155zm-48.117-147.383l.475-.155-.137-.422-.436.087.098.49zm-33.487-5.236l.237-.44-.403-.218-.252.383.418.275zm-51.5 78.125l-.418-.275-.206.314.243.285.381-.324zm143.421 136.656l.071-.495-.447-.064-.109.438.485.121zm27.568-10.473l.367.339.021-.022.018-.025-.406-.292zm4.482-6.25l.406.292.017-.024.014-.025-.437-.243zm4.187-16.335l.496-.055-.496.055zm-.025-.227l-.497.048.497-.048zm-.019-.33l-.075-.494-.425.065v.429h.5zm76.446-11.655l.487-.115-.106-.449-.456.069.075.495zm12.009 22.635l.331.374.379-.335-.34-.375-.37.336zM465.463 809.098l-.326.379.331.285.326-.29-.331-.374zm-8.372-5.068l-.485-.121-.108.432.416.157.177-.468zm221.22-153.463l.5.002v-.002h-.5zm-4.397-39.95l-.305.396.389.3.306-.383-.39-.313zm-34.841-10.473l-.494.075.069.455.459-.031-.034-.499zM620.892 479.62l-.133-.482-.427.118.066.439.494-.075zm22.663-22.382l.08-.493-.438-.071-.122.426.48.138zm95.558 15.456l.499-.027-.022-.402-.397-.064-.08.493zm16.997 35.136l.391.312.297-.371-.356-.315-.332.374zm33.488-88.845c-2.997 0-5.9.342-8.701.766l.15.988c2.781-.421 5.628-.754 8.551-.754v-1zm50.9 51.179c.171-28.32-22.718-51.179-50.9-51.179v1c27.63 0 50.068 22.411 49.9 50.173l1 .006zm-51.154 51.088c28.182 0 51.154-22.943 51.154-51.091h-1c0 27.595-22.523 50.091-50.154 50.091v1zm-27.67-8.188c7.941 5.117 17.421 8.188 27.67 8.188v-1c-10.046 0-19.339-3.01-27.128-8.028l-.542.84zm-81.873 103.102l82.535-103.21-.781-.624-82.535 103.21.781.624zm14.063 34.485c0-13.648-5.381-26.016-14.092-35.142l-.723.69c8.541 8.948 13.815 21.073 13.815 34.452h1zm-36.209 48.874c20.921-6.397 36.209-25.843 36.209-48.874h-1c0 22.577-14.987 41.645-35.502 47.918l.293.956zm-7.569 1.615l7.527-1.604-.209-.978-7.526 1.604.208.978zm-7.376.603c2.485 0 4.963-.257 7.343-.597l-.142-.99c-2.355.337-4.782.587-7.201.587v1zm-32.538-11.77c8.88 7.333 20.153 11.77 32.538 11.77v-1c-12.14 0-23.191-4.348-31.901-11.541l-.637.771zM470.023 814.624l140.799-124.662-.663-.749L469.36 813.875l.663.749zm5.073 15.42c0-5.93-1.807-11.52-4.995-16.081l-.82.573c3.07 4.392 4.815 9.782 4.815 15.508h1zM446.605 858.5c15.751 0 28.491-12.723 28.491-28.456h-1c0 15.179-12.291 27.456-27.491 27.456v1zm-28.491-28.456c0 15.733 12.74 28.456 28.491 28.456v-1c-15.2 0-27.491-12.277-27.491-27.456h-1zm3.699-13.756c-2.232 4.031-3.699 8.674-3.699 13.756h1c0-4.885 1.409-9.363 3.574-13.271l-.875-.485zm3.836-5.37l-3.805 5.321.813.582 3.806-5.321-.814-.582zm11.919-7.7c-4.643 1.546-8.693 4.125-11.883 7.656l.742.67c3.068-3.394 6.967-5.883 11.457-7.377l-.316-.949zm6.488-1.283l-6.427 1.267.194.981 6.426-1.267-.193-.981zm.749-.102a21.5 21.5 0 01-.707.096l.11.993c.251-.027.5-.064.742-.099l-.145-.99zm-.048.01h-.001l.243.97-.242-.97zm.066-.012h-.003l.116.993h.004l-.117-.993zm1.698-.159c-.619 0-1.191.085-1.712.161l.144.989c.53-.077 1.033-.15 1.568-.15v-1zm3.458.259a22.457 22.457 0 00-3.458-.259v1c1.159 0 2.233.083 3.306.248l.152-.989zm23.54-95.996l-24.101 96.369.97.243 24.101-96.369-.97-.243zm-22.425-30.875c0 14.665 9.532 27.099 22.753 31.472l.314-.95c-12.825-4.242-22.067-16.302-22.067-30.522h-1zm1.887-10.462c-1.11 3.325-1.887 6.759-1.887 10.462h1c0-3.56.746-6.883 1.835-10.146l-.948-.316zM338.91 611.154l114.331 54.054.428-.904-114.331-54.054-.428.904zm-26.424 13.815c11.166 0 20.952-5.577 27.043-13.974l-.81-.587c-5.917 8.158-15.412 13.561-26.233 13.561v1zm-32.625-27.012c2.919 15.349 16.397 27.012 32.625 27.012v-1c-15.737 0-28.812-11.311-31.643-26.199l-.982.187zm-117.815.407h118.306v-1H162.046v1zm-50.231 44.51c26.134 0 47.653-19.703 50.728-44.95l-.993-.121c-3.014 24.754-24.116 44.071-49.735 44.071v1zm-50.386-42.817c4.013 24.222 25.02 42.817 50.386 42.817v-1c-24.865 0-45.464-18.229-49.4-41.98l-.986.163zm-206.445-3.298l206.93 3.716.017-1-206.929-3.716-.018 1zm-32.294 28.21c16.831 0 30.567-12.522 32.799-28.641l-.991-.137c-2.165 15.637-15.49 27.778-31.808 27.778v1zm-33.227-33.186c0 18.351 14.855 33.186 33.227 33.186v-1c-17.821 0-32.227-14.389-32.227-32.186h-1zm7.897-21.183c-4.802 5.739-7.897 13.113-7.897 21.183h1c0-7.809 2.995-14.961 7.664-20.541l-.767-.642zm-105.179-111.076l105.198 111.74.728-.686-105.198-111.74-.728.686zm-26.527 7.927c9.992 0 19.301-2.9 27.158-7.847l-.533-.846c-7.703 4.85-16.829 7.693-26.625 7.693v1zM-385.5 416.36c0 28.148 22.972 51.091 51.154 51.091v-1c-27.631 0-50.154-22.496-50.154-50.091h-1zm51.154-51.092c-28.182 0-51.154 22.943-51.154 51.092h1c0-27.595 22.523-50.092 50.154-50.092v-1zm2.817.149c-.918-.074-1.847-.149-2.817-.149v1c.923 0 1.813.072 2.737.146l.08-.997zm1.441.106a66.363 66.363 0 01-1.441-.106l-.08.997c.477.038.964.078 1.462.107l.059-.998zm19.77-145.77l-20.295 146.2.99.138 20.296-146.2-.991-.138zm-24.443-31.435c0 15.441 10.564 28.216 24.811 31.987l.256-.966c-13.829-3.661-24.067-16.055-24.067-31.021h-1zm33.226-33.186c-18.372 0-33.226 14.835-33.226 33.186h1c0-17.797 14.405-32.186 32.226-32.186v-1zm24.899 11.404c-6.092-6.942-14.935-11.404-24.899-11.404v1c9.655 0 18.232 4.322 24.148 11.063l.751-.659zm128.219-88.09l-128.876 88.007.564.825 128.876-88.007-.564-.825zm-4.278-19.435c0 7.163 1.452 13.902 4.1 20.045l.919-.395c-2.595-6.02-4.019-12.625-4.019-19.65h-1zm51.154-51.092c-28.181 0-51.154 22.943-51.154 51.092h1c0-27.596 22.524-50.092 50.154-50.092v-1zm48.593 35.227C-59.61 22.76-78.908 7.919-101.541 7.919v1c22.187 0 41.111 14.55 47.642 34.537l.95-.31zM131.265 11.22L-53.508 42.808l.169.986 184.773-31.588-.169-.986zm-.496-.458c.043.343.08.65.08.951h1a8.58 8.58 0 00-.088-1.076l-.992.125zm0-.002v.002l.992-.125v-.001l-.992.124zm-.089-1.074c0 .374.047.742.089 1.074l.992-.124a7.71 7.71 0 01-.081-.95h-1zM163.907-23.5c-18.287 0-33.227 14.834-33.227 33.186h1c0-17.797 14.489-32.186 32.227-32.186v-1zm33.226 33.186c0-18.351-14.854-33.186-33.226-33.186v1c17.821 0 32.226 14.388 32.226 32.186h1zm-.304 3.558c.147-1.133.304-2.343.304-3.558h-1c0 1.14-.147 2.286-.295 3.43l.991.128zm-.004.029v-.001l-.983-.183.983.184zm.003-.014l.002-.016-.993-.124-.002.017.993.123zm-.121.962c.037-.315.078-.634.12-.96l-.991-.128c-.042.325-.084.65-.122.97l.993.118zm237.179 65.76l-237.541-66.3-.269.963 237.541 66.3.269-.962zm30.055-20.288c-13.824 0-25.758 8.49-30.653 20.583l.927.375c4.745-11.725 16.319-19.958 29.726-19.958v-1zm33.226 33.186c0-18.351-14.854-33.186-33.226-33.186v1c17.821 0 32.226 14.388 32.226 32.186h1zm-1.028 7.884c.597-2.554 1.028-5.129 1.028-7.884h-1c0 2.65-.414 5.143-1.001 7.656l.973.228zm102.181 37.763l-102.492-38.345-.351.936 102.492 38.345.351-.936zm44.559-26.89c-19.558 0-36.551 11.004-45.176 27.122l.882.472c8.458-15.808 25.121-26.594 44.294-26.594v-1zm51.154 51.091c0-28.148-22.972-51.091-51.154-51.091v1c27.631 0 50.154 22.496 50.154 50.091h1zm-18.787 39.492c11.441-9.381 18.787-23.625 18.787-39.492h-1c0 15.552-7.199 29.518-18.421 38.718l.634.774zm55.729 75.247l-55.643-75.93-.807.591 55.644 75.93.806-.591zm15.58-4.512c-5.934 0-11.428 1.718-16.225 4.37l.484.875c4.674-2.585 10.004-4.245 15.741-4.245v-1zm33.226 33.186c0-18.266-14.853-33.186-33.226-33.186v1c17.82 0 32.226 14.472 32.226 32.186h1zm-20.949 30.785c12.275-4.886 20.949-16.805 20.949-30.785h-1c0 13.554-8.408 25.115-20.319 29.856l.37.929zm22.623 83.191l-22.325-83.784-.966.258 22.325 83.784.966-.258zm-34.816-80.79c1.578 0 2.994-.238 4.432-.478l-.165-.986c-1.447.242-2.784.464-4.267.464v1zm-19.665-6.604c5.493 4.115 12.278 6.604 19.665 6.604v-1c-7.158 0-13.734-2.411-19.065-6.404l-.6.8zm-89.313 95.046l89.976-95.102-.726-.687-89.977 95.101.727.688zm7.832 20.518c0-8.067-3.007-15.442-7.812-21.183l-.767.642c4.667 5.576 7.579 12.728 7.579 20.541h1zm-.093.765c.041-.221.093-.5.093-.765h-1c0 .157-.032.342-.077.586l.984.179zm-.076.586c0-.157.032-.343.076-.586l-.984-.179c-.04.221-.092.5-.092.765h1zm93.953 14.794l-94.373-15.288-.16.987 94.374 15.288.159-.987zm34.096-42.802c-18.703 6.226-32.623 23.028-34.673 43.245l.995.101c2.009-19.818 15.657-36.293 33.994-42.398l-.316-.948zm-22.651-83.181l22.325 83.784.967-.258-22.325-83.784-.967.258zm.349.4l.217-.036-.165-.986-.217.036.165.986zM516.108 666.686l76.53-11.655-.15-.989-76.531 11.656.151.988zm-31.449-23.981c14.734 0 27.144 10.061 30.891 23.62l.964-.266c-3.863-13.976-16.653-24.354-31.855-24.354v1zm-6.329.666c2.089-.417 4.169-.666 6.329-.666v-1c-2.238 0-4.385.258-6.525.686l.196.98zm-48.521-147.295l47.948 146.96.95-.31-47.947-146.96-.951.31zm17.808-11.247a49.945 49.945 0 01-17.5 10.621l.334.942a50.927 50.927 0 0017.848-10.832l-.682-.731zM601.1 622.239L448.292 484.823l-.668.743 152.807 137.416.669-.743zm-8.291 28.243c0-10.2 3.097-19.649 8.373-27.595l-.833-.553c-5.379 8.101-8.54 17.741-8.54 28.148h1zm.169 2.696c-.057-.884-.113-1.767-.17-2.725l-.998.059c.057.96.113 1.845.17 2.729l.998-.063zm.084 1.327l-.084-1.327-.998.063.084 1.327.998-.063zM137.845 345.89l114.161-36.656-.305-.952-114.162 36.656.306.952zm1.784 11.432c0-4.096-.512-8.105-1.451-12.025l-.972.233c.921 3.85 1.423 7.78 1.423 11.792h1zm-1.281 11.263a49.528 49.528 0 001.281-11.263h-1a48.49 48.49 0 01-1.255 11.036l.974.227zm227.211 63.425l-227.563-64.02-.271.962 227.563 64.021.271-.963zm11.77-19.802c-5.549 5.627-9.818 12.449-12.38 20.125l.949.317c2.512-7.527 6.699-14.218 12.143-19.74l-.712-.702zm-77.906-89.61l77.884 90.288.757-.654-77.884-90.287-.757.653zm-17.887 5.748c6.865 0 13.306-2.057 18.549-5.662l-.567-.824c-5.074 3.489-11.317 5.486-17.982 5.486v1zm-30.137-19.379c5.236 11.402 16.741 19.379 30.137 19.379v-1c-12.988 0-24.148-7.733-29.228-18.797l-.909.418zm-395.061-7.391l-146.127 90.118.525.851 146.127-90.118-.525-.851zm25.801 12.341c-10.239 0-19.232-4.821-25.148-12.228l-.782.624c6.092 7.627 15.365 12.604 25.93 12.604v-1zm2.182-.183c-.734.093-1.445.183-2.182.183v1c.81 0 1.583-.099 2.308-.191l-.126-.992zm1.418-.154c-.478.034-.953.095-1.418.154l.126.992c.469-.06.918-.116 1.363-.148l-.071-.998zm29.95 125.723l-29.427-125.338-.974.228 29.428 125.339.974-.229zm-19.966 21.21c2.998-9.566 10.244-17.217 19.65-20.626l-.34-.94c-9.705 3.517-17.174 11.407-20.264 21.267l.954.299zm-179.435-38.09l178.853 38.429.21-.977-178.853-38.43-.21.978zm-.057-6.232c0 1.929-.084 3.848-.334 5.676l.991.135c.258-1.888.343-3.855.343-5.811h-1zm-6.195-23.829c3.937 7.112 6.278 15.22 6.195 23.824l1 .01c.085-8.795-2.309-17.072-6.32-24.318l-.875.484zm183.437-79.503c7.986-2.916 14.425-8.747 18.202-16.206l-.892-.452c-3.665 7.237-9.91 12.892-17.653 15.719l.343.939zm29.659 124.755l-29.344-125.338-.974.228 29.344 125.338.974-.228zm.84-.533c-.469.06-.917.117-1.363.148l.071.998c.478-.034.954-.095 1.418-.154l-.126-.992zm-.007.001l.141.99-.14-.99zm2.316-.192c-.81 0-1.583.099-2.308.191l.126.992c.734-.093 1.445-.183 2.182-.183v-1zm24.9 11.404c-6.092-6.942-14.936-11.404-24.9-11.404v1c9.655 0 18.232 4.322 24.148 11.063l.752-.659zm93.969-64.78l-94.627 64.697.564.825 94.627-64.696-.564-.826zm-7.829-26.192c0 9.895 2.82 19.023 7.686 26.869l.85-.527c-4.773-7.695-7.536-16.642-7.536-26.342h-1zm2.05-13.99c-1.28 4.431-2.05 9.123-2.05 13.99h1c0-4.761.753-9.359 2.01-13.712l-.96-.278zm-128.314-46.436l128.622 47.045.344-.94L-88.6 295.957l-.343.939zm2.622-7.009l128.707 46.875.342-.94-128.707-46.875-.342.94zm.686-8.072c0 2.565-.414 5.057-1 7.484l.971.235c.598-2.472 1.029-5.047 1.029-7.719h-1zm-3.834-14.972c2.338 4.503 3.834 9.576 3.834 14.972h1c0-5.583-1.548-10.814-3.946-15.433l-.888.461zm143.074-99.038l-142.914 98.396.567.823 142.914-98.395-.567-.824zm22.388 10.808c-8.658-.582-16.317-4.572-21.729-10.726l-.75.66c5.58 6.346 13.482 10.464 22.412 11.064l.067-.998zm6.217 128.602L76.46 179.09l-1 .045 5.75 128.125 1-.045zm-39.2 29.287c7.034-15.221 21.52-26.344 38.77-28.769l-.14-.99c-17.59 2.473-32.364 13.816-39.537 29.339l.908.42zm45.55-13.815c19.174 0 34.763 15.571 34.763 34.72h1c0-19.703-16.038-35.72-35.763-35.72v1zm-34.763 34.72c0-19.149 15.589-34.72 34.763-34.72v-1c-19.725 0-35.763 16.017-35.763 35.72h1zm34.763 34.72c-19.174 0-34.763-15.571-34.763-34.72h-1c0 19.702 16.038 35.72 35.763 35.72v-1zm34.763-34.72c0 19.149-15.589 34.72-34.763 34.72v1c19.725 0 35.763-16.018 35.763-35.72h-1zM83.071 178.881l5.75 127.957 1-.045-5.75-127.957-1 .045zm18.736-10.327c-4.744 5.154-11.154 8.647-18.317 9.811l.16.987c7.384-1.2 13.996-4.802 18.893-10.121l-.736-.677zm151.61 110.239L102.47 168.489l-.59.807 150.947 110.305.59-.808zm-4.108 16.367c0-5.734 1.581-11.054 4.247-15.715l-.868-.496c-2.746 4.799-4.379 10.289-4.379 16.211h1zm.585 6.168c-.336-2.013-.585-4.095-.585-6.168h-1c0 2.15.259 4.291.599 6.332l.986-.164zm-114.417 37.129l114.077-36.571-.305-.952-114.078 36.571.306.952zm-46.164-31.142c20.597.335 38.097 13.046 45.55 30.859l.922-.386c-7.6-18.166-25.447-31.131-46.456-31.473l-.016 1zm213.956-136.726c-19.175 0-34.764-15.571-34.764-34.72h-1c0 19.702 16.038 35.72 35.764 35.72v-1zm34.763-34.72c0 19.149-15.589 34.72-34.763 34.72v1c19.725 0 35.763-16.018 35.763-35.72h-1zm-34.763-34.72c19.174 0 34.763 15.571 34.763 34.72h1c0-19.703-16.038-35.72-35.763-35.72v1zm-34.764 34.72c0-19.149 15.589-34.72 34.764-34.72v-1c-19.726 0-35.764 16.017-35.764 35.72h1zm193.122 128.66l-121.096-94.595-.616.788 121.096 94.595.616-.788zm-4.459 15.536c.249-5.401 1.913-10.473 4.579-14.883l-.856-.517c-2.746 4.542-4.464 9.775-4.722 15.354l.999.046zm-143.55 9.766l143.083-9.29-.065-.998-143.083 9.29.065.998zm-24.921-25.856c12.405 2.827 22.065 12.891 24.397 25.449l.983-.183c-2.404-12.949-12.363-23.325-25.158-26.241l-.222.975zm9.001-77.828l-9.386 77.28.993.121 9.386-77.281-.993-.12zm5.486-.187c-1.674 0-3.264-.083-4.939-.251l-.1.995a49.69 49.69 0 005.039.256v-1zm36.674-15.973c-9.128 9.786-22.189 15.973-36.674 15.973v1c14.775 0 28.097-6.312 37.405-16.291l-.731-.682zm-49.602 14.811l-8.963 77.788.993.114 8.964-77.787-.994-.115zm-37.458-40.824c3.33 20.128 18.274 36.333 37.831 41.366l.249-.969c-19.174-4.934-33.828-20.823-37.094-40.56l-.986.163zm-142.063 5.908l142.575-5.49-.038-.999-142.575 5.49.038.999zm-3.643 13.09c2.317-4.114 3.779-8.661 4.123-13.555l-.998-.07c-.333 4.736-1.746 9.141-3.996 13.135l.871.49zm150.807 109.74L106.952 162.323l-.59.808L257.309 273.52l.59-.808zm23.552-10.569c-9.618 0-18.205 4.118-24.215 10.634l.735.678c5.83-6.322 14.155-10.312 23.48-10.312v-1zm.338 0h-.338v1h.338v-1zm31.72 34.848c-.417 7.739-3.414 14.639-8.325 19.958l.735.679c5.069-5.492 8.16-12.612 8.589-20.583l-.999-.054zm143.55-9.762l-143.083 9.29.065.998 143.082-9.29-.064-.998zm15.678 22.028c-7.831-4.659-13.49-12.393-15.154-21.618l-.984.177c1.718 9.525 7.56 17.501 15.627 22.301l.511-.86zm-40.728 91.936l40.929-91.301-.912-.409-40.93 91.301.913.409zm-18.384-3.083c6.275 0 12.219 1.253 17.751 3.346l.354-.936c-5.631-2.13-11.695-3.41-18.105-3.41v1zm-29.723 9.868c8.375-6.19 18.589-9.868 29.723-9.868v-1c-11.36 0-21.78 3.754-30.317 10.064l.594.804zm-78.728-90.363l78.053 90.288.756-.654-78.053-90.288-.756.654zm174.173-4.327c3.171 1.027 6.436 1.629 9.879 1.629v-1c-3.323 0-6.485-.581-9.571-1.581l-.308.952zm-40.404 91.199l41.014-91.47-.913-.409-41.013 91.469.912.41zm25.581 39.877c-1.281-17.404-11.36-32.33-25.79-40.517l-.494.87c14.153 8.03 24.031 22.664 25.287 39.72l.997-.073zm115.439-.464H464.025v1h115.938v-1zm9.637-19.797c-5.584 5.233-9.19 12.268-10.134 20.239l.994.117c.916-7.738 4.413-14.555 9.823-19.626l-.683-.73zm-84.709-113.781l84.649 114.443.804-.594-84.649-114.443-.804.594zm-15.665 4.595c6.017 0 11.514-1.718 16.315-4.458l-.496-.868c-4.67 2.665-9.998 4.326-15.819 4.326v1zm-39.922 133.369c0-19.703-16.038-35.72-35.764-35.72v1c19.175 0 34.764 15.571 34.764 34.72h1zm-35.764 35.719c19.726 0 35.764-16.017 35.764-35.719h-1c0 19.149-15.589 34.719-34.764 34.719v1zm-35.763-35.719c0 19.702 16.038 35.719 35.763 35.719v-1c-19.174 0-34.763-15.57-34.763-34.719h-1zm35.763-35.72c-19.725 0-35.763 16.017-35.763 35.72h1c0-19.149 15.589-34.72 34.763-34.72v-1zm40.053 67.365c6.149-7.762 10.078-17.316 10.846-27.808l-.997-.073c-.753 10.285-4.604 19.65-10.633 27.26l.784.621zm152.243 136.396l-152.3-137.078-.669.743 152.3 137.078.669-.743zm25.429-15.403a50.562 50.562 0 00-26.135 15.44l.743.669a49.56 49.56 0 0125.619-15.135l-.227-.974zm-18.563-119.962l18.182 120.524.988-.149-18.181-120.525-.989.15zm.049.463c.175-.021.313-.038.446-.038v-1c-.206 0-.406.026-.57.046l.124.992zm-.569.047c.205 0 .406-.026.569-.047l-.124-.992a3.612 3.612 0 01-.445.039v1zm-32.8-29.326c1.974 16.459 15.794 29.326 32.8 29.326v-1c-16.482 0-29.891-12.472-31.807-28.445l-.993.119zm-115.441.44h115.937v-1H463.941v1zm132.506-32.16c4.67-2.666 9.998-4.326 15.819-4.326v-1c-6.017 0-11.514 1.717-16.315 4.457l.496.869zm-85.214-114.58l84.564 114.443.804-.595-84.564-114.443-.804.595zm9.638-17.548c-1.415 6.569-4.829 12.392-9.58 16.887l.688.727c4.89-4.627 8.41-10.628 9.87-17.403l-.978-.211zm193.343 18.104l-192.806-18.496-.096.995 192.807 18.497.095-.996zm7.948 20.28c-4.5-5.41-7.329-12.229-7.496-19.793l-.999.022c.171 7.807 3.093 14.84 7.726 20.41l.769-.639zm-89.998 95.849l89.977-95.186-.727-.687-89.976 95.186.726.687zm-19.898-6.431c7.153 0 13.733 2.491 19.241 6.492l.588-.809c-5.655-4.107-12.436-6.683-19.829-6.683v1zm30.782-288.093c19.174 0 34.763 15.571 34.763 34.72h1c0-19.702-16.038-35.72-35.763-35.72v1zm-34.763 34.718c-.084-19.145 15.587-34.718 34.763-34.718v-1c-19.723 0-35.849 16.016-35.763 35.722l1-.004zm34.763 34.722c-19.174 0-34.763-15.571-34.763-34.72h-1c0 19.703 16.038 35.72 35.763 35.72v-1zm34.763-34.72c0 19.149-15.589 34.72-34.763 34.72v1c19.725 0 35.763-16.017 35.763-35.72h-1zm-9.309 43.066c-7.54 4.434-16.163 7.025-25.454 7.025v1c9.482 0 18.279-2.645 25.961-7.163l-.507-.862zm56.385 76.149l-55.728-76.014-.807.591 55.728 76.014.807-.591zm-9.64 17.294c1.415-6.483 4.827-12.221 9.577-16.632l-.681-.733c-4.891 4.542-8.413 10.459-9.873 17.152l.977.213zm-193.512-18.105l192.976 18.496.095-.995-192.975-18.497-.096.996zm-4.949-15.699c2.667 4.495 4.331 9.649 4.497 15.216l1-.03c-.172-5.751-1.891-11.069-4.637-15.696l-.86.51zm89.089-68.558l-88.962 67.905.607.795 88.961-67.905-.606-.795zm37.173 15.944c-14.485 0-27.377-6.103-36.504-15.888l-.732.682c9.308 9.979 22.461 16.206 37.236 16.206v-1zM492.94 108.381l102.154 38.176.35-.937-102.153-38.176-.351.937zm-20.587 16.654c9.272-2.4 16.914-8.574 21.207-16.893l-.889-.459c-4.163 8.067-11.573 14.055-20.568 16.384l.25.968zm16.861 124.113l-16.49-124.662-.992.131 16.49 124.662.992-.131zm-.442-.451l-.037.012a.05.05 0 01-.016.004l-.002.001h.001v1c.174 0 .306-.047.37-.068l-.316-.949zm.369-.068c-.174 0-.306.047-.369.068l.316.949.036-.012.016-.004.002-.001h-.001v-1zm23.783 10.118c-6.008-6.171-14.422-10.118-23.783-10.118v1c9.074 0 17.234 3.824 23.066 9.815l.717-.697zm88.046-67.785l-88.708 67.736.607.795 88.708-67.737-.607-.794zm-9.076-28.235c0 10.748 3.331 20.642 8.966 28.913l.826-.563c-5.527-8.114-8.792-17.814-8.792-28.35h-1zm2.904-16.806a49.995 49.995 0 00-2.904 16.806h1a48.992 48.992 0 012.846-16.471l-.942-.335zm-130.604-20.772v1a.904.904 0 00.075-.003l-.075-.997zm.006 0l-.013.001.089.996.013-.001-.089-.996zm-.007 0l.103.995.053-.007-.156-.988zm.004 0l-.007.001.162.987.007-.001-.162-.987zm.051-.016l-.043.013-.012.003.169.986a1.2 1.2 0 00.202-.054l-.316-.948zm.369-.068c-.173 0-.305.046-.369.068l.316.948.036-.011.016-.005h.001v-1zm16.986 125.097l-16.49-124.663-.991.131 16.49 124.663.991-.131zm-15.276 8.946c3.992-4.07 9.152-6.981 14.9-8.395l-.239-.971c-5.922 1.457-11.248 4.458-15.375 8.666l.714.7zm-121.591-94.382l120.927 94.426.615-.788-120.927-94.426-.615.788zm8.687-28.942a49.81 49.81 0 01-8.791 28.264l.823.567a50.806 50.806 0 008.968-28.831h-1zm-.756-8.455c.422 2.779.756 5.537.756 8.455h1c0-2.993-.343-5.809-.767-8.605l-.989.15zm81.036-22.77l-80.674 22.213.265.964 80.675-22.213-.266-.964zm30.491 20.59c-13.571 0-25.146-8.398-29.894-20.293l-.928.37c4.893 12.261 16.826 20.923 30.822 20.923v-1zM194.385 22.161l237.456 66.3.269-.962-237.456-66.301-.269.963zm-2.244 5.206c1.126-1.643 2.072-3.537 2.844-5.505l-.931-.365c-.751 1.916-1.665 3.739-2.738 5.305l.825.565zm79.239 69.106l-79.321-69.764-.661.751 79.321 69.764.661-.751zm31.889-11.696c-12.383 0-23.742 4.436-32.537 11.686l.636.771c8.624-7.108 19.76-11.457 31.901-11.457v-1zm48.507 34.971c-6.747-20.3-25.961-34.97-48.507-34.97v1c22.103 0 40.943 14.383 47.558 34.286l.949-.316zm80.068-22.284l-80.674 21.96.263.964 80.674-21.96-.263-.964zm-.876-4.5c0 1.733.26 3.458.514 5.06l.987-.156c-.254-1.607-.501-3.26-.501-4.905h-1zm.514-5.062c-.254 1.602-.514 3.328-.514 5.061h1c0-1.644.247-3.297.501-4.905l-.987-.156zM186.563 32.804c-5.833 5.576-13.661 9.068-22.403 9.068v1c9.017 0 17.088-3.603 23.094-9.345l-.691-.723zm79.32 69.074L187.238 32.79l-.66.751 78.645 69.089.66-.752zm-12.684 33.991c0-12.793 4.855-24.416 12.728-33.283l-.748-.664c-8.025 9.039-12.98 20.895-12.98 33.947h1zm0 .338v-.338h-1v.338h1zm-142.633 5.989l142.153-5.49-.039-.999-142.153 5.49.039.999zm-11.84-20.132c5.916 4.91 10.078 11.814 11.327 19.711l.988-.157c-1.289-8.15-5.584-15.267-11.676-20.323l-.638.769zm52.329-82.496l-52.43 81.842.842.539 52.43-81.841-.842-.54zm13.105 2.304c-4.419 0-8.663-.833-12.485-2.492l-.398.917c3.958 1.719 8.339 2.575 12.883 2.575v-1zM-50.048 59.01a44.59 44.59 0 00-.77-8.285l-.983.184c.502 2.673.753 5.344.753 8.1h1zm-3.671 19.016c2.304-5.88 3.67-12.276 3.67-19.017h-1c0 6.604-1.338 12.877-3.601 18.653l.931.364zm104.783 50.636l-105.03-51.267-.438.898L50.625 129.56l.439-.898zm27.264-15.085c-11.679 0-21.981 6.09-27.904 15.263l.84.542c5.748-8.901 15.74-14.805 27.064-14.805v-1zm14.426 3.43c-4.373-2.142-9.268-3.43-14.426-3.43v1c4.99 0 9.735 1.246 13.987 3.328l.44-.898zm51.62-81.41l-52.26 81.589.841.539 52.261-81.588-.842-.54zm-11.812-16.224c2.062 6.863 6.271 12.696 11.935 16.896l.596-.803c-5.498-4.077-9.576-9.73-11.573-16.38l-.958.287zM-51.225 51.31l184.35-31.588-.169-.986-184.35 31.588.17.986zm97.326 95.453c0-3.733.748-7.309 1.917-10.645l-.944-.331c-1.198 3.42-1.973 7.108-1.973 10.976h1zm3.834 14.973c-2.338-4.503-3.834-9.577-3.834-14.973h-1c0 5.584 1.549 10.814 3.947 15.433l.887-.46zm-143.074 99.037l142.914-98.395-.567-.824-142.914 98.396.567.823zm-18.646-10.478c7.158 1.413 13.321 5.154 17.99 10.399l.746-.665c-4.803-5.397-11.156-9.257-18.542-10.715l-.194.981zm9.661-140.73l-10.063 140.203.997.072 10.064-140.203-.998-.072zm1.006-.464h-.507v1h.507v-1zm43.122-24.588c-8.794 14.722-24.787 24.588-43.122 24.588v1c18.705 0 35.015-10.067 43.98-25.075l-.858-.513zm105.761 50.99L-57.348 84.321l-.438.9 105.113 51.182.438-.899zM-101.202 20.659c21.203 0 38.4 17.175 38.4 38.352h1c0-21.73-17.645-39.352-39.4-39.352v1zm-38.4 38.352c0-21.177 17.196-38.352 38.4-38.352v-1c-21.755 0-39.4 17.622-39.4 39.352h1zm38.4 38.351c-21.204 0-38.4-17.175-38.4-38.351h-1c0 21.729 17.645 39.351 39.4 39.351v-1zm38.4-38.351c0 21.175-17.197 38.351-38.4 38.351v1c21.755 0 39.4-17.622 39.4-39.351h-1zm-46.439 49.422c-14.482-2.341-26.875-10.954-34.412-22.915l-.846.533c7.684 12.194 20.321 20.98 35.099 23.369l.159-.987zm-9.644 140.901l10.063-140.372-.997-.072-10.063 140.373.997.071zm-25.706 14.6c5.494-8.23 14.735-13.637 25.231-14.136l-.047-.999c-10.815.514-20.346 6.087-26.015 14.58l.831.555zm-126.221-63.853l125.578 64.021.455-.891-125.578-64.02-.455.89zm1.842-11.763c0 3.983-.831 7.641-2.085 11.15l.941.336c1.283-3.586 2.144-7.36 2.144-11.486h-1zm-3.75-14.803c2.337 4.5 3.75 9.405 3.75 14.803h1c0-5.581-1.463-10.642-3.862-15.264l-.888.461zm128.362-88.144l-128.2 87.501.564.826 128.2-87.5-.564-.827zM-301.789 221.42c.079 0 .144.013.247.036l.219-.975c-.102-.023-.265-.061-.466-.061v1zm-19.8 145.937l20.296-146.368-.991-.138-20.295 146.369.99.137zm13.887 5.163c-4.363-2.648-9.149-4.525-14.269-5.718l-.227.974c5.028 1.171 9.714 3.011 13.977 5.599l.519-.855zm2.034 1.27l-2.029-1.267-.53.849 2.03 1.266.529-.848zm1.979 1.522c-.508-.38-.992-.742-1.348-1.015a20.077 20.077 0 01-.52-.41c-.01-.009-.007-.007.002.003a.48.48 0 01.123.324h-1a.517.517 0 00.144.356.89.89 0 00.064.062c.037.033.085.074.139.117.108.087.26.205.441.343.361.276.849.641 1.355 1.021l.6-.801zm-.001 0l-.001-.001-.595.803.001.001.595-.803zm.004.002l-.003-.002-.597.802.002.002.598-.802zm.007.006l-.004-.003-.605.796.004.003.605-.796zm2.473 1.896c-.356-.311-1.475-1.149-2.476-1.898l-.599.8c1.025.768 2.098 1.572 2.417 1.851l.658-.753zm7.935 8.269c-2.305-3.07-4.955-5.888-7.952-8.283l-.624.781c2.923 2.336 5.515 5.091 7.777 8.103l.799-.601zm145.55-90.244l-146.212 90.119.525.851 146.211-90.119-.524-.851zm-3.367-13.341c0 4.98 1.204 9.696 3.175 13.976l.908-.418c-1.919-4.167-3.083-8.741-3.083-13.558h-1zm2.147-11.496c-1.373 3.6-2.147 7.376-2.147 11.496h1c0-3.989.748-7.645 2.081-11.14l-.934-.356zm-125.338-63.397l125.578 64.021.454-.891-125.578-64.021-.454.891zm-26.918 14.497a33.126 33.126 0 0027.561-14.664l-.831-.557a32.125 32.125 0 01-26.73 14.221v1zm-.345-.048c.072.017.204.048.345.048v-1a.75.75 0 01-.126-.023l-.219.975zm-68.06 194.819c0 19.703 16.038 35.72 35.763 35.72v-1c-19.174 0-34.763-15.571-34.763-34.72h-1zm35.763-35.719c-19.725 0-35.763 16.017-35.763 35.719h1c0-19.149 15.589-34.719 34.763-34.719v-1zm35.764 35.719c0-19.702-16.038-35.719-35.764-35.719v1c19.175 0 34.764 15.57 34.764 34.719h1zm-35.764 35.72c19.726 0 35.764-16.017 35.764-35.72h-1c0 19.149-15.589 34.72-34.764 34.72v1zm175.327 112.092c-5.242-3.519-11.597-5.49-18.291-5.49v1c6.498 0 12.659 1.913 17.734 5.32l.557-.83zm60.734-72.038l-61.393 72.129.761.648 61.394-72.128-.762-.649zm-8.998-21.888c0 8.749 3.436 16.64 9.015 22.556l.728-.686c-5.414-5.741-8.743-13.39-8.743-21.87h-1zm.163-1.55c-.077.463-.163.983-.163 1.55h1c0-.473.072-.915.149-1.387l-.986-.163zm.094-.624c-.025.202-.058.406-.094.624l.986.163c.036-.215.073-.438.101-.663l-.993-.124zm-178.546-37.878l178.938 38.429.21-.978-178.938-38.429-.21.978zm-15.295 24.803c7.512-6.565 13.148-15.264 15.881-25.159l-.963-.266c-2.679 9.699-8.206 18.231-15.576 24.672l.658.753zm104.556 110.346l-104.521-111.065-.729.685 104.522 111.065.728-.685zm19.001-6.661c-7.387 0-14.172 2.488-19.665 6.603l.6.8c5.331-3.993 11.907-6.403 19.065-6.403v-1zm238.971 33.608v-.507h-1v.507h1zm-206.592-3.216l206.084 3.716.018-1-206.084-3.716-.018 1zm-8.897-19.078c4.661 4.987 7.659 11.473 8.409 18.63l.995-.104c-.773-7.371-3.863-14.061-8.673-19.209l-.731.683zm61.293-72.878l-61.309 72.213.763.647 61.309-72.213-.763-.647zm18.394 5.229c-6.582 0-12.658-1.913-17.734-5.32l-.557.83c5.241 3.518 11.511 5.49 18.29 5.49v-1zm25.398-12.561c-5.917 7.574-15.078 12.561-25.398 12.561v1c10.651 0 20.094-5.148 26.186-12.945l-.788-.616zm120.309 71.416L-47.586 489.58l-.513.858L71.56 561.975l.513-.858zm-9.904 30.581c0-11.289 3.767-21.656 10.044-29.848l-.794-.608c-6.407 8.362-10.25 18.942-10.25 30.456h1zM-43.33 483.545c1.89-4.12 2.921-8.667 2.921-13.553h-1c0 4.742-1 9.147-2.83 13.136l.91.417zm120.391 71.576l-120.588-72.214-.514.858 120.589 72.213.513-.857zm25.529-13.577a50.348 50.348 0 00-26.137 13.65l.703.711a49.344 49.344 0 0125.617-13.377l-.183-.984zM87.386 407.969l14.799 134.122.994-.11L88.38 407.859l-.994.11zM49.62 390.503c9.307 10.83 22.97 17.74 38.259 17.911l.011-1c-14.986-.167-28.383-6.94-37.511-17.563l-.759.652zm-94.135 64.868l94.797-64.781-.564-.826-94.797 64.781.564.826zm4.108 14.621c0-5.58-1.462-10.73-3.951-15.274l-.877.48c2.414 4.408 3.828 9.394 3.828 14.794h1zM76.475 591.698c0 19.703 16.038 35.72 35.763 35.72v-1c-19.174 0-34.763-15.571-34.763-34.72h-1zm35.763-35.719c-19.725 0-35.763 16.017-35.763 35.719h1c0-19.149 15.589-34.719 34.763-34.719v-1zm35.763 35.719c0-19.702-16.038-35.719-35.763-35.719v1c19.174 0 34.763 15.57 34.763 34.719h1zm-35.763 35.72c19.725 0 35.763-16.017 35.763-35.72h-1c0 19.149-15.589 34.72-34.763 34.72v1zm168.114-37.824H162.807v1h117.545v-1zm6.711-18.561c-4.204 5.313-6.867 11.831-7.211 19.037l.999.047c.333-6.983 2.913-13.303 6.996-18.463l-.784-.621zM120.586 396.518l166.507 175.17.725-.689-166.508-175.17-.724.689zm-24.853 11.384c9.649-1.364 18.447-5.373 25.537-11.346l-.644-.764c-6.947 5.851-15.57 9.782-25.033 11.12l.14.99zm15.226 133.234L96.16 407.352l-.994.11 14.799 133.784.994-.11zm.355-.486a11.62 11.62 0 01-.852.041v1c.317 0 .631-.022.924-.043l-.072-.998zm.275-.018l-.274.018.07.998.268-.019-.064-.997zm.254-.015a9.93 9.93 0 00-.254.015l.064.997.237-.013-.047-.999zm.121-.005l-.122.005.048.999.109-.005-.035-.999zm.147-.004l-.148.004.036.999.13-.003-.018-1zm.051-.001l-.049.001.015 1 .049-.001-.015-1zm.076 0h-.072l.008 1h.064v-1zm51.069 49.471c-.854-27.38-23.399-49.471-51.069-49.471v1c27.127 0 49.232 21.659 50.07 48.502l.999-.031zm149.602-30.566c7.157 0 13.651 2.41 18.985 6.322l.591-.806c-5.49-4.027-12.188-6.516-19.576-6.516v1zm-19.652 6.822c5.502-4.246 12.246-6.822 19.652-6.822v-1c-7.646 0-14.602 2.661-20.263 7.03l.611.792zM126.082 391.113l166.507 175.17.725-.689-166.507-175.17-.725.689zm9.115-15.477c-2.176 5.517-5.273 10.451-9.127 14.801l.749.663c3.927-4.433 7.087-9.466 9.308-15.097l-.93-.367zm228.67 63.807l-228.069-64.105-.271.962 228.07 64.105.27-.962zm-.396 8.758c0-2.841.251-5.513.753-8.185l-.983-.184a44.827 44.827 0 00-.77 8.369h1zm19.845 39.805c-12.06-9.201-19.845-23.584-19.845-39.805h-1c0 16.55 7.944 31.221 20.239 40.601l.606-.796zm-50.709 77.701l50.823-77.028-.835-.55-50.823 77.027.835.551zm124.613 91.418l-113.823-53.801-.428.904 113.824 53.801.427-.904zm13.434-12.328c-5.744 2.826-10.635 7.11-14.069 12.512l.843.536c3.332-5.24 8.081-9.402 13.668-12.151l-.442-.897zm-48.371-146.778L470.4 645.401l.95-.31-48.117-147.383-.95.311zm-8.827 1.274c3.248 0 6.41-.342 9.4-.939l-.196-.981a47.09 47.09 0 01-9.204.92v1zm-24.423-6.226c7.257 3.922 15.625 6.226 24.423 6.226v-1c-8.623 0-16.829-2.258-23.948-6.106l-.475.88zm-50.845 77.96l51.5-78.125-.835-.55-51.5 78.125.835.55zm7.863 20.587c0-8.152-3.008-15.444-7.9-21.186l-.761.648c4.749 5.576 7.661 12.642 7.661 20.538h1zm-2.405 12.352a32.656 32.656 0 002.405-12.352h-1c0 4.242-.833 8.316-2.331 11.972l.926.38zm141.098 103.111c-1.19 0-2.338-.001-3.481-.164l-.142.99c1.225.175 2.444.174 3.623.174v-1zm23.648-10.481c-5.916 6.408-14.326 10.481-23.648 10.481v1c9.62 0 18.291-4.204 24.383-10.803l-.735-.678zm4.443-6.202l-4.481 6.25.812.583 4.482-6.25-.813-.583zm4.135-15.503c0 5.648-1.579 10.886-4.166 15.552l.875.485c2.657-4.794 4.291-10.198 4.291-16.037h-1zm-.038-.485c.021.193.038.352.038.485h1c0-.199-.024-.415-.045-.596l-.993.111zm-.025-.235c.007.079.016.159.025.235l.993-.111-.023-.22-.995.096zm-.022-.378c0 .127.01.257.022.378l.995-.095a3.232 3.232 0 01-.017-.283h-1zm76.871-12.15l-76.446 11.656.151.988 76.446-11.655-.151-.989zm12.454 22.794c-5.697-6.276-9.883-13.886-11.892-22.414l-.973.229c2.05 8.703 6.321 16.464 12.124 22.857l.741-.672zM465.794 809.472l140.377-124.325-.663-.748-140.377 124.324.663.749zm-8.88-4.974c3.066 1.159 5.807 2.899 8.223 4.979l.652-.758c-2.489-2.143-5.329-3.95-8.521-5.157l-.354.936zm23.793-97.211l-24.101 96.622.97.242 24.101-96.622-.97-.242zm162.341-22.001c-19.174 0-34.763-15.57-34.763-34.719h-1c0 19.702 16.038 35.719 35.763 35.719v-1zm34.763-34.721c-.083 19.152-15.675 34.721-34.763 34.721v1c19.642 0 35.677-16.017 35.763-35.717l-1-.004zm-34.763-34.718c19.174 0 34.763 15.571 34.763 34.72h1c0-19.703-16.038-35.72-35.763-35.72v1zm-34.763 34.72c0-19.149 15.589-34.72 34.763-34.72v-1c-19.725 0-35.763 16.017-35.763 35.72h1zm34.678-50.092c11.553 0 22.186 4.013 30.646 10.538l.61-.792c-8.622-6.65-19.468-10.746-31.256-10.746v1zm-3.856.168c1.27-.084 2.523-.168 3.856-.168v-1c-1.372 0-2.656.086-3.923.17l.067.998zm-18.709-120.948l18.181 120.524.989-.149-18.182-120.524-.988.149zm22.677-22.595c-3.081 10.728-11.49 19.044-22.316 22.038l.266.964c11.161-3.087 19.834-11.662 23.011-22.726l-.961-.276zm96.118 15.101l-95.558-15.456-.16.987 95.558 15.456.16-.987zm17.249 35.255c-9.713-8.615-16.076-20.991-16.83-34.789l-.998.055c.768 14.074 7.259 26.697 17.165 35.482l.663-.748zM674.304 610.93l82.197-102.788-.781-.624-82.197 102.787.781.625zm115.294-106.219c-19.175 0-34.764-15.57-34.764-34.719h-1c0 19.702 16.038 35.719 35.764 35.719v-1zm34.763-34.719c0 19.149-15.589 34.719-34.763 34.719v1c19.725 0 35.763-16.017 35.763-35.719h-1zm-34.763-34.72c19.174 0 34.763 15.571 34.763 34.72h1c0-19.703-16.038-35.72-35.763-35.72v1zm-34.764 34.72c0-19.149 15.589-34.72 34.764-34.72v-1c-19.726 0-35.764 16.017-35.764 35.72h1z" fill="#9A92EA" opacity=".24"/><path d="M912.028 333.245l.483.129-.115.432-.443-.067.075-.494zm-59.026 49.916l.5-.003v.003h-.5zm78.053 42.483l-.271-.42.379-.245.282.353-.39.312zm82.535 103.21l.39-.312.27.341-.3.316-.36-.345zm21.9 83.193l-.1.489-.02-.005-.02-.006.14-.478zm7.53 1.604l-.07.495-.02-.002-.02-.004.11-.489zm39.49-11.064l-.32-.385.33-.273.32.284-.33.374zm140.8 124.663l.33-.375.33.296-.25.365-.41-.286zm47.44 2.28l.41-.291.01.024.02.025-.44.242zm-3.81-5.321l.38-.335.01.021.02.023-.41.291zm-11.67-7.517l.1-.49.03.006.03.01-.16.474zm-6.42-1.267l.05-.496.02.002.02.004-.09.49zm-.73-.097l-.07.495-.02-.004-.03-.006.12-.485zm0 0l.06-.497.03.004.03.008-.12.485zm0-.001l-.06.497-.01-.002.07-.495zm-5.02.098l.07.495-.45.069-.11-.442.49-.122zm-24.1-96.368l-.49.121-.11-.45.44-.146.16.475zm20.55-41.301l-.48.158-.14-.42.4-.19.22.452zm114.33-54.054l-.22-.452.38-.177.24.335-.4.294zm58.77-12.838l-.49-.094.07-.406h.42v.5zm118.3 0v-.5h.45l.05.439-.5.061zm100.13 2.111l-.5-.081.07-.411.42-.008.01.5zm206.93-3.716l-.01-.5.44-.008.06.44-.49.068zm57.25-25.338l-.39.321-.28-.34.3-.324.37.343zm105.19-111.74l-.36-.343.28-.3.35.22-.27.423zm24.12-93.265l.04.498-.04-.498zm-1.45.106l.03.499-.46.027-.07-.457.5-.069zm-20.3-146.2l-.49.069-.06-.439.42-.113.13.483zm-32.81-52.956l.38.33-.29.332-.37-.25.28-.412zM1841.14-8.142l-.29.413-.34-.232.17-.378.46.197zm-94.72-35.557l.48.155-.14.41-.42-.072.08-.493zm-184.77-31.588l-.08.493-.42-.071v-.422h.5zm.09-1.013l.49.061-.49-.061zm0-.002l-.5-.062.5.062zm-65.07 2.482l-.5.092v-.028l.5-.064zm0 .001l.49-.091v.029l-.49.062zm0 .016l-.5.064v-.002l.5-.062zm.12.965l.5-.058.05.425-.42.115-.13-.482zM1259.25-6.537l.13.482-.43.12-.16-.414.46-.188zm-61.9 20.186l.48-.114.1.428-.41.154-.17-.468zm-102.49 38.345l.17.468-.41.153-.21-.385.45-.236zm-76.79 62.838l.32-.387.36.301-.28.381-.4-.295zm-55.642 75.929l.403.296-.26.355-.385-.213.242-.438zm-28.075 58.7l.185-.465.412.165-.114.429-.483-.129zm7.659 1.894l.082-.493-.082.493zm23.714-6.033l-.3-.4.357-.267.306.324-.363.343zm89.974 95.102l.37-.344.3.324-.28.341-.39-.321zm-7.61 21.537l.49-.089-.49.089zm.09.676h.5v.425l-.42.068-.08-.493zm-94.378 15.287l.08.494-.523.085-.054-.528.497-.051zm-34.333-42.821l-.158.474-.446-.148.121-.455.483.129zm22.325-83.784l-.483-.129.117-.439.449.075-.083.493zm235.176 327.873l.48.133-.12.428-.44-.067.08-.494zm-76.53-11.656l-.08.495-.45-.069.03-.457.5.031zm114.33-11.655l.47.155-.13.422-.44-.087.1-.49zm47.95-146.96l.16-.471.46.162-.15.464-.47-.155zm-17.68-10.726l-.33-.372.34-.306.33.312-.34.366zm-152.81 137.416l-.41.276-.24-.359.32-.289.33.372zm8.46 27.871h.5v.03l-.5-.03zm-.17 2.728l.5.031-.5-.031zm454.79-307.796l.15-.476.44.141-.11.451-.48-.116zm-114.16-36.656l-.46-.209.19-.403.42.136-.15.476zm113.99 59.713l.49-.113.1.465-.46.129-.13-.481zm-227.56 64.021l.13.481-.46.129-.15-.452.48-.158zm-12.27-19.933l-.35.351-.33-.328.31-.35.37.327zm77.89-90.287l-.38-.327.29-.339.37.254-.28.412zm443.2-20.271l-.39-.312.28-.346.37.233-.26.425zm146.13 90.119l.26-.426.41.251-.24.417-.43-.242zm-173.91-77.89l.06-.496-.06.496zm-1.39-.151l-.49-.114.1-.415.42.03-.03.499zm-29.43 125.338l-.17.47-.42-.151.1-.433.49.114zm19.95 20.946l.11.489-.45.096-.13-.435.47-.15zm178.86-38.429l.49-.067.07.459-.46.097-.1-.489zm-.34-5.743l.5-.005v.005h-.5zM1799.7 225.39l.17-.47.42.152-.1.432-.49-.114zm-17.93-15.963l-.17-.47.42-.152.2.396-.45.226zm-11.41 141.301l.48.114-.1.415-.42-.03.04-.499zm-1.4-.151l-.06.496-.01-.001.07-.495zm0 0l.07-.496v.001l-.07.495zm-26.76 11.046l.37.33-.29.333-.37-.25.29-.413zm-94.63-64.696l-.28.413-.4-.27.25-.406.43.263zm5.58-40.456l-.48.139-.13-.448.44-.161.17.47zm126-54.054l.49-.118.1.435-.42.153-.17-.47zm-128.71 46.875l.17.47-.43.157-.19-.417.45-.21zm131.59-69.679l.28-.412.36.25-.2.392-.44-.23zm-142.92-98.396l-.37-.33.29-.334.36.252-.28.412zm-22.07 10.895l-.5-.022.02-.447.45-.03.03.5zm-5.75 128.126l-.07.495-.45-.063.02-.455.5.023zm-1.86-128.38l.08-.493.44.072-.02.444-.5-.022zm-5.75 127.957l.5.023-.02.47-.47.007-.01-.5zm-12.85-137.922l-.3-.404.36-.264.3.329-.36.339zm-150.95 110.304l-.44.248-.22-.388.36-.264.3.404zm3.72 22.213l-.15.476-.42-.132.08-.426.49.082zm114.08 36.571l.46.193-.18.423-.44-.14.16-.476zm-326-73.058l-.43.259-.23-.38.35-.273.31.394zm121.1-94.595l-.31-.394.36-.282.31.335-.36.341zm-116.45 109.714l-.03.499-.45-.029-.02-.447.5-.023zm143.08 9.29l.5.092-.08.436-.45-.029.03-.499zm24.78-25.844l.5-.061.05.448-.44.1-.11-.487zm-9.38-77.281l-.05-.498.48-.048.06.486-.49.06zm7.44-1.351l-.5.057-.05-.433.42-.109.13.485zm8.96 77.787v.5h-.44l-.06-.443.5-.057zm28.5-118.75l-.49-.082.07-.435.44.017-.02.5zm142.57 5.49l.02-.5.45.017.03.447-.5.035zm4.06 13.344l.44-.245.22.387-.36.262-.3-.404zM1435.4 186.116l.29.404-.36.263-.3-.328.37-.339zm-56.41 23.902l.03-.499.45.029.02.443-.5.027zm8.46 20.27l.37-.339.3.329-.29.337-.38-.327zm-151.54-29.56l-.49-.089.08-.439.44.029-.03.499zm-15.39 21.959l-.46.205-.18-.407.38-.228.26.43zm40.93 91.301l.17.468-.44.166-.19-.429.46-.205zm47.95 6.588l.37.327-.3.35-.37-.275.3-.402zm-95.9-94.764l-.15-.476.42-.138.19.41-.46.204zm41.01 91.47l.46-.205.19.415-.4.225-.25-.435zm-25.54 40.118l.5.037-.03.463h-.47v-.5zm-115.93 0v.5h-.45l-.05-.441.5-.059zm-9.98-19.932l-.34.365-.33-.305.27-.357.4.297zm84.65-114.443l-.4-.297.26-.357.39.22-.25.434zm52.09 169.595l.39-.31.29.368-.35.314-.33-.372zm-10.74-27.534v-.5h.46l.04.464-.5.036zM1087.5 529.698l.33.372-.37.334-.33-.371.37-.335zm-25.88-15.287l-.11.487-.45-.105.07-.456.49.074zm18.18-120.524l-.49-.075.06-.425h.43v.5zm33.32-28.801l-.49-.059.05-.441h.44v.5zm-16.32-32.094l.4.297-.26.357-.39-.22.25-.434zm84.56-114.443l.35-.364.32.305-.26.356-.41-.297zm-9.72-17.146l-.05-.497.45-.043.09.435-.49.105zM978.833 219.9l-.499-.011.009-.444.443-.043.047.498zm-7.61 20.101l-.364.344-.304-.322.283-.341.385.319zm89.977 95.187l.29.404-.35.258-.3-.319.36-.343zm24.02-259.46h-.5v-.003l.5.002zm-60.98 43.496l-.4-.296.27-.364.39.229-.26.431zm-55.723 76.014l-.341.366-.326-.303.263-.359.404.296zm9.725 16.892l.047.497-.441.043-.095-.434.489-.106zm192.978-18.497l.5.015-.02.441-.44.042-.04-.498zm4.56-15.456l.31-.398.35.27-.23.383-.43-.255zm-88.96-67.906l-.36-.341.31-.331.36.275-.31.397zm113.06-89.358l-.17-.469.42-.155.2.394-.45.23zm-102.15 38.175l-.47.168-.16-.464.46-.172.17.469zm123.04-21.537l.13-.484.43.111-.06.439-.5-.066zm-16.49 124.663l.5.065-.06.435h-.44v-.5zm-23.85 9.882l.36.348-.31.318-.35-.269.3-.397zm-88.7-67.737l-.31.397-.37-.287.26-.392.42.282zm137.04-65.711l-.04.498h-.01l.05-.498zm-.01-.001l-.05.498-.01-.001.06-.497zm-.03-.004l-.08.494.08-.494zm-.01 0l-.08.493v-.001l.08-.493zm-.13-.036l.16-.474-.16.474zm-.21-.042l-.49-.066.05-.434h.44v.5zm-16.49 124.662l-.12.486-.43-.107.06-.444.49.065zm15.14 8.531l.31.394-.35.275-.32-.319.36-.35zm120.93-94.426l.41-.284.27.388-.38.29-.3-.394zm-8.12-37.078l.13-.482.43.118-.07.439-.49-.075zm-80.68-22.213l-.46-.185.17-.416.43.119-.14.482zm239.32-83.362l-.13-.481.43-.122.17.42-.47.183zM1261.02.98l-.49.078-.07-.44.43-.12.13.482zm240.25-60.895l.41-.283.25.365-.33.293-.33-.375zm-79.32 69.763l.33.376-.32.281-.33-.27.32-.387zm-80.25 23.058l.47.158-.15.449-.45-.125.13-.482zm-80.68-21.96l-.13.483-.43-.118.07-.443.49.078zm245.07-64.78l-.33-.376.35-.302.33.316-.35.362zm-78.64 69.088l-.38.332-.33-.376.38-.332.33.376zm12.85 33.953l-.02.5-.48-.02v-.48h.5zm142.15 5.49l.5.078-.07.438-.45-.017.02-.5zm11.5-20.017l.43-.27.23.372-.34.282-.32-.384zm-52.43-81.842l-.19-.459.39-.17.23.36-.43.27zm202.79 10.98l.08-.493.5.086-.09.5-.49-.093zm2.87 27.027l.47-.182.17.429-.42.202-.22-.449zm-105.02 51.267l.22.45-.4.194-.24-.373.42-.27zm-41.69-11.655l.22.449-.41.196-.24-.376.43-.27zm-52.27-81.588l-.42.27-.25-.394.38-.278.29.401zm11.76-16.64l-.48-.143.13-.424.43.075-.08.493zm85.49 116.724l-.47.166-.15-.42.4-.195.22.45zm-1.94 26.014l-.28.412-.37-.25.2-.392.45.23zm142.91 98.396l.38.332-.3.33-.36-.251.28-.411zm18.27-10.558l.5-.036.03.441-.43.086-.1-.491zm-10.06-140.203v-.5h.46l.03.464-.49.036zM1750.57-2.23l-.22-.45.41-.2.24.393-.43.257zm51.75 24.155l-.5.036-.03-.456.45-.073.08.493zm34.76-23.142l-.43-.266.28-.44.43.293-.28.413zm-24.7 163.514l-.02.5-.44-.021-.04-.443.5-.036zm25.63 14.358l.22.446-.39.202-.25-.37.42-.278zm125.57-64.02l.48-.168.14.414-.39.199-.23-.445zm1.7-26.352l.28-.412.36.25-.2.393-.44-.23zm29.51 47.636v-.5h.43l.06.431-.49.069zm-.36.048l-.11-.487.11.487zm20.65 146.321l.5-.069.06.452-.44.104-.12-.487zm-14.12 5.658l-.26-.424v-.003l.26.427zm-2.03 1.267h-.5v-.277l.24-.147.26.424zm-1.94 1.498l.3.401v.001l-.3-.402zm0 .001l-.3-.401.3.401zm0 .002l-.31-.398.01-.003.3.401zm-.01.003l.3.398v.002l-.3-.4zm-2.44 1.875l.32.376v.008l-.01.006-.31-.39zm-7.87 8.192l.4.301-.27.364-.39-.239.26-.426zm-146.21-90.118l-.26.425-.38-.232.18-.402.46.209zm1.01-25.085l-.46.178-.16-.419.4-.204.22.445zm125.58-64.02l-.23-.446.4-.201.25.368-.42.279zm-115.26 357.94l.28.415-.37.249-.29-.34.38-.324zm-61.39-72.128l-.38.324-.29-.341.3-.326.37.343zm8.72-23.682l.49-.081-.49.081zm-.1-.643l-.49.062-.06-.454.45-.097.1.489zm178.94-38.429l-.1-.489.46-.099.12.455-.48.133zm15.73 24.916l.33-.377.39.341-.36.378-.36-.342zM1889.17 478.6l.36.343-.3.325-.36-.268.3-.4zm-257.84 26.605l.01.5-.51.009v-.509h.5zm206.08-3.716l.5.052-.04.44-.45.008-.01-.5zm8.55-18.919l.38-.324.29.34-.31.325-.36-.341zm-61.31-72.213l-.28-.415.37-.249.29.34-.38.324zm-43.81-7.348l-.25-.429.37-.227.28.348-.4.308zm-119.66 71.537l-.39.304-.34-.445.48-.288.25.429zm115.6-78.21l.46-.208.18.407-.38.23-.26-.429zm-120.59 72.213l.26.429-.33.199-.28-.272.35-.356zm-25.87-13.513l-.09.492-.46-.085.05-.462.5.055zm14.8-134.122l-.5-.055.05-.44.44-.005.01.5zm37.88-17.737l-.38-.326.29-.339.37.252-.28.413zm94.8 64.781l.28-.413.37.256-.21.397-.44-.24zm-325.15 135.136v.5h-.48l-.02-.477.5-.023zm117.54 0l.5.015-.01.485h-.49v-.5zm-124.65-18.75l-.39.31-.27-.34.3-.315.36.345zm166.51-175.17l-.36-.345.32-.341.36.304-.32.382zm25.29 11.233l.07-.495.48.068-.06.482-.49-.055zm-14.8 133.784l.49.055-.04.445h-.45v-.5zm-.89-.042l.04-.499-.04.499zm-.27-.019l-.03.499.03-.499zm-.25-.013l-.02.499.02-.499zm-.11-.005l-.02.499.02-.499zm-.14-.004l.01-.5-.01.5zm-.05-.001v-.5h.01l-.01.5zm-220.02 24.324l.3.403-.43.311-.29-.438.42-.276zm39.24.507l.36.345-.31.326-.36-.275.31-.396zm166.51-175.17l.37-.331.3.343-.31.333-.36-.345zm-9.22-14.949l-.14-.481.44-.122.16.42-.46.183zm-228.07 64.105l-.49.092-.09-.449.44-.124.14.481zm-19.28 48.48l-.42.275-.26-.389.37-.284.31.398zm-74 169.173l.22.452-.4.189-.24-.373.42-.268zm113.83-53.801l.46-.19.18.439-.43.203-.21-.452zm-127.7 41.47l-.22.448-.38-.191.13-.412.47.155zm48.12-147.383l-.47-.155.13-.422.44.087-.1.49zm33.49-5.236l-.24-.44.4-.218.26.383-.42.275zm51.5 78.125l.42-.275.2.314-.24.285-.38-.324zm-143.42 136.656l-.07-.495.44-.064.11.438-.48.121zm-27.57-10.473l-.37.339-.02-.022-.02-.025.41-.292zm-4.48-6.25l-.41.292-.01-.024-.02-.025.44-.243zm-4.19-16.335l-.5-.055.5.055zm.03-.227l.49.048-.49-.048zm.01-.33l.08-.494.42.065v.429h-.5zm-76.44-11.655l-.49-.115.11-.449.45.069-.07.495zm-12.01 22.635l-.33.374-.38-.335.34-.375.37.336zm140.38 124.325l.32.379-.33.285-.32-.29.33-.374zm8.37-5.068l.48-.121.11.432-.41.157-.18-.468zm-221.22-153.463l-.5.002v-.002h.5zm4.4-39.95l.3.396-.39.3-.3-.383.39-.313zm34.84-10.473l.49.075-.07.455-.46-.031.04-.499zm18.18-120.524l.13-.482.43.118-.07.439-.49-.075zm-22.67-22.382l-.08-.493.44-.071.13.426-.49.138zm-95.553 15.456l-.499-.027.022-.402.397-.064.08.493zM936.89 420.83l-.391.312-.297-.371.356-.315.332.374zm-33.488-88.845c2.997 0 5.9.342 8.701.766l-.15.988c-2.781-.421-5.628-.754-8.551-.754v-1zm-50.9 51.179c-.171-28.32 22.718-51.179 50.9-51.179v1c-27.63 0-50.068 22.411-49.9 50.173l-1 .006zm51.154 51.088c-28.182 0-51.154-22.943-51.154-51.091h1c0 27.595 22.523 50.091 50.154 50.091v1zm27.67-8.188c-7.941 5.117-17.421 8.188-27.67 8.188v-1c10.046 0 19.339-3.01 27.128-8.028l.542.84zm81.874 103.102l-82.536-103.21.781-.624 82.535 103.21-.78.624zm-14.064 34.485c0-13.648 5.384-26.016 14.094-35.142l.72.69c-8.54 8.948-13.81 21.073-13.81 34.452h-1.004zm36.214 48.874c-20.93-6.397-36.214-25.843-36.214-48.874h1.004c0 22.577 14.98 41.645 35.5 47.918l-.29.956zm7.56 1.615l-7.52-1.604.21-.978 7.52 1.604-.21.978zm7.38.603c-2.49 0-4.96-.257-7.34-.597l.14-.99c2.35.337 4.78.587 7.2.587v1zm32.54-11.77c-8.88 7.333-20.16 11.77-32.54 11.77v-1c12.14 0 23.19-4.348 31.9-11.541l.64.771zm140.15 124.651l-140.8-124.662.66-.749 140.8 124.662-.66.749zm-5.08 15.42c0-5.93 1.81-11.52 5-16.081l.82.573c-3.07 4.392-4.82 9.782-4.82 15.508h-1zm28.49 28.456c-15.75 0-28.49-12.723-28.49-28.456h1c0 15.179 12.3 27.456 27.49 27.456v1zm28.5-28.456c0 15.733-12.74 28.456-28.5 28.456v-1c15.2 0 27.5-12.277 27.5-27.456h1zm-3.7-13.756c2.23 4.031 3.7 8.674 3.7 13.756h-1c0-4.885-1.41-9.363-3.58-13.271l.88-.485zm-3.84-5.37l3.81 5.321-.82.582-3.8-5.321.81-.582zm-11.92-7.7c4.65 1.546 8.69 4.125 11.89 7.656l-.75.67c-3.06-3.394-6.96-5.883-11.45-7.377l.31-.949zm-6.49-1.283l6.43 1.267-.19.981-6.43-1.267.19-.981zm-.74-.102c.24.036.47.07.7.096l-.11.993c-.25-.027-.5-.064-.74-.099l.15-.99zm.04.01l-.24.97.24-.97zm-.06-.012l-.12.993.12-.993zm-1.7-.159c.62 0 1.19.085 1.71.161l-.14.989c-.53-.077-1.04-.15-1.57-.15v-1zm-3.46.259c1.13-.173 2.25-.259 3.46-.259v1c-1.16 0-2.23.083-3.31.248l-.15-.989zm-23.54-95.996l24.1 96.369-.97.243-24.1-96.369.97-.243zm22.43-30.875c0 14.665-9.54 27.099-22.76 31.472l-.31-.95c12.82-4.242 22.07-16.302 22.07-30.522h1zm-1.89-10.462c1.11 3.325 1.89 6.759 1.89 10.462h-1c0-3.56-.75-6.883-1.84-10.146l.95-.316zm114.07-53.444l-114.33 54.054-.43-.904 114.33-54.054.43.904zm26.42 13.815c-11.16 0-20.95-5.577-27.04-13.974l.81-.587c5.92 8.158 15.41 13.561 26.23 13.561v1zm32.63-27.012c-2.92 15.349-16.4 27.012-32.63 27.012v-1c15.74 0 28.82-11.311 31.65-26.199l.98.187zm117.81.407h-118.3v-1h118.3v1zm50.23 44.51c-26.13 0-47.65-19.703-50.72-44.95l.99-.121c3.01 24.754 24.12 44.071 49.73 44.071v1zm50.39-42.817c-4.01 24.222-25.02 42.817-50.39 42.817v-1c24.87 0 45.47-18.229 49.4-41.98l.99.163zm206.45-3.298l-206.93 3.716-.02-1 206.93-3.716.02 1zm32.29 28.21c-16.83 0-30.57-12.522-32.8-28.641l.99-.137c2.17 15.637 15.49 27.778 31.81 27.778v1zm33.23-33.186c0 18.351-14.86 33.186-33.23 33.186v-1c17.82 0 32.23-14.389 32.23-32.186h1zm-7.9-21.183c4.8 5.739 7.9 13.113 7.9 21.183h-1c0-7.809-3-14.961-7.67-20.541l.77-.642zm105.18-111.076l-105.2 111.74-.73-.686 105.2-111.74.73.686zm26.53 7.927c-10 0-19.31-2.9-27.16-7.847l.53-.846a49.823 49.823 0 0026.63 7.693v1zm51.15-51.091c0 28.148-22.97 51.091-51.15 51.091v-1c27.63 0 50.15-22.496 50.15-50.091h1zm-51.15-51.092c28.18 0 51.15 22.943 51.15 51.092h-1c0-27.595-22.52-50.092-50.15-50.092v-1zm-2.82.149c.92-.074 1.85-.149 2.82-.149v1c-.93 0-1.82.072-2.74.146l-.08-.997zm-1.44.106c.48-.029.96-.067 1.44-.106l.08.997c-.48.038-.97.078-1.46.107l-.06-.998zm-19.77-145.77l20.29 146.2-.99.138-20.29-146.2.99-.138zm24.44-31.435c0 15.441-10.56 28.216-24.81 31.987l-.26-.966c13.83-3.661 24.07-16.055 24.07-31.021h1zm-33.22-33.186c18.37 0 33.22 14.835 33.22 33.186h-1c0-17.797-14.4-32.186-32.22-32.186v-1zm-24.9 11.404c6.09-6.942 14.93-11.404 24.9-11.404v1c-9.66 0-18.24 4.322-24.15 11.063l-.75-.66zm-128.22-88.09l128.87 88.007-.56.825-128.88-88.007.57-.825zm4.27-19.435c0 7.163-1.45 13.902-4.1 20.045l-.91-.395c2.59-6.02 4.01-12.625 4.01-19.65h1zm-51.15-51.092c28.18 0 51.15 22.943 51.15 51.092h-1c0-27.595-22.52-50.092-50.15-50.092v-1zm-48.59 35.227c6.66-20.386 25.96-35.227 48.59-35.227v1c-22.19 0-41.11 14.55-47.64 34.537l-.95-.31zM1561.73-75.78l184.78 31.588-.17.986-184.77-31.588.16-.986zm.5-.458c-.04.343-.08.65-.08.951h-1c0-.374.05-.743.09-1.076l.99.125zm0-.002v.001l-.99-.124v-.001l.99.124zm.09-1.074c0 .374-.05.742-.09 1.074l-.99-.124c.04-.343.08-.65.08-.95h1zm-33.23-33.186c18.29 0 33.23 14.834 33.23 33.186h-1c0-17.797-14.49-32.186-32.23-32.186v-1zm-33.22 33.186c0-18.351 14.85-33.186 33.22-33.186v1c-17.82 0-32.22 14.388-32.22 32.186h-1zm.3 3.558c-.15-1.133-.3-2.343-.3-3.558h1c0 1.14.14 2.286.29 3.43l-.99.128zm0 .029v-.001l.99-.183-.99.184zm0-.014v-.016l.99-.124v.016l-.99.124zm.12.962c-.03-.315-.08-.634-.12-.96l.99-.128c.05.325.09.65.13.97l-1 .118zM1259.11-7.02l237.55-66.3.26.963-237.54 66.3-.27-.962zm-30.05-20.288c13.82 0 25.76 8.49 30.65 20.583l-.92.375c-4.75-11.725-16.32-19.958-29.73-19.958v-1zm-33.23 33.186c0-18.351 14.86-33.186 33.23-33.186v1c-17.82 0-32.23 14.388-32.23 32.186h-1zm1.03 7.884c-.6-2.554-1.03-5.129-1.03-7.884h1c0 2.65.42 5.143 1 7.656l-.97.228zm-102.18 37.763l102.49-38.345.35.936-102.49 38.345-.35-.936zm-44.56-26.89c19.56 0 36.55 11.004 45.18 27.122l-.89.472c-8.45-15.808-25.12-26.594-44.29-26.594v-1zm-51.153 51.091c0-28.148 22.973-51.091 51.153-51.091v1c-27.63 0-50.153 22.496-50.153 50.091h-1zm18.783 39.492c-11.44-9.381-18.783-23.625-18.783-39.492h1c0 15.552 7.203 29.518 18.423 38.718l-.64.774zm-55.725 75.247l55.645-75.93.8.591-55.639 75.93-.806-.591zm-15.58-4.512c5.934 0 11.428 1.718 16.225 4.37l-.484.875c-4.674-2.585-10.004-4.245-15.741-4.245v-1zm-33.226 33.186c0-18.266 14.853-33.186 33.226-33.186v1c-17.82 0-32.226 14.472-32.226 32.186h-1zm20.949 30.785c-12.275-4.886-20.949-16.805-20.949-30.785h1c0 13.554 8.408 25.115 20.319 29.856l-.37.929zm-22.623 83.191l22.325-83.784.966.258-22.325 83.784-.966-.258zm34.816-80.79c-1.578 0-2.994-.238-4.432-.478l.165-.986c1.447.242 2.784.464 4.267.464v1zm19.665-6.604c-5.493 4.115-12.278 6.604-19.665 6.604v-1c7.158 0 13.734-2.411 19.065-6.404l.6.8zm89.314 95.046l-89.977-95.102.726-.687 89.981 95.101-.73.688zm-7.83 20.518c0-8.067 3-15.442 7.81-21.183l.77.642c-4.67 5.576-7.58 12.728-7.58 20.541h-1zm.09.765a4.41 4.41 0 01-.09-.765h1c0 .157.03.342.07.586l-.98.179zm.08.586c0-.157-.04-.343-.08-.586l.98-.179c.04.221.1.5.1.765h-1zm-93.957 14.794l94.377-15.288.16.987-94.378 15.288-.159-.987zm-34.096-42.802c18.703 6.226 32.623 23.028 34.673 43.245l-.995.101c-2.009-19.818-15.657-36.293-33.994-42.398l.316-.948zm22.651-83.181l-22.325 83.784-.967-.258 22.325-83.784.967.258zm-.349.4l-.217-.036.165-.986.217.036-.165.986zm234.961 327.838l-76.53-11.655.15-.989 76.53 11.656-.15.988zm31.45-23.981c-14.73 0-27.14 10.061-30.89 23.62l-.96-.266c3.86-13.976 16.65-24.354 31.85-24.354v1zm6.33.666c-2.09-.417-4.17-.666-6.33-.666v-1c2.24 0 4.39.258 6.53.686l-.2.98zm48.52-147.295l-47.95 146.96-.95-.31 47.95-146.96.95.31zm-17.81-11.247a50.044 50.044 0 0017.5 10.621l-.33.942a50.873 50.873 0 01-17.85-10.832l.68-.731zm-153.48 137.41l152.81-137.416.67.743-152.81 137.416-.67-.743zm8.29 28.243c0-10.2-3.1-19.649-8.37-27.595l.83-.553c5.38 8.101 8.54 17.741 8.54 28.148h-1zm-.17 2.696c.06-.884.12-1.767.17-2.725l1 .059c-.06.96-.11 1.845-.17 2.729l-1-.063zm-.08 1.327c.03-.449.05-.888.08-1.327l1 .063c-.03.44-.06.879-.08 1.327l-1-.063zm455.22-308.615l-114.17-36.656.31-.952 114.16 36.656-.3.952zm-1.79 11.432c0-4.096.51-8.105 1.45-12.025l.97.233c-.92 3.85-1.42 7.78-1.42 11.792h-1zm1.28 11.263a49.754 49.754 0 01-1.28-11.263h1c0 3.764.42 7.442 1.26 11.036l-.98.227zm-227.21 63.425L1555 280.99l.27.962-227.56 64.021-.27-.963zm-11.77-19.802c5.55 5.627 9.82 12.449 12.38 20.125l-.95.317c-2.51-7.527-6.7-14.218-12.14-19.74l.71-.702zm77.91-89.61l-77.89 90.288-.75-.654 77.88-90.287.76.653zm17.88 5.748c-6.86 0-13.3-2.057-18.54-5.662l.56-.824c5.08 3.489 11.32 5.486 17.98 5.486v1zm30.14-19.379c-5.24 11.402-16.74 19.379-30.14 19.379v-1c12.99 0 24.15-7.733 29.23-18.797l.91.418zm395.06-7.391l146.13 90.118-.53.851-146.12-90.118.52-.851zm-25.8 12.341c10.24 0 19.23-4.821 25.15-12.228l.78.624c-6.09 7.627-15.36 12.604-25.93 12.604v-1zm-2.18-.183c.73.093 1.44.183 2.18.183v1c-.81 0-1.58-.099-2.31-.191l.13-.992zm-1.42-.154c.48.034.95.095 1.42.154l-.13.992c-.47-.06-.91-.116-1.36-.148l.07-.998zm-29.95 125.723l29.43-125.338.97.228-29.43 125.339-.97-.229zm19.97 21.21c-3-9.566-10.25-17.217-19.65-20.626l.34-.94c9.7 3.517 17.17 11.407 20.26 21.267l-.95.299zm179.43-38.09l-178.85 38.429-.21-.977 178.85-38.43.21.978zm.06-6.232c0 1.929.08 3.848.33 5.676l-.99.135c-.26-1.888-.34-3.855-.34-5.811h1zm6.19-23.829c-3.93 7.112-6.27 15.22-6.19 23.824l-1 .01c-.09-8.795 2.31-17.072 6.32-24.318l.87.484zm-183.43-79.503c-7.99-2.916-14.43-8.747-18.2-16.206l.89-.452c3.66 7.237 9.91 12.892 17.65 15.719l-.34.939zm-29.66 124.755l29.34-125.338.98.228-29.35 125.338-.97-.228zm-.84-.533c.47.06.92.117 1.36.148l-.07.998c-.48-.034-.95-.095-1.42-.154l.13-.992zm0 .001h.01l-.15.99.14-.99zm-2.31-.192c.81 0 1.58.099 2.31.191l-.13.992c-.73-.093-1.44-.183-2.18-.183v-1zm-24.9 11.404c6.09-6.942 14.94-11.404 24.9-11.404v1c-9.66 0-18.23 4.322-24.15 11.063l-.75-.659zm-93.97-64.78l94.63 64.697-.57.825-94.62-64.696.56-.826zm7.83-26.192c0 9.895-2.82 19.023-7.69 26.869l-.85-.527c4.78-7.695 7.54-16.642 7.54-26.342h1zm-2.05-13.99c1.28 4.431 2.05 9.123 2.05 13.99h-1c0-4.761-.75-9.359-2.01-13.712l.96-.278zm128.31-46.436l-128.62 47.045-.34-.94 128.62-47.044.34.939zm-2.62-7.009l-128.71 46.875-.34-.94 128.71-46.875.34.94zm-.68-8.072c0 2.565.41 5.057 1 7.484l-.98.235c-.59-2.472-1.02-5.047-1.02-7.719h1zm3.83-14.972c-2.34 4.503-3.83 9.576-3.83 14.972h-1c0-5.583 1.54-10.814 3.94-15.433l.89.461zm-143.08-99.038l142.92 98.396-.57.823-142.91-98.395.56-.824zm-22.38 10.808c8.66-.582 16.31-4.572 21.73-10.726l.75.66c-5.58 6.346-13.49 10.464-22.42 11.064l-.06-.998zm-6.22 128.602l5.75-128.125 1 .045-5.75 128.125-1-.045zm39.2 29.287c-7.03-15.221-21.52-26.344-38.77-28.769l.14-.99c17.59 2.473 32.36 13.816 39.54 29.339l-.91.42zm-45.55-13.815c-19.17 0-34.76 15.571-34.76 34.72h-1c0-19.703 16.03-35.72 35.76-35.72v1zm34.76 34.72c0-19.149-15.59-34.72-34.76-34.72v-1c19.73 0 35.76 16.017 35.76 35.72h-1zm-34.76 34.72c19.17 0 34.76-15.571 34.76-34.72h1c0 19.702-16.03 35.72-35.76 35.72v-1zm-34.76-34.72c0 19.149 15.59 34.72 34.76 34.72v1c-19.73 0-35.76-16.018-35.76-35.72h1zm40.25-178.526l-5.75 127.957-1-.045 5.75-127.957 1 .045zm-18.74-10.327c4.75 5.154 11.16 8.647 18.32 9.811l-.16.987c-7.38-1.2-14-4.802-18.89-10.12l.73-.678zm-151.61 110.239l150.95-110.304.59.807L1440.17 192.6l-.59-.808zm4.11 16.367c0-5.734-1.58-11.054-4.25-15.715l.87-.496c2.75 4.799 4.38 10.289 4.38 16.211h-1zm-.58 6.168c.33-2.013.58-4.095.58-6.168h1c0 2.15-.26 4.291-.6 6.332l-.98-.164zm114.41 37.129l-114.07-36.571.3-.952 114.08 36.571-.31.952zm46.17-31.142c-20.6.335-38.1 13.046-45.55 30.859l-.93-.386c7.6-18.166 25.45-31.131 46.46-31.473l.02 1zM1389.73 83.589c19.18 0 34.76-15.571 34.76-34.72h1c0 19.702-16.03 35.72-35.76 35.72v-1zm-34.76-34.72c0 19.149 15.59 34.72 34.76 34.72v1c-19.72 0-35.76-16.018-35.76-35.72h1zm34.76-34.72c-19.17 0-34.76 15.57-34.76 34.72h-1c0-19.703 16.04-35.72 35.76-35.72v1zm34.76 34.72c0-19.15-15.58-34.72-34.76-34.72v-1c19.73 0 35.76 16.017 35.76 35.72h-1zm-193.12 128.66l121.1-94.595.61.788-121.09 94.595-.62-.788zm4.46 15.536c-.25-5.401-1.91-10.473-4.58-14.883l.86-.517c2.74 4.542 4.46 9.775 4.72 15.354l-1 .046zm143.55 9.766l-143.08-9.29.06-.998 143.09 9.29-.07.998zm24.92-25.856c-12.4 2.827-22.06 12.891-24.39 25.449l-.99-.183c2.41-12.949 12.37-23.325 25.16-26.241l.22.975zm-9-77.828l9.39 77.28-.99.121-9.39-77.28.99-.121zm-5.48-.187c1.67 0 3.26-.083 4.94-.25l.09.994c-1.7.17-3.33.256-5.03.256v-1zm-36.68-15.973c9.13 9.786 22.19 15.973 36.68 15.973v1c-14.78 0-28.1-6.312-37.41-16.29l.73-.683zm49.6 14.811l8.97 77.788-1 .114-8.96-77.787.99-.115zm37.46-40.824c-3.33 20.128-18.27 36.333-37.83 41.366l-.25-.969c19.18-4.934 33.83-20.823 37.1-40.56l.98.163zm142.06 5.908l-142.57-5.49.04-1 142.57 5.49-.04 1zm3.65 13.09c-2.32-4.114-3.78-8.661-4.12-13.554l.99-.07c.34 4.734 1.75 9.14 4 13.134l-.87.49zm-150.81 109.74l150.95-110.388.59.807-150.95 110.389-.59-.808zm-23.55-10.569c9.62 0 18.2 4.118 24.21 10.634l-.73.678c-5.83-6.322-14.16-10.312-23.48-10.312v-1zm-.34 0h.34v1h-.34v-1zm-31.72 34.848c.42 7.739 3.42 14.639 8.33 19.958l-.74.679c-5.07-5.492-8.16-12.612-8.59-20.583l1-.054zm-143.55-9.762l143.08 9.29-.06.998-143.08-9.29.06-.998zm-15.68 22.028c7.83-4.659 13.49-12.393 15.16-21.618l.98.177c-1.72 9.525-7.56 17.501-15.63 22.301l-.51-.86zm40.73 91.936l-40.93-91.301.91-.409 40.93 91.301-.91.409zm18.39-3.083c-6.28 0-12.22 1.253-17.76 3.346l-.35-.936c5.63-2.13 11.7-3.41 18.11-3.41v1zm29.72 9.868c-8.38-6.19-18.59-9.868-29.72-9.868v-1c11.36 0 21.78 3.754 30.31 10.064l-.59.804zm78.73-90.363l-78.06 90.288-.75-.654 78.05-90.288.76.654zm-174.18-4.327c-3.17 1.027-6.43 1.629-9.88 1.629v-1c3.33 0 6.49-.581 9.58-1.581l.3.952zm40.41 91.199l-41.02-91.47.92-.409 41.01 91.469-.91.41zm-25.58 39.877c1.28-17.404 11.36-32.33 25.79-40.517l.49.87c-14.15 8.03-24.03 22.664-25.29 39.72l-.99-.073zm-115.44-.464h115.93v1h-115.93v-1zm-9.64-19.797c5.58 5.233 9.19 12.268 10.13 20.239l-.99.117c-.92-7.738-4.41-14.555-9.82-19.626l.68-.73zm84.71-113.781l-84.65 114.443-.8-.594 84.65-114.443.8.594zm15.66 4.595c-6.01 0-11.51-1.718-16.31-4.458l.5-.868c4.67 2.665 9.99 4.326 15.81 4.326v1zm39.93 133.369c0-19.703 16.03-35.72 35.76-35.72v1c-19.17 0-34.76 15.571-34.76 34.72h-1zm35.76 35.719c-19.73 0-35.76-16.017-35.76-35.719h1c0 19.149 15.59 34.719 34.76 34.719v1zm35.76-35.719c0 19.702-16.04 35.719-35.76 35.719v-1c19.17 0 34.76-15.57 34.76-34.719h1zm-35.76-35.72c19.72 0 35.76 16.017 35.76 35.72h-1c0-19.149-15.59-34.72-34.76-34.72v-1zm-40.05 67.365c-6.15-7.762-10.08-17.316-10.85-27.808l1-.073c.75 10.285 4.6 19.65 10.63 27.26l-.78.621zm-152.25 136.396l152.3-137.078.67.743-152.3 137.078-.67-.743zm-25.42-15.403a50.575 50.575 0 0126.13 15.44l-.74.669a49.599 49.599 0 00-25.62-15.135l.23-.974zm18.56-119.962l-18.18 120.524-.99-.149 18.18-120.525.99.15zm-.05.463c-.18-.021-.31-.038-.45-.038v-1c.21 0 .41.026.57.046l-.12.992zm.57.047c-.21 0-.41-.026-.57-.047l.12-.992c.18.022.32.039.45.039v1zm32.8-29.326c-1.98 16.459-15.8 29.326-32.8 29.326v-1c16.48 0 29.89-12.472 31.81-28.445l.99.119zm115.44.44h-115.94v-1h115.94v1zm-132.51-32.16c-4.67-2.666-10-4.326-15.82-4.326v-1c6.02 0 11.52 1.717 16.32 4.457l-.5.869zm85.22-114.58l-84.57 114.443-.8-.595 84.56-114.443.81.595zm-9.64-17.548c1.41 6.569 4.83 12.392 9.58 16.887l-.69.727c-4.89-4.627-8.41-10.628-9.87-17.403l.98-.211zm-193.344 18.104l192.804-18.496.1.995-192.809 18.497-.095-.996zm-7.948 20.28c4.5-5.41 7.329-12.229 7.496-19.793l.999.022c-.171 7.807-3.093 14.84-7.726 20.41l-.769-.639zm90.002 95.849l-89.981-95.186.727-.687 89.974 95.186-.72.687zm19.89-6.431c-7.15 0-13.73 2.491-19.24 6.492l-.58-.809c5.65-4.107 12.43-6.683 19.82-6.683v1zm-30.78-288.093c-19.17 0-34.76 15.571-34.76 34.72h-1c0-19.702 16.04-35.72 35.76-35.72v1zm34.77 34.718c.08-19.145-15.59-34.718-34.77-34.718v-1c19.73 0 35.85 16.016 35.77 35.722l-1-.004zm-34.77 34.722c19.18 0 34.77-15.57 34.77-34.72h1c0 19.703-16.04 35.72-35.77 35.72v-1zm-34.76-34.72c0 19.15 15.59 34.72 34.76 34.72v1c-19.72 0-35.76-16.017-35.76-35.72h1zm9.31 43.066c7.54 4.434 16.16 7.025 25.45 7.025v1c-9.48 0-18.28-2.645-25.96-7.163l.51-.862zm-56.387 76.149l55.727-76.014.81.591-55.73 76.014-.807-.591zm9.64 17.294c-1.415-6.483-4.827-12.221-9.577-16.632l.681-.733c4.891 4.542 8.413 10.459 9.873 17.152l-.977.213zm193.507-18.105l-192.971 18.496-.095-.995 192.976-18.497.09.996zm4.95-15.699c-2.66 4.495-4.33 9.649-4.49 15.216l-1-.03c.17-5.751 1.89-11.069 4.63-15.696l.86.51zm-89.08-68.558l88.96 67.905-.61.795-88.96-67.905.61-.795zm-37.18 15.944c14.49 0 27.38-6.103 36.51-15.888l.73.682c-9.31 9.979-22.46 16.206-37.24 16.206v-1zm150.11-104.437l-102.15 38.176-.35-.937 102.15-38.176.35.937zm20.59 16.654c-9.27-2.4-16.92-8.574-21.21-16.893l.89-.459c4.16 8.067 11.57 14.055 20.57 16.384l-.25.968zm-16.86 124.113l16.49-124.662.99.13-16.49 124.663-.99-.131zm.44-.451c.02.006.03.009.03.012l.02.004v1.001c-.17 0-.3-.047-.37-.068l.32-.949zm-.37-.068c.17 0 .3.047.37.068l-.32.949c-.01-.006-.02-.009-.03-.012l-.02-.004v-1.001zm-23.78 10.118c6-6.171 14.42-10.118 23.78-10.118v1c-9.07 0-17.24 3.824-23.07 9.815l-.71-.697zm-88.05-67.785l88.71 67.736-.61.795-88.71-67.737.61-.794zm9.08-28.235c0 10.748-3.34 20.642-8.97 28.913l-.83-.563c5.53-8.114 8.8-17.814 8.8-28.35h1zm-2.91-16.806a49.974 49.974 0 012.91 16.806h-1c0-5.769-1.01-11.287-2.85-16.471l.94-.335zm130.61-20.772v1c-.03 0-.05 0-.08-.003l.08-.997zm-.01 0h.01l-.09.997-.01-.001.09-.996zm.01 0l-.11.995-.05-.007.16-.988zm-.01 0h.01l-.16.988-.01-.002.16-.986zm-.05-.016l.04.013c.01.003.02.003.02.003l-.17.986a1.076 1.076 0 01-.2-.054l.31-.948zm-.37-.068c.18 0 .31.046.37.068l-.31.948-.04-.011c-.01-.003-.01-.004-.02-.005v-1zm-16.98 125.097l16.49-124.663.99.131-16.49 124.663-.99-.131zm15.27 8.946c-3.99-4.07-9.15-6.981-14.9-8.395l.24-.971c5.92 1.457 11.25 4.458 15.38 8.666l-.72.7zm121.59-94.382l-120.92 94.426-.62-.788 120.93-94.426.61.788zm-8.68-28.942a49.78 49.78 0 008.79 28.264l-.83.567a50.854 50.854 0 01-8.96-28.83h1zm.75-8.455c-.42 2.779-.75 5.537-.75 8.455h-1c0-2.993.34-5.81.76-8.605l.99.15zm-81.03-22.77l80.67 22.213-.26.964-80.68-22.213.27-.964zm-30.49 20.59c13.57 0 25.14-8.398 29.89-20.293l.93.37c-4.89 12.26-16.83 20.923-30.82 20.923v-1zm269.81-102.988l-237.46 66.3-.27-.962 237.46-66.301.27.963zm2.24 5.206c-1.13-1.643-2.07-3.536-2.84-5.505l.93-.365c.75 1.916 1.66 3.739 2.73 5.305l-.82.565zm-79.24 69.106l79.32-69.764.66.751-79.32 69.764-.66-.751zm-31.89-11.696c12.38 0 23.74 4.436 32.54 11.686l-.64.771a50.057 50.057 0 00-31.9-11.457v-1zm-48.51 34.971c6.75-20.3 25.96-34.97 48.51-34.97v1c-22.1 0-40.94 14.383-47.56 34.286l-.95-.316zm-80.06-22.284l80.67 21.96-.26.964-80.68-21.96.27-.964zm.87-4.5c0 1.733-.26 3.458-.51 5.06l-.99-.156c.25-1.607.5-3.26.5-4.905h1zm-.51-5.062c.25 1.602.51 3.328.51 5.061h-1c0-1.645-.25-3.297-.5-4.905l.99-.156zm244.92-55.098c5.83 5.576 13.66 9.068 22.4 9.068v1c-9.02 0-17.09-3.603-23.09-9.345l.69-.723zm-79.32 69.074l78.64-69.088.66.751-78.64 69.089-.66-.752zm12.68 33.99c0-12.792-4.85-24.415-12.73-33.282l.75-.664c8.03 9.039 12.98 20.895 12.98 33.947h-1zm0 .339v-.338h1v.338h-1zm142.63 5.99l-142.15-5.49.04-1 142.15 5.49-.04 1zm11.84-20.133c-5.91 4.91-10.07 11.814-11.32 19.71l-.99-.156c1.29-8.15 5.58-15.267 11.67-20.323l.64.77zm-52.32-82.496l52.43 81.842-.85.54-52.43-81.842.85-.54zm-13.11 2.304c4.42 0 8.66-.833 12.49-2.492l.39.917c-3.95 1.719-8.34 2.575-12.88 2.575v-1zm214.21 17.139c0-2.819.25-5.552.77-8.285l.98.184c-.5 2.673-.75 5.344-.75 8.1h-1zm3.67 19.016c-2.3-5.88-3.67-12.276-3.67-19.017h1c0 6.604 1.34 12.877 3.6 18.653l-.93.364zm-104.78 50.636l105.03-51.267.43.898-105.02 51.267-.44-.898zm-27.27-15.085c11.68 0 21.98 6.09 27.91 15.263l-.84.542c-5.75-8.901-15.74-14.805-27.07-14.805v-1zm-14.42 3.43c4.37-2.142 9.26-3.43 14.42-3.43v1c-4.99 0-9.73 1.246-13.98 3.328l-.44-.898zm-51.62-81.41l52.26 81.589-.85.54-52.26-81.589.85-.54zm11.81-16.224c-2.06 6.863-6.27 12.696-11.94 16.896l-.59-.803c5.49-4.077 9.57-9.73 11.57-16.38l.96.287zm183.78 31.937l-184.35-31.588.17-.986 184.35 31.588-.17.986zm-97.32 95.453c0-3.733-.75-7.309-1.92-10.645l.95-.331c1.19 3.42 1.97 7.108 1.97 10.976h-1zm-3.84 14.973c2.34-4.503 3.84-9.577 3.84-14.973h1c0 5.584-1.55 10.814-3.95 15.433l-.89-.46zm143.08 99.037l-142.91-98.395.56-.824 142.92 98.396-.57.823zm18.65-10.478c-7.16 1.413-13.33 5.154-17.99 10.399l-.75-.665c4.8-5.397 11.15-9.257 18.54-10.715l.2.981zm-9.67-140.73l10.07 140.203-1 .072-10.06-140.203.99-.072zm-1-.464h.51v1h-.51v-1zM1751-2.486c8.79 14.722 24.78 24.588 43.12 24.588v1c-18.71 0-35.02-10.067-43.98-25.075l.86-.513zm-105.77 50.99L1750.35-2.68l.44.9-105.12 51.182-.44-.9zM1794.2-66.341c-21.2 0-38.4 17.175-38.4 38.351h-1c0-21.73 17.65-39.351 39.4-39.351v1zm38.4 38.351c0-21.176-17.19-38.351-38.4-38.351v-1c21.76 0 39.4 17.622 39.4 39.351h-1zm-38.4 38.352c21.21 0 38.4-17.175 38.4-38.352h1c0 21.73-17.64 39.352-39.4 39.352v-1zm-38.4-38.352c0 21.177 17.2 38.352 38.4 38.352v1c-21.75 0-39.4-17.622-39.4-39.352h1zm46.44 49.423c14.48-2.341 26.88-10.954 34.41-22.915l.85.533c-7.68 12.194-20.32 20.98-35.1 23.369l-.16-.987zm9.64 140.901l-10.06-140.372 1-.072 10.06 140.373-1 .071zm25.71 14.6c-5.49-8.23-14.73-13.637-25.23-14.136l.05-.999c10.81.514 20.34 6.087 26.01 14.58l-.83.555zm126.22-63.853l-125.58 64.021-.45-.891 125.58-64.02.45.89zm-1.84-11.763c0 3.983.83 7.641 2.09 11.15l-.95.336c-1.28-3.586-2.14-7.36-2.14-11.486h1zm3.75-14.803c-2.34 4.5-3.75 9.405-3.75 14.803h-1c0-5.58 1.46-10.642 3.86-15.264l.89.46zM1837.36-1.63l128.2 87.5-.57.827-128.2-87.5.57-.827zm157.43 136.049c-.08 0-.14.013-.25.036l-.22-.975c.11-.023.27-.061.47-.061v1zm19.8 145.937l-20.3-146.368.99-.138 20.3 146.369-.99.137zm-13.89 5.163c4.36-2.648 9.15-4.525 14.27-5.718l.23.974c-5.03 1.171-9.72 3.011-13.98 5.599l-.52-.855zm-2.03 1.27l2.03-1.267.53.849-2.03 1.266-.53-.848zm-1.98 1.522c.51-.38.99-.742 1.35-1.015.18-.137.32-.248.42-.327.05-.04.08-.067.1-.083.01-.009 0-.007 0 .003-.01.003-.02.02-.04.045-.01.013-.03.038-.04.072a.392.392 0 00-.05.207h1c0 .105-.03.183-.04.212-.02.037-.04.064-.05.079a.505.505 0 01-.05.065c-.02.024-.05.046-.07.062-.03.033-.08.074-.13.117-.11.087-.27.205-.45.343-.36.276-.85.641-1.35 1.021l-.6-.801zm0 0v-.001l.6.803v.001l-.6-.803zm0 .002v-.002l.6.802-.01.002-.59-.802zm-.01.006v-.003l.61.796-.01.003-.6-.796zm-2.47 1.896c.35-.311 1.47-1.149 2.47-1.898l.6.8c-1.02.768-2.1 1.572-2.42 1.851l-.65-.753zm-7.94 8.269c2.31-3.07 4.96-5.888 7.95-8.283l.63.781c-2.93 2.336-5.52 5.091-7.78 8.103l-.8-.601zm-145.55-90.244l146.21 90.119-.52.851-146.21-90.119.52-.851zm3.37-13.341c0 4.98-1.21 9.696-3.18 13.976l-.91-.418c1.92-4.167 3.09-8.741 3.09-13.558h1zm-2.15-11.496c1.37 3.6 2.15 7.376 2.15 11.496h-1c0-3.989-.75-7.645-2.08-11.14l.93-.356zm125.34-63.397l-125.58 64.021-.45-.891 125.57-64.021.46.891zm26.92 14.497a33.11 33.11 0 01-27.56-14.664l.83-.557a32.117 32.117 0 0026.73 14.221v1zm.34-.048c-.07.017-.2.048-.34.048v-1c.01 0 .03-.002.12-.023l.22.975zm68.06 194.819c0 19.703-16.04 35.72-35.76 35.72v-1c19.17 0 34.76-15.571 34.76-34.72h1zm-35.76-35.719c19.72 0 35.76 16.017 35.76 35.719h-1c0-19.149-15.59-34.719-34.76-34.719v-1zm-35.76 35.719c0-19.702 16.03-35.719 35.76-35.719v1c-19.18 0-34.76 15.57-34.76 34.719h-1zm35.76 35.72c-19.73 0-35.76-16.017-35.76-35.72h1c0 19.149 15.58 34.72 34.76 34.72v1zm-175.33 112.092c5.24-3.519 11.6-5.49 18.29-5.49v1c-6.5 0-12.66 1.913-17.73 5.32l-.56-.83zm-60.73-72.038l61.39 72.129-.76.648-61.39-72.128.76-.649zm9-21.888c0 8.749-3.44 16.64-9.02 22.556l-.73-.686c5.42-5.741 8.75-13.39 8.75-21.87h1zm-.17-1.55c.08.463.17.983.17 1.55h-1c0-.473-.08-.915-.15-1.387l.98-.163zm-.09-.624c.02.202.06.406.09.624l-.98.163a7.05 7.05 0 01-.1-.663l.99-.124zm178.55-37.878l-178.94 38.429-.21-.978 178.94-38.429.21.978zm15.29 24.803c-7.51-6.565-13.15-15.264-15.88-25.159l.96-.266c2.68 9.699 8.21 18.231 15.58 24.672l-.66.753zM1888.8 478.258l104.53-111.065.72.685-104.52 111.065-.73-.685zm-19-6.661c7.39 0 14.17 2.488 19.67 6.603l-.6.8c-5.33-3.993-11.91-6.403-19.07-6.403v-1zm-238.97 33.608v-.507h1v.507h-1zm206.59-3.216l-206.08 3.716-.02-1 206.09-3.716.01 1zm8.9-19.078c-4.66 4.987-7.66 11.473-8.41 18.63l-.99-.104c.77-7.371 3.86-14.061 8.67-19.209l.73.683zm-61.29-72.878l61.31 72.213-.77.647-61.3-72.213.76-.647zm-18.4 5.229c6.59 0 12.66-1.913 17.74-5.32l.56.83c-5.25 3.518-11.52 5.49-18.3 5.49v-1zm-25.39-12.561c5.91 7.574 15.07 12.561 25.39 12.561v1c-10.65 0-20.09-5.148-26.18-12.945l.79-.616zm-120.31 71.416l119.66-71.537.51.858-119.66 71.537-.51-.858zm9.9 30.581c0-11.289-3.77-21.656-10.04-29.848l.79-.608c6.41 8.362 10.25 18.942 10.25 30.456h-1zm105.5-108.153c-1.89-4.12-2.92-8.667-2.92-13.553h1c0 4.742 1 9.147 2.83 13.136l-.91.417zm-120.39 71.576l120.59-72.214.51.858-120.59 72.213-.51-.857zm-25.53-13.577a50.376 50.376 0 0126.14 13.65l-.71.711a49.337 49.337 0 00-25.61-13.377l.18-.984zm15.2-133.575l-14.8 134.122-.99-.11 14.8-134.122.99.11zm37.77-17.466c-9.31 10.83-22.97 17.74-38.26 17.911l-.01-1c14.99-.167 28.38-6.94 37.51-17.563l.76.652zm94.14 64.868l-94.8-64.781.56-.826 94.8 64.781-.56.826zm-4.11 14.621c0-5.58 1.46-10.73 3.95-15.274l.88.48c-2.42 4.408-3.83 9.394-3.83 14.794h-1zm-116.88 121.706c0 19.703-16.04 35.72-35.77 35.72v-1c19.18 0 34.77-15.571 34.77-34.72h1zm-35.77-35.719c19.73 0 35.77 16.017 35.77 35.719h-1c0-19.149-15.59-34.719-34.77-34.719v-1zM1545 504.698c0-19.702 16.04-35.719 35.76-35.719v1c-19.17 0-34.76 15.57-34.76 34.719h-1zm35.76 35.72c-19.72 0-35.76-16.017-35.76-35.72h1c0 19.149 15.59 34.72 34.76 34.72v1zm-168.11-37.824h117.54v1h-117.54v-1zm-6.71-18.561c4.2 5.313 6.86 11.831 7.21 19.037l-1 .047c-.33-6.983-2.91-13.303-7-18.463l.79-.621zm166.47-174.515l-166.5 175.17-.73-.689 166.51-175.17.72.689zm24.86 11.384c-9.65-1.364-18.45-5.373-25.54-11.346l.64-.764c6.95 5.851 15.57 9.782 25.04 11.12l-.14.99zm-15.23 133.234l14.8-133.784.99.11-14.8 133.784-.99-.11zm-.35-.486c.29.022.57.041.85.041v1c-.32 0-.63-.022-.93-.043l.08-.998zm-.28-.018l.28.018-.08.998-.26-.019.06-.997zm-.25-.015c.08.004.17.009.25.015l-.06.997-.24-.013.05-.999zm-.12-.005l.12.005-.05.999-.11-.005.04-.999zm-.15-.004l.15.004-.04.999-.13-.003.02-1zm-.05-.001l.05.001-.02 1-.05-.001.02-1zm-.08 0h.07v1h-.07v-1zm-51.07 49.471c.86-27.38 23.4-49.471 51.07-49.471v1c-27.13 0-49.23 21.659-50.07 48.502l-1-.031zm-149.6-30.566c-7.16 0-13.65 2.41-18.98 6.322l-.6-.806c5.49-4.027 12.19-6.516 19.58-6.516v1zm19.65 6.822c-5.5-4.246-12.24-6.822-19.65-6.822v-1c7.65 0 14.6 2.661 20.26 7.03l-.61.792zm167.18-175.221l-166.51 175.17-.72-.689 166.5-175.17.73.689zm-9.12-15.477c2.18 5.517 5.28 10.451 9.13 14.801l-.75.663c-3.93-4.433-7.09-9.466-9.31-15.097l.93-.367zm-228.67 63.807l228.07-64.105.27.962-228.07 64.105-.27-.962zm.4 8.758c0-2.841-.25-5.513-.75-8.185l.98-.184c.51 2.733.77 5.467.77 8.369h-1zm-19.85 39.805c12.06-9.201 19.85-23.584 19.85-39.805h1c0 16.55-7.95 31.221-20.24 40.601l-.61-.796zm50.71 77.701l-50.82-77.028.83-.55 50.83 77.027-.84.551zm-124.61 91.418l113.82-53.801.43.904-113.82 53.801-.43-.904zm-13.43-12.328c5.74 2.826 10.63 7.11 14.07 12.512l-.85.536c-3.33-5.24-8.08-9.402-13.67-12.151l.45-.897zm48.37-146.778l-48.12 147.382-.95-.31 48.12-147.383.95.311zm8.82 1.274c-3.24 0-6.41-.342-9.4-.939l.2-.981c2.93.585 6.03.92 9.2.92v1zm24.43-6.226c-7.26 3.922-15.63 6.226-24.43 6.226v-1c8.63 0 16.83-2.258 23.95-6.106l.48.88zm50.84 77.96l-51.5-78.125.84-.55 51.5 78.125-.84.55zm-7.86 20.587c0-8.152 3.01-15.444 7.9-21.186l.76.648c-4.75 5.576-7.66 12.642-7.66 20.538h-1zm2.4 12.352a32.77 32.77 0 01-2.4-12.352h1c0 4.242.83 8.316 2.33 11.972l-.93.38zm-141.09 103.111c1.19 0 2.33-.001 3.48-.164l.14.99c-1.23.175-2.45.174-3.62.174v-1zm-23.65-10.481c5.91 6.408 14.32 10.481 23.65 10.481v1c-9.62 0-18.3-4.204-24.39-10.803l.74-.678zm-4.45-6.202l4.49 6.25-.82.583-4.48-6.25.81-.583zm-4.13-15.503c0 5.648 1.58 10.886 4.17 15.552l-.88.485c-2.66-4.794-4.29-10.198-4.29-16.037h1zm.04-.485c-.02.193-.04.352-.04.485h-1c0-.199.02-.415.04-.596l1 .111zm.02-.235c0 .079-.01.159-.02.235l-1-.111.03-.22.99.096zm.02-.378c0 .127-.01.257-.02.378l-.99-.095c.01-.109.01-.203.01-.283h1zm-76.87-12.15l76.45 11.656-.15.988-76.45-11.655.15-.989zm-12.45 22.794c5.7-6.276 9.88-13.886 11.89-22.414l.98.229c-2.05 8.703-6.33 16.464-12.13 22.857l-.74-.672zm140.42 125.035l-140.38-124.325.66-.748 140.38 124.324-.66.749zm8.88-4.974c-3.07 1.159-5.81 2.899-8.23 4.979l-.65-.758c2.49-2.143 5.33-3.95 8.52-5.157l.36.936zm-23.8-97.211l24.1 96.622-.97.242-24.1-96.622.97-.242zm-162.34-22.001c19.18 0 34.77-15.57 34.77-34.719h1c0 19.702-16.04 35.719-35.77 35.719v-1zm-34.76-34.721c.08 19.152 15.67 34.721 34.76 34.721v1c-19.64 0-35.68-16.017-35.76-35.717l1-.004zm34.76-34.718c-19.17 0-34.76 15.571-34.76 34.72h-1c0-19.703 16.04-35.72 35.76-35.72v1zm34.77 34.72c0-19.149-15.59-34.72-34.77-34.72v-1c19.73 0 35.77 16.017 35.77 35.72h-1zm-34.68-50.092c-11.56 0-22.19 4.013-30.65 10.538l-.61-.792c8.62-6.65 19.47-10.746 31.26-10.746v1zm3.85.168c-1.27-.084-2.52-.168-3.85-.168v-1c1.37 0 2.65.086 3.92.17l-.07.998zm18.71-120.948l-18.18 120.524-.99-.149 18.18-120.524.99.149zm-22.67-22.595c3.08 10.728 11.48 19.044 22.31 22.038l-.27.964c-11.16-3.087-19.83-11.662-23.01-22.726l.97-.276zm-96.123 15.101l95.553-15.456.16.987-95.553 15.456-.16-.987zm-17.249 35.255c9.713-8.615 16.076-20.991 16.83-34.789l.998.055c-.768 14.074-7.259 26.697-17.165 35.482l-.663-.748zM1018.7 523.93l-82.201-102.788.781-.624 82.2 102.787-.78.625zM903.402 417.711c19.175 0 34.764-15.57 34.764-34.719h1c0 19.702-16.038 35.719-35.764 35.719v-1zm-34.763-34.719c0 19.149 15.589 34.719 34.763 34.719v1c-19.725 0-35.763-16.017-35.763-35.719h1zm34.763-34.72c-19.174 0-34.763 15.571-34.763 34.72h-1c0-19.703 16.038-35.72 35.763-35.72v1zm34.764 34.72c0-19.149-15.589-34.72-34.764-34.72v-1c19.726 0 35.764 16.017 35.764 35.72h-1z" fill="#9A92EA" opacity=".18"/><defs><linearGradient id="paint0_linear" x1="497.683" y1="1019.43" x2="1742.62" y2="-294.23" gradientUnits="userSpaceOnUse"><stop stop-color="#fff" stop-opacity=".5"/><stop offset="1" stop-color="#A3A3DB"/></linearGradient></defs></svg>