<svg width="126" height="82" fill="none" xmlns="http://www.w3.org/2000/svg"><path d="M37.79 48.779v16.4h7.37v-16.4h7.34L41.475 29.436 30.45 48.779h7.34zm43.05-2.943v-16.4h7.37v16.4h7.34L84.525 65.18 73.5 45.836h7.34z" fill="#9A92EA"/><path fill-rule="evenodd" clip-rule="evenodd" d="M70.16 0c13.558 0 26.357 6.844 33.918 17.997C117.13 22.602 126 35.022 126 49.048 126 67.214 111.216 82 93.053 82H35.48C15.924 82 0 66.073 0 46.47c0-19.56 15.924-35.486 35.48-35.486 2.113 0 4.183.17 6.21.507A40.912 40.912 0 0170.16 0zM35.48 69.326h57.573c11.194 0 20.275-9.083 20.275-20.278 0-9.167-6.167-17.236-14.953-19.602l-2.492-.634-1.31-2.239c-5.11-8.576-14.446-13.899-24.414-13.899-8.32 0-16.135 3.634-21.542 9.928l-2.66 3.168-3.971-1.183c-2.07-.634-4.267-.93-6.505-.93-12.588 0-22.81 10.225-22.81 22.814s10.223 22.855 22.81 22.855z" fill="#A8CFEF"/></svg>