<svg width="24" height="24" fill="none" xmlns="http://www.w3.org/2000/svg"><path fill-rule="evenodd" clip-rule="evenodd" d="M12 5c-2.357 0-4.4.5-6.129 1.5l1.258.875C8.543 6.625 10.114 6.25 12 6.25c5.186 0 9.429 3.375 9.429 7.5H23C23 8.875 18.129 5 12 5zM1 6.25l2.514 1.875C1.943 9.625 1 11.625 1 13.75h1.571c0-1.875.786-3.5 2.2-4.75l3.458 2.5c-.629.625-.943 1.375-.943 2.25 0 2.125 2.043 3.75 4.714 3.75 1.257 0 2.357-.375 3.143-1l4.714 3.5 1.1-.875L2.1 5.375 1 6.25zm8.329 6.125l4.557 3.375c-.472.25-1.1.5-1.886.5-1.729 0-3.143-1.125-3.143-2.5 0-.5.157-1 .472-1.375zm7.385 2l-1.571-1.125c-.314-1-1.414-1.875-2.829-2l-1.571-1.125C11.214 10 11.529 10 12 10c2.671 0 4.714 1.625 4.714 3.75v.625z" fill="#9296BD"/></svg>