<svg width="83" height="72" fill="none" xmlns="http://www.w3.org/2000/svg"><path d="M62.5-39.931c-8.746.001-17.395 1.637-25.385 4.802-7.99 3.165-15.144 7.789-20.998 13.57a1.373 1.373 0 00-.382.39c-.242.26-.461.535-.656.825l-3.66 3.986a2.03 2.03 0 00-.492.68C3.767-6.486-.048 4.441 0 15.624c.011 10.996 3.686 21.741 10.56 30.88C17.434 55.64 27.2 62.76 38.62 66.96c11.422 4.201 23.987 5.296 36.107 3.145 12.12-2.151 23.251-7.45 31.986-15.23 8.736-7.778 14.683-17.685 17.09-28.47s1.166-21.963-3.566-32.12c-4.732-10.158-12.742-18.84-23.02-24.947C86.942-36.77 74.86-40.03 62.5-40.03v.098zm0 96.287c-8.269-.059-16.365-2.106-23.433-5.926C32 46.61 26.226 41.161 22.356 34.66c-3.87-6.502-5.69-13.813-5.269-21.16.422-7.348 3.07-14.457 7.662-20.574l3.88-4.18a5.47 5.47 0 00.71-.827c5.19-4.916 11.671-8.607 18.863-10.741 7.191-2.134 14.866-2.644 22.334-1.484 7.468 1.16 14.494 3.954 20.447 8.13 5.953 4.175 10.646 9.603 13.656 15.793 3.01 6.19 4.243 12.948 3.588 19.668-.655 6.72-3.177 13.188-7.34 18.825-4.163 5.636-9.836 10.264-16.508 13.466-6.672 3.202-14.134 4.878-21.715 4.877l-.164-.098z" fill="#F7FAFC"/><circle cx="62.5" cy="11.5" r="33.5" fill="#F7FAFC"/></svg>