<svg width="500" height="505" fill="none" xmlns="http://www.w3.org/2000/svg"><path d="M30.253 358.526V371h-1.746v-10.98h-5.994V371h-1.746v-12.474h9.486zm11.254 7.794c0 .744-.108 1.416-.324 2.016a4.532 4.532 0 01-.918 1.548 4.01 4.01 0 01-1.386 1.008 4.489 4.489 0 01-1.764.342 4.489 4.489 0 01-1.764-.342 4.195 4.195 0 01-1.404-1.008 4.693 4.693 0 01-.9-1.548c-.216-.6-.324-1.272-.324-2.016 0-.732.108-1.398.324-1.998a4.66 4.66 0 01.9-1.566 3.987 3.987 0 011.404-.99c.54-.24 1.128-.36 1.764-.36.636 0 1.224.12 1.764.36.54.228 1.002.558 1.386.99.396.432.702.954.918 1.566.216.6.324 1.266.324 1.998zm-1.746 0c0-1.056-.24-1.89-.72-2.502-.468-.624-1.11-.936-1.926-.936-.816 0-1.464.312-1.944.936-.468.612-.702 1.446-.702 2.502 0 1.056.234 1.896.702 2.52.48.612 1.128.918 1.944.918.816 0 1.458-.306 1.926-.918.48-.624.72-1.464.72-2.52zm7.359-3.276c0 .396-.012.822-.036 1.278a16.982 16.982 0 01-.288 2.682c-.084.432-.192.84-.324 1.224a5.55 5.55 0 01-.504 1.08 3.714 3.714 0 01-.72.9 4.274 4.274 0 01-1.008.648 4.371 4.371 0 01-1.35.324l-.234-1.404c.588-.12 1.05-.342 1.386-.666.348-.324.624-.72.828-1.188.18-.408.312-.87.396-1.386.084-.516.144-1.05.18-1.602.036-.564.054-1.128.054-1.692.012-.564.018-1.098.018-1.602h6.228V371h-1.674v-7.956H47.12zm6.402 9.702c.132.06.3.114.504.162.216.06.426.09.63.09.66 0 1.176-.15 1.548-.45.372-.288.708-.762 1.008-1.422a53.684 53.684 0 01-2.124-4.572 41.276 41.276 0 01-1.62-4.914h1.8c.132.54.288 1.122.468 1.746.192.624.402 1.266.63 1.926.228.66.474 1.32.738 1.98.264.66.54 1.296.828 1.908.456-1.26.852-2.508 1.188-3.744.336-1.236.654-2.508.954-3.816h1.728a72.82 72.82 0 01-1.44 5.094 52.458 52.458 0 01-1.71 4.554 8.663 8.663 0 01-.756 1.386 3.98 3.98 0 01-.846.972 3.106 3.106 0 01-1.062.558c-.384.12-.822.18-1.314.18a2.52 2.52 0 01-.414-.036 2.705 2.705 0 01-.432-.072 3.484 3.484 0 01-.378-.09 1.963 1.963 0 01-.234-.09l.306-1.35zm11.107-11.106v2.754c0 .708.18 1.206.54 1.494.36.276.852.414 1.476.414.456 0 .834-.024 1.134-.072.312-.048.588-.102.828-.162v-4.428h1.674V371h-1.674v-3.636a22.32 22.32 0 01-.378.09c-.156.036-.336.072-.54.108a45.1 45.1 0 01-.612.072 5.705 5.705 0 01-.63.036c-.516 0-.99-.054-1.422-.162a2.854 2.854 0 01-1.098-.54c-.3-.252-.54-.582-.72-.99-.168-.42-.252-.942-.252-1.566v-2.772h1.674zm11.704 8.154c.396 0 .744-.006 1.044-.018.312-.024.57-.06.774-.108v-2.79c-.12-.06-.318-.108-.594-.144a5.548 5.548 0 00-.972-.072 6.55 6.55 0 00-.81.054 2.416 2.416 0 00-.774.234c-.228.108-.42.264-.576.468-.156.192-.234.45-.234.774 0 .6.192 1.02.576 1.26.384.228.906.342 1.566.342zm-.144-8.388c.672 0 1.236.09 1.692.27.468.168.84.414 1.116.738.288.312.492.69.612 1.134.12.432.18.912.18 1.44v5.85c-.144.024-.348.06-.612.108-.252.036-.54.072-.864.108-.324.036-.678.066-1.062.09a11.58 11.58 0 01-1.116.054 6.165 6.165 0 01-1.458-.162 3.36 3.36 0 01-1.152-.504 2.42 2.42 0 01-.756-.936c-.18-.384-.27-.846-.27-1.386 0-.516.102-.96.306-1.332.216-.372.504-.672.864-.9a3.96 3.96 0 011.26-.504 6.87 6.87 0 011.512-.162c.168 0 .342.012.522.036.18.012.348.036.504.072a8.05 8.05 0 01.684.126v-.468c0-.276-.03-.546-.09-.81a1.796 1.796 0 00-.324-.72 1.53 1.53 0 00-.648-.504c-.264-.132-.612-.198-1.044-.198-.552 0-1.038.042-1.458.126-.408.072-.714.15-.918.234l-.198-1.386c.216-.096.576-.186 1.08-.27a8.76 8.76 0 011.638-.144zm14.246.234V371h-1.62v-7.128c-.36.456-.756.99-1.188 1.602a65.746 65.746 0 00-1.296 1.908c-.432.648-.846 1.29-1.242 1.926A73.47 73.47 0 0084.063 371h-1.494v-9.36h1.62v6.732a66 66 0 011.062-1.692 48.772 48.772 0 012.502-3.582c.432-.564.834-1.05 1.206-1.458h1.476zm-3.924-1.512c-.756 0-1.374-.192-1.854-.576-.468-.384-.75-.918-.846-1.602l1.278-.342c.096.384.258.696.486.936.228.24.54.36.936.36s.708-.12.936-.36c.228-.24.39-.552.486-.936l1.26.342c-.096.684-.378 1.218-.846 1.602-.468.384-1.08.576-1.836.576zm13.404 1.512v1.404h-3.042V371H95.2v-7.956h-3.042v-1.404h7.758zm1.204 4.698c0-.828.12-1.548.36-2.16.24-.624.558-1.14.954-1.548a3.873 3.873 0 011.368-.918 4.273 4.273 0 011.584-.306c1.26 0 2.226.396 2.898 1.188.672.78 1.008 1.974 1.008 3.582v.288c0 .108-.006.21-.018.306h-6.408c.072.972.354 1.71.846 2.214s1.26.756 2.304.756c.588 0 1.08-.048 1.476-.144.408-.108.714-.21.918-.306l.234 1.404c-.204.108-.564.222-1.08.342-.504.12-1.08.18-1.728.18-.816 0-1.524-.12-2.124-.36a4.05 4.05 0 01-1.458-1.026 4.264 4.264 0 01-.864-1.53c-.18-.6-.27-1.254-.27-1.962zm6.426-.918c.012-.756-.18-1.374-.576-1.854-.384-.492-.918-.738-1.602-.738-.384 0-.726.078-1.026.234a2.318 2.318 0 00-.738.576c-.204.24-.366.516-.486.828a4.39 4.39 0 00-.216.954h4.644zm15.841 5.58h-1.674v-7.956h-4.176V371h-1.674v-9.36h7.524V371zm9.38-4.662c0-1.092-.27-1.932-.81-2.52-.54-.588-1.26-.882-2.16-.882-.504 0-.9.018-1.188.054a4.748 4.748 0 00-.666.126v5.904c.204.168.498.33.882.486.384.156.804.234 1.26.234.48 0 .888-.084 1.224-.252.348-.18.63-.42.846-.72a3.14 3.14 0 00.468-1.08c.096-.42.144-.87.144-1.35zm1.746 0c0 .708-.096 1.362-.288 1.962-.18.6-.45 1.116-.81 1.548-.36.432-.804.768-1.332 1.008-.516.24-1.11.36-1.782.36a4.43 4.43 0 01-1.44-.216c-.408-.144-.714-.282-.918-.414v3.744h-1.674v-12.402c.396-.096.888-.198 1.476-.306.6-.12 1.29-.18 2.07-.18.72 0 1.368.114 1.944.342a4.166 4.166 0 011.476.972c.408.42.72.936.936 1.548.228.6.342 1.278.342 2.034zm10.222-4.698V371h-1.62v-7.128c-.36.456-.756.99-1.188 1.602a65.746 65.746 0 00-1.296 1.908c-.432.648-.846 1.29-1.242 1.926a73.47 73.47 0 00-1.026 1.692h-1.494v-9.36h1.62v6.732a66 66 0 011.062-1.692 48.772 48.772 0 012.502-3.582c.432-.564.834-1.05 1.206-1.458h1.476zm4.386 1.08c.372-.3.804-.528 1.296-.684a4.554 4.554 0 011.44-.252c1.344 0 2.358.414 3.042 1.242.696.816 1.044 1.956 1.044 3.42 0 .624-.084 1.224-.252 1.8a4.322 4.322 0 01-.792 1.53 3.762 3.762 0 01-1.332 1.062c-.54.264-1.182.396-1.926.396-.852 0-1.56-.156-2.124-.468a3.634 3.634 0 01-1.35-1.278c-.324-.54-.552-1.17-.684-1.89a12.667 12.667 0 01-.198-2.286c0-1.044.072-2.016.216-2.916.156-.9.432-1.692.828-2.376a4.904 4.904 0 011.638-1.692c.708-.456 1.614-.762 2.718-.918.324-.048.606-.084.846-.108l.648-.09c.192-.024.366-.048.522-.072.156-.036.318-.072.486-.108l.18 1.512a1.791 1.791 0 01-.27.054l-.378.054a44.219 44.219 0 01-1.692.216c-1.188.132-2.1.492-2.736 1.08-.636.588-1.026 1.512-1.17 2.772zm-.108 2.862c0 .564.036 1.098.108 1.602.084.504.222.948.414 1.332.204.384.474.69.81.918.336.216.768.324 1.296.324.456 0 .846-.084 1.17-.252.324-.18.588-.42.792-.72.204-.3.354-.648.45-1.044.096-.408.144-.84.144-1.296 0-.408-.042-.804-.126-1.188a2.68 2.68 0 00-.414-1.026c-.204-.3-.48-.54-.828-.72-.336-.18-.762-.27-1.278-.27-.504 0-.99.108-1.458.324-.456.216-.81.48-1.062.792a6.576 6.576 0 00-.018.558v.666zm12.739.792c-.324 0-.642.012-.954.036-.3.012-.57.048-.81.108v3.222c.072.012.174.024.306.036l.45.036c.168 0 .336.006.504.018h.45c.732 0 1.296-.138 1.692-.414.396-.276.594-.72.594-1.332 0-.3-.066-.558-.198-.774a1.401 1.401 0 00-.504-.522 1.954 1.954 0 00-.702-.306 3.133 3.133 0 00-.828-.108zm-3.438-4.734h1.674v3.582a8.98 8.98 0 01.882-.144 9.436 9.436 0 011.134-.072c.492 0 .96.06 1.404.18.444.108.834.288 1.17.54.336.24.6.558.792.954.204.384.306.846.306 1.386 0 .564-.096 1.044-.288 1.44-.192.396-.462.72-.81.972a3.343 3.343 0 01-1.26.54c-.492.12-1.032.18-1.62.18-.564 0-1.134-.036-1.71-.108a12.493 12.493 0 01-1.674-.288v-9.162zm10.764 9.36h-1.674v-9.36h1.674V371zm6.135-7.956c0 .396-.012.822-.036 1.278a16.982 16.982 0 01-.288 2.682c-.084.432-.192.84-.324 1.224a5.55 5.55 0 01-.504 1.08 3.714 3.714 0 01-.72.9 4.274 4.274 0 01-1.008.648 4.371 4.371 0 01-1.35.324l-.234-1.404c.588-.12 1.05-.342 1.386-.666.348-.324.624-.72.828-1.188.18-.408.312-.87.396-1.386.084-.516.144-1.05.18-1.602.036-.564.054-1.128.054-1.692.012-.564.018-1.098.018-1.602h6.228V371h-1.674v-7.956h-2.952zm11.045 6.786c.708 0 1.266-.138 1.674-.414.408-.276.612-.72.612-1.332 0-.3-.06-.558-.18-.774a1.401 1.401 0 00-.504-.522 1.952 1.952 0 00-.72-.306 3.483 3.483 0 00-.882-.108c-.324 0-.66.012-1.008.036a4.231 4.231 0 00-.864.108v3.222c.072.012.18.024.324.036l.468.036c.18 0 .36.006.54.018h.54zm-3.546.972v-9.162h1.674v3.582a4.34 4.34 0 01.378-.072l.522-.072a9.837 9.837 0 011.17-.072c.516 0 1.002.06 1.458.18.456.108.852.288 1.188.54.348.24.624.558.828.954.204.384.306.846.306 1.386 0 .564-.096 1.044-.288 1.44-.192.396-.468.72-.828.972-.36.252-.792.432-1.296.54-.492.12-1.044.18-1.656.18-.6 0-1.188-.036-1.764-.108-.576-.06-1.14-.156-1.692-.288zM27.286 393.32c0 .744-.108 1.416-.324 2.016a4.532 4.532 0 01-.918 1.548 4.01 4.01 0 01-1.386 1.008 4.489 4.489 0 01-1.764.342 4.489 4.489 0 01-1.764-.342 4.195 4.195 0 01-1.404-1.008 4.693 4.693 0 01-.9-1.548c-.216-.6-.324-1.272-.324-2.016 0-.732.108-1.398.324-1.998a4.66 4.66 0 01.9-1.566 3.987 3.987 0 011.404-.99c.54-.24 1.128-.36 1.764-.36.636 0 1.224.12 1.764.36.54.228 1.002.558 1.386.99.396.432.702.954.918 1.566.216.6.324 1.266.324 1.998zm-1.746 0c0-1.056-.24-1.89-.72-2.502-.468-.624-1.11-.936-1.926-.936-.816 0-1.464.312-1.944.936-.468.612-.702 1.446-.702 2.502 0 1.056.234 1.896.702 2.52.48.612 1.128.918 1.944.918.816 0 1.458-.306 1.926-.918.48-.624.72-1.464.72-2.52zm10.707-4.68v1.404h-3.042V398h-1.674v-7.956H28.49v-1.404h7.758zm13.92-1.728c-.276.312-.6.69-.972 1.134-.36.432-.744.918-1.152 1.458a62.415 62.415 0 00-1.26 1.692 68.606 68.606 0 00-1.278 1.8c-.408.6-.798 1.2-1.17 1.8-.372.6-.708 1.17-1.008 1.71h7.02V398h-9.054v-1.17c.252-.48.546-1.008.882-1.584.348-.576.714-1.164 1.098-1.764.396-.6.804-1.206 1.224-1.818.42-.612.834-1.2 1.242-1.764.42-.564.822-1.092 1.206-1.584a43.94 43.94 0 011.08-1.296h-6.408v-1.494h8.55v1.386zM52.457 398v-13.68l1.675-.288v4.788c.312-.12.642-.21.99-.27.36-.072.714-.108 1.062-.108.744 0 1.362.108 1.854.324.492.204.882.498 1.17.882.3.372.51.822.63 1.35.12.528.18 1.11.18 1.746V398h-1.674v-4.896c0-.576-.042-1.068-.126-1.476-.072-.408-.198-.738-.378-.99a1.477 1.477 0 00-.72-.54c-.3-.12-.672-.18-1.116-.18a4.5 4.5 0 00-.558.036 7.741 7.741 0 00-.558.09 4.638 4.638 0 00-.468.09 2.932 2.932 0 00-.288.09V398h-1.674zm18.546-4.68c0 .744-.108 1.416-.324 2.016a4.532 4.532 0 01-.918 1.548 4.01 4.01 0 01-1.386 1.008 4.489 4.489 0 01-1.764.342 4.489 4.489 0 01-1.764-.342 4.195 4.195 0 01-1.404-1.008 4.693 4.693 0 01-.9-1.548c-.216-.6-.324-1.272-.324-2.016 0-.732.108-1.398.324-1.998a4.66 4.66 0 01.9-1.566 3.987 3.987 0 011.404-.99c.54-.24 1.128-.36 1.764-.36.636 0 1.224.12 1.764.36.54.228 1.002.558 1.386.99.396.432.702.954.918 1.566.216.6.324 1.266.324 1.998zm-1.746 0c0-1.056-.24-1.89-.72-2.502-.468-.624-1.11-.936-1.926-.936-.816 0-1.464.312-1.944.936-.468.612-.702 1.446-.702 2.502 0 1.056.234 1.896.702 2.52.48.612 1.128.918 1.944.918.816 0 1.458-.306 1.926-.918.48-.624.72-1.464.72-2.52zm4.101-4.41c.384-.096.894-.198 1.53-.306a13.237 13.237 0 012.196-.162c.744 0 1.362.108 1.854.324.492.204.882.498 1.17.882.3.372.51.822.63 1.35.12.528.18 1.11.18 1.746V398h-1.674v-4.896c0-.576-.042-1.068-.126-1.476-.072-.408-.198-.738-.378-.99a1.477 1.477 0 00-.72-.54c-.3-.12-.672-.18-1.116-.18a8.951 8.951 0 00-1.116.072 5.039 5.039 0 00-.756.108V398h-1.674v-9.09zm16.204 8.154c-.144.096-.426.222-.846.378-.408.144-.888.216-1.44.216-.564 0-1.098-.09-1.602-.27a3.525 3.525 0 01-1.296-.828 4.142 4.142 0 01-.882-1.422c-.216-.564-.324-1.236-.324-2.016 0-.684.102-1.308.306-1.872a4.138 4.138 0 01.882-1.476c.396-.42.876-.744 1.44-.972.564-.24 1.2-.36 1.908-.36.78 0 1.458.06 2.034.18.588.108 1.08.21 1.476.306v8.352c0 1.44-.372 2.484-1.116 3.132-.744.648-1.872.972-3.384.972a9.35 9.35 0 01-1.674-.144 9.577 9.577 0 01-1.35-.342L84 399.44c.336.132.744.246 1.224.342a7.116 7.116 0 001.53.162c.996 0 1.71-.198 2.142-.594.444-.396.666-1.026.666-1.89v-.396zm-.018-6.948a4.739 4.739 0 00-.684-.126 6.963 6.963 0 00-1.134-.072c-.9 0-1.596.294-2.088.882-.48.588-.72 1.368-.72 2.34 0 .54.066 1.002.198 1.386.144.384.33.702.558.954.24.252.51.438.81.558.312.12.63.18.954.18.444 0 .852-.06 1.224-.18.372-.132.666-.282.882-.45v-5.472zm8.012-1.674c.144 0 .306.012.486.036.192.012.378.036.558.072.18.024.342.054.486.09.156.024.27.048.342.072l-.288 1.458a4.885 4.885 0 00-.666-.162c-.3-.072-.69-.108-1.17-.108a4.15 4.15 0 00-.936.108c-.3.06-.498.102-.594.126V398H94.1v-8.964c.396-.144.888-.276 1.476-.396a9.066 9.066 0 011.98-.198zm11.75 4.878c0 .744-.108 1.416-.324 2.016a4.532 4.532 0 01-.918 1.548 4.01 4.01 0 01-1.386 1.008 4.489 4.489 0 01-1.764.342 4.489 4.489 0 01-1.764-.342 4.195 4.195 0 01-1.404-1.008 4.693 4.693 0 01-.9-1.548c-.216-.6-.324-1.272-.324-2.016 0-.732.108-1.398.324-1.998a4.66 4.66 0 01.9-1.566 3.987 3.987 0 011.404-.99c.54-.24 1.128-.36 1.764-.36.636 0 1.224.12 1.764.36.54.228 1.002.558 1.386.99.396.432.702.954.918 1.566.216.6.324 1.266.324 1.998zm-1.746 0c0-1.056-.24-1.89-.72-2.502-.468-.624-1.11-.936-1.926-.936-.816 0-1.464.312-1.944.936-.468.612-.702 1.446-.702 2.502 0 1.056.234 1.896.702 2.52.48.612 1.128.918 1.944.918.816 0 1.458-.306 1.926-.918.48-.624.72-1.464.72-2.52zm4.101-4.41c.384-.096.894-.198 1.53-.306a13.237 13.237 0 012.196-.162c.744 0 1.362.108 1.854.324.492.204.882.498 1.17.882.3.372.51.822.63 1.35.12.528.18 1.11.18 1.746V398h-1.674v-4.896c0-.576-.042-1.068-.126-1.476-.072-.408-.198-.738-.378-.99a1.477 1.477 0 00-.72-.54c-.3-.12-.672-.18-1.116-.18a8.951 8.951 0 00-1.116.072 5.039 5.039 0 00-.756.108V398h-1.674v-9.09zm16.204 8.154c-.144.096-.426.222-.846.378-.408.144-.888.216-1.44.216-.564 0-1.098-.09-1.602-.27a3.525 3.525 0 01-1.296-.828 4.142 4.142 0 01-.882-1.422c-.216-.564-.324-1.236-.324-2.016 0-.684.102-1.308.306-1.872a4.138 4.138 0 01.882-1.476c.396-.42.876-.744 1.44-.972.564-.24 1.2-.36 1.908-.36.78 0 1.458.06 2.034.18.588.108 1.08.21 1.476.306v8.352c0 1.44-.372 2.484-1.116 3.132-.744.648-1.872.972-3.384.972a9.35 9.35 0 01-1.674-.144 9.577 9.577 0 01-1.35-.342l.306-1.458c.336.132.744.246 1.224.342a7.116 7.116 0 001.53.162c.996 0 1.71-.198 2.142-.594.444-.396.666-1.026.666-1.89v-.396zm-.018-6.948a4.739 4.739 0 00-.684-.126 6.963 6.963 0 00-1.134-.072c-.9 0-1.596.294-2.088.882-.48.588-.72 1.368-.72 2.34 0 .54.066 1.002.198 1.386.144.384.33.702.558.954.24.252.51.438.81.558.312.12.63.18.954.18.444 0 .852-.06 1.224-.18.372-.132.666-.282.882-.45v-5.472zm14.194 8.154c-.876 0-1.674-.144-2.394-.432a5.092 5.092 0 01-1.854-1.26c-.516-.552-.918-1.23-1.206-2.034-.276-.816-.414-1.746-.414-2.79s.156-1.968.468-2.772c.324-.816.756-1.5 1.296-2.052a5.443 5.443 0 011.89-1.26 6.146 6.146 0 012.304-.432c.516 0 .978.036 1.386.108.42.072.78.156 1.08.252.312.096.564.192.756.288.192.096.324.168.396.216l-.504 1.44a2.792 2.792 0 00-.468-.234 9.122 9.122 0 00-.702-.252 5.164 5.164 0 00-.846-.198 4.67 4.67 0 00-.918-.09c-.66 0-1.254.114-1.782.342a3.687 3.687 0 00-1.35.99c-.372.432-.66.96-.864 1.584-.192.612-.288 1.302-.288 2.07 0 .744.084 1.422.252 2.034.18.612.444 1.14.792 1.584.348.432.78.768 1.296 1.008.528.24 1.14.36 1.836.36.804 0 1.47-.084 1.998-.252.528-.168.924-.318 1.188-.45l.45 1.44c-.084.06-.234.138-.45.234a7.42 7.42 0 01-.81.252 10.23 10.23 0 01-2.538.306zm8.858-1.476c.396 0 .744-.006 1.044-.018.312-.024.57-.06.774-.108v-2.79c-.12-.06-.318-.108-.594-.144a5.548 5.548 0 00-.972-.072 6.55 6.55 0 00-.81.054 2.416 2.416 0 00-.774.234c-.228.108-.42.264-.576.468-.156.192-.234.45-.234.774 0 .6.192 1.02.576 1.26.384.228.906.342 1.566.342zm-.144-8.388c.672 0 1.236.09 1.692.27.468.168.84.414 1.116.738.288.312.492.69.612 1.134.12.432.18.912.18 1.44v5.85c-.144.024-.348.06-.612.108-.252.036-.54.072-.864.108-.324.036-.678.066-1.062.09a11.58 11.58 0 01-1.116.054 6.165 6.165 0 01-1.458-.162 3.36 3.36 0 01-1.152-.504 2.42 2.42 0 01-.756-.936c-.18-.384-.27-.846-.27-1.386 0-.516.102-.96.306-1.332.216-.372.504-.672.864-.9a3.96 3.96 0 011.26-.504 6.87 6.87 0 011.512-.162c.168 0 .342.012.522.036.18.012.348.036.504.072a8.05 8.05 0 01.684.126v-.468c0-.276-.03-.546-.09-.81a1.796 1.796 0 00-.324-.72 1.53 1.53 0 00-.648-.504c-.264-.132-.612-.198-1.044-.198-.552 0-1.038.042-1.458.126-.408.072-.714.15-.918.234l-.198-1.386c.216-.096.576-.186 1.08-.27a8.76 8.76 0 011.638-.144zm12.878 4.932c0-1.092-.27-1.932-.81-2.52-.54-.588-1.26-.882-2.16-.882-.504 0-.9.018-1.188.054a4.748 4.748 0 00-.666.126v5.904c.204.168.498.33.882.486.384.156.804.234 1.26.234.48 0 .888-.084 1.224-.252.348-.18.63-.42.846-.72a3.14 3.14 0 00.468-1.08c.096-.42.144-.87.144-1.35zm1.746 0c0 .708-.096 1.362-.288 1.962-.18.6-.45 1.116-.81 1.548-.36.432-.804.768-1.332 1.008-.516.24-1.11.36-1.782.36a4.43 4.43 0 01-1.44-.216c-.408-.144-.714-.282-.918-.414v3.744h-1.674v-12.402c.396-.096.888-.198 1.476-.306.6-.12 1.29-.18 2.07-.18.72 0 1.368.114 1.944.342a4.166 4.166 0 011.476.972c.408.42.72.936.936 1.548.228.6.342 1.278.342 2.034zm4.03 4.662h-1.674v-9.36h1.674V398zm-.846-11.052c-.3 0-.558-.096-.774-.288-.204-.204-.306-.474-.306-.81 0-.336.102-.6.306-.792.216-.204.474-.306.774-.306.3 0 .552.102.756.306.216.192.324.456.324.792s-.108.606-.324.81a1.061 1.061 0 01-.756.288zm5.291 1.692h3.546v1.404h-3.546v4.32c0 .468.036.858.108 1.17.072.3.18.54.324.72.144.168.324.288.54.36.216.072.468.108.756.108.504 0 .906-.054 1.206-.162.312-.12.528-.204.648-.252l.324 1.386c-.168.084-.462.186-.882.306-.42.132-.9.198-1.44.198-.636 0-1.164-.078-1.584-.234a2.368 2.368 0 01-.99-.738 3.008 3.008 0 01-.54-1.188 8.508 8.508 0 01-.144-1.656v-8.352l1.674-.288v2.898zm8.844 8.154c.396 0 .744-.006 1.044-.018.312-.024.57-.06.774-.108v-2.79c-.12-.06-.318-.108-.594-.144a5.548 5.548 0 00-.972-.072 6.55 6.55 0 00-.81.054 2.416 2.416 0 00-.774.234c-.228.108-.42.264-.576.468-.156.192-.234.45-.234.774 0 .6.192 1.02.576 1.26.384.228.906.342 1.566.342zm-.144-8.388c.672 0 1.236.09 1.692.27.468.168.84.414 1.116.738.288.312.492.69.612 1.134.12.432.18.912.18 1.44v5.85c-.144.024-.348.06-.612.108-.252.036-.54.072-.864.108-.324.036-.678.066-1.062.09a11.58 11.58 0 01-1.116.054 6.165 6.165 0 01-1.458-.162 3.36 3.36 0 01-1.152-.504 2.42 2.42 0 01-.756-.936c-.18-.384-.27-.846-.27-1.386 0-.516.102-.96.306-1.332.216-.372.504-.672.864-.9a3.96 3.96 0 011.26-.504 6.87 6.87 0 011.512-.162c.168 0 .342.012.522.036.18.012.348.036.504.072a8.05 8.05 0 01.684.126v-.468c0-.276-.03-.546-.09-.81a1.796 1.796 0 00-.324-.72 1.53 1.53 0 00-.648-.504c-.264-.132-.612-.198-1.044-.198-.552 0-1.038.042-1.458.126-.408.072-.714.15-.918.234l-.198-1.386c.216-.096.576-.186 1.08-.27a8.76 8.76 0 011.638-.144zm9.188 9.774c-1.032-.024-1.764-.246-2.196-.666-.432-.42-.648-1.074-.648-1.962V384.32l1.674-.288v11.25c0 .276.024.504.072.684.048.18.126.324.234.432.108.108.252.192.432.252.18.048.402.09.666.126l-.234 1.404z" fill="#9296BD"/><g opacity=".2" filter="url(#filter0_d)"><circle cx="105.5" cy="292.5" r="51.5" fill="url(#paint0_linear)"/></g><g filter="url(#filter1_d)"><circle cx="105.5" cy="292.5" r="37.5" fill="url(#paint1_linear)"/></g><path d="M116.779 286.279c0-6.219-5.06-11.279-11.279-11.279-6.22 0-11.28 5.06-11.28 11.279 0 5.154 3.475 9.511 8.204 10.853v4.665h-3.076a1.026 1.026 0 00-.725 1.75l6.152 6.153a1.023 1.023 0 001.45 0l6.152-6.153a1.025 1.025 0 00-.725-1.75h-3.076v-4.665c4.729-1.342 8.203-5.699 8.203-10.853zm-20.507 0c0-5.088 4.139-9.228 9.228-9.228 5.089 0 9.229 4.14 9.229 9.228 0 5.089-4.14 9.229-9.229 9.229-5.089 0-9.228-4.14-9.228-9.229zm11.279 17.569h1.626l-3.677 3.676-3.677-3.676h1.626c.567 0 1.026-.459 1.026-1.026v-5.31c.337.03.679.047 1.025.047.346 0 .688-.017 1.025-.047v5.31c0 .567.459 1.026 1.026 1.026z" fill="#EAEAEA"/><path d="M106.525 292.432v-1.499a3.08 3.08 0 002.062-2.903 3.08 3.08 0 00-3.076-3.077 1.026 1.026 0 111.025-1.025 1.025 1.025 0 002.051 0 3.08 3.08 0 00-2.062-2.903v-.898a1.025 1.025 0 00-2.051 0v.905a3.08 3.08 0 00-2.039 2.896 3.08 3.08 0 003.076 3.076 1.027 1.027 0 010 2.051c-.566 0-1.026-.46-1.026-1.025a1.025 1.025 0 10-2.05 0c0 1.332.852 2.469 2.039 2.896v1.506a1.025 1.025 0 002.051 0z" fill="#EAEAEA"/><path d="M325.559 272.108a20.835 20.835 0 01-2.574-.162 6.704 6.704 0 01-.792-.144v-12.096c.24-.06.504-.108.792-.144a21.077 21.077 0 012.556-.162c.72 0 1.392.054 2.016.162.636.108 1.182.294 1.638.558.468.252.834.588 1.098 1.008.264.42.396.936.396 1.548 0 .684-.162 1.248-.486 1.692a2.948 2.948 0 01-1.296.972c.732.216 1.314.558 1.746 1.026.432.468.648 1.128.648 1.98 0 1.248-.462 2.19-1.386 2.826-.912.624-2.364.936-4.356.936zm-1.638-5.922v4.392c.132.012.288.024.468.036.156.012.336.024.54.036h.738c.516 0 1.002-.03 1.458-.09a4.32 4.32 0 001.224-.36c.348-.168.624-.402.828-.702.216-.3.324-.678.324-1.134 0-.408-.078-.75-.234-1.026a1.706 1.706 0 00-.684-.684 3.145 3.145 0 00-1.044-.36 7.908 7.908 0 00-1.368-.108h-2.25zm0-1.404h1.836c.432 0 .84-.03 1.224-.09s.714-.168.99-.324c.288-.156.51-.36.666-.612.168-.252.252-.57.252-.954 0-.36-.084-.66-.252-.9a1.711 1.711 0 00-.702-.594 3.437 3.437 0 00-1.026-.342 7.04 7.04 0 00-1.26-.108c-.444 0-.792.006-1.044.018-.252.012-.48.03-.684.054v3.852zm13.168 2.592c-.324 0-.642.012-.954.036-.3.012-.57.048-.81.108v3.222c.072.012.174.024.306.036l.45.036c.168 0 .336.006.504.018h.45c.732 0 1.296-.138 1.692-.414.396-.276.594-.72.594-1.332 0-.3-.066-.558-.198-.774a1.401 1.401 0 00-.504-.522 1.954 1.954 0 00-.702-.306 3.133 3.133 0 00-.828-.108zm-3.438-4.734h1.674v3.582a8.98 8.98 0 01.882-.144 9.436 9.436 0 011.134-.072c.492 0 .96.06 1.404.18.444.108.834.288 1.17.54.336.24.6.558.792.954.204.384.306.846.306 1.386 0 .564-.096 1.044-.288 1.44-.192.396-.462.72-.81.972a3.343 3.343 0 01-1.26.54c-.492.12-1.032.18-1.62.18-.564 0-1.134-.036-1.71-.108a12.493 12.493 0 01-1.674-.288v-9.162zm10.764 9.36h-1.674v-9.36h1.674V272zm4.389-8.28c.372-.3.804-.528 1.296-.684a4.554 4.554 0 011.44-.252c1.344 0 2.358.414 3.042 1.242.696.816 1.044 1.956 1.044 3.42 0 .624-.084 1.224-.252 1.8a4.322 4.322 0 01-.792 1.53 3.762 3.762 0 01-1.332 1.062c-.54.264-1.182.396-1.926.396-.852 0-1.56-.156-2.124-.468a3.634 3.634 0 01-1.35-1.278c-.324-.54-.552-1.17-.684-1.89a12.667 12.667 0 01-.198-2.286c0-1.044.072-2.016.216-2.916.156-.9.432-1.692.828-2.376a4.904 4.904 0 011.638-1.692c.708-.456 1.614-.762 2.718-.918.324-.048.606-.084.846-.108l.648-.09c.192-.024.366-.048.522-.072.156-.036.318-.072.486-.108l.18 1.512a1.791 1.791 0 01-.27.054l-.378.054a44.219 44.219 0 01-1.692.216c-1.188.132-2.1.492-2.736 1.08-.636.588-1.026 1.512-1.17 2.772zm-.108 2.862c0 .564.036 1.098.108 1.602.084.504.222.948.414 1.332.204.384.474.69.81.918.336.216.768.324 1.296.324.456 0 .846-.084 1.17-.252.324-.18.588-.42.792-.72.204-.3.354-.648.45-1.044.096-.408.144-.84.144-1.296 0-.408-.042-.804-.126-1.188a2.68 2.68 0 00-.414-1.026c-.204-.3-.48-.54-.828-.72-.336-.18-.762-.27-1.278-.27-.504 0-.99.108-1.458.324-.456.216-.81.48-1.062.792a6.576 6.576 0 00-.018.558v.666zm8.779.756c0-.828.12-1.548.36-2.16.24-.624.558-1.14.954-1.548a3.873 3.873 0 011.368-.918 4.273 4.273 0 011.584-.306c1.26 0 2.226.396 2.898 1.188.672.78 1.008 1.974 1.008 3.582v.288c0 .108-.006.21-.018.306h-6.408c.072.972.354 1.71.846 2.214s1.26.756 2.304.756c.588 0 1.08-.048 1.476-.144.408-.108.714-.21.918-.306l.234 1.404c-.204.108-.564.222-1.08.342-.504.12-1.08.18-1.728.18-.816 0-1.524-.12-2.124-.36a4.05 4.05 0 01-1.458-1.026 4.264 4.264 0 01-.864-1.53c-.18-.6-.27-1.254-.27-1.962zm6.426-.918c.012-.756-.18-1.374-.576-1.854-.384-.492-.918-.738-1.602-.738-.384 0-.726.078-1.026.234a2.318 2.318 0 00-.738.576c-.204.24-.366.516-.486.828a4.39 4.39 0 00-.216.954h4.644zm10.648.918c0-1.092-.27-1.932-.81-2.52-.54-.588-1.26-.882-2.16-.882-.504 0-.9.018-1.188.054a4.748 4.748 0 00-.666.126v5.904c.204.168.498.33.882.486.384.156.804.234 1.26.234.48 0 .888-.084 1.224-.252.348-.18.63-.42.846-.72a3.14 3.14 0 00.468-1.08c.096-.42.144-.87.144-1.35zm1.746 0c0 .708-.096 1.362-.288 1.962-.18.6-.45 1.116-.81 1.548-.36.432-.804.768-1.332 1.008-.516.24-1.11.36-1.782.36a4.43 4.43 0 01-1.44-.216c-.408-.144-.714-.282-.918-.414v3.744h-1.674v-12.402c.396-.096.888-.198 1.476-.306.6-.12 1.29-.18 2.07-.18.72 0 1.368.114 1.944.342a4.166 4.166 0 011.476.972c.408.42.72.936.936 1.548.228.6.342 1.278.342 2.034zm10.222-4.698V272h-1.62v-7.128c-.36.456-.756.99-1.188 1.602a65.746 65.746 0 00-1.296 1.908c-.432.648-.846 1.29-1.242 1.926a73.47 73.47 0 00-1.026 1.692h-1.494v-9.36h1.62v6.732a66 66 0 011.062-1.692 48.772 48.772 0 012.502-3.582c.432-.564.834-1.05 1.206-1.458h1.476zm9.48 0v1.404h-3.042V272h-1.674v-7.956h-3.042v-1.404h7.758zm1.204 4.698c0-.828.12-1.548.36-2.16.24-.624.558-1.14.954-1.548a3.873 3.873 0 011.368-.918 4.273 4.273 0 011.584-.306c1.26 0 2.226.396 2.898 1.188.672.78 1.008 1.974 1.008 3.582v.288c0 .108-.006.21-.018.306h-6.408c.072.972.354 1.71.846 2.214s1.26.756 2.304.756c.588 0 1.08-.048 1.476-.144.408-.108.714-.21.918-.306l.234 1.404c-.204.108-.564.222-1.08.342-.504.12-1.08.18-1.728.18-.816 0-1.524-.12-2.124-.36a4.05 4.05 0 01-1.458-1.026 4.264 4.264 0 01-.864-1.53c-.18-.6-.27-1.254-.27-1.962zm6.426-.918c.012-.756-.18-1.374-.576-1.854-.384-.492-.918-.738-1.602-.738-.384 0-.726.078-1.026.234a2.318 2.318 0 00-.738.576c-.204.24-.366.516-.486.828a4.39 4.39 0 00-.216.954h4.644zm12.385 5.796c-.756 0-1.422-.12-1.998-.36a4.108 4.108 0 01-1.44-1.008 4.264 4.264 0 01-.864-1.53 6.47 6.47 0 01-.288-1.98c0-.72.102-1.38.306-1.98.216-.6.516-1.116.9-1.548a3.87 3.87 0 011.404-1.026 4.538 4.538 0 011.872-.378c.42 0 .84.036 1.26.108.42.072.822.186 1.206.342l-.378 1.422a4.005 4.005 0 00-.882-.288 4.807 4.807 0 00-1.044-.108c-.936 0-1.656.294-2.16.882-.492.588-.738 1.446-.738 2.574 0 .504.054.966.162 1.386.12.42.3.78.54 1.08.252.3.57.534.954.702.384.156.852.234 1.404.234.444 0 .846-.042 1.206-.126a4.41 4.41 0 00.846-.27l.234 1.404c-.096.06-.234.12-.414.18-.18.048-.384.09-.612.126a6.402 6.402 0 01-.738.108 5.216 5.216 0 01-.738.054zm11.823-.216h-1.674v-7.956h-4.176V272h-1.674v-9.36h7.524V272zm11.144-4.68c0 .744-.108 1.416-.324 2.016a4.532 4.532 0 01-.918 1.548 4.01 4.01 0 01-1.386 1.008 4.489 4.489 0 01-1.764.342 4.489 4.489 0 01-1.764-.342 4.195 4.195 0 01-1.404-1.008 4.693 4.693 0 01-.9-1.548c-.216-.6-.324-1.272-.324-2.016 0-.732.108-1.398.324-1.998a4.66 4.66 0 01.9-1.566 3.987 3.987 0 011.404-.99c.54-.24 1.128-.36 1.764-.36.636 0 1.224.12 1.764.36.54.228 1.002.558 1.386.99.396.432.702.954.918 1.566.216.6.324 1.266.324 1.998zm-1.746 0c0-1.056-.24-1.89-.72-2.502-.468-.624-1.11-.936-1.926-.936-.816 0-1.464.312-1.944.936-.468.612-.702 1.446-.702 2.502 0 1.056.234 1.896.702 2.52.48.612 1.128.918 1.944.918.816 0 1.458-.306 1.926-.918.48-.624.72-1.464.72-2.52zm8.17 4.896c-.756 0-1.422-.12-1.998-.36a4.108 4.108 0 01-1.44-1.008 4.264 4.264 0 01-.864-1.53 6.47 6.47 0 01-.288-1.98c0-.72.102-1.38.306-1.98.216-.6.516-1.116.9-1.548a3.87 3.87 0 011.404-1.026 4.538 4.538 0 011.872-.378c.42 0 .84.036 1.26.108.42.072.822.186 1.206.342l-.378 1.422a4.005 4.005 0 00-.882-.288 4.807 4.807 0 00-1.044-.108c-.936 0-1.656.294-2.16.882-.492.588-.738 1.446-.738 2.574 0 .504.054.966.162 1.386.12.42.3.78.54 1.08.252.3.57.534.954.702.384.156.852.234 1.404.234.444 0 .846-.042 1.206-.126a4.41 4.41 0 00.846-.27l.234 1.404c-.096.06-.234.12-.414.18-.18.048-.384.09-.612.126a6.402 6.402 0 01-.738.108 5.216 5.216 0 01-.738.054zm12.332-4.896c0 .744-.108 1.416-.324 2.016a4.532 4.532 0 01-.918 1.548 4.01 4.01 0 01-1.386 1.008 4.489 4.489 0 01-1.764.342 4.489 4.489 0 01-1.764-.342 4.195 4.195 0 01-1.404-1.008 4.693 4.693 0 01-.9-1.548c-.216-.6-.324-1.272-.324-2.016 0-.732.108-1.398.324-1.998a4.66 4.66 0 01.9-1.566 3.987 3.987 0 011.404-.99c.54-.24 1.128-.36 1.764-.36.636 0 1.224.12 1.764.36.54.228 1.002.558 1.386.99.396.432.702.954.918 1.566.216.6.324 1.266.324 1.998zm-1.746 0c0-1.056-.24-1.89-.72-2.502-.468-.624-1.11-.936-1.926-.936-.816 0-1.464.312-1.944.936-.468.612-.702 1.446-.702 2.502 0 1.056.234 1.896.702 2.52.48.612 1.128.918 1.944.918.816 0 1.458-.306 1.926-.918.48-.624.72-1.464.72-2.52zm5.613-3.6c.372-.3.804-.528 1.296-.684a4.554 4.554 0 011.44-.252c1.344 0 2.358.414 3.042 1.242.696.816 1.044 1.956 1.044 3.42 0 .624-.084 1.224-.252 1.8a4.322 4.322 0 01-.792 1.53 3.762 3.762 0 01-1.332 1.062c-.54.264-1.182.396-1.926.396-.852 0-1.56-.156-2.124-.468a3.634 3.634 0 01-1.35-1.278c-.324-.54-.552-1.17-.684-1.89a12.667 12.667 0 01-.198-2.286c0-1.044.072-2.016.216-2.916.156-.9.432-1.692.828-2.376a4.904 4.904 0 011.638-1.692c.708-.456 1.614-.762 2.718-.918.324-.048.606-.084.846-.108l.648-.09c.192-.024.366-.048.522-.072.156-.036.318-.072.486-.108l.18 1.512a1.791 1.791 0 01-.27.054l-.378.054a44.219 44.219 0 01-1.692.216c-1.188.132-2.1.492-2.736 1.08-.636.588-1.026 1.512-1.17 2.772zm-.108 2.862c0 .564.036 1.098.108 1.602.084.504.222.948.414 1.332.204.384.474.69.81.918.336.216.768.324 1.296.324.456 0 .846-.084 1.17-.252.324-.18.588-.42.792-.72.204-.3.354-.648.45-1.044.096-.408.144-.84.144-1.296 0-.408-.042-.804-.126-1.188a2.68 2.68 0 00-.414-1.026c-.204-.3-.48-.54-.828-.72-.336-.18-.762-.27-1.278-.27-.504 0-.99.108-1.458.324-.456.216-.81.48-1.062.792a6.576 6.576 0 00-.018.558v.666zm-106.149 22.824c.54 0 1.044.054 1.512.162.468.108.87.27 1.206.486.336.216.6.486.792.81.192.324.288.702.288 1.134 0 .276-.048.528-.144.756a2.569 2.569 0 01-.846 1.08c-.168.12-.33.204-.486.252.552.168.984.468 1.296.9.324.42.486.954.486 1.602 0 .888-.36 1.548-1.08 1.98-.72.432-1.698.648-2.934.648-.756 0-1.41-.06-1.962-.18-.54-.12-.924-.234-1.152-.342l.288-1.422c.192.072.534.174 1.026.306.504.12 1.104.18 1.8.18.756 0 1.332-.114 1.728-.342.396-.24.594-.594.594-1.062 0-.336-.078-.606-.234-.81a1.362 1.362 0 00-.558-.486 2.503 2.503 0 00-.738-.216 5.483 5.483 0 00-.738-.054h-1.566v-1.332h1.512c.216 0 .438-.012.666-.036.24-.036.456-.102.648-.198.204-.096.372-.228.504-.396.132-.18.198-.414.198-.702 0-.228-.06-.42-.18-.576a1.252 1.252 0 00-.45-.414 2.185 2.185 0 00-.684-.234 3.409 3.409 0 00-.792-.09c-.216 0-.45.018-.702.054a7.294 7.294 0 00-.738.144c-.24.048-.456.102-.648.162a2.27 2.27 0 00-.414.162l-.306-1.44a7.231 7.231 0 011.134-.306c.264-.048.54-.09.828-.126.288-.036.57-.054.846-.054zm9.599 8.388c.396 0 .744-.006 1.044-.018.312-.024.57-.06.774-.108v-2.79c-.12-.06-.318-.108-.594-.144a5.548 5.548 0 00-.972-.072 6.55 6.55 0 00-.81.054 2.416 2.416 0 00-.774.234c-.228.108-.42.264-.576.468-.156.192-.234.45-.234.774 0 .6.192 1.02.576 1.26.384.228.906.342 1.566.342zm-.144-8.388c.672 0 1.236.09 1.692.27.468.168.84.414 1.116.738.288.312.492.69.612 1.134.12.432.18.912.18 1.44v5.85c-.144.024-.348.06-.612.108-.252.036-.54.072-.864.108-.324.036-.678.066-1.062.09a11.58 11.58 0 01-1.116.054 6.165 6.165 0 01-1.458-.162 3.36 3.36 0 01-1.152-.504 2.42 2.42 0 01-.756-.936c-.18-.384-.27-.846-.27-1.386 0-.516.102-.96.306-1.332.216-.372.504-.672.864-.9a3.96 3.96 0 011.26-.504 6.87 6.87 0 011.512-.162c.168 0 .342.012.522.036.18.012.348.036.504.072a8.05 8.05 0 01.684.126v-.468c0-.276-.03-.546-.09-.81a1.796 1.796 0 00-.324-.72 1.53 1.53 0 00-.648-.504c-.264-.132-.612-.198-1.044-.198-.552 0-1.038.042-1.458.126-.408.072-.714.15-.918.234l-.198-1.386c.216-.096.576-.186 1.08-.27a8.76 8.76 0 011.638-.144zm12.878 4.932c0-1.092-.27-1.932-.81-2.52-.54-.588-1.26-.882-2.16-.882-.504 0-.9.018-1.188.054a4.748 4.748 0 00-.666.126v5.904c.204.168.498.33.882.486.384.156.804.234 1.26.234.48 0 .888-.084 1.224-.252.348-.18.63-.42.846-.72a3.14 3.14 0 00.468-1.08c.096-.42.144-.87.144-1.35zm1.746 0c0 .708-.096 1.362-.288 1.962-.18.6-.45 1.116-.81 1.548-.36.432-.804.768-1.332 1.008-.516.24-1.11.36-1.782.36a4.43 4.43 0 01-1.44-.216c-.408-.144-.714-.282-.918-.414v3.744h-1.674v-12.402c.396-.096.888-.198 1.476-.306.6-.12 1.29-.18 2.07-.18.72 0 1.368.114 1.944.342a4.166 4.166 0 011.476.972c.408.42.72.936.936 1.548.228.6.342 1.278.342 2.034zm5.524 3.456c.396 0 .744-.006 1.044-.018.312-.024.57-.06.774-.108v-2.79c-.12-.06-.318-.108-.594-.144a5.548 5.548 0 00-.972-.072 6.55 6.55 0 00-.81.054 2.416 2.416 0 00-.774.234c-.228.108-.42.264-.576.468-.156.192-.234.45-.234.774 0 .6.192 1.02.576 1.26.384.228.906.342 1.566.342zm-.144-8.388c.672 0 1.236.09 1.692.27.468.168.84.414 1.116.738.288.312.492.69.612 1.134.12.432.18.912.18 1.44v5.85c-.144.024-.348.06-.612.108-.252.036-.54.072-.864.108-.324.036-.678.066-1.062.09a11.58 11.58 0 01-1.116.054 6.165 6.165 0 01-1.458-.162 3.36 3.36 0 01-1.152-.504 2.42 2.42 0 01-.756-.936c-.18-.384-.27-.846-.27-1.386 0-.516.102-.96.306-1.332.216-.372.504-.672.864-.9a3.96 3.96 0 011.26-.504 6.87 6.87 0 011.512-.162c.168 0 .342.012.522.036.18.012.348.036.504.072a8.05 8.05 0 01.684.126v-.468c0-.276-.03-.546-.09-.81a1.796 1.796 0 00-.324-.72 1.53 1.53 0 00-.648-.504c-.264-.132-.612-.198-1.044-.198-.552 0-1.038.042-1.458.126-.408.072-.714.15-.918.234l-.198-1.386c.216-.096.576-.186 1.08-.27a8.76 8.76 0 011.638-.144zm7.892 1.314c.372-.3.804-.528 1.296-.684a4.554 4.554 0 011.44-.252c1.344 0 2.358.414 3.042 1.242.696.816 1.044 1.956 1.044 3.42 0 .624-.084 1.224-.252 1.8a4.322 4.322 0 01-.792 1.53 3.762 3.762 0 01-1.332 1.062c-.54.264-1.182.396-1.926.396-.852 0-1.56-.156-2.124-.468a3.634 3.634 0 01-1.35-1.278c-.324-.54-.552-1.17-.684-1.89a12.667 12.667 0 01-.198-2.286c0-1.044.072-2.016.216-2.916.156-.9.432-1.692.828-2.376a4.904 4.904 0 011.638-1.692c.708-.456 1.614-.762 2.718-.918.324-.048.606-.084.846-.108l.648-.09c.192-.024.366-.048.522-.072.156-.036.318-.072.486-.108l.18 1.512a1.791 1.791 0 01-.27.054l-.378.054a44.219 44.219 0 01-1.692.216c-1.188.132-2.1.492-2.736 1.08-.636.588-1.026 1.512-1.17 2.772zm-.108 2.862c0 .564.036 1.098.108 1.602.084.504.222.948.414 1.332.204.384.474.69.81.918.336.216.768.324 1.296.324.456 0 .846-.084 1.17-.252.324-.18.588-.42.792-.72.204-.3.354-.648.45-1.044.096-.408.144-.84.144-1.296 0-.408-.042-.804-.126-1.188a2.68 2.68 0 00-.414-1.026c-.204-.3-.48-.54-.828-.72-.336-.18-.762-.27-1.278-.27-.504 0-.99.108-1.458.324-.456.216-.81.48-1.062.792a6.576 6.576 0 00-.018.558v.666zm17.563.738c0 .744-.108 1.416-.324 2.016a4.532 4.532 0 01-.918 1.548 4.01 4.01 0 01-1.386 1.008 4.489 4.489 0 01-1.764.342 4.489 4.489 0 01-1.764-.342 4.195 4.195 0 01-1.404-1.008 4.693 4.693 0 01-.9-1.548c-.216-.6-.324-1.272-.324-2.016 0-.732.108-1.398.324-1.998a4.66 4.66 0 01.9-1.566 3.987 3.987 0 011.404-.99c.54-.24 1.128-.36 1.764-.36.636 0 1.224.12 1.764.36.54.228 1.002.558 1.386.99.396.432.702.954.918 1.566.216.6.324 1.266.324 1.998zm-1.746 0c0-1.056-.24-1.89-.72-2.502-.468-.624-1.11-.936-1.926-.936-.816 0-1.464.312-1.944.936-.468.612-.702 1.446-.702 2.502 0 1.056.234 1.896.702 2.52.48.612 1.128.918 1.944.918.816 0 1.458-.306 1.926-.918.48-.624.72-1.464.72-2.52zm10.707-4.68v1.404h-3.042V299h-1.674v-7.956h-3.042v-1.404h7.758zm5.146 4.266c.372.264.774.6 1.206 1.008.432.396.852.828 1.26 1.296.42.468.81.948 1.17 1.44.36.48.666.93.918 1.35h-1.98a11.61 11.61 0 00-.936-1.242 18.037 18.037 0 00-1.098-1.242 16.521 16.521 0 00-1.17-1.098 11.43 11.43 0 00-1.116-.846V299h-1.674v-9.36h1.674v4.014c.288-.276.618-.594.99-.954l1.116-1.116c.384-.384.738-.744 1.062-1.08.324-.348.588-.636.792-.864h1.944c-.264.288-.576.618-.936.99-.348.36-.714.732-1.098 1.116l-1.116 1.152-1.008 1.008zm9.416 3.888c.396 0 .744-.006 1.044-.018.312-.024.57-.06.774-.108v-2.79c-.12-.06-.318-.108-.594-.144a5.548 5.548 0 00-.972-.072 6.55 6.55 0 00-.81.054 2.416 2.416 0 00-.774.234c-.228.108-.42.264-.576.468-.156.192-.234.45-.234.774 0 .6.192 1.02.576 1.26.384.228.906.342 1.566.342zm-.144-8.388c.672 0 1.236.09 1.692.27.468.168.84.414 1.116.738.288.312.492.69.612 1.134.12.432.18.912.18 1.44v5.85c-.144.024-.348.06-.612.108-.252.036-.54.072-.864.108-.324.036-.678.066-1.062.09a11.58 11.58 0 01-1.116.054 6.165 6.165 0 01-1.458-.162 3.36 3.36 0 01-1.152-.504 2.42 2.42 0 01-.756-.936c-.18-.384-.27-.846-.27-1.386 0-.516.102-.96.306-1.332.216-.372.504-.672.864-.9a3.96 3.96 0 011.26-.504 6.87 6.87 0 011.512-.162c.168 0 .342.012.522.036.18.012.348.036.504.072a8.05 8.05 0 01.684.126v-.468c0-.276-.03-.546-.09-.81a1.796 1.796 0 00-.324-.72 1.53 1.53 0 00-.648-.504c-.264-.132-.612-.198-1.044-.198-.552 0-1.038.042-1.458.126-.408.072-.714.15-.918.234l-.198-1.386c.216-.096.576-.186 1.08-.27a8.76 8.76 0 011.638-.144zM309.94 471.108a20.835 20.835 0 01-2.574-.162 6.704 6.704 0 01-.792-.144v-12.096c.24-.06.504-.108.792-.144a21.077 21.077 0 012.556-.162c.72 0 1.392.054 2.016.162.636.108 1.182.294 1.638.558.468.252.834.588 1.098 1.008.264.42.396.936.396 1.548 0 .684-.162 1.248-.486 1.692a2.948 2.948 0 01-1.296.972c.732.216 1.314.558 1.746 1.026.432.468.648 1.128.648 1.98 0 1.248-.462 2.19-1.386 2.826-.912.624-2.364.936-4.356.936zm-1.638-5.922v4.392c.132.012.288.024.468.036.156.012.336.024.54.036h.738c.516 0 1.002-.03 1.458-.09a4.32 4.32 0 001.224-.36c.348-.168.624-.402.828-.702.216-.3.324-.678.324-1.134 0-.408-.078-.75-.234-1.026a1.706 1.706 0 00-.684-.684 3.145 3.145 0 00-1.044-.36 7.908 7.908 0 00-1.368-.108h-2.25zm0-1.404h1.836c.432 0 .84-.03 1.224-.09s.714-.168.99-.324c.288-.156.51-.36.666-.612.168-.252.252-.57.252-.954 0-.36-.084-.66-.252-.9a1.711 1.711 0 00-.702-.594 3.437 3.437 0 00-1.026-.342 7.04 7.04 0 00-1.26-.108c-.444 0-.792.006-1.044.018-.252.012-.48.03-.684.054v3.852zm13.169 2.592c-.324 0-.642.012-.954.036-.3.012-.57.048-.81.108v3.222c.072.012.174.024.306.036l.45.036c.168 0 .336.006.504.018h.45c.732 0 1.296-.138 1.692-.414.396-.276.594-.72.594-1.332 0-.3-.066-.558-.198-.774a1.401 1.401 0 00-.504-.522 1.954 1.954 0 00-.702-.306 3.133 3.133 0 00-.828-.108zm-3.438-4.734h1.674v3.582a8.98 8.98 0 01.882-.144 9.436 9.436 0 011.134-.072c.492 0 .96.06 1.404.18.444.108.834.288 1.17.54.336.24.6.558.792.954.204.384.306.846.306 1.386 0 .564-.096 1.044-.288 1.44-.192.396-.462.72-.81.972a3.343 3.343 0 01-1.26.54c-.492.12-1.032.18-1.62.18-.564 0-1.134-.036-1.71-.108a12.493 12.493 0 01-1.674-.288v-9.162zm10.764 9.36h-1.674v-9.36h1.674V471zm4.514-1.26c.072.012.174.024.306.036.132.012.282.024.45.036.168 0 .342.006.522.018h.54c.348 0 .678-.024.99-.072.324-.048.6-.132.828-.252.24-.12.426-.276.558-.468.144-.204.216-.462.216-.774 0-.3-.066-.546-.198-.738a1.31 1.31 0 00-.504-.486 2.35 2.35 0 00-.774-.252 5.702 5.702 0 00-.936-.072h-1.998v3.024zm1.782-4.266c.324 0 .618-.018.882-.054.276-.048.51-.126.702-.234.204-.108.36-.252.468-.432.12-.18.18-.408.18-.684 0-.288-.072-.516-.216-.684a1.309 1.309 0 00-.576-.378 2.562 2.562 0 00-.792-.18 7.105 7.105 0 00-.882-.054c-.276 0-.558.006-.846.018-.276.012-.51.024-.702.036v2.646h1.782zm-.036 5.688c-.708 0-1.362-.036-1.962-.108-.6-.06-1.074-.132-1.422-.216v-9.108c.348-.084.822-.156 1.422-.216.6-.072 1.254-.108 1.962-.108.492 0 .972.042 1.44.126.468.084.882.228 1.242.432.36.192.648.462.864.81.228.336.342.756.342 1.26 0 .456-.114.846-.342 1.17a2.28 2.28 0 01-.918.756c.516.18.924.45 1.224.81.312.348.468.84.468 1.476 0 .564-.114 1.032-.342 1.404a2.45 2.45 0 01-.918.9c-.384.228-.84.384-1.368.468a9.457 9.457 0 01-1.692.144zm14.74-4.842c0 .744-.108 1.416-.324 2.016a4.532 4.532 0 01-.918 1.548 4.01 4.01 0 01-1.386 1.008 4.489 4.489 0 01-1.764.342 4.489 4.489 0 01-1.764-.342 4.195 4.195 0 01-1.404-1.008 4.693 4.693 0 01-.9-1.548c-.216-.6-.324-1.272-.324-2.016 0-.732.108-1.398.324-1.998a4.66 4.66 0 01.9-1.566 3.987 3.987 0 011.404-.99c.54-.24 1.128-.36 1.764-.36.636 0 1.224.12 1.764.36.54.228 1.002.558 1.386.99.396.432.702.954.918 1.566.216.6.324 1.266.324 1.998zm-1.746 0c0-1.056-.24-1.89-.72-2.502-.468-.624-1.11-.936-1.926-.936-.816 0-1.464.312-1.944.936-.468.612-.702 1.446-.702 2.502 0 1.056.234 1.896.702 2.52.48.612 1.128.918 1.944.918.816 0 1.458-.306 1.926-.918.48-.624.72-1.464.72-2.52zm2.949 3.312h1.008a8.19 8.19 0 00.936-1.782c.24-.612.42-1.242.54-1.89.12-.66.198-1.344.234-2.052.036-.72.06-1.476.072-2.268h6.138v7.992h1.26v3.978h-1.584V471h-7.02v2.61H351v-3.978zm7.254 0v-6.588h-2.934a27.679 27.679 0 01-.09 1.71 16.374 16.374 0 01-.234 1.692 10.136 10.136 0 01-.468 1.638 9.112 9.112 0 01-.738 1.548h4.464zm12.61-7.992V471h-1.62v-7.128c-.36.456-.756.99-1.188 1.602a65.746 65.746 0 00-1.296 1.908c-.432.648-.846 1.29-1.242 1.926a73.47 73.47 0 00-1.026 1.692h-1.494v-9.36h1.62v6.732a66 66 0 011.062-1.692 48.772 48.772 0 012.502-3.582c.432-.564.834-1.05 1.206-1.458h1.476zm9.48 0v1.404h-3.042V471h-1.674v-7.956h-3.042v-1.404h7.758zm1.204 4.698c0-.828.12-1.548.36-2.16.24-.624.558-1.14.954-1.548a3.873 3.873 0 011.368-.918 4.273 4.273 0 011.584-.306c1.26 0 2.226.396 2.898 1.188.672.78 1.008 1.974 1.008 3.582v.288c0 .108-.006.21-.018.306h-6.408c.072.972.354 1.71.846 2.214s1.26.756 2.304.756c.588 0 1.08-.048 1.476-.144.408-.108.714-.21.918-.306l.234 1.404c-.204.108-.564.222-1.08.342-.504.12-1.08.18-1.728.18-.816 0-1.524-.12-2.124-.36a4.05 4.05 0 01-1.458-1.026 4.264 4.264 0 01-.864-1.53c-.18-.6-.27-1.254-.27-1.962zm6.426-.918c.012-.756-.18-1.374-.576-1.854-.384-.492-.918-.738-1.602-.738-.384 0-.726.078-1.026.234a2.318 2.318 0 00-.738.576c-.204.24-.366.516-.486.828a4.39 4.39 0 00-.216.954h4.644zm12.385 5.796c-.756 0-1.422-.12-1.998-.36a4.108 4.108 0 01-1.44-1.008 4.264 4.264 0 01-.864-1.53 6.47 6.47 0 01-.288-1.98c0-.72.102-1.38.306-1.98.216-.6.516-1.116.9-1.548a3.87 3.87 0 011.404-1.026 4.538 4.538 0 011.872-.378c.42 0 .84.036 1.26.108.42.072.822.186 1.206.342l-.378 1.422a4.005 4.005 0 00-.882-.288 4.807 4.807 0 00-1.044-.108c-.936 0-1.656.294-2.16.882-.492.588-.738 1.446-.738 2.574 0 .504.054.966.162 1.386.12.42.3.78.54 1.08.252.3.57.534.954.702.384.156.852.234 1.404.234.444 0 .846-.042 1.206-.126a4.41 4.41 0 00.846-.27l.234 1.404c-.096.06-.234.12-.414.18-.18.048-.384.09-.612.126a6.402 6.402 0 01-.738.108 5.216 5.216 0 01-.738.054zm10.797-4.878c0-1.092-.27-1.932-.81-2.52-.54-.588-1.26-.882-2.16-.882-.504 0-.9.018-1.188.054a4.748 4.748 0 00-.666.126v5.904c.204.168.498.33.882.486.384.156.804.234 1.26.234.48 0 .888-.084 1.224-.252.348-.18.63-.42.846-.72a3.14 3.14 0 00.468-1.08c.096-.42.144-.87.144-1.35zm1.746 0c0 .708-.096 1.362-.288 1.962-.18.6-.45 1.116-.81 1.548-.36.432-.804.768-1.332 1.008-.516.24-1.11.36-1.782.36a4.43 4.43 0 01-1.44-.216c-.408-.144-.714-.282-.918-.414v3.744h-1.674v-12.402c.396-.096.888-.198 1.476-.306.6-.12 1.29-.18 2.07-.18.72 0 1.368.114 1.944.342a4.166 4.166 0 011.476.972c.408.42.72.936.936 1.548.228.6.342 1.278.342 2.034zm1.833 0c0-.828.12-1.548.36-2.16.24-.624.558-1.14.954-1.548a3.873 3.873 0 011.368-.918 4.273 4.273 0 011.584-.306c1.26 0 2.226.396 2.898 1.188.672.78 1.008 1.974 1.008 3.582v.288c0 .108-.006.21-.018.306h-6.408c.072.972.354 1.71.846 2.214s1.26.756 2.304.756c.588 0 1.08-.048 1.476-.144.408-.108.714-.21.918-.306l.234 1.404c-.204.108-.564.222-1.08.342-.504.12-1.08.18-1.728.18-.816 0-1.524-.12-2.124-.36a4.05 4.05 0 01-1.458-1.026 4.264 4.264 0 01-.864-1.53c-.18-.6-.27-1.254-.27-1.962zm6.426-.918c.012-.756-.18-1.374-.576-1.854-.384-.492-.918-.738-1.602-.738-.384 0-.726.078-1.026.234a2.318 2.318 0 00-.738.576c-.204.24-.366.516-.486.828a4.39 4.39 0 00-.216.954h4.644zm2.999 4.212h1.008a8.19 8.19 0 00.936-1.782c.24-.612.42-1.242.54-1.89.12-.66.198-1.344.234-2.052.036-.72.06-1.476.072-2.268h6.138v7.992h1.26v3.978h-1.584V471h-7.02v2.61h-1.584v-3.978zm7.254 0v-6.588h-2.934a27.679 27.679 0 01-.09 1.71 16.374 16.374 0 01-.234 1.692 10.136 10.136 0 01-.468 1.638 9.112 9.112 0 01-.738 1.548h4.464zm8.812 1.584c-.756 0-1.422-.12-1.998-.36a4.108 4.108 0 01-1.44-1.008 4.264 4.264 0 01-.864-1.53 6.47 6.47 0 01-.288-1.98c0-.72.102-1.38.306-1.98.216-.6.516-1.116.9-1.548a3.87 3.87 0 011.404-1.026 4.538 4.538 0 011.872-.378c.42 0 .84.036 1.26.108.42.072.822.186 1.206.342l-.378 1.422a4.005 4.005 0 00-.882-.288 4.807 4.807 0 00-1.044-.108c-.936 0-1.656.294-2.16.882-.492.588-.738 1.446-.738 2.574 0 .504.054.966.162 1.386.12.42.3.78.54 1.08.252.3.57.534.954.702.384.156.852.234 1.404.234.444 0 .846-.042 1.206-.126a4.41 4.41 0 00.846-.27l.234 1.404c-.096.06-.234.12-.414.18-.18.048-.384.09-.612.126a6.402 6.402 0 01-.738.108 5.216 5.216 0 01-.738.054zm11.169-9.576v1.404h-3.042V471h-1.674v-7.956h-3.042v-1.404h7.758zm3.364 8.1c.072.012.174.024.306.036.132.012.282.024.45.036.168 0 .342.006.522.018h.54c.348 0 .678-.024.99-.072.324-.048.6-.132.828-.252.24-.12.426-.276.558-.468.144-.204.216-.462.216-.774 0-.3-.066-.546-.198-.738a1.31 1.31 0 00-.504-.486 2.35 2.35 0 00-.774-.252 5.702 5.702 0 00-.936-.072h-1.998v3.024zm1.782-4.266c.324 0 .618-.018.882-.054.276-.048.51-.126.702-.234.204-.108.36-.252.468-.432.12-.18.18-.408.18-.684 0-.288-.072-.516-.216-.684a1.309 1.309 0 00-.576-.378 2.562 2.562 0 00-.792-.18 7.105 7.105 0 00-.882-.054c-.276 0-.558.006-.846.018-.276.012-.51.024-.702.036v2.646h1.782zm-.036 5.688c-.708 0-1.362-.036-1.962-.108-.6-.06-1.074-.132-1.422-.216v-9.108c.348-.084.822-.156 1.422-.216.6-.072 1.254-.108 1.962-.108.492 0 .972.042 1.44.126.468.084.882.228 1.242.432.36.192.648.462.864.81.228.336.342.756.342 1.26 0 .456-.114.846-.342 1.17a2.28 2.28 0 01-.918.756c.516.18.924.45 1.224.81.312.348.468.84.468 1.476 0 .564-.114 1.032-.342 1.404a2.45 2.45 0 01-.918.9c-.384.228-.84.384-1.368.468a9.457 9.457 0 01-1.692.144zm9.645-1.368c.396 0 .744-.006 1.044-.018.312-.024.57-.06.774-.108v-2.79c-.12-.06-.318-.108-.594-.144a5.548 5.548 0 00-.972-.072 6.55 6.55 0 00-.81.054 2.416 2.416 0 00-.774.234c-.228.108-.42.264-.576.468-.156.192-.234.45-.234.774 0 .6.192 1.02.576 1.26.384.228.906.342 1.566.342zm-.144-8.388c.672 0 1.236.09 1.692.27.468.168.84.414 1.116.738.288.312.492.69.612 1.134.12.432.18.912.18 1.44v5.85c-.144.024-.348.06-.612.108-.252.036-.54.072-.864.108-.324.036-.678.066-1.062.09a11.58 11.58 0 01-1.116.054 6.165 6.165 0 01-1.458-.162 3.36 3.36 0 01-1.152-.504 2.42 2.42 0 01-.756-.936c-.18-.384-.27-.846-.27-1.386 0-.516.102-.96.306-1.332.216-.372.504-.672.864-.9a3.96 3.96 0 011.26-.504 6.87 6.87 0 011.512-.162c.168 0 .342.012.522.036.18.012.348.036.504.072a8.05 8.05 0 01.684.126v-.468c0-.276-.03-.546-.09-.81a1.796 1.796 0 00-.324-.72 1.53 1.53 0 00-.648-.504c-.264-.132-.612-.198-1.044-.198-.552 0-1.038.042-1.458.126-.408.072-.714.15-.918.234l-.198-1.386c.216-.096.576-.186 1.08-.27a8.76 8.76 0 011.638-.144zm12.184 8.334c.072.012.174.024.306.036.132.012.282.024.45.036.168 0 .342.006.522.018h.54c.348 0 .678-.024.99-.072.324-.048.6-.132.828-.252.24-.12.426-.276.558-.468.144-.204.216-.462.216-.774 0-.3-.066-.546-.198-.738a1.31 1.31 0 00-.504-.486 2.35 2.35 0 00-.774-.252 5.702 5.702 0 00-.936-.072h-1.998v3.024zm1.782-4.266c.324 0 .618-.018.882-.054.276-.048.51-.126.702-.234.204-.108.36-.252.468-.432.12-.18.18-.408.18-.684 0-.288-.072-.516-.216-.684a1.309 1.309 0 00-.576-.378 2.562 2.562 0 00-.792-.18 7.105 7.105 0 00-.882-.054c-.276 0-.558.006-.846.018-.276.012-.51.024-.702.036v2.646h1.782zm-.036 5.688c-.708 0-1.362-.036-1.962-.108-.6-.06-1.074-.132-1.422-.216v-9.108c.348-.084.822-.156 1.422-.216.6-.072 1.254-.108 1.962-.108.492 0 .972.042 1.44.126.468.084.882.228 1.242.432.36.192.648.462.864.81.228.336.342.756.342 1.26 0 .456-.114.846-.342 1.17a2.28 2.28 0 01-.918.756c.516.18.924.45 1.224.81.312.348.468.84.468 1.476 0 .564-.114 1.032-.342 1.404a2.45 2.45 0 01-.918.9c-.384.228-.84.384-1.368.468a9.457 9.457 0 01-1.692.144zm-137.455 18.882c0 .396-.012.822-.036 1.278a16.982 16.982 0 01-.288 2.682c-.084.432-.192.84-.324 1.224a5.55 5.55 0 01-.504 1.08 3.714 3.714 0 01-.72.9 4.274 4.274 0 01-1.008.648 4.371 4.371 0 01-1.35.324l-.234-1.404c.588-.12 1.05-.342 1.386-.666.348-.324.624-.72.828-1.188.18-.408.312-.87.396-1.386.084-.516.144-1.05.18-1.602.036-.564.054-1.128.054-1.692.012-.564.018-1.098.018-1.602h6.228V498h-1.674v-7.956h-2.952zm9.174 2.466h2.052a5.33 5.33 0 01.468-1.692c.252-.504.564-.936.936-1.296.372-.36.798-.636 1.278-.828a4.13 4.13 0 011.548-.288c.612 0 1.176.12 1.692.36.528.228.984.558 1.368.99.384.432.684.954.9 1.566.216.6.324 1.266.324 1.998 0 .744-.108 1.416-.324 2.016a4.693 4.693 0 01-.9 1.548c-.384.432-.84.768-1.368 1.008a4.14 4.14 0 01-1.692.342 4.276 4.276 0 01-1.62-.306 4.206 4.206 0 01-1.296-.882 4.73 4.73 0 01-.918-1.386 5.653 5.653 0 01-.414-1.8h-2.034V498h-1.674v-9.36h1.674v3.87zm8.838.81c0-1.056-.234-1.89-.702-2.502-.456-.624-1.074-.936-1.854-.936s-1.404.312-1.872.936c-.456.612-.684 1.446-.684 2.502 0 1.056.228 1.896.684 2.52.468.612 1.092.918 1.872.918s1.398-.306 1.854-.918c.468-.624.702-1.464.702-2.52zm5.59-3.6c.372-.3.804-.528 1.296-.684a4.554 4.554 0 011.44-.252c1.344 0 2.358.414 3.042 1.242.696.816 1.044 1.956 1.044 3.42 0 .624-.084 1.224-.252 1.8a4.322 4.322 0 01-.792 1.53 3.762 3.762 0 01-1.332 1.062c-.54.264-1.182.396-1.926.396-.852 0-1.56-.156-2.124-.468a3.634 3.634 0 01-1.35-1.278c-.324-.54-.552-1.17-.684-1.89a12.667 12.667 0 01-.198-2.286c0-1.044.072-2.016.216-2.916.156-.9.432-1.692.828-2.376a4.904 4.904 0 011.638-1.692c.708-.456 1.614-.762 2.718-.918.324-.048.606-.084.846-.108l.648-.09c.192-.024.366-.048.522-.072.156-.036.318-.072.486-.108l.18 1.512a1.791 1.791 0 01-.27.054l-.378.054a44.219 44.219 0 01-1.692.216c-1.188.132-2.1.492-2.736 1.08-.636.588-1.026 1.512-1.17 2.772zm-.108 2.862c0 .564.036 1.098.108 1.602.084.504.222.948.414 1.332.204.384.474.69.81.918.336.216.768.324 1.296.324.456 0 .846-.084 1.17-.252.324-.18.588-.42.792-.72.204-.3.354-.648.45-1.044.096-.408.144-.84.144-1.296 0-.408-.042-.804-.126-1.188a2.68 2.68 0 00-.414-1.026c-.204-.3-.48-.54-.828-.72-.336-.18-.762-.27-1.278-.27-.504 0-.99.108-1.458.324-.456.216-.81.48-1.062.792a6.576 6.576 0 00-.018.558v.666zm17.563.738c0 .744-.108 1.416-.324 2.016a4.532 4.532 0 01-.918 1.548 4.01 4.01 0 01-1.386 1.008 4.489 4.489 0 01-1.764.342 4.489 4.489 0 01-1.764-.342 4.195 4.195 0 01-1.404-1.008 4.693 4.693 0 01-.9-1.548c-.216-.6-.324-1.272-.324-2.016 0-.732.108-1.398.324-1.998a4.66 4.66 0 01.9-1.566 3.987 3.987 0 011.404-.99c.54-.24 1.128-.36 1.764-.36.636 0 1.224.12 1.764.36.54.228 1.002.558 1.386.99.396.432.702.954.918 1.566.216.6.324 1.266.324 1.998zm-1.746 0c0-1.056-.24-1.89-.72-2.502-.468-.624-1.11-.936-1.926-.936-.816 0-1.464.312-1.944.936-.468.612-.702 1.446-.702 2.502 0 1.056.234 1.896.702 2.52.48.612 1.128.918 1.944.918.816 0 1.458-.306 1.926-.918.48-.624.72-1.464.72-2.52zm3.579.018c0-.828.12-1.548.36-2.16.24-.624.558-1.14.954-1.548a3.873 3.873 0 011.368-.918 4.273 4.273 0 011.584-.306c1.26 0 2.226.396 2.898 1.188.672.78 1.008 1.974 1.008 3.582v.288c0 .108-.006.21-.018.306h-6.408c.072.972.354 1.71.846 2.214s1.26.756 2.304.756c.588 0 1.08-.048 1.476-.144.408-.108.714-.21.918-.306l.234 1.404c-.204.108-.564.222-1.08.342-.504.12-1.08.18-1.728.18-.816 0-1.524-.12-2.124-.36a4.05 4.05 0 01-1.458-1.026 4.264 4.264 0 01-.864-1.53c-.18-.6-.27-1.254-.27-1.962zm6.426-.918c.012-.756-.18-1.374-.576-1.854-.384-.492-.918-.738-1.602-.738-.384 0-.726.078-1.026.234a2.318 2.318 0 00-.738.576c-.204.24-.366.516-.486.828a4.39 4.39 0 00-.216.954h4.644zm9.955 4.32c.072.012.174.024.306.036.132.012.282.024.45.036.168 0 .342.006.522.018h.54c.348 0 .678-.024.99-.072.324-.048.6-.132.828-.252.24-.12.426-.276.558-.468.144-.204.216-.462.216-.774 0-.3-.066-.546-.198-.738a1.31 1.31 0 00-.504-.486 2.35 2.35 0 00-.774-.252 5.702 5.702 0 00-.936-.072h-1.998v3.024zm1.782-4.266c.324 0 .618-.018.882-.054.276-.048.51-.126.702-.234.204-.108.36-.252.468-.432.12-.18.18-.408.18-.684 0-.288-.072-.516-.216-.684a1.309 1.309 0 00-.576-.378 2.562 2.562 0 00-.792-.18 7.105 7.105 0 00-.882-.054c-.276 0-.558.006-.846.018-.276.012-.51.024-.702.036v2.646h1.782zm-.036 5.688c-.708 0-1.362-.036-1.962-.108-.6-.06-1.074-.132-1.422-.216v-9.108c.348-.084.822-.156 1.422-.216.6-.072 1.254-.108 1.962-.108.492 0 .972.042 1.44.126.468.084.882.228 1.242.432.36.192.648.462.864.81.228.336.342.756.342 1.26 0 .456-.114.846-.342 1.17a2.28 2.28 0 01-.918.756c.516.18.924.45 1.224.81.312.348.468.84.468 1.476 0 .564-.114 1.032-.342 1.404a2.45 2.45 0 01-.918.9c-.384.228-.84.384-1.368.468a9.457 9.457 0 01-1.692.144zm12.975-4.824c0-1.092-.27-1.932-.81-2.52-.54-.588-1.26-.882-2.16-.882-.504 0-.9.018-1.188.054a4.748 4.748 0 00-.666.126v5.904c.204.168.498.33.882.486.384.156.804.234 1.26.234.48 0 .888-.084 1.224-.252.348-.18.63-.42.846-.72a3.14 3.14 0 00.468-1.08c.096-.42.144-.87.144-1.35zm1.746 0c0 .708-.096 1.362-.288 1.962-.18.6-.45 1.116-.81 1.548-.36.432-.804.768-1.332 1.008-.516.24-1.11.36-1.782.36a4.43 4.43 0 01-1.44-.216c-.408-.144-.714-.282-.918-.414v3.744h-1.674v-12.402c.396-.096.888-.198 1.476-.306.6-.12 1.29-.18 2.07-.18.72 0 1.368.114 1.944.342a4.166 4.166 0 011.476.972c.408.42.72.936.936 1.548.228.6.342 1.278.342 2.034zm1.834 0c0-.828.12-1.548.36-2.16.24-.624.558-1.14.954-1.548a3.873 3.873 0 011.368-.918 4.273 4.273 0 011.584-.306c1.26 0 2.226.396 2.898 1.188.672.78 1.008 1.974 1.008 3.582v.288c0 .108-.006.21-.018.306h-6.408c.072.972.354 1.71.846 2.214s1.26.756 2.304.756c.588 0 1.08-.048 1.476-.144.408-.108.714-.21.918-.306l.234 1.404c-.204.108-.564.222-1.08.342-.504.12-1.08.18-1.728.18-.816 0-1.524-.12-2.124-.36a4.05 4.05 0 01-1.458-1.026 4.264 4.264 0 01-.864-1.53c-.18-.6-.27-1.254-.27-1.962zm6.426-.918c.012-.756-.18-1.374-.576-1.854-.384-.492-.918-.738-1.602-.738-.384 0-.726.078-1.026.234a2.318 2.318 0 00-.738.576c-.204.24-.366.516-.486.828a4.39 4.39 0 00-.216.954h4.644zm5.932-1.314a71.187 71.187 0 00-.27 3.564c-.06 1.176-.108 2.286-.144 3.33h-1.602c.024-.732.06-1.494.108-2.286a162.701 162.701 0 01.36-4.806c.072-.792.15-1.548.234-2.268h1.53c.384.624.834 1.482 1.35 2.574.516 1.08 1.11 2.328 1.782 3.744.672-1.416 1.266-2.664 1.782-3.744.516-1.092.966-1.95 1.35-2.574h1.548c.084.72.162 1.476.234 2.268a162.701 162.701 0 01.36 4.806c.048.792.084 1.554.108 2.286h-1.656a202.462 202.462 0 00-.144-3.33 71.187 71.187 0 00-.27-3.564c-.192.372-.414.822-.666 1.35a99.327 99.327 0 00-.756 1.584c-.24.54-.468 1.056-.684 1.548-.216.492-.384.882-.504 1.17h-1.404c-.132-.3-.312-.696-.54-1.188a74.25 74.25 0 00-.702-1.548 39.943 39.943 0 00-.738-1.602 25.734 25.734 0 00-.666-1.314zm15.254 3.258h-.522l-.486-.036a24.436 24.436 0 00-1.116 1.854 54.44 54.44 0 00-.936 1.818h-1.692c.144-.348.312-.702.504-1.062.192-.372.384-.732.576-1.08a23.848 23.848 0 011.188-1.836 2.97 2.97 0 01-.828-.432 2.414 2.414 0 01-.522-.594 2.44 2.44 0 01-.288-.684 4.032 4.032 0 01-.072-.756c0-.528.096-.99.288-1.386.204-.396.48-.72.828-.972a3.634 3.634 0 011.224-.594 5.89 5.89 0 011.566-.198c.792 0 1.464.036 2.016.108.552.072 1.014.156 1.386.252V498h-1.656v-3.636h-1.458zm1.458-4.482a7.425 7.425 0 00-.666-.072 13.27 13.27 0 00-1.044-.036c-.684 0-1.236.144-1.656.432-.42.276-.63.72-.63 1.332 0 .6.216 1.014.648 1.242.432.228.99.342 1.674.342h1.674v-3.24z" fill="#9296BD"/><path d="M162 83.186S229.644 81.994 270.5 100c35.649 15.711 84.019 57.743 84.019 57.743" stroke="url(#paint2_linear)" stroke-width="2"/><path d="M162 286.026s67.644-1.192 108.5 16.813c35.649 15.711 84.019 57.743 84.019 57.743" stroke="url(#paint3_linear)" stroke-width="2"/><g opacity=".2" filter="url(#filter2_d)"><circle cx="395.5" cy="193.5" r="51.5" fill="url(#paint4_linear)"/></g><g filter="url(#filter3_d)"><circle cx="395.5" cy="193.5" r="37.5" fill="url(#paint5_linear)"/></g><g clip-path="url(#clip0)"><path d="M386.993 197.631l1.379.475c2.671.921 2.757 4.715.072 5.721 0 .721-.539 1.177-1.129 1.177-.585 0-1.13-.449-1.13-1.177a3.045 3.045 0 01-1.977-2.848 1.13 1.13 0 012.259 0c0 .431.35.781.781.781h.133c.882 0 1.082-1.234.255-1.519l-1.379-.476c-2.671-.921-2.757-4.715-.072-5.72 0-.722.539-1.178 1.13-1.178.584 0 1.129.449 1.129 1.178a3.044 3.044 0 011.977 2.847 1.129 1.129 0 01-2.259 0 .781.781 0 00-.781-.781h-.133c-.882 0-1.082 1.234-.255 1.52zm9.636 1.305c0 5.136-4.178 9.314-9.314 9.314-5.137 0-9.315-4.178-9.315-9.314 0-5.137 4.178-9.315 9.315-9.315 5.136 0 9.314 4.179 9.314 9.315zm-2.258 0c0-3.891-3.165-7.057-7.056-7.057a7.065 7.065 0 00-7.057 7.057c0 3.891 3.166 7.056 7.057 7.056a7.064 7.064 0 007.056-7.056zm17.5 7.056h-.776v-18.629a1.129 1.129 0 00-2.258 0v18.629h-5.716v-14.113a1.129 1.129 0 00-2.258 0v14.113h-4.798a1.13 1.13 0 100 2.258h15.806a1.128 1.128 0 100-2.258zm-16.49-15.079l4.035-4.035 1.778 1.777a1.128 1.128 0 001.596 0l6.047-6.046v.52a1.128 1.128 0 102.258 0c0-3.583.005-3.279-.013-3.405a1.128 1.128 0 00-.685-.884c-.279-.116-.192-.086-3.677-.086a1.129 1.129 0 000 2.258h.52l-5.248 5.248-1.777-1.777a1.13 1.13 0 00-1.597 0l-4.834 4.834a1.128 1.128 0 101.597 1.596z" fill="#EAEAEA"/></g><g opacity=".2" filter="url(#filter4_d)"><circle cx="395.5" cy="392.5" r="51.5" fill="url(#paint6_linear)"/></g><g filter="url(#filter5_d)"><circle cx="395.5" cy="392.5" r="37.5" fill="url(#paint7_linear)"/></g><path d="M406.375 383.909v-1.227c0-2.031-1.626-3.682-3.625-3.682h-18.125c-1.999 0-3.625 1.651-3.625 3.682v19.636c0 2.031 1.626 3.682 3.625 3.682h21.75c1.999 0 3.625-1.651 3.625-3.682v-14.727c0-2.031-1.626-3.682-3.625-3.682zm-21.75-2.454h18.125c.666 0 1.208.55 1.208 1.227v1.227h-19.333c-.666 0-1.208-.55-1.208-1.227s.542-1.227 1.208-1.227zm21.75 22.09h-21.75c-.666 0-1.208-.55-1.208-1.227v-16.165c.378.136.784.211 1.208.211h21.75c.666 0 1.208.55 1.208 1.227v3.068h-6.645c-2.333 0-4.23 1.928-4.23 4.296 0 2.367 1.897 4.295 4.23 4.295h6.645v3.068c0 .677-.542 1.227-1.208 1.227zm1.208-6.75h-2.827a4.324 4.324 0 00-.003-3.681h2.83v3.681zm-8.458-1.84c0-1.015.813-1.841 1.813-1.841.999 0 1.812.826 1.812 1.841 0 .491-.189.956-.524 1.299a1.808 1.808 0 01-1.288.541c-1 0-1.813-.826-1.813-1.84z" fill="#EAEAEA"/><path d="M15.812 159.526V172h-1.746v-10.98H8.072V172H6.326v-12.474h9.486zm9.49 7.812c0-1.092-.27-1.932-.81-2.52-.54-.588-1.26-.882-2.16-.882-.504 0-.9.018-1.188.054a4.748 4.748 0 00-.666.126v5.904c.204.168.498.33.882.486.384.156.804.234 1.26.234.48 0 .888-.084 1.224-.252.348-.18.63-.42.846-.72a3.14 3.14 0 00.468-1.08c.096-.42.144-.87.144-1.35zm1.746 0c0 .708-.096 1.362-.288 1.962-.18.6-.45 1.116-.81 1.548-.36.432-.804.768-1.332 1.008-.516.24-1.11.36-1.782.36a4.43 4.43 0 01-1.44-.216c-.408-.144-.714-.282-.918-.414v3.744h-1.674v-12.402c.396-.096.888-.198 1.476-.306.6-.12 1.29-.18 2.07-.18.72 0 1.368.114 1.944.342a4.166 4.166 0 011.476.972c.408.42.72.936.936 1.548.228.6.342 1.278.342 2.034zm10.618-.018c0 .744-.108 1.416-.324 2.016a4.532 4.532 0 01-.918 1.548 4.01 4.01 0 01-1.386 1.008 4.489 4.489 0 01-1.764.342 4.489 4.489 0 01-1.764-.342 4.195 4.195 0 01-1.404-1.008 4.693 4.693 0 01-.9-1.548c-.216-.6-.324-1.272-.324-2.016 0-.732.108-1.398.324-1.998a4.66 4.66 0 01.9-1.566 3.987 3.987 0 011.404-.99c.54-.24 1.128-.36 1.764-.36.636 0 1.224.12 1.764.36.54.228 1.002.558 1.386.99.396.432.702.954.918 1.566.216.6.324 1.266.324 1.998zm-1.746 0c0-1.056-.24-1.89-.72-2.502-.468-.624-1.11-.936-1.926-.936-.816 0-1.464.312-1.944.936-.468.612-.702 1.446-.702 2.502 0 1.056.234 1.896.702 2.52.48.612 1.128.918 1.944.918.816 0 1.458-.306 1.926-.918.48-.624.72-1.464.72-2.52zm11.967-4.68V172h-1.62v-7.128c-.36.456-.756.99-1.188 1.602a65.746 65.746 0 00-1.296 1.908c-.432.648-.846 1.29-1.242 1.926A73.47 73.47 0 0041.515 172h-1.494v-9.36h1.62v6.732a66 66 0 011.062-1.692 48.772 48.772 0 012.502-3.582c.432-.564.834-1.05 1.206-1.458h1.476zm-3.924-1.512c-.756 0-1.374-.192-1.854-.576-.468-.384-.75-.918-.846-1.602l1.278-.342c.096.384.258.696.486.936.228.24.54.36.936.36s.708-.12.936-.36c.228-.24.39-.552.486-.936l1.26.342c-.096.684-.378 1.218-.846 1.602-.468.384-1.08.576-1.836.576zm5.646 9.504h1.008a8.19 8.19 0 00.936-1.782c.24-.612.42-1.242.54-1.89.12-.66.198-1.344.234-2.052.036-.72.06-1.476.072-2.268h6.138v7.992h1.26v3.978h-1.584V172h-7.02v2.61H49.61v-3.978zm7.254 0v-6.588H53.93a27.679 27.679 0 01-.09 1.71 16.374 16.374 0 01-.234 1.692 10.136 10.136 0 01-.468 1.638 9.112 9.112 0 01-.738 1.548h4.464zm12.61-7.992V172h-1.62v-7.128c-.36.456-.756.99-1.188 1.602a65.746 65.746 0 00-1.296 1.908c-.432.648-.846 1.29-1.242 1.926A73.47 73.47 0 0063.101 172h-1.494v-9.36h1.62v6.732a66 66 0 011.062-1.692 48.772 48.772 0 012.502-3.582c.432-.564.834-1.05 1.206-1.458h1.476zm9.48 0v1.404h-3.042V172h-1.674v-7.956h-3.042v-1.404h7.758zm1.204 4.698c0-.828.12-1.548.36-2.16.24-.624.558-1.14.954-1.548a3.873 3.873 0 011.368-.918 4.273 4.273 0 011.584-.306c1.26 0 2.226.396 2.898 1.188.672.78 1.008 1.974 1.008 3.582v.288c0 .108-.006.21-.018.306h-6.408c.072.972.354 1.71.846 2.214s1.26.756 2.304.756c.588 0 1.08-.048 1.476-.144.408-.108.714-.21.918-.306l.234 1.404c-.204.108-.564.222-1.08.342-.504.12-1.08.18-1.728.18-.816 0-1.524-.12-2.124-.36a4.05 4.05 0 01-1.458-1.026 4.264 4.264 0 01-.864-1.53c-.18-.6-.27-1.254-.27-1.962zm6.426-.918c.012-.756-.18-1.374-.576-1.854-.384-.492-.918-.738-1.602-.738-.384 0-.726.078-1.026.234a2.318 2.318 0 00-.738.576c-.204.24-.366.516-.486.828a4.39 4.39 0 00-.216.954h4.644zm14.815.918c0-1.092-.27-1.932-.81-2.52-.54-.588-1.26-.882-2.16-.882-.504 0-.9.018-1.188.054a4.748 4.748 0 00-.666.126v5.904c.204.168.498.33.882.486.384.156.804.234 1.26.234.48 0 .888-.084 1.224-.252.348-.18.63-.42.846-.72a3.14 3.14 0 00.468-1.08c.096-.42.144-.87.144-1.35zm1.746 0c0 .708-.096 1.362-.288 1.962-.18.6-.45 1.116-.81 1.548-.36.432-.804.768-1.332 1.008-.516.24-1.11.36-1.782.36a4.43 4.43 0 01-1.44-.216c-.408-.144-.714-.282-.918-.414v3.744H94.9v-12.402c.396-.096.888-.198 1.476-.306.6-.12 1.29-.18 2.07-.18.72 0 1.368.114 1.944.342a4.166 4.166 0 011.476.972c.408.42.72.936.936 1.548.228.6.342 1.278.342 2.034zm1.834 0c0-.828.12-1.548.36-2.16.24-.624.558-1.14.954-1.548a3.873 3.873 0 011.368-.918 4.273 4.273 0 011.584-.306c1.26 0 2.226.396 2.898 1.188.672.78 1.008 1.974 1.008 3.582v.288c0 .108-.006.21-.018.306h-6.408c.072.972.354 1.71.846 2.214s1.26.756 2.304.756c.588 0 1.08-.048 1.476-.144.408-.108.714-.21.918-.306l.234 1.404c-.204.108-.564.222-1.08.342-.504.12-1.08.18-1.728.18-.816 0-1.524-.12-2.124-.36a4.05 4.05 0 01-1.458-1.026 4.264 4.264 0 01-.864-1.53c-.18-.6-.27-1.254-.27-1.962zm6.426-.918c.012-.756-.18-1.374-.576-1.854-.384-.492-.918-.738-1.602-.738-.384 0-.726.078-1.026.234a2.318 2.318 0 00-.738.576c-.204.24-.366.516-.486.828a4.39 4.39 0 00-.216.954h4.644zm9.946-2.376h-4.122V172h-1.674v-9.36h5.796v1.404zm9.594-1.404V172h-1.62v-7.128c-.36.456-.756.99-1.188 1.602a65.746 65.746 0 00-1.296 1.908c-.432.648-.846 1.29-1.242 1.926a73.47 73.47 0 00-1.026 1.692h-1.494v-9.36h1.62v6.732a66 66 0 011.062-1.692 48.772 48.772 0 012.502-3.582c.432-.564.834-1.05 1.206-1.458h1.476zm6.942 9.576c-.756 0-1.422-.12-1.998-.36a4.108 4.108 0 01-1.44-1.008 4.264 4.264 0 01-.864-1.53 6.47 6.47 0 01-.288-1.98c0-.72.102-1.38.306-1.98.216-.6.516-1.116.9-1.548a3.87 3.87 0 011.404-1.026 4.538 4.538 0 011.872-.378c.42 0 .84.036 1.26.108.42.072.822.186 1.206.342l-.378 1.422a4.005 4.005 0 00-.882-.288 4.807 4.807 0 00-1.044-.108c-.936 0-1.656.294-2.16.882-.492.588-.738 1.446-.738 2.574 0 .504.054.966.162 1.386.12.42.3.78.54 1.08.252.3.57.534.954.702.384.156.852.234 1.404.234.444 0 .846-.042 1.206-.126a4.41 4.41 0 00.846-.27l.234 1.404c-.096.06-.234.12-.414.18-.18.048-.384.09-.612.126a6.402 6.402 0 01-.738.108 5.216 5.216 0 01-.738.054zm11.169-9.576v1.404h-3.042V172h-1.674v-7.956h-3.042v-1.404h7.758zm8.224 4.698c0-1.092-.27-1.932-.81-2.52-.54-.588-1.26-.882-2.16-.882-.504 0-.9.018-1.188.054a4.748 4.748 0 00-.666.126v5.904c.204.168.498.33.882.486.384.156.804.234 1.26.234.48 0 .888-.084 1.224-.252.348-.18.63-.42.846-.72a3.14 3.14 0 00.468-1.08c.096-.42.144-.87.144-1.35zm1.746 0c0 .708-.096 1.362-.288 1.962-.18.6-.45 1.116-.81 1.548-.36.432-.804.768-1.332 1.008-.516.24-1.11.36-1.782.36a4.43 4.43 0 01-1.44-.216c-.408-.144-.714-.282-.918-.414v3.744h-1.674v-12.402c.396-.096.888-.198 1.476-.306.6-.12 1.29-.18 2.07-.18.72 0 1.368.114 1.944.342a4.166 4.166 0 011.476.972c.408.42.72.936.936 1.548.228.6.342 1.278.342 2.034zm5.523 3.456c.396 0 .744-.006 1.044-.018.312-.024.57-.06.774-.108v-2.79c-.12-.06-.318-.108-.594-.144a5.548 5.548 0 00-.972-.072 6.55 6.55 0 00-.81.054 2.416 2.416 0 00-.774.234c-.228.108-.42.264-.576.468-.156.192-.234.45-.234.774 0 .6.192 1.02.576 1.26.384.228.906.342 1.566.342zm-.144-8.388c.672 0 1.236.09 1.692.27.468.168.84.414 1.116.738.288.312.492.69.612 1.134.12.432.18.912.18 1.44v5.85c-.144.024-.348.06-.612.108-.252.036-.54.072-.864.108-.324.036-.678.066-1.062.09a11.58 11.58 0 01-1.116.054 6.165 6.165 0 01-1.458-.162 3.36 3.36 0 01-1.152-.504 2.42 2.42 0 01-.756-.936c-.18-.384-.27-.846-.27-1.386 0-.516.102-.96.306-1.332.216-.372.504-.672.864-.9a3.96 3.96 0 011.26-.504 6.87 6.87 0 011.512-.162c.168 0 .342.012.522.036.18.012.348.036.504.072a8.05 8.05 0 01.684.126v-.468c0-.276-.03-.546-.09-.81a1.796 1.796 0 00-.324-.72 1.53 1.53 0 00-.648-.504c-.264-.132-.612-.198-1.044-.198-.552 0-1.038.042-1.458.126-.408.072-.714.15-.918.234l-.198-1.386c.216-.096.576-.186 1.08-.27a8.76 8.76 0 011.638-.144zm13.851 8.208h1.26v3.996h-1.584V172h-7.146v-9.36h1.674v7.974h4.122v-7.974h1.674v7.974zm10.943-7.974V172h-1.62v-7.128c-.36.456-.756.99-1.188 1.602a65.746 65.746 0 00-1.296 1.908c-.432.648-.846 1.29-1.242 1.926a73.47 73.47 0 00-1.026 1.692h-1.494v-9.36h1.62v6.732a66 66 0 011.062-1.692 48.772 48.772 0 012.502-3.582c.432-.564.834-1.05 1.206-1.458h1.476zm4.548 3.87h2.052a5.33 5.33 0 01.468-1.692c.252-.504.564-.936.936-1.296.372-.36.798-.636 1.278-.828a4.13 4.13 0 011.548-.288c.612 0 1.176.12 1.692.36.528.228.984.558 1.368.99.384.432.684.954.9 1.566.216.6.324 1.266.324 1.998 0 .744-.108 1.416-.324 2.016a4.693 4.693 0 01-.9 1.548c-.384.432-.84.768-1.368 1.008a4.14 4.14 0 01-1.692.342 4.276 4.276 0 01-1.62-.306 4.206 4.206 0 01-1.296-.882 4.73 4.73 0 01-.918-1.386 5.653 5.653 0 01-.414-1.8h-2.034V172h-1.674v-9.36h1.674v3.87zm8.838.81c0-1.056-.234-1.89-.702-2.502-.456-.624-1.074-.936-1.854-.936s-1.404.312-1.872.936c-.456.612-.684 1.446-.684 2.502 0 1.056.228 1.896.684 2.52.468.612 1.092.918 1.872.918s1.398-.306 1.854-.918c.468-.624.702-1.464.702-2.52z" fill="#9296BD"/><g opacity=".2" filter="url(#filter6_d)"><circle cx="105.5" cy="93.5" r="51.5" fill="url(#paint8_linear)"/></g><g filter="url(#filter7_d)"><circle cx="105.5" cy="93.5" r="37.5" fill="url(#paint9_linear)"/></g><path d="M119.927 103.849a1.134 1.134 0 00-2.219.462c.074.353-.014.715-.24.993-.13.16-.422.43-.906.43h-5.115a1.133 1.133 0 000 2.266h5.115a3.421 3.421 0 002.664-1.267c.658-.809.914-1.86.701-2.884zm-13.276-9.399a12.463 12.463 0 019.216 5.483 1.133 1.133 0 101.881-1.262 14.73 14.73 0 00-7.636-5.801 7.696 7.696 0 003.092-6.167c0-4.247-3.456-7.703-7.703-7.703-4.248 0-7.704 3.456-7.704 7.703a7.697 7.697 0 003.095 6.17 14.723 14.723 0 00-4.747 2.609 14.782 14.782 0 00-5.072 8.368 3.44 3.44 0 00.7 2.884 3.42 3.42 0 002.665 1.267h4.945a1.133 1.133 0 100-2.266h-4.945c-.484 0-.776-.27-.907-.43a1.185 1.185 0 01-.24-.993c1.11-5.328 5.607-9.3 10.943-9.85l-2.163 9.84c-.082.378.033.771.306 1.044l2.266 2.267a1.132 1.132 0 001.602 0l2.266-2.267c.273-.273.388-.666.305-1.044l-2.165-9.852zm-6.588-7.747a5.444 5.444 0 015.438-5.437 5.443 5.443 0 015.437 5.437 5.444 5.444 0 01-5.168 5.431 14.984 14.984 0 00-.535 0 5.444 5.444 0 01-5.172-5.43zm5.381 18.506l-1.026-1.026 1.026-4.669 1.026 4.669-1.026 1.026z" fill="#EAEAEA"/><path d="M343.048 190.026s-67.644-1.192-108.5 16.813c-35.649 15.711-84.018 57.743-84.018 57.743" stroke="url(#paint10_linear)" stroke-width="2"/><g filter="url(#filter8_d)"><circle cx="275" cy="102" r="15" fill="url(#paint11_linear)"/></g><path d="M274.588 101.824c0 1.4-.268 2.476-.804 3.228-.528.744-1.26 1.116-2.196 1.116-.936 0-1.672-.372-2.208-1.116-.528-.752-.792-1.828-.792-3.228 0-.696.068-1.312.204-1.848.144-.536.348-.988.612-1.356a2.7 2.7 0 01.948-.84c.368-.192.78-.288 1.236-.288.936 0 1.668.376 2.196 1.128.536.744.804 1.812.804 3.204zm-1.824 0c0-.416-.02-.792-.06-1.128a4.087 4.087 0 00-.192-.888 1.369 1.369 0 00-.36-.576.815.815 0 00-.564-.204.815.815 0 00-.564.204 1.547 1.547 0 00-.36.576 4.087 4.087 0 00-.192.888c-.04.336-.06.712-.06 1.128 0 .416.02.796.06 1.14.04.344.104.64.192.888.096.248.216.44.36.576.152.136.34.204.564.204a.815.815 0 00.564-.204c.152-.136.272-.328.36-.576.088-.248.152-.544.192-.888.04-.344.06-.724.06-1.14zm3.076-2.412c.232-.096.472-.204.72-.324.256-.128.504-.264.744-.408.24-.152.468-.308.684-.468.224-.168.424-.344.6-.528h1.248V106h-1.788v-5.988c-.24.16-.508.308-.804.444-.296.128-.584.24-.864.336l-.54-1.38z" fill="#EAEAEA"/><g filter="url(#filter9_d)"><circle cx="230" cy="209" r="15" fill="url(#paint12_linear)"/></g><path d="M229.588 208.824c0 1.4-.268 2.476-.804 3.228-.528.744-1.26 1.116-2.196 1.116-.936 0-1.672-.372-2.208-1.116-.528-.752-.792-1.828-.792-3.228 0-.696.068-1.312.204-1.848.144-.536.348-.988.612-1.356a2.7 2.7 0 01.948-.84c.368-.192.78-.288 1.236-.288.936 0 1.668.376 2.196 1.128.536.744.804 1.812.804 3.204zm-1.824 0c0-.416-.02-.792-.06-1.128a4.087 4.087 0 00-.192-.888 1.369 1.369 0 00-.36-.576.815.815 0 00-.564-.204.815.815 0 00-.564.204 1.547 1.547 0 00-.36.576 4.087 4.087 0 00-.192.888c-.04.336-.06.712-.06 1.128 0 .416.02.796.06 1.14.04.344.104.64.192.888.096.248.216.44.36.576.152.136.34.204.564.204a.815.815 0 00.564-.204c.152-.136.272-.328.36-.576.088-.248.152-.544.192-.888.04-.344.06-.724.06-1.14zm8.188-1.956c0 .304-.06.596-.18.876a4.2 4.2 0 01-.468.816 6.955 6.955 0 01-.648.744 27.6 27.6 0 01-.708.684c-.12.112-.252.24-.396.384a12.152 12.152 0 00-.744.828.976.976 0 00-.18.3h3.576v1.5h-5.544a1.934 1.934 0 01-.024-.336v-.288c0-.384.06-.736.18-1.056a4 4 0 01.492-.888c.2-.28.424-.54.672-.78.256-.24.508-.48.756-.72l.54-.516c.168-.168.316-.328.444-.48.128-.16.228-.316.3-.468.072-.16.108-.32.108-.48 0-.352-.1-.6-.3-.744-.2-.144-.448-.216-.744-.216-.216 0-.42.036-.612.108a2.765 2.765 0 00-.516.24c-.152.088-.284.18-.396.276-.112.088-.196.16-.252.216l-.888-1.248c.352-.328.76-.596 1.224-.804a3.59 3.59 0 011.512-.324c.488 0 .908.056 1.26.168.352.112.64.272.864.48.232.2.4.448.504.744a2.7 2.7 0 01.168.984z" fill="#F5F5F5"/><g filter="url(#filter10_d)"><circle cx="270" cy="302" r="15" fill="url(#paint13_linear)"/></g><path d="M269.588 301.824c0 1.4-.268 2.476-.804 3.228-.528.744-1.26 1.116-2.196 1.116-.936 0-1.672-.372-2.208-1.116-.528-.752-.792-1.828-.792-3.228 0-.696.068-1.312.204-1.848.144-.536.348-.988.612-1.356a2.7 2.7 0 01.948-.84c.368-.192.78-.288 1.236-.288.936 0 1.668.376 2.196 1.128.536.744.804 1.812.804 3.204zm-1.824 0c0-.416-.02-.792-.06-1.128a4.087 4.087 0 00-.192-.888 1.369 1.369 0 00-.36-.576.815.815 0 00-.564-.204.815.815 0 00-.564.204 1.547 1.547 0 00-.36.576 4.087 4.087 0 00-.192.888c-.04.336-.06.712-.06 1.128 0 .416.02.796.06 1.14.04.344.104.64.192.888.096.248.216.44.36.576.152.136.34.204.564.204a.815.815 0 00.564-.204c.152-.136.272-.328.36-.576.088-.248.152-.544.192-.888.04-.344.06-.724.06-1.14zm4.972 4.356c-.216 0-.444-.016-.684-.048a6.323 6.323 0 01-.696-.108 7.53 7.53 0 01-.612-.156 3.525 3.525 0 01-.432-.156l.348-1.488c.208.088.472.184.792.288.328.096.732.144 1.212.144.552 0 .956-.104 1.212-.312.256-.208.384-.488.384-.84a.953.953 0 00-.144-.54.948.948 0 00-.372-.36 1.53 1.53 0 00-.576-.192 3.823 3.823 0 00-.696-.06h-.696v-1.44h.792c.176 0 .344-.016.504-.048.168-.032.316-.084.444-.156a.862.862 0 00.3-.312.98.98 0 00.12-.504.785.785 0 00-.348-.672.926.926 0 00-.348-.156 1.32 1.32 0 00-.396-.06c-.344 0-.664.052-.96.156a4.037 4.037 0 00-.792.384l-.636-1.308c.128-.08.276-.164.444-.252.176-.088.368-.168.576-.24.208-.072.428-.132.66-.18.24-.048.492-.072.756-.072.488 0 .908.06 1.26.18.36.112.656.276.888.492.232.208.404.456.516.744.112.28.168.588.168.924 0 .328-.092.648-.276.96a1.832 1.832 0 01-.744.696c.432.176.764.44.996.792.24.344.36.76.36 1.248 0 .384-.064.74-.192 1.068a2.2 2.2 0 01-.6.84c-.272.232-.62.416-1.044.552-.416.128-.912.192-1.488.192z" fill="#EAEAEA"/><defs><linearGradient id="paint0_linear" x1="54" y1="241" x2="161.621" y2="246.078" gradientUnits="userSpaceOnUse"><stop stop-color="#2989BF"/><stop offset="1" stop-color="#44C8F1"/></linearGradient><linearGradient id="paint1_linear" x1="68" y1="255" x2="146.365" y2="258.698" gradientUnits="userSpaceOnUse"><stop stop-color="#2989BF"/><stop offset="1" stop-color="#44C8F1"/></linearGradient><linearGradient id="paint2_linear" x1="353.977" y1="159.142" x2="161.458" y2="84.585" gradientUnits="userSpaceOnUse"><stop stop-color="#2DB7F6" stop-opacity="0"/><stop offset=".151" stop-color="#2EB7F6"/><stop offset=".849" stop-color="#2DB7F6"/><stop offset="1" stop-color="#2DB7F6" stop-opacity="0"/></linearGradient><linearGradient id="paint3_linear" x1="353.977" y1="361.981" x2="161.458" y2="287.424" gradientUnits="userSpaceOnUse"><stop stop-color="#2DB7F6" stop-opacity="0"/><stop offset=".151" stop-color="#2EB7F6"/><stop offset=".849" stop-color="#2DB7F6"/><stop offset="1" stop-color="#2DB7F6" stop-opacity="0"/></linearGradient><linearGradient id="paint4_linear" x1="344" y1="142" x2="451.621" y2="147.078" gradientUnits="userSpaceOnUse"><stop stop-color="#2989BF"/><stop offset="1" stop-color="#44C8F1"/></linearGradient><linearGradient id="paint5_linear" x1="358" y1="156" x2="436.365" y2="159.698" gradientUnits="userSpaceOnUse"><stop stop-color="#2989BF"/><stop offset="1" stop-color="#44C8F1"/></linearGradient><linearGradient id="paint6_linear" x1="344" y1="341" x2="451.621" y2="346.078" gradientUnits="userSpaceOnUse"><stop stop-color="#2989BF"/><stop offset="1" stop-color="#44C8F1"/></linearGradient><linearGradient id="paint7_linear" x1="358" y1="355" x2="436.365" y2="358.698" gradientUnits="userSpaceOnUse"><stop stop-color="#2989BF"/><stop offset="1" stop-color="#44C8F1"/></linearGradient><linearGradient id="paint8_linear" x1="54" y1="42" x2="161.621" y2="47.078" gradientUnits="userSpaceOnUse"><stop stop-color="#2989BF"/><stop offset="1" stop-color="#44C8F1"/></linearGradient><linearGradient id="paint9_linear" x1="68" y1="56" x2="146.365" y2="59.698" gradientUnits="userSpaceOnUse"><stop stop-color="#2989BF"/><stop offset="1" stop-color="#44C8F1"/></linearGradient><linearGradient id="paint10_linear" x1="151.071" y1="265.981" x2="343.59" y2="191.424" gradientUnits="userSpaceOnUse"><stop stop-color="#2DB7F6" stop-opacity="0"/><stop offset=".151" stop-color="#2EB7F6"/><stop offset=".849" stop-color="#2DB7F6"/><stop offset="1" stop-color="#2DB7F6" stop-opacity="0"/></linearGradient><linearGradient id="paint11_linear" x1="260" y1="87" x2="291.346" y2="88.479" gradientUnits="userSpaceOnUse"><stop stop-color="#2989BF"/><stop offset="1" stop-color="#44C8F1"/></linearGradient><linearGradient id="paint12_linear" x1="215" y1="194" x2="246.346" y2="195.479" gradientUnits="userSpaceOnUse"><stop stop-color="#2989BF"/><stop offset="1" stop-color="#44C8F1"/></linearGradient><linearGradient id="paint13_linear" x1="255" y1="287" x2="286.346" y2="288.479" gradientUnits="userSpaceOnUse"><stop stop-color="#2989BF"/><stop offset="1" stop-color="#44C8F1"/></linearGradient><filter id="filter0_d" x="4" y="199" width="203" height="203" filterUnits="userSpaceOnUse" color-interpolation-filters="sRGB"><feFlood flood-opacity="0" result="BackgroundImageFix"/><feColorMatrix in="SourceAlpha" values="0 0 0 0 0 0 0 0 0 0 0 0 0 0 0 0 0 0 127 0"/><feMorphology radius="10" operator="dilate" in="SourceAlpha" result="effect1_dropShadow"/><feOffset dy="8"/><feGaussianBlur stdDeviation="20"/><feColorMatrix values="0 0 0 0 0 0 0 0 0 0 0 0 0 0 0 0 0 0 0.1 0"/><feBlend in2="BackgroundImageFix" result="effect1_dropShadow"/><feBlend in="SourceGraphic" in2="effect1_dropShadow" result="shape"/></filter><filter id="filter1_d" x="38" y="233" width="135" height="135" filterUnits="userSpaceOnUse" color-interpolation-filters="sRGB"><feFlood flood-opacity="0" result="BackgroundImageFix"/><feColorMatrix in="SourceAlpha" values="0 0 0 0 0 0 0 0 0 0 0 0 0 0 0 0 0 0 127 0"/><feMorphology radius="10" operator="dilate" in="SourceAlpha" result="effect1_dropShadow"/><feOffset dy="8"/><feGaussianBlur stdDeviation="10"/><feColorMatrix values="0 0 0 0 0 0 0 0 0 0 0 0 0 0 0 0 0 0 0.15 0"/><feBlend in2="BackgroundImageFix" result="effect1_dropShadow"/><feBlend in="SourceGraphic" in2="effect1_dropShadow" result="shape"/></filter><filter id="filter2_d" x="294" y="100" width="203" height="203" filterUnits="userSpaceOnUse" color-interpolation-filters="sRGB"><feFlood flood-opacity="0" result="BackgroundImageFix"/><feColorMatrix in="SourceAlpha" values="0 0 0 0 0 0 0 0 0 0 0 0 0 0 0 0 0 0 127 0"/><feMorphology radius="10" operator="dilate" in="SourceAlpha" result="effect1_dropShadow"/><feOffset dy="8"/><feGaussianBlur stdDeviation="20"/><feColorMatrix values="0 0 0 0 0 0 0 0 0 0 0 0 0 0 0 0 0 0 0.1 0"/><feBlend in2="BackgroundImageFix" result="effect1_dropShadow"/><feBlend in="SourceGraphic" in2="effect1_dropShadow" result="shape"/></filter><filter id="filter3_d" x="328" y="134" width="135" height="135" filterUnits="userSpaceOnUse" color-interpolation-filters="sRGB"><feFlood flood-opacity="0" result="BackgroundImageFix"/><feColorMatrix in="SourceAlpha" values="0 0 0 0 0 0 0 0 0 0 0 0 0 0 0 0 0 0 127 0"/><feMorphology radius="10" operator="dilate" in="SourceAlpha" result="effect1_dropShadow"/><feOffset dy="8"/><feGaussianBlur stdDeviation="10"/><feColorMatrix values="0 0 0 0 0 0 0 0 0 0 0 0 0 0 0 0 0 0 0.15 0"/><feBlend in2="BackgroundImageFix" result="effect1_dropShadow"/><feBlend in="SourceGraphic" in2="effect1_dropShadow" result="shape"/></filter><filter id="filter4_d" x="294" y="299" width="203" height="203" filterUnits="userSpaceOnUse" color-interpolation-filters="sRGB"><feFlood flood-opacity="0" result="BackgroundImageFix"/><feColorMatrix in="SourceAlpha" values="0 0 0 0 0 0 0 0 0 0 0 0 0 0 0 0 0 0 127 0"/><feMorphology radius="10" operator="dilate" in="SourceAlpha" result="effect1_dropShadow"/><feOffset dy="8"/><feGaussianBlur stdDeviation="20"/><feColorMatrix values="0 0 0 0 0 0 0 0 0 0 0 0 0 0 0 0 0 0 0.1 0"/><feBlend in2="BackgroundImageFix" result="effect1_dropShadow"/><feBlend in="SourceGraphic" in2="effect1_dropShadow" result="shape"/></filter><filter id="filter5_d" x="328" y="333" width="135" height="135" filterUnits="userSpaceOnUse" color-interpolation-filters="sRGB"><feFlood flood-opacity="0" result="BackgroundImageFix"/><feColorMatrix in="SourceAlpha" values="0 0 0 0 0 0 0 0 0 0 0 0 0 0 0 0 0 0 127 0"/><feMorphology radius="10" operator="dilate" in="SourceAlpha" result="effect1_dropShadow"/><feOffset dy="8"/><feGaussianBlur stdDeviation="10"/><feColorMatrix values="0 0 0 0 0 0 0 0 0 0 0 0 0 0 0 0 0 0 0.15 0"/><feBlend in2="BackgroundImageFix" result="effect1_dropShadow"/><feBlend in="SourceGraphic" in2="effect1_dropShadow" result="shape"/></filter><filter id="filter6_d" x="4" y="0" width="203" height="203" filterUnits="userSpaceOnUse" color-interpolation-filters="sRGB"><feFlood flood-opacity="0" result="BackgroundImageFix"/><feColorMatrix in="SourceAlpha" values="0 0 0 0 0 0 0 0 0 0 0 0 0 0 0 0 0 0 127 0"/><feMorphology radius="10" operator="dilate" in="SourceAlpha" result="effect1_dropShadow"/><feOffset dy="8"/><feGaussianBlur stdDeviation="20"/><feColorMatrix values="0 0 0 0 0 0 0 0 0 0 0 0 0 0 0 0 0 0 0.1 0"/><feBlend in2="BackgroundImageFix" result="effect1_dropShadow"/><feBlend in="SourceGraphic" in2="effect1_dropShadow" result="shape"/></filter><filter id="filter7_d" x="38" y="34" width="135" height="135" filterUnits="userSpaceOnUse" color-interpolation-filters="sRGB"><feFlood flood-opacity="0" result="BackgroundImageFix"/><feColorMatrix in="SourceAlpha" values="0 0 0 0 0 0 0 0 0 0 0 0 0 0 0 0 0 0 127 0"/><feMorphology radius="10" operator="dilate" in="SourceAlpha" result="effect1_dropShadow"/><feOffset dy="8"/><feGaussianBlur stdDeviation="10"/><feColorMatrix values="0 0 0 0 0 0 0 0 0 0 0 0 0 0 0 0 0 0 0.15 0"/><feBlend in2="BackgroundImageFix" result="effect1_dropShadow"/><feBlend in="SourceGraphic" in2="effect1_dropShadow" result="shape"/></filter><filter id="filter8_d" x="230" y="65" width="90" height="90" filterUnits="userSpaceOnUse" color-interpolation-filters="sRGB"><feFlood flood-opacity="0" result="BackgroundImageFix"/><feColorMatrix in="SourceAlpha" values="0 0 0 0 0 0 0 0 0 0 0 0 0 0 0 0 0 0 127 0"/><feMorphology radius="10" operator="dilate" in="SourceAlpha" result="effect1_dropShadow"/><feOffset dy="8"/><feGaussianBlur stdDeviation="10"/><feColorMatrix values="0 0 0 0 0 0 0 0 0 0 0 0 0 0 0 0 0 0 0.1 0"/><feBlend in2="BackgroundImageFix" result="effect1_dropShadow"/><feBlend in="SourceGraphic" in2="effect1_dropShadow" result="shape"/></filter><filter id="filter9_d" x="185" y="172" width="90" height="90" filterUnits="userSpaceOnUse" color-interpolation-filters="sRGB"><feFlood flood-opacity="0" result="BackgroundImageFix"/><feColorMatrix in="SourceAlpha" values="0 0 0 0 0 0 0 0 0 0 0 0 0 0 0 0 0 0 127 0"/><feMorphology radius="10" operator="dilate" in="SourceAlpha" result="effect1_dropShadow"/><feOffset dy="8"/><feGaussianBlur stdDeviation="10"/><feColorMatrix values="0 0 0 0 0 0 0 0 0 0 0 0 0 0 0 0 0 0 0.1 0"/><feBlend in2="BackgroundImageFix" result="effect1_dropShadow"/><feBlend in="SourceGraphic" in2="effect1_dropShadow" result="shape"/></filter><filter id="filter10_d" x="225" y="265" width="90" height="90" filterUnits="userSpaceOnUse" color-interpolation-filters="sRGB"><feFlood flood-opacity="0" result="BackgroundImageFix"/><feColorMatrix in="SourceAlpha" values="0 0 0 0 0 0 0 0 0 0 0 0 0 0 0 0 0 0 127 0"/><feMorphology radius="10" operator="dilate" in="SourceAlpha" result="effect1_dropShadow"/><feOffset dy="8"/><feGaussianBlur stdDeviation="10"/><feColorMatrix values="0 0 0 0 0 0 0 0 0 0 0 0 0 0 0 0 0 0 0.15 0"/><feBlend in2="BackgroundImageFix" result="effect1_dropShadow"/><feBlend in="SourceGraphic" in2="effect1_dropShadow" result="shape"/></filter><clipPath id="clip0"><path fill="#fff" transform="translate(378 176)" d="M0 0h35v35H0z"/></clipPath></defs></svg>