<svg width="1920" height="780" fill="none" xmlns="http://www.w3.org/2000/svg"><g opacity=".7"><path opacity=".5" d="M165.5 464C103 464-38 667.5-38 667.5v112L1931 543V28.5s-160 21-198 31S1562 180 1510 180s-111.5-64.5-160.5-64.5-122 46.5-160 64.5-66.5 93.5-116 93.5-52-67-102.5-67S785.5 434 735 434s-33.5-116-69-116-137 23-177.5 39-171.5 217-215 215-45.5-108-108-108z" fill="url(#paint0_linear)"/><path d="M-38 667.5S103 464 165.5 464s64.5 106 108 108 174.5-199 215-215 142-39 177.5-39 18.5 116 69 116 185.5-227.5 236-227.5 53 67 102.5 67 78-75.5 116-93.5 111-64.5 160-64.5S1458 180 1510 180s185-110.5 223-120.5 198-31 198-31" stroke="#BFEFF4" stroke-width="4"/><circle cx="166" cy="465" r="7" fill="#BFEFF4"/><circle cx="271" cy="571" r="7" fill="#BFEFF4"/><circle cx="484" cy="358" r="7" fill="#BFEFF4"/><circle cx="669" cy="315" r="7" fill="#BFEFF4"/><circle cx="734" cy="435" r="7" fill="#BFEFF4"/><circle cx="977" cy="206" r="7" fill="#BFEFF4"/><circle cx="1072" cy="273" r="7" fill="#BFEFF4"/><circle cx="1335" cy="119" r="7" fill="#BFEFF4"/><circle cx="1728" cy="60" r="7" fill="#BFEFF4"/><path d="M156.637 442.075c0 1.883-.558 3.392-1.675 4.525-1.116 1.133-2.633 1.7-4.55 1.7-2.283 0-4.266-.775-5.95-2.325-.133-.167-.133-.342 0-.525l1.375-1.5c.15-.167.325-.158.525.025 1.3 1.017 2.659 1.525 4.075 1.525 1.05 0 1.85-.3 2.4-.9.567-.617.85-1.458.85-2.525 0-2.1-1.075-3.15-3.225-3.15-1.316 0-2.383.358-3.2 1.075-.166.15-.333.192-.5.125l-1.7-.575c-.216-.05-.325-.192-.325-.425l.325-8.625c0-.25.125-.375.375-.375h9.85c.25 0 .375.125.375.375v2c0 .25-.125.375-.375.375h-7.4l-.125 4.15c.85-.517 1.867-.775 3.05-.775 1.8 0 3.217.517 4.25 1.55 1.05 1.017 1.575 2.442 1.575 4.275zm14.876.1c0 2.033-.608 3.567-1.825 4.6-1.2 1.017-2.642 1.525-4.325 1.525-1.067 0-2.05-.192-2.95-.575-.9-.4-1.667-1.075-2.3-2.025-.617-.967-.925-2.142-.925-3.525v-6.325c0-2 .608-3.5 1.825-4.5 1.217-1.017 2.667-1.525 4.35-1.525 1.683 0 3.125.508 4.325 1.525 1.217 1 1.825 2.5 1.825 4.5v6.325zm-9.4.1c0 1.15.317 1.975.95 2.475.633.483 1.4.725 2.3.725.9 0 1.658-.242 2.275-.725.633-.5.95-1.325.95-2.475V435.9c0-1.167-.317-2-.95-2.5-.617-.5-1.375-.75-2.275-.75-.9 0-1.667.25-2.3.75-.633.5-.95 1.333-.95 2.5v6.375zm18.656-4.75c.733.167 1.308.317 1.725.45.433.117.975.325 1.625.625.65.283 1.15.6 1.5.95.35.35.658.825.925 1.425.283.6.425 1.283.425 2.05 0 1.517-.5 2.717-1.5 3.6-1 .867-2.275 1.4-3.825 1.6v1.925c0 .25-.117.375-.35.375h-1.7c-.25 0-.375-.125-.375-.375v-1.9c-1.75-.183-3.458-.975-5.125-2.375-.2-.167-.217-.342-.05-.525l1.225-1.7c.15-.2.317-.225.5-.075 1.617 1.2 3.175 1.825 4.675 1.875.95 0 1.767-.208 2.45-.625.7-.433 1.05-1.05 1.05-1.85 0-.35-.075-.658-.225-.925a2.303 2.303 0 00-.525-.65c-.2-.167-.508-.325-.925-.475-.4-.15-.75-.258-1.05-.325a18.38 18.38 0 00-1.25-.3 14.985 14.985 0 01-2.025-.575 10.891 10.891 0 01-1.825-.9 4.242 4.242 0 01-1.475-1.55c-.35-.65-.525-1.408-.525-2.275 0-1.483.467-2.65 1.4-3.5.933-.867 2.167-1.4 3.7-1.6v-1.775c0-.25.125-.375.375-.375h1.7c.233 0 .35.125.35.375v1.75c1.567.167 3.142.825 4.725 1.975.2.117.233.283.1.5l-1.175 1.7c-.133.183-.308.208-.525.075-1.367-.933-2.833-1.425-4.4-1.475-1.017 0-1.817.217-2.4.65-.583.433-.875 1.025-.875 1.775 0 .3.067.575.2.825.133.233.292.425.475.575.183.15.458.3.825.45.367.133.692.242.975.325.283.067.683.158 1.2.275zM963.678 176h-11.225c-.233 0-.35-.125-.35-.375v-1.5c0-.183.059-.333.175-.45l5.075-5.275c1.167-1.217 2.034-2.225 2.6-3.025.567-.817.85-1.625.85-2.425 0-.667-.216-1.225-.65-1.675-.433-.467-1.091-.7-1.975-.7-1.366 0-2.7.667-4 2-.166.2-.333.192-.5-.025l-1.175-1.6c-.133-.167-.125-.333.025-.5 1.617-1.75 3.5-2.625 5.65-2.625 1.65 0 2.992.442 4.025 1.325 1.05.883 1.575 2.133 1.575 3.75a5.984 5.984 0 01-.85 3.075c-.55.967-1.425 2.133-2.625 3.5-1.016 1.167-2.258 2.442-3.725 3.825h7.1c.25 0 .375.125.375.375v1.95c0 .25-.125.375-.375.375zm15.388-5.825c0 2.033-.608 3.567-1.825 4.6-1.2 1.017-2.641 1.525-4.325 1.525-1.066 0-2.05-.192-2.95-.575-.9-.4-1.666-1.075-2.3-2.025-.616-.967-.925-2.142-.925-3.525v-6.325c0-2 .609-3.5 1.825-4.5 1.217-1.017 2.667-1.525 4.35-1.525 1.684 0 3.125.508 4.325 1.525 1.217 1 1.825 2.5 1.825 4.5v6.325zm-9.4.1c0 1.15.317 1.975.95 2.475.634.483 1.4.725 2.3.725.9 0 1.659-.242 2.275-.725.634-.5.95-1.325.95-2.475V163.9c0-1.167-.316-2-.95-2.5-.616-.5-1.375-.75-2.275-.75-.9 0-1.666.25-2.3.75-.633.5-.95 1.333-.95 2.5v6.375zm24.781-.1c0 2.033-.608 3.567-1.825 4.6-1.2 1.017-2.641 1.525-4.325 1.525-1.066 0-2.05-.192-2.95-.575-.9-.4-1.666-1.075-2.3-2.025-.616-.967-.925-2.142-.925-3.525v-6.325c0-2 .609-3.5 1.825-4.5 1.217-1.017 2.667-1.525 4.35-1.525 1.684 0 3.125.508 4.325 1.525 1.217 1 1.825 2.5 1.825 4.5v6.325zm-9.4.1c0 1.15.317 1.975.95 2.475.634.483 1.4.725 2.3.725.9 0 1.659-.242 2.275-.725.634-.5.95-1.325.95-2.475V163.9c0-1.167-.316-2-.95-2.5-.616-.5-1.375-.75-2.275-.75-.9 0-1.666.25-2.3.75-.633.5-.95 1.333-.95 2.5v6.375zm18.653-4.75c.74.167 1.31.317 1.73.45.43.117.97.325 1.62.625.65.283 1.15.6 1.5.95.35.35.66.825.93 1.425.28.6.42 1.283.42 2.05 0 1.517-.5 2.717-1.5 3.6-1 .867-2.27 1.4-3.82 1.6v1.925c0 .25-.12.375-.35.375h-1.7c-.25 0-.38-.125-.38-.375v-1.9c-1.75-.183-3.455-.975-5.122-2.375-.2-.167-.217-.342-.05-.525l1.225-1.7c.15-.2.317-.225.5-.075 1.617 1.2 3.177 1.825 4.677 1.875.95 0 1.76-.208 2.45-.625.7-.433 1.05-1.05 1.05-1.85 0-.35-.08-.658-.23-.925a2.29 2.29 0 00-.52-.65c-.2-.167-.51-.325-.93-.475-.4-.15-.75-.258-1.05-.325-.28-.083-.7-.183-1.25-.3a15.07 15.07 0 01-2.02-.575 10.65 10.65 0 01-1.827-.9 4.242 4.242 0 01-1.475-1.55c-.35-.65-.525-1.408-.525-2.275 0-1.483.467-2.65 1.4-3.5.933-.867 2.167-1.4 3.697-1.6v-1.775c0-.25.13-.375.38-.375h1.7c.23 0 .35.125.35.375v1.75c1.56.167 3.14.825 4.72 1.975.2.117.24.283.1.5l-1.17 1.7c-.14.183-.31.208-.53.075-1.36-.933-2.83-1.425-4.4-1.475-1.01 0-1.81.217-2.4.65-.58.433-.87 1.025-.87 1.775 0 .3.06.575.2.825.13.233.29.425.47.575.19.15.46.3.83.45.36.133.69.242.97.325l1.2.275zm708.25-143.45c0 1.883-.56 3.392-1.68 4.525-1.11 1.133-2.63 1.7-4.55 1.7-2.28 0-4.26-.775-5.95-2.325-.13-.167-.13-.342 0-.525l1.38-1.5c.15-.167.32-.158.52.025 1.3 1.017 2.66 1.525 4.08 1.525 1.05 0 1.85-.3 2.4-.9.56-.617.85-1.458.85-2.525 0-2.1-1.08-3.15-3.23-3.15-1.31 0-2.38.358-3.2 1.075-.16.15-.33.192-.5.125l-1.7-.575c-.21-.05-.32-.192-.32-.425l.32-8.625c0-.25.13-.375.38-.375h9.85c.25 0 .37.125.37.375v2c0 .25-.12.375-.37.375h-7.4l-.13 4.15c.85-.517 1.87-.775 3.05-.775 1.8 0 3.22.517 4.25 1.55 1.05 1.017 1.58 2.442 1.58 4.275zm14.87.1c0 2.033-.61 3.567-1.82 4.6-1.2 1.017-2.64 1.525-4.33 1.525-1.06 0-2.05-.192-2.95-.575-.9-.4-1.66-1.075-2.3-2.025-.61-.967-.92-2.142-.92-3.525V15.85c0-2 .61-3.5 1.82-4.5 1.22-1.017 2.67-1.525 4.35-1.525 1.69 0 3.13.508 4.33 1.525 1.21 1 1.82 2.5 1.82 4.5v6.325zm-9.4.1c0 1.15.32 1.975.95 2.475.64.483 1.4.725 2.3.725.9 0 1.66-.242 2.28-.725.63-.5.95-1.325.95-2.475V15.9c0-1.167-.32-2-.95-2.5-.62-.5-1.38-.75-2.28-.75-.9 0-1.66.25-2.3.75-.63.5-.95 1.333-.95 2.5v6.375zm24.78-.1c0 2.033-.6 3.567-1.82 4.6-1.2 1.017-2.64 1.525-4.33 1.525-1.06 0-2.05-.192-2.95-.575-.9-.4-1.66-1.075-2.3-2.025-.61-.967-.92-2.142-.92-3.525V15.85c0-2 .61-3.5 1.82-4.5 1.22-1.017 2.67-1.525 4.35-1.525 1.69 0 3.13.508 4.33 1.525 1.22 1 1.82 2.5 1.82 4.5v6.325zm-9.4.1c0 1.15.32 1.975.95 2.475.64.483 1.4.725 2.3.725.9 0 1.66-.242 2.28-.725.63-.5.95-1.325.95-2.475V15.9c0-1.167-.32-2-.95-2.5-.62-.5-1.38-.75-2.28-.75-.9 0-1.66.25-2.3.75-.63.5-.95 1.333-.95 2.5v6.375zm18.66-4.75c.73.167 1.31.317 1.72.45.44.117.98.325 1.63.625.65.283 1.15.6 1.5.95.35.35.66.825.92 1.425.29.6.43 1.283.43 2.05 0 1.517-.5 2.717-1.5 3.6-1 .867-2.28 1.4-3.83 1.6v1.925c0 .25-.11.375-.35.375h-1.7c-.25 0-.37-.125-.37-.375v-1.9c-1.75-.183-3.46-.975-5.13-2.375-.2-.167-.21-.342-.05-.525l1.23-1.7c.15-.2.32-.225.5-.075 1.62 1.2 3.17 1.825 4.67 1.875.95 0 1.77-.208 2.45-.625.7-.433 1.05-1.05 1.05-1.85 0-.35-.07-.658-.22-.925a2.315 2.315 0 00-.53-.65c-.2-.167-.5-.325-.92-.475-.4-.15-.75-.258-1.05-.325-.28-.083-.7-.183-1.25-.3a15.24 15.24 0 01-2.03-.575c-.58-.217-1.19-.517-1.82-.9a4.28 4.28 0 01-1.48-1.55c-.35-.65-.52-1.408-.52-2.275 0-1.483.47-2.65 1.4-3.5.93-.867 2.17-1.4 3.7-1.6V8.125c0-.25.12-.375.37-.375h1.7c.24 0 .35.125.35.375v1.75c1.57.167 3.15.825 4.73 1.975.2.117.23.283.1.5l-1.18 1.7c-.13.183-.3.208-.52.075-1.37-.933-2.83-1.425-4.4-1.475-1.02 0-1.82.217-2.4.65-.58.433-.88 1.025-.88 1.775 0 .3.07.575.2.825.14.233.3.425.48.575.18.15.46.3.82.45.37.133.7.242.98.325.28.067.68.158 1.2.275z" fill="#88DDEA"/></g><defs><linearGradient id="paint0_linear" x1="946.5" y1="28.5" x2="946.5" y2="712" gradientUnits="userSpaceOnUse"><stop stop-color="#3ADADE" stop-opacity=".46"/><stop offset="1" stop-color="#fff" stop-opacity="0"/></linearGradient></defs></svg>