<svg width="1920" height="780" viewBox="0 0 1920 780" fill="none" xmlns="http://www.w3.org/2000/svg">
<g opacity="0.7">
<path opacity="0.5" d="M165.5 464C103 464 -38 667.5 -38 667.5V779.5L1931 543V503.5V464V28.5C1931 28.5 1771 49.5 1733 59.5C1695 69.5 1562 180 1510 180C1458 180 1398.5 115.5 1349.5 115.5C1300.5 115.5 1227.5 162 1189.5 180C1151.5 198 1123 273.5 1073.5 273.5C1024 273.5 1021.5 206.5 971 206.5C920.5 206.5 785.5 434 735 434C684.5 434 701.5 318 666 318C630.5 318 529 341 488.5 357C448 373 317 574 273.5 572C230 570 228 464 165.5 464Z" fill="url(#paint0_linear)"/>
<path d="M-38 667.5C-38 667.5 103 464 165.5 464C228 464 230 570 273.5 572C317 574 448 373 488.5 357C529 341 630.5 318 666 318C701.5 318 684.5 434 735 434C785.5 434 920.5 206.5 971 206.5C1021.5 206.5 1024 273.5 1073.5 273.5C1123 273.5 1151.5 198 1189.5 180C1227.5 162 1300.5 115.5 1349.5 115.5C1398.5 115.5 1458 180 1510 180C1562 180 1695 69.5 1733 59.5C1771 49.5 1931 28.5 1931 28.5" stroke="#BFEFF4" stroke-width="4"/>
<circle cx="166" cy="465" r="7" fill="#BFEFF4"/>
<circle cx="271" cy="571" r="7" fill="#BFEFF4"/>
<circle cx="484" cy="358" r="7" fill="#BFEFF4"/>
<circle cx="669" cy="315" r="7" fill="#BFEFF4"/>
<circle cx="734" cy="435" r="7" fill="#BFEFF4"/>
<circle cx="977" cy="206" r="7" fill="#BFEFF4"/>
<circle cx="1072" cy="273" r="7" fill="#BFEFF4"/>
<circle cx="1335" cy="119" r="7" fill="#BFEFF4"/>
<circle cx="1728" cy="60" r="7" fill="#BFEFF4"/>
<path d="M156.637 442.075C156.637 443.958 156.079 445.467 154.962 446.6C153.846 447.733 152.329 448.3 150.412 448.3C148.129 448.3 146.146 447.525 144.462 445.975C144.329 445.808 144.329 445.633 144.462 445.45L145.837 443.95C145.987 443.783 146.162 443.792 146.362 443.975C147.662 444.992 149.021 445.5 150.437 445.5C151.487 445.5 152.287 445.2 152.837 444.6C153.404 443.983 153.687 443.142 153.687 442.075C153.687 439.975 152.612 438.925 150.462 438.925C149.146 438.925 148.079 439.283 147.262 440C147.096 440.15 146.929 440.192 146.762 440.125L145.062 439.55C144.846 439.5 144.737 439.358 144.737 439.125L145.062 430.5C145.062 430.25 145.187 430.125 145.437 430.125H155.287C155.537 430.125 155.662 430.25 155.662 430.5V432.5C155.662 432.75 155.537 432.875 155.287 432.875H147.887L147.762 437.025C148.612 436.508 149.629 436.25 150.812 436.25C152.612 436.25 154.029 436.767 155.062 437.8C156.112 438.817 156.637 440.242 156.637 442.075ZM171.513 442.175C171.513 444.208 170.905 445.742 169.688 446.775C168.488 447.792 167.046 448.3 165.363 448.3C164.296 448.3 163.313 448.108 162.413 447.725C161.513 447.325 160.746 446.65 160.113 445.7C159.496 444.733 159.188 443.558 159.188 442.175V435.85C159.188 433.85 159.796 432.35 161.013 431.35C162.23 430.333 163.68 429.825 165.363 429.825C167.046 429.825 168.488 430.333 169.688 431.35C170.905 432.35 171.513 433.85 171.513 435.85V442.175ZM162.113 442.275C162.113 443.425 162.43 444.25 163.063 444.75C163.696 445.233 164.463 445.475 165.363 445.475C166.263 445.475 167.021 445.233 167.638 444.75C168.271 444.25 168.588 443.425 168.588 442.275V435.9C168.588 434.733 168.271 433.9 167.638 433.4C167.021 432.9 166.263 432.65 165.363 432.65C164.463 432.65 163.696 432.9 163.063 433.4C162.43 433.9 162.113 434.733 162.113 435.9V442.275ZM180.769 437.525C181.502 437.692 182.077 437.842 182.494 437.975C182.927 438.092 183.469 438.3 184.119 438.6C184.769 438.883 185.269 439.2 185.619 439.55C185.969 439.9 186.277 440.375 186.544 440.975C186.827 441.575 186.969 442.258 186.969 443.025C186.969 444.542 186.469 445.742 185.469 446.625C184.469 447.492 183.194 448.025 181.644 448.225V450.15C181.644 450.4 181.527 450.525 181.294 450.525H179.594C179.344 450.525 179.219 450.4 179.219 450.15V448.25C177.469 448.067 175.761 447.275 174.094 445.875C173.894 445.708 173.877 445.533 174.044 445.35L175.269 443.65C175.419 443.45 175.586 443.425 175.769 443.575C177.386 444.775 178.944 445.4 180.444 445.45C181.394 445.45 182.211 445.242 182.894 444.825C183.594 444.392 183.944 443.775 183.944 442.975C183.944 442.625 183.869 442.317 183.719 442.05C183.569 441.783 183.394 441.567 183.194 441.4C182.994 441.233 182.686 441.075 182.269 440.925C181.869 440.775 181.519 440.667 181.219 440.6C180.936 440.517 180.519 440.417 179.969 440.3C179.202 440.133 178.527 439.942 177.944 439.725C177.361 439.508 176.752 439.208 176.119 438.825C175.486 438.425 174.994 437.908 174.644 437.275C174.294 436.625 174.119 435.867 174.119 435C174.119 433.517 174.586 432.35 175.519 431.5C176.452 430.633 177.686 430.1 179.219 429.9V428.125C179.219 427.875 179.344 427.75 179.594 427.75H181.294C181.527 427.75 181.644 427.875 181.644 428.125V429.875C183.211 430.042 184.786 430.7 186.369 431.85C186.569 431.967 186.602 432.133 186.469 432.35L185.294 434.05C185.161 434.233 184.986 434.258 184.769 434.125C183.402 433.192 181.936 432.7 180.369 432.65C179.352 432.65 178.552 432.867 177.969 433.3C177.386 433.733 177.094 434.325 177.094 435.075C177.094 435.375 177.161 435.65 177.294 435.9C177.427 436.133 177.586 436.325 177.769 436.475C177.952 436.625 178.227 436.775 178.594 436.925C178.961 437.058 179.286 437.167 179.569 437.25C179.852 437.317 180.252 437.408 180.769 437.525Z" fill="#88DDEA"/>
<path d="M963.678 176H952.453C952.22 176 952.103 175.875 952.103 175.625V174.125C952.103 173.942 952.162 173.792 952.278 173.675L957.353 168.4C958.52 167.183 959.387 166.175 959.953 165.375C960.52 164.558 960.803 163.75 960.803 162.95C960.803 162.283 960.587 161.725 960.153 161.275C959.72 160.808 959.062 160.575 958.178 160.575C956.812 160.575 955.478 161.242 954.178 162.575C954.012 162.775 953.845 162.767 953.678 162.55L952.503 160.95C952.37 160.783 952.378 160.617 952.528 160.45C954.145 158.7 956.028 157.825 958.178 157.825C959.828 157.825 961.17 158.267 962.203 159.15C963.253 160.033 963.778 161.283 963.778 162.9C963.778 163.983 963.495 165.008 962.928 165.975C962.378 166.942 961.503 168.108 960.303 169.475C959.287 170.642 958.045 171.917 956.578 173.3H963.678C963.928 173.3 964.053 173.425 964.053 173.675V175.625C964.053 175.875 963.928 176 963.678 176ZM979.066 170.175C979.066 172.208 978.458 173.742 977.241 174.775C976.041 175.792 974.6 176.3 972.916 176.3C971.85 176.3 970.866 176.108 969.966 175.725C969.066 175.325 968.3 174.65 967.666 173.7C967.05 172.733 966.741 171.558 966.741 170.175V163.85C966.741 161.85 967.35 160.35 968.566 159.35C969.783 158.333 971.233 157.825 972.916 157.825C974.6 157.825 976.041 158.333 977.241 159.35C978.458 160.35 979.066 161.85 979.066 163.85V170.175ZM969.666 170.275C969.666 171.425 969.983 172.25 970.616 172.75C971.25 173.233 972.016 173.475 972.916 173.475C973.816 173.475 974.575 173.233 975.191 172.75C975.825 172.25 976.141 171.425 976.141 170.275V163.9C976.141 162.733 975.825 161.9 975.191 161.4C974.575 160.9 973.816 160.65 972.916 160.65C972.016 160.65 971.25 160.9 970.616 161.4C969.983 161.9 969.666 162.733 969.666 163.9V170.275ZM994.447 170.175C994.447 172.208 993.839 173.742 992.622 174.775C991.422 175.792 989.981 176.3 988.297 176.3C987.231 176.3 986.247 176.108 985.347 175.725C984.447 175.325 983.681 174.65 983.047 173.7C982.431 172.733 982.122 171.558 982.122 170.175V163.85C982.122 161.85 982.731 160.35 983.947 159.35C985.164 158.333 986.614 157.825 988.297 157.825C989.981 157.825 991.422 158.333 992.622 159.35C993.839 160.35 994.447 161.85 994.447 163.85V170.175ZM985.047 170.275C985.047 171.425 985.364 172.25 985.997 172.75C986.631 173.233 987.397 173.475 988.297 173.475C989.197 173.475 989.956 173.233 990.572 172.75C991.206 172.25 991.522 171.425 991.522 170.275V163.9C991.522 162.733 991.206 161.9 990.572 161.4C989.956 160.9 989.197 160.65 988.297 160.65C987.397 160.65 986.631 160.9 985.997 161.4C985.364 161.9 985.047 162.733 985.047 163.9V170.275ZM1003.7 165.525C1004.44 165.692 1005.01 165.842 1005.43 165.975C1005.86 166.092 1006.4 166.3 1007.05 166.6C1007.7 166.883 1008.2 167.2 1008.55 167.55C1008.9 167.9 1009.21 168.375 1009.48 168.975C1009.76 169.575 1009.9 170.258 1009.9 171.025C1009.9 172.542 1009.4 173.742 1008.4 174.625C1007.4 175.492 1006.13 176.025 1004.58 176.225V178.15C1004.58 178.4 1004.46 178.525 1004.23 178.525H1002.53C1002.28 178.525 1002.15 178.4 1002.15 178.15V176.25C1000.4 176.067 998.695 175.275 997.028 173.875C996.828 173.708 996.811 173.533 996.978 173.35L998.203 171.65C998.353 171.45 998.52 171.425 998.703 171.575C1000.32 172.775 1001.88 173.4 1003.38 173.45C1004.33 173.45 1005.14 173.242 1005.83 172.825C1006.53 172.392 1006.88 171.775 1006.88 170.975C1006.88 170.625 1006.8 170.317 1006.65 170.05C1006.5 169.783 1006.33 169.567 1006.13 169.4C1005.93 169.233 1005.62 169.075 1005.2 168.925C1004.8 168.775 1004.45 168.667 1004.15 168.6C1003.87 168.517 1003.45 168.417 1002.9 168.3C1002.14 168.133 1001.46 167.942 1000.88 167.725C1000.29 167.508 999.686 167.208 999.053 166.825C998.42 166.425 997.928 165.908 997.578 165.275C997.228 164.625 997.053 163.867 997.053 163C997.053 161.517 997.52 160.35 998.453 159.5C999.386 158.633 1000.62 158.1 1002.15 157.9V156.125C1002.15 155.875 1002.28 155.75 1002.53 155.75H1004.23C1004.46 155.75 1004.58 155.875 1004.58 156.125V157.875C1006.14 158.042 1007.72 158.7 1009.3 159.85C1009.5 159.967 1009.54 160.133 1009.4 160.35L1008.23 162.05C1008.09 162.233 1007.92 162.258 1007.7 162.125C1006.34 161.192 1004.87 160.7 1003.3 160.65C1002.29 160.65 1001.49 160.867 1000.9 161.3C1000.32 161.733 1000.03 162.325 1000.03 163.075C1000.03 163.375 1000.09 163.65 1000.23 163.9C1000.36 164.133 1000.52 164.325 1000.7 164.475C1000.89 164.625 1001.16 164.775 1001.53 164.925C1001.89 165.058 1002.22 165.167 1002.5 165.25C1002.79 165.317 1003.19 165.408 1003.7 165.525Z" fill="#88DDEA"/>
<path d="M1711.95 22.075C1711.95 23.9583 1711.39 25.4667 1710.27 26.6C1709.16 27.7333 1707.64 28.3 1705.72 28.3C1703.44 28.3 1701.46 27.525 1699.77 25.975C1699.64 25.8083 1699.64 25.6333 1699.77 25.45L1701.15 23.95C1701.3 23.7833 1701.47 23.7917 1701.67 23.975C1702.97 24.9917 1704.33 25.5 1705.75 25.5C1706.8 25.5 1707.6 25.2 1708.15 24.6C1708.71 23.9833 1709 23.1417 1709 22.075C1709 19.975 1707.92 18.925 1705.77 18.925C1704.46 18.925 1703.39 19.2833 1702.57 20C1702.41 20.15 1702.24 20.1917 1702.07 20.125L1700.37 19.55C1700.16 19.5 1700.05 19.3583 1700.05 19.125L1700.37 10.5C1700.37 10.25 1700.5 10.125 1700.75 10.125H1710.6C1710.85 10.125 1710.97 10.25 1710.97 10.5V12.5C1710.97 12.75 1710.85 12.875 1710.6 12.875H1703.2L1703.07 17.025C1703.92 16.5083 1704.94 16.25 1706.12 16.25C1707.92 16.25 1709.34 16.7667 1710.37 17.8C1711.42 18.8167 1711.95 20.2417 1711.95 22.075ZM1726.82 22.175C1726.82 24.2083 1726.21 25.7417 1725 26.775C1723.8 27.7917 1722.36 28.3 1720.67 28.3C1719.61 28.3 1718.62 28.1083 1717.72 27.725C1716.82 27.325 1716.06 26.65 1715.42 25.7C1714.81 24.7333 1714.5 23.5583 1714.5 22.175V15.85C1714.5 13.85 1715.11 12.35 1716.32 11.35C1717.54 10.3333 1718.99 9.825 1720.67 9.825C1722.36 9.825 1723.8 10.3333 1725 11.35C1726.21 12.35 1726.82 13.85 1726.82 15.85V22.175ZM1717.42 22.275C1717.42 23.425 1717.74 24.25 1718.37 24.75C1719.01 25.2333 1719.77 25.475 1720.67 25.475C1721.57 25.475 1722.33 25.2333 1722.95 24.75C1723.58 24.25 1723.9 23.425 1723.9 22.275V15.9C1723.9 14.7333 1723.58 13.9 1722.95 13.4C1722.33 12.9 1721.57 12.65 1720.67 12.65C1719.77 12.65 1719.01 12.9 1718.37 13.4C1717.74 13.9 1717.42 14.7333 1717.42 15.9V22.275ZM1742.2 22.175C1742.2 24.2083 1741.6 25.7417 1740.38 26.775C1739.18 27.7917 1737.74 28.3 1736.05 28.3C1734.99 28.3 1734 28.1083 1733.1 27.725C1732.2 27.325 1731.44 26.65 1730.8 25.7C1730.19 24.7333 1729.88 23.5583 1729.88 22.175V15.85C1729.88 13.85 1730.49 12.35 1731.7 11.35C1732.92 10.3333 1734.37 9.825 1736.05 9.825C1737.74 9.825 1739.18 10.3333 1740.38 11.35C1741.6 12.35 1742.2 13.85 1742.2 15.85V22.175ZM1732.8 22.275C1732.8 23.425 1733.12 24.25 1733.75 24.75C1734.39 25.2333 1735.15 25.475 1736.05 25.475C1736.95 25.475 1737.71 25.2333 1738.33 24.75C1738.96 24.25 1739.28 23.425 1739.28 22.275V15.9C1739.28 14.7333 1738.96 13.9 1738.33 13.4C1737.71 12.9 1736.95 12.65 1736.05 12.65C1735.15 12.65 1734.39 12.9 1733.75 13.4C1733.12 13.9 1732.8 14.7333 1732.8 15.9V22.275ZM1751.46 17.525C1752.19 17.6917 1752.77 17.8417 1753.18 17.975C1753.62 18.0917 1754.16 18.3 1754.81 18.6C1755.46 18.8833 1755.96 19.2 1756.31 19.55C1756.66 19.9 1756.97 20.375 1757.23 20.975C1757.52 21.575 1757.66 22.2583 1757.66 23.025C1757.66 24.5417 1757.16 25.7417 1756.16 26.625C1755.16 27.4917 1753.88 28.025 1752.33 28.225V30.15C1752.33 30.4 1752.22 30.525 1751.98 30.525H1750.28C1750.03 30.525 1749.91 30.4 1749.91 30.15V28.25C1748.16 28.0667 1746.45 27.275 1744.78 25.875C1744.58 25.7083 1744.57 25.5333 1744.73 25.35L1745.96 23.65C1746.11 23.45 1746.28 23.425 1746.46 23.575C1748.08 24.775 1749.63 25.4 1751.13 25.45C1752.08 25.45 1752.9 25.2417 1753.58 24.825C1754.28 24.3917 1754.63 23.775 1754.63 22.975C1754.63 22.625 1754.56 22.3167 1754.41 22.05C1754.26 21.7833 1754.08 21.5667 1753.88 21.4C1753.68 21.2333 1753.38 21.075 1752.96 20.925C1752.56 20.775 1752.21 20.6667 1751.91 20.6C1751.63 20.5167 1751.21 20.4167 1750.66 20.3C1749.89 20.1333 1749.22 19.9417 1748.63 19.725C1748.05 19.5083 1747.44 19.2083 1746.81 18.825C1746.18 18.425 1745.68 17.9083 1745.33 17.275C1744.98 16.625 1744.81 15.8667 1744.81 15C1744.81 13.5167 1745.28 12.35 1746.21 11.5C1747.14 10.6333 1748.38 10.1 1749.91 9.9V8.125C1749.91 7.875 1750.03 7.75 1750.28 7.75H1751.98C1752.22 7.75 1752.33 7.875 1752.33 8.125V9.875C1753.9 10.0417 1755.48 10.7 1757.06 11.85C1757.26 11.9667 1757.29 12.1333 1757.16 12.35L1755.98 14.05C1755.85 14.2333 1755.68 14.2583 1755.46 14.125C1754.09 13.1917 1752.63 12.7 1751.06 12.65C1750.04 12.65 1749.24 12.8667 1748.66 13.3C1748.08 13.7333 1747.78 14.325 1747.78 15.075C1747.78 15.375 1747.85 15.65 1747.98 15.9C1748.12 16.1333 1748.28 16.325 1748.46 16.475C1748.64 16.625 1748.92 16.775 1749.28 16.925C1749.65 17.0583 1749.98 17.1667 1750.26 17.25C1750.54 17.3167 1750.94 17.4083 1751.46 17.525Z" fill="#88DDEA"/>
</g>
<defs>
<linearGradient id="paint0_linear" x1="946.5" y1="28.5" x2="946.5" y2="712" gradientUnits="userSpaceOnUse">
<stop stop-color="#3ADADE" stop-opacity="0.46"/>
<stop offset="1" stop-color="white" stop-opacity="0"/>
</linearGradient>
</defs>
</svg>
