<svg width="320" height="209" viewBox="0 0 320 209" fill="none" xmlns="http://www.w3.org/2000/svg">
<g opacity="0.7">
<path opacity="0.5" d="M-50.2123 111.56C-63.3535 111.56 -93 154.348 -93 154.348V177.897L321 128.171V119.866V111.56V19.9927C321 19.9927 287.359 24.4081 279.369 26.5107C271.379 28.6133 243.414 51.8469 232.481 51.8469C221.547 51.8469 209.037 38.2852 198.734 38.2852C188.432 38.2852 173.083 48.0623 165.093 51.8469C157.103 55.6316 151.111 71.5061 140.703 71.5061C130.295 71.5061 129.769 57.4188 119.151 57.4188C108.533 57.4188 80.1483 105.253 69.5302 105.253C58.9121 105.253 62.4865 80.8627 55.0224 80.8627C47.5582 80.8627 26.2169 85.6986 17.7014 89.0628C9.18588 92.4269 -18.358 134.689 -27.5043 134.268C-36.6506 133.848 -37.0711 111.56 -50.2123 111.56Z" fill="url(#paint0_linear)"/>
<path d="M-93 154.348C-93 154.348 -63.3535 111.56 -50.2123 111.56C-37.0711 111.56 -36.6506 133.848 -27.5043 134.268C-18.358 134.689 9.18588 92.4269 17.7014 89.0628C26.2169 85.6986 47.5582 80.8627 55.0224 80.8627C62.4865 80.8627 58.9121 105.253 69.5302 105.253C80.1483 105.253 108.533 57.4188 119.151 57.4188C129.769 57.4188 130.295 71.5061 140.703 71.5061C151.111 71.5061 157.103 55.6316 165.093 51.8469C173.083 48.0623 188.432 38.2852 198.734 38.2852C209.037 38.2852 221.547 51.8469 232.481 51.8469C243.414 51.8469 271.379 28.6133 279.369 26.5107C287.359 24.4081 321 19.9927 321 19.9927" stroke="#BFEFF4" stroke-width="2"/>
<circle cx="17" cy="90" r="5" fill="#BFEFF4"/>
<circle cx="56" cy="80" r="5" fill="#BFEFF4"/>
<circle cx="67" cy="103" r="5" fill="#BFEFF4"/>
<circle cx="118" cy="58.293" r="5" fill="#BFEFF4"/>
<circle cx="199" cy="37" r="5" fill="#BFEFF4"/>
<circle cx="278" cy="27" r="5" fill="#BFEFF4"/>
<path d="M45.2998 65H39.0138C38.8831 65 38.8178 64.93 38.8178 64.79V63.95C38.8178 63.8473 38.8505 63.7633 38.9158 63.698L41.7578 60.744C42.4111 60.0627 42.8965 59.498 43.2138 59.05C43.5311 58.5927 43.6898 58.14 43.6898 57.692C43.6898 57.3187 43.5685 57.006 43.3258 56.754C43.0831 56.4927 42.7145 56.362 42.2198 56.362C41.4545 56.362 40.7078 56.7353 39.9798 57.482C39.8865 57.594 39.7931 57.5893 39.6998 57.468L39.0418 56.572C38.9671 56.4787 38.9718 56.3853 39.0558 56.292C39.9611 55.312 41.0158 54.822 42.2198 54.822C43.1438 54.822 43.8951 55.0693 44.4738 55.564C45.0618 56.0587 45.3558 56.7587 45.3558 57.664C45.3558 58.2707 45.1971 58.8447 44.8798 59.386C44.5718 59.9273 44.0818 60.5807 43.4098 61.346C42.8405 61.9993 42.1451 62.7133 41.3238 63.488H45.2998C45.4398 63.488 45.5098 63.558 45.5098 63.698V64.79C45.5098 64.93 45.4398 65 45.2998 65ZM53.9171 61.738C53.9171 62.8767 53.5765 63.7353 52.8951 64.314C52.2231 64.8833 51.4158 65.168 50.4731 65.168C49.8758 65.168 49.3251 65.0607 48.8211 64.846C48.3171 64.622 47.8878 64.244 47.5331 63.712C47.1878 63.1707 47.0151 62.5127 47.0151 61.738V58.196C47.0151 57.076 47.3558 56.236 48.0371 55.676C48.7185 55.1067 49.5305 54.822 50.4731 54.822C51.4158 54.822 52.2231 55.1067 52.8951 55.676C53.5765 56.236 53.9171 57.076 53.9171 58.196V61.738ZM48.6531 61.794C48.6531 62.438 48.8305 62.9 49.1851 63.18C49.5398 63.4507 49.9691 63.586 50.4731 63.586C50.9771 63.586 51.4018 63.4507 51.7471 63.18C52.1018 62.9 52.2791 62.438 52.2791 61.794V58.224C52.2791 57.5707 52.1018 57.104 51.7471 56.824C51.4018 56.544 50.9771 56.404 50.4731 56.404C49.9691 56.404 49.5398 56.544 49.1851 56.824C48.8305 57.104 48.6531 57.5707 48.6531 58.224V61.794ZM62.5304 61.738C62.5304 62.8767 62.1897 63.7353 61.5084 64.314C60.8364 64.8833 60.0291 65.168 59.0864 65.168C58.4891 65.168 57.9384 65.0607 57.4344 64.846C56.9304 64.622 56.5011 64.244 56.1464 63.712C55.8011 63.1707 55.6284 62.5127 55.6284 61.738V58.196C55.6284 57.076 55.9691 56.236 56.6504 55.676C57.3317 55.1067 58.1437 54.822 59.0864 54.822C60.0291 54.822 60.8364 55.1067 61.5084 55.676C62.1897 56.236 62.5304 57.076 62.5304 58.196V61.738ZM57.2664 61.794C57.2664 62.438 57.4437 62.9 57.7984 63.18C58.1531 63.4507 58.5824 63.586 59.0864 63.586C59.5904 63.586 60.0151 63.4507 60.3604 63.18C60.7151 62.9 60.8924 62.438 60.8924 61.794V58.224C60.8924 57.5707 60.7151 57.104 60.3604 56.824C60.0151 56.544 59.5904 56.404 59.0864 56.404C58.5824 56.404 58.1531 56.544 57.7984 56.824C57.4437 57.104 57.2664 57.5707 57.2664 58.224V61.794ZM67.7137 59.134C68.1244 59.2273 68.4464 59.3113 68.6797 59.386C68.9224 59.4513 69.2257 59.568 69.5897 59.736C69.9537 59.8947 70.2337 60.072 70.4297 60.268C70.6257 60.464 70.7984 60.73 70.9477 61.066C71.1064 61.402 71.1857 61.7847 71.1857 62.214C71.1857 63.0633 70.9057 63.7353 70.3457 64.23C69.7857 64.7153 69.0717 65.014 68.2037 65.126V66.204C68.2037 66.344 68.1384 66.414 68.0077 66.414H67.0557C66.9157 66.414 66.8457 66.344 66.8457 66.204V65.14C65.8657 65.0373 64.909 64.594 63.9757 63.81C63.8637 63.7167 63.8544 63.6187 63.9477 63.516L64.6337 62.564C64.7177 62.452 64.811 62.438 64.9137 62.522C65.819 63.194 66.6917 63.544 67.5317 63.572C68.0637 63.572 68.521 63.4553 68.9037 63.222C69.2957 62.9793 69.4917 62.634 69.4917 62.186C69.4917 61.99 69.4497 61.8173 69.3657 61.668C69.2817 61.5187 69.1837 61.3973 69.0717 61.304C68.9597 61.2107 68.787 61.122 68.5537 61.038C68.3297 60.954 68.1337 60.8933 67.9657 60.856C67.807 60.8093 67.5737 60.7533 67.2657 60.688C66.8364 60.5947 66.4584 60.4873 66.1317 60.366C65.805 60.2447 65.4644 60.0767 65.1097 59.862C64.755 59.638 64.4797 59.3487 64.2837 58.994C64.0877 58.63 63.9897 58.2053 63.9897 57.72C63.9897 56.8893 64.251 56.236 64.7737 55.76C65.2964 55.2747 65.987 54.976 66.8457 54.864V53.87C66.8457 53.73 66.9157 53.66 67.0557 53.66H68.0077C68.1384 53.66 68.2037 53.73 68.2037 53.87V54.85C69.081 54.9433 69.963 55.312 70.8497 55.956C70.9617 56.0213 70.9804 56.1147 70.9057 56.236L70.2477 57.188C70.173 57.2907 70.075 57.3047 69.9537 57.23C69.1884 56.7073 68.367 56.432 67.4897 56.404C66.9204 56.404 66.4724 56.5253 66.1457 56.768C65.819 57.0107 65.6557 57.342 65.6557 57.762C65.6557 57.93 65.693 58.084 65.7677 58.224C65.8424 58.3547 65.931 58.462 66.0337 58.546C66.1364 58.63 66.2904 58.714 66.4957 58.798C66.701 58.8727 66.883 58.9333 67.0417 58.98C67.2004 59.0173 67.4244 59.0687 67.7137 59.134Z" fill="#88DDEA"/>
<path d="M108.595 43.808C108.595 44.8347 108.268 45.6513 107.615 46.258C106.962 46.8647 106.126 47.168 105.109 47.168C103.84 47.168 102.701 46.7293 101.693 45.852C101.609 45.7587 101.609 45.6607 101.693 45.558L102.379 44.76C102.472 44.6667 102.57 44.6667 102.673 44.76C103.084 45.0587 103.462 45.278 103.807 45.418C104.162 45.558 104.596 45.628 105.109 45.628C105.66 45.628 106.098 45.4693 106.425 45.152C106.761 44.8253 106.929 44.3633 106.929 43.766C106.929 42.6367 106.271 42.072 104.955 42.072C104.666 42.072 104.372 42.1047 104.073 42.17C103.97 42.198 103.886 42.156 103.821 42.044L103.555 41.47C103.508 41.3673 103.527 41.2693 103.611 41.176L104.983 39.678C105.58 39.0433 105.977 38.6513 106.173 38.502H102.379C102.248 38.502 102.183 38.432 102.183 38.292V37.2C102.183 37.06 102.248 36.99 102.379 36.99H108.091C108.222 36.99 108.287 37.06 108.287 37.2V38.012C108.287 38.096 108.254 38.18 108.189 38.264L105.655 40.952L105.669 40.98C106.453 40.9613 107.134 41.2087 107.713 41.722C108.301 42.226 108.595 42.9213 108.595 43.808ZM116.972 43.738C116.972 44.8767 116.631 45.7353 115.95 46.314C115.278 46.8833 114.47 47.168 113.528 47.168C112.93 47.168 112.38 47.0607 111.876 46.846C111.372 46.622 110.942 46.244 110.588 45.712C110.242 45.1707 110.07 44.5127 110.07 43.738V40.196C110.07 39.076 110.41 38.236 111.092 37.676C111.773 37.1067 112.585 36.822 113.528 36.822C114.47 36.822 115.278 37.1067 115.95 37.676C116.631 38.236 116.972 39.076 116.972 40.196V43.738ZM111.708 43.794C111.708 44.438 111.885 44.9 112.24 45.18C112.594 45.4507 113.024 45.586 113.528 45.586C114.032 45.586 114.456 45.4507 114.802 45.18C115.156 44.9 115.334 44.438 115.334 43.794V40.224C115.334 39.5707 115.156 39.104 114.802 38.824C114.456 38.544 114.032 38.404 113.528 38.404C113.024 38.404 112.594 38.544 112.24 38.824C111.885 39.104 111.708 39.5707 111.708 40.224V43.794ZM125.585 43.738C125.585 44.8767 125.244 45.7353 124.563 46.314C123.891 46.8833 123.084 47.168 122.141 47.168C121.544 47.168 120.993 47.0607 120.489 46.846C119.985 46.622 119.556 46.244 119.201 45.712C118.856 45.1707 118.683 44.5127 118.683 43.738V40.196C118.683 39.076 119.024 38.236 119.705 37.676C120.386 37.1067 121.198 36.822 122.141 36.822C123.084 36.822 123.891 37.1067 124.563 37.676C125.244 38.236 125.585 39.076 125.585 40.196V43.738ZM120.321 43.794C120.321 44.438 120.498 44.9 120.853 45.18C121.208 45.4507 121.637 45.586 122.141 45.586C122.645 45.586 123.07 45.4507 123.415 45.18C123.77 44.9 123.947 44.438 123.947 43.794V40.224C123.947 39.5707 123.77 39.104 123.415 38.824C123.07 38.544 122.645 38.404 122.141 38.404C121.637 38.404 121.208 38.544 120.853 38.824C120.498 39.104 120.321 39.5707 120.321 40.224V43.794ZM130.768 41.134C131.179 41.2273 131.501 41.3113 131.734 41.386C131.977 41.4513 132.28 41.568 132.644 41.736C133.008 41.8947 133.288 42.072 133.484 42.268C133.68 42.464 133.853 42.73 134.002 43.066C134.161 43.402 134.24 43.7847 134.24 44.214C134.24 45.0633 133.96 45.7353 133.4 46.23C132.84 46.7153 132.126 47.014 131.258 47.126V48.204C131.258 48.344 131.193 48.414 131.062 48.414H130.11C129.97 48.414 129.9 48.344 129.9 48.204V47.14C128.92 47.0373 127.964 46.594 127.03 45.81C126.918 45.7167 126.909 45.6187 127.002 45.516L127.688 44.564C127.772 44.452 127.866 44.438 127.968 44.522C128.874 45.194 129.746 45.544 130.586 45.572C131.118 45.572 131.576 45.4553 131.958 45.222C132.35 44.9793 132.546 44.634 132.546 44.186C132.546 43.99 132.504 43.8173 132.42 43.668C132.336 43.5187 132.238 43.3973 132.126 43.304C132.014 43.2107 131.842 43.122 131.608 43.038C131.384 42.954 131.188 42.8933 131.02 42.856C130.862 42.8093 130.628 42.7533 130.32 42.688C129.891 42.5947 129.513 42.4873 129.186 42.366C128.86 42.2447 128.519 42.0767 128.164 41.862C127.81 41.638 127.534 41.3487 127.338 40.994C127.142 40.63 127.044 40.2053 127.044 39.72C127.044 38.8893 127.306 38.236 127.828 37.76C128.351 37.2747 129.042 36.976 129.9 36.864V35.87C129.9 35.73 129.97 35.66 130.11 35.66H131.062C131.193 35.66 131.258 35.73 131.258 35.87V36.85C132.136 36.9433 133.018 37.312 133.904 37.956C134.016 38.0213 134.035 38.1147 133.96 38.236L133.302 39.188C133.228 39.2907 133.13 39.3047 133.008 39.23C132.243 38.7073 131.422 38.432 130.544 38.404C129.975 38.404 129.527 38.5253 129.2 38.768C128.874 39.0107 128.71 39.342 128.71 39.762C128.71 39.93 128.748 40.084 128.822 40.224C128.897 40.3547 128.986 40.462 129.088 40.546C129.191 40.63 129.345 40.714 129.55 40.798C129.756 40.8727 129.938 40.9333 130.096 40.98C130.255 41.0173 130.479 41.0687 130.768 41.134Z" fill="#88DDEA"/>
<path d="M186.609 25H185.391C185.251 25 185.181 24.93 185.181 24.79V22.942H180.771C180.631 22.942 180.561 22.872 180.561 22.732V21.822C180.561 21.7287 180.585 21.6447 180.631 21.57L184.061 15.144C184.117 15.0413 184.197 14.99 184.299 14.99H185.713C185.797 14.99 185.853 15.018 185.881 15.074C185.909 15.1207 185.905 15.1767 185.867 15.242L182.563 21.444H185.181L185.209 19.498C185.228 19.3673 185.298 19.302 185.419 19.302H186.609C186.749 19.302 186.819 19.3673 186.819 19.498V21.444H187.673C187.813 21.444 187.883 21.5093 187.883 21.64V22.732C187.883 22.872 187.813 22.942 187.673 22.942H186.819V24.79C186.819 24.93 186.749 25 186.609 25ZM196.02 21.738C196.02 22.8767 195.679 23.7353 194.998 24.314C194.326 24.8833 193.518 25.168 192.576 25.168C191.978 25.168 191.428 25.0607 190.924 24.846C190.42 24.622 189.99 24.244 189.636 23.712C189.29 23.1707 189.118 22.5127 189.118 21.738V18.196C189.118 17.076 189.458 16.236 190.14 15.676C190.821 15.1067 191.633 14.822 192.576 14.822C193.518 14.822 194.326 15.1067 194.998 15.676C195.679 16.236 196.02 17.076 196.02 18.196V21.738ZM190.756 21.794C190.756 22.438 190.933 22.9 191.288 23.18C191.642 23.4507 192.072 23.586 192.576 23.586C193.08 23.586 193.504 23.4507 193.85 23.18C194.204 22.9 194.382 22.438 194.382 21.794V18.224C194.382 17.5707 194.204 17.104 193.85 16.824C193.504 16.544 193.08 16.404 192.576 16.404C192.072 16.404 191.642 16.544 191.288 16.824C190.933 17.104 190.756 17.5707 190.756 18.224V21.794ZM204.633 21.738C204.633 22.8767 204.292 23.7353 203.611 24.314C202.939 24.8833 202.132 25.168 201.189 25.168C200.592 25.168 200.041 25.0607 199.537 24.846C199.033 24.622 198.604 24.244 198.249 23.712C197.904 23.1707 197.731 22.5127 197.731 21.738V18.196C197.731 17.076 198.072 16.236 198.753 15.676C199.434 15.1067 200.246 14.822 201.189 14.822C202.132 14.822 202.939 15.1067 203.611 15.676C204.292 16.236 204.633 17.076 204.633 18.196V21.738ZM199.369 21.794C199.369 22.438 199.546 22.9 199.901 23.18C200.256 23.4507 200.685 23.586 201.189 23.586C201.693 23.586 202.118 23.4507 202.463 23.18C202.818 22.9 202.995 22.438 202.995 21.794V18.224C202.995 17.5707 202.818 17.104 202.463 16.824C202.118 16.544 201.693 16.404 201.189 16.404C200.685 16.404 200.256 16.544 199.901 16.824C199.546 17.104 199.369 17.5707 199.369 18.224V21.794ZM209.816 19.134C210.227 19.2273 210.549 19.3113 210.782 19.386C211.025 19.4513 211.328 19.568 211.692 19.736C212.056 19.8947 212.336 20.072 212.532 20.268C212.728 20.464 212.901 20.73 213.05 21.066C213.209 21.402 213.288 21.7847 213.288 22.214C213.288 23.0633 213.008 23.7353 212.448 24.23C211.888 24.7153 211.174 25.014 210.306 25.126V26.204C210.306 26.344 210.241 26.414 210.11 26.414H209.158C209.018 26.414 208.948 26.344 208.948 26.204V25.14C207.968 25.0373 207.012 24.594 206.078 23.81C205.966 23.7167 205.957 23.6187 206.05 23.516L206.736 22.564C206.82 22.452 206.914 22.438 207.016 22.522C207.922 23.194 208.794 23.544 209.634 23.572C210.166 23.572 210.624 23.4553 211.006 23.222C211.398 22.9793 211.594 22.634 211.594 22.186C211.594 21.99 211.552 21.8173 211.468 21.668C211.384 21.5187 211.286 21.3973 211.174 21.304C211.062 21.2107 210.89 21.122 210.656 21.038C210.432 20.954 210.236 20.8933 210.068 20.856C209.91 20.8093 209.676 20.7533 209.368 20.688C208.939 20.5947 208.561 20.4873 208.234 20.366C207.908 20.2447 207.567 20.0767 207.212 19.862C206.858 19.638 206.582 19.3487 206.386 18.994C206.19 18.63 206.092 18.2053 206.092 17.72C206.092 16.8893 206.354 16.236 206.876 15.76C207.399 15.2747 208.09 14.976 208.948 14.864V13.87C208.948 13.73 209.018 13.66 209.158 13.66H210.11C210.241 13.66 210.306 13.73 210.306 13.87V14.85C211.184 14.9433 212.066 15.312 212.952 15.956C213.064 16.0213 213.083 16.1147 213.008 16.236L212.35 17.188C212.276 17.2907 212.178 17.3047 212.056 17.23C211.291 16.7073 210.47 16.432 209.592 16.404C209.023 16.404 208.575 16.5253 208.248 16.768C207.922 17.0107 207.758 17.342 207.758 17.762C207.758 17.93 207.796 18.084 207.87 18.224C207.945 18.3547 208.034 18.462 208.136 18.546C208.239 18.63 208.393 18.714 208.598 18.798C208.804 18.8727 208.986 18.9333 209.144 18.98C209.303 19.0173 209.527 19.0687 209.816 19.134Z" fill="#88DDEA"/>
<path d="M271.73 12.682C271.73 13.7367 271.418 14.5813 270.792 15.216C270.167 15.8507 269.318 16.168 268.244 16.168C266.966 16.168 265.855 15.734 264.912 14.866C264.838 14.7727 264.838 14.6747 264.912 14.572L265.682 13.732C265.766 13.6387 265.864 13.6433 265.976 13.746C266.704 14.3153 267.465 14.6 268.258 14.6C268.846 14.6 269.294 14.432 269.602 14.096C269.92 13.7507 270.078 13.2793 270.078 12.682C270.078 11.506 269.476 10.918 268.272 10.918C267.535 10.918 266.938 11.1187 266.48 11.52C266.387 11.604 266.294 11.6273 266.2 11.59L265.248 11.268C265.127 11.24 265.066 11.1607 265.066 11.03L265.248 6.2C265.248 6.06 265.318 5.99 265.458 5.99H270.974C271.114 5.99 271.184 6.06 271.184 6.2V7.32C271.184 7.46 271.114 7.53 270.974 7.53H266.83L266.76 9.854C267.236 9.56467 267.806 9.42 268.468 9.42C269.476 9.42 270.27 9.70933 270.848 10.288C271.436 10.8573 271.73 11.6553 271.73 12.682ZM280.061 12.738C280.061 13.8767 279.72 14.7353 279.039 15.314C278.367 15.8833 277.559 16.168 276.617 16.168C276.019 16.168 275.469 16.0607 274.965 15.846C274.461 15.622 274.031 15.244 273.677 14.712C273.331 14.1707 273.159 13.5127 273.159 12.738V9.196C273.159 8.076 273.499 7.236 274.181 6.676C274.862 6.10667 275.674 5.822 276.617 5.822C277.559 5.822 278.367 6.10667 279.039 6.676C279.72 7.236 280.061 8.076 280.061 9.196V12.738ZM274.797 12.794C274.797 13.438 274.974 13.9 275.329 14.18C275.683 14.4507 276.113 14.586 276.617 14.586C277.121 14.586 277.545 14.4507 277.891 14.18C278.245 13.9 278.423 13.438 278.423 12.794V9.224C278.423 8.57067 278.245 8.104 277.891 7.824C277.545 7.544 277.121 7.404 276.617 7.404C276.113 7.404 275.683 7.544 275.329 7.824C274.974 8.104 274.797 8.57067 274.797 9.224V12.794ZM288.674 12.738C288.674 13.8767 288.333 14.7353 287.652 15.314C286.98 15.8833 286.173 16.168 285.23 16.168C284.633 16.168 284.082 16.0607 283.578 15.846C283.074 15.622 282.645 15.244 282.29 14.712C281.945 14.1707 281.772 13.5127 281.772 12.738V9.196C281.772 8.076 282.113 7.236 282.794 6.676C283.475 6.10667 284.287 5.822 285.23 5.822C286.173 5.822 286.98 6.10667 287.652 6.676C288.333 7.236 288.674 8.076 288.674 9.196V12.738ZM283.41 12.794C283.41 13.438 283.587 13.9 283.942 14.18C284.297 14.4507 284.726 14.586 285.23 14.586C285.734 14.586 286.159 14.4507 286.504 14.18C286.859 13.9 287.036 13.438 287.036 12.794V9.224C287.036 8.57067 286.859 8.104 286.504 7.824C286.159 7.544 285.734 7.404 285.23 7.404C284.726 7.404 284.297 7.544 283.942 7.824C283.587 8.104 283.41 8.57067 283.41 9.224V12.794ZM293.857 10.134C294.268 10.2273 294.59 10.3113 294.823 10.386C295.066 10.4513 295.369 10.568 295.733 10.736C296.097 10.8947 296.377 11.072 296.573 11.268C296.769 11.464 296.942 11.73 297.091 12.066C297.25 12.402 297.329 12.7847 297.329 13.214C297.329 14.0633 297.049 14.7353 296.489 15.23C295.929 15.7153 295.215 16.014 294.347 16.126V17.204C294.347 17.344 294.282 17.414 294.151 17.414H293.199C293.059 17.414 292.989 17.344 292.989 17.204V16.14C292.009 16.0373 291.053 15.594 290.119 14.81C290.007 14.7167 289.998 14.6187 290.091 14.516L290.777 13.564C290.861 13.452 290.955 13.438 291.057 13.522C291.963 14.194 292.835 14.544 293.675 14.572C294.207 14.572 294.665 14.4553 295.047 14.222C295.439 13.9793 295.635 13.634 295.635 13.186C295.635 12.99 295.593 12.8173 295.509 12.668C295.425 12.5187 295.327 12.3973 295.215 12.304C295.103 12.2107 294.931 12.122 294.697 12.038C294.473 11.954 294.277 11.8933 294.109 11.856C293.951 11.8093 293.717 11.7533 293.409 11.688C292.98 11.5947 292.602 11.4873 292.275 11.366C291.949 11.2447 291.608 11.0767 291.253 10.862C290.899 10.638 290.623 10.3487 290.427 9.994C290.231 9.63 290.133 9.20533 290.133 8.72C290.133 7.88933 290.395 7.236 290.917 6.76C291.44 6.27467 292.131 5.976 292.989 5.864V4.87C292.989 4.73 293.059 4.66 293.199 4.66H294.151C294.282 4.66 294.347 4.73 294.347 4.87V5.85C295.225 5.94333 296.107 6.312 296.993 6.956C297.105 7.02133 297.124 7.11467 297.049 7.236L296.391 8.188C296.317 8.29067 296.219 8.30467 296.097 8.23C295.332 7.70733 294.511 7.432 293.633 7.404C293.064 7.404 292.616 7.52533 292.289 7.768C291.963 8.01067 291.799 8.342 291.799 8.762C291.799 8.93 291.837 9.084 291.911 9.224C291.986 9.35467 292.075 9.462 292.177 9.546C292.28 9.63 292.434 9.714 292.639 9.798C292.845 9.87267 293.027 9.93333 293.185 9.98C293.344 10.0173 293.568 10.0687 293.857 10.134Z" fill="#88DDEA"/>
</g>
<defs>
<linearGradient id="paint0_linear" x1="114" y1="19.9927" x2="114" y2="163.705" gradientUnits="userSpaceOnUse">
<stop stop-color="#3ADADE" stop-opacity="0.46"/>
<stop offset="1" stop-color="white" stop-opacity="0"/>
</linearGradient>
</defs>
</svg>
