<svg width="27" height="27" fill="none" xmlns="http://www.w3.org/2000/svg"><path d="M10.683 21.951a.588.588 0 01-.28-.262.632.632 0 01-.067-.387l1.053-7.195H8.594a.554.554 0 01-.257-.055.583.583 0 01-.207-.169.62.62 0 01-.114-.522L9.75 5.468a.61.61 0 01.21-.342.56.56 0 01.37-.126h5.785c.087 0 .172.02.25.059a.583.583 0 01.202.166.618.618 0 01.115.516l-1 4.723h2.748a.56.56 0 01.306.092c.092.06.167.146.214.248a.634.634 0 01-.063.608l-7.522 10.32a.59.59 0 01-.198.192.557.557 0 01-.259.076.604.604 0 01-.225-.049zm3.552-10.272l1.157-5.465h-4.6l-1.469 6.679h3.42l-.92 6.241 5.45-7.455h-3.038z" fill="url(#paint0_linear)"/><defs><linearGradient id="paint0_linear" x1="8" y1="5" x2="19.508" y2="5.351" gradientUnits="userSpaceOnUse"><stop stop-color="#962BD8"/><stop offset="1" stop-color="#4D36A7"/></linearGradient></defs></svg>