<svg width="84" height="84" fill="none" xmlns="http://www.w3.org/2000/svg"><g clip-path="url(#clip0)" fill-rule="evenodd" clip-rule="evenodd"><path d="M0 30.188h42V73.5L0 30.187z" fill="#00A2A7"/><path d="M41.994 73.5L42 30.187h42L41.994 73.5z" fill="#007A7D"/><path d="M42.015 73.5L7.875 30.187H42v17.835l.015 25.478z" fill="#107275" fill-opacity=".35"/><path d="M42 65.857l-18.375-35.67H42v35.67z" fill="#0B7577" fill-opacity=".3"/><path d="M42 73.5l34.14-43.313H42.017v17.835L42 73.5z" fill="#086062" fill-opacity=".35"/><path opacity=".4" d="M42.015 48.022L84 30.188H42.015v17.834z" fill="url(#paint0_linear)"/><path d="M42.015 65.857l18.375-35.67H42.015v35.67z" fill="#086062" fill-opacity=".3"/><path opacity=".5" d="M42 48.022L0 30.188h42v17.834z" fill="#49D9DD"/><path d="M42 30.188H0L17.063 10.5 42 30.188z" fill="#3ADADE"/><path d="M42 30.188h42L66.937 10.5 42 30.188z" fill="#35B7BB"/><path d="M42 34.125v-15.75l7.875-7.875h17.063L43.311 34.125H42z" fill="url(#paint1_linear)"/><path d="M40.688 34.125L17.061 10.5h17.063L42 18.375v15.75h-1.313z" fill="url(#paint2_linear)"/><path d="M10.5 28.875L17.063 10.5l9.187 18.375H10.5z" fill="#107275" fill-opacity=".173"/><path d="M17.063 10.5l1.312 18.375h3.938L17.063 10.5z" fill="#107275" fill-opacity=".125"/><path d="M0 30.188L17.063 10.5l7.875 7.875L0 30.188z" fill="#8BFCFF" fill-opacity=".153"/><path d="M73.5 28.875L66.937 10.5 57.75 28.875H73.5z" fill="#107275" fill-opacity=".173"/><path d="M66.938 10.5l-1.313 18.375h-3.938l5.25-18.375z" fill="#107275" fill-opacity=".125"/><path d="M84 30.188L66.937 10.5l-7.874 7.875L84 30.188z" fill="#8BFCFF" fill-opacity=".153"/><path d="M28.875 22.313L42 18.375v17.063L28.875 22.312zM17.063 10.5L42 18.375 34.125 10.5H17.062z" fill="#1BC1C5" fill-opacity=".255"/><path d="M42 35.438L28.875 10.5h5.25L42 35.438z" fill="#fff" fill-opacity=".255"/><path d="M55.125 22.313L42 18.375v17.063l13.125-13.126zM66.938 10.5L42 18.375l7.875-7.875h17.063z" fill="#1BC1C5" fill-opacity=".255"/><path d="M42 35.438L55.125 10.5h-5.25L42 35.438z" fill="#fff" fill-opacity=".255"/><path d="M53.813 23.625l6.562 6.563L42 48.563 23.625 30.186l6.563-6.562L42 35.438l11.813-11.813z" fill="url(#paint3_linear)" stroke="#fff" stroke-width="4"/><path d="M2.625 28.875h22.313V31.5H2.625L0 30.187l2.625-1.312z" fill="url(#paint4_linear)"/><path d="M81.375 28.875H59.062V31.5h22.313L84 30.187l-2.625-1.312z" fill="url(#paint5_linear)"/><path d="M40.688 71.53V47.25h2.624v24.28L42 73.5l-1.313-1.97z" fill="url(#paint6_linear)"/><path d="M43.313 19.688v14.437h-2.626V19.687L42 18.375l1.313 1.313z" fill="url(#paint7_linear)"/><path d="M19.303 10.884l11.813 11.813-1.856 1.856L17.447 12.74l-.384-2.24 2.24.384z" fill="url(#paint8_linear)"/><path d="M64.697 10.884L52.884 22.697l1.856 1.856L66.553 12.74l.385-2.24-2.241.384z" fill="url(#paint9_linear)"/></g><defs><linearGradient id="paint0_linear" x1="80.701" y1="31.237" x2="38.627" y2="51.42" gradientUnits="userSpaceOnUse"><stop stop-color="#8CFCFF"/><stop offset="1" stop-color="#8CFCFF"/></linearGradient><linearGradient id="paint1_linear" x1="57.355" y1="21.638" x2="47.373" y2="15.513" gradientUnits="userSpaceOnUse"><stop stop-color="#D9FFFF"/><stop offset="1" stop-color="#A2FDFF"/></linearGradient><linearGradient id="paint2_linear" x1="26.624" y1="25.749" x2="36.223" y2="15.804" gradientUnits="userSpaceOnUse"><stop stop-color="#A8FDFF"/><stop offset="1" stop-color="#7EFCFF"/></linearGradient><linearGradient id="paint3_linear" x1="42" y1="46.278" x2="42" y2="22.945" gradientUnits="userSpaceOnUse"><stop stop-color="#1A7274"/><stop offset="1" stop-color="#136062"/></linearGradient><linearGradient id="paint4_linear" x1="22.313" y1="30.188" x2="0" y2="30.188" gradientUnits="userSpaceOnUse"><stop stop-color="#fff"/><stop offset="1" stop-color="#fff" stop-opacity="0"/></linearGradient><linearGradient id="paint5_linear" x1="61.688" y1="30.188" x2="84" y2="30.188" gradientUnits="userSpaceOnUse"><stop stop-color="#fff"/><stop offset="1" stop-color="#fff" stop-opacity="0"/></linearGradient><linearGradient id="paint6_linear" x1="42" y1="49.875" x2="42" y2="70.875" gradientUnits="userSpaceOnUse"><stop stop-color="#fff"/><stop offset="1" stop-color="#fff" stop-opacity="0"/></linearGradient><linearGradient id="paint7_linear" x1="42.519" y1="33.315" x2="42.519" y2="17.759" gradientUnits="userSpaceOnUse"><stop stop-color="#fff"/><stop offset="1" stop-color="#fff" stop-opacity="0"/></linearGradient><linearGradient id="paint8_linear" x1="31.5" y1="23.625" x2="18.375" y2="10.5" gradientUnits="userSpaceOnUse"><stop stop-color="#fff"/><stop offset=".34" stop-color="#fff"/><stop offset="1" stop-color="#fff" stop-opacity="0"/></linearGradient><linearGradient id="paint9_linear" x1="52.5" y1="23.625" x2="65.625" y2="10.5" gradientUnits="userSpaceOnUse"><stop stop-color="#fff"/><stop offset=".34" stop-color="#fff"/><stop offset="1" stop-color="#fff" stop-opacity="0"/></linearGradient><clipPath id="clip0"><path fill="#fff" d="M0 0h84v84H0z"/></clipPath></defs></svg>