<svg width="198" height="60" viewBox="0 0 198 60" fill="none" xmlns="http://www.w3.org/2000/svg">
<path d="M143.761 46.0339V50.1134C143.915 50.2289 144.587 50.2674 145.855 50.2674C149.967 50.2674 151.177 49.1513 152.368 45.88L160.188 22.673H156.711C155.442 22.673 154.655 23.2696 154.347 24.4434L150.908 36.451L146.97 22.6923H141.321L148.065 42.0699C148.852 44.6869 147.873 46.0532 145.144 46.0532H143.761V46.0339ZM131.177 38.4137C133.866 38.4137 135.25 36.5087 135.365 32.6793C135.365 28.6576 133.943 26.6756 131.1 26.6756C128.256 26.6756 126.911 28.6576 126.95 32.6793C127.104 36.5087 128.487 38.4137 131.177 38.4137ZM126.95 47.785C126.95 49.4399 126.124 50.2674 124.471 50.2674H121.955V31.2939C122.224 25.367 125.278 22.4421 131.234 22.4421C137.382 22.4421 140.437 25.7711 140.437 32.4484C140.437 39.2027 137.824 42.6856 132.541 42.8781C130.062 42.8781 128.199 41.8582 126.931 39.7992V47.785H126.95ZM110.369 38.4137C113.059 38.4137 114.442 36.5087 114.558 32.6793C114.558 28.6576 113.136 26.6756 110.292 26.6756C107.449 26.6756 106.104 28.6576 106.142 32.6793C106.277 36.5087 107.66 38.4137 110.369 38.4137ZM106.142 47.785C106.142 49.4399 105.316 50.2674 103.664 50.2674H101.147V31.2939C101.416 25.367 104.471 22.4421 110.427 22.4421C116.575 22.4421 119.63 25.7711 119.63 32.4484C119.63 39.2027 117.017 42.6856 111.733 42.8781C109.255 42.8781 107.391 41.8582 106.123 39.7992V47.785H106.142ZM90.6376 26.4639C92.6934 26.4639 93.7501 27.0219 93.8654 28.1573C93.8654 29.2349 92.7702 29.8891 90.6376 30.1393C85.6231 30.6204 82.184 31.9096 82.0687 36.6626C82.0687 41.05 85.3541 43.2629 90.1189 42.8781C95.4792 42.5125 98.7646 40.0686 98.7646 34.5844V27.8301C98.6494 24.1547 95.8827 22.3459 90.4071 22.3459C85.8344 22.3459 83.2599 24.1547 82.6643 27.8301H87.6404C87.9094 26.9065 88.87 26.4639 90.6376 26.4639ZM89.4656 38.8371C87.8902 38.8371 87.064 38.0866 86.9488 36.5087C86.9488 35.0462 87.967 34.1033 89.946 33.7377C91.4061 33.4298 92.751 33.0257 93.923 32.5446V34.3727C93.923 37.1822 92.2515 38.8371 89.4656 38.8371ZM59.1094 19.7481V42.5125H64.3929V31.2169H74.8447V42.5125H80.1282V17.0156H74.8447V26.5409H64.3929V17.0156H61.7223C60.2621 17.0156 59.1094 18.2857 59.1094 19.7481Z" fill="white"/>
<path d="M195.27 17.0153H192.696V42.5122H197.672V19.4399C197.672 18.1314 196.577 17.0153 195.27 17.0153ZM181.418 26.4636C183.551 26.4636 184.78 27.8106 185.088 30.4469H177.633C178.017 27.8106 179.285 26.4636 181.418 26.4636ZM190.064 36.4314H186.394C185.722 36.4314 185.164 36.6623 184.703 37.1434C183.724 38.0863 182.648 38.5674 181.476 38.5674C179.036 38.5674 177.729 37.0279 177.537 33.9876H190.333C190.698 26.2327 187.758 22.3649 181.456 22.3649C175.424 22.4033 172.388 25.7709 172.388 32.5251C172.388 39.2794 175.385 42.7623 181.38 42.9547C186.298 42.9547 188.988 40.6264 190.064 36.4314ZM171.197 23.1538V22.6727H167.489V19.5169C167.489 18.1314 166.355 16.9961 164.972 16.9961H162.493V38.6636C162.455 40.8765 163.358 42.0311 165.222 42.2235C167.085 42.4159 168.853 42.416 170.467 42.262V38.4712H168.93C167.95 38.4712 167.469 38.0286 167.469 37.2011V26.2134H167.988C169.295 26.2134 170.467 25.7901 170.966 24.4623C171.139 24.1352 171.197 23.5964 171.197 23.1538Z" fill="white"/>
<path fill-rule="evenodd" clip-rule="evenodd" d="M11.5469 0.000636333C16.4654 0.000636333 24.4964 -0.0186089 29.3572 0.154577C33.2574 0.289278 32.7002 0.250795 34.756 2.90632C37.734 6.79338 45.2462 15.2795 45.1886 17.7041C44.9388 29.7694 44.4777 35.9656 44.4393 48.435C44.4201 54.7852 39.2518 60 32.8924 60H11.5469C5.20668 60 0 54.8044 0 48.435V11.5656C0 5.19622 5.20668 0.000636333 11.5469 0.000636333Z" fill="#8F081A"/>
<path fill-rule="evenodd" clip-rule="evenodd" d="M14.4113 20.4563H30.2619C35.2765 20.4563 39.388 24.5743 39.388 29.5967V44.837C39.388 49.8594 35.2765 53.9774 30.2619 53.9774H14.4113C9.39677 53.9774 5.28522 49.8594 5.28522 44.837V29.5967C5.26601 24.5743 9.37756 20.4563 14.4113 20.4563Z" fill="white"/>
<path fill-rule="evenodd" clip-rule="evenodd" d="M35.6013 37.0815C35.3707 44.1245 29.3379 49.7819 21.9217 49.7819C14.5248 49.7819 8.49195 44.1437 8.24219 37.0815H35.6013Z" fill="#BB2539"/>
<path fill-rule="evenodd" clip-rule="evenodd" d="M18.9457 32.7329C18.8689 30.1928 16.6786 28.1531 14.008 28.1531C11.3374 28.1531 9.14716 30.1928 9.07031 32.7329H18.9457Z" fill="#BB2539"/>
<path fill-rule="evenodd" clip-rule="evenodd" d="M35.3949 32.5725C35.3181 30.0324 33.1278 27.9927 30.4572 27.9927C27.7866 27.9927 25.5964 30.0324 25.5195 32.5725H35.3949Z" fill="#BB2539"/>
<path fill-rule="evenodd" clip-rule="evenodd" d="M19.06 5.23486L11.6055 5.33108L16.0052 18.2046L19.06 5.23486Z" fill="white"/>
<path fill-rule="evenodd" clip-rule="evenodd" d="M8.52968 9.96802L3.95703 12.9314L13.3137 18.4926L8.52968 9.96802Z" fill="white"/>
<path fill-rule="evenodd" clip-rule="evenodd" d="M23.8038 9.48755L24.2265 9.71847L28.2996 12.0084L19.0391 18.0314L23.5925 9.89165L23.8038 9.48755Z" fill="white"/>
</svg>
