<svg width="37" height="39" viewBox="0 0 37 39" fill="none" xmlns="http://www.w3.org/2000/svg">
<path d="M0 0H3.89474V31.6488H0V0Z" fill="white"/>
<path d="M8.32057 8.21158H12.2153V26.8587H8.32057V8.21158Z" fill="white"/>
<path d="M24.7847 16.081H28.6794V26.9813L24.7847 27.0298V16.081Z" fill="white"/>
<path d="M0.354067 3.76364V0H37V3.76364H0.354067Z" fill="white"/>
<path d="M8.67464 11.9752V8.21158H28.6794V11.9752H8.67464Z" fill="white"/>
<path d="M16.4641 19.8447V16.081H28.6794V19.8447H16.4641Z" fill="white"/>
<path d="M36.9946 0H33.0999V31.6488H36.9946V0Z" fill="white"/>
<path d="M36.9946 31.6578L35.0473 28.3984L24.9651 34.0234L26.9125 37.2828L36.9946 31.6578Z" fill="white"/>
<path d="M8.32057 26.9093L10.2679 23.6499L28.856 34.0205L26.9086 37.2799L8.32057 26.9093Z" fill="white"/>
<path d="M15.4019 37.2087L18.5 35.4751L21.5981 37.2087L18.5067 39L15.4019 37.2087Z" fill="white"/>
<path d="M0 31.6578L1.94737 28.3984L12.0295 34.0234L10.0821 37.2828L0 31.6578Z" fill="white"/>
<path d="M28.6741 26.9093L26.7267 23.6499L8.13865 34.0205L10.086 37.2799L28.6741 26.9093Z" fill="white"/>
</svg>
