<svg width="130" height="25" viewBox="0 0 130 25" fill="none" xmlns="http://www.w3.org/2000/svg">
<g clip-path="url(#clip0_2020_1021)">
<path d="M0.66426 22C0.727661 21.0965 0.775211 20.2961 0.806911 19.5987C0.838612 18.8855 0.854462 18.1247 0.854462 17.3163V7.66358C0.854462 6.85523 0.838612 6.10235 0.806911 5.40495C0.775211 4.69169 0.727661 3.88334 0.66426 2.97988H3.37463C3.31123 3.88334 3.26368 4.69169 3.23198 5.40495C3.20028 6.10235 3.18443 6.85523 3.18443 7.66358V17.3163C3.18443 18.1247 3.20028 18.8855 3.23198 19.5987C3.26368 20.2961 3.31123 21.0965 3.37463 22H0.66426ZM6.25978 22C6.32318 21.0965 6.37073 20.2961 6.40243 19.5987C6.43413 18.8855 6.44998 18.1247 6.44998 17.3163V7.66358C6.44998 6.85523 6.43413 6.10235 6.40243 5.40495C6.37073 4.69169 6.32318 3.88334 6.25978 2.97988H8.94637L20.1207 21.1203L20.0969 21.1441V7.66358C20.0969 6.85523 20.0811 6.10235 20.0494 5.40495C20.0335 4.69169 19.986 3.88334 19.9067 2.97988H20.62C20.5566 3.88334 20.509 4.69169 20.4773 5.40495C20.4456 6.10235 20.4298 6.85523 20.4298 7.66358V17.3163C20.4298 18.1247 20.4456 18.8855 20.4773 19.5987C20.509 20.2961 20.5566 21.0965 20.62 22H17.9334L6.75906 3.85956L6.78283 3.83579V17.3163C6.78283 18.1247 6.79868 18.8855 6.83038 19.5987C6.86208 20.2961 6.90963 21.0965 6.97303 22H6.25978ZM23.5107 22C23.5741 21.0965 23.6216 20.2961 23.6533 19.5987C23.685 18.8855 23.7009 18.1247 23.7009 17.3163V7.66358C23.7009 6.85523 23.685 6.10235 23.6533 5.40495C23.6216 4.69169 23.5741 3.88334 23.5107 2.97988H26.1973L37.3716 21.1203L37.3478 21.1441V7.66358C37.3478 6.85523 37.332 6.10235 37.3003 5.40495C37.2844 4.69169 37.2369 3.88334 37.1576 2.97988H37.8709C37.8075 3.88334 37.7599 4.69169 37.7282 5.40495C37.6965 6.10235 37.6807 6.85523 37.6807 7.66358V17.3163C37.6807 18.1247 37.6965 18.8855 37.7282 19.5987C37.7599 20.2961 37.8075 21.0965 37.8709 22H35.1843L24.01 3.85956L24.0337 3.83579V17.3163C24.0337 18.1247 24.0496 18.8855 24.0813 19.5987C24.113 20.2961 24.1605 21.0965 24.2239 22H23.5107ZM42.291 15.0814V14.701H49.2809V15.0814H42.291ZM52.5619 19.4561C52.7204 20.0108 52.863 20.4625 52.9898 20.8112C53.1325 21.1441 53.3227 21.5403 53.5604 22H50.5885C50.5727 21.5403 50.5331 21.1679 50.4697 20.8826C50.4063 20.5973 50.3032 20.201 50.1606 19.6938L50.0893 19.4561L45.6671 3.78824L41.1974 19.5749L41.0785 20.0504C40.9675 20.3991 40.8724 20.7161 40.7932 21.0014C40.7298 21.2867 40.6822 21.6196 40.6505 22H39.9611C40.1671 21.5879 40.3177 21.2392 40.4128 20.9539C40.5079 20.6686 40.603 20.3516 40.6981 20.0029L40.817 19.5987L45.1678 4.26374C45.2154 3.99429 45.2391 3.77239 45.2391 3.59803C45.2391 3.42368 45.1995 3.21763 45.1203 2.97988H47.9257L52.5619 19.4561ZM63.2133 22C63.2767 21.0965 63.3243 20.2961 63.356 19.5987C63.3877 18.8855 63.4035 18.1247 63.4035 17.3163V7.66358C63.4035 6.85523 63.3877 6.10235 63.356 5.40495C63.3243 4.69169 63.2767 3.88334 63.2133 2.97988H68.2537C70.2508 2.97988 71.9705 3.33651 73.4129 4.04976C74.8552 4.76302 75.9647 5.8329 76.7414 7.25941C77.5339 8.67007 77.9301 10.4136 77.9301 12.4899C77.9301 14.4871 77.5418 16.1989 76.7652 17.6254C76.0044 19.0519 74.8949 20.1376 73.4366 20.8826C71.9943 21.6275 70.2666 22 68.2537 22H63.2133ZM68.1823 21.6196C69.593 21.6196 70.8372 21.2709 71.915 20.5735C73.0087 19.8602 73.8567 18.8221 74.459 17.4589C75.0613 16.08 75.3624 14.4237 75.3624 12.4899C75.3624 10.477 75.0613 8.78894 74.459 7.42583C73.8567 6.06272 73.0166 5.04832 71.9388 4.38261C70.861 3.70106 69.6088 3.36028 68.1823 3.36028H65.7335V21.6196H68.1823ZM91.1094 22.4755C89.0964 22.4755 87.2816 22.0476 85.6649 21.1916C84.0482 20.3357 82.7802 19.1549 81.8608 17.6491C80.9415 16.1275 80.4819 14.4078 80.4819 12.4899C80.4819 10.5721 80.9415 8.86027 81.8608 7.35451C82.7802 5.8329 84.0482 4.64414 85.6649 3.78824C87.2816 2.93233 89.0964 2.50438 91.1094 2.50438C93.1223 2.50438 94.9372 2.93233 96.5539 3.78824C98.1706 4.64414 99.4386 5.8329 100.358 7.35451C101.293 8.87612 101.761 10.5879 101.761 12.4899C101.761 14.4078 101.293 16.1275 100.358 17.6491C99.4386 19.1549 98.1706 20.3357 96.5539 21.1916C94.9372 22.0476 93.1223 22.4755 91.1094 22.4755ZM91.1094 22.0951C92.7261 22.0951 94.1447 21.6592 95.3651 20.7875C96.6014 19.8999 97.5445 18.727 98.1944 17.2687C98.8601 15.7947 99.1929 14.2018 99.1929 12.4899C99.1929 10.794 98.8601 9.21689 98.1944 7.75869C97.5445 6.28463 96.6014 5.10379 95.3651 4.21619C94.1447 3.32858 92.7261 2.88478 91.1094 2.88478C89.4927 2.88478 88.0662 3.32858 86.8299 4.21619C85.6094 5.08794 84.6742 6.26085 84.0244 7.73491C83.3745 9.20897 83.0496 10.794 83.0496 12.4899C83.0496 14.2018 83.3745 15.7947 84.0244 17.2687C84.6742 18.727 85.6094 19.8999 86.8299 20.7875C88.0662 21.6592 89.4927 22.0951 91.1094 22.0951ZM102.904 5.52382C102.762 4.96907 102.619 4.52527 102.477 4.19241C102.35 3.84371 102.167 3.43953 101.93 2.97988H104.902C104.917 3.43953 104.957 3.81201 105.02 4.09731C105.084 4.38261 105.187 4.77887 105.33 5.28607L105.401 5.52382L109.823 21.1916L114.293 5.40495L114.412 4.92944C114.523 4.58074 114.61 4.26374 114.673 3.97844C114.752 3.69314 114.8 3.36028 114.816 2.97988H115.529C115.323 3.39198 115.172 3.74068 115.077 4.02599C114.982 4.31129 114.887 4.62829 114.792 4.97699L114.673 5.38117L110.322 20.7161C110.275 20.9856 110.251 21.2075 110.251 21.3818C110.251 21.5403 110.291 21.7464 110.37 22H107.564L102.904 5.52382ZM117.288 22C117.383 21.049 117.438 20.2327 117.454 19.5512C117.486 18.8696 117.502 18.1247 117.502 17.3163V7.66358C117.502 6.85523 117.486 6.11027 117.454 5.42872C117.438 4.74717 117.383 3.93089 117.288 2.97988H128.51L127.44 4.31129C126.552 3.94674 125.609 3.70106 124.611 3.57426C123.628 3.43161 122.764 3.36028 122.019 3.36028H119.856V11.7291H121.377C122.217 11.7291 122.97 11.7212 123.636 11.7054C124.317 11.6737 125.15 11.6023 126.132 11.4914V12.3473C125.15 12.2363 124.317 12.1729 123.636 12.1571C122.97 12.1254 122.217 12.1095 121.377 12.1095H119.856V21.6196H122.518C123.358 21.6196 124.103 21.6037 124.753 21.572C125.403 21.5245 126.077 21.4373 126.774 21.3105C127.487 21.1679 128.28 20.9697 129.152 20.7161L128.462 22H117.288Z" fill="#695145"/>
<path d="M92.1552 12.5285L90.9332 14.0569L89.7344 12.5285L90.9332 11L92.1552 12.5285Z" fill="#695145"/>
</g>
<defs>
<clipPath id="clip0_2020_1021">
<rect width="130" height="25" fill="white"/>
</clipPath>
</defs>
</svg>
