<svg width="243" height="65" viewBox="0 0 243 65" fill="none" xmlns="http://www.w3.org/2000/svg">
<g clip-path="url(#clip0)">
<path fill-rule="evenodd" clip-rule="evenodd" d="M170.729 13.7713C170.496 15.0436 170.561 15.7145 170.354 17.3829C170.086 19.5534 169.501 22.7914 169.904 24.9245C170.202 26.5065 172.804 28.5585 171.416 29.6234C164.623 33.5833 170.529 16.8625 166.198 16.1413C162.758 15.5686 160.828 20.7006 158.287 21.6733C157.231 22.0773 156.568 22.2577 156.17 21.3719C155.588 20.0792 156.899 20.0106 156.835 18.3855C156.786 17.1593 155.348 15.3441 153.277 15.5769C149.271 16.027 153.219 27.9114 150.805 30.0607C149.975 30.7998 149.495 30.5225 148.97 30.0607C147.596 28.8512 148.296 23.1937 148.296 21.3324C148.296 17.6331 148.446 14.3931 148.296 11.7396C148.189 9.84836 147.464 8.35326 149.082 7.90226C149.682 7.73518 150.098 7.62586 150.805 8.24102C151.461 8.81089 151.66 10.7175 151.929 11.2882C152.75 13.0294 157.088 15.8134 159.457 16.0283C161.318 16.1974 162.619 15.1837 164.175 14.4484C166.666 13.2712 167.234 12.782 167.882 9.93397C168.141 8.79799 168.232 8.39604 169.006 8.35407C170.383 8.27884 170.629 9.89323 170.691 11.2882C170.765 12.1138 170.777 12.9437 170.729 13.7713Z" fill="black"/>
<path fill-rule="evenodd" clip-rule="evenodd" d="M73.6595 8.86075C75.9119 8.63215 80.6731 8.80715 81.0565 11.0313C81.263 12.225 80.4462 12.8352 79.0522 12.9815C77.1352 13.1823 76.8787 11.3094 75.4561 10.7807C73.1136 9.90946 70.1953 11.4353 69.0158 12.1723C66.1964 13.933 64.0706 16.8991 64.0915 20.4675C64.1238 26.0513 69.5268 29.9377 76.0186 27.258C77.5991 26.6058 80.1758 23.6302 80.8492 25.4524C81.3873 26.9088 79.0878 28.4239 77.7031 29.1766C75.4338 30.4119 73.1854 30.5961 69.7453 30.306C64.6923 29.8799 60.4472 26.9566 60.9448 20.3735C61.2406 16.4468 62.8924 14.2867 65.1574 12.1723C67.4037 10.0761 69.8578 9.24774 73.6595 8.86075Z" fill="black"/>
<path fill-rule="evenodd" clip-rule="evenodd" d="M125.17 9.25729C126.529 9.07897 126.842 9.25729 129.01 9.25729C130.694 9.25729 133.654 8.83707 133.616 10.3858C133.57 12.2105 131.045 10.8497 129.347 10.9498C127.407 11.0646 125.831 14.9359 127.905 16.1787C128.289 16.4086 131.359 16.3508 131.5 17.4199C131.696 18.9142 128.565 18.3871 127.68 19.0002C126.117 20.0826 125.995 25.9428 127.324 27.7659C128.097 28.8258 129.615 29.1359 132.099 28.8944C133.824 28.7269 136.82 27.5186 137.005 29.2331C137.235 31.3551 131.823 30.5878 129.796 30.5878C128.063 30.5878 123.944 31.3426 123.466 29.7976C123.201 28.9422 123.931 27.8582 124.084 26.5243C124.304 24.6036 124.174 22.1513 123.991 20.0348C123.888 18.8539 123.685 17.7902 123.691 16.7619C123.698 15.4842 123.968 14.7023 123.878 13.2077C123.766 11.3476 122.198 9.64634 125.17 9.25729Z" fill="black"/>
<path fill-rule="evenodd" clip-rule="evenodd" d="M39.6591 9.36993C43.5802 8.278 42.0185 14.3503 42.0185 17.9478C42.0185 21.7493 39.8458 27.6221 42.2932 28.6525C43.1501 29.0137 46.4299 29.0395 48.0856 28.8944C49.5739 28.7639 53.3008 26.935 53.3018 28.825C53.303 31.1119 46.6846 30.5878 45.052 30.5878C43.3132 30.5878 37.5961 31.2811 37.3184 29.7976C37.1289 28.7871 37.9378 27.7356 38.105 26.8631C38.5457 24.567 38.2167 21.0311 38.2167 17.6086C38.2167 14.411 37.6821 9.92025 39.6591 9.36993Z" fill="black"/>
<path fill-rule="evenodd" clip-rule="evenodd" d="M94.5556 8.90026C97.7698 8.00493 93.9648 15.7793 97.9256 16.875C99.4812 17.3052 101.409 17.5629 102.981 17.1373C104.765 16.6543 106.05 15.8209 106.576 14.5985C107.035 13.5306 106.657 8.9597 108.037 9.05073C109.209 9.12804 109.361 10.3488 109.609 11.8722C109.751 12.8174 109.823 13.7718 109.825 14.7277C109.844 15.7901 109.78 16.0316 109.404 17.1572C108.814 18.9233 108.748 22.9888 109.251 24.9735C109.578 26.2621 111.653 28.4518 110.808 29.7087C110.324 30.4286 108.3 30.8854 107.475 30.136C106.441 29.1966 106.913 24.8044 106.913 22.9132C106.913 20.0389 107.217 18.9466 105.228 18.6045C102.514 18.1377 97.1607 20.0763 96.5028 21.6911C95.7568 23.5233 97.1057 28.867 95.2108 29.6289C94.2544 30.0134 93.9449 29.5487 93.6559 29.1775C93.0224 28.3644 93.016 27.1499 92.9821 25.0575C92.962 23.818 92.9939 23.1713 92.9775 22.2519C92.9599 21.2742 93.0543 20.3315 93.0011 19.1885C92.8643 16.2527 91.9859 9.61602 94.5556 8.90026Z" fill="black"/>
<path fill-rule="evenodd" clip-rule="evenodd" d="M187.615 0.0589053C189.031 -0.21586 189.537 0.481617 189.6 1.92103C189.691 4.01133 188.217 5.80404 186.51 5.68393C183.754 5.48939 185.078 1.90813 186.267 0.736007C186.643 0.386479 187.111 0.151648 187.615 0.0589053Z" fill="black"/>
<path fill-rule="evenodd" clip-rule="evenodd" d="M185.012 10.8372C186.094 10.5978 188.537 10.365 188.926 11.6273C189.296 12.8273 187.903 14.4642 187.803 15.5773C187.577 18.0858 187.431 24.2977 187.914 26.5243C188.208 27.8731 189.148 28.6301 188.813 29.6845C188.35 31.1448 184.318 31.195 183.776 29.7976C183.283 28.5278 184.643 27.4899 184.787 26.0734C185.041 23.567 185.143 16.9148 184.674 14.7871C184.513 14.0535 183.398 13.3157 183.664 11.853C183.808 11.0587 184.427 10.9665 185.012 10.8372Z" fill="black"/>
<path fill-rule="evenodd" clip-rule="evenodd" d="M0.245805 40.0679C-0.00680766 38.3882 1.94163 36.406 2.49217 34.9707C5.59792 26.8693 8.59983 18.5887 11.9303 10.1601C12.5925 8.48336 12.9068 6.05344 14.7766 5.75876C17.3023 5.36056 16.9551 6.85525 17.4355 8.8059C17.8675 10.4959 18.4119 12.1549 19.0649 13.7717C19.7617 15.5474 20.5781 17.4053 21.3672 18.6245C21.9998 19.6017 23.4695 20.2501 23.6708 21.3329C23.8216 22.145 23.4426 22.9285 23.5022 24.0413C23.6248 25.099 24.0114 26.1085 24.626 26.9762C25.1064 27.6724 26.2635 28.4073 25.9735 29.5715C25.6002 31.0712 23.9781 30.3829 23.4832 30.0233C21.1989 28.3611 22.0751 23.0794 18.7463 22.8001C16.296 22.5952 12.2423 24.7699 10.7322 25.9977C8.39274 27.9022 5.91942 31.2046 5.91942 35.1021C5.91942 36.0199 6.69419 36.9401 6.53739 37.6974C6.26741 38.9997 4.9334 39.1917 3.72932 39.6161C2.60119 40.0139 1.37995 40.7708 0.245805 40.0679ZM17.9966 20.2044C19.0873 18.6103 17.138 13.8328 15.5257 13.8843C13.8101 13.9396 11.8657 19.8049 12.4922 21.4459C14.0815 22.2016 17.0356 21.6117 17.9966 20.2044V20.2044Z" fill="black"/>
<path d="M0.256104 40.092C0.638221 41.1785 1.80071 42.7222 1.62259 46.9432C1.4436 51.1641 0.525049 52.2236 0.202103 53.1223C-0.286761 54.4794 0.261872 55.563 2.14332 55.755C4.02555 55.9466 4.99771 53.9685 4.79477 52.6576C4.51733 50.8528 3.58696 50.0103 3.3296 46.429C2.99238 41.7217 5.34757 39.4194 6.20696 38.3321C7.06637 37.2447 -0.125819 39.005 0.256104 40.092Z" fill="black"/>
<path d="M2.1963 65C3.40928 65 4.3926 64.0122 4.3926 62.7937C4.3926 61.5752 3.40928 60.5874 2.1963 60.5874C0.983317 60.5874 0 61.5752 0 62.7937C0 64.0122 0.983317 65 2.1963 65Z" fill="black"/>
<path fill-rule="evenodd" clip-rule="evenodd" d="M242.11 38.4028C241.174 38.5846 240.226 38.7018 239.274 38.7536C234.042 38.9805 230.361 37.6623 226.65 35.398C225.356 34.607 223.751 33.0728 222.468 31.944C221.304 30.9195 219.473 29.1949 219.481 27.7422C219.489 26.0584 221.23 24.7782 222.256 23.047C223.273 21.3324 223.94 19.775 223.956 17.3775C224.005 10.3954 220.001 5.02844 212.669 5.77411C210.323 5.99145 208.051 6.71537 206.009 7.89633C203.967 9.0773 202.203 10.6874 200.838 12.6166C198.936 15.3828 197.779 21.1953 200.267 25.2961C201.944 28.0602 205.106 30.439 209.203 30.3832C211.045 30.3583 212.745 29.5873 214.779 29.8924C215.889 30.0591 217.254 31.003 217.892 31.7316C218.594 32.5734 219.405 33.316 220.305 33.9391C225.389 37.4069 231.592 39.4477 239.318 40.2271C239.718 40.2674 240.215 40.3609 240.683 40.3985L240.683 40.3987L240.695 40.3996C240.709 40.4008 240.724 40.4014 240.738 40.4025C242.734 40.5795 242.966 39.5554 242.966 39.5554C242.966 39.5554 243.262 38.1367 242.11 38.4028ZM217.329 24.2611C215.439 24.3139 214.441 21.5885 213.624 20.1798C212.535 18.2986 211.899 16.3064 210.159 15.978C208.953 15.7502 207.463 16.1954 207.291 17.0583C207.104 18.003 208.104 19.0933 208.486 19.6993C209.527 21.3507 210.312 22.5041 211.474 24.2611C211.861 24.8468 212.676 26.0214 212.43 27.0219C211.709 29.9481 206.596 27.1541 205.512 26.154C204.01 24.7703 202.21 21.7019 202.166 18.7254C202.088 13.3914 205.975 9.40069 210.942 8.84082C216.786 8.18158 220.86 12.371 220.529 18.4199C220.372 21.2755 219.063 24.2129 217.329 24.2611H217.329Z" fill="black"/>
<path d="M40.9433 51.9135C40.1541 52.2383 39.3055 52.3915 38.4531 52.3632C35.7948 52.3632 33.7942 50.6767 33.7942 47.5708C33.7942 44.6053 35.7949 42.5956 38.7188 42.5956C39.4872 42.5632 40.2528 42.7074 40.9573 43.0172L40.6636 44.0151C40.0662 43.7443 39.4164 43.6099 38.7611 43.6217C36.5505 43.6217 35.0814 45.041 35.0814 47.5286C35.0814 49.8476 36.4105 51.3373 38.7049 51.3373C39.3872 51.3473 40.064 51.2133 40.6915 50.9438L40.9433 51.9135Z" fill="#231F20"/>
<path d="M58.3298 49.2433L57.3506 52.2227H56.0914L59.2954 42.7503H60.7645L63.9822 52.2227H62.6811L61.6736 49.2433H58.3298ZM61.4221 48.2875L60.4985 45.5611C60.2889 44.9426 60.1486 44.3805 60.0089 43.8323H59.9809C59.8412 44.3945 59.6872 44.9709 59.5053 45.5471L58.582 48.2875H61.4221Z" fill="#231F20"/>
<path d="M80.3619 43.7902H77.4938V42.7503H84.475V43.7902H81.5932V52.2227H80.3619L80.3619 43.7902Z" fill="#231F20"/>
<path d="M104.688 47.7815H101.023V51.1968H105.108V52.2227H99.8056V42.7503H104.898V43.7762H101.023V46.7698H104.688L104.688 47.7815Z" fill="#231F20"/>
<path d="M120.97 42.8767C121.741 42.7388 122.523 42.6729 123.306 42.68C124.607 42.68 125.447 42.9188 126.035 43.4529C126.278 43.6825 126.471 43.9618 126.599 44.272C126.726 44.5822 126.787 44.9163 126.776 45.2519C126.783 45.7943 126.613 46.3242 126.292 46.7606C125.971 47.197 125.517 47.5161 124.999 47.6693V47.7114C125.727 47.9643 126.16 48.6389 126.384 49.6227C126.692 50.9438 126.916 51.8573 127.112 52.2227H125.853C125.571 51.4904 125.361 50.7327 125.223 49.96C124.943 48.6529 124.44 48.1611 123.334 48.119H122.187V52.2227H120.97V42.8767ZM122.187 47.1913H123.432C124.733 47.1913 125.559 46.4746 125.559 45.3924C125.559 44.1696 124.677 43.6357 123.39 43.6217C122.986 43.6103 122.582 43.648 122.187 43.734V47.1913Z" fill="#231F20"/>
<path d="M143.995 42.7503V52.2227H142.778V42.7503H143.995Z" fill="#231F20"/>
<path d="M160.403 52.2227V42.7503H161.732L164.754 47.5426C165.385 48.5303 165.951 49.5585 166.447 50.6206L166.475 50.6065C166.363 49.3415 166.335 48.1891 166.335 46.7135V42.7503H167.482V52.2227H166.251L163.258 47.4162C162.607 46.3987 162.018 45.3427 161.495 44.254L161.452 44.268C161.523 45.4627 161.551 46.6011 161.551 48.1751V52.2227H160.403Z" fill="#231F20"/>
<path d="M191.067 51.801C190.137 52.1367 189.158 52.3125 188.171 52.3211C186.744 52.3211 185.569 51.9557 184.645 51.0703C183.834 50.2833 183.33 49.0184 183.33 47.5426C183.344 44.7178 185.275 42.6519 188.436 42.6519C189.241 42.6324 190.042 42.7808 190.787 43.0876L190.493 44.0854C189.836 43.7977 189.125 43.6586 188.408 43.6778C186.114 43.6778 184.617 45.1114 184.617 47.4865C184.617 49.8897 186.058 51.3092 188.255 51.3092C188.807 51.3394 189.36 51.2533 189.878 51.0562V48.2312H187.961V47.2476H191.067V51.801Z" fill="#231F20"/>
</g>
<defs>
<clipPath id="clip0">
<rect width="243" height="65" fill="white"/>
</clipPath>
</defs>
</svg>
