<svg width="121" height="56" viewBox="0 0 121 56" fill="none" xmlns="http://www.w3.org/2000/svg">
<g clip-path="url(#clip0)">
<path fill-rule="evenodd" clip-rule="evenodd" d="M4.36484 34.3822C5.21281 34.3822 7.1102 34.2274 7.74039 34.8706C8.40053 35.5095 8.41686 37.187 6.16286 37.187H4.37437L4.36484 34.3822ZM0.00111697 30.6022C0.00111697 34.8044 0.0242559 38.9912 -0.000244141 43.1864C-0.000244141 43.6283 0.00111697 44.0336 0.00111697 44.1912C0.357728 44.1969 1.36087 44.1983 4.34714 44.1941L4.42881 40.7757C6.37928 40.7757 5.98592 40.5224 6.90467 42.4011L7.83567 44.1941C8.3665 44.1941 8.49173 44.1912 8.96675 44.1969L12.7506 44.1941C11.5161 42.024 10.7893 40.8221 10.2026 39.685C10.2857 39.6526 10.6191 39.5077 10.6967 39.4669C11.8891 38.8209 12.5206 37.1026 12.5206 35.6488C12.5206 29.268 4.48053 30.6022 0.00111697 30.6022Z" fill="url(#paint0_linear)"/>
<path fill-rule="evenodd" clip-rule="evenodd" d="M15.0801 42.3139C15.0801 43.406 15.0788 43.9844 15.0801 44.1955C15.287 44.1955 15.7852 44.1983 16.9516 44.1941C20.2088 44.18 23.3366 44.1983 26.5556 44.1983V40.604C24.1914 40.604 21.8258 40.604 19.4615 40.604L19.4561 38.9814H25.5648V35.7347H19.4561L19.4193 34.2823C21.8285 34.2823 23.9069 34.2781 26.3038 34.2781L26.3079 30.6064H15.0801V42.3139Z" fill="url(#paint1_linear)"/>
<path fill-rule="evenodd" clip-rule="evenodd" d="M35.3877 37.529H33.4889L33.4998 34.3597C34.8351 34.3597 36.987 34.1627 37.0523 35.7248C37.1462 36.8648 36.4725 37.529 35.3877 37.529ZM29.113 30.6078V44.1941H33.4889V41.3738C35.9267 41.3738 37.8567 41.5948 39.765 40.0946C42.1592 38.2116 42.1728 33.3268 39.3485 31.6352C36.6453 30.0167 32.249 30.6078 29.113 30.6078Z" fill="url(#paint2_linear)"/>
<path fill-rule="evenodd" clip-rule="evenodd" d="M47.442 38.5535C47.4747 38.4845 48.4629 35.5404 48.516 35.3068C48.8277 35.9865 49.4674 37.6894 49.7763 38.5633C49.0087 38.5605 48.2152 38.5535 47.442 38.5535ZM40.9196 44.194H45.4603C45.629 43.8225 45.9938 42.8388 46.2225 41.9845L50.8271 41.9719C50.9823 42.5207 51.2123 43.3989 51.5227 44.1997C53.0757 44.1785 54.6382 44.1968 56.1926 44.194C54.5225 39.8904 51.1089 31.3354 50.7128 30.8231C50.6842 30.7851 50.6379 30.7372 50.5685 30.7232C50.0309 30.612 46.8922 30.5613 46.3845 30.6795C45.7107 31.3241 41.6532 42.4518 40.9196 44.194Z" fill="url(#paint3_linear)"/>
<path fill-rule="evenodd" clip-rule="evenodd" d="M58.0099 44.1941H62.3858V30.6078H58.0099V44.1941Z" fill="url(#paint4_linear)"/>
<path fill-rule="evenodd" clip-rule="evenodd" d="M22.7332 3.60842C21.6482 3.74124 19.8059 3.55209 19.0053 3.72077C19.2491 4.01711 20.657 5.03769 21.198 5.42385C22.1559 6.10963 22.0685 5.98703 21.4716 7.83023C21.3445 8.22564 20.9894 9.20716 21.0433 9.59656L22.4877 8.50775C22.7537 8.29007 22.9463 8.15958 23.209 7.96294C24.1828 7.22868 23.9708 7.44585 25.4162 8.44677C25.9082 8.78745 26.4453 9.27684 26.8859 9.46068C26.8896 8.75088 26.1532 7.25861 25.9044 6.13611C25.8249 5.78132 27.8416 4.42298 28.3 4.04152C28.5396 3.84205 28.5217 3.96907 28.533 3.65055L26.82 3.68091C24.5772 3.69224 25.1433 3.85599 24.4564 2.0344C24.2756 1.55193 24.0059 0.691155 23.8473 0.180029C23.552 0.332127 23.7018 0.270405 23.4862 0.963801C23.3887 1.27601 23.3114 1.53613 23.2341 1.82201L22.7332 3.60842Z" fill="url(#paint5_linear)"/>
<path fill-rule="evenodd" clip-rule="evenodd" d="M0.00306702 4.53582C0.00306702 6.21335 0.793872 7.67696 2.26115 8.35388C4.16398 9.23064 6.44656 8.87881 7.72465 6.70731C7.84306 6.50607 7.91384 6.3583 8.0132 6.16268C7.60079 5.9361 6.22743 5.42525 5.70476 5.29859C5.47881 5.57724 5.24334 6.46948 4.18168 6.46948C2.11143 6.46948 2.19582 3.06658 3.75973 2.7246C4.8772 2.48114 5.22837 3.06095 5.65576 3.72099C5.95793 3.71395 7.33537 3.22139 7.75459 3.09473C7.86212 3.06236 8.01592 3.06236 8.01592 2.95822C7.86076 2.3784 7.23056 1.44676 6.66842 1.09634C6.0287 0.696659 5.23654 0.457415 4.42531 0.413788H3.87951C2.43537 0.494005 1.01573 1.21033 0.346067 2.75416C0.160956 3.18058 0.00306702 4.06156 0.00306702 4.53582Z" fill="url(#paint6_linear)"/>
<path fill-rule="evenodd" clip-rule="evenodd" d="M12.1973 2.84427C12.7132 2.84427 13.8701 2.68946 14.2676 3.09899C14.7276 3.57326 14.5874 4.51053 13.3053 4.51053H12.2477C12.2477 3.78576 12.2531 3.5423 12.1973 2.84427ZM9.5799 0.499676V8.78315H12.249C12.249 8.48761 12.2477 8.42429 12.2477 8.10623V6.69891C13.4672 6.69891 13.1351 6.45967 14.0267 8.19349C14.1274 8.3877 14.209 8.59035 14.3084 8.78174C14.631 8.78174 14.7249 8.78174 15.0148 8.78597L17.3831 8.78315C17.2933 8.38488 16.5311 7.28717 16.2208 6.7538C16.0996 6.5427 15.9295 6.30205 15.9227 5.96992C16.3528 5.7743 16.6359 5.37181 16.7802 5.08613C17.5261 3.59718 17.2538 1.89714 15.8519 1.04149C14.4105 0.16192 11.3412 0.499676 9.5799 0.499676Z" fill="url(#paint7_linear)"/>
<path fill-rule="evenodd" clip-rule="evenodd" d="M103.364 28.335C100.511 28.335 100.69 27.9325 97.8396 28.3505C95.6278 28.6741 95.9898 28.0141 94.1074 28.5433C93.7168 28.653 93.5153 28.4757 93.0988 28.5039L91.309 28.6052C91.034 27.8002 89.3544 27.6215 89.677 29.4313C88.8821 29.8253 87.242 30.3925 86.5682 31.2721C85.0261 33.2845 83.7793 32.8074 83.9399 33.7574C83.9454 33.7954 83.9835 33.8263 83.9944 33.87C84.0475 34.0811 84.1346 34.3639 84.3115 34.7327C84.4626 35.0451 84.8178 35.2421 85.1962 35.3336C85.1214 35.6024 84.8696 35.6362 84.9267 36.0274C85.0492 36.8901 86.8445 36.5988 87.3141 36.5988C87.7388 36.5988 89.2224 37.3306 90.0227 37.5065C90.5549 37.6219 91.015 37.6542 91.5036 37.8288C92.0549 38.0272 92.2509 38.2636 92.7817 38.4438C94.5607 39.0461 94.1782 38.7505 94.2966 39.6597C94.3456 40.0312 94.3674 40.186 94.4164 40.5477C94.7594 43.0668 95.2834 45.8237 96.2063 48.1388C96.6132 49.1548 97.6191 51.4896 96.7466 52.6028C96.0266 53.5203 95.1527 52.455 94.7744 53.9116C94.7866 54.1466 96.081 54.1916 96.277 54.1818C96.5139 54.1691 96.9358 54.0622 97.2148 54.0396C97.9389 53.9834 98.8427 54.1156 99.4729 53.2304C99.7656 52.7393 99.7628 52.0201 100.088 51.5177C100.373 51.0772 100.608 50.8521 100.726 50.2948C100.846 49.7361 100.972 48.924 101.059 48.3766C101.206 47.4337 101.468 46.5738 101.618 45.7534C101.693 45.3368 101.634 45.1454 101.897 44.947C102.152 45.4691 102.719 46.0953 103.099 46.4852C103.458 46.8539 103.466 46.792 103.668 47.3296C104.32 49.062 105.156 51.2785 105.156 53.2093C105.156 53.9819 104.743 54.2902 104.917 54.8657C105.036 55.1317 105.467 55.2134 105.739 55.2359C105.867 55.2485 105.961 55.2471 105.971 55.2443L106.308 55.2485L107.25 55.2598C107.993 55.2232 108.632 54.9826 108.787 54.2705C108.88 53.8553 108.854 53.6442 108.923 53.412C109.088 53.4753 109.496 53.5654 109.914 53.5035C112.062 53.191 112.591 53.5654 112.898 52.2847C113.072 51.5628 113.047 51.2011 113.388 50.5973C113.639 50.1498 113.997 49.8332 114.2 49.3322C114.423 48.7805 114.336 48.143 114.606 47.5604C115.71 48.1655 115.823 48.9677 115.998 50.5059C116.491 54.0988 115.105 52.6689 115.278 54.2113C115.594 54.7067 117.112 54.5069 117.668 54.4281C119.854 54.1213 119.27 54.3844 119.559 49.9359C119.668 48.257 120.566 45.6028 120.718 43.769C120.929 41.2626 120.991 40.3211 120.63 37.6993C120.186 34.4723 120.032 33.6546 117.723 31.265C116.696 30.2025 116.17 29.5129 114.908 28.7825C112.907 27.6257 110.641 27.4076 108.17 27.4076C107.238 27.4076 106.474 27.6384 105.726 27.8298C105.058 28 104.154 28.335 103.364 28.335ZM109.134 47.846C109.357 48.3302 109.854 48.879 109.985 49.6221C109.978 49.9472 109.926 50.5129 109.865 50.8155C109.676 51.415 109.257 51.4474 108.986 51.9062C109.035 50.5537 109.084 49.1999 109.134 47.846Z" fill="url(#paint8_linear)"/>
<path fill-rule="evenodd" clip-rule="evenodd" d="M58.2906 25.084L58.2933 25.3922L60.2588 25.3908L60.2615 16.8723L65.6909 24.932C66.0816 25.5681 66.0476 25.419 67.9477 25.3866L67.9504 13.233L65.9781 13.2245L65.9795 21.7416C65.7263 21.5334 64.8185 20.0683 64.5422 19.6518C63.4574 18.0179 62.0023 15.9519 61.0006 14.3532C60.7923 14.0211 60.4071 13.544 60.2833 13.2288L58.2892 13.2245L58.2906 25.084Z" fill="url(#paint9_linear)"/>
<path fill-rule="evenodd" clip-rule="evenodd" d="M81.8162 25.084L81.8203 25.3922L90.9874 25.3908L90.9901 23.55L83.8633 23.5148L83.8797 20.05L90.2755 20.0514L90.2537 18.1727L83.8511 18.1741L83.8538 15.1005L90.7056 15.0963L90.7138 13.2302C88.0079 13.1654 84.6065 13.2245 81.8257 13.2245L81.8162 25.084Z" fill="url(#paint10_linear)"/>
<path fill-rule="evenodd" clip-rule="evenodd" d="M25.1 15.1315C25.7479 15.0217 27.2097 15.0949 27.9366 15.1019C28.9452 15.1118 29.6475 15.1512 30.0844 15.8506C30.505 16.5205 30.4383 17.5563 29.9524 18.1263C29.4937 18.6638 28.5872 18.761 27.7106 18.761L25.1014 18.7356L25.1 15.1315ZM23.0652 25.3655L25.0959 25.395L25.1014 20.6679C26.9239 20.3639 28.7369 21.0127 30.5635 20.1598C33.0897 18.9805 33.5688 13.7298 29.05 13.278C28.04 13.1781 23.9512 13.0993 23.0652 13.2569V25.3655Z" fill="url(#paint11_linear)"/>
<path fill-rule="evenodd" clip-rule="evenodd" d="M14.2636 15.1006H16.8593C17.8474 15.1006 18.6573 15.0696 19.1419 15.7099C19.5747 16.2813 19.6686 17.3382 19.2099 18.0067C18.4736 19.0776 15.7745 18.761 14.2718 18.761L14.2596 18.4598L14.2636 15.1006ZM12.2233 25.3557L14.2568 25.3881L14.2596 20.637C15.72 20.637 17.9073 20.7509 19.2126 20.3485C21.6136 19.6068 22.09 16.6852 21.1699 15.0133C20.4921 13.7791 19.3787 13.2992 17.5398 13.2359C16.6919 13.2077 12.7977 13.1191 12.222 13.2696L12.2233 25.3557Z" fill="url(#paint12_linear)"/>
<path fill-rule="evenodd" clip-rule="evenodd" d="M50.1548 20.0965C50.3276 19.4266 50.7196 18.5555 50.9674 17.8814L51.7377 15.6747L53.3752 20.0909L50.1548 20.0965ZM46.0905 25.3922C48.7243 25.3922 48.0832 25.8088 48.8399 23.7091C49.0359 23.163 49.3653 22.3806 49.4756 21.8599H54.0897C54.2408 22.4481 54.5484 23.1236 54.7621 23.6866C55.572 25.8285 54.9173 25.3936 57.6831 25.388C57.3469 24.3283 54.6219 17.8223 53.9781 16.2376C53.7685 15.7211 53.5698 15.2384 53.3534 14.7008C53.2186 14.3645 52.9137 13.3892 52.6565 13.2245H50.8503C50.6284 13.278 50.6502 13.4258 50.4828 13.8747L46.0905 25.3922Z" fill="url(#paint13_linear)"/>
<path fill-rule="evenodd" clip-rule="evenodd" d="M4.07244 20.0683C4.31336 19.3647 4.60872 18.6216 4.87141 17.9095C5.14364 17.1707 5.36686 16.4178 5.65405 15.6634L7.29011 20.0979L4.07244 20.0683ZM0 25.3641L2.16417 25.3936C2.29892 24.9644 3.283 21.933 3.51847 21.8584H7.889C8.13536 22.0527 9.17933 24.925 9.31544 25.3922H11.5967L6.67625 13.2344L4.62778 13.2245L0 25.3641Z" fill="url(#paint14_linear)"/>
<path fill-rule="evenodd" clip-rule="evenodd" d="M80.3855 21.2646L78.4391 20.7481C78.2431 21.1407 78.1737 21.6812 77.99 22.0555C76.7486 24.5971 71.982 24.7547 71.7071 19.7081C71.4035 14.1393 76.3702 13.9536 77.7191 16.0814C77.9954 16.5163 78.0567 16.9329 78.2826 17.3002L80.2235 16.8597C79.0271 11.0812 69.3265 11.6385 69.6137 19.5533C69.8546 26.1508 75.9061 26.5012 78.431 24.614C79.3538 23.9258 80.3474 22.3792 80.3855 21.2646Z" fill="url(#paint15_linear)"/>
<path fill-rule="evenodd" clip-rule="evenodd" d="M33.84 25.3669L41.5942 25.3922L41.5997 25.084L41.5983 23.5163H36.1511L35.8816 23.498L35.8748 23.2137V13.2245L33.8386 13.2302L33.84 25.3669Z" fill="url(#paint16_linear)"/>
<path fill-rule="evenodd" clip-rule="evenodd" d="M43.2091 25.0841L43.2132 25.3923L45.244 25.3866L45.2454 13.257L44.9718 13.2176L43.2091 13.2246V25.0841Z" fill="url(#paint17_linear)"/>
<path fill-rule="evenodd" clip-rule="evenodd" d="M69.7288 34.3822C70.5768 34.3822 72.4742 34.2274 73.1044 34.8706C73.7645 35.5095 73.7809 37.187 71.5269 37.187H69.7384L69.7288 34.3822ZM65.3651 30.6022C65.3651 34.8044 65.3883 38.9912 65.3638 43.1864C65.3638 43.6283 65.3651 44.0336 65.3651 44.1912C65.7217 44.1969 66.7249 44.1983 69.7111 44.1941L69.7928 40.7757C71.7433 40.7757 71.3499 40.5224 72.2687 42.4011L73.1997 44.1941C73.7305 44.1941 73.8557 44.1912 74.3308 44.1969L78.1147 44.1941C76.8801 42.024 76.1533 40.8221 75.5666 39.685C75.6497 39.6526 75.9832 39.5077 76.0607 39.4669C77.2531 38.8209 77.8846 37.1026 77.8846 35.6488C77.8846 29.268 69.8445 30.6022 65.3651 30.6022Z" fill="url(#paint18_linear)"/>
</g>
<defs>
<linearGradient id="paint0_linear" x1="6.3752" y1="30.4862" x2="6.3752" y2="44.1969" gradientUnits="userSpaceOnUse">
<stop stop-color="#666666"/>
<stop offset="1" stop-color="#2B2A29"/>
</linearGradient>
<linearGradient id="paint1_linear" x1="20.8176" y1="30.6064" x2="20.8176" y2="44.1983" gradientUnits="userSpaceOnUse">
<stop stop-color="#666666"/>
<stop offset="1" stop-color="#2B2A29"/>
</linearGradient>
<linearGradient id="paint2_linear" x1="35.3148" y1="30.5025" x2="35.3148" y2="44.1941" gradientUnits="userSpaceOnUse">
<stop stop-color="#666666"/>
<stop offset="1" stop-color="#2B2A29"/>
</linearGradient>
<linearGradient id="paint3_linear" x1="48.5561" y1="30.6118" x2="48.5561" y2="44.1997" gradientUnits="userSpaceOnUse">
<stop stop-color="#666666"/>
<stop offset="1" stop-color="#2B2A29"/>
</linearGradient>
<linearGradient id="paint4_linear" x1="60.1979" y1="30.6078" x2="60.1979" y2="44.1941" gradientUnits="userSpaceOnUse">
<stop stop-color="#666666"/>
<stop offset="1" stop-color="#2B2A29"/>
</linearGradient>
<linearGradient id="paint5_linear" x1="18.1745" y1="2.46063" x2="27.6928" y2="-0.460589" gradientUnits="userSpaceOnUse">
<stop offset="0.0729167" stop-color="#FF756C"/>
<stop offset="1" stop-color="#FF3E3E"/>
</linearGradient>
<linearGradient id="paint6_linear" x1="4.0095" y1="0.413788" x2="4.0095" y2="8.79925" gradientUnits="userSpaceOnUse">
<stop stop-color="#666666"/>
<stop offset="1" stop-color="#2B2A29"/>
</linearGradient>
<linearGradient id="paint7_linear" x1="13.4815" y1="0.435944" x2="13.4815" y2="8.78597" gradientUnits="userSpaceOnUse">
<stop stop-color="#666666"/>
<stop offset="1" stop-color="#2B2A29"/>
</linearGradient>
<linearGradient id="paint8_linear" x1="102.407" y1="27.4076" x2="102.407" y2="55.2598" gradientUnits="userSpaceOnUse">
<stop stop-color="#7C634B"/>
<stop offset="1" stop-color="#322D29"/>
</linearGradient>
<linearGradient id="paint9_linear" x1="63.1198" y1="13.2245" x2="63.1198" y2="25.4249" gradientUnits="userSpaceOnUse">
<stop stop-color="#666666"/>
<stop offset="1" stop-color="#2B2A29"/>
</linearGradient>
<linearGradient id="paint10_linear" x1="86.4031" y1="13.1999" x2="86.4031" y2="25.3922" gradientUnits="userSpaceOnUse">
<stop stop-color="#666666"/>
<stop offset="1" stop-color="#2B2A29"/>
</linearGradient>
<linearGradient id="paint11_linear" x1="27.7641" y1="13.1674" x2="27.7641" y2="25.395" gradientUnits="userSpaceOnUse">
<stop stop-color="#666666"/>
<stop offset="1" stop-color="#2B2A29"/>
</linearGradient>
<linearGradient id="paint12_linear" x1="16.9146" y1="13.1843" x2="16.9146" y2="25.3881" gradientUnits="userSpaceOnUse">
<stop stop-color="#666666"/>
<stop offset="1" stop-color="#2B2A29"/>
</linearGradient>
<linearGradient id="paint13_linear" x1="51.8868" y1="13.2245" x2="51.8868" y2="25.4279" gradientUnits="userSpaceOnUse">
<stop stop-color="#666666"/>
<stop offset="1" stop-color="#2B2A29"/>
</linearGradient>
<linearGradient id="paint14_linear" x1="5.79833" y1="13.2245" x2="5.79833" y2="25.3936" gradientUnits="userSpaceOnUse">
<stop stop-color="#666666"/>
<stop offset="1" stop-color="#2B2A29"/>
</linearGradient>
<linearGradient id="paint15_linear" x1="74.9965" y1="12.999" x2="74.9965" y2="25.6074" gradientUnits="userSpaceOnUse">
<stop stop-color="#666666"/>
<stop offset="1" stop-color="#2B2A29"/>
</linearGradient>
<linearGradient id="paint16_linear" x1="37.7191" y1="13.2245" x2="37.7191" y2="25.3922" gradientUnits="userSpaceOnUse">
<stop stop-color="#666666"/>
<stop offset="1" stop-color="#2B2A29"/>
</linearGradient>
<linearGradient id="paint17_linear" x1="44.2272" y1="13.2176" x2="44.2272" y2="25.3923" gradientUnits="userSpaceOnUse">
<stop stop-color="#666666"/>
<stop offset="1" stop-color="#2B2A29"/>
</linearGradient>
<linearGradient id="paint18_linear" x1="71.7392" y1="30.4862" x2="71.7392" y2="44.1969" gradientUnits="userSpaceOnUse">
<stop stop-color="#666666"/>
<stop offset="1" stop-color="#2B2A29"/>
</linearGradient>
<clipPath id="clip0">
<rect width="121" height="56" fill="white"/>
</clipPath>
</defs>
</svg>
