<svg width="208" height="32" viewBox="0 0 208 32" fill="none" xmlns="http://www.w3.org/2000/svg">
<path d="M64.1212 19.9245V21.9956H55.4492V10.8433H63.9132V12.9144H58.0252V15.3361H63.2252V17.3435H58.0252V19.9245H64.1212ZM76.5516 13.2968C77.6289 13.2968 78.4822 13.6154 79.1116 14.2527C79.7516 14.8793 80.0716 15.8246 80.0716 17.0886V21.9956H77.5756V17.471C77.5756 16.7912 77.4316 16.2866 77.1436 15.9574C76.8662 15.6175 76.4662 15.4476 75.9436 15.4476C75.3569 15.4476 74.8929 15.6388 74.5516 16.0212C74.2102 16.3929 74.0396 16.9505 74.0396 17.694V21.9956H71.5436V17.471C71.5436 16.122 70.9996 15.4476 69.9116 15.4476C69.3356 15.4476 68.8769 15.6388 68.5356 16.0212C68.1942 16.3929 68.0236 16.9505 68.0236 17.694V21.9956H65.5276V13.4243H67.9116V14.412C68.2316 14.0509 68.6209 13.7748 69.0796 13.5836C69.5489 13.3924 70.0609 13.2968 70.6156 13.2968C71.2236 13.2968 71.7729 13.4189 72.2636 13.6632C72.7542 13.8968 73.1489 14.2421 73.4476 14.6988C73.7996 14.2527 74.2422 13.9075 74.7756 13.6632C75.3196 13.4189 75.9116 13.2968 76.5516 13.2968ZM86.9168 13.2968C87.7168 13.2968 88.4421 13.4826 89.0928 13.8544C89.7541 14.2155 90.2715 14.7307 90.6448 15.3998C91.0181 16.0583 91.2048 16.8283 91.2048 17.7099C91.2048 18.5915 91.0181 19.3669 90.6448 20.036C90.2715 20.6945 89.7541 21.2096 89.0928 21.5814C88.4421 21.9425 87.7168 22.1231 86.9168 22.1231C85.8181 22.1231 84.9541 21.7779 84.3248 21.0875V25.0864H81.8288V13.4243H84.2128V14.412C84.8315 13.6685 85.7328 13.2968 86.9168 13.2968ZM86.4848 20.0838C87.1248 20.0838 87.6475 19.8713 88.0528 19.4465C88.4688 19.011 88.6768 18.4322 88.6768 17.7099C88.6768 16.9876 88.4688 16.4141 88.0528 15.9893C87.6475 15.5538 87.1248 15.3361 86.4848 15.3361C85.8448 15.3361 85.3168 15.5538 84.9008 15.9893C84.4955 16.4141 84.2928 16.9876 84.2928 17.7099C84.2928 18.4322 84.4955 19.011 84.9008 19.4465C85.3168 19.8713 85.8448 20.0838 86.4848 20.0838ZM96.4917 22.1231C95.585 22.1231 94.769 21.9372 94.0437 21.5655C93.329 21.1831 92.769 20.6574 92.3637 19.9882C91.9584 19.3191 91.7557 18.5596 91.7557 17.7099C91.7557 16.8602 91.9584 16.1008 92.3637 15.4317C92.769 14.7625 93.329 14.2421 94.0437 13.8703C94.769 13.488 95.585 13.2968 96.4917 13.2968C97.3984 13.2968 98.209 13.488 98.9237 13.8703C99.6384 14.2421 100.198 14.7625 100.604 15.4317C101.009 16.1008 101.212 16.8602 101.212 17.7099C101.212 18.5596 101.009 19.3191 100.604 19.9882C100.198 20.6574 99.6384 21.1831 98.9237 21.5655C98.209 21.9372 97.3984 22.1231 96.4917 22.1231ZM96.4917 20.0838C97.1317 20.0838 97.6544 19.8713 98.0597 19.4465C98.4757 19.011 98.6837 18.4322 98.6837 17.7099C98.6837 16.9876 98.4757 16.4141 98.0597 15.9893C97.6544 15.5538 97.1317 15.3361 96.4917 15.3361C95.8517 15.3361 95.3237 15.5538 94.9077 15.9893C94.4917 16.4141 94.2837 16.9876 94.2837 17.7099C94.2837 18.4322 94.4917 19.011 94.9077 19.4465C95.3237 19.8713 95.8517 20.0838 96.4917 20.0838ZM115.99 13.4243L112.87 21.9956H110.47L108.534 16.6744L106.534 21.9956H104.134L101.03 13.4243H103.382L105.414 19.2235L107.526 13.4243H109.638L111.686 19.2235L113.782 13.4243H115.99ZM124.868 17.7418C124.868 17.7737 124.852 17.9967 124.82 18.411H118.308C118.425 18.942 118.702 19.3615 119.14 19.6696C119.577 19.9776 120.121 20.1316 120.772 20.1316C121.22 20.1316 121.614 20.0679 121.956 19.9404C122.308 19.8023 122.633 19.5899 122.932 19.3031L124.26 20.737C123.449 21.6611 122.265 22.1231 120.708 22.1231C119.737 22.1231 118.878 21.9372 118.132 21.5655C117.385 21.1831 116.809 20.6574 116.404 19.9882C115.998 19.3191 115.796 18.5596 115.796 17.7099C115.796 16.8708 115.993 16.1168 116.388 15.4476C116.793 14.7678 117.342 14.2421 118.036 13.8703C118.74 13.488 119.524 13.2968 120.388 13.2968C121.23 13.2968 121.993 13.4773 122.676 13.8385C123.358 14.1995 123.892 14.72 124.276 15.3998C124.67 16.069 124.868 16.8496 124.868 17.7418ZM120.404 15.1768C119.838 15.1768 119.364 15.3361 118.98 15.6547C118.596 15.9734 118.361 16.4088 118.276 16.9611H122.516C122.43 16.4195 122.196 15.9893 121.812 15.6707C121.428 15.3414 120.958 15.1768 120.404 15.1768ZM128.433 14.5554C128.732 14.1412 129.132 13.8278 129.633 13.6154C130.145 13.4029 130.732 13.2968 131.393 13.2968V15.591C131.116 15.5697 130.929 15.5591 130.833 15.5591C130.119 15.5591 129.559 15.7609 129.153 16.1645C128.748 16.5575 128.545 17.1523 128.545 17.9489V21.9956H126.049V13.4243H128.433V14.5554ZM143.421 13.2968C144.499 13.2968 145.352 13.6154 145.981 14.2527C146.621 14.8793 146.941 15.8246 146.941 17.0886V21.9956H144.445V17.471C144.445 16.7912 144.301 16.2866 144.013 15.9574C143.736 15.6175 143.336 15.4476 142.813 15.4476C142.227 15.4476 141.763 15.6388 141.421 16.0212C141.08 16.3929 140.909 16.9505 140.909 17.694V21.9956H138.413V17.471C138.413 16.122 137.869 15.4476 136.781 15.4476C136.205 15.4476 135.747 15.6388 135.405 16.0212C135.064 16.3929 134.893 16.9505 134.893 17.694V21.9956H132.397V13.4243H134.781V14.412C135.101 14.0509 135.491 13.7748 135.949 13.5836C136.419 13.3924 136.931 13.2968 137.485 13.2968C138.093 13.2968 138.643 13.4189 139.133 13.6632C139.624 13.8968 140.019 14.2421 140.317 14.6988C140.669 14.2527 141.112 13.9075 141.645 13.6632C142.189 13.4189 142.781 13.2968 143.421 13.2968ZM157.224 17.7418C157.224 17.7737 157.208 17.9967 157.176 18.411H150.664C150.782 18.942 151.059 19.3615 151.496 19.6696C151.934 19.9776 152.478 20.1316 153.128 20.1316C153.576 20.1316 153.971 20.0679 154.312 19.9404C154.664 19.8023 154.99 19.5899 155.288 19.3031L156.616 20.737C155.806 21.6611 154.622 22.1231 153.064 22.1231C152.094 22.1231 151.235 21.9372 150.488 21.5655C149.742 21.1831 149.166 20.6574 148.76 19.9882C148.355 19.3191 148.152 18.5596 148.152 17.7099C148.152 16.8708 148.35 16.1168 148.744 15.4476C149.15 14.7678 149.699 14.2421 150.392 13.8703C151.096 13.488 151.88 13.2968 152.744 13.2968C153.587 13.2968 154.35 13.4773 155.032 13.8385C155.715 14.1995 156.248 14.72 156.632 15.3998C157.027 16.069 157.224 16.8496 157.224 17.7418ZM152.76 15.1768C152.195 15.1768 151.72 15.3361 151.336 15.6547C150.952 15.9734 150.718 16.4088 150.632 16.9611H154.872C154.787 16.4195 154.552 15.9893 154.168 15.6707C153.784 15.3414 153.315 15.1768 152.76 15.1768ZM163.638 13.2968C164.705 13.2968 165.564 13.6154 166.214 14.2527C166.876 14.89 167.206 15.8353 167.206 17.0886V21.9956H164.71V17.471C164.71 16.7912 164.561 16.2866 164.262 15.9574C163.964 15.6175 163.532 15.4476 162.966 15.4476C162.337 15.4476 161.836 15.6441 161.462 16.0371C161.089 16.4195 160.902 16.993 160.902 17.7577V21.9956H158.406V13.4243H160.79V14.428C161.121 14.0668 161.532 13.7907 162.022 13.5995C162.513 13.3977 163.052 13.2968 163.638 13.2968ZM174.541 21.5814C174.295 21.7619 173.991 21.9001 173.629 21.9956C173.277 22.0806 172.903 22.1231 172.509 22.1231C171.485 22.1231 170.69 21.8628 170.125 21.3424C169.57 20.822 169.293 20.0572 169.293 19.0482V15.5273H167.965V13.6154H169.293V11.5283H171.789V13.6154H173.933V15.5273H171.789V19.0164C171.789 19.3774 171.879 19.6589 172.061 19.8608C172.253 20.0519 172.519 20.1475 172.861 20.1475C173.255 20.1475 173.591 20.0413 173.869 19.8289L174.541 21.5814ZM179.689 10.8433H182.281V19.8926H187.897V21.9956H179.689V10.8433ZM192.255 13.2968C193.588 13.2968 194.612 13.6154 195.327 14.2527C196.042 14.8793 196.399 15.83 196.399 17.1045V21.9956H194.063V20.9282C193.594 21.7248 192.719 22.1231 191.439 22.1231C190.778 22.1231 190.202 22.0116 189.711 21.7885C189.231 21.5655 188.863 21.2574 188.607 20.8645C188.351 20.4715 188.223 20.0254 188.223 19.5262C188.223 18.7296 188.522 18.1029 189.119 17.6462C189.727 17.1895 190.66 16.9611 191.919 16.9611H193.903C193.903 16.4195 193.738 16.0052 193.407 15.7185C193.076 15.421 192.58 15.2724 191.919 15.2724C191.46 15.2724 191.007 15.3466 190.559 15.4954C190.122 15.6334 189.748 15.8246 189.439 16.069L188.543 14.3324C189.012 14.0031 189.572 13.7482 190.223 13.5676C190.884 13.387 191.562 13.2968 192.255 13.2968ZM192.063 20.4502C192.49 20.4502 192.868 20.3547 193.199 20.1635C193.53 19.9616 193.764 19.6696 193.903 19.2872V18.411H192.191C191.167 18.411 190.655 18.7455 190.655 19.4147C190.655 19.7333 190.778 19.9882 191.023 20.1794C191.279 20.3599 191.626 20.4502 192.063 20.4502ZM203.266 13.2968C204.066 13.2968 204.791 13.4826 205.442 13.8544C206.103 14.2155 206.621 14.7307 206.994 15.3998C207.367 16.0583 207.554 16.8283 207.554 17.7099C207.554 18.5915 207.367 19.3669 206.994 20.036C206.621 20.6945 206.103 21.2096 205.442 21.5814C204.791 21.9425 204.066 22.1231 203.266 22.1231C202.082 22.1231 201.181 21.7513 200.562 21.0079V21.9956H198.178V10.1741H200.674V14.3324C201.303 13.6419 202.167 13.2968 203.266 13.2968ZM202.834 20.0838C203.474 20.0838 203.997 19.8713 204.402 19.4465C204.818 19.011 205.026 18.4322 205.026 17.7099C205.026 16.9876 204.818 16.4141 204.402 15.9893C203.997 15.5538 203.474 15.3361 202.834 15.3361C202.194 15.3361 201.666 15.5538 201.25 15.9893C200.845 16.4141 200.642 16.9876 200.642 17.7099C200.642 18.4322 200.845 19.011 201.25 19.4465C201.666 19.8713 202.194 20.0838 202.834 20.0838Z" fill="white"/>
<path fill-rule="evenodd" clip-rule="evenodd" d="M20.1014 0.391418C13.0922 0.391418 7.41016 6.04934 7.41016 13.0287V28.6007C7.41016 29.2248 7.9182 29.7306 8.5449 29.7306H16.1563C16.2827 29.8923 16.4196 30.0468 16.5666 30.1932C17.504 31.1266 18.7754 31.651 20.1011 31.651C21.4268 31.651 22.6982 31.1266 23.6356 30.1932C23.7826 30.0468 23.9195 29.8923 24.0459 29.7306H31.6579C32.2846 29.7306 32.7927 29.2248 32.7927 28.6007V13.0287C32.7927 6.04933 27.1106 0.391418 20.1014 0.391418Z" fill="#855CFE"/>
<path fill-rule="evenodd" clip-rule="evenodd" d="M23.5627 8.28293L20.1346 5.12067L16.7064 8.28293H23.5627ZM13.3001 9.11984C12.0467 9.11984 11.0306 10.1316 11.0306 11.3797V15.8242C11.0306 17.0723 12.0467 18.084 13.3001 18.084H26.9686C28.222 18.084 29.238 17.0723 29.238 15.8242V11.3797C29.238 10.1316 28.2219 9.11984 26.9685 9.11984H13.3001ZM14.6424 11.1199C13.7023 11.1199 12.9403 11.8787 12.9403 12.8147V14.101C12.9403 15.0371 13.7023 15.7958 14.6424 15.7958H25.608C26.5481 15.7958 27.3102 15.0371 27.3102 14.101V12.8147C27.3102 11.8787 26.5481 11.1199 25.608 11.1199H14.6424ZM13.2523 18.6731C13.2523 20.4907 13.9774 22.2337 15.2681 23.5189C16.5588 24.8041 18.3093 25.5262 20.1346 25.5262C21.9599 25.5262 23.7104 24.8041 25.0011 23.5189C26.2918 22.2337 27.0168 20.4907 27.0168 18.6731H20.1346H13.2523ZM21.6112 21.7517C21.6112 23.0187 20.8548 24.0458 19.9217 24.0458C18.9886 24.0458 18.2322 23.0187 18.2322 21.7517C18.2322 20.4847 18.9886 19.4576 19.9217 19.4576C20.8548 19.4576 21.6112 20.4847 21.6112 21.7517ZM19.8903 22.9734C20.381 22.9734 20.7787 22.4536 20.7787 21.8124C20.7787 21.1714 20.381 20.6516 19.8903 20.6516C19.3996 20.6516 19.0018 21.1714 19.0018 21.8124C19.0018 22.4536 19.3996 22.9734 19.8903 22.9734ZM17.688 29.1062C18.3964 29.6492 19.2691 29.9482 20.1727 29.9482C21.0443 29.9482 21.8871 29.67 22.5814 29.163C22.1564 28.6921 21.8439 28.1243 21.6763 27.5013C21.5338 26.9719 21.5019 26.4247 21.5764 25.8922H20.1727H18.6427C18.7172 26.4247 18.6854 26.9719 18.5429 27.5013C18.3819 28.0995 18.0874 28.6467 17.688 29.1062ZM10.2958 13.6019C9.85063 13.6019 9.42366 13.778 9.10885 14.0915C8.79404 14.405 8.61719 14.8301 8.61719 15.2734C8.61719 15.7168 8.79404 16.1419 9.10885 16.4554C9.42366 16.7689 9.85063 16.9449 10.2958 16.9449V15.2734V13.6019ZM29.9738 13.6019C30.419 13.6019 30.846 13.778 31.1608 14.0915C31.4756 14.405 31.6524 14.8301 31.6524 15.2734C31.6524 15.7168 31.4756 16.1419 31.1608 16.4554C30.846 16.7689 30.419 16.9449 29.9738 16.9449V15.2734V13.6019Z" fill="white"/>
<path d="M4.01376 12.1024H0.961037C0.430271 12.1024 0 12.531 0 13.0597C0 13.5885 0.430271 14.0171 0.961037 14.0171H4.01376C4.54453 14.0171 4.9748 13.5885 4.9748 13.0597C4.9748 12.531 4.54453 12.1024 4.01376 12.1024Z" fill="#855CFE"/>
<path d="M4.37529 8.48059L1.4264 7.6938C0.913683 7.557 0.386585 7.86032 0.24909 8.37127C0.111595 8.88223 0.41577 9.40734 0.928484 9.54413L3.87738 10.3309C4.39009 10.4677 4.91719 10.1644 5.05469 9.65345C5.19218 9.1425 4.88801 8.61739 4.37529 8.48059Z" fill="#855CFE"/>
<path d="M4.37529 17.6384L1.4264 18.4252C0.913683 18.562 0.386585 18.2587 0.24909 17.7477C0.111595 17.2368 0.41577 16.7117 0.928483 16.5749L3.87738 15.7881C4.39009 15.6513 4.91719 15.9546 5.05468 16.4656C5.19218 16.9765 4.88801 17.5016 4.37529 17.6384Z" fill="#855CFE"/>
<path d="M36.4355 12.1026H39.4882C40.0189 12.1026 40.4492 12.5314 40.4492 13.0605C40.4492 13.5895 40.0189 14.0183 39.4882 14.0183H36.4355C35.9047 14.0183 35.4744 13.5895 35.4744 13.0605C35.4744 12.5314 35.9047 12.1026 36.4355 12.1026Z" fill="#855CFE"/>
<path d="M36.0739 8.48059L39.0228 7.6938C39.5355 7.557 40.0626 7.86032 40.2001 8.37127C40.3376 8.88223 40.0334 9.40734 39.5207 9.54413L36.5718 10.3309C36.0591 10.4677 35.532 10.1644 35.3945 9.65345C35.2571 9.1425 35.5612 8.61739 36.0739 8.48059Z" fill="#855CFE"/>
<path d="M36.0739 17.6384L39.0228 18.4252C39.5355 18.562 40.0626 18.2587 40.2001 17.7477C40.3376 17.2368 40.0334 16.7117 39.5207 16.5749L36.5718 15.7881C36.0591 15.6513 35.532 15.9546 35.3945 16.4656C35.2571 16.9765 35.5612 17.5016 36.0739 17.6384Z" fill="#855CFE"/>
</svg>
