<svg width="318" height="97" viewBox="0 0 318 97" fill="none" xmlns="http://www.w3.org/2000/svg">
<g filter="url(#filter0_dd)">
<path d="M24.0491 44.773L24.0525 44.7761C27.1819 47.6286 32.1203 50.0008 38.8092 51.9235C44.1126 53.458 47.6973 55.0005 49.6376 56.5269L49.6409 56.5294C51.5235 57.9853 52.4796 60.0538 52.4796 62.8063C52.4796 65.5442 51.4534 67.6718 49.4002 69.2434C47.3373 70.8225 44.3212 71.6477 40.2818 71.6477C35.9647 71.6477 32.5659 70.642 30.0359 68.6809C27.5506 66.707 26.3047 64.0392 26.3047 60.6226V60.1226H25.8047H18H17.5V60.6226C17.5 64.1446 18.4727 67.3054 20.4211 70.089L20.423 70.0917C22.3968 72.8716 25.1821 75.054 28.7552 76.6482L28.7582 76.6495C32.3297 78.2155 36.1728 78.9966 40.2818 78.9966C46.5836 78.9966 51.6758 77.5504 55.5084 74.6066L55.5102 74.6052C59.3546 71.6243 61.2843 67.6493 61.2843 62.7254C61.2843 59.6564 60.5925 56.9624 59.1904 54.6622C57.8175 52.3656 55.7015 50.3848 52.873 48.7092C50.0685 47.005 46.1926 45.4674 41.266 44.0869C36.4048 42.7171 33.0221 41.23 31.054 39.6515C29.1367 38.0654 28.2053 36.167 28.2053 33.9329C28.2053 31.0755 29.2135 28.8962 31.2087 27.3303L31.2094 27.3298C33.2489 25.7236 36.1179 24.8893 39.8774 24.8893C43.9223 24.8893 46.9815 25.8932 49.126 27.8335L49.1285 27.8357C51.2682 29.7462 52.3583 32.3904 52.3583 35.8335V36.3335H52.8583H60.663H61.163V35.8335C61.163 32.477 60.26 29.3783 58.4572 26.5486C56.6781 23.7138 54.1516 21.4975 50.8959 19.8971C47.6632 18.2947 43.9866 17.5 39.8774 17.5C33.8588 17.5 28.9128 19.0473 25.0837 22.1826C21.2781 25.2938 19.3602 29.2623 19.3602 34.0542C19.3602 38.292 20.9284 41.8752 24.0491 44.773Z" stroke="#FF8A00"/>
</g>
<g filter="url(#filter1_dd)">
<path d="M56.6072 45.18L52.7251 39.1411H60.4894L56.6072 45.18Z" stroke="#FF8A00"/>
</g>
<mask id="path-3-outside-1" maskUnits="userSpaceOnUse" x="69.9189" y="30.2299" width="248" height="49" fill="black">
<rect fill="white" x="69.9189" y="30.2299" width="248" height="49"/>
<path d="M76.1622 44.8324L76.312 48.4277C78.6889 45.6313 81.8948 44.2331 85.9296 44.2331C90.4638 44.2331 93.5498 45.9709 95.1877 49.4464C96.2663 47.8884 97.6645 46.63 99.3823 45.6713C101.12 44.7125 103.167 44.2331 105.524 44.2331C112.635 44.2331 116.251 47.9983 116.37 55.5286V77.2506H110.828V55.8582C110.828 53.5411 110.298 51.8134 109.24 50.6748C108.181 49.5163 106.403 48.9371 103.906 48.9371C101.849 48.9371 100.141 49.5563 98.7831 50.7947C97.4248 52.0131 96.6358 53.661 96.4161 55.7383V77.2506H90.8433V56.008C90.8433 51.294 88.5363 48.9371 83.9222 48.9371C80.2869 48.9371 77.8001 50.4851 76.4618 53.5811V77.2506H70.9189V44.8324H76.1622Z"/>
<path d="M144.774 77.2506C144.454 76.6115 144.195 75.4729 143.995 73.835C141.418 76.5116 138.342 77.8499 134.767 77.8499C131.571 77.8499 128.944 76.951 126.887 75.1533C124.85 73.3357 123.831 71.0386 123.831 68.2622C123.831 64.8865 125.109 62.2699 127.666 60.4123C130.243 58.5347 133.858 57.5959 138.512 57.5959H143.905V55.0492C143.905 53.1117 143.326 51.5737 142.167 50.4351C141.009 49.2766 139.301 48.6974 137.044 48.6974C135.066 48.6974 133.409 49.1967 132.07 50.1954C130.732 51.1942 130.063 52.4026 130.063 53.8208H124.49C124.49 52.2029 125.059 50.6449 126.198 49.1468C127.356 47.6288 128.914 46.4303 130.872 45.5514C132.849 44.6726 135.016 44.2331 137.373 44.2331C141.109 44.2331 144.035 45.1719 146.152 47.0495C148.269 48.9071 149.368 51.4738 149.448 54.7496V69.6704C149.448 72.6466 149.827 75.0135 150.586 76.7712V77.2506H144.774ZM135.576 73.0261C137.313 73.0261 138.961 72.5766 140.519 71.6778C142.077 70.779 143.206 69.6105 143.905 68.1723V61.5209H139.561C132.769 61.5209 129.374 63.5083 129.374 67.4832C129.374 69.221 129.953 70.5792 131.111 71.558C132.27 72.5367 133.758 73.0261 135.576 73.0261Z"/>
<path d="M173.807 49.806C172.968 49.6661 172.059 49.5962 171.08 49.5962C167.445 49.5962 164.978 51.1442 163.68 54.2402V77.2506H158.137V44.8324H163.53L163.62 48.5775C165.437 45.6813 168.014 44.2331 171.35 44.2331C172.428 44.2331 173.247 44.3729 173.807 44.6526V49.806Z"/>
<path d="M187.948 36.9825V44.8324H194.001V49.1168H187.948V69.221C187.948 70.5193 188.218 71.498 188.757 72.1572C189.297 72.7964 190.215 73.116 191.514 73.116C192.153 73.116 193.032 72.9961 194.15 72.7564V77.2506C192.692 77.6501 191.274 77.8499 189.896 77.8499C187.419 77.8499 185.551 77.1008 184.293 75.6027C183.035 74.1047 182.405 71.9774 182.405 69.221V49.1168H176.503V44.8324H182.405V36.9825H187.948Z"/>
<path d="M223.243 36.9825V44.8324H229.295V49.1168H223.243V69.221C223.243 70.5193 223.513 71.498 224.052 72.1572C224.591 72.7964 225.51 73.116 226.808 73.116C227.447 73.116 228.326 72.9961 229.445 72.7564V77.2506C227.987 77.6501 226.569 77.8499 225.19 77.8499C222.714 77.8499 220.846 77.1008 219.588 75.6027C218.329 74.1047 217.7 71.9774 217.7 69.221V49.1168H211.798V44.8324H217.7V36.9825H223.243Z"/>
<path d="M251.467 49.806C250.628 49.6661 249.719 49.5962 248.74 49.5962C245.105 49.5962 242.638 51.1442 241.34 54.2402V77.2506H235.797V44.8324H241.19L241.28 48.5775C243.097 45.6813 245.674 44.2331 249.01 44.2331C250.088 44.2331 250.907 44.3729 251.467 44.6526V49.806Z"/>
<path d="M269.443 77.8499C265.049 77.8499 261.474 76.4117 258.717 73.5354C255.961 70.6391 254.583 66.7741 254.583 61.9403V60.9216C254.583 57.7058 255.192 54.8395 256.41 52.3227C257.649 49.786 259.366 47.8085 261.564 46.3903C263.781 44.9522 266.178 44.2331 268.754 44.2331C272.969 44.2331 276.245 45.6213 278.582 48.3978C280.919 51.1742 282.087 55.1491 282.087 60.3224V62.6294H260.125C260.205 65.8253 261.134 68.412 262.912 70.3895C264.71 72.3469 266.987 73.3257 269.743 73.3257C271.701 73.3257 273.358 72.9262 274.717 72.1272C276.075 71.3283 277.263 70.2696 278.282 68.9513L281.668 71.5879C278.951 75.7625 274.876 77.8499 269.443 77.8499ZM268.754 48.7873C266.517 48.7873 264.64 49.6062 263.122 51.2441C261.604 52.862 260.665 55.1391 260.305 58.0753H276.544V57.6558C276.384 54.8395 275.625 52.6623 274.267 51.1243C272.909 49.5663 271.071 48.7873 268.754 48.7873Z"/>
<path d="M297.577 62.2399L294.102 65.8653V77.2506H288.559V31.2299H294.102V59.064L297.068 55.4986L307.165 44.8324H313.906L301.292 58.3749L315.374 77.2506H308.873L297.577 62.2399Z"/>
</mask>
<path d="M76.1622 44.8324L76.312 48.4277C78.6889 45.6313 81.8948 44.2331 85.9296 44.2331C90.4638 44.2331 93.5498 45.9709 95.1877 49.4464C96.2663 47.8884 97.6645 46.63 99.3823 45.6713C101.12 44.7125 103.167 44.2331 105.524 44.2331C112.635 44.2331 116.251 47.9983 116.37 55.5286V77.2506H110.828V55.8582C110.828 53.5411 110.298 51.8134 109.24 50.6748C108.181 49.5163 106.403 48.9371 103.906 48.9371C101.849 48.9371 100.141 49.5563 98.7831 50.7947C97.4248 52.0131 96.6358 53.661 96.4161 55.7383V77.2506H90.8433V56.008C90.8433 51.294 88.5363 48.9371 83.9222 48.9371C80.2869 48.9371 77.8001 50.4851 76.4618 53.5811V77.2506H70.9189V44.8324H76.1622Z" stroke="white" stroke-width="2" mask="url(#path-3-outside-1)"/>
<path d="M144.774 77.2506C144.454 76.6115 144.195 75.4729 143.995 73.835C141.418 76.5116 138.342 77.8499 134.767 77.8499C131.571 77.8499 128.944 76.951 126.887 75.1533C124.85 73.3357 123.831 71.0386 123.831 68.2622C123.831 64.8865 125.109 62.2699 127.666 60.4123C130.243 58.5347 133.858 57.5959 138.512 57.5959H143.905V55.0492C143.905 53.1117 143.326 51.5737 142.167 50.4351C141.009 49.2766 139.301 48.6974 137.044 48.6974C135.066 48.6974 133.409 49.1967 132.07 50.1954C130.732 51.1942 130.063 52.4026 130.063 53.8208H124.49C124.49 52.2029 125.059 50.6449 126.198 49.1468C127.356 47.6288 128.914 46.4303 130.872 45.5514C132.849 44.6726 135.016 44.2331 137.373 44.2331C141.109 44.2331 144.035 45.1719 146.152 47.0495C148.269 48.9071 149.368 51.4738 149.448 54.7496V69.6704C149.448 72.6466 149.827 75.0135 150.586 76.7712V77.2506H144.774ZM135.576 73.0261C137.313 73.0261 138.961 72.5766 140.519 71.6778C142.077 70.779 143.206 69.6105 143.905 68.1723V61.5209H139.561C132.769 61.5209 129.374 63.5083 129.374 67.4832C129.374 69.221 129.953 70.5792 131.111 71.558C132.27 72.5367 133.758 73.0261 135.576 73.0261Z" stroke="white" stroke-width="2" mask="url(#path-3-outside-1)"/>
<path d="M173.807 49.806C172.968 49.6661 172.059 49.5962 171.08 49.5962C167.445 49.5962 164.978 51.1442 163.68 54.2402V77.2506H158.137V44.8324H163.53L163.62 48.5775C165.437 45.6813 168.014 44.2331 171.35 44.2331C172.428 44.2331 173.247 44.3729 173.807 44.6526V49.806Z" stroke="white" stroke-width="2" mask="url(#path-3-outside-1)"/>
<path d="M187.948 36.9825V44.8324H194.001V49.1168H187.948V69.221C187.948 70.5193 188.218 71.498 188.757 72.1572C189.297 72.7964 190.215 73.116 191.514 73.116C192.153 73.116 193.032 72.9961 194.15 72.7564V77.2506C192.692 77.6501 191.274 77.8499 189.896 77.8499C187.419 77.8499 185.551 77.1008 184.293 75.6027C183.035 74.1047 182.405 71.9774 182.405 69.221V49.1168H176.503V44.8324H182.405V36.9825H187.948Z" stroke="white" stroke-width="2" mask="url(#path-3-outside-1)"/>
<path d="M223.243 36.9825V44.8324H229.295V49.1168H223.243V69.221C223.243 70.5193 223.513 71.498 224.052 72.1572C224.591 72.7964 225.51 73.116 226.808 73.116C227.447 73.116 228.326 72.9961 229.445 72.7564V77.2506C227.987 77.6501 226.569 77.8499 225.19 77.8499C222.714 77.8499 220.846 77.1008 219.588 75.6027C218.329 74.1047 217.7 71.9774 217.7 69.221V49.1168H211.798V44.8324H217.7V36.9825H223.243Z" stroke="white" stroke-width="2" mask="url(#path-3-outside-1)"/>
<path d="M251.467 49.806C250.628 49.6661 249.719 49.5962 248.74 49.5962C245.105 49.5962 242.638 51.1442 241.34 54.2402V77.2506H235.797V44.8324H241.19L241.28 48.5775C243.097 45.6813 245.674 44.2331 249.01 44.2331C250.088 44.2331 250.907 44.3729 251.467 44.6526V49.806Z" stroke="white" stroke-width="2" mask="url(#path-3-outside-1)"/>
<path d="M269.443 77.8499C265.049 77.8499 261.474 76.4117 258.717 73.5354C255.961 70.6391 254.583 66.7741 254.583 61.9403V60.9216C254.583 57.7058 255.192 54.8395 256.41 52.3227C257.649 49.786 259.366 47.8085 261.564 46.3903C263.781 44.9522 266.178 44.2331 268.754 44.2331C272.969 44.2331 276.245 45.6213 278.582 48.3978C280.919 51.1742 282.087 55.1491 282.087 60.3224V62.6294H260.125C260.205 65.8253 261.134 68.412 262.912 70.3895C264.71 72.3469 266.987 73.3257 269.743 73.3257C271.701 73.3257 273.358 72.9262 274.717 72.1272C276.075 71.3283 277.263 70.2696 278.282 68.9513L281.668 71.5879C278.951 75.7625 274.876 77.8499 269.443 77.8499ZM268.754 48.7873C266.517 48.7873 264.64 49.6062 263.122 51.2441C261.604 52.862 260.665 55.1391 260.305 58.0753H276.544V57.6558C276.384 54.8395 275.625 52.6623 274.267 51.1243C272.909 49.5663 271.071 48.7873 268.754 48.7873Z" stroke="white" stroke-width="2" mask="url(#path-3-outside-1)"/>
<path d="M297.577 62.2399L294.102 65.8653V77.2506H288.559V31.2299H294.102V59.064L297.068 55.4986L307.165 44.8324H313.906L301.292 58.3749L315.374 77.2506H308.873L297.577 62.2399Z" stroke="white" stroke-width="2" mask="url(#path-3-outside-1)"/>
<defs>
<filter id="filter0_dd" x="0" y="0" width="78.7843" height="96.4966" filterUnits="userSpaceOnUse" color-interpolation-filters="sRGB">
<feFlood flood-opacity="0" result="BackgroundImageFix"/>
<feColorMatrix in="SourceAlpha" type="matrix" values="0 0 0 0 0 0 0 0 0 0 0 0 0 0 0 0 0 0 127 0"/>
<feOffset/>
<feGaussianBlur stdDeviation="1.5"/>
<feColorMatrix type="matrix" values="0 0 0 0 1 0 0 0 0 0.54 0 0 0 0 0 0 0 0 1 0"/>
<feBlend mode="normal" in2="BackgroundImageFix" result="effect1_dropShadow"/>
<feColorMatrix in="SourceAlpha" type="matrix" values="0 0 0 0 0 0 0 0 0 0 0 0 0 0 0 0 0 0 127 0"/>
<feOffset/>
<feGaussianBlur stdDeviation="8.5"/>
<feColorMatrix type="matrix" values="0 0 0 0 1 0 0 0 0 0.54 0 0 0 0 0 0 0 0 1 0"/>
<feBlend mode="normal" in2="effect1_dropShadow" result="effect2_dropShadow"/>
<feBlend mode="normal" in="SourceGraphic" in2="effect2_dropShadow" result="shape"/>
</filter>
<filter id="filter1_dd" x="34.8091" y="21.6411" width="43.5959" height="41.4635" filterUnits="userSpaceOnUse" color-interpolation-filters="sRGB">
<feFlood flood-opacity="0" result="BackgroundImageFix"/>
<feColorMatrix in="SourceAlpha" type="matrix" values="0 0 0 0 0 0 0 0 0 0 0 0 0 0 0 0 0 0 127 0"/>
<feOffset/>
<feGaussianBlur stdDeviation="1.5"/>
<feColorMatrix type="matrix" values="0 0 0 0 1 0 0 0 0 0.54 0 0 0 0 0 0 0 0 1 0"/>
<feBlend mode="normal" in2="BackgroundImageFix" result="effect1_dropShadow"/>
<feColorMatrix in="SourceAlpha" type="matrix" values="0 0 0 0 0 0 0 0 0 0 0 0 0 0 0 0 0 0 127 0"/>
<feOffset/>
<feGaussianBlur stdDeviation="8.5"/>
<feColorMatrix type="matrix" values="0 0 0 0 1 0 0 0 0 0.54 0 0 0 0 0 0 0 0 1 0"/>
<feBlend mode="normal" in2="effect1_dropShadow" result="effect2_dropShadow"/>
<feBlend mode="normal" in="SourceGraphic" in2="effect2_dropShadow" result="shape"/>
</filter>
</defs>
</svg>
