<svg width="221" height="27" viewBox="0 0 221 27" fill="none" xmlns="http://www.w3.org/2000/svg">
<path d="M29.152 0.791998H20.332V15.012C20.332 17.028 18.676 18.684 16.66 18.684H13.384C11.62 18.684 10.144 17.424 9.784 15.768H0.892V18.18C0.892 20.628 1.864 22.824 3.448 24.444C5.068 26.028 7.264 27 9.712 27H20.332C22.78 27 24.976 26.028 26.56 24.444C28.18 22.824 29.152 20.628 29.152 18.18V0.791998ZM46.2039 0.0359995C37.3119 0.0359995 30.1119 6.084 30.1119 13.536C30.1119 20.988 37.3119 27 46.2039 27C55.0959 27 62.3319 20.988 62.3319 13.536C62.3319 6.084 55.0959 0.0359995 46.2039 0.0359995ZM46.2039 18C43.1079 18 40.5879 16.02 40.5879 13.536C40.5879 11.052 43.1079 9.036 46.2039 9.036C49.2999 9.036 51.8199 11.052 51.8199 13.536C51.8199 16.02 49.2999 18 46.2039 18ZM86.2123 0.791998V14.076L73.4683 0.791998H63.5683V27H73.4683V13.644L86.2123 27H96.0763V0.791998H86.2123ZM125.808 7.848V0.791998H98.2675V27H125.808V19.944H109.644V17.424H125.808V10.368H109.644V7.848H125.808ZM156.668 5.292C156.668 2.808 154.688 0.791998 152.204 0.791998H131.9C129.416 0.791998 127.436 2.808 127.436 5.292C127.436 5.436 127.436 5.58 127.436 5.724V7.416C127.436 11.052 130.064 12.384 133.952 13.968L145.256 18.072H127.436V22.536C127.436 25.02 129.416 27 131.9 27H152.204C154.688 27 156.668 25.02 156.668 22.536C156.668 22.428 156.668 22.32 156.668 22.212V20.484C156.668 16.884 154.004 15.552 150.152 13.968L138.56 9.756H156.668V5.292ZM185.925 7.848V0.791998H158.385V27H185.925V19.944H169.761V17.424H185.925V10.368H169.761V7.848H185.925ZM214.733 16.416C216.281 15.084 217.289 13.068 217.289 10.872V8.172C217.289 4.104 213.977 0.791998 209.909 0.791998H188.021V27H196.841V18.216H206.597L211.097 27H220.169L214.733 16.416ZM208.973 9.324C208.973 10.188 207.569 10.872 205.877 10.872H196.841V7.56H205.877C207.569 7.56 208.973 8.244 208.973 9.108V9.324Z" fill="#D01A1A"/>
</svg>
