<svg width="160" height="11" viewBox="0 0 160 11" fill="none" xmlns="http://www.w3.org/2000/svg">
<g clip-path="url(#clip0_403_240)">
<path d="M6.40993 8.76661C3.75787 8.76661 2.62395 7.82948 2.62395 5.70689C2.62395 3.5843 3.7485 2.67998 6.40993 2.67998C8.59343 2.67998 9.85855 3.32191 10.1069 4.96656H12.773C12.5106 2.02399 10.4724 0.482422 6.40993 0.482422C1.92111 0.482422 0 2.32856 0 5.70689C0 9.08523 1.92111 10.9642 6.40993 10.9642C10.4724 10.9642 12.5012 9.40854 12.773 6.45191H10.1069C9.83981 8.11062 8.57938 8.76661 6.40993 8.76661Z" fill="#4FA778"/>
<path d="M20.7996 0.62793H17.2573L12 10.8192H14.8863L15.9781 8.64972H22.0694L23.1612 10.8192H26.0616L20.7996 0.62793ZM16.9527 6.71924L19.0378 2.58184L21.0854 6.7005L16.9527 6.71924Z" fill="#4FA778"/>
<path d="M37.2132 0.62793V8.28893L30.2503 0.62793H26.708V10.8192H29.3273V3.17691L36.2667 10.8192H39.8278V0.62793H37.2132Z" fill="#4FA778"/>
<path d="M51.5136 0.62793V8.28893L44.5507 0.62793H40.999V10.8192H43.6183V3.17691L50.5671 10.8192H54.1328V0.62793H51.5136Z" fill="#4FA778"/>
<path d="M80.6584 5.28505C81.162 4.74285 81.4474 4.03358 81.4597 3.29366C81.4597 1.79426 80.7427 0.618164 78.4281 0.618164H69.4551V10.8188H78.7795C81.0942 10.8188 82.0969 9.56771 82.0969 7.84808C82.1087 7.33119 81.9814 6.82063 81.7283 6.36976C81.4753 5.91889 81.1058 5.54427 80.6584 5.28505ZM72.079 2.52053H77.4816C78.1938 2.52053 78.8357 2.52053 78.8357 3.56542C78.8357 4.61032 78.1938 4.62906 77.4956 4.62906H72.079V2.52053ZM78.1375 8.79458H72.079V6.63919H78.1375C78.8357 6.63919 79.4776 6.63919 79.4776 7.71689C79.4776 8.79458 78.8357 8.79458 78.1375 8.79458Z" fill="#4FA778"/>
<path d="M93.7359 2.70835V0.62793H82.959V10.8192H93.7359V8.73875H85.5782V6.67239H93.7359V4.77471H85.5782V2.70835H93.7359Z" fill="#4FA778"/>
<path d="M94.4482 0.62793V2.82549H99.4009V10.8192H102.02V2.82549H106.973V0.62793H94.4482Z" fill="white"/>
<path d="M119.746 4.36666C119.746 2.09882 118.157 0.618164 115.843 0.618164H107.835V10.8188H110.454V8.09642H114.671L116.316 10.8188H119.404L117.53 7.79186C118.213 7.52727 118.795 7.05361 119.193 6.43851C119.591 5.8234 119.784 5.09829 119.746 4.36666ZM115.116 5.89886H110.431V2.82509H115.116C115.904 2.82509 117.141 2.82509 117.141 4.36666C117.141 5.90823 115.904 5.89886 115.116 5.89886Z" fill="white"/>
<path d="M130.888 0.62793V5.70715C130.888 7.11283 130.495 8.76686 127.102 8.76686C123.71 8.76686 123.316 7.13626 123.316 5.70715V0.62793H120.692V5.70715C120.692 9.26353 122.618 10.9644 127.102 10.9644C131.586 10.9644 133.508 9.24948 133.508 5.70715V0.62793H130.888Z" fill="white"/>
<path d="M140.967 4.6994C137.996 4.52134 137.383 4.37609 137.383 3.58891C137.383 2.80172 137.996 2.58618 140.574 2.58618C143.296 2.58618 144.42 2.86263 144.42 3.99187H147.04C147.04 1.47569 144.697 0.515137 140.864 0.515137C137.031 0.515137 134.773 1.22735 134.773 3.46708C134.773 5.70681 136.535 6.45651 140.977 6.65799C144.256 6.8173 144.866 6.96255 144.866 7.81065C144.866 8.65875 144.036 8.91646 141.281 8.91646C137.964 8.91646 137.087 8.41978 137.087 7.34209H134.478C134.478 10.2847 136.966 10.9969 141.145 10.9969C144.917 10.9969 147.494 10.444 147.494 7.71694C147.475 5.11173 144.987 4.89151 140.967 4.6994Z" fill="white"/>
<path d="M147.476 0.62793V2.82549H152.428V10.8192H155.052V2.82549H160V0.62793H147.476Z" fill="white"/>
<path d="M61.5835 9.49731C61.6356 9.36956 61.6999 9.24716 61.7756 9.13184L61.7475 10.8187H60.6323C61.0696 10.4786 61.3998 10.0199 61.5835 9.49731Z" fill="#4FA778"/>
<path d="M60.7726 8.48066C61.1206 8.64001 61.4573 8.82319 61.78 9.02888C61.6348 8.99608 61.1803 8.87425 61.0116 8.80865C59.1655 8.04958 57.0148 8.49003 55.8574 8.80865L57.2912 6.02539C58.2251 7.12531 59.423 7.97012 60.7726 8.48066Z" fill="#4FA778"/>
<path d="M61.0115 9.2962C61.2633 9.20716 61.5198 9.13208 61.7799 9.07129C61.657 9.15594 61.5249 9.22666 61.3863 9.28214C60.6313 9.55899 60.0021 10.1 59.6152 10.805H54.8218L55.6277 9.23529C56.696 9.59608 58.8561 10.2099 61.0115 9.2962Z" fill="#4FA778"/>
<path d="M61.457 7.79206C61.5909 8.14294 61.699 8.50313 61.7803 8.86975V8.98221C61.6632 8.78073 61.3446 8.2372 61.2509 8.0076C60.6572 6.44124 59.6301 5.07612 58.2896 4.07168L60.056 0.646484H61.2181C60.6839 2.59102 60.1919 5.21028 61.457 7.79206Z" fill="#4FA778"/>
<path d="M63.0262 10.819H61.9016L61.8735 9.11816C61.9532 9.23762 62.0207 9.36477 62.075 9.4977C62.2619 10.0186 62.5915 10.4765 63.0262 10.819Z" fill="#4FA778"/>
<path d="M62.4124 8.0076C62.2425 8.34682 62.0548 8.67684 61.8501 8.99627V8.86038C61.9244 8.495 62.0327 8.13735 62.1734 7.79206C63.4807 5.44925 62.9606 2.68473 62.4077 0.646484H63.5697L65.3456 4.07636C64.0174 5.08465 63.0007 6.44728 62.4124 8.0076Z" fill="#4FA778"/>
<path d="M62.886 8.48076C64.2386 7.97781 65.4403 7.13748 66.3768 6.03955L67.8153 8.81813C66.6439 8.4995 64.4979 8.06843 62.6611 8.81813C62.4877 8.88841 62.0145 9.01024 61.8833 9.04304C62.2047 8.83352 62.5397 8.64568 62.886 8.48076Z" fill="#4FA778"/>
<path d="M68.8504 10.8189H64.0477C63.6594 10.115 63.0307 9.57443 62.2765 9.2961C62.1356 9.2373 62.0007 9.16512 61.8735 9.08057C62.1368 9.1427 62.3965 9.21935 62.6514 9.31016C64.8067 10.2473 66.9715 9.61004 68.0398 9.26331L68.8504 10.8189Z" fill="#4FA778"/>
</g>
<defs>
<clipPath id="clip0_403_240">
<rect width="160" height="10.4817" fill="white" transform="translate(0 0.482422)"/>
</clipPath>
</defs>
</svg>
