<svg width="40" height="30" viewBox="0 0 40 30" fill="none" xmlns="http://www.w3.org/2000/svg">
<path fill-rule="evenodd" clip-rule="evenodd" d="M19.9686 0.0741577C13.2585 0.0741577 7.81885 5.49068 7.81885 12.1723V27.0799C7.81885 27.6773 8.30521 28.1615 8.90517 28.1615H16.1919C16.3129 28.3163 16.4439 28.4643 16.5846 28.6044C17.482 29.498 18.6992 30 19.9683 30C21.2375 30 22.4546 29.498 23.352 28.6044C23.4928 28.4643 23.6238 28.3163 23.7448 28.1615H31.0321C31.632 28.1615 32.1184 27.6773 32.1184 27.0799V12.1723C32.1184 5.49067 26.6788 0.0741577 19.9686 0.0741577Z" fill="#855CFE"/>
<path fill-rule="evenodd" clip-rule="evenodd" d="M23.281 7.62884L19.9992 4.6015L16.7172 7.62884H23.281ZM13.4563 8.43004C12.2564 8.43004 11.2836 9.39864 11.2836 10.5935V14.8483C11.2836 16.0432 12.2564 17.0118 13.4563 17.0118H26.5416C27.7415 17.0118 28.7142 16.0432 28.7142 14.8483V10.5935C28.7142 9.39864 27.7414 8.43004 26.5415 8.43004H13.4563ZM14.7413 10.3448C13.8413 10.3448 13.1118 11.0712 13.1118 11.9673V13.1986C13.1118 14.0948 13.8413 14.8212 14.7413 14.8212H25.2391C26.139 14.8212 26.8686 14.0948 26.8686 13.1986V11.9673C26.8686 11.0712 26.139 10.3448 25.2391 10.3448H14.7413ZM13.4105 17.5757C13.4105 19.3157 14.1047 20.9844 15.3403 22.2148C16.5759 23.4452 18.2518 24.1364 19.9992 24.1364C21.7466 24.1364 23.4224 23.4452 24.658 22.2148C25.8937 20.9844 26.5877 19.3157 26.5877 17.5757H19.9992H13.4105ZM21.4128 20.5229C21.4128 21.7359 20.6887 22.7192 19.7954 22.7192C18.9021 22.7192 18.1779 21.7359 18.1779 20.5229C18.1779 19.31 18.9021 18.3267 19.7954 18.3267C20.6887 18.3267 21.4128 19.31 21.4128 20.5229ZM19.7653 21.6925C20.2351 21.6925 20.6158 21.1949 20.6158 20.5811C20.6158 19.9674 20.2351 19.4698 19.7653 19.4698C19.2955 19.4698 18.9147 19.9674 18.9147 20.5811C18.9147 21.1949 19.2955 21.6925 19.7653 21.6925ZM17.657 27.5636C18.3351 28.0834 19.1706 28.3697 20.0357 28.3697C20.8701 28.3697 21.6769 28.1034 22.3416 27.6181C21.9347 27.1673 21.6356 26.6236 21.4751 26.0273C21.3387 25.5204 21.3081 24.9966 21.3795 24.4868H20.0357H18.5709C18.6423 24.9966 18.6118 25.5204 18.4754 26.0273C18.3213 26.5999 18.0393 27.1238 17.657 27.5636ZM10.5802 12.7209C10.154 12.7209 9.74521 12.8895 9.44383 13.1896C9.14245 13.4897 8.97314 13.8967 8.97314 14.3211C8.97314 14.7455 9.14245 15.1525 9.44383 15.4526C9.74521 15.7527 10.154 15.9212 10.5802 15.9212V14.3211V12.7209ZM29.4186 12.7209C29.8448 12.7209 30.2536 12.8895 30.5549 13.1896C30.8563 13.4897 31.0256 13.8967 31.0256 14.3211C31.0256 14.7455 30.8563 15.1525 30.5549 15.4526C30.2536 15.7527 29.8448 15.9212 29.4186 15.9212V14.3211V12.7209Z" fill="white"/>
<path d="M4.56712 11.2855H1.64464C1.13652 11.2855 0.724609 11.6959 0.724609 12.202C0.724609 12.7082 1.13652 13.1186 1.64464 13.1186H4.56712C5.07524 13.1186 5.48715 12.7082 5.48715 12.202C5.48715 11.6959 5.07524 11.2855 4.56712 11.2855Z" fill="#855CFE"/>
<path d="M4.9125 7.81805L2.08942 7.06482C1.59859 6.93386 1.09398 7.22424 0.962349 7.71339C0.83072 8.20255 1.12192 8.70525 1.61275 8.83621L4.43583 9.58943C4.92667 9.72039 5.43128 9.43002 5.56291 8.94086C5.69454 8.45171 5.40334 7.94901 4.9125 7.81805Z" fill="#855CFE"/>
<path d="M4.9125 16.5854L2.08942 17.3386C1.59859 17.4696 1.09398 17.1792 0.962349 16.6901C0.830721 16.2009 1.12192 15.6982 1.61276 15.5672L4.43583 14.814C4.92667 14.683 5.43128 14.9734 5.56291 15.4626C5.69454 15.9517 5.40334 16.4544 4.9125 16.5854Z" fill="#855CFE"/>
<path d="M35.6052 11.2856H38.5277C39.0358 11.2856 39.4478 11.6961 39.4478 12.2026C39.4478 12.709 39.0358 13.1196 38.5277 13.1196H35.6052C35.0971 13.1196 34.6852 12.709 34.6852 12.2026C34.6852 11.6961 35.0971 11.2856 35.6052 11.2856Z" fill="#855CFE"/>
<path d="M35.2594 7.81805L38.0825 7.06482C38.5733 6.93386 39.0779 7.22424 39.2095 7.71339C39.3412 8.20255 39.05 8.70525 38.5591 8.83621L35.7361 9.58943C35.2452 9.72039 34.7406 9.43002 34.609 8.94086C34.4774 8.45171 34.7685 7.94901 35.2594 7.81805Z" fill="#855CFE"/>
<path d="M35.2594 16.5854L38.0825 17.3386C38.5733 17.4696 39.0779 17.1792 39.2095 16.6901C39.3412 16.2009 39.05 15.6982 38.5591 15.5672L35.7361 14.814C35.2452 14.6831 34.7406 14.9734 34.609 15.4626C34.4774 15.9517 34.7685 16.4544 35.2594 16.5854Z" fill="#855CFE"/>
</svg>
