<svg width="130" height="42" viewBox="0 0 130 42" fill="none" xmlns="http://www.w3.org/2000/svg">
<g clip-path="url(#clip0)">
<path d="M54.0787 16.894C54.0787 14.6423 54.4577 12.5782 55.2631 10.6549C56.0211 8.68465 57.1581 6.94895 58.674 5.4478C60.0953 3.99357 61.7534 2.86771 63.6483 2.07023C65.5433 1.27275 67.533 0.897461 69.5701 0.897461C71.6546 0.897461 73.6443 1.27275 75.5393 2.07023C77.4342 2.86771 79.1397 3.99357 80.6083 5.49471C82.0769 6.99586 83.2139 8.68465 83.9719 10.6549C84.7299 12.5782 85.1089 14.6892 85.1089 16.9409C85.1089 18.8174 84.8246 20.6 84.3035 22.2419C83.7824 23.8837 82.977 25.4318 81.9348 26.7922C80.4662 28.7624 78.6186 30.2636 76.4867 31.3425C74.3075 32.4215 72.0336 32.9844 69.6175 32.9844C67.5804 32.9844 65.5907 32.6091 63.6957 31.8116C61.8007 31.0142 60.1426 29.8883 58.674 28.3872C57.1581 26.8391 56.0211 25.1034 55.2631 23.1801C54.4577 21.2098 54.0787 19.0988 54.0787 16.894ZM61.5639 16.894C61.5639 19.521 62.3218 21.7258 63.8852 23.4615C65.4485 25.2441 67.3435 26.1354 69.6175 26.1354C71.8914 26.1354 73.7864 25.2441 75.3498 23.5084C76.8657 21.7258 77.6711 19.5679 77.6711 16.9409C77.6711 14.3139 76.9131 12.1091 75.3498 10.3265C73.8338 8.54391 71.8914 7.65261 69.6175 7.65261C67.3435 7.65261 65.4485 8.54391 63.8852 10.3265C62.3218 12.0153 61.5639 14.2201 61.5639 16.894Z" fill="#FF4B15"/>
<path d="M0.545898 41.616L8.83639 0.850586L24.3278 25.7602L39.8665 0.850586L48.157 41.616H39.5349L35.8397 23.227L24.3278 41.616L12.8632 23.227L9.16801 41.616H0.545898Z" fill="#FF4B15"/>
<path d="M94.0153 41.616V0.850586H104.959C112.633 0.850586 118.65 2.68011 123.008 6.29223C127.367 9.95127 129.546 14.9238 129.546 21.2099C129.546 25.0096 128.693 28.3403 126.94 31.2957C125.235 34.251 122.677 36.6435 119.36 38.5199C117.466 39.5989 115.428 40.3964 113.154 40.8655C110.928 41.3346 108.18 41.5691 104.911 41.5691H94.0153V41.616ZM103.727 32.8437H105.906C110.217 32.8437 113.581 31.8117 115.997 29.7476C118.413 27.6835 119.645 24.822 119.645 21.2099C119.645 17.5508 118.413 14.7362 115.997 12.6252C113.581 10.5611 110.217 9.52908 105.906 9.52908H103.727V32.8437Z" fill="#FF4B15"/>
<path d="M79.8029 35.6584H59.3373V41.6161H79.8029V35.6584Z" fill="#FF4B15"/>
<path d="M96.4787 41.6161H94.0153V29.3254H96.4787V36.0806L99.558 32.8437H102.59L98.7527 36.8312L103.206 41.6161H99.9844L96.4787 37.8632V41.6161Z" fill="white"/>
<path d="M104.485 30.5451C104.485 30.1229 104.627 29.7476 104.911 29.4661C105.195 29.1847 105.574 29.0439 105.953 29.0439C106.38 29.0439 106.711 29.1847 106.996 29.4661C107.28 29.7476 107.422 30.1229 107.422 30.5451C107.422 30.9673 107.28 31.2957 106.996 31.5771C106.711 31.8586 106.332 31.9993 105.953 31.9993C105.527 31.9993 105.195 31.8586 104.911 31.5771C104.627 31.2957 104.485 30.9673 104.485 30.5451ZM107.233 41.616H104.722V32.8437H107.233V41.616Z" fill="white"/>
<path d="M114.102 39.6927C114.576 39.6927 115.002 39.5519 115.381 39.3174C115.76 39.0828 116.092 38.7545 116.281 38.3792V36.0806C116.092 35.7053 115.76 35.3769 115.381 35.1423C115.002 34.9078 114.576 34.7671 114.102 34.7671C113.391 34.7671 112.823 35.0016 112.396 35.4707C111.97 35.9398 111.733 36.5497 111.733 37.2064C111.733 37.9101 111.97 38.473 112.396 38.9421C112.823 39.4581 113.391 39.6927 114.102 39.6927ZM113.391 41.8506C112.207 41.8506 111.212 41.4284 110.407 40.5371C109.649 39.6458 109.222 38.5668 109.222 37.2533C109.222 35.9398 109.601 34.8609 110.407 33.9696C111.212 33.0783 112.207 32.6561 113.391 32.6561C114.623 32.6561 115.618 33.0783 116.281 33.9696V29.3723H118.792V41.6629H116.281V40.584C115.618 41.4284 114.67 41.8506 113.391 41.8506Z" fill="white"/>
<path d="M124.477 41.8505C122.913 41.8505 121.682 41.5691 120.734 41.0061V38.8482C121.161 39.1297 121.682 39.3642 122.345 39.5519C123.008 39.7395 123.671 39.8334 124.335 39.8334C125.33 39.8334 125.851 39.5988 125.851 39.0828C125.851 38.8482 125.709 38.6606 125.424 38.5199C125.282 38.4729 125.14 38.3791 124.951 38.3791L124.287 38.2384C124.193 38.2384 124.05 38.1915 123.908 38.1446C123.766 38.0977 123.624 38.0507 123.577 38.0507C122.534 37.7693 121.776 37.4409 121.35 37.0187C120.924 36.6434 120.687 36.0336 120.687 35.3299C120.687 34.4855 121.019 33.8288 121.729 33.3597C122.44 32.8906 123.387 32.656 124.572 32.656C125.898 32.656 127.035 32.9375 127.888 33.4535V35.5645C126.846 34.9546 125.756 34.6732 124.666 34.6732C123.719 34.6732 123.245 34.9077 123.245 35.3768C123.245 35.4707 123.292 35.5645 123.34 35.6114C123.387 35.7052 123.435 35.7521 123.482 35.799C123.529 35.8459 123.624 35.8928 123.719 35.9398C123.766 35.9398 123.908 35.9867 124.098 36.0336C124.287 36.0805 124.429 36.1274 124.477 36.1274L125.424 36.315C126.419 36.5496 127.13 36.878 127.604 37.3002C128.077 37.7224 128.314 38.3322 128.314 39.0828C128.314 39.8803 127.935 40.5839 127.225 41.053C126.656 41.616 125.661 41.8505 124.477 41.8505Z" fill="white"/>
</g>
<defs>
<clipPath id="clip0">
<rect width="129" height="41" fill="white" transform="translate(0.545898 0.850586)"/>
</clipPath>
</defs>
</svg>
