<svg width="91" height="30" viewBox="0 0 91 30" fill="none" xmlns="http://www.w3.org/2000/svg">
<path d="M41.459 20.9404H49.5459V24H37.6504V5.51562H41.459V20.9404ZM57.8232 24.2539C55.8089 24.2539 54.167 23.6361 52.8975 22.4004C51.6364 21.1647 51.0059 19.5186 51.0059 17.4619V17.1064C51.0059 15.7269 51.2725 14.4954 51.8057 13.4121C52.3389 12.3203 53.0921 11.4824 54.0654 10.8984C55.0472 10.306 56.1644 10.0098 57.417 10.0098C59.2959 10.0098 60.7728 10.6022 61.8477 11.7871C62.931 12.972 63.4727 14.652 63.4727 16.8271V18.3252H54.7256C54.8441 19.2223 55.1995 19.9417 55.792 20.4834C56.3929 21.0251 57.1504 21.2959 58.0645 21.2959C59.4779 21.2959 60.5824 20.7839 61.3779 19.7598L63.1807 21.7783C62.6305 22.557 61.8857 23.1663 60.9463 23.6064C60.0068 24.0381 58.9658 24.2539 57.8232 24.2539ZM57.4043 12.9805C56.6764 12.9805 56.084 13.2259 55.627 13.7168C55.1784 14.2077 54.8906 14.9102 54.7637 15.8242H59.8672V15.5322C59.8503 14.7197 59.6302 14.0934 59.207 13.6533C58.7839 13.2048 58.1829 12.9805 57.4043 12.9805ZM70.7979 14.3643L73.1084 10.2637H77.0312L73.1211 16.9922L77.1963 24H73.2607L70.8105 19.6836L68.373 24H64.4248L68.5 16.9922L64.6025 10.2637H68.5381L70.7979 14.3643ZM84.0264 14.3643L86.3369 10.2637H90.2598L86.3496 16.9922L90.4248 24H86.4893L84.0391 19.6836L81.6016 24H77.6533L81.7285 16.9922L77.8311 10.2637H81.7666L84.0264 14.3643Z" fill="url(#paint0_linear)"/>
<path fill-rule="evenodd" clip-rule="evenodd" d="M6.70162 24.615C3.25442 24.1825 0.586945 21.2233 0.586945 17.6371C0.586945 13.8028 3.63635 10.6852 7.4278 10.6063C8.77539 7.50092 11.8542 5.33057 15.4368 5.33057C19.9709 5.33057 23.6982 8.80694 24.1302 13.2555C27.0817 13.4596 29.413 15.9337 29.413 18.9557C29.413 21.9634 27.1037 24.4283 24.172 24.6528V24.6694H7.5855C7.58203 24.6694 7.57857 24.6694 7.5751 24.6694C7.57163 24.6694 7.56816 24.6694 7.56469 24.6694H6.70162V24.615Z" fill="url(#paint1_linear)"/>
<defs>
<linearGradient id="paint0_linear" x1="63.5" y1="0" x2="63.5" y2="30" gradientUnits="userSpaceOnUse">
<stop stop-color="#2196F3"/>
<stop offset="1" stop-color="#2494EE"/>
</linearGradient>
<linearGradient id="paint1_linear" x1="15" y1="5.33057" x2="15" y2="24.6694" gradientUnits="userSpaceOnUse">
<stop stop-color="#2196F3"/>
<stop offset="1" stop-color="#2494EE"/>
</linearGradient>
</defs>
</svg>
