<svg width="335" height="102" viewBox="0 0 335 102" fill="none" xmlns="http://www.w3.org/2000/svg">
<path d="M159.179 40.2935L157.556 31.8804H157.491L155.868 40.2935H159.179ZM151 48.413L156.161 25.1957H158.919L164.08 48.413H160.769L159.796 43.4239H155.284L154.311 48.413H151Z" fill="#0048B1"/>
<path d="M176.226 41.7935V43.2283C176.226 43.9457 176.085 44.6304 175.804 45.2826C175.545 45.913 175.177 46.4783 174.701 46.9783C174.225 47.4783 173.662 47.8804 173.013 48.1848C172.385 48.4674 171.704 48.6087 170.968 48.6087C170.341 48.6087 169.702 48.5217 169.053 48.3478C168.404 48.1739 167.82 47.8696 167.301 47.4348C166.781 47 166.349 46.4457 166.002 45.7717C165.678 45.0761 165.515 44.1957 165.515 43.1304V30.3478C165.515 29.587 165.645 28.8804 165.905 28.2283C166.165 27.5761 166.532 27.0109 167.008 26.5326C167.484 26.0543 168.047 25.6848 168.696 25.4239C169.367 25.1413 170.103 25 170.903 25C172.461 25 173.727 25.5109 174.701 26.5326C175.177 27.0326 175.545 27.6304 175.804 28.3261C176.085 29 176.226 29.7391 176.226 30.5435V31.8478H172.916V30.7391C172.916 30.087 172.732 29.5217 172.364 29.0435C171.996 28.5652 171.498 28.3261 170.871 28.3261C170.049 28.3261 169.497 28.587 169.216 29.1087C168.956 29.6087 168.826 30.25 168.826 31.0326V42.9022C168.826 43.5761 168.967 44.1413 169.248 44.5978C169.551 45.0543 170.081 45.2826 170.838 45.2826C171.055 45.2826 171.282 45.25 171.52 45.1848C171.78 45.0978 172.018 44.9674 172.234 44.7935C172.429 44.6196 172.591 44.3804 172.721 44.0761C172.851 43.7717 172.916 43.3913 172.916 42.9348V41.7935H176.226Z" fill="#0048B1"/>
<path d="M178.733 30.6739C178.733 29.7391 178.895 28.913 179.219 28.1957C179.544 27.4783 179.977 26.8804 180.518 26.4022C181.037 25.9457 181.621 25.5978 182.27 25.3587C182.941 25.1196 183.612 25 184.283 25C184.953 25 185.613 25.1196 186.263 25.3587C186.933 25.5978 187.539 25.9457 188.08 26.4022C188.599 26.8804 189.021 27.4783 189.346 28.1957C189.671 28.913 189.833 29.7391 189.833 30.6739V42.9348C189.833 43.913 189.671 44.75 189.346 45.4457C189.021 46.1413 188.599 46.7174 188.08 47.1739C187.539 47.6522 186.933 48.0109 186.263 48.25C185.613 48.4891 184.953 48.6087 184.283 48.6087C183.612 48.6087 182.941 48.4891 182.27 48.25C181.621 48.0109 181.037 47.6522 180.518 47.1739C179.977 46.7174 179.544 46.1413 179.219 45.4457C178.895 44.75 178.733 43.913 178.733 42.9348V30.6739ZM182.043 42.9348C182.043 43.7391 182.26 44.337 182.692 44.7283C183.147 45.0978 183.677 45.2826 184.283 45.2826C184.889 45.2826 185.408 45.0978 185.841 44.7283C186.295 44.337 186.522 43.7391 186.522 42.9348V30.6739C186.522 29.8696 186.295 29.2826 185.841 28.913C185.408 28.5217 184.889 28.3261 184.283 28.3261C183.677 28.3261 183.147 28.5217 182.692 28.913C182.26 29.2826 182.043 29.8696 182.043 30.6739V42.9348Z" fill="#0048B1"/>
<path d="M192.747 48.413V25.1957H196.057V45.4783H199.985V25.1957H203.295V45.4783H205.178V52H202.321V48.413H192.747Z" fill="#0048B1"/>
<path d="M207.012 48.413V25.1957H210.323V48.413H207.012Z" fill="#0048B1"/>
<path d="M220.225 40.2935L218.603 31.8804H218.538L216.915 40.2935H220.225ZM212.046 48.413L217.207 25.1957H219.966L225.126 48.413H221.816L220.842 43.4239H216.331L215.357 48.413H212.046Z" fill="#0048B1"/>
<path d="M226.756 48.413V25.1957H230.067V45.4783H233.994V25.1957H237.305V45.4783H239.187V52H236.331V48.413H226.756Z" fill="#0048B1"/>
<path d="M241.022 48.413V25.1957H244.332V48.413H241.022Z" fill="#0048B1"/>
<path d="M253.261 28.3261C252.093 28.3261 251.325 28.6413 250.957 29.2717C250.611 29.8804 250.438 30.7717 250.438 31.9457C250.438 32.5326 250.47 33.0543 250.535 33.5109C250.6 33.9457 250.719 34.3152 250.892 34.6196C251.087 34.9239 251.357 35.163 251.703 35.337C252.05 35.4891 252.515 35.5652 253.099 35.5652H254.689V28.3261H253.261ZM254.689 48.413V38.5H253.164L250.275 48.413H246.9L250.048 38.0761C249.529 37.8804 249.074 37.587 248.685 37.1957C248.295 36.8043 247.982 36.3587 247.744 35.8587C247.506 35.3587 247.343 34.7717 247.257 34.0978C247.17 33.4239 247.127 32.7283 247.127 32.0109C247.127 27.4674 249.074 25.1957 252.969 25.1957H258V48.413H254.689Z" fill="#0048B1"/>
<path d="M152.708 59.7487L151.366 61.9379L152.708 64.1271H153.708L152.366 61.9379L153.708 59.7487H152.708ZM154.66 59.7487L153.318 61.9379L154.66 64.1271H155.66L154.318 61.9379L155.66 59.7487H154.66Z" fill="#4E4E4E"/>
<path d="M162.225 61.2811C162.896 60.8676 163.226 60.2595 163.226 59.4689C163.226 58.8487 163.006 58.3135 162.555 57.8635C162.103 57.4135 161.567 57.1824 160.932 57.1824H157.492V65.696H161.213C161.872 65.696 162.433 65.4649 162.896 65.0028C163.36 64.5406 163.592 63.9811 163.592 63.3244C163.592 62.4 163.055 61.6338 162.225 61.2811ZM160.932 57.9851C161.335 57.9851 161.664 58.1311 161.945 58.423C162.225 58.7149 162.372 59.0676 162.372 59.4689C162.372 59.8825 162.225 60.2352 161.945 60.5271C161.664 60.8068 161.335 60.9527 160.932 60.9527H158.346V57.9851H160.932ZM158.346 64.8933V61.7554H161.213C161.64 61.7554 161.994 61.9136 162.286 62.2176C162.591 62.5217 162.738 62.8987 162.738 63.3244C162.738 63.7622 162.591 64.1393 162.286 64.4433C161.994 64.7474 161.64 64.8933 161.213 64.8933H158.346Z" fill="#4E4E4E"/>
<path d="M165.74 64.2974V59.6149H164.935V65.696H165.618L169.253 61.0135V65.696H170.059V59.6149H169.375L165.74 64.2974Z" fill="#4E4E4E"/>
<path d="M175.031 59.4689C173.945 59.4689 173.128 59.9189 172.566 60.8068V59.6149H171.761V68.1285H172.566V64.5041C173.128 65.392 173.945 65.842 175.031 65.842C175.897 65.842 176.641 65.5379 177.251 64.9176C177.873 64.2974 178.178 63.5433 178.178 62.6555C178.178 61.7676 177.873 61.0135 177.251 60.3933C176.641 59.773 175.897 59.4689 175.031 59.4689ZM173.262 64.3703C172.798 63.896 172.566 63.3244 172.566 62.6555C172.566 61.9865 172.798 61.4149 173.262 60.9527C173.725 60.4784 174.299 60.2473 174.97 60.2473C175.641 60.2473 176.214 60.4784 176.677 60.9527C177.141 61.4149 177.373 61.9865 177.373 62.6555C177.373 63.3244 177.141 63.896 176.677 64.3703C176.214 64.8325 175.641 65.0636 174.97 65.0636C174.299 65.0636 173.725 64.8325 173.262 64.3703Z" fill="#4E4E4E"/>
<path d="M184.628 64.9298C185.25 64.3095 185.567 63.5555 185.567 62.6555C185.567 61.7554 185.25 61.0014 184.628 60.3933C184.006 59.773 183.25 59.4689 182.359 59.4689C181.468 59.4689 180.7 59.773 180.078 60.3933C179.456 61.0014 179.151 61.7554 179.151 62.6555C179.151 63.5555 179.456 64.3095 180.078 64.9298C180.7 65.5379 181.468 65.842 182.359 65.842C183.25 65.842 184.006 65.5379 184.628 64.9298ZM180.651 64.3703C180.188 63.896 179.956 63.3244 179.956 62.6555C179.956 61.9865 180.188 61.4149 180.651 60.9527C181.115 60.4784 181.688 60.2473 182.359 60.2473C183.03 60.2473 183.603 60.4784 184.067 60.9527C184.53 61.4149 184.762 61.9865 184.762 62.6555C184.762 63.3244 184.53 63.896 184.067 64.3703C183.603 64.8325 183.03 65.0636 182.359 65.0636C181.688 65.0636 181.115 64.8325 180.651 64.3703Z" fill="#4E4E4E"/>
<path d="M189.623 65.842C190.489 65.842 191.197 65.5744 191.758 65.0393C192.331 64.492 192.612 63.8109 192.612 62.996C192.612 62.169 192.343 61.4879 191.807 60.9649C191.282 60.4298 190.611 60.1622 189.794 60.1622C188.976 60.1622 188.037 60.5027 187.488 61.2325C187.72 60.3933 188.183 59.9311 189.318 59.4446L189.891 59.2014L190.501 58.946C190.623 58.8852 190.794 58.8 191.001 58.6784C191.441 58.423 191.587 58.2527 191.782 57.9122C191.88 57.7419 191.941 57.5595 191.977 57.3649L191.343 57C191.331 57.596 190.77 57.973 190.269 58.2041C190.123 58.277 189.903 58.3743 189.598 58.496C189.306 58.6176 189.074 58.727 188.891 58.8122C187.952 59.2622 187.317 59.773 187.012 60.3325C186.707 60.8798 186.549 61.6825 186.549 62.7163C186.549 63.6406 186.841 64.3947 187.427 64.9784C188.013 65.5501 188.745 65.842 189.623 65.842ZM189.623 65.0393C189.001 65.0393 188.464 64.8447 188.037 64.4433C187.61 64.042 187.403 63.5433 187.403 62.923C187.403 62.3271 187.634 61.8406 188.11 61.4879C188.586 61.123 189.111 60.9406 189.684 60.9406C190.33 60.9406 190.843 61.1352 191.221 61.5244C191.611 61.9014 191.807 62.4 191.807 62.996C191.807 63.5919 191.599 64.0784 191.184 64.4676C190.782 64.8447 190.257 65.0393 189.623 65.0393Z" fill="#4E4E4E"/>
<path d="M198.155 62.2663H194.641V59.6149H193.836V65.696H194.641V63.0446H198.155V65.696H198.96V59.6149H198.155V62.2663Z" fill="#4E4E4E"/>
<path d="M201.468 64.2974V59.6149H200.662V65.696H201.346L204.981 61.0135V65.696H205.786V59.6149H205.103L201.468 64.2974Z" fill="#4E4E4E"/>
<path d="M209.148 62.5338L212.295 59.6149H211.197L208.294 62.3027V59.6149H207.489V65.696H208.294V62.7649L211.344 65.696H212.417L209.148 62.5338Z" fill="#4E4E4E"/>
<path d="M214.334 58.1554C214.566 57.9243 214.566 57.5595 214.334 57.3284C214.102 57.0973 213.736 57.0973 213.504 57.3284C213.273 57.5595 213.273 57.9243 213.504 58.1554C213.736 58.3865 214.102 58.3865 214.334 58.1554ZM214.322 65.696V59.6149H213.517V65.696H214.322Z" fill="#4E4E4E"/>
<path d="M219.91 62.5703C220.385 62.2906 220.617 61.8527 220.617 61.2446C220.617 60.2838 219.934 59.6149 218.751 59.6149H216.03V65.696H218.995C220.227 65.696 220.91 64.9784 220.91 63.9933C220.91 63.2879 220.581 62.8136 219.91 62.5703ZM218.751 60.3933C219.434 60.3933 219.812 60.7217 219.812 61.2933C219.812 61.9257 219.458 62.2419 218.751 62.2419H216.835V60.3933H218.751ZM216.835 64.9176V63.0203H218.995C219.714 63.0203 220.105 63.373 220.105 63.9447C220.105 64.5649 219.714 64.9176 218.995 64.9176H216.835Z" fill="#4E4E4E"/>
<path d="M229.498 62.2663H225.985V59.6149H225.18V65.696H225.985V63.0446H229.498V65.696H230.303V59.6149H229.498V62.2663Z" fill="#4E4E4E"/>
<path d="M234.824 59.4689C233.884 59.4689 233.128 59.773 232.53 60.3811C231.933 60.9892 231.64 61.7433 231.64 62.6555C231.64 63.5798 231.945 64.346 232.543 64.942C233.14 65.5379 233.921 65.842 234.885 65.842C236.068 65.842 237.032 65.3068 237.569 64.4433L236.861 64.0298C236.519 64.6501 235.824 65.0636 234.897 65.0636C233.592 65.0636 232.628 64.2852 232.469 63.0568H237.825C237.837 62.8987 237.849 62.7649 237.849 62.6798C237.849 61.8163 237.569 61.0622 237.007 60.4298C236.458 59.7852 235.727 59.4689 234.824 59.4689ZM234.824 60.2473C235.373 60.2473 235.861 60.4298 236.275 60.7825C236.69 61.1352 236.934 61.6338 237.02 62.2784H232.469C232.628 61.0744 233.555 60.2473 234.824 60.2473Z" fill="#4E4E4E"/>
<path d="M242.399 59.4689C241.313 59.4689 240.496 59.9189 239.935 60.8068V59.6149H239.13V68.1285H239.935V64.5041C240.496 65.392 241.313 65.842 242.399 65.842C243.265 65.842 244.009 65.5379 244.619 64.9176C245.242 64.2974 245.547 63.5433 245.547 62.6555C245.547 61.7676 245.242 61.0135 244.619 60.3933C244.009 59.773 243.265 59.4689 242.399 59.4689ZM240.63 64.3703C240.167 63.896 239.935 63.3244 239.935 62.6555C239.935 61.9865 240.167 61.4149 240.63 60.9527C241.094 60.4784 241.667 60.2473 242.338 60.2473C243.009 60.2473 243.583 60.4784 244.046 60.9527C244.51 61.4149 244.741 61.9865 244.741 62.6555C244.741 63.3244 244.51 63.896 244.046 64.3703C243.583 64.8325 243.009 65.0636 242.338 65.0636C241.667 65.0636 241.094 64.8325 240.63 64.3703Z" fill="#4E4E4E"/>
<path d="M249.062 64.7109L246.769 59.6149H245.915L248.648 65.7325L248.489 66.1095C248.111 67.0339 247.55 67.4596 246.818 67.3744V68.1285C247.891 68.2136 248.806 67.4596 249.282 66.2555L251.893 59.6149H251.039L249.062 64.7109Z" fill="#4E4E4E"/>
<path d="M257.62 59.6149H253.253V62.619C253.253 63.6041 253.045 64.3703 252.631 64.9176H251.886V67.3258H252.692V65.696H257.669V67.3258H258.474V64.9176H257.62V59.6149ZM253.606 64.9176C253.911 64.3217 254.058 63.5555 254.058 62.619V60.3933H256.815V64.9176H253.606Z" fill="#4E4E4E"/>
<path d="M264.01 62.2663H260.497V59.6149H259.692V65.696H260.497V63.0446H264.01V65.696H264.815V59.6149H264.01V62.2663Z" fill="#4E4E4E"/>
<path d="M267.323 64.2974V59.6149H266.518V65.696H267.201L270.837 61.0135V65.696H271.642V59.6149H270.959L267.323 64.2974Z" fill="#4E4E4E"/>
<path d="M276.089 62.546L278.309 59.6149H277.346L275.601 61.9136L273.857 59.6149H272.893L275.125 62.546L272.734 65.696H273.698L275.601 63.1906L277.504 65.696H278.468L276.089 62.546Z" fill="#4E4E4E"/>
<path d="M154.074 80.707C154.94 80.707 155.648 80.4394 156.209 79.9043C156.782 79.357 157.063 78.6759 157.063 77.861C157.063 77.034 156.795 76.3529 156.258 75.8299C155.733 75.2948 155.062 75.0272 154.245 75.0272C153.428 75.0272 152.488 75.3677 151.939 76.0975C152.171 75.2583 152.635 74.7961 153.769 74.3096L154.343 74.0664L154.952 73.811C155.074 73.7501 155.245 73.665 155.453 73.5434C155.892 73.288 156.038 73.1177 156.233 72.7772C156.331 72.6069 156.392 72.4245 156.429 72.2299L155.794 71.865C155.782 72.4609 155.221 72.838 154.721 73.0691C154.574 73.142 154.355 73.2393 154.05 73.361C153.757 73.4826 153.525 73.592 153.342 73.6772C152.403 74.1272 151.769 74.638 151.464 75.1975C151.159 75.7448 151 76.5475 151 77.5813C151 78.5056 151.293 79.2597 151.878 79.8434C152.464 80.4151 153.196 80.707 154.074 80.707ZM154.074 79.9043C153.452 79.9043 152.915 79.7097 152.488 79.3083C152.061 78.9069 151.854 78.4083 151.854 77.788C151.854 77.1921 152.086 76.7056 152.561 76.3529C153.037 75.988 153.562 75.8056 154.135 75.8056C154.782 75.8056 155.294 76.0002 155.672 76.3894C156.063 76.7664 156.258 77.265 156.258 77.861C156.258 78.4569 156.05 78.9434 155.636 79.3326C155.233 79.7097 154.709 79.9043 154.074 79.9043Z" fill="#4E4E4E"/>
<path d="M160.465 79.5759L158.171 74.4799H157.317L160.05 80.5975L159.891 80.9745C159.513 81.8989 158.952 82.3245 158.22 82.2394V82.9935C159.294 83.0786 160.208 82.3245 160.684 81.1205L163.295 74.4799H162.441L160.465 79.5759Z" fill="#4E4E4E"/>
<path d="M169.022 74.4799H164.655V77.484C164.655 78.4691 164.448 79.2353 164.033 79.7826H163.289V82.1908H164.094V80.561H169.071V82.1908H169.876V79.7826H169.022V74.4799ZM165.009 79.7826C165.314 79.1867 165.46 78.4205 165.46 77.484V75.2583H168.217V79.7826H165.009Z" fill="#4E4E4E"/>
<path d="M171.911 73.0204C172.143 72.7893 172.143 72.4245 171.911 72.1934C171.68 71.9623 171.314 71.9623 171.082 72.1934C170.85 72.4245 170.85 72.7893 171.082 73.0204C171.314 73.2515 171.68 73.2515 171.911 73.0204ZM171.899 80.561V74.4799H171.094V80.561H171.899Z" fill="#4E4E4E"/>
<path d="M177.487 77.4353C177.963 77.1556 178.195 76.7177 178.195 76.1096C178.195 75.1488 177.511 74.4799 176.328 74.4799H173.608V80.561H176.572C177.804 80.561 178.487 79.8434 178.487 78.8583C178.487 78.1529 178.158 77.6786 177.487 77.4353ZM176.328 75.2583C177.011 75.2583 177.389 75.5866 177.389 76.1583C177.389 76.7907 177.036 77.1069 176.328 77.1069H174.413V75.2583H176.328ZM174.413 79.7826V77.8853H176.572C177.292 77.8853 177.682 78.238 177.682 78.8097C177.682 79.4299 177.292 79.7826 176.572 79.7826H174.413Z" fill="#4E4E4E"/>
<path d="M182.525 74.3339C181.586 74.3339 180.83 74.638 180.232 75.2461C179.634 75.8542 179.341 76.6083 179.341 77.5205C179.341 78.4448 179.646 79.211 180.244 79.807C180.842 80.4029 181.623 80.707 182.586 80.707C183.77 80.707 184.733 80.1718 185.27 79.3083L184.562 78.8948C184.221 79.5151 183.526 79.9286 182.598 79.9286C181.293 79.9286 180.329 79.1502 180.171 77.9218H185.526C185.538 77.7637 185.551 77.6299 185.551 77.5448C185.551 76.6813 185.27 75.9272 184.709 75.2948C184.16 74.6502 183.428 74.3339 182.525 74.3339ZM182.525 75.1123C183.074 75.1123 183.562 75.2948 183.977 75.6475C184.392 76.0002 184.636 76.4988 184.721 77.1434H180.171C180.329 75.9394 181.257 75.1123 182.525 75.1123Z" fill="#4E4E4E"/>
<path d="M187.227 74.4799V77.9705C187.227 79.4421 186.788 79.9043 185.861 79.807V80.561C186.532 80.6097 187.069 80.4394 187.447 80.0624C187.837 79.6853 188.033 78.9799 188.033 77.9705V75.2583H190.79V80.561H191.595V74.4799H187.227Z" fill="#4E4E4E"/>
<path d="M194.105 76.7907V74.4799H193.3V80.561H195.777C196.35 80.561 196.826 80.3907 197.216 80.038C197.619 79.6853 197.814 79.2232 197.814 78.6759C197.814 78.1286 197.619 77.6786 197.216 77.3259C196.826 76.9732 196.35 76.7907 195.777 76.7907H194.105ZM194.105 79.7826V77.5691H195.777C196.46 77.5691 197.009 78.0069 197.009 78.6759C197.009 79.3448 196.46 79.7826 195.777 79.7826H194.105Z" fill="#4E4E4E"/>
<path d="M203.349 77.1313H199.835V74.4799H199.03V80.561H199.835V77.9096H203.349V80.561H204.154V74.4799H203.349V77.1313Z" fill="#4E4E4E"/>
<path d="M206.662 79.1624V74.4799H205.857V80.561H206.54L210.175 75.8785V80.561H210.98V74.4799H210.297L206.662 79.1624Z" fill="#4E4E4E"/>
<path d="M215.428 77.411L217.648 74.4799H216.684L214.94 76.7786L213.195 74.4799H212.231L214.464 77.411L212.073 80.561H213.037L214.94 78.0556L216.843 80.561H217.806L215.428 77.411Z" fill="#4E4E4E"/>
<path d="M227.002 74.4799L224.94 77.8123L222.878 74.4799H221.951V80.561H222.756V75.7083L224.891 79.1624H224.989L227.124 75.7083V80.561H227.929V74.4799H227.002Z" fill="#4E4E4E"/>
<path d="M234.881 75.6718C234.32 74.7839 233.502 74.3339 232.416 74.3339C231.55 74.3339 230.806 74.638 230.184 75.2583C229.574 75.8785 229.269 76.6326 229.269 77.5205C229.269 78.4083 229.574 79.1624 230.184 79.7826C230.806 80.4029 231.55 80.707 232.416 80.707C233.502 80.707 234.32 80.257 234.881 79.3691V80.561H235.686V74.4799H234.881V75.6718ZM230.77 79.2353C230.306 78.761 230.074 78.1894 230.074 77.5205C230.074 76.8515 230.306 76.2799 230.77 75.8177C231.233 75.3434 231.807 75.1123 232.477 75.1123C233.148 75.1123 233.722 75.3434 234.185 75.8177C234.649 76.2799 234.881 76.8515 234.881 77.5205C234.881 78.1894 234.649 78.761 234.185 79.2353C233.722 79.6975 233.148 79.9286 232.477 79.9286C231.807 79.9286 231.233 79.6975 230.77 79.2353Z" fill="#4E4E4E"/>
<path d="M236.659 74.4799V75.2583H238.818V80.561H239.623V75.2583H241.782V74.4799H236.659Z" fill="#4E4E4E"/>
<path d="M245.343 74.3339C244.404 74.3339 243.647 74.638 243.05 75.2461C242.452 75.8542 242.159 76.6083 242.159 77.5205C242.159 78.4448 242.464 79.211 243.062 79.807C243.66 80.4029 244.44 80.707 245.404 80.707C246.587 80.707 247.551 80.1718 248.088 79.3083L247.38 78.8948C247.039 79.5151 246.343 79.9286 245.416 79.9286C244.111 79.9286 243.147 79.1502 242.989 77.9218H248.344C248.356 77.7637 248.368 77.6299 248.368 77.5448C248.368 76.6813 248.088 75.9272 247.527 75.2948C246.978 74.6502 246.246 74.3339 245.343 74.3339ZM245.343 75.1123C245.892 75.1123 246.38 75.2948 246.795 75.6475C247.21 76.0002 247.454 76.4988 247.539 77.1434H242.989C243.147 75.9394 244.074 75.1123 245.343 75.1123Z" fill="#4E4E4E"/>
<path d="M252.918 74.3339C251.833 74.3339 251.015 74.7839 250.454 75.6718V74.4799H249.649V82.9935H250.454V79.3691C251.015 80.257 251.833 80.707 252.918 80.707C253.785 80.707 254.529 80.4029 255.139 79.7826C255.761 79.1624 256.066 78.4083 256.066 77.5205C256.066 76.6326 255.761 75.8785 255.139 75.2583C254.529 74.638 253.785 74.3339 252.918 74.3339ZM251.15 79.2353C250.686 78.761 250.454 78.1894 250.454 77.5205C250.454 76.8515 250.686 76.2799 251.15 75.8177C251.613 75.3434 252.187 75.1123 252.857 75.1123C253.528 75.1123 254.102 75.3434 254.565 75.8177C255.029 76.2799 255.261 76.8515 255.261 77.5205C255.261 78.1894 255.029 78.761 254.565 79.2353C254.102 79.6975 253.528 79.9286 252.857 79.9286C252.187 79.9286 251.613 79.6975 251.15 79.2353Z" fill="#4E4E4E"/>
<path d="M258.222 73.0204C258.454 72.7893 258.454 72.4245 258.222 72.1934C257.99 71.9623 257.624 71.9623 257.392 72.1934C257.161 72.4245 257.161 72.7893 257.392 73.0204C257.624 73.2515 257.99 73.2515 258.222 73.0204ZM258.21 80.561V74.4799H257.405V80.561H258.21Z" fill="#4E4E4E"/>
<path d="M265.164 75.6718C264.603 74.7839 263.785 74.3339 262.7 74.3339C261.833 74.3339 261.089 74.638 260.467 75.2583C259.857 75.8785 259.552 76.6326 259.552 77.5205C259.552 78.4083 259.857 79.1624 260.467 79.7826C261.089 80.4029 261.833 80.707 262.7 80.707C263.785 80.707 264.603 80.257 265.164 79.3691V80.561H265.969V74.4799H265.164V75.6718ZM261.053 79.2353C260.589 78.761 260.357 78.1894 260.357 77.5205C260.357 76.8515 260.589 76.2799 261.053 75.8177C261.516 75.3434 262.09 75.1123 262.761 75.1123C263.432 75.1123 264.005 75.3434 264.468 75.8177C264.932 76.2799 265.164 76.8515 265.164 77.5205C265.164 78.1894 264.932 78.761 264.468 79.2353C264.005 79.6975 263.432 79.9286 262.761 79.9286C262.09 79.9286 261.516 79.6975 261.053 79.2353Z" fill="#4E4E4E"/>
<path d="M268.308 74.4799V77.9705C268.308 79.4421 267.869 79.9043 266.942 79.807V80.561C267.613 80.6097 268.149 80.4394 268.528 80.0624C268.918 79.6853 269.113 78.9799 269.113 77.9705V75.2583H271.87V80.561H272.675V74.4799H268.308Z" fill="#4E4E4E"/>
<path d="M275.198 73.0204C275.43 72.7893 275.43 72.4245 275.198 72.1934C274.966 71.9623 274.6 71.9623 274.369 72.1934C274.137 72.4245 274.137 72.7893 274.369 73.0204C274.6 73.2515 274.966 73.2515 275.198 73.0204ZM275.186 80.561V74.4799H274.381V80.561H275.186Z" fill="#4E4E4E"/>
<path d="M280.774 77.4353C281.249 77.1556 281.481 76.7177 281.481 76.1096C281.481 75.1488 280.798 74.4799 279.615 74.4799H276.894V80.561H279.859C281.091 80.561 281.774 79.8434 281.774 78.8583C281.774 78.1529 281.445 77.6786 280.774 77.4353ZM279.615 75.2583C280.298 75.2583 280.676 75.5866 280.676 76.1583C280.676 76.7907 280.322 77.1069 279.615 77.1069H277.7V75.2583H279.615ZM277.7 79.7826V77.8853H279.859C280.579 77.8853 280.969 78.238 280.969 78.8097C280.969 79.4299 280.579 79.7826 279.859 79.7826H277.7Z" fill="#4E4E4E"/>
<path d="M288.898 77.2772L286.434 72.0474H285.556L288.496 78.2259L288.325 78.6272C287.935 79.5394 287.373 79.8799 286.458 79.7826V80.561C287.764 80.6462 288.605 80.0624 289.179 78.7002L292.021 72.0474H291.143L288.898 77.2772Z" fill="#4E4E4E"/>
<path d="M294.66 77.3988L297.807 74.4799H296.709L293.806 77.1677V74.4799H293.001V80.561H293.806V77.6299L296.856 80.561H297.929L294.66 77.3988Z" fill="#4E4E4E"/>
<path d="M302.298 74.3339C301.213 74.3339 300.395 74.7839 299.834 75.6718V74.4799H299.029V82.9935H299.834V79.3691C300.395 80.257 301.213 80.707 302.298 80.707C303.164 80.707 303.909 80.4029 304.519 79.7826C305.141 79.1624 305.446 78.4083 305.446 77.5205C305.446 76.6326 305.141 75.8785 304.519 75.2583C303.909 74.638 303.164 74.3339 302.298 74.3339ZM300.529 79.2353C300.066 78.761 299.834 78.1894 299.834 77.5205C299.834 76.8515 300.066 76.2799 300.529 75.8177C300.993 75.3434 301.566 75.1123 302.237 75.1123C302.908 75.1123 303.482 75.3434 303.945 75.8177C304.409 76.2799 304.641 76.8515 304.641 77.5205C304.641 78.1894 304.409 78.761 303.945 79.2353C303.482 79.6975 302.908 79.9286 302.237 79.9286C301.566 79.9286 300.993 79.6975 300.529 79.2353Z" fill="#4E4E4E"/>
<path d="M312.03 75.6718C311.469 74.7839 310.652 74.3339 309.566 74.3339C308.7 74.3339 307.956 74.638 307.333 75.2583C306.723 75.8785 306.418 76.6326 306.418 77.5205C306.418 78.4083 306.723 79.1624 307.333 79.7826C307.956 80.4029 308.7 80.707 309.566 80.707C310.652 80.707 311.469 80.257 312.03 79.3691V80.561H312.835V74.4799H312.03V75.6718ZM307.919 79.2353C307.455 78.761 307.224 78.1894 307.224 77.5205C307.224 76.8515 307.455 76.2799 307.919 75.8177C308.382 75.3434 308.956 75.1123 309.627 75.1123C310.298 75.1123 310.871 75.3434 311.335 75.8177C311.798 76.2799 312.03 76.8515 312.03 77.5205C312.03 78.1894 311.798 78.761 311.335 79.2353C310.871 79.6975 310.298 79.9286 309.627 79.9286C308.956 79.9286 308.382 79.6975 307.919 79.2353Z" fill="#4E4E4E"/>
<path d="M314.174 73.4096C314.381 73.2028 314.381 72.838 314.174 72.6312C313.966 72.4245 313.601 72.4245 313.393 72.6312C313.186 72.838 313.186 73.2028 313.393 73.4096C313.601 73.6164 313.966 73.6164 314.174 73.4096ZM316.492 73.4096C316.699 73.2028 316.699 72.838 316.492 72.6312C316.284 72.4245 315.918 72.4245 315.711 72.6312C315.504 72.838 315.504 73.2028 315.711 73.4096C315.918 73.6164 316.284 73.6164 316.492 73.4096ZM315.345 80.561V74.4799H314.54V80.561H315.345Z" fill="#4E4E4E"/>
<path d="M321.372 77.1313H317.859V74.4799H317.054V80.561H317.859V77.9096H321.372V80.561H322.177V74.4799H321.372V77.1313Z" fill="#4E4E4E"/>
<path d="M324.685 79.1624V74.4799H323.88V80.561H324.563L328.198 75.8785V80.561H329.003V74.4799H328.32L324.685 79.1624Z" fill="#4E4E4E"/>
<path d="M330.706 74.6137L332.048 76.8029L330.706 78.9921H331.706L333.048 76.8029L331.706 74.6137H330.706ZM332.658 74.6137L334 76.8029L332.658 78.9921H333.658L335 76.8029L333.658 74.6137H332.658Z" fill="#4E4E4E"/>
<path d="M81.8073 10.4028C81.6747 10.5686 81.4536 10.8891 81.3431 11.1102C81.2215 11.3312 81.0115 11.5633 80.8679 11.6297C80.7242 11.696 80.0942 11.7512 79.4642 11.7512C78.4915 11.7512 78.3036 11.7181 78.1378 11.5412C78.0384 11.4307 77.762 11.2539 77.5299 11.1433C77.1099 10.9554 77.0878 10.9554 76.8226 11.1544C76.4357 11.4528 75.9604 12.337 75.8831 12.9339C75.8057 13.4091 75.7615 13.4644 75.2531 13.7407C73.7941 14.5144 73.2746 14.5918 72.6557 14.0944C72.2578 13.7628 72.1694 13.7407 71.3625 13.7407C70.8762 13.7407 70.4341 13.6855 70.3788 13.6302C70.3125 13.5639 69.9809 13.5086 69.6383 13.4865C69.0415 13.4644 68.9972 13.4755 68.522 13.9507L68.0135 14.4481L67.7041 14.1497C67.3393 13.796 66.8641 13.7628 66.1677 14.0502C65.5267 14.3155 65.2393 14.5807 64.753 15.3434C64.3551 15.9734 63.3714 17.3108 62.664 18.206C62.3325 18.615 62.3214 18.6592 62.3214 19.8087C62.3214 20.7371 62.3767 21.146 62.5867 21.8092C63.073 23.3345 63.1504 23.5997 63.084 23.6992C63.0509 23.7545 62.8409 23.7987 62.6088 23.7987C62.233 23.7987 62.1777 23.7545 62.0009 23.3566C61.8019 22.9034 61.0172 22.1408 60.4424 21.8313C60.2214 21.7208 59.6467 21.6324 58.7072 21.5771C57.5245 21.5108 57.2482 21.4666 57.0051 21.2676C56.6293 20.9803 56.4745 20.9803 56.0545 21.2676C55.8114 21.4445 55.6345 21.4887 55.3471 21.4445C54.8829 21.3671 54.684 21.5329 54.3082 22.2845C54.0982 22.7045 54.0208 22.7708 53.855 22.6934C53.634 22.5718 53.4792 22.1518 53.3134 21.2566C53.1477 20.3724 52.8934 19.8529 52.5287 19.7092C52.2634 19.5987 52.1419 19.6208 51.6334 19.8529C51.3129 20.0076 50.8929 20.1624 50.705 20.1955C50.3403 20.2729 49.854 20.7371 49.5003 21.3339C49.235 21.776 49.1355 21.7871 49.0471 21.3892C49.0029 21.2234 48.8813 20.9029 48.7708 20.6818C48.5055 20.1624 48.0966 20.0739 47.0355 20.295L46.2618 20.4497L46.0187 19.9413C45.6429 19.1234 45.6208 19.1013 45.3334 19.0681C45.1234 19.046 44.9355 19.1897 44.4271 19.7645C44.0734 20.1624 43.7418 20.4829 43.6976 20.4829C43.6644 20.4829 43.5539 20.3503 43.4765 20.1734C43.2334 19.6871 43.0123 19.4881 42.7581 19.4881C42.4155 19.4881 42.305 19.665 42.1502 20.4497C42.0065 21.1792 41.9402 21.2566 41.7081 20.9803C41.5976 20.8366 41.5976 20.7702 41.7302 20.6155C42.1944 20.096 42.0176 19.4881 41.3986 19.4881C41.1997 19.4881 40.846 19.5987 40.6139 19.7313L40.1939 19.9745L39.5528 19.7092C39.1991 19.5655 38.7349 19.455 38.536 19.455C38.1602 19.466 38.1491 19.4439 38.0055 18.7587C37.8949 18.1729 37.6849 18.0734 36.447 18.0292C35.4191 17.996 35.2975 17.9739 34.8554 17.6644C34.3581 17.3218 33.8496 17.2444 33.1091 17.4102C32.7996 17.4876 32.7333 17.4655 32.6559 17.2444C32.5233 16.8908 32.2028 16.7581 30.8765 16.5039C30.2354 16.3713 29.6164 16.2165 29.4838 16.1613C29.3512 16.0839 28.9091 16.0729 28.3785 16.106C25.2506 16.3492 24.8969 16.3271 23.8138 15.7523L23.3164 15.4981L22.598 15.7965C22.2001 15.9623 21.8022 16.1502 21.7138 16.2165C21.5148 16.3713 19.6911 16.3381 19.4037 16.1834C19.238 16.095 19.0943 16.106 18.8732 16.2165C18.6964 16.305 18.0664 16.5481 17.4806 16.7802C16.2316 17.2555 16.1211 17.3439 15.6458 18.1839C15.2369 18.9244 15.049 19.1787 14.5406 19.676C14.2421 19.9745 14.0874 20.0408 13.7005 20.0408C13.3248 20.0408 13.17 19.9745 12.9158 19.7092C12.4847 19.256 11.8658 19.245 11.4237 19.6871L11.1253 19.9966L11.1363 21.986C11.1584 24.1745 11.1142 24.0087 12.0095 25.2908C12.2969 25.6777 12.4516 26.0534 12.4958 26.3629C12.5953 27.2361 13.17 28.1314 14.0874 28.8056L14.3527 29.0045L13.9327 28.9382C13.4574 28.8608 13.1921 29.0045 13.1921 29.3472C13.1921 29.4577 13.4353 30.0214 13.7337 30.5851C14.2642 31.5798 14.3306 31.9003 14.0763 32.254C14.0321 32.3093 13.9327 32.6851 13.8553 33.083C13.7005 33.934 13.579 34.1219 13.3026 33.9672C12.8274 33.713 12.4074 33.8345 11.899 34.3761C11.6447 34.6635 11.4237 34.9398 11.4237 34.984C11.4237 35.0724 10.6942 35.824 10.1968 36.233C9.80999 36.5646 9.54473 36.8961 8.01946 38.9409C7.26787 39.9467 6.59366 40.842 6.52734 40.9304C6.44997 41.0188 6.29523 41.2509 6.18471 41.4278C6.06313 41.6157 5.90839 41.8035 5.81997 41.8478C5.7426 41.892 5.67628 41.9804 5.67628 42.0467C5.67628 42.102 5.30049 42.6546 4.84733 43.2515C4.39417 43.8594 3.97417 44.4673 3.90785 44.622C3.67574 45.2409 3.67574 46.1804 3.90785 47.4957C4.13996 48.8331 4.39417 49.4852 4.89154 49.9273C5.16786 50.1815 5.21207 50.712 4.9468 50.6126C4.84733 50.5794 4.7368 50.5462 4.69259 50.5462C4.64838 50.5462 4.3389 50.3031 4.00732 49.9936C3.01258 49.0762 2.59258 49.2752 2.19468 50.8778C1.95152 51.8726 1.49836 52.8894 0.868355 53.862C0.614142 54.2599 0.348877 54.7242 0.282561 54.9121C0.138876 55.2878 -0.0600729 57.0563 0.0172961 57.2552C0.0394015 57.3326 0.249403 57.4984 0.48151 57.631C0.923618 57.8852 1.00099 57.9958 1.29941 58.9352C1.55362 59.6979 1.63099 59.7752 2.30521 59.8968C2.80258 59.9852 2.85784 60.0295 2.891 60.3058C2.93521 60.6484 3.23363 60.8805 3.78627 60.98C3.99627 61.0131 4.36101 61.1016 4.60417 61.1679C4.97996 61.2674 5.02417 61.3116 4.96891 61.5437C4.91365 61.7426 4.95786 61.8532 5.14575 61.9747C5.47733 62.1737 6.36155 62.2953 6.90313 62.2068C7.33419 62.1295 7.46682 61.9747 7.70998 61.2342C7.74314 61.1347 7.80945 61.0463 7.85367 61.0574C7.89788 61.0574 8.20735 61.3779 8.52788 61.7647C8.84841 62.1405 9.27946 62.5384 9.50052 62.649C9.87631 62.8258 9.92052 62.8147 10.5726 62.5826L11.269 62.3395L11.5784 62.6379C11.9653 62.9916 12.2858 63.08 12.8384 62.9916C14.2421 62.7816 14.4853 62.7816 14.9274 63.0358C15.2921 63.2347 15.4911 63.2679 16.1321 63.2237C16.5521 63.2016 17.2485 63.08 17.6795 62.9584C18.1216 62.8368 18.5195 62.7595 18.5748 62.8037C18.6411 62.8368 18.7185 63.0026 18.7516 63.1574C18.8843 63.6769 20.509 65.1248 21.1501 65.2795C22.0785 65.5116 23.2059 64.6605 23.5264 63.5C23.5927 63.279 23.659 63.2569 24.3996 63.2569C24.8527 63.2569 25.9469 63.1795 26.8533 63.08C28.3675 62.9253 28.5775 62.8811 29.4396 62.4611C29.9591 62.2179 30.9538 61.5879 31.6612 61.0574C32.9212 60.1289 33.3081 59.6979 33.4628 59.0347C33.4959 58.8689 33.5733 58.6147 33.6396 58.46L33.7391 58.1837L34.3912 58.471C35.0212 58.7363 35.0544 58.7473 35.3417 58.5594C35.5075 58.4489 35.6291 58.261 35.6291 58.1284C35.6291 57.9184 35.6844 57.8963 36.1375 57.9294C36.5354 57.9626 36.6902 57.9294 36.8891 57.7416L37.1323 57.5094L37.4528 57.841C37.906 58.3052 38.1933 58.2721 38.6907 57.6642L39.1107 57.1558L39.7849 57.2331C40.3155 57.2884 40.4813 57.2663 40.5918 57.1337C40.7797 56.9126 40.9786 56.9126 41.1555 57.1226C41.2439 57.2221 41.4871 57.2884 41.8076 57.2884C42.2386 57.2884 42.4486 57.3768 43.0897 57.8189C44.4934 58.7695 44.9023 59.1121 45.035 59.4437C45.2118 59.8526 45.3223 59.941 45.7092 59.941C45.9413 59.941 45.9966 59.9852 45.9413 60.1068C45.8529 60.35 46.1734 60.6595 46.6818 60.8253C47.1018 60.9689 47.1571 60.9579 47.8313 60.6042C48.5166 60.2395 48.5497 60.2395 48.9587 60.3942C49.2792 60.5158 49.4229 60.6484 49.5003 60.9026C49.644 61.3447 49.865 61.5768 50.6055 62.0963C51.125 62.45 51.2798 62.5053 51.6445 62.45L52.0645 62.3947L52.1971 62.9253C52.2745 63.2237 52.5066 63.699 52.7166 63.9974C52.9266 64.2848 53.0924 64.55 53.0924 64.5942C53.0924 64.6274 52.8713 64.8042 52.595 65.0032C52.2082 65.2795 52.0977 65.4232 52.0977 65.6663C52.0977 65.8321 52.1529 66.0311 52.2082 66.0863C52.3298 66.2079 52.1971 67.1142 51.965 67.7111C51.8655 67.9653 51.8877 68.0537 52.0534 68.2416C52.2303 68.4406 52.3408 68.4627 52.7829 68.4074L53.3024 68.33L53.2361 68.7058C53.1145 69.4685 53.5787 69.789 54.275 69.4353C54.905 69.1148 55.0045 69.1479 54.7835 69.6343C54.695 69.8664 54.5735 70.1537 54.5292 70.2753C54.485 70.3969 54.3856 70.6401 54.3192 70.8058C54.1645 71.2148 54.1645 71.8006 54.3303 71.9664C54.4077 72.0438 54.6287 72.099 54.8277 72.099C55.0708 72.099 55.1924 72.1543 55.1924 72.2538C55.1924 72.3422 55.314 72.6516 55.4687 72.939C55.6235 73.2264 55.745 73.5469 55.745 73.6574C55.745 74.0111 56.1429 74.3096 56.6182 74.3096C56.9719 74.3096 57.1045 74.3759 57.3919 74.6964C57.5798 74.9064 57.7787 75.0832 57.8451 75.0832C58.0219 75.0832 57.9777 75.3706 57.7124 75.9233C57.5245 76.3322 57.5024 76.4759 57.6019 76.6417C57.7677 76.8959 57.7787 77.3712 57.624 77.4596C57.3256 77.6475 57.7456 78.8412 58.0993 78.8412C58.254 78.8412 58.6188 79.1838 58.6188 79.3275C58.6188 79.3717 58.4087 79.3938 58.1545 79.3717C57.7345 79.3385 57.6682 79.2943 57.403 78.8412C57.1045 78.3327 56.9056 78.2222 56.4635 78.3327C56.2866 78.377 56.1651 78.5317 56.0766 78.808C55.9993 79.0401 55.9108 79.2612 55.8666 79.3054C55.8224 79.3496 55.5461 79.1838 55.2477 78.9406C54.9493 78.6975 54.6177 78.4433 54.5071 78.388C54.2419 78.2443 53.5566 78.377 53.1808 78.6422L52.8713 78.8522V78.4654C52.8713 77.7912 52.3187 77.4264 51.8213 77.7801C51.6998 77.8575 51.4566 77.9569 51.2687 78.0012C50.5503 78.178 50.2961 78.6643 50.1634 80.1122C50.075 81.0628 50.1966 81.4275 50.705 81.7259L51.0919 81.958L50.495 82.5438C49.8982 83.1186 49.7655 83.428 50.0087 83.6712C50.1966 83.8591 50.0529 84.0028 49.4561 84.2017C48.7376 84.4338 48.6271 84.5775 48.6934 85.2517C48.7597 85.8928 48.7266 85.9259 47.7871 86.1249C46.9471 86.3017 46.7924 86.4786 46.7924 87.2302C46.7924 88.247 46.7371 88.3465 46.1734 88.3465C45.1013 88.3465 44.9023 88.7223 45.4108 89.8276C45.5655 90.1591 45.6871 90.6012 45.6871 90.8002C45.6871 91.0102 45.7534 91.2534 45.8308 91.3528C46.1734 91.7839 48.2734 92.7676 48.8703 92.7676C49.235 92.7676 49.5997 92.4249 49.7876 91.9055C49.8982 91.5849 49.9534 91.5518 50.3403 91.5518C50.5834 91.5518 51.534 91.2976 52.4513 90.9991C53.3687 90.6897 54.275 90.4465 54.474 90.4465C54.8498 90.4465 55.2145 90.767 55.5903 91.4081C55.734 91.6734 55.8666 91.7728 56.0877 91.7728C56.4082 91.7728 56.4745 91.6623 56.784 90.5018C57.0714 89.4075 57.0603 89.1533 56.6845 89.0097C56.3861 88.8991 56.1872 88.5123 56.1872 88.037V87.7496L56.364 87.9928C56.7508 88.5454 57.5577 88.026 57.4914 87.2633C57.4693 86.9207 57.5024 86.8654 57.9114 86.6444C58.1656 86.5117 58.7956 86.0917 59.3261 85.7159C59.8456 85.3402 60.3319 85.0307 60.3761 85.0307C60.5751 85.0307 61.2825 84.0912 61.614 83.417C62.0893 82.4001 62.0561 82.1459 61.3598 81.6264C61.0393 81.3833 60.6746 81.0738 60.553 80.9301C60.354 80.698 60.3651 80.698 60.7188 80.9633C60.9288 81.1291 61.3156 81.3391 61.5809 81.4386C61.8351 81.5491 62.1556 81.7701 62.2772 81.947C62.6309 82.4443 62.9956 82.378 63.2719 81.7701C63.3935 81.4938 63.7472 80.8638 64.0567 80.3664L64.6204 79.4601L64.5541 78.598C64.4988 77.7469 64.4988 77.7359 64.7641 77.7359C64.9077 77.7359 65.2725 77.6364 65.582 77.5148C66.0241 77.338 66.2341 77.3159 66.6099 77.3933C67.1956 77.5148 68.9199 77.3933 69.1409 77.2164C69.2736 77.0948 69.3509 77.128 69.5609 77.349C69.8815 77.6917 70.213 77.7027 70.6109 77.3933C70.843 77.2054 71.053 77.1501 71.5836 77.1612C72.0588 77.1722 72.3241 77.1169 72.4567 76.9954C72.722 76.7633 73.0757 76.8738 73.7499 77.4043C74.3578 77.8906 74.3799 77.9348 74.1699 78.2112C74.0483 78.388 73.9931 78.388 73.5952 78.2554C73.352 78.167 72.8215 78.0564 72.4346 78.0122C72.0367 77.9791 71.4399 77.8685 71.0973 77.7801C70.3125 77.5812 70.3678 77.5812 70.2241 77.8575C70.1246 78.0343 70.1357 78.1227 70.2683 78.2664C70.5004 78.5317 71.4952 79.0291 72.2688 79.2722L72.932 79.4822L72.2799 79.6701C71.9262 79.7696 71.5394 79.9575 71.4288 80.068C70.9425 80.5543 71.3073 80.8749 72.5452 81.0628C73.0646 81.1401 73.5289 81.2396 73.5841 81.2949C73.6504 81.3391 73.772 81.3833 73.8715 81.3833C73.971 81.3833 74.1478 81.4828 74.2694 81.6154C74.5457 81.9249 75.5404 82.4222 76.5683 82.7649C77.5852 83.1075 78.5578 83.1296 79.431 82.8312C79.7626 82.7096 80.3042 82.588 80.6357 82.5438C81.1994 82.4775 81.2436 82.4886 82.0505 83.0191C83.4321 83.9254 84.1947 84.0249 84.7916 83.3617C85.0568 83.0633 85.09 83.0522 85.1563 83.2291C85.3 83.5828 85.2558 84.1244 85.0679 84.478C84.7142 85.097 82.4815 86.4454 81.0226 86.9207C80.061 87.2302 78.8784 87.8933 78.2815 88.457C77.9057 88.8107 77.6626 89.3191 77.5299 89.9491C77.4194 90.546 77.4305 90.6344 77.6073 90.8776C77.8947 91.2755 78.3036 91.3418 79.5747 91.1981C80.9342 91.0544 81.0668 91.1097 81.5973 92.0381C81.7852 92.3807 82.0615 92.7344 82.2163 92.8339C82.57 93.066 83.5316 93.0881 84.0179 92.8892C84.3163 92.7676 84.4047 92.7676 84.6258 92.9113C84.8689 93.066 84.88 93.1323 84.8026 93.6739C84.7584 93.9944 84.7142 94.8676 84.7142 95.6192C84.7031 97.0671 84.681 97.1444 84.0842 97.9292C83.6642 98.4818 83.5979 98.9681 83.8852 99.3771C83.9847 99.5208 84.3384 99.9076 84.681 100.239C85.3774 100.913 85.3442 100.902 86.7479 100.593C87.0574 100.527 87.7205 100.46 88.24 100.438C88.7595 100.427 89.29 100.405 89.4226 100.405C89.7984 100.394 90.2848 99.8745 90.7379 99.0124C91.4563 97.6308 92.1195 97.1113 93.49 96.8018C94.5621 96.5697 95.999 96.1386 96.5295 95.8955C98.4195 95.0334 99.2927 94.525 99.2927 94.2597C99.2927 94.2155 99.3701 94.0165 99.4585 93.8176C99.6243 93.486 99.6574 93.4639 100.044 93.5413C100.265 93.5855 100.674 93.7071 100.951 93.8065C101.514 94.0165 102.785 94.1823 104.487 94.2818L105.659 94.3371L106.068 93.8839C106.289 93.6297 106.488 93.3202 106.488 93.1765C106.51 92.8892 106.51 92.9776 106.422 92.1486C106.344 91.5297 106.366 91.4523 106.599 91.2312C106.797 91.0434 106.941 90.9991 107.217 91.0544C107.45 91.0986 107.615 91.0655 107.737 90.9439C107.958 90.7118 107.958 90.7228 107.693 90.1812C107.472 89.7281 106.764 89.1975 106.201 89.0539C105.891 88.9765 104.885 89.2528 104.056 89.6397C103.592 89.8607 103.415 89.8939 103.283 89.8054C103.183 89.7281 102.896 89.5402 102.631 89.3854C102.166 89.0981 102.144 89.0981 101.691 89.2749C101.437 89.3744 101.05 89.6176 100.84 89.8165C100.409 90.2144 100.1 90.3802 99.4585 90.557C99.0164 90.6897 98.9832 90.6786 97.2701 90.2476C96.828 90.137 96.3085 89.5954 96.3085 89.2528C96.3085 89.087 96.3858 88.7554 96.4743 88.5123C96.8722 87.3849 96.618 86.7328 95.5679 86.2244C95.159 86.0254 94.6506 85.6828 94.4295 85.4728C93.8548 84.9312 93.3021 84.478 93.1916 84.478C93.1474 84.478 93.1032 84.1133 93.1032 83.6712C93.1032 83.2291 93.0479 82.8091 92.9816 82.7428C92.9042 82.6654 93.0921 82.6101 93.6448 82.577C94.3411 82.5217 94.4848 82.4665 95.1148 82.0133C95.8443 81.4938 96.5295 81.1622 96.8611 81.1622C97.1706 81.1622 97.6127 80.6649 97.6901 80.2338C97.7564 79.8912 97.8006 79.858 97.9664 79.9464C98.0769 80.0128 98.3532 80.057 98.5743 80.057C98.8948 80.057 99.0053 80.0017 99.1601 79.7254C99.2596 79.5485 99.4253 79.3938 99.5138 79.3938C99.6022 79.3938 100.033 79.1396 100.453 78.8412C102.034 77.7248 102.874 77.4043 104.266 77.4043C105.106 77.4043 105.25 77.3712 105.438 77.1722C105.549 77.0396 105.792 76.8627 105.98 76.7633C106.477 76.498 108.279 75.7464 108.433 75.7464C108.511 75.7464 108.754 75.868 108.975 76.0227C109.417 76.3211 109.627 76.3543 110.058 76.1885C110.345 76.078 110.5 75.8238 110.843 74.8401C111.031 74.3317 111.042 74.3317 111.605 74.2764C113.208 74.1106 113.551 74.0001 113.982 73.5138C114.645 72.7511 114.866 72.6074 115.573 72.4638C116.458 72.298 117.917 72.2869 118.613 72.4416C119.608 72.6738 120.215 72.298 120.403 71.3364C120.459 71.0269 120.591 70.618 120.691 70.4301C120.834 70.1427 120.845 70.0322 120.735 69.8222C120.525 69.4464 120.746 66.7937 121 66.5837C121.078 66.5174 121.674 66.3958 122.327 66.3074C124.04 66.0863 124.482 65.7548 124.968 64.34C125.377 63.1684 125.322 63.2016 126.228 63.4226C126.825 63.5663 127.378 63.5995 128.814 63.5663C130.561 63.5332 130.649 63.5221 131.147 63.2347C131.743 62.87 132.119 62.2179 132.119 61.4995C132.119 61.1679 132.197 60.9247 132.396 60.6705C132.694 60.2837 133.003 59.3995 133.003 58.9352C133.003 58.7363 132.915 58.6147 132.716 58.5152C132.473 58.4047 132.44 58.3384 132.495 58.0842C132.705 57.1558 132.705 57.0452 132.396 56.2605C131.821 54.7352 131.766 54.6357 131.489 54.5694C131.257 54.5031 131.235 54.4589 131.301 54.0942C131.478 53.1436 131.478 53.1436 132.053 53.1105C132.915 53.0552 133.667 52.4584 133.667 51.8284C133.667 51.2978 133.423 51.132 132.926 51.3089C132.617 51.4305 132.484 51.4305 132.285 51.3199C131.987 51.1541 131.301 50.2478 131.423 50.1815C131.478 50.1483 131.788 50.0489 132.119 49.9604C132.805 49.7615 133.048 49.5515 133.556 48.6783C133.744 48.3468 134.02 47.982 134.164 47.8715C134.794 47.3852 134.761 46.0036 134.109 45.2409L133.788 44.8651L134.175 44.4451C134.385 44.213 134.551 43.9257 134.551 43.793C134.551 43.4504 133.91 42.9199 133.49 42.9199C133.158 42.9199 132.462 43.3399 132.13 43.7267C132.053 43.8262 131.942 43.9146 131.887 43.9146C131.777 43.9146 130.793 42.6436 130.793 42.4999C130.793 42.4446 130.627 42.2125 130.428 41.9804C130.097 41.6157 130.019 41.5714 129.4 41.5493C128.649 41.5051 128.394 41.3946 127.731 40.7756L127.267 40.3446L126.372 40.5435L125.477 40.7425L125.079 40.3446C124.869 40.1235 124.626 39.9356 124.537 39.9356C124.46 39.9356 124.228 39.7367 124.04 39.4935C123.697 39.0625 123.664 39.0514 123.023 39.0514C122.194 39.0514 121.719 38.8193 121.21 38.1783C120.624 37.4377 120.425 37.283 120.017 37.283C119.475 37.283 119.188 37.6919 119.188 38.4877C119.177 38.8304 119.11 39.2283 119.033 39.372L118.889 39.6262L118.679 39.3609C118.569 39.2172 118.082 38.8083 117.618 38.4656C117.143 38.1119 116.634 37.6698 116.469 37.4598C116.137 37.0509 115.761 36.1446 115.761 35.7577C115.761 35.5919 115.607 35.404 115.275 35.1609C114.91 34.9177 114.711 34.6525 114.523 34.2214C114.203 33.4919 113.993 33.4145 113.208 33.7793C112.876 33.923 112.379 34.1551 112.092 34.2877C111.804 34.4093 111.307 34.5751 110.986 34.6414C110.666 34.7077 109.981 34.9067 109.461 35.0835C108.334 35.4704 107.682 35.4925 107.096 35.1719C106.621 34.9177 106.057 34.9509 105.814 35.2382C105.736 35.3267 105.648 35.404 105.604 35.404C105.56 35.404 105.394 35.0835 105.217 34.6856C105.04 34.2656 104.742 33.8235 104.51 33.6245C104.145 33.304 104.09 33.2819 103.559 33.3593C103.25 33.4035 102.697 33.4588 102.343 33.4698C101.901 33.4919 101.592 33.5803 101.382 33.7351C101.205 33.8677 101.028 33.9672 100.984 33.9561C100.895 33.9561 100.31 33.2377 99.7017 32.3977C99.2706 31.8119 99.2043 31.3035 99.5027 30.9166C99.8453 30.4856 99.7901 29.9882 99.2927 28.9271C99.0495 28.4077 98.8506 27.9213 98.8506 27.844C98.8506 27.7666 98.9501 27.6119 99.0717 27.5014C99.1932 27.3908 99.2927 27.214 99.2927 27.1034C99.2927 26.9045 98.7069 26.3408 98.4969 26.3408C98.4306 26.3408 98.1653 26.2303 97.9111 26.1087C97.4027 25.8545 97.2369 25.6003 97.1264 24.8929C97.0269 24.274 96.7064 24.1303 95.9769 24.3845C95.1811 24.6719 94.529 24.6276 93.7885 24.2408C92.86 23.7655 91.9537 23.5555 91.4121 23.6992C90.8042 23.865 90.6716 23.7213 90.8153 23.0803C90.9037 22.6934 90.8926 22.4945 90.749 22.1408C90.6495 21.8866 90.6274 21.6766 90.6826 21.6324C90.8484 21.5329 90.7932 21.0024 90.5832 20.6818C90.4726 20.516 90.1963 20.2176 89.9642 20.0187L89.5442 19.665L90.5058 19.2008C91.5779 18.6702 91.7658 18.4823 91.7769 17.985C91.7769 17.6976 91.6111 17.4655 90.8926 16.7139C90.0637 15.8297 89.5442 15.0118 89.3895 14.3265C89.3563 14.1497 89.29 13.8181 89.2458 13.5639C89.1574 13.0886 88.3395 11.7733 87.809 11.2649C87.4553 10.9333 86.1953 10.4249 85.72 10.4249C85.5542 10.4249 85.3 10.5244 85.1452 10.646C84.7695 10.9333 84.7031 10.9223 83.7747 10.4802C82.7468 9.98281 82.1831 9.9607 81.8073 10.4028ZM89.7653 82.3338C89.9863 82.5549 90.329 82.8091 90.5058 82.8865C90.8263 83.0301 90.8263 83.0301 90.2074 83.0412C89.6326 83.0412 89.5221 83.008 89.1353 82.6543C88.9032 82.4443 88.649 82.2675 88.5826 82.2675C88.4168 82.2675 88.4279 82.0796 88.6047 82.0133C89.0026 81.8475 89.3674 81.947 89.7653 82.3338ZM91.7769 82.2565C91.7769 82.3117 91.6995 82.4112 91.6111 82.4886C91.4674 82.5991 91.4453 82.588 91.4453 82.3891C91.4453 82.2565 91.5116 82.157 91.6111 82.157C91.6995 82.157 91.7769 82.2012 91.7769 82.2565ZM91.2242 82.9859C91.1469 83.0854 91.0584 83.1296 91.0363 83.1075C90.959 83.0301 91.1137 82.8201 91.2463 82.8201C91.3127 82.8201 91.3127 82.8865 91.2242 82.9859Z" fill="#0048B1"/>
<path d="M43 50.6619H63.72H99L71 4L43 50.6619Z" fill="white"/>
<path d="M99 49.9856H78.28H43L71 98L99 49.9856Z" fill="white"/>
<path d="M71 4L99 50.6619H63.72M71 4L43 50.6619H63.72M71 4L63.72 50.6619M71 98L43 49.9856H78.28M71 98L99 49.9856H78.28M71 98L78.28 49.9856" stroke="#0048B1" stroke-width="3.5"/>
</svg>
