<svg width="199" height="54" fill="none" xmlns="http://www.w3.org/2000/svg"><path fill-rule="evenodd" clip-rule="evenodd" d="M104.667 25.476c1.473-1.184 2.209-2.817 2.209-4.834 0-2.976-1.728-4.833-5.41-6.37l-2.432-1.024c-1.377-.544-1.825-.96-1.825-1.728 0-.897.64-1.345 1.889-1.345 1.504 0 2.464.704 3.489 2.24l3.681-2.816c-1.441-2.849-3.841-4.257-7.234-4.257-2.177 0-3.97.576-5.346 1.728-1.377 1.12-2.049 2.625-2.049 4.514 0 2.688 1.793 4.801 5.346 6.37l2.177.96c1.664.736 2.144 1.024 2.144 1.952 0 1.025-.736 1.537-2.176 1.537-1.793 0-3.361-.896-4.706-2.72l-3.713 2.816c1.536 2.913 4.545 4.738 8.675 4.738 2.08.032 3.841-.577 5.281-1.761zm12.452 1.376v-8.834l4.354 5.09h1.76l4.386-5.122v8.866h5.505V5.342h-1.76l-8.995 10.98-8.995-10.98h-1.76v21.51h5.505zm26.473-1.76l-.768 1.76h-5.922l9.603-21.51h1.76l9.603 21.51h-5.922l-.768-1.76h-7.586zm5.634-4.418h-3.682l1.857-4.897 1.825 4.897zm17.925-.384v6.562h-5.506V5.726h8.291c2.369 0 4.321.672 5.858 1.984 1.536 1.313 2.305 3.073 2.305 5.282 0 2.657-1.121 4.674-3.329 6.018l5.569 7.842h-6.146l-4.769-6.562h-2.273zm2.817-4.801h-2.817v-4.962h2.817c1.537 0 2.529.96 2.529 2.465 0 1.504-.992 2.497-2.529 2.497zm22.567-4.802v16.165h-5.505V10.687h-6.338V5.726h18.181v4.961h-6.338z" fill="#280460"/><path fill-rule="evenodd" clip-rule="evenodd" d="M128.024 48.671c1.808 0 3.331-.628 4.587-1.865 1.256-1.256 1.884-2.798 1.884-4.606 0-1.827-.628-3.369-1.884-4.606-1.256-1.237-2.779-1.865-4.587-1.865-1.789 0-3.312.628-4.549 1.865-1.237 1.237-1.865 2.779-1.865 4.606 0 1.808.628 3.35 1.865 4.606 1.237 1.237 2.76 1.865 4.549 1.865zm-34.33-5.824v5.634h-.989V35.919h4.264c1.16 0 2.093.324 2.778.97.686.648 1.028 1.485 1.028 2.494 0 1.009-.342 1.846-1.028 2.493-.666.648-1.599.971-2.778.971h-3.274zm0-.894h3.236c1.809 0 2.817-1.047 2.817-2.57s-1.008-2.57-2.817-2.57h-3.235v5.14zm14.701 6.528v-5.634h3.064l4.225 5.634h1.161l-4.244-5.71c1.808-.324 2.874-1.618 2.874-3.502a3.16 3.16 0 00-1.028-2.38c-.685-.646-1.618-.97-2.779-.97h-4.263v12.562h.99zm0-6.528h3.235c1.808 0 2.817-1.047 2.817-2.57s-1.009-2.57-2.817-2.57h-3.235v5.14zm15.803 4.187c1.028 1.066 2.303 1.599 3.845 1.599 1.542 0 2.836-.533 3.864-1.6 1.028-1.065 1.542-2.378 1.542-3.939 0-1.58-.514-2.893-1.561-3.959-1.028-1.066-2.303-1.599-3.845-1.599-1.542 0-2.817.533-3.845 1.6-1.027 1.046-1.541 2.36-1.541 3.939 0 1.58.514 2.893 1.541 3.959zm22.713 2.531c2.113 0 3.959-.97 5.082-2.55l-.742-.59c-1.047 1.465-2.474 2.208-4.321 2.208-1.541 0-2.836-.533-3.863-1.58-1.028-1.066-1.542-2.38-1.542-3.959 0-1.58.514-2.912 1.542-3.959 1.046-1.066 2.322-1.599 3.863-1.599 1.827 0 3.274.743 4.321 2.227l.742-.59c-1.123-1.58-2.969-2.55-5.082-2.55-1.808 0-3.331.628-4.568 1.865-1.237 1.237-1.865 2.779-1.865 4.606s.628 3.369 1.865 4.606c1.237 1.237 2.76 1.865 4.568 1.865zm20.029-1.085v.895h-8.089V35.919h7.861v.895h-6.871v4.434h5.348v.895h-5.348v5.443h7.099zm10.228 1.085c1.046 0 1.922-.304 2.664-.913.742-.628 1.123-1.39 1.123-2.284 0-.895-.228-1.6-.704-2.094-.457-.514-1.18-1.009-2.189-1.485l-1.408-.685c-.686-.323-1.238-.647-1.637-.97-.4-.324-.59-.819-.59-1.504s.266-1.2.78-1.56c.514-.362 1.142-.534 1.846-.534 1.276 0 2.284.552 3.046 1.637l.723-.552c-.876-1.332-2.189-1.998-3.94-1.998-.914 0-1.732.285-2.436.837s-1.047 1.275-1.047 2.17c0 .876.247 1.542.723 2.018.476.475 1.161.913 2.056 1.332l1.427.685c.838.4 1.428.78 1.789 1.142.362.343.533.857.533 1.542 0 1.351-1.18 2.284-2.855 2.284-1.56 0-2.817-.762-3.787-2.284l-.742.552c.989 1.656 2.569 2.664 4.625 2.664zm17.021-.913c-.742.609-1.617.913-2.664.913-2.056 0-3.635-1.008-4.625-2.664l.742-.552c.971 1.522 2.227 2.284 3.788 2.284 1.675 0 2.855-.933 2.855-2.284 0-.685-.172-1.2-.533-1.542-.362-.362-.952-.742-1.789-1.142l-1.428-.685c-.894-.419-1.58-.857-2.055-1.332-.476-.476-.724-1.142-.724-2.018 0-.895.343-1.618 1.047-2.17a3.86 3.86 0 012.436-.837c1.751 0 3.065.666 3.94 1.998l-.723.552c-.761-1.085-1.77-1.637-3.045-1.637-.705 0-1.333.172-1.847.533-.513.362-.78.876-.78 1.561 0 .685.19 1.18.59 1.504.4.323.952.647 1.637.97l1.408.685c1.009.476 1.732.971 2.189 1.485.476.495.704 1.2.704 2.094 0 .894-.38 1.656-1.123 2.284z" fill="#635FB5"/><path fill-rule="evenodd" clip-rule="evenodd" d="M56.205 29.398a2.583 2.583 0 012.777 1.208l6.552-3.555-3.409-5.39-7.807 1.516 1.887 6.22zm5.65-5.336a.959.959 0 11-1.916-.001.959.959 0 011.917.001zm-13.114 1.67l4.518-2.14-1.914 4.117-2.604-1.977zm19.882 9.075a1.984 1.984 0 002.523-.342l4.66 3.315-3.647 4.732-7.719-2.658 4.183-5.047zm-.474-.42a1.975 1.975 0 01.262-2.793l-2.534-4.008-6.64 3.6A2.571 2.571 0 0157.7 34.31l1.09 3.593 5.01 1.727 4.35-5.243zm.801-3.112l-2.353-3.724 6.683.654-2.639 3.178a1.98 1.98 0 00-.963-.246c-.254 0-.5.046-.728.138zm-7.807 11.56a1.178 1.178 0 011.452-1.754l.77-.927-4.352-1.5 1.498 4.943.632-.762zm-4.383-8.344c.108 0 .216-.008.324-.02l.962 3.182-9.155-3.154 2.7-5.81 2.827 2.148c-.15.326-.235.692-.235 1.077a2.574 2.574 0 002.577 2.577zm2.465 11.472c-.408.434-.747.784-.998 1.034a5.46 5.46 0 01-.47.431l-.62 6.244 6.078-7.41-2.777-1.607c-.246.269-.728.792-1.213 1.308zM51.861 28.1l2.889 2.197c.23-.289.523-.523.858-.689l-1.756-5.793-1.991 4.285zm.254 11.41a1.488 1.488 0 00-1.78-1.462l-1.197-2.796 9.136 3.147 1.656 5.462-7.6-1.158-.847-1.977c.382-.27.632-.712.632-1.216zm-8.886-6.963l5.057 1.743 2.785-5.993-2.877-2.19-4.965 6.44zm16.516 11.926c-1.036 1.127-2.095 2.235-2.369 2.45-.13.023-.454.131-1.637.654-.423.189-.84.377-1.105.5l-2.01-4.693 7.121 1.089zm2.357-1.147a1.17 1.17 0 01-.466-.096l-.778.935 2.927 1.697 5.397.096 2.538-2.928-7.715-2.658-.924 1.12a1.178 1.178 0 01-.978 1.835zm-8.146 4.782l-3.432-.515-4.444-2.732-.578-2.558 6.386.973 2.068 4.832zM42.898 33.106l5.123 1.762-3.085 6.644-1.976-.839-1.433-3.912 1.371-3.655zm1.895 3.297c.42 0 .763-.342.763-.762a.764.764 0 00-1.525 0 .764.764 0 00.762.762zm4.345 3.108c0 .823.666 1.489 1.49 1.489.093 0 .185-.008.274-.023l.693 1.62-6.035-.92 2.93-6.32 1.264 2.946a1.493 1.493 0 00-.616 1.208zM78.807 28.11l-2.377-2.712-1.902 2.293 4.279.419zm-1.51 10.733a1.117 1.117 0 001.768 1.262l1.232.877-4.371 2.431-3.1-.723 3.5-4.543.97.696zm-14.34-17.05l3.213 5.078 7.599.747 2.107-2.543-4.853-1.431-8.066-1.85zm15.376 16.354a1.11 1.11 0 00-.64.2l-.985-.704 5.018-6.506.463 3.951-1.487 5.405-1.298-.923c.027-.096.042-.2.042-.308a1.111 1.111 0 00-1.113-1.115zm-7.191-6.37l2.896-3.498 5.412.531 2.06 1.573-5.315 6.894-4.699-3.343a1.977 1.977 0 00-.354-2.158zm3.675-.3a.637.637 0 100-1.278.637.637 0 100 1.277z" fill="url(#paint0_linear)" opacity=".448"/><path fill-rule="evenodd" clip-rule="evenodd" d="M39.282 11.533a3.848 3.848 0 00-4.136 1.796l-9.758-5.284L30.465.033l11.628 2.253-2.811 9.247zM30.866 3.6c0 .79.643 1.424 1.429 1.424.785 0 1.422-.64 1.428-1.424 0-.789-.637-1.424-1.428-1.424-.792 0-1.429.64-1.429 1.424zM50.4 6.083l-6.729-3.18 2.851 6.12 3.878-2.94zm-29.612 13.49a2.936 2.936 0 01-1.572.452 2.957 2.957 0 01-2.185-.961l-6.941 4.93 5.432 7.033 11.496-3.952-6.23-7.502zm.706-.623a2.94 2.94 0 00-.39-4.152l3.774-5.959 9.89 5.353a3.823 3.823 0 002.289 4.643l-1.624 5.341-7.463 2.568-6.476-7.794zM20.3 14.323l3.505-5.535-9.953.972 3.93 4.723a2.953 2.953 0 011.433-.366c.38 0 .746.07 1.085.206zm11.627 17.184c.207-.286.328-.64.328-1.018a1.753 1.753 0 00-2.49-1.59l-1.147-1.378 6.482-2.23-2.232 7.348-.94-1.132zm6.529-12.403a4.53 4.53 0 01-.482-.029l-1.434 4.73 13.635-4.69-4.021-8.634-4.21 3.19a3.83 3.83 0 01-3.488 5.432zm-3.672 17.052a69.491 69.491 0 001.486 1.538c.327.32.54.52.7.64l.923 9.282-9.052-11.014 4.136-2.39c.367.4 1.085 1.178 1.807 1.944zm10.968-26.55L41.45 12.87a3.778 3.778 0 00-1.28-1.024l2.617-8.612 2.965 6.37zm-.378 16.96c0-1.223.992-2.213 2.22-2.213.149 0 .292.017.43.04l1.784-4.157-13.607 4.678-2.467 8.12 11.319-1.721 1.262-2.94a2.205 2.205 0 01-.941-1.807zm13.234-10.35l-7.532 2.59-4.148-8.909 4.286-3.253 7.394 9.572zM34.01 33.943c1.543 1.676 3.12 3.323 3.528 3.643.195.034.677.194 2.438.972.63.28 1.25.56 1.646.743l2.995-6.976-10.607 1.618zM30.5 32.24c.246 0 .481-.051.693-.143l1.159 1.39-4.36 2.522-8.037.142-3.78-4.351 11.49-3.952 1.377 1.664A1.753 1.753 0 0030.5 32.24zm12.132 7.108l5.11-.766 6.62-4.06.861-3.803-9.51 1.447-3.081 7.182zm16.47-22.302l-7.63 2.62 4.594 9.875 2.943-1.247 2.134-5.815-2.042-5.433zm-2.823 4.9a1.137 1.137 0 01-1.136-1.131 1.137 1.137 0 012.272 0 1.137 1.137 0 01-1.136 1.132zm-6.47 4.621a2.215 2.215 0 01-2.221 2.213c-.138 0-.275-.011-.407-.034l-1.033 2.407 8.99-1.366-4.366-9.396-1.882 4.38a2.22 2.22 0 01.918 1.796zM5.62 9.617l3.54-4.031 2.833 3.408-6.373.623zm2.25 15.954a1.662 1.662 0 01-2.633 1.876L3.4 28.751l6.511 3.614 4.618-1.075-5.215-6.754-1.445 1.035zM29.226.228L24.44 7.776l-11.318 1.11-3.137-3.78 7.227-2.128L29.227.228zm-22.9 24.308c.355 0 .682.109.952.298l1.468-1.047-7.474-9.67-.689 5.873 2.215 8.035 1.933-1.373a1.695 1.695 0 01-.063-.457 1.654 1.654 0 011.658-1.659zm10.71-9.47L12.722 9.87l-8.06.789-3.069 2.339L9.51 23.244l6.999-4.97a2.936 2.936 0 01.528-3.208zm-5.473-.445a.948.948 0 110-1.899.948.948 0 110 1.899z" fill="url(#paint1_linear)"/><defs><linearGradient id="paint0_linear" x1="96.965" y1="37.667" x2="63.419" y2="68.639" gradientUnits="userSpaceOnUse"><stop stop-color="#635FB5"/><stop offset="1" stop-color="#80C5FF"/></linearGradient><linearGradient id="paint1_linear" x1="-21.425" y1="23.824" x2="28.449" y2="69.96" gradientUnits="userSpaceOnUse"><stop stop-color="#635FB5"/><stop offset="1" stop-color="#80C5FF"/></linearGradient></defs></svg>