<svg width="442" height="276" viewBox="0 0 442 276" fill="none" xmlns="http://www.w3.org/2000/svg">
<path d="M110.2 71.8899V17.2099C110.2 -0.0600758 135.53 -1.12008 135.53 15.9199V72.4599C135.53 85.2799 138.09 92.6699 142.94 98.0499C147.05 102.58 151.98 101.57 163.36 102.53C167.89 102.92 170.72 108.29 170.41 113.42C170.11 118.4 166.65 123.17 156.79 123.22C123.44 123.36 110.2 117.13 110.2 71.8899V71.8899Z" fill="#2E56FC"/>
<path fill-rule="evenodd" clip-rule="evenodd" d="M351.33 97.07C351.49 102.01 342.29 103.9 338.71 100.49L309.05 72.32C305.47 68.92 305.32 63.2 308.72 59.62L338.75 28C342.16 24.42 351.38 25.76 351.56 30.7C352.41 54.03 350.58 72.08 351.33 97.07Z" fill="#0CD3CD"/>
<path d="M88.3301 185.13L81.3101 225.54C80.5501 229.11 80.0001 230.08 78.0801 230.08C76.0801 230.08 75.5301 229.18 74.8401 225.61L68.0301 191.8C66.1801 182.93 61.5001 179.42 54.0701 179.42C46.6401 179.42 41.7501 182.93 40.0301 191.8L33.2201 225.61C32.4701 229.18 31.9801 230.08 30.0601 230.08C28.0601 230.08 27.4401 229.11 26.8301 225.54L19.8101 185.13C19.1201 181.35 16.7801 179.42 12.9301 179.42H6.67007C2.33007 179.42 0.200073 182.03 0.960073 186.3L9.21007 232.9C11.0001 243.52 16.7801 248.33 27.7901 248.33C38.6601 248.33 44.6401 243.58 46.7701 232.97L53.1701 200.43C53.3101 199.74 53.5901 199.39 54.0701 199.39C54.5501 199.39 54.6901 199.74 54.8201 200.43L61.3601 232.97C63.2901 243.58 69.4101 248.33 80.3501 248.33C91.3601 248.33 96.9301 243.52 98.8501 232.9L107.18 186.3C107.93 182.03 105.8 179.42 101.47 179.42H95.1401C91.2901 179.42 89.0201 181.35 88.3301 185.13V185.13ZM167.72 185.77V216.75C167.72 228.88 163.32 232.26 153 232.26C142.68 232.26 138.27 228.88 138.27 216.75V185.77C138.27 181.69 136 179.42 131.95 179.42H125.48C121.42 179.42 119.15 181.69 119.15 185.77V216.48C119.15 241.2 131.6 248.35 153 248.35C174.39 248.35 186.84 241.2 186.84 216.48V185.77C186.84 181.69 184.57 179.42 180.52 179.42H174.05C169.99 179.42 167.72 181.69 167.72 185.77V185.77ZM235 178.18C213.61 178.18 201.15 185.34 201.15 210.06V240.76C201.15 244.82 203.42 247.12 207.48 247.12H213.95C218.01 247.12 220.28 244.82 220.28 240.76V209.76C220.28 197.65 224.68 194.28 235 194.28C245.32 194.28 249.72 197.65 249.72 209.76V240.76C249.72 244.82 251.99 247.12 256.05 247.12H262.52C266.58 247.12 268.85 244.82 268.85 240.76V210.06C268.85 185.34 256.4 178.18 235 178.18V178.18ZM294.62 170.61C301.78 170.61 305.29 166.69 305.29 160.09C305.29 153.48 301.78 149.42 294.62 149.42C287.52 149.42 283.94 153.48 283.94 160.09C283.94 166.69 287.52 170.61 294.62 170.61ZM291.16 247.12H298C302.05 247.12 304.32 244.85 304.32 240.76V185.77C304.32 181.69 302.05 179.42 298 179.42H291.16C287.1 179.42 284.83 181.69 284.83 185.77V240.76C284.83 244.85 287.1 247.12 291.16 247.12ZM364.8 188.78V185.75C364.8 181.69 362.53 179.42 358.47 179.42H339.75V170.06C339.75 166 337.48 163.73 333.43 163.73H326.59C322.53 163.73 320.26 166 320.26 170.06V222.12C320.26 246.22 337.76 251.79 359.64 246.57C363.08 245.88 364.73 243.33 364.73 239.82V236.38C364.73 233.01 363.08 231.36 358.81 231.36C356.4 231.36 354.06 232.12 350.42 232.12C342.85 232.12 339.75 229.16 339.75 222.12V195.1H358.47C362.53 195.1 364.8 192.83 364.8 188.78ZM422.75 185.77V231.64C418.89 232.05 415.52 232.26 412.57 232.26C399.22 232.26 393.85 227.65 393.85 212.14V185.77C393.85 181.69 391.58 179.42 387.52 179.42H381.06C377 179.42 374.73 181.69 374.73 185.77V213.31C374.73 239.55 389.04 248.35 413.12 248.35C416.14 248.35 419.38 248.22 422.75 247.94V249.39C422.75 257.09 416.28 260.19 406.99 260.19C402.38 260.19 397.43 259.43 392.13 258.26C387.73 257.3 385.12 259.29 385.12 263.76V266.31C385.12 270.02 386.83 272.5 390.48 273.4C396.88 275.05 403.21 275.87 409.05 275.87C427.56 275.87 441.87 267.62 441.87 249.39V185.77C441.87 181.69 439.6 179.42 435.54 179.42H429.07C425.02 179.42 422.75 181.69 422.75 185.77V185.77Z" fill="#222222"/>
<path fill-rule="evenodd" clip-rule="evenodd" d="M231.83 127.54C214.35 127.54 194.26 124.37 185.11 115.73L185.12 115.72C176.06 107.16 171.19 92.8698 171.19 70.4598C171.26 38.6698 167.7 0.66978 206.43 0.94978C224.7 1.07978 241.16 15.7198 239.29 53.0898V73.6298C239.29 90.8998 215.52 91.9598 215.52 74.9098V52.5198C215.6 37.2198 214.7 26.7298 206.32 26.2598C201.37 25.9798 196.77 27.5898 195.65 35.9498L195.39 40.2598C195.39 40.6998 195.4 41.1498 195.41 41.6198L196.53 71.0398C196.53 83.8498 198.76 92.2198 203.62 97.5898C208.52 103 222.02 104.94 231.83 104.94C241.64 104.94 255.87 103 260.77 97.5898C265.63 92.2198 267.87 83.8498 267.87 71.0398V13.1198C267.87 -0.730222 292.65 -2.38022 293.2 14.4098V70.4598C293.2 92.8798 288.33 107.17 279.29 115.72H279.28C270.13 124.37 249.31 127.54 231.83 127.54V127.54Z" fill="url(#paint0_linear)"/>
<defs>
<linearGradient id="paint0_linear" x1="221.23" y1="21.8198" x2="293.8" y2="122.77" gradientUnits="userSpaceOnUse">
<stop stop-color="#2E56FB"/>
<stop offset="1" stop-color="#03F1C1"/>
</linearGradient>
</defs>
</svg>
