<svg width="35" height="35" viewBox="0 0 35 35" fill="none" xmlns="http://www.w3.org/2000/svg">
<g clip-path="url(#clip0)">
<path d="M20.3397 1.28171C19.9337 1.08804 19.4553 1.13938 19.1053 1.42171L7.756 10.5007H2.33333C1.04767 10.5007 0 11.5484 0 12.834V22.1674C0 23.4554 1.04767 24.5007 2.33333 24.5007H7.756L19.103 33.5797C19.3153 33.7477 19.5743 33.834 19.8333 33.834C20.006 33.834 20.1787 33.7944 20.3397 33.7174C20.7433 33.5237 21 33.1154 21 32.6674V2.33404C21 1.88604 20.7433 1.47771 20.3397 1.28171Z" fill="white"/>
<path d="M26.9057 9.25004C26.446 8.79738 25.7087 8.80438 25.256 9.25938C24.8034 9.71904 24.808 10.4564 25.2654 10.9114C27.0294 12.652 28 14.9924 28 17.5007C28 20.009 27.0294 22.3494 25.2654 24.09C24.808 24.5404 24.8034 25.28 25.256 25.7397C25.4847 25.9707 25.7857 26.085 26.0844 26.085C26.3807 26.085 26.677 25.973 26.9057 25.7467C29.1177 23.5697 30.3334 20.639 30.3334 17.5007C30.3334 14.3624 29.1177 11.4317 26.9057 9.25004Z" fill="white"/>
<path d="M30.1981 5.96242C29.7384 5.50742 29.0011 5.51208 28.5461 5.96942C28.0935 6.42675 28.0981 7.16642 28.5531 7.61908C31.2061 10.2488 32.6668 13.7581 32.6668 17.5008C32.6668 21.2434 31.2061 24.7504 28.5531 27.3801C28.0981 27.8351 28.0935 28.5748 28.5461 29.0321C28.7771 29.2608 29.0758 29.3751 29.3744 29.3751C29.6708 29.3751 29.9694 29.2631 30.1981 29.0368C33.2968 25.9684 35.0001 21.8711 35.0001 17.5008C35.0001 13.1304 33.2968 9.03308 30.1981 5.96242Z" fill="white"/>
<rect y="33.1697" width="45.4949" height="1.94839" rx="0.974193" transform="rotate(-45 0 33.1697)" fill="#D01A1A"/>
</g>
<defs>
<clipPath id="clip0">
<rect width="35" height="35" fill="white"/>
</clipPath>
</defs>
</svg>
