<svg width="1440" height="647" fill="none" xmlns="http://www.w3.org/2000/svg"><path d="M1157.9 467h79.47c3.95.01 7.73 1.588 10.52 4.389 2.78 2.8 4.35 6.593 4.34 10.547v20.64a14.86 14.86 0 01-4.71 10.849l-.1.09a16.027 16.027 0 01-5.29 3.156l-.25.105c-1.45.464-2.97.7-4.5.699h-27.23a31.99 31.99 0 00-18.82 6.115 32.135 32.135 0 00-11.65 16.026 3.07 3.07 0 01-.88 1.358c-.42.363-.92.605-1.46.701-.08.007-.16.007-.24 0h-.29c-.45-.002-.9-.101-1.3-.292a3.084 3.084 0 01-1.06-.813l-28.15-35.237a14.984 14.984 0 01-3.3-9.392v-14.005a14.938 14.938 0 014.36-10.561 14.867 14.867 0 014.84-3.238 14.81 14.81 0 015.7-1.137zm88.39 21.939v-7.003c0-2.363-.93-4.631-2.6-6.305a8.883 8.883 0 00-6.28-2.628h-79.51c-2.36.006-4.62.95-6.29 2.625a8.925 8.925 0 00-2.6 6.308v14.02a9.128 9.128 0 002.01 5.62l24.97 31.278a38.04 38.04 0 0114.03-15.608 37.911 37.911 0 0120.16-5.767h.93c.13-.01.26-.01.4 0h25.9c.86-.006 1.72-.13 2.54-.368 1.3-.45 2.49-1.152 3.51-2.066a8.878 8.878 0 002.09-2.939c.49-1.113.74-2.315.74-3.53v-12.901a1.75 1.75 0 01-.04-.323c0-.139.01-.277.04-.413zm-49.45-346.266h79.47a14.9 14.9 0 0014.86-14.936v-20.639a14.864 14.864 0 00-4.71-10.85l-.1-.09a16.02 16.02 0 00-5.29-3.155l-.25-.105a14.79 14.79 0 00-4.5-.7h-27.23a31.99 31.99 0 01-18.82-6.115 32.132 32.132 0 01-11.65-16.026 3.068 3.068 0 00-.88-1.357 3.04 3.04 0 00-1.46-.702 1.3 1.3 0 00-.24 0h-.29c-.45.002-.9.102-1.31.292-.4.19-.76.468-1.05.813l-28.15 35.237a14.984 14.984 0 00-3.3 9.392v14.005a14.938 14.938 0 004.36 10.561 14.916 14.916 0 004.83 3.238c1.81.751 3.75 1.137 5.71 1.137zm88.39-21.939v7.003c0 2.363-.93 4.631-2.6 6.306a8.887 8.887 0 01-6.28 2.627h-79.51a8.916 8.916 0 01-8.89-8.933v-14.02a9.182 9.182 0 012-5.62l24.98-31.278a37.971 37.971 0 0014.03 15.608 37.917 37.917 0 0020.16 5.767h.93c.13.01.26.01.4 0h25.9c.86.006 1.72.13 2.54.369 1.3.45 2.49 1.152 3.51 2.066.89.824 1.6 1.825 2.09 2.938.49 1.113.74 2.315.74 3.531v12.9c-.02.107-.04.215-.04.323 0 .139.01.277.04.413zM1259.4 81.36a25.042 25.042 0 0017.65-7.234 25.064 25.064 0 007.44-17.564v-.473a25.022 25.022 0 00-30.83-24.197 25.015 25.015 0 00-12.73 7.521c-.12.102-.18.186-.16.186l-.15.178-.07.092-.09.102-1.43 1.815c-.12.101-.22.217-.31.346a25.117 25.117 0 00-4.35 12.718c-.27 4.557.72 9.1 2.85 13.138a25.076 25.076 0 0022.18 13.38v-.008zm-13.51-37.396a18.35 18.35 0 019.29-5.476 18.343 18.343 0 0119.28 7.339 18.325 18.325 0 013.29 10.27v.397a18.35 18.35 0 01-5.56 12.699 18.378 18.378 0 01-12.87 5.18c-4.8-.023-9.4-1.925-12.81-5.298a18.286 18.286 0 01-5.45-12.75c0-3.664 1.1-7.242 3.17-10.267l1.52-1.908.12-.177.02-.009zM1398.89 0h-79.48c-3.95.01-7.73 1.588-10.51 4.389a14.939 14.939 0 00-4.35 10.547v20.64a14.86 14.86 0 004.71 10.849l.1.09a16.068 16.068 0 005.3 3.156l.24.105c1.46.464 2.98.7 4.5.698h27.23a31.992 31.992 0 0118.82 6.116 32.014 32.014 0 0111.65 16.026c.17.525.47.995.89 1.358.41.363.91.605 1.45.7.08.008.16.008.24 0h.3a3.096 3.096 0 002.36-1.104l28.14-35.237a14.924 14.924 0 003.3-9.392V14.937a14.94 14.94 0 00-4.36-10.562 14.82 14.82 0 00-4.83-3.238 14.89 14.89 0 00-5.7-1.137zm-88.4 21.939v-7.002c0-2.364.94-4.632 2.6-6.306a8.884 8.884 0 016.28-2.628h79.52c2.36.006 4.62.95 6.28 2.625a8.937 8.937 0 012.61 6.309v14.02a9.253 9.253 0 01-2.01 5.62l-24.98 31.277a37.972 37.972 0 00-14.03-15.608 37.89 37.89 0 00-20.16-5.767h-.93c-.13-.01-.26-.01-.39 0h-25.91a9.407 9.407 0 01-2.54-.368 10.393 10.393 0 01-3.51-2.066 8.876 8.876 0 01-2.09-2.939 8.932 8.932 0 01-.74-3.53v-12.9c.03-.107.04-.215.04-.324 0-.139-.01-.277-.04-.413z" fill="#fff" fill-opacity=".6"/><path d="M1336.32 61.313a25.041 25.041 0 00-17.65 7.234 25.012 25.012 0 00-7.43 17.564v.473c.02 5.04 1.57 9.953 4.44 14.097a25.028 25.028 0 0026.39 10.1 24.98 24.98 0 0012.72-7.522c.12-.101.18-.185.16-.185l.15-.178.07-.093.1-.101 1.42-1.815c.12-.101.22-.218.31-.346a25.026 25.026 0 004.35-12.719c.27-4.556-.72-9.099-2.84-13.137a25.077 25.077 0 00-22.19-13.38v.008zm13.52 37.395a18.344 18.344 0 01-20.07 4.775 18.275 18.275 0 01-8.5-6.637 18.259 18.259 0 01-3.3-10.27v-.397a18.35 18.35 0 015.56-12.7 18.378 18.378 0 0112.87-5.179c4.8.023 9.4 1.924 12.82 5.298a18.372 18.372 0 015.45 12.75c0 3.664-1.11 7.242-3.18 10.267l-1.52 1.908-.12.177-.01.008z" fill="#4EBA66" fill-opacity=".3"/><path d="M1388.55 142.673h79.48c3.95-.01 7.73-1.588 10.51-4.388 2.79-2.8 4.35-6.594 4.35-10.548v-20.639a14.806 14.806 0 00-4.72-10.85l-.09-.09a16.167 16.167 0 00-5.3-3.155l-.24-.105c-1.46-.465-2.98-.7-4.5-.7h-27.23a32.043 32.043 0 01-18.83-6.115 32.055 32.055 0 01-11.64-16.026 3.004 3.004 0 00-.89-1.357 2.965 2.965 0 00-1.45-.702 1.3 1.3 0 00-.24 0h-.3a3.098 3.098 0 00-2.36 1.105l-28.14 35.237a14.926 14.926 0 00-3.3 9.392v14.005a14.938 14.938 0 004.36 10.561 14.81 14.81 0 004.83 3.238c1.81.751 3.75 1.137 5.7 1.137zm88.39-21.939v7.003a8.916 8.916 0 01-2.59 6.306 8.887 8.887 0 01-6.28 2.627h-79.52a8.875 8.875 0 01-6.28-2.624 8.938 8.938 0 01-2.61-6.309v-14.02a9.254 9.254 0 012.01-5.62l24.98-31.278a37.971 37.971 0 0014.03 15.608 37.892 37.892 0 0020.16 5.767h.93c.13.01.26.01.39 0h25.91c.86.006 1.71.13 2.54.369a10.39 10.39 0 013.51 2.066c.89.824 1.6 1.825 2.09 2.938a8.92 8.92 0 01.73 3.531v12.9c-.02.107-.03.215-.03.323 0 .139.01.277.03.413zm-25.82-39.374a25.042 25.042 0 0017.65-7.234 25.012 25.012 0 007.43-17.564v-.473a24.933 24.933 0 00-4.44-14.097 25.022 25.022 0 00-11.63-9.128 25.053 25.053 0 00-14.76-.972 24.987 24.987 0 00-12.72 7.521c-.12.102-.18.186-.16.186l-.15.178-.07.092-.1.102-1.42 1.815c-.12.101-.22.217-.31.346a25.024 25.024 0 00-4.35 12.718c-.27 4.557.72 9.1 2.84 13.138a25.076 25.076 0 0022.19 13.38v-.008zm-13.52-37.396a18.337 18.337 0 0120.07-4.774 18.272 18.272 0 018.5 6.637 18.259 18.259 0 013.3 10.27v.397a18.317 18.317 0 01-5.57 12.699 18.337 18.337 0 01-12.86 5.18c-4.8-.023-9.4-1.925-12.82-5.298a18.371 18.371 0 01-5.45-12.75 18.18 18.18 0 013.18-10.267l1.52-1.908.12-.177.01-.009zm-422.15 112.085h-79.474a14.884 14.884 0 00-10.513 4.388 14.947 14.947 0 00-4.348 10.548v20.639a14.877 14.877 0 004.716 10.85l.098.09a16.078 16.078 0 005.293 3.155l.248.106c1.454.464 2.972.7 4.498.698H963.2a32 32 0 0118.821 6.116 32.107 32.107 0 0111.65 16.026 2.995 2.995 0 002.339 2.059c.08.007.16.007.24 0h.292a3.098 3.098 0 002.362-1.105l28.146-35.237a14.984 14.984 0 003.3-9.392v-14.005a14.938 14.938 0 00-4.36-10.561 14.867 14.867 0 00-4.84-3.238 14.81 14.81 0 00-5.7-1.137zm-88.389 21.939v-7.003a8.93 8.93 0 012.596-6.305 8.896 8.896 0 016.281-2.628h79.512a8.916 8.916 0 018.89 8.933v14.02a9.13 9.13 0 01-2.01 5.62l-24.971 31.278a38.016 38.016 0 00-14.031-15.608 37.904 37.904 0 00-20.158-5.767h-.93a2.63 2.63 0 00-.397 0h-25.905a9.428 9.428 0 01-2.542-.368 10.36 10.36 0 01-3.508-2.067 8.807 8.807 0 01-2.827-6.469v-12.9a1.837 1.837 0 000-.736zm25.827 39.374a25.05 25.05 0 00-17.652 7.234 25.027 25.027 0 00-7.433 17.564v.473a25.012 25.012 0 0016.075 23.224 25.026 25.026 0 0027.482-6.549c.118-.101.177-.186.161-.186l.143-.177.076-.093.093-.101 1.427-1.815c.117-.101.219-.218.305-.346a25.059 25.059 0 001.507-25.857 25.062 25.062 0 00-22.184-13.379v.008zm13.514 37.395a18.329 18.329 0 01-31.868-12.133v-.397a18.348 18.348 0 0118.433-17.878 18.356 18.356 0 0112.817 5.298 18.346 18.346 0 015.449 12.749 18.174 18.174 0 01-3.175 10.267l-1.521 1.909-.118.177-.017.008zm38.718 43.965h79.48c3.94-.01 7.72-1.589 10.51-4.389 2.79-2.8 4.35-6.594 4.35-10.548v-20.639a15.04 15.04 0 00-1.24-5.915 14.775 14.775 0 00-3.48-4.934l-.1-.09a16.027 16.027 0 00-5.29-3.156l-.25-.105c-1.45-.465-2.97-.7-4.5-.699h-27.23a31.99 31.99 0 01-18.82-6.115 32.134 32.134 0 01-11.65-16.027 2.988 2.988 0 00-2.34-2.058 1.203 1.203 0 00-.24 0h-.29c-.45.001-.89.101-1.3.292-.41.19-.77.468-1.06.812l-28.148 35.238a14.984 14.984 0 00-3.299 9.391v14.005a14.967 14.967 0 001.132 5.716 14.916 14.916 0 008.063 8.084 14.884 14.884 0 005.702 1.137zm88.39-21.939v7.002c0 2.364-.93 4.631-2.59 6.306a8.924 8.924 0 01-6.29 2.628h-79.51a8.905 8.905 0 01-6.288-2.625 8.942 8.942 0 01-2.603-6.309v-14.02a9.203 9.203 0 012.009-5.62l24.972-31.278a38.104 38.104 0 0014.03 15.608 37.938 37.938 0 0020.16 5.768h.93c.13.009.27.009.4 0h25.9c.86.006 1.72.13 2.55.368 1.29.45 2.48 1.152 3.5 2.066.9.825 1.61 1.825 2.09 2.938.49 1.114.74 2.316.74 3.531v12.9c-.02.107-.03.215-.04.324 0 .138.01.277.04.413zm-25.83-39.374a25.067 25.067 0 0017.66-7.234 25.013 25.013 0 007.43-17.564v-.473a25.019 25.019 0 00-4.45-14.097 24.972 24.972 0 00-11.63-9.128 25.027 25.027 0 00-27.48 6.549c-.12.102-.18.186-.16.186l-.14.177-.08.093-.09.102-1.43 1.815c-.11.101-.22.217-.3.346a25.038 25.038 0 00-4.36 12.718c-.26 4.557.72 9.1 2.85 13.138a25.08 25.08 0 0022.18 13.38v-.008zm-13.51-37.396a18.344 18.344 0 019.3-5.476c3.58-.851 7.33-.607 10.76.702a18.301 18.301 0 018.51 6.636 18.337 18.337 0 013.3 10.271v.397a18.318 18.318 0 01-5.57 12.699 18.337 18.337 0 01-12.86 5.179 18.341 18.341 0 01-12.82-5.297 18.33 18.33 0 01-5.45-12.75c0-3.664 1.11-7.243 3.17-10.267l1.53-1.908.11-.177.02-.009z" fill="#fff" fill-opacity=".6"/><path d="M1207.17 156.049h-79.48c-3.94.01-7.72 1.588-10.51 4.388a14.94 14.94 0 00-4.35 10.548v20.639c0 2.036.42 4.049 1.24 5.916a14.785 14.785 0 003.48 4.934l.1.09a16.024 16.024 0 005.29 3.155l.25.106c1.45.464 2.97.7 4.49.698h27.24a32.013 32.013 0 0118.82 6.116 32.131 32.131 0 0111.65 16.026 3.002 3.002 0 002.34 2.059c.08.007.16.007.24 0h.29a3.1 3.1 0 002.36-1.105l28.15-35.237a15.043 15.043 0 003.3-9.392v-14.005c0-1.961-.39-3.903-1.14-5.715a14.832 14.832 0 00-8.06-8.084 14.848 14.848 0 00-5.7-1.137zm-88.39 21.939v-7.003c0-2.363.93-4.631 2.59-6.305a8.924 8.924 0 016.29-2.628h79.51c2.36.006 4.62.95 6.29 2.624a8.971 8.971 0 012.6 6.309v14.02a9.192 9.192 0 01-2.01 5.62l-24.97 31.278a38.065 38.065 0 00-14.04-15.608 37.877 37.877 0 00-20.15-5.767h-.93a2.67 2.67 0 00-.4 0h-25.9a9.446 9.446 0 01-2.55-.368 10.484 10.484 0 01-3.51-2.067 8.695 8.695 0 01-2.08-2.938 8.759 8.759 0 01-.74-3.531v-12.9c.02-.106.03-.214.04-.323 0-.139-.02-.277-.04-.413z" fill="#4EBA66" fill-opacity=".3"/><path d="M1144.6 217.362a25.061 25.061 0 00-17.65 7.234 25.011 25.011 0 00-7.43 17.564v.473a25.018 25.018 0 004.45 14.096 24.989 24.989 0 0011.62 9.128 25.05 25.05 0 0014.76.973 25.05 25.05 0 0012.73-7.522c.12-.101.17-.186.16-.186l.14-.177.08-.093.09-.101 1.43-1.815c.11-.101.22-.218.3-.346a25.132 25.132 0 004.36-12.719c.26-4.556-.72-9.099-2.85-13.138a25.08 25.08 0 00-9.23-9.777 25.08 25.08 0 00-12.96-3.602v.008zm13.52 37.395a18.336 18.336 0 01-20.07 4.774 18.318 18.318 0 01-8.5-6.636 18.258 18.258 0 01-3.3-10.271v-.397a18.317 18.317 0 015.57-12.698 18.356 18.356 0 0131.13 12.867c0 3.664-1.11 7.243-3.18 10.267l-1.52 1.909-.11.177-.02.008zm38.72 43.965h79.47a14.9 14.9 0 0014.86-14.937v-20.639a14.856 14.856 0 00-4.71-10.849l-.1-.09a16.027 16.027 0 00-5.29-3.156l-.25-.105c-1.46-.465-2.97-.7-4.5-.699h-27.23a31.99 31.99 0 01-18.82-6.115 32.134 32.134 0 01-11.65-16.027 3.072 3.072 0 00-.88-1.357 3.043 3.043 0 00-1.46-.701 1.203 1.203 0 00-.24 0h-.29c-.45.001-.9.101-1.31.292-.4.19-.76.468-1.05.812l-28.15 35.238a14.98 14.98 0 00-3.3 9.391v14.005c0 1.961.38 3.903 1.13 5.716a15.015 15.015 0 003.23 4.845 14.919 14.919 0 004.83 3.239c1.81.75 3.75 1.137 5.71 1.137zm88.39-21.939v7.002c0 2.364-.93 4.631-2.6 6.306a8.883 8.883 0 01-6.28 2.628h-79.51a8.913 8.913 0 01-6.29-2.625 8.927 8.927 0 01-2.6-6.309v-14.02a9.182 9.182 0 012-5.62l24.98-31.278a37.966 37.966 0 0034.19 21.376h.93c.13.009.26.009.4 0h25.9c.86.006 1.72.13 2.54.368 1.3.45 2.49 1.152 3.51 2.066.89.825 1.6 1.825 2.09 2.938.49 1.114.74 2.316.74 3.531v12.9c-.02.107-.04.215-.04.324 0 .138.01.277.04.413zm-25.83-39.374a25.044 25.044 0 0017.65-7.234 25.065 25.065 0 007.44-17.564v-.473a25.019 25.019 0 00-4.45-14.097 25.032 25.032 0 00-39.11-2.579c-.12.102-.18.186-.16.186l-.15.177-.07.093-.09.102-1.43 1.815c-.12.101-.22.217-.31.346a25.12 25.12 0 00-4.35 12.718c-.27 4.557.72 9.1 2.85 13.138a25.08 25.08 0 0022.18 13.38v-.008zm-13.51-37.396a18.357 18.357 0 019.29-5.476 18.344 18.344 0 0119.28 7.338 18.327 18.327 0 013.29 10.271v.397a18.35 18.35 0 01-5.56 12.699 18.378 18.378 0 01-12.87 5.179c-4.8-.022-9.4-1.924-12.81-5.297a18.287 18.287 0 01-5.45-12.75c0-3.664 1.1-7.243 3.17-10.267l1.52-1.908.12-.177.02-.009zm153-43.964h-79.48c-3.95.01-7.73 1.588-10.51 4.388a14.94 14.94 0 00-4.35 10.548v20.639a14.864 14.864 0 004.71 10.85l.1.09a16.069 16.069 0 005.3 3.155l.24.106c1.46.464 2.98.7 4.5.698h27.23a31.99 31.99 0 0118.82 6.116 32.013 32.013 0 0111.65 16.026c.17.525.47.994.89 1.357.41.363.91.606 1.45.702.08.007.16.007.24 0h.3a3.1 3.1 0 002.36-1.105l28.14-35.237a14.926 14.926 0 003.3-9.392v-14.005a14.938 14.938 0 00-4.36-10.561 14.825 14.825 0 00-4.83-3.238 14.885 14.885 0 00-5.7-1.137zm-88.4 21.939v-7.003c0-2.363.94-4.631 2.6-6.305a8.883 8.883 0 016.28-2.628h79.52c2.36.006 4.62.95 6.28 2.624a8.938 8.938 0 012.61 6.309v14.02a9.254 9.254 0 01-2.01 5.62l-24.98 31.278a37.972 37.972 0 00-14.03-15.608 37.886 37.886 0 00-20.16-5.767h-.93c-.13-.01-.26-.01-.39 0h-25.91a9.43 9.43 0 01-2.54-.368 10.387 10.387 0 01-3.51-2.067 8.864 8.864 0 01-2.09-2.938 8.93 8.93 0 01-.74-3.531v-12.9c.03-.106.04-.214.04-.323 0-.139-.01-.277-.04-.413zm25.83 39.374a25.044 25.044 0 00-17.65 7.234 25.011 25.011 0 00-7.43 17.564v.473a24.932 24.932 0 004.44 14.096 25.015 25.015 0 0011.63 9.128 25.044 25.044 0 0014.76.973 24.98 24.98 0 0012.72-7.522c.12-.101.18-.186.16-.186l.15-.177.07-.093.1-.101 1.42-1.815c.12-.101.22-.218.31-.346a25.026 25.026 0 004.35-12.719c.27-4.556-.72-9.099-2.84-13.138a25.08 25.08 0 00-9.23-9.777 25.08 25.08 0 00-12.96-3.602v.008zm13.52 37.395a18.336 18.336 0 01-20.07 4.774 18.269 18.269 0 01-8.5-6.636 18.258 18.258 0 01-3.3-10.271v-.397a18.35 18.35 0 015.56-12.698 18.38 18.38 0 0112.87-5.18c4.8.022 9.4 1.924 12.82 5.298a18.372 18.372 0 015.45 12.749c0 3.664-1.11 7.243-3.18 10.267l-1.52 1.909-.12.177-.01.008zm38.71 43.965h79.48a14.86 14.86 0 0010.51-4.389c2.79-2.8 4.35-6.594 4.35-10.548v-20.639c0-2.036-.42-4.049-1.23-5.915-.81-1.866-2-3.546-3.49-4.934l-.09-.09a16.173 16.173 0 00-5.3-3.156l-.24-.105c-1.46-.465-2.98-.7-4.5-.699h-27.23a32.042 32.042 0 01-18.83-6.115 32.056 32.056 0 01-11.64-16.027 3.008 3.008 0 00-.89-1.357 2.967 2.967 0 00-1.45-.701 1.203 1.203 0 00-.24 0h-.3c-.45.001-.89.101-1.3.292-.41.19-.77.468-1.06.812l-28.14 35.238a14.921 14.921 0 00-3.3 9.391v14.005c0 1.961.38 3.903 1.13 5.716a14.856 14.856 0 003.23 4.845 14.812 14.812 0 004.83 3.239c1.81.75 3.75 1.137 5.7 1.137zm88.39-21.939v7.002a8.914 8.914 0 01-2.59 6.306 8.883 8.883 0 01-6.28 2.628h-79.52a8.872 8.872 0 01-6.28-2.625 8.936 8.936 0 01-2.61-6.309v-14.02a9.254 9.254 0 012.01-5.62l24.98-31.278a37.966 37.966 0 0034.19 21.376h.93c.13.009.26.009.39 0h25.91c.86.006 1.71.13 2.54.368a10.4 10.4 0 013.51 2.066c.89.825 1.6 1.825 2.09 2.938.48 1.114.73 2.316.73 3.531v12.9a1.76 1.76 0 00-.03.324c0 .138.01.277.03.413zm-25.82-39.374a25.044 25.044 0 0017.65-7.234 25.013 25.013 0 007.43-17.564v-.473a24.932 24.932 0 00-4.44-14.097 25.021 25.021 0 00-11.63-9.128 25.06 25.06 0 00-14.76-.973 24.994 24.994 0 00-12.72 7.522c-.12.102-.18.186-.16.186l-.15.177-.07.093-.1.102-1.42 1.815c-.12.101-.22.217-.31.346a25.026 25.026 0 00-4.35 12.718c-.27 4.557.72 9.1 2.84 13.138a25.08 25.08 0 0022.19 13.38v-.008zm-13.52-37.396a18.344 18.344 0 0120.07-4.774 18.275 18.275 0 018.5 6.636 18.26 18.26 0 013.3 10.271v.397a18.318 18.318 0 01-5.57 12.699 18.337 18.337 0 01-12.86 5.179c-4.8-.022-9.4-1.924-12.82-5.297a18.373 18.373 0 01-5.45-12.75c0-3.664 1.11-7.243 3.18-10.267l1.52-1.908.12-.177.01-.009zm-423.26 114.314h-79.48a14.881 14.881 0 00-10.512 4.388A14.945 14.945 0 00920 329.263v20.639a14.902 14.902 0 001.234 5.916 14.848 14.848 0 003.482 4.933l.098.091a16.078 16.078 0 005.293 3.155l.247.105c1.455.465 2.972.701 4.499.699h27.232a32 32 0 0118.821 6.116 32.106 32.106 0 0111.649 16.026 3.005 3.005 0 002.34 2.059c.079.007.16.007.24 0h.292a3.102 3.102 0 002.362-1.105l28.151-35.237a14.975 14.975 0 003.29-9.392v-14.005c.01-1.961-.38-3.903-1.13-5.715a14.86 14.86 0 00-3.23-4.846 14.81 14.81 0 00-4.83-3.238 14.885 14.885 0 00-5.7-1.137zm-88.394 21.939v-7.003a8.937 8.937 0 012.595-6.306 8.902 8.902 0 016.282-2.627h79.517c2.36.006 4.62.95 6.29 2.624a8.971 8.971 0 012.6 6.309v14.02a9.254 9.254 0 01-2.01 5.62l-24.976 31.278a38.016 38.016 0 00-14.031-15.608 37.904 37.904 0 00-20.158-5.767h-.93a2.63 2.63 0 00-.397 0h-25.905a9.39 9.39 0 01-2.542-.369 10.361 10.361 0 01-3.509-2.066 8.807 8.807 0 01-2.826-6.469v-12.9a1.859 1.859 0 000-.736zm25.827 39.374a25.047 25.047 0 00-17.652 7.234 25.027 25.027 0 00-7.433 17.564v.473a25.009 25.009 0 0016.075 23.224 25.026 25.026 0 0027.482-6.549c.118-.101.177-.185.16-.185l.144-.178.076-.093.093-.101 1.427-1.815c.117-.101.219-.218.304-.346a25.058 25.058 0 00-7.721-35.633 25.075 25.075 0 00-12.955-3.603v.008zm13.514 37.395a18.326 18.326 0 01-20.064 4.774 18.322 18.322 0 01-11.804-16.907v-.396a18.344 18.344 0 015.567-12.699 18.358 18.358 0 0125.682.118 18.342 18.342 0 015.45 12.749 18.167 18.167 0 01-3.176 10.267l-1.52 1.909-.118.177-.017.008zM1004.01 457h79.47c3.95-.01 7.73-1.588 10.51-4.389 2.79-2.8 4.35-6.593 4.35-10.547v-20.64a14.86 14.86 0 00-4.71-10.849l-.1-.09a16.071 16.071 0 00-5.3-3.156l-.24-.105a14.79 14.79 0 00-4.5-.699h-27.23a31.99 31.99 0 01-18.82-6.115 32.076 32.076 0 01-11.65-16.026 3.006 3.006 0 00-.89-1.358 2.967 2.967 0 00-1.45-.701 1.374 1.374 0 00-.24 0h-.3a3.1 3.1 0 00-2.36 1.105l-28.143 35.237a14.99 14.99 0 00-3.299 9.392v14.005a14.94 14.94 0 009.195 13.799 14.871 14.871 0 005.707 1.137zm88.39-21.939v7.003c0 2.363-.94 4.631-2.6 6.305a8.883 8.883 0 01-6.28 2.628h-79.51a8.917 8.917 0 01-6.294-2.625 8.94 8.94 0 01-2.603-6.308v-14.02a9.196 9.196 0 012.01-5.62l24.977-31.278a37.972 37.972 0 0014.03 15.608 37.911 37.911 0 0020.16 5.767h.93c.13.01.26.01.39 0h25.91c.86.006 1.71.13 2.54.368a10.4 10.4 0 013.51 2.066c.89.825 1.6 1.825 2.09 2.939.48 1.113.74 2.315.74 3.53v12.901c-.03.106-.04.214-.04.323 0 .139.01.277.04.413zm-25.83-39.375a25.038 25.038 0 0017.65-7.233 25.014 25.014 0 007.43-17.565v-.472a24.932 24.932 0 00-4.44-14.097 25.032 25.032 0 00-39.11-2.579c-.12.101-.18.186-.16.186l-.15.177-.07.093-.1.101-1.42 1.816c-.12.101-.22.217-.31.346a25.023 25.023 0 00-4.35 12.718c-.27 4.557.72 9.099 2.85 13.138a24.983 24.983 0 009.22 9.777 25.082 25.082 0 0012.96 3.603v-.009zm-13.52-37.395a18.344 18.344 0 0128.58 1.862 18.327 18.327 0 013.29 10.271v.397a18.35 18.35 0 01-5.56 12.699 18.378 18.378 0 01-12.87 5.179c-4.8-.022-9.4-1.924-12.82-5.298a18.369 18.369 0 01-5.45-12.749c0-3.664 1.11-7.243 3.18-10.267l1.52-1.908.12-.178.01-.008zm153-43.964h-79.47a14.9 14.9 0 00-14.86 14.936v20.639a14.864 14.864 0 004.71 10.849l.1.091a16.126 16.126 0 005.29 3.155l.25.105c1.46.465 2.97.701 4.5.699h27.23a31.99 31.99 0 0118.82 6.116 32.072 32.072 0 0111.65 16.026c.17.525.47.994.88 1.357.42.363.92.606 1.46.702.08.007.16.007.24 0h.29c.45-.002.9-.102 1.31-.292.4-.191.77-.468 1.06-.813l28.14-35.237a14.984 14.984 0 003.3-9.392v-14.005a14.938 14.938 0 00-4.36-10.561 14.916 14.916 0 00-4.83-3.238 14.897 14.897 0 00-5.71-1.137zm-88.39 21.939v-7.003c0-2.363.93-4.631 2.6-6.306a8.887 8.887 0 016.28-2.627h79.51c2.36.006 4.63.95 6.29 2.624a8.938 8.938 0 012.61 6.309v14.02a9.254 9.254 0 01-2.01 5.62l-24.98 31.278a37.972 37.972 0 00-14.03-15.608 37.911 37.911 0 00-20.16-5.767h-.93a2.67 2.67 0 00-.4 0h-25.9a9.336 9.336 0 01-2.54-.369 10.29 10.29 0 01-3.51-2.066 8.874 8.874 0 01-2.09-2.938 8.759 8.759 0 01-.74-3.531v-12.9c.02-.107.04-.215.04-.323 0-.139-.01-.277-.04-.413zm25.83 39.374a25.044 25.044 0 00-17.65 7.234 25.063 25.063 0 00-7.44 17.564v.473a25.021 25.021 0 0016.08 23.224 25.016 25.016 0 0014.75.973 25.009 25.009 0 0012.73-7.522c.12-.101.18-.185.16-.185l.15-.178.07-.093.09-.101 1.43-1.815c.12-.101.22-.218.31-.346a25.12 25.12 0 004.35-12.719c.27-4.556-.72-9.099-2.85-13.137a25 25 0 00-9.23-9.777 25.02 25.02 0 00-12.95-3.603v.008zm13.51 37.395a18.302 18.302 0 01-9.29 5.476 18.336 18.336 0 01-19.28-7.338 18.325 18.325 0 01-3.29-10.271v-.396a18.35 18.35 0 015.56-12.699 18.38 18.38 0 0112.87-5.18c4.8.022 9.4 1.924 12.82 5.298a18.32 18.32 0 015.44 12.749c.01 3.664-1.1 7.243-3.17 10.267l-1.52 1.909-.12.177-.02.008zM1195.72 457h79.48a14.89 14.89 0 0010.51-4.389c2.79-2.8 4.35-6.593 4.35-10.547v-20.64c0-2.035-.42-4.049-1.24-5.915a14.775 14.775 0 00-3.48-4.934l-.09-.09a16.173 16.173 0 00-5.3-3.156l-.25-.105c-1.45-.464-2.97-.7-4.49-.699h-27.24a32.012 32.012 0 01-18.82-6.115 32.135 32.135 0 01-11.65-16.026 2.986 2.986 0 00-2.34-2.059 1.374 1.374 0 00-.24 0h-.29a3.1 3.1 0 00-2.36 1.105l-28.15 35.237a15.043 15.043 0 00-3.3 9.392v14.005c0 1.961.39 3.903 1.14 5.715a14.704 14.704 0 003.23 4.846 14.825 14.825 0 004.83 3.238c1.81.751 3.75 1.137 5.7 1.137zm88.39-21.939v7.003c0 2.363-.93 4.631-2.59 6.305a8.919 8.919 0 01-6.28 2.628h-79.52a8.913 8.913 0 01-6.29-2.625 8.967 8.967 0 01-2.6-6.308v-14.02a9.19 9.19 0 012.01-5.62l24.97-31.278a38.065 38.065 0 0014.04 15.608 37.877 37.877 0 0020.15 5.767h.93c.14.01.27.01.4 0h25.91c.86.006 1.71.13 2.54.368 1.29.45 2.48 1.152 3.51 2.066.89.825 1.6 1.825 2.09 2.939.48 1.113.73 2.315.73 3.53v12.901a1.74 1.74 0 00-.03.323c-.01.139.01.277.03.413z" fill="#fff" fill-opacity=".6"/><path d="M1258.29 395.686c6.6.012 12.95-2.588 17.65-7.233a25.014 25.014 0 007.43-17.565v-.472a25.086 25.086 0 00-4.44-14.097 25.071 25.071 0 00-11.63-9.128 25.06 25.06 0 00-14.76-.973 25.064 25.064 0 00-12.73 7.522c-.11.101-.17.186-.16.186l-.14.177-.08.093-.09.101-1.43 1.816c-.11.101-.22.217-.3.346a25.023 25.023 0 00-4.35 12.718c-.27 4.557.71 9.099 2.84 13.138a25.08 25.08 0 0022.19 13.38v-.009zm-13.52-37.395a18.344 18.344 0 0120.07-4.774 18.325 18.325 0 018.5 6.636 18.26 18.26 0 013.3 10.271v.397a18.318 18.318 0 01-5.57 12.699 18.356 18.356 0 01-31.13-12.868c0-3.664 1.11-7.243 3.18-10.267l1.52-1.908.11-.178.02-.008z" fill="#00589B" fill-opacity=".3"/><path d="M1218.9 613.463h79.47a14.9 14.9 0 0014.86-14.936v-20.639a14.864 14.864 0 00-4.71-10.849l-.1-.091a16.024 16.024 0 00-5.29-3.155l-.25-.105a14.68 14.68 0 00-4.5-.699h-27.23a31.99 31.99 0 01-18.82-6.116 32.131 32.131 0 01-11.65-16.026 3.066 3.066 0 00-.88-1.357 3.044 3.044 0 00-1.46-.702 1.374 1.374 0 00-.24 0h-.29c-.45.002-.9.102-1.3.292-.41.191-.77.468-1.06.813l-28.15 35.237a14.984 14.984 0 00-3.3 9.392v14.005a14.938 14.938 0 004.36 10.561 14.852 14.852 0 004.84 3.238 14.81 14.81 0 005.7 1.137zm88.39-21.939v7.003c0 2.363-.93 4.631-2.6 6.306a8.887 8.887 0 01-6.28 2.627h-79.51a8.916 8.916 0 01-8.89-8.933v-14.02a9.13 9.13 0 012.01-5.62l24.97-31.278a38.04 38.04 0 0014.03 15.608 37.921 37.921 0 0020.16 5.768h.93c.13.009.26.009.4 0h25.9c.86.005 1.72.129 2.54.368a10.29 10.29 0 013.51 2.066c.89.824 1.6 1.825 2.09 2.938.49 1.113.74 2.315.74 3.531v12.9c-.02.107-.04.215-.04.323 0 .139.01.277.04.413zm-25.83-39.374a25.044 25.044 0 0017.65-7.234 25.063 25.063 0 007.44-17.564v-.473a25.024 25.024 0 00-16.08-23.224 25.016 25.016 0 00-14.75-.973 25.009 25.009 0 00-12.73 7.522c-.12.101-.18.185-.16.185l-.14.178-.08.093-.09.101-1.43 1.815c-.12.101-.22.218-.3.346a25.038 25.038 0 00-4.36 12.719 25.09 25.09 0 002.85 13.137 25.072 25.072 0 0022.18 13.38v-.008zm-13.51-37.395a18.343 18.343 0 019.29-5.476 18.336 18.336 0 0122.58 17.609v.396a18.403 18.403 0 01-5.57 12.699 18.38 18.38 0 01-12.87 5.18c-4.8-.022-9.4-1.924-12.81-5.298a18.286 18.286 0 01-5.45-12.749c0-3.664 1.1-7.243 3.17-10.267l1.52-1.909.12-.177.02-.008zm129.82-200.428h-79.48c-3.94.01-7.72 1.588-10.51 4.388a14.981 14.981 0 00-4.35 10.548v20.639c.01 2.036.43 4.049 1.24 5.916a14.771 14.771 0 003.48 4.933l.1.091a16.024 16.024 0 005.29 3.155l.25.105c1.45.465 2.97.701 4.5.699h27.23a31.99 31.99 0 0118.82 6.116 32.131 32.131 0 0111.65 16.026 3.002 3.002 0 002.34 2.059c.08.007.16.007.24 0h.29a3.115 3.115 0 002.36-1.105l28.15-35.237a14.984 14.984 0 003.3-9.392v-14.005c0-1.961-.39-3.903-1.13-5.715a15.02 15.02 0 00-3.23-4.846 14.958 14.958 0 00-4.84-3.238 14.848 14.848 0 00-5.7-1.137zm-88.39 21.939v-7.003c0-2.363.93-4.631 2.59-6.306a8.927 8.927 0 016.29-2.627h79.51a8.916 8.916 0 018.89 8.933v14.02a9.13 9.13 0 01-2.01 5.62l-24.97 31.278a38.04 38.04 0 00-14.03-15.608 37.937 37.937 0 00-20.16-5.767h-.93a2.67 2.67 0 00-.4 0h-25.9a9.465 9.465 0 01-2.55-.369 10.341 10.341 0 01-3.5-2.066 8.596 8.596 0 01-2.09-2.938 8.759 8.759 0 01-.74-3.531v-12.9c.02-.107.03-.215.04-.323 0-.139-.01-.277-.04-.413zm25.83 39.374a25.067 25.067 0 00-17.66 7.234 25.054 25.054 0 00-7.43 17.564v.473a25.021 25.021 0 0016.08 23.224 25.01 25.01 0 0014.75.973 25.05 25.05 0 0012.73-7.522c.12-.101.18-.185.16-.185l.14-.178.08-.093.09-.101 1.43-1.815c.12-.101.22-.218.3-.346a25.038 25.038 0 004.36-12.719 25.09 25.09 0 00-2.85-13.137 25.072 25.072 0 00-22.18-13.38v.008zm13.51 37.395a18.33 18.33 0 01-20.06 4.774 18.295 18.295 0 01-8.51-6.636 18.335 18.335 0 01-3.3-10.271v-.396a18.36 18.36 0 0118.43-17.879c4.81.022 9.41 1.924 12.82 5.298a18.33 18.33 0 015.45 12.749c0 3.664-1.1 7.243-3.17 10.267l-1.52 1.909-.12.177-.02.008zM1387.44 457h79.47c3.95-.01 7.73-1.588 10.52-4.389 2.78-2.8 4.35-6.593 4.35-10.547v-20.64a14.919 14.919 0 00-4.72-10.849l-.1-.09a16.027 16.027 0 00-5.29-3.156l-.25-.105c-1.45-.464-2.97-.7-4.5-.699h-27.23a31.99 31.99 0 01-18.82-6.115 32.135 32.135 0 01-11.65-16.026 2.986 2.986 0 00-2.34-2.059 1.374 1.374 0 00-.24 0h-.29c-.45.002-.9.101-1.3.292-.41.191-.77.468-1.06.813l-28.15 35.237a14.984 14.984 0 00-3.3 9.392v14.005a14.938 14.938 0 004.36 10.561 14.974 14.974 0 004.84 3.238 14.81 14.81 0 005.7 1.137zm88.39-21.939v7.003c0 2.363-.93 4.631-2.6 6.305a8.883 8.883 0 01-6.28 2.628h-79.51a8.913 8.913 0 01-6.29-2.625 8.925 8.925 0 01-2.6-6.308v-14.02a9.128 9.128 0 012.01-5.62l24.97-31.278a38.04 38.04 0 0014.03 15.608 37.911 37.911 0 0020.16 5.767h.93c.13.01.27.01.4 0h25.9c.86.006 1.72.13 2.54.368 1.3.45 2.49 1.152 3.51 2.066a8.737 8.737 0 012.09 2.939c.49 1.113.74 2.315.74 3.53v12.901c-.02.106-.03.214-.04.323 0 .139.01.277.04.413zM1450 395.686a25.021 25.021 0 0017.65-7.233 25.023 25.023 0 007.44-17.565v-.472a25.019 25.019 0 00-4.45-14.097 25.032 25.032 0 00-39.11-2.579c-.12.101-.18.186-.16.186l-.14.177-.08.093-.09.101-1.43 1.816c-.12.101-.22.217-.3.346a25.035 25.035 0 00-4.36 12.718c-.26 4.557.72 9.099 2.85 13.138a25.08 25.08 0 0022.18 13.38v-.009zm-13.51-37.395a18.344 18.344 0 019.3-5.476c3.57-.851 7.33-.607 10.76.702a18.35 18.35 0 018.51 6.636 18.415 18.415 0 013.3 10.271v.397a18.36 18.36 0 01-5.57 12.699 18.36 18.36 0 01-12.87 5.179c-4.8-.022-9.4-1.924-12.81-5.298a18.326 18.326 0 01-5.45-12.749c0-3.664 1.1-7.243 3.17-10.267l1.52-1.908.12-.178.02-.008z" fill="#fff" fill-opacity=".6"/><path d="M1413.34 467h-79.48c-3.95.01-7.73 1.588-10.51 4.389a14.936 14.936 0 00-4.35 10.547v20.64c0 2.035.42 4.049 1.23 5.915.82 1.866 2 3.546 3.49 4.934l.09.09a16.173 16.173 0 005.3 3.156l.24.105c1.46.464 2.98.7 4.5.699h27.23a32.02 32.02 0 0118.83 6.115 32.135 32.135 0 0111.65 16.026c.16.525.47.995.88 1.358.41.363.91.605 1.45.701.08.007.16.007.24 0h.3a3.1 3.1 0 002.36-1.105l28.15-35.237a14.975 14.975 0 003.29-9.392v-14.005c.01-1.961-.38-3.903-1.13-5.715a14.86 14.86 0 00-3.23-4.846 14.825 14.825 0 00-4.83-3.238 14.885 14.885 0 00-5.7-1.137zm-88.39 21.939v-7.003a8.911 8.911 0 018.87-8.933h79.52c2.36.006 4.62.95 6.29 2.625a8.967 8.967 0 012.6 6.308v14.02a9.252 9.252 0 01-2.01 5.62l-24.98 31.278a37.972 37.972 0 00-14.03-15.608 37.886 37.886 0 00-20.16-5.767h-.93c-.13-.01-.26-.01-.39 0h-25.91a9.43 9.43 0 01-2.54-.368 10.4 10.4 0 01-3.51-2.066 8.878 8.878 0 01-2.09-2.939 8.919 8.919 0 01-.73-3.53v-12.901c.02-.106.03-.214.03-.323.01-.139-.01-.277-.03-.413z" fill="#00589B" fill-opacity=".3"/><path d="M1350.77 528.313a25.044 25.044 0 00-17.65 7.234 25.013 25.013 0 00-7.43 17.564v.473a25.011 25.011 0 004.44 14.097 25.077 25.077 0 0011.63 9.128 25.06 25.06 0 0014.76.973 24.994 24.994 0 0012.72-7.522c.12-.102.18-.186.17-.186l.14-.177.07-.093.1-.102 1.43-1.815c.11-.101.21-.217.3-.346a25.026 25.026 0 004.35-12.718c.27-4.557-.72-9.1-2.84-13.138a25.08 25.08 0 00-22.19-13.38v.008zm13.52 37.396a18.344 18.344 0 01-20.07 4.774 18.32 18.32 0 01-8.5-6.637 18.257 18.257 0 01-3.3-10.27v-.397a18.318 18.318 0 015.57-12.699 18.337 18.337 0 0112.86-5.179c4.8.022 9.4 1.924 12.82 5.297a18.373 18.373 0 015.45 12.75c0 3.664-1.11 7.243-3.18 10.267l-1.52 1.908-.12.177-.01.009z" fill="#fff" fill-opacity=".6"/><path d="M-7.825 228h96.04a18.007 18.007 0 0112.703 5.289A17.984 17.984 0 01106.172 246v24.873a17.9 17.9 0 01-5.699 13.075l-.118.109a19.449 19.449 0 01-6.397 3.803l-.298.126a17.88 17.88 0 01-5.437.843H55.316a38.734 38.734 0 00-22.744 7.37 38.7 38.7 0 00-14.077 19.313 3.617 3.617 0 01-2.827 2.481 1.56 1.56 0 01-.29 0h-.353a3.746 3.746 0 01-2.854-1.331l-34.013-42.466a18.028 18.028 0 01-3.986-11.318V246a17.98 17.98 0 015.27-12.727A18.002 18.002 0 01-7.825 228zm106.812 26.439V246a10.752 10.752 0 00-3.137-7.599 10.765 10.765 0 00-7.59-3.166H-7.825A10.765 10.765 0 00-18.571 246v16.896a11.07 11.07 0 002.428 6.773l30.18 37.694a45.866 45.866 0 0116.956-18.81 45.904 45.904 0 0124.36-6.95h1.123c.16-.011.32-.011.48 0H88.26a11.36 11.36 0 003.071-.444 12.53 12.53 0 004.24-2.49 10.61 10.61 0 003.416-7.796v-15.546a2.26 2.26 0 01-.045-.39 2.4 2.4 0 01.045-.498z" fill="#fff" fill-opacity=".45"/><path d="M-7.825 228h96.04a18.007 18.007 0 0112.703 5.289A17.984 17.984 0 01106.172 246v24.873a17.9 17.9 0 01-5.699 13.075l-.118.109a19.449 19.449 0 01-6.397 3.803l-.298.126a17.88 17.88 0 01-5.437.843H55.316a38.734 38.734 0 00-22.744 7.37 38.7 38.7 0 00-14.077 19.313 3.617 3.617 0 01-2.827 2.481 1.56 1.56 0 01-.29 0h-.353a3.746 3.746 0 01-2.854-1.331l-34.013-42.466a18.028 18.028 0 01-3.986-11.318V246a17.98 17.98 0 015.27-12.727A18.002 18.002 0 01-7.825 228zm106.812 26.439V246a10.752 10.752 0 00-3.137-7.599 10.765 10.765 0 00-7.59-3.166H-7.825A10.765 10.765 0 00-18.571 246v16.896a11.07 11.07 0 002.428 6.773l30.18 37.694a45.866 45.866 0 0116.956-18.81 45.904 45.904 0 0124.36-6.95h1.123c.16-.011.32-.011.48 0H88.26a11.36 11.36 0 003.071-.444 12.53 12.53 0 004.24-2.49 10.61 10.61 0 003.416-7.796v-15.546a2.26 2.26 0 01-.045-.39 2.4 2.4 0 01.045-.498z" fill="#fff" fill-opacity=".45"/><path d="M61.664 295.01c8.037-.014 15.754 3.097 21.468 8.653 5.715 5.557 8.964 13.109 9.04 21.011v.565a29.582 29.582 0 01-5.407 16.863c-3.488 4.957-8.418 8.763-14.143 10.919a30.922 30.922 0 01-17.943 1.163 30.55 30.55 0 01-15.48-8.997c-.143-.122-.215-.223-.194-.223l-.175-.212-.092-.111-.113-.121-1.736-2.172a2.007 2.007 0 01-.37-.414 29.644 29.644 0 01-5.295-15.213 29.561 29.561 0 013.462-15.716 30.194 30.194 0 0111.223-11.695A30.876 30.876 0 0161.664 295v.01zM45.23 339.743a22.37 22.37 0 0011.305 6.55 22.64 22.64 0 0013.095-.84 22.235 22.235 0 0010.346-7.938 21.668 21.668 0 004.01-12.286v-.475c-.15-5.739-2.58-11.192-6.77-15.19-4.191-3.998-9.808-6.222-15.647-6.196-5.839.027-11.435 2.302-15.587 6.337-4.153 4.036-6.532 9.511-6.628 15.251 0 4.383 1.345 8.664 3.862 12.282l1.85 2.283.143.212.02.01zM219.169 355h-96.04c-4.768.012-9.337 1.872-12.703 5.171-3.367 3.3-5.257 7.77-5.254 12.429v24.321a17.172 17.172 0 001.491 6.97 17.523 17.523 0 004.208 5.814l.118.106a19.54 19.54 0 006.396 3.718l.299.124c1.758.548 3.592.826 5.436.824h32.908c8.169-.002 16.13 2.52 22.743 7.206 6.614 4.686 11.541 11.296 14.078 18.885a3.534 3.534 0 001.066 1.599 3.645 3.645 0 001.761.826c.096.009.193.009.289 0h.354a3.816 3.816 0 001.573-.343c.493-.225.93-.552 1.281-.958l34.012-41.522a17.388 17.388 0 003.987-11.067V372.6a17.249 17.249 0 00-1.368-6.734 17.552 17.552 0 00-3.902-5.71 18.036 18.036 0 00-5.842-3.816 18.356 18.356 0 00-6.891-1.34zm-106.812 25.852V372.6a10.394 10.394 0 013.136-7.43 10.891 10.891 0 017.591-3.096h96.085a10.902 10.902 0 017.6 3.092 10.41 10.41 0 013.146 7.434v16.521a10.68 10.68 0 01-2.429 6.622l-30.18 36.857c-3.773-7.564-9.649-13.938-16.955-18.392a46.676 46.676 0 00-24.36-6.796h-1.123a3.495 3.495 0 00-.48 0h-31.304a11.626 11.626 0 01-3.071-.434 12.594 12.594 0 01-4.241-2.435 10.391 10.391 0 01-2.524-3.462 10.166 10.166 0 01-.891-4.16v-15.202c.026-.125.041-.252.045-.38a2.336 2.336 0 00-.045-.487z" fill="#00589B" fill-opacity=".3"/><path d="M149.179 421.01c-8.168-.014-16.011 3.149-21.819 8.798s-9.111 13.327-9.188 21.36v.575a30.08 30.08 0 005.495 17.144 30.863 30.863 0 0014.375 11.101 31.432 31.432 0 0018.237 1.183 31.041 31.041 0 0015.733-9.148c.146-.123.219-.226.199-.226l.177-.216.094-.113.115-.123 1.764-2.207a2.06 2.06 0 00.376-.421 30.146 30.146 0 005.382-15.468 30.057 30.057 0 00-3.518-15.977 30.69 30.69 0 00-11.408-11.89A31.379 31.379 0 00149.179 421v.01zm16.705 45.478a22.737 22.737 0 01-11.491 6.66 23.015 23.015 0 01-13.31-.854 22.6 22.6 0 01-10.515-8.07 22.031 22.031 0 01-4.075-12.491v-.483c.151-5.835 2.622-11.379 6.881-15.443 4.259-4.065 9.968-6.326 15.902-6.299 5.935.027 11.622 2.34 15.843 6.442 4.221 4.103 6.64 9.67 6.737 15.506a21.86 21.86 0 01-3.926 12.486l-1.879 2.321-.146.215-.021.01z" fill="#fff" fill-opacity=".45"/><path d="M149.179 421.01c-8.168-.014-16.011 3.149-21.819 8.798s-9.111 13.327-9.188 21.36v.575a30.08 30.08 0 005.495 17.144 30.863 30.863 0 0014.375 11.101 31.432 31.432 0 0018.237 1.183 31.041 31.041 0 0015.733-9.148c.146-.123.219-.226.199-.226l.177-.216.094-.113.115-.123 1.764-2.207a2.06 2.06 0 00.376-.421 30.146 30.146 0 005.382-15.468 30.057 30.057 0 00-3.518-15.977 30.69 30.69 0 00-11.408-11.89A31.379 31.379 0 00149.179 421v.01zm16.705 45.478a22.737 22.737 0 01-11.491 6.66 23.015 23.015 0 01-13.31-.854 22.6 22.6 0 01-10.515-8.07 22.031 22.031 0 01-4.075-12.491v-.483c.151-5.835 2.622-11.379 6.881-15.443 4.259-4.065 9.968-6.326 15.902-6.299 5.935.027 11.622 2.34 15.843 6.442 4.221 4.103 6.64 9.67 6.737 15.506a21.86 21.86 0 01-3.926 12.486l-1.879 2.321-.146.215-.021.01zM595.169 436h-96.04a18.11 18.11 0 00-12.703 5.23 17.682 17.682 0 00-5.254 12.57v24.597a17.54 17.54 0 001.491 7.05 17.72 17.72 0 004.208 5.88l.118.107a19.494 19.494 0 006.396 3.761l.299.125c1.758.553 3.592.834 5.436.833h32.908a39.024 39.024 0 0122.743 7.288 38.299 38.299 0 0114.078 19.099 3.58 3.58 0 001.066 1.618 3.641 3.641 0 001.761.835c.096.009.193.009.289 0h.354a3.773 3.773 0 002.854-1.316l34.012-41.994a17.706 17.706 0 003.987-11.192V453.8a17.618 17.618 0 00-1.368-6.811 17.78 17.78 0 00-3.902-5.775 18.026 18.026 0 00-5.842-3.859 18.176 18.176 0 00-6.891-1.355zm-106.812 26.146V453.8a10.569 10.569 0 013.136-7.514 10.83 10.83 0 017.591-3.132h96.085a10.837 10.837 0 017.6 3.128 10.586 10.586 0 013.146 7.518v16.709a10.875 10.875 0 01-2.429 6.697l-30.18 37.275a45.523 45.523 0 00-16.955-18.6 46.29 46.29 0 00-24.36-6.874h-1.123a3.495 3.495 0 00-.48 0h-31.304a11.508 11.508 0 01-3.071-.438 12.565 12.565 0 01-4.241-2.463 10.502 10.502 0 01-2.524-3.501 10.386 10.386 0 01-.891-4.208v-15.374c.026-.127.041-.256.045-.385a2.39 2.39 0 00-.045-.492z" fill="#fff" fill-opacity=".45"/><path d="M595.169 436h-96.04a18.11 18.11 0 00-12.703 5.23 17.682 17.682 0 00-5.254 12.57v24.597a17.54 17.54 0 001.491 7.05 17.72 17.72 0 004.208 5.88l.118.107a19.494 19.494 0 006.396 3.761l.299.125c1.758.553 3.592.834 5.436.833h32.908a39.024 39.024 0 0122.743 7.288 38.299 38.299 0 0114.078 19.099 3.58 3.58 0 001.066 1.618 3.641 3.641 0 001.761.835c.096.009.193.009.289 0h.354a3.773 3.773 0 002.854-1.316l34.012-41.994a17.706 17.706 0 003.987-11.192V453.8a17.618 17.618 0 00-1.368-6.811 17.78 17.78 0 00-3.902-5.775 18.026 18.026 0 00-5.842-3.859 18.176 18.176 0 00-6.891-1.355zm-106.812 26.146V453.8a10.569 10.569 0 013.136-7.514 10.83 10.83 0 017.591-3.132h96.085a10.837 10.837 0 017.6 3.128 10.586 10.586 0 013.146 7.518v16.709a10.875 10.875 0 01-2.429 6.697l-30.18 37.275a45.523 45.523 0 00-16.955-18.6 46.29 46.29 0 00-24.36-6.874h-1.123a3.495 3.495 0 00-.48 0h-31.304a11.508 11.508 0 01-3.071-.438 12.565 12.565 0 01-4.241-2.463 10.502 10.502 0 01-2.524-3.501 10.386 10.386 0 01-.891-4.208v-15.374c.026-.127.041-.256.045-.385a2.39 2.39 0 00-.045-.492z" fill="#fff" fill-opacity=".45"/><path d="M525.179 503.01c-8.168-.014-16.011 3.045-21.819 8.509s-9.111 12.89-9.188 20.66v.556c.034 5.928 1.95 11.707 5.495 16.582 3.546 4.874 8.556 8.617 14.375 10.737a32.436 32.436 0 0018.237 1.144c6.062-1.375 11.545-4.459 15.733-8.848.146-.119.219-.218.199-.218l.177-.209.094-.109.115-.119 1.764-2.136a1.96 1.96 0 00.376-.407c3.193-4.427 5.054-9.6 5.382-14.96.329-5.36-.888-10.703-3.518-15.454-2.631-4.75-6.575-8.726-11.408-11.5-4.833-2.774-10.37-4.239-16.014-4.238v.01zm16.705 43.987c-3.064 3.195-7.068 5.44-11.491 6.441a23.752 23.752 0 01-13.31-.825c-4.249-1.54-7.913-4.26-10.515-7.807-2.602-3.546-4.022-7.756-4.075-12.081v-.466c.151-5.644 2.622-11.006 6.881-14.938 4.259-3.931 9.968-6.118 15.902-6.092 5.935.026 11.622 2.263 15.843 6.231 4.221 3.969 6.64 9.352 6.737 14.997 0 4.31-1.368 8.52-3.926 12.077l-1.879 2.244-.146.209-.021.01z" fill="#4EBA66" fill-opacity=".3"/><path d="M352.033 482h-96.767a18.216 18.216 0 01-12.801-5.289A17.913 17.913 0 01237.172 464v-24.873c.003-2.454.515-4.88 1.502-7.129a17.915 17.915 0 014.24-5.946l.119-.109a19.628 19.628 0 016.445-3.803l.301-.126a18.137 18.137 0 015.477-.843h33.157a39.229 39.229 0 0022.916-7.37 38.716 38.716 0 0014.184-19.313c.2-.633.572-1.199 1.074-1.636a3.655 3.655 0 011.774-.845c.097-.009.195-.009.292 0h.356a3.773 3.773 0 012.876 1.331l34.27 42.466a17.947 17.947 0 014.017 11.318V464a17.867 17.867 0 01-1.378 6.887 17.968 17.968 0 01-3.932 5.84 18.138 18.138 0 01-5.886 3.903 18.28 18.28 0 01-6.943 1.37zm-107.622-26.439V464a10.71 10.71 0 003.161 7.599 10.886 10.886 0 007.648 3.166h96.813a10.898 10.898 0 007.657-3.162 10.723 10.723 0 003.17-7.603v-16.896a11.02 11.02 0 00-2.447-6.773l-30.409-37.694a45.985 45.985 0 01-17.084 18.81 46.51 46.51 0 01-24.544 6.95h-1.132a3.553 3.553 0 01-.484 0h-31.54a11.529 11.529 0 00-3.095.444 12.641 12.641 0 00-4.272 2.49 10.608 10.608 0 00-2.543 3.54 10.528 10.528 0 00-.899 4.256v15.546c.027.129.042.259.046.39a2.38 2.38 0 01-.046.498z" fill="#fff" fill-opacity=".45"/><path d="M352.033 482h-96.767a18.216 18.216 0 01-12.801-5.289A17.913 17.913 0 01237.172 464v-24.873c.003-2.454.515-4.88 1.502-7.129a17.915 17.915 0 014.24-5.946l.119-.109a19.628 19.628 0 016.445-3.803l.301-.126a18.137 18.137 0 015.477-.843h33.157a39.229 39.229 0 0022.916-7.37 38.716 38.716 0 0014.184-19.313c.2-.633.572-1.199 1.074-1.636a3.655 3.655 0 011.774-.845c.097-.009.195-.009.292 0h.356a3.773 3.773 0 012.876 1.331l34.27 42.466a17.947 17.947 0 014.017 11.318V464a17.867 17.867 0 01-1.378 6.887 17.968 17.968 0 01-3.932 5.84 18.138 18.138 0 01-5.886 3.903 18.28 18.28 0 01-6.943 1.37zm-107.622-26.439V464a10.71 10.71 0 003.161 7.599 10.886 10.886 0 007.648 3.166h96.813a10.898 10.898 0 007.657-3.162 10.723 10.723 0 003.17-7.603v-16.896a11.02 11.02 0 00-2.447-6.773l-30.409-37.694a45.985 45.985 0 01-17.084 18.81 46.51 46.51 0 01-24.544 6.95h-1.132a3.553 3.553 0 01-.484 0h-31.54a11.529 11.529 0 00-3.095.444 12.641 12.641 0 00-4.272 2.49 10.608 10.608 0 00-2.543 3.54 10.528 10.528 0 00-.899 4.256v15.546c.027.129.042.259.046.39a2.38 2.38 0 01-.046.498z" fill="#fff" fill-opacity=".45"/><path d="M282.179 413.99c-8.168.014-16.011-3.045-21.819-8.509s-9.111-12.89-9.188-20.66v-.556c.034-5.928 1.95-11.707 5.495-16.582 3.546-4.874 8.556-8.617 14.375-10.737a32.436 32.436 0 0118.237-1.144c6.062 1.375 11.545 4.459 15.733 8.848.146.119.219.218.199.218l.177.209.094.109.115.119 1.764 2.136c.145.118.271.255.376.407 3.193 4.427 5.054 9.6 5.382 14.96.329 5.36-.888 10.703-3.518 15.454-2.631 4.75-6.575 8.726-11.408 11.5-4.833 2.774-10.37 4.239-16.014 4.238v-.01zm16.705-43.987c-3.064-3.195-7.068-5.44-11.491-6.441a23.752 23.752 0 00-13.31.825c-4.249 1.54-7.913 4.26-10.515 7.807-2.602 3.546-4.022 7.756-4.075 12.081v.466c.151 5.644 2.622 11.006 6.881 14.938 4.259 3.931 9.968 6.118 15.902 6.092 5.935-.026 11.622-2.263 15.843-6.231 4.221-3.969 6.64-9.352 6.737-14.997 0-4.31-1.368-8.52-3.926-12.077l-1.879-2.244-.146-.209-.021-.01z" fill="#fff" fill-opacity=".45"/><path d="M282.179 413.99c-8.168.014-16.011-3.045-21.819-8.509s-9.111-12.89-9.188-20.66v-.556c.034-5.928 1.95-11.707 5.495-16.582 3.546-4.874 8.556-8.617 14.375-10.737a32.436 32.436 0 0118.237-1.144c6.062 1.375 11.545 4.459 15.733 8.848.146.119.219.218.199.218l.177.209.094.109.115.119 1.764 2.136c.145.118.271.255.376.407 3.193 4.427 5.054 9.6 5.382 14.96.329 5.36-.888 10.703-3.518 15.454-2.631 4.75-6.575 8.726-11.408 11.5-4.833 2.774-10.37 4.239-16.014 4.238v-.01zm16.705-43.987c-3.064-3.195-7.068-5.44-11.491-6.441a23.752 23.752 0 00-13.31.825c-4.249 1.54-7.913 4.26-10.515 7.807-2.602 3.546-4.022 7.756-4.075 12.081v.466c.151 5.644 2.622 11.006 6.881 14.938 4.259 3.931 9.968 6.118 15.902 6.092 5.935-.026 11.622-2.263 15.843-6.231 4.221-3.969 6.64-9.352 6.737-14.997 0-4.31-1.368-8.52-3.926-12.077l-1.879-2.244-.146-.209-.021-.01zM123.175 341h96.039a18.007 18.007 0 0012.704-5.289A17.984 17.984 0 00237.172 323v-24.873a17.9 17.9 0 00-5.699-13.075l-.118-.109a19.45 19.45 0 00-6.396-3.803l-.299-.126a17.88 17.88 0 00-5.437-.843h-32.907a38.737 38.737 0 01-22.744-7.37 38.698 38.698 0 01-14.077-19.313 3.622 3.622 0 00-2.827-2.481 1.56 1.56 0 00-.29 0h-.353a3.755 3.755 0 00-2.854 1.331l-34.013 42.466a18.027 18.027 0 00-3.986 11.318V323a17.978 17.978 0 005.27 12.727A17.99 17.99 0 00123.175 341zm106.812-26.439V323a10.763 10.763 0 01-10.727 10.765h-96.085a10.774 10.774 0 01-7.6-3.162 10.763 10.763 0 01-3.146-7.603v-16.896a11.074 11.074 0 012.428-6.773l30.18-37.694a45.871 45.871 0 0016.956 18.81 45.904 45.904 0 0024.359 6.95h1.124c.16.011.32.011.48 0h31.304a11.36 11.36 0 013.071.444 12.53 12.53 0 014.24 2.49 10.596 10.596 0 013.416 7.796v15.546a2.23 2.23 0 000 .888z" fill="#fff" fill-opacity=".45"/><path d="M123.175 341h96.039a18.007 18.007 0 0012.704-5.289A17.984 17.984 0 00237.172 323v-24.873a17.9 17.9 0 00-5.699-13.075l-.118-.109a19.45 19.45 0 00-6.396-3.803l-.299-.126a17.88 17.88 0 00-5.437-.843h-32.907a38.737 38.737 0 01-22.744-7.37 38.698 38.698 0 01-14.077-19.313 3.622 3.622 0 00-2.827-2.481 1.56 1.56 0 00-.29 0h-.353a3.755 3.755 0 00-2.854 1.331l-34.013 42.466a18.027 18.027 0 00-3.986 11.318V323a17.978 17.978 0 005.27 12.727A17.99 17.99 0 00123.175 341zm106.812-26.439V323a10.763 10.763 0 01-10.727 10.765h-96.085a10.774 10.774 0 01-7.6-3.162 10.763 10.763 0 01-3.146-7.603v-16.896a11.074 11.074 0 012.428-6.773l30.18-37.694a45.871 45.871 0 0016.956 18.81 45.904 45.904 0 0024.359 6.95h1.124c.16.011.32.011.48 0h31.304a11.36 11.36 0 013.071.444 12.53 12.53 0 014.24 2.49 10.596 10.596 0 013.416 7.796v15.546a2.23 2.23 0 000 .888z" fill="#fff" fill-opacity=".45"/><path d="M192.164 272.99c8.169.014 16.012-3.045 21.82-8.509s9.111-12.89 9.188-20.66v-.556c-.035-5.928-1.95-11.707-5.495-16.582-3.546-4.874-8.557-8.617-14.376-10.737a32.435 32.435 0 00-18.237-1.144c-6.061 1.375-11.545 4.459-15.732 8.848-.147.119-.22.218-.199.218l-.177.209-.094.109-.115.119-1.765 2.136c-.144.118-.27.255-.375.407-3.193 4.427-5.054 9.6-5.383 14.96-.328 5.36.889 10.703 3.519 15.454 2.631 4.75 6.575 8.726 11.408 11.5 4.832 2.774 10.369 4.239 16.013 4.238v-.01zm-16.704-43.987c3.064-3.195 7.068-5.44 11.491-6.441a23.752 23.752 0 0113.31.825c4.249 1.54 7.912 4.26 10.515 7.807 2.602 3.546 4.022 7.756 4.075 12.081v.466c-.152 5.644-2.622 11.006-6.881 14.938-4.259 3.931-9.968 6.118-15.903 6.092-5.934-.026-11.622-2.263-15.843-6.231-4.221-3.969-6.639-9.352-6.736-14.997-.001-4.31 1.368-8.52 3.926-12.077l1.879-2.244.146-.209.021-.01z" fill="#fff" fill-opacity=".45"/><path d="M192.164 272.99c8.169.014 16.012-3.045 21.82-8.509s9.111-12.89 9.188-20.66v-.556c-.035-5.928-1.95-11.707-5.495-16.582-3.546-4.874-8.557-8.617-14.376-10.737a32.435 32.435 0 00-18.237-1.144c-6.061 1.375-11.545 4.459-15.732 8.848-.147.119-.22.218-.199.218l-.177.209-.094.109-.115.119-1.765 2.136c-.144.118-.27.255-.375.407-3.193 4.427-5.054 9.6-5.383 14.96-.328 5.36.889 10.703 3.519 15.454 2.631 4.75 6.575 8.726 11.408 11.5 4.832 2.774 10.369 4.239 16.013 4.238v-.01zm-16.704-43.987c3.064-3.195 7.068-5.44 11.491-6.441a23.752 23.752 0 0113.31.825c4.249 1.54 7.912 4.26 10.515 7.807 2.602 3.546 4.022 7.756 4.075 12.081v.466c-.152 5.644-2.622 11.006-6.881 14.938-4.259 3.931-9.968 6.118-15.903 6.092-5.934-.026-11.622-2.263-15.843-6.231-4.221-3.969-6.639-9.352-6.736-14.997-.001-4.31 1.368-8.52 3.926-12.077l1.879-2.244.146-.209.021-.01zM331.175 304h96.039a18.007 18.007 0 0112.704 5.289A17.984 17.984 0 01445.172 322v24.873a17.9 17.9 0 01-5.699 13.075l-.118.109a19.45 19.45 0 01-6.396 3.803l-.299.126a17.88 17.88 0 01-5.437.843h-32.907a38.737 38.737 0 00-22.744 7.37 38.698 38.698 0 00-14.077 19.313 3.622 3.622 0 01-2.827 2.481 1.56 1.56 0 01-.29 0h-.353a3.755 3.755 0 01-2.854-1.331l-34.013-42.466a18.027 18.027 0 01-3.986-11.318V322a17.978 17.978 0 015.27-12.727A17.99 17.99 0 01331.175 304zm106.812 26.439V322a10.763 10.763 0 00-10.727-10.765h-96.085a10.774 10.774 0 00-7.6 3.162 10.763 10.763 0 00-3.146 7.603v16.896a11.074 11.074 0 002.428 6.773l30.18 37.694a45.871 45.871 0 0116.956-18.81 45.904 45.904 0 0124.359-6.95h1.124c.16-.011.32-.011.48 0h31.304a11.36 11.36 0 003.071-.444 12.53 12.53 0 004.24-2.49 10.596 10.596 0 003.416-7.796v-15.546a2.23 2.23 0 010-.888z" fill="#fff" fill-opacity=".45"/><path d="M331.175 304h96.039a18.007 18.007 0 0112.704 5.289A17.984 17.984 0 01445.172 322v24.873a17.9 17.9 0 01-5.699 13.075l-.118.109a19.45 19.45 0 01-6.396 3.803l-.299.126a17.88 17.88 0 01-5.437.843h-32.907a38.737 38.737 0 00-22.744 7.37 38.698 38.698 0 00-14.077 19.313 3.622 3.622 0 01-2.827 2.481 1.56 1.56 0 01-.29 0h-.353a3.755 3.755 0 01-2.854-1.331l-34.013-42.466a18.027 18.027 0 01-3.986-11.318V322a17.978 17.978 0 015.27-12.727A17.99 17.99 0 01331.175 304zm106.812 26.439V322a10.763 10.763 0 00-10.727-10.765h-96.085a10.774 10.774 0 00-7.6 3.162 10.763 10.763 0 00-3.146 7.603v16.896a11.074 11.074 0 002.428 6.773l30.18 37.694a45.871 45.871 0 0116.956-18.81 45.904 45.904 0 0124.359-6.95h1.124c.16-.011.32-.011.48 0h31.304a11.36 11.36 0 003.071-.444 12.53 12.53 0 004.24-2.49 10.596 10.596 0 003.416-7.796v-15.546a2.23 2.23 0 010-.888z" fill="#fff" fill-opacity=".45"/><path d="M401.164 372.01c8.169-.014 16.012 3.045 21.82 8.509s9.111 12.89 9.188 20.66v.556c-.035 5.928-1.95 11.707-5.495 16.582-3.546 4.874-8.557 8.617-14.376 10.737a32.435 32.435 0 01-18.237 1.144c-6.061-1.375-11.545-4.459-15.732-8.848-.147-.119-.22-.218-.199-.218l-.177-.209-.094-.109-.115-.119-1.765-2.136a1.984 1.984 0 01-.375-.407c-3.193-4.427-5.054-9.6-5.383-14.96-.328-5.36.889-10.703 3.519-15.454 2.631-4.75 6.575-8.726 11.408-11.5 4.832-2.774 10.369-4.239 16.013-4.238v.01zm-16.704 43.987c3.064 3.195 7.068 5.44 11.491 6.441a23.752 23.752 0 0013.31-.825c4.249-1.54 7.912-4.26 10.515-7.807 2.602-3.546 4.022-7.756 4.075-12.081v-.466c-.152-5.644-2.622-11.006-6.881-14.938-4.259-3.931-9.968-6.118-15.903-6.092-5.934.026-11.622 2.263-15.843 6.231-4.221 3.969-6.639 9.352-6.736 14.997-.001 4.31 1.368 8.52 3.926 12.077l1.879 2.244.146.209.021.01z" fill="#fff" fill-opacity=".45"/><path d="M401.164 372.01c8.169-.014 16.012 3.045 21.82 8.509s9.111 12.89 9.188 20.66v.556c-.035 5.928-1.95 11.707-5.495 16.582-3.546 4.874-8.557 8.617-14.376 10.737a32.435 32.435 0 01-18.237 1.144c-6.061-1.375-11.545-4.459-15.732-8.848-.147-.119-.22-.218-.199-.218l-.177-.209-.094-.109-.115-.119-1.765-2.136a1.984 1.984 0 01-.375-.407c-3.193-4.427-5.054-9.6-5.383-14.96-.328-5.36.889-10.703 3.519-15.454 2.631-4.75 6.575-8.726 11.408-11.5 4.832-2.774 10.369-4.239 16.013-4.238v.01zm-16.704 43.987c3.064 3.195 7.068 5.44 11.491 6.441a23.752 23.752 0 0013.31-.825c4.249-1.54 7.912-4.26 10.515-7.807 2.602-3.546 4.022-7.756 4.075-12.081v-.466c-.152-5.644-2.622-11.006-6.881-14.938-4.259-3.931-9.968-6.118-15.903-6.092-5.934.026-11.622 2.263-15.843 6.231-4.221 3.969-6.639 9.352-6.736 14.997-.001 4.31 1.368 8.52 3.926 12.077l1.879 2.244.146.209.021.01zM462.311 418h96.767a18.108 18.108 0 0012.8-5.348 18.215 18.215 0 005.294-12.852v-25.15a18.147 18.147 0 00-5.742-13.22l-.119-.11a19.584 19.584 0 00-6.445-3.845l-.301-.128a17.93 17.93 0 00-5.478-.851h-33.156a38.946 38.946 0 01-22.916-7.452 39.119 39.119 0 01-14.184-19.529 3.647 3.647 0 00-2.848-2.508 1.593 1.593 0 00-.293 0h-.356a3.774 3.774 0 00-2.875 1.346l-34.27 42.937a18.269 18.269 0 00-4.017 11.444V399.8a18.242 18.242 0 001.378 6.964 18.199 18.199 0 003.932 5.905A18.12 18.12 0 00462.311 418zm107.622-26.733v8.533a10.894 10.894 0 01-3.161 7.683 10.83 10.83 0 01-7.648 3.202h-96.813a10.834 10.834 0 01-7.657-3.198 10.9 10.9 0 01-3.17-7.687v-17.084a11.217 11.217 0 012.447-6.848l30.408-38.113a46.318 46.318 0 0017.084 19.019 46.133 46.133 0 0024.544 7.027h1.132c.162.012.323.012.484 0h31.541a11.46 11.46 0 013.095.449 12.615 12.615 0 014.272 2.518 10.755 10.755 0 013.442 7.882v15.72a2.255 2.255 0 00-.046.393c-.002.169.013.338.046.504z" fill="#fff" fill-opacity=".45"/><path d="M462.311 418h96.767a18.108 18.108 0 0012.8-5.348 18.215 18.215 0 005.294-12.852v-25.15a18.147 18.147 0 00-5.742-13.22l-.119-.11a19.584 19.584 0 00-6.445-3.845l-.301-.128a17.93 17.93 0 00-5.478-.851h-33.156a38.946 38.946 0 01-22.916-7.452 39.119 39.119 0 01-14.184-19.529 3.647 3.647 0 00-2.848-2.508 1.593 1.593 0 00-.293 0h-.356a3.774 3.774 0 00-2.875 1.346l-34.27 42.937a18.269 18.269 0 00-4.017 11.444V399.8a18.242 18.242 0 001.378 6.964 18.199 18.199 0 003.932 5.905A18.12 18.12 0 00462.311 418zm107.622-26.733v8.533a10.894 10.894 0 01-3.161 7.683 10.83 10.83 0 01-7.648 3.202h-96.813a10.834 10.834 0 01-7.657-3.198 10.9 10.9 0 01-3.17-7.687v-17.084a11.217 11.217 0 012.447-6.848l30.408-38.113a46.318 46.318 0 0017.084 19.019 46.133 46.133 0 0024.544 7.027h1.132c.162.012.323.012.484 0h31.541a11.46 11.46 0 013.095.449 12.615 12.615 0 014.272 2.518 10.755 10.755 0 013.442 7.882v15.72a2.255 2.255 0 00-.046.393c-.002.169.013.338.046.504z" fill="#fff" fill-opacity=".45"/><path d="M531.664 349.99c8.037.014 15.754-3.097 21.468-8.653 5.715-5.557 8.964-13.109 9.04-21.011v-.565a29.578 29.578 0 00-5.407-16.863c-3.488-4.957-8.418-8.763-14.143-10.919a30.923 30.923 0 00-17.943-1.163 30.55 30.55 0 00-15.479 8.997c-.144.122-.216.223-.195.223l-.175.212-.092.111-.113.121-1.736 2.172c-.142.12-.267.26-.37.414a29.646 29.646 0 00-5.295 15.213 29.554 29.554 0 003.462 15.716 30.195 30.195 0 0011.223 11.695 30.878 30.878 0 0015.755 4.31v-.01zm-16.434-44.733a22.367 22.367 0 0111.305-6.55 22.64 22.64 0 0113.095.84 22.23 22.23 0 0110.345 7.938 21.658 21.658 0 014.01 12.286v.475c-.149 5.739-2.579 11.192-6.77 15.19-4.19 3.998-9.807 6.222-15.646 6.196-5.839-.027-11.435-2.302-15.587-6.337-4.153-4.036-6.533-9.511-6.628-15.251a21.49 21.49 0 013.862-12.282l1.849-2.283.144-.212.021-.01z" fill="#fff" fill-opacity=".45"/><path d="M531.664 349.99c8.037.014 15.754-3.097 21.468-8.653 5.715-5.557 8.964-13.109 9.04-21.011v-.565a29.578 29.578 0 00-5.407-16.863c-3.488-4.957-8.418-8.763-14.143-10.919a30.923 30.923 0 00-17.943-1.163 30.55 30.55 0 00-15.479 8.997c-.144.122-.216.223-.195.223l-.175.212-.092.111-.113.121-1.736 2.172c-.142.12-.267.26-.37.414a29.646 29.646 0 00-5.295 15.213 29.554 29.554 0 003.462 15.716 30.195 30.195 0 0011.223 11.695 30.878 30.878 0 0015.755 4.31v-.01zm-16.434-44.733a22.367 22.367 0 0111.305-6.55 22.64 22.64 0 0113.095.84 22.23 22.23 0 0110.345 7.938 21.658 21.658 0 014.01 12.286v.475c-.149 5.739-2.579 11.192-6.77 15.19-4.19 3.998-9.807 6.222-15.646 6.196-5.839-.027-11.435-2.302-15.587-6.337-4.153-4.036-6.533-9.511-6.628-15.251a21.49 21.49 0 013.862-12.282l1.849-2.283.144-.212.021-.01zm-423.5 82.841l.346 95.464a17.845 17.845 0 01-5.242 12.646 18.035 18.035 0 01-12.69 5.268l-24.868.088a17.969 17.969 0 01-13.093-5.618l-.11-.117a19.3 19.3 0 01-3.824-6.345l-.128-.296a17.662 17.662 0 01-.862-5.401l-.118-32.71a38.357 38.357 0 00-7.451-22.581 38.688 38.688 0 00-19.36-13.925 3.62 3.62 0 01-1.64-1.054 3.594 3.594 0 01-.851-1.747 1.548 1.548 0 01-.002-.288v-.351a3.715 3.715 0 011.32-2.842l42.334-33.96a18.099 18.099 0 0111.302-4.003l16.875-.059c2.362-.01 4.704.444 6.89 1.335a18.008 18.008 0 015.854 3.857 17.898 17.898 0 013.922 5.793 17.822 17.822 0 011.395 6.846zM65.68 494.364l8.438-.03a10.785 10.785 0 007.586-3.145 10.67 10.67 0 003.139-7.556l-.347-95.51a10.682 10.682 0 00-3.19-7.543 10.795 10.795 0 00-7.612-3.1l-16.893.06a11.11 11.11 0 00-6.763 2.438l-37.577 30.133a45.772 45.772 0 0118.867 16.787 45.437 45.437 0 017.037 24.189l.004 1.117c.012.159.013.318.002.477l.113 31.116c.01 1.033.163 2.06.454 3.052a12.445 12.445 0 002.505 4.206 10.65 10.65 0 007.807 3.367l15.543-.055a2.214 2.214 0 01.888-.003z" fill="#fff" fill-opacity=".45"/><path d="M91.73 388.098l.346 95.464a17.845 17.845 0 01-5.242 12.646 18.035 18.035 0 01-12.69 5.268l-24.868.088a17.969 17.969 0 01-13.093-5.618l-.11-.117a19.3 19.3 0 01-3.824-6.345l-.128-.296a17.662 17.662 0 01-.862-5.401l-.118-32.71a38.357 38.357 0 00-7.451-22.581 38.688 38.688 0 00-19.36-13.925 3.62 3.62 0 01-1.64-1.054 3.594 3.594 0 01-.851-1.747 1.548 1.548 0 01-.002-.288v-.351a3.715 3.715 0 011.32-2.842l42.334-33.96a18.099 18.099 0 0111.302-4.003l16.875-.059c2.362-.01 4.704.444 6.89 1.335a18.008 18.008 0 015.854 3.857 17.898 17.898 0 013.922 5.793 17.822 17.822 0 011.395 6.846zM65.68 494.364l8.438-.03a10.785 10.785 0 007.586-3.145 10.67 10.67 0 003.139-7.556l-.347-95.51a10.682 10.682 0 00-3.19-7.543 10.795 10.795 0 00-7.612-3.1l-16.893.06a11.11 11.11 0 00-6.763 2.438l-37.577 30.133a45.772 45.772 0 0118.867 16.787 45.437 45.437 0 017.037 24.189l.004 1.117c.012.159.013.318.002.477l.113 31.116c.01 1.033.163 2.06.454 3.052a12.445 12.445 0 002.505 4.206 10.65 10.65 0 007.807 3.367l15.543-.055a2.214 2.214 0 01.888-.003z" fill="#fff" fill-opacity=".45"/><path d="M24.088 457.128c.043 8.026-3.039 15.744-8.573 21.47C9.98 484.325 2.44 487.597-5.46 487.7l-.565.002a29.597 29.597 0 01-16.88-5.339 30.33 30.33 0 01-10.967-14.086 30.849 30.849 0 01-1.228-17.914 30.493 30.493 0 018.94-15.491c.12-.144.22-.216.22-.196l.212-.175.11-.093.122-.113 2.165-1.741c.12-.142.258-.267.412-.371 4.49-3.153 9.743-5 15.192-5.342a29.588 29.588 0 0115.725 3.401 30.182 30.182 0 0111.733 11.167 30.814 30.814 0 014.366 15.719h-.01zm-44.783-16.254a22.338 22.338 0 00-6.508 11.314 22.595 22.595 0 00.887 13.075 22.217 22.217 0 007.974 10.303 21.682 21.682 0 0012.298 3.961l.475-.002c5.737-.169 11.18-2.616 15.163-6.815 3.982-4.199 6.185-9.816 6.137-15.647-.047-5.831-2.342-11.411-6.392-15.544-4.05-4.133-9.532-6.49-15.272-6.565a21.5 21.5 0 00-12.265 3.901l-2.276 1.854-.211.145-.01.02z" fill="#fff" fill-opacity=".45"/><path d="M24.088 457.128c.043 8.026-3.039 15.744-8.573 21.47C9.98 484.325 2.44 487.597-5.46 487.7l-.565.002a29.597 29.597 0 01-16.88-5.339 30.33 30.33 0 01-10.967-14.086 30.849 30.849 0 01-1.228-17.914 30.493 30.493 0 018.94-15.491c.12-.144.22-.216.22-.196l.212-.175.11-.093.122-.113 2.165-1.741c.12-.142.258-.267.412-.371 4.49-3.153 9.743-5 15.192-5.342a29.588 29.588 0 0115.725 3.401 30.182 30.182 0 0111.733 11.167 30.814 30.814 0 014.366 15.719h-.01zm-44.783-16.254a22.338 22.338 0 00-6.508 11.314 22.595 22.595 0 00.887 13.075 22.217 22.217 0 007.974 10.303 21.682 21.682 0 0012.298 3.961l.475-.002c5.737-.169 11.18-2.616 15.163-6.815 3.982-4.199 6.185-9.816 6.137-15.647-.047-5.831-2.342-11.411-6.392-15.544-4.05-4.133-9.532-6.49-15.272-6.565a21.5 21.5 0 00-12.265 3.901l-2.276 1.854-.211.145-.01.02z" fill="#fff" fill-opacity=".45"/><path d="M467.448 453.703l.347 95.464a17.846 17.846 0 01-5.242 12.646 18.036 18.036 0 01-12.691 5.268l-24.868.088a17.967 17.967 0 01-13.092-5.618l-.109-.117a19.308 19.308 0 01-3.826-6.345l-.127-.296a17.666 17.666 0 01-.862-5.401l-.119-32.71a38.36 38.36 0 00-7.45-22.581 38.692 38.692 0 00-19.361-13.925 3.618 3.618 0 01-2.491-2.801 1.63 1.63 0 01-.001-.288l-.001-.351a3.717 3.717 0 011.32-2.842l42.335-33.96a18.095 18.095 0 0111.302-4.003l16.874-.06a18.086 18.086 0 016.892 1.336 18.009 18.009 0 015.852 3.857 17.882 17.882 0 013.923 5.793 17.8 17.8 0 011.395 6.846zm-26.049 106.266l8.438-.03a10.785 10.785 0 007.586-3.145 10.672 10.672 0 003.139-7.556l-.347-95.51a10.684 10.684 0 00-3.19-7.543 10.795 10.795 0 00-7.613-3.1l-16.892.06a11.106 11.106 0 00-6.763 2.438l-37.578 30.133a45.775 45.775 0 0118.868 16.787 45.443 45.443 0 017.037 24.189l.004 1.117c.012.159.012.318.001.477l.113 31.116c.011 1.033.164 2.06.455 3.052a12.438 12.438 0 002.505 4.206 10.592 10.592 0 003.549 2.496c1.344.58 2.793.876 4.258.871l15.543-.055a2.21 2.21 0 01.887-.003z" fill="#4EBA66" fill-opacity=".3"/><path d="M399.807 522.733c.043 8.026-3.039 15.744-8.573 21.47-5.535 5.727-13.074 8.999-20.974 9.102l-.566.002a29.595 29.595 0 01-16.878-5.339 30.327 30.327 0 01-10.968-14.086 30.845 30.845 0 01-1.229-17.915 30.495 30.495 0 018.94-15.49c.121-.144.221-.216.222-.196l.211-.175.111-.093.12-.113 2.165-1.741c.12-.142.259-.267.413-.371 4.49-3.153 9.743-5 15.191-5.342a29.586 29.586 0 0115.725 3.401 30.18 30.18 0 0111.734 11.167 30.816 30.816 0 014.366 15.719h-.01zm-44.783-16.254a22.33 22.33 0 00-6.508 11.314 22.595 22.595 0 00.886 13.075 22.219 22.219 0 007.975 10.303 21.68 21.68 0 0012.298 3.961l.475-.002c5.737-.169 11.18-2.616 15.162-6.815 3.982-4.199 6.186-9.816 6.138-15.647-.047-5.831-2.342-11.411-6.392-15.544-4.05-4.133-9.533-6.49-15.272-6.565a21.498 21.498 0 00-12.265 3.901l-2.276 1.854-.211.145-.01.02zM-16.645 629.105l-.347-95.464a17.85 17.85 0 015.242-12.647 18.034 18.034 0 0112.69-5.267l24.868-.089c2.453-.005 4.88.491 7.133 1.457a17.912 17.912 0 015.96 4.162l.11.117a19.305 19.305 0 013.824 6.344l.128.297c.566 1.745.857 3.567.862 5.401l.118 32.71a38.361 38.361 0 007.451 22.581 38.688 38.688 0 0019.36 13.925 3.598 3.598 0 012.49 2.801c.01.095.011.192.002.288l.002.351a3.73 3.73 0 01-1.32 2.842l-42.335 33.959a18.087 18.087 0 01-11.302 4.003l-16.875.06a18.062 18.062 0 01-6.89-1.335 17.995 17.995 0 01-5.854-3.858 17.888 17.888 0 01-3.922-5.793 17.813 17.813 0 01-1.395-6.845zM9.403 522.839l-8.437.03a10.78 10.78 0 00-7.586 3.144 10.673 10.673 0 00-3.139 7.557l.347 95.509a10.683 10.683 0 003.19 7.544 10.794 10.794 0 007.612 3.099l16.893-.06a11.11 11.11 0 006.762-2.437l37.578-30.134a45.758 45.758 0 01-18.867-16.787 45.435 45.435 0 01-7.037-24.189l-.004-1.116a3.33 3.33 0 01-.002-.478l-.113-31.116a11.253 11.253 0 00-.454-3.051 12.445 12.445 0 00-2.505-4.206 10.617 10.617 0 00-3.55-2.497 10.667 10.667 0 00-4.257-.871l-15.543.055a2.215 2.215 0 01-.39.047 2.447 2.447 0 01-.498-.043z" fill="#fff" fill-opacity=".45"/><path d="M-16.645 629.105l-.347-95.464a17.85 17.85 0 015.242-12.647 18.034 18.034 0 0112.69-5.267l24.868-.089c2.453-.005 4.88.491 7.133 1.457a17.912 17.912 0 015.96 4.162l.11.117a19.305 19.305 0 013.824 6.344l.128.297c.566 1.745.857 3.567.862 5.401l.118 32.71a38.361 38.361 0 007.451 22.581 38.688 38.688 0 0019.36 13.925 3.598 3.598 0 012.49 2.801c.01.095.011.192.002.288l.002.351a3.73 3.73 0 01-1.32 2.842l-42.335 33.959a18.087 18.087 0 01-11.302 4.003l-16.875.06a18.062 18.062 0 01-6.89-1.335 17.995 17.995 0 01-5.854-3.858 17.888 17.888 0 01-3.922-5.793 17.813 17.813 0 01-1.395-6.845zM9.403 522.839l-8.437.03a10.78 10.78 0 00-7.586 3.144 10.673 10.673 0 00-3.139 7.557l.347 95.509a10.683 10.683 0 003.19 7.544 10.794 10.794 0 007.612 3.099l16.893-.06a11.11 11.11 0 006.762-2.437l37.578-30.134a45.758 45.758 0 01-18.867-16.787 45.435 45.435 0 01-7.037-24.189l-.004-1.116a3.33 3.33 0 01-.002-.478l-.113-31.116a11.253 11.253 0 00-.454-3.051 12.445 12.445 0 00-2.505-4.206 10.617 10.617 0 00-3.55-2.497 10.667 10.667 0 00-4.257-.871l-15.543.055a2.215 2.215 0 01-.39.047 2.447 2.447 0 01-.498-.043z" fill="#fff" fill-opacity=".45"/><path d="M50.998 560.074c-.043-8.026 3.039-15.743 8.573-21.47 5.535-5.726 13.074-8.998 20.974-9.102l.565-.002a29.605 29.605 0 0116.88 5.34 30.325 30.325 0 0110.967 14.085 30.853 30.853 0 011.228 17.915 30.492 30.492 0 01-8.939 15.491c-.121.144-.222.216-.222.195l-.211.175-.111.093-.121.113-2.165 1.742c-.12.142-.259.267-.412.371-4.49 3.153-9.743 5-15.192 5.342a29.579 29.579 0 01-15.725-3.402 30.166 30.166 0 01-11.733-11.167 30.81 30.81 0 01-4.367-15.719h.01zm44.783 16.254a22.326 22.326 0 006.508-11.314 22.583 22.583 0 00-.887-13.074 22.214 22.214 0 00-7.974-10.303 21.681 21.681 0 00-12.298-3.961l-.475.002c-5.737.169-11.18 2.616-15.163 6.815-3.982 4.199-6.185 9.816-6.138 15.647.048 5.831 2.343 11.411 6.393 15.544 4.05 4.133 9.532 6.49 15.272 6.565a21.507 21.507 0 0012.265-3.901l2.275-1.855.212-.144.01-.021z" fill="#fff" fill-opacity=".45"/><path d="M50.998 560.074c-.043-8.026 3.039-15.743 8.573-21.47 5.535-5.726 13.074-8.998 20.974-9.102l.565-.002a29.605 29.605 0 0116.88 5.34 30.325 30.325 0 0110.967 14.085 30.853 30.853 0 011.228 17.915 30.492 30.492 0 01-8.939 15.491c-.121.144-.222.216-.222.195l-.211.175-.111.093-.121.113-2.165 1.742c-.12.142-.259.267-.412.371-4.49 3.153-9.743 5-15.192 5.342a29.579 29.579 0 01-15.725-3.402 30.166 30.166 0 01-11.733-11.167 30.81 30.81 0 01-4.367-15.719h.01zm44.783 16.254a22.326 22.326 0 006.508-11.314 22.583 22.583 0 00-.887-13.074 22.214 22.214 0 00-7.974-10.303 21.681 21.681 0 00-12.298-3.961l-.475.002c-5.737.169-11.18 2.616-15.163 6.815-3.982 4.199-6.185 9.816-6.138 15.647.048 5.831 2.343 11.411 6.393 15.544 4.05 4.133 9.532 6.49 15.272 6.565a21.507 21.507 0 0012.265-3.901l2.275-1.855.212-.144.01-.021z" fill="#fff" fill-opacity=".45"/></svg>