<svg width="114" height="114" fill="none" xmlns="http://www.w3.org/2000/svg"><circle cx="57" cy="57" r="57" fill="#ECECF7"/><path fill-rule="evenodd" clip-rule="evenodd" d="M51.328 38c9.983.017 25.216 9.289 29.35 16.54-.238.29-.457.585-.651.88-.733-.534-1.688-1.055-2.841-1.565-1.698-2.035-4.332-4.35-7.543-6.508-6.215-4.175-13.154-6.884-18.32-6.892-7.515-.013-13.888 4.9-16.053 11.68-1.862 1.18-3.027 2.618-3.236 4.247.445-10.233 8.918-18.4 19.294-18.382zM32.016 57.285v-.057c0-.284.006-.566.018-.846a4.238 4.238 0 00-.018.903zm3.145 4.636c-1.849-1.261-2.962-2.799-3.14-4.571a3.607 3.607 0 01-.005-.065c.03 10.474 8.54 18.82 19.27 19.17 8.464.276 24.557-8.377 29.184-15.164 1.84 2.38 5.066 4.528 7.01 4.528 2.497 0 4.52-2.015 4.52-4.5 0-1.29-.545-2.452-1.418-3.273A4.479 4.479 0 0092 54.773c0-2.485-2.023-4.5-4.52-4.5-1.873 0-4.935 1.994-6.802 4.267.45.788.768 1.553.934 2.279h-.21c-.286-.477-.75-.942-1.375-1.399-.308.469-.555.94-.72 1.399h-.24v.039c-.31-.871-.957-1.896-1.881-3.003-1.75-.774-3.957-1.522-6.54-2.25-6.363-1.793-13.673-2.959-19.318-2.968-6.667-.011-12.58 1.295-16.058 3.499a16.688 16.688 0 00-.779 4.493c.482-2.86 7.764-5.553 16.833-5.538 5.4.01 12.491 1.14 18.65 2.876 2.882.812 5.352 1.704 7.077 2.556.84.415 1.48.81 1.885 1.155.049.042.093.082.133.12v.22a3.19 3.19 0 01-.143.106c-.459.321-1.182.68-2.13 1.049-1.886.735-4.567 1.482-7.686 2.15-6.294 1.349-13.412 2.183-17.744 2.042-9.641-.314-16.49-3-16.885-6.203v.066c0 1.633.237 3.207.68 4.693zm41.945-.212c-1.944.708-4.462 1.368-7.478 2.014-6.475 1.387-13.783 2.244-18.343 2.095-6.997-.227-12.771-1.608-16.124-3.897 2.039 6.845 8.446 11.828 16.205 12.08 6.946.227 20.473-6.82 25.74-12.293zm1.962-2.768c-.324.835-1.007 1.776-1.962 2.767 1.117-.406 2.045-.829 2.77-1.274.176.287.375.574.594.857.475-.696.83-1.372 1.042-2.018h.5c1.177 1.802 4.214 4.091 5.469 4.091a2.05 2.05 0 002.054-2.045 2.05 2.05 0 00-2.054-2.046 4.514 4.514 0 003.102-1.227 4.514 4.514 0 00-3.102-1.227 2.05 2.05 0 002.054-2.046 2.05 2.05 0 00-2.054-2.045c-1.255 0-4.292 2.29-5.47 4.09a4.277 4.277 0 00-.303.545c.026.206.038.41.036.608v-.01a1.96 1.96 0 00-.07-.519 1.63 1.63 0 00-.14.604v-.002l-1.232.002V56.82h-.996c-.049.136-.09.27-.125.404a4.275 4.275 0 00-.113-.365l.001.94.01.01c-.005.07-.009.14-.01.21v.026-.027a1.88 1.88 0 00.117-.098c.037.043.067.082.09.116v.002a2.726 2.726 0 01-.13.684 3.202 3.202 0 01-.077-.673v.893zm.239.332h-.24l.001-.332c.029-.075.055-.148.078-.22.04.181.093.366.16.552zm.821 0h-.822c.06.164.13.33.208.495l-2.408 1.94 2.408-1.938c.105.22.227.442.362.664.604-.37 1.066-.756 1.38-1.16H80.13l.172-.139v-.001l-.174.14zm0 0l-.614.495v.002l.617-.497h-.003zm1.516-.701l.03.08c.042-.22.066-.433.07-.643a1.898 1.898 0 01-.1.563zm-2.458-.653a1.938 1.938 0 00-.107-.11c.016-.192.05-.387.102-.586.055.213.088.415.096.605a1.135 1.135 0 01-.091.091zm2.353.218l.205-.166v.003l-.205.165v-.002z" fill="url(#paint0_linear)"/><defs><linearGradient id="paint0_linear" x1="-4.795" y1="61.757" x2="40.805" y2="129.862" gradientUnits="userSpaceOnUse"><stop stop-color="#2DBFFF"/><stop offset=".573" stop-color="#7875F5"/><stop offset="1" stop-color="#B543E9"/></linearGradient></defs></svg>