<svg width="570" height="898" viewBox="0 0 570 898" fill="none" xmlns="http://www.w3.org/2000/svg">
<g filter="url(#filter0_d)">
<path d="M62 280.346C62 273.387 68.9309 268.556 75.4599 270.964L501.46 428.059C505.39 429.508 508 433.253 508 437.441V842C508 847.523 503.523 852 498 852H72C66.4772 852 62 847.523 62 842V280.346Z" fill="white"/>
</g>
<g filter="url(#filter1_d)">
<path d="M29 168.341C29 161.383 35.9282 156.552 42.4567 158.957L534.457 340.198C538.388 341.646 541 345.391 541 349.581V816C541 821.523 536.523 826 531 826H39C33.4772 826 29 821.523 29 816V168.341Z" fill="white"/>
</g>
<path d="M570 62.3531C570 55.3923 563.065 50.5609 556.536 52.9723L6.53577 256.086C2.60822 257.537 0 261.28 0 265.467V788C0 793.523 4.47717 798 10 798H560C565.523 798 570 793.523 570 788V62.3531Z" fill="#F4F8FB"/>
<g filter="url(#filter2_d)">
<circle cx="284.5" cy="167.5" r="167.5" fill="white"/>
</g>
<defs>
<filter id="filter0_d" x="39" y="270.337" width="492" height="627.663" filterUnits="userSpaceOnUse" color-interpolation-filters="sRGB">
<feFlood flood-opacity="0" result="BackgroundImageFix"/>
<feColorMatrix in="SourceAlpha" type="matrix" values="0 0 0 0 0 0 0 0 0 0 0 0 0 0 0 0 0 0 127 0"/>
<feOffset dy="23"/>
<feGaussianBlur stdDeviation="11.5"/>
<feColorMatrix type="matrix" values="0 0 0 0 0 0 0 0 0 0.407333 0 0 0 0 0.783333 0 0 0 0.06 0"/>
<feBlend mode="normal" in2="BackgroundImageFix" result="effect1_dropShadow"/>
<feBlend mode="normal" in="SourceGraphic" in2="effect1_dropShadow" result="shape"/>
</filter>
<filter id="filter1_d" x="6" y="158.332" width="558" height="713.668" filterUnits="userSpaceOnUse" color-interpolation-filters="sRGB">
<feFlood flood-opacity="0" result="BackgroundImageFix"/>
<feColorMatrix in="SourceAlpha" type="matrix" values="0 0 0 0 0 0 0 0 0 0 0 0 0 0 0 0 0 0 127 0"/>
<feOffset dy="23"/>
<feGaussianBlur stdDeviation="11.5"/>
<feColorMatrix type="matrix" values="0 0 0 0 0 0 0 0 0 0.407333 0 0 0 0 0.783333 0 0 0 0.06 0"/>
<feBlend mode="normal" in2="BackgroundImageFix" result="effect1_dropShadow"/>
<feBlend mode="normal" in="SourceGraphic" in2="effect1_dropShadow" result="shape"/>
</filter>
<filter id="filter2_d" x="94" y="0" width="381" height="381" filterUnits="userSpaceOnUse" color-interpolation-filters="sRGB">
<feFlood flood-opacity="0" result="BackgroundImageFix"/>
<feColorMatrix in="SourceAlpha" type="matrix" values="0 0 0 0 0 0 0 0 0 0 0 0 0 0 0 0 0 0 127 0"/>
<feOffset dy="23"/>
<feGaussianBlur stdDeviation="11.5"/>
<feColorMatrix type="matrix" values="0 0 0 0 0 0 0 0 0 0.407333 0 0 0 0 0.783333 0 0 0 0.06 0"/>
<feBlend mode="normal" in2="BackgroundImageFix" result="effect1_dropShadow"/>
<feBlend mode="normal" in="SourceGraphic" in2="effect1_dropShadow" result="shape"/>
</filter>
</defs>
</svg>
