<svg width="1034" height="675" viewBox="0 0 1034 675" fill="none" xmlns="http://www.w3.org/2000/svg">
<path d="M990.979 549.462L981.217 640.652L894.47 610.977L904.205 519.783L990.979 549.462Z" fill="url(#paint0_linear)"/>
<path d="M981.217 640.652L894.47 610.977L904.228 519.814L990.979 549.462L981.206 640.636L981.217 640.652ZM982.227 642.223C982.448 642.073 982.634 641.878 982.774 641.651C982.914 641.424 983.004 641.17 983.039 640.905L992.812 549.731C992.857 549.331 992.762 548.928 992.545 548.59C992.327 548.252 992 547.999 991.617 547.874L904.859 518.185C904.604 518.106 904.334 518.082 904.068 518.116C903.802 518.149 903.547 518.239 903.318 518.379C903.092 518.523 902.901 518.716 902.761 518.945C902.62 519.173 902.533 519.43 902.506 519.697L892.748 610.86C892.72 611.26 892.82 611.658 893.035 611.997C893.249 612.335 893.565 612.597 893.939 612.743L980.645 642.33C980.897 642.423 981.166 642.456 981.433 642.427C981.7 642.398 981.956 642.307 982.182 642.163L982.227 642.223Z" fill="url(#paint1_linear)"/>
<g filter="url(#filter0_dd)">
<path d="M498.76 437.853C494.079 434.256 487.114 436.262 482.697 441.067C477.901 446.246 477.227 454.522 483.757 461.003C489.71 466.901 498.627 466.698 508.379 465.995C514.514 465.488 520.674 465.362 526.824 465.619C526.501 459.466 526.547 453.299 526.964 447.151C527.535 437.357 527.553 428.421 521.656 422.614C515.075 416.101 506.831 416.892 501.725 421.745C497.021 426.21 495.105 433.201 498.76 437.853Z" fill="url(#paint2_linear)"/>
<path d="M501.341 422.138L501.766 421.735C506.808 416.827 515.124 416.055 521.696 422.604C527.635 428.479 527.562 437.402 527.005 447.141C526.588 453.288 526.542 459.456 526.865 465.609C520.715 465.352 514.555 465.478 508.42 465.985C498.576 466.666 489.751 466.891 483.798 460.993C477.231 454.503 477.905 446.227 482.738 441.057L483.15 440.631C487.57 436.137 494.322 434.371 498.8 437.843C495.266 433.336 496.962 426.622 501.382 422.129L501.341 422.138ZM500.81 421.604C497.108 425.358 494.89 431.093 496.769 435.885C491.956 434.06 486.261 436.349 482.559 440.102L482.143 440.546C477.505 445.55 475.876 454.258 483.256 461.562C489.389 467.6 498.302 467.493 508.469 466.754C514.547 466.259 520.649 466.133 526.741 466.374C526.741 466.374 526.741 466.374 526.869 466.405C527.07 466.402 527.262 466.322 527.406 466.183L527.472 465.908C527.54 465.785 527.573 465.645 527.568 465.504C527.25 459.409 527.295 453.3 527.705 447.21C528.312 437.018 528.385 428.095 522.092 422C514.708 414.714 505.99 416.439 501.107 421.171L500.677 421.592L500.81 421.604Z" fill="url(#paint3_linear)"/>
</g>
<g filter="url(#filter1_dd)">
<path d="M90.679 75.5778C61.9103 81.6018 49.5719 78.9413 49.5719 78.9413C49.5719 78.9413 56.0914 89.7516 59.7711 118.944C62.7149 142.363 65.2005 161.219 80.0652 171.835C86.3017 176.281 94.047 178.064 101.6 176.794C109.153 175.524 115.895 171.304 120.347 165.061C126.856 155.949 128.997 144.67 125.159 135.709C133.548 143.664 145.9 155.919 145.804 164.578L161.773 142.183C153.622 145.096 138.022 137.369 127.784 132.023C137.541 132.819 147.469 126.95 153.938 117.926C156.141 114.833 157.714 111.336 158.567 107.635C159.421 103.934 159.538 100.102 158.913 96.3563C158.287 92.6109 156.931 89.0262 154.922 85.8066C152.912 82.5871 150.289 79.7959 147.202 77.5924C132.374 66.9848 113.767 70.7603 90.679 75.5778Z" fill="url(#paint4_linear)"/>
<path d="M49.5715 78.9412C49.5715 78.9412 61.9099 81.6017 90.6785 75.5778C113.767 70.7603 132.373 66.9848 147.238 77.6009C150.325 79.8044 152.949 82.5956 154.958 85.8151C156.967 89.0347 158.324 92.6194 158.949 96.3648C159.575 100.11 159.457 103.943 158.604 107.644C157.75 111.345 156.177 114.841 153.974 117.935C147.483 127.051 137.578 132.828 127.82 132.032C138.059 137.378 153.659 145.105 161.81 142.191L145.853 164.531C145.949 155.873 133.597 143.617 125.208 135.663C129.138 144.645 126.905 155.903 120.396 165.015C115.945 171.258 109.202 175.478 101.649 176.748C94.0962 178.018 86.3509 176.234 80.1144 171.788C65.1947 161.159 62.7641 142.317 59.8203 118.897C56.1405 89.705 49.6211 78.8947 49.6211 78.8947L49.5715 78.9412ZM48.2454 77.9133C48.0349 78.1853 47.9139 78.5159 47.8992 78.8596C47.8845 79.2033 47.9767 79.543 48.1632 79.8317C48.1632 79.8317 54.5436 90.8226 58.1248 119.197C61.008 142.215 63.5405 162.108 79.1162 173.24C85.7229 177.947 93.926 179.837 101.926 178.494C109.926 177.151 117.07 172.686 121.791 166.078C127.132 158.986 129.552 150.113 128.551 141.291C135.253 147.939 144.264 157.861 144.173 164.602C144.168 164.963 144.279 165.316 144.488 165.61C144.698 165.904 144.995 166.123 145.338 166.235C145.68 166.348 146.05 166.348 146.392 166.237C146.735 166.125 147.034 165.906 147.244 165.613L163.218 143.199C163.411 142.909 163.51 142.566 163.502 142.218C163.493 141.869 163.378 141.532 163.172 141.251C162.955 140.963 162.652 140.752 162.306 140.65C161.961 140.548 161.592 140.56 161.254 140.685C154.921 142.94 142.618 137.652 134.16 133.46C142.803 131.548 150.389 126.392 155.356 119.053C157.7 115.767 159.373 112.051 160.281 108.118C161.188 104.184 161.311 100.11 160.643 96.1301C159.974 92.1499 158.528 88.3414 156.387 84.923C154.246 81.5047 151.451 78.5437 148.164 76.2098C132.552 65.0695 112.962 69.1572 90.2755 73.9137C62.3222 79.7607 49.9731 77.3108 49.8631 77.285C49.5406 77.2153 49.2049 77.2403 48.8961 77.3569C48.5874 77.4735 48.3187 77.6769 48.1224 77.9426L48.2454 77.9133Z" fill="url(#paint5_linear)"/>
</g>
<g filter="url(#filter2_dd)">
<path d="M903.144 100.84C895.5 95.9829 889.872 98.3481 889.721 97.6864C889.571 97.0247 900.006 97.6286 906.922 86.7383C908.421 84.4713 909.453 81.9273 909.957 79.2551C910.461 76.5828 910.428 73.8361 909.858 71.1754C909.288 68.5148 908.194 65.9938 906.639 63.7598C905.084 61.5258 903.101 59.6238 900.803 58.1649C898.506 56.7061 895.942 55.7197 893.261 55.2636C890.58 54.8074 887.835 54.8907 885.188 55.5084C882.541 56.1261 880.045 57.2659 877.845 58.8611C875.645 60.4563 873.786 62.4749 872.376 64.7988C865.539 75.5946 870.378 84.885 869.685 85.0588C868.992 85.2326 868.614 78.9219 861.234 74.2346C856.652 71.3298 851.107 70.3622 845.819 71.5444C840.53 72.7266 835.93 75.9619 833.03 80.5392C833.013 80.5599 832.991 80.5765 832.966 80.5879C832.966 80.5879 832.966 80.5879 832.913 80.6286C832.202 81.7462 831.612 82.9367 831.154 84.1798C829.483 88.5838 829.385 93.4321 830.875 97.9052C832.365 102.378 835.352 106.202 839.332 108.73C856.958 119.92 866.858 99.9884 870.148 103.996C864.903 110.844 851.133 128.173 844.418 129.932L859.882 139.765C858.602 132.978 868.379 113.039 872.359 105.416C877.464 106.588 863.387 124.067 881.199 135.368C885.18 137.895 889.909 138.971 894.587 138.414C899.265 137.857 903.604 135.7 906.872 132.309C907.796 131.363 908.619 130.323 909.326 129.206L909.38 129.165L909.444 129.117C910.888 126.85 911.871 124.32 912.336 121.671C912.801 119.022 912.739 116.307 912.154 113.68C911.569 111.054 910.472 108.568 908.926 106.364C907.38 104.161 905.415 102.284 903.144 100.84V100.84Z" fill="url(#paint6_linear)"/>
<path d="M900.588 58.5046C905.165 61.4153 908.404 66.0218 909.593 71.3134C910.783 76.605 909.826 82.1494 906.933 86.7299C900.049 97.5959 889.59 97.027 889.732 97.678L889.789 97.7527C890.407 98.1429 895.853 96.2028 903.155 100.832C907.735 103.74 910.976 108.347 912.166 113.639C913.355 118.932 912.397 124.477 909.5 129.057L909.436 129.106L909.383 129.146C908.675 130.264 907.852 131.303 906.928 132.249C903.661 135.64 899.321 137.797 894.643 138.354C889.965 138.912 885.236 137.836 881.255 135.308C864.114 124.423 876.537 107.869 872.913 105.567C872.76 105.47 872.591 105.399 872.415 105.356C868.459 113.012 858.658 132.918 859.938 139.706L844.475 129.872C851.154 128.157 864.917 110.817 870.204 103.936C870.105 103.797 869.977 103.682 869.828 103.598C866.215 101.289 856.397 119.47 839.388 108.67C835.408 106.142 832.421 102.319 830.931 97.8455C829.441 93.3724 829.539 88.524 831.21 84.12C831.669 82.877 832.258 81.6865 832.969 80.5689C832.969 80.5689 832.969 80.5689 833.022 80.5282C833.047 80.5168 833.069 80.5002 833.086 80.4795C835.986 75.9022 840.586 72.6669 845.875 71.4847C851.164 70.3025 856.708 71.2701 861.29 74.1749C868.317 78.6419 868.987 84.5616 869.639 84.9757C869.648 85.0015 869.665 85.0239 869.688 85.0397C870.389 84.8766 865.542 75.5756 872.379 64.7797C875.279 60.2024 879.879 56.9671 885.167 55.7849C890.456 54.6027 896.001 55.5703 900.583 58.4751L900.588 58.5046ZM901.228 57.443C896.372 54.3672 890.497 53.3418 884.892 54.5918C879.287 55.8417 874.41 59.265 871.33 64.1108C868.583 68.3312 867.232 73.3101 867.467 78.3446C865.941 76.2847 864.035 74.5347 861.853 73.189C856.997 70.1096 851.121 69.0822 845.516 70.3323C839.91 71.5825 835.032 75.0081 831.955 79.8568V79.8568C831.93 79.8682 831.908 79.8849 831.891 79.9055C831.137 81.0882 830.509 82.3471 830.018 83.6614C828.259 88.3322 828.162 93.4688 829.742 98.208C831.323 102.947 834.484 107 838.696 109.687C851.041 117.527 859.868 110.935 865.238 106.927C865.878 106.44 866.794 105.741 867.608 105.239C857.003 118.873 848.317 127.551 844.193 128.618C843.957 128.675 843.744 128.801 843.58 128.98C843.416 129.159 843.31 129.383 843.274 129.623C843.233 129.864 843.266 130.113 843.367 130.336C843.468 130.56 843.634 130.748 843.842 130.877L859.309 140.692C859.51 140.821 859.744 140.888 859.983 140.884C860.222 140.881 860.454 140.808 860.651 140.673C860.848 140.539 861.002 140.35 861.093 140.129C861.184 139.909 861.208 139.666 861.162 139.432C860.367 135.227 864.526 123.637 872.35 108.19C872.224 109.13 871.985 110.275 871.811 111.065C870.453 117.551 868.165 128.391 880.633 136.305C884.853 138.977 889.863 140.113 894.817 139.522C899.772 138.931 904.369 136.649 907.833 133.061C908.805 132.068 909.664 130.972 910.396 129.791L910.46 129.743L910.524 129.694C912.358 126.745 913.461 123.401 913.741 119.938C914.021 116.475 913.471 112.993 912.136 109.784C910.8 106.574 908.719 103.728 906.064 101.483C903.409 99.2384 900.258 97.6593 896.873 96.8773C901.452 94.9651 905.31 91.6584 907.902 87.4262C910.973 82.573 911.991 76.6961 910.733 71.086C909.474 65.476 906.043 60.5914 901.191 57.505L901.228 57.443Z" fill="url(#paint7_linear)"/>
</g>
<defs>
<filter id="filter0_dd" x="439" y="375.001" width="134.714" height="135.23" filterUnits="userSpaceOnUse" color-interpolation-filters="sRGB">
<feFlood flood-opacity="0" result="BackgroundImageFix"/>
<feColorMatrix in="SourceAlpha" type="matrix" values="0 0 0 0 0 0 0 0 0 0 0 0 0 0 0 0 0 0 127 0"/>
<feOffset dx="12" dy="12"/>
<feGaussianBlur stdDeviation="12"/>
<feColorMatrix type="matrix" values="0 0 0 0 0.0866667 0 0 0 0 0.0933333 0 0 0 0 0.108333 0 0 0 0.5 0"/>
<feBlend mode="normal" in2="BackgroundImageFix" result="effect1_dropShadow"/>
<feColorMatrix in="SourceAlpha" type="matrix" values="0 0 0 0 0 0 0 0 0 0 0 0 0 0 0 0 0 0 127 0"/>
<feOffset dx="-12" dy="-12"/>
<feGaussianBlur stdDeviation="12"/>
<feColorMatrix type="matrix" values="0 0 0 0 0.204392 0 0 0 0 0.217967 0 0 0 0 0.254167 0 0 0 0.5 0"/>
<feBlend mode="normal" in2="effect1_dropShadow" result="effect2_dropShadow"/>
<feBlend mode="normal" in="SourceGraphic" in2="effect2_dropShadow" result="shape"/>
</filter>
<filter id="filter1_dd" x="-8" y="15.3867" width="222.052" height="213.226" filterUnits="userSpaceOnUse" color-interpolation-filters="sRGB">
<feFlood flood-opacity="0" result="BackgroundImageFix"/>
<feColorMatrix in="SourceAlpha" type="matrix" values="0 0 0 0 0 0 0 0 0 0 0 0 0 0 0 0 0 0 127 0"/>
<feOffset dx="12" dy="12"/>
<feGaussianBlur stdDeviation="12"/>
<feColorMatrix type="matrix" values="0 0 0 0 0.0866667 0 0 0 0 0.0933333 0 0 0 0 0.108333 0 0 0 0.5 0"/>
<feBlend mode="normal" in2="BackgroundImageFix" result="effect1_dropShadow"/>
<feColorMatrix in="SourceAlpha" type="matrix" values="0 0 0 0 0 0 0 0 0 0 0 0 0 0 0 0 0 0 127 0"/>
<feOffset dx="-12" dy="-12"/>
<feGaussianBlur stdDeviation="12"/>
<feColorMatrix type="matrix" values="0 0 0 0 0.204392 0 0 0 0 0.217967 0 0 0 0 0.254167 0 0 0 0.5 0"/>
<feBlend mode="normal" in2="effect1_dropShadow" result="effect2_dropShadow"/>
<feBlend mode="normal" in="SourceGraphic" in2="effect2_dropShadow" result="shape"/>
</filter>
<filter id="filter2_dd" x="778" y="0.386719" width="199.273" height="198.969" filterUnits="userSpaceOnUse" color-interpolation-filters="sRGB">
<feFlood flood-opacity="0" result="BackgroundImageFix"/>
<feColorMatrix in="SourceAlpha" type="matrix" values="0 0 0 0 0 0 0 0 0 0 0 0 0 0 0 0 0 0 127 0"/>
<feOffset dx="12" dy="12"/>
<feGaussianBlur stdDeviation="12"/>
<feColorMatrix type="matrix" values="0 0 0 0 0.0866667 0 0 0 0 0.0933333 0 0 0 0 0.108333 0 0 0 0.5 0"/>
<feBlend mode="normal" in2="BackgroundImageFix" result="effect1_dropShadow"/>
<feColorMatrix in="SourceAlpha" type="matrix" values="0 0 0 0 0 0 0 0 0 0 0 0 0 0 0 0 0 0 127 0"/>
<feOffset dx="-12" dy="-12"/>
<feGaussianBlur stdDeviation="12"/>
<feColorMatrix type="matrix" values="0 0 0 0 0.204392 0 0 0 0 0.217967 0 0 0 0 0.254167 0 0 0 0.5 0"/>
<feBlend mode="normal" in2="effect1_dropShadow" result="effect2_dropShadow"/>
<feBlend mode="normal" in="SourceGraphic" in2="effect2_dropShadow" result="shape"/>
</filter>
<linearGradient id="paint0_linear" x1="1031.03" y1="604.2" x2="931.112" y2="670.986" gradientUnits="userSpaceOnUse">
<stop stop-color="#F06021"/>
<stop offset="1" stop-color="#AA4D28"/>
</linearGradient>
<linearGradient id="paint1_linear" x1="1033.57" y1="604.654" x2="930.533" y2="673.486" gradientUnits="userSpaceOnUse">
<stop stop-color="#3B3E46"/>
<stop offset="1" stop-color="#222328"/>
</linearGradient>
<linearGradient id="paint2_linear" x1="475.924" y1="461.637" x2="491.155" y2="410.163" gradientUnits="userSpaceOnUse">
<stop stop-color="#F06021"/>
<stop offset="1" stop-color="#AA4D28"/>
</linearGradient>
<linearGradient id="paint3_linear" x1="475" y1="462.197" x2="490.709" y2="409.122" gradientUnits="userSpaceOnUse">
<stop stop-color="#3B3E46"/>
<stop offset="1" stop-color="#222328"/>
</linearGradient>
<linearGradient id="paint4_linear" x1="30.0226" y1="162.315" x2="62.3692" y2="49.1651" gradientUnits="userSpaceOnUse">
<stop stop-color="#3B3E46"/>
<stop offset="1" stop-color="#222328"/>
</linearGradient>
<linearGradient id="paint5_linear" x1="28" y1="163.599" x2="61.342" y2="47.0213" gradientUnits="userSpaceOnUse">
<stop stop-color="#F06021"/>
<stop offset="1" stop-color="#AA4D28"/>
</linearGradient>
<linearGradient id="paint6_linear" x1="886.93" y1="37.8652" x2="938.807" y2="113.814" gradientUnits="userSpaceOnUse">
<stop stop-color="#3B3E46"/>
<stop offset="1" stop-color="#222328"/>
</linearGradient>
<linearGradient id="paint7_linear" x1="886.783" y1="36.3867" x2="940.089" y2="114.487" gradientUnits="userSpaceOnUse">
<stop stop-color="#F06021"/>
<stop offset="1" stop-color="#AA4D28"/>
</linearGradient>
</defs>
</svg>
