<svg width="632" height="435" fill="none" xmlns="http://www.w3.org/2000/svg"><path d="M0 368.606c10.734 10.28 27.515 13.377 41.334 17.712 56.51 14.863 115.24 5.449 172.737 7.431 6.786.867 8.884 3.344 14.312 6.688 9.378 5.822 18.878 11.519 28.255 17.34 10.611 6.565 21.469 5.079 33.437 5.079h79.336l-20.111-21.18s97.596-16.349 99.694-25.019c.617-2.849-44.542-8.051-47.38-8.423-83.284-9.041-167.185-14.119-250.962-15.234C100.805 354.239 47.256 349.532 0 368.606z" fill="#5652B6"/><path d="M90.555 171.572c-11.363-13.492.494-29.211-6.793-35.152-6.546-4.952-18.033-.867-20.997-4.456-3.459-3.342-.741-13.492-7.41-18.072-5.93-4.084-14.575 6.808-19.145 2.847-4.817-4.332-14.45-10.15-18.033-6.684-3.952 3.837 3.212 14.977 4.447 18.443 2.223 6.189-4.94 14.729 0 23.146 3.088 5.075 10.869-.866 16.303 3.59 6.176 5.074-3.582 13.244 6.546 23.27 15.192 15.1 27.543-6.065 41.994-2.724 4.57.991 3.582-3.341 3.088-4.208z" fill="#7978C7"/><path d="M23.194 115.302c5.548 6.219 11.22 12.438 16.769 18.532 4.315 4.851 8.63 9.826 13.686 14.055 7.768 6.468 16.276 12.314 24.537 18.035 3.822 2.737 7.768 5.349 11.713 7.961.74.497 1.603-.747.74-1.244-7.768-5.348-15.536-10.697-23.18-16.17-3.946-2.86-7.891-5.721-11.714-8.831-4.685-3.731-8.63-8.209-12.7-12.686-6.288-6.966-12.453-13.806-18.741-20.772-.74-.622-1.727.498-1.11 1.12z" fill="#fff"/><path d="M29.66 121.054c-.118-1.043-.237-2.086-.237-3.128 0-.913 0-1.955.474-2.737.475-.913-.83-1.695-1.185-.782-.593 1.042-.593 2.215-.712 3.388 0 1.173 0 2.477.237 3.65.119.391.593.651.83.521.475 0 .593-.391.593-.912zm19.093 21.013c-.988-7.04 1.235-14.583 6.053-19.738.617-.754-.37-1.76-1.112-1.131-5.188 5.657-7.535 13.578-6.423 21.247.123 1.005 1.605.502 1.482-.378zm-10.989-11.789c-.594-.621-1.306-.777-2.018-.932-.949-.156-2.017-.311-2.966-.311h-4.866c-.949-.311-1.305 1.554-.356 1.865.594.155 1.306.155 2.018.311h2.848c.95 0 1.898 0 2.848.155.356 0 .712.156 1.068.311h.237s.237.156.119 0c0 0 .118 0 .118.156.119.155 0 0 0 0 .594.621 1.662-.622.95-1.555zm36.471 31.48v-.126c0-.126-.124-.378-.124-.504-.124-.505-.124-1.009-.248-1.388-.247-1.513-.247-2.901-.247-4.414 0-3.658.247-7.568 1.61-10.974.742-1.892 1.857-3.658 3.466-4.919.743-.63 0-1.892-.743-1.261-3.219 2.396-4.705 6.433-5.448 10.343-.619 3.657-.619 7.441-.248 11.099.124 1.009.124 2.27.62 3.153.495.631 1.733-.126 1.362-1.009zm-26.047 10.985c.746-.732 1.243-1.708 1.864-2.562 1.118-1.586 2.36-3.049 3.727-4.513 3.354-3.538 7.578-6.587 12.672-7.197.994-.122.497-1.586-.373-1.464-7.454 1.098-13.044 6.709-17.268 12.442-.373.488-.746.976-.994 1.464-.124.122-.249.366-.373.488-.124.244-.124.122-.124.244-.87.854.248 1.83.87 1.098zm-3.142-17.872c3.327-2.664 7.024-5.048 11.215-5.188.985 0 .985-1.683 0-1.683-4.437 0-8.504 2.524-11.955 5.328-.74.701 0 2.103.74 1.543zm17.33 21.827c1.763-2.675 4.66-4.741 7.43-6.322 2.52-1.337 5.416-2.917 8.438-2.917 1.008 0 1.008-1.459 0-1.459-3.148 0-6.422 1.58-9.193 3.161-3.023 1.702-6.171 3.89-7.934 6.807-.504.73.755 1.459 1.26.73zm-37.368-30.752c6.871-1.929 13.233-4.878 19.595-7.714.89-.34.127-1.588-.764-1.134-6.361 2.723-12.596 5.558-19.34 7.487-.89.34-.509 1.701.51 1.361zm36.2 6.098c-.724-2.728-.724-5.581-.434-8.31.29-2.976 1.014-6.201 3.04-8.682.725-.744-.868-1.488-1.447-.744-2.172 2.605-2.896 6.078-3.186 9.178-.29 2.977-.29 6.078.434 8.93.145.993 1.883.62 1.593-.372z" fill="#fff"/><path d="M49.822 127.706c-.338-.371-.338-1.113-.338-1.607l-.338-2.226c-.225-1.483-.563-2.967-.788-4.327-.225-.989-1.463-.494-1.35.371.337 1.607.562 3.091.9 4.698.112.742.225 1.608.338 2.349.112.619.225 1.237.675 1.855.563.618 1.464-.495.9-1.113z" fill="#fff"/><path d="M114.664 144.574c-4.189-23.422 20.326-33.531 15.768-45.489-4.188-10.232-20.326-13.067-21.435-19.355-1.725-6.163 8.131-16.272 3.449-26.011-4.188-8.63-21.558-1.85-24.145-9.616-2.71-8.26-10.102-21.573-16.508-19.97-7.145 1.849-6.405 19.6-7.268 24.408-1.601 8.63-15.768 13.807-15.522 26.875.123 8.013 13.182 6.287 16.508 15.163 3.696 9.985-13.058 12.944-8.13 31.559 7.514 27.737 36.094 11.588 50.631 25.272 4.927 4.314 6.652-1.356 6.652-2.836z" fill="#C1C1F9"/><path d="M74.022 35.185c2.38 11 4.76 21.998 7.267 32.997 1.879 8.528 3.508 17.302 6.64 25.582 4.761 12.853 10.9 25.212 16.789 37.57 2.757 5.685 5.513 11.37 8.395 17.178.626 1.113 2.38.124 1.754-.988a2164.158 2164.158 0 01-16.539-34.48c-2.756-5.933-5.513-11.988-7.893-18.168-2.882-7.538-4.636-15.324-6.39-23.233-2.631-12.235-5.388-24.594-8.019-36.829-.25-1.36-2.255-.865-2.004.371z" fill="#fff"/><path d="M78.162 46.228a25.692 25.692 0 011.961-3.74c.131-.25.392-.623.523-.873s.393-.498.523-.623c.393-.499.785-.873 1.308-1.122.523-.25.654-.873.392-1.371-.261-.499-.915-.624-1.438-.374-1.438.748-2.354 2.119-3.138 3.366-.916 1.37-1.57 2.742-2.223 4.238-.262.499.261 1.122.784 1.247.523.124 1.046-.25 1.308-.748zm7.814 36.078c3.59-9.038 11.144-16.294 20.307-19.222 1.238-.382.743-2.418-.496-2.037-9.781 3.056-17.83 10.82-21.668 20.623-.62 1.273 1.362 1.91 1.857.636zm-4.022-21.524c-.246-.745-.74-1.367-1.355-1.864-.74-.746-1.602-1.244-2.465-1.865-1.849-1.244-3.697-2.363-5.546-3.482-.37-.248-.862-.497-1.232-.746-.123-.124-.493-.373-.246-.248-.124-.125-.247-.125-.37-.249-.863-.995-2.341.497-1.479 1.492.493.497 1.11.87 1.602 1.243.863.498 1.602.995 2.465 1.492.986.622 1.972 1.12 2.834 1.74.74.498 1.725 1.12 2.342 1.617.37.249.74.622.986.87 0 .125.123.125.123.25 0 0-.123-.125 0 0 0 .124.123.124.123.248.123.124-.123-.249 0 0 .616 1.243 2.588.746 2.218-.498zm20.024 62.274c0-.252 0 .126 0 0v-.252c0-.252.123-.378.247-.629l.739-1.888a34.738 34.738 0 012.59-5.287c2.465-4.406 5.425-8.812 9.37-11.833 2.096-1.637 4.562-2.895 7.151-3.147 1.233-.126 1.233-2.14 0-2.014-5.425.63-9.74 4.154-13.069 8.308-3.083 3.776-5.672 8.182-7.645 12.714-.493 1.259-1.232 2.643-1.356 4.028-.123 1.259 1.973 1.259 1.973 0zM65.28 117.95c.981-.398 1.84-.929 2.697-1.327 1.594-.797 3.187-1.594 4.903-2.257 4.535-1.859 9.315-3.187 14.095-3.187 3.064 0 6.006.531 8.825 1.859 1.225.531 1.716-1.593.49-2.125-9.315-4.116-19.733-.929-28.435 3.32-.736.398-1.471.664-2.084 1.062l-.735.398-.368.133c-1.226.398-.613 2.523.613 2.124zm7.772-22.57c5.525-.522 11.426-.522 16.448 2.481 1.13.653 2.135-1.175 1.005-1.828-5.274-3.134-11.552-3.395-17.578-2.742-1.256.13-1.256 2.22.125 2.089zm7.452 37.477c3.765-2.294 8.38-2.698 12.63-2.698 3.765 0 8.136.134 11.415 2.293 1.093.675 2.065-1.214.972-1.889-3.643-2.293-8.38-2.563-12.387-2.563-4.615 0-9.594.54-13.601 2.968-1.215.675-.121 2.563.971 1.889zM55.7 71.856c8.955 1.932 18.15 2.415 27.347 3.139 1.33.12 1.21-1.932 0-1.932-8.954-.603-18.03-1.086-26.862-3.018-1.21-.362-1.694 1.57-.484 1.811zm37.365 30.422c1.136-3.614 3.154-6.979 5.299-9.97 2.397-3.365 5.298-6.73 9.082-8.475 1.262-.498.127-2.243-1.009-1.744-4.037 1.744-7.19 5.483-9.713 8.973-2.27 3.24-4.416 6.854-5.677 10.718-.378 1.246 1.64 1.744 2.018.498z" fill="#fff"/><path d="M97.17 66.746c-.13-.368.13-.858.261-1.226.13-.368.391-.858.522-1.226.39-.858.652-1.84 1.043-2.698.652-1.84 1.304-3.556 1.955-5.395.392-1.227-1.694-1.717-2.086-.49-.651 1.961-1.434 3.923-2.086 5.763-.39.98-.782 1.839-1.173 2.82-.391.98-.782 1.962-.522 2.943.261 1.349 2.347.736 2.087-.49z" fill="#fff"/><path fill="#2E2E79" d="M74 138h392v238H74z"/><path fill="#424065" d="M86 148h368v220H86z"/><path fill="#B4BBEA" d="M93 346h355v16H93z"/><path d="M393.726 406H279.307c-5.189 0-9.143-4.706-8.155-9.783l15.445-89.282c.742-3.963 4.202-6.935 8.156-6.935h83.527c4.078 0 7.538 2.972 8.155 6.935l15.446 89.282c.865 5.201-3.089 9.783-8.155 9.783z" fill="#6B66C4"/><path d="M381 354c0 24.28-19.72 44-44 44s-44-19.72-44-44 19.72-43.999 44-43.999c24.28-.124 44 19.596 44 43.999z" fill="#fff"/><path d="M399.328 423H274.549c-2.459 0-4.549-1.905-4.549-4.405v-1.19c0-2.381 1.967-4.405 4.549-4.405h124.902c2.459 0 4.549 1.905 4.549 4.405v1.19c-.123 2.5-2.09 4.405-4.672 4.405z" fill="#6B66C4"/><path d="M381 412h-90l12.435-6h65.13L381 412z" fill="#2E2E79"/><path fill="#6B66C4" d="M370 354h9v1h-9zm-4.533-16.552l7.165-4.136.556.962-7.165 4.137-.556-.963zm-12.023-11.652l4.138-7.164.962.555-4.138 7.165-.962-.556zM337 313h1v9h-1zm-20.266 6.09l.962-.556 4.137 7.164-.962.556-4.137-7.164zm-14.589 15.234l.556-.962 7.165 4.137-.556.962-7.165-4.137zM297 354h9v1h-9zm5.152 19.95l7.165-4.137.556.962-7.165 4.138-.556-.963zm14.649 15.359l4.137-7.165.963.556-4.138 7.164-.962-.555zM337 387h1v9h-1zm16.491-4.459l.963-.556 4.137 7.164-.962.556-4.138-7.164zm11.97-11.827l.556-.962 7.165 4.136-.556.962-7.165-4.136zM340 355c0-1.067-.933-2-2-2s-2 .933-2 2 .933 2 2 2 2-.933 2-2zm22-15.515l-.377-.485L339 351.606l2.388 3.394L362 339.485z"/><path d="M389.67 285H287.33L246 264h185l-41.33 21z" fill="#7978C7"/><path fill="#2E2E79" d="M329 285h6v15h-6zm12 0h6v15h-6z"/><path d="M356.118 360c-1.059 0-1.883-.9-2-2.057l-.118-4.757c0-1.157.824-2.057 1.882-2.186 1.059 0 1.883.9 2 2.057l.118 4.757c0 1.157-.824 2.057-1.882 2.186zm12.323-7.841c.335.124.559.497.559.995v.871c0 .373-.224.746-.448.87h-.111v.125h.111c.224.124.448.497.448.87v.374c0 .373-.224.746-.559.87.335.125.559.498.559.871 0 .249-.112.497-.224.622a.813.813 0 01-.559.249l-6.713.124c-.783 0-1.454-.622-1.454-1.493v-4.602c0-.87-.112-1.617 0-2.487 0-.622.223-.995.447-1.493.224-.249.448-.498.56-.871 0-.124.112-.248.112-.373v-1.741c0-.125 0-.249.111-.498.224-.497.672-.497 1.007-.373.336.124.56.249.783.498.56.622.672 1.617.448 2.487-.112.498-.336.871-.671 1.369l-.112.373 5.146-.125c.448 0 .895.373.895.995v.871c.224.124 0 .498-.335.622zM310.112 350c-1.056 0-1.877.9-1.995 2.057l-.117 4.757c0 1.157.821 2.057 1.878 2.186 1.056 0 1.877-.9 1.995-2.057l.117-4.757c.117-1.286-.821-2.186-1.878-2.186zm12.329 6.841c.335-.124.559-.497.559-.995v-.871c0-.373-.224-.746-.448-.87h-.111v-.125h.111c.224-.124.448-.497.448-.87v-.374c0-.373-.224-.746-.559-.87.335-.125.559-.498.559-.871 0-.249-.112-.497-.224-.622a.813.813 0 00-.559-.249l-6.713-.124c-.783 0-1.454.622-1.454 1.493v4.602c0 .87-.112 1.617 0 2.487 0 .622.223.995.447 1.493.224.249.448.498.56.871 0 .124.112.248.112.373v1.741c0 .125 0 .249.111.498.224.497.672.497 1.007.373.336-.124.56-.249.783-.498.56-.622.672-1.617.448-2.487-.112-.498-.336-.871-.671-1.369l-.112-.373 5.146.125c.448 0 .895-.373.895-.995v-.871c.224-.124 0-.498-.335-.622z" fill="#748FD9"/><path d="M344.417 263.432l-34.563-12.839c-4.673-1.729-7.01-6.914-5.288-11.482l33.578-91.235c1.722-4.691 6.888-7.037 11.439-5.308l34.563 12.839c4.673 1.729 7.01 6.914 5.288 11.482l-33.578 91.235c-1.722 4.691-6.888 7.037-11.439 5.308z" fill="#2E2E79"/><path d="M340.417 259.432l-34.563-12.839c-4.673-1.729-7.01-6.914-5.288-11.482l33.578-91.235c1.722-4.691 6.888-7.037 11.439-5.308l34.563 12.839c4.673 1.729 7.01 6.914 5.288 11.482l-33.578 91.235c-1.722 4.691-6.765 7.037-11.439 5.308z" fill="#6B66C4"/><path d="M349.488 175.771l-13.835-5.17c-2.063-.738-3.155-3.077-2.427-5.293l6.068-16.617c.728-2.093 3.034-3.201 5.218-2.462l13.835 5.17c2.063.738 3.155 3.077 2.427 5.293l-6.068 16.617c-.849 2.093-3.155 3.201-5.218 2.462z" fill="#2E2E79"/><path d="M350.689 155.071c-.916 2.356-3.404 3.534-5.76 2.618-2.356-.916-3.534-3.404-2.618-5.76.916-2.356 3.404-3.534 5.76-2.618 2.356.785 3.534 3.404 2.618 5.76zm-3.934 11c-.924 2.356-3.43 3.534-5.804 2.618-2.374-.916-3.561-3.404-2.638-5.76.924-2.356 3.43-3.534 5.804-2.618 2.242.785 3.429 3.404 2.638 5.76zm9.934-2c-.916 2.356-3.404 3.534-5.76 2.618-2.356-.916-3.534-3.404-2.618-5.76.916-2.356 3.404-3.534 5.76-2.618 2.356.785 3.534 3.404 2.618 5.76z" fill="#fff"/><path d="M571 425c0 5.556-33.095 10-74 10-40.781 0-74-4.444-74-10s33.095-10 74-10 74 4.444 74 10z" fill="#5752B7"/><path d="M532.559 415.275c-1.01-2.11-.505-4.097-1.262-6.208-.505-1.365-1.766-2.234-2.523-3.352-1.135-1.614-1.262-3.849-1.514-5.835-.504-4.47-3.658-8.815-5.677-12.788l-11.858-24.087c-3.911-15.892 8.83-25.949 18.544-9.808 9.714 16.14 14.761 36.998 21.951 55.622.127.497 2.902 7.325 2.776 7.45-5.046-3.353-15.517 2.731-17.157 2.731-1.64 0-2.776-2.731-3.28-3.725zm-65.549-72.96c8.929-27.077 14.462-49.558 20.499-57.88 6.036-8.321 18.864.497 21.882 5.217 3.018 4.72-6.162 18.879-6.162 18.879s-18.613 42.478-22.763 48.191c-4.024 5.838-18.36.249-13.456-14.407z" fill="#5652B6"/><path d="M509.602 288l24.913 2.219c1.51 4.932-.755 34.894-3.397 65.101-.126 7.768-20.761 9.741-21.013.617l-1.006-50.305c-.252-5.795 0-11.714.503-17.632zm-44.05 121.314c-1.26-4.685-.252-13.932 1.891-19.973.882-2.589-.126-21.33-1.639-42.043 2.017-9.001 20.163-15.905 18.021 8.384-1.009 20.713-2.017 41.426-2.395 49.071-.756 17.631-1.008 12.576-1.008 12.576l-15.248-1.48c.126-.123 1.638-1.726.378-6.535z" fill="#5652B6"/><path d="M453.109 423h28.29s1.353-1.108 0-6.278-13.899-3.446-13.899-3.446-5.412 2.585-6.642 2.585c-1.23 0-8.856-2.093-7.749 7.139zm74.75 7l26.968-7.908s.976-1.506-1.708-6.15c-2.685-4.645-14.156.502-14.156.502s-4.515 4.016-5.613 4.393c-1.098.251-8.908.376-5.491 9.163z" fill="#262626"/><path d="M488 289.086s18.247 8.326 32.918 5.22L533 291.199l-2.466-80.281s-14.301-11.806-30.205-6.586c-11.836 4.971-12.206 4.474-12.206 4.474v80.28H488z" fill="#D1D8D9"/><path d="M514.186 300s-2.794-73.889-2.065-78.856c.729-4.968 6.195-10.556 6.195-10.556l4.009-5.588s16.033.621 15.669 11.052c-.365 10.432-2.065 76.124-2.065 76.124s-.243 5.34-7.653 6.458c-7.409.993-14.09 1.366-14.09 1.366z" fill="#6B66C4"/><path d="M451.483 223.314s0-4.297 1.941-6.445c1.941-2.148 3.275-6.57 2.184-7.202-1.092-.632-1.335-.253-2.548 2.527-1.213 2.654-3.397 1.516-3.397-2.527 0-1.769-8.614-9.098-11.889-.758-4.125 10.614 9.584 15.163 9.584 15.163s1.82 2.527 4.125-.758z" fill="#E48769"/><path d="M453.819 221.131s-8.114 5.289-10.819 3.198c3.688 15.129 5.778 32.84 13.769 31.61 7.991-1.23 31.104-24.23 31.104-24.23s11.311-21.279 3.197-18.45c-8.114 2.829-26.678 26.937-28.4 27.306-1.598.246-9.466-17.835-8.851-19.434z" fill="#5652B6"/><path d="M383.843 170.5c-.772 1.25-1.672 2.5-2.572 3.75a61.73 61.73 0 01-3.728 4.375l-.643-.5 6.171-8.125.772.5z" fill="#ECECFD" opacity=".17"/><path d="M491.563 296l7.281-72.959S499.346 203.37 506 202c-9.039 1.992-17.576 4.109-19.835 10.707-2.26 6.599-3.641 60.011-3.013 80.927 5.775 2.366 8.411 2.366 8.411 2.366z" fill="#6B66C4"/><path d="M415 192.951L408.934 201l-1.39-1.098-7.582-5.243-7.33-5.244-.632-.488 6.066-7.927.758.488 7.33 5.244 7.456 5.244 1.39.975z" fill="#344198"/><path fill-rule="evenodd" clip-rule="evenodd" d="M313.967 123.126c18.5-25.194 53.76-30.655 78.964-12.163 23.962 17.5 30.046 50.389 14.526 75.211-.745 1.242-1.614 2.483-2.483 3.724-1.118 1.489-2.235 2.978-3.476 4.344-19.121 21.347-51.774 25.194-75.363 7.819-25.204-18.493-30.667-53.74-12.168-78.935zm79.709 65.282l5.959-8.067.745.497c12.54-20.851 7.325-48.031-12.664-62.676-21.106-15.514-50.904-10.922-66.423 10.177-15.52 21.099-11.05 50.885 10.18 66.399 19.617 14.521 46.683 11.542 62.823-5.833l-.62-.497z" fill="#5652B6"/><path d="M400.267 181.311l-.748-.498-5.984 8.103.623.499c-16.208 17.455-43.387 20.447-63.085 5.86-21.32-15.584-25.808-45.507-10.224-66.701 15.585-21.195 45.507-25.808 66.701-10.224 19.948 14.712 25.185 42.016 12.717 62.961z" fill="#ECECFD" opacity=".42"/><path d="M407.033 203.33c-.616-4.567 7.64-14.69 10.474-14.32l105.607 77.651c2.957 5.185-1.726 14.815-10.475 14.321L407.033 203.33z" fill="#3D46A7"/><path d="M500.336 214.037s-1.487-4.198-4.336-4.322c2.849-4.691 7.804-13.458 21.802-9.877 6.07 1.975 8.672 11.236 3.221 17.162-3.345-1.975-6.689-1.235-6.689-1.235s7.061-5.556 6.317-8.272c-.743-2.716-6.07-6.667-15.98-3.704-2.973 1.235-4.831 10.742-4.335 10.248z" fill="#2E2E79"/><path d="M488.132 252.855c-2.64 1.343-5.908 1.221-8.924.854-.503-.122-1.131-.122-1.634-.366-.377-.733-1.131-1.099-1.634-1.465-.754-.611-1.508-1.954-2.514-2.198-.251-.122-.628 0-.754.366 0 .123 0 .367.126.489.251.61.628 1.099 1.005 1.587-2.136-.855-3.77-1.831-5.53-3.419-.502-.488-2.262-2.93-3.142-2.686-.503.122-.88 1.465-.88 1.954-.251.854-.251 1.831-.251 2.686.126 1.831.754 3.663 2.137 4.884 1.005.855 2.262 1.709 3.77 2.32 1.131.488 2.388.732 3.519.61.503.489 3.143-.122 3.771 0 3.393.733 4.65.733 8.421 1.465.88.245 2.011-.244 2.639-.976.377-.367.503-.855.629-1.221.251-1.466.125-3.297-.754-4.884z" fill="#D17152"/><path d="M535 214.027s-1.848-10.956-13.058-3.324c-5.913 8.124-11.949 33.852-11.949 33.852s-11.95 6.648-23.406 6.155c1.601 4.555 2.341 8.987-2.587 10.341 6.159 2.954 31.413-1.354 37.326-7.879 5.913-6.401 13.428-32.375 13.674-39.145z" fill="#5752B7"/><path d="M506.363 206.319s2.055 2.988 6.044.996c3.989-1.992 4.593-2.988 4.593-2.988s-1.571-11.081-1.934-15.19c-.242-4.233-9.066-.871-9.066-.871s.725 16.061.363 18.053z" fill="#D17152"/><path d="M499.626 174.269s-.735 2.652-.612 11.813c.122 9.281 2.692 10.969 12.236 9.402 9.422-1.567 8.076-10.005 6.975-16.876-1.102-6.871-12.359-13.018-18.599-4.339z" fill="#D17152"/><path d="M495.742 186.84s1.46 2.921 3.53-.507c2.069-3.428 1.217-7.237.243-7.872 0 0 11.564 7.745 19.841 2.92 8.4-4.824-5.599-12.315-9.007-13.204-3.53-.889-22.033 1.016-14.607 18.663z" fill="#000"/><path d="M553 109.656C553 102.151 535.335 96 513.5 96s-39.5 6.151-39.5 13.656c0 7.505 17.665 13.656 39.5 13.656h3.067l-4.048 15.501c-.246.984.981 1.599 1.594.861 4.907-5.413 15.334-17.469 15.334-17.469C543.432 119.99 553 115.192 553 109.656z" fill="#5652B6"/><path d="M513 100l3.038 6.207L523 107.22l-5.063 4.94 1.266 6.84-6.203-3.167-6.203 3.167 1.14-6.84-4.937-4.94 6.835-1.013L513 100z" fill="#E29F7B"/><path d="M509.856 43.808c-1.736-7.155-20.579-8.974-42.025-4.002-21.446 4.972-37.438 14.917-35.702 22.193 1.735 7.155 20.578 8.974 42.025 4.002a118.13 118.13 0 013.099-.727l-.372 15.765c0 .97 1.363 1.334 1.859.485 3.595-6.306 10.909-20.374 10.909-20.374 13.141-5.215 21.57-12.006 20.207-17.342z" fill="#5752B7"/><path d="M607.671 174.033c2.722-6.944-11.751-18.883-32.285-26.679-20.534-7.797-39.46-8.528-42.057-1.584-2.722 6.944 11.751 18.883 32.285 26.679l2.969 1.097-9.401 12.913c-.619.853.371 1.828 1.237 1.462 6.679-3.289 20.781-10.72 20.781-10.72 13.73 3.045 24.492 2.071 26.471-3.168z" fill="#7978C7"/><path fill-rule="evenodd" clip-rule="evenodd" d="M568.391 160.619l-.122.617 2.919.617.122-.493c.243-1.111.73-1.975 1.825-2.839l.132-.104c1.068-.84 2.315-1.821 2.666-3.599.365-1.974-.73-4.072-3.893-4.69-1.703-.246-3.163-.123-4.136.247l.365 2.839c.73-.247 1.825-.37 2.555-.247 1.216.37 1.581.987 1.459 1.851-.121.741-.851 1.481-1.824 2.222-1.217 1.111-1.947 2.345-2.068 3.579zm1.216 1.975c-1.216-.124-2.311.617-2.555 1.851-.243 1.234.365 2.345 1.704 2.469 1.338.37 2.311-.494 2.554-1.728.243-1.235-.365-2.345-1.703-2.592z" fill="#fff"/><path d="M587.999 14.207C588.122 6.68 570.485.263 548.684.017c-21.801-.37-39.561 5.552-39.683 13.08-.123 7.527 17.514 13.944 39.315 14.19h3.062l-4.287 15.425c-.244.987.98 1.728 1.593.987 5.021-5.306 15.555-17.399 15.555-17.399 13.962-1.974 23.638-6.54 23.76-12.093zm43.853 75.119c1.859-7.95-14.004-18.507-35.444-23.6-21.44-5.092-40.401-2.857-42.26 5.093-1.859 7.949 14.004 18.507 35.444 23.6.991.248 2.107.496 3.098.62l-7.807 15.402c-.496.994.495 1.987 1.363 1.366 6.196-4.471 19.457-14.78 19.457-14.78 14.004.869 24.662-1.864 26.149-7.701z" fill="#7978C7"/><path d="M579.941 78.446c-.231 1.042-1.038 1.785-1.844 1.488-.807-.298-1.268-1.339-1.038-2.38.231-1.042 1.038-1.785 1.844-1.488.807.149 1.268 1.339 1.038 2.38zm10.041 2c-.234 1.042-1.052 1.785-1.87 1.488-.818-.298-1.286-1.339-1.052-2.38.234-1.042 1.052-1.785 1.87-1.488.701.149 1.169 1.339 1.052 2.38zm8.959 2.039c-.231 1.015-1.038 1.74-1.844 1.45-.807-.29-1.268-1.305-1.038-2.32.231-1.016 1.038-1.742 1.844-1.596.807.435 1.268 1.45 1.038 2.466z" fill="#fff"/><path d="M460.764 90.93c-2.243-8.232-21.438-10.444-42.876-4.792-21.438 5.653-37.018 16.957-34.65 25.313 2.243 8.232 21.438 10.444 42.876 4.792.997-.246 1.995-.615 2.992-.86l14.084 17.202c1.247 1.966 2.244 1.597 1.87.614-1.995-5.652-3.615-22.363-3.615-22.363 12.963-6.021 21.064-13.762 19.319-19.906z" fill="#7978C7"/><path d="M413.396 109.991c-1.563.121-2.865-.966-2.995-2.414l-.391-5.792c-.13-1.448 1.042-2.655 2.604-2.776 1.563-.12 2.865.966 2.995 2.414l.391 5.792c0 1.448-1.172 2.655-2.604 2.776zm16.422-9.026c0 .122 0 .122 0 0 .473.244.827.61.827 1.219l.119 1.098c0 .488-.237.853-.591 1.097 0 0-.118 0-.118-.122v.122s.118 0 .118-.122c.354.244.709.61.709 1.098v.488c0 .487-.237.975-.709 1.219.472.122.827.488.827 1.097 0 .366-.118.61-.236.854-.237.244-.473.366-.828.366l-9.218.609c-1.063.122-2.009-.731-2.127-1.829-.118-1.097-.118-2.195-.236-3.414 0-.853-.119-1.707-.119-2.561-.118-1.097-.118-2.194-.236-3.17 0-.731.236-1.341.591-1.95.236-.367.591-.732.827-1.22 0-.122.118-.366.118-.488v-2.195c0-.244 0-.366.119-.61.236-.61.945-.61 1.418-.487.472.122.827.366 1.182.61.827.731 1.063 2.072.827 3.17-.118.731-.473 1.22-.827 1.829 0 0-.119.487-.237.487l7.091-.487c.709 0 1.3.487 1.3 1.22l.118 1.097c0 .365-.236.853-.709.975z" fill="#fff"/><path d="M430.55 103.45l-.1.1v-.1h.1z" fill="#fff"/><path d="M430.55 103.45l-.1.1v-.1h.1zM458 50h16v2h-16zm2 8h16v2h-16z" fill="#fff"/><path fill="#fff" d="M463 48h2v16h-2zm7-2h2v16h-2z"/><path fill-rule="evenodd" clip-rule="evenodd" d="M530.391 15.62l-.122.616 2.919.617.122-.493c.243-1.111.73-1.975 1.825-2.839l.132-.104c1.068-.84 2.315-1.822 2.666-3.599.365-1.974-.73-4.072-3.893-4.69-1.703-.246-3.163-.123-4.136.247l.365 2.839c.73-.247 1.825-.37 2.555-.247 1.216.37 1.581.987 1.459 1.851-.121.74-.851 1.481-1.824 2.222-1.217 1.11-1.947 2.345-2.068 3.58zm1.216 1.974c-1.216-.124-2.311.617-2.555 1.851-.243 1.234.365 2.345 1.704 2.468 1.338.37 2.311-.493 2.554-1.727.243-1.235-.365-2.345-1.703-2.592z" fill="#fff"/></svg>