<svg width="432" height="156" viewBox="0 0 432 156" fill="none" xmlns="http://www.w3.org/2000/svg">
<g filter="url(#filter0_dd)">
<path d="M191.014 129.561L197.825 101.273L223.923 114.199L217.12 142.487L191.014 129.561Z" fill="url(#paint0_linear)"/>
<path d="M197.825 101.275L223.923 114.2L217.12 142.488L191.014 129.562L197.825 101.275ZM197.578 100.764C197.503 100.802 197.437 100.855 197.384 100.92C197.331 100.986 197.294 101.062 197.273 101.143L190.47 129.431C190.438 129.556 190.45 129.688 190.504 129.805C190.558 129.922 190.651 130.016 190.767 130.073L216.873 142.998C216.949 143.035 217.032 143.054 217.116 143.054C217.2 143.054 217.284 143.035 217.36 142.998C217.436 142.962 217.504 142.91 217.559 142.844C217.613 142.779 217.652 142.702 217.673 142.62L224.476 114.332C224.507 114.208 224.495 114.077 224.441 113.962C224.387 113.846 224.294 113.753 224.179 113.698L198.073 100.772C197.995 100.736 197.911 100.717 197.825 100.717C197.74 100.717 197.655 100.736 197.578 100.772V100.764Z" fill="url(#paint1_linear)"/>
</g>
<g filter="url(#filter1_dd)">
<path d="M265.447 125.445L256.508 139.499L244.766 127.668L253.705 113.606L265.447 125.445Z" fill="url(#paint2_linear)"/>
<path d="M256.519 139.5L244.785 127.669L253.723 113.608L265.465 125.438L256.519 139.5ZM256.519 139.821C256.567 139.815 256.613 139.799 256.655 139.774C256.696 139.748 256.731 139.714 256.758 139.673L265.696 125.619C265.734 125.557 265.75 125.484 265.743 125.411C265.735 125.338 265.705 125.27 265.655 125.216L253.938 113.377C253.903 113.344 253.861 113.319 253.815 113.303C253.77 113.288 253.722 113.282 253.674 113.287C253.625 113.292 253.579 113.308 253.538 113.334C253.496 113.36 253.461 113.394 253.435 113.435L244.496 127.496C244.456 127.558 244.438 127.632 244.445 127.705C244.453 127.779 244.485 127.848 244.537 127.9L256.271 139.73C256.307 139.765 256.35 139.79 256.397 139.806C256.444 139.822 256.494 139.827 256.543 139.821H256.519Z" fill="url(#paint3_linear)"/>
</g>
<g filter="url(#filter2_dd)">
<path d="M178.885 133.045L162.443 139.302L159.994 121.906L176.436 115.649L178.885 133.045Z" fill="url(#paint4_linear)"/>
<path d="M162.443 139.303L159.969 121.907L176.411 115.65L178.885 133.046L162.443 139.303ZM162.27 139.599C162.315 139.619 162.364 139.63 162.414 139.63C162.464 139.63 162.513 139.619 162.558 139.599L179 133.342C179.074 133.315 179.136 133.263 179.177 133.196C179.217 133.129 179.233 133.049 179.223 132.972L176.749 115.576C176.741 115.525 176.722 115.477 176.693 115.435C176.665 115.392 176.628 115.356 176.584 115.329C176.537 115.308 176.487 115.298 176.436 115.298C176.385 115.298 176.334 115.308 176.287 115.329L159.845 121.586C159.772 121.613 159.711 121.665 159.672 121.733C159.633 121.8 159.618 121.879 159.631 121.956L162.105 139.352C162.112 139.403 162.13 139.452 162.159 139.495C162.187 139.537 162.225 139.573 162.27 139.599Z" fill="url(#paint5_linear)"/>
</g>
<g filter="url(#filter3_dd)">
<path d="M364.134 77.4482L371.465 103.423L344.468 104.765L337.137 78.7902L364.134 77.4482Z" fill="url(#paint6_linear)"/>
<path d="M371.464 103.423L344.468 104.765L337.137 78.7906L364.134 77.4486L371.464 103.423ZM371.893 103.728C371.939 103.663 371.97 103.588 371.983 103.51C371.996 103.431 371.991 103.351 371.967 103.275L364.645 77.3004C364.612 77.1861 364.541 77.0865 364.443 77.0177C364.346 76.9489 364.228 76.9151 364.109 76.9217L337.113 78.2719C337.035 78.275 336.958 78.296 336.89 78.3331C336.821 78.3702 336.762 78.4225 336.717 78.4859C336.67 78.5503 336.638 78.6244 336.623 78.7029C336.609 78.7813 336.613 78.862 336.634 78.9387L343.965 104.913C343.996 105.027 344.066 105.126 344.162 105.195C344.258 105.264 344.374 105.298 344.492 105.292L371.489 103.942C371.568 103.939 371.646 103.918 371.715 103.881C371.785 103.844 371.846 103.791 371.893 103.728Z" fill="url(#paint7_linear)"/>
</g>
<g filter="url(#filter4_dd)">
<path d="M216.997 68.7565L206.434 88.3341L189.67 73.6879L200.233 54.1104L216.997 68.7565Z" fill="url(#paint8_linear)"/>
<path d="M206.434 88.3337L189.67 73.6875L200.233 54.11L216.997 68.7561L206.434 88.3337ZM206.508 88.7618C206.572 88.7493 206.633 88.723 206.685 88.6846C206.738 88.6461 206.782 88.5966 206.813 88.5395L217.376 69.0031C217.424 68.9163 217.441 68.8154 217.423 68.7178C217.405 68.6202 217.353 68.5319 217.277 68.468L200.513 53.7889C200.465 53.7455 200.407 53.7135 200.344 53.695C200.281 53.6765 200.215 53.672 200.151 53.6818C200.088 53.6943 200.028 53.7208 199.977 53.7593C199.926 53.7977 199.883 53.8473 199.854 53.9041L189.283 73.4817C189.239 73.5696 189.225 73.6693 189.243 73.7658C189.261 73.8623 189.309 73.9504 189.382 74.0169L206.145 88.6548C206.194 88.6981 206.252 88.7302 206.315 88.7487C206.378 88.7672 206.444 88.7717 206.508 88.7618Z" fill="url(#paint9_linear)"/>
</g>
<g filter="url(#filter5_dd)">
<path d="M110.717 122.795L137.697 93.1484L160.637 126.006L133.665 155.66L110.717 122.795Z" fill="url(#paint10_linear)"/>
<path d="M137.697 93.1486L160.637 126.006L133.665 155.644L110.717 122.795L137.697 93.1568V93.1486ZM137.747 92.3335C137.63 92.3294 137.514 92.35 137.406 92.394C137.298 92.438 137.201 92.5044 137.12 92.5888L110.14 122.227C110.021 122.356 109.951 122.523 109.94 122.698C109.93 122.874 109.98 123.047 110.082 123.19L133.022 156.055C133.092 156.149 133.181 156.227 133.283 156.284C133.386 156.341 133.499 156.375 133.616 156.385C133.733 156.392 133.85 156.373 133.959 156.329C134.067 156.285 134.164 156.217 134.243 156.129L161.214 126.491C161.327 126.358 161.395 126.191 161.407 126.016C161.418 125.842 161.374 125.668 161.28 125.52L138.332 92.704C138.268 92.6064 138.181 92.5251 138.079 92.4665C137.978 92.408 137.864 92.3737 137.747 92.3665V92.3335Z" fill="url(#paint11_linear)"/>
</g>
<g filter="url(#filter6_dd)">
<path d="M266.785 67.8002C261.944 64.1778 258.077 65.4621 258.011 65.0093C257.945 64.5565 264.872 65.5033 270.042 58.6124C272.167 55.7142 273.062 52.096 272.532 48.5431C272.002 44.9902 270.09 41.7894 267.211 39.6356C264.331 37.4817 260.717 36.5486 257.153 37.0388C253.589 37.529 250.363 39.4029 248.174 42.2538C243.053 49.0788 245.799 55.5169 245.321 55.5827C244.843 55.6486 244.925 51.4663 240.258 47.9509C237.357 45.7831 233.712 44.8542 230.125 45.3683C226.538 45.8824 223.302 47.7974 221.128 50.6924C221.13 50.7088 221.13 50.7255 221.128 50.7418C220.6 51.4507 220.147 52.2121 219.776 53.0141C218.426 55.8524 218.1 59.0688 218.851 62.1197C219.602 65.1707 221.385 67.8693 223.899 69.7596C235.055 78.0994 242.699 65.3551 244.678 68.1871C240.827 72.4764 230.734 83.2943 226.199 84.1012L235.995 91.4201C235.492 86.8509 243.07 74.1312 246.104 69.2327C249.46 70.2947 239.153 81.1703 250.425 89.6007C252.945 91.4862 256.04 92.4448 259.186 92.3143C262.333 92.1838 265.337 90.9721 267.692 88.8844C268.355 88.3021 268.957 87.6539 269.489 86.9497V86.9003C270.569 85.4692 271.355 83.8397 271.803 82.105C272.251 80.3703 272.353 78.5645 272.102 76.7906C271.85 75.0168 271.252 73.3097 270.339 71.7671C269.427 70.2245 268.219 68.8765 266.785 67.8002Z" fill="url(#paint12_linear)"/>
<path d="M267.296 39.5208C268.733 40.5932 269.944 41.9382 270.861 43.4786C271.777 45.0191 272.379 46.7248 272.634 48.4981C272.889 50.2715 272.792 52.0776 272.347 53.8132C271.902 55.5487 271.119 57.1797 270.042 58.6126C264.872 65.5035 257.945 64.5649 258.011 65.0095C258.007 65.0285 258.007 65.0482 258.011 65.0671C258.399 65.3553 262.134 64.3427 266.752 67.8004C268.188 68.8736 269.399 70.2189 270.314 71.7593C271.229 73.2998 271.832 75.0053 272.087 76.7783C272.342 78.5513 272.244 80.3571 271.8 82.0925C271.356 83.8279 270.573 85.4589 269.497 86.8923V86.9417C268.966 87.6459 268.363 88.2941 267.7 88.8764C265.345 90.9641 262.341 92.1757 259.194 92.3063C256.048 92.4368 252.953 91.4782 250.433 89.5927C239.582 81.4751 248.726 71.1018 246.434 69.3894C246.336 69.3183 246.228 69.2628 246.112 69.2247C243.078 74.1068 235.5 86.8429 236.003 91.4121L226.174 84.1343C230.709 83.311 240.802 72.5096 244.653 68.2203C244.591 68.1273 244.513 68.0464 244.422 67.9815C242.13 66.2609 234.634 77.8609 223.874 69.7928C221.36 67.9025 219.577 65.2039 218.826 62.1529C218.075 59.1019 218.402 55.8856 219.751 53.0473C220.109 52.2471 220.548 51.4856 221.062 50.775C221.064 50.7586 221.064 50.742 221.062 50.7256C223.236 47.8305 226.472 45.9155 230.059 45.4014C233.646 44.8874 237.291 45.8163 240.192 47.9841C244.637 51.3184 244.777 55.2866 245.189 55.5994C245.199 55.6052 245.21 55.6082 245.222 55.6082C245.234 55.6082 245.245 55.6052 245.255 55.5994C245.733 55.5336 242.987 49.0955 248.108 42.2705C249.183 40.837 250.531 39.6291 252.074 38.7159C253.618 37.8027 255.326 37.202 257.102 36.9481C258.877 36.6943 260.686 36.7923 262.424 37.2366C264.162 37.6808 265.795 38.4626 267.23 39.5372L267.296 39.5208ZM267.725 38.8786C264.648 36.5845 260.786 35.6022 256.985 36.147C253.184 36.6918 249.754 38.7192 247.448 41.7848C245.407 44.4523 244.254 47.6912 244.15 51.0467C243.244 49.5972 242.072 48.3318 240.695 47.3172C237.62 45.0236 233.759 44.0415 229.959 44.5863C226.16 45.1311 222.732 47.1584 220.427 50.2234V50.2646C219.865 51.0177 219.382 51.8259 218.984 52.6768C217.568 55.6902 217.233 59.0986 218.036 62.3293C218.84 65.56 220.732 68.4163 223.395 70.4185C231.212 76.2637 237.471 72.3202 241.206 69.9574C241.66 69.6693 242.319 69.2576 242.855 68.9613C235.08 77.4987 228.838 82.8335 226.009 83.3275C225.853 83.3565 225.708 83.4303 225.592 83.5399C225.476 83.6495 225.395 83.7902 225.358 83.945C225.326 84.0969 225.337 84.2549 225.391 84.4006C225.445 84.5463 225.54 84.6737 225.663 84.7682L235.451 92.0954C235.58 92.1897 235.733 92.2446 235.893 92.2534C236.052 92.2621 236.211 92.2244 236.35 92.1448C236.491 92.063 236.605 91.9411 236.677 91.7945C236.749 91.6479 236.776 91.4833 236.754 91.3215C236.44 88.4812 239.829 80.9894 245.824 71.11C245.684 71.7357 245.469 72.4849 245.313 73.0036C244.15 77.2928 242.023 84.3895 249.922 90.2842C252.595 92.2765 255.873 93.2888 259.205 93.1508C262.538 93.0129 265.721 91.7331 268.219 89.5268C268.925 88.9099 269.564 88.22 270.124 87.4686V87.4274C271.269 85.9072 272.103 84.1766 272.578 82.3344C273.053 80.4922 273.159 78.5747 272.891 76.6914C272.623 74.8082 271.986 72.9961 271.016 71.3589C270.046 69.7217 268.762 68.2915 267.238 67.15C265.913 66.1407 264.42 65.3742 262.827 64.886C265.992 63.8413 268.745 61.8242 270.693 59.1231C272.993 56.0543 273.98 52.1996 273.435 48.4053C272.891 44.6111 270.861 41.1876 267.791 38.8868L267.725 38.8786Z" fill="url(#paint13_linear)"/>
</g>
<g filter="url(#filter7_dd)">
<path d="M372.701 47.3983C369.724 50.2715 370.178 53.0213 369.865 53.013C369.551 53.0048 370.937 48.4356 366.838 44.2039C365.099 42.4882 362.755 41.5205 360.31 41.5079C357.865 41.4953 355.512 42.4388 353.754 44.1365C351.997 45.8341 350.975 48.1511 350.906 50.5917C350.838 53.0323 351.73 55.4025 353.39 57.1953C357.455 61.3858 362.114 60.2332 362.105 60.5625C362.097 60.8918 359.269 60.3814 356.391 63.1558C354.618 64.8769 353.6 67.2292 353.56 69.6979C353.52 72.1665 354.461 74.5506 356.177 76.3283C356.597 76.7622 357.061 77.1512 357.562 77.4891C359.342 78.7031 361.487 79.267 363.635 79.0855C365.783 78.904 367.803 77.9883 369.353 76.493C376.214 69.8656 368.413 63.3205 370.541 62.2996C373.015 65.3622 379.257 73.3398 379.314 76.493L385.334 70.6724C382.176 70.5159 374.383 64.0285 371.407 61.4516C372.487 59.2946 378.729 67.4286 385.663 60.7354C387.211 59.2375 388.194 57.2526 388.446 55.1155C388.698 52.9784 388.205 50.8198 387.049 49.0036C386.734 48.5238 386.375 48.0745 385.977 47.6617C385.125 46.7695 384.105 46.0546 382.975 45.558C381.845 45.0615 380.628 44.7933 379.394 44.7688C378.16 44.7443 376.933 44.964 375.784 45.4153C374.636 45.8666 373.588 46.5406 372.701 47.3983Z" fill="url(#paint14_linear)"/>
<path d="M353.612 43.9907C355.393 42.2773 357.781 41.3379 360.253 41.378C362.726 41.4182 365.082 42.4345 366.806 44.2048C370.928 48.4364 369.527 53.0139 369.832 53.0139C369.838 53.0168 369.845 53.0183 369.852 53.0183C369.859 53.0183 369.866 53.0168 369.873 53.0139C370.112 52.7833 369.832 50.1571 372.668 47.4155C374.449 45.7022 376.837 44.7628 379.309 44.8029C381.782 44.843 384.138 45.8594 385.861 47.6296C386.281 48.0662 386.657 48.5433 386.983 49.0539C388.139 50.87 388.633 53.0286 388.38 55.1658C388.128 57.3029 387.145 59.2877 385.598 60.7856C378.927 67.2319 372.891 59.9623 371.481 61.296C371.423 61.3565 371.376 61.426 371.341 61.5019C374.317 64.0787 382.11 70.5579 385.268 70.7226L379.38 76.5761C379.323 73.423 373.097 65.4454 370.607 62.3828C370.537 62.4121 370.472 62.454 370.417 62.5063C369.007 63.8729 376.033 70.1792 369.419 76.5761C367.869 78.0715 365.849 78.9872 363.701 79.1687C361.553 79.3501 359.408 78.7863 357.628 77.5723C357.121 77.2353 356.652 76.8463 356.226 76.4115C354.51 74.6337 353.569 72.2497 353.609 69.781C353.65 67.3124 354.668 64.9601 356.441 63.239C359.178 60.5963 361.883 60.9338 362.138 60.6868C362.138 60.3575 357.488 61.5101 353.423 57.3196C351.708 55.5408 350.768 53.1561 350.81 50.6875C350.852 48.2188 351.871 45.8671 353.645 44.1471L353.612 43.9907ZM353.258 43.7437C352.32 44.6463 351.57 45.7248 351.051 46.9175C350.531 48.1101 350.253 49.3934 350.231 50.6937C350.21 51.994 350.446 53.2858 350.926 54.4949C351.405 55.704 352.119 56.8066 353.027 57.7395C354.605 59.4121 356.671 60.5469 358.931 60.9832C357.853 61.4378 356.871 62.0914 356.037 62.9097C355.099 63.8122 354.349 64.8908 353.829 66.0834C353.31 67.2761 353.032 68.5594 353.01 69.8597C352.989 71.16 353.225 72.4517 353.704 73.6608C354.184 74.8699 354.898 75.9725 355.806 76.9054C356.255 77.365 356.75 77.7786 357.282 78.1404C359.166 79.4321 361.439 80.0329 363.716 79.8408C365.993 79.6487 368.134 78.6755 369.774 77.0866C374.581 72.4433 372.586 67.7917 371.423 65.009C371.283 64.6797 371.069 64.1858 370.928 63.7824C375.876 69.957 378.787 74.7402 378.82 76.6914C378.823 76.7996 378.857 76.9046 378.918 76.9937C378.98 77.0828 379.066 77.1522 379.166 77.1936C379.266 77.237 379.377 77.2492 379.485 77.2286C379.592 77.208 379.691 77.1557 379.768 77.0783L385.787 71.266C385.866 71.1896 385.92 71.092 385.943 70.9852C385.967 70.8784 385.958 70.7671 385.919 70.665C385.881 70.5635 385.814 70.4755 385.726 70.4125C385.638 70.3494 385.533 70.314 385.424 70.311C383.47 70.2122 378.762 67.1166 372.734 61.9876C373.138 62.144 373.625 62.3745 373.955 62.531C376.692 63.8317 381.269 66.0134 386.117 61.329C387.754 59.7399 388.793 57.6369 389.06 55.3732C389.328 53.1095 388.807 50.823 387.585 48.8975C387.241 48.3542 386.843 47.8467 386.397 47.3826C385.493 46.4463 384.413 45.6974 383.219 45.1789C382.024 44.6604 380.739 44.3825 379.436 44.3611C378.134 44.3396 376.84 44.5752 375.629 45.0541C374.418 45.5331 373.314 46.246 372.38 47.1521C371.546 47.8949 370.846 48.7748 370.31 49.7537C369.945 47.5052 368.88 45.4285 367.267 43.8178C366.363 42.8815 365.283 42.1326 364.089 41.6141C362.894 41.0956 361.609 40.8177 360.306 40.7963C359.004 40.7748 357.71 41.0104 356.499 41.4893C355.288 41.9683 354.184 42.6812 353.249 43.5873L353.258 43.7437Z" fill="url(#paint15_linear)"/>
</g>
<g filter="url(#filter8_dd)">
<path d="M354.717 77.145C347.956 73.4484 343.297 75.7619 343.173 75.2103C343.049 74.6587 351.922 74.5928 357.191 64.9604C359.411 60.9112 359.928 56.1474 358.63 51.717C357.332 47.2866 354.324 43.5526 350.269 41.3364C348.26 40.239 346.055 39.5473 343.78 39.3008C341.504 39.0542 339.201 39.2576 337.004 39.8994C332.567 41.1956 328.827 44.1986 326.607 48.2478C321.38 57.7897 326.014 65.4215 325.42 65.5944C324.826 65.7672 324.175 60.4406 317.644 56.8676C313.588 54.655 308.818 54.1406 304.382 55.4373C299.946 56.734 296.208 59.7358 293.987 63.7831C293.99 63.8022 293.99 63.8216 293.987 63.8408V63.8984C293.447 64.8854 293.01 65.9255 292.684 67.0022C291.502 70.8354 291.681 74.9585 293.191 78.6752C294.701 82.392 297.449 85.4747 300.971 87.403C316.572 95.924 323.919 78.454 326.929 81.6401C322.806 87.7488 312.087 103.226 306.48 105.062L320.167 112.546C318.708 106.857 325.939 89.4201 328.924 82.7021C333.352 83.4348 322.328 99.0277 338.069 107.639C341.592 109.564 345.672 110.216 349.621 109.484C353.569 108.752 357.143 106.681 359.739 103.622C360.474 102.766 361.118 101.836 361.66 100.847V100.79V100.732C363.869 96.6842 364.378 91.9267 363.077 87.5042C361.775 83.0817 358.768 79.3559 354.717 77.145Z" fill="url(#paint16_linear)"/>
<path d="M350.248 41.3401C352.256 42.437 354.028 43.9181 355.463 45.6989C356.897 47.4798 357.966 49.5254 358.609 51.7189C359.251 53.9124 359.455 56.2108 359.207 58.4828C358.96 60.7547 358.266 62.9557 357.166 64.96C351.889 74.5924 342.975 74.6583 343.148 75.2099C343.157 75.2345 343.175 75.255 343.198 75.2675C343.734 75.5639 348.277 73.6209 354.742 77.1446C356.75 78.2414 358.522 79.7226 359.957 81.5034C361.391 83.2842 362.46 85.3298 363.103 87.5233C363.745 89.7168 363.949 92.0152 363.701 94.2872C363.453 96.5592 362.76 98.7602 361.66 100.764V100.822V100.88C361.118 101.869 360.474 102.798 359.739 103.654C357.142 106.737 353.554 108.826 349.587 109.563C345.621 110.3 341.521 109.64 337.987 107.696C322.814 99.4061 332.478 84.6446 329.279 82.8993C329.142 82.8295 328.994 82.7823 328.842 82.7593C325.89 89.4773 318.626 106.914 320.085 112.603L306.397 105.12C311.98 103.284 322.765 87.8307 326.847 81.6973C326.753 81.5905 326.642 81.5013 326.517 81.4338C323.309 79.6803 315.946 95.6519 300.889 87.4273C297.367 85.499 294.619 82.4163 293.109 78.6995C291.599 74.9827 291.42 70.8597 292.602 67.0265C292.928 65.9498 293.365 64.9097 293.905 63.9227V63.8651C293.908 63.8459 293.908 63.8265 293.905 63.8074C296.125 59.7601 299.864 56.7583 304.3 55.4616C308.736 54.1649 313.506 54.6793 317.562 56.8919C323.779 60.3003 324.67 65.2893 325.255 65.6022C325.268 65.6081 325.282 65.6112 325.296 65.6112C325.311 65.6112 325.325 65.6081 325.338 65.6022C325.931 65.4293 321.297 57.7975 326.525 48.2557C327.624 46.2507 329.107 44.4815 330.891 43.0492C332.674 41.6169 334.723 40.5495 336.92 39.908C339.117 39.2666 341.419 39.0636 343.695 39.3107C345.97 39.5579 348.175 40.2503 350.182 41.3484L350.248 41.3401ZM350.685 40.4345C346.387 38.0911 341.333 37.5456 336.632 38.9177C331.931 40.2897 327.967 43.4673 325.61 47.7535C323.506 51.4876 322.626 55.7861 323.095 60.045C321.694 58.368 319.987 56.9713 318.065 55.9286C313.766 53.5852 308.712 53.0397 304.012 54.4118C299.311 55.7839 295.347 58.9615 292.99 63.2476V63.3052V63.3629C292.42 64.4123 291.956 65.5154 291.604 66.656C290.347 70.7228 290.535 75.0981 292.135 79.0429C293.735 82.9878 296.649 86.2604 300.386 88.3082C311.32 94.2852 318.527 88.1683 322.798 84.5211C323.317 84.0766 324.068 83.4344 324.727 82.9569C316.44 95.1168 309.531 102.971 306.076 104.107C305.881 104.168 305.709 104.285 305.58 104.444C305.452 104.602 305.373 104.795 305.354 104.998C305.335 105.201 305.376 105.405 305.472 105.585C305.568 105.764 305.715 105.912 305.894 106.009L319.59 113.459C319.769 113.555 319.971 113.597 320.173 113.581C320.374 113.565 320.567 113.491 320.728 113.369C320.887 113.242 321.006 113.072 321.072 112.879C321.138 112.687 321.147 112.48 321.099 112.282C320.192 108.759 323.103 98.6816 328.916 85.1139C328.859 85.9372 328.718 86.9169 328.619 87.5837C327.795 93.1656 326.459 102.502 337.484 108.528C341.221 110.561 345.545 111.246 349.729 110.469C353.912 109.693 357.701 107.501 360.456 104.263C361.231 103.356 361.911 102.371 362.485 101.324V101.267V101.201C364.832 96.9103 365.378 91.8655 364.003 87.1734C362.629 82.4813 359.447 78.5252 355.154 76.1731C353.281 75.1275 351.238 74.4197 349.118 74.082C352.926 72.1935 356.039 69.1541 358.016 65.3964C360.362 61.1058 360.908 56.0611 359.534 51.369C358.16 46.6769 354.977 42.7207 350.685 40.3687V40.4345Z" fill="url(#paint17_linear)"/>
</g>
<g filter="url(#filter9_dd)">
<path d="M70.8243 115.998C70.3109 117.077 70.1605 118.293 70.3955 119.464C70.2306 119.513 70.0987 116.871 67.1632 115.422C65.9298 114.814 64.5049 114.72 63.2021 115.16C61.8993 115.601 60.8252 116.541 60.2161 117.772C59.6071 119.004 59.513 120.426 59.9544 121.727C60.3959 123.028 61.3369 124.1 62.5703 124.708C65.4811 126.141 67.6909 124.708 67.7486 124.84C67.8064 124.972 66.2314 125.276 65.2749 127.261C64.6668 128.491 64.5728 129.912 65.0134 131.212C65.454 132.512 66.3933 133.584 67.6249 134.193C67.924 134.345 68.2393 134.464 68.565 134.547C69.7201 134.851 70.9452 134.747 72.032 134.252C73.1188 133.756 74.0003 132.901 74.5266 131.83C76.8767 127.096 71.5829 125.136 72.5064 124.198C74.37 125.334 79.103 128.314 79.7297 129.961L81.7829 125.844C80.1338 126.347 74.8317 124.412 72.795 123.622C72.9599 122.296 77.7425 125.383 80.1008 120.6C80.631 119.53 80.7754 118.31 80.5095 117.147C80.2436 115.983 79.5837 114.946 78.6413 114.212C78.3818 114.011 78.1059 113.832 77.8167 113.676H77.7755C76.5452 113.065 75.1221 112.966 73.8188 113.401C72.5155 113.837 71.4385 114.771 70.8243 115.998Z" fill="url(#paint18_linear)"/>
<path d="M60.2204 117.774C60.8288 116.543 61.9018 115.604 63.2037 115.162C64.5056 114.721 65.9299 114.813 67.1634 115.42C70.0989 116.869 70.2308 119.536 70.3957 119.462C70.1884 118.51 70.2538 117.519 70.5843 116.603C70.9149 115.686 71.4973 114.881 72.2649 114.28C73.0324 113.678 73.9541 113.305 74.9243 113.202C75.8945 113.1 76.8741 113.272 77.7509 113.699H77.7921C78.0814 113.854 78.3572 114.033 78.6167 114.234C79.5592 114.969 80.219 116.006 80.4849 117.169C80.7508 118.333 80.6064 119.553 80.0762 120.623C77.8004 125.225 73.29 122.541 72.8035 123.513C72.7978 123.556 72.7978 123.601 72.8035 123.644C74.8402 124.468 80.1174 126.369 81.7913 125.867L79.7381 129.984C79.1197 128.337 74.3784 125.34 72.5149 124.221C72.4829 124.253 72.4552 124.289 72.4324 124.328C71.9541 125.299 76.8027 127.283 74.5351 131.853C74.0088 132.923 73.1273 133.779 72.0404 134.274C70.9536 134.77 69.7285 134.874 68.5734 134.569C68.2478 134.487 67.9324 134.368 67.6334 134.215C67.0147 133.92 66.4608 133.505 66.0039 132.994C65.5469 132.483 65.1959 131.887 64.9712 131.24C64.7465 130.593 64.6526 129.908 64.6949 129.225C64.7371 128.541 64.9147 127.873 65.2174 127.259C65.7537 126.211 66.624 125.371 67.6911 124.871C67.6334 124.698 65.4235 126.172 62.5128 124.739C61.2811 124.131 60.3418 123.059 59.9012 121.759C59.4606 120.459 59.5547 119.038 60.1627 117.807L60.2204 117.774ZM59.8824 117.667C59.2382 118.971 59.1367 120.475 59.6002 121.853C60.0638 123.23 61.0545 124.369 62.3561 125.019C63.4937 125.593 64.7815 125.8 66.0419 125.612C65.5647 126.049 65.1732 126.571 64.8875 127.152C64.2433 128.455 64.1419 129.959 64.6054 131.337C65.0689 132.715 66.0597 133.853 67.3613 134.503C67.7305 134.669 68.118 134.791 68.5157 134.866C69.74 135.187 71.0378 135.076 72.1899 134.553C73.3421 134.029 74.2781 133.125 74.8402 131.992C76.4893 128.699 74.5763 126.616 73.4301 125.406C73.2982 125.258 73.0921 125.044 72.9436 124.855C76.6707 127.16 79.095 129.111 79.4743 130.124C79.4932 130.181 79.5297 130.231 79.5785 130.266C79.6273 130.302 79.686 130.321 79.7464 130.321C79.8065 130.325 79.8664 130.312 79.9191 130.283C79.9717 130.253 80.0148 130.21 80.0432 130.157L82.0964 126.04C82.1219 125.986 82.1315 125.926 82.124 125.867C82.1166 125.808 82.0924 125.752 82.0542 125.707C82.0161 125.661 81.9657 125.627 81.9089 125.609C81.8521 125.59 81.7913 125.589 81.7336 125.604C80.6946 125.917 77.6602 125.176 73.5538 123.62C73.793 123.62 74.0898 123.62 74.2877 123.677C75.9368 123.85 78.7569 124.138 80.4143 120.788C80.9739 119.655 81.1253 118.364 80.8429 117.133C80.5605 115.902 79.8616 114.805 78.8641 114.028C78.5832 113.807 78.2791 113.616 77.9571 113.46C76.6522 112.815 75.1443 112.713 73.764 113.176C72.3836 113.639 71.2435 114.629 70.5936 115.93C70.3068 116.497 70.1225 117.11 70.0494 117.741C69.4376 116.638 68.4946 115.754 67.353 115.214C66.0478 114.571 64.5407 114.47 63.161 114.932C61.7813 115.395 60.6411 116.384 59.9896 117.684L59.8824 117.667Z" fill="url(#paint19_linear)"/>
</g>
<g filter="url(#filter10_dd)">
<path d="M57.5403 80.9642C54.5471 83.5082 54.8028 86.1427 54.5142 86.118C54.2256 86.0933 55.8005 81.8452 52.1641 77.5888C51.4061 76.7023 50.4807 75.9735 49.4406 75.444C48.4005 74.9146 47.2661 74.5949 46.1023 74.5031C44.9384 74.4114 43.7679 74.5494 42.6575 74.9093C41.547 75.2693 40.5185 75.8441 39.6306 76.6009C37.8373 78.1293 36.7256 80.3064 36.54 82.6532C36.3545 85 37.1102 87.3243 38.6411 89.1147C42.2445 93.3299 46.7302 92.5149 46.7054 92.8277C46.6807 93.1406 44.0173 92.4819 41.1313 94.9435C39.342 96.4687 38.2319 98.6405 38.0449 100.982C37.8578 103.324 38.609 105.644 40.1336 107.433C40.51 107.869 40.9299 108.267 41.3869 108.618C43.0003 109.875 44.9988 110.538 47.0448 110.495C49.0909 110.451 51.0593 109.704 52.6176 108.379C59.5193 102.501 52.5187 95.8409 54.5966 94.9929C56.7735 98.0391 62.1992 105.984 62.0178 108.989L68.0702 103.835C65.2171 103.53 58.1753 96.9112 55.5036 94.2849C56.6581 92.309 62.1002 100.394 69.0679 94.466C70.6244 93.1379 71.6744 91.3145 72.0409 89.3033C72.4074 87.2921 72.068 85.2162 71.0799 83.4258C70.8044 82.9222 70.4784 82.4477 70.1069 82.0098C69.3533 81.1132 68.4293 80.3745 67.3884 79.8362C66.3474 79.2979 65.21 78.9708 64.0417 78.8736C62.8735 78.7764 61.6975 78.9111 60.5817 79.2699C59.4658 79.6287 58.4322 80.2046 57.5403 80.9642Z" fill="url(#paint20_linear)"/>
<path d="M39.6553 76.5932C40.543 75.8369 41.5713 75.2628 42.6814 74.9036C43.7914 74.5443 44.9615 74.407 46.1247 74.4996C47.288 74.5921 48.4215 74.9126 49.4606 75.4427C50.4997 75.9729 51.424 76.7023 52.1806 77.5893C55.8005 81.8457 54.2173 86.0938 54.4977 86.1185C54.7368 85.9127 54.6296 83.4017 57.4909 80.973C58.3786 80.2168 59.4068 79.6426 60.5169 79.2834C61.627 78.9242 62.7971 78.7869 63.9603 78.8794C65.1235 78.9719 66.2571 79.2924 67.2962 79.8226C68.3353 80.3527 69.2596 81.0822 70.0162 81.9692C70.3877 82.4071 70.7137 82.8816 70.9892 83.3852C71.9773 85.1756 72.3167 87.2515 71.9502 89.2627C71.5837 91.2739 70.5337 93.0973 68.9772 94.4254C62.2652 100.131 56.9796 92.8612 55.5614 94.0632C55.506 94.1184 55.4562 94.1791 55.413 94.2443C58.1753 96.9117 65.2171 103.531 68.1526 103.868L62.1003 109.022C62.2404 106.034 56.8147 98.089 54.6791 95.0264C54.6107 95.0521 54.5467 95.0882 54.4894 95.1334C53.0712 96.3436 59.3544 102.741 52.7001 108.413C51.1418 109.737 49.1734 110.485 47.1273 110.528C45.0812 110.572 43.0828 109.909 41.4694 108.652C41.0124 108.3 40.5924 107.903 40.216 107.466C39.4487 106.584 38.8635 105.56 38.494 104.451C38.1246 103.343 37.9782 102.172 38.0633 101.007C38.1483 99.8418 38.4631 98.7049 38.9897 97.6616C39.5162 96.6183 40.244 95.6892 41.1313 94.9276C43.8854 92.5813 46.4251 93.067 46.6807 92.8447C46.6807 92.5319 42.2197 93.3469 38.6164 89.1317C37.8563 88.242 37.28 87.211 36.9206 86.098C36.5613 84.985 36.426 83.812 36.5226 82.6466C36.6192 81.4812 36.9457 80.3463 37.4833 79.3074C38.021 78.2685 38.7591 77.3461 39.6553 76.5932ZM39.3172 76.1898C37.4156 77.804 36.2336 80.1059 36.0311 82.5898C35.8285 85.0737 36.622 87.5363 38.2371 89.4363C39.6371 91.118 41.5282 92.3211 43.6463 92.8776C42.5969 93.2411 41.626 93.7998 40.785 94.5242C38.8889 96.1431 37.713 98.4466 37.5152 100.93C37.3173 103.413 38.1136 105.873 39.7295 107.771C40.131 108.232 40.5755 108.654 41.0571 109.03C42.7704 110.357 44.8882 111.055 47.0558 111.009C49.2234 110.962 51.3092 110.174 52.964 108.775C57.796 104.659 56.1798 100.131 55.2233 97.4221C55.1079 97.1011 54.9347 96.5989 54.8275 96.2284C59.1235 102.37 61.6138 107.087 61.5313 108.94C61.5288 109.042 61.5557 109.143 61.6088 109.23C61.662 109.318 61.7391 109.388 61.8311 109.433C61.923 109.478 62.026 109.496 62.1278 109.485C62.2296 109.473 62.3259 109.432 62.4053 109.368L68.5154 104.272C68.5956 104.206 68.6544 104.118 68.6845 104.018C68.7147 103.919 68.7148 103.813 68.6848 103.714C68.6549 103.614 68.5962 103.526 68.5162 103.46C68.4362 103.394 68.3384 103.352 68.2351 103.342C66.388 103.127 62.1085 99.9167 56.691 94.6889C57.0621 94.8617 57.5156 95.1087 57.8207 95.2816C60.2944 96.6812 64.541 99.0193 69.4142 94.87C71.062 93.4618 72.1745 91.5305 72.5649 89.4003C72.9553 87.2701 72.5998 85.0707 71.5581 83.1712C71.2636 82.6352 70.9155 82.1305 70.5192 81.6646C69.7214 80.7128 68.7429 79.928 67.6401 79.3554C66.5373 78.7828 65.3319 78.4336 64.0934 78.328C62.8549 78.2224 61.6076 78.3624 60.4236 78.7401C59.2395 79.1177 58.1419 79.7255 57.194 80.5284C56.3538 81.2203 55.6444 82.0567 55.0996 82.9983C54.8814 80.8599 53.9959 78.8441 52.5682 77.2353C50.9468 75.3415 48.6388 74.1676 46.1511 73.9716C43.6635 73.7755 41.1996 74.5733 39.3008 76.1898H39.3172Z" fill="url(#paint21_linear)"/>
</g>
<g filter="url(#filter11_dd)">
<path d="M331.068 113.009C333.855 108.012 330.961 101.632 325.75 98.0751C320.118 94.1975 312.095 94.7079 306.785 101.912C301.977 108.432 303.412 116.936 305.449 126.19C306.779 131.996 307.759 137.877 308.384 143.8C314.233 142.619 320.148 141.795 326.096 141.33C335.546 140.507 344.105 139.338 348.904 132.818C354.214 125.614 352.301 117.817 346.925 113.602C341.977 109.716 335.01 108.86 331.068 113.009Z" fill="url(#paint22_linear)"/>
<path d="M346.488 113.279L346.933 113.617C352.309 117.832 354.222 125.628 348.912 132.832C344.113 139.352 335.554 140.53 326.104 141.345C320.156 141.809 314.241 142.634 308.392 143.815C307.768 137.891 306.787 132.011 305.457 126.205C303.42 116.935 301.985 108.43 306.818 101.934C312.12 94.7307 320.143 94.2203 325.783 98.0979C325.939 98.1967 326.088 98.312 326.245 98.419C331.192 102.033 333.806 108.183 331.101 113.032C334.927 109.006 341.598 109.69 346.521 113.304L346.488 113.279ZM346.95 112.711C342.827 109.69 337.055 108.364 332.717 110.842C333.756 105.96 330.73 100.823 326.607 97.818L326.129 97.4804C320.695 93.7428 312.111 93.4052 306.166 101.49C301.219 108.2 302.587 116.729 304.707 126.361C306.027 132.108 307.007 137.928 307.642 143.79C307.638 143.831 307.638 143.872 307.642 143.913C307.654 144.009 307.686 144.101 307.735 144.183C307.785 144.265 307.852 144.336 307.931 144.391C308.007 144.448 308.094 144.49 308.186 144.514C308.321 144.552 308.464 144.552 308.599 144.514C314.391 143.354 320.248 142.543 326.137 142.086C335.983 141.262 344.542 139.986 349.481 133.277C355.434 125.192 352.557 117.132 347.362 113.057L346.892 112.703L346.95 112.711Z" fill="url(#paint23_linear)"/>
</g>
<g filter="url(#filter12_dd)">
<path d="M89.6246 63.576C86.0624 59.1715 79.1195 59.4596 73.9165 62.9256C68.2681 66.6551 65.7614 74.1963 70.4285 81.7293C74.6503 88.5461 83.0033 90.4067 92.2715 91.9463C98.1161 92.8695 103.899 94.148 109.588 95.7745C110.67 89.978 112.099 84.2514 113.867 78.6256C116.621 69.6518 118.707 61.3367 114.486 54.5529C109.81 47.0199 101.936 45.8837 96.0646 49.2427C90.6388 52.3547 87.2663 58.4223 89.6246 63.576Z" fill="url(#paint24_linear)"/>
<path d="M95.5863 49.5393L96.0645 49.2511C101.935 45.8839 109.81 47.02 114.469 54.553C118.691 61.3698 116.605 69.652 113.851 78.6257C112.077 84.2512 110.642 89.9778 109.555 95.7747C103.866 94.1482 98.0831 92.8697 92.2385 91.9464C83.0032 90.4069 74.6503 88.5463 70.4285 81.7295C65.7614 74.1965 68.2681 66.6553 73.9164 62.9258L74.3864 62.6212C79.5235 59.4516 86.1696 59.3281 89.6246 63.5762C87.3405 58.5789 90.4492 52.7171 95.5863 49.5804V49.5393ZM95.207 48.9218C90.9027 51.581 87.5302 56.4054 88.2063 61.271C84.1412 58.4883 78.3114 59.3363 74.0071 61.9873L73.5124 62.3001C68.0619 65.9061 64.574 73.6367 69.81 82.0588C74.1556 89.1308 82.5332 91.0408 92.1478 92.6544C97.9271 93.575 103.646 94.8396 109.274 96.4415H109.398C109.584 96.4832 109.779 96.4507 109.942 96.351C110.022 96.3012 110.092 96.237 110.148 96.1616C110.231 96.0521 110.277 95.9198 110.28 95.7829C111.366 90.04 112.789 84.366 114.543 78.7904C117.413 69.4462 119.433 61.1475 115.087 54.092C109.851 45.711 101.367 45.3652 95.7264 48.6254L95.2317 48.9218H95.207Z" fill="url(#paint25_linear)"/>
</g>
<g filter="url(#filter13_dd)">
<path d="M57.6804 50.8896C55.8168 47.9093 51.5126 47.5964 48.0493 49.3253C44.2893 51.2106 42.1866 55.6728 44.5037 60.6537C46.5899 65.1735 51.6033 66.927 57.2021 68.5736C60.7284 69.5737 64.1899 70.789 67.567 72.2125C68.6681 68.7203 69.9788 65.2975 71.492 61.9627C73.8585 56.6443 75.7633 51.6881 73.6689 47.1436C71.3518 42.2122 66.5858 40.9279 62.7433 42.5662C59.1399 44.081 56.6167 47.5964 57.6804 50.8896Z" fill="url(#paint26_linear)"/>
<path d="M62.3972 42.7052L62.7188 42.5652C66.5861 40.9187 71.3521 42.2112 73.6692 47.2003C75.7636 51.7119 73.8588 56.668 71.4923 62.0193C69.9791 65.3542 68.6684 68.777 67.5673 72.2692C64.1901 70.8456 60.7287 69.6304 57.2024 68.6303C51.6035 66.9837 46.5901 65.2301 44.5039 60.7103C42.1869 55.7706 44.2895 51.2673 48.0496 49.382L48.3629 49.2338C51.7684 47.6613 55.8666 48.0565 57.6806 50.9462C56.6499 47.7025 58.9917 44.36 62.3972 42.7134V42.7052ZM62.2076 42.3018C59.3628 43.619 56.9715 46.3441 56.9715 49.3985C54.6709 47.3814 51.0098 47.472 48.165 48.7892L47.8352 48.9456C44.2071 50.7651 41.486 55.2684 44.0834 60.8667C46.252 65.5183 51.249 67.3542 57.0705 69.0007C60.5647 69.9955 63.9956 71.1996 67.3447 72.6067H67.4189C67.4724 72.6291 67.5299 72.6407 67.5879 72.6407C67.646 72.6407 67.7034 72.6291 67.7569 72.6067C67.8123 72.5835 67.8627 72.55 67.9054 72.5079C67.9591 72.4439 67.9959 72.3675 68.0126 72.2856C69.1072 68.8386 70.4068 65.4599 71.9046 62.1675C74.3783 56.6268 76.2253 51.6542 74.0732 47.0109C71.4758 41.4126 66.2727 40.5647 62.5291 42.1536L62.1993 42.3018H62.2076Z" fill="url(#paint27_linear)"/>
</g>
<g filter="url(#filter14_dd)">
<path d="M109.596 103.786C111.764 98.7474 108.375 92.9433 103.057 90.0618C97.2848 86.9168 89.6987 88.1847 85.3449 95.5777C81.4035 102.271 83.6051 110.249 86.4581 118.868C88.2919 124.279 89.8035 129.794 90.985 135.383C96.4503 133.693 102.012 132.332 107.641 131.308C116.58 129.612 124.628 127.653 128.569 120.959C132.923 113.55 130.342 106.322 124.793 102.847C119.68 99.5789 112.952 99.4636 109.596 103.786Z" fill="url(#paint28_linear)"/>
<path d="M124.331 102.543L124.793 102.822C130.342 106.321 132.923 113.525 128.569 120.935C124.628 127.628 116.58 129.587 107.641 131.283C102.012 132.307 96.4503 133.668 90.985 135.359C89.8035 129.769 88.2919 124.255 86.4581 118.844C83.6051 110.224 81.4034 102.246 85.3449 95.5529C89.6987 88.1434 97.3013 86.892 103.057 90.0369L103.527 90.3004C108.573 93.2642 111.707 98.879 109.596 103.761C112.894 99.5541 119.284 99.5541 124.331 102.518V102.543ZM124.694 101.933C120.464 99.4635 114.799 98.7555 110.923 101.53C111.467 96.7961 108.103 92.1939 103.881 89.7159C103.725 89.6171 103.56 89.5265 103.395 89.4359C97.8372 86.398 89.6327 86.9167 84.743 95.1989C80.6861 102.082 82.8135 110.084 85.7902 119.074C87.6132 124.432 89.1111 129.895 90.2759 135.433V135.556C90.3252 135.734 90.44 135.887 90.5975 135.984C90.6802 136.028 90.7692 136.058 90.8613 136.075C90.9906 136.089 91.1215 136.07 91.2406 136.017C96.6519 134.344 102.159 132.997 107.732 131.983C117.042 130.213 125.048 128.188 129.171 121.28C134.061 112.982 130.523 105.572 125.172 102.197L124.694 101.909V101.933Z" fill="url(#paint29_linear)"/>
</g>
<g filter="url(#filter15_dd)">
<path d="M298.349 57.4192C300.477 51.9608 296.642 45.8932 290.862 43.02C284.612 39.8751 276.556 41.5134 272.186 49.5568C268.228 56.8346 270.866 65.265 274.231 74.354C276.395 80.0537 278.209 85.8796 279.664 91.7993C285.429 89.7953 291.311 88.1457 297.277 86.8596C306.744 84.7191 315.253 82.3316 319.211 75.0538C323.581 67.0104 320.555 59.4115 314.511 55.8549C308.945 52.5371 301.763 52.6606 298.349 57.4192Z" fill="#F06021"/>
<path d="M314.016 55.5426L314.511 55.8307C320.555 59.3461 323.581 66.9862 319.211 75.0296C315.253 82.3074 306.743 84.6949 297.277 86.8355C291.311 88.1215 285.429 89.7711 279.664 91.7751C278.209 85.8554 276.394 80.0295 274.23 74.3298C270.866 65.2738 268.227 56.8104 272.185 49.5327C276.556 41.4892 284.612 39.8509 290.862 42.9958L291.373 43.2593C296.865 46.2313 300.444 52.1013 298.349 57.395C301.648 52.7846 308.516 52.5459 314.016 55.5179V55.5426ZM314.371 54.8263C309.778 52.3565 303.709 51.8049 299.677 54.9169C300.081 49.8455 296.329 45.0375 291.736 42.5677L291.2 42.296C285.164 39.3157 276.432 40.1884 271.526 49.2445C267.452 56.7281 270.025 65.1832 273.529 74.6509C275.668 80.3024 277.468 86.0755 278.922 91.9398C278.915 91.9834 278.915 92.0279 278.922 92.0715C278.951 92.1647 278.997 92.2512 279.06 92.3262C279.122 92.4011 279.199 92.4628 279.285 92.5079C279.37 92.5588 279.466 92.5897 279.565 92.5984C279.704 92.6113 279.844 92.5857 279.969 92.5243C285.68 90.5261 291.507 88.8765 297.417 87.5846C307.312 85.3453 315.772 82.892 319.846 75.4001C324.752 66.344 320.67 58.597 314.898 55.1968L314.379 54.9004L314.371 54.8263Z" fill="url(#paint30_linear)"/>
</g>
<g filter="url(#filter16_dd)">
<path d="M385.753 90.151C386.809 87.7964 385.25 85.0385 382.76 83.6471C380.072 82.1323 376.485 82.6839 374.391 86.117C372.486 89.2454 373.475 93.016 374.762 97.0913C375.599 99.6484 376.276 102.255 376.79 104.896C379.374 104.135 382 103.53 384.657 103.085C388.878 102.336 392.68 101.438 394.552 98.3427C396.654 94.8849 395.483 91.46 392.902 89.7805C390.528 88.2328 387.361 88.1258 385.753 90.151Z" fill="url(#paint31_linear)"/>
<path d="M392.697 89.6582L392.912 89.7981C395.509 91.4447 396.68 94.9025 394.561 98.3602C392.664 101.48 388.863 102.353 384.666 103.102C382.01 103.548 379.383 104.153 376.799 104.914C376.286 102.273 375.608 99.666 374.771 97.1088C373.485 92.9924 372.495 89.263 374.4 86.1345C376.494 82.685 380.081 82.1334 382.769 83.6647L382.992 83.7964C385.35 85.2207 386.785 87.9128 385.763 90.1686C387.321 88.2092 390.347 88.2504 392.705 89.6746L392.697 89.6582ZM392.87 89.3783C390.9 88.1845 388.236 87.8222 386.389 89.1066C386.678 86.8755 385.128 84.6856 383.157 83.4918L382.926 83.3601C380.329 81.8946 376.461 82.084 374.103 85.9616C372.157 89.1807 373.105 92.9595 374.449 97.2076C375.275 99.7418 375.947 102.323 376.461 104.938C376.461 104.938 376.461 104.938 376.461 104.996C376.483 105.081 376.536 105.154 376.61 105.202H376.733C376.793 105.218 376.856 105.218 376.915 105.202C379.474 104.449 382.076 103.85 384.707 103.407C389.102 102.633 392.903 101.76 394.858 98.4673C397.208 94.5896 395.591 91.0577 393.085 89.4606L392.862 89.3206L392.87 89.3783Z" fill="url(#paint32_linear)"/>
</g>
<g filter="url(#filter17_dd)">
<path d="M151.641 97.1515C144.517 95.332 142.035 93.3809 142.035 93.3809C142.035 93.3809 142.315 96.5176 139.932 103.466C138.019 109.04 136.502 113.535 138.679 117.552C139.13 118.389 139.742 119.129 140.48 119.73C141.218 120.33 142.068 120.779 142.98 121.052C143.892 121.324 144.849 121.414 145.796 121.316C146.743 121.219 147.662 120.936 148.499 120.483C150.973 119.158 152.705 116.877 152.804 114.432C153.818 117.141 155.277 121.249 154.271 123.175L160.324 119.882C158.172 119.635 155.516 116.186 153.801 113.864C155.904 115.115 158.749 114.91 161.222 113.584C162.904 112.676 164.157 111.14 164.709 109.312C165.26 107.484 165.065 105.513 164.166 103.828C161.956 99.8107 157.355 98.6416 151.641 97.1515Z" fill="url(#paint33_linear)"/>
<path d="M142.035 93.3802C142.035 93.3802 144.508 95.3314 151.641 97.1509C157.355 98.641 161.956 99.8101 164.166 103.828C165.077 105.514 165.28 107.491 164.731 109.327C164.182 111.162 162.926 112.705 161.239 113.616C158.765 114.942 155.912 115.148 153.818 113.896C155.533 116.218 158.188 119.659 160.34 119.915L154.288 123.208C155.261 121.281 153.834 117.173 152.82 114.464C152.721 116.934 150.981 119.19 148.516 120.516C147.677 120.972 146.756 121.257 145.806 121.356C144.856 121.455 143.895 121.366 142.98 121.092C142.065 120.819 141.213 120.368 140.473 119.764C139.734 119.161 139.121 118.417 138.67 117.576C136.494 113.559 138.011 109.064 139.924 103.49C142.307 96.5416 142.026 93.4049 142.026 93.4049L142.035 93.3802ZM141.829 93.0345C141.757 93.0756 141.698 93.136 141.659 93.2087C141.619 93.2814 141.601 93.3636 141.606 93.4461C141.606 93.4461 141.837 96.6157 139.52 103.325C137.64 108.809 136.023 113.542 138.299 117.758C139.262 119.543 140.895 120.874 142.841 121.458C144.786 122.042 146.884 121.83 148.672 120.87C150.654 119.867 152.174 118.143 152.919 116.053C153.694 118.284 154.626 121.503 153.867 123.002C153.826 123.082 153.812 123.173 153.826 123.262C153.841 123.351 153.883 123.433 153.948 123.495C154.013 123.558 154.096 123.598 154.185 123.61C154.275 123.622 154.366 123.605 154.444 123.562L160.497 120.269C160.576 120.225 160.639 120.158 160.677 120.077C160.716 119.995 160.728 119.904 160.711 119.816C160.696 119.728 160.652 119.647 160.586 119.586C160.521 119.526 160.437 119.488 160.348 119.478C158.699 119.289 156.489 116.745 155.046 114.876C157.204 115.398 159.479 115.074 161.404 113.97C163.19 113.007 164.519 111.375 165.101 109.433C165.682 107.491 165.467 105.398 164.504 103.614C162.22 99.3984 157.372 98.1553 151.748 96.7228C144.822 94.9609 142.323 93.0509 142.299 93.0345C142.23 92.9885 142.15 92.9639 142.068 92.9639C141.985 92.9639 141.905 92.9885 141.837 93.0345H141.829Z" fill="url(#paint34_linear)"/>
</g>
<g filter="url(#filter18_dd)">
<path d="M364.084 119.502C355.468 117.987 352.359 115.929 352.359 115.929C352.359 115.929 352.969 119.633 350.759 128.08C348.995 134.856 347.601 140.323 350.537 144.892C351.146 145.841 351.937 146.661 352.864 147.305C353.791 147.949 354.836 148.405 355.94 148.645C357.043 148.886 358.183 148.908 359.295 148.709C360.407 148.509 361.468 148.094 362.419 147.485C365.222 145.69 367.078 142.834 366.987 139.927C368.422 143.039 370.491 147.79 369.502 150.161L376.387 145.756C373.814 145.657 370.359 141.804 368.141 139.17C370.755 140.462 374.128 139.993 376.923 138.174C377.874 137.565 378.695 136.775 379.34 135.85C379.985 134.924 380.441 133.881 380.683 132.779C380.924 131.677 380.945 130.539 380.746 129.429C380.547 128.319 380.13 127.26 379.52 126.31C376.552 121.741 370.986 120.728 364.084 119.502Z" fill="url(#paint35_linear)"/>
<path d="M352.359 115.93C352.359 115.93 355.468 118.021 364.084 119.535C370.986 120.762 376.552 121.775 379.488 126.344C380.705 128.255 381.116 130.569 380.633 132.782C380.15 134.994 378.81 136.927 376.907 138.158C374.111 139.953 370.739 140.447 368.125 139.154C370.368 141.756 373.823 145.609 376.371 145.74L369.485 150.129C370.475 147.758 368.405 143.007 366.97 139.895C367.061 142.801 365.206 145.658 362.402 147.453C361.452 148.062 360.39 148.477 359.278 148.676C358.167 148.876 357.027 148.854 355.923 148.613C354.82 148.372 353.775 147.917 352.848 147.273C351.921 146.629 351.13 145.809 350.52 144.86C347.585 140.29 348.978 134.824 350.743 128.048C352.994 119.601 352.351 115.93 352.351 115.93H352.359ZM352.079 115.501C351.997 115.555 351.932 115.63 351.892 115.719C351.853 115.809 351.84 115.907 351.856 116.004C351.856 116.004 352.408 119.741 350.265 127.949C348.525 134.61 347.024 140.364 350.108 145.156C351.413 147.182 353.47 148.609 355.828 149.123C358.185 149.637 360.65 149.196 362.683 147.897C364.938 146.53 366.584 144.354 367.284 141.813C368.405 144.39 369.799 148.112 369.032 149.964C368.992 150.063 368.984 150.171 369.01 150.274C369.035 150.378 369.092 150.471 369.172 150.54C369.258 150.604 369.362 150.639 369.469 150.639C369.576 150.639 369.68 150.604 369.766 150.54L376.651 146.136C376.749 146.081 376.828 145.997 376.874 145.894C376.92 145.792 376.931 145.677 376.907 145.568C376.877 145.465 376.815 145.375 376.731 145.31C376.646 145.245 376.543 145.208 376.437 145.205C374.441 145.131 371.629 142.307 369.749 140.216C372.343 140.633 374.998 140.044 377.17 138.57C378.18 137.928 379.052 137.094 379.736 136.114C380.421 135.135 380.905 134.03 381.16 132.863C381.416 131.696 381.437 130.49 381.223 129.315C381.01 128.139 380.566 127.018 379.916 126.015C376.832 121.223 370.97 120.186 364.175 118.984C355.814 117.51 352.672 115.477 352.631 115.452C352.549 115.399 352.453 115.371 352.355 115.371C352.257 115.371 352.161 115.399 352.079 115.452V115.501Z" fill="url(#paint36_linear)"/>
</g>
<g filter="url(#filter19_dd)">
<path d="M117.083 51.2446C110.486 47.8609 108.45 45.3828 108.45 45.3828C108.45 45.3828 108.021 48.5442 104.112 54.867C100.971 59.9466 98.4723 64.063 99.7174 68.4923C99.9764 69.4164 100.415 70.2805 101.009 71.0351C101.602 71.7898 102.339 72.4203 103.177 72.8905C104.015 73.3607 104.937 73.6615 105.891 73.7756C106.846 73.8897 107.813 73.8149 108.738 73.5555C111.459 72.798 113.686 70.9374 114.337 68.5499C114.733 71.4479 115.219 75.8195 113.826 77.5072L120.53 75.6301C118.46 74.9139 116.613 70.921 115.442 68.2206C117.24 69.9248 120.109 70.3611 122.863 69.6037C124.717 69.069 126.284 67.8255 127.224 66.1437C128.164 64.4618 128.402 62.4774 127.885 60.6217C126.665 56.1678 122.401 53.9614 117.083 51.2446Z" fill="url(#paint37_linear)"/>
<path d="M108.45 45.3843C108.45 45.3843 110.462 47.8541 117.083 51.246C122.402 53.9629 126.665 56.1857 127.91 60.6232C128.432 62.4901 128.19 64.4875 127.238 66.1765C126.285 67.8654 124.7 69.1076 122.83 69.6299C120.109 70.3873 117.24 69.951 115.409 68.2468C116.58 70.9224 118.427 74.9153 120.497 75.6563L113.867 77.5087C115.261 75.8621 114.774 71.4493 114.378 68.5514C113.727 70.9389 111.501 72.7995 108.78 73.5569C107.854 73.8163 106.887 73.8911 105.933 73.777C104.978 73.6629 104.056 73.3622 103.218 72.892C102.38 72.4217 101.644 71.7913 101.05 71.0366C100.456 70.2819 100.018 69.4179 99.7588 68.4938C98.4724 64.0645 100.971 59.9481 104.104 54.8685C108.013 48.5457 108.442 45.3843 108.442 45.3843H108.45ZM108.326 44.9727C108.247 44.9967 108.176 45.0428 108.122 45.1055C108.068 45.1682 108.033 45.2449 108.021 45.3267C108.021 45.3267 107.534 48.5045 103.741 54.6462C100.658 59.6353 97.9694 63.941 99.3052 68.642C99.875 70.6042 101.198 72.2624 102.986 73.2554C104.775 74.2484 106.884 74.4958 108.854 73.9439C111.032 73.3978 112.915 72.0358 114.115 70.1403C114.378 72.5196 114.585 75.9033 113.496 77.2123C113.439 77.2826 113.405 77.3693 113.401 77.4598C113.396 77.5503 113.42 77.64 113.469 77.716C113.519 77.792 113.591 77.8504 113.676 77.8826C113.761 77.9149 113.854 77.9195 113.941 77.8956L120.645 76.0185C120.733 75.9954 120.811 75.9444 120.868 75.8731C120.924 75.8019 120.956 75.7142 120.959 75.6234C120.96 75.5331 120.933 75.4447 120.881 75.3708C120.829 75.2969 120.755 75.2412 120.67 75.2117C119.021 74.6519 117.479 71.6552 116.473 69.4488C118.484 70.4443 120.801 70.63 122.946 69.9674C123.925 69.6945 124.841 69.2316 125.642 68.6052C126.442 67.9788 127.111 67.2011 127.61 66.3166C128.109 65.4321 128.429 64.458 128.551 63.4501C128.673 62.4421 128.596 61.42 128.322 60.4421C127.06 55.8317 122.501 53.5348 117.281 50.892C110.841 47.5989 108.804 45.1291 108.78 45.1291C108.726 45.0669 108.655 45.0209 108.577 44.9962C108.498 44.9715 108.414 44.969 108.334 44.9891L108.326 44.9727Z" fill="url(#paint38_linear)"/>
</g>
<g filter="url(#filter20_dd)">
<path d="M170.317 60.8277C164.9 52.1257 164.29 47.7705 164.29 47.7705C164.29 47.7705 161.528 51.2036 152.408 55.9045C145.085 59.6669 139.215 62.7377 137.516 68.8794C137.163 70.1552 137.065 71.4879 137.227 72.8015C137.39 74.1151 137.81 75.3838 138.464 76.5352C139.118 77.6865 139.993 78.698 141.038 79.5118C142.084 80.3256 143.28 80.9257 144.558 81.278C148.326 82.3153 152.276 81.6979 154.75 79.3433C153.15 83.0398 150.627 88.5558 147.765 89.5602L157.017 92.1124C155.088 89.7907 155.747 83.7561 156.275 79.7632C157.182 83.0563 160.258 85.6085 164.026 86.6458C165.304 86.9983 166.64 87.0959 167.956 86.9329C169.272 86.7698 170.543 86.3495 171.696 85.6957C172.849 85.042 173.862 84.1678 174.677 83.123C175.492 82.0782 176.092 80.8834 176.444 79.6067C178.134 73.4568 174.663 67.8091 170.317 60.8277Z" fill="url(#paint39_linear)"/>
<path d="M164.29 47.7712C164.29 47.7712 164.9 52.1264 170.317 60.8284C174.663 67.8098 178.134 73.4575 176.436 79.5992C176.084 80.8758 175.483 82.0707 174.669 83.1155C173.854 84.1602 172.841 85.0345 171.688 85.6882C170.535 86.3419 169.264 86.7623 167.947 86.9253C166.631 87.0883 165.296 86.9908 164.018 86.6382C160.249 85.6009 157.174 83.0487 156.267 79.7556C155.739 83.7485 155.079 89.7832 157.009 92.1048L147.757 89.5856C150.61 88.5812 153.142 83.0652 154.741 79.3687C152.268 81.7233 148.318 82.3407 144.55 81.3034C143.272 80.9511 142.076 80.351 141.03 79.5372C139.985 78.7234 139.11 77.7119 138.456 76.5606C137.802 75.4092 137.382 74.1405 137.219 72.8269C137.056 71.5133 137.154 70.1806 137.508 68.9048C139.206 62.7631 145.077 59.6923 152.399 55.9299C161.519 51.229 164.282 47.7959 164.282 47.7959L164.29 47.7712ZM164.438 47.2278C164.326 47.1982 164.208 47.2019 164.098 47.2384C163.988 47.275 163.892 47.3429 163.82 47.4337C163.82 47.4337 160.992 50.842 152.127 55.403C144.929 59.1078 138.72 62.3103 136.939 68.7484C136.193 71.4708 136.554 74.3773 137.944 76.8351C139.334 79.2929 141.64 81.1031 144.36 81.8715C147.324 82.7699 150.52 82.4988 153.29 81.114C151.913 84.1108 149.744 88.2519 147.518 89.0258C147.399 89.0644 147.295 89.1397 147.221 89.241C147.147 89.3424 147.107 89.4644 147.107 89.5897C147.107 89.715 147.147 89.8371 147.221 89.9384C147.295 90.0397 147.399 90.1151 147.518 90.1537L156.77 92.7058C156.891 92.7371 157.018 92.7294 157.135 92.684C157.251 92.6385 157.35 92.5576 157.418 92.4527C157.485 92.3478 157.518 92.2243 157.511 92.0998C157.504 91.9752 157.458 91.856 157.38 91.7591C155.879 89.9561 156.143 85.2963 156.498 82.0196C158.165 84.6268 160.771 86.4953 163.779 87.2392C166.505 87.9842 169.416 87.6235 171.878 86.2358C174.34 84.8481 176.153 82.5456 176.922 79.8297C178.703 73.3917 175.009 67.4805 170.738 60.5979C165.477 52.1428 164.801 47.8041 164.793 47.763C164.777 47.6488 164.728 47.5418 164.652 47.4554C164.576 47.369 164.476 47.307 164.364 47.2772L164.438 47.2278Z" fill="url(#paint40_linear)"/>
</g>
<g filter="url(#filter21_dd)">
<path d="M278.782 122.327C283.202 128.337 283.894 131.457 283.894 131.457C283.894 131.457 285.708 128.823 292.058 124.871C297.145 121.726 301.235 119.174 302.118 114.621C302.491 112.718 302.093 110.745 301.01 109.136C299.928 107.526 298.251 106.41 296.345 106.034C293.558 105.491 290.722 106.158 289.064 108.01C290.021 105.236 291.538 101.095 293.55 100.205L286.706 98.8799C288.232 100.452 288.1 104.865 287.943 107.788C287.118 105.458 284.719 103.778 281.932 103.235C280.025 102.864 278.05 103.263 276.436 104.343C274.823 105.423 273.704 107.096 273.323 108.998C272.383 113.617 275.22 117.511 278.782 122.327Z" fill="url(#paint41_linear)"/>
<path d="M283.87 131.456C283.87 131.456 283.177 128.336 278.757 122.326C275.22 117.51 272.383 113.616 273.266 109.063C273.646 107.161 274.766 105.488 276.379 104.408C277.992 103.328 279.968 102.93 281.874 103.3C284.661 103.843 287.036 105.523 287.886 107.853C288.042 104.93 288.174 100.517 286.649 98.945L293.493 100.27C291.489 101.16 289.963 105.301 289.007 108.075C290.656 106.223 293.501 105.556 296.288 106.099C298.193 106.475 299.871 107.591 300.953 109.201C302.035 110.811 302.433 112.783 302.06 114.686C301.178 119.239 297.113 121.791 292 124.936C285.651 128.855 283.837 131.522 283.837 131.522L283.87 131.456ZM283.754 131.942C283.837 131.957 283.922 131.948 284 131.916C284.077 131.883 284.144 131.83 284.191 131.761C284.191 131.761 286.055 129.126 292.223 125.323C297.228 122.236 301.557 119.56 302.48 114.793C302.858 112.78 302.425 110.699 301.275 109.003C300.124 107.308 298.35 106.134 296.337 105.737C294.137 105.254 291.836 105.631 289.906 106.791C290.73 104.543 292.074 101.423 293.633 100.731C293.717 100.696 293.788 100.635 293.834 100.556C293.88 100.477 293.899 100.386 293.888 100.295C293.879 100.203 293.841 100.117 293.778 100.048C293.716 99.98 293.633 99.9338 293.542 99.9164L286.698 98.5909C286.608 98.5724 286.515 98.583 286.432 98.6212C286.349 98.6594 286.28 98.7232 286.236 98.8033C286.191 98.8834 286.174 98.9755 286.186 99.0662C286.198 99.1569 286.239 99.2413 286.302 99.3072C287.498 100.534 287.572 103.926 287.49 106.322C286.137 104.524 284.144 103.316 281.924 102.946C279.901 102.557 277.807 102.984 276.099 104.133C274.391 105.283 273.209 107.062 272.812 109.08C271.889 113.855 274.898 117.946 278.378 122.68C282.674 128.517 283.408 131.621 283.416 131.654C283.434 131.735 283.475 131.809 283.535 131.867C283.596 131.924 283.672 131.962 283.754 131.975V131.942Z" fill="url(#paint42_linear)"/>
</g>
<g filter="url(#filter22_dd)">
<path d="M251.761 85.6415C246.327 74.0003 246.228 68.4844 246.228 68.4844C246.228 68.4844 242.278 72.3373 230.223 76.816C220.551 80.4055 212.775 83.3446 209.74 90.7294C208.471 93.8268 208.485 97.3008 209.779 100.388C211.073 103.475 213.541 105.924 216.642 107.195C221.169 109.056 226.182 108.842 229.613 106.314C227.065 110.677 223.082 117.157 219.388 117.98L230.511 122.541C228.458 119.363 230.19 111.954 231.443 107.063C232.078 111.295 235.566 114.934 240.052 116.786C241.588 117.415 243.233 117.735 244.893 117.729C246.553 117.723 248.196 117.391 249.727 116.751C251.258 116.111 252.649 115.176 253.818 114C254.988 112.824 255.914 111.429 256.543 109.895C259.578 102.527 256.114 94.9858 251.761 85.6415Z" fill="url(#paint43_linear)"/>
<path d="M246.228 68.4835C246.228 68.4835 246.327 73.9994 251.761 85.6406C256.115 94.9848 259.578 102.526 256.543 109.911C255.914 111.445 254.988 112.839 253.818 114.016C252.649 115.192 251.258 116.127 249.727 116.767C248.196 117.407 246.553 117.739 244.893 117.745C243.233 117.751 241.588 117.431 240.052 116.802C235.525 114.949 232.078 111.31 231.443 107.079C230.19 111.969 228.458 119.379 230.512 122.556L219.413 117.996C223.107 117.172 227.09 110.693 229.637 106.33C226.207 108.898 221.194 109.071 216.667 107.211C213.566 105.939 211.098 103.491 209.803 100.404C208.509 97.3163 208.496 93.8424 209.765 90.745C212.8 83.3354 220.575 80.421 230.248 76.8315C242.303 72.3529 246.253 68.4999 246.253 68.4999L246.228 68.4835ZM246.533 67.8166C246.396 67.7542 246.243 67.7357 246.096 67.7637C245.948 67.7917 245.813 67.8649 245.708 67.973C245.708 67.973 241.668 71.7848 229.951 76.14C220.443 79.6636 212.231 82.7262 209.048 90.465C207.704 93.7461 207.718 97.4254 209.088 100.696C210.458 103.966 213.071 106.561 216.354 107.91C219.904 109.475 223.922 109.62 227.576 108.314C225.416 111.829 222.093 116.654 219.215 117.287C219.061 117.322 218.922 117.404 218.818 117.522C218.713 117.641 218.65 117.789 218.636 117.946C218.622 118.103 218.659 118.26 218.741 118.395C218.823 118.53 218.945 118.635 219.091 118.695L230.223 123.256C230.366 123.309 230.521 123.317 230.669 123.279C230.817 123.241 230.949 123.158 231.047 123.042C231.149 122.921 231.208 122.771 231.217 122.614C231.226 122.457 231.184 122.301 231.097 122.17C229.506 119.7 230.528 113.937 231.468 109.919C233.144 113.406 236.095 116.12 239.714 117.502C241.346 118.171 243.094 118.512 244.859 118.506C246.623 118.499 248.369 118.145 249.996 117.464C251.623 116.782 253.099 115.787 254.34 114.535C255.581 113.282 256.563 111.798 257.228 110.166C260.411 102.411 256.717 94.4826 252.429 85.3031C247.151 73.9912 246.962 68.4917 246.962 68.4423C246.959 68.2981 246.915 68.1578 246.835 68.038C246.754 67.9183 246.641 67.8242 246.508 67.7672L246.533 67.8166Z" fill="url(#paint44_linear)"/>
</g>
<g filter="url(#filter23_dd)">
<path d="M199.771 79.616C194.552 81.5424 193.612 85.1731 193.232 85.0002C192.853 84.8273 197.034 79.9535 194.288 72.5193C193.738 70.9426 192.88 69.4912 191.762 68.2499C190.644 67.0086 189.289 66.0024 187.777 65.2901C186.265 64.5778 184.625 64.1738 182.955 64.1016C181.285 64.0294 179.617 64.2905 178.048 64.8697C176.48 65.4489 175.044 66.3345 173.822 67.4747C172.601 68.6149 171.62 69.9868 170.936 71.5102C170.252 73.0335 169.88 74.6777 169.84 76.3466C169.8 78.0155 170.094 79.6755 170.705 81.2296C173.434 88.5897 179.775 89.6847 179.602 90.0881C179.429 90.4915 176.205 88.3263 171.167 90.1869C168.041 91.3441 165.504 93.6929 164.112 96.7172C162.721 99.7414 162.589 103.194 163.746 106.315C163.749 106.331 163.749 106.348 163.746 106.364C163.746 106.364 163.746 106.364 163.746 106.405C164.027 107.169 164.389 107.9 164.826 108.587C166.355 111.043 168.688 112.897 171.428 113.834C174.168 114.772 177.149 114.736 179.866 113.733C191.896 109.287 185.844 97.0283 189.027 96.9131C190.421 102.026 193.76 115.206 192.119 119.142L202.682 115.248C198.889 113.346 192.787 101.145 190.544 96.3615C193.018 94.3033 196.316 107.69 208.47 103.195C211.188 102.191 213.474 100.281 214.944 97.7875C216.413 95.2943 216.975 92.371 216.535 89.5118C216.417 88.7081 216.215 87.919 215.933 87.1572V87.116V87.0666C215.363 85.5169 214.493 84.0945 213.372 82.881C212.251 81.6675 210.901 80.6867 209.4 79.9946C207.899 79.3025 206.275 78.9129 204.623 78.8479C202.971 78.7829 201.322 79.0439 199.771 79.616Z" fill="url(#paint45_linear)"/>
<path d="M178.135 65.1004C181.261 63.9479 184.718 64.0808 187.746 65.4699C190.774 66.859 193.127 69.3909 194.288 72.51C197.034 79.9195 192.861 84.818 193.232 84.9909H193.29C193.711 84.8345 194.791 81.4508 199.771 79.6066C202.898 78.4518 206.355 78.5836 209.384 79.973C212.413 81.3624 214.766 83.8957 215.925 87.0162V87.0656V87.1067C216.207 87.8685 216.409 88.6576 216.527 89.4613C216.967 92.3205 216.405 95.2438 214.936 97.737C213.466 100.23 211.18 102.14 208.462 103.144C196.762 107.466 193.298 95.2325 190.825 96.1463C190.72 96.1853 190.623 96.2409 190.536 96.311C192.804 101.094 198.881 113.295 202.674 115.197L192.111 119.091C193.76 115.189 190.412 102.008 189.019 96.8626C188.914 96.8593 188.81 96.879 188.714 96.9202C186.24 97.8258 191.468 109.393 179.858 113.682C177.141 114.685 174.16 114.721 171.42 113.784C168.68 112.846 166.347 110.993 164.818 108.537C164.381 107.85 164.019 107.118 163.737 106.355C163.737 106.355 163.737 106.355 163.737 106.314C163.741 106.298 163.741 106.281 163.737 106.264C162.581 103.143 162.713 99.6909 164.104 96.6667C165.496 93.6424 168.033 91.2936 171.159 90.1364C175.958 88.3663 179.099 90.2434 179.545 90.0788C179.561 90.0838 179.578 90.0838 179.594 90.0788C179.775 89.6754 173.426 88.5804 170.697 81.2203C169.54 78.0989 169.672 74.6468 171.064 71.6225C172.455 68.5983 174.993 66.2494 178.118 65.0922L178.135 65.1004ZM177.854 64.3924C174.543 65.6202 171.854 68.1089 170.378 71.3128C168.902 74.5167 168.759 78.1744 169.979 81.4837C171.019 84.3973 172.948 86.9114 175.496 88.671C173.921 88.6498 172.356 88.9293 170.886 89.4942C167.574 90.7202 164.884 93.2087 163.407 96.4132C161.931 99.6177 161.789 103.276 163.012 106.586C163.008 106.602 163.008 106.619 163.012 106.635C163.309 107.444 163.69 108.219 164.15 108.948C165.777 111.547 168.25 113.507 171.154 114.5C174.059 115.492 177.216 115.456 180.097 114.398C188.524 111.286 188.59 104.519 188.631 100.403C188.631 99.9087 188.631 99.2007 188.689 98.6162C191.402 108.874 192.408 116.35 191.394 118.762C191.334 118.898 191.316 119.049 191.342 119.196C191.369 119.343 191.438 119.478 191.542 119.585C191.645 119.695 191.779 119.772 191.925 119.805C192.072 119.839 192.226 119.828 192.367 119.774L202.921 115.872C203.059 115.822 203.179 115.732 203.266 115.614C203.353 115.496 203.404 115.355 203.412 115.209C203.42 115.063 203.385 114.917 203.311 114.791C203.237 114.664 203.127 114.562 202.995 114.497C200.645 113.32 196.531 106.972 191.897 97.3977C192.309 97.8094 192.779 98.3527 193.101 98.7314C195.764 101.811 200.208 106.964 208.718 103.819C211.595 102.752 214.015 100.728 215.571 98.0869C217.127 95.446 217.724 92.3502 217.261 89.3213C217.137 88.4771 216.921 87.6489 216.617 86.8515V86.8021V86.7527C215.86 84.759 214.636 82.9747 213.048 81.5484C211.46 80.122 209.555 79.0947 207.489 78.552C205.424 78.0092 203.258 77.9667 201.173 78.428C199.088 78.8892 197.143 79.8409 195.5 81.2038C196.271 78.2546 196.092 75.138 194.989 72.2959C193.761 68.9885 191.269 66.3028 188.059 64.8287C184.849 63.3545 181.185 63.2124 177.871 64.4336L177.854 64.3924Z" fill="url(#paint46_linear)"/>
</g>
<defs>
<filter id="filter0_dd" x="154.453" y="64.7168" width="106.04" height="114.337" filterUnits="userSpaceOnUse" color-interpolation-filters="sRGB">
<feFlood flood-opacity="0" result="BackgroundImageFix"/>
<feColorMatrix in="SourceAlpha" type="matrix" values="0 0 0 0 0 0 0 0 0 0 0 0 0 0 0 0 0 0 127 0"/>
<feOffset dx="12" dy="12"/>
<feGaussianBlur stdDeviation="12"/>
<feColorMatrix type="matrix" values="0 0 0 0 0.0866667 0 0 0 0 0.0933333 0 0 0 0 0.108333 0 0 0 0.5 0"/>
<feBlend mode="normal" in2="BackgroundImageFix" result="effect1_dropShadow"/>
<feColorMatrix in="SourceAlpha" type="matrix" values="0 0 0 0 0 0 0 0 0 0 0 0 0 0 0 0 0 0 127 0"/>
<feOffset dx="-12" dy="-12"/>
<feGaussianBlur stdDeviation="12"/>
<feColorMatrix type="matrix" values="0 0 0 0 0.204392 0 0 0 0 0.217967 0 0 0 0 0.254167 0 0 0 0.5 0"/>
<feBlend mode="normal" in2="effect1_dropShadow" result="effect2_dropShadow"/>
<feBlend mode="normal" in="SourceGraphic" in2="effect2_dropShadow" result="shape"/>
</filter>
<filter id="filter1_dd" x="208.443" y="77.2852" width="93.3013" height="98.5381" filterUnits="userSpaceOnUse" color-interpolation-filters="sRGB">
<feFlood flood-opacity="0" result="BackgroundImageFix"/>
<feColorMatrix in="SourceAlpha" type="matrix" values="0 0 0 0 0 0 0 0 0 0 0 0 0 0 0 0 0 0 127 0"/>
<feOffset dx="12" dy="12"/>
<feGaussianBlur stdDeviation="12"/>
<feColorMatrix type="matrix" values="0 0 0 0 0.0866667 0 0 0 0 0.0933333 0 0 0 0 0.108333 0 0 0 0.5 0"/>
<feBlend mode="normal" in2="BackgroundImageFix" result="effect1_dropShadow"/>
<feColorMatrix in="SourceAlpha" type="matrix" values="0 0 0 0 0 0 0 0 0 0 0 0 0 0 0 0 0 0 127 0"/>
<feOffset dx="-12" dy="-12"/>
<feGaussianBlur stdDeviation="12"/>
<feColorMatrix type="matrix" values="0 0 0 0 0.204392 0 0 0 0 0.217967 0 0 0 0 0.254167 0 0 0 0.5 0"/>
<feBlend mode="normal" in2="effect1_dropShadow" result="effect2_dropShadow"/>
<feBlend mode="normal" in="SourceGraphic" in2="effect2_dropShadow" result="shape"/>
</filter>
<filter id="filter2_dd" x="123.627" y="79.2979" width="91.5995" height="96.3318" filterUnits="userSpaceOnUse" color-interpolation-filters="sRGB">
<feFlood flood-opacity="0" result="BackgroundImageFix"/>
<feColorMatrix in="SourceAlpha" type="matrix" values="0 0 0 0 0 0 0 0 0 0 0 0 0 0 0 0 0 0 127 0"/>
<feOffset dx="12" dy="12"/>
<feGaussianBlur stdDeviation="12"/>
<feColorMatrix type="matrix" values="0 0 0 0 0.0866667 0 0 0 0 0.0933333 0 0 0 0 0.108333 0 0 0 0.5 0"/>
<feBlend mode="normal" in2="BackgroundImageFix" result="effect1_dropShadow"/>
<feColorMatrix in="SourceAlpha" type="matrix" values="0 0 0 0 0 0 0 0 0 0 0 0 0 0 0 0 0 0 127 0"/>
<feOffset dx="-12" dy="-12"/>
<feGaussianBlur stdDeviation="12"/>
<feColorMatrix type="matrix" values="0 0 0 0 0.204392 0 0 0 0 0.217967 0 0 0 0 0.254167 0 0 0 0.5 0"/>
<feBlend mode="normal" in2="effect1_dropShadow" result="effect2_dropShadow"/>
<feBlend mode="normal" in="SourceGraphic" in2="effect2_dropShadow" result="shape"/>
</filter>
<filter id="filter3_dd" x="300.615" y="40.9209" width="107.375" height="100.372" filterUnits="userSpaceOnUse" color-interpolation-filters="sRGB">
<feFlood flood-opacity="0" result="BackgroundImageFix"/>
<feColorMatrix in="SourceAlpha" type="matrix" values="0 0 0 0 0 0 0 0 0 0 0 0 0 0 0 0 0 0 127 0"/>
<feOffset dx="12" dy="12"/>
<feGaussianBlur stdDeviation="12"/>
<feColorMatrix type="matrix" values="0 0 0 0 0.0866667 0 0 0 0 0.0933333 0 0 0 0 0.108333 0 0 0 0.5 0"/>
<feBlend mode="normal" in2="BackgroundImageFix" result="effect1_dropShadow"/>
<feColorMatrix in="SourceAlpha" type="matrix" values="0 0 0 0 0 0 0 0 0 0 0 0 0 0 0 0 0 0 127 0"/>
<feOffset dx="-12" dy="-12"/>
<feGaussianBlur stdDeviation="12"/>
<feColorMatrix type="matrix" values="0 0 0 0 0.204392 0 0 0 0 0.217967 0 0 0 0 0.254167 0 0 0 0.5 0"/>
<feBlend mode="normal" in2="effect1_dropShadow" result="effect2_dropShadow"/>
<feBlend mode="normal" in="SourceGraphic" in2="effect2_dropShadow" result="shape"/>
</filter>
<filter id="filter4_dd" x="153.235" y="17.6768" width="100.195" height="107.09" filterUnits="userSpaceOnUse" color-interpolation-filters="sRGB">
<feFlood flood-opacity="0" result="BackgroundImageFix"/>
<feColorMatrix in="SourceAlpha" type="matrix" values="0 0 0 0 0 0 0 0 0 0 0 0 0 0 0 0 0 0 127 0"/>
<feOffset dx="12" dy="12"/>
<feGaussianBlur stdDeviation="12"/>
<feColorMatrix type="matrix" values="0 0 0 0 0.0866667 0 0 0 0 0.0933333 0 0 0 0 0.108333 0 0 0 0.5 0"/>
<feBlend mode="normal" in2="BackgroundImageFix" result="effect1_dropShadow"/>
<feColorMatrix in="SourceAlpha" type="matrix" values="0 0 0 0 0 0 0 0 0 0 0 0 0 0 0 0 0 0 127 0"/>
<feOffset dx="-12" dy="-12"/>
<feGaussianBlur stdDeviation="12"/>
<feColorMatrix type="matrix" values="0 0 0 0 0.204392 0 0 0 0 0.217967 0 0 0 0 0.254167 0 0 0 0.5 0"/>
<feBlend mode="normal" in2="effect1_dropShadow" result="effect2_dropShadow"/>
<feBlend mode="normal" in="SourceGraphic" in2="effect2_dropShadow" result="shape"/>
</filter>
<filter id="filter5_dd" x="73.9388" y="56.333" width="123.47" height="136.053" filterUnits="userSpaceOnUse" color-interpolation-filters="sRGB">
<feFlood flood-opacity="0" result="BackgroundImageFix"/>
<feColorMatrix in="SourceAlpha" type="matrix" values="0 0 0 0 0 0 0 0 0 0 0 0 0 0 0 0 0 0 127 0"/>
<feOffset dx="12" dy="12"/>
<feGaussianBlur stdDeviation="12"/>
<feColorMatrix type="matrix" values="0 0 0 0 0.0866667 0 0 0 0 0.0933333 0 0 0 0 0.108333 0 0 0 0.5 0"/>
<feBlend mode="normal" in2="BackgroundImageFix" result="effect1_dropShadow"/>
<feColorMatrix in="SourceAlpha" type="matrix" values="0 0 0 0 0 0 0 0 0 0 0 0 0 0 0 0 0 0 127 0"/>
<feOffset dx="-12" dy="-12"/>
<feGaussianBlur stdDeviation="12"/>
<feColorMatrix type="matrix" values="0 0 0 0 0.204392 0 0 0 0 0.217967 0 0 0 0 0.254167 0 0 0 0.5 0"/>
<feBlend mode="normal" in2="effect1_dropShadow" result="effect2_dropShadow"/>
<feBlend mode="normal" in="SourceGraphic" in2="effect2_dropShadow" result="shape"/>
</filter>
<filter id="filter6_dd" x="181.608" y="0" width="127.973" height="129.163" filterUnits="userSpaceOnUse" color-interpolation-filters="sRGB">
<feFlood flood-opacity="0" result="BackgroundImageFix"/>
<feColorMatrix in="SourceAlpha" type="matrix" values="0 0 0 0 0 0 0 0 0 0 0 0 0 0 0 0 0 0 127 0"/>
<feOffset dx="12" dy="12"/>
<feGaussianBlur stdDeviation="12"/>
<feColorMatrix type="matrix" values="0 0 0 0 0.0866667 0 0 0 0 0.0933333 0 0 0 0 0.108333 0 0 0 0.5 0"/>
<feBlend mode="normal" in2="BackgroundImageFix" result="effect1_dropShadow"/>
<feColorMatrix in="SourceAlpha" type="matrix" values="0 0 0 0 0 0 0 0 0 0 0 0 0 0 0 0 0 0 127 0"/>
<feOffset dx="-12" dy="-12"/>
<feGaussianBlur stdDeviation="12"/>
<feColorMatrix type="matrix" values="0 0 0 0 0.204392 0 0 0 0 0.217967 0 0 0 0 0.254167 0 0 0 0.5 0"/>
<feBlend mode="normal" in2="effect1_dropShadow" result="effect2_dropShadow"/>
<feBlend mode="normal" in="SourceGraphic" in2="effect2_dropShadow" result="shape"/>
</filter>
<filter id="filter7_dd" x="314.23" y="4.79492" width="110.899" height="111.081" filterUnits="userSpaceOnUse" color-interpolation-filters="sRGB">
<feFlood flood-opacity="0" result="BackgroundImageFix"/>
<feColorMatrix in="SourceAlpha" type="matrix" values="0 0 0 0 0 0 0 0 0 0 0 0 0 0 0 0 0 0 127 0"/>
<feOffset dx="12" dy="12"/>
<feGaussianBlur stdDeviation="12"/>
<feColorMatrix type="matrix" values="0 0 0 0 0.0866667 0 0 0 0 0.0933333 0 0 0 0 0.108333 0 0 0 0.5 0"/>
<feBlend mode="normal" in2="BackgroundImageFix" result="effect1_dropShadow"/>
<feColorMatrix in="SourceAlpha" type="matrix" values="0 0 0 0 0 0 0 0 0 0 0 0 0 0 0 0 0 0 127 0"/>
<feOffset dx="-12" dy="-12"/>
<feGaussianBlur stdDeviation="12"/>
<feColorMatrix type="matrix" values="0 0 0 0 0.204392 0 0 0 0 0.217967 0 0 0 0 0.254167 0 0 0 0.5 0"/>
<feBlend mode="normal" in2="effect1_dropShadow" result="effect2_dropShadow"/>
<feBlend mode="normal" in="SourceGraphic" in2="effect2_dropShadow" result="shape"/>
</filter>
<filter id="filter8_dd" x="254.781" y="2.17578" width="145.965" height="147.409" filterUnits="userSpaceOnUse" color-interpolation-filters="sRGB">
<feFlood flood-opacity="0" result="BackgroundImageFix"/>
<feColorMatrix in="SourceAlpha" type="matrix" values="0 0 0 0 0 0 0 0 0 0 0 0 0 0 0 0 0 0 127 0"/>
<feOffset dx="12" dy="12"/>
<feGaussianBlur stdDeviation="12"/>
<feColorMatrix type="matrix" values="0 0 0 0 0.0866667 0 0 0 0 0.0933333 0 0 0 0 0.108333 0 0 0 0.5 0"/>
<feBlend mode="normal" in2="BackgroundImageFix" result="effect1_dropShadow"/>
<feColorMatrix in="SourceAlpha" type="matrix" values="0 0 0 0 0 0 0 0 0 0 0 0 0 0 0 0 0 0 127 0"/>
<feOffset dx="-12" dy="-12"/>
<feGaussianBlur stdDeviation="12"/>
<feColorMatrix type="matrix" values="0 0 0 0 0.204392 0 0 0 0 0.217967 0 0 0 0 0.254167 0 0 0 0.5 0"/>
<feBlend mode="normal" in2="effect1_dropShadow" result="effect2_dropShadow"/>
<feBlend mode="normal" in="SourceGraphic" in2="effect2_dropShadow" result="shape"/>
</filter>
<filter id="filter9_dd" x="23.3135" y="76.8896" width="94.813" height="94.156" filterUnits="userSpaceOnUse" color-interpolation-filters="sRGB">
<feFlood flood-opacity="0" result="BackgroundImageFix"/>
<feColorMatrix in="SourceAlpha" type="matrix" values="0 0 0 0 0 0 0 0 0 0 0 0 0 0 0 0 0 0 127 0"/>
<feOffset dx="12" dy="12"/>
<feGaussianBlur stdDeviation="12"/>
<feColorMatrix type="matrix" values="0 0 0 0 0.0866667 0 0 0 0 0.0933333 0 0 0 0 0.108333 0 0 0 0.5 0"/>
<feBlend mode="normal" in2="BackgroundImageFix" result="effect1_dropShadow"/>
<feColorMatrix in="SourceAlpha" type="matrix" values="0 0 0 0 0 0 0 0 0 0 0 0 0 0 0 0 0 0 127 0"/>
<feOffset dx="-12" dy="-12"/>
<feGaussianBlur stdDeviation="12"/>
<feColorMatrix type="matrix" values="0 0 0 0 0.204392 0 0 0 0 0.217967 0 0 0 0 0.254167 0 0 0 0.5 0"/>
<feBlend mode="normal" in2="effect1_dropShadow" result="effect2_dropShadow"/>
<feBlend mode="normal" in="SourceGraphic" in2="effect2_dropShadow" result="shape"/>
</filter>
<filter id="filter10_dd" x="0" y="37.9424" width="108.719" height="109.069" filterUnits="userSpaceOnUse" color-interpolation-filters="sRGB">
<feFlood flood-opacity="0" result="BackgroundImageFix"/>
<feColorMatrix in="SourceAlpha" type="matrix" values="0 0 0 0 0 0 0 0 0 0 0 0 0 0 0 0 0 0 127 0"/>
<feOffset dx="12" dy="12"/>
<feGaussianBlur stdDeviation="12"/>
<feColorMatrix type="matrix" values="0 0 0 0 0.0866667 0 0 0 0 0.0933333 0 0 0 0 0.108333 0 0 0 0.5 0"/>
<feBlend mode="normal" in2="BackgroundImageFix" result="effect1_dropShadow"/>
<feColorMatrix in="SourceAlpha" type="matrix" values="0 0 0 0 0 0 0 0 0 0 0 0 0 0 0 0 0 0 127 0"/>
<feOffset dx="-12" dy="-12"/>
<feGaussianBlur stdDeviation="12"/>
<feColorMatrix type="matrix" values="0 0 0 0 0.204392 0 0 0 0 0.217967 0 0 0 0 0.254167 0 0 0 0.5 0"/>
<feBlend mode="normal" in2="effect1_dropShadow" result="effect2_dropShadow"/>
<feBlend mode="normal" in="SourceGraphic" in2="effect2_dropShadow" result="shape"/>
</filter>
<filter id="filter11_dd" x="266.786" y="58.9424" width="122.017" height="121.6" filterUnits="userSpaceOnUse" color-interpolation-filters="sRGB">
<feFlood flood-opacity="0" result="BackgroundImageFix"/>
<feColorMatrix in="SourceAlpha" type="matrix" values="0 0 0 0 0 0 0 0 0 0 0 0 0 0 0 0 0 0 127 0"/>
<feOffset dx="12" dy="12"/>
<feGaussianBlur stdDeviation="12"/>
<feColorMatrix type="matrix" values="0 0 0 0 0.0866667 0 0 0 0 0.0933333 0 0 0 0 0.108333 0 0 0 0.5 0"/>
<feBlend mode="normal" in2="BackgroundImageFix" result="effect1_dropShadow"/>
<feColorMatrix in="SourceAlpha" type="matrix" values="0 0 0 0 0 0 0 0 0 0 0 0 0 0 0 0 0 0 127 0"/>
<feOffset dx="-12" dy="-12"/>
<feGaussianBlur stdDeviation="12"/>
<feColorMatrix type="matrix" values="0 0 0 0 0.204392 0 0 0 0 0.217967 0 0 0 0 0.254167 0 0 0 0.5 0"/>
<feBlend mode="normal" in2="effect1_dropShadow" result="effect2_dropShadow"/>
<feBlend mode="normal" in="SourceGraphic" in2="effect2_dropShadow" result="shape"/>
</filter>
<filter id="filter12_dd" x="31.2281" y="10.7119" width="122.375" height="121.747" filterUnits="userSpaceOnUse" color-interpolation-filters="sRGB">
<feFlood flood-opacity="0" result="BackgroundImageFix"/>
<feColorMatrix in="SourceAlpha" type="matrix" values="0 0 0 0 0 0 0 0 0 0 0 0 0 0 0 0 0 0 127 0"/>
<feOffset dx="12" dy="12"/>
<feGaussianBlur stdDeviation="12"/>
<feColorMatrix type="matrix" values="0 0 0 0 0.0866667 0 0 0 0 0.0933333 0 0 0 0 0.108333 0 0 0 0.5 0"/>
<feBlend mode="normal" in2="BackgroundImageFix" result="effect1_dropShadow"/>
<feColorMatrix in="SourceAlpha" type="matrix" values="0 0 0 0 0 0 0 0 0 0 0 0 0 0 0 0 0 0 127 0"/>
<feOffset dx="-12" dy="-12"/>
<feGaussianBlur stdDeviation="12"/>
<feColorMatrix type="matrix" values="0 0 0 0 0.204392 0 0 0 0 0.217967 0 0 0 0 0.254167 0 0 0 0.5 0"/>
<feBlend mode="normal" in2="effect1_dropShadow" result="effect2_dropShadow"/>
<feBlend mode="normal" in="SourceGraphic" in2="effect2_dropShadow" result="shape"/>
</filter>
<filter id="filter13_dd" x="7.05542" y="5.44238" width="103.967" height="103.198" filterUnits="userSpaceOnUse" color-interpolation-filters="sRGB">
<feFlood flood-opacity="0" result="BackgroundImageFix"/>
<feColorMatrix in="SourceAlpha" type="matrix" values="0 0 0 0 0 0 0 0 0 0 0 0 0 0 0 0 0 0 127 0"/>
<feOffset dx="12" dy="12"/>
<feGaussianBlur stdDeviation="12"/>
<feColorMatrix type="matrix" values="0 0 0 0 0.0866667 0 0 0 0 0.0933333 0 0 0 0 0.108333 0 0 0 0.5 0"/>
<feBlend mode="normal" in2="BackgroundImageFix" result="effect1_dropShadow"/>
<feColorMatrix in="SourceAlpha" type="matrix" values="0 0 0 0 0 0 0 0 0 0 0 0 0 0 0 0 0 0 127 0"/>
<feOffset dx="-12" dy="-12"/>
<feGaussianBlur stdDeviation="12"/>
<feColorMatrix type="matrix" values="0 0 0 0 0.204392 0 0 0 0 0.217967 0 0 0 0 0.254167 0 0 0 0.5 0"/>
<feBlend mode="normal" in2="effect1_dropShadow" result="effect2_dropShadow"/>
<feBlend mode="normal" in="SourceGraphic" in2="effect2_dropShadow" result="shape"/>
</filter>
<filter id="filter14_dd" x="46.5015" y="51.7334" width="120.995" height="120.346" filterUnits="userSpaceOnUse" color-interpolation-filters="sRGB">
<feFlood flood-opacity="0" result="BackgroundImageFix"/>
<feColorMatrix in="SourceAlpha" type="matrix" values="0 0 0 0 0 0 0 0 0 0 0 0 0 0 0 0 0 0 127 0"/>
<feOffset dx="12" dy="12"/>
<feGaussianBlur stdDeviation="12"/>
<feColorMatrix type="matrix" values="0 0 0 0 0.0866667 0 0 0 0 0.0933333 0 0 0 0 0.108333 0 0 0 0.5 0"/>
<feBlend mode="normal" in2="BackgroundImageFix" result="effect1_dropShadow"/>
<feColorMatrix in="SourceAlpha" type="matrix" values="0 0 0 0 0 0 0 0 0 0 0 0 0 0 0 0 0 0 127 0"/>
<feOffset dx="-12" dy="-12"/>
<feGaussianBlur stdDeviation="12"/>
<feColorMatrix type="matrix" values="0 0 0 0 0.204392 0 0 0 0 0.217967 0 0 0 0 0.254167 0 0 0 0.5 0"/>
<feBlend mode="normal" in2="effect1_dropShadow" result="effect2_dropShadow"/>
<feBlend mode="normal" in="SourceGraphic" in2="effect2_dropShadow" result="shape"/>
</filter>
<filter id="filter15_dd" x="233.444" y="4.75977" width="124.591" height="123.842" filterUnits="userSpaceOnUse" color-interpolation-filters="sRGB">
<feFlood flood-opacity="0" result="BackgroundImageFix"/>
<feColorMatrix in="SourceAlpha" type="matrix" values="0 0 0 0 0 0 0 0 0 0 0 0 0 0 0 0 0 0 127 0"/>
<feOffset dx="12" dy="12"/>
<feGaussianBlur stdDeviation="12"/>
<feColorMatrix type="matrix" values="0 0 0 0 0.0866667 0 0 0 0 0.0933333 0 0 0 0 0.108333 0 0 0 0.5 0"/>
<feBlend mode="normal" in2="BackgroundImageFix" result="effect1_dropShadow"/>
<feColorMatrix in="SourceAlpha" type="matrix" values="0 0 0 0 0 0 0 0 0 0 0 0 0 0 0 0 0 0 127 0"/>
<feOffset dx="-12" dy="-12"/>
<feGaussianBlur stdDeviation="12"/>
<feColorMatrix type="matrix" values="0 0 0 0 0.204392 0 0 0 0 0.217967 0 0 0 0 0.254167 0 0 0 0.5 0"/>
<feBlend mode="normal" in2="effect1_dropShadow" result="effect2_dropShadow"/>
<feBlend mode="normal" in="SourceGraphic" in2="effect2_dropShadow" result="shape"/>
</filter>
<filter id="filter16_dd" x="336.997" y="46.5156" width="95.0032" height="94.6984" filterUnits="userSpaceOnUse" color-interpolation-filters="sRGB">
<feFlood flood-opacity="0" result="BackgroundImageFix"/>
<feColorMatrix in="SourceAlpha" type="matrix" values="0 0 0 0 0 0 0 0 0 0 0 0 0 0 0 0 0 0 127 0"/>
<feOffset dx="12" dy="12"/>
<feGaussianBlur stdDeviation="12"/>
<feColorMatrix type="matrix" values="0 0 0 0 0.0866667 0 0 0 0 0.0933333 0 0 0 0 0.108333 0 0 0 0.5 0"/>
<feBlend mode="normal" in2="BackgroundImageFix" result="effect1_dropShadow"/>
<feColorMatrix in="SourceAlpha" type="matrix" values="0 0 0 0 0 0 0 0 0 0 0 0 0 0 0 0 0 0 127 0"/>
<feOffset dx="-12" dy="-12"/>
<feGaussianBlur stdDeviation="12"/>
<feColorMatrix type="matrix" values="0 0 0 0 0.204392 0 0 0 0 0.217967 0 0 0 0 0.254167 0 0 0 0.5 0"/>
<feBlend mode="normal" in2="effect1_dropShadow" result="effect2_dropShadow"/>
<feBlend mode="normal" in="SourceGraphic" in2="effect2_dropShadow" result="shape"/>
</filter>
<filter id="filter17_dd" x="101.184" y="56.9639" width="100.237" height="102.65" filterUnits="userSpaceOnUse" color-interpolation-filters="sRGB">
<feFlood flood-opacity="0" result="BackgroundImageFix"/>
<feColorMatrix in="SourceAlpha" type="matrix" values="0 0 0 0 0 0 0 0 0 0 0 0 0 0 0 0 0 0 127 0"/>
<feOffset dx="12" dy="12"/>
<feGaussianBlur stdDeviation="12"/>
<feColorMatrix type="matrix" values="0 0 0 0 0.0866667 0 0 0 0 0.0933333 0 0 0 0 0.108333 0 0 0 0.5 0"/>
<feBlend mode="normal" in2="BackgroundImageFix" result="effect1_dropShadow"/>
<feColorMatrix in="SourceAlpha" type="matrix" values="0 0 0 0 0 0 0 0 0 0 0 0 0 0 0 0 0 0 127 0"/>
<feOffset dx="-12" dy="-12"/>
<feGaussianBlur stdDeviation="12"/>
<feColorMatrix type="matrix" values="0 0 0 0 0.204392 0 0 0 0 0.217967 0 0 0 0 0.254167 0 0 0 0.5 0"/>
<feBlend mode="normal" in2="effect1_dropShadow" result="effect2_dropShadow"/>
<feBlend mode="normal" in="SourceGraphic" in2="effect2_dropShadow" result="shape"/>
</filter>
<filter id="filter18_dd" x="312.326" y="79.3711" width="105.043" height="107.268" filterUnits="userSpaceOnUse" color-interpolation-filters="sRGB">
<feFlood flood-opacity="0" result="BackgroundImageFix"/>
<feColorMatrix in="SourceAlpha" type="matrix" values="0 0 0 0 0 0 0 0 0 0 0 0 0 0 0 0 0 0 127 0"/>
<feOffset dx="12" dy="12"/>
<feGaussianBlur stdDeviation="12"/>
<feColorMatrix type="matrix" values="0 0 0 0 0.0866667 0 0 0 0 0.0933333 0 0 0 0 0.108333 0 0 0 0.5 0"/>
<feBlend mode="normal" in2="BackgroundImageFix" result="effect1_dropShadow"/>
<feColorMatrix in="SourceAlpha" type="matrix" values="0 0 0 0 0 0 0 0 0 0 0 0 0 0 0 0 0 0 127 0"/>
<feOffset dx="-12" dy="-12"/>
<feGaussianBlur stdDeviation="12"/>
<feColorMatrix type="matrix" values="0 0 0 0 0.204392 0 0 0 0 0.217967 0 0 0 0 0.254167 0 0 0 0.5 0"/>
<feBlend mode="normal" in2="effect1_dropShadow" result="effect2_dropShadow"/>
<feBlend mode="normal" in="SourceGraphic" in2="effect2_dropShadow" result="shape"/>
</filter>
<filter id="filter19_dd" x="62.9539" y="8.97266" width="101.654" height="104.938" filterUnits="userSpaceOnUse" color-interpolation-filters="sRGB">
<feFlood flood-opacity="0" result="BackgroundImageFix"/>
<feColorMatrix in="SourceAlpha" type="matrix" values="0 0 0 0 0 0 0 0 0 0 0 0 0 0 0 0 0 0 127 0"/>
<feOffset dx="12" dy="12"/>
<feGaussianBlur stdDeviation="12"/>
<feColorMatrix type="matrix" values="0 0 0 0 0.0866667 0 0 0 0 0.0933333 0 0 0 0 0.108333 0 0 0 0.5 0"/>
<feBlend mode="normal" in2="BackgroundImageFix" result="effect1_dropShadow"/>
<feColorMatrix in="SourceAlpha" type="matrix" values="0 0 0 0 0 0 0 0 0 0 0 0 0 0 0 0 0 0 127 0"/>
<feOffset dx="-12" dy="-12"/>
<feGaussianBlur stdDeviation="12"/>
<feColorMatrix type="matrix" values="0 0 0 0 0.204392 0 0 0 0 0.217967 0 0 0 0 0.254167 0 0 0 0.5 0"/>
<feBlend mode="normal" in2="effect1_dropShadow" result="effect2_dropShadow"/>
<feBlend mode="normal" in="SourceGraphic" in2="effect2_dropShadow" result="shape"/>
</filter>
<filter id="filter20_dd" x="100.559" y="11.208" width="112.822" height="117.517" filterUnits="userSpaceOnUse" color-interpolation-filters="sRGB">
<feFlood flood-opacity="0" result="BackgroundImageFix"/>
<feColorMatrix in="SourceAlpha" type="matrix" values="0 0 0 0 0 0 0 0 0 0 0 0 0 0 0 0 0 0 127 0"/>
<feOffset dx="12" dy="12"/>
<feGaussianBlur stdDeviation="12"/>
<feColorMatrix type="matrix" values="0 0 0 0 0.0866667 0 0 0 0 0.0933333 0 0 0 0 0.108333 0 0 0 0.5 0"/>
<feBlend mode="normal" in2="BackgroundImageFix" result="effect1_dropShadow"/>
<feColorMatrix in="SourceAlpha" type="matrix" values="0 0 0 0 0 0 0 0 0 0 0 0 0 0 0 0 0 0 127 0"/>
<feOffset dx="-12" dy="-12"/>
<feGaussianBlur stdDeviation="12"/>
<feColorMatrix type="matrix" values="0 0 0 0 0.204392 0 0 0 0 0.217967 0 0 0 0 0.254167 0 0 0 0.5 0"/>
<feBlend mode="normal" in2="effect1_dropShadow" result="effect2_dropShadow"/>
<feBlend mode="normal" in="SourceGraphic" in2="effect2_dropShadow" result="shape"/>
</filter>
<filter id="filter21_dd" x="236.644" y="62.582" width="101.97" height="105.393" filterUnits="userSpaceOnUse" color-interpolation-filters="sRGB">
<feFlood flood-opacity="0" result="BackgroundImageFix"/>
<feColorMatrix in="SourceAlpha" type="matrix" values="0 0 0 0 0 0 0 0 0 0 0 0 0 0 0 0 0 0 127 0"/>
<feOffset dx="12" dy="12"/>
<feGaussianBlur stdDeviation="12"/>
<feColorMatrix type="matrix" values="0 0 0 0 0.0866667 0 0 0 0 0.0933333 0 0 0 0 0.108333 0 0 0 0.5 0"/>
<feBlend mode="normal" in2="BackgroundImageFix" result="effect1_dropShadow"/>
<feColorMatrix in="SourceAlpha" type="matrix" values="0 0 0 0 0 0 0 0 0 0 0 0 0 0 0 0 0 0 127 0"/>
<feOffset dx="-12" dy="-12"/>
<feGaussianBlur stdDeviation="12"/>
<feColorMatrix type="matrix" values="0 0 0 0 0.204392 0 0 0 0 0.217967 0 0 0 0 0.254167 0 0 0 0.5 0"/>
<feBlend mode="normal" in2="effect1_dropShadow" result="effect2_dropShadow"/>
<feBlend mode="normal" in="SourceGraphic" in2="effect2_dropShadow" result="shape"/>
</filter>
<filter id="filter22_dd" x="172.05" y="31.751" width="122.376" height="127.552" filterUnits="userSpaceOnUse" color-interpolation-filters="sRGB">
<feFlood flood-opacity="0" result="BackgroundImageFix"/>
<feColorMatrix in="SourceAlpha" type="matrix" values="0 0 0 0 0 0 0 0 0 0 0 0 0 0 0 0 0 0 127 0"/>
<feOffset dx="12" dy="12"/>
<feGaussianBlur stdDeviation="12"/>
<feColorMatrix type="matrix" values="0 0 0 0 0.0866667 0 0 0 0 0.0933333 0 0 0 0 0.108333 0 0 0 0.5 0"/>
<feBlend mode="normal" in2="BackgroundImageFix" result="effect1_dropShadow"/>
<feColorMatrix in="SourceAlpha" type="matrix" values="0 0 0 0 0 0 0 0 0 0 0 0 0 0 0 0 0 0 127 0"/>
<feOffset dx="-12" dy="-12"/>
<feGaussianBlur stdDeviation="12"/>
<feColorMatrix type="matrix" values="0 0 0 0 0.204392 0 0 0 0 0.217967 0 0 0 0 0.254167 0 0 0 0.5 0"/>
<feBlend mode="normal" in2="effect1_dropShadow" result="effect2_dropShadow"/>
<feBlend mode="normal" in="SourceGraphic" in2="effect2_dropShadow" result="shape"/>
</filter>
<filter id="filter23_dd" x="126.187" y="27.6104" width="127.226" height="128.214" filterUnits="userSpaceOnUse" color-interpolation-filters="sRGB">
<feFlood flood-opacity="0" result="BackgroundImageFix"/>
<feColorMatrix in="SourceAlpha" type="matrix" values="0 0 0 0 0 0 0 0 0 0 0 0 0 0 0 0 0 0 127 0"/>
<feOffset dx="12" dy="12"/>
<feGaussianBlur stdDeviation="12"/>
<feColorMatrix type="matrix" values="0 0 0 0 0.0866667 0 0 0 0 0.0933333 0 0 0 0 0.108333 0 0 0 0.5 0"/>
<feBlend mode="normal" in2="BackgroundImageFix" result="effect1_dropShadow"/>
<feColorMatrix in="SourceAlpha" type="matrix" values="0 0 0 0 0 0 0 0 0 0 0 0 0 0 0 0 0 0 127 0"/>
<feOffset dx="-12" dy="-12"/>
<feGaussianBlur stdDeviation="12"/>
<feColorMatrix type="matrix" values="0 0 0 0 0.204392 0 0 0 0 0.217967 0 0 0 0 0.254167 0 0 0 0.5 0"/>
<feBlend mode="normal" in2="effect1_dropShadow" result="effect2_dropShadow"/>
<feBlend mode="normal" in="SourceGraphic" in2="effect2_dropShadow" result="shape"/>
</filter>
<linearGradient id="paint0_linear" x1="191.014" y1="101.273" x2="225.613" y2="102.745" gradientUnits="userSpaceOnUse">
<stop stop-color="#F06021"/>
<stop offset="1" stop-color="#AA4D28"/>
</linearGradient>
<linearGradient id="paint1_linear" x1="190.453" y1="100.717" x2="226.24" y2="102.249" gradientUnits="userSpaceOnUse">
<stop stop-color="#3B3E46"/>
<stop offset="1" stop-color="#222328"/>
</linearGradient>
<linearGradient id="paint2_linear" x1="244.766" y1="113.606" x2="266.509" y2="114.531" gradientUnits="userSpaceOnUse">
<stop stop-color="#F06021"/>
<stop offset="1" stop-color="#AA4D28"/>
</linearGradient>
<linearGradient id="paint3_linear" x1="244.443" y1="113.285" x2="266.838" y2="114.242" gradientUnits="userSpaceOnUse">
<stop stop-color="#3B3E46"/>
<stop offset="1" stop-color="#222328"/>
</linearGradient>
<linearGradient id="paint4_linear" x1="159.994" y1="115.649" x2="179.855" y2="116.494" gradientUnits="userSpaceOnUse">
<stop stop-color="#F06021"/>
<stop offset="1" stop-color="#AA4D28"/>
</linearGradient>
<linearGradient id="paint5_linear" x1="159.627" y1="115.298" x2="180.232" y2="116.182" gradientUnits="userSpaceOnUse">
<stop stop-color="#3B3E46"/>
<stop offset="1" stop-color="#222328"/>
</linearGradient>
<linearGradient id="paint6_linear" x1="337.137" y1="77.4482" x2="373.131" y2="79.857" gradientUnits="userSpaceOnUse">
<stop stop-color="#F06021"/>
<stop offset="1" stop-color="#AA4D28"/>
</linearGradient>
<linearGradient id="paint7_linear" x1="336.615" y1="76.9209" x2="373.71" y2="79.384" gradientUnits="userSpaceOnUse">
<stop stop-color="#3B3E46"/>
<stop offset="1" stop-color="#222328"/>
</linearGradient>
<linearGradient id="paint8_linear" x1="189.67" y1="54.1104" x2="218.4" y2="55.332" gradientUnits="userSpaceOnUse">
<stop stop-color="#F06021"/>
<stop offset="1" stop-color="#AA4D28"/>
</linearGradient>
<linearGradient id="paint9_linear" x1="189.235" y1="53.6768" x2="218.877" y2="54.9451" gradientUnits="userSpaceOnUse">
<stop stop-color="#3B3E46"/>
<stop offset="1" stop-color="#222328"/>
</linearGradient>
<linearGradient id="paint10_linear" x1="110.717" y1="93.1484" x2="163.201" y2="95.3804" gradientUnits="userSpaceOnUse">
<stop stop-color="#F06021"/>
<stop offset="1" stop-color="#AA4D28"/>
</linearGradient>
<linearGradient id="paint11_linear" x1="109.939" y1="92.333" x2="164.05" y2="94.6486" gradientUnits="userSpaceOnUse">
<stop stop-color="#3B3E46"/>
<stop offset="1" stop-color="#222328"/>
</linearGradient>
<linearGradient id="paint12_linear" x1="218.456" y1="36.9111" x2="275.414" y2="39.8793" gradientUnits="userSpaceOnUse">
<stop stop-color="#3B3E46"/>
<stop offset="1" stop-color="#222328"/>
</linearGradient>
<linearGradient id="paint13_linear" x1="217.608" y1="36" x2="276.403" y2="39.0659" gradientUnits="userSpaceOnUse">
<stop stop-color="#F06021"/>
<stop offset="1" stop-color="#AA4D28"/>
</linearGradient>
<linearGradient id="paint14_linear" x1="350.903" y1="41.5078" x2="390.401" y2="43.6111" gradientUnits="userSpaceOnUse">
<stop stop-color="#3B3E46"/>
<stop offset="1" stop-color="#222328"/>
</linearGradient>
<linearGradient id="paint15_linear" x1="350.23" y1="40.7949" x2="391.085" y2="42.9605" gradientUnits="userSpaceOnUse">
<stop stop-color="#F06021"/>
<stop offset="1" stop-color="#AA4D28"/>
</linearGradient>
<linearGradient id="paint16_linear" x1="291.912" y1="39.1992" x2="367.405" y2="43.1387" gradientUnits="userSpaceOnUse">
<stop stop-color="#3B3E46"/>
<stop offset="1" stop-color="#222328"/>
</linearGradient>
<linearGradient id="paint17_linear" x1="290.781" y1="38.1758" x2="368.474" y2="42.2341" gradientUnits="userSpaceOnUse">
<stop stop-color="#F06021"/>
<stop offset="1" stop-color="#AA4D28"/>
</linearGradient>
<linearGradient id="paint18_linear" x1="59.6801" y1="113.134" x2="82.8909" y2="114.4" gradientUnits="userSpaceOnUse">
<stop stop-color="#3B3E46"/>
<stop offset="1" stop-color="#222328"/>
</linearGradient>
<linearGradient id="paint19_linear" x1="59.3135" y1="112.89" x2="83.2694" y2="114.203" gradientUnits="userSpaceOnUse">
<stop stop-color="#F06021"/>
<stop offset="1" stop-color="#AA4D28"/>
</linearGradient>
<linearGradient id="paint20_linear" x1="36.5125" y1="74.4756" x2="73.9801" y2="76.4516" gradientUnits="userSpaceOnUse">
<stop stop-color="#3B3E46"/>
<stop offset="1" stop-color="#222328"/>
</linearGradient>
<linearGradient id="paint21_linear" x1="36" y1="73.9424" x2="74.5673" y2="75.9769" gradientUnits="userSpaceOnUse">
<stop stop-color="#F06021"/>
<stop offset="1" stop-color="#AA4D28"/>
</linearGradient>
<linearGradient id="paint22_linear" x1="303.55" y1="95.6758" x2="354.488" y2="98.4098" gradientUnits="userSpaceOnUse">
<stop stop-color="#F06021"/>
<stop offset="1" stop-color="#AA4D28"/>
</linearGradient>
<linearGradient id="paint23_linear" x1="302.786" y1="94.9424" x2="355.316" y2="97.7634" gradientUnits="userSpaceOnUse">
<stop stop-color="#3B3E46"/>
<stop offset="1" stop-color="#222328"/>
</linearGradient>
<linearGradient id="paint24_linear" x1="67.989" y1="47.4492" x2="119.341" y2="50.2163" gradientUnits="userSpaceOnUse">
<stop stop-color="#F06021"/>
<stop offset="1" stop-color="#AA4D28"/>
</linearGradient>
<linearGradient id="paint25_linear" x1="67.2281" y1="46.7119" x2="120.132" y2="49.5648" gradientUnits="userSpaceOnUse">
<stop stop-color="#3B3E46"/>
<stop offset="1" stop-color="#222328"/>
</linearGradient>
<linearGradient id="paint26_linear" x1="43.5355" y1="41.8926" x2="76.1255" y2="43.669" gradientUnits="userSpaceOnUse">
<stop stop-color="#F06021"/>
<stop offset="1" stop-color="#AA4D28"/>
</linearGradient>
<linearGradient id="paint27_linear" x1="43.0554" y1="41.4424" x2="76.6246" y2="43.2741" gradientUnits="userSpaceOnUse">
<stop stop-color="#3B3E46"/>
<stop offset="1" stop-color="#222328"/>
</linearGradient>
<linearGradient id="paint28_linear" x1="83.2107" y1="88.4512" x2="133.149" y2="91.1457" gradientUnits="userSpaceOnUse">
<stop stop-color="#F06021"/>
<stop offset="1" stop-color="#AA4D28"/>
</linearGradient>
<linearGradient id="paint29_linear" x1="82.5015" y1="87.7334" x2="133.956" y2="90.5104" gradientUnits="userSpaceOnUse">
<stop stop-color="#3B3E46"/>
<stop offset="1" stop-color="#222328"/>
</linearGradient>
<linearGradient id="paint30_linear" x1="269.444" y1="40.7598" x2="324.675" y2="43.7436" gradientUnits="userSpaceOnUse">
<stop stop-color="#3B3E46"/>
<stop offset="1" stop-color="#222328"/>
</linearGradient>
<linearGradient id="paint31_linear" x1="373.328" y1="82.8506" x2="396.757" y2="84.1132" gradientUnits="userSpaceOnUse">
<stop stop-color="#F06021"/>
<stop offset="1" stop-color="#AA4D28"/>
</linearGradient>
<linearGradient id="paint32_linear" x1="372.997" y1="82.5156" x2="397.155" y2="83.8194" gradientUnits="userSpaceOnUse">
<stop stop-color="#3B3E46"/>
<stop offset="1" stop-color="#222328"/>
</linearGradient>
<linearGradient id="paint33_linear" x1="137.609" y1="93.3809" x2="166.407" y2="94.7916" gradientUnits="userSpaceOnUse">
<stop stop-color="#3B3E46"/>
<stop offset="1" stop-color="#222328"/>
</linearGradient>
<linearGradient id="paint34_linear" x1="137.184" y1="92.9639" x2="166.854" y2="94.4195" gradientUnits="userSpaceOnUse">
<stop stop-color="#F06021"/>
<stop offset="1" stop-color="#AA4D28"/>
</linearGradient>
<linearGradient id="paint35_linear" x1="348.836" y1="115.929" x2="382.504" y2="117.607" gradientUnits="userSpaceOnUse">
<stop stop-color="#3B3E46"/>
<stop offset="1" stop-color="#222328"/>
</linearGradient>
<linearGradient id="paint36_linear" x1="348.326" y1="115.371" x2="383.042" y2="117.103" gradientUnits="userSpaceOnUse">
<stop stop-color="#F06021"/>
<stop offset="1" stop-color="#AA4D28"/>
</linearGradient>
<linearGradient id="paint37_linear" x1="99.3909" y1="45.3828" x2="129.616" y2="46.8239" gradientUnits="userSpaceOnUse">
<stop stop-color="#3B3E46"/>
<stop offset="1" stop-color="#222328"/>
</linearGradient>
<linearGradient id="paint38_linear" x1="98.9539" y1="44.9727" x2="130.115" y2="46.4666" gradientUnits="userSpaceOnUse">
<stop stop-color="#F06021"/>
<stop offset="1" stop-color="#AA4D28"/>
</linearGradient>
<linearGradient id="paint39_linear" x1="137.151" y1="47.7705" x2="178.901" y2="49.7626" gradientUnits="userSpaceOnUse">
<stop stop-color="#3B3E46"/>
<stop offset="1" stop-color="#222328"/>
</linearGradient>
<linearGradient id="paint40_linear" x1="136.559" y1="47.208" x2="179.457" y2="49.2569" gradientUnits="userSpaceOnUse">
<stop stop-color="#F06021"/>
<stop offset="1" stop-color="#AA4D28"/>
</linearGradient>
<linearGradient id="paint41_linear" x1="273.141" y1="98.8799" x2="303.735" y2="100.336" gradientUnits="userSpaceOnUse">
<stop stop-color="#3B3E46"/>
<stop offset="1" stop-color="#222328"/>
</linearGradient>
<linearGradient id="paint42_linear" x1="272.644" y1="98.582" x2="304.138" y2="100.087" gradientUnits="userSpaceOnUse">
<stop stop-color="#F06021"/>
<stop offset="1" stop-color="#AA4D28"/>
</linearGradient>
<linearGradient id="paint43_linear" x1="208.798" y1="68.4844" x2="260.176" y2="70.9591" gradientUnits="userSpaceOnUse">
<stop stop-color="#3B3E46"/>
<stop offset="1" stop-color="#222328"/>
</linearGradient>
<linearGradient id="paint44_linear" x1="208.05" y1="67.751" x2="260.986" y2="70.3074" gradientUnits="userSpaceOnUse">
<stop stop-color="#F06021"/>
<stop offset="1" stop-color="#AA4D28"/>
</linearGradient>
<linearGradient id="paint45_linear" x1="162.964" y1="64.0898" x2="219.389" y2="67.0219" gradientUnits="userSpaceOnUse">
<stop stop-color="#3B3E46"/>
<stop offset="1" stop-color="#222328"/>
</linearGradient>
<linearGradient id="paint46_linear" x1="162.187" y1="63.6104" x2="220.196" y2="66.6453" gradientUnits="userSpaceOnUse">
<stop stop-color="#F06021"/>
<stop offset="1" stop-color="#AA4D28"/>
</linearGradient>
</defs>
</svg>
