<svg width="1024" height="817" viewBox="0 0 1024 817" fill="none" xmlns="http://www.w3.org/2000/svg">
<circle cx="116.293" cy="426.091" r="218.134" stroke="#DCDCE9" stroke-opacity="0.5" stroke-width="1.62219"/>
<path d="M56.8907 437.811L56.907 420.116H59.8562V428.636L67.2781 420.116H71.0628L63.2476 428.963L71.9803 437.811H67.9007L59.8562 429.291V437.811H56.8907ZM77.9856 438.302C76.6639 438.302 75.5553 438.062 74.6596 437.581C73.7749 437.09 73.1031 436.445 72.6444 435.648C72.1966 434.851 71.9726 433.977 71.9726 433.026C71.9726 432.098 72.1474 431.295 72.4969 430.618C72.8574 429.93 73.3598 429.362 74.0043 428.914C74.6487 428.455 75.4187 428.095 76.3144 427.833C77.1554 427.603 78.0948 427.407 79.1324 427.243C80.181 427.068 81.2405 426.91 82.3109 426.768C83.3814 426.626 84.3808 426.489 85.3092 426.358L84.2606 426.964C84.2934 425.391 83.9767 424.228 83.3104 423.475C82.655 422.721 81.5191 422.344 79.9025 422.344C78.8321 422.344 77.8927 422.59 77.0844 423.081C76.2871 423.562 75.7246 424.348 75.3969 425.441L72.628 424.605C73.054 423.054 73.8786 421.836 75.102 420.951C76.3253 420.067 77.9364 419.624 79.9353 419.624C81.5409 419.624 82.9172 419.914 84.064 420.493C85.2218 421.061 86.052 421.924 86.5544 423.081C86.8056 423.627 86.964 424.223 87.0295 424.867C87.0951 425.501 87.1278 426.167 87.1278 426.866V437.811H84.5392V433.567L85.1454 433.96C84.4791 435.391 83.5452 436.473 82.3437 437.204C81.1531 437.936 79.7004 438.302 77.9856 438.302ZM78.4279 435.861C79.4765 435.861 80.3831 435.675 81.1477 435.304C81.9232 434.922 82.5458 434.425 83.0155 433.813C83.4851 433.19 83.791 432.513 83.933 431.781C84.0968 431.235 84.1842 430.629 84.1951 429.963C84.2169 429.285 84.2279 428.767 84.2279 428.406L85.2437 428.848C84.2934 428.98 83.3595 429.105 82.442 429.225C81.5245 429.345 80.6562 429.477 79.837 429.619C79.0178 429.75 78.2805 429.908 77.6251 430.094C77.1445 430.247 76.6912 430.443 76.2652 430.684C75.8502 430.924 75.5116 431.235 75.2494 431.617C74.9982 431.989 74.8726 432.453 74.8726 433.01C74.8726 433.491 74.9928 433.949 75.2331 434.386C75.4843 434.823 75.8666 435.178 76.3799 435.451C76.9042 435.724 77.5869 435.861 78.4279 435.861ZM101.382 437.811V431.437C100.792 431.732 100.077 431.983 99.2356 432.191C98.4055 432.398 97.5153 432.502 96.565 432.502C94.7628 432.502 93.3101 432.098 92.2069 431.29C91.1037 430.481 90.3828 429.318 90.0442 427.8C89.9459 427.341 89.8749 426.866 89.8312 426.375C89.7984 425.883 89.7766 425.435 89.7657 425.031C89.7547 424.627 89.7493 424.332 89.7493 424.146V420.116H92.6984V424.146C92.6984 424.463 92.7093 424.856 92.7312 425.326C92.753 425.785 92.8076 426.233 92.895 426.669C93.1135 427.751 93.5668 428.565 94.2549 429.111C94.9539 429.657 95.937 429.93 97.204 429.93C98.056 429.93 98.8424 429.821 99.5633 429.602C100.284 429.384 100.89 429.094 101.382 428.734V420.116H104.315V437.811H101.382ZM115.921 438.302C114.184 438.302 112.666 437.92 111.366 437.155C110.077 436.38 109.072 435.304 108.351 433.928C107.63 432.54 107.27 430.924 107.27 429.078C107.27 427.145 107.625 425.473 108.335 424.064C109.045 422.644 110.033 421.552 111.3 420.788C112.578 420.012 114.075 419.624 115.79 419.624C117.57 419.624 119.083 420.034 120.328 420.853C121.584 421.672 122.523 422.841 123.146 424.359C123.78 425.878 124.053 427.685 123.965 429.782H121.016V428.734C120.983 426.56 120.541 424.938 119.689 423.868C118.837 422.786 117.57 422.246 115.888 422.246C114.086 422.246 112.715 422.825 111.776 423.982C110.836 425.14 110.366 426.8 110.366 428.963C110.366 431.049 110.836 432.666 111.776 433.813C112.715 434.96 114.053 435.533 115.79 435.533C116.958 435.533 117.974 435.266 118.837 434.73C119.7 434.195 120.377 433.425 120.869 432.42L123.67 433.387C122.982 434.949 121.945 436.161 120.557 437.024C119.181 437.876 117.636 438.302 115.921 438.302ZM109.383 429.782V427.439H122.458V429.782H109.383ZM134.412 438.302C132.621 438.302 131.097 437.903 129.841 437.106C128.596 436.298 127.646 435.189 126.99 433.78C126.335 432.371 125.996 430.765 125.975 428.963C125.996 427.117 126.34 425.495 127.007 424.097C127.684 422.688 128.651 421.59 129.907 420.804C131.163 420.018 132.676 419.624 134.445 419.624C136.313 419.624 137.918 420.083 139.262 421.001C140.616 421.918 141.523 423.174 141.982 424.769L139.098 425.637C138.727 424.611 138.121 423.813 137.28 423.245C136.449 422.677 135.494 422.393 134.412 422.393C133.2 422.393 132.2 422.677 131.414 423.245C130.628 423.802 130.043 424.578 129.661 425.572C129.279 426.555 129.082 427.685 129.071 428.963C129.093 430.929 129.546 432.519 130.431 433.731C131.327 434.932 132.654 435.533 134.412 435.533C135.57 435.533 136.531 435.271 137.296 434.747C138.06 434.212 138.639 433.441 139.033 432.437L141.982 433.207C141.37 434.856 140.414 436.118 139.115 436.991C137.815 437.865 136.247 438.302 134.412 438.302ZM149.036 437.811V422.77H142.876V420.116H158.113V422.77H151.952V437.811H149.036ZM160.542 437.811V420.116H168.079C168.527 420.116 169.008 420.143 169.521 420.198C170.045 420.241 170.52 420.323 170.946 420.444C171.897 420.695 172.678 421.214 173.289 422C173.912 422.775 174.223 423.759 174.223 424.949C174.223 425.615 174.119 426.194 173.912 426.686C173.715 427.177 173.431 427.603 173.06 427.964C172.896 428.128 172.716 428.275 172.519 428.406C172.323 428.537 172.126 428.641 171.929 428.717C172.312 428.783 172.699 428.93 173.093 429.16C173.715 429.498 174.201 429.974 174.551 430.585C174.911 431.197 175.091 431.978 175.091 432.928C175.091 434.13 174.802 435.124 174.223 435.91C173.644 436.686 172.847 437.221 171.831 437.516C171.405 437.636 170.935 437.718 170.422 437.761C169.909 437.794 169.412 437.811 168.931 437.811H160.542ZM163.492 435.435H168.767C168.997 435.435 169.27 435.413 169.586 435.369C169.914 435.326 170.204 435.271 170.455 435.205C171.023 435.042 171.432 434.736 171.684 434.288C171.946 433.84 172.077 433.354 172.077 432.83C172.077 432.131 171.88 431.563 171.487 431.126C171.105 430.689 170.597 430.416 169.963 430.307C169.734 430.241 169.483 430.203 169.21 430.192C168.947 430.181 168.713 430.176 168.505 430.176H163.492V435.435ZM163.492 427.767H167.883C168.188 427.767 168.511 427.751 168.849 427.718C169.188 427.674 169.483 427.603 169.734 427.505C170.236 427.319 170.602 427.013 170.832 426.588C171.072 426.151 171.192 425.675 171.192 425.162C171.192 424.594 171.061 424.097 170.799 423.671C170.548 423.234 170.16 422.934 169.636 422.77C169.286 422.639 168.893 422.568 168.456 422.557C168.03 422.535 167.757 422.524 167.637 422.524H163.492V427.767ZM185.264 438.302C183.506 438.302 181.987 437.903 180.709 437.106C179.442 436.309 178.465 435.205 177.777 433.796C177.089 432.387 176.744 430.771 176.744 428.947C176.744 427.09 177.094 425.462 177.793 424.064C178.492 422.666 179.481 421.579 180.759 420.804C182.037 420.018 183.538 419.624 185.264 419.624C187.034 419.624 188.557 420.023 189.835 420.82C191.113 421.607 192.091 422.704 192.768 424.114C193.456 425.512 193.8 427.123 193.8 428.947C193.8 430.793 193.456 432.42 192.768 433.829C192.08 435.227 191.097 436.325 189.819 437.122C188.541 437.909 187.023 438.302 185.264 438.302ZM185.264 435.533C187.099 435.533 188.464 434.922 189.36 433.698C190.256 432.475 190.704 430.891 190.704 428.947C190.704 426.948 190.25 425.359 189.344 424.179C188.437 422.988 187.077 422.393 185.264 422.393C184.03 422.393 183.014 422.672 182.217 423.229C181.419 423.786 180.824 424.556 180.431 425.539C180.038 426.522 179.841 427.658 179.841 428.947C179.841 430.935 180.3 432.529 181.217 433.731C182.135 434.932 183.484 435.533 185.264 435.533Z" fill="white"/>
<circle cx="805.055" cy="597.305" r="218.134" stroke="#DCDCE9" stroke-opacity="0.5" stroke-width="1.62219"/>
<path d="M639.397 609.92L639.413 592.225H642.362V600.745L649.784 592.225H653.569L645.754 601.073L654.486 609.92H650.407L642.362 601.4V609.92H639.397ZM662.678 610.411C660.92 610.411 659.402 610.013 658.124 609.215C656.857 608.418 655.879 607.315 655.191 605.906C654.503 604.497 654.159 602.88 654.159 601.056C654.159 599.199 654.508 597.572 655.207 596.174C655.906 594.776 656.895 593.689 658.173 592.913C659.451 592.127 660.953 591.734 662.678 591.734C664.448 591.734 665.972 592.132 667.25 592.93C668.528 593.716 669.505 594.814 670.182 596.223C670.87 597.621 671.214 599.232 671.214 601.056C671.214 602.902 670.87 604.53 670.182 605.939C669.494 607.337 668.511 608.434 667.233 609.232C665.955 610.018 664.437 610.411 662.678 610.411ZM662.678 607.643C664.513 607.643 665.879 607.031 666.774 605.808C667.67 604.584 668.118 603 668.118 601.056C668.118 599.057 667.665 597.468 666.758 596.288C665.851 595.098 664.492 594.503 662.678 594.503C661.444 594.503 660.428 594.781 659.631 595.338C658.834 595.895 658.238 596.665 657.845 597.648C657.452 598.631 657.255 599.767 657.255 601.056C657.255 603.044 657.714 604.639 658.632 605.84C659.549 607.042 660.898 607.643 662.678 607.643ZM674.15 609.92V592.225H677.066V599.68H686.373V592.225H689.289V609.92H686.373V602.449H677.066V609.92H674.15ZM701.579 617.293V610.248C699.853 610.521 698.28 610.335 696.86 609.691C695.451 609.035 694.326 607.981 693.485 606.528C692.655 605.065 692.24 603.252 692.24 601.089C692.24 598.915 692.655 597.097 693.485 595.633C694.326 594.169 695.451 593.115 696.86 592.471C698.28 591.816 699.853 591.624 701.579 591.898V586.507H704.233V591.898C705.959 591.624 707.526 591.816 708.935 592.471C710.355 593.115 711.48 594.169 712.31 595.633C713.151 597.097 713.572 598.915 713.572 601.089C713.572 603.252 713.151 605.065 712.31 606.528C711.48 607.981 710.355 609.035 708.935 609.691C707.526 610.335 705.959 610.521 704.233 610.248V617.293H701.579ZM701.579 607.577V594.584C700.694 594.432 699.87 594.459 699.105 594.666C698.34 594.863 697.669 595.234 697.09 595.781C696.511 596.327 696.057 597.042 695.73 597.927C695.402 598.812 695.238 599.866 695.238 601.089C695.238 602.301 695.402 603.35 695.73 604.235C696.068 605.119 696.527 605.835 697.106 606.381C697.696 606.916 698.373 607.288 699.138 607.495C699.902 607.692 700.716 607.719 701.579 607.577ZM704.233 607.577C705.096 607.719 705.91 607.692 706.674 607.495C707.439 607.298 708.116 606.933 708.706 606.397C709.296 605.851 709.755 605.136 710.082 604.251C710.41 603.366 710.574 602.312 710.574 601.089C710.574 599.855 710.41 598.795 710.082 597.91C709.765 597.026 709.318 596.31 708.739 595.764C708.16 595.218 707.483 594.847 706.707 594.65C705.943 594.453 705.118 594.432 704.233 594.584V607.577ZM731.019 592.225V609.92H728.201V596.878L718.928 609.92H716.519V592.225H719.337V605.087L728.627 592.225H731.019ZM733.642 613.852V607.511C734.636 607.511 735.346 607.189 735.772 606.545C736.198 605.889 736.542 604.814 736.804 603.317C736.978 602.378 737.12 601.373 737.23 600.303C737.339 599.232 737.432 598.042 737.508 596.731C737.596 595.409 737.678 593.907 737.754 592.225H749.944V607.511H751.664V613.852H748.879V609.92H736.427V613.852H733.642ZM738.131 607.511H747.027V594.634H740.392C740.359 595.409 740.315 596.223 740.261 597.075C740.206 597.916 740.141 598.757 740.064 599.598C739.999 600.439 739.917 601.236 739.818 601.99C739.731 602.733 739.627 603.399 739.507 603.989C739.365 604.808 739.201 605.502 739.016 606.07C738.83 606.638 738.535 607.118 738.131 607.511ZM761.965 610.411C760.228 610.411 758.71 610.029 757.41 609.265C756.121 608.489 755.116 607.413 754.395 606.037C753.674 604.65 753.314 603.033 753.314 601.187C753.314 599.254 753.669 597.583 754.379 596.174C755.089 594.754 756.077 593.662 757.344 592.897C758.622 592.121 760.119 591.734 761.834 591.734C763.614 591.734 765.127 592.143 766.372 592.962C767.628 593.782 768.567 594.95 769.19 596.469C769.824 597.987 770.097 599.795 770.009 601.892H767.06V600.843C767.027 598.67 766.585 597.048 765.733 595.977C764.881 594.896 763.614 594.355 761.932 594.355C760.13 594.355 758.759 594.934 757.82 596.092C756.88 597.25 756.411 598.91 756.411 601.073C756.411 603.159 756.88 604.775 757.82 605.922C758.759 607.069 760.097 607.643 761.834 607.643C763.002 607.643 764.018 607.375 764.881 606.84C765.744 606.305 766.421 605.534 766.913 604.53L769.714 605.496C769.026 607.058 767.989 608.271 766.601 609.133C765.225 609.985 763.68 610.411 761.965 610.411ZM755.427 601.892V599.549H768.502V601.892H755.427ZM772.985 609.92V592.225H775.902V599.68H785.208V592.225H788.124V609.92H785.208V602.449H775.902V609.92H772.985ZM807.132 613.197V609.92H792.042V592.225H794.958V607.151H803.625V592.225H806.542V607.266H810.048V613.197H807.132ZM826.494 592.225V609.92H823.676V596.878L814.403 609.92H811.995V592.225H814.813V605.087L824.102 592.225H826.494ZM835.457 610.411C834.136 610.411 833.027 610.171 832.131 609.691C831.247 609.199 830.575 608.555 830.116 607.757C829.668 606.96 829.444 606.086 829.444 605.136C829.444 604.207 829.619 603.405 829.969 602.727C830.329 602.039 830.832 601.471 831.476 601.023C832.121 600.565 832.891 600.204 833.786 599.942C834.627 599.713 835.567 599.516 836.604 599.352C837.653 599.177 838.712 599.019 839.783 598.877C840.853 598.735 841.853 598.599 842.781 598.468L841.732 599.074C841.765 597.501 841.449 596.338 840.782 595.584C840.127 594.83 838.991 594.453 837.374 594.453C836.304 594.453 835.365 594.699 834.556 595.191C833.759 595.671 833.196 596.458 832.869 597.55L830.1 596.714C830.526 595.163 831.35 593.946 832.574 593.061C833.797 592.176 835.408 591.734 837.407 591.734C839.013 591.734 840.389 592.023 841.536 592.602C842.694 593.17 843.524 594.033 844.026 595.191C844.277 595.737 844.436 596.332 844.501 596.977C844.567 597.61 844.6 598.276 844.6 598.975V609.92H842.011V605.676L842.617 606.07C841.951 607.501 841.017 608.582 839.816 609.314C838.625 610.046 837.172 610.411 835.457 610.411ZM835.9 607.97C836.948 607.97 837.855 607.785 838.62 607.413C839.395 607.031 840.018 606.534 840.487 605.922C840.957 605.3 841.263 604.622 841.405 603.891C841.569 603.344 841.656 602.738 841.667 602.072C841.689 601.395 841.7 600.876 841.7 600.516L842.716 600.958C841.765 601.089 840.831 601.215 839.914 601.335C838.996 601.455 838.128 601.586 837.309 601.728C836.49 601.859 835.752 602.017 835.097 602.203C834.616 602.356 834.163 602.553 833.737 602.793C833.322 603.033 832.983 603.344 832.721 603.727C832.47 604.098 832.344 604.562 832.344 605.119C832.344 605.6 832.465 606.059 832.705 606.496C832.956 606.933 833.338 607.288 833.852 607.561C834.376 607.834 835.059 607.97 835.9 607.97ZM846.566 609.92V607.413C847.221 607.533 847.718 607.511 848.057 607.348C848.406 607.173 848.663 606.872 848.827 606.447C849.002 606.01 849.144 605.463 849.253 604.808C849.438 603.77 849.597 602.613 849.728 601.335C849.87 600.057 849.995 598.659 850.105 597.14C850.225 595.611 850.334 593.973 850.432 592.225H862.802V609.92H859.886V594.994H853.087C853.021 595.999 852.939 597.031 852.841 598.091C852.753 599.15 852.661 600.182 852.562 601.187C852.464 602.181 852.355 603.11 852.235 603.973C852.125 604.824 852.005 605.562 851.874 606.184C851.667 607.255 851.377 608.112 851.006 608.757C850.634 609.39 850.099 609.8 849.4 609.985C848.701 610.182 847.756 610.16 846.566 609.92ZM866.749 609.92L866.732 592.225H869.665V598.631H873.483C873.996 598.631 874.52 598.642 875.055 598.664C875.591 598.686 876.055 598.735 876.448 598.812C877.366 598.986 878.168 599.292 878.857 599.729C879.545 600.166 880.08 600.761 880.462 601.515C880.845 602.258 881.036 603.181 881.036 604.284C881.036 605.813 880.637 607.025 879.84 607.921C879.053 608.806 878.021 609.396 876.743 609.691C876.306 609.789 875.804 609.854 875.236 609.887C874.679 609.909 874.149 609.92 873.646 609.92H866.749ZM869.665 607.511H873.696C874.023 607.511 874.389 607.501 874.793 607.479C875.197 607.457 875.558 607.402 875.875 607.315C876.432 607.151 876.929 606.829 877.366 606.348C877.813 605.868 878.037 605.179 878.037 604.284C878.037 603.377 877.819 602.678 877.382 602.187C876.956 601.695 876.394 601.373 875.694 601.22C875.378 601.144 875.045 601.094 874.695 601.073C874.346 601.051 874.012 601.04 873.696 601.04H869.665V607.511ZM883.485 609.92V592.225H886.401V599.68H895.708V592.225H898.624V609.92H895.708V602.449H886.401V609.92H883.485ZM910.095 610.411C908.336 610.411 906.818 610.013 905.54 609.215C904.273 608.418 903.295 607.315 902.607 605.906C901.919 604.497 901.575 602.88 901.575 601.056C901.575 599.199 901.925 597.572 902.624 596.174C903.323 594.776 904.311 593.689 905.589 592.913C906.867 592.127 908.369 591.734 910.095 591.734C911.864 591.734 913.388 592.132 914.666 592.93C915.944 593.716 916.921 594.814 917.599 596.223C918.287 597.621 918.631 599.232 918.631 601.056C918.631 602.902 918.287 604.53 917.599 605.939C916.91 607.337 915.927 608.434 914.649 609.232C913.372 610.018 911.853 610.411 910.095 610.411ZM910.095 607.643C911.93 607.643 913.295 607.031 914.191 605.808C915.086 604.584 915.534 603 915.534 601.056C915.534 599.057 915.081 597.468 914.174 596.288C913.268 595.098 911.908 594.503 910.095 594.503C908.86 594.503 907.845 594.781 907.047 595.338C906.25 595.895 905.655 596.665 905.261 597.648C904.868 598.631 904.672 599.767 904.672 601.056C904.672 603.044 905.13 604.639 906.048 605.84C906.965 607.042 908.314 607.643 910.095 607.643ZM929.037 610.411C927.246 610.411 925.722 610.013 924.466 609.215C923.221 608.407 922.271 607.298 921.615 605.889C920.96 604.48 920.622 602.875 920.6 601.073C920.622 599.227 920.966 597.605 921.632 596.207C922.309 594.797 923.276 593.7 924.532 592.913C925.788 592.127 927.301 591.734 929.07 591.734C930.938 591.734 932.544 592.192 933.887 593.11C935.242 594.027 936.148 595.284 936.607 596.878L933.723 597.747C933.352 596.72 932.746 595.923 931.905 595.355C931.075 594.787 930.119 594.503 929.037 594.503C927.825 594.503 926.826 594.787 926.039 595.355C925.253 595.912 924.668 596.687 924.286 597.681C923.904 598.664 923.707 599.795 923.696 601.073C923.718 603.039 924.171 604.628 925.056 605.84C925.952 607.042 927.279 607.643 929.037 607.643C930.195 607.643 931.156 607.38 931.921 606.856C932.686 606.321 933.265 605.551 933.658 604.546L936.607 605.316C935.995 606.965 935.039 608.227 933.74 609.101C932.44 609.975 930.872 610.411 929.037 610.411ZM943.661 609.92V594.879H937.501V592.225H952.738V594.879H946.578V609.92H943.661ZM955.184 609.92L955.168 592.225H958.1V598.631H961.918C962.431 598.631 962.955 598.642 963.491 598.664C964.026 598.686 964.49 598.735 964.883 598.812C965.801 598.986 966.604 599.292 967.292 599.729C967.98 600.166 968.515 600.761 968.897 601.515C969.28 602.258 969.471 603.181 969.471 604.284C969.471 605.813 969.072 607.025 968.275 607.921C967.488 608.806 966.456 609.396 965.178 609.691C964.741 609.789 964.239 609.854 963.671 609.887C963.114 609.909 962.584 609.92 962.082 609.92H955.184ZM958.1 607.511H962.131C962.458 607.511 962.824 607.501 963.229 607.479C963.633 607.457 963.993 607.402 964.31 607.315C964.867 607.151 965.364 606.829 965.801 606.348C966.249 605.868 966.473 605.179 966.473 604.284C966.473 603.377 966.254 602.678 965.817 602.187C965.391 601.695 964.829 601.373 964.13 601.22C963.813 601.144 963.48 601.094 963.13 601.073C962.781 601.051 962.448 601.04 962.131 601.04H958.1V607.511Z" fill="white"/>
<circle cx="532.48" cy="219.906" r="218.134" stroke="#DCDCE9" stroke-opacity="0.5" stroke-width="1.62219"/>
<path d="M424.891 233.013C423.133 233.013 421.615 232.614 420.337 231.817C419.07 231.02 418.092 229.916 417.404 228.507C416.716 227.098 416.372 225.482 416.372 223.658C416.372 221.801 416.721 220.173 417.42 218.775C418.119 217.377 419.108 216.29 420.386 215.515C421.664 214.728 423.166 214.335 424.891 214.335C426.661 214.335 428.185 214.734 429.463 215.531C430.741 216.318 431.718 217.415 432.395 218.824C433.083 220.223 433.427 221.834 433.427 223.658C433.427 225.504 433.083 227.131 432.395 228.54C431.707 229.938 430.724 231.036 429.446 231.833C428.168 232.62 426.65 233.013 424.891 233.013ZM424.891 230.244C426.726 230.244 428.092 229.632 428.987 228.409C429.883 227.186 430.331 225.602 430.331 223.658C430.331 221.659 429.878 220.07 428.971 218.89C428.064 217.699 426.705 217.104 424.891 217.104C423.657 217.104 422.641 217.383 421.844 217.94C421.047 218.497 420.451 219.267 420.058 220.25C419.665 221.233 419.468 222.369 419.468 223.658C419.468 225.646 419.927 227.24 420.845 228.442C421.762 229.643 423.111 230.244 424.891 230.244ZM436.363 232.521V214.827H450.863V232.521H447.947V217.596H439.279V232.521H436.363ZM462.464 233.013C460.727 233.013 459.209 232.631 457.909 231.866C456.62 231.091 455.615 230.015 454.894 228.638C454.173 227.251 453.813 225.635 453.813 223.789C453.813 221.856 454.168 220.184 454.878 218.775C455.588 217.355 456.576 216.263 457.843 215.499C459.121 214.723 460.618 214.335 462.333 214.335C464.113 214.335 465.626 214.745 466.871 215.564C468.127 216.383 469.067 217.552 469.689 219.07C470.323 220.588 470.596 222.396 470.508 224.493H467.559V223.445C467.526 221.271 467.084 219.649 466.232 218.579C465.38 217.497 464.113 216.957 462.431 216.957C460.629 216.957 459.258 217.536 458.319 218.693C457.379 219.851 456.91 221.511 456.91 223.674C456.91 225.76 457.379 227.377 458.319 228.524C459.258 229.671 460.596 230.244 462.333 230.244C463.501 230.244 464.517 229.977 465.38 229.441C466.243 228.906 466.92 228.136 467.412 227.131L470.213 228.098C469.525 229.66 468.488 230.872 467.1 231.735C465.724 232.587 464.179 233.013 462.464 233.013ZM455.927 224.493V222.15H469.001V224.493H455.927ZM481.627 233.013C479.967 233.013 478.569 232.603 477.433 231.784C476.297 230.954 475.434 229.835 474.844 228.425C474.265 227.006 473.976 225.416 473.976 223.658C473.976 221.877 474.265 220.283 474.844 218.874C475.434 217.465 476.297 216.356 477.433 215.548C478.58 214.739 479.983 214.335 481.644 214.335C483.282 214.335 484.691 214.745 485.871 215.564C487.061 216.372 487.973 217.481 488.607 218.89C489.24 220.299 489.557 221.888 489.557 223.658C489.557 225.427 489.24 227.016 488.607 228.425C487.973 229.835 487.061 230.954 485.871 231.784C484.691 232.603 483.276 233.013 481.627 233.013ZM473.484 240.386V214.827H476.089V227.852H476.417V240.386H473.484ZM481.267 230.342C482.435 230.342 483.402 230.048 484.167 229.458C484.931 228.868 485.505 228.07 485.887 227.066C486.269 226.05 486.46 224.914 486.46 223.658C486.46 222.413 486.269 221.288 485.887 220.283C485.516 219.278 484.937 218.48 484.15 217.891C483.375 217.301 482.386 217.006 481.185 217.006C480.038 217.006 479.088 217.29 478.334 217.858C477.58 218.415 477.018 219.196 476.646 220.201C476.275 221.195 476.089 222.347 476.089 223.658C476.089 224.947 476.27 226.099 476.63 227.115C477.001 228.12 477.569 228.912 478.334 229.49C479.099 230.058 480.076 230.342 481.267 230.342ZM497.523 233.013C496.202 233.013 495.093 232.773 494.197 232.292C493.313 231.801 492.641 231.156 492.182 230.359C491.734 229.561 491.51 228.688 491.51 227.737C491.51 226.809 491.685 226.006 492.035 225.329C492.395 224.641 492.897 224.073 493.542 223.625C494.186 223.166 494.956 222.806 495.852 222.544C496.693 222.314 497.632 222.118 498.67 221.954C499.719 221.779 500.778 221.621 501.849 221.479C502.919 221.337 503.918 221.2 504.847 221.069L503.798 221.675C503.831 220.102 503.514 218.939 502.848 218.185C502.193 217.432 501.057 217.055 499.44 217.055C498.37 217.055 497.43 217.301 496.622 217.792C495.825 218.273 495.262 219.059 494.935 220.152L492.166 219.316C492.592 217.765 493.416 216.547 494.64 215.662C495.863 214.778 497.474 214.335 499.473 214.335C501.079 214.335 502.455 214.625 503.602 215.204C504.76 215.772 505.59 216.634 506.092 217.792C506.343 218.338 506.502 218.934 506.567 219.578C506.633 220.212 506.666 220.878 506.666 221.577V232.521H504.077V228.278L504.683 228.671C504.017 230.102 503.083 231.183 501.881 231.915C500.691 232.647 499.238 233.013 497.523 233.013ZM497.966 230.572C499.014 230.572 499.921 230.386 500.685 230.015C501.461 229.632 502.083 229.135 502.553 228.524C503.023 227.901 503.329 227.224 503.471 226.492C503.634 225.946 503.722 225.34 503.733 224.674C503.755 223.996 503.766 223.478 503.766 223.117L504.781 223.559C503.831 223.691 502.897 223.816 501.98 223.936C501.062 224.056 500.194 224.187 499.375 224.329C498.555 224.461 497.818 224.619 497.163 224.805C496.682 224.958 496.229 225.154 495.803 225.394C495.388 225.635 495.049 225.946 494.787 226.328C494.536 226.7 494.41 227.164 494.41 227.721C494.41 228.202 494.53 228.66 494.771 229.097C495.022 229.534 495.404 229.889 495.918 230.162C496.442 230.435 497.125 230.572 497.966 230.572ZM514.956 232.521V217.481H508.795V214.827H524.033V217.481H517.872V232.521H514.956ZM540.962 214.827V232.521H538.144V219.48L528.871 232.521H526.462V214.827H529.28V227.688L538.57 214.827H540.962ZM544.879 232.521V214.827H552.416C552.863 214.827 553.344 214.854 553.857 214.909C554.382 214.952 554.857 215.034 555.283 215.154C556.233 215.406 557.014 215.924 557.626 216.711C558.248 217.486 558.56 218.469 558.56 219.66C558.56 220.326 558.456 220.905 558.248 221.397C558.052 221.888 557.768 222.314 557.396 222.675C557.232 222.839 557.052 222.986 556.856 223.117C556.659 223.248 556.462 223.352 556.266 223.428C556.648 223.494 557.036 223.641 557.429 223.871C558.052 224.209 558.538 224.684 558.887 225.296C559.248 225.908 559.428 226.689 559.428 227.639C559.428 228.841 559.138 229.835 558.56 230.621C557.981 231.396 557.183 231.932 556.167 232.227C555.741 232.347 555.272 232.429 554.758 232.472C554.245 232.505 553.748 232.521 553.267 232.521H544.879ZM547.828 230.146H553.104C553.333 230.146 553.606 230.124 553.923 230.08C554.251 230.037 554.54 229.982 554.791 229.916C555.359 229.753 555.769 229.447 556.02 228.999C556.282 228.551 556.413 228.065 556.413 227.541C556.413 226.842 556.217 226.274 555.823 225.837C555.441 225.4 554.933 225.127 554.3 225.018C554.07 224.952 553.819 224.914 553.546 224.903C553.284 224.892 553.049 224.887 552.842 224.887H547.828V230.146ZM547.828 222.478H552.219C552.525 222.478 552.847 222.462 553.186 222.429C553.524 222.385 553.819 222.314 554.07 222.216C554.573 222.03 554.939 221.724 555.168 221.298C555.408 220.862 555.528 220.386 555.528 219.873C555.528 219.305 555.397 218.808 555.135 218.382C554.884 217.945 554.496 217.645 553.972 217.481C553.622 217.35 553.229 217.279 552.792 217.268C552.366 217.246 552.093 217.235 551.973 217.235H547.828V222.478ZM562.048 232.521V214.827H564.964V222.281H574.27V214.827H577.186V232.521H574.27V225.05H564.964V232.521H562.048ZM588.657 233.013C586.899 233.013 585.38 232.614 584.102 231.817C582.835 231.02 581.858 229.916 581.17 228.507C580.482 227.098 580.138 225.482 580.138 223.658C580.138 221.801 580.487 220.173 581.186 218.775C581.885 217.377 582.874 216.29 584.152 215.515C585.43 214.728 586.931 214.335 588.657 214.335C590.427 214.335 591.95 214.734 593.228 215.531C594.506 216.318 595.484 217.415 596.161 218.824C596.849 220.223 597.193 221.834 597.193 223.658C597.193 225.504 596.849 227.131 596.161 228.54C595.473 229.938 594.49 231.036 593.212 231.833C591.934 232.62 590.416 233.013 588.657 233.013ZM588.657 230.244C590.492 230.244 591.858 229.632 592.753 228.409C593.649 227.186 594.097 225.602 594.097 223.658C594.097 221.659 593.643 220.07 592.737 218.89C591.83 217.699 590.47 217.104 588.657 217.104C587.423 217.104 586.407 217.383 585.61 217.94C584.812 218.497 584.217 219.267 583.824 220.25C583.431 221.233 583.234 222.369 583.234 223.658C583.234 225.646 583.693 227.24 584.61 228.442C585.528 229.643 586.877 230.244 588.657 230.244ZM607.6 233.013C605.809 233.013 604.285 232.614 603.029 231.817C601.784 231.009 600.833 229.9 600.178 228.491C599.523 227.082 599.184 225.476 599.162 223.674C599.184 221.828 599.528 220.206 600.194 218.808C600.872 217.399 601.838 216.301 603.094 215.515C604.35 214.728 605.863 214.335 607.633 214.335C609.5 214.335 611.106 214.794 612.45 215.712C613.804 216.629 614.711 217.885 615.169 219.48L612.286 220.348C611.914 219.321 611.308 218.524 610.467 217.956C609.637 217.388 608.681 217.104 607.6 217.104C606.387 217.104 605.388 217.388 604.602 217.956C603.815 218.513 603.231 219.289 602.849 220.283C602.466 221.266 602.27 222.396 602.259 223.674C602.281 225.64 602.734 227.229 603.619 228.442C604.514 229.643 605.841 230.244 607.6 230.244C608.758 230.244 609.719 229.982 610.483 229.458C611.248 228.922 611.827 228.152 612.22 227.148L615.169 227.918C614.558 229.567 613.602 230.828 612.302 231.702C611.002 232.576 609.435 233.013 607.6 233.013ZM622.224 232.521V217.481H616.063V214.827H631.3V217.481H625.14V232.521H622.224ZM633.746 232.521L633.73 214.827H636.663V221.233H640.48C640.994 221.233 641.518 221.244 642.053 221.266C642.588 221.288 643.053 221.337 643.446 221.413C644.363 221.588 645.166 221.894 645.854 222.331C646.542 222.768 647.078 223.363 647.46 224.116C647.842 224.859 648.033 225.782 648.033 226.885C648.033 228.415 647.635 229.627 646.837 230.523C646.051 231.407 645.019 231.997 643.741 232.292C643.304 232.39 642.801 232.456 642.233 232.489C641.676 232.511 641.147 232.521 640.644 232.521H633.746ZM636.663 230.113H640.693C641.021 230.113 641.387 230.102 641.791 230.08C642.195 230.058 642.556 230.004 642.872 229.916C643.429 229.753 643.926 229.43 644.363 228.95C644.811 228.469 645.035 227.781 645.035 226.885C645.035 225.979 644.817 225.28 644.38 224.788C643.954 224.297 643.391 223.974 642.692 223.822C642.375 223.745 642.042 223.696 641.693 223.674C641.343 223.652 641.01 223.641 640.693 223.641H636.663V230.113Z" fill="white"/>
</svg>
