<svg width="169" height="152" viewBox="0 0 169 152" fill="none" xmlns="http://www.w3.org/2000/svg">
<g clip-path="url(#clip0)">
<path fill-rule="evenodd" clip-rule="evenodd" d="M80.095 49.5537L113.525 79.2864L82.8629 113.761L80.095 49.5537Z" fill="#00A2A7"/>
<path fill-rule="evenodd" clip-rule="evenodd" d="M82.8583 113.757L113.525 79.2863L146.954 109.019L82.8583 113.757Z" fill="#007A7D"/>
<path fill-rule="evenodd" clip-rule="evenodd" d="M82.8753 113.771L86.363 55.1284L113.525 79.2862L100.899 93.4816L82.8753 113.771Z" fill="#107275" fill-opacity="0.35"/>
<path fill-rule="evenodd" clip-rule="evenodd" d="M88.2738 107.677L98.8992 66.2783L113.525 79.2864L88.2738 107.677Z" fill="#0B7577" fill-opacity="0.3"/>
<path fill-rule="evenodd" clip-rule="evenodd" d="M82.8635 113.76L140.699 103.455L113.537 79.2969L100.912 93.4923L82.8635 113.76Z" fill="#086062" fill-opacity="0.35"/>
<path opacity="0.4" fill-rule="evenodd" clip-rule="evenodd" d="M100.912 93.4927L146.954 109.019L113.537 79.2974L100.912 93.4927Z" fill="url(#paint0_linear)"/>
<path fill-rule="evenodd" clip-rule="evenodd" d="M88.2861 107.688L128.162 92.3054L113.537 79.2974L88.2861 107.688Z" fill="#086062" fill-opacity="0.3"/>
<path opacity="0.5" fill-rule="evenodd" clip-rule="evenodd" d="M100.899 93.4817L80.095 49.5537L113.525 79.2864L100.899 93.4817Z" fill="#49D9DD"/>
<path fill-rule="evenodd" clip-rule="evenodd" d="M113.525 79.2866L80.0952 49.554L107.613 45.9627L113.525 79.2866Z" fill="#3ADADE"/>
<path fill-rule="evenodd" clip-rule="evenodd" d="M113.525 79.2859L146.955 109.019L147.311 81.2695L113.525 79.2859Z" fill="#35B7BB"/>
<path fill-rule="evenodd" clip-rule="evenodd" d="M110.737 82.42L121.887 69.8838L133.73 69.1906L147.311 81.2695L111.782 83.3491L110.737 82.42Z" fill="url(#paint1_linear)"/>
<path fill-rule="evenodd" clip-rule="evenodd" d="M109.693 81.4913L107.613 45.9624L121.194 58.0413L121.887 69.8843L110.737 82.4204L109.693 81.4913Z" fill="url(#paint2_linear)"/>
<path fill-rule="evenodd" clip-rule="evenodd" d="M89.3815 55.9419L107.613 45.9621L101.918 67.0917L89.3815 55.9419Z" fill="#107275" fill-opacity="0.172549"/>
<path fill-rule="evenodd" clip-rule="evenodd" d="M107.613 45.9624L95.6496 61.517L98.7836 64.3045L107.613 45.9624Z" fill="#107275" fill-opacity="0.12549"/>
<path fill-rule="evenodd" clip-rule="evenodd" d="M80.0952 49.554L107.613 45.9627L108.306 57.8056L80.0952 49.554Z" fill="#8BFCFF" fill-opacity="0.152941"/>
<path fill-rule="evenodd" clip-rule="evenodd" d="M139.526 100.541L147.311 81.2696L126.99 89.3911L139.526 100.541Z" fill="#107275" fill-opacity="0.172549"/>
<path fill-rule="evenodd" clip-rule="evenodd" d="M147.311 81.2698L133.258 94.9662L130.124 92.1787L147.311 81.2698Z" fill="#107275" fill-opacity="0.12549"/>
<path fill-rule="evenodd" clip-rule="evenodd" d="M146.954 109.019L147.311 81.2697L135.468 81.9629L146.954 109.019Z" fill="#8BFCFF" fill-opacity="0.152941"/>
<path fill-rule="evenodd" clip-rule="evenodd" d="M108.653 63.7268L121.887 69.8842L109.808 83.4651L108.653 63.7268Z" fill="#1BC1C5" fill-opacity="0.254902"/>
<path fill-rule="evenodd" clip-rule="evenodd" d="M107.613 45.9624L121.887 69.8842L121.194 58.0413L107.613 45.9624Z" fill="#1BC1C5" fill-opacity="0.254902"/>
<path fill-rule="evenodd" clip-rule="evenodd" d="M109.808 83.4646L117.015 54.3242L121.194 58.0408L109.808 83.4646Z" fill="white" fill-opacity="0.254902"/>
<path fill-rule="evenodd" clip-rule="evenodd" d="M129.546 82.3093L121.887 69.8838L109.808 83.4646L129.546 82.3093Z" fill="#1BC1C5" fill-opacity="0.254902"/>
<path fill-rule="evenodd" clip-rule="evenodd" d="M147.311 81.2695L121.887 69.8838L133.73 69.1906L147.311 81.2695Z" fill="#1BC1C5" fill-opacity="0.254902"/>
<path fill-rule="evenodd" clip-rule="evenodd" d="M109.808 83.4646L137.909 72.9072L133.73 69.1906L109.808 83.4646Z" fill="white" fill-opacity="0.254902"/>
<path fill-rule="evenodd" clip-rule="evenodd" d="M127.573 82.425L128.15 92.2941L100.517 93.9116L98.8992 66.2781L108.768 65.7004L109.808 83.4648L127.573 82.425Z" fill="url(#paint3_linear)" stroke="white" stroke-width="2"/>
<path fill-rule="evenodd" clip-rule="evenodd" d="M83.1137 50.3671L100.873 66.1625L99.0149 68.2519L81.2554 52.4564L80.0951 49.5535L83.1137 50.3671Z" fill="url(#paint4_linear)"/>
<path fill-rule="evenodd" clip-rule="evenodd" d="M145.794 106.116L128.035 90.3203L126.176 92.4097L143.936 108.205L146.954 109.019L145.794 106.116Z" fill="url(#paint5_linear)"/>
<path fill-rule="evenodd" clip-rule="evenodd" d="M83.2131 111.263L100.401 91.938L102.49 93.7963L85.3025 113.122L82.8629 113.761L83.2131 111.263Z" fill="url(#paint6_linear)"/>
<path fill-rule="evenodd" clip-rule="evenodd" d="M122.003 71.8576L111.782 83.349L109.693 81.4907L119.913 69.9993L121.887 69.8837L122.003 71.8576Z" fill="url(#paint7_linear)"/>
<path fill-rule="evenodd" clip-rule="evenodd" d="M109.124 47.8545L110.164 65.619L107.373 65.7823L106.333 48.018L107.613 45.9624L109.124 47.8545Z" fill="url(#paint8_linear)"/>
<path fill-rule="evenodd" clip-rule="evenodd" d="M145.256 79.9895L127.491 81.0294L127.654 83.8206L145.419 82.7809L147.311 81.2698L145.256 79.9895Z" fill="url(#paint9_linear)"/>
</g>
<g clip-path="url(#clip1)">
<path fill-rule="evenodd" clip-rule="evenodd" d="M6.42664 38.4419L34.2988 29.5005L43.5196 58.2436L6.42664 38.4419Z" fill="#00A2A7"/>
<path fill-rule="evenodd" clip-rule="evenodd" d="M43.5157 58.2451L34.2987 29.5007L62.1709 20.5593L43.5157 58.2451Z" fill="#007A7D"/>
<path fill-rule="evenodd" clip-rule="evenodd" d="M43.5298 58.2399L11.6528 36.7651L34.299 29.5002L38.0958 41.3357L43.5298 58.2399Z" fill="#107275" fill-opacity="0.35"/>
<path fill-rule="evenodd" clip-rule="evenodd" d="M41.8923 53.1711L22.1046 33.4121L34.2987 29.5002L41.8923 53.1711Z" fill="#0B7577" fill-opacity="0.3"/>
<path fill-rule="evenodd" clip-rule="evenodd" d="M43.5197 58.2434L56.9552 22.2324L34.3091 29.4972L38.1059 41.3327L43.5197 58.2434Z" fill="#086062" fill-opacity="0.35"/>
<path opacity="0.4" fill-rule="evenodd" clip-rule="evenodd" d="M38.106 41.333L62.1711 20.5594L34.3092 29.4976L38.106 41.333Z" fill="url(#paint10_linear)"/>
<path fill-rule="evenodd" clip-rule="evenodd" d="M41.9028 53.1684L46.5033 25.5857L34.3092 29.4976L41.9028 53.1684Z" fill="#086062" fill-opacity="0.3"/>
<path opacity="0.5" fill-rule="evenodd" clip-rule="evenodd" d="M38.0956 41.3359L6.42664 38.4419L34.2988 29.5005L38.0956 41.3359Z" fill="#49D9DD"/>
<path fill-rule="evenodd" clip-rule="evenodd" d="M34.299 29.5006L6.42688 38.442L13.5586 21.7445L34.299 29.5006Z" fill="#3ADADE"/>
<path fill-rule="evenodd" clip-rule="evenodd" d="M34.2987 29.5001L62.1709 20.5587L46.6565 11.1261L34.2987 29.5001Z" fill="#35B7BB"/>
<path fill-rule="evenodd" clip-rule="evenodd" d="M35.137 32.1131L31.7839 21.6611L35.3335 14.7585L46.6565 11.1261L36.008 31.8337L35.137 32.1131Z" fill="url(#paint11_linear)"/>
<path fill-rule="evenodd" clip-rule="evenodd" d="M34.266 32.3927L13.5583 21.7441L24.8814 18.1117L31.784 21.6612L35.137 32.1133L34.266 32.3927Z" fill="url(#paint12_linear)"/>
<path fill-rule="evenodd" clip-rule="evenodd" d="M13.1151 35.3352L13.5583 21.744L23.5672 31.9821L13.1151 35.3352Z" fill="#107275" fill-opacity="0.172549"/>
<path fill-rule="evenodd" clip-rule="evenodd" d="M13.5583 21.7441L18.3412 33.6588L20.9542 32.8205L13.5583 21.7441Z" fill="#107275" fill-opacity="0.12549"/>
<path fill-rule="evenodd" clip-rule="evenodd" d="M6.42688 38.442L13.5587 21.7445L20.4612 25.294L6.42688 38.442Z" fill="#8BFCFF" fill-opacity="0.152941"/>
<path fill-rule="evenodd" clip-rule="evenodd" d="M54.9234 21.9231L46.6565 11.1261L44.4713 25.2761L54.9234 21.9231Z" fill="#107275" fill-opacity="0.172549"/>
<path fill-rule="evenodd" clip-rule="evenodd" d="M46.6566 11.126L49.6975 23.5995L47.0845 24.4377L46.6566 11.126Z" fill="#107275" fill-opacity="0.12549"/>
<path fill-rule="evenodd" clip-rule="evenodd" d="M62.1709 20.5588L46.6566 11.1262L43.1071 18.0288L62.1709 20.5588Z" fill="#8BFCFF" fill-opacity="0.152941"/>
<path fill-rule="evenodd" clip-rule="evenodd" d="M23.9124 27.0686L31.7841 21.6614L35.4166 32.9844L23.9124 27.0686Z" fill="#1BC1C5" fill-opacity="0.254902"/>
<path fill-rule="evenodd" clip-rule="evenodd" d="M13.5583 21.7441L31.784 21.6612L24.8814 18.1117L13.5583 21.7441Z" fill="#1BC1C5" fill-opacity="0.254902"/>
<path fill-rule="evenodd" clip-rule="evenodd" d="M35.4163 32.9844L21.3973 19.2295L24.8814 18.1118L35.4163 32.9844Z" fill="white" fill-opacity="0.254902"/>
<path fill-rule="evenodd" clip-rule="evenodd" d="M41.3321 21.48L31.7838 21.6611L35.4163 32.9842L41.3321 21.48Z" fill="#1BC1C5" fill-opacity="0.254902"/>
<path fill-rule="evenodd" clip-rule="evenodd" d="M46.6565 11.1261L31.7839 21.6611L35.3335 14.7585L46.6565 11.1261Z" fill="#1BC1C5" fill-opacity="0.254902"/>
<path fill-rule="evenodd" clip-rule="evenodd" d="M35.4164 32.9841L38.8175 13.6409L35.3334 14.7585L35.4164 32.9841Z" fill="white" fill-opacity="0.254902"/>
<path fill-rule="evenodd" clip-rule="evenodd" d="M40.7407 22.6305L46.4928 25.5884L38.2107 41.6943L22.1047 33.4122L25.0627 27.66L35.4165 32.9843L40.7407 22.6305Z" fill="url(#paint13_linear)" stroke="white" stroke-width="2"/>
<path fill-rule="evenodd" clip-rule="evenodd" d="M7.88923 37.012L22.6963 32.2618L23.2551 34.0039L8.44806 38.754L6.42664 38.4418L7.88923 37.012Z" fill="url(#paint14_linear)"/>
<path fill-rule="evenodd" clip-rule="evenodd" d="M60.1494 20.2469L45.3423 24.9971L45.9011 26.7391L60.7082 21.989L62.1708 20.5591L60.1494 20.2469Z" fill="url(#paint15_linear)"/>
<path fill-rule="evenodd" clip-rule="evenodd" d="M42.2292 57.2155L37.0603 41.103L38.8023 40.5442L43.9712 56.6567L43.5197 58.2437L42.2292 57.2155Z" fill="url(#paint16_linear)"/>
<path fill-rule="evenodd" clip-rule="evenodd" d="M32.9344 22.2531L36.008 31.8341L34.266 32.393L31.1924 22.8119L31.784 21.6615L32.9344 22.2531Z" fill="url(#paint17_linear)"/>
<path fill-rule="evenodd" clip-rule="evenodd" d="M15.1271 21.5222L25.4809 26.8465L24.6443 28.4733L14.2905 23.1491L13.5583 21.7441L15.1271 21.5222Z" fill="url(#paint18_linear)"/>
<path fill-rule="evenodd" clip-rule="evenodd" d="M45.2514 11.8585L39.9272 22.2123L41.554 23.0489L46.8783 12.6951L46.6565 11.1264L45.2514 11.8585Z" fill="url(#paint19_linear)"/>
</g>
<g clip-path="url(#clip2)">
<path fill-rule="evenodd" clip-rule="evenodd" d="M128.04 11.999L142.612 18.2744L136.14 33.3011L128.04 11.999Z" fill="#00A2A7"/>
<path fill-rule="evenodd" clip-rule="evenodd" d="M136.138 33.3001L142.612 18.2743L157.183 24.5497L136.138 33.3001Z" fill="#007A7D"/>
<path fill-rule="evenodd" clip-rule="evenodd" d="M136.145 33.3033L130.772 13.1758L142.612 18.2745L139.947 24.462L136.145 33.3033Z" fill="#107275" fill-opacity="0.35"/>
<path fill-rule="evenodd" clip-rule="evenodd" d="M137.282 30.6492L136.237 15.5288L142.612 18.2743L137.282 30.6492Z" fill="#0B7577" fill-opacity="0.3"/>
<path fill-rule="evenodd" clip-rule="evenodd" d="M136.14 33.3009L154.456 23.3755L142.617 18.2767L139.952 24.4641L136.14 33.3009Z" fill="#086062" fill-opacity="0.35"/>
<path opacity="0.4" fill-rule="evenodd" clip-rule="evenodd" d="M139.952 24.4643L157.183 24.5499L142.617 18.2769L139.952 24.4643Z" fill="url(#paint20_linear)"/>
<path fill-rule="evenodd" clip-rule="evenodd" d="M137.287 30.6517L148.992 21.0223L142.617 18.2769L137.287 30.6517Z" fill="#086062" fill-opacity="0.3"/>
<path opacity="0.5" fill-rule="evenodd" clip-rule="evenodd" d="M139.947 24.4619L128.04 11.999L142.612 18.2744L139.947 24.4619Z" fill="#49D9DD"/>
<path fill-rule="evenodd" clip-rule="evenodd" d="M142.612 18.2746L128.04 11.9992L136.902 7.71833L142.612 18.2746Z" fill="#3ADADE"/>
<path fill-rule="evenodd" clip-rule="evenodd" d="M142.612 18.2741L157.183 24.5495L154.205 15.1699L142.612 18.2741Z" fill="#35B7BB"/>
<path fill-rule="evenodd" clip-rule="evenodd" d="M142.023 19.6402L144.377 14.176L148.285 12.6205L154.205 15.1699L142.479 19.8363L142.023 19.6402Z" fill="url(#paint21_linear)"/>
<path fill-rule="evenodd" clip-rule="evenodd" d="M141.568 19.4445L136.901 7.71826L142.821 10.2676L144.377 14.1764L142.023 19.6406L141.568 19.4445Z" fill="url(#paint22_linear)"/>
<path fill-rule="evenodd" clip-rule="evenodd" d="M131.879 13.1122L136.902 7.71784L137.343 15.4655L131.879 13.1122Z" fill="#107275" fill-opacity="0.172549"/>
<path fill-rule="evenodd" clip-rule="evenodd" d="M136.901 7.71826L134.611 14.2893L135.977 14.8776L136.901 7.71826Z" fill="#107275" fill-opacity="0.12549"/>
<path fill-rule="evenodd" clip-rule="evenodd" d="M128.04 11.9992L136.902 7.71833L138.457 11.6271L128.04 11.9992Z" fill="#8BFCFF" fill-opacity="0.152941"/>
<path fill-rule="evenodd" clip-rule="evenodd" d="M153.736 22.5256L154.205 15.1701L148.272 20.1723L153.736 22.5256Z" fill="#107275" fill-opacity="0.172549"/>
<path fill-rule="evenodd" clip-rule="evenodd" d="M154.205 15.1702L151.004 21.349L149.638 20.7607L154.205 15.1702Z" fill="#107275" fill-opacity="0.12549"/>
<path fill-rule="evenodd" clip-rule="evenodd" d="M157.183 24.55L154.205 15.1703L150.296 16.7258L157.183 24.55Z" fill="#8BFCFF" fill-opacity="0.152941"/>
<path fill-rule="evenodd" clip-rule="evenodd" d="M139.235 13.5814L144.377 14.1764L141.827 20.096L139.235 13.5814Z" fill="#1BC1C5" fill-opacity="0.254902"/>
<path fill-rule="evenodd" clip-rule="evenodd" d="M136.901 7.71826L144.377 14.1764L142.821 10.2676L136.901 7.71826Z" fill="#1BC1C5" fill-opacity="0.254902"/>
<path fill-rule="evenodd" clip-rule="evenodd" d="M141.827 20.0957L141 9.48291L142.821 10.2673L141.827 20.0957Z" fill="white" fill-opacity="0.254902"/>
<path fill-rule="evenodd" clip-rule="evenodd" d="M148.342 17.5034L144.376 14.1763L141.827 20.0958L148.342 17.5034Z" fill="#1BC1C5" fill-opacity="0.254902"/>
<path fill-rule="evenodd" clip-rule="evenodd" d="M154.205 15.1699L144.377 14.176L148.285 12.6205L154.205 15.1699Z" fill="#1BC1C5" fill-opacity="0.254902"/>
<path fill-rule="evenodd" clip-rule="evenodd" d="M141.827 20.0955L150.107 13.4049L148.285 12.6205L141.827 20.0955Z" fill="white" fill-opacity="0.254902"/>
<path fill-rule="evenodd" clip-rule="evenodd" d="M147.69 17.7629L148.986 21.0202L139.866 24.6496L136.237 15.5292L139.494 14.233L141.827 20.0961L147.69 17.7629Z" fill="url(#paint23_linear)" stroke="white" stroke-width="2"/>
<path fill-rule="evenodd" clip-rule="evenodd" d="M129.147 11.9357L136.888 15.2695L136.496 16.1802L128.755 12.8464L128.04 11.9988L129.147 11.9357Z" fill="url(#paint24_linear)"/>
<path fill-rule="evenodd" clip-rule="evenodd" d="M156.468 23.7025L148.727 20.3687L148.335 21.2794L156.076 24.6132L157.183 24.55L156.468 23.7025Z" fill="url(#paint25_linear)"/>
<path fill-rule="evenodd" clip-rule="evenodd" d="M135.979 32.421L139.607 23.9976L140.518 24.3898L136.89 32.8132L136.14 33.3007L135.979 32.421Z" fill="url(#paint26_linear)"/>
<path fill-rule="evenodd" clip-rule="evenodd" d="M144.636 14.8275L142.479 19.8364L141.568 19.4442L143.725 14.4353L144.377 14.1761L144.636 14.8275Z" fill="url(#paint27_linear)"/>
<path fill-rule="evenodd" clip-rule="evenodd" d="M137.621 8.18639L139.955 14.0495L139.033 14.4161L136.7 8.55304L136.901 7.71826L137.621 8.18639Z" fill="url(#paint28_linear)"/>
<path fill-rule="evenodd" clip-rule="evenodd" d="M153.37 14.9686L147.507 17.3018L147.874 18.2231L153.737 15.8899L154.205 15.17L153.37 14.9686Z" fill="url(#paint29_linear)"/>
</g>
<defs>
<linearGradient id="paint0_linear" x1="143.586" y1="107.519" x2="95.8092" y2="93.7993" gradientUnits="userSpaceOnUse">
<stop stop-color="#8CFCFF"/>
<stop offset="1" stop-color="#8CFCFF"/>
</linearGradient>
<linearGradient id="paint1_linear" x1="131.799" y1="83.3515" x2="128.19" y2="71.4097" gradientUnits="userSpaceOnUse">
<stop stop-color="#D9FFFF"/>
<stop offset="1" stop-color="#A2FDFF"/>
</linearGradient>
<linearGradient id="paint2_linear" x1="104.428" y1="64.8686" x2="119.109" y2="63.7485" gradientUnits="userSpaceOnUse">
<stop stop-color="#A8FDFF"/>
<stop offset="1" stop-color="#7EFCFF"/>
</linearGradient>
<linearGradient id="paint3_linear" x1="102.134" y1="92.0931" x2="118.652" y2="73.5211" gradientUnits="userSpaceOnUse">
<stop stop-color="#1A7274"/>
<stop offset="1" stop-color="#136062"/>
</linearGradient>
<linearGradient id="paint4_linear" x1="97.8547" y1="65.3489" x2="80.0951" y2="49.5535" gradientUnits="userSpaceOnUse">
<stop stop-color="white"/>
<stop offset="1" stop-color="white" stop-opacity="0"/>
</linearGradient>
<linearGradient id="paint5_linear" x1="129.195" y1="93.2233" x2="146.954" y2="109.019" gradientUnits="userSpaceOnUse">
<stop stop-color="white"/>
<stop offset="1" stop-color="white" stop-opacity="0"/>
</linearGradient>
<linearGradient id="paint6_linear" x1="99.5875" y1="94.9565" x2="84.7212" y2="111.671" gradientUnits="userSpaceOnUse">
<stop stop-color="white"/>
<stop offset="1" stop-color="white" stop-opacity="0"/>
</linearGradient>
<linearGradient id="paint7_linear" x1="111.724" y1="82.1422" x2="122.736" y2="69.7608" gradientUnits="userSpaceOnUse">
<stop stop-color="white"/>
<stop offset="1" stop-color="white" stop-opacity="0"/>
</linearGradient>
<linearGradient id="paint8_linear" x1="109.813" y1="66.6298" x2="108.658" y2="46.8915" gradientUnits="userSpaceOnUse">
<stop stop-color="white"/>
<stop offset="0.340332" stop-color="white"/>
<stop offset="1" stop-color="white" stop-opacity="0"/>
</linearGradient>
<linearGradient id="paint9_linear" x1="126.528" y1="81.496" x2="146.266" y2="80.3406" gradientUnits="userSpaceOnUse">
<stop stop-color="white"/>
<stop offset="0.340332" stop-color="white"/>
<stop offset="1" stop-color="white" stop-opacity="0"/>
</linearGradient>
<linearGradient id="paint10_linear" x1="60.2051" y1="21.9581" x2="36.5812" y2="44.3095" gradientUnits="userSpaceOnUse">
<stop stop-color="#8CFCFF"/>
<stop offset="1" stop-color="#8CFCFF"/>
</linearGradient>
<linearGradient id="paint11_linear" x1="42.6688" y1="20.5576" x2="34.7404" y2="18.6181" gradientUnits="userSpaceOnUse">
<stop stop-color="#D9FFFF"/>
<stop offset="1" stop-color="#A2FDFF"/>
</linearGradient>
<linearGradient id="paint12_linear" x1="23.1498" y1="29.8284" x2="27.403" y2="21.185" gradientUnits="userSpaceOnUse">
<stop stop-color="#A8FDFF"/>
<stop offset="1" stop-color="#7EFCFF"/>
</linearGradient>
<linearGradient id="paint13_linear" x1="37.7243" y1="40.1781" x2="32.7568" y2="24.6936" gradientUnits="userSpaceOnUse">
<stop stop-color="#1A7274"/>
<stop offset="1" stop-color="#136062"/>
</linearGradient>
<linearGradient id="paint14_linear" x1="21.2337" y1="33.6917" x2="6.42664" y2="38.4418" gradientUnits="userSpaceOnUse">
<stop stop-color="white"/>
<stop offset="1" stop-color="white" stop-opacity="0"/>
</linearGradient>
<linearGradient id="paint15_linear" x1="47.3637" y1="25.3092" x2="62.1708" y2="20.5591" gradientUnits="userSpaceOnUse">
<stop stop-color="white"/>
<stop offset="1" stop-color="white" stop-opacity="0"/>
</linearGradient>
<linearGradient id="paint16_linear" x1="38.4901" y1="42.5656" x2="42.9608" y2="56.5017" gradientUnits="userSpaceOnUse">
<stop stop-color="white"/>
<stop offset="1" stop-color="white" stop-opacity="0"/>
</linearGradient>
<linearGradient id="paint17_linear" x1="35.3087" y1="31.4655" x2="31.997" y2="21.1425" gradientUnits="userSpaceOnUse">
<stop stop-color="white"/>
<stop offset="1" stop-color="white" stop-opacity="0"/>
</linearGradient>
<linearGradient id="paint18_linear" x1="25.9336" y1="27.3806" x2="14.4294" y2="21.4647" gradientUnits="userSpaceOnUse">
<stop stop-color="white"/>
<stop offset="0.340332" stop-color="white"/>
<stop offset="1" stop-color="white" stop-opacity="0"/>
</linearGradient>
<linearGradient id="paint19_linear" x1="39.8697" y1="22.91" x2="45.7855" y2="11.4058" gradientUnits="userSpaceOnUse">
<stop stop-color="white"/>
<stop offset="0.340332" stop-color="white"/>
<stop offset="1" stop-color="white" stop-opacity="0"/>
</linearGradient>
<linearGradient id="paint20_linear" x1="155.882" y1="24.421" x2="138.269" y2="25.1371" gradientUnits="userSpaceOnUse">
<stop stop-color="#8CFCFF"/>
<stop offset="1" stop-color="#8CFCFF"/>
</linearGradient>
<linearGradient id="paint21_linear" x1="149.216" y1="17.6024" x2="146.668" y2="13.9859" gradientUnits="userSpaceOnUse">
<stop stop-color="#D9FFFF"/>
<stop offset="1" stop-color="#A2FDFF"/>
</linearGradient>
<linearGradient id="paint22_linear" x1="137.94" y1="14.4374" x2="142.756" y2="12.4213" gradientUnits="userSpaceOnUse">
<stop stop-color="#A8FDFF"/>
<stop offset="1" stop-color="#7EFCFF"/>
</linearGradient>
<linearGradient id="paint23_linear" x1="140.207" y1="23.857" x2="143.694" y2="15.7618" gradientUnits="userSpaceOnUse">
<stop stop-color="#1A7274"/>
<stop offset="1" stop-color="#136062"/>
</linearGradient>
<linearGradient id="paint24_linear" x1="135.781" y1="15.3326" x2="128.04" y2="11.9988" gradientUnits="userSpaceOnUse">
<stop stop-color="white"/>
<stop offset="1" stop-color="white" stop-opacity="0"/>
</linearGradient>
<linearGradient id="paint25_linear" x1="149.442" y1="21.2162" x2="157.183" y2="24.55" gradientUnits="userSpaceOnUse">
<stop stop-color="white"/>
<stop offset="1" stop-color="white" stop-opacity="0"/>
</linearGradient>
<linearGradient id="paint26_linear" x1="139.67" y1="25.1044" x2="136.532" y2="32.39" gradientUnits="userSpaceOnUse">
<stop stop-color="white"/>
<stop offset="1" stop-color="white" stop-opacity="0"/>
</linearGradient>
<linearGradient id="paint27_linear" x1="142.324" y1="19.4367" x2="144.649" y2="14.04" gradientUnits="userSpaceOnUse">
<stop stop-color="white"/>
<stop offset="1" stop-color="white" stop-opacity="0"/>
</linearGradient>
<linearGradient id="paint28_linear" x1="139.949" y1="14.429" x2="137.357" y2="7.91437" gradientUnits="userSpaceOnUse">
<stop stop-color="white"/>
<stop offset="0.340332" stop-color="white"/>
<stop offset="1" stop-color="white" stop-opacity="0"/>
</linearGradient>
<linearGradient id="paint29_linear" x1="147.235" y1="17.5664" x2="153.75" y2="14.9739" gradientUnits="userSpaceOnUse">
<stop stop-color="white"/>
<stop offset="0.340332" stop-color="white"/>
<stop offset="1" stop-color="white" stop-opacity="0"/>
</linearGradient>
<clipPath id="clip0">
<rect width="89.478" height="89.478" fill="white" transform="translate(101.465 25.5259) rotate(41.6501)"/>
</clipPath>
<clipPath id="clip1">
<rect width="58.5425" height="58.5425" fill="white" transform="translate(0 18.4087) rotate(-17.7863)"/>
</clipPath>
<clipPath id="clip2">
<rect width="31.7303" height="31.7303" fill="white" transform="translate(132.551 1.52588) rotate(23.3001)"/>
</clipPath>
</defs>
</svg>
