<svg width="23" height="23" fill="none" xmlns="http://www.w3.org/2000/svg"><circle cx="11.5" cy="11.5" r="11.5" fill="url(#paint0_linear)"/><g clip-path="url(#clip0)" fill="#EAEAEA"><path d="M9.085 10.559h-.702A3.13 3.13 0 0111.5 7.664c1.302 0 2.48.82 2.933 2.041a.355.355 0 00.666-.246 3.827 3.827 0 00-1.383-1.801 3.811 3.811 0 00-2.216-.705 3.811 3.811 0 00-2.713 1.124 3.81 3.81 0 00-1.123 2.672c-.424.246-.71.705-.71 1.23v1.208c0 .784.637 1.42 1.42 1.42h.71a.355.355 0 00.356-.354v-3.34a.355.355 0 00-.355-.354zm-.356 3.339h-.355a.711.711 0 01-.71-.71v-1.209c0-.391.319-.71.71-.71h.355v2.629z"/><path d="M14.626 10.559h-.71a.355.355 0 00-.356.355v3.712c0 .195-.16.355-.355.355h-1.083v.011a.71.71 0 100 .688v.011h1.083c.588 0 1.066-.478 1.066-1.065v-.018h.355c.783 0 1.42-.638 1.42-1.421v-1.208c0-.783-.637-1.42-1.42-1.42zm.71 2.628a.71.71 0 01-.71.71h-.355V11.27h.355c.391 0 .71.319.71.71v1.208z"/></g><defs><linearGradient id="paint0_linear" x1="0" y1="0" x2="24.032" y2="1.134" gradientUnits="userSpaceOnUse"><stop stop-color="#2989BF"/><stop offset="1" stop-color="#44C8F1"/></linearGradient><clipPath id="clip0"><path fill="#fff" transform="translate(6.953 6.953)" d="M0 0h9.093v9.093H0z"/></clipPath></defs></svg>