<svg width="253" height="359" viewBox="0 0 253 359" fill="none" xmlns="http://www.w3.org/2000/svg">
<path opacity="0.03" fill-rule="evenodd" clip-rule="evenodd" d="M270 359C272.824 359 275.527 357.953 277.486 356.101L537.101 110.469C541.021 106.76 540.958 100.879 536.958 97.2406L433.112 2.7669C431.165 0.995519 428.523 0 425.769 0H301.154C298.399 0 295.758 0.995519 293.81 2.7669L270 24.4285L246.189 2.7669C244.242 0.995519 241.601 0 238.846 0H114.231C111.476 0 108.835 0.995519 106.887 2.7669L3.04151 97.2406C-0.957737 100.879 -1.02109 106.76 2.89897 110.469L262.514 356.101C264.473 357.953 267.175 359 270 359ZM280.384 41.703L305.455 18.8947H400.698L280.384 128.35V41.703ZM259.615 128.35V41.703L234.544 18.8947H139.302L183.882 59.4511C183.884 59.4535 183.885 59.4558 183.888 59.457L259.615 128.35ZM176.538 79.4925L262.657 157.838C266.712 161.528 273.288 161.528 277.343 157.838L363.461 79.4925L390.313 103.921L270 213.376L149.686 103.921L176.538 79.4925ZM130.698 113.368L259.615 230.65V326.097L34.7762 113.368H130.698ZM35.4552 94.4737L114.231 22.8083L161.852 66.1316L130.698 94.4737H35.4552ZM280.384 326.097V230.65L409.302 113.368H505.223L280.384 326.097ZM504.544 94.4737H409.302L378.148 66.1316L425.769 22.8083L504.544 94.4737Z" fill="white"/>
</svg>
