<svg width="23" height="23" fill="none" xmlns="http://www.w3.org/2000/svg"><circle cx="11.5" cy="11.5" r="11.5" fill="url(#paint0_linear)"/><g clip-path="url(#clip0)" fill="#EAEAEA"><path d="M15.746 8.95H9.514a.3.3 0 00-.3.3v4.5a.3.3 0 00.3.3h6.233a.3.3 0 00.3-.3v-4.5a.3.3 0 00-.3-.3zm-.818.6l-2.377 2.012-2.25-2.013h4.627zm.518 3.9H9.815V9.92l2.53 2.264a.3.3 0 00.394.005l2.707-2.292v3.554zM8.654 11.2h-.52a.3.3 0 100 .6h.52a.3.3 0 000-.6zm0 1.22h-1.4a.3.3 0 000 .6h1.4a.3.3 0 100-.6zm0-2.44h-1.4a.3.3 0 100 .6h1.4a.3.3 0 000-.6z"/></g><defs><linearGradient id="paint0_linear" x1="0" y1="0" x2="24.032" y2="1.134" gradientUnits="userSpaceOnUse"><stop stop-color="#2989BF"/><stop offset="1" stop-color="#44C8F1"/></linearGradient><clipPath id="clip0"><path fill="#fff" transform="translate(6.953 6.953)" d="M0 0h9.093v9.093H0z"/></clipPath></defs></svg>