<svg width="253" height="359" fill="none" xmlns="http://www.w3.org/2000/svg"><path opacity=".03" fill-rule="evenodd" clip-rule="evenodd" d="M270 359c2.824 0 5.527-1.047 7.486-2.899l259.615-245.632c3.92-3.709 3.857-9.59-.143-13.228L433.112 2.767C431.165.996 428.523 0 425.769 0H301.154c-2.755 0-5.396.996-7.344 2.767L270 24.429 246.189 2.767C244.242.996 241.601 0 238.846 0H114.231c-2.755 0-5.396.996-7.344 2.767L3.042 97.24c-4 3.638-4.063 9.519-.143 13.228L262.514 356.1c1.959 1.852 4.661 2.899 7.486 2.899zm10.384-317.297l25.071-22.808h95.243L280.384 128.35V41.703zm-20.769 86.647V41.703l-25.071-22.808h-95.242l44.58 40.556c.002.002.003.005.006.006l75.727 68.893zm-83.077-48.857l86.119 78.345c4.055 3.69 10.631 3.69 14.686 0l86.118-78.345 26.852 24.428L270 213.376 149.686 103.921l26.852-24.428zm-45.84 33.875L259.615 230.65v95.447L34.776 113.368h95.922zM35.455 94.474l78.776-71.666 47.621 43.324-31.154 28.342H35.455zm244.929 231.623V230.65l128.918-117.282h95.921L280.384 326.097zm224.16-231.623h-95.242l-31.154-28.342 47.621-43.324 78.775 71.666z" fill="#fff"/></svg>