<svg width="174" height="173" viewBox="0 0 174 173" fill="none" xmlns="http://www.w3.org/2000/svg">
<g filter="url(#filter0_d)">
<path d="M114.286 123.055C117.455 123.736 120.683 124.105 123.924 124.157C124.689 124.178 125.447 124.002 126.125 123.645C126.803 123.289 127.379 122.764 127.798 122.121C129.009 120.352 130.106 118.508 131.085 116.6L131.582 28.1101C129.798 25.4725 127.725 23.0439 125.401 20.8697C124.119 20.0407 122.614 19.6264 121.089 19.6828C119.208 19.0311 117.288 18.5025 115.339 18.1003L38.1138 67.5256C36.8761 69.2589 36.2934 71.3762 36.4698 73.4986C36.9718 74.8852 37.7497 76.1547 38.7565 77.2299C62.8615 94.2113 88.0968 109.522 114.286 123.055Z" fill="#B30000"/>
<path d="M89.7833 71.2654C88.6716 73.0671 87.1274 74.5606 85.2924 75.6088C83.4575 76.657 81.3906 77.2262 79.2816 77.2642L39.9569 72.2189C37.0773 71.4263 36.3198 68.5511 38.8968 64.8157L71.9207 18.7916C72.8245 17.2073 74.157 15.9118 75.7634 15.0558C77.3699 14.1998 79.1843 13.8184 80.996 13.9557L119.633 17.4785C122.719 18.3277 123.59 20.7898 121.332 24.1686L89.7833 71.2654Z" fill="url(#paint0_linear)"/>
<path d="M131.697 117.331C131.377 118.125 130.862 118.827 130.198 119.372C129.534 119.917 128.741 120.288 127.893 120.452C127.045 120.615 126.168 120.566 125.341 120.309C124.515 120.051 123.765 119.594 123.16 118.978L91.8558 85.0527C90.5633 83.3066 89.8436 81.2113 89.7949 79.0525C89.7461 76.8937 90.3707 74.7764 91.5835 72.9892L122.464 26.8737C124.947 23.5611 128.684 23.0356 131.19 26.1675L160.01 60.9628C161.109 62.5786 161.725 64.4671 161.786 66.4093C161.848 68.3515 161.352 70.2681 160.358 71.937L131.697 117.331Z" fill="url(#paint1_linear)"/>
<path d="M132.422 78.3473C131.996 79.211 131.363 79.9547 130.579 80.5106C129.796 81.0665 128.887 81.417 127.936 81.53C126.985 81.6431 126.022 81.5152 125.134 81.158C124.246 80.8008 123.462 80.2257 122.853 79.4849C121.429 77.6443 120.608 75.4043 120.5 73.0714C120.393 70.7385 121.005 68.4267 122.253 66.4526C122.678 65.5888 123.312 64.8451 124.095 64.2892C124.879 63.7333 125.788 63.3829 126.739 63.2698C127.69 63.1567 128.653 63.2846 129.541 63.6418C130.429 63.999 131.213 64.5742 131.822 65.3149C133.246 67.1555 134.067 69.3956 134.175 71.7285C134.282 74.0614 133.67 76.3731 132.422 78.3473Z" fill="url(#paint2_linear)"/>
<path style="mix-blend-mode:screen" d="M131.697 117.331C131.377 118.125 130.862 118.827 130.198 119.372C129.534 119.917 128.741 120.288 127.893 120.452C127.045 120.615 126.168 120.566 125.341 120.309C124.515 120.051 123.765 119.594 123.16 118.978L91.8558 85.0527C90.5633 83.3066 89.8436 81.2113 89.7949 79.0525C89.7461 76.8937 90.3707 74.7764 91.5835 72.9892L122.464 26.8737C124.947 23.5611 128.684 23.0356 131.19 26.1675L160.01 60.9628C161.109 62.5786 161.725 64.4671 161.786 66.4093C161.848 68.3515 161.352 70.2681 160.358 71.937L131.697 117.331Z" fill="url(#paint3_linear)"/>
<path style="mix-blend-mode:screen" d="M108.74 80.6995C108.699 60.9245 114.048 41.4915 124.201 24.5223C123.426 25.1345 122.72 25.831 122.095 26.599L91.6558 72.677C90.4605 74.4629 89.8385 76.5742 89.8747 78.7233C89.9109 80.8724 90.6035 82.9547 91.8581 84.6864L122.582 118.821C123.17 119.431 123.9 119.882 124.707 120.134C125.514 120.386 126.371 120.43 127.202 120.263C128.032 120.095 128.808 119.722 129.461 119.176C130.113 118.63 130.621 117.928 130.937 117.136C130.937 117.136 110.889 96.7865 108.74 80.6995Z" fill="url(#paint4_linear)"/>
<path d="M84.9552 117.749C80.4722 117.018 76.3391 114.876 73.1592 111.636L41.4582 79.0965C38.0272 75.5062 39.6747 73.5341 44.5118 74.4244L79.5515 78.7764C84.6717 80.469 89.1815 83.6273 92.5192 87.858L121.067 118.206C123.938 121.422 122.552 123.246 118.126 122.468L84.9552 117.749Z" fill="url(#paint5_linear)"/>
<path d="M85.206 44.7599C84.0837 46.3303 82.5762 47.6229 80.8009 48.537C79.0256 49.4511 77.0302 49.9621 74.97 50.0304C71.8798 49.1799 71.3914 46.641 73.7224 43.348C74.8694 41.8 76.383 40.524 78.1534 39.6125C79.9238 38.7009 81.9067 38.1766 83.9584 38.0776C86.9396 38.4609 87.4251 41.8733 85.206 44.7599Z" fill="url(#paint6_linear)"/>
<path d="M62.8241 57.5285C61.7614 59.0712 60.3787 60.3575 58.7762 61.294C57.1737 62.2305 55.3916 62.7938 53.559 62.943C50.8243 62.1903 50.5085 59.5203 52.8672 56.2948C53.8597 54.7243 55.1983 53.4105 56.7743 52.4603C58.3503 51.5101 60.1191 50.9503 61.9369 50.8265C64.7817 51.179 65.2378 54.1029 62.8241 57.5285Z" fill="url(#paint7_linear)"/>
<path d="M106.157 31.6281C105.103 33.2389 103.714 34.5835 102.098 35.5574C100.481 36.5313 98.6813 37.1082 96.8378 37.2433C94.2987 36.5445 93.7491 33.9613 95.9391 30.5845C96.9711 29.0239 98.3242 27.7207 99.8955 26.7739C101.467 25.8271 103.215 25.2619 105.007 25.121C107.911 25.2571 108.542 28.3051 106.157 31.6281Z" fill="url(#paint8_linear)"/>
<path d="M86.7528 60.4465C85.6803 62.1959 84.2594 63.6634 82.6072 64.728C80.955 65.7926 79.1186 66.424 77.2493 66.5702C74.5718 65.8333 74.1304 62.952 76.5871 59.2585C77.5977 57.4902 78.9773 56.0005 80.6024 54.9227C82.2275 53.8448 84.0474 53.2125 85.8994 53.0821C88.6946 53.3915 89.0183 56.7004 86.7528 60.4465Z" fill="url(#paint9_linear)"/>
<path d="M83.1379 29.5746C82.071 31.2255 80.5948 32.5884 78.8402 33.5424C77.0856 34.4964 75.1067 35.0121 73.0788 35.0438C70.2074 34.2536 69.6885 31.8224 72.0676 28.3583C73.1819 26.781 74.6662 25.4845 76.4023 24.5719C78.1385 23.6593 80.0786 23.1559 82.0681 23.1018C85.0566 23.4667 86.3419 26.5663 83.1379 29.5746Z" fill="url(#paint10_linear)"/>
<path d="M107.034 111.338C109.308 114.476 108.73 116.578 105.684 116.242C101.875 115.673 98.4682 113.573 96.1031 110.339C93.7649 107.434 94.3434 105.332 97.453 105.434C101.184 106.22 104.532 108.283 107.034 111.338Z" fill="url(#paint11_linear)"/>
<path d="M64.8514 86.735C66.8029 89.5461 66.3514 91.9485 63.4939 91.6674C60.1314 91.0382 57.1284 89.1502 54.9159 86.2744C52.8341 83.1748 53.2211 81.0073 56.3381 81.1072C59.7211 81.7617 62.7151 83.7409 64.8514 86.735Z" fill="url(#paint12_linear)"/>
<path d="M85.688 99.1578C88.1474 101.723 87.8207 103.732 84.5607 103.254C80.8468 102.509 77.463 100.616 74.9598 97.8837C72.5004 95.3183 73.0373 93.3677 76.0872 93.7875C79.8069 94.517 83.1958 96.4126 85.688 99.1578Z" fill="url(#paint13_linear)"/>
<path style="mix-blend-mode:multiply" opacity="0.5" d="M84.9552 117.749C80.4722 117.018 76.3391 114.876 73.1592 111.636L41.4582 79.0965C38.0272 75.5062 39.6747 73.5341 44.5118 74.4244L79.5515 78.7764C84.6717 80.469 89.1815 83.6273 92.5192 87.858L121.067 118.206C123.938 121.422 122.552 123.246 118.126 122.468L84.9552 117.749Z" fill="url(#paint14_linear)"/>
<path style="mix-blend-mode:screen" d="M89.7833 71.2654C88.6716 73.0671 87.1274 74.5606 85.2924 75.6088C83.4575 76.657 81.3906 77.2262 79.2816 77.2642L39.9569 72.2189C37.0773 71.4263 36.3198 68.5511 38.8968 64.8157L71.9207 18.7916C72.8245 17.2073 74.157 15.9118 75.7634 15.0558C77.3699 14.1998 79.1843 13.8184 80.996 13.9557L119.633 17.4785C122.719 18.3277 123.59 20.7898 121.332 24.1686L89.7833 71.2654Z" fill="url(#paint15_linear)"/>
<path opacity="0.8" d="M103.428 17.3583L80.9048 15.4822C76.3448 15.308 74.44 18.2423 71.3876 22.1576C68.3351 26.073 57.4977 42.3283 57.4977 42.3283C57.4977 42.3283 71.3911 24.5363 73.4273 22.719C74.7341 21.0652 76.4154 19.7375 78.3379 18.8409C80.2605 17.9444 82.3715 17.5036 84.5038 17.5536C88.5625 17.1576 103.428 17.3583 103.428 17.3583Z" fill="white"/>
<path opacity="0.8" d="M95.249 62.8446C92.9493 66.7523 90.2916 70.436 87.311 73.8475C86.0944 74.9375 84.6667 75.7619 83.1187 76.2682C81.5706 76.7746 79.936 76.9519 78.3187 76.7888C75.0401 76.6991 71.7745 76.3514 68.5517 75.7491C71.7409 75.7321 74.9265 75.5076 78.0884 75.077C80.8839 74.6364 83.5574 73.6067 85.9339 72.0555C89.2921 69.2559 92.4085 66.1745 95.249 62.8446Z" fill="white"/>
</g>
<defs>
<filter id="filter0_d" x="0.438843" y="13.9287" width="173.352" height="158.23" filterUnits="userSpaceOnUse" color-interpolation-filters="sRGB">
<feFlood flood-opacity="0" result="BackgroundImageFix"/>
<feColorMatrix in="SourceAlpha" type="matrix" values="0 0 0 0 0 0 0 0 0 0 0 0 0 0 0 0 0 0 127 0"/>
<feOffset dx="-12" dy="24"/>
<feGaussianBlur stdDeviation="12"/>
<feColorMatrix type="matrix" values="0 0 0 0 0 0 0 0 0 0 0 0 0 0 0 0 0 0 0.24 0"/>
<feBlend mode="normal" in2="BackgroundImageFix" result="effect1_dropShadow"/>
<feBlend mode="normal" in="SourceGraphic" in2="effect1_dropShadow" result="shape"/>
</filter>
<linearGradient id="paint0_linear" x1="1334.73" y1="1396.15" x2="1455.92" y2="1515.92" gradientUnits="userSpaceOnUse">
<stop stop-color="#FF2522"/>
<stop offset="1" stop-color="#E00A09"/>
</linearGradient>
<linearGradient id="paint1_linear" x1="1364.15" y1="1761.97" x2="1534.37" y2="1850.81" gradientUnits="userSpaceOnUse">
<stop stop-color="#BB0000"/>
<stop offset="1" stop-color="#800000"/>
</linearGradient>
<linearGradient id="paint2_linear" x1="402.401" y1="418.533" x2="411.141" y2="420.939" gradientUnits="userSpaceOnUse">
<stop stop-color="#C5C3C2"/>
<stop offset="0.31" stop-color="#B8B6B5"/>
<stop offset="0.9" stop-color="#959392"/>
<stop offset="0.99" stop-color="#8E8C8B"/>
</linearGradient>
<linearGradient id="paint3_linear" x1="1373.78" y1="1747.17" x2="1539.15" y2="1856.16" gradientUnits="userSpaceOnUse">
<stop stop-color="#AA1D1D"/>
<stop offset="0.04" stop-color="#991A1A"/>
<stop offset="0.14" stop-color="#701313"/>
<stop offset="0.25" stop-color="#4E0D0D"/>
<stop offset="0.37" stop-color="#310808"/>
<stop offset="0.49" stop-color="#1B0505"/>
<stop offset="0.62" stop-color="#0C0202"/>
<stop offset="0.78" stop-color="#030000"/>
<stop offset="1"/>
</linearGradient>
<linearGradient id="paint4_linear" x1="847.758" y1="1732.18" x2="1078.63" y2="1755.79" gradientUnits="userSpaceOnUse">
<stop stop-color="#727272"/>
<stop offset="0.23" stop-color="#515151"/>
<stop offset="0.57" stop-color="#252525"/>
<stop offset="0.84" stop-color="#0A0A0A"/>
<stop offset="1"/>
</linearGradient>
<linearGradient id="paint5_linear" x1="1558.32" y1="1066.52" x2="1940.3" y2="1163.3" gradientUnits="userSpaceOnUse">
<stop stop-color="#8F0000"/>
<stop offset="1" stop-color="#6F0000"/>
</linearGradient>
<linearGradient id="paint6_linear" x1="309.163" y1="305.439" x2="315.699" y2="307.237" gradientUnits="userSpaceOnUse">
<stop stop-color="#F3F5F4"/>
<stop offset="0.28" stop-color="#E5E5E4"/>
<stop offset="0.84" stop-color="#BFBDBB"/>
<stop offset="0.99" stop-color="#B3B0AE"/>
</linearGradient>
<linearGradient id="paint7_linear" x1="244.384" y1="318.422" x2="250.301" y2="320.05" gradientUnits="userSpaceOnUse">
<stop stop-color="#F3F5F4"/>
<stop offset="0.28" stop-color="#E5E5E4"/>
<stop offset="0.84" stop-color="#BFBDBB"/>
<stop offset="0.99" stop-color="#B3B0AE"/>
</linearGradient>
<linearGradient id="paint8_linear" x1="311.45" y1="275.111" x2="317.366" y2="276.739" gradientUnits="userSpaceOnUse">
<stop stop-color="#F3F5F4"/>
<stop offset="0.28" stop-color="#E5E5E4"/>
<stop offset="0.84" stop-color="#BFBDBB"/>
<stop offset="0.99" stop-color="#B3B0AE"/>
</linearGradient>
<linearGradient id="paint9_linear" x1="275.344" y1="341.959" x2="281.369" y2="343.617" gradientUnits="userSpaceOnUse">
<stop stop-color="#F3F5F4"/>
<stop offset="0.28" stop-color="#E5E5E4"/>
<stop offset="0.84" stop-color="#BFBDBB"/>
<stop offset="0.99" stop-color="#B3B0AE"/>
</linearGradient>
<linearGradient id="paint10_linear" x1="306.54" y1="280.703" x2="313.075" y2="282.502" gradientUnits="userSpaceOnUse">
<stop stop-color="#F3F5F4"/>
<stop offset="0.28" stop-color="#E5E5E4"/>
<stop offset="0.84" stop-color="#BFBDBB"/>
<stop offset="0.99" stop-color="#B3B0AE"/>
</linearGradient>
<linearGradient id="paint11_linear" x1="434.89" y1="345.742" x2="440.674" y2="343.574" gradientUnits="userSpaceOnUse">
<stop stop-color="#A6A4A3"/>
<stop offset="0.99" stop-color="#7F7D7C"/>
</linearGradient>
<linearGradient id="paint12_linear" x1="330.592" y1="297.854" x2="338.395" y2="302.317" gradientUnits="userSpaceOnUse">
<stop stop-color="#A6A4A3"/>
<stop offset="0.99" stop-color="#7F7D7C"/>
</linearGradient>
<linearGradient id="paint13_linear" x1="405.081" y1="305.148" x2="410.534" y2="302.384" gradientUnits="userSpaceOnUse">
<stop stop-color="#A6A4A3"/>
<stop offset="0.99" stop-color="#7F7D7C"/>
</linearGradient>
<linearGradient id="paint14_linear" x1="80.5308" y1="74.4154" x2="81.4718" y2="122.98" gradientUnits="userSpaceOnUse">
<stop stop-color="white"/>
<stop offset="0.19" stop-color="#DBC0C0"/>
<stop offset="0.41" stop-color="#B57C7C"/>
<stop offset="0.61" stop-color="#974747"/>
<stop offset="0.78" stop-color="#812020"/>
<stop offset="0.91" stop-color="#740909"/>
<stop offset="1" stop-color="#6F0000"/>
</linearGradient>
<linearGradient id="paint15_linear" x1="1281.36" y1="1392.96" x2="1502.11" y2="1514.16" gradientUnits="userSpaceOnUse">
<stop stop-color="#727272"/>
<stop offset="0.23" stop-color="#515151"/>
<stop offset="0.57" stop-color="#252525"/>
<stop offset="0.84" stop-color="#0A0A0A"/>
<stop offset="1"/>
</linearGradient>
</defs>
</svg>
