<svg width="40" height="17" viewBox="0 0 40 17" fill="none" xmlns="http://www.w3.org/2000/svg">
<path d="M2.81111 6.63194C2.81111 6.19132 3.16667 6.02185 3.75556 6.02185C4.6 6.02185 5.66667 6.2817 6.51111 6.74492V4.08989C5.58889 3.71705 4.67778 3.57018 3.75556 3.57018C1.5 3.57018 0 4.76777 0 6.76752C0 9.88577 4.22222 9.38866 4.22222 10.7331C4.22222 11.2528 3.77778 11.4223 3.15556 11.4223C2.23333 11.4223 1.05556 11.0382 0.122222 10.5185V13.2074C1.15556 13.6593 2.2 13.8514 3.15556 13.8514C5.46667 13.8514 7.05556 12.6877 7.05556 10.6653C7.04444 7.29853 2.81111 7.89732 2.81111 6.63194ZM10.3222 1.31057L7.61111 1.89807L7.6 10.9478C7.6 12.6199 8.83333 13.8514 10.4778 13.8514C11.3889 13.8514 12.0556 13.6819 12.4222 13.4785V11.185C12.0667 11.3319 10.3111 11.8516 10.3111 10.1795V6.16872H12.4222V3.76224H10.3111L10.3222 1.31057ZM15.8778 4.5983L15.7 3.76224H13.3V13.648H16.0778V6.94829C16.7333 6.07834 17.8444 6.23651 18.1889 6.36079V3.76224C17.8333 3.62667 16.5333 3.37811 15.8778 4.5983ZM18.8667 3.76224H21.6556V13.648H18.8667V3.76224ZM18.8667 2.90359L21.6556 2.2935V0L18.8667 0.598795V2.90359ZM27.4556 3.57018C26.3667 3.57018 25.6667 4.08989 25.2778 4.45142L25.1333 3.75094H22.6889V16.9244L25.4667 16.3256L25.4778 13.1283C25.8778 13.4221 26.4667 13.8401 27.4444 13.8401C29.4333 13.8401 31.2444 12.2132 31.2444 8.63169C31.2333 5.35526 29.4 3.57018 27.4556 3.57018ZM26.7889 11.3545C26.1333 11.3545 25.7444 11.1173 25.4778 10.8235L25.4667 6.63194C25.7556 6.3043 26.1556 6.07834 26.7889 6.07834C27.8 6.07834 28.5 7.23074 28.5 8.71078C28.5 10.2247 27.8111 11.3545 26.7889 11.3545ZM40 8.74467C40 5.85238 38.6222 3.57018 35.9889 3.57018C33.3444 3.57018 31.7444 5.85238 31.7444 8.72208C31.7444 12.1228 33.6333 13.8401 36.3444 13.8401C37.6667 13.8401 38.6667 13.535 39.4222 13.1057V10.8461C38.6667 11.2302 37.8 11.4675 36.7 11.4675C35.6222 11.4675 34.6667 11.0834 34.5444 9.7502H39.9778C39.9778 9.60332 40 9.01583 40 8.74467ZM34.5111 7.67136C34.5111 6.39468 35.2778 5.86368 35.9778 5.86368C36.6556 5.86368 37.3778 6.39468 37.3778 7.67136H34.5111Z" fill="#999FAE"/>
</svg>
