<svg width="63" height="131" viewBox="0 0 63 131" fill="none" xmlns="http://www.w3.org/2000/svg">
<path opacity="0.1" d="M41.4384 128.374C41.4384 129.824 34.0135 131 25.1037 131C16.1938 131 9.24414 129.794 9.24414 128.374C9.24414 126.954 16.2384 125.74 25.1259 125.74C34.0135 125.74 41.4384 126.923 41.4384 128.374Z" fill="#171211"/>
<path d="M26.9896 116.929L26.2249 124.594L23.3589 124.785L23.8192 116.463L26.9896 116.929Z" fill="#5C202C"/>
<path d="M22.2748 121.242C21.2788 122.667 19.9159 123.777 18.3396 124.449C15.9043 125.38 13.7214 126.503 13.9961 128.022C13.9961 128.022 17.805 129.648 23.6484 127.19L23.6855 127.839L27.6133 127.411L27.2792 122.067L24.0271 122.51L24.235 121.968L22.2748 121.242Z" fill="#2F2421"/>
<path d="M21.0639 127.442C15.7849 129.205 14.3222 127.717 14.0029 127.633C13.9769 127.764 13.9769 127.899 14.0029 128.03C14.0029 128.03 17.8119 129.656 23.6552 127.197L23.6924 127.846L27.6201 127.419L27.5533 126.342C26.1648 126.526 24.962 126.136 21.0639 127.442Z" fill="black"/>
<path d="M18.7482 108.507L13.7661 114.272L15.5629 116.57L21.2207 110.607L18.7482 108.507Z" fill="#5C202C"/>
<path d="M18.8371 115.004C18.489 116.723 18.6124 118.507 19.1935 120.158C20.1662 122.632 21.0126 125.258 19.7355 126.083C19.7355 126.083 15.8301 124.075 13.6249 117.967L13.1348 118.379L10.7886 115.111L14.85 111.729L16.7433 114.523L16.9958 113.989L18.8371 115.004Z" fill="#2F2421"/>
<path d="M15.5114 120.937C16.5777 122.945 18.1432 124.626 20.048 125.808C19.9691 125.915 19.8738 126.008 19.7658 126.083C19.7658 126.083 15.8603 124.075 13.6551 117.967L13.1651 118.379L10.8188 115.111L11.8435 114.256C12.6231 115.44 13.6774 117.662 15.5114 120.937Z" fill="black"/>
<path d="M36.1964 80.4568L34.4887 61.3237C30.934 62.6224 27.1617 63.1728 23.3959 62.9423C18.5475 62.7438 17.1516 61.7055 17.1516 61.7055L17.0774 61.4688H16.6393L19.7726 102.85L15.043 110.134C15.043 110.134 15.1172 113.188 19.1266 115.631L20.5077 113.76L20.9754 120.785C20.9754 120.785 22.5272 122.762 27.9251 121.548L26.8708 105.064L35.9662 92.6345C37.4958 91.1686 36.7607 84.992 36.1964 80.4568ZM26.1134 93.1461L24.6285 70.3253L27.4276 70.8292L29.2764 88.2216L26.1134 93.1461Z" fill="#7C786F"/>
<path d="M32.2539 62.8431C33.0401 62.646 33.7917 62.324 34.4814 61.8887C34.9194 61.7055 34.86 62.2399 34.912 62.7973C34.9714 63.5608 34.8675 63.9349 34.4739 64.0952C33.908 64.5484 33.2511 64.8665 32.5509 65.0267C32.4692 64.3014 32.3653 63.5684 32.2539 62.8431Z" fill="#050404"/>
<path d="M21.4659 63.4771C23.2913 63.6649 25.1275 63.7185 26.9603 63.6374C28.3228 63.5897 29.679 63.4237 31.0143 63.1411C30.9888 63.9075 31.036 64.6746 31.1554 65.4316C29.7862 65.7444 28.3918 65.9258 26.99 65.9737C26.344 65.9737 25.7129 65.9737 25.0967 65.9737C23.8074 65.945 22.5208 65.8404 21.2432 65.6606C21.38 64.941 21.4545 64.2103 21.4659 63.4771Z" fill="#050404"/>
<path d="M16.5653 63.3086C16.6469 62.7513 16.7063 62.2627 17.1444 62.4459C18.1844 62.876 19.2677 63.1858 20.3742 63.3697C20.3297 64.1332 20.2406 64.8127 20.1515 65.5304C18.9878 65.3196 17.8516 64.9712 16.7657 64.4921C16.4613 64.3165 16.4762 63.8736 16.5653 63.3086Z" fill="#050404"/>
<path d="M24.2204 63.324L24.1685 66.271L28.0591 66.0114L28.1111 63.2705L24.2204 63.324ZM24.8664 63.8126H27.4428L27.4057 65.6221L24.8367 65.79L24.8664 63.8126Z" fill="#AEAEAE"/>
<path d="M26.4031 28.4861L26.1803 38.213L20.478 35.5865L20.6562 25.5771L26.4031 28.4861Z" fill="#E8BCA5"/>
<path d="M21.6584 4.2682C16.2457 5.54323 16.3868 9.36832 16.3868 9.36832C16.3868 9.36832 16.5575 12.323 16.6615 15.8351C16.4218 15.4771 16.0662 15.2184 15.6582 15.1052C15.2502 14.9919 14.8163 15.0314 14.434 15.2167C12.5926 16.026 13.9588 21.9965 16.758 21.4773C16.7822 22.634 16.9468 23.783 17.248 24.8978C18.0351 26.5927 21.4951 29.1809 24.5615 29.5856C27.628 29.9902 31.4815 27.8906 31.4815 24.1648C31.4815 20.439 31.5261 6.6732 31.5261 6.6732C31.5261 6.6732 30.6202 2.16859 21.6584 4.2682Z" fill="#FFCEB1"/>
<path d="M23.3659 15.5528C23.3659 16.3621 23.017 17.0264 22.6235 17.0264C22.2299 17.0264 21.8364 16.3621 21.8364 15.5528C21.8364 14.7435 22.1854 14.0869 22.6235 14.0869C23.0615 14.0869 23.3659 14.7435 23.3659 15.5528Z" fill="#1C1C24"/>
<path d="M29.9744 15.8808C29.9744 16.6901 29.6254 17.3467 29.1873 17.3467C28.7493 17.3467 28.4077 16.6901 28.4077 15.8808C28.4077 15.0715 28.7567 14.4072 29.1873 14.4072C29.618 14.4072 29.9744 15.0638 29.9744 15.8808Z" fill="#1C1C24"/>
<path d="M24.6433 12.2161C24.6433 12.2161 24.2869 12.2161 23.8414 12.2161C23.3959 12.2161 22.8465 12.2161 22.3565 12.2161H22.0149C21.9035 12.2161 21.7847 12.2161 21.6882 12.2772C21.4785 12.319 21.2742 12.3856 21.0794 12.4757C20.9143 12.548 20.7532 12.6295 20.5968 12.72L20.374 12.8269C20.374 12.8269 20.374 12.7429 20.374 12.5826C20.3968 12.364 20.4652 12.153 20.5745 11.9641C20.6399 11.8275 20.7278 11.7035 20.8344 11.5977C20.9464 11.4639 21.0794 11.3503 21.2279 11.2617C21.382 11.161 21.5496 11.0839 21.7253 11.0327C21.9047 10.9805 22.0888 10.9473 22.2748 10.9334C22.4527 10.918 22.6315 10.918 22.8094 10.9334C22.9742 10.9595 23.1359 11.003 23.292 11.0632C23.5592 11.166 23.8096 11.3102 24.0345 11.4908C24.2906 11.6794 24.4993 11.928 24.6433 12.2161Z" fill="#8E6537"/>
<path d="M27.873 12.2163C27.9492 11.9672 28.0844 11.7416 28.2666 11.5597C28.4472 11.3735 28.6616 11.2257 28.8977 11.1245C29.1896 10.9939 29.5088 10.9413 29.8258 10.9718C30.1676 11.008 30.4909 11.149 30.7539 11.3764C30.8685 11.4763 30.9664 11.595 31.0435 11.7277C31.1159 11.8377 31.171 11.9588 31.2068 12.0865C31.2707 12.2645 31.296 12.4547 31.2811 12.6438C31.2884 12.7149 31.2884 12.7866 31.2811 12.8576C31.217 12.8291 31.155 12.7959 31.0954 12.7584C30.9766 12.6973 30.843 12.598 30.6797 12.5217C30.6034 12.4773 30.524 12.439 30.4421 12.4072C30.2067 12.3014 29.9557 12.2369 29.6996 12.2163C29.3212 12.193 28.9419 12.193 28.5636 12.2163C28.2146 12.2163 27.873 12.2163 27.873 12.2163Z" fill="#8E6537"/>
<path opacity="0.4" d="M14.6939 16.2397C15.6517 15.7435 16.5055 17.3315 16.5427 19.0341C15.7556 18.9119 15.622 19.851 16.06 20.5153C14.5008 20.8589 13.6767 16.7971 14.6939 16.2397Z" fill="#C87761"/>
<path d="M26.7295 14.0103C26.8339 14.2353 26.9232 14.4674 26.9968 14.705C27.0785 14.9417 27.1602 15.1784 27.2196 15.4151C27.3532 15.8961 27.4646 16.3847 27.5759 16.8734C27.6873 17.362 27.7541 17.8506 27.8284 18.3393C27.9026 18.8279 27.9843 19.3242 28.0363 19.8204V19.9044H27.9695C27.3829 20.1945 26.7963 20.4694 26.1875 20.7214C26.7444 20.3625 27.3012 20.0342 27.8729 19.7059L27.8135 19.8281C27.7022 19.3394 27.6279 18.8508 27.5388 18.3622C27.4497 17.8735 27.3829 17.3849 27.2938 16.8963C27.2047 16.4076 27.1008 15.9266 27.0265 15.438C26.982 15.1937 26.9151 14.957 26.878 14.6745C26.8409 14.392 26.7889 14.2546 26.7295 14.0103Z" fill="#E69483"/>
<path d="M31.6373 7.71927C32.7584 7.56657 34.8374 5.26083 34.0281 2.85583C34.0281 2.85583 33.8202 4.1614 32.0457 4.1614C32.0457 4.1614 33.0629 3.74148 33.2633 3.11541C33.2633 3.11541 31.9937 3.8789 28.994 2.02362C28.7267 1.84802 28.4223 1.67241 28.0882 1.49681C27.6568 1.23567 27.2018 1.01832 26.7295 0.847841C23.2769 -0.541715 18.3913 -0.976905 16.7059 5.59676C16.6644 5.71817 16.6345 5.84348 16.6168 5.97087C16.6168 5.97087 14.2334 5.70365 14.2334 9.85705C14.2334 11.4298 14.7977 13.0561 15.5402 15.0488C16.2827 15.1557 16.7207 16.1788 16.7207 16.1788L17.0771 18.8663C17.108 19.7471 17.0078 20.6276 16.7801 21.4774C16.4089 22.4547 15.8966 26.9974 21.6954 29.2956C27.4942 31.5937 32.8327 29.1963 31.4962 21.4621C31.4962 21.4621 31.615 23.5465 30.7018 23.2792C29.7885 23.012 30.6424 20.3245 26.2468 20.8284C24.8658 20.6528 22.9947 19.4923 21.4652 22.1874C20.2698 24.3023 18.0721 22.8517 17.9013 17.5149V16.1559C17.9013 16.0795 17.9013 16.0032 17.9013 15.9192V12.3079C18.8773 11.3988 19.5195 10.1722 19.7204 8.83397C30.3602 13.0484 33.6123 7.71927 33.6123 7.71927C32.963 7.87801 32.2866 7.87801 31.6373 7.71927ZM22.5418 22.6074C23.8388 23.0418 25.2476 22.9545 26.4844 22.363C27.3772 23.0207 28.4529 23.3635 29.5509 23.3403C29.7279 23.6704 29.8297 24.0374 29.8485 24.4138C29.8674 24.7903 29.8029 25.1661 29.6599 25.5132C29.5169 25.8602 29.2992 26.1693 29.023 26.4172C28.7469 26.665 28.4196 26.8452 28.0659 26.944C25.6231 27.8831 26.232 25.1193 26.232 25.1193L25.2668 24.9589C25.344 25.2171 25.3533 25.4918 25.2935 25.7549C25.2338 26.018 25.1073 26.2601 24.9269 26.4565C24.7465 26.6529 24.5186 26.7965 24.2666 26.8728C24.0145 26.949 23.7473 26.9552 23.4922 26.8906C20.3589 26.5775 22.5418 22.6074 22.5418 22.6074Z" fill="#8E6537"/>
<path d="M22.4897 22.9053C22.4897 22.9053 25.8978 27.7153 29.1053 24.0276L22.4897 22.9053Z" fill="white"/>
<path d="M35.5798 35.6934C35.5798 35.6934 35.0304 53.0934 33.939 61.9193C33.939 61.9193 29.7513 63.851 23.0764 63.5685C18.3616 63.37 17.0028 62.3316 17.0028 62.3316L10.2388 33.7312C10.2388 33.7312 13.6394 32.0668 20.8266 32.0668C20.8266 32.0668 20.8266 31.8301 22.4378 32.7158C23.6852 33.3953 24.1159 38.0602 24.1159 38.0602C24.1159 38.0602 24.3609 33.3876 25.0662 33.0059C25.6124 32.658 26.2166 32.4172 26.8482 32.2958C29.5583 32.4944 32.3723 33.3418 35.5279 33.8763L35.5798 35.6934Z" fill="#FFD7D7"/>
<path d="M28.7937 32.0671L27.0414 36.0373L25.0664 32.968L28.1774 30.8379L28.7937 32.0671Z" fill="#EFBABA"/>
<path d="M18.6289 31.96L20.9826 35.8615L22.6309 32.7006L19.1932 30.4102L18.6289 31.96Z" fill="#EFBABA"/>
<path d="M56.585 23.9737C56.585 23.9737 56.8597 16.4839 57.4611 16.4839C58.0625 16.4839 58.2704 18.217 58.2036 19.4691C58.1368 20.7213 62.859 17.3161 62.1165 20.1639C62.1165 20.1639 63.5346 20.3701 62.4506 22.0345C62.4506 22.0345 63.8019 23.0728 62.2501 23.8363C62.2501 23.8363 63.6015 24.5311 61.5745 25.3633C60.4701 25.7926 59.4284 26.3757 58.4783 27.0964L56.585 23.9737Z" fill="#FFCEB1"/>
<path d="M1.85645 55.3917C1.85645 55.3917 6.96475 66.218 14.2114 68.8215L14.5233 65.256C11.6164 62.5135 9.15271 59.3126 7.22462 55.7734C3.84631 49.696 1.85645 55.3917 1.85645 55.3917Z" fill="#FFCEB1"/>
<path d="M12.7261 68.1192C12.7261 68.1192 16.7132 71.6159 15.7406 64.3704C15.7406 64.3704 20.9825 63.2481 16.2826 62.8434C16.2826 62.8434 21.48 60.7438 15.9188 61.7745C15.9188 61.7745 20.0247 56.9798 13.9586 61.7058C13.9586 61.7058 12.7483 62.79 13.0156 65.9814L12.7261 68.1192Z" fill="#FFCEB1"/>
<path d="M10.2389 33.7314L0 55.3841C0 55.3841 5.7023 64.4544 9.9122 66.7677L12.6223 62.6525C12.6223 62.6525 7.87778 56.3613 6.80118 53.8189L13.1569 44.0997L10.2389 33.7314Z" fill="#FFD7D7"/>
<path d="M32.8921 41.7864L46.9993 43.8479C46.9993 43.8479 55.2558 33.2353 59.7107 27.4099L56.1022 24.165C56.1022 24.165 46.19 34.6936 43.9997 36.3275L35.0008 33.7316L32.8921 41.7864Z" fill="#FFD7D7"/>
<path d="M7.52148 65.7292L11.5829 60.9497L13.1347 62.7745L9.3183 67.5844L7.52148 65.7292Z" fill="#EFBABA"/>
<path d="M58.6196 29.2724L54.4097 25.0885L56.1397 23.3096L60.3867 26.7835L58.6196 29.2724Z" fill="#EFBABA"/>
</svg>
