<svg width="51" height="132" viewBox="0 0 51 132" fill="none" xmlns="http://www.w3.org/2000/svg">
<path opacity="0.1" d="M0 129.988C0 131.101 10.6442 132 23.8246 132C37.005 132 47.6031 131.101 47.6031 129.988C47.6031 128.875 36.8897 127.968 23.8246 127.968C10.7595 127.968 0 128.875 0 129.988Z" fill="#171211"/>
<path d="M17.3465 119.24L16.1553 126.337H13.3809L14.3108 118.623L17.3465 119.24Z" fill="#050404"/>
<path d="M12.5428 122.975C11.5004 124.256 10.1194 125.225 8.55412 125.773C6.14861 126.489 3.94291 127.396 4.1581 128.822C4.1581 128.822 7.73179 130.56 13.5342 128.631V129.233L17.3769 129.073V124.019L14.2105 124.24L14.4488 123.745L12.5428 122.975Z" fill="#2F2421"/>
<path d="M11.0133 128.669C5.81032 129.996 4.48844 128.524 4.18871 128.418C4.16236 128.541 4.16236 128.668 4.18871 128.791C4.18871 128.791 7.7624 130.529 13.5648 128.601V129.203L17.4075 129.043V128.059C15.9857 128.12 14.8483 127.694 11.0133 128.669Z" fill="#171211"/>
<path d="M13.065 125.895C13.038 125.896 13.0112 125.89 12.9871 125.878C12.9629 125.866 12.9421 125.848 12.9267 125.826C12.5303 125.182 11.9536 124.665 11.2667 124.34C11.2465 124.332 11.228 124.321 11.2122 124.306C11.1965 124.292 11.1838 124.274 11.1749 124.255C11.1659 124.235 11.161 124.214 11.1603 124.193C11.1595 124.171 11.163 124.15 11.1706 124.13C11.1782 124.11 11.1896 124.092 11.2044 124.076C11.2191 124.06 11.2368 124.048 11.2564 124.039C11.276 124.03 11.2972 124.025 11.3187 124.025C11.3403 124.024 11.3618 124.027 11.382 124.035C12.1391 124.372 12.7745 124.931 13.2034 125.636C13.2163 125.654 13.2254 125.675 13.2301 125.697C13.2348 125.719 13.235 125.741 13.2307 125.763C13.2264 125.785 13.2177 125.806 13.2051 125.825C13.1925 125.844 13.1762 125.86 13.1573 125.872C13.1291 125.887 13.0973 125.895 13.065 125.895Z" fill="#171211"/>
<path d="M12.1968 126.283C12.1698 126.284 12.1429 126.278 12.1188 126.266C12.0946 126.254 12.0739 126.237 12.0584 126.215C11.6661 125.555 11.0859 125.024 10.3907 124.69C10.3704 124.683 10.3517 124.672 10.3356 124.658C10.3196 124.644 10.3065 124.627 10.2972 124.608C10.2879 124.589 10.2826 124.568 10.2815 124.547C10.2804 124.526 10.2835 124.504 10.2908 124.484C10.2977 124.463 10.3088 124.444 10.3235 124.427C10.3381 124.41 10.3559 124.396 10.3759 124.386C10.3959 124.376 10.4177 124.371 10.4401 124.369C10.4624 124.368 10.4848 124.37 10.506 124.378C11.2618 124.724 11.8981 125.283 12.3351 125.986C12.3593 126.024 12.368 126.069 12.3594 126.113C12.3508 126.157 12.3256 126.196 12.289 126.222C12.2644 126.25 12.2325 126.272 12.1968 126.283Z" fill="#171211"/>
<path d="M11.3212 126.672C11.2936 126.671 11.2666 126.664 11.2425 126.651C11.2184 126.637 11.1979 126.618 11.1829 126.596C10.7892 125.951 10.2115 125.436 9.52284 125.117C9.48128 125.101 9.4475 125.07 9.42881 125.03C9.41012 124.99 9.40801 124.945 9.42293 124.903C9.43851 124.862 9.4698 124.829 9.51006 124.81C9.55032 124.791 9.59632 124.789 9.63812 124.804C10.3948 125.146 11.0296 125.707 11.4596 126.413C11.4723 126.43 11.4813 126.451 11.4859 126.472C11.4905 126.493 11.4906 126.515 11.4863 126.537C11.482 126.558 11.4733 126.579 11.4608 126.597C11.4482 126.614 11.4321 126.63 11.4134 126.641C11.3858 126.659 11.3541 126.67 11.3212 126.672Z" fill="#171211"/>
<path d="M30.3037 119.24L31.4949 126.337H34.2694L33.3394 118.623L30.3037 119.24Z" fill="#050404"/>
<path d="M35.1152 122.975C36.1558 124.255 37.5339 125.223 39.0962 125.773C41.5017 126.489 43.9303 127.396 43.7612 128.822C43.7612 128.822 39.9186 130.56 34.1161 128.631V129.233L30.2734 129.073V124.019L33.4398 124.24L33.2092 123.745L35.1152 122.975Z" fill="#2F2421"/>
<path d="M37.428 128.928C39.5372 129.315 41.712 129.139 43.73 128.418C43.7524 128.541 43.7524 128.668 43.73 128.791C43.73 128.791 39.8873 130.529 34.0849 128.601V129.203L30.2422 129.043V127.777C31.664 127.861 33.9235 128.387 37.428 128.928Z" fill="#171211"/>
<path d="M34.5848 125.894C34.6118 125.895 34.6386 125.89 34.6628 125.878C34.6869 125.866 34.7077 125.848 34.7231 125.826C35.1215 125.183 35.6977 124.667 36.3831 124.339C36.4239 124.325 36.4573 124.296 36.4761 124.257C36.4948 124.218 36.4973 124.174 36.483 124.134C36.4688 124.093 36.4389 124.06 36.4 124.041C36.3611 124.023 36.3163 124.02 36.2755 124.034C35.5139 124.368 34.875 124.927 34.4464 125.635C34.4335 125.654 34.4244 125.674 34.4197 125.696C34.415 125.718 34.4148 125.741 34.4191 125.763C34.4234 125.785 34.4321 125.806 34.4447 125.825C34.4573 125.843 34.4736 125.859 34.4925 125.872C34.5211 125.886 34.5527 125.894 34.5848 125.894Z" fill="#171211"/>
<path d="M35.4526 126.283C35.4805 126.283 35.508 126.277 35.5332 126.265C35.5585 126.253 35.5808 126.236 35.5986 126.215C35.9892 125.556 36.5665 125.026 37.2587 124.69C37.279 124.683 37.2977 124.672 37.3137 124.658C37.3298 124.644 37.3429 124.627 37.3522 124.608C37.3615 124.589 37.3668 124.568 37.3679 124.547C37.369 124.526 37.3658 124.504 37.3586 124.484C37.3516 124.463 37.3405 124.444 37.3259 124.427C37.3113 124.41 37.2935 124.396 37.2735 124.386C37.2534 124.376 37.2316 124.371 37.2093 124.369C37.187 124.368 37.1646 124.37 37.1434 124.378C36.3964 124.74 35.7737 125.313 35.3527 126.024C35.3285 126.062 35.3198 126.107 35.3284 126.151C35.337 126.195 35.3622 126.234 35.3988 126.26C35.4156 126.27 35.4337 126.278 35.4526 126.283Z" fill="#171211"/>
<path d="M36.3294 126.672C36.357 126.671 36.384 126.664 36.4081 126.651C36.4322 126.637 36.4527 126.618 36.4677 126.596C36.8614 125.951 37.4391 125.436 38.1278 125.117C38.149 125.11 38.1686 125.099 38.1853 125.084C38.202 125.07 38.2155 125.052 38.2248 125.032C38.2342 125.012 38.2393 124.99 38.2398 124.968C38.2403 124.946 38.2362 124.924 38.2277 124.903C38.2121 124.862 38.1808 124.829 38.1405 124.81C38.1003 124.791 38.0543 124.789 38.0125 124.804C37.2558 125.146 36.621 125.707 36.191 126.413C36.1783 126.43 36.1693 126.451 36.1647 126.472C36.1601 126.493 36.1599 126.515 36.1643 126.537C36.1686 126.558 36.1773 126.579 36.1898 126.597C36.2024 126.614 36.2185 126.63 36.2372 126.641C36.2652 126.658 36.2967 126.669 36.3294 126.672Z" fill="#171211"/>
<path d="M24.1938 63.1453C21.8882 63.0539 18.0455 62.5965 18.0455 62.5965L15.1327 96.8066L12.2354 121.877C12.2354 121.877 13.6418 123.79 18.9062 122.922L22.8565 98.3768L26.0152 75.0442H27.7675L29.2661 122.922C29.2661 122.922 31.5717 124.667 35.7602 123.097L35.2299 61.5903C31.6919 62.8307 27.9401 63.3593 24.1938 63.1453Z" fill="#242A32"/>
<path d="M33.1006 63.4198C33.8918 63.2507 34.6516 62.9601 35.3524 62.5584C35.7905 62.3907 35.7367 62.8633 35.7905 63.3588C35.8596 64.0143 35.7905 64.365 35.3755 64.5022C34.8113 64.9209 34.1602 65.21 33.4695 65.3483L33.1006 63.4198Z" fill="#050404"/>
<path d="M22.3871 64.0831C24.202 64.2307 26.0247 64.2613 27.8437 64.1746C29.1967 64.12 30.5433 63.9594 31.8708 63.6943C31.8559 64.3663 31.91 65.038 32.0322 65.6991C30.6711 65.9854 29.2878 66.1562 27.8975 66.2098C27.2596 66.2098 26.6294 66.2098 26.0145 66.2098C24.7307 66.2088 23.4478 66.1375 22.1719 65.9964C22.3035 65.3666 22.3756 64.7261 22.3871 64.0831Z" fill="#050404"/>
<path d="M17.5074 63.984C17.5842 63.4885 17.638 63.054 18.0761 63.2217C19.1212 63.5816 20.1999 63.8369 21.2962 63.984C21.2578 64.6243 21.1809 65.2569 21.0964 65.8972C19.9431 65.7194 18.8121 65.4204 17.7225 65.0054C17.4151 64.8682 17.4228 64.4794 17.5074 63.984Z" fill="#050404"/>
<path d="M25.1162 63.9151V66.5296L28.9589 66.2628V63.8389L25.1162 63.9151ZM25.7695 64.3496L28.321 64.2962V65.897L25.7618 66.0723L25.7695 64.3496Z" fill="#AEAEAE"/>
<path d="M28.0821 28.4398L27.8439 38.151L21.9492 35.5288L22.1337 25.5356L28.0821 28.4398Z" fill="#E8BCA5"/>
<path d="M23.1713 4.26095C17.5687 5.53391 17.7147 9.35282 17.7147 9.35282C17.7147 9.35282 17.8915 12.3028 17.9991 15.8091C17.751 15.4518 17.383 15.1935 16.9606 15.0804C16.5383 14.9673 16.0892 15.0067 15.6935 15.1917C13.7875 15.9997 15.2016 21.9605 18.099 21.4422C18.124 22.597 18.2944 23.7442 18.6062 24.8571C19.4209 26.5493 23.0023 29.1334 26.1763 29.5374C29.3504 29.9414 33.3391 27.8452 33.3391 24.1254C33.3391 20.4055 33.3852 6.66205 33.3852 6.66205C33.3852 6.66205 32.4476 2.16474 23.1713 4.26095Z" fill="#FFCEB1"/>
<path d="M24.939 15.527C24.939 16.335 24.5778 16.9982 24.132 16.9982C23.6863 16.9982 23.3174 16.335 23.3174 15.527C23.3174 14.719 23.6786 14.0635 24.132 14.0635C24.5855 14.0635 24.939 14.719 24.939 15.527Z" fill="#1C1C24"/>
<path d="M31.7785 15.8549C31.7785 16.6629 31.4173 17.3185 30.9638 17.3185C30.5104 17.3185 30.1953 16.6629 30.1953 15.8549C30.1953 15.047 30.5565 14.3838 30.9638 14.3838C31.3712 14.3838 31.7785 15.0393 31.7785 15.8549Z" fill="#1C1C24"/>
<path d="M26.2609 12.1959C26.2609 12.1959 25.892 12.1959 25.4309 12.1959C24.9697 12.1959 24.401 12.1959 23.8938 12.1959H23.5403C23.425 12.1959 23.3097 12.1959 23.2021 12.2569C22.985 12.2986 22.7736 12.3652 22.5719 12.4551C22.401 12.5273 22.2343 12.6087 22.0724 12.699L21.8418 12.8057C21.8418 12.8057 21.8418 12.7219 21.8418 12.5618C21.8653 12.3436 21.9361 12.133 22.0493 11.9444C22.1173 11.8061 22.2112 11.6819 22.326 11.5785C22.4374 11.4434 22.5728 11.3297 22.7256 11.2431C22.8852 11.1426 23.0586 11.0655 23.2405 11.0144C23.4262 10.9624 23.6168 10.9291 23.8092 10.9153C23.9934 10.9 24.1785 10.9 24.3626 10.9153C24.5332 10.9414 24.7006 10.9848 24.8621 11.0449C25.1388 11.1475 25.3979 11.2915 25.6307 11.4718C25.8958 11.6601 26.1118 11.9083 26.2609 12.1959Z" fill="#8E6537"/>
<path d="M29.6045 12.1962C29.6833 11.9475 29.8233 11.7222 30.0118 11.5407C30.1988 11.3548 30.4207 11.2072 30.6651 11.1062C30.9672 10.9757 31.2977 10.9233 31.6257 10.9537C31.9795 10.9899 32.3142 11.1306 32.5864 11.3577C32.7051 11.4574 32.8064 11.5759 32.8861 11.7083C32.9611 11.8182 33.0181 11.9391 33.0552 12.0666C33.1208 12.2445 33.147 12.4343 33.1321 12.6231C33.1396 12.694 33.1396 12.7655 33.1321 12.8365C33.0658 12.808 33.0016 12.7749 32.9399 12.7374C32.817 12.6764 32.6786 12.5773 32.5096 12.5011C32.4307 12.4568 32.3484 12.4186 32.2636 12.3868C32.0248 12.2828 31.7703 12.2184 31.5105 12.1962C31.1214 12.1729 30.7313 12.1729 30.3423 12.1962C29.9734 12.1962 29.6045 12.1962 29.6045 12.1962Z" fill="#8E6537"/>
<path opacity="0.4" d="M15.9628 16.2132C16.9619 15.7177 17.838 17.3032 17.8764 19.0031C17.0618 18.8811 16.9081 19.8187 17.3846 20.4818C15.763 20.8249 14.9099 16.7697 15.9628 16.2132Z" fill="#C87761"/>
<path d="M28.4362 13.9873C28.5442 14.212 28.6366 14.4438 28.7128 14.681C28.7974 14.9173 28.8819 15.1536 28.9434 15.3899C29.0817 15.8701 29.197 16.3579 29.3123 16.8458C29.4276 17.3336 29.4967 17.8215 29.5736 18.3093C29.6504 18.7971 29.735 19.2926 29.7888 19.7881V19.8719H29.7196C29.1125 20.1616 28.5053 20.436 27.8828 20.6875C28.4515 20.3293 29.0279 20.0015 29.6197 19.6737L29.5582 19.7957C29.4429 19.3079 29.3661 18.82 29.2739 18.3322C29.1816 17.8443 29.1125 17.3565 29.0202 16.8686C28.928 16.3808 28.8204 15.9006 28.7436 15.4127C28.6975 15.1688 28.6283 14.9325 28.5899 14.6505C28.5514 14.3684 28.4823 14.2312 28.4362 13.9873Z" fill="#E69483"/>
<path d="M33.5008 7.70629C34.6613 7.55384 36.8132 5.25182 35.9755 2.85071C35.9755 2.85071 35.7603 4.15417 33.9235 4.15417C33.9235 4.15417 34.9764 3.73493 35.1839 3.10988C35.1839 3.10988 33.8697 3.87214 30.7648 2.01985C30.4881 1.84454 30.173 1.66922 29.8272 1.4939C29.3709 1.23137 28.8895 1.01434 28.39 0.845979C24.8471 -0.541328 19.7901 -0.975814 18.0456 5.58722C18.0026 5.70843 17.9717 5.83353 17.9533 5.96072C17.9533 5.96072 15.4863 5.69393 15.4863 9.84061C15.4863 11.4109 16.0781 13.0345 16.839 15.024C17.6075 15.1307 18.0609 16.1521 18.0609 16.1521L18.4452 18.8352C18.4771 19.7147 18.3734 20.5938 18.1378 21.4422C17.7535 22.4178 17.2232 26.9533 23.2255 29.2477C29.2277 31.5421 34.7535 29.1486 33.3778 21.4269C33.3778 21.4269 33.4931 23.5079 32.5478 23.2411C31.6025 22.9743 32.4863 20.2911 27.9366 20.7942C26.5071 20.6189 24.5704 19.4603 22.9872 22.1511C21.7499 24.2625 19.475 22.8142 19.2983 17.486V16.1292C19.2983 16.053 19.2983 15.9768 19.2983 15.8929V12.2875C20.3085 11.3798 20.9733 10.1553 21.1812 8.81918C32.1943 13.0268 35.5605 7.70629 35.5605 7.70629C34.8835 7.8672 34.1778 7.8672 33.5008 7.70629ZM24.0862 22.5703C25.4287 23.004 26.887 22.9169 28.1672 22.3264C29.0912 22.983 30.2047 23.3252 31.3412 23.3021C31.5244 23.6316 31.6297 23.9981 31.6493 24.3739C31.6688 24.7496 31.6021 25.1249 31.4541 25.4714C31.306 25.8179 31.0806 26.1265 30.7948 26.3739C30.509 26.6214 30.1703 26.8012 29.8041 26.8999C27.2757 27.8375 27.9135 25.0781 27.9135 25.0781L26.8991 24.918C26.9797 25.1766 26.9894 25.4518 26.9273 25.7153C26.8652 25.9788 26.7335 26.2212 26.5457 26.4176C26.3579 26.6139 26.1208 26.7571 25.8588 26.8325C25.5967 26.9079 25.3192 26.9128 25.0546 26.8466C21.8267 26.534 24.0862 22.5703 24.0862 22.5703Z" fill="#8E6537"/>
<path d="M24.0322 22.8677C24.0322 22.8677 27.5598 27.6699 30.8799 23.9882L24.0322 22.8677Z" fill="white"/>
<path d="M37.0592 35.3383C37.0592 35.3383 36.4905 52.7101 35.3531 61.5218C35.3531 61.5218 31.0185 63.4503 24.1094 63.1683C19.2292 62.9777 17.8228 61.941 17.8228 61.941L10.8291 33.3793C10.8291 33.3793 14.349 31.6871 21.7807 31.6947C21.7807 31.6947 21.7807 31.4584 23.4561 32.3426C24.7473 33.0286 25.1853 37.6784 25.1853 37.6784C25.1853 37.6784 25.439 33.0134 26.1691 32.6323C26.7328 32.2762 27.3625 32.0352 28.0212 31.9234C30.8187 32.1139 33.7315 32.96 36.9977 33.4936L37.0592 35.3383Z" fill="white"/>
<path d="M19.5049 31.6182L21.9411 35.5057L23.655 32.3576L20.0967 30.0708L19.5049 31.6182Z" fill="#EEEEEC"/>
<path d="M48.7019 65.9884C47.9333 65.0051 46.9573 64.7993 45.6969 64.6469C44.621 61.11 41.739 51.5132 41.739 51.5132L37.5889 54.4174C37.5889 54.4174 40.4786 62.1009 42.5229 66.1104L42.4691 66.1638C42.031 67.2614 42.6151 68.4505 42.9071 69.2128C43.1992 69.975 43.2376 70.379 43.5066 71.2023C43.7295 71.9036 44.1137 73.0622 44.5364 72.7268C44.9591 72.3914 44.1598 70.1885 44.375 70.0818C44.5902 69.975 46.4578 74.7239 47.1187 73.6491C47.3339 73.2985 45.8814 70.6001 45.9198 70.0132C45.9582 69.4262 48.2946 73.9083 49.0631 73.2985C49.5242 72.925 46.8343 69.0527 47.3339 69.4186C47.9871 69.8759 49.6395 71.9722 50.1006 72.0865C50.5617 72.2008 51.0459 72.3761 49.6856 70.3181C48.6942 68.7935 47.7566 67.795 47.8565 67.3605C47.9564 66.926 48.7019 67.5892 48.7019 67.5892C50.6693 68.9917 50.8922 67.8941 51.0075 67.5892C51.1228 67.2843 49.5165 67.0251 48.7019 65.9884Z" fill="#FFCEB1"/>
<path d="M46.3891 63.2672L41.3782 48.6166L36.9976 33.4858C34.8149 32.9751 30.2422 33.4325 33.1549 41.5886L36.8285 52.9386L41.1092 65.7369L46.3891 63.2672Z" fill="white"/>
<path d="M13.5108 44.9272L16.5081 68.4504L25.8458 69.5023C25.5667 56.6388 23.4316 43.8812 19.5054 31.6182C19.5054 31.6182 12.75 31.9002 10.6826 33.318L13.5108 44.9272Z" fill="#353F48"/>
<path d="M29.6195 31.9307C29.6195 31.9307 29.2891 56.0561 29.6195 69.5023L37.3433 67.9778L36.398 51.4292L40.3944 64.9821L46.3967 62.4514L36.9975 33.4857L29.6195 31.9307Z" fill="#353F48"/>
<path d="M19.5057 31.6182L17.8457 31.7096L15.9551 38.1126L20.0667 39.7667L19.5134 42.4117L24.1784 50.6746C24.1784 50.6746 20.9506 33.5391 19.5057 31.6182Z" fill="#242A32"/>
<path d="M29.6193 31.9233L29.5117 50.8807L32.9548 42.0614L31.1718 40.1938L33.8386 38.8675L31.3946 32.1444L29.6193 31.9233Z" fill="#242A32"/>
<path d="M30.027 31.7177L28.2209 35.689L26.1689 32.6247L29.3891 30.498L30.027 31.7177Z" fill="#EEEEEC"/>
<path d="M2.15918 55.2254C2.15918 55.2254 7.43902 66.0342 14.9399 68.6412L15.2627 65.0738C12.2492 62.3487 9.69138 59.166 7.68495 55.6447C4.21117 49.5466 2.15918 55.2254 2.15918 55.2254Z" fill="#FFCEB1"/>
<path d="M13.4111 67.9322C13.4111 67.9322 17.5305 71.431 16.5314 64.1895C16.5314 64.1895 21.9111 63.069 17.0847 62.665C17.0847 62.665 22.4645 60.5688 16.7081 61.5979C16.7081 61.5979 20.9581 56.8109 14.6792 61.5369C14.6792 61.5369 13.4265 62.6193 13.7109 65.7979L13.4111 67.9322Z" fill="#FFCEB1"/>
<path d="M10.6826 33.3179L0.46875 54.7297C0.46875 54.7297 6.14822 64.2731 10.4904 66.5828L13.2649 62.5047C13.2649 62.5047 8.36161 56.2313 7.24723 53.6854L13.8336 43.959L10.6826 33.3179Z" fill="#353F48"/>
<path d="M13.1647 62.6499L13.7104 63.2063L11.6738 67.4826L10.4902 66.5831L13.1647 62.6499Z" fill="white"/>
</svg>
