<svg width="58" height="129" viewBox="0 0 58 129" fill="none" xmlns="http://www.w3.org/2000/svg">
<path opacity="0.1" d="M58 126.522C58 127.9 47.8506 129.023 35.6993 129.023C23.5479 129.023 13.9482 127.877 13.9482 126.522C13.9482 125.167 23.5151 124.014 35.6664 124.014C47.8178 124.014 58 125.115 58 126.522Z" fill="#171211"/>
<path d="M40.6384 116.295L40.1953 123.018L43.1573 123.28L43.9449 115.966L40.6384 116.295Z" fill="#5C202C"/>
<path d="M44.396 120.053C45.3938 121.399 46.7832 122.465 48.4082 123.13C50.8696 124.058 53.126 125.159 52.7896 126.551C52.7896 126.551 48.7938 127.921 42.7879 125.488L42.7304 126.087L38.6772 125.571L39.1942 120.637L42.5499 121.146L42.353 120.637L44.396 120.053Z" fill="#7A5440"/>
<path d="M45.4464 125.773C50.8698 127.555 52.4288 126.23 52.7652 126.155C52.794 126.279 52.794 126.406 52.7652 126.529C52.7652 126.529 48.7694 127.899 42.7635 125.466L42.706 126.065L38.6528 125.549L38.7513 124.561C40.2035 124.793 41.4507 124.478 45.4464 125.773Z" fill="#5B3B2D"/>
<path d="M20.438 116.797L20.6841 123.527H23.6625L23.6953 116.183L20.438 116.797Z" fill="#5C202C"/>
<path d="M24.565 120.211C25.6858 121.466 27.1694 122.41 28.848 122.936C31.4243 123.647 33.7709 124.546 33.5657 125.931C33.5657 125.931 29.7259 127.645 23.4984 125.736V126.335L19.396 126.17V121.281L22.7928 121.499L22.5384 121.005L24.565 120.211Z" fill="#7A5440"/>
<path d="M26.2061 125.833C31.7854 127.144 33.2048 125.691 33.533 125.594C33.5574 125.715 33.5574 125.839 33.533 125.961C33.533 125.961 29.6932 127.675 23.4657 125.766V126.365L19.3633 126.2V125.212C20.873 125.294 22.0955 124.875 26.2061 125.833Z" fill="#5B3B2D"/>
<path d="M38.2347 60.5884H38.0706C33.6714 62.0127 29.0035 62.6161 24.3439 62.3627C20.2415 62.213 18.0754 61.614 17.1318 61.2472L18.7728 119.395C23.2937 120.945 25.7469 119.23 25.7469 119.23L27.191 72.1251H29.7427L37.9475 92.9675L38.2921 119.994C43.9452 120.847 45.4467 118.961 45.4467 118.961L46.62 93.4017L38.2347 60.5884Z" fill="#333D5C"/>
<path d="M35.896 62.1378C36.83 61.9534 37.7287 61.643 38.5626 61.2169C39.0877 61.0298 39.022 61.5613 39.0795 62.1228C39.1533 62.8715 39.0302 63.2533 38.5544 63.403C37.8744 63.8656 37.0893 64.1828 36.257 64.3313L35.896 62.1378Z" fill="#7A5440"/>
<path d="M22.9733 62.7816C25.1552 62.9644 27.3476 63.0194 29.5372 62.9463C31.1679 62.8978 32.792 62.7326 34.3944 62.4521C34.3704 63.2042 34.4281 63.9565 34.5667 64.6981C32.9236 65.0053 31.2547 65.1832 29.5782 65.2296C28.8069 65.2296 28.0439 65.2296 27.3055 65.2296C25.7637 65.2161 24.2241 65.1211 22.6943 64.9452C22.856 64.2327 22.9494 63.5088 22.9733 62.7816Z" fill="#7A5440"/>
<path d="M17.0906 62.602C17.1972 62.048 17.2629 61.5614 17.788 61.7411C19.0415 62.1599 20.3394 62.4585 21.6607 62.632C21.6115 63.3806 21.5048 64.0694 21.3981 64.7806C20.0063 64.5717 18.6442 64.2227 17.3367 63.74C16.9675 63.6352 16.9921 63.1635 17.0906 62.602Z" fill="#7A5440"/>
<path d="M26.2552 62.6245L26.1978 65.5592L30.8581 65.3047L30.9155 62.5796L26.2552 62.6245ZM27.0757 63.1111H30.1607V64.9079L27.0839 65.0801L27.0757 63.1111Z" fill="#AEAEAE"/>
<path d="M28.5035 27.932L28.2492 37.4698L21.9561 34.8944L22.153 25.0796L28.5035 27.932Z" fill="#E8BCA5"/>
<path d="M38.645 34.9993C38.645 34.9993 38.0378 52.061 36.8317 60.7154C36.8317 60.7154 32.2042 62.6095 24.8281 62.3325C19.618 62.1379 18.1165 61.1197 18.1165 61.1197L10.6665 33.0753C10.6665 33.0753 14.3997 31.4432 22.342 31.4432C22.342 31.4432 22.342 31.2111 24.1224 32.0795C25.5009 32.7458 25.9767 37.3201 25.9767 37.3201C25.9767 37.3201 26.2475 32.7384 27.0269 32.364C27.6305 32.0229 28.2982 31.7868 28.9961 31.6678C31.9909 31.8624 35.1005 32.6934 38.5876 33.2175L38.645 34.9993Z" fill="#FAF3DD"/>
<path d="M22.8588 34.303C23.02 34.2956 23.1816 34.2956 23.3428 34.303C24.0471 34.294 24.7498 34.3644 25.4351 34.5127C25.1479 33.4196 24.713 32.3566 24.0977 32.0571C22.3008 31.1887 22.3172 31.4207 22.3172 31.4207C21.7511 31.4207 21.2096 31.4207 20.6763 31.4207C21.7384 32.1301 22.5074 33.1456 22.8588 34.303Z" fill="#CFC5A7"/>
<path d="M30.2843 31.7502C29.8577 31.7052 29.4639 31.6603 28.9962 31.6304C28.2983 31.7494 27.6306 31.9855 27.027 32.3266C26.6578 32.5063 26.4035 33.6068 26.2065 34.7298C26.8646 34.9493 27.4817 35.2599 28.0362 35.6506C28.2714 34.1532 29.0654 32.7755 30.2843 31.7502Z" fill="#CFC5A7"/>
<path d="M23.261 4.18509C17.2715 5.43534 17.4356 9.18608 17.4356 9.18608C17.4356 9.18608 17.6243 12.0834 17.7392 15.5271C17.4743 15.1762 17.0814 14.9225 16.6305 14.8114C16.1796 14.7003 15.7002 14.7391 15.2777 14.9207C13.2429 15.7143 14.7526 21.5688 17.8458 21.0597C17.8725 22.1939 18.0544 23.3206 18.3873 24.4136C19.2078 26.0756 23.0805 28.6136 26.4691 29.0103C29.8577 29.4071 34.116 27.3483 34.116 23.6949C34.116 20.0415 34.1652 6.54334 34.1652 6.54334C34.1652 6.54334 33.1643 2.1263 23.261 4.18509Z" fill="#FFCEB1"/>
<path d="M24.2867 16.6873C24.767 16.6873 25.1564 16.0438 25.1564 15.2499C25.1564 14.456 24.767 13.8125 24.2867 13.8125C23.8064 13.8125 23.417 14.456 23.417 15.2499C23.417 16.0438 23.8064 16.6873 24.2867 16.6873Z" fill="#1C1C24"/>
<path d="M32.4505 15.5718C32.4505 16.3654 32.0648 17.0093 31.5807 17.0093C31.0967 17.0093 30.7192 16.3654 30.7192 15.5718C30.7192 14.7783 31.1049 14.127 31.5807 14.127C32.0566 14.127 32.4505 14.7708 32.4505 15.5718Z" fill="#1C1C24"/>
<path d="M26.5591 11.9785C26.5591 11.9785 26.1653 11.9785 25.673 11.9785C25.1807 11.9785 24.5735 11.9785 24.032 11.9785H23.6464C23.5315 11.9785 23.4002 11.9785 23.2936 12.0384C23.0618 12.0794 22.8361 12.1447 22.6208 12.2331C22.4383 12.304 22.2603 12.3839 22.0875 12.4726L21.8413 12.5775C21.8413 12.5775 21.8413 12.4951 21.8413 12.3379C21.8629 12.1229 21.9387 11.9153 22.0628 11.7315C22.1351 11.5975 22.2323 11.4759 22.35 11.3721C22.4738 11.2409 22.6208 11.1296 22.7849 11.0427C22.9552 10.944 23.1404 10.8683 23.3346 10.8181C23.5328 10.767 23.7363 10.7344 23.9417 10.7208C24.1383 10.7057 24.3359 10.7057 24.5325 10.7208C24.7146 10.7464 24.8933 10.789 25.0658 10.8481C25.3611 10.9488 25.6378 11.0902 25.8863 11.2673C26.1693 11.4522 26.3999 11.6961 26.5591 11.9785Z" fill="#8E6537"/>
<path d="M30.1284 11.9786C30.2126 11.7343 30.362 11.5131 30.5633 11.3347C30.7629 11.1522 30.9998 11.0072 31.2607 10.908C31.5832 10.7799 31.9361 10.7284 32.2863 10.7583C32.664 10.7938 33.0213 10.932 33.3119 11.155C33.4364 11.255 33.5442 11.371 33.6319 11.4994C33.7119 11.6073 33.7728 11.7261 33.8124 11.8513C33.8847 12.0254 33.91 12.2129 33.8862 12.3978C33.8911 12.4676 33.8911 12.5376 33.8862 12.6074C33.8131 12.5789 33.7418 12.5464 33.6729 12.5101C33.5498 12.4502 33.4021 12.3529 33.2216 12.278C33.1374 12.2345 33.0496 12.1969 32.9591 12.1657C32.6985 12.0646 32.4212 12.0038 32.1386 11.986C31.7205 11.9632 31.3013 11.9632 30.8833 11.986C30.4812 11.9786 30.1284 11.9786 30.1284 11.9786Z" fill="#8E6537"/>
<path opacity="0.4" d="M15.5891 15.924C16.6476 15.4373 17.5911 16.9945 17.6321 18.664C16.7624 18.5442 16.6147 19.4651 17.0988 20.1164C15.3512 20.4533 14.4405 16.4705 15.5891 15.924Z" fill="#C87761"/>
<path d="M28.8646 13.7378C28.9764 13.9599 29.075 14.1873 29.16 14.4191C29.2502 14.6511 29.3405 14.8832 29.4061 15.1153C29.5538 15.587 29.6769 16.0661 29.7999 16.5452C29.923 17.0244 29.9968 17.5035 30.0789 17.9826C30.1609 18.4618 30.2512 18.9484 30.3086 19.435V19.5174H30.2348C29.5866 19.8019 28.9302 20.0714 28.2656 20.3184C28.881 19.9666 29.4964 19.6446 30.1281 19.3227L30.0625 19.4425C29.9394 18.9634 29.8574 18.4842 29.7589 18.0051C29.6604 17.526 29.5866 17.0468 29.4881 16.5677C29.3897 16.0886 29.2748 15.6169 29.1928 15.1378C29.1435 14.8982 29.0697 14.6661 29.0287 14.3891C28.9877 14.1121 28.9302 13.9774 28.8646 13.7378Z" fill="#E69483"/>
<path d="M2.75717 59.7874C2.75717 59.7874 -0.77091 68.7787 0.156236 69.6246C0.207489 69.8335 0.3339 70.0207 0.515318 70.1564C0.696735 70.2921 0.922713 70.3684 1.15723 70.3733C1.17874 70.4931 1.2293 70.6071 1.30522 70.7069C1.38115 70.8066 1.48052 70.8897 1.59608 70.9499C1.71165 71.0102 1.8405 71.0461 1.97324 71.0552C2.10597 71.0642 2.23925 71.0461 2.36334 71.0022C2.41586 71.3164 2.55099 71.6144 2.75717 71.8706C3.22485 72.3497 4.31609 72.0203 4.3325 69.8492C4.52663 70.2693 4.89116 70.6045 5.3499 70.7851C6.34268 71.1444 5.87501 69.8343 5.87501 69.8343C5.87501 69.8343 5.82578 68.6065 5.62066 66.937C5.41554 65.2675 4.8412 64.9156 4.8412 64.9156L8.7385 53.3564L2.75717 59.7874Z" fill="#FFCEB1"/>
<path d="M1.27197 62.5423L5.94052 48.0334L10.6173 33.1802C12.9475 32.6711 17.8293 33.1278 14.7197 41.1383L10.7814 52.2783L5.98155 64.2567L1.27197 62.5423Z" fill="#FAF3DD"/>
<path d="M24.1797 22.5791C24.1797 22.5791 24.6227 22.7288 25.2955 22.916C26.1003 23.1437 26.9233 23.3139 27.757 23.4251C28.205 23.4888 28.6574 23.5238 29.1108 23.5299C29.3241 23.5299 29.5375 23.5299 29.7344 23.5299C29.9209 23.526 30.1071 23.5135 30.2923 23.4925C30.5682 23.4643 30.8422 23.4218 31.1128 23.3652L31.4328 23.3053L31.1292 23.4176C30.8649 23.5198 30.59 23.5975 30.3087 23.6497C30.1227 23.6924 29.9335 23.7224 29.7426 23.7395C29.5284 23.7726 29.3116 23.7901 29.0944 23.7919C28.6256 23.7988 28.1568 23.7763 27.6914 23.7245C27.2316 23.6577 26.7767 23.5652 26.3294 23.4475C25.9388 23.3461 25.5553 23.2236 25.1807 23.0807C24.8326 22.9386 24.4979 22.7708 24.1797 22.5791Z" fill="#E69483"/>
<path d="M34.2883 7.56822C35.5272 7.41849 37.8246 5.15757 36.922 2.79932C36.922 2.79932 36.6923 4.07951 34.7314 4.07951C34.7314 4.07951 35.8554 3.66775 36.077 3.05386C36.077 3.05386 34.6739 3.80251 31.3592 1.98329C31.0638 1.8111 30.7274 1.63891 30.3582 1.46672C29.871 1.20888 29.3571 0.995718 28.8239 0.830364C25.0496 -0.53218 19.6919 -0.958911 17.7884 5.48697C17.7425 5.60602 17.7095 5.72889 17.6899 5.85381C17.6899 5.85381 15.0562 5.59178 15.0562 9.66444C15.0562 11.2067 15.6797 12.8013 16.5002 14.7553C17.3207 14.8601 17.8048 15.8633 17.8048 15.8633L18.1822 18.4985C18.2163 19.3622 18.1056 20.2257 17.854 21.0589C17.4438 22.0172 16.8776 26.4716 23.2774 28.7251C29.6772 30.9785 35.5847 28.6278 34.116 21.0439C34.116 21.0439 34.2473 23.0877 33.2381 22.8257C32.2289 22.5637 33.1724 19.9284 28.3152 20.4226C26.7891 20.2504 24.7215 19.1124 23.0313 21.7551C21.7103 23.8289 19.2816 22.4065 19.0929 17.1734V15.8408C19.0929 15.7659 19.0929 15.6911 19.0929 15.6087V12.0676C20.1714 11.1762 20.8812 9.9735 21.1031 8.66125C32.8607 12.7938 36.4544 7.56822 36.4544 7.56822C35.7421 7.72151 35.0005 7.72151 34.2883 7.56822ZM24.2374 22.1669C25.6705 22.5929 27.2274 22.5073 28.5941 21.9273C29.5852 22.5753 30.7803 22.9116 31.9991 22.8856C32.1947 23.2093 32.3072 23.5692 32.328 23.9383C32.3489 24.3074 32.2777 24.6759 32.1196 25.0162C31.9616 25.3565 31.7209 25.6596 31.4158 25.9027C31.1107 26.1457 30.749 26.3223 30.3582 26.4192C27.6588 27.3401 28.3316 24.63 28.3316 24.63L27.265 24.4727C27.3503 24.726 27.3605 24.9953 27.2946 25.2533C27.2286 25.5112 27.0888 25.7486 26.8894 25.9412C26.69 26.1338 26.4382 26.2746 26.1597 26.3494C25.8812 26.4242 25.5859 26.4302 25.304 26.3668C21.8251 26.0599 24.2374 22.1669 24.2374 22.1669Z" fill="#8E6537"/>
<path d="M0.763184 62.9015L1.60828 59.832L7.44192 62.2352L6.2112 64.848L0.763184 62.9015Z" fill="#E0D6B9"/>
<path d="M23.7449 33.1051C24.4408 33.4976 25.2555 33.6779 26.0711 33.62C26.8868 33.5621 27.6611 33.2691 28.2822 32.7832L29.1026 34.1607L27.4617 36.6238L30.6123 56.5603L27.5683 59.9967L23.9172 56.6427L25.4351 36.4291L22.9736 34.3479L23.4167 33.2099" fill="#8D3549"/>
<path d="M19.9131 31.3386L22.514 35.1642L24.3355 32.0648L20.5367 29.8188L19.9131 31.3386Z" fill="#E0D6B9"/>
<path d="M55.0134 23.7022C54.9478 24.8102 54.8001 26.1578 54.6196 27.5503C53.3806 27.3631 52.1581 27.1909 50.8782 27.0337C51.2884 25.3493 51.6986 23.8445 51.8791 22.976C51.3376 22.976 50.2792 22.8338 49.7869 21.3215C49.3685 20.0488 50.0987 19.6071 50.7223 19.4574C50.7223 19.1055 50.7223 19.4574 50.7223 18.8734C50.7223 17.2189 54.8247 17.5259 56.3016 18.4692C57.7784 19.4125 56.9333 21.868 56.1539 22.8937C56.0335 23.0917 55.8703 23.2655 55.6743 23.4045C55.4783 23.5434 55.2535 23.6447 55.0134 23.7022Z" fill="#FFCEB1"/>
<path d="M49.8855 24.8926L48.4825 34.4379L31.121 31.7352C29.4801 33.2325 30.3006 39.2217 40.253 39.6036L53.4546 40.5019L55.6453 26.053L49.8855 24.8926Z" fill="#FAF3DD"/>
<path d="M52.5109 19.2029C52.4207 19.2029 52.6012 14.2767 52.2402 13.9623C52.1186 13.8752 51.9712 13.8234 51.817 13.8137C51.6628 13.804 51.509 13.8367 51.3755 13.9077C51.2419 13.9787 51.1348 14.0847 51.0681 14.2119C51.0014 14.3391 50.9781 14.4817 51.0012 14.6211C51.0012 15.4446 50.7305 19.682 50.7305 19.682L52.5109 19.2029Z" fill="#FFCEB1"/>
<path d="M49.6722 24.1367L56.195 25.1923L56.072 27.9099L49.0322 26.5249L49.6722 24.1367Z" fill="#E0D6B9"/>
<path d="M31.2031 31.6228L29.2093 35.3361L27.0269 32.3265L30.4647 30.2378L31.2031 31.6228Z" fill="#E0D6B9"/>
</svg>
