<svg width="30" height="36" fill="none" xmlns="http://www.w3.org/2000/svg"><path d="M14.97 35.556A14.97 14.97 0 1127.815 12.89a1.871 1.871 0 01-3.21 1.925 11.228 11.228 0 101.595 5.77 1.871 1.871 0 113.743 0c-.01 8.264-6.707 14.961-14.971 14.97z" fill="#373562"/><path d="M18.714 26.199c-.497 0-.973-.198-1.323-.549l-3.743-3.742a1.871 1.871 0 01-.548-1.323v-7.486a1.871 1.871 0 013.742 0v6.711l3.195 3.195a1.872 1.872 0 01-1.323 3.194zM16.842 3.743H13.1A1.871 1.871 0 0113.1 0h3.743a1.871 1.871 0 010 3.743z" fill="#373562"/></svg>