<svg width="192" height="33" viewBox="0 0 192 33" fill="none" xmlns="http://www.w3.org/2000/svg">
<path d="M192.179 21.1893V10.195C192.199 10.1947 189.191 10.7077 186.976 11.1483C182.111 12.1154 176.68 13.1518 175.889 13.3056C175.171 13.4454 174.458 13.5918 173.769 13.7334C171.946 14.1077 170.225 14.4613 168.489 14.6878C165.644 15.059 163.327 15.4394 161.195 15.8848C160.655 15.9976 160.119 16.1217 159.601 16.2415C158.43 16.5131 157.325 16.7692 156.283 16.8631C155.131 16.9672 154.051 17.1206 153.029 17.3268C153.805 15.2809 154.608 13.2029 155.47 11.1849C156.079 9.75757 156.026 8.35078 155.316 7.11632C155.19 6.889 154.219 4.84792 153.156 2.5767L152.778 1.7681C152.548 1.27595 151.959 0.944283 151.293 0.931309L150.199 0.909874C150.132 0.908464 149.767 0.901978 149.194 0.901978C148.052 0.901978 145.824 0.929899 143.722 1.11773C143.714 1.11858 143.707 1.11914 143.699 1.11999C142.665 1.22434 142.005 1.31093 141.524 1.3741C140.859 1.46153 140.683 1.48466 140.137 1.48804L140.036 1.48833C139.723 1.48833 139.413 1.48353 139.102 1.47846C138.76 1.47281 138.415 1.46717 138.066 1.46717C137.499 1.46717 137.023 1.48184 136.566 1.51343C135.042 1.61806 133.479 1.71142 131.968 1.80138C127.023 2.09611 121.913 2.40071 116.859 3.17292C116.083 3.29137 115.306 3.40757 114.529 3.52377C110.943 4.05963 107.235 4.61383 103.586 5.41565C102.961 5.553 102.363 5.70305 101.785 5.84801C100.728 6.11284 99.73 6.363 98.7802 6.48315C97.525 6.64194 96.3344 6.86531 95.1835 7.08135L94.7041 7.17103C92.106 7.65472 89.5266 8.22979 87.0317 8.78596C83.2412 9.63122 79.3335 10.5024 75.4682 11.0216C73.5537 11.2789 71.8815 11.5846 70.3555 11.9566C68.516 12.405 66.5869 12.8024 64.7212 13.1865C62.3814 13.6685 59.9704 14.1652 57.592 14.7857C57.5425 14.795 57.4236 14.8119 57.3505 14.8223C57.1846 14.846 57.0069 14.872 56.8188 14.9061C56.4364 14.9752 56.0523 15.0415 55.669 15.1078C54.9402 15.2335 54.1996 15.361 53.4511 15.5105C53.9781 13.5958 54.5561 11.5031 55.148 9.37992C55.779 7.11716 54.3221 4.94014 51.6839 4.20347C51.2382 4.07881 50.7641 3.74291 50.1636 3.31732L50.006 3.20535C48.7605 2.32512 47.3767 1.87951 45.8905 1.87951C45.5074 1.87951 45.1129 1.90969 44.7181 1.96919C43.6668 2.1277 42.5887 2.27351 41.546 2.41481C40.4629 2.56147 39.3428 2.7132 38.2185 2.88299C36.2263 3.18363 34.2456 3.53928 32.3301 3.88308C30.0677 4.28921 27.7298 4.70887 25.441 5.02306C25.399 5.02616 25.3568 5.03039 25.3145 5.03632C24.3105 5.17282 23.3728 5.36319 22.466 5.54708C21.3681 5.76989 20.3344 5.97944 19.3595 6.05446C18.2355 6.14076 16.4661 6.47977 14.4174 6.87236C12.2937 7.27933 9.89198 7.73961 8.35593 7.88514C7.45622 7.97032 6.66509 8.16351 6.0291 8.31863C5.59376 8.42496 5.1835 8.52508 4.88145 8.55497C3.58116 8.68386 -1.55549 9.60048 -4.81714 10.195V21.1893C-2.73216 20.7769 3.72627 19.4471 4.37839 19.2562C4.92874 19.0949 5.38236 19.0385 5.95708 18.9668C6.34369 18.9186 6.78189 18.8639 7.27922 18.7705C8.90915 18.4645 10.5921 18.1486 12.222 17.9354C14.029 17.6991 17.3956 17.1141 20.9596 16.4948C23.6007 16.0359 26.3242 15.5627 28.1924 15.2736C28.2411 15.2691 28.288 15.2634 28.3343 15.2561C29.158 15.1298 29.9689 14.9825 30.7525 14.8404C31.4114 14.7208 32.0846 14.5984 32.7328 14.4946C33.2645 14.4097 33.7977 14.3265 34.3312 14.2436C35.7343 14.0253 37.1704 13.8019 38.6119 13.5349C38.0837 14.9786 37.5735 16.4161 37.0747 17.8215C36.6455 19.0306 36.1593 20.4013 35.6752 21.731C35.0421 23.4698 35.2542 25.0134 36.3051 26.3214L36.5484 26.8533C36.5803 26.923 46.3735 24.6696 46.4183 24.7319C46.4215 24.9366 36.7286 27.4152 36.758 27.4797C37.0171 28.048 37.3112 28.6925 37.6803 29.3321C37.7613 29.4723 37.8311 29.5973 37.8931 29.7089L37.9153 29.749C38.3062 30.451 39.2239 32.0981 41.6514 32.0981C42.2193 32.0981 42.8395 32.0106 43.6048 31.8228C43.7765 31.7808 43.9632 31.7348 44.1785 31.6852C47.4505 30.931 50.6885 30.0536 53.8198 29.205L53.8975 29.1838C55.1917 28.8332 56.5296 28.4708 57.8457 28.1242C59.3903 27.7175 60.95 27.2976 62.4588 26.8911C66.4321 25.8211 70.5361 24.7164 74.5985 23.7899C75.3904 23.6094 76.188 23.419 76.9591 23.2351L77.0322 23.2176C79.2511 22.688 81.5436 22.1411 83.7826 21.8032C86.2657 21.4279 88.9189 20.9727 91.4994 20.1886C93.0451 19.7185 94.7679 19.3027 96.9206 18.8802C98.3789 18.594 99.9414 18.2431 101.486 17.6176C101.844 17.4729 102.347 17.3832 102.837 17.3079C103.782 17.1629 104.727 17.016 105.672 16.8688L105.715 16.862C107.469 16.5893 109.282 16.3072 111.061 16.0435C117.846 15.0364 124.852 13.9965 131.957 13.2613C134.761 12.9711 137.542 12.7677 140.252 12.6543C138.661 16.9142 137.2 21.1004 135.9 25.1217L135.656 25.8753C135.506 26.3415 135.7 26.8347 136.159 27.152L136.902 27.665C138.756 28.9466 140.745 29.7476 142.791 30.5218C143.573 30.8179 144.372 30.9679 145.164 30.9679C145.862 30.9679 146.564 30.8517 147.251 30.6227C148.856 30.0857 150.532 29.6585 152.305 29.2061L153.441 28.9153C154.655 28.6048 156.144 28.2238 157.5 27.376C158.023 27.2851 158.559 27.2019 159.119 27.1151C160.063 26.9681 161.039 26.8164 162.038 26.6142C162.94 26.4317 163.877 26.2927 164.868 26.1454C166.03 25.9728 167.23 25.7946 168.455 25.5334C168.76 25.4683 169.049 25.3969 169.369 25.3171C169.742 25.224 170.206 25.1084 170.408 25.0971C171.692 25.0252 172.85 24.8385 173.969 24.658L174.035 24.6473C174.327 24.6002 174.619 24.5531 174.912 24.5091C175.649 24.3982 176.376 24.2747 177.079 24.1548L177.13 24.1461C177.786 24.0344 179.041 23.7583 180.495 23.4385C182.358 23.029 185.177 22.356 185.942 22.2779C188.176 22.05 192.169 21.1912 192.179 21.1893Z" fill="#ED1C24"/>
</svg>
