<svg width="267" height="64" viewBox="0 0 267 64" fill="none" xmlns="http://www.w3.org/2000/svg">
<g clip-path="url(#clip0)">
<path d="M70.1676 16H97.2023V20.9231H86.5723V48.5981H80.727V20.9231H70.1441V16H70.1676ZM96.0474 24.995H101.044V29.55H101.139C101.304 28.9058 101.61 28.2847 102.058 27.6866C102.506 27.0884 103.048 26.5133 103.684 26.0302C104.32 25.5241 105.028 25.133 105.805 24.8109C106.583 24.5119 107.385 24.3508 108.186 24.3508C108.799 24.3508 109.247 24.3738 109.482 24.3968C109.718 24.4198 109.954 24.4659 110.213 24.4889V29.504C109.836 29.4349 109.459 29.3889 109.058 29.3429C108.657 29.2969 108.28 29.2739 107.903 29.2739C107.007 29.2739 106.159 29.4579 105.358 29.803C104.556 30.1481 103.873 30.6772 103.283 31.3444C102.694 32.0345 102.223 32.8627 101.869 33.8749C101.516 34.8871 101.351 36.0374 101.351 37.3487V48.5751H96.0238V24.995H96.0474ZM134.702 48.5981H129.47V45.3084H129.375C128.715 46.5047 127.749 47.4479 126.453 48.161C125.156 48.8742 123.836 49.2423 122.493 49.2423C119.311 49.2423 117.001 48.4831 115.587 46.9418C114.173 45.4004 113.466 43.0769 113.466 39.9712V24.995H118.792V39.4651C118.792 41.5356 119.193 43.0079 120.018 43.8591C120.819 44.7103 121.974 45.1474 123.436 45.1474C124.567 45.1474 125.486 44.9863 126.24 44.6413C126.995 44.2962 127.608 43.8591 128.055 43.284C128.527 42.7318 128.857 42.0417 129.069 41.2595C129.281 40.4774 129.375 39.6262 129.375 38.706V25.018H134.702V48.5981ZM143.776 41.0295C143.941 42.5478 144.531 43.606 145.544 44.2272C146.581 44.8253 147.807 45.1474 149.245 45.1474C149.74 45.1474 150.305 45.1014 150.942 45.0323C151.578 44.9633 152.191 44.8023 152.733 44.5953C153.299 44.3882 153.747 44.0661 154.124 43.652C154.477 43.238 154.642 42.7088 154.619 42.0417C154.595 41.3745 154.336 40.8224 153.864 40.4083C153.393 39.9712 152.804 39.6492 152.073 39.3731C151.342 39.1201 150.517 38.89 149.575 38.706C148.632 38.5219 147.689 38.3149 146.723 38.1078C145.733 37.9008 144.766 37.6247 143.847 37.3257C142.928 37.0266 142.103 36.6125 141.372 36.0834C140.642 35.5773 140.052 34.9101 139.628 34.105C139.18 33.2998 138.968 32.3106 138.968 31.1143C138.968 29.826 139.298 28.7678 139.935 27.8936C140.571 27.0194 141.396 26.3293 142.362 25.8001C143.352 25.271 144.436 24.9029 145.639 24.6729C146.841 24.4659 147.995 24.3508 149.08 24.3508C150.329 24.3508 151.531 24.4889 152.662 24.7419C153.794 24.995 154.831 25.4091 155.75 26.0072C156.669 26.5823 157.423 27.3415 158.036 28.2617C158.649 29.1819 159.026 30.3091 159.191 31.6204H153.629C153.369 30.3781 152.804 29.527 151.885 29.1129C150.965 28.6758 149.905 28.4687 148.726 28.4687C148.349 28.4687 147.901 28.4917 147.383 28.5607C146.864 28.6298 146.393 28.7448 145.921 28.9058C145.474 29.0669 145.096 29.3199 144.766 29.642C144.46 29.9641 144.295 30.3781 144.295 30.9073C144.295 31.5514 144.531 32.0575 144.979 32.4486C145.426 32.8397 146.016 33.1618 146.746 33.4378C147.477 33.6909 148.302 33.9209 149.245 34.105C150.188 34.289 151.154 34.496 152.144 34.7031C153.11 34.9101 154.053 35.1862 154.996 35.4853C155.939 35.7843 156.764 36.1984 157.494 36.7275C158.225 37.2566 158.814 37.9008 159.262 38.683C159.71 39.4651 159.945 40.4543 159.945 41.6046C159.945 43.0079 159.615 44.1812 158.956 45.1704C158.296 46.1366 157.447 46.9418 156.41 47.5399C155.373 48.138 154.194 48.5981 152.922 48.8742C151.649 49.1502 150.376 49.2883 149.127 49.2883C147.595 49.2883 146.181 49.1272 144.884 48.7822C143.588 48.4371 142.457 47.931 141.514 47.2638C140.571 46.5737 139.817 45.7225 139.275 44.7103C138.733 43.6981 138.45 42.4788 138.403 41.0755H143.776V41.0295ZM161.36 24.995H165.39V17.9094H170.717V24.995H175.525V28.8828H170.717V41.4896C170.717 42.0417 170.74 42.5018 170.788 42.9159C170.835 43.307 170.953 43.652 171.118 43.9281C171.283 44.2042 171.542 44.4112 171.895 44.5492C172.249 44.6873 172.697 44.7563 173.31 44.7563C173.687 44.7563 174.064 44.7563 174.441 44.7333C174.818 44.7103 175.195 44.6643 175.572 44.5722V48.5981C174.983 48.6671 174.394 48.7132 173.852 48.7822C173.286 48.8512 172.72 48.8742 172.131 48.8742C170.717 48.8742 169.586 48.7362 168.737 48.4831C167.889 48.23 167.205 47.839 166.734 47.3329C166.239 46.8267 165.932 46.2056 165.744 45.4464C165.579 44.6873 165.461 43.8131 165.437 42.8469V28.9288H161.407V24.995H161.36ZM179.296 24.995H184.34V28.1927H184.435C185.189 26.8124 186.226 25.8462 187.569 25.248C188.913 24.6499 190.351 24.3508 191.93 24.3508C193.839 24.3508 195.489 24.6729 196.903 25.34C198.317 25.9842 199.496 26.8814 200.439 28.0316C201.381 29.1819 202.065 30.5162 202.536 32.0345C203.008 33.5528 203.243 35.1862 203.243 36.9116C203.243 38.4989 203.031 40.0403 202.607 41.5126C202.183 43.0079 201.546 44.3192 200.698 45.4694C199.849 46.6197 198.765 47.5169 197.445 48.207C196.125 48.8972 194.593 49.2423 192.802 49.2423C192.024 49.2423 191.246 49.1733 190.468 49.0352C189.691 48.8972 188.936 48.6671 188.229 48.3681C187.522 48.069 186.839 47.6779 186.249 47.1948C185.637 46.7117 185.142 46.1596 184.717 45.5385H184.623V57.317H179.296V24.995ZM197.917 36.8196C197.917 35.7613 197.775 34.7261 197.492 33.7139C197.209 32.7017 196.785 31.8275 196.22 31.0453C195.654 30.2631 194.947 29.642 194.122 29.1819C193.273 28.7218 192.307 28.4687 191.223 28.4687C188.984 28.4687 187.287 29.2279 186.155 30.7462C185.024 32.2646 184.458 34.289 184.458 36.8196C184.458 38.0158 184.6 39.1201 184.906 40.1323C185.212 41.1445 185.637 42.0187 186.249 42.7548C186.839 43.491 187.546 44.0661 188.371 44.4802C189.196 44.9173 190.162 45.1244 191.246 45.1244C192.472 45.1244 193.485 44.8713 194.334 44.3882C195.182 43.9051 195.866 43.261 196.408 42.5018C196.95 41.7196 197.351 40.8454 197.587 39.8562C197.799 38.867 197.917 37.8548 197.917 36.8196ZM207.321 16H212.648V20.9231H207.321V16ZM207.321 24.995H212.648V48.5981H207.321V24.995ZM217.409 16H222.736V48.5981H217.409V16ZM239.07 49.2423C237.137 49.2423 235.416 48.9202 233.908 48.2991C232.399 47.6779 231.127 46.8037 230.066 45.7225C229.029 44.6183 228.227 43.307 227.685 41.7886C227.143 40.2703 226.86 38.5909 226.86 36.7735C226.86 34.9791 227.143 33.3228 227.685 31.8045C228.227 30.2861 229.029 28.9748 230.066 27.8706C231.103 26.7664 232.399 25.9152 233.908 25.294C235.416 24.6729 237.137 24.3508 239.07 24.3508C241.002 24.3508 242.723 24.6729 244.231 25.294C245.74 25.9152 247.013 26.7894 248.073 27.8706C249.11 28.9748 249.912 30.2861 250.454 31.8045C250.996 33.3228 251.279 34.9791 251.279 36.7735C251.279 38.5909 250.996 40.2703 250.454 41.7886C249.912 43.307 249.11 44.6183 248.073 45.7225C247.036 46.8267 245.74 47.6779 244.231 48.2991C242.723 48.9202 241.002 49.2423 239.07 49.2423ZM239.07 45.1244C240.248 45.1244 241.285 44.8713 242.157 44.3882C243.029 43.9051 243.736 43.261 244.302 42.4788C244.868 41.6966 245.269 40.7994 245.551 39.8102C245.811 38.821 245.952 37.8088 245.952 36.7735C245.952 35.7613 245.811 34.7721 245.551 33.7599C245.292 32.7477 244.868 31.8735 244.302 31.0913C243.736 30.3091 243.029 29.688 242.157 29.2049C241.285 28.7218 240.248 28.4687 239.07 28.4687C237.891 28.4687 236.854 28.7218 235.982 29.2049C235.11 29.688 234.403 30.3321 233.837 31.0913C233.271 31.8735 232.871 32.7477 232.588 33.7599C232.329 34.7721 232.187 35.7613 232.187 36.7735C232.187 37.8088 232.329 38.821 232.588 39.8102C232.847 40.7994 233.271 41.6966 233.837 42.4788C234.403 43.261 235.11 43.9051 235.982 44.3882C236.854 44.8943 237.891 45.1244 239.07 45.1244ZM252.834 24.995H256.865V17.9094H262.192V24.995H267V28.8828H262.192V41.4896C262.192 42.0417 262.215 42.5018 262.262 42.9159C262.31 43.307 262.427 43.652 262.592 43.9281C262.757 44.2042 263.017 44.4112 263.37 44.5492C263.724 44.6873 264.172 44.7563 264.784 44.7563C265.162 44.7563 265.539 44.7563 265.916 44.7333C266.293 44.7103 266.67 44.6643 267.047 44.5722V48.5981C266.458 48.6671 265.869 48.7132 265.327 48.7822C264.761 48.8512 264.195 48.8742 263.606 48.8742C262.192 48.8742 261.06 48.7362 260.212 48.4831C259.363 48.23 258.68 47.839 258.208 47.3329C257.713 46.8267 257.407 46.2056 257.219 45.4464C257.054 44.6873 256.936 43.8131 256.912 42.8469V28.9288H252.882V24.995H252.834Z" fill="#636363"/>
<path d="M63.9452 22.683H39.5267L31.9844 0L24.4184 22.683L0 22.66L19.7752 36.693L12.2092 59.353L31.9844 45.3429L51.736 59.353L44.1936 36.693L63.9452 22.683Z" fill="#00B67A"/>
<path d="M45.8906 41.8235L44.1936 36.6934L31.9844 45.3433L45.8906 41.8235Z" fill="#005128"/>
</g>
<defs>
<clipPath id="clip0">
<rect width="267" height="64" fill="white"/>
</clipPath>
</defs>
</svg>
