<svg width="32" height="32" fill="none" xmlns="http://www.w3.org/2000/svg"><path fill-rule="evenodd" clip-rule="evenodd" d="M10.791 5.196a5.196 5.196 0 005.196 5.196 5.202 5.202 0 005.196-5.196 5.196 5.196 0 00-10.392 0zm3.198 0a1.998 1.998 0 113.997 0 1.998 1.998 0 01-3.997 0z" fill="#373562"/><path fill-rule="evenodd" clip-rule="evenodd" d="M8.793 17.586h14.389c.883 0 1.599-.715 1.599-1.598v-2.399a6.395 6.395 0 00-6.395-6.395h-4.797a6.395 6.395 0 00-6.395 6.395v2.399c0 .883.716 1.598 1.6 1.598zm12.79-3.197H10.392v-.8a3.198 3.198 0 013.197-3.197h4.797a3.198 3.198 0 013.197 3.197v.8z" fill="#373562"/><path d="M15.987 31.975a1.599 1.599 0 01-1.598-1.599v-9.592a1.599 1.599 0 013.197 0v9.592a1.6 1.6 0 01-1.599 1.599z" fill="#373562"/><path d="M28.777 27.179a1.599 1.599 0 01-1.598-1.599v-3.197H4.796v3.197a1.599 1.599 0 11-3.197 0v-4.796c0-.883.715-1.599 1.598-1.599h25.58a1.6 1.6 0 011.6 1.599v4.796a1.6 1.6 0 01-1.6 1.599z" fill="#373562"/><path d="M4.796 27.179H1.6a1.599 1.599 0 010-3.198h3.197a1.599 1.599 0 110 3.198zm12.79 4.796H14.39a1.599 1.599 0 110-3.198h3.197a1.599 1.599 0 010 3.198zm12.79-4.796H27.18a1.599 1.599 0 010-3.198h3.197a1.599 1.599 0 110 3.198z" fill="#373562"/></svg>