<svg width="764" height="590" fill="none" xmlns="http://www.w3.org/2000/svg"><g clip-path="url(#clip0)"><path fill-rule="evenodd" clip-rule="evenodd" d="M259.5 746.783a19.352 19.352 0 0013.987-5.993l485.096-507.755c7.325-7.668 7.206-19.825-.266-27.346L564.278 10.399a19.342 19.342 0 00-13.721-5.72H317.711a19.342 19.342 0 00-13.721 5.72L259.5 55.175l-44.491-44.778a19.342 19.342 0 00-13.721-5.72H-31.558a19.342 19.342 0 00-13.72 5.72l-194.04 195.293c-7.473 7.521-7.591 19.678-.266 27.346L245.512 740.79a19.354 19.354 0 0013.988 5.993zm19.404-655.898l46.845-47.148h177.963L278.904 269.996V90.885zm-38.808 179.111V90.885L193.25 43.737H15.288l83.298 83.836c.005.005.007.009.012.012l141.498 142.411zM84.866 169.001l160.913 161.952c7.577 7.626 19.864 7.626 27.442 0l160.913-161.952 50.174 50.497L259.5 445.757 34.692 219.498l50.173-50.497zM-.789 239.027l240.884 242.439v197.302L-180.02 239.027H-.788zm-177.963-39.058L-31.558 51.827l88.981 89.555-58.211 58.587h-177.963zm457.655 478.799V481.466l240.884-242.439h179.23L278.904 678.768zM697.75 199.969H519.788l-58.212-58.587 88.981-89.555L697.75 199.969z" fill="#fff"/></g><defs><clipPath id="clip0"><path fill="#fff" d="M0 0h764v590H0z"/></clipPath></defs></svg>