<svg width="118" height="257" viewBox="0 0 118 257" fill="none" xmlns="http://www.w3.org/2000/svg">
<path d="M112.992 256.197C112.699 256.49 112.224 256.49 111.931 256.197L107.158 251.424C106.865 251.132 106.865 250.657 107.158 250.364C107.451 250.071 107.926 250.071 108.219 250.364L112.461 254.606L116.704 250.364C116.997 250.071 117.472 250.071 117.765 250.364C118.058 250.657 118.058 251.132 117.765 251.424L112.992 256.197ZM0.250031 6.53033C-0.0428696 6.23744 -0.0428696 5.76256 0.250031 5.46967L5.02299 0.696699C5.3159 0.403806 5.79076 0.403806 6.08366 0.696699C6.37655 0.989593 6.37655 1.46447 6.08366 1.75736L1.84102 6L6.08366 10.2426C6.37655 10.5355 6.37655 11.0104 6.08366 11.3033C5.79076 11.5962 5.3159 11.5962 5.02299 11.3033L0.250031 6.53033ZM111.711 255.667L111.711 7.01503H113.211L113.211 255.667H111.711ZM0.780357 5.25L111.446 5.25V6.75L0.780357 6.75V5.25ZM111.711 7.01503C111.711 6.86866 111.593 6.75 111.446 6.75V5.25C112.421 5.25 113.211 6.04022 113.211 7.01503H111.711Z" fill="#FFD7A9"/>
</svg>
