<?xml version="1.0" encoding="utf-8"?>
<!-- Generator: Adobe Illustrator 22.1.0, SVG Export Plug-In . SVG Version: 6.00 Build 0)  -->
<svg version="1.1" id="Слой_1" xmlns="http://www.w3.org/2000/svg" xmlns:xlink="http://www.w3.org/1999/xlink" x="0px" y="0px"
	 viewBox="0 0 426.7 373.6" style="enable-background:new 0 0 426.7 373.6;" xml:space="preserve">
<style type="text/css">
	.st0{fill:none;}
	.st1{fill:#4BAEE2;}
	.st2{fill:#EC8B00;}
</style>
<rect x="14.5" y="-4.3" class="st0" width="416.5" height="355.4"/>
<path class="st1" d="M23.7,43.3C33,18.9,57.3,0.5,83.4,0c27.5-0.6,51.9,17.1,72.7,35.1c20.8,18,41.9,38.1,68.8,44.2
	c32.3,7.3,65.6-7.3,98.7-5.5c45.3,2.4,85.6,37.8,98.3,81.4c12.7,43.5-0.5,92.5-29.7,127.2c-29.2,34.7-72.8,55.7-117.7,62.1
	c-50.2,7.1-104.4-4.2-142.7-37.5c-21-18.3-36.1-43.5-42.5-70.6c-5-21.5-0.8-45-7.2-66.1C75.3,148.2,54,140,39.5,123.6
	C20.7,102.1,13.2,70.4,23.7,43.3z"/>
<rect x="25.8" y="27.6" transform="matrix(0.6889 -0.7249 0.7249 0.6889 -100.5328 205.8705)" class="st0" width="327.6" height="384.9"/>
<path class="st2" d="M180.4,22.6c-16.7-0.3-33.7,3.5-48.6,10.1C110.6,41.9,92,56,74.3,70.7C17.2,118.6-25,196.3,17,267.6
	c28.1,47.8,80.9,76.4,131.8,93.6c74.9,25.3,219.5,19.9,211.2-94c-4.4-61.3-68.4-100.5-91.8-153.8c-11-25-14.7-55.4-37.1-73.5
	C216.5,28,198.6,22.9,180.4,22.6z"/>
</svg>
