<?xml version="1.0" encoding="utf-8"?>
<!-- Generator: Adobe Illustrator 22.1.0, SVG Export Plug-In . SVG Version: 6.00 Build 0)  -->
<svg version="1.1" id="Layer_1" xmlns="http://www.w3.org/2000/svg" xmlns:xlink="http://www.w3.org/1999/xlink" x="0px" y="0px"
	 viewBox="0 0 143.9 135.6" style="enable-background:new 0 0 143.9 135.6;" xml:space="preserve">
<style type="text/css">
	.st0{fill:#36A2DA;}
	.st1{fill:#EC8B00;}
</style>
<path class="st0" d="M1.7,15.2C5,6.7,13.6,0.2,22.8,0c9.7-0.2,18.3,6,25.6,12.3c7.4,6.3,14.8,13.4,24.3,15.5
	c11.4,2.5,23.2-2.6,34.8-1.9c16,0.8,30.2,13.3,34.7,28.6S142,87,131.7,99.2S106,118.8,90.2,121c-17.7,2.5-36.8-1.5-50.3-13.2
	c-7.4-6.4-12.7-15.3-15-24.8c-1.8-7.6-0.3-15.8-2.5-23.2C20,52,12.5,49.1,7.4,43.3C0.7,35.9-2,24.8,1.7,15.2z"/>
<path class="st1" d="M2,82.2C2.8,88,5,93.7,8.1,98.6c4.3,6.9,10.2,12.6,16.3,17.9c19.6,17.3,48.9,27.8,71.5,9.4
	c15.2-12.4,22.3-32.3,25.7-50.9c4.9-27.4-4.6-77.5-43.8-68.5c-21.1,4.8-31.4,29.2-48.7,40.2C21,51.9,10.6,54.8,5.5,63.6
	C2,69.3,1.1,75.8,2,82.2z"/>
</svg>
