<?xml version="1.0" encoding="utf-8"?>
<!-- Generator: Adobe Illustrator 22.1.0, SVG Export Plug-In . SVG Version: 6.00 Build 0)  -->
<svg width="799" height="798" version="1.1" id="Слой_1" xmlns="http://www.w3.org/2000/svg" xmlns:xlink="http://www.w3.org/1999/xlink" x="0px" y="0px"
	 viewBox="0 0 798.1 798" style="enable-background:new 0 0 798.1 798;" xml:space="preserve">
<style type="text/css">
	.st0{fill:#C7D2D3;}
	.st1{fill:#327079;}
	.st2{fill:#22575B;}
	.st3{fill:#FFFFFF;}
	.st4{fill:#D9E1E2;}
	.st5{fill:#3C5665;}
	.st6{fill:#314854;}
	.st7{fill:#D0F4F3;}
	.st8{fill:#E4F9F8;}
	.st9{fill:#F9D05E;}
	.st10{fill:#E8BB4B;}
	.st11{fill:#77A5B7;}
	.st12{fill:#D7DADD;}
	.st13{fill:#A19EA0;}
	.st14{fill:#EFEFEF;}
	.st15{fill:#C3C7C9;}
	.st16{fill:#7E7F7F;}
	.st17{fill:#262626;}
	.st18{fill:#E84F40;}
	.st19{fill:#EAEAEA;}
	.st20{fill:#5F8793;}
	.st21{fill:#C94039;}
	.st22{fill:#1F2F35;}
	.st23{fill:#898989;}
	.st24{fill:#182428;}
	.st25{fill:#87304B;}
	.st26{fill:#E48868;}
	.st27{fill:url(#SVGID_1_);}
	.st28{fill:url(#SVGID_2_);}
	.st29{fill:url(#SVGID_3_);}
	.st30{fill:url(#SVGID_4_);}
	.st31{fill:url(#SVGID_5_);}
	.st32{fill:url(#SVGID_6_);}
	.st33{fill:url(#SVGID_7_);}
	.st34{fill:url(#SVGID_8_);}
	.st35{fill:url(#SVGID_9_);}
	.st36{fill:#FFCDD2;}
	.st37{fill:#FF8A64;}
	.st38{fill:url(#SVGID_10_);}
	.st39{fill:url(#SVGID_11_);}
	.st40{fill:url(#SVGID_12_);}
	.st41{fill:url(#SVGID_13_);}
	.st42{fill:url(#SVGID_14_);}
	.st43{fill:url(#SVGID_15_);}
	.st44{fill:url(#SVGID_16_);}
	.st45{fill:url(#SVGID_17_);}
	.st46{fill:url(#SVGID_18_);}
	.st47{fill:url(#SVGID_19_);}
	.st48{fill:url(#SVGID_20_);}
	.st49{fill:#E0E0E0;}
	.st50{fill:#E0F7FA;}
	.st51{fill:#FFA726;}
	.st52{fill:url(#SVGID_21_);}
	.st53{fill:#5D4037;}
	.st54{fill:url(#SVGID_22_);}
	.st55{fill:url(#SVGID_23_);}
	.st56{fill:url(#SVGID_24_);}
	.st57{fill:#FFAB91;}
	.st58{fill:url(#SVGID_25_);}
	.st59{fill:#B29C88;}
	.st60{fill:url(#SVGID_26_);}
	.st61{fill:#303F9F;}
	.st62{fill:#212121;}
	.st63{fill:url(#SVGID_27_);}
	.st64{fill:#B0BEC5;}
	.st65{fill:url(#SVGID_28_);}
	.st66{fill:url(#SVGID_29_);}
	.st67{fill:url(#SVGID_30_);}
	.st68{fill:url(#SVGID_31_);}
	.st69{fill:url(#SVGID_32_);}
	.st70{fill:url(#SVGID_33_);}
	.st71{fill:url(#SVGID_34_);}
	.st72{fill:url(#SVGID_35_);}
	.st73{fill:url(#SVGID_36_);}
	.st74{fill:#424242;}
	.st75{fill:url(#SVGID_37_);}
	.st76{fill:url(#SVGID_38_);}
	.st77{fill:url(#SVGID_39_);}
	.st78{fill:#263238;}
	.st79{fill:#FFC400;}
</style>
<path class="st0" d="M798.1,293H532.6L499,245h299.2V293z"/>
<path class="st1" d="M305.5,621.8c69.9-51.6,56-147.3,32.7-204.2c-10.9-26.7-32.7-46.2-32.7-46.2s-21.8,19.5-32.6,46.1
	C249.6,474.4,235.5,570.1,305.5,621.8z"/>
<path class="st2" d="M301.1,656.6l4.4-277.7l4.5,277.7H301.1z"/>
<path class="st3" d="M272.9,663.9c0,10.2,4.8,19.3,12.2,25.2H326c7.4-5.9,12.2-15,12.2-25.2s-4.8-19.3-12.2-25.2h-40.9
	C277.6,644.6,272.9,653.7,272.9,663.9z"/>
<path class="st3" d="M326.6,638.7h-42.1c-2.3,0-4.2-1.9-4.2-4.2s1.9-4.2,4.2-4.2h42.1c2.3,0,4.2,1.9,4.2,4.2
	S328.9,638.7,326.6,638.7z"/>
<path class="st2" d="M305.5,446.5l0.1,2.2c0.2,0,18.8-0.8,38.7-14.6c-0.2-0.7-0.5-1.4-0.7-2.2C323.9,445.7,305.7,446.5,305.5,446.5z
	"/>
<path class="st2" d="M305.7,532.3c1.6-0.2,29.3-3.5,51.3-12.8c0-0.8,0.1-1.6,0.1-2.4c-22,9.6-51.3,13.1-51.6,13.1L305.7,532.3z"/>
<path class="st2" d="M354.5,476.3c-21,12.4-48.6,11.1-49,11.1l-0.1,2.2c0.1,0,0.9,0,2.4,0c4.2,0,13.5-0.3,24-2.7
	c5.9,0,16.2,2.4,24.5,4.5c-0.1-0.8-0.1-1.5-0.2-2.3c-5.8-1.5-12.4-3-18-3.8c5.6-1.6,11.4-3.8,16.7-7
	C354.8,477.8,354.7,477.1,354.5,476.3z"/>
<path class="st2" d="M330,401.4c-11.5,6.3-24.2,6.4-24.5,6.4v2.2c0.2,0,13.6-0.1,25.5-6.7C330.8,402.6,330.3,402.1,330,401.4z"/>
<path class="st2" d="M282,599.1c8.5,3.6,17.5,6.7,24.7,7.9l0.3-2.2c-8-1.4-18.4-5.2-27.8-9.3C280.2,596.8,281.1,598,282,599.1z"/>
<path class="st2" d="M306.1,428.4l0.6-2.1c-13.2-3.7-21.2-14-26-24.1c-0.5,0.7-0.9,1.5-1.3,2.2C284.4,414.6,292.6,424.7,306.1,428.4
	z"/>
<path class="st2" d="M304.4,433.3l0.5-2.1c-12.8-2.8-23.8-8.1-32.2-13.3c-0.2,0.7-0.6,1.4-0.8,2.1
	C280.5,425.1,291.6,430.5,304.4,433.3z"/>
<path class="st2" d="M304.9,571.8c-5.6-0.9-10.6-2.1-15.3-3.4c-9.3-2.3-24.5-22.4-34.3-36.8c0.2,1.6,0.3,3.1,0.6,4.8
	c7.3,10.4,16.9,22.7,25.1,29.5c-8.2-2.7-15.1-5.7-20.5-8.7c0.3,1,0.7,2.1,1,3.1c10.1,5.2,24,10.3,43,13.7L304.9,571.8z"/>
<path class="st2" d="M306.1,437.3c-0.5,0.1-0.8,0.2-0.9,0.2l0.7,2.1c0.1,0,0.3-0.1,0.6-0.1c7.3-1.6,22.2-6,33.6-17.2
	c-0.2-0.7-0.6-1.5-0.9-2.2C328.1,431.4,313.4,435.8,306.1,437.3z"/>
<path class="st2" d="M349.6,560.5C326,582,305,581.4,304.7,581.4l-0.1,2.2c0,0,0.1,0,0.3,0c2.7,0,21.6-0.7,43.2-18.9
	C348.6,563.3,349.1,561.9,349.6,560.5z"/>
<path class="st2" d="M297.7,517.7c2.3,0,4.6,0,7-0.1l-0.1-2.2c-23,1-39.9-3.4-50.7-7.8c0,0.8,0,1.6,0,2.4
	C263.7,514,278.3,517.7,297.7,517.7z"/>
<path class="st2" d="M275.1,463.3l-16.8,3.2c-0.1,0.8-0.2,1.5-0.5,2.3l21.5-4.1c8,2.6,17.2,4.8,27.6,5.9l0.2-2.2
	c-20.2-2.2-35.8-8.2-46.3-13.7c-0.2,0.7-0.3,1.5-0.5,2.2C264.4,459.1,269.4,461.3,275.1,463.3z"/>
<path class="st4" d="M326,638.7h-5.1c3,10.8,6.7,39.6-35.8,50.3H326c7.4-5.9,12.2-15,12.2-25.2S333.4,644.6,326,638.7z"/>
<path class="st5" d="M282.4,189.1h-96.3v58.6h96.3V189.1z"/>
<path class="st6" d="M282.4,189.1l-9.4,9.4l-77.5,39.9l-9.4,9.3h96.3V189.1z"/>
<path class="st7" d="M273,238.3v-39.8h-77.5v39.8H273z"/>
<path class="st8" d="M195.5,198.5v39.9l77.5-39.9H195.5z"/>
<path class="st9" d="M402.2,237.5h-96.3v58.6h96.3V237.5z"/>
<path class="st10" d="M402.1,237.5l-9.3,9.4l-77.6,39.9l-9.3,9.3h96.2V237.5z"/>
<path class="st7" d="M392.7,286.7v-39.8h-77.5v39.8H392.7z"/>
<path class="st8" d="M315.2,246.9v39.9l77.6-39.9H315.2z"/>
<path class="st3" d="M765.1,450.7l-89.3,51.9l2.3,4l89.3-51.9L765.1,450.7z"/>
<path class="st11" d="M770.1,452.5l-95.3,55.4l5.5,9.4l95.3-55.4L770.1,452.5z"/>
<path class="st12" d="M658.2,558.5H496.1v41.6h162.2V558.5z"/>
<path class="st13" d="M658.2,461.9H496.1v41.6h162.2V461.9z"/>
<path class="st11" d="M662.5,375.5H491.8v41.6h170.8V375.5z"/>
<path class="st14" d="M652.4,407.4v-22.4H501.9v22.4H652.4z"/>
<path class="st12" d="M658.2,426.6H496.1v35.3h162.2V426.6z"/>
<path class="st13" d="M658.2,600.1H579h-3.7h-79.2v3.8h79.2v85.4h3.7v-85.4h79.2V600.1z"/>
<path class="st12" d="M575.3,603.9h-79.2v85.4h79.2V603.9z"/>
<path class="st12" d="M658.2,603.9H579v85.4h79.2V603.9z"/>
<path class="st15" d="M658.2,548.9H496.1v9.6h162.2V548.9z"/>
<path class="st13" d="M658.2,417.1H496.1v9.6h162.2V417.1z"/>
<path class="st16" d="M658.2,417.1H496.1v3h162.2V417.1z"/>
<path class="st17" d="M595.8,579.3h-37.4v4.3h37.4V579.3z"/>
<path class="st17" d="M567.5,665.3v-37.4h-4.3v37.4H567.5z"/>
<path class="st17" d="M591,665.2v-37.4h-4.3v37.4H591z"/>
<path class="st12" d="M658.2,507.3H496.1v41.6h162.2V507.3z"/>
<path class="st17" d="M595.8,528h-37.4v4.3h37.4V528z"/>
<path class="st15" d="M658.2,503.6H496.1v3.7h162.2V503.6z"/>
<path class="st11" d="M495.9,417.1H405v11.7h90.9V417.1z"/>
<path class="st16" d="M496.1,428.9h-80.9v5.3h80.9V428.9z"/>
<path class="st11" d="M683.9,491.3h-25.6v39h25.6V491.3z"/>
<path class="st18" d="M512.1,437.9c0,2.1-1.6,3.7-3.7,3.7c-2.1,0-3.7-1.6-3.7-3.7c0-2.1,1.6-3.7,3.7-3.7
	C510.3,434.2,512.1,435.8,512.1,437.9z"/>
<path class="st19" d="M528.2,438.1c0,1.2-0.9,2.1-2.1,2.1c-1.2,0-2.1-0.9-2.1-2.1s0.9-2.1,2.1-2.1C527.3,436,528.2,437,528.2,438.1z
	"/>
<path class="st19" d="M554.4,453.9c0,1.6-1.3,2.9-2.9,2.9c-1.6,0-2.9-1.3-2.9-2.9c0-1.6,1.3-2.9,2.9-2.9
	C553.1,451,554.4,452.3,554.4,453.9z"/>
<path class="st19" d="M566.2,454.7c0,1.2-0.9,2.1-2.1,2.1c-1.2,0-2.1-0.9-2.1-2.1s0.9-2.1,2.1-2.1
	C565.3,452.5,566.2,453.6,566.2,454.7z"/>
<path class="st19" d="M575.1,454.7c0,1.2-0.9,2.1-2.1,2.1c-1.2,0-2.1-0.9-2.1-2.1s0.9-2.1,2.1-2.1
	C574.1,452.5,575.1,453.6,575.1,454.7z"/>
<path class="st19" d="M589,454.7c0,1.2-0.9,2.1-2.1,2.1c-1.2,0-2.1-0.9-2.1-2.1s0.9-2.1,2.1-2.1C588.1,452.5,589,453.6,589,454.7z"
	/>
<path class="st19" d="M597.1,454.7c0,1.2-0.9,2.1-2.1,2.1c-1.2,0-2.1-0.9-2.1-2.1s0.9-2.1,2.1-2.1
	C596.2,452.5,597.1,453.6,597.1,454.7z"/>
<path class="st19" d="M609.3,454.7c0,1.2-0.9,2.1-2.1,2.1c-1.2,0-2.1-0.9-2.1-2.1s0.9-2.1,2.1-2.1
	C608.4,452.5,609.3,453.6,609.3,454.7z"/>
<path class="st19" d="M537.7,438.1c0,1.2-0.9,2.1-2.1,2.1c-1.2,0-2.1-0.9-2.1-2.1s0.9-2.1,2.1-2.1C536.8,436,537.7,437,537.7,438.1z
	"/>
<path class="st19" d="M528.2,446.4c0,1.2-0.9,2.1-2.1,2.1c-1.2,0-2.1-0.9-2.1-2.1s0.9-2.1,2.1-2.1
	C527.3,444.3,528.2,445.2,528.2,446.4z"/>
<path class="st19" d="M537.7,446.4c0,1.2-0.9,2.1-2.1,2.1c-1.2,0-2.1-0.9-2.1-2.1s0.9-2.1,2.1-2.1
	C536.8,444.3,537.7,445.2,537.7,446.4z"/>
<path class="st19" d="M528.2,454.7c0,1.2-0.9,2.1-2.1,2.1c-1.2,0-2.1-0.9-2.1-2.1s0.9-2.1,2.1-2.1
	C527.3,452.5,528.2,453.6,528.2,454.7z"/>
<path class="st19" d="M537.7,454.7c0,1.2-0.9,2.1-2.1,2.1c-1.2,0-2.1-0.9-2.1-2.1s0.9-2.1,2.1-2.1
	C536.8,452.5,537.7,453.6,537.7,454.7z"/>
<path class="st19" d="M565.9,438.2h-18.1v4.1h18.1V438.2z"/>
<path class="st19" d="M599.5,445.3h-18.1v4.1h18.1V445.3z"/>
<path class="st19" d="M610.2,445.3h-7.8v4.1h7.8V445.3z"/>
<path class="st19" d="M579,445.3h-31.2v4.1H579V445.3z"/>
<path class="st19" d="M588.1,438.2H570v4.1h18.1V438.2z"/>
<path class="st19" d="M610.2,438.2h-18.1v4.1h18.1V438.2z"/>
<path class="st19" d="M631.3,433.5h-10.2v1.9h10.2V433.5z"/>
<path class="st20" d="M565.9,315.2l-69.8,24v36.3h162.2v-60.3H565.9z"/>
<path class="st19" d="M643.2,433.5h-10.2v1.9h10.2V433.5z"/>
<path class="st19" d="M649.3,433.5h-5.1v1.9h5.1V433.5z"/>
<path class="st19" d="M631.3,438.6h-10.2v1.9h10.2V438.6z"/>
<path class="st19" d="M643.2,438.6h-10.2v1.9h10.2V438.6z"/>
<path class="st19" d="M649.3,438.6h-5.1v1.9h5.1V438.6z"/>
<path class="st19" d="M639.1,445.7h10.2v-1.9h-10.2V445.7z"/>
<path class="st19" d="M627.3,445.7h10.2v-1.9h-10.2V445.7z"/>
<path class="st19" d="M621.1,445.7h5.1v-1.9h-5.1V445.7z"/>
<path class="st19" d="M631.3,448.9h-10.2v1.9h10.2V448.9z"/>
<path class="st19" d="M643.2,448.9h-10.2v1.9h10.2V448.9z"/>
<path class="st19" d="M649.3,448.9h-5.1v1.9h5.1V448.9z"/>
<path class="st13" d="M632.6,341.9H524.3l-22.4,33.6H655L632.6,341.9z"/>
<path class="st16" d="M631.3,358.7h-89.9v16.8h89.9V358.7z"/>
<path class="st11" d="M798.1,237.3H499v15.4h299.2V237.3z"/>
<path class="st18" d="M564.3,139.5h-31.7v97.9h31.7V139.5z"/>
<path class="st21" d="M564.3,139.5c0,69.1-31.7,97.9-31.7,97.9h31.7V139.5z"/>
<path class="st3" d="M557.4,147h-18v55.7h18V147z"/>
<path class="st22" d="M555.2,219.8c0,3.7-3,6.7-6.7,6.7c-3.7,0-6.7-3-6.7-6.7c0-3.7,3-6.7,6.7-6.7
	C552.2,213.1,555.2,216.1,555.2,219.8z"/>
<path class="st5" d="M595.9,139.5h-31.7v97.9h31.7V139.5z"/>
<path class="st6" d="M595.9,139.5c0,69.1-31.7,97.9-31.7,97.9h31.7V139.5z"/>
<path class="st3" d="M589.1,147h-18v55.7h18V147z"/>
<path class="st22" d="M586.9,219.8c0,3.7-3,6.7-6.7,6.7s-6.7-3-6.7-6.7c0-3.7,3-6.7,6.7-6.7S586.9,216.1,586.9,219.8z"/>
<path class="st13" d="M627.6,139.5h-31.7v97.9h31.7V139.5z"/>
<path class="st23" d="M627.6,139.5c0,69.1-31.7,97.9-31.7,97.9h31.7V139.5z"/>
<path class="st3" d="M620.8,147h-18v55.7h18V147z"/>
<path class="st22" d="M618.6,219.8c0,3.7-3,6.7-6.7,6.7c-3.7,0-6.7-3-6.7-6.7c0-3.7,3-6.7,6.7-6.7
	C615.4,213.1,618.6,216.1,618.6,219.8z"/>
<path class="st9" d="M659.3,139.5h-31.7v97.9h31.7V139.5z"/>
<path class="st10" d="M659.2,139.5c0,69.1-31.7,97.9-31.7,97.9h31.7V139.5z"/>
<path class="st3" d="M652.3,147h-18v55.7h18V147z"/>
<path class="st22" d="M650.1,219.8c0,3.7-3,6.7-6.7,6.7c-3.7,0-6.7-3-6.7-6.7c0-3.7,3-6.7,6.7-6.7
	C647.1,213.1,650.1,216.1,650.1,219.8z"/>
<path class="st5" d="M690.8,139.5h-31.7v97.9h31.7V139.5z"/>
<path class="st6" d="M690.8,139.5c0,69.1-31.7,97.9-31.7,97.9h31.7V139.5z"/>
<path class="st3" d="M684,147h-18v55.7h18V147z"/>
<path class="st22" d="M681.8,219.8c0,3.7-3,6.7-6.7,6.7s-6.7-3-6.7-6.7c0-3.7,3-6.7,6.7-6.7S681.8,216.1,681.8,219.8z"/>
<path class="st1" d="M772.1,160.5c0,0-8.5,6.4-14.5,17.1c-1.4-12.2-6.7-21.3-6.7-21.3s-5.3,9.2-6.7,21.3
	c-6-10.7-14.5-17.1-14.5-17.1s-1.7,13.9,4.2,27.8c5.9,13.8,17.2,22.3,17.2,22.3s11.3-8.5,17.2-22.3
	C773.9,174.5,772.1,160.5,772.1,160.5z"/>
<path class="st22" d="M764.7,237.3h-27.6l-4.9-40.5h37.4L764.7,237.3z"/>
<path class="st24" d="M769.6,196.9c-5.8,11.6-32.5,40.6-32.5,40.6h27.6L769.6,196.9z"/>
<path class="st25" d="M78,301.1c7.5,0.2,10.7-8.3,17.1-10.9c10.1-4.1,24.1-3.1,31.5,5.7c2,2.4,3.6,6.8,6.3,8.5
	c4.2,2.7,8.8,1.1,12.6,5.5c8.8,10.2-5,23.9,0.6,35.7c3.8,7.9,14.9,5.8,21.1,11.5c6.1,5.8,8.3,13.5,4.7,20.9c-1.6,3.3-7.5,9.8-2,12.4
	c1.1,0.5,2.2,0.6,3.3,0.9c10.5,2,21.1,8.8,25.6,18.7c11.8,25.6-11.8,46.3-33.7,54.4c-17.6,6.6-36.6,5.7-53.9-1.1
	c-25.8-10.1-58.7-28.6-57.6-60.4c0.3-7.7,6.3-15.6,3.5-23.3c-1.9-5-5.3-9.1-7.9-14c-2.5-5-3.8-10.7-3.3-16.4
	c0.2-3.3,0.9-6.5,2.5-9.3c3-5.5,9-6,13.1-10.4c2.7-2.8,4.2-6.4,4.4-10.4c0.3-4.1-1.9-7.9-0.5-11.8C67,302.2,73.1,300.9,78,301.1z"/>
<path class="st26" d="M132.5,399.5l17.5,31.6l-9.6,8.3l-21.9-31.2L132.5,399.5z"/>
<linearGradient id="SVGID_1_" gradientUnits="userSpaceOnUse" x1="107.4418" y1="424.3762" x2="122.5898" y2="392.1702" gradientTransform="matrix(1 0 0 -1 0 798)">
	<stop  offset="0" style="stop-color:#FFCDD2"/>
	<stop  offset="1" style="stop-color:#E57373"/>
</linearGradient>
<path class="st27" d="M118.5,414.2c1.1-0.8,16-13.1,16-15.1c-3.1-0.9-0.9-2-1.9-4.1c-0.6-1.4-3.1-1.1-2.7-3.3
	c-1.9-1.1-2.5-3.5-3.6-5.4c-1.4-2.5-3.8-4.4-5.8-6.3c-3.9-3.3-7.9-4.4-12.1-3.8c-3.9,0.6-7.1,1.4-9,5.2c-2.4,4.6,0.9,10.1,3.8,14.5
	c1.4,2.4,3,4.1,4.7,6.1c1.3,1.6,1.4,1.9,1.1,3.6c0.6,0.5,1.7,0.5,2.2,0.9c0.9,0.8,0.5,1.9,1.7,2.4
	C113.4,410.2,117.3,414.5,118.5,414.2z"/>
<linearGradient id="SVGID_2_" gradientUnits="userSpaceOnUse" x1="65.8332" y1="115.1869" x2="82.8098" y2="218.4079" gradientTransform="matrix(1 0 0 -1 0 798)">
	<stop  offset="0" style="stop-color:#263238"/>
	<stop  offset="1" style="stop-color:#000001"/>
</linearGradient>
<path class="st28" d="M127.8,494.3C102,503.5,80,493.9,69,507.6c-7.1,8.7-3.8,27.8-4.6,33.2c-4.1,27.8,3.6,45.3,9.7,81
	c-14.3,7.7-23.9,24.9-26.1,37.3c-0.9,5.5-3.3,13.1-6,21.1c-4.2,12.4-9.6,25.8-13.1,33.8c3.5,2,6,3.6,10.5,3.8
	c4.6-10.5,10.7-20.9,17.3-31.5c10.7-17.1,22.5-34.1,29.7-51.3c14-14.5,28.9-66.1,32.7-85.7C122.2,534.2,124.8,513,127.8,494.3z"/>
<linearGradient id="SVGID_3_" gradientUnits="userSpaceOnUse" x1="17.6502" y1="60.4221" x2="21.3406" y2="69.479" gradientTransform="matrix(1 0 0 -1 0 798)">
	<stop  offset="0" style="stop-color:#FFCDD2"/>
	<stop  offset="1" style="stop-color:#E57373"/>
</linearGradient>
<path class="st29" d="M20.9,723.7l-8.2,24.9l1.3,0.6l9-18.6L20.9,723.7z"/>
<path class="st26" d="M37.9,737.3c0.2-6.9-0.9-12.1,1.1-17.9c-0.2,0.3-1.1,0.8-5.2-0.8c-5.3-2.2-5-3.6-5-3.6
	c-0.8,1.4-1.7,1.9-2.7,2.4c2.4,11.6-3.6,22.7,0.3,34.9c1.6,5.3,5.2,4.1,9.9,3.5c-0.2-0.5,0-1.1-0.3-2.5
	C34.7,747.1,37.7,743.3,37.9,737.3z"/>
<linearGradient id="SVGID_4_" gradientUnits="userSpaceOnUse" x1="42.6381" y1="84.9347" x2="23.3555" y2="39.1986" gradientTransform="matrix(1 0 0 -1 0 798)">
	<stop  offset="0" style="stop-color:#FFCDD2"/>
	<stop  offset="1" style="stop-color:#E57373"/>
</linearGradient>
<path class="st30" d="M26.2,752.1c-3.9-12.3,2-23.3-0.3-34.9c-1.9,0.8-3.9,0.5-5.2,3.3c-1.7,3.9,0.5,6.8,2.2,10.2
	c3.1,6.1,0.5,12.3,0,18.4c-0.3,4.4,0.8,5.8,3.9,9c2.8,2.8,4.7,2.8,9.4,4.6c4.1,1.6,6.4-0.9,2.5-4.1c-2.2-1.9-2.7-2.2-2.8-2.8
	C31.6,756.2,27.8,757.5,26.2,752.1z"/>
<linearGradient id="SVGID_5_" gradientUnits="userSpaceOnUse" x1="92.4904" y1="250.732" x2="92.4904" y2="398.534" gradientTransform="matrix(1 0 0 -1 0 798)">
	<stop  offset="0" style="stop-color:#263238"/>
	<stop  offset="1" style="stop-color:#000001"/>
</linearGradient>
<path class="st31" d="M106.3,489.1c-12.3,0.3-24.4-3.9-36-9c-0.5,2.4-22.5,21.4-9.1,60.1c8.5,34.6,20,67.2,23.7,95
	c-10.2,12.6-12.4,32.1-9.6,44.5c1.3,5.5,2,13.4,2.7,21.7c0.9,13.1,1.1,27.5,1.1,36.3c3.9,0.5,6.9,1.1,11.2-0.6
	c0.2-11.5,1.7-23.4,3.8-35.7c3.3-20,7.4-40.3,7.5-58.8c7.2-18.7,8.3-103.1,9.6-117.4c1.4-15.4,6.8-5.5,13.4-19.5
	c3.1-6.6,3.6-18.3,3.6-21.4C121.8,487.8,114.3,488.9,106.3,489.1z"/>
<linearGradient id="SVGID_6_" gradientUnits="userSpaceOnUse" x1="90.43" y1="59.554" x2="90.43" y2="59.335" gradientTransform="matrix(1 0 0 -1 0 798)">
	<stop  offset="0" style="stop-color:#FFCDD2"/>
	<stop  offset="1" style="stop-color:#E57373"/>
</linearGradient>
<path class="st32" d="M90.4,738.4v0.2C90.6,738.6,90.4,738.4,90.4,738.4z"/>
<linearGradient id="SVGID_7_" gradientUnits="userSpaceOnUse" x1="77.9509" y1="34.332" x2="77.8331" y2="44.113" gradientTransform="matrix(1 0 0 -1 0 798)">
	<stop  offset="0" style="stop-color:#FFCDD2"/>
	<stop  offset="1" style="stop-color:#E57373"/>
</linearGradient>
<path class="st33" d="M75.5,749.6l2.2,26.1h1.4l1.1-20.6L75.5,749.6z"/>
<path class="st26" d="M96.4,755.6c-2.5-6.5-5.5-10.9-6-16.8c0,0.3-0.6,1.1-5.2,1.3c-5.8,0.2-6.1-1.4-6.1-1.4
	c-0.2,1.6-0.8,2.5-1.6,3.1c6.6,9.8,5.5,22.3,13.8,31.9c3.5,4.4,6.4,1.7,10.5-0.6c-0.3-0.5-0.5-1.1-1.3-2.2
	C97.3,765.8,98.7,761.1,96.4,755.6z"/>
<linearGradient id="SVGID_8_" gradientUnits="userSpaceOnUse" x1="91.3737" y1="66.63" x2="91.3737" y2="16.99" gradientTransform="matrix(1 0 0 -1 0 798)">
	<stop  offset="0" style="stop-color:#FFCDD2"/>
	<stop  offset="1" style="stop-color:#E57373"/>
</linearGradient>
<path class="st34" d="M91.5,773.7c-8.3-9.8-7.1-22.2-13.8-31.9c-1.4,1.4-3.5,1.9-3.6,5c-0.2,4.2,3.1,6,6,8.5c5.2,4.6,5.2,11,7.2,17
	c1.4,4.2,3,5,7.1,6.6c3.6,1.4,5.5,0.8,10.5,0.6c4.4-0.2,5.5-3.3,0.8-4.7c-2.8-0.8-3.3-0.9-3.6-1.6C97.9,775.4,95,777.9,91.5,773.7z"
	/>
<linearGradient id="SVGID_9_" gradientUnits="userSpaceOnUse" x1="97.6079" y1="409.1985" x2="114.0364" y2="242.0125" gradientTransform="matrix(1 0 0 -1 0 798)">
	<stop  offset="0" style="stop-color:#FFCDD2"/>
	<stop  offset="1" style="stop-color:#E57373"/>
</linearGradient>
<path class="st35" d="M85.5,447.1c0.2,3.8-10.4,22.7-15.3,33c5.3,6.3,18.7,10.4,29.4,10.9c8.8,0.5,20,0.5,28.8-3l-4.2-54
	c0,0,19.5-5.8,10.4-20.8c-8.3-13.8-22.2-41.5-31.3-41.5c-2.4-2.5-5.8-3.8-9.3-3.6c-10.7,0.8-15.7,4.4-20.8,13.2
	c-4.6,7.7-9.6,19-7.1,27.7L85.5,447.1z"/>
<path class="st26" d="M92.4,349.2l-2.5,19.7l26.9,37.9l-9.4-30.8l2.2-15.3L92.4,349.2z"/>
<path class="st26" d="M122.6,323.4c0.2,5.3-1.6,10.5-6.6,14.5c-3.9,3-16.2,7.4-22.5,2.8c-0.2-0.2-0.2-0.3-0.2-0.5h-0.2l0.2-2.8
	c0.2-2.2-1.6-4.1-3.8-4.2h-0.2c-2.2-0.2-4.1,1.6-4.2,3.6l-0.3,3.1c-0.2,2.4,1.6,4.1,3.9,4.4c1.4,0.2,2.4,1.4,2.4,2.8l-0.2,1.7
	c-0.5,6,25.5,20.8,28.1,14.6c0.2-0.5,5.2-15.9,6.3-28.5c0.3-3.3,0.2-7.1-0.2-10.4C124.5,324.2,123.6,323.9,122.6,323.4z"/>
<path class="st26" d="M142.8,378.5l12,52.2c3,8.8-5.3,15.9-12.3,11.3c-2.4-1.4-3.6-4.1-3.6-6.8c-1.1-28.9-3-54.4-3-54.4L142.8,378.5
	z"/>
<path class="st26" d="M134.4,369.7c-1.4-1.3-3.1-2.5-4.9-2c-1.3,0.3-2.2,1.3-2.7,2.2c-0.6,1.1-0.8,2.4-1.1,3.5
	c-0.5,2.2,5.5,9.4,10.1,7.4c1.4-0.6,6.9-0.8,7.1-2.2C142.8,378.5,138,372.8,134.4,369.7z"/>
<path class="st26" d="M133.6,370.4c0-2.7-14.2-9-14-7.4c-0.3,1.4,5.5,3.9,6.3,4.4C128.3,369.2,130,372.5,133.6,370.4z"/>
<path class="st26" d="M133.5,370.8c-1.1-2.5-9.1-2.8-11.3-1.6c-1.3,0.8-1.9,3.8-1.1,5c1.4-0.3,0.9-1.9,1.7-2.7
	c0.6-0.6,1.6-0.3,2.5-0.2C128.1,371.9,131.1,374.2,133.5,370.8z"/>
<path class="st26" d="M135.2,375.5c-0.5-2.7-8-5-10.7-4.4c-1.4,0.3-2.8,3.1-2.2,4.6c1.4,0.2,1.4-1.6,2.4-2.2
	c0.8-0.5,1.6,0.2,2.5,0.5C129.7,375.2,132.1,378.3,135.2,375.5z"/>
<path class="st26" d="M133.3,376.7c-0.5-1.9-6.3-3.3-8-2.7c-1.1,0.3-1.9,2.5-1.4,3.5c1.1,0,0.9-1.3,1.6-1.7c0.6-0.5,1.1,0,1.9,0.2
	C129.2,376.9,131.1,378.9,133.3,376.7z"/>
<path class="st26" d="M24.4,442.3l35.2,45.5l-6.1,4.1L2.5,448.6c-1.9-1.3-2.4-3.8-1.1-5.7l55.5-49.6l14.8,15.9L24.4,442.3z"/>
<path class="st26" d="M70.4,489.9c1.7,0.5,3.8,1.3,4.6,2.8c0.5,1.1,0.2,2.5-0.3,3.5c-0.5,0.9-1.4,1.9-2.4,2.8
	c-1.6,1.6-17.9-2.2-18.9-7.1c-0.3-1.6,1.3-1.9,2.4-2.8C59.4,485.9,65.9,488.6,70.4,489.9z"/>
<path class="st26" d="M73.7,491.3c2.7,0.6,4.4,8.3,3.5,10.9c-0.5,1.4-3.3,2.5-4.7,1.9c0-1.4,1.7-1.3,2.4-2.2c0.6-0.8,0-1.6-0.3-2.5
	C73.7,496.8,70.9,494.3,73.7,491.3z"/>
<path class="st26" d="M70.3,491.7c2.7,0.6,4.4,8.3,3.5,10.9c-0.5,1.4-3.3,2.5-4.7,1.9c0-1.4,1.7-1.3,2.4-2.2c0.6-0.8,0-1.6-0.3-2.5
	C70.1,497.3,67.3,494.7,70.3,491.7z"/>
<path class="st26" d="M67.4,492.2c2.7,0.6,4.4,8.3,3.5,10.9c-0.5,1.4-3.3,2.5-4.7,1.9c0-1.4,1.7-1.3,2.4-2.2c0.6-0.8,0-1.6-0.3-2.5
	C67.4,497.7,64.6,495.2,67.4,492.2z"/>
<path class="st26" d="M65.7,494.1c1.9,0.5,3.3,6.1,2.7,8c-0.3,1.1-2.5,1.9-3.5,1.4c0-1.1,1.3-0.9,1.7-1.6c0.5-0.6,0-1.1-0.2-1.9
	C65.7,498.2,63.7,496.3,65.7,494.1z"/>
<path class="st36" d="M55.6,393.9c1.1,0.9,2.7,3.5,4.1,4.9c2.4,2.4,4.9,4.6,7.1,7.1c1.1,1.3,3.9,6,5.8,5.8c0-3.1,1.7-1.1,3.3-2.2
	c1.3-0.8,0.2-3.1,2.5-2.8c0.5-1.9,2.5-2.8,3.9-4.1c1.9-1.7,3.1-4.1,4.2-6.3c2-4.1,1.9-8,0-12.3c-1.7-3.8-3.6-6.8-7.9-8.2
	c-5.2-1.9-9.3,1.9-12.9,5.2c-1.7,1.7-3.1,3.3-4.6,5.2c-1.1,1.4-1.4,1.6-3.1,1.6c-0.3,0.6,0,1.7-0.3,2.4c-0.5,0.9-1.7,0.6-1.7,1.9
	C55.2,391.7,54.9,392.6,55.6,393.9z"/>
<path class="st37" d="M449.6,483.4c-1.4,0.5-4.1-0.6-4.1-0.6l-47.2-30.7l-5.3,5.5c0,0,52.4,51.1,57.7,52.4
	c2,0.5,19.7-18.6,33.7-38.9c-6.6-6-14.6-10.7-22.2-15.3C459.3,462.6,450.5,482.9,449.6,483.4z"/>
<linearGradient id="SVGID_10_" gradientUnits="userSpaceOnUse" x1="457.476" y1="350.6139" x2="471.233" y2="350.6139" gradientTransform="matrix(1 0 0 -1 0 798)">
	<stop  offset="3.613780e-02" style="stop-color:#FFAB91"/>
	<stop  offset="1" style="stop-color:#FF8F6B"/>
</linearGradient>
<path class="st38" d="M499.9,427.4c-8.8-11.6-25.6-7.2-30.5,11.2c0,0.2-9.1,16.4-9.6,17.3c7.5,4.4,18.1,12,24.7,17.9
	C496.6,456.2,505.7,435.1,499.9,427.4z"/>
<linearGradient id="SVGID_11_" gradientUnits="userSpaceOnUse" x1="378.342" y1="373.0099" x2="361.709" y2="416.3499" gradientTransform="matrix(1 0 0 -1 0 798)">
	<stop  offset="3.613780e-02" style="stop-color:#B0BEC5"/>
	<stop  offset="1" style="stop-color:#546E7A"/>
</linearGradient>
<path class="st39" d="M385.2,446.4c-1.9-0.5-4.1-0.8-5.5,0.5c-0.9,0.8-1.4,2.2-1.4,3.5s0.5,2.5,0.8,3.8c0.8,2.2,17.8,6.6,20.9,2.4
	c0.9-1.3-0.3-2.4-0.8-3.8C397.3,448,390.1,447.5,385.2,446.4z"/>
<linearGradient id="SVGID_12_" gradientUnits="userSpaceOnUse" x1="370.0901" y1="370.8362" x2="353.4561" y2="414.1762" gradientTransform="matrix(1 0 0 -1 0 798)">
	<stop  offset="3.613780e-02" style="stop-color:#B0BEC5"/>
	<stop  offset="1" style="stop-color:#546E7A"/>
</linearGradient>
<path class="st40" d="M385.1,448c-2.4-1.7-9.8,1.9-11.2,4.2c-0.8,1.3,0,4.4,1.6,5.2c1.3-0.9-0.2-2.2,0.2-3.3
	c0.3-0.9,1.3-1.1,2.4-1.4C380.5,451.6,384.5,452.3,385.1,448z"/>
<linearGradient id="SVGID_13_" gradientUnits="userSpaceOnUse" x1="385.234" y1="375.191" x2="394.062" y2="420.768" gradientTransform="matrix(1 0 0 -1 0 798)">
	<stop  offset="3.613780e-02" style="stop-color:#B0BEC5"/>
	<stop  offset="1" style="stop-color:#546E7A"/>
</linearGradient>
<path class="st41" d="M387,448.3c-1.1-2.7-9.3-3.6-11.8-2.4c-1.4,0.6-2.2,3.8-1.4,5.2c1.6-0.2,1.1-1.9,1.9-2.7
	c0.8-0.6,1.6-0.2,2.7,0C381.3,449.1,384.3,451.8,387,448.3z"/>
<linearGradient id="SVGID_14_" gradientUnits="userSpaceOnUse" x1="373.9585" y1="372.2273" x2="360.4055" y2="416.6263" gradientTransform="matrix(1 0 0 -1 0 798)">
	<stop  offset="3.613780e-02" style="stop-color:#B0BEC5"/>
	<stop  offset="1" style="stop-color:#546E7A"/>
</linearGradient>
<path class="st42" d="M388.9,451.5c-1.7-2.2-9.9-0.6-12,1.3c-1.1,1.1-0.9,4.2,0.2,5.3c1.4-0.6,0.5-2.2,0.9-3.1
	c0.5-0.9,1.6-0.8,2.5-0.8C383.7,453.8,387.3,455.6,388.9,451.5z"/>
<linearGradient id="SVGID_15_" gradientUnits="userSpaceOnUse" x1="372.2089" y1="371.6496" x2="355.5759" y2="414.9896" gradientTransform="matrix(1 0 0 -1 0 798)">
	<stop  offset="3.613780e-02" style="stop-color:#B0BEC5"/>
	<stop  offset="1" style="stop-color:#546E7A"/>
</linearGradient>
<path class="st43" d="M387.9,453.5c-1.4-1.6-7.4,0.2-8.6,1.6c-0.8,0.8-0.5,3.1,0.5,3.9c0.9-0.5,0.2-1.6,0.6-2.4
	c0.3-0.6,1.1-0.6,1.9-0.8C384.1,455.6,386.8,456.7,387.9,453.5z"/>
<linearGradient id="SVGID_16_" gradientUnits="userSpaceOnUse" x1="389.1441" y1="348.7125" x2="380.8671" y2="342.0265" gradientTransform="matrix(1 0 0 -1 0 798)">
	<stop  offset="3.613780e-02" style="stop-color:#B0BEC5"/>
	<stop  offset="1" style="stop-color:#546E7A"/>
</linearGradient>
<path class="st44" d="M390.7,448.3c-1.1,2.7-9.1-1.7-11.2-2.2c-1.6,2.2,3.8,4.1,5,5c1.4,1.1,1.6,3.3,3.1,4.4c1.4,0.9,3,0.8,4.6,0.5
	c0.8-0.2,1.6-0.5,2.4-0.3"/>
<linearGradient id="SVGID_17_" gradientUnits="userSpaceOnUse" x1="369.702" y1="291.5425" x2="396.811" y2="291.5425" gradientTransform="matrix(1 0 0 -1 0 798)">
	<stop  offset="0" style="stop-color:#D0D0D0"/>
	<stop  offset="1" style="stop-color:#757575"/>
</linearGradient>
<path class="st45" d="M394.4,489.5h-30.8v33.8h30.8V489.5z"/>
<linearGradient id="SVGID_18_" gradientUnits="userSpaceOnUse" x1="366.884" y1="274.551" x2="382.902" y2="274.551" gradientTransform="matrix(1 0 0 -1 0 798)">
	<stop  offset="1.943110e-03" style="stop-color:#DEDEDE"/>
	<stop  offset="1" style="stop-color:#757575"/>
</linearGradient>
<path class="st46" d="M373.3,522.7h-19.5v1.4h19.5V522.7z"/>
<linearGradient id="SVGID_19_" gradientUnits="userSpaceOnUse" x1="383.6596" y1="279.6669" x2="382.7986" y2="297.2119" gradientTransform="matrix(1 0 0 -1 0 798)">
	<stop  offset="1.943110e-03" style="stop-color:#DEDEDE"/>
	<stop  offset="1" style="stop-color:#757575"/>
</linearGradient>
<path class="st47" d="M394,519.3l-8.3-15.7c-0.2-0.3-0.6-0.5-1.1-0.3c-0.5,0.2-0.6,0.6-0.5,0.9l8.3,15.7c0.3,0.6,0.3,1.4-0.2,2
	c-0.5,0.6-1.3,0.9-2.2,0.9h-16.8v1.4h16.8c1.4,0,2.8-0.6,3.6-1.6C394.5,521.5,394.7,520.2,394,519.3z"/>
<linearGradient id="SVGID_20_" gradientUnits="userSpaceOnUse" x1="436.7475" y1="364.509" x2="436.7475" y2="321.287" gradientTransform="matrix(1 0 0 -1 0 798)">
	<stop  offset="0" style="stop-color:#C4C4C4"/>
	<stop  offset="1" style="stop-color:#757575"/>
</linearGradient>
<path class="st48" d="M431.8,503.7l8.3-76.6c0.9,0,1.7,0.8,1.6,1.7l-8,73C433.5,502.9,432.7,503.7,431.8,503.7z"/>
<path class="st49" d="M431.8,503.7h-116l8.3-76.5h116.1L431.8,503.7z"/>
<path class="st50" d="M430.4,495.4H318.9l7.1-65.4h111.6L430.4,495.4z"/>
<path class="st51" d="M461.2,524.2H284c-1.4,0-2.5,1.1-2.5,2.5s1.1,2.5,2.5,2.5h38.7v266.1c0,1.4,1.1,2.5,2.5,2.5s2.5-1.1,2.5-2.5
	V529h88.4v266.1c0,1.4,1.1,2.5,2.5,2.5c1.4,0,2.5-1.1,2.5-2.5V529h40.4c1.4,0,2.5-1.1,2.5-2.5C463.7,525.3,462.6,524.2,461.2,524.2z
	"/>
<linearGradient id="SVGID_21_" gradientUnits="userSpaceOnUse" x1="506.8859" y1="133.8653" x2="466.6599" y2="199.3623" gradientTransform="matrix(1 0 0 -1 0 798)">
	<stop  offset="0" style="stop-color:#26C6DA"/>
	<stop  offset="1" style="stop-color:#072759"/>
</linearGradient>
<path class="st52" d="M470.8,572c-2.2,2-4.4,3.8-6,5.5c-6,6.6-32.7,45.9-45.9,72.2c-1.6,3.1,0.5,11.6,3.9,12.4
	c12.3,2.5,61.8,14.9,65.4,13.4c0.3,0,0.5,0,0.6,0c1.1,0,2.2,0.6,3.3,1.7c0.2,0,0.3,0,0.5,0c2,0,3.5-0.2,3.9-0.2
	c1.9-4.6,3.8-10.5,3.6-10.9c-0.2-0.2-0.3-0.2-0.5-0.3c-0.9-2.2-2.4-3.3-4.4-3.1c-0.3,0-0.5,0-0.8,0.2c-2,2-3.6,1.7-5,0.8
	c-0.2-0.2-0.5-0.3-0.8-0.5c-3.1-1.3-6.4-3.5-9.3-3.6c-0.2,0-0.3-0.2-0.6-0.2C468.1,649.9,453,645,453,645
	c-1.4-5.8,66.4-41.2,77.4-55.1c3.9-4.9,5-11.2,3.9-17.9H470.8z"/>
<path class="st53" d="M503.3,700.4c-0.9-0.6-0.6-1.6,0-2.4c-0.2,0-0.2-0.2-0.3-0.2c-0.8-0.5-0.9-1.3-0.8-2c1.6-4.7-1.6-15.9-3.6-17
	c-0.2-0.2-0.5-0.3-0.6-0.3c1.1-3.9,2-7.9,3.1-11.8c4.2-0.5,10.9-1.9,12.4,0c1.7,2,3.1,7.4,3,9.9c-0.5,5-0.9,10.2-1.1,15.3
	c-0.2,3.3,1.6,7.9,0.3,10.7c-1.1,2.5-12.6,10.2-15.9,9.3C495.5,710.6,502.7,702.3,503.3,700.4z"/>
<path class="st51" d="M533.7,611.5H498h-31.5c-1.1,0-2.2,0.9-2.2,2c0,1.1,0.9,2,2.2,2h29.2V679h4.2v-63.4h33.5c1.1,0,2.2-0.9,2.2-2
	C535.9,612.3,534.9,611.5,533.7,611.5z"/>
<path class="st51" d="M502.5,680.4h-8.8v6.6h8.8V680.4z"/>
<path class="st51" d="M525,753.2h-22.5v-64.5h-8.8v64.5h-22.6c-0.9,0-1.6,0.8-1.6,1.6s0.8,1.6,1.6,1.6h22.5v30.5h8.8v-30.5h22.5
	c0.9,0,1.6-0.8,1.6-1.6S526,753.2,525,753.2z"/>
<path class="st51" d="M493.7,788.9l-28,5.7h64.6l-27.8-5.7H493.7z"/>
<path class="st53" d="M534.5,611.5h-69.2c-4.2,0-7.7-3.5-7.7-7.7v-9c0-4.2,3.5-7.7,7.7-7.7h69.2c4.2,0,7.7,3.5,7.7,7.7v9
	C542,608,538.7,611.5,534.5,611.5z"/>
<linearGradient id="SVGID_22_" gradientUnits="userSpaceOnUse" x1="466.8822" y1="183.1552" x2="505.1282" y2="388.5371" gradientTransform="matrix(1 0 0 -1 0 798)">
	<stop  offset="0" style="stop-color:#26C6DA"/>
	<stop  offset="1" style="stop-color:#072759"/>
</linearGradient>
<path class="st54" d="M473.8,567.9c5.5-4.9,4.1-14.2,3.1-22c-0.2-1.1,0.8-2,1.9-2l50,2.2c0.6,0,1.1,0.3,1.6,0.8
	c12.7,19.8,11.3,31.8,0.5,43.1c-12.3,12.7-90.1,42.8-97,53.2c15.1,3.9,27.2,29,41.7,50.8c0.2,0.2,0.2,0.3,0.3,0.5
	c0.3,3.8,4.7,4.1,6.9,7.1c0.2,0.2,0.2,0.5,0.3,0.6c0.5,1.6,0,3.6,0.9,4.2c0.2,0.2,0.2,0.3,0.3,0.3c0.5,0.6,0.8,1.1,1.3,1.7
	c0.5,0.6,0.5,1.7-0.2,2.4c-2.8,3.3-4.2,4.9-7.4,8.5c-0.2-0.2-0.5-0.3-0.9-0.9c-0.2-0.2-0.3-0.3-0.5-0.5c-4.2,0.6-4.6-0.9-5-3.5
	c-0.3-0.6-0.8-1.4-1.1-2c-4.7,0.5-3.6-1.7-5.5-5c-0.2-0.2-0.3-0.3-0.6-0.5c-18.7-17.1-51.6-47.4-64.5-60.6c-3.1-3.3-3.3-8.5,0-11.8
	C421.2,611.9,467.3,573.7,473.8,567.9z"/>
<path class="st53" d="M475.8,743.2c-0.6-0.9,0.2-1.7,0.9-2.2c-0.2,0-0.2-0.2-0.3-0.3c-0.5-0.6-0.5-1.6,0.2-2.2
	c3.3-3.8,4.4-15.3,3.1-17.1c-0.2-0.2-0.3-0.5-0.5-0.6c2.5-3.1,4.9-6.5,7.4-9.8c4.1,1.3,10.7,2.4,11.5,4.7c0.8,2.7,0.2,8-0.9,10.4
	c-2.4,4.6-4.7,9.1-6.8,13.7c-1.4,3-1.6,7.9-3.8,10.1c-2,1.9-15.6,4.7-18.2,2.7C464.6,749.6,474.4,744.7,475.8,743.2z"/>
<linearGradient id="SVGID_23_" gradientUnits="userSpaceOnUse" x1="473.4066" y1="378.8066" x2="508.8766" y2="299.7236" gradientTransform="matrix(1 0 0 -1 0 798)">
	<stop  offset="3.613780e-02" style="stop-color:#FFAB91"/>
	<stop  offset="1" style="stop-color:#FF8F6B"/>
</linearGradient>
<path class="st55" d="M495.2,411.2c23.3,0,44.7,18.9,47.5,42.2l-6.4,91.3c-0.2,2.4,0.2,4.7-0.3,6.9c-1.4,6.3-11.2,7.7-16.5,8.3
	c-12.4,1.4-26.7,1.3-38.2-4.2c-5-2.4-4.7-4.2-5.3-9.8l-6.6-85.7C466.9,442.5,478.2,422.5,495.2,411.2z"/>
<linearGradient id="SVGID_24_" gradientUnits="userSpaceOnUse" x1="489.9734" y1="444.1862" x2="486.6354" y2="418.0132" gradientTransform="matrix(1 0 0 -1 0 798)">
	<stop  offset="3.613780e-02" style="stop-color:#91450E"/>
	<stop  offset="0.9913" style="stop-color:#91450E"/>
</linearGradient>
<path class="st56" d="M515.8,363.7c-1.1-2.2-2.8-4.2-5.2-5.2c-1.9-0.8-3.9-0.6-5.5-2c-1.7-1.7-2.2-3.6-4.9-4.7
	c-2.2-0.9-4.4-1.1-6.8-1.3c-3.9-0.3-8.3-0.8-11.6-3.1c-3.1-2.4-5.8-6.1-10.2-6c-12.9,0.5-14.9,23.3-5.7,29.4l5.5,3.8
	c0.2,0,0.3,0,0.6,0.2c-0.3-1.9-0.2-4.1-0.2-6c0-0.2,0.2-0.3,0.3-0.3c3.5-0.3,6.8-0.8,10.2-0.9c2.4-0.2,5-0.3,7.4,0.3
	c0.9,0.3,1.6,0.8,2,1.7c0.8,2,0.5,4.2,1.6,6.3c1.1,2,2.4,3.6,3.1,6c1.1,3.1,2.2,6.3,3.1,9.4c1.1,3.6,2,7.2,3.1,10.7
	c0.5,0,1.1-0.2,1.6-0.5c3-2.7,1.9-10.1,3.5-13.5c1.9-4.2,6-6.8,8-10.9C517.8,372.6,517.6,367.6,515.8,363.7z"/>
<path class="st37" d="M503.3,396.6l4.1,17.5l-26.3,26.7l3.5-15.7l-2-17.9L503.3,396.6z"/>
<path class="st37" d="M468.9,404.4l0.3-41.5h25.2l0.9,10.4l2.5,3l1.9,11.6h2.2l0.2-2.5c0.2-2.2,1.9-4.1,4.1-4.1c0,0,0,0,0.2,0
	c2.2,0,3.9,2,3.9,4.2v2.8c0,2.4-1.9,4.1-4.2,4.1c-1.4,0-2.5,1.3-2.5,2.7v3.9c0,6-32.7,18.7-34.4,8
	C468.9,406,468.9,405.2,468.9,404.4z"/>
<path class="st37" d="M477.4,496.5c-1.4,0.3-4.2-1.3-4.2-1.3l-44.3-38.9l-6.4,5c0,0,46.9,61.2,52.4,63.1c2,0.8,23.3-16.4,40.7-35.4
	c-6.1-7.2-13.5-13.4-20.8-19.2C490.6,476.5,478.5,496.3,477.4,496.5z"/>
<path class="st57" d="M538.2,445.8c-7.4-13.4-25.6-11.3-33.5,7.1c0,0.2-12,15.7-12.6,16.5c7.2,5.8,17,15.1,23.1,22.3
	C530.4,475.4,543.1,454.8,538.2,445.8z"/>
<path class="st37" d="M416.1,448.5c-1.9-0.8-4.1-1.4-5.8-0.3c-1.1,0.8-1.7,2-1.9,3.3c-0.2,1.3,0,2.7,0.3,3.9
	c0.5,2.4,17.5,9.4,21.4,5.7c1.3-1.1,0.2-2.4-0.3-4.1C428.3,451.9,420.9,450.4,416.1,448.5z"/>
<path class="st37" d="M415.6,449.7c-0.9-2.8-18.1-3.8-17.1-2.4c0.2,1.6,7.1,1.9,8.2,2.2C409.5,450.2,412.6,453.2,415.6,449.7z"/>
<path class="st37" d="M415.6,450.1c-2-2.2-10.4,0.5-12.3,2.7c-1.1,1.3-0.6,4.6,0.8,5.5c1.4-0.8,0.2-2.4,0.6-3.5
	c0.5-0.9,1.4-0.9,2.5-1.1C410.4,453.2,414.3,454.5,415.6,450.1z"/>
<path class="st37" d="M419,454.3c-1.6-2.7-10.2-2-12.6-0.5c-1.4,0.9-1.7,4.2-0.6,5.7c1.6-0.5,0.8-2.2,1.6-3.1
	c0.6-0.8,1.7-0.5,2.8-0.5C413.2,456,416.8,458.2,419,454.3z"/>
<path class="st37" d="M417.6,456.2c-1.3-1.9-7.7-0.9-9.3,0.3c-0.9,0.8-0.9,3.3-0.2,4.1c1.1-0.5,0.5-1.7,0.9-2.4
	c0.5-0.6,1.3-0.5,2-0.5C413.5,457.8,416.2,459.3,417.6,456.2z"/>
<linearGradient id="SVGID_25_" gradientUnits="userSpaceOnUse" x1="653.9785" y1="74.614" x2="653.9785" y2="94.84" gradientTransform="matrix(1 0 0 -1 0 798)">
	<stop  offset="3.613780e-02" style="stop-color:#FF8A64"/>
	<stop  offset="1" style="stop-color:#546E7A"/>
</linearGradient>
<path class="st58" d="M644.9,708.2l3.1,42.3l9.1,1.4l6-44.1L644.9,708.2z"/>
<path class="st59" d="M644.4,701.5l0.2,4.7h18.6l0.6-4.7H644.4z"/>
<linearGradient id="SVGID_26_" gradientUnits="userSpaceOnUse" x1="642.5076" y1="252.247" x2="642.5076" y2="308.276" gradientTransform="matrix(1 0 0 -1 0 798)">
	<stop  offset="1.135820e-02" style="stop-color:#937963"/>
	<stop  offset="1" style="stop-color:#4A392E"/>
</linearGradient>
<path class="st60" d="M667.5,673.5c1.3-9.3-3.1-19-3.9-28.3c-1.7-18.4,1.7-36.5,3-54.8c0.5-8.5,1.1-17.2,1.6-25.6
	c0.2-2.8-0.6-8.3,0.6-10.9c3.5-7.2,4.4-15.4,4.2-23.3c0-1.3-0.6-17.6-2-17.6l-59-0.3l1.1,31.9c0.3,3.8,15.3,39,17.9,53.8
	c1.6,9,3.1,17.9,4.9,26.9c3.5,17.5,6.8,35.9,7.5,54c0,0.5,0,0.9,0,1.4c0,0.3,0,0.6,0,0.9s0,0.6,0,0.9c-2.5,3.9-2.7,5.3-0.6,8.8
	c0,0.3,0,0.6,0,0.9c-0.3,0.6-0.6,1.3-0.8,1.9c0,0.6,0.3,1.1,0.6,1.7c0.3,0.6,0.8,1.3,1.4,1.9c0,0.3,0,0.6,0,0.9c0,1.9,0.2,3,0.2,3
	h19.3c0,0,0.2-0.9,0.3-2.4c0-0.3,0.2-0.6,0.2-0.9c1.3-1.1,1.9-2.4,2-3.6c0-0.3,0-0.5,0-0.8c-0.2-0.2-0.5-0.3-0.6-0.6
	c-0.2-0.2-0.3-0.5-0.3-0.6c1.3-3,1.4-5.5,0.9-7.9c0-0.5,0-1.1,0-1.4S667.5,673.5,667.5,673.5z"/>
<path class="st61" d="M627.1,776.8c11.8-5,28.1,2.8,37.4-5.5c-0.8-2.4-2.2-4.9-2.5-6.9c-0.8-5.3-0.5-11-0.8-16.5
	c-2,0.6-2.5,2-4.9,2.2c-1.7,0.2-3.8-0.5-5.5-0.8c-0.2-1.1-0.6-2.5-1.3-4.1c-1.7-0.5-3.6-0.8-5.5-0.9c0.6,3.6,1.7,7.4,2,10.9
	c0.3,4.2,1.6,9-2,11.8c-2.5,1.9-11.6,4.6-18.4,6.3C626.9,773.8,626.3,775.6,627.1,776.8z"/>
<path class="st62" d="M664.4,771.3c-9.3,8.3-25.6,0.5-37.4,5.5c-0.6-1.3-0.2-3-1.6-3.5c-3.1,0.8-5.8,1.4-7.2,1.6
	c-1.1,0.2-5,0-5.8,0.6c-1.9,1.7,0.3,3.5,2,4.1c6.6,2.5,16.4,1.1,23-0.5c5.2-1.3,11-2.8,16.4-2c3.5,0.5,7.5,2.4,10.5-1.1
	C665.3,775.1,665.1,773.4,664.4,771.3z"/>
<path class="st62" d="M656.2,762.5c-1.7,0-3.5,1.6-3.3,3.3c0.2,1.7,1.4,3.3,3.3,3.3c1.7,0,3.5-1.6,3.3-3.3
	C659.5,764.1,658.1,762.5,656.2,762.5z"/>
<linearGradient id="SVGID_27_" gradientUnits="userSpaceOnUse" x1="666.6845" y1="101.5007" x2="651.2125" y2="114.5177" gradientTransform="matrix(1 0 0 -1 0 798)">
	<stop  offset="3.613780e-02" style="stop-color:#FF8A64"/>
	<stop  offset="1" style="stop-color:#546E7A"/>
</linearGradient>
<path class="st63" d="M649.1,693.6l34.6,24.9l6.8-6l-29.7-32.9L649.1,693.6z"/>
<path class="st59" d="M643.6,689.7l3.8,3l12-14.2l-3.1-3.6L643.6,689.7z"/>
<path class="st61" d="M690.3,751.5c3.8-12.3,20.3-19.7,19.8-32.1c-2.4-0.9-5.2-1.6-6.9-2.5c-4.6-2.8-8.6-6.8-13.1-10.1
	c-0.8,1.9-0.2,3.1-1.4,5.2c-0.9,1.4-2.8,2.7-4.1,3.8c-0.8-0.6-2.4-1.1-3.9-1.6c-1.6,1.1-3,2.2-4.2,3.5c3.1,1.7,6.8,3.5,9.6,5.5
	c3.5,2.5,7.9,4.6,7.5,9.1c-0.2,3.1-3.9,11.8-7.1,18.3C687.8,749.6,688.9,751.2,690.3,751.5z"/>
<path class="st62" d="M710.1,719.4c0.5,12.4-16,20-19.8,32.1c-1.4-0.3-2.4-1.9-3.8-1.1c-1.4,3-2.7,5.3-3.5,6.6
	c-0.6,0.9-3.3,3.8-3.3,4.9c0.2,2.7,2.8,2,4.4,1.1c6.3-3.5,11.5-11.8,14.5-17.8c2.4-4.7,4.9-10.2,9.1-13.8c2.5-2.4,6.6-4.4,6-8.8
	C713.6,721,712,720.2,710.1,719.4z"/>
<path class="st62" d="M698,720c-1.1,1.3-1.1,3.6,0.5,4.7c1.4,1.1,3.5,1.1,4.7-0.5c1.1-1.3,1.1-3.6-0.5-4.7
	C701.3,718.5,699.3,718.5,698,720z"/>
<path class="st37" d="M567,411.3l-4.2,7.1c0,0,7.7,4.6,18.2,10.7c1.3-3.8,2.8-7.6,4.7-11.2L567,411.3z"/>
<path class="st37" d="M550.5,415.1c-1.9-0.8-4.1-1.9-4.6-3.9c-0.3-1.3,0.2-2.8,0.9-3.9c0.8-1.1,1.9-2,3-2.8c2-1.6,19.7,5,20,10.7
	c0.2,1.7-1.4,2.2-3,2.8C562.9,419.5,555.5,417.2,550.5,415.1z"/>
<path class="st64" d="M551.3,413.6c-3.1,0.2-7.4-7.6-7.4-10.5c0-1.7,2.7-3.8,4.4-3.6c0.5,1.6-1.4,1.9-1.9,3.1
	c-0.3,1.1,0.5,1.7,1.1,2.7C549.6,407.6,553.5,409.5,551.3,413.6z"/>
<path class="st64" d="M548.8,413.6c-2.4,0.5-6.8-5-6.9-7.4c-0.2-1.3,1.7-3.3,3-3.3c0.6,1.1-0.9,1.6-1.1,2.7
	c-0.2,0.8,0.6,1.3,1.3,1.9C546.7,409.1,550,410.1,548.8,413.6z"/>
<path class="st64" d="M557,412.8c-3,0.9-9.1-5.5-9.7-8.3c-0.3-1.7,1.7-4.4,3.5-4.6c0.8,1.4-0.9,2.2-1.1,3.5
	c-0.2,1.1,0.9,1.6,1.7,2.2C553.7,407.4,557.9,408.2,557,412.8z"/>
<path class="st64" d="M557.1,410.4c-2.2,0.5-6.4-4.6-6.8-6.8c-0.2-1.3,1.4-3.1,2.8-3.1c0.6,1.1-0.8,1.6-0.9,2.5
	c-0.2,0.8,0.6,1.3,1.3,1.7C555.1,406.3,558.2,407.1,557.1,410.4z"/>
<linearGradient id="SVGID_28_" gradientUnits="userSpaceOnUse" x1="530.4188" y1="409.4428" x2="539.9648" y2="410.1778" gradientTransform="matrix(1 0 0 -1 0 798)">
	<stop  offset="3.613780e-02" style="stop-color:#FF5722"/>
	<stop  offset="1" style="stop-color:#FFAB91"/>
</linearGradient>
<path class="st65" d="M539.5,411.8L526,364.9c-0.6,0.2-0.9,0.6-0.8,1.3l12.9,44.7C538.2,411.5,538.9,411.8,539.5,411.8z"/>
<linearGradient id="SVGID_29_" gradientUnits="userSpaceOnUse" x1="552.7733" y1="390.2104" x2="545.4153" y2="421.0374" gradientTransform="matrix(1 0 0 -1 0 798)">
	<stop  offset="3.613780e-02" style="stop-color:#FF5722"/>
	<stop  offset="1" style="stop-color:#FFAB91"/>
</linearGradient>
<path class="st66" d="M539.5,411.8l29.7-5.2l-13.5-46.9l-29.9,5.2L539.5,411.8z"/>
<path class="st50" d="M539.3,406.3l26.9-4.7l-11.5-40l-27,4.7L539.3,406.3z"/>
<path class="st37" d="M566.9,410.9c-0.6-5.7-3.5-1.3-6.9-12.1c-2.8,0.2-0.6,5.7-0.6,7.2c0,1.7-1.6,3.5-1.4,5.3
	c0.2,1.7,1.3,2.8,2.7,3.9c0.6,0.5,1.4,0.9,1.7,1.6"/>
<linearGradient id="SVGID_30_" gradientUnits="userSpaceOnUse" x1="576.051" y1="364.231" x2="622.594" y2="364.231" gradientTransform="matrix(1 0 0 -1 0 798)">
	<stop  offset="0" style="stop-color:#303F9F"/>
	<stop  offset="1" style="stop-color:#0C0A4A"/>
</linearGradient>
<path class="st67" d="M616.9,420.9c-0.8-0.3-2.2-1.6-3-1.6c-1.6,0-0.8,0.5-1.7,1.3c-0.8,0.6-0.2,1.6-1.7,1.6c-0.8,0-1.4-1.4-2-1.7
	c-1.4-0.6-2.8-0.5-3.6,0.8c-1.4-0.5-1.6-2.5-2.8-3c-2-0.8-2.2,1.7-3.3,1.7c-1.9,0.2-5.8-7.2-7.5-2c-2.8-0.8-6.8-2-9-2.8
	c-3.3,0.8-6.1,10.7-5.8,13.8c0,1.3,6.8,5.2,9,6.4c-3.3,6.8,7.1,3.5,9.4,6.3c0.6,0.8,0.2,2.5,1.1,3.1c1.3,0.8,1.1-0.2,2.2,0
	c1.1,0,1.4-0.6,2.7,0.3c0.9,0.8,0.5,2,1.3,2.7c1.4,1.3,3.9-0.2,5.8,0.8c4.2,2,9.9,2.7,14.6,3.6c0.2,0,0.5,0.2,0.8,0.2
	c0.5-10.4-1.1-21.2-3.8-30.5C618.1,421.4,617.5,421.3,616.9,420.9z"/>
<linearGradient id="SVGID_31_" gradientUnits="userSpaceOnUse" x1="619.4642" y1="505.5041" x2="638.5992" y2="459.7531" gradientTransform="matrix(1 0 0 -1 0 798)">
	<stop  offset="6.284050e-02" style="stop-color:#4D3835"/>
	<stop  offset="1" style="stop-color:#0F0A09"/>
</linearGradient>
<path class="st68" d="M665.8,305.5c0,0.9-1.1,1.9-1.3,2.8c0,0.9,0.9,2,0.8,3c-0.2,0.9-1.4,1.7-1.6,2.7c-0.2,0.9,0.6,2.2,0.3,3
	c-0.3,0.9-1.6,1.4-2,2.4c-0.3,0.9,0.3,2.2,0,3.1c-0.5,0.9-1.9,1.3-2.4,2c-0.5,0.8,0,2.2-0.5,3c-0.5,0.8-2,0.9-2.5,1.7
	c-0.6,0.8-0.3,2.2-0.9,3c-0.6,0.8-2,0.6-2.8,1.3c-0.6,0.6-0.6,2.2-1.3,2.8c-0.8,0.6-2.2,0.3-3,0.9c-0.8,0.6-0.9,2-1.7,2.5
	c-0.8,0.5-2.2,0-3,0.5c-0.8,0.5-1.3,1.9-2,2.4c-0.9,0.5-2.2-0.3-3.1,0c-0.9,0.3-1.4,1.7-2.4,2c-0.9,0.3-2-0.6-3-0.3
	c-0.9,0.2-1.7,1.4-2.7,1.6c-0.9,0.2-2-0.9-3-0.8c-0.9,0-1.9,1.3-2.8,1.3c-0.9,0-1.9-1.1-2.8-1.3c-0.9,0-2,0.9-3,0.8
	c-0.9-0.2-1.7-1.4-2.7-1.6c-0.9-0.2-2.2,0.6-3,0.3c-0.9-0.3-1.4-1.6-2.4-2c-0.9-0.3-2.2,0.3-3.1,0c-0.9-0.5-1.3-1.9-2-2.4
	c-0.8-0.5-2.2,0-3-0.5c-0.8-0.5-0.9-2-1.7-2.5c-0.8-0.6-2.2-0.3-3-0.9c-0.8-0.6-0.6-2-1.3-2.8c-0.6-0.6-2.2-0.6-2.8-1.3
	c-0.6-0.8-0.3-2.2-0.9-3c-0.6-0.8-2-0.9-2.5-1.7c-0.5-0.8,0-2.2-0.5-3c-0.5-0.8-1.9-1.3-2.4-2c-0.5-0.9,0.3-2.2,0-3.1
	c-0.3-0.9-1.7-1.4-2-2.4c-0.3-0.9,0.6-2,0.3-3c-0.2-0.9-1.4-1.7-1.6-2.7c-0.2-0.9,0.9-2,0.8-3c0-0.9-1.3-1.9-1.3-2.8
	s1.1-1.9,1.3-2.8c0-0.9-0.9-2-0.8-3c0.2-0.9,1.4-1.7,1.6-2.7s-0.6-2.2-0.3-3c0.3-0.9,1.6-1.4,2-2.4c0.3-0.9-0.3-2.2,0-3.1
	c0.5-0.9,1.9-1.3,2.4-2c0.5-0.8,0-2.2,0.5-3c0.5-0.8,2-0.9,2.5-1.7c0.6-0.8,0.3-2.2,0.9-3c0.6-0.8,2-0.6,2.8-1.3
	c0.6-0.6,0.6-2.2,1.3-2.8c0.8-0.6,2.2-0.3,3-0.9c0.8-0.6,0.9-2,1.7-2.5c0.8-0.5,2.2,0,3-0.5c0.8-0.5,1.3-1.9,2-2.4
	c0.9-0.5,2.2,0.3,3.1,0c0.9-0.3,1.4-1.7,2.4-2c0.9-0.3,2,0.6,3,0.3c0.9-0.2,1.7-1.4,2.7-1.6c0.9-0.2,2,0.9,3,0.8
	c0.9,0,1.9-1.3,2.8-1.3c0.9,0,1.9,1.1,2.8,1.3c0.9,0,2-0.9,3-0.8c0.9,0.2,1.7,1.4,2.7,1.6c0.9,0.2,2.2-0.6,3-0.3
	c0.9,0.3,1.4,1.6,2.4,2c0.9,0.3,2.2-0.3,3.1,0c0.9,0.5,1.3,1.9,2,2.4c0.8,0.5,2.2,0,3,0.5c0.8,0.5,0.9,2,1.7,2.5
	c0.8,0.6,2.2,0.3,3,0.9c0.8,0.6,0.6,2,1.3,2.8c0.6,0.6,2.2,0.6,2.8,1.3c0.6,0.8,0.3,2.2,0.9,3c0.6,0.8,2,0.9,2.5,1.7
	c0.5,0.8,0,2.2,0.5,3c0.5,0.8,1.9,1.3,2.4,2c0.5,0.9-0.3,2.2,0,3.1c0.3,0.9,1.7,1.4,2,2.4c0.3,0.9-0.6,2-0.3,3
	c0.2,0.9,1.4,1.7,1.6,2.7c0.2,0.9-0.9,2-0.8,3C664.7,303.6,665.8,304.4,665.8,305.5z"/>
<linearGradient id="SVGID_32_" gradientUnits="userSpaceOnUse" x1="640.4325" y1="421.004" x2="640.4325" y2="284.874" gradientTransform="matrix(1 0 0 -1 0 798)">
	<stop  offset="3.613780e-02" style="stop-color:#D81B60"/>
	<stop  offset="1" style="stop-color:#AD1457"/>
</linearGradient>
<path class="st69" d="M629.9,353.1c23,0,44,18.6,47,41.7l-6.3,108.1c-0.3,5.5,5.7,10.9,2.2,11.8c-1.6,0.5-3,0.8-4.6,1.4
	c-8,2.8-30.8,9.1-55.7-0.3c-5.2-1.9-0.8-5.7-1.4-11.2l-6.9-102.9C601.9,384,611.2,372.3,629.9,353.1z"/>
<linearGradient id="SVGID_33_" gradientUnits="userSpaceOnUse" x1="631.7633" y1="438.119" x2="624.3003" y2="455.937" gradientTransform="matrix(1 0 0 -1 0 798)">
	<stop  offset="3.613780e-02" style="stop-color:#FF8A64"/>
	<stop  offset="1" style="stop-color:#546E7A"/>
</linearGradient>
<path class="st70" d="M637.9,338.7l4.1,17.1l-0.2,0.2c-3.9,8.5-13.4,13.1-22.3,10.7l-2-17.8L637.9,338.7z"/>
<linearGradient id="SVGID_34_" gradientUnits="userSpaceOnUse" x1="624.4165" y1="483.786" x2="624.4165" y2="496.791" gradientTransform="matrix(1 0 0 -1 0 798)">
	<stop  offset="3.613780e-02" style="stop-color:#FF8A64"/>
	<stop  offset="1" style="stop-color:#546E7A"/>
</linearGradient>
<path class="st71" d="M604,346.4l0.2-34.6c0-3.6,3-6.4,6.4-6.4h9.9c4.9,0,8.8,3.6,9.3,8.5l0.2,1.7l2.5,2.8l1.9,11.5h2.2l0.2-2.8
	c0.2-2.2,1.9-3.9,4.1-3.8h0.2c2.2,0,3.9,1.9,3.9,3.9v3c0,2.2-1.9,3.9-4.1,4.1c-1.4,0-2.5,1.3-2.5,2.7v3.8c0,5.8-32.2,18.4-34.1,8
	C604,348.1,604,347.2,604,346.4z"/>
<path class="st37" d="M589.2,454.8l-0.9,8.3c0,0,9.1,1.3,21.4,2.7c-0.3-4.1-0.5-8.2-0.2-12.4L589.2,454.8z"/>
<path class="st37" d="M575.2,464.8c-2,0-4.6-0.2-5.8-1.7c-0.9-1.1-1.1-2.7-0.8-3.9c0.3-1.3,0.9-2.7,1.7-3.8
	c1.3-2.2,20.4-3.3,23.1,1.9c0.8,1.6-0.8,2.4-1.7,3.9C588.7,465.6,580.9,464.7,575.2,464.8z"/>
<path class="st37" d="M575.2,463.4c-2,2.5-19-2.5-17.8-3.6c0.6-1.4,7.7,0.6,8.8,0.6C569.5,460.8,573.5,459,575.2,463.4z"/>
<path class="st37" d="M575.4,463.1c-2.8,1.4-10.1-4.1-11.2-6.9c-0.6-1.6,0.9-4.7,2.7-5.2c1.1,1.3-0.6,2.4-0.5,3.6
	c0,1.1,1.1,1.4,2.2,2C571.4,458.2,575.7,458.4,575.4,463.1z"/>
<path class="st37" d="M580.2,460.1c-2.4,2-10.8-1.6-12.6-3.9c-0.9-1.4-0.2-4.9,1.4-5.7c1.4,0.9,0,2.4,0.5,3.6
	c0.3,1.1,1.4,1.1,2.5,1.4C575.2,456.3,579.4,455.4,580.2,460.1z"/>
<path class="st37" d="M579.6,457.8c-1.9,1.4-7.9-1.7-9-3.6c-0.6-1.1,0.2-3.6,1.3-4.1c0.9,0.8-0.2,1.7,0.2,2.7
	c0.2,0.8,0.9,0.9,1.9,1.1C576,454.6,579.3,454.1,579.6,457.8z"/>
<path class="st37" d="M579.1,463.3c0.5-3-9-3.3-11.2-3.9c-0.3-2.8,5.7-1.6,7.2-1.9c1.7-0.3,3.1-2.2,5.2-2.4c1.9-0.2,3.1,0.8,4.4,2
	c0.5,0.5,1.1,1.3,1.9,1.4"/>
<path class="st61" d="M677.7,464.4c0.3-0.6,0.5-1.1,0.5-1.9c-0.6-9,1.3-17.9,1.9-27.1c0.9-14.3-0.9-29.1-3.8-43.1
	c-1.7-8-4.7-23.6-14.2-26.3c-8.8-2.5-17.5,1.7-20.6,10.2c-1.7,4.9-1.6,10.4-0.3,15.4c2.2,8.5,2.4,17.3,4.4,25.6c0.2,0,0.2,0,0.3,0
	c0,1.6,0,3.3,0,4.6c-0.2,1.9-0.9,2.5-1.4,4.1c-0.8,2.8,0.6,2.2,1.7,4.4c1.3,2.4-0.9,3.1-1.3,4.9c-0.5,2.5,1.6,2.7,2.4,4.6
	c1.1,2.8-0.9,3.3-3.3,3.1c-0.8,0-2.7-0.6-3.5-0.2c-1.4,0.6-0.5,0.8-1.1,1.9c-0.5,0.9,0.5,1.6-0.9,2c-0.8,0.3-1.9-0.8-2.7-0.8
	c-1.6,0-2.8,0.6-3.1,2.4c-1.6,0-2.5-1.7-3.9-1.7c-2.4,0.2-1.3,2.4-2.4,3c-1.7,0.9-8.3-4.4-7.9,1.1c-3,0.3-7.2,0.8-9.6,0.9
	c-2.7,2-1.4,12.4,0.2,15.4c0.6,1.1,8.5,2.2,10.9,2.4c-0.3,7.7,8,0.3,11.3,2c0.9,0.5,1.1,2.2,2.4,2.5c1.6,0.3,1.1-0.6,2-0.9
	c1.1-0.5,1.1-1.1,2.7-0.8c1.3,0.3,1.3,1.7,2.2,2c1.7,0.6,3.6-1.6,5.7-1.6c4.9,0.2,10.4-1.6,15.1-2.5
	C664.7,469.6,675.4,468.5,677.7,464.4z"/>
<linearGradient id="SVGID_35_" gradientUnits="userSpaceOnUse" x1="611.7143" y1="127.2948" x2="638.2313" y2="215.8018" gradientTransform="matrix(1 0 0 -1 0 798)">
	<stop  offset="1.135820e-02" style="stop-color:#937963"/>
	<stop  offset="1" style="stop-color:#4A392E"/>
</linearGradient>
<path class="st72" d="M654.5,673.2c-0.2-0.2-0.5-0.5-0.6-0.8c0-1.6-0.5-2.8-1.4-3.8c-0.2-0.2-0.3-0.3-0.6-0.5c-0.3,0-0.6,0-0.8,0
	c-0.3,0-0.5,0-0.6-0.2c-1.6-2.8-3.3-4.6-5.5-5.7c-0.3-0.3-0.8-0.6-1.1-0.9l-6.6-7.4c-6.1-6.8-16.2-9.8-23.7-14.8l9.8-31.6l6.8-14.6
	l-4.4-24.7c-0.9-5.2-3.1-10.1-6.3-14.3c-1.9-2.5-3.8-6.1-4.4-11.2c-1.3-10.4-2.2-27.1-2.2-27.1l-27.7,119.6v16.2l16.8,8.2
	c8.3,5,16.5,10.4,24.2,16.4c0.3,0.3,0.8,0.6,1.1,0.8c0.3,0.2,0.5,0.5,0.8,0.6c0.3,0.5,0.8,0.9,1.1,1.4c1.3,3.8,2.4,4.7,6,5.3
	c0.2,0.2,0.5,0.5,0.6,0.6c0.2,0.6,0.5,1.3,0.9,1.7c0.5,0.3,1.1,0.5,1.7,0.5c0.6,0.2,1.4,0.2,2.4,0.2c0.3,0.2,0.5,0.3,0.6,0.5
	c1.6,1.1,2.4,1.9,2.4,1.9l12.4-14.8C656.2,674.9,655.6,674.3,654.5,673.2z"/>
<linearGradient id="SVGID_36_" gradientUnits="userSpaceOnUse" x1="275.8908" y1="42.2713" x2="229.6118" y2="193.5533" gradientTransform="matrix(1 0 0 -1 0 798)">
	<stop  offset="0" style="stop-color:#0D47A1"/>
	<stop  offset="1" style="stop-color:#072759"/>
</linearGradient>
<path class="st73" d="M240.3,560.2L280.4,667c0,0,4.7,55.1,7.7,88.4c0,0.2,0,0.3,0,0.5c0.2,0.2,0.3,0.3,0.3,0.6
	c0.8,4.6-2.4,6.8,1.6,9.8c0,0.2,0,0.5,0,0.6c-0.2,0.8-0.3,1.7-0.8,2.7c0.2,0.2,0.2,0.3,0.3,0.6c0.9,2.2,1.7,4.2,0.5,6.9
	c0,0.2,0,0.3,0,0.5c0.2,1.7,0.2,1.7,0.2,1.7l-9.7,0.9c0,0,0-0.2-0.2-0.3c-0.6-1.4-5-0.3-3.9-3.6c1.1-1.1,1.1-2.2,1.3-3.3
	c0-0.2-0.2-0.3-0.2-0.5c-2.2-1.1-2.8-2.4-3-4.1c0-0.5,0-0.9,0-1.4c-1.4-1.4,0.8-3.6-1.3-5.2c0-0.2-0.2-0.3-0.2-0.5
	c-5.3-14-11.8-30.7-11.8-30.7c-3.1-10.2-4.6-21.1-4.1-31.8l0.6-14.9L192,584.7L240.3,560.2z"/>
<path class="st74" d="M306.3,791.8c-7.7-5.3-14.3-9.1-15.1-11c-0.2-0.2-0.2-0.5-0.3-0.6c-3.6,0.5-7.2,0.8-10.7,1.3
	c-0.9,3.6-2.8,10.7-1.4,12.4c1.6,1.9,7.7,2,11.8,1.3c4.6-0.8,5.3,1.7,9.9,2.4c3,0.3,17.1,0.3,15.9-2.4
	C315.6,793.5,306.5,791.8,306.3,791.8z"/>
<path class="st51" d="M249.5,611.5h-35.7h-31.5c-1.1,0-2.2,0.9-2.2,2c0,1.1,0.9,2,2.2,2h29.2V679h4.2v-63.4h33.5
	c1.1,0,2.2-0.9,2.2-2C251.7,612.3,250.8,611.5,249.5,611.5z"/>
<path class="st51" d="M218.4,680.4h-8.8v6.6h8.8V680.4z"/>
<path class="st51" d="M239.8,750.4h-21.4v-61.7h-8.8v61.7h-21.4c-0.9,0-1.6,0.8-1.6,1.6c0,0.9,0.8,1.6,1.6,1.6h21.4v33.4h8.8v-33.2
	h21.4c0.9,0,1.6-0.8,1.6-1.6C241.4,751.2,240.6,750.4,239.8,750.4z"/>
<path class="st51" d="M209.6,788.9l-28,5.7h64.6l-27.8-5.7H209.6z"/>
<path class="st53" d="M250.3,611.5h-69.2c-4.2,0-7.7-3.5-7.7-7.7v-9c0-4.2,3.5-7.7,7.7-7.7h69.2c4.2,0,7.7,3.5,7.7,7.7v9
	C257.9,608,254.6,611.5,250.3,611.5z"/>
<path class="st37" d="M240.4,504.5l57.9,12.4l-0.2,7.2l-61.8,4.1L240.4,504.5z"/>
<path class="st37" d="M306.1,509.1c1.4-1.3,3.1-2.4,4.9-2c1.3,0.3,2.2,1.3,2.7,2.4c0.5,1.1,0.8,2.4,0.9,3.5
	c0.3,2.2-12.1,13.4-16.7,11.3c-1.4-0.6-0.8-2-0.9-3.6C296.7,515.8,302.4,512.2,306.1,509.1z"/>
<path class="st37" d="M309.1,507.2c2-1.7,9.4,1.3,11,3.3c0.9,1.3,0.2,4.2-1.1,5c-1.3-0.8,0-2-0.3-3.1c-0.3-0.9-1.3-0.9-2.2-1.3
	C313.7,510.5,309.9,511.3,309.1,507.2z"/>
<path class="st37" d="M307.6,510.5c2-1.7,9.4,1.3,11,3.3c0.9,1.3,0.2,4.2-1.1,5c-1.3-0.8,0-2-0.3-3.1c-0.3-0.9-1.3-0.9-2.2-1.3
	C312.1,513.6,308.3,514.6,307.6,510.5z"/>
<path class="st37" d="M306.5,513c2-1.7,9.4,1.3,11,3.3c0.9,1.3,0.2,4.2-1.1,5c-1.3-0.8,0-2-0.3-3.1c-0.3-0.9-1.3-0.9-2.2-1.3
	C310.9,516.1,307.2,517.1,306.5,513z"/>
<path class="st37" d="M307.1,515.5c1.6-1.3,6.9,0.9,8,2.5c0.6,0.9,0.2,3.1-0.8,3.6c-0.9-0.6,0-1.6-0.3-2.4c-0.2-0.6-0.9-0.6-1.7-0.9
	C310.4,517.9,307.6,518.5,307.1,515.5z"/>
<path class="st37" d="M305.5,511.7c1.1,2.7,9.1-1.7,11.2-2.2c1.6,2.2-3.8,4.1-5,5c-1.4,1.1-1.6,3.3-3.1,4.4c-1.4,0.9-3,0.8-4.6,0.5
	c-0.8-0.2-1.6-0.5-2.4-0.3"/>
<linearGradient id="SVGID_37_" gradientUnits="userSpaceOnUse" x1="243.0261" y1="195.0026" x2="220.8621" y2="411.1266" gradientTransform="matrix(1 0 0 -1 0 798)">
	<stop  offset="0" style="stop-color:#0D47A1"/>
	<stop  offset="1" style="stop-color:#072759"/>
</linearGradient>
<path class="st75" d="M240.3,560.2c-5.7-5.8-5.7-8.8-4.4-17l-55.7-1.9c-3.9,16.2-7.1,30.8,3.3,43c11.5,13.5,79.3,49.6,78,55.5
	c-1.4,6.5-18.1,32.3-33.8,53.2c-0.2,0.2-0.2,0.3-0.3,0.5c-0.6,3.8-4.9,3.8-7.2,6.6c-0.2,0.2-0.2,0.5-0.3,0.6
	c-0.5,1.4-0.2,3.6-1.3,4.1c-0.2,0.2-0.2,0.3-0.3,0.3c-0.8,0.9-1.6,1.9-2.4,2.7c3.1,4.2,4.6,6,7.9,10.2c0.2,0,0.5-0.3,1.1-0.8
	c0.2-0.2,0.3-0.3,0.5-0.3c4.7,0.9,4.7-1.3,5.5-4.4c0.2-0.2,0.3-0.3,0.5-0.5c0.2-0.2,0.3-0.3,0.5-0.3c4.7,0.8,3.6-1.4,5.8-4.7
	c0.2-0.2,0.5-0.3,0.6-0.5c20.4-16.5,56.9-45.9,69.7-57.7c2.5-2.4,2.8-6.3,0.6-9.1C288.7,616.2,246.5,566.5,240.3,560.2z"/>
<linearGradient id="SVGID_38_" gradientUnits="userSpaceOnUse" x1="221.944" y1="353.6708" x2="201.93" y2="288.0688" gradientTransform="matrix(1 0 0 -1 0 798)">
	<stop  offset="3.613780e-02" style="stop-color:#FFC400"/>
	<stop  offset="1" style="stop-color:#FFAB00"/>
</linearGradient>
<path class="st76" d="M218.1,411.2c-23.3,0-44.7,18.9-47.5,42.2l6.4,85.9c0.3,6.3-1.3,12.9,3.3,17c14.9,13.1,55.4-2.7,55.4-2.7
	c5.7,0,1.1-7.4,1.7-13.1l6.6-80.2C246.4,442.5,236,411.2,218.1,411.2z"/>
<path class="st37" d="M211.3,396.6l-4.1,17.5l19.5,14.8l4.1-2.7l1.4-19L211.3,396.6z"/>
<linearGradient id="SVGID_39_" gradientUnits="userSpaceOnUse" x1="225.8318" y1="443.7921" x2="235.0267" y2="419.4031" gradientTransform="matrix(1 0 0 -1 0 798)">
	<stop  offset="3.613780e-02" style="stop-color:#FF5252"/>
	<stop  offset="1" style="stop-color:#D50000"/>
</linearGradient>
<path class="st77" d="M257.1,353.8c-0.8-5.5-5.7-8.8-11-9.1c-2.2-0.2-4.6,0.2-6.6,0.8c-0.6,0.2-5.5,2.5-5,3
	c-5.8-6.1-18.7-3.8-19.7,6c0,0-2.4-0.2-2.5-0.2c-4.2,0-8.5,3-10.5,6.6c-2,3.8-2,7.6,0.5,11c0.5,0.6,1.6,2.4,2.2,2.4
	c-0.3,0.5,0.2,1.6,0.2,2c0.2,1.3,5.5,17.3,5.5,20.1c1.6,0.2,2.5,0.2,3,0.3c-0.2-2.2,1.7-6.1,2.8-7.9c0.3-0.5,0.6-0.9,0.9-1.4
	c0-0.3,0-0.5,0-0.8c0.6-2.7,0-6.1,2-8.3c0.6-0.8,2-0.9,2.5-1.7c0.5-0.8,0-9,1.1-10.9c1.3-1.9,18.9-2.2,20.3-0.8
	c1.6,1.4,1.4,14.3,1.6,14.2c0.3-0.5,0.3-1.1,0.3-1.7c0.5-3.1,1.9-6,2.4-9.1c0.2-2.2,2.4-2.4,3.9-3.1
	C255.7,363.4,257.9,358.3,257.1,353.8z"/>
<path class="st37" d="M245.8,404.4l-0.3-41.5h-25.2l-0.9,10.4l-2.5,3l-1.9,11.6h-2.2l-0.2-2.5c-0.2-2.2-1.9-4.1-4.1-4.1
	c0,0,0,0-0.2,0c-2.2,0-3.9,2-3.9,4.2v2.8c0,2.4,1.9,4.1,4.2,4.1c1.4,0,2.5,1.3,2.5,2.7v3.9c0,6,32.7,18.7,34.4,8
	C245.9,406,245.9,405.2,245.8,404.4z"/>
<path class="st78" d="M245.4,375.6h-6.1c-1.4,0-2.7,1.1-3,2.5h-1.3c-0.3-1.4-1.7-2.5-3.3-2.5H225c-1.6,0-2.8,1.1-3.3,2.5h-10.5
	c-2.8,0-5.5,1.1-7.7,2.8l-0.3,0.3c-0.3,0.3-0.3,0.8,0,1.1c0.3,0.3,0.8,0.3,1.1,0l0.3-0.3c1.9-1.6,4.2-2.5,6.8-2.5h10.5v1.3
	c0.2,3.6,3,6.5,6.6,6.5h0.9c3.1,0,5.8-2.7,5.8-5.8v-1.9h1.1v1.3c0.2,3.6,2.8,6.5,6.1,6.5h0.8c3,0,5.3-2.7,5.3-5.8v-2.7
	C248.4,377.2,247.2,375.6,245.4,375.6z M233.6,381.6c0,2.4-1.9,4.2-4.2,4.2h-0.9c-2.8,0-5-2.2-5.2-5v-1.9c0-0.9,0.8-1.7,1.7-1.7h6.8
	c0.9,0,1.9,0.8,1.9,1.9V381.6z M247,381.6c0,2.4-1.7,4.2-3.8,4.2h-0.8c-2.5,0-4.4-2.2-4.6-5v-1.9c0-0.9,0.6-1.7,1.6-1.7h6.1
	c0.8,0,1.6,0.8,1.6,1.9v2.5H247z"/>
<path class="st62" d="M278.7,432.3l-2,0.3l0.3,2.5l2-0.3L278.7,432.3z"/>
<path class="st62" d="M299.1,429.5l-19.9,2.8l0.3,2.5l19.9-2.8L299.1,429.5z"/>
<path class="st62" d="M300.5,429.3c-0.2,0-0.3,0-0.5,0h-0.5l0.3,2.5h0.5c0.2,0,0.3,0,0.5-0.2L300.5,429.3z"/>
<path class="st62" d="M301.3,431.6c1.6-0.5,3.8-1.3,3.8-1.7c0-0.5-2.5-0.6-4.1-0.6L301.3,431.6z"/>
<path class="st79" d="M238.1,480.4c-1.3,0.8-2.7,1.1-4.1,0.8c-1.1-0.3-1.9-1.1-3-1.4s-5.7-12.9-6.1-13.8c-0.5-0.8-1.3-1.3-1.7-1.9
	c-0.5-0.8-0.5-1.7-0.6-2.5c-0.3-2.7-1.7-5-3-7.6c-2.7-5-4.4-10.4-5.8-15.7c0-0.2-0.2-0.3-0.2-0.5c-3.9-13.2-20.9-17.6-30.3-7.4
	c-1.6,1.7-3,3.8-3.8,6.3c-3.3,9.6,1.4,20,5.3,29.4c0.5,0.9,0.8,2,0.8,3.1c-0.2,1.6-1.6,3-1.4,4.6c0.3,2.5,4.2,2.8,5.3,5.2
	c0.5,1.1,0.2,2.4,0.5,3.6c0.3,0.9,0.9,1.6,1.6,2.4c4.1,4.7,7.4,9.9,9.9,15.6c1.4,3.3,9.4,14.2,11.8,16.8c2.4,2.8,6,4.9,9.4,3.9
	c5-1.4,8.5-8.3,13.7-6.9c0.5,0.2,0.9,0.3,1.4,0.3c2.2,0.2,3-2.8,2.8-5c1.6,0.3,3.1-0.8,3.6-2.2c0.2-0.5,0.5-1.1,0.8-1.4
	c0.9-1.3,2.4-2,3.3-3.1c0.3-0.3,0.5-0.6,0.6-0.9C248,496.8,239.9,484.8,238.1,480.4z"/>
<path class="st37" d="M237.9,480.4l43.4-31.6l5.3,5l-38.2,48.6L237.9,480.4z"/>
<path class="st37" d="M280.8,437.6c0-1.9,0.3-3.9,1.7-5c0.9-0.8,2.4-0.8,3.5-0.5c1.1,0.3,2.2,0.9,3.3,1.6c1.9,1.3,1.9,17.9-2.7,20
	c-1.4,0.6-2-0.8-3.3-1.7C279.6,449.3,280.7,442.5,280.8,437.6z"/>
<path class="st37" d="M281.5,434.2c0-2.7,7.2-6.1,9.7-5.8c1.6,0.2,3.3,2.7,3,4.2c-1.4,0.3-1.6-1.4-2.7-1.9c-0.9-0.3-1.6,0.3-2.4,0.9
	C287,433.1,285.1,436.4,281.5,434.2z"/>
<path class="st37" d="M282.9,437.5c0-2.7,7.2-6.1,9.8-5.8c1.6,0.2,3.3,2.7,3,4.2c-1.4,0.3-1.6-1.4-2.7-1.9c-0.9-0.3-1.6,0.3-2.4,0.9
	C288.2,436.4,286.3,439.7,282.9,437.5z"/>
<path class="st37" d="M284,440c0-2.7,7.2-6.1,9.7-5.8c1.6,0.2,3.3,2.7,3,4.2c-1.4,0.3-1.6-1.4-2.7-1.9c-0.9-0.3-1.6,0.3-2.4,0.9
	C289.3,438.9,287.4,442.2,284,440z"/>
<path class="st37" d="M286.2,441.2c0-2,5.3-4.6,7.2-4.4c1.1,0.2,2.4,2,2.2,3.1c-1.1,0.3-1.1-1.1-1.9-1.4c-0.6-0.3-1.1,0.3-1.7,0.6
	C290.1,440.5,288.8,442.8,286.2,441.2z"/>
<path class="st74" d="M227.4,740.5c0.6-1.1-0.2-1.7-1.1-2.2c0.2,0,0.2-0.2,0.3-0.3c0.5-0.6,0.3-1.6-0.3-2.2
	c-3.6-3.6-5.5-14.9-4.2-16.8c0.2-0.2,0.3-0.5,0.3-0.6c-2.7-3-5.3-6.1-8-9.1c-3.9,1.6-10.5,3-11.2,5.5c-0.6,2.7,0.3,8,1.7,10.2
	c2.7,4.4,5.3,8.8,7.7,13.2c1.6,3,2,7.9,4.4,9.8c2,1.7,15.9,3.6,18.2,1.4C239,746.2,228.8,742.1,227.4,740.5z"/>
</svg>
