<?xml version="1.0" encoding="utf-8"?>
<!-- Generator: Adobe Illustrator 22.1.0, SVG Export Plug-In . SVG Version: 6.00 Build 0)  -->
<svg version="1.1" width="630.6" height="610.5" xmlns="http://www.w3.org/2000/svg" xmlns:xlink="http://www.w3.org/1999/xlink" x="0px" y="0px"
	 viewBox="0 0 630.6 610.5" style="enable-background:new 0 0 630.6 610.5;" xml:space="preserve">
<style type="text/css">
	.st0{opacity:0.77;}
	.st1{fill:#EFEFF0;}
	.st2{opacity:0.77;fill:#D9D9DA;enable-background:new    ;}
	.st3{fill:#B3BDC3;}
	.st4{opacity:0.2;fill:#2E5175;enable-background:new    ;}
	.st5{fill:url(#SVGID_1_);}
	.st6{fill:url(#SVGID_2_);}
	.st7{fill:#283D77;}
	.st8{fill:url(#SVGID_3_);}
	.st9{fill:url(#SVGID_4_);}
	.st10{fill:#B2496F;}
	.st11{fill:#192C55;}
	.st12{fill:url(#SVGID_5_);}
	.st13{fill:#0097A7;}
	.st14{fill:#546E7A;}
	.st15{fill:#D3C0BE;}
	.st16{fill:#C5C4BB;}
	.st17{fill:#C0AFAE;}
	.st18{fill:#D6D5CA;}
	.st19{fill:#4D4D4F;}
	.st20{fill:url(#SVGID_6_);}
	.st21{opacity:0.52;fill:#FFFFFF;enable-background:new    ;}
	.st22{fill:#FFFFFF;}
	.st23{fill:#CC5809;}
	.st24{fill:#39000D;}
	.st25{fill:#00838F;}
	.st26{fill:#AF5A7D;}
	.st27{fill:#005077;}
	.st28{fill:url(#SVGID_7_);}
	.st29{fill:url(#SVGID_8_);}
	.st30{fill:url(#SVGID_9_);}
	.st31{fill:url(#SVGID_10_);}
	.st32{fill:#37474F;}
	.st33{fill:#513601;}
	.st34{fill:#634400;}
	.st35{fill:url(#SVGID_11_);}
	.st36{fill:url(#SVGID_12_);}
	.st37{fill:url(#SVGID_13_);}
	.st38{fill:url(#SVGID_14_);}
	.st39{fill:#EDF5D0;}
	.st40{fill:#6B8756;}
	.st41{fill:#9DA88F;}
	.st42{fill:#F5B026;}
	.st43{fill:#CFCFCF;}
	.st44{fill:#DA8108;}
</style>
<g class="st0">
	<path class="st1" d="M204.9,41.6V0.1h-85.8L77.7,41.6H204.9z"/>
	<path class="st2" d="M591.7,72.1H420v313h171.8V72.1z"/>
	<path class="st2" d="M591.7,0H420v41.6h171.8V0z"/>
	<path class="st2" d="M205.1,0H31.9v41.6h173.2V0z"/>
	<path class="st2" d="M205.1,72.1H31.9v313h173.2V72.1z"/>
	<path class="st2" d="M398.4,0H226.6v41.6h171.8V0z"/>
	<path class="st2" d="M398.4,72.1H226.6v313h171.8V72.1z"/>
	<path class="st1" d="M47.2,72.1L32.5,86.8v154.6L201.8,72.1H47.2z"/>
	<path class="st1" d="M204.9,131.9L32.5,304.4v80.3h58.2l114.3-114.3V131.9z"/>
	<path class="st1" d="M232.5,41.6l41.4-41.4h-47.8v41.4H232.5z"/>
	<path class="st1" d="M398.6,41.6V0.1h-61.7l-41.4,41.4H398.6z"/>
	<path class="st1" d="M264.8,72.1l-38.7,38.7v138.4L398.6,76.7v-4.7H264.8z"/>
	<path class="st1" d="M398.6,178L226.1,350.5v34.2h64.1l108.4-108.4V178z"/>
	<path class="st1" d="M433.9,41.6l41.4-41.4h-55.6v41.4H433.9z"/>
	<path class="st1" d="M504.5,72.1l-84.8,84.8v98.3L592.2,82.7V72.1H504.5z"/>
	<path class="st1" d="M592.2,41.6V0.1h-15.7L535,41.6H592.2z"/>
	<path class="st1" d="M592.2,286.9l-97.7,97.7h97.7V286.9z"/>
	<path class="st1" d="M592.2,161L419.7,333.5v51.2h32.8l139.7-139.7V161z"/>
	<path class="st3" d="M630.6,375H0v19.1h630.6V375z"/>
</g>

</svg>
