<svg width="111" height="109" viewBox="0 0 111 109" fill="none" xmlns="http://www.w3.org/2000/svg">
<rect width="111" height="109" fill="white"/>
<path d="M54.9887 104.254C82.7289 104.254 105.217 81.7666 105.217 54.0264C105.217 26.2862 82.7289 3.7984 54.9887 3.7984C27.2486 3.7984 4.76074 26.2862 4.76074 54.0264C4.76074 81.7666 27.2486 104.254 54.9887 104.254Z" fill="#E84F40"/>
<path d="M12.9971 81.5184C21.9291 95.2064 37.3571 104.254 54.9891 104.254C82.7131 104.254 105.217 81.7504 105.217 54.0264C105.217 50.6624 104.869 47.2984 104.173 44.1664C74.3611 93.5824 32.8331 88.0144 12.9971 81.5184Z" fill="#C94039"/>
<path d="M97.2864 63.7268C102.656 40.375 88.0785 17.0919 64.7268 11.7224C41.375 6.35285 18.0919 20.9303 12.7224 44.282C7.35284 67.6338 21.9303 90.9169 45.282 96.2864C68.6338 101.656 91.9169 87.0785 97.2864 63.7268Z" fill="white"/>
<path d="M15.7813 57.0424C15.7813 33.0304 35.1533 13.6584 59.1653 13.6584C67.7493 13.6584 75.6372 16.2104 82.3652 20.5024C74.9412 14.3544 65.3132 10.6424 54.8732 10.6424C30.8612 10.6424 11.4893 30.0144 11.4893 54.0264C11.4893 69.4544 19.4932 82.9104 31.6732 90.5664C22.0452 82.6784 15.7813 70.6144 15.7813 57.0424Z" fill="#E4EAEA"/>
<path d="M91.0541 59.8775C94.3012 39.9593 80.7866 21.1803 60.8685 17.9332C40.9503 14.6862 22.1712 28.2008 18.9242 48.1189C15.6772 68.0371 29.1918 86.8161 49.1099 90.0632C69.028 93.3102 87.8071 79.7956 91.0541 59.8775Z" stroke="#262626" stroke-width="0.5" stroke-miterlimit="10" stroke-linecap="round"/>
<path d="M54.9894 57.1584C56.7192 57.1584 58.1214 55.7562 58.1214 54.0264C58.1214 52.2967 56.7192 50.8944 54.9894 50.8944C53.2597 50.8944 51.8574 52.2967 51.8574 54.0264C51.8574 55.7562 53.2597 57.1584 54.9894 57.1584Z" fill="#262626"/>
<path d="M54.9888 25.1424C56.0139 25.1424 56.8448 24.3115 56.8448 23.2864C56.8448 22.2614 56.0139 21.4304 54.9888 21.4304C53.9638 21.4304 53.1328 22.2614 53.1328 23.2864C53.1328 24.3115 53.9638 25.1424 54.9888 25.1424Z" fill="#262626"/>
<path d="M56.0333 17.4864C56.0333 18.0664 55.5693 18.5304 54.9893 18.5304C54.4093 18.5304 53.9453 18.0664 53.9453 17.4864C53.9453 16.9064 54.4093 16.4424 54.9893 16.4424C55.5693 16.3264 56.0333 16.7904 56.0333 17.4864Z" fill="#262626"/>
<path d="M80.8575 29.2024C81.434 29.2024 81.9015 28.735 81.9015 28.1584C81.9015 27.5818 81.434 27.1144 80.8575 27.1144C80.2809 27.1144 79.8135 27.5818 79.8135 28.1584C79.8135 28.735 80.2809 29.2024 80.8575 29.2024Z" fill="#262626"/>
<path d="M91.5293 55.0704C90.9493 55.0704 90.4854 54.6064 90.4854 54.0264C90.4854 53.4464 90.9493 52.9824 91.5293 52.9824C92.1093 52.9824 92.5733 53.4464 92.5733 54.0264C92.6893 54.6064 92.1093 55.0704 91.5293 55.0704Z" fill="#262626"/>
<path d="M80.8575 80.9384C81.434 80.9384 81.9015 80.471 81.9015 79.8944C81.9015 79.3178 81.434 78.8504 80.8575 78.8504C80.2809 78.8504 79.8135 79.3178 79.8135 79.8944C79.8135 80.471 80.2809 80.9384 80.8575 80.9384Z" fill="#262626"/>
<path d="M53.9453 90.5664C53.9453 89.9864 54.4093 89.5224 54.9893 89.5224C55.5693 89.5224 56.0333 89.9864 56.0333 90.5664C56.0333 91.1464 55.5693 91.6104 54.9893 91.6104C54.4093 91.6104 53.9453 91.1464 53.9453 90.5664Z" fill="#262626"/>
<path d="M28.3088 79.0824C28.7728 78.6184 29.3528 78.6184 29.8168 79.0824C30.2808 79.5464 30.2808 80.1264 29.8168 80.5904C29.3528 81.0544 28.7728 81.0544 28.3088 80.5904C27.9609 80.2424 27.9609 79.5464 28.3088 79.0824Z" fill="#262626"/>
<path d="M18.4486 52.9824C19.0286 52.9824 19.4926 53.4464 19.4926 54.0264C19.4926 54.6064 19.0286 55.0704 18.4486 55.0704C17.8686 55.0704 17.4046 54.6064 17.4046 54.0264C17.2886 53.4464 17.8686 52.9824 18.4486 52.9824Z" fill="#262626"/>
<path d="M29.8169 27.3464C30.2809 27.8104 30.2809 28.3904 29.8169 28.8544C29.3529 29.3184 28.7729 29.3184 28.3089 28.8544C27.8449 28.3904 27.8449 27.8104 28.3089 27.3464C28.7729 26.9984 29.4689 26.9984 29.8169 27.3464Z" fill="#262626"/>
<path d="M80.045 41.6144C80.045 42.6584 79.233 43.4704 78.189 43.4704C77.145 43.4704 76.333 42.6584 76.333 41.6144C76.333 40.5704 77.145 39.7584 78.189 39.7584C79.233 39.7584 80.045 40.5704 80.045 41.6144Z" fill="#262626"/>
<line x1="55.25" y1="23" x2="55.25" y2="54" stroke="#262626" stroke-width="0.5"/>
<line x1="79.1191" y1="41.2198" x2="55.1191" y2="54.2198" stroke="#262626" stroke-width="0.5"/>
</svg>
