<?xml version="1.0" encoding="utf-8"?>
<!-- Generator: Adobe Illustrator 22.1.0, SVG Export Plug-In . SVG Version: 6.00 Build 0)  -->
<svg width="130" height="130" version="1.1" id="Layer_1" xmlns="http://www.w3.org/2000/svg" xmlns:xlink="http://www.w3.org/1999/xlink" x="0px" y="0px"
	 viewBox="0 0 129.9 130" style="enable-background:new 0 0 129.9 130;" xml:space="preserve">
<style type="text/css">
	.st0{fill:#FF9900;}
	.st1{opacity:0.1;fill:#4D5A85;enable-background:new    ;}
</style>
<g>
	<path class="st0" d="M26.4,33.2l-7.5-14.1l14.2,7.4L26.4,33.2z"/>
	<path class="st0" d="M15.1,69.8L0,65.1l15.2-4.9L15.1,69.8L15.1,69.8z"/>
	<path class="st0" d="M33.1,103.6L19,111.1l7.4-14.2L33.1,103.6z"/>
	<path class="st0" d="M103.4,96.8l7.5,14l-14.2-7.3L103.4,96.8z"/>
	<path class="st0" d="M114.7,60.3l15.2,4.7l-15.2,4.9V60.3z"/>
	<path class="st0" d="M96.7,26.5l14.1-7.5l-7.4,14.2L96.7,26.5z"/>
	<path class="st0" d="M64.8,0v15.3h4.9L64.8,0z"/>
	<path class="st0" d="M60.1,15.3h4.7V0L60.1,15.3z"/>
	<path class="st0" d="M65,130l4.7-15.2h-4.9v14.6L65,130z"/>
	<path class="st0" d="M103.4,96.8l7.5,14l-14.2-7.3L103.4,96.8z"/>
	<path class="st0" d="M114.7,60.3l15.2,4.7l-15.2,4.9V60.3z"/>
	<path class="st0" d="M96.7,26.5l14.1-7.5l-7.4,14.2L96.7,26.5z"/>
	<path class="st0" d="M64.8,0v15.3h4.9L64.8,0z"/>
	<path class="st0" d="M65,130l4.7-15.2h-4.9v14.6L65,130z"/>
	<path class="st0" d="M64.8,129.4v-14.6h-4.7L64.8,129.4z"/>
	<path class="st1" d="M103.4,96.8l7.5,14l-14.2-7.3L103.4,96.8z"/>
	<path class="st1" d="M114.7,60.3l15.2,4.7l-15.2,4.9V60.3z"/>
	<path class="st1" d="M96.7,26.5l14.1-7.5l-7.4,14.2L96.7,26.5z"/>
	<path class="st1" d="M64.8,0v15.3h4.9L64.8,0z"/>
	<path class="st1" d="M65,130l4.7-15.2h-4.9v14.6L65,130z"/>
</g>
</svg>
