<?xml version="1.0" encoding="utf-8"?>
<!-- Generator: Adobe Illustrator 22.1.0, SVG Export Plug-In . SVG Version: 6.00 Build 0)  -->
<svg version="1.1" id="Слой_1" xmlns="http://www.w3.org/2000/svg" xmlns:xlink="http://www.w3.org/1999/xlink" x="0px" y="0px"
	 viewBox="0 0 124 207" style="enable-background:new 0 0 124 207;" xml:space="preserve">
<style type="text/css">
	.st0{fill:#4F8CA5;}
	.st1{fill:#7DADBB;}
	.st2{fill:#2E5175;}
</style>
<g id="Group">
	<g id="Group_2">
		<g id="Group_4">
			<path id="Vector_9" class="st0" d="M41.8,93.6c-0.3,33.7,7.9,53.2,18.5,54.1l0.9-123.2C57.6,31.4,42,63.1,41.8,93.6z"/>
			<path id="Vector_10" class="st1" d="M61.9,23.1c0,0-0.2,0.5-0.7,1.3l-0.9,123.2c0.3,0,0.5,0.1,0.8,0c10.8,0.1,19.7-19.4,20-53.9
				C81.3,59.4,61.9,23.1,61.9,23.1z"/>
			<path id="Vector_11" class="st2" d="M61,119.9c0-8.2,0-16.6,0.2-24.8c0.2-16.6,0-33.1-0.1-49.8c-0.1-0.1-0.2-0.2-0.3,0
				c-0.3,11.2-0.4,22.3-0.5,33.6c-3-3.5-6.5-7.4-10.2-10.2c-0.2-0.1-0.5,0.2-0.3,0.3c2.9,3.9,6.8,7.6,10.5,10.7
				c0,5-0.2,10.1-0.2,15.3c0,8.2-0.2,16.6-0.2,24.8c0,8.2-0.6,16.6,0,24.9c0.1,0.6,0.8,0.6,0.9,0C61.5,136.6,61,128.1,61,119.9z"/>
			<path id="Vector_12" class="st2" d="M60.7,109.5c-5.1-6.1-10.9-12.1-16.9-17.2c-0.2-0.1-0.3,0.1-0.2,0.2
				c5.1,6.1,10.9,12.1,16.9,17.2C60.6,110,60.8,109.8,60.7,109.5z"/>
			<path id="Vector_13" class="st2" d="M73.8,81.3c-2.4,2.1-4.7,4.4-7.1,6.5c-2.1,2-4.3,3.9-6,6.2c-0.1,0.2,0.2,0.4,0.3,0.3
				c2.4-1.7,4.3-3.8,6.4-5.9c2.1-2.3,4.5-4.6,6.6-6.9C74.2,81.3,73.9,81.1,73.8,81.3z"/>
			<path id="Vector_14" class="st2" d="M73.2,112.8c-4.1,3.7-8.4,7.3-12,11.6c-0.2,0.2,0.1,0.6,0.3,0.3c4.3-3.5,8-7.8,11.7-11.8
				C73.5,112.8,73.3,112.6,73.2,112.8z"/>
			<path id="Vector_15" class="st2" d="M61.3,135c-4.1-5.1-9.1-9.7-14.1-14.1c-0.2-0.1-0.4,0-0.2,0.2c4.2,4.9,8.8,10,13.8,14.2
				C61.2,135.5,61.6,135.2,61.3,135z"/>
		</g>
	</g>
</g>
</svg>
