<?xml version="1.0" encoding="utf-8"?>
<!-- Generator: Adobe Illustrator 22.1.0, SVG Export Plug-In . SVG Version: 6.00 Build 0)  -->
<svg width="130" height="130" version="1.1" id="Layer_1" xmlns="http://www.w3.org/2000/svg" xmlns:xlink="http://www.w3.org/1999/xlink" x="0px" y="0px"
	 viewBox="0 0 129.9 130" style="enable-background:new 0 0 129.9 130;" xml:space="preserve">
<style type="text/css">
	.st0{fill:#FF9900;}
	.st1{opacity:0.1;fill:#4D5A85;enable-background:new    ;}
</style>
<g>
	<path class="st0" d="M21.2,65c0,24.1,19.5,43.7,43.6,43.7V21.3C40.7,21.3,21.2,40.8,21.2,65z"/>
	<path class="st0" d="M108.6,65c0-24.2-19.6-43.7-43.7-43.7h-0.1v87.5h0.1C89.1,108.8,108.6,89.1,108.6,65z"/>
	<path class="st0" d="M64.8,0"/>
	<path class="st0" d="M60.1,15.3"/>
	<path class="st0" d="M108.6,65c0-24.2-19.6-43.7-43.7-43.7h-0.1v87.5h0.1C89.1,108.8,108.6,89.1,108.6,65z"/>
	<path class="st0" d="M64.8,0"/>
	<path class="st0" d="M69.7,15.3"/>
	<path class="st0" d="M64.8,129.4L65,130"/>
	<path class="st0" d="M69.7,114.8h-4.9"/>
	<path class="st1" d="M108.6,65c0-24.2-19.6-43.7-43.7-43.7h-0.1v87.5h0.1C89.1,108.8,108.6,89.1,108.6,65z"/>
</g>
</svg>
