<svg width="406" height="170" viewBox="0 0 406 170" fill="none" xmlns="http://www.w3.org/2000/svg">
<g opacity="0.1">
<g clip-path="url(#clip0_1018_6674)">
<path d="M150.171 0H405.17V170H150.171V0Z" fill="white"/>
<path d="M150.172 -0.000244141H405.171V13.0728H150.172V-0.000244141ZM150.172 26.1459H405.171V39.219H150.172V26.1459ZM150.172 52.292H405.171V65.3651H150.172V52.292ZM150.172 78.4382H405.171V91.5113H150.172V78.4382ZM150.172 104.634H405.171V117.707H150.172V104.634ZM150.172 130.78H405.171V143.853H150.172V130.78ZM150.172 156.926H405.171V169.999H150.172V156.926Z" fill="#D80027"/>
<path d="M150.171 0H277.671V91.5115H150.171V0Z" fill="#2E52B2"/>
<path d="M173.931 69.0442L171.943 62.6816L169.756 69.0442H163.194L168.513 72.8716L166.525 79.2342L171.943 75.3073L177.212 79.2342L175.174 72.8716L180.592 69.0442H173.931ZM201.916 69.0442L199.878 62.6816L197.791 69.0442H191.229L196.548 72.8716L194.56 79.2342L199.878 75.3073L205.247 79.2342L203.259 72.8716L208.577 69.0442H201.916ZM230.001 69.0442L227.864 62.6816L225.875 69.0442H219.165L224.633 72.8716L222.545 79.2342L227.864 75.3073L233.332 79.2342L231.244 72.8716L236.563 69.0442H230.001ZM257.937 69.0442L255.949 62.6816L253.861 69.0442H247.25L252.618 72.8716L250.63 79.2342L255.949 75.3073L261.317 79.2342L259.18 72.8716L264.647 69.0442H257.937ZM199.878 37.4302L197.791 43.7927H191.229L196.548 47.7196L194.56 53.9828L199.878 50.1056L205.247 53.9828L203.259 47.7196L208.577 43.7927H201.916L199.878 37.4302ZM171.943 37.4302L169.756 43.7927H163.194L168.513 47.7196L166.525 53.9828L171.943 50.1056L177.212 53.9828L175.174 47.7196L180.592 43.7927H173.931L171.943 37.4302ZM227.864 37.4302L225.875 43.7927H219.165L224.633 47.7196L222.545 53.9828L227.864 50.1056L233.332 53.9828L231.244 47.7196L236.563 43.7927H230.001L227.864 37.4302ZM255.949 37.4302L253.861 43.7927H247.25L252.618 47.7196L250.63 53.9828L255.949 50.1056L261.317 53.9828L259.18 47.7196L264.647 43.7927H257.937L255.949 37.4302ZM171.943 12.2782L169.756 18.5413H163.194L168.513 22.4682L166.525 28.7811L171.943 24.8542L177.212 28.7811L175.174 22.4682L180.592 18.5413H173.931L171.943 12.2782ZM199.878 12.2782L197.791 18.5413H191.229L196.548 22.4682L194.56 28.7811L199.878 24.8542L205.247 28.7811L203.259 22.4682L208.577 18.5413H201.916L199.878 12.2782ZM227.864 12.2782L225.875 18.5413H219.165L224.633 22.4682L222.545 28.7811L227.864 24.8542L233.332 28.7811L231.244 22.4682L236.563 18.5413H230.001L227.864 12.2782ZM255.949 12.2782L253.861 18.5413H247.25L252.618 22.4682L250.63 28.7811L255.949 24.8542L261.317 28.7811L259.18 22.4682L264.647 18.5413H257.937L255.949 12.2782Z" fill="white"/>
</g>
</g>
<rect x="0.170898" width="405" height="170" rx="20" fill="url(#paint0_linear_1018_6674)"/>
<defs>
<linearGradient id="paint0_linear_1018_6674" x1="43.5321" y1="156.103" x2="401.395" y2="88.977" gradientUnits="userSpaceOnUse">
<stop offset="0.396252" stop-color="#1C2023"/>
<stop offset="0.607294" stop-color="#1C2023" stop-opacity="0.79"/>
<stop offset="1" stop-color="#1C2023" stop-opacity="0"/>
</linearGradient>
<clipPath id="clip0_1018_6674">
<path d="M150.171 20C150.171 8.95432 159.125 0 170.171 0H385.17C396.216 0 405.17 8.95431 405.17 20V150C405.17 161.045 396.216 170 385.17 170H170.171C159.125 170 150.171 161.045 150.171 150V20Z" fill="white"/>
</clipPath>
</defs>
</svg>
