<svg width="118" height="144" viewBox="0 0 118 144" fill="none" xmlns="http://www.w3.org/2000/svg">
<path d="M74.0149 127.595C70.8138 136.229 54.2904 138.46 37.1097 132.578C19.9291 126.696 8.59545 114.928 11.7965 106.294C14.9976 97.6593 31.521 95.4288 48.7017 101.311C65.8823 107.193 77.2159 118.961 74.0149 127.595Z" fill="#C7C3AC"/>
<path d="M14.7949 113.551C17.3145 119.198 25.3652 125.978 37.4586 130.102C51.7139 134.963 64.0602 133.569 68.4926 129.242L68.4967 129.244C68.4967 129.244 70.6153 127.988 72.2706 123.943L72.7688 122.604L105.594 34.3842L47.7488 14.6582L14.8535 103.067C14.8535 103.067 12.5871 109.997 14.7824 113.536L14.7949 113.551Z" fill="#B09F69"/>
<path d="M74.5263 121.843L74.0149 123.232C72.3156 127.428 70.1416 128.729 70.1416 128.729L70.1374 128.727C65.587 133.215 52.9173 134.66 38.287 129.621C25.8777 125.346 17.6156 118.319 15.0288 112.464L15.0147 112.445C12.7618 108.776 15.0879 101.589 15.0879 101.589C13.5619 102.78 12.4396 104.219 11.8191 105.904C11.1987 107.588 11.1269 109.391 11.5317 111.245C13.2218 119 23.3155 127.67 37.2392 132.466C51.0181 137.212 64.3679 136.724 70.8256 131.891C72.454 130.673 73.6522 129.183 74.2994 127.425C74.9458 125.67 74.9916 123.783 74.5263 121.843Z" fill="#B9A977"/>
<path d="M74.512 122.889L74.0392 124.206C74.2029 123.794 74.3621 123.363 74.512 122.889Z" fill="#C7C3AC"/>
<path d="M40.2407 34.2021C40.2407 34.2021 40.8724 47.2349 65.2403 55.5321C89.6083 63.8293 98.5922 54.0706 98.5922 54.0706L77.3528 111.035C77.3528 111.035 64.3424 119.964 44.7878 113.306C25.2333 106.648 18.6896 92.0031 18.6896 92.0031L40.2407 34.2021Z" fill="#BE1622"/>
<path d="M60.47 71.5564C59.566 70.5799 60.7385 68.9631 61.2685 67.9427C61.7151 67.0812 60.5533 66.484 59.9215 66.9988C59.086 67.6789 58.1417 68.1796 57.2109 68.7092C57.3665 67.931 57.5166 67.1521 57.8271 66.3988C58.2127 65.4653 57.1382 64.9406 56.4471 65.4315C55.7856 65.902 55.1331 66.3574 54.5031 66.8362C54.6674 66.246 54.8275 65.6543 54.9819 65.0595C55.1353 64.4643 54.4289 64.0092 54.0343 64.5756C52.9666 66.1064 52.4385 67.7921 51.7704 69.5127C51.3383 70.6238 52.6999 71.1065 53.3869 70.338C54.019 69.6298 54.7213 69.0064 55.4514 68.4169C55.3231 69.1095 55.2131 69.8083 55.0508 70.5051C54.8698 71.2832 55.8788 71.6115 56.3933 71.1821C57.0236 70.6559 57.6995 70.1964 58.3962 69.7744C57.9655 71.133 58.0148 72.5154 59.3892 73.1254C60.2234 73.4976 61.0832 72.2183 60.47 71.5564Z" fill="#F6F6F6"/>
<path d="M67.7376 74.8026C67.7376 74.4951 67.7207 74.1928 67.6956 73.8912C68.3328 72.8096 68.0347 70.7705 67.7507 69.8563C67.1363 67.8783 64.5822 67.409 63.2607 69.2004C63.0285 69.5157 63.2206 70.0706 63.6287 70.0432C64.239 70.0026 64.9788 69.7252 65.5079 69.9451C65.4393 69.917 65.6859 70.1721 65.6849 70.1718C65.836 70.4246 65.888 70.6388 65.9349 70.8851C66.0193 71.3262 66.0179 71.7357 65.9708 72.185C65.8939 71.896 65.5241 71.6977 65.2882 71.5861C65.0345 71.4671 64.7102 71.4266 64.434 71.3832C64.0451 71.322 63.5985 71.3327 63.2099 71.4463C62.8068 71.5647 62.4136 71.7829 62.1706 72.1547C61.8784 72.6002 61.8694 73.0794 62.0149 73.5534C62.2413 74.29 63.0519 74.724 63.7323 74.9134C64.264 75.0619 64.8264 75.122 65.3866 75.068C65.6352 75.0441 65.8816 75.0014 66.1273 74.9452L66.1427 74.9408C66.1861 75.2209 66.3824 75.4879 66.644 75.5552C66.7979 75.5944 66.9013 75.6031 67.0618 75.5757C67.3909 75.5202 67.7369 75.152 67.7376 74.8026ZM65.8039 72.9554L65.797 72.9554C65.6862 72.9635 65.5744 72.9652 65.4629 72.9658C65.3159 72.9664 65.1689 72.967 65.0217 72.9651C65.3818 72.925 65.7808 72.8269 65.9263 72.5413L65.9257 72.5459C65.9102 72.6551 65.8877 72.7645 65.8688 72.8738L65.8567 72.9492L65.8039 72.9554Z" fill="#F6F6F6"/>
<path d="M71.804 73.9386C71.8712 73.4529 71.9831 72.8713 72.0568 72.4777C72.0685 72.4158 72.0832 72.355 72.0958 72.2935C72.1638 72.3215 72.2364 72.3463 72.2943 72.3828C72.7035 72.6324 73.1037 72.5762 73.5062 72.2911C73.6483 72.19 73.7599 72.0031 73.8161 71.8428C73.9572 71.4362 73.865 70.8843 73.4858 70.6701C73.1994 70.5089 72.8699 70.3811 72.5211 70.2777C72.5519 70.1338 72.5847 69.9906 72.6131 69.8472C72.7347 69.2365 73.0074 68.2838 72.7191 67.7583C72.545 67.4417 72.1678 67.2436 71.809 67.4479C71.0368 67.887 70.7379 69.1634 70.4732 69.9574C70.2358 69.9482 70.0033 69.9443 69.7846 69.9523C68.9688 69.9804 68.5994 70.9672 69.2149 71.4834C69.4185 71.6533 69.6657 71.7675 69.9329 71.8491C69.78 72.4981 69.6565 73.1536 69.5693 73.7939C69.452 74.6465 69.3531 75.9349 70.1764 76.4143C71.2857 77.0594 72.5144 75.9062 72.6155 74.7154C72.655 74.2491 72.2643 73.8431 71.804 73.9386Z" fill="#F6F6F6"/>
<path d="M80.2747 73.7207C80.3203 72.4868 79.388 70.9042 77.9931 71.2165C77.9342 71.2301 77.8896 71.2546 77.839 71.2735C77.4966 71.228 77.1074 71.2832 76.8376 71.3346C75.9545 71.5021 75.1375 72.4806 74.6842 73.2206C73.7508 74.742 73.9185 76.6745 75.3985 77.5925C77.6925 79.0164 80.1911 75.9925 80.2747 73.7207ZM76.9874 75.7069C76.7767 75.8024 76.6579 75.7957 76.494 75.6303C75.9618 75.0928 76.2886 74.4097 76.6916 73.8355C76.9554 73.4595 77.3128 73.1178 77.6699 72.8109C78.0665 73.2023 78.3608 73.199 78.409 73.7667C78.4723 74.5056 77.5956 75.4325 76.9874 75.7069Z" fill="#F6F6F6"/>
<path d="M55.769 82.7188C55.6099 82.6081 55.4078 82.7969 55.4778 82.9748C55.7033 83.5523 55.9925 84.0816 56.1886 84.6768C56.4026 85.325 56.5786 85.9891 56.8003 86.6351C56.8289 86.7183 56.9635 86.6858 56.9676 86.5982C57.0196 85.2763 56.9102 83.5119 55.769 82.7188Z" fill="#F6F6F6"/>
<path d="M65.4033 79.429C64.9393 78.0857 63.5098 78.2253 62.4112 78.7499C62.2219 78.8396 62.1125 79.1083 62.2087 79.2928C62.6899 80.2215 63.1031 81.6487 62.2996 82.6267C62.1615 82.7941 62.3937 82.9828 62.5481 82.8607C63.1838 82.3544 63.4675 81.9438 63.5093 81.1125C63.5408 80.4811 63.361 79.8598 63.1082 79.2992C63.6285 79.0933 64.1936 79.0038 64.5663 79.4764C64.9451 79.9571 64.8461 80.7883 64.7392 81.3699C64.6352 81.9379 64.1995 82.5255 64.1893 83.0906C64.1802 83.6007 64.7677 83.2021 64.9199 82.9937C65.6289 82.0173 65.7746 80.5046 65.4033 79.429Z" fill="#F6F6F6"/>
<path d="M77.939 92.9857C77.9958 89.6747 75.5874 85.3497 72.259 84.5754C72.7153 84.439 73.1742 84.2704 73.6413 84.052C73.968 83.8994 73.8127 83.3752 73.4709 83.459C70.2575 84.2412 67.5568 81.9453 64.35 83.0686C64.1342 83.1441 64.1727 83.468 64.4049 83.4263C66.7309 83.0113 68.8031 84.0132 70.9898 84.2542C68.8108 84.7194 66.5333 84.642 64.3963 84.3202C63.9879 84.2589 63.8396 84.8517 64.118 85.0693C65.9152 86.4715 66.5975 88.9255 67.7959 90.8975C65.0837 89.6903 63.6409 87.6554 63.0457 84.4397C63.0023 84.2009 62.7443 84.0467 62.5165 84.1732C60.779 85.138 58.8358 85.7487 57.51 87.34C57.316 87.5722 57.6373 87.8056 57.8446 87.6562C59.2205 86.6694 60.714 85.9808 62.2019 85.2231C62.3275 85.1596 63.231 87.6389 63.3558 87.8394C64.637 89.9071 66.4481 90.8785 68.5584 91.9057C68.844 92.0449 69.1074 91.604 68.9206 91.3799C67.3621 89.5098 66.9679 86.8607 65.3616 85.0881C66.9704 85.0471 68.4931 85.1443 70.0231 85.0004C71.7958 85.8975 73.3218 86.5538 74.5656 88.2196C75.9541 90.0792 76.0362 92.6045 75.7029 94.9095C75.2007 98.3741 72.2313 100.693 69.1938 101.701C62.5605 103.899 57.0701 100.564 52.846 96.0601C55.2231 93.8628 56.6693 90.5899 57.2148 87.2673C57.246 87.0773 56.9712 87.0714 56.932 87.255C56.1993 90.7693 54.5011 93.5976 51.9109 95.3575C51.7133 95.3682 51.5244 95.4774 51.4313 95.6658C50.2349 96.3874 48.8675 96.8988 47.326 97.1549C43.1372 97.8484 39.3117 95.8568 36.7453 92.7466C34.1992 89.663 33.0827 85.5728 35.4375 81.7724C37.3006 78.7656 40.9517 77.2167 44.2688 77.2322C44.8689 77.501 45.4705 77.7506 46.0765 77.9039C43.4607 78.609 40.5799 81.3168 38.8305 82.6288C38.5465 82.8412 38.6331 83.3383 38.9466 83.4271C42.1292 84.329 45.2684 82.9537 47.9827 80.9817C48.2107 80.8419 48.4111 80.6706 48.5844 80.4692C49.2353 79.5343 49.4266 79.3158 49.1582 79.8138C49.1124 80.5298 49.2705 81.2837 49.3399 81.9865C49.5204 83.8064 50.043 85.9537 49.2178 87.7357C49.0133 88.1772 49.5672 88.4706 49.8945 88.2105C52.0748 86.4745 53.0576 83.6378 51.9495 81.354C53.5034 82.0601 55.2294 82.1435 56.9176 81.7076L56.9888 81.7967C57.7207 82.0824 58.4547 82.047 59.2384 82.0995C60.2896 82.1713 61.4543 82.4116 62.4463 82.7519C62.6047 82.806 62.7183 82.5781 62.589 82.4801C61.5414 81.684 59.938 81.0613 58.4531 81.1618C58.6997 81.0503 58.9445 80.9309 59.1862 80.7982C59.4645 80.6449 59.4173 80.3009 59.1747 80.1801C59.023 80.1049 58.8706 79.9721 58.6854 80.0153C57.2392 80.3517 56.1999 80.0576 54.9418 79.4134C53.8607 78.8604 52.8297 78.2694 51.6633 78.0958C52.2683 77.6309 52.8621 77.1523 53.4384 76.6397L53.4963 76.5494C53.6369 76.5326 53.7812 76.5061 53.9344 76.4618C54.0254 76.4354 54.0671 76.3481 54.0384 76.26C53.6979 75.2357 52.8494 73.8347 51.7795 73.5326C51.621 73.4882 51.4352 73.7012 51.5685 73.8386C52.3493 74.6414 53.2186 75.122 53.696 76.1833C52.2205 76.1243 51.7419 74.4545 51.3107 73.25C51.2472 73.0717 50.9986 73.1543 50.9722 73.3252C50.7679 74.6649 50.2628 76.0375 49.6116 77.2636L49.5527 77.2753C49.1787 76.7253 48.9148 76.1188 48.3837 75.6485C47.5718 74.9292 46.6739 74.4229 45.6429 74.0876C43.945 73.5354 42.0014 73.8474 40.6895 75.2734C40.4173 75.5694 40.5031 76.0405 40.9187 76.0761C41.6152 76.1355 42.3123 76.3775 43.0095 76.6721C39.9704 76.5607 37.0872 77.939 34.8162 80.5837C31.4232 84.5333 32.5663 89.6628 35.1072 93.3001C37.8541 97.2318 42.7512 99.3682 47.5506 98.6315C49.0501 98.4013 50.3686 97.8561 51.5226 97.0894C52.4254 100.123 57.0608 102.493 59.485 103.414C63.3172 104.87 67.9834 104.586 71.8537 102.824C75.7758 101.039 77.8669 97.1932 77.939 92.9857ZM41.8646 75.4328C43.3588 74.3836 45.1094 74.6284 46.6607 75.4694C47.3981 75.8683 48.0108 76.4558 48.5177 77.1258C48.8947 77.6242 48.8494 78.0394 49.4412 78.2184C49.6318 78.2762 49.9073 78.1367 49.9068 77.8979C49.9064 77.7241 49.8846 77.6236 49.8386 77.4855C50.4276 76.3863 50.7077 75.2389 51.0833 74.0716C51.2405 74.7248 51.5454 75.3332 51.9361 75.857C52.2115 76.2264 52.5218 76.4365 52.872 76.5232C51.984 77.0015 51.1617 77.5646 50.3053 78.1198C49.9907 78.3242 49.9748 78.9318 50.4259 78.9123C52.4359 78.8273 53.9674 80.0898 55.7012 80.8513C55.9253 80.9499 56.1772 81.0299 56.4366 81.0929C54.5344 81.5059 52.6073 81.2803 51.0565 80.0075C51.0092 79.9693 50.9603 79.9514 50.9114 79.9457C50.7679 79.811 50.497 79.9472 50.5766 80.1543C50.5029 80.2967 50.5006 80.4745 50.6532 80.5879C50.7066 80.6281 50.7624 80.6619 50.8177 80.7004C51.7281 82.8395 51.9613 84.7704 50.4231 86.5437C50.5406 85.5781 50.445 84.5812 50.3622 83.6402C50.2667 82.5553 50.2836 80.1287 49.5974 79.2739C49.202 78.7814 48.1509 79.9295 48.077 79.985C45.7699 81.7095 42.9529 83.0346 40.1759 82.6947C42.5485 80.7063 46.1445 77.4243 48.8971 78.457C49.0204 78.5028 49.1203 78.3118 49.0106 78.2388C48.714 78.042 48.402 77.9085 48.0786 77.8273C48.0969 77.7406 48.0699 77.6481 47.9743 77.6215C45.8857 77.0508 43.9027 76.1552 41.8646 75.4328Z" fill="#F6F6F6"/>
<path d="M68.6945 133.429C64.0155 135.681 57.1854 136.39 49.5396 135.372L49.5407 135.372C57.1794 136.39 64.0055 135.686 68.6855 133.441L68.6867 133.437C68.6874 133.439 68.69 133.435 68.6945 133.429Z" fill="#D6D3C2"/>
<path d="M66.0109 87.4756L65.3106 89.3769C66.0202 90.2305 66.9326 90.9 68.0806 91.4145C67.324 90.1616 66.7809 88.7105 66.0109 87.4756ZM70.223 85.695C69.0389 85.8086 67.8596 85.7697 66.6388 85.7711L66.3417 86.5775C67.4156 88.2289 67.8805 90.3316 69.1638 91.8806C69.3368 92.0895 69.1087 92.4938 68.8463 92.4036C68.8364 92.4002 68.8255 92.3965 68.8154 92.3906C67.4046 91.6992 66.1325 91.0342 65.0733 90.0212L60.7957 101.635C61.0187 101.726 61.2435 101.809 61.4703 101.887C63.8921 102.719 66.5495 102.849 69.4298 101.885C72.353 100.909 75.2111 98.6578 75.6933 95.2984C76.0134 93.0635 75.9346 90.6156 74.5963 88.8128C73.398 87.1993 71.9293 86.5651 70.223 85.695ZM71.152 84.9718C69.8274 84.8248 68.5474 84.3871 67.2226 84.1831L66.8274 85.2559C68.2648 85.3421 69.7307 85.2779 71.152 84.9718ZM77.896 72.7949C77.5481 73.0975 77.1998 73.4344 76.9428 73.8051C76.5502 74.3712 76.2329 75.0449 76.7508 75.574C76.8135 75.6371 76.8679 75.6771 76.9243 75.6965C77.0134 75.7272 77.1057 75.7067 77.2318 75.6492C77.8235 75.3782 78.6791 74.4637 78.6167 73.7366C78.5696 73.1771 78.2828 73.1805 77.896 72.7949ZM76.1875 77.7514C76.0182 77.6932 75.8503 77.613 75.6827 77.5079C74.2398 76.6038 74.077 74.6987 74.985 73.1997C75.427 72.4691 76.2225 71.5055 77.0833 71.3401C77.3463 71.2893 77.7256 71.2347 78.0594 71.2795C78.108 71.2594 78.1525 71.2356 78.2095 71.2231C78.5018 71.1564 78.7734 71.1762 79.0199 71.261C79.917 71.5694 80.4691 72.7354 80.4353 73.6904C80.3609 75.7607 78.2717 78.4679 76.1875 77.7514ZM93.6405 57.9727C90.1332 59.3752 84.5618 60.4855 76.4384 59.1659L73.2241 67.8926C73.2353 67.9106 73.2465 67.9287 73.2563 67.9475C73.54 68.4673 73.273 69.4133 73.1527 70.0184C73.1249 70.1607 73.0927 70.3026 73.0624 70.4452C73.1428 70.4693 73.2214 70.4952 73.2996 70.522C73.5541 70.6095 73.7941 70.7122 74.0098 70.835C74.3823 71.0472 74.472 71.5941 74.3346 71.9975C74.28 72.1579 74.1705 72.3432 74.0303 72.4421C73.7077 72.6728 73.3886 72.7517 73.0639 72.64C72.9896 72.6145 72.9145 72.5792 72.8399 72.5334C72.7816 72.4979 72.7117 72.4727 72.6449 72.445C72.6325 72.5059 72.6191 72.5666 72.6067 72.6276C72.5339 73.0189 72.4241 73.5955 72.3587 74.0759C72.4771 74.0514 72.5898 74.0605 72.6927 74.0959C72.9828 74.1956 73.1847 74.5046 73.1564 74.8448C73.0649 75.9354 72.0286 76.9953 71.0107 76.6454C70.9266 76.6165 70.8435 76.5784 70.76 76.5296C70.5236 76.3902 70.3643 76.1836 70.2607 75.938L67.4492 83.5707C69.4609 83.8057 71.3814 84.7304 73.5401 84.1999C73.5955 84.1857 73.6457 84.1888 73.6893 84.2037C73.9061 84.2783 73.9652 84.6509 73.7047 84.7736C73.2552 84.9856 72.813 85.1503 72.3742 85.2817C72.5291 85.3183 72.6814 85.3624 72.8319 85.4141C75.7973 86.4336 77.8958 90.3789 77.8449 93.4334C77.7769 97.5128 75.7653 101.242 71.993 102.973C68.4032 104.621 64.1007 104.939 60.4908 103.698C60.3561 103.652 60.2212 103.603 60.0875 103.551L55.6715 115.54C63.3433 116.387 69.4046 114.867 73.2291 113.382L93.6385 57.972" fill="#CE6151"/>
<path d="M72.7253 67.771L69.7526 75.8243C69.8566 76.0701 70.0165 76.277 70.2538 76.4166C70.3366 76.4652 70.4209 76.5037 70.5054 76.5326C71.5258 76.8828 72.5656 75.8218 72.6584 74.7303C72.6871 74.3887 72.4841 74.0804 72.193 73.9805C72.0897 73.945 71.9766 73.9359 71.8578 73.9604C71.9238 73.4784 72.034 72.9011 72.1065 72.5104C72.118 72.449 72.1324 72.3886 72.1449 72.3276C72.2119 72.3553 72.2834 72.3799 72.3406 72.4162C72.4154 72.462 72.4908 72.4974 72.5653 72.523C72.8912 72.6348 73.2128 72.5552 73.5351 72.325C73.6751 72.2246 73.7851 72.0391 73.8404 71.88C73.9793 71.4764 73.8882 70.9286 73.5145 70.716C73.2979 70.593 73.0571 70.4902 72.8018 70.4025C72.7233 70.3756 72.6444 70.3497 72.5637 70.3256C72.594 70.1828 72.6264 70.0407 72.6543 69.8983C72.7739 69.2922 73.0424 68.3465 72.758 67.8249C72.7478 67.8072 72.7366 67.7891 72.7253 67.771Z" fill="#F6F6F6"/>
<path d="M76.6716 75.7557C76.6137 75.736 76.5579 75.6954 76.4937 75.6313C75.9615 75.0938 76.2883 74.4107 76.6912 73.8365C76.955 73.4605 77.3125 73.1188 77.6696 72.8119C78.0662 73.2033 78.3605 73.2 78.4086 73.7677C78.4723 74.5056 77.5943 75.4332 76.9871 75.7079C76.8578 75.7662 76.7641 75.7872 76.6716 75.7557ZM78.8235 71.2548C78.5716 71.1691 78.293 71.1488 77.9921 71.2161C77.9332 71.2297 77.8886 71.2542 77.8381 71.2731C77.4956 71.2276 77.1065 71.2828 76.8367 71.3342C75.9535 71.5017 75.1366 72.4802 74.6833 73.2202C73.7498 74.7416 73.9176 76.6741 75.3975 77.5921C75.5695 77.6988 75.7417 77.7803 75.9154 77.8395C78.0534 78.5675 80.1974 75.8224 80.2751 73.7196C80.3108 72.7519 79.7437 71.5682 78.8235 71.2548Z" fill="#F6F6F6"/>
<path d="M66.3211 86.3849L65.9836 87.2911C66.7701 88.5397 67.3236 90.0073 68.0953 91.2712C66.9237 90.7509 65.9936 90.0743 65.2685 89.2111L65.0257 89.8632C66.1066 90.8872 67.4044 91.5608 68.8447 92.259C68.8554 92.2638 68.8661 92.2687 68.8762 92.2721C69.144 92.3634 69.377 91.9549 69.2005 91.7438C67.8896 90.1786 67.4167 88.054 66.3211 86.3849ZM73.8217 83.9891C73.7762 83.9736 73.726 83.9709 73.6695 83.9852C71.4658 84.5204 69.5058 83.5852 67.4524 83.3469L67.2223 83.965C68.5745 84.1716 69.8805 84.6155 71.2329 84.7635C69.7822 85.0723 68.2858 85.1365 66.8186 85.0489L66.6245 85.5701C67.8707 85.5692 69.0744 85.609 70.2831 85.4947C72.025 86.3735 73.5245 87.0164 74.7467 88.6484C76.1112 90.4703 76.192 92.9444 75.8646 95.2026C75.3714 98.5971 72.4537 100.869 69.4692 101.856C66.5289 102.829 63.8164 102.697 61.3446 101.854C61.1132 101.775 60.8832 101.69 60.6561 101.599L59.9343 103.537C60.0702 103.588 60.2075 103.639 60.3459 103.686C64.0304 104.942 68.4221 104.622 72.0869 102.958C75.9368 101.21 77.9913 97.4425 78.063 93.3207C78.1158 90.2341 75.975 86.2464 72.9484 85.215C72.7948 85.1627 72.6394 85.1181 72.4813 85.081C72.9296 84.9473 73.3806 84.7822 73.8395 84.5682C74.1032 84.4411 74.043 84.0645 73.8217 83.9891Z" fill="#F6F6F6"/>
<path d="M60.6189 55.6554C60.5643 55.6852 60.5118 55.7216 60.4622 55.7649C60.338 55.8715 60.2616 56.0608 60.2943 56.2213C60.306 56.2775 60.3261 56.3294 60.3534 56.3767L60.6189 55.6554Z" fill="#A29F8A"/>
<path d="M16.1677 118.759C19.0166 121.959 23.0096 125.034 27.8292 127.657C23.0086 125.034 19.017 121.958 16.1677 118.759Z" fill="#9B9987"/>
<path d="M16.1682 118.754L16.168 118.758C19.0169 121.958 23.0099 125.033 27.8304 127.657C23.0078 125.033 19.0163 121.957 16.1682 118.754Z" fill="#757255"/>
<path d="M47.6827 57.9986C45.4961 57.4771 44.4629 55.8633 43.1208 54.2272C42.7817 53.814 42.0776 54.0616 42.0202 54.6231C41.9095 55.7043 42.3004 56.6983 42.9474 57.5442C42.9156 57.5898 42.8854 57.6371 42.8595 57.6883C42.396 58.6073 42.074 59.6094 41.6827 60.5614C41.265 61.5753 40.7171 62.6505 40.4518 63.7115C40.0875 65.1733 41.8333 65.7536 42.5241 64.4173C43.0346 63.4303 43.3852 62.3119 43.7894 61.279C44.0672 60.5704 44.3871 59.8282 44.6037 59.0784C45.343 59.5788 46.1468 59.9486 46.882 60.1474C48.2301 60.5117 49.0319 58.3201 47.6827 57.9986Z" fill="#F6F6F6"/>
<path d="M51.8354 64.7752C51.8891 63.964 51.6267 63.1887 51.1018 62.6193C50.483 61.9481 49.0931 61.1493 48.187 61.7559C48.0053 61.8773 47.8756 62.0223 47.7948 62.1805C46.418 62.6967 45.1748 64.1951 45.1221 65.554C45.0399 67.7058 47.2314 69.2573 49.1767 68.4681C50.6057 67.8889 51.7325 66.3243 51.8354 64.7752ZM48.7805 66.2897C48.4908 66.4732 48.2031 66.5344 48.0917 66.5073C47.8145 66.4419 47.2107 65.9397 47.216 65.458C47.2239 64.7663 47.9745 64.1984 48.6871 63.6743C49.2029 63.8776 49.739 64.0264 49.8068 64.6993C49.8586 65.2125 49.245 65.997 48.7805 66.2897Z" fill="#F6F6F6"/>
<path d="M78.9205 25.7854L53.9456 18.648L45.952 25.066L40.5207 39.6768C42.2822 43.1039 46.0672 47.9046 54.1935 52.2941L58.185 41.5568C85.9949 49.5697 94.7167 44.0267 94.7167 44.0267L78.9205 25.7854Z" fill="#897D52"/>
<path d="M26.6183 127.064C26.623 127.067 26.6267 127.07 26.6319 127.071C26.6277 127.07 26.622 127.067 26.6183 127.064ZM26.5826 127.045C26.5905 127.049 26.5989 127.054 26.6067 127.058C26.5973 127.052 26.5905 127.049 26.5826 127.045ZM17.2556 120.112C19.4327 122.284 22.1419 124.376 25.2766 126.278C22.1419 124.376 19.4323 122.285 17.2556 120.112ZM17.2403 120.097C17.2446 120.101 17.2496 120.107 17.2539 120.111C17.2485 120.106 17.2442 120.102 17.2403 120.097ZM17.225 120.082C17.2273 120.086 17.2306 120.089 17.2333 120.091C17.231 120.088 17.2283 120.086 17.225 120.082ZM12.9037 114.425L12.9033 114.433C13.6969 115.921 14.7692 117.414 16.0861 118.881L16.0863 118.878C18.698 121.788 22.2757 124.593 26.5783 127.041C20.1062 123.359 15.2694 118.865 12.9037 114.425ZM16.4479 114.545C18.7496 117.887 22.7221 121.417 28.1068 124.47C22.7231 121.417 18.7496 117.887 16.4479 114.545ZM16.4365 114.528C16.4394 114.533 16.4434 114.538 16.4463 114.543C16.4423 114.538 16.4394 114.533 16.4365 114.528ZM16.4245 114.511C16.4268 114.514 16.4284 114.516 16.4307 114.519C16.428 114.517 16.4268 114.514 16.4245 114.511ZM16.4131 114.495C16.4131 114.495 16.4137 114.496 16.4148 114.497C16.4142 114.495 16.4131 114.495 16.4131 114.495ZM14.9965 112.001L15.011 112.018C15.011 112.018 15.0103 112.017 15.0093 112.017L14.9965 112.001Z" fill="#9B9987"/>
<path d="M21.0635 94.0659L14.5157 111.645C14.6202 111.89 14.74 112.125 14.8773 112.347L14.8899 112.362C14.8899 112.362 14.8905 112.364 14.8916 112.364C15.2443 113.154 15.7054 113.966 16.2711 114.791C16.2721 114.791 16.2721 114.791 16.2727 114.793C16.2766 114.798 16.2794 114.802 16.2829 114.808C16.2845 114.81 16.2864 114.814 16.289 114.816C16.2913 114.82 16.2925 114.822 16.2951 114.825C16.298 114.829 16.3008 114.834 16.3047 114.839C16.3053 114.84 16.3063 114.84 16.3069 114.842C18.5707 118.12 22.4782 121.58 27.7736 124.575C27.7757 124.576 27.7771 124.575 27.7771 124.575L34.3855 106.833C27.4532 102.466 23.2599 97.3472 21.0635 94.0659Z" fill="#897D52"/>
<path d="M14.6239 111.294C12.2985 111.931 12.8996 114.432 12.8996 114.432L12.8992 114.433C15.2644 118.871 20.099 123.362 26.5703 127.044C26.5723 127.045 26.5734 127.045 26.575 127.047C26.5839 127.051 26.5903 127.056 26.5991 127.06C26.6032 127.062 26.608 127.064 26.6117 127.067C26.6154 127.069 26.6211 127.073 26.6252 127.074C26.8703 127.213 27.1177 127.351 27.3681 127.488C27.3297 127.448 26.2864 126.368 26.6354 125.428C26.98 124.501 28.0356 124.475 28.1008 124.474C22.7174 121.422 18.7458 117.894 16.4447 114.553C16.444 114.551 16.443 114.551 16.4424 114.549C16.4395 114.545 16.4356 114.54 16.4327 114.535C16.4304 114.532 16.4291 114.529 16.4265 114.527C16.4242 114.524 16.4225 114.522 16.4202 114.519C16.4167 114.513 16.4138 114.508 16.4099 114.503C16.4099 114.503 16.4093 114.501 16.4082 114.501C15.8332 113.66 15.3646 112.833 15.006 112.027L14.9915 112.01C14.8515 111.785 14.7287 111.545 14.6239 111.294Z" fill="#90845D"/>
<path d="M16.166 118.759C16.5298 119.167 16.9119 119.573 17.3124 119.976C17.3157 119.98 17.318 119.983 17.3207 119.986C17.3224 119.987 17.3251 119.99 17.3263 119.992C17.3307 119.996 17.335 120 17.34 120.006C17.3411 120.006 17.3421 120.007 17.3427 120.008C19.5334 122.211 22.2594 124.334 25.4135 126.263C25.4156 126.264 25.4183 126.266 25.421 126.268C25.4257 126.271 25.4305 126.274 25.4353 126.277C26.1127 126.692 26.8091 127.095 27.525 127.491C23.2628 125.139 19.6637 122.433 16.9485 119.607C16.6799 119.323 16.4179 119.04 16.166 118.759Z" fill="#7A786A"/>
<path d="M16.1665 118.754L16.1663 118.758C16.4188 119.041 16.6798 119.323 16.9496 119.604C19.6648 122.43 23.264 125.136 27.5261 127.488C27.5261 127.488 27.5261 127.488 27.5251 127.488C27.2731 127.349 27.0251 127.209 26.7775 127.067C26.7723 127.066 26.7686 127.063 26.7638 127.06C26.7601 127.058 26.7553 127.055 26.7512 127.053C26.7433 127.05 26.7348 127.044 26.7269 127.04C26.7249 127.039 26.7238 127.039 26.7222 127.037C22.3939 124.555 18.7944 121.707 16.1665 118.754Z" fill="#5D5B43"/>
<path d="M44.1466 78.8066C42.4757 79.7193 40.8258 81.1933 39.5451 82.2744C40.7073 82.4174 41.8769 82.2557 43.0103 81.8892L44.1466 78.8066ZM43.4915 76.9725C40.2951 76.9588 36.7771 78.4625 34.9828 81.3796C32.7147 85.0666 33.792 89.0332 36.2465 92.0231C36.9091 92.831 37.6595 93.5611 38.4797 94.1835L42.632 82.9186C41.2447 83.3164 39.8101 83.3943 38.3658 82.9834C38.3599 82.9814 38.3539 82.9794 38.349 82.9777C38.0616 82.8789 37.9859 82.4115 38.2537 82.2092C39.775 81.06 42.1829 78.8082 44.4908 77.8759L44.6495 77.4451C44.2614 77.3106 43.8758 77.1449 43.4915 76.9725ZM44.8084 74.824C43.5853 74.4037 42.3028 74.4294 41.1718 75.2286C42.4354 75.6782 43.6774 76.1987 44.9382 76.6591L45.5077 75.1141C45.2773 75.0029 45.0442 74.905 44.8084 74.824ZM48.4511 63.3722C47.7568 63.8894 47.0258 64.4487 47.0187 65.1285C47.0137 65.5813 47.5501 66.0527 47.8336 66.1501C47.8475 66.1549 47.8598 66.1579 47.872 66.161C47.982 66.1869 48.2622 66.1265 48.5429 65.9465C48.7095 65.84 48.8971 65.6672 49.064 65.4658L49.5186 64.2326C49.3931 63.6946 48.9137 63.556 48.4511 63.3722ZM41.2435 64.8885C40.7786 64.7288 40.4417 64.225 40.6196 63.503C40.8779 62.4538 41.4144 61.3922 41.8233 60.3889C42.2066 59.4491 42.5205 58.4582 42.9741 57.5485C42.9995 57.4979 43.03 57.4514 43.0602 57.406C42.4269 56.5702 42.0441 55.5879 42.1522 54.5192C42.1968 54.0801 42.6367 53.8349 42.9836 53.9541C43.0748 53.9854 43.16 54.042 43.2291 54.1274C44.4398 55.6173 45.3937 57.0889 47.2105 57.7131C47.3651 57.7662 47.5264 57.8133 47.6938 57.853C47.7296 57.8618 47.7637 57.8723 47.7964 57.8836C48.9709 58.2871 48.1931 60.3277 46.9108 59.9773C46.7861 59.9428 46.6587 59.9038 46.5298 59.8595C45.9193 59.6497 45.2789 59.33 44.6812 58.9218C44.4694 59.663 44.1565 60.3967 43.8849 61.0972C43.4896 62.1183 43.1468 63.2239 42.6475 64.1998C42.3092 64.8631 41.7113 65.0492 41.2435 64.8885ZM41.1772 38.8086L20.6355 94.537C22.7891 97.783 26.9012 102.847 33.6937 107.165L37.9054 95.7387C36.6515 94.8961 35.5471 93.8237 34.6692 92.5609C32.2194 89.034 31.1162 84.0594 34.3846 80.2272C36.5722 77.6612 39.3498 76.3243 42.2789 76.4301C42.0318 76.325 41.7843 76.2269 41.5375 76.1421C41.1123 75.996 40.6881 75.8894 40.2625 75.8536C40.2214 75.8501 40.1831 75.8417 40.1484 75.8298C39.8481 75.7266 39.8062 75.3313 40.0417 75.0741C41.3059 73.6894 43.1784 73.3871 44.8147 73.922C44.8534 73.9353 44.8915 73.9472 44.9301 73.9605C45.2314 74.064 45.5202 74.1834 45.7994 74.3197L48.0207 68.2933C47.6651 68.3099 47.3139 68.2569 46.9838 68.1435C45.8252 67.7454 44.9254 66.6116 44.9781 65.2236C45.0289 63.886 46.2398 62.4095 47.5805 61.9018C47.6581 61.7458 47.7854 61.6033 47.9624 61.4837C48.3734 61.2049 48.8857 61.2266 49.3783 61.3959C49.7332 61.5178 50.0784 61.7171 50.3649 61.9366L54.3716 51.0666C46.5308 46.8028 42.8763 42.1393 41.1772 38.8086Z" fill="#941416"/>
<path d="M42.869 54.0517C42.5145 53.9309 42.0649 54.1788 42.0192 54.623C41.9085 55.7042 42.2994 56.6982 42.9464 57.5441C42.9146 57.5897 42.8844 57.637 42.8585 57.6882C42.395 58.6073 42.073 59.6093 41.6817 60.5613C41.264 61.5752 40.7161 62.6504 40.4508 63.7114C40.2692 64.4407 40.612 64.9512 41.0881 65.1134C41.5661 65.2762 42.1772 65.0882 42.5231 64.4172C43.0336 63.4302 43.3842 62.3118 43.7884 61.2789C44.0662 60.5704 44.3861 59.8282 44.6027 59.0783C45.2135 59.4917 45.8678 59.8154 46.4917 60.0279C46.6234 60.0728 46.7526 60.112 46.881 60.1473C48.1918 60.5014 48.9868 58.4383 47.7866 58.0294C47.7532 58.0181 47.7179 58.0085 47.6817 57.9985C47.5096 57.9579 47.3458 57.9105 47.1878 57.8567C45.3313 57.2243 44.3568 55.735 43.1198 54.2271C43.0503 54.141 42.9632 54.0838 42.869 54.0517Z" fill="#C0C0BF"/>
<path d="M49.5944 61.66C49.0939 61.4894 48.5723 61.4672 48.1529 61.7481C47.9727 61.8687 47.844 62.0128 47.7639 62.1699C46.3986 62.6826 45.1658 64.171 45.1137 65.5206C45.0601 66.92 45.9754 68.0654 47.1548 68.4675C47.4908 68.5821 47.8479 68.6368 48.2104 68.619L49.2727 65.7651C49.1027 65.9681 48.9116 66.1425 48.742 66.2499C48.4548 66.4321 48.1695 66.4929 48.059 66.466C48.0465 66.463 48.034 66.4599 48.0199 66.4551C47.7313 66.3567 47.1863 65.8812 47.1905 65.424C47.1984 64.737 47.9427 64.1729 48.6493 63.6523C49.1202 63.838 49.6092 63.9783 49.7354 64.5219L50.598 62.2045C50.307 61.9843 49.9566 61.7835 49.5944 61.66Z" fill="#C0C0BF"/>
<path d="M44.877 77.8923C42.5445 78.8284 40.1107 81.09 38.5731 82.2441C38.3021 82.4484 38.3789 82.9169 38.6693 83.0162C38.6753 83.0182 38.6803 83.0199 38.6863 83.022C40.1459 83.435 41.5957 83.3572 42.9978 82.9578L43.3812 81.9242C42.2362 82.291 41.0541 82.4532 39.8792 82.3103C41.1733 81.2255 42.8414 79.744 44.5301 78.8275L44.877 77.8923ZM45.3237 73.9595C45.2847 73.9462 45.2466 73.9332 45.2071 73.9209C43.5535 73.3831 41.6608 73.6874 40.3834 75.0771C40.1453 75.3355 40.1886 75.733 40.4911 75.8364C40.5261 75.8483 40.5637 75.8565 40.6063 75.8603C41.0355 75.8961 41.4651 76.0036 41.8948 76.1505C42.1442 76.2357 42.3943 76.3343 42.644 76.4399C39.6842 76.3319 36.8766 77.6754 34.6654 80.2528C31.3617 84.1019 32.4757 89.0998 34.9509 92.6436C35.8379 93.9124 36.9538 94.99 38.2208 95.8368L38.8009 94.2731C37.9721 93.6476 37.2138 92.914 36.5444 92.1022C34.0644 89.098 32.9764 85.1127 35.2691 81.4092C37.083 78.4791 40.6385 76.9692 43.8688 76.9838C44.2581 77.1574 44.6467 77.3236 45.0376 77.4596L45.3304 76.6703C44.0568 76.2064 42.8023 75.6846 41.5244 75.2323C42.6665 74.4293 43.9636 74.4042 45.1995 74.8267C45.4379 74.9081 45.6734 75.0065 45.9062 75.1183L46.2017 74.3216C45.92 74.1836 45.6282 74.0636 45.3237 73.9595Z" fill="#C0C0BF"/>
<path d="M73.2909 113.315C69.4928 114.797 63.4725 116.314 55.852 115.472L49.5421 132.688C57.2917 133.795 63.7411 132.866 67.5099 130.678C67.3676 130.594 67.2017 130.518 67.0109 130.452L73.2919 113.315M97.6618 46.8221C97.6618 46.8221 90.0633 51.1401 80.6245 47.8835L76.47 59.2184C84.5387 60.5336 90.0734 59.425 93.5558 58.0247L97.6618 46.8221Z" fill="#C6B890"/>
<path d="M68.2245 114.802C66.5328 115.174 64.6419 115.457 62.5719 115.576L56.2628 133.011C58.2682 133.008 60.1269 132.846 61.8033 132.547L68.2245 114.802ZM92.1003 48.8205C90.5201 49.1464 88.647 49.3536 86.5726 49.2491L82.7045 59.9389C84.7709 59.9687 86.6035 59.8192 88.2151 59.5573L92.1003 48.8205Z" fill="#E3DBC5"/>
<path d="M56.2736 132.694L56.3334 132.689C54.2317 132.694 51.9822 132.542 49.6114 132.206L49.5989 132.24C49.5989 132.24 51.4248 133.453 49.5227 135.176C49.5227 135.176 49.5237 135.176 49.5244 135.177C51.6292 135.457 53.6687 135.6 55.6218 135.621C57.1686 134.135 56.2736 132.694 56.2736 132.694Z" fill="#CCBF9B"/>
<path d="M68.4083 130.596C66.7752 131.528 64.6538 132.232 62.1567 132.659L62.2147 132.654C63.8983 133.236 63.9083 134.427 63.6279 135.318C65.4811 134.926 67.1645 134.378 68.6323 133.677C68.7384 133.522 70.0614 131.557 68.4083 130.596Z" fill="#CCBF9B"/>
<path d="M56.3239 132.925C58.4151 132.921 60.3554 132.759 62.1112 132.457L56.3239 132.925Z" fill="#E3DBC5"/>
<path d="M62.207 132.433L62.1487 132.437C60.404 132.736 58.475 132.897 56.3949 132.901L56.3351 132.906C56.3351 132.906 57.229 134.344 55.6838 135.828C58.5555 135.859 61.2342 135.619 63.6258 135.113C63.9078 134.216 63.8978 133.018 62.207 132.433Z" fill="#E3DBC5"/>
<path d="M81.1804 10.6505C77.5419 9.40476 73.9333 8.52651 70.4743 7.9929C70.5093 8.03312 71.6516 9.36705 69.4751 10.8476C69.4751 10.8476 69.4751 10.8476 69.4747 10.8487C72.8348 11.3423 76.4223 12.1961 80.137 13.4679C96.9015 19.2075 106.08 29.9625 103.832 36.0248C101.585 42.0871 87.3971 44.8435 70.6327 39.1038C53.8692 33.3645 44.6908 22.6096 46.9388 16.5462C47.5519 14.8925 49.0581 13.4882 51.2573 12.4316L51.2579 12.4269C51.2579 12.4269 52.8345 10.5262 50.5426 9.58435C47.4607 10.9771 45.2496 13.0081 44.2763 15.6334C41.0752 24.2677 52.4088 36.0355 69.5895 41.9176C86.7711 47.8001 103.293 45.5693 106.495 36.935C109.695 28.3004 98.361 16.5326 81.1804 10.6505Z" fill="#B9A977"/>
<path d="M96.1249 41.4772L96.1239 41.4768C93.2511 42.1495 89.7753 42.4143 85.8886 42.1644C89.7778 42.4139 93.2521 42.1499 96.1249 41.4772Z" fill="#A9A79A"/>
<path d="M103.851 36.3474C106.108 30.2176 96.8896 19.3444 80.0526 13.5429C67.2816 9.14251 56.0059 9.68604 50.3167 12.8806C56.2426 10.104 67.0295 9.82397 79.1622 14.0045C95.9981 19.8055 105.217 30.6787 102.96 36.8085C102.415 38.2889 101.165 39.5712 99.3541 40.5882C101.652 39.5108 103.221 38.0602 103.851 36.3474Z" fill="#857A59"/>
<path d="M79.2607 13.8616C67.1636 9.71309 56.4081 9.98997 50.4994 12.7442C48.6943 13.7519 47.4477 15.0251 46.9042 16.4938C44.6536 22.5751 53.8444 33.3645 70.631 39.1212C82.7282 43.2698 93.4827 42.9925 99.3914 40.2383C101.197 39.2295 102.443 37.9574 102.987 36.4887C105.238 30.4063 96.0474 19.6184 79.2607 13.8616Z" fill="#AD9C64"/>
<path d="M48.2367 22.7055C46.3526 22.2648 45.8498 23.7125 45.7236 24.3055C49.0278 30.0402 56.3401 35.8063 65.8999 39.769C65.7934 39.5192 65.6296 38.9932 65.744 38.2876C65.9017 37.317 67.0015 37.0039 67.0635 36.987C57.6287 33.0795 51.0701 27.6028 48.2367 22.7055Z" fill="#A59357"/>
<path d="M98.4251 41.2586C97.9485 41.0958 97.41 41.1525 97.41 41.1525L97.4069 41.1514C94.3295 42.0553 90.4186 42.445 85.9642 42.1607C85.999 42.1762 86.6876 42.5005 86.2858 43.787C85.8739 45.1067 84.8941 45.0395 84.8941 45.0395C90.1455 45.4532 94.9003 45.0135 98.6851 43.7858L98.7052 43.7316C98.7052 43.7316 99.3108 42.9775 99.1224 41.9864C99.0459 41.5817 98.7508 41.3698 98.4251 41.2586Z" fill="#C7B98F"/>
<path d="M78.9499 16.6702C65.4548 12.0398 52.7817 12.9721 50.6436 18.7529C48.5054 24.5338 57.7122 32.9734 71.2073 37.6038C84.7024 42.2342 97.3755 41.302 99.5136 35.5211C101.651 29.7414 92.445 21.3006 78.9499 16.6702ZM71.73 36.1906C58.1162 31.5195 50.393 23.4927 51.9769 19.2104C53.5604 14.9292 64.813 13.4134 78.4268 18.0845C92.0406 22.7557 99.7628 30.7821 98.1793 35.0633C96.5954 39.3456 85.3438 40.8617 71.73 36.1906Z" fill="#B9A977"/>
<path d="M78.4299 18.0637C64.804 13.3823 53.5414 14.9018 51.9565 19.1928C50.3713 23.4849 58.1014 31.5297 71.7273 36.2111C85.3533 40.8926 96.6149 39.3727 98.2001 35.0806C99.785 30.7896 92.0558 22.7452 78.4299 18.0637Z" fill="#AD9C64"/>
<path d="M72.2477 34.8164C59.1362 30.304 52.1415 22.6882 53.2687 19.6307C54.3954 16.5742 64.798 14.9459 77.9095 19.4583C91.02 23.9704 98.0147 31.5862 96.8879 34.6427C95.7607 37.7002 85.3582 39.3286 72.2477 34.8164Z" fill="#B9A977"/>
<path d="M72.7692 33.4179C59.5416 28.8549 54.0062 21.6297 54.5812 20.0661C55.1562 18.5025 64.1609 16.293 77.3885 20.856C90.616 25.419 96.1514 32.6442 95.5764 34.2078C95.0004 35.7711 85.9967 37.9808 72.7692 33.4179Z" fill="#AD9C64"/>
<path d="M87.6081 43.3481C87.6081 43.3481 94.6346 43.8051 97.9084 42.4318C97.9084 42.4318 98.3022 42.5358 98.0461 43.1473C97.7901 43.7589 90.7238 44.7268 87.1559 44.5659C87.1559 44.5659 87.6545 44.1536 87.6081 43.3481Z" fill="#E3DBC5"/>
<path d="M50.7418 12.441L50.7412 12.4457C54.8145 10.492 61.2802 9.74124 68.9389 10.8661C68.9389 10.8661 68.9389 10.8661 68.9393 10.865C71.1136 9.38762 69.9725 8.05649 69.9375 8.01636C62.0385 6.79831 54.9261 7.39164 50.0262 9.6041C52.3178 10.5447 50.7418 12.441 50.7418 12.441Z" fill="#D6CAA9"/>
<path d="M52.0928 10.1679C52.0928 10.1679 64.6043 7.27602 75.216 10.3435C85.8276 13.411 78.4367 10.6425 76.846 10.0932C75.2553 9.54401 64.393 7.06982 52.0061 9.50174C52.0057 9.50285 52.2943 9.85774 52.0928 10.1679Z" fill="#E3DBC5"/>
<path d="M39.1177 130.873C39.1177 130.873 52.8511 135.876 65.1301 132.733C65.1301 132.733 65.8972 132.874 65.064 133.852C64.2309 134.83 53.3594 136.96 38.7545 131.861C38.7549 131.86 37.9339 131.646 39.1177 130.873Z" fill="#E3DBC5"/>
</svg>
