<svg width="191" height="119" viewBox="0 0 191 119" fill="none" xmlns="http://www.w3.org/2000/svg">
<path d="M76.6934 29.7536V24.9185H71.4417V29.8804C71.4417 30.2788 71.6952 30.6591 72.2203 30.9489C73.2526 31.5465 74.9186 31.5465 75.9328 30.9489C76.5123 30.6229 76.7477 30.1883 76.6934 29.7536Z" fill="url(#paint0_linear_0_4850)"/>
<path d="M79.6089 21.5322H68.5078V27.1824H68.5441C68.5441 27.9973 69.0873 28.8122 70.1739 29.446C72.347 30.6956 75.824 30.6956 77.9791 29.446C79.0656 28.8303 79.5908 27.9973 79.5908 27.1824V21.5322H79.6089Z" fill="url(#paint1_linear_0_4850)"/>
<path d="M79.1742 20.1374L78.5223 20.5358C78.2869 20.3004 78.0333 20.0831 77.6892 19.8839C75.6791 18.7249 72.4375 18.7249 70.4455 19.8839C70.1014 20.0831 69.8479 20.3004 69.6306 20.5358L69.1416 19.7571L68.5259 21.5499C68.6164 22.2381 69.3227 23.5058 70.4817 24.0853C72.5643 25.1356 75.7335 25.2443 77.7255 24.0853C78.7396 23.5058 79.627 22.3105 79.627 21.5499L79.1742 20.1374Z" fill="url(#paint2_linear_0_4850)"/>
<path d="M77.6894 18.4171C75.6793 17.2581 72.4377 17.2581 70.4276 18.4171C68.4174 19.5761 68.4355 21.4594 70.4456 22.6184C72.4558 23.7774 75.6974 23.7774 77.6894 22.6184C79.7177 21.4594 79.7177 19.5942 77.6894 18.4171Z" fill="#31BCFE"/>
<path d="M76.6934 20.4637V15.6284H71.4417V20.5904C71.4417 20.9707 71.6952 21.3691 72.2203 21.6588C73.2526 22.2564 74.9186 22.2564 75.9328 21.6588C76.5123 21.3329 76.7477 20.8983 76.6934 20.4637Z" fill="url(#paint3_linear_0_4850)"/>
<path d="M75.9328 14.4331C74.9006 13.8355 73.2345 13.8355 72.2204 14.4331C71.1882 15.0307 71.1882 15.9905 72.2385 16.5881C73.2708 17.1857 74.9368 17.1857 75.9509 16.5881C76.9651 15.9905 76.9651 15.0307 75.9328 14.4331Z" fill="#199CE8"/>
<path d="M75.5524 14.0347C74.7013 13.5457 73.3612 13.5457 72.51 14.0347C71.677 14.5236 71.677 15.3023 72.51 15.7913C73.3612 16.2803 74.7013 16.2803 75.5524 15.7913C76.4035 15.3205 76.3854 14.5236 75.5524 14.0347Z" fill="#003F67"/>
<path d="M75.0635 14.6866C74.8824 14.433 74.5021 14.27 74.0312 14.27C73.5785 14.27 73.1801 14.4511 73.0171 14.6866H72.9084V14.9763C72.9084 15.3747 73.4155 15.7007 74.0312 15.7007C74.6469 15.7007 75.154 15.3747 75.154 14.9763V14.6866H75.0635Z" fill="#003F67"/>
<path d="M82.6515 10.2861L93.8974 0.0180664C91.7424 0.0723947 90.511 0.362138 90.2393 0.887311L77.8706 8.89167L80.3878 10.0144L82.6515 10.2861Z" fill="#3F4966"/>
<path d="M82.923 10.9743L94.2595 0.778719L94.1508 0H93.8973L82.6514 10.2861L82.923 10.9743Z" fill="#3A414E"/>
<path d="M82.1263 10.9742L80.3878 10.0144L77.8706 8.89165L76.0415 8.25781L75.0999 9.07276L81.1846 11.6805L82.1263 10.9742Z" fill="#4A5673"/>
<path d="M82.1262 10.9743V11.5719L82.923 10.9743L82.6514 10.2861L82.1262 10.9743Z" fill="#3A414E"/>
<path d="M77.4179 11.8435L77.3635 12.8938L81.1846 11.6805L75.0999 9.07275L74.2849 11.771L76.6572 11.2278L77.4179 11.8435Z" fill="#4A5673"/>
<path d="M77.3635 12.894V13.1475L77.5265 13.4192L81.257 12.2783L81.1846 11.6807L77.3635 12.894Z" fill="#3A414E"/>
<path d="M80.3877 10.0146L82.1262 10.9744L82.6514 10.2863L80.3877 10.0146Z" fill="#535F7B"/>
<path d="M81.1846 11.6804L81.257 12.278L82.1263 11.5718V10.9741L81.1846 11.6804Z" fill="#3A414E"/>
<path d="M77.5627 12.1153C77.5627 12.1334 77.5627 12.1696 77.5627 12.1878C77.5446 12.224 77.5446 12.2602 77.5265 12.2964C77.5265 12.3145 77.5084 12.3507 77.4903 12.3689C77.4722 12.4051 77.436 12.4413 77.4179 12.4775C77.3998 12.4956 77.3998 12.5137 77.3817 12.5318C77.3273 12.5862 77.273 12.6405 77.2006 12.6767L72.9448 15.701C72.3291 16.1356 71.2426 16.1899 70.482 15.8458C70.4458 15.8277 70.3914 15.8096 70.3552 15.7734C70.2647 15.7191 70.2103 15.6829 70.1379 15.6285C70.1198 15.6104 70.1017 15.5923 70.0836 15.5742C70.0474 15.538 70.0111 15.5018 69.9749 15.4656C69.9568 15.4474 69.9568 15.4112 69.9387 15.3931C69.9206 15.3569 69.9025 15.3207 69.8843 15.2844C69.8843 15.2663 69.8662 15.2301 69.8662 15.212C69.8662 15.1758 69.8481 15.1396 69.8481 15.1033V15.0853V16.2261C69.8481 16.4978 70.0292 16.7513 70.3552 16.9505C70.3914 16.9686 70.4458 17.0048 70.482 17.0229C71.2245 17.3851 72.3291 17.3127 72.9448 16.8781L77.2006 13.8538C77.4541 13.6727 77.5808 13.4373 77.5808 13.22V12.0791C77.5808 12.0791 77.5627 12.0972 77.5627 12.1153Z" fill="url(#paint4_linear_0_4850)"/>
<path d="M69.8662 15.1937C69.8662 15.2119 69.8843 15.248 69.8843 15.2661C69.9024 15.3024 69.9205 15.3386 69.9387 15.3748C69.9568 15.3929 69.9568 15.4291 69.9749 15.4472C70.0111 15.4835 70.0473 15.5197 70.0836 15.5559C70.1017 15.574 70.1198 15.5921 70.1379 15.6102C70.1922 15.6646 70.2646 15.7189 70.3552 15.7551C70.3914 15.7732 70.4458 15.8094 70.482 15.8275C71.2245 16.1897 72.3291 16.1173 72.9448 15.6827L77.2006 12.6584C77.273 12.6041 77.3273 12.5679 77.3817 12.5135C77.3998 12.4954 77.4179 12.4773 77.4179 12.4592C77.4541 12.423 77.4722 12.3868 77.4903 12.3506C77.5084 12.3324 77.5084 12.2962 77.5265 12.2781C77.5446 12.2419 77.5627 12.2057 77.5627 12.1694C77.5627 12.1513 77.5627 12.1151 77.5627 12.097C77.5989 11.8072 77.4359 11.5175 77.0556 11.3002C77.0194 11.2821 76.9651 11.2459 76.9289 11.2278C76.1864 10.8837 75.0817 10.938 74.4841 11.3726L70.2284 14.3969C69.9568 14.5961 69.83 14.8315 69.8481 15.0488C69.8481 15.1394 69.8662 15.1575 69.8662 15.1937Z" fill="#3FCCFF"/>
<path d="M74.9731 13.1658C74.7558 12.876 74.285 12.6587 73.7417 12.6587C73.1984 12.6587 72.7275 12.8579 72.5283 13.1658H72.4016V13.528C72.4016 13.9988 72.9992 14.3791 73.7417 14.3791C74.4842 14.3791 75.0818 13.9988 75.0818 13.528V13.1658H74.9731Z" fill="url(#paint5_linear_0_4850)"/>
<path d="M75.0999 13.1837C75.0999 13.6545 74.5023 14.0348 73.7598 14.0348C73.0173 14.0348 72.4197 13.6545 72.4197 13.1837C72.4197 12.7128 73.0173 12.3325 73.7598 12.3325C74.5023 12.3325 75.0999 12.7128 75.0999 13.1837Z" fill="#3FCCFF"/>
<path d="M72.8361 18.4899L73.2526 17.3309V17.2766V16.5703L72.3652 18.7435L72.4739 19.0151L72.8361 18.4899Z" fill="#3A414E"/>
<path d="M72.1297 19.6124L72.4738 19.0148L72.3651 18.7432L71.2605 19.703L71.6046 19.9565L72.1297 19.6124Z" fill="#3A414E"/>
<path d="M71.6049 19.9566L71.2608 19.7031L70.7356 22.329L70.9529 22.492L71.6049 19.9566Z" fill="#3A414E"/>
<path d="M65.5742 17.0952L69.6851 21.1698L70.7354 22.3289L71.2606 19.703L65.5742 17.0952Z" fill="#4A5673"/>
<path d="M65.3389 16.9141L64.8137 17.4393L69.6852 21.1698L65.5743 17.0952L65.3389 16.9141Z" fill="#535F7B"/>
<path d="M65.5743 17.0952L71.2607 19.703L72.3653 18.7432L66.3892 16.0449L66.027 16.226L65.3389 16.9141L65.5743 17.0952Z" fill="#4A5673"/>
<path d="M73.2526 16.5701L73.1802 16.2984L72.9991 16.4071L72.4739 16.4614L71.7858 16.4071L71.2606 16.2984L70.1378 15.6284L69.8843 15.2843L69.8661 15.0127L66.3892 16.0449L72.3652 18.7432L73.2526 16.5701Z" fill="#4A5673"/>
<path d="M55.9402 29.9893L56.6283 29.8806L70.7355 22.329L69.6852 21.17L64.8138 17.4395L64.1256 17.9646L63.7634 18.3087L62.7855 19.2504L62.7312 19.6126L53.3867 29.12L55.2339 29.8806L55.9402 29.9893Z" fill="#3F4966"/>
<path d="M55.2338 29.8804L55.0527 30.3331L55.8314 30.5142L55.9401 29.989L55.2338 29.8804Z" fill="#3A414E"/>
<path d="M53.3867 29.1201L53.2056 29.6453L55.0527 30.3334L55.2338 29.8807L53.3867 29.1201Z" fill="#3A414E"/>
<path d="M55.94 29.989L55.8313 30.5142L56.6281 30.2245V29.8804L55.94 29.989Z" fill="#3A414E"/>
<path d="M66.8962 24.7558L68.2001 24.0676L68.6529 23.7778L69.6851 23.1983L69.9386 23.0897L70.9527 22.4921L70.7354 22.3291L56.6282 29.8807V30.2248L61.4996 27.7257L62.2059 27.2729L66.8962 24.7558Z" fill="#3A414E"/>
<path d="M80.3699 25.3534C80.2069 25.2448 79.7723 24.5385 78.5228 24.2669C77.2732 24.0133 72.275 23.8142 71.0073 28.088C71.0073 28.088 70.8262 28.9934 71.116 29.6454L73.9048 35.1144L82.8509 30.9312L80.3699 25.3534Z" fill="url(#paint6_linear_0_4850)"/>
<path d="M75.444 32.1085V31.7644L81.6556 30.8408L81.8005 30.877L83.1044 33.7383L83.3579 32.4887C83.3216 31.8911 83.1224 31.3297 82.7421 30.7683L82.7059 30.6235L82.6516 30.5148L81.891 29.8267L80.9674 29.4101L79.8265 29.2109L78.5227 29.2653L77.2731 29.5731L76.1322 30.1345L75.1543 30.9132L74.3756 31.8368L73.9229 32.869L73.7236 33.9013L73.8323 34.8249C74.1764 35.7303 74.5567 36.2917 74.9732 36.5272L75.9511 37.0523L75.3897 35.8752L75.444 32.1085Z" fill="#979797"/>
<path d="M81.6551 30.8223L75.4436 31.764V32.1081L88.1745 59.1997L94.5128 58.2218L92.8287 54.5094L83.1039 33.7198L81.8 30.8766L81.6551 30.8223Z" fill="#B7B8B7"/>
<path d="M85.1685 56.9178L85.4764 57.4973L85.7299 58.0587L85.9292 58.4752L86.0016 58.5839L86.1465 58.9461L86.4543 59.6704H86.9614L87.4865 59.7791L88.2109 59.8153V59.3626L88.1747 59.1996L75.4438 32.1079L75.3533 35.8928L75.9147 37.0699L84.8607 56.1934L84.8969 56.4107L85.1685 56.9178Z" fill="#828282"/>
<path d="M88.6816 59.8153L91.6878 59.6161L92.6114 59.3988L94.6215 59.0548L94.5853 58.3303L94.5129 58.2217L88.1746 59.1996L88.2108 59.3626L88.4824 59.8153H88.6816Z" fill="#FBFBFB"/>
<path d="M88.2109 59.3628V59.8155H88.4826L88.2109 59.3628Z" fill="#C5C6C8"/>
<path d="M61.6625 35.2589L71.8763 28.993L71.8944 28.9749C72.166 28.83 72.9266 29.0835 72.9266 29.0835C73.7596 29.5725 73.5061 31.311 73.5061 31.7275C73.5061 32.1983 73.2525 33.1038 72.9809 33.2668L74.0132 32.633L63.9262 38.7902C63.8356 38.8808 63.727 38.9351 63.6002 38.9894L63.5278 39.0256L63.5097 39.0075C63.2743 39.0619 62.9846 38.9894 62.6767 38.8083C61.8437 38.3193 61.1736 37.1603 61.1736 36.2187C61.2098 35.7478 61.3909 35.4218 61.6625 35.2589Z" fill="url(#paint7_linear_0_4850)"/>
<path d="M35.4221 47.8632L62.8397 32.2167C62.8579 32.2167 62.8578 32.1986 62.8759 32.1986L62.8941 32.1805C63.3649 31.9269 64.0168 31.9632 64.7231 32.3797C66.1718 33.2127 67.3671 35.2591 67.349 36.9252C67.349 37.7401 67.0592 38.3015 66.6065 38.5912L66.5703 38.6093L66.5522 38.6275L39.4062 54.0567C39.2432 54.2197 39.0621 54.3283 38.8448 54.4008L38.718 54.4732L38.6999 54.4551C38.2834 54.5275 37.7763 54.437 37.233 54.1291C35.7843 53.2961 34.6072 51.2497 34.6072 49.5836C34.6434 48.7325 34.9512 48.1349 35.4221 47.8632Z" fill="url(#paint8_linear_0_4850)"/>
<path d="M37.3235 48.0805C35.8747 47.2475 34.6794 47.9175 34.6794 49.5836C34.6794 51.2497 35.8566 53.2961 37.3053 54.1291C38.7541 54.9621 39.9493 54.292 39.9493 52.626C39.9493 50.9599 38.7722 48.9136 37.3235 48.0805Z" fill="#C1C1C0"/>
<path d="M27.472 54.5816L36.3456 49.2212C36.3637 49.2212 36.3637 49.2212 36.3637 49.2031C36.6353 49.0582 36.9976 49.0763 37.4141 49.3118C38.2471 49.8007 38.9171 50.9597 38.9171 51.9014C38.9171 52.3722 38.7542 52.6801 38.5006 52.8431L38.4825 52.8612C38.4825 52.8612 38.4825 52.8612 38.4644 52.8612L29.7357 58.0948C29.6452 58.1854 29.5365 58.2397 29.4278 58.2759L29.3554 58.3122V58.294C29.1199 58.3302 28.8302 58.2759 28.5223 58.0948C27.6893 57.6059 27.0193 56.4468 27.0193 55.5052C27.0193 55.0705 27.2004 54.7265 27.472 54.5816Z" fill="url(#paint9_linear_0_4850)"/>
<path d="M68.1636 105.65V103.73L71.0792 102.083L71.7311 102.481V103.278L68.1636 105.65Z" fill="#8F8F8F"/>
<path d="M72.3651 103.405L71.6226 103.079C71.7674 103.133 71.8942 103.223 72.0029 103.332C72.1478 103.332 72.2564 103.368 72.3651 103.405Z" fill="#F8F8F7"/>
<path d="M68.5801 109.308L68.1636 109.109C68.2722 109.199 68.4171 109.272 68.5801 109.308Z" fill="#F8F8F7"/>
<path d="M67.6566 106.646C67.5841 106.972 67.5298 107.298 67.5298 107.606C67.5298 108.312 67.7652 108.837 68.1455 109.109H68.1636L68.5801 109.308L69.2139 109.598C68.6888 109.381 68.3628 108.801 68.3628 107.95C68.3628 106.791 68.9604 105.433 69.8478 104.473C70.1556 104.147 70.4816 103.857 70.8438 103.658C71.2784 103.405 71.6768 103.296 72.039 103.314C71.9304 103.205 71.7855 103.115 71.6587 103.061C71.2241 102.879 70.6446 102.952 70.0289 103.296C69.558 103.568 69.1053 103.984 68.725 104.473C68.5077 104.745 68.3266 105.035 68.1636 105.342V106.302L67.6566 106.646Z" fill="#F8F8F7"/>
<path d="M70.826 103.676C70.4638 103.875 70.1378 104.165 69.83 104.491C68.9607 105.433 68.345 106.791 68.345 107.968C68.345 108.819 68.6709 109.399 69.1961 109.616C69.6307 109.815 70.2102 109.743 70.8441 109.381C72.2204 108.584 73.3251 106.664 73.3251 105.089C73.3251 104.183 72.9448 103.586 72.3834 103.404C72.2747 103.368 72.148 103.35 72.0393 103.332C71.6771 103.314 71.2606 103.423 70.826 103.676Z" fill="#CCCCCC"/>
<path d="M68.1636 106.32V105.36C67.9462 105.777 67.7832 106.212 67.6746 106.646L68.1636 106.32Z" fill="#F8F8F7"/>
<path d="M85.8385 108.856C85.8566 105.922 83.7922 102.354 81.2388 100.888C80.1703 100.272 79.1923 100.127 78.4136 100.38H78.3956C78.0877 100.471 77.816 100.634 77.5806 100.851L66.6606 107.19L72.2021 118.834L84.3898 111.862C85.259 111.427 85.8204 110.377 85.8385 108.856Z" fill="url(#paint10_linear_0_4850)"/>
<path d="M69.2503 107.769C66.6968 106.303 64.6324 107.48 64.6143 110.395C64.6143 113.329 66.6606 116.897 69.2141 118.363C71.7675 119.83 73.832 118.653 73.8501 115.719C73.8501 112.804 71.7856 109.236 69.2503 107.769Z" fill="#CCCCCC"/>
<path d="M68.6708 108.855C66.4433 107.57 64.6324 108.602 64.6143 111.155C64.6143 113.709 66.4071 116.842 68.6346 118.128C70.862 119.413 72.673 118.381 72.6911 115.828C72.6911 113.274 70.8983 110.141 68.6708 108.855Z" fill="#FEFEFE"/>
<path d="M68.5984 109.471C66.6788 108.367 65.1213 109.254 65.1213 111.463C65.1213 113.673 66.6606 116.353 68.5802 117.458C70.4998 118.562 72.0573 117.675 72.0573 115.466C72.0573 113.256 70.518 110.576 68.5984 109.471Z" fill="url(#paint11_linear_0_4850)"/>
<path d="M68.8518 109.381C66.9865 108.312 65.4834 109.163 65.4653 111.3C65.4653 113.437 66.9684 116.045 68.8156 117.113C70.6627 118.182 72.184 117.331 72.184 115.194C72.2202 113.057 70.7171 110.449 68.8518 109.381Z" fill="#EBEBEB"/>
<path d="M70.9163 113.002C70.8982 113.184 70.8439 113.31 70.7352 113.383V113.401L70.699 113.419C70.699 113.419 70.6809 113.419 70.6809 113.437L70.3549 113.636L70.3368 113.654C70.1919 113.727 70.0108 113.709 69.8116 113.6C69.377 113.347 69.0329 112.749 69.0329 112.26C69.0329 111.988 69.1416 111.825 69.3045 111.753L69.6124 111.572C69.7573 111.499 69.9384 111.518 70.1376 111.626C69.9565 111.427 69.7573 111.264 69.5581 111.155C68.7794 110.703 68.1274 111.065 68.1274 111.97C68.1274 112.876 68.7613 113.98 69.54 114.433C70.3187 114.886 70.9706 114.524 70.9706 113.618C70.9887 113.383 70.9525 113.202 70.9163 113.002Z" fill="#586E84"/>
<path d="M70.3186 113.654L70.3364 113.636H70.3186V113.654Z" fill="#3F4E5D"/>
<path d="M69.6123 111.536C69.5942 111.536 69.5942 111.536 69.5942 111.536L69.2864 111.717C69.4313 111.663 69.5942 111.663 69.7934 111.771C70.2281 112.025 70.5721 112.622 70.5721 113.111C70.5721 113.347 70.4816 113.528 70.3548 113.6L70.6808 113.401C70.6808 113.401 70.6989 113.401 70.6989 113.383L70.7351 113.365V113.347C70.8257 113.274 70.8981 113.129 70.9162 112.967C70.7894 112.459 70.5178 111.952 70.1556 111.554C69.9383 111.482 69.7572 111.463 69.6123 111.536Z" fill="#3F4E5D"/>
<path d="M69.7933 111.807C69.5941 111.699 69.4312 111.68 69.2863 111.753C69.1233 111.825 69.0146 111.988 69.0146 112.26C69.0146 112.749 69.3587 113.347 69.7933 113.6C69.9925 113.709 70.1736 113.727 70.3185 113.654H70.3366C70.4815 113.582 70.5539 113.401 70.5539 113.165C70.572 112.64 70.228 112.043 69.7933 111.807Z" fill="#8DA8C1"/>
<path d="M70.6628 101.449L78.305 105.777L81.9632 103.694L74.2485 99.1851L70.6628 101.449Z" fill="#C4C4C4"/>
<path d="M77.2728 99.3662H75.2445V102.608C75.2264 102.662 75.2264 102.716 75.2445 102.771V102.789C75.2808 102.916 75.3713 103.024 75.5343 103.115C75.9327 103.35 76.5847 103.35 76.9831 103.115C77.1461 103.024 77.2366 102.898 77.2728 102.789H77.2909V99.3662H77.2728Z" fill="url(#paint12_linear_0_4850)"/>
<path d="M82.0537 109.019C83.4301 108.222 84.5347 108.874 84.5528 110.431C84.5528 112.007 83.4482 113.926 82.0719 114.723C80.6955 115.52 79.5909 114.868 79.5728 113.311C79.5728 111.735 80.6774 109.816 82.0537 109.019Z" fill="#F8F8F7"/>
<path d="M80.1704 114.814L81.2389 115.321L83.575 110.196H80.7499L80.1704 114.814Z" fill="#F8F8F7"/>
<path d="M82.8687 109.381C84.245 108.584 85.3497 109.218 85.3678 110.793C85.3678 112.369 84.2631 114.289 82.8867 115.085C81.5104 115.882 80.4058 115.248 80.3877 113.673C80.3877 112.097 81.4924 110.178 82.8687 109.381Z" fill="#CCCCCC"/>
<path d="M80.8403 110.938L80.7678 113.872C80.7678 113.872 81.2205 115.809 82.4882 115.013C83.7558 114.216 83.9007 113.98 84.0999 113.564C84.4621 112.749 84.4622 111.861 84.4622 110.195V108.91L80.8403 110.938Z" fill="#E0E0E0"/>
<path d="M78.2506 96.9756H74.2484V98.8409C74.2303 98.9495 74.2303 99.0581 74.2484 99.1487V99.1668C74.3028 99.4022 74.502 99.6376 74.8098 99.8187C75.6066 100.271 76.8743 100.271 77.653 99.8187C77.9609 99.6376 78.142 99.4022 78.2144 99.1668H78.2506V96.9756Z" fill="url(#paint13_linear_0_4850)"/>
<path d="M78.305 97.9897C79.4277 97.3378 79.4278 96.2693 78.2869 95.6174C77.146 94.9654 75.3169 94.9654 74.176 95.6174C73.0532 96.2693 73.0532 97.3378 74.1941 97.9897C75.335 98.6597 77.1641 98.6597 78.305 97.9897Z" fill="url(#paint14_linear_0_4850)"/>
<path d="M81.7639 95.8893C84.7881 94.1327 84.7701 91.2713 81.7277 89.5147C78.6853 87.7581 73.7414 87.7581 70.7171 89.5147C67.6928 91.2713 67.711 94.1327 70.7534 95.8893C73.7958 97.6459 78.7396 97.6459 81.7639 95.8893Z" fill="#3D4C6A"/>
<path d="M81.7639 94.0782C84.7881 92.3216 84.7701 89.4603 81.7277 87.7037C78.6853 85.9471 73.7414 85.9471 70.7171 87.7037C67.6928 89.4603 67.711 92.3216 70.7534 94.0782C73.7958 95.8349 78.7396 95.8349 81.7639 94.0782Z" fill="#1F2635"/>
<path d="M78.4135 105.759L70.6808 101.449L67.5479 102.952V106.719L67.6746 106.646C67.7833 106.212 67.9463 105.777 68.1636 105.36V103.731L71.0792 102.083L77.9427 106.067L80.8583 111.083L81.3653 110.938L78.4135 105.759Z" fill="#E0E0E0"/>
<path d="M81.3474 110.938L81.2749 113.872C81.2749 113.872 81.7276 115.809 82.9953 115.013C84.2629 114.216 84.4259 113.98 84.607 113.564C84.9873 112.749 84.9873 111.861 84.9873 110.195V108.91L81.3474 110.938Z" fill="#8F8F8F"/>
<path d="M78.3052 105.777L81.3476 110.938L84.9876 108.91L81.9633 103.694L78.3052 105.777Z" fill="#9C9C9C"/>
<path d="M135.314 51.123L135.042 55.6685V56.0669L134.01 60.558V60.721L132.633 63.6185L127.762 67.7656L99.4027 83.6475L99.3665 83.72L90.6015 86.5451L86.8167 87.1064L78.4139 87.7403L70.6269 87.9576L64.4878 87.8127L58.3487 87.1064L53.7308 85.4404L52.1915 84.1184L49.0948 76.4581L49.0585 76.2408L49.0404 76.3494L48.9861 76.2408V84.7703L49.0404 85.4947L49.0585 86.708L49.4207 89.4788V90.0402L49.5475 90.5291L50.7427 93.3361L50.779 93.5353L50.9963 93.7526L51.7206 94.4227L53.7308 96.125L58.3125 97.8091L59.5982 97.9721L60.8115 98.1532L64.4878 98.5516L65.2665 98.5697L67.3309 98.6059L66.9868 98.298L66.516 97.8091L66.1176 97.2296L65.7916 96.5958L65.6286 95.98L65.5562 95.3825L65.6286 94.8211L65.7916 94.3864L66.0814 94.0967L66.19 93.2636L66.4617 92.6479L66.9144 92.2133L67.0412 92.159L67.4758 92.0503L68.164 92.1047L68.8884 92.4487L69.6127 92.9377L69.6489 93.0101L70.2828 93.6982L70.4096 93.7526L70.8261 94.5313L71.2969 95.4005L71.5505 96.3785L78.7761 92.2857L78.9753 93.1369L78.7036 94.0243L78.4139 94.4589L77.8525 94.9841L76.9652 95.636L71.6591 98.6783L77.8525 98.4973H78.4501L85.4947 97.9721L86.8348 97.8453L87.2332 97.8091L90.6377 97.2477L93.2274 96.469L99.4027 94.4227L101.666 93.1731L108.095 89.5512L127.798 78.4683L129.736 76.8203L134.281 70.2466L135.042 66.7152L135.078 65.6649L135.332 61.9344L135.314 51.123Z" fill="url(#paint15_linear_0_4850)"/>
<path d="M21.7131 62.1692V57.334H16.4795V62.2959C16.4795 62.6762 16.733 63.0746 17.2582 63.3644C18.2904 63.962 19.9565 63.962 20.9706 63.3644C21.532 63.0384 21.7674 62.5857 21.7131 62.1692Z" fill="url(#paint16_linear_0_4850)"/>
<path d="M24.6287 53.9478H13.5276V59.5979H13.5638C13.5638 60.4128 14.1071 61.2277 15.1937 61.8616C17.3668 63.1111 20.8438 63.1111 22.9988 61.8616C24.0854 61.2277 24.6105 60.4128 24.6105 59.5979H24.6287V53.9478Z" fill="url(#paint17_linear_0_4850)"/>
<path d="M24.1759 52.5349L23.5421 52.9333C23.3067 52.6979 23.0532 52.4806 22.7091 52.2814C20.6989 51.1224 17.4573 51.1224 15.4472 52.2814C15.1031 52.4806 14.8495 52.6979 14.6322 52.9333L14.1433 52.1546L13.5276 53.9475C13.6181 54.6356 14.3244 55.9033 15.4834 56.4828C17.566 57.5331 20.7351 57.6418 22.7453 56.4828C23.7594 55.9033 24.6468 54.708 24.6287 53.9475L24.1759 52.5349Z" fill="url(#paint18_linear_0_4850)"/>
<path d="M22.709 50.8326C20.6807 49.6736 17.4572 49.6736 15.4471 50.8326C13.4369 51.9916 13.455 53.875 15.4652 55.034C17.4753 56.193 20.7169 56.193 22.727 55.034C24.7372 53.875 24.7372 52.0097 22.709 50.8326Z" fill="#31BCFE"/>
<path d="M21.7131 52.8792V48.0439H16.4795V53.0059C16.4795 53.4043 16.733 53.7847 17.2582 54.0744C18.2904 54.672 19.9565 54.672 20.9706 54.0744C21.532 53.7484 21.7674 53.3138 21.7131 52.8792Z" fill="url(#paint19_linear_0_4850)"/>
<path d="M20.9525 46.8486C19.9203 46.251 18.2542 46.251 17.24 46.8486C16.2078 47.4462 16.2259 48.406 17.2582 49.0036C18.2904 49.6012 19.9564 49.6012 20.9706 49.0036C21.9847 48.406 21.9847 47.4281 20.9525 46.8486Z" fill="#199CE8"/>
<path d="M20.5722 46.4502C19.721 45.9613 18.3809 45.9613 17.5297 46.4502C16.6967 46.9392 16.6967 47.7179 17.5479 48.2068C18.399 48.6958 19.7391 48.6958 20.5902 48.2068C21.4233 47.7179 21.4052 46.9392 20.5722 46.4502Z" fill="#258DBF"/>
<path d="M20.083 47.1021C19.9019 46.8486 19.5216 46.6855 19.0508 46.6855C18.5799 46.6855 18.1996 46.8486 18.0366 47.1021H17.928V47.3918C17.928 47.7902 18.435 48.1162 19.0508 48.1162C19.6665 48.1162 20.1736 47.7902 20.1736 47.3918V47.1021H20.083Z" fill="#003F67"/>
<path d="M24.8821 52.2093C24.1034 52.1187 23.198 54.2918 22.872 57.0807C22.5279 59.8695 22.8901 62.2056 23.6507 62.2962L32.5606 63.6182L33.792 53.5312L24.8821 52.2093Z" fill="url(#paint20_linear_0_4850)"/>
<path d="M34.5887 58.7466C34.2446 61.5354 33.3391 63.7086 32.5785 63.618C31.7998 63.5275 31.4557 61.1913 31.7998 58.4025C32.1439 55.6136 33.0494 53.4405 33.81 53.5311C34.5706 53.6397 34.9327 55.9758 34.5887 58.7466Z" fill="#979797"/>
<path d="M60.4673 66.4978L61.2641 66.7694H61.916H62.1877L67.6748 67.6387L72.9447 68.4174L74.5021 68.6709L75.987 68.1095L79.9711 66.3891L80.116 66.2805V65.5198L32.3434 58.1855L32.3071 62.224L33.2307 62.3507L59.091 66.2805L59.7067 66.3891L60.4673 66.4978Z" fill="#828282"/>
<path d="M80.949 65.9728V65.5563L80.116 65.52V66.2806L80.7317 66.1357L80.949 65.9728Z" fill="#C5C6C8"/>
<path d="M80.949 65.5562V65.9726L81.8363 65.6286L80.949 65.5562Z" fill="#C5C6C8"/>
<path d="M84.0097 62.8757L83.4301 62.3505L82.3979 61.9521L81.8365 61.8434L81.3476 61.7348L81.0035 61.6986L80.9492 61.6805L79.1926 61.427L78.8303 61.3907L78.613 61.3545L75.462 60.8656L69.2142 59.8695L67.186 59.5617L34.3718 54.5635H34.0095L33.8647 54.817L32.3435 58.1854L80.1161 65.5197L80.9492 65.5559L81.4019 65.5921L83.412 64.5237L84.0459 64.089L84.2994 63.8355L84.3175 63.7993V63.5639L84.0097 62.8757Z" fill="#B9B9B9"/>
<path d="M10.7932 42.3035L0.325928 32.7417C2.33607 32.7779 3.47697 33.0495 3.73051 33.5566L15.23 41.0177L12.8939 42.0499L10.7932 42.3035Z" fill="#353E52"/>
<path d="M10.5397 42.9554L0 33.4661L0.108652 32.7417H0.325956L10.7932 42.3035L10.5397 42.9554Z" fill="#3A414E"/>
<path d="M11.2822 42.9552L12.9121 42.0497L15.2482 41.0174L16.9686 40.438L17.8378 41.1804L12.1696 43.6071L11.2822 42.9552Z" fill="#3F4966"/>
<path d="M11.2823 42.9556V43.517L10.5398 42.9556L10.7933 42.3037L11.2823 42.9556Z" fill="#3A414E"/>
<path d="M15.6645 43.7704L15.737 44.7482L12.1694 43.6074L17.8377 41.1807L18.5802 43.6798L16.3708 43.1908L15.6645 43.7704Z" fill="#3F4966"/>
<path d="M15.7369 44.7483V44.9656L15.574 45.2191L12.0969 44.1507L12.1694 43.6074L15.7369 44.7483Z" fill="#3A414E"/>
<path d="M12.912 42.0498L11.2822 42.9553L10.7932 42.3034L12.912 42.0498Z" fill="#3F4966"/>
<path d="M12.1696 43.6075L12.0971 44.1508L11.2822 43.517V42.9556L12.1696 43.6075Z" fill="#3A414E"/>
<path d="M17.6386 46.831C17.8921 46.487 18.4354 46.2334 19.0692 46.2334C19.7031 46.2334 20.2645 46.4689 20.4999 46.831H20.6447V47.2475C20.6447 47.8089 19.9385 48.2616 19.0511 48.2616C18.1818 48.2616 17.4575 47.8089 17.4575 47.2475V46.4688L17.6386 46.831Z" fill="#003F67"/>
<path d="M15.5379 44.0241C15.5379 44.0422 15.5379 44.0603 15.5379 44.0966C15.5379 44.1328 15.5561 44.169 15.5742 44.1871C15.5742 44.2052 15.5923 44.2233 15.6104 44.2414C15.6285 44.2776 15.6647 44.3139 15.6828 44.3501C15.7009 44.3682 15.7009 44.3863 15.719 44.4044C15.7733 44.4587 15.8277 44.495 15.882 44.5493L19.8299 47.3744C20.3913 47.7728 21.4235 47.8452 22.1116 47.5011C22.1479 47.483 22.1841 47.4649 22.2203 47.4468C22.2927 47.3925 22.3652 47.3562 22.4195 47.3019C22.4376 47.2838 22.4557 47.2657 22.4738 47.2476C22.5101 47.2114 22.5463 47.1752 22.5644 47.1389C22.5825 47.1208 22.5825 47.1027 22.6006 47.0665C22.6187 47.0303 22.6368 46.994 22.6549 46.9578C22.6731 46.9397 22.673 46.9035 22.673 46.8854C22.673 46.8492 22.6911 46.813 22.6911 46.7949C22.6911 46.7767 22.6911 46.7768 22.6911 46.7587V47.809C22.6911 48.0625 22.5281 48.2979 22.2203 48.479C22.1841 48.4971 22.1479 48.5153 22.0936 48.5334C21.4054 48.8594 20.3732 48.805 19.8118 48.4066L15.8639 45.5996C15.6285 45.4185 15.5017 45.2194 15.5017 45.002V43.9517C15.5198 43.9698 15.5379 43.9879 15.5379 44.0241Z" fill="url(#paint21_linear_0_4850)"/>
<path d="M22.6911 46.8853C22.6911 46.9034 22.673 46.9396 22.673 46.9577C22.6549 46.9939 22.6367 47.0301 22.6186 47.0664C22.6005 47.0845 22.6005 47.1026 22.5824 47.1388C22.5643 47.175 22.5281 47.2112 22.4919 47.2475C22.4738 47.2656 22.4557 47.2837 22.4376 47.3018C22.3833 47.3561 22.3108 47.3924 22.2384 47.4467C22.2021 47.4648 22.1659 47.4829 22.1297 47.501C21.4415 47.827 20.4093 47.7726 19.8479 47.3742L15.9001 44.5492C15.8276 44.4948 15.7733 44.4586 15.7371 44.4043C15.719 44.3862 15.7009 44.368 15.7009 44.3499C15.6828 44.3137 15.6465 44.2775 15.6284 44.2413C15.6103 44.2232 15.6103 44.2051 15.5922 44.187C15.5741 44.1507 15.5741 44.1145 15.556 44.0964C15.556 44.0783 15.556 44.0602 15.556 44.024C15.5198 43.7523 15.6828 43.4807 16.0268 43.2815C16.0631 43.2634 16.0993 43.2272 16.1536 43.2091C16.8418 42.8831 17.874 42.9374 18.4354 43.3358L22.3833 46.1609C22.6368 46.342 22.7454 46.5593 22.7454 46.7766C22.7092 46.8129 22.7092 46.8491 22.6911 46.8853Z" fill="#3FCCFF"/>
<path d="M17.8197 44.9114C18.037 44.6217 18.5078 44.4043 19.0511 44.4043C19.5944 44.4043 20.0652 44.6036 20.2826 44.9114H20.4093V45.2736C20.4093 45.7444 19.7936 46.1428 19.0511 46.1428C18.3086 46.1428 17.6929 45.7625 17.6929 45.2736V44.9114H17.8197Z" fill="url(#paint22_linear_0_4850)"/>
<path d="M17.6929 44.9474C17.6929 45.4182 18.3086 45.8167 19.0511 45.8167C19.7936 45.8167 20.4093 45.4364 20.4093 44.9474C20.4093 44.4766 19.7936 44.0781 19.0511 44.0781C18.2905 44.0781 17.6929 44.4766 17.6929 44.9474Z" fill="#3FCCFF"/>
<path d="M19.9387 49.9456L19.5583 48.8771V48.8047V48.1709L20.3552 50.181L20.2646 50.4346L19.9387 49.9456Z" fill="#3A414E"/>
<path d="M20.5906 50.978L20.2646 50.4347L20.3552 50.1812L21.4056 51.0866L21.0796 51.304L20.5906 50.978Z" fill="#3A414E"/>
<path d="M21.0798 51.3038L21.4058 51.0864L21.8947 53.5131L21.6774 53.6761L21.0798 51.3038Z" fill="#3A414E"/>
<path d="M26.6754 48.6416L22.8542 52.4445L21.8945 53.513L21.4055 51.0863L26.6754 48.6416Z" fill="#3F4966"/>
<path d="M26.911 48.4971L27.4 48.9679L22.8545 52.4449L26.6756 48.642L26.911 48.4971Z" fill="#353E52"/>
<path d="M26.6752 48.6419L21.4054 51.0867L20.355 50.1812L25.9327 47.6821L26.2587 47.8451L26.9106 48.497L26.6752 48.6419Z" fill="#353E52"/>
<path d="M19.5583 48.171L19.6127 47.8993L19.7757 48.008L20.2646 48.0623L20.9166 48.008L21.4055 47.8993L22.4378 47.2836L22.6732 46.9576L22.6913 46.7041L25.9329 47.682L20.3552 50.1811L19.5583 48.171Z" fill="#353E52"/>
<path d="M35.6577 60.6483L35.0057 60.5397L21.8945 53.5133L22.8543 52.4448L27.3998 48.9678L28.0517 49.4567L28.3596 49.7827L29.2832 50.6519L29.3375 50.9779L38.03 59.8334L36.3096 60.5397L35.6577 60.6483Z" fill="#3F4966"/>
<path d="M36.3096 60.5396L36.4727 60.9742L35.7664 61.1191L35.6577 60.6482L36.3096 60.5396Z" fill="#3A414E"/>
<path d="M38.03 59.8335L38.193 60.3224L36.4726 60.9744L36.3096 60.5397L38.03 59.8335Z" fill="#3A414E"/>
<path d="M35.6578 60.6482L35.7665 61.1191L35.0059 60.8656V60.5396L35.6578 60.6482Z" fill="#3A414E"/>
<path d="M25.444 55.7769L24.2488 55.1249L23.8323 54.8714L22.8543 54.3281L22.637 54.2194L21.6772 53.6762L21.8946 53.5132L35.0057 60.5396V60.8656L30.4784 58.5295L29.8265 58.1129L25.444 55.7769Z" fill="#3A414E"/>
<path d="M49.0583 75.6067C49.0583 75.6067 54.1108 75.3895 55.632 78.5224C55.632 78.5224 56.465 80.1884 54.5635 81.4198C52.6621 82.6513 47.2836 85.5126 47.2836 85.5126L43.4443 78.6854L49.0583 75.6067Z" fill="url(#paint23_linear_0_4850)"/>
<path d="M45.6356 78.7939C44.0782 77.9065 42.8287 78.6128 42.8105 80.3875C42.8105 82.1623 44.0601 84.3354 45.6175 85.2408C47.1749 86.1282 48.4244 85.4219 48.4244 83.6291C48.4244 81.8544 47.1749 79.6813 45.6356 78.7939Z" fill="#F4F4F4"/>
<path d="M47.5553 83.1942C47.5553 81.9628 46.7042 80.4778 45.6357 79.8621C45.1287 79.5723 44.6759 79.5361 44.3318 79.6991L44.2956 79.7172C44.2775 79.7172 44.2775 79.7353 44.2594 79.7353L42.8831 80.4416L45.4003 85.2406L46.9577 84.4438C46.9758 84.4257 46.9939 84.4257 47.012 84.4076H47.0301C47.3561 84.2084 47.5553 83.7918 47.5553 83.1942Z" fill="url(#paint24_linear_0_4850)"/>
<path d="M44.0964 80.6594C43.028 80.0437 42.1587 80.5326 42.1587 81.764C42.1587 82.9955 43.0279 84.4804 44.0783 85.0962C45.1467 85.7119 46.016 85.2229 46.016 83.9915C46.0341 82.7601 45.1649 81.2751 44.0964 80.6594Z" fill="#EFEFEF"/>
<path d="M44.9113 83.7017C44.1869 83.2852 43.5894 82.2529 43.5894 81.4199C43.5894 81.3656 43.5893 81.3294 43.6074 81.2932C43.1185 81.2389 42.7744 81.5829 42.7744 82.2167C42.7744 83.0498 43.3539 84.0639 44.0964 84.4804C44.7846 84.8788 45.346 84.5891 45.4003 83.8647C45.2554 83.8466 45.0924 83.7923 44.9113 83.7017Z" fill="#D6D7D7"/>
<path d="M44.0964 81.456C43.9153 81.3655 43.7523 81.3111 43.6074 81.2749C43.6074 81.3111 43.5894 81.3655 43.5894 81.4017C43.5894 82.2347 44.1688 83.2669 44.9113 83.6834C45.0924 83.774 45.2373 83.8284 45.4003 83.8465C45.4003 83.8102 45.4184 83.7559 45.4184 83.7197C45.4184 82.9048 44.8208 81.8725 44.0964 81.456Z" fill="#909090"/>
<path d="M134.915 47.2473L133.557 43.9877L132.597 43.0641L130.623 41.3618L125.987 39.6414L124.792 39.5146L125.697 40.0398L128.251 41.5429L129.011 42.2311L129.464 42.7381L130.171 43.3357L130.388 43.4806L130.533 43.7884L130.822 44.6034L131.456 46.2332L131.619 47.5009L131.837 49.9094V51.1771L131.692 54.2919V54.4006L131.619 54.6903L131.637 55.5234L130.714 59.761L130.696 60.1956L129.537 62.6585L129.519 62.7853L125.154 66.4795L97.32 82.0899L89.3157 84.6976L86.1646 85.1685L78.1421 85.7842L70.6267 85.9834L64.9042 85.8204L59.6343 85.259L56.1754 84.0095L56.1392 83.937L54.6542 82.6332L54.618 82.5607L54.0023 82.0356L53.9299 81.7639L52.8976 79.2467L52.8433 78.3412L52.4811 75.5705L52.5173 75.1721L52.4811 74.3028L52.6441 71.2243L52.7166 69.9747L53.4047 66.5158L53.6944 65.2662L54.3283 63.8175L54.9258 62.6947L58.2761 59.7972L59.1454 59.0728L64.4333 55.9761L64.5782 55.9218L86.0197 43.8609L90.6919 41.2169L86.0559 42.7019L84.9694 43.0641L81.0215 45.2734L79.6271 46.034L57.4974 58.439L56.5738 59.0004L53.6763 61.4451L51.7205 63.1655L50.978 64.741L50.308 66.1898L49.2757 71.0612L49.0584 75.3713L49.0222 75.5524L49.0584 75.6067L49.0222 75.7516L49.0584 76.0051V76.2405L49.4568 79.5002L49.475 79.6632L50.7788 82.7961L51.7205 83.7197L53.7307 85.4401L58.3486 87.1062L64.4877 87.8124L70.6267 87.9573L78.4138 87.74L86.8166 87.1062L90.6014 86.5448L99.3664 83.7197L99.4026 83.6473L127.762 67.7653L132.633 63.6183L134.01 60.7208V60.5578L135.042 56.0666V55.6682L135.314 51.1228L134.915 47.2473Z" fill="#A7AAAC"/>
<path d="M123.995 40.7642L123.905 40.6917L123.941 40.5287L123.343 39.0076L122.891 38.4099L121.804 38.084L118.436 37.7942L114.126 37.6855L99.946 38.084L92.4125 40.2933L90.6921 41.2169L86.0199 43.8609L64.5783 55.9217L64.4334 55.9761L60.558 59.8334L60.2139 64.1796L60.0691 68.1094L60.3226 71.2242L60.9926 72.9446L61.5178 73.5422L62.369 73.7957L65.7554 74.1036L70.6269 74.2303L77.4541 74.0312L84.4081 73.8319L91.9054 71.6226L119.776 56.0123L123.742 52.1188L124.104 47.8268L124.303 43.8609L123.995 40.7642Z" fill="#DEF8FF"/>
<path d="M90.6377 97.2475L87.2331 97.8089L86.8347 97.8451L85.4946 97.9719L78.4501 98.4971H77.8524L71.659 98.6781L70.9347 99.0222L70.8622 99.0765L70.6086 99.2033L70.2827 99.2757L69.5764 99.1671L68.834 98.8773L68.4355 98.9317L67.9285 98.8773L67.4395 98.6419L67.3308 98.6057L65.2664 98.5694L64.4877 98.5514L60.8114 98.153L59.5981 97.9719L61.5359 99.1308L62.2964 99.3301L65.7553 99.6923L70.6268 99.8009L73.307 99.7285L74.7738 99.6923H74.9549H75.3714L75.8966 99.656H76.4218L77.0194 99.6198H77.454H77.5446L77.943 99.6017H78.2689L84.4443 99.4025L91.9597 97.2294L93.2273 96.4688L90.6377 97.2475Z" fill="#90A0A5"/>
<path d="M131.619 47.5011L131.456 46.2334L130.822 44.6036L130.532 43.7887L130.388 43.4808L130.17 43.3359L129.464 42.7383L129.011 42.2313L128.251 41.5431L125.697 40.04L124.792 39.5149L122.89 38.4102L123.343 39.0078L123.941 40.529L123.904 40.692L123.995 40.7644L124.303 43.8611L124.104 47.8271L123.741 52.119L119.776 56.0125L91.9051 71.6229L84.4079 73.8322L77.4538 74.0314L70.6266 74.2306L65.7551 74.1039L62.3687 73.796L61.5175 73.5425L60.9923 72.9448L60.3223 71.2245L60.0688 68.1096L60.2137 64.1799L60.5577 59.8336L64.4331 55.9763L59.1452 59.073L58.2759 59.7974L54.9257 62.6949L54.3281 63.8177L53.6943 65.2664L53.4045 66.516L52.7164 69.9749L52.6439 71.2245L52.481 74.303L52.5172 75.1723L52.8794 77.9792L52.8974 78.2147L53.9297 80.75L53.9659 80.8406L54.6541 81.4743L56.1752 82.8145L59.6341 84.0459L64.8678 84.6073L70.6266 84.7703L78.1239 84.5711L86.1644 83.9734L89.3155 83.5207L97.3198 80.913L125.118 65.3026L129.464 61.6083L129.518 61.5359L130.659 59.1093V58.9463L131.619 54.6906L131.692 54.4008V54.2921L131.836 51.1773V49.9096L131.619 47.5011Z" fill="url(#paint25_linear_0_4850)"/>
<path d="M131.619 54.6904L130.659 58.9462V59.1091L129.518 61.5358L129.464 61.6082L125.118 65.3025L97.3198 80.9128L89.3155 83.5206L86.1644 83.9733L78.1239 84.571L70.6266 84.7701L64.8678 84.6072L59.6341 84.0458L56.1752 82.8143L54.6541 81.4742L53.9659 80.8404L53.9297 80.7498L52.8974 78.2145L52.8794 77.9791L52.5172 75.1722L52.481 75.5706L52.8431 78.3413L52.8974 79.2468L53.9297 81.764L54.0021 82.0357L54.6179 82.5608L54.6541 82.6332L56.139 83.9371L56.1752 84.0096L59.6341 85.2591L64.904 85.8205L70.6266 85.9835L78.142 85.7843L86.1644 85.1686L89.3155 84.6977L97.3198 82.09L125.154 66.4796L129.518 62.7853L129.536 62.6586L130.696 60.1957L130.714 59.761L131.637 55.5234L131.619 54.6904Z" fill="#789EB1"/>
<path d="M85.9109 62.4959V61.2826H85.44C85.1503 60.8842 84.7338 60.522 84.1724 60.196C81.8544 58.8559 78.1058 58.8559 75.8059 60.196C75.2445 60.522 74.8461 60.8842 74.5563 61.2826H74.0854V62.6227C74.0854 63.5101 74.6831 64.3793 75.8421 65.0494C78.1601 66.3895 81.9087 66.3895 84.2086 65.0494C85.4219 64.3431 85.9833 63.4014 85.9109 62.4959Z" fill="#FF3E2A"/>
<path d="M84.2087 63.854C86.5086 62.5139 86.5086 60.3408 84.1725 59.0007C81.8545 57.6606 78.1058 57.6606 75.8059 59.0007C73.506 60.3408 73.506 62.5139 75.824 63.854C78.1601 65.1941 81.9088 65.1941 84.2087 63.854Z" fill="#FF6452"/>
<path d="M93.9154 56.4832V55.7951H93.6437C93.4807 55.5778 93.2453 55.3786 92.9375 55.1975C91.6336 54.455 89.551 54.455 88.2472 55.1975C87.9393 55.3786 87.7038 55.5778 87.5409 55.7951H87.2874V56.5557C87.2874 57.0446 87.6133 57.5336 88.2652 57.9139C89.5691 58.6564 91.6517 58.6564 92.9556 57.9139C93.6256 57.5155 93.9335 56.9903 93.9154 56.4832Z" fill="#9B9B9B"/>
<path d="M92.9557 57.244C94.2414 56.5015 94.2415 55.2882 92.9376 54.5276C91.6337 53.7851 89.5511 53.7851 88.2472 54.5276C86.9615 55.2701 86.9614 56.4834 88.2653 57.244C89.5692 57.9865 91.6699 57.9865 92.9557 57.244Z" fill="#BBBBBB"/>
<path d="M101.883 51.9017V51.2135H101.612C101.449 50.9962 101.213 50.797 100.905 50.6159C99.6016 49.8735 97.519 49.8735 96.2152 50.6159C95.9073 50.797 95.6719 50.9962 95.5089 51.2135H95.2554V51.956C95.2554 52.445 95.5814 52.9339 96.2333 53.3142C97.5372 54.0567 99.6197 54.0567 100.924 53.3142C101.612 52.9339 101.92 52.4269 101.883 51.9017Z" fill="#9B9B9B"/>
<path d="M100.941 52.6624C102.227 51.92 102.227 50.7066 100.923 49.946C99.6195 49.2035 97.537 49.2035 96.2331 49.946C94.9473 50.6885 94.9473 51.9018 96.2512 52.6624C97.555 53.423 99.6557 53.423 100.941 52.6624Z" fill="#BBBBBB"/>
<path d="M109.924 47.1752V46.487H109.653C109.49 46.2697 109.254 46.0524 108.946 45.8894C107.642 45.1469 105.542 45.1469 104.256 45.8894C103.948 46.0705 103.713 46.2697 103.55 46.487H103.296V47.2295C103.296 47.7185 103.622 48.2074 104.274 48.5877C105.578 49.3302 107.661 49.3302 108.946 48.5877C109.634 48.2074 109.96 47.7004 109.924 47.1752Z" fill="#9B9B9B"/>
<path d="M108.964 47.9359C110.25 47.1753 110.25 45.9619 108.946 45.2195C107.642 44.477 105.542 44.477 104.256 45.2195C102.97 45.9619 102.97 47.1753 104.274 47.9359C105.578 48.6784 107.678 48.6784 108.964 47.9359Z" fill="#BBBBBB"/>
<path d="M70.1016 90.5107C70.1016 90.5107 77.2367 89.1525 78.776 92.2854C78.776 92.2854 79.6091 93.9515 77.7076 95.1829C75.8061 96.4144 70.4276 99.2757 70.4276 99.2757L66.5884 92.4484L70.1016 90.5107Z" fill="url(#paint26_linear_0_4850)"/>
<path d="M68.7616 92.5392C67.2042 91.6337 65.9546 92.3581 65.9365 94.1328C65.9365 95.9075 67.1861 98.0806 68.7435 98.9861C70.3009 99.8735 71.5505 99.1672 71.5505 97.3743C71.5686 95.5996 70.319 93.4265 68.7616 92.5392Z" fill="#F4F4F4"/>
<path d="M70.6994 96.9579C70.6994 95.7265 69.8482 94.2415 68.7798 93.6258C68.2727 93.336 67.82 93.2998 67.4759 93.4628L67.4396 93.4809C67.4215 93.4809 67.4216 93.499 67.4216 93.499L66.0271 94.2234L68.5443 99.0223L70.1017 98.2074C70.1198 98.2074 70.1379 98.1893 70.156 98.1893L70.1742 98.1712C70.482 97.9539 70.6994 97.5374 70.6994 96.9579Z" fill="url(#paint27_linear_0_4850)"/>
<path d="M67.2405 94.4045C66.172 93.7888 65.3027 94.2777 65.3027 95.5091C65.3027 96.7406 66.172 98.2256 67.2223 98.8413C68.2908 99.457 69.16 98.9681 69.16 97.7366C69.16 96.5233 68.3089 95.0202 67.2405 94.4045Z" fill="#EFEFEF"/>
<path d="M68.0554 97.4468C67.331 97.0303 66.7334 96.0162 66.7334 95.1651C66.7334 95.1108 66.7515 95.0745 66.7515 95.0383C66.2626 94.984 65.9185 95.328 65.9185 95.9618C65.9185 96.7949 66.5161 97.8271 67.2405 98.2437C67.9286 98.6421 68.49 98.3523 68.5443 97.6279C68.3814 97.5917 68.2183 97.5374 68.0554 97.4468Z" fill="#D6D7D7"/>
<path d="M67.2405 95.2011C67.0594 95.1106 66.8964 95.0562 66.7515 95.02C66.7515 95.0743 66.7334 95.1106 66.7334 95.1468C66.7334 95.9798 67.3129 97.0121 68.0554 97.4286C68.2183 97.5191 68.3814 97.5735 68.5443 97.5916C68.5443 97.5373 68.5625 97.501 68.5625 97.4648C68.5444 96.6499 67.9648 95.6358 67.2405 95.2011Z" fill="#909090"/>
<path d="M155.161 71.1517C154.383 71.0611 153.495 73.2342 153.151 76.0231C152.807 78.8119 153.169 81.1481 153.93 81.2386L162.858 82.5606L164.089 72.4736L155.161 71.1517Z" fill="url(#paint28_linear_0_4850)"/>
<path d="M164.886 77.7075C164.542 80.4964 163.637 82.6695 162.876 82.5789C162.097 82.4884 161.753 80.1523 162.097 77.3634C162.441 74.5746 163.329 72.4014 164.108 72.492C164.868 72.5825 165.212 74.9187 164.886 77.7075Z" fill="#979797"/>
<path d="M163.727 75.3531C163.383 75.3168 163.003 76.2585 162.858 77.4537C162.713 78.667 162.858 79.6631 163.202 79.7174L167.059 80.2969L167.585 75.9325L163.727 75.3531Z" fill="#A1A1A1"/>
<path d="M173.307 83.8103V78.9751H168.073V83.9371C168.073 84.3355 168.327 84.7158 168.852 85.0236C169.884 85.6212 171.551 85.6212 172.565 85.0236C173.126 84.6977 173.361 84.2449 173.307 83.8103Z" fill="url(#paint29_linear_0_4850)"/>
<path d="M176.223 75.6064H165.122V81.2566H165.158C165.158 82.0715 165.701 82.8864 166.788 83.5203C168.961 84.7698 172.438 84.7698 174.593 83.5203C175.679 82.8864 176.205 82.0715 176.205 81.2566V75.6064H176.223Z" fill="url(#paint30_linear_0_4850)"/>
<path d="M175.77 74.194L175.118 74.5925C174.901 74.357 174.629 74.1397 174.285 73.9405C172.275 72.7815 169.033 72.7815 167.041 73.9405C166.697 74.1397 166.444 74.357 166.226 74.5925L165.737 73.8138L165.122 75.6247C165.212 76.2948 165.918 77.5805 167.077 78.16C169.16 79.2104 172.329 79.319 174.321 78.16C175.335 77.5805 176.223 76.3853 176.223 75.6247L175.77 74.194Z" fill="url(#paint31_linear_0_4850)"/>
<path d="M174.303 72.4918C172.293 71.3328 169.051 71.3328 167.059 72.4918C165.049 73.6508 165.067 75.5342 167.077 76.6932C169.088 77.8522 172.329 77.8522 174.321 76.6932C176.331 75.5342 176.313 73.6508 174.303 72.4918Z" fill="#31BCFE"/>
<path d="M173.307 74.5384V69.7031H168.073V74.6651C168.073 75.0635 168.327 75.4439 168.852 75.7517C169.884 76.3493 171.551 76.3493 172.565 75.7517C173.126 75.4076 173.361 74.973 173.307 74.5384Z" fill="url(#paint32_linear_0_4850)"/>
<path d="M172.546 68.5078C171.514 67.9102 169.848 67.9102 168.834 68.5078C167.802 69.1054 167.82 70.0651 168.852 70.6627C169.884 71.2604 171.55 71.2604 172.565 70.6627C173.579 70.0651 173.579 69.1054 172.546 68.5078Z" fill="#199CE8"/>
<path d="M172.166 68.1094C171.315 67.6204 169.975 67.6204 169.124 68.1094C168.291 68.5983 168.291 69.3771 169.142 69.866C169.993 70.355 171.333 70.355 172.184 69.866C173.017 69.3771 172.999 68.5983 172.166 68.1094Z" fill="#258DBF"/>
<path d="M171.677 68.7613C171.496 68.5077 171.116 68.3447 170.645 68.3447C170.174 68.3447 169.794 68.5258 169.613 68.7613H169.504V69.051C169.504 69.4494 170.011 69.7754 170.627 69.7754C171.243 69.7754 171.75 69.4494 171.75 69.051V68.7613H171.677Z" fill="#003F67"/>
<path d="M162.333 63.745L151.377 53.7305C153.477 53.7667 154.673 54.0564 154.944 54.5816L166.987 62.3868L164.542 63.4733L162.333 63.745Z" fill="#535F7B"/>
<path d="M162.061 64.4331L151.032 54.491L151.141 53.7485H151.377L162.333 63.745L162.061 64.4331Z" fill="#3A414E"/>
<path d="M162.84 64.4331L164.542 63.4733L166.987 62.3867L168.78 61.7891L169.703 62.5678L163.763 65.1031L162.84 64.4331Z" fill="#4A5673"/>
<path d="M162.84 64.4333V65.0127L162.061 64.4333L162.333 63.7451L162.84 64.4333Z" fill="#3A414E"/>
<path d="M167.422 65.2843L167.494 66.2984L163.763 65.1032L169.703 62.5679L170.482 65.1937L168.164 64.6685L167.422 65.2843Z" fill="#4A5673"/>
<path d="M167.494 66.2983V66.5336L167.313 66.8053L163.691 65.6825L163.763 65.103L167.494 66.2983Z" fill="#3A414E"/>
<path d="M164.542 63.4731L162.84 64.4329L162.333 63.7448L164.542 63.4731Z" fill="#535F7B"/>
<path d="M163.763 65.1031L163.691 65.6826L162.84 65.0126V64.4331L163.763 65.1031Z" fill="#3A414E"/>
<path d="M169.486 68.4897C169.739 68.1275 170.319 67.874 170.989 67.874C171.659 67.874 172.238 68.1275 172.492 68.4897H172.637V68.9243C172.637 69.5038 171.894 69.9747 170.971 69.9747C170.047 69.9747 169.305 69.5038 169.305 68.9243V68.1095L169.486 68.4897Z" fill="#003F67"/>
<path d="M167.295 65.5377C167.295 65.5558 167.295 65.5921 167.295 65.6102C167.313 65.6464 167.313 65.6826 167.331 65.7188C167.331 65.7369 167.349 65.7551 167.367 65.7913C167.385 65.8275 167.421 65.8637 167.44 65.8999C167.458 65.918 167.458 65.9362 167.476 65.9543C167.53 66.0086 167.584 66.0629 167.639 66.0991L171.786 69.051C172.384 69.4675 173.452 69.5399 174.176 69.1958C174.213 69.1777 174.267 69.1596 174.303 69.1234C174.376 69.0691 174.448 69.0328 174.52 68.9785C174.538 68.9604 174.557 68.9423 174.575 68.9242C174.611 68.888 174.647 68.8517 174.683 68.8155C174.701 68.7974 174.702 68.7612 174.72 68.7431C174.738 68.7069 174.756 68.6706 174.774 68.6344C174.774 68.6163 174.792 68.5801 174.792 68.562C174.792 68.5258 174.81 68.4896 174.81 68.4534C174.81 68.4534 174.81 68.4352 174.81 68.4171V69.5218C174.81 69.7753 174.647 70.0289 174.303 70.2281C174.267 70.2462 174.231 70.2643 174.176 70.3005C173.452 70.6446 172.384 70.5721 171.786 70.1556L167.639 67.2038C167.385 67.0227 167.259 66.8054 167.259 66.588V65.4834C167.277 65.5015 167.277 65.5196 167.295 65.5377Z" fill="url(#paint33_linear_0_4850)"/>
<path d="M174.792 68.5441C174.792 68.5623 174.774 68.5985 174.774 68.6166C174.756 68.6528 174.738 68.689 174.72 68.7252C174.702 68.7434 174.702 68.7795 174.684 68.7976C174.647 68.8339 174.611 68.8701 174.575 68.9064C174.557 68.9245 174.539 68.9426 174.521 68.9607C174.466 69.015 174.394 69.0693 174.303 69.1055C174.267 69.1236 174.231 69.1599 174.177 69.178C173.452 69.5221 172.384 69.4496 171.786 69.0331L167.639 66.0812C167.567 66.0269 167.512 65.9726 167.476 65.9364C167.458 65.9183 167.44 65.9002 167.44 65.8821C167.404 65.8458 167.386 65.8096 167.367 65.7734C167.349 65.7553 167.349 65.7372 167.331 65.701C167.313 65.6647 167.295 65.6285 167.295 65.5923C167.295 65.5742 167.295 65.538 167.295 65.5198C167.259 65.2482 167.422 64.9585 167.784 64.7593C167.82 64.7412 167.874 64.7049 167.911 64.6868C168.635 64.3428 169.704 64.4152 170.301 64.8317L174.448 67.7835C174.702 67.9646 174.828 68.2001 174.81 68.4174C174.81 68.4717 174.792 68.5079 174.792 68.5441Z" fill="#3FCCFF"/>
<path d="M169.667 66.4797C169.884 66.1719 170.373 65.9546 170.953 65.9546C171.532 65.9546 172.021 66.1719 172.239 66.4797H172.365V66.8601C172.365 67.3671 171.732 67.7655 170.953 67.7655C170.174 67.7655 169.54 67.3671 169.54 66.8601V66.4797H169.667Z" fill="url(#paint34_linear_0_4850)"/>
<path d="M169.54 66.5158C169.54 67.0229 170.174 67.4213 170.953 67.4213C171.732 67.4213 172.365 67.0048 172.365 66.5158C172.365 66.0269 171.732 65.6104 170.953 65.6104C170.174 65.6104 169.54 66.0088 169.54 66.5158Z" fill="#3FCCFF"/>
<path d="M171.895 71.7491L171.496 70.6263V70.5538V69.8838L172.347 71.9845L172.239 72.2561L171.895 71.7491Z" fill="#3A414E"/>
<path d="M172.583 72.836L172.239 72.2565L172.347 71.9849L173.434 72.9265L173.09 73.162L172.583 72.836Z" fill="#3A414E"/>
<path d="M173.09 73.1617L173.434 72.9263L173.941 75.4797L173.724 75.6427L173.09 73.1617Z" fill="#3A414E"/>
<path d="M178.957 70.3911L174.955 74.3571L173.941 75.4799L173.434 72.9264L178.957 70.3911Z" fill="#4A5673"/>
<path d="M179.193 70.21L179.7 70.7171L174.955 74.357L178.957 70.3911L179.193 70.21Z" fill="#535F7B"/>
<path d="M178.957 70.3911L173.434 72.9264L172.347 71.9847L178.178 69.377L178.522 69.5399L179.193 70.21L178.957 70.3911Z" fill="#4A5673"/>
<path d="M171.496 69.884L171.568 69.6124L171.731 69.7029L172.239 69.7754L172.927 69.7029L173.434 69.6124L174.52 68.9605L174.774 68.6164L174.792 68.3447L178.178 69.377L172.347 71.9847L171.496 69.884Z" fill="#4A5673"/>
<path d="M188.356 82.9411L187.686 82.8324L173.941 75.48L174.955 74.3572L179.7 70.7173L180.388 71.2424L180.714 71.5684L181.673 72.492L181.746 72.8361L190.837 82.09L189.044 82.8324L188.356 82.9411Z" fill="#535F7B"/>
<path d="M189.044 82.832L189.207 83.2848L188.464 83.4478L188.356 82.9407L189.044 82.832Z" fill="#3A414E"/>
<path d="M190.837 82.0898L191 82.5969L189.207 83.285L189.044 82.8323L190.837 82.0898Z" fill="#3A414E"/>
<path d="M188.356 82.9407L188.465 83.4478L187.686 83.1761V82.832L188.356 82.9407Z" fill="#3A414E"/>
<path d="M177.671 77.8523L176.422 77.1642L175.969 76.8925L174.955 76.3311L174.719 76.2225L173.723 75.643L173.941 75.48L187.686 82.8324V83.1765L182.923 80.7318L182.253 80.2971L177.671 77.8523Z" fill="#3A414E"/>
<path d="M153.296 76.4214L153.405 75.7876L126.531 71.6768V75.7514L132.416 76.6206L132.724 76.6568L133.34 76.7655L134.01 76.8742L134.481 76.9647L134.625 77.0371L153.206 79.826L153.133 78.7937V77.6528L153.296 76.4214Z" fill="#828282"/>
<path d="M132.253 68.6528L132.054 68.5985L131.384 68.4898L131.203 68.4717L126.531 71.6771L153.405 75.7879L153.514 75.1179L153.767 73.8683L154.075 72.8361L154.347 72.0755L132.253 68.6528Z" fill="#B7B8B7"/>
<path d="M146.451 83.4661L156.646 77.2002L156.665 77.1821C156.936 77.0372 157.298 77.0554 157.715 77.2908C158.548 77.7616 159.218 78.9388 159.218 79.8805C159.218 80.3332 159.055 80.6591 158.801 80.8221L158.783 80.8403H158.765L148.714 86.9793C148.624 87.0699 148.515 87.1423 148.389 87.1786L148.316 87.2148V87.1966C148.081 87.251 147.791 87.1967 147.483 87.0156C146.65 86.5266 145.98 85.3676 145.98 84.4259C145.998 83.955 146.179 83.6291 146.451 83.4661Z" fill="url(#paint35_linear_0_4850)"/>
<path d="M120.21 96.0883L147.628 80.4418C147.646 80.4237 147.646 80.4237 147.664 80.4237H147.682C148.153 80.1701 148.805 80.2063 149.511 80.6228C150.96 81.4559 152.137 83.5022 152.137 85.1683C152.137 85.9832 151.847 86.5447 151.395 86.8344L151.358 86.8525C151.358 86.8525 151.34 86.8525 151.34 86.8706L124.194 102.3C124.049 102.463 123.85 102.571 123.633 102.644L123.506 102.716L123.488 102.698C123.071 102.771 122.564 102.68 122.021 102.372C120.572 101.521 119.377 99.4929 119.395 97.8087C119.431 96.9394 119.721 96.3418 120.21 96.0883Z" fill="url(#paint36_linear_0_4850)"/>
<path d="M122.093 96.2876C120.645 95.4545 119.449 96.1246 119.449 97.7906C119.449 99.4567 120.627 101.485 122.075 102.336C123.524 103.169 124.701 102.499 124.719 100.833C124.737 99.1669 123.56 97.1206 122.093 96.2876Z" fill="#C1C1C0"/>
<path d="M112.26 102.789L121.134 97.4283L121.152 97.4101C121.423 97.2653 121.786 97.2834 122.202 97.5188C123.035 98.0078 123.705 99.1668 123.705 100.127C123.705 100.579 123.542 100.905 123.289 101.068L123.271 101.086C123.271 101.086 123.271 101.086 123.253 101.086L114.524 106.32C114.433 106.41 114.325 106.483 114.198 106.519L114.125 106.555V106.537C113.89 106.592 113.6 106.519 113.292 106.338C112.459 105.867 111.789 104.69 111.789 103.748C111.807 103.278 111.97 102.934 112.26 102.789Z" fill="url(#paint37_linear_0_4850)"/>
<path d="M100.344 87.0703V91.0725L102.246 95.1471L103.115 97.0124L103.622 98.0808L103.694 98.2981L103.93 98.8052L104.202 99.3847L104.455 99.9461L104.835 100.906L105.234 100.87V99.8374L105.904 98.8595L100.344 87.0703Z" fill="#828282"/>
<path d="M108.186 89.0441L107.316 87.1788L106.049 84.4805L100.344 87.0702L105.904 98.8593L106.012 98.805L106.99 97.972L108.131 97.4287L109.689 97.9539H111.101L113.274 98.7688L108.186 89.0441Z" fill="#B7B8B7"/>
<path d="M113.202 98.244C113.039 98.1354 112.64 97.4835 111.5 97.248C110.341 97.0126 105.741 96.8315 104.564 100.761C104.564 100.761 104.401 101.594 104.672 102.192L106.411 105.216L113.202 98.244Z" fill="url(#paint38_linear_0_4850)"/>
<path d="M115.737 106.647C115.737 109.146 113.637 111.192 111.047 111.192C108.457 111.192 106.357 109.164 106.357 106.647C106.357 104.147 108.457 102.101 111.047 102.101C113.637 102.119 115.737 104.147 115.737 106.647Z" fill="#962124"/>
<path d="M116.606 115.393V110.558H111.354V115.52C111.354 115.918 111.626 116.299 112.133 116.607C113.165 117.204 114.832 117.204 115.846 116.607C116.443 116.263 116.679 115.828 116.606 115.393Z" fill="url(#paint39_linear_0_4850)"/>
<path d="M119.54 107.189H108.439V112.84H108.475C108.475 113.655 109.018 114.469 110.105 115.103C112.278 116.353 115.755 116.353 117.91 115.103C118.997 114.469 119.522 113.655 119.522 112.84V107.189H119.54Z" fill="url(#paint40_linear_0_4850)"/>
<path d="M119.087 105.777L118.435 106.176C118.218 105.94 117.946 105.723 117.602 105.524C115.592 104.365 112.351 104.365 110.359 105.524C110.014 105.723 109.761 105.94 109.544 106.176L109.055 105.397L108.439 107.19C108.53 107.878 109.236 109.145 110.395 109.725C112.477 110.775 115.647 110.884 117.657 109.725C118.671 109.145 119.558 107.95 119.558 107.19L119.087 105.777Z" fill="url(#paint41_linear_0_4850)"/>
<path d="M117.62 104.075C115.61 102.916 112.369 102.916 110.358 104.075C108.348 105.234 108.366 107.117 110.377 108.276C112.387 109.435 115.628 109.435 117.638 108.276C119.649 107.117 119.63 105.234 117.62 104.075Z" fill="#31BCFE"/>
<path d="M116.606 106.121V101.286H111.354V106.248C111.354 106.647 111.626 107.027 112.133 107.317C113.165 107.914 114.832 107.914 115.846 107.317C116.443 106.991 116.679 106.538 116.606 106.121Z" fill="url(#paint42_linear_0_4850)"/>
<path d="M115.864 100.073C114.832 99.4751 113.166 99.4751 112.151 100.073C111.119 100.67 111.137 101.63 112.17 102.228C113.202 102.825 114.868 102.825 115.882 102.228C116.896 101.63 116.896 100.67 115.864 100.073Z" fill="#199CE8"/>
<path d="M115.483 99.6924C114.632 99.2034 113.292 99.2034 112.441 99.6924C111.608 100.181 111.608 100.96 112.459 101.449C113.31 101.938 114.65 101.938 115.502 101.449C116.317 100.96 116.317 100.181 115.483 99.6924Z" fill="#003F67"/>
<path d="M114.994 100.326C114.813 100.073 114.433 99.9097 113.962 99.9097C113.509 99.9097 113.111 100.073 112.948 100.326H112.839V100.616C112.839 101.014 113.346 101.34 113.962 101.34C114.578 101.34 115.085 101.014 115.085 100.616V100.326H114.994Z" fill="#003F67"/>
<path d="M122.583 95.9258L133.829 85.6396C131.674 85.694 130.442 85.9837 130.171 86.5089L117.802 94.5133L120.319 95.636L122.583 95.9258Z" fill="#535F7B"/>
<path d="M122.854 96.632L134.173 86.4183L134.064 85.6577H133.829L122.583 95.9257L122.854 96.632Z" fill="#3A414E"/>
<path d="M122.057 96.6319L120.319 95.654L117.802 94.5312L115.955 93.9155L115.013 94.7123L121.116 97.3201L122.057 96.6319Z" fill="#4A5673"/>
<path d="M122.057 96.6321V97.2297L122.854 96.6321L122.583 95.9258L122.057 96.6321Z" fill="#3A414E"/>
<path d="M117.349 97.5012L117.277 98.5516L121.116 97.3201L115.013 94.7124L114.216 97.4107L116.588 96.8674L117.349 97.5012Z" fill="#4A5673"/>
<path d="M117.277 98.5518V98.7872L117.458 99.0589L121.188 97.918L121.116 97.3203L117.277 98.5518Z" fill="#3A414E"/>
<path d="M120.319 95.6543L122.057 96.6322L122.583 95.9259L120.319 95.6543Z" fill="#3F4966"/>
<path d="M121.116 97.3204L121.188 97.9181L122.057 97.2299V96.6323L121.116 97.3204Z" fill="#3A414E"/>
<path d="M117.494 97.7728C117.494 97.7909 117.494 97.8271 117.476 97.8453C117.458 97.8815 117.458 97.9177 117.44 97.9539C117.44 97.972 117.421 97.9901 117.403 98.0264C117.385 98.0626 117.349 98.0988 117.331 98.135C117.313 98.1531 117.295 98.1712 117.295 98.1893C117.24 98.2437 117.186 98.298 117.114 98.3523L112.858 101.377C112.26 101.811 111.156 101.866 110.413 101.521C110.377 101.503 110.323 101.485 110.286 101.449C110.214 101.395 110.141 101.358 110.069 101.304C110.051 101.286 110.033 101.268 110.015 101.25C109.979 101.214 109.942 101.177 109.906 101.141C109.888 101.123 109.888 101.087 109.87 101.069C109.852 101.033 109.834 100.996 109.816 100.96C109.816 100.942 109.797 100.906 109.797 100.888C109.797 100.851 109.779 100.815 109.779 100.779C109.779 100.761 109.779 100.761 109.779 100.743V101.884C109.779 102.155 109.96 102.409 110.286 102.608C110.323 102.626 110.377 102.662 110.413 102.68C111.156 103.025 112.26 102.97 112.858 102.536L117.114 99.5113C117.367 99.3302 117.512 99.0948 117.512 98.8775V97.7366C117.494 97.7185 117.494 97.7366 117.494 97.7728Z" fill="url(#paint43_linear_0_4850)"/>
<path d="M109.797 100.851C109.797 100.888 109.816 100.906 109.816 100.924C109.834 100.96 109.852 100.996 109.87 101.033C109.888 101.051 109.888 101.087 109.906 101.105C109.942 101.141 109.978 101.177 110.015 101.214C110.033 101.232 110.051 101.25 110.069 101.268C110.141 101.322 110.214 101.377 110.286 101.413C110.323 101.431 110.377 101.467 110.413 101.485C111.156 101.848 112.26 101.775 112.858 101.34L117.114 98.3162C117.186 98.2619 117.24 98.2075 117.295 98.1532C117.313 98.1351 117.313 98.117 117.331 98.0989C117.367 98.0627 117.385 98.0265 117.403 97.9902C117.421 97.9721 117.421 97.9359 117.44 97.9178C117.458 97.8816 117.476 97.8453 117.476 97.8091C117.476 97.791 117.476 97.7548 117.494 97.7367C117.53 97.4469 117.367 97.1572 116.987 96.9399C116.951 96.9217 116.896 96.8855 116.86 96.8674C116.118 96.5233 115.013 96.5777 114.415 97.0123L110.16 100.037C109.888 100.236 109.761 100.471 109.779 100.707C109.779 100.779 109.779 100.815 109.797 100.851Z" fill="#3FCCFF"/>
<path d="M114.904 98.8054C114.687 98.5157 114.234 98.2983 113.691 98.2983C113.148 98.2983 112.677 98.4975 112.478 98.8054H112.351V99.1495C112.351 99.6203 112.948 100.001 113.691 100.001C114.433 100.001 115.031 99.6203 115.031 99.1495V98.8054H114.904Z" fill="url(#paint44_linear_0_4850)"/>
<path d="M115.031 98.8415C115.031 99.3123 114.433 99.6926 113.691 99.6926C112.948 99.6926 112.351 99.3123 112.351 98.8415C112.351 98.3706 112.948 97.9903 113.691 97.9903C114.415 97.9722 115.031 98.3706 115.031 98.8415Z" fill="#3FCCFF"/>
<path d="M112.749 104.129L113.166 102.989V102.916V102.228L112.297 104.383L112.405 104.655L112.749 104.129Z" fill="#3A414E"/>
<path d="M112.061 105.252L112.405 104.654L112.296 104.383L111.174 105.361L111.536 105.596L112.061 105.252Z" fill="#3A414E"/>
<path d="M111.536 105.596L111.174 105.361L110.667 107.969L110.884 108.15L111.536 105.596Z" fill="#3A414E"/>
<path d="M105.506 102.735L109.616 106.809L110.667 107.968L111.174 105.361L105.506 102.735Z" fill="#4A5673"/>
<path d="M105.252 102.572L104.745 103.097L109.616 106.809L105.505 102.735L105.252 102.572Z" fill="#535F7B"/>
<path d="M105.505 102.735L111.174 105.361L112.296 104.383L106.302 101.703L105.958 101.866L105.252 102.572L105.505 102.735Z" fill="#4A5673"/>
<path d="M113.166 102.228L113.093 101.938L112.93 102.047L112.405 102.119L111.699 102.047L111.174 101.938L110.069 101.286L109.815 100.924L109.797 100.652L106.302 101.703L112.296 104.383L113.166 102.228Z" fill="#4A5673"/>
<path d="M95.8532 115.629L96.5595 115.538L110.667 107.969L109.616 106.81L104.745 103.097L104.039 103.622L103.695 103.966L102.717 104.908L102.644 105.252L93.3179 114.76L95.165 115.538L95.8532 115.629Z" fill="#3F4966"/>
<path d="M95.1649 115.538L94.9839 115.991L95.7445 116.154L95.8531 115.629L95.1649 115.538Z" fill="#3A414E"/>
<path d="M93.3178 114.76L93.1367 115.285L94.9839 115.991L95.165 115.539L93.3178 114.76Z" fill="#3A414E"/>
<path d="M95.853 115.629L95.7444 116.154L96.5593 115.882V115.538L95.853 115.629Z" fill="#3A414E"/>
<path d="M106.827 110.413L108.113 109.707L108.566 109.435L109.616 108.838L109.852 108.729L110.884 108.149L110.667 107.968L96.5593 115.538V115.882L101.431 113.365L102.119 112.912L106.827 110.413Z" fill="#3A414E"/>
<defs>
<linearGradient id="paint0_linear_0_4850" x1="71.4493" y1="28.1542" x2="76.7022" y2="28.1542" gradientUnits="userSpaceOnUse">
<stop stop-color="#3ECAFF"/>
<stop offset="0.1311" stop-color="#30B1EC"/>
<stop offset="0.2784" stop-color="#249DDD"/>
<stop offset="0.4466" stop-color="#1C8FD2"/>
<stop offset="0.6519" stop-color="#1786CC"/>
<stop offset="1" stop-color="#1684CA"/>
</linearGradient>
<linearGradient id="paint1_linear_0_4850" x1="68.5172" y1="25.962" x2="79.6105" y2="25.962" gradientUnits="userSpaceOnUse">
<stop stop-color="#38C0FE"/>
<stop offset="1" stop-color="#2687CB"/>
</linearGradient>
<linearGradient id="paint2_linear_0_4850" x1="68.5172" y1="21.9569" x2="79.6105" y2="21.9569" gradientUnits="userSpaceOnUse">
<stop stop-color="#4CD2FF"/>
<stop offset="0.0166" stop-color="#5ED7FF"/>
<stop offset="0.0508" stop-color="#7EE0FF"/>
<stop offset="0.088" stop-color="#98E7FF"/>
<stop offset="0.1289" stop-color="#ACEDFF"/>
<stop offset="0.1753" stop-color="#BAF1FF"/>
<stop offset="0.2319" stop-color="#C3F3FF"/>
<stop offset="0.328" stop-color="#C5F4FF"/>
<stop offset="0.3564" stop-color="#BCEFFE"/>
<stop offset="0.5848" stop-color="#77CCF4"/>
<stop offset="0.7758" stop-color="#45B2ED"/>
<stop offset="0.9197" stop-color="#26A2E9"/>
<stop offset="1" stop-color="#1A9CE7"/>
</linearGradient>
<linearGradient id="paint3_linear_0_4850" x1="71.4493" y1="18.874" x2="76.7022" y2="18.874" gradientUnits="userSpaceOnUse">
<stop stop-color="#3ECAFF"/>
<stop offset="0.1311" stop-color="#30B1EC"/>
<stop offset="0.2784" stop-color="#249DDD"/>
<stop offset="0.4466" stop-color="#1C8FD2"/>
<stop offset="0.6519" stop-color="#1786CC"/>
<stop offset="1" stop-color="#1684CA"/>
</linearGradient>
<linearGradient id="paint4_linear_0_4850" x1="69.8402" y1="14.6325" x2="77.5779" y2="14.6325" gradientUnits="userSpaceOnUse">
<stop stop-color="#3ECAFF"/>
<stop offset="0.1311" stop-color="#30B1EC"/>
<stop offset="0.2784" stop-color="#249DDD"/>
<stop offset="0.4466" stop-color="#1C8FD2"/>
<stop offset="0.6519" stop-color="#1786CC"/>
<stop offset="1" stop-color="#1684CA"/>
</linearGradient>
<linearGradient id="paint5_linear_0_4850" x1="72.4094" y1="13.5185" x2="75.0982" y2="13.5185" gradientUnits="userSpaceOnUse">
<stop stop-color="#4CD2FF"/>
<stop offset="0.0166" stop-color="#5ED7FF"/>
<stop offset="0.0508" stop-color="#7EE0FF"/>
<stop offset="0.088" stop-color="#98E7FF"/>
<stop offset="0.1289" stop-color="#ACEDFF"/>
<stop offset="0.1753" stop-color="#BAF1FF"/>
<stop offset="0.2319" stop-color="#C3F3FF"/>
<stop offset="0.328" stop-color="#C5F4FF"/>
<stop offset="0.3564" stop-color="#BCEFFE"/>
<stop offset="0.5848" stop-color="#77CCF4"/>
<stop offset="0.7758" stop-color="#45B2ED"/>
<stop offset="0.9197" stop-color="#26A2E9"/>
<stop offset="1" stop-color="#1A9CE7"/>
</linearGradient>
<linearGradient id="paint6_linear_0_4850" x1="70.9421" y1="29.6396" x2="82.8364" y2="29.6396" gradientUnits="userSpaceOnUse">
<stop stop-color="#A0A1A0"/>
<stop offset="0.091" stop-color="#B6B7B6"/>
<stop offset="0.2577" stop-color="#D9D9D9"/>
<stop offset="0.3946" stop-color="#EEEEEE"/>
<stop offset="0.4839" stop-color="#F6F6F6"/>
<stop offset="0.4854" stop-color="#F6F6F6"/>
<stop offset="0.672" stop-color="#F6F6F6"/>
<stop offset="0.8417" stop-color="#F4F4F4"/>
<stop offset="0.9417" stop-color="#EBEBEB"/>
<stop offset="1" stop-color="#E2E2E2"/>
</linearGradient>
<linearGradient id="paint7_linear_0_4850" x1="68.8646" y1="35.991" x2="66.5872" y2="32.0463" gradientUnits="userSpaceOnUse">
<stop stop-color="#333E56"/>
<stop offset="0.116" stop-color="#364159"/>
<stop offset="0.1987" stop-color="#3F4A61"/>
<stop offset="0.2709" stop-color="#4F596E"/>
<stop offset="0.3372" stop-color="#656E82"/>
<stop offset="0.3995" stop-color="#818A9B"/>
<stop offset="0.4579" stop-color="#A4ABB9"/>
<stop offset="0.4946" stop-color="#BEC4D0"/>
<stop offset="0.5052" stop-color="#B9BFCB"/>
<stop offset="0.5765" stop-color="#9EA4B2"/>
<stop offset="0.6542" stop-color="#898F9D"/>
<stop offset="0.7407" stop-color="#7A808F"/>
<stop offset="0.8429" stop-color="#727887"/>
<stop offset="1" stop-color="#6F7584"/>
</linearGradient>
<linearGradient id="paint8_linear_0_4850" x1="52.8935" y1="46.5413" x2="49.1007" y2="39.9719" gradientUnits="userSpaceOnUse">
<stop stop-color="#828282"/>
<stop offset="0.1457" stop-color="#949494"/>
<stop offset="0.3547" stop-color="#A9A9A9"/>
<stop offset="0.4946" stop-color="#B0B0B0"/>
<stop offset="0.9425" stop-color="#B9B9B8"/>
<stop offset="1" stop-color="#BBBBB9"/>
</linearGradient>
<linearGradient id="paint9_linear_0_4850" x1="34.0807" y1="55.6459" x2="31.8608" y2="51.8009" gradientUnits="userSpaceOnUse">
<stop stop-color="#333E56"/>
<stop offset="0.116" stop-color="#364159"/>
<stop offset="0.1987" stop-color="#3F4A61"/>
<stop offset="0.2709" stop-color="#4F596E"/>
<stop offset="0.3372" stop-color="#656E82"/>
<stop offset="0.3995" stop-color="#818A9B"/>
<stop offset="0.4579" stop-color="#A4ABB9"/>
<stop offset="0.4946" stop-color="#BEC4D0"/>
<stop offset="0.5052" stop-color="#B9BFCB"/>
<stop offset="0.5765" stop-color="#9EA4B2"/>
<stop offset="0.6542" stop-color="#898F9D"/>
<stop offset="0.7407" stop-color="#7A808F"/>
<stop offset="0.8429" stop-color="#727887"/>
<stop offset="1" stop-color="#6F7584"/>
</linearGradient>
<linearGradient id="paint10_linear_0_4850" x1="79.977" y1="114.419" x2="73.4805" y2="103.167" gradientUnits="userSpaceOnUse">
<stop stop-color="#828282"/>
<stop offset="0.1457" stop-color="#949494"/>
<stop offset="0.3547" stop-color="#A9A9A9"/>
<stop offset="0.4946" stop-color="#B0B0B0"/>
<stop offset="0.9425" stop-color="#B9B9B8"/>
<stop offset="1" stop-color="#BBBBB9"/>
</linearGradient>
<linearGradient id="paint11_linear_0_4850" x1="65.1063" y1="113.459" x2="72.0531" y2="113.459" gradientUnits="userSpaceOnUse">
<stop stop-color="#828282"/>
<stop offset="0.1457" stop-color="#949494"/>
<stop offset="0.3547" stop-color="#A9A9A9"/>
<stop offset="0.4946" stop-color="#B0B0B0"/>
<stop offset="0.9425" stop-color="#B9B9B8"/>
<stop offset="1" stop-color="#BBBBB9"/>
</linearGradient>
<linearGradient id="paint12_linear_0_4850" x1="75.2288" y1="101.322" x2="77.2641" y2="101.322" gradientUnits="userSpaceOnUse">
<stop stop-color="#6F7584"/>
<stop offset="0.1571" stop-color="#727887"/>
<stop offset="0.2593" stop-color="#7A808F"/>
<stop offset="0.3458" stop-color="#898F9D"/>
<stop offset="0.4235" stop-color="#9EA4B2"/>
<stop offset="0.4948" stop-color="#B9BFCB"/>
<stop offset="0.5054" stop-color="#BEC4D0"/>
<stop offset="0.5421" stop-color="#A4ABB9"/>
<stop offset="0.6005" stop-color="#818A9B"/>
<stop offset="0.6628" stop-color="#656E82"/>
<stop offset="0.7291" stop-color="#4F596E"/>
<stop offset="0.8013" stop-color="#3F4A61"/>
<stop offset="0.884" stop-color="#364159"/>
<stop offset="1" stop-color="#333E56"/>
</linearGradient>
<linearGradient id="paint13_linear_0_4850" x1="74.2385" y1="98.5732" x2="78.2541" y2="98.5732" gradientUnits="userSpaceOnUse">
<stop stop-color="#E2E2E2"/>
<stop offset="0.0583" stop-color="#EBEBEB"/>
<stop offset="0.1583" stop-color="#F4F4F4"/>
<stop offset="0.328" stop-color="#F6F6F6"/>
<stop offset="0.6145" stop-color="#CBCBCB"/>
<stop offset="0.8619" stop-color="#ACACAC"/>
<stop offset="1" stop-color="#A0A1A0"/>
</linearGradient>
<linearGradient id="paint14_linear_0_4850" x1="73.3392" y1="96.8106" x2="79.1451" y2="96.8106" gradientUnits="userSpaceOnUse">
<stop stop-color="#E2E2E2"/>
<stop offset="0.0583" stop-color="#EBEBEB"/>
<stop offset="0.1583" stop-color="#F4F4F4"/>
<stop offset="0.328" stop-color="#F6F6F6"/>
<stop offset="0.6145" stop-color="#CBCBCB"/>
<stop offset="0.8619" stop-color="#ACACAC"/>
<stop offset="1" stop-color="#A0A1A0"/>
</linearGradient>
<linearGradient id="paint15_linear_0_4850" x1="48.995" y1="74.9045" x2="135.335" y2="74.9045" gradientUnits="userSpaceOnUse">
<stop stop-color="#E2E2E2"/>
<stop offset="0.0606" stop-color="#CDCDCD"/>
<stop offset="0.1321" stop-color="#BBBBBB"/>
<stop offset="0.1828" stop-color="#B4B4B4"/>
<stop offset="0.3656" stop-color="#898989"/>
<stop offset="0.4834" stop-color="#7A7A7A"/>
<stop offset="0.6022" stop-color="#676767"/>
<stop offset="0.7847" stop-color="#696969"/>
<stop offset="0.8615" stop-color="#707070"/>
<stop offset="0.9184" stop-color="#7C7D7C"/>
<stop offset="0.9652" stop-color="#8D8E8D"/>
<stop offset="1" stop-color="#A0A1A0"/>
</linearGradient>
<linearGradient id="paint16_linear_0_4850" x1="16.4677" y1="60.5663" x2="21.7178" y2="60.5663" gradientUnits="userSpaceOnUse">
<stop stop-color="#3ECAFF"/>
<stop offset="0.1311" stop-color="#30B1EC"/>
<stop offset="0.2784" stop-color="#249DDD"/>
<stop offset="0.4466" stop-color="#1C8FD2"/>
<stop offset="0.6519" stop-color="#1786CC"/>
<stop offset="1" stop-color="#1684CA"/>
</linearGradient>
<linearGradient id="paint17_linear_0_4850" x1="13.5341" y1="58.3728" x2="24.6288" y2="58.3728" gradientUnits="userSpaceOnUse">
<stop stop-color="#38C0FE"/>
<stop offset="1" stop-color="#2687CB"/>
</linearGradient>
<linearGradient id="paint18_linear_0_4850" x1="13.5341" y1="54.3685" x2="24.6288" y2="54.3685" gradientUnits="userSpaceOnUse">
<stop stop-color="#4CD2FF"/>
<stop offset="0.0166" stop-color="#5ED7FF"/>
<stop offset="0.0508" stop-color="#7EE0FF"/>
<stop offset="0.088" stop-color="#98E7FF"/>
<stop offset="0.1289" stop-color="#ACEDFF"/>
<stop offset="0.1753" stop-color="#BAF1FF"/>
<stop offset="0.2319" stop-color="#C3F3FF"/>
<stop offset="0.328" stop-color="#C5F4FF"/>
<stop offset="0.3564" stop-color="#BCEFFE"/>
<stop offset="0.5848" stop-color="#77CCF4"/>
<stop offset="0.7758" stop-color="#45B2ED"/>
<stop offset="0.9197" stop-color="#26A2E9"/>
<stop offset="1" stop-color="#1A9CE7"/>
</linearGradient>
<linearGradient id="paint19_linear_0_4850" x1="16.4677" y1="51.2859" x2="21.7178" y2="51.2859" gradientUnits="userSpaceOnUse">
<stop stop-color="#3ECAFF"/>
<stop offset="0.1311" stop-color="#30B1EC"/>
<stop offset="0.2784" stop-color="#249DDD"/>
<stop offset="0.4466" stop-color="#1C8FD2"/>
<stop offset="0.6519" stop-color="#1786CC"/>
<stop offset="1" stop-color="#1684CA"/>
</linearGradient>
<linearGradient id="paint20_linear_0_4850" x1="24.6449" y1="52.2326" x2="32.6045" y2="63.6001" gradientUnits="userSpaceOnUse">
<stop stop-color="#A0A1A0"/>
<stop offset="0.091" stop-color="#B6B7B6"/>
<stop offset="0.2577" stop-color="#D9D9D9"/>
<stop offset="0.3946" stop-color="#EEEEEE"/>
<stop offset="0.4839" stop-color="#F6F6F6"/>
<stop offset="0.4854" stop-color="#F6F6F6"/>
<stop offset="0.672" stop-color="#F6F6F6"/>
<stop offset="0.8417" stop-color="#F4F4F4"/>
<stop offset="0.9417" stop-color="#EBEBEB"/>
<stop offset="1" stop-color="#E2E2E2"/>
</linearGradient>
<linearGradient id="paint21_linear_0_4850" x1="15.5213" y1="46.357" x2="22.7194" y2="46.357" gradientUnits="userSpaceOnUse">
<stop stop-color="#3ECAFF"/>
<stop offset="0.1311" stop-color="#30B1EC"/>
<stop offset="0.2784" stop-color="#249DDD"/>
<stop offset="0.4466" stop-color="#1C8FD2"/>
<stop offset="0.6519" stop-color="#1786CC"/>
<stop offset="1" stop-color="#1684CA"/>
</linearGradient>
<linearGradient id="paint22_linear_0_4850" x1="17.6873" y1="45.2805" x2="20.4033" y2="45.2805" gradientUnits="userSpaceOnUse">
<stop stop-color="#3ECAFF"/>
<stop offset="0.1311" stop-color="#30B1EC"/>
<stop offset="0.2784" stop-color="#249DDD"/>
<stop offset="0.4466" stop-color="#1C8FD2"/>
<stop offset="0.6519" stop-color="#1786CC"/>
<stop offset="1" stop-color="#1684CA"/>
</linearGradient>
<linearGradient id="paint23_linear_0_4850" x1="52.015" y1="82.9546" x2="48.0322" y2="76.0562" gradientUnits="userSpaceOnUse">
<stop stop-color="#A0A1A0"/>
<stop offset="0.1286" stop-color="#AFB0AF"/>
<stop offset="0.4992" stop-color="#D5D6D5"/>
<stop offset="0.6935" stop-color="#E4E4E4"/>
<stop offset="1" stop-color="#E2E2E2"/>
</linearGradient>
<linearGradient id="paint24_linear_0_4850" x1="46.8972" y1="84.4941" x2="44.1421" y2="79.7219" gradientUnits="userSpaceOnUse">
<stop stop-color="#A0A1A0"/>
<stop offset="0.1381" stop-color="#ACACAC"/>
<stop offset="0.3855" stop-color="#CBCBCB"/>
<stop offset="0.672" stop-color="#F6F6F6"/>
<stop offset="0.8417" stop-color="#F4F4F4"/>
<stop offset="0.9417" stop-color="#EBEBEB"/>
<stop offset="1" stop-color="#E2E2E2"/>
</linearGradient>
<linearGradient id="paint25_linear_0_4850" x1="69.3098" y1="44.2897" x2="115.068" y2="80.0401" gradientUnits="userSpaceOnUse">
<stop offset="0.0968" stop-color="#EBFFFF"/>
<stop offset="0.2043" stop-color="#FBFFFF"/>
<stop offset="0.2462" stop-color="#ECF7FA"/>
<stop offset="0.3323" stop-color="#D4EAF1"/>
<stop offset="0.4303" stop-color="#C2E0EA"/>
<stop offset="0.5456" stop-color="#B5D8E6"/>
<stop offset="0.6949" stop-color="#ADD4E3"/>
<stop offset="1" stop-color="#ABD3E2"/>
</linearGradient>
<linearGradient id="paint26_linear_0_4850" x1="75.148" y1="96.7043" x2="71.1654" y2="89.8062" gradientUnits="userSpaceOnUse">
<stop stop-color="#A0A1A0"/>
<stop offset="0.1286" stop-color="#AFB0AF"/>
<stop offset="0.4992" stop-color="#D5D6D5"/>
<stop offset="0.6935" stop-color="#E4E4E4"/>
<stop offset="1" stop-color="#E2E2E2"/>
</linearGradient>
<linearGradient id="paint27_linear_0_4850" x1="70.0315" y1="98.2444" x2="67.2765" y2="93.4725" gradientUnits="userSpaceOnUse">
<stop stop-color="#A0A1A0"/>
<stop offset="0.1381" stop-color="#ACACAC"/>
<stop offset="0.3855" stop-color="#CBCBCB"/>
<stop offset="0.672" stop-color="#F6F6F6"/>
<stop offset="0.8417" stop-color="#F4F4F4"/>
<stop offset="0.9417" stop-color="#EBEBEB"/>
<stop offset="1" stop-color="#E2E2E2"/>
</linearGradient>
<linearGradient id="paint28_linear_0_4850" x1="157.166" y1="82.118" x2="160.038" y2="71.4014" gradientUnits="userSpaceOnUse">
<stop stop-color="#A0A1A0"/>
<stop offset="0.091" stop-color="#B6B7B6"/>
<stop offset="0.2577" stop-color="#D9D9D9"/>
<stop offset="0.3946" stop-color="#EEEEEE"/>
<stop offset="0.4839" stop-color="#F6F6F6"/>
<stop offset="0.4854" stop-color="#F6F6F6"/>
<stop offset="0.672" stop-color="#F6F6F6"/>
<stop offset="0.8417" stop-color="#F4F4F4"/>
<stop offset="0.9417" stop-color="#EBEBEB"/>
<stop offset="1" stop-color="#E2E2E2"/>
</linearGradient>
<linearGradient id="paint29_linear_0_4850" x1="168.061" y1="82.2241" x2="173.309" y2="82.2241" gradientUnits="userSpaceOnUse">
<stop stop-color="#3ECAFF"/>
<stop offset="0.1311" stop-color="#30B1EC"/>
<stop offset="0.2784" stop-color="#249DDD"/>
<stop offset="0.4466" stop-color="#1C8FD2"/>
<stop offset="0.6519" stop-color="#1786CC"/>
<stop offset="1" stop-color="#1684CA"/>
</linearGradient>
<linearGradient id="paint30_linear_0_4850" x1="165.127" y1="80.0308" x2="176.22" y2="80.0308" gradientUnits="userSpaceOnUse">
<stop stop-color="#38C0FE"/>
<stop offset="1" stop-color="#2687CB"/>
</linearGradient>
<linearGradient id="paint31_linear_0_4850" x1="165.127" y1="76.026" x2="176.22" y2="76.026" gradientUnits="userSpaceOnUse">
<stop stop-color="#4CD2FF"/>
<stop offset="0.0166" stop-color="#5ED7FF"/>
<stop offset="0.0508" stop-color="#7EE0FF"/>
<stop offset="0.088" stop-color="#98E7FF"/>
<stop offset="0.1289" stop-color="#ACEDFF"/>
<stop offset="0.1753" stop-color="#BAF1FF"/>
<stop offset="0.2319" stop-color="#C3F3FF"/>
<stop offset="0.328" stop-color="#C5F4FF"/>
<stop offset="0.3564" stop-color="#BCEFFE"/>
<stop offset="0.5848" stop-color="#77CCF4"/>
<stop offset="0.7758" stop-color="#45B2ED"/>
<stop offset="0.9197" stop-color="#26A2E9"/>
<stop offset="1" stop-color="#1A9CE7"/>
</linearGradient>
<linearGradient id="paint32_linear_0_4850" x1="168.061" y1="72.9431" x2="173.309" y2="72.9431" gradientUnits="userSpaceOnUse">
<stop stop-color="#3ECAFF"/>
<stop offset="0.1311" stop-color="#30B1EC"/>
<stop offset="0.2784" stop-color="#249DDD"/>
<stop offset="0.4466" stop-color="#1C8FD2"/>
<stop offset="0.6519" stop-color="#1786CC"/>
<stop offset="1" stop-color="#1684CA"/>
</linearGradient>
<linearGradient id="paint33_linear_0_4850" x1="167.274" y1="67.9861" x2="174.81" y2="67.9861" gradientUnits="userSpaceOnUse">
<stop stop-color="#3ECAFF"/>
<stop offset="0.1311" stop-color="#30B1EC"/>
<stop offset="0.2784" stop-color="#249DDD"/>
<stop offset="0.4466" stop-color="#1C8FD2"/>
<stop offset="0.6519" stop-color="#1786CC"/>
<stop offset="1" stop-color="#1684CA"/>
</linearGradient>
<linearGradient id="paint34_linear_0_4850" x1="169.543" y1="66.8586" x2="172.383" y2="66.8586" gradientUnits="userSpaceOnUse">
<stop stop-color="#3ECAFF"/>
<stop offset="0.1311" stop-color="#30B1EC"/>
<stop offset="0.2784" stop-color="#249DDD"/>
<stop offset="0.4466" stop-color="#1C8FD2"/>
<stop offset="0.6519" stop-color="#1786CC"/>
<stop offset="1" stop-color="#1684CA"/>
</linearGradient>
<linearGradient id="paint35_linear_0_4850" x1="153.753" y1="84.1439" x2="151.474" y2="80.197" gradientUnits="userSpaceOnUse">
<stop stop-color="#333E56"/>
<stop offset="0.116" stop-color="#364159"/>
<stop offset="0.1987" stop-color="#3F4A61"/>
<stop offset="0.2709" stop-color="#4F596E"/>
<stop offset="0.3372" stop-color="#656E82"/>
<stop offset="0.3995" stop-color="#818A9B"/>
<stop offset="0.4579" stop-color="#A4ABB9"/>
<stop offset="0.4946" stop-color="#BEC4D0"/>
<stop offset="0.5052" stop-color="#B9BFCB"/>
<stop offset="0.5765" stop-color="#9EA4B2"/>
<stop offset="0.6542" stop-color="#898F9D"/>
<stop offset="0.7407" stop-color="#7A808F"/>
<stop offset="0.8429" stop-color="#727887"/>
<stop offset="1" stop-color="#6F7584"/>
</linearGradient>
<linearGradient id="paint36_linear_0_4850" x1="137.677" y1="94.7518" x2="133.884" y2="88.1835" gradientUnits="userSpaceOnUse">
<stop stop-color="#828282"/>
<stop offset="0.1457" stop-color="#949494"/>
<stop offset="0.3547" stop-color="#A9A9A9"/>
<stop offset="0.4946" stop-color="#B0B0B0"/>
<stop offset="0.9425" stop-color="#B9B9B8"/>
<stop offset="1" stop-color="#BBBBB9"/>
</linearGradient>
<linearGradient id="paint37_linear_0_4850" x1="118.863" y1="103.857" x2="116.644" y2="100.013" gradientUnits="userSpaceOnUse">
<stop stop-color="#333E56"/>
<stop offset="0.116" stop-color="#364159"/>
<stop offset="0.1987" stop-color="#3F4A61"/>
<stop offset="0.2709" stop-color="#4F596E"/>
<stop offset="0.3372" stop-color="#656E82"/>
<stop offset="0.3995" stop-color="#818A9B"/>
<stop offset="0.4579" stop-color="#A4ABB9"/>
<stop offset="0.4946" stop-color="#BEC4D0"/>
<stop offset="0.5052" stop-color="#B9BFCB"/>
<stop offset="0.5765" stop-color="#9EA4B2"/>
<stop offset="0.6542" stop-color="#898F9D"/>
<stop offset="0.7407" stop-color="#7A808F"/>
<stop offset="0.8429" stop-color="#727887"/>
<stop offset="1" stop-color="#6F7584"/>
</linearGradient>
<linearGradient id="paint38_linear_0_4850" x1="104.527" y1="101.184" x2="113.211" y2="101.184" gradientUnits="userSpaceOnUse">
<stop stop-color="#E2E2E2"/>
<stop offset="0.0583" stop-color="#EBEBEB"/>
<stop offset="0.1583" stop-color="#F4F4F4"/>
<stop offset="0.328" stop-color="#F6F6F6"/>
<stop offset="0.6145" stop-color="#CBCBCB"/>
<stop offset="0.8619" stop-color="#ACACAC"/>
<stop offset="1" stop-color="#A0A1A0"/>
</linearGradient>
<linearGradient id="paint39_linear_0_4850" x1="111.372" y1="113.801" x2="116.624" y2="113.801" gradientUnits="userSpaceOnUse">
<stop stop-color="#3ECAFF"/>
<stop offset="0.1311" stop-color="#30B1EC"/>
<stop offset="0.2784" stop-color="#249DDD"/>
<stop offset="0.4466" stop-color="#1C8FD2"/>
<stop offset="0.6519" stop-color="#1786CC"/>
<stop offset="1" stop-color="#1684CA"/>
</linearGradient>
<linearGradient id="paint40_linear_0_4850" x1="108.44" y1="111.607" x2="119.535" y2="111.607" gradientUnits="userSpaceOnUse">
<stop stop-color="#38C0FE"/>
<stop offset="1" stop-color="#2687CB"/>
</linearGradient>
<linearGradient id="paint41_linear_0_4850" x1="108.44" y1="107.603" x2="119.535" y2="107.603" gradientUnits="userSpaceOnUse">
<stop stop-color="#4CD2FF"/>
<stop offset="0.0166" stop-color="#5ED7FF"/>
<stop offset="0.0508" stop-color="#7EE0FF"/>
<stop offset="0.088" stop-color="#98E7FF"/>
<stop offset="0.1289" stop-color="#ACEDFF"/>
<stop offset="0.1753" stop-color="#BAF1FF"/>
<stop offset="0.2319" stop-color="#C3F3FF"/>
<stop offset="0.328" stop-color="#C5F4FF"/>
<stop offset="0.3564" stop-color="#BCEFFE"/>
<stop offset="0.5848" stop-color="#77CCF4"/>
<stop offset="0.7758" stop-color="#45B2ED"/>
<stop offset="0.9197" stop-color="#26A2E9"/>
<stop offset="1" stop-color="#1A9CE7"/>
</linearGradient>
<linearGradient id="paint42_linear_0_4850" x1="111.372" y1="104.52" x2="116.624" y2="104.52" gradientUnits="userSpaceOnUse">
<stop stop-color="#3ECAFF"/>
<stop offset="0.1311" stop-color="#30B1EC"/>
<stop offset="0.2784" stop-color="#249DDD"/>
<stop offset="0.4466" stop-color="#1C8FD2"/>
<stop offset="0.6519" stop-color="#1786CC"/>
<stop offset="1" stop-color="#1684CA"/>
</linearGradient>
<linearGradient id="paint43_linear_0_4850" x1="109.766" y1="100.279" x2="117.502" y2="100.279" gradientUnits="userSpaceOnUse">
<stop stop-color="#3ECAFF"/>
<stop offset="0.1311" stop-color="#30B1EC"/>
<stop offset="0.2784" stop-color="#249DDD"/>
<stop offset="0.4466" stop-color="#1C8FD2"/>
<stop offset="0.6519" stop-color="#1786CC"/>
<stop offset="1" stop-color="#1684CA"/>
</linearGradient>
<linearGradient id="paint44_linear_0_4850" x1="112.335" y1="99.1667" x2="115.022" y2="99.1667" gradientUnits="userSpaceOnUse">
<stop stop-color="#4CD2FF"/>
<stop offset="0.0166" stop-color="#5ED7FF"/>
<stop offset="0.0508" stop-color="#7EE0FF"/>
<stop offset="0.088" stop-color="#98E7FF"/>
<stop offset="0.1289" stop-color="#ACEDFF"/>
<stop offset="0.1753" stop-color="#BAF1FF"/>
<stop offset="0.2319" stop-color="#C3F3FF"/>
<stop offset="0.328" stop-color="#C5F4FF"/>
<stop offset="0.3564" stop-color="#BCEFFE"/>
<stop offset="0.5848" stop-color="#77CCF4"/>
<stop offset="0.7758" stop-color="#45B2ED"/>
<stop offset="0.9197" stop-color="#26A2E9"/>
<stop offset="1" stop-color="#1A9CE7"/>
</linearGradient>
</defs>
</svg>
