<svg width="37" height="37" viewBox="0 0 37 37" fill="none" xmlns="http://www.w3.org/2000/svg">
<rect width="37" height="37" fill="white"/>
<path d="M18.5 14C16.0162 14 13.7638 15.3589 12.1017 17.5661C11.9661 17.747 11.9661 17.9996 12.1017 18.1804C13.7638 20.3903 16.0162 21.7492 18.5 21.7492C20.9838 21.7492 23.2362 20.3903 24.8983 18.1831C25.0339 18.0022 25.0339 17.7496 24.8983 17.5688C23.2362 15.3589 20.9838 14 18.5 14ZM18.6782 20.603C17.0294 20.7068 15.6678 19.3479 15.7716 17.6964C15.8567 16.3349 16.9603 15.2313 18.3218 15.1462C19.9706 15.0424 21.3322 16.4013 21.2284 18.0528C21.1407 19.4117 20.0371 20.5153 18.6782 20.603ZM18.5957 19.3425C17.7075 19.3984 16.9736 18.6671 17.0321 17.7789C17.0773 17.0449 17.673 16.4519 18.4069 16.404C19.2951 16.3482 20.0291 17.0795 19.9706 17.9677C19.9227 18.7043 19.327 19.2973 18.5957 19.3425Z" fill="#636363"/>
</svg>
